<?xml version="1.0" encoding="UTF-8" standalone="no"?>
<!DOCTYPE svg PUBLIC "-//W3C//DTD SVG 1.1//EN"
 "http://www.w3.org/Graphics/SVG/1.1/DTD/svg11.dtd">
<!-- Generated by graphviz version 14.1.1 (20251213.1925)
 -->
<!-- Title: src/view/AttributeRenderer.cpp Pages: 1 -->
<svg width="1163pt" height="252pt"
 viewBox="0.00 0.00 1163.00 252.00" xmlns="http://www.w3.org/2000/svg" xmlns:xlink="http://www.w3.org/1999/xlink">
<g id="graph0" class="graph" transform="scale(1 1) rotate(0) translate(4 248)">
<title>src/view/AttributeRenderer.cpp</title>
<!-- Node1 -->
<g id="Node000001" class="node">
<title>Node1</title>
<g id="a_Node000001"><a xlink:title=" ">
<polygon fill="#999999" stroke="#666666" points="636.12,-244 485.12,-244 485.12,-224 636.12,-224 636.12,-244"/>
<text xml:space="preserve" text-anchor="middle" x="560.62" y="-230.5" font-family="Helvetica,sans-Serif" font-size="10.00">src/view/AttributeRenderer.cpp</text>
</a>
</g>
</g>
<!-- Node2 -->
<g id="Node000002" class="node">
<title>Node2</title>
<g id="a_Node000002"><a xlink:href="_attribute_renderer_8h.html" target="_top" xlink:title=" ">
<polygon fill="white" stroke="#666666" points="284,-188 183.25,-188 183.25,-168 284,-168 284,-188"/>
<text xml:space="preserve" text-anchor="middle" x="233.62" y="-174.5" font-family="Helvetica,sans-Serif" font-size="10.00">AttributeRenderer.h</text>
</a>
</g>
</g>
<!-- Node1&#45;&gt;Node2 -->
<g id="edge1_Node000001_Node000002" class="edge">
<title>Node1&#45;&gt;Node2</title>
<g id="a_edge1_Node000001_Node000002"><a xlink:title=" ">
<path fill="none" stroke="#63b8ff" d="M503.29,-223.53C445.13,-213.93 355.38,-199.11 295.6,-189.24"/>
<polygon fill="#63b8ff" stroke="#63b8ff" points="296.37,-185.81 285.93,-187.64 295.23,-192.72 296.37,-185.81"/>
</a>
</g>
</g>
<!-- Node4 -->
<g id="Node000004" class="node">
<title>Node4</title>
<g id="a_Node000004"><a xlink:title=" ">
<polygon fill="#e0e0e0" stroke="#999999" points="133,-76 50.25,-76 50.25,-56 133,-56 133,-76"/>
<text xml:space="preserve" text-anchor="middle" x="91.62" y="-62.5" font-family="Helvetica,sans-Serif" font-size="10.00">QtGui/QPainter</text>
</a>
</g>
</g>
<!-- Node1&#45;&gt;Node4 -->
<g id="edge31_Node000001_Node000004" class="edge">
<title>Node1&#45;&gt;Node4</title>
<g id="a_edge31_Node000001_Node000004"><a xlink:title=" ">
<path fill="none" stroke="#63b8ff" d="M484.64,-231.54C345.72,-227.01 59.9,-208.41 4.62,-132 -11.52,-109.69 19.08,-91.68 48.34,-80.32"/>
<polygon fill="#63b8ff" stroke="#63b8ff" points="49.35,-83.68 57.55,-76.96 46.95,-77.1 49.35,-83.68"/>
</a>
</g>
</g>
<!-- Node5 -->
<g id="Node000005" class="node">
<title>Node5</title>
<g id="a_Node000005"><a xlink:title=" ">
<polygon fill="#e0e0e0" stroke="#999999" points="355.12,-76 270.12,-76 270.12,-56 355.12,-56 355.12,-76"/>
<text xml:space="preserve" text-anchor="middle" x="312.62" y="-62.5" font-family="Helvetica,sans-Serif" font-size="10.00">QtCore/QRectF</text>
</a>
</g>
</g>
<!-- Node1&#45;&gt;Node5 -->
<g id="edge32_Node000001_Node000005" class="edge">
<title>Node1&#45;&gt;Node5</title>
<g id="a_edge32_Node000001_Node000005"><a xlink:title=" ">
<path fill="none" stroke="#63b8ff" d="M549,-223.62C522.59,-202.49 455.63,-150.03 395.62,-112 378.24,-100.99 357.96,-89.96 341.79,-81.57"/>
<polygon fill="#63b8ff" stroke="#63b8ff" points="343.67,-78.61 333.18,-77.16 340.48,-84.84 343.67,-78.61"/>
</a>
</g>
</g>
<!-- Node10 -->
<g id="Node000010" class="node">
<title>Node10</title>
<g id="a_Node000010"><a xlink:href="_basic_element_8h.html" target="_top" xlink:title=" ">
<polygon fill="white" stroke="#666666" points="654.75,-132 540.5,-132 540.5,-112 654.75,-112 654.75,-132"/>
<text xml:space="preserve" text-anchor="middle" x="597.62" y="-118.5" font-family="Helvetica,sans-Serif" font-size="10.00">model/BasicElement.h</text>
</a>
</g>
</g>
<!-- Node1&#45;&gt;Node10 -->
<g id="edge9_Node000001_Node000010" class="edge">
<title>Node1&#45;&gt;Node10</title>
<g id="a_edge9_Node000001_Node000010"><a xlink:title=" ">
<path fill="none" stroke="#63b8ff" d="M554.4,-223.81C546.47,-210.88 534.82,-186.8 543.62,-168 549.19,-156.11 559.62,-146.26 569.84,-138.84"/>
<polygon fill="#63b8ff" stroke="#63b8ff" points="571.75,-141.77 578.15,-133.32 567.88,-135.94 571.75,-141.77"/>
</a>
</g>
</g>
<!-- Node19 -->
<g id="Node000019" class="node">
<title>Node19</title>
<g id="a_Node000019"><a xlink:href="_attribute_8h.html" target="_top" xlink:title=" ">
<polygon fill="white" stroke="#666666" points="642.75,-188 552.5,-188 552.5,-168 642.75,-168 642.75,-188"/>
<text xml:space="preserve" text-anchor="middle" x="597.62" y="-174.5" font-family="Helvetica,sans-Serif" font-size="10.00">model/Attribute.h</text>
</a>
</g>
</g>
<!-- Node1&#45;&gt;Node19 -->
<g id="edge24_Node000001_Node000019" class="edge">
<title>Node1&#45;&gt;Node19</title>
<g id="a_edge24_Node000001_Node000019"><a xlink:title=" ">
<path fill="none" stroke="#63b8ff" d="M567.07,-223.59C571.95,-216.47 578.81,-206.45 584.8,-197.72"/>
<polygon fill="#63b8ff" stroke="#63b8ff" points="587.63,-199.77 590.4,-189.55 581.86,-195.82 587.63,-199.77"/>
</a>
</g>
</g>
<!-- Node20 -->
<g id="Node000020" class="node">
<title>Node20</title>
<g id="a_Node000020"><a xlink:href="_attribute_type_8h.html" target="_top" xlink:title=" ">
<polygon fill="white" stroke="#666666" points="911.62,-132 829.62,-132 829.62,-112 911.62,-112 911.62,-132"/>
<text xml:space="preserve" text-anchor="middle" x="870.62" y="-118.5" font-family="Helvetica,sans-Serif" font-size="10.00">AttributeType.h</text>
</a>
</g>
</g>
<!-- Node1&#45;&gt;Node20 -->
<g id="edge29_Node000001_Node000020" class="edge">
<title>Node1&#45;&gt;Node20</title>
<g id="a_edge29_Node000001_Node000020"><a xlink:title=" ">
<path fill="none" stroke="#63b8ff" d="M579.87,-223.66C598.33,-214.65 626.97,-200.58 651.62,-188 668.62,-179.32 671.79,-174.8 689.62,-168 731.71,-151.96 781.51,-140.06 818.2,-132.55"/>
<polygon fill="#63b8ff" stroke="#63b8ff" points="818.54,-136.05 827.66,-130.65 817.17,-129.18 818.54,-136.05"/>
</a>
</g>
</g>
<!-- Node22 -->
<g id="Node000022" class="node">
<title>Node22</title>
<g id="a_Node000022"><a xlink:title=" ">
<polygon fill="#e0e0e0" stroke="#999999" points="802.5,-188 698.75,-188 698.75,-168 802.5,-168 802.5,-188"/>
<text xml:space="preserve" text-anchor="middle" x="750.62" y="-174.5" font-family="Helvetica,sans-Serif" font-size="10.00">QtGui/QFontMetrics</text>
</a>
</g>
</g>
<!-- Node1&#45;&gt;Node22 -->
<g id="edge30_Node000001_Node000022" class="edge">
<title>Node1&#45;&gt;Node22</title>
<g id="a_edge30_Node000001_Node000022"><a xlink:title=" ">
<path fill="none" stroke="#63b8ff" d="M593.72,-223.59C624.99,-214.71 672.12,-201.31 706.57,-191.52"/>
<polygon fill="#63b8ff" stroke="#63b8ff" points="707.15,-194.99 715.81,-188.89 705.24,-188.26 707.15,-194.99"/>
</a>
</g>
</g>
<!-- Node23 -->
<g id="Node000023" class="node">
<title>Node23</title>
<g id="a_Node000023"><a xlink:title=" ">
<polygon fill="#e0e0e0" stroke="#999999" points="906.5,-188 820.75,-188 820.75,-168 906.5,-168 906.5,-188"/>
<text xml:space="preserve" text-anchor="middle" x="863.62" y="-174.5" font-family="Helvetica,sans-Serif" font-size="10.00">QtCore/qmath.h</text>
</a>
</g>
</g>
<!-- Node1&#45;&gt;Node23 -->
<g id="edge33_Node000001_Node000023" class="edge">
<title>Node1&#45;&gt;Node23</title>
<g id="a_edge33_Node000001_Node000023"><a xlink:title=" ">
<path fill="none" stroke="#63b8ff" d="M613.75,-223.53C668.69,-213.74 754.03,-198.53 809.38,-188.67"/>
<polygon fill="#63b8ff" stroke="#63b8ff" points="809.65,-192.17 818.88,-186.97 808.42,-185.28 809.65,-192.17"/>
</a>
</g>
</g>
<!-- Node3 -->
<g id="Node000003" class="node">
<title>Node3</title>
<g id="a_Node000003"><a xlink:href="_element_renderer_8h.html" target="_top" xlink:title=" ">
<polygon fill="white" stroke="#666666" points="386.62,-132 286.62,-132 286.62,-112 386.62,-112 386.62,-132"/>
<text xml:space="preserve" text-anchor="middle" x="336.62" y="-118.5" font-family="Helvetica,sans-Serif" font-size="10.00">ElementRenderer.h</text>
</a>
</g>
</g>
<!-- Node2&#45;&gt;Node3 -->
<g id="edge2_Node000002_Node000003" class="edge">
<title>Node2&#45;&gt;Node3</title>
<g id="a_edge2_Node000002_Node000003"><a xlink:title=" ">
<path fill="none" stroke="#63b8ff" d="M251.56,-167.59C267.27,-159.36 290.35,-147.26 308.51,-137.74"/>
<polygon fill="#63b8ff" stroke="#63b8ff" points="309.97,-140.93 317.2,-133.18 306.72,-134.73 309.97,-140.93"/>
</a>
</g>
</g>
<!-- Node7 -->
<g id="Node000007" class="node">
<title>Node7</title>
<g id="a_Node000007"><a xlink:title=" ">
<polygon fill="#e0e0e0" stroke="#999999" points="85.37,-132 13.87,-132 13.87,-112 85.37,-112 85.37,-132"/>
<text xml:space="preserve" text-anchor="middle" x="49.62" y="-118.5" font-family="Helvetica,sans-Serif" font-size="10.00">QtGui/QFont</text>
</a>
</g>
</g>
<!-- Node2&#45;&gt;Node7 -->
<g id="edge6_Node000002_Node000007" class="edge">
<title>Node2&#45;&gt;Node7</title>
<g id="a_edge6_Node000002_Node000007"><a xlink:title=" ">
<path fill="none" stroke="#63b8ff" d="M201.57,-167.59C171.41,-158.74 126.04,-145.43 92.72,-135.65"/>
<polygon fill="#63b8ff" stroke="#63b8ff" points="93.96,-132.36 83.37,-132.91 91.98,-139.08 93.96,-132.36"/>
</a>
</g>
</g>
<!-- Node8 -->
<g id="Node000008" class="node">
<title>Node8</title>
<g id="a_Node000008"><a xlink:title=" ">
<polygon fill="#e0e0e0" stroke="#999999" points="181.37,-132 103.87,-132 103.87,-112 181.37,-112 181.37,-132"/>
<text xml:space="preserve" text-anchor="middle" x="142.62" y="-118.5" font-family="Helvetica,sans-Serif" font-size="10.00">QtGui/QBrush</text>
</a>
</g>
</g>
<!-- Node2&#45;&gt;Node8 -->
<g id="edge7_Node000002_Node000008" class="edge">
<title>Node2&#45;&gt;Node8</title>
<g id="a_edge7_Node000002_Node000008"><a xlink:title=" ">
<path fill="none" stroke="#63b8ff" d="M217.77,-167.59C204.15,-159.51 184.26,-147.71 168.36,-138.27"/>
<polygon fill="#63b8ff" stroke="#63b8ff" points="170.28,-135.35 159.9,-133.25 166.71,-141.37 170.28,-135.35"/>
</a>
</g>
</g>
<!-- Node9 -->
<g id="Node000009" class="node">
<title>Node9</title>
<g id="a_Node000009"><a xlink:title=" ">
<polygon fill="#e0e0e0" stroke="#999999" points="268.25,-132 199,-132 199,-112 268.25,-112 268.25,-132"/>
<text xml:space="preserve" text-anchor="middle" x="233.62" y="-118.5" font-family="Helvetica,sans-Serif" font-size="10.00">QtGui/QPen</text>
</a>
</g>
</g>
<!-- Node2&#45;&gt;Node9 -->
<g id="edge8_Node000002_Node000009" class="edge">
<title>Node2&#45;&gt;Node9</title>
<g id="a_edge8_Node000002_Node000009"><a xlink:title=" ">
<path fill="none" stroke="#63b8ff" d="M233.62,-167.59C233.62,-161.01 233.62,-151.96 233.62,-143.73"/>
<polygon fill="#63b8ff" stroke="#63b8ff" points="237.12,-143.81 233.62,-133.81 230.12,-143.81 237.12,-143.81"/>
</a>
</g>
</g>
<!-- Node3&#45;&gt;Node4 -->
<g id="edge3_Node000003_Node000004" class="edge">
<title>Node3&#45;&gt;Node4</title>
<g id="a_edge3_Node000003_Node000004"><a xlink:title=" ">
<path fill="none" stroke="#63b8ff" d="M293.67,-111.53C252.13,-102.38 189.1,-88.49 144.5,-78.66"/>
<polygon fill="#63b8ff" stroke="#63b8ff" points="145.3,-75.25 134.78,-76.51 143.79,-82.08 145.3,-75.25"/>
</a>
</g>
</g>
<!-- Node3&#45;&gt;Node5 -->
<g id="edge4_Node000003_Node000005" class="edge">
<title>Node3&#45;&gt;Node5</title>
<g id="a_edge4_Node000003_Node000005"><a xlink:title=" ">
<path fill="none" stroke="#63b8ff" d="M332.44,-111.59C329.38,-104.7 325.11,-95.1 321.32,-86.57"/>
<polygon fill="#63b8ff" stroke="#63b8ff" points="324.63,-85.4 317.37,-77.68 318.23,-88.24 324.63,-85.4"/>
</a>
</g>
</g>
<!-- Node6 -->
<g id="Node000006" class="node">
<title>Node6</title>
<g id="a_Node000006"><a xlink:title=" ">
<polygon fill="#e0e0e0" stroke="#999999" points="602.87,-20 516.37,-20 516.37,0 602.87,0 602.87,-20"/>
<text xml:space="preserve" text-anchor="middle" x="559.62" y="-6.5" font-family="Helvetica,sans-Serif" font-size="10.00">QtCore/QPointF</text>
</a>
</g>
</g>
<!-- Node3&#45;&gt;Node6 -->
<g id="edge5_Node000003_Node000006" class="edge">
<title>Node3&#45;&gt;Node6</title>
<g id="a_edge5_Node000003_Node000006"><a xlink:title=" ">
<path fill="none" stroke="#63b8ff" d="M310.39,-111.6C281.43,-99.82 241.31,-78.44 260.62,-56 291.49,-20.14 427.11,-12.47 504.68,-11.07"/>
<polygon fill="#63b8ff" stroke="#63b8ff" points="504.68,-14.57 514.63,-10.92 504.58,-7.57 504.68,-14.57"/>
</a>
</g>
</g>
<!-- Node10&#45;&gt;Node5 -->
<g id="edge13_Node000010_Node000005" class="edge">
<title>Node10&#45;&gt;Node5</title>
<g id="a_edge13_Node000010_Node000005"><a xlink:title=" ">
<path fill="none" stroke="#63b8ff" d="M547.65,-111.53C496.94,-101.92 418.67,-87.09 366.57,-77.22"/>
<polygon fill="#63b8ff" stroke="#63b8ff" points="367.51,-73.84 357.03,-75.41 366.2,-80.71 367.51,-73.84"/>
</a>
</g>
</g>
<!-- Node10&#45;&gt;Node6 -->
<g id="edge12_Node000010_Node000006" class="edge">
<title>Node10&#45;&gt;Node6</title>
<g id="a_edge12_Node000010_Node000006"><a xlink:title=" ">
<path fill="none" stroke="#63b8ff" d="M594.38,-111.62C588.24,-93.84 574.78,-54.88 566.53,-31"/>
<polygon fill="#63b8ff" stroke="#63b8ff" points="569.92,-30.09 563.35,-21.79 563.3,-32.38 569.92,-30.09"/>
</a>
</g>
</g>
<!-- Node11 -->
<g id="Node000011" class="node">
<title>Node11</title>
<g id="a_Node000011"><a xlink:title=" ">
<polygon fill="#e0e0e0" stroke="#999999" points="707.25,-76 626,-76 626,-56 707.25,-56 707.25,-76"/>
<text xml:space="preserve" text-anchor="middle" x="666.62" y="-62.5" font-family="Helvetica,sans-Serif" font-size="10.00">QtCore/QHash</text>
</a>
</g>
</g>
<!-- Node10&#45;&gt;Node11 -->
<g id="edge10_Node000010_Node000011" class="edge">
<title>Node10&#45;&gt;Node11</title>
<g id="a_edge10_Node000010_Node000011"><a xlink:title=" ">
<path fill="none" stroke="#63b8ff" d="M609.64,-111.59C619.63,-103.77 634.08,-92.46 645.93,-83.19"/>
<polygon fill="#63b8ff" stroke="#63b8ff" points="647.83,-86.15 653.55,-77.23 643.52,-80.64 647.83,-86.15"/>
</a>
</g>
</g>
<!-- Node12 -->
<g id="Node000012" class="node">
<title>Node12</title>
<g id="a_Node000012"><a xlink:title=" ">
<polygon fill="#e0e0e0" stroke="#999999" points="854.87,-20 768.37,-20 768.37,0 854.87,0 854.87,-20"/>
<text xml:space="preserve" text-anchor="middle" x="811.62" y="-6.5" font-family="Helvetica,sans-Serif" font-size="10.00">QtCore/QObject</text>
</a>
</g>
</g>
<!-- Node10&#45;&gt;Node12 -->
<g id="edge11_Node000010_Node000012" class="edge">
<title>Node10&#45;&gt;Node12</title>
<g id="a_edge11_Node000010_Node000012"><a xlink:title=" ">
<path fill="none" stroke="#63b8ff" d="M655.14,-118.04C716.8,-113.53 808.79,-102.45 830.62,-76 841.46,-62.87 833.95,-43.79 825.39,-29.69"/>
<polygon fill="#63b8ff" stroke="#63b8ff" points="828.53,-28.09 820.05,-21.73 822.71,-31.98 828.53,-28.09"/>
</a>
</g>
</g>
<!-- Node13 -->
<g id="Node000013" class="node">
<title>Node13</title>
<g id="a_Node000013"><a xlink:title=" ">
<polygon fill="#e0e0e0" stroke="#999999" points="1031.37,-20 947.87,-20 947.87,0 1031.37,0 1031.37,-20"/>
<text xml:space="preserve" text-anchor="middle" x="989.62" y="-6.5" font-family="Helvetica,sans-Serif" font-size="10.00">QtCore/QString</text>
</a>
</g>
</g>
<!-- Node10&#45;&gt;Node13 -->
<g id="edge14_Node000010_Node000013" class="edge">
<title>Node10&#45;&gt;Node13</title>
<g id="a_edge14_Node000010_Node000013"><a xlink:title=" ">
<path fill="none" stroke="#63b8ff" d="M654.89,-117.54C753.48,-111.08 947.02,-96.01 970.62,-76 983.38,-65.18 987.83,-46.3 989.26,-31.67"/>
<polygon fill="#63b8ff" stroke="#63b8ff" points="992.75,-31.9 989.79,-21.72 985.76,-31.52 992.75,-31.9"/>
</a>
</g>
</g>
<!-- Node14 -->
<g id="Node000014" class="node">
<title>Node14</title>
<g id="a_Node000014"><a xlink:title=" ">
<polygon fill="#e0e0e0" stroke="#999999" points="961.37,-76 877.87,-76 877.87,-56 961.37,-56 961.37,-76"/>
<text xml:space="preserve" text-anchor="middle" x="919.62" y="-62.5" font-family="Helvetica,sans-Serif" font-size="10.00">QtCore/QSizeF</text>
</a>
</g>
</g>
<!-- Node10&#45;&gt;Node14 -->
<g id="edge15_Node000010_Node000014" class="edge">
<title>Node10&#45;&gt;Node14</title>
<g id="a_edge15_Node000010_Node000014"><a xlink:title=" ">
<path fill="none" stroke="#63b8ff" d="M654.08,-111.53C713.94,-101.49 807.77,-85.76 866.38,-75.93"/>
<polygon fill="#63b8ff" stroke="#63b8ff" points="866.83,-79.4 876.11,-74.3 865.67,-72.5 866.83,-79.4"/>
</a>
</g>
</g>
<!-- Node15 -->
<g id="Node000015" class="node">
<title>Node15</title>
<g id="a_Node000015"><a xlink:title=" ">
<polygon fill="#e0e0e0" stroke="#999999" points="743.75,-20 665.5,-20 665.5,0 743.75,0 743.75,-20"/>
<text xml:space="preserve" text-anchor="middle" x="704.62" y="-6.5" font-family="Helvetica,sans-Serif" font-size="10.00">QtCore/QUuid</text>
</a>
</g>
</g>
<!-- Node10&#45;&gt;Node15 -->
<g id="edge16_Node000010_Node000015" class="edge">
<title>Node10&#45;&gt;Node15</title>
<g id="a_edge16_Node000010_Node000015"><a xlink:title=" ">
<path fill="none" stroke="#63b8ff" d="M598.08,-111.53C599.22,-97.82 603.13,-72.3 616.62,-56 628.29,-41.9 645.5,-31.74 661.62,-24.68"/>
<polygon fill="#63b8ff" stroke="#63b8ff" points="662.63,-28.05 670.58,-21.05 660,-21.56 662.63,-28.05"/>
</a>
</g>
</g>
<!-- Node16 -->
<g id="Node000016" class="node">
<title>Node16</title>
<g id="a_Node000016"><a xlink:title=" ">
<polygon fill="#e0e0e0" stroke="#999999" points="461.62,-76 373.62,-76 373.62,-56 461.62,-56 461.62,-76"/>
<text xml:space="preserve" text-anchor="middle" x="417.62" y="-62.5" font-family="Helvetica,sans-Serif" font-size="10.00">QtCore/QVariant</text>
</a>
</g>
</g>
<!-- Node10&#45;&gt;Node16 -->
<g id="edge17_Node000010_Node000016" class="edge">
<title>Node10&#45;&gt;Node16</title>
<g id="a_edge17_Node000010_Node000016"><a xlink:title=" ">
<path fill="none" stroke="#63b8ff" d="M566.27,-111.59C536.89,-102.78 492.76,-89.54 460.21,-79.78"/>
<polygon fill="#63b8ff" stroke="#63b8ff" points="461.25,-76.44 450.67,-76.91 459.24,-83.14 461.25,-76.44"/>
</a>
</g>
</g>
<!-- Node17 -->
<g id="Node000017" class="node">
<title>Node17</title>
<g id="a_Node000017"><a xlink:title=" ">
<polygon fill="#e0e0e0" stroke="#999999" points="531.25,-76 480,-76 480,-56 531.25,-56 531.25,-76"/>
<text xml:space="preserve" text-anchor="middle" x="505.62" y="-62.5" font-family="Helvetica,sans-Serif" font-size="10.00">memory</text>
</a>
</g>
</g>
<!-- Node10&#45;&gt;Node17 -->
<g id="edge18_Node000010_Node000017" class="edge">
<title>Node10&#45;&gt;Node17</title>
<g id="a_edge18_Node000010_Node000017"><a xlink:title=" ">
<path fill="none" stroke="#63b8ff" d="M581.6,-111.59C567.83,-103.51 547.72,-91.71 531.64,-82.27"/>
<polygon fill="#63b8ff" stroke="#63b8ff" points="533.47,-79.29 523.08,-77.25 529.93,-85.33 533.47,-79.29"/>
</a>
</g>
</g>
<!-- Node18 -->
<g id="Node000018" class="node">
<title>Node18</title>
<g id="a_Node000018"><a xlink:href="_connection_point_8h.html" target="_top" xlink:title=" ">
<polygon fill="white" stroke="#666666" points="821.75,-76 725.5,-76 725.5,-56 821.75,-56 821.75,-76"/>
<text xml:space="preserve" text-anchor="middle" x="773.62" y="-62.5" font-family="Helvetica,sans-Serif" font-size="10.00">ConnectionPoint.h</text>
</a>
</g>
</g>
<!-- Node10&#45;&gt;Node18 -->
<g id="edge19_Node000010_Node000018" class="edge">
<title>Node10&#45;&gt;Node18</title>
<g id="a_edge19_Node000010_Node000018"><a xlink:title=" ">
<path fill="none" stroke="#63b8ff" d="M628.28,-111.59C657,-102.78 700.15,-89.54 731.98,-79.78"/>
<polygon fill="#63b8ff" stroke="#63b8ff" points="732.75,-83.2 741.28,-76.92 730.69,-76.51 732.75,-83.2"/>
</a>
</g>
</g>
<!-- Node18&#45;&gt;Node6 -->
<g id="edge21_Node000018_Node000006" class="edge">
<title>Node18&#45;&gt;Node6</title>
<g id="a_edge21_Node000018_Node000006"><a xlink:title=" ">
<path fill="none" stroke="#63b8ff" d="M736.35,-55.59C700.81,-46.63 647.11,-33.08 608.24,-23.27"/>
<polygon fill="#63b8ff" stroke="#63b8ff" points="609.21,-19.9 598.66,-20.85 607.5,-26.69 609.21,-19.9"/>
</a>
</g>
</g>
<!-- Node18&#45;&gt;Node12 -->
<g id="edge20_Node000018_Node000012" class="edge">
<title>Node18&#45;&gt;Node12</title>
<g id="a_edge20_Node000018_Node000012"><a xlink:title=" ">
<path fill="none" stroke="#63b8ff" d="M780.24,-55.59C785.31,-48.39 792.46,-38.23 798.65,-29.43"/>
<polygon fill="#63b8ff" stroke="#63b8ff" points="801.31,-31.73 804.21,-21.54 795.59,-27.7 801.31,-31.73"/>
</a>
</g>
</g>
<!-- Node18&#45;&gt;Node13 -->
<g id="edge22_Node000018_Node000013" class="edge">
<title>Node18&#45;&gt;Node13</title>
<g id="a_edge22_Node000018_Node000013"><a xlink:title=" ">
<path fill="none" stroke="#63b8ff" d="M811.25,-55.59C847.11,-46.63 901.31,-33.08 940.55,-23.27"/>
<polygon fill="#63b8ff" stroke="#63b8ff" points="941.38,-26.67 950.24,-20.85 939.69,-19.88 941.38,-26.67"/>
</a>
</g>
</g>
<!-- Node18&#45;&gt;Node15 -->
<g id="edge23_Node000018_Node000015" class="edge">
<title>Node18&#45;&gt;Node15</title>
<g id="a_edge23_Node000018_Node000015"><a xlink:title=" ">
<path fill="none" stroke="#63b8ff" d="M761.6,-55.59C751.61,-47.77 737.16,-36.46 725.31,-27.19"/>
<polygon fill="#63b8ff" stroke="#63b8ff" points="727.73,-24.64 717.69,-21.23 723.41,-30.15 727.73,-24.64"/>
</a>
</g>
</g>
<!-- Node19&#45;&gt;Node10 -->
<g id="edge25_Node000019_Node000010" class="edge">
<title>Node19&#45;&gt;Node10</title>
<g id="a_edge25_Node000019_Node000010"><a xlink:title=" ">
<path fill="none" stroke="#63b8ff" d="M597.62,-167.59C597.62,-161.01 597.62,-151.96 597.62,-143.73"/>
<polygon fill="#63b8ff" stroke="#63b8ff" points="601.12,-143.81 597.62,-133.81 594.12,-143.81 601.12,-143.81"/>
</a>
</g>
</g>
<!-- Node19&#45;&gt;Node20 -->
<g id="edge26_Node000019_Node000020" class="edge">
<title>Node19&#45;&gt;Node20</title>
<g id="a_edge26_Node000019_Node000020"><a xlink:title=" ">
<path fill="none" stroke="#63b8ff" d="M643.01,-168.02C691.22,-158.49 767.33,-143.43 818.09,-133.39"/>
<polygon fill="#63b8ff" stroke="#63b8ff" points="818.54,-136.87 827.67,-131.5 817.18,-130 818.54,-136.87"/>
</a>
</g>
</g>
<!-- Node20&#45;&gt;Node13 -->
<g id="edge27_Node000020_Node000013" class="edge">
<title>Node20&#45;&gt;Node13</title>
<g id="a_edge27_Node000020_Node000013"><a xlink:title=" ">
<path fill="none" stroke="#63b8ff" d="M912.01,-119.19C942.81,-115.42 982.95,-104.82 1003.62,-76 1013.18,-62.68 1007.82,-44.13 1001.16,-30.26"/>
<polygon fill="#63b8ff" stroke="#63b8ff" points="1004.34,-28.79 996.51,-21.65 998.18,-32.11 1004.34,-28.79"/>
</a>
</g>
</g>
<!-- Node21 -->
<g id="Node000021" class="node">
<title>Node21</title>
<g id="a_Node000021"><a xlink:title=" ">
<polygon fill="#e0e0e0" stroke="#999999" points="1155.25,-76 1056,-76 1056,-56 1155.25,-56 1155.25,-76"/>
<text xml:space="preserve" text-anchor="middle" x="1105.62" y="-62.5" font-family="Helvetica,sans-Serif" font-size="10.00">QtCore/QStringList</text>
</a>
</g>
</g>
<!-- Node20&#45;&gt;Node21 -->
<g id="edge28_Node000020_Node000021" class="edge">
<title>Node20&#45;&gt;Node21</title>
<g id="a_edge28_Node000020_Node000021"><a xlink:title=" ">
<path fill="none" stroke="#63b8ff" d="M911.82,-111.53C951.22,-102.48 1010.77,-88.8 1053.45,-78.99"/>
<polygon fill="#63b8ff" stroke="#63b8ff" points="1054.03,-82.45 1062.99,-76.8 1052.46,-75.62 1054.03,-82.45"/>
</a>
</g>
</g>
</g>
</svg>
