<?xml version="1.0" encoding="UTF-8" standalone="no"?>
<!DOCTYPE svg PUBLIC "-//W3C//DTD SVG 1.1//EN"
 "http://www.w3.org/Graphics/SVG/1.1/DTD/svg11.dtd">
<!-- Generated by graphviz version 14.1.1 (20251213.1925)
 -->
<!-- Title: src/model/Attribute.h Pages: 1 -->
<svg width="802pt" height="140pt"
 viewBox="0.00 0.00 802.00 140.00" xmlns="http://www.w3.org/2000/svg" xmlns:xlink="http://www.w3.org/1999/xlink">
<g id="graph0" class="graph" transform="scale(1 1) rotate(0) translate(4 136)">
<title>src/model/Attribute.h</title>
<!-- Node1 -->
<g id="Node000001" class="node">
<title>Node1</title>
<g id="a_Node000001"><a xlink:title=" ">
<polygon fill="#999999" stroke="#666666" points="449.75,-132 343,-132 343,-112 449.75,-112 449.75,-132"/>
<text xml:space="preserve" text-anchor="middle" x="396.38" y="-118.5" font-family="Helvetica,sans-Serif" font-size="10.00">src/model/Attribute.h</text>
</a>
</g>
</g>
<!-- Node2 -->
<g id="Node000002" class="node">
<title>Node2</title>
<g id="a_Node000002"><a xlink:href="_attribute_8cpp.html" target="_top" xlink:title=" ">
<polygon fill="white" stroke="#666666" points="256,-76 138.75,-76 138.75,-56 256,-56 256,-76"/>
<text xml:space="preserve" text-anchor="middle" x="197.38" y="-62.5" font-family="Helvetica,sans-Serif" font-size="10.00">src/model/Attribute.cpp</text>
</a>
</g>
</g>
<!-- Node1&#45;&gt;Node2 -->
<g id="edge1_Node000001_Node000002" class="edge">
<title>Node1&#45;&gt;Node2</title>
<g id="a_edge1_Node000001_Node000002"><a xlink:title=" ">
<path fill="none" stroke="#63b8ff" d="M351,-108.69C314.96,-98.91 265.3,-85.43 232.31,-76.48"/>
<polygon fill="#63b8ff" stroke="#63b8ff" points="349.68,-111.96 360.25,-111.2 351.52,-105.2 349.68,-111.96"/>
</a>
</g>
</g>
<!-- Node3 -->
<g id="Node000003" class="node">
<title>Node3</title>
<g id="a_Node000003"><a xlink:href="_element_factory_8cpp.html" target="_top" xlink:title=" ">
<polygon fill="white" stroke="#666666" points="148.75,-20 0,-20 0,0 148.75,0 148.75,-20"/>
<text xml:space="preserve" text-anchor="middle" x="74.38" y="-6.5" font-family="Helvetica,sans-Serif" font-size="10.00">src/model/ElementFactory.cpp</text>
</a>
</g>
</g>
<!-- Node1&#45;&gt;Node3 -->
<g id="edge2_Node000001_Node000003" class="edge">
<title>Node1&#45;&gt;Node3</title>
<g id="a_edge2_Node000001_Node000003"><a xlink:title=" ">
<path fill="none" stroke="#63b8ff" d="M366.01,-106.62C347.77,-97.91 324.16,-86.49 303.38,-76 286.34,-67.4 283.25,-62.69 265.38,-56 221.5,-39.59 169.66,-27.83 131.06,-20.45"/>
<polygon fill="#63b8ff" stroke="#63b8ff" points="364.42,-109.75 374.96,-110.89 367.43,-103.43 364.42,-109.75"/>
</a>
</g>
</g>
<!-- Node4 -->
<g id="Node000004" class="node">
<title>Node4</title>
<g id="a_Node000004"><a xlink:href="_entity_8h.html" target="_top" xlink:title=" ">
<polygon fill="white" stroke="#666666" points="406.75,-76 312,-76 312,-56 406.75,-56 406.75,-76"/>
<text xml:space="preserve" text-anchor="middle" x="359.38" y="-62.5" font-family="Helvetica,sans-Serif" font-size="10.00">src/model/Entity.h</text>
</a>
</g>
</g>
<!-- Node1&#45;&gt;Node4 -->
<g id="edge3_Node000001_Node000004" class="edge">
<title>Node1&#45;&gt;Node4</title>
<g id="a_edge3_Node000001_Node000004"><a xlink:title=" ">
<path fill="none" stroke="#63b8ff" d="M383.46,-102.15C377.47,-93.4 370.61,-83.39 365.75,-76.3"/>
<polygon fill="#63b8ff" stroke="#63b8ff" points="380.53,-104.07 389.07,-110.35 386.31,-100.12 380.53,-104.07"/>
</a>
</g>
</g>
<!-- Node8 -->
<g id="Node000008" class="node">
<title>Node8</title>
<g id="a_Node000008"><a xlink:href="_properties_panel_8cpp.html" target="_top" xlink:title=" ">
<polygon fill="white" stroke="#666666" points="748.12,-20 604.62,-20 604.62,0 748.12,0 748.12,-20"/>
<text xml:space="preserve" text-anchor="middle" x="676.38" y="-6.5" font-family="Helvetica,sans-Serif" font-size="10.00">src/view/PropertiesPanel.cpp</text>
</a>
</g>
</g>
<!-- Node1&#45;&gt;Node8 -->
<g id="edge11_Node000001_Node000008" class="edge">
<title>Node1&#45;&gt;Node8</title>
<g id="a_edge11_Node000001_Node000008"><a xlink:title=" ">
<path fill="none" stroke="#63b8ff" d="M407.68,-102.45C417.78,-87.52 433.96,-67.25 453.38,-56 478.67,-41.35 549.25,-28.6 604.3,-20.45"/>
<polygon fill="#63b8ff" stroke="#63b8ff" points="404.98,-100.18 402.51,-110.48 410.87,-103.96 404.98,-100.18"/>
</a>
</g>
</g>
<!-- Node9 -->
<g id="Node000009" class="node">
<title>Node9</title>
<g id="a_Node000009"><a xlink:href="_property_command_8cpp.html" target="_top" xlink:title=" ">
<polygon fill="white" stroke="#666666" points="624.5,-76 462.25,-76 462.25,-56 624.5,-56 624.5,-76"/>
<text xml:space="preserve" text-anchor="middle" x="543.38" y="-62.5" font-family="Helvetica,sans-Serif" font-size="10.00">src/model/PropertyCommand.cpp</text>
</a>
</g>
</g>
<!-- Node1&#45;&gt;Node9 -->
<g id="edge9_Node000001_Node000009" class="edge">
<title>Node1&#45;&gt;Node9</title>
<g id="a_edge9_Node000001_Node000009"><a xlink:title=" ">
<path fill="none" stroke="#63b8ff" d="M432.68,-107.66C459.03,-97.98 494.04,-85.12 517.57,-76.48"/>
<polygon fill="#63b8ff" stroke="#63b8ff" points="431.58,-104.34 423.4,-111.07 433.99,-110.91 431.58,-104.34"/>
</a>
</g>
</g>
<!-- Node10 -->
<g id="Node000010" class="node">
<title>Node10</title>
<g id="a_Node000010"><a xlink:href="_attribute_renderer_8cpp.html" target="_top" xlink:title=" ">
<polygon fill="white" stroke="#666666" points="793.88,-76 642.88,-76 642.88,-56 793.88,-56 793.88,-76"/>
<text xml:space="preserve" text-anchor="middle" x="718.38" y="-62.5" font-family="Helvetica,sans-Serif" font-size="10.00">src/view/AttributeRenderer.cpp</text>
</a>
</g>
</g>
<!-- Node1&#45;&gt;Node10 -->
<g id="edge10_Node000001_Node000010" class="edge">
<title>Node1&#45;&gt;Node10</title>
<g id="a_edge10_Node000001_Node000010"><a xlink:title=" ">
<path fill="none" stroke="#63b8ff" d="M460.92,-110.18C519.67,-100.32 605.58,-85.92 661.73,-76.5"/>
<polygon fill="#63b8ff" stroke="#63b8ff" points="460.68,-106.67 451.4,-111.77 461.84,-113.57 460.68,-106.67"/>
</a>
</g>
</g>
<!-- Node4&#45;&gt;Node3 -->
<g id="edge4_Node000004_Node000003" class="edge">
<title>Node4&#45;&gt;Node3</title>
<g id="a_edge4_Node000004_Node000003"><a xlink:title=" ">
<path fill="none" stroke="#63b8ff" d="M300.6,-53.86C248.52,-44 173.32,-29.75 124.15,-20.43"/>
<polygon fill="#63b8ff" stroke="#63b8ff" points="299.71,-57.26 310.19,-55.68 301.01,-50.38 299.71,-57.26"/>
</a>
</g>
</g>
<!-- Node5 -->
<g id="Node000005" class="node">
<title>Node5</title>
<g id="a_Node000005"><a xlink:href="_entity_8cpp.html" target="_top" xlink:title=" ">
<polygon fill="white" stroke="#666666" points="272,-20 166.75,-20 166.75,0 272,0 272,-20"/>
<text xml:space="preserve" text-anchor="middle" x="219.38" y="-6.5" font-family="Helvetica,sans-Serif" font-size="10.00">src/model/Entity.cpp</text>
</a>
</g>
</g>
<!-- Node4&#45;&gt;Node5 -->
<g id="edge5_Node000004_Node000005" class="edge">
<title>Node4&#45;&gt;Node5</title>
<g id="a_edge5_Node000004_Node000005"><a xlink:title=" ">
<path fill="none" stroke="#63b8ff" d="M324.46,-51.53C299.4,-41.87 266.26,-29.08 243.95,-20.48"/>
<polygon fill="#63b8ff" stroke="#63b8ff" points="322.99,-54.72 333.58,-55.05 325.51,-48.18 322.99,-54.72"/>
</a>
</g>
</g>
<!-- Node6 -->
<g id="Node000006" class="node">
<title>Node6</title>
<g id="a_Node000006"><a xlink:href="_diagram_scene_8cpp.html" target="_top" xlink:title=" ">
<polygon fill="white" stroke="#666666" points="428.88,-20 289.88,-20 289.88,0 428.88,0 428.88,-20"/>
<text xml:space="preserve" text-anchor="middle" x="359.38" y="-6.5" font-family="Helvetica,sans-Serif" font-size="10.00">src/view/DiagramScene.cpp</text>
</a>
</g>
</g>
<!-- Node4&#45;&gt;Node6 -->
<g id="edge6_Node000004_Node000006" class="edge">
<title>Node4&#45;&gt;Node6</title>
<g id="a_edge6_Node000004_Node000006"><a xlink:title=" ">
<path fill="none" stroke="#63b8ff" d="M359.38,-44.13C359.38,-35.9 359.38,-26.85 359.38,-20.3"/>
<polygon fill="#63b8ff" stroke="#63b8ff" points="355.88,-44.08 359.38,-54.08 362.88,-44.08 355.88,-44.08"/>
</a>
</g>
</g>
<!-- Node7 -->
<g id="Node000007" class="node">
<title>Node7</title>
<g id="a_Node000007"><a xlink:href="_entity_renderer_8cpp.html" target="_top" xlink:title=" ">
<polygon fill="white" stroke="#666666" points="586.25,-20 446.5,-20 446.5,0 586.25,0 586.25,-20"/>
<text xml:space="preserve" text-anchor="middle" x="516.38" y="-6.5" font-family="Helvetica,sans-Serif" font-size="10.00">src/view/EntityRenderer.cpp</text>
</a>
</g>
</g>
<!-- Node4&#45;&gt;Node7 -->
<g id="edge7_Node000004_Node000007" class="edge">
<title>Node4&#45;&gt;Node7</title>
<g id="a_edge7_Node000004_Node000007"><a xlink:title=" ">
<path fill="none" stroke="#63b8ff" d="M397.4,-51.92C425.63,-42.21 463.46,-29.2 488.81,-20.48"/>
<polygon fill="#63b8ff" stroke="#63b8ff" points="396.47,-48.54 388.15,-55.1 398.75,-55.16 396.47,-48.54"/>
</a>
</g>
</g>
<!-- Node4&#45;&gt;Node8 -->
<g id="edge8_Node000004_Node000008" class="edge">
<title>Node4&#45;&gt;Node8</title>
<g id="a_edge8_Node000004_Node000008"><a xlink:title=" ">
<path fill="none" stroke="#63b8ff" d="M418.34,-54.95C476.26,-45.09 563.95,-30.15 620.7,-20.48"/>
<polygon fill="#63b8ff" stroke="#63b8ff" points="417.94,-51.47 408.67,-56.6 419.11,-58.37 417.94,-51.47"/>
</a>
</g>
</g>
</g>
</svg>
