<?xml version="1.0" encoding="UTF-8" standalone="no"?>
<!DOCTYPE svg PUBLIC "-//W3C//DTD SVG 1.1//EN"
 "http://www.w3.org/Graphics/SVG/1.1/DTD/svg11.dtd">
<!-- Generated by graphviz version 14.1.1 (20251213.1925)
 -->
<!-- Title: src/model/AttributeType.h Pages: 1 -->
<svg width="1004pt" height="196pt"
 viewBox="0.00 0.00 1004.00 196.00" xmlns="http://www.w3.org/2000/svg" xmlns:xlink="http://www.w3.org/1999/xlink">
<g id="graph0" class="graph" transform="scale(1 1) rotate(0) translate(4 192)">
<title>src/model/AttributeType.h</title>
<!-- Node1 -->
<g id="Node000001" class="node">
<title>Node1</title>
<g id="a_Node000001"><a xlink:title=" ">
<polygon fill="#999999" stroke="#666666" points="789.25,-188 661.5,-188 661.5,-168 789.25,-168 789.25,-188"/>
<text xml:space="preserve" text-anchor="middle" x="725.38" y="-174.5" font-family="Helvetica,sans-Serif" font-size="10.00">src/model/AttributeType.h</text>
</a>
</g>
</g>
<!-- Node2 -->
<g id="Node000002" class="node">
<title>Node2</title>
<g id="a_Node000002"><a xlink:href="_attribute_8h.html" target="_top" xlink:title=" ">
<polygon fill="white" stroke="#666666" points="494.75,-132 388,-132 388,-112 494.75,-112 494.75,-132"/>
<text xml:space="preserve" text-anchor="middle" x="441.38" y="-118.5" font-family="Helvetica,sans-Serif" font-size="10.00">src/model/Attribute.h</text>
</a>
</g>
</g>
<!-- Node1&#45;&gt;Node2 -->
<g id="edge1_Node000001_Node000002" class="edge">
<title>Node1&#45;&gt;Node2</title>
<g id="a_edge1_Node000001_Node000002"><a xlink:title=" ">
<path fill="none" stroke="#63b8ff" d="M664.56,-165.44C612.81,-155.6 539.41,-141.64 491.11,-132.46"/>
<polygon fill="#63b8ff" stroke="#63b8ff" points="663.62,-168.82 674.09,-167.25 664.92,-161.94 663.62,-168.82"/>
</a>
</g>
</g>
<!-- Node9 -->
<g id="Node000009" class="node">
<title>Node9</title>
<g id="a_Node000009"><a xlink:href="_properties_panel_8cpp.html" target="_top" xlink:title=" ">
<polygon fill="white" stroke="#666666" points="748.12,-20 604.62,-20 604.62,0 748.12,0 748.12,-20"/>
<text xml:space="preserve" text-anchor="middle" x="676.38" y="-6.5" font-family="Helvetica,sans-Serif" font-size="10.00">src/view/PropertiesPanel.cpp</text>
</a>
</g>
</g>
<!-- Node1&#45;&gt;Node9 -->
<g id="edge16_Node000001_Node000009" class="edge">
<title>Node1&#45;&gt;Node9</title>
<g id="a_edge16_Node000001_Node000009"><a xlink:title=" ">
<path fill="none" stroke="#63b8ff" d="M750.42,-161.34C784.25,-138.2 837.38,-93.56 810.38,-56 795.9,-35.88 771.99,-24.63 748.35,-18.38"/>
<polygon fill="#63b8ff" stroke="#63b8ff" points="748.72,-158.26 742.32,-166.7 752.59,-164.1 748.72,-158.26"/>
</a>
</g>
</g>
<!-- Node10 -->
<g id="Node000010" class="node">
<title>Node10</title>
<g id="a_Node000010"><a xlink:href="_property_command_8cpp.html" target="_top" xlink:title=" ">
<polygon fill="white" stroke="#666666" points="631.5,-76 469.25,-76 469.25,-56 631.5,-56 631.5,-76"/>
<text xml:space="preserve" text-anchor="middle" x="550.38" y="-62.5" font-family="Helvetica,sans-Serif" font-size="10.00">src/model/PropertyCommand.cpp</text>
</a>
</g>
</g>
<!-- Node1&#45;&gt;Node10 -->
<g id="edge14_Node000001_Node000010" class="edge">
<title>Node1&#45;&gt;Node10</title>
<g id="a_edge14_Node000001_Node000010"><a xlink:title=" ">
<path fill="none" stroke="#63b8ff" d="M700.97,-161.66C664.14,-138.51 595.45,-95.33 565.26,-76.35"/>
<polygon fill="#63b8ff" stroke="#63b8ff" points="698.84,-164.46 709.17,-166.82 702.57,-158.53 698.84,-164.46"/>
</a>
</g>
</g>
<!-- Node11 -->
<g id="Node000011" class="node">
<title>Node11</title>
<g id="a_Node000011"><a xlink:href="_attribute_renderer_8cpp.html" target="_top" xlink:title=" ">
<polygon fill="white" stroke="#666666" points="800.88,-76 649.88,-76 649.88,-56 800.88,-56 800.88,-76"/>
<text xml:space="preserve" text-anchor="middle" x="725.38" y="-62.5" font-family="Helvetica,sans-Serif" font-size="10.00">src/view/AttributeRenderer.cpp</text>
</a>
</g>
</g>
<!-- Node1&#45;&gt;Node11 -->
<g id="edge15_Node000001_Node000011" class="edge">
<title>Node1&#45;&gt;Node11</title>
<g id="a_edge15_Node000001_Node000011"><a xlink:title=" ">
<path fill="none" stroke="#63b8ff" d="M725.38,-156.31C725.38,-132.36 725.38,-93.95 725.38,-76.35"/>
<polygon fill="#63b8ff" stroke="#63b8ff" points="721.88,-156.11 725.38,-166.11 728.88,-156.11 721.88,-156.11"/>
</a>
</g>
</g>
<!-- Node12 -->
<g id="Node000012" class="node">
<title>Node12</title>
<g id="a_Node000012"><a xlink:href="_attribute_type_8cpp.html" target="_top" xlink:title=" ">
<polygon fill="white" stroke="#666666" points="995.5,-132 857.25,-132 857.25,-112 995.5,-112 995.5,-132"/>
<text xml:space="preserve" text-anchor="middle" x="926.38" y="-118.5" font-family="Helvetica,sans-Serif" font-size="10.00">src/model/AttributeType.cpp</text>
</a>
</g>
</g>
<!-- Node1&#45;&gt;Node12 -->
<g id="edge13_Node000001_Node000012" class="edge">
<title>Node1&#45;&gt;Node12</title>
<g id="a_edge13_Node000001_Node000012"><a xlink:title=" ">
<path fill="none" stroke="#63b8ff" d="M771.21,-164.69C807.61,-154.91 857.77,-141.43 891.09,-132.48"/>
<polygon fill="#63b8ff" stroke="#63b8ff" points="770.6,-161.23 761.85,-167.2 772.41,-167.99 770.6,-161.23"/>
</a>
</g>
</g>
<!-- Node3 -->
<g id="Node000003" class="node">
<title>Node3</title>
<g id="a_Node000003"><a xlink:href="_attribute_8cpp.html" target="_top" xlink:title=" ">
<polygon fill="white" stroke="#666666" points="301,-76 183.75,-76 183.75,-56 301,-56 301,-76"/>
<text xml:space="preserve" text-anchor="middle" x="242.38" y="-62.5" font-family="Helvetica,sans-Serif" font-size="10.00">src/model/Attribute.cpp</text>
</a>
</g>
</g>
<!-- Node2&#45;&gt;Node3 -->
<g id="edge2_Node000002_Node000003" class="edge">
<title>Node2&#45;&gt;Node3</title>
<g id="a_edge2_Node000002_Node000003"><a xlink:title=" ">
<path fill="none" stroke="#63b8ff" d="M396,-108.69C359.96,-98.91 310.3,-85.43 277.31,-76.48"/>
<polygon fill="#63b8ff" stroke="#63b8ff" points="394.68,-111.96 405.25,-111.2 396.52,-105.2 394.68,-111.96"/>
</a>
</g>
</g>
<!-- Node4 -->
<g id="Node000004" class="node">
<title>Node4</title>
<g id="a_Node000004"><a xlink:href="_element_factory_8cpp.html" target="_top" xlink:title=" ">
<polygon fill="white" stroke="#666666" points="148.75,-20 0,-20 0,0 148.75,0 148.75,-20"/>
<text xml:space="preserve" text-anchor="middle" x="74.38" y="-6.5" font-family="Helvetica,sans-Serif" font-size="10.00">src/model/ElementFactory.cpp</text>
</a>
</g>
</g>
<!-- Node2&#45;&gt;Node4 -->
<g id="edge3_Node000002_Node000004" class="edge">
<title>Node2&#45;&gt;Node4</title>
<g id="a_edge3_Node000002_Node000004"><a xlink:title=" ">
<path fill="none" stroke="#63b8ff" d="M376.34,-117.47C321.03,-112.74 240.31,-101.7 174.38,-76 139.07,-62.24 103.14,-34.94 85.52,-20.48"/>
<polygon fill="#63b8ff" stroke="#63b8ff" points="375.99,-120.95 386.24,-118.26 376.55,-113.97 375.99,-120.95"/>
</a>
</g>
</g>
<!-- Node5 -->
<g id="Node000005" class="node">
<title>Node5</title>
<g id="a_Node000005"><a xlink:href="_entity_8h.html" target="_top" xlink:title=" ">
<polygon fill="white" stroke="#666666" points="413.75,-76 319,-76 319,-56 413.75,-56 413.75,-76"/>
<text xml:space="preserve" text-anchor="middle" x="366.38" y="-62.5" font-family="Helvetica,sans-Serif" font-size="10.00">src/model/Entity.h</text>
</a>
</g>
</g>
<!-- Node2&#45;&gt;Node5 -->
<g id="edge4_Node000002_Node000005" class="edge">
<title>Node2&#45;&gt;Node5</title>
<g id="a_edge4_Node000002_Node000005"><a xlink:title=" ">
<path fill="none" stroke="#63b8ff" d="M419.15,-105C406.26,-95.72 390.47,-84.35 379.54,-76.48"/>
<polygon fill="#63b8ff" stroke="#63b8ff" points="416.92,-107.71 427.08,-110.71 421.01,-102.03 416.92,-107.71"/>
</a>
</g>
</g>
<!-- Node2&#45;&gt;Node9 -->
<g id="edge12_Node000002_Node000009" class="edge">
<title>Node2&#45;&gt;Node9</title>
<g id="a_edge12_Node000002_Node000009"><a xlink:title=" ">
<path fill="none" stroke="#63b8ff" d="M442.02,-100.65C443.59,-86.17 448.09,-67.35 460.38,-56 471.77,-45.47 555.24,-30.25 615,-20.49"/>
<polygon fill="#63b8ff" stroke="#63b8ff" points="438.54,-100.23 441.37,-110.44 445.52,-100.69 438.54,-100.23"/>
</a>
</g>
</g>
<!-- Node2&#45;&gt;Node10 -->
<g id="edge10_Node000002_Node000010" class="edge">
<title>Node2&#45;&gt;Node10</title>
<g id="a_edge10_Node000002_Node000010"><a xlink:title=" ">
<path fill="none" stroke="#63b8ff" d="M470.42,-106.61C489.68,-97.07 514.42,-84.81 531.24,-76.48"/>
<polygon fill="#63b8ff" stroke="#63b8ff" points="469.12,-103.35 461.72,-110.92 472.23,-109.62 469.12,-103.35"/>
</a>
</g>
</g>
<!-- Node2&#45;&gt;Node11 -->
<g id="edge11_Node000002_Node000011" class="edge">
<title>Node2&#45;&gt;Node11</title>
<g id="a_edge11_Node000002_Node000011"><a xlink:title=" ">
<path fill="none" stroke="#63b8ff" d="M502.19,-109.44C553.94,-99.6 627.34,-85.64 675.64,-76.46"/>
<polygon fill="#63b8ff" stroke="#63b8ff" points="501.83,-105.94 492.66,-111.25 503.13,-112.82 501.83,-105.94"/>
</a>
</g>
</g>
<!-- Node5&#45;&gt;Node4 -->
<g id="edge5_Node000005_Node000004" class="edge">
<title>Node5&#45;&gt;Node4</title>
<g id="a_edge5_Node000005_Node000004"><a xlink:title=" ">
<path fill="none" stroke="#63b8ff" d="M307.81,-54.17C254.39,-44.29 176.25,-29.84 125.36,-20.43"/>
<polygon fill="#63b8ff" stroke="#63b8ff" points="306.85,-57.55 317.32,-55.93 308.13,-50.67 306.85,-57.55"/>
</a>
</g>
</g>
<!-- Node6 -->
<g id="Node000006" class="node">
<title>Node6</title>
<g id="a_Node000006"><a xlink:href="_entity_8cpp.html" target="_top" xlink:title=" ">
<polygon fill="white" stroke="#666666" points="587,-20 481.75,-20 481.75,0 587,0 587,-20"/>
<text xml:space="preserve" text-anchor="middle" x="534.38" y="-6.5" font-family="Helvetica,sans-Serif" font-size="10.00">src/model/Entity.cpp</text>
</a>
</g>
</g>
<!-- Node5&#45;&gt;Node6 -->
<g id="edge6_Node000005_Node000006" class="edge">
<title>Node5&#45;&gt;Node6</title>
<g id="a_edge6_Node000005_Node000006"><a xlink:title=" ">
<path fill="none" stroke="#63b8ff" d="M406.27,-52.18C436.55,-42.44 477.51,-29.28 504.88,-20.48"/>
<polygon fill="#63b8ff" stroke="#63b8ff" points="405.53,-48.74 397.08,-55.13 407.67,-55.4 405.53,-48.74"/>
</a>
</g>
</g>
<!-- Node7 -->
<g id="Node000007" class="node">
<title>Node7</title>
<g id="a_Node000007"><a xlink:href="_diagram_scene_8cpp.html" target="_top" xlink:title=" ">
<polygon fill="white" stroke="#666666" points="305.88,-20 166.88,-20 166.88,0 305.88,0 305.88,-20"/>
<text xml:space="preserve" text-anchor="middle" x="236.38" y="-6.5" font-family="Helvetica,sans-Serif" font-size="10.00">src/view/DiagramScene.cpp</text>
</a>
</g>
</g>
<!-- Node5&#45;&gt;Node7 -->
<g id="edge7_Node000005_Node000007" class="edge">
<title>Node5&#45;&gt;Node7</title>
<g id="a_edge7_Node000005_Node000007"><a xlink:title=" ">
<path fill="none" stroke="#63b8ff" d="M333.32,-51.27C310.14,-41.64 279.73,-29.01 259.2,-20.48"/>
<polygon fill="#63b8ff" stroke="#63b8ff" points="331.76,-54.41 342.33,-55.01 334.44,-47.94 331.76,-54.41"/>
</a>
</g>
</g>
<!-- Node8 -->
<g id="Node000008" class="node">
<title>Node8</title>
<g id="a_Node000008"><a xlink:href="_entity_renderer_8cpp.html" target="_top" xlink:title=" ">
<polygon fill="white" stroke="#666666" points="463.25,-20 323.5,-20 323.5,0 463.25,0 463.25,-20"/>
<text xml:space="preserve" text-anchor="middle" x="393.38" y="-6.5" font-family="Helvetica,sans-Serif" font-size="10.00">src/view/EntityRenderer.cpp</text>
</a>
</g>
</g>
<!-- Node5&#45;&gt;Node8 -->
<g id="edge8_Node000005_Node000008" class="edge">
<title>Node5&#45;&gt;Node8</title>
<g id="a_edge8_Node000005_Node000008"><a xlink:title=" ">
<path fill="none" stroke="#63b8ff" d="M376.09,-45.58C380.39,-36.97 385.26,-27.24 388.73,-20.3"/>
<polygon fill="#63b8ff" stroke="#63b8ff" points="373.1,-43.73 371.75,-54.24 379.36,-46.86 373.1,-43.73"/>
</a>
</g>
</g>
<!-- Node5&#45;&gt;Node9 -->
<g id="edge9_Node000005_Node000009" class="edge">
<title>Node5&#45;&gt;Node9</title>
<g id="a_edge9_Node000005_Node000009"><a xlink:title=" ">
<path fill="none" stroke="#63b8ff" d="M425.43,-54.71C482.1,-44.84 566.99,-30.05 622.04,-20.47"/>
<polygon fill="#63b8ff" stroke="#63b8ff" points="424.88,-51.26 415.62,-56.42 426.08,-58.15 424.88,-51.26"/>
</a>
</g>
</g>
</g>
</svg>
