<?xml version="1.0" encoding="UTF-8" standalone="no"?>
<!DOCTYPE svg PUBLIC "-//W3C//DTD SVG 1.1//EN"
 "http://www.w3.org/Graphics/SVG/1.1/DTD/svg11.dtd">
<!-- Generated by graphviz version 14.1.1 (20251213.1925)
 -->
<!-- Title: src/model/AutoSaveManager.h Pages: 1 -->
<svg width="1010pt" height="196pt"
 viewBox="0.00 0.00 1010.00 196.00" xmlns="http://www.w3.org/2000/svg" xmlns:xlink="http://www.w3.org/1999/xlink">
<g id="graph0" class="graph" transform="scale(1 1) rotate(0) translate(4 192)">
<title>src/model/AutoSaveManager.h</title>
<!-- Node1 -->
<g id="Node000001" class="node">
<title>Node1</title>
<g id="a_Node000001"><a xlink:title=" ">
<polygon fill="#999999" stroke="#666666" points="839.62,-188 689.37,-188 689.37,-168 839.62,-168 839.62,-188"/>
<text xml:space="preserve" text-anchor="middle" x="764.49" y="-174.5" font-family="Helvetica,sans-Serif" font-size="10.00">src/model/AutoSaveManager.h</text>
</a>
</g>
</g>
<!-- Node2 -->
<g id="Node000002" class="node">
<title>Node2</title>
<g id="a_Node000002"><a xlink:title=" ">
<polygon fill="#e0e0e0" stroke="#999999" points="278.74,-20 192.24,-20 192.24,0 278.74,0 278.74,-20"/>
<text xml:space="preserve" text-anchor="middle" x="235.49" y="-6.5" font-family="Helvetica,sans-Serif" font-size="10.00">QtCore/QObject</text>
</a>
</g>
</g>
<!-- Node1&#45;&gt;Node2 -->
<g id="edge1_Node000001_Node000002" class="edge">
<title>Node1&#45;&gt;Node2</title>
<g id="a_edge1_Node000001_Node000002"><a xlink:title=" ">
<path fill="none" stroke="#63b8ff" d="M688.93,-172.47C506.67,-160.76 54.61,-126.85 10.49,-76 -38.62,-19.39 99.64,-10.6 180.91,-10.12"/>
<polygon fill="#63b8ff" stroke="#63b8ff" points="180.47,-13.62 190.46,-10.11 180.46,-6.62 180.47,-13.62"/>
</a>
</g>
</g>
<!-- Node3 -->
<g id="Node000003" class="node">
<title>Node3</title>
<g id="a_Node000003"><a xlink:title=" ">
<polygon fill="#e0e0e0" stroke="#999999" points="903.24,-20 819.74,-20 819.74,0 903.24,0 903.24,-20"/>
<text xml:space="preserve" text-anchor="middle" x="861.49" y="-6.5" font-family="Helvetica,sans-Serif" font-size="10.00">QtCore/QString</text>
</a>
</g>
</g>
<!-- Node1&#45;&gt;Node3 -->
<g id="edge2_Node000001_Node000003" class="edge">
<title>Node1&#45;&gt;Node3</title>
<g id="a_edge2_Node000001_Node000003"><a xlink:title=" ">
<path fill="none" stroke="#63b8ff" d="M777.44,-167.56C798.36,-151.47 839,-116.5 856.49,-76 862.55,-61.98 863.61,-44.69 863.26,-31.47"/>
<polygon fill="#63b8ff" stroke="#63b8ff" points="866.77,-31.57 862.7,-21.79 859.78,-31.97 866.77,-31.57"/>
</a>
</g>
</g>
<!-- Node4 -->
<g id="Node000004" class="node">
<title>Node4</title>
<g id="a_Node000004"><a xlink:title=" ">
<polygon fill="#e0e0e0" stroke="#999999" points="1001.87,-132 919.12,-132 919.12,-112 1001.87,-112 1001.87,-132"/>
<text xml:space="preserve" text-anchor="middle" x="960.49" y="-118.5" font-family="Helvetica,sans-Serif" font-size="10.00">QtCore/QTimer</text>
</a>
</g>
</g>
<!-- Node1&#45;&gt;Node4 -->
<g id="edge3_Node000001_Node000004" class="edge">
<title>Node1&#45;&gt;Node4</title>
<g id="a_edge3_Node000001_Node000004"><a xlink:title=" ">
<path fill="none" stroke="#63b8ff" d="M798.63,-167.59C830.9,-158.71 879.52,-145.31 915.05,-135.52"/>
<polygon fill="#63b8ff" stroke="#63b8ff" points="915.92,-138.91 924.63,-132.88 914.06,-132.16 915.92,-138.91"/>
</a>
</g>
</g>
<!-- Node5 -->
<g id="Node000005" class="node">
<title>Node5</title>
<g id="a_Node000005"><a xlink:href="_connection_line_8h.html" target="_top" xlink:title=" ">
<polygon fill="white" stroke="#666666" points="824.99,-76 703.99,-76 703.99,-56 824.99,-56 824.99,-76"/>
<text xml:space="preserve" text-anchor="middle" x="764.49" y="-62.5" font-family="Helvetica,sans-Serif" font-size="10.00">model/ConnectionLine.h</text>
</a>
</g>
</g>
<!-- Node1&#45;&gt;Node5 -->
<g id="edge4_Node000001_Node000005" class="edge">
<title>Node1&#45;&gt;Node5</title>
<g id="a_edge4_Node000001_Node000005"><a xlink:title=" ">
<path fill="none" stroke="#63b8ff" d="M764.49,-167.62C764.49,-150.01 764.49,-111.59 764.49,-87.65"/>
<polygon fill="#63b8ff" stroke="#63b8ff" points="767.99,-87.87 764.49,-77.87 760.99,-87.87 767.99,-87.87"/>
</a>
</g>
</g>
<!-- Node9 -->
<g id="Node000009" class="node">
<title>Node9</title>
<g id="a_Node000009"><a xlink:href="_basic_element_8h.html" target="_top" xlink:title=" ">
<polygon fill="white" stroke="#666666" points="526.62,-132 412.37,-132 412.37,-112 526.62,-112 526.62,-132"/>
<text xml:space="preserve" text-anchor="middle" x="469.49" y="-118.5" font-family="Helvetica,sans-Serif" font-size="10.00">model/BasicElement.h</text>
</a>
</g>
</g>
<!-- Node1&#45;&gt;Node9 -->
<g id="edge10_Node000001_Node000009" class="edge">
<title>Node1&#45;&gt;Node9</title>
<g id="a_edge10_Node000001_Node000009"><a xlink:title=" ">
<path fill="none" stroke="#63b8ff" d="M712.77,-167.53C662.48,-158.33 586.01,-144.33 532.26,-134.49"/>
<polygon fill="#63b8ff" stroke="#63b8ff" points="533.11,-131.09 522.64,-132.73 531.85,-137.97 533.11,-131.09"/>
</a>
</g>
</g>
<!-- Node5&#45;&gt;Node2 -->
<g id="edge5_Node000005_Node000002" class="edge">
<title>Node5&#45;&gt;Node2</title>
<g id="a_edge5_Node000005_Node000002"><a xlink:title=" ">
<path fill="none" stroke="#63b8ff" d="M703.55,-58.78C599.67,-48.18 389.91,-26.76 290.34,-16.6"/>
<polygon fill="#63b8ff" stroke="#63b8ff" points="290.86,-13.13 280.55,-15.6 290.14,-20.1 290.86,-13.13"/>
</a>
</g>
</g>
<!-- Node5&#45;&gt;Node3 -->
<g id="edge7_Node000005_Node000003" class="edge">
<title>Node5&#45;&gt;Node3</title>
<g id="a_edge7_Node000005_Node000003"><a xlink:title=" ">
<path fill="none" stroke="#63b8ff" d="M781.39,-55.59C796.04,-47.44 817.51,-35.48 834.54,-26"/>
<polygon fill="#63b8ff" stroke="#63b8ff" points="836.11,-29.14 843.14,-21.22 832.7,-23.02 836.11,-29.14"/>
</a>
</g>
</g>
<!-- Node6 -->
<g id="Node000006" class="node">
<title>Node6</title>
<g id="a_Node000006"><a xlink:title=" ">
<polygon fill="#e0e0e0" stroke="#999999" points="708.74,-20 622.24,-20 622.24,0 708.74,0 708.74,-20"/>
<text xml:space="preserve" text-anchor="middle" x="665.49" y="-6.5" font-family="Helvetica,sans-Serif" font-size="10.00">QtCore/QPointF</text>
</a>
</g>
</g>
<!-- Node5&#45;&gt;Node6 -->
<g id="edge6_Node000005_Node000006" class="edge">
<title>Node5&#45;&gt;Node6</title>
<g id="a_edge6_Node000005_Node000006"><a xlink:title=" ">
<path fill="none" stroke="#63b8ff" d="M747.25,-55.59C732.15,-47.36 709.96,-35.26 692.51,-25.74"/>
<polygon fill="#63b8ff" stroke="#63b8ff" points="694.66,-22.92 684.2,-21.2 691.3,-29.07 694.66,-22.92"/>
</a>
</g>
</g>
<!-- Node7 -->
<g id="Node000007" class="node">
<title>Node7</title>
<g id="a_Node000007"><a xlink:title=" ">
<polygon fill="#e0e0e0" stroke="#999999" points="604.62,-20 526.37,-20 526.37,0 604.62,0 604.62,-20"/>
<text xml:space="preserve" text-anchor="middle" x="565.49" y="-6.5" font-family="Helvetica,sans-Serif" font-size="10.00">QtCore/QUuid</text>
</a>
</g>
</g>
<!-- Node5&#45;&gt;Node7 -->
<g id="edge8_Node000005_Node000007" class="edge">
<title>Node5&#45;&gt;Node7</title>
<g id="a_edge8_Node000005_Node000007"><a xlink:title=" ">
<path fill="none" stroke="#63b8ff" d="M729.83,-55.59C696.93,-46.67 647.28,-33.19 611.17,-23.39"/>
<polygon fill="#63b8ff" stroke="#63b8ff" points="612.45,-20.12 601.89,-20.88 610.62,-26.87 612.45,-20.12"/>
</a>
</g>
</g>
<!-- Node8 -->
<g id="Node000008" class="node">
<title>Node8</title>
<g id="a_Node000008"><a xlink:title=" ">
<polygon fill="#e0e0e0" stroke="#999999" points="802.12,-20 726.87,-20 726.87,0 802.12,0 802.12,-20"/>
<text xml:space="preserve" text-anchor="middle" x="764.49" y="-6.5" font-family="Helvetica,sans-Serif" font-size="10.00">QtGui/QColor</text>
</a>
</g>
</g>
<!-- Node5&#45;&gt;Node8 -->
<g id="edge9_Node000005_Node000008" class="edge">
<title>Node5&#45;&gt;Node8</title>
<g id="a_edge9_Node000005_Node000008"><a xlink:title=" ">
<path fill="none" stroke="#63b8ff" d="M764.49,-55.59C764.49,-49.01 764.49,-39.96 764.49,-31.73"/>
<polygon fill="#63b8ff" stroke="#63b8ff" points="767.99,-31.81 764.49,-21.81 760.99,-31.81 767.99,-31.81"/>
</a>
</g>
</g>
<!-- Node9&#45;&gt;Node2 -->
<g id="edge12_Node000009_Node000002" class="edge">
<title>Node9&#45;&gt;Node2</title>
<g id="a_edge12_Node000009_Node000002"><a xlink:title=" ">
<path fill="none" stroke="#63b8ff" d="M412.26,-119.41C297.94,-115.64 50.04,-104.26 24.49,-76 -22.14,-24.41 103.31,-13.3 180.35,-11.2"/>
<polygon fill="#63b8ff" stroke="#63b8ff" points="180.37,-14.7 190.29,-10.98 180.21,-7.7 180.37,-14.7"/>
</a>
</g>
</g>
<!-- Node9&#45;&gt;Node3 -->
<g id="edge15_Node000009_Node000003" class="edge">
<title>Node9&#45;&gt;Node3</title>
<g id="a_edge15_Node000009_Node000003"><a xlink:title=" ">
<path fill="none" stroke="#63b8ff" d="M526.93,-120.79C617.34,-119.34 787.41,-111.78 834.49,-76 848.48,-65.37 855.27,-46.18 858.54,-31.4"/>
<polygon fill="#63b8ff" stroke="#63b8ff" points="861.94,-32.26 860.27,-21.79 855.05,-31.02 861.94,-32.26"/>
</a>
</g>
</g>
<!-- Node9&#45;&gt;Node6 -->
<g id="edge13_Node000009_Node000006" class="edge">
<title>Node9&#45;&gt;Node6</title>
<g id="a_edge13_Node000009_Node000006"><a xlink:title=" ">
<path fill="none" stroke="#63b8ff" d="M526.67,-114.34C575.07,-107.47 639.23,-95.05 656.49,-76 667.26,-64.12 668.91,-45.65 668.21,-31.43"/>
<polygon fill="#63b8ff" stroke="#63b8ff" points="671.72,-31.44 667.3,-21.81 664.76,-32.09 671.72,-31.44"/>
</a>
</g>
</g>
<!-- Node9&#45;&gt;Node7 -->
<g id="edge17_Node000009_Node000007" class="edge">
<title>Node9&#45;&gt;Node7</title>
<g id="a_edge17_Node000009_Node000007"><a xlink:title=" ">
<path fill="none" stroke="#63b8ff" d="M477.68,-111.62C493.69,-93.27 529.39,-52.37 550,-28.75"/>
<polygon fill="#63b8ff" stroke="#63b8ff" points="552.4,-31.33 556.33,-21.5 547.12,-26.73 552.4,-31.33"/>
</a>
</g>
</g>
<!-- Node10 -->
<g id="Node000010" class="node">
<title>Node10</title>
<g id="a_Node000010"><a xlink:title=" ">
<polygon fill="#e0e0e0" stroke="#999999" points="115.12,-76 33.87,-76 33.87,-56 115.12,-56 115.12,-76"/>
<text xml:space="preserve" text-anchor="middle" x="74.49" y="-62.5" font-family="Helvetica,sans-Serif" font-size="10.00">QtCore/QHash</text>
</a>
</g>
</g>
<!-- Node9&#45;&gt;Node10 -->
<g id="edge11_Node000009_Node000010" class="edge">
<title>Node9&#45;&gt;Node10</title>
<g id="a_edge11_Node000009_Node000010"><a xlink:title=" ">
<path fill="none" stroke="#63b8ff" d="M412.12,-114.47C345.72,-106.7 232.83,-92.86 126.62,-76.43"/>
<polygon fill="#63b8ff" stroke="#63b8ff" points="127.29,-72.99 116.87,-74.91 126.21,-79.91 127.29,-72.99"/>
</a>
</g>
</g>
<!-- Node11 -->
<g id="Node000011" class="node">
<title>Node11</title>
<g id="a_Node000011"><a xlink:title=" ">
<polygon fill="#e0e0e0" stroke="#999999" points="217.99,-76 132.99,-76 132.99,-56 217.99,-56 217.99,-76"/>
<text xml:space="preserve" text-anchor="middle" x="175.49" y="-62.5" font-family="Helvetica,sans-Serif" font-size="10.00">QtCore/QRectF</text>
</a>
</g>
</g>
<!-- Node9&#45;&gt;Node11 -->
<g id="edge14_Node000009_Node000011" class="edge">
<title>Node9&#45;&gt;Node11</title>
<g id="a_edge14_Node000009_Node000011"><a xlink:title=" ">
<path fill="none" stroke="#63b8ff" d="M417.95,-111.53C365.06,-101.82 283.12,-86.77 229.39,-76.9"/>
<polygon fill="#63b8ff" stroke="#63b8ff" points="230.33,-73.51 219.86,-75.15 229.07,-80.4 230.33,-73.51"/>
</a>
</g>
</g>
<!-- Node12 -->
<g id="Node000012" class="node">
<title>Node12</title>
<g id="a_Node000012"><a xlink:title=" ">
<polygon fill="#e0e0e0" stroke="#999999" points="319.24,-76 235.74,-76 235.74,-56 319.24,-56 319.24,-76"/>
<text xml:space="preserve" text-anchor="middle" x="277.49" y="-62.5" font-family="Helvetica,sans-Serif" font-size="10.00">QtCore/QSizeF</text>
</a>
</g>
</g>
<!-- Node9&#45;&gt;Node12 -->
<g id="edge16_Node000009_Node000012" class="edge">
<title>Node9&#45;&gt;Node12</title>
<g id="a_edge16_Node000009_Node000012"><a xlink:title=" ">
<path fill="none" stroke="#63b8ff" d="M436.05,-111.59C404.44,-102.71 356.82,-89.31 322.01,-79.52"/>
<polygon fill="#63b8ff" stroke="#63b8ff" points="323.23,-76.23 312.65,-76.89 321.33,-82.97 323.23,-76.23"/>
</a>
</g>
</g>
<!-- Node13 -->
<g id="Node000013" class="node">
<title>Node13</title>
<g id="a_Node000013"><a xlink:title=" ">
<polygon fill="#e0e0e0" stroke="#999999" points="425.49,-76 337.49,-76 337.49,-56 425.49,-56 425.49,-76"/>
<text xml:space="preserve" text-anchor="middle" x="381.49" y="-62.5" font-family="Helvetica,sans-Serif" font-size="10.00">QtCore/QVariant</text>
</a>
</g>
</g>
<!-- Node9&#45;&gt;Node13 -->
<g id="edge18_Node000009_Node000013" class="edge">
<title>Node9&#45;&gt;Node13</title>
<g id="a_edge18_Node000009_Node000013"><a xlink:title=" ">
<path fill="none" stroke="#63b8ff" d="M454.16,-111.59C441,-103.51 421.76,-91.71 406.38,-82.27"/>
<polygon fill="#63b8ff" stroke="#63b8ff" points="408.58,-79.52 398.23,-77.27 404.92,-85.48 408.58,-79.52"/>
</a>
</g>
</g>
<!-- Node14 -->
<g id="Node000014" class="node">
<title>Node14</title>
<g id="a_Node000014"><a xlink:title=" ">
<polygon fill="#e0e0e0" stroke="#999999" points="495.12,-76 443.87,-76 443.87,-56 495.12,-56 495.12,-76"/>
<text xml:space="preserve" text-anchor="middle" x="469.49" y="-62.5" font-family="Helvetica,sans-Serif" font-size="10.00">memory</text>
</a>
</g>
</g>
<!-- Node9&#45;&gt;Node14 -->
<g id="edge19_Node000009_Node000014" class="edge">
<title>Node9&#45;&gt;Node14</title>
<g id="a_edge19_Node000009_Node000014"><a xlink:title=" ">
<path fill="none" stroke="#63b8ff" d="M469.49,-111.59C469.49,-105.01 469.49,-95.96 469.49,-87.73"/>
<polygon fill="#63b8ff" stroke="#63b8ff" points="472.99,-87.81 469.49,-77.81 465.99,-87.81 472.99,-87.81"/>
</a>
</g>
</g>
<!-- Node15 -->
<g id="Node000015" class="node">
<title>Node15</title>
<g id="a_Node000015"><a xlink:href="_connection_point_8h.html" target="_top" xlink:title=" ">
<polygon fill="white" stroke="#666666" points="647.62,-76 551.37,-76 551.37,-56 647.62,-56 647.62,-76"/>
<text xml:space="preserve" text-anchor="middle" x="599.49" y="-62.5" font-family="Helvetica,sans-Serif" font-size="10.00">ConnectionPoint.h</text>
</a>
</g>
</g>
<!-- Node9&#45;&gt;Node15 -->
<g id="edge20_Node000009_Node000015" class="edge">
<title>Node9&#45;&gt;Node15</title>
<g id="a_edge20_Node000009_Node000015"><a xlink:title=" ">
<path fill="none" stroke="#63b8ff" d="M492.14,-111.59C512.61,-103.09 543.01,-90.46 566.24,-80.81"/>
<polygon fill="#63b8ff" stroke="#63b8ff" points="567.38,-84.13 575.27,-77.06 564.7,-77.66 567.38,-84.13"/>
</a>
</g>
</g>
<!-- Node15&#45;&gt;Node2 -->
<g id="edge21_Node000015_Node000002" class="edge">
<title>Node15&#45;&gt;Node2</title>
<g id="a_edge21_Node000015_Node000002"><a xlink:title=" ">
<path fill="none" stroke="#63b8ff" d="M551.16,-57.83C483.65,-47.81 361.47,-29.69 290.54,-19.17"/>
<polygon fill="#63b8ff" stroke="#63b8ff" points="291.09,-15.71 280.69,-17.7 290.06,-22.63 291.09,-15.71"/>
</a>
</g>
</g>
<!-- Node15&#45;&gt;Node3 -->
<g id="edge23_Node000015_Node000003" class="edge">
<title>Node15&#45;&gt;Node3</title>
<g id="a_edge23_Node000015_Node000003"><a xlink:title=" ">
<path fill="none" stroke="#63b8ff" d="M645.43,-55.53C690.94,-46.15 760.6,-31.8 808.44,-21.93"/>
<polygon fill="#63b8ff" stroke="#63b8ff" points="808.94,-25.41 818.03,-19.96 807.52,-18.55 808.94,-25.41"/>
</a>
</g>
</g>
<!-- Node15&#45;&gt;Node6 -->
<g id="edge22_Node000015_Node000006" class="edge">
<title>Node15&#45;&gt;Node6</title>
<g id="a_edge22_Node000015_Node000006"><a xlink:title=" ">
<path fill="none" stroke="#63b8ff" d="M610.99,-55.59C620.45,-47.85 634.1,-36.69 645.37,-27.47"/>
<polygon fill="#63b8ff" stroke="#63b8ff" points="647.43,-30.3 652.96,-21.26 643,-24.88 647.43,-30.3"/>
</a>
</g>
</g>
<!-- Node15&#45;&gt;Node7 -->
<g id="edge24_Node000015_Node000007" class="edge">
<title>Node15&#45;&gt;Node7</title>
<g id="a_edge24_Node000015_Node000007"><a xlink:title=" ">
<path fill="none" stroke="#63b8ff" d="M593.57,-55.59C589.13,-48.55 582.91,-38.67 577.46,-30"/>
<polygon fill="#63b8ff" stroke="#63b8ff" points="580.44,-28.18 572.15,-21.58 574.52,-31.91 580.44,-28.18"/>
</a>
</g>
</g>
</g>
</svg>
