<?xml version="1.0" encoding="UTF-8" standalone="no"?>
<!DOCTYPE svg PUBLIC "-//W3C//DTD SVG 1.1//EN"
 "http://www.w3.org/Graphics/SVG/1.1/DTD/svg11.dtd">
<!-- Generated by graphviz version 14.1.1 (20251213.1925)
 -->
<!-- Title: src/model/AutoSaveManager.cpp Pages: 1 -->
<!--zoomable 252 -->

<svg id="main" version="1.1" xmlns="http://www.w3.org/2000/svg" xmlns:xlink="http://www.w3.org/1999/xlink" xml:space="preserve" onload="init(evt)">

<style type="text/css"><![CDATA[
.node, .edge {opacity: 0.7;}
.node.selected, .edge.selected {opacity: 1;}
.edge:hover path { stroke: red; }
.edge:hover polygon { stroke: red; fill: red; }
]]></style>

<defs>
  <circle id="rim" cx="0" cy="0" r="7"/>
  <circle id="rim2" cx="0" cy="0" r="3.5"/>
  <g id="zoomPlus">
    <use xlink:href="#rim" fill="#404040"><set attributeName="fill" to="#808080" begin="zoomplus.mouseover" end="zoomplus.mouseout"/></use>
    <path d="M-4,0h8M0,-4v8" fill="none" stroke="white" stroke-width="1.5" pointer-events="none"/>
  </g>
  <g id="zoomMin">
    <use xlink:href="#rim" fill="#404040"><set attributeName="fill" to="#808080" begin="zoomminus.mouseover" end="zoomminus.mouseout"/></use>
    <path d="M-4,0h8" fill="none" stroke="white" stroke-width="1.5" pointer-events="none"/>
  </g>
  <g id="arrowUp" transform="translate(30 24)">
    <use xlink:href="#rim"/>
    <path pointer-events="none" fill="none" stroke="white" stroke-width="1.5" d="M0,-3.0v7 M-2.5,-0.5L0,-3.0L2.5,-0.5"/>
  </g>
  <g id="arrowRight" transform="rotate(90) translate(36 -43)">
    <use xlink:href="#rim"/>
    <path pointer-events="none" fill="none" stroke="white" stroke-width="1.5" d="M0,-3.0v7 M-2.5,-0.5L0,-3.0L2.5,-0.5"/>
  </g>
  <g id="arrowDown" transform="rotate(180) translate(-30 -48)">
    <use xlink:href="#rim"/>
    <path pointer-events="none" fill="none" stroke="white" stroke-width="1.5" d="M0,-3.0v7 M-2.5,-0.5L0,-3.0L2.5,-0.5"/>
  </g>
  <g id="arrowLeft" transform="rotate(270) translate(-36 17)">
    <use xlink:href="#rim"/>
    <path pointer-events="none" fill="none" stroke="white" stroke-width="1.5" d="M0,-3.0v7 M-2.5,-0.5L0,-3.0L2.5,-0.5"/>
  </g>
  <g id="resetDef">
    <use xlink:href="#rim2" fill="#404040"><set attributeName="fill" to="#808080" begin="reset.mouseover" end="reset.mouseout"/></use>
  </g>
</defs>
<script type="application/ecmascript">
var viewWidth = 1622;
var viewHeight = 252;
var sectionId = 'dynsection-0';
</script>
<script type="application/ecmascript" xlink:href="svg.min.js"/>
<svg id="graph" class="graph">
<g id="viewport">
<title>src/model/AutoSaveManager.cpp</title>
<!-- Node1 -->
<g id="Node000001" class="node">
<title>Node1</title>
<g id="a_Node000001"><a xlink:title=" ">
<polygon fill="#999999" stroke="#666666" points="1357.72,-244 1196.97,-244 1196.97,-224 1357.72,-224 1357.72,-244"/>
<text xml:space="preserve" text-anchor="middle" x="1277.34" y="-230.5" font-family="Helvetica,sans-Serif" font-size="10.00">src/model/AutoSaveManager.cpp</text>
</a>
</g>
</g>
<!-- Node2 -->
<g id="Node000002" class="node">
<title>Node2</title>
<g id="a_Node000002"><a xlink:href="_auto_save_manager_8h.html" target="_top" xlink:title=" ">
<polygon fill="white" stroke="#666666" points="800.59,-188 696.09,-188 696.09,-168 800.59,-168 800.59,-188"/>
<text xml:space="preserve" text-anchor="middle" x="748.34" y="-174.5" font-family="Helvetica,sans-Serif" font-size="10.00">AutoSaveManager.h</text>
</a>
</g>
</g>
<!-- Node1&#45;&gt;Node2 -->
<g id="edge1_Node000001_Node000002" class="edge">
<title>Node1&#45;&gt;Node2</title>
<g id="a_edge1_Node000001_Node000002"><a xlink:title=" ">
<path fill="none" stroke="#63b8ff" d="M1196.71,-224.77C1091.23,-214 908.55,-195.35 812.15,-185.51"/>
<polygon fill="#63b8ff" stroke="#63b8ff" points="812.64,-182.05 802.33,-184.51 811.93,-189.01 812.64,-182.05"/>
</a>
</g>
</g>
<!-- Node17 -->
<g id="Node000017" class="node">
<title>Node17</title>
<g id="a_Node000017"><a xlink:href="_diagram_serializer_8h.html" target="_top" xlink:title=" ">
<polygon fill="white" stroke="#666666" points="1156.72,-188 1025.97,-188 1025.97,-168 1156.72,-168 1156.72,-188"/>
<text xml:space="preserve" text-anchor="middle" x="1091.34" y="-174.5" font-family="Helvetica,sans-Serif" font-size="10.00">model/DiagramSerializer.h</text>
</a>
</g>
</g>
<!-- Node1&#45;&gt;Node17 -->
<g id="edge26_Node000001_Node000017" class="edge">
<title>Node1&#45;&gt;Node17</title>
<g id="a_edge26_Node000001_Node000017"><a xlink:title=" ">
<path fill="none" stroke="#63b8ff" d="M1244.94,-223.59C1214.46,-214.74 1168.58,-201.43 1134.91,-191.65"/>
<polygon fill="#63b8ff" stroke="#63b8ff" points="1136.02,-188.33 1125.45,-188.9 1134.07,-195.05 1136.02,-188.33"/>
</a>
</g>
</g>
<!-- Node22 -->
<g id="Node000022" class="node">
<title>Node22</title>
<g id="a_Node000022"><a xlink:title=" ">
<polygon fill="#e0e0e0" stroke="#999999" points="1275.72,-188 1174.97,-188 1174.97,-168 1275.72,-168 1275.72,-188"/>
<text xml:space="preserve" text-anchor="middle" x="1225.34" y="-174.5" font-family="Helvetica,sans-Serif" font-size="10.00">QtCore/QDateTime</text>
</a>
</g>
</g>
<!-- Node1&#45;&gt;Node22 -->
<g id="edge32_Node000001_Node000022" class="edge">
<title>Node1&#45;&gt;Node22</title>
<g id="a_edge32_Node000001_Node000022"><a xlink:title=" ">
<path fill="none" stroke="#63b8ff" d="M1268.28,-223.59C1261.12,-216.16 1250.93,-205.58 1242.27,-196.58"/>
<polygon fill="#63b8ff" stroke="#63b8ff" points="1244.8,-194.16 1235.34,-189.39 1239.76,-199.02 1244.8,-194.16"/>
</a>
</g>
</g>
<!-- Node23 -->
<g id="Node000023" class="node">
<title>Node23</title>
<g id="a_Node000023"><a xlink:title=" ">
<polygon fill="#e0e0e0" stroke="#999999" points="1364.72,-188 1293.97,-188 1293.97,-168 1364.72,-168 1364.72,-188"/>
<text xml:space="preserve" text-anchor="middle" x="1329.34" y="-174.5" font-family="Helvetica,sans-Serif" font-size="10.00">QtCore/QDir</text>
</a>
</g>
</g>
<!-- Node1&#45;&gt;Node23 -->
<g id="edge33_Node000001_Node000023" class="edge">
<title>Node1&#45;&gt;Node23</title>
<g id="a_edge33_Node000001_Node000023"><a xlink:title=" ">
<path fill="none" stroke="#63b8ff" d="M1286.4,-223.59C1293.56,-216.16 1303.75,-205.58 1312.41,-196.58"/>
<polygon fill="#63b8ff" stroke="#63b8ff" points="1314.92,-199.02 1319.34,-189.39 1309.88,-194.16 1314.92,-199.02"/>
</a>
</g>
</g>
<!-- Node24 -->
<g id="Node000024" class="node">
<title>Node24</title>
<g id="a_Node000024"><a xlink:title=" ">
<polygon fill="#e0e0e0" stroke="#999999" points="1473.47,-188 1383.22,-188 1383.22,-168 1473.47,-168 1473.47,-188"/>
<text xml:space="preserve" text-anchor="middle" x="1428.34" y="-174.5" font-family="Helvetica,sans-Serif" font-size="10.00">QtCore/QFileInfo</text>
</a>
</g>
</g>
<!-- Node1&#45;&gt;Node24 -->
<g id="edge34_Node000001_Node000024" class="edge">
<title>Node1&#45;&gt;Node24</title>
<g id="a_edge34_Node000001_Node000024"><a xlink:title=" ">
<path fill="none" stroke="#63b8ff" d="M1303.64,-223.59C1327.85,-214.94 1364.02,-202 1391.18,-192.29"/>
<polygon fill="#63b8ff" stroke="#63b8ff" points="1392.17,-195.65 1400.41,-188.99 1389.81,-189.06 1392.17,-195.65"/>
</a>
</g>
</g>
<!-- Node25 -->
<g id="Node000025" class="node">
<title>Node25</title>
<g id="a_Node000025"><a xlink:title=" ">
<polygon fill="#e0e0e0" stroke="#999999" points="1613.59,-188 1491.09,-188 1491.09,-168 1613.59,-168 1613.59,-188"/>
<text xml:space="preserve" text-anchor="middle" x="1552.34" y="-174.5" font-family="Helvetica,sans-Serif" font-size="10.00">QtCore/QStandardPaths</text>
</a>
</g>
</g>
<!-- Node1&#45;&gt;Node25 -->
<g id="edge35_Node000001_Node000025" class="edge">
<title>Node1&#45;&gt;Node25</title>
<g id="a_edge35_Node000001_Node000025"><a xlink:title=" ">
<path fill="none" stroke="#63b8ff" d="M1325.56,-223.53C1372.24,-214.36 1443.12,-200.45 1493.2,-190.61"/>
<polygon fill="#63b8ff" stroke="#63b8ff" points="1493.56,-194.11 1502.69,-188.75 1492.21,-187.24 1493.56,-194.11"/>
</a>
</g>
</g>
<!-- Node3 -->
<g id="Node000003" class="node">
<title>Node3</title>
<g id="a_Node000003"><a xlink:title=" ">
<polygon fill="#e0e0e0" stroke="#999999" points="347.59,-20 261.09,-20 261.09,0 347.59,0 347.59,-20"/>
<text xml:space="preserve" text-anchor="middle" x="304.34" y="-6.5" font-family="Helvetica,sans-Serif" font-size="10.00">QtCore/QObject</text>
</a>
</g>
</g>
<!-- Node2&#45;&gt;Node3 -->
<g id="edge2_Node000002_Node000003" class="edge">
<title>Node2&#45;&gt;Node3</title>
<g id="a_edge2_Node000002_Node000003"><a xlink:title=" ">
<path fill="none" stroke="#63b8ff" d="M695.66,-173.85C533.37,-163.6 49.27,-128.81 4.34,-76 -1.42,-69.23 -1.46,-62.74 4.34,-56 35.31,-20.03 171.39,-12.41 249.22,-11.04"/>
<polygon fill="#63b8ff" stroke="#63b8ff" points="249.26,-14.54 259.21,-10.9 249.16,-7.54 249.26,-14.54"/>
</a>
</g>
</g>
<!-- Node4 -->
<g id="Node000004" class="node">
<title>Node4</title>
<g id="a_Node000004"><a xlink:title=" ">
<polygon fill="#e0e0e0" stroke="#999999" points="917.09,-20 833.59,-20 833.59,0 917.09,0 917.09,-20"/>
<text xml:space="preserve" text-anchor="middle" x="875.34" y="-6.5" font-family="Helvetica,sans-Serif" font-size="10.00">QtCore/QString</text>
</a>
</g>
</g>
<!-- Node2&#45;&gt;Node4 -->
<g id="edge3_Node000002_Node000004" class="edge">
<title>Node2&#45;&gt;Node4</title>
<g id="a_edge3_Node000002_Node000004"><a xlink:title=" ">
<path fill="none" stroke="#63b8ff" d="M768.46,-167.72C797.69,-152.99 850.88,-121.23 873.34,-76 880.11,-62.36 880.31,-45.05 878.97,-31.72"/>
<polygon fill="#63b8ff" stroke="#63b8ff" points="882.45,-31.33 877.6,-21.91 875.52,-32.3 882.45,-31.33"/>
</a>
</g>
</g>
<!-- Node5 -->
<g id="Node000005" class="node">
<title>Node5</title>
<g id="a_Node000005"><a xlink:title=" ">
<polygon fill="#e0e0e0" stroke="#999999" points="754.72,-132 671.97,-132 671.97,-112 754.72,-112 754.72,-132"/>
<text xml:space="preserve" text-anchor="middle" x="713.34" y="-118.5" font-family="Helvetica,sans-Serif" font-size="10.00">QtCore/QTimer</text>
</a>
</g>
</g>
<!-- Node2&#45;&gt;Node5 -->
<g id="edge4_Node000002_Node000005" class="edge">
<title>Node2&#45;&gt;Node5</title>
<g id="a_edge4_Node000002_Node000005"><a xlink:title=" ">
<path fill="none" stroke="#63b8ff" d="M742.24,-167.59C737.63,-160.47 731.13,-150.45 725.47,-141.72"/>
<polygon fill="#63b8ff" stroke="#63b8ff" points="728.57,-140.06 720.19,-133.57 722.69,-143.86 728.57,-140.06"/>
</a>
</g>
</g>
<!-- Node6 -->
<g id="Node000006" class="node">
<title>Node6</title>
<g id="a_Node000006"><a xlink:href="_connection_line_8h.html" target="_top" xlink:title=" ">
<polygon fill="white" stroke="#666666" points="842.84,-76 721.84,-76 721.84,-56 842.84,-56 842.84,-76"/>
<text xml:space="preserve" text-anchor="middle" x="782.34" y="-62.5" font-family="Helvetica,sans-Serif" font-size="10.00">model/ConnectionLine.h</text>
</a>
</g>
</g>
<!-- Node2&#45;&gt;Node6 -->
<g id="edge5_Node000002_Node000006" class="edge">
<title>Node2&#45;&gt;Node6</title>
<g id="a_edge5_Node000002_Node000006"><a xlink:title=" ">
<path fill="none" stroke="#63b8ff" d="M751.54,-167.72C754.65,-158.65 759.46,-144.42 763.34,-132 768.02,-117.03 772.98,-100.02 776.66,-87.15"/>
<polygon fill="#63b8ff" stroke="#63b8ff" points="779.97,-88.32 779.33,-77.75 773.23,-86.41 779.97,-88.32"/>
</a>
</g>
</g>
<!-- Node10 -->
<g id="Node000010" class="node">
<title>Node10</title>
<g id="a_Node000010"><a xlink:href="_basic_element_8h.html" target="_top" xlink:title=" ">
<polygon fill="white" stroke="#666666" points="472.47,-132 358.22,-132 358.22,-112 472.47,-112 472.47,-132"/>
<text xml:space="preserve" text-anchor="middle" x="415.34" y="-118.5" font-family="Helvetica,sans-Serif" font-size="10.00">model/BasicElement.h</text>
</a>
</g>
</g>
<!-- Node2&#45;&gt;Node10 -->
<g id="edge11_Node000002_Node000010" class="edge">
<title>Node2&#45;&gt;Node10</title>
<g id="a_edge11_Node000002_Node000010"><a xlink:title=" ">
<path fill="none" stroke="#63b8ff" d="M695.94,-168.5C638.66,-159.21 546.67,-144.3 483.74,-134.09"/>
<polygon fill="#63b8ff" stroke="#63b8ff" points="484.66,-130.7 474.23,-132.55 483.54,-137.61 484.66,-130.7"/>
</a>
</g>
</g>
<!-- Node6&#45;&gt;Node3 -->
<g id="edge6_Node000006_Node000003" class="edge">
<title>Node6&#45;&gt;Node3</title>
<g id="a_edge6_Node000006_Node000003"><a xlink:title=" ">
<path fill="none" stroke="#63b8ff" d="M721.4,-56.96C718.68,-56.63 715.98,-56.31 713.34,-56 556.25,-37.77 516.11,-40.78 359.34,-20 359.22,-19.98 359.11,-19.97 358.99,-19.95"/>
<polygon fill="#63b8ff" stroke="#63b8ff" points="359.73,-16.52 349.33,-18.58 358.74,-23.45 359.73,-16.52"/>
</a>
</g>
</g>
<!-- Node6&#45;&gt;Node4 -->
<g id="edge8_Node000006_Node000004" class="edge">
<title>Node6&#45;&gt;Node4</title>
<g id="a_edge8_Node000006_Node000004"><a xlink:title=" ">
<path fill="none" stroke="#63b8ff" d="M798.54,-55.59C812.59,-47.44 833.18,-35.48 849.5,-26"/>
<polygon fill="#63b8ff" stroke="#63b8ff" points="850.82,-29.29 857.71,-21.24 847.3,-23.23 850.82,-29.29"/>
</a>
</g>
</g>
<!-- Node7 -->
<g id="Node000007" class="node">
<title>Node7</title>
<g id="a_Node000007"><a xlink:title=" ">
<polygon fill="#e0e0e0" stroke="#999999" points="454.59,-20 368.09,-20 368.09,0 454.59,0 454.59,-20"/>
<text xml:space="preserve" text-anchor="middle" x="411.34" y="-6.5" font-family="Helvetica,sans-Serif" font-size="10.00">QtCore/QPointF</text>
</a>
</g>
</g>
<!-- Node6&#45;&gt;Node7 -->
<g id="edge7_Node000006_Node000007" class="edge">
<title>Node6&#45;&gt;Node7</title>
<g id="a_edge7_Node000006_Node000007"><a xlink:title=" ">
<path fill="none" stroke="#63b8ff" d="M721.4,-56.98C659.59,-48.71 560.86,-35.16 466.24,-20.42"/>
<polygon fill="#63b8ff" stroke="#63b8ff" points="466.93,-16.98 456.51,-18.9 465.85,-23.9 466.93,-16.98"/>
</a>
</g>
</g>
<!-- Node8 -->
<g id="Node000008" class="node">
<title>Node8</title>
<g id="a_Node000008"><a xlink:title=" ">
<polygon fill="#e0e0e0" stroke="#999999" points="550.47,-20 472.22,-20 472.22,0 550.47,0 550.47,-20"/>
<text xml:space="preserve" text-anchor="middle" x="511.34" y="-6.5" font-family="Helvetica,sans-Serif" font-size="10.00">QtCore/QUuid</text>
</a>
</g>
</g>
<!-- Node6&#45;&gt;Node8 -->
<g id="edge9_Node000006_Node000008" class="edge">
<title>Node6&#45;&gt;Node8</title>
<g id="a_edge9_Node000006_Node000008"><a xlink:title=" ">
<path fill="none" stroke="#63b8ff" d="M734.83,-55.53C686.38,-45.88 611.5,-30.96 561.96,-21.09"/>
<polygon fill="#63b8ff" stroke="#63b8ff" points="562.84,-17.69 552.35,-19.17 561.48,-24.56 562.84,-17.69"/>
</a>
</g>
</g>
<!-- Node9 -->
<g id="Node000009" class="node">
<title>Node9</title>
<g id="a_Node000009"><a xlink:title=" ">
<polygon fill="#e0e0e0" stroke="#999999" points="815.97,-20 740.72,-20 740.72,0 815.97,0 815.97,-20"/>
<text xml:space="preserve" text-anchor="middle" x="778.34" y="-6.5" font-family="Helvetica,sans-Serif" font-size="10.00">QtGui/QColor</text>
</a>
</g>
</g>
<!-- Node6&#45;&gt;Node9 -->
<g id="edge10_Node000006_Node000009" class="edge">
<title>Node6&#45;&gt;Node9</title>
<g id="a_edge10_Node000006_Node000009"><a xlink:title=" ">
<path fill="none" stroke="#63b8ff" d="M781.64,-55.59C781.16,-49.01 780.49,-39.96 779.88,-31.73"/>
<polygon fill="#63b8ff" stroke="#63b8ff" points="783.37,-31.52 779.14,-21.81 776.39,-32.04 783.37,-31.52"/>
</a>
</g>
</g>
<!-- Node10&#45;&gt;Node3 -->
<g id="edge13_Node000010_Node000003" class="edge">
<title>Node10&#45;&gt;Node3</title>
<g id="a_edge13_Node000010_Node000003"><a xlink:title=" ">
<path fill="none" stroke="#63b8ff" d="M399.27,-111.52C385.87,-103.16 366.71,-90.14 352.34,-76 338,-61.88 324.66,-43.18 315.7,-29.46"/>
<polygon fill="#63b8ff" stroke="#63b8ff" points="318.89,-27.95 310.57,-21.38 312.98,-31.7 318.89,-27.95"/>
</a>
</g>
</g>
<!-- Node10&#45;&gt;Node4 -->
<g id="edge16_Node000010_Node000004" class="edge">
<title>Node10&#45;&gt;Node4</title>
<g id="a_edge16_Node000010_Node000004"><a xlink:title=" ">
<path fill="none" stroke="#63b8ff" d="M472.54,-118.49C584.25,-113.1 823.08,-99.02 852.34,-76 865.86,-65.36 871.45,-46.17 873.75,-31.39"/>
<polygon fill="#63b8ff" stroke="#63b8ff" points="877.19,-32.14 874.84,-21.8 870.24,-31.35 877.19,-32.14"/>
</a>
</g>
</g>
<!-- Node10&#45;&gt;Node7 -->
<g id="edge14_Node000010_Node000007" class="edge">
<title>Node10&#45;&gt;Node7</title>
<g id="a_edge14_Node000010_Node000007"><a xlink:title=" ">
<path fill="none" stroke="#63b8ff" d="M395.86,-111.6C382.6,-104.02 366.09,-92 358.34,-76 349.18,-57.09 367.18,-38.85 384.63,-26.53"/>
<polygon fill="#63b8ff" stroke="#63b8ff" points="386.39,-29.57 392.83,-21.16 382.55,-23.71 386.39,-29.57"/>
</a>
</g>
</g>
<!-- Node10&#45;&gt;Node8 -->
<g id="edge18_Node000010_Node000008" class="edge">
<title>Node10&#45;&gt;Node8</title>
<g id="a_edge18_Node000010_Node000008"><a xlink:title=" ">
<path fill="none" stroke="#63b8ff" d="M430.14,-111.55C442.43,-103.21 459.85,-90.2 472.34,-76 484.56,-62.1 495.13,-43.86 502.16,-30.24"/>
<polygon fill="#63b8ff" stroke="#63b8ff" points="505.22,-31.95 506.53,-21.44 498.95,-28.84 505.22,-31.95"/>
</a>
</g>
</g>
<!-- Node11 -->
<g id="Node000011" class="node">
<title>Node11</title>
<g id="a_Node000011"><a xlink:title=" ">
<polygon fill="#e0e0e0" stroke="#999999" points="600.97,-76 519.72,-76 519.72,-56 600.97,-56 600.97,-76"/>
<text xml:space="preserve" text-anchor="middle" x="560.34" y="-62.5" font-family="Helvetica,sans-Serif" font-size="10.00">QtCore/QHash</text>
</a>
</g>
</g>
<!-- Node10&#45;&gt;Node11 -->
<g id="edge12_Node000010_Node000011" class="edge">
<title>Node10&#45;&gt;Node11</title>
<g id="a_edge12_Node000010_Node000011"><a xlink:title=" ">
<path fill="none" stroke="#63b8ff" d="M440.6,-111.59C463.74,-102.97 498.27,-90.12 524.3,-80.42"/>
<polygon fill="#63b8ff" stroke="#63b8ff" points="525.32,-83.78 533.47,-77.01 522.87,-77.22 525.32,-83.78"/>
</a>
</g>
</g>
<!-- Node12 -->
<g id="Node000012" class="node">
<title>Node12</title>
<g id="a_Node000012"><a xlink:title=" ">
<polygon fill="#e0e0e0" stroke="#999999" points="703.84,-76 618.84,-76 618.84,-56 703.84,-56 703.84,-76"/>
<text xml:space="preserve" text-anchor="middle" x="661.34" y="-62.5" font-family="Helvetica,sans-Serif" font-size="10.00">QtCore/QRectF</text>
</a>
</g>
</g>
<!-- Node10&#45;&gt;Node12 -->
<g id="edge15_Node000010_Node000012" class="edge">
<title>Node10&#45;&gt;Node12</title>
<g id="a_edge15_Node000010_Node000012"><a xlink:title=" ">
<path fill="none" stroke="#63b8ff" d="M458.47,-111.53C499.92,-102.43 562.69,-88.65 607.43,-78.83"/>
<polygon fill="#63b8ff" stroke="#63b8ff" points="608.18,-82.25 617.19,-76.69 606.67,-75.42 608.18,-82.25"/>
</a>
</g>
</g>
<!-- Node13 -->
<g id="Node000013" class="node">
<title>Node13</title>
<g id="a_Node000013"><a xlink:title=" ">
<polygon fill="#e0e0e0" stroke="#999999" points="97.09,-76 13.59,-76 13.59,-56 97.09,-56 97.09,-76"/>
<text xml:space="preserve" text-anchor="middle" x="55.34" y="-62.5" font-family="Helvetica,sans-Serif" font-size="10.00">QtCore/QSizeF</text>
</a>
</g>
</g>
<!-- Node10&#45;&gt;Node13 -->
<g id="edge17_Node000010_Node000013" class="edge">
<title>Node10&#45;&gt;Node13</title>
<g id="a_edge17_Node000010_Node000013"><a xlink:title=" ">
<path fill="none" stroke="#63b8ff" d="M357.74,-113.14C298.05,-104.87 201.74,-91.21 108.68,-76.34"/>
<polygon fill="#63b8ff" stroke="#63b8ff" points="109.27,-72.89 98.84,-74.76 108.16,-79.8 109.27,-72.89"/>
</a>
</g>
</g>
<!-- Node14 -->
<g id="Node000014" class="node">
<title>Node14</title>
<g id="a_Node000014"><a xlink:title=" ">
<polygon fill="#e0e0e0" stroke="#999999" points="203.34,-76 115.34,-76 115.34,-56 203.34,-56 203.34,-76"/>
<text xml:space="preserve" text-anchor="middle" x="159.34" y="-62.5" font-family="Helvetica,sans-Serif" font-size="10.00">QtCore/QVariant</text>
</a>
</g>
</g>
<!-- Node10&#45;&gt;Node14 -->
<g id="edge19_Node000010_Node000014" class="edge">
<title>Node10&#45;&gt;Node14</title>
<g id="a_edge19_Node000010_Node000014"><a xlink:title=" ">
<path fill="none" stroke="#63b8ff" d="M370.46,-111.53C327.14,-102.39 261.44,-88.54 214.85,-78.71"/>
<polygon fill="#63b8ff" stroke="#63b8ff" points="215.73,-75.32 205.23,-76.68 214.29,-82.17 215.73,-75.32"/>
</a>
</g>
</g>
<!-- Node15 -->
<g id="Node000015" class="node">
<title>Node15</title>
<g id="a_Node000015"><a xlink:title=" ">
<polygon fill="#e0e0e0" stroke="#999999" points="272.97,-76 221.72,-76 221.72,-56 272.97,-56 272.97,-76"/>
<text xml:space="preserve" text-anchor="middle" x="247.34" y="-62.5" font-family="Helvetica,sans-Serif" font-size="10.00">memory</text>
</a>
</g>
</g>
<!-- Node10&#45;&gt;Node15 -->
<g id="edge20_Node000010_Node000015" class="edge">
<title>Node10&#45;&gt;Node15</title>
<g id="a_edge20_Node000010_Node000015"><a xlink:title=" ">
<path fill="none" stroke="#63b8ff" d="M386.08,-111.59C357.69,-102.47 314.54,-88.6 283.91,-78.75"/>
<polygon fill="#63b8ff" stroke="#63b8ff" points="285.27,-75.52 274.68,-75.79 283.13,-82.18 285.27,-75.52"/>
</a>
</g>
</g>
<!-- Node16 -->
<g id="Node000016" class="node">
<title>Node16</title>
<g id="a_Node000016"><a xlink:href="_connection_point_8h.html" target="_top" xlink:title=" ">
<polygon fill="white" stroke="#666666" points="463.47,-76 367.22,-76 367.22,-56 463.47,-56 463.47,-76"/>
<text xml:space="preserve" text-anchor="middle" x="415.34" y="-62.5" font-family="Helvetica,sans-Serif" font-size="10.00">ConnectionPoint.h</text>
</a>
</g>
</g>
<!-- Node10&#45;&gt;Node16 -->
<g id="edge21_Node000010_Node000016" class="edge">
<title>Node10&#45;&gt;Node16</title>
<g id="a_edge21_Node000010_Node000016"><a xlink:title=" ">
<path fill="none" stroke="#63b8ff" d="M415.34,-111.59C415.34,-105.01 415.34,-95.96 415.34,-87.73"/>
<polygon fill="#63b8ff" stroke="#63b8ff" points="418.84,-87.81 415.34,-77.81 411.84,-87.81 418.84,-87.81"/>
</a>
</g>
</g>
<!-- Node16&#45;&gt;Node3 -->
<g id="edge22_Node000016_Node000003" class="edge">
<title>Node16&#45;&gt;Node3</title>
<g id="a_edge22_Node000016_Node000003"><a xlink:title=" ">
<path fill="none" stroke="#63b8ff" d="M396.01,-55.59C378.92,-47.28 353.74,-35.03 334.09,-25.47"/>
<polygon fill="#63b8ff" stroke="#63b8ff" points="335.71,-22.37 325.19,-21.14 332.65,-28.66 335.71,-22.37"/>
</a>
</g>
</g>
<!-- Node16&#45;&gt;Node4 -->
<g id="edge24_Node000016_Node000004" class="edge">
<title>Node16&#45;&gt;Node4</title>
<g id="a_edge24_Node000016_Node000004"><a xlink:title=" ">
<path fill="none" stroke="#63b8ff" d="M463.74,-60.11C552.33,-51.09 738.46,-31.83 821.8,-20.41"/>
<polygon fill="#63b8ff" stroke="#63b8ff" points="822.18,-23.89 831.59,-19.03 821.2,-16.96 822.18,-23.89"/>
</a>
</g>
</g>
<!-- Node16&#45;&gt;Node7 -->
<g id="edge23_Node000016_Node000007" class="edge">
<title>Node16&#45;&gt;Node7</title>
<g id="a_edge23_Node000016_Node000007"><a xlink:title=" ">
<path fill="none" stroke="#63b8ff" d="M414.64,-55.59C414.16,-49.01 413.49,-39.96 412.88,-31.73"/>
<polygon fill="#63b8ff" stroke="#63b8ff" points="416.37,-31.52 412.14,-21.81 409.39,-32.04 416.37,-31.52"/>
</a>
</g>
</g>
<!-- Node16&#45;&gt;Node8 -->
<g id="edge25_Node000016_Node000008" class="edge">
<title>Node16&#45;&gt;Node8</title>
<g id="a_edge25_Node000016_Node000008"><a xlink:title=" ">
<path fill="none" stroke="#63b8ff" d="M432.06,-55.59C446.56,-47.44 467.81,-35.48 484.66,-26"/>
<polygon fill="#63b8ff" stroke="#63b8ff" points="486.17,-29.17 493.17,-21.22 482.74,-23.07 486.17,-29.17"/>
</a>
</g>
</g>
<!-- Node17&#45;&gt;Node4 -->
<g id="edge30_Node000017_Node000004" class="edge">
<title>Node17&#45;&gt;Node4</title>
<g id="a_edge30_Node000017_Node000004"><a xlink:title=" ">
<path fill="none" stroke="#63b8ff" d="M1046.36,-167.57C1021.1,-160.69 990,-149.46 966.34,-132 928.77,-104.28 899.53,-56.77 885.14,-30.28"/>
<polygon fill="#63b8ff" stroke="#63b8ff" points="888.37,-28.89 880.61,-21.68 882.17,-32.16 888.37,-28.89"/>
</a>
</g>
</g>
<!-- Node18 -->
<g id="Node000018" class="node">
<title>Node18</title>
<g id="a_Node000018"><a xlink:title=" ">
<polygon fill="#e0e0e0" stroke="#999999" points="1077.47,-132 975.22,-132 975.22,-112 1077.47,-112 1077.47,-132"/>
<text xml:space="preserve" text-anchor="middle" x="1026.34" y="-118.5" font-family="Helvetica,sans-Serif" font-size="10.00">QtCore/QJsonArray</text>
</a>
</g>
</g>
<!-- Node17&#45;&gt;Node18 -->
<g id="edge27_Node000017_Node000018" class="edge">
<title>Node17&#45;&gt;Node18</title>
<g id="a_edge27_Node000017_Node000018"><a xlink:title=" ">
<path fill="none" stroke="#63b8ff" d="M1080.02,-167.59C1070.7,-159.85 1057.26,-148.69 1046.16,-139.47"/>
<polygon fill="#63b8ff" stroke="#63b8ff" points="1048.63,-136.96 1038.7,-133.27 1044.15,-142.35 1048.63,-136.96"/>
</a>
</g>
</g>
<!-- Node19 -->
<g id="Node000019" class="node">
<title>Node19</title>
<g id="a_Node000019"><a xlink:title=" ">
<polygon fill="#e0e0e0" stroke="#999999" points="1219.34,-132 1095.34,-132 1095.34,-112 1219.34,-112 1219.34,-132"/>
<text xml:space="preserve" text-anchor="middle" x="1157.34" y="-118.5" font-family="Helvetica,sans-Serif" font-size="10.00">QtCore/QJsonDocument</text>
</a>
</g>
</g>
<!-- Node17&#45;&gt;Node19 -->
<g id="edge28_Node000017_Node000019" class="edge">
<title>Node17&#45;&gt;Node19</title>
<g id="a_edge28_Node000017_Node000019"><a xlink:title=" ">
<path fill="none" stroke="#63b8ff" d="M1102.84,-167.59C1112.3,-159.85 1125.94,-148.69 1137.21,-139.47"/>
<polygon fill="#63b8ff" stroke="#63b8ff" points="1139.28,-142.3 1144.8,-133.26 1134.85,-136.88 1139.28,-142.3"/>
</a>
</g>
</g>
<!-- Node20 -->
<g id="Node000020" class="node">
<title>Node20</title>
<g id="a_Node000020"><a xlink:title=" ">
<polygon fill="#e0e0e0" stroke="#999999" points="1345.09,-132 1237.59,-132 1237.59,-112 1345.09,-112 1345.09,-132"/>
<text xml:space="preserve" text-anchor="middle" x="1291.34" y="-118.5" font-family="Helvetica,sans-Serif" font-size="10.00">QtCore/QJsonObject</text>
</a>
</g>
</g>
<!-- Node17&#45;&gt;Node20 -->
<g id="edge29_Node000017_Node000020" class="edge">
<title>Node17&#45;&gt;Node20</title>
<g id="a_edge29_Node000017_Node000020"><a xlink:title=" ">
<path fill="none" stroke="#63b8ff" d="M1126.18,-167.59C1159.24,-158.67 1209.14,-145.19 1245.44,-135.39"/>
<polygon fill="#63b8ff" stroke="#63b8ff" points="1246.03,-138.86 1254.77,-132.87 1244.2,-132.1 1246.03,-138.86"/>
</a>
</g>
</g>
<!-- Node21 -->
<g id="Node000021" class="node">
<title>Node21</title>
<g id="a_Node000021"><a xlink:title=" ">
<polygon fill="#e0e0e0" stroke="#999999" points="1469.72,-132 1362.97,-132 1362.97,-112 1469.72,-112 1469.72,-132"/>
<text xml:space="preserve" text-anchor="middle" x="1416.34" y="-118.5" font-family="Helvetica,sans-Serif" font-size="10.00">QtCore/QVariantMap</text>
</a>
</g>
</g>
<!-- Node17&#45;&gt;Node21 -->
<g id="edge31_Node000017_Node000021" class="edge">
<title>Node17&#45;&gt;Node21</title>
<g id="a_edge31_Node000017_Node000021"><a xlink:title=" ">
<path fill="none" stroke="#63b8ff" d="M1148.32,-167.53C1205.1,-158.1 1292.17,-143.63 1351.54,-133.77"/>
<polygon fill="#63b8ff" stroke="#63b8ff" points="1351.88,-137.26 1361.17,-132.17 1350.73,-130.35 1351.88,-137.26"/>
</a>
</g>
</g>
</g>
</svg>

<g id="navigator" transform="translate(0 0)" fill="#404254">
  <rect fill="#f2f5e9" fill-opacity="0.5" stroke="#606060" stroke-width=".5" x="0" y="0" width="60" height="60"/>
  <use id="zoomplus" xlink:href="#zoomPlus" x="17" y="9" onmousedown="handleZoom(evt,'in')"/>
  <use id="zoomminus" xlink:href="#zoomMin" x="42" y="9" onmousedown="handleZoom(evt,'out')"/>
  <use id="reset" xlink:href="#resetDef" x="30" y="36" onmousedown="handleReset()"/>
   <use id="arrowup" xlink:href="#arrowUp" x="0" y="0" onmousedown="handlePan(0,-1)"/>
  <use id="arrowright" xlink:href="#arrowRight" x="0" y="0" onmousedown="handlePan(1,0)"/>
  <use id="arrowdown" xlink:href="#arrowDown" x="0" y="0" onmousedown="handlePan(0,1)"/>
  <use id="arrowleft" xlink:href="#arrowLeft" x="0" y="0" onmousedown="handlePan(-1,0)"/>
</g>
<svg viewBox="0 0 15 15" width="100%" height="30px" preserveAspectRatio="xMaxYMin meet">
 <g id="arrow_out" transform="scale(0.3 0.3)">
  <a xlink:href="_auto_save_manager_8cpp__incl_org.svg" target="_base">
   <rect id="button" ry="5" rx="5" y="6" x="6" height="38" width="38"
        fill="#f2f5e9" fill-opacity="0.5" stroke="#606060" stroke-width="1.0"/>
   <path id="arrow"
     d="M 11.500037,31.436501 C 11.940474,20.09759 22.043105,11.32322 32.158766,21.979434 L 37.068811,17.246167 C 37.068811,17.246167 37.088388,32 37.088388,32 L 22.160133,31.978069 C 22.160133,31.978069 26.997745,27.140456 26.997745,27.140456 C 18.528582,18.264221 13.291696,25.230495 11.500037,31.436501 z"
     style="fill:#404040;"/>
  </a>
 </g>
</svg>

<style type='text/css'>
<![CDATA[
[data-mouse-over-selected='false'] { opacity: 0.7; }
[data-mouse-over-selected='true']  { opacity: 1.0; }
]]>
</style>
<script type="application/ecmascript"><![CDATA[
document.addEventListener('DOMContentLoaded', (event) => {
  highlightEdges();
  highlightAdjacentNodes();
});
]]></script>
</svg>
