<?xml version="1.0" encoding="UTF-8" standalone="no"?>
<!DOCTYPE svg PUBLIC "-//W3C//DTD SVG 1.1//EN"
 "http://www.w3.org/Graphics/SVG/1.1/DTD/svg11.dtd">
<!-- Generated by graphviz version 14.1.1 (20251213.1925)
 -->
<!-- Title: src/model/BasicElement.h Pages: 1 -->
<svg width="736pt" height="140pt"
 viewBox="0.00 0.00 736.00 140.00" xmlns="http://www.w3.org/2000/svg" xmlns:xlink="http://www.w3.org/1999/xlink">
<g id="graph0" class="graph" transform="scale(1 1) rotate(0) translate(4 136)">
<title>src/model/BasicElement.h</title>
<!-- Node1 -->
<g id="Node000001" class="node">
<title>Node1</title>
<g id="a_Node000001"><a xlink:title=" ">
<polygon fill="#999999" stroke="#666666" points="384,-132 253.25,-132 253.25,-112 384,-112 384,-132"/>
<text xml:space="preserve" text-anchor="middle" x="318.62" y="-118.5" font-family="Helvetica,sans-Serif" font-size="10.00">src/model/BasicElement.h</text>
</a>
</g>
</g>
<!-- Node2 -->
<g id="Node000002" class="node">
<title>Node2</title>
<g id="a_Node000002"><a xlink:title=" ">
<polygon fill="#e0e0e0" stroke="#999999" points="81.25,-76 0,-76 0,-56 81.25,-56 81.25,-76"/>
<text xml:space="preserve" text-anchor="middle" x="40.62" y="-62.5" font-family="Helvetica,sans-Serif" font-size="10.00">QtCore/QHash</text>
</a>
</g>
</g>
<!-- Node1&#45;&gt;Node2 -->
<g id="edge1_Node000001_Node000002" class="edge">
<title>Node1&#45;&gt;Node2</title>
<g id="a_edge1_Node000001_Node000002"><a xlink:title=" ">
<path fill="none" stroke="#63b8ff" d="M269.88,-111.53C220.23,-101.89 143.49,-86.98 92.67,-77.11"/>
<polygon fill="#63b8ff" stroke="#63b8ff" points="93.58,-73.72 83.1,-75.25 92.25,-80.59 93.58,-73.72"/>
</a>
</g>
</g>
<!-- Node3 -->
<g id="Node000003" class="node">
<title>Node3</title>
<g id="a_Node000003"><a xlink:title=" ">
<polygon fill="#e0e0e0" stroke="#999999" points="109.88,-20 23.38,-20 23.38,0 109.88,0 109.88,-20"/>
<text xml:space="preserve" text-anchor="middle" x="66.62" y="-6.5" font-family="Helvetica,sans-Serif" font-size="10.00">QtCore/QObject</text>
</a>
</g>
</g>
<!-- Node1&#45;&gt;Node3 -->
<g id="edge2_Node000001_Node000003" class="edge">
<title>Node1&#45;&gt;Node3</title>
<g id="a_edge2_Node000001_Node000003"><a xlink:title=" ">
<path fill="none" stroke="#63b8ff" d="M266.97,-111.55C234.29,-104.4 191.74,-92.89 156.62,-76 129.95,-63.17 102.89,-42.35 85.51,-27.73"/>
<polygon fill="#63b8ff" stroke="#63b8ff" points="87.93,-25.19 78.06,-21.33 83.36,-30.5 87.93,-25.19"/>
</a>
</g>
</g>
<!-- Node4 -->
<g id="Node000004" class="node">
<title>Node4</title>
<g id="a_Node000004"><a xlink:title=" ">
<polygon fill="#e0e0e0" stroke="#999999" points="214.88,-20 128.38,-20 128.38,0 214.88,0 214.88,-20"/>
<text xml:space="preserve" text-anchor="middle" x="171.62" y="-6.5" font-family="Helvetica,sans-Serif" font-size="10.00">QtCore/QPointF</text>
</a>
</g>
</g>
<!-- Node1&#45;&gt;Node4 -->
<g id="edge3_Node000001_Node000004" class="edge">
<title>Node1&#45;&gt;Node4</title>
<g id="a_edge3_Node000001_Node000004"><a xlink:title=" ">
<path fill="none" stroke="#63b8ff" d="M253.02,-118.92C221.6,-114.19 186.55,-102.68 166.62,-76 157.1,-63.25 159.55,-44.89 163.69,-30.94"/>
<polygon fill="#63b8ff" stroke="#63b8ff" points="166.85,-32.49 166.84,-21.9 160.24,-30.19 166.85,-32.49"/>
</a>
</g>
</g>
<!-- Node5 -->
<g id="Node000005" class="node">
<title>Node5</title>
<g id="a_Node000005"><a xlink:title=" ">
<polygon fill="#e0e0e0" stroke="#999999" points="451.12,-76 366.12,-76 366.12,-56 451.12,-56 451.12,-76"/>
<text xml:space="preserve" text-anchor="middle" x="408.62" y="-62.5" font-family="Helvetica,sans-Serif" font-size="10.00">QtCore/QRectF</text>
</a>
</g>
</g>
<!-- Node1&#45;&gt;Node5 -->
<g id="edge4_Node000001_Node000005" class="edge">
<title>Node1&#45;&gt;Node5</title>
<g id="a_edge4_Node000001_Node000005"><a xlink:title=" ">
<path fill="none" stroke="#63b8ff" d="M334.3,-111.59C347.77,-103.51 367.44,-91.71 383.17,-82.27"/>
<polygon fill="#63b8ff" stroke="#63b8ff" points="384.75,-85.4 391.53,-77.26 381.15,-79.4 384.75,-85.4"/>
</a>
</g>
</g>
<!-- Node6 -->
<g id="Node000006" class="node">
<title>Node6</title>
<g id="a_Node000006"><a xlink:title=" ">
<polygon fill="#e0e0e0" stroke="#999999" points="316.38,-20 232.88,-20 232.88,0 316.38,0 316.38,-20"/>
<text xml:space="preserve" text-anchor="middle" x="274.62" y="-6.5" font-family="Helvetica,sans-Serif" font-size="10.00">QtCore/QString</text>
</a>
</g>
</g>
<!-- Node1&#45;&gt;Node6 -->
<g id="edge5_Node000001_Node000006" class="edge">
<title>Node1&#45;&gt;Node6</title>
<g id="a_edge5_Node000001_Node000006"><a xlink:title=" ">
<path fill="none" stroke="#63b8ff" d="M314.87,-111.62C307.76,-93.84 292.18,-54.88 282.62,-31"/>
<polygon fill="#63b8ff" stroke="#63b8ff" points="285.89,-29.74 278.93,-21.76 279.39,-32.34 285.89,-29.74"/>
</a>
</g>
</g>
<!-- Node7 -->
<g id="Node000007" class="node">
<title>Node7</title>
<g id="a_Node000007"><a xlink:title=" ">
<polygon fill="#e0e0e0" stroke="#999999" points="552.38,-76 468.88,-76 468.88,-56 552.38,-56 552.38,-76"/>
<text xml:space="preserve" text-anchor="middle" x="510.62" y="-62.5" font-family="Helvetica,sans-Serif" font-size="10.00">QtCore/QSizeF</text>
</a>
</g>
</g>
<!-- Node1&#45;&gt;Node7 -->
<g id="edge6_Node000001_Node000007" class="edge">
<title>Node1&#45;&gt;Node7</title>
<g id="a_edge6_Node000001_Node000007"><a xlink:title=" ">
<path fill="none" stroke="#63b8ff" d="M352.07,-111.59C383.67,-102.71 431.3,-89.31 466.11,-79.52"/>
<polygon fill="#63b8ff" stroke="#63b8ff" points="466.78,-82.97 475.46,-76.89 464.89,-76.23 466.78,-82.97"/>
</a>
</g>
</g>
<!-- Node8 -->
<g id="Node000008" class="node">
<title>Node8</title>
<g id="a_Node000008"><a xlink:title=" ">
<polygon fill="#e0e0e0" stroke="#999999" points="412.75,-20 334.5,-20 334.5,0 412.75,0 412.75,-20"/>
<text xml:space="preserve" text-anchor="middle" x="373.62" y="-6.5" font-family="Helvetica,sans-Serif" font-size="10.00">QtCore/QUuid</text>
</a>
</g>
</g>
<!-- Node1&#45;&gt;Node8 -->
<g id="edge7_Node000001_Node000008" class="edge">
<title>Node1&#45;&gt;Node8</title>
<g id="a_edge7_Node000001_Node000008"><a xlink:title=" ">
<path fill="none" stroke="#63b8ff" d="M323.31,-111.62C332.28,-93.68 352.04,-54.17 363.95,-30.35"/>
<polygon fill="#63b8ff" stroke="#63b8ff" points="366.93,-32.22 368.27,-21.71 360.67,-29.09 366.93,-32.22"/>
</a>
</g>
</g>
<!-- Node9 -->
<g id="Node000009" class="node">
<title>Node9</title>
<g id="a_Node000009"><a xlink:title=" ">
<polygon fill="#e0e0e0" stroke="#999999" points="658.62,-76 570.62,-76 570.62,-56 658.62,-56 658.62,-76"/>
<text xml:space="preserve" text-anchor="middle" x="614.62" y="-62.5" font-family="Helvetica,sans-Serif" font-size="10.00">QtCore/QVariant</text>
</a>
</g>
</g>
<!-- Node1&#45;&gt;Node9 -->
<g id="edge8_Node000001_Node000009" class="edge">
<title>Node1&#45;&gt;Node9</title>
<g id="a_edge8_Node000001_Node000009"><a xlink:title=" ">
<path fill="none" stroke="#63b8ff" d="M370.52,-111.53C423.46,-101.87 505.3,-86.94 559.41,-77.07"/>
<polygon fill="#63b8ff" stroke="#63b8ff" points="559.82,-80.56 569.03,-75.32 558.56,-73.67 559.82,-80.56"/>
</a>
</g>
</g>
<!-- Node10 -->
<g id="Node000010" class="node">
<title>Node10</title>
<g id="a_Node000010"><a xlink:title=" ">
<polygon fill="#e0e0e0" stroke="#999999" points="728.25,-76 677,-76 677,-56 728.25,-56 728.25,-76"/>
<text xml:space="preserve" text-anchor="middle" x="702.62" y="-62.5" font-family="Helvetica,sans-Serif" font-size="10.00">memory</text>
</a>
</g>
</g>
<!-- Node1&#45;&gt;Node10 -->
<g id="edge9_Node000001_Node000010" class="edge">
<title>Node1&#45;&gt;Node10</title>
<g id="a_edge9_Node000001_Node000010"><a xlink:title=" ">
<path fill="none" stroke="#63b8ff" d="M384.3,-114.98C452.33,-108.19 561.88,-95.72 665.71,-76.15"/>
<polygon fill="#63b8ff" stroke="#63b8ff" points="666.06,-79.64 675.23,-74.33 664.75,-72.77 666.06,-79.64"/>
</a>
</g>
</g>
<!-- Node11 -->
<g id="Node000011" class="node">
<title>Node11</title>
<g id="a_Node000011"><a xlink:href="_connection_point_8h.html" target="_top" xlink:title=" ">
<polygon fill="white" stroke="#666666" points="271.75,-76 175.5,-76 175.5,-56 271.75,-56 271.75,-76"/>
<text xml:space="preserve" text-anchor="middle" x="223.62" y="-62.5" font-family="Helvetica,sans-Serif" font-size="10.00">ConnectionPoint.h</text>
</a>
</g>
</g>
<!-- Node1&#45;&gt;Node11 -->
<g id="edge10_Node000001_Node000011" class="edge">
<title>Node1&#45;&gt;Node11</title>
<g id="a_edge10_Node000001_Node000011"><a xlink:title=" ">
<path fill="none" stroke="#63b8ff" d="M302.08,-111.59C287.73,-103.44 266.7,-91.48 250.02,-82"/>
<polygon fill="#63b8ff" stroke="#63b8ff" points="252.04,-79.13 241.62,-77.23 248.58,-85.21 252.04,-79.13"/>
</a>
</g>
</g>
<!-- Node11&#45;&gt;Node3 -->
<g id="edge11_Node000011_Node000003" class="edge">
<title>Node11&#45;&gt;Node3</title>
<g id="a_edge11_Node000011_Node000003"><a xlink:title=" ">
<path fill="none" stroke="#63b8ff" d="M196.28,-55.59C170.99,-46.9 133.17,-33.89 104.89,-24.16"/>
<polygon fill="#63b8ff" stroke="#63b8ff" points="106.21,-20.91 95.62,-20.97 103.93,-27.53 106.21,-20.91"/>
</a>
</g>
</g>
<!-- Node11&#45;&gt;Node4 -->
<g id="edge12_Node000011_Node000004" class="edge">
<title>Node11&#45;&gt;Node4</title>
<g id="a_edge12_Node000011_Node000004"><a xlink:title=" ">
<path fill="none" stroke="#63b8ff" d="M214.57,-55.59C207.41,-48.16 197.22,-37.58 188.56,-28.58"/>
<polygon fill="#63b8ff" stroke="#63b8ff" points="191.09,-26.16 181.63,-21.39 186.04,-31.02 191.09,-26.16"/>
</a>
</g>
</g>
<!-- Node11&#45;&gt;Node6 -->
<g id="edge13_Node000011_Node000006" class="edge">
<title>Node11&#45;&gt;Node6</title>
<g id="a_edge13_Node000011_Node000006"><a xlink:title=" ">
<path fill="none" stroke="#63b8ff" d="M232.51,-55.59C239.53,-48.16 249.53,-37.58 258.02,-28.58"/>
<polygon fill="#63b8ff" stroke="#63b8ff" points="260.48,-31.07 264.8,-21.4 255.39,-26.27 260.48,-31.07"/>
</a>
</g>
</g>
<!-- Node11&#45;&gt;Node8 -->
<g id="edge14_Node000011_Node000008" class="edge">
<title>Node11&#45;&gt;Node8</title>
<g id="a_edge14_Node000011_Node000008"><a xlink:title=" ">
<path fill="none" stroke="#63b8ff" d="M249.75,-55.59C273.8,-46.94 309.73,-34 336.71,-24.29"/>
<polygon fill="#63b8ff" stroke="#63b8ff" points="337.65,-27.67 345.87,-20.99 335.27,-21.09 337.65,-27.67"/>
</a>
</g>
</g>
</g>
</svg>
