<?xml version="1.0" encoding="UTF-8" standalone="no"?>
<!DOCTYPE svg PUBLIC "-//W3C//DTD SVG 1.1//EN"
 "http://www.w3.org/Graphics/SVG/1.1/DTD/svg11.dtd">
<!-- Generated by graphviz version 14.1.1 (20251213.1925)
 -->
<!-- Title: src/viewer/BezierControlPoint.cpp Pages: 1 -->
<svg width="879pt" height="220pt"
 viewBox="0.00 0.00 879.00 220.00" xmlns="http://www.w3.org/2000/svg" xmlns:xlink="http://www.w3.org/1999/xlink">
<g id="graph0" class="graph" transform="scale(1 1) rotate(0) translate(4 216)">
<title>src/viewer/BezierControlPoint.cpp</title>
<!-- Node1 -->
<g id="Node000001" class="node">
<title>Node1</title>
<g id="a_Node000001"><a xlink:title=" ">
<polygon fill="#999999" stroke="#666666" points="628,-212 504.75,-212 504.75,-180 628,-180 628,-212"/>
<text xml:space="preserve" text-anchor="start" x="512.75" y="-198.5" font-family="Helvetica,sans-Serif" font-size="10.00">src/viewer/BezierControl</text>
<text xml:space="preserve" text-anchor="middle" x="566.38" y="-186.5" font-family="Helvetica,sans-Serif" font-size="10.00">Point.cpp</text>
</a>
</g>
</g>
<!-- Node2 -->
<g id="Node000002" class="node">
<title>Node2</title>
<g id="a_Node000002"><a xlink:href="_bezier_control_point_8h.html" target="_top" xlink:title=" ">
<polygon fill="white" stroke="#666666" points="338.38,-76 232.38,-76 232.38,-56 338.38,-56 338.38,-76"/>
<text xml:space="preserve" text-anchor="middle" x="285.38" y="-62.5" font-family="Helvetica,sans-Serif" font-size="10.00">BezierControlPoint.h</text>
</a>
</g>
</g>
<!-- Node1&#45;&gt;Node2 -->
<g id="edge1_Node000001_Node000002" class="edge">
<title>Node1&#45;&gt;Node2</title>
<g id="a_edge1_Node000001_Node000002"><a xlink:title=" ">
<path fill="none" stroke="#63b8ff" d="M511.11,-179.59C481.79,-170.63 445.48,-158.3 414.38,-144 375.43,-126.09 333.32,-99.44 308.16,-82.65"/>
<polygon fill="#63b8ff" stroke="#63b8ff" points="310.28,-79.86 300.03,-77.17 306.37,-85.67 310.28,-79.86"/>
</a>
</g>
</g>
<!-- Node6 -->
<g id="Node000006" class="node">
<title>Node6</title>
<g id="a_Node000006"><a xlink:href="_connection_graphics_item_8h.html" target="_top" xlink:title=" ">
<polygon fill="white" stroke="#666666" points="555.5,-138 423.25,-138 423.25,-118 555.5,-118 555.5,-138"/>
<text xml:space="preserve" text-anchor="middle" x="489.38" y="-124.5" font-family="Helvetica,sans-Serif" font-size="10.00">ConnectionGraphicsItem.h</text>
</a>
</g>
</g>
<!-- Node1&#45;&gt;Node6 -->
<g id="edge5_Node000001_Node000006" class="edge">
<title>Node1&#45;&gt;Node6</title>
<g id="a_edge5_Node000001_Node000006"><a xlink:title=" ">
<path fill="none" stroke="#63b8ff" d="M548.52,-179.69C536.62,-169.5 520.99,-156.1 508.79,-145.64"/>
<polygon fill="#63b8ff" stroke="#63b8ff" points="511.26,-143.15 501.39,-139.3 506.71,-148.47 511.26,-143.15"/>
</a>
</g>
</g>
<!-- Node15 -->
<g id="Node000015" class="node">
<title>Node15</title>
<g id="a_Node000015"><a xlink:title=" ">
<polygon fill="#e0e0e0" stroke="#999999" points="713.25,-144 573.5,-144 573.5,-112 713.25,-112 713.25,-144"/>
<text xml:space="preserve" text-anchor="start" x="581.5" y="-130.5" font-family="Helvetica,sans-Serif" font-size="10.00">QtWidgets/QGraphicsScene</text>
<text xml:space="preserve" text-anchor="middle" x="643.38" y="-118.5" font-family="Helvetica,sans-Serif" font-size="10.00">MouseEvent</text>
</a>
</g>
</g>
<!-- Node1&#45;&gt;Node15 -->
<g id="edge20_Node000001_Node000015" class="edge">
<title>Node1&#45;&gt;Node15</title>
<g id="a_edge20_Node000001_Node000015"><a xlink:title=" ">
<path fill="none" stroke="#63b8ff" d="M584.23,-179.69C593.88,-171.42 605.99,-161.05 616.73,-151.84"/>
<polygon fill="#63b8ff" stroke="#63b8ff" points="618.88,-154.6 624.2,-145.44 614.33,-149.29 618.88,-154.6"/>
</a>
</g>
</g>
<!-- Node16 -->
<g id="Node000016" class="node">
<title>Node16</title>
<g id="a_Node000016"><a xlink:title=" ">
<polygon fill="#e0e0e0" stroke="#999999" points="871.25,-138 731.5,-138 731.5,-118 871.25,-118 871.25,-138"/>
<text xml:space="preserve" text-anchor="middle" x="801.38" y="-124.5" font-family="Helvetica,sans-Serif" font-size="10.00">QtWidgets/QGraphicsScene</text>
</a>
</g>
</g>
<!-- Node1&#45;&gt;Node16 -->
<g id="edge21_Node000001_Node000016" class="edge">
<title>Node1&#45;&gt;Node16</title>
<g id="a_edge21_Node000001_Node000016"><a xlink:title=" ">
<path fill="none" stroke="#63b8ff" d="M621.47,-179.53C662.71,-167.94 718.4,-152.3 756.84,-141.51"/>
<polygon fill="#63b8ff" stroke="#63b8ff" points="757.55,-144.94 766.23,-138.87 755.66,-138.2 757.55,-144.94"/>
</a>
</g>
</g>
<!-- Node3 -->
<g id="Node000003" class="node">
<title>Node3</title>
<g id="a_Node000003"><a xlink:title=" ">
<polygon fill="#e0e0e0" stroke="#999999" points="160.75,-20 0,-20 0,0 160.75,0 160.75,-20"/>
<text xml:space="preserve" text-anchor="middle" x="80.38" y="-6.5" font-family="Helvetica,sans-Serif" font-size="10.00">QtWidgets/QGraphicsEllipseItem</text>
</a>
</g>
</g>
<!-- Node2&#45;&gt;Node3 -->
<g id="edge2_Node000002_Node000003" class="edge">
<title>Node2&#45;&gt;Node3</title>
<g id="a_edge2_Node000002_Node000003"><a xlink:title=" ">
<path fill="none" stroke="#63b8ff" d="M249.67,-55.59C215.78,-46.67 164.63,-33.19 127.43,-23.39"/>
<polygon fill="#63b8ff" stroke="#63b8ff" points="128.39,-20.03 117.83,-20.87 126.6,-26.8 128.39,-20.03"/>
</a>
</g>
</g>
<!-- Node4 -->
<g id="Node000004" class="node">
<title>Node4</title>
<g id="a_Node000004"><a xlink:title=" ">
<polygon fill="#e0e0e0" stroke="#999999" points="248,-20 178.75,-20 178.75,0 248,0 248,-20"/>
<text xml:space="preserve" text-anchor="middle" x="213.38" y="-6.5" font-family="Helvetica,sans-Serif" font-size="10.00">QtGui/QPen</text>
</a>
</g>
</g>
<!-- Node2&#45;&gt;Node4 -->
<g id="edge3_Node000002_Node000004" class="edge">
<title>Node2&#45;&gt;Node4</title>
<g id="a_edge3_Node000002_Node000004"><a xlink:title=" ">
<path fill="none" stroke="#63b8ff" d="M272.83,-55.59C262.41,-47.77 247.33,-36.46 234.96,-27.19"/>
<polygon fill="#63b8ff" stroke="#63b8ff" points="237.08,-24.41 226.98,-21.21 232.88,-30.01 237.08,-24.41"/>
</a>
</g>
</g>
<!-- Node5 -->
<g id="Node000005" class="node">
<title>Node5</title>
<g id="a_Node000005"><a xlink:title=" ">
<polygon fill="#e0e0e0" stroke="#999999" points="343.12,-20 265.62,-20 265.62,0 343.12,0 343.12,-20"/>
<text xml:space="preserve" text-anchor="middle" x="304.38" y="-6.5" font-family="Helvetica,sans-Serif" font-size="10.00">QtGui/QBrush</text>
</a>
</g>
</g>
<!-- Node2&#45;&gt;Node5 -->
<g id="edge4_Node000002_Node000005" class="edge">
<title>Node2&#45;&gt;Node5</title>
<g id="a_edge4_Node000002_Node000005"><a xlink:title=" ">
<path fill="none" stroke="#63b8ff" d="M288.68,-55.59C291.05,-48.86 294.34,-39.53 297.28,-31.15"/>
<polygon fill="#63b8ff" stroke="#63b8ff" points="300.58,-32.32 300.6,-21.73 293.98,-30 300.58,-32.32"/>
</a>
</g>
</g>
<!-- Node6&#45;&gt;Node2 -->
<g id="edge19_Node000006_Node000002" class="edge">
<title>Node6&#45;&gt;Node2</title>
<g id="a_edge19_Node000006_Node000002"><a xlink:title=" ">
<path fill="none" stroke="#63b8ff" d="M457.5,-117.62C422.72,-107.4 366.86,-90.97 328.25,-79.61"/>
<polygon fill="#63b8ff" stroke="#63b8ff" points="329.4,-76.3 318.81,-76.84 327.42,-83.01 329.4,-76.3"/>
</a>
</g>
</g>
<!-- Node7 -->
<g id="Node000007" class="node">
<title>Node7</title>
<g id="a_Node000007"><a xlink:title=" ">
<polygon fill="#e0e0e0" stroke="#999999" points="627.12,-76 495.62,-76 495.62,-56 627.12,-56 627.12,-76"/>
<text xml:space="preserve" text-anchor="middle" x="561.38" y="-62.5" font-family="Helvetica,sans-Serif" font-size="10.00">QtWidgets/QGraphicsItem</text>
</a>
</g>
</g>
<!-- Node6&#45;&gt;Node7 -->
<g id="edge6_Node000006_Node000007" class="edge">
<title>Node6&#45;&gt;Node7</title>
<g id="a_edge6_Node000006_Node000007"><a xlink:title=" ">
<path fill="none" stroke="#63b8ff" d="M500.62,-117.62C511.57,-108.5 528.44,-94.45 541.63,-83.46"/>
<polygon fill="#63b8ff" stroke="#63b8ff" points="543.84,-86.17 549.28,-77.08 539.35,-80.79 543.84,-86.17"/>
</a>
</g>
</g>
<!-- Node8 -->
<g id="Node000008" class="node">
<title>Node8</title>
<g id="a_Node000008"><a xlink:title=" ">
<polygon fill="#e0e0e0" stroke="#999999" points="842.62,-20 756.12,-20 756.12,0 842.62,0 842.62,-20"/>
<text xml:space="preserve" text-anchor="middle" x="799.38" y="-6.5" font-family="Helvetica,sans-Serif" font-size="10.00">QtCore/QObject</text>
</a>
</g>
</g>
<!-- Node6&#45;&gt;Node8 -->
<g id="edge7_Node000006_Node000008" class="edge">
<title>Node6&#45;&gt;Node8</title>
<g id="a_edge7_Node000006_Node000008"><a xlink:title=" ">
<path fill="none" stroke="#63b8ff" d="M535.34,-117.56C544.92,-115.66 554.97,-113.72 564.38,-112 660.1,-94.45 707.58,-140.6 780.38,-76 792.89,-64.89 797.36,-46.05 798.87,-31.5"/>
<polygon fill="#63b8ff" stroke="#63b8ff" points="802.35,-31.83 799.46,-21.64 795.37,-31.41 802.35,-31.83"/>
</a>
</g>
</g>
<!-- Node9 -->
<g id="Node000009" class="node">
<title>Node9</title>
<g id="a_Node000009"><a xlink:href="_connection_line_8h.html" target="_top" xlink:title=" ">
<polygon fill="white" stroke="#666666" points="477.88,-76 356.88,-76 356.88,-56 477.88,-56 477.88,-76"/>
<text xml:space="preserve" text-anchor="middle" x="417.38" y="-62.5" font-family="Helvetica,sans-Serif" font-size="10.00">model/ConnectionLine.h</text>
</a>
</g>
</g>
<!-- Node6&#45;&gt;Node9 -->
<g id="edge8_Node000006_Node000009" class="edge">
<title>Node6&#45;&gt;Node9</title>
<g id="a_edge8_Node000006_Node000009"><a xlink:title=" ">
<path fill="none" stroke="#63b8ff" d="M478.12,-117.62C467.18,-108.5 450.31,-94.45 437.12,-83.46"/>
<polygon fill="#63b8ff" stroke="#63b8ff" points="439.4,-80.79 429.47,-77.08 434.91,-86.17 439.4,-80.79"/>
</a>
</g>
</g>
<!-- Node14 -->
<g id="Node000014" class="node">
<title>Node14</title>
<g id="a_Node000014"><a xlink:href="_connection_point_8h.html" target="_top" xlink:title=" ">
<polygon fill="white" stroke="#666666" points="771.12,-76 645.62,-76 645.62,-56 771.12,-56 771.12,-76"/>
<text xml:space="preserve" text-anchor="middle" x="708.38" y="-62.5" font-family="Helvetica,sans-Serif" font-size="10.00">model/ConnectionPoint.h</text>
</a>
</g>
</g>
<!-- Node6&#45;&gt;Node14 -->
<g id="edge14_Node000006_Node000014" class="edge">
<title>Node6&#45;&gt;Node14</title>
<g id="a_edge14_Node000006_Node000014"><a xlink:title=" ">
<path fill="none" stroke="#63b8ff" d="M523.59,-117.62C561.17,-107.33 621.67,-90.75 663.14,-79.39"/>
<polygon fill="#63b8ff" stroke="#63b8ff" points="663.86,-82.83 672.58,-76.81 662.01,-76.07 663.86,-82.83"/>
</a>
</g>
</g>
<!-- Node9&#45;&gt;Node8 -->
<g id="edge9_Node000009_Node000008" class="edge">
<title>Node9&#45;&gt;Node8</title>
<g id="a_edge9_Node000009_Node000008"><a xlink:title=" ">
<path fill="none" stroke="#63b8ff" d="M478.15,-56.98C554.07,-46.91 680.89,-29.95 744.57,-20.37"/>
<polygon fill="#63b8ff" stroke="#63b8ff" points="744.85,-23.87 754.2,-18.9 743.79,-16.95 744.85,-23.87"/>
</a>
</g>
</g>
<!-- Node10 -->
<g id="Node000010" class="node">
<title>Node10</title>
<g id="a_Node000010"><a xlink:title=" ">
<polygon fill="#e0e0e0" stroke="#999999" points="636.62,-20 550.12,-20 550.12,0 636.62,0 636.62,-20"/>
<text xml:space="preserve" text-anchor="middle" x="593.38" y="-6.5" font-family="Helvetica,sans-Serif" font-size="10.00">QtCore/QPointF</text>
</a>
</g>
</g>
<!-- Node9&#45;&gt;Node10 -->
<g id="edge10_Node000009_Node000010" class="edge">
<title>Node9&#45;&gt;Node10</title>
<g id="a_edge10_Node000009_Node000010"><a xlink:title=" ">
<path fill="none" stroke="#63b8ff" d="M448.03,-55.59C476.75,-46.78 519.91,-33.54 551.74,-23.78"/>
<polygon fill="#63b8ff" stroke="#63b8ff" points="552.5,-27.2 561.03,-20.92 550.45,-20.51 552.5,-27.2"/>
</a>
</g>
</g>
<!-- Node11 -->
<g id="Node000011" class="node">
<title>Node11</title>
<g id="a_Node000011"><a xlink:title=" ">
<polygon fill="#e0e0e0" stroke="#999999" points="738.12,-20 654.62,-20 654.62,0 738.12,0 738.12,-20"/>
<text xml:space="preserve" text-anchor="middle" x="696.38" y="-6.5" font-family="Helvetica,sans-Serif" font-size="10.00">QtCore/QString</text>
</a>
</g>
</g>
<!-- Node9&#45;&gt;Node11 -->
<g id="edge11_Node000009_Node000011" class="edge">
<title>Node9&#45;&gt;Node11</title>
<g id="a_edge11_Node000009_Node000011"><a xlink:title=" ">
<path fill="none" stroke="#63b8ff" d="M466.29,-55.53C515.84,-45.94 592.24,-31.16 643.24,-21.28"/>
<polygon fill="#63b8ff" stroke="#63b8ff" points="643.72,-24.76 652.87,-19.42 642.39,-17.88 643.72,-24.76"/>
</a>
</g>
</g>
<!-- Node12 -->
<g id="Node000012" class="node">
<title>Node12</title>
<g id="a_Node000012"><a xlink:title=" ">
<polygon fill="#e0e0e0" stroke="#999999" points="532.5,-20 454.25,-20 454.25,0 532.5,0 532.5,-20"/>
<text xml:space="preserve" text-anchor="middle" x="493.38" y="-6.5" font-family="Helvetica,sans-Serif" font-size="10.00">QtCore/QUuid</text>
</a>
</g>
</g>
<!-- Node9&#45;&gt;Node12 -->
<g id="edge12_Node000009_Node000012" class="edge">
<title>Node9&#45;&gt;Node12</title>
<g id="a_edge12_Node000009_Node000012"><a xlink:title=" ">
<path fill="none" stroke="#63b8ff" d="M430.61,-55.59C441.66,-47.74 457.66,-36.38 470.73,-27.09"/>
<polygon fill="#63b8ff" stroke="#63b8ff" points="472.68,-30 478.8,-21.36 468.62,-24.3 472.68,-30"/>
</a>
</g>
</g>
<!-- Node13 -->
<g id="Node000013" class="node">
<title>Node13</title>
<g id="a_Node000013"><a xlink:title=" ">
<polygon fill="#e0e0e0" stroke="#999999" points="436,-20 360.75,-20 360.75,0 436,0 436,-20"/>
<text xml:space="preserve" text-anchor="middle" x="398.38" y="-6.5" font-family="Helvetica,sans-Serif" font-size="10.00">QtGui/QColor</text>
</a>
</g>
</g>
<!-- Node9&#45;&gt;Node13 -->
<g id="edge13_Node000009_Node000013" class="edge">
<title>Node9&#45;&gt;Node13</title>
<g id="a_edge13_Node000009_Node000013"><a xlink:title=" ">
<path fill="none" stroke="#63b8ff" d="M414.07,-55.59C411.7,-48.86 408.41,-39.53 405.47,-31.15"/>
<polygon fill="#63b8ff" stroke="#63b8ff" points="408.77,-30 402.15,-21.73 402.17,-32.32 408.77,-30"/>
</a>
</g>
</g>
<!-- Node14&#45;&gt;Node8 -->
<g id="edge15_Node000014_Node000008" class="edge">
<title>Node14&#45;&gt;Node8</title>
<g id="a_edge15_Node000014_Node000008"><a xlink:title=" ">
<path fill="none" stroke="#63b8ff" d="M724.23,-55.59C737.84,-47.51 757.74,-35.71 773.64,-26.27"/>
<polygon fill="#63b8ff" stroke="#63b8ff" points="775.28,-29.37 782.1,-21.25 771.71,-23.35 775.28,-29.37"/>
</a>
</g>
</g>
<!-- Node14&#45;&gt;Node10 -->
<g id="edge16_Node000014_Node000010" class="edge">
<title>Node14&#45;&gt;Node10</title>
<g id="a_edge16_Node000014_Node000010"><a xlink:title=" ">
<path fill="none" stroke="#63b8ff" d="M688.34,-55.59C670.56,-47.24 644.31,-34.92 623.91,-25.34"/>
<polygon fill="#63b8ff" stroke="#63b8ff" points="625.47,-22.21 614.93,-21.12 622.5,-28.54 625.47,-22.21"/>
</a>
</g>
</g>
<!-- Node14&#45;&gt;Node11 -->
<g id="edge17_Node000014_Node000011" class="edge">
<title>Node14&#45;&gt;Node11</title>
<g id="a_edge17_Node000014_Node000011"><a xlink:title=" ">
<path fill="none" stroke="#63b8ff" d="M706.28,-55.59C704.8,-48.93 702.76,-39.75 700.92,-31.44"/>
<polygon fill="#63b8ff" stroke="#63b8ff" points="704.36,-30.78 698.77,-21.78 697.52,-32.3 704.36,-30.78"/>
</a>
</g>
</g>
<!-- Node14&#45;&gt;Node12 -->
<g id="edge18_Node000014_Node000012" class="edge">
<title>Node14&#45;&gt;Node12</title>
<g id="a_edge18_Node000014_Node000012"><a xlink:title=" ">
<path fill="none" stroke="#63b8ff" d="M670.92,-55.59C635.23,-46.63 581.28,-33.08 542.22,-23.27"/>
<polygon fill="#63b8ff" stroke="#63b8ff" points="543.14,-19.89 532.59,-20.85 541.43,-26.68 543.14,-19.89"/>
</a>
</g>
</g>
</g>
</svg>
