<?xml version="1.0" encoding="UTF-8" standalone="no"?>
<!DOCTYPE svg PUBLIC "-//W3C//DTD SVG 1.1//EN"
 "http://www.w3.org/Graphics/SVG/1.1/DTD/svg11.dtd">
<!-- Generated by graphviz version 14.1.1 (20251213.1925)
 -->
<!-- Title: src/viewer/BezierControlPoint.h Pages: 1 -->
<svg width="351pt" height="96pt"
 viewBox="0.00 0.00 351.00 96.00" xmlns="http://www.w3.org/2000/svg" xmlns:xlink="http://www.w3.org/1999/xlink">

<svg id="main" version="1.1" xmlns="http://www.w3.org/2000/svg" xmlns:xlink="http://www.w3.org/1999/xlink" xml:space="preserve">

<style type="text/css"><![CDATA[
.node, .edge {opacity: 0.7;}
.node.selected, .edge.selected {opacity: 1;}
.edge:hover path { stroke: red; }
.edge:hover polygon { stroke: red; fill: red; }
]]></style>
<script type="application/ecmascript" xlink:href="svg.min.js"/>
<svg id="graph" class="graph">
<g id="graph0" class="graph" transform="scale(1 1) rotate(0) translate(4 92)">
<title>src/viewer/BezierControlPoint.h</title>
<!-- Node1 -->
<g id="Node000001" class="node">
<title>Node1</title>
<g id="a_Node000001"><a xlink:title=" ">
<polygon fill="#999999" stroke="#666666" points="275,-88 151.75,-88 151.75,-56 275,-56 275,-88"/>
<text xml:space="preserve" text-anchor="start" x="159.75" y="-74.5" font-family="Helvetica,sans-Serif" font-size="10.00">src/viewer/BezierControl</text>
<text xml:space="preserve" text-anchor="middle" x="213.38" y="-62.5" font-family="Helvetica,sans-Serif" font-size="10.00">Point.h</text>
</a>
</g>
</g>
<!-- Node2 -->
<g id="Node000002" class="node">
<title>Node2</title>
<g id="a_Node000002"><a xlink:title=" ">
<polygon fill="#e0e0e0" stroke="#999999" points="160.75,-20 0,-20 0,0 160.75,0 160.75,-20"/>
<text xml:space="preserve" text-anchor="middle" x="80.38" y="-6.5" font-family="Helvetica,sans-Serif" font-size="10.00">QtWidgets/QGraphicsEllipseItem</text>
</a>
</g>
</g>
<!-- Node1&#45;&gt;Node2 -->
<g id="edge1_Node000001_Node000002" class="edge">
<title>Node1&#45;&gt;Node2</title>
<g id="a_edge1_Node000001_Node000002"><a xlink:title=" ">
<path fill="none" stroke="#63b8ff" d="M179.12,-55.55C158.25,-46.13 131.77,-34.19 111.49,-25.04"/>
<polygon fill="#63b8ff" stroke="#63b8ff" points="113.16,-21.95 102.61,-21.03 110.29,-28.33 113.16,-21.95"/>
</a>
</g>
</g>
<!-- Node3 -->
<g id="Node000003" class="node">
<title>Node3</title>
<g id="a_Node000003"><a xlink:title=" ">
<polygon fill="#e0e0e0" stroke="#999999" points="248,-20 178.75,-20 178.75,0 248,0 248,-20"/>
<text xml:space="preserve" text-anchor="middle" x="213.38" y="-6.5" font-family="Helvetica,sans-Serif" font-size="10.00">QtGui/QPen</text>
</a>
</g>
</g>
<!-- Node1&#45;&gt;Node3 -->
<g id="edge2_Node000001_Node000003" class="edge">
<title>Node1&#45;&gt;Node3</title>
<g id="a_edge2_Node000001_Node000003"><a xlink:title=" ">
<path fill="none" stroke="#63b8ff" d="M213.38,-55.55C213.38,-48.34 213.38,-39.66 213.38,-31.88"/>
<polygon fill="#63b8ff" stroke="#63b8ff" points="216.88,-31.92 213.38,-21.92 209.88,-31.92 216.88,-31.92"/>
</a>
</g>
</g>
<!-- Node4 -->
<g id="Node000004" class="node">
<title>Node4</title>
<g id="a_Node000004"><a xlink:title=" ">
<polygon fill="#e0e0e0" stroke="#999999" points="343.12,-20 265.62,-20 265.62,0 343.12,0 343.12,-20"/>
<text xml:space="preserve" text-anchor="middle" x="304.38" y="-6.5" font-family="Helvetica,sans-Serif" font-size="10.00">QtGui/QBrush</text>
</a>
</g>
</g>
<!-- Node1&#45;&gt;Node4 -->
<g id="edge3_Node000001_Node000004" class="edge">
<title>Node1&#45;&gt;Node4</title>
<g id="a_edge3_Node000001_Node000004"><a xlink:title=" ">
<path fill="none" stroke="#63b8ff" d="M236.81,-55.55C250.24,-46.69 267.05,-35.61 280.54,-26.71"/>
<polygon fill="#63b8ff" stroke="#63b8ff" points="282.42,-29.67 288.84,-21.24 278.57,-23.82 282.42,-29.67"/>
</a>
</g>
</g>
</g>
</svg>
</svg>

<style type='text/css'>
<![CDATA[
[data-mouse-over-selected='false'] { opacity: 0.7; }
[data-mouse-over-selected='true']  { opacity: 1.0; }
]]>
</style>
<script type="application/ecmascript"><![CDATA[
document.addEventListener('DOMContentLoaded', (event) => {
  highlightEdges();
  highlightAdjacentNodes();
});
]]></script>
</svg>
