<?xml version="1.0" encoding="UTF-8" standalone="no"?>
<!DOCTYPE svg PUBLIC "-//W3C//DTD SVG 1.1//EN"
 "http://www.w3.org/Graphics/SVG/1.1/DTD/svg11.dtd">
<!-- Generated by graphviz version 14.1.1 (20251213.1925)
 -->
<!-- Title: src/model/ConnectionLine.h Pages: 1 -->
<!--zoomable 232 -->

<svg id="main" version="1.1" xmlns="http://www.w3.org/2000/svg" xmlns:xlink="http://www.w3.org/1999/xlink" xml:space="preserve" onload="init(evt)">

<style type="text/css"><![CDATA[
.node, .edge {opacity: 0.7;}
.node.selected, .edge.selected {opacity: 1;}
.edge:hover path { stroke: red; }
.edge:hover polygon { stroke: red; fill: red; }
]]></style>

<defs>
  <circle id="rim" cx="0" cy="0" r="7"/>
  <circle id="rim2" cx="0" cy="0" r="3.5"/>
  <g id="zoomPlus">
    <use xlink:href="#rim" fill="#404040"><set attributeName="fill" to="#808080" begin="zoomplus.mouseover" end="zoomplus.mouseout"/></use>
    <path d="M-4,0h8M0,-4v8" fill="none" stroke="white" stroke-width="1.5" pointer-events="none"/>
  </g>
  <g id="zoomMin">
    <use xlink:href="#rim" fill="#404040"><set attributeName="fill" to="#808080" begin="zoomminus.mouseover" end="zoomminus.mouseout"/></use>
    <path d="M-4,0h8" fill="none" stroke="white" stroke-width="1.5" pointer-events="none"/>
  </g>
  <g id="arrowUp" transform="translate(30 24)">
    <use xlink:href="#rim"/>
    <path pointer-events="none" fill="none" stroke="white" stroke-width="1.5" d="M0,-3.0v7 M-2.5,-0.5L0,-3.0L2.5,-0.5"/>
  </g>
  <g id="arrowRight" transform="rotate(90) translate(36 -43)">
    <use xlink:href="#rim"/>
    <path pointer-events="none" fill="none" stroke="white" stroke-width="1.5" d="M0,-3.0v7 M-2.5,-0.5L0,-3.0L2.5,-0.5"/>
  </g>
  <g id="arrowDown" transform="rotate(180) translate(-30 -48)">
    <use xlink:href="#rim"/>
    <path pointer-events="none" fill="none" stroke="white" stroke-width="1.5" d="M0,-3.0v7 M-2.5,-0.5L0,-3.0L2.5,-0.5"/>
  </g>
  <g id="arrowLeft" transform="rotate(270) translate(-36 17)">
    <use xlink:href="#rim"/>
    <path pointer-events="none" fill="none" stroke="white" stroke-width="1.5" d="M0,-3.0v7 M-2.5,-0.5L0,-3.0L2.5,-0.5"/>
  </g>
  <g id="resetDef">
    <use xlink:href="#rim2" fill="#404040"><set attributeName="fill" to="#808080" begin="reset.mouseover" end="reset.mouseout"/></use>
  </g>
</defs>
<script type="application/ecmascript">
var viewWidth = 2149;
var viewHeight = 232;
var sectionId = 'dynsection-1';
</script>
<script type="application/ecmascript" xlink:href="svg.min.js"/>
<svg id="graph" class="graph">
<g id="viewport">
<title>src/model/ConnectionLine.h</title>
<!-- Node1 -->
<g id="Node000001" class="node">
<title>Node1</title>
<g id="a_Node000001"><a xlink:title=" ">
<polygon fill="#999999" stroke="#666666" points="798.12,-224 660.62,-224 660.62,-204 798.12,-204 798.12,-224"/>
<text xml:space="preserve" text-anchor="middle" x="729.38" y="-210.5" font-family="Helvetica,sans-Serif" font-size="10.00">src/model/ConnectionLine.h</text>
</a>
</g>
</g>
<!-- Node2 -->
<g id="Node000002" class="node">
<title>Node2</title>
<g id="a_Node000002"><a xlink:href="_auto_save_manager_8h.html" target="_top" xlink:title=" ">
<polygon fill="white" stroke="#666666" points="289.5,-162 139.25,-162 139.25,-142 289.5,-142 289.5,-162"/>
<text xml:space="preserve" text-anchor="middle" x="214.38" y="-148.5" font-family="Helvetica,sans-Serif" font-size="10.00">src/model/AutoSaveManager.h</text>
</a>
</g>
</g>
<!-- Node1&#45;&gt;Node2 -->
<g id="edge1_Node000001_Node000002" class="edge">
<title>Node1&#45;&gt;Node2</title>
<g id="a_edge1_Node000001_Node000002"><a xlink:title=" ">
<path fill="none" stroke="#63b8ff" d="M649.01,-206C563.23,-198.18 423.43,-184.44 303.38,-168 291.58,-166.38 278.94,-164.41 267,-162.42"/>
<polygon fill="#63b8ff" stroke="#63b8ff" points="648.45,-209.46 658.72,-206.88 649.08,-202.49 648.45,-209.46"/>
</a>
</g>
</g>
<!-- Node4 -->
<g id="Node000004" class="node">
<title>Node4</title>
<g id="a_Node000004"><a xlink:href="_main_window_8h.html" target="_top" xlink:title=" ">
<polygon fill="white" stroke="#666666" points="298.12,-94 178.62,-94 178.62,-74 298.12,-74 298.12,-94"/>
<text xml:space="preserve" text-anchor="middle" x="238.38" y="-80.5" font-family="Helvetica,sans-Serif" font-size="10.00">src/view/MainWindow.h</text>
</a>
</g>
</g>
<!-- Node1&#45;&gt;Node4 -->
<g id="edge32_Node000001_Node000004" class="edge">
<title>Node1&#45;&gt;Node4</title>
<g id="a_edge32_Node000001_Node000004"><a xlink:title=" ">
<path fill="none" stroke="#63b8ff" d="M649.07,-209.22C551.07,-203.68 391.71,-191.36 337.38,-168 334.77,-166.88 274.64,-115.85 249.38,-94.37"/>
<polygon fill="#63b8ff" stroke="#63b8ff" points="648.72,-212.71 658.9,-209.77 649.11,-205.72 648.72,-212.71"/>
</a>
</g>
</g>
<!-- Node8 -->
<g id="Node000008" class="node">
<title>Node8</title>
<g id="a_Node000008"><a xlink:href="_connection_line_8cpp.html" target="_top" xlink:title=" ">
<polygon fill="white" stroke="#666666" points="626.38,-94 478.38,-94 478.38,-74 626.38,-74 626.38,-94"/>
<text xml:space="preserve" text-anchor="middle" x="552.38" y="-80.5" font-family="Helvetica,sans-Serif" font-size="10.00">src/model/ConnectionLine.cpp</text>
</a>
</g>
</g>
<!-- Node1&#45;&gt;Node8 -->
<g id="edge7_Node000001_Node000008" class="edge">
<title>Node1&#45;&gt;Node8</title>
<g id="a_edge7_Node000001_Node000008"><a xlink:title=" ">
<path fill="none" stroke="#63b8ff" d="M707.3,-197.03C669.96,-170.03 595.48,-116.17 565.41,-94.43"/>
<polygon fill="#63b8ff" stroke="#63b8ff" points="704.98,-199.68 715.13,-202.7 709.08,-194 704.98,-199.68"/>
</a>
</g>
</g>
<!-- Node9 -->
<g id="Node000009" class="node">
<title>Node9</title>
<g id="a_Node000009"><a xlink:href="_diagram_file_manager_8cpp.html" target="_top" xlink:title=" ">
<polygon fill="white" stroke="#666666" points="814.62,-94 644.12,-94 644.12,-74 814.62,-74 814.62,-94"/>
<text xml:space="preserve" text-anchor="middle" x="729.38" y="-80.5" font-family="Helvetica,sans-Serif" font-size="10.00">src/model/DiagramFileManager.cpp</text>
</a>
</g>
</g>
<!-- Node1&#45;&gt;Node9 -->
<g id="edge8_Node000001_Node000009" class="edge">
<title>Node1&#45;&gt;Node9</title>
<g id="a_edge8_Node000001_Node000009"><a xlink:title=" ">
<path fill="none" stroke="#63b8ff" d="M729.38,-192.57C729.38,-164.49 729.38,-115.09 729.38,-94.47"/>
<polygon fill="#63b8ff" stroke="#63b8ff" points="725.88,-192.28 729.38,-202.28 732.88,-192.28 725.88,-192.28"/>
</a>
</g>
</g>
<!-- Node10 -->
<g id="Node000010" class="node">
<title>Node10</title>
<g id="a_Node000010"><a xlink:href="_diagram_serializer_8cpp.html" target="_top" xlink:title=" ">
<polygon fill="white" stroke="#666666" points="1328.25,-94 1170.5,-94 1170.5,-74 1328.25,-74 1328.25,-94"/>
<text xml:space="preserve" text-anchor="middle" x="1249.38" y="-80.5" font-family="Helvetica,sans-Serif" font-size="10.00">src/model/DiagramSerializer.cpp</text>
</a>
</g>
</g>
<!-- Node1&#45;&gt;Node10 -->
<g id="edge9_Node000001_Node000010" class="edge">
<title>Node1&#45;&gt;Node10</title>
<g id="a_edge9_Node000001_Node000010"><a xlink:title=" ">
<path fill="none" stroke="#63b8ff" d="M785.32,-201.2C826.16,-192.43 882.82,-179.97 932.38,-168 1035.78,-143.01 1157.26,-110.24 1215.24,-94.39"/>
<polygon fill="#63b8ff" stroke="#63b8ff" points="784.77,-197.73 775.72,-203.25 786.23,-204.58 784.77,-197.73"/>
</a>
</g>
</g>
<!-- Node11 -->
<g id="Node000011" class="node">
<title>Node11</title>
<g id="a_Node000011"><a xlink:href="_relationship_connection_line_8h.html" target="_top" xlink:title=" ">
<polygon fill="white" stroke="#666666" points="1439,-168 1273.75,-168 1273.75,-136 1439,-136 1439,-168"/>
<text xml:space="preserve" text-anchor="start" x="1281.75" y="-154.5" font-family="Helvetica,sans-Serif" font-size="10.00">src/model/RelationshipConnection</text>
<text xml:space="preserve" text-anchor="middle" x="1356.38" y="-142.5" font-family="Helvetica,sans-Serif" font-size="10.00">Line.h</text>
</a>
</g>
</g>
<!-- Node1&#45;&gt;Node11 -->
<g id="edge10_Node000001_Node000011" class="edge">
<title>Node1&#45;&gt;Node11</title>
<g id="a_edge10_Node000001_Node000011"><a xlink:title=" ">
<path fill="none" stroke="#63b8ff" d="M809.8,-205.3C929.24,-193.87 1152.38,-172.52 1273.33,-160.95"/>
<polygon fill="#63b8ff" stroke="#63b8ff" points="809.7,-201.8 800.08,-206.23 810.36,-208.77 809.7,-201.8"/>
</a>
</g>
</g>
<!-- Node15 -->
<g id="Node000015" class="node">
<title>Node15</title>
<g id="a_Node000015"><a xlink:href="_connection_graphics_item_8h.html" target="_top" xlink:title=" ">
<polygon fill="white" stroke="#666666" points="1850.5,-168 1706.25,-168 1706.25,-136 1850.5,-136 1850.5,-168"/>
<text xml:space="preserve" text-anchor="start" x="1714.25" y="-154.5" font-family="Helvetica,sans-Serif" font-size="10.00">src/view/ConnectionGraphics</text>
<text xml:space="preserve" text-anchor="middle" x="1778.38" y="-142.5" font-family="Helvetica,sans-Serif" font-size="10.00">Item.h</text>
</a>
</g>
</g>
<!-- Node1&#45;&gt;Node15 -->
<g id="edge15_Node000001_Node000015" class="edge">
<title>Node1&#45;&gt;Node15</title>
<g id="a_edge15_Node000001_Node000015"><a xlink:title=" ">
<path fill="none" stroke="#63b8ff" d="M810.08,-208.38C1008.29,-197.05 1516.62,-167.97 1705.91,-157.14"/>
<polygon fill="#63b8ff" stroke="#63b8ff" points="809.9,-204.89 800.12,-208.95 810.3,-211.88 809.9,-204.89"/>
</a>
</g>
</g>
<!-- Node19 -->
<g id="Node000019" class="node">
<title>Node19</title>
<g id="a_Node000019"><a xlink:href="_diagram_scene_8h.html" target="_top" xlink:title=" ">
<polygon fill="white" stroke="#666666" points="923.62,-162 795.12,-162 795.12,-142 923.62,-142 923.62,-162"/>
<text xml:space="preserve" text-anchor="middle" x="859.38" y="-148.5" font-family="Helvetica,sans-Serif" font-size="10.00">src/view/DiagramScene.h</text>
</a>
</g>
</g>
<!-- Node1&#45;&gt;Node19 -->
<g id="edge22_Node000001_Node000019" class="edge">
<title>Node1&#45;&gt;Node19</title>
<g id="a_edge22_Node000001_Node000019"><a xlink:title=" ">
<path fill="none" stroke="#63b8ff" d="M759.88,-198.92C784.34,-187.63 817.99,-172.1 839.21,-162.31"/>
<polygon fill="#63b8ff" stroke="#63b8ff" points="758.67,-195.62 751.06,-202.99 761.61,-201.98 758.67,-195.62"/>
</a>
</g>
</g>
<!-- Node23 -->
<g id="Node000023" class="node">
<title>Node23</title>
<g id="a_Node000023"><a xlink:href="_properties_panel_8h.html" target="_top" xlink:title=" ">
<polygon fill="white" stroke="#666666" points="478.88,-162 345.88,-162 345.88,-142 478.88,-142 478.88,-162"/>
<text xml:space="preserve" text-anchor="middle" x="412.38" y="-148.5" font-family="Helvetica,sans-Serif" font-size="10.00">src/view/PropertiesPanel.h</text>
</a>
</g>
</g>
<!-- Node1&#45;&gt;Node23 -->
<g id="edge33_Node000001_Node000023" class="edge">
<title>Node1&#45;&gt;Node23</title>
<g id="a_edge33_Node000001_Node000023"><a xlink:title=" ">
<path fill="none" stroke="#63b8ff" d="M668.31,-201.44C608.45,-190.11 518.28,-173.04 462.49,-162.48"/>
<polygon fill="#63b8ff" stroke="#63b8ff" points="667.53,-204.86 678.01,-203.28 668.83,-197.98 667.53,-204.86"/>
</a>
</g>
</g>
<!-- Node3 -->
<g id="Node000003" class="node">
<title>Node3</title>
<g id="a_Node000003"><a xlink:href="_auto_save_manager_8cpp.html" target="_top" xlink:title=" ">
<polygon fill="white" stroke="#666666" points="160.75,-94 0,-94 0,-74 160.75,-74 160.75,-94"/>
<text xml:space="preserve" text-anchor="middle" x="80.38" y="-80.5" font-family="Helvetica,sans-Serif" font-size="10.00">src/model/AutoSaveManager.cpp</text>
</a>
</g>
</g>
<!-- Node2&#45;&gt;Node3 -->
<g id="edge2_Node000002_Node000003" class="edge">
<title>Node2&#45;&gt;Node3</title>
<g id="a_edge2_Node000002_Node000003"><a xlink:title=" ">
<path fill="none" stroke="#63b8ff" d="M185.14,-136.6C159.16,-123.8 121.91,-105.46 99.54,-94.44"/>
<polygon fill="#63b8ff" stroke="#63b8ff" points="183.3,-139.6 193.82,-140.88 186.39,-133.32 183.3,-139.6"/>
</a>
</g>
</g>
<!-- Node2&#45;&gt;Node4 -->
<g id="edge3_Node000002_Node000004" class="edge">
<title>Node2&#45;&gt;Node4</title>
<g id="a_edge3_Node000002_Node000004"><a xlink:title=" ">
<path fill="none" stroke="#63b8ff" d="M221.64,-131.03C226.05,-118.89 231.49,-103.94 234.94,-94.44"/>
<polygon fill="#63b8ff" stroke="#63b8ff" points="218.46,-129.53 218.33,-140.12 225.04,-131.92 218.46,-129.53"/>
</a>
</g>
</g>
<!-- Node5 -->
<g id="Node000005" class="node">
<title>Node5</title>
<g id="a_Node000005"><a xlink:href="main_8cpp.html" target="_top" xlink:title=" ">
<polygon fill="white" stroke="#666666" points="408.5,-26 336.25,-26 336.25,-6 408.5,-6 408.5,-26"/>
<text xml:space="preserve" text-anchor="middle" x="372.38" y="-12.5" font-family="Helvetica,sans-Serif" font-size="10.00">src/main.cpp</text>
</a>
</g>
</g>
<!-- Node4&#45;&gt;Node5 -->
<g id="edge4_Node000004_Node000005" class="edge">
<title>Node4&#45;&gt;Node5</title>
<g id="a_edge4_Node000004_Node000005"><a xlink:title=" ">
<path fill="none" stroke="#63b8ff" d="M267.61,-68.6C293.59,-55.8 330.84,-37.46 353.21,-26.44"/>
<polygon fill="#63b8ff" stroke="#63b8ff" points="266.36,-65.32 258.93,-72.88 269.45,-71.6 266.36,-65.32"/>
</a>
</g>
</g>
<!-- Node6 -->
<g id="Node000006" class="node">
<title>Node6</title>
<g id="a_Node000006"><a xlink:href="_main_window_8cpp.html" target="_top" xlink:title=" ">
<polygon fill="white" stroke="#666666" points="140.38,-26 10.38,-26 10.38,-6 140.38,-6 140.38,-26"/>
<text xml:space="preserve" text-anchor="middle" x="75.38" y="-12.5" font-family="Helvetica,sans-Serif" font-size="10.00">src/view/MainWindow.cpp</text>
</a>
</g>
</g>
<!-- Node4&#45;&gt;Node6 -->
<g id="edge5_Node000004_Node000006" class="edge">
<title>Node4&#45;&gt;Node6</title>
<g id="a_edge5_Node000004_Node000006"><a xlink:title=" ">
<path fill="none" stroke="#63b8ff" d="M204.49,-69.28C172.82,-56.46 126.38,-37.65 98.69,-26.44"/>
<polygon fill="#63b8ff" stroke="#63b8ff" points="203.04,-72.47 213.62,-72.98 205.66,-65.98 203.04,-72.47"/>
</a>
</g>
</g>
<!-- Node7 -->
<g id="Node000007" class="node">
<title>Node7</title>
<g id="a_Node000007"><a xlink:href="_quick_acess_toolbar_8cpp.html" target="_top" xlink:title=" ">
<polygon fill="white" stroke="#666666" points="318,-26 158.75,-26 158.75,-6 318,-6 318,-26"/>
<text xml:space="preserve" text-anchor="middle" x="238.38" y="-12.5" font-family="Helvetica,sans-Serif" font-size="10.00">src/view/QuickAcessToolbar.cpp</text>
</a>
</g>
</g>
<!-- Node4&#45;&gt;Node7 -->
<g id="edge6_Node000004_Node000007" class="edge">
<title>Node4&#45;&gt;Node7</title>
<g id="a_edge6_Node000004_Node000007"><a xlink:title=" ">
<path fill="none" stroke="#63b8ff" d="M238.38,-62.28C238.38,-50.27 238.38,-35.74 238.38,-26.44"/>
<polygon fill="#63b8ff" stroke="#63b8ff" points="234.88,-62.03 238.38,-72.03 241.88,-62.03 234.88,-62.03"/>
</a>
</g>
</g>
<!-- Node11&#45;&gt;Node10 -->
<g id="edge11_Node000011_Node000010" class="edge">
<title>Node11&#45;&gt;Node10</title>
<g id="a_edge11_Node000011_Node000010"><a xlink:title=" ">
<path fill="none" stroke="#63b8ff" d="M1321.64,-129.57C1302.42,-117.72 1279.51,-103.59 1264.71,-94.46"/>
<polygon fill="#63b8ff" stroke="#63b8ff" points="1319.65,-132.46 1330,-134.73 1323.33,-126.5 1319.65,-132.46"/>
</a>
</g>
</g>
<!-- Node12 -->
<g id="Node000012" class="node">
<title>Node12</title>
<g id="a_Node000012"><a xlink:href="_relationship_connection_line_8cpp.html" target="_top" xlink:title=" ">
<polygon fill="white" stroke="#666666" points="1712,-100 1546.75,-100 1546.75,-68 1712,-68 1712,-100"/>
<text xml:space="preserve" text-anchor="start" x="1554.75" y="-86.5" font-family="Helvetica,sans-Serif" font-size="10.00">src/model/RelationshipConnection</text>
<text xml:space="preserve" text-anchor="middle" x="1629.38" y="-74.5" font-family="Helvetica,sans-Serif" font-size="10.00">Line.cpp</text>
</a>
</g>
</g>
<!-- Node11&#45;&gt;Node12 -->
<g id="edge12_Node000011_Node000012" class="edge">
<title>Node11&#45;&gt;Node12</title>
<g id="a_edge12_Node000011_Node000012"><a xlink:title=" ">
<path fill="none" stroke="#63b8ff" d="M1431.39,-132.86C1473.39,-122.71 1525.21,-110.18 1565.3,-100.49"/>
<polygon fill="#63b8ff" stroke="#63b8ff" points="1430.75,-129.42 1421.85,-135.17 1432.39,-136.22 1430.75,-129.42"/>
</a>
</g>
</g>
<!-- Node13 -->
<g id="Node000013" class="node">
<title>Node13</title>
<g id="a_Node000013"><a xlink:href="_diagram_scene_8cpp.html" target="_top" xlink:title=" ">
<polygon fill="white" stroke="#666666" points="1570.88,-26 1431.88,-26 1431.88,-6 1570.88,-6 1570.88,-26"/>
<text xml:space="preserve" text-anchor="middle" x="1501.38" y="-12.5" font-family="Helvetica,sans-Serif" font-size="10.00">src/view/DiagramScene.cpp</text>
</a>
</g>
</g>
<!-- Node11&#45;&gt;Node13 -->
<g id="edge13_Node000011_Node000013" class="edge">
<title>Node11&#45;&gt;Node13</title>
<g id="a_edge13_Node000011_Node000013"><a xlink:title=" ">
<path fill="none" stroke="#63b8ff" d="M1356.33,-124.3C1357.65,-106.48 1362.13,-83.54 1375.38,-68 1393.89,-46.26 1423.05,-33.68 1448.66,-26.46"/>
<polygon fill="#63b8ff" stroke="#63b8ff" points="1352.84,-124.02 1355.91,-134.16 1359.83,-124.31 1352.84,-124.02"/>
</a>
</g>
</g>
<!-- Node14 -->
<g id="Node000014" class="node">
<title>Node14</title>
<g id="a_Node000014"><a xlink:href="_relationship_connection_line_graphics_item_8cpp.html" target="_top" xlink:title=" ">
<polygon fill="white" stroke="#666666" points="1893,-32 1733.75,-32 1733.75,0 1893,0 1893,-32"/>
<text xml:space="preserve" text-anchor="start" x="1741.75" y="-18.5" font-family="Helvetica,sans-Serif" font-size="10.00">src/view/RelationshipConnection</text>
<text xml:space="preserve" text-anchor="middle" x="1813.38" y="-6.5" font-family="Helvetica,sans-Serif" font-size="10.00">LineGraphicsItem.cpp</text>
</a>
</g>
</g>
<!-- Node11&#45;&gt;Node14 -->
<g id="edge14_Node000011_Node000014" class="edge">
<title>Node11&#45;&gt;Node14</title>
<g id="a_edge14_Node000011_Node000014"><a xlink:title=" ">
<path fill="none" stroke="#63b8ff" d="M1450.52,-144.14C1542.31,-136.34 1674.69,-121.78 1721.38,-100 1755.3,-84.18 1785.61,-51.52 1801.55,-32.22"/>
<polygon fill="#63b8ff" stroke="#63b8ff" points="1450.44,-140.64 1440.76,-144.96 1451.02,-147.61 1450.44,-140.64"/>
</a>
</g>
</g>
<!-- Node15&#45;&gt;Node13 -->
<g id="edge18_Node000015_Node000013" class="edge">
<title>Node15&#45;&gt;Node13</title>
<g id="a_edge18_Node000015_Node000013"><a xlink:title=" ">
<path fill="none" stroke="#63b8ff" d="M1767.09,-125.3C1757.56,-106.59 1742.14,-82.16 1721.38,-68 1677.08,-37.8 1617.33,-25.31 1571.28,-20.23"/>
<polygon fill="#63b8ff" stroke="#63b8ff" points="1763.87,-126.67 1771.36,-134.16 1770.17,-123.63 1763.87,-126.67"/>
</a>
</g>
</g>
<!-- Node16 -->
<g id="Node000016" class="node">
<title>Node16</title>
<g id="a_Node000016"><a xlink:href="_bezier_control_point_8cpp.html" target="_top" xlink:title=" ">
<polygon fill="white" stroke="#666666" points="2140.5,-94 1984.25,-94 1984.25,-74 2140.5,-74 2140.5,-94"/>
<text xml:space="preserve" text-anchor="middle" x="2062.38" y="-80.5" font-family="Helvetica,sans-Serif" font-size="10.00">src/view/BezierControlPoint.cpp</text>
</a>
</g>
</g>
<!-- Node15&#45;&gt;Node16 -->
<g id="edge16_Node000015_Node000016" class="edge">
<title>Node15&#45;&gt;Node16</title>
<g id="a_edge16_Node000015_Node000016"><a xlink:title=" ">
<path fill="none" stroke="#63b8ff" d="M1856.13,-132.93C1909.66,-120.49 1978.62,-104.46 2021.67,-94.46"/>
<polygon fill="#63b8ff" stroke="#63b8ff" points="1855.38,-129.51 1846.43,-135.18 1856.97,-136.33 1855.38,-129.51"/>
</a>
</g>
</g>
<!-- Node17 -->
<g id="Node000017" class="node">
<title>Node17</title>
<g id="a_Node000017"><a xlink:href="_connection_graphics_item_8cpp.html" target="_top" xlink:title=" ">
<polygon fill="white" stroke="#666666" points="1528.5,-100 1384.25,-100 1384.25,-68 1528.5,-68 1528.5,-100"/>
<text xml:space="preserve" text-anchor="start" x="1392.25" y="-86.5" font-family="Helvetica,sans-Serif" font-size="10.00">src/view/ConnectionGraphics</text>
<text xml:space="preserve" text-anchor="middle" x="1456.38" y="-74.5" font-family="Helvetica,sans-Serif" font-size="10.00">Item.cpp</text>
</a>
</g>
</g>
<!-- Node15&#45;&gt;Node17 -->
<g id="edge17_Node000015_Node000017" class="edge">
<title>Node15&#45;&gt;Node17</title>
<g id="a_edge17_Node000015_Node000017"><a xlink:title=" ">
<path fill="none" stroke="#63b8ff" d="M1695.03,-133.92C1643.59,-123.37 1578.25,-109.98 1528.95,-99.88"/>
<polygon fill="#63b8ff" stroke="#63b8ff" points="1694.13,-137.31 1704.63,-135.88 1695.54,-130.45 1694.13,-137.31"/>
</a>
</g>
</g>
<!-- Node18 -->
<g id="Node000018" class="node">
<title>Node18</title>
<g id="a_Node000018"><a xlink:href="_relationship_connection_line_graphics_item_8h.html" target="_top" xlink:title=" ">
<polygon fill="white" stroke="#666666" points="1966,-100 1806.75,-100 1806.75,-68 1966,-68 1966,-100"/>
<text xml:space="preserve" text-anchor="start" x="1814.75" y="-86.5" font-family="Helvetica,sans-Serif" font-size="10.00">src/view/RelationshipConnection</text>
<text xml:space="preserve" text-anchor="middle" x="1886.38" y="-74.5" font-family="Helvetica,sans-Serif" font-size="10.00">LineGraphicsItem.h</text>
</a>
</g>
</g>
<!-- Node15&#45;&gt;Node18 -->
<g id="edge19_Node000015_Node000018" class="edge">
<title>Node15&#45;&gt;Node18</title>
<g id="a_edge19_Node000015_Node000018"><a xlink:title=" ">
<path fill="none" stroke="#63b8ff" d="M1813.51,-129.53C1829.07,-120.02 1847.02,-109.05 1861.21,-100.38"/>
<polygon fill="#63b8ff" stroke="#63b8ff" points="1811.7,-126.54 1804.99,-134.74 1815.35,-132.51 1811.7,-126.54"/>
</a>
</g>
</g>
<!-- Node18&#45;&gt;Node13 -->
<g id="edge20_Node000018_Node000013" class="edge">
<title>Node18&#45;&gt;Node13</title>
<g id="a_edge20_Node000018_Node000013"><a xlink:title=" ">
<path fill="none" stroke="#63b8ff" d="M1795.41,-67.41C1721.21,-54.69 1618.81,-37.13 1556.51,-26.45"/>
<polygon fill="#63b8ff" stroke="#63b8ff" points="1794.66,-70.83 1805.11,-69.07 1795.85,-63.93 1794.66,-70.83"/>
</a>
</g>
</g>
<!-- Node18&#45;&gt;Node14 -->
<g id="edge21_Node000018_Node000014" class="edge">
<title>Node18&#45;&gt;Node14</title>
<g id="a_edge21_Node000018_Node000014"><a xlink:title=" ">
<path fill="none" stroke="#63b8ff" d="M1860.99,-60.05C1850.89,-50.92 1839.55,-40.67 1830.47,-32.45"/>
<polygon fill="#63b8ff" stroke="#63b8ff" points="1858.56,-62.57 1868.32,-66.68 1863.25,-57.37 1858.56,-62.57"/>
</a>
</g>
</g>
<!-- Node19&#45;&gt;Node4 -->
<g id="edge30_Node000019_Node000004" class="edge">
<title>Node19&#45;&gt;Node4</title>
<g id="a_edge30_Node000019_Node000004"><a xlink:title=" ">
<path fill="none" stroke="#63b8ff" d="M783.61,-146.93C676.9,-140.54 476.46,-126.09 307.38,-100 297.8,-98.52 287.57,-96.53 277.99,-94.48"/>
<polygon fill="#63b8ff" stroke="#63b8ff" points="783.2,-150.41 793.39,-147.51 783.61,-143.43 783.2,-150.41"/>
</a>
</g>
</g>
<!-- Node19&#45;&gt;Node8 -->
<g id="edge23_Node000019_Node000008" class="edge">
<title>Node19&#45;&gt;Node8</title>
<g id="a_edge23_Node000019_Node000008"><a xlink:title=" ">
<path fill="none" stroke="#63b8ff" d="M804.34,-139.17C744.89,-126.39 651.36,-106.28 596.53,-94.49"/>
<polygon fill="#63b8ff" stroke="#63b8ff" points="803.4,-142.55 813.91,-141.23 804.87,-135.7 803.4,-142.55"/>
</a>
</g>
</g>
<!-- Node19&#45;&gt;Node9 -->
<g id="edge24_Node000019_Node000009" class="edge">
<title>Node19&#45;&gt;Node9</title>
<g id="a_edge24_Node000019_Node000009"><a xlink:title=" ">
<path fill="none" stroke="#63b8ff" d="M830.68,-136.43C805.48,-123.64 769.57,-105.41 747.97,-94.44"/>
<polygon fill="#63b8ff" stroke="#63b8ff" points="828.9,-139.45 839.4,-140.86 832.07,-133.21 828.9,-139.45"/>
</a>
</g>
</g>
<!-- Node19&#45;&gt;Node10 -->
<g id="edge25_Node000019_Node000010" class="edge">
<title>Node19&#45;&gt;Node10</title>
<g id="a_edge25_Node000019_Node000010"><a xlink:title=" ">
<path fill="none" stroke="#63b8ff" d="M926.48,-139.64C1001.83,-126.89 1122.77,-106.43 1193.29,-94.49"/>
<polygon fill="#63b8ff" stroke="#63b8ff" points="926.02,-136.17 916.74,-141.29 927.19,-143.07 926.02,-136.17"/>
</a>
</g>
</g>
<!-- Node19&#45;&gt;Node13 -->
<g id="edge27_Node000019_Node000013" class="edge">
<title>Node19&#45;&gt;Node13</title>
<g id="a_edge27_Node000019_Node000013"><a xlink:title=" ">
<path fill="none" stroke="#63b8ff" d="M913.19,-139.13C918.32,-138.05 923.44,-136.99 928.38,-136 1014.78,-118.64 1043.68,-137.64 1123.38,-100 1143.34,-90.57 1141.25,-77.09 1161.38,-68 1248.81,-28.49 1360.5,-18.49 1431.51,-16.52"/>
<polygon fill="#63b8ff" stroke="#63b8ff" points="912.56,-135.69 903.51,-141.19 914.02,-142.53 912.56,-135.69"/>
</a>
</g>
</g>
<!-- Node19&#45;&gt;Node17 -->
<g id="edge26_Node000019_Node000017" class="edge">
<title>Node19&#45;&gt;Node17</title>
<g id="a_edge26_Node000019_Node000017"><a xlink:title=" ">
<path fill="none" stroke="#63b8ff" d="M935.4,-143.34C1029.75,-133.73 1195.53,-116.51 1337.38,-100 1352.47,-98.24 1368.64,-96.27 1384.03,-94.34"/>
<polygon fill="#63b8ff" stroke="#63b8ff" points="935.08,-139.86 925.48,-144.35 935.78,-146.82 935.08,-139.86"/>
</a>
</g>
</g>
<!-- Node20 -->
<g id="Node000020" class="node">
<title>Node20</title>
<g id="a_Node000020"><a xlink:href="_diagram_view_8cpp.html" target="_top" xlink:title=" ">
<polygon fill="white" stroke="#666666" points="1114.5,-94 982.25,-94 982.25,-74 1114.5,-74 1114.5,-94"/>
<text xml:space="preserve" text-anchor="middle" x="1048.38" y="-80.5" font-family="Helvetica,sans-Serif" font-size="10.00">src/view/DiagramView.cpp</text>
</a>
</g>
</g>
<!-- Node19&#45;&gt;Node20 -->
<g id="edge28_Node000019_Node000020" class="edge">
<title>Node19&#45;&gt;Node20</title>
<g id="a_edge28_Node000019_Node000020"><a xlink:title=" ">
<path fill="none" stroke="#63b8ff" d="M897.23,-137.78C933.97,-124.95 988.81,-105.8 1021.35,-94.44"/>
<polygon fill="#63b8ff" stroke="#63b8ff" points="896.17,-134.44 887.88,-141.04 898.48,-141.05 896.17,-134.44"/>
</a>
</g>
</g>
<!-- Node21 -->
<g id="Node000021" class="node">
<title>Node21</title>
<g id="a_Node000021"><a xlink:href="_element_graphics_item_8cpp.html" target="_top" xlink:title=" ">
<polygon fill="white" stroke="#666666" points="963.75,-100 833,-100 833,-68 963.75,-68 963.75,-100"/>
<text xml:space="preserve" text-anchor="start" x="841" y="-86.5" font-family="Helvetica,sans-Serif" font-size="10.00">src/view/ElementGraphics</text>
<text xml:space="preserve" text-anchor="middle" x="898.38" y="-74.5" font-family="Helvetica,sans-Serif" font-size="10.00">Item.cpp</text>
</a>
</g>
</g>
<!-- Node19&#45;&gt;Node21 -->
<g id="edge29_Node000019_Node000021" class="edge">
<title>Node19&#45;&gt;Node21</title>
<g id="a_edge29_Node000019_Node000021"><a xlink:title=" ">
<path fill="none" stroke="#63b8ff" d="M870.77,-131.71C876.68,-121.71 883.8,-109.66 889.33,-100.3"/>
<polygon fill="#63b8ff" stroke="#63b8ff" points="867.81,-129.85 865.73,-140.24 873.83,-133.41 867.81,-129.85"/>
</a>
</g>
</g>
<!-- Node22 -->
<g id="Node000022" class="node">
<title>Node22</title>
<g id="a_Node000022"><a xlink:href="_properties_panel_8cpp.html" target="_top" xlink:title=" ">
<polygon fill="white" stroke="#666666" points="460.12,-94 316.62,-94 316.62,-74 460.12,-74 460.12,-94"/>
<text xml:space="preserve" text-anchor="middle" x="388.38" y="-80.5" font-family="Helvetica,sans-Serif" font-size="10.00">src/view/PropertiesPanel.cpp</text>
</a>
</g>
</g>
<!-- Node19&#45;&gt;Node22 -->
<g id="edge31_Node000019_Node000022" class="edge">
<title>Node19&#45;&gt;Node22</title>
<g id="a_edge31_Node000019_Node000022"><a xlink:title=" ">
<path fill="none" stroke="#63b8ff" d="M783.44,-142.28C704.72,-132.96 578.18,-117.18 469.38,-100 458.92,-98.35 447.74,-96.4 437.13,-94.46"/>
<polygon fill="#63b8ff" stroke="#63b8ff" points="782.86,-145.74 793.2,-143.43 783.68,-138.78 782.86,-145.74"/>
</a>
</g>
</g>
<!-- Node23&#45;&gt;Node4 -->
<g id="edge34_Node000023_Node000004" class="edge">
<title>Node23&#45;&gt;Node4</title>
<g id="a_edge34_Node000023_Node000004"><a xlink:title=" ">
<path fill="none" stroke="#63b8ff" d="M377.09,-137.61C343.27,-124.79 293.08,-105.75 263.26,-94.44"/>
<polygon fill="#63b8ff" stroke="#63b8ff" points="375.44,-140.73 386.03,-141.01 377.92,-134.19 375.44,-140.73"/>
</a>
</g>
</g>
<!-- Node23&#45;&gt;Node22 -->
<g id="edge35_Node000023_Node000022" class="edge">
<title>Node23&#45;&gt;Node22</title>
<g id="a_edge35_Node000023_Node000022"><a xlink:title=" ">
<path fill="none" stroke="#63b8ff" d="M405.11,-131.03C400.7,-118.89 395.26,-103.94 391.81,-94.44"/>
<polygon fill="#63b8ff" stroke="#63b8ff" points="401.71,-131.92 408.42,-140.12 408.29,-129.53 401.71,-131.92"/>
</a>
</g>
</g>
</g>
</svg>

<g id="navigator" transform="translate(0 0)" fill="#404254">
  <rect fill="#f2f5e9" fill-opacity="0.5" stroke="#606060" stroke-width=".5" x="0" y="0" width="60" height="60"/>
  <use id="zoomplus" xlink:href="#zoomPlus" x="17" y="9" onmousedown="handleZoom(evt,'in')"/>
  <use id="zoomminus" xlink:href="#zoomMin" x="42" y="9" onmousedown="handleZoom(evt,'out')"/>
  <use id="reset" xlink:href="#resetDef" x="30" y="36" onmousedown="handleReset()"/>
   <use id="arrowup" xlink:href="#arrowUp" x="0" y="0" onmousedown="handlePan(0,-1)"/>
  <use id="arrowright" xlink:href="#arrowRight" x="0" y="0" onmousedown="handlePan(1,0)"/>
  <use id="arrowdown" xlink:href="#arrowDown" x="0" y="0" onmousedown="handlePan(0,1)"/>
  <use id="arrowleft" xlink:href="#arrowLeft" x="0" y="0" onmousedown="handlePan(-1,0)"/>
</g>
<svg viewBox="0 0 15 15" width="100%" height="30px" preserveAspectRatio="xMaxYMin meet">
 <g id="arrow_out" transform="scale(0.3 0.3)">
  <a xlink:href="_connection_line_8h__dep__incl_org.svg" target="_base">
   <rect id="button" ry="5" rx="5" y="6" x="6" height="38" width="38"
        fill="#f2f5e9" fill-opacity="0.5" stroke="#606060" stroke-width="1.0"/>
   <path id="arrow"
     d="M 11.500037,31.436501 C 11.940474,20.09759 22.043105,11.32322 32.158766,21.979434 L 37.068811,17.246167 C 37.068811,17.246167 37.088388,32 37.088388,32 L 22.160133,31.978069 C 22.160133,31.978069 26.997745,27.140456 26.997745,27.140456 C 18.528582,18.264221 13.291696,25.230495 11.500037,31.436501 z"
     style="fill:#404040;"/>
  </a>
 </g>
</svg>

<style type='text/css'>
<![CDATA[
[data-mouse-over-selected='false'] { opacity: 0.7; }
[data-mouse-over-selected='true']  { opacity: 1.0; }
]]>
</style>
<script type="application/ecmascript"><![CDATA[
document.addEventListener('DOMContentLoaded', (event) => {
  highlightEdges();
  highlightAdjacentNodes();
});
]]></script>
</svg>
