<?xml version="1.0" encoding="UTF-8" standalone="no"?>
<!DOCTYPE svg PUBLIC "-//W3C//DTD SVG 1.1//EN"
 "http://www.w3.org/Graphics/SVG/1.1/DTD/svg11.dtd">
<!-- Generated by graphviz version 14.1.1 (20251213.1925)
 -->
<!-- Title: src/model/ConnectionLine.cpp Pages: 1 -->
<!--zoomable 320 -->

<svg id="main" version="1.1" xmlns="http://www.w3.org/2000/svg" xmlns:xlink="http://www.w3.org/1999/xlink" xml:space="preserve" onload="init(evt)">

<style type="text/css"><![CDATA[
.node, .edge {opacity: 0.7;}
.node.selected, .edge.selected {opacity: 1;}
.edge:hover path { stroke: red; }
.edge:hover polygon { stroke: red; fill: red; }
]]></style>

<defs>
  <circle id="rim" cx="0" cy="0" r="7"/>
  <circle id="rim2" cx="0" cy="0" r="3.5"/>
  <g id="zoomPlus">
    <use xlink:href="#rim" fill="#404040"><set attributeName="fill" to="#808080" begin="zoomplus.mouseover" end="zoomplus.mouseout"/></use>
    <path d="M-4,0h8M0,-4v8" fill="none" stroke="white" stroke-width="1.5" pointer-events="none"/>
  </g>
  <g id="zoomMin">
    <use xlink:href="#rim" fill="#404040"><set attributeName="fill" to="#808080" begin="zoomminus.mouseover" end="zoomminus.mouseout"/></use>
    <path d="M-4,0h8" fill="none" stroke="white" stroke-width="1.5" pointer-events="none"/>
  </g>
  <g id="arrowUp" transform="translate(30 24)">
    <use xlink:href="#rim"/>
    <path pointer-events="none" fill="none" stroke="white" stroke-width="1.5" d="M0,-3.0v7 M-2.5,-0.5L0,-3.0L2.5,-0.5"/>
  </g>
  <g id="arrowRight" transform="rotate(90) translate(36 -43)">
    <use xlink:href="#rim"/>
    <path pointer-events="none" fill="none" stroke="white" stroke-width="1.5" d="M0,-3.0v7 M-2.5,-0.5L0,-3.0L2.5,-0.5"/>
  </g>
  <g id="arrowDown" transform="rotate(180) translate(-30 -48)">
    <use xlink:href="#rim"/>
    <path pointer-events="none" fill="none" stroke="white" stroke-width="1.5" d="M0,-3.0v7 M-2.5,-0.5L0,-3.0L2.5,-0.5"/>
  </g>
  <g id="arrowLeft" transform="rotate(270) translate(-36 17)">
    <use xlink:href="#rim"/>
    <path pointer-events="none" fill="none" stroke="white" stroke-width="1.5" d="M0,-3.0v7 M-2.5,-0.5L0,-3.0L2.5,-0.5"/>
  </g>
  <g id="resetDef">
    <use xlink:href="#rim2" fill="#404040"><set attributeName="fill" to="#808080" begin="reset.mouseover" end="reset.mouseout"/></use>
  </g>
</defs>
<script type="application/ecmascript">
var viewWidth = 1032;
var viewHeight = 320;
var sectionId = 'dynsection-0';
</script>
<script type="application/ecmascript" xlink:href="svg.min.js"/>
<svg id="graph" class="graph">
<g id="viewport">
<title>src/model/ConnectionLine.cpp</title>
<!-- Node1 -->
<g id="Node000001" class="node">
<title>Node1</title>
<g id="a_Node000001"><a xlink:title=" ">
<polygon fill="#999999" stroke="#666666" points="660,-312 512,-312 512,-292 660,-292 660,-312"/>
<text xml:space="preserve" text-anchor="middle" x="586" y="-298.5" font-family="Helvetica,sans-Serif" font-size="10.00">src/model/ConnectionLine.cpp</text>
</a>
</g>
</g>
<!-- Node2 -->
<g id="Node000002" class="node">
<title>Node2</title>
<g id="a_Node000002"><a xlink:href="_connection_line_8h.html" target="_top" xlink:title=" ">
<polygon fill="white" stroke="#666666" points="978.88,-76 887.12,-76 887.12,-56 978.88,-56 978.88,-76"/>
<text xml:space="preserve" text-anchor="middle" x="933" y="-62.5" font-family="Helvetica,sans-Serif" font-size="10.00">ConnectionLine.h</text>
</a>
</g>
</g>
<!-- Node1&#45;&gt;Node2 -->
<g id="edge1_Node000001_Node000002" class="edge">
<title>Node1&#45;&gt;Node2</title>
<g id="a_edge1_Node000001_Node000002"><a xlink:title=" ">
<path fill="none" stroke="#63b8ff" d="M660.14,-299.93C746.8,-295.02 890.38,-275.03 985,-200 1017.27,-174.41 1034.88,-147.49 1014,-112 1005.66,-97.83 991.07,-87.8 976.55,-80.87"/>
<polygon fill="#63b8ff" stroke="#63b8ff" points="978.04,-77.7 967.47,-76.95 975.27,-84.13 978.04,-77.7"/>
</a>
</g>
</g>
<!-- Node8 -->
<g id="Node000008" class="node">
<title>Node8</title>
<g id="a_Node000008"><a xlink:href="_connection_point_8h.html" target="_top" xlink:title=" ">
<polygon fill="white" stroke="#666666" points="447.12,-76 350.88,-76 350.88,-56 447.12,-56 447.12,-76"/>
<text xml:space="preserve" text-anchor="middle" x="399" y="-62.5" font-family="Helvetica,sans-Serif" font-size="10.00">ConnectionPoint.h</text>
</a>
</g>
</g>
<!-- Node1&#45;&gt;Node8 -->
<g id="edge7_Node000001_Node000008" class="edge">
<title>Node1&#45;&gt;Node8</title>
<g id="a_edge7_Node000001_Node000008"><a xlink:title=" ">
<path fill="none" stroke="#63b8ff" d="M511.56,-299.59C412.03,-293 241.56,-263.84 185,-144 178.93,-131.14 176.04,-123.04 185,-112 194.78,-99.95 279.32,-84.94 339.16,-75.67"/>
<polygon fill="#63b8ff" stroke="#63b8ff" points="339.55,-79.15 348.9,-74.18 338.49,-72.23 339.55,-79.15"/>
</a>
</g>
</g>
<!-- Node9 -->
<g id="Node000009" class="node">
<title>Node9</title>
<g id="a_Node000009"><a xlink:href="_basic_element_8h.html" target="_top" xlink:title=" ">
<polygon fill="white" stroke="#666666" points="586.5,-138 501.5,-138 501.5,-118 586.5,-118 586.5,-138"/>
<text xml:space="preserve" text-anchor="middle" x="544" y="-124.5" font-family="Helvetica,sans-Serif" font-size="10.00">BasicElement.h</text>
</a>
</g>
</g>
<!-- Node1&#45;&gt;Node9 -->
<g id="edge12_Node000001_Node000009" class="edge">
<title>Node1&#45;&gt;Node9</title>
<g id="a_edge12_Node000001_Node000009"><a xlink:title=" ">
<path fill="none" stroke="#63b8ff" d="M578.41,-291.64C571.83,-282.96 562.63,-269.39 558,-256 545.53,-219.96 543.49,-175.04 543.5,-149.42"/>
<polygon fill="#63b8ff" stroke="#63b8ff" points="547,-149.79 543.62,-139.75 540,-149.7 547,-149.79"/>
</a>
</g>
</g>
<!-- Node15 -->
<g id="Node000015" class="node">
<title>Node15</title>
<g id="a_Node000015"><a xlink:href="_diagram_scene_8h.html" target="_top" xlink:title=" ">
<polygon fill="white" stroke="#666666" points="698.75,-256 567.25,-256 567.25,-236 698.75,-236 698.75,-256"/>
<text xml:space="preserve" text-anchor="middle" x="633" y="-242.5" font-family="Helvetica,sans-Serif" font-size="10.00">controller/DiagramScene.h</text>
</a>
</g>
</g>
<!-- Node1&#45;&gt;Node15 -->
<g id="edge23_Node000001_Node000015" class="edge">
<title>Node1&#45;&gt;Node15</title>
<g id="a_edge23_Node000001_Node000015"><a xlink:title=" ">
<path fill="none" stroke="#63b8ff" d="M594.19,-291.59C600.59,-284.24 609.68,-273.8 617.45,-264.87"/>
<polygon fill="#63b8ff" stroke="#63b8ff" points="619.99,-267.28 623.91,-257.44 614.71,-262.69 619.99,-267.28"/>
</a>
</g>
</g>
<!-- Node3 -->
<g id="Node000003" class="node">
<title>Node3</title>
<g id="a_Node000003"><a xlink:title=" ">
<polygon fill="#e0e0e0" stroke="#999999" points="802.25,-20 715.75,-20 715.75,0 802.25,0 802.25,-20"/>
<text xml:space="preserve" text-anchor="middle" x="759" y="-6.5" font-family="Helvetica,sans-Serif" font-size="10.00">QtCore/QObject</text>
</a>
</g>
</g>
<!-- Node2&#45;&gt;Node3 -->
<g id="edge2_Node000002_Node000003" class="edge">
<title>Node2&#45;&gt;Node3</title>
<g id="a_edge2_Node000002_Node000003"><a xlink:title=" ">
<path fill="none" stroke="#63b8ff" d="M902.69,-55.59C874.3,-46.78 831.63,-33.54 800.17,-23.78"/>
<polygon fill="#63b8ff" stroke="#63b8ff" points="801.58,-20.55 790.99,-20.93 799.5,-27.23 801.58,-20.55"/>
</a>
</g>
</g>
<!-- Node4 -->
<g id="Node000004" class="node">
<title>Node4</title>
<g id="a_Node000004"><a xlink:title=" ">
<polygon fill="#e0e0e0" stroke="#999999" points="379.25,-20 292.75,-20 292.75,0 379.25,0 379.25,-20"/>
<text xml:space="preserve" text-anchor="middle" x="336" y="-6.5" font-family="Helvetica,sans-Serif" font-size="10.00">QtCore/QPointF</text>
</a>
</g>
</g>
<!-- Node2&#45;&gt;Node4 -->
<g id="edge3_Node000002_Node000004" class="edge">
<title>Node2&#45;&gt;Node4</title>
<g id="a_edge3_Node000002_Node000004"><a xlink:title=" ">
<path fill="none" stroke="#63b8ff" d="M886.83,-57.15C883.84,-56.73 880.88,-56.34 878,-56 666.45,-30.77 611.82,-42.85 400,-20 397.02,-19.68 393.96,-19.33 390.88,-18.95"/>
<polygon fill="#63b8ff" stroke="#63b8ff" points="391.54,-15.51 381.18,-17.72 390.65,-22.45 391.54,-15.51"/>
</a>
</g>
</g>
<!-- Node5 -->
<g id="Node000005" class="node">
<title>Node5</title>
<g id="a_Node000005"><a xlink:title=" ">
<polygon fill="#e0e0e0" stroke="#999999" points="492.75,-20 409.25,-20 409.25,0 492.75,0 492.75,-20"/>
<text xml:space="preserve" text-anchor="middle" x="451" y="-6.5" font-family="Helvetica,sans-Serif" font-size="10.00">QtCore/QString</text>
</a>
</g>
</g>
<!-- Node2&#45;&gt;Node5 -->
<g id="edge4_Node000002_Node000005" class="edge">
<title>Node2&#45;&gt;Node5</title>
<g id="a_edge4_Node000002_Node000005"><a xlink:title=" ">
<path fill="none" stroke="#63b8ff" d="M886.82,-57.21C883.84,-56.78 880.88,-56.37 878,-56 715.09,-34.9 670.26,-42.27 504.11,-20.18"/>
<polygon fill="#63b8ff" stroke="#63b8ff" points="504.86,-16.75 494.48,-18.88 503.93,-23.69 504.86,-16.75"/>
</a>
</g>
</g>
<!-- Node6 -->
<g id="Node000006" class="node">
<title>Node6</title>
<g id="a_Node000006"><a xlink:title=" ">
<polygon fill="#e0e0e0" stroke="#999999" points="589.12,-20 510.88,-20 510.88,0 589.12,0 589.12,-20"/>
<text xml:space="preserve" text-anchor="middle" x="550" y="-6.5" font-family="Helvetica,sans-Serif" font-size="10.00">QtCore/QUuid</text>
</a>
</g>
</g>
<!-- Node2&#45;&gt;Node6 -->
<g id="edge5_Node000002_Node000006" class="edge">
<title>Node2&#45;&gt;Node6</title>
<g id="a_edge5_Node000002_Node000006"><a xlink:title=" ">
<path fill="none" stroke="#63b8ff" d="M886.8,-57.35C883.82,-56.89 880.87,-56.43 878,-56 779.88,-41.24 664.93,-25.93 600.48,-17.51"/>
<polygon fill="#63b8ff" stroke="#63b8ff" points="601.3,-14.09 590.93,-16.27 600.39,-21.03 601.3,-14.09"/>
</a>
</g>
</g>
<!-- Node7 -->
<g id="Node000007" class="node">
<title>Node7</title>
<g id="a_Node000007"><a xlink:title=" ">
<polygon fill="#e0e0e0" stroke="#999999" points="970.62,-20 895.38,-20 895.38,0 970.62,0 970.62,-20"/>
<text xml:space="preserve" text-anchor="middle" x="933" y="-6.5" font-family="Helvetica,sans-Serif" font-size="10.00">QtGui/QColor</text>
</a>
</g>
</g>
<!-- Node2&#45;&gt;Node7 -->
<g id="edge6_Node000002_Node000007" class="edge">
<title>Node2&#45;&gt;Node7</title>
<g id="a_edge6_Node000002_Node000007"><a xlink:title=" ">
<path fill="none" stroke="#63b8ff" d="M933,-55.59C933,-49.01 933,-39.96 933,-31.73"/>
<polygon fill="#63b8ff" stroke="#63b8ff" points="936.5,-31.81 933,-21.81 929.5,-31.81 936.5,-31.81"/>
</a>
</g>
</g>
<!-- Node8&#45;&gt;Node3 -->
<g id="edge8_Node000008_Node000003" class="edge">
<title>Node8&#45;&gt;Node3</title>
<g id="a_edge8_Node000008_Node000003"><a xlink:title=" ">
<path fill="none" stroke="#63b8ff" d="M447.55,-57.72C514.36,-47.7 634.3,-29.7 704.24,-19.21"/>
<polygon fill="#63b8ff" stroke="#63b8ff" points="704.57,-22.7 713.94,-17.76 703.53,-15.78 704.57,-22.7"/>
</a>
</g>
</g>
<!-- Node8&#45;&gt;Node4 -->
<g id="edge9_Node000008_Node000004" class="edge">
<title>Node8&#45;&gt;Node4</title>
<g id="a_edge9_Node000008_Node000004"><a xlink:title=" ">
<path fill="none" stroke="#63b8ff" d="M388.03,-55.59C379.08,-47.93 366.23,-36.91 355.54,-27.75"/>
<polygon fill="#63b8ff" stroke="#63b8ff" points="357.87,-25.13 348,-21.28 353.31,-30.45 357.87,-25.13"/>
</a>
</g>
</g>
<!-- Node8&#45;&gt;Node5 -->
<g id="edge10_Node000008_Node000005" class="edge">
<title>Node8&#45;&gt;Node5</title>
<g id="a_edge10_Node000008_Node000005"><a xlink:title=" ">
<path fill="none" stroke="#63b8ff" d="M408.06,-55.59C415.22,-48.16 425.41,-37.58 434.07,-28.58"/>
<polygon fill="#63b8ff" stroke="#63b8ff" points="436.58,-31.02 441,-21.39 431.54,-26.16 436.58,-31.02"/>
</a>
</g>
</g>
<!-- Node8&#45;&gt;Node6 -->
<g id="edge11_Node000008_Node000006" class="edge">
<title>Node8&#45;&gt;Node6</title>
<g id="a_edge11_Node000008_Node000006"><a xlink:title=" ">
<path fill="none" stroke="#63b8ff" d="M425.3,-55.59C449.51,-46.94 485.68,-34 512.84,-24.29"/>
<polygon fill="#63b8ff" stroke="#63b8ff" points="513.83,-27.65 522.07,-20.99 511.47,-21.06 513.83,-27.65"/>
</a>
</g>
</g>
<!-- Node9&#45;&gt;Node3 -->
<g id="edge14_Node000009_Node000003" class="edge">
<title>Node9&#45;&gt;Node3</title>
<g id="a_edge14_Node000009_Node000003"><a xlink:title=" ">
<path fill="none" stroke="#63b8ff" d="M579.87,-117.54C586.88,-115.7 594.17,-113.78 601,-112 662.75,-95.88 694.18,-120.42 740,-76 751.88,-64.48 756.44,-45.98 758.14,-31.65"/>
<polygon fill="#63b8ff" stroke="#63b8ff" points="761.61,-32.17 758.89,-21.93 754.63,-31.63 761.61,-32.17"/>
</a>
</g>
</g>
<!-- Node9&#45;&gt;Node4 -->
<g id="edge15_Node000009_Node000004" class="edge">
<title>Node9&#45;&gt;Node4</title>
<g id="a_edge15_Node000009_Node000004"><a xlink:title=" ">
<path fill="none" stroke="#63b8ff" d="M512.79,-117.54C506.27,-115.64 499.42,-113.71 493,-112 426.33,-94.26 387.2,-128.12 342,-76 331.55,-63.95 330.78,-45.5 332.2,-31.33"/>
<polygon fill="#63b8ff" stroke="#63b8ff" points="335.62,-32.15 333.61,-21.75 328.69,-31.13 335.62,-32.15"/>
</a>
</g>
</g>
<!-- Node9&#45;&gt;Node5 -->
<g id="edge17_Node000009_Node000005" class="edge">
<title>Node9&#45;&gt;Node5</title>
<g id="a_edge17_Node000009_Node000005"><a xlink:title=" ">
<path fill="none" stroke="#63b8ff" d="M536.39,-117.51C520.92,-98.21 485.57,-54.11 465.54,-29.13"/>
<polygon fill="#63b8ff" stroke="#63b8ff" points="468.39,-27.09 459.4,-21.48 462.93,-31.47 468.39,-27.09"/>
</a>
</g>
</g>
<!-- Node9&#45;&gt;Node6 -->
<g id="edge19_Node000009_Node000006" class="edge">
<title>Node9&#45;&gt;Node6</title>
<g id="a_edge19_Node000009_Node000006"><a xlink:title=" ">
<path fill="none" stroke="#63b8ff" d="M540.33,-117.79C535.41,-104.22 527.74,-78.1 532,-56 533.65,-47.44 536.91,-38.44 540.21,-30.76"/>
<polygon fill="#63b8ff" stroke="#63b8ff" points="543.37,-32.25 544.41,-21.71 537.02,-29.31 543.37,-32.25"/>
</a>
</g>
</g>
<!-- Node9&#45;&gt;Node8 -->
<g id="edge22_Node000009_Node000008" class="edge">
<title>Node9&#45;&gt;Node8</title>
<g id="a_edge22_Node000009_Node000008"><a xlink:title=" ">
<path fill="none" stroke="#63b8ff" d="M521.34,-117.62C497.4,-107.72 459.4,-91.99 432.11,-80.7"/>
<polygon fill="#63b8ff" stroke="#63b8ff" points="433.47,-77.48 422.9,-76.89 430.8,-83.95 433.47,-77.48"/>
</a>
</g>
</g>
<!-- Node10 -->
<g id="Node000010" class="node">
<title>Node10</title>
<g id="a_Node000010"><a xlink:title=" ">
<polygon fill="#e0e0e0" stroke="#999999" points="868.62,-76 787.38,-76 787.38,-56 868.62,-56 868.62,-76"/>
<text xml:space="preserve" text-anchor="middle" x="828" y="-62.5" font-family="Helvetica,sans-Serif" font-size="10.00">QtCore/QHash</text>
</a>
</g>
</g>
<!-- Node9&#45;&gt;Node10 -->
<g id="edge13_Node000009_Node000010" class="edge">
<title>Node9&#45;&gt;Node10</title>
<g id="a_edge13_Node000009_Node000010"><a xlink:title=" ">
<path fill="none" stroke="#63b8ff" d="M578.58,-117.54C585.96,-115.62 593.72,-113.68 601,-112 660.73,-98.23 729.89,-84.89 776.03,-76.36"/>
<polygon fill="#63b8ff" stroke="#63b8ff" points="776.55,-79.82 785.75,-74.57 775.29,-72.94 776.55,-79.82"/>
</a>
</g>
</g>
<!-- Node11 -->
<g id="Node000011" class="node">
<title>Node11</title>
<g id="a_Node000011"><a xlink:title=" ">
<polygon fill="#e0e0e0" stroke="#999999" points="225.5,-76 140.5,-76 140.5,-56 225.5,-56 225.5,-76"/>
<text xml:space="preserve" text-anchor="middle" x="183" y="-62.5" font-family="Helvetica,sans-Serif" font-size="10.00">QtCore/QRectF</text>
</a>
</g>
</g>
<!-- Node9&#45;&gt;Node11 -->
<g id="edge16_Node000009_Node000011" class="edge">
<title>Node9&#45;&gt;Node11</title>
<g id="a_edge16_Node000009_Node000011"><a xlink:title=" ">
<path fill="none" stroke="#63b8ff" d="M514.53,-117.53C507.52,-115.5 500.04,-113.52 493,-112 382.94,-88.3 350.79,-93.72 237.1,-76.42"/>
<polygon fill="#63b8ff" stroke="#63b8ff" points="237.75,-72.98 227.33,-74.91 236.67,-79.9 237.75,-72.98"/>
</a>
</g>
</g>
<!-- Node12 -->
<g id="Node000012" class="node">
<title>Node12</title>
<g id="a_Node000012"><a xlink:title=" ">
<polygon fill="#e0e0e0" stroke="#999999" points="624.75,-76 541.25,-76 541.25,-56 624.75,-56 624.75,-76"/>
<text xml:space="preserve" text-anchor="middle" x="583" y="-62.5" font-family="Helvetica,sans-Serif" font-size="10.00">QtCore/QSizeF</text>
</a>
</g>
</g>
<!-- Node9&#45;&gt;Node12 -->
<g id="edge18_Node000009_Node000012" class="edge">
<title>Node9&#45;&gt;Node12</title>
<g id="a_edge18_Node000009_Node000012"><a xlink:title=" ">
<path fill="none" stroke="#63b8ff" d="M550.09,-117.62C555.62,-109.12 563.93,-96.33 570.82,-85.74"/>
<polygon fill="#63b8ff" stroke="#63b8ff" points="573.74,-87.67 576.25,-77.38 567.87,-83.86 573.74,-87.67"/>
</a>
</g>
</g>
<!-- Node13 -->
<g id="Node000013" class="node">
<title>Node13</title>
<g id="a_Node000013"><a xlink:title=" ">
<polygon fill="#e0e0e0" stroke="#999999" points="731,-76 643,-76 643,-56 731,-56 731,-76"/>
<text xml:space="preserve" text-anchor="middle" x="687" y="-62.5" font-family="Helvetica,sans-Serif" font-size="10.00">QtCore/QVariant</text>
</a>
</g>
</g>
<!-- Node9&#45;&gt;Node13 -->
<g id="edge20_Node000009_Node000013" class="edge">
<title>Node9&#45;&gt;Node13</title>
<g id="a_edge20_Node000009_Node000013"><a xlink:title=" ">
<path fill="none" stroke="#63b8ff" d="M566.34,-117.62C589.96,-107.72 627.43,-91.99 654.35,-80.7"/>
<polygon fill="#63b8ff" stroke="#63b8ff" points="655.55,-83.99 663.42,-76.89 652.84,-77.54 655.55,-83.99"/>
</a>
</g>
</g>
<!-- Node14 -->
<g id="Node000014" class="node">
<title>Node14</title>
<g id="a_Node000014"><a xlink:title=" ">
<polygon fill="#e0e0e0" stroke="#999999" points="294.62,-76 243.38,-76 243.38,-56 294.62,-56 294.62,-76"/>
<text xml:space="preserve" text-anchor="middle" x="269" y="-62.5" font-family="Helvetica,sans-Serif" font-size="10.00">memory</text>
</a>
</g>
</g>
<!-- Node9&#45;&gt;Node14 -->
<g id="edge21_Node000009_Node000014" class="edge">
<title>Node9&#45;&gt;Node14</title>
<g id="a_edge21_Node000009_Node000014"><a xlink:title=" ">
<path fill="none" stroke="#63b8ff" d="M513.65,-117.57C506.89,-115.61 499.72,-113.64 493,-112 412.05,-92.22 390.54,-93.15 309,-76 307.99,-75.79 306.97,-75.57 305.95,-75.35"/>
<polygon fill="#63b8ff" stroke="#63b8ff" points="306.79,-71.95 296.28,-73.24 305.3,-78.79 306.79,-71.95"/>
</a>
</g>
</g>
<!-- Node15&#45;&gt;Node2 -->
<g id="edge27_Node000015_Node000002" class="edge">
<title>Node15&#45;&gt;Node2</title>
<g id="a_edge27_Node000015_Node000002"><a xlink:title=" ">
<path fill="none" stroke="#63b8ff" d="M629.4,-235.52C620.98,-211.52 602.93,-147.71 634,-112 668,-72.91 807.37,-83.08 875.69,-76.03"/>
<polygon fill="#63b8ff" stroke="#63b8ff" points="875.81,-79.54 885.29,-74.81 874.93,-72.59 875.81,-79.54"/>
</a>
</g>
</g>
<!-- Node15&#45;&gt;Node9 -->
<g id="edge26_Node000015_Node000009" class="edge">
<title>Node15&#45;&gt;Node9</title>
<g id="a_edge26_Node000015_Node000009"><a xlink:title=" ">
<path fill="none" stroke="#63b8ff" d="M625.72,-235.51C610.91,-216.21 577.08,-172.11 557.91,-147.13"/>
<polygon fill="#63b8ff" stroke="#63b8ff" points="560.92,-145.3 552.06,-139.5 555.37,-149.56 560.92,-145.3"/>
</a>
</g>
</g>
<!-- Node15&#45;&gt;Node10 -->
<g id="edge24_Node000015_Node000010" class="edge">
<title>Node15&#45;&gt;Node10</title>
<g id="a_edge24_Node000015_Node000010"><a xlink:title=" ">
<path fill="none" stroke="#63b8ff" d="M699.02,-242.34C781.56,-237.93 917.11,-226.75 959,-200 994.61,-177.26 1020.7,-145.54 995,-112 987.81,-102.61 926.24,-87.74 879.94,-77.69"/>
<polygon fill="#63b8ff" stroke="#63b8ff" points="880.83,-74.3 870.32,-75.62 879.36,-81.14 880.83,-74.3"/>
</a>
</g>
</g>
<!-- Node16 -->
<g id="Node000016" class="node">
<title>Node16</title>
<g id="a_Node000016"><a xlink:title=" ">
<polygon fill="#e0e0e0" stroke="#999999" points="949.88,-200 810.12,-200 810.12,-180 949.88,-180 949.88,-200"/>
<text xml:space="preserve" text-anchor="middle" x="880" y="-186.5" font-family="Helvetica,sans-Serif" font-size="10.00">QtWidgets/QGraphicsScene</text>
</a>
</g>
</g>
<!-- Node15&#45;&gt;Node16 -->
<g id="edge25_Node000015_Node000016" class="edge">
<title>Node15&#45;&gt;Node16</title>
<g id="a_edge25_Node000015_Node000016"><a xlink:title=" ">
<path fill="none" stroke="#63b8ff" d="M676.31,-235.53C717.89,-226.44 780.83,-212.68 825.74,-202.86"/>
<polygon fill="#63b8ff" stroke="#63b8ff" points="826.24,-206.34 835.26,-200.78 824.75,-199.5 826.24,-206.34"/>
</a>
</g>
</g>
<!-- Node17 -->
<g id="Node000017" class="node">
<title>Node17</title>
<g id="a_Node000017"><a xlink:href="_element_graphics_item_8h.html" target="_top" xlink:title=" ">
<polygon fill="white" stroke="#666666" points="412.12,-200 261.88,-200 261.88,-180 412.12,-180 412.12,-200"/>
<text xml:space="preserve" text-anchor="middle" x="337" y="-186.5" font-family="Helvetica,sans-Serif" font-size="10.00">viewer/ElementGraphicsItem.h</text>
</a>
</g>
</g>
<!-- Node15&#45;&gt;Node17 -->
<g id="edge28_Node000015_Node000017" class="edge">
<title>Node15&#45;&gt;Node17</title>
<g id="a_edge28_Node000015_Node000017"><a xlink:title=" ">
<path fill="none" stroke="#63b8ff" d="M581.1,-235.53C530.64,-226.33 453.92,-212.33 399.98,-202.49"/>
<polygon fill="#63b8ff" stroke="#63b8ff" points="400.79,-199.08 390.33,-200.73 399.54,-205.97 400.79,-199.08"/>
</a>
</g>
</g>
<!-- Node22 -->
<g id="Node000022" class="node">
<title>Node22</title>
<g id="a_Node000022"><a xlink:href="_bezier_control_point_8h.html" target="_top" xlink:title=" ">
<polygon fill="white" stroke="#666666" points="791.75,-200 654.25,-200 654.25,-180 791.75,-180 791.75,-200"/>
<text xml:space="preserve" text-anchor="middle" x="723" y="-186.5" font-family="Helvetica,sans-Serif" font-size="10.00">viewer/BezierControlPoint.h</text>
</a>
</g>
</g>
<!-- Node15&#45;&gt;Node22 -->
<g id="edge37_Node000015_Node000022" class="edge">
<title>Node15&#45;&gt;Node22</title>
<g id="a_edge37_Node000015_Node000022"><a xlink:title=" ">
<path fill="none" stroke="#63b8ff" d="M648.68,-235.59C662.14,-227.51 681.82,-215.71 697.54,-206.27"/>
<polygon fill="#63b8ff" stroke="#63b8ff" points="699.13,-209.4 705.9,-201.26 695.53,-203.4 699.13,-209.4"/>
</a>
</g>
</g>
<!-- Node17&#45;&gt;Node9 -->
<g id="edge35_Node000017_Node000009" class="edge">
<title>Node17&#45;&gt;Node9</title>
<g id="a_edge35_Node000017_Node000009"><a xlink:title=" ">
<path fill="none" stroke="#63b8ff" d="M369.88,-179.57C401.46,-170.5 450.51,-156.38 493,-144 495.58,-143.25 498.23,-142.47 500.91,-141.69"/>
<polygon fill="#63b8ff" stroke="#63b8ff" points="501.84,-145.07 510.45,-138.89 499.87,-138.35 501.84,-145.07"/>
</a>
</g>
</g>
<!-- Node17&#45;&gt;Node14 -->
<g id="edge36_Node000017_Node000014" class="edge">
<title>Node17&#45;&gt;Node14</title>
<g id="a_edge36_Node000017_Node000014"><a xlink:title=" ">
<path fill="none" stroke="#63b8ff" d="M261.56,-185.23C232.89,-179.65 202.87,-167.92 185,-144 176.49,-132.61 177.69,-124.2 185,-112 190.79,-102.33 214.21,-90.21 234.86,-80.98"/>
<polygon fill="#63b8ff" stroke="#63b8ff" points="236.12,-84.24 243.9,-77.05 233.34,-77.82 236.12,-84.24"/>
</a>
</g>
</g>
<!-- Node18 -->
<g id="Node000018" class="node">
<title>Node18</title>
<g id="a_Node000018"><a xlink:title=" ">
<polygon fill="#e0e0e0" stroke="#999999" points="325.75,-138 194.25,-138 194.25,-118 325.75,-118 325.75,-138"/>
<text xml:space="preserve" text-anchor="middle" x="260" y="-124.5" font-family="Helvetica,sans-Serif" font-size="10.00">QtWidgets/QGraphicsItem</text>
</a>
</g>
</g>
<!-- Node17&#45;&gt;Node18 -->
<g id="edge29_Node000017_Node000018" class="edge">
<title>Node17&#45;&gt;Node18</title>
<g id="a_edge29_Node000017_Node000018"><a xlink:title=" ">
<path fill="none" stroke="#63b8ff" d="M324.97,-179.62C313.22,-170.47 295.08,-156.34 280.96,-145.33"/>
<polygon fill="#63b8ff" stroke="#63b8ff" points="283.18,-142.63 273.14,-139.24 278.88,-148.15 283.18,-142.63"/>
</a>
</g>
</g>
<!-- Node19 -->
<g id="Node000019" class="node">
<title>Node19</title>
<g id="a_Node000019"><a xlink:title=" ">
<polygon fill="#e0e0e0" stroke="#999999" points="483.88,-144 344.12,-144 344.12,-112 483.88,-112 483.88,-144"/>
<text xml:space="preserve" text-anchor="start" x="352.12" y="-130.5" font-family="Helvetica,sans-Serif" font-size="10.00">QtWidgets/QGraphicsScene</text>
<text xml:space="preserve" text-anchor="middle" x="414" y="-118.5" font-family="Helvetica,sans-Serif" font-size="10.00">MouseEvent</text>
</a>
</g>
</g>
<!-- Node17&#45;&gt;Node19 -->
<g id="edge30_Node000017_Node000019" class="edge">
<title>Node17&#45;&gt;Node19</title>
<g id="a_edge30_Node000017_Node000019"><a xlink:title=" ">
<path fill="none" stroke="#63b8ff" d="M349.03,-179.62C358.77,-172.04 372.88,-161.05 385.46,-151.24"/>
<polygon fill="#63b8ff" stroke="#63b8ff" points="387.34,-154.21 393.08,-145.3 383.04,-148.69 387.34,-154.21"/>
</a>
</g>
</g>
<!-- Node20 -->
<g id="Node000020" class="node">
<title>Node20</title>
<g id="a_Node000020"><a xlink:href="_element_renderer_8h.html" target="_top" xlink:title=" ">
<polygon fill="white" stroke="#666666" points="100,-138 0,-138 0,-118 100,-118 100,-138"/>
<text xml:space="preserve" text-anchor="middle" x="50" y="-124.5" font-family="Helvetica,sans-Serif" font-size="10.00">ElementRenderer.h</text>
</a>
</g>
</g>
<!-- Node17&#45;&gt;Node20 -->
<g id="edge31_Node000017_Node000020" class="edge">
<title>Node17&#45;&gt;Node20</title>
<g id="a_edge31_Node000017_Node000020"><a xlink:title=" ">
<path fill="none" stroke="#63b8ff" d="M291.84,-179.56C241.73,-169.08 160.8,-152.16 106.53,-140.82"/>
<polygon fill="#63b8ff" stroke="#63b8ff" points="107.36,-137.42 96.85,-138.79 105.92,-144.27 107.36,-137.42"/>
</a>
</g>
</g>
<!-- Node20&#45;&gt;Node4 -->
<g id="edge34_Node000020_Node000004" class="edge">
<title>Node20&#45;&gt;Node4</title>
<g id="a_edge34_Node000020_Node000004"><a xlink:title=" ">
<path fill="none" stroke="#63b8ff" d="M42.7,-117.53C32.19,-102.68 15.66,-73.77 31,-56 62.67,-19.31 202.16,-12.01 281.08,-10.88"/>
<polygon fill="#63b8ff" stroke="#63b8ff" points="280.79,-14.38 290.75,-10.77 280.71,-7.38 280.79,-14.38"/>
</a>
</g>
</g>
<!-- Node20&#45;&gt;Node11 -->
<g id="edge33_Node000020_Node000011" class="edge">
<title>Node20&#45;&gt;Node11</title>
<g id="a_edge33_Node000020_Node000011"><a xlink:title=" ">
<path fill="none" stroke="#63b8ff" d="M70.78,-117.62C92.55,-107.81 126.98,-92.27 151.96,-81"/>
<polygon fill="#63b8ff" stroke="#63b8ff" points="153.31,-84.23 160.99,-76.93 150.43,-77.85 153.31,-84.23"/>
</a>
</g>
</g>
<!-- Node21 -->
<g id="Node000021" class="node">
<title>Node21</title>
<g id="a_Node000021"><a xlink:title=" ">
<polygon fill="#e0e0e0" stroke="#999999" points="122.38,-76 39.62,-76 39.62,-56 122.38,-56 122.38,-76"/>
<text xml:space="preserve" text-anchor="middle" x="81" y="-62.5" font-family="Helvetica,sans-Serif" font-size="10.00">QtGui/QPainter</text>
</a>
</g>
</g>
<!-- Node20&#45;&gt;Node21 -->
<g id="edge32_Node000020_Node000021" class="edge">
<title>Node20&#45;&gt;Node21</title>
<g id="a_edge32_Node000020_Node000021"><a xlink:title=" ">
<path fill="none" stroke="#63b8ff" d="M54.84,-117.62C59.19,-109.21 65.71,-96.6 71.15,-86.07"/>
<polygon fill="#63b8ff" stroke="#63b8ff" points="74.12,-87.95 75.6,-77.46 67.9,-84.74 74.12,-87.95"/>
</a>
</g>
</g>
<!-- Node23 -->
<g id="Node000023" class="node">
<title>Node23</title>
<g id="a_Node000023"><a xlink:title=" ">
<polygon fill="#e0e0e0" stroke="#999999" points="803.38,-138 642.62,-138 642.62,-118 803.38,-118 803.38,-138"/>
<text xml:space="preserve" text-anchor="middle" x="723" y="-124.5" font-family="Helvetica,sans-Serif" font-size="10.00">QtWidgets/QGraphicsEllipseItem</text>
</a>
</g>
</g>
<!-- Node22&#45;&gt;Node23 -->
<g id="edge38_Node000022_Node000023" class="edge">
<title>Node22&#45;&gt;Node23</title>
<g id="a_edge38_Node000022_Node000023"><a xlink:title=" ">
<path fill="none" stroke="#63b8ff" d="M723,-179.62C723,-171.56 723,-159.65 723,-149.41"/>
<polygon fill="#63b8ff" stroke="#63b8ff" points="726.5,-149.63 723,-139.63 719.5,-149.63 726.5,-149.63"/>
</a>
</g>
</g>
<!-- Node24 -->
<g id="Node000024" class="node">
<title>Node24</title>
<g id="a_Node000024"><a xlink:title=" ">
<polygon fill="#e0e0e0" stroke="#999999" points="890.62,-138 821.38,-138 821.38,-118 890.62,-118 890.62,-138"/>
<text xml:space="preserve" text-anchor="middle" x="856" y="-124.5" font-family="Helvetica,sans-Serif" font-size="10.00">QtGui/QPen</text>
</a>
</g>
</g>
<!-- Node22&#45;&gt;Node24 -->
<g id="edge39_Node000022_Node000024" class="edge">
<title>Node22&#45;&gt;Node24</title>
<g id="a_edge39_Node000022_Node000024"><a xlink:title=" ">
<path fill="none" stroke="#63b8ff" d="M743.78,-179.62C765.55,-169.81 799.98,-154.27 824.96,-143"/>
<polygon fill="#63b8ff" stroke="#63b8ff" points="826.31,-146.23 833.99,-138.93 823.43,-139.85 826.31,-146.23"/>
</a>
</g>
</g>
<!-- Node25 -->
<g id="Node000025" class="node">
<title>Node25</title>
<g id="a_Node000025"><a xlink:title=" ">
<polygon fill="#e0e0e0" stroke="#999999" points="985.75,-138 908.25,-138 908.25,-118 985.75,-118 985.75,-138"/>
<text xml:space="preserve" text-anchor="middle" x="947" y="-124.5" font-family="Helvetica,sans-Serif" font-size="10.00">QtGui/QBrush</text>
</a>
</g>
</g>
<!-- Node22&#45;&gt;Node25 -->
<g id="edge40_Node000022_Node000025" class="edge">
<title>Node22&#45;&gt;Node25</title>
<g id="a_edge40_Node000022_Node000025"><a xlink:title=" ">
<path fill="none" stroke="#63b8ff" d="M762.9,-179.58C798.9,-170.91 853.21,-157.4 900,-144 902.41,-143.31 904.88,-142.58 907.37,-141.83"/>
<polygon fill="#63b8ff" stroke="#63b8ff" points="908.28,-145.22 916.8,-138.92 906.22,-138.53 908.28,-145.22"/>
</a>
</g>
</g>
</g>
</svg>

<g id="navigator" transform="translate(0 0)" fill="#404254">
  <rect fill="#f2f5e9" fill-opacity="0.5" stroke="#606060" stroke-width=".5" x="0" y="0" width="60" height="60"/>
  <use id="zoomplus" xlink:href="#zoomPlus" x="17" y="9" onmousedown="handleZoom(evt,'in')"/>
  <use id="zoomminus" xlink:href="#zoomMin" x="42" y="9" onmousedown="handleZoom(evt,'out')"/>
  <use id="reset" xlink:href="#resetDef" x="30" y="36" onmousedown="handleReset()"/>
   <use id="arrowup" xlink:href="#arrowUp" x="0" y="0" onmousedown="handlePan(0,-1)"/>
  <use id="arrowright" xlink:href="#arrowRight" x="0" y="0" onmousedown="handlePan(1,0)"/>
  <use id="arrowdown" xlink:href="#arrowDown" x="0" y="0" onmousedown="handlePan(0,1)"/>
  <use id="arrowleft" xlink:href="#arrowLeft" x="0" y="0" onmousedown="handlePan(-1,0)"/>
</g>
<svg viewBox="0 0 15 15" width="100%" height="30px" preserveAspectRatio="xMaxYMin meet">
 <g id="arrow_out" transform="scale(0.3 0.3)">
  <a xlink:href="_connection_line_8cpp__incl_org.svg" target="_base">
   <rect id="button" ry="5" rx="5" y="6" x="6" height="38" width="38"
        fill="#f2f5e9" fill-opacity="0.5" stroke="#606060" stroke-width="1.0"/>
   <path id="arrow"
     d="M 11.500037,31.436501 C 11.940474,20.09759 22.043105,11.32322 32.158766,21.979434 L 37.068811,17.246167 C 37.068811,17.246167 37.088388,32 37.088388,32 L 22.160133,31.978069 C 22.160133,31.978069 26.997745,27.140456 26.997745,27.140456 C 18.528582,18.264221 13.291696,25.230495 11.500037,31.436501 z"
     style="fill:#404040;"/>
  </a>
 </g>
</svg>

<style type='text/css'>
<![CDATA[
[data-mouse-over-selected='false'] { opacity: 0.7; }
[data-mouse-over-selected='true']  { opacity: 1.0; }
]]>
</style>
<script type="application/ecmascript"><![CDATA[
document.addEventListener('DOMContentLoaded', (event) => {
  highlightEdges();
  highlightAdjacentNodes();
});
]]></script>
</svg>
