<?xml version="1.0" encoding="UTF-8" standalone="no"?>
<!DOCTYPE svg PUBLIC "-//W3C//DTD SVG 1.1//EN"
 "http://www.w3.org/Graphics/SVG/1.1/DTD/svg11.dtd">
<!-- Generated by graphviz version 14.1.1 (20251213.1925)
 -->
<!-- Title: src/view/ConnectionGraphicsItem.h Pages: 1 -->
<svg width="601pt" height="176pt"
 viewBox="0.00 0.00 601.00 176.00" xmlns="http://www.w3.org/2000/svg" xmlns:xlink="http://www.w3.org/1999/xlink">
<g id="graph0" class="graph" transform="scale(1 1) rotate(0) translate(4 172)">
<title>src/view/ConnectionGraphicsItem.h</title>
<!-- Node1 -->
<g id="Node000001" class="node">
<title>Node1</title>
<g id="a_Node000001"><a xlink:title=" ">
<polygon fill="#999999" stroke="#666666" points="368.25,-168 224,-168 224,-136 368.25,-136 368.25,-168"/>
<text xml:space="preserve" text-anchor="start" x="232" y="-154.5" font-family="Helvetica,sans-Serif" font-size="10.00">src/view/ConnectionGraphics</text>
<text xml:space="preserve" text-anchor="middle" x="296.12" y="-142.5" font-family="Helvetica,sans-Serif" font-size="10.00">Item.h</text>
</a>
</g>
</g>
<!-- Node2 -->
<g id="Node000002" class="node">
<title>Node2</title>
<g id="a_Node000002"><a xlink:href="_bezier_control_point_8cpp.html" target="_top" xlink:title=" ">
<polygon fill="white" stroke="#666666" points="156.25,-94 0,-94 0,-74 156.25,-74 156.25,-94"/>
<text xml:space="preserve" text-anchor="middle" x="78.12" y="-80.5" font-family="Helvetica,sans-Serif" font-size="10.00">src/view/BezierControlPoint.cpp</text>
</a>
</g>
</g>
<!-- Node1&#45;&gt;Node2 -->
<g id="edge1_Node000001_Node000002" class="edge">
<title>Node1&#45;&gt;Node2</title>
<g id="a_edge1_Node000001_Node000002"><a xlink:title=" ">
<path fill="none" stroke="#63b8ff" d="M234.1,-132.22C193.36,-119.89 141.79,-104.28 109.37,-94.46"/>
<polygon fill="#63b8ff" stroke="#63b8ff" points="232.98,-135.54 243.57,-135.09 235.01,-128.84 232.98,-135.54"/>
</a>
</g>
</g>
<!-- Node3 -->
<g id="Node000003" class="node">
<title>Node3</title>
<g id="a_Node000003"><a xlink:href="_connection_graphics_item_8cpp.html" target="_top" xlink:title=" ">
<polygon fill="white" stroke="#666666" points="318.25,-100 174,-100 174,-68 318.25,-68 318.25,-100"/>
<text xml:space="preserve" text-anchor="start" x="182" y="-86.5" font-family="Helvetica,sans-Serif" font-size="10.00">src/view/ConnectionGraphics</text>
<text xml:space="preserve" text-anchor="middle" x="246.12" y="-74.5" font-family="Helvetica,sans-Serif" font-size="10.00">Item.cpp</text>
</a>
</g>
</g>
<!-- Node1&#45;&gt;Node3 -->
<g id="edge2_Node000001_Node000003" class="edge">
<title>Node1&#45;&gt;Node3</title>
<g id="a_edge2_Node000001_Node000003"><a xlink:title=" ">
<path fill="none" stroke="#63b8ff" d="M277.63,-126.59C270.94,-117.75 263.58,-108.04 257.66,-100.22"/>
<polygon fill="#63b8ff" stroke="#63b8ff" points="274.79,-128.63 283.61,-134.49 280.37,-124.4 274.79,-128.63"/>
</a>
</g>
</g>
<!-- Node4 -->
<g id="Node000004" class="node">
<title>Node4</title>
<g id="a_Node000004"><a xlink:href="_diagram_scene_8cpp.html" target="_top" xlink:title=" ">
<polygon fill="white" stroke="#666666" points="415.62,-26 276.62,-26 276.62,-6 415.62,-6 415.62,-26"/>
<text xml:space="preserve" text-anchor="middle" x="346.12" y="-12.5" font-family="Helvetica,sans-Serif" font-size="10.00">src/view/DiagramScene.cpp</text>
</a>
</g>
</g>
<!-- Node1&#45;&gt;Node4 -->
<g id="edge3_Node000001_Node000004" class="edge">
<title>Node1&#45;&gt;Node4</title>
<g id="a_edge3_Node000001_Node000004"><a xlink:title=" ">
<path fill="none" stroke="#63b8ff" d="M313.45,-126.11C318.44,-118.06 323.51,-108.91 327.12,-100 337.52,-74.39 342.87,-41.91 344.99,-26.26"/>
<polygon fill="#63b8ff" stroke="#63b8ff" points="310.61,-124.05 308.1,-134.35 316.48,-127.86 310.61,-124.05"/>
</a>
</g>
</g>
<!-- Node5 -->
<g id="Node000005" class="node">
<title>Node5</title>
<g id="a_Node000005"><a xlink:href="_relationship_connection_line_graphics_item_8h.html" target="_top" xlink:title=" ">
<polygon fill="white" stroke="#666666" points="533.75,-100 374.5,-100 374.5,-68 533.75,-68 533.75,-100"/>
<text xml:space="preserve" text-anchor="start" x="382.5" y="-86.5" font-family="Helvetica,sans-Serif" font-size="10.00">src/view/RelationshipConnection</text>
<text xml:space="preserve" text-anchor="middle" x="454.12" y="-74.5" font-family="Helvetica,sans-Serif" font-size="10.00">LineGraphicsItem.h</text>
</a>
</g>
</g>
<!-- Node1&#45;&gt;Node5 -->
<g id="edge4_Node000001_Node000005" class="edge">
<title>Node1&#45;&gt;Node5</title>
<g id="a_edge4_Node000001_Node000005"><a xlink:title=" ">
<path fill="none" stroke="#63b8ff" d="M343.62,-131.16C367.15,-121.33 395.12,-109.65 417.04,-100.49"/>
<polygon fill="#63b8ff" stroke="#63b8ff" points="342.44,-127.86 334.57,-134.94 345.14,-134.32 342.44,-127.86"/>
</a>
</g>
</g>
<!-- Node5&#45;&gt;Node4 -->
<g id="edge5_Node000005_Node000004" class="edge">
<title>Node5&#45;&gt;Node4</title>
<g id="a_edge5_Node000005_Node000004"><a xlink:title=" ">
<path fill="none" stroke="#63b8ff" d="M419.06,-61.57C399.67,-49.72 376.54,-35.59 361.61,-26.46"/>
<polygon fill="#63b8ff" stroke="#63b8ff" points="417.15,-64.51 427.51,-66.74 420.8,-58.54 417.15,-64.51"/>
</a>
</g>
</g>
<!-- Node6 -->
<g id="Node000006" class="node">
<title>Node6</title>
<g id="a_Node000006"><a xlink:href="_relationship_connection_line_graphics_item_8cpp.html" target="_top" xlink:title=" ">
<polygon fill="white" stroke="#666666" points="592.75,-32 433.5,-32 433.5,0 592.75,0 592.75,-32"/>
<text xml:space="preserve" text-anchor="start" x="441.5" y="-18.5" font-family="Helvetica,sans-Serif" font-size="10.00">src/view/RelationshipConnection</text>
<text xml:space="preserve" text-anchor="middle" x="513.12" y="-6.5" font-family="Helvetica,sans-Serif" font-size="10.00">LineGraphicsItem.cpp</text>
</a>
</g>
</g>
<!-- Node5&#45;&gt;Node6 -->
<g id="edge6_Node000005_Node000006" class="edge">
<title>Node5&#45;&gt;Node6</title>
<g id="a_edge6_Node000005_Node000006"><a xlink:title=" ">
<path fill="none" stroke="#63b8ff" d="M475.45,-59.15C483.47,-50.17 492.38,-40.21 499.52,-32.22"/>
<polygon fill="#63b8ff" stroke="#63b8ff" points="472.87,-56.78 468.82,-66.56 478.09,-61.44 472.87,-56.78"/>
</a>
</g>
</g>
</g>
</svg>
