<?xml version="1.0" encoding="UTF-8" standalone="no"?>
<!DOCTYPE svg PUBLIC "-//W3C//DTD SVG 1.1//EN"
 "http://www.w3.org/Graphics/SVG/1.1/DTD/svg11.dtd">
<!-- Generated by graphviz version 14.1.1 (20251213.1925)
 -->
<!-- Title: src/viewer/ConnectionGraphicsItem.h Pages: 1 -->
<svg width="503pt" height="176pt"
 viewBox="0.00 0.00 503.00 176.00" xmlns="http://www.w3.org/2000/svg" xmlns:xlink="http://www.w3.org/1999/xlink">
<g id="graph0" class="graph" transform="scale(1 1) rotate(0) translate(4 172)">
<title>src/viewer/ConnectionGraphicsItem.h</title>
<!-- Node1 -->
<g id="Node000001" class="node">
<title>Node1</title>
<g id="a_Node000001"><a xlink:title=" ">
<polygon fill="#999999" stroke="#666666" points="231.26,-168 78.76,-168 78.76,-136 231.26,-136 231.26,-168"/>
<text xml:space="preserve" text-anchor="start" x="86.76" y="-154.5" font-family="Helvetica,sans-Serif" font-size="10.00">src/viewer/ConnectionGraphics</text>
<text xml:space="preserve" text-anchor="middle" x="155.01" y="-142.5" font-family="Helvetica,sans-Serif" font-size="10.00">Item.h</text>
</a>
</g>
</g>
<!-- Node2 -->
<g id="Node000002" class="node">
<title>Node2</title>
<g id="a_Node000002"><a xlink:href="_diagram_scene_8cpp.html" target="_top" xlink:title=" ">
<polygon fill="white" stroke="#666666" points="188.26,-26 29.76,-26 29.76,-6 188.26,-6 188.26,-26"/>
<text xml:space="preserve" text-anchor="middle" x="109.01" y="-12.5" font-family="Helvetica,sans-Serif" font-size="10.00">src/controller/DiagramScene.cpp</text>
</a>
</g>
</g>
<!-- Node1&#45;&gt;Node2 -->
<g id="edge1_Node000001_Node000002" class="edge">
<title>Node1&#45;&gt;Node2</title>
<g id="a_edge1_Node000001_Node000002"><a xlink:title=" ">
<path fill="none" stroke="#63b8ff" d="M67.52,-140.1C43.73,-132.67 20.55,-120.35 6.01,-100 -2.26,-88.43 -1.49,-80.08 6.01,-68 19.32,-46.55 44.63,-33.85 66.82,-26.48"/>
<polygon fill="#63b8ff" stroke="#63b8ff" points="66.43,-143.43 77,-142.77 68.32,-136.69 66.43,-143.43"/>
</a>
</g>
</g>
<!-- Node3 -->
<g id="Node000003" class="node">
<title>Node3</title>
<g id="a_Node000003"><a xlink:href="_bezier_control_point_8cpp.html" target="_top" xlink:title=" ">
<polygon fill="white" stroke="#666666" points="138.63,-100 15.38,-100 15.38,-68 138.63,-68 138.63,-100"/>
<text xml:space="preserve" text-anchor="start" x="23.38" y="-86.5" font-family="Helvetica,sans-Serif" font-size="10.00">src/viewer/BezierControl</text>
<text xml:space="preserve" text-anchor="middle" x="77.01" y="-74.5" font-family="Helvetica,sans-Serif" font-size="10.00">Point.cpp</text>
</a>
</g>
</g>
<!-- Node1&#45;&gt;Node3 -->
<g id="edge2_Node000001_Node000003" class="edge">
<title>Node1&#45;&gt;Node3</title>
<g id="a_edge2_Node000001_Node000003"><a xlink:title=" ">
<path fill="none" stroke="#63b8ff" d="M128.21,-128.32C117.34,-119.13 105.08,-108.75 95.27,-100.45"/>
<polygon fill="#63b8ff" stroke="#63b8ff" points="125.87,-130.93 135.76,-134.71 130.39,-125.58 125.87,-130.93"/>
</a>
</g>
</g>
<!-- Node4 -->
<g id="Node000004" class="node">
<title>Node4</title>
<g id="a_Node000004"><a xlink:href="_connection_graphics_item_8cpp.html" target="_top" xlink:title=" ">
<polygon fill="white" stroke="#666666" points="309.26,-100 156.76,-100 156.76,-68 309.26,-68 309.26,-100"/>
<text xml:space="preserve" text-anchor="start" x="164.76" y="-86.5" font-family="Helvetica,sans-Serif" font-size="10.00">src/viewer/ConnectionGraphics</text>
<text xml:space="preserve" text-anchor="middle" x="233.01" y="-74.5" font-family="Helvetica,sans-Serif" font-size="10.00">Item.cpp</text>
</a>
</g>
</g>
<!-- Node1&#45;&gt;Node4 -->
<g id="edge3_Node000001_Node000004" class="edge">
<title>Node1&#45;&gt;Node4</title>
<g id="a_edge3_Node000001_Node000004"><a xlink:title=" ">
<path fill="none" stroke="#63b8ff" d="M181.81,-128.32C192.68,-119.13 204.94,-108.75 214.75,-100.45"/>
<polygon fill="#63b8ff" stroke="#63b8ff" points="179.63,-125.58 174.26,-134.71 184.15,-130.93 179.63,-125.58"/>
</a>
</g>
</g>
<!-- Node5 -->
<g id="Node000005" class="node">
<title>Node5</title>
<g id="a_Node000005"><a xlink:href="_relationship_connection_line_graphics_item_8h.html" target="_top" xlink:title=" ">
<polygon fill="white" stroke="#666666" points="494.76,-100 327.26,-100 327.26,-68 494.76,-68 494.76,-100"/>
<text xml:space="preserve" text-anchor="start" x="335.26" y="-86.5" font-family="Helvetica,sans-Serif" font-size="10.00">src/viewer/RelationshipConnection</text>
<text xml:space="preserve" text-anchor="middle" x="411.01" y="-74.5" font-family="Helvetica,sans-Serif" font-size="10.00">LineGraphicsItem.h</text>
</a>
</g>
</g>
<!-- Node1&#45;&gt;Node5 -->
<g id="edge4_Node000001_Node000005" class="edge">
<title>Node1&#45;&gt;Node5</title>
<g id="a_edge4_Node000001_Node000005"><a xlink:title=" ">
<path fill="none" stroke="#63b8ff" d="M226.11,-132.67C265.36,-122.55 313.57,-110.12 350.92,-100.49"/>
<polygon fill="#63b8ff" stroke="#63b8ff" points="225.31,-129.26 216.5,-135.15 227.05,-136.04 225.31,-129.26"/>
</a>
</g>
</g>
<!-- Node5&#45;&gt;Node2 -->
<g id="edge5_Node000005_Node000002" class="edge">
<title>Node5&#45;&gt;Node2</title>
<g id="a_edge5_Node000005_Node000002"><a xlink:title=" ">
<path fill="none" stroke="#63b8ff" d="M329.04,-65.09C272.02,-52.62 198.27,-36.51 152.3,-26.46"/>
<polygon fill="#63b8ff" stroke="#63b8ff" points="328.21,-68.49 338.73,-67.2 329.7,-61.65 328.21,-68.49"/>
</a>
</g>
</g>
<!-- Node6 -->
<g id="Node000006" class="node">
<title>Node6</title>
<g id="a_Node000006"><a xlink:href="_relationship_connection_line_graphics_item_8cpp.html" target="_top" xlink:title=" ">
<polygon fill="white" stroke="#666666" points="494.76,-32 327.26,-32 327.26,0 494.76,0 494.76,-32"/>
<text xml:space="preserve" text-anchor="start" x="335.26" y="-18.5" font-family="Helvetica,sans-Serif" font-size="10.00">src/viewer/RelationshipConnection</text>
<text xml:space="preserve" text-anchor="middle" x="411.01" y="-6.5" font-family="Helvetica,sans-Serif" font-size="10.00">LineGraphicsItem.cpp</text>
</a>
</g>
</g>
<!-- Node5&#45;&gt;Node6 -->
<g id="edge6_Node000005_Node000006" class="edge">
<title>Node5&#45;&gt;Node6</title>
<g id="a_edge6_Node000005_Node000006"><a xlink:title=" ">
<path fill="none" stroke="#63b8ff" d="M411.01,-56.31C411.01,-48.12 411.01,-39.38 411.01,-32.22"/>
<polygon fill="#63b8ff" stroke="#63b8ff" points="407.51,-56.18 411.01,-66.18 414.51,-56.18 407.51,-56.18"/>
</a>
</g>
</g>
</g>
</svg>
