<?xml version="1.0" encoding="UTF-8" standalone="no"?>
<!DOCTYPE svg PUBLIC "-//W3C//DTD SVG 1.1//EN"
 "http://www.w3.org/Graphics/SVG/1.1/DTD/svg11.dtd">
<!-- Generated by graphviz version 14.1.1 (20251213.1925)
 -->
<!-- Title: src/model/ConnectionLine.h Pages: 1 -->
<svg width="1444pt" height="232pt"
 viewBox="0.00 0.00 1444.00 232.00" xmlns="http://www.w3.org/2000/svg" xmlns:xlink="http://www.w3.org/1999/xlink">
<g id="graph0" class="graph" transform="scale(1 1) rotate(0) translate(4 228)">
<title>src/model/ConnectionLine.h</title>
<!-- Node1 -->
<g id="Node000001" class="node">
<title>Node1</title>
<g id="a_Node000001"><a xlink:title=" ">
<polygon fill="#999999" stroke="#666666" points="1124.38,-224 986.88,-224 986.88,-204 1124.38,-204 1124.38,-224"/>
<text xml:space="preserve" text-anchor="middle" x="1055.62" y="-210.5" font-family="Helvetica,sans-Serif" font-size="10.00">src/model/ConnectionLine.h</text>
</a>
</g>
</g>
<!-- Node2 -->
<g id="Node000002" class="node">
<title>Node2</title>
<g id="a_Node000002"><a xlink:href="_diagram_scene_8h.html" target="_top" xlink:title=" ">
<polygon fill="white" stroke="#666666" points="1078.62,-162 930.62,-162 930.62,-142 1078.62,-142 1078.62,-162"/>
<text xml:space="preserve" text-anchor="middle" x="1004.62" y="-148.5" font-family="Helvetica,sans-Serif" font-size="10.00">src/controller/DiagramScene.h</text>
</a>
</g>
</g>
<!-- Node1&#45;&gt;Node2 -->
<g id="edge1_Node000001_Node000002" class="edge">
<title>Node1&#45;&gt;Node2</title>
<g id="a_edge1_Node000001_Node000002"><a xlink:title=" ">
<path fill="none" stroke="#63b8ff" d="M1040.26,-194.92C1031.06,-184.1 1019.75,-170.79 1012.37,-162.11"/>
<polygon fill="#63b8ff" stroke="#63b8ff" points="1037.53,-197.12 1046.68,-202.47 1042.87,-192.59 1037.53,-197.12"/>
</a>
</g>
</g>
<!-- Node4 -->
<g id="Node000004" class="node">
<title>Node4</title>
<g id="a_Node000004"><a xlink:href="_connection_line_8cpp.html" target="_top" xlink:title=" ">
<polygon fill="white" stroke="#666666" points="1435.62,-94 1287.62,-94 1287.62,-74 1435.62,-74 1435.62,-94"/>
<text xml:space="preserve" text-anchor="middle" x="1361.62" y="-80.5" font-family="Helvetica,sans-Serif" font-size="10.00">src/model/ConnectionLine.cpp</text>
</a>
</g>
</g>
<!-- Node1&#45;&gt;Node4 -->
<g id="edge11_Node000001_Node000004" class="edge">
<title>Node1&#45;&gt;Node4</title>
<g id="a_edge11_Node000001_Node000004"><a xlink:title=" ">
<path fill="none" stroke="#63b8ff" d="M1082.66,-197.98C1096.78,-189.73 1114.09,-178.97 1128.62,-168 1145.45,-155.3 1145.09,-146.04 1163.62,-136 1189.38,-122.05 1264.19,-104.9 1314.12,-94.46"/>
<polygon fill="#63b8ff" stroke="#63b8ff" points="1081.28,-194.74 1074.35,-202.75 1084.76,-200.81 1081.28,-194.74"/>
</a>
</g>
</g>
<!-- Node8 -->
<g id="Node000008" class="node">
<title>Node8</title>
<g id="a_Node000008"><a xlink:href="_main_window_8h.html" target="_top" xlink:title=" ">
<polygon fill="white" stroke="#666666" points="1269.5,-94 1141.75,-94 1141.75,-74 1269.5,-74 1269.5,-94"/>
<text xml:space="preserve" text-anchor="middle" x="1205.62" y="-80.5" font-family="Helvetica,sans-Serif" font-size="10.00">src/viewer/MainWindow.h</text>
</a>
</g>
</g>
<!-- Node1&#45;&gt;Node8 -->
<g id="edge25_Node000001_Node000008" class="edge">
<title>Node1&#45;&gt;Node8</title>
<g id="a_edge25_Node000001_Node000008"><a xlink:title=" ">
<path fill="none" stroke="#63b8ff" d="M1070.95,-195.33C1085.5,-179.05 1108.39,-154.64 1130.62,-136 1149.81,-119.91 1174.09,-104.13 1189.74,-94.49"/>
<polygon fill="#63b8ff" stroke="#63b8ff" points="1068.4,-192.93 1064.42,-202.74 1073.65,-197.56 1068.4,-192.93"/>
</a>
</g>
</g>
<!-- Node12 -->
<g id="Node000012" class="node">
<title>Node12</title>
<g id="a_Node000012"><a xlink:href="_json_helper_8cpp.html" target="_top" xlink:title=" ">
<polygon fill="white" stroke="#666666" points="1302.62,-162 1172.62,-162 1172.62,-142 1302.62,-142 1302.62,-162"/>
<text xml:space="preserve" text-anchor="middle" x="1237.62" y="-148.5" font-family="Helvetica,sans-Serif" font-size="10.00">src/model/JsonHelper.cpp</text>
</a>
</g>
</g>
<!-- Node1&#45;&gt;Node12 -->
<g id="edge12_Node000001_Node000012" class="edge">
<title>Node1&#45;&gt;Node12</title>
<g id="a_edge12_Node000001_Node000012"><a xlink:title=" ">
<path fill="none" stroke="#63b8ff" d="M1094.66,-200.13C1129.03,-188.8 1178.29,-172.56 1209.09,-162.41"/>
<polygon fill="#63b8ff" stroke="#63b8ff" points="1093.9,-196.7 1085.5,-203.15 1096.09,-203.34 1093.9,-196.7"/>
</a>
</g>
</g>
<!-- Node13 -->
<g id="Node000013" class="node">
<title>Node13</title>
<g id="a_Node000013"><a xlink:href="_relationship_connection_line_8h.html" target="_top" xlink:title=" ">
<polygon fill="white" stroke="#666666" points="234.25,-100 69,-100 69,-68 234.25,-68 234.25,-100"/>
<text xml:space="preserve" text-anchor="start" x="77" y="-86.5" font-family="Helvetica,sans-Serif" font-size="10.00">src/model/RelationshipConnection</text>
<text xml:space="preserve" text-anchor="middle" x="151.62" y="-74.5" font-family="Helvetica,sans-Serif" font-size="10.00">Line.h</text>
</a>
</g>
</g>
<!-- Node1&#45;&gt;Node13 -->
<g id="edge13_Node000001_Node000013" class="edge">
<title>Node1&#45;&gt;Node13</title>
<g id="a_edge13_Node000001_Node000013"><a xlink:title=" ">
<path fill="none" stroke="#63b8ff" d="M975.58,-211.97C859.5,-209.35 638.06,-200.17 452.62,-168 360.23,-151.97 255.25,-119.7 196.89,-100.46"/>
<polygon fill="#63b8ff" stroke="#63b8ff" points="975.23,-215.46 985.3,-212.17 975.38,-208.46 975.23,-215.46"/>
</a>
</g>
</g>
<!-- Node16 -->
<g id="Node000016" class="node">
<title>Node16</title>
<g id="a_Node000016"><a xlink:href="_connection_graphics_item_8h.html" target="_top" xlink:title=" ">
<polygon fill="white" stroke="#666666" points="613.88,-168 461.38,-168 461.38,-136 613.88,-136 613.88,-168"/>
<text xml:space="preserve" text-anchor="start" x="469.38" y="-154.5" font-family="Helvetica,sans-Serif" font-size="10.00">src/viewer/ConnectionGraphics</text>
<text xml:space="preserve" text-anchor="middle" x="537.62" y="-142.5" font-family="Helvetica,sans-Serif" font-size="10.00">Item.h</text>
</a>
</g>
</g>
<!-- Node1&#45;&gt;Node16 -->
<g id="edge18_Node000001_Node000016" class="edge">
<title>Node1&#45;&gt;Node16</title>
<g id="a_edge18_Node000001_Node000016"><a xlink:title=" ">
<path fill="none" stroke="#63b8ff" d="M975.19,-203.68C876.66,-192.27 710.94,-173.08 614.2,-161.87"/>
<polygon fill="#63b8ff" stroke="#63b8ff" points="974.73,-207.15 985.07,-204.83 975.54,-200.2 974.73,-207.15"/>
</a>
</g>
</g>
<!-- Node3 -->
<g id="Node000003" class="node">
<title>Node3</title>
<g id="a_Node000003"><a xlink:href="_diagram_scene_8cpp.html" target="_top" xlink:title=" ">
<polygon fill="white" stroke="#666666" points="526.88,-26 368.38,-26 368.38,-6 526.88,-6 526.88,-26"/>
<text xml:space="preserve" text-anchor="middle" x="447.62" y="-12.5" font-family="Helvetica,sans-Serif" font-size="10.00">src/controller/DiagramScene.cpp</text>
</a>
</g>
</g>
<!-- Node2&#45;&gt;Node3 -->
<g id="edge2_Node000002_Node000003" class="edge">
<title>Node2&#45;&gt;Node3</title>
<g id="a_edge2_Node000002_Node000003"><a xlink:title=" ">
<path fill="none" stroke="#63b8ff" d="M994.79,-131.77C983.6,-112.09 963.34,-82.4 936.62,-68 867.77,-30.91 646.93,-20.79 526.97,-18.03"/>
<polygon fill="#63b8ff" stroke="#63b8ff" points="991.64,-133.3 999.47,-140.44 997.8,-129.98 991.64,-133.3"/>
</a>
</g>
</g>
<!-- Node2&#45;&gt;Node4 -->
<g id="edge3_Node000002_Node000004" class="edge">
<title>Node2&#45;&gt;Node4</title>
<g id="a_edge3_Node000002_Node000004"><a xlink:title=" ">
<path fill="none" stroke="#63b8ff" d="M1066.91,-139.49C1135.94,-126.72 1245.99,-106.38 1310.28,-94.49"/>
<polygon fill="#63b8ff" stroke="#63b8ff" points="1066.46,-136.01 1057.26,-141.27 1067.73,-142.89 1066.46,-136.01"/>
</a>
</g>
</g>
<!-- Node5 -->
<g id="Node000005" class="node">
<title>Node5</title>
<g id="a_Node000005"><a xlink:href="_connection_graphics_item_8cpp.html" target="_top" xlink:title=" ">
<polygon fill="white" stroke="#666666" points="769.88,-100 617.38,-100 617.38,-68 769.88,-68 769.88,-100"/>
<text xml:space="preserve" text-anchor="start" x="625.38" y="-86.5" font-family="Helvetica,sans-Serif" font-size="10.00">src/viewer/ConnectionGraphics</text>
<text xml:space="preserve" text-anchor="middle" x="693.62" y="-74.5" font-family="Helvetica,sans-Serif" font-size="10.00">Item.cpp</text>
</a>
</g>
</g>
<!-- Node2&#45;&gt;Node5 -->
<g id="edge4_Node000002_Node000005" class="edge">
<title>Node2&#45;&gt;Node5</title>
<g id="a_edge4_Node000002_Node000005"><a xlink:title=" ">
<path fill="none" stroke="#63b8ff" d="M948.96,-139.19C898.04,-128.38 822.37,-112.32 766.62,-100.49"/>
<polygon fill="#63b8ff" stroke="#63b8ff" points="948.08,-142.58 958.59,-141.23 949.53,-135.73 948.08,-142.58"/>
</a>
</g>
</g>
<!-- Node6 -->
<g id="Node000006" class="node">
<title>Node6</title>
<g id="a_Node000006"><a xlink:href="_diagram_view_8cpp.html" target="_top" xlink:title=" ">
<polygon fill="white" stroke="#666666" points="1123.88,-94 983.38,-94 983.38,-74 1123.88,-74 1123.88,-94"/>
<text xml:space="preserve" text-anchor="middle" x="1053.62" y="-80.5" font-family="Helvetica,sans-Serif" font-size="10.00">src/viewer/DiagramView.cpp</text>
</a>
</g>
</g>
<!-- Node2&#45;&gt;Node6 -->
<g id="edge5_Node000002_Node000006" class="edge">
<title>Node2&#45;&gt;Node6</title>
<g id="a_edge5_Node000002_Node000006"><a xlink:title=" ">
<path fill="none" stroke="#63b8ff" d="M1018.35,-132.52C1027.54,-120.13 1039.27,-104.33 1046.62,-94.44"/>
<polygon fill="#63b8ff" stroke="#63b8ff" points="1015.7,-130.21 1012.55,-140.33 1021.32,-134.39 1015.7,-130.21"/>
</a>
</g>
</g>
<!-- Node7 -->
<g id="Node000007" class="node">
<title>Node7</title>
<g id="a_Node000007"><a xlink:href="_element_graphics_item_8cpp.html" target="_top" xlink:title=" ">
<polygon fill="white" stroke="#666666" points="927.12,-100 788.12,-100 788.12,-68 927.12,-68 927.12,-100"/>
<text xml:space="preserve" text-anchor="start" x="796.12" y="-86.5" font-family="Helvetica,sans-Serif" font-size="10.00">src/viewer/ElementGraphics</text>
<text xml:space="preserve" text-anchor="middle" x="857.62" y="-74.5" font-family="Helvetica,sans-Serif" font-size="10.00">Item.cpp</text>
</a>
</g>
</g>
<!-- Node2&#45;&gt;Node7 -->
<g id="edge6_Node000002_Node000007" class="edge">
<title>Node2&#45;&gt;Node7</title>
<g id="a_edge6_Node000002_Node000007"><a xlink:title=" ">
<path fill="none" stroke="#63b8ff" d="M973.29,-136.93C949.42,-126.21 916.58,-111.47 891.99,-100.43"/>
<polygon fill="#63b8ff" stroke="#63b8ff" points="971.63,-140.02 982.18,-140.92 974.49,-133.63 971.63,-140.02"/>
</a>
</g>
</g>
<!-- Node2&#45;&gt;Node8 -->
<g id="edge7_Node000002_Node000008" class="edge">
<title>Node2&#45;&gt;Node8</title>
<g id="a_edge7_Node000002_Node000008"><a xlink:title=" ">
<path fill="none" stroke="#63b8ff" d="M1044.13,-138.03C1083.2,-125.2 1142.05,-105.87 1176.88,-94.44"/>
<polygon fill="#63b8ff" stroke="#63b8ff" points="1043.27,-134.63 1034.86,-141.07 1045.45,-141.28 1043.27,-134.63"/>
</a>
</g>
</g>
<!-- Node9 -->
<g id="Node000009" class="node">
<title>Node9</title>
<g id="a_Node000009"><a xlink:href="main_8cpp.html" target="_top" xlink:title=" ">
<polygon fill="white" stroke="#666666" points="1180.75,-26 1108.5,-26 1108.5,-6 1180.75,-6 1180.75,-26"/>
<text xml:space="preserve" text-anchor="middle" x="1144.62" y="-12.5" font-family="Helvetica,sans-Serif" font-size="10.00">src/main.cpp</text>
</a>
</g>
</g>
<!-- Node8&#45;&gt;Node9 -->
<g id="edge8_Node000008_Node000009" class="edge">
<title>Node8&#45;&gt;Node9</title>
<g id="a_edge8_Node000008_Node000009"><a xlink:title=" ">
<path fill="none" stroke="#63b8ff" d="M1189.22,-65.25C1177.67,-52.76 1162.67,-36.53 1153.35,-26.44"/>
<polygon fill="#63b8ff" stroke="#63b8ff" points="1186.5,-67.46 1195.86,-72.43 1191.64,-62.71 1186.5,-67.46"/>
</a>
</g>
</g>
<!-- Node10 -->
<g id="Node000010" class="node">
<title>Node10</title>
<g id="a_Node000010"><a xlink:href="_main_window_8cpp.html" target="_top" xlink:title=" ">
<polygon fill="white" stroke="#666666" points="917.75,-26 779.5,-26 779.5,-6 917.75,-6 917.75,-26"/>
<text xml:space="preserve" text-anchor="middle" x="848.62" y="-12.5" font-family="Helvetica,sans-Serif" font-size="10.00">src/viewer/MainWindow.cpp</text>
</a>
</g>
</g>
<!-- Node8&#45;&gt;Node10 -->
<g id="edge9_Node000008_Node000010" class="edge">
<title>Node8&#45;&gt;Node10</title>
<g id="a_edge9_Node000008_Node000010"><a xlink:title=" ">
<path fill="none" stroke="#63b8ff" d="M1149.56,-71.33C1143.85,-70.19 1138.12,-69.06 1132.62,-68 1053.18,-52.71 960.95,-36.41 903.68,-26.47"/>
<polygon fill="#63b8ff" stroke="#63b8ff" points="1148.51,-74.69 1159,-73.24 1149.9,-67.83 1148.51,-74.69"/>
</a>
</g>
</g>
<!-- Node11 -->
<g id="Node000011" class="node">
<title>Node11</title>
<g id="a_Node000011"><a xlink:href="_quick_acess_tool_bar_8cpp.html" target="_top" xlink:title=" ">
<polygon fill="white" stroke="#666666" points="1334.25,-32 1199,-32 1199,0 1334.25,0 1334.25,-32"/>
<text xml:space="preserve" text-anchor="start" x="1207" y="-18.5" font-family="Helvetica,sans-Serif" font-size="10.00">src/viewer/QuickAcessTool</text>
<text xml:space="preserve" text-anchor="middle" x="1266.62" y="-6.5" font-family="Helvetica,sans-Serif" font-size="10.00">Bar.cpp</text>
</a>
</g>
</g>
<!-- Node8&#45;&gt;Node11 -->
<g id="edge10_Node000008_Node000011" class="edge">
<title>Node8&#45;&gt;Node11</title>
<g id="a_edge10_Node000008_Node000011"><a xlink:title=" ">
<path fill="none" stroke="#63b8ff" d="M1221.99,-65.29C1231.51,-55 1243.38,-42.15 1252.48,-32.3"/>
<polygon fill="#63b8ff" stroke="#63b8ff" points="1219.61,-62.71 1215.39,-72.43 1224.75,-67.46 1219.61,-62.71"/>
</a>
</g>
</g>
<!-- Node13&#45;&gt;Node3 -->
<g id="edge14_Node000013_Node000003" class="edge">
<title>Node13&#45;&gt;Node3</title>
<g id="a_edge14_Node000013_Node000003"><a xlink:title=" ">
<path fill="none" stroke="#63b8ff" d="M231.97,-65.09C287.86,-52.62 360.14,-36.51 405.2,-26.46"/>
<polygon fill="#63b8ff" stroke="#63b8ff" points="231.5,-61.6 222.5,-67.2 233.02,-68.44 231.5,-61.6"/>
</a>
</g>
</g>
<!-- Node13&#45;&gt;Node10 -->
<g id="edge16_Node000013_Node000010" class="edge">
<title>Node13&#45;&gt;Node10</title>
<g id="a_edge16_Node000013_Node000010"><a xlink:title=" ">
<path fill="none" stroke="#63b8ff" d="M245.69,-67.68C444.96,-43.32 668.71,-27.87 779.37,-21.03"/>
<polygon fill="#63b8ff" stroke="#63b8ff" points="245.41,-64.18 235.91,-68.88 246.27,-71.13 245.41,-64.18"/>
</a>
</g>
</g>
<!-- Node14 -->
<g id="Node000014" class="node">
<title>Node14</title>
<g id="a_Node000014"><a xlink:href="_relationship_connection_line_8cpp.html" target="_top" xlink:title=" ">
<polygon fill="white" stroke="#666666" points="165.25,-32 0,-32 0,0 165.25,0 165.25,-32"/>
<text xml:space="preserve" text-anchor="start" x="8" y="-18.5" font-family="Helvetica,sans-Serif" font-size="10.00">src/model/RelationshipConnection</text>
<text xml:space="preserve" text-anchor="middle" x="82.62" y="-6.5" font-family="Helvetica,sans-Serif" font-size="10.00">Line.cpp</text>
</a>
</g>
</g>
<!-- Node13&#45;&gt;Node14 -->
<g id="edge15_Node000013_Node000014" class="edge">
<title>Node13&#45;&gt;Node14</title>
<g id="a_edge15_Node000013_Node000014"><a xlink:title=" ">
<path fill="none" stroke="#63b8ff" d="M127.57,-59.99C117.95,-50.79 107.15,-40.46 98.54,-32.22"/>
<polygon fill="#63b8ff" stroke="#63b8ff" points="124.88,-62.26 134.53,-66.65 129.72,-57.2 124.88,-62.26"/>
</a>
</g>
</g>
<!-- Node15 -->
<g id="Node000015" class="node">
<title>Node15</title>
<g id="a_Node000015"><a xlink:href="_relationship_connection_line_graphics_item_8cpp.html" target="_top" xlink:title=" ">
<polygon fill="white" stroke="#666666" points="350.38,-32 182.88,-32 182.88,0 350.38,0 350.38,-32"/>
<text xml:space="preserve" text-anchor="start" x="190.88" y="-18.5" font-family="Helvetica,sans-Serif" font-size="10.00">src/viewer/RelationshipConnection</text>
<text xml:space="preserve" text-anchor="middle" x="266.62" y="-6.5" font-family="Helvetica,sans-Serif" font-size="10.00">LineGraphicsItem.cpp</text>
</a>
</g>
</g>
<!-- Node13&#45;&gt;Node15 -->
<g id="edge17_Node000013_Node000015" class="edge">
<title>Node13&#45;&gt;Node15</title>
<g id="a_edge17_Node000013_Node000015"><a xlink:title=" ">
<path fill="none" stroke="#63b8ff" d="M188.57,-61.8C205.24,-52.23 224.58,-41.13 239.83,-32.38"/>
<polygon fill="#63b8ff" stroke="#63b8ff" points="186.83,-58.76 179.9,-66.77 190.32,-64.83 186.83,-58.76"/>
</a>
</g>
</g>
<!-- Node16&#45;&gt;Node3 -->
<g id="edge19_Node000016_Node000003" class="edge">
<title>Node16&#45;&gt;Node3</title>
<g id="a_edge19_Node000016_Node000003"><a xlink:title=" ">
<path fill="none" stroke="#63b8ff" d="M497.13,-129.39C485.74,-121.53 474.37,-111.65 466.62,-100 451.16,-76.73 448.18,-42.58 447.67,-26.3"/>
<polygon fill="#63b8ff" stroke="#63b8ff" points="495.04,-132.21 505.34,-134.7 498.84,-126.33 495.04,-132.21"/>
</a>
</g>
</g>
<!-- Node16&#45;&gt;Node5 -->
<g id="edge21_Node000016_Node000005" class="edge">
<title>Node16&#45;&gt;Node5</title>
<g id="a_edge21_Node000016_Node000005"><a xlink:title=" ">
<path fill="none" stroke="#63b8ff" d="M584.52,-131.16C607.75,-121.33 635.37,-109.65 657.01,-100.49"/>
<polygon fill="#63b8ff" stroke="#63b8ff" points="583.44,-127.82 575.59,-134.94 586.17,-134.26 583.44,-127.82"/>
</a>
</g>
</g>
<!-- Node17 -->
<g id="Node000017" class="node">
<title>Node17</title>
<g id="a_Node000017"><a xlink:href="_bezier_control_point_8cpp.html" target="_top" xlink:title=" ">
<polygon fill="white" stroke="#666666" points="599.25,-100 476,-100 476,-68 599.25,-68 599.25,-100"/>
<text xml:space="preserve" text-anchor="start" x="484" y="-86.5" font-family="Helvetica,sans-Serif" font-size="10.00">src/viewer/BezierControl</text>
<text xml:space="preserve" text-anchor="middle" x="537.62" y="-74.5" font-family="Helvetica,sans-Serif" font-size="10.00">Point.cpp</text>
</a>
</g>
</g>
<!-- Node16&#45;&gt;Node17 -->
<g id="edge20_Node000016_Node000017" class="edge">
<title>Node16&#45;&gt;Node17</title>
<g id="a_edge20_Node000016_Node000017"><a xlink:title=" ">
<path fill="none" stroke="#63b8ff" d="M537.62,-124.31C537.62,-116.12 537.62,-107.38 537.62,-100.22"/>
<polygon fill="#63b8ff" stroke="#63b8ff" points="534.13,-124.18 537.63,-134.18 541.13,-124.18 534.13,-124.18"/>
</a>
</g>
</g>
<!-- Node18 -->
<g id="Node000018" class="node">
<title>Node18</title>
<g id="a_Node000018"><a xlink:href="_relationship_connection_line_graphics_item_8h.html" target="_top" xlink:title=" ">
<polygon fill="white" stroke="#666666" points="419.38,-100 251.88,-100 251.88,-68 419.38,-68 419.38,-100"/>
<text xml:space="preserve" text-anchor="start" x="259.88" y="-86.5" font-family="Helvetica,sans-Serif" font-size="10.00">src/viewer/RelationshipConnection</text>
<text xml:space="preserve" text-anchor="middle" x="335.62" y="-74.5" font-family="Helvetica,sans-Serif" font-size="10.00">LineGraphicsItem.h</text>
</a>
</g>
</g>
<!-- Node16&#45;&gt;Node18 -->
<g id="edge22_Node000016_Node000018" class="edge">
<title>Node16&#45;&gt;Node18</title>
<g id="a_edge22_Node000016_Node000018"><a xlink:title=" ">
<path fill="none" stroke="#63b8ff" d="M479.32,-131.95C448.77,-121.97 411.82,-109.89 383.04,-100.49"/>
<polygon fill="#63b8ff" stroke="#63b8ff" points="478.23,-135.28 488.83,-135.06 480.41,-128.62 478.23,-135.28"/>
</a>
</g>
</g>
<!-- Node18&#45;&gt;Node3 -->
<g id="edge23_Node000018_Node000003" class="edge">
<title>Node18&#45;&gt;Node3</title>
<g id="a_edge23_Node000018_Node000003"><a xlink:title=" ">
<path fill="none" stroke="#63b8ff" d="M371.71,-61.74C391.88,-49.85 416.01,-35.63 431.57,-26.46"/>
<polygon fill="#63b8ff" stroke="#63b8ff" points="370.03,-58.67 363.19,-66.76 373.58,-64.7 370.03,-58.67"/>
</a>
</g>
</g>
<!-- Node18&#45;&gt;Node15 -->
<g id="edge24_Node000018_Node000015" class="edge">
<title>Node18&#45;&gt;Node15</title>
<g id="a_edge24_Node000018_Node000015"><a xlink:title=" ">
<path fill="none" stroke="#63b8ff" d="M311.57,-59.99C301.95,-50.79 291.15,-40.46 282.54,-32.22"/>
<polygon fill="#63b8ff" stroke="#63b8ff" points="308.88,-62.26 318.53,-66.65 313.72,-57.2 308.88,-62.26"/>
</a>
</g>
</g>
</g>
</svg>
