<?xml version="1.0" encoding="UTF-8" standalone="no"?>
<!DOCTYPE svg PUBLIC "-//W3C//DTD SVG 1.1//EN"
 "http://www.w3.org/Graphics/SVG/1.1/DTD/svg11.dtd">
<!-- Generated by graphviz version 14.1.1 (20251213.1925)
 -->
<!-- Title: src/view/DiagramView.h Pages: 1 -->
<svg width="775pt" height="84pt"
 viewBox="0.00 0.00 775.00 84.00" xmlns="http://www.w3.org/2000/svg" xmlns:xlink="http://www.w3.org/1999/xlink">
<g id="graph0" class="graph" transform="scale(1 1) rotate(0) translate(4 80)">
<title>src/view/DiagramView.h</title>
<!-- Node1 -->
<g id="Node000001" class="node">
<title>Node1</title>
<g id="a_Node000001"><a xlink:title=" ">
<polygon fill="#999999" stroke="#666666" points="477.75,-76 356,-76 356,-56 477.75,-56 477.75,-76"/>
<text xml:space="preserve" text-anchor="middle" x="416.88" y="-62.5" font-family="Helvetica,sans-Serif" font-size="10.00">src/view/DiagramView.h</text>
</a>
</g>
</g>
<!-- Node2 -->
<g id="Node000002" class="node">
<title>Node2</title>
<g id="a_Node000002"><a xlink:title=" ">
<polygon fill="#e0e0e0" stroke="#999999" points="133.75,-20 0,-20 0,0 133.75,0 133.75,-20"/>
<text xml:space="preserve" text-anchor="middle" x="66.88" y="-6.5" font-family="Helvetica,sans-Serif" font-size="10.00">QtWidgets/QGraphicsView</text>
</a>
</g>
</g>
<!-- Node1&#45;&gt;Node2 -->
<g id="edge1_Node000001_Node000002" class="edge">
<title>Node1&#45;&gt;Node2</title>
<g id="a_edge1_Node000001_Node000002"><a xlink:title=" ">
<path fill="none" stroke="#63b8ff" d="M355.51,-55.53C295.22,-46.23 203.22,-32.04 139.36,-22.18"/>
<polygon fill="#63b8ff" stroke="#63b8ff" points="140.08,-18.75 129.67,-20.69 139.02,-25.67 140.08,-18.75"/>
</a>
</g>
</g>
<!-- Node3 -->
<g id="Node000003" class="node">
<title>Node3</title>
<g id="a_Node000003"><a xlink:title=" ">
<polygon fill="#e0e0e0" stroke="#999999" points="273.75,-20 152,-20 152,0 273.75,0 273.75,-20"/>
<text xml:space="preserve" text-anchor="middle" x="212.88" y="-6.5" font-family="Helvetica,sans-Serif" font-size="10.00">QtGui/QDragEnterEvent</text>
</a>
</g>
</g>
<!-- Node1&#45;&gt;Node3 -->
<g id="edge2_Node000001_Node000003" class="edge">
<title>Node1&#45;&gt;Node3</title>
<g id="a_edge2_Node000001_Node000003"><a xlink:title=" ">
<path fill="none" stroke="#63b8ff" d="M381.34,-55.59C347.62,-46.67 296.72,-33.19 259.7,-23.39"/>
<polygon fill="#63b8ff" stroke="#63b8ff" points="260.71,-20.04 250.15,-20.87 258.92,-26.81 260.71,-20.04"/>
</a>
</g>
</g>
<!-- Node4 -->
<g id="Node000004" class="node">
<title>Node4</title>
<g id="a_Node000004"><a xlink:title=" ">
<polygon fill="#e0e0e0" stroke="#999999" points="414.12,-20 291.62,-20 291.62,0 414.12,0 414.12,-20"/>
<text xml:space="preserve" text-anchor="middle" x="352.88" y="-6.5" font-family="Helvetica,sans-Serif" font-size="10.00">QtGui/QDragMoveEvent</text>
</a>
</g>
</g>
<!-- Node1&#45;&gt;Node4 -->
<g id="edge3_Node000001_Node000004" class="edge">
<title>Node1&#45;&gt;Node4</title>
<g id="a_edge3_Node000001_Node000004"><a xlink:title=" ">
<path fill="none" stroke="#63b8ff" d="M405.73,-55.59C396.55,-47.85 383.32,-36.69 372.39,-27.47"/>
<polygon fill="#63b8ff" stroke="#63b8ff" points="374.95,-25.05 365.05,-21.27 370.44,-30.4 374.95,-25.05"/>
</a>
</g>
</g>
<!-- Node5 -->
<g id="Node000005" class="node">
<title>Node5</title>
<g id="a_Node000005"><a xlink:title=" ">
<polygon fill="#e0e0e0" stroke="#999999" points="531.12,-20 432.62,-20 432.62,0 531.12,0 531.12,-20"/>
<text xml:space="preserve" text-anchor="middle" x="481.88" y="-6.5" font-family="Helvetica,sans-Serif" font-size="10.00">QtGui/QDropEvent</text>
</a>
</g>
</g>
<!-- Node1&#45;&gt;Node5 -->
<g id="edge4_Node000001_Node000005" class="edge">
<title>Node1&#45;&gt;Node5</title>
<g id="a_edge4_Node000001_Node000005"><a xlink:title=" ">
<path fill="none" stroke="#63b8ff" d="M428.2,-55.59C437.52,-47.85 450.95,-36.69 462.05,-27.47"/>
<polygon fill="#63b8ff" stroke="#63b8ff" points="464.06,-30.35 469.52,-21.27 459.59,-24.96 464.06,-30.35"/>
</a>
</g>
</g>
<!-- Node6 -->
<g id="Node000006" class="node">
<title>Node6</title>
<g id="a_Node000006"><a xlink:title=" ">
<polygon fill="#e0e0e0" stroke="#999999" points="654.5,-20 549.25,-20 549.25,0 654.5,0 654.5,-20"/>
<text xml:space="preserve" text-anchor="middle" x="601.88" y="-6.5" font-family="Helvetica,sans-Serif" font-size="10.00">QtGui/QWheelEvent</text>
</a>
</g>
</g>
<!-- Node1&#45;&gt;Node6 -->
<g id="edge5_Node000001_Node000006" class="edge">
<title>Node1&#45;&gt;Node6</title>
<g id="a_edge5_Node000001_Node000006"><a xlink:title=" ">
<path fill="none" stroke="#63b8ff" d="M449.1,-55.59C479.42,-46.74 525.05,-33.43 558.54,-23.65"/>
<polygon fill="#63b8ff" stroke="#63b8ff" points="559.33,-27.07 567.95,-20.9 557.37,-20.35 559.33,-27.07"/>
</a>
</g>
</g>
<!-- Node7 -->
<g id="Node000007" class="node">
<title>Node7</title>
<g id="a_Node000007"><a xlink:title=" ">
<polygon fill="#e0e0e0" stroke="#999999" points="767.25,-20 672.5,-20 672.5,0 767.25,0 767.25,-20"/>
<text xml:space="preserve" text-anchor="middle" x="719.88" y="-6.5" font-family="Helvetica,sans-Serif" font-size="10.00">QtGui/QKeyEvent</text>
</a>
</g>
</g>
<!-- Node1&#45;&gt;Node7 -->
<g id="edge6_Node000001_Node000007" class="edge">
<title>Node1&#45;&gt;Node7</title>
<g id="a_edge6_Node000001_Node000007"><a xlink:title=" ">
<path fill="none" stroke="#63b8ff" d="M470,-55.53C523.51,-46 605.87,-31.32 661.26,-21.45"/>
<polygon fill="#63b8ff" stroke="#63b8ff" points="661.58,-24.94 670.81,-19.74 660.35,-18.05 661.58,-24.94"/>
</a>
</g>
</g>
</g>
</svg>
