<?xml version="1.0" encoding="UTF-8" standalone="no"?>
<!DOCTYPE svg PUBLIC "-//W3C//DTD SVG 1.1//EN"
 "http://www.w3.org/Graphics/SVG/1.1/DTD/svg11.dtd">
<!-- Generated by graphviz version 14.1.1 (20251213.1925)
 -->
<!-- Title: src/model/DiagramSerializer.cpp Pages: 1 -->
<svg width="2056pt" height="320pt"
 viewBox="0.00 0.00 2056.00 320.00" xmlns="http://www.w3.org/2000/svg" xmlns:xlink="http://www.w3.org/1999/xlink">
<g id="graph0" class="graph" transform="scale(1 1) rotate(0) translate(4 316)">
<title>src/model/DiagramSerializer.cpp</title>
<!-- Node1 -->
<g id="Node000001" class="node">
<title>Node1</title>
<g id="a_Node000001"><a xlink:title=" ">
<polygon fill="#999999" stroke="#666666" points="943.88,-312 786.12,-312 786.12,-292 943.88,-292 943.88,-312"/>
<text xml:space="preserve" text-anchor="middle" x="865" y="-298.5" font-family="Helvetica,sans-Serif" font-size="10.00">src/model/DiagramSerializer.cpp</text>
</a>
</g>
</g>
<!-- Node2 -->
<g id="Node000002" class="node">
<title>Node2</title>
<g id="a_Node000002"><a xlink:href="_diagram_serializer_8h.html" target="_top" xlink:title=" ">
<polygon fill="white" stroke="#666666" points="371.38,-256 240.62,-256 240.62,-236 371.38,-236 371.38,-256"/>
<text xml:space="preserve" text-anchor="middle" x="306" y="-242.5" font-family="Helvetica,sans-Serif" font-size="10.00">model/DiagramSerializer.h</text>
</a>
</g>
</g>
<!-- Node1&#45;&gt;Node2 -->
<g id="edge1_Node000001_Node000002" class="edge">
<title>Node1&#45;&gt;Node2</title>
<g id="a_edge1_Node000001_Node000002"><a xlink:title=" ">
<path fill="none" stroke="#63b8ff" d="M785.8,-293.35C678.71,-283 488.98,-264.68 383.03,-254.44"/>
<polygon fill="#63b8ff" stroke="#63b8ff" points="383.58,-250.98 373.29,-253.5 382.91,-257.95 383.58,-250.98"/>
</a>
</g>
</g>
<!-- Node4 -->
<g id="Node000004" class="node">
<title>Node4</title>
<g id="a_Node000004"><a xlink:title=" ">
<polygon fill="#e0e0e0" stroke="#999999" points="124,-200 0,-200 0,-180 124,-180 124,-200"/>
<text xml:space="preserve" text-anchor="middle" x="62" y="-186.5" font-family="Helvetica,sans-Serif" font-size="10.00">QtCore/QJsonDocument</text>
</a>
</g>
</g>
<!-- Node1&#45;&gt;Node4 -->
<g id="edge62_Node000001_Node000004" class="edge">
<title>Node1&#45;&gt;Node4</title>
<g id="a_edge62_Node000001_Node000004"><a xlink:title=" ">
<path fill="none" stroke="#63b8ff" d="M785.74,-298.27C640.09,-292.77 335.33,-278.9 232,-256 180.73,-244.64 124.37,-220.63 91.15,-205.19"/>
<polygon fill="#63b8ff" stroke="#63b8ff" points="92.71,-202.05 82.17,-200.95 89.73,-208.39 92.71,-202.05"/>
</a>
</g>
</g>
<!-- Node8 -->
<g id="Node000008" class="node">
<title>Node8</title>
<g id="a_Node000008"><a xlink:href="_basic_element_8h.html" target="_top" xlink:title=" ">
<polygon fill="white" stroke="#666666" points="1185.12,-138 1070.88,-138 1070.88,-118 1185.12,-118 1185.12,-138"/>
<text xml:space="preserve" text-anchor="middle" x="1128" y="-124.5" font-family="Helvetica,sans-Serif" font-size="10.00">model/BasicElement.h</text>
</a>
</g>
</g>
<!-- Node1&#45;&gt;Node8 -->
<g id="edge7_Node000001_Node000008" class="edge">
<title>Node1&#45;&gt;Node8</title>
<g id="a_edge7_Node000001_Node000008"><a xlink:title=" ">
<path fill="none" stroke="#63b8ff" d="M944.1,-297.06C981.42,-291.77 1024.73,-280.31 1057,-256 1093.03,-228.86 1113.34,-177.79 1122.33,-149.38"/>
<polygon fill="#63b8ff" stroke="#63b8ff" points="1125.67,-150.44 1125.16,-139.85 1118.96,-148.44 1125.67,-150.44"/>
</a>
</g>
</g>
<!-- Node17 -->
<g id="Node000017" class="node">
<title>Node17</title>
<g id="a_Node000017"><a xlink:href="_connection_point_8h.html" target="_top" xlink:title=" ">
<polygon fill="white" stroke="#666666" points="1015.12,-76 918.88,-76 918.88,-56 1015.12,-56 1015.12,-76"/>
<text xml:space="preserve" text-anchor="middle" x="967" y="-62.5" font-family="Helvetica,sans-Serif" font-size="10.00">ConnectionPoint.h</text>
</a>
</g>
</g>
<!-- Node1&#45;&gt;Node17 -->
<g id="edge28_Node000001_Node000017" class="edge">
<title>Node1&#45;&gt;Node17</title>
<g id="a_edge28_Node000001_Node000017"><a xlink:title=" ">
<path fill="none" stroke="#63b8ff" d="M875.89,-291.77C901.21,-269.51 963.59,-209.8 986,-144 992.57,-124.7 985.19,-101.97 977.79,-86.23"/>
<polygon fill="#63b8ff" stroke="#63b8ff" points="980.99,-84.79 973.29,-77.5 974.76,-87.99 980.99,-84.79"/>
</a>
</g>
</g>
<!-- Node18 -->
<g id="Node000018" class="node">
<title>Node18</title>
<g id="a_Node000018"><a xlink:href="_connection_line_8h.html" target="_top" xlink:title=" ">
<polygon fill="white" stroke="#666666" points="900.5,-76 779.5,-76 779.5,-56 900.5,-56 900.5,-76"/>
<text xml:space="preserve" text-anchor="middle" x="840" y="-62.5" font-family="Helvetica,sans-Serif" font-size="10.00">model/ConnectionLine.h</text>
</a>
</g>
</g>
<!-- Node1&#45;&gt;Node18 -->
<g id="edge22_Node000001_Node000018" class="edge">
<title>Node1&#45;&gt;Node18</title>
<g id="a_edge22_Node000001_Node000018"><a xlink:title=" ">
<path fill="none" stroke="#63b8ff" d="M864.99,-291.81C864.68,-271.06 862.19,-219.33 846,-180 838.49,-161.75 826.07,-162.78 820,-144 813.71,-124.54 821.38,-101.83 828.98,-86.15"/>
<polygon fill="#63b8ff" stroke="#63b8ff" points="832,-87.92 833.58,-77.45 825.81,-84.65 832,-87.92"/>
</a>
</g>
</g>
<!-- Node20 -->
<g id="Node000020" class="node">
<title>Node20</title>
<g id="a_Node000020"><a xlink:href="_element_factory_8h.html" target="_top" xlink:title=" ">
<polygon fill="white" stroke="#666666" points="710.88,-200 589.12,-200 589.12,-180 710.88,-180 710.88,-200"/>
<text xml:space="preserve" text-anchor="middle" x="650" y="-186.5" font-family="Helvetica,sans-Serif" font-size="10.00">model/ElementFactory.h</text>
</a>
</g>
</g>
<!-- Node1&#45;&gt;Node20 -->
<g id="edge29_Node000001_Node000020" class="edge">
<title>Node1&#45;&gt;Node20</title>
<g id="a_edge29_Node000001_Node000020"><a xlink:title=" ">
<path fill="none" stroke="#63b8ff" d="M846.67,-291.62C809.14,-272.42 723.34,-228.52 678.49,-205.58"/>
<polygon fill="#63b8ff" stroke="#63b8ff" points="680.13,-202.48 669.63,-201.04 676.94,-208.71 680.13,-202.48"/>
</a>
</g>
</g>
<!-- Node21 -->
<g id="Node000021" class="node">
<title>Node21</title>
<g id="a_Node000021"><a xlink:href="_relationship_8h.html" target="_top" xlink:title=" ">
<polygon fill="white" stroke="#666666" points="836.75,-200 729.25,-200 729.25,-180 836.75,-180 836.75,-200"/>
<text xml:space="preserve" text-anchor="middle" x="783" y="-186.5" font-family="Helvetica,sans-Serif" font-size="10.00">model/Relationship.h</text>
</a>
</g>
</g>
<!-- Node1&#45;&gt;Node21 -->
<g id="edge32_Node000001_Node000021" class="edge">
<title>Node1&#45;&gt;Node21</title>
<g id="a_edge32_Node000001_Node000021"><a xlink:title=" ">
<path fill="none" stroke="#63b8ff" d="M858.01,-291.62C844.45,-273.44 814.38,-233.09 796.7,-209.38"/>
<polygon fill="#63b8ff" stroke="#63b8ff" points="799.66,-207.49 790.88,-201.57 794.05,-211.68 799.66,-207.49"/>
</a>
</g>
</g>
<!-- Node22 -->
<g id="Node000022" class="node">
<title>Node22</title>
<g id="a_Node000022"><a xlink:href="_relationship_end_8h.html" target="_top" xlink:title=" ">
<polygon fill="white" stroke="#666666" points="722.75,-76 627.25,-76 627.25,-56 722.75,-56 722.75,-76"/>
<text xml:space="preserve" text-anchor="middle" x="675" y="-62.5" font-family="Helvetica,sans-Serif" font-size="10.00">RelationshipEnd.h</text>
</a>
</g>
</g>
<!-- Node1&#45;&gt;Node22 -->
<g id="edge42_Node000001_Node000022" class="edge">
<title>Node1&#45;&gt;Node22</title>
<g id="a_edge42_Node000001_Node000022"><a xlink:title=" ">
<path fill="none" stroke="#63b8ff" d="M785.76,-297.01C718.57,-288.94 626,-265.68 580,-200 550.04,-157.22 612.26,-107.21 649.61,-82.47"/>
<polygon fill="#63b8ff" stroke="#63b8ff" points="651.15,-85.64 657.67,-77.29 647.36,-79.76 651.15,-85.64"/>
</a>
</g>
</g>
<!-- Node24 -->
<g id="Node000024" class="node">
<title>Node24</title>
<g id="a_Node000024"><a xlink:href="_relationship_connection_line_8h.html" target="_top" xlink:title=" ">
<polygon fill="white" stroke="#666666" points="977.38,-144 828.62,-144 828.62,-112 977.38,-112 977.38,-144"/>
<text xml:space="preserve" text-anchor="start" x="836.62" y="-130.5" font-family="Helvetica,sans-Serif" font-size="10.00">model/RelationshipConnection</text>
<text xml:space="preserve" text-anchor="middle" x="903" y="-118.5" font-family="Helvetica,sans-Serif" font-size="10.00">Line.h</text>
</a>
</g>
</g>
<!-- Node1&#45;&gt;Node24 -->
<g id="edge38_Node000001_Node000024" class="edge">
<title>Node1&#45;&gt;Node24</title>
<g id="a_edge38_Node000001_Node000024"><a xlink:title=" ">
<path fill="none" stroke="#63b8ff" d="M868.21,-291.78C871.27,-282.75 875.87,-268.54 879,-256 887.57,-221.6 894.7,-181.29 898.91,-155.47"/>
<polygon fill="#63b8ff" stroke="#63b8ff" points="902.32,-156.29 900.44,-145.87 895.41,-155.19 902.32,-156.29"/>
</a>
</g>
</g>
<!-- Node25 -->
<g id="Node000025" class="node">
<title>Node25</title>
<g id="a_Node000025"><a xlink:href="_diagram_scene_8h.html" target="_top" xlink:title=" ">
<polygon fill="white" stroke="#666666" points="1249,-256 1137,-256 1137,-236 1249,-236 1249,-256"/>
<text xml:space="preserve" text-anchor="middle" x="1193" y="-242.5" font-family="Helvetica,sans-Serif" font-size="10.00">view/DiagramScene.h</text>
</a>
</g>
</g>
<!-- Node1&#45;&gt;Node25 -->
<g id="edge43_Node000001_Node000025" class="edge">
<title>Node1&#45;&gt;Node25</title>
<g id="a_edge43_Node000001_Node000025"><a xlink:title=" ">
<path fill="none" stroke="#63b8ff" d="M922.51,-291.53C979.12,-282.21 1065.57,-267.98 1125.43,-258.12"/>
<polygon fill="#63b8ff" stroke="#63b8ff" points="1125.86,-261.6 1135.16,-256.52 1124.73,-254.69 1125.86,-261.6"/>
</a>
</g>
</g>
<!-- Node36 -->
<g id="Node000036" class="node">
<title>Node36</title>
<g id="a_Node000036"><a xlink:title=" ">
<polygon fill="#e0e0e0" stroke="#999999" points="1340.88,-256 1267.12,-256 1267.12,-236 1340.88,-236 1340.88,-256"/>
<text xml:space="preserve" text-anchor="middle" x="1304" y="-242.5" font-family="Helvetica,sans-Serif" font-size="10.00">QtCore/QFile</text>
</a>
</g>
</g>
<!-- Node1&#45;&gt;Node36 -->
<g id="edge61_Node000001_Node000036" class="edge">
<title>Node1&#45;&gt;Node36</title>
<g id="a_edge61_Node000001_Node000036"><a xlink:title=" ">
<path fill="none" stroke="#63b8ff" d="M944.28,-293.78C1021.27,-286.35 1141.69,-273.61 1255.31,-256.31"/>
<polygon fill="#63b8ff" stroke="#63b8ff" points="1255.79,-259.78 1265.14,-254.8 1254.73,-252.86 1255.79,-259.78"/>
</a>
</g>
</g>
<!-- Node3 -->
<g id="Node000003" class="node">
<title>Node3</title>
<g id="a_Node000003"><a xlink:title=" ">
<polygon fill="#e0e0e0" stroke="#999999" points="407.12,-200 304.88,-200 304.88,-180 407.12,-180 407.12,-200"/>
<text xml:space="preserve" text-anchor="middle" x="356" y="-186.5" font-family="Helvetica,sans-Serif" font-size="10.00">QtCore/QJsonArray</text>
</a>
</g>
</g>
<!-- Node2&#45;&gt;Node3 -->
<g id="edge2_Node000002_Node000003" class="edge">
<title>Node2&#45;&gt;Node3</title>
<g id="a_edge2_Node000002_Node000003"><a xlink:title=" ">
<path fill="none" stroke="#63b8ff" d="M314.71,-235.59C321.59,-228.16 331.39,-217.58 339.72,-208.58"/>
<polygon fill="#63b8ff" stroke="#63b8ff" points="342.14,-211.12 346.36,-201.41 337,-206.37 342.14,-211.12"/>
</a>
</g>
</g>
<!-- Node2&#45;&gt;Node4 -->
<g id="edge3_Node000002_Node000004" class="edge">
<title>Node2&#45;&gt;Node4</title>
<g id="a_edge3_Node000002_Node000004"><a xlink:title=" ">
<path fill="none" stroke="#63b8ff" d="M263.22,-235.53C222.23,-226.46 160.22,-212.74 115.88,-202.93"/>
<polygon fill="#63b8ff" stroke="#63b8ff" points="116.73,-199.53 106.21,-200.78 115.22,-206.36 116.73,-199.53"/>
</a>
</g>
</g>
<!-- Node5 -->
<g id="Node000005" class="node">
<title>Node5</title>
<g id="a_Node000005"><a xlink:title=" ">
<polygon fill="#e0e0e0" stroke="#999999" points="532.75,-200 425.25,-200 425.25,-180 532.75,-180 532.75,-200"/>
<text xml:space="preserve" text-anchor="middle" x="479" y="-186.5" font-family="Helvetica,sans-Serif" font-size="10.00">QtCore/QJsonObject</text>
</a>
</g>
</g>
<!-- Node2&#45;&gt;Node5 -->
<g id="edge4_Node000002_Node000005" class="edge">
<title>Node2&#45;&gt;Node5</title>
<g id="a_edge4_Node000002_Node000005"><a xlink:title=" ">
<path fill="none" stroke="#63b8ff" d="M336.13,-235.59C364.24,-226.82 406.41,-213.66 437.66,-203.9"/>
<polygon fill="#63b8ff" stroke="#63b8ff" points="438.68,-207.25 447.19,-200.93 436.6,-200.57 438.68,-207.25"/>
</a>
</g>
</g>
<!-- Node6 -->
<g id="Node000006" class="node">
<title>Node6</title>
<g id="a_Node000006"><a xlink:title=" ">
<polygon fill="#e0e0e0" stroke="#999999" points="719.75,-20 636.25,-20 636.25,0 719.75,0 719.75,-20"/>
<text xml:space="preserve" text-anchor="middle" x="678" y="-6.5" font-family="Helvetica,sans-Serif" font-size="10.00">QtCore/QString</text>
</a>
</g>
</g>
<!-- Node2&#45;&gt;Node6 -->
<g id="edge5_Node000002_Node000006" class="edge">
<title>Node2&#45;&gt;Node6</title>
<g id="a_edge5_Node000002_Node000006"><a xlink:title=" ">
<path fill="none" stroke="#63b8ff" d="M240.34,-236.38C195.83,-227.62 148.79,-210.81 171,-180 277.15,-32.73 517.21,-11.85 624.48,-10.2"/>
<polygon fill="#63b8ff" stroke="#63b8ff" points="624.49,-13.7 634.45,-10.1 624.42,-6.7 624.49,-13.7"/>
</a>
</g>
</g>
<!-- Node7 -->
<g id="Node000007" class="node">
<title>Node7</title>
<g id="a_Node000007"><a xlink:title=" ">
<polygon fill="#e0e0e0" stroke="#999999" points="286.38,-200 179.62,-200 179.62,-180 286.38,-180 286.38,-200"/>
<text xml:space="preserve" text-anchor="middle" x="233" y="-186.5" font-family="Helvetica,sans-Serif" font-size="10.00">QtCore/QVariantMap</text>
</a>
</g>
</g>
<!-- Node2&#45;&gt;Node7 -->
<g id="edge6_Node000002_Node000007" class="edge">
<title>Node2&#45;&gt;Node7</title>
<g id="a_edge6_Node000002_Node000007"><a xlink:title=" ">
<path fill="none" stroke="#63b8ff" d="M293.28,-235.59C282.61,-227.7 267.12,-216.24 254.52,-206.92"/>
<polygon fill="#63b8ff" stroke="#63b8ff" points="256.91,-204.33 246.79,-201.2 252.74,-209.96 256.91,-204.33"/>
</a>
</g>
</g>
<!-- Node8&#45;&gt;Node6 -->
<g id="edge12_Node000008_Node000006" class="edge">
<title>Node8&#45;&gt;Node6</title>
<g id="a_edge12_Node000008_Node000006"><a xlink:title=" ">
<path fill="none" stroke="#63b8ff" d="M1070.49,-120.27C976.64,-109.07 798.26,-86.76 771,-76 742.29,-64.67 713.89,-42.86 696.17,-27.64"/>
<polygon fill="#63b8ff" stroke="#63b8ff" points="698.88,-25.37 689.07,-21.38 694.25,-30.62 698.88,-25.37"/>
</a>
</g>
</g>
<!-- Node9 -->
<g id="Node000009" class="node">
<title>Node9</title>
<g id="a_Node000009"><a xlink:title=" ">
<polygon fill="#e0e0e0" stroke="#999999" points="1474.62,-76 1393.38,-76 1393.38,-56 1474.62,-56 1474.62,-76"/>
<text xml:space="preserve" text-anchor="middle" x="1434" y="-62.5" font-family="Helvetica,sans-Serif" font-size="10.00">QtCore/QHash</text>
</a>
</g>
</g>
<!-- Node8&#45;&gt;Node9 -->
<g id="edge8_Node000008_Node000009" class="edge">
<title>Node8&#45;&gt;Node9</title>
<g id="a_edge8_Node000008_Node000009"><a xlink:title=" ">
<path fill="none" stroke="#63b8ff" d="M1172.29,-117.51C1181.13,-115.65 1190.35,-113.74 1199,-112 1261.83,-99.35 1334.28,-85.6 1381.93,-76.68"/>
<polygon fill="#63b8ff" stroke="#63b8ff" points="1382.52,-80.13 1391.71,-74.85 1381.24,-73.25 1382.52,-80.13"/>
</a>
</g>
</g>
<!-- Node10 -->
<g id="Node000010" class="node">
<title>Node10</title>
<g id="a_Node000010"><a xlink:title=" ">
<polygon fill="#e0e0e0" stroke="#999999" points="922.25,-20 835.75,-20 835.75,0 922.25,0 922.25,-20"/>
<text xml:space="preserve" text-anchor="middle" x="879" y="-6.5" font-family="Helvetica,sans-Serif" font-size="10.00">QtCore/QObject</text>
</a>
</g>
</g>
<!-- Node8&#45;&gt;Node10 -->
<g id="edge9_Node000008_Node000010" class="edge">
<title>Node8&#45;&gt;Node10</title>
<g id="a_edge9_Node000008_Node000010"><a xlink:title=" ">
<path fill="none" stroke="#63b8ff" d="M1115.29,-117.62C1091.95,-100.5 1042.9,-65.13 1024,-56 994.67,-41.83 959.86,-30.85 931.7,-23.29"/>
<polygon fill="#63b8ff" stroke="#63b8ff" points="932.89,-19.98 922.33,-20.84 931.12,-26.76 932.89,-19.98"/>
</a>
</g>
</g>
<!-- Node11 -->
<g id="Node000011" class="node">
<title>Node11</title>
<g id="a_Node000011"><a xlink:title=" ">
<polygon fill="#e0e0e0" stroke="#999999" points="1124.25,-20 1037.75,-20 1037.75,0 1124.25,0 1124.25,-20"/>
<text xml:space="preserve" text-anchor="middle" x="1081" y="-6.5" font-family="Helvetica,sans-Serif" font-size="10.00">QtCore/QPointF</text>
</a>
</g>
</g>
<!-- Node8&#45;&gt;Node11 -->
<g id="edge10_Node000008_Node000011" class="edge">
<title>Node8&#45;&gt;Node11</title>
<g id="a_edge10_Node000008_Node000011"><a xlink:title=" ">
<path fill="none" stroke="#63b8ff" d="M1171.43,-117.55C1234.23,-103.78 1343.25,-79.46 1346,-76 1351.52,-69.04 1351.74,-62.79 1346,-56 1319.65,-24.8 1205.48,-15.23 1135.88,-12.29"/>
<polygon fill="#63b8ff" stroke="#63b8ff" points="1136.33,-8.81 1126.21,-11.92 1136.06,-15.8 1136.33,-8.81"/>
</a>
</g>
</g>
<!-- Node12 -->
<g id="Node000012" class="node">
<title>Node12</title>
<g id="a_Node000012"><a xlink:title=" ">
<polygon fill="#e0e0e0" stroke="#999999" points="1646.5,-76 1561.5,-76 1561.5,-56 1646.5,-56 1646.5,-76"/>
<text xml:space="preserve" text-anchor="middle" x="1604" y="-62.5" font-family="Helvetica,sans-Serif" font-size="10.00">QtCore/QRectF</text>
</a>
</g>
</g>
<!-- Node8&#45;&gt;Node12 -->
<g id="edge11_Node000008_Node000012" class="edge">
<title>Node8&#45;&gt;Node12</title>
<g id="a_edge11_Node000008_Node000012"><a xlink:title=" ">
<path fill="none" stroke="#63b8ff" d="M1185.44,-118.38C1200.57,-116.21 1216.89,-113.94 1232,-112 1370.78,-94.21 1408.99,-96.36 1549.95,-76.37"/>
<polygon fill="#63b8ff" stroke="#63b8ff" points="1550.28,-79.86 1559.68,-74.97 1549.29,-72.93 1550.28,-79.86"/>
</a>
</g>
</g>
<!-- Node13 -->
<g id="Node000013" class="node">
<title>Node13</title>
<g id="a_Node000013"><a xlink:title=" ">
<polygon fill="#e0e0e0" stroke="#999999" points="1230.75,-76 1147.25,-76 1147.25,-56 1230.75,-56 1230.75,-76"/>
<text xml:space="preserve" text-anchor="middle" x="1189" y="-62.5" font-family="Helvetica,sans-Serif" font-size="10.00">QtCore/QSizeF</text>
</a>
</g>
</g>
<!-- Node8&#45;&gt;Node13 -->
<g id="edge13_Node000008_Node000013" class="edge">
<title>Node8&#45;&gt;Node13</title>
<g id="a_edge13_Node000008_Node000013"><a xlink:title=" ">
<path fill="none" stroke="#63b8ff" d="M1137.53,-117.62C1146.63,-108.68 1160.54,-94.99 1171.61,-84.1"/>
<polygon fill="#63b8ff" stroke="#63b8ff" points="1173.98,-86.68 1178.66,-77.17 1169.07,-81.69 1173.98,-86.68"/>
</a>
</g>
</g>
<!-- Node14 -->
<g id="Node000014" class="node">
<title>Node14</title>
<g id="a_Node000014"><a xlink:title=" ">
<polygon fill="#e0e0e0" stroke="#999999" points="1018.12,-20 939.88,-20 939.88,0 1018.12,0 1018.12,-20"/>
<text xml:space="preserve" text-anchor="middle" x="979" y="-6.5" font-family="Helvetica,sans-Serif" font-size="10.00">QtCore/QUuid</text>
</a>
</g>
</g>
<!-- Node8&#45;&gt;Node14 -->
<g id="edge14_Node000008_Node000014" class="edge">
<title>Node8&#45;&gt;Node14</title>
<g id="a_edge14_Node000008_Node000014"><a xlink:title=" ">
<path fill="none" stroke="#63b8ff" d="M1120.35,-117.94C1107.99,-103.66 1082.45,-75.52 1057,-56 1041.88,-44.4 1023.48,-33.65 1008.35,-25.56"/>
<polygon fill="#63b8ff" stroke="#63b8ff" points="1010.3,-22.64 999.82,-21.12 1007.06,-28.84 1010.3,-22.64"/>
</a>
</g>
</g>
<!-- Node15 -->
<g id="Node000015" class="node">
<title>Node15</title>
<g id="a_Node000015"><a xlink:title=" ">
<polygon fill="#e0e0e0" stroke="#999999" points="1337,-76 1249,-76 1249,-56 1337,-56 1337,-76"/>
<text xml:space="preserve" text-anchor="middle" x="1293" y="-62.5" font-family="Helvetica,sans-Serif" font-size="10.00">QtCore/QVariant</text>
</a>
</g>
</g>
<!-- Node8&#45;&gt;Node15 -->
<g id="edge15_Node000008_Node000015" class="edge">
<title>Node8&#45;&gt;Node15</title>
<g id="a_edge15_Node000008_Node000015"><a xlink:title=" ">
<path fill="none" stroke="#63b8ff" d="M1153.78,-117.62C1181.43,-107.57 1225.55,-91.53 1256.7,-80.2"/>
<polygon fill="#63b8ff" stroke="#63b8ff" points="1257.5,-83.63 1265.71,-76.93 1255.11,-77.05 1257.5,-83.63"/>
</a>
</g>
</g>
<!-- Node16 -->
<g id="Node000016" class="node">
<title>Node16</title>
<g id="a_Node000016"><a xlink:title=" ">
<polygon fill="#e0e0e0" stroke="#999999" points="1543.62,-76 1492.38,-76 1492.38,-56 1543.62,-56 1543.62,-76"/>
<text xml:space="preserve" text-anchor="middle" x="1518" y="-62.5" font-family="Helvetica,sans-Serif" font-size="10.00">memory</text>
</a>
</g>
</g>
<!-- Node8&#45;&gt;Node16 -->
<g id="edge16_Node000008_Node000016" class="edge">
<title>Node8&#45;&gt;Node16</title>
<g id="a_edge16_Node000008_Node000016"><a xlink:title=" ">
<path fill="none" stroke="#63b8ff" d="M1185.49,-118.69C1200.62,-116.51 1216.92,-114.16 1232,-112 1340.38,-96.44 1371.16,-98.37 1480.86,-76.46"/>
<polygon fill="#63b8ff" stroke="#63b8ff" points="1481.49,-79.91 1490.6,-74.49 1480.11,-73.04 1481.49,-79.91"/>
</a>
</g>
</g>
<!-- Node8&#45;&gt;Node17 -->
<g id="edge17_Node000008_Node000017" class="edge">
<title>Node8&#45;&gt;Node17</title>
<g id="a_edge17_Node000008_Node000017"><a xlink:title=" ">
<path fill="none" stroke="#63b8ff" d="M1102.84,-117.62C1075.98,-107.62 1033.19,-91.67 1002.82,-80.35"/>
<polygon fill="#63b8ff" stroke="#63b8ff" points="1004.26,-77.15 993.66,-76.94 1001.81,-83.71 1004.26,-77.15"/>
</a>
</g>
</g>
<!-- Node17&#45;&gt;Node6 -->
<g id="edge20_Node000017_Node000006" class="edge">
<title>Node17&#45;&gt;Node6</title>
<g id="a_edge20_Node000017_Node000006"><a xlink:title=" ">
<path fill="none" stroke="#63b8ff" d="M918.63,-55.96C866.72,-46.26 784.53,-30.91 730.93,-20.89"/>
<polygon fill="#63b8ff" stroke="#63b8ff" points="731.91,-17.51 721.44,-19.12 730.62,-24.39 731.91,-17.51"/>
</a>
</g>
</g>
<!-- Node17&#45;&gt;Node10 -->
<g id="edge18_Node000017_Node000010" class="edge">
<title>Node17&#45;&gt;Node10</title>
<g id="a_edge18_Node000017_Node000010"><a xlink:title=" ">
<path fill="none" stroke="#63b8ff" d="M951.67,-55.59C938.5,-47.51 919.27,-35.71 903.89,-26.27"/>
<polygon fill="#63b8ff" stroke="#63b8ff" points="906.09,-23.52 895.74,-21.27 902.43,-29.48 906.09,-23.52"/>
</a>
</g>
</g>
<!-- Node17&#45;&gt;Node11 -->
<g id="edge19_Node000017_Node000011" class="edge">
<title>Node17&#45;&gt;Node11</title>
<g id="a_edge19_Node000017_Node000011"><a xlink:title=" ">
<path fill="none" stroke="#63b8ff" d="M986.86,-55.59C1004.49,-47.24 1030.51,-34.92 1050.73,-25.34"/>
<polygon fill="#63b8ff" stroke="#63b8ff" points="1052.08,-28.57 1059.62,-21.13 1049.08,-22.25 1052.08,-28.57"/>
</a>
</g>
</g>
<!-- Node17&#45;&gt;Node14 -->
<g id="edge21_Node000017_Node000014" class="edge">
<title>Node17&#45;&gt;Node14</title>
<g id="a_edge21_Node000017_Node000014"><a xlink:title=" ">
<path fill="none" stroke="#63b8ff" d="M969.09,-55.59C970.57,-48.93 972.61,-39.75 974.46,-31.44"/>
<polygon fill="#63b8ff" stroke="#63b8ff" points="977.85,-32.3 976.61,-21.78 971.02,-30.78 977.85,-32.3"/>
</a>
</g>
</g>
<!-- Node18&#45;&gt;Node6 -->
<g id="edge25_Node000018_Node000006" class="edge">
<title>Node18&#45;&gt;Node6</title>
<g id="a_edge25_Node000018_Node000006"><a xlink:title=" ">
<path fill="none" stroke="#63b8ff" d="M811.78,-55.59C785.58,-46.86 746.32,-33.77 717.1,-24.03"/>
<polygon fill="#63b8ff" stroke="#63b8ff" points="718.47,-20.8 707.87,-20.96 716.25,-27.44 718.47,-20.8"/>
</a>
</g>
</g>
<!-- Node18&#45;&gt;Node10 -->
<g id="edge23_Node000018_Node000010" class="edge">
<title>Node18&#45;&gt;Node10</title>
<g id="a_edge23_Node000018_Node000010"><a xlink:title=" ">
<path fill="none" stroke="#63b8ff" d="M846.79,-55.59C851.99,-48.39 859.33,-38.23 865.69,-29.43"/>
<polygon fill="#63b8ff" stroke="#63b8ff" points="868.38,-31.68 871.4,-21.53 862.71,-27.58 868.38,-31.68"/>
</a>
</g>
</g>
<!-- Node18&#45;&gt;Node11 -->
<g id="edge24_Node000018_Node000011" class="edge">
<title>Node18&#45;&gt;Node11</title>
<g id="a_edge24_Node000018_Node000011"><a xlink:title=" ">
<path fill="none" stroke="#63b8ff" d="M882.25,-55.53C922.74,-46.46 983.98,-32.74 1027.78,-22.93"/>
<polygon fill="#63b8ff" stroke="#63b8ff" points="1028.32,-26.39 1037.32,-20.79 1026.79,-19.56 1028.32,-26.39"/>
</a>
</g>
</g>
<!-- Node18&#45;&gt;Node14 -->
<g id="edge26_Node000018_Node000014" class="edge">
<title>Node18&#45;&gt;Node14</title>
<g id="a_edge26_Node000018_Node000014"><a xlink:title=" ">
<path fill="none" stroke="#63b8ff" d="M864.21,-55.59C886.3,-47.01 919.2,-34.23 944.12,-24.55"/>
<polygon fill="#63b8ff" stroke="#63b8ff" points="945.13,-27.91 953.19,-21.03 942.6,-21.39 945.13,-27.91"/>
</a>
</g>
</g>
<!-- Node19 -->
<g id="Node000019" class="node">
<title>Node19</title>
<g id="a_Node000019"><a xlink:title=" ">
<polygon fill="#e0e0e0" stroke="#999999" points="817.62,-20 742.38,-20 742.38,0 817.62,0 817.62,-20"/>
<text xml:space="preserve" text-anchor="middle" x="780" y="-6.5" font-family="Helvetica,sans-Serif" font-size="10.00">QtGui/QColor</text>
</a>
</g>
</g>
<!-- Node18&#45;&gt;Node19 -->
<g id="edge27_Node000018_Node000019" class="edge">
<title>Node18&#45;&gt;Node19</title>
<g id="a_edge27_Node000018_Node000019"><a xlink:title=" ">
<path fill="none" stroke="#63b8ff" d="M829.55,-55.59C821.03,-47.93 808.79,-36.91 798.61,-27.75"/>
<polygon fill="#63b8ff" stroke="#63b8ff" points="801.23,-25.4 791.46,-21.31 796.55,-30.6 801.23,-25.4"/>
</a>
</g>
</g>
<!-- Node20&#45;&gt;Node6 -->
<g id="edge30_Node000020_Node000006" class="edge">
<title>Node20&#45;&gt;Node6</title>
<g id="a_edge30_Node000020_Node000006"><a xlink:title=" ">
<path fill="none" stroke="#63b8ff" d="M643.68,-179.8C629.19,-157.49 596.44,-99.12 618,-56 624.26,-43.48 635.84,-33.54 647.18,-26.22"/>
<polygon fill="#63b8ff" stroke="#63b8ff" points="648.79,-29.33 655.63,-21.23 645.24,-23.3 648.79,-29.33"/>
</a>
</g>
</g>
<!-- Node20&#45;&gt;Node8 -->
<g id="edge31_Node000020_Node000008" class="edge">
<title>Node20&#45;&gt;Node8</title>
<g id="a_edge31_Node000020_Node000008"><a xlink:title=" ">
<path fill="none" stroke="#63b8ff" d="M711.08,-181.13C714.1,-180.75 717.08,-180.37 720,-180 839.38,-164.86 978.45,-147.55 1059.51,-137.49"/>
<polygon fill="#63b8ff" stroke="#63b8ff" points="1059.56,-141.01 1069.06,-136.3 1058.7,-134.06 1059.56,-141.01"/>
</a>
</g>
</g>
<!-- Node21&#45;&gt;Node8 -->
<g id="edge33_Node000021_Node000008" class="edge">
<title>Node21&#45;&gt;Node8</title>
<g id="a_edge33_Node000021_Node000008"><a xlink:title=" ">
<path fill="none" stroke="#63b8ff" d="M836.91,-179.62C897.91,-169.02 997.26,-151.74 1062.63,-140.37"/>
<polygon fill="#63b8ff" stroke="#63b8ff" points="1062.88,-143.88 1072.13,-138.72 1061.68,-136.98 1062.88,-143.88"/>
</a>
</g>
</g>
<!-- Node21&#45;&gt;Node22 -->
<g id="edge34_Node000021_Node000022" class="edge">
<title>Node21&#45;&gt;Node22</title>
<g id="a_edge34_Node000021_Node000022"><a xlink:title=" ">
<path fill="none" stroke="#63b8ff" d="M780.02,-179.53C774.76,-164 762.6,-132.75 744,-112 733.15,-99.9 718.34,-89.68 705.22,-82.05"/>
<polygon fill="#63b8ff" stroke="#63b8ff" points="706.94,-79 696.5,-77.23 703.56,-85.13 706.94,-79"/>
</a>
</g>
</g>
<!-- Node23 -->
<g id="Node000023" class="node">
<title>Node23</title>
<g id="a_Node000023"><a xlink:title=" ">
<polygon fill="#e0e0e0" stroke="#999999" points="734.88,-138 661.12,-138 661.12,-118 734.88,-118 734.88,-138"/>
<text xml:space="preserve" text-anchor="middle" x="698" y="-124.5" font-family="Helvetica,sans-Serif" font-size="10.00">QtCore/QList</text>
</a>
</g>
</g>
<!-- Node21&#45;&gt;Node23 -->
<g id="edge37_Node000021_Node000023" class="edge">
<title>Node21&#45;&gt;Node23</title>
<g id="a_edge37_Node000021_Node000023"><a xlink:title=" ">
<path fill="none" stroke="#63b8ff" d="M769.72,-179.62C756.49,-170.29 735.96,-155.79 720.24,-144.7"/>
<polygon fill="#63b8ff" stroke="#63b8ff" points="722.61,-142.09 712.42,-139.18 718.58,-147.81 722.61,-142.09"/>
</a>
</g>
</g>
<!-- Node22&#45;&gt;Node6 -->
<g id="edge36_Node000022_Node000006" class="edge">
<title>Node22&#45;&gt;Node6</title>
<g id="a_edge36_Node000022_Node000006"><a xlink:title=" ">
<path fill="none" stroke="#63b8ff" d="M675.52,-55.59C675.89,-49.01 676.39,-39.96 676.85,-31.73"/>
<polygon fill="#63b8ff" stroke="#63b8ff" points="680.34,-31.99 677.4,-21.81 673.35,-31.6 680.34,-31.99"/>
</a>
</g>
</g>
<!-- Node22&#45;&gt;Node10 -->
<g id="edge35_Node000022_Node000010" class="edge">
<title>Node22&#45;&gt;Node10</title>
<g id="a_edge35_Node000022_Node000010"><a xlink:title=" ">
<path fill="none" stroke="#63b8ff" d="M710.53,-55.59C744.26,-46.67 795.16,-33.19 832.18,-23.39"/>
<polygon fill="#63b8ff" stroke="#63b8ff" points="832.95,-26.81 841.73,-20.87 831.16,-20.04 832.95,-26.81"/>
</a>
</g>
</g>
<!-- Node24&#45;&gt;Node11 -->
<g id="edge41_Node000024_Node000011" class="edge">
<title>Node24&#45;&gt;Node11</title>
<g id="a_edge41_Node000024_Node000011"><a xlink:title=" ">
<path fill="none" stroke="#63b8ff" d="M953.33,-111.59C976.16,-103.19 1002.74,-91.34 1024,-76 1041.83,-63.14 1057.91,-43.72 1068.41,-29.46"/>
<polygon fill="#63b8ff" stroke="#63b8ff" points="1071.21,-31.56 1074.14,-21.38 1065.5,-27.51 1071.21,-31.56"/>
</a>
</g>
</g>
<!-- Node24&#45;&gt;Node18 -->
<g id="edge39_Node000024_Node000018" class="edge">
<title>Node24&#45;&gt;Node18</title>
<g id="a_edge39_Node000024_Node000018"><a xlink:title=" ">
<path fill="none" stroke="#63b8ff" d="M886.78,-111.55C878.03,-103.22 867.2,-92.91 858.17,-84.3"/>
<polygon fill="#63b8ff" stroke="#63b8ff" points="860.63,-81.81 850.97,-77.45 855.8,-86.88 860.63,-81.81"/>
</a>
</g>
</g>
<!-- Node24&#45;&gt;Node22 -->
<g id="edge40_Node000024_Node000022" class="edge">
<title>Node24&#45;&gt;Node22</title>
<g id="a_edge40_Node000024_Node000022"><a xlink:title=" ">
<path fill="none" stroke="#63b8ff" d="M844.28,-111.55C806.3,-101.55 757.52,-88.72 722.09,-79.39"/>
<polygon fill="#63b8ff" stroke="#63b8ff" points="723.11,-76.04 712.55,-76.88 721.33,-82.81 723.11,-76.04"/>
</a>
</g>
</g>
<!-- Node25&#45;&gt;Node8 -->
<g id="edge46_Node000025_Node000008" class="edge">
<title>Node25&#45;&gt;Node8</title>
<g id="a_edge46_Node000025_Node000008"><a xlink:title=" ">
<path fill="none" stroke="#63b8ff" d="M1187.68,-235.51C1177.01,-216.46 1152.81,-173.28 1138.72,-148.14"/>
<polygon fill="#63b8ff" stroke="#63b8ff" points="1141.89,-146.63 1133.95,-139.62 1135.79,-150.05 1141.89,-146.63"/>
</a>
</g>
</g>
<!-- Node25&#45;&gt;Node9 -->
<g id="edge44_Node000025_Node000009" class="edge">
<title>Node25&#45;&gt;Node9</title>
<g id="a_edge44_Node000025_Node000009"><a xlink:title=" ">
<path fill="none" stroke="#63b8ff" d="M1192.74,-235.64C1192.61,-211.35 1195.81,-145.87 1232,-112 1242.95,-101.75 1325.57,-85.72 1381.7,-75.82"/>
<polygon fill="#63b8ff" stroke="#63b8ff" points="1382.15,-79.29 1391.4,-74.12 1380.94,-72.4 1382.15,-79.29"/>
</a>
</g>
</g>
<!-- Node25&#45;&gt;Node18 -->
<g id="edge47_Node000025_Node000018" class="edge">
<title>Node25&#45;&gt;Node18</title>
<g id="a_edge47_Node000025_Node000018"><a xlink:title=" ">
<path fill="none" stroke="#63b8ff" d="M1181.08,-235.66C1150.38,-211.99 1065.41,-148.9 986,-112 955.95,-98.04 920.47,-86.99 892,-79.33"/>
<polygon fill="#63b8ff" stroke="#63b8ff" points="893.09,-76 882.53,-76.85 891.32,-82.77 893.09,-76"/>
</a>
</g>
</g>
<!-- Node26 -->
<g id="Node000026" class="node">
<title>Node26</title>
<g id="a_Node000026"><a xlink:title=" ">
<polygon fill="#e0e0e0" stroke="#999999" points="1540.88,-200 1401.12,-200 1401.12,-180 1540.88,-180 1540.88,-200"/>
<text xml:space="preserve" text-anchor="middle" x="1471" y="-186.5" font-family="Helvetica,sans-Serif" font-size="10.00">QtWidgets/QGraphicsScene</text>
</a>
</g>
</g>
<!-- Node25&#45;&gt;Node26 -->
<g id="edge45_Node000025_Node000026" class="edge">
<title>Node25&#45;&gt;Node26</title>
<g id="a_edge45_Node000025_Node000026"><a xlink:title=" ">
<path fill="none" stroke="#63b8ff" d="M1241.74,-235.53C1288.94,-226.36 1360.59,-212.45 1411.21,-202.61"/>
<polygon fill="#63b8ff" stroke="#63b8ff" points="1411.68,-206.09 1420.83,-200.75 1410.34,-199.22 1411.68,-206.09"/>
</a>
</g>
</g>
<!-- Node27 -->
<g id="Node000027" class="node">
<title>Node27</title>
<g id="a_Node000027"><a xlink:href="_element_graphics_item_8h.html" target="_top" xlink:title=" ">
<polygon fill="white" stroke="#666666" points="1383,-200 1241,-200 1241,-180 1383,-180 1383,-200"/>
<text xml:space="preserve" text-anchor="middle" x="1312" y="-186.5" font-family="Helvetica,sans-Serif" font-size="10.00">view/ElementGraphicsItem.h</text>
</a>
</g>
</g>
<!-- Node25&#45;&gt;Node27 -->
<g id="edge48_Node000025_Node000027" class="edge">
<title>Node25&#45;&gt;Node27</title>
<g id="a_edge48_Node000025_Node000027"><a xlink:title=" ">
<path fill="none" stroke="#63b8ff" d="M1213.73,-235.59C1232.21,-227.21 1259.54,-214.8 1280.69,-205.21"/>
<polygon fill="#63b8ff" stroke="#63b8ff" points="1282.07,-208.42 1289.73,-201.1 1279.18,-202.05 1282.07,-208.42"/>
</a>
</g>
</g>
<!-- Node32 -->
<g id="Node000032" class="node">
<title>Node32</title>
<g id="a_Node000032"><a xlink:href="_bezier_control_point_8h.html" target="_top" xlink:title=" ">
<polygon fill="white" stroke="#666666" points="1916.62,-200 1787.38,-200 1787.38,-180 1916.62,-180 1916.62,-200"/>
<text xml:space="preserve" text-anchor="middle" x="1852" y="-186.5" font-family="Helvetica,sans-Serif" font-size="10.00">view/BezierControlPoint.h</text>
</a>
</g>
</g>
<!-- Node25&#45;&gt;Node32 -->
<g id="edge57_Node000025_Node000032" class="edge">
<title>Node25&#45;&gt;Node32</title>
<g id="a_edge57_Node000025_Node000032"><a xlink:title=" ">
<path fill="none" stroke="#63b8ff" d="M1249.34,-236.98C1252.27,-236.63 1255.17,-236.3 1258,-236 1443.67,-216.13 1662.9,-201.91 1776,-195.25"/>
<polygon fill="#63b8ff" stroke="#63b8ff" points="1775.99,-198.75 1785.77,-194.67 1775.58,-191.76 1775.99,-198.75"/>
</a>
</g>
</g>
<!-- Node27&#45;&gt;Node8 -->
<g id="edge55_Node000027_Node000008" class="edge">
<title>Node27&#45;&gt;Node8</title>
<g id="a_edge55_Node000027_Node000008"><a xlink:title=" ">
<path fill="none" stroke="#63b8ff" d="M1283.25,-179.62C1252.15,-169.48 1202.36,-153.25 1167.57,-141.9"/>
<polygon fill="#63b8ff" stroke="#63b8ff" points="1168.88,-138.65 1158.29,-138.88 1166.71,-145.31 1168.88,-138.65"/>
</a>
</g>
</g>
<!-- Node27&#45;&gt;Node16 -->
<g id="edge56_Node000027_Node000016" class="edge">
<title>Node27&#45;&gt;Node16</title>
<g id="a_edge56_Node000027_Node000016"><a xlink:title=" ">
<path fill="none" stroke="#63b8ff" d="M1383.41,-179.5C1446.47,-170.39 1529.94,-156.23 1540,-144 1553.67,-127.37 1542.75,-102.68 1531.99,-85.77"/>
<polygon fill="#63b8ff" stroke="#63b8ff" points="1534.94,-83.89 1526.39,-77.64 1529.18,-87.86 1534.94,-83.89"/>
</a>
</g>
</g>
<!-- Node28 -->
<g id="Node000028" class="node">
<title>Node28</title>
<g id="a_Node000028"><a xlink:title=" ">
<polygon fill="#e0e0e0" stroke="#999999" points="1372.75,-138 1241.25,-138 1241.25,-118 1372.75,-118 1372.75,-138"/>
<text xml:space="preserve" text-anchor="middle" x="1307" y="-124.5" font-family="Helvetica,sans-Serif" font-size="10.00">QtWidgets/QGraphicsItem</text>
</a>
</g>
</g>
<!-- Node27&#45;&gt;Node28 -->
<g id="edge49_Node000027_Node000028" class="edge">
<title>Node27&#45;&gt;Node28</title>
<g id="a_edge49_Node000027_Node000028"><a xlink:title=" ">
<path fill="none" stroke="#63b8ff" d="M1311.22,-179.62C1310.55,-171.56 1309.55,-159.65 1308.7,-149.41"/>
<polygon fill="#63b8ff" stroke="#63b8ff" points="1312.2,-149.3 1307.89,-139.62 1305.23,-149.88 1312.2,-149.3"/>
</a>
</g>
</g>
<!-- Node29 -->
<g id="Node000029" class="node">
<title>Node29</title>
<g id="a_Node000029"><a xlink:title=" ">
<polygon fill="#e0e0e0" stroke="#999999" points="1530.88,-144 1391.12,-144 1391.12,-112 1530.88,-112 1530.88,-144"/>
<text xml:space="preserve" text-anchor="start" x="1399.12" y="-130.5" font-family="Helvetica,sans-Serif" font-size="10.00">QtWidgets/QGraphicsScene</text>
<text xml:space="preserve" text-anchor="middle" x="1461" y="-118.5" font-family="Helvetica,sans-Serif" font-size="10.00">MouseEvent</text>
</a>
</g>
</g>
<!-- Node27&#45;&gt;Node29 -->
<g id="edge50_Node000027_Node000029" class="edge">
<title>Node27&#45;&gt;Node29</title>
<g id="a_edge50_Node000027_Node000029"><a xlink:title=" ">
<path fill="none" stroke="#63b8ff" d="M1335.28,-179.62C1355.78,-171.37 1386.32,-159.07 1412.16,-148.67"/>
<polygon fill="#63b8ff" stroke="#63b8ff" points="1413.16,-152.04 1421.13,-145.06 1410.54,-145.54 1413.16,-152.04"/>
</a>
</g>
</g>
<!-- Node30 -->
<g id="Node000030" class="node">
<title>Node30</title>
<g id="a_Node000030"><a xlink:href="_element_renderer_8h.html" target="_top" xlink:title=" ">
<polygon fill="white" stroke="#666666" points="1687,-138 1587,-138 1587,-118 1687,-118 1687,-138"/>
<text xml:space="preserve" text-anchor="middle" x="1637" y="-124.5" font-family="Helvetica,sans-Serif" font-size="10.00">ElementRenderer.h</text>
</a>
</g>
</g>
<!-- Node27&#45;&gt;Node30 -->
<g id="edge51_Node000027_Node000030" class="edge">
<title>Node27&#45;&gt;Node30</title>
<g id="a_edge51_Node000027_Node000030"><a xlink:title=" ">
<path fill="none" stroke="#63b8ff" d="M1373.1,-179.52C1426.12,-171.04 1504.85,-157.85 1573,-144 1577.59,-143.07 1582.36,-142.05 1587.12,-140.99"/>
<polygon fill="#63b8ff" stroke="#63b8ff" points="1587.7,-144.45 1596.68,-138.83 1586.16,-137.62 1587.7,-144.45"/>
</a>
</g>
</g>
<!-- Node30&#45;&gt;Node11 -->
<g id="edge54_Node000030_Node000011" class="edge">
<title>Node30&#45;&gt;Node11</title>
<g id="a_edge54_Node000030_Node000011"><a xlink:title=" ">
<path fill="none" stroke="#63b8ff" d="M1644.1,-117.89C1654.78,-103.01 1672.11,-73.42 1656,-56 1621.15,-18.32 1273.32,-12.13 1136.17,-11.16"/>
<polygon fill="#63b8ff" stroke="#63b8ff" points="1136.27,-7.66 1126.24,-11.1 1136.22,-14.66 1136.27,-7.66"/>
</a>
</g>
</g>
<!-- Node30&#45;&gt;Node12 -->
<g id="edge53_Node000030_Node000012" class="edge">
<title>Node30&#45;&gt;Node12</title>
<g id="a_edge53_Node000030_Node000012"><a xlink:title=" ">
<path fill="none" stroke="#63b8ff" d="M1631.84,-117.62C1627.22,-109.21 1620.28,-96.6 1614.49,-86.07"/>
<polygon fill="#63b8ff" stroke="#63b8ff" points="1617.63,-84.51 1609.74,-77.44 1611.49,-87.89 1617.63,-84.51"/>
</a>
</g>
</g>
<!-- Node31 -->
<g id="Node000031" class="node">
<title>Node31</title>
<g id="a_Node000031"><a xlink:title=" ">
<polygon fill="#e0e0e0" stroke="#999999" points="1785.38,-76 1702.62,-76 1702.62,-56 1785.38,-56 1785.38,-76"/>
<text xml:space="preserve" text-anchor="middle" x="1744" y="-62.5" font-family="Helvetica,sans-Serif" font-size="10.00">QtGui/QPainter</text>
</a>
</g>
</g>
<!-- Node30&#45;&gt;Node31 -->
<g id="edge52_Node000030_Node000031" class="edge">
<title>Node30&#45;&gt;Node31</title>
<g id="a_edge52_Node000030_Node000031"><a xlink:title=" ">
<path fill="none" stroke="#63b8ff" d="M1653.72,-117.62C1670.76,-108.07 1697.45,-93.11 1717.39,-81.92"/>
<polygon fill="#63b8ff" stroke="#63b8ff" points="1719.07,-84.99 1726.08,-77.05 1715.64,-78.89 1719.07,-84.99"/>
</a>
</g>
</g>
<!-- Node33 -->
<g id="Node000033" class="node">
<title>Node33</title>
<g id="a_Node000033"><a xlink:title=" ">
<polygon fill="#e0e0e0" stroke="#999999" points="1865.38,-138 1704.62,-138 1704.62,-118 1865.38,-118 1865.38,-138"/>
<text xml:space="preserve" text-anchor="middle" x="1785" y="-124.5" font-family="Helvetica,sans-Serif" font-size="10.00">QtWidgets/QGraphicsEllipseItem</text>
</a>
</g>
</g>
<!-- Node32&#45;&gt;Node33 -->
<g id="edge58_Node000032_Node000033" class="edge">
<title>Node32&#45;&gt;Node33</title>
<g id="a_edge58_Node000032_Node000033"><a xlink:title=" ">
<path fill="none" stroke="#63b8ff" d="M1841.53,-179.62C1831.44,-170.59 1815.95,-156.72 1803.74,-145.78"/>
<polygon fill="#63b8ff" stroke="#63b8ff" points="1806.09,-143.19 1796.3,-139.12 1801.42,-148.4 1806.09,-143.19"/>
</a>
</g>
</g>
<!-- Node34 -->
<g id="Node000034" class="node">
<title>Node34</title>
<g id="a_Node000034"><a xlink:title=" ">
<polygon fill="#e0e0e0" stroke="#999999" points="1952.62,-138 1883.38,-138 1883.38,-118 1952.62,-118 1952.62,-138"/>
<text xml:space="preserve" text-anchor="middle" x="1918" y="-124.5" font-family="Helvetica,sans-Serif" font-size="10.00">QtGui/QPen</text>
</a>
</g>
</g>
<!-- Node32&#45;&gt;Node34 -->
<g id="edge59_Node000032_Node000034" class="edge">
<title>Node32&#45;&gt;Node34</title>
<g id="a_edge59_Node000032_Node000034"><a xlink:title=" ">
<path fill="none" stroke="#63b8ff" d="M1862.31,-179.62C1872.25,-170.59 1887.51,-156.72 1899.54,-145.78"/>
<polygon fill="#63b8ff" stroke="#63b8ff" points="1901.81,-148.45 1906.86,-139.13 1897.1,-143.27 1901.81,-148.45"/>
</a>
</g>
</g>
<!-- Node35 -->
<g id="Node000035" class="node">
<title>Node35</title>
<g id="a_Node000035"><a xlink:title=" ">
<polygon fill="#e0e0e0" stroke="#999999" points="2047.75,-138 1970.25,-138 1970.25,-118 2047.75,-118 2047.75,-138"/>
<text xml:space="preserve" text-anchor="middle" x="2009" y="-124.5" font-family="Helvetica,sans-Serif" font-size="10.00">QtGui/QBrush</text>
</a>
</g>
</g>
<!-- Node32&#45;&gt;Node35 -->
<g id="edge60_Node000032_Node000035" class="edge">
<title>Node32&#45;&gt;Node35</title>
<g id="a_edge60_Node000032_Node000035"><a xlink:title=" ">
<path fill="none" stroke="#63b8ff" d="M1876.53,-179.62C1902.61,-169.66 1944.09,-153.81 1973.68,-142.5"/>
<polygon fill="#63b8ff" stroke="#63b8ff" points="1974.88,-145.79 1982.97,-138.95 1972.38,-139.25 1974.88,-145.79"/>
</a>
</g>
</g>
</g>
</svg>
