<?xml version="1.0" encoding="UTF-8" standalone="no"?>
<!DOCTYPE svg PUBLIC "-//W3C//DTD SVG 1.1//EN"
 "http://www.w3.org/Graphics/SVG/1.1/DTD/svg11.dtd">
<!-- Generated by graphviz version 14.1.1 (20251213.1925)
 -->
<!-- Title: src/model/DiagramFileManager.cpp Pages: 1 -->
<svg width="1726pt" height="320pt"
 viewBox="0.00 0.00 1726.00 320.00" xmlns="http://www.w3.org/2000/svg" xmlns:xlink="http://www.w3.org/1999/xlink">
<g id="graph0" class="graph" transform="scale(1 1) rotate(0) translate(4 316)">
<title>src/model/DiagramFileManager.cpp</title>
<!-- Node1 -->
<g id="Node000001" class="node">
<title>Node1</title>
<g id="a_Node000001"><a xlink:title=" ">
<polygon fill="#999999" stroke="#666666" points="1220.75,-312 1050.25,-312 1050.25,-292 1220.75,-292 1220.75,-312"/>
<text xml:space="preserve" text-anchor="middle" x="1135.5" y="-298.5" font-family="Helvetica,sans-Serif" font-size="10.00">src/model/DiagramFileManager.cpp</text>
</a>
</g>
</g>
<!-- Node2 -->
<g id="Node000002" class="node">
<title>Node2</title>
<g id="a_Node000002"><a xlink:href="_diagram_file_manager_8h.html" target="_top" xlink:title=" ">
<polygon fill="white" stroke="#666666" points="1167.25,-76 1023.75,-76 1023.75,-56 1167.25,-56 1167.25,-76"/>
<text xml:space="preserve" text-anchor="middle" x="1095.5" y="-62.5" font-family="Helvetica,sans-Serif" font-size="10.00">model/DiagramFileManager.h</text>
</a>
</g>
</g>
<!-- Node1&#45;&gt;Node2 -->
<g id="edge1_Node000001_Node000002" class="edge">
<title>Node1&#45;&gt;Node2</title>
<g id="a_edge1_Node000001_Node000002"><a xlink:title=" ">
<path fill="none" stroke="#63b8ff" d="M1133.88,-291.54C1127.95,-256.84 1107.32,-136.13 1099.01,-87.52"/>
<polygon fill="#63b8ff" stroke="#63b8ff" points="1102.48,-87.08 1097.35,-77.82 1095.58,-88.26 1102.48,-87.08"/>
</a>
</g>
</g>
<!-- Node5 -->
<g id="Node000005" class="node">
<title>Node5</title>
<g id="a_Node000005"><a xlink:href="_basic_element_8h.html" target="_top" xlink:title=" ">
<polygon fill="white" stroke="#666666" points="707.62,-138 593.38,-138 593.38,-118 707.62,-118 707.62,-138"/>
<text xml:space="preserve" text-anchor="middle" x="650.5" y="-124.5" font-family="Helvetica,sans-Serif" font-size="10.00">model/BasicElement.h</text>
</a>
</g>
</g>
<!-- Node1&#45;&gt;Node5 -->
<g id="edge4_Node000001_Node000005" class="edge">
<title>Node1&#45;&gt;Node5</title>
<g id="a_edge4_Node000001_Node000005"><a xlink:title=" ">
<path fill="none" stroke="#63b8ff" d="M1108.73,-291.51C1027.25,-262.61 782.07,-175.66 687.9,-142.26"/>
<polygon fill="#63b8ff" stroke="#63b8ff" points="689.21,-139.01 678.61,-138.97 686.87,-145.61 689.21,-139.01"/>
</a>
</g>
</g>
<!-- Node14 -->
<g id="Node000014" class="node">
<title>Node14</title>
<g id="a_Node000014"><a xlink:href="_connection_line_8h.html" target="_top" xlink:title=" ">
<polygon fill="white" stroke="#666666" points="121,-76 0,-76 0,-56 121,-56 121,-76"/>
<text xml:space="preserve" text-anchor="middle" x="60.5" y="-62.5" font-family="Helvetica,sans-Serif" font-size="10.00">model/ConnectionLine.h</text>
</a>
</g>
</g>
<!-- Node1&#45;&gt;Node14 -->
<g id="edge19_Node000001_Node000014" class="edge">
<title>Node1&#45;&gt;Node14</title>
<g id="a_edge19_Node000001_Node000014"><a xlink:title=" ">
<path fill="none" stroke="#63b8ff" d="M1049.88,-301.26C884.51,-299.69 511.07,-285.92 211.5,-200 152.2,-182.99 125.58,-190.02 84.5,-144 70.53,-128.35 64.69,-104.65 62.25,-87.68"/>
<polygon fill="#63b8ff" stroke="#63b8ff" points="65.73,-87.31 61.14,-77.76 58.78,-88.09 65.73,-87.31"/>
</a>
</g>
</g>
<!-- Node16 -->
<g id="Node000016" class="node">
<title>Node16</title>
<g id="a_Node000016"><a xlink:href="_diagram_serializer_8h.html" target="_top" xlink:title=" ">
<polygon fill="white" stroke="#666666" points="1341.88,-256 1211.12,-256 1211.12,-236 1341.88,-236 1341.88,-256"/>
<text xml:space="preserve" text-anchor="middle" x="1276.5" y="-242.5" font-family="Helvetica,sans-Serif" font-size="10.00">model/DiagramSerializer.h</text>
</a>
</g>
</g>
<!-- Node1&#45;&gt;Node16 -->
<g id="edge25_Node000001_Node000016" class="edge">
<title>Node1&#45;&gt;Node16</title>
<g id="a_edge25_Node000001_Node000016"><a xlink:title=" ">
<path fill="none" stroke="#63b8ff" d="M1160.06,-291.59C1182.47,-283.01 1215.84,-270.23 1241.12,-260.55"/>
<polygon fill="#63b8ff" stroke="#63b8ff" points="1242.25,-263.87 1250.33,-257.02 1239.74,-257.33 1242.25,-263.87"/>
</a>
</g>
</g>
<!-- Node19 -->
<g id="Node000019" class="node">
<title>Node19</title>
<g id="a_Node000019"><a xlink:title=" ">
<polygon fill="#e0e0e0" stroke="#999999" points="1718.25,-200 1610.75,-200 1610.75,-180 1718.25,-180 1718.25,-200"/>
<text xml:space="preserve" text-anchor="middle" x="1664.5" y="-186.5" font-family="Helvetica,sans-Serif" font-size="10.00">QtCore/QJsonObject</text>
</a>
</g>
</g>
<!-- Node1&#45;&gt;Node19 -->
<g id="edge50_Node000001_Node000019" class="edge">
<title>Node1&#45;&gt;Node19</title>
<g id="a_edge50_Node000001_Node000019"><a xlink:title=" ">
<path fill="none" stroke="#63b8ff" d="M1204.62,-291.55C1247.45,-284.47 1303.13,-273.04 1350.5,-256 1368.46,-249.54 1370.4,-242.06 1388.5,-236 1408.12,-229.43 1524.03,-211.65 1599.27,-200.51"/>
<polygon fill="#63b8ff" stroke="#63b8ff" points="1599.64,-203.99 1609.02,-199.07 1598.61,-197.07 1599.64,-203.99"/>
</a>
</g>
</g>
<!-- Node21 -->
<g id="Node000021" class="node">
<title>Node21</title>
<g id="a_Node000021"><a xlink:href="_diagram_scene_8h.html" target="_top" xlink:title=" ">
<polygon fill="white" stroke="#666666" points="720.5,-256 608.5,-256 608.5,-236 720.5,-236 720.5,-256"/>
<text xml:space="preserve" text-anchor="middle" x="664.5" y="-242.5" font-family="Helvetica,sans-Serif" font-size="10.00">view/DiagramScene.h</text>
</a>
</g>
</g>
<!-- Node1&#45;&gt;Node21 -->
<g id="edge31_Node000001_Node000021" class="edge">
<title>Node1&#45;&gt;Node21</title>
<g id="a_edge31_Node000001_Node000021"><a xlink:title=" ">
<path fill="none" stroke="#63b8ff" d="M1052.65,-291.5C961.42,-281.04 816.49,-264.43 731.93,-254.73"/>
<polygon fill="#63b8ff" stroke="#63b8ff" points="732.5,-251.27 722.17,-253.61 731.7,-258.23 732.5,-251.27"/>
</a>
</g>
</g>
<!-- Node32 -->
<g id="Node000032" class="node">
<title>Node32</title>
<g id="a_Node000032"><a xlink:title=" ">
<polygon fill="#e0e0e0" stroke="#999999" points="1487.62,-256 1397.38,-256 1397.38,-236 1487.62,-236 1487.62,-256"/>
<text xml:space="preserve" text-anchor="middle" x="1442.5" y="-242.5" font-family="Helvetica,sans-Serif" font-size="10.00">QtCore/QFileInfo</text>
</a>
</g>
</g>
<!-- Node1&#45;&gt;Node32 -->
<g id="edge49_Node000001_Node000032" class="edge">
<title>Node1&#45;&gt;Node32</title>
<g id="a_edge49_Node000001_Node000032"><a xlink:title=" ">
<path fill="none" stroke="#63b8ff" d="M1189.33,-291.53C1244.51,-281.83 1329.97,-266.79 1386.08,-256.92"/>
<polygon fill="#63b8ff" stroke="#63b8ff" points="1386.5,-260.4 1395.75,-255.22 1385.29,-253.51 1386.5,-260.4"/>
</a>
</g>
</g>
<!-- Node3 -->
<g id="Node000003" class="node">
<title>Node3</title>
<g id="a_Node000003"><a xlink:title=" ">
<polygon fill="#e0e0e0" stroke="#999999" points="667.75,-20 581.25,-20 581.25,0 667.75,0 667.75,-20"/>
<text xml:space="preserve" text-anchor="middle" x="624.5" y="-6.5" font-family="Helvetica,sans-Serif" font-size="10.00">QtCore/QObject</text>
</a>
</g>
</g>
<!-- Node2&#45;&gt;Node3 -->
<g id="edge2_Node000002_Node000003" class="edge">
<title>Node2&#45;&gt;Node3</title>
<g id="a_edge2_Node000002_Node000003"><a xlink:title=" ">
<path fill="none" stroke="#63b8ff" d="M1023.45,-56.74C928.72,-45.88 764.36,-27.04 679.19,-17.27"/>
<polygon fill="#63b8ff" stroke="#63b8ff" points="679.8,-13.82 669.47,-16.16 679,-20.77 679.8,-13.82"/>
</a>
</g>
</g>
<!-- Node4 -->
<g id="Node000004" class="node">
<title>Node4</title>
<g id="a_Node000004"><a xlink:title=" ">
<polygon fill="#e0e0e0" stroke="#999999" points="938.25,-20 854.75,-20 854.75,0 938.25,0 938.25,-20"/>
<text xml:space="preserve" text-anchor="middle" x="896.5" y="-6.5" font-family="Helvetica,sans-Serif" font-size="10.00">QtCore/QString</text>
</a>
</g>
</g>
<!-- Node2&#45;&gt;Node4 -->
<g id="edge3_Node000002_Node000004" class="edge">
<title>Node2&#45;&gt;Node4</title>
<g id="a_edge3_Node000002_Node000004"><a xlink:title=" ">
<path fill="none" stroke="#63b8ff" d="M1060.84,-55.59C1027.94,-46.67 978.29,-33.19 942.17,-23.39"/>
<polygon fill="#63b8ff" stroke="#63b8ff" points="943.46,-20.12 932.89,-20.88 941.63,-26.87 943.46,-20.12"/>
</a>
</g>
</g>
<!-- Node5&#45;&gt;Node3 -->
<g id="edge6_Node000005_Node000003" class="edge">
<title>Node5&#45;&gt;Node3</title>
<g id="a_edge6_Node000005_Node000003"><a xlink:title=" ">
<path fill="none" stroke="#63b8ff" d="M648.37,-117.51C644.18,-98.81 634.77,-56.82 629.1,-31.51"/>
<polygon fill="#63b8ff" stroke="#63b8ff" points="632.52,-30.77 626.92,-21.78 625.69,-32.3 632.52,-30.77"/>
</a>
</g>
</g>
<!-- Node5&#45;&gt;Node4 -->
<g id="edge9_Node000005_Node000004" class="edge">
<title>Node5&#45;&gt;Node4</title>
<g id="a_edge9_Node000005_Node000004"><a xlink:title=" ">
<path fill="none" stroke="#63b8ff" d="M692.88,-117.51C758.51,-102.82 877.29,-76.2 877.5,-76 889.57,-64.67 894.11,-46.15 895.75,-31.77"/>
<polygon fill="#63b8ff" stroke="#63b8ff" points="899.23,-32.22 896.46,-21.99 892.25,-31.71 899.23,-32.22"/>
</a>
</g>
</g>
<!-- Node6 -->
<g id="Node000006" class="node">
<title>Node6</title>
<g id="a_Node000006"><a xlink:title=" ">
<polygon fill="#e0e0e0" stroke="#999999" points="1006.12,-76 924.88,-76 924.88,-56 1006.12,-56 1006.12,-76"/>
<text xml:space="preserve" text-anchor="middle" x="965.5" y="-62.5" font-family="Helvetica,sans-Serif" font-size="10.00">QtCore/QHash</text>
</a>
</g>
</g>
<!-- Node5&#45;&gt;Node6 -->
<g id="edge5_Node000005_Node000006" class="edge">
<title>Node5&#45;&gt;Node6</title>
<g id="a_edge5_Node000005_Node000006"><a xlink:title=" ">
<path fill="none" stroke="#63b8ff" d="M691.55,-117.53C700.11,-115.64 709.09,-113.7 717.5,-112 784.94,-98.34 863.1,-84.48 913.37,-75.82"/>
<polygon fill="#63b8ff" stroke="#63b8ff" points="913.83,-79.29 923.1,-74.15 912.65,-72.4 913.83,-79.29"/>
</a>
</g>
</g>
<!-- Node7 -->
<g id="Node000007" class="node">
<title>Node7</title>
<g id="a_Node000007"><a xlink:title=" ">
<polygon fill="#e0e0e0" stroke="#999999" points="322.75,-20 236.25,-20 236.25,0 322.75,0 322.75,-20"/>
<text xml:space="preserve" text-anchor="middle" x="279.5" y="-6.5" font-family="Helvetica,sans-Serif" font-size="10.00">QtCore/QPointF</text>
</a>
</g>
</g>
<!-- Node5&#45;&gt;Node7 -->
<g id="edge7_Node000005_Node000007" class="edge">
<title>Node5&#45;&gt;Node7</title>
<g id="a_edge7_Node000005_Node000007"><a xlink:title=" ">
<path fill="none" stroke="#63b8ff" d="M623.31,-117.55C575.08,-100.82 476.38,-66.76 441.5,-56 403.08,-44.15 359.09,-32.02 326.66,-23.35"/>
<polygon fill="#63b8ff" stroke="#63b8ff" points="327.73,-20.01 317.16,-20.82 325.93,-26.77 327.73,-20.01"/>
</a>
</g>
</g>
<!-- Node8 -->
<g id="Node000008" class="node">
<title>Node8</title>
<g id="a_Node000008"><a xlink:title=" ">
<polygon fill="#e0e0e0" stroke="#999999" points="363,-76 278,-76 278,-56 363,-56 363,-76"/>
<text xml:space="preserve" text-anchor="middle" x="320.5" y="-62.5" font-family="Helvetica,sans-Serif" font-size="10.00">QtCore/QRectF</text>
</a>
</g>
</g>
<!-- Node5&#45;&gt;Node8 -->
<g id="edge8_Node000005_Node000008" class="edge">
<title>Node5&#45;&gt;Node8</title>
<g id="a_edge8_Node000005_Node000008"><a xlink:title=" ">
<path fill="none" stroke="#63b8ff" d="M610.44,-117.52C601.9,-115.6 592.91,-113.67 584.5,-112 493.81,-94.05 468,-92.44 374.47,-76.49"/>
<polygon fill="#63b8ff" stroke="#63b8ff" points="375.29,-73.08 364.84,-74.84 374.1,-79.98 375.29,-73.08"/>
</a>
</g>
</g>
<!-- Node9 -->
<g id="Node000009" class="node">
<title>Node9</title>
<g id="a_Node000009"><a xlink:title=" ">
<polygon fill="#e0e0e0" stroke="#999999" points="762.25,-76 678.75,-76 678.75,-56 762.25,-56 762.25,-76"/>
<text xml:space="preserve" text-anchor="middle" x="720.5" y="-62.5" font-family="Helvetica,sans-Serif" font-size="10.00">QtCore/QSizeF</text>
</a>
</g>
</g>
<!-- Node5&#45;&gt;Node9 -->
<g id="edge10_Node000005_Node000009" class="edge">
<title>Node5&#45;&gt;Node9</title>
<g id="a_edge10_Node000005_Node000009"><a xlink:title=" ">
<path fill="none" stroke="#63b8ff" d="M661.44,-117.62C672.08,-108.5 688.48,-94.45 701.3,-83.46"/>
<polygon fill="#63b8ff" stroke="#63b8ff" points="703.4,-86.26 708.72,-77.1 698.85,-80.95 703.4,-86.26"/>
</a>
</g>
</g>
<!-- Node10 -->
<g id="Node000010" class="node">
<title>Node10</title>
<g id="a_Node000010"><a xlink:title=" ">
<polygon fill="#e0e0e0" stroke="#999999" points="537.62,-20 459.38,-20 459.38,0 537.62,0 537.62,-20"/>
<text xml:space="preserve" text-anchor="middle" x="498.5" y="-6.5" font-family="Helvetica,sans-Serif" font-size="10.00">QtCore/QUuid</text>
</a>
</g>
</g>
<!-- Node5&#45;&gt;Node10 -->
<g id="edge11_Node000005_Node000010" class="edge">
<title>Node5&#45;&gt;Node10</title>
<g id="a_edge11_Node000005_Node000010"><a xlink:title=" ">
<path fill="none" stroke="#63b8ff" d="M616,-117.57C581.34,-107.45 531.16,-90.82 517.5,-76 506.29,-63.83 501.66,-45.39 499.77,-31.26"/>
<polygon fill="#63b8ff" stroke="#63b8ff" points="503.29,-31.34 498.85,-21.72 496.32,-32 503.29,-31.34"/>
</a>
</g>
</g>
<!-- Node11 -->
<g id="Node000011" class="node">
<title>Node11</title>
<g id="a_Node000011"><a xlink:title=" ">
<polygon fill="#e0e0e0" stroke="#999999" points="868.5,-76 780.5,-76 780.5,-56 868.5,-56 868.5,-76"/>
<text xml:space="preserve" text-anchor="middle" x="824.5" y="-62.5" font-family="Helvetica,sans-Serif" font-size="10.00">QtCore/QVariant</text>
</a>
</g>
</g>
<!-- Node5&#45;&gt;Node11 -->
<g id="edge12_Node000005_Node000011" class="edge">
<title>Node5&#45;&gt;Node11</title>
<g id="a_edge12_Node000005_Node000011"><a xlink:title=" ">
<path fill="none" stroke="#63b8ff" d="M677.69,-117.62C706.97,-107.53 753.78,-91.39 786.65,-80.05"/>
<polygon fill="#63b8ff" stroke="#63b8ff" points="787.47,-83.47 795.79,-76.9 785.19,-76.85 787.47,-83.47"/>
</a>
</g>
</g>
<!-- Node12 -->
<g id="Node000012" class="node">
<title>Node12</title>
<g id="a_Node000012"><a xlink:title=" ">
<polygon fill="#e0e0e0" stroke="#999999" points="432.12,-76 380.88,-76 380.88,-56 432.12,-56 432.12,-76"/>
<text xml:space="preserve" text-anchor="middle" x="406.5" y="-62.5" font-family="Helvetica,sans-Serif" font-size="10.00">memory</text>
</a>
</g>
</g>
<!-- Node5&#45;&gt;Node12 -->
<g id="edge13_Node000005_Node000012" class="edge">
<title>Node5&#45;&gt;Node12</title>
<g id="a_edge13_Node000005_Node000012"><a xlink:title=" ">
<path fill="none" stroke="#63b8ff" d="M612.11,-117.56C565.93,-106.2 488.97,-87.28 443.45,-76.09"/>
<polygon fill="#63b8ff" stroke="#63b8ff" points="444.34,-72.7 433.79,-73.71 442.66,-79.5 444.34,-72.7"/>
</a>
</g>
</g>
<!-- Node13 -->
<g id="Node000013" class="node">
<title>Node13</title>
<g id="a_Node000013"><a xlink:href="_connection_point_8h.html" target="_top" xlink:title=" ">
<polygon fill="white" stroke="#666666" points="622.62,-76 526.38,-76 526.38,-56 622.62,-56 622.62,-76"/>
<text xml:space="preserve" text-anchor="middle" x="574.5" y="-62.5" font-family="Helvetica,sans-Serif" font-size="10.00">ConnectionPoint.h</text>
</a>
</g>
</g>
<!-- Node5&#45;&gt;Node13 -->
<g id="edge14_Node000005_Node000013" class="edge">
<title>Node5&#45;&gt;Node13</title>
<g id="a_edge14_Node000005_Node000013"><a xlink:title=" ">
<path fill="none" stroke="#63b8ff" d="M638.62,-117.62C626.96,-108.41 608.92,-94.17 594.94,-83.14"/>
<polygon fill="#63b8ff" stroke="#63b8ff" points="597.25,-80.5 587.23,-77.05 592.91,-85.99 597.25,-80.5"/>
</a>
</g>
</g>
<!-- Node13&#45;&gt;Node3 -->
<g id="edge15_Node000013_Node000003" class="edge">
<title>Node13&#45;&gt;Node3</title>
<g id="a_edge15_Node000013_Node000003"><a xlink:title=" ">
<path fill="none" stroke="#63b8ff" d="M583.21,-55.59C590.09,-48.16 599.89,-37.58 608.22,-28.58"/>
<polygon fill="#63b8ff" stroke="#63b8ff" points="610.64,-31.12 614.86,-21.41 605.5,-26.37 610.64,-31.12"/>
</a>
</g>
</g>
<!-- Node13&#45;&gt;Node4 -->
<g id="edge17_Node000013_Node000004" class="edge">
<title>Node13&#45;&gt;Node4</title>
<g id="a_edge17_Node000013_Node000004"><a xlink:title=" ">
<path fill="none" stroke="#63b8ff" d="M623.06,-56.86C682.31,-46.92 782.15,-30.18 843.4,-19.91"/>
<polygon fill="#63b8ff" stroke="#63b8ff" points="843.96,-23.36 853.24,-18.25 842.8,-16.46 843.96,-23.36"/>
</a>
</g>
</g>
<!-- Node13&#45;&gt;Node7 -->
<g id="edge16_Node000013_Node000007" class="edge">
<title>Node13&#45;&gt;Node7</title>
<g id="a_edge16_Node000013_Node000007"><a xlink:title=" ">
<path fill="none" stroke="#63b8ff" d="M526.12,-56.14C473.47,-46.51 389.46,-31.13 334.39,-21.05"/>
<polygon fill="#63b8ff" stroke="#63b8ff" points="335.05,-17.61 324.59,-19.25 333.79,-24.5 335.05,-17.61"/>
</a>
</g>
</g>
<!-- Node13&#45;&gt;Node10 -->
<g id="edge18_Node000013_Node000010" class="edge">
<title>Node13&#45;&gt;Node10</title>
<g id="a_edge18_Node000013_Node000010"><a xlink:title=" ">
<path fill="none" stroke="#63b8ff" d="M561.26,-55.59C550.21,-47.74 534.22,-36.38 521.14,-27.09"/>
<polygon fill="#63b8ff" stroke="#63b8ff" points="523.25,-24.3 513.08,-21.36 519.2,-30 523.25,-24.3"/>
</a>
</g>
</g>
<!-- Node14&#45;&gt;Node3 -->
<g id="edge20_Node000014_Node000003" class="edge">
<title>Node14&#45;&gt;Node3</title>
<g id="a_edge20_Node000014_Node000003"><a xlink:title=" ">
<path fill="none" stroke="#63b8ff" d="M121.16,-59.83C213.17,-51.88 393.53,-35.91 546.5,-20 553.97,-19.22 561.84,-18.36 569.58,-17.49"/>
<polygon fill="#63b8ff" stroke="#63b8ff" points="569.75,-21 579.29,-16.39 568.95,-14.04 569.75,-21"/>
</a>
</g>
</g>
<!-- Node14&#45;&gt;Node4 -->
<g id="edge22_Node000014_Node000004" class="edge">
<title>Node14&#45;&gt;Node4</title>
<g id="a_edge22_Node000014_Node000004"><a xlink:title=" ">
<path fill="none" stroke="#63b8ff" d="M121.31,-59.7C136.7,-58.43 153.21,-57.11 168.5,-56 420.9,-37.68 722.88,-20.54 843.21,-13.9"/>
<polygon fill="#63b8ff" stroke="#63b8ff" points="843.32,-17.4 853.11,-13.36 842.94,-10.41 843.32,-17.4"/>
</a>
</g>
</g>
<!-- Node14&#45;&gt;Node7 -->
<g id="edge21_Node000014_Node000007" class="edge">
<title>Node14&#45;&gt;Node7</title>
<g id="a_edge21_Node000014_Node000007"><a xlink:title=" ">
<path fill="none" stroke="#63b8ff" d="M98.9,-55.53C135.37,-46.54 190.4,-32.97 230.12,-23.18"/>
<polygon fill="#63b8ff" stroke="#63b8ff" points="230.81,-26.61 239.68,-20.82 229.13,-19.82 230.81,-26.61"/>
</a>
</g>
</g>
<!-- Node14&#45;&gt;Node10 -->
<g id="edge23_Node000014_Node000010" class="edge">
<title>Node14&#45;&gt;Node10</title>
<g id="a_edge23_Node000014_Node000010"><a xlink:title=" ">
<path fill="none" stroke="#63b8ff" d="M121.4,-57.49C208.33,-46.77 366.42,-27.28 447.52,-17.29"/>
<polygon fill="#63b8ff" stroke="#63b8ff" points="447.91,-20.76 457.4,-16.07 447.05,-13.82 447.91,-20.76"/>
</a>
</g>
</g>
<!-- Node15 -->
<g id="Node000015" class="node">
<title>Node15</title>
<g id="a_Node000015"><a xlink:title=" ">
<polygon fill="#e0e0e0" stroke="#999999" points="98.12,-20 22.88,-20 22.88,0 98.12,0 98.12,-20"/>
<text xml:space="preserve" text-anchor="middle" x="60.5" y="-6.5" font-family="Helvetica,sans-Serif" font-size="10.00">QtGui/QColor</text>
</a>
</g>
</g>
<!-- Node14&#45;&gt;Node15 -->
<g id="edge24_Node000014_Node000015" class="edge">
<title>Node14&#45;&gt;Node15</title>
<g id="a_edge24_Node000014_Node000015"><a xlink:title=" ">
<path fill="none" stroke="#63b8ff" d="M60.5,-55.59C60.5,-49.01 60.5,-39.96 60.5,-31.73"/>
<polygon fill="#63b8ff" stroke="#63b8ff" points="64,-31.81 60.5,-21.81 57,-31.81 64,-31.81"/>
</a>
</g>
</g>
<!-- Node16&#45;&gt;Node4 -->
<g id="edge29_Node000016_Node000004" class="edge">
<title>Node16&#45;&gt;Node4</title>
<g id="a_edge29_Node000016_Node000004"><a xlink:title=" ">
<path fill="none" stroke="#63b8ff" d="M1257.21,-235.61C1243.33,-227.89 1225.25,-215.69 1214.5,-200 1177.1,-145.39 1225.55,-100.44 1176.5,-56 1144.1,-26.64 1021.88,-16.36 950.07,-12.82"/>
<polygon fill="#63b8ff" stroke="#63b8ff" points="950.23,-9.32 940.08,-12.36 949.91,-16.31 950.23,-9.32"/>
</a>
</g>
</g>
<!-- Node17 -->
<g id="Node000017" class="node">
<title>Node17</title>
<g id="a_Node000017"><a xlink:title=" ">
<polygon fill="#e0e0e0" stroke="#999999" points="1450.62,-200 1348.38,-200 1348.38,-180 1450.62,-180 1450.62,-200"/>
<text xml:space="preserve" text-anchor="middle" x="1399.5" y="-186.5" font-family="Helvetica,sans-Serif" font-size="10.00">QtCore/QJsonArray</text>
</a>
</g>
</g>
<!-- Node16&#45;&gt;Node17 -->
<g id="edge26_Node000016_Node000017" class="edge">
<title>Node16&#45;&gt;Node17</title>
<g id="a_edge26_Node000016_Node000017"><a xlink:title=" ">
<path fill="none" stroke="#63b8ff" d="M1297.92,-235.59C1317.12,-227.17 1345.54,-214.69 1367.44,-205.07"/>
<polygon fill="#63b8ff" stroke="#63b8ff" points="1368.77,-208.31 1376.52,-201.09 1365.96,-201.9 1368.77,-208.31"/>
</a>
</g>
</g>
<!-- Node18 -->
<g id="Node000018" class="node">
<title>Node18</title>
<g id="a_Node000018"><a xlink:title=" ">
<polygon fill="#e0e0e0" stroke="#999999" points="1592.5,-200 1468.5,-200 1468.5,-180 1592.5,-180 1592.5,-200"/>
<text xml:space="preserve" text-anchor="middle" x="1530.5" y="-186.5" font-family="Helvetica,sans-Serif" font-size="10.00">QtCore/QJsonDocument</text>
</a>
</g>
</g>
<!-- Node16&#45;&gt;Node18 -->
<g id="edge27_Node000016_Node000018" class="edge">
<title>Node16&#45;&gt;Node18</title>
<g id="a_edge27_Node000016_Node000018"><a xlink:title=" ">
<path fill="none" stroke="#63b8ff" d="M1321.03,-235.53C1363.88,-226.42 1428.8,-212.62 1474.99,-202.8"/>
<polygon fill="#63b8ff" stroke="#63b8ff" points="1475.48,-206.27 1484.54,-200.77 1474.03,-199.43 1475.48,-206.27"/>
</a>
</g>
</g>
<!-- Node16&#45;&gt;Node19 -->
<g id="edge28_Node000016_Node000019" class="edge">
<title>Node16&#45;&gt;Node19</title>
<g id="a_edge28_Node000016_Node000019"><a xlink:title=" ">
<path fill="none" stroke="#63b8ff" d="M1342.18,-235.99C1405.34,-227.31 1503.82,-213.72 1599.23,-200.31"/>
<polygon fill="#63b8ff" stroke="#63b8ff" points="1599.63,-203.79 1609.05,-198.93 1598.66,-196.86 1599.63,-203.79"/>
</a>
</g>
</g>
<!-- Node20 -->
<g id="Node000020" class="node">
<title>Node20</title>
<g id="a_Node000020"><a xlink:title=" ">
<polygon fill="#e0e0e0" stroke="#999999" points="1329.88,-200 1223.12,-200 1223.12,-180 1329.88,-180 1329.88,-200"/>
<text xml:space="preserve" text-anchor="middle" x="1276.5" y="-186.5" font-family="Helvetica,sans-Serif" font-size="10.00">QtCore/QVariantMap</text>
</a>
</g>
</g>
<!-- Node16&#45;&gt;Node20 -->
<g id="edge30_Node000016_Node000020" class="edge">
<title>Node16&#45;&gt;Node20</title>
<g id="a_edge30_Node000016_Node000020"><a xlink:title=" ">
<path fill="none" stroke="#63b8ff" d="M1276.5,-235.59C1276.5,-229.01 1276.5,-219.96 1276.5,-211.73"/>
<polygon fill="#63b8ff" stroke="#63b8ff" points="1280,-211.81 1276.5,-201.81 1273,-211.81 1280,-211.81"/>
</a>
</g>
</g>
<!-- Node21&#45;&gt;Node5 -->
<g id="edge34_Node000021_Node000005" class="edge">
<title>Node21&#45;&gt;Node5</title>
<g id="a_edge34_Node000021_Node000005"><a xlink:title=" ">
<path fill="none" stroke="#63b8ff" d="M663.35,-235.51C661.1,-216.81 656.03,-174.82 652.98,-149.51"/>
<polygon fill="#63b8ff" stroke="#63b8ff" points="656.48,-149.31 651.8,-139.8 649.53,-150.15 656.48,-149.31"/>
</a>
</g>
</g>
<!-- Node21&#45;&gt;Node6 -->
<g id="edge32_Node000021_Node000006" class="edge">
<title>Node21&#45;&gt;Node6</title>
<g id="a_edge32_Node000021_Node000006"><a xlink:title=" ">
<path fill="none" stroke="#63b8ff" d="M720.79,-245.56C789.06,-244.42 906.54,-236.6 999.5,-200 1039.55,-184.23 1058.74,-182.23 1078.5,-144 1085.03,-131.37 1086.48,-123.77 1078.5,-112 1070.5,-100.2 1039.48,-88.32 1011.97,-79.74"/>
<polygon fill="#63b8ff" stroke="#63b8ff" points="1013.29,-76.48 1002.7,-76.94 1011.26,-83.18 1013.29,-76.48"/>
</a>
</g>
</g>
<!-- Node21&#45;&gt;Node14 -->
<g id="edge35_Node000021_Node000014" class="edge">
<title>Node21&#45;&gt;Node14</title>
<g id="a_edge35_Node000021_Node000014"><a xlink:title=" ">
<path fill="none" stroke="#63b8ff" d="M608.21,-240.39C485.64,-229.43 199.25,-198.58 120.5,-144 98.7,-128.89 81.13,-103.47 70.76,-86"/>
<polygon fill="#63b8ff" stroke="#63b8ff" points="73.99,-84.6 66.02,-77.63 67.9,-88.05 73.99,-84.6"/>
</a>
</g>
</g>
<!-- Node22 -->
<g id="Node000022" class="node">
<title>Node22</title>
<g id="a_Node000022"><a xlink:title=" ">
<polygon fill="#e0e0e0" stroke="#999999" points="636.38,-200 496.62,-200 496.62,-180 636.38,-180 636.38,-200"/>
<text xml:space="preserve" text-anchor="middle" x="566.5" y="-186.5" font-family="Helvetica,sans-Serif" font-size="10.00">QtWidgets/QGraphicsScene</text>
</a>
</g>
</g>
<!-- Node21&#45;&gt;Node22 -->
<g id="edge33_Node000021_Node000022" class="edge">
<title>Node21&#45;&gt;Node22</title>
<g id="a_edge33_Node000021_Node000022"><a xlink:title=" ">
<path fill="none" stroke="#63b8ff" d="M647.43,-235.59C632.62,-227.44 610.93,-215.48 593.73,-206"/>
<polygon fill="#63b8ff" stroke="#63b8ff" points="595.48,-202.97 585.03,-201.21 592.1,-209.1 595.48,-202.97"/>
</a>
</g>
</g>
<!-- Node23 -->
<g id="Node000023" class="node">
<title>Node23</title>
<g id="a_Node000023"><a xlink:href="_element_graphics_item_8h.html" target="_top" xlink:title=" ">
<polygon fill="white" stroke="#666666" points="450.5,-200 308.5,-200 308.5,-180 450.5,-180 450.5,-200"/>
<text xml:space="preserve" text-anchor="middle" x="379.5" y="-186.5" font-family="Helvetica,sans-Serif" font-size="10.00">view/ElementGraphicsItem.h</text>
</a>
</g>
</g>
<!-- Node21&#45;&gt;Node23 -->
<g id="edge36_Node000021_Node000023" class="edge">
<title>Node21&#45;&gt;Node23</title>
<g id="a_edge36_Node000021_Node000023"><a xlink:title=" ">
<path fill="none" stroke="#63b8ff" d="M614.53,-235.53C566.04,-226.35 492.38,-212.39 440.47,-202.55"/>
<polygon fill="#63b8ff" stroke="#63b8ff" points="441.38,-199.16 430.9,-200.74 440.07,-206.04 441.38,-199.16"/>
</a>
</g>
</g>
<!-- Node28 -->
<g id="Node000028" class="node">
<title>Node28</title>
<g id="a_Node000028"><a xlink:href="_bezier_control_point_8h.html" target="_top" xlink:title=" ">
<polygon fill="white" stroke="#666666" points="990.12,-200 860.88,-200 860.88,-180 990.12,-180 990.12,-200"/>
<text xml:space="preserve" text-anchor="middle" x="925.5" y="-186.5" font-family="Helvetica,sans-Serif" font-size="10.00">view/BezierControlPoint.h</text>
</a>
</g>
</g>
<!-- Node21&#45;&gt;Node28 -->
<g id="edge45_Node000021_Node000028" class="edge">
<title>Node21&#45;&gt;Node28</title>
<g id="a_edge45_Node000021_Node000028"><a xlink:title=" ">
<path fill="none" stroke="#63b8ff" d="M710.26,-235.53C754.38,-226.4 821.28,-212.56 868.77,-202.74"/>
<polygon fill="#63b8ff" stroke="#63b8ff" points="869.23,-206.22 878.31,-200.76 867.81,-199.36 869.23,-206.22"/>
</a>
</g>
</g>
<!-- Node23&#45;&gt;Node5 -->
<g id="edge43_Node000023_Node000005" class="edge">
<title>Node23&#45;&gt;Node5</title>
<g id="a_edge43_Node000023_Node000005"><a xlink:title=" ">
<path fill="none" stroke="#63b8ff" d="M423.11,-179.52C464.63,-170.48 528.85,-156.43 584.5,-144 588.83,-143.03 593.31,-142.03 597.82,-141.01"/>
<polygon fill="#63b8ff" stroke="#63b8ff" points="598.51,-144.44 607.49,-138.82 596.96,-137.61 598.51,-144.44"/>
</a>
</g>
</g>
<!-- Node23&#45;&gt;Node12 -->
<g id="edge44_Node000023_Node000012" class="edge">
<title>Node23&#45;&gt;Node12</title>
<g id="a_edge44_Node000023_Node000012"><a xlink:title=" ">
<path fill="none" stroke="#63b8ff" d="M329.48,-179.58C309.49,-173.09 288.41,-162.21 276.5,-144 268.71,-132.1 268.25,-123.59 276.5,-112 282.15,-104.07 333.38,-87.97 369.81,-77.34"/>
<polygon fill="#63b8ff" stroke="#63b8ff" points="370.49,-80.79 379.12,-74.65 368.55,-74.06 370.49,-80.79"/>
</a>
</g>
</g>
<!-- Node24 -->
<g id="Node000024" class="node">
<title>Node24</title>
<g id="a_Node000024"><a xlink:title=" ">
<polygon fill="#e0e0e0" stroke="#999999" points="417.25,-138 285.75,-138 285.75,-118 417.25,-118 417.25,-138"/>
<text xml:space="preserve" text-anchor="middle" x="351.5" y="-124.5" font-family="Helvetica,sans-Serif" font-size="10.00">QtWidgets/QGraphicsItem</text>
</a>
</g>
</g>
<!-- Node23&#45;&gt;Node24 -->
<g id="edge37_Node000023_Node000024" class="edge">
<title>Node23&#45;&gt;Node24</title>
<g id="a_edge37_Node000023_Node000024"><a xlink:title=" ">
<path fill="none" stroke="#63b8ff" d="M375.12,-179.62C371.24,-171.3 365.44,-158.86 360.55,-148.4"/>
<polygon fill="#63b8ff" stroke="#63b8ff" points="363.79,-147.07 356.39,-139.48 357.45,-150.03 363.79,-147.07"/>
</a>
</g>
</g>
<!-- Node25 -->
<g id="Node000025" class="node">
<title>Node25</title>
<g id="a_Node000025"><a xlink:title=" ">
<polygon fill="#e0e0e0" stroke="#999999" points="575.38,-144 435.62,-144 435.62,-112 575.38,-112 575.38,-144"/>
<text xml:space="preserve" text-anchor="start" x="443.62" y="-130.5" font-family="Helvetica,sans-Serif" font-size="10.00">QtWidgets/QGraphicsScene</text>
<text xml:space="preserve" text-anchor="middle" x="505.5" y="-118.5" font-family="Helvetica,sans-Serif" font-size="10.00">MouseEvent</text>
</a>
</g>
</g>
<!-- Node23&#45;&gt;Node25 -->
<g id="edge38_Node000023_Node000025" class="edge">
<title>Node23&#45;&gt;Node25</title>
<g id="a_edge38_Node000023_Node000025"><a xlink:title=" ">
<path fill="none" stroke="#63b8ff" d="M399.19,-179.62C416.2,-171.52 441.38,-159.53 462.96,-149.26"/>
<polygon fill="#63b8ff" stroke="#63b8ff" points="464.33,-152.48 471.85,-145.02 461.32,-146.16 464.33,-152.48"/>
</a>
</g>
</g>
<!-- Node26 -->
<g id="Node000026" class="node">
<title>Node26</title>
<g id="a_Node000026"><a xlink:href="_element_renderer_8h.html" target="_top" xlink:title=" ">
<polygon fill="white" stroke="#666666" points="229.5,-138 129.5,-138 129.5,-118 229.5,-118 229.5,-138"/>
<text xml:space="preserve" text-anchor="middle" x="179.5" y="-124.5" font-family="Helvetica,sans-Serif" font-size="10.00">ElementRenderer.h</text>
</a>
</g>
</g>
<!-- Node23&#45;&gt;Node26 -->
<g id="edge39_Node000023_Node000026" class="edge">
<title>Node23&#45;&gt;Node26</title>
<g id="a_edge39_Node000023_Node000026"><a xlink:title=" ">
<path fill="none" stroke="#63b8ff" d="M348.25,-179.62C314.15,-169.4 259.39,-152.97 221.54,-141.61"/>
<polygon fill="#63b8ff" stroke="#63b8ff" points="222.89,-138.36 212.31,-138.84 220.88,-145.07 222.89,-138.36"/>
</a>
</g>
</g>
<!-- Node26&#45;&gt;Node7 -->
<g id="edge42_Node000026_Node000007" class="edge">
<title>Node26&#45;&gt;Node7</title>
<g id="a_edge42_Node000026_Node000007"><a xlink:title=" ">
<path fill="none" stroke="#63b8ff" d="M174.34,-117.83C166.97,-103.39 155.68,-75.03 168.5,-56 181.31,-36.98 203.68,-26 225,-19.66"/>
<polygon fill="#63b8ff" stroke="#63b8ff" points="225.76,-23.07 234.53,-17.13 223.97,-16.31 225.76,-23.07"/>
</a>
</g>
</g>
<!-- Node26&#45;&gt;Node8 -->
<g id="edge41_Node000026_Node000008" class="edge">
<title>Node26&#45;&gt;Node8</title>
<g id="a_edge41_Node000026_Node000008"><a xlink:title=" ">
<path fill="none" stroke="#63b8ff" d="M201.53,-117.62C224.81,-107.72 261.76,-91.99 288.31,-80.7"/>
<polygon fill="#63b8ff" stroke="#63b8ff" points="289.4,-84.04 297.23,-76.9 286.66,-77.6 289.4,-84.04"/>
</a>
</g>
</g>
<!-- Node27 -->
<g id="Node000027" class="node">
<title>Node27</title>
<g id="a_Node000027"><a xlink:title=" ">
<polygon fill="#e0e0e0" stroke="#999999" points="259.88,-76 177.12,-76 177.12,-56 259.88,-56 259.88,-76"/>
<text xml:space="preserve" text-anchor="middle" x="218.5" y="-62.5" font-family="Helvetica,sans-Serif" font-size="10.00">QtGui/QPainter</text>
</a>
</g>
</g>
<!-- Node26&#45;&gt;Node27 -->
<g id="edge40_Node000026_Node000027" class="edge">
<title>Node26&#45;&gt;Node27</title>
<g id="a_edge40_Node000026_Node000027"><a xlink:title=" ">
<path fill="none" stroke="#63b8ff" d="M185.59,-117.62C191.12,-109.12 199.43,-96.33 206.32,-85.74"/>
<polygon fill="#63b8ff" stroke="#63b8ff" points="209.24,-87.67 211.75,-77.38 203.37,-83.86 209.24,-87.67"/>
</a>
</g>
</g>
<!-- Node29 -->
<g id="Node000029" class="node">
<title>Node29</title>
<g id="a_Node000029"><a xlink:title=" ">
<polygon fill="#e0e0e0" stroke="#999999" points="886.88,-138 726.12,-138 726.12,-118 886.88,-118 886.88,-138"/>
<text xml:space="preserve" text-anchor="middle" x="806.5" y="-124.5" font-family="Helvetica,sans-Serif" font-size="10.00">QtWidgets/QGraphicsEllipseItem</text>
</a>
</g>
</g>
<!-- Node28&#45;&gt;Node29 -->
<g id="edge46_Node000028_Node000029" class="edge">
<title>Node28&#45;&gt;Node29</title>
<g id="a_edge46_Node000028_Node000029"><a xlink:title=" ">
<path fill="none" stroke="#63b8ff" d="M906.91,-179.62C887.69,-169.94 857.45,-154.69 835.18,-143.46"/>
<polygon fill="#63b8ff" stroke="#63b8ff" points="836.82,-140.37 826.31,-138.99 833.67,-146.62 836.82,-140.37"/>
</a>
</g>
</g>
<!-- Node30 -->
<g id="Node000030" class="node">
<title>Node30</title>
<g id="a_Node000030"><a xlink:title=" ">
<polygon fill="#e0e0e0" stroke="#999999" points="974.12,-138 904.88,-138 904.88,-118 974.12,-118 974.12,-138"/>
<text xml:space="preserve" text-anchor="middle" x="939.5" y="-124.5" font-family="Helvetica,sans-Serif" font-size="10.00">QtGui/QPen</text>
</a>
</g>
</g>
<!-- Node28&#45;&gt;Node30 -->
<g id="edge47_Node000028_Node000030" class="edge">
<title>Node28&#45;&gt;Node30</title>
<g id="a_edge47_Node000028_Node000030"><a xlink:title=" ">
<path fill="none" stroke="#63b8ff" d="M927.69,-179.62C929.59,-171.48 932.41,-159.39 934.82,-149.07"/>
<polygon fill="#63b8ff" stroke="#63b8ff" points="938.17,-150.12 937.03,-139.59 931.35,-148.53 938.17,-150.12"/>
</a>
</g>
</g>
<!-- Node31 -->
<g id="Node000031" class="node">
<title>Node31</title>
<g id="a_Node000031"><a xlink:title=" ">
<polygon fill="#e0e0e0" stroke="#999999" points="1069.25,-138 991.75,-138 991.75,-118 1069.25,-118 1069.25,-138"/>
<text xml:space="preserve" text-anchor="middle" x="1030.5" y="-124.5" font-family="Helvetica,sans-Serif" font-size="10.00">QtGui/QBrush</text>
</a>
</g>
</g>
<!-- Node28&#45;&gt;Node31 -->
<g id="edge48_Node000028_Node000031" class="edge">
<title>Node28&#45;&gt;Node31</title>
<g id="a_edge48_Node000028_Node000031"><a xlink:title=" ">
<path fill="none" stroke="#63b8ff" d="M941.91,-179.62C958.63,-170.07 984.82,-155.11 1004.39,-143.92"/>
<polygon fill="#63b8ff" stroke="#63b8ff" points="1005.95,-147.06 1012.89,-139.06 1002.48,-140.98 1005.95,-147.06"/>
</a>
</g>
</g>
</g>
</svg>
