<?xml version="1.0" encoding="UTF-8" standalone="no"?>
<!DOCTYPE svg PUBLIC "-//W3C//DTD SVG 1.1//EN"
 "http://www.w3.org/Graphics/SVG/1.1/DTD/svg11.dtd">
<!-- Generated by graphviz version 14.1.1 (20251213.1925)
 -->
<!-- Title: src/view/DiagramScene.h Pages: 1 -->
<svg width="1281pt" height="264pt"
 viewBox="0.00 0.00 1281.00 264.00" xmlns="http://www.w3.org/2000/svg" xmlns:xlink="http://www.w3.org/1999/xlink">
<g id="graph0" class="graph" transform="scale(1 1) rotate(0) translate(4 260)">
<title>src/view/DiagramScene.h</title>
<!-- Node1 -->
<g id="Node000001" class="node">
<title>Node1</title>
<g id="a_Node000001"><a xlink:title=" ">
<polygon fill="#999999" stroke="#666666" points="546.88,-256 418.38,-256 418.38,-236 546.88,-236 546.88,-256"/>
<text xml:space="preserve" text-anchor="middle" x="482.62" y="-242.5" font-family="Helvetica,sans-Serif" font-size="10.00">src/view/DiagramScene.h</text>
</a>
</g>
</g>
<!-- Node2 -->
<g id="Node000002" class="node">
<title>Node2</title>
<g id="a_Node000002"><a xlink:title=" ">
<polygon fill="#e0e0e0" stroke="#999999" points="81.25,-76 0,-76 0,-56 81.25,-56 81.25,-76"/>
<text xml:space="preserve" text-anchor="middle" x="40.62" y="-62.5" font-family="Helvetica,sans-Serif" font-size="10.00">QtCore/QHash</text>
</a>
</g>
</g>
<!-- Node1&#45;&gt;Node2 -->
<g id="edge1_Node000001_Node000002" class="edge">
<title>Node1&#45;&gt;Node2</title>
<g id="a_edge1_Node000001_Node000002"><a xlink:title=" ">
<path fill="none" stroke="#63b8ff" d="M459.17,-235.56C385.82,-206.02 160.54,-115.29 74.51,-80.64"/>
<polygon fill="#63b8ff" stroke="#63b8ff" points="76.01,-77.48 65.42,-76.99 73.39,-83.97 76.01,-77.48"/>
</a>
</g>
</g>
<!-- Node3 -->
<g id="Node000003" class="node">
<title>Node3</title>
<g id="a_Node000003"><a xlink:title=" ">
<polygon fill="#e0e0e0" stroke="#999999" points="761.5,-200 621.75,-200 621.75,-180 761.5,-180 761.5,-200"/>
<text xml:space="preserve" text-anchor="middle" x="691.62" y="-186.5" font-family="Helvetica,sans-Serif" font-size="10.00">QtWidgets/QGraphicsScene</text>
</a>
</g>
</g>
<!-- Node1&#45;&gt;Node3 -->
<g id="edge2_Node000001_Node000003" class="edge">
<title>Node1&#45;&gt;Node3</title>
<g id="a_edge2_Node000001_Node000003"><a xlink:title=" ">
<path fill="none" stroke="#63b8ff" d="M519.03,-235.59C553.73,-226.63 606.18,-213.08 644.15,-203.27"/>
<polygon fill="#63b8ff" stroke="#63b8ff" points="644.66,-206.75 653.47,-200.86 642.91,-199.97 644.66,-206.75"/>
</a>
</g>
</g>
<!-- Node4 -->
<g id="Node000004" class="node">
<title>Node4</title>
<g id="a_Node000004"><a xlink:href="_basic_element_8h.html" target="_top" xlink:title=" ">
<polygon fill="white" stroke="#666666" points="448.75,-138 334.5,-138 334.5,-118 448.75,-118 448.75,-138"/>
<text xml:space="preserve" text-anchor="middle" x="391.62" y="-124.5" font-family="Helvetica,sans-Serif" font-size="10.00">model/BasicElement.h</text>
</a>
</g>
</g>
<!-- Node1&#45;&gt;Node4 -->
<g id="edge3_Node000001_Node000004" class="edge">
<title>Node1&#45;&gt;Node4</title>
<g id="a_edge3_Node000001_Node000004"><a xlink:title=" ">
<path fill="none" stroke="#63b8ff" d="M475.18,-235.51C460.04,-216.21 425.45,-172.11 405.85,-147.13"/>
<polygon fill="#63b8ff" stroke="#63b8ff" points="408.78,-145.2 399.85,-139.49 403.27,-149.52 408.78,-145.2"/>
</a>
</g>
</g>
<!-- Node14 -->
<g id="Node000014" class="node">
<title>Node14</title>
<g id="a_Node000014"><a xlink:href="_connection_line_8h.html" target="_top" xlink:title=" ">
<polygon fill="white" stroke="#666666" points="259.12,-76 138.12,-76 138.12,-56 259.12,-56 259.12,-76"/>
<text xml:space="preserve" text-anchor="middle" x="198.62" y="-62.5" font-family="Helvetica,sans-Serif" font-size="10.00">model/ConnectionLine.h</text>
</a>
</g>
</g>
<!-- Node1&#45;&gt;Node14 -->
<g id="edge18_Node000001_Node000014" class="edge">
<title>Node1&#45;&gt;Node14</title>
<g id="a_edge18_Node000001_Node000014"><a xlink:title=" ">
<path fill="none" stroke="#63b8ff" d="M467.76,-235.68C421.66,-206.79 280.83,-118.52 223.4,-82.53"/>
<polygon fill="#63b8ff" stroke="#63b8ff" points="225.3,-79.59 214.97,-77.25 221.59,-85.52 225.3,-79.59"/>
</a>
</g>
</g>
<!-- Node16 -->
<g id="Node000016" class="node">
<title>Node16</title>
<g id="a_Node000016"><a xlink:href="_element_graphics_item_8h.html" target="_top" xlink:title=" ">
<polygon fill="white" stroke="#666666" points="603.62,-200 461.62,-200 461.62,-180 603.62,-180 603.62,-200"/>
<text xml:space="preserve" text-anchor="middle" x="532.62" y="-186.5" font-family="Helvetica,sans-Serif" font-size="10.00">view/ElementGraphicsItem.h</text>
</a>
</g>
</g>
<!-- Node1&#45;&gt;Node16 -->
<g id="edge24_Node000001_Node000016" class="edge">
<title>Node1&#45;&gt;Node16</title>
<g id="a_edge24_Node000001_Node000016"><a xlink:title=" ">
<path fill="none" stroke="#63b8ff" d="M491.33,-235.59C498.22,-228.16 508.02,-217.58 516.34,-208.58"/>
<polygon fill="#63b8ff" stroke="#63b8ff" points="518.76,-211.12 522.99,-201.41 513.62,-206.37 518.76,-211.12"/>
</a>
</g>
</g>
<!-- Node21 -->
<g id="Node000021" class="node">
<title>Node21</title>
<g id="a_Node000021"><a xlink:href="_bezier_control_point_8h.html" target="_top" xlink:title=" ">
<polygon fill="white" stroke="#666666" points="1141.25,-200 1012,-200 1012,-180 1141.25,-180 1141.25,-200"/>
<text xml:space="preserve" text-anchor="middle" x="1076.62" y="-186.5" font-family="Helvetica,sans-Serif" font-size="10.00">view/BezierControlPoint.h</text>
</a>
</g>
</g>
<!-- Node1&#45;&gt;Node21 -->
<g id="edge33_Node000001_Node000021" class="edge">
<title>Node1&#45;&gt;Node21</title>
<g id="a_edge33_Node000001_Node000021"><a xlink:title=" ">
<path fill="none" stroke="#63b8ff" d="M547.32,-239.12C657.76,-229.08 882.11,-208.68 1000.13,-197.95"/>
<polygon fill="#63b8ff" stroke="#63b8ff" points="1000.4,-201.44 1010.05,-197.05 999.77,-194.47 1000.4,-201.44"/>
</a>
</g>
</g>
<!-- Node4&#45;&gt;Node2 -->
<g id="edge4_Node000004_Node000002" class="edge">
<title>Node4&#45;&gt;Node2</title>
<g id="a_edge4_Node000004_Node000002"><a xlink:title=" ">
<path fill="none" stroke="#63b8ff" d="M336.4,-117.56C269.65,-106.15 158.17,-87.09 92.82,-75.92"/>
<polygon fill="#63b8ff" stroke="#63b8ff" points="93.5,-72.49 83.06,-74.25 92.32,-79.39 93.5,-72.49"/>
</a>
</g>
</g>
<!-- Node5 -->
<g id="Node000005" class="node">
<title>Node5</title>
<g id="a_Node000005"><a xlink:title=" ">
<polygon fill="#e0e0e0" stroke="#999999" points="152.88,-20 66.38,-20 66.38,0 152.88,0 152.88,-20"/>
<text xml:space="preserve" text-anchor="middle" x="109.62" y="-6.5" font-family="Helvetica,sans-Serif" font-size="10.00">QtCore/QObject</text>
</a>
</g>
</g>
<!-- Node4&#45;&gt;Node5 -->
<g id="edge5_Node000004_Node000005" class="edge">
<title>Node4&#45;&gt;Node5</title>
<g id="a_edge5_Node000004_Node000005"><a xlink:title=" ">
<path fill="none" stroke="#63b8ff" d="M334.21,-122.78C266.12,-116.62 158.1,-102.86 128.62,-76 116.26,-64.73 111.77,-45.9 110.22,-31.4"/>
<polygon fill="#63b8ff" stroke="#63b8ff" points="113.72,-31.34 109.59,-21.59 106.74,-31.79 113.72,-31.34"/>
</a>
</g>
</g>
<!-- Node6 -->
<g id="Node000006" class="node">
<title>Node6</title>
<g id="a_Node000006"><a xlink:title=" ">
<polygon fill="#e0e0e0" stroke="#999999" points="722.88,-20 636.38,-20 636.38,0 722.88,0 722.88,-20"/>
<text xml:space="preserve" text-anchor="middle" x="679.62" y="-6.5" font-family="Helvetica,sans-Serif" font-size="10.00">QtCore/QPointF</text>
</a>
</g>
</g>
<!-- Node4&#45;&gt;Node6 -->
<g id="edge6_Node000004_Node000006" class="edge">
<title>Node4&#45;&gt;Node6</title>
<g id="a_edge6_Node000004_Node000006"><a xlink:title=" ">
<path fill="none" stroke="#63b8ff" d="M432.42,-117.51C440.75,-115.63 449.46,-113.71 457.62,-112 540.46,-94.62 576.41,-126.1 644.62,-76 659.62,-64.98 668.87,-45.56 674.06,-30.8"/>
<polygon fill="#63b8ff" stroke="#63b8ff" points="677.27,-32.25 676.93,-21.66 670.59,-30.15 677.27,-32.25"/>
</a>
</g>
</g>
<!-- Node7 -->
<g id="Node000007" class="node">
<title>Node7</title>
<g id="a_Node000007"><a xlink:title=" ">
<polygon fill="#e0e0e0" stroke="#999999" points="868.12,-76 783.12,-76 783.12,-56 868.12,-56 868.12,-76"/>
<text xml:space="preserve" text-anchor="middle" x="825.62" y="-62.5" font-family="Helvetica,sans-Serif" font-size="10.00">QtCore/QRectF</text>
</a>
</g>
</g>
<!-- Node4&#45;&gt;Node7 -->
<g id="edge7_Node000004_Node000007" class="edge">
<title>Node4&#45;&gt;Node7</title>
<g id="a_edge7_Node000004_Node000007"><a xlink:title=" ">
<path fill="none" stroke="#63b8ff" d="M429.87,-117.56C438.93,-115.53 448.59,-113.54 457.62,-112 593.87,-88.85 632.36,-95.94 771.7,-76.34"/>
<polygon fill="#63b8ff" stroke="#63b8ff" points="771.9,-79.85 781.3,-74.97 770.91,-72.92 771.9,-79.85"/>
</a>
</g>
</g>
<!-- Node8 -->
<g id="Node000008" class="node">
<title>Node8</title>
<g id="a_Node000008"><a xlink:title=" ">
<polygon fill="#e0e0e0" stroke="#999999" points="613.38,-20 529.88,-20 529.88,0 613.38,0 613.38,-20"/>
<text xml:space="preserve" text-anchor="middle" x="571.62" y="-6.5" font-family="Helvetica,sans-Serif" font-size="10.00">QtCore/QString</text>
</a>
</g>
</g>
<!-- Node4&#45;&gt;Node8 -->
<g id="edge8_Node000004_Node000008" class="edge">
<title>Node4&#45;&gt;Node8</title>
<g id="a_edge8_Node000004_Node000008"><a xlink:title=" ">
<path fill="none" stroke="#63b8ff" d="M432.79,-117.54C441.01,-115.68 449.59,-113.76 457.62,-112 533.49,-95.39 579.69,-136.31 628.62,-76 642.77,-58.57 620.94,-39.33 600.34,-26.33"/>
<polygon fill="#63b8ff" stroke="#63b8ff" points="602.18,-23.35 591.79,-21.26 598.61,-29.38 602.18,-23.35"/>
</a>
</g>
</g>
<!-- Node9 -->
<g id="Node000009" class="node">
<title>Node9</title>
<g id="a_Node000009"><a xlink:title=" ">
<polygon fill="#e0e0e0" stroke="#999999" points="399.38,-76 315.88,-76 315.88,-56 399.38,-56 399.38,-76"/>
<text xml:space="preserve" text-anchor="middle" x="357.62" y="-62.5" font-family="Helvetica,sans-Serif" font-size="10.00">QtCore/QSizeF</text>
</a>
</g>
</g>
<!-- Node4&#45;&gt;Node9 -->
<g id="edge9_Node000004_Node000009" class="edge">
<title>Node4&#45;&gt;Node9</title>
<g id="a_edge9_Node000004_Node000009"><a xlink:title=" ">
<path fill="none" stroke="#63b8ff" d="M386.31,-117.62C381.54,-109.21 374.4,-96.6 368.43,-86.07"/>
<polygon fill="#63b8ff" stroke="#63b8ff" points="371.51,-84.4 363.54,-77.43 365.42,-87.86 371.51,-84.4"/>
</a>
</g>
</g>
<!-- Node10 -->
<g id="Node000010" class="node">
<title>Node10</title>
<g id="a_Node000010"><a xlink:title=" ">
<polygon fill="#e0e0e0" stroke="#999999" points="342.75,-20 264.5,-20 264.5,0 342.75,0 342.75,-20"/>
<text xml:space="preserve" text-anchor="middle" x="303.62" y="-6.5" font-family="Helvetica,sans-Serif" font-size="10.00">QtCore/QUuid</text>
</a>
</g>
</g>
<!-- Node4&#45;&gt;Node10 -->
<g id="edge10_Node000004_Node000010" class="edge">
<title>Node4&#45;&gt;Node10</title>
<g id="a_edge10_Node000004_Node000010"><a xlink:title=" ">
<path fill="none" stroke="#63b8ff" d="M362.27,-117.65C342.89,-109.81 318.89,-96.54 306.62,-76 298.64,-62.63 298.39,-44.82 299.85,-31.22"/>
<polygon fill="#63b8ff" stroke="#63b8ff" points="303.26,-32.07 301.28,-21.67 296.34,-31.04 303.26,-32.07"/>
</a>
</g>
</g>
<!-- Node11 -->
<g id="Node000011" class="node">
<title>Node11</title>
<g id="a_Node000011"><a xlink:title=" ">
<polygon fill="#e0e0e0" stroke="#999999" points="505.62,-76 417.62,-76 417.62,-56 505.62,-56 505.62,-76"/>
<text xml:space="preserve" text-anchor="middle" x="461.62" y="-62.5" font-family="Helvetica,sans-Serif" font-size="10.00">QtCore/QVariant</text>
</a>
</g>
</g>
<!-- Node4&#45;&gt;Node11 -->
<g id="edge11_Node000004_Node000011" class="edge">
<title>Node4&#45;&gt;Node11</title>
<g id="a_edge11_Node000004_Node000011"><a xlink:title=" ">
<path fill="none" stroke="#63b8ff" d="M402.56,-117.62C413.21,-108.5 429.61,-94.45 442.42,-83.46"/>
<polygon fill="#63b8ff" stroke="#63b8ff" points="444.53,-86.26 449.84,-77.1 439.97,-80.95 444.53,-86.26"/>
</a>
</g>
</g>
<!-- Node12 -->
<g id="Node000012" class="node">
<title>Node12</title>
<g id="a_Node000012"><a xlink:title=" ">
<polygon fill="#e0e0e0" stroke="#999999" points="765.25,-76 714,-76 714,-56 765.25,-56 765.25,-76"/>
<text xml:space="preserve" text-anchor="middle" x="739.62" y="-62.5" font-family="Helvetica,sans-Serif" font-size="10.00">memory</text>
</a>
</g>
</g>
<!-- Node4&#45;&gt;Node12 -->
<g id="edge12_Node000004_Node000012" class="edge">
<title>Node4&#45;&gt;Node12</title>
<g id="a_edge12_Node000004_Node000012"><a xlink:title=" ">
<path fill="none" stroke="#63b8ff" d="M430.96,-117.55C439.71,-115.59 448.96,-113.63 457.62,-112 564.5,-91.94 592.73,-95.95 699.62,-76 700.64,-75.81 701.66,-75.62 702.69,-75.41"/>
<polygon fill="#63b8ff" stroke="#63b8ff" points="703.3,-78.86 712.38,-73.4 701.88,-72.01 703.3,-78.86"/>
</a>
</g>
</g>
<!-- Node13 -->
<g id="Node000013" class="node">
<title>Node13</title>
<g id="a_Node000013"><a xlink:href="_connection_point_8h.html" target="_top" xlink:title=" ">
<polygon fill="white" stroke="#666666" points="619.75,-76 523.5,-76 523.5,-56 619.75,-56 619.75,-76"/>
<text xml:space="preserve" text-anchor="middle" x="571.62" y="-62.5" font-family="Helvetica,sans-Serif" font-size="10.00">ConnectionPoint.h</text>
</a>
</g>
</g>
<!-- Node4&#45;&gt;Node13 -->
<g id="edge13_Node000004_Node000013" class="edge">
<title>Node4&#45;&gt;Node13</title>
<g id="a_edge13_Node000004_Node000013"><a xlink:title=" ">
<path fill="none" stroke="#63b8ff" d="M419.75,-117.62C450.17,-107.48 498.88,-91.25 532.91,-79.9"/>
<polygon fill="#63b8ff" stroke="#63b8ff" points="533.59,-83.37 541.97,-76.89 531.37,-76.73 533.59,-83.37"/>
</a>
</g>
</g>
<!-- Node13&#45;&gt;Node5 -->
<g id="edge14_Node000013_Node000005" class="edge">
<title>Node13&#45;&gt;Node5</title>
<g id="a_edge14_Node000013_Node000005"><a xlink:title=" ">
<path fill="none" stroke="#63b8ff" d="M523.14,-57.16C520.26,-56.75 517.41,-56.36 514.62,-56 361.9,-36.17 319.82,-41.2 164.65,-20.33"/>
<polygon fill="#63b8ff" stroke="#63b8ff" points="165.16,-16.87 154.78,-18.99 164.22,-23.81 165.16,-16.87"/>
</a>
</g>
</g>
<!-- Node13&#45;&gt;Node6 -->
<g id="edge15_Node000013_Node000006" class="edge">
<title>Node13&#45;&gt;Node6</title>
<g id="a_edge15_Node000013_Node000006"><a xlink:title=" ">
<path fill="none" stroke="#63b8ff" d="M590.44,-55.59C606.98,-47.32 631.34,-35.14 650.42,-25.6"/>
<polygon fill="#63b8ff" stroke="#63b8ff" points="651.93,-28.76 659.31,-21.16 648.8,-22.5 651.93,-28.76"/>
</a>
</g>
</g>
<!-- Node13&#45;&gt;Node8 -->
<g id="edge16_Node000013_Node000008" class="edge">
<title>Node13&#45;&gt;Node8</title>
<g id="a_edge16_Node000013_Node000008"><a xlink:title=" ">
<path fill="none" stroke="#63b8ff" d="M571.62,-55.59C571.62,-49.01 571.62,-39.96 571.62,-31.73"/>
<polygon fill="#63b8ff" stroke="#63b8ff" points="575.13,-31.81 571.63,-21.81 568.13,-31.81 575.13,-31.81"/>
</a>
</g>
</g>
<!-- Node13&#45;&gt;Node10 -->
<g id="edge17_Node000013_Node000010" class="edge">
<title>Node13&#45;&gt;Node10</title>
<g id="a_edge17_Node000013_Node000010"><a xlink:title=" ">
<path fill="none" stroke="#63b8ff" d="M524.64,-55.53C476.97,-45.93 403.41,-31.11 354.42,-21.24"/>
<polygon fill="#63b8ff" stroke="#63b8ff" points="355.12,-17.8 344.62,-19.26 353.73,-24.67 355.12,-17.8"/>
</a>
</g>
</g>
<!-- Node14&#45;&gt;Node5 -->
<g id="edge19_Node000014_Node000005" class="edge">
<title>Node14&#45;&gt;Node5</title>
<g id="a_edge19_Node000014_Node000005"><a xlink:title=" ">
<path fill="none" stroke="#63b8ff" d="M183.12,-55.59C169.8,-47.51 150.35,-35.71 134.8,-26.27"/>
<polygon fill="#63b8ff" stroke="#63b8ff" points="136.91,-23.46 126.54,-21.26 133.28,-29.44 136.91,-23.46"/>
</a>
</g>
</g>
<!-- Node14&#45;&gt;Node6 -->
<g id="edge20_Node000014_Node000006" class="edge">
<title>Node14&#45;&gt;Node6</title>
<g id="a_edge20_Node000014_Node000006"><a xlink:title=" ">
<path fill="none" stroke="#63b8ff" d="M259.48,-59.52C341.92,-51.88 493.64,-37.02 622.62,-20 623.44,-19.89 624.27,-19.78 625.1,-19.67"/>
<polygon fill="#63b8ff" stroke="#63b8ff" points="625.18,-23.19 634.59,-18.32 624.2,-16.26 625.18,-23.19"/>
</a>
</g>
</g>
<!-- Node14&#45;&gt;Node8 -->
<g id="edge21_Node000014_Node000008" class="edge">
<title>Node14&#45;&gt;Node8</title>
<g id="a_edge21_Node000014_Node000008"><a xlink:title=" ">
<path fill="none" stroke="#63b8ff" d="M259.38,-56.2C331.2,-45.81 449.57,-28.67 518.08,-18.75"/>
<polygon fill="#63b8ff" stroke="#63b8ff" points="518.56,-22.22 527.95,-17.32 517.55,-15.29 518.56,-22.22"/>
</a>
</g>
</g>
<!-- Node14&#45;&gt;Node10 -->
<g id="edge22_Node000014_Node000010" class="edge">
<title>Node14&#45;&gt;Node10</title>
<g id="a_edge22_Node000014_Node000010"><a xlink:title=" ">
<path fill="none" stroke="#63b8ff" d="M216.91,-55.59C232.93,-47.36 256.46,-35.26 274.97,-25.74"/>
<polygon fill="#63b8ff" stroke="#63b8ff" points="276.55,-28.86 283.85,-21.17 273.35,-22.63 276.55,-28.86"/>
</a>
</g>
</g>
<!-- Node15 -->
<g id="Node000015" class="node">
<title>Node15</title>
<g id="a_Node000015"><a xlink:title=" ">
<polygon fill="#e0e0e0" stroke="#999999" points="246.25,-20 171,-20 171,0 246.25,0 246.25,-20"/>
<text xml:space="preserve" text-anchor="middle" x="208.62" y="-6.5" font-family="Helvetica,sans-Serif" font-size="10.00">QtGui/QColor</text>
</a>
</g>
</g>
<!-- Node14&#45;&gt;Node15 -->
<g id="edge23_Node000014_Node000015" class="edge">
<title>Node14&#45;&gt;Node15</title>
<g id="a_edge23_Node000014_Node000015"><a xlink:title=" ">
<path fill="none" stroke="#63b8ff" d="M200.37,-55.59C201.6,-48.93 203.3,-39.75 204.84,-31.44"/>
<polygon fill="#63b8ff" stroke="#63b8ff" points="208.25,-32.26 206.63,-21.79 201.37,-30.98 208.25,-32.26"/>
</a>
</g>
</g>
<!-- Node16&#45;&gt;Node4 -->
<g id="edge31_Node000016_Node000004" class="edge">
<title>Node16&#45;&gt;Node4</title>
<g id="a_edge31_Node000016_Node000004"><a xlink:title=" ">
<path fill="none" stroke="#63b8ff" d="M510.59,-179.62C487.31,-169.72 450.36,-153.99 423.82,-142.7"/>
<polygon fill="#63b8ff" stroke="#63b8ff" points="425.47,-139.6 414.89,-138.9 422.73,-146.04 425.47,-139.6"/>
</a>
</g>
</g>
<!-- Node16&#45;&gt;Node12 -->
<g id="edge32_Node000016_Node000012" class="edge">
<title>Node16&#45;&gt;Node12</title>
<g id="a_edge32_Node000016_Node000012"><a xlink:title=" ">
<path fill="none" stroke="#63b8ff" d="M604.06,-179.83C668.67,-170.8 755.25,-156.57 765.62,-144 779.66,-126.99 766.86,-102.04 754.77,-85.19"/>
<polygon fill="#63b8ff" stroke="#63b8ff" points="757.74,-83.31 748.86,-77.53 752.19,-87.59 757.74,-83.31"/>
</a>
</g>
</g>
<!-- Node17 -->
<g id="Node000017" class="node">
<title>Node17</title>
<g id="a_Node000017"><a xlink:title=" ">
<polygon fill="#e0e0e0" stroke="#999999" points="598.38,-138 466.88,-138 466.88,-118 598.38,-118 598.38,-138"/>
<text xml:space="preserve" text-anchor="middle" x="532.62" y="-124.5" font-family="Helvetica,sans-Serif" font-size="10.00">QtWidgets/QGraphicsItem</text>
</a>
</g>
</g>
<!-- Node16&#45;&gt;Node17 -->
<g id="edge25_Node000016_Node000017" class="edge">
<title>Node16&#45;&gt;Node17</title>
<g id="a_edge25_Node000016_Node000017"><a xlink:title=" ">
<path fill="none" stroke="#63b8ff" d="M532.62,-179.62C532.62,-171.56 532.62,-159.65 532.62,-149.41"/>
<polygon fill="#63b8ff" stroke="#63b8ff" points="536.13,-149.63 532.63,-139.63 529.13,-149.63 536.13,-149.63"/>
</a>
</g>
</g>
<!-- Node18 -->
<g id="Node000018" class="node">
<title>Node18</title>
<g id="a_Node000018"><a xlink:title=" ">
<polygon fill="#e0e0e0" stroke="#999999" points="756.5,-144 616.75,-144 616.75,-112 756.5,-112 756.5,-144"/>
<text xml:space="preserve" text-anchor="start" x="624.75" y="-130.5" font-family="Helvetica,sans-Serif" font-size="10.00">QtWidgets/QGraphicsScene</text>
<text xml:space="preserve" text-anchor="middle" x="686.62" y="-118.5" font-family="Helvetica,sans-Serif" font-size="10.00">MouseEvent</text>
</a>
</g>
</g>
<!-- Node16&#45;&gt;Node18 -->
<g id="edge26_Node000016_Node000018" class="edge">
<title>Node16&#45;&gt;Node18</title>
<g id="a_edge26_Node000016_Node000018"><a xlink:title=" ">
<path fill="none" stroke="#63b8ff" d="M556.69,-179.62C577.88,-171.37 609.43,-159.07 636.14,-148.67"/>
<polygon fill="#63b8ff" stroke="#63b8ff" points="637.41,-151.93 645.46,-145.04 634.87,-145.41 637.41,-151.93"/>
</a>
</g>
</g>
<!-- Node19 -->
<g id="Node000019" class="node">
<title>Node19</title>
<g id="a_Node000019"><a xlink:href="_element_renderer_8h.html" target="_top" xlink:title=" ">
<polygon fill="white" stroke="#666666" points="912.62,-138 812.62,-138 812.62,-118 912.62,-118 912.62,-138"/>
<text xml:space="preserve" text-anchor="middle" x="862.62" y="-124.5" font-family="Helvetica,sans-Serif" font-size="10.00">ElementRenderer.h</text>
</a>
</g>
</g>
<!-- Node16&#45;&gt;Node19 -->
<g id="edge27_Node000016_Node000019" class="edge">
<title>Node16&#45;&gt;Node19</title>
<g id="a_edge27_Node000016_Node000019"><a xlink:title=" ">
<path fill="none" stroke="#63b8ff" d="M595.44,-179.51C649.47,-171.08 729.41,-157.95 798.62,-144 803.28,-143.06 808.12,-142.03 812.95,-140.96"/>
<polygon fill="#63b8ff" stroke="#63b8ff" points="813.67,-144.39 822.65,-138.77 812.13,-137.56 813.67,-144.39"/>
</a>
</g>
</g>
<!-- Node19&#45;&gt;Node6 -->
<g id="edge30_Node000019_Node000006" class="edge">
<title>Node19&#45;&gt;Node6</title>
<g id="a_edge30_Node000019_Node000006"><a xlink:title=" ">
<path fill="none" stroke="#63b8ff" d="M868.95,-117.61C878.01,-102.87 892.09,-74.12 877.62,-56 859.95,-33.86 786.44,-21.78 734.16,-15.86"/>
<polygon fill="#63b8ff" stroke="#63b8ff" points="734.85,-12.42 724.53,-14.82 734.09,-19.37 734.85,-12.42"/>
</a>
</g>
</g>
<!-- Node19&#45;&gt;Node7 -->
<g id="edge29_Node000019_Node000007" class="edge">
<title>Node19&#45;&gt;Node7</title>
<g id="a_edge29_Node000019_Node000007"><a xlink:title=" ">
<path fill="none" stroke="#63b8ff" d="M856.84,-117.62C851.6,-109.12 843.71,-96.33 837.18,-85.74"/>
<polygon fill="#63b8ff" stroke="#63b8ff" points="840.27,-84.08 832.04,-77.4 834.31,-87.75 840.27,-84.08"/>
</a>
</g>
</g>
<!-- Node20 -->
<g id="Node000020" class="node">
<title>Node20</title>
<g id="a_Node000020"><a xlink:title=" ">
<polygon fill="#e0e0e0" stroke="#999999" points="1007,-76 924.25,-76 924.25,-56 1007,-56 1007,-76"/>
<text xml:space="preserve" text-anchor="middle" x="965.62" y="-62.5" font-family="Helvetica,sans-Serif" font-size="10.00">QtGui/QPainter</text>
</a>
</g>
</g>
<!-- Node19&#45;&gt;Node20 -->
<g id="edge28_Node000019_Node000020" class="edge">
<title>Node19&#45;&gt;Node20</title>
<g id="a_edge28_Node000019_Node000020"><a xlink:title=" ">
<path fill="none" stroke="#63b8ff" d="M878.72,-117.62C895.05,-108.11 920.57,-93.24 939.75,-82.08"/>
<polygon fill="#63b8ff" stroke="#63b8ff" points="941.46,-85.13 948.34,-77.07 937.93,-79.08 941.46,-85.13"/>
</a>
</g>
</g>
<!-- Node22 -->
<g id="Node000022" class="node">
<title>Node22</title>
<g id="a_Node000022"><a xlink:title=" ">
<polygon fill="#e0e0e0" stroke="#999999" points="1091,-138 930.25,-138 930.25,-118 1091,-118 1091,-138"/>
<text xml:space="preserve" text-anchor="middle" x="1010.62" y="-124.5" font-family="Helvetica,sans-Serif" font-size="10.00">QtWidgets/QGraphicsEllipseItem</text>
</a>
</g>
</g>
<!-- Node21&#45;&gt;Node22 -->
<g id="edge34_Node000021_Node000022" class="edge">
<title>Node21&#45;&gt;Node22</title>
<g id="a_edge34_Node000021_Node000022"><a xlink:title=" ">
<path fill="none" stroke="#63b8ff" d="M1066.31,-179.62C1056.37,-170.59 1041.11,-156.72 1029.08,-145.78"/>
<polygon fill="#63b8ff" stroke="#63b8ff" points="1031.52,-143.27 1021.77,-139.13 1026.81,-148.45 1031.52,-143.27"/>
</a>
</g>
</g>
<!-- Node23 -->
<g id="Node000023" class="node">
<title>Node23</title>
<g id="a_Node000023"><a xlink:title=" ">
<polygon fill="#e0e0e0" stroke="#999999" points="1178.25,-138 1109,-138 1109,-118 1178.25,-118 1178.25,-138"/>
<text xml:space="preserve" text-anchor="middle" x="1143.62" y="-124.5" font-family="Helvetica,sans-Serif" font-size="10.00">QtGui/QPen</text>
</a>
</g>
</g>
<!-- Node21&#45;&gt;Node23 -->
<g id="edge35_Node000021_Node000023" class="edge">
<title>Node21&#45;&gt;Node23</title>
<g id="a_edge35_Node000021_Node000023"><a xlink:title=" ">
<path fill="none" stroke="#63b8ff" d="M1087.09,-179.62C1097.18,-170.59 1112.67,-156.72 1124.89,-145.78"/>
<polygon fill="#63b8ff" stroke="#63b8ff" points="1127.21,-148.4 1132.32,-139.12 1122.54,-143.19 1127.21,-148.4"/>
</a>
</g>
</g>
<!-- Node24 -->
<g id="Node000024" class="node">
<title>Node24</title>
<g id="a_Node000024"><a xlink:title=" ">
<polygon fill="#e0e0e0" stroke="#999999" points="1273.38,-138 1195.88,-138 1195.88,-118 1273.38,-118 1273.38,-138"/>
<text xml:space="preserve" text-anchor="middle" x="1234.62" y="-124.5" font-family="Helvetica,sans-Serif" font-size="10.00">QtGui/QBrush</text>
</a>
</g>
</g>
<!-- Node21&#45;&gt;Node24 -->
<g id="edge36_Node000021_Node000024" class="edge">
<title>Node21&#45;&gt;Node24</title>
<g id="a_edge36_Node000021_Node000024"><a xlink:title=" ">
<path fill="none" stroke="#63b8ff" d="M1101.31,-179.62C1127.67,-169.62 1169.67,-153.67 1199.47,-142.35"/>
<polygon fill="#63b8ff" stroke="#63b8ff" points="1200.33,-145.77 1208.44,-138.95 1197.84,-139.22 1200.33,-145.77"/>
</a>
</g>
</g>
</g>
</svg>
