<?xml version="1.0" encoding="UTF-8" standalone="no"?>
<!DOCTYPE svg PUBLIC "-//W3C//DTD SVG 1.1//EN"
 "http://www.w3.org/Graphics/SVG/1.1/DTD/svg11.dtd">
<!-- Generated by graphviz version 14.1.1 (20251213.1925)
 -->
<!-- Title: src/view/DiagramScene.h Pages: 1 -->
<!--zoomable 152 -->

<svg id="main" version="1.1" xmlns="http://www.w3.org/2000/svg" xmlns:xlink="http://www.w3.org/1999/xlink" xml:space="preserve" onload="init(evt)">

<style type="text/css"><![CDATA[
.node, .edge {opacity: 0.7;}
.node.selected, .edge.selected {opacity: 1;}
.edge:hover path { stroke: red; }
.edge:hover polygon { stroke: red; fill: red; }
]]></style>

<defs>
  <circle id="rim" cx="0" cy="0" r="7"/>
  <circle id="rim2" cx="0" cy="0" r="3.5"/>
  <g id="zoomPlus">
    <use xlink:href="#rim" fill="#404040"><set attributeName="fill" to="#808080" begin="zoomplus.mouseover" end="zoomplus.mouseout"/></use>
    <path d="M-4,0h8M0,-4v8" fill="none" stroke="white" stroke-width="1.5" pointer-events="none"/>
  </g>
  <g id="zoomMin">
    <use xlink:href="#rim" fill="#404040"><set attributeName="fill" to="#808080" begin="zoomminus.mouseover" end="zoomminus.mouseout"/></use>
    <path d="M-4,0h8" fill="none" stroke="white" stroke-width="1.5" pointer-events="none"/>
  </g>
  <g id="arrowUp" transform="translate(30 24)">
    <use xlink:href="#rim"/>
    <path pointer-events="none" fill="none" stroke="white" stroke-width="1.5" d="M0,-3.0v7 M-2.5,-0.5L0,-3.0L2.5,-0.5"/>
  </g>
  <g id="arrowRight" transform="rotate(90) translate(36 -43)">
    <use xlink:href="#rim"/>
    <path pointer-events="none" fill="none" stroke="white" stroke-width="1.5" d="M0,-3.0v7 M-2.5,-0.5L0,-3.0L2.5,-0.5"/>
  </g>
  <g id="arrowDown" transform="rotate(180) translate(-30 -48)">
    <use xlink:href="#rim"/>
    <path pointer-events="none" fill="none" stroke="white" stroke-width="1.5" d="M0,-3.0v7 M-2.5,-0.5L0,-3.0L2.5,-0.5"/>
  </g>
  <g id="arrowLeft" transform="rotate(270) translate(-36 17)">
    <use xlink:href="#rim"/>
    <path pointer-events="none" fill="none" stroke="white" stroke-width="1.5" d="M0,-3.0v7 M-2.5,-0.5L0,-3.0L2.5,-0.5"/>
  </g>
  <g id="resetDef">
    <use xlink:href="#rim2" fill="#404040"><set attributeName="fill" to="#808080" begin="reset.mouseover" end="reset.mouseout"/></use>
  </g>
</defs>
<script type="application/ecmascript">
var viewWidth = 1460;
var viewHeight = 152;
var sectionId = 'dynsection-1';
</script>
<script type="application/ecmascript" xlink:href="svg.min.js"/>
<svg id="graph" class="graph">
<g id="viewport">
<title>src/view/DiagramScene.h</title>
<!-- Node1 -->
<g id="Node000001" class="node">
<title>Node1</title>
<g id="a_Node000001"><a xlink:title=" ">
<polygon fill="#999999" stroke="#666666" points="826.25,-144 697.75,-144 697.75,-124 826.25,-124 826.25,-144"/>
<text xml:space="preserve" text-anchor="middle" x="762" y="-130.5" font-family="Helvetica,sans-Serif" font-size="10.00">src/view/DiagramScene.h</text>
</a>
</g>
</g>
<!-- Node2 -->
<g id="Node000002" class="node">
<title>Node2</title>
<g id="a_Node000002"><a xlink:href="_connection_line_8cpp.html" target="_top" xlink:title=" ">
<polygon fill="white" stroke="#666666" points="148,-82 0,-82 0,-62 148,-62 148,-82"/>
<text xml:space="preserve" text-anchor="middle" x="74" y="-68.5" font-family="Helvetica,sans-Serif" font-size="10.00">src/model/ConnectionLine.cpp</text>
</a>
</g>
</g>
<!-- Node1&#45;&gt;Node2 -->
<g id="edge1_Node000001_Node000002" class="edge">
<title>Node1&#45;&gt;Node2</title>
<g id="a_edge1_Node000001_Node000002"><a xlink:title=" ">
<path fill="none" stroke="#63b8ff" d="M685.86,-129.89C570.92,-124.63 346.4,-112.09 157,-88 145.38,-86.52 132.92,-84.5 121.27,-82.43"/>
<polygon fill="#63b8ff" stroke="#63b8ff" points="685.65,-133.39 695.8,-130.34 685.97,-126.39 685.65,-133.39"/>
</a>
</g>
</g>
<!-- Node3 -->
<g id="Node000003" class="node">
<title>Node3</title>
<g id="a_Node000003"><a xlink:href="_diagram_file_manager_8cpp.html" target="_top" xlink:title=" ">
<polygon fill="white" stroke="#666666" points="336.25,-82 165.75,-82 165.75,-62 336.25,-62 336.25,-82"/>
<text xml:space="preserve" text-anchor="middle" x="251" y="-68.5" font-family="Helvetica,sans-Serif" font-size="10.00">src/model/DiagramFileManager.cpp</text>
</a>
</g>
</g>
<!-- Node1&#45;&gt;Node3 -->
<g id="edge2_Node000001_Node000003" class="edge">
<title>Node1&#45;&gt;Node3</title>
<g id="a_edge2_Node000001_Node000003"><a xlink:title=" ">
<path fill="none" stroke="#63b8ff" d="M686.15,-125.98C602.48,-117.97 463.91,-103.89 345,-88 332.71,-86.36 319.56,-84.39 307.1,-82.43"/>
<polygon fill="#63b8ff" stroke="#63b8ff" points="685.79,-129.46 696.08,-126.93 686.46,-122.49 685.79,-129.46"/>
</a>
</g>
</g>
<!-- Node4 -->
<g id="Node000004" class="node">
<title>Node4</title>
<g id="a_Node000004"><a xlink:href="_diagram_serializer_8cpp.html" target="_top" xlink:title=" ">
<polygon fill="white" stroke="#666666" points="511.88,-82 354.12,-82 354.12,-62 511.88,-62 511.88,-82"/>
<text xml:space="preserve" text-anchor="middle" x="433" y="-68.5" font-family="Helvetica,sans-Serif" font-size="10.00">src/model/DiagramSerializer.cpp</text>
</a>
</g>
</g>
<!-- Node1&#45;&gt;Node4 -->
<g id="edge3_Node000001_Node000004" class="edge">
<title>Node1&#45;&gt;Node4</title>
<g id="a_edge3_Node000001_Node000004"><a xlink:title=" ">
<path fill="none" stroke="#63b8ff" d="M699.02,-121.51C636.88,-110.18 543.03,-93.07 485.01,-82.48"/>
<polygon fill="#63b8ff" stroke="#63b8ff" points="698.28,-124.94 708.74,-123.29 699.53,-118.05 698.28,-124.94"/>
</a>
</g>
</g>
<!-- Node5 -->
<g id="Node000005" class="node">
<title>Node5</title>
<g id="a_Node000005"><a xlink:href="_connection_graphics_item_8cpp.html" target="_top" xlink:title=" ">
<polygon fill="white" stroke="#666666" points="674.12,-88 529.88,-88 529.88,-56 674.12,-56 674.12,-88"/>
<text xml:space="preserve" text-anchor="start" x="537.88" y="-74.5" font-family="Helvetica,sans-Serif" font-size="10.00">src/view/ConnectionGraphics</text>
<text xml:space="preserve" text-anchor="middle" x="602" y="-62.5" font-family="Helvetica,sans-Serif" font-size="10.00">Item.cpp</text>
</a>
</g>
</g>
<!-- Node1&#45;&gt;Node5 -->
<g id="edge4_Node000001_Node000005" class="edge">
<title>Node1&#45;&gt;Node5</title>
<g id="a_edge4_Node000001_Node000005"><a xlink:title=" ">
<path fill="none" stroke="#63b8ff" d="M726.34,-119.63C701.76,-110.41 669.02,-98.13 643.31,-88.49"/>
<polygon fill="#63b8ff" stroke="#63b8ff" points="724.99,-122.86 735.58,-123.09 727.45,-116.31 724.99,-122.86"/>
</a>
</g>
</g>
<!-- Node6 -->
<g id="Node000006" class="node">
<title>Node6</title>
<g id="a_Node000006"><a xlink:href="_diagram_scene_8cpp.html" target="_top" xlink:title=" ">
<polygon fill="white" stroke="#666666" points="831.5,-82 692.5,-82 692.5,-62 831.5,-62 831.5,-82"/>
<text xml:space="preserve" text-anchor="middle" x="762" y="-68.5" font-family="Helvetica,sans-Serif" font-size="10.00">src/view/DiagramScene.cpp</text>
</a>
</g>
</g>
<!-- Node1&#45;&gt;Node6 -->
<g id="edge5_Node000001_Node000006" class="edge">
<title>Node1&#45;&gt;Node6</title>
<g id="a_edge5_Node000001_Node000006"><a xlink:title=" ">
<path fill="none" stroke="#63b8ff" d="M762,-112.25C762,-101.97 762,-90.09 762,-82.11"/>
<polygon fill="#63b8ff" stroke="#63b8ff" points="758.5,-112.11 762,-122.11 765.5,-112.11 758.5,-112.11"/>
</a>
</g>
</g>
<!-- Node7 -->
<g id="Node000007" class="node">
<title>Node7</title>
<g id="a_Node000007"><a xlink:href="_diagram_view_8cpp.html" target="_top" xlink:title=" ">
<polygon fill="white" stroke="#666666" points="982.12,-82 849.88,-82 849.88,-62 982.12,-62 982.12,-82"/>
<text xml:space="preserve" text-anchor="middle" x="916" y="-68.5" font-family="Helvetica,sans-Serif" font-size="10.00">src/view/DiagramView.cpp</text>
</a>
</g>
</g>
<!-- Node1&#45;&gt;Node7 -->
<g id="edge6_Node000001_Node000007" class="edge">
<title>Node1&#45;&gt;Node7</title>
<g id="a_edge6_Node000001_Node000007"><a xlink:title=" ">
<path fill="none" stroke="#63b8ff" d="M796.55,-119.54C825.55,-108.24 866.24,-92.39 891.85,-82.41"/>
<polygon fill="#63b8ff" stroke="#63b8ff" points="795.52,-116.18 787.47,-123.08 798.06,-122.71 795.52,-116.18"/>
</a>
</g>
</g>
<!-- Node8 -->
<g id="Node000008" class="node">
<title>Node8</title>
<g id="a_Node000008"><a xlink:href="_element_graphics_item_8cpp.html" target="_top" xlink:title=" ">
<polygon fill="white" stroke="#666666" points="1131.38,-88 1000.62,-88 1000.62,-56 1131.38,-56 1131.38,-88"/>
<text xml:space="preserve" text-anchor="start" x="1008.62" y="-74.5" font-family="Helvetica,sans-Serif" font-size="10.00">src/view/ElementGraphics</text>
<text xml:space="preserve" text-anchor="middle" x="1066" y="-62.5" font-family="Helvetica,sans-Serif" font-size="10.00">Item.cpp</text>
</a>
</g>
</g>
<!-- Node1&#45;&gt;Node8 -->
<g id="edge7_Node000001_Node000008" class="edge">
<title>Node1&#45;&gt;Node8</title>
<g id="a_edge7_Node000001_Node000008"><a xlink:title=" ">
<path fill="none" stroke="#63b8ff" d="M821.28,-121.41C867.52,-112.35 933.36,-99.43 991,-88 994,-87.41 997.06,-86.8 1000.15,-86.18"/>
<polygon fill="#63b8ff" stroke="#63b8ff" points="820.89,-117.92 811.74,-123.27 822.23,-124.79 820.89,-117.92"/>
</a>
</g>
</g>
<!-- Node9 -->
<g id="Node000009" class="node">
<title>Node9</title>
<g id="a_Node000009"><a xlink:href="_main_window_8h.html" target="_top" xlink:title=" ">
<polygon fill="white" stroke="#666666" points="1268.75,-82 1149.25,-82 1149.25,-62 1268.75,-62 1268.75,-82"/>
<text xml:space="preserve" text-anchor="middle" x="1209" y="-68.5" font-family="Helvetica,sans-Serif" font-size="10.00">src/view/MainWindow.h</text>
</a>
</g>
</g>
<!-- Node1&#45;&gt;Node9 -->
<g id="edge8_Node000001_Node000009" class="edge">
<title>Node1&#45;&gt;Node9</title>
<g id="a_edge8_Node000001_Node000009"><a xlink:title=" ">
<path fill="none" stroke="#63b8ff" d="M837.9,-126.12C914.44,-118.67 1035.85,-105.48 1140,-88 1149.31,-86.44 1159.26,-84.46 1168.63,-82.45"/>
<polygon fill="#63b8ff" stroke="#63b8ff" points="837.6,-122.63 827.98,-127.07 838.27,-129.6 837.6,-122.63"/>
</a>
</g>
</g>
<!-- Node13 -->
<g id="Node000013" class="node">
<title>Node13</title>
<g id="a_Node000013"><a xlink:href="_properties_panel_8cpp.html" target="_top" xlink:title=" ">
<polygon fill="white" stroke="#666666" points="1430.75,-82 1287.25,-82 1287.25,-62 1430.75,-62 1430.75,-82"/>
<text xml:space="preserve" text-anchor="middle" x="1359" y="-68.5" font-family="Helvetica,sans-Serif" font-size="10.00">src/view/PropertiesPanel.cpp</text>
</a>
</g>
</g>
<!-- Node1&#45;&gt;Node13 -->
<g id="edge12_Node000001_Node000013" class="edge">
<title>Node1&#45;&gt;Node13</title>
<g id="a_edge12_Node000001_Node000013"><a xlink:title=" ">
<path fill="none" stroke="#63b8ff" d="M837.86,-128.67C938.69,-122.4 1122.28,-109.16 1278,-88 1289.05,-86.5 1300.89,-84.52 1312.01,-82.49"/>
<polygon fill="#63b8ff" stroke="#63b8ff" points="837.85,-125.17 828.09,-129.28 838.28,-132.15 837.85,-125.17"/>
</a>
</g>
</g>
<!-- Node10 -->
<g id="Node000010" class="node">
<title>Node10</title>
<g id="a_Node000010"><a xlink:href="main_8cpp.html" target="_top" xlink:title=" ">
<polygon fill="white" stroke="#666666" points="1126.12,-20 1053.88,-20 1053.88,0 1126.12,0 1126.12,-20"/>
<text xml:space="preserve" text-anchor="middle" x="1090" y="-6.5" font-family="Helvetica,sans-Serif" font-size="10.00">src/main.cpp</text>
</a>
</g>
</g>
<!-- Node9&#45;&gt;Node10 -->
<g id="edge9_Node000009_Node000010" class="edge">
<title>Node9&#45;&gt;Node10</title>
<g id="a_edge9_Node000009_Node000010"><a xlink:title=" ">
<path fill="none" stroke="#63b8ff" d="M1180.17,-56.46C1157.86,-45.21 1127.63,-29.97 1108.46,-20.31"/>
<polygon fill="#63b8ff" stroke="#63b8ff" points="1178.55,-59.57 1189.05,-60.94 1181.7,-53.32 1178.55,-59.57"/>
</a>
</g>
</g>
<!-- Node11 -->
<g id="Node000011" class="node">
<title>Node11</title>
<g id="a_Node000011"><a xlink:href="_main_window_8cpp.html" target="_top" xlink:title=" ">
<polygon fill="white" stroke="#666666" points="1274,-20 1144,-20 1144,0 1274,0 1274,-20"/>
<text xml:space="preserve" text-anchor="middle" x="1209" y="-6.5" font-family="Helvetica,sans-Serif" font-size="10.00">src/view/MainWindow.cpp</text>
</a>
</g>
</g>
<!-- Node9&#45;&gt;Node11 -->
<g id="edge10_Node000009_Node000011" class="edge">
<title>Node9&#45;&gt;Node11</title>
<g id="a_edge10_Node000009_Node000011"><a xlink:title=" ">
<path fill="none" stroke="#63b8ff" d="M1209,-50.25C1209,-39.97 1209,-28.09 1209,-20.11"/>
<polygon fill="#63b8ff" stroke="#63b8ff" points="1205.5,-50.11 1209,-60.11 1212.5,-50.11 1205.5,-50.11"/>
</a>
</g>
</g>
<!-- Node12 -->
<g id="Node000012" class="node">
<title>Node12</title>
<g id="a_Node000012"><a xlink:href="_quick_acess_toolbar_8cpp.html" target="_top" xlink:title=" ">
<polygon fill="white" stroke="#666666" points="1451.62,-20 1292.38,-20 1292.38,0 1451.62,0 1451.62,-20"/>
<text xml:space="preserve" text-anchor="middle" x="1372" y="-6.5" font-family="Helvetica,sans-Serif" font-size="10.00">src/view/QuickAcessToolbar.cpp</text>
</a>
</g>
</g>
<!-- Node9&#45;&gt;Node12 -->
<g id="edge11_Node000009_Node000012" class="edge">
<title>Node9&#45;&gt;Node12</title>
<g id="a_edge11_Node000009_Node000012"><a xlink:title=" ">
<path fill="none" stroke="#63b8ff" d="M1245.16,-57.69C1275.89,-46.38 1319.21,-30.43 1346.44,-20.41"/>
<polygon fill="#63b8ff" stroke="#63b8ff" points="1244.06,-54.36 1235.89,-61.1 1246.48,-60.93 1244.06,-54.36"/>
</a>
</g>
</g>
</g>
</svg>

<g id="navigator" transform="translate(0 0)" fill="#404254">
  <rect fill="#f2f5e9" fill-opacity="0.5" stroke="#606060" stroke-width=".5" x="0" y="0" width="60" height="60"/>
  <use id="zoomplus" xlink:href="#zoomPlus" x="17" y="9" onmousedown="handleZoom(evt,'in')"/>
  <use id="zoomminus" xlink:href="#zoomMin" x="42" y="9" onmousedown="handleZoom(evt,'out')"/>
  <use id="reset" xlink:href="#resetDef" x="30" y="36" onmousedown="handleReset()"/>
   <use id="arrowup" xlink:href="#arrowUp" x="0" y="0" onmousedown="handlePan(0,-1)"/>
  <use id="arrowright" xlink:href="#arrowRight" x="0" y="0" onmousedown="handlePan(1,0)"/>
  <use id="arrowdown" xlink:href="#arrowDown" x="0" y="0" onmousedown="handlePan(0,1)"/>
  <use id="arrowleft" xlink:href="#arrowLeft" x="0" y="0" onmousedown="handlePan(-1,0)"/>
</g>
<svg viewBox="0 0 15 15" width="100%" height="30px" preserveAspectRatio="xMaxYMin meet">
 <g id="arrow_out" transform="scale(0.3 0.3)">
  <a xlink:href="_diagram_scene_8h__dep__incl_org.svg" target="_base">
   <rect id="button" ry="5" rx="5" y="6" x="6" height="38" width="38"
        fill="#f2f5e9" fill-opacity="0.5" stroke="#606060" stroke-width="1.0"/>
   <path id="arrow"
     d="M 11.500037,31.436501 C 11.940474,20.09759 22.043105,11.32322 32.158766,21.979434 L 37.068811,17.246167 C 37.068811,17.246167 37.088388,32 37.088388,32 L 22.160133,31.978069 C 22.160133,31.978069 26.997745,27.140456 26.997745,27.140456 C 18.528582,18.264221 13.291696,25.230495 11.500037,31.436501 z"
     style="fill:#404040;"/>
  </a>
 </g>
</svg>

<style type='text/css'>
<![CDATA[
[data-mouse-over-selected='false'] { opacity: 0.7; }
[data-mouse-over-selected='true']  { opacity: 1.0; }
]]>
</style>
<script type="application/ecmascript"><![CDATA[
document.addEventListener('DOMContentLoaded', (event) => {
  highlightEdges();
  highlightAdjacentNodes();
});
]]></script>
</svg>
