<?xml version="1.0" encoding="UTF-8" standalone="no"?>
<!DOCTYPE svg PUBLIC "-//W3C//DTD SVG 1.1//EN"
 "http://www.w3.org/Graphics/SVG/1.1/DTD/svg11.dtd">
<!-- Generated by graphviz version 14.1.1 (20251213.1925)
 -->
<!-- Title: src/viewer/DiagramView.cpp Pages: 1 -->
<svg width="1394pt" height="320pt"
 viewBox="0.00 0.00 1394.00 320.00" xmlns="http://www.w3.org/2000/svg" xmlns:xlink="http://www.w3.org/1999/xlink">
<g id="graph0" class="graph" transform="scale(1 1) rotate(0) translate(4 316)">
<title>src/viewer/DiagramView.cpp</title>
<!-- Node1 -->
<g id="Node000001" class="node">
<title>Node1</title>
<g id="a_Node000001"><a xlink:title=" ">
<polygon fill="#999999" stroke="#666666" points="626.12,-312 485.62,-312 485.62,-292 626.12,-292 626.12,-312"/>
<text xml:space="preserve" text-anchor="middle" x="555.88" y="-298.5" font-family="Helvetica,sans-Serif" font-size="10.00">src/viewer/DiagramView.cpp</text>
</a>
</g>
</g>
<!-- Node2 -->
<g id="Node000002" class="node">
<title>Node2</title>
<g id="a_Node000002"><a xlink:href="_diagram_view_8h.html" target="_top" xlink:title=" ">
<polygon fill="white" stroke="#666666" points="437.88,-256 355.88,-256 355.88,-236 437.88,-236 437.88,-256"/>
<text xml:space="preserve" text-anchor="middle" x="396.88" y="-242.5" font-family="Helvetica,sans-Serif" font-size="10.00">DiagramView.h</text>
</a>
</g>
</g>
<!-- Node1&#45;&gt;Node2 -->
<g id="edge1_Node000001_Node000002" class="edge">
<title>Node1&#45;&gt;Node2</title>
<g id="a_edge1_Node000001_Node000002"><a xlink:title=" ">
<path fill="none" stroke="#63b8ff" d="M528.18,-291.59C502.57,-282.9 464.27,-269.89 435.63,-260.16"/>
<polygon fill="#63b8ff" stroke="#63b8ff" points="436.81,-256.87 426.22,-256.97 434.56,-263.5 436.81,-256.87"/>
</a>
</g>
</g>
<!-- Node4 -->
<g id="Node000004" class="node">
<title>Node4</title>
<g id="a_Node000004"><a xlink:title=" ">
<polygon fill="#e0e0e0" stroke="#999999" points="121.75,-200 0,-200 0,-180 121.75,-180 121.75,-200"/>
<text xml:space="preserve" text-anchor="middle" x="60.88" y="-186.5" font-family="Helvetica,sans-Serif" font-size="10.00">QtGui/QDragEnterEvent</text>
</a>
</g>
</g>
<!-- Node1&#45;&gt;Node4 -->
<g id="edge45_Node000001_Node000004" class="edge">
<title>Node1&#45;&gt;Node4</title>
<g id="a_edge45_Node000001_Node000004"><a xlink:title=" ">
<path fill="none" stroke="#63b8ff" d="M489.56,-291.52C436.37,-283.46 359.95,-270.85 293.88,-256 225.74,-240.69 147.81,-217.84 101.56,-203.71"/>
<polygon fill="#63b8ff" stroke="#63b8ff" points="102.82,-200.44 92.23,-200.85 100.77,-207.13 102.82,-200.44"/>
</a>
</g>
</g>
<!-- Node5 -->
<g id="Node000005" class="node">
<title>Node5</title>
<g id="a_Node000005"><a xlink:title=" ">
<polygon fill="#e0e0e0" stroke="#999999" points="262.12,-200 139.62,-200 139.62,-180 262.12,-180 262.12,-200"/>
<text xml:space="preserve" text-anchor="middle" x="200.88" y="-186.5" font-family="Helvetica,sans-Serif" font-size="10.00">QtGui/QDragMoveEvent</text>
</a>
</g>
</g>
<!-- Node1&#45;&gt;Node5 -->
<g id="edge46_Node000001_Node000005" class="edge">
<title>Node1&#45;&gt;Node5</title>
<g id="a_edge46_Node000001_Node000005"><a xlink:title=" ">
<path fill="none" stroke="#63b8ff" d="M496,-291.5C453.74,-283.98 396.1,-272.06 346.88,-256 304.54,-242.18 257.9,-220.14 229,-205.62"/>
<polygon fill="#63b8ff" stroke="#63b8ff" points="230.68,-202.55 220.18,-201.14 227.51,-208.79 230.68,-202.55"/>
</a>
</g>
</g>
<!-- Node6 -->
<g id="Node000006" class="node">
<title>Node6</title>
<g id="a_Node000006"><a xlink:title=" ">
<polygon fill="#e0e0e0" stroke="#999999" points="530.12,-200 431.62,-200 431.62,-180 530.12,-180 530.12,-200"/>
<text xml:space="preserve" text-anchor="middle" x="480.88" y="-186.5" font-family="Helvetica,sans-Serif" font-size="10.00">QtGui/QDropEvent</text>
</a>
</g>
</g>
<!-- Node1&#45;&gt;Node6 -->
<g id="edge47_Node000001_Node000006" class="edge">
<title>Node1&#45;&gt;Node6</title>
<g id="a_edge47_Node000001_Node000006"><a xlink:title=" ">
<path fill="none" stroke="#63b8ff" d="M549.48,-291.62C537.14,-273.52 509.82,-233.45 493.63,-209.7"/>
<polygon fill="#63b8ff" stroke="#63b8ff" points="496.63,-207.9 488.11,-201.61 490.85,-211.84 496.63,-207.9"/>
</a>
</g>
</g>
<!-- Node7 -->
<g id="Node000007" class="node">
<title>Node7</title>
<g id="a_Node000007"><a xlink:title=" ">
<polygon fill="#e0e0e0" stroke="#999999" points="653.5,-200 548.25,-200 548.25,-180 653.5,-180 653.5,-200"/>
<text xml:space="preserve" text-anchor="middle" x="600.88" y="-186.5" font-family="Helvetica,sans-Serif" font-size="10.00">QtGui/QWheelEvent</text>
</a>
</g>
</g>
<!-- Node1&#45;&gt;Node7 -->
<g id="edge48_Node000001_Node000007" class="edge">
<title>Node1&#45;&gt;Node7</title>
<g id="a_edge48_Node000001_Node000007"><a xlink:title=" ">
<path fill="none" stroke="#63b8ff" d="M559.71,-291.62C566.98,-273.84 582.92,-234.88 592.69,-211"/>
<polygon fill="#63b8ff" stroke="#63b8ff" points="595.93,-212.34 596.47,-201.76 589.45,-209.69 595.93,-212.34"/>
</a>
</g>
</g>
<!-- Node8 -->
<g id="Node000008" class="node">
<title>Node8</title>
<g id="a_Node000008"><a xlink:href="_diagram_scene_8h.html" target="_top" xlink:title=" ">
<polygon fill="white" stroke="#666666" points="975.62,-256 844.12,-256 844.12,-236 975.62,-236 975.62,-256"/>
<text xml:space="preserve" text-anchor="middle" x="909.88" y="-242.5" font-family="Helvetica,sans-Serif" font-size="10.00">controller/DiagramScene.h</text>
</a>
</g>
</g>
<!-- Node1&#45;&gt;Node8 -->
<g id="edge7_Node000001_Node000008" class="edge">
<title>Node1&#45;&gt;Node8</title>
<g id="a_edge7_Node000001_Node000008"><a xlink:title=" ">
<path fill="none" stroke="#63b8ff" d="M617.94,-291.53C678.92,-282.23 771.97,-268.04 836.57,-258.18"/>
<polygon fill="#63b8ff" stroke="#63b8ff" points="837.03,-261.65 846.38,-256.69 835.97,-254.73 837.03,-261.65"/>
</a>
</g>
</g>
<!-- Node32 -->
<g id="Node000032" class="node">
<title>Node32</title>
<g id="a_Node000032"><a xlink:title=" ">
<polygon fill="#e0e0e0" stroke="#999999" points="1096.38,-256 993.38,-256 993.38,-236 1096.38,-236 1096.38,-256"/>
<text xml:space="preserve" text-anchor="middle" x="1044.88" y="-242.5" font-family="Helvetica,sans-Serif" font-size="10.00">QtCore/QMimeData</text>
</a>
</g>
</g>
<!-- Node1&#45;&gt;Node32 -->
<g id="edge44_Node000001_Node000032" class="edge">
<title>Node1&#45;&gt;Node32</title>
<g id="a_edge44_Node000001_Node000032"><a xlink:title=" ">
<path fill="none" stroke="#63b8ff" d="M626.58,-294.55C709.39,-286.79 850.95,-272.83 982.15,-256.3"/>
<polygon fill="#63b8ff" stroke="#63b8ff" points="982.2,-259.82 991.68,-255.09 981.32,-252.88 982.2,-259.82"/>
</a>
</g>
</g>
<!-- Node33 -->
<g id="Node000033" class="node">
<title>Node33</title>
<g id="a_Node000033"><a xlink:title=" ">
<polygon fill="#e0e0e0" stroke="#999999" points="1235.38,-256 1114.38,-256 1114.38,-236 1235.38,-236 1235.38,-256"/>
<text xml:space="preserve" text-anchor="middle" x="1174.88" y="-242.5" font-family="Helvetica,sans-Serif" font-size="10.00">QtWidgets/QApplication</text>
</a>
</g>
</g>
<!-- Node1&#45;&gt;Node33 -->
<g id="edge49_Node000001_Node000033" class="edge">
<title>Node1&#45;&gt;Node33</title>
<g id="a_edge49_Node000001_Node000033"><a xlink:title=" ">
<path fill="none" stroke="#63b8ff" d="M626.3,-296.33C728.82,-289.28 925.43,-274.86 1102.57,-256.31"/>
<polygon fill="#63b8ff" stroke="#63b8ff" points="1102.86,-259.8 1112.44,-255.27 1102.12,-252.84 1102.86,-259.8"/>
</a>
</g>
</g>
<!-- Node3 -->
<g id="Node000003" class="node">
<title>Node3</title>
<g id="a_Node000003"><a xlink:title=" ">
<polygon fill="#e0e0e0" stroke="#999999" points="413.75,-200 280,-200 280,-180 413.75,-180 413.75,-200"/>
<text xml:space="preserve" text-anchor="middle" x="346.88" y="-186.5" font-family="Helvetica,sans-Serif" font-size="10.00">QtWidgets/QGraphicsView</text>
</a>
</g>
</g>
<!-- Node2&#45;&gt;Node3 -->
<g id="edge2_Node000002_Node000003" class="edge">
<title>Node2&#45;&gt;Node3</title>
<g id="a_edge2_Node000002_Node000003"><a xlink:title=" ">
<path fill="none" stroke="#63b8ff" d="M388.17,-235.59C381.28,-228.16 371.48,-217.58 363.16,-208.58"/>
<polygon fill="#63b8ff" stroke="#63b8ff" points="365.88,-206.37 356.51,-201.41 360.74,-211.12 365.88,-206.37"/>
</a>
</g>
</g>
<!-- Node2&#45;&gt;Node4 -->
<g id="edge3_Node000002_Node000004" class="edge">
<title>Node2&#45;&gt;Node4</title>
<g id="a_edge3_Node000002_Node000004"><a xlink:title=" ">
<path fill="none" stroke="#63b8ff" d="M355.67,-238.38C299.73,-229.39 198.95,-213.19 130.99,-202.27"/>
<polygon fill="#63b8ff" stroke="#63b8ff" points="131.88,-198.87 121.45,-200.74 130.77,-205.78 131.88,-198.87"/>
</a>
</g>
</g>
<!-- Node2&#45;&gt;Node5 -->
<g id="edge4_Node000002_Node000005" class="edge">
<title>Node2&#45;&gt;Node5</title>
<g id="a_edge4_Node000002_Node000005"><a xlink:title=" ">
<path fill="none" stroke="#63b8ff" d="M362.73,-235.59C330.47,-226.71 281.85,-213.31 246.32,-203.52"/>
<polygon fill="#63b8ff" stroke="#63b8ff" points="247.31,-200.16 236.74,-200.88 245.45,-206.91 247.31,-200.16"/>
</a>
</g>
</g>
<!-- Node2&#45;&gt;Node6 -->
<g id="edge5_Node000002_Node000006" class="edge">
<title>Node2&#45;&gt;Node6</title>
<g id="a_edge5_Node000002_Node000006"><a xlink:title=" ">
<path fill="none" stroke="#63b8ff" d="M411.51,-235.59C423.96,-227.59 442.09,-215.93 456.7,-206.54"/>
<polygon fill="#63b8ff" stroke="#63b8ff" points="458.34,-209.65 464.86,-201.3 454.55,-203.76 458.34,-209.65"/>
</a>
</g>
</g>
<!-- Node2&#45;&gt;Node7 -->
<g id="edge6_Node000002_Node000007" class="edge">
<title>Node2&#45;&gt;Node7</title>
<g id="a_edge6_Node000002_Node000007"><a xlink:title=" ">
<path fill="none" stroke="#63b8ff" d="M432.41,-235.59C466.13,-226.67 517.03,-213.19 554.05,-203.39"/>
<polygon fill="#63b8ff" stroke="#63b8ff" points="554.83,-206.81 563.6,-200.87 553.04,-200.04 554.83,-206.81"/>
</a>
</g>
</g>
<!-- Node9 -->
<g id="Node000009" class="node">
<title>Node9</title>
<g id="a_Node000009"><a xlink:title=" ">
<polygon fill="#e0e0e0" stroke="#999999" points="1247.5,-76 1166.25,-76 1166.25,-56 1247.5,-56 1247.5,-76"/>
<text xml:space="preserve" text-anchor="middle" x="1206.88" y="-62.5" font-family="Helvetica,sans-Serif" font-size="10.00">QtCore/QHash</text>
</a>
</g>
</g>
<!-- Node8&#45;&gt;Node9 -->
<g id="edge8_Node000008_Node000009" class="edge">
<title>Node8&#45;&gt;Node9</title>
<g id="a_edge8_Node000008_Node000009"><a xlink:title=" ">
<path fill="none" stroke="#63b8ff" d="M976.04,-237.07C1048.81,-227.94 1160.87,-212.59 1201.88,-200 1257.37,-182.96 1288.85,-193.06 1319.88,-144 1327.48,-131.98 1327.86,-123.77 1319.88,-112 1311.87,-100.2 1280.86,-88.32 1253.34,-79.74"/>
<polygon fill="#63b8ff" stroke="#63b8ff" points="1254.66,-76.48 1244.08,-76.94 1252.64,-83.18 1254.66,-76.48"/>
</a>
</g>
</g>
<!-- Node10 -->
<g id="Node000010" class="node">
<title>Node10</title>
<g id="a_Node000010"><a xlink:title=" ">
<polygon fill="#e0e0e0" stroke="#999999" points="979.75,-200 840,-200 840,-180 979.75,-180 979.75,-200"/>
<text xml:space="preserve" text-anchor="middle" x="909.88" y="-186.5" font-family="Helvetica,sans-Serif" font-size="10.00">QtWidgets/QGraphicsScene</text>
</a>
</g>
</g>
<!-- Node8&#45;&gt;Node10 -->
<g id="edge9_Node000008_Node000010" class="edge">
<title>Node8&#45;&gt;Node10</title>
<g id="a_edge9_Node000008_Node000010"><a xlink:title=" ">
<path fill="none" stroke="#63b8ff" d="M909.88,-235.59C909.88,-229.01 909.88,-219.96 909.88,-211.73"/>
<polygon fill="#63b8ff" stroke="#63b8ff" points="913.38,-211.81 909.88,-201.81 906.38,-211.81 913.38,-211.81"/>
</a>
</g>
</g>
<!-- Node11 -->
<g id="Node000011" class="node">
<title>Node11</title>
<g id="a_Node000011"><a xlink:href="_basic_element_8h.html" target="_top" xlink:title=" ">
<polygon fill="white" stroke="#666666" points="949,-138 834.75,-138 834.75,-118 949,-118 949,-138"/>
<text xml:space="preserve" text-anchor="middle" x="891.88" y="-124.5" font-family="Helvetica,sans-Serif" font-size="10.00">model/BasicElement.h</text>
</a>
</g>
</g>
<!-- Node8&#45;&gt;Node11 -->
<g id="edge10_Node000008_Node000011" class="edge">
<title>Node8&#45;&gt;Node11</title>
<g id="a_edge10_Node000008_Node000011"><a xlink:title=" ">
<path fill="none" stroke="#63b8ff" d="M938.99,-235.51C967.28,-224.6 1003.93,-204.93 988.88,-180 978.05,-162.08 958.62,-150.15 939.97,-142.36"/>
<polygon fill="#63b8ff" stroke="#63b8ff" points="941.46,-139.18 930.87,-138.88 938.96,-145.72 941.46,-139.18"/>
</a>
</g>
</g>
<!-- Node21 -->
<g id="Node000021" class="node">
<title>Node21</title>
<g id="a_Node000021"><a xlink:href="_connection_line_8h.html" target="_top" xlink:title=" ">
<polygon fill="white" stroke="#666666" points="1386.38,-76 1265.38,-76 1265.38,-56 1386.38,-56 1386.38,-76"/>
<text xml:space="preserve" text-anchor="middle" x="1325.88" y="-62.5" font-family="Helvetica,sans-Serif" font-size="10.00">model/ConnectionLine.h</text>
</a>
</g>
</g>
<!-- Node8&#45;&gt;Node21 -->
<g id="edge25_Node000008_Node000021" class="edge">
<title>Node8&#45;&gt;Node21</title>
<g id="a_edge25_Node000008_Node000021"><a xlink:title=" ">
<path fill="none" stroke="#63b8ff" d="M976.06,-236.76C1074.42,-224.46 1248.41,-202.47 1254.88,-200 1296.11,-184.27 1316.27,-183.03 1336.88,-144 1346.31,-126.13 1340.95,-102.83 1334.88,-86.57"/>
<polygon fill="#63b8ff" stroke="#63b8ff" points="1338.19,-85.42 1331.11,-77.54 1331.73,-88.11 1338.19,-85.42"/>
</a>
</g>
</g>
<!-- Node23 -->
<g id="Node000023" class="node">
<title>Node23</title>
<g id="a_Node000023"><a xlink:href="_element_graphics_item_8h.html" target="_top" xlink:title=" ">
<polygon fill="white" stroke="#666666" points="822,-200 671.75,-200 671.75,-180 822,-180 822,-200"/>
<text xml:space="preserve" text-anchor="middle" x="746.88" y="-186.5" font-family="Helvetica,sans-Serif" font-size="10.00">viewer/ElementGraphicsItem.h</text>
</a>
</g>
</g>
<!-- Node8&#45;&gt;Node23 -->
<g id="edge31_Node000008_Node000023" class="edge">
<title>Node8&#45;&gt;Node23</title>
<g id="a_edge31_Node000008_Node000023"><a xlink:title=" ">
<path fill="none" stroke="#63b8ff" d="M881.48,-235.59C855.12,-226.86 815.61,-213.77 786.21,-204.03"/>
<polygon fill="#63b8ff" stroke="#63b8ff" points="787.52,-200.78 776.93,-200.96 785.32,-207.42 787.52,-200.78"/>
</a>
</g>
</g>
<!-- Node28 -->
<g id="Node000028" class="node">
<title>Node28</title>
<g id="a_Node000028"><a xlink:href="_bezier_control_point_8h.html" target="_top" xlink:title=" ">
<polygon fill="white" stroke="#666666" points="1192.62,-200 1055.12,-200 1055.12,-180 1192.62,-180 1192.62,-200"/>
<text xml:space="preserve" text-anchor="middle" x="1123.88" y="-186.5" font-family="Helvetica,sans-Serif" font-size="10.00">viewer/BezierControlPoint.h</text>
</a>
</g>
</g>
<!-- Node8&#45;&gt;Node28 -->
<g id="edge40_Node000008_Node000028" class="edge">
<title>Node8&#45;&gt;Node28</title>
<g id="a_edge40_Node000008_Node000028"><a xlink:title=" ">
<path fill="none" stroke="#63b8ff" d="M947.15,-235.59C982.68,-226.63 1036.38,-213.08 1075.26,-203.27"/>
<polygon fill="#63b8ff" stroke="#63b8ff" points="1076,-206.69 1084.84,-200.85 1074.29,-199.9 1076,-206.69"/>
</a>
</g>
</g>
<!-- Node11&#45;&gt;Node9 -->
<g id="edge11_Node000011_Node000009" class="edge">
<title>Node11&#45;&gt;Node9</title>
<g id="a_edge11_Node000011_Node000009"><a xlink:title=" ">
<path fill="none" stroke="#63b8ff" d="M932.3,-117.51C940.74,-115.62 949.59,-113.69 957.88,-112 1025.56,-98.2 1104.05,-84.37 1154.52,-75.76"/>
<polygon fill="#63b8ff" stroke="#63b8ff" points="1155.03,-79.23 1164.3,-74.1 1153.85,-72.32 1155.03,-79.23"/>
</a>
</g>
</g>
<!-- Node12 -->
<g id="Node000012" class="node">
<title>Node12</title>
<g id="a_Node000012"><a xlink:title=" ">
<polygon fill="#e0e0e0" stroke="#999999" points="957.12,-20 870.62,-20 870.62,0 957.12,0 957.12,-20"/>
<text xml:space="preserve" text-anchor="middle" x="913.88" y="-6.5" font-family="Helvetica,sans-Serif" font-size="10.00">QtCore/QObject</text>
</a>
</g>
</g>
<!-- Node11&#45;&gt;Node12 -->
<g id="edge12_Node000011_Node000012" class="edge">
<title>Node11&#45;&gt;Node12</title>
<g id="a_edge12_Node000011_Node000012"><a xlink:title=" ">
<path fill="none" stroke="#63b8ff" d="M893.68,-117.51C897.22,-98.81 905.18,-56.82 909.99,-31.51"/>
<polygon fill="#63b8ff" stroke="#63b8ff" points="913.4,-32.26 911.83,-21.79 906.53,-30.96 913.4,-32.26"/>
</a>
</g>
</g>
<!-- Node13 -->
<g id="Node000013" class="node">
<title>Node13</title>
<g id="a_Node000013"><a xlink:title=" ">
<polygon fill="#e0e0e0" stroke="#999999" points="748.12,-20 661.62,-20 661.62,0 748.12,0 748.12,-20"/>
<text xml:space="preserve" text-anchor="middle" x="704.88" y="-6.5" font-family="Helvetica,sans-Serif" font-size="10.00">QtCore/QPointF</text>
</a>
</g>
</g>
<!-- Node11&#45;&gt;Node13 -->
<g id="edge13_Node000011_Node000013" class="edge">
<title>Node11&#45;&gt;Node13</title>
<g id="a_edge13_Node000011_Node000013"><a xlink:title=" ">
<path fill="none" stroke="#63b8ff" d="M858.87,-117.57C822.9,-106.86 768.17,-89.17 750.88,-76 734.93,-63.85 722.28,-44.6 714.32,-30.2"/>
<polygon fill="#63b8ff" stroke="#63b8ff" points="717.6,-28.92 709.87,-21.67 711.39,-32.16 717.6,-28.92"/>
</a>
</g>
</g>
<!-- Node14 -->
<g id="Node000014" class="node">
<title>Node14</title>
<g id="a_Node000014"><a xlink:title=" ">
<polygon fill="#e0e0e0" stroke="#999999" points="604.38,-76 519.38,-76 519.38,-56 604.38,-56 604.38,-76"/>
<text xml:space="preserve" text-anchor="middle" x="561.88" y="-62.5" font-family="Helvetica,sans-Serif" font-size="10.00">QtCore/QRectF</text>
</a>
</g>
</g>
<!-- Node11&#45;&gt;Node14 -->
<g id="edge14_Node000011_Node000014" class="edge">
<title>Node11&#45;&gt;Node14</title>
<g id="a_edge14_Node000011_Node000014"><a xlink:title=" ">
<path fill="none" stroke="#63b8ff" d="M851.81,-117.52C843.27,-115.6 834.29,-113.67 825.88,-112 735.19,-94.05 709.38,-92.44 615.85,-76.49"/>
<polygon fill="#63b8ff" stroke="#63b8ff" points="616.66,-73.08 606.22,-74.84 615.48,-79.98 616.66,-73.08"/>
</a>
</g>
</g>
<!-- Node15 -->
<g id="Node000015" class="node">
<title>Node15</title>
<g id="a_Node000015"><a xlink:title=" ">
<polygon fill="#e0e0e0" stroke="#999999" points="852.62,-20 769.12,-20 769.12,0 852.62,0 852.62,-20"/>
<text xml:space="preserve" text-anchor="middle" x="810.88" y="-6.5" font-family="Helvetica,sans-Serif" font-size="10.00">QtCore/QString</text>
</a>
</g>
</g>
<!-- Node11&#45;&gt;Node15 -->
<g id="edge15_Node000011_Node000015" class="edge">
<title>Node11&#45;&gt;Node15</title>
<g id="a_edge15_Node000011_Node000015"><a xlink:title=" ">
<path fill="none" stroke="#63b8ff" d="M853.86,-117.56C818.62,-107.95 770.01,-92.2 758.88,-76 746.74,-58.36 766.08,-39.36 784.51,-26.49"/>
<polygon fill="#63b8ff" stroke="#63b8ff" points="786.18,-29.58 792.64,-21.18 782.35,-23.72 786.18,-29.58"/>
</a>
</g>
</g>
<!-- Node16 -->
<g id="Node000016" class="node">
<title>Node16</title>
<g id="a_Node000016"><a xlink:title=" ">
<polygon fill="#e0e0e0" stroke="#999999" points="1003.62,-76 920.12,-76 920.12,-56 1003.62,-56 1003.62,-76"/>
<text xml:space="preserve" text-anchor="middle" x="961.88" y="-62.5" font-family="Helvetica,sans-Serif" font-size="10.00">QtCore/QSizeF</text>
</a>
</g>
</g>
<!-- Node11&#45;&gt;Node16 -->
<g id="edge16_Node000011_Node000016" class="edge">
<title>Node11&#45;&gt;Node16</title>
<g id="a_edge16_Node000011_Node000016"><a xlink:title=" ">
<path fill="none" stroke="#63b8ff" d="M902.81,-117.62C913.46,-108.5 929.86,-94.45 942.67,-83.46"/>
<polygon fill="#63b8ff" stroke="#63b8ff" points="944.78,-86.26 950.09,-77.1 940.22,-80.95 944.78,-86.26"/>
</a>
</g>
</g>
<!-- Node17 -->
<g id="Node000017" class="node">
<title>Node17</title>
<g id="a_Node000017"><a xlink:title=" ">
<polygon fill="#e0e0e0" stroke="#999999" points="1177,-20 1098.75,-20 1098.75,0 1177,0 1177,-20"/>
<text xml:space="preserve" text-anchor="middle" x="1137.88" y="-6.5" font-family="Helvetica,sans-Serif" font-size="10.00">QtCore/QUuid</text>
</a>
</g>
</g>
<!-- Node11&#45;&gt;Node17 -->
<g id="edge17_Node000011_Node000017" class="edge">
<title>Node11&#45;&gt;Node17</title>
<g id="a_edge17_Node000011_Node000017"><a xlink:title=" ">
<path fill="none" stroke="#63b8ff" d="M933.41,-117.54C941.53,-115.69 949.97,-113.78 957.88,-112 1029.4,-95.88 1065.39,-126.15 1118.88,-76 1130.95,-64.68 1135.49,-46.16 1137.13,-31.77"/>
<polygon fill="#63b8ff" stroke="#63b8ff" points="1140.61,-32.22 1137.83,-21.99 1133.63,-31.72 1140.61,-32.22"/>
</a>
</g>
</g>
<!-- Node18 -->
<g id="Node000018" class="node">
<title>Node18</title>
<g id="a_Node000018"><a xlink:title=" ">
<polygon fill="#e0e0e0" stroke="#999999" points="1109.88,-76 1021.88,-76 1021.88,-56 1109.88,-56 1109.88,-76"/>
<text xml:space="preserve" text-anchor="middle" x="1065.88" y="-62.5" font-family="Helvetica,sans-Serif" font-size="10.00">QtCore/QVariant</text>
</a>
</g>
</g>
<!-- Node11&#45;&gt;Node18 -->
<g id="edge18_Node000011_Node000018" class="edge">
<title>Node11&#45;&gt;Node18</title>
<g id="a_edge18_Node000011_Node000018"><a xlink:title=" ">
<path fill="none" stroke="#63b8ff" d="M919.06,-117.62C948.35,-107.53 995.15,-91.39 1028.02,-80.05"/>
<polygon fill="#63b8ff" stroke="#63b8ff" points="1028.85,-83.47 1037.16,-76.9 1026.57,-76.85 1028.85,-83.47"/>
</a>
</g>
</g>
<!-- Node19 -->
<g id="Node000019" class="node">
<title>Node19</title>
<g id="a_Node000019"><a xlink:title=" ">
<polygon fill="#e0e0e0" stroke="#999999" points="673.5,-76 622.25,-76 622.25,-56 673.5,-56 673.5,-76"/>
<text xml:space="preserve" text-anchor="middle" x="647.88" y="-62.5" font-family="Helvetica,sans-Serif" font-size="10.00">memory</text>
</a>
</g>
</g>
<!-- Node11&#45;&gt;Node19 -->
<g id="edge19_Node000011_Node000019" class="edge">
<title>Node11&#45;&gt;Node19</title>
<g id="a_edge19_Node000011_Node000019"><a xlink:title=" ">
<path fill="none" stroke="#63b8ff" d="M853.48,-117.56C807.31,-106.2 730.35,-87.28 684.83,-76.09"/>
<polygon fill="#63b8ff" stroke="#63b8ff" points="685.71,-72.7 675.16,-73.71 684.04,-79.5 685.71,-72.7"/>
</a>
</g>
</g>
<!-- Node20 -->
<g id="Node000020" class="node">
<title>Node20</title>
<g id="a_Node000020"><a xlink:href="_connection_point_8h.html" target="_top" xlink:title=" ">
<polygon fill="white" stroke="#666666" points="864,-76 767.75,-76 767.75,-56 864,-56 864,-76"/>
<text xml:space="preserve" text-anchor="middle" x="815.88" y="-62.5" font-family="Helvetica,sans-Serif" font-size="10.00">ConnectionPoint.h</text>
</a>
</g>
</g>
<!-- Node11&#45;&gt;Node20 -->
<g id="edge20_Node000011_Node000020" class="edge">
<title>Node11&#45;&gt;Node20</title>
<g id="a_edge20_Node000011_Node000020"><a xlink:title=" ">
<path fill="none" stroke="#63b8ff" d="M880,-117.62C868.33,-108.41 850.29,-94.17 836.32,-83.14"/>
<polygon fill="#63b8ff" stroke="#63b8ff" points="838.62,-80.5 828.61,-77.05 834.29,-85.99 838.62,-80.5"/>
</a>
</g>
</g>
<!-- Node20&#45;&gt;Node12 -->
<g id="edge21_Node000020_Node000012" class="edge">
<title>Node20&#45;&gt;Node12</title>
<g id="a_edge21_Node000020_Node000012"><a xlink:title=" ">
<path fill="none" stroke="#63b8ff" d="M832.95,-55.59C847.75,-47.44 869.44,-35.48 886.64,-26"/>
<polygon fill="#63b8ff" stroke="#63b8ff" points="888.28,-29.1 895.35,-21.21 884.9,-22.97 888.28,-29.1"/>
</a>
</g>
</g>
<!-- Node20&#45;&gt;Node13 -->
<g id="edge22_Node000020_Node000013" class="edge">
<title>Node20&#45;&gt;Node13</title>
<g id="a_edge22_Node000020_Node000013"><a xlink:title=" ">
<path fill="none" stroke="#63b8ff" d="M796.54,-55.59C779.46,-47.28 754.27,-35.03 734.62,-25.47"/>
<polygon fill="#63b8ff" stroke="#63b8ff" points="736.25,-22.37 725.72,-21.14 733.18,-28.66 736.25,-22.37"/>
</a>
</g>
</g>
<!-- Node20&#45;&gt;Node15 -->
<g id="edge23_Node000020_Node000015" class="edge">
<title>Node20&#45;&gt;Node15</title>
<g id="a_edge23_Node000020_Node000015"><a xlink:title=" ">
<path fill="none" stroke="#63b8ff" d="M815,-55.59C814.39,-49.01 813.56,-39.96 812.79,-31.73"/>
<polygon fill="#63b8ff" stroke="#63b8ff" points="816.28,-31.44 811.88,-21.81 809.31,-32.09 816.28,-31.44"/>
</a>
</g>
</g>
<!-- Node20&#45;&gt;Node17 -->
<g id="edge24_Node000020_Node000017" class="edge">
<title>Node20&#45;&gt;Node17</title>
<g id="a_edge24_Node000020_Node000017"><a xlink:title=" ">
<path fill="none" stroke="#63b8ff" d="M864.43,-56.86C924.51,-46.78 1026.31,-29.71 1087.31,-19.48"/>
<polygon fill="#63b8ff" stroke="#63b8ff" points="1087.79,-22.95 1097.08,-17.84 1086.64,-16.04 1087.79,-22.95"/>
</a>
</g>
</g>
<!-- Node21&#45;&gt;Node12 -->
<g id="edge26_Node000021_Node000012" class="edge">
<title>Node21&#45;&gt;Node12</title>
<g id="a_edge26_Node000021_Node000012"><a xlink:title=" ">
<path fill="none" stroke="#63b8ff" d="M1265.08,-57.03C1185.14,-46.55 1045.82,-28.29 968.87,-18.21"/>
<polygon fill="#63b8ff" stroke="#63b8ff" points="969.4,-14.75 959.03,-16.92 968.49,-21.69 969.4,-14.75"/>
</a>
</g>
</g>
<!-- Node21&#45;&gt;Node13 -->
<g id="edge27_Node000021_Node000013" class="edge">
<title>Node21&#45;&gt;Node13</title>
<g id="a_edge27_Node000021_Node000013"><a xlink:title=" ">
<path fill="none" stroke="#63b8ff" d="M1264.94,-56.86C1262.22,-56.56 1259.52,-56.27 1256.88,-56 1036.54,-33.67 979.82,-45.91 759.88,-20 759.76,-19.99 759.64,-19.97 759.52,-19.96"/>
<polygon fill="#63b8ff" stroke="#63b8ff" points="760.23,-16.52 749.86,-18.68 759.31,-23.46 760.23,-16.52"/>
</a>
</g>
</g>
<!-- Node21&#45;&gt;Node15 -->
<g id="edge28_Node000021_Node000015" class="edge">
<title>Node21&#45;&gt;Node15</title>
<g id="a_edge28_Node000021_Node000015"><a xlink:title=" ">
<path fill="none" stroke="#63b8ff" d="M1264.94,-56.92C1262.21,-56.6 1259.52,-56.29 1256.88,-56 1085.34,-37 1038.56,-43.07 864.25,-20.21"/>
<polygon fill="#63b8ff" stroke="#63b8ff" points="864.73,-16.74 854.36,-18.89 863.81,-23.68 864.73,-16.74"/>
</a>
</g>
</g>
<!-- Node21&#45;&gt;Node17 -->
<g id="edge29_Node000021_Node000017" class="edge">
<title>Node21&#45;&gt;Node17</title>
<g id="a_edge29_Node000021_Node000017"><a xlink:title=" ">
<path fill="none" stroke="#63b8ff" d="M1293.13,-55.59C1262.32,-46.74 1215.95,-33.43 1181.91,-23.65"/>
<polygon fill="#63b8ff" stroke="#63b8ff" points="1182.91,-20.29 1172.33,-20.9 1180.98,-27.02 1182.91,-20.29"/>
</a>
</g>
</g>
<!-- Node22 -->
<g id="Node000022" class="node">
<title>Node22</title>
<g id="a_Node000022"><a xlink:title=" ">
<polygon fill="#e0e0e0" stroke="#999999" points="1363.5,-20 1288.25,-20 1288.25,0 1363.5,0 1363.5,-20"/>
<text xml:space="preserve" text-anchor="middle" x="1325.88" y="-6.5" font-family="Helvetica,sans-Serif" font-size="10.00">QtGui/QColor</text>
</a>
</g>
</g>
<!-- Node21&#45;&gt;Node22 -->
<g id="edge30_Node000021_Node000022" class="edge">
<title>Node21&#45;&gt;Node22</title>
<g id="a_edge30_Node000021_Node000022"><a xlink:title=" ">
<path fill="none" stroke="#63b8ff" d="M1325.88,-55.59C1325.88,-49.01 1325.88,-39.96 1325.88,-31.73"/>
<polygon fill="#63b8ff" stroke="#63b8ff" points="1329.38,-31.81 1325.88,-21.81 1322.38,-31.81 1329.38,-31.81"/>
</a>
</g>
</g>
<!-- Node23&#45;&gt;Node11 -->
<g id="edge38_Node000023_Node000011" class="edge">
<title>Node23&#45;&gt;Node11</title>
<g id="a_edge38_Node000023_Node000011"><a xlink:title=" ">
<path fill="none" stroke="#63b8ff" d="M769.53,-179.62C793.47,-169.72 831.47,-153.99 858.77,-142.7"/>
<polygon fill="#63b8ff" stroke="#63b8ff" points="860.08,-145.95 867.98,-138.89 857.4,-139.48 860.08,-145.95"/>
</a>
</g>
</g>
<!-- Node23&#45;&gt;Node19 -->
<g id="edge39_Node000023_Node000019" class="edge">
<title>Node23&#45;&gt;Node19</title>
<g id="a_edge39_Node000023_Node000019"><a xlink:title=" ">
<path fill="none" stroke="#63b8ff" d="M675.15,-179.53C611.82,-170.42 527.98,-156.28 517.88,-144 508.84,-133.02 509.63,-123.59 517.88,-112 523.52,-104.07 574.76,-87.97 611.19,-77.34"/>
<polygon fill="#63b8ff" stroke="#63b8ff" points="611.86,-80.79 620.5,-74.65 609.92,-74.06 611.86,-80.79"/>
</a>
</g>
</g>
<!-- Node24 -->
<g id="Node000024" class="node">
<title>Node24</title>
<g id="a_Node000024"><a xlink:title=" ">
<polygon fill="#e0e0e0" stroke="#999999" points="658.62,-138 527.12,-138 527.12,-118 658.62,-118 658.62,-138"/>
<text xml:space="preserve" text-anchor="middle" x="592.88" y="-124.5" font-family="Helvetica,sans-Serif" font-size="10.00">QtWidgets/QGraphicsItem</text>
</a>
</g>
</g>
<!-- Node23&#45;&gt;Node24 -->
<g id="edge32_Node000023_Node000024" class="edge">
<title>Node23&#45;&gt;Node24</title>
<g id="a_edge32_Node000023_Node000024"><a xlink:title=" ">
<path fill="none" stroke="#63b8ff" d="M722.81,-179.62C697.23,-169.66 656.55,-153.81 627.52,-142.5"/>
<polygon fill="#63b8ff" stroke="#63b8ff" points="629.02,-139.33 618.43,-138.96 626.48,-145.85 629.02,-139.33"/>
</a>
</g>
</g>
<!-- Node25 -->
<g id="Node000025" class="node">
<title>Node25</title>
<g id="a_Node000025"><a xlink:title=" ">
<polygon fill="#e0e0e0" stroke="#999999" points="816.75,-144 677,-144 677,-112 816.75,-112 816.75,-144"/>
<text xml:space="preserve" text-anchor="start" x="685" y="-130.5" font-family="Helvetica,sans-Serif" font-size="10.00">QtWidgets/QGraphicsScene</text>
<text xml:space="preserve" text-anchor="middle" x="746.88" y="-118.5" font-family="Helvetica,sans-Serif" font-size="10.00">MouseEvent</text>
</a>
</g>
</g>
<!-- Node23&#45;&gt;Node25 -->
<g id="edge33_Node000023_Node000025" class="edge">
<title>Node23&#45;&gt;Node25</title>
<g id="a_edge33_Node000023_Node000025"><a xlink:title=" ">
<path fill="none" stroke="#63b8ff" d="M746.88,-179.62C746.88,-173.1 746.88,-164.05 746.88,-155.4"/>
<polygon fill="#63b8ff" stroke="#63b8ff" points="750.38,-155.65 746.88,-145.65 743.38,-155.65 750.38,-155.65"/>
</a>
</g>
</g>
<!-- Node26 -->
<g id="Node000026" class="node">
<title>Node26</title>
<g id="a_Node000026"><a xlink:href="_element_renderer_8h.html" target="_top" xlink:title=" ">
<polygon fill="white" stroke="#666666" points="470.88,-138 370.88,-138 370.88,-118 470.88,-118 470.88,-138"/>
<text xml:space="preserve" text-anchor="middle" x="420.88" y="-124.5" font-family="Helvetica,sans-Serif" font-size="10.00">ElementRenderer.h</text>
</a>
</g>
</g>
<!-- Node23&#45;&gt;Node26 -->
<g id="edge34_Node000023_Node000026" class="edge">
<title>Node23&#45;&gt;Node26</title>
<g id="a_edge34_Node000023_Node000026"><a xlink:title=" ">
<path fill="none" stroke="#63b8ff" d="M685.54,-179.53C632.32,-171.07 553.29,-157.88 484.88,-144 480.28,-143.07 475.52,-142.05 470.75,-141"/>
<polygon fill="#63b8ff" stroke="#63b8ff" points="471.72,-137.63 461.19,-138.83 470.17,-144.45 471.72,-137.63"/>
</a>
</g>
</g>
<!-- Node26&#45;&gt;Node13 -->
<g id="edge37_Node000026_Node000013" class="edge">
<title>Node26&#45;&gt;Node13</title>
<g id="a_edge37_Node000026_Node000013"><a xlink:title=" ">
<path fill="none" stroke="#63b8ff" d="M429.9,-117.57C445.12,-102.25 477.51,-72.03 510.88,-56 555.22,-34.69 610.2,-23.17 650.3,-17.14"/>
<polygon fill="#63b8ff" stroke="#63b8ff" points="650.55,-20.64 659.95,-15.76 649.56,-13.71 650.55,-20.64"/>
</a>
</g>
</g>
<!-- Node26&#45;&gt;Node14 -->
<g id="edge36_Node000026_Node000014" class="edge">
<title>Node26&#45;&gt;Node14</title>
<g id="a_edge36_Node000026_Node000014"><a xlink:title=" ">
<path fill="none" stroke="#63b8ff" d="M442.91,-117.62C466.19,-107.72 503.14,-91.99 529.68,-80.7"/>
<polygon fill="#63b8ff" stroke="#63b8ff" points="530.77,-84.04 538.61,-76.9 528.03,-77.6 530.77,-84.04"/>
</a>
</g>
</g>
<!-- Node27 -->
<g id="Node000027" class="node">
<title>Node27</title>
<g id="a_Node000027"><a xlink:title=" ">
<polygon fill="#e0e0e0" stroke="#999999" points="462.25,-76 379.5,-76 379.5,-56 462.25,-56 462.25,-76"/>
<text xml:space="preserve" text-anchor="middle" x="420.88" y="-62.5" font-family="Helvetica,sans-Serif" font-size="10.00">QtGui/QPainter</text>
</a>
</g>
</g>
<!-- Node26&#45;&gt;Node27 -->
<g id="edge35_Node000026_Node000027" class="edge">
<title>Node26&#45;&gt;Node27</title>
<g id="a_edge35_Node000026_Node000027"><a xlink:title=" ">
<path fill="none" stroke="#63b8ff" d="M420.88,-117.62C420.88,-109.56 420.88,-97.65 420.88,-87.41"/>
<polygon fill="#63b8ff" stroke="#63b8ff" points="424.38,-87.63 420.88,-77.63 417.38,-87.63 424.38,-87.63"/>
</a>
</g>
</g>
<!-- Node29 -->
<g id="Node000029" class="node">
<title>Node29</title>
<g id="a_Node000029"><a xlink:title=" ">
<polygon fill="#e0e0e0" stroke="#999999" points="1223.25,-138 1062.5,-138 1062.5,-118 1223.25,-118 1223.25,-138"/>
<text xml:space="preserve" text-anchor="middle" x="1142.88" y="-124.5" font-family="Helvetica,sans-Serif" font-size="10.00">QtWidgets/QGraphicsEllipseItem</text>
</a>
</g>
</g>
<!-- Node28&#45;&gt;Node29 -->
<g id="edge41_Node000028_Node000029" class="edge">
<title>Node28&#45;&gt;Node29</title>
<g id="a_edge41_Node000028_Node000029"><a xlink:title=" ">
<path fill="none" stroke="#63b8ff" d="M1126.84,-179.62C1129.42,-171.48 1133.25,-159.39 1136.52,-149.07"/>
<polygon fill="#63b8ff" stroke="#63b8ff" points="1139.85,-150.15 1139.53,-139.56 1133.18,-148.03 1139.85,-150.15"/>
</a>
</g>
</g>
<!-- Node30 -->
<g id="Node000030" class="node">
<title>Node30</title>
<g id="a_Node000030"><a xlink:title=" ">
<polygon fill="#e0e0e0" stroke="#999999" points="1310.5,-138 1241.25,-138 1241.25,-118 1310.5,-118 1310.5,-138"/>
<text xml:space="preserve" text-anchor="middle" x="1275.88" y="-124.5" font-family="Helvetica,sans-Serif" font-size="10.00">QtGui/QPen</text>
</a>
</g>
</g>
<!-- Node28&#45;&gt;Node30 -->
<g id="edge42_Node000028_Node000030" class="edge">
<title>Node28&#45;&gt;Node30</title>
<g id="a_edge42_Node000028_Node000030"><a xlink:title=" ">
<path fill="none" stroke="#63b8ff" d="M1147.62,-179.62C1172.87,-169.66 1213.03,-153.81 1241.68,-142.5"/>
<polygon fill="#63b8ff" stroke="#63b8ff" points="1242.62,-145.89 1250.63,-138.96 1240.05,-139.38 1242.62,-145.89"/>
</a>
</g>
</g>
<!-- Node31 -->
<g id="Node000031" class="node">
<title>Node31</title>
<g id="a_Node000031"><a xlink:title=" ">
<polygon fill="#e0e0e0" stroke="#999999" points="1044.62,-138 967.12,-138 967.12,-118 1044.62,-118 1044.62,-138"/>
<text xml:space="preserve" text-anchor="middle" x="1005.88" y="-124.5" font-family="Helvetica,sans-Serif" font-size="10.00">QtGui/QBrush</text>
</a>
</g>
</g>
<!-- Node28&#45;&gt;Node31 -->
<g id="edge43_Node000028_Node000031" class="edge">
<title>Node28&#45;&gt;Node31</title>
<g id="a_edge43_Node000028_Node000031"><a xlink:title=" ">
<path fill="none" stroke="#63b8ff" d="M1105.44,-179.62C1086.39,-169.94 1056.4,-154.69 1034.31,-143.46"/>
<polygon fill="#63b8ff" stroke="#63b8ff" points="1036.03,-140.41 1025.53,-139 1032.86,-146.65 1036.03,-140.41"/>
</a>
</g>
</g>
</g>
</svg>
