<?xml version="1.0" encoding="UTF-8" standalone="no"?>
<!DOCTYPE svg PUBLIC "-//W3C//DTD SVG 1.1//EN"
 "http://www.w3.org/Graphics/SVG/1.1/DTD/svg11.dtd">
<!-- Generated by graphviz version 14.1.1 (20251213.1925)
 -->
<!-- Title: src/view/DiagramView.cpp Pages: 1 -->
<!--zoomable 320 -->

<svg id="main" version="1.1" xmlns="http://www.w3.org/2000/svg" xmlns:xlink="http://www.w3.org/1999/xlink" xml:space="preserve" onload="init(evt)">

<style type="text/css"><![CDATA[
.node, .edge {opacity: 0.7;}
.node.selected, .edge.selected {opacity: 1;}
.edge:hover path { stroke: red; }
.edge:hover polygon { stroke: red; fill: red; }
]]></style>

<defs>
  <circle id="rim" cx="0" cy="0" r="7"/>
  <circle id="rim2" cx="0" cy="0" r="3.5"/>
  <g id="zoomPlus">
    <use xlink:href="#rim" fill="#404040"><set attributeName="fill" to="#808080" begin="zoomplus.mouseover" end="zoomplus.mouseout"/></use>
    <path d="M-4,0h8M0,-4v8" fill="none" stroke="white" stroke-width="1.5" pointer-events="none"/>
  </g>
  <g id="zoomMin">
    <use xlink:href="#rim" fill="#404040"><set attributeName="fill" to="#808080" begin="zoomminus.mouseover" end="zoomminus.mouseout"/></use>
    <path d="M-4,0h8" fill="none" stroke="white" stroke-width="1.5" pointer-events="none"/>
  </g>
  <g id="arrowUp" transform="translate(30 24)">
    <use xlink:href="#rim"/>
    <path pointer-events="none" fill="none" stroke="white" stroke-width="1.5" d="M0,-3.0v7 M-2.5,-0.5L0,-3.0L2.5,-0.5"/>
  </g>
  <g id="arrowRight" transform="rotate(90) translate(36 -43)">
    <use xlink:href="#rim"/>
    <path pointer-events="none" fill="none" stroke="white" stroke-width="1.5" d="M0,-3.0v7 M-2.5,-0.5L0,-3.0L2.5,-0.5"/>
  </g>
  <g id="arrowDown" transform="rotate(180) translate(-30 -48)">
    <use xlink:href="#rim"/>
    <path pointer-events="none" fill="none" stroke="white" stroke-width="1.5" d="M0,-3.0v7 M-2.5,-0.5L0,-3.0L2.5,-0.5"/>
  </g>
  <g id="arrowLeft" transform="rotate(270) translate(-36 17)">
    <use xlink:href="#rim"/>
    <path pointer-events="none" fill="none" stroke="white" stroke-width="1.5" d="M0,-3.0v7 M-2.5,-0.5L0,-3.0L2.5,-0.5"/>
  </g>
  <g id="resetDef">
    <use xlink:href="#rim2" fill="#404040"><set attributeName="fill" to="#808080" begin="reset.mouseover" end="reset.mouseout"/></use>
  </g>
</defs>
<script type="application/ecmascript">
var viewWidth = 1807;
var viewHeight = 320;
var sectionId = 'dynsection-0';
</script>
<script type="application/ecmascript" xlink:href="svg.min.js"/>
<svg id="graph" class="graph">
<g id="viewport">
<title>src/view/DiagramView.cpp</title>
<!-- Node1 -->
<g id="Node000001" class="node">
<title>Node1</title>
<g id="a_Node000001"><a xlink:title=" ">
<polygon fill="#999999" stroke="#666666" points="667,-312 534.75,-312 534.75,-292 667,-292 667,-312"/>
<text xml:space="preserve" text-anchor="middle" x="600.88" y="-298.5" font-family="Helvetica,sans-Serif" font-size="10.00">src/view/DiagramView.cpp</text>
</a>
</g>
</g>
<!-- Node2 -->
<g id="Node000002" class="node">
<title>Node2</title>
<g id="a_Node000002"><a xlink:href="_diagram_view_8h.html" target="_top" xlink:title=" ">
<polygon fill="white" stroke="#666666" points="521.88,-256 439.88,-256 439.88,-236 521.88,-236 521.88,-256"/>
<text xml:space="preserve" text-anchor="middle" x="480.88" y="-242.5" font-family="Helvetica,sans-Serif" font-size="10.00">DiagramView.h</text>
</a>
</g>
</g>
<!-- Node1&#45;&gt;Node2 -->
<g id="edge1_Node000001_Node000002" class="edge">
<title>Node1&#45;&gt;Node2</title>
<g id="a_edge1_Node000001_Node000002"><a xlink:title=" ">
<path fill="none" stroke="#63b8ff" d="M579.97,-291.59C561.25,-283.17 533.52,-270.69 512.15,-261.07"/>
<polygon fill="#63b8ff" stroke="#63b8ff" points="513.88,-258.01 503.32,-257.1 511,-264.4 513.88,-258.01"/>
</a>
</g>
</g>
<!-- Node4 -->
<g id="Node000004" class="node">
<title>Node4</title>
<g id="a_Node000004"><a xlink:title=" ">
<polygon fill="#e0e0e0" stroke="#999999" points="121.75,-200 0,-200 0,-180 121.75,-180 121.75,-200"/>
<text xml:space="preserve" text-anchor="middle" x="60.88" y="-186.5" font-family="Helvetica,sans-Serif" font-size="10.00">QtGui/QDragEnterEvent</text>
</a>
</g>
</g>
<!-- Node1&#45;&gt;Node4 -->
<g id="edge46_Node000001_Node000004" class="edge">
<title>Node1&#45;&gt;Node4</title>
<g id="a_edge46_Node000001_Node000004"><a xlink:title=" ">
<path fill="none" stroke="#63b8ff" d="M546.5,-291.52C496.99,-282.75 421.9,-269.13 356.88,-256 271.12,-238.68 171.88,-216.44 112.86,-202.97"/>
<polygon fill="#63b8ff" stroke="#63b8ff" points="113.97,-199.64 103.44,-200.82 112.41,-206.46 113.97,-199.64"/>
</a>
</g>
</g>
<!-- Node5 -->
<g id="Node000005" class="node">
<title>Node5</title>
<g id="a_Node000005"><a xlink:title=" ">
<polygon fill="#e0e0e0" stroke="#999999" points="262.12,-200 139.62,-200 139.62,-180 262.12,-180 262.12,-200"/>
<text xml:space="preserve" text-anchor="middle" x="200.88" y="-186.5" font-family="Helvetica,sans-Serif" font-size="10.00">QtGui/QDragMoveEvent</text>
</a>
</g>
</g>
<!-- Node1&#45;&gt;Node5 -->
<g id="edge47_Node000001_Node000005" class="edge">
<title>Node1&#45;&gt;Node5</title>
<g id="a_edge47_Node000001_Node000005"><a xlink:title=" ">
<path fill="none" stroke="#63b8ff" d="M564.35,-291.52C529.89,-282.53 476.81,-268.57 430.88,-256 365.8,-238.19 290.61,-216.79 244.4,-203.53"/>
<polygon fill="#63b8ff" stroke="#63b8ff" points="245.62,-200.24 235.04,-200.85 243.68,-206.97 245.62,-200.24"/>
</a>
</g>
</g>
<!-- Node6 -->
<g id="Node000006" class="node">
<title>Node6</title>
<g id="a_Node000006"><a xlink:title=" ">
<polygon fill="#e0e0e0" stroke="#999999" points="530.12,-200 431.62,-200 431.62,-180 530.12,-180 530.12,-200"/>
<text xml:space="preserve" text-anchor="middle" x="480.88" y="-186.5" font-family="Helvetica,sans-Serif" font-size="10.00">QtGui/QDropEvent</text>
</a>
</g>
</g>
<!-- Node1&#45;&gt;Node6 -->
<g id="edge48_Node000001_Node000006" class="edge">
<title>Node1&#45;&gt;Node6</title>
<g id="a_edge48_Node000001_Node000006"><a xlink:title=" ">
<path fill="none" stroke="#63b8ff" d="M590.95,-291.69C577.43,-279.03 552.42,-255.69 530.88,-236 520.66,-226.66 509.19,-216.33 499.81,-207.92"/>
<polygon fill="#63b8ff" stroke="#63b8ff" points="502.17,-205.33 492.39,-201.27 497.5,-210.55 502.17,-205.33"/>
</a>
</g>
</g>
<!-- Node7 -->
<g id="Node000007" class="node">
<title>Node7</title>
<g id="a_Node000007"><a xlink:title=" ">
<polygon fill="#e0e0e0" stroke="#999999" points="653.5,-200 548.25,-200 548.25,-180 653.5,-180 653.5,-200"/>
<text xml:space="preserve" text-anchor="middle" x="600.88" y="-186.5" font-family="Helvetica,sans-Serif" font-size="10.00">QtGui/QWheelEvent</text>
</a>
</g>
</g>
<!-- Node1&#45;&gt;Node7 -->
<g id="edge49_Node000001_Node000007" class="edge">
<title>Node1&#45;&gt;Node7</title>
<g id="a_edge49_Node000001_Node000007"><a xlink:title=" ">
<path fill="none" stroke="#63b8ff" d="M600.88,-291.62C600.88,-274.01 600.88,-235.59 600.88,-211.65"/>
<polygon fill="#63b8ff" stroke="#63b8ff" points="604.38,-211.87 600.88,-201.87 597.38,-211.87 604.38,-211.87"/>
</a>
</g>
</g>
<!-- Node8 -->
<g id="Node000008" class="node">
<title>Node8</title>
<g id="a_Node000008"><a xlink:title=" ">
<polygon fill="#e0e0e0" stroke="#999999" points="766.25,-200 671.5,-200 671.5,-180 766.25,-180 766.25,-200"/>
<text xml:space="preserve" text-anchor="middle" x="718.88" y="-186.5" font-family="Helvetica,sans-Serif" font-size="10.00">QtGui/QKeyEvent</text>
</a>
</g>
</g>
<!-- Node1&#45;&gt;Node8 -->
<g id="edge50_Node000001_Node000008" class="edge">
<title>Node1&#45;&gt;Node8</title>
<g id="a_edge50_Node000001_Node000008"><a xlink:title=" ">
<path fill="none" stroke="#63b8ff" d="M610.94,-291.62C630.79,-273.11 675.27,-231.65 700.5,-208.13"/>
<polygon fill="#63b8ff" stroke="#63b8ff" points="702.8,-210.77 707.73,-201.39 698.03,-205.65 702.8,-210.77"/>
</a>
</g>
</g>
<!-- Node9 -->
<g id="Node000009" class="node">
<title>Node9</title>
<g id="a_Node000009"><a xlink:href="_diagram_scene_8h.html" target="_top" xlink:title=" ">
<polygon fill="white" stroke="#666666" points="887.88,-256 775.88,-256 775.88,-236 887.88,-236 887.88,-256"/>
<text xml:space="preserve" text-anchor="middle" x="831.88" y="-242.5" font-family="Helvetica,sans-Serif" font-size="10.00">view/DiagramScene.h</text>
</a>
</g>
</g>
<!-- Node1&#45;&gt;Node9 -->
<g id="edge8_Node000001_Node000009" class="edge">
<title>Node1&#45;&gt;Node9</title>
<g id="a_edge8_Node000001_Node000009"><a xlink:title=" ">
<path fill="none" stroke="#63b8ff" d="M641.38,-291.53C680.02,-282.5 738.39,-268.85 780.33,-259.05"/>
<polygon fill="#63b8ff" stroke="#63b8ff" points="781.01,-262.49 789.95,-256.8 779.41,-255.67 781.01,-262.49"/>
</a>
</g>
</g>
<!-- Node33 -->
<g id="Node000033" class="node">
<title>Node33</title>
<g id="a_Node000033"><a xlink:title=" ">
<polygon fill="#e0e0e0" stroke="#999999" points="1009.38,-256 906.38,-256 906.38,-236 1009.38,-236 1009.38,-256"/>
<text xml:space="preserve" text-anchor="middle" x="957.88" y="-242.5" font-family="Helvetica,sans-Serif" font-size="10.00">QtCore/QMimeData</text>
</a>
</g>
</g>
<!-- Node1&#45;&gt;Node33 -->
<g id="edge45_Node000001_Node000033" class="edge">
<title>Node1&#45;&gt;Node33</title>
<g id="a_edge45_Node000001_Node000033"><a xlink:title=" ">
<path fill="none" stroke="#63b8ff" d="M663.47,-291.53C728.46,-281.7 829.56,-266.41 894.75,-256.55"/>
<polygon fill="#63b8ff" stroke="#63b8ff" points="895.22,-260.02 904.59,-255.06 894.18,-253.1 895.22,-260.02"/>
</a>
</g>
</g>
<!-- Node34 -->
<g id="Node000034" class="node">
<title>Node34</title>
<g id="a_Node000034"><a xlink:title=" ">
<polygon fill="#e0e0e0" stroke="#999999" points="1148.38,-256 1027.38,-256 1027.38,-236 1148.38,-236 1148.38,-256"/>
<text xml:space="preserve" text-anchor="middle" x="1087.88" y="-242.5" font-family="Helvetica,sans-Serif" font-size="10.00">QtWidgets/QApplication</text>
</a>
</g>
</g>
<!-- Node1&#45;&gt;Node34 -->
<g id="edge51_Node000001_Node000034" class="edge">
<title>Node1&#45;&gt;Node34</title>
<g id="a_edge51_Node000001_Node000034"><a xlink:title=" ">
<path fill="none" stroke="#63b8ff" d="M667.17,-294.33C747.31,-286.16 886.59,-271.63 1015.67,-256.36"/>
<polygon fill="#63b8ff" stroke="#63b8ff" points="1015.91,-259.86 1025.43,-255.2 1015.09,-252.91 1015.91,-259.86"/>
</a>
</g>
</g>
<!-- Node3 -->
<g id="Node000003" class="node">
<title>Node3</title>
<g id="a_Node000003"><a xlink:title=" ">
<polygon fill="#e0e0e0" stroke="#999999" points="413.75,-200 280,-200 280,-180 413.75,-180 413.75,-200"/>
<text xml:space="preserve" text-anchor="middle" x="346.88" y="-186.5" font-family="Helvetica,sans-Serif" font-size="10.00">QtWidgets/QGraphicsView</text>
</a>
</g>
</g>
<!-- Node2&#45;&gt;Node3 -->
<g id="edge2_Node000002_Node000003" class="edge">
<title>Node2&#45;&gt;Node3</title>
<g id="a_edge2_Node000002_Node000003"><a xlink:title=" ">
<path fill="none" stroke="#63b8ff" d="M457.53,-235.59C436.34,-227.05 404.81,-214.35 380.82,-204.68"/>
<polygon fill="#63b8ff" stroke="#63b8ff" points="382.39,-201.54 371.8,-201.05 379.77,-208.03 382.39,-201.54"/>
</a>
</g>
</g>
<!-- Node2&#45;&gt;Node4 -->
<g id="edge3_Node000002_Node000004" class="edge">
<title>Node2&#45;&gt;Node4</title>
<g id="a_edge3_Node000002_Node000004"><a xlink:title=" ">
<path fill="none" stroke="#63b8ff" d="M439.45,-239.67C368.28,-230.52 221.9,-211.7 133.47,-200.33"/>
<polygon fill="#63b8ff" stroke="#63b8ff" points="134.05,-196.88 123.69,-199.08 133.16,-203.82 134.05,-196.88"/>
</a>
</g>
</g>
<!-- Node2&#45;&gt;Node5 -->
<g id="edge4_Node000002_Node000005" class="edge">
<title>Node2&#45;&gt;Node5</title>
<g id="a_edge4_Node000002_Node000005"><a xlink:title=" ">
<path fill="none" stroke="#63b8ff" d="M439.56,-237.03C392.41,-227.94 314.87,-212.99 261.02,-202.6"/>
<polygon fill="#63b8ff" stroke="#63b8ff" points="261.88,-199.2 251.39,-200.74 260.55,-206.07 261.88,-199.2"/>
</a>
</g>
</g>
<!-- Node2&#45;&gt;Node6 -->
<g id="edge5_Node000002_Node000006" class="edge">
<title>Node2&#45;&gt;Node6</title>
<g id="a_edge5_Node000002_Node000006"><a xlink:title=" ">
<path fill="none" stroke="#63b8ff" d="M480.88,-235.59C480.88,-229.01 480.88,-219.96 480.88,-211.73"/>
<polygon fill="#63b8ff" stroke="#63b8ff" points="484.38,-211.81 480.88,-201.81 477.38,-211.81 484.38,-211.81"/>
</a>
</g>
</g>
<!-- Node2&#45;&gt;Node7 -->
<g id="edge6_Node000002_Node000007" class="edge">
<title>Node2&#45;&gt;Node7</title>
<g id="a_edge6_Node000002_Node000007"><a xlink:title=" ">
<path fill="none" stroke="#63b8ff" d="M501.78,-235.59C520.5,-227.17 548.23,-214.69 569.6,-205.07"/>
<polygon fill="#63b8ff" stroke="#63b8ff" points="570.75,-208.4 578.43,-201.1 567.87,-202.01 570.75,-208.4"/>
</a>
</g>
</g>
<!-- Node2&#45;&gt;Node8 -->
<g id="edge7_Node000002_Node000008" class="edge">
<title>Node2&#45;&gt;Node8</title>
<g id="a_edge7_Node000002_Node000008"><a xlink:title=" ">
<path fill="none" stroke="#63b8ff" d="M522.33,-235.59C562.19,-226.55 622.6,-212.84 665.92,-203.02"/>
<polygon fill="#63b8ff" stroke="#63b8ff" points="666.64,-206.44 675.62,-200.81 665.09,-199.61 666.64,-206.44"/>
</a>
</g>
</g>
<!-- Node10 -->
<g id="Node000010" class="node">
<title>Node10</title>
<g id="a_Node000010"><a xlink:title=" ">
<polygon fill="#e0e0e0" stroke="#999999" points="606.5,-76 525.25,-76 525.25,-56 606.5,-56 606.5,-76"/>
<text xml:space="preserve" text-anchor="middle" x="565.88" y="-62.5" font-family="Helvetica,sans-Serif" font-size="10.00">QtCore/QHash</text>
</a>
</g>
</g>
<!-- Node9&#45;&gt;Node10 -->
<g id="edge9_Node000009_Node000010" class="edge">
<title>Node9&#45;&gt;Node10</title>
<g id="a_edge9_Node000009_Node000010"><a xlink:title=" ">
<path fill="none" stroke="#63b8ff" d="M825.37,-235.67C815.6,-222.14 796,-196.85 774.88,-180 719.1,-135.52 643.3,-99.56 599.99,-80.92"/>
<polygon fill="#63b8ff" stroke="#63b8ff" points="601.41,-77.72 590.84,-77.04 598.68,-84.17 601.41,-77.72"/>
</a>
</g>
</g>
<!-- Node11 -->
<g id="Node000011" class="node">
<title>Node11</title>
<g id="a_Node000011"><a xlink:title=" ">
<polygon fill="#e0e0e0" stroke="#999999" points="1286.75,-200 1147,-200 1147,-180 1286.75,-180 1286.75,-200"/>
<text xml:space="preserve" text-anchor="middle" x="1216.88" y="-186.5" font-family="Helvetica,sans-Serif" font-size="10.00">QtWidgets/QGraphicsScene</text>
</a>
</g>
</g>
<!-- Node9&#45;&gt;Node11 -->
<g id="edge10_Node000009_Node000011" class="edge">
<title>Node9&#45;&gt;Node11</title>
<g id="a_edge10_Node000009_Node000011"><a xlink:title=" ">
<path fill="none" stroke="#63b8ff" d="M888.27,-237.09C954.23,-227.84 1063.83,-212.47 1138.14,-202.04"/>
<polygon fill="#63b8ff" stroke="#63b8ff" points="1138.38,-205.54 1147.8,-200.69 1137.41,-198.61 1138.38,-205.54"/>
</a>
</g>
</g>
<!-- Node12 -->
<g id="Node000012" class="node">
<title>Node12</title>
<g id="a_Node000012"><a xlink:href="_basic_element_8h.html" target="_top" xlink:title=" ">
<polygon fill="white" stroke="#666666" points="974,-138 859.75,-138 859.75,-118 974,-118 974,-138"/>
<text xml:space="preserve" text-anchor="middle" x="916.88" y="-124.5" font-family="Helvetica,sans-Serif" font-size="10.00">model/BasicElement.h</text>
</a>
</g>
</g>
<!-- Node9&#45;&gt;Node12 -->
<g id="edge11_Node000009_Node000012" class="edge">
<title>Node9&#45;&gt;Node12</title>
<g id="a_edge11_Node000009_Node000012"><a xlink:title=" ">
<path fill="none" stroke="#63b8ff" d="M838.83,-235.51C852.91,-216.29 885,-172.5 903.34,-147.47"/>
<polygon fill="#63b8ff" stroke="#63b8ff" points="906.08,-149.66 909.17,-139.52 900.43,-145.52 906.08,-149.66"/>
</a>
</g>
</g>
<!-- Node22 -->
<g id="Node000022" class="node">
<title>Node22</title>
<g id="a_Node000022"><a xlink:href="_connection_line_8h.html" target="_top" xlink:title=" ">
<polygon fill="white" stroke="#666666" points="784.38,-76 663.38,-76 663.38,-56 784.38,-56 784.38,-76"/>
<text xml:space="preserve" text-anchor="middle" x="723.88" y="-62.5" font-family="Helvetica,sans-Serif" font-size="10.00">model/ConnectionLine.h</text>
</a>
</g>
</g>
<!-- Node9&#45;&gt;Node22 -->
<g id="edge26_Node000009_Node000022" class="edge">
<title>Node9&#45;&gt;Node22</title>
<g id="a_edge26_Node000009_Node000022"><a xlink:title=" ">
<path fill="none" stroke="#63b8ff" d="M832.79,-235.56C834.55,-212.18 836.03,-150.71 807.88,-112 797.68,-97.98 781.75,-87.89 766.49,-80.87"/>
<polygon fill="#63b8ff" stroke="#63b8ff" points="768.08,-77.75 757.51,-77.08 765.36,-84.19 768.08,-77.75"/>
</a>
</g>
</g>
<!-- Node24 -->
<g id="Node000024" class="node">
<title>Node24</title>
<g id="a_Node000024"><a xlink:href="_element_graphics_item_8h.html" target="_top" xlink:title=" ">
<polygon fill="white" stroke="#666666" points="1128.88,-200 986.88,-200 986.88,-180 1128.88,-180 1128.88,-200"/>
<text xml:space="preserve" text-anchor="middle" x="1057.88" y="-186.5" font-family="Helvetica,sans-Serif" font-size="10.00">view/ElementGraphicsItem.h</text>
</a>
</g>
</g>
<!-- Node9&#45;&gt;Node24 -->
<g id="edge32_Node000009_Node000024" class="edge">
<title>Node9&#45;&gt;Node24</title>
<g id="a_edge32_Node000009_Node000024"><a xlink:title=" ">
<path fill="none" stroke="#63b8ff" d="M871.5,-235.53C909.22,-226.52 966.17,-212.91 1007.18,-203.11"/>
<polygon fill="#63b8ff" stroke="#63b8ff" points="1007.91,-206.54 1016.82,-200.81 1006.28,-199.73 1007.91,-206.54"/>
</a>
</g>
</g>
<!-- Node29 -->
<g id="Node000029" class="node">
<title>Node29</title>
<g id="a_Node000029"><a xlink:href="_bezier_control_point_8h.html" target="_top" xlink:title=" ">
<polygon fill="white" stroke="#666666" points="1667.5,-200 1538.25,-200 1538.25,-180 1667.5,-180 1667.5,-200"/>
<text xml:space="preserve" text-anchor="middle" x="1602.88" y="-186.5" font-family="Helvetica,sans-Serif" font-size="10.00">view/BezierControlPoint.h</text>
</a>
</g>
</g>
<!-- Node9&#45;&gt;Node29 -->
<g id="edge41_Node000009_Node000029" class="edge">
<title>Node9&#45;&gt;Node29</title>
<g id="a_edge41_Node000009_Node000029"><a xlink:title=" ">
<path fill="none" stroke="#63b8ff" d="M888.37,-237.02C891.58,-236.66 894.77,-236.31 897.88,-236 1126.21,-213.17 1397.37,-199.68 1526.79,-194.06"/>
<polygon fill="#63b8ff" stroke="#63b8ff" points="1526.76,-197.57 1536.6,-193.64 1526.46,-190.57 1526.76,-197.57"/>
</a>
</g>
</g>
<!-- Node12&#45;&gt;Node10 -->
<g id="edge12_Node000012_Node000010" class="edge">
<title>Node12&#45;&gt;Node10</title>
<g id="a_edge12_Node000012_Node000010"><a xlink:title=" ">
<path fill="none" stroke="#63b8ff" d="M861.65,-117.56C794.9,-106.15 683.42,-87.09 618.07,-75.92"/>
<polygon fill="#63b8ff" stroke="#63b8ff" points="618.75,-72.49 608.31,-74.25 617.57,-79.39 618.75,-72.49"/>
</a>
</g>
</g>
<!-- Node13 -->
<g id="Node000013" class="node">
<title>Node13</title>
<g id="a_Node000013"><a xlink:title=" ">
<polygon fill="#e0e0e0" stroke="#999999" points="678.12,-20 591.62,-20 591.62,0 678.12,0 678.12,-20"/>
<text xml:space="preserve" text-anchor="middle" x="634.88" y="-6.5" font-family="Helvetica,sans-Serif" font-size="10.00">QtCore/QObject</text>
</a>
</g>
</g>
<!-- Node12&#45;&gt;Node13 -->
<g id="edge13_Node000012_Node000013" class="edge">
<title>Node12&#45;&gt;Node13</title>
<g id="a_edge13_Node000012_Node000013"><a xlink:title=" ">
<path fill="none" stroke="#63b8ff" d="M859.31,-118.98C786.85,-108.41 669.95,-89.55 654.88,-76 642.38,-64.77 637.6,-45.94 635.81,-31.43"/>
<polygon fill="#63b8ff" stroke="#63b8ff" points="639.31,-31.28 635.02,-21.59 632.33,-31.84 639.31,-31.28"/>
</a>
</g>
</g>
<!-- Node14 -->
<g id="Node000014" class="node">
<title>Node14</title>
<g id="a_Node000014"><a xlink:title=" ">
<polygon fill="#e0e0e0" stroke="#999999" points="1248.12,-20 1161.62,-20 1161.62,0 1248.12,0 1248.12,-20"/>
<text xml:space="preserve" text-anchor="middle" x="1204.88" y="-6.5" font-family="Helvetica,sans-Serif" font-size="10.00">QtCore/QPointF</text>
</a>
</g>
</g>
<!-- Node12&#45;&gt;Node14 -->
<g id="edge14_Node000012_Node000014" class="edge">
<title>Node12&#45;&gt;Node14</title>
<g id="a_edge14_Node000012_Node000014"><a xlink:title=" ">
<path fill="none" stroke="#63b8ff" d="M957.67,-117.51C966,-115.63 974.71,-113.71 982.88,-112 1065.71,-94.62 1101.66,-126.1 1169.88,-76 1184.87,-64.98 1194.12,-45.56 1199.31,-30.8"/>
<polygon fill="#63b8ff" stroke="#63b8ff" points="1202.52,-32.25 1202.18,-21.66 1195.84,-30.15 1202.52,-32.25"/>
</a>
</g>
</g>
<!-- Node15 -->
<g id="Node000015" class="node">
<title>Node15</title>
<g id="a_Node000015"><a xlink:title=" ">
<polygon fill="#e0e0e0" stroke="#999999" points="1393.38,-76 1308.38,-76 1308.38,-56 1393.38,-56 1393.38,-76"/>
<text xml:space="preserve" text-anchor="middle" x="1350.88" y="-62.5" font-family="Helvetica,sans-Serif" font-size="10.00">QtCore/QRectF</text>
</a>
</g>
</g>
<!-- Node12&#45;&gt;Node15 -->
<g id="edge15_Node000012_Node000015" class="edge">
<title>Node12&#45;&gt;Node15</title>
<g id="a_edge15_Node000012_Node000015"><a xlink:title=" ">
<path fill="none" stroke="#63b8ff" d="M955.12,-117.56C964.18,-115.53 973.84,-113.54 982.88,-112 1119.12,-88.85 1157.61,-95.94 1296.95,-76.34"/>
<polygon fill="#63b8ff" stroke="#63b8ff" points="1297.15,-79.85 1306.55,-74.97 1296.16,-72.92 1297.15,-79.85"/>
</a>
</g>
</g>
<!-- Node16 -->
<g id="Node000016" class="node">
<title>Node16</title>
<g id="a_Node000016"><a xlink:title=" ">
<polygon fill="#e0e0e0" stroke="#999999" points="1138.62,-20 1055.12,-20 1055.12,0 1138.62,0 1138.62,-20"/>
<text xml:space="preserve" text-anchor="middle" x="1096.88" y="-6.5" font-family="Helvetica,sans-Serif" font-size="10.00">QtCore/QString</text>
</a>
</g>
</g>
<!-- Node12&#45;&gt;Node16 -->
<g id="edge16_Node000012_Node000016" class="edge">
<title>Node12&#45;&gt;Node16</title>
<g id="a_edge16_Node000012_Node000016"><a xlink:title=" ">
<path fill="none" stroke="#63b8ff" d="M958.04,-117.54C966.26,-115.68 974.84,-113.76 982.88,-112 1058.74,-95.39 1104.94,-136.31 1153.88,-76 1168.02,-58.57 1146.19,-39.33 1125.59,-26.33"/>
<polygon fill="#63b8ff" stroke="#63b8ff" points="1127.43,-23.35 1117.04,-21.26 1123.86,-29.38 1127.43,-23.35"/>
</a>
</g>
</g>
<!-- Node17 -->
<g id="Node000017" class="node">
<title>Node17</title>
<g id="a_Node000017"><a xlink:title=" ">
<polygon fill="#e0e0e0" stroke="#999999" points="924.62,-76 841.12,-76 841.12,-56 924.62,-56 924.62,-76"/>
<text xml:space="preserve" text-anchor="middle" x="882.88" y="-62.5" font-family="Helvetica,sans-Serif" font-size="10.00">QtCore/QSizeF</text>
</a>
</g>
</g>
<!-- Node12&#45;&gt;Node17 -->
<g id="edge17_Node000012_Node000017" class="edge">
<title>Node12&#45;&gt;Node17</title>
<g id="a_edge17_Node000012_Node000017"><a xlink:title=" ">
<path fill="none" stroke="#63b8ff" d="M911.56,-117.62C906.79,-109.21 899.65,-96.6 893.68,-86.07"/>
<polygon fill="#63b8ff" stroke="#63b8ff" points="896.76,-84.4 888.79,-77.43 890.67,-87.86 896.76,-84.4"/>
</a>
</g>
</g>
<!-- Node18 -->
<g id="Node000018" class="node">
<title>Node18</title>
<g id="a_Node000018"><a xlink:title=" ">
<polygon fill="#e0e0e0" stroke="#999999" points="868,-20 789.75,-20 789.75,0 868,0 868,-20"/>
<text xml:space="preserve" text-anchor="middle" x="828.88" y="-6.5" font-family="Helvetica,sans-Serif" font-size="10.00">QtCore/QUuid</text>
</a>
</g>
</g>
<!-- Node12&#45;&gt;Node18 -->
<g id="edge18_Node000012_Node000018" class="edge">
<title>Node12&#45;&gt;Node18</title>
<g id="a_edge18_Node000012_Node000018"><a xlink:title=" ">
<path fill="none" stroke="#63b8ff" d="M887.52,-117.65C868.14,-109.81 844.14,-96.54 831.88,-76 823.89,-62.63 823.64,-44.82 825.1,-31.22"/>
<polygon fill="#63b8ff" stroke="#63b8ff" points="828.51,-32.07 826.53,-21.67 821.59,-31.04 828.51,-32.07"/>
</a>
</g>
</g>
<!-- Node19 -->
<g id="Node000019" class="node">
<title>Node19</title>
<g id="a_Node000019"><a xlink:title=" ">
<polygon fill="#e0e0e0" stroke="#999999" points="1030.88,-76 942.88,-76 942.88,-56 1030.88,-56 1030.88,-76"/>
<text xml:space="preserve" text-anchor="middle" x="986.88" y="-62.5" font-family="Helvetica,sans-Serif" font-size="10.00">QtCore/QVariant</text>
</a>
</g>
</g>
<!-- Node12&#45;&gt;Node19 -->
<g id="edge19_Node000012_Node000019" class="edge">
<title>Node12&#45;&gt;Node19</title>
<g id="a_edge19_Node000012_Node000019"><a xlink:title=" ">
<path fill="none" stroke="#63b8ff" d="M927.81,-117.62C938.46,-108.5 954.86,-94.45 967.67,-83.46"/>
<polygon fill="#63b8ff" stroke="#63b8ff" points="969.78,-86.26 975.09,-77.1 965.22,-80.95 969.78,-86.26"/>
</a>
</g>
</g>
<!-- Node20 -->
<g id="Node000020" class="node">
<title>Node20</title>
<g id="a_Node000020"><a xlink:title=" ">
<polygon fill="#e0e0e0" stroke="#999999" points="1290.5,-76 1239.25,-76 1239.25,-56 1290.5,-56 1290.5,-76"/>
<text xml:space="preserve" text-anchor="middle" x="1264.88" y="-62.5" font-family="Helvetica,sans-Serif" font-size="10.00">memory</text>
</a>
</g>
</g>
<!-- Node12&#45;&gt;Node20 -->
<g id="edge20_Node000012_Node000020" class="edge">
<title>Node12&#45;&gt;Node20</title>
<g id="a_edge20_Node000012_Node000020"><a xlink:title=" ">
<path fill="none" stroke="#63b8ff" d="M956.21,-117.55C964.96,-115.59 974.21,-113.63 982.88,-112 1089.75,-91.94 1117.98,-95.95 1224.88,-76 1225.89,-75.81 1226.91,-75.62 1227.94,-75.41"/>
<polygon fill="#63b8ff" stroke="#63b8ff" points="1228.55,-78.86 1237.63,-73.4 1227.13,-72.01 1228.55,-78.86"/>
</a>
</g>
</g>
<!-- Node21 -->
<g id="Node000021" class="node">
<title>Node21</title>
<g id="a_Node000021"><a xlink:href="_connection_point_8h.html" target="_top" xlink:title=" ">
<polygon fill="white" stroke="#666666" points="1145,-76 1048.75,-76 1048.75,-56 1145,-56 1145,-76"/>
<text xml:space="preserve" text-anchor="middle" x="1096.88" y="-62.5" font-family="Helvetica,sans-Serif" font-size="10.00">ConnectionPoint.h</text>
</a>
</g>
</g>
<!-- Node12&#45;&gt;Node21 -->
<g id="edge21_Node000012_Node000021" class="edge">
<title>Node12&#45;&gt;Node21</title>
<g id="a_edge21_Node000012_Node000021"><a xlink:title=" ">
<path fill="none" stroke="#63b8ff" d="M945,-117.62C975.42,-107.48 1024.13,-91.25 1058.16,-79.9"/>
<polygon fill="#63b8ff" stroke="#63b8ff" points="1058.84,-83.37 1067.22,-76.89 1056.62,-76.73 1058.84,-83.37"/>
</a>
</g>
</g>
<!-- Node21&#45;&gt;Node13 -->
<g id="edge22_Node000021_Node000013" class="edge">
<title>Node21&#45;&gt;Node13</title>
<g id="a_edge22_Node000021_Node000013"><a xlink:title=" ">
<path fill="none" stroke="#63b8ff" d="M1048.39,-57.16C1045.51,-56.75 1042.66,-56.36 1039.88,-56 887.15,-36.17 845.07,-41.2 689.9,-20.33"/>
<polygon fill="#63b8ff" stroke="#63b8ff" points="690.41,-16.87 680.03,-18.99 689.47,-23.81 690.41,-16.87"/>
</a>
</g>
</g>
<!-- Node21&#45;&gt;Node14 -->
<g id="edge23_Node000021_Node000014" class="edge">
<title>Node21&#45;&gt;Node14</title>
<g id="a_edge23_Node000021_Node000014"><a xlink:title=" ">
<path fill="none" stroke="#63b8ff" d="M1115.69,-55.59C1132.23,-47.32 1156.59,-35.14 1175.67,-25.6"/>
<polygon fill="#63b8ff" stroke="#63b8ff" points="1177.18,-28.76 1184.56,-21.16 1174.05,-22.5 1177.18,-28.76"/>
</a>
</g>
</g>
<!-- Node21&#45;&gt;Node16 -->
<g id="edge24_Node000021_Node000016" class="edge">
<title>Node21&#45;&gt;Node16</title>
<g id="a_edge24_Node000021_Node000016"><a xlink:title=" ">
<path fill="none" stroke="#63b8ff" d="M1096.88,-55.59C1096.88,-49.01 1096.88,-39.96 1096.88,-31.73"/>
<polygon fill="#63b8ff" stroke="#63b8ff" points="1100.38,-31.81 1096.88,-21.81 1093.38,-31.81 1100.38,-31.81"/>
</a>
</g>
</g>
<!-- Node21&#45;&gt;Node18 -->
<g id="edge25_Node000021_Node000018" class="edge">
<title>Node21&#45;&gt;Node18</title>
<g id="a_edge25_Node000021_Node000018"><a xlink:title=" ">
<path fill="none" stroke="#63b8ff" d="M1049.89,-55.53C1002.22,-45.93 928.66,-31.11 879.67,-21.24"/>
<polygon fill="#63b8ff" stroke="#63b8ff" points="880.37,-17.8 869.87,-19.26 878.98,-24.67 880.37,-17.8"/>
</a>
</g>
</g>
<!-- Node22&#45;&gt;Node13 -->
<g id="edge27_Node000022_Node000013" class="edge">
<title>Node22&#45;&gt;Node13</title>
<g id="a_edge27_Node000022_Node000013"><a xlink:title=" ">
<path fill="none" stroke="#63b8ff" d="M708.37,-55.59C695.05,-47.51 675.6,-35.71 660.05,-26.27"/>
<polygon fill="#63b8ff" stroke="#63b8ff" points="662.16,-23.46 651.79,-21.26 658.53,-29.44 662.16,-23.46"/>
</a>
</g>
</g>
<!-- Node22&#45;&gt;Node14 -->
<g id="edge28_Node000022_Node000014" class="edge">
<title>Node22&#45;&gt;Node14</title>
<g id="a_edge28_Node000022_Node000014"><a xlink:title=" ">
<path fill="none" stroke="#63b8ff" d="M784.73,-59.52C867.17,-51.88 1018.89,-37.02 1147.88,-20 1148.69,-19.89 1149.52,-19.78 1150.35,-19.67"/>
<polygon fill="#63b8ff" stroke="#63b8ff" points="1150.43,-23.19 1159.84,-18.32 1149.45,-16.26 1150.43,-23.19"/>
</a>
</g>
</g>
<!-- Node22&#45;&gt;Node16 -->
<g id="edge29_Node000022_Node000016" class="edge">
<title>Node22&#45;&gt;Node16</title>
<g id="a_edge29_Node000022_Node000016"><a xlink:title=" ">
<path fill="none" stroke="#63b8ff" d="M784.63,-56.2C856.45,-45.81 974.82,-28.67 1043.33,-18.75"/>
<polygon fill="#63b8ff" stroke="#63b8ff" points="1043.81,-22.22 1053.2,-17.32 1042.8,-15.29 1043.81,-22.22"/>
</a>
</g>
</g>
<!-- Node22&#45;&gt;Node18 -->
<g id="edge30_Node000022_Node000018" class="edge">
<title>Node22&#45;&gt;Node18</title>
<g id="a_edge30_Node000022_Node000018"><a xlink:title=" ">
<path fill="none" stroke="#63b8ff" d="M742.16,-55.59C758.18,-47.36 781.71,-35.26 800.22,-25.74"/>
<polygon fill="#63b8ff" stroke="#63b8ff" points="801.8,-28.86 809.1,-21.17 798.6,-22.63 801.8,-28.86"/>
</a>
</g>
</g>
<!-- Node23 -->
<g id="Node000023" class="node">
<title>Node23</title>
<g id="a_Node000023"><a xlink:title=" ">
<polygon fill="#e0e0e0" stroke="#999999" points="771.5,-20 696.25,-20 696.25,0 771.5,0 771.5,-20"/>
<text xml:space="preserve" text-anchor="middle" x="733.88" y="-6.5" font-family="Helvetica,sans-Serif" font-size="10.00">QtGui/QColor</text>
</a>
</g>
</g>
<!-- Node22&#45;&gt;Node23 -->
<g id="edge31_Node000022_Node000023" class="edge">
<title>Node22&#45;&gt;Node23</title>
<g id="a_edge31_Node000022_Node000023"><a xlink:title=" ">
<path fill="none" stroke="#63b8ff" d="M725.62,-55.59C726.85,-48.93 728.55,-39.75 730.09,-31.44"/>
<polygon fill="#63b8ff" stroke="#63b8ff" points="733.5,-32.26 731.88,-21.79 726.62,-30.98 733.5,-32.26"/>
</a>
</g>
</g>
<!-- Node24&#45;&gt;Node12 -->
<g id="edge39_Node000024_Node000012" class="edge">
<title>Node24&#45;&gt;Node12</title>
<g id="a_edge39_Node000024_Node000012"><a xlink:title=" ">
<path fill="none" stroke="#63b8ff" d="M1035.84,-179.62C1012.56,-169.72 975.61,-153.99 949.07,-142.7"/>
<polygon fill="#63b8ff" stroke="#63b8ff" points="950.72,-139.6 940.14,-138.9 947.98,-146.04 950.72,-139.6"/>
</a>
</g>
</g>
<!-- Node24&#45;&gt;Node20 -->
<g id="edge40_Node000024_Node000020" class="edge">
<title>Node24&#45;&gt;Node20</title>
<g id="a_edge40_Node000024_Node000020"><a xlink:title=" ">
<path fill="none" stroke="#63b8ff" d="M1129.31,-179.83C1193.92,-170.8 1280.5,-156.57 1290.88,-144 1304.91,-126.99 1292.11,-102.04 1280.02,-85.19"/>
<polygon fill="#63b8ff" stroke="#63b8ff" points="1282.99,-83.31 1274.11,-77.53 1277.44,-87.59 1282.99,-83.31"/>
</a>
</g>
</g>
<!-- Node25 -->
<g id="Node000025" class="node">
<title>Node25</title>
<g id="a_Node000025"><a xlink:title=" ">
<polygon fill="#e0e0e0" stroke="#999999" points="1123.62,-138 992.12,-138 992.12,-118 1123.62,-118 1123.62,-138"/>
<text xml:space="preserve" text-anchor="middle" x="1057.88" y="-124.5" font-family="Helvetica,sans-Serif" font-size="10.00">QtWidgets/QGraphicsItem</text>
</a>
</g>
</g>
<!-- Node24&#45;&gt;Node25 -->
<g id="edge33_Node000024_Node000025" class="edge">
<title>Node24&#45;&gt;Node25</title>
<g id="a_edge33_Node000024_Node000025"><a xlink:title=" ">
<path fill="none" stroke="#63b8ff" d="M1057.88,-179.62C1057.88,-171.56 1057.88,-159.65 1057.88,-149.41"/>
<polygon fill="#63b8ff" stroke="#63b8ff" points="1061.38,-149.63 1057.88,-139.63 1054.38,-149.63 1061.38,-149.63"/>
</a>
</g>
</g>
<!-- Node26 -->
<g id="Node000026" class="node">
<title>Node26</title>
<g id="a_Node000026"><a xlink:title=" ">
<polygon fill="#e0e0e0" stroke="#999999" points="1281.75,-144 1142,-144 1142,-112 1281.75,-112 1281.75,-144"/>
<text xml:space="preserve" text-anchor="start" x="1150" y="-130.5" font-family="Helvetica,sans-Serif" font-size="10.00">QtWidgets/QGraphicsScene</text>
<text xml:space="preserve" text-anchor="middle" x="1211.88" y="-118.5" font-family="Helvetica,sans-Serif" font-size="10.00">MouseEvent</text>
</a>
</g>
</g>
<!-- Node24&#45;&gt;Node26 -->
<g id="edge34_Node000024_Node000026" class="edge">
<title>Node24&#45;&gt;Node26</title>
<g id="a_edge34_Node000024_Node000026"><a xlink:title=" ">
<path fill="none" stroke="#63b8ff" d="M1081.94,-179.62C1103.13,-171.37 1134.68,-159.07 1161.39,-148.67"/>
<polygon fill="#63b8ff" stroke="#63b8ff" points="1162.66,-151.93 1170.71,-145.04 1160.12,-145.41 1162.66,-151.93"/>
</a>
</g>
</g>
<!-- Node27 -->
<g id="Node000027" class="node">
<title>Node27</title>
<g id="a_Node000027"><a xlink:href="_element_renderer_8h.html" target="_top" xlink:title=" ">
<polygon fill="white" stroke="#666666" points="1437.88,-138 1337.88,-138 1337.88,-118 1437.88,-118 1437.88,-138"/>
<text xml:space="preserve" text-anchor="middle" x="1387.88" y="-124.5" font-family="Helvetica,sans-Serif" font-size="10.00">ElementRenderer.h</text>
</a>
</g>
</g>
<!-- Node24&#45;&gt;Node27 -->
<g id="edge35_Node000024_Node000027" class="edge">
<title>Node24&#45;&gt;Node27</title>
<g id="a_edge35_Node000024_Node000027"><a xlink:title=" ">
<path fill="none" stroke="#63b8ff" d="M1120.69,-179.51C1174.72,-171.08 1254.66,-157.95 1323.88,-144 1328.53,-143.06 1333.37,-142.03 1338.2,-140.96"/>
<polygon fill="#63b8ff" stroke="#63b8ff" points="1338.92,-144.39 1347.9,-138.77 1337.38,-137.56 1338.92,-144.39"/>
</a>
</g>
</g>
<!-- Node27&#45;&gt;Node14 -->
<g id="edge38_Node000027_Node000014" class="edge">
<title>Node27&#45;&gt;Node14</title>
<g id="a_edge38_Node000027_Node000014"><a xlink:title=" ">
<path fill="none" stroke="#63b8ff" d="M1394.2,-117.61C1403.26,-102.87 1417.34,-74.12 1402.88,-56 1385.2,-33.86 1311.69,-21.78 1259.41,-15.86"/>
<polygon fill="#63b8ff" stroke="#63b8ff" points="1260.1,-12.42 1249.78,-14.82 1259.34,-19.37 1260.1,-12.42"/>
</a>
</g>
</g>
<!-- Node27&#45;&gt;Node15 -->
<g id="edge37_Node000027_Node000015" class="edge">
<title>Node27&#45;&gt;Node15</title>
<g id="a_edge37_Node000027_Node000015"><a xlink:title=" ">
<path fill="none" stroke="#63b8ff" d="M1382.09,-117.62C1376.85,-109.12 1368.96,-96.33 1362.43,-85.74"/>
<polygon fill="#63b8ff" stroke="#63b8ff" points="1365.52,-84.08 1357.29,-77.4 1359.56,-87.75 1365.52,-84.08"/>
</a>
</g>
</g>
<!-- Node28 -->
<g id="Node000028" class="node">
<title>Node28</title>
<g id="a_Node000028"><a xlink:title=" ">
<polygon fill="#e0e0e0" stroke="#999999" points="1532.25,-76 1449.5,-76 1449.5,-56 1532.25,-56 1532.25,-76"/>
<text xml:space="preserve" text-anchor="middle" x="1490.88" y="-62.5" font-family="Helvetica,sans-Serif" font-size="10.00">QtGui/QPainter</text>
</a>
</g>
</g>
<!-- Node27&#45;&gt;Node28 -->
<g id="edge36_Node000027_Node000028" class="edge">
<title>Node27&#45;&gt;Node28</title>
<g id="a_edge36_Node000027_Node000028"><a xlink:title=" ">
<path fill="none" stroke="#63b8ff" d="M1403.97,-117.62C1420.3,-108.11 1445.82,-93.24 1465,-82.08"/>
<polygon fill="#63b8ff" stroke="#63b8ff" points="1466.71,-85.13 1473.59,-77.07 1463.18,-79.08 1466.71,-85.13"/>
</a>
</g>
</g>
<!-- Node30 -->
<g id="Node000030" class="node">
<title>Node30</title>
<g id="a_Node000030"><a xlink:title=" ">
<polygon fill="#e0e0e0" stroke="#999999" points="1616.25,-138 1455.5,-138 1455.5,-118 1616.25,-118 1616.25,-138"/>
<text xml:space="preserve" text-anchor="middle" x="1535.88" y="-124.5" font-family="Helvetica,sans-Serif" font-size="10.00">QtWidgets/QGraphicsEllipseItem</text>
</a>
</g>
</g>
<!-- Node29&#45;&gt;Node30 -->
<g id="edge42_Node000029_Node000030" class="edge">
<title>Node29&#45;&gt;Node30</title>
<g id="a_edge42_Node000029_Node000030"><a xlink:title=" ">
<path fill="none" stroke="#63b8ff" d="M1592.41,-179.62C1582.32,-170.59 1566.83,-156.72 1554.61,-145.78"/>
<polygon fill="#63b8ff" stroke="#63b8ff" points="1556.96,-143.19 1547.18,-139.12 1552.29,-148.4 1556.96,-143.19"/>
</a>
</g>
</g>
<!-- Node31 -->
<g id="Node000031" class="node">
<title>Node31</title>
<g id="a_Node000031"><a xlink:title=" ">
<polygon fill="#e0e0e0" stroke="#999999" points="1703.5,-138 1634.25,-138 1634.25,-118 1703.5,-118 1703.5,-138"/>
<text xml:space="preserve" text-anchor="middle" x="1668.88" y="-124.5" font-family="Helvetica,sans-Serif" font-size="10.00">QtGui/QPen</text>
</a>
</g>
</g>
<!-- Node29&#45;&gt;Node31 -->
<g id="edge43_Node000029_Node000031" class="edge">
<title>Node29&#45;&gt;Node31</title>
<g id="a_edge43_Node000029_Node000031"><a xlink:title=" ">
<path fill="none" stroke="#63b8ff" d="M1613.19,-179.62C1623.13,-170.59 1638.39,-156.72 1650.42,-145.78"/>
<polygon fill="#63b8ff" stroke="#63b8ff" points="1652.69,-148.45 1657.73,-139.13 1647.98,-143.27 1652.69,-148.45"/>
</a>
</g>
</g>
<!-- Node32 -->
<g id="Node000032" class="node">
<title>Node32</title>
<g id="a_Node000032"><a xlink:title=" ">
<polygon fill="#e0e0e0" stroke="#999999" points="1798.62,-138 1721.12,-138 1721.12,-118 1798.62,-118 1798.62,-138"/>
<text xml:space="preserve" text-anchor="middle" x="1759.88" y="-124.5" font-family="Helvetica,sans-Serif" font-size="10.00">QtGui/QBrush</text>
</a>
</g>
</g>
<!-- Node29&#45;&gt;Node32 -->
<g id="edge44_Node000029_Node000032" class="edge">
<title>Node29&#45;&gt;Node32</title>
<g id="a_edge44_Node000029_Node000032"><a xlink:title=" ">
<path fill="none" stroke="#63b8ff" d="M1627.41,-179.62C1653.48,-169.66 1694.96,-153.81 1724.55,-142.5"/>
<polygon fill="#63b8ff" stroke="#63b8ff" points="1725.75,-145.79 1733.84,-138.95 1723.25,-139.25 1725.75,-145.79"/>
</a>
</g>
</g>
</g>
</svg>

<g id="navigator" transform="translate(0 0)" fill="#404254">
  <rect fill="#f2f5e9" fill-opacity="0.5" stroke="#606060" stroke-width=".5" x="0" y="0" width="60" height="60"/>
  <use id="zoomplus" xlink:href="#zoomPlus" x="17" y="9" onmousedown="handleZoom(evt,'in')"/>
  <use id="zoomminus" xlink:href="#zoomMin" x="42" y="9" onmousedown="handleZoom(evt,'out')"/>
  <use id="reset" xlink:href="#resetDef" x="30" y="36" onmousedown="handleReset()"/>
   <use id="arrowup" xlink:href="#arrowUp" x="0" y="0" onmousedown="handlePan(0,-1)"/>
  <use id="arrowright" xlink:href="#arrowRight" x="0" y="0" onmousedown="handlePan(1,0)"/>
  <use id="arrowdown" xlink:href="#arrowDown" x="0" y="0" onmousedown="handlePan(0,1)"/>
  <use id="arrowleft" xlink:href="#arrowLeft" x="0" y="0" onmousedown="handlePan(-1,0)"/>
</g>
<svg viewBox="0 0 15 15" width="100%" height="30px" preserveAspectRatio="xMaxYMin meet">
 <g id="arrow_out" transform="scale(0.3 0.3)">
  <a xlink:href="_diagram_view_8cpp__incl_org.svg" target="_base">
   <rect id="button" ry="5" rx="5" y="6" x="6" height="38" width="38"
        fill="#f2f5e9" fill-opacity="0.5" stroke="#606060" stroke-width="1.0"/>
   <path id="arrow"
     d="M 11.500037,31.436501 C 11.940474,20.09759 22.043105,11.32322 32.158766,21.979434 L 37.068811,17.246167 C 37.068811,17.246167 37.088388,32 37.088388,32 L 22.160133,31.978069 C 22.160133,31.978069 26.997745,27.140456 26.997745,27.140456 C 18.528582,18.264221 13.291696,25.230495 11.500037,31.436501 z"
     style="fill:#404040;"/>
  </a>
 </g>
</svg>

<style type='text/css'>
<![CDATA[
[data-mouse-over-selected='false'] { opacity: 0.7; }
[data-mouse-over-selected='true']  { opacity: 1.0; }
]]>
</style>
<script type="application/ecmascript"><![CDATA[
document.addEventListener('DOMContentLoaded', (event) => {
  highlightEdges();
  highlightAdjacentNodes();
});
]]></script>
</svg>
