<?xml version="1.0" encoding="UTF-8" standalone="no"?>
<!DOCTYPE svg PUBLIC "-//W3C//DTD SVG 1.1//EN"
 "http://www.w3.org/Graphics/SVG/1.1/DTD/svg11.dtd">
<!-- Generated by graphviz version 14.1.1 (20251213.1925)
 -->
<!-- Title: src/view/ElementGraphicsItem.h Pages: 1 -->
<!--zoomable 220 -->

<svg id="main" version="1.1" xmlns="http://www.w3.org/2000/svg" xmlns:xlink="http://www.w3.org/1999/xlink" xml:space="preserve" onload="init(evt)">

<style type="text/css"><![CDATA[
.node, .edge {opacity: 0.7;}
.node.selected, .edge.selected {opacity: 1;}
.edge:hover path { stroke: red; }
.edge:hover polygon { stroke: red; fill: red; }
]]></style>

<defs>
  <circle id="rim" cx="0" cy="0" r="7"/>
  <circle id="rim2" cx="0" cy="0" r="3.5"/>
  <g id="zoomPlus">
    <use xlink:href="#rim" fill="#404040"><set attributeName="fill" to="#808080" begin="zoomplus.mouseover" end="zoomplus.mouseout"/></use>
    <path d="M-4,0h8M0,-4v8" fill="none" stroke="white" stroke-width="1.5" pointer-events="none"/>
  </g>
  <g id="zoomMin">
    <use xlink:href="#rim" fill="#404040"><set attributeName="fill" to="#808080" begin="zoomminus.mouseover" end="zoomminus.mouseout"/></use>
    <path d="M-4,0h8" fill="none" stroke="white" stroke-width="1.5" pointer-events="none"/>
  </g>
  <g id="arrowUp" transform="translate(30 24)">
    <use xlink:href="#rim"/>
    <path pointer-events="none" fill="none" stroke="white" stroke-width="1.5" d="M0,-3.0v7 M-2.5,-0.5L0,-3.0L2.5,-0.5"/>
  </g>
  <g id="arrowRight" transform="rotate(90) translate(36 -43)">
    <use xlink:href="#rim"/>
    <path pointer-events="none" fill="none" stroke="white" stroke-width="1.5" d="M0,-3.0v7 M-2.5,-0.5L0,-3.0L2.5,-0.5"/>
  </g>
  <g id="arrowDown" transform="rotate(180) translate(-30 -48)">
    <use xlink:href="#rim"/>
    <path pointer-events="none" fill="none" stroke="white" stroke-width="1.5" d="M0,-3.0v7 M-2.5,-0.5L0,-3.0L2.5,-0.5"/>
  </g>
  <g id="arrowLeft" transform="rotate(270) translate(-36 17)">
    <use xlink:href="#rim"/>
    <path pointer-events="none" fill="none" stroke="white" stroke-width="1.5" d="M0,-3.0v7 M-2.5,-0.5L0,-3.0L2.5,-0.5"/>
  </g>
  <g id="resetDef">
    <use xlink:href="#rim2" fill="#404040"><set attributeName="fill" to="#808080" begin="reset.mouseover" end="reset.mouseout"/></use>
  </g>
</defs>
<script type="application/ecmascript">
var viewWidth = 1534;
var viewHeight = 220;
var sectionId = 'dynsection-1';
</script>
<script type="application/ecmascript" xlink:href="svg.min.js"/>
<svg id="graph" class="graph">
<g id="viewport">
<title>src/view/ElementGraphicsItem.h</title>
<!-- Node1 -->
<g id="Node000001" class="node">
<title>Node1</title>
<g id="a_Node000001"><a xlink:title=" ">
<polygon fill="#999999" stroke="#666666" points="1364.5,-212 1233.75,-212 1233.75,-180 1364.5,-180 1364.5,-212"/>
<text xml:space="preserve" text-anchor="start" x="1241.75" y="-198.5" font-family="Helvetica,sans-Serif" font-size="10.00">src/view/ElementGraphics</text>
<text xml:space="preserve" text-anchor="middle" x="1299.12" y="-186.5" font-family="Helvetica,sans-Serif" font-size="10.00">Item.h</text>
</a>
</g>
</g>
<!-- Node2 -->
<g id="Node000002" class="node">
<title>Node2</title>
<g id="a_Node000002"><a xlink:href="_diagram_scene_8h.html" target="_top" xlink:title=" ">
<polygon fill="white" stroke="#666666" points="979.38,-144 850.88,-144 850.88,-124 979.38,-124 979.38,-144"/>
<text xml:space="preserve" text-anchor="middle" x="915.12" y="-130.5" font-family="Helvetica,sans-Serif" font-size="10.00">src/view/DiagramScene.h</text>
</a>
</g>
</g>
<!-- Node1&#45;&gt;Node2 -->
<g id="edge1_Node000001_Node000002" class="edge">
<title>Node1&#45;&gt;Node2</title>
<g id="a_edge1_Node000001_Node000002"><a xlink:title=" ">
<path fill="none" stroke="#63b8ff" d="M1222.21,-182.98C1149.66,-171.65 1042.34,-154.88 975.68,-144.46"/>
<polygon fill="#63b8ff" stroke="#63b8ff" points="1221.63,-186.43 1232.05,-184.52 1222.71,-179.52 1221.63,-186.43"/>
</a>
</g>
</g>
<!-- Node9 -->
<g id="Node000009" class="node">
<title>Node9</title>
<g id="a_Node000009"><a xlink:href="_element_graphics_item_8cpp.html" target="_top" xlink:title=" ">
<polygon fill="white" stroke="#666666" points="1364.5,-88 1233.75,-88 1233.75,-56 1364.5,-56 1364.5,-88"/>
<text xml:space="preserve" text-anchor="start" x="1241.75" y="-74.5" font-family="Helvetica,sans-Serif" font-size="10.00">src/view/ElementGraphics</text>
<text xml:space="preserve" text-anchor="middle" x="1299.12" y="-62.5" font-family="Helvetica,sans-Serif" font-size="10.00">Item.cpp</text>
</a>
</g>
</g>
<!-- Node1&#45;&gt;Node9 -->
<g id="edge14_Node000001_Node000009" class="edge">
<title>Node1&#45;&gt;Node9</title>
<g id="a_edge14_Node000001_Node000009"><a xlink:title=" ">
<path fill="none" stroke="#63b8ff" d="M1299.12,-168.19C1299.12,-143.7 1299.12,-108.34 1299.12,-88.33"/>
<polygon fill="#63b8ff" stroke="#63b8ff" points="1295.63,-168.04 1299.13,-178.04 1302.63,-168.04 1295.63,-168.04"/>
</a>
</g>
</g>
<!-- Node14 -->
<g id="Node000014" class="node">
<title>Node14</title>
<g id="a_Node000014"><a xlink:href="_properties_panel_8cpp.html" target="_top" xlink:title=" ">
<polygon fill="white" stroke="#666666" points="1525.88,-82 1382.38,-82 1382.38,-62 1525.88,-62 1525.88,-82"/>
<text xml:space="preserve" text-anchor="middle" x="1454.12" y="-68.5" font-family="Helvetica,sans-Serif" font-size="10.00">src/view/PropertiesPanel.cpp</text>
</a>
</g>
</g>
<!-- Node1&#45;&gt;Node14 -->
<g id="edge15_Node000001_Node000014" class="edge">
<title>Node1&#45;&gt;Node14</title>
<g id="a_edge15_Node000001_Node000014"><a xlink:title=" ">
<path fill="none" stroke="#63b8ff" d="M1327.38,-172.76C1361.63,-145.8 1417.81,-101.58 1442.2,-82.38"/>
<polygon fill="#63b8ff" stroke="#63b8ff" points="1325.64,-169.68 1319.95,-178.61 1329.97,-175.18 1325.64,-169.68"/>
</a>
</g>
</g>
<!-- Node3 -->
<g id="Node000003" class="node">
<title>Node3</title>
<g id="a_Node000003"><a xlink:href="_connection_line_8cpp.html" target="_top" xlink:title=" ">
<polygon fill="white" stroke="#666666" points="381.12,-82 233.12,-82 233.12,-62 381.12,-62 381.12,-82"/>
<text xml:space="preserve" text-anchor="middle" x="307.12" y="-68.5" font-family="Helvetica,sans-Serif" font-size="10.00">src/model/ConnectionLine.cpp</text>
</a>
</g>
</g>
<!-- Node2&#45;&gt;Node3 -->
<g id="edge2_Node000002_Node000003" class="edge">
<title>Node2&#45;&gt;Node3</title>
<g id="a_edge2_Node000002_Node000003"><a xlink:title=" ">
<path fill="none" stroke="#63b8ff" d="M839.22,-128.72C736.92,-122.45 549.26,-109.15 390.12,-88 378.8,-86.5 366.67,-84.51 355.28,-82.49"/>
<polygon fill="#63b8ff" stroke="#63b8ff" points="838.96,-132.21 849.15,-129.33 839.38,-125.23 838.96,-132.21"/>
</a>
</g>
</g>
<!-- Node4 -->
<g id="Node000004" class="node">
<title>Node4</title>
<g id="a_Node000004"><a xlink:href="_diagram_file_manager_8cpp.html" target="_top" xlink:title=" ">
<polygon fill="white" stroke="#666666" points="569.38,-82 398.88,-82 398.88,-62 569.38,-62 569.38,-82"/>
<text xml:space="preserve" text-anchor="middle" x="484.12" y="-68.5" font-family="Helvetica,sans-Serif" font-size="10.00">src/model/DiagramFileManager.cpp</text>
</a>
</g>
</g>
<!-- Node2&#45;&gt;Node4 -->
<g id="edge3_Node000002_Node000004" class="edge">
<title>Node2&#45;&gt;Node4</title>
<g id="a_edge3_Node000002_Node000004"><a xlink:title=" ">
<path fill="none" stroke="#63b8ff" d="M839.37,-123.44C771.02,-114.69 667.75,-101.13 578.12,-88 566.43,-86.29 553.94,-84.36 542.01,-82.47"/>
<polygon fill="#63b8ff" stroke="#63b8ff" points="838.59,-126.87 848.95,-124.67 839.47,-119.93 838.59,-126.87"/>
</a>
</g>
</g>
<!-- Node5 -->
<g id="Node000005" class="node">
<title>Node5</title>
<g id="a_Node000005"><a xlink:href="_diagram_serializer_8cpp.html" target="_top" xlink:title=" ">
<polygon fill="white" stroke="#666666" points="745,-82 587.25,-82 587.25,-62 745,-62 745,-82"/>
<text xml:space="preserve" text-anchor="middle" x="666.12" y="-68.5" font-family="Helvetica,sans-Serif" font-size="10.00">src/model/DiagramSerializer.cpp</text>
</a>
</g>
</g>
<!-- Node2&#45;&gt;Node5 -->
<g id="edge4_Node000002_Node000005" class="edge">
<title>Node2&#45;&gt;Node5</title>
<g id="a_edge4_Node000002_Node000005"><a xlink:title=" ">
<path fill="none" stroke="#63b8ff" d="M864.8,-120.87C817.79,-109.55 748.58,-92.87 705.49,-82.48"/>
<polygon fill="#63b8ff" stroke="#63b8ff" points="863.93,-124.26 874.47,-123.2 865.57,-117.46 863.93,-124.26"/>
</a>
</g>
</g>
<!-- Node6 -->
<g id="Node000006" class="node">
<title>Node6</title>
<g id="a_Node000006"><a xlink:href="_connection_graphics_item_8cpp.html" target="_top" xlink:title=" ">
<polygon fill="white" stroke="#666666" points="907.25,-88 763,-88 763,-56 907.25,-56 907.25,-88"/>
<text xml:space="preserve" text-anchor="start" x="771" y="-74.5" font-family="Helvetica,sans-Serif" font-size="10.00">src/view/ConnectionGraphics</text>
<text xml:space="preserve" text-anchor="middle" x="835.12" y="-62.5" font-family="Helvetica,sans-Serif" font-size="10.00">Item.cpp</text>
</a>
</g>
</g>
<!-- Node2&#45;&gt;Node6 -->
<g id="edge5_Node000002_Node000006" class="edge">
<title>Node2&#45;&gt;Node6</title>
<g id="a_edge5_Node000002_Node000006"><a xlink:title=" ">
<path fill="none" stroke="#63b8ff" d="M893.49,-116.78C881.71,-107.94 867.22,-97.07 855.62,-88.37"/>
<polygon fill="#63b8ff" stroke="#63b8ff" points="891.31,-119.52 901.41,-122.72 895.51,-113.92 891.31,-119.52"/>
</a>
</g>
</g>
<!-- Node7 -->
<g id="Node000007" class="node">
<title>Node7</title>
<g id="a_Node000007"><a xlink:href="_diagram_scene_8cpp.html" target="_top" xlink:title=" ">
<polygon fill="white" stroke="#666666" points="1064.62,-82 925.62,-82 925.62,-62 1064.62,-62 1064.62,-82"/>
<text xml:space="preserve" text-anchor="middle" x="995.12" y="-68.5" font-family="Helvetica,sans-Serif" font-size="10.00">src/view/DiagramScene.cpp</text>
</a>
</g>
</g>
<!-- Node2&#45;&gt;Node7 -->
<g id="edge6_Node000002_Node000007" class="edge">
<title>Node2&#45;&gt;Node7</title>
<g id="a_edge6_Node000002_Node000007"><a xlink:title=" ">
<path fill="none" stroke="#63b8ff" d="M936.58,-116.91C951.34,-105.84 970.42,-91.53 982.71,-82.31"/>
<polygon fill="#63b8ff" stroke="#63b8ff" points="934.74,-113.92 928.84,-122.72 938.94,-119.52 934.74,-113.92"/>
</a>
</g>
</g>
<!-- Node8 -->
<g id="Node000008" class="node">
<title>Node8</title>
<g id="a_Node000008"><a xlink:href="_diagram_view_8cpp.html" target="_top" xlink:title=" ">
<polygon fill="white" stroke="#666666" points="1215.25,-82 1083,-82 1083,-62 1215.25,-62 1215.25,-82"/>
<text xml:space="preserve" text-anchor="middle" x="1149.12" y="-68.5" font-family="Helvetica,sans-Serif" font-size="10.00">src/view/DiagramView.cpp</text>
</a>
</g>
</g>
<!-- Node2&#45;&gt;Node8 -->
<g id="edge7_Node000002_Node000008" class="edge">
<title>Node2&#45;&gt;Node8</title>
<g id="a_edge7_Node000002_Node000008"><a xlink:title=" ">
<path fill="none" stroke="#63b8ff" d="M962.98,-120.73C1007.15,-109.4 1071.81,-92.82 1112.13,-82.48"/>
<polygon fill="#63b8ff" stroke="#63b8ff" points="962.23,-117.31 953.41,-123.18 963.97,-124.09 962.23,-117.31"/>
</a>
</g>
</g>
<!-- Node2&#45;&gt;Node9 -->
<g id="edge8_Node000002_Node000009" class="edge">
<title>Node2&#45;&gt;Node9</title>
<g id="a_edge8_Node000002_Node000009"><a xlink:title=" ">
<path fill="none" stroke="#63b8ff" d="M991.15,-123.07C1053.81,-114.61 1144.92,-101.68 1224.12,-88 1227.13,-87.48 1230.21,-86.93 1233.31,-86.37"/>
<polygon fill="#63b8ff" stroke="#63b8ff" points="990.74,-119.59 981.29,-124.39 991.67,-126.53 990.74,-119.59"/>
</a>
</g>
</g>
<!-- Node10 -->
<g id="Node000010" class="node">
<title>Node10</title>
<g id="a_Node000010"><a xlink:href="_main_window_8h.html" target="_top" xlink:title=" ">
<polygon fill="white" stroke="#666666" points="214.88,-82 95.38,-82 95.38,-62 214.88,-62 214.88,-82"/>
<text xml:space="preserve" text-anchor="middle" x="155.12" y="-68.5" font-family="Helvetica,sans-Serif" font-size="10.00">src/view/MainWindow.h</text>
</a>
</g>
</g>
<!-- Node2&#45;&gt;Node10 -->
<g id="edge9_Node000002_Node000010" class="edge">
<title>Node2&#45;&gt;Node10</title>
<g id="a_edge9_Node000002_Node000010"><a xlink:title=" ">
<path fill="none" stroke="#63b8ff" d="M839.32,-131.75C711.75,-128.83 446.29,-119.21 224.12,-88 214.17,-86.6 203.51,-84.56 193.63,-82.43"/>
<polygon fill="#63b8ff" stroke="#63b8ff" points="838.91,-135.24 848.98,-131.97 839.06,-128.25 838.91,-135.24"/>
</a>
</g>
</g>
<!-- Node2&#45;&gt;Node14 -->
<g id="edge13_Node000002_Node000014" class="edge">
<title>Node2&#45;&gt;Node14</title>
<g id="a_edge13_Node000002_Node000014"><a xlink:title=" ">
<path fill="none" stroke="#63b8ff" d="M991.12,-127.53C1082.17,-120.51 1239.22,-106.94 1373.12,-88 1384.03,-86.46 1395.7,-84.49 1406.69,-82.48"/>
<polygon fill="#63b8ff" stroke="#63b8ff" points="991.02,-124.02 981.31,-128.28 991.55,-131 991.02,-124.02"/>
</a>
</g>
</g>
<!-- Node11 -->
<g id="Node000011" class="node">
<title>Node11</title>
<g id="a_Node000011"><a xlink:href="main_8cpp.html" target="_top" xlink:title=" ">
<polygon fill="white" stroke="#666666" points="72.25,-20 0,-20 0,0 72.25,0 72.25,-20"/>
<text xml:space="preserve" text-anchor="middle" x="36.12" y="-6.5" font-family="Helvetica,sans-Serif" font-size="10.00">src/main.cpp</text>
</a>
</g>
</g>
<!-- Node10&#45;&gt;Node11 -->
<g id="edge10_Node000010_Node000011" class="edge">
<title>Node10&#45;&gt;Node11</title>
<g id="a_edge10_Node000010_Node000011"><a xlink:title=" ">
<path fill="none" stroke="#63b8ff" d="M126.3,-56.46C103.98,-45.21 73.75,-29.97 54.59,-20.31"/>
<polygon fill="#63b8ff" stroke="#63b8ff" points="124.67,-59.57 135.18,-60.94 127.83,-53.32 124.67,-59.57"/>
</a>
</g>
</g>
<!-- Node12 -->
<g id="Node000012" class="node">
<title>Node12</title>
<g id="a_Node000012"><a xlink:href="_main_window_8cpp.html" target="_top" xlink:title=" ">
<polygon fill="white" stroke="#666666" points="220.12,-20 90.12,-20 90.12,0 220.12,0 220.12,-20"/>
<text xml:space="preserve" text-anchor="middle" x="155.12" y="-6.5" font-family="Helvetica,sans-Serif" font-size="10.00">src/view/MainWindow.cpp</text>
</a>
</g>
</g>
<!-- Node10&#45;&gt;Node12 -->
<g id="edge11_Node000010_Node000012" class="edge">
<title>Node10&#45;&gt;Node12</title>
<g id="a_edge11_Node000010_Node000012"><a xlink:title=" ">
<path fill="none" stroke="#63b8ff" d="M155.12,-50.25C155.12,-39.97 155.12,-28.09 155.12,-20.11"/>
<polygon fill="#63b8ff" stroke="#63b8ff" points="151.63,-50.11 155.13,-60.11 158.63,-50.11 151.63,-50.11"/>
</a>
</g>
</g>
<!-- Node13 -->
<g id="Node000013" class="node">
<title>Node13</title>
<g id="a_Node000013"><a xlink:href="_quick_acess_toolbar_8cpp.html" target="_top" xlink:title=" ">
<polygon fill="white" stroke="#666666" points="397.75,-20 238.5,-20 238.5,0 397.75,0 397.75,-20"/>
<text xml:space="preserve" text-anchor="middle" x="318.12" y="-6.5" font-family="Helvetica,sans-Serif" font-size="10.00">src/view/QuickAcessToolbar.cpp</text>
</a>
</g>
</g>
<!-- Node10&#45;&gt;Node13 -->
<g id="edge12_Node000010_Node000013" class="edge">
<title>Node10&#45;&gt;Node13</title>
<g id="a_edge12_Node000010_Node000013"><a xlink:title=" ">
<path fill="none" stroke="#63b8ff" d="M191.29,-57.69C222.01,-46.38 265.34,-30.43 292.57,-20.41"/>
<polygon fill="#63b8ff" stroke="#63b8ff" points="190.19,-54.36 182.01,-61.1 192.61,-60.93 190.19,-54.36"/>
</a>
</g>
</g>
</g>
</svg>

<g id="navigator" transform="translate(0 0)" fill="#404254">
  <rect fill="#f2f5e9" fill-opacity="0.5" stroke="#606060" stroke-width=".5" x="0" y="0" width="60" height="60"/>
  <use id="zoomplus" xlink:href="#zoomPlus" x="17" y="9" onmousedown="handleZoom(evt,'in')"/>
  <use id="zoomminus" xlink:href="#zoomMin" x="42" y="9" onmousedown="handleZoom(evt,'out')"/>
  <use id="reset" xlink:href="#resetDef" x="30" y="36" onmousedown="handleReset()"/>
   <use id="arrowup" xlink:href="#arrowUp" x="0" y="0" onmousedown="handlePan(0,-1)"/>
  <use id="arrowright" xlink:href="#arrowRight" x="0" y="0" onmousedown="handlePan(1,0)"/>
  <use id="arrowdown" xlink:href="#arrowDown" x="0" y="0" onmousedown="handlePan(0,1)"/>
  <use id="arrowleft" xlink:href="#arrowLeft" x="0" y="0" onmousedown="handlePan(-1,0)"/>
</g>
<svg viewBox="0 0 15 15" width="100%" height="30px" preserveAspectRatio="xMaxYMin meet">
 <g id="arrow_out" transform="scale(0.3 0.3)">
  <a xlink:href="_element_graphics_item_8h__dep__incl_org.svg" target="_base">
   <rect id="button" ry="5" rx="5" y="6" x="6" height="38" width="38"
        fill="#f2f5e9" fill-opacity="0.5" stroke="#606060" stroke-width="1.0"/>
   <path id="arrow"
     d="M 11.500037,31.436501 C 11.940474,20.09759 22.043105,11.32322 32.158766,21.979434 L 37.068811,17.246167 C 37.068811,17.246167 37.088388,32 37.088388,32 L 22.160133,31.978069 C 22.160133,31.978069 26.997745,27.140456 26.997745,27.140456 C 18.528582,18.264221 13.291696,25.230495 11.500037,31.436501 z"
     style="fill:#404040;"/>
  </a>
 </g>
</svg>

<style type='text/css'>
<![CDATA[
[data-mouse-over-selected='false'] { opacity: 0.7; }
[data-mouse-over-selected='true']  { opacity: 1.0; }
]]>
</style>
<script type="application/ecmascript"><![CDATA[
document.addEventListener('DOMContentLoaded', (event) => {
  highlightEdges();
  highlightAdjacentNodes();
});
]]></script>
</svg>
