<?xml version="1.0" encoding="UTF-8" standalone="no"?>
<!DOCTYPE svg PUBLIC "-//W3C//DTD SVG 1.1//EN"
 "http://www.w3.org/Graphics/SVG/1.1/DTD/svg11.dtd">
<!-- Generated by graphviz version 14.1.1 (20251213.1925)
 -->
<!-- Title: src/view/ElementRenderer.cpp Pages: 1 -->
<svg width="1035pt" height="196pt"
 viewBox="0.00 0.00 1035.00 196.00" xmlns="http://www.w3.org/2000/svg" xmlns:xlink="http://www.w3.org/1999/xlink">
<g id="graph0" class="graph" transform="scale(1 1) rotate(0) translate(4 192)">
<title>src/view/ElementRenderer.cpp</title>
<!-- Node1 -->
<g id="Node000001" class="node">
<title>Node1</title>
<g id="a_Node000001"><a xlink:title=" ">
<polygon fill="#999999" stroke="#666666" points="759.88,-188 609.62,-188 609.62,-168 759.88,-168 759.88,-188"/>
<text xml:space="preserve" text-anchor="middle" x="684.75" y="-174.5" font-family="Helvetica,sans-Serif" font-size="10.00">src/view/ElementRenderer.cpp</text>
</a>
</g>
</g>
<!-- Node2 -->
<g id="Node000002" class="node">
<title>Node2</title>
<g id="a_Node000002"><a xlink:href="_element_renderer_8h.html" target="_top" xlink:title=" ">
<polygon fill="white" stroke="#666666" points="754.75,-76 654.75,-76 654.75,-56 754.75,-56 754.75,-76"/>
<text xml:space="preserve" text-anchor="middle" x="704.75" y="-62.5" font-family="Helvetica,sans-Serif" font-size="10.00">ElementRenderer.h</text>
</a>
</g>
</g>
<!-- Node1&#45;&gt;Node2 -->
<g id="edge1_Node000001_Node000002" class="edge">
<title>Node1&#45;&gt;Node2</title>
<g id="a_edge1_Node000001_Node000002"><a xlink:title=" ">
<path fill="none" stroke="#63b8ff" d="M678.78,-167.59C671.46,-154.8 660.83,-131.33 667.75,-112 671.43,-101.73 678.57,-92.13 685.61,-84.46"/>
<polygon fill="#63b8ff" stroke="#63b8ff" points="687.97,-87.04 692.54,-77.48 683.01,-82.11 687.97,-87.04"/>
</a>
</g>
</g>
<!-- Node6 -->
<g id="Node000006" class="node">
<title>Node6</title>
<g id="a_Node000006"><a xlink:href="_entity_renderer_8h.html" target="_top" xlink:title=" ">
<polygon fill="white" stroke="#666666" points="766.5,-132 677,-132 677,-112 766.5,-112 766.5,-132"/>
<text xml:space="preserve" text-anchor="middle" x="721.75" y="-118.5" font-family="Helvetica,sans-Serif" font-size="10.00">EntityRenderer.h</text>
</a>
</g>
</g>
<!-- Node1&#45;&gt;Node6 -->
<g id="edge5_Node000001_Node000006" class="edge">
<title>Node1&#45;&gt;Node6</title>
<g id="a_edge5_Node000001_Node000006"><a xlink:title=" ">
<path fill="none" stroke="#63b8ff" d="M691.19,-167.59C696.08,-160.47 702.94,-150.45 708.93,-141.72"/>
<polygon fill="#63b8ff" stroke="#63b8ff" points="711.76,-143.77 714.52,-133.55 705.98,-139.82 711.76,-143.77"/>
</a>
</g>
</g>
<!-- Node10 -->
<g id="Node000010" class="node">
<title>Node10</title>
<g id="a_Node000010"><a xlink:href="_attribute_renderer_8h.html" target="_top" xlink:title=" ">
<polygon fill="white" stroke="#666666" points="885.12,-132 784.38,-132 784.38,-112 885.12,-112 885.12,-132"/>
<text xml:space="preserve" text-anchor="middle" x="834.75" y="-118.5" font-family="Helvetica,sans-Serif" font-size="10.00">AttributeRenderer.h</text>
</a>
</g>
</g>
<!-- Node1&#45;&gt;Node10 -->
<g id="edge10_Node000001_Node000010" class="edge">
<title>Node1&#45;&gt;Node10</title>
<g id="a_edge10_Node000001_Node000010"><a xlink:title=" ">
<path fill="none" stroke="#63b8ff" d="M710.88,-167.59C734.93,-158.94 770.85,-146 797.83,-136.29"/>
<polygon fill="#63b8ff" stroke="#63b8ff" points="798.77,-139.67 806.99,-132.99 796.4,-133.09 798.77,-139.67"/>
</a>
</g>
</g>
<!-- Node11 -->
<g id="Node000011" class="node">
<title>Node11</title>
<g id="a_Node000011"><a xlink:href="_relationship_renderer_8h.html" target="_top" xlink:title=" ">
<polygon fill="white" stroke="#666666" points="1020.75,-132 902.75,-132 902.75,-112 1020.75,-112 1020.75,-132"/>
<text xml:space="preserve" text-anchor="middle" x="961.75" y="-118.5" font-family="Helvetica,sans-Serif" font-size="10.00">RelationshipRenderer.h</text>
</a>
</g>
</g>
<!-- Node1&#45;&gt;Node11 -->
<g id="edge15_Node000001_Node000011" class="edge">
<title>Node1&#45;&gt;Node11</title>
<g id="a_edge15_Node000001_Node000011"><a xlink:title=" ">
<path fill="none" stroke="#63b8ff" d="M733.32,-167.53C780.34,-158.36 851.74,-144.45 902.17,-134.61"/>
<polygon fill="#63b8ff" stroke="#63b8ff" points="902.61,-138.1 911.75,-132.75 901.27,-131.22 902.61,-138.1"/>
</a>
</g>
</g>
<!-- Node12 -->
<g id="Node000012" class="node">
<title>Node12</title>
<g id="a_Node000012"><a xlink:href="_basic_element_8h.html" target="_top" xlink:title=" ">
<polygon fill="white" stroke="#666666" points="461.88,-132 347.62,-132 347.62,-112 461.88,-112 461.88,-132"/>
<text xml:space="preserve" text-anchor="middle" x="404.75" y="-118.5" font-family="Helvetica,sans-Serif" font-size="10.00">model/BasicElement.h</text>
</a>
</g>
</g>
<!-- Node1&#45;&gt;Node12 -->
<g id="edge20_Node000001_Node000012" class="edge">
<title>Node1&#45;&gt;Node12</title>
<g id="a_edge20_Node000001_Node000012"><a xlink:title=" ">
<path fill="none" stroke="#63b8ff" d="M635.66,-167.53C588.12,-158.36 515.95,-144.45 464.97,-134.61"/>
<polygon fill="#63b8ff" stroke="#63b8ff" points="465.75,-131.2 455.27,-132.74 464.43,-138.07 465.75,-131.2"/>
</a>
</g>
</g>
<!-- Node19 -->
<g id="Node000019" class="node">
<title>Node19</title>
<g id="a_Node000019"><a xlink:title=" ">
<polygon fill="#e0e0e0" stroke="#999999" points="636.38,-76 585.12,-76 585.12,-56 636.38,-56 636.38,-76"/>
<text xml:space="preserve" text-anchor="middle" x="610.75" y="-62.5" font-family="Helvetica,sans-Serif" font-size="10.00">memory</text>
</a>
</g>
</g>
<!-- Node1&#45;&gt;Node19 -->
<g id="edge35_Node000001_Node000019" class="edge">
<title>Node1&#45;&gt;Node19</title>
<g id="a_edge35_Node000001_Node000019"><a xlink:title=" ">
<path fill="none" stroke="#63b8ff" d="M678.44,-167.62C666.26,-149.52 639.31,-109.45 623.33,-85.7"/>
<polygon fill="#63b8ff" stroke="#63b8ff" points="626.37,-83.95 617.89,-77.61 620.57,-87.86 626.37,-83.95"/>
</a>
</g>
</g>
<!-- Node3 -->
<g id="Node000003" class="node">
<title>Node3</title>
<g id="a_Node000003"><a xlink:title=" ">
<polygon fill="#e0e0e0" stroke="#999999" points="763.12,-20 680.38,-20 680.38,0 763.12,0 763.12,-20"/>
<text xml:space="preserve" text-anchor="middle" x="721.75" y="-6.5" font-family="Helvetica,sans-Serif" font-size="10.00">QtGui/QPainter</text>
</a>
</g>
</g>
<!-- Node2&#45;&gt;Node3 -->
<g id="edge2_Node000002_Node000003" class="edge">
<title>Node2&#45;&gt;Node3</title>
<g id="a_edge2_Node000002_Node000003"><a xlink:title=" ">
<path fill="none" stroke="#63b8ff" d="M707.71,-55.59C709.83,-48.86 712.77,-39.53 715.41,-31.15"/>
<polygon fill="#63b8ff" stroke="#63b8ff" points="718.7,-32.33 718.37,-21.74 712.03,-30.23 718.7,-32.33"/>
</a>
</g>
</g>
<!-- Node4 -->
<g id="Node000004" class="node">
<title>Node4</title>
<g id="a_Node000004"><a xlink:title=" ">
<polygon fill="#e0e0e0" stroke="#999999" points="662.25,-20 577.25,-20 577.25,0 662.25,0 662.25,-20"/>
<text xml:space="preserve" text-anchor="middle" x="619.75" y="-6.5" font-family="Helvetica,sans-Serif" font-size="10.00">QtCore/QRectF</text>
</a>
</g>
</g>
<!-- Node2&#45;&gt;Node4 -->
<g id="edge3_Node000002_Node000004" class="edge">
<title>Node2&#45;&gt;Node4</title>
<g id="a_edge3_Node000002_Node000004"><a xlink:title=" ">
<path fill="none" stroke="#63b8ff" d="M689.94,-55.59C677.35,-47.59 659,-35.93 644.22,-26.54"/>
<polygon fill="#63b8ff" stroke="#63b8ff" points="646.27,-23.7 635.95,-21.29 642.51,-29.61 646.27,-23.7"/>
</a>
</g>
</g>
<!-- Node5 -->
<g id="Node000005" class="node">
<title>Node5</title>
<g id="a_Node000005"><a xlink:title=" ">
<polygon fill="#e0e0e0" stroke="#999999" points="559,-20 472.5,-20 472.5,0 559,0 559,-20"/>
<text xml:space="preserve" text-anchor="middle" x="515.75" y="-6.5" font-family="Helvetica,sans-Serif" font-size="10.00">QtCore/QPointF</text>
</a>
</g>
</g>
<!-- Node2&#45;&gt;Node5 -->
<g id="edge4_Node000002_Node000005" class="edge">
<title>Node2&#45;&gt;Node5</title>
<g id="a_edge4_Node000002_Node000005"><a xlink:title=" ">
<path fill="none" stroke="#63b8ff" d="M671.83,-55.59C640.72,-46.71 593.83,-33.31 559.57,-23.52"/>
<polygon fill="#63b8ff" stroke="#63b8ff" points="560.96,-20.28 550.38,-20.9 559.04,-27.01 560.96,-20.28"/>
</a>
</g>
</g>
<!-- Node6&#45;&gt;Node2 -->
<g id="edge6_Node000006_Node000002" class="edge">
<title>Node6&#45;&gt;Node2</title>
<g id="a_edge6_Node000006_Node000002"><a xlink:title=" ">
<path fill="none" stroke="#63b8ff" d="M718.79,-111.59C716.67,-104.86 713.73,-95.53 711.09,-87.15"/>
<polygon fill="#63b8ff" stroke="#63b8ff" points="714.47,-86.23 708.13,-77.74 707.8,-88.33 714.47,-86.23"/>
</a>
</g>
</g>
<!-- Node7 -->
<g id="Node000007" class="node">
<title>Node7</title>
<g id="a_Node000007"><a xlink:title=" ">
<polygon fill="#e0e0e0" stroke="#999999" points="844.5,-76 773,-76 773,-56 844.5,-56 844.5,-76"/>
<text xml:space="preserve" text-anchor="middle" x="808.75" y="-62.5" font-family="Helvetica,sans-Serif" font-size="10.00">QtGui/QFont</text>
</a>
</g>
</g>
<!-- Node6&#45;&gt;Node7 -->
<g id="edge7_Node000006_Node000007" class="edge">
<title>Node6&#45;&gt;Node7</title>
<g id="a_edge7_Node000006_Node000007"><a xlink:title=" ">
<path fill="none" stroke="#63b8ff" d="M736.9,-111.59C749.8,-103.59 768.58,-91.93 783.71,-82.54"/>
<polygon fill="#63b8ff" stroke="#63b8ff" points="785.54,-85.53 792.19,-77.28 781.85,-79.58 785.54,-85.53"/>
</a>
</g>
</g>
<!-- Node8 -->
<g id="Node000008" class="node">
<title>Node8</title>
<g id="a_Node000008"><a xlink:title=" ">
<polygon fill="#e0e0e0" stroke="#999999" points="940.5,-76 863,-76 863,-56 940.5,-56 940.5,-76"/>
<text xml:space="preserve" text-anchor="middle" x="901.75" y="-62.5" font-family="Helvetica,sans-Serif" font-size="10.00">QtGui/QBrush</text>
</a>
</g>
</g>
<!-- Node6&#45;&gt;Node8 -->
<g id="edge8_Node000006_Node000008" class="edge">
<title>Node6&#45;&gt;Node8</title>
<g id="a_edge8_Node000006_Node000008"><a xlink:title=" ">
<path fill="none" stroke="#63b8ff" d="M753.1,-111.59C782.48,-102.78 826.61,-89.54 859.16,-79.78"/>
<polygon fill="#63b8ff" stroke="#63b8ff" points="860.13,-83.14 868.7,-76.91 858.12,-76.44 860.13,-83.14"/>
</a>
</g>
</g>
<!-- Node9 -->
<g id="Node000009" class="node">
<title>Node9</title>
<g id="a_Node000009"><a xlink:title=" ">
<polygon fill="#e0e0e0" stroke="#999999" points="1027.38,-76 958.12,-76 958.12,-56 1027.38,-56 1027.38,-76"/>
<text xml:space="preserve" text-anchor="middle" x="992.75" y="-62.5" font-family="Helvetica,sans-Serif" font-size="10.00">QtGui/QPen</text>
</a>
</g>
</g>
<!-- Node6&#45;&gt;Node9 -->
<g id="edge9_Node000006_Node000009" class="edge">
<title>Node6&#45;&gt;Node9</title>
<g id="a_edge9_Node000006_Node000009"><a xlink:title=" ">
<path fill="none" stroke="#63b8ff" d="M766.77,-112.27C810.45,-103.77 878.9,-90.35 947.09,-76.53"/>
<polygon fill="#63b8ff" stroke="#63b8ff" points="947.44,-80.03 956.54,-74.61 946.04,-73.17 947.44,-80.03"/>
</a>
</g>
</g>
<!-- Node10&#45;&gt;Node2 -->
<g id="edge11_Node000010_Node000002" class="edge">
<title>Node10&#45;&gt;Node2</title>
<g id="a_edge11_Node000010_Node000002"><a xlink:title=" ">
<path fill="none" stroke="#63b8ff" d="M812.11,-111.59C791.63,-103.09 761.23,-90.46 738,-80.81"/>
<polygon fill="#63b8ff" stroke="#63b8ff" points="739.55,-77.66 728.97,-77.06 736.86,-84.13 739.55,-77.66"/>
</a>
</g>
</g>
<!-- Node10&#45;&gt;Node7 -->
<g id="edge12_Node000010_Node000007" class="edge">
<title>Node10&#45;&gt;Node7</title>
<g id="a_edge12_Node000010_Node000007"><a xlink:title=" ">
<path fill="none" stroke="#63b8ff" d="M830.22,-111.59C826.9,-104.7 822.28,-95.1 818.17,-86.57"/>
<polygon fill="#63b8ff" stroke="#63b8ff" points="821.38,-85.15 813.88,-77.66 815.07,-88.19 821.38,-85.15"/>
</a>
</g>
</g>
<!-- Node10&#45;&gt;Node8 -->
<g id="edge13_Node000010_Node000008" class="edge">
<title>Node10&#45;&gt;Node8</title>
<g id="a_edge13_Node000010_Node000008"><a xlink:title=" ">
<path fill="none" stroke="#63b8ff" d="M846.42,-111.59C856.03,-103.85 869.88,-92.69 881.32,-83.47"/>
<polygon fill="#63b8ff" stroke="#63b8ff" points="883.45,-86.25 889.03,-77.25 879.05,-80.8 883.45,-86.25"/>
</a>
</g>
</g>
<!-- Node10&#45;&gt;Node9 -->
<g id="edge14_Node000010_Node000009" class="edge">
<title>Node10&#45;&gt;Node9</title>
<g id="a_edge14_Node000010_Node000009"><a xlink:title=" ">
<path fill="none" stroke="#63b8ff" d="M862.27,-111.59C887.72,-102.9 925.78,-89.89 954.24,-80.16"/>
<polygon fill="#63b8ff" stroke="#63b8ff" points="955.25,-83.52 963.58,-76.97 952.99,-76.89 955.25,-83.52"/>
</a>
</g>
</g>
<!-- Node11&#45;&gt;Node2 -->
<g id="edge16_Node000011_Node000002" class="edge">
<title>Node11&#45;&gt;Node2</title>
<g id="a_edge16_Node000011_Node000002"><a xlink:title=" ">
<path fill="none" stroke="#63b8ff" d="M916.69,-111.53C873.33,-102.42 807.65,-88.62 760.91,-78.8"/>
<polygon fill="#63b8ff" stroke="#63b8ff" points="761.75,-75.4 751.24,-76.77 760.31,-82.25 761.75,-75.4"/>
</a>
</g>
</g>
<!-- Node11&#45;&gt;Node7 -->
<g id="edge17_Node000011_Node000007" class="edge">
<title>Node11&#45;&gt;Node7</title>
<g id="a_edge17_Node000011_Node000007"><a xlink:title=" ">
<path fill="none" stroke="#63b8ff" d="M935.1,-111.59C910.57,-102.94 873.92,-90 846.41,-80.29"/>
<polygon fill="#63b8ff" stroke="#63b8ff" points="847.63,-77.01 837.04,-76.98 845.3,-83.61 847.63,-77.01"/>
</a>
</g>
</g>
<!-- Node11&#45;&gt;Node8 -->
<g id="edge18_Node000011_Node000008" class="edge">
<title>Node11&#45;&gt;Node8</title>
<g id="a_edge18_Node000011_Node000008"><a xlink:title=" ">
<path fill="none" stroke="#63b8ff" d="M951.3,-111.59C942.78,-103.93 930.54,-92.91 920.36,-83.75"/>
<polygon fill="#63b8ff" stroke="#63b8ff" points="922.98,-81.4 913.21,-77.31 918.3,-86.6 922.98,-81.4"/>
</a>
</g>
</g>
<!-- Node11&#45;&gt;Node9 -->
<g id="edge19_Node000011_Node000009" class="edge">
<title>Node11&#45;&gt;Node9</title>
<g id="a_edge19_Node000011_Node000009"><a xlink:title=" ">
<path fill="none" stroke="#63b8ff" d="M967.15,-111.59C971.19,-104.55 976.87,-94.67 981.84,-86"/>
<polygon fill="#63b8ff" stroke="#63b8ff" points="984.72,-88.03 986.66,-77.61 978.64,-84.54 984.72,-88.03"/>
</a>
</g>
</g>
<!-- Node12&#45;&gt;Node4 -->
<g id="edge24_Node000012_Node000004" class="edge">
<title>Node12&#45;&gt;Node4</title>
<g id="a_edge24_Node000012_Node000004"><a xlink:title=" ">
<path fill="none" stroke="#63b8ff" d="M425.05,-111.61C444.18,-102.69 473.58,-88.78 498.75,-76 531.53,-59.36 568.72,-39.18 593.11,-25.77"/>
<polygon fill="#63b8ff" stroke="#63b8ff" points="594.65,-28.92 601.72,-21.02 591.27,-22.79 594.65,-28.92"/>
</a>
</g>
</g>
<!-- Node12&#45;&gt;Node5 -->
<g id="edge23_Node000012_Node000005" class="edge">
<title>Node12&#45;&gt;Node5</title>
<g id="a_edge23_Node000012_Node000005"><a xlink:title=" ">
<path fill="none" stroke="#63b8ff" d="M425.17,-111.56C440.66,-103.66 461.77,-91.25 476.75,-76 489.72,-62.8 500.21,-44.48 507.03,-30.66"/>
<polygon fill="#63b8ff" stroke="#63b8ff" points="510.16,-32.23 511.23,-21.69 503.82,-29.26 510.16,-32.23"/>
</a>
</g>
</g>
<!-- Node13 -->
<g id="Node000013" class="node">
<title>Node13</title>
<g id="a_Node000013"><a xlink:title=" ">
<polygon fill="#e0e0e0" stroke="#999999" points="131.38,-76 50.12,-76 50.12,-56 131.38,-56 131.38,-76"/>
<text xml:space="preserve" text-anchor="middle" x="90.75" y="-62.5" font-family="Helvetica,sans-Serif" font-size="10.00">QtCore/QHash</text>
</a>
</g>
</g>
<!-- Node12&#45;&gt;Node13 -->
<g id="edge21_Node000012_Node000013" class="edge">
<title>Node12&#45;&gt;Node13</title>
<g id="a_edge21_Node000012_Node000013"><a xlink:title=" ">
<path fill="none" stroke="#63b8ff" d="M347.59,-111.52C296.41,-102.98 219,-89.94 142.87,-76.54"/>
<polygon fill="#63b8ff" stroke="#63b8ff" points="143.6,-73.11 133.14,-74.82 142.38,-80 143.6,-73.11"/>
</a>
</g>
</g>
<!-- Node14 -->
<g id="Node000014" class="node">
<title>Node14</title>
<g id="a_Node000014"><a xlink:title=" ">
<polygon fill="#e0e0e0" stroke="#999999" points="450,-20 363.5,-20 363.5,0 450,0 450,-20"/>
<text xml:space="preserve" text-anchor="middle" x="406.75" y="-6.5" font-family="Helvetica,sans-Serif" font-size="10.00">QtCore/QObject</text>
</a>
</g>
</g>
<!-- Node12&#45;&gt;Node14 -->
<g id="edge22_Node000012_Node000014" class="edge">
<title>Node12&#45;&gt;Node14</title>
<g id="a_edge22_Node000012_Node000014"><a xlink:title=" ">
<path fill="none" stroke="#63b8ff" d="M424.23,-111.6C437.49,-104.02 454,-92 461.75,-76 471.08,-56.74 452.27,-38.48 434.16,-26.24"/>
<polygon fill="#63b8ff" stroke="#63b8ff" points="436.52,-23.59 426.19,-21.23 432.79,-29.52 436.52,-23.59"/>
</a>
</g>
</g>
<!-- Node15 -->
<g id="Node000015" class="node">
<title>Node15</title>
<g id="a_Node000015"><a xlink:title=" ">
<polygon fill="#e0e0e0" stroke="#999999" points="83.5,-20 0,-20 0,0 83.5,0 83.5,-20"/>
<text xml:space="preserve" text-anchor="middle" x="41.75" y="-6.5" font-family="Helvetica,sans-Serif" font-size="10.00">QtCore/QString</text>
</a>
</g>
</g>
<!-- Node12&#45;&gt;Node15 -->
<g id="edge25_Node000012_Node000015" class="edge">
<title>Node12&#45;&gt;Node15</title>
<g id="a_edge25_Node000012_Node000015"><a xlink:title=" ">
<path fill="none" stroke="#63b8ff" d="M347.28,-118.29C246.76,-112.96 47.65,-99.53 26.75,-76 15.6,-63.44 21.9,-44.25 29.45,-29.97"/>
<polygon fill="#63b8ff" stroke="#63b8ff" points="32.38,-31.9 34.44,-21.51 26.35,-28.35 32.38,-31.9"/>
</a>
</g>
</g>
<!-- Node16 -->
<g id="Node000016" class="node">
<title>Node16</title>
<g id="a_Node000016"><a xlink:title=" ">
<polygon fill="#e0e0e0" stroke="#999999" points="232.5,-76 149,-76 149,-56 232.5,-56 232.5,-76"/>
<text xml:space="preserve" text-anchor="middle" x="190.75" y="-62.5" font-family="Helvetica,sans-Serif" font-size="10.00">QtCore/QSizeF</text>
</a>
</g>
</g>
<!-- Node12&#45;&gt;Node16 -->
<g id="edge26_Node000012_Node000016" class="edge">
<title>Node12&#45;&gt;Node16</title>
<g id="a_edge26_Node000012_Node000016"><a xlink:title=" ">
<path fill="none" stroke="#63b8ff" d="M367.47,-111.59C331.94,-102.63 278.24,-89.08 239.36,-79.27"/>
<polygon fill="#63b8ff" stroke="#63b8ff" points="240.34,-75.9 229.78,-76.85 238.62,-82.69 240.34,-75.9"/>
</a>
</g>
</g>
<!-- Node17 -->
<g id="Node000017" class="node">
<title>Node17</title>
<g id="a_Node000017"><a xlink:title=" ">
<polygon fill="#e0e0e0" stroke="#999999" points="290.88,-20 212.62,-20 212.62,0 290.88,0 290.88,-20"/>
<text xml:space="preserve" text-anchor="middle" x="251.75" y="-6.5" font-family="Helvetica,sans-Serif" font-size="10.00">QtCore/QUuid</text>
</a>
</g>
</g>
<!-- Node12&#45;&gt;Node17 -->
<g id="edge27_Node000012_Node000017" class="edge">
<title>Node12&#45;&gt;Node17</title>
<g id="a_edge27_Node000012_Node000017"><a xlink:title=" ">
<path fill="none" stroke="#63b8ff" d="M347.48,-118.02C250.08,-112.36 60.7,-98.57 40.75,-76 -6.16,-22.94 124.56,-12.61 200.93,-10.97"/>
<polygon fill="#63b8ff" stroke="#63b8ff" points="200.78,-14.48 210.72,-10.81 200.66,-7.48 200.78,-14.48"/>
</a>
</g>
</g>
<!-- Node18 -->
<g id="Node000018" class="node">
<title>Node18</title>
<g id="a_Node000018"><a xlink:title=" ">
<polygon fill="#e0e0e0" stroke="#999999" points="338.75,-76 250.75,-76 250.75,-56 338.75,-56 338.75,-76"/>
<text xml:space="preserve" text-anchor="middle" x="294.75" y="-62.5" font-family="Helvetica,sans-Serif" font-size="10.00">QtCore/QVariant</text>
</a>
</g>
</g>
<!-- Node12&#45;&gt;Node18 -->
<g id="edge28_Node000012_Node000018" class="edge">
<title>Node12&#45;&gt;Node18</title>
<g id="a_edge28_Node000012_Node000018"><a xlink:title=" ">
<path fill="none" stroke="#63b8ff" d="M385.59,-111.59C368.66,-103.28 343.7,-91.03 324.23,-81.47"/>
<polygon fill="#63b8ff" stroke="#63b8ff" points="325.94,-78.41 315.42,-77.15 322.85,-84.7 325.94,-78.41"/>
</a>
</g>
</g>
<!-- Node12&#45;&gt;Node19 -->
<g id="edge29_Node000012_Node000019" class="edge">
<title>Node12&#45;&gt;Node19</title>
<g id="a_edge29_Node000012_Node000019"><a xlink:title=" ">
<path fill="none" stroke="#63b8ff" d="M440.63,-111.59C477.93,-101.82 536.02,-86.59 573.73,-76.7"/>
<polygon fill="#63b8ff" stroke="#63b8ff" points="574.48,-80.13 583.27,-74.2 572.71,-73.35 574.48,-80.13"/>
</a>
</g>
</g>
<!-- Node20 -->
<g id="Node000020" class="node">
<title>Node20</title>
<g id="a_Node000020"><a xlink:href="_connection_point_8h.html" target="_top" xlink:title=" ">
<polygon fill="white" stroke="#666666" points="452.88,-76 356.62,-76 356.62,-56 452.88,-56 452.88,-76"/>
<text xml:space="preserve" text-anchor="middle" x="404.75" y="-62.5" font-family="Helvetica,sans-Serif" font-size="10.00">ConnectionPoint.h</text>
</a>
</g>
</g>
<!-- Node12&#45;&gt;Node20 -->
<g id="edge30_Node000012_Node000020" class="edge">
<title>Node12&#45;&gt;Node20</title>
<g id="a_edge30_Node000012_Node000020"><a xlink:title=" ">
<path fill="none" stroke="#63b8ff" d="M404.75,-111.59C404.75,-105.01 404.75,-95.96 404.75,-87.73"/>
<polygon fill="#63b8ff" stroke="#63b8ff" points="408.25,-87.81 404.75,-77.81 401.25,-87.81 408.25,-87.81"/>
</a>
</g>
</g>
<!-- Node20&#45;&gt;Node5 -->
<g id="edge32_Node000020_Node000005" class="edge">
<title>Node20&#45;&gt;Node5</title>
<g id="a_edge32_Node000020_Node000005"><a xlink:title=" ">
<path fill="none" stroke="#63b8ff" d="M424.08,-55.59C441.17,-47.28 466.35,-35.03 486,-25.47"/>
<polygon fill="#63b8ff" stroke="#63b8ff" points="487.44,-28.66 494.9,-21.14 484.38,-22.37 487.44,-28.66"/>
</a>
</g>
</g>
<!-- Node20&#45;&gt;Node14 -->
<g id="edge31_Node000020_Node000014" class="edge">
<title>Node20&#45;&gt;Node14</title>
<g id="a_edge31_Node000020_Node000014"><a xlink:title=" ">
<path fill="none" stroke="#63b8ff" d="M405.1,-55.59C405.34,-49.01 405.68,-39.96 405.98,-31.73"/>
<polygon fill="#63b8ff" stroke="#63b8ff" points="409.48,-31.93 406.35,-21.81 402.48,-31.67 409.48,-31.93"/>
</a>
</g>
</g>
<!-- Node20&#45;&gt;Node15 -->
<g id="edge33_Node000020_Node000015" class="edge">
<title>Node20&#45;&gt;Node15</title>
<g id="a_edge33_Node000020_Node000015"><a xlink:title=" ">
<path fill="none" stroke="#63b8ff" d="M356.25,-57.31C353.37,-56.86 350.52,-56.42 347.75,-56 259.23,-42.5 156.2,-27.5 95.12,-18.67"/>
<polygon fill="#63b8ff" stroke="#63b8ff" points="95.74,-15.23 85.34,-17.26 94.74,-22.16 95.74,-15.23"/>
</a>
</g>
</g>
<!-- Node20&#45;&gt;Node17 -->
<g id="edge34_Node000020_Node000017" class="edge">
<title>Node20&#45;&gt;Node17</title>
<g id="a_edge34_Node000020_Node000017"><a xlink:title=" ">
<path fill="none" stroke="#63b8ff" d="M378.1,-55.59C353.57,-46.94 316.92,-34 289.41,-24.29"/>
<polygon fill="#63b8ff" stroke="#63b8ff" points="290.63,-21.01 280.04,-20.98 288.3,-27.61 290.63,-21.01"/>
</a>
</g>
</g>
</g>
</svg>
