<?xml version="1.0" encoding="UTF-8" standalone="no"?>
<!DOCTYPE svg PUBLIC "-//W3C//DTD SVG 1.1//EN"
 "http://www.w3.org/Graphics/SVG/1.1/DTD/svg11.dtd">
<!-- Generated by graphviz version 14.1.1 (20251213.1925)
 -->
<!-- Title: src/model/ElementFactory.h Pages: 1 -->
<svg width="798pt" height="196pt"
 viewBox="0.00 0.00 798.00 196.00" xmlns="http://www.w3.org/2000/svg" xmlns:xlink="http://www.w3.org/1999/xlink">
<g id="graph0" class="graph" transform="scale(1 1) rotate(0) translate(4 192)">
<title>src/model/ElementFactory.h</title>
<!-- Node1 -->
<g id="Node000001" class="node">
<title>Node1</title>
<g id="a_Node000001"><a xlink:title=" ">
<polygon fill="#999999" stroke="#666666" points="246.88,-188 108.62,-188 108.62,-168 246.88,-168 246.88,-188"/>
<text xml:space="preserve" text-anchor="middle" x="177.75" y="-174.5" font-family="Helvetica,sans-Serif" font-size="10.00">src/model/ElementFactory.h</text>
</a>
</g>
</g>
<!-- Node2 -->
<g id="Node000002" class="node">
<title>Node2</title>
<g id="a_Node000002"><a xlink:title=" ">
<polygon fill="#e0e0e0" stroke="#999999" points="83.5,-20 0,-20 0,0 83.5,0 83.5,-20"/>
<text xml:space="preserve" text-anchor="middle" x="41.75" y="-6.5" font-family="Helvetica,sans-Serif" font-size="10.00">QtCore/QString</text>
</a>
</g>
</g>
<!-- Node1&#45;&gt;Node2 -->
<g id="edge1_Node000001_Node000002" class="edge">
<title>Node1&#45;&gt;Node2</title>
<g id="a_edge1_Node000001_Node000002"><a xlink:title=" ">
<path fill="none" stroke="#63b8ff" d="M154.92,-167.53C123.38,-153.06 67.66,-122.18 43.75,-76 36.75,-62.48 36.57,-45.16 37.97,-31.8"/>
<polygon fill="#63b8ff" stroke="#63b8ff" points="41.42,-32.35 39.4,-21.95 34.5,-31.34 41.42,-32.35"/>
</a>
</g>
</g>
<!-- Node3 -->
<g id="Node000003" class="node">
<title>Node3</title>
<g id="a_Node000003"><a xlink:href="_basic_element_8h.html" target="_top" xlink:title=" ">
<polygon fill="white" stroke="#666666" points="409.88,-132 295.62,-132 295.62,-112 409.88,-112 409.88,-132"/>
<text xml:space="preserve" text-anchor="middle" x="352.75" y="-118.5" font-family="Helvetica,sans-Serif" font-size="10.00">model/BasicElement.h</text>
</a>
</g>
</g>
<!-- Node1&#45;&gt;Node3 -->
<g id="edge2_Node000001_Node000003" class="edge">
<title>Node1&#45;&gt;Node3</title>
<g id="a_edge2_Node000001_Node000003"><a xlink:title=" ">
<path fill="none" stroke="#63b8ff" d="M208.23,-167.59C236.79,-158.78 279.7,-145.54 311.35,-135.78"/>
<polygon fill="#63b8ff" stroke="#63b8ff" points="312.06,-139.22 320.58,-132.93 310,-132.53 312.06,-139.22"/>
</a>
</g>
</g>
<!-- Node3&#45;&gt;Node2 -->
<g id="edge7_Node000003_Node000002" class="edge">
<title>Node3&#45;&gt;Node2</title>
<g id="a_edge7_Node000003_Node000002"><a xlink:title=" ">
<path fill="none" stroke="#63b8ff" d="M295.29,-119.29C220.34,-115.89 94.74,-105.79 60.75,-76 48.17,-64.97 43.7,-46.12 42.22,-31.55"/>
<polygon fill="#63b8ff" stroke="#63b8ff" points="45.72,-31.44 41.64,-21.66 38.73,-31.85 45.72,-31.44"/>
</a>
</g>
</g>
<!-- Node4 -->
<g id="Node000004" class="node">
<title>Node4</title>
<g id="a_Node000004"><a xlink:title=" ">
<polygon fill="#e0e0e0" stroke="#999999" points="151.38,-76 70.12,-76 70.12,-56 151.38,-56 151.38,-76"/>
<text xml:space="preserve" text-anchor="middle" x="110.75" y="-62.5" font-family="Helvetica,sans-Serif" font-size="10.00">QtCore/QHash</text>
</a>
</g>
</g>
<!-- Node3&#45;&gt;Node4 -->
<g id="edge3_Node000003_Node000004" class="edge">
<title>Node3&#45;&gt;Node4</title>
<g id="a_edge3_Node000003_Node000004"><a xlink:title=" ">
<path fill="none" stroke="#63b8ff" d="M310.32,-111.53C269.17,-102.35 206.66,-88.4 162.58,-78.57"/>
<polygon fill="#63b8ff" stroke="#63b8ff" points="163.52,-75.19 152.99,-76.43 161.99,-82.02 163.52,-75.19"/>
</a>
</g>
</g>
<!-- Node5 -->
<g id="Node000005" class="node">
<title>Node5</title>
<g id="a_Node000005"><a xlink:title=" ">
<polygon fill="#e0e0e0" stroke="#999999" points="790,-20 703.5,-20 703.5,0 790,0 790,-20"/>
<text xml:space="preserve" text-anchor="middle" x="746.75" y="-6.5" font-family="Helvetica,sans-Serif" font-size="10.00">QtCore/QObject</text>
</a>
</g>
</g>
<!-- Node3&#45;&gt;Node5 -->
<g id="edge4_Node000003_Node000005" class="edge">
<title>Node3&#45;&gt;Node5</title>
<g id="a_edge4_Node000003_Node000005"><a xlink:title=" ">
<path fill="none" stroke="#63b8ff" d="M410.25,-119.9C498.45,-117.22 661.97,-107.94 709.75,-76 725.42,-65.52 735.22,-46.02 740.76,-31.1"/>
<polygon fill="#63b8ff" stroke="#63b8ff" points="744.02,-32.41 743.85,-21.82 737.37,-30.2 744.02,-32.41"/>
</a>
</g>
</g>
<!-- Node6 -->
<g id="Node000006" class="node">
<title>Node6</title>
<g id="a_Node000006"><a xlink:title=" ">
<polygon fill="#e0e0e0" stroke="#999999" points="401,-20 314.5,-20 314.5,0 401,0 401,-20"/>
<text xml:space="preserve" text-anchor="middle" x="357.75" y="-6.5" font-family="Helvetica,sans-Serif" font-size="10.00">QtCore/QPointF</text>
</a>
</g>
</g>
<!-- Node3&#45;&gt;Node6 -->
<g id="edge5_Node000003_Node000006" class="edge">
<title>Node3&#45;&gt;Node6</title>
<g id="a_edge5_Node000003_Node000006"><a xlink:title=" ">
<path fill="none" stroke="#63b8ff" d="M295.25,-116.44C240.45,-109.76 170.22,-93.73 198.75,-56 211.48,-39.16 262.12,-26.81 302.87,-19.36"/>
<polygon fill="#63b8ff" stroke="#63b8ff" points="303.34,-22.83 312.58,-17.64 302.12,-15.93 303.34,-22.83"/>
</a>
</g>
</g>
<!-- Node7 -->
<g id="Node000007" class="node">
<title>Node7</title>
<g id="a_Node000007"><a xlink:title=" ">
<polygon fill="#e0e0e0" stroke="#999999" points="293.25,-76 208.25,-76 208.25,-56 293.25,-56 293.25,-76"/>
<text xml:space="preserve" text-anchor="middle" x="250.75" y="-62.5" font-family="Helvetica,sans-Serif" font-size="10.00">QtCore/QRectF</text>
</a>
</g>
</g>
<!-- Node3&#45;&gt;Node7 -->
<g id="edge6_Node000003_Node000007" class="edge">
<title>Node3&#45;&gt;Node7</title>
<g id="a_edge6_Node000003_Node000007"><a xlink:title=" ">
<path fill="none" stroke="#63b8ff" d="M334.98,-111.59C319.43,-103.36 296.57,-91.26 278.59,-81.74"/>
<polygon fill="#63b8ff" stroke="#63b8ff" points="280.47,-78.77 269.99,-77.19 277.19,-84.96 280.47,-78.77"/>
</a>
</g>
</g>
<!-- Node8 -->
<g id="Node000008" class="node">
<title>Node8</title>
<g id="a_Node000008"><a xlink:title=" ">
<polygon fill="#e0e0e0" stroke="#999999" points="394.5,-76 311,-76 311,-56 394.5,-56 394.5,-76"/>
<text xml:space="preserve" text-anchor="middle" x="352.75" y="-62.5" font-family="Helvetica,sans-Serif" font-size="10.00">QtCore/QSizeF</text>
</a>
</g>
</g>
<!-- Node3&#45;&gt;Node8 -->
<g id="edge8_Node000003_Node000008" class="edge">
<title>Node3&#45;&gt;Node8</title>
<g id="a_edge8_Node000003_Node000008"><a xlink:title=" ">
<path fill="none" stroke="#63b8ff" d="M352.75,-111.59C352.75,-105.01 352.75,-95.96 352.75,-87.73"/>
<polygon fill="#63b8ff" stroke="#63b8ff" points="356.25,-87.81 352.75,-77.81 349.25,-87.81 356.25,-87.81"/>
</a>
</g>
</g>
<!-- Node9 -->
<g id="Node000009" class="node">
<title>Node9</title>
<g id="a_Node000009"><a xlink:title=" ">
<polygon fill="#e0e0e0" stroke="#999999" points="678.88,-20 600.62,-20 600.62,0 678.88,0 678.88,-20"/>
<text xml:space="preserve" text-anchor="middle" x="639.75" y="-6.5" font-family="Helvetica,sans-Serif" font-size="10.00">QtCore/QUuid</text>
</a>
</g>
</g>
<!-- Node3&#45;&gt;Node9 -->
<g id="edge9_Node000003_Node000009" class="edge">
<title>Node3&#45;&gt;Node9</title>
<g id="a_edge9_Node000003_Node000009"><a xlink:title=" ">
<path fill="none" stroke="#63b8ff" d="M410.07,-117.5C502.34,-111.29 675.37,-96.96 693.75,-76 708.38,-59.31 686.87,-39.66 666.82,-26.36"/>
<polygon fill="#63b8ff" stroke="#63b8ff" points="668.88,-23.52 658.54,-21.19 665.17,-29.46 668.88,-23.52"/>
</a>
</g>
</g>
<!-- Node10 -->
<g id="Node000010" class="node">
<title>Node10</title>
<g id="a_Node000010"><a xlink:title=" ">
<polygon fill="#e0e0e0" stroke="#999999" points="500.75,-76 412.75,-76 412.75,-56 500.75,-56 500.75,-76"/>
<text xml:space="preserve" text-anchor="middle" x="456.75" y="-62.5" font-family="Helvetica,sans-Serif" font-size="10.00">QtCore/QVariant</text>
</a>
</g>
</g>
<!-- Node3&#45;&gt;Node10 -->
<g id="edge10_Node000003_Node000010" class="edge">
<title>Node3&#45;&gt;Node10</title>
<g id="a_edge10_Node000003_Node000010"><a xlink:title=" ">
<path fill="none" stroke="#63b8ff" d="M370.87,-111.59C386.72,-103.36 410.03,-91.26 428.37,-81.74"/>
<polygon fill="#63b8ff" stroke="#63b8ff" points="429.89,-84.89 437.15,-77.18 426.66,-78.68 429.89,-84.89"/>
</a>
</g>
</g>
<!-- Node11 -->
<g id="Node000011" class="node">
<title>Node11</title>
<g id="a_Node000011"><a xlink:title=" ">
<polygon fill="#e0e0e0" stroke="#999999" points="570.38,-76 519.12,-76 519.12,-56 570.38,-56 570.38,-76"/>
<text xml:space="preserve" text-anchor="middle" x="544.75" y="-62.5" font-family="Helvetica,sans-Serif" font-size="10.00">memory</text>
</a>
</g>
</g>
<!-- Node3&#45;&gt;Node11 -->
<g id="edge11_Node000003_Node000011" class="edge">
<title>Node3&#45;&gt;Node11</title>
<g id="a_edge11_Node000003_Node000011"><a xlink:title=" ">
<path fill="none" stroke="#63b8ff" d="M386.19,-111.59C420.22,-102.02 472.82,-87.23 508,-77.34"/>
<polygon fill="#63b8ff" stroke="#63b8ff" points="508.63,-80.8 517.31,-74.72 506.73,-74.06 508.63,-80.8"/>
</a>
</g>
</g>
<!-- Node12 -->
<g id="Node000012" class="node">
<title>Node12</title>
<g id="a_Node000012"><a xlink:href="_connection_point_8h.html" target="_top" xlink:title=" ">
<polygon fill="white" stroke="#666666" points="684.88,-76 588.62,-76 588.62,-56 684.88,-56 684.88,-76"/>
<text xml:space="preserve" text-anchor="middle" x="636.75" y="-62.5" font-family="Helvetica,sans-Serif" font-size="10.00">ConnectionPoint.h</text>
</a>
</g>
</g>
<!-- Node3&#45;&gt;Node12 -->
<g id="edge12_Node000003_Node000012" class="edge">
<title>Node3&#45;&gt;Node12</title>
<g id="a_edge12_Node000003_Node000012"><a xlink:title=" ">
<path fill="none" stroke="#63b8ff" d="M402.54,-111.53C451.3,-102.26 525.62,-88.13 577.42,-78.28"/>
<polygon fill="#63b8ff" stroke="#63b8ff" points="577.78,-81.78 586.95,-76.47 576.47,-74.9 577.78,-81.78"/>
</a>
</g>
</g>
<!-- Node12&#45;&gt;Node2 -->
<g id="edge15_Node000012_Node000002" class="edge">
<title>Node12&#45;&gt;Node2</title>
<g id="a_edge15_Node000012_Node000002"><a xlink:title=" ">
<path fill="none" stroke="#63b8ff" d="M588.27,-57.1C585.39,-56.71 582.53,-56.34 579.75,-56 402.7,-34.65 191.64,-20.18 94.93,-14.15"/>
<polygon fill="#63b8ff" stroke="#63b8ff" points="95.42,-10.68 85.22,-13.55 94.99,-17.66 95.42,-10.68"/>
</a>
</g>
</g>
<!-- Node12&#45;&gt;Node5 -->
<g id="edge13_Node000012_Node000005" class="edge">
<title>Node12&#45;&gt;Node5</title>
<g id="a_edge13_Node000012_Node000005"><a xlink:title=" ">
<path fill="none" stroke="#63b8ff" d="M655.91,-55.59C672.84,-47.28 697.8,-35.03 717.27,-25.47"/>
<polygon fill="#63b8ff" stroke="#63b8ff" points="718.65,-28.7 726.08,-21.15 715.56,-22.41 718.65,-28.7"/>
</a>
</g>
</g>
<!-- Node12&#45;&gt;Node6 -->
<g id="edge14_Node000012_Node000006" class="edge">
<title>Node12&#45;&gt;Node6</title>
<g id="a_edge14_Node000012_Node000006"><a xlink:title=" ">
<path fill="none" stroke="#63b8ff" d="M588.15,-55.59C539.09,-46.1 463.47,-31.46 412.36,-21.57"/>
<polygon fill="#63b8ff" stroke="#63b8ff" points="413.18,-18.16 402.7,-19.7 411.85,-25.04 413.18,-18.16"/>
</a>
</g>
</g>
<!-- Node12&#45;&gt;Node9 -->
<g id="edge16_Node000012_Node000009" class="edge">
<title>Node12&#45;&gt;Node9</title>
<g id="a_edge16_Node000012_Node000009"><a xlink:title=" ">
<path fill="none" stroke="#63b8ff" d="M637.27,-55.59C637.64,-49.01 638.14,-39.96 638.6,-31.73"/>
<polygon fill="#63b8ff" stroke="#63b8ff" points="642.09,-31.99 639.15,-21.81 635.1,-31.6 642.09,-31.99"/>
</a>
</g>
</g>
</g>
</svg>
