<?xml version="1.0" encoding="UTF-8" standalone="no"?>
<!DOCTYPE svg PUBLIC "-//W3C//DTD SVG 1.1//EN"
 "http://www.w3.org/Graphics/SVG/1.1/DTD/svg11.dtd">
<!-- Generated by graphviz version 14.1.1 (20251213.1925)
 -->
<!-- Title: src/model/Entity.h Pages: 1 -->
<!--zoomable 252 -->

<svg id="main" version="1.1" xmlns="http://www.w3.org/2000/svg" xmlns:xlink="http://www.w3.org/1999/xlink" xml:space="preserve" onload="init(evt)">

<style type="text/css"><![CDATA[
.node, .edge {opacity: 0.7;}
.node.selected, .edge.selected {opacity: 1;}
.edge:hover path { stroke: red; }
.edge:hover polygon { stroke: red; fill: red; }
]]></style>

<defs>
  <circle id="rim" cx="0" cy="0" r="7"/>
  <circle id="rim2" cx="0" cy="0" r="3.5"/>
  <g id="zoomPlus">
    <use xlink:href="#rim" fill="#404040"><set attributeName="fill" to="#808080" begin="zoomplus.mouseover" end="zoomplus.mouseout"/></use>
    <path d="M-4,0h8M0,-4v8" fill="none" stroke="white" stroke-width="1.5" pointer-events="none"/>
  </g>
  <g id="zoomMin">
    <use xlink:href="#rim" fill="#404040"><set attributeName="fill" to="#808080" begin="zoomminus.mouseover" end="zoomminus.mouseout"/></use>
    <path d="M-4,0h8" fill="none" stroke="white" stroke-width="1.5" pointer-events="none"/>
  </g>
  <g id="arrowUp" transform="translate(30 24)">
    <use xlink:href="#rim"/>
    <path pointer-events="none" fill="none" stroke="white" stroke-width="1.5" d="M0,-3.0v7 M-2.5,-0.5L0,-3.0L2.5,-0.5"/>
  </g>
  <g id="arrowRight" transform="rotate(90) translate(36 -43)">
    <use xlink:href="#rim"/>
    <path pointer-events="none" fill="none" stroke="white" stroke-width="1.5" d="M0,-3.0v7 M-2.5,-0.5L0,-3.0L2.5,-0.5"/>
  </g>
  <g id="arrowDown" transform="rotate(180) translate(-30 -48)">
    <use xlink:href="#rim"/>
    <path pointer-events="none" fill="none" stroke="white" stroke-width="1.5" d="M0,-3.0v7 M-2.5,-0.5L0,-3.0L2.5,-0.5"/>
  </g>
  <g id="arrowLeft" transform="rotate(270) translate(-36 17)">
    <use xlink:href="#rim"/>
    <path pointer-events="none" fill="none" stroke="white" stroke-width="1.5" d="M0,-3.0v7 M-2.5,-0.5L0,-3.0L2.5,-0.5"/>
  </g>
  <g id="resetDef">
    <use xlink:href="#rim2" fill="#404040"><set attributeName="fill" to="#808080" begin="reset.mouseover" end="reset.mouseout"/></use>
  </g>
</defs>
<script type="application/ecmascript">
var viewWidth = 870;
var viewHeight = 252;
var sectionId = 'dynsection-0';
</script>
<script type="application/ecmascript" xlink:href="svg.min.js"/>
<svg id="graph" class="graph">
<g id="viewport">
<title>src/model/Entity.h</title>
<!-- Node1 -->
<g id="Node000001" class="node">
<title>Node1</title>
<g id="a_Node000001"><a xlink:title=" ">
<polygon fill="#999999" stroke="#666666" points="452.36,-244 357.61,-244 357.61,-224 452.36,-224 452.36,-244"/>
<text xml:space="preserve" text-anchor="middle" x="404.98" y="-230.5" font-family="Helvetica,sans-Serif" font-size="10.00">src/model/Entity.h</text>
</a>
</g>
</g>
<!-- Node2 -->
<g id="Node000002" class="node">
<title>Node2</title>
<g id="a_Node000002"><a xlink:href="_basic_element_8h.html" target="_top" xlink:title=" ">
<polygon fill="white" stroke="#666666" points="418.48,-132 333.48,-132 333.48,-112 418.48,-112 418.48,-132"/>
<text xml:space="preserve" text-anchor="middle" x="375.98" y="-118.5" font-family="Helvetica,sans-Serif" font-size="10.00">BasicElement.h</text>
</a>
</g>
</g>
<!-- Node1&#45;&gt;Node2 -->
<g id="edge1_Node000001_Node000002" class="edge">
<title>Node1&#45;&gt;Node2</title>
<g id="a_edge1_Node000001_Node000002"><a xlink:title=" ">
<path fill="none" stroke="#63b8ff" d="M402.51,-223.62C397.85,-205.92 387.65,-167.24 381.34,-143.32"/>
<polygon fill="#63b8ff" stroke="#63b8ff" points="384.77,-142.6 378.84,-133.82 378,-144.38 384.77,-142.6"/>
</a>
</g>
</g>
<!-- Node13 -->
<g id="Node000013" class="node">
<title>Node13</title>
<g id="a_Node000013"><a xlink:href="_attribute_8h.html" target="_top" xlink:title=" ">
<polygon fill="white" stroke="#666666" points="465.48,-188 404.48,-188 404.48,-168 465.48,-168 465.48,-188"/>
<text xml:space="preserve" text-anchor="middle" x="434.98" y="-174.5" font-family="Helvetica,sans-Serif" font-size="10.00">Attribute.h</text>
</a>
</g>
</g>
<!-- Node1&#45;&gt;Node13 -->
<g id="edge16_Node000001_Node000013" class="edge">
<title>Node1&#45;&gt;Node13</title>
<g id="a_edge16_Node000001_Node000013"><a xlink:title=" ">
<path fill="none" stroke="#63b8ff" d="M410.21,-223.59C414.08,-216.63 419.49,-206.89 424.27,-198.29"/>
<polygon fill="#63b8ff" stroke="#63b8ff" points="427.29,-200.06 429.08,-189.62 421.17,-196.66 427.29,-200.06"/>
</a>
</g>
</g>
<!-- Node3 -->
<g id="Node000003" class="node">
<title>Node3</title>
<g id="a_Node000003"><a xlink:title=" ">
<polygon fill="#e0e0e0" stroke="#999999" points="271.61,-76 190.36,-76 190.36,-56 271.61,-56 271.61,-76"/>
<text xml:space="preserve" text-anchor="middle" x="230.98" y="-62.5" font-family="Helvetica,sans-Serif" font-size="10.00">QtCore/QHash</text>
</a>
</g>
</g>
<!-- Node2&#45;&gt;Node3 -->
<g id="edge2_Node000002_Node000003" class="edge">
<title>Node2&#45;&gt;Node3</title>
<g id="a_edge2_Node000002_Node000003"><a xlink:title=" ">
<path fill="none" stroke="#63b8ff" d="M350.73,-111.59C327.58,-102.97 293.06,-90.12 267.02,-80.42"/>
<polygon fill="#63b8ff" stroke="#63b8ff" points="268.45,-77.22 257.86,-77.01 266.01,-83.78 268.45,-77.22"/>
</a>
</g>
</g>
<!-- Node4 -->
<g id="Node000004" class="node">
<title>Node4</title>
<g id="a_Node000004"><a xlink:title=" ">
<polygon fill="#e0e0e0" stroke="#999999" points="147.23,-20 60.73,-20 60.73,0 147.23,0 147.23,-20"/>
<text xml:space="preserve" text-anchor="middle" x="103.98" y="-6.5" font-family="Helvetica,sans-Serif" font-size="10.00">QtCore/QObject</text>
</a>
</g>
</g>
<!-- Node2&#45;&gt;Node4 -->
<g id="edge3_Node000002_Node000004" class="edge">
<title>Node2&#45;&gt;Node4</title>
<g id="a_edge3_Node000002_Node000004"><a xlink:title=" ">
<path fill="none" stroke="#63b8ff" d="M333,-118.92C240.13,-113.99 27.38,-100.16 5.98,-76 -14.05,-53.38 21.83,-35.19 55.67,-23.87"/>
<polygon fill="#63b8ff" stroke="#63b8ff" points="56.59,-27.25 65.07,-20.9 54.48,-20.58 56.59,-27.25"/>
</a>
</g>
</g>
<!-- Node5 -->
<g id="Node000005" class="node">
<title>Node5</title>
<g id="a_Node000005"><a xlink:title=" ">
<polygon fill="#e0e0e0" stroke="#999999" points="356.23,-20 269.73,-20 269.73,0 356.23,0 356.23,-20"/>
<text xml:space="preserve" text-anchor="middle" x="312.98" y="-6.5" font-family="Helvetica,sans-Serif" font-size="10.00">QtCore/QPointF</text>
</a>
</g>
</g>
<!-- Node2&#45;&gt;Node5 -->
<g id="edge4_Node000002_Node000005" class="edge">
<title>Node2&#45;&gt;Node5</title>
<g id="a_edge4_Node000002_Node000005"><a xlink:title=" ">
<path fill="none" stroke="#63b8ff" d="M357.22,-111.54C344.13,-103.86 327.53,-91.74 318.98,-76 311.69,-62.56 310.42,-45.24 310.85,-31.86"/>
<polygon fill="#63b8ff" stroke="#63b8ff" points="314.33,-32.22 311.53,-22 307.35,-31.73 314.33,-32.22"/>
</a>
</g>
</g>
<!-- Node6 -->
<g id="Node000006" class="node">
<title>Node6</title>
<g id="a_Node000006"><a xlink:title=" ">
<polygon fill="#e0e0e0" stroke="#999999" points="565.48,-76 480.48,-76 480.48,-56 565.48,-56 565.48,-76"/>
<text xml:space="preserve" text-anchor="middle" x="522.98" y="-62.5" font-family="Helvetica,sans-Serif" font-size="10.00">QtCore/QRectF</text>
</a>
</g>
</g>
<!-- Node2&#45;&gt;Node6 -->
<g id="edge5_Node000002_Node000006" class="edge">
<title>Node2&#45;&gt;Node6</title>
<g id="a_edge5_Node000002_Node000006"><a xlink:title=" ">
<path fill="none" stroke="#63b8ff" d="M401.59,-111.59C425.05,-102.97 460.05,-90.12 486.45,-80.42"/>
<polygon fill="#63b8ff" stroke="#63b8ff" points="487.58,-83.73 495.76,-77 485.16,-77.16 487.58,-83.73"/>
</a>
</g>
</g>
<!-- Node7 -->
<g id="Node000007" class="node">
<title>Node7</title>
<g id="a_Node000007"><a xlink:title=" ">
<polygon fill="#e0e0e0" stroke="#999999" points="635.73,-20 552.23,-20 552.23,0 635.73,0 635.73,-20"/>
<text xml:space="preserve" text-anchor="middle" x="593.98" y="-6.5" font-family="Helvetica,sans-Serif" font-size="10.00">QtCore/QString</text>
</a>
</g>
</g>
<!-- Node2&#45;&gt;Node7 -->
<g id="edge6_Node000002_Node000007" class="edge">
<title>Node2&#45;&gt;Node7</title>
<g id="a_edge6_Node000002_Node000007"><a xlink:title=" ">
<path fill="none" stroke="#63b8ff" d="M418.58,-116.44C470.11,-110.08 552.72,-96.92 574.98,-76 587.04,-64.67 591.59,-46.14 593.23,-31.76"/>
<polygon fill="#63b8ff" stroke="#63b8ff" points="596.71,-32.22 593.94,-21.99 589.73,-31.71 596.71,-32.22"/>
</a>
</g>
</g>
<!-- Node8 -->
<g id="Node000008" class="node">
<title>Node8</title>
<g id="a_Node000008"><a xlink:title=" ">
<polygon fill="#e0e0e0" stroke="#999999" points="705.73,-76 622.23,-76 622.23,-56 705.73,-56 705.73,-76"/>
<text xml:space="preserve" text-anchor="middle" x="663.98" y="-62.5" font-family="Helvetica,sans-Serif" font-size="10.00">QtCore/QSizeF</text>
</a>
</g>
</g>
<!-- Node2&#45;&gt;Node8 -->
<g id="edge7_Node000002_Node000008" class="edge">
<title>Node2&#45;&gt;Node8</title>
<g id="a_edge7_Node000002_Node000008"><a xlink:title=" ">
<path fill="none" stroke="#63b8ff" d="M418.79,-112.97C469.95,-103.38 555.57,-87.33 610.9,-76.95"/>
<polygon fill="#63b8ff" stroke="#63b8ff" points="611.21,-80.46 620.39,-75.17 609.92,-73.58 611.21,-80.46"/>
</a>
</g>
</g>
<!-- Node9 -->
<g id="Node000009" class="node">
<title>Node9</title>
<g id="a_Node000009"><a xlink:title=" ">
<polygon fill="#e0e0e0" stroke="#999999" points="465.11,-20 386.86,-20 386.86,0 465.11,0 465.11,-20"/>
<text xml:space="preserve" text-anchor="middle" x="425.98" y="-6.5" font-family="Helvetica,sans-Serif" font-size="10.00">QtCore/QUuid</text>
</a>
</g>
</g>
<!-- Node2&#45;&gt;Node9 -->
<g id="edge8_Node000002_Node000009" class="edge">
<title>Node2&#45;&gt;Node9</title>
<g id="a_edge8_Node000002_Node000009"><a xlink:title=" ">
<path fill="none" stroke="#63b8ff" d="M395.46,-111.6C408.73,-104.02 425.23,-92 432.98,-76 439.73,-62.08 437.31,-44.56 433.57,-31.22"/>
<polygon fill="#63b8ff" stroke="#63b8ff" points="436.92,-30.2 430.47,-21.8 430.27,-32.39 436.92,-30.2"/>
</a>
</g>
</g>
<!-- Node10 -->
<g id="Node000010" class="node">
<title>Node10</title>
<g id="a_Node000010"><a xlink:title=" ">
<polygon fill="#e0e0e0" stroke="#999999" points="102.98,-76 14.98,-76 14.98,-56 102.98,-56 102.98,-76"/>
<text xml:space="preserve" text-anchor="middle" x="58.98" y="-62.5" font-family="Helvetica,sans-Serif" font-size="10.00">QtCore/QVariant</text>
</a>
</g>
</g>
<!-- Node2&#45;&gt;Node10 -->
<g id="edge9_Node000002_Node000010" class="edge">
<title>Node2&#45;&gt;Node10</title>
<g id="a_edge9_Node000002_Node000010"><a xlink:title=" ">
<path fill="none" stroke="#63b8ff" d="M333.23,-113.72C276.67,-104.08 176.88,-87.08 114.54,-76.46"/>
<polygon fill="#63b8ff" stroke="#63b8ff" points="115.29,-73.04 104.84,-74.81 114.11,-79.94 115.29,-73.04"/>
</a>
</g>
</g>
<!-- Node11 -->
<g id="Node000011" class="node">
<title>Node11</title>
<g id="a_Node000011"><a xlink:title=" ">
<polygon fill="#e0e0e0" stroke="#999999" points="172.61,-76 121.36,-76 121.36,-56 172.61,-56 172.61,-76"/>
<text xml:space="preserve" text-anchor="middle" x="146.98" y="-62.5" font-family="Helvetica,sans-Serif" font-size="10.00">memory</text>
</a>
</g>
</g>
<!-- Node2&#45;&gt;Node11 -->
<g id="edge10_Node000002_Node000011" class="edge">
<title>Node2&#45;&gt;Node11</title>
<g id="a_edge10_Node000002_Node000011"><a xlink:title=" ">
<path fill="none" stroke="#63b8ff" d="M333.29,-111.56C296.11,-103.25 240.5,-90.6 183.9,-76.67"/>
<polygon fill="#63b8ff" stroke="#63b8ff" points="184.97,-73.33 174.42,-74.33 183.29,-80.13 184.97,-73.33"/>
</a>
</g>
</g>
<!-- Node12 -->
<g id="Node000012" class="node">
<title>Node12</title>
<g id="a_Node000012"><a xlink:href="_connection_point_8h.html" target="_top" xlink:title=" ">
<polygon fill="white" stroke="#666666" points="424.11,-76 327.86,-76 327.86,-56 424.11,-56 424.11,-76"/>
<text xml:space="preserve" text-anchor="middle" x="375.98" y="-62.5" font-family="Helvetica,sans-Serif" font-size="10.00">ConnectionPoint.h</text>
</a>
</g>
</g>
<!-- Node2&#45;&gt;Node12 -->
<g id="edge11_Node000002_Node000012" class="edge">
<title>Node2&#45;&gt;Node12</title>
<g id="a_edge11_Node000002_Node000012"><a xlink:title=" ">
<path fill="none" stroke="#63b8ff" d="M375.98,-111.59C375.98,-105.01 375.98,-95.96 375.98,-87.73"/>
<polygon fill="#63b8ff" stroke="#63b8ff" points="379.48,-87.81 375.98,-77.81 372.48,-87.81 379.48,-87.81"/>
</a>
</g>
</g>
<!-- Node12&#45;&gt;Node4 -->
<g id="edge12_Node000012_Node000004" class="edge">
<title>Node12&#45;&gt;Node4</title>
<g id="a_edge12_Node000012_Node000004"><a xlink:title=" ">
<path fill="none" stroke="#63b8ff" d="M328.29,-55.53C280.94,-46.13 208.43,-31.73 158.74,-21.87"/>
<polygon fill="#63b8ff" stroke="#63b8ff" points="159.55,-18.46 149.06,-19.95 158.18,-25.33 159.55,-18.46"/>
</a>
</g>
</g>
<!-- Node12&#45;&gt;Node5 -->
<g id="edge13_Node000012_Node000005" class="edge">
<title>Node12&#45;&gt;Node5</title>
<g id="a_edge13_Node000012_Node000005"><a xlink:title=" ">
<path fill="none" stroke="#63b8ff" d="M365.01,-55.59C356.07,-47.93 343.21,-36.91 332.52,-27.75"/>
<polygon fill="#63b8ff" stroke="#63b8ff" points="334.85,-25.13 324.98,-21.28 330.3,-30.45 334.85,-25.13"/>
</a>
</g>
</g>
<!-- Node12&#45;&gt;Node7 -->
<g id="edge14_Node000012_Node000007" class="edge">
<title>Node12&#45;&gt;Node7</title>
<g id="a_edge14_Node000012_Node000007"><a xlink:title=" ">
<path fill="none" stroke="#63b8ff" d="M414.21,-55.53C450.52,-46.54 505.29,-32.97 544.83,-23.18"/>
<polygon fill="#63b8ff" stroke="#63b8ff" points="545.47,-26.62 554.34,-20.82 543.79,-19.83 545.47,-26.62"/>
</a>
</g>
</g>
<!-- Node12&#45;&gt;Node9 -->
<g id="edge15_Node000012_Node000009" class="edge">
<title>Node12&#45;&gt;Node9</title>
<g id="a_edge15_Node000012_Node000009"><a xlink:title=" ">
<path fill="none" stroke="#63b8ff" d="M384.69,-55.59C391.58,-48.16 401.38,-37.58 409.7,-28.58"/>
<polygon fill="#63b8ff" stroke="#63b8ff" points="412.12,-31.12 416.35,-21.41 406.98,-26.37 412.12,-31.12"/>
</a>
</g>
</g>
<!-- Node13&#45;&gt;Node2 -->
<g id="edge17_Node000013_Node000002" class="edge">
<title>Node13&#45;&gt;Node2</title>
<g id="a_edge17_Node000013_Node000002"><a xlink:title=" ">
<path fill="none" stroke="#63b8ff" d="M424.71,-167.59C416.42,-160.01 404.54,-149.13 394.58,-140.02"/>
<polygon fill="#63b8ff" stroke="#63b8ff" points="397,-137.49 387.26,-133.32 392.27,-142.65 397,-137.49"/>
</a>
</g>
</g>
<!-- Node14 -->
<g id="Node000014" class="node">
<title>Node14</title>
<g id="a_Node000014"><a xlink:href="_attribute_type_8h.html" target="_top" xlink:title=" ">
<polygon fill="white" stroke="#666666" points="774.98,-132 692.98,-132 692.98,-112 774.98,-112 774.98,-132"/>
<text xml:space="preserve" text-anchor="middle" x="733.98" y="-118.5" font-family="Helvetica,sans-Serif" font-size="10.00">AttributeType.h</text>
</a>
</g>
</g>
<!-- Node13&#45;&gt;Node14 -->
<g id="edge18_Node000013_Node000014" class="edge">
<title>Node13&#45;&gt;Node14</title>
<g id="a_edge18_Node000013_Node000014"><a xlink:title=" ">
<path fill="none" stroke="#63b8ff" d="M465.86,-171.42C516.77,-162.23 618.93,-143.78 681.41,-132.5"/>
<polygon fill="#63b8ff" stroke="#63b8ff" points="681.88,-135.97 691.1,-130.75 680.64,-129.08 681.88,-135.97"/>
</a>
</g>
</g>
<!-- Node14&#45;&gt;Node7 -->
<g id="edge19_Node000014_Node000007" class="edge">
<title>Node14&#45;&gt;Node7</title>
<g id="a_edge19_Node000014_Node000007"><a xlink:title=" ">
<path fill="none" stroke="#63b8ff" d="M733.79,-111.77C733.02,-97.91 729.56,-71.66 714.98,-56 697.25,-36.95 670.72,-25.92 647.01,-19.56"/>
<polygon fill="#63b8ff" stroke="#63b8ff" points="648.02,-16.21 637.47,-17.24 646.36,-23.01 648.02,-16.21"/>
</a>
</g>
</g>
<!-- Node15 -->
<g id="Node000015" class="node">
<title>Node15</title>
<g id="a_Node000015"><a xlink:title=" ">
<polygon fill="#e0e0e0" stroke="#999999" points="861.61,-76 762.36,-76 762.36,-56 861.61,-56 861.61,-76"/>
<text xml:space="preserve" text-anchor="middle" x="811.98" y="-62.5" font-family="Helvetica,sans-Serif" font-size="10.00">QtCore/QStringList</text>
</a>
</g>
</g>
<!-- Node14&#45;&gt;Node15 -->
<g id="edge20_Node000014_Node000015" class="edge">
<title>Node14&#45;&gt;Node15</title>
<g id="a_edge20_Node000014_Node000015"><a xlink:title=" ">
<path fill="none" stroke="#63b8ff" d="M747.57,-111.59C759.02,-103.67 775.65,-92.16 789.14,-82.82"/>
<polygon fill="#63b8ff" stroke="#63b8ff" points="790.82,-85.91 797.05,-77.34 786.83,-80.16 790.82,-85.91"/>
</a>
</g>
</g>
</g>
</svg>

<g id="navigator" transform="translate(0 0)" fill="#404254">
  <rect fill="#f2f5e9" fill-opacity="0.5" stroke="#606060" stroke-width=".5" x="0" y="0" width="60" height="60"/>
  <use id="zoomplus" xlink:href="#zoomPlus" x="17" y="9" onmousedown="handleZoom(evt,'in')"/>
  <use id="zoomminus" xlink:href="#zoomMin" x="42" y="9" onmousedown="handleZoom(evt,'out')"/>
  <use id="reset" xlink:href="#resetDef" x="30" y="36" onmousedown="handleReset()"/>
   <use id="arrowup" xlink:href="#arrowUp" x="0" y="0" onmousedown="handlePan(0,-1)"/>
  <use id="arrowright" xlink:href="#arrowRight" x="0" y="0" onmousedown="handlePan(1,0)"/>
  <use id="arrowdown" xlink:href="#arrowDown" x="0" y="0" onmousedown="handlePan(0,1)"/>
  <use id="arrowleft" xlink:href="#arrowLeft" x="0" y="0" onmousedown="handlePan(-1,0)"/>
</g>
<svg viewBox="0 0 15 15" width="100%" height="30px" preserveAspectRatio="xMaxYMin meet">
 <g id="arrow_out" transform="scale(0.3 0.3)">
  <a xlink:href="_entity_8h__incl_org.svg" target="_base">
   <rect id="button" ry="5" rx="5" y="6" x="6" height="38" width="38"
        fill="#f2f5e9" fill-opacity="0.5" stroke="#606060" stroke-width="1.0"/>
   <path id="arrow"
     d="M 11.500037,31.436501 C 11.940474,20.09759 22.043105,11.32322 32.158766,21.979434 L 37.068811,17.246167 C 37.068811,17.246167 37.088388,32 37.088388,32 L 22.160133,31.978069 C 22.160133,31.978069 26.997745,27.140456 26.997745,27.140456 C 18.528582,18.264221 13.291696,25.230495 11.500037,31.436501 z"
     style="fill:#404040;"/>
  </a>
 </g>
</svg>

<style type='text/css'>
<![CDATA[
[data-mouse-over-selected='false'] { opacity: 0.7; }
[data-mouse-over-selected='true']  { opacity: 1.0; }
]]>
</style>
<script type="application/ecmascript"><![CDATA[
document.addEventListener('DOMContentLoaded', (event) => {
  highlightEdges();
  highlightAdjacentNodes();
});
]]></script>
</svg>
