<?xml version="1.0" encoding="UTF-8" standalone="no"?>
<!DOCTYPE svg PUBLIC "-//W3C//DTD SVG 1.1//EN"
 "http://www.w3.org/Graphics/SVG/1.1/DTD/svg11.dtd">
<!-- Generated by graphviz version 14.1.1 (20251213.1925)
 -->
<!-- Title: src/view/EntityRenderer.cpp Pages: 1 -->
<!--zoomable 308 -->

<svg id="main" version="1.1" xmlns="http://www.w3.org/2000/svg" xmlns:xlink="http://www.w3.org/1999/xlink" xml:space="preserve" onload="init(evt)">

<style type="text/css"><![CDATA[
.node, .edge {opacity: 0.7;}
.node.selected, .edge.selected {opacity: 1;}
.edge:hover path { stroke: red; }
.edge:hover polygon { stroke: red; fill: red; }
]]></style>

<defs>
  <circle id="rim" cx="0" cy="0" r="7"/>
  <circle id="rim2" cx="0" cy="0" r="3.5"/>
  <g id="zoomPlus">
    <use xlink:href="#rim" fill="#404040"><set attributeName="fill" to="#808080" begin="zoomplus.mouseover" end="zoomplus.mouseout"/></use>
    <path d="M-4,0h8M0,-4v8" fill="none" stroke="white" stroke-width="1.5" pointer-events="none"/>
  </g>
  <g id="zoomMin">
    <use xlink:href="#rim" fill="#404040"><set attributeName="fill" to="#808080" begin="zoomminus.mouseover" end="zoomminus.mouseout"/></use>
    <path d="M-4,0h8" fill="none" stroke="white" stroke-width="1.5" pointer-events="none"/>
  </g>
  <g id="arrowUp" transform="translate(30 24)">
    <use xlink:href="#rim"/>
    <path pointer-events="none" fill="none" stroke="white" stroke-width="1.5" d="M0,-3.0v7 M-2.5,-0.5L0,-3.0L2.5,-0.5"/>
  </g>
  <g id="arrowRight" transform="rotate(90) translate(36 -43)">
    <use xlink:href="#rim"/>
    <path pointer-events="none" fill="none" stroke="white" stroke-width="1.5" d="M0,-3.0v7 M-2.5,-0.5L0,-3.0L2.5,-0.5"/>
  </g>
  <g id="arrowDown" transform="rotate(180) translate(-30 -48)">
    <use xlink:href="#rim"/>
    <path pointer-events="none" fill="none" stroke="white" stroke-width="1.5" d="M0,-3.0v7 M-2.5,-0.5L0,-3.0L2.5,-0.5"/>
  </g>
  <g id="arrowLeft" transform="rotate(270) translate(-36 17)">
    <use xlink:href="#rim"/>
    <path pointer-events="none" fill="none" stroke="white" stroke-width="1.5" d="M0,-3.0v7 M-2.5,-0.5L0,-3.0L2.5,-0.5"/>
  </g>
  <g id="resetDef">
    <use xlink:href="#rim2" fill="#404040"><set attributeName="fill" to="#808080" begin="reset.mouseover" end="reset.mouseout"/></use>
  </g>
</defs>
<script type="application/ecmascript">
var viewWidth = 1077;
var viewHeight = 308;
var sectionId = 'dynsection-0';
</script>
<script type="application/ecmascript" xlink:href="svg.min.js"/>
<svg id="graph" class="graph">
<g id="viewport">
<title>src/view/EntityRenderer.cpp</title>
<!-- Node1 -->
<g id="Node000001" class="node">
<title>Node1</title>
<g id="a_Node000001"><a xlink:title=" ">
<polygon fill="#999999" stroke="#666666" points="527.5,-300 387.75,-300 387.75,-280 527.5,-280 527.5,-300"/>
<text xml:space="preserve" text-anchor="middle" x="457.62" y="-286.5" font-family="Helvetica,sans-Serif" font-size="10.00">src/view/EntityRenderer.cpp</text>
</a>
</g>
</g>
<!-- Node2 -->
<g id="Node000002" class="node">
<title>Node2</title>
<g id="a_Node000002"><a xlink:href="_entity_renderer_8h.html" target="_top" xlink:title=" ">
<polygon fill="white" stroke="#666666" points="271.38,-244 181.88,-244 181.88,-224 271.38,-224 271.38,-244"/>
<text xml:space="preserve" text-anchor="middle" x="226.62" y="-230.5" font-family="Helvetica,sans-Serif" font-size="10.00">EntityRenderer.h</text>
</a>
</g>
</g>
<!-- Node1&#45;&gt;Node2 -->
<g id="edge1_Node000001_Node000002" class="edge">
<title>Node1&#45;&gt;Node2</title>
<g id="a_edge1_Node000001_Node000002"><a xlink:title=" ">
<path fill="none" stroke="#63b8ff" d="M417.12,-279.53C378.48,-270.5 320.11,-256.85 278.17,-247.05"/>
<polygon fill="#63b8ff" stroke="#63b8ff" points="279.09,-243.67 268.55,-244.8 277.49,-250.49 279.09,-243.67"/>
</a>
</g>
</g>
<!-- Node4 -->
<g id="Node000004" class="node">
<title>Node4</title>
<g id="a_Node000004"><a xlink:title=" ">
<polygon fill="#e0e0e0" stroke="#999999" points="374,-132 291.25,-132 291.25,-112 374,-112 374,-132"/>
<text xml:space="preserve" text-anchor="middle" x="332.62" y="-118.5" font-family="Helvetica,sans-Serif" font-size="10.00">QtGui/QPainter</text>
</a>
</g>
</g>
<!-- Node1&#45;&gt;Node4 -->
<g id="edge32_Node000001_Node000004" class="edge">
<title>Node1&#45;&gt;Node4</title>
<g id="a_edge32_Node000001_Node000004"><a xlink:title=" ">
<path fill="none" stroke="#63b8ff" d="M450.21,-279.58C443.29,-270.63 432.83,-256.69 424.62,-244 403.56,-211.41 405.77,-198.39 381.62,-168 373.43,-157.69 362.82,-147.64 353.57,-139.66"/>
<polygon fill="#63b8ff" stroke="#63b8ff" points="355.99,-137.13 346.07,-133.41 351.51,-142.5 355.99,-137.13"/>
</a>
</g>
</g>
<!-- Node5 -->
<g id="Node000005" class="node">
<title>Node5</title>
<g id="a_Node000005"><a xlink:title=" ">
<polygon fill="#e0e0e0" stroke="#999999" points="269.12,-76 184.12,-76 184.12,-56 269.12,-56 269.12,-76"/>
<text xml:space="preserve" text-anchor="middle" x="226.62" y="-62.5" font-family="Helvetica,sans-Serif" font-size="10.00">QtCore/QRectF</text>
</a>
</g>
</g>
<!-- Node1&#45;&gt;Node5 -->
<g id="edge33_Node000001_Node000005" class="edge">
<title>Node1&#45;&gt;Node5</title>
<g id="a_edge33_Node000001_Node000005"><a xlink:title=" ">
<path fill="none" stroke="#63b8ff" d="M456.49,-279.69C452.41,-250.38 435.81,-159.16 382.62,-112 367.36,-98.47 319.51,-85.86 280.78,-77.45"/>
<polygon fill="#63b8ff" stroke="#63b8ff" points="281.61,-74.04 271.1,-75.4 280.16,-80.89 281.61,-74.04"/>
</a>
</g>
</g>
<!-- Node10 -->
<g id="Node000010" class="node">
<title>Node10</title>
<g id="a_Node000010"><a xlink:href="_basic_element_8h.html" target="_top" xlink:title=" ">
<polygon fill="white" stroke="#666666" points="616.75,-132 502.5,-132 502.5,-112 616.75,-112 616.75,-132"/>
<text xml:space="preserve" text-anchor="middle" x="559.62" y="-118.5" font-family="Helvetica,sans-Serif" font-size="10.00">model/BasicElement.h</text>
</a>
</g>
</g>
<!-- Node1&#45;&gt;Node10 -->
<g id="edge9_Node000001_Node000010" class="edge">
<title>Node1&#45;&gt;Node10</title>
<g id="a_edge9_Node000001_Node000010"><a xlink:title=" ">
<path fill="none" stroke="#63b8ff" d="M462.93,-279.68C470.19,-267 483.66,-243.65 495.62,-224 513.2,-195.14 534.29,-162.16 547.33,-141.95"/>
<polygon fill="#63b8ff" stroke="#63b8ff" points="550.2,-143.97 552.69,-133.67 544.32,-140.16 550.2,-143.97"/>
</a>
</g>
</g>
<!-- Node19 -->
<g id="Node000019" class="node">
<title>Node19</title>
<g id="a_Node000019"><a xlink:href="_entity_8h.html" target="_top" xlink:title=" ">
<polygon fill="white" stroke="#666666" points="582.75,-244 504.5,-244 504.5,-224 582.75,-224 582.75,-244"/>
<text xml:space="preserve" text-anchor="middle" x="543.62" y="-230.5" font-family="Helvetica,sans-Serif" font-size="10.00">model/Entity.h</text>
</a>
</g>
</g>
<!-- Node1&#45;&gt;Node19 -->
<g id="edge24_Node000001_Node000019" class="edge">
<title>Node1&#45;&gt;Node19</title>
<g id="a_edge24_Node000001_Node000019"><a xlink:title=" ">
<path fill="none" stroke="#63b8ff" d="M472.61,-279.59C485.35,-271.59 503.92,-259.93 518.87,-250.54"/>
<polygon fill="#63b8ff" stroke="#63b8ff" points="520.64,-253.57 527.25,-245.28 516.92,-247.64 520.64,-253.57"/>
</a>
</g>
</g>
<!-- Node23 -->
<g id="Node000023" class="node">
<title>Node23</title>
<g id="a_Node000023"><a xlink:title=" ">
<polygon fill="#e0e0e0" stroke="#999999" points="704.5,-244 600.75,-244 600.75,-224 704.5,-224 704.5,-244"/>
<text xml:space="preserve" text-anchor="middle" x="652.62" y="-230.5" font-family="Helvetica,sans-Serif" font-size="10.00">QtGui/QFontMetrics</text>
</a>
</g>
</g>
<!-- Node1&#45;&gt;Node23 -->
<g id="edge31_Node000001_Node000023" class="edge">
<title>Node1&#45;&gt;Node23</title>
<g id="a_edge31_Node000001_Node000023"><a xlink:title=" ">
<path fill="none" stroke="#63b8ff" d="M491.59,-279.59C523.69,-270.71 572.06,-257.31 607.41,-247.52"/>
<polygon fill="#63b8ff" stroke="#63b8ff" points="608.23,-250.93 616.93,-244.88 606.36,-244.18 608.23,-250.93"/>
</a>
</g>
</g>
<!-- Node3 -->
<g id="Node000003" class="node">
<title>Node3</title>
<g id="a_Node000003"><a xlink:href="_element_renderer_8h.html" target="_top" xlink:title=" ">
<polygon fill="white" stroke="#666666" points="276.62,-188 176.62,-188 176.62,-168 276.62,-168 276.62,-188"/>
<text xml:space="preserve" text-anchor="middle" x="226.62" y="-174.5" font-family="Helvetica,sans-Serif" font-size="10.00">ElementRenderer.h</text>
</a>
</g>
</g>
<!-- Node2&#45;&gt;Node3 -->
<g id="edge2_Node000002_Node000003" class="edge">
<title>Node2&#45;&gt;Node3</title>
<g id="a_edge2_Node000002_Node000003"><a xlink:title=" ">
<path fill="none" stroke="#63b8ff" d="M226.62,-223.59C226.62,-217.01 226.62,-207.96 226.62,-199.73"/>
<polygon fill="#63b8ff" stroke="#63b8ff" points="230.13,-199.81 226.63,-189.81 223.13,-199.81 230.13,-199.81"/>
</a>
</g>
</g>
<!-- Node7 -->
<g id="Node000007" class="node">
<title>Node7</title>
<g id="a_Node000007"><a xlink:title=" ">
<polygon fill="#e0e0e0" stroke="#999999" points="158.38,-188 86.88,-188 86.88,-168 158.38,-168 158.38,-188"/>
<text xml:space="preserve" text-anchor="middle" x="122.62" y="-174.5" font-family="Helvetica,sans-Serif" font-size="10.00">QtGui/QFont</text>
</a>
</g>
</g>
<!-- Node2&#45;&gt;Node7 -->
<g id="edge6_Node000002_Node000007" class="edge">
<title>Node2&#45;&gt;Node7</title>
<g id="a_edge6_Node000002_Node000007"><a xlink:title=" ">
<path fill="none" stroke="#63b8ff" d="M208.51,-223.59C192.65,-215.36 169.34,-203.26 151.01,-193.74"/>
<polygon fill="#63b8ff" stroke="#63b8ff" points="152.71,-190.68 142.23,-189.18 149.49,-196.89 152.71,-190.68"/>
</a>
</g>
</g>
<!-- Node8 -->
<g id="Node000008" class="node">
<title>Node8</title>
<g id="a_Node000008"><a xlink:title=" ">
<polygon fill="#e0e0e0" stroke="#999999" points="372.38,-188 294.88,-188 294.88,-168 372.38,-168 372.38,-188"/>
<text xml:space="preserve" text-anchor="middle" x="333.62" y="-174.5" font-family="Helvetica,sans-Serif" font-size="10.00">QtGui/QBrush</text>
</a>
</g>
</g>
<!-- Node2&#45;&gt;Node8 -->
<g id="edge7_Node000002_Node000008" class="edge">
<title>Node2&#45;&gt;Node8</title>
<g id="a_edge7_Node000002_Node000008"><a xlink:title=" ">
<path fill="none" stroke="#63b8ff" d="M245.26,-223.59C261.66,-215.32 285.78,-203.14 304.69,-193.6"/>
<polygon fill="#63b8ff" stroke="#63b8ff" points="306.14,-196.79 313.49,-189.16 302.99,-190.54 306.14,-196.79"/>
</a>
</g>
</g>
<!-- Node9 -->
<g id="Node000009" class="node">
<title>Node9</title>
<g id="a_Node000009"><a xlink:title=" ">
<polygon fill="#e0e0e0" stroke="#999999" points="69.25,-188 0,-188 0,-168 69.25,-168 69.25,-188"/>
<text xml:space="preserve" text-anchor="middle" x="34.62" y="-174.5" font-family="Helvetica,sans-Serif" font-size="10.00">QtGui/QPen</text>
</a>
</g>
</g>
<!-- Node2&#45;&gt;Node9 -->
<g id="edge8_Node000002_Node000009" class="edge">
<title>Node2&#45;&gt;Node9</title>
<g id="a_edge8_Node000002_Node000009"><a xlink:title=" ">
<path fill="none" stroke="#63b8ff" d="M193.18,-223.59C161.58,-214.71 113.95,-201.31 79.14,-191.52"/>
<polygon fill="#63b8ff" stroke="#63b8ff" points="80.36,-188.23 69.79,-188.89 78.47,-194.97 80.36,-188.23"/>
</a>
</g>
</g>
<!-- Node3&#45;&gt;Node4 -->
<g id="edge3_Node000003_Node000004" class="edge">
<title>Node3&#45;&gt;Node4</title>
<g id="a_edge3_Node000003_Node000004"><a xlink:title=" ">
<path fill="none" stroke="#63b8ff" d="M245.09,-167.59C261.33,-159.32 285.23,-147.14 303.96,-137.6"/>
<polygon fill="#63b8ff" stroke="#63b8ff" points="305.35,-140.82 312.67,-133.17 302.17,-134.59 305.35,-140.82"/>
</a>
</g>
</g>
<!-- Node3&#45;&gt;Node5 -->
<g id="edge4_Node000003_Node000005" class="edge">
<title>Node3&#45;&gt;Node5</title>
<g id="a_edge4_Node000003_Node000005"><a xlink:title=" ">
<path fill="none" stroke="#63b8ff" d="M226.62,-167.62C226.62,-150.01 226.62,-111.59 226.62,-87.65"/>
<polygon fill="#63b8ff" stroke="#63b8ff" points="230.13,-87.87 226.63,-77.87 223.13,-87.87 230.13,-87.87"/>
</a>
</g>
</g>
<!-- Node6 -->
<g id="Node000006" class="node">
<title>Node6</title>
<g id="a_Node000006"><a xlink:title=" ">
<polygon fill="#e0e0e0" stroke="#999999" points="340.88,-20 254.38,-20 254.38,0 340.88,0 340.88,-20"/>
<text xml:space="preserve" text-anchor="middle" x="297.62" y="-6.5" font-family="Helvetica,sans-Serif" font-size="10.00">QtCore/QPointF</text>
</a>
</g>
</g>
<!-- Node3&#45;&gt;Node6 -->
<g id="edge5_Node000003_Node000006" class="edge">
<title>Node3&#45;&gt;Node6</title>
<g id="a_edge5_Node000003_Node000006"><a xlink:title=" ">
<path fill="none" stroke="#63b8ff" d="M216.49,-167.54C194.9,-146.25 148.43,-93.48 174.62,-56 190.17,-33.76 217.95,-22.47 243.18,-16.77"/>
<polygon fill="#63b8ff" stroke="#63b8ff" points="243.56,-20.26 252.69,-14.87 242.19,-13.39 243.56,-20.26"/>
</a>
</g>
</g>
<!-- Node10&#45;&gt;Node5 -->
<g id="edge13_Node000010_Node000005" class="edge">
<title>Node10&#45;&gt;Node5</title>
<g id="a_edge13_Node000010_Node000005"><a xlink:title=" ">
<path fill="none" stroke="#63b8ff" d="M502,-111.66C439.83,-101.57 341.6,-85.64 280.8,-75.79"/>
<polygon fill="#63b8ff" stroke="#63b8ff" points="281.46,-72.35 271.03,-74.2 280.34,-79.26 281.46,-72.35"/>
</a>
</g>
</g>
<!-- Node10&#45;&gt;Node6 -->
<g id="edge12_Node000010_Node000006" class="edge">
<title>Node10&#45;&gt;Node6</title>
<g id="a_edge12_Node000010_Node000006"><a xlink:title=" ">
<path fill="none" stroke="#63b8ff" d="M502.14,-113.56C434.69,-104.34 330.27,-88.33 316.62,-76 304.21,-64.78 299.73,-45.95 298.19,-31.44"/>
<polygon fill="#63b8ff" stroke="#63b8ff" points="301.7,-31.36 297.57,-21.6 294.71,-31.8 301.7,-31.36"/>
</a>
</g>
</g>
<!-- Node11 -->
<g id="Node000011" class="node">
<title>Node11</title>
<g id="a_Node000011"><a xlink:title=" ">
<polygon fill="#e0e0e0" stroke="#999999" points="875.25,-76 794,-76 794,-56 875.25,-56 875.25,-76"/>
<text xml:space="preserve" text-anchor="middle" x="834.62" y="-62.5" font-family="Helvetica,sans-Serif" font-size="10.00">QtCore/QHash</text>
</a>
</g>
</g>
<!-- Node10&#45;&gt;Node11 -->
<g id="edge10_Node000010_Node000011" class="edge">
<title>Node10&#45;&gt;Node11</title>
<g id="a_edge10_Node000010_Node000011"><a xlink:title=" ">
<path fill="none" stroke="#63b8ff" d="M607.84,-111.53C656.72,-101.93 732.11,-87.13 782.38,-77.26"/>
<polygon fill="#63b8ff" stroke="#63b8ff" points="783.02,-80.7 792.16,-75.34 781.67,-73.83 783.02,-80.7"/>
</a>
</g>
</g>
<!-- Node12 -->
<g id="Node000012" class="node">
<title>Node12</title>
<g id="a_Node000012"><a xlink:title=" ">
<polygon fill="#e0e0e0" stroke="#999999" points="669.88,-20 583.38,-20 583.38,0 669.88,0 669.88,-20"/>
<text xml:space="preserve" text-anchor="middle" x="626.62" y="-6.5" font-family="Helvetica,sans-Serif" font-size="10.00">QtCore/QObject</text>
</a>
</g>
</g>
<!-- Node10&#45;&gt;Node12 -->
<g id="edge11_Node000010_Node000012" class="edge">
<title>Node10&#45;&gt;Node12</title>
<g id="a_edge11_Node000010_Node000012"><a xlink:title=" ">
<path fill="none" stroke="#63b8ff" d="M567.72,-111.76C575.23,-102.93 586.43,-89.09 594.62,-76 603.81,-61.32 612.37,-43.63 618.32,-30.42"/>
<polygon fill="#63b8ff" stroke="#63b8ff" points="621.41,-32.09 622.22,-21.53 615,-29.28 621.41,-32.09"/>
</a>
</g>
</g>
<!-- Node13 -->
<g id="Node000013" class="node">
<title>Node13</title>
<g id="a_Node000013"><a xlink:title=" ">
<polygon fill="#e0e0e0" stroke="#999999" points="945.38,-20 861.88,-20 861.88,0 945.38,0 945.38,-20"/>
<text xml:space="preserve" text-anchor="middle" x="903.62" y="-6.5" font-family="Helvetica,sans-Serif" font-size="10.00">QtCore/QString</text>
</a>
</g>
</g>
<!-- Node10&#45;&gt;Node13 -->
<g id="edge14_Node000010_Node000013" class="edge">
<title>Node10&#45;&gt;Node13</title>
<g id="a_edge14_Node000010_Node000013"><a xlink:title=" ">
<path fill="none" stroke="#63b8ff" d="M616.92,-120.35C699.29,-118.23 845.6,-109.68 884.62,-76 897.29,-65.07 901.75,-46.2 903.21,-31.6"/>
<polygon fill="#63b8ff" stroke="#63b8ff" points="906.7,-31.87 903.76,-21.69 899.71,-31.48 906.7,-31.87"/>
</a>
</g>
</g>
<!-- Node14 -->
<g id="Node000014" class="node">
<title>Node14</title>
<g id="a_Node000014"><a xlink:title=" ">
<polygon fill="#e0e0e0" stroke="#999999" points="409.38,-76 325.88,-76 325.88,-56 409.38,-56 409.38,-76"/>
<text xml:space="preserve" text-anchor="middle" x="367.62" y="-62.5" font-family="Helvetica,sans-Serif" font-size="10.00">QtCore/QSizeF</text>
</a>
</g>
</g>
<!-- Node10&#45;&gt;Node14 -->
<g id="edge15_Node000010_Node000014" class="edge">
<title>Node10&#45;&gt;Node14</title>
<g id="a_edge15_Node000010_Node000014"><a xlink:title=" ">
<path fill="none" stroke="#63b8ff" d="M526.18,-111.59C494.58,-102.71 446.95,-89.31 412.14,-79.52"/>
<polygon fill="#63b8ff" stroke="#63b8ff" points="413.36,-76.23 402.79,-76.89 411.47,-82.97 413.36,-76.23"/>
</a>
</g>
</g>
<!-- Node15 -->
<g id="Node000015" class="node">
<title>Node15</title>
<g id="a_Node000015"><a xlink:title=" ">
<polygon fill="#e0e0e0" stroke="#999999" points="778.75,-20 700.5,-20 700.5,0 778.75,0 778.75,-20"/>
<text xml:space="preserve" text-anchor="middle" x="739.62" y="-6.5" font-family="Helvetica,sans-Serif" font-size="10.00">QtCore/QUuid</text>
</a>
</g>
</g>
<!-- Node10&#45;&gt;Node15 -->
<g id="edge16_Node000010_Node000015" class="edge">
<title>Node10&#45;&gt;Node15</title>
<g id="a_edge16_Node000010_Node000015"><a xlink:title=" ">
<path fill="none" stroke="#63b8ff" d="M616.97,-114.94C665.85,-108.46 730.66,-96.26 746.62,-76 756.61,-63.32 753.35,-44.68 748.47,-30.6"/>
<polygon fill="#63b8ff" stroke="#63b8ff" points="751.78,-29.47 744.81,-21.49 745.29,-32.08 751.78,-29.47"/>
</a>
</g>
</g>
<!-- Node16 -->
<g id="Node000016" class="node">
<title>Node16</title>
<g id="a_Node000016"><a xlink:title=" ">
<polygon fill="#e0e0e0" stroke="#999999" points="515.62,-76 427.62,-76 427.62,-56 515.62,-56 515.62,-76"/>
<text xml:space="preserve" text-anchor="middle" x="471.62" y="-62.5" font-family="Helvetica,sans-Serif" font-size="10.00">QtCore/QVariant</text>
</a>
</g>
</g>
<!-- Node10&#45;&gt;Node16 -->
<g id="edge17_Node000010_Node000016" class="edge">
<title>Node10&#45;&gt;Node16</title>
<g id="a_edge17_Node000010_Node000016"><a xlink:title=" ">
<path fill="none" stroke="#63b8ff" d="M544.3,-111.59C531.13,-103.51 511.89,-91.71 496.52,-82.27"/>
<polygon fill="#63b8ff" stroke="#63b8ff" points="498.72,-79.52 488.36,-77.27 495.06,-85.48 498.72,-79.52"/>
</a>
</g>
</g>
<!-- Node17 -->
<g id="Node000017" class="node">
<title>Node17</title>
<g id="a_Node000017"><a xlink:title=" ">
<polygon fill="#e0e0e0" stroke="#999999" points="585.25,-76 534,-76 534,-56 585.25,-56 585.25,-76"/>
<text xml:space="preserve" text-anchor="middle" x="559.62" y="-62.5" font-family="Helvetica,sans-Serif" font-size="10.00">memory</text>
</a>
</g>
</g>
<!-- Node10&#45;&gt;Node17 -->
<g id="edge18_Node000010_Node000017" class="edge">
<title>Node10&#45;&gt;Node17</title>
<g id="a_edge18_Node000010_Node000017"><a xlink:title=" ">
<path fill="none" stroke="#63b8ff" d="M559.62,-111.59C559.62,-105.01 559.62,-95.96 559.62,-87.73"/>
<polygon fill="#63b8ff" stroke="#63b8ff" points="563.13,-87.81 559.63,-77.81 556.13,-87.81 563.13,-87.81"/>
</a>
</g>
</g>
<!-- Node18 -->
<g id="Node000018" class="node">
<title>Node18</title>
<g id="a_Node000018"><a xlink:href="_connection_point_8h.html" target="_top" xlink:title=" ">
<polygon fill="white" stroke="#666666" points="737.75,-76 641.5,-76 641.5,-56 737.75,-56 737.75,-76"/>
<text xml:space="preserve" text-anchor="middle" x="689.62" y="-62.5" font-family="Helvetica,sans-Serif" font-size="10.00">ConnectionPoint.h</text>
</a>
</g>
</g>
<!-- Node10&#45;&gt;Node18 -->
<g id="edge19_Node000010_Node000018" class="edge">
<title>Node10&#45;&gt;Node18</title>
<g id="a_edge19_Node000010_Node000018"><a xlink:title=" ">
<path fill="none" stroke="#63b8ff" d="M582.27,-111.59C602.74,-103.09 633.14,-90.46 656.37,-80.81"/>
<polygon fill="#63b8ff" stroke="#63b8ff" points="657.51,-84.13 665.41,-77.06 654.83,-77.66 657.51,-84.13"/>
</a>
</g>
</g>
<!-- Node18&#45;&gt;Node6 -->
<g id="edge21_Node000018_Node000006" class="edge">
<title>Node18&#45;&gt;Node6</title>
<g id="a_edge21_Node000018_Node000006"><a xlink:title=" ">
<path fill="none" stroke="#63b8ff" d="M641.16,-58.32C567.9,-48.23 429.37,-29.15 352.5,-18.56"/>
<polygon fill="#63b8ff" stroke="#63b8ff" points="353.05,-15.1 342.66,-17.2 352.09,-22.04 353.05,-15.1"/>
</a>
</g>
</g>
<!-- Node18&#45;&gt;Node12 -->
<g id="edge20_Node000018_Node000012" class="edge">
<title>Node18&#45;&gt;Node12</title>
<g id="a_edge20_Node000018_Node000012"><a xlink:title=" ">
<path fill="none" stroke="#63b8ff" d="M678.65,-55.59C669.71,-47.93 656.85,-36.91 646.16,-27.75"/>
<polygon fill="#63b8ff" stroke="#63b8ff" points="648.49,-25.13 638.62,-21.28 643.94,-30.45 648.49,-25.13"/>
</a>
</g>
</g>
<!-- Node18&#45;&gt;Node13 -->
<g id="edge22_Node000018_Node000013" class="edge">
<title>Node18&#45;&gt;Node13</title>
<g id="a_edge22_Node000018_Node000013"><a xlink:title=" ">
<path fill="none" stroke="#63b8ff" d="M726.9,-55.59C762.43,-46.63 816.13,-33.08 855.01,-23.27"/>
<polygon fill="#63b8ff" stroke="#63b8ff" points="855.75,-26.69 864.59,-20.85 854.04,-19.9 855.75,-26.69"/>
</a>
</g>
</g>
<!-- Node18&#45;&gt;Node15 -->
<g id="edge23_Node000018_Node000015" class="edge">
<title>Node18&#45;&gt;Node15</title>
<g id="a_edge23_Node000018_Node000015"><a xlink:title=" ">
<path fill="none" stroke="#63b8ff" d="M698.33,-55.59C705.22,-48.16 715.02,-37.58 723.34,-28.58"/>
<polygon fill="#63b8ff" stroke="#63b8ff" points="725.76,-31.12 729.99,-21.41 720.62,-26.37 725.76,-31.12"/>
</a>
</g>
</g>
<!-- Node19&#45;&gt;Node10 -->
<g id="edge25_Node000019_Node000010" class="edge">
<title>Node19&#45;&gt;Node10</title>
<g id="a_edge25_Node000019_Node000010"><a xlink:title=" ">
<path fill="none" stroke="#63b8ff" d="M544.99,-223.62C547.55,-206.01 553.14,-167.59 556.62,-143.65"/>
<polygon fill="#63b8ff" stroke="#63b8ff" points="560.07,-144.25 558.05,-133.85 553.14,-143.24 560.07,-144.25"/>
</a>
</g>
</g>
<!-- Node20 -->
<g id="Node000020" class="node">
<title>Node20</title>
<g id="a_Node000020"><a xlink:href="_attribute_8h.html" target="_top" xlink:title=" ">
<polygon fill="white" stroke="#666666" points="633.12,-188 572.12,-188 572.12,-168 633.12,-168 633.12,-188"/>
<text xml:space="preserve" text-anchor="middle" x="602.62" y="-174.5" font-family="Helvetica,sans-Serif" font-size="10.00">Attribute.h</text>
</a>
</g>
</g>
<!-- Node19&#45;&gt;Node20 -->
<g id="edge26_Node000019_Node000020" class="edge">
<title>Node19&#45;&gt;Node20</title>
<g id="a_edge26_Node000019_Node000020"><a xlink:title=" ">
<path fill="none" stroke="#63b8ff" d="M553.9,-223.59C562.19,-216.01 574.07,-205.13 584.03,-196.02"/>
<polygon fill="#63b8ff" stroke="#63b8ff" points="586.34,-198.65 591.35,-189.32 581.61,-193.49 586.34,-198.65"/>
</a>
</g>
</g>
<!-- Node20&#45;&gt;Node10 -->
<g id="edge27_Node000020_Node000010" class="edge">
<title>Node20&#45;&gt;Node10</title>
<g id="a_edge27_Node000020_Node000010"><a xlink:title=" ">
<path fill="none" stroke="#63b8ff" d="M595.13,-167.59C589.34,-160.32 581.14,-150.02 574.08,-141.15"/>
<polygon fill="#63b8ff" stroke="#63b8ff" points="576.94,-139.12 567.97,-133.48 571.46,-143.49 576.94,-139.12"/>
</a>
</g>
</g>
<!-- Node21 -->
<g id="Node000021" class="node">
<title>Node21</title>
<g id="a_Node000021"><a xlink:href="_attribute_type_8h.html" target="_top" xlink:title=" ">
<polygon fill="white" stroke="#666666" points="982.62,-132 900.62,-132 900.62,-112 982.62,-112 982.62,-132"/>
<text xml:space="preserve" text-anchor="middle" x="941.62" y="-118.5" font-family="Helvetica,sans-Serif" font-size="10.00">AttributeType.h</text>
</a>
</g>
</g>
<!-- Node20&#45;&gt;Node21 -->
<g id="edge28_Node000020_Node000021" class="edge">
<title>Node20&#45;&gt;Node21</title>
<g id="a_edge28_Node000020_Node000021"><a xlink:title=" ">
<path fill="none" stroke="#63b8ff" d="M633.61,-172.06C691.71,-162.81 817.61,-142.75 889.16,-131.36"/>
<polygon fill="#63b8ff" stroke="#63b8ff" points="889.34,-134.87 898.66,-129.84 888.24,-127.96 889.34,-134.87"/>
</a>
</g>
</g>
<!-- Node21&#45;&gt;Node13 -->
<g id="edge29_Node000021_Node000013" class="edge">
<title>Node21&#45;&gt;Node13</title>
<g id="a_edge29_Node000021_Node000013"><a xlink:title=" ">
<path fill="none" stroke="#63b8ff" d="M938.39,-111.62C932.24,-93.84 918.78,-54.88 910.53,-31"/>
<polygon fill="#63b8ff" stroke="#63b8ff" points="913.92,-30.09 907.35,-21.79 907.31,-32.38 913.92,-30.09"/>
</a>
</g>
</g>
<!-- Node22 -->
<g id="Node000022" class="node">
<title>Node22</title>
<g id="a_Node000022"><a xlink:title=" ">
<polygon fill="#e0e0e0" stroke="#999999" points="1069.25,-76 970,-76 970,-56 1069.25,-56 1069.25,-76"/>
<text xml:space="preserve" text-anchor="middle" x="1019.62" y="-62.5" font-family="Helvetica,sans-Serif" font-size="10.00">QtCore/QStringList</text>
</a>
</g>
</g>
<!-- Node21&#45;&gt;Node22 -->
<g id="edge30_Node000021_Node000022" class="edge">
<title>Node21&#45;&gt;Node22</title>
<g id="a_edge30_Node000021_Node000022"><a xlink:title=" ">
<path fill="none" stroke="#63b8ff" d="M955.21,-111.59C966.66,-103.67 983.29,-92.16 996.78,-82.82"/>
<polygon fill="#63b8ff" stroke="#63b8ff" points="998.46,-85.91 1004.69,-77.34 994.47,-80.16 998.46,-85.91"/>
</a>
</g>
</g>
</g>
</svg>

<g id="navigator" transform="translate(0 0)" fill="#404254">
  <rect fill="#f2f5e9" fill-opacity="0.5" stroke="#606060" stroke-width=".5" x="0" y="0" width="60" height="60"/>
  <use id="zoomplus" xlink:href="#zoomPlus" x="17" y="9" onmousedown="handleZoom(evt,'in')"/>
  <use id="zoomminus" xlink:href="#zoomMin" x="42" y="9" onmousedown="handleZoom(evt,'out')"/>
  <use id="reset" xlink:href="#resetDef" x="30" y="36" onmousedown="handleReset()"/>
   <use id="arrowup" xlink:href="#arrowUp" x="0" y="0" onmousedown="handlePan(0,-1)"/>
  <use id="arrowright" xlink:href="#arrowRight" x="0" y="0" onmousedown="handlePan(1,0)"/>
  <use id="arrowdown" xlink:href="#arrowDown" x="0" y="0" onmousedown="handlePan(0,1)"/>
  <use id="arrowleft" xlink:href="#arrowLeft" x="0" y="0" onmousedown="handlePan(-1,0)"/>
</g>
<svg viewBox="0 0 15 15" width="100%" height="30px" preserveAspectRatio="xMaxYMin meet">
 <g id="arrow_out" transform="scale(0.3 0.3)">
  <a xlink:href="_entity_renderer_8cpp__incl_org.svg" target="_base">
   <rect id="button" ry="5" rx="5" y="6" x="6" height="38" width="38"
        fill="#f2f5e9" fill-opacity="0.5" stroke="#606060" stroke-width="1.0"/>
   <path id="arrow"
     d="M 11.500037,31.436501 C 11.940474,20.09759 22.043105,11.32322 32.158766,21.979434 L 37.068811,17.246167 C 37.068811,17.246167 37.088388,32 37.088388,32 L 22.160133,31.978069 C 22.160133,31.978069 26.997745,27.140456 26.997745,27.140456 C 18.528582,18.264221 13.291696,25.230495 11.500037,31.436501 z"
     style="fill:#404040;"/>
  </a>
 </g>
</svg>

<style type='text/css'>
<![CDATA[
[data-mouse-over-selected='false'] { opacity: 0.7; }
[data-mouse-over-selected='true']  { opacity: 1.0; }
]]>
</style>
<script type="application/ecmascript"><![CDATA[
document.addEventListener('DOMContentLoaded', (event) => {
  highlightEdges();
  highlightAdjacentNodes();
});
]]></script>
</svg>
