<?xml version="1.0" encoding="UTF-8" standalone="no"?>
<!DOCTYPE svg PUBLIC "-//W3C//DTD SVG 1.1//EN"
 "http://www.w3.org/Graphics/SVG/1.1/DTD/svg11.dtd">
<!-- Generated by graphviz version 14.1.1 (20251213.1925)
 -->
<!-- Title: src/model/JsonHelper.cpp Pages: 1 -->
<svg width="1696pt" height="308pt"
 viewBox="0.00 0.00 1696.00 308.00" xmlns="http://www.w3.org/2000/svg" xmlns:xlink="http://www.w3.org/1999/xlink">
<g id="graph0" class="graph" transform="scale(1 1) rotate(0) translate(4 304)">
<title>src/model/JsonHelper.cpp</title>
<!-- Node1 -->
<g id="Node000001" class="node">
<title>Node1</title>
<g id="a_Node000001"><a xlink:title=" ">
<polygon fill="#999999" stroke="#666666" points="1234.12,-300 1104.12,-300 1104.12,-280 1234.12,-280 1234.12,-300"/>
<text xml:space="preserve" text-anchor="middle" x="1169.12" y="-286.5" font-family="Helvetica,sans-Serif" font-size="10.00">src/model/JsonHelper.cpp</text>
</a>
</g>
</g>
<!-- Node2 -->
<g id="Node000002" class="node">
<title>Node2</title>
<g id="a_Node000002"><a xlink:href="_json_helper_8h.html" target="_top" xlink:title=" ">
<polygon fill="white" stroke="#666666" points="416,-244 342.25,-244 342.25,-224 416,-224 416,-244"/>
<text xml:space="preserve" text-anchor="middle" x="379.12" y="-230.5" font-family="Helvetica,sans-Serif" font-size="10.00">JsonHelper.h</text>
</a>
</g>
</g>
<!-- Node1&#45;&gt;Node2 -->
<g id="edge1_Node000001_Node000002" class="edge">
<title>Node1&#45;&gt;Node2</title>
<g id="a_edge1_Node000001_Node000002"><a xlink:title=" ">
<path fill="none" stroke="#63b8ff" d="M1103.8,-284.54C949.17,-273.96 563.48,-247.6 427.51,-238.31"/>
<polygon fill="#63b8ff" stroke="#63b8ff" points="427.99,-234.83 417.78,-237.64 427.52,-241.82 427.99,-234.83"/>
</a>
</g>
</g>
<!-- Node8 -->
<g id="Node000008" class="node">
<title>Node8</title>
<g id="a_Node000008"><a xlink:href="_basic_element_8h.html" target="_top" xlink:title=" ">
<polygon fill="white" stroke="#666666" points="1153.25,-132 1039,-132 1039,-112 1153.25,-112 1153.25,-132"/>
<text xml:space="preserve" text-anchor="middle" x="1096.12" y="-118.5" font-family="Helvetica,sans-Serif" font-size="10.00">model/BasicElement.h</text>
</a>
</g>
</g>
<!-- Node1&#45;&gt;Node8 -->
<g id="edge7_Node000001_Node000008" class="edge">
<title>Node1&#45;&gt;Node8</title>
<g id="a_edge7_Node000001_Node000008"><a xlink:title=" ">
<path fill="none" stroke="#63b8ff" d="M1164.99,-279.6C1153.4,-253.23 1120.39,-178.19 1104.66,-142.42"/>
<polygon fill="#63b8ff" stroke="#63b8ff" points="1108.05,-141.43 1100.82,-133.68 1101.64,-144.25 1108.05,-141.43"/>
</a>
</g>
</g>
<!-- Node18 -->
<g id="Node000018" class="node">
<title>Node18</title>
<g id="a_Node000018"><a xlink:href="_connection_line_8h.html" target="_top" xlink:title=" ">
<polygon fill="white" stroke="#666666" points="1535.62,-76 1414.62,-76 1414.62,-56 1535.62,-56 1535.62,-76"/>
<text xml:space="preserve" text-anchor="middle" x="1475.12" y="-62.5" font-family="Helvetica,sans-Serif" font-size="10.00">model/ConnectionLine.h</text>
</a>
</g>
</g>
<!-- Node1&#45;&gt;Node18 -->
<g id="edge22_Node000001_Node000018" class="edge">
<title>Node1&#45;&gt;Node18</title>
<g id="a_edge22_Node000001_Node000018"><a xlink:title=" ">
<path fill="none" stroke="#63b8ff" d="M1170.26,-279.76C1173.25,-258.48 1182.8,-204.97 1207.12,-168 1228.08,-136.15 1238.04,-129.09 1272.12,-112 1295.48,-100.29 1357.31,-87.44 1406.64,-78.48"/>
<polygon fill="#63b8ff" stroke="#63b8ff" points="1407.21,-81.94 1416.43,-76.73 1405.97,-75.04 1407.21,-81.94"/>
</a>
</g>
</g>
<!-- Node20 -->
<g id="Node000020" class="node">
<title>Node20</title>
<g id="a_Node000020"><a xlink:href="_attribute_8h.html" target="_top" xlink:title=" ">
<polygon fill="white" stroke="#666666" points="1063.25,-188 973,-188 973,-168 1063.25,-168 1063.25,-188"/>
<text xml:space="preserve" text-anchor="middle" x="1018.12" y="-174.5" font-family="Helvetica,sans-Serif" font-size="10.00">model/Attribute.h</text>
</a>
</g>
</g>
<!-- Node1&#45;&gt;Node20 -->
<g id="edge28_Node000001_Node000020" class="edge">
<title>Node1&#45;&gt;Node20</title>
<g id="a_edge28_Node000001_Node000020"><a xlink:title=" ">
<path fill="none" stroke="#63b8ff" d="M1103.66,-280.43C1079.15,-274.1 1052.97,-263.1 1035.12,-244 1023.92,-232 1019.9,-213.54 1018.54,-199.36"/>
<polygon fill="#63b8ff" stroke="#63b8ff" points="1022.06,-199.57 1018.02,-189.78 1015.07,-199.95 1022.06,-199.57"/>
</a>
</g>
</g>
<!-- Node23 -->
<g id="Node000023" class="node">
<title>Node23</title>
<g id="a_Node000023"><a xlink:href="_entity_8h.html" target="_top" xlink:title=" ">
<polygon fill="white" stroke="#666666" points="1122.25,-244 1044,-244 1044,-224 1122.25,-224 1122.25,-244"/>
<text xml:space="preserve" text-anchor="middle" x="1083.12" y="-230.5" font-family="Helvetica,sans-Serif" font-size="10.00">model/Entity.h</text>
</a>
</g>
</g>
<!-- Node1&#45;&gt;Node23 -->
<g id="edge33_Node000001_Node000023" class="edge">
<title>Node1&#45;&gt;Node23</title>
<g id="a_edge33_Node000001_Node000023"><a xlink:title=" ">
<path fill="none" stroke="#63b8ff" d="M1154.14,-279.59C1141.4,-271.59 1122.83,-259.93 1107.88,-250.54"/>
<polygon fill="#63b8ff" stroke="#63b8ff" points="1109.83,-247.64 1099.5,-245.28 1106.11,-253.57 1109.83,-247.64"/>
</a>
</g>
</g>
<!-- Node24 -->
<g id="Node000024" class="node">
<title>Node24</title>
<g id="a_Node000024"><a xlink:href="_relationship_8h.html" target="_top" xlink:title=" ">
<polygon fill="white" stroke="#666666" points="1323.88,-188 1216.38,-188 1216.38,-168 1323.88,-168 1323.88,-188"/>
<text xml:space="preserve" text-anchor="middle" x="1270.12" y="-174.5" font-family="Helvetica,sans-Serif" font-size="10.00">model/Relationship.h</text>
</a>
</g>
</g>
<!-- Node1&#45;&gt;Node24 -->
<g id="edge36_Node000001_Node000024" class="edge">
<title>Node1&#45;&gt;Node24</title>
<g id="a_edge36_Node000001_Node000024"><a xlink:title=" ">
<path fill="none" stroke="#63b8ff" d="M1177.74,-279.62C1194.58,-261.27 1232.14,-220.37 1253.82,-196.75"/>
<polygon fill="#63b8ff" stroke="#63b8ff" points="1256.33,-199.2 1260.51,-189.47 1251.17,-194.47 1256.33,-199.2"/>
</a>
</g>
</g>
<!-- Node27 -->
<g id="Node000027" class="node">
<title>Node27</title>
<g id="a_Node000027"><a xlink:title=" ">
<polygon fill="#e0e0e0" stroke="#999999" points="1328,-244 1254.25,-244 1254.25,-224 1328,-224 1328,-244"/>
<text xml:space="preserve" text-anchor="middle" x="1291.12" y="-230.5" font-family="Helvetica,sans-Serif" font-size="10.00">QtCore/QFile</text>
</a>
</g>
</g>
<!-- Node1&#45;&gt;Node27 -->
<g id="edge42_Node000001_Node000027" class="edge">
<title>Node1&#45;&gt;Node27</title>
<g id="a_edge42_Node000001_Node000027"><a xlink:title=" ">
<path fill="none" stroke="#63b8ff" d="M1190.38,-279.59C1209.41,-271.17 1237.6,-258.69 1259.33,-249.07"/>
<polygon fill="#63b8ff" stroke="#63b8ff" points="1260.6,-252.34 1268.32,-245.09 1257.76,-245.94 1260.6,-252.34"/>
</a>
</g>
</g>
<!-- Node28 -->
<g id="Node000028" class="node">
<title>Node28</title>
<g id="a_Node000028"><a xlink:title=" ">
<polygon fill="#e0e0e0" stroke="#999999" points="1432.38,-244 1345.88,-244 1345.88,-224 1432.38,-224 1432.38,-244"/>
<text xml:space="preserve" text-anchor="middle" x="1389.12" y="-230.5" font-family="Helvetica,sans-Serif" font-size="10.00">QtCore/QDebug</text>
</a>
</g>
</g>
<!-- Node1&#45;&gt;Node28 -->
<g id="edge43_Node000001_Node000028" class="edge">
<title>Node1&#45;&gt;Node28</title>
<g id="a_edge43_Node000001_Node000028"><a xlink:title=" ">
<path fill="none" stroke="#63b8ff" d="M1207.7,-279.53C1244.34,-270.54 1299.61,-256.97 1339.52,-247.18"/>
<polygon fill="#63b8ff" stroke="#63b8ff" points="1340.25,-250.6 1349.13,-244.82 1338.58,-243.8 1340.25,-250.6"/>
</a>
</g>
</g>
<!-- Node3 -->
<g id="Node000003" class="node">
<title>Node3</title>
<g id="a_Node000003"><a xlink:title=" ">
<polygon fill="#e0e0e0" stroke="#999999" points="102.25,-188 0,-188 0,-168 102.25,-168 102.25,-188"/>
<text xml:space="preserve" text-anchor="middle" x="51.12" y="-174.5" font-family="Helvetica,sans-Serif" font-size="10.00">QtCore/QJsonArray</text>
</a>
</g>
</g>
<!-- Node2&#45;&gt;Node3 -->
<g id="edge2_Node000002_Node000003" class="edge">
<title>Node2&#45;&gt;Node3</title>
<g id="a_edge2_Node000002_Node000003"><a xlink:title=" ">
<path fill="none" stroke="#63b8ff" d="M341.82,-226.86C286.34,-217.73 181.42,-200.45 113.96,-189.35"/>
<polygon fill="#63b8ff" stroke="#63b8ff" points="114.58,-185.9 104.14,-187.73 113.44,-192.81 114.58,-185.9"/>
</a>
</g>
</g>
<!-- Node4 -->
<g id="Node000004" class="node">
<title>Node4</title>
<g id="a_Node000004"><a xlink:title=" ">
<polygon fill="#e0e0e0" stroke="#999999" points="244.12,-188 120.12,-188 120.12,-168 244.12,-168 244.12,-188"/>
<text xml:space="preserve" text-anchor="middle" x="182.12" y="-174.5" font-family="Helvetica,sans-Serif" font-size="10.00">QtCore/QJsonDocument</text>
</a>
</g>
</g>
<!-- Node2&#45;&gt;Node4 -->
<g id="edge3_Node000002_Node000004" class="edge">
<title>Node2&#45;&gt;Node4</title>
<g id="a_edge3_Node000002_Node000004"><a xlink:title=" ">
<path fill="none" stroke="#63b8ff" d="M344.81,-223.59C312.38,-214.71 263.51,-201.31 227.8,-191.52"/>
<polygon fill="#63b8ff" stroke="#63b8ff" points="228.74,-188.15 218.17,-188.88 226.89,-194.9 228.74,-188.15"/>
</a>
</g>
</g>
<!-- Node5 -->
<g id="Node000005" class="node">
<title>Node5</title>
<g id="a_Node000005"><a xlink:title=" ">
<polygon fill="#e0e0e0" stroke="#999999" points="369.88,-188 262.38,-188 262.38,-168 369.88,-168 369.88,-188"/>
<text xml:space="preserve" text-anchor="middle" x="316.12" y="-174.5" font-family="Helvetica,sans-Serif" font-size="10.00">QtCore/QJsonObject</text>
</a>
</g>
</g>
<!-- Node2&#45;&gt;Node5 -->
<g id="edge4_Node000002_Node000005" class="edge">
<title>Node2&#45;&gt;Node5</title>
<g id="a_edge4_Node000002_Node000005"><a xlink:title=" ">
<path fill="none" stroke="#63b8ff" d="M368.15,-223.59C359.21,-215.93 346.35,-204.91 335.66,-195.75"/>
<polygon fill="#63b8ff" stroke="#63b8ff" points="337.99,-193.13 328.12,-189.28 333.44,-198.45 337.99,-193.13"/>
</a>
</g>
</g>
<!-- Node6 -->
<g id="Node000006" class="node">
<title>Node6</title>
<g id="a_Node000006"><a xlink:title=" ">
<polygon fill="#e0e0e0" stroke="#999999" points="953.88,-20 870.38,-20 870.38,0 953.88,0 953.88,-20"/>
<text xml:space="preserve" text-anchor="middle" x="912.12" y="-6.5" font-family="Helvetica,sans-Serif" font-size="10.00">QtCore/QString</text>
</a>
</g>
</g>
<!-- Node2&#45;&gt;Node6 -->
<g id="edge5_Node000002_Node000006" class="edge">
<title>Node2&#45;&gt;Node6</title>
<g id="a_edge5_Node000002_Node000006"><a xlink:title=" ">
<path fill="none" stroke="#63b8ff" d="M416.35,-228.59C443.94,-223.4 480.53,-212.18 503.12,-188 544.8,-143.39 494.65,-95.59 541.12,-56 587.79,-16.25 767.71,-10.66 858.73,-10.46"/>
<polygon fill="#63b8ff" stroke="#63b8ff" points="858.66,-13.96 868.66,-10.47 858.66,-6.96 858.66,-13.96"/>
</a>
</g>
</g>
<!-- Node7 -->
<g id="Node000007" class="node">
<title>Node7</title>
<g id="a_Node000007"><a xlink:title=" ">
<polygon fill="#e0e0e0" stroke="#999999" points="494.5,-188 387.75,-188 387.75,-168 494.5,-168 494.5,-188"/>
<text xml:space="preserve" text-anchor="middle" x="441.12" y="-174.5" font-family="Helvetica,sans-Serif" font-size="10.00">QtCore/QVariantMap</text>
</a>
</g>
</g>
<!-- Node2&#45;&gt;Node7 -->
<g id="edge6_Node000002_Node000007" class="edge">
<title>Node2&#45;&gt;Node7</title>
<g id="a_edge6_Node000002_Node000007"><a xlink:title=" ">
<path fill="none" stroke="#63b8ff" d="M389.92,-223.59C398.73,-215.93 411.38,-204.91 421.9,-195.75"/>
<polygon fill="#63b8ff" stroke="#63b8ff" points="424.07,-198.5 429.31,-189.29 419.47,-193.22 424.07,-198.5"/>
</a>
</g>
</g>
<!-- Node8&#45;&gt;Node6 -->
<g id="edge12_Node000008_Node000006" class="edge">
<title>Node8&#45;&gt;Node6</title>
<g id="a_edge12_Node000008_Node000006"><a xlink:title=" ">
<path fill="none" stroke="#63b8ff" d="M1038.56,-117.94C941.74,-112.2 754.85,-98.34 735.12,-76 697.21,-33.06 793.83,-18.45 858.78,-13.51"/>
<polygon fill="#63b8ff" stroke="#63b8ff" points="858.86,-17.01 868.59,-12.82 858.37,-10.03 858.86,-17.01"/>
</a>
</g>
</g>
<!-- Node9 -->
<g id="Node000009" class="node">
<title>Node9</title>
<g id="a_Node000009"><a xlink:title=" ">
<polygon fill="#e0e0e0" stroke="#999999" points="1102.75,-76 1021.5,-76 1021.5,-56 1102.75,-56 1102.75,-76"/>
<text xml:space="preserve" text-anchor="middle" x="1062.12" y="-62.5" font-family="Helvetica,sans-Serif" font-size="10.00">QtCore/QHash</text>
</a>
</g>
</g>
<!-- Node8&#45;&gt;Node9 -->
<g id="edge8_Node000008_Node000009" class="edge">
<title>Node8&#45;&gt;Node9</title>
<g id="a_edge8_Node000008_Node000009"><a xlink:title=" ">
<path fill="none" stroke="#63b8ff" d="M1090.2,-111.59C1085.77,-104.55 1079.55,-94.67 1074.09,-86"/>
<polygon fill="#63b8ff" stroke="#63b8ff" points="1077.08,-84.18 1068.79,-77.58 1071.15,-87.91 1077.08,-84.18"/>
</a>
</g>
</g>
<!-- Node10 -->
<g id="Node000010" class="node">
<title>Node10</title>
<g id="a_Node000010"><a xlink:title=" ">
<polygon fill="#e0e0e0" stroke="#999999" points="1607.38,-20 1520.88,-20 1520.88,0 1607.38,0 1607.38,-20"/>
<text xml:space="preserve" text-anchor="middle" x="1564.12" y="-6.5" font-family="Helvetica,sans-Serif" font-size="10.00">QtCore/QObject</text>
</a>
</g>
</g>
<!-- Node8&#45;&gt;Node10 -->
<g id="edge9_Node000008_Node000010" class="edge">
<title>Node8&#45;&gt;Node10</title>
<g id="a_edge9_Node000008_Node000010"><a xlink:title=" ">
<path fill="none" stroke="#63b8ff" d="M1153.42,-116.96C1271.09,-108.43 1530.25,-88.36 1545.12,-76 1558,-65.31 1562.43,-46.42 1563.83,-31.75"/>
<polygon fill="#63b8ff" stroke="#63b8ff" points="1567.32,-31.93 1564.33,-21.76 1560.33,-31.57 1567.32,-31.93"/>
</a>
</g>
</g>
<!-- Node11 -->
<g id="Node000011" class="node">
<title>Node11</title>
<g id="a_Node000011"><a xlink:title=" ">
<polygon fill="#e0e0e0" stroke="#999999" points="1338.38,-20 1251.88,-20 1251.88,0 1338.38,0 1338.38,-20"/>
<text xml:space="preserve" text-anchor="middle" x="1295.12" y="-6.5" font-family="Helvetica,sans-Serif" font-size="10.00">QtCore/QPointF</text>
</a>
</g>
</g>
<!-- Node8&#45;&gt;Node11 -->
<g id="edge10_Node000008_Node000011" class="edge">
<title>Node8&#45;&gt;Node11</title>
<g id="a_edge10_Node000008_Node000011"><a xlink:title=" ">
<path fill="none" stroke="#63b8ff" d="M1150.57,-111.53C1192.76,-103.27 1246.83,-90.38 1264.12,-76 1277.94,-64.51 1286.02,-45.43 1290.44,-30.9"/>
<polygon fill="#63b8ff" stroke="#63b8ff" points="1293.75,-32.07 1292.95,-21.5 1286.99,-30.26 1293.75,-32.07"/>
</a>
</g>
</g>
<!-- Node12 -->
<g id="Node000012" class="node">
<title>Node12</title>
<g id="a_Node000012"><a xlink:title=" ">
<polygon fill="#e0e0e0" stroke="#999999" points="1396.62,-76 1311.62,-76 1311.62,-56 1396.62,-56 1396.62,-76"/>
<text xml:space="preserve" text-anchor="middle" x="1354.12" y="-62.5" font-family="Helvetica,sans-Serif" font-size="10.00">QtCore/QRectF</text>
</a>
</g>
</g>
<!-- Node8&#45;&gt;Node12 -->
<g id="edge11_Node000008_Node000012" class="edge">
<title>Node8&#45;&gt;Node12</title>
<g id="a_edge11_Node000008_Node000012"><a xlink:title=" ">
<path fill="none" stroke="#63b8ff" d="M1141.36,-111.53C1185.69,-102.25 1253.26,-88.11 1300.32,-78.26"/>
<polygon fill="#63b8ff" stroke="#63b8ff" points="1300.96,-81.7 1310.03,-76.23 1299.53,-74.85 1300.96,-81.7"/>
</a>
</g>
</g>
<!-- Node13 -->
<g id="Node000013" class="node">
<title>Node13</title>
<g id="a_Node000013"><a xlink:title=" ">
<polygon fill="#e0e0e0" stroke="#999999" points="827.88,-76 744.38,-76 744.38,-56 827.88,-56 827.88,-76"/>
<text xml:space="preserve" text-anchor="middle" x="786.12" y="-62.5" font-family="Helvetica,sans-Serif" font-size="10.00">QtCore/QSizeF</text>
</a>
</g>
</g>
<!-- Node8&#45;&gt;Node13 -->
<g id="edge13_Node000008_Node000013" class="edge">
<title>Node8&#45;&gt;Node13</title>
<g id="a_edge13_Node000008_Node000013"><a xlink:title=" ">
<path fill="none" stroke="#63b8ff" d="M1041.3,-111.52C991.33,-102.86 915.15,-89.65 839.33,-76.38"/>
<polygon fill="#63b8ff" stroke="#63b8ff" points="840.09,-72.96 829.64,-74.69 838.89,-79.86 840.09,-72.96"/>
</a>
</g>
</g>
<!-- Node14 -->
<g id="Node000014" class="node">
<title>Node14</title>
<g id="a_Node000014"><a xlink:title=" ">
<polygon fill="#e0e0e0" stroke="#999999" points="1234.25,-20 1156,-20 1156,0 1234.25,0 1234.25,-20"/>
<text xml:space="preserve" text-anchor="middle" x="1195.12" y="-6.5" font-family="Helvetica,sans-Serif" font-size="10.00">QtCore/QUuid</text>
</a>
</g>
</g>
<!-- Node8&#45;&gt;Node14 -->
<g id="edge14_Node000008_Node000014" class="edge">
<title>Node8&#45;&gt;Node14</title>
<g id="a_edge14_Node000008_Node000014"><a xlink:title=" ">
<path fill="none" stroke="#63b8ff" d="M1103.55,-111.51C1113.73,-98.65 1132.73,-75.08 1150.12,-56 1158.74,-46.55 1168.77,-36.44 1177.17,-28.2"/>
<polygon fill="#63b8ff" stroke="#63b8ff" points="1179.38,-30.94 1184.12,-21.46 1174.51,-25.91 1179.38,-30.94"/>
</a>
</g>
</g>
<!-- Node15 -->
<g id="Node000015" class="node">
<title>Node15</title>
<g id="a_Node000015"><a xlink:title=" ">
<polygon fill="#e0e0e0" stroke="#999999" points="934.12,-76 846.12,-76 846.12,-56 934.12,-56 934.12,-76"/>
<text xml:space="preserve" text-anchor="middle" x="890.12" y="-62.5" font-family="Helvetica,sans-Serif" font-size="10.00">QtCore/QVariant</text>
</a>
</g>
</g>
<!-- Node8&#45;&gt;Node15 -->
<g id="edge15_Node000008_Node000015" class="edge">
<title>Node8&#45;&gt;Node15</title>
<g id="a_edge15_Node000008_Node000015"><a xlink:title=" ">
<path fill="none" stroke="#63b8ff" d="M1060.24,-111.59C1026.19,-102.67 974.79,-89.19 937.41,-79.39"/>
<polygon fill="#63b8ff" stroke="#63b8ff" points="938.31,-76.01 927.75,-76.86 936.54,-82.78 938.31,-76.01"/>
</a>
</g>
</g>
<!-- Node16 -->
<g id="Node000016" class="node">
<title>Node16</title>
<g id="a_Node000016"><a xlink:title=" ">
<polygon fill="#e0e0e0" stroke="#999999" points="1003.75,-76 952.5,-76 952.5,-56 1003.75,-56 1003.75,-76"/>
<text xml:space="preserve" text-anchor="middle" x="978.12" y="-62.5" font-family="Helvetica,sans-Serif" font-size="10.00">memory</text>
</a>
</g>
</g>
<!-- Node8&#45;&gt;Node16 -->
<g id="edge16_Node000008_Node000016" class="edge">
<title>Node8&#45;&gt;Node16</title>
<g id="a_edge16_Node000008_Node000016"><a xlink:title=" ">
<path fill="none" stroke="#63b8ff" d="M1075.57,-111.59C1057.24,-103.21 1030.14,-90.8 1009.17,-81.21"/>
<polygon fill="#63b8ff" stroke="#63b8ff" points="1010.77,-78.09 1000.22,-77.11 1007.85,-84.45 1010.77,-78.09"/>
</a>
</g>
</g>
<!-- Node17 -->
<g id="Node000017" class="node">
<title>Node17</title>
<g id="a_Node000017"><a xlink:href="_connection_point_8h.html" target="_top" xlink:title=" ">
<polygon fill="white" stroke="#666666" points="1255.25,-76 1159,-76 1159,-56 1255.25,-56 1255.25,-76"/>
<text xml:space="preserve" text-anchor="middle" x="1207.12" y="-62.5" font-family="Helvetica,sans-Serif" font-size="10.00">ConnectionPoint.h</text>
</a>
</g>
</g>
<!-- Node8&#45;&gt;Node17 -->
<g id="edge17_Node000008_Node000017" class="edge">
<title>Node8&#45;&gt;Node17</title>
<g id="a_edge17_Node000008_Node000017"><a xlink:title=" ">
<path fill="none" stroke="#63b8ff" d="M1115.46,-111.59C1132.54,-103.28 1157.73,-91.03 1177.38,-81.47"/>
<polygon fill="#63b8ff" stroke="#63b8ff" points="1178.82,-84.66 1186.28,-77.14 1175.75,-78.37 1178.82,-84.66"/>
</a>
</g>
</g>
<!-- Node17&#45;&gt;Node6 -->
<g id="edge20_Node000017_Node000006" class="edge">
<title>Node17&#45;&gt;Node6</title>
<g id="a_edge20_Node000017_Node000006"><a xlink:title=" ">
<path fill="none" stroke="#63b8ff" d="M1158.74,-56.14C1105.64,-46.42 1020.63,-30.86 965.58,-20.79"/>
<polygon fill="#63b8ff" stroke="#63b8ff" points="966.27,-17.35 955.8,-19 965.01,-24.24 966.27,-17.35"/>
</a>
</g>
</g>
<!-- Node17&#45;&gt;Node10 -->
<g id="edge18_Node000017_Node000010" class="edge">
<title>Node17&#45;&gt;Node10</title>
<g id="a_edge18_Node000017_Node000010"><a xlink:title=" ">
<path fill="none" stroke="#63b8ff" d="M1255.52,-58.24C1313.42,-50.07 1413.62,-35.66 1509.13,-20.45"/>
<polygon fill="#63b8ff" stroke="#63b8ff" points="1509.63,-23.91 1518.95,-18.88 1508.52,-17 1509.63,-23.91"/>
</a>
</g>
</g>
<!-- Node17&#45;&gt;Node11 -->
<g id="edge19_Node000017_Node000011" class="edge">
<title>Node17&#45;&gt;Node11</title>
<g id="a_edge19_Node000017_Node000011"><a xlink:title=" ">
<path fill="none" stroke="#63b8ff" d="M1222.45,-55.59C1235.62,-47.51 1254.86,-35.71 1270.23,-26.27"/>
<polygon fill="#63b8ff" stroke="#63b8ff" points="1271.69,-29.48 1278.39,-21.27 1268.03,-23.52 1271.69,-29.48"/>
</a>
</g>
</g>
<!-- Node17&#45;&gt;Node14 -->
<g id="edge21_Node000017_Node000014" class="edge">
<title>Node17&#45;&gt;Node14</title>
<g id="a_edge21_Node000017_Node000014"><a xlink:title=" ">
<path fill="none" stroke="#63b8ff" d="M1205.03,-55.59C1203.55,-48.93 1201.51,-39.75 1199.67,-31.44"/>
<polygon fill="#63b8ff" stroke="#63b8ff" points="1203.11,-30.78 1197.52,-21.78 1196.27,-32.3 1203.11,-30.78"/>
</a>
</g>
</g>
<!-- Node18&#45;&gt;Node6 -->
<g id="edge25_Node000018_Node000006" class="edge">
<title>Node18&#45;&gt;Node6</title>
<g id="a_edge25_Node000018_Node000006"><a xlink:title=" ">
<path fill="none" stroke="#63b8ff" d="M1414.19,-56.92C1411.46,-56.6 1408.77,-56.29 1406.12,-56 1246.02,-38.27 1056.15,-22.43 965.48,-15.18"/>
<polygon fill="#63b8ff" stroke="#63b8ff" points="965.9,-11.7 955.65,-14.39 965.34,-18.68 965.9,-11.7"/>
</a>
</g>
</g>
<!-- Node18&#45;&gt;Node10 -->
<g id="edge23_Node000018_Node000010" class="edge">
<title>Node18&#45;&gt;Node10</title>
<g id="a_edge23_Node000018_Node000010"><a xlink:title=" ">
<path fill="none" stroke="#63b8ff" d="M1490.63,-55.59C1503.95,-47.51 1523.4,-35.71 1538.95,-26.27"/>
<polygon fill="#63b8ff" stroke="#63b8ff" points="1540.47,-29.44 1547.21,-21.26 1536.84,-23.46 1540.47,-29.44"/>
</a>
</g>
</g>
<!-- Node18&#45;&gt;Node11 -->
<g id="edge24_Node000018_Node000011" class="edge">
<title>Node18&#45;&gt;Node11</title>
<g id="a_edge24_Node000018_Node000011"><a xlink:title=" ">
<path fill="none" stroke="#63b8ff" d="M1443.77,-55.59C1414.4,-46.78 1370.26,-33.54 1337.71,-23.78"/>
<polygon fill="#63b8ff" stroke="#63b8ff" points="1338.76,-20.44 1328.17,-20.91 1336.75,-27.14 1338.76,-20.44"/>
</a>
</g>
</g>
<!-- Node18&#45;&gt;Node14 -->
<g id="edge26_Node000018_Node000014" class="edge">
<title>Node18&#45;&gt;Node14</title>
<g id="a_edge26_Node000018_Node000014"><a xlink:title=" ">
<path fill="none" stroke="#63b8ff" d="M1426.03,-55.53C1375.44,-45.77 1296.93,-30.63 1245.77,-20.77"/>
<polygon fill="#63b8ff" stroke="#63b8ff" points="1246.62,-17.37 1236.14,-18.91 1245.3,-24.24 1246.62,-17.37"/>
</a>
</g>
</g>
<!-- Node19 -->
<g id="Node000019" class="node">
<title>Node19</title>
<g id="a_Node000019"><a xlink:title=" ">
<polygon fill="#e0e0e0" stroke="#999999" points="1502.75,-20 1427.5,-20 1427.5,0 1502.75,0 1502.75,-20"/>
<text xml:space="preserve" text-anchor="middle" x="1465.12" y="-6.5" font-family="Helvetica,sans-Serif" font-size="10.00">QtGui/QColor</text>
</a>
</g>
</g>
<!-- Node18&#45;&gt;Node19 -->
<g id="edge27_Node000018_Node000019" class="edge">
<title>Node18&#45;&gt;Node19</title>
<g id="a_edge27_Node000018_Node000019"><a xlink:title=" ">
<path fill="none" stroke="#63b8ff" d="M1473.38,-55.59C1472.15,-48.93 1470.45,-39.75 1468.91,-31.44"/>
<polygon fill="#63b8ff" stroke="#63b8ff" points="1472.38,-30.98 1467.12,-21.79 1465.5,-32.26 1472.38,-30.98"/>
</a>
</g>
</g>
<!-- Node20&#45;&gt;Node8 -->
<g id="edge29_Node000020_Node000008" class="edge">
<title>Node20&#45;&gt;Node8</title>
<g id="a_edge29_Node000020_Node000008"><a xlink:title=" ">
<path fill="none" stroke="#63b8ff" d="M1031.71,-167.59C1043.16,-159.67 1059.79,-148.16 1073.28,-138.82"/>
<polygon fill="#63b8ff" stroke="#63b8ff" points="1074.96,-141.91 1081.19,-133.34 1070.97,-136.16 1074.96,-141.91"/>
</a>
</g>
</g>
<!-- Node21 -->
<g id="Node000021" class="node">
<title>Node21</title>
<g id="a_Node000021"><a xlink:href="_attribute_type_8h.html" target="_top" xlink:title=" ">
<polygon fill="white" stroke="#666666" points="719.12,-132 637.12,-132 637.12,-112 719.12,-112 719.12,-132"/>
<text xml:space="preserve" text-anchor="middle" x="678.12" y="-118.5" font-family="Helvetica,sans-Serif" font-size="10.00">AttributeType.h</text>
</a>
</g>
</g>
<!-- Node20&#45;&gt;Node21 -->
<g id="edge30_Node000020_Node000021" class="edge">
<title>Node20&#45;&gt;Node21</title>
<g id="a_edge30_Node000020_Node000021"><a xlink:title=" ">
<path fill="none" stroke="#63b8ff" d="M972.62,-169.77C909.76,-159.79 796.62,-141.82 730.37,-131.3"/>
<polygon fill="#63b8ff" stroke="#63b8ff" points="731.29,-127.9 720.86,-129.79 730.19,-134.81 731.29,-127.9"/>
</a>
</g>
</g>
<!-- Node21&#45;&gt;Node6 -->
<g id="edge31_Node000021_Node000006" class="edge">
<title>Node21&#45;&gt;Node6</title>
<g id="a_edge31_Node000021_Node000006"><a xlink:title=" ">
<path fill="none" stroke="#63b8ff" d="M681.71,-111.85C687.79,-97.59 701.49,-70.24 722.12,-56 762.58,-28.07 818.18,-17.35 858.78,-13.29"/>
<polygon fill="#63b8ff" stroke="#63b8ff" points="858.91,-16.8 868.56,-12.43 858.29,-9.82 858.91,-16.8"/>
</a>
</g>
</g>
<!-- Node22 -->
<g id="Node000022" class="node">
<title>Node22</title>
<g id="a_Node000022"><a xlink:title=" ">
<polygon fill="#e0e0e0" stroke="#999999" points="649.75,-76 550.5,-76 550.5,-56 649.75,-56 649.75,-76"/>
<text xml:space="preserve" text-anchor="middle" x="600.12" y="-62.5" font-family="Helvetica,sans-Serif" font-size="10.00">QtCore/QStringList</text>
</a>
</g>
</g>
<!-- Node21&#45;&gt;Node22 -->
<g id="edge32_Node000021_Node000022" class="edge">
<title>Node21&#45;&gt;Node22</title>
<g id="a_edge32_Node000021_Node000022"><a xlink:title=" ">
<path fill="none" stroke="#63b8ff" d="M664.54,-111.59C653.09,-103.67 636.46,-92.16 622.97,-82.82"/>
<polygon fill="#63b8ff" stroke="#63b8ff" points="625.28,-80.16 615.06,-77.34 621.29,-85.91 625.28,-80.16"/>
</a>
</g>
</g>
<!-- Node23&#45;&gt;Node8 -->
<g id="edge34_Node000023_Node000008" class="edge">
<title>Node23&#45;&gt;Node8</title>
<g id="a_edge34_Node000023_Node000008"><a xlink:title=" ">
<path fill="none" stroke="#63b8ff" d="M1084.23,-223.62C1086.32,-206.01 1090.85,-167.59 1093.68,-143.65"/>
<polygon fill="#63b8ff" stroke="#63b8ff" points="1097.14,-144.2 1094.84,-133.86 1090.19,-143.38 1097.14,-144.2"/>
</a>
</g>
</g>
<!-- Node23&#45;&gt;Node20 -->
<g id="edge35_Node000023_Node000020" class="edge">
<title>Node23&#45;&gt;Node20</title>
<g id="a_edge35_Node000023_Node000020"><a xlink:title=" ">
<path fill="none" stroke="#63b8ff" d="M1071.8,-223.59C1062.48,-215.85 1049.05,-204.69 1037.95,-195.47"/>
<polygon fill="#63b8ff" stroke="#63b8ff" points="1040.41,-192.96 1030.48,-189.27 1035.94,-198.35 1040.41,-192.96"/>
</a>
</g>
</g>
<!-- Node24&#45;&gt;Node8 -->
<g id="edge37_Node000024_Node000008" class="edge">
<title>Node24&#45;&gt;Node8</title>
<g id="a_edge37_Node000024_Node000008"><a xlink:title=" ">
<path fill="none" stroke="#63b8ff" d="M1239.82,-167.59C1211.42,-158.78 1168.76,-145.54 1137.29,-135.78"/>
<polygon fill="#63b8ff" stroke="#63b8ff" points="1138.7,-132.55 1128.12,-132.93 1136.63,-139.23 1138.7,-132.55"/>
</a>
</g>
</g>
<!-- Node25 -->
<g id="Node000025" class="node">
<title>Node25</title>
<g id="a_Node000025"><a xlink:href="_relationship_end_8h.html" target="_top" xlink:title=" ">
<polygon fill="white" stroke="#666666" points="1687.88,-76 1592.38,-76 1592.38,-56 1687.88,-56 1687.88,-76"/>
<text xml:space="preserve" text-anchor="middle" x="1640.12" y="-62.5" font-family="Helvetica,sans-Serif" font-size="10.00">RelationshipEnd.h</text>
</a>
</g>
</g>
<!-- Node24&#45;&gt;Node25 -->
<g id="edge38_Node000024_Node000025" class="edge">
<title>Node24&#45;&gt;Node25</title>
<g id="a_edge38_Node000024_Node000025"><a xlink:title=" ">
<path fill="none" stroke="#63b8ff" d="M1269.88,-167.79C1270.04,-153.47 1272.65,-126.02 1289.12,-112 1338.41,-70.05 1513.99,-84.65 1578.12,-76 1578.97,-75.89 1579.83,-75.77 1580.69,-75.65"/>
<polygon fill="#63b8ff" stroke="#63b8ff" points="1581.15,-79.12 1590.58,-74.28 1580.19,-72.19 1581.15,-79.12"/>
</a>
</g>
</g>
<!-- Node26 -->
<g id="Node000026" class="node">
<title>Node26</title>
<g id="a_Node000026"><a xlink:title=" ">
<polygon fill="#e0e0e0" stroke="#999999" points="1372,-132 1298.25,-132 1298.25,-112 1372,-112 1372,-132"/>
<text xml:space="preserve" text-anchor="middle" x="1335.12" y="-118.5" font-family="Helvetica,sans-Serif" font-size="10.00">QtCore/QList</text>
</a>
</g>
</g>
<!-- Node24&#45;&gt;Node26 -->
<g id="edge41_Node000024_Node000026" class="edge">
<title>Node24&#45;&gt;Node26</title>
<g id="a_edge41_Node000024_Node000026"><a xlink:title=" ">
<path fill="none" stroke="#63b8ff" d="M1281.45,-167.59C1290.77,-159.85 1304.2,-148.69 1315.3,-139.47"/>
<polygon fill="#63b8ff" stroke="#63b8ff" points="1317.31,-142.35 1322.77,-133.27 1312.84,-136.96 1317.31,-142.35"/>
</a>
</g>
</g>
<!-- Node25&#45;&gt;Node6 -->
<g id="edge40_Node000025_Node000006" class="edge">
<title>Node25&#45;&gt;Node6</title>
<g id="a_edge40_Node000025_Node000006"><a xlink:title=" ">
<path fill="none" stroke="#63b8ff" d="M1592.3,-60.25C1577.22,-58.81 1560.48,-57.27 1545.12,-56 1330.34,-38.19 1074.19,-21.32 965.31,-14.36"/>
<polygon fill="#63b8ff" stroke="#63b8ff" points="965.71,-10.88 955.51,-13.73 965.27,-17.86 965.71,-10.88"/>
</a>
</g>
</g>
<!-- Node25&#45;&gt;Node10 -->
<g id="edge39_Node000025_Node000010" class="edge">
<title>Node25&#45;&gt;Node10</title>
<g id="a_edge39_Node000025_Node000010"><a xlink:title=" ">
<path fill="none" stroke="#63b8ff" d="M1626.89,-55.59C1615.84,-47.74 1599.84,-36.38 1586.77,-27.09"/>
<polygon fill="#63b8ff" stroke="#63b8ff" points="1588.88,-24.3 1578.7,-21.36 1584.82,-30 1588.88,-24.3"/>
</a>
</g>
</g>
</g>
</svg>
