<?xml version="1.0" encoding="UTF-8" standalone="no"?>
<!DOCTYPE svg PUBLIC "-//W3C//DTD SVG 1.1//EN"
 "http://www.w3.org/Graphics/SVG/1.1/DTD/svg11.dtd">
<!-- Generated by graphviz version 14.1.1 (20251213.1925)
 -->
<!-- Title: src/viewer/MainWindow.cpp Pages: 1 -->
<!--zoomable 208 -->

<svg id="main" version="1.1" xmlns="http://www.w3.org/2000/svg" xmlns:xlink="http://www.w3.org/1999/xlink" xml:space="preserve" onload="init(evt)">

<style type="text/css"><![CDATA[
.node, .edge {opacity: 0.7;}
.node.selected, .edge.selected {opacity: 1;}
.edge:hover path { stroke: red; }
.edge:hover polygon { stroke: red; fill: red; }
]]></style>

<defs>
  <circle id="rim" cx="0" cy="0" r="7"/>
  <circle id="rim2" cx="0" cy="0" r="3.5"/>
  <g id="zoomPlus">
    <use xlink:href="#rim" fill="#404040"><set attributeName="fill" to="#808080" begin="zoomplus.mouseover" end="zoomplus.mouseout"/></use>
    <path d="M-4,0h8M0,-4v8" fill="none" stroke="white" stroke-width="1.5" pointer-events="none"/>
  </g>
  <g id="zoomMin">
    <use xlink:href="#rim" fill="#404040"><set attributeName="fill" to="#808080" begin="zoomminus.mouseover" end="zoomminus.mouseout"/></use>
    <path d="M-4,0h8" fill="none" stroke="white" stroke-width="1.5" pointer-events="none"/>
  </g>
  <g id="arrowUp" transform="translate(30 24)">
    <use xlink:href="#rim"/>
    <path pointer-events="none" fill="none" stroke="white" stroke-width="1.5" d="M0,-3.0v7 M-2.5,-0.5L0,-3.0L2.5,-0.5"/>
  </g>
  <g id="arrowRight" transform="rotate(90) translate(36 -43)">
    <use xlink:href="#rim"/>
    <path pointer-events="none" fill="none" stroke="white" stroke-width="1.5" d="M0,-3.0v7 M-2.5,-0.5L0,-3.0L2.5,-0.5"/>
  </g>
  <g id="arrowDown" transform="rotate(180) translate(-30 -48)">
    <use xlink:href="#rim"/>
    <path pointer-events="none" fill="none" stroke="white" stroke-width="1.5" d="M0,-3.0v7 M-2.5,-0.5L0,-3.0L2.5,-0.5"/>
  </g>
  <g id="arrowLeft" transform="rotate(270) translate(-36 17)">
    <use xlink:href="#rim"/>
    <path pointer-events="none" fill="none" stroke="white" stroke-width="1.5" d="M0,-3.0v7 M-2.5,-0.5L0,-3.0L2.5,-0.5"/>
  </g>
  <g id="resetDef">
    <use xlink:href="#rim2" fill="#404040"><set attributeName="fill" to="#808080" begin="reset.mouseover" end="reset.mouseout"/></use>
  </g>
</defs>
<script type="application/ecmascript">
var viewWidth = 5508;
var viewHeight = 208;
var sectionId = 'dynsection-0';
</script>
<script type="application/ecmascript" xlink:href="svg.min.js"/>
<svg id="graph" class="graph">
<g id="viewport">
<title>src/viewer/MainWindow.cpp</title>
<!-- Node1 -->
<g id="Node000001" class="node">
<title>Node1</title>
<g id="a_Node000001"><a xlink:title=" ">
<polygon fill="#999999" stroke="#666666" points="3867.75,-200 3729.5,-200 3729.5,-180 3867.75,-180 3867.75,-200"/>
<text xml:space="preserve" text-anchor="middle" x="3798.62" y="-186.5" font-family="Helvetica,sans-Serif" font-size="10.00">src/viewer/MainWindow.cpp</text>
</a>
</g>
</g>
<!-- Node2 -->
<g id="Node000002" class="node">
<title>Node2</title>
<g id="a_Node000002"><a xlink:href="_main_window_8h.html" target="_top" xlink:title=" ">
<polygon fill="#fff0f0" stroke="red" points="1536.5,-138 1456.75,-138 1456.75,-118 1536.5,-118 1536.5,-138"/>
<text xml:space="preserve" text-anchor="middle" x="1496.62" y="-124.5" font-family="Helvetica,sans-Serif" font-size="10.00">MainWindow.h</text>
</a>
</g>
</g>
<!-- Node1&#45;&gt;Node2 -->
<g id="edge1_Node000001_Node000002" class="edge">
<title>Node1&#45;&gt;Node2</title>
<g id="a_edge1_Node000001_Node000002"><a xlink:title=" ">
<path fill="none" stroke="#63b8ff" d="M3729.1,-187.19C3382.91,-178.16 1849.67,-138.2 1548.19,-130.34"/>
<polygon fill="#63b8ff" stroke="#63b8ff" points="1548.37,-126.85 1538.28,-130.09 1548.19,-133.85 1548.37,-126.85"/>
</a>
</g>
</g>
<!-- Node21 -->
<g id="Node000021" class="node">
<title>Node21</title>
<g id="a_Node000021"><a xlink:title=" ">
<polygon fill="#e0e0e0" stroke="#999999" points="2664,-76 2521.25,-76 2521.25,-56 2664,-56 2664,-76"/>
<text xml:space="preserve" text-anchor="middle" x="2592.62" y="-62.5" font-family="Helvetica,sans-Serif" font-size="10.00">QtWidgets/QTreeWidgetItem</text>
</a>
</g>
</g>
<!-- Node1&#45;&gt;Node21 -->
<g id="edge45_Node000001_Node000021" class="edge">
<title>Node1&#45;&gt;Node21</title>
<g id="a_edge45_Node000001_Node000021"><a xlink:title=" ">
<path fill="none" stroke="#63b8ff" d="M3729.1,-188.55C3502.22,-186.76 2792.52,-178.43 2695.62,-144 2660.75,-131.61 2627.86,-102.99 2609,-84.34"/>
<polygon fill="#63b8ff" stroke="#63b8ff" points="2611.71,-82.1 2602.21,-77.42 2606.71,-87.01 2611.71,-82.1"/>
</a>
</g>
</g>
<!-- Node22 -->
<g id="Node000022" class="node">
<title>Node22</title>
<g id="a_Node000022"><a xlink:title=" ">
<polygon fill="#e0e0e0" stroke="#999999" points="2808.75,-76 2682.5,-76 2682.5,-56 2808.75,-56 2808.75,-76"/>
<text xml:space="preserve" text-anchor="middle" x="2745.62" y="-62.5" font-family="Helvetica,sans-Serif" font-size="10.00">QtWidgets/QVBoxLayout</text>
</a>
</g>
</g>
<!-- Node1&#45;&gt;Node22 -->
<g id="edge46_Node000001_Node000022" class="edge">
<title>Node1&#45;&gt;Node22</title>
<g id="a_edge46_Node000001_Node000022"><a xlink:title=" ">
<path fill="none" stroke="#63b8ff" d="M3729.1,-188.76C3493.97,-187.59 2741.11,-180.98 2705.62,-144 2688.86,-126.53 2708.91,-100.65 2726.15,-83.81"/>
<polygon fill="#63b8ff" stroke="#63b8ff" points="2728.15,-86.73 2733.11,-77.36 2723.4,-81.59 2728.15,-86.73"/>
</a>
</g>
</g>
<!-- Node57 -->
<g id="Node000057" class="node">
<title>Node57</title>
<g id="a_Node000057"><a xlink:href="_property_command_8h.html" target="_top" xlink:title=" ">
<polygon fill="#fff0f0" stroke="red" points="2863,-138 2714.25,-138 2714.25,-118 2863,-118 2863,-138"/>
<text xml:space="preserve" text-anchor="middle" x="2788.62" y="-124.5" font-family="Helvetica,sans-Serif" font-size="10.00">controller/PropertyCommand.h</text>
</a>
</g>
</g>
<!-- Node1&#45;&gt;Node57 -->
<g id="edge24_Node000001_Node000057" class="edge">
<title>Node1&#45;&gt;Node57</title>
<g id="a_edge24_Node000001_Node000057"><a xlink:title=" ">
<path fill="none" stroke="#63b8ff" d="M3729,-188.45C3574.93,-186.61 3193.66,-178.63 2876.62,-144 2867.64,-143.02 2858.19,-141.71 2848.94,-140.27"/>
<polygon fill="#63b8ff" stroke="#63b8ff" points="2849.74,-136.85 2839.31,-138.7 2848.62,-143.76 2849.74,-136.85"/>
</a>
</g>
</g>
<!-- Node58 -->
<g id="Node000058" class="node">
<title>Node58</title>
<g id="a_Node000058"><a xlink:href="_json_helper_8h.html" target="_top" xlink:title=" ">
<polygon fill="#fff0f0" stroke="red" points="3060.12,-138 2957.12,-138 2957.12,-118 3060.12,-118 3060.12,-138"/>
<text xml:space="preserve" text-anchor="middle" x="3008.62" y="-124.5" font-family="Helvetica,sans-Serif" font-size="10.00">model/JsonHelper.h</text>
</a>
</g>
</g>
<!-- Node1&#45;&gt;Node58 -->
<g id="edge25_Node000001_Node000058" class="edge">
<title>Node1&#45;&gt;Node58</title>
<g id="a_edge25_Node000001_Node000058"><a xlink:title=" ">
<path fill="none" stroke="#63b8ff" d="M3729.11,-188.4C3599.67,-186.46 3313.18,-178.29 3074.62,-144 3068.66,-143.14 3062.44,-142.03 3056.31,-140.79"/>
<polygon fill="#63b8ff" stroke="#63b8ff" points="3057.42,-137.45 3046.91,-138.78 3055.96,-144.3 3057.42,-137.45"/>
</a>
</g>
</g>
<!-- Node59 -->
<g id="Node000059" class="node">
<title>Node59</title>
<g id="a_Node000059"><a xlink:title=" ">
<polygon fill="#e0e0e0" stroke="#999999" points="2928.75,-76 2826.5,-76 2826.5,-56 2928.75,-56 2928.75,-76"/>
<text xml:space="preserve" text-anchor="middle" x="2877.62" y="-62.5" font-family="Helvetica,sans-Serif" font-size="10.00">QtCore/QJsonArray</text>
</a>
</g>
</g>
<!-- Node1&#45;&gt;Node59 -->
<g id="edge32_Node000001_Node000059" class="edge">
<title>Node1&#45;&gt;Node59</title>
<g id="a_edge32_Node000001_Node000059"><a xlink:title=" ">
<path fill="none" stroke="#63b8ff" d="M3729.32,-188.63C3537.32,-187.15 3008.04,-179.83 2938.62,-144 2914.66,-131.63 2897.02,-105.15 2887.04,-86.72"/>
<polygon fill="#63b8ff" stroke="#63b8ff" points="2890.17,-85.15 2882.51,-77.83 2883.93,-88.33 2890.17,-85.15"/>
</a>
</g>
</g>
<!-- Node60 -->
<g id="Node000060" class="node">
<title>Node60</title>
<g id="a_Node000060"><a xlink:title=" ">
<polygon fill="#e0e0e0" stroke="#999999" points="3070.62,-76 2946.62,-76 2946.62,-56 3070.62,-56 3070.62,-76"/>
<text xml:space="preserve" text-anchor="middle" x="3008.62" y="-62.5" font-family="Helvetica,sans-Serif" font-size="10.00">QtCore/QJsonDocument</text>
</a>
</g>
</g>
<!-- Node1&#45;&gt;Node60 -->
<g id="edge33_Node000001_Node000060" class="edge">
<title>Node1&#45;&gt;Node60</title>
<g id="a_edge33_Node000001_Node000060"><a xlink:title=" ">
<path fill="none" stroke="#63b8ff" d="M3729.09,-187.9C3530.85,-184.41 2975.34,-172.16 2948.62,-144 2938.84,-133.68 2942.26,-124.72 2948.62,-112 2954.89,-99.48 2966.47,-89.54 2977.8,-82.22"/>
<polygon fill="#63b8ff" stroke="#63b8ff" points="2979.42,-85.33 2986.25,-77.23 2975.86,-79.3 2979.42,-85.33"/>
</a>
</g>
</g>
<!-- Node61 -->
<g id="Node000061" class="node">
<title>Node61</title>
<g id="a_Node000061"><a xlink:title=" ">
<polygon fill="#e0e0e0" stroke="#999999" points="3196.38,-76 3088.88,-76 3088.88,-56 3196.38,-56 3196.38,-76"/>
<text xml:space="preserve" text-anchor="middle" x="3142.62" y="-62.5" font-family="Helvetica,sans-Serif" font-size="10.00">QtCore/QJsonObject</text>
</a>
</g>
</g>
<!-- Node1&#45;&gt;Node61 -->
<g id="edge34_Node000001_Node000061" class="edge">
<title>Node1&#45;&gt;Node61</title>
<g id="a_edge34_Node000001_Node000061"><a xlink:title=" ">
<path fill="none" stroke="#63b8ff" d="M3729.25,-189.73C3562.43,-190.75 3149.5,-188.69 3107.62,-144 3091.64,-126.94 3109.08,-101.31 3124.55,-84.37"/>
<polygon fill="#63b8ff" stroke="#63b8ff" points="3126.78,-87.1 3131.22,-77.49 3121.75,-82.23 3126.78,-87.1"/>
</a>
</g>
</g>
<!-- Node63 -->
<g id="Node000063" class="node">
<title>Node63</title>
<g id="a_Node000063"><a xlink:title=" ">
<polygon fill="#e0e0e0" stroke="#999999" points="3187,-138 3116.25,-138 3116.25,-118 3187,-118 3187,-138"/>
<text xml:space="preserve" text-anchor="middle" x="3151.62" y="-124.5" font-family="Helvetica,sans-Serif" font-size="10.00">QtCore/QDir</text>
</a>
</g>
</g>
<!-- Node1&#45;&gt;Node63 -->
<g id="edge29_Node000001_Node000063" class="edge">
<title>Node1&#45;&gt;Node63</title>
<g id="a_edge29_Node000001_Node000063"><a xlink:title=" ">
<path fill="none" stroke="#63b8ff" d="M3729.11,-189.51C3616.08,-189.06 3385.91,-182.87 3195.62,-144 3192.62,-143.39 3189.53,-142.62 3186.45,-141.77"/>
<polygon fill="#63b8ff" stroke="#63b8ff" points="3187.56,-138.45 3176.97,-138.83 3185.49,-145.13 3187.56,-138.45"/>
</a>
</g>
</g>
<!-- Node64 -->
<g id="Node000064" class="node">
<title>Node64</title>
<g id="a_Node000064"><a xlink:title=" ">
<polygon fill="#e0e0e0" stroke="#999999" points="3278.5,-138 3204.75,-138 3204.75,-118 3278.5,-118 3278.5,-138"/>
<text xml:space="preserve" text-anchor="middle" x="3241.62" y="-124.5" font-family="Helvetica,sans-Serif" font-size="10.00">QtCore/QFile</text>
</a>
</g>
</g>
<!-- Node1&#45;&gt;Node64 -->
<g id="edge30_Node000001_Node000064" class="edge">
<title>Node1&#45;&gt;Node64</title>
<g id="a_edge30_Node000001_Node000064"><a xlink:title=" ">
<path fill="none" stroke="#63b8ff" d="M3729.31,-187.87C3630.37,-185.14 3443.38,-175.82 3287.62,-144 3284.46,-143.35 3281.21,-142.56 3277.97,-141.69"/>
<polygon fill="#63b8ff" stroke="#63b8ff" points="3279.17,-138.39 3268.59,-138.89 3277.17,-145.1 3279.17,-138.39"/>
</a>
</g>
</g>
<!-- Node65 -->
<g id="Node000065" class="node">
<title>Node65</title>
<g id="a_Node000065"><a xlink:title=" ">
<polygon fill="#e0e0e0" stroke="#999999" points="3386.75,-138 3296.5,-138 3296.5,-118 3386.75,-118 3386.75,-138"/>
<text xml:space="preserve" text-anchor="middle" x="3341.62" y="-124.5" font-family="Helvetica,sans-Serif" font-size="10.00">QtCore/QFileInfo</text>
</a>
</g>
</g>
<!-- Node1&#45;&gt;Node65 -->
<g id="edge31_Node000001_Node000065" class="edge">
<title>Node1&#45;&gt;Node65</title>
<g id="a_edge31_Node000001_Node000065"><a xlink:title=" ">
<path fill="none" stroke="#63b8ff" d="M3729.31,-184.64C3648.61,-178.79 3511.57,-166.43 3395.62,-144 3391.57,-143.21 3387.36,-142.28 3383.18,-141.26"/>
<polygon fill="#63b8ff" stroke="#63b8ff" points="3384.29,-137.93 3373.73,-138.81 3382.53,-144.7 3384.29,-137.93"/>
</a>
</g>
</g>
<!-- Node66 -->
<g id="Node000066" class="node">
<title>Node66</title>
<g id="a_Node000066"><a xlink:title=" ">
<polygon fill="#e0e0e0" stroke="#999999" points="3526.88,-138 3404.38,-138 3404.38,-118 3526.88,-118 3526.88,-138"/>
<text xml:space="preserve" text-anchor="middle" x="3465.62" y="-124.5" font-family="Helvetica,sans-Serif" font-size="10.00">QtCore/QStandardPaths</text>
</a>
</g>
</g>
<!-- Node1&#45;&gt;Node66 -->
<g id="edge35_Node000001_Node000066" class="edge">
<title>Node1&#45;&gt;Node66</title>
<g id="a_edge35_Node000001_Node000066"><a xlink:title=" ">
<path fill="none" stroke="#63b8ff" d="M3738.96,-179.52C3685.57,-170.86 3605.22,-157.4 3535.62,-144 3530.41,-143 3524.98,-141.91 3519.56,-140.79"/>
<polygon fill="#63b8ff" stroke="#63b8ff" points="3520.5,-137.41 3509.99,-138.79 3519.06,-144.27 3520.5,-137.41"/>
</a>
</g>
</g>
<!-- Node67 -->
<g id="Node000067" class="node">
<title>Node67</title>
<g id="a_Node000067"><a xlink:title=" ">
<polygon fill="#e0e0e0" stroke="#999999" points="3624.5,-138 3544.75,-138 3544.75,-118 3624.5,-118 3624.5,-138"/>
<text xml:space="preserve" text-anchor="middle" x="3584.62" y="-124.5" font-family="Helvetica,sans-Serif" font-size="10.00">QtGui/QAction</text>
</a>
</g>
</g>
<!-- Node1&#45;&gt;Node67 -->
<g id="edge36_Node000001_Node000067" class="edge">
<title>Node1&#45;&gt;Node67</title>
<g id="a_edge36_Node000001_Node000067"><a xlink:title=" ">
<path fill="none" stroke="#63b8ff" d="M3762.81,-179.57C3729.33,-170.68 3677.98,-156.83 3633.62,-144 3631.07,-143.26 3628.43,-142.49 3625.78,-141.7"/>
<polygon fill="#63b8ff" stroke="#63b8ff" points="3626.94,-138.39 3616.35,-138.86 3624.92,-145.1 3626.94,-138.39"/>
</a>
</g>
</g>
<!-- Node68 -->
<g id="Node000068" class="node">
<title>Node68</title>
<g id="a_Node000068"><a xlink:title=" ">
<polygon fill="#e0e0e0" stroke="#999999" points="3745.12,-138 3642.12,-138 3642.12,-118 3745.12,-118 3745.12,-138"/>
<text xml:space="preserve" text-anchor="middle" x="3693.62" y="-124.5" font-family="Helvetica,sans-Serif" font-size="10.00">QtGui/QCloseEvent</text>
</a>
</g>
</g>
<!-- Node1&#45;&gt;Node68 -->
<g id="edge37_Node000001_Node000068" class="edge">
<title>Node1&#45;&gt;Node68</title>
<g id="a_edge37_Node000001_Node000068"><a xlink:title=" ">
<path fill="none" stroke="#63b8ff" d="M3782.22,-179.62C3765.5,-170.07 3739.31,-155.11 3719.74,-143.92"/>
<polygon fill="#63b8ff" stroke="#63b8ff" points="3721.65,-140.98 3711.23,-139.06 3718.18,-147.06 3721.65,-140.98"/>
</a>
</g>
</g>
<!-- Node69 -->
<g id="Node000069" class="node">
<title>Node69</title>
<g id="a_Node000069"><a xlink:title=" ">
<polygon fill="#e0e0e0" stroke="#999999" points="3834,-138 3763.25,-138 3763.25,-118 3834,-118 3834,-138"/>
<text xml:space="preserve" text-anchor="middle" x="3798.62" y="-124.5" font-family="Helvetica,sans-Serif" font-size="10.00">QtGui/QIcon</text>
</a>
</g>
</g>
<!-- Node1&#45;&gt;Node69 -->
<g id="edge38_Node000001_Node000069" class="edge">
<title>Node1&#45;&gt;Node69</title>
<g id="a_edge38_Node000001_Node000069"><a xlink:title=" ">
<path fill="none" stroke="#63b8ff" d="M3798.62,-179.62C3798.62,-171.56 3798.62,-159.65 3798.62,-149.41"/>
<polygon fill="#63b8ff" stroke="#63b8ff" points="3802.13,-149.63 3798.63,-139.63 3795.13,-149.63 3802.13,-149.63"/>
</a>
</g>
</g>
<!-- Node70 -->
<g id="Node000070" class="node">
<title>Node70</title>
<g id="a_Node000070"><a xlink:title=" ">
<polygon fill="#e0e0e0" stroke="#999999" points="3973.12,-138 3852.12,-138 3852.12,-118 3973.12,-118 3973.12,-138"/>
<text xml:space="preserve" text-anchor="middle" x="3912.62" y="-124.5" font-family="Helvetica,sans-Serif" font-size="10.00">QtWidgets/QApplication</text>
</a>
</g>
</g>
<!-- Node1&#45;&gt;Node70 -->
<g id="edge39_Node000001_Node000070" class="edge">
<title>Node1&#45;&gt;Node70</title>
<g id="a_edge39_Node000001_Node000070"><a xlink:title=" ">
<path fill="none" stroke="#63b8ff" d="M3816.44,-179.62C3834.76,-169.98 3863.55,-154.83 3884.86,-143.61"/>
<polygon fill="#63b8ff" stroke="#63b8ff" points="3886.38,-146.77 3893.6,-139.01 3883.12,-140.57 3886.38,-146.77"/>
</a>
</g>
</g>
<!-- Node71 -->
<g id="Node000071" class="node">
<title>Node71</title>
<g id="a_Node000071"><a xlink:title=" ">
<polygon fill="#e0e0e0" stroke="#999999" points="4107.88,-138 3991.38,-138 3991.38,-118 4107.88,-118 4107.88,-138"/>
<text xml:space="preserve" text-anchor="middle" x="4049.62" y="-124.5" font-family="Helvetica,sans-Serif" font-size="10.00">QtWidgets/QFileDialog</text>
</a>
</g>
</g>
<!-- Node1&#45;&gt;Node71 -->
<g id="edge40_Node000001_Node000071" class="edge">
<title>Node1&#45;&gt;Node71</title>
<g id="a_edge40_Node000001_Node000071"><a xlink:title=" ">
<path fill="none" stroke="#63b8ff" d="M3838.12,-179.56C3881.58,-169.17 3951.54,-152.45 3998.99,-141.1"/>
<polygon fill="#63b8ff" stroke="#63b8ff" points="3999.56,-144.57 4008.47,-138.84 3997.93,-137.76 3999.56,-144.57"/>
</a>
</g>
</g>
<!-- Node72 -->
<g id="Node000072" class="node">
<title>Node72</title>
<g id="a_Node000072"><a xlink:title=" ">
<polygon fill="#e0e0e0" stroke="#999999" points="4242.88,-138 4126.38,-138 4126.38,-118 4242.88,-118 4242.88,-138"/>
<text xml:space="preserve" text-anchor="middle" x="4184.62" y="-124.5" font-family="Helvetica,sans-Serif" font-size="10.00">QtWidgets/QGroupBox</text>
</a>
</g>
</g>
<!-- Node1&#45;&gt;Node72 -->
<g id="edge41_Node000001_Node000072" class="edge">
<title>Node1&#45;&gt;Node72</title>
<g id="a_edge41_Node000001_Node000072"><a xlink:title=" ">
<path fill="none" stroke="#63b8ff" d="M3868.04,-180.73C3932.62,-172.67 4031.44,-159.4 4116.62,-144 4121.92,-143.04 4127.43,-141.96 4132.93,-140.84"/>
<polygon fill="#63b8ff" stroke="#63b8ff" points="4133.56,-144.28 4142.61,-138.79 4132.11,-137.43 4133.56,-144.28"/>
</a>
</g>
</g>
<!-- Node73 -->
<g id="Node000073" class="node">
<title>Node73</title>
<g id="a_Node000073"><a xlink:title=" ">
<polygon fill="#e0e0e0" stroke="#999999" points="4390.62,-138 4260.62,-138 4260.62,-118 4390.62,-118 4390.62,-138"/>
<text xml:space="preserve" text-anchor="middle" x="4325.62" y="-124.5" font-family="Helvetica,sans-Serif" font-size="10.00">QtWidgets/QMessageBox</text>
</a>
</g>
</g>
<!-- Node1&#45;&gt;Node73 -->
<g id="edge42_Node000001_Node000073" class="edge">
<title>Node1&#45;&gt;Node73</title>
<g id="a_edge42_Node000001_Node000073"><a xlink:title=" ">
<path fill="none" stroke="#63b8ff" d="M3867.97,-184.3C3957.08,-177.76 4116.42,-164.37 4251.62,-144 4258.1,-143.02 4264.87,-141.86 4271.57,-140.61"/>
<polygon fill="#63b8ff" stroke="#63b8ff" points="4272.07,-144.08 4281.23,-138.75 4270.74,-137.21 4272.07,-144.08"/>
</a>
</g>
</g>
<!-- Node34 -->
<g id="Node000034" class="node">
<title>Node34</title>
<g id="a_Node000034"><a xlink:title=" ">
<polygon fill="#e0e0e0" stroke="#999999" points="4532.62,-138 4408.62,-138 4408.62,-118 4532.62,-118 4532.62,-138"/>
<text xml:space="preserve" text-anchor="middle" x="4470.62" y="-124.5" font-family="Helvetica,sans-Serif" font-size="10.00">QtWidgets/QPushButton</text>
</a>
</g>
</g>
<!-- Node1&#45;&gt;Node34 -->
<g id="edge43_Node000001_Node000034" class="edge">
<title>Node1&#45;&gt;Node34</title>
<g id="a_edge43_Node000001_Node000034"><a xlink:title=" ">
<path fill="none" stroke="#63b8ff" d="M3867.9,-186.82C3980.08,-182.61 4208.25,-171.26 4399.62,-144 4406.1,-143.08 4412.86,-141.91 4419.54,-140.64"/>
<polygon fill="#63b8ff" stroke="#63b8ff" points="4420.01,-144.12 4429.13,-138.72 4418.64,-137.25 4420.01,-144.12"/>
</a>
</g>
</g>
<!-- Node74 -->
<g id="Node000074" class="node">
<title>Node74</title>
<g id="a_Node000074"><a xlink:title=" ">
<polygon fill="#e0e0e0" stroke="#999999" points="4656.62,-138 4550.62,-138 4550.62,-118 4656.62,-118 4656.62,-138"/>
<text xml:space="preserve" text-anchor="middle" x="4603.62" y="-124.5" font-family="Helvetica,sans-Serif" font-size="10.00">QtWidgets/QToolBar</text>
</a>
</g>
</g>
<!-- Node1&#45;&gt;Node74 -->
<g id="edge44_Node000001_Node000074" class="edge">
<title>Node1&#45;&gt;Node74</title>
<g id="a_edge44_Node000001_Node000074"><a xlink:title=" ">
<path fill="none" stroke="#63b8ff" d="M3868.2,-188.88C4000.23,-187.74 4295.93,-180.86 4541.62,-144 4547.02,-143.19 4552.64,-142.14 4558.19,-140.96"/>
<polygon fill="#63b8ff" stroke="#63b8ff" points="4558.95,-144.38 4567.93,-138.76 4557.4,-137.55 4558.95,-144.38"/>
</a>
</g>
</g>
<!-- Node75 -->
<g id="Node000075" class="node">
<title>Node75</title>
<g id="a_Node000075"><a xlink:title=" ">
<polygon fill="#e0e0e0" stroke="#999999" points="4739,-138 4674.25,-138 4674.25,-118 4739,-118 4739,-138"/>
<text xml:space="preserve" text-anchor="middle" x="4706.62" y="-124.5" font-family="Helvetica,sans-Serif" font-size="10.00">QStringList</text>
</a>
</g>
</g>
<!-- Node1&#45;&gt;Node75 -->
<g id="edge47_Node000001_Node000075" class="edge">
<title>Node1&#45;&gt;Node75</title>
<g id="a_edge47_Node000001_Node000075"><a xlink:title=" ">
<path fill="none" stroke="#63b8ff" d="M3868.17,-188.06C4045.94,-185.24 4513.7,-175 4665.62,-144 4668.26,-143.46 4670.95,-142.79 4673.63,-142.02"/>
<polygon fill="#63b8ff" stroke="#63b8ff" points="4674.56,-145.4 4682.98,-138.96 4672.39,-138.74 4674.56,-145.4"/>
</a>
</g>
</g>
<!-- Node48 -->
<g id="Node000048" class="node">
<title>Node48</title>
<g id="a_Node000048"><a xlink:href="_element_graphics_item_8h.html" target="_top" xlink:title=" ">
<polygon fill="#fff0f0" stroke="red" points="4907.75,-138 4757.5,-138 4757.5,-118 4907.75,-118 4907.75,-138"/>
<text xml:space="preserve" text-anchor="middle" x="4832.62" y="-124.5" font-family="Helvetica,sans-Serif" font-size="10.00">viewer/ElementGraphicsItem.h</text>
</a>
</g>
</g>
<!-- Node1&#45;&gt;Node48 -->
<g id="edge48_Node000001_Node000048" class="edge">
<title>Node1&#45;&gt;Node48</title>
<g id="a_edge48_Node000001_Node000048"><a xlink:title=" ">
<path fill="none" stroke="#63b8ff" d="M3868.22,-188.73C4025.46,-187.45 4419.98,-180.53 4747.62,-144 4756.12,-143.05 4765.04,-141.78 4773.79,-140.38"/>
<polygon fill="#63b8ff" stroke="#63b8ff" points="4774.35,-143.84 4783.63,-138.73 4773.19,-136.93 4774.35,-143.84"/>
</a>
</g>
</g>
<!-- Node76 -->
<g id="Node000076" class="node">
<title>Node76</title>
<g id="a_Node000076"><a xlink:href="_quick_acess_tool_bar_8h.html" target="_top" xlink:title=" ">
<polygon fill="#fff0f0" stroke="red" points="5035.12,-138 4926.12,-138 4926.12,-118 5035.12,-118 5035.12,-138"/>
<text xml:space="preserve" text-anchor="middle" x="4980.62" y="-124.5" font-family="Helvetica,sans-Serif" font-size="10.00">QuickAcessToolbar.h</text>
</a>
</g>
</g>
<!-- Node1&#45;&gt;Node76 -->
<g id="edge49_Node000001_Node000076" class="edge">
<title>Node1&#45;&gt;Node76</title>
<g id="a_edge49_Node000001_Node000076"><a xlink:title=" ">
<path fill="none" stroke="#63b8ff" d="M3867.9,-187.94C4079.03,-184.42 4712.47,-171.78 4916.62,-144 4922.41,-143.21 4928.45,-142.14 4934.39,-140.93"/>
<polygon fill="#63b8ff" stroke="#63b8ff" points="4935.14,-144.35 4944.16,-138.79 4933.64,-137.51 4935.14,-144.35"/>
</a>
</g>
</g>
<!-- Node82 -->
<g id="Node000082" class="node">
<title>Node82</title>
<g id="a_Node000082"><a xlink:href="_attribute_8h.html" target="_top" xlink:title=" ">
<polygon fill="#fff0f0" stroke="red" points="5169.75,-76 5079.5,-76 5079.5,-56 5169.75,-56 5169.75,-76"/>
<text xml:space="preserve" text-anchor="middle" x="5124.62" y="-62.5" font-family="Helvetica,sans-Serif" font-size="10.00">model/Attribute.h</text>
</a>
</g>
</g>
<!-- Node1&#45;&gt;Node82 -->
<g id="edge50_Node000001_Node000082" class="edge">
<title>Node1&#45;&gt;Node82</title>
<g id="a_edge50_Node000001_Node000082"><a xlink:title=" ">
<path fill="none" stroke="#63b8ff" d="M3868.13,-189.31C4136.99,-190.19 5096.06,-190.08 5140.62,-144 5155.48,-128.64 5146.19,-103.28 5136.73,-85.89"/>
<polygon fill="#63b8ff" stroke="#63b8ff" points="5139.9,-84.38 5131.8,-77.55 5133.87,-87.94 5139.9,-84.38"/>
</a>
</g>
</g>
<!-- Node83 -->
<g id="Node000083" class="node">
<title>Node83</title>
<g id="a_Node000083"><a xlink:href="_attribute_type_8h.html" target="_top" xlink:title=" ">
<polygon fill="#fff0f0" stroke="red" points="5201.62,-20 5119.62,-20 5119.62,0 5201.62,0 5201.62,-20"/>
<text xml:space="preserve" text-anchor="middle" x="5160.62" y="-6.5" font-family="Helvetica,sans-Serif" font-size="10.00">AttributeType.h</text>
</a>
</g>
</g>
<!-- Node1&#45;&gt;Node83 -->
<g id="edge52_Node000001_Node000083" class="edge">
<title>Node1&#45;&gt;Node83</title>
<g id="a_edge52_Node000001_Node000083"><a xlink:title=" ">
<path fill="none" stroke="#63b8ff" d="M3868.24,-188.94C4138.68,-188.43 5107.23,-183.8 5158.62,-144 5190.34,-119.44 5186.21,-95.38 5178.62,-56 5176.98,-47.44 5173.71,-38.44 5170.42,-30.76"/>
<polygon fill="#63b8ff" stroke="#63b8ff" points="5173.6,-29.31 5166.22,-21.71 5167.25,-32.25 5173.6,-29.31"/>
</a>
</g>
</g>
<!-- Node85 -->
<g id="Node000085" class="node">
<title>Node85</title>
<g id="a_Node000085"><a xlink:href="_entity_8h.html" target="_top" xlink:title=" ">
<polygon fill="#fff0f0" stroke="red" points="5131.75,-138 5053.5,-138 5053.5,-118 5131.75,-118 5131.75,-138"/>
<text xml:space="preserve" text-anchor="middle" x="5092.62" y="-124.5" font-family="Helvetica,sans-Serif" font-size="10.00">model/Entity.h</text>
</a>
</g>
</g>
<!-- Node1&#45;&gt;Node85 -->
<g id="edge53_Node000001_Node000085" class="edge">
<title>Node1&#45;&gt;Node85</title>
<g id="a_edge53_Node000001_Node000085"><a xlink:title=" ">
<path fill="none" stroke="#63b8ff" d="M3868.2,-188.92C4095.67,-188.29 4815.8,-183.16 5044.62,-144 5048.28,-143.37 5052.05,-142.54 5055.79,-141.59"/>
<polygon fill="#63b8ff" stroke="#63b8ff" points="5056.66,-144.98 5065.32,-138.88 5054.75,-138.25 5056.66,-144.98"/>
</a>
</g>
</g>
<!-- Node86 -->
<g id="Node000086" class="node">
<title>Node86</title>
<g id="a_Node000086"><a xlink:href="_relationship_8h.html" target="_top" xlink:title=" ">
<polygon fill="#fff0f0" stroke="red" points="5333.38,-138 5225.88,-138 5225.88,-118 5333.38,-118 5333.38,-138"/>
<text xml:space="preserve" text-anchor="middle" x="5279.62" y="-124.5" font-family="Helvetica,sans-Serif" font-size="10.00">model/Relationship.h</text>
</a>
</g>
</g>
<!-- Node1&#45;&gt;Node86 -->
<g id="edge55_Node000001_Node000086" class="edge">
<title>Node1&#45;&gt;Node86</title>
<g id="a_edge55_Node000001_Node000086"><a xlink:title=" ">
<path fill="none" stroke="#63b8ff" d="M3868.19,-188.49C4114.89,-186.42 4947.23,-177.08 5211.62,-144 5218.16,-143.18 5224.99,-142.03 5231.69,-140.73"/>
<polygon fill="#63b8ff" stroke="#63b8ff" points="5232.22,-144.2 5241.3,-138.74 5230.8,-137.34 5232.22,-144.2"/>
</a>
</g>
</g>
<!-- Node89 -->
<g id="Node000089" class="node">
<title>Node89</title>
<g id="a_Node000089"><a xlink:href="_relationship_connection_line_8h.html" target="_top" xlink:title=" ">
<polygon fill="#fff0f0" stroke="red" points="5500,-144 5351.25,-144 5351.25,-112 5500,-112 5500,-144"/>
<text xml:space="preserve" text-anchor="start" x="5359.25" y="-130.5" font-family="Helvetica,sans-Serif" font-size="10.00">model/RelationshipConnection</text>
<text xml:space="preserve" text-anchor="middle" x="5425.62" y="-118.5" font-family="Helvetica,sans-Serif" font-size="10.00">Line.h</text>
</a>
</g>
</g>
<!-- Node1&#45;&gt;Node89 -->
<g id="edge56_Node000001_Node000089" class="edge">
<title>Node1&#45;&gt;Node89</title>
<g id="a_edge56_Node000001_Node000089"><a xlink:title=" ">
<path fill="none" stroke="#63b8ff" d="M3868.2,-188.36C4126.13,-185.76 5028.33,-174.73 5339.77,-144.16"/>
<polygon fill="#63b8ff" stroke="#63b8ff" points="5339.94,-147.66 5349.54,-143.17 5339.24,-140.7 5339.94,-147.66"/>
</a>
</g>
</g>
<!-- Node3 -->
<g id="Node000003" class="node">
<title>Node3</title>
<g id="a_Node000003"><a xlink:title=" ">
<polygon fill="#e0e0e0" stroke="#999999" points="2503.25,-76 2464,-76 2464,-56 2503.25,-56 2503.25,-76"/>
<text xml:space="preserve" text-anchor="middle" x="2483.62" y="-62.5" font-family="Helvetica,sans-Serif" font-size="10.00">QList</text>
</a>
</g>
</g>
<!-- Node2&#45;&gt;Node3 -->
<g id="edge2_Node000002_Node000003" class="edge">
<title>Node2&#45;&gt;Node3</title>
<g id="a_edge2_Node000002_Node000003"><a xlink:title=" ">
<path fill="none" stroke="#63b8ff" d="M1536.89,-126.18C1692.07,-122.84 2252.17,-108.85 2452.26,-75.89"/>
<polygon fill="#63b8ff" stroke="#63b8ff" points="2452.75,-79.35 2462.01,-74.2 2451.56,-72.46 2452.75,-79.35"/>
</a>
</g>
</g>
<!-- Node4 -->
<g id="Node000004" class="node">
<title>Node4</title>
<g id="a_Node000004"><a xlink:title=" ">
<polygon fill="#e0e0e0" stroke="#999999" points="81.25,-76 0,-76 0,-56 81.25,-56 81.25,-76"/>
<text xml:space="preserve" text-anchor="middle" x="40.62" y="-62.5" font-family="Helvetica,sans-Serif" font-size="10.00">QtCore/QHash</text>
</a>
</g>
</g>
<!-- Node2&#45;&gt;Node4 -->
<g id="edge3_Node000002_Node000004" class="edge">
<title>Node2&#45;&gt;Node4</title>
<g id="a_edge3_Node000002_Node000004"><a xlink:title=" ">
<path fill="none" stroke="#63b8ff" d="M1456.54,-126.31C1259.14,-122.83 388.47,-106.06 92.61,-76.01"/>
<polygon fill="#63b8ff" stroke="#63b8ff" points="93.3,-72.56 82.99,-75 92.57,-79.52 93.3,-72.56"/>
</a>
</g>
</g>
<!-- Node5 -->
<g id="Node000005" class="node">
<title>Node5</title>
<g id="a_Node000005"><a xlink:title=" ">
<polygon fill="#e0e0e0" stroke="#999999" points="188,-76 99.25,-76 99.25,-56 188,-56 188,-76"/>
<text xml:space="preserve" text-anchor="middle" x="143.62" y="-62.5" font-family="Helvetica,sans-Serif" font-size="10.00">QtCore/QPointer</text>
</a>
</g>
</g>
<!-- Node2&#45;&gt;Node5 -->
<g id="edge4_Node000002_Node000005" class="edge">
<title>Node2&#45;&gt;Node5</title>
<g id="a_edge4_Node000002_Node000005"><a xlink:title=" ">
<path fill="none" stroke="#63b8ff" d="M1456.36,-127.26C1297.79,-127.91 700.97,-126.7 199.8,-76.07"/>
<polygon fill="#63b8ff" stroke="#63b8ff" points="200.16,-72.59 189.86,-75.05 199.45,-79.55 200.16,-72.59"/>
</a>
</g>
</g>
<!-- Node6 -->
<g id="Node000006" class="node">
<title>Node6</title>
<g id="a_Node000006"><a xlink:title=" ">
<polygon fill="#e0e0e0" stroke="#999999" points="325,-76 206.25,-76 206.25,-56 325,-56 325,-76"/>
<text xml:space="preserve" text-anchor="middle" x="265.62" y="-62.5" font-family="Helvetica,sans-Serif" font-size="10.00">QtWidgets/QCheckBox</text>
</a>
</g>
</g>
<!-- Node2&#45;&gt;Node6 -->
<g id="edge5_Node000002_Node000006" class="edge">
<title>Node2&#45;&gt;Node6</title>
<g id="a_edge5_Node000002_Node000006"><a xlink:title=" ">
<path fill="none" stroke="#63b8ff" d="M1456.37,-126.51C1308.52,-124.46 781.37,-114.76 336.45,-76.17"/>
<polygon fill="#63b8ff" stroke="#63b8ff" points="337.07,-72.71 326.8,-75.33 336.46,-79.69 337.07,-72.71"/>
</a>
</g>
</g>
<!-- Node7 -->
<g id="Node000007" class="node">
<title>Node7</title>
<g id="a_Node000007"><a xlink:title=" ">
<polygon fill="#e0e0e0" stroke="#999999" points="464.5,-76 342.75,-76 342.75,-56 464.5,-56 464.5,-76"/>
<text xml:space="preserve" text-anchor="middle" x="403.62" y="-62.5" font-family="Helvetica,sans-Serif" font-size="10.00">QtWidgets/QComboBox</text>
</a>
</g>
</g>
<!-- Node2&#45;&gt;Node7 -->
<g id="edge6_Node000002_Node000007" class="edge">
<title>Node2&#45;&gt;Node7</title>
<g id="a_edge6_Node000002_Node000007"><a xlink:title=" ">
<path fill="none" stroke="#63b8ff" d="M1456.57,-126.13C1320.66,-122.93 864.36,-110.25 476.14,-76.15"/>
<polygon fill="#63b8ff" stroke="#63b8ff" points="476.46,-72.66 466.19,-75.27 475.84,-79.64 476.46,-72.66"/>
</a>
</g>
</g>
<!-- Node8 -->
<g id="Node000008" class="node">
<title>Node8</title>
<g id="a_Node000008"><a xlink:title=" ">
<polygon fill="#e0e0e0" stroke="#999999" points="622.5,-76 482.75,-76 482.75,-56 622.5,-56 622.5,-76"/>
<text xml:space="preserve" text-anchor="middle" x="552.62" y="-62.5" font-family="Helvetica,sans-Serif" font-size="10.00">QtWidgets/QGraphicsScene</text>
</a>
</g>
</g>
<!-- Node2&#45;&gt;Node8 -->
<g id="edge7_Node000002_Node000008" class="edge">
<title>Node2&#45;&gt;Node8</title>
<g id="a_edge7_Node000002_Node000008"><a xlink:title=" ">
<path fill="none" stroke="#63b8ff" d="M1456.47,-125.41C1334.53,-120.43 957.58,-103.79 633.83,-76.14"/>
<polygon fill="#63b8ff" stroke="#63b8ff" points="634.59,-72.7 624.32,-75.33 633.99,-79.67 634.59,-72.7"/>
</a>
</g>
</g>
<!-- Node9 -->
<g id="Node000009" class="node">
<title>Node9</title>
<g id="a_Node000009"><a xlink:title=" ">
<polygon fill="#e0e0e0" stroke="#999999" points="774.5,-76 640.75,-76 640.75,-56 774.5,-56 774.5,-76"/>
<text xml:space="preserve" text-anchor="middle" x="707.62" y="-62.5" font-family="Helvetica,sans-Serif" font-size="10.00">QtWidgets/QGraphicsView</text>
</a>
</g>
</g>
<!-- Node2&#45;&gt;Node9 -->
<g id="edge8_Node000002_Node000009" class="edge">
<title>Node2&#45;&gt;Node9</title>
<g id="a_edge8_Node000002_Node000009"><a xlink:title=" ">
<path fill="none" stroke="#63b8ff" d="M1456.31,-124.8C1349.03,-118.81 1047.41,-101.01 785.91,-76.28"/>
<polygon fill="#63b8ff" stroke="#63b8ff" points="786.46,-72.81 776.17,-75.35 785.8,-79.78 786.46,-72.81"/>
</a>
</g>
</g>
<!-- Node10 -->
<g id="Node000010" class="node">
<title>Node10</title>
<g id="a_Node000010"><a xlink:title=" ">
<polygon fill="#e0e0e0" stroke="#999999" points="919.12,-76 792.12,-76 792.12,-56 919.12,-56 919.12,-76"/>
<text xml:space="preserve" text-anchor="middle" x="855.62" y="-62.5" font-family="Helvetica,sans-Serif" font-size="10.00">QtWidgets/QHBoxLayout</text>
</a>
</g>
</g>
<!-- Node2&#45;&gt;Node10 -->
<g id="edge9_Node000002_Node000010" class="edge">
<title>Node2&#45;&gt;Node10</title>
<g id="a_edge9_Node000002_Node000010"><a xlink:title=" ">
<path fill="none" stroke="#63b8ff" d="M1456.29,-123.84C1364.9,-116.58 1134.78,-97.75 930.56,-76.17"/>
<polygon fill="#63b8ff" stroke="#63b8ff" points="931.13,-72.71 920.82,-75.14 930.39,-79.67 931.13,-72.71"/>
</a>
</g>
</g>
<!-- Node11 -->
<g id="Node000011" class="node">
<title>Node11</title>
<g id="a_Node000011"><a xlink:title=" ">
<polygon fill="#e0e0e0" stroke="#999999" points="1033.75,-76 937.5,-76 937.5,-56 1033.75,-56 1033.75,-76"/>
<text xml:space="preserve" text-anchor="middle" x="985.62" y="-62.5" font-family="Helvetica,sans-Serif" font-size="10.00">QtWidgets/QLabel</text>
</a>
</g>
</g>
<!-- Node2&#45;&gt;Node11 -->
<g id="edge10_Node000002_Node000011" class="edge">
<title>Node2&#45;&gt;Node11</title>
<g id="a_edge10_Node000002_Node000011"><a xlink:title=" ">
<path fill="none" stroke="#63b8ff" d="M1456.47,-123.1C1379.07,-115.45 1203.59,-97.46 1045.47,-76.33"/>
<polygon fill="#63b8ff" stroke="#63b8ff" points="1045.99,-72.87 1035.61,-75.01 1045.06,-79.81 1045.99,-72.87"/>
</a>
</g>
</g>
<!-- Node12 -->
<g id="Node000012" class="node">
<title>Node12</title>
<g id="a_Node000012"><a xlink:title=" ">
<polygon fill="#e0e0e0" stroke="#999999" points="1159.75,-76 1051.5,-76 1051.5,-56 1159.75,-56 1159.75,-76"/>
<text xml:space="preserve" text-anchor="middle" x="1105.62" y="-62.5" font-family="Helvetica,sans-Serif" font-size="10.00">QtWidgets/QLineEdit</text>
</a>
</g>
</g>
<!-- Node2&#45;&gt;Node12 -->
<g id="edge11_Node000002_Node000012" class="edge">
<title>Node2&#45;&gt;Node12</title>
<g id="a_edge11_Node000002_Node000012"><a xlink:title=" ">
<path fill="none" stroke="#63b8ff" d="M1456.25,-120.8C1388.79,-110.45 1252.56,-89.55 1171.19,-77.06"/>
<polygon fill="#63b8ff" stroke="#63b8ff" points="1172,-73.64 1161.58,-75.59 1170.94,-80.56 1172,-73.64"/>
</a>
</g>
</g>
<!-- Node13 -->
<g id="Node000013" class="node">
<title>Node13</title>
<g id="a_Node000013"><a xlink:title=" ">
<polygon fill="#e0e0e0" stroke="#999999" points="1307.25,-76 1178,-76 1178,-56 1307.25,-56 1307.25,-76"/>
<text xml:space="preserve" text-anchor="middle" x="1242.62" y="-62.5" font-family="Helvetica,sans-Serif" font-size="10.00">QtWidgets/QMainWindow</text>
</a>
</g>
</g>
<!-- Node2&#45;&gt;Node13 -->
<g id="edge12_Node000002_Node000013" class="edge">
<title>Node2&#45;&gt;Node13</title>
<g id="a_edge12_Node000002_Node000013"><a xlink:title=" ">
<path fill="none" stroke="#63b8ff" d="M1456.66,-117.56C1412.68,-107.17 1341.88,-90.45 1293.86,-79.1"/>
<polygon fill="#63b8ff" stroke="#63b8ff" points="1294.79,-75.73 1284.25,-76.83 1293.18,-82.54 1294.79,-75.73"/>
</a>
</g>
</g>
<!-- Node14 -->
<g id="Node000014" class="node">
<title>Node14</title>
<g id="a_Node000014"><a xlink:title=" ">
<polygon fill="#e0e0e0" stroke="#999999" points="1422.12,-76 1325.12,-76 1325.12,-56 1422.12,-56 1422.12,-76"/>
<text xml:space="preserve" text-anchor="middle" x="1373.62" y="-62.5" font-family="Helvetica,sans-Serif" font-size="10.00">QtWidgets/QMenu</text>
</a>
</g>
</g>
<!-- Node2&#45;&gt;Node14 -->
<g id="edge13_Node000002_Node000014" class="edge">
<title>Node2&#45;&gt;Node14</title>
<g id="a_edge13_Node000002_Node000014"><a xlink:title=" ">
<path fill="none" stroke="#63b8ff" d="M1477.41,-117.62C1457.46,-107.89 1426.01,-92.55 1402.95,-81.31"/>
<polygon fill="#63b8ff" stroke="#63b8ff" points="1404.59,-78.21 1394.07,-76.97 1401.52,-84.5 1404.59,-78.21"/>
</a>
</g>
</g>
<!-- Node15 -->
<g id="Node000015" class="node">
<title>Node15</title>
<g id="a_Node000015"><a xlink:title=" ">
<polygon fill="#e0e0e0" stroke="#999999" points="1552.62,-76 1440.62,-76 1440.62,-56 1552.62,-56 1552.62,-76"/>
<text xml:space="preserve" text-anchor="middle" x="1496.62" y="-62.5" font-family="Helvetica,sans-Serif" font-size="10.00">QtWidgets/QMenuBar</text>
</a>
</g>
</g>
<!-- Node2&#45;&gt;Node15 -->
<g id="edge14_Node000002_Node000015" class="edge">
<title>Node2&#45;&gt;Node15</title>
<g id="a_edge14_Node000002_Node000015"><a xlink:title=" ">
<path fill="none" stroke="#63b8ff" d="M1496.62,-117.62C1496.62,-109.56 1496.62,-97.65 1496.62,-87.41"/>
<polygon fill="#63b8ff" stroke="#63b8ff" points="1500.13,-87.63 1496.63,-77.63 1493.13,-87.63 1500.13,-87.63"/>
</a>
</g>
</g>
<!-- Node16 -->
<g id="Node000016" class="node">
<title>Node16</title>
<g id="a_Node000016"><a xlink:title=" ">
<polygon fill="#e0e0e0" stroke="#999999" points="1688.62,-76 1570.62,-76 1570.62,-56 1688.62,-56 1688.62,-76"/>
<text xml:space="preserve" text-anchor="middle" x="1629.62" y="-62.5" font-family="Helvetica,sans-Serif" font-size="10.00">QtWidgets/QScrollArea</text>
</a>
</g>
</g>
<!-- Node2&#45;&gt;Node16 -->
<g id="edge15_Node000002_Node000016" class="edge">
<title>Node2&#45;&gt;Node16</title>
<g id="a_edge15_Node000002_Node000016"><a xlink:title=" ">
<path fill="none" stroke="#63b8ff" d="M1517.41,-117.62C1539.17,-107.81 1573.6,-92.27 1598.59,-81"/>
<polygon fill="#63b8ff" stroke="#63b8ff" points="1599.93,-84.23 1607.61,-76.93 1597.06,-77.85 1599.93,-84.23"/>
</a>
</g>
</g>
<!-- Node17 -->
<g id="Node000017" class="node">
<title>Node17</title>
<g id="a_Node000017"><a xlink:title=" ">
<polygon fill="#e0e0e0" stroke="#999999" points="1810.5,-76 1706.75,-76 1706.75,-56 1810.5,-56 1810.5,-76"/>
<text xml:space="preserve" text-anchor="middle" x="1758.62" y="-62.5" font-family="Helvetica,sans-Serif" font-size="10.00">QtWidgets/QSplitter</text>
</a>
</g>
</g>
<!-- Node2&#45;&gt;Node17 -->
<g id="edge16_Node000002_Node000017" class="edge">
<title>Node2&#45;&gt;Node17</title>
<g id="a_edge16_Node000002_Node000017"><a xlink:title=" ">
<path fill="none" stroke="#63b8ff" d="M1536.99,-117.76C1582.4,-107.36 1656.31,-90.43 1706.16,-79.01"/>
<polygon fill="#63b8ff" stroke="#63b8ff" points="1706.91,-82.43 1715.88,-76.79 1705.35,-75.61 1706.91,-82.43"/>
</a>
</g>
</g>
<!-- Node18 -->
<g id="Node000018" class="node">
<title>Node18</title>
<g id="a_Node000018"><a xlink:title=" ">
<polygon fill="#e0e0e0" stroke="#999999" points="1944.88,-76 1828.38,-76 1828.38,-56 1944.88,-56 1944.88,-76"/>
<text xml:space="preserve" text-anchor="middle" x="1886.62" y="-62.5" font-family="Helvetica,sans-Serif" font-size="10.00">QtWidgets/QStatusBar</text>
</a>
</g>
</g>
<!-- Node2&#45;&gt;Node18 -->
<g id="edge17_Node000002_Node000018" class="edge">
<title>Node2&#45;&gt;Node18</title>
<g id="a_edge17_Node000002_Node000018"><a xlink:title=" ">
<path fill="none" stroke="#63b8ff" d="M1536.89,-120.8C1602.97,-110.64 1735.21,-90.29 1816.8,-77.74"/>
<polygon fill="#63b8ff" stroke="#63b8ff" points="1817.12,-81.23 1826.47,-76.25 1816.05,-74.32 1817.12,-81.23"/>
</a>
</g>
</g>
<!-- Node19 -->
<g id="Node000019" class="node">
<title>Node19</title>
<g id="a_Node000019"><a xlink:title=" ">
<polygon fill="#e0e0e0" stroke="#999999" points="2082.38,-76 1962.88,-76 1962.88,-56 2082.38,-56 2082.38,-76"/>
<text xml:space="preserve" text-anchor="middle" x="2022.62" y="-62.5" font-family="Helvetica,sans-Serif" font-size="10.00">QtWidgets/QTabWidget</text>
</a>
</g>
</g>
<!-- Node2&#45;&gt;Node19 -->
<g id="edge18_Node000002_Node000019" class="edge">
<title>Node2&#45;&gt;Node19</title>
<g id="a_edge18_Node000002_Node000019"><a xlink:title=" ">
<path fill="none" stroke="#63b8ff" d="M1536.69,-122.78C1614.45,-114.54 1791.48,-95.51 1951.43,-76.25"/>
<polygon fill="#63b8ff" stroke="#63b8ff" points="1951.41,-79.77 1960.92,-75.1 1950.57,-72.83 1951.41,-79.77"/>
</a>
</g>
</g>
<!-- Node20 -->
<g id="Node000020" class="node">
<title>Node20</title>
<g id="a_Node000020"><a xlink:title=" ">
<polygon fill="#e0e0e0" stroke="#999999" points="2223.25,-76 2100,-76 2100,-56 2223.25,-56 2223.25,-76"/>
<text xml:space="preserve" text-anchor="middle" x="2161.62" y="-62.5" font-family="Helvetica,sans-Serif" font-size="10.00">QtWidgets/QTreeWidget</text>
</a>
</g>
</g>
<!-- Node2&#45;&gt;Node20 -->
<g id="edge19_Node000002_Node000020" class="edge">
<title>Node2&#45;&gt;Node20</title>
<g id="a_edge19_Node000002_Node000020"><a xlink:title=" ">
<path fill="none" stroke="#63b8ff" d="M1536.73,-124.15C1631.06,-117.33 1874.62,-98.97 2088.67,-76.28"/>
<polygon fill="#63b8ff" stroke="#63b8ff" points="2088.73,-79.79 2098.3,-75.25 2087.99,-72.83 2088.73,-79.79"/>
</a>
</g>
</g>
<!-- Node2&#45;&gt;Node21 -->
<g id="edge20_Node000002_Node000021" class="edge">
<title>Node2&#45;&gt;Node21</title>
<g id="a_edge20_Node000002_Node000021"><a xlink:title=" ">
<path fill="none" stroke="#63b8ff" d="M1536.86,-125.88C1672.37,-121.9 2124.77,-107.09 2509.75,-76.19"/>
<polygon fill="#63b8ff" stroke="#63b8ff" points="2509.92,-79.68 2519.61,-75.39 2509.36,-72.71 2509.92,-79.68"/>
</a>
</g>
</g>
<!-- Node2&#45;&gt;Node22 -->
<g id="edge21_Node000002_Node000022" class="edge">
<title>Node2&#45;&gt;Node22</title>
<g id="a_edge21_Node000002_Node000022"><a xlink:title=" ">
<path fill="none" stroke="#63b8ff" d="M1536.8,-126.41C1685.55,-123.99 2219.19,-113.16 2671.02,-76.05"/>
<polygon fill="#63b8ff" stroke="#63b8ff" points="2671.16,-79.55 2680.84,-75.24 2670.59,-72.57 2671.16,-79.55"/>
</a>
</g>
</g>
<!-- Node23 -->
<g id="Node000023" class="node">
<title>Node23</title>
<g id="a_Node000023"><a xlink:title=" ">
<polygon fill="#e0e0e0" stroke="#999999" points="2345.5,-76 2241.75,-76 2241.75,-56 2345.5,-56 2345.5,-76"/>
<text xml:space="preserve" text-anchor="middle" x="2293.62" y="-62.5" font-family="Helvetica,sans-Serif" font-size="10.00">QtWidgets/QWidget</text>
</a>
</g>
</g>
<!-- Node2&#45;&gt;Node23 -->
<g id="edge22_Node000002_Node000023" class="edge">
<title>Node2&#45;&gt;Node23</title>
<g id="a_edge22_Node000002_Node000023"><a xlink:title=" ">
<path fill="none" stroke="#63b8ff" d="M1536.61,-125.32C1645.91,-120.49 1959.04,-105.1 2230.17,-76.18"/>
<polygon fill="#63b8ff" stroke="#63b8ff" points="2230.34,-79.69 2239.91,-75.14 2229.59,-72.73 2230.34,-79.69"/>
</a>
</g>
</g>
<!-- Node24 -->
<g id="Node000024" class="node">
<title>Node24</title>
<g id="a_Node000024"><a xlink:title=" ">
<polygon fill="#e0e0e0" stroke="#999999" points="2446,-76 2363.25,-76 2363.25,-56 2446,-56 2446,-76"/>
<text xml:space="preserve" text-anchor="middle" x="2404.62" y="-62.5" font-family="Helvetica,sans-Serif" font-size="10.00">QtCore/QTimer</text>
</a>
</g>
</g>
<!-- Node2&#45;&gt;Node24 -->
<g id="edge23_Node000002_Node000024" class="edge">
<title>Node2&#45;&gt;Node24</title>
<g id="a_edge23_Node000002_Node000024"><a xlink:title=" ">
<path fill="none" stroke="#63b8ff" d="M1536.98,-126.3C1658.6,-123.84 2032.34,-113.63 2351.61,-76.23"/>
<polygon fill="#63b8ff" stroke="#63b8ff" points="2351.92,-79.72 2361.44,-75.06 2351.09,-72.76 2351.92,-79.72"/>
</a>
</g>
</g>
<!-- Node58&#45;&gt;Node59 -->
<g id="edge26_Node000058_Node000059" class="edge">
<title>Node58&#45;&gt;Node59</title>
<g id="a_edge26_Node000058_Node000059"><a xlink:title=" ">
<path fill="none" stroke="#63b8ff" d="M2988.16,-117.62C2966.72,-107.81 2932.81,-92.27 2908.19,-81"/>
<polygon fill="#63b8ff" stroke="#63b8ff" points="2909.88,-77.92 2899.33,-76.94 2906.96,-84.29 2909.88,-77.92"/>
</a>
</g>
</g>
<!-- Node58&#45;&gt;Node60 -->
<g id="edge27_Node000058_Node000060" class="edge">
<title>Node58&#45;&gt;Node60</title>
<g id="a_edge27_Node000058_Node000060"><a xlink:title=" ">
<path fill="none" stroke="#63b8ff" d="M3008.62,-117.62C3008.62,-109.56 3008.62,-97.65 3008.62,-87.41"/>
<polygon fill="#63b8ff" stroke="#63b8ff" points="3012.13,-87.63 3008.63,-77.63 3005.13,-87.63 3012.13,-87.63"/>
</a>
</g>
</g>
<!-- Node58&#45;&gt;Node61 -->
<g id="edge28_Node000058_Node000061" class="edge">
<title>Node58&#45;&gt;Node61</title>
<g id="a_edge28_Node000058_Node000061"><a xlink:title=" ">
<path fill="none" stroke="#63b8ff" d="M3029.56,-117.62C3051.49,-107.81 3086.18,-92.27 3111.36,-81"/>
<polygon fill="#63b8ff" stroke="#63b8ff" points="3112.76,-84.21 3120.45,-76.93 3109.9,-77.82 3112.76,-84.21"/>
</a>
</g>
</g>
<!-- Node82&#45;&gt;Node83 -->
<g id="edge51_Node000082_Node000083" class="edge">
<title>Node82&#45;&gt;Node83</title>
<g id="a_edge51_Node000082_Node000083"><a xlink:title=" ">
<path fill="none" stroke="#63b8ff" d="M5130.9,-55.59C5135.64,-48.47 5142.32,-38.45 5148.15,-29.72"/>
<polygon fill="#63b8ff" stroke="#63b8ff" points="5150.95,-31.82 5153.59,-21.56 5145.13,-27.94 5150.95,-31.82"/>
</a>
</g>
</g>
<!-- Node85&#45;&gt;Node82 -->
<g id="edge54_Node000085_Node000082" class="edge">
<title>Node85&#45;&gt;Node82</title>
<g id="a_edge54_Node000085_Node000082"><a xlink:title=" ">
<path fill="none" stroke="#63b8ff" d="M5097.62,-117.62C5102.11,-109.21 5108.84,-96.6 5114.45,-86.07"/>
<polygon fill="#63b8ff" stroke="#63b8ff" points="5117.43,-87.92 5119.05,-77.45 5111.26,-84.62 5117.43,-87.92"/>
</a>
</g>
</g>
</g>
</svg>

<g id="navigator" transform="translate(0 0)" fill="#404254">
  <rect fill="#f2f5e9" fill-opacity="0.5" stroke="#606060" stroke-width=".5" x="0" y="0" width="60" height="60"/>
  <use id="zoomplus" xlink:href="#zoomPlus" x="17" y="9" onmousedown="handleZoom(evt,'in')"/>
  <use id="zoomminus" xlink:href="#zoomMin" x="42" y="9" onmousedown="handleZoom(evt,'out')"/>
  <use id="reset" xlink:href="#resetDef" x="30" y="36" onmousedown="handleReset()"/>
   <use id="arrowup" xlink:href="#arrowUp" x="0" y="0" onmousedown="handlePan(0,-1)"/>
  <use id="arrowright" xlink:href="#arrowRight" x="0" y="0" onmousedown="handlePan(1,0)"/>
  <use id="arrowdown" xlink:href="#arrowDown" x="0" y="0" onmousedown="handlePan(0,1)"/>
  <use id="arrowleft" xlink:href="#arrowLeft" x="0" y="0" onmousedown="handlePan(-1,0)"/>
</g>
<svg viewBox="0 0 15 15" width="100%" height="30px" preserveAspectRatio="xMaxYMin meet">
 <g id="arrow_out" transform="scale(0.3 0.3)">
  <a xlink:href="_main_window_8cpp__incl_org.svg" target="_base">
   <rect id="button" ry="5" rx="5" y="6" x="6" height="38" width="38"
        fill="#f2f5e9" fill-opacity="0.5" stroke="#606060" stroke-width="1.0"/>
   <path id="arrow"
     d="M 11.500037,31.436501 C 11.940474,20.09759 22.043105,11.32322 32.158766,21.979434 L 37.068811,17.246167 C 37.068811,17.246167 37.088388,32 37.088388,32 L 22.160133,31.978069 C 22.160133,31.978069 26.997745,27.140456 26.997745,27.140456 C 18.528582,18.264221 13.291696,25.230495 11.500037,31.436501 z"
     style="fill:#404040;"/>
  </a>
 </g>
</svg>

<style type='text/css'>
<![CDATA[
[data-mouse-over-selected='false'] { opacity: 0.7; }
[data-mouse-over-selected='true']  { opacity: 1.0; }
]]>
</style>
<script type="application/ecmascript"><![CDATA[
document.addEventListener('DOMContentLoaded', (event) => {
  highlightEdges();
  highlightAdjacentNodes();
});
]]></script>
</svg>
