<?xml version="1.0" encoding="UTF-8" standalone="no"?>
<!DOCTYPE svg PUBLIC "-//W3C//DTD SVG 1.1//EN"
 "http://www.w3.org/Graphics/SVG/1.1/DTD/svg11.dtd">
<!-- Generated by graphviz version 14.1.1 (20251213.1925)
 -->
<!-- Title: src/view/MainWindow.cpp Pages: 1 -->
<svg width="3710pt" height="252pt"
 viewBox="0.00 0.00 3710.00 252.00" xmlns="http://www.w3.org/2000/svg" xmlns:xlink="http://www.w3.org/1999/xlink">
<g id="graph0" class="graph" transform="scale(1 1) rotate(0) translate(4 248)">
<title>src/view/MainWindow.cpp</title>
<!-- Node1 -->
<g id="Node000001" class="node">
<title>Node1</title>
<g id="a_Node000001"><a xlink:title=" ">
<polygon fill="#999999" stroke="#666666" points="2553.85,-244 2423.85,-244 2423.85,-224 2553.85,-224 2553.85,-244"/>
<text xml:space="preserve" text-anchor="middle" x="2488.85" y="-230.5" font-family="Helvetica,sans-Serif" font-size="10.00">src/view/MainWindow.cpp</text>
</a>
</g>
</g>
<!-- Node2 -->
<g id="Node000002" class="node">
<title>Node2</title>
<g id="a_Node000002"><a xlink:href="_main_window_8h.html" target="_top" xlink:title=" ">
<polygon fill="white" stroke="#666666" points="1859.73,-188 1779.98,-188 1779.98,-168 1859.73,-168 1859.73,-188"/>
<text xml:space="preserve" text-anchor="middle" x="1819.85" y="-174.5" font-family="Helvetica,sans-Serif" font-size="10.00">MainWindow.h</text>
</a>
</g>
</g>
<!-- Node1&#45;&gt;Node2 -->
<g id="edge1_Node000001_Node000002" class="edge">
<title>Node1&#45;&gt;Node2</title>
<g id="a_edge1_Node000001_Node000002"><a xlink:title=" ">
<path fill="none" stroke="#63b8ff" d="M2423.49,-227.72C2290.65,-217 1991.55,-192.86 1871.33,-183.15"/>
<polygon fill="#63b8ff" stroke="#63b8ff" points="1871.68,-179.67 1861.43,-182.36 1871.12,-186.65 1871.68,-179.67"/>
</a>
</g>
</g>
<!-- Node18 -->
<g id="Node000018" class="node">
<title>Node18</title>
<g id="a_Node000018"><a xlink:title=" ">
<polygon fill="#e0e0e0" stroke="#999999" points="1296.85,-76 1172.85,-76 1172.85,-56 1296.85,-56 1296.85,-76"/>
<text xml:space="preserve" text-anchor="middle" x="1234.85" y="-62.5" font-family="Helvetica,sans-Serif" font-size="10.00">QtWidgets/QPushButton</text>
</a>
</g>
</g>
<!-- Node1&#45;&gt;Node18 -->
<g id="edge56_Node000001_Node000018" class="edge">
<title>Node1&#45;&gt;Node18</title>
<g id="a_edge56_Node000001_Node000018"><a xlink:title=" ">
<path fill="none" stroke="#63b8ff" d="M2423.73,-231.78C2297.36,-228.78 2010.23,-218.88 1770.85,-188 1642.83,-171.48 1611.73,-160.64 1485.85,-132 1413.37,-115.51 1329.96,-93.25 1279.88,-79.52"/>
<polygon fill="#63b8ff" stroke="#63b8ff" points="1280.83,-76.15 1270.26,-76.88 1278.97,-82.9 1280.83,-76.15"/>
</a>
</g>
</g>
<!-- Node27 -->
<g id="Node000027" class="node">
<title>Node27</title>
<g id="a_Node000027"><a xlink:title=" ">
<polygon fill="#e0e0e0" stroke="#999999" points="2133.98,-76 2007.73,-76 2007.73,-56 2133.98,-56 2133.98,-76"/>
<text xml:space="preserve" text-anchor="middle" x="2070.85" y="-62.5" font-family="Helvetica,sans-Serif" font-size="10.00">QtWidgets/QVBoxLayout</text>
</a>
</g>
</g>
<!-- Node1&#45;&gt;Node27 -->
<g id="edge59_Node000001_Node000027" class="edge">
<title>Node1&#45;&gt;Node27</title>
<g id="a_edge59_Node000001_Node000027"><a xlink:title=" ">
<path fill="none" stroke="#63b8ff" d="M2423.65,-227.96C2348.56,-221.33 2230.45,-208.1 2190.85,-188 2165.87,-175.32 2112.17,-115.17 2085.92,-84.73"/>
<polygon fill="#63b8ff" stroke="#63b8ff" points="2088.87,-82.79 2079.7,-77.47 2083.55,-87.34 2088.87,-82.79"/>
</a>
</g>
</g>
<!-- Node28 -->
<g id="Node000028" class="node">
<title>Node28</title>
<g id="a_Node000028"><a xlink:title=" ">
<polygon fill="#e0e0e0" stroke="#999999" points="2223.23,-76 2152.48,-76 2152.48,-56 2223.23,-56 2223.23,-76"/>
<text xml:space="preserve" text-anchor="middle" x="2187.85" y="-62.5" font-family="Helvetica,sans-Serif" font-size="10.00">QtGui/QIcon</text>
</a>
</g>
</g>
<!-- Node1&#45;&gt;Node28 -->
<g id="edge50_Node000001_Node000028" class="edge">
<title>Node1&#45;&gt;Node28</title>
<g id="a_edge50_Node000001_Node000028"><a xlink:title=" ">
<path fill="none" stroke="#63b8ff" d="M2423.45,-228.88C2353.26,-223.32 2247.45,-211.31 2214.85,-188 2185.32,-166.87 2183.65,-148.29 2184.85,-112 2185.12,-104.08 2185.64,-95.39 2186.18,-87.77"/>
<polygon fill="#63b8ff" stroke="#63b8ff" points="2189.67,-88.04 2186.94,-77.81 2182.69,-87.51 2189.67,-88.04"/>
</a>
</g>
</g>
<!-- Node54 -->
<g id="Node000054" class="node">
<title>Node54</title>
<g id="a_Node000054"><a xlink:href="_diagram_file_manager_8h.html" target="_top" xlink:title=" ">
<polygon fill="white" stroke="#666666" points="258.6,-132 115.1,-132 115.1,-112 258.6,-112 258.6,-132"/>
<text xml:space="preserve" text-anchor="middle" x="186.85" y="-118.5" font-family="Helvetica,sans-Serif" font-size="10.00">model/DiagramFileManager.h</text>
</a>
</g>
</g>
<!-- Node1&#45;&gt;Node54 -->
<g id="edge66_Node000001_Node000054" class="edge">
<title>Node1&#45;&gt;Node54</title>
<g id="a_edge66_Node000001_Node000054"><a xlink:title=" ">
<path fill="none" stroke="#63b8ff" d="M2423.6,-230.96C2245.1,-225.3 1733.76,-208.41 1308.85,-188 920.38,-169.34 456.64,-140.33 270.36,-128.4"/>
<polygon fill="#63b8ff" stroke="#63b8ff" points="270.74,-124.92 260.53,-127.77 270.29,-131.91 270.74,-124.92"/>
</a>
</g>
</g>
<!-- Node57 -->
<g id="Node000057" class="node">
<title>Node57</title>
<g id="a_Node000057"><a xlink:title=" ">
<polygon fill="#e0e0e0" stroke="#999999" points="2321.98,-188 2231.73,-188 2231.73,-168 2321.98,-168 2321.98,-188"/>
<text xml:space="preserve" text-anchor="middle" x="2276.85" y="-174.5" font-family="Helvetica,sans-Serif" font-size="10.00">QtCore/QFileInfo</text>
</a>
</g>
</g>
<!-- Node1&#45;&gt;Node57 -->
<g id="edge47_Node000001_Node000057" class="edge">
<title>Node1&#45;&gt;Node57</title>
<g id="a_edge47_Node000001_Node000057"><a xlink:title=" ">
<path fill="none" stroke="#63b8ff" d="M2451.93,-223.59C2416.73,-214.63 2363.53,-201.08 2325.02,-191.27"/>
<polygon fill="#63b8ff" stroke="#63b8ff" points="2326.09,-187.93 2315.54,-188.85 2324.36,-194.71 2326.09,-187.93"/>
</a>
</g>
</g>
<!-- Node58 -->
<g id="Node000058" class="node">
<title>Node58</title>
<g id="a_Node000058"><a xlink:title=" ">
<polygon fill="#e0e0e0" stroke="#999999" points="2419.73,-188 2339.98,-188 2339.98,-168 2419.73,-168 2419.73,-188"/>
<text xml:space="preserve" text-anchor="middle" x="2379.85" y="-174.5" font-family="Helvetica,sans-Serif" font-size="10.00">QtGui/QAction</text>
</a>
</g>
</g>
<!-- Node1&#45;&gt;Node58 -->
<g id="edge48_Node000001_Node000058" class="edge">
<title>Node1&#45;&gt;Node58</title>
<g id="a_edge48_Node000001_Node000058"><a xlink:title=" ">
<path fill="none" stroke="#63b8ff" d="M2469.87,-223.59C2453.09,-215.28 2428.36,-203.03 2409.06,-193.47"/>
<polygon fill="#63b8ff" stroke="#63b8ff" points="2410.86,-190.45 2400.35,-189.15 2407.75,-196.73 2410.86,-190.45"/>
</a>
</g>
</g>
<!-- Node59 -->
<g id="Node000059" class="node">
<title>Node59</title>
<g id="a_Node000059"><a xlink:title=" ">
<polygon fill="#e0e0e0" stroke="#999999" points="2540.35,-188 2437.35,-188 2437.35,-168 2540.35,-168 2540.35,-188"/>
<text xml:space="preserve" text-anchor="middle" x="2488.85" y="-174.5" font-family="Helvetica,sans-Serif" font-size="10.00">QtGui/QCloseEvent</text>
</a>
</g>
</g>
<!-- Node1&#45;&gt;Node59 -->
<g id="edge49_Node000001_Node000059" class="edge">
<title>Node1&#45;&gt;Node59</title>
<g id="a_edge49_Node000001_Node000059"><a xlink:title=" ">
<path fill="none" stroke="#63b8ff" d="M2488.85,-223.59C2488.85,-217.01 2488.85,-207.96 2488.85,-199.73"/>
<polygon fill="#63b8ff" stroke="#63b8ff" points="2492.35,-199.81 2488.85,-189.81 2485.35,-199.81 2492.35,-199.81"/>
</a>
</g>
</g>
<!-- Node60 -->
<g id="Node000060" class="node">
<title>Node60</title>
<g id="a_Node000060"><a xlink:title=" ">
<polygon fill="#e0e0e0" stroke="#999999" points="2675.1,-188 2558.6,-188 2558.6,-168 2675.1,-168 2675.1,-188"/>
<text xml:space="preserve" text-anchor="middle" x="2616.85" y="-174.5" font-family="Helvetica,sans-Serif" font-size="10.00">QtWidgets/QFileDialog</text>
</a>
</g>
</g>
<!-- Node1&#45;&gt;Node60 -->
<g id="edge51_Node000001_Node000060" class="edge">
<title>Node1&#45;&gt;Node60</title>
<g id="a_edge51_Node000001_Node000060"><a xlink:title=" ">
<path fill="none" stroke="#63b8ff" d="M2511.15,-223.59C2531.22,-215.13 2560.97,-202.58 2583.8,-192.94"/>
<polygon fill="#63b8ff" stroke="#63b8ff" points="2585.14,-196.18 2592.99,-189.07 2582.42,-189.73 2585.14,-196.18"/>
</a>
</g>
</g>
<!-- Node61 -->
<g id="Node000061" class="node">
<title>Node61</title>
<g id="a_Node000061"><a xlink:title=" ">
<polygon fill="#e0e0e0" stroke="#999999" points="2810.1,-188 2693.6,-188 2693.6,-168 2810.1,-168 2810.1,-188"/>
<text xml:space="preserve" text-anchor="middle" x="2751.85" y="-174.5" font-family="Helvetica,sans-Serif" font-size="10.00">QtWidgets/QGroupBox</text>
</a>
</g>
</g>
<!-- Node1&#45;&gt;Node61 -->
<g id="edge52_Node000001_Node000061" class="edge">
<title>Node1&#45;&gt;Node61</title>
<g id="a_edge52_Node000001_Node000061"><a xlink:title=" ">
<path fill="none" stroke="#63b8ff" d="M2534.97,-223.53C2579.43,-214.4 2646.83,-200.56 2694.69,-190.74"/>
<polygon fill="#63b8ff" stroke="#63b8ff" points="2695.22,-194.2 2704.31,-188.76 2693.81,-187.34 2695.22,-194.2"/>
</a>
</g>
</g>
<!-- Node62 -->
<g id="Node000062" class="node">
<title>Node62</title>
<g id="a_Node000062"><a xlink:title=" ">
<polygon fill="#e0e0e0" stroke="#999999" points="2925.35,-188 2828.35,-188 2828.35,-168 2925.35,-168 2925.35,-188"/>
<text xml:space="preserve" text-anchor="middle" x="2876.85" y="-174.5" font-family="Helvetica,sans-Serif" font-size="10.00">QtWidgets/QMenu</text>
</a>
</g>
</g>
<!-- Node1&#45;&gt;Node62 -->
<g id="edge53_Node000001_Node000062" class="edge">
<title>Node1&#45;&gt;Node62</title>
<g id="a_edge53_Node000001_Node000062"><a xlink:title=" ">
<path fill="none" stroke="#63b8ff" d="M2554.33,-224.43C2618.48,-215.96 2719.34,-202.42 2816.87,-188.27"/>
<polygon fill="#63b8ff" stroke="#63b8ff" points="2817.24,-191.75 2826.63,-186.85 2816.23,-184.82 2817.24,-191.75"/>
</a>
</g>
</g>
<!-- Node63 -->
<g id="Node000063" class="node">
<title>Node63</title>
<g id="a_Node000063"><a xlink:title=" ">
<polygon fill="#e0e0e0" stroke="#999999" points="3055.85,-188 2943.85,-188 2943.85,-168 3055.85,-168 3055.85,-188"/>
<text xml:space="preserve" text-anchor="middle" x="2999.85" y="-174.5" font-family="Helvetica,sans-Serif" font-size="10.00">QtWidgets/QMenuBar</text>
</a>
</g>
</g>
<!-- Node1&#45;&gt;Node63 -->
<g id="edge54_Node000001_Node000063" class="edge">
<title>Node1&#45;&gt;Node63</title>
<g id="a_edge54_Node000001_Node000063"><a xlink:title=" ">
<path fill="none" stroke="#63b8ff" d="M2554.31,-227.16C2639.02,-219.43 2791.51,-204.94 2932.11,-188.29"/>
<polygon fill="#63b8ff" stroke="#63b8ff" points="2932.48,-191.77 2942,-187.11 2931.65,-184.82 2932.48,-191.77"/>
</a>
</g>
</g>
<!-- Node64 -->
<g id="Node000064" class="node">
<title>Node64</title>
<g id="a_Node000064"><a xlink:title=" ">
<polygon fill="#e0e0e0" stroke="#999999" points="3203.85,-188 3073.85,-188 3073.85,-168 3203.85,-168 3203.85,-188"/>
<text xml:space="preserve" text-anchor="middle" x="3138.85" y="-174.5" font-family="Helvetica,sans-Serif" font-size="10.00">QtWidgets/QMessageBox</text>
</a>
</g>
</g>
<!-- Node1&#45;&gt;Node64 -->
<g id="edge55_Node000001_Node000064" class="edge">
<title>Node1&#45;&gt;Node64</title>
<g id="a_edge55_Node000001_Node000064"><a xlink:title=" ">
<path fill="none" stroke="#63b8ff" d="M2554.15,-228.82C2658.95,-221.9 2871.45,-207.05 3062.13,-188.23"/>
<polygon fill="#63b8ff" stroke="#63b8ff" points="3062.39,-191.72 3072,-187.25 3061.7,-184.76 3062.39,-191.72"/>
</a>
</g>
</g>
<!-- Node65 -->
<g id="Node000065" class="node">
<title>Node65</title>
<g id="a_Node000065"><a xlink:title=" ">
<polygon fill="#e0e0e0" stroke="#999999" points="3338.1,-188 3221.6,-188 3221.6,-168 3338.1,-168 3338.1,-188"/>
<text xml:space="preserve" text-anchor="middle" x="3279.85" y="-174.5" font-family="Helvetica,sans-Serif" font-size="10.00">QtWidgets/QStatusBar</text>
</a>
</g>
</g>
<!-- Node1&#45;&gt;Node65 -->
<g id="edge57_Node000001_Node000065" class="edge">
<title>Node1&#45;&gt;Node65</title>
<g id="a_edge57_Node000001_Node000065"><a xlink:title=" ">
<path fill="none" stroke="#63b8ff" d="M2553.88,-230.52C2678.88,-225.41 2961.6,-212.2 3209.99,-188.21"/>
<polygon fill="#63b8ff" stroke="#63b8ff" points="3210.3,-191.7 3219.91,-187.25 3209.62,-184.73 3210.3,-191.7"/>
</a>
</g>
</g>
<!-- Node66 -->
<g id="Node000066" class="node">
<title>Node66</title>
<g id="a_Node000066"><a xlink:title=" ">
<polygon fill="#e0e0e0" stroke="#999999" points="3461.85,-188 3355.85,-188 3355.85,-168 3461.85,-168 3461.85,-188"/>
<text xml:space="preserve" text-anchor="middle" x="3408.85" y="-174.5" font-family="Helvetica,sans-Serif" font-size="10.00">QtWidgets/QToolBar</text>
</a>
</g>
</g>
<!-- Node1&#45;&gt;Node66 -->
<g id="edge58_Node000001_Node000066" class="edge">
<title>Node1&#45;&gt;Node66</title>
<g id="a_edge58_Node000001_Node000066"><a xlink:title=" ">
<path fill="none" stroke="#63b8ff" d="M2554.13,-231.62C2695.99,-228.18 3043.21,-217.36 3344.32,-188.16"/>
<polygon fill="#63b8ff" stroke="#63b8ff" points="3344.34,-191.67 3353.95,-187.22 3343.66,-184.71 3344.34,-191.67"/>
</a>
</g>
</g>
<!-- Node67 -->
<g id="Node000067" class="node">
<title>Node67</title>
<g id="a_Node000067"><a xlink:href="_quick_acess_toolbar_8h.html" target="_top" xlink:title=" ">
<polygon fill="white" stroke="#666666" points="3589.35,-188 3480.35,-188 3480.35,-168 3589.35,-168 3589.35,-188"/>
<text xml:space="preserve" text-anchor="middle" x="3534.85" y="-174.5" font-family="Helvetica,sans-Serif" font-size="10.00">QuickAcessToolbar.h</text>
</a>
</g>
</g>
<!-- Node1&#45;&gt;Node67 -->
<g id="edge60_Node000001_Node000067" class="edge">
<title>Node1&#45;&gt;Node67</title>
<g id="a_edge60_Node000001_Node000067"><a xlink:title=" ">
<path fill="none" stroke="#63b8ff" d="M2554.21,-232.12C2710.38,-229.57 3117.66,-220.23 3468.67,-188.1"/>
<polygon fill="#63b8ff" stroke="#63b8ff" points="3468.94,-191.59 3478.57,-187.19 3468.29,-184.62 3468.94,-191.59"/>
</a>
</g>
</g>
<!-- Node73 -->
<g id="Node000073" class="node">
<title>Node73</title>
<g id="a_Node000073"><a xlink:href="_element_factory_8h.html" target="_top" xlink:title=" ">
<polygon fill="white" stroke="#666666" points="2635.73,-132 2513.98,-132 2513.98,-112 2635.73,-112 2635.73,-132"/>
<text xml:space="preserve" text-anchor="middle" x="2574.85" y="-118.5" font-family="Helvetica,sans-Serif" font-size="10.00">model/ElementFactory.h</text>
</a>
</g>
</g>
<!-- Node1&#45;&gt;Node73 -->
<g id="edge67_Node000001_Node000073" class="edge">
<title>Node1&#45;&gt;Node73</title>
<g id="a_edge67_Node000001_Node000073"><a xlink:title=" ">
<path fill="none" stroke="#63b8ff" d="M2423.6,-231.28C2353.29,-227.89 2248.06,-217.83 2222.85,-188 2217.12,-181.21 2216.98,-174.67 2222.85,-168 2224.01,-166.69 2399.89,-144.69 2502.57,-131.94"/>
<polygon fill="#63b8ff" stroke="#63b8ff" points="2502.8,-135.44 2512.29,-130.74 2501.94,-128.5 2502.8,-135.44"/>
</a>
</g>
</g>
<!-- Node3 -->
<g id="Node000003" class="node">
<title>Node3</title>
<g id="a_Node000003"><a xlink:title=" ">
<polygon fill="#e0e0e0" stroke="#999999" points="1977.48,-132 1848.23,-132 1848.23,-112 1977.48,-112 1977.48,-132"/>
<text xml:space="preserve" text-anchor="middle" x="1912.85" y="-118.5" font-family="Helvetica,sans-Serif" font-size="10.00">QtWidgets/QMainWindow</text>
</a>
</g>
</g>
<!-- Node2&#45;&gt;Node3 -->
<g id="edge2_Node000002_Node000003" class="edge">
<title>Node2&#45;&gt;Node3</title>
<g id="a_edge2_Node000002_Node000003"><a xlink:title=" ">
<path fill="none" stroke="#63b8ff" d="M1836.05,-167.59C1850.1,-159.44 1870.69,-147.48 1887.01,-138"/>
<polygon fill="#63b8ff" stroke="#63b8ff" points="1888.33,-141.29 1895.22,-133.24 1884.81,-135.23 1888.33,-141.29"/>
</a>
</g>
</g>
<!-- Node4 -->
<g id="Node000004" class="node">
<title>Node4</title>
<g id="a_Node000004"><a xlink:title=" ">
<polygon fill="#e0e0e0" stroke="#999999" points="2099.73,-132 1995.98,-132 1995.98,-112 2099.73,-112 2099.73,-132"/>
<text xml:space="preserve" text-anchor="middle" x="2047.85" y="-118.5" font-family="Helvetica,sans-Serif" font-size="10.00">QtWidgets/QSplitter</text>
</a>
</g>
</g>
<!-- Node2&#45;&gt;Node4 -->
<g id="edge3_Node000002_Node000004" class="edge">
<title>Node2&#45;&gt;Node4</title>
<g id="a_edge3_Node000002_Node000004"><a xlink:title=" ">
<path fill="none" stroke="#63b8ff" d="M1859.83,-167.53C1897.97,-158.5 1955.58,-144.85 1996.98,-135.05"/>
<polygon fill="#63b8ff" stroke="#63b8ff" points="1997.53,-138.52 2006.45,-132.81 1995.91,-131.7 1997.53,-138.52"/>
</a>
</g>
</g>
<!-- Node5 -->
<g id="Node000005" class="node">
<title>Node5</title>
<g id="a_Node000005"><a xlink:title=" ">
<polygon fill="#e0e0e0" stroke="#999999" points="1680.6,-132 1561.1,-132 1561.1,-112 1680.6,-112 1680.6,-132"/>
<text xml:space="preserve" text-anchor="middle" x="1620.85" y="-118.5" font-family="Helvetica,sans-Serif" font-size="10.00">QtWidgets/QTabWidget</text>
</a>
</g>
</g>
<!-- Node2&#45;&gt;Node5 -->
<g id="edge4_Node000002_Node000005" class="edge">
<title>Node2&#45;&gt;Node5</title>
<g id="a_edge4_Node000002_Node000005"><a xlink:title=" ">
<path fill="none" stroke="#63b8ff" d="M1785.19,-167.59C1752.29,-158.67 1702.64,-145.19 1666.53,-135.39"/>
<polygon fill="#63b8ff" stroke="#63b8ff" points="1667.82,-132.12 1657.25,-132.88 1665.98,-138.87 1667.82,-132.12"/>
</a>
</g>
</g>
<!-- Node6 -->
<g id="Node000006" class="node">
<title>Node6</title>
<g id="a_Node000006"><a xlink:title=" ">
<polygon fill="#e0e0e0" stroke="#999999" points="1418.73,-76 1314.98,-76 1314.98,-56 1418.73,-56 1418.73,-76"/>
<text xml:space="preserve" text-anchor="middle" x="1366.85" y="-62.5" font-family="Helvetica,sans-Serif" font-size="10.00">QtWidgets/QWidget</text>
</a>
</g>
</g>
<!-- Node2&#45;&gt;Node6 -->
<g id="edge5_Node000002_Node000006" class="edge">
<title>Node2&#45;&gt;Node6</title>
<g id="a_edge5_Node000002_Node000006"><a xlink:title=" ">
<path fill="none" stroke="#63b8ff" d="M1779.9,-172.47C1727.14,-165.98 1631.58,-152.54 1551.85,-132 1497.63,-118.03 1436.71,-95.18 1400.09,-80.63"/>
<polygon fill="#63b8ff" stroke="#63b8ff" points="1401.53,-77.43 1390.94,-76.96 1398.92,-83.93 1401.53,-77.43"/>
</a>
</g>
</g>
<!-- Node7 -->
<g id="Node000007" class="node">
<title>Node7</title>
<g id="a_Node000007"><a xlink:href="_diagram_view_8h.html" target="_top" xlink:title=" ">
<polygon fill="white" stroke="#666666" points="520.85,-132 438.85,-132 438.85,-112 520.85,-112 520.85,-132"/>
<text xml:space="preserve" text-anchor="middle" x="479.85" y="-118.5" font-family="Helvetica,sans-Serif" font-size="10.00">DiagramView.h</text>
</a>
</g>
</g>
<!-- Node2&#45;&gt;Node7 -->
<g id="edge6_Node000002_Node000007" class="edge">
<title>Node2&#45;&gt;Node7</title>
<g id="a_edge6_Node000002_Node000007"><a xlink:title=" ">
<path fill="none" stroke="#63b8ff" d="M1779.75,-175.38C1586.48,-167.6 751.48,-133.95 532.57,-125.12"/>
<polygon fill="#63b8ff" stroke="#63b8ff" points="532.76,-121.63 522.63,-124.72 532.48,-128.62 532.76,-121.63"/>
</a>
</g>
</g>
<!-- Node14 -->
<g id="Node000014" class="node">
<title>Node14</title>
<g id="a_Node000014"><a xlink:href="_draggable_button_8h.html" target="_top" xlink:title=" ">
<polygon fill="white" stroke="#666666" points="1150.35,-132 1053.35,-132 1053.35,-112 1150.35,-112 1150.35,-132"/>
<text xml:space="preserve" text-anchor="middle" x="1101.85" y="-118.5" font-family="Helvetica,sans-Serif" font-size="10.00">DraggableButton.h</text>
</a>
</g>
</g>
<!-- Node2&#45;&gt;Node14 -->
<g id="edge13_Node000002_Node000014" class="edge">
<title>Node2&#45;&gt;Node14</title>
<g id="a_edge13_Node000002_Node000014"><a xlink:title=" ">
<path fill="none" stroke="#63b8ff" d="M1779.71,-173.98C1659.81,-164.96 1303.82,-138.19 1161.56,-127.49"/>
<polygon fill="#63b8ff" stroke="#63b8ff" points="1162.23,-124.03 1152,-126.77 1161.7,-131.01 1162.23,-124.03"/>
</a>
</g>
</g>
<!-- Node19 -->
<g id="Node000019" class="node">
<title>Node19</title>
<g id="a_Node000019"><a xlink:href="_properties_panel_8h.html" target="_top" xlink:title=" ">
<polygon fill="#fff0f0" stroke="red" points="1791.48,-132 1698.23,-132 1698.23,-112 1791.48,-112 1791.48,-132"/>
<text xml:space="preserve" text-anchor="middle" x="1744.85" y="-118.5" font-family="Helvetica,sans-Serif" font-size="10.00">PropertiesPanel.h</text>
</a>
</g>
</g>
<!-- Node2&#45;&gt;Node19 -->
<g id="edge18_Node000002_Node000019" class="edge">
<title>Node2&#45;&gt;Node19</title>
<g id="a_edge18_Node000002_Node000019"><a xlink:title=" ">
<path fill="none" stroke="#63b8ff" d="M1806.79,-167.59C1795.89,-159.74 1780.1,-148.38 1767.2,-139.09"/>
<polygon fill="#63b8ff" stroke="#63b8ff" points="1769.41,-136.37 1759.25,-133.36 1765.32,-142.05 1769.41,-136.37"/>
</a>
</g>
</g>
<!-- Node31 -->
<g id="Node000031" class="node">
<title>Node31</title>
<g id="a_Node000031"><a xlink:href="_basic_element_8h.html" target="_top" xlink:title=" ">
<polygon fill="#fff0f0" stroke="red" points="2532.98,-76 2418.73,-76 2418.73,-56 2532.98,-56 2532.98,-76"/>
<text xml:space="preserve" text-anchor="middle" x="2475.85" y="-62.5" font-family="Helvetica,sans-Serif" font-size="10.00">model/BasicElement.h</text>
</a>
</g>
</g>
<!-- Node2&#45;&gt;Node31 -->
<g id="edge45_Node000002_Node000031" class="edge">
<title>Node2&#45;&gt;Node31</title>
<g id="a_edge45_Node000002_Node000031"><a xlink:title=" ">
<path fill="none" stroke="#63b8ff" d="M1860.2,-175.58C1998.27,-170.56 2444.61,-152.78 2466.85,-132 2478.7,-120.93 2480.16,-102.08 2479.12,-87.52"/>
<polygon fill="#63b8ff" stroke="#63b8ff" points="2482.6,-87.15 2477.93,-77.64 2475.65,-87.98 2482.6,-87.15"/>
</a>
</g>
</g>
<!-- Node42 -->
<g id="Node000042" class="node">
<title>Node42</title>
<g id="a_Node000042"><a xlink:href="_connection_line_8h.html" target="_top" xlink:title=" ">
<polygon fill="#fff0f0" stroke="red" points="2362.35,-76 2241.35,-76 2241.35,-56 2362.35,-56 2362.35,-76"/>
<text xml:space="preserve" text-anchor="middle" x="2301.85" y="-62.5" font-family="Helvetica,sans-Serif" font-size="10.00">model/ConnectionLine.h</text>
</a>
</g>
</g>
<!-- Node2&#45;&gt;Node42 -->
<g id="edge46_Node000002_Node000042" class="edge">
<title>Node2&#45;&gt;Node42</title>
<g id="a_edge46_Node000002_Node000042"><a xlink:title=" ">
<path fill="none" stroke="#63b8ff" d="M1819.56,-167.73C1819.65,-153.31 1822.15,-125.75 1838.85,-112 1904.04,-58.32 2127.24,-83.53 2229.85,-75.97"/>
<polygon fill="#63b8ff" stroke="#63b8ff" points="2230.01,-79.47 2239.66,-75.08 2229.38,-72.5 2230.01,-79.47"/>
</a>
</g>
</g>
<!-- Node44 -->
<g id="Node000044" class="node">
<title>Node44</title>
<g id="a_Node000044"><a xlink:href="_diagram_scene_8h.html" target="_top" xlink:title=" ">
<polygon fill="#fff0f0" stroke="red" points="2305.85,-132 2193.85,-132 2193.85,-112 2305.85,-112 2305.85,-132"/>
<text xml:space="preserve" text-anchor="middle" x="2249.85" y="-118.5" font-family="Helvetica,sans-Serif" font-size="10.00">view/DiagramScene.h</text>
</a>
</g>
</g>
<!-- Node2&#45;&gt;Node44 -->
<g id="edge34_Node000002_Node000044" class="edge">
<title>Node2&#45;&gt;Node44</title>
<g id="a_edge34_Node000002_Node000044"><a xlink:title=" ">
<path fill="none" stroke="#63b8ff" d="M1859.92,-171.97C1933.7,-162.7 2091.76,-142.85 2182.35,-131.48"/>
<polygon fill="#63b8ff" stroke="#63b8ff" points="2182.61,-134.97 2192.1,-130.25 2181.74,-128.03 2182.61,-134.97"/>
</a>
</g>
</g>
<!-- Node2&#45;&gt;Node54 -->
<g id="edge37_Node000002_Node000054" class="edge">
<title>Node2&#45;&gt;Node54</title>
<g id="a_edge37_Node000002_Node000054"><a xlink:title=" ">
<path fill="none" stroke="#63b8ff" d="M1779.48,-175.76C1613.04,-170.64 963.73,-150.53 429.85,-132 376.75,-130.16 317.12,-127.95 270.22,-126.18"/>
<polygon fill="#63b8ff" stroke="#63b8ff" points="270.53,-122.69 260.4,-125.81 270.26,-129.69 270.53,-122.69"/>
</a>
</g>
</g>
<!-- Node55 -->
<g id="Node000055" class="node">
<title>Node55</title>
<g id="a_Node000055"><a xlink:href="_auto_save_manager_8h.html" target="_top" xlink:title=" ">
<polygon fill="#fff0f0" stroke="red" points="2457.73,-132 2323.98,-132 2323.98,-112 2457.73,-112 2457.73,-132"/>
<text xml:space="preserve" text-anchor="middle" x="2390.85" y="-118.5" font-family="Helvetica,sans-Serif" font-size="10.00">model/AutoSaveManager.h</text>
</a>
</g>
</g>
<!-- Node2&#45;&gt;Node55 -->
<g id="edge40_Node000002_Node000055" class="edge">
<title>Node2&#45;&gt;Node55</title>
<g id="a_edge40_Node000002_Node000055"><a xlink:title=" ">
<path fill="none" stroke="#63b8ff" d="M1859.99,-173.72C1942.54,-166.91 2137.58,-150.38 2312.5,-132.22"/>
<polygon fill="#63b8ff" stroke="#63b8ff" points="2312.64,-135.73 2322.22,-131.21 2311.91,-128.76 2312.64,-135.73"/>
</a>
</g>
</g>
<!-- Node8 -->
<g id="Node000008" class="node">
<title>Node8</title>
<g id="a_Node000008"><a xlink:title=" ">
<polygon fill="#e0e0e0" stroke="#999999" points="678.73,-76 544.98,-76 544.98,-56 678.73,-56 678.73,-76"/>
<text xml:space="preserve" text-anchor="middle" x="611.85" y="-62.5" font-family="Helvetica,sans-Serif" font-size="10.00">QtWidgets/QGraphicsView</text>
</a>
</g>
</g>
<!-- Node7&#45;&gt;Node8 -->
<g id="edge7_Node000007_Node000008" class="edge">
<title>Node7&#45;&gt;Node8</title>
<g id="a_edge7_Node000007_Node000008"><a xlink:title=" ">
<path fill="none" stroke="#63b8ff" d="M502.85,-111.59C523.63,-103.09 554.5,-90.46 578.09,-80.81"/>
<polygon fill="#63b8ff" stroke="#63b8ff" points="579.35,-84.08 587.28,-77.05 576.7,-77.6 579.35,-84.08"/>
</a>
</g>
</g>
<!-- Node9 -->
<g id="Node000009" class="node">
<title>Node9</title>
<g id="a_Node000009"><a xlink:title=" ">
<polygon fill="#e0e0e0" stroke="#999999" points="818.73,-76 696.98,-76 696.98,-56 818.73,-56 818.73,-76"/>
<text xml:space="preserve" text-anchor="middle" x="757.85" y="-62.5" font-family="Helvetica,sans-Serif" font-size="10.00">QtGui/QDragEnterEvent</text>
</a>
</g>
</g>
<!-- Node7&#45;&gt;Node9 -->
<g id="edge8_Node000007_Node000009" class="edge">
<title>Node7&#45;&gt;Node9</title>
<g id="a_edge8_Node000007_Node000009"><a xlink:title=" ">
<path fill="none" stroke="#63b8ff" d="M521.17,-112.97C568.06,-103.87 644.91,-88.94 698.27,-78.57"/>
<polygon fill="#63b8ff" stroke="#63b8ff" points="698.65,-82.07 707.8,-76.72 697.31,-75.19 698.65,-82.07"/>
</a>
</g>
</g>
<!-- Node10 -->
<g id="Node000010" class="node">
<title>Node10</title>
<g id="a_Node000010"><a xlink:title=" ">
<polygon fill="#e0e0e0" stroke="#999999" points="174.1,-76 51.6,-76 51.6,-56 174.1,-56 174.1,-76"/>
<text xml:space="preserve" text-anchor="middle" x="112.85" y="-62.5" font-family="Helvetica,sans-Serif" font-size="10.00">QtGui/QDragMoveEvent</text>
</a>
</g>
</g>
<!-- Node7&#45;&gt;Node10 -->
<g id="edge9_Node000007_Node000010" class="edge">
<title>Node7&#45;&gt;Node10</title>
<g id="a_edge9_Node000007_Node000010"><a xlink:title=" ">
<path fill="none" stroke="#63b8ff" d="M438.47,-114.91C377.22,-105.9 261.54,-88.88 185.85,-77.74"/>
<polygon fill="#63b8ff" stroke="#63b8ff" points="186.42,-74.29 176.02,-76.29 185.4,-81.21 186.42,-74.29"/>
</a>
</g>
</g>
<!-- Node11 -->
<g id="Node000011" class="node">
<title>Node11</title>
<g id="a_Node000011"><a xlink:title=" ">
<polygon fill="#e0e0e0" stroke="#999999" points="291.1,-76 192.6,-76 192.6,-56 291.1,-56 291.1,-76"/>
<text xml:space="preserve" text-anchor="middle" x="241.85" y="-62.5" font-family="Helvetica,sans-Serif" font-size="10.00">QtGui/QDropEvent</text>
</a>
</g>
</g>
<!-- Node7&#45;&gt;Node11 -->
<g id="edge10_Node000007_Node000011" class="edge">
<title>Node7&#45;&gt;Node11</title>
<g id="a_edge10_Node000007_Node000011"><a xlink:title=" ">
<path fill="none" stroke="#63b8ff" d="M438.4,-111.59C398.54,-102.55 338.13,-88.84 294.81,-79.02"/>
<polygon fill="#63b8ff" stroke="#63b8ff" points="295.64,-75.61 285.11,-76.81 294.09,-82.44 295.64,-75.61"/>
</a>
</g>
</g>
<!-- Node12 -->
<g id="Node000012" class="node">
<title>Node12</title>
<g id="a_Node000012"><a xlink:title=" ">
<polygon fill="#e0e0e0" stroke="#999999" points="414.48,-76 309.23,-76 309.23,-56 414.48,-56 414.48,-76"/>
<text xml:space="preserve" text-anchor="middle" x="361.85" y="-62.5" font-family="Helvetica,sans-Serif" font-size="10.00">QtGui/QWheelEvent</text>
</a>
</g>
</g>
<!-- Node7&#45;&gt;Node12 -->
<g id="edge11_Node000007_Node000012" class="edge">
<title>Node7&#45;&gt;Node12</title>
<g id="a_edge11_Node000007_Node000012"><a xlink:title=" ">
<path fill="none" stroke="#63b8ff" d="M459.3,-111.59C440.97,-103.21 413.87,-90.8 392.9,-81.21"/>
<polygon fill="#63b8ff" stroke="#63b8ff" points="394.49,-78.09 383.95,-77.11 391.58,-84.45 394.49,-78.09"/>
</a>
</g>
</g>
<!-- Node13 -->
<g id="Node000013" class="node">
<title>Node13</title>
<g id="a_Node000013"><a xlink:title=" ">
<polygon fill="#e0e0e0" stroke="#999999" points="527.23,-76 432.48,-76 432.48,-56 527.23,-56 527.23,-76"/>
<text xml:space="preserve" text-anchor="middle" x="479.85" y="-62.5" font-family="Helvetica,sans-Serif" font-size="10.00">QtGui/QKeyEvent</text>
</a>
</g>
</g>
<!-- Node7&#45;&gt;Node13 -->
<g id="edge12_Node000007_Node000013" class="edge">
<title>Node7&#45;&gt;Node13</title>
<g id="a_edge12_Node000007_Node000013"><a xlink:title=" ">
<path fill="none" stroke="#63b8ff" d="M479.85,-111.59C479.85,-105.01 479.85,-95.96 479.85,-87.73"/>
<polygon fill="#63b8ff" stroke="#63b8ff" points="483.35,-87.81 479.85,-77.81 476.35,-87.81 483.35,-87.81"/>
</a>
</g>
</g>
<!-- Node15 -->
<g id="Node000015" class="node">
<title>Node15</title>
<g id="a_Node000015"><a xlink:title=" ">
<polygon fill="#e0e0e0" stroke="#999999" points="939.35,-76 836.35,-76 836.35,-56 939.35,-56 939.35,-76"/>
<text xml:space="preserve" text-anchor="middle" x="887.85" y="-62.5" font-family="Helvetica,sans-Serif" font-size="10.00">QtCore/QMimeData</text>
</a>
</g>
</g>
<!-- Node14&#45;&gt;Node15 -->
<g id="edge14_Node000014_Node000015" class="edge">
<title>Node14&#45;&gt;Node15</title>
<g id="a_edge14_Node000014_Node000015"><a xlink:title=" ">
<path fill="none" stroke="#63b8ff" d="M1064.58,-111.59C1029.05,-102.63 975.35,-89.08 936.47,-79.27"/>
<polygon fill="#63b8ff" stroke="#63b8ff" points="937.44,-75.9 926.89,-76.85 935.73,-82.69 937.44,-75.9"/>
</a>
</g>
</g>
<!-- Node16 -->
<g id="Node000016" class="node">
<title>Node16</title>
<g id="a_Node000016"><a xlink:title=" ">
<polygon fill="#e0e0e0" stroke="#999999" points="1030.35,-76 957.35,-76 957.35,-56 1030.35,-56 1030.35,-76"/>
<text xml:space="preserve" text-anchor="middle" x="993.85" y="-62.5" font-family="Helvetica,sans-Serif" font-size="10.00">QtGui/QDrag</text>
</a>
</g>
</g>
<!-- Node14&#45;&gt;Node16 -->
<g id="edge15_Node000014_Node000016" class="edge">
<title>Node14&#45;&gt;Node16</title>
<g id="a_edge15_Node000014_Node000016"><a xlink:title=" ">
<path fill="none" stroke="#63b8ff" d="M1083.04,-111.59C1066.5,-103.32 1042.14,-91.14 1023.06,-81.6"/>
<polygon fill="#63b8ff" stroke="#63b8ff" points="1024.68,-78.5 1014.17,-77.16 1021.55,-84.76 1024.68,-78.5"/>
</a>
</g>
</g>
<!-- Node17 -->
<g id="Node000017" class="node">
<title>Node17</title>
<g id="a_Node000017"><a xlink:title=" ">
<polygon fill="#e0e0e0" stroke="#999999" points="1155.23,-76 1048.48,-76 1048.48,-56 1155.23,-56 1155.23,-76"/>
<text xml:space="preserve" text-anchor="middle" x="1101.85" y="-62.5" font-family="Helvetica,sans-Serif" font-size="10.00">QtGui/QMouseEvent</text>
</a>
</g>
</g>
<!-- Node14&#45;&gt;Node17 -->
<g id="edge16_Node000014_Node000017" class="edge">
<title>Node14&#45;&gt;Node17</title>
<g id="a_edge16_Node000014_Node000017"><a xlink:title=" ">
<path fill="none" stroke="#63b8ff" d="M1101.85,-111.59C1101.85,-105.01 1101.85,-95.96 1101.85,-87.73"/>
<polygon fill="#63b8ff" stroke="#63b8ff" points="1105.35,-87.81 1101.85,-77.81 1098.35,-87.81 1105.35,-87.81"/>
</a>
</g>
</g>
<!-- Node14&#45;&gt;Node18 -->
<g id="edge17_Node000014_Node000018" class="edge">
<title>Node14&#45;&gt;Node18</title>
<g id="a_edge17_Node000014_Node000018"><a xlink:title=" ">
<path fill="none" stroke="#63b8ff" d="M1125.02,-111.59C1146.06,-103.05 1177.35,-90.35 1201.16,-80.68"/>
<polygon fill="#63b8ff" stroke="#63b8ff" points="1202.16,-84.05 1210.1,-77.05 1199.52,-77.57 1202.16,-84.05"/>
</a>
</g>
</g>
<!-- Node19&#45;&gt;Node6 -->
<g id="edge26_Node000019_Node000006" class="edge">
<title>Node19&#45;&gt;Node6</title>
<g id="a_edge26_Node000019_Node000006"><a xlink:title=" ">
<path fill="none" stroke="#63b8ff" d="M1697.76,-113.21C1695.09,-112.8 1692.44,-112.39 1689.85,-112 1577.14,-95.04 1546.08,-92.71 1430.2,-76.32"/>
<polygon fill="#63b8ff" stroke="#63b8ff" points="1430.98,-72.9 1420.59,-74.95 1430,-79.83 1430.98,-72.9"/>
</a>
</g>
</g>
<!-- Node19&#45;&gt;Node18 -->
<g id="edge24_Node000019_Node000018" class="edge">
<title>Node19&#45;&gt;Node18</title>
<g id="a_edge24_Node000019_Node000018"><a xlink:title=" ">
<path fill="none" stroke="#63b8ff" d="M1697.78,-113.08C1695.1,-112.7 1692.45,-112.33 1689.85,-112 1523.49,-90.62 1478.17,-94.59 1308.53,-76.26"/>
<polygon fill="#63b8ff" stroke="#63b8ff" points="1309,-72.79 1298.68,-75.18 1308.24,-79.75 1309,-72.79"/>
</a>
</g>
</g>
<!-- Node20 -->
<g id="Node000020" class="node">
<title>Node20</title>
<g id="a_Node000020"><a xlink:title=" ">
<polygon fill="#e0e0e0" stroke="#999999" points="1852.23,-76 1817.48,-76 1817.48,-56 1852.23,-56 1852.23,-76"/>
<text xml:space="preserve" text-anchor="middle" x="1834.85" y="-62.5" font-family="Helvetica,sans-Serif" font-size="10.00">map</text>
</a>
</g>
</g>
<!-- Node19&#45;&gt;Node20 -->
<g id="edge19_Node000019_Node000020" class="edge">
<title>Node19&#45;&gt;Node20</title>
<g id="a_edge19_Node000019_Node000020"><a xlink:title=" ">
<path fill="none" stroke="#63b8ff" d="M1760.53,-111.59C1774,-103.51 1793.67,-91.71 1809.4,-82.27"/>
<polygon fill="#63b8ff" stroke="#63b8ff" points="1810.98,-85.4 1817.76,-77.26 1807.38,-79.4 1810.98,-85.4"/>
</a>
</g>
</g>
<!-- Node21 -->
<g id="Node000021" class="node">
<title>Node21</title>
<g id="a_Node000021"><a xlink:title=" ">
<polygon fill="#e0e0e0" stroke="#999999" points="1989.23,-76 1870.48,-76 1870.48,-56 1989.23,-56 1989.23,-76"/>
<text xml:space="preserve" text-anchor="middle" x="1929.85" y="-62.5" font-family="Helvetica,sans-Serif" font-size="10.00">QtWidgets/QCheckBox</text>
</a>
</g>
</g>
<!-- Node19&#45;&gt;Node21 -->
<g id="edge20_Node000019_Node000021" class="edge">
<title>Node19&#45;&gt;Node21</title>
<g id="a_edge20_Node000019_Node000021"><a xlink:title=" ">
<path fill="none" stroke="#63b8ff" d="M1777.08,-111.59C1807.4,-102.74 1853.03,-89.43 1886.52,-79.65"/>
<polygon fill="#63b8ff" stroke="#63b8ff" points="1887.31,-83.07 1895.93,-76.9 1885.35,-76.35 1887.31,-83.07"/>
</a>
</g>
</g>
<!-- Node22 -->
<g id="Node000022" class="node">
<title>Node22</title>
<g id="a_Node000022"><a xlink:title=" ">
<polygon fill="#e0e0e0" stroke="#999999" points="1558.73,-76 1436.98,-76 1436.98,-56 1558.73,-56 1558.73,-76"/>
<text xml:space="preserve" text-anchor="middle" x="1497.85" y="-62.5" font-family="Helvetica,sans-Serif" font-size="10.00">QtWidgets/QComboBox</text>
</a>
</g>
</g>
<!-- Node19&#45;&gt;Node22 -->
<g id="edge21_Node000019_Node000022" class="edge">
<title>Node19&#45;&gt;Node22</title>
<g id="a_edge21_Node000019_Node000022"><a xlink:title=" ">
<path fill="none" stroke="#63b8ff" d="M1701.55,-111.53C1659.97,-102.44 1597.02,-88.68 1552.12,-78.86"/>
<polygon fill="#63b8ff" stroke="#63b8ff" points="1553.11,-75.5 1542.59,-76.78 1551.61,-82.34 1553.11,-75.5"/>
</a>
</g>
</g>
<!-- Node23 -->
<g id="Node000023" class="node">
<title>Node23</title>
<g id="a_Node000023"><a xlink:title=" ">
<polygon fill="#e0e0e0" stroke="#999999" points="1672.98,-76 1576.73,-76 1576.73,-56 1672.98,-56 1672.98,-76"/>
<text xml:space="preserve" text-anchor="middle" x="1624.85" y="-62.5" font-family="Helvetica,sans-Serif" font-size="10.00">QtWidgets/QLabel</text>
</a>
</g>
</g>
<!-- Node19&#45;&gt;Node23 -->
<g id="edge22_Node000019_Node000023" class="edge">
<title>Node19&#45;&gt;Node23</title>
<g id="a_edge22_Node000019_Node000023"><a xlink:title=" ">
<path fill="none" stroke="#63b8ff" d="M1723.95,-111.59C1705.23,-103.17 1677.5,-90.69 1656.13,-81.07"/>
<polygon fill="#63b8ff" stroke="#63b8ff" points="1657.86,-78.01 1647.3,-77.1 1654.98,-84.4 1657.86,-78.01"/>
</a>
</g>
</g>
<!-- Node24 -->
<g id="Node000024" class="node">
<title>Node24</title>
<g id="a_Node000024"><a xlink:title=" ">
<polygon fill="#e0e0e0" stroke="#999999" points="1798.98,-76 1690.73,-76 1690.73,-56 1798.98,-56 1798.98,-76"/>
<text xml:space="preserve" text-anchor="middle" x="1744.85" y="-62.5" font-family="Helvetica,sans-Serif" font-size="10.00">QtWidgets/QLineEdit</text>
</a>
</g>
</g>
<!-- Node19&#45;&gt;Node24 -->
<g id="edge23_Node000019_Node000024" class="edge">
<title>Node19&#45;&gt;Node24</title>
<g id="a_edge23_Node000019_Node000024"><a xlink:title=" ">
<path fill="none" stroke="#63b8ff" d="M1744.85,-111.59C1744.85,-105.01 1744.85,-95.96 1744.85,-87.73"/>
<polygon fill="#63b8ff" stroke="#63b8ff" points="1748.35,-87.81 1744.85,-77.81 1741.35,-87.81 1748.35,-87.81"/>
</a>
</g>
</g>
<!-- Node19&#45;&gt;Node27 -->
<g id="edge25_Node000019_Node000027" class="edge">
<title>Node19&#45;&gt;Node27</title>
<g id="a_edge25_Node000019_Node000027"><a xlink:title=" ">
<path fill="none" stroke="#63b8ff" d="M1791.91,-113.21C1847.22,-104.04 1939.45,-88.77 2002.61,-78.3"/>
<polygon fill="#63b8ff" stroke="#63b8ff" points="2002.87,-81.81 2012.16,-76.72 2001.73,-74.9 2002.87,-81.81"/>
</a>
</g>
</g>
<!-- Node19&#45;&gt;Node28 -->
<g id="edge27_Node000019_Node000028" class="edge">
<title>Node19&#45;&gt;Node28</title>
<g id="a_edge27_Node000019_Node000028"><a xlink:title=" ">
<path fill="none" stroke="#63b8ff" d="M1791.79,-113.88C1796.53,-113.22 1801.29,-112.58 1805.85,-112 1951.63,-93.47 1992,-98.53 2140.68,-76.2"/>
<polygon fill="#63b8ff" stroke="#63b8ff" points="2141.19,-79.66 2150.55,-74.69 2140.14,-72.74 2141.19,-79.66"/>
</a>
</g>
</g>
<!-- Node19&#45;&gt;Node31 -->
<g id="edge28_Node000019_Node000031" class="edge">
<title>Node19&#45;&gt;Node31</title>
<g id="a_edge28_Node000019_Node000031"><a xlink:title=" ">
<path fill="none" stroke="#63b8ff" d="M1791.69,-116.26C1806.74,-114.8 1823.5,-113.25 1838.85,-112 2075.5,-92.68 2135.13,-94.24 2371.85,-76 2383.29,-75.12 2395.42,-74.12 2407.22,-73.12"/>
<polygon fill="#63b8ff" stroke="#63b8ff" points="2407.21,-76.64 2416.87,-72.3 2406.61,-69.66 2407.21,-76.64"/>
</a>
</g>
</g>
<!-- Node19&#45;&gt;Node42 -->
<g id="edge31_Node000019_Node000042" class="edge">
<title>Node19&#45;&gt;Node42</title>
<g id="a_edge31_Node000019_Node000042"><a xlink:title=" ">
<path fill="none" stroke="#63b8ff" d="M1791.77,-113.78C1796.52,-113.14 1801.28,-112.53 1805.85,-112 1990.91,-90.55 2040.97,-95.9 2229.72,-76.18"/>
<polygon fill="#63b8ff" stroke="#63b8ff" points="2230.08,-79.66 2239.66,-75.13 2229.35,-72.7 2230.08,-79.66"/>
</a>
</g>
</g>
<!-- Node33 -->
<g id="Node000033" class="node">
<title>Node33</title>
<g id="a_Node000033"><a xlink:title=" ">
<polygon fill="#e0e0e0" stroke="#999999" points="2381.1,-20 2294.6,-20 2294.6,0 2381.1,0 2381.1,-20"/>
<text xml:space="preserve" text-anchor="middle" x="2337.85" y="-6.5" font-family="Helvetica,sans-Serif" font-size="10.00">QtCore/QObject</text>
</a>
</g>
</g>
<!-- Node31&#45;&gt;Node33 -->
<g id="edge29_Node000031_Node000033" class="edge">
<title>Node31&#45;&gt;Node33</title>
<g id="a_edge29_Node000031_Node000033"><a xlink:title=" ">
<path fill="none" stroke="#63b8ff" d="M2451.82,-55.59C2429.89,-47.01 2397.23,-34.23 2372.48,-24.55"/>
<polygon fill="#63b8ff" stroke="#63b8ff" points="2374.08,-21.42 2363.49,-21.03 2371.53,-27.93 2374.08,-21.42"/>
</a>
</g>
</g>
<!-- Node36 -->
<g id="Node000036" class="node">
<title>Node36</title>
<g id="a_Node000036"><a xlink:title=" ">
<polygon fill="#e0e0e0" stroke="#999999" points="2517.6,-20 2434.1,-20 2434.1,0 2517.6,0 2517.6,-20"/>
<text xml:space="preserve" text-anchor="middle" x="2475.85" y="-6.5" font-family="Helvetica,sans-Serif" font-size="10.00">QtCore/QString</text>
</a>
</g>
</g>
<!-- Node31&#45;&gt;Node36 -->
<g id="edge30_Node000031_Node000036" class="edge">
<title>Node31&#45;&gt;Node36</title>
<g id="a_edge30_Node000031_Node000036"><a xlink:title=" ">
<path fill="none" stroke="#63b8ff" d="M2475.85,-55.59C2475.85,-49.01 2475.85,-39.96 2475.85,-31.73"/>
<polygon fill="#63b8ff" stroke="#63b8ff" points="2479.35,-31.81 2475.85,-21.81 2472.35,-31.81 2479.35,-31.81"/>
</a>
</g>
</g>
<!-- Node42&#45;&gt;Node33 -->
<g id="edge32_Node000042_Node000033" class="edge">
<title>Node42&#45;&gt;Node33</title>
<g id="a_edge32_Node000042_Node000033"><a xlink:title=" ">
<path fill="none" stroke="#63b8ff" d="M2308.13,-55.59C2312.87,-48.47 2319.55,-38.45 2325.38,-29.72"/>
<polygon fill="#63b8ff" stroke="#63b8ff" points="2328.18,-31.82 2330.82,-21.56 2322.36,-27.94 2328.18,-31.82"/>
</a>
</g>
</g>
<!-- Node42&#45;&gt;Node36 -->
<g id="edge33_Node000042_Node000036" class="edge">
<title>Node42&#45;&gt;Node36</title>
<g id="a_edge33_Node000042_Node000036"><a xlink:title=" ">
<path fill="none" stroke="#63b8ff" d="M2332.16,-55.59C2360.56,-46.78 2403.22,-33.54 2434.69,-23.78"/>
<polygon fill="#63b8ff" stroke="#63b8ff" points="2435.35,-27.23 2443.86,-20.93 2433.28,-20.55 2435.35,-27.23"/>
</a>
</g>
</g>
<!-- Node44&#45;&gt;Node31 -->
<g id="edge35_Node000044_Node000031" class="edge">
<title>Node44&#45;&gt;Node31</title>
<g id="a_edge35_Node000044_Node000031"><a xlink:title=" ">
<path fill="none" stroke="#63b8ff" d="M2289.48,-111.53C2327.2,-102.52 2384.15,-88.91 2425.16,-79.11"/>
<polygon fill="#63b8ff" stroke="#63b8ff" points="2425.89,-82.54 2434.8,-76.81 2424.26,-75.73 2425.89,-82.54"/>
</a>
</g>
</g>
<!-- Node44&#45;&gt;Node42 -->
<g id="edge36_Node000044_Node000042" class="edge">
<title>Node44&#45;&gt;Node42</title>
<g id="a_edge36_Node000044_Node000042"><a xlink:title=" ">
<path fill="none" stroke="#63b8ff" d="M2258.91,-111.59C2266.07,-104.16 2276.26,-93.58 2284.92,-84.58"/>
<polygon fill="#63b8ff" stroke="#63b8ff" points="2287.44,-87.02 2291.85,-77.39 2282.39,-82.16 2287.44,-87.02"/>
</a>
</g>
</g>
<!-- Node54&#45;&gt;Node33 -->
<g id="edge38_Node000054_Node000033" class="edge">
<title>Node54&#45;&gt;Node33</title>
<g id="a_edge38_Node000054_Node000033"><a xlink:title=" ">
<path fill="none" stroke="#63b8ff" d="M114.78,-116.14C51,-109.33 -26.71,-93.28 9.85,-56 50.95,-14.1 1934.43,-11.19 2282.76,-11.01"/>
<polygon fill="#63b8ff" stroke="#63b8ff" points="2282.76,-14.51 2292.75,-11 2282.75,-7.51 2282.76,-14.51"/>
</a>
</g>
</g>
<!-- Node54&#45;&gt;Node36 -->
<g id="edge39_Node000054_Node000036" class="edge">
<title>Node54&#45;&gt;Node36</title>
<g id="a_edge39_Node000054_Node000036"><a xlink:title=" ">
<path fill="none" stroke="#63b8ff" d="M116.63,-111.55C67.13,-102.19 14.32,-84.97 42.85,-56 88.6,-9.54 2324.77,-23.9 2389.85,-20 2400.53,-19.36 2411.93,-18.38 2422.81,-17.3"/>
<polygon fill="#63b8ff" stroke="#63b8ff" points="2422.83,-20.81 2432.42,-16.3 2422.11,-13.85 2422.83,-20.81"/>
</a>
</g>
</g>
<!-- Node55&#45;&gt;Node31 -->
<g id="edge44_Node000055_Node000031" class="edge">
<title>Node55&#45;&gt;Node31</title>
<g id="a_edge44_Node000055_Node000031"><a xlink:title=" ">
<path fill="none" stroke="#63b8ff" d="M2405.66,-111.59C2418.26,-103.59 2436.61,-91.93 2451.39,-82.54"/>
<polygon fill="#63b8ff" stroke="#63b8ff" points="2453.09,-85.61 2459.66,-77.29 2449.34,-79.7 2453.09,-85.61"/>
</a>
</g>
</g>
<!-- Node55&#45;&gt;Node33 -->
<g id="edge41_Node000055_Node000033" class="edge">
<title>Node55&#45;&gt;Node33</title>
<g id="a_edge41_Node000055_Node000033"><a xlink:title=" ">
<path fill="none" stroke="#63b8ff" d="M2389.26,-111.78C2386.77,-98.82 2381.25,-74.7 2371.85,-56 2367.04,-46.42 2360.13,-36.81 2353.79,-28.94"/>
<polygon fill="#63b8ff" stroke="#63b8ff" points="2356.62,-26.87 2347.5,-21.48 2351.27,-31.38 2356.62,-26.87"/>
</a>
</g>
</g>
<!-- Node55&#45;&gt;Node36 -->
<g id="edge42_Node000055_Node000036" class="edge">
<title>Node55&#45;&gt;Node36</title>
<g id="a_edge42_Node000055_Node000036"><a xlink:title=" ">
<path fill="none" stroke="#63b8ff" d="M2457.98,-118.49C2488.69,-113.56 2522.48,-101.99 2541.85,-76 2556.17,-56.79 2531.48,-37.93 2508.33,-25.52"/>
<polygon fill="#63b8ff" stroke="#63b8ff" points="2510.14,-22.51 2499.64,-21.13 2506.99,-28.76 2510.14,-22.51"/>
</a>
</g>
</g>
<!-- Node55&#45;&gt;Node42 -->
<g id="edge43_Node000055_Node000042" class="edge">
<title>Node55&#45;&gt;Node42</title>
<g id="a_edge43_Node000055_Node000042"><a xlink:title=" ">
<path fill="none" stroke="#63b8ff" d="M2375.35,-111.59C2362.03,-103.51 2342.58,-91.71 2327.03,-82.27"/>
<polygon fill="#63b8ff" stroke="#63b8ff" points="2329.14,-79.46 2318.77,-77.26 2325.51,-85.44 2329.14,-79.46"/>
</a>
</g>
</g>
<!-- Node68 -->
<g id="Node000068" class="node">
<title>Node68</title>
<g id="a_Node000068"><a xlink:title=" ">
<polygon fill="#e0e0e0" stroke="#999999" points="3702.1,-132 3645.6,-132 3645.6,-112 3702.1,-112 3702.1,-132"/>
<text xml:space="preserve" text-anchor="middle" x="3673.85" y="-118.5" font-family="Helvetica,sans-Serif" font-size="10.00">QToolBar</text>
</a>
</g>
</g>
<!-- Node67&#45;&gt;Node68 -->
<g id="edge61_Node000067_Node000068" class="edge">
<title>Node67&#45;&gt;Node68</title>
<g id="a_edge61_Node000067_Node000068"><a xlink:title=" ">
<path fill="none" stroke="#63b8ff" d="M3559.07,-167.59C3581.15,-159.01 3614.05,-146.23 3638.97,-136.55"/>
<polygon fill="#63b8ff" stroke="#63b8ff" points="3639.99,-139.91 3648.04,-133.03 3637.45,-133.39 3639.99,-139.91"/>
</a>
</g>
</g>
<!-- Node69 -->
<g id="Node000069" class="node">
<title>Node69</title>
<g id="a_Node000069"><a xlink:title=" ">
<polygon fill="#e0e0e0" stroke="#999999" points="3434.6,-132 3387.1,-132 3387.1,-112 3434.6,-112 3434.6,-132"/>
<text xml:space="preserve" text-anchor="middle" x="3410.85" y="-118.5" font-family="Helvetica,sans-Serif" font-size="10.00">QMenu</text>
</a>
</g>
</g>
<!-- Node67&#45;&gt;Node69 -->
<g id="edge62_Node000067_Node000069" class="edge">
<title>Node67&#45;&gt;Node69</title>
<g id="a_edge62_Node000067_Node000069"><a xlink:title=" ">
<path fill="none" stroke="#63b8ff" d="M3513.26,-167.59C3493.9,-159.17 3465.25,-146.69 3443.17,-137.07"/>
<polygon fill="#63b8ff" stroke="#63b8ff" points="3444.58,-133.87 3434.01,-133.08 3441.78,-140.29 3444.58,-133.87"/>
</a>
</g>
</g>
<!-- Node70 -->
<g id="Node000070" class="node">
<title>Node70</title>
<g id="a_Node000070"><a xlink:title=" ">
<polygon fill="#e0e0e0" stroke="#999999" points="3494.98,-132 3452.73,-132 3452.73,-112 3494.98,-112 3494.98,-132"/>
<text xml:space="preserve" text-anchor="middle" x="3473.85" y="-118.5" font-family="Helvetica,sans-Serif" font-size="10.00">QIcon</text>
</a>
</g>
</g>
<!-- Node67&#45;&gt;Node70 -->
<g id="edge63_Node000067_Node000070" class="edge">
<title>Node67&#45;&gt;Node70</title>
<g id="a_edge63_Node000067_Node000070"><a xlink:title=" ">
<path fill="none" stroke="#63b8ff" d="M3524.23,-167.59C3515.57,-159.93 3503.12,-148.91 3492.77,-139.75"/>
<polygon fill="#63b8ff" stroke="#63b8ff" points="3495.3,-137.31 3485.49,-133.3 3490.66,-142.55 3495.3,-137.31"/>
</a>
</g>
</g>
<!-- Node71 -->
<g id="Node000071" class="node">
<title>Node71</title>
<g id="a_Node000071"><a xlink:title=" ">
<polygon fill="#e0e0e0" stroke="#999999" points="3556.35,-132 3513.35,-132 3513.35,-112 3556.35,-112 3556.35,-132"/>
<text xml:space="preserve" text-anchor="middle" x="3534.85" y="-118.5" font-family="Helvetica,sans-Serif" font-size="10.00">QSize</text>
</a>
</g>
</g>
<!-- Node67&#45;&gt;Node71 -->
<g id="edge64_Node000067_Node000071" class="edge">
<title>Node67&#45;&gt;Node71</title>
<g id="a_edge64_Node000067_Node000071"><a xlink:title=" ">
<path fill="none" stroke="#63b8ff" d="M3534.85,-167.59C3534.85,-161.01 3534.85,-151.96 3534.85,-143.73"/>
<polygon fill="#63b8ff" stroke="#63b8ff" points="3538.35,-143.81 3534.85,-133.81 3531.35,-143.81 3538.35,-143.81"/>
</a>
</g>
</g>
<!-- Node72 -->
<g id="Node000072" class="node">
<title>Node72</title>
<g id="a_Node000072"><a xlink:title=" ">
<polygon fill="#e0e0e0" stroke="#999999" points="3627.23,-132 3574.48,-132 3574.48,-112 3627.23,-112 3627.23,-132"/>
<text xml:space="preserve" text-anchor="middle" x="3600.85" y="-118.5" font-family="Helvetica,sans-Serif" font-size="10.00">QCursor</text>
</a>
</g>
</g>
<!-- Node67&#45;&gt;Node72 -->
<g id="edge65_Node000067_Node000072" class="edge">
<title>Node67&#45;&gt;Node72</title>
<g id="a_edge65_Node000067_Node000072"><a xlink:title=" ">
<path fill="none" stroke="#63b8ff" d="M3546.35,-167.59C3555.81,-159.85 3569.46,-148.69 3580.73,-139.47"/>
<polygon fill="#63b8ff" stroke="#63b8ff" points="3582.8,-142.3 3588.32,-133.26 3578.36,-136.88 3582.8,-142.3"/>
</a>
</g>
</g>
<!-- Node73&#45;&gt;Node31 -->
<g id="edge69_Node000073_Node000031" class="edge">
<title>Node73&#45;&gt;Node31</title>
<g id="a_edge69_Node000073_Node000031"><a xlink:title=" ">
<path fill="none" stroke="#63b8ff" d="M2557.61,-111.59C2542.51,-103.36 2520.33,-91.26 2502.87,-81.74"/>
<polygon fill="#63b8ff" stroke="#63b8ff" points="2505.02,-78.92 2494.56,-77.2 2501.67,-85.07 2505.02,-78.92"/>
</a>
</g>
</g>
<!-- Node73&#45;&gt;Node36 -->
<g id="edge68_Node000073_Node000036" class="edge">
<title>Node73&#45;&gt;Node36</title>
<g id="a_edge68_Node000073_Node000036"><a xlink:title=" ">
<path fill="none" stroke="#63b8ff" d="M2574.66,-111.59C2573.93,-97.97 2570.77,-72.56 2557.85,-56 2547.06,-42.16 2530.77,-31.99 2515.54,-24.85"/>
<polygon fill="#63b8ff" stroke="#63b8ff" points="2517.21,-21.76 2506.64,-20.99 2514.42,-28.18 2517.21,-21.76"/>
</a>
</g>
</g>
</g>
</svg>
