<?xml version="1.0" encoding="UTF-8" standalone="no"?>
<!DOCTYPE svg PUBLIC "-//W3C//DTD SVG 1.1//EN"
 "http://www.w3.org/Graphics/SVG/1.1/DTD/svg11.dtd">
<!-- Generated by graphviz version 14.1.1 (20251213.1925)
 -->
<!-- Title: src/view/PropertiesPanel.h Pages: 1 -->
<svg width="2204pt" height="196pt"
 viewBox="0.00 0.00 2204.00 196.00" xmlns="http://www.w3.org/2000/svg" xmlns:xlink="http://www.w3.org/1999/xlink">
<g id="graph0" class="graph" transform="scale(1 1) rotate(0) translate(4 192)">
<title>src/view/PropertiesPanel.h</title>
<!-- Node1 -->
<g id="Node000001" class="node">
<title>Node1</title>
<g id="a_Node000001"><a xlink:title=" ">
<polygon fill="#999999" stroke="#666666" points="990.88,-188 857.88,-188 857.88,-168 990.88,-168 990.88,-188"/>
<text xml:space="preserve" text-anchor="middle" x="924.38" y="-174.5" font-family="Helvetica,sans-Serif" font-size="10.00">src/view/PropertiesPanel.h</text>
</a>
</g>
</g>
<!-- Node2 -->
<g id="Node000002" class="node">
<title>Node2</title>
<g id="a_Node000002"><a xlink:title=" ">
<polygon fill="#e0e0e0" stroke="#999999" points="34.75,-132 0,-132 0,-112 34.75,-112 34.75,-132"/>
<text xml:space="preserve" text-anchor="middle" x="17.38" y="-118.5" font-family="Helvetica,sans-Serif" font-size="10.00">map</text>
</a>
</g>
</g>
<!-- Node1&#45;&gt;Node2 -->
<g id="edge1_Node000001_Node000002" class="edge">
<title>Node1&#45;&gt;Node2</title>
<g id="a_edge1_Node000001_Node000002"><a xlink:title=" ">
<path fill="none" stroke="#63b8ff" d="M857.42,-175.92C683.78,-172.74 221,-161.86 46.52,-131.75"/>
<polygon fill="#63b8ff" stroke="#63b8ff" points="47.16,-128.31 36.69,-129.96 45.91,-135.2 47.16,-128.31"/>
</a>
</g>
</g>
<!-- Node3 -->
<g id="Node000003" class="node">
<title>Node3</title>
<g id="a_Node000003"><a xlink:title=" ">
<polygon fill="#e0e0e0" stroke="#999999" points="171.75,-132 53,-132 53,-112 171.75,-112 171.75,-132"/>
<text xml:space="preserve" text-anchor="middle" x="112.38" y="-118.5" font-family="Helvetica,sans-Serif" font-size="10.00">QtWidgets/QCheckBox</text>
</a>
</g>
</g>
<!-- Node1&#45;&gt;Node3 -->
<g id="edge2_Node000001_Node000003" class="edge">
<title>Node1&#45;&gt;Node3</title>
<g id="a_edge2_Node000001_Node000003"><a xlink:title=" ">
<path fill="none" stroke="#63b8ff" d="M857.56,-174.55C729.05,-169.5 438.3,-156.39 183.4,-132.23"/>
<polygon fill="#63b8ff" stroke="#63b8ff" points="183.85,-128.75 173.56,-131.29 183.18,-135.72 183.85,-128.75"/>
</a>
</g>
</g>
<!-- Node4 -->
<g id="Node000004" class="node">
<title>Node4</title>
<g id="a_Node000004"><a xlink:title=" ">
<polygon fill="#e0e0e0" stroke="#999999" points="311.25,-132 189.5,-132 189.5,-112 311.25,-112 311.25,-132"/>
<text xml:space="preserve" text-anchor="middle" x="250.38" y="-118.5" font-family="Helvetica,sans-Serif" font-size="10.00">QtWidgets/QComboBox</text>
</a>
</g>
</g>
<!-- Node1&#45;&gt;Node4 -->
<g id="edge3_Node000001_Node000004" class="edge">
<title>Node1&#45;&gt;Node4</title>
<g id="a_edge3_Node000001_Node000004"><a xlink:title=" ">
<path fill="none" stroke="#63b8ff" d="M857.69,-173.2C748.32,-166.71 523.75,-152.32 322.81,-132.19"/>
<polygon fill="#63b8ff" stroke="#63b8ff" points="323.24,-128.72 312.94,-131.2 322.54,-135.68 323.24,-128.72"/>
</a>
</g>
</g>
<!-- Node5 -->
<g id="Node000005" class="node">
<title>Node5</title>
<g id="a_Node000005"><a xlink:title=" ">
<polygon fill="#e0e0e0" stroke="#999999" points="425.5,-132 329.25,-132 329.25,-112 425.5,-112 425.5,-132"/>
<text xml:space="preserve" text-anchor="middle" x="377.38" y="-118.5" font-family="Helvetica,sans-Serif" font-size="10.00">QtWidgets/QLabel</text>
</a>
</g>
</g>
<!-- Node1&#45;&gt;Node5 -->
<g id="edge4_Node000001_Node000005" class="edge">
<title>Node1&#45;&gt;Node5</title>
<g id="a_edge4_Node000001_Node000005"><a xlink:title=" ">
<path fill="none" stroke="#63b8ff" d="M857.65,-172.25C765.43,-165.39 593.56,-151.49 437.09,-132.27"/>
<polygon fill="#63b8ff" stroke="#63b8ff" points="437.71,-128.82 427.36,-131.06 436.85,-135.76 437.71,-128.82"/>
</a>
</g>
</g>
<!-- Node6 -->
<g id="Node000006" class="node">
<title>Node6</title>
<g id="a_Node000006"><a xlink:title=" ">
<polygon fill="#e0e0e0" stroke="#999999" points="551.5,-132 443.25,-132 443.25,-112 551.5,-112 551.5,-132"/>
<text xml:space="preserve" text-anchor="middle" x="497.38" y="-118.5" font-family="Helvetica,sans-Serif" font-size="10.00">QtWidgets/QLineEdit</text>
</a>
</g>
</g>
<!-- Node1&#45;&gt;Node6 -->
<g id="edge5_Node000001_Node000006" class="edge">
<title>Node1&#45;&gt;Node6</title>
<g id="a_edge5_Node000001_Node000006"><a xlink:title=" ">
<path fill="none" stroke="#63b8ff" d="M857.57,-169.13C786.95,-160.71 671.99,-146.78 562.88,-132.31"/>
<polygon fill="#63b8ff" stroke="#63b8ff" points="563.54,-128.87 553.16,-131.02 562.61,-135.81 563.54,-128.87"/>
</a>
</g>
</g>
<!-- Node7 -->
<g id="Node000007" class="node">
<title>Node7</title>
<g id="a_Node000007"><a xlink:title=" ">
<polygon fill="#e0e0e0" stroke="#999999" points="693.38,-132 569.38,-132 569.38,-112 693.38,-112 693.38,-132"/>
<text xml:space="preserve" text-anchor="middle" x="631.38" y="-118.5" font-family="Helvetica,sans-Serif" font-size="10.00">QtWidgets/QPushButton</text>
</a>
</g>
</g>
<!-- Node1&#45;&gt;Node7 -->
<g id="edge6_Node000001_Node000007" class="edge">
<title>Node1&#45;&gt;Node7</title>
<g id="a_edge6_Node000001_Node000007"><a xlink:title=" ">
<path fill="none" stroke="#63b8ff" d="M873,-167.53C823.05,-158.33 747.11,-144.33 693.72,-134.49"/>
<polygon fill="#63b8ff" stroke="#63b8ff" points="694.65,-131.1 684.18,-132.73 693.38,-137.99 694.65,-131.1"/>
</a>
</g>
</g>
<!-- Node8 -->
<g id="Node000008" class="node">
<title>Node8</title>
<g id="a_Node000008"><a xlink:title=" ">
<polygon fill="#e0e0e0" stroke="#999999" points="835,-132 711.75,-132 711.75,-112 835,-112 835,-132"/>
<text xml:space="preserve" text-anchor="middle" x="773.38" y="-118.5" font-family="Helvetica,sans-Serif" font-size="10.00">QtWidgets/QTreeWidget</text>
</a>
</g>
</g>
<!-- Node1&#45;&gt;Node8 -->
<g id="edge7_Node000001_Node000008" class="edge">
<title>Node1&#45;&gt;Node8</title>
<g id="a_edge7_Node000001_Node000008"><a xlink:title=" ">
<path fill="none" stroke="#63b8ff" d="M898.07,-167.59C873.86,-158.94 837.7,-146 810.54,-136.29"/>
<polygon fill="#63b8ff" stroke="#63b8ff" points="811.9,-133.06 801.31,-132.99 809.55,-139.65 811.9,-133.06"/>
</a>
</g>
</g>
<!-- Node9 -->
<g id="Node000009" class="node">
<title>Node9</title>
<g id="a_Node000009"><a xlink:title=" ">
<polygon fill="#e0e0e0" stroke="#999999" points="995.75,-132 853,-132 853,-112 995.75,-112 995.75,-132"/>
<text xml:space="preserve" text-anchor="middle" x="924.38" y="-118.5" font-family="Helvetica,sans-Serif" font-size="10.00">QtWidgets/QTreeWidgetItem</text>
</a>
</g>
</g>
<!-- Node1&#45;&gt;Node9 -->
<g id="edge8_Node000001_Node000009" class="edge">
<title>Node1&#45;&gt;Node9</title>
<g id="a_edge8_Node000001_Node000009"><a xlink:title=" ">
<path fill="none" stroke="#63b8ff" d="M924.38,-167.59C924.38,-161.01 924.38,-151.96 924.38,-143.73"/>
<polygon fill="#63b8ff" stroke="#63b8ff" points="927.88,-143.81 924.38,-133.81 920.88,-143.81 927.88,-143.81"/>
</a>
</g>
</g>
<!-- Node10 -->
<g id="Node000010" class="node">
<title>Node10</title>
<g id="a_Node000010"><a xlink:title=" ">
<polygon fill="#e0e0e0" stroke="#999999" points="1140.5,-132 1014.25,-132 1014.25,-112 1140.5,-112 1140.5,-132"/>
<text xml:space="preserve" text-anchor="middle" x="1077.38" y="-118.5" font-family="Helvetica,sans-Serif" font-size="10.00">QtWidgets/QVBoxLayout</text>
</a>
</g>
</g>
<!-- Node1&#45;&gt;Node10 -->
<g id="edge9_Node000001_Node000010" class="edge">
<title>Node1&#45;&gt;Node10</title>
<g id="a_edge9_Node000001_Node000010"><a xlink:title=" ">
<path fill="none" stroke="#63b8ff" d="M951.03,-167.59C975.56,-158.94 1012.2,-146 1039.72,-136.29"/>
<polygon fill="#63b8ff" stroke="#63b8ff" points="1040.82,-139.61 1049.09,-132.98 1038.49,-133.01 1040.82,-139.61"/>
</a>
</g>
</g>
<!-- Node11 -->
<g id="Node000011" class="node">
<title>Node11</title>
<g id="a_Node000011"><a xlink:title=" ">
<polygon fill="#e0e0e0" stroke="#999999" points="1262.25,-132 1158.5,-132 1158.5,-112 1262.25,-112 1262.25,-132"/>
<text xml:space="preserve" text-anchor="middle" x="1210.38" y="-118.5" font-family="Helvetica,sans-Serif" font-size="10.00">QtWidgets/QWidget</text>
</a>
</g>
</g>
<!-- Node1&#45;&gt;Node11 -->
<g id="edge10_Node000001_Node000011" class="edge">
<title>Node1&#45;&gt;Node11</title>
<g id="a_edge10_Node000001_Node000011"><a xlink:title=" ">
<path fill="none" stroke="#63b8ff" d="M974.52,-167.53C1023.18,-158.35 1097.1,-144.39 1149.19,-134.55"/>
<polygon fill="#63b8ff" stroke="#63b8ff" points="1149.62,-138.03 1158.8,-132.74 1148.32,-131.15 1149.62,-138.03"/>
</a>
</g>
</g>
<!-- Node12 -->
<g id="Node000012" class="node">
<title>Node12</title>
<g id="a_Node000012"><a xlink:title=" ">
<polygon fill="#e0e0e0" stroke="#999999" points="1350.75,-132 1280,-132 1280,-112 1350.75,-112 1350.75,-132"/>
<text xml:space="preserve" text-anchor="middle" x="1315.38" y="-118.5" font-family="Helvetica,sans-Serif" font-size="10.00">QtGui/QIcon</text>
</a>
</g>
</g>
<!-- Node1&#45;&gt;Node12 -->
<g id="edge11_Node000001_Node000012" class="edge">
<title>Node1&#45;&gt;Node12</title>
<g id="a_edge11_Node000001_Node000012"><a xlink:title=" ">
<path fill="none" stroke="#63b8ff" d="M991.11,-169.81C1058.67,-162.19 1166.4,-149.16 1268.71,-132.35"/>
<polygon fill="#63b8ff" stroke="#63b8ff" points="1269.09,-135.83 1278.38,-130.74 1267.94,-128.93 1269.09,-135.83"/>
</a>
</g>
</g>
<!-- Node13 -->
<g id="Node000013" class="node">
<title>Node13</title>
<g id="a_Node000013"><a xlink:title=" ">
<polygon fill="#e0e0e0" stroke="#999999" points="1451.75,-132 1369,-132 1369,-112 1451.75,-112 1451.75,-132"/>
<text xml:space="preserve" text-anchor="middle" x="1410.38" y="-118.5" font-family="Helvetica,sans-Serif" font-size="10.00">QtGui/QPainter</text>
</a>
</g>
</g>
<!-- Node1&#45;&gt;Node13 -->
<g id="edge12_Node000001_Node000013" class="edge">
<title>Node1&#45;&gt;Node13</title>
<g id="a_edge12_Node000001_Node000013"><a xlink:title=" ">
<path fill="none" stroke="#63b8ff" d="M991.25,-171.58C1074.55,-164.49 1221.48,-150.9 1357.63,-132.15"/>
<polygon fill="#63b8ff" stroke="#63b8ff" points="1357.74,-135.66 1367.17,-130.82 1356.78,-128.73 1357.74,-135.66"/>
</a>
</g>
</g>
<!-- Node14 -->
<g id="Node000014" class="node">
<title>Node14</title>
<g id="a_Node000014"><a xlink:title=" ">
<polygon fill="#e0e0e0" stroke="#999999" points="1572.88,-132 1469.88,-132 1469.88,-112 1572.88,-112 1572.88,-132"/>
<text xml:space="preserve" text-anchor="middle" x="1521.38" y="-118.5" font-family="Helvetica,sans-Serif" font-size="10.00">QtGui/QPainterPath</text>
</a>
</g>
</g>
<!-- Node1&#45;&gt;Node14 -->
<g id="edge13_Node000001_Node000014" class="edge">
<title>Node1&#45;&gt;Node14</title>
<g id="a_edge13_Node000001_Node000014"><a xlink:title=" ">
<path fill="none" stroke="#63b8ff" d="M991.36,-172.73C1090.82,-166.09 1283.69,-152.07 1458.28,-132.17"/>
<polygon fill="#63b8ff" stroke="#63b8ff" points="1458.45,-135.67 1467.99,-131.05 1457.65,-128.72 1458.45,-135.67"/>
</a>
</g>
</g>
<!-- Node15 -->
<g id="Node000015" class="node">
<title>Node15</title>
<g id="a_Node000015"><a xlink:href="_basic_element_8h.html" target="_top" xlink:title=" ">
<polygon fill="white" stroke="#666666" points="1888.5,-132 1774.25,-132 1774.25,-112 1888.5,-112 1888.5,-132"/>
<text xml:space="preserve" text-anchor="middle" x="1831.38" y="-118.5" font-family="Helvetica,sans-Serif" font-size="10.00">model/BasicElement.h</text>
</a>
</g>
</g>
<!-- Node1&#45;&gt;Node15 -->
<g id="edge14_Node000001_Node000015" class="edge">
<title>Node1&#45;&gt;Node15</title>
<g id="a_edge14_Node000001_Node000015"><a xlink:title=" ">
<path fill="none" stroke="#63b8ff" d="M991.07,-173.03C1158.13,-163.08 1593.26,-137.18 1762.57,-127.1"/>
<polygon fill="#63b8ff" stroke="#63b8ff" points="1762.52,-130.61 1772.3,-126.52 1762.11,-123.62 1762.52,-130.61"/>
</a>
</g>
</g>
<!-- Node26 -->
<g id="Node000026" class="node">
<title>Node26</title>
<g id="a_Node000026"><a xlink:href="_connection_line_8h.html" target="_top" xlink:title=" ">
<polygon fill="white" stroke="#666666" points="1515.88,-76 1394.88,-76 1394.88,-56 1515.88,-56 1515.88,-76"/>
<text xml:space="preserve" text-anchor="middle" x="1455.38" y="-62.5" font-family="Helvetica,sans-Serif" font-size="10.00">model/ConnectionLine.h</text>
</a>
</g>
</g>
<!-- Node1&#45;&gt;Node26 -->
<g id="edge29_Node000001_Node000026" class="edge">
<title>Node1&#45;&gt;Node26</title>
<g id="a_edge29_Node000001_Node000026"><a xlink:title=" ">
<path fill="none" stroke="#63b8ff" d="M991.32,-177.47C1150.76,-177.89 1542.64,-174.55 1582.38,-132 1606.27,-106.41 1565.05,-89.26 1523.34,-79.03"/>
<polygon fill="#63b8ff" stroke="#63b8ff" points="1524.2,-75.64 1513.67,-76.8 1522.62,-82.46 1524.2,-75.64"/>
</a>
</g>
</g>
<!-- Node16 -->
<g id="Node000016" class="node">
<title>Node16</title>
<g id="a_Node000016"><a xlink:title=" ">
<polygon fill="#e0e0e0" stroke="#999999" points="2148,-76 2066.75,-76 2066.75,-56 2148,-56 2148,-76"/>
<text xml:space="preserve" text-anchor="middle" x="2107.38" y="-62.5" font-family="Helvetica,sans-Serif" font-size="10.00">QtCore/QHash</text>
</a>
</g>
</g>
<!-- Node15&#45;&gt;Node16 -->
<g id="edge15_Node000015_Node000016" class="edge">
<title>Node15&#45;&gt;Node16</title>
<g id="a_edge15_Node000015_Node000016"><a xlink:title=" ">
<path fill="none" stroke="#63b8ff" d="M1879.77,-111.53C1929.07,-101.89 2005.25,-86.98 2055.7,-77.11"/>
<polygon fill="#63b8ff" stroke="#63b8ff" points="2056.06,-80.61 2065.2,-75.25 2054.71,-73.74 2056.06,-80.61"/>
</a>
</g>
</g>
<!-- Node17 -->
<g id="Node000017" class="node">
<title>Node17</title>
<g id="a_Node000017"><a xlink:title=" ">
<polygon fill="#e0e0e0" stroke="#999999" points="1693.62,-20 1607.12,-20 1607.12,0 1693.62,0 1693.62,-20"/>
<text xml:space="preserve" text-anchor="middle" x="1650.38" y="-6.5" font-family="Helvetica,sans-Serif" font-size="10.00">QtCore/QObject</text>
</a>
</g>
</g>
<!-- Node15&#45;&gt;Node17 -->
<g id="edge16_Node000015_Node000017" class="edge">
<title>Node15&#45;&gt;Node17</title>
<g id="a_edge16_Node000015_Node000017"><a xlink:title=" ">
<path fill="none" stroke="#63b8ff" d="M1888.78,-121.72C1972.86,-121.41 2123.22,-115.2 2157.38,-76 2163.21,-69.3 2163.41,-62.53 2157.38,-56 2124.78,-20.72 1790.25,-25.6 1705.39,-19.76"/>
<polygon fill="#63b8ff" stroke="#63b8ff" points="1705.79,-16.28 1695.51,-18.86 1705.15,-23.26 1705.79,-16.28"/>
</a>
</g>
</g>
<!-- Node18 -->
<g id="Node000018" class="node">
<title>Node18</title>
<g id="a_Node000018"><a xlink:title=" ">
<polygon fill="#e0e0e0" stroke="#999999" points="1798.62,-20 1712.12,-20 1712.12,0 1798.62,0 1798.62,-20"/>
<text xml:space="preserve" text-anchor="middle" x="1755.38" y="-6.5" font-family="Helvetica,sans-Serif" font-size="10.00">QtCore/QPointF</text>
</a>
</g>
</g>
<!-- Node15&#45;&gt;Node18 -->
<g id="edge17_Node000015_Node000018" class="edge">
<title>Node15&#45;&gt;Node18</title>
<g id="a_edge17_Node000015_Node000018"><a xlink:title=" ">
<path fill="none" stroke="#63b8ff" d="M1889,-119.53C2000.61,-115.64 2231.84,-101.98 2190.38,-56 2165.36,-28.26 1921.76,-16.58 1810.41,-12.66"/>
<polygon fill="#63b8ff" stroke="#63b8ff" points="1810.73,-9.17 1800.62,-12.32 1810.49,-16.16 1810.73,-9.17"/>
</a>
</g>
</g>
<!-- Node19 -->
<g id="Node000019" class="node">
<title>Node19</title>
<g id="a_Node000019"><a xlink:title=" ">
<polygon fill="#e0e0e0" stroke="#999999" points="1771.88,-76 1686.88,-76 1686.88,-56 1771.88,-56 1771.88,-76"/>
<text xml:space="preserve" text-anchor="middle" x="1729.38" y="-62.5" font-family="Helvetica,sans-Serif" font-size="10.00">QtCore/QRectF</text>
</a>
</g>
</g>
<!-- Node15&#45;&gt;Node19 -->
<g id="edge18_Node000015_Node000019" class="edge">
<title>Node15&#45;&gt;Node19</title>
<g id="a_edge18_Node000015_Node000019"><a xlink:title=" ">
<path fill="none" stroke="#63b8ff" d="M1813.61,-111.59C1798.05,-103.36 1775.19,-91.26 1757.21,-81.74"/>
<polygon fill="#63b8ff" stroke="#63b8ff" points="1759.09,-78.77 1748.62,-77.19 1755.82,-84.96 1759.09,-78.77"/>
</a>
</g>
</g>
<!-- Node20 -->
<g id="Node000020" class="node">
<title>Node20</title>
<g id="a_Node000020"><a xlink:title=" ">
<polygon fill="#e0e0e0" stroke="#999999" points="1400.12,-20 1316.62,-20 1316.62,0 1400.12,0 1400.12,-20"/>
<text xml:space="preserve" text-anchor="middle" x="1358.38" y="-6.5" font-family="Helvetica,sans-Serif" font-size="10.00">QtCore/QString</text>
</a>
</g>
</g>
<!-- Node15&#45;&gt;Node20 -->
<g id="edge19_Node000015_Node000020" class="edge">
<title>Node15&#45;&gt;Node20</title>
<g id="a_edge19_Node000015_Node000020"><a xlink:title=" ">
<path fill="none" stroke="#63b8ff" d="M1774.12,-118.43C1660.99,-112.88 1417.03,-98.46 1386.38,-76 1372.13,-65.56 1365.05,-46.35 1361.59,-31.51"/>
<polygon fill="#63b8ff" stroke="#63b8ff" points="1365.05,-31.01 1359.73,-21.85 1358.18,-32.33 1365.05,-31.01"/>
</a>
</g>
</g>
<!-- Node21 -->
<g id="Node000021" class="node">
<title>Node21</title>
<g id="a_Node000021"><a xlink:title=" ">
<polygon fill="#e0e0e0" stroke="#999999" points="1873.12,-76 1789.62,-76 1789.62,-56 1873.12,-56 1873.12,-76"/>
<text xml:space="preserve" text-anchor="middle" x="1831.38" y="-62.5" font-family="Helvetica,sans-Serif" font-size="10.00">QtCore/QSizeF</text>
</a>
</g>
</g>
<!-- Node15&#45;&gt;Node21 -->
<g id="edge20_Node000015_Node000021" class="edge">
<title>Node15&#45;&gt;Node21</title>
<g id="a_edge20_Node000015_Node000021"><a xlink:title=" ">
<path fill="none" stroke="#63b8ff" d="M1831.38,-111.59C1831.38,-105.01 1831.38,-95.96 1831.38,-87.73"/>
<polygon fill="#63b8ff" stroke="#63b8ff" points="1834.88,-87.81 1831.38,-77.81 1827.88,-87.81 1834.88,-87.81"/>
</a>
</g>
</g>
<!-- Node22 -->
<g id="Node000022" class="node">
<title>Node22</title>
<g id="a_Node000022"><a xlink:title=" ">
<polygon fill="#e0e0e0" stroke="#999999" points="1589.5,-20 1511.25,-20 1511.25,0 1589.5,0 1589.5,-20"/>
<text xml:space="preserve" text-anchor="middle" x="1550.38" y="-6.5" font-family="Helvetica,sans-Serif" font-size="10.00">QtCore/QUuid</text>
</a>
</g>
</g>
<!-- Node15&#45;&gt;Node22 -->
<g id="edge21_Node000015_Node000022" class="edge">
<title>Node15&#45;&gt;Node22</title>
<g id="a_edge21_Node000015_Node000022"><a xlink:title=" ">
<path fill="none" stroke="#63b8ff" d="M1773.76,-118.8C1704.12,-114.91 1592.59,-104.32 1563.38,-76 1551.74,-64.72 1548.97,-46.2 1548.84,-31.8"/>
<polygon fill="#63b8ff" stroke="#63b8ff" points="1552.33,-32.13 1549.18,-22.01 1545.33,-31.88 1552.33,-32.13"/>
</a>
</g>
</g>
<!-- Node23 -->
<g id="Node000023" class="node">
<title>Node23</title>
<g id="a_Node000023"><a xlink:title=" ">
<polygon fill="#e0e0e0" stroke="#999999" points="1979.38,-76 1891.38,-76 1891.38,-56 1979.38,-56 1979.38,-76"/>
<text xml:space="preserve" text-anchor="middle" x="1935.38" y="-62.5" font-family="Helvetica,sans-Serif" font-size="10.00">QtCore/QVariant</text>
</a>
</g>
</g>
<!-- Node15&#45;&gt;Node23 -->
<g id="edge22_Node000015_Node000023" class="edge">
<title>Node15&#45;&gt;Node23</title>
<g id="a_edge22_Node000015_Node000023"><a xlink:title=" ">
<path fill="none" stroke="#63b8ff" d="M1849.49,-111.59C1865.35,-103.36 1888.66,-91.26 1906.99,-81.74"/>
<polygon fill="#63b8ff" stroke="#63b8ff" points="1908.51,-84.89 1915.77,-77.18 1905.29,-78.68 1908.51,-84.89"/>
</a>
</g>
</g>
<!-- Node24 -->
<g id="Node000024" class="node">
<title>Node24</title>
<g id="a_Node000024"><a xlink:title=" ">
<polygon fill="#e0e0e0" stroke="#999999" points="2049,-76 1997.75,-76 1997.75,-56 2049,-56 2049,-76"/>
<text xml:space="preserve" text-anchor="middle" x="2023.38" y="-62.5" font-family="Helvetica,sans-Serif" font-size="10.00">memory</text>
</a>
</g>
</g>
<!-- Node15&#45;&gt;Node24 -->
<g id="edge23_Node000015_Node000024" class="edge">
<title>Node15&#45;&gt;Node24</title>
<g id="a_edge23_Node000015_Node000024"><a xlink:title=" ">
<path fill="none" stroke="#63b8ff" d="M1864.82,-111.59C1898.85,-102.02 1951.45,-87.23 1986.62,-77.34"/>
<polygon fill="#63b8ff" stroke="#63b8ff" points="1987.25,-80.8 1995.93,-74.72 1985.36,-74.06 1987.25,-80.8"/>
</a>
</g>
</g>
<!-- Node25 -->
<g id="Node000025" class="node">
<title>Node25</title>
<g id="a_Node000025"><a xlink:href="_connection_point_8h.html" target="_top" xlink:title=" ">
<polygon fill="white" stroke="#666666" points="1668.5,-76 1572.25,-76 1572.25,-56 1668.5,-56 1668.5,-76"/>
<text xml:space="preserve" text-anchor="middle" x="1620.38" y="-62.5" font-family="Helvetica,sans-Serif" font-size="10.00">ConnectionPoint.h</text>
</a>
</g>
</g>
<!-- Node15&#45;&gt;Node25 -->
<g id="edge24_Node000015_Node000025" class="edge">
<title>Node15&#45;&gt;Node25</title>
<g id="a_edge24_Node000015_Node000025"><a xlink:title=" ">
<path fill="none" stroke="#63b8ff" d="M1794.62,-111.59C1759.59,-102.63 1706.64,-89.08 1668.31,-79.27"/>
<polygon fill="#63b8ff" stroke="#63b8ff" points="1669.44,-75.94 1658.88,-76.85 1667.7,-82.72 1669.44,-75.94"/>
</a>
</g>
</g>
<!-- Node25&#45;&gt;Node17 -->
<g id="edge25_Node000025_Node000017" class="edge">
<title>Node25&#45;&gt;Node17</title>
<g id="a_edge25_Node000025_Node000017"><a xlink:title=" ">
<path fill="none" stroke="#63b8ff" d="M1625.6,-55.59C1629.47,-48.63 1634.88,-38.89 1639.66,-30.29"/>
<polygon fill="#63b8ff" stroke="#63b8ff" points="1642.68,-32.06 1644.47,-21.62 1636.56,-28.66 1642.68,-32.06"/>
</a>
</g>
</g>
<!-- Node25&#45;&gt;Node18 -->
<g id="edge26_Node000025_Node000018" class="edge">
<title>Node25&#45;&gt;Node18</title>
<g id="a_edge26_Node000025_Node000018"><a xlink:title=" ">
<path fill="none" stroke="#63b8ff" d="M1643.89,-55.59C1665.25,-47.05 1697.01,-34.35 1721.17,-24.68"/>
<polygon fill="#63b8ff" stroke="#63b8ff" points="1722.29,-28.01 1730.27,-21.04 1719.69,-21.51 1722.29,-28.01"/>
</a>
</g>
</g>
<!-- Node25&#45;&gt;Node20 -->
<g id="edge27_Node000025_Node000020" class="edge">
<title>Node25&#45;&gt;Node20</title>
<g id="a_edge27_Node000025_Node000020"><a xlink:title=" ">
<path fill="none" stroke="#63b8ff" d="M1574.44,-55.53C1528.92,-46.15 1459.27,-31.8 1411.42,-21.93"/>
<polygon fill="#63b8ff" stroke="#63b8ff" points="1412.34,-18.55 1401.84,-19.96 1410.93,-25.41 1412.34,-18.55"/>
</a>
</g>
</g>
<!-- Node25&#45;&gt;Node22 -->
<g id="edge28_Node000025_Node000022" class="edge">
<title>Node25&#45;&gt;Node22</title>
<g id="a_edge28_Node000025_Node000022"><a xlink:title=" ">
<path fill="none" stroke="#63b8ff" d="M1608.18,-55.59C1598.04,-47.77 1583.38,-36.46 1571.36,-27.19"/>
<polygon fill="#63b8ff" stroke="#63b8ff" points="1573.68,-24.56 1563.63,-21.22 1569.41,-30.1 1573.68,-24.56"/>
</a>
</g>
</g>
<!-- Node26&#45;&gt;Node17 -->
<g id="edge30_Node000026_Node000017" class="edge">
<title>Node26&#45;&gt;Node17</title>
<g id="a_edge30_Node000026_Node000017"><a xlink:title=" ">
<path fill="none" stroke="#63b8ff" d="M1489.34,-55.59C1521.44,-46.71 1569.81,-33.31 1605.16,-23.52"/>
<polygon fill="#63b8ff" stroke="#63b8ff" points="1605.98,-26.93 1614.68,-20.88 1604.11,-20.18 1605.98,-26.93"/>
</a>
</g>
</g>
<!-- Node26&#45;&gt;Node18 -->
<g id="edge31_Node000026_Node000018" class="edge">
<title>Node26&#45;&gt;Node18</title>
<g id="a_edge31_Node000026_Node000018"><a xlink:title=" ">
<path fill="none" stroke="#63b8ff" d="M1507.97,-55.53C1562.1,-45.79 1646.03,-30.68 1700.85,-20.81"/>
<polygon fill="#63b8ff" stroke="#63b8ff" points="1701.38,-24.28 1710.6,-19.06 1700.14,-17.39 1701.38,-24.28"/>
</a>
</g>
</g>
<!-- Node26&#45;&gt;Node20 -->
<g id="edge32_Node000026_Node000020" class="edge">
<title>Node26&#45;&gt;Node20</title>
<g id="a_edge32_Node000026_Node000020"><a xlink:title=" ">
<path fill="none" stroke="#63b8ff" d="M1438.48,-55.59C1423.83,-47.44 1402.35,-35.48 1385.33,-26"/>
<polygon fill="#63b8ff" stroke="#63b8ff" points="1387.17,-23.02 1376.73,-21.22 1383.76,-29.14 1387.17,-23.02"/>
</a>
</g>
</g>
<!-- Node26&#45;&gt;Node22 -->
<g id="edge33_Node000026_Node000022" class="edge">
<title>Node26&#45;&gt;Node22</title>
<g id="a_edge33_Node000026_Node000022"><a xlink:title=" ">
<path fill="none" stroke="#63b8ff" d="M1471.92,-55.59C1486.27,-47.44 1507.3,-35.48 1523.98,-26"/>
<polygon fill="#63b8ff" stroke="#63b8ff" points="1525.42,-29.21 1532.38,-21.23 1521.96,-23.13 1525.42,-29.21"/>
</a>
</g>
</g>
<!-- Node27 -->
<g id="Node000027" class="node">
<title>Node27</title>
<g id="a_Node000027"><a xlink:title=" ">
<polygon fill="#e0e0e0" stroke="#999999" points="1493,-20 1417.75,-20 1417.75,0 1493,0 1493,-20"/>
<text xml:space="preserve" text-anchor="middle" x="1455.38" y="-6.5" font-family="Helvetica,sans-Serif" font-size="10.00">QtGui/QColor</text>
</a>
</g>
</g>
<!-- Node26&#45;&gt;Node27 -->
<g id="edge34_Node000026_Node000027" class="edge">
<title>Node26&#45;&gt;Node27</title>
<g id="a_edge34_Node000026_Node000027"><a xlink:title=" ">
<path fill="none" stroke="#63b8ff" d="M1455.38,-55.59C1455.38,-49.01 1455.38,-39.96 1455.38,-31.73"/>
<polygon fill="#63b8ff" stroke="#63b8ff" points="1458.88,-31.81 1455.38,-21.81 1451.88,-31.81 1458.88,-31.81"/>
</a>
</g>
</g>
</g>
</svg>
