<?xml version="1.0" encoding="UTF-8" standalone="no"?>
<!DOCTYPE svg PUBLIC "-//W3C//DTD SVG 1.1//EN"
 "http://www.w3.org/Graphics/SVG/1.1/DTD/svg11.dtd">
<!-- Generated by graphviz version 14.1.1 (20251213.1925)
 -->
<!-- Title: src/view/QuickAcessToolbar.h Pages: 1 -->
<svg width="323pt" height="84pt"
 viewBox="0.00 0.00 323.00 84.00" xmlns="http://www.w3.org/2000/svg" xmlns:xlink="http://www.w3.org/1999/xlink">
<g id="graph0" class="graph" transform="scale(1 1) rotate(0) translate(4 80)">
<title>src/view/QuickAcessToolbar.h</title>
<!-- Node1 -->
<g id="Node000001" class="node">
<title>Node1</title>
<g id="a_Node000001"><a xlink:title=" ">
<polygon fill="#999999" stroke="#666666" points="235.62,-76 86.88,-76 86.88,-56 235.62,-56 235.62,-76"/>
<text xml:space="preserve" text-anchor="middle" x="161.25" y="-62.5" font-family="Helvetica,sans-Serif" font-size="10.00">src/view/QuickAcessToolbar.h</text>
</a>
</g>
</g>
<!-- Node2 -->
<g id="Node000002" class="node">
<title>Node2</title>
<g id="a_Node000002"><a xlink:title=" ">
<polygon fill="#e0e0e0" stroke="#999999" points="56.5,-20 0,-20 0,0 56.5,0 56.5,-20"/>
<text xml:space="preserve" text-anchor="middle" x="28.25" y="-6.5" font-family="Helvetica,sans-Serif" font-size="10.00">QToolBar</text>
</a>
</g>
</g>
<!-- Node1&#45;&gt;Node2 -->
<g id="edge1_Node000001_Node000002" class="edge">
<title>Node1&#45;&gt;Node2</title>
<g id="a_edge1_Node000001_Node000002"><a xlink:title=" ">
<path fill="none" stroke="#63b8ff" d="M138.08,-55.59C117.04,-47.05 85.75,-34.35 61.95,-24.68"/>
<polygon fill="#63b8ff" stroke="#63b8ff" points="63.58,-21.57 53,-21.05 60.95,-28.05 63.58,-21.57"/>
</a>
</g>
</g>
<!-- Node3 -->
<g id="Node000003" class="node">
<title>Node3</title>
<g id="a_Node000003"><a xlink:title=" ">
<polygon fill="#e0e0e0" stroke="#999999" points="122,-20 74.5,-20 74.5,0 122,0 122,-20"/>
<text xml:space="preserve" text-anchor="middle" x="98.25" y="-6.5" font-family="Helvetica,sans-Serif" font-size="10.00">QMenu</text>
</a>
</g>
</g>
<!-- Node1&#45;&gt;Node3 -->
<g id="edge2_Node000001_Node000003" class="edge">
<title>Node1&#45;&gt;Node3</title>
<g id="a_edge2_Node000001_Node000003"><a xlink:title=" ">
<path fill="none" stroke="#63b8ff" d="M150.28,-55.59C141.33,-47.93 128.48,-36.91 117.79,-27.75"/>
<polygon fill="#63b8ff" stroke="#63b8ff" points="120.12,-25.13 110.25,-21.28 115.56,-30.45 120.12,-25.13"/>
</a>
</g>
</g>
<!-- Node4 -->
<g id="Node000004" class="node">
<title>Node4</title>
<g id="a_Node000004"><a xlink:title=" ">
<polygon fill="#e0e0e0" stroke="#999999" points="182.38,-20 140.12,-20 140.12,0 182.38,0 182.38,-20"/>
<text xml:space="preserve" text-anchor="middle" x="161.25" y="-6.5" font-family="Helvetica,sans-Serif" font-size="10.00">QIcon</text>
</a>
</g>
</g>
<!-- Node1&#45;&gt;Node4 -->
<g id="edge3_Node000001_Node000004" class="edge">
<title>Node1&#45;&gt;Node4</title>
<g id="a_edge3_Node000001_Node000004"><a xlink:title=" ">
<path fill="none" stroke="#63b8ff" d="M161.25,-55.59C161.25,-49.01 161.25,-39.96 161.25,-31.73"/>
<polygon fill="#63b8ff" stroke="#63b8ff" points="164.75,-31.81 161.25,-21.81 157.75,-31.81 164.75,-31.81"/>
</a>
</g>
</g>
<!-- Node5 -->
<g id="Node000005" class="node">
<title>Node5</title>
<g id="a_Node000005"><a xlink:title=" ">
<polygon fill="#e0e0e0" stroke="#999999" points="243.75,-20 200.75,-20 200.75,0 243.75,0 243.75,-20"/>
<text xml:space="preserve" text-anchor="middle" x="222.25" y="-6.5" font-family="Helvetica,sans-Serif" font-size="10.00">QSize</text>
</a>
</g>
</g>
<!-- Node1&#45;&gt;Node5 -->
<g id="edge4_Node000001_Node000005" class="edge">
<title>Node1&#45;&gt;Node5</title>
<g id="a_edge4_Node000001_Node000005"><a xlink:title=" ">
<path fill="none" stroke="#63b8ff" d="M171.88,-55.59C180.53,-47.93 192.98,-36.91 203.33,-27.75"/>
<polygon fill="#63b8ff" stroke="#63b8ff" points="205.45,-30.55 210.61,-21.3 200.81,-25.31 205.45,-30.55"/>
</a>
</g>
</g>
<!-- Node6 -->
<g id="Node000006" class="node">
<title>Node6</title>
<g id="a_Node000006"><a xlink:title=" ">
<polygon fill="#e0e0e0" stroke="#999999" points="314.62,-20 261.88,-20 261.88,0 314.62,0 314.62,-20"/>
<text xml:space="preserve" text-anchor="middle" x="288.25" y="-6.5" font-family="Helvetica,sans-Serif" font-size="10.00">QCursor</text>
</a>
</g>
</g>
<!-- Node1&#45;&gt;Node6 -->
<g id="edge5_Node000001_Node000006" class="edge">
<title>Node1&#45;&gt;Node6</title>
<g id="a_edge5_Node000001_Node000006"><a xlink:title=" ">
<path fill="none" stroke="#63b8ff" d="M183.37,-55.59C203.28,-47.13 232.8,-34.58 255.46,-24.94"/>
<polygon fill="#63b8ff" stroke="#63b8ff" points="256.73,-28.21 264.56,-21.07 253.99,-21.76 256.73,-28.21"/>
</a>
</g>
</g>
</g>
</svg>
