<?xml version="1.0" encoding="UTF-8" standalone="no"?>
<!DOCTYPE svg PUBLIC "-//W3C//DTD SVG 1.1//EN"
 "http://www.w3.org/Graphics/SVG/1.1/DTD/svg11.dtd">
<!-- Generated by graphviz version 14.1.1 (20251213.1925)
 -->
<!-- Title: src/viewer/QuickAcessToolBar.cpp Pages: 1 -->
<svg width="3205pt" height="320pt"
 viewBox="0.00 0.00 3205.00 320.00" xmlns="http://www.w3.org/2000/svg" xmlns:xlink="http://www.w3.org/1999/xlink">
<g id="graph0" class="graph" transform="scale(1 1) rotate(0) translate(4 316)">
<title>src/viewer/QuickAcessToolBar.cpp</title>
<!-- Node1 -->
<g id="Node000001" class="node">
<title>Node1</title>
<g id="a_Node000001"><a xlink:title=" ">
<polygon fill="#999999" stroke="#666666" points="2102.75,-312 1967.5,-312 1967.5,-280 2102.75,-280 2102.75,-312"/>
<text xml:space="preserve" text-anchor="start" x="1975.5" y="-298.5" font-family="Helvetica,sans-Serif" font-size="10.00">src/viewer/QuickAcessTool</text>
<text xml:space="preserve" text-anchor="middle" x="2035.12" y="-286.5" font-family="Helvetica,sans-Serif" font-size="10.00">Bar.cpp</text>
</a>
</g>
</g>
<!-- Node2 -->
<g id="Node000002" class="node">
<title>Node2</title>
<g id="a_Node000002"><a xlink:href="_quick_acess_tool_bar_8h.html" target="_top" xlink:title=" ">
<polygon fill="white" stroke="#666666" points="239.62,-244 130.62,-244 130.62,-224 239.62,-224 239.62,-244"/>
<text xml:space="preserve" text-anchor="middle" x="185.12" y="-230.5" font-family="Helvetica,sans-Serif" font-size="10.00">QuickAcessToolbar.h</text>
</a>
</g>
</g>
<!-- Node1&#45;&gt;Node2 -->
<g id="edge1_Node000001_Node000002" class="edge">
<title>Node1&#45;&gt;Node2</title>
<g id="a_edge1_Node000001_Node000002"><a xlink:title=" ">
<path fill="none" stroke="#63b8ff" d="M1967.09,-292.79C1676.14,-283.36 538.37,-246.46 251.22,-237.14"/>
<polygon fill="#63b8ff" stroke="#63b8ff" points="251.4,-233.65 241.29,-236.82 251.17,-240.64 251.4,-233.65"/>
</a>
</g>
</g>
<!-- Node8 -->
<g id="Node000008" class="node">
<title>Node8</title>
<g id="a_Node000008"><a xlink:href="_main_window_8h.html" target="_top" xlink:title=" ">
<polygon fill="white" stroke="#666666" points="1994,-244 1914.25,-244 1914.25,-224 1994,-224 1994,-244"/>
<text xml:space="preserve" text-anchor="middle" x="1954.12" y="-230.5" font-family="Helvetica,sans-Serif" font-size="10.00">MainWindow.h</text>
</a>
</g>
</g>
<!-- Node1&#45;&gt;Node8 -->
<g id="edge7_Node000001_Node000008" class="edge">
<title>Node1&#45;&gt;Node8</title>
<g id="a_edge7_Node000001_Node000008"><a xlink:title=" ">
<path fill="none" stroke="#63b8ff" d="M2014.27,-279.55C2002.55,-270.87 1987.93,-260.04 1976.05,-251.24"/>
<polygon fill="#63b8ff" stroke="#63b8ff" points="1978.16,-248.45 1968.04,-245.31 1973.99,-254.07 1978.16,-248.45"/>
</a>
</g>
</g>
<!-- Node62 -->
<g id="Node000062" class="node">
<title>Node62</title>
<g id="a_Node000062"><a xlink:title=" ">
<polygon fill="#e0e0e0" stroke="#999999" points="2058.12,-244 2012.12,-244 2012.12,-224 2058.12,-224 2058.12,-244"/>
<text xml:space="preserve" text-anchor="middle" x="2035.12" y="-230.5" font-family="Helvetica,sans-Serif" font-size="10.00">QStyle</text>
</a>
</g>
</g>
<!-- Node1&#45;&gt;Node62 -->
<g id="edge56_Node000001_Node000062" class="edge">
<title>Node1&#45;&gt;Node62</title>
<g id="a_edge56_Node000001_Node000062"><a xlink:title=" ">
<path fill="none" stroke="#63b8ff" d="M2035.12,-279.55C2035.12,-272.34 2035.12,-263.66 2035.12,-255.88"/>
<polygon fill="#63b8ff" stroke="#63b8ff" points="2038.63,-255.92 2035.13,-245.92 2031.63,-255.92 2038.63,-255.92"/>
</a>
</g>
</g>
<!-- Node63 -->
<g id="Node000063" class="node">
<title>Node63</title>
<g id="a_Node000063"><a xlink:title=" ">
<polygon fill="#e0e0e0" stroke="#999999" points="2127.75,-244 2076.5,-244 2076.5,-224 2127.75,-224 2127.75,-244"/>
<text xml:space="preserve" text-anchor="middle" x="2102.12" y="-230.5" font-family="Helvetica,sans-Serif" font-size="10.00">QAction</text>
</a>
</g>
</g>
<!-- Node1&#45;&gt;Node63 -->
<g id="edge57_Node000001_Node000063" class="edge">
<title>Node1&#45;&gt;Node63</title>
<g id="a_edge57_Node000001_Node000063"><a xlink:title=" ">
<path fill="none" stroke="#63b8ff" d="M2052.38,-279.55C2061.78,-271.13 2073.44,-260.69 2083.1,-252.04"/>
<polygon fill="#63b8ff" stroke="#63b8ff" points="2085.38,-254.7 2090.49,-245.42 2080.71,-249.48 2085.38,-254.7"/>
</a>
</g>
</g>
<!-- Node64 -->
<g id="Node000064" class="node">
<title>Node64</title>
<g id="a_Node000064"><a xlink:title=" ">
<polygon fill="#e0e0e0" stroke="#999999" points="2184.75,-244 2145.5,-244 2145.5,-224 2184.75,-224 2184.75,-244"/>
<text xml:space="preserve" text-anchor="middle" x="2165.12" y="-230.5" font-family="Helvetica,sans-Serif" font-size="10.00">QFile</text>
</a>
</g>
</g>
<!-- Node1&#45;&gt;Node64 -->
<g id="edge58_Node000001_Node000064" class="edge">
<title>Node1&#45;&gt;Node64</title>
<g id="a_edge58_Node000001_Node000064"><a xlink:title=" ">
<path fill="none" stroke="#63b8ff" d="M2068.6,-279.55C2089.04,-270.12 2114.97,-258.15 2134.8,-248.99"/>
<polygon fill="#63b8ff" stroke="#63b8ff" points="2136.13,-252.24 2143.75,-244.87 2133.2,-245.88 2136.13,-252.24"/>
</a>
</g>
</g>
<!-- Node3 -->
<g id="Node000003" class="node">
<title>Node3</title>
<g id="a_Node000003"><a xlink:title=" ">
<polygon fill="#e0e0e0" stroke="#999999" points="249.38,-188 192.88,-188 192.88,-168 249.38,-168 249.38,-188"/>
<text xml:space="preserve" text-anchor="middle" x="221.12" y="-174.5" font-family="Helvetica,sans-Serif" font-size="10.00">QToolBar</text>
</a>
</g>
</g>
<!-- Node2&#45;&gt;Node3 -->
<g id="edge2_Node000002_Node000003" class="edge">
<title>Node2&#45;&gt;Node3</title>
<g id="a_edge2_Node000002_Node000003"><a xlink:title=" ">
<path fill="none" stroke="#63b8ff" d="M191.4,-223.59C196.14,-216.47 202.82,-206.45 208.65,-197.72"/>
<polygon fill="#63b8ff" stroke="#63b8ff" points="211.45,-199.82 214.09,-189.56 205.63,-195.94 211.45,-199.82"/>
</a>
</g>
</g>
<!-- Node4 -->
<g id="Node000004" class="node">
<title>Node4</title>
<g id="a_Node000004"><a xlink:title=" ">
<polygon fill="#e0e0e0" stroke="#999999" points="314.88,-188 267.38,-188 267.38,-168 314.88,-168 314.88,-188"/>
<text xml:space="preserve" text-anchor="middle" x="291.12" y="-174.5" font-family="Helvetica,sans-Serif" font-size="10.00">QMenu</text>
</a>
</g>
</g>
<!-- Node2&#45;&gt;Node4 -->
<g id="edge3_Node000002_Node000004" class="edge">
<title>Node2&#45;&gt;Node4</title>
<g id="a_edge3_Node000002_Node000004"><a xlink:title=" ">
<path fill="none" stroke="#63b8ff" d="M203.59,-223.59C219.83,-215.32 243.73,-203.14 262.46,-193.6"/>
<polygon fill="#63b8ff" stroke="#63b8ff" points="263.85,-196.82 271.17,-189.17 260.67,-190.59 263.85,-196.82"/>
</a>
</g>
</g>
<!-- Node5 -->
<g id="Node000005" class="node">
<title>Node5</title>
<g id="a_Node000005"><a xlink:title=" ">
<polygon fill="#e0e0e0" stroke="#999999" points="42.25,-188 0,-188 0,-168 42.25,-168 42.25,-188"/>
<text xml:space="preserve" text-anchor="middle" x="21.12" y="-174.5" font-family="Helvetica,sans-Serif" font-size="10.00">QIcon</text>
</a>
</g>
</g>
<!-- Node2&#45;&gt;Node5 -->
<g id="edge4_Node000002_Node000005" class="edge">
<title>Node2&#45;&gt;Node5</title>
<g id="a_edge4_Node000002_Node000005"><a xlink:title=" ">
<path fill="none" stroke="#63b8ff" d="M156.56,-223.59C127.75,-214.11 83.36,-199.49 53.32,-189.6"/>
<polygon fill="#63b8ff" stroke="#63b8ff" points="54.61,-186.34 44.01,-186.54 52.42,-192.99 54.61,-186.34"/>
</a>
</g>
</g>
<!-- Node6 -->
<g id="Node000006" class="node">
<title>Node6</title>
<g id="a_Node000006"><a xlink:title=" ">
<polygon fill="#e0e0e0" stroke="#999999" points="103.62,-188 60.62,-188 60.62,-168 103.62,-168 103.62,-188"/>
<text xml:space="preserve" text-anchor="middle" x="82.12" y="-174.5" font-family="Helvetica,sans-Serif" font-size="10.00">QSize</text>
</a>
</g>
</g>
<!-- Node2&#45;&gt;Node6 -->
<g id="edge5_Node000002_Node000006" class="edge">
<title>Node2&#45;&gt;Node6</title>
<g id="a_edge5_Node000002_Node000006"><a xlink:title=" ">
<path fill="none" stroke="#63b8ff" d="M167.18,-223.59C151.48,-215.36 128.39,-203.26 110.24,-193.74"/>
<polygon fill="#63b8ff" stroke="#63b8ff" points="112.03,-190.73 101.55,-189.18 108.78,-196.93 112.03,-190.73"/>
</a>
</g>
</g>
<!-- Node7 -->
<g id="Node000007" class="node">
<title>Node7</title>
<g id="a_Node000007"><a xlink:title=" ">
<polygon fill="#e0e0e0" stroke="#999999" points="174.5,-188 121.75,-188 121.75,-168 174.5,-168 174.5,-188"/>
<text xml:space="preserve" text-anchor="middle" x="148.12" y="-174.5" font-family="Helvetica,sans-Serif" font-size="10.00">QCursor</text>
</a>
</g>
</g>
<!-- Node2&#45;&gt;Node7 -->
<g id="edge6_Node000002_Node000007" class="edge">
<title>Node2&#45;&gt;Node7</title>
<g id="a_edge6_Node000002_Node000007"><a xlink:title=" ">
<path fill="none" stroke="#63b8ff" d="M178.68,-223.59C173.8,-216.47 166.93,-206.45 160.95,-197.72"/>
<polygon fill="#63b8ff" stroke="#63b8ff" points="163.89,-195.82 155.35,-189.55 158.12,-199.77 163.89,-195.82"/>
</a>
</g>
</g>
<!-- Node9 -->
<g id="Node000009" class="node">
<title>Node9</title>
<g id="a_Node000009"><a xlink:title=" ">
<polygon fill="#e0e0e0" stroke="#999999" points="2387.75,-188 2348.5,-188 2348.5,-168 2387.75,-168 2387.75,-188"/>
<text xml:space="preserve" text-anchor="middle" x="2368.12" y="-174.5" font-family="Helvetica,sans-Serif" font-size="10.00">QList</text>
</a>
</g>
</g>
<!-- Node8&#45;&gt;Node9 -->
<g id="edge8_Node000008_Node000009" class="edge">
<title>Node8&#45;&gt;Node9</title>
<g id="a_edge8_Node000008_Node000009"><a xlink:title=" ">
<path fill="none" stroke="#63b8ff" d="M1994.46,-225.35C1997.39,-224.87 2000.3,-224.41 2003.12,-224 2149.55,-202.62 2188.63,-215.01 2334.12,-188 2335.12,-187.81 2336.13,-187.62 2337.15,-187.41"/>
<polygon fill="#63b8ff" stroke="#63b8ff" points="2337.69,-190.87 2346.63,-185.18 2336.09,-184.06 2337.69,-190.87"/>
</a>
</g>
</g>
<!-- Node10 -->
<g id="Node000010" class="node">
<title>Node10</title>
<g id="a_Node000010"><a xlink:title=" ">
<polygon fill="#e0e0e0" stroke="#999999" points="2647.75,-20 2566.5,-20 2566.5,0 2647.75,0 2647.75,-20"/>
<text xml:space="preserve" text-anchor="middle" x="2607.12" y="-6.5" font-family="Helvetica,sans-Serif" font-size="10.00">QtCore/QHash</text>
</a>
</g>
</g>
<!-- Node8&#45;&gt;Node10 -->
<g id="edge9_Node000008_Node000010" class="edge">
<title>Node8&#45;&gt;Node10</title>
<g id="a_edge9_Node000008_Node000010"><a xlink:title=" ">
<path fill="none" stroke="#63b8ff" d="M1994.45,-225.23C1997.38,-224.78 2000.29,-224.36 2003.12,-224 2115.62,-209.74 2416.93,-249.61 2512.12,-188 2568.42,-151.57 2593.74,-70.02 2602.86,-31.68"/>
<polygon fill="#63b8ff" stroke="#63b8ff" points="2606.27,-32.45 2605.02,-21.93 2599.44,-30.94 2606.27,-32.45"/>
</a>
</g>
</g>
<!-- Node11 -->
<g id="Node000011" class="node">
<title>Node11</title>
<g id="a_Node000011"><a xlink:title=" ">
<polygon fill="#e0e0e0" stroke="#999999" points="2886.5,-188 2797.75,-188 2797.75,-168 2886.5,-168 2886.5,-188"/>
<text xml:space="preserve" text-anchor="middle" x="2842.12" y="-174.5" font-family="Helvetica,sans-Serif" font-size="10.00">QtCore/QPointer</text>
</a>
</g>
</g>
<!-- Node8&#45;&gt;Node11 -->
<g id="edge10_Node000008_Node000011" class="edge">
<title>Node8&#45;&gt;Node11</title>
<g id="a_edge10_Node000008_Node000011"><a xlink:title=" ">
<path fill="none" stroke="#63b8ff" d="M1994.44,-225.15C1997.37,-224.71 2000.29,-224.32 2003.12,-224 2348.35,-184.52 2438.38,-222.69 2784.12,-188 2784.81,-187.93 2785.49,-187.86 2786.18,-187.79"/>
<polygon fill="#63b8ff" stroke="#63b8ff" points="2786.53,-191.27 2796.04,-186.6 2785.69,-184.32 2786.53,-191.27"/>
</a>
</g>
</g>
<!-- Node12 -->
<g id="Node000012" class="node">
<title>Node12</title>
<g id="a_Node000012"><a xlink:title=" ">
<polygon fill="#e0e0e0" stroke="#999999" points="3023.5,-188 2904.75,-188 2904.75,-168 3023.5,-168 3023.5,-188"/>
<text xml:space="preserve" text-anchor="middle" x="2964.12" y="-174.5" font-family="Helvetica,sans-Serif" font-size="10.00">QtWidgets/QCheckBox</text>
</a>
</g>
</g>
<!-- Node8&#45;&gt;Node12 -->
<g id="edge11_Node000008_Node000012" class="edge">
<title>Node8&#45;&gt;Node12</title>
<g id="a_edge11_Node000008_Node000012"><a xlink:title=" ">
<path fill="none" stroke="#63b8ff" d="M1994.43,-225.13C1997.37,-224.7 2000.29,-224.32 2003.12,-224 2393.79,-180.46 2497.87,-220.93 2893.14,-188.08"/>
<polygon fill="#63b8ff" stroke="#63b8ff" points="2893.14,-191.59 2902.81,-187.26 2892.55,-184.61 2893.14,-191.59"/>
</a>
</g>
</g>
<!-- Node13 -->
<g id="Node000013" class="node">
<title>Node13</title>
<g id="a_Node000013"><a xlink:title=" ">
<polygon fill="#e0e0e0" stroke="#999999" points="3163,-188 3041.25,-188 3041.25,-168 3163,-168 3163,-188"/>
<text xml:space="preserve" text-anchor="middle" x="3102.12" y="-174.5" font-family="Helvetica,sans-Serif" font-size="10.00">QtWidgets/QComboBox</text>
</a>
</g>
</g>
<!-- Node8&#45;&gt;Node13 -->
<g id="edge12_Node000008_Node000013" class="edge">
<title>Node8&#45;&gt;Node13</title>
<g id="a_edge12_Node000008_Node000013"><a xlink:title=" ">
<path fill="none" stroke="#63b8ff" d="M1994.43,-225.11C1997.37,-224.69 2000.29,-224.31 2003.12,-224 2454.39,-174.93 2574.11,-224.41 3029.9,-188.09"/>
<polygon fill="#63b8ff" stroke="#63b8ff" points="3029.88,-191.6 3039.57,-187.31 3029.32,-184.63 3029.88,-191.6"/>
</a>
</g>
</g>
<!-- Node14 -->
<g id="Node000014" class="node">
<title>Node14</title>
<g id="a_Node000014"><a xlink:title=" ">
<polygon fill="#e0e0e0" stroke="#999999" points="3175,-132 3035.25,-132 3035.25,-112 3175,-112 3175,-132"/>
<text xml:space="preserve" text-anchor="middle" x="3105.12" y="-118.5" font-family="Helvetica,sans-Serif" font-size="10.00">QtWidgets/QGraphicsScene</text>
</a>
</g>
</g>
<!-- Node8&#45;&gt;Node14 -->
<g id="edge13_Node000008_Node000014" class="edge">
<title>Node8&#45;&gt;Node14</title>
<g id="a_edge13_Node000008_Node000014"><a xlink:title=" ">
<path fill="none" stroke="#63b8ff" d="M1994.44,-225.15C1997.37,-224.72 2000.29,-224.33 2003.12,-224 2168.44,-204.93 2590.58,-231.79 2751.12,-188 2769.54,-182.98 2770.97,-173.88 2789.12,-168 2831.4,-154.32 2944.71,-140.12 3023.47,-131.42"/>
<polygon fill="#63b8ff" stroke="#63b8ff" points="3023.76,-134.91 3033.32,-130.34 3023,-127.95 3023.76,-134.91"/>
</a>
</g>
</g>
<!-- Node15 -->
<g id="Node000015" class="node">
<title>Node15</title>
<g id="a_Node000015"><a xlink:title=" ">
<polygon fill="#e0e0e0" stroke="#999999" points="1376,-132 1242.25,-132 1242.25,-112 1376,-112 1376,-132"/>
<text xml:space="preserve" text-anchor="middle" x="1309.12" y="-118.5" font-family="Helvetica,sans-Serif" font-size="10.00">QtWidgets/QGraphicsView</text>
</a>
</g>
</g>
<!-- Node8&#45;&gt;Node15 -->
<g id="edge14_Node000008_Node000015" class="edge">
<title>Node8&#45;&gt;Node15</title>
<g id="a_edge14_Node000008_Node000015"><a xlink:title=" ">
<path fill="none" stroke="#63b8ff" d="M1994.47,-225.39C1997.39,-224.9 2000.3,-224.43 2003.12,-224 2069.07,-213.97 2256.88,-237.91 2301.12,-188 2307.02,-181.35 2307.27,-174.43 2301.12,-168 2269.72,-135.14 1616.56,-125.88 1387.59,-123.64"/>
<polygon fill="#63b8ff" stroke="#63b8ff" points="1387.91,-120.14 1377.88,-123.54 1387.84,-127.14 1387.91,-120.14"/>
</a>
</g>
</g>
<!-- Node16 -->
<g id="Node000016" class="node">
<title>Node16</title>
<g id="a_Node000016"><a xlink:title=" ">
<polygon fill="#e0e0e0" stroke="#999999" points="560.62,-188 433.62,-188 433.62,-168 560.62,-168 560.62,-188"/>
<text xml:space="preserve" text-anchor="middle" x="497.12" y="-174.5" font-family="Helvetica,sans-Serif" font-size="10.00">QtWidgets/QHBoxLayout</text>
</a>
</g>
</g>
<!-- Node8&#45;&gt;Node16 -->
<g id="edge15_Node000008_Node000016" class="edge">
<title>Node8&#45;&gt;Node16</title>
<g id="a_edge15_Node000008_Node000016"><a xlink:title=" ">
<path fill="none" stroke="#63b8ff" d="M1913.86,-233.02C1749.03,-232.81 1109.56,-229.28 572.27,-188.08"/>
<polygon fill="#63b8ff" stroke="#63b8ff" points="572.54,-184.59 562.3,-187.31 572,-191.57 572.54,-184.59"/>
</a>
</g>
</g>
<!-- Node17 -->
<g id="Node000017" class="node">
<title>Node17</title>
<g id="a_Node000017"><a xlink:title=" ">
<polygon fill="#e0e0e0" stroke="#999999" points="675.25,-188 579,-188 579,-168 675.25,-168 675.25,-188"/>
<text xml:space="preserve" text-anchor="middle" x="627.12" y="-174.5" font-family="Helvetica,sans-Serif" font-size="10.00">QtWidgets/QLabel</text>
</a>
</g>
</g>
<!-- Node8&#45;&gt;Node17 -->
<g id="edge16_Node000008_Node000017" class="edge">
<title>Node8&#45;&gt;Node17</title>
<g id="a_edge16_Node000008_Node000017"><a xlink:title=" ">
<path fill="none" stroke="#63b8ff" d="M1913.97,-233.34C1757.78,-234.31 1175.62,-234.47 686.75,-188.13"/>
<polygon fill="#63b8ff" stroke="#63b8ff" points="687.38,-184.67 677.09,-187.2 686.71,-191.64 687.38,-184.67"/>
</a>
</g>
</g>
<!-- Node18 -->
<g id="Node000018" class="node">
<title>Node18</title>
<g id="a_Node000018"><a xlink:title=" ">
<polygon fill="#e0e0e0" stroke="#999999" points="801.25,-188 693,-188 693,-168 801.25,-168 801.25,-188"/>
<text xml:space="preserve" text-anchor="middle" x="747.12" y="-174.5" font-family="Helvetica,sans-Serif" font-size="10.00">QtWidgets/QLineEdit</text>
</a>
</g>
</g>
<!-- Node8&#45;&gt;Node18 -->
<g id="edge17_Node000008_Node000018" class="edge">
<title>Node8&#45;&gt;Node18</title>
<g id="a_edge17_Node000008_Node000018"><a xlink:title=" ">
<path fill="none" stroke="#63b8ff" d="M1913.75,-232.91C1767.27,-232.26 1249.86,-227.23 813,-188.17"/>
<polygon fill="#63b8ff" stroke="#63b8ff" points="813.5,-184.7 803.23,-187.28 812.87,-191.67 813.5,-184.7"/>
</a>
</g>
</g>
<!-- Node19 -->
<g id="Node000019" class="node">
<title>Node19</title>
<g id="a_Node000019"><a xlink:title=" ">
<polygon fill="#e0e0e0" stroke="#999999" points="948.75,-188 819.5,-188 819.5,-168 948.75,-168 948.75,-188"/>
<text xml:space="preserve" text-anchor="middle" x="884.12" y="-174.5" font-family="Helvetica,sans-Serif" font-size="10.00">QtWidgets/QMainWindow</text>
</a>
</g>
</g>
<!-- Node8&#45;&gt;Node19 -->
<g id="edge18_Node000008_Node000019" class="edge">
<title>Node8&#45;&gt;Node19</title>
<g id="a_edge18_Node000008_Node000019"><a xlink:title=" ">
<path fill="none" stroke="#63b8ff" d="M1914.16,-232.31C1780.6,-229.76 1337.33,-219.42 960.39,-188.21"/>
<polygon fill="#63b8ff" stroke="#63b8ff" points="960.74,-184.73 950.48,-187.39 960.16,-191.71 960.74,-184.73"/>
</a>
</g>
</g>
<!-- Node20 -->
<g id="Node000020" class="node">
<title>Node20</title>
<g id="a_Node000020"><a xlink:title=" ">
<polygon fill="#e0e0e0" stroke="#999999" points="1063.62,-188 966.62,-188 966.62,-168 1063.62,-168 1063.62,-188"/>
<text xml:space="preserve" text-anchor="middle" x="1015.12" y="-174.5" font-family="Helvetica,sans-Serif" font-size="10.00">QtWidgets/QMenu</text>
</a>
</g>
</g>
<!-- Node8&#45;&gt;Node20 -->
<g id="edge19_Node000008_Node000020" class="edge">
<title>Node8&#45;&gt;Node20</title>
<g id="a_edge19_Node000008_Node000020"><a xlink:title=" ">
<path fill="none" stroke="#63b8ff" d="M1914.06,-232.42C1790.66,-230.32 1405.27,-221.46 1075.04,-188.07"/>
<polygon fill="#63b8ff" stroke="#63b8ff" points="1075.62,-184.62 1065.32,-187.08 1074.91,-191.58 1075.62,-184.62"/>
</a>
</g>
</g>
<!-- Node21 -->
<g id="Node000021" class="node">
<title>Node21</title>
<g id="a_Node000021"><a xlink:title=" ">
<polygon fill="#e0e0e0" stroke="#999999" points="1194.12,-188 1082.12,-188 1082.12,-168 1194.12,-168 1194.12,-188"/>
<text xml:space="preserve" text-anchor="middle" x="1138.12" y="-174.5" font-family="Helvetica,sans-Serif" font-size="10.00">QtWidgets/QMenuBar</text>
</a>
</g>
</g>
<!-- Node8&#45;&gt;Node21 -->
<g id="edge20_Node000008_Node000021" class="edge">
<title>Node8&#45;&gt;Node21</title>
<g id="a_edge20_Node000008_Node000021"><a xlink:title=" ">
<path fill="none" stroke="#63b8ff" d="M1914.14,-231.7C1803.34,-227.86 1482.74,-215.18 1205.55,-188.16"/>
<polygon fill="#63b8ff" stroke="#63b8ff" points="1206.26,-184.72 1195.97,-187.22 1205.58,-191.68 1206.26,-184.72"/>
</a>
</g>
</g>
<!-- Node22 -->
<g id="Node000022" class="node">
<title>Node22</title>
<g id="a_Node000022"><a xlink:title=" ">
<polygon fill="#e0e0e0" stroke="#999999" points="1330.12,-188 1212.12,-188 1212.12,-168 1330.12,-168 1330.12,-188"/>
<text xml:space="preserve" text-anchor="middle" x="1271.12" y="-174.5" font-family="Helvetica,sans-Serif" font-size="10.00">QtWidgets/QScrollArea</text>
</a>
</g>
</g>
<!-- Node8&#45;&gt;Node22 -->
<g id="edge21_Node000008_Node000022" class="edge">
<title>Node8&#45;&gt;Node22</title>
<g id="a_edge21_Node000008_Node000022"><a xlink:title=" ">
<path fill="none" stroke="#63b8ff" d="M1913.76,-230.87C1816.99,-225.58 1563.9,-210.7 1341.67,-188.2"/>
<polygon fill="#63b8ff" stroke="#63b8ff" points="1342.25,-184.75 1331.94,-187.21 1341.54,-191.71 1342.25,-184.75"/>
</a>
</g>
</g>
<!-- Node23 -->
<g id="Node000023" class="node">
<title>Node23</title>
<g id="a_Node000023"><a xlink:title=" ">
<polygon fill="#e0e0e0" stroke="#999999" points="1452,-188 1348.25,-188 1348.25,-168 1452,-168 1452,-188"/>
<text xml:space="preserve" text-anchor="middle" x="1400.12" y="-174.5" font-family="Helvetica,sans-Serif" font-size="10.00">QtWidgets/QSplitter</text>
</a>
</g>
</g>
<!-- Node8&#45;&gt;Node23 -->
<g id="edge22_Node000008_Node000023" class="edge">
<title>Node8&#45;&gt;Node23</title>
<g id="a_edge22_Node000008_Node000023"><a xlink:title=" ">
<path fill="none" stroke="#63b8ff" d="M1913.79,-230.08C1831.35,-223.95 1637.39,-208.68 1463.75,-188.25"/>
<polygon fill="#63b8ff" stroke="#63b8ff" points="1464.19,-184.78 1453.85,-187.08 1463.36,-191.73 1464.19,-184.78"/>
</a>
</g>
</g>
<!-- Node24 -->
<g id="Node000024" class="node">
<title>Node24</title>
<g id="a_Node000024"><a xlink:title=" ">
<polygon fill="#e0e0e0" stroke="#999999" points="1586.38,-188 1469.88,-188 1469.88,-168 1586.38,-168 1586.38,-188"/>
<text xml:space="preserve" text-anchor="middle" x="1528.12" y="-174.5" font-family="Helvetica,sans-Serif" font-size="10.00">QtWidgets/QStatusBar</text>
</a>
</g>
</g>
<!-- Node8&#45;&gt;Node24 -->
<g id="edge23_Node000008_Node000024" class="edge">
<title>Node8&#45;&gt;Node24</title>
<g id="a_edge23_Node000008_Node000024"><a xlink:title=" ">
<path fill="none" stroke="#63b8ff" d="M1914,-228.09C1849.64,-220.18 1719.05,-204.04 1597.9,-188.35"/>
<polygon fill="#63b8ff" stroke="#63b8ff" points="1598.45,-184.89 1588.09,-187.08 1597.55,-191.84 1598.45,-184.89"/>
</a>
</g>
</g>
<!-- Node25 -->
<g id="Node000025" class="node">
<title>Node25</title>
<g id="a_Node000025"><a xlink:title=" ">
<polygon fill="#e0e0e0" stroke="#999999" points="1723.88,-188 1604.38,-188 1604.38,-168 1723.88,-168 1723.88,-188"/>
<text xml:space="preserve" text-anchor="middle" x="1664.12" y="-174.5" font-family="Helvetica,sans-Serif" font-size="10.00">QtWidgets/QTabWidget</text>
</a>
</g>
</g>
<!-- Node8&#45;&gt;Node25 -->
<g id="edge24_Node000008_Node000025" class="edge">
<title>Node8&#45;&gt;Node25</title>
<g id="a_edge24_Node000008_Node000025"><a xlink:title=" ">
<path fill="none" stroke="#63b8ff" d="M1913.8,-225.49C1865.14,-216.43 1782.81,-201.1 1726.07,-190.53"/>
<polygon fill="#63b8ff" stroke="#63b8ff" points="1727.04,-187.16 1716.57,-188.77 1725.76,-194.04 1727.04,-187.16"/>
</a>
</g>
</g>
<!-- Node26 -->
<g id="Node000026" class="node">
<title>Node26</title>
<g id="a_Node000026"><a xlink:title=" ">
<polygon fill="#e0e0e0" stroke="#999999" points="1864.75,-188 1741.5,-188 1741.5,-168 1864.75,-168 1864.75,-188"/>
<text xml:space="preserve" text-anchor="middle" x="1803.12" y="-174.5" font-family="Helvetica,sans-Serif" font-size="10.00">QtWidgets/QTreeWidget</text>
</a>
</g>
</g>
<!-- Node8&#45;&gt;Node26 -->
<g id="edge25_Node000008_Node000026" class="edge">
<title>Node8&#45;&gt;Node26</title>
<g id="a_edge25_Node000008_Node000026"><a xlink:title=" ">
<path fill="none" stroke="#63b8ff" d="M1927.82,-223.59C1903.61,-214.94 1867.45,-202 1840.29,-192.29"/>
<polygon fill="#63b8ff" stroke="#63b8ff" points="1841.65,-189.06 1831.06,-188.99 1839.3,-195.65 1841.65,-189.06"/>
</a>
</g>
</g>
<!-- Node27 -->
<g id="Node000027" class="node">
<title>Node27</title>
<g id="a_Node000027"><a xlink:title=" ">
<polygon fill="#e0e0e0" stroke="#999999" points="2025.5,-188 1882.75,-188 1882.75,-168 2025.5,-168 2025.5,-188"/>
<text xml:space="preserve" text-anchor="middle" x="1954.12" y="-174.5" font-family="Helvetica,sans-Serif" font-size="10.00">QtWidgets/QTreeWidgetItem</text>
</a>
</g>
</g>
<!-- Node8&#45;&gt;Node27 -->
<g id="edge26_Node000008_Node000027" class="edge">
<title>Node8&#45;&gt;Node27</title>
<g id="a_edge26_Node000008_Node000027"><a xlink:title=" ">
<path fill="none" stroke="#63b8ff" d="M1954.12,-223.59C1954.12,-217.01 1954.12,-207.96 1954.12,-199.73"/>
<polygon fill="#63b8ff" stroke="#63b8ff" points="1957.63,-199.81 1954.13,-189.81 1950.63,-199.81 1957.63,-199.81"/>
</a>
</g>
</g>
<!-- Node28 -->
<g id="Node000028" class="node">
<title>Node28</title>
<g id="a_Node000028"><a xlink:title=" ">
<polygon fill="#e0e0e0" stroke="#999999" points="2170.25,-188 2044,-188 2044,-168 2170.25,-168 2170.25,-188"/>
<text xml:space="preserve" text-anchor="middle" x="2107.12" y="-174.5" font-family="Helvetica,sans-Serif" font-size="10.00">QtWidgets/QVBoxLayout</text>
</a>
</g>
</g>
<!-- Node8&#45;&gt;Node28 -->
<g id="edge27_Node000008_Node000028" class="edge">
<title>Node8&#45;&gt;Node28</title>
<g id="a_edge27_Node000008_Node000028"><a xlink:title=" ">
<path fill="none" stroke="#63b8ff" d="M1980.78,-223.59C2005.31,-214.94 2041.95,-202 2069.47,-192.29"/>
<polygon fill="#63b8ff" stroke="#63b8ff" points="2070.57,-195.61 2078.84,-188.98 2068.24,-189.01 2070.57,-195.61"/>
</a>
</g>
</g>
<!-- Node29 -->
<g id="Node000029" class="node">
<title>Node29</title>
<g id="a_Node000029"><a xlink:title=" ">
<polygon fill="#e0e0e0" stroke="#999999" points="2292,-188 2188.25,-188 2188.25,-168 2292,-168 2292,-188"/>
<text xml:space="preserve" text-anchor="middle" x="2240.12" y="-174.5" font-family="Helvetica,sans-Serif" font-size="10.00">QtWidgets/QWidget</text>
</a>
</g>
</g>
<!-- Node8&#45;&gt;Node29 -->
<g id="edge28_Node000008_Node000029" class="edge">
<title>Node8&#45;&gt;Node29</title>
<g id="a_edge28_Node000008_Node000029"><a xlink:title=" ">
<path fill="none" stroke="#63b8ff" d="M1994.5,-225.38C2042.46,-216.32 2123,-201.11 2178.71,-190.6"/>
<polygon fill="#63b8ff" stroke="#63b8ff" points="2179.19,-194.07 2188.36,-188.77 2177.89,-187.19 2179.19,-194.07"/>
</a>
</g>
</g>
<!-- Node30 -->
<g id="Node000030" class="node">
<title>Node30</title>
<g id="a_Node000030"><a xlink:href="_diagram_view_8h.html" target="_top" xlink:title=" ">
<polygon fill="white" stroke="#666666" points="415.12,-188 333.12,-188 333.12,-168 415.12,-168 415.12,-188"/>
<text xml:space="preserve" text-anchor="middle" x="374.12" y="-174.5" font-family="Helvetica,sans-Serif" font-size="10.00">DiagramView.h</text>
</a>
</g>
</g>
<!-- Node8&#45;&gt;Node30 -->
<g id="edge29_Node000008_Node000030" class="edge">
<title>Node8&#45;&gt;Node30</title>
<g id="a_edge29_Node000008_Node000030"><a xlink:title=" ">
<path fill="none" stroke="#63b8ff" d="M1914.03,-232.63C1706.12,-230.58 748.26,-219.63 426.7,-188.07"/>
<polygon fill="#63b8ff" stroke="#63b8ff" points="427.34,-184.62 417.03,-187.09 426.63,-191.58 427.34,-184.62"/>
</a>
</g>
</g>
<!-- Node35 -->
<g id="Node000035" class="node">
<title>Node35</title>
<g id="a_Node000035"><a xlink:href="_draggable_button_8h.html" target="_top" xlink:title=" ">
<polygon fill="white" stroke="#666666" points="2502.62,-188 2405.62,-188 2405.62,-168 2502.62,-168 2502.62,-188"/>
<text xml:space="preserve" text-anchor="middle" x="2454.12" y="-174.5" font-family="Helvetica,sans-Serif" font-size="10.00">DraggableButton.h</text>
</a>
</g>
</g>
<!-- Node8&#45;&gt;Node35 -->
<g id="edge35_Node000008_Node000035" class="edge">
<title>Node8&#45;&gt;Node35</title>
<g id="a_edge35_Node000008_Node000035"><a xlink:title=" ">
<path fill="none" stroke="#63b8ff" d="M1994.46,-225.29C1997.38,-224.83 2000.3,-224.39 2003.12,-224 2173.68,-200.59 2220.67,-209.33 2394.01,-188.31"/>
<polygon fill="#63b8ff" stroke="#63b8ff" points="2394.34,-191.8 2403.83,-187.1 2393.48,-184.85 2394.34,-191.8"/>
</a>
</g>
</g>
<!-- Node40 -->
<g id="Node000040" class="node">
<title>Node40</title>
<g id="a_Node000040"><a xlink:href="_diagram_scene_8h.html" target="_top" xlink:title=" ">
<polygon fill="white" stroke="#666666" points="2741.88,-188 2610.38,-188 2610.38,-168 2741.88,-168 2741.88,-188"/>
<text xml:space="preserve" text-anchor="middle" x="2676.12" y="-174.5" font-family="Helvetica,sans-Serif" font-size="10.00">controller/DiagramScene.h</text>
</a>
</g>
</g>
<!-- Node8&#45;&gt;Node40 -->
<g id="edge40_Node000008_Node000040" class="edge">
<title>Node8&#45;&gt;Node40</title>
<g id="a_edge40_Node000008_Node000040"><a xlink:title=" ">
<path fill="none" stroke="#63b8ff" d="M1994.44,-225.2C1997.37,-224.75 2000.29,-224.35 2003.12,-224 2259.48,-192.62 2325.66,-208.44 2583.12,-188 2588.31,-187.59 2593.65,-187.14 2599.04,-186.67"/>
<polygon fill="#63b8ff" stroke="#63b8ff" points="2598.95,-190.19 2608.6,-185.81 2598.32,-183.22 2598.95,-190.19"/>
</a>
</g>
</g>
<!-- Node41 -->
<g id="Node000041" class="node">
<title>Node41</title>
<g id="a_Node000041"><a xlink:href="_basic_element_8h.html" target="_top" xlink:title=" ">
<polygon fill="#fff0f0" stroke="red" points="2858.25,-76 2744,-76 2744,-56 2858.25,-56 2858.25,-76"/>
<text xml:space="preserve" text-anchor="middle" x="2801.12" y="-62.5" font-family="Helvetica,sans-Serif" font-size="10.00">model/BasicElement.h</text>
</a>
</g>
</g>
<!-- Node8&#45;&gt;Node41 -->
<g id="edge54_Node000008_Node000041" class="edge">
<title>Node8&#45;&gt;Node41</title>
<g id="a_edge54_Node000008_Node000041"><a xlink:title=" ">
<path fill="none" stroke="#63b8ff" d="M1994.44,-225.21C1997.38,-224.76 2000.29,-224.35 2003.12,-224 2122.91,-209.07 2434.42,-236.11 2545.12,-188 2590.4,-168.33 2582.87,-135.78 2626.12,-112 2658.85,-94.01 2698.98,-83.02 2732.55,-76.41"/>
<polygon fill="#63b8ff" stroke="#63b8ff" points="2732.99,-79.89 2742.18,-74.61 2731.71,-73.01 2732.99,-79.89"/>
</a>
</g>
</g>
<!-- Node51 -->
<g id="Node000051" class="node">
<title>Node51</title>
<g id="a_Node000051"><a xlink:href="_connection_line_8h.html" target="_top" xlink:title=" ">
<polygon fill="#fff0f0" stroke="red" points="3067.62,-76 2946.62,-76 2946.62,-56 3067.62,-56 3067.62,-76"/>
<text xml:space="preserve" text-anchor="middle" x="3007.12" y="-62.5" font-family="Helvetica,sans-Serif" font-size="10.00">model/ConnectionLine.h</text>
</a>
</g>
</g>
<!-- Node8&#45;&gt;Node51 -->
<g id="edge55_Node000008_Node000051" class="edge">
<title>Node8&#45;&gt;Node51</title>
<g id="a_edge55_Node000008_Node000051"><a xlink:title=" ">
<path fill="none" stroke="#63b8ff" d="M1994.43,-225.1C1997.37,-224.68 2000.29,-224.3 2003.12,-224 2067.73,-217.11 3122.23,-229.62 3172.12,-188 3198.38,-166.09 3205.12,-139 3184.12,-112 3170.95,-95.05 3122.2,-83.45 3079.19,-76.27"/>
<polygon fill="#63b8ff" stroke="#63b8ff" points="3079.74,-72.81 3069.32,-74.69 3078.64,-79.73 3079.74,-72.81"/>
</a>
</g>
</g>
<!-- Node30&#45;&gt;Node15 -->
<g id="edge30_Node000030_Node000015" class="edge">
<title>Node30&#45;&gt;Node15</title>
<g id="a_edge30_Node000030_Node000015"><a xlink:title=" ">
<path fill="none" stroke="#63b8ff" d="M415.54,-169.13C418.44,-168.7 421.32,-168.32 424.12,-168 720.66,-133.91 1076.05,-125.65 1230.76,-123.64"/>
<polygon fill="#63b8ff" stroke="#63b8ff" points="1230.53,-127.15 1240.48,-123.52 1230.44,-120.15 1230.53,-127.15"/>
</a>
</g>
</g>
<!-- Node31 -->
<g id="Node000031" class="node">
<title>Node31</title>
<g id="a_Node000031"><a xlink:title=" ">
<polygon fill="#e0e0e0" stroke="#999999" points="501,-132 379.25,-132 379.25,-112 501,-112 501,-132"/>
<text xml:space="preserve" text-anchor="middle" x="440.12" y="-118.5" font-family="Helvetica,sans-Serif" font-size="10.00">QtGui/QDragEnterEvent</text>
</a>
</g>
</g>
<!-- Node30&#45;&gt;Node31 -->
<g id="edge31_Node000030_Node000031" class="edge">
<title>Node30&#45;&gt;Node31</title>
<g id="a_edge31_Node000030_Node000031"><a xlink:title=" ">
<path fill="none" stroke="#63b8ff" d="M385.62,-167.59C395.09,-159.85 408.73,-148.69 420,-139.47"/>
<polygon fill="#63b8ff" stroke="#63b8ff" points="422.07,-142.3 427.59,-133.26 417.63,-136.88 422.07,-142.3"/>
</a>
</g>
</g>
<!-- Node32 -->
<g id="Node000032" class="node">
<title>Node32</title>
<g id="a_Node000032"><a xlink:title=" ">
<polygon fill="#e0e0e0" stroke="#999999" points="641.38,-132 518.88,-132 518.88,-112 641.38,-112 641.38,-132"/>
<text xml:space="preserve" text-anchor="middle" x="580.12" y="-118.5" font-family="Helvetica,sans-Serif" font-size="10.00">QtGui/QDragMoveEvent</text>
</a>
</g>
</g>
<!-- Node30&#45;&gt;Node32 -->
<g id="edge32_Node000030_Node000032" class="edge">
<title>Node30&#45;&gt;Node32</title>
<g id="a_edge32_Node000030_Node000032"><a xlink:title=" ">
<path fill="none" stroke="#63b8ff" d="M410.01,-167.59C444.06,-158.67 495.46,-145.19 532.84,-135.39"/>
<polygon fill="#63b8ff" stroke="#63b8ff" points="533.71,-138.78 542.5,-132.86 531.94,-132.01 533.71,-138.78"/>
</a>
</g>
</g>
<!-- Node33 -->
<g id="Node000033" class="node">
<title>Node33</title>
<g id="a_Node000033"><a xlink:title=" ">
<polygon fill="#e0e0e0" stroke="#999999" points="237.38,-132 138.88,-132 138.88,-112 237.38,-112 237.38,-132"/>
<text xml:space="preserve" text-anchor="middle" x="188.12" y="-118.5" font-family="Helvetica,sans-Serif" font-size="10.00">QtGui/QDropEvent</text>
</a>
</g>
</g>
<!-- Node30&#45;&gt;Node33 -->
<g id="edge33_Node000030_Node000033" class="edge">
<title>Node30&#45;&gt;Node33</title>
<g id="a_edge33_Node000030_Node000033"><a xlink:title=" ">
<path fill="none" stroke="#63b8ff" d="M341.73,-167.59C311.24,-158.74 265.37,-145.43 231.69,-135.65"/>
<polygon fill="#63b8ff" stroke="#63b8ff" points="232.81,-132.33 222.23,-132.9 230.86,-139.05 232.81,-132.33"/>
</a>
</g>
</g>
<!-- Node34 -->
<g id="Node000034" class="node">
<title>Node34</title>
<g id="a_Node000034"><a xlink:title=" ">
<polygon fill="#e0e0e0" stroke="#999999" points="360.75,-132 255.5,-132 255.5,-112 360.75,-112 360.75,-132"/>
<text xml:space="preserve" text-anchor="middle" x="308.12" y="-118.5" font-family="Helvetica,sans-Serif" font-size="10.00">QtGui/QWheelEvent</text>
</a>
</g>
</g>
<!-- Node30&#45;&gt;Node34 -->
<g id="edge34_Node000030_Node000034" class="edge">
<title>Node30&#45;&gt;Node34</title>
<g id="a_edge34_Node000030_Node000034"><a xlink:title=" ">
<path fill="none" stroke="#63b8ff" d="M362.63,-167.59C353.16,-159.85 339.52,-148.69 328.25,-139.47"/>
<polygon fill="#63b8ff" stroke="#63b8ff" points="330.62,-136.88 320.66,-133.26 326.18,-142.3 330.62,-136.88"/>
</a>
</g>
</g>
<!-- Node36 -->
<g id="Node000036" class="node">
<title>Node36</title>
<g id="a_Node000036"><a xlink:title=" ">
<polygon fill="#e0e0e0" stroke="#999999" points="2287.62,-132 2184.62,-132 2184.62,-112 2287.62,-112 2287.62,-132"/>
<text xml:space="preserve" text-anchor="middle" x="2236.12" y="-118.5" font-family="Helvetica,sans-Serif" font-size="10.00">QtCore/QMimeData</text>
</a>
</g>
</g>
<!-- Node35&#45;&gt;Node36 -->
<g id="edge36_Node000035_Node000036" class="edge">
<title>Node35&#45;&gt;Node36</title>
<g id="a_edge36_Node000035_Node000036"><a xlink:title=" ">
<path fill="none" stroke="#63b8ff" d="M2415.9,-167.53C2379.59,-158.54 2324.82,-144.97 2285.28,-135.18"/>
<polygon fill="#63b8ff" stroke="#63b8ff" points="2286.32,-131.83 2275.77,-132.82 2284.64,-138.62 2286.32,-131.83"/>
</a>
</g>
</g>
<!-- Node37 -->
<g id="Node000037" class="node">
<title>Node37</title>
<g id="a_Node000037"><a xlink:title=" ">
<polygon fill="#e0e0e0" stroke="#999999" points="2378.62,-132 2305.62,-132 2305.62,-112 2378.62,-112 2378.62,-132"/>
<text xml:space="preserve" text-anchor="middle" x="2342.12" y="-118.5" font-family="Helvetica,sans-Serif" font-size="10.00">QtGui/QDrag</text>
</a>
</g>
</g>
<!-- Node35&#45;&gt;Node37 -->
<g id="edge37_Node000035_Node000037" class="edge">
<title>Node35&#45;&gt;Node37</title>
<g id="a_edge37_Node000035_Node000037"><a xlink:title=" ">
<path fill="none" stroke="#63b8ff" d="M2434.62,-167.59C2417.38,-159.28 2391.97,-147.03 2372.14,-137.47"/>
<polygon fill="#63b8ff" stroke="#63b8ff" points="2373.68,-134.33 2363.15,-133.14 2370.64,-140.63 2373.68,-134.33"/>
</a>
</g>
</g>
<!-- Node38 -->
<g id="Node000038" class="node">
<title>Node38</title>
<g id="a_Node000038"><a xlink:title=" ">
<polygon fill="#e0e0e0" stroke="#999999" points="2503.5,-132 2396.75,-132 2396.75,-112 2503.5,-112 2503.5,-132"/>
<text xml:space="preserve" text-anchor="middle" x="2450.12" y="-118.5" font-family="Helvetica,sans-Serif" font-size="10.00">QtGui/QMouseEvent</text>
</a>
</g>
</g>
<!-- Node35&#45;&gt;Node38 -->
<g id="edge38_Node000035_Node000038" class="edge">
<title>Node35&#45;&gt;Node38</title>
<g id="a_edge38_Node000035_Node000038"><a xlink:title=" ">
<path fill="none" stroke="#63b8ff" d="M2453.43,-167.59C2452.94,-161.01 2452.27,-151.96 2451.66,-143.73"/>
<polygon fill="#63b8ff" stroke="#63b8ff" points="2455.15,-143.52 2450.93,-133.81 2448.17,-144.04 2455.15,-143.52"/>
</a>
</g>
</g>
<!-- Node39 -->
<g id="Node000039" class="node">
<title>Node39</title>
<g id="a_Node000039"><a xlink:title=" ">
<polygon fill="#e0e0e0" stroke="#999999" points="2166.12,-132 2042.12,-132 2042.12,-112 2166.12,-112 2166.12,-132"/>
<text xml:space="preserve" text-anchor="middle" x="2104.12" y="-118.5" font-family="Helvetica,sans-Serif" font-size="10.00">QtWidgets/QPushButton</text>
</a>
</g>
</g>
<!-- Node35&#45;&gt;Node39 -->
<g id="edge39_Node000035_Node000039" class="edge">
<title>Node35&#45;&gt;Node39</title>
<g id="a_edge39_Node000035_Node000039"><a xlink:title=" ">
<path fill="none" stroke="#63b8ff" d="M2405.31,-169.28C2402.54,-168.84 2399.8,-168.42 2397.12,-168 2322.36,-156.36 2236.83,-143.24 2177.56,-134.19"/>
<polygon fill="#63b8ff" stroke="#63b8ff" points="2178.35,-130.77 2167.93,-132.72 2177.29,-137.69 2178.35,-130.77"/>
</a>
</g>
</g>
<!-- Node40&#45;&gt;Node10 -->
<g id="edge41_Node000040_Node000010" class="edge">
<title>Node40&#45;&gt;Node10</title>
<g id="a_edge41_Node000040_Node000010"><a xlink:title=" ">
<path fill="none" stroke="#63b8ff" d="M2660.87,-167.52C2649.37,-159.52 2634.25,-146.99 2626.12,-132 2608.86,-100.16 2606.16,-57.13 2606.28,-31.89"/>
<polygon fill="#63b8ff" stroke="#63b8ff" points="2609.78,-32.06 2606.51,-21.98 2602.78,-31.9 2609.78,-32.06"/>
</a>
</g>
</g>
<!-- Node40&#45;&gt;Node14 -->
<g id="edge42_Node000040_Node000014" class="edge">
<title>Node40&#45;&gt;Node14</title>
<g id="a_edge42_Node000040_Node000014"><a xlink:title=" ">
<path fill="none" stroke="#63b8ff" d="M2742.22,-168.68C2817.98,-159.14 2942.19,-143.51 3023.81,-133.24"/>
<polygon fill="#63b8ff" stroke="#63b8ff" points="3024.05,-136.73 3033.54,-132.01 3023.18,-129.79 3024.05,-136.73"/>
</a>
</g>
</g>
<!-- Node40&#45;&gt;Node41 -->
<g id="edge43_Node000040_Node000041" class="edge">
<title>Node40&#45;&gt;Node41</title>
<g id="a_edge43_Node000040_Node000041"><a xlink:title=" ">
<path fill="none" stroke="#63b8ff" d="M2720.59,-167.57C2741.9,-160.94 2766.18,-149.93 2782.12,-132 2793.01,-119.76 2797.68,-101.58 2799.67,-87.56"/>
<polygon fill="#63b8ff" stroke="#63b8ff" points="2803.14,-87.96 2800.69,-77.65 2796.18,-87.24 2803.14,-87.96"/>
</a>
</g>
</g>
<!-- Node40&#45;&gt;Node51 -->
<g id="edge48_Node000040_Node000051" class="edge">
<title>Node40&#45;&gt;Node51</title>
<g id="a_edge48_Node000040_Node000051"><a xlink:title=" ">
<path fill="none" stroke="#63b8ff" d="M2742.06,-169.33C2830.85,-158.72 2978.9,-140 2988.12,-132 3000.76,-121.03 3005.22,-102.17 3006.69,-87.58"/>
<polygon fill="#63b8ff" stroke="#63b8ff" points="3010.18,-87.86 3007.25,-77.68 3003.19,-87.46 3010.18,-87.86"/>
</a>
</g>
</g>
<!-- Node53 -->
<g id="Node000053" class="node">
<title>Node53</title>
<g id="a_Node000053"><a xlink:href="_element_graphics_item_8h.html" target="_top" xlink:title=" ">
<polygon fill="#fff0f0" stroke="red" points="2979.25,-132 2829,-132 2829,-112 2979.25,-112 2979.25,-132"/>
<text xml:space="preserve" text-anchor="middle" x="2904.12" y="-118.5" font-family="Helvetica,sans-Serif" font-size="10.00">viewer/ElementGraphicsItem.h</text>
</a>
</g>
</g>
<!-- Node40&#45;&gt;Node53 -->
<g id="edge51_Node000040_Node000053" class="edge">
<title>Node40&#45;&gt;Node53</title>
<g id="a_edge51_Node000040_Node000053"><a xlink:title=" ">
<path fill="none" stroke="#63b8ff" d="M2716.1,-167.53C2754.24,-158.5 2811.85,-144.85 2853.25,-135.05"/>
<polygon fill="#63b8ff" stroke="#63b8ff" points="2853.8,-138.52 2862.72,-132.81 2852.19,-131.7 2853.8,-138.52"/>
</a>
</g>
</g>
<!-- Node58 -->
<g id="Node000058" class="node">
<title>Node58</title>
<g id="a_Node000058"><a xlink:href="_bezier_control_point_8h.html" target="_top" xlink:title=" ">
<polygon fill="#fff0f0" stroke="red" points="2772.88,-132 2635.38,-132 2635.38,-112 2772.88,-112 2772.88,-132"/>
<text xml:space="preserve" text-anchor="middle" x="2704.12" y="-118.5" font-family="Helvetica,sans-Serif" font-size="10.00">viewer/BezierControlPoint.h</text>
</a>
</g>
</g>
<!-- Node40&#45;&gt;Node58 -->
<g id="edge53_Node000040_Node000058" class="edge">
<title>Node40&#45;&gt;Node58</title>
<g id="a_edge53_Node000040_Node000058"><a xlink:title=" ">
<path fill="none" stroke="#63b8ff" d="M2681,-167.59C2684.62,-160.63 2689.67,-150.89 2694.12,-142.29"/>
<polygon fill="#63b8ff" stroke="#63b8ff" points="2697.11,-144.13 2698.61,-133.64 2690.9,-140.91 2697.11,-144.13"/>
</a>
</g>
</g>
<!-- Node41&#45;&gt;Node10 -->
<g id="edge44_Node000041_Node000010" class="edge">
<title>Node41&#45;&gt;Node10</title>
<g id="a_edge44_Node000041_Node000010"><a xlink:title=" ">
<path fill="none" stroke="#63b8ff" d="M2767.33,-55.59C2735.4,-46.71 2687.28,-33.31 2652.11,-23.52"/>
<polygon fill="#63b8ff" stroke="#63b8ff" points="2653.21,-20.2 2642.64,-20.89 2651.33,-26.94 2653.21,-20.2"/>
</a>
</g>
</g>
<!-- Node42 -->
<g id="Node000042" class="node">
<title>Node42</title>
<g id="a_Node000042"><a xlink:title=" ">
<polygon fill="#e0e0e0" stroke="#999999" points="2945.38,-20 2858.88,-20 2858.88,0 2945.38,0 2945.38,-20"/>
<text xml:space="preserve" text-anchor="middle" x="2902.12" y="-6.5" font-family="Helvetica,sans-Serif" font-size="10.00">QtCore/QObject</text>
</a>
</g>
</g>
<!-- Node41&#45;&gt;Node42 -->
<g id="edge45_Node000041_Node000042" class="edge">
<title>Node41&#45;&gt;Node42</title>
<g id="a_edge45_Node000041_Node000042"><a xlink:title=" ">
<path fill="none" stroke="#63b8ff" d="M2818.72,-55.59C2834.05,-47.4 2856.54,-35.37 2874.31,-25.87"/>
<polygon fill="#63b8ff" stroke="#63b8ff" points="2875.89,-28.99 2883.06,-21.19 2872.59,-22.82 2875.89,-28.99"/>
</a>
</g>
</g>
<!-- Node43 -->
<g id="Node000043" class="node">
<title>Node43</title>
<g id="a_Node000043"><a xlink:title=" ">
<polygon fill="#e0e0e0" stroke="#999999" points="3050.38,-20 2963.88,-20 2963.88,0 3050.38,0 3050.38,-20"/>
<text xml:space="preserve" text-anchor="middle" x="3007.12" y="-6.5" font-family="Helvetica,sans-Serif" font-size="10.00">QtCore/QPointF</text>
</a>
</g>
</g>
<!-- Node41&#45;&gt;Node43 -->
<g id="edge46_Node000041_Node000043" class="edge">
<title>Node41&#45;&gt;Node43</title>
<g id="a_edge46_Node000041_Node000043"><a xlink:title=" ">
<path fill="none" stroke="#63b8ff" d="M2837.01,-55.59C2871.06,-46.67 2922.46,-33.19 2959.84,-23.39"/>
<polygon fill="#63b8ff" stroke="#63b8ff" points="2960.71,-26.78 2969.5,-20.86 2958.94,-20.01 2960.71,-26.78"/>
</a>
</g>
</g>
<!-- Node44 -->
<g id="Node000044" class="node">
<title>Node44</title>
<g id="a_Node000044"><a xlink:title=" ">
<polygon fill="#e0e0e0" stroke="#999999" points="2840.62,-20 2755.62,-20 2755.62,0 2840.62,0 2840.62,-20"/>
<text xml:space="preserve" text-anchor="middle" x="2798.12" y="-6.5" font-family="Helvetica,sans-Serif" font-size="10.00">QtCore/QRectF</text>
</a>
</g>
</g>
<!-- Node41&#45;&gt;Node44 -->
<g id="edge47_Node000041_Node000044" class="edge">
<title>Node41&#45;&gt;Node44</title>
<g id="a_edge47_Node000041_Node000044"><a xlink:title=" ">
<path fill="none" stroke="#63b8ff" d="M2800.6,-55.59C2800.24,-49.01 2799.73,-39.96 2799.28,-31.73"/>
<polygon fill="#63b8ff" stroke="#63b8ff" points="2802.77,-31.6 2798.73,-21.81 2795.79,-31.99 2802.77,-31.6"/>
</a>
</g>
</g>
<!-- Node51&#45;&gt;Node42 -->
<g id="edge49_Node000051_Node000042" class="edge">
<title>Node51&#45;&gt;Node42</title>
<g id="a_edge49_Node000051_Node000042"><a xlink:title=" ">
<path fill="none" stroke="#63b8ff" d="M2988.84,-55.59C2972.82,-47.36 2949.29,-35.26 2930.78,-25.74"/>
<polygon fill="#63b8ff" stroke="#63b8ff" points="2932.4,-22.63 2921.9,-21.17 2929.2,-28.86 2932.4,-22.63"/>
</a>
</g>
</g>
<!-- Node51&#45;&gt;Node43 -->
<g id="edge50_Node000051_Node000043" class="edge">
<title>Node51&#45;&gt;Node43</title>
<g id="a_edge50_Node000051_Node000043"><a xlink:title=" ">
<path fill="none" stroke="#63b8ff" d="M3007.12,-55.59C3007.12,-49.01 3007.12,-39.96 3007.12,-31.73"/>
<polygon fill="#63b8ff" stroke="#63b8ff" points="3010.63,-31.81 3007.13,-21.81 3003.63,-31.81 3010.63,-31.81"/>
</a>
</g>
</g>
<!-- Node53&#45;&gt;Node41 -->
<g id="edge52_Node000053_Node000041" class="edge">
<title>Node53&#45;&gt;Node41</title>
<g id="a_edge52_Node000053_Node000041"><a xlink:title=" ">
<path fill="none" stroke="#63b8ff" d="M2886.18,-111.59C2870.48,-103.36 2847.39,-91.26 2829.24,-81.74"/>
<polygon fill="#63b8ff" stroke="#63b8ff" points="2831.03,-78.73 2820.55,-77.18 2827.78,-84.93 2831.03,-78.73"/>
</a>
</g>
</g>
</g>
</svg>
