<?xml version="1.0" encoding="UTF-8" standalone="no"?>
<!DOCTYPE svg PUBLIC "-//W3C//DTD SVG 1.1//EN"
 "http://www.w3.org/Graphics/SVG/1.1/DTD/svg11.dtd">
<!-- Generated by graphviz version 14.1.1 (20251213.1925)
 -->
<!-- Title: src/viewer/QuickAcessToolBar.cpp Pages: 1 -->
<!--zoomable 320 -->

<svg id="main" version="1.1" xmlns="http://www.w3.org/2000/svg" xmlns:xlink="http://www.w3.org/1999/xlink" xml:space="preserve" onload="init(evt)">

<style type="text/css"><![CDATA[
.node, .edge {opacity: 0.7;}
.node.selected, .edge.selected {opacity: 1;}
.edge:hover path { stroke: red; }
.edge:hover polygon { stroke: red; fill: red; }
]]></style>

<defs>
  <circle id="rim" cx="0" cy="0" r="7"/>
  <circle id="rim2" cx="0" cy="0" r="3.5"/>
  <g id="zoomPlus">
    <use xlink:href="#rim" fill="#404040"><set attributeName="fill" to="#808080" begin="zoomplus.mouseover" end="zoomplus.mouseout"/></use>
    <path d="M-4,0h8M0,-4v8" fill="none" stroke="white" stroke-width="1.5" pointer-events="none"/>
  </g>
  <g id="zoomMin">
    <use xlink:href="#rim" fill="#404040"><set attributeName="fill" to="#808080" begin="zoomminus.mouseover" end="zoomminus.mouseout"/></use>
    <path d="M-4,0h8" fill="none" stroke="white" stroke-width="1.5" pointer-events="none"/>
  </g>
  <g id="arrowUp" transform="translate(30 24)">
    <use xlink:href="#rim"/>
    <path pointer-events="none" fill="none" stroke="white" stroke-width="1.5" d="M0,-3.0v7 M-2.5,-0.5L0,-3.0L2.5,-0.5"/>
  </g>
  <g id="arrowRight" transform="rotate(90) translate(36 -43)">
    <use xlink:href="#rim"/>
    <path pointer-events="none" fill="none" stroke="white" stroke-width="1.5" d="M0,-3.0v7 M-2.5,-0.5L0,-3.0L2.5,-0.5"/>
  </g>
  <g id="arrowDown" transform="rotate(180) translate(-30 -48)">
    <use xlink:href="#rim"/>
    <path pointer-events="none" fill="none" stroke="white" stroke-width="1.5" d="M0,-3.0v7 M-2.5,-0.5L0,-3.0L2.5,-0.5"/>
  </g>
  <g id="arrowLeft" transform="rotate(270) translate(-36 17)">
    <use xlink:href="#rim"/>
    <path pointer-events="none" fill="none" stroke="white" stroke-width="1.5" d="M0,-3.0v7 M-2.5,-0.5L0,-3.0L2.5,-0.5"/>
  </g>
  <g id="resetDef">
    <use xlink:href="#rim2" fill="#404040"><set attributeName="fill" to="#808080" begin="reset.mouseover" end="reset.mouseout"/></use>
  </g>
</defs>
<script type="application/ecmascript">
var viewWidth = 3304;
var viewHeight = 320;
var sectionId = 'dynsection-0';
</script>
<script type="application/ecmascript" xlink:href="svg.min.js"/>
<svg id="graph" class="graph">
<g id="viewport">
<title>src/viewer/QuickAcessToolBar.cpp</title>
<!-- Node1 -->
<g id="Node000001" class="node">
<title>Node1</title>
<g id="a_Node000001"><a xlink:title=" ">
<polygon fill="#999999" stroke="#666666" points="2179,-312 2043.75,-312 2043.75,-280 2179,-280 2179,-312"/>
<text xml:space="preserve" text-anchor="start" x="2051.75" y="-298.5" font-family="Helvetica,sans-Serif" font-size="10.00">src/viewer/QuickAcessTool</text>
<text xml:space="preserve" text-anchor="middle" x="2111.38" y="-286.5" font-family="Helvetica,sans-Serif" font-size="10.00">Bar.cpp</text>
</a>
</g>
</g>
<!-- Node2 -->
<g id="Node000002" class="node">
<title>Node2</title>
<g id="a_Node000002"><a xlink:href="_quick_acess_tool_bar_8h.html" target="_top" xlink:title=" ">
<polygon fill="white" stroke="#666666" points="255.88,-244 146.88,-244 146.88,-224 255.88,-224 255.88,-244"/>
<text xml:space="preserve" text-anchor="middle" x="201.38" y="-230.5" font-family="Helvetica,sans-Serif" font-size="10.00">QuickAcessToolbar.h</text>
</a>
</g>
</g>
<!-- Node1&#45;&gt;Node2 -->
<g id="edge1_Node000001_Node000002" class="edge">
<title>Node1&#45;&gt;Node2</title>
<g id="a_edge1_Node000001_Node000002"><a xlink:title=" ">
<path fill="none" stroke="#63b8ff" d="M2043.4,-292.86C1746,-283.52 561.21,-246.3 267.51,-237.08"/>
<polygon fill="#63b8ff" stroke="#63b8ff" points="267.84,-233.59 257.73,-236.77 267.62,-240.58 267.84,-233.59"/>
</a>
</g>
</g>
<!-- Node8 -->
<g id="Node000008" class="node">
<title>Node8</title>
<g id="a_Node000008"><a xlink:href="_main_window_8h.html" target="_top" xlink:title=" ">
<polygon fill="white" stroke="#666666" points="2070.25,-244 1990.5,-244 1990.5,-224 2070.25,-224 2070.25,-244"/>
<text xml:space="preserve" text-anchor="middle" x="2030.38" y="-230.5" font-family="Helvetica,sans-Serif" font-size="10.00">MainWindow.h</text>
</a>
</g>
</g>
<!-- Node1&#45;&gt;Node8 -->
<g id="edge7_Node000001_Node000008" class="edge">
<title>Node1&#45;&gt;Node8</title>
<g id="a_edge7_Node000001_Node000008"><a xlink:title=" ">
<path fill="none" stroke="#63b8ff" d="M2090.52,-279.55C2078.8,-270.87 2064.18,-260.04 2052.3,-251.24"/>
<polygon fill="#63b8ff" stroke="#63b8ff" points="2054.41,-248.45 2044.29,-245.31 2050.24,-254.07 2054.41,-248.45"/>
</a>
</g>
</g>
<!-- Node63 -->
<g id="Node000063" class="node">
<title>Node63</title>
<g id="a_Node000063"><a xlink:title=" ">
<polygon fill="#e0e0e0" stroke="#999999" points="2134.38,-244 2088.38,-244 2088.38,-224 2134.38,-224 2134.38,-244"/>
<text xml:space="preserve" text-anchor="middle" x="2111.38" y="-230.5" font-family="Helvetica,sans-Serif" font-size="10.00">QStyle</text>
</a>
</g>
</g>
<!-- Node1&#45;&gt;Node63 -->
<g id="edge56_Node000001_Node000063" class="edge">
<title>Node1&#45;&gt;Node63</title>
<g id="a_edge56_Node000001_Node000063"><a xlink:title=" ">
<path fill="none" stroke="#63b8ff" d="M2111.38,-279.55C2111.38,-272.34 2111.38,-263.66 2111.38,-255.88"/>
<polygon fill="#63b8ff" stroke="#63b8ff" points="2114.88,-255.92 2111.38,-245.92 2107.88,-255.92 2114.88,-255.92"/>
</a>
</g>
</g>
<!-- Node64 -->
<g id="Node000064" class="node">
<title>Node64</title>
<g id="a_Node000064"><a xlink:title=" ">
<polygon fill="#e0e0e0" stroke="#999999" points="2204,-244 2152.75,-244 2152.75,-224 2204,-224 2204,-244"/>
<text xml:space="preserve" text-anchor="middle" x="2178.38" y="-230.5" font-family="Helvetica,sans-Serif" font-size="10.00">QAction</text>
</a>
</g>
</g>
<!-- Node1&#45;&gt;Node64 -->
<g id="edge57_Node000001_Node000064" class="edge">
<title>Node1&#45;&gt;Node64</title>
<g id="a_edge57_Node000001_Node000064"><a xlink:title=" ">
<path fill="none" stroke="#63b8ff" d="M2128.63,-279.55C2138.03,-271.13 2149.69,-260.69 2159.35,-252.04"/>
<polygon fill="#63b8ff" stroke="#63b8ff" points="2161.63,-254.7 2166.74,-245.42 2156.96,-249.48 2161.63,-254.7"/>
</a>
</g>
</g>
<!-- Node65 -->
<g id="Node000065" class="node">
<title>Node65</title>
<g id="a_Node000065"><a xlink:title=" ">
<polygon fill="#e0e0e0" stroke="#999999" points="2261,-244 2221.75,-244 2221.75,-224 2261,-224 2261,-244"/>
<text xml:space="preserve" text-anchor="middle" x="2241.38" y="-230.5" font-family="Helvetica,sans-Serif" font-size="10.00">QFile</text>
</a>
</g>
</g>
<!-- Node1&#45;&gt;Node65 -->
<g id="edge58_Node000001_Node000065" class="edge">
<title>Node1&#45;&gt;Node65</title>
<g id="a_edge58_Node000001_Node000065"><a xlink:title=" ">
<path fill="none" stroke="#63b8ff" d="M2144.85,-279.55C2165.29,-270.12 2191.22,-258.15 2211.05,-248.99"/>
<polygon fill="#63b8ff" stroke="#63b8ff" points="2212.38,-252.24 2220,-244.87 2209.45,-245.88 2212.38,-252.24"/>
</a>
</g>
</g>
<!-- Node3 -->
<g id="Node000003" class="node">
<title>Node3</title>
<g id="a_Node000003"><a xlink:title=" ">
<polygon fill="#e0e0e0" stroke="#999999" points="127.62,-188 71.12,-188 71.12,-168 127.62,-168 127.62,-188"/>
<text xml:space="preserve" text-anchor="middle" x="99.38" y="-174.5" font-family="Helvetica,sans-Serif" font-size="10.00">QToolBar</text>
</a>
</g>
</g>
<!-- Node2&#45;&gt;Node3 -->
<g id="edge2_Node000002_Node000003" class="edge">
<title>Node2&#45;&gt;Node3</title>
<g id="a_edge2_Node000002_Node000003"><a xlink:title=" ">
<path fill="none" stroke="#63b8ff" d="M183.61,-223.59C168.05,-215.36 145.19,-203.26 127.21,-193.74"/>
<polygon fill="#63b8ff" stroke="#63b8ff" points="129.09,-190.77 118.62,-189.19 125.82,-196.96 129.09,-190.77"/>
</a>
</g>
</g>
<!-- Node4 -->
<g id="Node000004" class="node">
<title>Node4</title>
<g id="a_Node000004"><a xlink:title=" ">
<polygon fill="#e0e0e0" stroke="#999999" points="193.12,-188 145.62,-188 145.62,-168 193.12,-168 193.12,-188"/>
<text xml:space="preserve" text-anchor="middle" x="169.38" y="-174.5" font-family="Helvetica,sans-Serif" font-size="10.00">QMenu</text>
</a>
</g>
</g>
<!-- Node2&#45;&gt;Node4 -->
<g id="edge3_Node000002_Node000004" class="edge">
<title>Node2&#45;&gt;Node4</title>
<g id="a_edge3_Node000002_Node000004"><a xlink:title=" ">
<path fill="none" stroke="#63b8ff" d="M195.8,-223.59C191.63,-216.55 185.77,-206.67 180.63,-198"/>
<polygon fill="#63b8ff" stroke="#63b8ff" points="183.77,-196.42 175.66,-189.6 177.74,-199.99 183.77,-196.42"/>
</a>
</g>
</g>
<!-- Node5 -->
<g id="Node000005" class="node">
<title>Node5</title>
<g id="a_Node000005"><a xlink:title=" ">
<polygon fill="#e0e0e0" stroke="#999999" points="253.5,-188 211.25,-188 211.25,-168 253.5,-168 253.5,-188"/>
<text xml:space="preserve" text-anchor="middle" x="232.38" y="-174.5" font-family="Helvetica,sans-Serif" font-size="10.00">QIcon</text>
</a>
</g>
</g>
<!-- Node2&#45;&gt;Node5 -->
<g id="edge4_Node000002_Node000005" class="edge">
<title>Node2&#45;&gt;Node5</title>
<g id="a_edge4_Node000002_Node000005"><a xlink:title=" ">
<path fill="none" stroke="#63b8ff" d="M206.77,-223.59C210.82,-216.55 216.49,-206.67 221.47,-198"/>
<polygon fill="#63b8ff" stroke="#63b8ff" points="224.34,-200.03 226.28,-189.61 218.27,-196.54 224.34,-200.03"/>
</a>
</g>
</g>
<!-- Node6 -->
<g id="Node000006" class="node">
<title>Node6</title>
<g id="a_Node000006"><a xlink:title=" ">
<polygon fill="#e0e0e0" stroke="#999999" points="314.88,-188 271.88,-188 271.88,-168 314.88,-168 314.88,-188"/>
<text xml:space="preserve" text-anchor="middle" x="293.38" y="-174.5" font-family="Helvetica,sans-Serif" font-size="10.00">QSize</text>
</a>
</g>
</g>
<!-- Node2&#45;&gt;Node6 -->
<g id="edge5_Node000002_Node000006" class="edge">
<title>Node2&#45;&gt;Node6</title>
<g id="a_edge5_Node000002_Node000006"><a xlink:title=" ">
<path fill="none" stroke="#63b8ff" d="M217.4,-223.59C231.17,-215.51 251.28,-203.71 267.35,-194.27"/>
<polygon fill="#63b8ff" stroke="#63b8ff" points="269.07,-197.33 275.92,-189.25 265.52,-191.29 269.07,-197.33"/>
</a>
</g>
</g>
<!-- Node7 -->
<g id="Node000007" class="node">
<title>Node7</title>
<g id="a_Node000007"><a xlink:title=" ">
<polygon fill="#e0e0e0" stroke="#999999" points="52.75,-188 0,-188 0,-168 52.75,-168 52.75,-188"/>
<text xml:space="preserve" text-anchor="middle" x="26.38" y="-174.5" font-family="Helvetica,sans-Serif" font-size="10.00">QCursor</text>
</a>
</g>
</g>
<!-- Node2&#45;&gt;Node7 -->
<g id="edge6_Node000002_Node000007" class="edge">
<title>Node2&#45;&gt;Node7</title>
<g id="a_edge6_Node000002_Node000007"><a xlink:title=" ">
<path fill="none" stroke="#63b8ff" d="M170.89,-223.59C141.11,-214.4 95.71,-200.4 63.77,-190.54"/>
<polygon fill="#63b8ff" stroke="#63b8ff" points="65.11,-187.29 54.52,-187.68 63.04,-193.98 65.11,-187.29"/>
</a>
</g>
</g>
<!-- Node9 -->
<g id="Node000009" class="node">
<title>Node9</title>
<g id="a_Node000009"><a xlink:title=" ">
<polygon fill="#e0e0e0" stroke="#999999" points="2488,-188 2448.75,-188 2448.75,-168 2488,-168 2488,-188"/>
<text xml:space="preserve" text-anchor="middle" x="2468.38" y="-174.5" font-family="Helvetica,sans-Serif" font-size="10.00">QList</text>
</a>
</g>
</g>
<!-- Node8&#45;&gt;Node9 -->
<g id="edge8_Node000008_Node000009" class="edge">
<title>Node8&#45;&gt;Node9</title>
<g id="a_edge8_Node000008_Node000009"><a xlink:title=" ">
<path fill="none" stroke="#63b8ff" d="M2070.71,-225.33C2073.64,-224.85 2076.55,-224.4 2079.38,-224 2236.38,-201.66 2278.35,-216.38 2434.38,-188 2435.37,-187.82 2436.39,-187.62 2437.41,-187.41"/>
<polygon fill="#63b8ff" stroke="#63b8ff" points="2437.94,-190.88 2446.88,-185.2 2436.35,-184.07 2437.94,-190.88"/>
</a>
</g>
</g>
<!-- Node10 -->
<g id="Node000010" class="node">
<title>Node10</title>
<g id="a_Node000010"><a xlink:title=" ">
<polygon fill="#e0e0e0" stroke="#999999" points="3148,-20 3066.75,-20 3066.75,0 3148,0 3148,-20"/>
<text xml:space="preserve" text-anchor="middle" x="3107.38" y="-6.5" font-family="Helvetica,sans-Serif" font-size="10.00">QtCore/QHash</text>
</a>
</g>
</g>
<!-- Node8&#45;&gt;Node10 -->
<g id="edge9_Node000008_Node000010" class="edge">
<title>Node8&#45;&gt;Node10</title>
<g id="a_edge9_Node000008_Node000010"><a xlink:title=" ">
<path fill="none" stroke="#63b8ff" d="M2070.68,-225.1C2073.62,-224.68 2076.54,-224.3 2079.38,-224 2145.31,-216.99 3221.44,-230.46 3272.38,-188 3298.64,-166.1 3301.55,-141.57 3284.38,-112 3257.06,-64.96 3198.7,-37.99 3156.45,-23.95"/>
<polygon fill="#63b8ff" stroke="#63b8ff" points="3157.57,-20.64 3146.98,-20.95 3155.46,-27.31 3157.57,-20.64"/>
</a>
</g>
</g>
<!-- Node11 -->
<g id="Node000011" class="node">
<title>Node11</title>
<g id="a_Node000011"><a xlink:title=" ">
<polygon fill="#e0e0e0" stroke="#999999" points="2986.75,-188 2898,-188 2898,-168 2986.75,-168 2986.75,-188"/>
<text xml:space="preserve" text-anchor="middle" x="2942.38" y="-174.5" font-family="Helvetica,sans-Serif" font-size="10.00">QtCore/QPointer</text>
</a>
</g>
</g>
<!-- Node8&#45;&gt;Node11 -->
<g id="edge10_Node000008_Node000011" class="edge">
<title>Node8&#45;&gt;Node11</title>
<g id="a_edge10_Node000008_Node000011"><a xlink:title=" ">
<path fill="none" stroke="#63b8ff" d="M2070.69,-225.14C2073.62,-224.71 2076.54,-224.32 2079.38,-224 2435.22,-183.56 2528,-223.51 2884.38,-188 2885.06,-187.93 2885.74,-187.86 2886.43,-187.79"/>
<polygon fill="#63b8ff" stroke="#63b8ff" points="2886.78,-191.27 2896.29,-186.6 2885.94,-184.32 2886.78,-191.27"/>
</a>
</g>
</g>
<!-- Node12 -->
<g id="Node000012" class="node">
<title>Node12</title>
<g id="a_Node000012"><a xlink:title=" ">
<polygon fill="#e0e0e0" stroke="#999999" points="3123.75,-188 3005,-188 3005,-168 3123.75,-168 3123.75,-188"/>
<text xml:space="preserve" text-anchor="middle" x="3064.38" y="-174.5" font-family="Helvetica,sans-Serif" font-size="10.00">QtWidgets/QCheckBox</text>
</a>
</g>
</g>
<!-- Node8&#45;&gt;Node12 -->
<g id="edge11_Node000008_Node000012" class="edge">
<title>Node8&#45;&gt;Node12</title>
<g id="a_edge11_Node000008_Node000012"><a xlink:title=" ">
<path fill="none" stroke="#63b8ff" d="M2070.68,-225.13C2073.62,-224.7 2076.54,-224.31 2079.38,-224 2480.66,-179.49 2587.48,-221.61 2993.4,-188.07"/>
<polygon fill="#63b8ff" stroke="#63b8ff" points="2993.39,-191.59 3003.06,-187.26 2992.81,-184.61 2993.39,-191.59"/>
</a>
</g>
</g>
<!-- Node13 -->
<g id="Node000013" class="node">
<title>Node13</title>
<g id="a_Node000013"><a xlink:title=" ">
<polygon fill="#e0e0e0" stroke="#999999" points="3263.25,-188 3141.5,-188 3141.5,-168 3263.25,-168 3263.25,-188"/>
<text xml:space="preserve" text-anchor="middle" x="3202.38" y="-174.5" font-family="Helvetica,sans-Serif" font-size="10.00">QtWidgets/QComboBox</text>
</a>
</g>
</g>
<!-- Node8&#45;&gt;Node13 -->
<g id="edge12_Node000008_Node000013" class="edge">
<title>Node8&#45;&gt;Node13</title>
<g id="a_edge12_Node000008_Node000013"><a xlink:title=" ">
<path fill="none" stroke="#63b8ff" d="M2070.68,-225.11C2073.62,-224.69 2076.54,-224.31 2079.38,-224 2541.17,-173.97 2663.67,-225.06 3129.9,-188.11"/>
<polygon fill="#63b8ff" stroke="#63b8ff" points="3130.13,-191.6 3139.82,-187.31 3129.57,-184.62 3130.13,-191.6"/>
</a>
</g>
</g>
<!-- Node14 -->
<g id="Node000014" class="node">
<title>Node14</title>
<g id="a_Node000014"><a xlink:title=" ">
<polygon fill="#e0e0e0" stroke="#999999" points="3275.25,-132 3135.5,-132 3135.5,-112 3275.25,-112 3275.25,-132"/>
<text xml:space="preserve" text-anchor="middle" x="3205.38" y="-118.5" font-family="Helvetica,sans-Serif" font-size="10.00">QtWidgets/QGraphicsScene</text>
</a>
</g>
</g>
<!-- Node8&#45;&gt;Node14 -->
<g id="edge13_Node000008_Node000014" class="edge">
<title>Node8&#45;&gt;Node14</title>
<g id="a_edge13_Node000008_Node000014"><a xlink:title=" ">
<path fill="none" stroke="#63b8ff" d="M2070.69,-225.15C2073.62,-224.72 2076.54,-224.33 2079.38,-224 2250,-204.44 2685.65,-233.07 2851.38,-188 2869.79,-182.99 2871.22,-173.88 2889.38,-168 2911.26,-160.92 3037.7,-144.09 3123.85,-133.14"/>
<polygon fill="#63b8ff" stroke="#63b8ff" points="3124.22,-136.62 3133.7,-131.89 3123.34,-129.68 3124.22,-136.62"/>
</a>
</g>
</g>
<!-- Node15 -->
<g id="Node000015" class="node">
<title>Node15</title>
<g id="a_Node000015"><a xlink:title=" ">
<polygon fill="#e0e0e0" stroke="#999999" points="1426.25,-132 1292.5,-132 1292.5,-112 1426.25,-112 1426.25,-132"/>
<text xml:space="preserve" text-anchor="middle" x="1359.38" y="-118.5" font-family="Helvetica,sans-Serif" font-size="10.00">QtWidgets/QGraphicsView</text>
</a>
</g>
</g>
<!-- Node8&#45;&gt;Node15 -->
<g id="edge14_Node000008_Node000015" class="edge">
<title>Node8&#45;&gt;Node15</title>
<g id="a_edge14_Node000008_Node000015"><a xlink:title=" ">
<path fill="none" stroke="#63b8ff" d="M2070.71,-225.36C2073.64,-224.88 2076.55,-224.42 2079.38,-224 2151.23,-213.4 2451.61,-220.45 2401.38,-168 2368.16,-133.32 1674.39,-125.22 1437.69,-123.46"/>
<polygon fill="#63b8ff" stroke="#63b8ff" points="1437.98,-119.96 1427.95,-123.39 1437.92,-126.96 1437.98,-119.96"/>
</a>
</g>
</g>
<!-- Node16 -->
<g id="Node000016" class="node">
<title>Node16</title>
<g id="a_Node000016"><a xlink:title=" ">
<polygon fill="#e0e0e0" stroke="#999999" points="560.88,-188 433.88,-188 433.88,-168 560.88,-168 560.88,-188"/>
<text xml:space="preserve" text-anchor="middle" x="497.38" y="-174.5" font-family="Helvetica,sans-Serif" font-size="10.00">QtWidgets/QHBoxLayout</text>
</a>
</g>
</g>
<!-- Node8&#45;&gt;Node16 -->
<g id="edge15_Node000008_Node000016" class="edge">
<title>Node8&#45;&gt;Node16</title>
<g id="a_edge15_Node000008_Node000016"><a xlink:title=" ">
<path fill="none" stroke="#63b8ff" d="M1990.24,-233.11C1820.09,-233.31 1141.36,-231.24 572.35,-188.06"/>
<polygon fill="#63b8ff" stroke="#63b8ff" points="572.79,-184.59 562.55,-187.31 572.25,-191.57 572.79,-184.59"/>
</a>
</g>
</g>
<!-- Node17 -->
<g id="Node000017" class="node">
<title>Node17</title>
<g id="a_Node000017"><a xlink:title=" ">
<polygon fill="#e0e0e0" stroke="#999999" points="675.5,-188 579.25,-188 579.25,-168 675.5,-168 675.5,-188"/>
<text xml:space="preserve" text-anchor="middle" x="627.38" y="-174.5" font-family="Helvetica,sans-Serif" font-size="10.00">QtWidgets/QLabel</text>
</a>
</g>
</g>
<!-- Node8&#45;&gt;Node17 -->
<g id="edge16_Node000008_Node000017" class="edge">
<title>Node8&#45;&gt;Node17</title>
<g id="a_edge16_Node000008_Node000017"><a xlink:title=" ">
<path fill="none" stroke="#63b8ff" d="M1990.09,-232.32C1797.7,-228.99 970.45,-213.5 687.29,-188.13"/>
<polygon fill="#63b8ff" stroke="#63b8ff" points="687.62,-184.64 677.34,-187.21 686.98,-191.61 687.62,-184.64"/>
</a>
</g>
</g>
<!-- Node18 -->
<g id="Node000018" class="node">
<title>Node18</title>
<g id="a_Node000018"><a xlink:title=" ">
<polygon fill="#e0e0e0" stroke="#999999" points="801.5,-188 693.25,-188 693.25,-168 801.5,-168 801.5,-188"/>
<text xml:space="preserve" text-anchor="middle" x="747.38" y="-174.5" font-family="Helvetica,sans-Serif" font-size="10.00">QtWidgets/QLineEdit</text>
</a>
</g>
</g>
<!-- Node8&#45;&gt;Node18 -->
<g id="edge17_Node000008_Node000018" class="edge">
<title>Node8&#45;&gt;Node18</title>
<g id="a_edge17_Node000008_Node000018"><a xlink:title=" ">
<path fill="none" stroke="#63b8ff" d="M1990.26,-233.05C1838.08,-232.91 1281.76,-229.49 813.37,-188.17"/>
<polygon fill="#63b8ff" stroke="#63b8ff" points="813.75,-184.69 803.48,-187.29 813.13,-191.66 813.75,-184.69"/>
</a>
</g>
</g>
<!-- Node19 -->
<g id="Node000019" class="node">
<title>Node19</title>
<g id="a_Node000019"><a xlink:title=" ">
<polygon fill="#e0e0e0" stroke="#999999" points="949,-188 819.75,-188 819.75,-168 949,-168 949,-188"/>
<text xml:space="preserve" text-anchor="middle" x="884.38" y="-174.5" font-family="Helvetica,sans-Serif" font-size="10.00">QtWidgets/QMainWindow</text>
</a>
</g>
</g>
<!-- Node8&#45;&gt;Node19 -->
<g id="edge18_Node000008_Node000019" class="edge">
<title>Node8&#45;&gt;Node19</title>
<g id="a_edge18_Node000008_Node000019"><a xlink:title=" ">
<path fill="none" stroke="#63b8ff" d="M1990.35,-232.49C1850.26,-230.44 1368.72,-221.35 960.67,-188.21"/>
<polygon fill="#63b8ff" stroke="#63b8ff" points="960.99,-184.72 950.73,-187.39 960.42,-191.7 960.99,-184.72"/>
</a>
</g>
</g>
<!-- Node20 -->
<g id="Node000020" class="node">
<title>Node20</title>
<g id="a_Node000020"><a xlink:title=" ">
<polygon fill="#e0e0e0" stroke="#999999" points="1063.88,-188 966.88,-188 966.88,-168 1063.88,-168 1063.88,-188"/>
<text xml:space="preserve" text-anchor="middle" x="1015.38" y="-174.5" font-family="Helvetica,sans-Serif" font-size="10.00">QtWidgets/QMenu</text>
</a>
</g>
</g>
<!-- Node8&#45;&gt;Node20 -->
<g id="edge19_Node000008_Node000020" class="edge">
<title>Node8&#45;&gt;Node20</title>
<g id="a_edge19_Node000008_Node000020"><a xlink:title=" ">
<path fill="none" stroke="#63b8ff" d="M1990.15,-232.65C1859.68,-231.18 1436.33,-223.85 1075.26,-188.06"/>
<polygon fill="#63b8ff" stroke="#63b8ff" points="1075.87,-184.61 1065.57,-187.09 1075.17,-191.57 1075.87,-184.61"/>
</a>
</g>
</g>
<!-- Node21 -->
<g id="Node000021" class="node">
<title>Node21</title>
<g id="a_Node000021"><a xlink:title=" ">
<polygon fill="#e0e0e0" stroke="#999999" points="1194.38,-188 1082.38,-188 1082.38,-168 1194.38,-168 1194.38,-188"/>
<text xml:space="preserve" text-anchor="middle" x="1138.38" y="-174.5" font-family="Helvetica,sans-Serif" font-size="10.00">QtWidgets/QMenuBar</text>
</a>
</g>
</g>
<!-- Node8&#45;&gt;Node21 -->
<g id="edge20_Node000008_Node000021" class="edge">
<title>Node8&#45;&gt;Node21</title>
<g id="a_edge20_Node000008_Node000021"><a xlink:title=" ">
<path fill="none" stroke="#63b8ff" d="M1990.27,-232C1871.95,-228.8 1513.9,-217.32 1206.1,-188.18"/>
<polygon fill="#63b8ff" stroke="#63b8ff" points="1206.51,-184.7 1196.22,-187.24 1205.84,-191.67 1206.51,-184.7"/>
</a>
</g>
</g>
<!-- Node22 -->
<g id="Node000022" class="node">
<title>Node22</title>
<g id="a_Node000022"><a xlink:title=" ">
<polygon fill="#e0e0e0" stroke="#999999" points="1330.38,-188 1212.38,-188 1212.38,-168 1330.38,-168 1330.38,-188"/>
<text xml:space="preserve" text-anchor="middle" x="1271.38" y="-174.5" font-family="Helvetica,sans-Serif" font-size="10.00">QtWidgets/QScrollArea</text>
</a>
</g>
</g>
<!-- Node8&#45;&gt;Node22 -->
<g id="edge21_Node000008_Node000022" class="edge">
<title>Node8&#45;&gt;Node22</title>
<g id="a_edge21_Node000008_Node000022"><a xlink:title=" ">
<path fill="none" stroke="#63b8ff" d="M1990.19,-231.32C1885.36,-226.74 1594.81,-212.75 1341.94,-188.19"/>
<polygon fill="#63b8ff" stroke="#63b8ff" points="1342.49,-184.73 1332.19,-187.23 1341.8,-191.69 1342.49,-184.73"/>
</a>
</g>
</g>
<!-- Node23 -->
<g id="Node000023" class="node">
<title>Node23</title>
<g id="a_Node000023"><a xlink:title=" ">
<polygon fill="#e0e0e0" stroke="#999999" points="1452.25,-188 1348.5,-188 1348.5,-168 1452.25,-168 1452.25,-188"/>
<text xml:space="preserve" text-anchor="middle" x="1400.38" y="-174.5" font-family="Helvetica,sans-Serif" font-size="10.00">QtWidgets/QSplitter</text>
</a>
</g>
</g>
<!-- Node8&#45;&gt;Node23 -->
<g id="edge22_Node000008_Node000023" class="edge">
<title>Node8&#45;&gt;Node23</title>
<g id="a_edge22_Node000008_Node000023"><a xlink:title=" ">
<path fill="none" stroke="#63b8ff" d="M1990.27,-230.76C1898.87,-225.46 1667.84,-210.94 1463.82,-188.2"/>
<polygon fill="#63b8ff" stroke="#63b8ff" points="1464.42,-184.75 1454.09,-187.11 1463.64,-191.71 1464.42,-184.75"/>
</a>
</g>
</g>
<!-- Node24 -->
<g id="Node000024" class="node">
<title>Node24</title>
<g id="a_Node000024"><a xlink:title=" ">
<polygon fill="#e0e0e0" stroke="#999999" points="1586.62,-188 1470.12,-188 1470.12,-168 1586.62,-168 1586.62,-188"/>
<text xml:space="preserve" text-anchor="middle" x="1528.38" y="-174.5" font-family="Helvetica,sans-Serif" font-size="10.00">QtWidgets/QStatusBar</text>
</a>
</g>
</g>
<!-- Node8&#45;&gt;Node24 -->
<g id="edge23_Node000008_Node000024" class="edge">
<title>Node8&#45;&gt;Node24</title>
<g id="a_edge23_Node000008_Node000024"><a xlink:title=" ">
<path fill="none" stroke="#63b8ff" d="M1990.15,-229.25C1915.21,-222.18 1748.89,-206.06 1598.12,-188.3"/>
<polygon fill="#63b8ff" stroke="#63b8ff" points="1598.67,-184.84 1588.33,-187.14 1597.85,-191.79 1598.67,-184.84"/>
</a>
</g>
</g>
<!-- Node25 -->
<g id="Node000025" class="node">
<title>Node25</title>
<g id="a_Node000025"><a xlink:title=" ">
<polygon fill="#e0e0e0" stroke="#999999" points="1724.12,-188 1604.62,-188 1604.62,-168 1724.12,-168 1724.12,-188"/>
<text xml:space="preserve" text-anchor="middle" x="1664.38" y="-174.5" font-family="Helvetica,sans-Serif" font-size="10.00">QtWidgets/QTabWidget</text>
</a>
</g>
</g>
<!-- Node8&#45;&gt;Node25 -->
<g id="edge24_Node000008_Node000025" class="edge">
<title>Node8&#45;&gt;Node25</title>
<g id="a_edge24_Node000008_Node000025"><a xlink:title=" ">
<path fill="none" stroke="#63b8ff" d="M1990.16,-227.07C1928.96,-218.04 1811.55,-200.71 1735.66,-189.52"/>
<polygon fill="#63b8ff" stroke="#63b8ff" points="1736.22,-186.06 1725.82,-188.07 1735.2,-192.99 1736.22,-186.06"/>
</a>
</g>
</g>
<!-- Node26 -->
<g id="Node000026" class="node">
<title>Node26</title>
<g id="a_Node000026"><a xlink:title=" ">
<polygon fill="#e0e0e0" stroke="#999999" points="1865,-188 1741.75,-188 1741.75,-168 1865,-168 1865,-188"/>
<text xml:space="preserve" text-anchor="middle" x="1803.38" y="-174.5" font-family="Helvetica,sans-Serif" font-size="10.00">QtWidgets/QTreeWidget</text>
</a>
</g>
</g>
<!-- Node8&#45;&gt;Node26 -->
<g id="edge25_Node000008_Node000026" class="edge">
<title>Node8&#45;&gt;Node26</title>
<g id="a_edge25_Node000008_Node000026"><a xlink:title=" ">
<path fill="none" stroke="#63b8ff" d="M1990.57,-223.53C1952.69,-214.52 1895.49,-200.91 1854.29,-191.11"/>
<polygon fill="#63b8ff" stroke="#63b8ff" points="1855.14,-187.72 1844.6,-188.81 1853.52,-194.53 1855.14,-187.72"/>
</a>
</g>
</g>
<!-- Node27 -->
<g id="Node000027" class="node">
<title>Node27</title>
<g id="a_Node000027"><a xlink:title=" ">
<polygon fill="#e0e0e0" stroke="#999999" points="2025.75,-188 1883,-188 1883,-168 2025.75,-168 2025.75,-188"/>
<text xml:space="preserve" text-anchor="middle" x="1954.38" y="-174.5" font-family="Helvetica,sans-Serif" font-size="10.00">QtWidgets/QTreeWidgetItem</text>
</a>
</g>
</g>
<!-- Node8&#45;&gt;Node27 -->
<g id="edge26_Node000008_Node000027" class="edge">
<title>Node8&#45;&gt;Node27</title>
<g id="a_edge26_Node000008_Node000027"><a xlink:title=" ">
<path fill="none" stroke="#63b8ff" d="M2017.14,-223.59C2006.09,-215.74 1990.09,-204.38 1977.02,-195.09"/>
<polygon fill="#63b8ff" stroke="#63b8ff" points="1979.13,-192.3 1968.95,-189.36 1975.07,-198 1979.13,-192.3"/>
</a>
</g>
</g>
<!-- Node28 -->
<g id="Node000028" class="node">
<title>Node28</title>
<g id="a_Node000028"><a xlink:title=" ">
<polygon fill="#e0e0e0" stroke="#999999" points="2170.5,-188 2044.25,-188 2044.25,-168 2170.5,-168 2170.5,-188"/>
<text xml:space="preserve" text-anchor="middle" x="2107.38" y="-174.5" font-family="Helvetica,sans-Serif" font-size="10.00">QtWidgets/QVBoxLayout</text>
</a>
</g>
</g>
<!-- Node8&#45;&gt;Node28 -->
<g id="edge27_Node000008_Node000028" class="edge">
<title>Node8&#45;&gt;Node28</title>
<g id="a_edge27_Node000008_Node000028"><a xlink:title=" ">
<path fill="none" stroke="#63b8ff" d="M2043.79,-223.59C2054.98,-215.74 2071.19,-204.38 2084.43,-195.09"/>
<polygon fill="#63b8ff" stroke="#63b8ff" points="2086.44,-197.96 2092.62,-189.35 2082.42,-192.22 2086.44,-197.96"/>
</a>
</g>
</g>
<!-- Node29 -->
<g id="Node000029" class="node">
<title>Node29</title>
<g id="a_Node000029"><a xlink:title=" ">
<polygon fill="#e0e0e0" stroke="#999999" points="2292.25,-188 2188.5,-188 2188.5,-168 2292.25,-168 2292.25,-188"/>
<text xml:space="preserve" text-anchor="middle" x="2240.38" y="-174.5" font-family="Helvetica,sans-Serif" font-size="10.00">QtWidgets/QWidget</text>
</a>
</g>
</g>
<!-- Node8&#45;&gt;Node29 -->
<g id="edge28_Node000008_Node000029" class="edge">
<title>Node8&#45;&gt;Node29</title>
<g id="a_edge28_Node000008_Node000029"><a xlink:title=" ">
<path fill="none" stroke="#63b8ff" d="M2066.95,-223.59C2101.82,-214.63 2154.52,-201.08 2192.67,-191.27"/>
<polygon fill="#63b8ff" stroke="#63b8ff" points="2193.23,-194.74 2202.04,-188.86 2191.49,-187.96 2193.23,-194.74"/>
</a>
</g>
</g>
<!-- Node30 -->
<g id="Node000030" class="node">
<title>Node30</title>
<g id="a_Node000030"><a xlink:title=" ">
<polygon fill="#e0e0e0" stroke="#999999" points="2392.75,-188 2310,-188 2310,-168 2392.75,-168 2392.75,-188"/>
<text xml:space="preserve" text-anchor="middle" x="2351.38" y="-174.5" font-family="Helvetica,sans-Serif" font-size="10.00">QtCore/QTimer</text>
</a>
</g>
</g>
<!-- Node8&#45;&gt;Node30 -->
<g id="edge29_Node000008_Node000030" class="edge">
<title>Node8&#45;&gt;Node30</title>
<g id="a_edge29_Node000008_Node000030"><a xlink:title=" ">
<path fill="none" stroke="#63b8ff" d="M2070.74,-225.52C2073.66,-225 2076.56,-224.49 2079.38,-224 2174.31,-207.59 2200.95,-205.03 2298.38,-188.49"/>
<polygon fill="#63b8ff" stroke="#63b8ff" points="2298.88,-191.95 2308.15,-186.82 2297.7,-185.05 2298.88,-191.95"/>
</a>
</g>
</g>
<!-- Node31 -->
<g id="Node000031" class="node">
<title>Node31</title>
<g id="a_Node000031"><a xlink:href="_diagram_view_8h.html" target="_top" xlink:title=" ">
<polygon fill="white" stroke="#666666" points="415.38,-188 333.38,-188 333.38,-168 415.38,-168 415.38,-188"/>
<text xml:space="preserve" text-anchor="middle" x="374.38" y="-174.5" font-family="Helvetica,sans-Serif" font-size="10.00">DiagramView.h</text>
</a>
</g>
</g>
<!-- Node8&#45;&gt;Node31 -->
<g id="edge30_Node000008_Node000031" class="edge">
<title>Node8&#45;&gt;Node31</title>
<g id="a_edge30_Node000008_Node000031"><a xlink:title=" ">
<path fill="none" stroke="#63b8ff" d="M1990.09,-232.69C1775.54,-230.93 764.6,-221.03 427.02,-188.08"/>
<polygon fill="#63b8ff" stroke="#63b8ff" points="427.58,-184.62 417.28,-187.1 426.88,-191.58 427.58,-184.62"/>
</a>
</g>
</g>
<!-- Node36 -->
<g id="Node000036" class="node">
<title>Node36</title>
<g id="a_Node000036"><a xlink:href="_draggable_button_8h.html" target="_top" xlink:title=" ">
<polygon fill="white" stroke="#666666" points="2602.88,-188 2505.88,-188 2505.88,-168 2602.88,-168 2602.88,-188"/>
<text xml:space="preserve" text-anchor="middle" x="2554.38" y="-174.5" font-family="Helvetica,sans-Serif" font-size="10.00">DraggableButton.h</text>
</a>
</g>
</g>
<!-- Node8&#45;&gt;Node36 -->
<g id="edge36_Node000008_Node000036" class="edge">
<title>Node8&#45;&gt;Node36</title>
<g id="a_edge36_Node000008_Node000036"><a xlink:title=" ">
<path fill="none" stroke="#63b8ff" d="M2070.7,-225.28C2073.63,-224.81 2076.55,-224.38 2079.38,-224 2260.57,-199.61 2310.35,-210.12 2494.43,-188.28"/>
<polygon fill="#63b8ff" stroke="#63b8ff" points="2494.58,-191.79 2504.09,-187.12 2493.74,-184.84 2494.58,-191.79"/>
</a>
</g>
</g>
<!-- Node41 -->
<g id="Node000041" class="node">
<title>Node41</title>
<g id="a_Node000041"><a xlink:href="_diagram_scene_8h.html" target="_top" xlink:title=" ">
<polygon fill="white" stroke="#666666" points="2842.12,-188 2710.62,-188 2710.62,-168 2842.12,-168 2842.12,-188"/>
<text xml:space="preserve" text-anchor="middle" x="2776.38" y="-174.5" font-family="Helvetica,sans-Serif" font-size="10.00">controller/DiagramScene.h</text>
</a>
</g>
</g>
<!-- Node8&#45;&gt;Node41 -->
<g id="edge41_Node000008_Node000041" class="edge">
<title>Node8&#45;&gt;Node41</title>
<g id="a_edge41_Node000008_Node000041"><a xlink:title=" ">
<path fill="none" stroke="#63b8ff" d="M2070.69,-225.19C2073.62,-224.75 2076.54,-224.34 2079.38,-224 2346.34,-191.65 2415.27,-208.96 2683.38,-188 2688.56,-187.59 2693.91,-187.15 2699.29,-186.68"/>
<polygon fill="#63b8ff" stroke="#63b8ff" points="2699.2,-190.2 2708.85,-185.83 2698.58,-183.23 2699.2,-190.2"/>
</a>
</g>
</g>
<!-- Node42 -->
<g id="Node000042" class="node">
<title>Node42</title>
<g id="a_Node000042"><a xlink:href="_basic_element_8h.html" target="_top" xlink:title=" ">
<polygon fill="#fff0f0" stroke="red" points="2929.5,-76 2815.25,-76 2815.25,-56 2929.5,-56 2929.5,-76"/>
<text xml:space="preserve" text-anchor="middle" x="2872.38" y="-62.5" font-family="Helvetica,sans-Serif" font-size="10.00">model/BasicElement.h</text>
</a>
</g>
</g>
<!-- Node8&#45;&gt;Node42 -->
<g id="edge54_Node000008_Node000042" class="edge">
<title>Node8&#45;&gt;Node42</title>
<g id="a_edge54_Node000008_Node000042"><a xlink:title=" ">
<path fill="none" stroke="#63b8ff" d="M2070.69,-225.21C2073.63,-224.76 2076.54,-224.35 2079.38,-224 2202.25,-208.79 2520.4,-233.95 2635.38,-188 2684.31,-168.44 2680.07,-137.14 2726.38,-112 2753.73,-97.15 2786.67,-86.46 2814.35,-79.24"/>
<polygon fill="#63b8ff" stroke="#63b8ff" points="2815.14,-82.64 2823.99,-76.81 2813.43,-75.86 2815.14,-82.64"/>
</a>
</g>
</g>
<!-- Node52 -->
<g id="Node000052" class="node">
<title>Node52</title>
<g id="a_Node000052"><a xlink:href="_connection_line_8h.html" target="_top" xlink:title=" ">
<polygon fill="#fff0f0" stroke="red" points="2782.88,-76 2661.88,-76 2661.88,-56 2782.88,-56 2782.88,-76"/>
<text xml:space="preserve" text-anchor="middle" x="2722.38" y="-62.5" font-family="Helvetica,sans-Serif" font-size="10.00">model/ConnectionLine.h</text>
</a>
</g>
</g>
<!-- Node8&#45;&gt;Node52 -->
<g id="edge55_Node000008_Node000052" class="edge">
<title>Node8&#45;&gt;Node52</title>
<g id="a_edge55_Node000008_Node000052"><a xlink:title=" ">
<path fill="none" stroke="#63b8ff" d="M2070.7,-225.22C2073.63,-224.77 2076.54,-224.35 2079.38,-224 2138.27,-216.63 2562.14,-219.61 2612.38,-188 2645.22,-167.33 2629,-140.47 2655.38,-112 2666.34,-100.16 2681.01,-89.86 2693.82,-82.12"/>
<polygon fill="#63b8ff" stroke="#63b8ff" points="2695.38,-85.26 2702.28,-77.23 2691.87,-79.2 2695.38,-85.26"/>
</a>
</g>
</g>
<!-- Node31&#45;&gt;Node15 -->
<g id="edge31_Node000031_Node000015" class="edge">
<title>Node31&#45;&gt;Node15</title>
<g id="a_edge31_Node000031_Node000015"><a xlink:title=" ">
<path fill="none" stroke="#63b8ff" d="M415.79,-169.12C418.69,-168.7 421.57,-168.32 424.38,-168 740.55,-132.09 1120.04,-124.79 1281.03,-123.34"/>
<polygon fill="#63b8ff" stroke="#63b8ff" points="1280.76,-126.84 1290.73,-123.26 1280.7,-119.84 1280.76,-126.84"/>
</a>
</g>
</g>
<!-- Node32 -->
<g id="Node000032" class="node">
<title>Node32</title>
<g id="a_Node000032"><a xlink:title=" ">
<polygon fill="#e0e0e0" stroke="#999999" points="501.25,-132 379.5,-132 379.5,-112 501.25,-112 501.25,-132"/>
<text xml:space="preserve" text-anchor="middle" x="440.38" y="-118.5" font-family="Helvetica,sans-Serif" font-size="10.00">QtGui/QDragEnterEvent</text>
</a>
</g>
</g>
<!-- Node31&#45;&gt;Node32 -->
<g id="edge32_Node000031_Node000032" class="edge">
<title>Node31&#45;&gt;Node32</title>
<g id="a_edge32_Node000031_Node000032"><a xlink:title=" ">
<path fill="none" stroke="#63b8ff" d="M385.87,-167.59C395.34,-159.85 408.98,-148.69 420.25,-139.47"/>
<polygon fill="#63b8ff" stroke="#63b8ff" points="422.32,-142.3 427.84,-133.26 417.88,-136.88 422.32,-142.3"/>
</a>
</g>
</g>
<!-- Node33 -->
<g id="Node000033" class="node">
<title>Node33</title>
<g id="a_Node000033"><a xlink:title=" ">
<polygon fill="#e0e0e0" stroke="#999999" points="641.62,-132 519.12,-132 519.12,-112 641.62,-112 641.62,-132"/>
<text xml:space="preserve" text-anchor="middle" x="580.38" y="-118.5" font-family="Helvetica,sans-Serif" font-size="10.00">QtGui/QDragMoveEvent</text>
</a>
</g>
</g>
<!-- Node31&#45;&gt;Node33 -->
<g id="edge33_Node000031_Node000033" class="edge">
<title>Node31&#45;&gt;Node33</title>
<g id="a_edge33_Node000031_Node000033"><a xlink:title=" ">
<path fill="none" stroke="#63b8ff" d="M410.26,-167.59C444.31,-158.67 495.71,-145.19 533.09,-135.39"/>
<polygon fill="#63b8ff" stroke="#63b8ff" points="533.96,-138.78 542.75,-132.86 532.19,-132.01 533.96,-138.78"/>
</a>
</g>
</g>
<!-- Node34 -->
<g id="Node000034" class="node">
<title>Node34</title>
<g id="a_Node000034"><a xlink:title=" ">
<polygon fill="#e0e0e0" stroke="#999999" points="237.62,-132 139.12,-132 139.12,-112 237.62,-112 237.62,-132"/>
<text xml:space="preserve" text-anchor="middle" x="188.38" y="-118.5" font-family="Helvetica,sans-Serif" font-size="10.00">QtGui/QDropEvent</text>
</a>
</g>
</g>
<!-- Node31&#45;&gt;Node34 -->
<g id="edge34_Node000031_Node000034" class="edge">
<title>Node31&#45;&gt;Node34</title>
<g id="a_edge34_Node000031_Node000034"><a xlink:title=" ">
<path fill="none" stroke="#63b8ff" d="M341.98,-167.59C311.49,-158.74 265.62,-145.43 231.94,-135.65"/>
<polygon fill="#63b8ff" stroke="#63b8ff" points="233.06,-132.33 222.48,-132.9 231.11,-139.05 233.06,-132.33"/>
</a>
</g>
</g>
<!-- Node35 -->
<g id="Node000035" class="node">
<title>Node35</title>
<g id="a_Node000035"><a xlink:title=" ">
<polygon fill="#e0e0e0" stroke="#999999" points="361,-132 255.75,-132 255.75,-112 361,-112 361,-132"/>
<text xml:space="preserve" text-anchor="middle" x="308.38" y="-118.5" font-family="Helvetica,sans-Serif" font-size="10.00">QtGui/QWheelEvent</text>
</a>
</g>
</g>
<!-- Node31&#45;&gt;Node35 -->
<g id="edge35_Node000031_Node000035" class="edge">
<title>Node31&#45;&gt;Node35</title>
<g id="a_edge35_Node000031_Node000035"><a xlink:title=" ">
<path fill="none" stroke="#63b8ff" d="M362.88,-167.59C353.41,-159.85 339.77,-148.69 328.5,-139.47"/>
<polygon fill="#63b8ff" stroke="#63b8ff" points="330.87,-136.88 320.91,-133.26 326.43,-142.3 330.87,-136.88"/>
</a>
</g>
</g>
<!-- Node37 -->
<g id="Node000037" class="node">
<title>Node37</title>
<g id="a_Node000037"><a xlink:title=" ">
<polygon fill="#e0e0e0" stroke="#999999" points="2387.88,-132 2284.88,-132 2284.88,-112 2387.88,-112 2387.88,-132"/>
<text xml:space="preserve" text-anchor="middle" x="2336.38" y="-118.5" font-family="Helvetica,sans-Serif" font-size="10.00">QtCore/QMimeData</text>
</a>
</g>
</g>
<!-- Node36&#45;&gt;Node37 -->
<g id="edge37_Node000036_Node000037" class="edge">
<title>Node36&#45;&gt;Node37</title>
<g id="a_edge37_Node000036_Node000037"><a xlink:title=" ">
<path fill="none" stroke="#63b8ff" d="M2516.15,-167.53C2479.84,-158.54 2425.07,-144.97 2385.53,-135.18"/>
<polygon fill="#63b8ff" stroke="#63b8ff" points="2386.57,-131.83 2376.02,-132.82 2384.89,-138.62 2386.57,-131.83"/>
</a>
</g>
</g>
<!-- Node38 -->
<g id="Node000038" class="node">
<title>Node38</title>
<g id="a_Node000038"><a xlink:title=" ">
<polygon fill="#e0e0e0" stroke="#999999" points="2478.88,-132 2405.88,-132 2405.88,-112 2478.88,-112 2478.88,-132"/>
<text xml:space="preserve" text-anchor="middle" x="2442.38" y="-118.5" font-family="Helvetica,sans-Serif" font-size="10.00">QtGui/QDrag</text>
</a>
</g>
</g>
<!-- Node36&#45;&gt;Node38 -->
<g id="edge38_Node000036_Node000038" class="edge">
<title>Node36&#45;&gt;Node38</title>
<g id="a_edge38_Node000036_Node000038"><a xlink:title=" ">
<path fill="none" stroke="#63b8ff" d="M2534.87,-167.59C2517.63,-159.28 2492.22,-147.03 2472.39,-137.47"/>
<polygon fill="#63b8ff" stroke="#63b8ff" points="2473.93,-134.33 2463.4,-133.14 2470.89,-140.63 2473.93,-134.33"/>
</a>
</g>
</g>
<!-- Node39 -->
<g id="Node000039" class="node">
<title>Node39</title>
<g id="a_Node000039"><a xlink:title=" ">
<polygon fill="#e0e0e0" stroke="#999999" points="2603.75,-132 2497,-132 2497,-112 2603.75,-112 2603.75,-132"/>
<text xml:space="preserve" text-anchor="middle" x="2550.38" y="-118.5" font-family="Helvetica,sans-Serif" font-size="10.00">QtGui/QMouseEvent</text>
</a>
</g>
</g>
<!-- Node36&#45;&gt;Node39 -->
<g id="edge39_Node000036_Node000039" class="edge">
<title>Node36&#45;&gt;Node39</title>
<g id="a_edge39_Node000036_Node000039"><a xlink:title=" ">
<path fill="none" stroke="#63b8ff" d="M2553.68,-167.59C2553.19,-161.01 2552.52,-151.96 2551.91,-143.73"/>
<polygon fill="#63b8ff" stroke="#63b8ff" points="2555.4,-143.52 2551.18,-133.81 2548.42,-144.04 2555.4,-143.52"/>
</a>
</g>
</g>
<!-- Node40 -->
<g id="Node000040" class="node">
<title>Node40</title>
<g id="a_Node000040"><a xlink:title=" ">
<polygon fill="#e0e0e0" stroke="#999999" points="2266.38,-132 2142.38,-132 2142.38,-112 2266.38,-112 2266.38,-132"/>
<text xml:space="preserve" text-anchor="middle" x="2204.38" y="-118.5" font-family="Helvetica,sans-Serif" font-size="10.00">QtWidgets/QPushButton</text>
</a>
</g>
</g>
<!-- Node36&#45;&gt;Node40 -->
<g id="edge40_Node000036_Node000040" class="edge">
<title>Node36&#45;&gt;Node40</title>
<g id="a_edge40_Node000036_Node000040"><a xlink:title=" ">
<path fill="none" stroke="#63b8ff" d="M2505.56,-169.28C2502.79,-168.84 2500.05,-168.42 2497.38,-168 2422.61,-156.36 2337.08,-143.24 2277.81,-134.19"/>
<polygon fill="#63b8ff" stroke="#63b8ff" points="2278.6,-130.77 2268.18,-132.72 2277.54,-137.69 2278.6,-130.77"/>
</a>
</g>
</g>
<!-- Node41&#45;&gt;Node10 -->
<g id="edge42_Node000041_Node000010" class="edge">
<title>Node41&#45;&gt;Node10</title>
<g id="a_edge42_Node000041_Node000010"><a xlink:title=" ">
<path fill="none" stroke="#63b8ff" d="M2842.51,-168.45C2932.79,-156.65 3084.01,-136.31 3088.38,-132 3115.02,-105.69 3114,-58.31 3110.76,-31.31"/>
<polygon fill="#63b8ff" stroke="#63b8ff" points="3114.27,-31.07 3109.38,-21.67 3107.34,-32.07 3114.27,-31.07"/>
</a>
</g>
</g>
<!-- Node41&#45;&gt;Node14 -->
<g id="edge43_Node000041_Node000014" class="edge">
<title>Node41&#45;&gt;Node14</title>
<g id="a_edge43_Node000041_Node000014"><a xlink:title=" ">
<path fill="none" stroke="#63b8ff" d="M2842.47,-168.68C2918.23,-159.14 3042.44,-143.51 3124.06,-133.24"/>
<polygon fill="#63b8ff" stroke="#63b8ff" points="3124.3,-136.73 3133.79,-132.01 3123.43,-129.79 3124.3,-136.73"/>
</a>
</g>
</g>
<!-- Node41&#45;&gt;Node42 -->
<g id="edge44_Node000041_Node000042" class="edge">
<title>Node41&#45;&gt;Node42</title>
<g id="a_edge44_Node000041_Node000042"><a xlink:title=" ">
<path fill="none" stroke="#63b8ff" d="M2829.19,-167.5C2849.35,-161.03 2870.35,-150.17 2882.38,-132 2891.24,-118.61 2887.34,-100.32 2882.04,-86.55"/>
<polygon fill="#63b8ff" stroke="#63b8ff" points="2885.34,-85.37 2878.11,-77.64 2878.94,-88.2 2885.34,-85.37"/>
</a>
</g>
</g>
<!-- Node41&#45;&gt;Node52 -->
<g id="edge48_Node000041_Node000052" class="edge">
<title>Node41&#45;&gt;Node52</title>
<g id="a_edge48_Node000041_Node000052"><a xlink:title=" ">
<path fill="none" stroke="#63b8ff" d="M2760.72,-167.72C2749.01,-159.83 2733.79,-147.36 2726.38,-132 2719.75,-118.27 2718.99,-100.96 2719.76,-87.66"/>
<polygon fill="#63b8ff" stroke="#63b8ff" points="2723.23,-88.17 2720.68,-77.88 2716.26,-87.51 2723.23,-88.17"/>
</a>
</g>
</g>
<!-- Node54 -->
<g id="Node000054" class="node">
<title>Node54</title>
<g id="a_Node000054"><a xlink:href="_element_graphics_item_8h.html" target="_top" xlink:title=" ">
<polygon fill="#fff0f0" stroke="red" points="3079.5,-132 2929.25,-132 2929.25,-112 3079.5,-112 3079.5,-132"/>
<text xml:space="preserve" text-anchor="middle" x="3004.38" y="-118.5" font-family="Helvetica,sans-Serif" font-size="10.00">viewer/ElementGraphicsItem.h</text>
</a>
</g>
</g>
<!-- Node41&#45;&gt;Node54 -->
<g id="edge51_Node000041_Node000054" class="edge">
<title>Node41&#45;&gt;Node54</title>
<g id="a_edge51_Node000041_Node000054"><a xlink:title=" ">
<path fill="none" stroke="#63b8ff" d="M2816.35,-167.53C2854.49,-158.5 2912.1,-144.85 2953.5,-135.05"/>
<polygon fill="#63b8ff" stroke="#63b8ff" points="2954.05,-138.52 2962.97,-132.81 2952.44,-131.7 2954.05,-138.52"/>
</a>
</g>
</g>
<!-- Node59 -->
<g id="Node000059" class="node">
<title>Node59</title>
<g id="a_Node000059"><a xlink:href="_bezier_control_point_8h.html" target="_top" xlink:title=" ">
<polygon fill="#fff0f0" stroke="red" points="2873.12,-132 2735.62,-132 2735.62,-112 2873.12,-112 2873.12,-132"/>
<text xml:space="preserve" text-anchor="middle" x="2804.38" y="-118.5" font-family="Helvetica,sans-Serif" font-size="10.00">viewer/BezierControlPoint.h</text>
</a>
</g>
</g>
<!-- Node41&#45;&gt;Node59 -->
<g id="edge53_Node000041_Node000059" class="edge">
<title>Node41&#45;&gt;Node59</title>
<g id="a_edge53_Node000041_Node000059"><a xlink:title=" ">
<path fill="none" stroke="#63b8ff" d="M2781.25,-167.59C2784.87,-160.63 2789.92,-150.89 2794.37,-142.29"/>
<polygon fill="#63b8ff" stroke="#63b8ff" points="2797.36,-144.13 2798.86,-133.64 2791.15,-140.91 2797.36,-144.13"/>
</a>
</g>
</g>
<!-- Node42&#45;&gt;Node10 -->
<g id="edge45_Node000042_Node000010" class="edge">
<title>Node42&#45;&gt;Node10</title>
<g id="a_edge45_Node000042_Node000010"><a xlink:title=" ">
<path fill="none" stroke="#63b8ff" d="M2913.58,-55.53C2953.09,-46.45 3012.89,-32.71 3055.6,-22.9"/>
<polygon fill="#63b8ff" stroke="#63b8ff" points="3056.18,-26.36 3065.14,-20.71 3054.61,-19.53 3056.18,-26.36"/>
</a>
</g>
</g>
<!-- Node43 -->
<g id="Node000043" class="node">
<title>Node43</title>
<g id="a_Node000043"><a xlink:title=" ">
<polygon fill="#e0e0e0" stroke="#999999" points="2900.62,-20 2814.12,-20 2814.12,0 2900.62,0 2900.62,-20"/>
<text xml:space="preserve" text-anchor="middle" x="2857.38" y="-6.5" font-family="Helvetica,sans-Serif" font-size="10.00">QtCore/QObject</text>
</a>
</g>
</g>
<!-- Node42&#45;&gt;Node43 -->
<g id="edge46_Node000042_Node000043" class="edge">
<title>Node42&#45;&gt;Node43</title>
<g id="a_edge46_Node000042_Node000043"><a xlink:title=" ">
<path fill="none" stroke="#63b8ff" d="M2869.76,-55.59C2867.89,-48.86 2865.3,-39.53 2862.97,-31.15"/>
<polygon fill="#63b8ff" stroke="#63b8ff" points="2866.41,-30.46 2860.36,-21.76 2859.67,-32.33 2866.41,-30.46"/>
</a>
</g>
</g>
<!-- Node44 -->
<g id="Node000044" class="node">
<title>Node44</title>
<g id="a_Node000044"><a xlink:title=" ">
<polygon fill="#e0e0e0" stroke="#999999" points="2787.62,-20 2701.12,-20 2701.12,0 2787.62,0 2787.62,-20"/>
<text xml:space="preserve" text-anchor="middle" x="2744.38" y="-6.5" font-family="Helvetica,sans-Serif" font-size="10.00">QtCore/QPointF</text>
</a>
</g>
</g>
<!-- Node42&#45;&gt;Node44 -->
<g id="edge47_Node000042_Node000044" class="edge">
<title>Node42&#45;&gt;Node44</title>
<g id="a_edge47_Node000042_Node000044"><a xlink:title=" ">
<path fill="none" stroke="#63b8ff" d="M2850.08,-55.59C2830.01,-47.13 2800.26,-34.58 2777.42,-24.94"/>
<polygon fill="#63b8ff" stroke="#63b8ff" points="2778.81,-21.73 2768.24,-21.07 2776.09,-28.18 2778.81,-21.73"/>
</a>
</g>
</g>
<!-- Node52&#45;&gt;Node43 -->
<g id="edge49_Node000052_Node000043" class="edge">
<title>Node52&#45;&gt;Node43</title>
<g id="a_edge49_Node000052_Node000043"><a xlink:title=" ">
<path fill="none" stroke="#63b8ff" d="M2745.89,-55.59C2767.25,-47.05 2799.01,-34.35 2823.17,-24.68"/>
<polygon fill="#63b8ff" stroke="#63b8ff" points="2824.29,-28.01 2832.27,-21.04 2821.69,-21.51 2824.29,-28.01"/>
</a>
</g>
</g>
<!-- Node52&#45;&gt;Node44 -->
<g id="edge50_Node000052_Node000044" class="edge">
<title>Node52&#45;&gt;Node44</title>
<g id="a_edge50_Node000052_Node000044"><a xlink:title=" ">
<path fill="none" stroke="#63b8ff" d="M2726.21,-55.59C2728.98,-48.78 2732.84,-39.32 2736.28,-30.86"/>
<polygon fill="#63b8ff" stroke="#63b8ff" points="2739.48,-32.28 2740.02,-21.7 2733,-29.64 2739.48,-32.28"/>
</a>
</g>
</g>
<!-- Node54&#45;&gt;Node42 -->
<g id="edge52_Node000054_Node000042" class="edge">
<title>Node54&#45;&gt;Node42</title>
<g id="a_edge52_Node000054_Node000042"><a xlink:title=" ">
<path fill="none" stroke="#63b8ff" d="M2981.38,-111.59C2960.59,-103.09 2929.72,-90.46 2906.14,-80.81"/>
<polygon fill="#63b8ff" stroke="#63b8ff" points="2907.53,-77.6 2896.95,-77.05 2904.88,-84.08 2907.53,-77.6"/>
</a>
</g>
</g>
</g>
</svg>

<g id="navigator" transform="translate(0 0)" fill="#404254">
  <rect fill="#f2f5e9" fill-opacity="0.5" stroke="#606060" stroke-width=".5" x="0" y="0" width="60" height="60"/>
  <use id="zoomplus" xlink:href="#zoomPlus" x="17" y="9" onmousedown="handleZoom(evt,'in')"/>
  <use id="zoomminus" xlink:href="#zoomMin" x="42" y="9" onmousedown="handleZoom(evt,'out')"/>
  <use id="reset" xlink:href="#resetDef" x="30" y="36" onmousedown="handleReset()"/>
   <use id="arrowup" xlink:href="#arrowUp" x="0" y="0" onmousedown="handlePan(0,-1)"/>
  <use id="arrowright" xlink:href="#arrowRight" x="0" y="0" onmousedown="handlePan(1,0)"/>
  <use id="arrowdown" xlink:href="#arrowDown" x="0" y="0" onmousedown="handlePan(0,1)"/>
  <use id="arrowleft" xlink:href="#arrowLeft" x="0" y="0" onmousedown="handlePan(-1,0)"/>
</g>
<svg viewBox="0 0 15 15" width="100%" height="30px" preserveAspectRatio="xMaxYMin meet">
 <g id="arrow_out" transform="scale(0.3 0.3)">
  <a xlink:href="_quick_acess_tool_bar_8cpp__incl_org.svg" target="_base">
   <rect id="button" ry="5" rx="5" y="6" x="6" height="38" width="38"
        fill="#f2f5e9" fill-opacity="0.5" stroke="#606060" stroke-width="1.0"/>
   <path id="arrow"
     d="M 11.500037,31.436501 C 11.940474,20.09759 22.043105,11.32322 32.158766,21.979434 L 37.068811,17.246167 C 37.068811,17.246167 37.088388,32 37.088388,32 L 22.160133,31.978069 C 22.160133,31.978069 26.997745,27.140456 26.997745,27.140456 C 18.528582,18.264221 13.291696,25.230495 11.500037,31.436501 z"
     style="fill:#404040;"/>
  </a>
 </g>
</svg>

<style type='text/css'>
<![CDATA[
[data-mouse-over-selected='false'] { opacity: 0.7; }
[data-mouse-over-selected='true']  { opacity: 1.0; }
]]>
</style>
<script type="application/ecmascript"><![CDATA[
document.addEventListener('DOMContentLoaded', (event) => {
  highlightEdges();
  highlightAdjacentNodes();
});
]]></script>
</svg>
