<?xml version="1.0" encoding="UTF-8" standalone="no"?>
<!DOCTYPE svg PUBLIC "-//W3C//DTD SVG 1.1//EN"
 "http://www.w3.org/Graphics/SVG/1.1/DTD/svg11.dtd">
<!-- Generated by graphviz version 14.1.1 (20251213.1925)
 -->
<!-- Title: src/model/RelationshipEnd.h Pages: 1 -->
<!--zoomable 164 -->

<svg id="main" version="1.1" xmlns="http://www.w3.org/2000/svg" xmlns:xlink="http://www.w3.org/1999/xlink" xml:space="preserve" onload="init(evt)">

<style type="text/css"><![CDATA[
.node, .edge {opacity: 0.7;}
.node.selected, .edge.selected {opacity: 1;}
.edge:hover path { stroke: red; }
.edge:hover polygon { stroke: red; fill: red; }
]]></style>

<defs>
  <circle id="rim" cx="0" cy="0" r="7"/>
  <circle id="rim2" cx="0" cy="0" r="3.5"/>
  <g id="zoomPlus">
    <use xlink:href="#rim" fill="#404040"><set attributeName="fill" to="#808080" begin="zoomplus.mouseover" end="zoomplus.mouseout"/></use>
    <path d="M-4,0h8M0,-4v8" fill="none" stroke="white" stroke-width="1.5" pointer-events="none"/>
  </g>
  <g id="zoomMin">
    <use xlink:href="#rim" fill="#404040"><set attributeName="fill" to="#808080" begin="zoomminus.mouseover" end="zoomminus.mouseout"/></use>
    <path d="M-4,0h8" fill="none" stroke="white" stroke-width="1.5" pointer-events="none"/>
  </g>
  <g id="arrowUp" transform="translate(30 24)">
    <use xlink:href="#rim"/>
    <path pointer-events="none" fill="none" stroke="white" stroke-width="1.5" d="M0,-3.0v7 M-2.5,-0.5L0,-3.0L2.5,-0.5"/>
  </g>
  <g id="arrowRight" transform="rotate(90) translate(36 -43)">
    <use xlink:href="#rim"/>
    <path pointer-events="none" fill="none" stroke="white" stroke-width="1.5" d="M0,-3.0v7 M-2.5,-0.5L0,-3.0L2.5,-0.5"/>
  </g>
  <g id="arrowDown" transform="rotate(180) translate(-30 -48)">
    <use xlink:href="#rim"/>
    <path pointer-events="none" fill="none" stroke="white" stroke-width="1.5" d="M0,-3.0v7 M-2.5,-0.5L0,-3.0L2.5,-0.5"/>
  </g>
  <g id="arrowLeft" transform="rotate(270) translate(-36 17)">
    <use xlink:href="#rim"/>
    <path pointer-events="none" fill="none" stroke="white" stroke-width="1.5" d="M0,-3.0v7 M-2.5,-0.5L0,-3.0L2.5,-0.5"/>
  </g>
  <g id="resetDef">
    <use xlink:href="#rim2" fill="#404040"><set attributeName="fill" to="#808080" begin="reset.mouseover" end="reset.mouseout"/></use>
  </g>
</defs>
<script type="application/ecmascript">
var viewWidth = 1186;
var viewHeight = 164;
var sectionId = 'dynsection-1';
</script>
<script type="application/ecmascript" xlink:href="svg.min.js"/>
<svg id="graph" class="graph">
<g id="viewport">
<title>src/model/RelationshipEnd.h</title>
<!-- Node1 -->
<g id="Node000001" class="node">
<title>Node1</title>
<g id="a_Node000001"><a xlink:title=" ">
<polygon fill="#999999" stroke="#666666" points="755.38,-156 614.12,-156 614.12,-136 755.38,-136 755.38,-156"/>
<text xml:space="preserve" text-anchor="middle" x="684.75" y="-142.5" font-family="Helvetica,sans-Serif" font-size="10.00">src/model/RelationshipEnd.h</text>
</a>
</g>
</g>
<!-- Node2 -->
<g id="Node000002" class="node">
<title>Node2</title>
<g id="a_Node000002"><a xlink:href="_relationship_8h.html" target="_top" xlink:title=" ">
<polygon fill="white" stroke="#666666" points="746.75,-94 622.75,-94 622.75,-74 746.75,-74 746.75,-94"/>
<text xml:space="preserve" text-anchor="middle" x="684.75" y="-80.5" font-family="Helvetica,sans-Serif" font-size="10.00">src/model/Relationship.h</text>
</a>
</g>
</g>
<!-- Node1&#45;&gt;Node2 -->
<g id="edge1_Node000001_Node000002" class="edge">
<title>Node1&#45;&gt;Node2</title>
<g id="a_edge1_Node000001_Node000002"><a xlink:title=" ">
<path fill="none" stroke="#63b8ff" d="M684.75,-124.25C684.75,-113.97 684.75,-102.09 684.75,-94.11"/>
<polygon fill="#63b8ff" stroke="#63b8ff" points="681.25,-124.11 684.75,-134.11 688.25,-124.11 681.25,-124.11"/>
</a>
</g>
</g>
<!-- Node8 -->
<g id="Node000008" class="node">
<title>Node8</title>
<g id="a_Node000008"><a xlink:href="_relationship_connection_line_8h.html" target="_top" xlink:title=" ">
<polygon fill="white" stroke="#666666" points="520.38,-100 355.12,-100 355.12,-68 520.38,-68 520.38,-100"/>
<text xml:space="preserve" text-anchor="start" x="363.12" y="-86.5" font-family="Helvetica,sans-Serif" font-size="10.00">src/model/RelationshipConnection</text>
<text xml:space="preserve" text-anchor="middle" x="437.75" y="-74.5" font-family="Helvetica,sans-Serif" font-size="10.00">Line.h</text>
</a>
</g>
</g>
<!-- Node1&#45;&gt;Node8 -->
<g id="edge7_Node000001_Node000008" class="edge">
<title>Node1&#45;&gt;Node8</title>
<g id="a_edge7_Node000001_Node000008"><a xlink:title=" ">
<path fill="none" stroke="#63b8ff" d="M634.96,-132.9C596.48,-123.56 542.96,-110.56 501.38,-100.46"/>
<polygon fill="#63b8ff" stroke="#63b8ff" points="633.87,-136.24 644.41,-135.2 635.52,-129.44 633.87,-136.24"/>
</a>
</g>
</g>
<!-- Node11 -->
<g id="Node000011" class="node">
<title>Node11</title>
<g id="a_Node000011"><a xlink:href="_relationship_end_8cpp.html" target="_top" xlink:title=" ">
<polygon fill="white" stroke="#666666" points="916.62,-94 764.88,-94 764.88,-74 916.62,-74 916.62,-94"/>
<text xml:space="preserve" text-anchor="middle" x="840.75" y="-80.5" font-family="Helvetica,sans-Serif" font-size="10.00">src/model/RelationshipEnd.cpp</text>
</a>
</g>
</g>
<!-- Node1&#45;&gt;Node11 -->
<g id="edge12_Node000001_Node000011" class="edge">
<title>Node1&#45;&gt;Node11</title>
<g id="a_edge12_Node000001_Node000011"><a xlink:title=" ">
<path fill="none" stroke="#63b8ff" d="M719.75,-131.54C749.13,-120.24 790.34,-104.39 816.29,-94.41"/>
<polygon fill="#63b8ff" stroke="#63b8ff" points="718.61,-128.23 710.54,-135.08 721.13,-134.76 718.61,-128.23"/>
</a>
</g>
</g>
<!-- Node3 -->
<g id="Node000003" class="node">
<title>Node3</title>
<g id="a_Node000003"><a xlink:href="_diagram_scene_8cpp.html" target="_top" xlink:title=" ">
<polygon fill="white" stroke="#666666" points="683,-26 524.5,-26 524.5,-6 683,-6 683,-26"/>
<text xml:space="preserve" text-anchor="middle" x="603.75" y="-12.5" font-family="Helvetica,sans-Serif" font-size="10.00">src/controller/DiagramScene.cpp</text>
</a>
</g>
</g>
<!-- Node2&#45;&gt;Node3 -->
<g id="edge2_Node000002_Node000003" class="edge">
<title>Node2&#45;&gt;Node3</title>
<g id="a_edge2_Node000002_Node000003"><a xlink:title=" ">
<path fill="none" stroke="#63b8ff" d="M664.29,-66.33C648.8,-53.71 628.08,-36.82 615.33,-26.44"/>
<polygon fill="#63b8ff" stroke="#63b8ff" points="662.01,-68.98 671.97,-72.59 666.43,-63.56 662.01,-68.98"/>
</a>
</g>
</g>
<!-- Node4 -->
<g id="Node000004" class="node">
<title>Node4</title>
<g id="a_Node000004"><a xlink:href="_json_helper_8cpp.html" target="_top" xlink:title=" ">
<polygon fill="white" stroke="#666666" points="830.75,-26 700.75,-26 700.75,-6 830.75,-6 830.75,-26"/>
<text xml:space="preserve" text-anchor="middle" x="765.75" y="-12.5" font-family="Helvetica,sans-Serif" font-size="10.00">src/model/JsonHelper.cpp</text>
</a>
</g>
</g>
<!-- Node2&#45;&gt;Node4 -->
<g id="edge3_Node000002_Node000004" class="edge">
<title>Node2&#45;&gt;Node4</title>
<g id="a_edge3_Node000002_Node000004"><a xlink:title=" ">
<path fill="none" stroke="#63b8ff" d="M705.21,-66.33C720.7,-53.71 741.42,-36.82 754.17,-26.44"/>
<polygon fill="#63b8ff" stroke="#63b8ff" points="703.07,-63.56 697.53,-72.59 707.49,-68.98 703.07,-63.56"/>
</a>
</g>
</g>
<!-- Node5 -->
<g id="Node000005" class="node">
<title>Node5</title>
<g id="a_Node000005"><a xlink:href="_relationship_8cpp.html" target="_top" xlink:title=" ">
<polygon fill="white" stroke="#666666" points="983,-26 848.5,-26 848.5,-6 983,-6 983,-26"/>
<text xml:space="preserve" text-anchor="middle" x="915.75" y="-12.5" font-family="Helvetica,sans-Serif" font-size="10.00">src/model/Relationship.cpp</text>
</a>
</g>
</g>
<!-- Node2&#45;&gt;Node5 -->
<g id="edge4_Node000002_Node000005" class="edge">
<title>Node2&#45;&gt;Node5</title>
<g id="a_edge4_Node000002_Node000005"><a xlink:title=" ">
<path fill="none" stroke="#63b8ff" d="M728.71,-70.44C773.6,-57.61 842.26,-38 882.71,-26.44"/>
<polygon fill="#63b8ff" stroke="#63b8ff" points="727.96,-67.02 719.3,-73.13 729.88,-73.75 727.96,-67.02"/>
</a>
</g>
</g>
<!-- Node6 -->
<g id="Node000006" class="node">
<title>Node6</title>
<g id="a_Node000006"><a xlink:href="_main_window_8cpp.html" target="_top" xlink:title=" ">
<polygon fill="white" stroke="#666666" points="506.88,-26 368.62,-26 368.62,-6 506.88,-6 506.88,-26"/>
<text xml:space="preserve" text-anchor="middle" x="437.75" y="-12.5" font-family="Helvetica,sans-Serif" font-size="10.00">src/viewer/MainWindow.cpp</text>
</a>
</g>
</g>
<!-- Node2&#45;&gt;Node6 -->
<g id="edge5_Node000002_Node000006" class="edge">
<title>Node2&#45;&gt;Node6</title>
<g id="a_edge5_Node000002_Node000006"><a xlink:title=" ">
<path fill="none" stroke="#63b8ff" d="M638.35,-70.6C590.37,-57.78 516.51,-38.05 473.07,-26.44"/>
<polygon fill="#63b8ff" stroke="#63b8ff" points="637.33,-73.95 647.9,-73.15 639.14,-67.19 637.33,-73.95"/>
</a>
</g>
</g>
<!-- Node7 -->
<g id="Node000007" class="node">
<title>Node7</title>
<g id="a_Node000007"><a xlink:href="_relationship_renderer_8cpp.html" target="_top" xlink:title=" ">
<polygon fill="white" stroke="#666666" points="1178,-26 1001.5,-26 1001.5,-6 1178,-6 1178,-26"/>
<text xml:space="preserve" text-anchor="middle" x="1089.75" y="-12.5" font-family="Helvetica,sans-Serif" font-size="10.00">src/viewer/RelationshipRenderer.cpp</text>
</a>
</g>
</g>
<!-- Node2&#45;&gt;Node7 -->
<g id="edge6_Node000002_Node000007" class="edge">
<title>Node2&#45;&gt;Node7</title>
<g id="a_edge6_Node000002_Node000007"><a xlink:title=" ">
<path fill="none" stroke="#63b8ff" d="M738.54,-71.3C744.34,-70.14 750.16,-69.02 755.75,-68 860.14,-49.03 886.87,-48.03 991.75,-32 1003.4,-30.22 1015.84,-28.32 1027.8,-26.49"/>
<polygon fill="#63b8ff" stroke="#63b8ff" points="738.05,-67.83 728.96,-73.26 739.46,-74.69 738.05,-67.83"/>
</a>
</g>
</g>
<!-- Node8&#45;&gt;Node3 -->
<g id="edge8_Node000008_Node000003" class="edge">
<title>Node8&#45;&gt;Node3</title>
<g id="a_edge8_Node000008_Node000003"><a xlink:title=" ">
<path fill="none" stroke="#63b8ff" d="M487.17,-63.35C517.83,-51.16 555.85,-36.05 579.96,-26.46"/>
<polygon fill="#63b8ff" stroke="#63b8ff" points="486.08,-60.02 478.08,-66.97 488.66,-66.52 486.08,-60.02"/>
</a>
</g>
</g>
<!-- Node8&#45;&gt;Node6 -->
<g id="edge10_Node000008_Node000006" class="edge">
<title>Node8&#45;&gt;Node6</title>
<g id="a_edge10_Node000008_Node000006"><a xlink:title=" ">
<path fill="none" stroke="#63b8ff" d="M437.75,-56.31C437.75,-45.67 437.75,-34.13 437.75,-26.32"/>
<polygon fill="#63b8ff" stroke="#63b8ff" points="434.25,-56.18 437.75,-66.18 441.25,-56.18 434.25,-56.18"/>
</a>
</g>
</g>
<!-- Node9 -->
<g id="Node000009" class="node">
<title>Node9</title>
<g id="a_Node000009"><a xlink:href="_relationship_connection_line_8cpp.html" target="_top" xlink:title=" ">
<polygon fill="white" stroke="#666666" points="350.38,-32 185.12,-32 185.12,0 350.38,0 350.38,-32"/>
<text xml:space="preserve" text-anchor="start" x="193.12" y="-18.5" font-family="Helvetica,sans-Serif" font-size="10.00">src/model/RelationshipConnection</text>
<text xml:space="preserve" text-anchor="middle" x="267.75" y="-6.5" font-family="Helvetica,sans-Serif" font-size="10.00">Line.cpp</text>
</a>
</g>
</g>
<!-- Node8&#45;&gt;Node9 -->
<g id="edge9_Node000008_Node000009" class="edge">
<title>Node8&#45;&gt;Node9</title>
<g id="a_edge9_Node000008_Node000009"><a xlink:title=" ">
<path fill="none" stroke="#63b8ff" d="M387.33,-63.42C361.88,-53.54 331.45,-41.73 307.65,-32.49"/>
<polygon fill="#63b8ff" stroke="#63b8ff" points="385.89,-66.62 396.48,-66.98 388.43,-60.1 385.89,-66.62"/>
</a>
</g>
</g>
<!-- Node10 -->
<g id="Node000010" class="node">
<title>Node10</title>
<g id="a_Node000010"><a xlink:href="_relationship_connection_line_graphics_item_8cpp.html" target="_top" xlink:title=" ">
<polygon fill="white" stroke="#666666" points="167.5,-32 0,-32 0,0 167.5,0 167.5,-32"/>
<text xml:space="preserve" text-anchor="start" x="8" y="-18.5" font-family="Helvetica,sans-Serif" font-size="10.00">src/viewer/RelationshipConnection</text>
<text xml:space="preserve" text-anchor="middle" x="83.75" y="-6.5" font-family="Helvetica,sans-Serif" font-size="10.00">LineGraphicsItem.cpp</text>
</a>
</g>
</g>
<!-- Node8&#45;&gt;Node10 -->
<g id="edge11_Node000008_Node000010" class="edge">
<title>Node8&#45;&gt;Node10</title>
<g id="a_edge11_Node000008_Node000010"><a xlink:title=" ">
<path fill="none" stroke="#63b8ff" d="M343.59,-65.45C288.59,-55.19 219.82,-42.37 166.84,-32.49"/>
<polygon fill="#63b8ff" stroke="#63b8ff" points="342.79,-68.86 353.26,-67.25 344.08,-61.97 342.79,-68.86"/>
</a>
</g>
</g>
</g>
</svg>

<g id="navigator" transform="translate(0 0)" fill="#404254">
  <rect fill="#f2f5e9" fill-opacity="0.5" stroke="#606060" stroke-width=".5" x="0" y="0" width="60" height="60"/>
  <use id="zoomplus" xlink:href="#zoomPlus" x="17" y="9" onmousedown="handleZoom(evt,'in')"/>
  <use id="zoomminus" xlink:href="#zoomMin" x="42" y="9" onmousedown="handleZoom(evt,'out')"/>
  <use id="reset" xlink:href="#resetDef" x="30" y="36" onmousedown="handleReset()"/>
   <use id="arrowup" xlink:href="#arrowUp" x="0" y="0" onmousedown="handlePan(0,-1)"/>
  <use id="arrowright" xlink:href="#arrowRight" x="0" y="0" onmousedown="handlePan(1,0)"/>
  <use id="arrowdown" xlink:href="#arrowDown" x="0" y="0" onmousedown="handlePan(0,1)"/>
  <use id="arrowleft" xlink:href="#arrowLeft" x="0" y="0" onmousedown="handlePan(-1,0)"/>
</g>
<svg viewBox="0 0 15 15" width="100%" height="30px" preserveAspectRatio="xMaxYMin meet">
 <g id="arrow_out" transform="scale(0.3 0.3)">
  <a xlink:href="_relationship_end_8h__dep__incl_org.svg" target="_base">
   <rect id="button" ry="5" rx="5" y="6" x="6" height="38" width="38"
        fill="#f2f5e9" fill-opacity="0.5" stroke="#606060" stroke-width="1.0"/>
   <path id="arrow"
     d="M 11.500037,31.436501 C 11.940474,20.09759 22.043105,11.32322 32.158766,21.979434 L 37.068811,17.246167 C 37.068811,17.246167 37.088388,32 37.088388,32 L 22.160133,31.978069 C 22.160133,31.978069 26.997745,27.140456 26.997745,27.140456 C 18.528582,18.264221 13.291696,25.230495 11.500037,31.436501 z"
     style="fill:#404040;"/>
  </a>
 </g>
</svg>

<style type='text/css'>
<![CDATA[
[data-mouse-over-selected='false'] { opacity: 0.7; }
[data-mouse-over-selected='true']  { opacity: 1.0; }
]]>
</style>
<script type="application/ecmascript"><![CDATA[
document.addEventListener('DOMContentLoaded', (event) => {
  highlightEdges();
  highlightAdjacentNodes();
});
]]></script>
</svg>
