<?xml version="1.0" encoding="UTF-8" standalone="no"?>
<!DOCTYPE svg PUBLIC "-//W3C//DTD SVG 1.1//EN"
 "http://www.w3.org/Graphics/SVG/1.1/DTD/svg11.dtd">
<!-- Generated by graphviz version 14.1.1 (20251213.1925)
 -->
<!-- Title: src/viewer/RelationshipRenderer.h Pages: 1 -->
<svg width="362pt" height="84pt"
 viewBox="0.00 0.00 362.00 84.00" xmlns="http://www.w3.org/2000/svg" xmlns:xlink="http://www.w3.org/1999/xlink">
<g id="graph0" class="graph" transform="scale(1 1) rotate(0) translate(4 80)">
<title>src/viewer/RelationshipRenderer.h</title>
<!-- Node1 -->
<g id="Node000001" class="node">
<title>Node1</title>
<g id="a_Node000001"><a xlink:title=" ">
<polygon fill="#999999" stroke="#666666" points="255.25,-76 89.25,-76 89.25,-56 255.25,-56 255.25,-76"/>
<text xml:space="preserve" text-anchor="middle" x="172.25" y="-62.5" font-family="Helvetica,sans-Serif" font-size="10.00">src/viewer/RelationshipRenderer.h</text>
</a>
</g>
</g>
<!-- Node2 -->
<g id="Node000002" class="node">
<title>Node2</title>
<g id="a_Node000002"><a xlink:href="_element_renderer_8cpp.html" target="_top" xlink:title=" ">
<polygon fill="white" stroke="#666666" points="158.5,-20 0,-20 0,0 158.5,0 158.5,-20"/>
<text xml:space="preserve" text-anchor="middle" x="79.25" y="-6.5" font-family="Helvetica,sans-Serif" font-size="10.00">src/viewer/ElementRenderer.cpp</text>
</a>
</g>
</g>
<!-- Node1&#45;&gt;Node2 -->
<g id="edge1_Node000001_Node000002" class="edge">
<title>Node1&#45;&gt;Node2</title>
<g id="a_edge1_Node000001_Node000002"><a xlink:title=" ">
<path fill="none" stroke="#63b8ff" d="M146.55,-50.08C130.26,-40.62 109.66,-28.66 95.58,-20.48"/>
<polygon fill="#63b8ff" stroke="#63b8ff" points="144.34,-52.84 154.74,-54.83 147.85,-46.79 144.34,-52.84"/>
</a>
</g>
</g>
<!-- Node3 -->
<g id="Node000003" class="node">
<title>Node3</title>
<g id="a_Node000003"><a xlink:href="_relationship_renderer_8cpp.html" target="_top" xlink:title=" ">
<polygon fill="white" stroke="#666666" points="353.5,-20 177,-20 177,0 353.5,0 353.5,-20"/>
<text xml:space="preserve" text-anchor="middle" x="265.25" y="-6.5" font-family="Helvetica,sans-Serif" font-size="10.00">src/viewer/RelationshipRenderer.cpp</text>
</a>
</g>
</g>
<!-- Node1&#45;&gt;Node3 -->
<g id="edge2_Node000001_Node000003" class="edge">
<title>Node1&#45;&gt;Node3</title>
<g id="a_edge2_Node000001_Node000003"><a xlink:title=" ">
<path fill="none" stroke="#63b8ff" d="M197.95,-50.08C214.24,-40.62 234.84,-28.66 248.92,-20.48"/>
<polygon fill="#63b8ff" stroke="#63b8ff" points="196.65,-46.79 189.76,-54.83 200.16,-52.84 196.65,-46.79"/>
</a>
</g>
</g>
</g>
</svg>
