<?xml version="1.0" encoding="UTF-8" standalone="no"?>
<!DOCTYPE svg PUBLIC "-//W3C//DTD SVG 1.1//EN"
 "http://www.w3.org/Graphics/SVG/1.1/DTD/svg11.dtd">
<!-- Generated by graphviz version 14.1.1 (20251213.1925)
 -->
<!-- Title: src/model/RelationshipEnd.h Pages: 1 -->
<svg width="1350pt" height="164pt"
 viewBox="0.00 0.00 1350.00 164.00" xmlns="http://www.w3.org/2000/svg" xmlns:xlink="http://www.w3.org/1999/xlink">
<g id="graph0" class="graph" transform="scale(1 1) rotate(0) translate(4 160)">
<title>src/model/RelationshipEnd.h</title>
<!-- Node1 -->
<g id="Node000001" class="node">
<title>Node1</title>
<g id="a_Node000001"><a xlink:title=" ">
<polygon fill="#999999" stroke="#666666" points="861.88,-156 720.62,-156 720.62,-136 861.88,-136 861.88,-156"/>
<text xml:space="preserve" text-anchor="middle" x="791.25" y="-142.5" font-family="Helvetica,sans-Serif" font-size="10.00">src/model/RelationshipEnd.h</text>
</a>
</g>
</g>
<!-- Node2 -->
<g id="Node000002" class="node">
<title>Node2</title>
<g id="a_Node000002"><a xlink:href="_diagram_serializer_8cpp.html" target="_top" xlink:title=" ">
<polygon fill="white" stroke="#666666" points="981.12,-26 823.38,-26 823.38,-6 981.12,-6 981.12,-26"/>
<text xml:space="preserve" text-anchor="middle" x="902.25" y="-12.5" font-family="Helvetica,sans-Serif" font-size="10.00">src/model/DiagramSerializer.cpp</text>
</a>
</g>
</g>
<!-- Node1&#45;&gt;Node2 -->
<g id="edge1_Node000001_Node000002" class="edge">
<title>Node1&#45;&gt;Node2</title>
<g id="a_edge1_Node000001_Node000002"><a xlink:title=" ">
<path fill="none" stroke="#63b8ff" d="M791.87,-124.7C793.34,-107.96 797.71,-84.38 810.25,-68 825.79,-47.7 851.85,-34.35 872.27,-26.42"/>
<polygon fill="#63b8ff" stroke="#63b8ff" points="788.39,-124.24 791.32,-134.43 795.38,-124.64 788.39,-124.24"/>
</a>
</g>
</g>
<!-- Node3 -->
<g id="Node000003" class="node">
<title>Node3</title>
<g id="a_Node000003"><a xlink:href="_relationship_8h.html" target="_top" xlink:title=" ">
<polygon fill="white" stroke="#666666" points="639.25,-94 515.25,-94 515.25,-74 639.25,-74 639.25,-94"/>
<text xml:space="preserve" text-anchor="middle" x="577.25" y="-80.5" font-family="Helvetica,sans-Serif" font-size="10.00">src/model/Relationship.h</text>
</a>
</g>
</g>
<!-- Node1&#45;&gt;Node3 -->
<g id="edge2_Node000001_Node000003" class="edge">
<title>Node1&#45;&gt;Node3</title>
<g id="a_edge2_Node000001_Node000003"><a xlink:title=" ">
<path fill="none" stroke="#63b8ff" d="M746.92,-132.57C706.45,-121.22 647.49,-104.69 610.81,-94.41"/>
<polygon fill="#63b8ff" stroke="#63b8ff" points="745.78,-135.89 756.36,-135.22 747.67,-129.15 745.78,-135.89"/>
</a>
</g>
</g>
<!-- Node7 -->
<g id="Node000007" class="node">
<title>Node7</title>
<g id="a_Node000007"><a xlink:href="_properties_panel_8cpp.html" target="_top" xlink:title=" ">
<polygon fill="white" stroke="#666666" points="649,-26 505.5,-26 505.5,-6 649,-6 649,-26"/>
<text xml:space="preserve" text-anchor="middle" x="577.25" y="-12.5" font-family="Helvetica,sans-Serif" font-size="10.00">src/view/PropertiesPanel.cpp</text>
</a>
</g>
</g>
<!-- Node1&#45;&gt;Node7 -->
<g id="edge15_Node000001_Node000007" class="edge">
<title>Node1&#45;&gt;Node7</title>
<g id="a_edge15_Node000001_Node000007"><a xlink:title=" ">
<path fill="none" stroke="#63b8ff" d="M765.7,-129.72C720.95,-102.95 629.67,-48.35 593.01,-26.43"/>
<polygon fill="#63b8ff" stroke="#63b8ff" points="763.84,-132.68 774.22,-134.81 767.43,-126.67 763.84,-132.68"/>
</a>
</g>
</g>
<!-- Node9 -->
<g id="Node000009" class="node">
<title>Node9</title>
<g id="a_Node000009"><a xlink:href="_relationship_connection_line_8h.html" target="_top" xlink:title=" ">
<polygon fill="white" stroke="#666666" points="984.88,-100 819.62,-100 819.62,-68 984.88,-68 984.88,-100"/>
<text xml:space="preserve" text-anchor="start" x="827.62" y="-86.5" font-family="Helvetica,sans-Serif" font-size="10.00">src/model/RelationshipConnection</text>
<text xml:space="preserve" text-anchor="middle" x="902.25" y="-74.5" font-family="Helvetica,sans-Serif" font-size="10.00">Line.h</text>
</a>
</g>
</g>
<!-- Node1&#45;&gt;Node9 -->
<g id="edge9_Node000001_Node000009" class="edge">
<title>Node1&#45;&gt;Node9</title>
<g id="a_edge9_Node000001_Node000009"><a xlink:title=" ">
<path fill="none" stroke="#63b8ff" d="M818.37,-130.34C835.18,-121.25 856.75,-109.59 873.81,-100.37"/>
<polygon fill="#63b8ff" stroke="#63b8ff" points="817.06,-127.07 809.93,-134.91 820.39,-133.23 817.06,-127.07"/>
</a>
</g>
</g>
<!-- Node12 -->
<g id="Node000012" class="node">
<title>Node12</title>
<g id="a_Node000012"><a xlink:href="_relationship_end_8cpp.html" target="_top" xlink:title=" ">
<polygon fill="white" stroke="#666666" points="1155.12,-94 1003.38,-94 1003.38,-74 1155.12,-74 1155.12,-94"/>
<text xml:space="preserve" text-anchor="middle" x="1079.25" y="-80.5" font-family="Helvetica,sans-Serif" font-size="10.00">src/model/RelationshipEnd.cpp</text>
</a>
</g>
</g>
<!-- Node1&#45;&gt;Node12 -->
<g id="edge14_Node000001_Node000012" class="edge">
<title>Node1&#45;&gt;Node12</title>
<g id="a_edge14_Node000001_Node000012"><a xlink:title=" ">
<path fill="none" stroke="#63b8ff" d="M847.75,-133.23C902.14,-121.9 983.35,-104.98 1033.72,-94.48"/>
<polygon fill="#63b8ff" stroke="#63b8ff" points="847.12,-129.78 838.05,-135.25 848.55,-136.64 847.12,-129.78"/>
</a>
</g>
</g>
<!-- Node3&#45;&gt;Node2 -->
<g id="edge3_Node000003_Node000002" class="edge">
<title>Node3&#45;&gt;Node2</title>
<g id="a_edge3_Node000003_Node000002"><a xlink:title=" ">
<path fill="none" stroke="#63b8ff" d="M634.73,-71.33C697.62,-58.56 797.22,-38.33 855.51,-26.49"/>
<polygon fill="#63b8ff" stroke="#63b8ff" points="634.4,-67.82 625.3,-73.24 635.79,-74.68 634.4,-67.82"/>
</a>
</g>
</g>
<!-- Node4 -->
<g id="Node000004" class="node">
<title>Node4</title>
<g id="a_Node000004"><a xlink:href="_element_factory_8cpp.html" target="_top" xlink:title=" ">
<polygon fill="white" stroke="#666666" points="487.62,-26 338.88,-26 338.88,-6 487.62,-6 487.62,-26"/>
<text xml:space="preserve" text-anchor="middle" x="413.25" y="-12.5" font-family="Helvetica,sans-Serif" font-size="10.00">src/model/ElementFactory.cpp</text>
</a>
</g>
</g>
<!-- Node3&#45;&gt;Node4 -->
<g id="edge4_Node000003_Node000004" class="edge">
<title>Node3&#45;&gt;Node4</title>
<g id="a_edge4_Node000003_Node000004"><a xlink:title=" ">
<path fill="none" stroke="#63b8ff" d="M543.16,-69.28C511.3,-56.46 464.57,-37.65 436.7,-26.44"/>
<polygon fill="#63b8ff" stroke="#63b8ff" points="541.77,-72.49 552.35,-72.98 544.38,-66 541.77,-72.49"/>
</a>
</g>
</g>
<!-- Node5 -->
<g id="Node000005" class="node">
<title>Node5</title>
<g id="a_Node000005"><a xlink:href="_relationship_8cpp.html" target="_top" xlink:title=" ">
<polygon fill="white" stroke="#666666" points="134.5,-26 0,-26 0,-6 134.5,-6 134.5,-26"/>
<text xml:space="preserve" text-anchor="middle" x="67.25" y="-12.5" font-family="Helvetica,sans-Serif" font-size="10.00">src/model/Relationship.cpp</text>
</a>
</g>
</g>
<!-- Node3&#45;&gt;Node5 -->
<g id="edge5_Node000003_Node000005" class="edge">
<title>Node3&#45;&gt;Node5</title>
<g id="a_edge5_Node000003_Node000005"><a xlink:title=" ">
<path fill="none" stroke="#63b8ff" d="M503.6,-76.11C417.07,-67.61 269.31,-51.82 143.25,-32 133.15,-30.41 122.35,-28.45 112.16,-26.46"/>
<polygon fill="#63b8ff" stroke="#63b8ff" points="503.08,-79.58 513.37,-77.06 503.76,-72.61 503.08,-79.58"/>
</a>
</g>
</g>
<!-- Node6 -->
<g id="Node000006" class="node">
<title>Node6</title>
<g id="a_Node000006"><a xlink:href="_diagram_scene_8cpp.html" target="_top" xlink:title=" ">
<polygon fill="white" stroke="#666666" points="805.75,-26 666.75,-26 666.75,-6 805.75,-6 805.75,-26"/>
<text xml:space="preserve" text-anchor="middle" x="736.25" y="-12.5" font-family="Helvetica,sans-Serif" font-size="10.00">src/view/DiagramScene.cpp</text>
</a>
</g>
</g>
<!-- Node3&#45;&gt;Node6 -->
<g id="edge6_Node000003_Node000006" class="edge">
<title>Node3&#45;&gt;Node6</title>
<g id="a_edge6_Node000003_Node000006"><a xlink:title=" ">
<path fill="none" stroke="#63b8ff" d="M610.3,-69.28C641.19,-56.46 686.49,-37.65 713.51,-26.44"/>
<polygon fill="#63b8ff" stroke="#63b8ff" points="609.32,-65.9 601.43,-72.96 612.01,-72.36 609.32,-65.9"/>
</a>
</g>
</g>
<!-- Node3&#45;&gt;Node7 -->
<g id="edge7_Node000003_Node000007" class="edge">
<title>Node3&#45;&gt;Node7</title>
<g id="a_edge7_Node000003_Node000007"><a xlink:title=" ">
<path fill="none" stroke="#63b8ff" d="M577.25,-62.28C577.25,-50.27 577.25,-35.74 577.25,-26.44"/>
<polygon fill="#63b8ff" stroke="#63b8ff" points="573.75,-62.03 577.25,-72.03 580.75,-62.03 573.75,-62.03"/>
</a>
</g>
</g>
<!-- Node8 -->
<g id="Node000008" class="node">
<title>Node8</title>
<g id="a_Node000008"><a xlink:href="_relationship_renderer_8cpp.html" target="_top" xlink:title=" ">
<polygon fill="white" stroke="#666666" points="320.38,-26 152.12,-26 152.12,-6 320.38,-6 320.38,-26"/>
<text xml:space="preserve" text-anchor="middle" x="236.25" y="-12.5" font-family="Helvetica,sans-Serif" font-size="10.00">src/view/RelationshipRenderer.cpp</text>
</a>
</g>
</g>
<!-- Node3&#45;&gt;Node8 -->
<g id="edge8_Node000003_Node000008" class="edge">
<title>Node3&#45;&gt;Node8</title>
<g id="a_edge8_Node000003_Node000008"><a xlink:title=" ">
<path fill="none" stroke="#63b8ff" d="M517.35,-71.41C451.39,-58.64 346.57,-38.35 285.29,-26.49"/>
<polygon fill="#63b8ff" stroke="#63b8ff" points="516.42,-74.79 526.91,-73.26 517.75,-67.92 516.42,-74.79"/>
</a>
</g>
</g>
<!-- Node9&#45;&gt;Node2 -->
<g id="edge10_Node000009_Node000002" class="edge">
<title>Node9&#45;&gt;Node2</title>
<g id="a_edge10_Node000009_Node000002"><a xlink:title=" ">
<path fill="none" stroke="#63b8ff" d="M902.25,-56.31C902.25,-45.67 902.25,-34.13 902.25,-26.32"/>
<polygon fill="#63b8ff" stroke="#63b8ff" points="898.75,-56.18 902.25,-66.18 905.75,-56.18 898.75,-56.18"/>
</a>
</g>
</g>
<!-- Node9&#45;&gt;Node6 -->
<g id="edge12_Node000009_Node000006" class="edge">
<title>Node9&#45;&gt;Node6</title>
<g id="a_edge12_Node000009_Node000006"><a xlink:title=" ">
<path fill="none" stroke="#63b8ff" d="M852.83,-63.35C822.17,-51.16 784.15,-36.05 760.04,-26.46"/>
<polygon fill="#63b8ff" stroke="#63b8ff" points="851.34,-66.52 861.92,-66.97 853.92,-60.02 851.34,-66.52"/>
</a>
</g>
</g>
<!-- Node10 -->
<g id="Node000010" class="node">
<title>Node10</title>
<g id="a_Node000010"><a xlink:href="_relationship_connection_line_8cpp.html" target="_top" xlink:title=" ">
<polygon fill="white" stroke="#666666" points="1164.88,-32 999.62,-32 999.62,0 1164.88,0 1164.88,-32"/>
<text xml:space="preserve" text-anchor="start" x="1007.62" y="-18.5" font-family="Helvetica,sans-Serif" font-size="10.00">src/model/RelationshipConnection</text>
<text xml:space="preserve" text-anchor="middle" x="1082.25" y="-6.5" font-family="Helvetica,sans-Serif" font-size="10.00">Line.cpp</text>
</a>
</g>
</g>
<!-- Node9&#45;&gt;Node10 -->
<g id="edge11_Node000009_Node000010" class="edge">
<title>Node9&#45;&gt;Node10</title>
<g id="a_edge11_Node000009_Node000010"><a xlink:title=" ">
<path fill="none" stroke="#63b8ff" d="M954.92,-63.69C982.01,-53.76 1014.58,-41.81 1040,-32.49"/>
<polygon fill="#63b8ff" stroke="#63b8ff" points="954.06,-60.28 945.87,-67 956.47,-66.85 954.06,-60.28"/>
</a>
</g>
</g>
<!-- Node11 -->
<g id="Node000011" class="node">
<title>Node11</title>
<g id="a_Node000011"><a xlink:href="_relationship_connection_line_graphics_item_8cpp.html" target="_top" xlink:title=" ">
<polygon fill="white" stroke="#666666" points="1341.88,-32 1182.62,-32 1182.62,0 1341.88,0 1341.88,-32"/>
<text xml:space="preserve" text-anchor="start" x="1190.62" y="-18.5" font-family="Helvetica,sans-Serif" font-size="10.00">src/view/RelationshipConnection</text>
<text xml:space="preserve" text-anchor="middle" x="1262.25" y="-6.5" font-family="Helvetica,sans-Serif" font-size="10.00">LineGraphicsItem.cpp</text>
</a>
</g>
</g>
<!-- Node9&#45;&gt;Node11 -->
<g id="edge13_Node000009_Node000011" class="edge">
<title>Node9&#45;&gt;Node11</title>
<g id="a_edge13_Node000009_Node000011"><a xlink:title=" ">
<path fill="none" stroke="#63b8ff" d="M996.27,-65.76C1054.1,-55.16 1127.41,-41.72 1182.41,-31.64"/>
<polygon fill="#63b8ff" stroke="#63b8ff" points="995.99,-62.26 986.78,-67.5 997.25,-69.14 995.99,-62.26"/>
</a>
</g>
</g>
</g>
</svg>
