<?xml version="1.0" encoding="UTF-8" standalone="no"?>
<!DOCTYPE svg PUBLIC "-//W3C//DTD SVG 1.1//EN"
 "http://www.w3.org/Graphics/SVG/1.1/DTD/svg11.dtd">
<!-- Generated by graphviz version 14.1.1 (20251213.1925)
 -->
<!-- Title: src/model/RelationshipConnectionLine.h Pages: 1 -->
<svg width="490pt" height="152pt"
 viewBox="0.00 0.00 490.00 152.00" xmlns="http://www.w3.org/2000/svg" xmlns:xlink="http://www.w3.org/1999/xlink">
<g id="graph0" class="graph" transform="scale(1 1) rotate(0) translate(4 148)">
<title>src/model/RelationshipConnectionLine.h</title>
<!-- Node1 -->
<g id="Node000001" class="node">
<title>Node1</title>
<g id="a_Node000001"><a xlink:title=" ">
<polygon fill="#999999" stroke="#666666" points="332.38,-144 167.12,-144 167.12,-112 332.38,-112 332.38,-144"/>
<text xml:space="preserve" text-anchor="start" x="175.12" y="-130.5" font-family="Helvetica,sans-Serif" font-size="10.00">src/model/RelationshipConnection</text>
<text xml:space="preserve" text-anchor="middle" x="249.75" y="-118.5" font-family="Helvetica,sans-Serif" font-size="10.00">Line.h</text>
</a>
</g>
</g>
<!-- Node2 -->
<g id="Node000002" class="node">
<title>Node2</title>
<g id="a_Node000002"><a xlink:href="_connection_line_8h.html" target="_top" xlink:title=" ">
<polygon fill="white" stroke="#666666" points="295.62,-76 203.88,-76 203.88,-56 295.62,-56 295.62,-76"/>
<text xml:space="preserve" text-anchor="middle" x="249.75" y="-62.5" font-family="Helvetica,sans-Serif" font-size="10.00">ConnectionLine.h</text>
</a>
</g>
</g>
<!-- Node1&#45;&gt;Node2 -->
<g id="edge1_Node000001_Node000002" class="edge">
<title>Node1&#45;&gt;Node2</title>
<g id="a_edge1_Node000001_Node000002"><a xlink:title=" ">
<path fill="none" stroke="#63b8ff" d="M249.75,-111.55C249.75,-104.34 249.75,-95.66 249.75,-87.88"/>
<polygon fill="#63b8ff" stroke="#63b8ff" points="253.25,-87.92 249.75,-77.92 246.25,-87.92 253.25,-87.92"/>
</a>
</g>
</g>
<!-- Node4 -->
<g id="Node000004" class="node">
<title>Node4</title>
<g id="a_Node000004"><a xlink:title=" ">
<polygon fill="#e0e0e0" stroke="#999999" points="482,-20 395.5,-20 395.5,0 482,0 482,-20"/>
<text xml:space="preserve" text-anchor="middle" x="438.75" y="-6.5" font-family="Helvetica,sans-Serif" font-size="10.00">QtCore/QPointF</text>
</a>
</g>
</g>
<!-- Node1&#45;&gt;Node4 -->
<g id="edge10_Node000001_Node000004" class="edge">
<title>Node1&#45;&gt;Node4</title>
<g id="a_edge10_Node000001_Node000004"><a xlink:title=" ">
<path fill="none" stroke="#63b8ff" d="M274.85,-111.6C311.04,-89.38 377.5,-48.59 413.68,-26.39"/>
<polygon fill="#63b8ff" stroke="#63b8ff" points="415.46,-29.4 422.16,-21.18 411.8,-23.43 415.46,-29.4"/>
</a>
</g>
</g>
<!-- Node8 -->
<g id="Node000008" class="node">
<title>Node8</title>
<g id="a_Node000008"><a xlink:href="_relationship_end_8h.html" target="_top" xlink:title=" ">
<polygon fill="white" stroke="#666666" points="185.5,-76 90,-76 90,-56 185.5,-56 185.5,-76"/>
<text xml:space="preserve" text-anchor="middle" x="137.75" y="-62.5" font-family="Helvetica,sans-Serif" font-size="10.00">RelationshipEnd.h</text>
</a>
</g>
</g>
<!-- Node1&#45;&gt;Node8 -->
<g id="edge7_Node000001_Node000008" class="edge">
<title>Node1&#45;&gt;Node8</title>
<g id="a_edge7_Node000001_Node000008"><a xlink:title=" ">
<path fill="none" stroke="#63b8ff" d="M220.91,-111.55C203.73,-102.35 182.06,-90.74 165.14,-81.68"/>
<polygon fill="#63b8ff" stroke="#63b8ff" points="167.11,-78.76 156.65,-77.12 163.81,-84.93 167.11,-78.76"/>
</a>
</g>
</g>
<!-- Node3 -->
<g id="Node000003" class="node">
<title>Node3</title>
<g id="a_Node000003"><a xlink:title=" ">
<polygon fill="#e0e0e0" stroke="#999999" points="188,-20 101.5,-20 101.5,0 188,0 188,-20"/>
<text xml:space="preserve" text-anchor="middle" x="144.75" y="-6.5" font-family="Helvetica,sans-Serif" font-size="10.00">QtCore/QObject</text>
</a>
</g>
</g>
<!-- Node2&#45;&gt;Node3 -->
<g id="edge2_Node000002_Node000003" class="edge">
<title>Node2&#45;&gt;Node3</title>
<g id="a_edge2_Node000002_Node000003"><a xlink:title=" ">
<path fill="none" stroke="#63b8ff" d="M231.46,-55.59C215.45,-47.36 191.92,-35.26 173.41,-25.74"/>
<polygon fill="#63b8ff" stroke="#63b8ff" points="175.02,-22.63 164.53,-21.17 171.82,-28.86 175.02,-22.63"/>
</a>
</g>
</g>
<!-- Node2&#45;&gt;Node4 -->
<g id="edge3_Node000002_Node000004" class="edge">
<title>Node2&#45;&gt;Node4</title>
<g id="a_edge3_Node000002_Node000004"><a xlink:title=" ">
<path fill="none" stroke="#63b8ff" d="M282.67,-55.59C313.78,-46.71 360.67,-33.31 394.93,-23.52"/>
<polygon fill="#63b8ff" stroke="#63b8ff" points="395.46,-27.01 404.12,-20.9 393.54,-20.28 395.46,-27.01"/>
</a>
</g>
</g>
<!-- Node5 -->
<g id="Node000005" class="node">
<title>Node5</title>
<g id="a_Node000005"><a xlink:title=" ">
<polygon fill="#e0e0e0" stroke="#999999" points="83.5,-20 0,-20 0,0 83.5,0 83.5,-20"/>
<text xml:space="preserve" text-anchor="middle" x="41.75" y="-6.5" font-family="Helvetica,sans-Serif" font-size="10.00">QtCore/QString</text>
</a>
</g>
</g>
<!-- Node2&#45;&gt;Node5 -->
<g id="edge4_Node000002_Node000005" class="edge">
<title>Node2&#45;&gt;Node5</title>
<g id="a_edge4_Node000002_Node000005"><a xlink:title=" ">
<path fill="none" stroke="#63b8ff" d="M213.52,-55.59C178.98,-46.63 126.79,-33.08 89,-23.27"/>
<polygon fill="#63b8ff" stroke="#63b8ff" points="90.29,-19.99 79.73,-20.86 88.53,-26.76 90.29,-19.99"/>
</a>
</g>
</g>
<!-- Node6 -->
<g id="Node000006" class="node">
<title>Node6</title>
<g id="a_Node000006"><a xlink:title=" ">
<polygon fill="#e0e0e0" stroke="#999999" points="377.88,-20 299.62,-20 299.62,0 377.88,0 377.88,-20"/>
<text xml:space="preserve" text-anchor="middle" x="338.75" y="-6.5" font-family="Helvetica,sans-Serif" font-size="10.00">QtCore/QUuid</text>
</a>
</g>
</g>
<!-- Node2&#45;&gt;Node6 -->
<g id="edge5_Node000002_Node000006" class="edge">
<title>Node2&#45;&gt;Node6</title>
<g id="a_edge5_Node000002_Node000006"><a xlink:title=" ">
<path fill="none" stroke="#63b8ff" d="M265.25,-55.59C278.57,-47.51 298.03,-35.71 313.58,-26.27"/>
<polygon fill="#63b8ff" stroke="#63b8ff" points="315.1,-29.44 321.83,-21.26 311.47,-23.46 315.1,-29.44"/>
</a>
</g>
</g>
<!-- Node7 -->
<g id="Node000007" class="node">
<title>Node7</title>
<g id="a_Node000007"><a xlink:title=" ">
<polygon fill="#e0e0e0" stroke="#999999" points="281.38,-20 206.12,-20 206.12,0 281.38,0 281.38,-20"/>
<text xml:space="preserve" text-anchor="middle" x="243.75" y="-6.5" font-family="Helvetica,sans-Serif" font-size="10.00">QtGui/QColor</text>
</a>
</g>
</g>
<!-- Node2&#45;&gt;Node7 -->
<g id="edge6_Node000002_Node000007" class="edge">
<title>Node2&#45;&gt;Node7</title>
<g id="a_edge6_Node000002_Node000007"><a xlink:title=" ">
<path fill="none" stroke="#63b8ff" d="M248.7,-55.59C247.97,-49.01 246.97,-39.96 246.05,-31.73"/>
<polygon fill="#63b8ff" stroke="#63b8ff" points="249.53,-31.35 244.95,-21.8 242.58,-32.13 249.53,-31.35"/>
</a>
</g>
</g>
<!-- Node8&#45;&gt;Node3 -->
<g id="edge8_Node000008_Node000003" class="edge">
<title>Node8&#45;&gt;Node3</title>
<g id="a_edge8_Node000008_Node000003"><a xlink:title=" ">
<path fill="none" stroke="#63b8ff" d="M138.97,-55.59C139.83,-48.93 141.02,-39.75 142.1,-31.44"/>
<polygon fill="#63b8ff" stroke="#63b8ff" points="145.54,-32.17 143.35,-21.8 138.59,-31.27 145.54,-32.17"/>
</a>
</g>
</g>
<!-- Node8&#45;&gt;Node5 -->
<g id="edge9_Node000008_Node000005" class="edge">
<title>Node8&#45;&gt;Node5</title>
<g id="a_edge9_Node000008_Node000005"><a xlink:title=" ">
<path fill="none" stroke="#63b8ff" d="M121.03,-55.59C106.53,-47.44 85.28,-35.48 68.43,-26"/>
<polygon fill="#63b8ff" stroke="#63b8ff" points="70.35,-23.07 59.92,-21.22 66.92,-29.17 70.35,-23.07"/>
</a>
</g>
</g>
</g>
</svg>
