<?xml version="1.0" encoding="UTF-8" standalone="no"?>
<!DOCTYPE svg PUBLIC "-//W3C//DTD SVG 1.1//EN"
 "http://www.w3.org/Graphics/SVG/1.1/DTD/svg11.dtd">
<!-- Generated by graphviz version 14.1.1 (20251213.1925)
 -->
<!-- Title: src/model/RelationshipConnectionLine.cpp Pages: 1 -->
<!--zoomable 208 -->

<svg id="main" version="1.1" xmlns="http://www.w3.org/2000/svg" xmlns:xlink="http://www.w3.org/1999/xlink" xml:space="preserve" onload="init(evt)">

<style type="text/css"><![CDATA[
.node, .edge {opacity: 0.7;}
.node.selected, .edge.selected {opacity: 1;}
.edge:hover path { stroke: red; }
.edge:hover polygon { stroke: red; fill: red; }
]]></style>

<defs>
  <circle id="rim" cx="0" cy="0" r="7"/>
  <circle id="rim2" cx="0" cy="0" r="3.5"/>
  <g id="zoomPlus">
    <use xlink:href="#rim" fill="#404040"><set attributeName="fill" to="#808080" begin="zoomplus.mouseover" end="zoomplus.mouseout"/></use>
    <path d="M-4,0h8M0,-4v8" fill="none" stroke="white" stroke-width="1.5" pointer-events="none"/>
  </g>
  <g id="zoomMin">
    <use xlink:href="#rim" fill="#404040"><set attributeName="fill" to="#808080" begin="zoomminus.mouseover" end="zoomminus.mouseout"/></use>
    <path d="M-4,0h8" fill="none" stroke="white" stroke-width="1.5" pointer-events="none"/>
  </g>
  <g id="arrowUp" transform="translate(30 24)">
    <use xlink:href="#rim"/>
    <path pointer-events="none" fill="none" stroke="white" stroke-width="1.5" d="M0,-3.0v7 M-2.5,-0.5L0,-3.0L2.5,-0.5"/>
  </g>
  <g id="arrowRight" transform="rotate(90) translate(36 -43)">
    <use xlink:href="#rim"/>
    <path pointer-events="none" fill="none" stroke="white" stroke-width="1.5" d="M0,-3.0v7 M-2.5,-0.5L0,-3.0L2.5,-0.5"/>
  </g>
  <g id="arrowDown" transform="rotate(180) translate(-30 -48)">
    <use xlink:href="#rim"/>
    <path pointer-events="none" fill="none" stroke="white" stroke-width="1.5" d="M0,-3.0v7 M-2.5,-0.5L0,-3.0L2.5,-0.5"/>
  </g>
  <g id="arrowLeft" transform="rotate(270) translate(-36 17)">
    <use xlink:href="#rim"/>
    <path pointer-events="none" fill="none" stroke="white" stroke-width="1.5" d="M0,-3.0v7 M-2.5,-0.5L0,-3.0L2.5,-0.5"/>
  </g>
  <g id="resetDef">
    <use xlink:href="#rim2" fill="#404040"><set attributeName="fill" to="#808080" begin="reset.mouseover" end="reset.mouseout"/></use>
  </g>
</defs>
<script type="application/ecmascript">
var viewWidth = 947;
var viewHeight = 208;
var sectionId = 'dynsection-0';
</script>
<script type="application/ecmascript" xlink:href="svg.min.js"/>
<svg id="graph" class="graph">
<g id="viewport">
<title>src/model/RelationshipConnectionLine.cpp</title>
<!-- Node1 -->
<g id="Node000001" class="node">
<title>Node1</title>
<g id="a_Node000001"><a xlink:title=" ">
<polygon fill="#999999" stroke="#666666" points="712.88,-200 547.62,-200 547.62,-168 712.88,-168 712.88,-200"/>
<text xml:space="preserve" text-anchor="start" x="555.62" y="-186.5" font-family="Helvetica,sans-Serif" font-size="10.00">src/model/RelationshipConnection</text>
<text xml:space="preserve" text-anchor="middle" x="630.25" y="-174.5" font-family="Helvetica,sans-Serif" font-size="10.00">Line.cpp</text>
</a>
</g>
</g>
<!-- Node2 -->
<g id="Node000002" class="node">
<title>Node2</title>
<g id="a_Node000002"><a xlink:href="_relationship_connection_line_8h.html" target="_top" xlink:title=" ">
<polygon fill="white" stroke="#666666" points="246.12,-132 100.38,-132 100.38,-112 246.12,-112 246.12,-132"/>
<text xml:space="preserve" text-anchor="middle" x="173.25" y="-118.5" font-family="Helvetica,sans-Serif" font-size="10.00">RelationshipConnectionLine.h</text>
</a>
</g>
</g>
<!-- Node1&#45;&gt;Node2 -->
<g id="edge1_Node000001_Node000002" class="edge">
<title>Node1&#45;&gt;Node2</title>
<g id="a_edge1_Node000001_Node000002"><a xlink:title=" ">
<path fill="none" stroke="#63b8ff" d="M547.23,-172.1C464.89,-161.29 339.42,-144.82 256.88,-133.98"/>
<polygon fill="#63b8ff" stroke="#63b8ff" points="257.39,-130.52 247.02,-132.69 256.48,-137.46 257.39,-130.52"/>
</a>
</g>
</g>
<!-- Node10 -->
<g id="Node000010" class="node">
<title>Node10</title>
<g id="a_Node000010"><a xlink:href="_connection_point_8h.html" target="_top" xlink:title=" ">
<polygon fill="white" stroke="#666666" points="908.38,-76 812.12,-76 812.12,-56 908.38,-56 908.38,-76"/>
<text xml:space="preserve" text-anchor="middle" x="860.25" y="-62.5" font-family="Helvetica,sans-Serif" font-size="10.00">ConnectionPoint.h</text>
</a>
</g>
</g>
<!-- Node1&#45;&gt;Node10 -->
<g id="edge12_Node000001_Node000010" class="edge">
<title>Node1&#45;&gt;Node10</title>
<g id="a_edge12_Node000001_Node000010"><a xlink:title=" ">
<path fill="none" stroke="#63b8ff" d="M638.18,-167.53C647.32,-151.24 663.88,-126.05 685.25,-112 704.2,-99.54 757.56,-86.8 800.42,-78.07"/>
<polygon fill="#63b8ff" stroke="#63b8ff" points="801.03,-81.52 810.15,-76.13 799.65,-74.66 801.03,-81.52"/>
</a>
</g>
</g>
<!-- Node11 -->
<g id="Node000011" class="node">
<title>Node11</title>
<g id="a_Node000011"><a xlink:href="_basic_element_8h.html" target="_top" xlink:title=" ">
<polygon fill="white" stroke="#666666" points="637.75,-132 552.75,-132 552.75,-112 637.75,-112 637.75,-132"/>
<text xml:space="preserve" text-anchor="middle" x="595.25" y="-118.5" font-family="Helvetica,sans-Serif" font-size="10.00">BasicElement.h</text>
</a>
</g>
</g>
<!-- Node1&#45;&gt;Node11 -->
<g id="edge17_Node000001_Node000011" class="edge">
<title>Node1&#45;&gt;Node11</title>
<g id="a_edge17_Node000001_Node000011"><a xlink:title=" ">
<path fill="none" stroke="#63b8ff" d="M621.24,-167.55C616.73,-159.82 611.23,-150.4 606.46,-142.21"/>
<polygon fill="#63b8ff" stroke="#63b8ff" points="609.56,-140.59 601.5,-133.72 603.52,-144.12 609.56,-140.59"/>
</a>
</g>
</g>
<!-- Node17 -->
<g id="Node000017" class="node">
<title>Node17</title>
<g id="a_Node000017"><a xlink:title=" ">
<polygon fill="#e0e0e0" stroke="#999999" points="780.12,-132 694.38,-132 694.38,-112 780.12,-112 780.12,-132"/>
<text xml:space="preserve" text-anchor="middle" x="737.25" y="-118.5" font-family="Helvetica,sans-Serif" font-size="10.00">QtCore/qmath.h</text>
</a>
</g>
</g>
<!-- Node1&#45;&gt;Node17 -->
<g id="edge28_Node000001_Node000017" class="edge">
<title>Node1&#45;&gt;Node17</title>
<g id="a_edge28_Node000001_Node000017"><a xlink:title=" ">
<path fill="none" stroke="#63b8ff" d="M657.81,-167.55C674.06,-158.43 694.53,-146.96 710.62,-137.93"/>
<polygon fill="#63b8ff" stroke="#63b8ff" points="712.14,-141.09 719.15,-133.15 708.72,-134.99 712.14,-141.09"/>
</a>
</g>
</g>
<!-- Node3 -->
<g id="Node000003" class="node">
<title>Node3</title>
<g id="a_Node000003"><a xlink:href="_connection_line_8h.html" target="_top" xlink:title=" ">
<polygon fill="white" stroke="#666666" points="163.12,-76 71.38,-76 71.38,-56 163.12,-56 163.12,-76"/>
<text xml:space="preserve" text-anchor="middle" x="117.25" y="-62.5" font-family="Helvetica,sans-Serif" font-size="10.00">ConnectionLine.h</text>
</a>
</g>
</g>
<!-- Node2&#45;&gt;Node3 -->
<g id="edge2_Node000002_Node000003" class="edge">
<title>Node2&#45;&gt;Node3</title>
<g id="a_edge2_Node000002_Node000003"><a xlink:title=" ">
<path fill="none" stroke="#63b8ff" d="M163.5,-111.59C155.63,-104.01 144.35,-93.13 134.9,-84.02"/>
<polygon fill="#63b8ff" stroke="#63b8ff" points="137.61,-81.77 127.98,-77.35 132.75,-86.81 137.61,-81.77"/>
</a>
</g>
</g>
<!-- Node5 -->
<g id="Node000005" class="node">
<title>Node5</title>
<g id="a_Node000005"><a xlink:title=" ">
<polygon fill="#e0e0e0" stroke="#999999" points="86.5,-20 0,-20 0,0 86.5,0 86.5,-20"/>
<text xml:space="preserve" text-anchor="middle" x="43.25" y="-6.5" font-family="Helvetica,sans-Serif" font-size="10.00">QtCore/QPointF</text>
</a>
</g>
</g>
<!-- Node2&#45;&gt;Node5 -->
<g id="edge11_Node000002_Node000005" class="edge">
<title>Node2&#45;&gt;Node5</title>
<g id="a_edge11_Node000002_Node000005"><a xlink:title=" ">
<path fill="none" stroke="#63b8ff" d="M100.18,-115.88C73.47,-110.04 45.77,-98.47 29.25,-76 19.54,-62.79 24.91,-44.23 31.62,-30.32"/>
<polygon fill="#63b8ff" stroke="#63b8ff" points="34.61,-32.15 36.31,-21.69 28.46,-28.81 34.61,-32.15"/>
</a>
</g>
</g>
<!-- Node9 -->
<g id="Node000009" class="node">
<title>Node9</title>
<g id="a_Node000009"><a xlink:href="_relationship_end_8h.html" target="_top" xlink:title=" ">
<polygon fill="white" stroke="#666666" points="277,-76 181.5,-76 181.5,-56 277,-56 277,-76"/>
<text xml:space="preserve" text-anchor="middle" x="229.25" y="-62.5" font-family="Helvetica,sans-Serif" font-size="10.00">RelationshipEnd.h</text>
</a>
</g>
</g>
<!-- Node2&#45;&gt;Node9 -->
<g id="edge8_Node000002_Node000009" class="edge">
<title>Node2&#45;&gt;Node9</title>
<g id="a_edge8_Node000002_Node000009"><a xlink:title=" ">
<path fill="none" stroke="#63b8ff" d="M183,-111.59C190.87,-104.01 202.15,-93.13 211.6,-84.02"/>
<polygon fill="#63b8ff" stroke="#63b8ff" points="213.75,-86.81 218.52,-77.35 208.89,-81.77 213.75,-86.81"/>
</a>
</g>
</g>
<!-- Node4 -->
<g id="Node000004" class="node">
<title>Node4</title>
<g id="a_Node000004"><a xlink:title=" ">
<polygon fill="#e0e0e0" stroke="#999999" points="611.5,-20 525,-20 525,0 611.5,0 611.5,-20"/>
<text xml:space="preserve" text-anchor="middle" x="568.25" y="-6.5" font-family="Helvetica,sans-Serif" font-size="10.00">QtCore/QObject</text>
</a>
</g>
</g>
<!-- Node3&#45;&gt;Node4 -->
<g id="edge3_Node000003_Node000004" class="edge">
<title>Node3&#45;&gt;Node4</title>
<g id="a_edge3_Node000003_Node000004"><a xlink:title=" ">
<path fill="none" stroke="#63b8ff" d="M163.44,-57.27C166.42,-56.83 169.37,-56.4 172.25,-56 293.67,-39.18 436.68,-24.09 513.25,-16.39"/>
<polygon fill="#63b8ff" stroke="#63b8ff" points="513.4,-19.89 523,-15.41 512.7,-12.93 513.4,-19.89"/>
</a>
</g>
</g>
<!-- Node3&#45;&gt;Node5 -->
<g id="edge4_Node000003_Node000005" class="edge">
<title>Node3&#45;&gt;Node5</title>
<g id="a_edge4_Node000003_Node000005"><a xlink:title=" ">
<path fill="none" stroke="#63b8ff" d="M104.36,-55.59C93.54,-47.7 77.84,-36.24 65.06,-26.92"/>
<polygon fill="#63b8ff" stroke="#63b8ff" points="67.36,-24.26 57.21,-21.19 63.23,-29.91 67.36,-24.26"/>
</a>
</g>
</g>
<!-- Node6 -->
<g id="Node000006" class="node">
<title>Node6</title>
<g id="a_Node000006"><a xlink:title=" ">
<polygon fill="#e0e0e0" stroke="#999999" points="314,-20 230.5,-20 230.5,0 314,0 314,-20"/>
<text xml:space="preserve" text-anchor="middle" x="272.25" y="-6.5" font-family="Helvetica,sans-Serif" font-size="10.00">QtCore/QString</text>
</a>
</g>
</g>
<!-- Node3&#45;&gt;Node6 -->
<g id="edge5_Node000003_Node000006" class="edge">
<title>Node3&#45;&gt;Node6</title>
<g id="a_edge5_Node000003_Node000006"><a xlink:title=" ">
<path fill="none" stroke="#63b8ff" d="M144.25,-55.59C169.21,-46.9 206.55,-33.89 234.47,-24.16"/>
<polygon fill="#63b8ff" stroke="#63b8ff" points="235.32,-27.57 243.61,-20.98 233.02,-20.96 235.32,-27.57"/>
</a>
</g>
</g>
<!-- Node7 -->
<g id="Node000007" class="node">
<title>Node7</title>
<g id="a_Node000007"><a xlink:title=" ">
<polygon fill="#e0e0e0" stroke="#999999" points="899.38,-20 821.12,-20 821.12,0 899.38,0 899.38,-20"/>
<text xml:space="preserve" text-anchor="middle" x="860.25" y="-6.5" font-family="Helvetica,sans-Serif" font-size="10.00">QtCore/QUuid</text>
</a>
</g>
</g>
<!-- Node3&#45;&gt;Node7 -->
<g id="edge6_Node000003_Node000007" class="edge">
<title>Node3&#45;&gt;Node7</title>
<g id="a_edge6_Node000003_Node000007"><a xlink:title=" ">
<path fill="none" stroke="#63b8ff" d="M163.42,-57.11C166.4,-56.71 169.37,-56.33 172.25,-56 409.73,-28.87 695.33,-16.68 809.49,-12.64"/>
<polygon fill="#63b8ff" stroke="#63b8ff" points="809.57,-16.14 819.44,-12.29 809.33,-9.14 809.57,-16.14"/>
</a>
</g>
</g>
<!-- Node8 -->
<g id="Node000008" class="node">
<title>Node8</title>
<g id="a_Node000008"><a xlink:title=" ">
<polygon fill="#e0e0e0" stroke="#999999" points="179.88,-20 104.62,-20 104.62,0 179.88,0 179.88,-20"/>
<text xml:space="preserve" text-anchor="middle" x="142.25" y="-6.5" font-family="Helvetica,sans-Serif" font-size="10.00">QtGui/QColor</text>
</a>
</g>
</g>
<!-- Node3&#45;&gt;Node8 -->
<g id="edge7_Node000003_Node000008" class="edge">
<title>Node3&#45;&gt;Node8</title>
<g id="a_edge7_Node000003_Node000008"><a xlink:title=" ">
<path fill="none" stroke="#63b8ff" d="M121.6,-55.59C124.8,-48.7 129.24,-39.1 133.19,-30.57"/>
<polygon fill="#63b8ff" stroke="#63b8ff" points="136.28,-32.22 137.31,-21.67 129.93,-29.28 136.28,-32.22"/>
</a>
</g>
</g>
<!-- Node9&#45;&gt;Node4 -->
<g id="edge9_Node000009_Node000004" class="edge">
<title>Node9&#45;&gt;Node4</title>
<g id="a_edge9_Node000009_Node000004"><a xlink:title=" ">
<path fill="none" stroke="#63b8ff" d="M277.46,-57.32C339.71,-47.4 447.8,-30.19 513.21,-19.77"/>
<polygon fill="#63b8ff" stroke="#63b8ff" points="513.69,-23.24 523.02,-18.21 512.59,-16.32 513.69,-23.24"/>
</a>
</g>
</g>
<!-- Node9&#45;&gt;Node6 -->
<g id="edge10_Node000009_Node000006" class="edge">
<title>Node9&#45;&gt;Node6</title>
<g id="a_edge10_Node000009_Node000006"><a xlink:title=" ">
<path fill="none" stroke="#63b8ff" d="M236.74,-55.59C242.54,-48.32 250.74,-38.02 257.8,-29.15"/>
<polygon fill="#63b8ff" stroke="#63b8ff" points="260.41,-31.49 263.9,-21.48 254.94,-27.12 260.41,-31.49"/>
</a>
</g>
</g>
<!-- Node10&#45;&gt;Node4 -->
<g id="edge13_Node000010_Node000004" class="edge">
<title>Node10&#45;&gt;Node4</title>
<g id="a_edge13_Node000010_Node000004"><a xlink:title=" ">
<path fill="none" stroke="#63b8ff" d="M811.7,-56.02C759.62,-46.39 677.09,-31.13 622.8,-21.09"/>
<polygon fill="#63b8ff" stroke="#63b8ff" points="623.62,-17.68 613.15,-19.3 622.35,-24.56 623.62,-17.68"/>
</a>
</g>
</g>
<!-- Node10&#45;&gt;Node5 -->
<g id="edge14_Node000010_Node000005" class="edge">
<title>Node10&#45;&gt;Node5</title>
<g id="a_edge14_Node000010_Node000005"><a xlink:title=" ">
<path fill="none" stroke="#63b8ff" d="M811.79,-56.99C808.9,-56.62 806.04,-56.29 803.25,-56 493.54,-23.77 410.32,-54.2 98.09,-20.18"/>
<polygon fill="#63b8ff" stroke="#63b8ff" points="98.72,-16.73 88.39,-19.11 97.95,-23.69 98.72,-16.73"/>
</a>
</g>
</g>
<!-- Node10&#45;&gt;Node6 -->
<g id="edge15_Node000010_Node000006" class="edge">
<title>Node10&#45;&gt;Node6</title>
<g id="a_edge15_Node000010_Node000006"><a xlink:title=" ">
<path fill="none" stroke="#63b8ff" d="M811.77,-57.1C808.89,-56.71 806.03,-56.34 803.25,-56 629.12,-34.9 421.66,-20.37 325.75,-14.25"/>
<polygon fill="#63b8ff" stroke="#63b8ff" points="326.06,-10.77 315.86,-13.63 325.62,-17.75 326.06,-10.77"/>
</a>
</g>
</g>
<!-- Node10&#45;&gt;Node7 -->
<g id="edge16_Node000010_Node000007" class="edge">
<title>Node10&#45;&gt;Node7</title>
<g id="a_edge16_Node000010_Node000007"><a xlink:title=" ">
<path fill="none" stroke="#63b8ff" d="M860.25,-55.59C860.25,-49.01 860.25,-39.96 860.25,-31.73"/>
<polygon fill="#63b8ff" stroke="#63b8ff" points="863.75,-31.81 860.25,-21.81 856.75,-31.81 863.75,-31.81"/>
</a>
</g>
</g>
<!-- Node11&#45;&gt;Node4 -->
<g id="edge19_Node000011_Node000004" class="edge">
<title>Node11&#45;&gt;Node4</title>
<g id="a_edge19_Node000011_Node000004"><a xlink:title=" ">
<path fill="none" stroke="#63b8ff" d="M638.2,-116.5C723.78,-107.32 908.16,-86.45 917.25,-76 923.08,-69.29 923.12,-62.68 917.25,-56 898.17,-34.3 716.74,-20.1 623.3,-14.16"/>
<polygon fill="#63b8ff" stroke="#63b8ff" points="623.52,-10.67 613.32,-13.54 623.09,-17.66 623.52,-10.67"/>
</a>
</g>
</g>
<!-- Node11&#45;&gt;Node5 -->
<g id="edge20_Node000011_Node000005" class="edge">
<title>Node11&#45;&gt;Node5</title>
<g id="a_edge20_Node000011_Node000005"><a xlink:title=" ">
<path fill="none" stroke="#63b8ff" d="M552.61,-120.13C432.89,-117.32 99.91,-106.78 62.25,-76 49.17,-65.3 44.78,-46.12 43.46,-31.36"/>
<polygon fill="#63b8ff" stroke="#63b8ff" points="46.97,-31.62 43.01,-21.8 39.98,-31.95 46.97,-31.62"/>
</a>
</g>
</g>
<!-- Node11&#45;&gt;Node6 -->
<g id="edge22_Node000011_Node000006" class="edge">
<title>Node11&#45;&gt;Node6</title>
<g id="a_edge22_Node000011_Node000006"><a xlink:title=" ">
<path fill="none" stroke="#63b8ff" d="M552.25,-117.61C485.88,-111.77 362.15,-98.22 324.25,-76 305.79,-65.18 291.29,-45.13 282.34,-30.15"/>
<polygon fill="#63b8ff" stroke="#63b8ff" points="285.52,-28.66 277.57,-21.66 279.42,-32.09 285.52,-28.66"/>
</a>
</g>
</g>
<!-- Node11&#45;&gt;Node7 -->
<g id="edge24_Node000011_Node000007" class="edge">
<title>Node11&#45;&gt;Node7</title>
<g id="a_edge24_Node000011_Node000007"><a xlink:title=" ">
<path fill="none" stroke="#63b8ff" d="M637.95,-116.81C726.68,-107.91 923.6,-87.02 933.25,-76 950.23,-56.61 921.38,-37.36 895.1,-24.9"/>
<polygon fill="#63b8ff" stroke="#63b8ff" points="896.82,-21.83 886.26,-20.93 893.95,-28.22 896.82,-21.83"/>
</a>
</g>
</g>
<!-- Node11&#45;&gt;Node10 -->
<g id="edge27_Node000011_Node000010" class="edge">
<title>Node11&#45;&gt;Node10</title>
<g id="a_edge27_Node000011_Node000010"><a xlink:title=" ">
<path fill="none" stroke="#63b8ff" d="M638.12,-112.26C682.83,-103.15 753.18,-88.82 802.7,-78.73"/>
<polygon fill="#63b8ff" stroke="#63b8ff" points="803.29,-82.18 812.39,-76.75 801.89,-75.32 803.29,-82.18"/>
</a>
</g>
</g>
<!-- Node12 -->
<g id="Node000012" class="node">
<title>Node12</title>
<g id="a_Node000012"><a xlink:title=" ">
<polygon fill="#e0e0e0" stroke="#999999" points="483.88,-76 402.62,-76 402.62,-56 483.88,-56 483.88,-76"/>
<text xml:space="preserve" text-anchor="middle" x="443.25" y="-62.5" font-family="Helvetica,sans-Serif" font-size="10.00">QtCore/QHash</text>
</a>
</g>
</g>
<!-- Node11&#45;&gt;Node12 -->
<g id="edge18_Node000011_Node000012" class="edge">
<title>Node11&#45;&gt;Node12</title>
<g id="a_edge18_Node000011_Node000012"><a xlink:title=" ">
<path fill="none" stroke="#63b8ff" d="M568.77,-111.59C544.4,-102.94 508,-90 480.66,-80.29"/>
<polygon fill="#63b8ff" stroke="#63b8ff" points="481.95,-77.04 471.36,-76.99 479.61,-83.63 481.95,-77.04"/>
</a>
</g>
</g>
<!-- Node13 -->
<g id="Node000013" class="node">
<title>Node13</title>
<g id="a_Node000013"><a xlink:title=" ">
<polygon fill="#e0e0e0" stroke="#999999" points="586.75,-76 501.75,-76 501.75,-56 586.75,-56 586.75,-76"/>
<text xml:space="preserve" text-anchor="middle" x="544.25" y="-62.5" font-family="Helvetica,sans-Serif" font-size="10.00">QtCore/QRectF</text>
</a>
</g>
</g>
<!-- Node11&#45;&gt;Node13 -->
<g id="edge21_Node000011_Node000013" class="edge">
<title>Node11&#45;&gt;Node13</title>
<g id="a_edge21_Node000011_Node000013"><a xlink:title=" ">
<path fill="none" stroke="#63b8ff" d="M586.37,-111.59C579.35,-104.16 569.35,-93.58 560.86,-84.58"/>
<polygon fill="#63b8ff" stroke="#63b8ff" points="563.48,-82.27 554.07,-77.4 558.39,-87.07 563.48,-82.27"/>
</a>
</g>
</g>
<!-- Node14 -->
<g id="Node000014" class="node">
<title>Node14</title>
<g id="a_Node000014"><a xlink:title=" ">
<polygon fill="#e0e0e0" stroke="#999999" points="688,-76 604.5,-76 604.5,-56 688,-56 688,-76"/>
<text xml:space="preserve" text-anchor="middle" x="646.25" y="-62.5" font-family="Helvetica,sans-Serif" font-size="10.00">QtCore/QSizeF</text>
</a>
</g>
</g>
<!-- Node11&#45;&gt;Node14 -->
<g id="edge23_Node000011_Node000014" class="edge">
<title>Node11&#45;&gt;Node14</title>
<g id="a_edge23_Node000011_Node000014"><a xlink:title=" ">
<path fill="none" stroke="#63b8ff" d="M604.13,-111.59C611.15,-104.16 621.15,-93.58 629.64,-84.58"/>
<polygon fill="#63b8ff" stroke="#63b8ff" points="632.11,-87.07 636.43,-77.4 627.02,-82.27 632.11,-87.07"/>
</a>
</g>
</g>
<!-- Node15 -->
<g id="Node000015" class="node">
<title>Node15</title>
<g id="a_Node000015"><a xlink:title=" ">
<polygon fill="#e0e0e0" stroke="#999999" points="794.25,-76 706.25,-76 706.25,-56 794.25,-56 794.25,-76"/>
<text xml:space="preserve" text-anchor="middle" x="750.25" y="-62.5" font-family="Helvetica,sans-Serif" font-size="10.00">QtCore/QVariant</text>
</a>
</g>
</g>
<!-- Node11&#45;&gt;Node15 -->
<g id="edge25_Node000011_Node000015" class="edge">
<title>Node11&#45;&gt;Node15</title>
<g id="a_edge25_Node000011_Node000015"><a xlink:title=" ">
<path fill="none" stroke="#63b8ff" d="M622.25,-111.59C647.21,-102.9 684.55,-89.89 712.47,-80.16"/>
<polygon fill="#63b8ff" stroke="#63b8ff" points="713.32,-83.57 721.61,-76.98 711.02,-76.96 713.32,-83.57"/>
</a>
</g>
</g>
<!-- Node16 -->
<g id="Node000016" class="node">
<title>Node16</title>
<g id="a_Node000016"><a xlink:title=" ">
<polygon fill="#e0e0e0" stroke="#999999" points="384.88,-76 333.62,-76 333.62,-56 384.88,-56 384.88,-76"/>
<text xml:space="preserve" text-anchor="middle" x="359.25" y="-62.5" font-family="Helvetica,sans-Serif" font-size="10.00">memory</text>
</a>
</g>
</g>
<!-- Node11&#45;&gt;Node16 -->
<g id="edge26_Node000011_Node000016" class="edge">
<title>Node11&#45;&gt;Node16</title>
<g id="a_edge26_Node000011_Node000016"><a xlink:title=" ">
<path fill="none" stroke="#63b8ff" d="M552.58,-112.01C514.01,-103.77 455.43,-90.96 396.26,-76.67"/>
<polygon fill="#63b8ff" stroke="#63b8ff" points="397.23,-73.3 386.68,-74.34 395.57,-80.11 397.23,-73.3"/>
</a>
</g>
</g>
</g>
</svg>

<g id="navigator" transform="translate(0 0)" fill="#404254">
  <rect fill="#f2f5e9" fill-opacity="0.5" stroke="#606060" stroke-width=".5" x="0" y="0" width="60" height="60"/>
  <use id="zoomplus" xlink:href="#zoomPlus" x="17" y="9" onmousedown="handleZoom(evt,'in')"/>
  <use id="zoomminus" xlink:href="#zoomMin" x="42" y="9" onmousedown="handleZoom(evt,'out')"/>
  <use id="reset" xlink:href="#resetDef" x="30" y="36" onmousedown="handleReset()"/>
   <use id="arrowup" xlink:href="#arrowUp" x="0" y="0" onmousedown="handlePan(0,-1)"/>
  <use id="arrowright" xlink:href="#arrowRight" x="0" y="0" onmousedown="handlePan(1,0)"/>
  <use id="arrowdown" xlink:href="#arrowDown" x="0" y="0" onmousedown="handlePan(0,1)"/>
  <use id="arrowleft" xlink:href="#arrowLeft" x="0" y="0" onmousedown="handlePan(-1,0)"/>
</g>
<svg viewBox="0 0 15 15" width="100%" height="30px" preserveAspectRatio="xMaxYMin meet">
 <g id="arrow_out" transform="scale(0.3 0.3)">
  <a xlink:href="_relationship_connection_line_8cpp__incl_org.svg" target="_base">
   <rect id="button" ry="5" rx="5" y="6" x="6" height="38" width="38"
        fill="#f2f5e9" fill-opacity="0.5" stroke="#606060" stroke-width="1.0"/>
   <path id="arrow"
     d="M 11.500037,31.436501 C 11.940474,20.09759 22.043105,11.32322 32.158766,21.979434 L 37.068811,17.246167 C 37.068811,17.246167 37.088388,32 37.088388,32 L 22.160133,31.978069 C 22.160133,31.978069 26.997745,27.140456 26.997745,27.140456 C 18.528582,18.264221 13.291696,25.230495 11.500037,31.436501 z"
     style="fill:#404040;"/>
  </a>
 </g>
</svg>

<style type='text/css'>
<![CDATA[
[data-mouse-over-selected='false'] { opacity: 0.7; }
[data-mouse-over-selected='true']  { opacity: 1.0; }
]]>
</style>
<script type="application/ecmascript"><![CDATA[
document.addEventListener('DOMContentLoaded', (event) => {
  highlightEdges();
  highlightAdjacentNodes();
});
]]></script>
</svg>
