<?xml version="1.0" encoding="UTF-8" standalone="no"?>
<!DOCTYPE svg PUBLIC "-//W3C//DTD SVG 1.1//EN"
 "http://www.w3.org/Graphics/SVG/1.1/DTD/svg11.dtd">
<!-- Generated by graphviz version 14.1.1 (20251213.1925)
 -->
<!-- Title: src/view/RelationshipRenderer.cpp Pages: 1 -->
<!--zoomable 252 -->

<svg id="main" version="1.1" xmlns="http://www.w3.org/2000/svg" xmlns:xlink="http://www.w3.org/1999/xlink" xml:space="preserve" onload="init(evt)">

<style type="text/css"><![CDATA[
.node, .edge {opacity: 0.7;}
.node.selected, .edge.selected {opacity: 1;}
.edge:hover path { stroke: red; }
.edge:hover polygon { stroke: red; fill: red; }
]]></style>

<defs>
  <circle id="rim" cx="0" cy="0" r="7"/>
  <circle id="rim2" cx="0" cy="0" r="3.5"/>
  <g id="zoomPlus">
    <use xlink:href="#rim" fill="#404040"><set attributeName="fill" to="#808080" begin="zoomplus.mouseover" end="zoomplus.mouseout"/></use>
    <path d="M-4,0h8M0,-4v8" fill="none" stroke="white" stroke-width="1.5" pointer-events="none"/>
  </g>
  <g id="zoomMin">
    <use xlink:href="#rim" fill="#404040"><set attributeName="fill" to="#808080" begin="zoomminus.mouseover" end="zoomminus.mouseout"/></use>
    <path d="M-4,0h8" fill="none" stroke="white" stroke-width="1.5" pointer-events="none"/>
  </g>
  <g id="arrowUp" transform="translate(30 24)">
    <use xlink:href="#rim"/>
    <path pointer-events="none" fill="none" stroke="white" stroke-width="1.5" d="M0,-3.0v7 M-2.5,-0.5L0,-3.0L2.5,-0.5"/>
  </g>
  <g id="arrowRight" transform="rotate(90) translate(36 -43)">
    <use xlink:href="#rim"/>
    <path pointer-events="none" fill="none" stroke="white" stroke-width="1.5" d="M0,-3.0v7 M-2.5,-0.5L0,-3.0L2.5,-0.5"/>
  </g>
  <g id="arrowDown" transform="rotate(180) translate(-30 -48)">
    <use xlink:href="#rim"/>
    <path pointer-events="none" fill="none" stroke="white" stroke-width="1.5" d="M0,-3.0v7 M-2.5,-0.5L0,-3.0L2.5,-0.5"/>
  </g>
  <g id="arrowLeft" transform="rotate(270) translate(-36 17)">
    <use xlink:href="#rim"/>
    <path pointer-events="none" fill="none" stroke="white" stroke-width="1.5" d="M0,-3.0v7 M-2.5,-0.5L0,-3.0L2.5,-0.5"/>
  </g>
  <g id="resetDef">
    <use xlink:href="#rim2" fill="#404040"><set attributeName="fill" to="#808080" begin="reset.mouseover" end="reset.mouseout"/></use>
  </g>
</defs>
<script type="application/ecmascript">
var viewWidth = 1104;
var viewHeight = 252;
var sectionId = 'dynsection-0';
</script>
<script type="application/ecmascript" xlink:href="svg.min.js"/>
<svg id="graph" class="graph">
<g id="viewport">
<title>src/view/RelationshipRenderer.cpp</title>
<!-- Node1 -->
<g id="Node000001" class="node">
<title>Node1</title>
<g id="a_Node000001"><a xlink:title=" ">
<polygon fill="#999999" stroke="#666666" points="638.09,-244 469.84,-244 469.84,-224 638.09,-224 638.09,-244"/>
<text xml:space="preserve" text-anchor="middle" x="553.96" y="-230.5" font-family="Helvetica,sans-Serif" font-size="10.00">src/view/RelationshipRenderer.cpp</text>
</a>
</g>
</g>
<!-- Node2 -->
<g id="Node000002" class="node">
<title>Node2</title>
<g id="a_Node000002"><a xlink:href="_relationship_renderer_8h.html" target="_top" xlink:title=" ">
<polygon fill="white" stroke="#666666" points="292.96,-188 174.96,-188 174.96,-168 292.96,-168 292.96,-188"/>
<text xml:space="preserve" text-anchor="middle" x="233.96" y="-174.5" font-family="Helvetica,sans-Serif" font-size="10.00">RelationshipRenderer.h</text>
</a>
</g>
</g>
<!-- Node1&#45;&gt;Node2 -->
<g id="edge1_Node000001_Node000002" class="edge">
<title>Node1&#45;&gt;Node2</title>
<g id="a_edge1_Node000001_Node000002"><a xlink:title=" ">
<path fill="none" stroke="#63b8ff" d="M497.85,-223.53C443.07,-214.29 359.66,-200.21 301.32,-190.37"/>
<polygon fill="#63b8ff" stroke="#63b8ff" points="301.94,-186.92 291.49,-188.71 300.77,-193.82 301.94,-186.92"/>
</a>
</g>
</g>
<!-- Node4 -->
<g id="Node000004" class="node">
<title>Node4</title>
<g id="a_Node000004"><a xlink:title=" ">
<polygon fill="#e0e0e0" stroke="#999999" points="150.34,-76 67.59,-76 67.59,-56 150.34,-56 150.34,-76"/>
<text xml:space="preserve" text-anchor="middle" x="108.96" y="-62.5" font-family="Helvetica,sans-Serif" font-size="10.00">QtGui/QPainter</text>
</a>
</g>
</g>
<!-- Node1&#45;&gt;Node4 -->
<g id="edge31_Node000001_Node000004" class="edge">
<title>Node1&#45;&gt;Node4</title>
<g id="a_edge31_Node000001_Node000004"><a xlink:title=" ">
<path fill="none" stroke="#63b8ff" d="M469.5,-231.12C329.08,-225.91 57.74,-206.25 4.96,-132 -12.8,-107.02 22.28,-89.59 56.4,-79.11"/>
<polygon fill="#63b8ff" stroke="#63b8ff" points="57.28,-82.49 65.93,-76.36 55.35,-75.77 57.28,-82.49"/>
</a>
</g>
</g>
<!-- Node5 -->
<g id="Node000005" class="node">
<title>Node5</title>
<g id="a_Node000005"><a xlink:title=" ">
<polygon fill="#e0e0e0" stroke="#999999" points="362.46,-76 277.46,-76 277.46,-56 362.46,-56 362.46,-76"/>
<text xml:space="preserve" text-anchor="middle" x="319.96" y="-62.5" font-family="Helvetica,sans-Serif" font-size="10.00">QtCore/QRectF</text>
</a>
</g>
</g>
<!-- Node1&#45;&gt;Node5 -->
<g id="edge32_Node000001_Node000005" class="edge">
<title>Node1&#45;&gt;Node5</title>
<g id="a_edge32_Node000001_Node000005"><a xlink:title=" ">
<path fill="none" stroke="#63b8ff" d="M542.81,-223.72C517.45,-202.77 453.22,-150.68 395.96,-112 380.21,-101.36 361.9,-90.48 347.2,-82.08"/>
<polygon fill="#63b8ff" stroke="#63b8ff" points="348.97,-79.06 338.54,-77.19 345.52,-85.15 348.97,-79.06"/>
</a>
</g>
</g>
<!-- Node10 -->
<g id="Node000010" class="node">
<title>Node10</title>
<g id="a_Node000010"><a xlink:href="_basic_element_8h.html" target="_top" xlink:title=" ">
<polygon fill="white" stroke="#666666" points="693.09,-132 578.84,-132 578.84,-112 693.09,-112 693.09,-132"/>
<text xml:space="preserve" text-anchor="middle" x="635.96" y="-118.5" font-family="Helvetica,sans-Serif" font-size="10.00">model/BasicElement.h</text>
</a>
</g>
</g>
<!-- Node1&#45;&gt;Node10 -->
<g id="edge9_Node000001_Node000010" class="edge">
<title>Node1&#45;&gt;Node10</title>
<g id="a_edge9_Node000001_Node000010"><a xlink:title=" ">
<path fill="none" stroke="#63b8ff" d="M554.75,-223.78C556.29,-210.38 560.71,-185.25 572.96,-168 581.65,-155.76 594.76,-145.63 606.77,-138.1"/>
<polygon fill="#63b8ff" stroke="#63b8ff" points="608.32,-141.25 615.17,-133.17 604.78,-135.21 608.32,-141.25"/>
</a>
</g>
</g>
<!-- Node19 -->
<g id="Node000019" class="node">
<title>Node19</title>
<g id="a_Node000019"><a xlink:href="_relationship_8h.html" target="_top" xlink:title=" ">
<polygon fill="white" stroke="#666666" points="689.71,-188 582.21,-188 582.21,-168 689.71,-168 689.71,-188"/>
<text xml:space="preserve" text-anchor="middle" x="635.96" y="-174.5" font-family="Helvetica,sans-Serif" font-size="10.00">model/Relationship.h</text>
</a>
</g>
</g>
<!-- Node1&#45;&gt;Node19 -->
<g id="edge24_Node000001_Node000019" class="edge">
<title>Node1&#45;&gt;Node19</title>
<g id="a_edge24_Node000001_Node000019"><a xlink:title=" ">
<path fill="none" stroke="#63b8ff" d="M568.24,-223.59C580.4,-215.59 598.1,-203.93 612.36,-194.54"/>
<polygon fill="#63b8ff" stroke="#63b8ff" points="613.87,-197.73 620.3,-189.31 610.02,-191.89 613.87,-197.73"/>
</a>
</g>
</g>
<!-- Node22 -->
<g id="Node000022" class="node">
<title>Node22</title>
<g id="a_Node000022"><a xlink:title=" ">
<polygon fill="#e0e0e0" stroke="#999999" points="811.84,-188 708.09,-188 708.09,-168 811.84,-168 811.84,-188"/>
<text xml:space="preserve" text-anchor="middle" x="759.96" y="-174.5" font-family="Helvetica,sans-Serif" font-size="10.00">QtGui/QFontMetrics</text>
</a>
</g>
</g>
<!-- Node1&#45;&gt;Node22 -->
<g id="edge30_Node000001_Node000022" class="edge">
<title>Node1&#45;&gt;Node22</title>
<g id="a_edge30_Node000001_Node000022"><a xlink:title=" ">
<path fill="none" stroke="#63b8ff" d="M589.84,-223.59C623.9,-214.67 675.29,-201.19 712.68,-191.39"/>
<polygon fill="#63b8ff" stroke="#63b8ff" points="713.55,-194.78 722.33,-188.86 711.77,-188.01 713.55,-194.78"/>
</a>
</g>
</g>
<!-- Node23 -->
<g id="Node000023" class="node">
<title>Node23</title>
<g id="a_Node000023"><a xlink:title=" ">
<polygon fill="#e0e0e0" stroke="#999999" points="915.84,-188 830.09,-188 830.09,-168 915.84,-168 915.84,-188"/>
<text xml:space="preserve" text-anchor="middle" x="872.96" y="-174.5" font-family="Helvetica,sans-Serif" font-size="10.00">QtCore/qmath.h</text>
</a>
</g>
</g>
<!-- Node1&#45;&gt;Node23 -->
<g id="edge33_Node000001_Node000023" class="edge">
<title>Node1&#45;&gt;Node23</title>
<g id="a_edge33_Node000001_Node000023"><a xlink:title=" ">
<path fill="none" stroke="#63b8ff" d="M610.75,-223.5C662.38,-214.85 740.99,-201.64 818.85,-188.35"/>
<polygon fill="#63b8ff" stroke="#63b8ff" points="819.07,-191.87 828.34,-186.73 817.89,-184.97 819.07,-191.87"/>
</a>
</g>
</g>
<!-- Node3 -->
<g id="Node000003" class="node">
<title>Node3</title>
<g id="a_Node000003"><a xlink:href="_element_renderer_8h.html" target="_top" xlink:title=" ">
<polygon fill="white" stroke="#666666" points="386.96,-132 286.96,-132 286.96,-112 386.96,-112 386.96,-132"/>
<text xml:space="preserve" text-anchor="middle" x="336.96" y="-118.5" font-family="Helvetica,sans-Serif" font-size="10.00">ElementRenderer.h</text>
</a>
</g>
</g>
<!-- Node2&#45;&gt;Node3 -->
<g id="edge2_Node000002_Node000003" class="edge">
<title>Node2&#45;&gt;Node3</title>
<g id="a_edge2_Node000002_Node000003"><a xlink:title=" ">
<path fill="none" stroke="#63b8ff" d="M251.9,-167.59C267.61,-159.36 290.69,-147.26 308.85,-137.74"/>
<polygon fill="#63b8ff" stroke="#63b8ff" points="310.31,-140.93 317.54,-133.18 307.06,-134.73 310.31,-140.93"/>
</a>
</g>
</g>
<!-- Node7 -->
<g id="Node000007" class="node">
<title>Node7</title>
<g id="a_Node000007"><a xlink:title=" ">
<polygon fill="#e0e0e0" stroke="#999999" points="85.71,-132 14.21,-132 14.21,-112 85.71,-112 85.71,-132"/>
<text xml:space="preserve" text-anchor="middle" x="49.96" y="-118.5" font-family="Helvetica,sans-Serif" font-size="10.00">QtGui/QFont</text>
</a>
</g>
</g>
<!-- Node2&#45;&gt;Node7 -->
<g id="edge6_Node000002_Node000007" class="edge">
<title>Node2&#45;&gt;Node7</title>
<g id="a_edge6_Node000002_Node000007"><a xlink:title=" ">
<path fill="none" stroke="#63b8ff" d="M201.91,-167.59C171.75,-158.74 126.37,-145.43 93.06,-135.65"/>
<polygon fill="#63b8ff" stroke="#63b8ff" points="94.29,-132.36 83.71,-132.91 92.32,-139.08 94.29,-132.36"/>
</a>
</g>
</g>
<!-- Node8 -->
<g id="Node000008" class="node">
<title>Node8</title>
<g id="a_Node000008"><a xlink:title=" ">
<polygon fill="#e0e0e0" stroke="#999999" points="181.71,-132 104.21,-132 104.21,-112 181.71,-112 181.71,-132"/>
<text xml:space="preserve" text-anchor="middle" x="142.96" y="-118.5" font-family="Helvetica,sans-Serif" font-size="10.00">QtGui/QBrush</text>
</a>
</g>
</g>
<!-- Node2&#45;&gt;Node8 -->
<g id="edge7_Node000002_Node000008" class="edge">
<title>Node2&#45;&gt;Node8</title>
<g id="a_edge7_Node000002_Node000008"><a xlink:title=" ">
<path fill="none" stroke="#63b8ff" d="M218.11,-167.59C204.49,-159.51 184.6,-147.71 168.7,-138.27"/>
<polygon fill="#63b8ff" stroke="#63b8ff" points="170.62,-135.35 160.24,-133.25 167.05,-141.37 170.62,-135.35"/>
</a>
</g>
</g>
<!-- Node9 -->
<g id="Node000009" class="node">
<title>Node9</title>
<g id="a_Node000009"><a xlink:title=" ">
<polygon fill="#e0e0e0" stroke="#999999" points="268.59,-132 199.34,-132 199.34,-112 268.59,-112 268.59,-132"/>
<text xml:space="preserve" text-anchor="middle" x="233.96" y="-118.5" font-family="Helvetica,sans-Serif" font-size="10.00">QtGui/QPen</text>
</a>
</g>
</g>
<!-- Node2&#45;&gt;Node9 -->
<g id="edge8_Node000002_Node000009" class="edge">
<title>Node2&#45;&gt;Node9</title>
<g id="a_edge8_Node000002_Node000009"><a xlink:title=" ">
<path fill="none" stroke="#63b8ff" d="M233.96,-167.59C233.96,-161.01 233.96,-151.96 233.96,-143.73"/>
<polygon fill="#63b8ff" stroke="#63b8ff" points="237.46,-143.81 233.96,-133.81 230.46,-143.81 237.46,-143.81"/>
</a>
</g>
</g>
<!-- Node3&#45;&gt;Node4 -->
<g id="edge3_Node000003_Node000004" class="edge">
<title>Node3&#45;&gt;Node4</title>
<g id="a_edge3_Node000003_Node000004"><a xlink:title=" ">
<path fill="none" stroke="#63b8ff" d="M296.98,-111.53C258.85,-102.5 201.24,-88.85 159.84,-79.05"/>
<polygon fill="#63b8ff" stroke="#63b8ff" points="160.9,-75.7 150.36,-76.81 159.29,-82.52 160.9,-75.7"/>
</a>
</g>
</g>
<!-- Node3&#45;&gt;Node5 -->
<g id="edge4_Node000003_Node000005" class="edge">
<title>Node3&#45;&gt;Node5</title>
<g id="a_edge4_Node000003_Node000005"><a xlink:title=" ">
<path fill="none" stroke="#63b8ff" d="M334,-111.59C331.88,-104.86 328.94,-95.53 326.3,-87.15"/>
<polygon fill="#63b8ff" stroke="#63b8ff" points="329.68,-86.23 323.34,-77.74 323.01,-88.33 329.68,-86.23"/>
</a>
</g>
</g>
<!-- Node6 -->
<g id="Node000006" class="node">
<title>Node6</title>
<g id="a_Node000006"><a xlink:title=" ">
<polygon fill="#e0e0e0" stroke="#999999" points="434.21,-20 347.71,-20 347.71,0 434.21,0 434.21,-20"/>
<text xml:space="preserve" text-anchor="middle" x="390.96" y="-6.5" font-family="Helvetica,sans-Serif" font-size="10.00">QtCore/QPointF</text>
</a>
</g>
</g>
<!-- Node3&#45;&gt;Node6 -->
<g id="edge5_Node000003_Node000006" class="edge">
<title>Node3&#45;&gt;Node6</title>
<g id="a_edge5_Node000003_Node000006"><a xlink:title=" ">
<path fill="none" stroke="#63b8ff" d="M313.4,-111.69C287.62,-100.07 251.93,-78.93 267.96,-56 283.51,-33.76 311.29,-22.47 336.52,-16.77"/>
<polygon fill="#63b8ff" stroke="#63b8ff" points="336.9,-20.26 346.02,-14.87 335.53,-13.39 336.9,-20.26"/>
</a>
</g>
</g>
<!-- Node10&#45;&gt;Node5 -->
<g id="edge13_Node000010_Node000005" class="edge">
<title>Node10&#45;&gt;Node5</title>
<g id="a_edge13_Node000010_Node000005"><a xlink:title=" ">
<path fill="none" stroke="#63b8ff" d="M580.56,-111.53C522.31,-101.58 431.29,-86.02 373.68,-76.18"/>
<polygon fill="#63b8ff" stroke="#63b8ff" points="374.57,-72.78 364.12,-74.55 373.39,-79.68 374.57,-72.78"/>
</a>
</g>
</g>
<!-- Node10&#45;&gt;Node6 -->
<g id="edge12_Node000010_Node000006" class="edge">
<title>Node10&#45;&gt;Node6</title>
<g id="a_edge12_Node000010_Node000006"><a xlink:title=" ">
<path fill="none" stroke="#63b8ff" d="M578.48,-116.3C519.84,-110.36 434.12,-98.12 409.96,-76 397.62,-64.7 393.13,-45.88 391.57,-31.39"/>
<polygon fill="#63b8ff" stroke="#63b8ff" points="395.08,-31.33 390.94,-21.58 388.09,-31.78 395.08,-31.33"/>
</a>
</g>
</g>
<!-- Node11 -->
<g id="Node000011" class="node">
<title>Node11</title>
<g id="a_Node000011"><a xlink:title=" ">
<polygon fill="#e0e0e0" stroke="#999999" points="968.59,-76 887.34,-76 887.34,-56 968.59,-56 968.59,-76"/>
<text xml:space="preserve" text-anchor="middle" x="927.96" y="-62.5" font-family="Helvetica,sans-Serif" font-size="10.00">QtCore/QHash</text>
</a>
</g>
</g>
<!-- Node10&#45;&gt;Node11 -->
<g id="edge10_Node000010_Node000011" class="edge">
<title>Node10&#45;&gt;Node11</title>
<g id="a_edge10_Node000010_Node000011"><a xlink:title=" ">
<path fill="none" stroke="#63b8ff" d="M687.16,-111.53C740.19,-101.73 822.61,-86.48 875.94,-76.62"/>
<polygon fill="#63b8ff" stroke="#63b8ff" points="876.5,-80.08 885.7,-74.82 875.23,-73.19 876.5,-80.08"/>
</a>
</g>
</g>
<!-- Node12 -->
<g id="Node000012" class="node">
<title>Node12</title>
<g id="a_Node000012"><a xlink:title=" ">
<polygon fill="#e0e0e0" stroke="#999999" points="902.21,-20 815.71,-20 815.71,0 902.21,0 902.21,-20"/>
<text xml:space="preserve" text-anchor="middle" x="858.96" y="-6.5" font-family="Helvetica,sans-Serif" font-size="10.00">QtCore/QObject</text>
</a>
</g>
</g>
<!-- Node10&#45;&gt;Node12 -->
<g id="edge11_Node000010_Node000012" class="edge">
<title>Node10&#45;&gt;Node12</title>
<g id="a_edge11_Node000010_Node000012"><a xlink:title=" ">
<path fill="none" stroke="#63b8ff" d="M692.63,-111.54C749.17,-101.62 829.15,-86.11 839.96,-76 852.05,-64.7 856.59,-46.17 858.23,-31.78"/>
<polygon fill="#63b8ff" stroke="#63b8ff" points="861.7,-32.22 858.93,-22 854.72,-31.73 861.7,-32.22"/>
</a>
</g>
</g>
<!-- Node13 -->
<g id="Node000013" class="node">
<title>Node13</title>
<g id="a_Node000013"><a xlink:title=" ">
<polygon fill="#e0e0e0" stroke="#999999" points="1075.71,-20 992.21,-20 992.21,0 1075.71,0 1075.71,-20"/>
<text xml:space="preserve" text-anchor="middle" x="1033.96" y="-6.5" font-family="Helvetica,sans-Serif" font-size="10.00">QtCore/QString</text>
</a>
</g>
</g>
<!-- Node10&#45;&gt;Node13 -->
<g id="edge14_Node000010_Node000013" class="edge">
<title>Node10&#45;&gt;Node13</title>
<g id="a_edge14_Node000010_Node000013"><a xlink:title=" ">
<path fill="none" stroke="#63b8ff" d="M693.53,-113C696.38,-112.65 699.2,-112.32 701.96,-112 745.09,-107.07 1061.72,-108.08 1090.96,-76 1106.32,-59.15 1083.37,-39.4 1062.18,-26.14"/>
<polygon fill="#63b8ff" stroke="#63b8ff" points="1064.09,-23.2 1053.7,-21.13 1060.53,-29.23 1064.09,-23.2"/>
</a>
</g>
</g>
<!-- Node14 -->
<g id="Node000014" class="node">
<title>Node14</title>
<g id="a_Node000014"><a xlink:title=" ">
<polygon fill="#e0e0e0" stroke="#999999" points="502.71,-76 419.21,-76 419.21,-56 502.71,-56 502.71,-76"/>
<text xml:space="preserve" text-anchor="middle" x="460.96" y="-62.5" font-family="Helvetica,sans-Serif" font-size="10.00">QtCore/QSizeF</text>
</a>
</g>
</g>
<!-- Node10&#45;&gt;Node14 -->
<g id="edge15_Node000010_Node000014" class="edge">
<title>Node10&#45;&gt;Node14</title>
<g id="a_edge15_Node000010_Node000014"><a xlink:title=" ">
<path fill="none" stroke="#63b8ff" d="M605.48,-111.59C576.92,-102.78 534.01,-89.54 502.36,-79.78"/>
<polygon fill="#63b8ff" stroke="#63b8ff" points="503.71,-76.53 493.13,-76.93 501.65,-83.22 503.71,-76.53"/>
</a>
</g>
</g>
<!-- Node15 -->
<g id="Node000015" class="node">
<title>Node15</title>
<g id="a_Node000015"><a xlink:title=" ">
<polygon fill="#e0e0e0" stroke="#999999" points="772.09,-20 693.84,-20 693.84,0 772.09,0 772.09,-20"/>
<text xml:space="preserve" text-anchor="middle" x="732.96" y="-6.5" font-family="Helvetica,sans-Serif" font-size="10.00">QtCore/QUuid</text>
</a>
</g>
</g>
<!-- Node10&#45;&gt;Node15 -->
<g id="edge16_Node000010_Node000015" class="edge">
<title>Node10&#45;&gt;Node15</title>
<g id="a_edge16_Node000010_Node000015"><a xlink:title=" ">
<path fill="none" stroke="#63b8ff" d="M648.3,-111.78C659.36,-103.19 675.68,-89.68 687.96,-76 700.84,-61.65 713.13,-43.48 721.6,-30"/>
<polygon fill="#63b8ff" stroke="#63b8ff" points="724.48,-32.01 726.73,-21.65 718.51,-28.35 724.48,-32.01"/>
</a>
</g>
</g>
<!-- Node16 -->
<g id="Node000016" class="node">
<title>Node16</title>
<g id="a_Node000016"><a xlink:title=" ">
<polygon fill="#e0e0e0" stroke="#999999" points="608.96,-76 520.96,-76 520.96,-56 608.96,-56 608.96,-76"/>
<text xml:space="preserve" text-anchor="middle" x="564.96" y="-62.5" font-family="Helvetica,sans-Serif" font-size="10.00">QtCore/QVariant</text>
</a>
</g>
</g>
<!-- Node10&#45;&gt;Node16 -->
<g id="edge17_Node000010_Node000016" class="edge">
<title>Node10&#45;&gt;Node16</title>
<g id="a_edge17_Node000010_Node000016"><a xlink:title=" ">
<path fill="none" stroke="#63b8ff" d="M623.59,-111.59C613.31,-103.77 598.44,-92.46 586.25,-83.19"/>
<polygon fill="#63b8ff" stroke="#63b8ff" points="588.47,-80.48 578.39,-77.21 584.23,-86.05 588.47,-80.48"/>
</a>
</g>
</g>
<!-- Node17 -->
<g id="Node000017" class="node">
<title>Node17</title>
<g id="a_Node000017"><a xlink:title=" ">
<polygon fill="#e0e0e0" stroke="#999999" points="678.59,-76 627.34,-76 627.34,-56 678.59,-56 678.59,-76"/>
<text xml:space="preserve" text-anchor="middle" x="652.96" y="-62.5" font-family="Helvetica,sans-Serif" font-size="10.00">memory</text>
</a>
</g>
</g>
<!-- Node10&#45;&gt;Node17 -->
<g id="edge18_Node000010_Node000017" class="edge">
<title>Node10&#45;&gt;Node17</title>
<g id="a_edge18_Node000010_Node000017"><a xlink:title=" ">
<path fill="none" stroke="#63b8ff" d="M638.92,-111.59C641.04,-104.86 643.98,-95.53 646.62,-87.15"/>
<polygon fill="#63b8ff" stroke="#63b8ff" points="649.91,-88.33 649.58,-77.74 643.24,-86.23 649.91,-88.33"/>
</a>
</g>
</g>
<!-- Node18 -->
<g id="Node000018" class="node">
<title>Node18</title>
<g id="a_Node000018"><a xlink:href="_connection_point_8h.html" target="_top" xlink:title=" ">
<polygon fill="white" stroke="#666666" points="831.09,-76 734.84,-76 734.84,-56 831.09,-56 831.09,-76"/>
<text xml:space="preserve" text-anchor="middle" x="782.96" y="-62.5" font-family="Helvetica,sans-Serif" font-size="10.00">ConnectionPoint.h</text>
</a>
</g>
</g>
<!-- Node10&#45;&gt;Node18 -->
<g id="edge19_Node000010_Node000018" class="edge">
<title>Node10&#45;&gt;Node18</title>
<g id="a_edge19_Node000010_Node000018"><a xlink:title=" ">
<path fill="none" stroke="#63b8ff" d="M661.57,-111.59C685.03,-102.97 720.03,-90.12 746.43,-80.42"/>
<polygon fill="#63b8ff" stroke="#63b8ff" points="747.55,-83.73 755.73,-77 745.14,-77.16 747.55,-83.73"/>
</a>
</g>
</g>
<!-- Node18&#45;&gt;Node6 -->
<g id="edge21_Node000018_Node000006" class="edge">
<title>Node18&#45;&gt;Node6</title>
<g id="a_edge21_Node000018_Node000006"><a xlink:title=" ">
<path fill="none" stroke="#63b8ff" d="M734.5,-58.32C661.24,-48.23 522.7,-29.15 445.83,-18.56"/>
<polygon fill="#63b8ff" stroke="#63b8ff" points="446.38,-15.1 436,-17.2 445.43,-22.04 446.38,-15.1"/>
</a>
</g>
</g>
<!-- Node18&#45;&gt;Node12 -->
<g id="edge20_Node000018_Node000012" class="edge">
<title>Node18&#45;&gt;Node12</title>
<g id="a_edge20_Node000018_Node000012"><a xlink:title=" ">
<path fill="none" stroke="#63b8ff" d="M796.2,-55.59C807.25,-47.74 823.24,-36.38 836.32,-27.09"/>
<polygon fill="#63b8ff" stroke="#63b8ff" points="838.26,-30 844.39,-21.36 834.21,-24.3 838.26,-30"/>
</a>
</g>
</g>
<!-- Node18&#45;&gt;Node13 -->
<g id="edge22_Node000018_Node000013" class="edge">
<title>Node18&#45;&gt;Node13</title>
<g id="a_edge22_Node000018_Node000013"><a xlink:title=" ">
<path fill="none" stroke="#63b8ff" d="M826.97,-55.53C869.87,-46.3 935.16,-32.26 980.91,-22.41"/>
<polygon fill="#63b8ff" stroke="#63b8ff" points="981.57,-25.85 990.61,-20.33 980.1,-19.01 981.57,-25.85"/>
</a>
</g>
</g>
<!-- Node18&#45;&gt;Node15 -->
<g id="edge23_Node000018_Node000015" class="edge">
<title>Node18&#45;&gt;Node15</title>
<g id="a_edge23_Node000018_Node000015"><a xlink:title=" ">
<path fill="none" stroke="#63b8ff" d="M774.25,-55.59C767.37,-48.16 757.57,-37.58 749.24,-28.58"/>
<polygon fill="#63b8ff" stroke="#63b8ff" points="751.96,-26.37 742.6,-21.41 746.82,-31.12 751.96,-26.37"/>
</a>
</g>
</g>
<!-- Node19&#45;&gt;Node10 -->
<g id="edge25_Node000019_Node000010" class="edge">
<title>Node19&#45;&gt;Node10</title>
<g id="a_edge25_Node000019_Node000010"><a xlink:title=" ">
<path fill="none" stroke="#63b8ff" d="M635.96,-167.59C635.96,-161.01 635.96,-151.96 635.96,-143.73"/>
<polygon fill="#63b8ff" stroke="#63b8ff" points="639.46,-143.81 635.96,-133.81 632.46,-143.81 639.46,-143.81"/>
</a>
</g>
</g>
<!-- Node20 -->
<g id="Node000020" class="node">
<title>Node20</title>
<g id="a_Node000020"><a xlink:href="_relationship_end_8h.html" target="_top" xlink:title=" ">
<polygon fill="white" stroke="#666666" points="1081.71,-76 986.21,-76 986.21,-56 1081.71,-56 1081.71,-76"/>
<text xml:space="preserve" text-anchor="middle" x="1033.96" y="-62.5" font-family="Helvetica,sans-Serif" font-size="10.00">RelationshipEnd.h</text>
</a>
</g>
</g>
<!-- Node19&#45;&gt;Node20 -->
<g id="edge26_Node000019_Node000020" class="edge">
<title>Node19&#45;&gt;Node20</title>
<g id="a_edge26_Node000019_Node000020"><a xlink:title=" ">
<path fill="none" stroke="#63b8ff" d="M670.24,-167.53C742.09,-147.67 908.48,-101.68 988.87,-79.46"/>
<polygon fill="#63b8ff" stroke="#63b8ff" points="989.46,-82.93 998.17,-76.89 987.59,-76.18 989.46,-82.93"/>
</a>
</g>
</g>
<!-- Node21 -->
<g id="Node000021" class="node">
<title>Node21</title>
<g id="a_Node000021"><a xlink:title=" ">
<polygon fill="#e0e0e0" stroke="#999999" points="784.84,-132 711.09,-132 711.09,-112 784.84,-112 784.84,-132"/>
<text xml:space="preserve" text-anchor="middle" x="747.96" y="-118.5" font-family="Helvetica,sans-Serif" font-size="10.00">QtCore/QList</text>
</a>
</g>
</g>
<!-- Node19&#45;&gt;Node21 -->
<g id="edge29_Node000019_Node000021" class="edge">
<title>Node19&#45;&gt;Node21</title>
<g id="a_edge29_Node000019_Node000021"><a xlink:title=" ">
<path fill="none" stroke="#63b8ff" d="M655.47,-167.59C672.71,-159.28 698.12,-147.03 717.95,-137.47"/>
<polygon fill="#63b8ff" stroke="#63b8ff" points="719.45,-140.63 726.94,-133.14 716.41,-134.33 719.45,-140.63"/>
</a>
</g>
</g>
<!-- Node20&#45;&gt;Node12 -->
<g id="edge27_Node000020_Node000012" class="edge">
<title>Node20&#45;&gt;Node12</title>
<g id="a_edge27_Node000020_Node000012"><a xlink:title=" ">
<path fill="none" stroke="#63b8ff" d="M1003.48,-55.59C974.92,-46.78 932.01,-33.54 900.36,-23.78"/>
<polygon fill="#63b8ff" stroke="#63b8ff" points="901.71,-20.53 891.13,-20.93 899.65,-27.22 901.71,-20.53"/>
</a>
</g>
</g>
<!-- Node20&#45;&gt;Node13 -->
<g id="edge28_Node000020_Node000013" class="edge">
<title>Node20&#45;&gt;Node13</title>
<g id="a_edge28_Node000020_Node000013"><a xlink:title=" ">
<path fill="none" stroke="#63b8ff" d="M1033.96,-55.59C1033.96,-49.01 1033.96,-39.96 1033.96,-31.73"/>
<polygon fill="#63b8ff" stroke="#63b8ff" points="1037.46,-31.81 1033.96,-21.81 1030.46,-31.81 1037.46,-31.81"/>
</a>
</g>
</g>
</g>
</svg>

<g id="navigator" transform="translate(0 0)" fill="#404254">
  <rect fill="#f2f5e9" fill-opacity="0.5" stroke="#606060" stroke-width=".5" x="0" y="0" width="60" height="60"/>
  <use id="zoomplus" xlink:href="#zoomPlus" x="17" y="9" onmousedown="handleZoom(evt,'in')"/>
  <use id="zoomminus" xlink:href="#zoomMin" x="42" y="9" onmousedown="handleZoom(evt,'out')"/>
  <use id="reset" xlink:href="#resetDef" x="30" y="36" onmousedown="handleReset()"/>
   <use id="arrowup" xlink:href="#arrowUp" x="0" y="0" onmousedown="handlePan(0,-1)"/>
  <use id="arrowright" xlink:href="#arrowRight" x="0" y="0" onmousedown="handlePan(1,0)"/>
  <use id="arrowdown" xlink:href="#arrowDown" x="0" y="0" onmousedown="handlePan(0,1)"/>
  <use id="arrowleft" xlink:href="#arrowLeft" x="0" y="0" onmousedown="handlePan(-1,0)"/>
</g>
<svg viewBox="0 0 15 15" width="100%" height="30px" preserveAspectRatio="xMaxYMin meet">
 <g id="arrow_out" transform="scale(0.3 0.3)">
  <a xlink:href="_relationship_renderer_8cpp__incl_org.svg" target="_base">
   <rect id="button" ry="5" rx="5" y="6" x="6" height="38" width="38"
        fill="#f2f5e9" fill-opacity="0.5" stroke="#606060" stroke-width="1.0"/>
   <path id="arrow"
     d="M 11.500037,31.436501 C 11.940474,20.09759 22.043105,11.32322 32.158766,21.979434 L 37.068811,17.246167 C 37.068811,17.246167 37.088388,32 37.088388,32 L 22.160133,31.978069 C 22.160133,31.978069 26.997745,27.140456 26.997745,27.140456 C 18.528582,18.264221 13.291696,25.230495 11.500037,31.436501 z"
     style="fill:#404040;"/>
  </a>
 </g>
</svg>

<style type='text/css'>
<![CDATA[
[data-mouse-over-selected='false'] { opacity: 0.7; }
[data-mouse-over-selected='true']  { opacity: 1.0; }
]]>
</style>
<script type="application/ecmascript"><![CDATA[
document.addEventListener('DOMContentLoaded', (event) => {
  highlightEdges();
  highlightAdjacentNodes();
});
]]></script>
</svg>
