<?xml version="1.0" encoding="UTF-8" standalone="no"?>
<!DOCTYPE svg PUBLIC "-//W3C//DTD SVG 1.1//EN"
 "http://www.w3.org/Graphics/SVG/1.1/DTD/svg11.dtd">
<!-- Generated by graphviz version 14.1.1 (20251213.1925)
 -->
<!-- Title: DiagramScene::~DiagramScene Pages: 1 -->
<!--zoomable 332 -->

<svg id="main" version="1.1" xmlns="http://www.w3.org/2000/svg" xmlns:xlink="http://www.w3.org/1999/xlink" xml:space="preserve" onload="init(evt)">

<style type="text/css"><![CDATA[
.node, .edge {opacity: 0.7;}
.node.selected, .edge.selected {opacity: 1;}
.edge:hover path { stroke: red; }
.edge:hover polygon { stroke: red; fill: red; }
]]></style>

<defs>
  <circle id="rim" cx="0" cy="0" r="7"/>
  <circle id="rim2" cx="0" cy="0" r="3.5"/>
  <g id="zoomPlus">
    <use xlink:href="#rim" fill="#404040"><set attributeName="fill" to="#808080" begin="zoomplus.mouseover" end="zoomplus.mouseout"/></use>
    <path d="M-4,0h8M0,-4v8" fill="none" stroke="white" stroke-width="1.5" pointer-events="none"/>
  </g>
  <g id="zoomMin">
    <use xlink:href="#rim" fill="#404040"><set attributeName="fill" to="#808080" begin="zoomminus.mouseover" end="zoomminus.mouseout"/></use>
    <path d="M-4,0h8" fill="none" stroke="white" stroke-width="1.5" pointer-events="none"/>
  </g>
  <g id="arrowUp" transform="translate(30 24)">
    <use xlink:href="#rim"/>
    <path pointer-events="none" fill="none" stroke="white" stroke-width="1.5" d="M0,-3.0v7 M-2.5,-0.5L0,-3.0L2.5,-0.5"/>
  </g>
  <g id="arrowRight" transform="rotate(90) translate(36 -43)">
    <use xlink:href="#rim"/>
    <path pointer-events="none" fill="none" stroke="white" stroke-width="1.5" d="M0,-3.0v7 M-2.5,-0.5L0,-3.0L2.5,-0.5"/>
  </g>
  <g id="arrowDown" transform="rotate(180) translate(-30 -48)">
    <use xlink:href="#rim"/>
    <path pointer-events="none" fill="none" stroke="white" stroke-width="1.5" d="M0,-3.0v7 M-2.5,-0.5L0,-3.0L2.5,-0.5"/>
  </g>
  <g id="arrowLeft" transform="rotate(270) translate(-36 17)">
    <use xlink:href="#rim"/>
    <path pointer-events="none" fill="none" stroke="white" stroke-width="1.5" d="M0,-3.0v7 M-2.5,-0.5L0,-3.0L2.5,-0.5"/>
  </g>
  <g id="resetDef">
    <use xlink:href="#rim2" fill="#404040"><set attributeName="fill" to="#808080" begin="reset.mouseover" end="reset.mouseout"/></use>
  </g>
</defs>
<script type="application/ecmascript">
var viewWidth = 1141;
var viewHeight = 332;
var sectionId = 'dynsection-2';
</script>
<script type="application/ecmascript" xlink:href="svg.min.js"/>
<svg id="graph" class="graph">
<g id="viewport">
<title>DiagramScene::~DiagramScene</title>
<!-- Node1 -->
<g id="Node000001" class="node">
<title>Node1</title>
<g id="a_Node000001"><a xlink:title=" ">
<polygon fill="#999999" stroke="#666666" points="157,-218 0,-218 0,-198 157,-198 157,-218"/>
<text xml:space="preserve" text-anchor="middle" x="78.5" y="-204.5" font-family="Helvetica,sans-Serif" font-size="10.00">DiagramScene::~DiagramScene</text>
</a>
</g>
</g>
<!-- Node2 -->
<g id="Node000002" class="node">
<title>Node2</title>
<g id="a_Node000002"><a xlink:href="class_diagram_scene.html#a0c02f289dea7872eae24bb2c0f91d5ea" target="_top" xlink:title=" ">
<polygon fill="white" stroke="#666666" points="337.25,-218 193,-218 193,-198 337.25,-198 337.25,-218"/>
<text xml:space="preserve" text-anchor="middle" x="265.12" y="-204.5" font-family="Helvetica,sans-Serif" font-size="10.00">DiagramScene::clearDiagram</text>
</a>
</g>
</g>
<!-- Node1&#45;&gt;Node2 -->
<g id="edge1_Node000001_Node000002" class="edge">
<title>Node1&#45;&gt;Node2</title>
<g id="a_edge1_Node000001_Node000002"><a xlink:title=" ">
<path fill="none" stroke="#63b8ff" d="M157.26,-208C165.23,-208 173.35,-208 181.37,-208"/>
<polygon fill="#63b8ff" stroke="#63b8ff" points="181.11,-211.5 191.11,-208 181.11,-204.5 181.11,-211.5"/>
</a>
</g>
</g>
<!-- Node3 -->
<g id="Node000003" class="node">
<title>Node3</title>
<g id="a_Node000003"><a xlink:href="class_diagram_scene.html#a483cb75d9da2cbe30aae1f4832560a65" target="_top" xlink:title=" ">
<polygon fill="white" stroke="#666666" points="545.62,-287 381.12,-287 381.12,-267 545.62,-267 545.62,-287"/>
<text xml:space="preserve" text-anchor="middle" x="463.38" y="-273.5" font-family="Helvetica,sans-Serif" font-size="10.00">DiagramScene::cancelConnection</text>
</a>
</g>
</g>
<!-- Node2&#45;&gt;Node3 -->
<g id="edge2_Node000002_Node000003" class="edge">
<title>Node2&#45;&gt;Node3</title>
<g id="a_edge2_Node000002_Node000003"><a xlink:title=" ">
<path fill="none" stroke="#63b8ff" d="M295.93,-218.48C329.6,-230.32 384.58,-249.65 422.06,-262.83"/>
<polygon fill="#63b8ff" stroke="#63b8ff" points="420.59,-266.02 431.18,-266.03 422.91,-259.41 420.59,-266.02"/>
</a>
</g>
</g>
<!-- Node5 -->
<g id="Node000005" class="node">
<title>Node5</title>
<g id="a_Node000005"><a xlink:href="class_diagram_scene.html#add93af6ff55d3453051b8c057cd4bdcb" target="_top" xlink:title=" ">
<polygon fill="white" stroke="#666666" points="537.38,-218 389.38,-218 389.38,-198 537.38,-198 537.38,-218"/>
<text xml:space="preserve" text-anchor="middle" x="463.38" y="-204.5" font-family="Helvetica,sans-Serif" font-size="10.00">DiagramScene::clearSelection</text>
</a>
</g>
</g>
<!-- Node2&#45;&gt;Node5 -->
<g id="edge4_Node000002_Node000005" class="edge">
<title>Node2&#45;&gt;Node5</title>
<g id="a_edge4_Node000002_Node000005"><a xlink:title=" ">
<path fill="none" stroke="#63b8ff" d="M337.53,-208C350.63,-208 364.42,-208 377.86,-208"/>
<polygon fill="#63b8ff" stroke="#63b8ff" points="377.53,-211.5 387.53,-208 377.53,-204.5 377.53,-211.5"/>
</a>
</g>
</g>
<!-- Node17 -->
<g id="Node000017" class="node">
<title>Node17</title>
<g id="a_Node000017"><a xlink:href="class_diagram_scene.html#aefcfbcad98610038563584daf41c6baf" target="_top" xlink:title=" ">
<polygon fill="white" stroke="#666666" points="553.5,-180 373.25,-180 373.25,-160 553.5,-160 553.5,-180"/>
<text xml:space="preserve" text-anchor="middle" x="463.38" y="-166.5" font-family="Helvetica,sans-Serif" font-size="10.00">DiagramScene::destroySelectionRect</text>
</a>
</g>
</g>
<!-- Node2&#45;&gt;Node17 -->
<g id="edge18_Node000002_Node000017" class="edge">
<title>Node2&#45;&gt;Node17</title>
<g id="a_edge18_Node000002_Node000017"><a xlink:title=" ">
<path fill="none" stroke="#63b8ff" d="M320.27,-197.52C344.08,-192.91 372.25,-187.45 397.2,-182.62"/>
<polygon fill="#63b8ff" stroke="#63b8ff" points="397.77,-186.08 406.92,-180.74 396.44,-179.2 397.77,-186.08"/>
</a>
</g>
</g>
<!-- Node4 -->
<g id="Node000004" class="node">
<title>Node4</title>
<g id="a_Node000004"><a xlink:href="class_diagram_scene.html#a12b2e24143d976ca11461361876b3892" target="_top" xlink:title=" ">
<polygon fill="white" stroke="#666666" points="737.5,-324 603.75,-324 603.75,-292 737.5,-292 737.5,-324"/>
<text xml:space="preserve" text-anchor="start" x="611.75" y="-310.5" font-family="Helvetica,sans-Serif" font-size="10.00">DiagramScene::connection</text>
<text xml:space="preserve" text-anchor="middle" x="670.62" y="-298.5" font-family="Helvetica,sans-Serif" font-size="10.00">Cancelled</text>
</a>
</g>
</g>
<!-- Node3&#45;&gt;Node4 -->
<g id="edge3_Node000003_Node000004" class="edge">
<title>Node3&#45;&gt;Node4</title>
<g id="a_edge3_Node000003_Node000004"><a xlink:title=" ">
<path fill="none" stroke="#63b8ff" d="M533.86,-287.5C552.63,-290.33 573.04,-293.41 592.21,-296.31"/>
<polygon fill="#63b8ff" stroke="#63b8ff" points="591.42,-299.73 601.84,-297.76 592.47,-292.81 591.42,-299.73"/>
</a>
</g>
</g>
<!-- Node6 -->
<g id="Node000006" class="node">
<title>Node6</title>
<g id="a_Node000006"><a xlink:href="class_diagram_scene.html#a496c60851a94026b46ba80b647e4eb47" target="_top" xlink:title=" ">
<polygon fill="white" stroke="#666666" points="739.75,-274 601.5,-274 601.5,-242 739.75,-242 739.75,-274"/>
<text xml:space="preserve" text-anchor="start" x="609.5" y="-260.5" font-family="Helvetica,sans-Serif" font-size="10.00">DiagramScene::getSelected</text>
<text xml:space="preserve" text-anchor="middle" x="670.62" y="-248.5" font-family="Helvetica,sans-Serif" font-size="10.00">Connections</text>
</a>
</g>
</g>
<!-- Node5&#45;&gt;Node6 -->
<g id="edge5_Node000005_Node000006" class="edge">
<title>Node5&#45;&gt;Node6</title>
<g id="a_edge5_Node000005_Node000006"><a xlink:title=" ">
<path fill="none" stroke="#63b8ff" d="M507.4,-218.48C531.58,-224.37 562.52,-231.91 590.88,-238.82"/>
<polygon fill="#63b8ff" stroke="#63b8ff" points="590,-242.2 600.54,-241.17 591.65,-235.4 590,-242.2"/>
</a>
</g>
</g>
<!-- Node7 -->
<g id="Node000007" class="node">
<title>Node7</title>
<g id="a_Node000007"><a xlink:href="class_diagram_scene.html#aef557b645a95aaa376592146d4c6c60e" target="_top" xlink:title=" ">
<polygon fill="white" stroke="#666666" points="739.75,-224 601.5,-224 601.5,-192 739.75,-192 739.75,-224"/>
<text xml:space="preserve" text-anchor="start" x="609.5" y="-210.5" font-family="Helvetica,sans-Serif" font-size="10.00">DiagramScene::getSelected</text>
<text xml:space="preserve" text-anchor="middle" x="670.62" y="-198.5" font-family="Helvetica,sans-Serif" font-size="10.00">Elements</text>
</a>
</g>
</g>
<!-- Node5&#45;&gt;Node7 -->
<g id="edge6_Node000005_Node000007" class="edge">
<title>Node5&#45;&gt;Node7</title>
<g id="a_edge6_Node000005_Node000007"><a xlink:title=" ">
<path fill="none" stroke="#63b8ff" d="M537.61,-208C554.6,-208 572.78,-208 590.04,-208"/>
<polygon fill="#63b8ff" stroke="#63b8ff" points="589.71,-211.5 599.71,-208 589.71,-204.5 589.71,-211.5"/>
</a>
</g>
</g>
<!-- Node8 -->
<g id="Node000008" class="node">
<title>Node8</title>
<g id="a_Node000008"><a xlink:href="class_diagram_scene.html#ac7268f1b5870d5c67f54057e6638bcec" target="_top" xlink:title=" ">
<polygon fill="white" stroke="#666666" points="751.75,-174 589.5,-174 589.5,-154 751.75,-154 751.75,-174"/>
<text xml:space="preserve" text-anchor="middle" x="670.62" y="-160.5" font-family="Helvetica,sans-Serif" font-size="10.00">DiagramScene::selectConnection</text>
</a>
</g>
</g>
<!-- Node5&#45;&gt;Node8 -->
<g id="edge7_Node000005_Node000008" class="edge">
<title>Node5&#45;&gt;Node8</title>
<g id="a_edge7_Node000005_Node000008"><a xlink:title=" ">
<path fill="none" stroke="#63b8ff" d="M513.41,-197.56C526.44,-194.79 540.51,-191.78 553.5,-189 571.87,-185.06 591.87,-180.76 610.01,-176.86"/>
<polygon fill="#63b8ff" stroke="#63b8ff" points="610.52,-180.33 619.56,-174.8 609.05,-173.49 610.52,-180.33"/>
</a>
</g>
</g>
<!-- Node12 -->
<g id="Node000012" class="node">
<title>Node12</title>
<g id="a_Node000012"><a xlink:href="class_diagram_scene.html#aa7d8cdf9568c51ab910df9d5630093b7" target="_top" xlink:title=" ">
<polygon fill="white" stroke="#666666" points="745,-114 596.25,-114 596.25,-94 745,-94 745,-114"/>
<text xml:space="preserve" text-anchor="middle" x="670.62" y="-100.5" font-family="Helvetica,sans-Serif" font-size="10.00">DiagramScene::selectElement</text>
</a>
</g>
</g>
<!-- Node5&#45;&gt;Node12 -->
<g id="edge11_Node000005_Node000012" class="edge">
<title>Node5&#45;&gt;Node12</title>
<g id="a_edge11_Node000005_Node000012"><a xlink:title=" ">
<path fill="none" stroke="#63b8ff" d="M535.2,-197.62C541.62,-195.29 547.83,-192.46 553.5,-189 575.07,-175.85 569.84,-160.87 589.5,-145 602.29,-134.68 618.1,-125.92 632.28,-119.17"/>
<polygon fill="#63b8ff" stroke="#63b8ff" points="633.71,-122.37 641.36,-115.05 630.81,-116 633.71,-122.37"/>
</a>
</g>
</g>
<!-- Node9 -->
<g id="Node000009" class="node">
<title>Node9</title>
<g id="a_Node000009"><a xlink:href="class_diagram_scene.html#a5f3d68221bac825f2b027d638d25fa49" target="_top" xlink:title=" ">
<polygon fill="white" stroke="#666666" points="939.88,-252 806.12,-252 806.12,-220 939.88,-220 939.88,-252"/>
<text xml:space="preserve" text-anchor="start" x="814.12" y="-238.5" font-family="Helvetica,sans-Serif" font-size="10.00">DiagramScene::connection</text>
<text xml:space="preserve" text-anchor="middle" x="873" y="-226.5" font-family="Helvetica,sans-Serif" font-size="10.00">Deselected</text>
</a>
</g>
</g>
<!-- Node8&#45;&gt;Node9 -->
<g id="edge8_Node000008_Node000009" class="edge">
<title>Node8&#45;&gt;Node9</title>
<g id="a_edge8_Node000008_Node000009"><a xlink:title=" ">
<path fill="none" stroke="#63b8ff" d="M729.13,-174.46C736.92,-176.79 744.66,-179.6 751.75,-183 770.03,-191.76 769.72,-201.73 787.75,-211 790.77,-212.55 793.91,-214.03 797.11,-215.42"/>
<polygon fill="#63b8ff" stroke="#63b8ff" points="795.55,-218.56 806.13,-219.04 798.16,-212.07 795.55,-218.56"/>
</a>
</g>
</g>
<!-- Node10 -->
<g id="Node000010" class="node">
<title>Node10</title>
<g id="a_Node000010"><a xlink:href="class_diagram_scene.html#ac397b05d6318f8b7c9366a8b857ed98c" target="_top" xlink:title=" ">
<polygon fill="white" stroke="#666666" points="939.88,-202 806.12,-202 806.12,-170 939.88,-170 939.88,-202"/>
<text xml:space="preserve" text-anchor="start" x="814.12" y="-188.5" font-family="Helvetica,sans-Serif" font-size="10.00">DiagramScene::connection</text>
<text xml:space="preserve" text-anchor="middle" x="873" y="-176.5" font-family="Helvetica,sans-Serif" font-size="10.00">Selected</text>
</a>
</g>
</g>
<!-- Node8&#45;&gt;Node10 -->
<g id="edge9_Node000008_Node000010" class="edge">
<title>Node8&#45;&gt;Node10</title>
<g id="a_edge9_Node000008_Node000010"><a xlink:title=" ">
<path fill="none" stroke="#63b8ff" d="M751.97,-172.82C766.06,-174.37 780.7,-175.98 794.7,-177.51"/>
<polygon fill="#63b8ff" stroke="#63b8ff" points="793.95,-180.95 804.27,-178.56 794.71,-173.99 793.95,-180.95"/>
</a>
</g>
</g>
<!-- Node11 -->
<g id="Node000011" class="node">
<title>Node11</title>
<g id="a_Node000011"><a xlink:href="class_diagram_scene.html#a7dbb09a9acecc803601560e50ad720ea" target="_top" xlink:title=" ">
<polygon fill="white" stroke="#666666" points="955.25,-152 790.75,-152 790.75,-132 955.25,-132 955.25,-152"/>
<text xml:space="preserve" text-anchor="middle" x="873" y="-138.5" font-family="Helvetica,sans-Serif" font-size="10.00">DiagramScene::selectionChanged</text>
</a>
</g>
</g>
<!-- Node8&#45;&gt;Node11 -->
<g id="edge10_Node000008_Node000011" class="edge">
<title>Node8&#45;&gt;Node11</title>
<g id="a_edge10_Node000008_Node000011"><a xlink:title=" ">
<path fill="none" stroke="#63b8ff" d="M751.97,-155.18C760.85,-154.2 769.95,-153.2 778.97,-152.21"/>
<polygon fill="#63b8ff" stroke="#63b8ff" points="779.27,-155.7 788.82,-151.13 778.5,-148.74 779.27,-155.7"/>
</a>
</g>
</g>
<!-- Node12&#45;&gt;Node11 -->
<g id="edge17_Node000012_Node000011" class="edge">
<title>Node12&#45;&gt;Node11</title>
<g id="a_edge17_Node000012_Node000011"><a xlink:title=" ">
<path fill="none" stroke="#63b8ff" d="M726.91,-114.48C751.33,-119.12 780.24,-124.6 805.79,-129.44"/>
<polygon fill="#63b8ff" stroke="#63b8ff" points="804.93,-132.84 815.41,-131.27 806.24,-125.97 804.93,-132.84"/>
</a>
</g>
</g>
<!-- Node13 -->
<g id="Node000013" class="node">
<title>Node13</title>
<g id="a_Node000013"><a xlink:href="class_diagram_scene.html#a065ce2ec3d83e05c486ae418eaf6320f" target="_top" xlink:title=" ">
<polygon fill="white" stroke="#666666" points="958.25,-114 787.75,-114 787.75,-94 958.25,-94 958.25,-114"/>
<text xml:space="preserve" text-anchor="middle" x="873" y="-100.5" font-family="Helvetica,sans-Serif" font-size="10.00">DiagramScene::elementDeselected</text>
</a>
</g>
</g>
<!-- Node12&#45;&gt;Node13 -->
<g id="edge12_Node000012_Node000013" class="edge">
<title>Node12&#45;&gt;Node13</title>
<g id="a_edge12_Node000012_Node000013"><a xlink:title=" ">
<path fill="none" stroke="#63b8ff" d="M745.38,-104C755.46,-104 765.93,-104 776.33,-104"/>
<polygon fill="#63b8ff" stroke="#63b8ff" points="776.05,-107.5 786.05,-104 776.05,-100.5 776.05,-107.5"/>
</a>
</g>
</g>
<!-- Node14 -->
<g id="Node000014" class="node">
<title>Node14</title>
<g id="a_Node000014"><a xlink:href="class_diagram_scene.html#a15719115f3f2f26120243d71999dcfea" target="_top" xlink:title=" ">
<polygon fill="white" stroke="#666666" points="952.62,-76 793.38,-76 793.38,-56 952.62,-56 952.62,-76"/>
<text xml:space="preserve" text-anchor="middle" x="873" y="-62.5" font-family="Helvetica,sans-Serif" font-size="10.00">DiagramScene::elementSelected</text>
</a>
</g>
</g>
<!-- Node12&#45;&gt;Node14 -->
<g id="edge13_Node000012_Node000014" class="edge">
<title>Node12&#45;&gt;Node14</title>
<g id="a_edge13_Node000012_Node000014"><a xlink:title=" ">
<path fill="none" stroke="#63b8ff" d="M726.91,-93.52C751.33,-88.88 780.24,-83.4 805.79,-78.56"/>
<polygon fill="#63b8ff" stroke="#63b8ff" points="806.24,-82.03 815.41,-76.73 804.93,-75.16 806.24,-82.03"/>
</a>
</g>
</g>
<!-- Node15 -->
<g id="Node000015" class="node">
<title>Node15</title>
<g id="a_Node000015"><a xlink:href="class_diagram_scene.html#a45f18c15840085ffda39cfc9229a15ee" target="_top" xlink:title=" ">
<polygon fill="white" stroke="#666666" points="953.38,-20 792.62,-20 792.62,0 953.38,0 953.38,-20"/>
<text xml:space="preserve" text-anchor="middle" x="873" y="-6.5" font-family="Helvetica,sans-Serif" font-size="10.00">DiagramScene::findGraphicsItem</text>
</a>
</g>
</g>
<!-- Node12&#45;&gt;Node15 -->
<g id="edge14_Node000012_Node000015" class="edge">
<title>Node12&#45;&gt;Node15</title>
<g id="a_edge14_Node000012_Node000015"><a xlink:title=" ">
<path fill="none" stroke="#63b8ff" d="M692.06,-93.64C715.15,-82.01 753.94,-62.71 787.75,-47 803.84,-39.52 821.82,-31.57 837.03,-24.96"/>
<polygon fill="#63b8ff" stroke="#63b8ff" points="838.37,-28.2 846.16,-21.02 835.59,-21.77 838.37,-28.2"/>
</a>
</g>
</g>
<!-- Node15&#45;&gt;Node15 -->
<g id="edge16_Node000015_Node000015" class="edge">
<title>Node15&#45;&gt;Node15</title>
<g id="a_edge16_Node000015_Node000015"><a xlink:title=" ">
<path fill="none" stroke="#63b8ff" d="M842.75,-20.34C829.82,-28.98 839.91,-38 873,-38 891.61,-38 902.95,-35.14 907,-31.11"/>
<polygon fill="#63b8ff" stroke="#63b8ff" points="910.34,-30.06 903.75,-21.77 903.73,-32.36 910.34,-30.06"/>
</a>
</g>
</g>
<!-- Node16 -->
<g id="Node000016" class="node">
<title>Node16</title>
<g id="a_Node000016"><a xlink:href="class_diagram_scene.html#a4da4018bb57166e46104700d2847c41d" target="_top" xlink:title=" ">
<polygon fill="white" stroke="#666666" points="1132.5,-20 994.25,-20 994.25,0 1132.5,0 1132.5,-20"/>
<text xml:space="preserve" text-anchor="middle" x="1063.38" y="-6.5" font-family="Helvetica,sans-Serif" font-size="10.00">DiagramScene::findElement</text>
</a>
</g>
</g>
<!-- Node15&#45;&gt;Node16 -->
<g id="edge15_Node000015_Node000016" class="edge">
<title>Node15&#45;&gt;Node16</title>
<g id="a_edge15_Node000015_Node000016"><a xlink:title=" ">
<path fill="none" stroke="#63b8ff" d="M953.61,-10C963.11,-10 972.81,-10 982.31,-10"/>
<polygon fill="#63b8ff" stroke="#63b8ff" points="982.26,-13.5 992.26,-10 982.26,-6.5 982.26,-13.5"/>
</a>
</g>
</g>
</g>
</svg>

<g id="navigator" transform="translate(0 0)" fill="#404254">
  <rect fill="#f2f5e9" fill-opacity="0.5" stroke="#606060" stroke-width=".5" x="0" y="0" width="60" height="60"/>
  <use id="zoomplus" xlink:href="#zoomPlus" x="17" y="9" onmousedown="handleZoom(evt,'in')"/>
  <use id="zoomminus" xlink:href="#zoomMin" x="42" y="9" onmousedown="handleZoom(evt,'out')"/>
  <use id="reset" xlink:href="#resetDef" x="30" y="36" onmousedown="handleReset()"/>
   <use id="arrowup" xlink:href="#arrowUp" x="0" y="0" onmousedown="handlePan(0,-1)"/>
  <use id="arrowright" xlink:href="#arrowRight" x="0" y="0" onmousedown="handlePan(1,0)"/>
  <use id="arrowdown" xlink:href="#arrowDown" x="0" y="0" onmousedown="handlePan(0,1)"/>
  <use id="arrowleft" xlink:href="#arrowLeft" x="0" y="0" onmousedown="handlePan(-1,0)"/>
</g>
<svg viewBox="0 0 15 15" width="100%" height="30px" preserveAspectRatio="xMaxYMin meet">
 <g id="arrow_out" transform="scale(0.3 0.3)">
  <a xlink:href="class_diagram_scene_a189b7f9e32b70c751124cffce8d63c8c_cgraph_org.svg" target="_base">
   <rect id="button" ry="5" rx="5" y="6" x="6" height="38" width="38"
        fill="#f2f5e9" fill-opacity="0.5" stroke="#606060" stroke-width="1.0"/>
   <path id="arrow"
     d="M 11.500037,31.436501 C 11.940474,20.09759 22.043105,11.32322 32.158766,21.979434 L 37.068811,17.246167 C 37.068811,17.246167 37.088388,32 37.088388,32 L 22.160133,31.978069 C 22.160133,31.978069 26.997745,27.140456 26.997745,27.140456 C 18.528582,18.264221 13.291696,25.230495 11.500037,31.436501 z"
     style="fill:#404040;"/>
  </a>
 </g>
</svg>

<style type='text/css'>
<![CDATA[
[data-mouse-over-selected='false'] { opacity: 0.7; }
[data-mouse-over-selected='true']  { opacity: 1.0; }
]]>
</style>
<script type="application/ecmascript"><![CDATA[
document.addEventListener('DOMContentLoaded', (event) => {
  highlightEdges();
  highlightAdjacentNodes();
});
]]></script>
</svg>
