<?xml version="1.0" encoding="UTF-8" standalone="no"?>
<!DOCTYPE svg PUBLIC "-//W3C//DTD SVG 1.1//EN"
 "http://www.w3.org/Graphics/SVG/1.1/DTD/svg11.dtd">
<!-- Generated by graphviz version 14.1.1 (20251213.1925)
 -->
<!-- Title: ConnectionLine::connectToPoints Pages: 1 -->
<svg width="700pt" height="205pt"
 viewBox="0.00 0.00 700.00 205.00" xmlns="http://www.w3.org/2000/svg" xmlns:xlink="http://www.w3.org/1999/xlink">
<g id="graph0" class="graph" transform="scale(1 1) rotate(0) translate(4 200.63)">
<title>ConnectionLine::connectToPoints</title>
<!-- Node1 -->
<g id="Node000001" class="node">
<title>Node1</title>
<g id="a_Node000001"><a xlink:title=" ">
<polygon fill="#999999" stroke="#666666" points="134.5,-102.63 0,-102.63 0,-70.63 134.5,-70.63 134.5,-102.63"/>
<text xml:space="preserve" text-anchor="start" x="8" y="-89.13" font-family="Helvetica,sans-Serif" font-size="10.00">ConnectionLine::connectTo</text>
<text xml:space="preserve" text-anchor="middle" x="67.25" y="-77.13" font-family="Helvetica,sans-Serif" font-size="10.00">Points</text>
</a>
</g>
</g>
<!-- Node2 -->
<g id="Node000002" class="node">
<title>Node2</title>
<g id="a_Node000002"><a xlink:href="class_connection_line.html#a53c863c51a284a7a8e6b35bc34bd2d34" target="_top" xlink:title=" ">
<polygon fill="white" stroke="#666666" points="323,-196.63 173.5,-196.63 173.5,-164.63 323,-164.63 323,-196.63"/>
<text xml:space="preserve" text-anchor="start" x="181.5" y="-183.13" font-family="Helvetica,sans-Serif" font-size="10.00">ConnectionLine::onConnection</text>
<text xml:space="preserve" text-anchor="middle" x="248.25" y="-171.13" font-family="Helvetica,sans-Serif" font-size="10.00">PointChanged</text>
</a>
</g>
</g>
<!-- Node1&#45;&gt;Node2 -->
<g id="edge1_Node000001_Node000002" class="edge">
<title>Node1&#45;&gt;Node2</title>
<g id="a_edge1_Node000001_Node000002"><a xlink:title=" ">
<path fill="none" stroke="#63b8ff" d="M88.74,-102.99C108.67,-118.27 140.29,-140.88 170.5,-155.63 173.61,-157.15 176.84,-158.61 180.12,-160"/>
<polygon fill="#63b8ff" stroke="#63b8ff" points="178.79,-163.24 189.37,-163.69 181.38,-156.74 178.79,-163.24"/>
</a>
</g>
</g>
<!-- Node5 -->
<g id="Node000005" class="node">
<title>Node5</title>
<g id="a_Node000005"><a xlink:href="class_connection_line.html#a4bce34a3f2fb1fd7145de2d9100c9173" target="_top" xlink:title=" ">
<polygon fill="white" stroke="#666666" points="316.25,-146.63 180.25,-146.63 180.25,-114.63 316.25,-114.63 316.25,-146.63"/>
<text xml:space="preserve" text-anchor="start" x="188.25" y="-133.13" font-family="Helvetica,sans-Serif" font-size="10.00">ConnectionLine::onElement</text>
<text xml:space="preserve" text-anchor="middle" x="248.25" y="-121.13" font-family="Helvetica,sans-Serif" font-size="10.00">PositionChanged</text>
</a>
</g>
</g>
<!-- Node1&#45;&gt;Node5 -->
<g id="edge5_Node000001_Node000005" class="edge">
<title>Node1&#45;&gt;Node5</title>
<g id="a_edge5_Node000001_Node000005"><a xlink:title=" ">
<path fill="none" stroke="#63b8ff" d="M134.9,-103.01C146.13,-105.77 157.86,-108.66 169.34,-111.48"/>
<polygon fill="#63b8ff" stroke="#63b8ff" points="168.23,-114.81 178.77,-113.8 169.9,-108.01 168.23,-114.81"/>
</a>
</g>
</g>
<!-- Node6 -->
<g id="Node000006" class="node">
<title>Node6</title>
<g id="a_Node000006"><a xlink:href="class_basic_element.html#a02183bafd7c80f9f1f99a9b9f1631524" target="_top" xlink:title=" ">
<polygon fill="white" stroke="#666666" points="326,-96.63 170.5,-96.63 170.5,-76.63 326,-76.63 326,-96.63"/>
<text xml:space="preserve" text-anchor="middle" x="248.25" y="-83.13" font-family="Helvetica,sans-Serif" font-size="10.00">BasicElement::positionChanged</text>
</a>
</g>
</g>
<!-- Node1&#45;&gt;Node6 -->
<g id="edge7_Node000001_Node000006" class="edge">
<title>Node1&#45;&gt;Node6</title>
<g id="a_edge7_Node000001_Node000006"><a xlink:title=" ">
<path fill="none" stroke="#63b8ff" d="M134.9,-86.63C142.74,-86.63 150.83,-86.63 158.9,-86.63"/>
<polygon fill="#63b8ff" stroke="#63b8ff" points="158.77,-90.13 168.77,-86.63 158.77,-83.13 158.77,-90.13"/>
</a>
</g>
</g>
<!-- Node7 -->
<g id="Node000007" class="node">
<title>Node7</title>
<g id="a_Node000007"><a xlink:href="class_connection_point.html#a851668ae19e97658f1818a40ea375f65" target="_top" xlink:title=" ">
<polygon fill="white" stroke="#666666" points="311,-58.63 185.5,-58.63 185.5,-26.63 311,-26.63 311,-58.63"/>
<text xml:space="preserve" text-anchor="start" x="193.5" y="-45.13" font-family="Helvetica,sans-Serif" font-size="10.00">ConnectionPoint::relative</text>
<text xml:space="preserve" text-anchor="middle" x="248.25" y="-33.13" font-family="Helvetica,sans-Serif" font-size="10.00">PositionChanged</text>
</a>
</g>
</g>
<!-- Node1&#45;&gt;Node7 -->
<g id="edge8_Node000001_Node000007" class="edge">
<title>Node1&#45;&gt;Node7</title>
<g id="a_edge8_Node000001_Node000007"><a xlink:title=" ">
<path fill="none" stroke="#63b8ff" d="M134.9,-70.25C147.79,-67.08 161.36,-63.74 174.44,-60.53"/>
<polygon fill="#63b8ff" stroke="#63b8ff" points="174.93,-64.01 183.81,-58.23 173.26,-57.21 174.93,-64.01"/>
</a>
</g>
</g>
<!-- Node3 -->
<g id="Node000003" class="node">
<title>Node3</title>
<g id="a_Node000003"><a xlink:href="class_connection_line.html#a9de44ae385d7941f3aa79da06e97d510" target="_top" xlink:title=" ">
<polygon fill="white" stroke="#666666" points="498.75,-146.63 362,-146.63 362,-114.63 498.75,-114.63 498.75,-146.63"/>
<text xml:space="preserve" text-anchor="start" x="370" y="-133.13" font-family="Helvetica,sans-Serif" font-size="10.00">ConnectionLine::connection</text>
<text xml:space="preserve" text-anchor="middle" x="430.38" y="-121.13" font-family="Helvetica,sans-Serif" font-size="10.00">Changed</text>
</a>
</g>
</g>
<!-- Node2&#45;&gt;Node3 -->
<g id="edge2_Node000002_Node000003" class="edge">
<title>Node2&#45;&gt;Node3</title>
<g id="a_edge2_Node000002_Node000003"><a xlink:title=" ">
<path fill="none" stroke="#63b8ff" d="M308.48,-164.19C324.71,-159.68 342.47,-154.76 359.25,-150.1"/>
<polygon fill="#63b8ff" stroke="#63b8ff" points="359.95,-153.53 368.65,-147.49 358.08,-146.79 359.95,-153.53"/>
</a>
</g>
</g>
<!-- Node4 -->
<g id="Node000004" class="node">
<title>Node4</title>
<g id="a_Node000004"><a xlink:href="class_connection_line.html#a657559dca679d5fd04ae565b442b6a8b" target="_top" xlink:title=" ">
<polygon fill="white" stroke="#666666" points="691.75,-74.63 534.75,-74.63 534.75,-54.63 691.75,-54.63 691.75,-74.63"/>
<text xml:space="preserve" text-anchor="middle" x="613.25" y="-61.13" font-family="Helvetica,sans-Serif" font-size="10.00">ConnectionLine::ConnectionLine</text>
</a>
</g>
</g>
<!-- Node3&#45;&gt;Node4 -->
<g id="edge3_Node000003_Node000004" class="edge">
<title>Node3&#45;&gt;Node4</title>
<g id="a_edge3_Node000003_Node000004"><a xlink:title=" ">
<path fill="none" stroke="#63b8ff" d="M476.55,-114.15C506.2,-103.33 544.6,-89.32 572.98,-78.96"/>
<polygon fill="#63b8ff" stroke="#63b8ff" points="574.09,-82.28 582.29,-75.56 571.69,-75.7 574.09,-82.28"/>
</a>
</g>
</g>
<!-- Node4&#45;&gt;Node1 -->
<g id="edge4_Node000004_Node000001" class="edge">
<title>Node4&#45;&gt;Node1</title>
<g id="a_edge4_Node000004_Node000001"><a xlink:title=" ">
<path fill="none" stroke="#63b8ff" d="M584.38,-54.18C513.54,-29.2 321.51,28.55 170.5,-17.63 141.51,-26.5 113.31,-46.66 93.89,-62.91"/>
<polygon fill="#63b8ff" stroke="#63b8ff" points="91.79,-60.11 86.51,-69.29 96.36,-65.41 91.79,-60.11"/>
</a>
</g>
</g>
<!-- Node5&#45;&gt;Node3 -->
<g id="edge6_Node000005_Node000003" class="edge">
<title>Node5&#45;&gt;Node3</title>
<g id="a_edge6_Node000005_Node000003"><a xlink:title=" ">
<path fill="none" stroke="#63b8ff" d="M316.58,-130.63C327.59,-130.63 339.1,-130.63 350.37,-130.63"/>
<polygon fill="#63b8ff" stroke="#63b8ff" points="350.02,-134.13 360.02,-130.63 350.02,-127.13 350.02,-134.13"/>
</a>
</g>
</g>
</g>
</svg>
