<?xml version="1.0" encoding="UTF-8" standalone="no"?>
<!DOCTYPE svg PUBLIC "-//W3C//DTD SVG 1.1//EN"
 "http://www.w3.org/Graphics/SVG/1.1/DTD/svg11.dtd">
<!-- Generated by graphviz version 14.1.1 (20251213.1925)
 -->
<!-- Title: BasicElement::BasicElement Pages: 1 -->
<!--zoomable 103 -->

<svg id="main" version="1.1" xmlns="http://www.w3.org/2000/svg" xmlns:xlink="http://www.w3.org/1999/xlink" xml:space="preserve" onload="init(evt)">

<style type="text/css"><![CDATA[
.node, .edge {opacity: 0.7;}
.node.selected, .edge.selected {opacity: 1;}
.edge:hover path { stroke: red; }
.edge:hover polygon { stroke: red; fill: red; }
]]></style>

<defs>
  <circle id="rim" cx="0" cy="0" r="7"/>
  <circle id="rim2" cx="0" cy="0" r="3.5"/>
  <g id="zoomPlus">
    <use xlink:href="#rim" fill="#404040"><set attributeName="fill" to="#808080" begin="zoomplus.mouseover" end="zoomplus.mouseout"/></use>
    <path d="M-4,0h8M0,-4v8" fill="none" stroke="white" stroke-width="1.5" pointer-events="none"/>
  </g>
  <g id="zoomMin">
    <use xlink:href="#rim" fill="#404040"><set attributeName="fill" to="#808080" begin="zoomminus.mouseover" end="zoomminus.mouseout"/></use>
    <path d="M-4,0h8" fill="none" stroke="white" stroke-width="1.5" pointer-events="none"/>
  </g>
  <g id="arrowUp" transform="translate(30 24)">
    <use xlink:href="#rim"/>
    <path pointer-events="none" fill="none" stroke="white" stroke-width="1.5" d="M0,-3.0v7 M-2.5,-0.5L0,-3.0L2.5,-0.5"/>
  </g>
  <g id="arrowRight" transform="rotate(90) translate(36 -43)">
    <use xlink:href="#rim"/>
    <path pointer-events="none" fill="none" stroke="white" stroke-width="1.5" d="M0,-3.0v7 M-2.5,-0.5L0,-3.0L2.5,-0.5"/>
  </g>
  <g id="arrowDown" transform="rotate(180) translate(-30 -48)">
    <use xlink:href="#rim"/>
    <path pointer-events="none" fill="none" stroke="white" stroke-width="1.5" d="M0,-3.0v7 M-2.5,-0.5L0,-3.0L2.5,-0.5"/>
  </g>
  <g id="arrowLeft" transform="rotate(270) translate(-36 17)">
    <use xlink:href="#rim"/>
    <path pointer-events="none" fill="none" stroke="white" stroke-width="1.5" d="M0,-3.0v7 M-2.5,-0.5L0,-3.0L2.5,-0.5"/>
  </g>
  <g id="resetDef">
    <use xlink:href="#rim2" fill="#404040"><set attributeName="fill" to="#808080" begin="reset.mouseover" end="reset.mouseout"/></use>
  </g>
</defs>
<script type="application/ecmascript">
var viewWidth = 915;
var viewHeight = 103;
var sectionId = 'dynsection-2';
</script>
<script type="application/ecmascript" xlink:href="svg.min.js"/>
<svg id="graph" class="graph">
<g id="viewport">
<title>BasicElement::BasicElement</title>
<!-- Node1 -->
<g id="Node000001" class="node">
<title>Node1</title>
<g id="a_Node000001"><a xlink:title=" ">
<polygon fill="#999999" stroke="#666666" points="143.5,-42 0,-42 0,-22 143.5,-22 143.5,-42"/>
<text xml:space="preserve" text-anchor="middle" x="71.75" y="-28.5" font-family="Helvetica,sans-Serif" font-size="10.00">BasicElement::BasicElement</text>
</a>
</g>
</g>
<!-- Node2 -->
<g id="Node000002" class="node">
<title>Node2</title>
<g id="a_Node000002"><a xlink:href="class_basic_element.html#a78e2ce29aa5b2a9fae74cf435996ce8b" target="_top" xlink:title=" ">
<polygon fill="white" stroke="#666666" points="333.5,-70 189.25,-70 189.25,-38 333.5,-38 333.5,-70"/>
<text xml:space="preserve" text-anchor="start" x="197.25" y="-56.5" font-family="Helvetica,sans-Serif" font-size="10.00">BasicElement::createAndAdd</text>
<text xml:space="preserve" text-anchor="middle" x="261.38" y="-44.5" font-family="Helvetica,sans-Serif" font-size="10.00">DefaultConnectionPoints</text>
</a>
</g>
</g>
<!-- Node1&#45;&gt;Node2 -->
<g id="edge1_Node000001_Node000002" class="edge">
<title>Node1&#45;&gt;Node2</title>
<g id="a_edge1_Node000001_Node000002"><a xlink:title=" ">
<path fill="none" stroke="#63b8ff" d="M143.95,-40.35C154.99,-41.64 166.48,-42.99 177.74,-44.31"/>
<polygon fill="#63b8ff" stroke="#63b8ff" points="177.07,-47.76 187.41,-45.44 177.88,-40.8 177.07,-47.76"/>
</a>
</g>
</g>
<!-- Node7 -->
<g id="Node000007" class="node">
<title>Node7</title>
<g id="a_Node000007"><a xlink:href="class_basic_element.html#abb80391f2c11a0eb2fe2b21d53967450" target="_top" xlink:title=" ">
<polygon fill="white" stroke="#666666" points="343.25,-20 179.5,-20 179.5,0 343.25,0 343.25,-20"/>
<text xml:space="preserve" text-anchor="middle" x="261.38" y="-6.5" font-family="Helvetica,sans-Serif" font-size="10.00">BasicElement::stringElementType</text>
</a>
</g>
</g>
<!-- Node1&#45;&gt;Node7 -->
<g id="edge6_Node000001_Node000007" class="edge">
<title>Node1&#45;&gt;Node7</title>
<g id="a_edge6_Node000001_Node000007"><a xlink:title=" ">
<path fill="none" stroke="#63b8ff" d="M143.95,-23.65C151.77,-22.73 159.82,-21.79 167.85,-20.85"/>
<polygon fill="#63b8ff" stroke="#63b8ff" points="168.14,-24.34 177.67,-19.7 167.33,-17.39 168.14,-24.34"/>
</a>
</g>
</g>
<!-- Node3 -->
<g id="Node000003" class="node">
<title>Node3</title>
<g id="a_Node000003"><a xlink:href="class_basic_element.html#a0357bfa9b1ef06dd1c9d64bcb00813f4" target="_top" xlink:title=" ">
<polygon fill="white" stroke="#666666" points="529.5,-95 381.5,-95 381.5,-63 529.5,-63 529.5,-95"/>
<text xml:space="preserve" text-anchor="start" x="389.5" y="-81.5" font-family="Helvetica,sans-Serif" font-size="10.00">BasicElement::addConnection</text>
<text xml:space="preserve" text-anchor="middle" x="455.5" y="-69.5" font-family="Helvetica,sans-Serif" font-size="10.00">Point</text>
</a>
</g>
</g>
<!-- Node2&#45;&gt;Node3 -->
<g id="edge2_Node000002_Node000003" class="edge">
<title>Node2&#45;&gt;Node3</title>
<g id="a_edge2_Node000002_Node000003"><a xlink:title=" ">
<path fill="none" stroke="#63b8ff" d="M333.92,-63.31C345.64,-64.83 357.88,-66.43 369.89,-67.99"/>
<polygon fill="#63b8ff" stroke="#63b8ff" points="369.43,-71.46 379.8,-69.28 370.33,-64.52 369.43,-71.46"/>
</a>
</g>
</g>
<!-- Node4 -->
<g id="Node000004" class="node">
<title>Node4</title>
<g id="a_Node000004"><a xlink:href="class_connection_point.html#af57583f18ef35d9b3eafa83665e7ebe4" target="_top" xlink:title=" ">
<polygon fill="white" stroke="#666666" points="531.75,-45 379.25,-45 379.25,-13 531.75,-13 531.75,-45"/>
<text xml:space="preserve" text-anchor="start" x="387.25" y="-31.5" font-family="Helvetica,sans-Serif" font-size="10.00">ConnectionPoint::createDefault</text>
<text xml:space="preserve" text-anchor="middle" x="455.5" y="-19.5" font-family="Helvetica,sans-Serif" font-size="10.00">ConnectionPoints</text>
</a>
</g>
</g>
<!-- Node2&#45;&gt;Node4 -->
<g id="edge3_Node000002_Node000004" class="edge">
<title>Node2&#45;&gt;Node4</title>
<g id="a_edge3_Node000002_Node000004"><a xlink:title=" ">
<path fill="none" stroke="#63b8ff" d="M333.92,-44.69C344.96,-43.25 356.46,-41.76 367.79,-40.28"/>
<polygon fill="#63b8ff" stroke="#63b8ff" points="368.08,-43.78 377.54,-39.01 367.17,-36.83 368.08,-43.78"/>
</a>
</g>
</g>
<!-- Node5 -->
<g id="Node000005" class="node">
<title>Node5</title>
<g id="a_Node000005"><a xlink:href="class_connection_point.html#a7b8c2910eb504959c4211764a9abc2e8" target="_top" xlink:title=" ">
<polygon fill="white" stroke="#666666" points="727,-45 567.75,-45 567.75,-13 727,-13 727,-45"/>
<text xml:space="preserve" text-anchor="start" x="575.75" y="-31.5" font-family="Helvetica,sans-Serif" font-size="10.00">ConnectionPoint::addConnection</text>
<text xml:space="preserve" text-anchor="middle" x="647.38" y="-19.5" font-family="Helvetica,sans-Serif" font-size="10.00">Point</text>
</a>
</g>
</g>
<!-- Node4&#45;&gt;Node5 -->
<g id="edge4_Node000004_Node000005" class="edge">
<title>Node4&#45;&gt;Node5</title>
<g id="a_edge4_Node000004_Node000005"><a xlink:title=" ">
<path fill="none" stroke="#63b8ff" d="M532.09,-29C539.96,-29 548.02,-29 556.03,-29"/>
<polygon fill="#63b8ff" stroke="#63b8ff" points="555.8,-32.5 565.8,-29 555.8,-25.5 555.8,-32.5"/>
</a>
</g>
</g>
<!-- Node6 -->
<g id="Node000006" class="node">
<title>Node6</title>
<g id="a_Node000006"><a xlink:href="class_connection_point.html#ac498b99d7f91805fea3eab19f2e8b260" target="_top" xlink:title=" ">
<polygon fill="white" stroke="#666666" points="906.5,-45 763,-45 763,-13 906.5,-13 906.5,-45"/>
<text xml:space="preserve" text-anchor="start" x="771" y="-31.5" font-family="Helvetica,sans-Serif" font-size="10.00">ConnectionPoint::Connection</text>
<text xml:space="preserve" text-anchor="middle" x="834.75" y="-19.5" font-family="Helvetica,sans-Serif" font-size="10.00">Point</text>
</a>
</g>
</g>
<!-- Node5&#45;&gt;Node6 -->
<g id="edge5_Node000005_Node000006" class="edge">
<title>Node5&#45;&gt;Node6</title>
<g id="a_edge5_Node000005_Node000006"><a xlink:title=" ">
<path fill="none" stroke="#63b8ff" d="M727.26,-29C735.14,-29 743.15,-29 751.07,-29"/>
<polygon fill="#63b8ff" stroke="#63b8ff" points="751.06,-32.5 761.06,-29 751.06,-25.5 751.06,-32.5"/>
</a>
</g>
</g>
</g>
</svg>

<g id="navigator" transform="translate(0 0)" fill="#404254">
  <rect fill="#f2f5e9" fill-opacity="0.5" stroke="#606060" stroke-width=".5" x="0" y="0" width="60" height="60"/>
  <use id="zoomplus" xlink:href="#zoomPlus" x="17" y="9" onmousedown="handleZoom(evt,'in')"/>
  <use id="zoomminus" xlink:href="#zoomMin" x="42" y="9" onmousedown="handleZoom(evt,'out')"/>
  <use id="reset" xlink:href="#resetDef" x="30" y="36" onmousedown="handleReset()"/>
   <use id="arrowup" xlink:href="#arrowUp" x="0" y="0" onmousedown="handlePan(0,-1)"/>
  <use id="arrowright" xlink:href="#arrowRight" x="0" y="0" onmousedown="handlePan(1,0)"/>
  <use id="arrowdown" xlink:href="#arrowDown" x="0" y="0" onmousedown="handlePan(0,1)"/>
  <use id="arrowleft" xlink:href="#arrowLeft" x="0" y="0" onmousedown="handlePan(-1,0)"/>
</g>
<svg viewBox="0 0 15 15" width="100%" height="30px" preserveAspectRatio="xMaxYMin meet">
 <g id="arrow_out" transform="scale(0.3 0.3)">
  <a xlink:href="class_basic_element_a85cccd7db0e46e4e2b646365cd6c66a9_cgraph_org.svg" target="_base">
   <rect id="button" ry="5" rx="5" y="6" x="6" height="38" width="38"
        fill="#f2f5e9" fill-opacity="0.5" stroke="#606060" stroke-width="1.0"/>
   <path id="arrow"
     d="M 11.500037,31.436501 C 11.940474,20.09759 22.043105,11.32322 32.158766,21.979434 L 37.068811,17.246167 C 37.068811,17.246167 37.088388,32 37.088388,32 L 22.160133,31.978069 C 22.160133,31.978069 26.997745,27.140456 26.997745,27.140456 C 18.528582,18.264221 13.291696,25.230495 11.500037,31.436501 z"
     style="fill:#404040;"/>
  </a>
 </g>
</svg>

<style type='text/css'>
<![CDATA[
[data-mouse-over-selected='false'] { opacity: 0.7; }
[data-mouse-over-selected='true']  { opacity: 1.0; }
]]>
</style>
<script type="application/ecmascript"><![CDATA[
document.addEventListener('DOMContentLoaded', (event) => {
  highlightEdges();
  highlightAdjacentNodes();
});
]]></script>
</svg>
