<?xml version="1.0" encoding="UTF-8" standalone="no"?>
<!DOCTYPE svg PUBLIC "-//W3C//DTD SVG 1.1//EN"
 "http://www.w3.org/Graphics/SVG/1.1/DTD/svg11.dtd">
<!-- Generated by graphviz version 14.1.1 (20251213.1925)
 -->
<!-- Title: RelationshipEnd::setCustomCardinalityText Pages: 1 -->
<!--zoomable 790 -->

<svg id="main" version="1.1" xmlns="http://www.w3.org/2000/svg" xmlns:xlink="http://www.w3.org/1999/xlink" xml:space="preserve" onload="init(evt)">

<style type="text/css"><![CDATA[
.node, .edge {opacity: 0.7;}
.node.selected, .edge.selected {opacity: 1;}
.edge:hover path { stroke: red; }
.edge:hover polygon { stroke: red; fill: red; }
]]></style>

<defs>
  <circle id="rim" cx="0" cy="0" r="7"/>
  <circle id="rim2" cx="0" cy="0" r="3.5"/>
  <g id="zoomPlus">
    <use xlink:href="#rim" fill="#404040"><set attributeName="fill" to="#808080" begin="zoomplus.mouseover" end="zoomplus.mouseout"/></use>
    <path d="M-4,0h8M0,-4v8" fill="none" stroke="white" stroke-width="1.5" pointer-events="none"/>
  </g>
  <g id="zoomMin">
    <use xlink:href="#rim" fill="#404040"><set attributeName="fill" to="#808080" begin="zoomminus.mouseover" end="zoomminus.mouseout"/></use>
    <path d="M-4,0h8" fill="none" stroke="white" stroke-width="1.5" pointer-events="none"/>
  </g>
  <g id="arrowUp" transform="translate(30 24)">
    <use xlink:href="#rim"/>
    <path pointer-events="none" fill="none" stroke="white" stroke-width="1.5" d="M0,-3.0v7 M-2.5,-0.5L0,-3.0L2.5,-0.5"/>
  </g>
  <g id="arrowRight" transform="rotate(90) translate(36 -43)">
    <use xlink:href="#rim"/>
    <path pointer-events="none" fill="none" stroke="white" stroke-width="1.5" d="M0,-3.0v7 M-2.5,-0.5L0,-3.0L2.5,-0.5"/>
  </g>
  <g id="arrowDown" transform="rotate(180) translate(-30 -48)">
    <use xlink:href="#rim"/>
    <path pointer-events="none" fill="none" stroke="white" stroke-width="1.5" d="M0,-3.0v7 M-2.5,-0.5L0,-3.0L2.5,-0.5"/>
  </g>
  <g id="arrowLeft" transform="rotate(270) translate(-36 17)">
    <use xlink:href="#rim"/>
    <path pointer-events="none" fill="none" stroke="white" stroke-width="1.5" d="M0,-3.0v7 M-2.5,-0.5L0,-3.0L2.5,-0.5"/>
  </g>
  <g id="resetDef">
    <use xlink:href="#rim2" fill="#404040"><set attributeName="fill" to="#808080" begin="reset.mouseover" end="reset.mouseout"/></use>
  </g>
</defs>
<script type="application/ecmascript">
var viewWidth = 2487;
var viewHeight = 790;
var sectionId = 'dynsection-12';
</script>
<script type="application/ecmascript" xlink:href="svg.min.js"/>
<svg id="graph" class="graph">
<g id="viewport">
<title>RelationshipEnd::setCustomCardinalityText</title>
<!-- Node1 -->
<g id="Node000001" class="node">
<title>Node1</title>
<g id="a_Node000001"><a xlink:title=" ">
<polygon fill="#999999" stroke="#666666" points="2479,-467 2337.75,-467 2337.75,-435 2479,-435 2479,-467"/>
<text xml:space="preserve" text-anchor="start" x="2345.75" y="-453.5" font-family="Helvetica,sans-Serif" font-size="10.00">RelationshipEnd::setCustom</text>
<text xml:space="preserve" text-anchor="middle" x="2408.38" y="-441.5" font-family="Helvetica,sans-Serif" font-size="10.00">CardinalityText</text>
</a>
</g>
</g>
<!-- Node2 -->
<g id="Node000002" class="node">
<title>Node2</title>
<g id="a_Node000002"><a xlink:href="class_main_window.html#a0e7ca45ac830893108871185dda813a4" target="_top" xlink:title=" ">
<polygon fill="white" stroke="#666666" points="2301.75,-461 2138.75,-461 2138.75,-441 2301.75,-441 2301.75,-461"/>
<text xml:space="preserve" text-anchor="middle" x="2220.25" y="-447.5" font-family="Helvetica,sans-Serif" font-size="10.00">MainWindow::onLineEditChanged</text>
</a>
</g>
</g>
<!-- Node1&#45;&gt;Node2 -->
<g id="edge1_Node000001_Node000002" class="edge">
<title>Node1&#45;&gt;Node2</title>
<g id="a_edge1_Node000001_Node000002"><a xlink:title=" ">
<path fill="none" stroke="#63b8ff" d="M2325.88,-451C2318.03,-451 2310.07,-451 2302.23,-451"/>
<polygon fill="#63b8ff" stroke="#63b8ff" points="2325.76,-454.5 2335.76,-451 2325.76,-447.5 2325.76,-454.5"/>
</a>
</g>
</g>
<!-- Node3 -->
<g id="Node000003" class="node">
<title>Node3</title>
<g id="a_Node000003"><a xlink:href="class_main_window.html#ae3b6600dd59da1822ef94bbd5f37f0cc" target="_top" xlink:title=" ">
<polygon fill="white" stroke="#666666" points="2102.75,-338 1962.25,-338 1962.25,-306 2102.75,-306 2102.75,-338"/>
<text xml:space="preserve" text-anchor="start" x="1970.25" y="-324.5" font-family="Helvetica,sans-Serif" font-size="10.00">MainWindow::createLineEdit</text>
<text xml:space="preserve" text-anchor="middle" x="2032.5" y="-312.5" font-family="Helvetica,sans-Serif" font-size="10.00">PropertyItem</text>
</a>
</g>
</g>
<!-- Node2&#45;&gt;Node3 -->
<g id="edge2_Node000002_Node000003" class="edge">
<title>Node2&#45;&gt;Node3</title>
<g id="a_edge2_Node000002_Node000003"><a xlink:title=" ">
<path fill="none" stroke="#63b8ff" d="M2195.14,-434.25C2159.32,-409.38 2092.5,-362.98 2057.03,-338.34"/>
<polygon fill="#63b8ff" stroke="#63b8ff" points="2192.91,-436.97 2203.12,-439.8 2196.9,-431.22 2192.91,-436.97"/>
</a>
</g>
</g>
<!-- Node4 -->
<g id="Node000004" class="node">
<title>Node4</title>
<g id="a_Node000004"><a xlink:href="class_main_window.html#a1049a5796ac248f40a3b4110ed5faf77" target="_top" xlink:title=" ">
<polygon fill="white" stroke="#666666" points="1926.25,-226 1757.25,-226 1757.25,-194 1926.25,-194 1926.25,-226"/>
<text xml:space="preserve" text-anchor="start" x="1765.25" y="-212.5" font-family="Helvetica,sans-Serif" font-size="10.00">MainWindow::populateRelationship</text>
<text xml:space="preserve" text-anchor="middle" x="1841.75" y="-200.5" font-family="Helvetica,sans-Serif" font-size="10.00">Properties</text>
</a>
</g>
</g>
<!-- Node3&#45;&gt;Node4 -->
<g id="edge3_Node000003_Node000004" class="edge">
<title>Node3&#45;&gt;Node4</title>
<g id="a_edge3_Node000003_Node000004"><a xlink:title=" ">
<path fill="none" stroke="#63b8ff" d="M1994.31,-299.93C1957.91,-278.33 1903.31,-245.93 1870.54,-226.49"/>
<polygon fill="#63b8ff" stroke="#63b8ff" points="1992.37,-302.85 2002.75,-304.94 1995.94,-296.83 1992.37,-302.85"/>
</a>
</g>
</g>
<!-- Node5 -->
<g id="Node000005" class="node">
<title>Node5</title>
<g id="a_Node000005"><a xlink:href="class_main_window.html#add7e6ae12287854ff779bd4b5649dd98" target="_top" xlink:title=" ">
<polygon fill="white" stroke="#666666" points="1721.25,-146 1562,-146 1562,-114 1721.25,-114 1721.25,-146"/>
<text xml:space="preserve" text-anchor="start" x="1570" y="-132.5" font-family="Helvetica,sans-Serif" font-size="10.00">MainWindow::populateProperties</text>
<text xml:space="preserve" text-anchor="middle" x="1641.62" y="-120.5" font-family="Helvetica,sans-Serif" font-size="10.00">ForElement</text>
</a>
</g>
</g>
<!-- Node4&#45;&gt;Node5 -->
<g id="edge4_Node000004_Node000005" class="edge">
<title>Node4&#45;&gt;Node5</title>
<g id="a_edge4_Node000004_Node000005"><a xlink:title=" ">
<path fill="none" stroke="#63b8ff" d="M1789.81,-189.43C1756.77,-176.09 1714.3,-158.94 1683.48,-146.5"/>
<polygon fill="#63b8ff" stroke="#63b8ff" points="1788.19,-192.55 1798.77,-193.05 1790.81,-186.06 1788.19,-192.55"/>
</a>
</g>
</g>
<!-- Node6 -->
<g id="Node000006" class="node">
<title>Node6</title>
<g id="a_Node000006"><a xlink:href="class_main_window.html#a5caeae304b10e5cd9f83ef5c6086310b" target="_top" xlink:title=" ">
<polygon fill="white" stroke="#666666" points="1526,-511 1374.25,-511 1374.25,-479 1526,-479 1526,-511"/>
<text xml:space="preserve" text-anchor="start" x="1382.25" y="-497.5" font-family="Helvetica,sans-Serif" font-size="10.00">MainWindow::updateProperties</text>
<text xml:space="preserve" text-anchor="middle" x="1450.12" y="-485.5" font-family="Helvetica,sans-Serif" font-size="10.00">Panel</text>
</a>
</g>
</g>
<!-- Node5&#45;&gt;Node6 -->
<g id="edge5_Node000005_Node000006" class="edge">
<title>Node5&#45;&gt;Node6</title>
<g id="a_edge5_Node000005_Node000006"><a xlink:title=" ">
<path fill="none" stroke="#63b8ff" d="M1627.11,-156.03C1590.4,-226.74 1489.59,-420.91 1459.63,-478.62"/>
<polygon fill="#63b8ff" stroke="#63b8ff" points="1630.04,-157.99 1631.54,-147.5 1623.83,-154.76 1630.04,-157.99"/>
</a>
</g>
</g>
<!-- Node6&#45;&gt;Node2 -->
<g id="edge29_Node000006_Node000002" class="edge">
<title>Node6&#45;&gt;Node2</title>
<g id="a_edge29_Node000006_Node000002"><a xlink:title=" ">
<path fill="none" stroke="#63b8ff" d="M1537.87,-493.04C1662.86,-489.75 1900.82,-481.76 2102.75,-465 2114.32,-464.04 2126.52,-462.81 2138.48,-461.49"/>
<polygon fill="#63b8ff" stroke="#63b8ff" points="1537.91,-489.53 1528.01,-493.29 1538.1,-496.53 1537.91,-489.53"/>
</a>
</g>
</g>
<!-- Node7 -->
<g id="Node000007" class="node">
<title>Node7</title>
<g id="a_Node000007"><a xlink:href="class_main_window.html#ad34ae0349abf41aa739b75b85df74126" target="_top" xlink:title=" ">
<polygon fill="white" stroke="#666666" points="1328.5,-333 1185.75,-333 1185.75,-301 1328.5,-301 1328.5,-333"/>
<text xml:space="preserve" text-anchor="start" x="1193.75" y="-319.5" font-family="Helvetica,sans-Serif" font-size="10.00">MainWindow::onAddAttribute</text>
<text xml:space="preserve" text-anchor="middle" x="1257.12" y="-307.5" font-family="Helvetica,sans-Serif" font-size="10.00">OnTreeClicked</text>
</a>
</g>
</g>
<!-- Node6&#45;&gt;Node7 -->
<g id="edge6_Node000006_Node000007" class="edge">
<title>Node6&#45;&gt;Node7</title>
<g id="a_edge6_Node000006_Node000007"><a xlink:title=" ">
<path fill="none" stroke="#63b8ff" d="M1436.87,-468.83C1419.59,-434.73 1384.88,-375.51 1338.25,-342 1333.75,-338.77 1328.83,-335.95 1323.7,-333.48"/>
<polygon fill="#63b8ff" stroke="#63b8ff" points="1433.63,-470.18 1441.19,-477.6 1439.91,-467.08 1433.63,-470.18"/>
</a>
</g>
</g>
<!-- Node12 -->
<g id="Node000012" class="node">
<title>Node12</title>
<g id="a_Node000012"><a xlink:href="class_main_window.html#a47fd0b86ddb5829e3b0cb15908671670" target="_top" xlink:title=" ">
<polygon fill="white" stroke="#666666" points="941.75,-370 768.25,-370 768.25,-350 941.75,-350 941.75,-370"/>
<text xml:space="preserve" text-anchor="middle" x="855" y="-356.5" font-family="Helvetica,sans-Serif" font-size="10.00">MainWindow::onCheckBoxChanged</text>
</a>
</g>
</g>
<!-- Node6&#45;&gt;Node12 -->
<g id="edge18_Node000006_Node000012" class="edge">
<title>Node6&#45;&gt;Node12</title>
<g id="a_edge18_Node000006_Node000012"><a xlink:title=" ">
<path fill="none" stroke="#63b8ff" d="M1401.71,-474.05C1382.18,-465.65 1359.25,-456.06 1338.25,-448 1267.03,-420.65 1235.8,-439.37 1176,-392 1152.51,-373.4 1166.24,-349.46 1140,-335 1053.95,-287.57 930.6,-328.73 879.52,-349.61"/>
<polygon fill="#63b8ff" stroke="#63b8ff" points="1400.22,-477.22 1410.78,-477.98 1403,-470.8 1400.22,-477.22"/>
</a>
</g>
</g>
<!-- Node14 -->
<g id="Node000014" class="node">
<title>Node14</title>
<g id="a_Node000014"><a xlink:href="class_main_window.html#ac1e0c79708cf9aa9b7ca1a87697e5b34" target="_top" xlink:title=" ">
<polygon fill="white" stroke="#666666" points="943.25,-524 766.75,-524 766.75,-504 943.25,-504 943.25,-524"/>
<text xml:space="preserve" text-anchor="middle" x="855" y="-510.5" font-family="Helvetica,sans-Serif" font-size="10.00">MainWindow::onComboBoxChanged</text>
</a>
</g>
</g>
<!-- Node6&#45;&gt;Node14 -->
<g id="edge22_Node000006_Node000014" class="edge">
<title>Node6&#45;&gt;Node14</title>
<g id="a_edge22_Node000006_Node000014"><a xlink:title=" ">
<path fill="none" stroke="#63b8ff" d="M1391.65,-514.96C1302.84,-543.12 1127.06,-588.23 979.25,-561 941.41,-554.03 900.16,-535.97 876.27,-524.37"/>
<polygon fill="#63b8ff" stroke="#63b8ff" points="1392.68,-518.3 1401.12,-511.91 1390.53,-511.64 1392.68,-518.3"/>
</a>
</g>
</g>
<!-- Node18 -->
<g id="Node000018" class="node">
<title>Node18</title>
<g id="a_Node000018"><a xlink:href="class_main_window.html#a1043995538765eae993ae75217c482e7" target="_top" xlink:title=" ">
<polygon fill="white" stroke="#666666" points="929.75,-719 780.25,-719 780.25,-687 929.75,-687 929.75,-719"/>
<text xml:space="preserve" text-anchor="start" x="788.25" y="-705.5" font-family="Helvetica,sans-Serif" font-size="10.00">MainWindow::onPropertyValue</text>
<text xml:space="preserve" text-anchor="middle" x="855" y="-693.5" font-family="Helvetica,sans-Serif" font-size="10.00">Changed</text>
</a>
</g>
</g>
<!-- Node6&#45;&gt;Node18 -->
<g id="edge30_Node000006_Node000018" class="edge">
<title>Node6&#45;&gt;Node18</title>
<g id="a_edge30_Node000006_Node000018"><a xlink:title=" ">
<path fill="none" stroke="#63b8ff" d="M1438.68,-521.74C1423.69,-560.13 1391.83,-629.09 1338.25,-661 1211.17,-736.69 1030.49,-723.8 930.25,-711.36"/>
<polygon fill="#63b8ff" stroke="#63b8ff" points="1441.81,-523.34 1442.09,-512.74 1435.27,-520.85 1441.81,-523.34"/>
</a>
</g>
</g>
<!-- Node21 -->
<g id="Node000021" class="node">
<title>Node21</title>
<g id="a_Node000021"><a xlink:href="class_main_window.html#a95674d4bfc5fc2aad6df1601f23b1793" target="_top" xlink:title=" ">
<polygon fill="white" stroke="#666666" points="1338.25,-383 1176,-383 1176,-351 1338.25,-351 1338.25,-383"/>
<text xml:space="preserve" text-anchor="start" x="1184" y="-369.5" font-family="Helvetica,sans-Serif" font-size="10.00">MainWindow::onRemoveAttribute</text>
<text xml:space="preserve" text-anchor="middle" x="1257.12" y="-357.5" font-family="Helvetica,sans-Serif" font-size="10.00">OnTreeClicked</text>
</a>
</g>
</g>
<!-- Node6&#45;&gt;Node21 -->
<g id="edge34_Node000006_Node000021" class="edge">
<title>Node6&#45;&gt;Node21</title>
<g id="a_edge34_Node000006_Node000021"><a xlink:title=" ">
<path fill="none" stroke="#63b8ff" d="M1426.7,-470.64C1405.61,-448.9 1372.27,-417.44 1338.25,-397 1329.59,-391.8 1319.88,-387.24 1310.29,-383.36"/>
<polygon fill="#63b8ff" stroke="#63b8ff" points="1423.94,-472.82 1433.38,-477.63 1429.01,-467.98 1423.94,-472.82"/>
</a>
</g>
</g>
<!-- Node22 -->
<g id="Node000022" class="node">
<title>Node22</title>
<g id="a_Node000022"><a xlink:href="class_main_window.html#a44791b85064ecff42c12429c6667e83b" target="_top" xlink:title=" ">
<polygon fill="white" stroke="#666666" points="939.12,-758 770.88,-758 770.88,-738 939.12,-738 939.12,-758"/>
<text xml:space="preserve" text-anchor="middle" x="855" y="-744.5" font-family="Helvetica,sans-Serif" font-size="10.00">MainWindow::onSelectionChanged</text>
</a>
</g>
</g>
<!-- Node6&#45;&gt;Node22 -->
<g id="edge36_Node000006_Node000022" class="edge">
<title>Node6&#45;&gt;Node22</title>
<g id="a_edge36_Node000006_Node000022"><a xlink:title=" ">
<path fill="none" stroke="#63b8ff" d="M1444.46,-522.45C1434.56,-571.28 1406.5,-672.47 1338.25,-719 1200.68,-812.78 986.51,-778.56 897.24,-758.46"/>
<polygon fill="#63b8ff" stroke="#63b8ff" points="1447.88,-523.19 1446.31,-512.71 1441,-521.88 1447.88,-523.19"/>
</a>
</g>
</g>
<!-- Node23 -->
<g id="Node000023" class="node">
<title>Node23</title>
<g id="a_Node000023"><a xlink:href="class_main_window.html#af380eeda83d30cd1ecb1419cfd5161d7" target="_top" xlink:title=" ">
<polygon fill="white" stroke="#666666" points="1324,-489 1190.25,-489 1190.25,-457 1324,-457 1324,-489"/>
<text xml:space="preserve" text-anchor="start" x="1198.25" y="-475.5" font-family="Helvetica,sans-Serif" font-size="10.00">MainWindow::updatesAfter</text>
<text xml:space="preserve" text-anchor="middle" x="1257.12" y="-463.5" font-family="Helvetica,sans-Serif" font-size="10.00">ChangingProperty</text>
</a>
</g>
</g>
<!-- Node6&#45;&gt;Node23 -->
<g id="edge38_Node000006_Node000023" class="edge">
<title>Node6&#45;&gt;Node23</title>
<g id="a_edge38_Node000006_Node000023"><a xlink:title=" ">
<path fill="none" stroke="#63b8ff" d="M1362.67,-485.04C1349.78,-483.56 1336.67,-482.05 1324.29,-480.62"/>
<polygon fill="#63b8ff" stroke="#63b8ff" points="1362.07,-488.5 1372.41,-486.16 1362.87,-481.54 1362.07,-488.5"/>
</a>
</g>
</g>
<!-- Node8 -->
<g id="Node000008" class="node">
<title>Node8</title>
<g id="a_Node000008"><a xlink:href="class_main_window.html#a6fd05e9f951dd6e7c2cd6ca815ef9d71" target="_top" xlink:title=" ">
<polygon fill="white" stroke="#666666" points="1126.5,-250 992.75,-250 992.75,-218 1126.5,-218 1126.5,-250"/>
<text xml:space="preserve" text-anchor="start" x="1000.75" y="-236.5" font-family="Helvetica,sans-Serif" font-size="10.00">MainWindow::createButton</text>
<text xml:space="preserve" text-anchor="middle" x="1059.62" y="-224.5" font-family="Helvetica,sans-Serif" font-size="10.00">PropertyItem</text>
</a>
</g>
</g>
<!-- Node7&#45;&gt;Node8 -->
<g id="edge7_Node000007_Node000008" class="edge">
<title>Node7&#45;&gt;Node8</title>
<g id="a_edge7_Node000007_Node000008"><a xlink:title=" ">
<path fill="none" stroke="#63b8ff" d="M1207.04,-296.16C1173.65,-281.98 1130.07,-263.48 1099.17,-250.36"/>
<polygon fill="#63b8ff" stroke="#63b8ff" points="1205.53,-299.32 1216.11,-300.01 1208.27,-292.88 1205.53,-299.32"/>
</a>
</g>
</g>
<!-- Node8&#45;&gt;Node4 -->
<g id="edge17_Node000008_Node000004" class="edge">
<title>Node8&#45;&gt;Node4</title>
<g id="a_edge17_Node000008_Node000004"><a xlink:title=" ">
<path fill="none" stroke="#63b8ff" d="M1138,-231.62C1285.27,-227.09 1604.72,-217.26 1756.89,-212.58"/>
<polygon fill="#63b8ff" stroke="#63b8ff" points="1138.25,-228.11 1128.36,-231.92 1138.46,-235.11 1138.25,-228.11"/>
</a>
</g>
</g>
<!-- Node9 -->
<g id="Node000009" class="node">
<title>Node9</title>
<g id="a_Node000009"><a xlink:href="class_main_window.html#a697154cf7839e00c607134c2a4e018cf" target="_top" xlink:title=" ">
<polygon fill="white" stroke="#666666" points="344,-124 176.5,-124 176.5,-104 344,-104 344,-124"/>
<text xml:space="preserve" text-anchor="middle" x="260.25" y="-110.5" font-family="Helvetica,sans-Serif" font-size="10.00">MainWindow::populateAttributeList</text>
</a>
</g>
</g>
<!-- Node8&#45;&gt;Node9 -->
<g id="edge8_Node000008_Node000009" class="edge">
<title>Node8&#45;&gt;Node9</title>
<g id="a_edge8_Node000008_Node000009"><a xlink:title=" ">
<path fill="none" stroke="#63b8ff" d="M1023.97,-211.74C1001.74,-198.48 971.79,-182.44 943.25,-173 736.05,-104.49 475.21,-103.91 344.28,-109.05"/>
<polygon fill="#63b8ff" stroke="#63b8ff" points="1021.95,-214.61 1032.31,-216.82 1025.59,-208.63 1021.95,-214.61"/>
</a>
</g>
</g>
<!-- Node10 -->
<g id="Node000010" class="node">
<title>Node10</title>
<g id="a_Node000010"><a xlink:href="class_main_window.html#a3aa4112f20ad25eb3ad78fd354ba7de2" target="_top" xlink:title=" ">
<polygon fill="white" stroke="#666666" points="535.5,-152 383.75,-152 383.75,-120 535.5,-120 535.5,-152"/>
<text xml:space="preserve" text-anchor="start" x="391.75" y="-138.5" font-family="Helvetica,sans-Serif" font-size="10.00">MainWindow::populateAttribute</text>
<text xml:space="preserve" text-anchor="middle" x="459.62" y="-126.5" font-family="Helvetica,sans-Serif" font-size="10.00">Properties</text>
</a>
</g>
</g>
<!-- Node8&#45;&gt;Node10 -->
<g id="edge15_Node000008_Node000010" class="edge">
<title>Node8&#45;&gt;Node10</title>
<g id="a_edge15_Node000008_Node000010"><a xlink:title=" ">
<path fill="none" stroke="#63b8ff" d="M981.09,-217.72C914.8,-204.13 816.77,-184.82 730.75,-171 665.15,-160.46 590.19,-150.95 535.91,-144.51"/>
<polygon fill="#63b8ff" stroke="#63b8ff" points="980.29,-221.13 990.79,-219.71 981.7,-214.27 980.29,-221.13"/>
</a>
</g>
</g>
<!-- Node11 -->
<g id="Node000011" class="node">
<title>Node11</title>
<g id="a_Node000011"><a xlink:href="class_main_window.html#a40023e3590f2593fd133a6b111f63ed9" target="_top" xlink:title=" ">
<polygon fill="white" stroke="#666666" points="140.5,-130 0,-130 0,-98 140.5,-98 140.5,-130"/>
<text xml:space="preserve" text-anchor="start" x="8" y="-116.5" font-family="Helvetica,sans-Serif" font-size="10.00">MainWindow::populateEntity</text>
<text xml:space="preserve" text-anchor="middle" x="70.25" y="-104.5" font-family="Helvetica,sans-Serif" font-size="10.00">Properties</text>
</a>
</g>
</g>
<!-- Node8&#45;&gt;Node11 -->
<g id="edge16_Node000008_Node000011" class="edge">
<title>Node8&#45;&gt;Node11</title>
<g id="a_edge16_Node000008_Node000011"><a xlink:title=" ">
<path fill="none" stroke="#63b8ff" d="M981.25,-235.83C899.82,-237.59 767.9,-240 654,-240 654,-240 654,-240 458.62,-240 318.6,-240 163.45,-164.63 100.33,-130.47"/>
<polygon fill="#63b8ff" stroke="#63b8ff" points="980.96,-239.34 990.88,-235.62 980.81,-232.34 980.96,-239.34"/>
</a>
</g>
</g>
<!-- Node9&#45;&gt;Node4 -->
<g id="edge14_Node000009_Node000004" class="edge">
<title>Node9&#45;&gt;Node4</title>
<g id="a_edge14_Node000009_Node000004"><a xlink:title=" ">
<path fill="none" stroke="#63b8ff" d="M303.76,-100.16C374.98,-78.24 523.26,-38 652,-38 1451.12,-38 1451.12,-38 1451.12,-38 1574.82,-38 1611.65,-47.66 1721.25,-105 1765.3,-128.04 1806.48,-170.59 1827.05,-193.83"/>
<polygon fill="#63b8ff" stroke="#63b8ff" points="302.96,-96.74 294.45,-103.06 305.04,-103.43 302.96,-96.74"/>
</a>
</g>
</g>
<!-- Node9&#45;&gt;Node10 -->
<g id="edge9_Node000009_Node000010" class="edge">
<title>Node9&#45;&gt;Node10</title>
<g id="a_edge9_Node000009_Node000010"><a xlink:title=" ">
<path fill="none" stroke="#63b8ff" d="M315.5,-126.15C336.47,-129.14 360.83,-132.02 383.44,-134.2"/>
<polygon fill="#63b8ff" stroke="#63b8ff" points="316.13,-122.7 305.72,-124.7 315.1,-129.63 316.13,-122.7"/>
</a>
</g>
</g>
<!-- Node9&#45;&gt;Node11 -->
<g id="edge12_Node000009_Node000011" class="edge">
<title>Node9&#45;&gt;Node11</title>
<g id="a_edge12_Node000009_Node000011"><a xlink:title=" ">
<path fill="none" stroke="#63b8ff" d="M164.85,-114C156.78,-114 148.71,-114 140.89,-114"/>
<polygon fill="#63b8ff" stroke="#63b8ff" points="164.73,-117.5 174.73,-114 164.73,-110.5 164.73,-117.5"/>
</a>
</g>
</g>
<!-- Node10&#45;&gt;Node5 -->
<g id="edge11_Node000010_Node000005" class="edge">
<title>Node10&#45;&gt;Node5</title>
<g id="a_edge11_Node000010_Node000005"><a xlink:title=" ">
<path fill="none" stroke="#63b8ff" d="M547.41,-128.36C627.07,-122 748.38,-114 854,-114 1258.12,-114 1258.12,-114 1258.12,-114 1363.14,-114 1484.23,-120.09 1561.55,-124.76"/>
<polygon fill="#63b8ff" stroke="#63b8ff" points="547.16,-124.86 537.48,-129.16 547.73,-131.84 547.16,-124.86"/>
</a>
</g>
</g>
<!-- Node10&#45;&gt;Node9 -->
<g id="edge10_Node000010_Node000009" class="edge">
<title>Node10&#45;&gt;Node9</title>
<g id="a_edge10_Node000010_Node000009"><a xlink:title=" ">
<path fill="none" stroke="#63b8ff" d="M372.27,-119.67C363.04,-118.57 353.66,-117.54 344.46,-116.6"/>
<polygon fill="#63b8ff" stroke="#63b8ff" points="371.59,-123.11 381.94,-120.86 372.44,-116.17 371.59,-123.11"/>
</a>
</g>
</g>
<!-- Node11&#45;&gt;Node5 -->
<g id="edge13_Node000011_Node000005" class="edge">
<title>Node11&#45;&gt;Node5</title>
<g id="a_edge13_Node000011_Node000005"><a xlink:title=" ">
<path fill="none" stroke="#63b8ff" d="M113.91,-92.69C184.01,-59.69 328.76,0 458.62,0 1060.62,0 1060.62,0 1060.62,0 1265.98,0 1502.54,-78.55 1597.71,-113.54"/>
<polygon fill="#63b8ff" stroke="#63b8ff" points="112.6,-89.43 105.08,-96.89 115.62,-95.75 112.6,-89.43"/>
</a>
</g>
</g>
<!-- Node13 -->
<g id="Node000013" class="node">
<title>Node13</title>
<g id="a_Node000013"><a xlink:href="class_main_window.html#a44aaf7bb6d9a56f53b8a7a9e4fc29f8c" target="_top" xlink:title=" ">
<polygon fill="white" stroke="#666666" points="728.5,-212 577.5,-212 577.5,-180 728.5,-180 728.5,-212"/>
<text xml:space="preserve" text-anchor="start" x="585.5" y="-198.5" font-family="Helvetica,sans-Serif" font-size="10.00">MainWindow::createCheckBox</text>
<text xml:space="preserve" text-anchor="middle" x="653" y="-186.5" font-family="Helvetica,sans-Serif" font-size="10.00">PropertyItem</text>
</a>
</g>
</g>
<!-- Node12&#45;&gt;Node13 -->
<g id="edge19_Node000012_Node000013" class="edge">
<title>Node12&#45;&gt;Node13</title>
<g id="a_edge19_Node000012_Node000013"><a xlink:title=" ">
<path fill="none" stroke="#63b8ff" d="M833.05,-342.82C794.3,-311.04 711.89,-243.47 673.92,-212.33"/>
<polygon fill="#63b8ff" stroke="#63b8ff" points="830.37,-345.15 840.32,-348.78 834.81,-339.73 830.37,-345.15"/>
</a>
</g>
</g>
<!-- Node13&#45;&gt;Node4 -->
<g id="edge21_Node000013_Node000004" class="edge">
<title>Node13&#45;&gt;Node4</title>
<g id="a_edge21_Node000013_Node000004"><a xlink:title=" ">
<path fill="none" stroke="#63b8ff" d="M740.45,-193.98C822.37,-192.23 948.86,-190 1058.62,-190 1451.12,-190 1451.12,-190 1451.12,-190 1556.62,-190 1677.97,-197.4 1756.83,-203.2"/>
<polygon fill="#63b8ff" stroke="#63b8ff" points="740.38,-190.48 730.46,-194.19 740.53,-197.48 740.38,-190.48"/>
</a>
</g>
</g>
<!-- Node13&#45;&gt;Node10 -->
<g id="edge20_Node000013_Node000010" class="edge">
<title>Node13&#45;&gt;Node10</title>
<g id="a_edge20_Node000013_Node000010"><a xlink:title=" ">
<path fill="none" stroke="#63b8ff" d="M588.79,-176.18C564.25,-168.49 536.46,-159.78 513.05,-152.44"/>
<polygon fill="#63b8ff" stroke="#63b8ff" points="587.42,-179.42 598.01,-179.07 589.51,-172.74 587.42,-179.42"/>
</a>
</g>
</g>
<!-- Node15 -->
<g id="Node000015" class="node">
<title>Node15</title>
<g id="a_Node000015"><a xlink:href="class_main_window.html#a872e6a76dcbf858ae9d483eceddf90e1" target="_top" xlink:title=" ">
<polygon fill="white" stroke="#666666" points="730,-300 576,-300 576,-268 730,-268 730,-300"/>
<text xml:space="preserve" text-anchor="start" x="584" y="-286.5" font-family="Helvetica,sans-Serif" font-size="10.00">MainWindow::createComboBox</text>
<text xml:space="preserve" text-anchor="middle" x="653" y="-274.5" font-family="Helvetica,sans-Serif" font-size="10.00">PropertyItem</text>
</a>
</g>
</g>
<!-- Node14&#45;&gt;Node15 -->
<g id="edge23_Node000014_Node000015" class="edge">
<title>Node14&#45;&gt;Node15</title>
<g id="a_edge23_Node000014_Node000015"><a xlink:title=" ">
<path fill="none" stroke="#63b8ff" d="M837.37,-494.88C798.9,-450.63 704.31,-341.85 668.26,-300.4"/>
<polygon fill="#63b8ff" stroke="#63b8ff" points="834.69,-497.13 843.89,-502.38 839.97,-492.53 834.69,-497.13"/>
</a>
</g>
</g>
<!-- Node16 -->
<g id="Node000016" class="node">
<title>Node16</title>
<g id="a_Node000016"><a xlink:href="class_main_window.html#abae03a6494d13d74ed1b2e31ec1f2fc7" target="_top" xlink:title=" ">
<polygon fill="white" stroke="#666666" points="730.75,-568 575.25,-568 575.25,-536 730.75,-536 730.75,-568"/>
<text xml:space="preserve" text-anchor="start" x="583.25" y="-554.5" font-family="Helvetica,sans-Serif" font-size="10.00">MainWindow::createIconCombo</text>
<text xml:space="preserve" text-anchor="middle" x="653" y="-542.5" font-family="Helvetica,sans-Serif" font-size="10.00">BoxPropertyItem</text>
</a>
</g>
</g>
<!-- Node14&#45;&gt;Node16 -->
<g id="edge26_Node000014_Node000016" class="edge">
<title>Node14&#45;&gt;Node16</title>
<g id="a_edge26_Node000014_Node000016"><a xlink:title=" ">
<path fill="none" stroke="#63b8ff" d="M787.76,-526.59C769.61,-530.03 749.78,-533.8 731.08,-537.35"/>
<polygon fill="#63b8ff" stroke="#63b8ff" points="788.16,-530.07 797.33,-524.77 786.86,-523.19 788.16,-530.07"/>
</a>
</g>
</g>
<!-- Node15&#45;&gt;Node4 -->
<g id="edge25_Node000015_Node000004" class="edge">
<title>Node15&#45;&gt;Node4</title>
<g id="a_edge25_Node000015_Node000004"><a xlink:title=" ">
<path fill="none" stroke="#63b8ff" d="M741.67,-282.98C924.37,-280.1 1358.99,-269.35 1721.25,-230 1732.86,-228.74 1745.05,-227.09 1757.02,-225.27"/>
<polygon fill="#63b8ff" stroke="#63b8ff" points="741.72,-279.48 731.78,-283.13 741.83,-286.48 741.72,-279.48"/>
</a>
</g>
</g>
<!-- Node15&#45;&gt;Node10 -->
<g id="edge24_Node000015_Node000010" class="edge">
<title>Node15&#45;&gt;Node10</title>
<g id="a_edge24_Node000015_Node000010"><a xlink:title=" ">
<path fill="none" stroke="#63b8ff" d="M621.99,-260.79C583.05,-230.68 516.05,-178.86 481.93,-152.48"/>
<polygon fill="#63b8ff" stroke="#63b8ff" points="619.54,-263.32 629.59,-266.67 623.82,-257.78 619.54,-263.32"/>
</a>
</g>
</g>
<!-- Node17 -->
<g id="Node000017" class="node">
<title>Node17</title>
<g id="a_Node000017"><a xlink:href="class_main_window.html#af02df1238ccf49caa1c4099c88dfe465" target="_top" xlink:title=" ">
<polygon fill="white" stroke="#666666" points="539.25,-650 380,-650 380,-618 539.25,-618 539.25,-650"/>
<text xml:space="preserve" text-anchor="start" x="388" y="-636.5" font-family="Helvetica,sans-Serif" font-size="10.00">MainWindow::populateProperties</text>
<text xml:space="preserve" text-anchor="middle" x="459.62" y="-624.5" font-family="Helvetica,sans-Serif" font-size="10.00">ForConnection</text>
</a>
</g>
</g>
<!-- Node16&#45;&gt;Node17 -->
<g id="edge27_Node000016_Node000017" class="edge">
<title>Node16&#45;&gt;Node17</title>
<g id="a_edge27_Node000016_Node000017"><a xlink:title=" ">
<path fill="none" stroke="#63b8ff" d="M603.56,-572.76C571.09,-586.67 528.93,-604.73 498.83,-617.63"/>
<polygon fill="#63b8ff" stroke="#63b8ff" points="604.53,-576.15 612.34,-568.99 601.77,-569.71 604.53,-576.15"/>
</a>
</g>
</g>
<!-- Node17&#45;&gt;Node6 -->
<g id="edge28_Node000017_Node000006" class="edge">
<title>Node17&#45;&gt;Node6</title>
<g id="a_edge28_Node000017_Node000006"><a xlink:title=" ">
<path fill="none" stroke="#63b8ff" d="M551.13,-641.94C630.81,-648.24 750.01,-656 854,-656 1060.62,-656 1060.62,-656 1060.62,-656 1210.66,-656 1370.16,-552.25 1427.25,-511.32"/>
<polygon fill="#63b8ff" stroke="#63b8ff" points="551.42,-638.45 541.17,-641.14 550.86,-645.43 551.42,-638.45"/>
</a>
</g>
</g>
<!-- Node18&#45;&gt;Node6 -->
<g id="edge33_Node000018_Node000006" class="edge">
<title>Node18&#45;&gt;Node6</title>
<g id="a_edge33_Node000018_Node000006"><a xlink:title=" ">
<path fill="none" stroke="#63b8ff" d="M921.02,-721.74C1019.05,-740.9 1207.17,-757.07 1338.25,-679 1402.52,-640.72 1435.55,-549.12 1445.67,-511.28"/>
<polygon fill="#63b8ff" stroke="#63b8ff" points="921.79,-718.33 911.29,-719.76 920.39,-725.19 921.79,-718.33"/>
</a>
</g>
</g>
<!-- Node19 -->
<g id="Node000019" class="node">
<title>Node19</title>
<g id="a_Node000019"><a xlink:href="class_main_window.html#adfa32feecffce3959c99d145fc8b4854" target="_top" xlink:title=" ">
<polygon fill="white" stroke="#666666" points="725.5,-735 580.5,-735 580.5,-715 725.5,-715 725.5,-735"/>
<text xml:space="preserve" text-anchor="middle" x="653" y="-721.5" font-family="Helvetica,sans-Serif" font-size="10.00">MainWindow::connectSignals</text>
</a>
</g>
</g>
<!-- Node18&#45;&gt;Node19 -->
<g id="edge31_Node000018_Node000019" class="edge">
<title>Node18&#45;&gt;Node19</title>
<g id="a_edge31_Node000018_Node000019"><a xlink:title=" ">
<path fill="none" stroke="#63b8ff" d="M768.49,-712.41C754.25,-713.97 739.6,-715.58 725.74,-717.11"/>
<polygon fill="#63b8ff" stroke="#63b8ff" points="768.75,-715.9 778.31,-711.33 767.98,-708.94 768.75,-715.9"/>
</a>
</g>
</g>
<!-- Node20 -->
<g id="Node000020" class="node">
<title>Node20</title>
<g id="a_Node000020"><a xlink:href="class_main_window.html#a996c5a2b6f77944776856f08ec30858d" target="_top" xlink:title=" ">
<polygon fill="white" stroke="#666666" points="526.88,-735 392.38,-735 392.38,-715 526.88,-715 526.88,-735"/>
<text xml:space="preserve" text-anchor="middle" x="459.62" y="-721.5" font-family="Helvetica,sans-Serif" font-size="10.00">MainWindow::MainWindow</text>
</a>
</g>
</g>
<!-- Node19&#45;&gt;Node20 -->
<g id="edge32_Node000019_Node000020" class="edge">
<title>Node19&#45;&gt;Node20</title>
<g id="a_edge32_Node000019_Node000020"><a xlink:title=" ">
<path fill="none" stroke="#63b8ff" d="M569.06,-725C555.05,-725 540.67,-725 527.14,-725"/>
<polygon fill="#63b8ff" stroke="#63b8ff" points="568.68,-728.5 578.68,-725 568.68,-721.5 568.68,-728.5"/>
</a>
</g>
</g>
<!-- Node21&#45;&gt;Node8 -->
<g id="edge35_Node000021_Node000008" class="edge">
<title>Node21&#45;&gt;Node8</title>
<g id="a_edge35_Node000021_Node000008"><a xlink:title=" ">
<path fill="none" stroke="#63b8ff" d="M1181.83,-345.47C1179.83,-344.36 1177.89,-343.21 1176,-342 1155.87,-329.09 1157.12,-318.7 1140,-302 1120.91,-283.37 1097.57,-263.71 1081.16,-250.35"/>
<polygon fill="#63b8ff" stroke="#63b8ff" points="1180.27,-348.6 1190.79,-349.87 1183.36,-342.32 1180.27,-348.6"/>
</a>
</g>
</g>
<!-- Node22&#45;&gt;Node19 -->
<g id="edge37_Node000022_Node000019" class="edge">
<title>Node22&#45;&gt;Node19</title>
<g id="a_edge37_Node000022_Node000019"><a xlink:title=" ">
<path fill="none" stroke="#63b8ff" d="M759.38,-737.12C748.08,-735.82 736.69,-734.51 725.79,-733.26"/>
<polygon fill="#63b8ff" stroke="#63b8ff" points="758.79,-740.57 769.13,-738.24 759.59,-733.62 758.79,-740.57"/>
</a>
</g>
</g>
<!-- Node23&#45;&gt;Node2 -->
<g id="edge49_Node000023_Node000002" class="edge">
<title>Node23&#45;&gt;Node2</title>
<g id="a_edge49_Node000023_Node000002"><a xlink:title=" ">
<path fill="none" stroke="#63b8ff" d="M1335.45,-465.94C1412.66,-459.51 1534.75,-451 1640.62,-451 1842.75,-451 1842.75,-451 1842.75,-451 1944.72,-451 2062.22,-451 2138.46,-451"/>
<polygon fill="#63b8ff" stroke="#63b8ff" points="1335.57,-462.42 1325.9,-466.74 1336.16,-469.39 1335.57,-462.42"/>
</a>
</g>
</g>
<!-- Node23&#45;&gt;Node12 -->
<g id="edge47_Node000023_Node000012" class="edge">
<title>Node23&#45;&gt;Node12</title>
<g id="a_edge47_Node000023_Node000012"><a xlink:title=" ">
<path fill="none" stroke="#63b8ff" d="M1212.32,-451.82C1190.88,-442.05 1164.48,-430.91 1140,-423 1117.89,-415.86 980.85,-386.44 905.51,-370.45"/>
<polygon fill="#63b8ff" stroke="#63b8ff" points="1210.81,-454.97 1221.35,-455.99 1213.74,-448.62 1210.81,-454.97"/>
</a>
</g>
</g>
<!-- Node23&#45;&gt;Node14 -->
<g id="edge48_Node000023_Node000014" class="edge">
<title>Node23&#45;&gt;Node14</title>
<g id="a_edge48_Node000023_Node000014"><a xlink:title=" ">
<path fill="none" stroke="#63b8ff" d="M1178.67,-480.94C1111.31,-487.84 1013.75,-497.84 943.56,-505.03"/>
<polygon fill="#63b8ff" stroke="#63b8ff" points="1178.96,-484.43 1188.55,-479.92 1178.24,-477.46 1178.96,-484.43"/>
</a>
</g>
</g>
<!-- Node23&#45;&gt;Node18 -->
<g id="edge50_Node000023_Node000018" class="edge">
<title>Node23&#45;&gt;Node18</title>
<g id="a_edge50_Node000023_Node000018"><a xlink:title=" ">
<path fill="none" stroke="#63b8ff" d="M1227.97,-496.69C1205.08,-515.35 1171.53,-541.4 1140,-561 1055.96,-613.23 950.15,-662.03 894.41,-686.53"/>
<polygon fill="#63b8ff" stroke="#63b8ff" points="1230.12,-499.45 1235.62,-490.39 1225.67,-494.04 1230.12,-499.45"/>
</a>
</g>
</g>
<!-- Node24 -->
<g id="Node000024" class="node">
<title>Node24</title>
<g id="a_Node000024"><a xlink:href="class_main_window.html#a9ed390421f6755b891cfc651d173db7b" target="_top" xlink:title=" ">
<polygon fill="white" stroke="#666666" points="1131.38,-464 987.88,-464 987.88,-432 1131.38,-432 1131.38,-464"/>
<text xml:space="preserve" text-anchor="start" x="995.88" y="-450.5" font-family="Helvetica,sans-Serif" font-size="10.00">MainWindow::handleAttribute</text>
<text xml:space="preserve" text-anchor="middle" x="1059.62" y="-438.5" font-family="Helvetica,sans-Serif" font-size="10.00">PropertyChange</text>
</a>
</g>
</g>
<!-- Node23&#45;&gt;Node24 -->
<g id="edge39_Node000023_Node000024" class="edge">
<title>Node23&#45;&gt;Node24</title>
<g id="a_edge39_Node000023_Node000024"><a xlink:title=" ">
<path fill="none" stroke="#63b8ff" d="M1178.79,-463.11C1163.28,-461.13 1147.06,-459.05 1131.77,-457.1"/>
<polygon fill="#63b8ff" stroke="#63b8ff" points="1178.07,-466.55 1188.44,-464.34 1178.96,-459.6 1178.07,-466.55"/>
</a>
</g>
</g>
<!-- Node25 -->
<g id="Node000025" class="node">
<title>Node25</title>
<g id="a_Node000025"><a xlink:href="class_main_window.html#aa69c4b7c558b2fb3922adf75af48330a" target="_top" xlink:title=" ">
<polygon fill="white" stroke="#666666" points="1140,-552 979.25,-552 979.25,-520 1140,-520 1140,-552"/>
<text xml:space="preserve" text-anchor="start" x="987.25" y="-538.5" font-family="Helvetica,sans-Serif" font-size="10.00">MainWindow::handleRelationship</text>
<text xml:space="preserve" text-anchor="middle" x="1059.62" y="-526.5" font-family="Helvetica,sans-Serif" font-size="10.00">EndCardinalityChange</text>
</a>
</g>
</g>
<!-- Node23&#45;&gt;Node25 -->
<g id="edge43_Node000023_Node000025" class="edge">
<title>Node23&#45;&gt;Node25</title>
<g id="a_edge43_Node000023_Node000025"><a xlink:title=" ">
<path fill="none" stroke="#63b8ff" d="M1194.29,-492.93C1167.72,-501.49 1137.04,-511.38 1111.78,-519.52"/>
<polygon fill="#63b8ff" stroke="#63b8ff" points="1195.13,-496.33 1203.57,-489.93 1192.98,-489.67 1195.13,-496.33"/>
</a>
</g>
</g>
<!-- Node26 -->
<g id="Node000026" class="node">
<title>Node26</title>
<g id="a_Node000026"><a xlink:href="class_main_window.html#a96d575a529f7c24b1b5094b4b1e42742" target="_top" xlink:title=" ">
<polygon fill="white" stroke="#666666" points="1140,-376 979.25,-376 979.25,-344 1140,-344 1140,-376"/>
<text xml:space="preserve" text-anchor="start" x="987.25" y="-362.5" font-family="Helvetica,sans-Serif" font-size="10.00">MainWindow::handleRelationship</text>
<text xml:space="preserve" text-anchor="middle" x="1059.62" y="-350.5" font-family="Helvetica,sans-Serif" font-size="10.00">EndParticipationChange</text>
</a>
</g>
</g>
<!-- Node23&#45;&gt;Node26 -->
<g id="edge45_Node000023_Node000026" class="edge">
<title>Node23&#45;&gt;Node26</title>
<g id="a_edge45_Node000023_Node000026"><a xlink:title=" ">
<path fill="none" stroke="#63b8ff" d="M1215.33,-451.03C1202.34,-443.39 1188.19,-434.37 1176,-425 1158.31,-411.4 1158.83,-401.97 1140,-390 1131.8,-384.78 1122.54,-380.26 1113.33,-376.43"/>
<polygon fill="#63b8ff" stroke="#63b8ff" points="1213.26,-453.87 1223.68,-455.82 1216.75,-447.8 1213.26,-453.87"/>
</a>
</g>
</g>
<!-- Node24&#45;&gt;Node12 -->
<g id="edge40_Node000024_Node000012" class="edge">
<title>Node24&#45;&gt;Node12</title>
<g id="a_edge40_Node000024_Node000012"><a xlink:title=" ">
<path fill="none" stroke="#63b8ff" d="M1002.76,-427.52C994.83,-424.43 986.8,-421.2 979.25,-418 942.67,-402.51 901.02,-382.37 876.71,-370.36"/>
<polygon fill="#63b8ff" stroke="#63b8ff" points="1001.46,-430.77 1012.05,-431.09 1003.97,-424.23 1001.46,-430.77"/>
</a>
</g>
</g>
<!-- Node24&#45;&gt;Node14 -->
<g id="edge41_Node000024_Node000014" class="edge">
<title>Node24&#45;&gt;Node14</title>
<g id="a_edge41_Node000024_Node000014"><a xlink:title=" ">
<path fill="none" stroke="#63b8ff" d="M997.13,-468.03C961.14,-479.75 917.17,-494.08 887.97,-503.59"/>
<polygon fill="#63b8ff" stroke="#63b8ff" points="998.15,-471.38 1006.58,-464.95 995.99,-464.72 998.15,-471.38"/>
</a>
</g>
</g>
<!-- Node24&#45;&gt;Node18 -->
<g id="edge42_Node000024_Node000018" class="edge">
<title>Node24&#45;&gt;Node18</title>
<g id="a_edge42_Node000024_Node000018"><a xlink:title=" ">
<path fill="none" stroke="#63b8ff" d="M1024.98,-470.84C1010,-481.94 992.74,-496.09 979.25,-511 926.77,-569.02 881.91,-651.79 864.15,-686.59"/>
<polygon fill="#63b8ff" stroke="#63b8ff" points="1026.68,-473.92 1032.73,-465.23 1022.58,-468.25 1026.68,-473.92"/>
</a>
</g>
</g>
<!-- Node25&#45;&gt;Node14 -->
<g id="edge44_Node000025_Node000014" class="edge">
<title>Node25&#45;&gt;Node14</title>
<g id="a_edge44_Node000025_Node000014"><a xlink:title=" ">
<path fill="none" stroke="#63b8ff" d="M967.39,-526.09C959.53,-525.24 951.58,-524.38 943.75,-523.53"/>
<polygon fill="#63b8ff" stroke="#63b8ff" points="967.01,-529.57 977.33,-527.17 967.76,-522.61 967.01,-529.57"/>
</a>
</g>
</g>
<!-- Node26&#45;&gt;Node12 -->
<g id="edge46_Node000026_Node000012" class="edge">
<title>Node26&#45;&gt;Node12</title>
<g id="a_edge46_Node000026_Node000012"><a xlink:title=" ">
<path fill="none" stroke="#63b8ff" d="M967.41,-360C958.98,-360 950.45,-360 942.07,-360"/>
<polygon fill="#63b8ff" stroke="#63b8ff" points="967.32,-363.5 977.32,-360 967.32,-356.5 967.32,-363.5"/>
</a>
</g>
</g>
</g>
</svg>

<g id="navigator" transform="translate(0 0)" fill="#404254">
  <rect fill="#f2f5e9" fill-opacity="0.5" stroke="#606060" stroke-width=".5" x="0" y="0" width="60" height="60"/>
  <use id="zoomplus" xlink:href="#zoomPlus" x="17" y="9" onmousedown="handleZoom(evt,'in')"/>
  <use id="zoomminus" xlink:href="#zoomMin" x="42" y="9" onmousedown="handleZoom(evt,'out')"/>
  <use id="reset" xlink:href="#resetDef" x="30" y="36" onmousedown="handleReset()"/>
   <use id="arrowup" xlink:href="#arrowUp" x="0" y="0" onmousedown="handlePan(0,-1)"/>
  <use id="arrowright" xlink:href="#arrowRight" x="0" y="0" onmousedown="handlePan(1,0)"/>
  <use id="arrowdown" xlink:href="#arrowDown" x="0" y="0" onmousedown="handlePan(0,1)"/>
  <use id="arrowleft" xlink:href="#arrowLeft" x="0" y="0" onmousedown="handlePan(-1,0)"/>
</g>
<svg viewBox="0 0 15 15" width="100%" height="30px" preserveAspectRatio="xMaxYMin meet">
 <g id="arrow_out" transform="scale(0.3 0.3)">
  <a xlink:href="class_relationship_end_a872cd032aa3a9e2c7f23f455d03c4863_icgraph_org.svg" target="_base">
   <rect id="button" ry="5" rx="5" y="6" x="6" height="38" width="38"
        fill="#f2f5e9" fill-opacity="0.5" stroke="#606060" stroke-width="1.0"/>
   <path id="arrow"
     d="M 11.500037,31.436501 C 11.940474,20.09759 22.043105,11.32322 32.158766,21.979434 L 37.068811,17.246167 C 37.068811,17.246167 37.088388,32 37.088388,32 L 22.160133,31.978069 C 22.160133,31.978069 26.997745,27.140456 26.997745,27.140456 C 18.528582,18.264221 13.291696,25.230495 11.500037,31.436501 z"
     style="fill:#404040;"/>
  </a>
 </g>
</svg>

<style type='text/css'>
<![CDATA[
[data-mouse-over-selected='false'] { opacity: 0.7; }
[data-mouse-over-selected='true']  { opacity: 1.0; }
]]>
</style>
<script type="application/ecmascript"><![CDATA[
document.addEventListener('DOMContentLoaded', (event) => {
  highlightEdges();
  highlightAdjacentNodes();
});
]]></script>
</svg>
