<?xml version="1.0" encoding="UTF-8" standalone="no"?>
<!DOCTYPE svg PUBLIC "-//W3C//DTD SVG 1.1//EN"
 "http://www.w3.org/Graphics/SVG/1.1/DTD/svg11.dtd">
<!-- Generated by graphviz version 14.1.1 (20251213.1925)
 -->
<!-- Title: RelationshipEnd::totalParticipationChanged Pages: 1 -->
<!--zoomable 722 -->

<svg id="main" version="1.1" xmlns="http://www.w3.org/2000/svg" xmlns:xlink="http://www.w3.org/1999/xlink" xml:space="preserve" onload="init(evt)">

<style type="text/css"><![CDATA[
.node, .edge {opacity: 0.7;}
.node.selected, .edge.selected {opacity: 1;}
.edge:hover path { stroke: red; }
.edge:hover polygon { stroke: red; fill: red; }
]]></style>

<defs>
  <circle id="rim" cx="0" cy="0" r="7"/>
  <circle id="rim2" cx="0" cy="0" r="3.5"/>
  <g id="zoomPlus">
    <use xlink:href="#rim" fill="#404040"><set attributeName="fill" to="#808080" begin="zoomplus.mouseover" end="zoomplus.mouseout"/></use>
    <path d="M-4,0h8M0,-4v8" fill="none" stroke="white" stroke-width="1.5" pointer-events="none"/>
  </g>
  <g id="zoomMin">
    <use xlink:href="#rim" fill="#404040"><set attributeName="fill" to="#808080" begin="zoomminus.mouseover" end="zoomminus.mouseout"/></use>
    <path d="M-4,0h8" fill="none" stroke="white" stroke-width="1.5" pointer-events="none"/>
  </g>
  <g id="arrowUp" transform="translate(30 24)">
    <use xlink:href="#rim"/>
    <path pointer-events="none" fill="none" stroke="white" stroke-width="1.5" d="M0,-3.0v7 M-2.5,-0.5L0,-3.0L2.5,-0.5"/>
  </g>
  <g id="arrowRight" transform="rotate(90) translate(36 -43)">
    <use xlink:href="#rim"/>
    <path pointer-events="none" fill="none" stroke="white" stroke-width="1.5" d="M0,-3.0v7 M-2.5,-0.5L0,-3.0L2.5,-0.5"/>
  </g>
  <g id="arrowDown" transform="rotate(180) translate(-30 -48)">
    <use xlink:href="#rim"/>
    <path pointer-events="none" fill="none" stroke="white" stroke-width="1.5" d="M0,-3.0v7 M-2.5,-0.5L0,-3.0L2.5,-0.5"/>
  </g>
  <g id="arrowLeft" transform="rotate(270) translate(-36 17)">
    <use xlink:href="#rim"/>
    <path pointer-events="none" fill="none" stroke="white" stroke-width="1.5" d="M0,-3.0v7 M-2.5,-0.5L0,-3.0L2.5,-0.5"/>
  </g>
  <g id="resetDef">
    <use xlink:href="#rim2" fill="#404040"><set attributeName="fill" to="#808080" begin="reset.mouseover" end="reset.mouseout"/></use>
  </g>
</defs>
<script type="application/ecmascript">
var viewWidth = 2668;
var viewHeight = 722;
var sectionId = 'dynsection-14';
</script>
<script type="application/ecmascript" xlink:href="svg.min.js"/>
<svg id="graph" class="graph">
<g id="viewport">
<title>RelationshipEnd::totalParticipationChanged</title>
<!-- Node1 -->
<g id="Node000001" class="node">
<title>Node1</title>
<g id="a_Node000001"><a xlink:title=" ">
<polygon fill="#999999" stroke="#666666" points="2659.5,-258.55 2493.5,-258.55 2493.5,-226.55 2659.5,-226.55 2659.5,-258.55"/>
<text xml:space="preserve" text-anchor="start" x="2501.5" y="-245.05" font-family="Helvetica,sans-Serif" font-size="10.00">RelationshipEnd::totalParticipation</text>
<text xml:space="preserve" text-anchor="middle" x="2576.5" y="-233.05" font-family="Helvetica,sans-Serif" font-size="10.00">Changed</text>
</a>
</g>
</g>
<!-- Node2 -->
<g id="Node000002" class="node">
<title>Node2</title>
<g id="a_Node000002"><a xlink:href="class_relationship_connection_line.html#a00e5304ae94f728128ec8b6476a74177" target="_top" xlink:title=" ">
<polygon fill="white" stroke="#666666" points="2445.12,-308.55 2306.88,-308.55 2306.88,-276.55 2445.12,-276.55 2445.12,-308.55"/>
<text xml:space="preserve" text-anchor="start" x="2314.88" y="-295.05" font-family="Helvetica,sans-Serif" font-size="10.00">RelationshipConnectionLine</text>
<text xml:space="preserve" text-anchor="middle" x="2376" y="-283.05" font-family="Helvetica,sans-Serif" font-size="10.00">::connectToRelationshipEnd</text>
</a>
</g>
</g>
<!-- Node1&#45;&gt;Node2 -->
<g id="edge1_Node000001_Node000002" class="edge">
<title>Node1&#45;&gt;Node2</title>
<g id="a_edge1_Node000001_Node000002"><a xlink:title=" ">
<path fill="none" stroke="#63b8ff" d="M2499.32,-261.74C2480.51,-266.48 2460.54,-271.51 2442.31,-276.1"/>
<polygon fill="#63b8ff" stroke="#63b8ff" points="2499.92,-265.2 2508.76,-259.36 2498.21,-258.41 2499.92,-265.2"/>
</a>
</g>
</g>
<!-- Node5 -->
<g id="Node000005" class="node">
<title>Node5</title>
<g id="a_Node000005"><a xlink:href="class_relationship_connection_line.html#a73f28ee054400ee6eb13b64a7817ef4b" target="_top" xlink:title=" ">
<polygon fill="white" stroke="#666666" points="2457.5,-258.55 2294.5,-258.55 2294.5,-226.55 2457.5,-226.55 2457.5,-258.55"/>
<text xml:space="preserve" text-anchor="start" x="2302.5" y="-245.05" font-family="Helvetica,sans-Serif" font-size="10.00">RelationshipConnectionLine</text>
<text xml:space="preserve" text-anchor="middle" x="2376" y="-233.05" font-family="Helvetica,sans-Serif" font-size="10.00">::disconnectFromRelationshipEnd</text>
</a>
</g>
</g>
<!-- Node1&#45;&gt;Node5 -->
<g id="edge4_Node000001_Node000005" class="edge">
<title>Node1&#45;&gt;Node5</title>
<g id="a_edge4_Node000001_Node000005"><a xlink:title=" ">
<path fill="none" stroke="#63b8ff" d="M2481.53,-242.55C2473.64,-242.55 2465.71,-242.55 2457.92,-242.55"/>
<polygon fill="#63b8ff" stroke="#63b8ff" points="2481.53,-246.05 2491.53,-242.55 2481.53,-239.05 2481.53,-246.05"/>
</a>
</g>
</g>
<!-- Node7 -->
<g id="Node000007" class="node">
<title>Node7</title>
<g id="a_Node000007"><a xlink:href="class_relationship_end.html#a52a4e1035f4f5cc99ee5068ea6e002ba" target="_top" xlink:title=" ">
<polygon fill="white" stroke="#666666" points="2444,-208.55 2308,-208.55 2308,-176.55 2444,-176.55 2444,-208.55"/>
<text xml:space="preserve" text-anchor="start" x="2316" y="-195.05" font-family="Helvetica,sans-Serif" font-size="10.00">RelationshipEnd::setIsTotal</text>
<text xml:space="preserve" text-anchor="middle" x="2376" y="-183.05" font-family="Helvetica,sans-Serif" font-size="10.00">Participation</text>
</a>
</g>
</g>
<!-- Node1&#45;&gt;Node7 -->
<g id="edge7_Node000001_Node000007" class="edge">
<title>Node1&#45;&gt;Node7</title>
<g id="a_edge7_Node000001_Node000007"><a xlink:title=" ">
<path fill="none" stroke="#63b8ff" d="M2499.32,-223.36C2480.51,-218.62 2460.54,-213.59 2442.31,-209"/>
<polygon fill="#63b8ff" stroke="#63b8ff" points="2498.21,-226.69 2508.76,-225.74 2499.92,-219.9 2498.21,-226.69"/>
</a>
</g>
</g>
<!-- Node3 -->
<g id="Node000003" class="node">
<title>Node3</title>
<g id="a_Node000003"><a xlink:href="class_relationship_connection_line.html#a77c08ca0dffdc230d3f164d846b3c176" target="_top" xlink:title=" ">
<polygon fill="white" stroke="#666666" points="2243.5,-358.55 2100,-358.55 2100,-326.55 2243.5,-326.55 2243.5,-358.55"/>
<text xml:space="preserve" text-anchor="start" x="2108" y="-345.05" font-family="Helvetica,sans-Serif" font-size="10.00">RelationshipConnectionLine</text>
<text xml:space="preserve" text-anchor="middle" x="2171.75" y="-333.05" font-family="Helvetica,sans-Serif" font-size="10.00">::RelationshipConnectionLine</text>
</a>
</g>
</g>
<!-- Node2&#45;&gt;Node3 -->
<g id="edge2_Node000002_Node000003" class="edge">
<title>Node2&#45;&gt;Node3</title>
<g id="a_edge2_Node000002_Node000003"><a xlink:title=" ">
<path fill="none" stroke="#63b8ff" d="M2297.38,-311.74C2278.22,-316.48 2257.87,-321.51 2239.29,-326.1"/>
<polygon fill="#63b8ff" stroke="#63b8ff" points="2298.16,-315.15 2307.03,-309.35 2296.48,-308.36 2298.16,-315.15"/>
</a>
</g>
</g>
<!-- Node4 -->
<g id="Node000004" class="node">
<title>Node4</title>
<g id="a_Node000004"><a xlink:href="class_relationship_connection_line.html#a7e2e06e83adcf3a6fd12c53aa21d71fa" target="_top" xlink:title=" ">
<polygon fill="white" stroke="#666666" points="2240.5,-308.55 2103,-308.55 2103,-276.55 2240.5,-276.55 2240.5,-308.55"/>
<text xml:space="preserve" text-anchor="start" x="2111" y="-295.05" font-family="Helvetica,sans-Serif" font-size="10.00">RelationshipConnectionLine</text>
<text xml:space="preserve" text-anchor="middle" x="2171.75" y="-283.05" font-family="Helvetica,sans-Serif" font-size="10.00">::setRelationshipEnd</text>
</a>
</g>
</g>
<!-- Node2&#45;&gt;Node4 -->
<g id="edge3_Node000002_Node000004" class="edge">
<title>Node2&#45;&gt;Node4</title>
<g id="a_edge3_Node000002_Node000004"><a xlink:title=" ">
<path fill="none" stroke="#63b8ff" d="M2295.17,-292.55C2277.19,-292.55 2258.26,-292.55 2240.81,-292.55"/>
<polygon fill="#63b8ff" stroke="#63b8ff" points="2295.01,-296.05 2305.01,-292.55 2295.01,-289.05 2295.01,-296.05"/>
</a>
</g>
</g>
<!-- Node5&#45;&gt;Node4 -->
<g id="edge5_Node000005_Node000004" class="edge">
<title>Node5&#45;&gt;Node4</title>
<g id="a_edge5_Node000005_Node000004"><a xlink:title=" ">
<path fill="none" stroke="#63b8ff" d="M2297.38,-261.74C2278.22,-266.48 2257.87,-271.51 2239.29,-276.1"/>
<polygon fill="#63b8ff" stroke="#63b8ff" points="2298.16,-265.15 2307.03,-259.35 2296.48,-258.36 2298.16,-265.15"/>
</a>
</g>
</g>
<!-- Node6 -->
<g id="Node000006" class="node">
<title>Node6</title>
<g id="a_Node000006"><a xlink:href="class_relationship_connection_line.html#a1a1a07948058466e38bb1043c95a70c4" target="_top" xlink:title=" ">
<polygon fill="white" stroke="#666666" points="2246.5,-258.55 2097,-258.55 2097,-226.55 2246.5,-226.55 2246.5,-258.55"/>
<text xml:space="preserve" text-anchor="start" x="2105" y="-245.05" font-family="Helvetica,sans-Serif" font-size="10.00">RelationshipConnectionLine</text>
<text xml:space="preserve" text-anchor="middle" x="2171.75" y="-233.05" font-family="Helvetica,sans-Serif" font-size="10.00">::~RelationshipConnectionLine</text>
</a>
</g>
</g>
<!-- Node5&#45;&gt;Node6 -->
<g id="edge6_Node000005_Node000006" class="edge">
<title>Node5&#45;&gt;Node6</title>
<g id="a_edge6_Node000005_Node000006"><a xlink:title=" ">
<path fill="none" stroke="#63b8ff" d="M2282.75,-242.55C2270.73,-242.55 2258.54,-242.55 2246.87,-242.55"/>
<polygon fill="#63b8ff" stroke="#63b8ff" points="2282.68,-246.05 2292.68,-242.55 2282.68,-239.05 2282.68,-246.05"/>
</a>
</g>
</g>
<!-- Node8 -->
<g id="Node000008" class="node">
<title>Node8</title>
<g id="a_Node000008"><a xlink:href="class_properties_panel.html#ac2741a5b2cb859b07534b8f7c786359b" target="_top" xlink:title=" ">
<polygon fill="white" stroke="#666666" points="2258.5,-208.55 2085,-208.55 2085,-176.55 2258.5,-176.55 2258.5,-208.55"/>
<text xml:space="preserve" text-anchor="start" x="2093" y="-195.05" font-family="Helvetica,sans-Serif" font-size="10.00">PropertiesPanel::handleRelationship</text>
<text xml:space="preserve" text-anchor="middle" x="2171.75" y="-183.05" font-family="Helvetica,sans-Serif" font-size="10.00">EndParticipationChange</text>
</a>
</g>
</g>
<!-- Node7&#45;&gt;Node8 -->
<g id="edge8_Node000007_Node000008" class="edge">
<title>Node7&#45;&gt;Node8</title>
<g id="a_edge8_Node000007_Node000008"><a xlink:title=" ">
<path fill="none" stroke="#63b8ff" d="M2296.49,-192.55C2284.16,-192.55 2271.36,-192.55 2258.87,-192.55"/>
<polygon fill="#63b8ff" stroke="#63b8ff" points="2296.14,-196.05 2306.14,-192.55 2296.14,-189.05 2296.14,-196.05"/>
</a>
</g>
</g>
<!-- Node9 -->
<g id="Node000009" class="node">
<title>Node9</title>
<g id="a_Node000009"><a xlink:href="class_properties_panel.html#a2800a2c7575a5fad6d923d9b64d982f8" target="_top" xlink:title=" ">
<polygon fill="white" stroke="#666666" points="2049,-246.55 1919,-246.55 1919,-214.55 2049,-214.55 2049,-246.55"/>
<text xml:space="preserve" text-anchor="start" x="1927" y="-233.05" font-family="Helvetica,sans-Serif" font-size="10.00">PropertiesPanel::onCheck</text>
<text xml:space="preserve" text-anchor="middle" x="1984" y="-221.05" font-family="Helvetica,sans-Serif" font-size="10.00">BoxChanged</text>
</a>
</g>
</g>
<!-- Node8&#45;&gt;Node9 -->
<g id="edge9_Node000008_Node000009" class="edge">
<title>Node8&#45;&gt;Node9</title>
<g id="a_edge9_Node000008_Node000009"><a xlink:title=" ">
<path fill="none" stroke="#63b8ff" d="M2079.36,-211.25C2069.2,-213.32 2059.02,-215.41 2049.29,-217.4"/>
<polygon fill="#63b8ff" stroke="#63b8ff" points="2079.78,-214.73 2088.87,-209.3 2078.38,-207.87 2079.78,-214.73"/>
</a>
</g>
</g>
<!-- Node10 -->
<g id="Node000010" class="node">
<title>Node10</title>
<g id="a_Node000010"><a xlink:href="class_properties_panel.html#acfb41226221624e46767835caeea8abc" target="_top" xlink:title=" ">
<polygon fill="white" stroke="#666666" points="1883,-539.55 1736.5,-539.55 1736.5,-507.55 1883,-507.55 1883,-539.55"/>
<text xml:space="preserve" text-anchor="start" x="1744.5" y="-526.05" font-family="Helvetica,sans-Serif" font-size="10.00">PropertiesPanel::createCheck</text>
<text xml:space="preserve" text-anchor="middle" x="1809.75" y="-514.05" font-family="Helvetica,sans-Serif" font-size="10.00">BoxPropertyItem</text>
</a>
</g>
</g>
<!-- Node9&#45;&gt;Node10 -->
<g id="edge10_Node000009_Node000010" class="edge">
<title>Node9&#45;&gt;Node10</title>
<g id="a_edge10_Node000009_Node000010"><a xlink:title=" ">
<path fill="none" stroke="#63b8ff" d="M1967.81,-256.39C1933.15,-315.35 1849.02,-458.45 1820.44,-507.07"/>
<polygon fill="#63b8ff" stroke="#63b8ff" points="1970.68,-258.42 1972.73,-248.02 1964.64,-254.87 1970.68,-258.42"/>
</a>
</g>
</g>
<!-- Node11 -->
<g id="Node000011" class="node">
<title>Node11</title>
<g id="a_Node000011"><a xlink:href="class_properties_panel.html#acc5a2b4e63ea74eaa34853f1cec46b81" target="_top" xlink:title=" ">
<polygon fill="white" stroke="#666666" points="1700.5,-615.55 1572.75,-615.55 1572.75,-583.55 1700.5,-583.55 1700.5,-615.55"/>
<text xml:space="preserve" text-anchor="start" x="1580.75" y="-602.05" font-family="Helvetica,sans-Serif" font-size="10.00">PropertiesPanel::populate</text>
<text xml:space="preserve" text-anchor="middle" x="1636.62" y="-590.05" font-family="Helvetica,sans-Serif" font-size="10.00">AttributeProperties</text>
</a>
</g>
</g>
<!-- Node10&#45;&gt;Node11 -->
<g id="edge11_Node000010_Node000011" class="edge">
<title>Node10&#45;&gt;Node11</title>
<g id="a_edge11_Node000010_Node000011"><a xlink:title=" ">
<path fill="none" stroke="#63b8ff" d="M1761.12,-544.71C1733.8,-556.84 1700.01,-571.84 1674.68,-583.09"/>
<polygon fill="#63b8ff" stroke="#63b8ff" points="1762.52,-547.91 1770.24,-540.65 1759.68,-541.52 1762.52,-547.91"/>
</a>
</g>
</g>
<!-- Node18 -->
<g id="Node000018" class="node">
<title>Node18</title>
<g id="a_Node000018"><a xlink:href="class_properties_panel.html#aeb116e2e51099f618b5d284e492bc0e2" target="_top" xlink:title=" ">
<polygon fill="white" stroke="#666666" points="1373,-539.55 1245.25,-539.55 1245.25,-507.55 1373,-507.55 1373,-539.55"/>
<text xml:space="preserve" text-anchor="start" x="1253.25" y="-526.05" font-family="Helvetica,sans-Serif" font-size="10.00">PropertiesPanel::populate</text>
<text xml:space="preserve" text-anchor="middle" x="1309.12" y="-514.05" font-family="Helvetica,sans-Serif" font-size="10.00">RelationshipProperties</text>
</a>
</g>
</g>
<!-- Node10&#45;&gt;Node18 -->
<g id="edge54_Node000010_Node000018" class="edge">
<title>Node10&#45;&gt;Node18</title>
<g id="a_edge54_Node000010_Node000018"><a xlink:title=" ">
<path fill="none" stroke="#63b8ff" d="M1724.76,-523.55C1625.44,-523.55 1462.41,-523.55 1373.24,-523.55"/>
<polygon fill="#63b8ff" stroke="#63b8ff" points="1724.73,-527.05 1734.73,-523.55 1724.73,-520.05 1724.73,-527.05"/>
</a>
</g>
</g>
<!-- Node12 -->
<g id="Node000012" class="node">
<title>Node12</title>
<g id="a_Node000012"><a xlink:href="class_properties_panel.html#a050a4a9040c7aeefde9c1377d2e1909e" target="_top" xlink:title=" ">
<polygon fill="white" stroke="#666666" points="1536.75,-615.55 1409,-615.55 1409,-583.55 1536.75,-583.55 1536.75,-615.55"/>
<text xml:space="preserve" text-anchor="start" x="1417" y="-602.05" font-family="Helvetica,sans-Serif" font-size="10.00">PropertiesPanel::populate</text>
<text xml:space="preserve" text-anchor="middle" x="1472.88" y="-590.05" font-family="Helvetica,sans-Serif" font-size="10.00">AttributeList</text>
</a>
</g>
</g>
<!-- Node11&#45;&gt;Node12 -->
<g id="edge12_Node000011_Node000012" class="edge">
<title>Node11&#45;&gt;Node12</title>
<g id="a_edge12_Node000011_Node000012"><a xlink:title=" ">
<path fill="none" stroke="#63b8ff" d="M1561.33,-592.82C1553.28,-592.77 1545.14,-592.81 1537.24,-592.94"/>
<polygon fill="#63b8ff" stroke="#63b8ff" points="1561.07,-596.32 1571.11,-592.93 1561.15,-589.32 1561.07,-596.32"/>
</a>
</g>
</g>
<!-- Node14 -->
<g id="Node000014" class="node">
<title>Node14</title>
<g id="a_Node000014"><a xlink:href="class_properties_panel.html#a037586f897062f3915a123b9f2a82b91" target="_top" xlink:title=" ">
<polygon fill="white" stroke="#666666" points="1209.25,-410.55 1081.5,-410.55 1081.5,-378.55 1209.25,-378.55 1209.25,-410.55"/>
<text xml:space="preserve" text-anchor="start" x="1089.5" y="-397.05" font-family="Helvetica,sans-Serif" font-size="10.00">PropertiesPanel::populate</text>
<text xml:space="preserve" text-anchor="middle" x="1145.38" y="-385.05" font-family="Helvetica,sans-Serif" font-size="10.00">ForElement</text>
</a>
</g>
</g>
<!-- Node11&#45;&gt;Node14 -->
<g id="edge53_Node000011_Node000014" class="edge">
<title>Node11&#45;&gt;Node14</title>
<g id="a_edge53_Node000011_Node000014"><a xlink:title=" ">
<path fill="none" stroke="#63b8ff" d="M1585.95,-578.74C1488.42,-537.87 1273.69,-447.9 1185.43,-410.91"/>
<polygon fill="#63b8ff" stroke="#63b8ff" points="1584.44,-581.9 1595.02,-582.54 1587.15,-575.44 1584.44,-581.9"/>
</a>
</g>
</g>
<!-- Node12&#45;&gt;Node11 -->
<g id="edge13_Node000012_Node000011" class="edge">
<title>Node12&#45;&gt;Node11</title>
<g id="a_edge13_Node000012_Node000011"><a xlink:title=" ">
<path fill="none" stroke="#63b8ff" d="M1548.53,-606.28C1556.59,-606.33 1564.73,-606.28 1572.63,-606.15"/>
<polygon fill="#63b8ff" stroke="#63b8ff" points="1548.79,-602.78 1538.75,-606.17 1548.71,-609.78 1548.79,-602.78"/>
</a>
</g>
</g>
<!-- Node13 -->
<g id="Node000013" class="node">
<title>Node13</title>
<g id="a_Node000013"><a xlink:href="class_properties_panel.html#a6a4344308af5b2c993bc25981529239c" target="_top" xlink:title=" ">
<polygon fill="white" stroke="#666666" points="482.25,-583.55 354.5,-583.55 354.5,-551.55 482.25,-551.55 482.25,-583.55"/>
<text xml:space="preserve" text-anchor="start" x="362.5" y="-570.05" font-family="Helvetica,sans-Serif" font-size="10.00">PropertiesPanel::populate</text>
<text xml:space="preserve" text-anchor="middle" x="418.38" y="-558.05" font-family="Helvetica,sans-Serif" font-size="10.00">EntityProperties</text>
</a>
</g>
</g>
<!-- Node12&#45;&gt;Node13 -->
<g id="edge14_Node000012_Node000013" class="edge">
<title>Node12&#45;&gt;Node13</title>
<g id="a_edge14_Node000012_Node000013"><a xlink:title=" ">
<path fill="none" stroke="#63b8ff" d="M1397.52,-611.22C1389.27,-612.18 1380.97,-612.99 1373,-613.55 1089.22,-633.54 1017.09,-618.43 733,-603.55 639.89,-598.67 615.77,-605.93 523.5,-592.55 509.24,-590.48 494.07,-587.37 479.85,-584.05"/>
<polygon fill="#63b8ff" stroke="#63b8ff" points="1397.72,-614.72 1407.22,-610.03 1396.86,-607.78 1397.72,-614.72"/>
</a>
</g>
</g>
<!-- Node12&#45;&gt;Node18 -->
<g id="edge52_Node000012_Node000018" class="edge">
<title>Node12&#45;&gt;Node18</title>
<g id="a_edge52_Node000012_Node000018"><a xlink:title=" ">
<path fill="none" stroke="#63b8ff" d="M1426.51,-578.23C1400.74,-566.13 1368.98,-551.21 1345.15,-540.01"/>
<polygon fill="#63b8ff" stroke="#63b8ff" points="1424.87,-581.33 1435.41,-582.42 1427.85,-574.99 1424.87,-581.33"/>
</a>
</g>
</g>
<!-- Node13&#45;&gt;Node14 -->
<g id="edge15_Node000013_Node000014" class="edge">
<title>Node13&#45;&gt;Node14</title>
<g id="a_edge15_Node000013_Node000014"><a xlink:title=" ">
<path fill="none" stroke="#63b8ff" d="M444.94,-543.67C495.32,-498.45 612.98,-401.71 733,-366.55 854.77,-330.88 1005.13,-358.03 1086.11,-378.1"/>
<polygon fill="#63b8ff" stroke="#63b8ff" points="442.78,-540.9 437.73,-550.22 447.49,-546.09 442.78,-540.9"/>
</a>
</g>
</g>
<!-- Node15 -->
<g id="Node000015" class="node">
<title>Node15</title>
<g id="a_Node000015"><a xlink:href="class_properties_panel.html#a139ae0158b486c6004e15e0ddf36f319" target="_top" xlink:title=" ">
<polygon fill="white" stroke="#666666" points="1045.5,-278.55 924.5,-278.55 924.5,-258.55 1045.5,-258.55 1045.5,-278.55"/>
<text xml:space="preserve" text-anchor="middle" x="985" y="-265.05" font-family="Helvetica,sans-Serif" font-size="10.00">PropertiesPanel::refresh</text>
</a>
</g>
</g>
<!-- Node14&#45;&gt;Node15 -->
<g id="edge16_Node000014_Node000015" class="edge">
<title>Node14&#45;&gt;Node15</title>
<g id="a_edge16_Node000014_Node000015"><a xlink:title=" ">
<path fill="none" stroke="#63b8ff" d="M1114.91,-371.11C1080.18,-343.48 1024.02,-298.8 998.88,-278.8"/>
<polygon fill="#63b8ff" stroke="#63b8ff" points="1112.48,-373.65 1122.49,-377.14 1116.84,-368.17 1112.48,-373.65"/>
</a>
</g>
</g>
<!-- Node15&#45;&gt;Node9 -->
<g id="edge24_Node000015_Node000009" class="edge">
<title>Node15&#45;&gt;Node9</title>
<g id="a_edge24_Node000015_Node000009"><a xlink:title=" ">
<path fill="none" stroke="#63b8ff" d="M1057.34,-268.55C1122.62,-268.55 1221.87,-268.55 1308.12,-268.55 1637.62,-268.55 1637.62,-268.55 1637.62,-268.55 1736.1,-268.55 1849.43,-253.1 1918.62,-241.9"/>
<polygon fill="#63b8ff" stroke="#63b8ff" points="1057.48,-265.05 1047.48,-268.55 1057.48,-272.05 1057.48,-265.05"/>
</a>
</g>
</g>
<!-- Node16 -->
<g id="Node000016" class="node">
<title>Node16</title>
<g id="a_Node000016"><a xlink:href="class_properties_panel.html#a55ae5c02e7d75c7bdc26281a148e8c5a" target="_top" xlink:title=" ">
<polygon fill="white" stroke="#666666" points="888.5,-457.55 733,-457.55 733,-425.55 888.5,-425.55 888.5,-457.55"/>
<text xml:space="preserve" text-anchor="start" x="741" y="-444.05" font-family="Helvetica,sans-Serif" font-size="10.00">PropertiesPanel::onAddAttribute</text>
<text xml:space="preserve" text-anchor="middle" x="810.75" y="-432.05" font-family="Helvetica,sans-Serif" font-size="10.00">OnTreeClicked</text>
</a>
</g>
</g>
<!-- Node15&#45;&gt;Node16 -->
<g id="edge17_Node000015_Node000016" class="edge">
<title>Node15&#45;&gt;Node16</title>
<g id="a_edge17_Node000015_Node000016"><a xlink:title=" ">
<path fill="none" stroke="#63b8ff" d="M976.05,-289.21C962.74,-321.13 932.95,-382.31 888.5,-416.55 884.28,-419.8 879.62,-422.63 874.75,-425.11"/>
<polygon fill="#63b8ff" stroke="#63b8ff" points="979.16,-290.87 979.64,-280.29 972.66,-288.26 979.16,-290.87"/>
</a>
</g>
</g>
<!-- Node19 -->
<g id="Node000019" class="node">
<title>Node19</title>
<g id="a_Node000019"><a xlink:href="class_properties_panel.html#aec82450a3daeb2614c2321e37897f1dd" target="_top" xlink:title=" ">
<polygon fill="white" stroke="#666666" points="484.88,-218.55 351.88,-218.55 351.88,-186.55 484.88,-186.55 484.88,-218.55"/>
<text xml:space="preserve" text-anchor="start" x="359.88" y="-205.05" font-family="Helvetica,sans-Serif" font-size="10.00">PropertiesPanel::onCombo</text>
<text xml:space="preserve" text-anchor="middle" x="418.38" y="-193.05" font-family="Helvetica,sans-Serif" font-size="10.00">BoxChanged</text>
</a>
</g>
</g>
<!-- Node15&#45;&gt;Node19 -->
<g id="edge25_Node000015_Node000019" class="edge">
<title>Node15&#45;&gt;Node19</title>
<g id="a_edge25_Node000015_Node000019"><a xlink:title=" ">
<path fill="none" stroke="#63b8ff" d="M912.79,-260.23C802.51,-247.33 592.02,-222.73 485.15,-210.24"/>
<polygon fill="#63b8ff" stroke="#63b8ff" points="912.27,-263.69 922.61,-261.37 913.08,-256.74 912.27,-263.69"/>
</a>
</g>
</g>
<!-- Node23 -->
<g id="Node000023" class="node">
<title>Node23</title>
<g id="a_Node000023"><a xlink:href="class_properties_panel.html#aec8130201106284c02f21903b516554d" target="_top" xlink:title=" ">
<polygon fill="white" stroke="#666666" points="678.62,-284.55 541.88,-284.55 541.88,-252.55 678.62,-252.55 678.62,-284.55"/>
<text xml:space="preserve" text-anchor="start" x="549.88" y="-271.05" font-family="Helvetica,sans-Serif" font-size="10.00">PropertiesPanel::onLineEdit</text>
<text xml:space="preserve" text-anchor="middle" x="610.25" y="-259.05" font-family="Helvetica,sans-Serif" font-size="10.00">Changed</text>
</a>
</g>
</g>
<!-- Node15&#45;&gt;Node23 -->
<g id="edge32_Node000015_Node000023" class="edge">
<title>Node15&#45;&gt;Node23</title>
<g id="a_edge32_Node000015_Node000023"><a xlink:title=" ">
<path fill="none" stroke="#63b8ff" d="M912.76,-268.55C845.4,-268.55 745.03,-268.55 678.88,-268.55"/>
<polygon fill="#63b8ff" stroke="#63b8ff" points="912.6,-272.05 922.6,-268.55 912.6,-265.05 912.6,-272.05"/>
</a>
</g>
</g>
<!-- Node25 -->
<g id="Node000025" class="node">
<title>Node25</title>
<g id="a_Node000025"><a xlink:href="class_properties_panel.html#a3cdc065abcd2f9e59558903073c0f23f" target="_top" xlink:title=" ">
<polygon fill="white" stroke="#666666" points="487.5,-40.55 349.25,-40.55 349.25,-8.55 487.5,-8.55 487.5,-40.55"/>
<text xml:space="preserve" text-anchor="start" x="357.25" y="-27.05" font-family="Helvetica,sans-Serif" font-size="10.00">PropertiesPanel::onProperty</text>
<text xml:space="preserve" text-anchor="middle" x="418.38" y="-15.05" font-family="Helvetica,sans-Serif" font-size="10.00">ValueChanged</text>
</a>
</g>
</g>
<!-- Node15&#45;&gt;Node25 -->
<g id="edge35_Node000015_Node000025" class="edge">
<title>Node15&#45;&gt;Node25</title>
<g id="a_edge35_Node000015_Node000025"><a xlink:title=" ">
<path fill="none" stroke="#63b8ff" d="M974.26,-248.12C958.26,-221.11 924.55,-174.21 888.5,-141.55 813,-73.14 794.6,-44.78 697,-15.55 624.05,6.3 535.39,1.18 478.21,-8.06"/>
<polygon fill="#63b8ff" stroke="#63b8ff" points="971.15,-249.72 979.09,-256.74 977.26,-246.3 971.15,-249.72"/>
</a>
</g>
</g>
<!-- Node27 -->
<g id="Node000027" class="node">
<title>Node27</title>
<g id="a_Node000027"><a xlink:href="class_properties_panel.html#a8a2ec0bcba44f3bbd0245d3a53ff49f7" target="_top" xlink:title=" ">
<polygon fill="white" stroke="#666666" points="879.88,-407.55 741.62,-407.55 741.62,-375.55 879.88,-375.55 879.88,-407.55"/>
<text xml:space="preserve" text-anchor="start" x="749.62" y="-394.05" font-family="Helvetica,sans-Serif" font-size="10.00">PropertiesPanel::onRemove</text>
<text xml:space="preserve" text-anchor="middle" x="810.75" y="-382.05" font-family="Helvetica,sans-Serif" font-size="10.00">AttributeOnTreeClicked</text>
</a>
</g>
</g>
<!-- Node15&#45;&gt;Node27 -->
<g id="edge38_Node000015_Node000027" class="edge">
<title>Node15&#45;&gt;Node27</title>
<g id="a_edge38_Node000015_Node000027"><a xlink:title=" ">
<path fill="none" stroke="#63b8ff" d="M960.34,-285.44C927.23,-309.09 867.47,-351.76 834.73,-375.14"/>
<polygon fill="#63b8ff" stroke="#63b8ff" points="961.98,-288.58 968.08,-279.92 957.91,-282.88 961.98,-288.58"/>
</a>
</g>
</g>
<!-- Node28 -->
<g id="Node000028" class="node">
<title>Node28</title>
<g id="a_Node000028"><a xlink:href="class_properties_panel.html#a79618c5c820a40931c085d54be70bd34" target="_top" xlink:title=" ">
<polygon fill="white" stroke="#666666" points="873.5,-191.55 748,-191.55 748,-159.55 873.5,-159.55 873.5,-191.55"/>
<text xml:space="preserve" text-anchor="start" x="756" y="-178.05" font-family="Helvetica,sans-Serif" font-size="10.00">PropertiesPanel::updates</text>
<text xml:space="preserve" text-anchor="middle" x="810.75" y="-166.05" font-family="Helvetica,sans-Serif" font-size="10.00">AfterChangingProperty</text>
</a>
</g>
</g>
<!-- Node15&#45;&gt;Node28 -->
<g id="edge40_Node000015_Node000028" class="edge">
<title>Node15&#45;&gt;Node28</title>
<g id="a_edge40_Node000015_Node000028"><a xlink:title=" ">
<path fill="none" stroke="#63b8ff" d="M941.29,-253.6C935.47,-250.92 929.72,-247.89 924.5,-244.55 905.97,-232.67 906.76,-222.84 888.5,-210.55 877.93,-203.44 865.68,-197.12 854.11,-191.87"/>
<polygon fill="#63b8ff" stroke="#63b8ff" points="939.77,-256.76 950.34,-257.47 942.52,-250.32 939.77,-256.76"/>
</a>
</g>
</g>
<!-- Node17 -->
<g id="Node000017" class="node">
<title>Node17</title>
<g id="a_Node000017"><a xlink:href="class_properties_panel.html#a90cca2a241daa84841ee3e90d7768c8f" target="_top" xlink:title=" ">
<polygon fill="white" stroke="#666666" points="683.5,-583.55 537,-583.55 537,-551.55 683.5,-551.55 683.5,-583.55"/>
<text xml:space="preserve" text-anchor="start" x="545" y="-570.05" font-family="Helvetica,sans-Serif" font-size="10.00">PropertiesPanel::createButton</text>
<text xml:space="preserve" text-anchor="middle" x="610.25" y="-558.05" font-family="Helvetica,sans-Serif" font-size="10.00">PropertyItem</text>
</a>
</g>
</g>
<!-- Node16&#45;&gt;Node17 -->
<g id="edge18_Node000016_Node000017" class="edge">
<title>Node16&#45;&gt;Node17</title>
<g id="a_edge18_Node000016_Node000017"><a xlink:title=" ">
<path fill="none" stroke="#63b8ff" d="M774.32,-464.04C734.94,-489.04 672.28,-528.81 637.21,-551.07"/>
<polygon fill="#63b8ff" stroke="#63b8ff" points="775.95,-467.15 782.52,-458.83 772.2,-461.24 775.95,-467.15"/>
</a>
</g>
</g>
<!-- Node17&#45;&gt;Node11 -->
<g id="edge20_Node000017_Node000011" class="edge">
<title>Node17&#45;&gt;Node11</title>
<g id="a_edge20_Node000017_Node000011"><a xlink:title=" ">
<path fill="none" stroke="#63b8ff" d="M669.89,-587.44C767.23,-618.64 968.88,-675.55 1144.38,-675.55 1310.12,-675.55 1310.12,-675.55 1310.12,-675.55 1414,-675.55 1531.75,-638.39 1593.19,-616.04"/>
<polygon fill="#63b8ff" stroke="#63b8ff" points="671.14,-584.17 660.55,-584.42 668.98,-590.83 671.14,-584.17"/>
</a>
</g>
</g>
<!-- Node17&#45;&gt;Node12 -->
<g id="edge19_Node000017_Node000012" class="edge">
<title>Node17&#45;&gt;Node12</title>
<g id="a_edge19_Node000017_Node000012"><a xlink:title=" ">
<path fill="none" stroke="#63b8ff" d="M695.25,-578.9C770.68,-588.1 884.53,-599.55 984,-599.55 1146.38,-599.55 1146.38,-599.55 1146.38,-599.55 1237.5,-599.55 1342.97,-599.55 1408.56,-599.55"/>
<polygon fill="#63b8ff" stroke="#63b8ff" points="695.8,-575.44 685.45,-577.69 694.94,-582.39 695.8,-575.44"/>
</a>
</g>
</g>
<!-- Node17&#45;&gt;Node13 -->
<g id="edge21_Node000017_Node000013" class="edge">
<title>Node17&#45;&gt;Node13</title>
<g id="a_edge21_Node000017_Node000013"><a xlink:title=" ">
<path fill="none" stroke="#63b8ff" d="M525.27,-567.55C510.95,-567.55 496.29,-567.55 482.63,-567.55"/>
<polygon fill="#63b8ff" stroke="#63b8ff" points="525.14,-571.05 535.14,-567.55 525.14,-564.05 525.14,-571.05"/>
</a>
</g>
</g>
<!-- Node17&#45;&gt;Node18 -->
<g id="edge22_Node000017_Node000018" class="edge">
<title>Node17&#45;&gt;Node18</title>
<g id="a_edge22_Node000017_Node000018"><a xlink:title=" ">
<path fill="none" stroke="#63b8ff" d="M694.89,-565.74C810.68,-562.69 1026.24,-555.06 1209.25,-537.55 1220.81,-536.44 1233.1,-534.96 1244.93,-533.37"/>
<polygon fill="#63b8ff" stroke="#63b8ff" points="695.08,-562.24 685.18,-565.99 695.26,-569.23 695.08,-562.24"/>
</a>
</g>
</g>
<!-- Node18&#45;&gt;Node14 -->
<g id="edge23_Node000018_Node000014" class="edge">
<title>Node18&#45;&gt;Node14</title>
<g id="a_edge23_Node000018_Node000014"><a xlink:title=" ">
<path fill="none" stroke="#63b8ff" d="M1277.73,-500.04C1267.39,-492 1255.79,-482.92 1245.25,-474.55 1217.76,-452.72 1186.27,-427.14 1166.36,-410.9"/>
<polygon fill="#63b8ff" stroke="#63b8ff" points="1275.56,-502.79 1285.61,-506.16 1279.86,-497.26 1275.56,-502.79"/>
</a>
</g>
</g>
<!-- Node20 -->
<g id="Node000020" class="node">
<title>Node20</title>
<g id="a_Node000020"><a xlink:href="class_properties_panel.html#a8fd53ec3c9f711c3354483e8bb4d0b47" target="_top" xlink:title=" ">
<polygon fill="white" stroke="#666666" points="313.25,-539.55 163.75,-539.55 163.75,-507.55 313.25,-507.55 313.25,-539.55"/>
<text xml:space="preserve" text-anchor="start" x="171.75" y="-526.05" font-family="Helvetica,sans-Serif" font-size="10.00">PropertiesPanel::createCombo</text>
<text xml:space="preserve" text-anchor="middle" x="238.5" y="-514.05" font-family="Helvetica,sans-Serif" font-size="10.00">BoxPropertyItem</text>
</a>
</g>
</g>
<!-- Node19&#45;&gt;Node20 -->
<g id="edge26_Node000019_Node000020" class="edge">
<title>Node19&#45;&gt;Node20</title>
<g id="a_edge26_Node000019_Node000020"><a xlink:title=" ">
<path fill="none" stroke="#63b8ff" d="M370.75,-224.91C362.85,-230.21 355.27,-236.43 349.25,-243.55 278.84,-326.92 250.25,-460.79 242.12,-507.13"/>
<polygon fill="#63b8ff" stroke="#63b8ff" points="372.51,-227.94 379.18,-219.71 368.84,-221.98 372.51,-227.94"/>
</a>
</g>
</g>
<!-- Node21 -->
<g id="Node000021" class="node">
<title>Node21</title>
<g id="a_Node000021"><a xlink:href="class_properties_panel.html#a32c2dab00c58ffdcb6a1e3cd829d03c8" target="_top" xlink:title=" ">
<polygon fill="white" stroke="#666666" points="306.88,-251.55 170.12,-251.55 170.12,-219.55 306.88,-219.55 306.88,-251.55"/>
<text xml:space="preserve" text-anchor="start" x="178.12" y="-238.05" font-family="Helvetica,sans-Serif" font-size="10.00">PropertiesPanel::createIcon</text>
<text xml:space="preserve" text-anchor="middle" x="238.5" y="-226.05" font-family="Helvetica,sans-Serif" font-size="10.00">ComboBoxPropertyItem</text>
</a>
</g>
</g>
<!-- Node19&#45;&gt;Node21 -->
<g id="edge29_Node000019_Node000021" class="edge">
<title>Node19&#45;&gt;Node21</title>
<g id="a_edge29_Node000019_Node000021"><a xlink:title=" ">
<path fill="none" stroke="#63b8ff" d="M340.08,-216.89C329.12,-218.92 317.92,-221 307.16,-223"/>
<polygon fill="#63b8ff" stroke="#63b8ff" points="340.71,-220.33 349.91,-215.07 339.43,-213.45 340.71,-220.33"/>
</a>
</g>
</g>
<!-- Node20&#45;&gt;Node11 -->
<g id="edge27_Node000020_Node000011" class="edge">
<title>Node20&#45;&gt;Node11</title>
<g id="a_edge27_Node000020_Node000011"><a xlink:title=" ">
<path fill="none" stroke="#63b8ff" d="M264.68,-547.35C321.38,-598.35 465.39,-713.55 609.25,-713.55 1310.12,-713.55 1310.12,-713.55 1310.12,-713.55 1413.17,-713.55 1441.72,-704.42 1536.75,-664.55 1566.3,-652.15 1596.55,-630.73 1615.68,-615.88"/>
<polygon fill="#63b8ff" stroke="#63b8ff" points="267.21,-544.92 257.46,-540.77 262.49,-550.09 267.21,-544.92"/>
</a>
</g>
</g>
<!-- Node20&#45;&gt;Node18 -->
<g id="edge28_Node000020_Node000018" class="edge">
<title>Node20&#45;&gt;Node18</title>
<g id="a_edge28_Node000020_Node000018"><a xlink:title=" ">
<path fill="none" stroke="#63b8ff" d="M324.75,-523.55C399.69,-523.55 511.71,-523.55 609.25,-523.55 986,-523.55 986,-523.55 986,-523.55 1075.9,-523.55 1179.91,-523.55 1244.86,-523.55"/>
<polygon fill="#63b8ff" stroke="#63b8ff" points="325.02,-520.05 315.02,-523.55 325.02,-527.05 325.02,-520.05"/>
</a>
</g>
</g>
<!-- Node22 -->
<g id="Node000022" class="node">
<title>Node22</title>
<g id="a_Node000022"><a xlink:href="class_properties_panel.html#adbc7f8deb3a687706dc44ebbd7e39d9d" target="_top" xlink:title=" ">
<polygon fill="white" stroke="#666666" points="127.75,-289.55 0,-289.55 0,-257.55 127.75,-257.55 127.75,-289.55"/>
<text xml:space="preserve" text-anchor="start" x="8" y="-276.05" font-family="Helvetica,sans-Serif" font-size="10.00">PropertiesPanel::populate</text>
<text xml:space="preserve" text-anchor="middle" x="63.88" y="-264.05" font-family="Helvetica,sans-Serif" font-size="10.00">ForConnection</text>
</a>
</g>
</g>
<!-- Node21&#45;&gt;Node22 -->
<g id="edge30_Node000021_Node000022" class="edge">
<title>Node21&#45;&gt;Node22</title>
<g id="a_edge30_Node000021_Node000022"><a xlink:title=" ">
<path fill="none" stroke="#63b8ff" d="M158.74,-252.89C148.51,-255.14 138.13,-257.42 128.18,-259.61"/>
<polygon fill="#63b8ff" stroke="#63b8ff" points="159.28,-256.35 168.29,-250.78 157.77,-249.52 159.28,-256.35"/>
</a>
</g>
</g>
<!-- Node22&#45;&gt;Node15 -->
<g id="edge31_Node000022_Node000015" class="edge">
<title>Node22&#45;&gt;Node15</title>
<g id="a_edge31_Node000022_Node000015"><a xlink:title=" ">
<path fill="none" stroke="#63b8ff" d="M139.19,-280.21C196.53,-285 277.84,-291.04 349.25,-293.55 588.82,-301.96 650.02,-306.83 888.5,-282.55 900.09,-281.37 912.42,-279.8 924.24,-278.14"/>
<polygon fill="#63b8ff" stroke="#63b8ff" points="139.83,-276.75 129.57,-279.4 139.24,-283.73 139.83,-276.75"/>
</a>
</g>
</g>
<!-- Node24 -->
<g id="Node000024" class="node">
<title>Node24</title>
<g id="a_Node000024"><a xlink:href="class_properties_panel.html#a7bc224323f9c626842fdb6a89205c9bc" target="_top" xlink:title=" ">
<polygon fill="white" stroke="#666666" points="486.38,-284.55 350.38,-284.55 350.38,-252.55 486.38,-252.55 486.38,-284.55"/>
<text xml:space="preserve" text-anchor="start" x="358.38" y="-271.05" font-family="Helvetica,sans-Serif" font-size="10.00">PropertiesPanel::createLine</text>
<text xml:space="preserve" text-anchor="middle" x="418.38" y="-259.05" font-family="Helvetica,sans-Serif" font-size="10.00">EditPropertyItem</text>
</a>
</g>
</g>
<!-- Node23&#45;&gt;Node24 -->
<g id="edge33_Node000023_Node000024" class="edge">
<title>Node23&#45;&gt;Node24</title>
<g id="a_edge33_Node000023_Node000024"><a xlink:title=" ">
<path fill="none" stroke="#63b8ff" d="M530.09,-268.55C515.69,-268.55 500.79,-268.55 486.77,-268.55"/>
<polygon fill="#63b8ff" stroke="#63b8ff" points="529.99,-272.05 539.99,-268.55 529.99,-265.05 529.99,-272.05"/>
</a>
</g>
</g>
<!-- Node24&#45;&gt;Node18 -->
<g id="edge34_Node000024_Node000018" class="edge">
<title>Node24&#45;&gt;Node18</title>
<g id="a_edge34_Node000024_Node000018"><a xlink:title=" ">
<path fill="none" stroke="#63b8ff" d="M442.74,-292.94C499.71,-349.64 652.65,-485.55 809.75,-485.55 986,-485.55 986,-485.55 986,-485.55 1076.38,-485.55 1180.05,-500.49 1244.82,-511.63"/>
<polygon fill="#63b8ff" stroke="#63b8ff" points="445.33,-290.58 435.8,-285.94 440.35,-295.5 445.33,-290.58"/>
</a>
</g>
</g>
<!-- Node25&#45;&gt;Node15 -->
<g id="edge37_Node000025_Node000015" class="edge">
<title>Node25&#45;&gt;Node15</title>
<g id="a_edge37_Node000025_Node000015"><a xlink:title=" ">
<path fill="none" stroke="#63b8ff" d="M499.35,-20.12C555.79,-16 632.53,-14.24 697,-33.55 794.6,-62.78 813,-91.14 888.5,-159.55 923.85,-191.58 956.95,-237.3 973.31,-258.17"/>
<polygon fill="#63b8ff" stroke="#63b8ff" points="499.2,-16.62 489.5,-20.88 499.74,-23.6 499.2,-16.62"/>
</a>
</g>
</g>
<!-- Node26 -->
<g id="Node000026" class="node">
<title>Node26</title>
<g id="a_Node000026"><a xlink:href="class_properties_panel.html#a9866823e02faefceaae94fc0b0537707" target="_top" xlink:title=" ">
<polygon fill="white" stroke="#666666" points="306.12,-40.55 170.88,-40.55 170.88,-8.55 306.12,-8.55 306.12,-40.55"/>
<text xml:space="preserve" text-anchor="start" x="178.88" y="-27.05" font-family="Helvetica,sans-Serif" font-size="10.00">PropertiesPanel::Properties</text>
<text xml:space="preserve" text-anchor="middle" x="238.5" y="-15.05" font-family="Helvetica,sans-Serif" font-size="10.00">Panel</text>
</a>
</g>
</g>
<!-- Node25&#45;&gt;Node26 -->
<g id="edge36_Node000025_Node000026" class="edge">
<title>Node25&#45;&gt;Node26</title>
<g id="a_edge36_Node000025_Node000026"><a xlink:title=" ">
<path fill="none" stroke="#63b8ff" d="M337.66,-24.55C327.26,-24.55 316.68,-24.55 306.52,-24.55"/>
<polygon fill="#63b8ff" stroke="#63b8ff" points="337.34,-28.05 347.34,-24.55 337.34,-21.05 337.34,-28.05"/>
</a>
</g>
</g>
<!-- Node27&#45;&gt;Node17 -->
<g id="edge39_Node000027_Node000017" class="edge">
<title>Node27&#45;&gt;Node17</title>
<g id="a_edge39_Node000027_Node000017"><a xlink:title=" ">
<path fill="none" stroke="#63b8ff" d="M738.5,-413.05C736.61,-414.16 734.77,-415.33 733,-416.55 679.49,-453.44 637.46,-520.53 620.02,-551.32"/>
<polygon fill="#63b8ff" stroke="#63b8ff" points="739.7,-416.37 746.94,-408.63 736.46,-410.17 739.7,-416.37"/>
</a>
</g>
</g>
<!-- Node28&#45;&gt;Node8 -->
<g id="edge47_Node000028_Node000008" class="edge">
<title>Node28&#45;&gt;Node8</title>
<g id="a_edge47_Node000028_Node000008"><a xlink:title=" ">
<path fill="none" stroke="#63b8ff" d="M885.03,-170.51C981.84,-164.3 1157.69,-154.55 1308.12,-154.55 1810.75,-154.55 1810.75,-154.55 1810.75,-154.55 1904.86,-154.55 2012.06,-167.55 2084.82,-178.35"/>
<polygon fill="#63b8ff" stroke="#63b8ff" points="884.89,-167.01 875.13,-171.15 885.34,-174 884.89,-167.01"/>
</a>
</g>
</g>
<!-- Node28&#45;&gt;Node9 -->
<g id="edge48_Node000028_Node000009" class="edge">
<title>Node28&#45;&gt;Node9</title>
<g id="a_edge48_Node000028_Node000009"><a xlink:title=" ">
<path fill="none" stroke="#63b8ff" d="M884.32,-194.59C951.33,-210.48 1053.86,-230.55 1144.38,-230.55 1637.62,-230.55 1637.62,-230.55 1637.62,-230.55 1735.66,-230.55 1849.35,-230.55 1918.71,-230.55"/>
<polygon fill="#63b8ff" stroke="#63b8ff" points="885.48,-191.27 874.94,-192.33 883.85,-198.07 885.48,-191.27"/>
</a>
</g>
</g>
<!-- Node28&#45;&gt;Node19 -->
<g id="edge49_Node000028_Node000019" class="edge">
<title>Node28&#45;&gt;Node19</title>
<g id="a_edge49_Node000028_Node000019"><a xlink:title=" ">
<path fill="none" stroke="#63b8ff" d="M736.63,-180.61C664.36,-185.61 554.79,-193.18 485.18,-198"/>
<polygon fill="#63b8ff" stroke="#63b8ff" points="736.65,-184.11 746.38,-179.93 736.17,-177.13 736.65,-184.11"/>
</a>
</g>
</g>
<!-- Node28&#45;&gt;Node23 -->
<g id="edge50_Node000028_Node000023" class="edge">
<title>Node28&#45;&gt;Node23</title>
<g id="a_edge50_Node000028_Node000023"><a xlink:title=" ">
<path fill="none" stroke="#63b8ff" d="M764.52,-196.74C728.62,-213.56 679.18,-236.72 646.26,-252.15"/>
<polygon fill="#63b8ff" stroke="#63b8ff" points="765.78,-200.02 773.35,-192.6 762.81,-193.68 765.78,-200.02"/>
</a>
</g>
</g>
<!-- Node28&#45;&gt;Node25 -->
<g id="edge51_Node000028_Node000025" class="edge">
<title>Node28&#45;&gt;Node25</title>
<g id="a_edge51_Node000028_Node000025"><a xlink:title=" ">
<path fill="none" stroke="#63b8ff" d="M791,-150.13C770.8,-124.79 736.22,-86.92 697,-67.55 630.97,-34.93 546.24,-25.83 487.85,-23.86"/>
<polygon fill="#63b8ff" stroke="#63b8ff" points="788.19,-152.22 797.09,-157.98 793.72,-147.93 788.19,-152.22"/>
</a>
</g>
</g>
<!-- Node29 -->
<g id="Node000029" class="node">
<title>Node29</title>
<g id="a_Node000029"><a xlink:href="class_properties_panel.html#a74d22cd1ca119cda9cc4ca00b853e88d" target="_top" xlink:title=" ">
<polygon fill="white" stroke="#666666" points="688.38,-108.55 532.12,-108.55 532.12,-76.55 688.38,-76.55 688.38,-108.55"/>
<text xml:space="preserve" text-anchor="start" x="540.12" y="-95.05" font-family="Helvetica,sans-Serif" font-size="10.00">PropertiesPanel::handleAttribute</text>
<text xml:space="preserve" text-anchor="middle" x="610.25" y="-83.05" font-family="Helvetica,sans-Serif" font-size="10.00">PropertyChange</text>
</a>
</g>
</g>
<!-- Node28&#45;&gt;Node29 -->
<g id="edge41_Node000028_Node000029" class="edge">
<title>Node28&#45;&gt;Node29</title>
<g id="a_edge41_Node000028_Node000029"><a xlink:title=" ">
<path fill="none" stroke="#63b8ff" d="M760.64,-154.4C751.35,-150.05 741.79,-145.33 733,-140.55 716.32,-131.48 714.29,-125.4 697,-117.55 690.08,-114.41 682.67,-111.55 675.21,-108.99"/>
<polygon fill="#63b8ff" stroke="#63b8ff" points="759.05,-157.52 769.6,-158.51 761.97,-151.16 759.05,-157.52"/>
</a>
</g>
</g>
<!-- Node30 -->
<g id="Node000030" class="node">
<title>Node30</title>
<g id="a_Node000030"><a xlink:href="class_properties_panel.html#aa82a2245c62f66554f277c64e643252c" target="_top" xlink:title=" ">
<polygon fill="white" stroke="#666666" points="697,-158.55 523.5,-158.55 523.5,-126.55 697,-126.55 697,-158.55"/>
<text xml:space="preserve" text-anchor="start" x="531.5" y="-145.05" font-family="Helvetica,sans-Serif" font-size="10.00">PropertiesPanel::handleRelationship</text>
<text xml:space="preserve" text-anchor="middle" x="610.25" y="-133.05" font-family="Helvetica,sans-Serif" font-size="10.00">EndCardinalityChange</text>
</a>
</g>
</g>
<!-- Node28&#45;&gt;Node30 -->
<g id="edge45_Node000028_Node000030" class="edge">
<title>Node28&#45;&gt;Node30</title>
<g id="a_edge45_Node000028_Node000030"><a xlink:title=" ">
<path fill="none" stroke="#63b8ff" d="M736.65,-163.4C723.79,-161.26 710.31,-159.02 697.14,-156.83"/>
<polygon fill="#63b8ff" stroke="#63b8ff" points="735.83,-166.81 746.27,-165 736.98,-159.9 735.83,-166.81"/>
</a>
</g>
</g>
<!-- Node29&#45;&gt;Node9 -->
<g id="edge42_Node000029_Node000009" class="edge">
<title>Node29&#45;&gt;Node9</title>
<g id="a_edge42_Node000029_Node000009"><a xlink:title=" ">
<path fill="none" stroke="#63b8ff" d="M699.93,-108.49C859.95,-136.72 1191.23,-192.55 1308.12,-192.55 1637.62,-192.55 1637.62,-192.55 1637.62,-192.55 1736.1,-192.55 1849.43,-208 1918.62,-219.2"/>
<polygon fill="#63b8ff" stroke="#63b8ff" points="700.65,-105.06 690.2,-106.77 699.43,-111.96 700.65,-105.06"/>
</a>
</g>
</g>
<!-- Node29&#45;&gt;Node19 -->
<g id="edge43_Node000029_Node000019" class="edge">
<title>Node29&#45;&gt;Node19</title>
<g id="a_edge43_Node000029_Node000019"><a xlink:title=" ">
<path fill="none" stroke="#63b8ff" d="M532.46,-113.22C529.4,-114.59 526.4,-116.03 523.5,-117.55 488.6,-135.91 454.4,-167.07 435.18,-186.13"/>
<polygon fill="#63b8ff" stroke="#63b8ff" points="533.76,-116.47 541.7,-109.46 531.12,-109.99 533.76,-116.47"/>
</a>
</g>
</g>
<!-- Node29&#45;&gt;Node25 -->
<g id="edge44_Node000029_Node000025" class="edge">
<title>Node29&#45;&gt;Node25</title>
<g id="a_edge44_Node000029_Node000025"><a xlink:title=" ">
<path fill="none" stroke="#63b8ff" d="M551.27,-72.38C541.97,-69.12 532.47,-65.75 523.5,-62.55 504.02,-55.59 482.54,-47.77 464.17,-41.05"/>
<polygon fill="#63b8ff" stroke="#63b8ff" points="550.01,-75.65 560.61,-75.66 552.33,-69.05 550.01,-75.65"/>
</a>
</g>
</g>
<!-- Node30&#45;&gt;Node19 -->
<g id="edge46_Node000030_Node000019" class="edge">
<title>Node30&#45;&gt;Node19</title>
<g id="a_edge46_Node000030_Node000019"><a xlink:title=" ">
<path fill="none" stroke="#63b8ff" d="M546.21,-162.47C521.94,-170.14 494.51,-178.81 471.39,-186.11"/>
<polygon fill="#63b8ff" stroke="#63b8ff" points="547.19,-165.83 555.67,-159.48 545.08,-159.16 547.19,-165.83"/>
</a>
</g>
</g>
</g>
</svg>

<g id="navigator" transform="translate(0 0)" fill="#404254">
  <rect fill="#f2f5e9" fill-opacity="0.5" stroke="#606060" stroke-width=".5" x="0" y="0" width="60" height="60"/>
  <use id="zoomplus" xlink:href="#zoomPlus" x="17" y="9" onmousedown="handleZoom(evt,'in')"/>
  <use id="zoomminus" xlink:href="#zoomMin" x="42" y="9" onmousedown="handleZoom(evt,'out')"/>
  <use id="reset" xlink:href="#resetDef" x="30" y="36" onmousedown="handleReset()"/>
   <use id="arrowup" xlink:href="#arrowUp" x="0" y="0" onmousedown="handlePan(0,-1)"/>
  <use id="arrowright" xlink:href="#arrowRight" x="0" y="0" onmousedown="handlePan(1,0)"/>
  <use id="arrowdown" xlink:href="#arrowDown" x="0" y="0" onmousedown="handlePan(0,1)"/>
  <use id="arrowleft" xlink:href="#arrowLeft" x="0" y="0" onmousedown="handlePan(-1,0)"/>
</g>
<svg viewBox="0 0 15 15" width="100%" height="30px" preserveAspectRatio="xMaxYMin meet">
 <g id="arrow_out" transform="scale(0.3 0.3)">
  <a xlink:href="class_relationship_end_a6e9e40441ae8b3ce493d71756d692a0c_icgraph_org.svg" target="_base">
   <rect id="button" ry="5" rx="5" y="6" x="6" height="38" width="38"
        fill="#f2f5e9" fill-opacity="0.5" stroke="#606060" stroke-width="1.0"/>
   <path id="arrow"
     d="M 11.500037,31.436501 C 11.940474,20.09759 22.043105,11.32322 32.158766,21.979434 L 37.068811,17.246167 C 37.068811,17.246167 37.088388,32 37.088388,32 L 22.160133,31.978069 C 22.160133,31.978069 26.997745,27.140456 26.997745,27.140456 C 18.528582,18.264221 13.291696,25.230495 11.500037,31.436501 z"
     style="fill:#404040;"/>
  </a>
 </g>
</svg>

<style type='text/css'>
<![CDATA[
[data-mouse-over-selected='false'] { opacity: 0.7; }
[data-mouse-over-selected='true']  { opacity: 1.0; }
]]>
</style>
<script type="application/ecmascript"><![CDATA[
document.addEventListener('DOMContentLoaded', (event) => {
  highlightEdges();
  highlightAdjacentNodes();
});
]]></script>
</svg>
