<?xml version="1.0" encoding="UTF-8" standalone="no"?>
<!DOCTYPE svg PUBLIC "-//W3C//DTD SVG 1.1//EN"
 "http://www.w3.org/Graphics/SVG/1.1/DTD/svg11.dtd">
<!-- Generated by graphviz version 14.1.1 (20251213.1925)
 -->
<!-- Title: QuickAccessToolbar::onOpenAction Pages: 1 -->
<svg width="404pt" height="40pt"
 viewBox="0.00 0.00 404.00 40.00" xmlns="http://www.w3.org/2000/svg" xmlns:xlink="http://www.w3.org/1999/xlink">
<g id="graph0" class="graph" transform="scale(1 1) rotate(0) translate(4 36)">
<title>QuickAccessToolbar::onOpenAction</title>
<!-- Node1 -->
<g id="Node000001" class="node">
<title>Node1</title>
<g id="a_Node000001"><a xlink:title=" ">
<polygon fill="#999999" stroke="#666666" points="396,-32 290,-32 290,0 396,0 396,-32"/>
<text xml:space="preserve" text-anchor="start" x="298" y="-18.5" font-family="Helvetica,sans-Serif" font-size="10.00">QuickAccessToolbar</text>
<text xml:space="preserve" text-anchor="middle" x="343" y="-6.5" font-family="Helvetica,sans-Serif" font-size="10.00">::onOpenAction</text>
</a>
</g>
</g>
<!-- Node2 -->
<g id="Node000002" class="node">
<title>Node2</title>
<g id="a_Node000002"><a xlink:href="class_quick_access_toolbar.html#a9e7b41af686d1b6db9993d80e8390053" target="_top" xlink:title=" ">
<polygon fill="white" stroke="#666666" points="254,-32 148,-32 148,0 254,0 254,-32"/>
<text xml:space="preserve" text-anchor="start" x="156" y="-18.5" font-family="Helvetica,sans-Serif" font-size="10.00">QuickAccessToolbar</text>
<text xml:space="preserve" text-anchor="middle" x="201" y="-6.5" font-family="Helvetica,sans-Serif" font-size="10.00">::addDefaultActions</text>
</a>
</g>
</g>
<!-- Node1&#45;&gt;Node2 -->
<g id="edge1_Node000001_Node000002" class="edge">
<title>Node1&#45;&gt;Node2</title>
<g id="a_edge1_Node000001_Node000002"><a xlink:title=" ">
<path fill="none" stroke="#63b8ff" d="M278.49,-16C270.36,-16 262.1,-16 254.17,-16"/>
<polygon fill="#63b8ff" stroke="#63b8ff" points="278.36,-19.5 288.36,-16 278.36,-12.5 278.36,-19.5"/>
</a>
</g>
</g>
<!-- Node3 -->
<g id="Node000003" class="node">
<title>Node3</title>
<g id="a_Node000003"><a xlink:href="class_quick_access_toolbar.html#af2146dbbe3237bb43e290ff1a36039c6" target="_top" xlink:title=" ">
<polygon fill="white" stroke="#666666" points="112,-32 0,-32 0,0 112,0 112,-32"/>
<text xml:space="preserve" text-anchor="start" x="8" y="-18.5" font-family="Helvetica,sans-Serif" font-size="10.00">QuickAccessToolbar</text>
<text xml:space="preserve" text-anchor="middle" x="56" y="-6.5" font-family="Helvetica,sans-Serif" font-size="10.00">::QuickAccessToolbar</text>
</a>
</g>
</g>
<!-- Node2&#45;&gt;Node3 -->
<g id="edge2_Node000002_Node000003" class="edge">
<title>Node2&#45;&gt;Node3</title>
<g id="a_edge2_Node000002_Node000003"><a xlink:title=" ">
<path fill="none" stroke="#63b8ff" d="M136.08,-16C128.15,-16 120.1,-16 112.31,-16"/>
<polygon fill="#63b8ff" stroke="#63b8ff" points="136.05,-19.5 146.05,-16 136.05,-12.5 136.05,-19.5"/>
</a>
</g>
</g>
</g>
</svg>
