<?xml version="1.0" encoding="UTF-8" standalone="no"?>
<!DOCTYPE svg PUBLIC "-//W3C//DTD SVG 1.1//EN"
 "http://www.w3.org/Graphics/SVG/1.1/DTD/svg11.dtd">
<!-- Generated by graphviz version 14.1.1 (20251213.1925)
 -->
<!-- Title: ConnectionLine::getEndPosition Pages: 1 -->
<svg width="511pt" height="165pt"
 viewBox="0.00 0.00 511.00 165.00" xmlns="http://www.w3.org/2000/svg" xmlns:xlink="http://www.w3.org/1999/xlink">
<g id="graph0" class="graph" transform="scale(1 1) rotate(0) translate(4 161)">
<title>ConnectionLine::getEndPosition</title>
<!-- Node1 -->
<g id="Node000001" class="node">
<title>Node1</title>
<g id="a_Node000001"><a xlink:title=" ">
<polygon fill="#999999" stroke="#666666" points="502.5,-101 347,-101 347,-81 502.5,-81 502.5,-101"/>
<text xml:space="preserve" text-anchor="middle" x="424.75" y="-87.5" font-family="Helvetica,sans-Serif" font-size="10.00">ConnectionLine::getEndPosition</text>
</a>
</g>
</g>
<!-- Node2 -->
<g id="Node000002" class="node">
<title>Node2</title>
<g id="a_Node000002"><a xlink:href="class_relationship_connection_line.html#ac28ef7637b655779039935347f4ddc23" target="_top" xlink:title=" ">
<polygon fill="white" stroke="#666666" points="311,-157 173.5,-157 173.5,-125 311,-125 311,-157"/>
<text xml:space="preserve" text-anchor="start" x="181.5" y="-143.5" font-family="Helvetica,sans-Serif" font-size="10.00">RelationshipConnectionLine</text>
<text xml:space="preserve" text-anchor="middle" x="242.25" y="-131.5" font-family="Helvetica,sans-Serif" font-size="10.00">::getCardinalityDragBounds</text>
</a>
</g>
</g>
<!-- Node1&#45;&gt;Node2 -->
<g id="edge1_Node000001_Node000002" class="edge">
<title>Node1&#45;&gt;Node2</title>
<g id="a_edge1_Node000001_Node000002"><a xlink:title=" ">
<path fill="none" stroke="#63b8ff" d="M375.03,-104.5C352.75,-110.67 326.16,-118.03 302.71,-124.53"/>
<polygon fill="#63b8ff" stroke="#63b8ff" points="375.75,-107.93 384.45,-101.89 373.88,-101.18 375.75,-107.93"/>
</a>
</g>
</g>
<!-- Node3 -->
<g id="Node000003" class="node">
<title>Node3</title>
<g id="a_Node000003"><a xlink:href="class_relationship_connection_line.html#aca1719d455dd0003fde92039bc03e21d" target="_top" xlink:title=" ">
<polygon fill="white" stroke="#666666" points="311,-107 173.5,-107 173.5,-75 311,-75 311,-107"/>
<text xml:space="preserve" text-anchor="start" x="181.5" y="-93.5" font-family="Helvetica,sans-Serif" font-size="10.00">RelationshipConnectionLine</text>
<text xml:space="preserve" text-anchor="middle" x="242.25" y="-81.5" font-family="Helvetica,sans-Serif" font-size="10.00">::getCardinalityPosition</text>
</a>
</g>
</g>
<!-- Node1&#45;&gt;Node3 -->
<g id="edge2_Node000001_Node000003" class="edge">
<title>Node1&#45;&gt;Node3</title>
<g id="a_edge2_Node000001_Node000003"><a xlink:title=" ">
<path fill="none" stroke="#63b8ff" d="M335.29,-91C327.2,-91 319.09,-91 311.23,-91"/>
<polygon fill="#63b8ff" stroke="#63b8ff" points="335.16,-94.5 345.16,-91 335.16,-87.5 335.16,-94.5"/>
</a>
</g>
</g>
<!-- Node4 -->
<g id="Node000004" class="node">
<title>Node4</title>
<g id="a_Node000004"><a xlink:href="class_relationship_connection_line.html#aa30d5092e409b8f272239e8e9b64717a" target="_top" xlink:title=" ">
<polygon fill="white" stroke="#666666" points="311,-57 173.5,-57 173.5,-25 311,-25 311,-57"/>
<text xml:space="preserve" text-anchor="start" x="181.5" y="-43.5" font-family="Helvetica,sans-Serif" font-size="10.00">RelationshipConnectionLine</text>
<text xml:space="preserve" text-anchor="middle" x="242.25" y="-31.5" font-family="Helvetica,sans-Serif" font-size="10.00">::isCardinalityOffsetValid</text>
</a>
</g>
</g>
<!-- Node1&#45;&gt;Node4 -->
<g id="edge3_Node000001_Node000004" class="edge">
<title>Node1&#45;&gt;Node4</title>
<g id="a_edge3_Node000001_Node000004"><a xlink:title=" ">
<path fill="none" stroke="#63b8ff" d="M375.03,-77.5C352.75,-71.33 326.16,-63.97 302.71,-57.47"/>
<polygon fill="#63b8ff" stroke="#63b8ff" points="373.88,-80.82 384.45,-80.11 375.75,-74.07 373.88,-80.82"/>
</a>
</g>
</g>
<!-- Node5 -->
<g id="Node000005" class="node">
<title>Node5</title>
<g id="a_Node000005"><a xlink:href="class_relationship_connection_line.html#ae096b0c8c07ce5d7d5bd8acfad489f1a" target="_top" xlink:title=" ">
<polygon fill="white" stroke="#666666" points="137.5,-82 0,-82 0,-50 137.5,-50 137.5,-82"/>
<text xml:space="preserve" text-anchor="start" x="8" y="-68.5" font-family="Helvetica,sans-Serif" font-size="10.00">RelationshipConnectionLine</text>
<text xml:space="preserve" text-anchor="middle" x="68.75" y="-56.5" font-family="Helvetica,sans-Serif" font-size="10.00">::deserialize</text>
</a>
</g>
</g>
<!-- Node4&#45;&gt;Node5 -->
<g id="edge4_Node000004_Node000005" class="edge">
<title>Node4&#45;&gt;Node5</title>
<g id="a_edge4_Node000004_Node000005"><a xlink:title=" ">
<path fill="none" stroke="#63b8ff" d="M162.11,-52.54C154.02,-53.72 145.84,-54.91 137.88,-56.07"/>
<polygon fill="#63b8ff" stroke="#63b8ff" points="162.58,-56 171.97,-51.1 161.57,-49.08 162.58,-56"/>
</a>
</g>
</g>
<!-- Node6 -->
<g id="Node000006" class="node">
<title>Node6</title>
<g id="a_Node000006"><a xlink:href="class_relationship_connection_line.html#a7d0bf30aa0fbd51b9a085894e445069d" target="_top" xlink:title=" ">
<polygon fill="white" stroke="#666666" points="137.5,-32 0,-32 0,0 137.5,0 137.5,-32"/>
<text xml:space="preserve" text-anchor="start" x="8" y="-18.5" font-family="Helvetica,sans-Serif" font-size="10.00">RelationshipConnectionLine</text>
<text xml:space="preserve" text-anchor="middle" x="68.75" y="-6.5" font-family="Helvetica,sans-Serif" font-size="10.00">::setCardinalityOffset</text>
</a>
</g>
</g>
<!-- Node4&#45;&gt;Node6 -->
<g id="edge5_Node000004_Node000006" class="edge">
<title>Node4&#45;&gt;Node6</title>
<g id="a_edge5_Node000004_Node000006"><a xlink:title=" ">
<path fill="none" stroke="#63b8ff" d="M162.11,-29.46C154.02,-28.28 145.84,-27.09 137.88,-25.93"/>
<polygon fill="#63b8ff" stroke="#63b8ff" points="161.57,-32.92 171.97,-30.9 162.58,-26 161.57,-32.92"/>
</a>
</g>
</g>
</g>
</svg>
