<?xml version="1.0" encoding="UTF-8" standalone="no"?>
<!DOCTYPE svg PUBLIC "-//W3C//DTD SVG 1.1//EN"
 "http://www.w3.org/Graphics/SVG/1.1/DTD/svg11.dtd">
<!-- Generated by graphviz version 14.1.1 (20251213.1925)
 -->
<!-- Title: ElementGraphicsItem::ElementGraphicsItem Pages: 1 -->
<svg width="432pt" height="140pt"
 viewBox="0.00 0.00 432.00 140.00" xmlns="http://www.w3.org/2000/svg" xmlns:xlink="http://www.w3.org/1999/xlink">
<g id="graph0" class="graph" transform="scale(1 1) rotate(0) translate(4 136)">
<title>ElementGraphicsItem::ElementGraphicsItem</title>
<!-- Node1 -->
<g id="Node000001" class="node">
<title>Node1</title>
<g id="a_Node000001"><a xlink:title=" ">
<polygon fill="#999999" stroke="#666666" points="116.5,-82 0,-82 0,-50 116.5,-50 116.5,-82"/>
<text xml:space="preserve" text-anchor="start" x="8" y="-68.5" font-family="Helvetica,sans-Serif" font-size="10.00">ElementGraphicsItem</text>
<text xml:space="preserve" text-anchor="middle" x="58.25" y="-56.5" font-family="Helvetica,sans-Serif" font-size="10.00">::ElementGraphicsItem</text>
</a>
</g>
</g>
<!-- Node2 -->
<g id="Node000002" class="node">
<title>Node2</title>
<g id="a_Node000002"><a xlink:href="class_element_graphics_item.html#a6742e9d215c1199d6e8b6a2550aad2c9" target="_top" xlink:title=" ">
<polygon fill="white" stroke="#666666" points="263,-132 152.5,-132 152.5,-100 263,-100 263,-132"/>
<text xml:space="preserve" text-anchor="start" x="160.5" y="-118.5" font-family="Helvetica,sans-Serif" font-size="10.00">ElementGraphicsItem</text>
<text xml:space="preserve" text-anchor="middle" x="207.75" y="-106.5" font-family="Helvetica,sans-Serif" font-size="10.00">::element</text>
</a>
</g>
</g>
<!-- Node1&#45;&gt;Node2 -->
<g id="edge1_Node000001_Node000002" class="edge">
<title>Node1&#45;&gt;Node2</title>
<g id="a_edge1_Node000001_Node000002"><a xlink:title=" ">
<path fill="none" stroke="#63b8ff" d="M107.55,-82.37C120.22,-86.67 134.03,-91.35 147.21,-95.82"/>
<polygon fill="#63b8ff" stroke="#63b8ff" points="146.06,-99.12 156.66,-99.02 148.31,-92.49 146.06,-99.12"/>
</a>
</g>
</g>
<!-- Node3 -->
<g id="Node000003" class="node">
<title>Node3</title>
<g id="a_Node000003"><a xlink:href="class_element_graphics_item.html#a92ce5533958fd649032d962af0793ce6" target="_top" xlink:title=" ">
<polygon fill="white" stroke="#666666" points="263,-82 152.5,-82 152.5,-50 263,-50 263,-82"/>
<text xml:space="preserve" text-anchor="start" x="160.5" y="-68.5" font-family="Helvetica,sans-Serif" font-size="10.00">ElementGraphicsItem</text>
<text xml:space="preserve" text-anchor="middle" x="207.75" y="-56.5" font-family="Helvetica,sans-Serif" font-size="10.00">::setupRenderer</text>
</a>
</g>
</g>
<!-- Node1&#45;&gt;Node3 -->
<g id="edge2_Node000001_Node000003" class="edge">
<title>Node1&#45;&gt;Node3</title>
<g id="a_edge2_Node000001_Node000003"><a xlink:title=" ">
<path fill="none" stroke="#63b8ff" d="M116.7,-66C124.62,-66 132.8,-66 140.85,-66"/>
<polygon fill="#63b8ff" stroke="#63b8ff" points="140.6,-69.5 150.6,-66 140.6,-62.5 140.6,-69.5"/>
</a>
</g>
</g>
<!-- Node5 -->
<g id="Node000005" class="node">
<title>Node5</title>
<g id="a_Node000005"><a xlink:href="class_element_graphics_item.html#a70e12e4f6a93b670383d13bfee3dcc37" target="_top" xlink:title=" ">
<polygon fill="white" stroke="#666666" points="263,-32 152.5,-32 152.5,0 263,0 263,-32"/>
<text xml:space="preserve" text-anchor="start" x="160.5" y="-18.5" font-family="Helvetica,sans-Serif" font-size="10.00">ElementGraphicsItem</text>
<text xml:space="preserve" text-anchor="middle" x="207.75" y="-6.5" font-family="Helvetica,sans-Serif" font-size="10.00">::updateFromElement</text>
</a>
</g>
</g>
<!-- Node1&#45;&gt;Node5 -->
<g id="edge4_Node000001_Node000005" class="edge">
<title>Node1&#45;&gt;Node5</title>
<g id="a_edge4_Node000001_Node000005"><a xlink:title=" ">
<path fill="none" stroke="#63b8ff" d="M107.55,-49.63C120.22,-45.33 134.03,-40.65 147.21,-36.18"/>
<polygon fill="#63b8ff" stroke="#63b8ff" points="148.31,-39.51 156.66,-32.98 146.06,-32.88 148.31,-39.51"/>
</a>
</g>
</g>
<!-- Node4 -->
<g id="Node000004" class="node">
<title>Node4</title>
<g id="a_Node000004"><a xlink:href="class_element_renderer_factory.html#a12321affc185c8014f16d846c14e507e" target="_top" xlink:title=" ">
<polygon fill="white" stroke="#666666" points="423.75,-82 299,-82 299,-50 423.75,-50 423.75,-82"/>
<text xml:space="preserve" text-anchor="start" x="307" y="-68.5" font-family="Helvetica,sans-Serif" font-size="10.00">ElementRendererFactory</text>
<text xml:space="preserve" text-anchor="middle" x="361.38" y="-56.5" font-family="Helvetica,sans-Serif" font-size="10.00">::createRenderer</text>
</a>
</g>
</g>
<!-- Node3&#45;&gt;Node4 -->
<g id="edge3_Node000003_Node000004" class="edge">
<title>Node3&#45;&gt;Node4</title>
<g id="a_edge3_Node000003_Node000004"><a xlink:title=" ">
<path fill="none" stroke="#63b8ff" d="M263.49,-66C271.22,-66 279.26,-66 287.26,-66"/>
<polygon fill="#63b8ff" stroke="#63b8ff" points="287,-69.5 297,-66 287,-62.5 287,-69.5"/>
</a>
</g>
</g>
</g>
</svg>
