<?xml version="1.0" encoding="UTF-8" standalone="no"?>
<!DOCTYPE svg PUBLIC "-//W3C//DTD SVG 1.1//EN"
 "http://www.w3.org/Graphics/SVG/1.1/DTD/svg11.dtd">
<!-- Generated by graphviz version 14.1.1 (20251213.1925)
 -->
<!-- Title: AttributeType::getAllAttributeTypeStrings Pages: 1 -->
<svg width="1896pt" height="1042pt"
 viewBox="0.00 0.00 1896.00 1042.00" xmlns="http://www.w3.org/2000/svg" xmlns:xlink="http://www.w3.org/1999/xlink">
<g id="graph0" class="graph" transform="scale(1 1) rotate(0) translate(4 1038.33)">
<title>AttributeType::getAllAttributeTypeStrings</title>
<!-- Node1 -->
<g id="Node000001" class="node">
<title>Node1</title>
<g id="a_Node000001"><a xlink:title=" ">
<polygon fill="#999999" stroke="#666666" points="1887.5,-621.33 1746.25,-621.33 1746.25,-589.33 1887.5,-589.33 1887.5,-621.33"/>
<text xml:space="preserve" text-anchor="start" x="1754.25" y="-607.83" font-family="Helvetica,sans-Serif" font-size="10.00">AttributeType::getAllAttribute</text>
<text xml:space="preserve" text-anchor="middle" x="1816.88" y="-595.83" font-family="Helvetica,sans-Serif" font-size="10.00">TypeStrings</text>
</a>
</g>
</g>
<!-- Node2 -->
<g id="Node000002" class="node">
<title>Node2</title>
<g id="a_Node000002"><a xlink:href="class_properties_panel.html#acc5a2b4e63ea74eaa34853f1cec46b81" target="_top" xlink:title=" ">
<polygon fill="white" stroke="#666666" points="1705.38,-898.33 1577.62,-898.33 1577.62,-866.33 1705.38,-866.33 1705.38,-898.33"/>
<text xml:space="preserve" text-anchor="start" x="1585.62" y="-884.83" font-family="Helvetica,sans-Serif" font-size="10.00">PropertiesPanel::populate</text>
<text xml:space="preserve" text-anchor="middle" x="1641.5" y="-872.83" font-family="Helvetica,sans-Serif" font-size="10.00">AttributeProperties</text>
</a>
</g>
</g>
<!-- Node1&#45;&gt;Node2 -->
<g id="edge1_Node000001_Node000002" class="edge">
<title>Node1&#45;&gt;Node2</title>
<g id="a_edge1_Node000001_Node000002"><a xlink:title=" ">
<path fill="none" stroke="#63b8ff" d="M1799.53,-631.45C1764.24,-687.84 1681.74,-819.65 1652.77,-865.92"/>
<polygon fill="#63b8ff" stroke="#63b8ff" points="1802.41,-633.45 1804.75,-623.12 1796.47,-629.73 1802.41,-633.45"/>
</a>
</g>
</g>
<!-- Node25 -->
<g id="Node000025" class="node">
<title>Node25</title>
<g id="a_Node000025"><a xlink:href="class_property_command.html#a3a5e5669d6147733338c64d3d62a7b7f" target="_top" xlink:title=" ">
<polygon fill="white" stroke="#666666" points="1710.25,-596.33 1572.75,-596.33 1572.75,-564.33 1710.25,-564.33 1710.25,-596.33"/>
<text xml:space="preserve" text-anchor="start" x="1580.75" y="-582.83" font-family="Helvetica,sans-Serif" font-size="10.00">PropertyCommand::validate</text>
<text xml:space="preserve" text-anchor="middle" x="1641.5" y="-570.83" font-family="Helvetica,sans-Serif" font-size="10.00">Property</text>
</a>
</g>
</g>
<!-- Node1&#45;&gt;Node25 -->
<g id="edge48_Node000001_Node000025" class="edge">
<title>Node1&#45;&gt;Node25</title>
<g id="a_edge48_Node000001_Node000025"><a xlink:title=" ">
<path fill="none" stroke="#63b8ff" d="M1734.56,-593.61C1726.52,-592.45 1718.42,-591.28 1710.53,-590.14"/>
<polygon fill="#63b8ff" stroke="#63b8ff" points="1733.96,-597.06 1744.36,-595.02 1734.96,-590.13 1733.96,-597.06"/>
</a>
</g>
</g>
<!-- Node3 -->
<g id="Node000003" class="node">
<title>Node3</title>
<g id="a_Node000003"><a xlink:href="class_properties_panel.html#a050a4a9040c7aeefde9c1377d2e1909e" target="_top" xlink:title=" ">
<polygon fill="white" stroke="#666666" points="1536.75,-898.33 1409,-898.33 1409,-866.33 1536.75,-866.33 1536.75,-898.33"/>
<text xml:space="preserve" text-anchor="start" x="1417" y="-884.83" font-family="Helvetica,sans-Serif" font-size="10.00">PropertiesPanel::populate</text>
<text xml:space="preserve" text-anchor="middle" x="1472.88" y="-872.83" font-family="Helvetica,sans-Serif" font-size="10.00">AttributeList</text>
</a>
</g>
</g>
<!-- Node2&#45;&gt;Node3 -->
<g id="edge2_Node000002_Node000003" class="edge">
<title>Node2&#45;&gt;Node3</title>
<g id="a_edge2_Node000002_Node000003"><a xlink:title=" ">
<path fill="none" stroke="#63b8ff" d="M1566.25,-875.62C1556.56,-875.54 1546.72,-875.59 1537.23,-875.76"/>
<polygon fill="#63b8ff" stroke="#63b8ff" points="1565.95,-879.12 1575.99,-875.75 1566.04,-872.12 1565.95,-879.12"/>
</a>
</g>
</g>
<!-- Node5 -->
<g id="Node000005" class="node">
<title>Node5</title>
<g id="a_Node000005"><a xlink:href="class_properties_panel.html#a037586f897062f3915a123b9f2a82b91" target="_top" xlink:title=" ">
<polygon fill="white" stroke="#666666" points="1209.25,-702.33 1081.5,-702.33 1081.5,-670.33 1209.25,-670.33 1209.25,-702.33"/>
<text xml:space="preserve" text-anchor="start" x="1089.5" y="-688.83" font-family="Helvetica,sans-Serif" font-size="10.00">PropertiesPanel::populate</text>
<text xml:space="preserve" text-anchor="middle" x="1145.38" y="-676.83" font-family="Helvetica,sans-Serif" font-size="10.00">ForElement</text>
</a>
</g>
</g>
<!-- Node2&#45;&gt;Node5 -->
<g id="edge47_Node000002_Node000005" class="edge">
<title>Node2&#45;&gt;Node5</title>
<g id="a_edge47_Node000002_Node000005"><a xlink:title=" ">
<path fill="none" stroke="#63b8ff" d="M1632.21,-855.15C1618.92,-816.78 1588.92,-747.92 1536.75,-716.33 1435.58,-655.07 1291.59,-663.23 1209.73,-674.74"/>
<polygon fill="#63b8ff" stroke="#63b8ff" points="1628.86,-856.17 1635.32,-864.56 1635.51,-853.97 1628.86,-856.17"/>
</a>
</g>
</g>
<!-- Node3&#45;&gt;Node2 -->
<g id="edge3_Node000003_Node000002" class="edge">
<title>Node3&#45;&gt;Node2</title>
<g id="a_edge3_Node000003_Node000002"><a xlink:title=" ">
<path fill="none" stroke="#63b8ff" d="M1548.5,-889.05C1558.19,-889.12 1568.03,-889.08 1577.51,-888.9"/>
<polygon fill="#63b8ff" stroke="#63b8ff" points="1548.79,-885.55 1538.75,-888.93 1548.7,-892.55 1548.79,-885.55"/>
</a>
</g>
</g>
<!-- Node4 -->
<g id="Node000004" class="node">
<title>Node4</title>
<g id="a_Node000004"><a xlink:href="class_properties_panel.html#a6a4344308af5b2c993bc25981529239c" target="_top" xlink:title=" ">
<polygon fill="white" stroke="#666666" points="482.25,-752.33 354.5,-752.33 354.5,-720.33 482.25,-720.33 482.25,-752.33"/>
<text xml:space="preserve" text-anchor="start" x="362.5" y="-738.83" font-family="Helvetica,sans-Serif" font-size="10.00">PropertiesPanel::populate</text>
<text xml:space="preserve" text-anchor="middle" x="418.38" y="-726.83" font-family="Helvetica,sans-Serif" font-size="10.00">EntityProperties</text>
</a>
</g>
</g>
<!-- Node3&#45;&gt;Node4 -->
<g id="edge4_Node000003_Node000004" class="edge">
<title>Node3&#45;&gt;Node4</title>
<g id="a_edge4_Node000003_Node000004"><a xlink:title=" ">
<path fill="none" stroke="#63b8ff" d="M1397.56,-880.53C1353.29,-879.17 1296.02,-876.91 1245.25,-873.33 923.63,-850.7 828.94,-903.58 523.5,-800.33 491.74,-789.6 459.52,-767.74 439.51,-752.57"/>
<polygon fill="#63b8ff" stroke="#63b8ff" points="1397.2,-884.02 1407.3,-880.82 1397.4,-877.02 1397.2,-884.02"/>
</a>
</g>
</g>
<!-- Node9 -->
<g id="Node000009" class="node">
<title>Node9</title>
<g id="a_Node000009"><a xlink:href="class_properties_panel.html#aeb116e2e51099f618b5d284e492bc0e2" target="_top" xlink:title=" ">
<polygon fill="white" stroke="#666666" points="1373,-841.33 1245.25,-841.33 1245.25,-809.33 1373,-809.33 1373,-841.33"/>
<text xml:space="preserve" text-anchor="start" x="1253.25" y="-827.83" font-family="Helvetica,sans-Serif" font-size="10.00">PropertiesPanel::populate</text>
<text xml:space="preserve" text-anchor="middle" x="1309.12" y="-815.83" font-family="Helvetica,sans-Serif" font-size="10.00">RelationshipProperties</text>
</a>
</g>
</g>
<!-- Node3&#45;&gt;Node9 -->
<g id="edge46_Node000003_Node000009" class="edge">
<title>Node3&#45;&gt;Node9</title>
<g id="a_edge46_Node000003_Node000009"><a xlink:title=" ">
<path fill="none" stroke="#63b8ff" d="M1414.25,-862.03C1395.41,-855.39 1374.73,-848.1 1356.8,-841.78"/>
<polygon fill="#63b8ff" stroke="#63b8ff" points="1413.07,-865.32 1423.66,-865.34 1415.39,-858.72 1413.07,-865.32"/>
</a>
</g>
</g>
<!-- Node4&#45;&gt;Node5 -->
<g id="edge5_Node000004_Node000005" class="edge">
<title>Node4&#45;&gt;Node5</title>
<g id="a_edge5_Node000004_Node000005"><a xlink:title=" ">
<path fill="none" stroke="#63b8ff" d="M490.23,-717.37C501.3,-714.97 512.66,-712.84 523.5,-711.33 725.99,-683.22 968.91,-683.03 1081.44,-684.83"/>
<polygon fill="#63b8ff" stroke="#63b8ff" points="489.75,-713.89 480.76,-719.51 491.29,-720.72 489.75,-713.89"/>
</a>
</g>
</g>
<!-- Node6 -->
<g id="Node000006" class="node">
<title>Node6</title>
<g id="a_Node000006"><a xlink:href="class_properties_panel.html#a139ae0158b486c6004e15e0ddf36f319" target="_top" xlink:title=" ">
<polygon fill="white" stroke="#666666" points="1045.5,-507.33 924.5,-507.33 924.5,-487.33 1045.5,-487.33 1045.5,-507.33"/>
<text xml:space="preserve" text-anchor="middle" x="985" y="-493.83" font-family="Helvetica,sans-Serif" font-size="10.00">PropertiesPanel::refresh</text>
</a>
</g>
</g>
<!-- Node5&#45;&gt;Node6 -->
<g id="edge6_Node000005_Node000006" class="edge">
<title>Node5&#45;&gt;Node6</title>
<g id="a_edge6_Node000005_Node000006"><a xlink:title=" ">
<path fill="none" stroke="#63b8ff" d="M1123.21,-661.08C1087.95,-618.99 1018.64,-536.29 994.52,-507.5"/>
<polygon fill="#63b8ff" stroke="#63b8ff" points="1120.52,-663.32 1129.63,-668.73 1125.89,-658.82 1120.52,-663.32"/>
</a>
</g>
</g>
<!-- Node7 -->
<g id="Node000007" class="node">
<title>Node7</title>
<g id="a_Node000007"><a xlink:href="class_properties_panel.html#a55ae5c02e7d75c7bdc26281a148e8c5a" target="_top" xlink:title=" ">
<polygon fill="white" stroke="#666666" points="888.5,-614.33 733,-614.33 733,-582.33 888.5,-582.33 888.5,-614.33"/>
<text xml:space="preserve" text-anchor="start" x="741" y="-600.83" font-family="Helvetica,sans-Serif" font-size="10.00">PropertiesPanel::onAddAttribute</text>
<text xml:space="preserve" text-anchor="middle" x="810.75" y="-588.83" font-family="Helvetica,sans-Serif" font-size="10.00">OnTreeClicked</text>
</a>
</g>
</g>
<!-- Node6&#45;&gt;Node7 -->
<g id="edge7_Node000006_Node000007" class="edge">
<title>Node6&#45;&gt;Node7</title>
<g id="a_edge7_Node000006_Node000007"><a xlink:title=" ">
<path fill="none" stroke="#63b8ff" d="M963.59,-515.04C944.97,-530.56 916.2,-552.99 888.5,-568.33 879.49,-573.33 869.48,-577.88 859.74,-581.86"/>
<polygon fill="#63b8ff" stroke="#63b8ff" points="965.82,-517.74 971.19,-508.6 961.3,-512.4 965.82,-517.74"/>
</a>
</g>
</g>
<!-- Node10 -->
<g id="Node000010" class="node">
<title>Node10</title>
<g id="a_Node000010"><a xlink:href="class_properties_panel.html#a2800a2c7575a5fad6d923d9b64d982f8" target="_top" xlink:title=" ">
<polygon fill="white" stroke="#666666" points="483.38,-428.33 353.38,-428.33 353.38,-396.33 483.38,-396.33 483.38,-428.33"/>
<text xml:space="preserve" text-anchor="start" x="361.38" y="-414.83" font-family="Helvetica,sans-Serif" font-size="10.00">PropertiesPanel::onCheck</text>
<text xml:space="preserve" text-anchor="middle" x="418.38" y="-402.83" font-family="Helvetica,sans-Serif" font-size="10.00">BoxChanged</text>
</a>
</g>
</g>
<!-- Node6&#45;&gt;Node10 -->
<g id="edge14_Node000006_Node000010" class="edge">
<title>Node6&#45;&gt;Node10</title>
<g id="a_edge14_Node000006_Node000010"><a xlink:title=" ">
<path fill="none" stroke="#63b8ff" d="M948.52,-511.81C868.38,-542.13 669.01,-604.15 523.5,-536.33 475.34,-513.89 441.54,-457 427.14,-428.76"/>
<polygon fill="#63b8ff" stroke="#63b8ff" points="949.54,-515.17 957.61,-508.3 947.02,-508.64 949.54,-515.17"/>
</a>
</g>
</g>
<!-- Node12 -->
<g id="Node000012" class="node">
<title>Node12</title>
<g id="a_Node000012"><a xlink:href="class_properties_panel.html#aec82450a3daeb2614c2321e37897f1dd" target="_top" xlink:title=" ">
<polygon fill="white" stroke="#666666" points="484.88,-274.33 351.88,-274.33 351.88,-242.33 484.88,-242.33 484.88,-274.33"/>
<text xml:space="preserve" text-anchor="start" x="359.88" y="-260.83" font-family="Helvetica,sans-Serif" font-size="10.00">PropertiesPanel::onCombo</text>
<text xml:space="preserve" text-anchor="middle" x="418.38" y="-248.83" font-family="Helvetica,sans-Serif" font-size="10.00">BoxChanged</text>
</a>
</g>
</g>
<!-- Node6&#45;&gt;Node12 -->
<g id="edge18_Node000006_Node000012" class="edge">
<title>Node6&#45;&gt;Node12</title>
<g id="a_edge18_Node000006_Node000012"><a xlink:title=" ">
<path fill="none" stroke="#63b8ff" d="M912.72,-508.36C799.02,-524.32 583.32,-547.41 523.5,-503.33 480.04,-471.32 508.19,-437.19 487.5,-387.33 470.02,-345.23 443.44,-298.56 429.2,-274.56"/>
<polygon fill="#63b8ff" stroke="#63b8ff" points="913.16,-511.83 922.57,-506.96 912.17,-504.9 913.16,-511.83"/>
</a>
</g>
</g>
<!-- Node16 -->
<g id="Node000016" class="node">
<title>Node16</title>
<g id="a_Node000016"><a xlink:href="class_properties_panel.html#aec8130201106284c02f21903b516554d" target="_top" xlink:title=" ">
<polygon fill="white" stroke="#666666" points="678.62,-494.33 541.88,-494.33 541.88,-462.33 678.62,-462.33 678.62,-494.33"/>
<text xml:space="preserve" text-anchor="start" x="549.88" y="-480.83" font-family="Helvetica,sans-Serif" font-size="10.00">PropertiesPanel::onLineEdit</text>
<text xml:space="preserve" text-anchor="middle" x="610.25" y="-468.83" font-family="Helvetica,sans-Serif" font-size="10.00">Changed</text>
</a>
</g>
</g>
<!-- Node6&#45;&gt;Node16 -->
<g id="edge25_Node000006_Node000016" class="edge">
<title>Node6&#45;&gt;Node16</title>
<g id="a_edge25_Node000006_Node000016"><a xlink:title=" ">
<path fill="none" stroke="#63b8ff" d="M912.76,-493.7C845.4,-490.27 745.03,-485.15 678.88,-481.78"/>
<polygon fill="#63b8ff" stroke="#63b8ff" points="912.43,-497.19 922.6,-494.2 912.79,-490.2 912.43,-497.19"/>
</a>
</g>
</g>
<!-- Node18 -->
<g id="Node000018" class="node">
<title>Node18</title>
<g id="a_Node000018"><a xlink:href="class_properties_panel.html#a3cdc065abcd2f9e59558903073c0f23f" target="_top" xlink:title=" ">
<polygon fill="white" stroke="#666666" points="487.5,-110.33 349.25,-110.33 349.25,-78.33 487.5,-78.33 487.5,-110.33"/>
<text xml:space="preserve" text-anchor="start" x="357.25" y="-96.83" font-family="Helvetica,sans-Serif" font-size="10.00">PropertiesPanel::onProperty</text>
<text xml:space="preserve" text-anchor="middle" x="418.38" y="-84.83" font-family="Helvetica,sans-Serif" font-size="10.00">ValueChanged</text>
</a>
</g>
</g>
<!-- Node6&#45;&gt;Node18 -->
<g id="edge28_Node000006_Node000018" class="edge">
<title>Node6&#45;&gt;Node18</title>
<g id="a_edge28_Node000006_Node000018"><a xlink:title=" ">
<path fill="none" stroke="#63b8ff" d="M982.23,-475.59C976.59,-422.65 955.32,-286.51 888.5,-199.33 826.52,-118.47 794.6,-102.56 697,-73.33 616.58,-49.25 517.23,-63.45 461.83,-77.84"/>
<polygon fill="#63b8ff" stroke="#63b8ff" points="978.73,-475.78 983.17,-485.4 985.7,-475.11 978.73,-475.78"/>
</a>
</g>
</g>
<!-- Node20 -->
<g id="Node000020" class="node">
<title>Node20</title>
<g id="a_Node000020"><a xlink:href="class_properties_panel.html#a8a2ec0bcba44f3bbd0245d3a53ff49f7" target="_top" xlink:title=" ">
<polygon fill="white" stroke="#666666" points="879.88,-664.33 741.62,-664.33 741.62,-632.33 879.88,-632.33 879.88,-664.33"/>
<text xml:space="preserve" text-anchor="start" x="749.62" y="-650.83" font-family="Helvetica,sans-Serif" font-size="10.00">PropertiesPanel::onRemove</text>
<text xml:space="preserve" text-anchor="middle" x="810.75" y="-638.83" font-family="Helvetica,sans-Serif" font-size="10.00">AttributeOnTreeClicked</text>
</a>
</g>
</g>
<!-- Node6&#45;&gt;Node20 -->
<g id="edge31_Node000006_Node000020" class="edge">
<title>Node6&#45;&gt;Node20</title>
<g id="a_edge31_Node000006_Node000020"><a xlink:title=" ">
<path fill="none" stroke="#63b8ff" d="M973.77,-517.62C958.77,-545.41 928.2,-595.08 888.5,-623.33 883.93,-626.58 878.92,-629.43 873.71,-631.92"/>
<polygon fill="#63b8ff" stroke="#63b8ff" points="976.84,-519.32 978.37,-508.84 970.63,-516.07 976.84,-519.32"/>
</a>
</g>
</g>
<!-- Node21 -->
<g id="Node000021" class="node">
<title>Node21</title>
<g id="a_Node000021"><a xlink:href="class_properties_panel.html#a79618c5c820a40931c085d54be70bd34" target="_top" xlink:title=" ">
<polygon fill="white" stroke="#666666" points="873.5,-362.33 748,-362.33 748,-330.33 873.5,-330.33 873.5,-362.33"/>
<text xml:space="preserve" text-anchor="start" x="756" y="-348.83" font-family="Helvetica,sans-Serif" font-size="10.00">PropertiesPanel::updates</text>
<text xml:space="preserve" text-anchor="middle" x="810.75" y="-336.83" font-family="Helvetica,sans-Serif" font-size="10.00">AfterChangingProperty</text>
</a>
</g>
</g>
<!-- Node6&#45;&gt;Node21 -->
<g id="edge33_Node000006_Node000021" class="edge">
<title>Node6&#45;&gt;Node21</title>
<g id="a_edge33_Node000006_Node000021"><a xlink:title=" ">
<path fill="none" stroke="#63b8ff" d="M963.59,-479.44C929.88,-449.89 863.09,-391.34 830.51,-362.78"/>
<polygon fill="#63b8ff" stroke="#63b8ff" points="961.2,-482 971.02,-485.96 965.81,-476.73 961.2,-482"/>
</a>
</g>
</g>
<!-- Node8 -->
<g id="Node000008" class="node">
<title>Node8</title>
<g id="a_Node000008"><a xlink:href="class_properties_panel.html#a90cca2a241daa84841ee3e90d7768c8f" target="_top" xlink:title=" ">
<polygon fill="white" stroke="#666666" points="683.5,-752.33 537,-752.33 537,-720.33 683.5,-720.33 683.5,-752.33"/>
<text xml:space="preserve" text-anchor="start" x="545" y="-738.83" font-family="Helvetica,sans-Serif" font-size="10.00">PropertiesPanel::createButton</text>
<text xml:space="preserve" text-anchor="middle" x="610.25" y="-726.83" font-family="Helvetica,sans-Serif" font-size="10.00">PropertyItem</text>
</a>
</g>
</g>
<!-- Node7&#45;&gt;Node8 -->
<g id="edge8_Node000007_Node000008" class="edge">
<title>Node7&#45;&gt;Node8</title>
<g id="a_edge8_Node000007_Node000008"><a xlink:title=" ">
<path fill="none" stroke="#63b8ff" d="M740.1,-619.47C737.67,-620.7 735.29,-621.99 733,-623.33 687.76,-649.94 645.31,-695.83 624.55,-720.14"/>
<polygon fill="#63b8ff" stroke="#63b8ff" points="741.35,-622.75 748.98,-615.4 738.43,-616.39 741.35,-622.75"/>
</a>
</g>
</g>
<!-- Node8&#45;&gt;Node2 -->
<g id="edge10_Node000008_Node000002" class="edge">
<title>Node8&#45;&gt;Node2</title>
<g id="a_edge10_Node000008_Node000002"><a xlink:title=" ">
<path fill="none" stroke="#63b8ff" d="M695.07,-734.21C770.61,-732.49 884.73,-730.33 984,-730.33 1310.12,-730.33 1310.12,-730.33 1310.12,-730.33 1438.92,-730.33 1572.24,-826.86 1621.09,-866.07"/>
<polygon fill="#63b8ff" stroke="#63b8ff" points="695.18,-730.71 685.26,-734.44 695.34,-737.71 695.18,-730.71"/>
</a>
</g>
</g>
<!-- Node8&#45;&gt;Node3 -->
<g id="edge9_Node000008_Node000003" class="edge">
<title>Node8&#45;&gt;Node3</title>
<g id="a_edge9_Node000008_Node000003"><a xlink:title=" ">
<path fill="none" stroke="#63b8ff" d="M690.8,-755.35C704.83,-758.5 719.32,-761.62 733,-764.33 959.42,-809.34 1017.1,-815.08 1245.25,-850.33 1300.42,-858.86 1363.3,-867.67 1408.8,-873.88"/>
<polygon fill="#63b8ff" stroke="#63b8ff" points="691.67,-751.96 681.15,-753.16 690.13,-758.78 691.67,-751.96"/>
</a>
</g>
</g>
<!-- Node8&#45;&gt;Node4 -->
<g id="edge11_Node000008_Node000004" class="edge">
<title>Node8&#45;&gt;Node4</title>
<g id="a_edge11_Node000008_Node000004"><a xlink:title=" ">
<path fill="none" stroke="#63b8ff" d="M525.27,-736.33C510.95,-736.33 496.29,-736.33 482.63,-736.33"/>
<polygon fill="#63b8ff" stroke="#63b8ff" points="525.14,-739.83 535.14,-736.33 525.14,-732.83 525.14,-739.83"/>
</a>
</g>
</g>
<!-- Node8&#45;&gt;Node9 -->
<g id="edge12_Node000008_Node000009" class="edge">
<title>Node8&#45;&gt;Node9</title>
<g id="a_edge12_Node000008_Node000009"><a xlink:title=" ">
<path fill="none" stroke="#63b8ff" d="M695.04,-741.8C835.7,-751.39 1113.32,-772.11 1209.25,-792.33 1228.2,-796.33 1248.58,-802.75 1265.89,-808.87"/>
<polygon fill="#63b8ff" stroke="#63b8ff" points="695.64,-738.34 685.43,-741.15 695.17,-745.32 695.64,-738.34"/>
</a>
</g>
</g>
<!-- Node9&#45;&gt;Node5 -->
<g id="edge13_Node000009_Node000005" class="edge">
<title>Node9&#45;&gt;Node5</title>
<g id="a_edge13_Node000009_Node000005"><a xlink:title=" ">
<path fill="none" stroke="#63b8ff" d="M1280.28,-801.41C1247.52,-773.25 1193.98,-727.24 1165.54,-702.8"/>
<polygon fill="#63b8ff" stroke="#63b8ff" points="1277.92,-803.99 1287.79,-807.86 1282.48,-798.68 1277.92,-803.99"/>
</a>
</g>
</g>
<!-- Node11 -->
<g id="Node000011" class="node">
<title>Node11</title>
<g id="a_Node000011"><a xlink:href="class_properties_panel.html#acfb41226221624e46767835caeea8abc" target="_top" xlink:title=" ">
<polygon fill="white" stroke="#666666" points="311.75,-930.33 165.25,-930.33 165.25,-898.33 311.75,-898.33 311.75,-930.33"/>
<text xml:space="preserve" text-anchor="start" x="173.25" y="-916.83" font-family="Helvetica,sans-Serif" font-size="10.00">PropertiesPanel::createCheck</text>
<text xml:space="preserve" text-anchor="middle" x="238.5" y="-904.83" font-family="Helvetica,sans-Serif" font-size="10.00">BoxPropertyItem</text>
</a>
</g>
</g>
<!-- Node10&#45;&gt;Node11 -->
<g id="edge15_Node000010_Node000011" class="edge">
<title>Node10&#45;&gt;Node11</title>
<g id="a_edge15_Node000010_Node000011"><a xlink:title=" ">
<path fill="none" stroke="#63b8ff" d="M403.69,-438.55C389.04,-467.22 365.7,-514.77 349.25,-557.33 299.59,-685.86 256.75,-847 243.63,-898.05"/>
<polygon fill="#63b8ff" stroke="#63b8ff" points="406.68,-440.37 408.15,-429.88 400.46,-437.17 406.68,-440.37"/>
</a>
</g>
</g>
<!-- Node11&#45;&gt;Node2 -->
<g id="edge16_Node000011_Node000002" class="edge">
<title>Node11&#45;&gt;Node2</title>
<g id="a_edge16_Node000011_Node000002"><a xlink:title=" ">
<path fill="none" stroke="#63b8ff" d="M309.92,-933.79C400.14,-958.04 551.73,-996.33 609.25,-996.33 1310.12,-996.33 1310.12,-996.33 1310.12,-996.33 1428.44,-996.33 1558.2,-930.19 1613.32,-898.67"/>
<polygon fill="#63b8ff" stroke="#63b8ff" points="310.99,-930.45 300.42,-931.22 309.17,-937.21 310.99,-930.45"/>
</a>
</g>
</g>
<!-- Node11&#45;&gt;Node9 -->
<g id="edge17_Node000011_Node000009" class="edge">
<title>Node11&#45;&gt;Node9</title>
<g id="a_edge17_Node000011_Node000009"><a xlink:title=" ">
<path fill="none" stroke="#63b8ff" d="M323.27,-907.36C530.13,-890.13 1061.6,-845.87 1244.87,-830.6"/>
<polygon fill="#63b8ff" stroke="#63b8ff" points="323.08,-903.86 313.4,-908.18 323.66,-910.84 323.08,-903.86"/>
</a>
</g>
</g>
<!-- Node13 -->
<g id="Node000013" class="node">
<title>Node13</title>
<g id="a_Node000013"><a xlink:href="class_properties_panel.html#a8fd53ec3c9f711c3354483e8bb4d0b47" target="_top" xlink:title=" ">
<polygon fill="white" stroke="#666666" points="313.25,-980.33 163.75,-980.33 163.75,-948.33 313.25,-948.33 313.25,-980.33"/>
<text xml:space="preserve" text-anchor="start" x="171.75" y="-966.83" font-family="Helvetica,sans-Serif" font-size="10.00">PropertiesPanel::createCombo</text>
<text xml:space="preserve" text-anchor="middle" x="238.5" y="-954.83" font-family="Helvetica,sans-Serif" font-size="10.00">BoxPropertyItem</text>
</a>
</g>
</g>
<!-- Node12&#45;&gt;Node13 -->
<g id="edge19_Node000012_Node000013" class="edge">
<title>Node12&#45;&gt;Node13</title>
<g id="a_edge19_Node000012_Node000013"><a xlink:title=" ">
<path fill="none" stroke="#63b8ff" d="M399.64,-283.97C383.33,-309.06 360.09,-348.99 349.25,-387.33 315.81,-505.63 388.09,-841.81 313.25,-939.33 310.7,-942.66 307.68,-945.55 304.35,-948.05"/>
<polygon fill="#63b8ff" stroke="#63b8ff" points="402.49,-286.01 405.1,-275.75 396.66,-282.14 402.49,-286.01"/>
</a>
</g>
</g>
<!-- Node14 -->
<g id="Node000014" class="node">
<title>Node14</title>
<g id="a_Node000014"><a xlink:href="class_properties_panel.html#a32c2dab00c58ffdcb6a1e3cd829d03c8" target="_top" xlink:title=" ">
<polygon fill="white" stroke="#666666" points="306.88,-217.33 170.12,-217.33 170.12,-185.33 306.88,-185.33 306.88,-217.33"/>
<text xml:space="preserve" text-anchor="start" x="178.12" y="-203.83" font-family="Helvetica,sans-Serif" font-size="10.00">PropertiesPanel::createIcon</text>
<text xml:space="preserve" text-anchor="middle" x="238.5" y="-191.83" font-family="Helvetica,sans-Serif" font-size="10.00">ComboBoxPropertyItem</text>
</a>
</g>
</g>
<!-- Node12&#45;&gt;Node14 -->
<g id="edge22_Node000012_Node000014" class="edge">
<title>Node12&#45;&gt;Node14</title>
<g id="a_edge22_Node000012_Node000014"><a xlink:title=" ">
<path fill="none" stroke="#63b8ff" d="M355.16,-238.4C334.14,-231.66 310.92,-224.22 290.83,-217.78"/>
<polygon fill="#63b8ff" stroke="#63b8ff" points="353.89,-241.67 364.48,-241.39 356.03,-235 353.89,-241.67"/>
</a>
</g>
</g>
<!-- Node13&#45;&gt;Node2 -->
<g id="edge20_Node000013_Node000002" class="edge">
<title>Node13&#45;&gt;Node2</title>
<g id="a_edge20_Node000013_Node000002"><a xlink:title=" ">
<path fill="none" stroke="#63b8ff" d="M303.03,-983.86C376.14,-1004.57 500.19,-1034.33 609.25,-1034.33 1310.12,-1034.33 1310.12,-1034.33 1310.12,-1034.33 1414.32,-1034.33 1444.92,-1023.57 1536.75,-974.33 1573.67,-954.54 1608.33,-919.15 1626.75,-898.51"/>
<polygon fill="#63b8ff" stroke="#63b8ff" points="304.21,-980.56 293.63,-981.16 302.28,-987.29 304.21,-980.56"/>
</a>
</g>
</g>
<!-- Node13&#45;&gt;Node9 -->
<g id="edge21_Node000013_Node000009" class="edge">
<title>Node13&#45;&gt;Node9</title>
<g id="a_edge21_Node000013_Node000009"><a xlink:title=" ">
<path fill="none" stroke="#63b8ff" d="M325.03,-958.83C494.82,-946.95 885.95,-914.77 1209.25,-852.33 1223.75,-849.53 1239.24,-845.71 1253.56,-841.82"/>
<polygon fill="#63b8ff" stroke="#63b8ff" points="324.93,-955.33 315.19,-959.51 325.41,-962.31 324.93,-955.33"/>
</a>
</g>
</g>
<!-- Node15 -->
<g id="Node000015" class="node">
<title>Node15</title>
<g id="a_Node000015"><a xlink:href="class_properties_panel.html#adbc7f8deb3a687706dc44ebbd7e39d9d" target="_top" xlink:title=" ">
<polygon fill="white" stroke="#666666" points="127.75,-145.33 0,-145.33 0,-113.33 127.75,-113.33 127.75,-145.33"/>
<text xml:space="preserve" text-anchor="start" x="8" y="-131.83" font-family="Helvetica,sans-Serif" font-size="10.00">PropertiesPanel::populate</text>
<text xml:space="preserve" text-anchor="middle" x="63.88" y="-119.83" font-family="Helvetica,sans-Serif" font-size="10.00">ForConnection</text>
</a>
</g>
</g>
<!-- Node14&#45;&gt;Node15 -->
<g id="edge23_Node000014_Node000015" class="edge">
<title>Node14&#45;&gt;Node15</title>
<g id="a_edge23_Node000014_Node000015"><a xlink:title=" ">
<path fill="none" stroke="#63b8ff" d="M187.71,-180.57C161.16,-169.49 128.96,-156.06 104.19,-145.73"/>
<polygon fill="#63b8ff" stroke="#63b8ff" points="186.36,-183.79 196.93,-184.41 189.05,-177.33 186.36,-183.79"/>
</a>
</g>
</g>
<!-- Node15&#45;&gt;Node6 -->
<g id="edge24_Node000015_Node000006" class="edge">
<title>Node15&#45;&gt;Node6</title>
<g id="a_edge24_Node000015_Node000006"><a xlink:title=" ">
<path fill="none" stroke="#63b8ff" d="M97.35,-106.44C116.07,-94.08 140.45,-79.34 163.75,-69.33 271.09,-23.25 300.56,-0.33 417.38,-0.33 611.25,-0.33 611.25,-0.33 611.25,-0.33 740.8,-0.33 800.79,5.01 888.5,-90.33 944.88,-151.63 976.93,-430.12 982.95,-487.12"/>
<polygon fill="#63b8ff" stroke="#63b8ff" points="95.45,-103.51 89.1,-111.99 99.35,-109.31 95.45,-103.51"/>
</a>
</g>
</g>
<!-- Node17 -->
<g id="Node000017" class="node">
<title>Node17</title>
<g id="a_Node000017"><a xlink:href="class_properties_panel.html#a7bc224323f9c626842fdb6a89205c9bc" target="_top" xlink:title=" ">
<polygon fill="white" stroke="#666666" points="486.38,-598.33 350.38,-598.33 350.38,-566.33 486.38,-566.33 486.38,-598.33"/>
<text xml:space="preserve" text-anchor="start" x="358.38" y="-584.83" font-family="Helvetica,sans-Serif" font-size="10.00">PropertiesPanel::createLine</text>
<text xml:space="preserve" text-anchor="middle" x="418.38" y="-572.83" font-family="Helvetica,sans-Serif" font-size="10.00">EditPropertyItem</text>
</a>
</g>
</g>
<!-- Node16&#45;&gt;Node17 -->
<g id="edge26_Node000016_Node000017" class="edge">
<title>Node16&#45;&gt;Node17</title>
<g id="a_edge26_Node000016_Node000017"><a xlink:title=" ">
<path fill="none" stroke="#63b8ff" d="M569.51,-500.1C533.68,-519.73 481.76,-548.16 449.32,-565.93"/>
<polygon fill="#63b8ff" stroke="#63b8ff" points="570.75,-503.41 577.84,-495.54 567.38,-497.27 570.75,-503.41"/>
</a>
</g>
</g>
<!-- Node17&#45;&gt;Node9 -->
<g id="edge27_Node000017_Node000009" class="edge">
<title>Node17&#45;&gt;Node9</title>
<g id="a_edge27_Node000017_Node000009"><a xlink:title=" ">
<path fill="none" stroke="#63b8ff" d="M433.14,-608.79C458.03,-656.2 509.29,-751.61 523.5,-761.33 629.8,-834.04 680.97,-806.33 809.75,-806.33 986,-806.33 986,-806.33 986,-806.33 1076.05,-806.33 1180.03,-813.83 1244.93,-819.4"/>
<polygon fill="#63b8ff" stroke="#63b8ff" points="436.27,-607.23 428.53,-599.99 430.07,-610.47 436.27,-607.23"/>
</a>
</g>
</g>
<!-- Node18&#45;&gt;Node6 -->
<g id="edge30_Node000018_Node000006" class="edge">
<title>Node18&#45;&gt;Node6</title>
<g id="a_edge30_Node000018_Node000006"><a xlink:title=" ">
<path fill="none" stroke="#63b8ff" d="M499.32,-84.71C555.74,-77.33 632.47,-72.01 697,-91.33 794.6,-120.56 826.52,-136.47 888.5,-217.33 956.97,-306.66 977.62,-447.41 982.62,-486.99"/>
<polygon fill="#63b8ff" stroke="#63b8ff" points="498.89,-81.23 489.46,-86.05 499.84,-88.17 498.89,-81.23"/>
</a>
</g>
</g>
<!-- Node19 -->
<g id="Node000019" class="node">
<title>Node19</title>
<g id="a_Node000019"><a xlink:href="class_properties_panel.html#a9866823e02faefceaae94fc0b0537707" target="_top" xlink:title=" ">
<polygon fill="white" stroke="#666666" points="306.12,-110.33 170.88,-110.33 170.88,-78.33 306.12,-78.33 306.12,-110.33"/>
<text xml:space="preserve" text-anchor="start" x="178.88" y="-96.83" font-family="Helvetica,sans-Serif" font-size="10.00">PropertiesPanel::Properties</text>
<text xml:space="preserve" text-anchor="middle" x="238.5" y="-84.83" font-family="Helvetica,sans-Serif" font-size="10.00">Panel</text>
</a>
</g>
</g>
<!-- Node18&#45;&gt;Node19 -->
<g id="edge29_Node000018_Node000019" class="edge">
<title>Node18&#45;&gt;Node19</title>
<g id="a_edge29_Node000018_Node000019"><a xlink:title=" ">
<path fill="none" stroke="#63b8ff" d="M337.66,-94.33C327.26,-94.33 316.68,-94.33 306.52,-94.33"/>
<polygon fill="#63b8ff" stroke="#63b8ff" points="337.34,-97.83 347.34,-94.33 337.34,-90.83 337.34,-97.83"/>
</a>
</g>
</g>
<!-- Node20&#45;&gt;Node8 -->
<g id="edge32_Node000020_Node000008" class="edge">
<title>Node20&#45;&gt;Node8</title>
<g id="a_edge32_Node000020_Node000008"><a xlink:title=" ">
<path fill="none" stroke="#63b8ff" d="M762.44,-669.31C727.47,-684.81 680.51,-705.63 648.26,-719.93"/>
<polygon fill="#63b8ff" stroke="#63b8ff" points="763.77,-672.55 771.5,-665.29 760.93,-666.15 763.77,-672.55"/>
</a>
</g>
</g>
<!-- Node21&#45;&gt;Node10 -->
<g id="edge42_Node000021_Node000010" class="edge">
<title>Node21&#45;&gt;Node10</title>
<g id="a_edge42_Node000021_Node000010"><a xlink:title=" ">
<path fill="none" stroke="#63b8ff" d="M781.64,-369.64C760.01,-385.99 728.56,-406.44 697,-415.33 626.13,-435.3 540.99,-430.37 483.84,-423.15"/>
<polygon fill="#63b8ff" stroke="#63b8ff" points="783.62,-372.54 789.37,-363.64 779.33,-367.01 783.62,-372.54"/>
</a>
</g>
</g>
<!-- Node21&#45;&gt;Node12 -->
<g id="edge43_Node000021_Node000012" class="edge">
<title>Node21&#45;&gt;Node12</title>
<g id="a_edge43_Node000021_Node000012"><a xlink:title=" ">
<path fill="none" stroke="#63b8ff" d="M781.05,-323.36C759.34,-307.38 728.04,-287.24 697,-277.33 627.15,-255.06 542.56,-252.51 485.25,-254.14"/>
<polygon fill="#63b8ff" stroke="#63b8ff" points="778.73,-325.99 788.82,-329.22 782.95,-320.4 778.73,-325.99"/>
</a>
</g>
</g>
<!-- Node21&#45;&gt;Node16 -->
<g id="edge44_Node000021_Node000016" class="edge">
<title>Node21&#45;&gt;Node16</title>
<g id="a_edge44_Node000021_Node000016"><a xlink:title=" ">
<path fill="none" stroke="#63b8ff" d="M787.89,-371.13C766.64,-393.92 732.46,-427.27 697,-448.33 688.19,-453.57 678.32,-458.08 668.5,-461.9"/>
<polygon fill="#63b8ff" stroke="#63b8ff" points="790.45,-373.52 794.62,-363.78 785.28,-368.79 790.45,-373.52"/>
</a>
</g>
</g>
<!-- Node21&#45;&gt;Node18 -->
<g id="edge45_Node000021_Node000018" class="edge">
<title>Node21&#45;&gt;Node18</title>
<g id="a_edge45_Node000021_Node000018"><a xlink:title=" ">
<path fill="none" stroke="#63b8ff" d="M785.6,-321.87C769.57,-304.9 748.67,-281.29 733,-258.33 713.5,-229.77 723.24,-211.88 697,-189.33 664.78,-161.65 556.75,-129.73 485.33,-110.83"/>
<polygon fill="#63b8ff" stroke="#63b8ff" points="783,-324.21 792.44,-329.02 788.05,-319.37 783,-324.21"/>
</a>
</g>
</g>
<!-- Node22 -->
<g id="Node000022" class="node">
<title>Node22</title>
<g id="a_Node000022"><a xlink:href="class_properties_panel.html#a74d22cd1ca119cda9cc4ca00b853e88d" target="_top" xlink:title=" ">
<polygon fill="white" stroke="#666666" points="688.38,-230.33 532.12,-230.33 532.12,-198.33 688.38,-198.33 688.38,-230.33"/>
<text xml:space="preserve" text-anchor="start" x="540.12" y="-216.83" font-family="Helvetica,sans-Serif" font-size="10.00">PropertiesPanel::handleAttribute</text>
<text xml:space="preserve" text-anchor="middle" x="610.25" y="-204.83" font-family="Helvetica,sans-Serif" font-size="10.00">PropertyChange</text>
</a>
</g>
</g>
<!-- Node21&#45;&gt;Node22 -->
<g id="edge34_Node000021_Node000022" class="edge">
<title>Node21&#45;&gt;Node22</title>
<g id="a_edge34_Node000021_Node000022"><a xlink:title=" ">
<path fill="none" stroke="#63b8ff" d="M787.89,-321.54C766.64,-298.75 732.46,-265.4 697,-244.33 688.19,-239.1 678.32,-234.59 668.5,-230.77"/>
<polygon fill="#63b8ff" stroke="#63b8ff" points="785.28,-323.88 794.62,-328.89 790.45,-319.15 785.28,-323.88"/>
</a>
</g>
</g>
<!-- Node23 -->
<g id="Node000023" class="node">
<title>Node23</title>
<g id="a_Node000023"><a xlink:href="class_properties_panel.html#aa82a2245c62f66554f277c64e643252c" target="_top" xlink:title=" ">
<polygon fill="white" stroke="#666666" points="697,-318.33 523.5,-318.33 523.5,-286.33 697,-286.33 697,-318.33"/>
<text xml:space="preserve" text-anchor="start" x="531.5" y="-304.83" font-family="Helvetica,sans-Serif" font-size="10.00">PropertiesPanel::handleRelationship</text>
<text xml:space="preserve" text-anchor="middle" x="610.25" y="-292.83" font-family="Helvetica,sans-Serif" font-size="10.00">EndCardinalityChange</text>
</a>
</g>
</g>
<!-- Node21&#45;&gt;Node23 -->
<g id="edge38_Node000021_Node000023" class="edge">
<title>Node21&#45;&gt;Node23</title>
<g id="a_edge38_Node000021_Node000023"><a xlink:title=" ">
<path fill="none" stroke="#63b8ff" d="M736.95,-330.2C720.24,-326.49 702.44,-322.55 685.65,-318.83"/>
<polygon fill="#63b8ff" stroke="#63b8ff" points="735.76,-333.52 746.28,-332.27 737.28,-326.68 735.76,-333.52"/>
</a>
</g>
</g>
<!-- Node24 -->
<g id="Node000024" class="node">
<title>Node24</title>
<g id="a_Node000024"><a xlink:href="class_properties_panel.html#ac2741a5b2cb859b07534b8f7c786359b" target="_top" xlink:title=" ">
<polygon fill="white" stroke="#666666" points="697,-406.33 523.5,-406.33 523.5,-374.33 697,-374.33 697,-406.33"/>
<text xml:space="preserve" text-anchor="start" x="531.5" y="-392.83" font-family="Helvetica,sans-Serif" font-size="10.00">PropertiesPanel::handleRelationship</text>
<text xml:space="preserve" text-anchor="middle" x="610.25" y="-380.83" font-family="Helvetica,sans-Serif" font-size="10.00">EndParticipationChange</text>
</a>
</g>
</g>
<!-- Node21&#45;&gt;Node24 -->
<g id="edge40_Node000021_Node000024" class="edge">
<title>Node21&#45;&gt;Node24</title>
<g id="a_edge40_Node000021_Node000024"><a xlink:title=" ">
<path fill="none" stroke="#63b8ff" d="M736.95,-362.47C720.24,-366.18 702.44,-370.12 685.65,-373.84"/>
<polygon fill="#63b8ff" stroke="#63b8ff" points="737.28,-365.98 746.28,-360.4 735.76,-359.15 737.28,-365.98"/>
</a>
</g>
</g>
<!-- Node22&#45;&gt;Node10 -->
<g id="edge35_Node000022_Node000010" class="edge">
<title>Node22&#45;&gt;Node10</title>
<g id="a_edge35_Node000022_Node000010"><a xlink:title=" ">
<path fill="none" stroke="#63b8ff" d="M573.85,-237C557.66,-248.18 538.74,-262.44 523.5,-277.33 484.12,-315.81 447,-369.64 429.64,-396.2"/>
<polygon fill="#63b8ff" stroke="#63b8ff" points="575.44,-240.15 581.76,-231.64 571.52,-234.35 575.44,-240.15"/>
</a>
</g>
</g>
<!-- Node22&#45;&gt;Node12 -->
<g id="edge36_Node000022_Node000012" class="edge">
<title>Node22&#45;&gt;Node12</title>
<g id="a_edge36_Node000022_Node000012"><a xlink:title=" ">
<path fill="none" stroke="#63b8ff" d="M527.15,-233.36C513.14,-236.61 498.76,-239.94 485.24,-243.07"/>
<polygon fill="#63b8ff" stroke="#63b8ff" points="527.85,-236.79 536.8,-231.12 526.27,-229.97 527.85,-236.79"/>
</a>
</g>
</g>
<!-- Node22&#45;&gt;Node18 -->
<g id="edge37_Node000022_Node000018" class="edge">
<title>Node22&#45;&gt;Node18</title>
<g id="a_edge37_Node000022_Node000018"><a xlink:title=" ">
<path fill="none" stroke="#63b8ff" d="M573.77,-191.91C536.46,-168.33 478.65,-131.79 445.37,-110.76"/>
<polygon fill="#63b8ff" stroke="#63b8ff" points="571.64,-194.71 581.97,-197.09 575.38,-188.79 571.64,-194.71"/>
</a>
</g>
</g>
<!-- Node23&#45;&gt;Node12 -->
<g id="edge39_Node000023_Node000012" class="edge">
<title>Node23&#45;&gt;Node12</title>
<g id="a_edge39_Node000023_Node000012"><a xlink:title=" ">
<path fill="none" stroke="#63b8ff" d="M527.15,-283.31C513.14,-280.06 498.76,-276.73 485.24,-273.6"/>
<polygon fill="#63b8ff" stroke="#63b8ff" points="526.27,-286.7 536.8,-285.55 527.85,-279.88 526.27,-286.7"/>
</a>
</g>
</g>
<!-- Node24&#45;&gt;Node10 -->
<g id="edge41_Node000024_Node000010" class="edge">
<title>Node24&#45;&gt;Node10</title>
<g id="a_edge41_Node000024_Node000010"><a xlink:title=" ">
<path fill="none" stroke="#63b8ff" d="M511.99,-401.6C502.44,-402.71 492.91,-403.81 483.81,-404.87"/>
<polygon fill="#63b8ff" stroke="#63b8ff" points="512.17,-405.11 521.7,-400.48 511.36,-398.15 512.17,-405.11"/>
</a>
</g>
</g>
<!-- Node26 -->
<g id="Node000026" class="node">
<title>Node26</title>
<g id="a_Node000026"><a xlink:href="class_property_command.html#ae105e0a173a3d4c69a9a6ba6582b644b" target="_top" xlink:title=" ">
<polygon fill="white" stroke="#666666" points="887.38,-249.33 734.12,-249.33 734.12,-217.33 887.38,-217.33 887.38,-249.33"/>
<text xml:space="preserve" text-anchor="start" x="742.12" y="-235.83" font-family="Helvetica,sans-Serif" font-size="10.00">PropertyCommand::setElement</text>
<text xml:space="preserve" text-anchor="middle" x="810.75" y="-223.83" font-family="Helvetica,sans-Serif" font-size="10.00">Property</text>
</a>
</g>
</g>
<!-- Node25&#45;&gt;Node26 -->
<g id="edge49_Node000025_Node000026" class="edge">
<title>Node25&#45;&gt;Node26</title>
<g id="a_edge49_Node000025_Node000026"><a xlink:title=" ">
<path fill="none" stroke="#63b8ff" d="M1624.34,-554.69C1581.59,-490.37 1458.59,-327.33 1310.12,-327.33 1310.12,-327.33 1310.12,-327.33 1144.38,-327.33 1031.56,-327.33 905.05,-276.64 845.81,-249.71"/>
<polygon fill="#63b8ff" stroke="#63b8ff" points="1621.27,-556.4 1629.67,-562.86 1627.14,-552.57 1621.27,-556.4"/>
</a>
</g>
</g>
<!-- Node26&#45;&gt;Node10 -->
<g id="edge51_Node000026_Node000010" class="edge">
<title>Node26&#45;&gt;Node10</title>
<g id="a_edge51_Node000026_Node000010"><a xlink:title=" ">
<path fill="none" stroke="#63b8ff" d="M787.31,-257.79C766.11,-279.37 732.36,-310.02 697,-327.33 626.1,-362.05 598.44,-340.52 523.5,-365.33 498.46,-373.63 471.33,-385.99 451.05,-395.95"/>
<polygon fill="#63b8ff" stroke="#63b8ff" points="789.6,-260.45 794.01,-250.81 784.56,-255.59 789.6,-260.45"/>
</a>
</g>
</g>
<!-- Node26&#45;&gt;Node12 -->
<g id="edge52_Node000026_Node000012" class="edge">
<title>Node26&#45;&gt;Node12</title>
<g id="a_edge52_Node000026_Node000012"><a xlink:title=" ">
<path fill="none" stroke="#63b8ff" d="M766.86,-212.25C746.27,-203.27 720.92,-193.84 697,-189.33 621.22,-175.07 597.33,-167.09 523.5,-189.33 489.45,-199.59 456.29,-225.03 436.86,-241.98"/>
<polygon fill="#63b8ff" stroke="#63b8ff" points="765.23,-215.35 775.78,-216.26 768.1,-208.97 765.23,-215.35"/>
</a>
</g>
</g>
<!-- Node26&#45;&gt;Node16 -->
<g id="edge53_Node000026_Node000016" class="edge">
<title>Node26&#45;&gt;Node16</title>
<g id="a_edge53_Node000026_Node000016"><a xlink:title=" ">
<path fill="none" stroke="#63b8ff" d="M784.12,-257.86C767.8,-274.56 747.15,-297.81 733,-321.33 709.94,-359.67 724.13,-379.76 697,-415.33 682.21,-434.72 659.88,-450.87 641.71,-461.96"/>
<polygon fill="#63b8ff" stroke="#63b8ff" points="786.54,-260.39 791.13,-250.84 781.59,-255.44 786.54,-260.39"/>
</a>
</g>
</g>
<!-- Node26&#45;&gt;Node18 -->
<g id="edge54_Node000026_Node000018" class="edge">
<title>Node26&#45;&gt;Node18</title>
<g id="a_edge54_Node000026_Node000018"><a xlink:title=" ">
<path fill="none" stroke="#63b8ff" d="M793.19,-207.86C773.78,-180.44 738.89,-138.09 697,-118.33 630.93,-87.17 546.21,-84.42 487.83,-87.41"/>
<polygon fill="#63b8ff" stroke="#63b8ff" points="790.21,-209.71 798.76,-215.97 795.98,-205.75 790.21,-209.71"/>
</a>
</g>
</g>
<!-- Node26&#45;&gt;Node22 -->
<g id="edge50_Node000026_Node000022" class="edge">
<title>Node26&#45;&gt;Node22</title>
<g id="a_edge50_Node000026_Node000022"><a xlink:title=" ">
<path fill="none" stroke="#63b8ff" d="M722.66,-225C711.37,-223.92 699.87,-222.82 688.75,-221.75"/>
<polygon fill="#63b8ff" stroke="#63b8ff" points="722.06,-228.46 732.35,-225.93 722.73,-221.49 722.06,-228.46"/>
</a>
</g>
</g>
</g>
</svg>
