<?xml version="1.0" encoding="UTF-8" standalone="no"?>
<!DOCTYPE svg PUBLIC "-//W3C//DTD SVG 1.1//EN"
 "http://www.w3.org/Graphics/SVG/1.1/DTD/svg11.dtd">
<!-- Generated by graphviz version 14.1.1 (20251213.1925)
 -->
<!-- Title: Relationship::serialize Pages: 1 -->
<svg width="294pt" height="78pt"
 viewBox="0.00 0.00 294.00 78.00" xmlns="http://www.w3.org/2000/svg" xmlns:xlink="http://www.w3.org/1999/xlink">
<g id="graph0" class="graph" transform="scale(1 1) rotate(0) translate(4 74)">
<title>Relationship::serialize</title>
<!-- Node1 -->
<g id="Node000001" class="node">
<title>Node1</title>
<g id="a_Node000001"><a xlink:title=" ">
<polygon fill="#999999" stroke="#666666" points="112,-42 0,-42 0,-22 112,-22 112,-42"/>
<text xml:space="preserve" text-anchor="middle" x="56" y="-28.5" font-family="Helvetica,sans-Serif" font-size="10.00">Relationship::serialize</text>
</a>
</g>
</g>
<!-- Node2 -->
<g id="Node000002" class="node">
<title>Node2</title>
<g id="a_Node000002"><a xlink:href="class_relationship_end.html#ade5e4b523e171a836a92049c9d8dd473" target="_top" xlink:title=" ">
<polygon fill="white" stroke="#666666" points="285.5,-70 148,-70 148,-38 285.5,-38 285.5,-70"/>
<text xml:space="preserve" text-anchor="start" x="156" y="-56.5" font-family="Helvetica,sans-Serif" font-size="10.00">RelationshipEnd::cardinality</text>
<text xml:space="preserve" text-anchor="middle" x="216.75" y="-44.5" font-family="Helvetica,sans-Serif" font-size="10.00">ToString</text>
</a>
</g>
</g>
<!-- Node1&#45;&gt;Node2 -->
<g id="edge1_Node000001_Node000002" class="edge">
<title>Node1&#45;&gt;Node2</title>
<g id="a_edge1_Node000001_Node000002"><a xlink:title=" ">
<path fill="none" stroke="#63b8ff" d="M112.08,-39.63C119.96,-40.72 128.19,-41.87 136.43,-43.01"/>
<polygon fill="#63b8ff" stroke="#63b8ff" points="135.73,-46.44 146.12,-44.35 136.7,-39.51 135.73,-46.44"/>
</a>
</g>
</g>
<!-- Node3 -->
<g id="Node000003" class="node">
<title>Node3</title>
<g id="a_Node000003"><a xlink:href="class_basic_element.html#a56f5f9a22723d2a99d87c7508b0bec7f" target="_top" xlink:title=" ">
<polygon fill="white" stroke="#666666" points="276.12,-20 157.38,-20 157.38,0 276.12,0 276.12,-20"/>
<text xml:space="preserve" text-anchor="middle" x="216.75" y="-6.5" font-family="Helvetica,sans-Serif" font-size="10.00">BasicElement::serialize</text>
</a>
</g>
</g>
<!-- Node1&#45;&gt;Node3 -->
<g id="edge2_Node000001_Node000003" class="edge">
<title>Node1&#45;&gt;Node3</title>
<g id="a_edge2_Node000001_Node000003"><a xlink:title=" ">
<path fill="none" stroke="#63b8ff" d="M112.08,-24.37C122.96,-22.86 134.51,-21.26 145.81,-19.69"/>
<polygon fill="#63b8ff" stroke="#63b8ff" points="146.06,-23.19 155.49,-18.35 145.1,-16.26 146.06,-23.19"/>
</a>
</g>
</g>
</g>
</svg>
