<?xml version="1.0" encoding="UTF-8" standalone="no"?>
<!DOCTYPE svg PUBLIC "-//W3C//DTD SVG 1.1//EN"
 "http://www.w3.org/Graphics/SVG/1.1/DTD/svg11.dtd">
<!-- Generated by graphviz version 14.1.1 (20251213.1925)
 -->
<!-- Title: Attribute::Attribute Pages: 1 -->
<svg width="1166pt" height="230pt"
 viewBox="0.00 0.00 1166.00 230.00" xmlns="http://www.w3.org/2000/svg" xmlns:xlink="http://www.w3.org/1999/xlink">
<g id="graph0" class="graph" transform="scale(1 1) rotate(0) translate(4 226)">
<title>Attribute::Attribute</title>
<!-- Node1 -->
<g id="Node000001" class="node">
<title>Node1</title>
<g id="a_Node000001"><a xlink:title=" ">
<polygon fill="#999999" stroke="#666666" points="95.5,-122 0,-122 0,-102 95.5,-102 95.5,-122"/>
<text xml:space="preserve" text-anchor="middle" x="47.75" y="-108.5" font-family="Helvetica,sans-Serif" font-size="10.00">Attribute::Attribute</text>
</a>
</g>
</g>
<!-- Node2 -->
<g id="Node000002" class="node">
<title>Node2</title>
<g id="a_Node000002"><a xlink:href="class_attribute.html#a119bae8069ee45c1e48122a79ea4b29e" target="_top" xlink:title=" ">
<polygon fill="white" stroke="#666666" points="227,-94 131.5,-94 131.5,-74 227,-74 227,-94"/>
<text xml:space="preserve" text-anchor="middle" x="179.25" y="-80.5" font-family="Helvetica,sans-Serif" font-size="10.00">Attribute::Attribute</text>
</a>
</g>
</g>
<!-- Node1&#45;&gt;Node2 -->
<g id="edge1_Node000001_Node000002" class="edge">
<title>Node1&#45;&gt;Node2</title>
<g id="a_edge1_Node000001_Node000002"><a xlink:title=" ">
<path fill="none" stroke="#63b8ff" d="M95.87,-101.81C103.82,-100.09 112.16,-98.29 120.35,-96.52"/>
<polygon fill="#63b8ff" stroke="#63b8ff" points="120.87,-99.99 129.9,-94.45 119.39,-93.15 120.87,-99.99"/>
</a>
</g>
</g>
<!-- Node3 -->
<g id="Node000003" class="node">
<title>Node3</title>
<g id="a_Node000003"><a xlink:href="class_basic_element.html#a85cccd7db0e46e4e2b646365cd6c66a9" target="_top" xlink:title=" ">
<polygon fill="white" stroke="#666666" points="406.5,-144 263,-144 263,-124 406.5,-124 406.5,-144"/>
<text xml:space="preserve" text-anchor="middle" x="334.75" y="-130.5" font-family="Helvetica,sans-Serif" font-size="10.00">BasicElement::BasicElement</text>
</a>
</g>
</g>
<!-- Node1&#45;&gt;Node3 -->
<g id="edge15_Node000001_Node000003" class="edge">
<title>Node1&#45;&gt;Node3</title>
<g id="a_edge15_Node000001_Node000003"><a xlink:title=" ">
<path fill="none" stroke="#63b8ff" d="M95.98,-117.5C107.58,-118.75 119.98,-120 131.5,-121 170.89,-124.41 214.67,-127.33 251.4,-129.53"/>
<polygon fill="#63b8ff" stroke="#63b8ff" points="250.86,-133.01 261.05,-130.1 251.27,-126.02 250.86,-133.01"/>
</a>
</g>
</g>
<!-- Node2&#45;&gt;Node2 -->
<g id="edge2_Node000002_Node000002" class="edge">
<title>Node2&#45;&gt;Node2</title>
<g id="a_edge2_Node000002_Node000002"><a xlink:title=" ">
<path fill="none" stroke="#63b8ff" d="M158.36,-94.34C149.43,-102.98 156.39,-112 179.25,-112 191.75,-112 199.5,-109.3 202.49,-105.44"/>
<polygon fill="#63b8ff" stroke="#63b8ff" points="205.95,-104.88 200.46,-95.82 199.1,-106.33 205.95,-104.88"/>
</a>
</g>
</g>
<!-- Node2&#45;&gt;Node3 -->
<g id="edge3_Node000002_Node000003" class="edge">
<title>Node2&#45;&gt;Node3</title>
<g id="a_edge3_Node000002_Node000003"><a xlink:title=" ">
<path fill="none" stroke="#63b8ff" d="M212.43,-94.48C235.15,-101.88 265.84,-111.88 290.67,-119.97"/>
<polygon fill="#63b8ff" stroke="#63b8ff" points="289.58,-123.29 300.17,-123.06 291.75,-116.64 289.58,-123.29"/>
</a>
</g>
</g>
<!-- Node10 -->
<g id="Node000010" class="node">
<title>Node10</title>
<g id="a_Node000010"><a xlink:href="class_attribute.html#a9fbfd8cb51abe1f5b3e85333eb3ba55a" target="_top" xlink:title=" ">
<polygon fill="white" stroke="#666666" points="393,-96 276.5,-96 276.5,-76 393,-76 393,-96"/>
<text xml:space="preserve" text-anchor="middle" x="334.75" y="-82.5" font-family="Helvetica,sans-Serif" font-size="10.00">Attribute::preferredSize</text>
</a>
</g>
</g>
<!-- Node2&#45;&gt;Node10 -->
<g id="edge10_Node000002_Node000010" class="edge">
<title>Node2&#45;&gt;Node10</title>
<g id="a_edge10_Node000002_Node000010"><a xlink:title=" ">
<path fill="none" stroke="#63b8ff" d="M227.14,-84.61C238.95,-84.76 251.88,-84.93 264.54,-85.1"/>
<polygon fill="#63b8ff" stroke="#63b8ff" points="264.48,-88.6 274.53,-85.23 264.58,-81.6 264.48,-88.6"/>
</a>
</g>
</g>
<!-- Node11 -->
<g id="Node000011" class="node">
<title>Node11</title>
<g id="a_Node000011"><a xlink:href="class_basic_element.html#ab86c964c6ef9e8d7299efc263a0837e7" target="_top" xlink:title=" ">
<polygon fill="white" stroke="#666666" points="392.62,-58 276.88,-58 276.88,-38 392.62,-38 392.62,-58"/>
<text xml:space="preserve" text-anchor="middle" x="334.75" y="-44.5" font-family="Helvetica,sans-Serif" font-size="10.00">BasicElement::setSize</text>
</a>
</g>
</g>
<!-- Node2&#45;&gt;Node11 -->
<g id="edge11_Node000002_Node000011" class="edge">
<title>Node2&#45;&gt;Node11</title>
<g id="a_edge11_Node000002_Node000011"><a xlink:title=" ">
<path fill="none" stroke="#63b8ff" d="M224.65,-73.59C241.36,-69.67 260.58,-65.16 278.18,-61.03"/>
<polygon fill="#63b8ff" stroke="#63b8ff" points="278.78,-64.49 287.71,-58.8 277.18,-57.67 278.78,-64.49"/>
</a>
</g>
</g>
<!-- Node4 -->
<g id="Node000004" class="node">
<title>Node4</title>
<g id="a_Node000004"><a xlink:href="class_basic_element.html#a78e2ce29aa5b2a9fae74cf435996ce8b" target="_top" xlink:title=" ">
<polygon fill="white" stroke="#666666" points="590.5,-197 446.25,-197 446.25,-165 590.5,-165 590.5,-197"/>
<text xml:space="preserve" text-anchor="start" x="454.25" y="-183.5" font-family="Helvetica,sans-Serif" font-size="10.00">BasicElement::createAndAdd</text>
<text xml:space="preserve" text-anchor="middle" x="518.38" y="-171.5" font-family="Helvetica,sans-Serif" font-size="10.00">DefaultConnectionPoints</text>
</a>
</g>
</g>
<!-- Node3&#45;&gt;Node4 -->
<g id="edge4_Node000003_Node000004" class="edge">
<title>Node3&#45;&gt;Node4</title>
<g id="a_edge4_Node000003_Node000004"><a xlink:title=" ">
<path fill="none" stroke="#63b8ff" d="M376.06,-144.43C395.64,-149.5 419.81,-155.75 442.59,-161.65"/>
<polygon fill="#63b8ff" stroke="#63b8ff" points="441.61,-165.01 452.17,-164.13 443.37,-158.23 441.61,-165.01"/>
</a>
</g>
</g>
<!-- Node9 -->
<g id="Node000009" class="node">
<title>Node9</title>
<g id="a_Node000009"><a xlink:href="class_basic_element.html#a01a6511d922708fe0042474740109152" target="_top" xlink:title=" ">
<polygon fill="white" stroke="#666666" points="587.5,-147 449.25,-147 449.25,-115 587.5,-115 587.5,-147"/>
<text xml:space="preserve" text-anchor="start" x="457.25" y="-133.5" font-family="Helvetica,sans-Serif" font-size="10.00">BasicElement::elementType</text>
<text xml:space="preserve" text-anchor="middle" x="518.38" y="-121.5" font-family="Helvetica,sans-Serif" font-size="10.00">ToString</text>
</a>
</g>
</g>
<!-- Node3&#45;&gt;Node9 -->
<g id="edge9_Node000003_Node000009" class="edge">
<title>Node3&#45;&gt;Node9</title>
<g id="a_edge9_Node000003_Node000009"><a xlink:title=" ">
<path fill="none" stroke="#63b8ff" d="M406.75,-132.83C416.8,-132.66 427.19,-132.49 437.39,-132.32"/>
<polygon fill="#63b8ff" stroke="#63b8ff" points="437.35,-135.82 447.29,-132.16 437.23,-128.82 437.35,-135.82"/>
</a>
</g>
</g>
<!-- Node5 -->
<g id="Node000005" class="node">
<title>Node5</title>
<g id="a_Node000005"><a xlink:href="class_basic_element.html#a0357bfa9b1ef06dd1c9d64bcb00813f4" target="_top" xlink:title=" ">
<polygon fill="white" stroke="#666666" points="780.5,-222 632.5,-222 632.5,-190 780.5,-190 780.5,-222"/>
<text xml:space="preserve" text-anchor="start" x="640.5" y="-208.5" font-family="Helvetica,sans-Serif" font-size="10.00">BasicElement::addConnection</text>
<text xml:space="preserve" text-anchor="middle" x="706.5" y="-196.5" font-family="Helvetica,sans-Serif" font-size="10.00">Point</text>
</a>
</g>
</g>
<!-- Node4&#45;&gt;Node5 -->
<g id="edge5_Node000004_Node000005" class="edge">
<title>Node4&#45;&gt;Node5</title>
<g id="a_edge5_Node000004_Node000005"><a xlink:title=" ">
<path fill="none" stroke="#63b8ff" d="M590.8,-190.59C600.64,-191.91 610.81,-193.28 620.85,-194.63"/>
<polygon fill="#63b8ff" stroke="#63b8ff" points="620.23,-198.08 630.61,-195.94 621.16,-191.14 620.23,-198.08"/>
</a>
</g>
</g>
<!-- Node6 -->
<g id="Node000006" class="node">
<title>Node6</title>
<g id="a_Node000006"><a xlink:href="class_connection_point.html#a828996f0bb02e9154b5d3af03f1734b8" target="_top" xlink:title=" ">
<polygon fill="white" stroke="#666666" points="782.75,-172 630.25,-172 630.25,-140 782.75,-140 782.75,-172"/>
<text xml:space="preserve" text-anchor="start" x="638.25" y="-158.5" font-family="Helvetica,sans-Serif" font-size="10.00">ConnectionPoint::createDefault</text>
<text xml:space="preserve" text-anchor="middle" x="706.5" y="-146.5" font-family="Helvetica,sans-Serif" font-size="10.00">ConnectionPoints</text>
</a>
</g>
</g>
<!-- Node4&#45;&gt;Node6 -->
<g id="edge6_Node000004_Node000006" class="edge">
<title>Node4&#45;&gt;Node6</title>
<g id="a_edge6_Node000004_Node000006"><a xlink:title=" ">
<path fill="none" stroke="#63b8ff" d="M590.8,-171.41C599.91,-170.18 609.32,-168.92 618.64,-167.67"/>
<polygon fill="#63b8ff" stroke="#63b8ff" points="618.99,-171.15 628.44,-166.35 618.06,-164.21 618.99,-171.15"/>
</a>
</g>
</g>
<!-- Node7 -->
<g id="Node000007" class="node">
<title>Node7</title>
<g id="a_Node000007"><a xlink:href="class_connection_point.html#a0bca0b4cf605278cb17d8052dc027932" target="_top" xlink:title=" ">
<polygon fill="white" stroke="#666666" points="978,-172 818.75,-172 818.75,-140 978,-140 978,-172"/>
<text xml:space="preserve" text-anchor="start" x="826.75" y="-158.5" font-family="Helvetica,sans-Serif" font-size="10.00">ConnectionPoint::addConnection</text>
<text xml:space="preserve" text-anchor="middle" x="898.38" y="-146.5" font-family="Helvetica,sans-Serif" font-size="10.00">Point</text>
</a>
</g>
</g>
<!-- Node6&#45;&gt;Node7 -->
<g id="edge7_Node000006_Node000007" class="edge">
<title>Node6&#45;&gt;Node7</title>
<g id="a_edge7_Node000006_Node000007"><a xlink:title=" ">
<path fill="none" stroke="#63b8ff" d="M783.09,-156C790.96,-156 799.02,-156 807.03,-156"/>
<polygon fill="#63b8ff" stroke="#63b8ff" points="806.8,-159.5 816.8,-156 806.8,-152.5 806.8,-159.5"/>
</a>
</g>
</g>
<!-- Node8 -->
<g id="Node000008" class="node">
<title>Node8</title>
<g id="a_Node000008"><a xlink:href="class_connection_point.html#ac498b99d7f91805fea3eab19f2e8b260" target="_top" xlink:title=" ">
<polygon fill="white" stroke="#666666" points="1157.5,-172 1014,-172 1014,-140 1157.5,-140 1157.5,-172"/>
<text xml:space="preserve" text-anchor="start" x="1022" y="-158.5" font-family="Helvetica,sans-Serif" font-size="10.00">ConnectionPoint::Connection</text>
<text xml:space="preserve" text-anchor="middle" x="1085.75" y="-146.5" font-family="Helvetica,sans-Serif" font-size="10.00">Point</text>
</a>
</g>
</g>
<!-- Node7&#45;&gt;Node8 -->
<g id="edge8_Node000007_Node000008" class="edge">
<title>Node7&#45;&gt;Node8</title>
<g id="a_edge8_Node000007_Node000008"><a xlink:title=" ">
<path fill="none" stroke="#63b8ff" d="M978.26,-156C986.14,-156 994.15,-156 1002.07,-156"/>
<polygon fill="#63b8ff" stroke="#63b8ff" points="1002.06,-159.5 1012.06,-156 1002.06,-152.5 1002.06,-159.5"/>
</a>
</g>
</g>
<!-- Node12 -->
<g id="Node000012" class="node">
<title>Node12</title>
<g id="a_Node000012"><a xlink:href="class_basic_element.html#a2cb2eb803daa35380908948215f8d468" target="_top" xlink:title=" ">
<polygon fill="white" stroke="#666666" points="589.38,-96 447.38,-96 447.38,-76 589.38,-76 589.38,-96"/>
<text xml:space="preserve" text-anchor="middle" x="518.38" y="-82.5" font-family="Helvetica,sans-Serif" font-size="10.00">BasicElement::minimumSize</text>
</a>
</g>
</g>
<!-- Node11&#45;&gt;Node12 -->
<g id="edge12_Node000011_Node000012" class="edge">
<title>Node11&#45;&gt;Node12</title>
<g id="a_edge12_Node000011_Node000012"><a xlink:title=" ">
<path fill="none" stroke="#63b8ff" d="M385.86,-58.48C407.7,-63.05 433.49,-68.45 456.43,-73.25"/>
<polygon fill="#63b8ff" stroke="#63b8ff" points="455.44,-76.62 465.95,-75.24 456.88,-69.77 455.44,-76.62"/>
</a>
</g>
</g>
<!-- Node13 -->
<g id="Node000013" class="node">
<title>Node13</title>
<g id="a_Node000013"><a xlink:href="class_basic_element.html#a596caee40cdd00a0aacce49689b63f92" target="_top" xlink:title=" ">
<polygon fill="white" stroke="#666666" points="594.25,-58 442.5,-58 442.5,-38 594.25,-38 594.25,-58"/>
<text xml:space="preserve" text-anchor="middle" x="518.38" y="-44.5" font-family="Helvetica,sans-Serif" font-size="10.00">BasicElement::notifyObservers</text>
</a>
</g>
</g>
<!-- Node11&#45;&gt;Node13 -->
<g id="edge13_Node000011_Node000013" class="edge">
<title>Node11&#45;&gt;Node13</title>
<g id="a_edge13_Node000011_Node000013"><a xlink:title=" ">
<path fill="none" stroke="#63b8ff" d="M392.72,-48C404.87,-48 417.96,-48 430.94,-48"/>
<polygon fill="#63b8ff" stroke="#63b8ff" points="430.77,-51.5 440.77,-48 430.77,-44.5 430.77,-51.5"/>
</a>
</g>
</g>
<!-- Node14 -->
<g id="Node000014" class="node">
<title>Node14</title>
<g id="a_Node000014"><a xlink:href="class_basic_element.html#a542adbf85a58c5c9bf17975964d7e446" target="_top" xlink:title=" ">
<polygon fill="white" stroke="#666666" points="568.75,-20 468,-20 468,0 568.75,0 568.75,-20"/>
<text xml:space="preserve" text-anchor="middle" x="518.38" y="-6.5" font-family="Helvetica,sans-Serif" font-size="10.00">BasicElement::size</text>
</a>
</g>
</g>
<!-- Node11&#45;&gt;Node14 -->
<g id="edge14_Node000011_Node000014" class="edge">
<title>Node11&#45;&gt;Node14</title>
<g id="a_edge14_Node000011_Node000014"><a xlink:title=" ">
<path fill="none" stroke="#63b8ff" d="M385.86,-37.52C407.79,-32.93 433.71,-27.51 456.71,-22.69"/>
<polygon fill="#63b8ff" stroke="#63b8ff" points="457.19,-26.17 466.26,-20.69 455.76,-19.32 457.19,-26.17"/>
</a>
</g>
</g>
</g>
</svg>
