<?xml version="1.0" encoding="UTF-8" standalone="no"?>
<!DOCTYPE svg PUBLIC "-//W3C//DTD SVG 1.1//EN"
 "http://www.w3.org/Graphics/SVG/1.1/DTD/svg11.dtd">
<!-- Generated by graphviz version 14.1.1 (20251213.1925)
 -->
<!-- Title: DiagramScene::mouseReleaseEvent Pages: 1 -->
<svg width="964pt" height="358pt"
 viewBox="0.00 0.00 964.00 358.00" xmlns="http://www.w3.org/2000/svg" xmlns:xlink="http://www.w3.org/1999/xlink">
<g id="graph0" class="graph" transform="scale(1 1) rotate(0) translate(4 354)">
<title>DiagramScene::mouseReleaseEvent</title>
<!-- Node1 -->
<g id="Node000001" class="node">
<title>Node1</title>
<g id="a_Node000001"><a xlink:title=" ">
<polygon fill="#999999" stroke="#666666" points="151.75,-237 0,-237 0,-205 151.75,-205 151.75,-237"/>
<text xml:space="preserve" text-anchor="start" x="8" y="-223.5" font-family="Helvetica,sans-Serif" font-size="10.00">DiagramScene::mouseRelease</text>
<text xml:space="preserve" text-anchor="middle" x="75.88" y="-211.5" font-family="Helvetica,sans-Serif" font-size="10.00">Event</text>
</a>
</g>
</g>
<!-- Node2 -->
<g id="Node000002" class="node">
<title>Node2</title>
<g id="a_Node000002"><a xlink:href="class_diagram_scene.html#ad46a8dc374895fd670f50f30f2c2acbd" target="_top" xlink:title=" ">
<polygon fill="white" stroke="#666666" points="359,-231 187.75,-231 187.75,-211 359,-211 359,-231"/>
<text xml:space="preserve" text-anchor="middle" x="273.38" y="-217.5" font-family="Helvetica,sans-Serif" font-size="10.00">DiagramScene::finishSelectionRect</text>
</a>
</g>
</g>
<!-- Node1&#45;&gt;Node2 -->
<g id="edge1_Node000001_Node000002" class="edge">
<title>Node1&#45;&gt;Node2</title>
<g id="a_edge1_Node000001_Node000002"><a xlink:title=" ">
<path fill="none" stroke="#63b8ff" d="M152.18,-221C160,-221 168.03,-221 176.04,-221"/>
<polygon fill="#63b8ff" stroke="#63b8ff" points="175.83,-224.5 185.83,-221 175.83,-217.5 175.83,-224.5"/>
</a>
</g>
</g>
<!-- Node3 -->
<g id="Node000003" class="node">
<title>Node3</title>
<g id="a_Node000003"><a xlink:href="class_connection_graphics_item.html#a639f7d483dce705302df25100eeb92bd" target="_top" xlink:title=" ">
<polygon fill="white" stroke="#666666" points="547.12,-350 423.12,-350 423.12,-318 547.12,-318 547.12,-350"/>
<text xml:space="preserve" text-anchor="start" x="431.12" y="-336.5" font-family="Helvetica,sans-Serif" font-size="10.00">ConnectionGraphicsItem</text>
<text xml:space="preserve" text-anchor="middle" x="485.12" y="-324.5" font-family="Helvetica,sans-Serif" font-size="10.00">::boundingRect</text>
</a>
</g>
</g>
<!-- Node2&#45;&gt;Node3 -->
<g id="edge2_Node000002_Node000003" class="edge">
<title>Node2&#45;&gt;Node3</title>
<g id="a_edge2_Node000002_Node000003"><a xlink:title=" ">
<path fill="none" stroke="#63b8ff" d="M285.46,-231.24C305.71,-249.44 350.69,-287.49 395,-309 400.42,-311.63 406.17,-314.03 412.03,-316.2"/>
<polygon fill="#63b8ff" stroke="#63b8ff" points="410.62,-319.42 421.22,-319.38 412.91,-312.81 410.62,-319.42"/>
</a>
</g>
</g>
<!-- Node4 -->
<g id="Node000004" class="node">
<title>Node4</title>
<g id="a_Node000004"><a xlink:href="class_element_graphics_item.html#a8738b5a561b8bf3ac32fcd0c728e36b4" target="_top" xlink:title=" ">
<polygon fill="white" stroke="#666666" points="540.38,-300 429.88,-300 429.88,-268 540.38,-268 540.38,-300"/>
<text xml:space="preserve" text-anchor="start" x="437.88" y="-286.5" font-family="Helvetica,sans-Serif" font-size="10.00">ElementGraphicsItem</text>
<text xml:space="preserve" text-anchor="middle" x="485.12" y="-274.5" font-family="Helvetica,sans-Serif" font-size="10.00">::boundingRect</text>
</a>
</g>
</g>
<!-- Node2&#45;&gt;Node4 -->
<g id="edge3_Node000002_Node000004" class="edge">
<title>Node2&#45;&gt;Node4</title>
<g id="a_edge3_Node000002_Node000004"><a xlink:title=" ">
<path fill="none" stroke="#63b8ff" d="M306.54,-231.44C330.8,-239.23 364.91,-250.04 395,-259 402.73,-261.3 410.85,-263.66 418.92,-265.97"/>
<polygon fill="#63b8ff" stroke="#63b8ff" points="417.81,-269.29 428.39,-268.66 419.73,-262.56 417.81,-269.29"/>
</a>
</g>
</g>
<!-- Node5 -->
<g id="Node000005" class="node">
<title>Node5</title>
<g id="a_Node000005"><a xlink:href="class_diagram_scene.html#aefcfbcad98610038563584daf41c6baf" target="_top" xlink:title=" ">
<polygon fill="white" stroke="#666666" points="575.25,-250 395,-250 395,-230 575.25,-230 575.25,-250"/>
<text xml:space="preserve" text-anchor="middle" x="485.12" y="-236.5" font-family="Helvetica,sans-Serif" font-size="10.00">DiagramScene::destroySelectionRect</text>
</a>
</g>
</g>
<!-- Node2&#45;&gt;Node5 -->
<g id="edge4_Node000002_Node000005" class="edge">
<title>Node2&#45;&gt;Node5</title>
<g id="a_edge4_Node000002_Node000005"><a xlink:title=" ">
<path fill="none" stroke="#63b8ff" d="M359.39,-228.7C367.26,-229.41 375.29,-230.14 383.28,-230.87"/>
<polygon fill="#63b8ff" stroke="#63b8ff" points="382.77,-234.33 393.04,-231.75 383.4,-227.36 382.77,-234.33"/>
</a>
</g>
</g>
<!-- Node6 -->
<g id="Node000006" class="node">
<title>Node6</title>
<g id="a_Node000006"><a xlink:href="class_connection_line.html#aea85162c28f293b1df0cce97d57bb471" target="_top" xlink:title=" ">
<polygon fill="white" stroke="#666666" points="544.12,-212 426.12,-212 426.12,-192 544.12,-192 544.12,-212"/>
<text xml:space="preserve" text-anchor="middle" x="485.12" y="-198.5" font-family="Helvetica,sans-Serif" font-size="10.00">ConnectionLine::isValid</text>
</a>
</g>
</g>
<!-- Node2&#45;&gt;Node6 -->
<g id="edge5_Node000002_Node000006" class="edge">
<title>Node2&#45;&gt;Node6</title>
<g id="a_edge5_Node000002_Node000006"><a xlink:title=" ">
<path fill="none" stroke="#63b8ff" d="M359.39,-213.3C377.64,-211.65 396.74,-209.92 414.34,-208.32"/>
<polygon fill="#63b8ff" stroke="#63b8ff" points="414.51,-211.82 424.16,-207.43 413.88,-204.85 414.51,-211.82"/>
</a>
</g>
</g>
<!-- Node7 -->
<g id="Node000007" class="node">
<title>Node7</title>
<g id="a_Node000007"><a xlink:href="class_diagram_scene.html#a2b55d6646f19908d66e5c5eda455744e" target="_top" xlink:title=" ">
<polygon fill="white" stroke="#666666" points="566.25,-174 404,-174 404,-154 566.25,-154 566.25,-174"/>
<text xml:space="preserve" text-anchor="middle" x="485.12" y="-160.5" font-family="Helvetica,sans-Serif" font-size="10.00">DiagramScene::selectConnection</text>
</a>
</g>
</g>
<!-- Node2&#45;&gt;Node7 -->
<g id="edge6_Node000002_Node000007" class="edge">
<title>Node2&#45;&gt;Node7</title>
<g id="a_edge6_Node000002_Node000007"><a xlink:title=" ">
<path fill="none" stroke="#63b8ff" d="M304.88,-210.51C329.13,-202.38 364,-191.17 395,-183 403.08,-180.87 411.63,-178.81 420.1,-176.88"/>
<polygon fill="#63b8ff" stroke="#63b8ff" points="420.67,-180.34 429.67,-174.76 419.15,-173.51 420.67,-180.34"/>
</a>
</g>
</g>
<!-- Node11 -->
<g id="Node000011" class="node">
<title>Node11</title>
<g id="a_Node000011"><a xlink:href="class_diagram_scene.html#adffd7c14eb320f4e260f6fed731c1809" target="_top" xlink:title=" ">
<polygon fill="white" stroke="#666666" points="559.5,-114 410.75,-114 410.75,-94 559.5,-94 559.5,-114"/>
<text xml:space="preserve" text-anchor="middle" x="485.12" y="-100.5" font-family="Helvetica,sans-Serif" font-size="10.00">DiagramScene::selectElement</text>
</a>
</g>
</g>
<!-- Node2&#45;&gt;Node11 -->
<g id="edge10_Node000002_Node000011" class="edge">
<title>Node2&#45;&gt;Node11</title>
<g id="a_edge10_Node000002_Node000011"><a xlink:title=" ">
<path fill="none" stroke="#63b8ff" d="M289.23,-210.75C311.62,-195.5 355.61,-166.35 395,-145 412.32,-135.61 432.18,-126.34 448.75,-118.99"/>
<polygon fill="#63b8ff" stroke="#63b8ff" points="449.96,-122.28 457.72,-115.07 447.16,-115.87 449.96,-122.28"/>
</a>
</g>
</g>
<!-- Node8 -->
<g id="Node000008" class="node">
<title>Node8</title>
<g id="a_Node000008"><a xlink:href="class_diagram_scene.html#a5f3d68221bac825f2b027d638d25fa49" target="_top" xlink:title=" ">
<polygon fill="white" stroke="#666666" points="763.38,-252 629.62,-252 629.62,-220 763.38,-220 763.38,-252"/>
<text xml:space="preserve" text-anchor="start" x="637.62" y="-238.5" font-family="Helvetica,sans-Serif" font-size="10.00">DiagramScene::connection</text>
<text xml:space="preserve" text-anchor="middle" x="696.5" y="-226.5" font-family="Helvetica,sans-Serif" font-size="10.00">Deselected</text>
</a>
</g>
</g>
<!-- Node7&#45;&gt;Node8 -->
<g id="edge7_Node000007_Node000008" class="edge">
<title>Node7&#45;&gt;Node8</title>
<g id="a_edge7_Node000007_Node000008"><a xlink:title=" ">
<path fill="none" stroke="#63b8ff" d="M551.97,-174.49C560,-176.79 567.93,-179.6 575.25,-183 593.63,-191.55 593.22,-201.73 611.25,-211 614.27,-212.55 617.41,-214.03 620.61,-215.42"/>
<polygon fill="#63b8ff" stroke="#63b8ff" points="619.05,-218.56 629.63,-219.04 621.66,-212.07 619.05,-218.56"/>
</a>
</g>
</g>
<!-- Node9 -->
<g id="Node000009" class="node">
<title>Node9</title>
<g id="a_Node000009"><a xlink:href="class_diagram_scene.html#ac397b05d6318f8b7c9366a8b857ed98c" target="_top" xlink:title=" ">
<polygon fill="white" stroke="#666666" points="763.38,-202 629.62,-202 629.62,-170 763.38,-170 763.38,-202"/>
<text xml:space="preserve" text-anchor="start" x="637.62" y="-188.5" font-family="Helvetica,sans-Serif" font-size="10.00">DiagramScene::connection</text>
<text xml:space="preserve" text-anchor="middle" x="696.5" y="-176.5" font-family="Helvetica,sans-Serif" font-size="10.00">Selected</text>
</a>
</g>
</g>
<!-- Node7&#45;&gt;Node9 -->
<g id="edge8_Node000007_Node000009" class="edge">
<title>Node7&#45;&gt;Node9</title>
<g id="a_edge8_Node000007_Node000009"><a xlink:title=" ">
<path fill="none" stroke="#63b8ff" d="M566.48,-172.44C583.34,-174.22 601.1,-176.08 617.86,-177.84"/>
<polygon fill="#63b8ff" stroke="#63b8ff" points="617.47,-181.32 627.78,-178.88 618.2,-174.36 617.47,-181.32"/>
</a>
</g>
</g>
<!-- Node10 -->
<g id="Node000010" class="node">
<title>Node10</title>
<g id="a_Node000010"><a xlink:href="class_diagram_scene.html#a7dbb09a9acecc803601560e50ad720ea" target="_top" xlink:title=" ">
<polygon fill="white" stroke="#666666" points="778.75,-152 614.25,-152 614.25,-132 778.75,-132 778.75,-152"/>
<text xml:space="preserve" text-anchor="middle" x="696.5" y="-138.5" font-family="Helvetica,sans-Serif" font-size="10.00">DiagramScene::selectionChanged</text>
</a>
</g>
</g>
<!-- Node7&#45;&gt;Node10 -->
<g id="edge9_Node000007_Node000010" class="edge">
<title>Node7&#45;&gt;Node10</title>
<g id="a_edge9_Node000007_Node000010"><a xlink:title=" ">
<path fill="none" stroke="#63b8ff" d="M566.48,-155.56C578.27,-154.32 590.51,-153.03 602.53,-151.77"/>
<polygon fill="#63b8ff" stroke="#63b8ff" points="602.89,-155.25 612.47,-150.72 602.16,-148.29 602.89,-155.25"/>
</a>
</g>
</g>
<!-- Node11&#45;&gt;Node10 -->
<g id="edge16_Node000011_Node000010" class="edge">
<title>Node11&#45;&gt;Node10</title>
<g id="a_edge16_Node000011_Node000010"><a xlink:title=" ">
<path fill="none" stroke="#63b8ff" d="M543.89,-114.48C569.52,-119.14 599.88,-124.65 626.68,-129.51"/>
<polygon fill="#63b8ff" stroke="#63b8ff" points="625.97,-132.94 636.43,-131.28 627.22,-126.05 625.97,-132.94"/>
</a>
</g>
</g>
<!-- Node12 -->
<g id="Node000012" class="node">
<title>Node12</title>
<g id="a_Node000012"><a xlink:href="class_diagram_scene.html#a065ce2ec3d83e05c486ae418eaf6320f" target="_top" xlink:title=" ">
<polygon fill="white" stroke="#666666" points="781.75,-114 611.25,-114 611.25,-94 781.75,-94 781.75,-114"/>
<text xml:space="preserve" text-anchor="middle" x="696.5" y="-100.5" font-family="Helvetica,sans-Serif" font-size="10.00">DiagramScene::elementDeselected</text>
</a>
</g>
</g>
<!-- Node11&#45;&gt;Node12 -->
<g id="edge11_Node000011_Node000012" class="edge">
<title>Node11&#45;&gt;Node12</title>
<g id="a_edge11_Node000011_Node000012"><a xlink:title=" ">
<path fill="none" stroke="#63b8ff" d="M559.94,-104C572.82,-104 586.38,-104 599.75,-104"/>
<polygon fill="#63b8ff" stroke="#63b8ff" points="599.4,-107.5 609.4,-104 599.4,-100.5 599.4,-107.5"/>
</a>
</g>
</g>
<!-- Node13 -->
<g id="Node000013" class="node">
<title>Node13</title>
<g id="a_Node000013"><a xlink:href="class_diagram_scene.html#a15719115f3f2f26120243d71999dcfea" target="_top" xlink:title=" ">
<polygon fill="white" stroke="#666666" points="776.12,-76 616.88,-76 616.88,-56 776.12,-56 776.12,-76"/>
<text xml:space="preserve" text-anchor="middle" x="696.5" y="-62.5" font-family="Helvetica,sans-Serif" font-size="10.00">DiagramScene::elementSelected</text>
</a>
</g>
</g>
<!-- Node11&#45;&gt;Node13 -->
<g id="edge12_Node000011_Node000013" class="edge">
<title>Node11&#45;&gt;Node13</title>
<g id="a_edge12_Node000011_Node000013"><a xlink:title=" ">
<path fill="none" stroke="#63b8ff" d="M543.89,-93.52C569.52,-88.86 599.88,-83.35 626.68,-78.49"/>
<polygon fill="#63b8ff" stroke="#63b8ff" points="627.22,-81.95 636.43,-76.72 625.97,-75.06 627.22,-81.95"/>
</a>
</g>
</g>
<!-- Node14 -->
<g id="Node000014" class="node">
<title>Node14</title>
<g id="a_Node000014"><a xlink:href="class_diagram_scene.html#a45f18c15840085ffda39cfc9229a15ee" target="_top" xlink:title=" ">
<polygon fill="white" stroke="#666666" points="776.88,-20 616.12,-20 616.12,0 776.88,0 776.88,-20"/>
<text xml:space="preserve" text-anchor="middle" x="696.5" y="-6.5" font-family="Helvetica,sans-Serif" font-size="10.00">DiagramScene::findGraphicsItem</text>
</a>
</g>
</g>
<!-- Node11&#45;&gt;Node14 -->
<g id="edge13_Node000011_Node000014" class="edge">
<title>Node11&#45;&gt;Node14</title>
<g id="a_edge13_Node000011_Node000014"><a xlink:title=" ">
<path fill="none" stroke="#63b8ff" d="M508.69,-93.61C533.71,-82.11 575.3,-63.08 611.25,-47 627.56,-39.7 645.7,-31.72 660.96,-25.04"/>
<polygon fill="#63b8ff" stroke="#63b8ff" points="662.34,-28.26 670.11,-21.05 659.54,-21.84 662.34,-28.26"/>
</a>
</g>
</g>
<!-- Node14&#45;&gt;Node14 -->
<g id="edge15_Node000014_Node000014" class="edge">
<title>Node14&#45;&gt;Node14</title>
<g id="a_edge15_Node000014_Node000014"><a xlink:title=" ">
<path fill="none" stroke="#63b8ff" d="M666.25,-20.34C653.32,-28.98 663.41,-38 696.5,-38 715.11,-38 726.45,-35.14 730.5,-31.11"/>
<polygon fill="#63b8ff" stroke="#63b8ff" points="733.84,-30.06 727.25,-21.77 727.23,-32.36 733.84,-30.06"/>
</a>
</g>
</g>
<!-- Node15 -->
<g id="Node000015" class="node">
<title>Node15</title>
<g id="a_Node000015"><a xlink:href="class_diagram_scene.html#a4da4018bb57166e46104700d2847c41d" target="_top" xlink:title=" ">
<polygon fill="white" stroke="#666666" points="956,-20 817.75,-20 817.75,0 956,0 956,-20"/>
<text xml:space="preserve" text-anchor="middle" x="886.88" y="-6.5" font-family="Helvetica,sans-Serif" font-size="10.00">DiagramScene::findElement</text>
</a>
</g>
</g>
<!-- Node14&#45;&gt;Node15 -->
<g id="edge14_Node000014_Node000015" class="edge">
<title>Node14&#45;&gt;Node15</title>
<g id="a_edge14_Node000014_Node000015"><a xlink:title=" ">
<path fill="none" stroke="#63b8ff" d="M777.11,-10C786.61,-10 796.31,-10 805.81,-10"/>
<polygon fill="#63b8ff" stroke="#63b8ff" points="805.76,-13.5 815.76,-10 805.76,-6.5 805.76,-13.5"/>
</a>
</g>
</g>
</g>
</svg>
