<?xml version="1.0" encoding="UTF-8" standalone="no"?>
<!DOCTYPE svg PUBLIC "-//W3C//DTD SVG 1.1//EN"
 "http://www.w3.org/Graphics/SVG/1.1/DTD/svg11.dtd">
<!-- Generated by graphviz version 14.1.1 (20251213.1925)
 -->
<!-- Title: DiagramScene::cancelConnection Pages: 1 -->
<svg width="561pt" height="104pt"
 viewBox="0.00 0.00 561.00 104.00" xmlns="http://www.w3.org/2000/svg" xmlns:xlink="http://www.w3.org/1999/xlink">
<g id="graph0" class="graph" transform="scale(1 1) rotate(0) translate(4 100)">
<title>DiagramScene::cancelConnection</title>
<!-- Node1 -->
<g id="Node000001" class="node">
<title>Node1</title>
<g id="a_Node000001"><a xlink:title=" ">
<polygon fill="#999999" stroke="#666666" points="552.75,-58 388.25,-58 388.25,-38 552.75,-38 552.75,-58"/>
<text xml:space="preserve" text-anchor="middle" x="470.5" y="-44.5" font-family="Helvetica,sans-Serif" font-size="10.00">DiagramScene::cancelConnection</text>
</a>
</g>
</g>
<!-- Node2 -->
<g id="Node000002" class="node">
<title>Node2</title>
<g id="a_Node000002"><a xlink:href="class_diagram_scene.html#a0c02f289dea7872eae24bb2c0f91d5ea" target="_top" xlink:title=" ">
<polygon fill="white" stroke="#666666" points="344.75,-96 200.5,-96 200.5,-76 344.75,-76 344.75,-96"/>
<text xml:space="preserve" text-anchor="middle" x="272.62" y="-82.5" font-family="Helvetica,sans-Serif" font-size="10.00">DiagramScene::clearDiagram</text>
</a>
</g>
</g>
<!-- Node1&#45;&gt;Node2 -->
<g id="edge1_Node000001_Node000002" class="edge">
<title>Node1&#45;&gt;Node2</title>
<g id="a_edge1_Node000001_Node000002"><a xlink:title=" ">
<path fill="none" stroke="#63b8ff" d="M404.26,-60.66C379.34,-65.49 351.23,-70.94 327.49,-75.55"/>
<polygon fill="#63b8ff" stroke="#63b8ff" points="404.82,-64.11 413.97,-58.77 403.49,-57.24 404.82,-64.11"/>
</a>
</g>
</g>
<!-- Node4 -->
<g id="Node000004" class="node">
<title>Node4</title>
<g id="a_Node000004"><a xlink:href="class_diagram_scene.html#a8a3265678249b08f424e17fbfa8d0de5" target="_top" xlink:title=" ">
<polygon fill="white" stroke="#666666" points="352.25,-58 193,-58 193,-38 352.25,-38 352.25,-58"/>
<text xml:space="preserve" text-anchor="middle" x="272.62" y="-44.5" font-family="Helvetica,sans-Serif" font-size="10.00">DiagramScene::finishConnection</text>
</a>
</g>
</g>
<!-- Node1&#45;&gt;Node4 -->
<g id="edge3_Node000001_Node000004" class="edge">
<title>Node1&#45;&gt;Node4</title>
<g id="a_edge3_Node000001_Node000004"><a xlink:title=" ">
<path fill="none" stroke="#63b8ff" d="M376.58,-48C368.57,-48 360.51,-48 352.63,-48"/>
<polygon fill="#63b8ff" stroke="#63b8ff" points="376.34,-51.5 386.34,-48 376.34,-44.5 376.34,-51.5"/>
</a>
</g>
</g>
<!-- Node5 -->
<g id="Node000005" class="node">
<title>Node5</title>
<g id="a_Node000005"><a xlink:href="class_diagram_scene.html#a074e1181353b257a18ea2d243b459a47" target="_top" xlink:title=" ">
<polygon fill="white" stroke="#666666" points="349.25,-20 196,-20 196,0 349.25,0 349.25,-20"/>
<text xml:space="preserve" text-anchor="middle" x="272.62" y="-6.5" font-family="Helvetica,sans-Serif" font-size="10.00">DiagramScene::keyPressEvent</text>
</a>
</g>
</g>
<!-- Node1&#45;&gt;Node5 -->
<g id="edge4_Node000001_Node000005" class="edge">
<title>Node1&#45;&gt;Node5</title>
<g id="a_edge4_Node000001_Node000005"><a xlink:title=" ">
<path fill="none" stroke="#63b8ff" d="M404.26,-35.34C379.34,-30.51 351.23,-25.06 327.49,-20.45"/>
<polygon fill="#63b8ff" stroke="#63b8ff" points="403.49,-38.76 413.97,-37.23 404.82,-31.89 403.49,-38.76"/>
</a>
</g>
</g>
<!-- Node3 -->
<g id="Node000003" class="node">
<title>Node3</title>
<g id="a_Node000003"><a xlink:href="class_diagram_scene.html#a189b7f9e32b70c751124cffce8d63c8c" target="_top" xlink:title=" ">
<polygon fill="white" stroke="#666666" points="157,-96 0,-96 0,-76 157,-76 157,-96"/>
<text xml:space="preserve" text-anchor="middle" x="78.5" y="-82.5" font-family="Helvetica,sans-Serif" font-size="10.00">DiagramScene::~DiagramScene</text>
</a>
</g>
</g>
<!-- Node2&#45;&gt;Node3 -->
<g id="edge2_Node000002_Node000003" class="edge">
<title>Node2&#45;&gt;Node3</title>
<g id="a_edge2_Node000002_Node000003"><a xlink:title=" ">
<path fill="none" stroke="#63b8ff" d="M188.81,-86C178.33,-86 167.63,-86 157.22,-86"/>
<polygon fill="#63b8ff" stroke="#63b8ff" points="188.57,-89.5 198.57,-86 188.57,-82.5 188.57,-89.5"/>
</a>
</g>
</g>
</g>
</svg>
