<?xml version="1.0" encoding="UTF-8" standalone="no"?>
<!DOCTYPE svg PUBLIC "-//W3C//DTD SVG 1.1//EN"
 "http://www.w3.org/Graphics/SVG/1.1/DTD/svg11.dtd">
<!-- Generated by graphviz version 14.1.1 (20251213.1925)
 -->
<!-- Title: DiagramScene::selectionChanged Pages: 1 -->
<!--zoomable 344 -->

<svg id="main" version="1.1" xmlns="http://www.w3.org/2000/svg" xmlns:xlink="http://www.w3.org/1999/xlink" xml:space="preserve" onload="init(evt)">

<style type="text/css"><![CDATA[
.node, .edge {opacity: 0.7;}
.node.selected, .edge.selected {opacity: 1;}
.edge:hover path { stroke: red; }
.edge:hover polygon { stroke: red; fill: red; }
]]></style>

<defs>
  <circle id="rim" cx="0" cy="0" r="7"/>
  <circle id="rim2" cx="0" cy="0" r="3.5"/>
  <g id="zoomPlus">
    <use xlink:href="#rim" fill="#404040"><set attributeName="fill" to="#808080" begin="zoomplus.mouseover" end="zoomplus.mouseout"/></use>
    <path d="M-4,0h8M0,-4v8" fill="none" stroke="white" stroke-width="1.5" pointer-events="none"/>
  </g>
  <g id="zoomMin">
    <use xlink:href="#rim" fill="#404040"><set attributeName="fill" to="#808080" begin="zoomminus.mouseover" end="zoomminus.mouseout"/></use>
    <path d="M-4,0h8" fill="none" stroke="white" stroke-width="1.5" pointer-events="none"/>
  </g>
  <g id="arrowUp" transform="translate(30 24)">
    <use xlink:href="#rim"/>
    <path pointer-events="none" fill="none" stroke="white" stroke-width="1.5" d="M0,-3.0v7 M-2.5,-0.5L0,-3.0L2.5,-0.5"/>
  </g>
  <g id="arrowRight" transform="rotate(90) translate(36 -43)">
    <use xlink:href="#rim"/>
    <path pointer-events="none" fill="none" stroke="white" stroke-width="1.5" d="M0,-3.0v7 M-2.5,-0.5L0,-3.0L2.5,-0.5"/>
  </g>
  <g id="arrowDown" transform="rotate(180) translate(-30 -48)">
    <use xlink:href="#rim"/>
    <path pointer-events="none" fill="none" stroke="white" stroke-width="1.5" d="M0,-3.0v7 M-2.5,-0.5L0,-3.0L2.5,-0.5"/>
  </g>
  <g id="arrowLeft" transform="rotate(270) translate(-36 17)">
    <use xlink:href="#rim"/>
    <path pointer-events="none" fill="none" stroke="white" stroke-width="1.5" d="M0,-3.0v7 M-2.5,-0.5L0,-3.0L2.5,-0.5"/>
  </g>
  <g id="resetDef">
    <use xlink:href="#rim2" fill="#404040"><set attributeName="fill" to="#808080" begin="reset.mouseover" end="reset.mouseout"/></use>
  </g>
</defs>
<script type="application/ecmascript">
var viewWidth = 981;
var viewHeight = 344;
var sectionId = 'dynsection-73';
</script>
<script type="application/ecmascript" xlink:href="svg.min.js"/>
<svg id="graph" class="graph">
<g id="viewport">
<title>DiagramScene::selectionChanged</title>
<!-- Node1 -->
<g id="Node000001" class="node">
<title>Node1</title>
<g id="a_Node000001"><a xlink:title=" ">
<polygon fill="#999999" stroke="#666666" points="973.25,-153 808.75,-153 808.75,-133 973.25,-133 973.25,-153"/>
<text xml:space="preserve" text-anchor="middle" x="891" y="-139.5" font-family="Helvetica,sans-Serif" font-size="10.00">DiagramScene::selectionChanged</text>
</a>
</g>
</g>
<!-- Node2 -->
<g id="Node000002" class="node">
<title>Node2</title>
<g id="a_Node000002"><a xlink:href="class_diagram_scene.html#a9341fab75d7299e330baae13993bed28" target="_top" xlink:title=" ">
<polygon fill="white" stroke="#666666" points="562.88,-286 414.88,-286 414.88,-266 562.88,-266 562.88,-286"/>
<text xml:space="preserve" text-anchor="middle" x="488.88" y="-272.5" font-family="Helvetica,sans-Serif" font-size="10.00">DiagramScene::clearSelection</text>
</a>
</g>
</g>
<!-- Node1&#45;&gt;Node2 -->
<g id="edge1_Node000001_Node000002" class="edge">
<title>Node1&#45;&gt;Node2</title>
<g id="a_edge1_Node000001_Node000002"><a xlink:title=" ">
<path fill="none" stroke="#63b8ff" d="M873.23,-161.79C852.16,-184.04 813.77,-220.31 772.75,-238 705.64,-266.95 621.96,-275.15 563.08,-276.91"/>
<polygon fill="#63b8ff" stroke="#63b8ff" points="875.67,-164.31 879.88,-154.59 870.53,-159.56 875.67,-164.31"/>
</a>
</g>
</g>
<!-- Node8 -->
<g id="Node000008" class="node">
<title>Node8</title>
<g id="a_Node000008"><a xlink:href="class_main_window.html#adfa32feecffce3959c99d145fc8b4854" target="_top" xlink:title=" ">
<polygon fill="white" stroke="#666666" points="764.12,-20 619.12,-20 619.12,0 764.12,0 764.12,-20"/>
<text xml:space="preserve" text-anchor="middle" x="691.62" y="-6.5" font-family="Helvetica,sans-Serif" font-size="10.00">MainWindow::connectSignals</text>
</a>
</g>
</g>
<!-- Node1&#45;&gt;Node8 -->
<g id="edge8_Node000001_Node000008" class="edge">
<title>Node1&#45;&gt;Node8</title>
<g id="a_edge8_Node000001_Node000008"><a xlink:title=" ">
<path fill="none" stroke="#63b8ff" d="M874.5,-123.97C853.76,-99.71 814.7,-58.02 772.75,-34 762.79,-28.3 751.35,-23.83 740.29,-20.38"/>
<polygon fill="#63b8ff" stroke="#63b8ff" points="871.68,-126.06 880.79,-131.47 877.05,-121.56 871.68,-126.06"/>
</a>
</g>
</g>
<!-- Node10 -->
<g id="Node000010" class="node">
<title>Node10</title>
<g id="a_Node000010"><a xlink:href="class_diagram_scene.html#a03a8b712a0872e8f6290c059de956505" target="_top" xlink:title=" ">
<polygon fill="white" stroke="#666666" points="767.12,-115 616.12,-115 616.12,-95 767.12,-95 767.12,-115"/>
<text xml:space="preserve" text-anchor="middle" x="691.62" y="-101.5" font-family="Helvetica,sans-Serif" font-size="10.00">DiagramScene::deleteSelected</text>
</a>
</g>
</g>
<!-- Node1&#45;&gt;Node10 -->
<g id="edge10_Node000001_Node000010" class="edge">
<title>Node1&#45;&gt;Node10</title>
<g id="a_edge10_Node000001_Node000010"><a xlink:title=" ">
<path fill="none" stroke="#63b8ff" d="M824.26,-130.34C799.15,-125.51 770.83,-120.06 746.9,-115.45"/>
<polygon fill="#63b8ff" stroke="#63b8ff" points="823.58,-133.78 834.06,-132.23 824.9,-126.9 823.58,-133.78"/>
</a>
</g>
</g>
<!-- Node11 -->
<g id="Node000011" class="node">
<title>Node11</title>
<g id="a_Node000011"><a xlink:href="class_diagram_scene.html#a530f6e2b54bdff761f3f478120187201" target="_top" xlink:title=" ">
<polygon fill="white" stroke="#666666" points="342.12,-58 218.12,-58 218.12,-38 342.12,-38 342.12,-58"/>
<text xml:space="preserve" text-anchor="middle" x="280.12" y="-44.5" font-family="Helvetica,sans-Serif" font-size="10.00">DiagramScene::selectAll</text>
</a>
</g>
</g>
<!-- Node1&#45;&gt;Node11 -->
<g id="edge12_Node000001_Node000011" class="edge">
<title>Node1&#45;&gt;Node11</title>
<g id="a_edge12_Node000001_Node000011"><a xlink:title=" ">
<path fill="none" stroke="#63b8ff" d="M864,-126.82C840.95,-113.35 805.9,-94.99 772.75,-86 622.17,-45.16 436.82,-43.21 342.53,-45.48"/>
<polygon fill="#63b8ff" stroke="#63b8ff" points="862.02,-129.71 872.4,-131.83 865.6,-123.7 862.02,-129.71"/>
</a>
</g>
</g>
<!-- Node12 -->
<g id="Node000012" class="node">
<title>Node12</title>
<g id="a_Node000012"><a xlink:href="class_diagram_scene.html#a2b55d6646f19908d66e5c5eda455744e" target="_top" xlink:title=" ">
<polygon fill="white" stroke="#666666" points="772.75,-229 610.5,-229 610.5,-209 772.75,-209 772.75,-229"/>
<text xml:space="preserve" text-anchor="middle" x="691.62" y="-215.5" font-family="Helvetica,sans-Serif" font-size="10.00">DiagramScene::selectConnection</text>
</a>
</g>
</g>
<!-- Node1&#45;&gt;Node12 -->
<g id="edge14_Node000001_Node000012" class="edge">
<title>Node1&#45;&gt;Node12</title>
<g id="a_edge14_Node000001_Node000012"><a xlink:title=" ">
<path fill="none" stroke="#63b8ff" d="M852.62,-157.39C813.82,-172.33 754.09,-195.33 719.64,-208.6"/>
<polygon fill="#63b8ff" stroke="#63b8ff" points="853.48,-160.81 861.56,-153.95 850.97,-154.28 853.48,-160.81"/>
</a>
</g>
</g>
<!-- Node16 -->
<g id="Node000016" class="node">
<title>Node16</title>
<g id="a_Node000016"><a xlink:href="class_diagram_scene.html#adffd7c14eb320f4e260f6fed731c1809" target="_top" xlink:title=" ">
<polygon fill="white" stroke="#666666" points="766,-172 617.25,-172 617.25,-152 766,-152 766,-172"/>
<text xml:space="preserve" text-anchor="middle" x="691.62" y="-158.5" font-family="Helvetica,sans-Serif" font-size="10.00">DiagramScene::selectElement</text>
</a>
</g>
</g>
<!-- Node1&#45;&gt;Node16 -->
<g id="edge19_Node000001_Node000016" class="edge">
<title>Node1&#45;&gt;Node16</title>
<g id="a_edge19_Node000001_Node000016"><a xlink:title=" ">
<path fill="none" stroke="#63b8ff" d="M797.15,-151.94C786.82,-152.93 776.41,-153.93 766.37,-154.9"/>
<polygon fill="#63b8ff" stroke="#63b8ff" points="797.17,-155.45 806.79,-151.01 796.5,-148.48 797.17,-155.45"/>
</a>
</g>
</g>
<!-- Node3 -->
<g id="Node000003" class="node">
<title>Node3</title>
<g id="a_Node000003"><a xlink:href="class_diagram_scene.html#a0c02f289dea7872eae24bb2c0f91d5ea" target="_top" xlink:title=" ">
<polygon fill="white" stroke="#666666" points="352.25,-336 208,-336 208,-316 352.25,-316 352.25,-336"/>
<text xml:space="preserve" text-anchor="middle" x="280.12" y="-322.5" font-family="Helvetica,sans-Serif" font-size="10.00">DiagramScene::clearDiagram</text>
</a>
</g>
</g>
<!-- Node2&#45;&gt;Node3 -->
<g id="edge2_Node000002_Node000003" class="edge">
<title>Node2&#45;&gt;Node3</title>
<g id="a_edge2_Node000002_Node000003"><a xlink:title=" ">
<path fill="none" stroke="#63b8ff" d="M437.66,-289.32C416.04,-294.94 390.44,-301.46 367.25,-307 355.19,-309.88 342.13,-312.84 329.93,-315.54"/>
<polygon fill="#63b8ff" stroke="#63b8ff" points="438.32,-292.76 447.11,-286.85 436.55,-285.99 438.32,-292.76"/>
</a>
</g>
</g>
<!-- Node5 -->
<g id="Node000005" class="node">
<title>Node5</title>
<g id="a_Node000005"><a xlink:href="class_diagram_scene.html#a074e1181353b257a18ea2d243b459a47" target="_top" xlink:title=" ">
<polygon fill="white" stroke="#666666" points="155.12,-131 1.88,-131 1.88,-111 155.12,-111 155.12,-131"/>
<text xml:space="preserve" text-anchor="middle" x="78.5" y="-117.5" font-family="Helvetica,sans-Serif" font-size="10.00">DiagramScene::keyPressEvent</text>
</a>
</g>
</g>
<!-- Node2&#45;&gt;Node5 -->
<g id="edge4_Node000002_Node000005" class="edge">
<title>Node2&#45;&gt;Node5</title>
<g id="a_edge4_Node000002_Node000005"><a xlink:title=" ">
<path fill="none" stroke="#63b8ff" d="M413.38,-263.66C332.64,-249.96 212.63,-228.52 193,-219 147.32,-196.85 105.38,-151.58 87.98,-131.27"/>
<polygon fill="#63b8ff" stroke="#63b8ff" points="412.57,-267.07 423.01,-265.29 413.73,-260.17 412.57,-267.07"/>
</a>
</g>
</g>
<!-- Node6 -->
<g id="Node000006" class="node">
<title>Node6</title>
<g id="a_Node000006"><a xlink:href="class_diagram_scene.html#a6847af7972303267f22e84ae1011c255" target="_top" xlink:title=" ">
<polygon fill="white" stroke="#666666" points="350.75,-298 209.5,-298 209.5,-266 350.75,-266 350.75,-298"/>
<text xml:space="preserve" text-anchor="start" x="217.5" y="-284.5" font-family="Helvetica,sans-Serif" font-size="10.00">DiagramScene::mousePress</text>
<text xml:space="preserve" text-anchor="middle" x="280.12" y="-272.5" font-family="Helvetica,sans-Serif" font-size="10.00">Event</text>
</a>
</g>
</g>
<!-- Node2&#45;&gt;Node6 -->
<g id="edge5_Node000002_Node000006" class="edge">
<title>Node2&#45;&gt;Node6</title>
<g id="a_edge5_Node000002_Node000006"><a xlink:title=" ">
<path fill="none" stroke="#63b8ff" d="M403.18,-278.46C385.92,-278.96 367.93,-279.48 351.25,-279.97"/>
<polygon fill="#63b8ff" stroke="#63b8ff" points="402.99,-281.96 412.89,-278.18 402.79,-274.97 402.99,-281.96"/>
</a>
</g>
</g>
<!-- Node7 -->
<g id="Node000007" class="node">
<title>Node7</title>
<g id="a_Node000007"><a xlink:href="class_diagram_scene.html#a61e7061e5add947d09ad87feaf2b8dc1" target="_top" xlink:title=" ">
<polygon fill="white" stroke="#666666" points="367.25,-160 193,-160 193,-140 367.25,-140 367.25,-160"/>
<text xml:space="preserve" text-anchor="middle" x="280.12" y="-146.5" font-family="Helvetica,sans-Serif" font-size="10.00">DiagramScene::pasteFromClipboard</text>
</a>
</g>
</g>
<!-- Node2&#45;&gt;Node7 -->
<g id="edge6_Node000002_Node000007" class="edge">
<title>Node2&#45;&gt;Node7</title>
<g id="a_edge6_Node000002_Node000007"><a xlink:title=" ">
<path fill="none" stroke="#63b8ff" d="M406.76,-259.74C405.55,-258.87 404.38,-257.96 403.25,-257 370.98,-229.72 399.58,-196.22 367.25,-169 363.15,-165.55 358.56,-162.69 353.69,-160.31"/>
<polygon fill="#63b8ff" stroke="#63b8ff" points="404.88,-262.69 415.26,-264.8 408.46,-256.68 404.88,-262.69"/>
</a>
</g>
</g>
<!-- Node4 -->
<g id="Node000004" class="node">
<title>Node4</title>
<g id="a_Node000004"><a xlink:href="class_diagram_scene.html#a189b7f9e32b70c751124cffce8d63c8c" target="_top" xlink:title=" ">
<polygon fill="white" stroke="#666666" points="157,-336 0,-336 0,-316 157,-316 157,-336"/>
<text xml:space="preserve" text-anchor="middle" x="78.5" y="-322.5" font-family="Helvetica,sans-Serif" font-size="10.00">DiagramScene::~DiagramScene</text>
</a>
</g>
</g>
<!-- Node3&#45;&gt;Node4 -->
<g id="edge3_Node000003_Node000004" class="edge">
<title>Node3&#45;&gt;Node4</title>
<g id="a_edge3_Node000003_Node000004"><a xlink:title=" ">
<path fill="none" stroke="#63b8ff" d="M196.37,-326C183.43,-326 170.09,-326 157.27,-326"/>
<polygon fill="#63b8ff" stroke="#63b8ff" points="196.11,-329.5 206.11,-326 196.11,-322.5 196.11,-329.5"/>
</a>
</g>
</g>
<!-- Node7&#45;&gt;Node5 -->
<g id="edge7_Node000007_Node000005" class="edge">
<title>Node7&#45;&gt;Node5</title>
<g id="a_edge7_Node000007_Node000005"><a xlink:title=" ">
<path fill="none" stroke="#63b8ff" d="M195.89,-137.91C181.13,-135.76 165.88,-133.55 151.46,-131.45"/>
<polygon fill="#63b8ff" stroke="#63b8ff" points="195.16,-141.34 205.56,-139.31 196.17,-134.41 195.16,-141.34"/>
</a>
</g>
</g>
<!-- Node9 -->
<g id="Node000009" class="node">
<title>Node9</title>
<g id="a_Node000009"><a xlink:href="class_main_window.html#a996c5a2b6f77944776856f08ec30858d" target="_top" xlink:title=" ">
<polygon fill="white" stroke="#666666" points="556.12,-20 421.62,-20 421.62,0 556.12,0 556.12,-20"/>
<text xml:space="preserve" text-anchor="middle" x="488.88" y="-6.5" font-family="Helvetica,sans-Serif" font-size="10.00">MainWindow::MainWindow</text>
</a>
</g>
</g>
<!-- Node8&#45;&gt;Node9 -->
<g id="edge9_Node000008_Node000009" class="edge">
<title>Node8&#45;&gt;Node9</title>
<g id="a_edge9_Node000008_Node000009"><a xlink:title=" ">
<path fill="none" stroke="#63b8ff" d="M607.66,-10C590.65,-10 572.95,-10 556.6,-10"/>
<polygon fill="#63b8ff" stroke="#63b8ff" points="607.2,-13.5 617.2,-10 607.2,-6.5 607.2,-13.5"/>
</a>
</g>
</g>
<!-- Node10&#45;&gt;Node5 -->
<g id="edge11_Node000010_Node000005" class="edge">
<title>Node10&#45;&gt;Node5</title>
<g id="a_edge11_Node000010_Node000005"><a xlink:title=" ">
<path fill="none" stroke="#63b8ff" d="M604.37,-103.89C547.29,-103.43 470.79,-103.33 403.25,-105 318.3,-107.1 220.93,-112.29 155.34,-116.19"/>
<polygon fill="#63b8ff" stroke="#63b8ff" points="604.34,-107.39 614.37,-103.98 604.4,-100.39 604.34,-107.39"/>
</a>
</g>
</g>
<!-- Node11&#45;&gt;Node5 -->
<g id="edge13_Node000011_Node000005" class="edge">
<title>Node11&#45;&gt;Node5</title>
<g id="a_edge13_Node000011_Node000005"><a xlink:title=" ">
<path fill="none" stroke="#63b8ff" d="M226.28,-61.5C215.2,-64.68 203.65,-68.24 193,-72 160.42,-83.51 123.93,-99.93 101.33,-110.52"/>
<polygon fill="#63b8ff" stroke="#63b8ff" points="227,-64.94 235.7,-58.88 225.12,-58.19 227,-64.94"/>
</a>
</g>
</g>
<!-- Node12&#45;&gt;Node2 -->
<g id="edge15_Node000012_Node000002" class="edge">
<title>Node12&#45;&gt;Node2</title>
<g id="a_edge15_Node000012_Node000002"><a xlink:title=" ">
<path fill="none" stroke="#63b8ff" d="M650.55,-233.16C628.3,-240.75 600.04,-249.97 574.5,-257 563.47,-260.04 551.53,-262.94 540.19,-265.53"/>
<polygon fill="#63b8ff" stroke="#63b8ff" points="651.52,-236.53 659.84,-229.96 649.24,-229.91 651.52,-236.53"/>
</a>
</g>
</g>
<!-- Node13 -->
<g id="Node000013" class="node">
<title>Node13</title>
<g id="a_Node000013"><a xlink:href="class_diagram_scene.html#ad46a8dc374895fd670f50f30f2c2acbd" target="_top" xlink:title=" ">
<polygon fill="white" stroke="#666666" points="574.5,-210 403.25,-210 403.25,-190 574.5,-190 574.5,-210"/>
<text xml:space="preserve" text-anchor="middle" x="488.88" y="-196.5" font-family="Helvetica,sans-Serif" font-size="10.00">DiagramScene::finishSelectionRect</text>
</a>
</g>
</g>
<!-- Node12&#45;&gt;Node13 -->
<g id="edge16_Node000012_Node000013" class="edge">
<title>Node12&#45;&gt;Node13</title>
<g id="a_edge16_Node000012_Node000013"><a xlink:title=" ">
<path fill="none" stroke="#63b8ff" d="M598.93,-210.32C590.95,-209.57 582.91,-208.8 574.99,-208.06"/>
<polygon fill="#63b8ff" stroke="#63b8ff" points="598.34,-213.78 608.62,-211.24 599,-206.81 598.34,-213.78"/>
</a>
</g>
</g>
<!-- Node15 -->
<g id="Node000015" class="node">
<title>Node15</title>
<g id="a_Node000015"><a xlink:href="class_diagram_scene.html#a2f6effb6da25d1974e33776ef4046f87" target="_top" xlink:title=" ">
<polygon fill="white" stroke="#666666" points="570,-248 407.75,-248 407.75,-228 570,-228 570,-248"/>
<text xml:space="preserve" text-anchor="middle" x="488.88" y="-234.5" font-family="Helvetica,sans-Serif" font-size="10.00">DiagramScene::selectConnection</text>
</a>
</g>
</g>
<!-- Node12&#45;&gt;Node15 -->
<g id="edge18_Node000012_Node000015" class="edge">
<title>Node12&#45;&gt;Node15</title>
<g id="a_edge18_Node000012_Node000015"><a xlink:title=" ">
<path fill="none" stroke="#63b8ff" d="M598.68,-227.7C589.24,-228.6 579.7,-229.5 570.39,-230.38"/>
<polygon fill="#63b8ff" stroke="#63b8ff" points="599,-231.19 608.62,-226.76 598.34,-224.22 599,-231.19"/>
</a>
</g>
</g>
<!-- Node14 -->
<g id="Node000014" class="node">
<title>Node14</title>
<g id="a_Node000014"><a xlink:href="class_diagram_scene.html#a542ad58dab0f10f2825e0d69deabebe7" target="_top" xlink:title=" ">
<polygon fill="white" stroke="#666666" points="356,-210 204.25,-210 204.25,-178 356,-178 356,-210"/>
<text xml:space="preserve" text-anchor="start" x="212.25" y="-196.5" font-family="Helvetica,sans-Serif" font-size="10.00">DiagramScene::mouseRelease</text>
<text xml:space="preserve" text-anchor="middle" x="280.12" y="-184.5" font-family="Helvetica,sans-Serif" font-size="10.00">Event</text>
</a>
</g>
</g>
<!-- Node13&#45;&gt;Node14 -->
<g id="edge17_Node000013_Node000014" class="edge">
<title>Node13&#45;&gt;Node14</title>
<g id="a_edge17_Node000013_Node000014"><a xlink:title=" ">
<path fill="none" stroke="#63b8ff" d="M391.56,-197.2C379.68,-196.86 367.68,-196.51 356.19,-196.18"/>
<polygon fill="#63b8ff" stroke="#63b8ff" points="391.28,-200.7 401.37,-197.49 391.48,-193.7 391.28,-200.7"/>
</a>
</g>
</g>
<!-- Node16&#45;&gt;Node2 -->
<g id="edge20_Node000016_Node000002" class="edge">
<title>Node16&#45;&gt;Node2</title>
<g id="a_edge20_Node000016_Node000002"><a xlink:title=" ">
<path fill="none" stroke="#63b8ff" d="M648.27,-176.73C635.21,-182.62 621.41,-190.33 610.5,-200 588.08,-219.87 598.99,-239.73 574.5,-257 569.58,-260.47 564.13,-263.32 558.43,-265.66"/>
<polygon fill="#63b8ff" stroke="#63b8ff" points="649.27,-180.11 657.12,-172.99 646.55,-173.66 649.27,-180.11"/>
</a>
</g>
</g>
<!-- Node16&#45;&gt;Node7 -->
<g id="edge22_Node000016_Node000007" class="edge">
<title>Node16&#45;&gt;Node7</title>
<g id="a_edge22_Node000016_Node000007"><a xlink:title=" ">
<path fill="none" stroke="#63b8ff" d="M605.58,-159.51C535.92,-157.47 437.78,-154.59 367.7,-152.54"/>
<polygon fill="#63b8ff" stroke="#63b8ff" points="605.33,-163 615.43,-159.8 605.54,-156 605.33,-163"/>
</a>
</g>
</g>
<!-- Node16&#45;&gt;Node13 -->
<g id="edge21_Node000016_Node000013" class="edge">
<title>Node16&#45;&gt;Node13</title>
<g id="a_edge21_Node000016_Node000013"><a xlink:title=" ">
<path fill="none" stroke="#63b8ff" d="M624.11,-174.59C598.48,-179.44 569.52,-184.92 545.08,-189.55"/>
<polygon fill="#63b8ff" stroke="#63b8ff" points="624.58,-178.06 633.75,-172.77 623.27,-171.19 624.58,-178.06"/>
</a>
</g>
</g>
<!-- Node17 -->
<g id="Node000017" class="node">
<title>Node17</title>
<g id="a_Node000017"><a xlink:href="class_diagram_scene.html#a52f85570092aa1c3df464382efad08fa" target="_top" xlink:title=" ">
<polygon fill="white" stroke="#666666" points="563.25,-134 414.5,-134 414.5,-114 563.25,-114 563.25,-134"/>
<text xml:space="preserve" text-anchor="middle" x="488.88" y="-120.5" font-family="Helvetica,sans-Serif" font-size="10.00">DiagramScene::selectElement</text>
</a>
</g>
</g>
<!-- Node16&#45;&gt;Node17 -->
<g id="edge23_Node000016_Node000017" class="edge">
<title>Node16&#45;&gt;Node17</title>
<g id="a_edge23_Node000016_Node000017"><a xlink:title=" ">
<path fill="none" stroke="#63b8ff" d="M624.11,-149.41C598.48,-144.56 569.52,-139.08 545.08,-134.45"/>
<polygon fill="#63b8ff" stroke="#63b8ff" points="623.27,-152.81 633.75,-151.23 624.58,-145.94 623.27,-152.81"/>
</a>
</g>
</g>
</g>
</svg>

<g id="navigator" transform="translate(0 0)" fill="#404254">
  <rect fill="#f2f5e9" fill-opacity="0.5" stroke="#606060" stroke-width=".5" x="0" y="0" width="60" height="60"/>
  <use id="zoomplus" xlink:href="#zoomPlus" x="17" y="9" onmousedown="handleZoom(evt,'in')"/>
  <use id="zoomminus" xlink:href="#zoomMin" x="42" y="9" onmousedown="handleZoom(evt,'out')"/>
  <use id="reset" xlink:href="#resetDef" x="30" y="36" onmousedown="handleReset()"/>
   <use id="arrowup" xlink:href="#arrowUp" x="0" y="0" onmousedown="handlePan(0,-1)"/>
  <use id="arrowright" xlink:href="#arrowRight" x="0" y="0" onmousedown="handlePan(1,0)"/>
  <use id="arrowdown" xlink:href="#arrowDown" x="0" y="0" onmousedown="handlePan(0,1)"/>
  <use id="arrowleft" xlink:href="#arrowLeft" x="0" y="0" onmousedown="handlePan(-1,0)"/>
</g>
<svg viewBox="0 0 15 15" width="100%" height="30px" preserveAspectRatio="xMaxYMin meet">
 <g id="arrow_out" transform="scale(0.3 0.3)">
  <a xlink:href="class_diagram_scene_a7dbb09a9acecc803601560e50ad720ea_icgraph_org.svg" target="_base">
   <rect id="button" ry="5" rx="5" y="6" x="6" height="38" width="38"
        fill="#f2f5e9" fill-opacity="0.5" stroke="#606060" stroke-width="1.0"/>
   <path id="arrow"
     d="M 11.500037,31.436501 C 11.940474,20.09759 22.043105,11.32322 32.158766,21.979434 L 37.068811,17.246167 C 37.068811,17.246167 37.088388,32 37.088388,32 L 22.160133,31.978069 C 22.160133,31.978069 26.997745,27.140456 26.997745,27.140456 C 18.528582,18.264221 13.291696,25.230495 11.500037,31.436501 z"
     style="fill:#404040;"/>
  </a>
 </g>
</svg>

<style type='text/css'>
<![CDATA[
[data-mouse-over-selected='false'] { opacity: 0.7; }
[data-mouse-over-selected='true']  { opacity: 1.0; }
]]>
</style>
<script type="application/ecmascript"><![CDATA[
document.addEventListener('DOMContentLoaded', (event) => {
  highlightEdges();
  highlightAdjacentNodes();
});
]]></script>
</svg>
