<?xml version="1.0" encoding="UTF-8" standalone="no"?>
<!DOCTYPE svg PUBLIC "-//W3C//DTD SVG 1.1//EN"
 "http://www.w3.org/Graphics/SVG/1.1/DTD/svg11.dtd">
<!-- Generated by graphviz version 14.1.1 (20251213.1925)
 -->
<!-- Title: DiagramScene::selectElement Pages: 1 -->
<svg width="722pt" height="185pt"
 viewBox="0.00 0.00 722.00 185.00" xmlns="http://www.w3.org/2000/svg" xmlns:xlink="http://www.w3.org/1999/xlink">
<g id="graph0" class="graph" transform="scale(1 1) rotate(0) translate(4 180.52)">
<title>DiagramScene::selectElement</title>
<!-- Node1 -->
<g id="Node000001" class="node">
<title>Node1</title>
<g id="a_Node000001"><a xlink:title=" ">
<polygon fill="#999999" stroke="#666666" points="148.75,-152 0,-152 0,-132 148.75,-132 148.75,-152"/>
<text xml:space="preserve" text-anchor="middle" x="74.38" y="-138.5" font-family="Helvetica,sans-Serif" font-size="10.00">DiagramScene::selectElement</text>
</a>
</g>
</g>
<!-- Node2 -->
<g id="Node000002" class="node">
<title>Node2</title>
<g id="a_Node000002"><a xlink:href="class_diagram_scene.html#a4da4018bb57166e46104700d2847c41d" target="_top" xlink:title=" ">
<polygon fill="white" stroke="#666666" points="714.25,-124 576,-124 576,-104 714.25,-104 714.25,-124"/>
<text xml:space="preserve" text-anchor="middle" x="645.12" y="-110.5" font-family="Helvetica,sans-Serif" font-size="10.00">DiagramScene::findElement</text>
</a>
</g>
</g>
<!-- Node1&#45;&gt;Node2 -->
<g id="edge1_Node000001_Node000002" class="edge">
<title>Node1&#45;&gt;Node2</title>
<g id="a_edge1_Node000001_Node000002"><a xlink:title=" ">
<path fill="none" stroke="#63b8ff" d="M126.97,-152.45C213.49,-168.12 392.81,-192.68 540,-161 567.74,-155.03 596.99,-141.05 617.41,-129.89"/>
<polygon fill="#63b8ff" stroke="#63b8ff" points="618.91,-133.06 625.9,-125.1 615.47,-126.96 618.91,-133.06"/>
</a>
</g>
</g>
<!-- Node3 -->
<g id="Node000003" class="node">
<title>Node3</title>
<g id="a_Node000003"><a xlink:href="class_diagram_scene.html#adffd7c14eb320f4e260f6fed731c1809" target="_top" xlink:title=" ">
<polygon fill="white" stroke="#666666" points="333.5,-114 184.75,-114 184.75,-94 333.5,-94 333.5,-114"/>
<text xml:space="preserve" text-anchor="middle" x="259.12" y="-100.5" font-family="Helvetica,sans-Serif" font-size="10.00">DiagramScene::selectElement</text>
</a>
</g>
</g>
<!-- Node1&#45;&gt;Node3 -->
<g id="edge2_Node000001_Node000003" class="edge">
<title>Node1&#45;&gt;Node3</title>
<g id="a_edge2_Node000001_Node000003"><a xlink:title=" ">
<path fill="none" stroke="#63b8ff" d="M125.8,-131.52C147.77,-126.95 173.72,-121.55 196.8,-116.75"/>
<polygon fill="#63b8ff" stroke="#63b8ff" points="197.31,-120.22 206.39,-114.76 195.88,-113.37 197.31,-120.22"/>
</a>
</g>
</g>
<!-- Node4 -->
<g id="Node000004" class="node">
<title>Node4</title>
<g id="a_Node000004"><a xlink:href="class_diagram_scene.html#a065ce2ec3d83e05c486ae418eaf6320f" target="_top" xlink:title=" ">
<polygon fill="white" stroke="#666666" points="540,-152 369.5,-152 369.5,-132 540,-132 540,-152"/>
<text xml:space="preserve" text-anchor="middle" x="454.75" y="-138.5" font-family="Helvetica,sans-Serif" font-size="10.00">DiagramScene::elementDeselected</text>
</a>
</g>
</g>
<!-- Node3&#45;&gt;Node4 -->
<g id="edge3_Node000003_Node000004" class="edge">
<title>Node3&#45;&gt;Node4</title>
<g id="a_edge3_Node000003_Node000004"><a xlink:title=" ">
<path fill="none" stroke="#63b8ff" d="M313.55,-114.48C337.04,-119.09 364.83,-124.55 389.44,-129.38"/>
<polygon fill="#63b8ff" stroke="#63b8ff" points="388.53,-132.77 399.02,-131.26 389.88,-125.9 388.53,-132.77"/>
</a>
</g>
</g>
<!-- Node5 -->
<g id="Node000005" class="node">
<title>Node5</title>
<g id="a_Node000005"><a xlink:href="class_diagram_scene.html#a15719115f3f2f26120243d71999dcfea" target="_top" xlink:title=" ">
<polygon fill="white" stroke="#666666" points="534.38,-114 375.12,-114 375.12,-94 534.38,-94 534.38,-114"/>
<text xml:space="preserve" text-anchor="middle" x="454.75" y="-100.5" font-family="Helvetica,sans-Serif" font-size="10.00">DiagramScene::elementSelected</text>
</a>
</g>
</g>
<!-- Node3&#45;&gt;Node5 -->
<g id="edge4_Node000003_Node000005" class="edge">
<title>Node3&#45;&gt;Node5</title>
<g id="a_edge4_Node000003_Node000005"><a xlink:title=" ">
<path fill="none" stroke="#63b8ff" d="M333.88,-104C343.48,-104 353.4,-104 363.24,-104"/>
<polygon fill="#63b8ff" stroke="#63b8ff" points="363.21,-107.5 373.21,-104 363.21,-100.5 363.21,-107.5"/>
</a>
</g>
</g>
<!-- Node6 -->
<g id="Node000006" class="node">
<title>Node6</title>
<g id="a_Node000006"><a xlink:href="class_diagram_scene.html#a45f18c15840085ffda39cfc9229a15ee" target="_top" xlink:title=" ">
<polygon fill="white" stroke="#666666" points="535.12,-58 374.38,-58 374.38,-38 535.12,-38 535.12,-58"/>
<text xml:space="preserve" text-anchor="middle" x="454.75" y="-44.5" font-family="Helvetica,sans-Serif" font-size="10.00">DiagramScene::findGraphicsItem</text>
</a>
</g>
</g>
<!-- Node3&#45;&gt;Node6 -->
<g id="edge5_Node000003_Node000006" class="edge">
<title>Node3&#45;&gt;Node6</title>
<g id="a_edge5_Node000003_Node000006"><a xlink:title=" ">
<path fill="none" stroke="#63b8ff" d="M296.09,-93.6C327.37,-84.55 372.91,-71.38 407.01,-61.52"/>
<polygon fill="#63b8ff" stroke="#63b8ff" points="407.56,-65 416.2,-58.86 405.62,-58.28 407.56,-65"/>
</a>
</g>
</g>
<!-- Node7 -->
<g id="Node000007" class="node">
<title>Node7</title>
<g id="a_Node000007"><a xlink:href="class_diagram_scene.html#a7dbb09a9acecc803601560e50ad720ea" target="_top" xlink:title=" ">
<polygon fill="white" stroke="#666666" points="537,-20 372.5,-20 372.5,0 537,0 537,-20"/>
<text xml:space="preserve" text-anchor="middle" x="454.75" y="-6.5" font-family="Helvetica,sans-Serif" font-size="10.00">DiagramScene::selectionChanged</text>
</a>
</g>
</g>
<!-- Node3&#45;&gt;Node7 -->
<g id="edge8_Node000003_Node000007" class="edge">
<title>Node3&#45;&gt;Node7</title>
<g id="a_edge8_Node000003_Node000007"><a xlink:title=" ">
<path fill="none" stroke="#63b8ff" d="M272,-93.56C291.16,-77.28 330.67,-45.94 369.5,-29 374.03,-27.02 378.79,-25.24 383.64,-23.64"/>
<polygon fill="#63b8ff" stroke="#63b8ff" points="384.36,-27.08 392.92,-20.83 382.34,-20.37 384.36,-27.08"/>
</a>
</g>
</g>
<!-- Node6&#45;&gt;Node2 -->
<g id="edge6_Node000006_Node000002" class="edge">
<title>Node6&#45;&gt;Node2</title>
<g id="a_edge6_Node000006_Node000002"><a xlink:title=" ">
<path fill="none" stroke="#63b8ff" d="M485.6,-58.46C517.56,-69.66 568.47,-87.49 603.94,-99.92"/>
<polygon fill="#63b8ff" stroke="#63b8ff" points="602.39,-103.09 612.99,-103.09 604.71,-96.48 602.39,-103.09"/>
</a>
</g>
</g>
<!-- Node6&#45;&gt;Node6 -->
<g id="edge7_Node000006_Node000006" class="edge">
<title>Node6&#45;&gt;Node6</title>
<g id="a_edge7_Node000006_Node000006"><a xlink:title=" ">
<path fill="none" stroke="#63b8ff" d="M424.5,-58.34C411.57,-66.98 421.66,-76 454.75,-76 473.36,-76 484.7,-73.14 488.75,-69.11"/>
<polygon fill="#63b8ff" stroke="#63b8ff" points="492.09,-68.06 485.5,-59.77 485.48,-70.36 492.09,-68.06"/>
</a>
</g>
</g>
</g>
</svg>
