<?xml version="1.0" encoding="UTF-8" standalone="no"?>
<!DOCTYPE svg PUBLIC "-//W3C//DTD SVG 1.1//EN"
 "http://www.w3.org/Graphics/SVG/1.1/DTD/svg11.dtd">
<!-- Generated by graphviz version 14.1.1 (20251213.1925)
 -->
<!-- Title: MainWindow::onElementDropped Pages: 1 -->
<svg width="548pt" height="144pt"
 viewBox="0.00 0.00 548.00 144.00" xmlns="http://www.w3.org/2000/svg" xmlns:xlink="http://www.w3.org/1999/xlink">
<g id="graph0" class="graph" transform="scale(1 1) rotate(0) translate(4 140)">
<title>MainWindow::onElementDropped</title>
<!-- Node1 -->
<g id="Node000001" class="node">
<title>Node1</title>
<g id="a_Node000001"><a xlink:title=" ">
<polygon fill="#999999" stroke="#666666" points="161.5,-70 0,-70 0,-50 161.5,-50 161.5,-70"/>
<text xml:space="preserve" text-anchor="middle" x="80.75" y="-56.5" font-family="Helvetica,sans-Serif" font-size="10.00">MainWindow::onElementDropped</text>
</a>
</g>
</g>
<!-- Node2 -->
<g id="Node000002" class="node">
<title>Node2</title>
<g id="a_Node000002"><a xlink:href="class_basic_element.html#ab14524060d1b8fbbba753207029c6d7d" target="_top" xlink:title=" ">
<polygon fill="white" stroke="#666666" points="338.75,-108 207.25,-108 207.25,-88 338.75,-88 338.75,-108"/>
<text xml:space="preserve" text-anchor="middle" x="273" y="-94.5" font-family="Helvetica,sans-Serif" font-size="10.00">BasicElement::setPosition</text>
</a>
</g>
</g>
<!-- Node1&#45;&gt;Node2 -->
<g id="edge1_Node000001_Node000002" class="edge">
<title>Node1&#45;&gt;Node2</title>
<g id="a_edge1_Node000001_Node000002"><a xlink:title=" ">
<path fill="none" stroke="#63b8ff" d="M134.24,-70.48C157.22,-75.07 184.38,-80.5 208.49,-85.31"/>
<polygon fill="#63b8ff" stroke="#63b8ff" points="207.7,-88.73 218.2,-87.25 209.08,-81.86 207.7,-88.73"/>
</a>
</g>
</g>
<!-- Node5 -->
<g id="Node000005" class="node">
<title>Node5</title>
<g id="a_Node000005"><a xlink:href="class_main_window.html#a51ab21a1be4a1389a00bdb35feee8d64" target="_top" xlink:title=" ">
<polygon fill="white" stroke="#666666" points="348.5,-70 197.5,-70 197.5,-50 348.5,-50 348.5,-70"/>
<text xml:space="preserve" text-anchor="middle" x="273" y="-56.5" font-family="Helvetica,sans-Serif" font-size="10.00">MainWindow::updateStatusBar</text>
</a>
</g>
</g>
<!-- Node1&#45;&gt;Node5 -->
<g id="edge4_Node000001_Node000005" class="edge">
<title>Node1&#45;&gt;Node5</title>
<g id="a_edge4_Node000001_Node000005"><a xlink:title=" ">
<path fill="none" stroke="#63b8ff" d="M161.88,-60C169.73,-60 177.71,-60 185.62,-60"/>
<polygon fill="#63b8ff" stroke="#63b8ff" points="185.6,-63.5 195.6,-60 185.6,-56.5 185.6,-63.5"/>
</a>
</g>
</g>
<!-- Node6 -->
<g id="Node000006" class="node">
<title>Node6</title>
<g id="a_Node000006"><a xlink:href="class_main_window.html#a90cfbcf2e0f2549760a60f184ee0acbf" target="_top" xlink:title=" ">
<polygon fill="white" stroke="#666666" points="344.38,-32 201.62,-32 201.62,0 344.38,0 344.38,-32"/>
<text xml:space="preserve" text-anchor="start" x="209.62" y="-18.5" font-family="Helvetica,sans-Serif" font-size="10.00">MainWindow::updateWindow</text>
<text xml:space="preserve" text-anchor="middle" x="273" y="-6.5" font-family="Helvetica,sans-Serif" font-size="10.00">Title</text>
</a>
</g>
</g>
<!-- Node1&#45;&gt;Node6 -->
<g id="edge5_Node000001_Node000006" class="edge">
<title>Node1&#45;&gt;Node6</title>
<g id="a_edge5_Node000001_Node000006"><a xlink:title=" ">
<path fill="none" stroke="#63b8ff" d="M126.84,-49.57C145.82,-45.18 168.53,-39.93 190.28,-34.9"/>
<polygon fill="#63b8ff" stroke="#63b8ff" points="190.78,-38.38 199.73,-32.71 189.2,-31.56 190.78,-38.38"/>
</a>
</g>
</g>
<!-- Node3 -->
<g id="Node000003" class="node">
<title>Node3</title>
<g id="a_Node000003"><a xlink:href="class_basic_element.html#a84f8dd62eabbe3dded6bacf42a783856" target="_top" xlink:title=" ">
<polygon fill="white" stroke="#666666" points="533.25,-136 391.25,-136 391.25,-104 533.25,-104 533.25,-136"/>
<text xml:space="preserve" text-anchor="start" x="399.25" y="-122.5" font-family="Helvetica,sans-Serif" font-size="10.00">BasicElement::notifyPosition</text>
<text xml:space="preserve" text-anchor="middle" x="462.25" y="-110.5" font-family="Helvetica,sans-Serif" font-size="10.00">Changed</text>
</a>
</g>
</g>
<!-- Node2&#45;&gt;Node3 -->
<g id="edge2_Node000002_Node000003" class="edge">
<title>Node2&#45;&gt;Node3</title>
<g id="a_edge2_Node000002_Node000003"><a xlink:title=" ">
<path fill="none" stroke="#63b8ff" d="M339.23,-105.66C352.26,-107.19 366.1,-108.82 379.6,-110.41"/>
<polygon fill="#63b8ff" stroke="#63b8ff" points="378.99,-113.86 389.33,-111.55 379.81,-106.91 378.99,-113.86"/>
</a>
</g>
</g>
<!-- Node4 -->
<g id="Node000004" class="node">
<title>Node4</title>
<g id="a_Node000004"><a xlink:href="class_basic_element.html#a02183bafd7c80f9f1f99a9b9f1631524" target="_top" xlink:title=" ">
<polygon fill="white" stroke="#666666" points="540,-86 384.5,-86 384.5,-66 540,-66 540,-86"/>
<text xml:space="preserve" text-anchor="middle" x="462.25" y="-72.5" font-family="Helvetica,sans-Serif" font-size="10.00">BasicElement::positionChanged</text>
</a>
</g>
</g>
<!-- Node2&#45;&gt;Node4 -->
<g id="edge3_Node000002_Node000004" class="edge">
<title>Node2&#45;&gt;Node4</title>
<g id="a_edge3_Node000002_Node000004"><a xlink:title=" ">
<path fill="none" stroke="#63b8ff" d="M339.23,-90.34C350.07,-89.06 361.48,-87.72 372.79,-86.39"/>
<polygon fill="#63b8ff" stroke="#63b8ff" points="373.01,-89.89 382.53,-85.25 372.19,-82.94 373.01,-89.89"/>
</a>
</g>
</g>
</g>
</svg>
