<?xml version="1.0" encoding="UTF-8" standalone="no"?>
<!DOCTYPE svg PUBLIC "-//W3C//DTD SVG 1.1//EN"
 "http://www.w3.org/Graphics/SVG/1.1/DTD/svg11.dtd">
<!-- Generated by graphviz version 14.1.1 (20251213.1925)
 -->
<!-- Title: DiagramSerializer::loadConnections Pages: 1 -->
<svg width="385pt" height="40pt"
 viewBox="0.00 0.00 385.00 40.00" xmlns="http://www.w3.org/2000/svg" xmlns:xlink="http://www.w3.org/1999/xlink">
<g id="graph0" class="graph" transform="scale(1 1) rotate(0) translate(4 36)">
<title>DiagramSerializer::loadConnections</title>
<!-- Node1 -->
<g id="Node000001" class="node">
<title>Node1</title>
<g id="a_Node000001"><a xlink:title=" ">
<polygon fill="#999999" stroke="#666666" points="376.5,-32 277.25,-32 277.25,0 376.5,0 376.5,-32"/>
<text xml:space="preserve" text-anchor="start" x="285.25" y="-18.5" font-family="Helvetica,sans-Serif" font-size="10.00">DiagramSerializer::</text>
<text xml:space="preserve" text-anchor="middle" x="326.88" y="-6.5" font-family="Helvetica,sans-Serif" font-size="10.00">loadConnections</text>
</a>
</g>
</g>
<!-- Node2 -->
<g id="Node000002" class="node">
<title>Node2</title>
<g id="a_Node000002"><a xlink:href="class_diagram_serializer.html#a003be4c7f5d036e58e3fa047d1d9b0d8" target="_top" xlink:title=" ">
<polygon fill="white" stroke="#666666" points="241.25,-32 142,-32 142,0 241.25,0 241.25,-32"/>
<text xml:space="preserve" text-anchor="start" x="150" y="-18.5" font-family="Helvetica,sans-Serif" font-size="10.00">DiagramSerializer::</text>
<text xml:space="preserve" text-anchor="middle" x="191.62" y="-6.5" font-family="Helvetica,sans-Serif" font-size="10.00">loadDiagram</text>
</a>
</g>
</g>
<!-- Node1&#45;&gt;Node2 -->
<g id="edge1_Node000001_Node000002" class="edge">
<title>Node1&#45;&gt;Node2</title>
<g id="a_edge1_Node000001_Node000002"><a xlink:title=" ">
<path fill="none" stroke="#63b8ff" d="M265.69,-16C257.59,-16 249.36,-16 241.48,-16"/>
<polygon fill="#63b8ff" stroke="#63b8ff" points="265.5,-19.5 275.5,-16 265.5,-12.5 265.5,-19.5"/>
</a>
</g>
</g>
<!-- Node3 -->
<g id="Node000003" class="node">
<title>Node3</title>
<g id="a_Node000003"><a xlink:href="class_diagram_file_manager.html#a24c0e01d7ac53866944eb10948286ed9" target="_top" xlink:title=" ">
<polygon fill="white" stroke="#666666" points="106,-32 0,-32 0,0 106,0 106,-32"/>
<text xml:space="preserve" text-anchor="start" x="8" y="-18.5" font-family="Helvetica,sans-Serif" font-size="10.00">DiagramFileManager</text>
<text xml:space="preserve" text-anchor="middle" x="53" y="-6.5" font-family="Helvetica,sans-Serif" font-size="10.00">::openDiagram</text>
</a>
</g>
</g>
<!-- Node2&#45;&gt;Node3 -->
<g id="edge2_Node000002_Node000003" class="edge">
<title>Node2&#45;&gt;Node3</title>
<g id="a_edge2_Node000002_Node000003"><a xlink:title=" ">
<path fill="none" stroke="#63b8ff" d="M130.17,-16C122.21,-16 114.1,-16 106.29,-16"/>
<polygon fill="#63b8ff" stroke="#63b8ff" points="130.17,-19.5 140.17,-16 130.17,-12.5 130.17,-19.5"/>
</a>
</g>
</g>
</g>
</svg>
