<?xml version="1.0" encoding="UTF-8" standalone="no"?>
<!DOCTYPE svg PUBLIC "-//W3C//DTD SVG 1.1//EN"
 "http://www.w3.org/Graphics/SVG/1.1/DTD/svg11.dtd">
<!-- Generated by graphviz version 14.1.1 (20251213.1925)
 -->
<!-- Title: MainWindow::createSidePanel Pages: 1 -->
<svg width="703pt" height="116pt"
 viewBox="0.00 0.00 703.00 116.00" xmlns="http://www.w3.org/2000/svg" xmlns:xlink="http://www.w3.org/1999/xlink">
<g id="graph0" class="graph" transform="scale(1 1) rotate(0) translate(4 112)">
<title>MainWindow::createSidePanel</title>
<!-- Node1 -->
<g id="Node000001" class="node">
<title>Node1</title>
<g id="a_Node000001"><a xlink:title=" ">
<polygon fill="#999999" stroke="#666666" points="149.5,-70 0,-70 0,-50 149.5,-50 149.5,-70"/>
<text xml:space="preserve" text-anchor="middle" x="74.75" y="-56.5" font-family="Helvetica,sans-Serif" font-size="10.00">MainWindow::createSidePanel</text>
</a>
</g>
</g>
<!-- Node2 -->
<g id="Node000002" class="node">
<title>Node2</title>
<g id="a_Node000002"><a xlink:href="class_main_window.html#a2b7e0ad982cc26a1351f1530ea090b5b" target="_top" xlink:title=" ">
<polygon fill="white" stroke="#666666" points="326.75,-76 185.5,-76 185.5,-44 326.75,-44 326.75,-76"/>
<text xml:space="preserve" text-anchor="start" x="193.5" y="-62.5" font-family="Helvetica,sans-Serif" font-size="10.00">MainWindow::createDrawing</text>
<text xml:space="preserve" text-anchor="middle" x="256.12" y="-50.5" font-family="Helvetica,sans-Serif" font-size="10.00">Button</text>
</a>
</g>
</g>
<!-- Node1&#45;&gt;Node2 -->
<g id="edge1_Node000001_Node000002" class="edge">
<title>Node1&#45;&gt;Node2</title>
<g id="a_edge1_Node000001_Node000002"><a xlink:title=" ">
<path fill="none" stroke="#63b8ff" d="M149.74,-60C157.68,-60 165.79,-60 173.8,-60"/>
<polygon fill="#63b8ff" stroke="#63b8ff" points="173.54,-63.5 183.54,-60 173.54,-56.5 173.54,-63.5"/>
</a>
</g>
</g>
<!-- Node3 -->
<g id="Node000003" class="node">
<title>Node3</title>
<g id="a_Node000003"><a xlink:href="class_main_window.html#a618482f2eb3e3a2eb8c5937f6374c79a" target="_top" xlink:title=" ">
<polygon fill="white" stroke="#666666" points="504.75,-76 362.75,-76 362.75,-44 504.75,-44 504.75,-76"/>
<text xml:space="preserve" text-anchor="start" x="370.75" y="-62.5" font-family="Helvetica,sans-Serif" font-size="10.00">MainWindow::onAddElement</text>
<text xml:space="preserve" text-anchor="middle" x="433.75" y="-50.5" font-family="Helvetica,sans-Serif" font-size="10.00">Clicked</text>
</a>
</g>
</g>
<!-- Node2&#45;&gt;Node3 -->
<g id="edge2_Node000002_Node000003" class="edge">
<title>Node2&#45;&gt;Node3</title>
<g id="a_edge2_Node000002_Node000003"><a xlink:title=" ">
<path fill="none" stroke="#63b8ff" d="M327.04,-60C334.97,-60 343.11,-60 351.17,-60"/>
<polygon fill="#63b8ff" stroke="#63b8ff" points="350.99,-63.5 360.99,-60 350.99,-56.5 350.99,-63.5"/>
</a>
</g>
</g>
<!-- Node4 -->
<g id="Node000004" class="node">
<title>Node4</title>
<g id="a_Node000004"><a xlink:href="class_element_factory.html#a84bb24abdffea9682c5c007bc7792927" target="_top" xlink:title=" ">
<polygon fill="white" stroke="#666666" points="694.75,-108 540.75,-108 540.75,-88 694.75,-88 694.75,-108"/>
<text xml:space="preserve" text-anchor="middle" x="617.75" y="-94.5" font-family="Helvetica,sans-Serif" font-size="10.00">ElementFactory::createElement</text>
</a>
</g>
</g>
<!-- Node3&#45;&gt;Node4 -->
<g id="edge3_Node000003_Node000004" class="edge">
<title>Node3&#45;&gt;Node4</title>
<g id="a_edge3_Node000003_Node000004"><a xlink:title=" ">
<path fill="none" stroke="#63b8ff" d="M505.12,-74.69C521.78,-78.17 539.41,-81.85 555.62,-85.24"/>
<polygon fill="#63b8ff" stroke="#63b8ff" points="554.61,-88.6 565.11,-87.22 556.04,-81.75 554.61,-88.6"/>
</a>
</g>
</g>
<!-- Node5 -->
<g id="Node000005" class="node">
<title>Node5</title>
<g id="a_Node000005"><a xlink:href="class_main_window.html#a51ab21a1be4a1389a00bdb35feee8d64" target="_top" xlink:title=" ">
<polygon fill="white" stroke="#666666" points="693.25,-70 542.25,-70 542.25,-50 693.25,-50 693.25,-70"/>
<text xml:space="preserve" text-anchor="middle" x="617.75" y="-56.5" font-family="Helvetica,sans-Serif" font-size="10.00">MainWindow::updateStatusBar</text>
</a>
</g>
</g>
<!-- Node3&#45;&gt;Node5 -->
<g id="edge4_Node000003_Node000005" class="edge">
<title>Node3&#45;&gt;Node5</title>
<g id="a_edge4_Node000003_Node000005"><a xlink:title=" ">
<path fill="none" stroke="#63b8ff" d="M505.12,-60C513.53,-60 522.2,-60 530.8,-60"/>
<polygon fill="#63b8ff" stroke="#63b8ff" points="530.54,-63.5 540.54,-60 530.54,-56.5 530.54,-63.5"/>
</a>
</g>
</g>
<!-- Node6 -->
<g id="Node000006" class="node">
<title>Node6</title>
<g id="a_Node000006"><a xlink:href="class_main_window.html#a90cfbcf2e0f2549760a60f184ee0acbf" target="_top" xlink:title=" ">
<polygon fill="white" stroke="#666666" points="689.12,-32 546.38,-32 546.38,0 689.12,0 689.12,-32"/>
<text xml:space="preserve" text-anchor="start" x="554.38" y="-18.5" font-family="Helvetica,sans-Serif" font-size="10.00">MainWindow::updateWindow</text>
<text xml:space="preserve" text-anchor="middle" x="617.75" y="-6.5" font-family="Helvetica,sans-Serif" font-size="10.00">Title</text>
</a>
</g>
</g>
<!-- Node3&#45;&gt;Node6 -->
<g id="edge5_Node000003_Node000006" class="edge">
<title>Node3&#45;&gt;Node6</title>
<g id="a_edge5_Node000003_Node000006"><a xlink:title=" ">
<path fill="none" stroke="#63b8ff" d="M502.78,-43.55C514.1,-40.82 525.93,-37.96 537.51,-35.16"/>
<polygon fill="#63b8ff" stroke="#63b8ff" points="538.13,-38.61 547.03,-32.86 536.49,-31.8 538.13,-38.61"/>
</a>
</g>
</g>
</g>
</svg>
