<?xml version="1.0" encoding="UTF-8" standalone="no"?>
<!DOCTYPE svg PUBLIC "-//W3C//DTD SVG 1.1//EN"
 "http://www.w3.org/Graphics/SVG/1.1/DTD/svg11.dtd">
<!-- Generated by graphviz version 14.1.1 (20251213.1925)
 -->
<!-- Title: Entity::preferredSize Pages: 1 -->
<svg width="331pt" height="113pt"
 viewBox="0.00 0.00 331.00 113.00" xmlns="http://www.w3.org/2000/svg" xmlns:xlink="http://www.w3.org/1999/xlink">
<g id="graph0" class="graph" transform="scale(1 1) rotate(0) translate(4 109)">
<title>Entity::preferredSize</title>
<!-- Node1 -->
<g id="Node000001" class="node">
<title>Node1</title>
<g id="a_Node000001"><a xlink:title=" ">
<polygon fill="#999999" stroke="#666666" points="323.25,-58 218,-58 218,-38 323.25,-38 323.25,-58"/>
<text xml:space="preserve" text-anchor="middle" x="270.62" y="-44.5" font-family="Helvetica,sans-Serif" font-size="10.00">Entity::preferredSize</text>
</a>
</g>
</g>
<!-- Node2 -->
<g id="Node000002" class="node">
<title>Node2</title>
<g id="a_Node000002"><a xlink:href="class_entity.html#a34cdf84f2657fd59a07265c37d94c88d" target="_top" xlink:title=" ">
<polygon fill="white" stroke="#666666" points="73,-105 0,-105 0,-85 73,-85 73,-105"/>
<text xml:space="preserve" text-anchor="middle" x="36.5" y="-91.5" font-family="Helvetica,sans-Serif" font-size="10.00">Entity::Entity</text>
</a>
</g>
</g>
<!-- Node1&#45;&gt;Node2 -->
<g id="edge1_Node000001_Node000002" class="edge">
<title>Node1&#45;&gt;Node2</title>
<g id="a_edge1_Node000001_Node000002"><a xlink:title=" ">
<path fill="none" stroke="#63b8ff" d="M239.92,-63.44C223.33,-71.32 202.03,-80.22 182,-85 145.68,-93.67 102.87,-95.65 73.33,-95.78"/>
<polygon fill="#63b8ff" stroke="#63b8ff" points="241.28,-66.68 248.72,-59.14 238.2,-60.39 241.28,-66.68"/>
</a>
</g>
</g>
<!-- Node3 -->
<g id="Node000003" class="node">
<title>Node3</title>
<g id="a_Node000003"><a xlink:href="class_entity.html#ae562b28c015c3e376453d4b6dcf34f73" target="_top" xlink:title=" ">
<polygon fill="white" stroke="#666666" points="73,-20 0,-20 0,0 73,0 73,-20"/>
<text xml:space="preserve" text-anchor="middle" x="36.5" y="-6.5" font-family="Helvetica,sans-Serif" font-size="10.00">Entity::Entity</text>
</a>
</g>
</g>
<!-- Node1&#45;&gt;Node3 -->
<g id="edge2_Node000001_Node000003" class="edge">
<title>Node1&#45;&gt;Node3</title>
<g id="a_edge2_Node000001_Node000003"><a xlink:title=" ">
<path fill="none" stroke="#63b8ff" d="M213.59,-35.13C203.12,-32.93 192.25,-30.78 182,-29 145.11,-22.59 102.57,-17.24 73.25,-13.87"/>
<polygon fill="#63b8ff" stroke="#63b8ff" points="212.75,-38.53 223.26,-37.2 214.21,-31.68 212.75,-38.53"/>
</a>
</g>
</g>
<!-- Node4 -->
<g id="Node000004" class="node">
<title>Node4</title>
<g id="a_Node000004"><a xlink:href="class_entity.html#a832667fda0ef14f127465d2837132244" target="_top" xlink:title=" ">
<polygon fill="white" stroke="#666666" points="182,-58 109,-58 109,-38 182,-38 182,-58"/>
<text xml:space="preserve" text-anchor="middle" x="145.5" y="-44.5" font-family="Helvetica,sans-Serif" font-size="10.00">Entity::Entity</text>
</a>
</g>
</g>
<!-- Node1&#45;&gt;Node4 -->
<g id="edge3_Node000001_Node000004" class="edge">
<title>Node1&#45;&gt;Node4</title>
<g id="a_edge3_Node000001_Node000004"><a xlink:title=" ">
<path fill="none" stroke="#63b8ff" d="M206.46,-48C198.15,-48 189.87,-48 182.25,-48"/>
<polygon fill="#63b8ff" stroke="#63b8ff" points="206.25,-51.5 216.25,-48 206.25,-44.5 206.25,-51.5"/>
</a>
</g>
</g>
<!-- Node4&#45;&gt;Node2 -->
<g id="edge5_Node000004_Node000002" class="edge">
<title>Node4&#45;&gt;Node2</title>
<g id="a_edge5_Node000004_Node000002"><a xlink:title=" ">
<path fill="none" stroke="#63b8ff" d="M110.65,-62.87C94.56,-69.94 75.71,-78.21 61.18,-84.6"/>
<polygon fill="#63b8ff" stroke="#63b8ff" points="111.62,-66.27 119.37,-59.04 108.8,-59.86 111.62,-66.27"/>
</a>
</g>
</g>
<!-- Node4&#45;&gt;Node3 -->
<g id="edge6_Node000004_Node000003" class="edge">
<title>Node4&#45;&gt;Node3</title>
<g id="a_edge6_Node000004_Node000003"><a xlink:title=" ">
<path fill="none" stroke="#63b8ff" d="M104.39,-33.76C91.96,-29.34 78.49,-24.56 66.93,-20.45"/>
<polygon fill="#63b8ff" stroke="#63b8ff" points="102.96,-36.96 113.55,-37.01 105.3,-30.36 102.96,-36.96"/>
</a>
</g>
</g>
<!-- Node4&#45;&gt;Node4 -->
<g id="edge7_Node000004_Node000004" class="edge">
<title>Node4&#45;&gt;Node4</title>
<g id="a_edge7_Node000004_Node000004"><a xlink:title=" ">
<path fill="none" stroke="#63b8ff" d="M164.77,-69.44C162.28,-73.3 155.86,-76 145.5,-76 126.55,-76 120.78,-66.98 128.18,-58.34"/>
<polygon fill="#63b8ff" stroke="#63b8ff" points="168.25,-69.08 163.08,-59.83 161.36,-70.28 168.25,-69.08"/>
</a>
</g>
</g>
<!-- Node5 -->
<g id="Node000005" class="node">
<title>Node5</title>
<g id="a_Node000005"><a xlink:href="class_entity.html#a31504f27be637a877dec58aab9815109" target="_top" xlink:title=" ">
<polygon fill="white" stroke="#666666" points="73,-58 0,-58 0,-38 73,-38 73,-58"/>
<text xml:space="preserve" text-anchor="middle" x="36.5" y="-44.5" font-family="Helvetica,sans-Serif" font-size="10.00">Entity::Entity</text>
</a>
</g>
</g>
<!-- Node4&#45;&gt;Node5 -->
<g id="edge4_Node000004_Node000005" class="edge">
<title>Node4&#45;&gt;Node5</title>
<g id="a_edge4_Node000004_Node000005"><a xlink:title=" ">
<path fill="none" stroke="#63b8ff" d="M97.31,-48C89.2,-48 80.89,-48 73.15,-48"/>
<polygon fill="#63b8ff" stroke="#63b8ff" points="97.06,-51.5 107.06,-48 97.06,-44.5 97.06,-51.5"/>
</a>
</g>
</g>
</g>
</svg>
