<?xml version="1.0" encoding="UTF-8" standalone="no"?>
<!DOCTYPE svg PUBLIC "-//W3C//DTD SVG 1.1//EN"
 "http://www.w3.org/Graphics/SVG/1.1/DTD/svg11.dtd">
<!-- Generated by graphviz version 14.1.1 (20251213.1925)
 -->
<!-- Title: MainWindow::performAutoSave Pages: 1 -->
<svg width="1054pt" height="159pt"
 viewBox="0.00 0.00 1054.00 159.00" xmlns="http://www.w3.org/2000/svg" xmlns:xlink="http://www.w3.org/1999/xlink">
<g id="graph0" class="graph" transform="scale(1 1) rotate(0) translate(4 155)">
<title>MainWindow::performAutoSave</title>
<!-- Node1 -->
<g id="Node000001" class="node">
<title>Node1</title>
<g id="a_Node000001"><a xlink:title=" ">
<polygon fill="#999999" stroke="#666666" points="154,-95 0,-95 0,-75 154,-75 154,-95"/>
<text xml:space="preserve" text-anchor="middle" x="77" y="-81.5" font-family="Helvetica,sans-Serif" font-size="10.00">MainWindow::performAutoSave</text>
</a>
</g>
</g>
<!-- Node2 -->
<g id="Node000002" class="node">
<title>Node2</title>
<g id="a_Node000002"><a xlink:href="class_main_window.html#a693447d92823e56c0b2ca11b27be99c8" target="_top" xlink:title=" ">
<polygon fill="white" stroke="#666666" points="336.12,-151 199.38,-151 199.38,-119 336.12,-119 336.12,-151"/>
<text xml:space="preserve" text-anchor="start" x="207.38" y="-137.5" font-family="Helvetica,sans-Serif" font-size="10.00">MainWindow::cleanOldAuto</text>
<text xml:space="preserve" text-anchor="middle" x="267.75" y="-125.5" font-family="Helvetica,sans-Serif" font-size="10.00">SaveFiles</text>
</a>
</g>
</g>
<!-- Node1&#45;&gt;Node2 -->
<g id="edge1_Node000001_Node000002" class="edge">
<title>Node1&#45;&gt;Node2</title>
<g id="a_edge1_Node000001_Node000002"><a xlink:title=" ">
<path fill="none" stroke="#63b8ff" d="M117.57,-95.48C139.61,-101.32 167.75,-108.77 193.64,-115.63"/>
<polygon fill="#63b8ff" stroke="#63b8ff" points="192.55,-118.96 203.11,-118.14 194.34,-112.2 192.55,-118.96"/>
</a>
</g>
</g>
<!-- Node3 -->
<g id="Node000003" class="node">
<title>Node3</title>
<g id="a_Node000003"><a xlink:href="class_main_window.html#ae7ae4d876af9ec4b32587c25558e2e47" target="_top" xlink:title=" ">
<polygon fill="white" stroke="#666666" points="335.75,-101 199.75,-101 199.75,-69 335.75,-69 335.75,-101"/>
<text xml:space="preserve" text-anchor="start" x="207.75" y="-87.5" font-family="Helvetica,sans-Serif" font-size="10.00">MainWindow::generateAuto</text>
<text xml:space="preserve" text-anchor="middle" x="267.75" y="-75.5" font-family="Helvetica,sans-Serif" font-size="10.00">SaveFileName</text>
</a>
</g>
</g>
<!-- Node1&#45;&gt;Node3 -->
<g id="edge2_Node000001_Node000003" class="edge">
<title>Node1&#45;&gt;Node3</title>
<g id="a_edge2_Node000001_Node000003"><a xlink:title=" ">
<path fill="none" stroke="#63b8ff" d="M154.5,-85C165.57,-85 176.99,-85 188.1,-85"/>
<polygon fill="#63b8ff" stroke="#63b8ff" points="188.04,-88.5 198.04,-85 188.04,-81.5 188.04,-88.5"/>
</a>
</g>
</g>
<!-- Node4 -->
<g id="Node000004" class="node">
<title>Node4</title>
<g id="a_Node000004"><a xlink:href="class_json_helper.html#a7f720f1105f91b135fdfbcaf94e3f929" target="_top" xlink:title=" ">
<polygon fill="white" stroke="#666666" points="345.5,-51 190,-51 190,-31 345.5,-31 345.5,-51"/>
<text xml:space="preserve" text-anchor="middle" x="267.75" y="-37.5" font-family="Helvetica,sans-Serif" font-size="10.00">JsonHelper::saveDiagramToFile</text>
</a>
</g>
</g>
<!-- Node1&#45;&gt;Node4 -->
<g id="edge3_Node000001_Node000004" class="edge">
<title>Node1&#45;&gt;Node4</title>
<g id="a_edge3_Node000001_Node000004"><a xlink:title=" ">
<path fill="none" stroke="#63b8ff" d="M122.73,-74.57C149.2,-68.4 182.94,-60.54 211.12,-53.97"/>
<polygon fill="#63b8ff" stroke="#63b8ff" points="211.59,-57.45 220.54,-51.77 210.01,-50.63 211.59,-57.45"/>
</a>
</g>
</g>
<!-- Node5 -->
<g id="Node000005" class="node">
<title>Node5</title>
<g id="a_Node000005"><a xlink:href="class_json_helper.html#a3dc80512edb9b1f8bc8e50015e27e864" target="_top" xlink:title=" ">
<polygon fill="white" stroke="#666666" points="519,-57 381.5,-57 381.5,-25 519,-25 519,-57"/>
<text xml:space="preserve" text-anchor="start" x="389.5" y="-43.5" font-family="Helvetica,sans-Serif" font-size="10.00">JsonHelper::diagramToJson</text>
<text xml:space="preserve" text-anchor="middle" x="450.25" y="-31.5" font-family="Helvetica,sans-Serif" font-size="10.00">Object</text>
</a>
</g>
</g>
<!-- Node4&#45;&gt;Node5 -->
<g id="edge4_Node000004_Node000005" class="edge">
<title>Node4&#45;&gt;Node5</title>
<g id="a_edge4_Node000004_Node000005"><a xlink:title=" ">
<path fill="none" stroke="#63b8ff" d="M345.82,-41C353.83,-41 361.98,-41 370.02,-41"/>
<polygon fill="#63b8ff" stroke="#63b8ff" points="369.76,-44.5 379.76,-41 369.76,-37.5 369.76,-44.5"/>
</a>
</g>
</g>
<!-- Node6 -->
<g id="Node000006" class="node">
<title>Node6</title>
<g id="a_Node000006"><a xlink:href="class_json_helper.html#ace49a2bdc031d44388b744f93da1fd6d" target="_top" xlink:title=" ">
<polygon fill="white" stroke="#666666" points="688.38,-82 559.12,-82 559.12,-50 688.38,-50 688.38,-82"/>
<text xml:space="preserve" text-anchor="start" x="567.12" y="-68.5" font-family="Helvetica,sans-Serif" font-size="10.00">JsonHelper::connectionTo</text>
<text xml:space="preserve" text-anchor="middle" x="623.75" y="-56.5" font-family="Helvetica,sans-Serif" font-size="10.00">JsonObject</text>
</a>
</g>
</g>
<!-- Node5&#45;&gt;Node6 -->
<g id="edge5_Node000005_Node000006" class="edge">
<title>Node5&#45;&gt;Node6</title>
<g id="a_edge5_Node000005_Node000006"><a xlink:title=" ">
<path fill="none" stroke="#63b8ff" d="M519.03,-50.88C528.45,-52.25 538.18,-53.67 547.72,-55.06"/>
<polygon fill="#63b8ff" stroke="#63b8ff" points="546.92,-58.48 557.32,-56.46 547.93,-51.56 546.92,-58.48"/>
</a>
</g>
</g>
<!-- Node11 -->
<g id="Node000011" class="node">
<title>Node11</title>
<g id="a_Node000011"><a xlink:href="class_json_helper.html#a2141a614711cf449951f1ebde5a9b119" target="_top" xlink:title=" ">
<polygon fill="white" stroke="#666666" points="692.5,-32 555,-32 555,0 692.5,0 692.5,-32"/>
<text xml:space="preserve" text-anchor="start" x="563" y="-18.5" font-family="Helvetica,sans-Serif" font-size="10.00">JsonHelper::elementToJson</text>
<text xml:space="preserve" text-anchor="middle" x="623.75" y="-6.5" font-family="Helvetica,sans-Serif" font-size="10.00">Object</text>
</a>
</g>
</g>
<!-- Node5&#45;&gt;Node11 -->
<g id="edge10_Node000005_Node000011" class="edge">
<title>Node5&#45;&gt;Node11</title>
<g id="a_edge10_Node000005_Node000011"><a xlink:title=" ">
<path fill="none" stroke="#63b8ff" d="M519.03,-31.12C526.99,-29.96 535.16,-28.77 543.25,-27.59"/>
<polygon fill="#63b8ff" stroke="#63b8ff" points="543.73,-31.06 553.12,-26.15 542.72,-24.13 543.73,-31.06"/>
</a>
</g>
</g>
<!-- Node7 -->
<g id="Node000007" class="node">
<title>Node7</title>
<g id="a_Node000007"><a xlink:href="class_connection_line.html#a89b03bf381274e4504b1cde0f32972ee" target="_top" xlink:title=" ">
<polygon fill="white" stroke="#666666" points="854,-76 728.5,-76 728.5,-56 854,-56 854,-76"/>
<text xml:space="preserve" text-anchor="middle" x="791.25" y="-62.5" font-family="Helvetica,sans-Serif" font-size="10.00">ConnectionLine::serialize</text>
</a>
</g>
</g>
<!-- Node6&#45;&gt;Node7 -->
<g id="edge6_Node000006_Node000007" class="edge">
<title>Node6&#45;&gt;Node7</title>
<g id="a_edge6_Node000006_Node000007"><a xlink:title=" ">
<path fill="none" stroke="#63b8ff" d="M688.74,-66C697.92,-66 707.43,-66 716.78,-66"/>
<polygon fill="#63b8ff" stroke="#63b8ff" points="716.55,-69.5 726.55,-66 716.55,-62.5 716.55,-69.5"/>
</a>
</g>
</g>
<!-- Node8 -->
<g id="Node000008" class="node">
<title>Node8</title>
<g id="a_Node000008"><a xlink:href="class_connection_line.html#ab11952b505976244aabc575e0ec7b118" target="_top" xlink:title=" ">
<polygon fill="white" stroke="#666666" points="1046.25,-120 890,-120 890,-100 1046.25,-100 1046.25,-120"/>
<text xml:space="preserve" text-anchor="middle" x="968.12" y="-106.5" font-family="Helvetica,sans-Serif" font-size="10.00">ConnectionLine::getEndElement</text>
</a>
</g>
</g>
<!-- Node7&#45;&gt;Node8 -->
<g id="edge7_Node000007_Node000008" class="edge">
<title>Node7&#45;&gt;Node8</title>
<g id="a_edge7_Node000007_Node000008"><a xlink:title=" ">
<path fill="none" stroke="#63b8ff" d="M832.65,-76.42C850.26,-80.94 871.14,-86.27 890,-91 897.55,-92.89 905.51,-94.88 913.34,-96.82"/>
<polygon fill="#63b8ff" stroke="#63b8ff" points="912.26,-100.15 922.8,-99.15 913.94,-93.36 912.26,-100.15"/>
</a>
</g>
</g>
<!-- Node9 -->
<g id="Node000009" class="node">
<title>Node9</title>
<g id="a_Node000009"><a xlink:href="class_connection_line.html#ad957be37b7bbb9250366225fd357a5a6" target="_top" xlink:title=" ">
<polygon fill="white" stroke="#666666" points="1030.12,-82 906.12,-82 906.12,-50 1030.12,-50 1030.12,-82"/>
<text xml:space="preserve" text-anchor="start" x="914.12" y="-68.5" font-family="Helvetica,sans-Serif" font-size="10.00">ConnectionLine::getStart</text>
<text xml:space="preserve" text-anchor="middle" x="968.12" y="-56.5" font-family="Helvetica,sans-Serif" font-size="10.00">Element</text>
</a>
</g>
</g>
<!-- Node7&#45;&gt;Node9 -->
<g id="edge8_Node000007_Node000009" class="edge">
<title>Node7&#45;&gt;Node9</title>
<g id="a_edge8_Node000007_Node000009"><a xlink:title=" ">
<path fill="none" stroke="#63b8ff" d="M854.4,-66C867.3,-66 881.02,-66 894.27,-66"/>
<polygon fill="#63b8ff" stroke="#63b8ff" points="894.25,-69.5 904.25,-66 894.25,-62.5 894.25,-69.5"/>
</a>
</g>
</g>
<!-- Node10 -->
<g id="Node000010" class="node">
<title>Node10</title>
<g id="a_Node000010"><a xlink:href="class_connection_line.html#aacfed243a999c948c87dab84ebc508aa" target="_top" xlink:title=" ">
<polygon fill="white" stroke="#666666" points="1033.12,-32 903.12,-32 903.12,-12 1033.12,-12 1033.12,-32"/>
<text xml:space="preserve" text-anchor="middle" x="968.12" y="-18.5" font-family="Helvetica,sans-Serif" font-size="10.00">ConnectionLine::lineWidth</text>
</a>
</g>
</g>
<!-- Node7&#45;&gt;Node10 -->
<g id="edge9_Node000007_Node000010" class="edge">
<title>Node7&#45;&gt;Node10</title>
<g id="a_edge9_Node000007_Node000010"><a xlink:title=" ">
<path fill="none" stroke="#63b8ff" d="M832.65,-55.58C850.26,-51.06 871.14,-45.73 890,-41 897.55,-39.11 905.51,-37.12 913.34,-35.18"/>
<polygon fill="#63b8ff" stroke="#63b8ff" points="913.94,-38.64 922.8,-32.85 912.26,-31.85 913.94,-38.64"/>
</a>
</g>
</g>
<!-- Node12 -->
<g id="Node000012" class="node">
<title>Node12</title>
<g id="a_Node000012"><a xlink:href="class_basic_element.html#a56f5f9a22723d2a99d87c7508b0bec7f" target="_top" xlink:title=" ">
<polygon fill="white" stroke="#666666" points="850.62,-26 731.88,-26 731.88,-6 850.62,-6 850.62,-26"/>
<text xml:space="preserve" text-anchor="middle" x="791.25" y="-12.5" font-family="Helvetica,sans-Serif" font-size="10.00">BasicElement::serialize</text>
</a>
</g>
</g>
<!-- Node11&#45;&gt;Node12 -->
<g id="edge11_Node000011_Node000012" class="edge">
<title>Node11&#45;&gt;Node12</title>
<g id="a_edge11_Node000011_Node000012"><a xlink:title=" ">
<path fill="none" stroke="#63b8ff" d="M692.54,-16C701.64,-16 710.99,-16 720.13,-16"/>
<polygon fill="#63b8ff" stroke="#63b8ff" points="720.05,-19.5 730.05,-16 720.05,-12.5 720.05,-19.5"/>
</a>
</g>
</g>
</g>
</svg>
