<?xml version="1.0" encoding="UTF-8" standalone="no"?>
<!DOCTYPE svg PUBLIC "-//W3C//DTD SVG 1.1//EN"
 "http://www.w3.org/Graphics/SVG/1.1/DTD/svg11.dtd">
<!-- Generated by graphviz version 14.1.1 (20251213.1925)
 -->
<!-- Title: BasicElement::serialize Pages: 1 -->
<!--zoomable 170 -->

<svg id="main" version="1.1" xmlns="http://www.w3.org/2000/svg" xmlns:xlink="http://www.w3.org/1999/xlink" xml:space="preserve" onload="init(evt)">

<style type="text/css"><![CDATA[
.node, .edge {opacity: 0.7;}
.node.selected, .edge.selected {opacity: 1;}
.edge:hover path { stroke: red; }
.edge:hover polygon { stroke: red; fill: red; }
]]></style>

<defs>
  <circle id="rim" cx="0" cy="0" r="7"/>
  <circle id="rim2" cx="0" cy="0" r="3.5"/>
  <g id="zoomPlus">
    <use xlink:href="#rim" fill="#404040"><set attributeName="fill" to="#808080" begin="zoomplus.mouseover" end="zoomplus.mouseout"/></use>
    <path d="M-4,0h8M0,-4v8" fill="none" stroke="white" stroke-width="1.5" pointer-events="none"/>
  </g>
  <g id="zoomMin">
    <use xlink:href="#rim" fill="#404040"><set attributeName="fill" to="#808080" begin="zoomminus.mouseover" end="zoomminus.mouseout"/></use>
    <path d="M-4,0h8" fill="none" stroke="white" stroke-width="1.5" pointer-events="none"/>
  </g>
  <g id="arrowUp" transform="translate(30 24)">
    <use xlink:href="#rim"/>
    <path pointer-events="none" fill="none" stroke="white" stroke-width="1.5" d="M0,-3.0v7 M-2.5,-0.5L0,-3.0L2.5,-0.5"/>
  </g>
  <g id="arrowRight" transform="rotate(90) translate(36 -43)">
    <use xlink:href="#rim"/>
    <path pointer-events="none" fill="none" stroke="white" stroke-width="1.5" d="M0,-3.0v7 M-2.5,-0.5L0,-3.0L2.5,-0.5"/>
  </g>
  <g id="arrowDown" transform="rotate(180) translate(-30 -48)">
    <use xlink:href="#rim"/>
    <path pointer-events="none" fill="none" stroke="white" stroke-width="1.5" d="M0,-3.0v7 M-2.5,-0.5L0,-3.0L2.5,-0.5"/>
  </g>
  <g id="arrowLeft" transform="rotate(270) translate(-36 17)">
    <use xlink:href="#rim"/>
    <path pointer-events="none" fill="none" stroke="white" stroke-width="1.5" d="M0,-3.0v7 M-2.5,-0.5L0,-3.0L2.5,-0.5"/>
  </g>
  <g id="resetDef">
    <use xlink:href="#rim2" fill="#404040"><set attributeName="fill" to="#808080" begin="reset.mouseover" end="reset.mouseout"/></use>
  </g>
</defs>
<script type="application/ecmascript">
var viewWidth = 753;
var viewHeight = 170;
var sectionId = 'dynsection-22';
</script>
<script type="application/ecmascript" xlink:href="svg.min.js"/>
<svg id="graph" class="graph">
<g id="viewport">
<title>BasicElement::serialize</title>
<!-- Node1 -->
<g id="Node000001" class="node">
<title>Node1</title>
<g id="a_Node000001"><a xlink:title=" ">
<polygon fill="#999999" stroke="#666666" points="744.5,-77 625.75,-77 625.75,-57 744.5,-57 744.5,-77"/>
<text xml:space="preserve" text-anchor="middle" x="685.12" y="-63.5" font-family="Helvetica,sans-Serif" font-size="10.00">BasicElement::serialize</text>
</a>
</g>
</g>
<!-- Node2 -->
<g id="Node000002" class="node">
<title>Node2</title>
<g id="a_Node000002"><a xlink:href="class_diagram_serializer.html#aebb8ae92fc17cafe0b0d08f92073661e" target="_top" xlink:title=" ">
<polygon fill="white" stroke="#666666" points="589,-146 478.5,-146 478.5,-114 589,-114 589,-146"/>
<text xml:space="preserve" text-anchor="start" x="486.5" y="-132.5" font-family="Helvetica,sans-Serif" font-size="10.00">DiagramSerializer::</text>
<text xml:space="preserve" text-anchor="middle" x="533.75" y="-120.5" font-family="Helvetica,sans-Serif" font-size="10.00">elementToJsonObject</text>
</a>
</g>
</g>
<!-- Node1&#45;&gt;Node2 -->
<g id="edge1_Node000001_Node000002" class="edge">
<title>Node1&#45;&gt;Node2</title>
<g id="a_edge1_Node000001_Node000002"><a xlink:title=" ">
<path fill="none" stroke="#63b8ff" d="M648.98,-81.82C626.41,-91.34 597.07,-103.72 573.78,-113.54"/>
<polygon fill="#63b8ff" stroke="#63b8ff" points="650.21,-85.1 658.06,-77.99 647.49,-78.65 650.21,-85.1"/>
</a>
</g>
</g>
<!-- Node7 -->
<g id="Node000007" class="node">
<title>Node7</title>
<g id="a_Node000007"><a xlink:href="class_attribute.html#ae8c14a45321be32454ef200c5be0591c" target="_top" xlink:title=" ">
<polygon fill="white" stroke="#666666" points="581.12,-96 486.38,-96 486.38,-76 581.12,-76 581.12,-96"/>
<text xml:space="preserve" text-anchor="middle" x="533.75" y="-82.5" font-family="Helvetica,sans-Serif" font-size="10.00">Attribute::serialize</text>
</a>
</g>
</g>
<!-- Node1&#45;&gt;Node7 -->
<g id="edge6_Node000001_Node000007" class="edge">
<title>Node1&#45;&gt;Node7</title>
<g id="a_edge6_Node000001_Node000007"><a xlink:title=" ">
<path fill="none" stroke="#63b8ff" d="M614.36,-75.87C603.11,-77.3 591.71,-78.75 581.19,-80.09"/>
<polygon fill="#63b8ff" stroke="#63b8ff" points="614.54,-79.38 624.02,-74.65 613.65,-72.44 614.54,-79.38"/>
</a>
</g>
</g>
<!-- Node8 -->
<g id="Node000008" class="node">
<title>Node8</title>
<g id="a_Node000008"><a xlink:href="class_entity.html#a8f633bc5c2eb2f16b85b9ca166b63a32" target="_top" xlink:title=" ">
<polygon fill="white" stroke="#666666" points="575.5,-58 492,-58 492,-38 575.5,-38 575.5,-58"/>
<text xml:space="preserve" text-anchor="middle" x="533.75" y="-44.5" font-family="Helvetica,sans-Serif" font-size="10.00">Entity::serialize</text>
</a>
</g>
</g>
<!-- Node1&#45;&gt;Node8 -->
<g id="edge7_Node000001_Node000008" class="edge">
<title>Node1&#45;&gt;Node8</title>
<g id="a_edge7_Node000001_Node000008"><a xlink:title=" ">
<path fill="none" stroke="#63b8ff" d="M614.45,-58.14C601.17,-56.45 587.68,-54.73 575.67,-53.2"/>
<polygon fill="#63b8ff" stroke="#63b8ff" points="613.65,-61.56 624.02,-59.35 614.54,-54.62 613.65,-61.56"/>
</a>
</g>
</g>
<!-- Node9 -->
<g id="Node000009" class="node">
<title>Node9</title>
<g id="a_Node000009"><a xlink:href="class_relationship.html#a61fd3cf9518d2e93e4d0629269a37334" target="_top" xlink:title=" ">
<polygon fill="white" stroke="#666666" points="589.75,-20 477.75,-20 477.75,0 589.75,0 589.75,-20"/>
<text xml:space="preserve" text-anchor="middle" x="533.75" y="-6.5" font-family="Helvetica,sans-Serif" font-size="10.00">Relationship::serialize</text>
</a>
</g>
</g>
<!-- Node1&#45;&gt;Node9 -->
<g id="edge8_Node000001_Node000009" class="edge">
<title>Node1&#45;&gt;Node9</title>
<g id="a_edge8_Node000001_Node000009"><a xlink:title=" ">
<path fill="none" stroke="#63b8ff" d="M649,-52.37C631.31,-45.12 609.48,-36.37 589.75,-29 582.09,-26.13 573.76,-23.18 565.97,-20.48"/>
<polygon fill="#63b8ff" stroke="#63b8ff" points="647.44,-55.51 658.02,-56.08 650.1,-49.04 647.44,-55.51"/>
</a>
</g>
</g>
<!-- Node3 -->
<g id="Node000003" class="node">
<title>Node3</title>
<g id="a_Node000003"><a xlink:href="class_diagram_serializer.html#a957a2a2f28fe9d1d257ff01154872608" target="_top" xlink:title=" ">
<polygon fill="white" stroke="#666666" points="441.75,-146 331.25,-146 331.25,-114 441.75,-114 441.75,-146"/>
<text xml:space="preserve" text-anchor="start" x="339.25" y="-132.5" font-family="Helvetica,sans-Serif" font-size="10.00">DiagramSerializer::</text>
<text xml:space="preserve" text-anchor="middle" x="386.5" y="-120.5" font-family="Helvetica,sans-Serif" font-size="10.00">diagramToJsonObject</text>
</a>
</g>
</g>
<!-- Node2&#45;&gt;Node3 -->
<g id="edge2_Node000002_Node000003" class="edge">
<title>Node2&#45;&gt;Node3</title>
<g id="a_edge2_Node000002_Node000003"><a xlink:title=" ">
<path fill="none" stroke="#63b8ff" d="M466.92,-130C458.53,-130 450.01,-130 441.82,-130"/>
<polygon fill="#63b8ff" stroke="#63b8ff" points="466.74,-133.5 476.74,-130 466.74,-126.5 466.74,-133.5"/>
</a>
</g>
</g>
<!-- Node4 -->
<g id="Node000004" class="node">
<title>Node4</title>
<g id="a_Node000004"><a xlink:href="class_diagram_serializer.html#af41f90138bda3c05cb4a37c709682770" target="_top" xlink:title=" ">
<polygon fill="white" stroke="#666666" points="295.25,-146 195.25,-146 195.25,-114 295.25,-114 295.25,-146"/>
<text xml:space="preserve" text-anchor="start" x="203.25" y="-132.5" font-family="Helvetica,sans-Serif" font-size="10.00">DiagramSerializer::</text>
<text xml:space="preserve" text-anchor="middle" x="245.25" y="-120.5" font-family="Helvetica,sans-Serif" font-size="10.00">saveDiagramToFile</text>
</a>
</g>
</g>
<!-- Node3&#45;&gt;Node4 -->
<g id="edge3_Node000003_Node000004" class="edge">
<title>Node3&#45;&gt;Node4</title>
<g id="a_edge3_Node000003_Node000004"><a xlink:title=" ">
<path fill="none" stroke="#63b8ff" d="M319.6,-130C311.57,-130 303.48,-130 295.74,-130"/>
<polygon fill="#63b8ff" stroke="#63b8ff" points="319.35,-133.5 329.35,-130 319.35,-126.5 319.35,-133.5"/>
</a>
</g>
</g>
<!-- Node5 -->
<g id="Node000005" class="node">
<title>Node5</title>
<g id="a_Node000005"><a xlink:href="class_auto_save_manager.html#a23c137dda32115b244ed8422369cc2e0" target="_top" xlink:title=" ">
<polygon fill="white" stroke="#666666" points="159.25,-162 0,-162 0,-142 159.25,-142 159.25,-162"/>
<text xml:space="preserve" text-anchor="middle" x="79.62" y="-148.5" font-family="Helvetica,sans-Serif" font-size="10.00">AutoSaveManager::executeSave</text>
</a>
</g>
</g>
<!-- Node4&#45;&gt;Node5 -->
<g id="edge4_Node000004_Node000005" class="edge">
<title>Node4&#45;&gt;Node5</title>
<g id="a_edge4_Node000004_Node000005"><a xlink:title=" ">
<path fill="none" stroke="#63b8ff" d="M183.75,-138.13C175.5,-139.24 166.95,-140.39 158.45,-141.54"/>
<polygon fill="#63b8ff" stroke="#63b8ff" points="184.21,-141.6 193.66,-136.8 183.28,-134.67 184.21,-141.6"/>
</a>
</g>
</g>
<!-- Node6 -->
<g id="Node000006" class="node">
<title>Node6</title>
<g id="a_Node000006"><a xlink:href="class_diagram_file_manager.html#a84a364087a0eecd1c416b05615fe1f0b" target="_top" xlink:title=" ">
<polygon fill="white" stroke="#666666" points="132.62,-124 26.62,-124 26.62,-92 132.62,-92 132.62,-124"/>
<text xml:space="preserve" text-anchor="start" x="34.62" y="-110.5" font-family="Helvetica,sans-Serif" font-size="10.00">DiagramFileManager</text>
<text xml:space="preserve" text-anchor="middle" x="79.62" y="-98.5" font-family="Helvetica,sans-Serif" font-size="10.00">::saveDiagram</text>
</a>
</g>
</g>
<!-- Node4&#45;&gt;Node6 -->
<g id="edge5_Node000004_Node000006" class="edge">
<title>Node4&#45;&gt;Node6</title>
<g id="a_edge5_Node000004_Node000006"><a xlink:title=" ">
<path fill="none" stroke="#63b8ff" d="M183.86,-121.88C167.21,-119.64 149.27,-117.23 133.1,-115.06"/>
<polygon fill="#63b8ff" stroke="#63b8ff" points="183.28,-125.33 193.66,-123.2 184.21,-118.4 183.28,-125.33"/>
</a>
</g>
</g>
</g>
</svg>

<g id="navigator" transform="translate(0 0)" fill="#404254">
  <rect fill="#f2f5e9" fill-opacity="0.5" stroke="#606060" stroke-width=".5" x="0" y="0" width="60" height="60"/>
  <use id="zoomplus" xlink:href="#zoomPlus" x="17" y="9" onmousedown="handleZoom(evt,'in')"/>
  <use id="zoomminus" xlink:href="#zoomMin" x="42" y="9" onmousedown="handleZoom(evt,'out')"/>
  <use id="reset" xlink:href="#resetDef" x="30" y="36" onmousedown="handleReset()"/>
   <use id="arrowup" xlink:href="#arrowUp" x="0" y="0" onmousedown="handlePan(0,-1)"/>
  <use id="arrowright" xlink:href="#arrowRight" x="0" y="0" onmousedown="handlePan(1,0)"/>
  <use id="arrowdown" xlink:href="#arrowDown" x="0" y="0" onmousedown="handlePan(0,1)"/>
  <use id="arrowleft" xlink:href="#arrowLeft" x="0" y="0" onmousedown="handlePan(-1,0)"/>
</g>
<svg viewBox="0 0 15 15" width="100%" height="30px" preserveAspectRatio="xMaxYMin meet">
 <g id="arrow_out" transform="scale(0.3 0.3)">
  <a xlink:href="class_basic_element_a56f5f9a22723d2a99d87c7508b0bec7f_icgraph_org.svg" target="_base">
   <rect id="button" ry="5" rx="5" y="6" x="6" height="38" width="38"
        fill="#f2f5e9" fill-opacity="0.5" stroke="#606060" stroke-width="1.0"/>
   <path id="arrow"
     d="M 11.500037,31.436501 C 11.940474,20.09759 22.043105,11.32322 32.158766,21.979434 L 37.068811,17.246167 C 37.068811,17.246167 37.088388,32 37.088388,32 L 22.160133,31.978069 C 22.160133,31.978069 26.997745,27.140456 26.997745,27.140456 C 18.528582,18.264221 13.291696,25.230495 11.500037,31.436501 z"
     style="fill:#404040;"/>
  </a>
 </g>
</svg>

<style type='text/css'>
<![CDATA[
[data-mouse-over-selected='false'] { opacity: 0.7; }
[data-mouse-over-selected='true']  { opacity: 1.0; }
]]>
</style>
<script type="application/ecmascript"><![CDATA[
document.addEventListener('DOMContentLoaded', (event) => {
  highlightEdges();
  highlightAdjacentNodes();
});
]]></script>
</svg>
