<?xml version="1.0" encoding="UTF-8" standalone="no"?>
<!DOCTYPE svg PUBLIC "-//W3C//DTD SVG 1.1//EN"
 "http://www.w3.org/Graphics/SVG/1.1/DTD/svg11.dtd">
<!-- Generated by graphviz version 14.1.1 (20251213.1925)
 -->
<!-- Title: DiagramScene::deleteSelected Pages: 1 -->
<svg width="1153pt" height="228pt"
 viewBox="0.00 0.00 1153.00 228.00" xmlns="http://www.w3.org/2000/svg" xmlns:xlink="http://www.w3.org/1999/xlink">
<g id="graph0" class="graph" transform="scale(1 1) rotate(0) translate(4 224)">
<title>DiagramScene::deleteSelected</title>
<!-- Node1 -->
<g id="Node000001" class="node">
<title>Node1</title>
<g id="a_Node000001"><a xlink:title=" ">
<polygon fill="#999999" stroke="#666666" points="151,-120 0,-120 0,-100 151,-100 151,-120"/>
<text xml:space="preserve" text-anchor="middle" x="75.5" y="-106.5" font-family="Helvetica,sans-Serif" font-size="10.00">DiagramScene::deleteSelected</text>
</a>
</g>
</g>
<!-- Node2 -->
<g id="Node000002" class="node">
<title>Node2</title>
<g id="a_Node000002"><a xlink:href="class_diagram_scene.html#a496c60851a94026b46ba80b647e4eb47" target="_top" xlink:title=" ">
<polygon fill="white" stroke="#666666" points="338.38,-220 200.12,-220 200.12,-188 338.38,-188 338.38,-220"/>
<text xml:space="preserve" text-anchor="start" x="208.12" y="-206.5" font-family="Helvetica,sans-Serif" font-size="10.00">DiagramScene::getSelected</text>
<text xml:space="preserve" text-anchor="middle" x="269.25" y="-194.5" font-family="Helvetica,sans-Serif" font-size="10.00">Connections</text>
</a>
</g>
</g>
<!-- Node1&#45;&gt;Node2 -->
<g id="edge1_Node000001_Node000002" class="edge">
<title>Node1&#45;&gt;Node2</title>
<g id="a_edge1_Node000001_Node000002"><a xlink:title=" ">
<path fill="none" stroke="#63b8ff" d="M90.48,-120.41C110.82,-135.15 150.17,-162.18 187,-179 190.53,-180.61 194.19,-182.16 197.92,-183.63"/>
<polygon fill="#63b8ff" stroke="#63b8ff" points="196.55,-186.85 207.14,-187.07 198.99,-180.29 196.55,-186.85"/>
</a>
</g>
</g>
<!-- Node3 -->
<g id="Node000003" class="node">
<title>Node3</title>
<g id="a_Node000003"><a xlink:href="class_diagram_scene.html#aef557b645a95aaa376592146d4c6c60e" target="_top" xlink:title=" ">
<polygon fill="white" stroke="#666666" points="338.38,-170 200.12,-170 200.12,-138 338.38,-138 338.38,-170"/>
<text xml:space="preserve" text-anchor="start" x="208.12" y="-156.5" font-family="Helvetica,sans-Serif" font-size="10.00">DiagramScene::getSelected</text>
<text xml:space="preserve" text-anchor="middle" x="269.25" y="-144.5" font-family="Helvetica,sans-Serif" font-size="10.00">Elements</text>
</a>
</g>
</g>
<!-- Node1&#45;&gt;Node3 -->
<g id="edge2_Node000001_Node000003" class="edge">
<title>Node1&#45;&gt;Node3</title>
<g id="a_edge2_Node000001_Node000003"><a xlink:title=" ">
<path fill="none" stroke="#63b8ff" d="M121.94,-120.43C141.93,-125.01 166,-130.54 188.8,-135.77"/>
<polygon fill="#63b8ff" stroke="#63b8ff" points="187.86,-139.14 198.39,-137.97 189.43,-132.32 187.86,-139.14"/>
</a>
</g>
</g>
<!-- Node4 -->
<g id="Node000004" class="node">
<title>Node4</title>
<g id="a_Node000004"><a xlink:href="class_diagram_scene.html#a5d546daf9d3a3d5155b611ec31c4dccb" target="_top" xlink:title=" ">
<polygon fill="white" stroke="#666666" points="747.25,-92 579,-92 579,-72 747.25,-72 747.25,-92"/>
<text xml:space="preserve" text-anchor="middle" x="663.12" y="-78.5" font-family="Helvetica,sans-Serif" font-size="10.00">DiagramScene::removeConnection</text>
</a>
</g>
</g>
<!-- Node1&#45;&gt;Node4 -->
<g id="edge3_Node000001_Node000004" class="edge">
<title>Node1&#45;&gt;Node4</title>
<g id="a_edge3_Node000001_Node000004"><a xlink:title=" ">
<path fill="none" stroke="#63b8ff" d="M151.27,-107.75C243.44,-104.8 404.83,-99.03 543,-91 550.81,-90.55 558.91,-90.03 567.03,-89.48"/>
<polygon fill="#63b8ff" stroke="#63b8ff" points="567.27,-92.97 577.01,-88.79 566.79,-85.99 567.27,-92.97"/>
</a>
</g>
</g>
<!-- Node10 -->
<g id="Node000010" class="node">
<title>Node10</title>
<g id="a_Node000010"><a xlink:href="class_diagram_scene.html#ae531fa5ccfc6393d5a60f956a652118d" target="_top" xlink:title=" ">
<polygon fill="white" stroke="#666666" points="346.62,-79 191.88,-79 191.88,-59 346.62,-59 346.62,-79"/>
<text xml:space="preserve" text-anchor="middle" x="269.25" y="-65.5" font-family="Helvetica,sans-Serif" font-size="10.00">DiagramScene::removeElement</text>
</a>
</g>
</g>
<!-- Node1&#45;&gt;Node10 -->
<g id="edge11_Node000001_Node000010" class="edge">
<title>Node1&#45;&gt;Node10</title>
<g id="a_edge11_Node000001_Node000010"><a xlink:title=" ">
<path fill="none" stroke="#63b8ff" d="M125.38,-99.55C150.63,-94.15 181.64,-87.52 208.32,-81.81"/>
<polygon fill="#63b8ff" stroke="#63b8ff" points="208.93,-85.26 217.98,-79.75 207.47,-78.42 208.93,-85.26"/>
</a>
</g>
</g>
<!-- Node14 -->
<g id="Node000014" class="node">
<title>Node14</title>
<g id="a_Node000014"><a xlink:href="class_diagram_scene.html#a7dbb09a9acecc803601560e50ad720ea" target="_top" xlink:title=" ">
<polygon fill="white" stroke="#666666" points="351.5,-41 187,-41 187,-21 351.5,-21 351.5,-41"/>
<text xml:space="preserve" text-anchor="middle" x="269.25" y="-27.5" font-family="Helvetica,sans-Serif" font-size="10.00">DiagramScene::selectionChanged</text>
</a>
</g>
</g>
<!-- Node1&#45;&gt;Node14 -->
<g id="edge16_Node000001_Node000014" class="edge">
<title>Node1&#45;&gt;Node14</title>
<g id="a_edge16_Node000001_Node000014"><a xlink:title=" ">
<path fill="none" stroke="#63b8ff" d="M92.32,-99.63C113.21,-86.37 151.5,-63.51 187,-50 192.28,-47.99 197.84,-46.15 203.46,-44.48"/>
<polygon fill="#63b8ff" stroke="#63b8ff" points="204.16,-47.92 212.86,-41.87 202.29,-41.18 204.16,-47.92"/>
</a>
</g>
</g>
<!-- Node5 -->
<g id="Node000005" class="node">
<title>Node5</title>
<g id="a_Node000005"><a xlink:href="class_diagram_scene.html#af24fc3dc11041bb31e4f0627f0a09e75" target="_top" xlink:title=" ">
<polygon fill="white" stroke="#666666" points="943.62,-73 791.88,-73 791.88,-41 943.62,-41 943.62,-73"/>
<text xml:space="preserve" text-anchor="start" x="799.88" y="-59.5" font-family="Helvetica,sans-Serif" font-size="10.00">DiagramScene::handleAttribute</text>
<text xml:space="preserve" text-anchor="middle" x="867.75" y="-47.5" font-family="Helvetica,sans-Serif" font-size="10.00">Disconnection</text>
</a>
</g>
</g>
<!-- Node4&#45;&gt;Node5 -->
<g id="edge4_Node000004_Node000005" class="edge">
<title>Node4&#45;&gt;Node5</title>
<g id="a_edge4_Node000004_Node000005"><a xlink:title=" ">
<path fill="none" stroke="#63b8ff" d="M747.71,-71.69C758.47,-70.36 769.51,-69 780.31,-67.66"/>
<polygon fill="#63b8ff" stroke="#63b8ff" points="780.47,-71.17 789.97,-66.47 779.61,-64.22 780.47,-71.17"/>
</a>
</g>
</g>
<!-- Node9 -->
<g id="Node000009" class="node">
<title>Node9</title>
<g id="a_Node000009"><a xlink:href="class_diagram_scene.html#a244ffcbacfc985e542579c0e112cfd52" target="_top" xlink:title=" ">
<polygon fill="white" stroke="#666666" points="952.25,-123 783.25,-123 783.25,-91 952.25,-91 952.25,-123"/>
<text xml:space="preserve" text-anchor="start" x="791.25" y="-109.5" font-family="Helvetica,sans-Serif" font-size="10.00">DiagramScene::handleRelationship</text>
<text xml:space="preserve" text-anchor="middle" x="867.75" y="-97.5" font-family="Helvetica,sans-Serif" font-size="10.00">Disconnection</text>
</a>
</g>
</g>
<!-- Node4&#45;&gt;Node9 -->
<g id="edge8_Node000004_Node000009" class="edge">
<title>Node4&#45;&gt;Node9</title>
<g id="a_edge8_Node000004_Node000009"><a xlink:title=" ">
<path fill="none" stroke="#63b8ff" d="M747.71,-92.31C755.64,-93.29 763.72,-94.29 771.74,-95.28"/>
<polygon fill="#63b8ff" stroke="#63b8ff" points="771.17,-98.73 781.53,-96.49 772.03,-91.79 771.17,-98.73"/>
</a>
</g>
</g>
<!-- Node6 -->
<g id="Node000006" class="node">
<title>Node6</title>
<g id="a_Node000006"><a xlink:href="class_connection_line.html#ab11952b505976244aabc575e0ec7b118" target="_top" xlink:title=" ">
<polygon fill="white" stroke="#666666" points="1144.5,-73 988.25,-73 988.25,-53 1144.5,-53 1144.5,-73"/>
<text xml:space="preserve" text-anchor="middle" x="1066.38" y="-59.5" font-family="Helvetica,sans-Serif" font-size="10.00">ConnectionLine::getEndElement</text>
</a>
</g>
</g>
<!-- Node5&#45;&gt;Node6 -->
<g id="edge5_Node000005_Node000006" class="edge">
<title>Node5&#45;&gt;Node6</title>
<g id="a_edge5_Node000005_Node000006"><a xlink:title=" ">
<path fill="none" stroke="#63b8ff" d="M943.93,-59.29C954.63,-59.62 965.72,-59.96 976.65,-60.29"/>
<polygon fill="#63b8ff" stroke="#63b8ff" points="976.34,-63.78 986.44,-60.59 976.56,-56.79 976.34,-63.78"/>
</a>
</g>
</g>
<!-- Node7 -->
<g id="Node000007" class="node">
<title>Node7</title>
<g id="a_Node000007"><a xlink:href="class_connection_line.html#ad957be37b7bbb9250366225fd357a5a6" target="_top" xlink:title=" ">
<polygon fill="white" stroke="#666666" points="1128.38,-123 1004.38,-123 1004.38,-91 1128.38,-91 1128.38,-123"/>
<text xml:space="preserve" text-anchor="start" x="1012.38" y="-109.5" font-family="Helvetica,sans-Serif" font-size="10.00">ConnectionLine::getStart</text>
<text xml:space="preserve" text-anchor="middle" x="1066.38" y="-97.5" font-family="Helvetica,sans-Serif" font-size="10.00">Element</text>
</a>
</g>
</g>
<!-- Node5&#45;&gt;Node7 -->
<g id="edge6_Node000005_Node000007" class="edge">
<title>Node5&#45;&gt;Node7</title>
<g id="a_edge6_Node000005_Node000007"><a xlink:title=" ">
<path fill="none" stroke="#63b8ff" d="M933.4,-73.44C952.49,-78.29 973.49,-83.64 993.03,-88.6"/>
<polygon fill="#63b8ff" stroke="#63b8ff" points="992,-91.95 1002.55,-91.02 993.72,-85.17 992,-91.95"/>
</a>
</g>
</g>
<!-- Node8 -->
<g id="Node000008" class="node">
<title>Node8</title>
<g id="a_Node000008"><a xlink:href="class_connection_line.html#aea85162c28f293b1df0cce97d57bb471" target="_top" xlink:title=" ">
<polygon fill="white" stroke="#666666" points="1125.38,-35 1007.38,-35 1007.38,-15 1125.38,-15 1125.38,-35"/>
<text xml:space="preserve" text-anchor="middle" x="1066.38" y="-21.5" font-family="Helvetica,sans-Serif" font-size="10.00">ConnectionLine::isValid</text>
</a>
</g>
</g>
<!-- Node5&#45;&gt;Node8 -->
<g id="edge7_Node000005_Node000008" class="edge">
<title>Node5&#45;&gt;Node8</title>
<g id="a_edge7_Node000005_Node000008"><a xlink:title=" ">
<path fill="none" stroke="#63b8ff" d="M943.93,-44.77C961.09,-41.97 979.25,-39.02 996.15,-36.27"/>
<polygon fill="#63b8ff" stroke="#63b8ff" points="996.25,-39.8 1005.56,-34.73 995.13,-32.89 996.25,-39.8"/>
</a>
</g>
</g>
<!-- Node9&#45;&gt;Node6 -->
<g id="edge9_Node000009_Node000006" class="edge">
<title>Node9&#45;&gt;Node6</title>
<g id="a_edge9_Node000009_Node000006"><a xlink:title=" ">
<path fill="none" stroke="#63b8ff" d="M942.25,-90.55C963.78,-85.73 987.02,-80.53 1007.44,-75.96"/>
<polygon fill="#63b8ff" stroke="#63b8ff" points="1008,-79.43 1016.99,-73.83 1006.47,-72.6 1008,-79.43"/>
</a>
</g>
</g>
<!-- Node9&#45;&gt;Node7 -->
<g id="edge10_Node000009_Node000007" class="edge">
<title>Node9&#45;&gt;Node7</title>
<g id="a_edge10_Node000009_Node000007"><a xlink:title=" ">
<path fill="none" stroke="#63b8ff" d="M952.71,-107C966.03,-107 979.71,-107 992.74,-107"/>
<polygon fill="#63b8ff" stroke="#63b8ff" points="992.49,-110.5 1002.49,-107 992.49,-103.5 992.49,-110.5"/>
</a>
</g>
</g>
<!-- Node11 -->
<g id="Node000011" class="node">
<title>Node11</title>
<g id="a_Node000011"><a xlink:href="class_diagram_scene.html#ad8f482915e4991d8ba601f691086fbdc" target="_top" xlink:title=" ">
<polygon fill="white" stroke="#666666" points="543,-82 387.5,-82 387.5,-50 543,-50 543,-82"/>
<text xml:space="preserve" text-anchor="start" x="395.5" y="-68.5" font-family="Helvetica,sans-Serif" font-size="10.00">DiagramScene::removeAttribute</text>
<text xml:space="preserve" text-anchor="middle" x="465.25" y="-56.5" font-family="Helvetica,sans-Serif" font-size="10.00">FromParents</text>
</a>
</g>
</g>
<!-- Node10&#45;&gt;Node11 -->
<g id="edge12_Node000010_Node000011" class="edge">
<title>Node10&#45;&gt;Node11</title>
<g id="a_edge12_Node000010_Node000011"><a xlink:title=" ">
<path fill="none" stroke="#63b8ff" d="M346.92,-67.81C356.44,-67.67 366.23,-67.52 375.9,-67.37"/>
<polygon fill="#63b8ff" stroke="#63b8ff" points="375.72,-70.87 385.67,-67.22 375.61,-63.87 375.72,-70.87"/>
</a>
</g>
</g>
<!-- Node12 -->
<g id="Node000012" class="node">
<title>Node12</title>
<g id="a_Node000012"><a xlink:href="class_diagram_scene.html#a0d026405c431d3aca9494d64296bb956" target="_top" xlink:title=" ">
<polygon fill="white" stroke="#666666" points="542.62,-32 387.88,-32 387.88,0 542.62,0 542.62,-32"/>
<text xml:space="preserve" text-anchor="start" x="395.88" y="-18.5" font-family="Helvetica,sans-Serif" font-size="10.00">DiagramScene::removeElement</text>
<text xml:space="preserve" text-anchor="middle" x="465.25" y="-6.5" font-family="Helvetica,sans-Serif" font-size="10.00">Connections</text>
</a>
</g>
</g>
<!-- Node10&#45;&gt;Node12 -->
<g id="edge13_Node000010_Node000012" class="edge">
<title>Node10&#45;&gt;Node12</title>
<g id="a_edge13_Node000010_Node000012"><a xlink:title=" ">
<path fill="none" stroke="#63b8ff" d="M317.21,-58.55C328.47,-55.9 340.44,-52.96 351.5,-50 367.71,-45.67 385.11,-40.62 401.28,-35.76"/>
<polygon fill="#63b8ff" stroke="#63b8ff" points="402.24,-39.12 410.79,-32.87 400.21,-32.42 402.24,-39.12"/>
</a>
</g>
</g>
<!-- Node12&#45;&gt;Node4 -->
<g id="edge15_Node000012_Node000004" class="edge">
<title>Node12&#45;&gt;Node4</title>
<g id="a_edge15_Node000012_Node000004"><a xlink:title=" ">
<path fill="none" stroke="#63b8ff" d="M517.07,-32.42C525.73,-35.26 534.63,-38.2 543,-41 569.2,-49.78 598.55,-59.87 621.56,-67.85"/>
<polygon fill="#63b8ff" stroke="#63b8ff" points="620.28,-71.11 630.88,-71.09 622.58,-64.5 620.28,-71.11"/>
</a>
</g>
</g>
<!-- Node13 -->
<g id="Node000013" class="node">
<title>Node13</title>
<g id="a_Node000013"><a xlink:href="class_diagram_scene.html#a40c9b85a9f304007a227b9db63178d08" target="_top" xlink:title=" ">
<polygon fill="white" stroke="#666666" points="746.12,-26 580.12,-26 580.12,-6 746.12,-6 746.12,-26"/>
<text xml:space="preserve" text-anchor="middle" x="663.12" y="-12.5" font-family="Helvetica,sans-Serif" font-size="10.00">DiagramScene::getAllConnections</text>
</a>
</g>
</g>
<!-- Node12&#45;&gt;Node13 -->
<g id="edge14_Node000012_Node000013" class="edge">
<title>Node12&#45;&gt;Node13</title>
<g id="a_edge14_Node000012_Node000013"><a xlink:title=" ">
<path fill="none" stroke="#63b8ff" d="M543.1,-16C551.36,-16 559.82,-16 568.24,-16"/>
<polygon fill="#63b8ff" stroke="#63b8ff" points="568.16,-19.5 578.16,-16 568.16,-12.5 568.16,-19.5"/>
</a>
</g>
</g>
</g>
</svg>
