<?xml version="1.0" encoding="UTF-8" standalone="no"?>
<!DOCTYPE svg PUBLIC "-//W3C//DTD SVG 1.1//EN"
 "http://www.w3.org/Graphics/SVG/1.1/DTD/svg11.dtd">
<!-- Generated by graphviz version 14.1.1 (20251213.1925)
 -->
<!-- Title: MainWindow::exitApplication Pages: 1 -->
<svg width="831pt" height="28pt"
 viewBox="0.00 0.00 831.00 28.00" xmlns="http://www.w3.org/2000/svg" xmlns:xlink="http://www.w3.org/1999/xlink">
<g id="graph0" class="graph" transform="scale(1 1) rotate(0) translate(4 24)">
<title>MainWindow::exitApplication</title>
<!-- Node1 -->
<g id="Node000001" class="node">
<title>Node1</title>
<g id="a_Node000001"><a xlink:title=" ">
<polygon fill="#999999" stroke="#666666" points="822.5,-20 680.5,-20 680.5,0 822.5,0 822.5,-20"/>
<text xml:space="preserve" text-anchor="middle" x="751.5" y="-6.5" font-family="Helvetica,sans-Serif" font-size="10.00">MainWindow::exitApplication</text>
</a>
</g>
</g>
<!-- Node2 -->
<g id="Node000002" class="node">
<title>Node2</title>
<g id="a_Node000002"><a xlink:href="class_main_window.html#aaf455232cccaa422fc4c371fa99bff84" target="_top" xlink:title=" ">
<polygon fill="white" stroke="#666666" points="644.5,-20 499.5,-20 499.5,0 644.5,0 644.5,-20"/>
<text xml:space="preserve" text-anchor="middle" x="572" y="-6.5" font-family="Helvetica,sans-Serif" font-size="10.00">MainWindow::createFileMenu</text>
</a>
</g>
</g>
<!-- Node1&#45;&gt;Node2 -->
<g id="edge1_Node000001_Node000002" class="edge">
<title>Node1&#45;&gt;Node2</title>
<g id="a_edge1_Node000001_Node000002"><a xlink:title=" ">
<path fill="none" stroke="#63b8ff" d="M668.82,-10C660.8,-10 652.69,-10 644.78,-10"/>
<polygon fill="#63b8ff" stroke="#63b8ff" points="668.58,-13.5 678.58,-10 668.58,-6.5 668.58,-13.5"/>
</a>
</g>
</g>
<!-- Node3 -->
<g id="Node000003" class="node">
<title>Node3</title>
<g id="a_Node000003"><a xlink:href="class_main_window.html#a2305527bb5d827ae07967ea1c86ee6fb" target="_top" xlink:title=" ">
<polygon fill="white" stroke="#666666" points="463.5,-20 319.25,-20 319.25,0 463.5,0 463.5,-20"/>
<text xml:space="preserve" text-anchor="middle" x="391.38" y="-6.5" font-family="Helvetica,sans-Serif" font-size="10.00">MainWindow::createMenuBar</text>
</a>
</g>
</g>
<!-- Node2&#45;&gt;Node3 -->
<g id="edge2_Node000002_Node000003" class="edge">
<title>Node2&#45;&gt;Node3</title>
<g id="a_edge2_Node000002_Node000003"><a xlink:title=" ">
<path fill="none" stroke="#63b8ff" d="M487.84,-10C479.81,-10 471.72,-10 463.82,-10"/>
<polygon fill="#63b8ff" stroke="#63b8ff" points="487.6,-13.5 497.6,-10 487.6,-6.5 487.6,-13.5"/>
</a>
</g>
</g>
<!-- Node4 -->
<g id="Node000004" class="node">
<title>Node4</title>
<g id="a_Node000004"><a xlink:href="class_main_window.html#a3a304253c9e7caeef028f75358bf1fd5" target="_top" xlink:title=" ">
<polygon fill="white" stroke="#666666" points="283.25,-20 170.5,-20 170.5,0 283.25,0 283.25,-20"/>
<text xml:space="preserve" text-anchor="middle" x="226.88" y="-6.5" font-family="Helvetica,sans-Serif" font-size="10.00">MainWindow::setupUI</text>
</a>
</g>
</g>
<!-- Node3&#45;&gt;Node4 -->
<g id="edge3_Node000003_Node000004" class="edge">
<title>Node3&#45;&gt;Node4</title>
<g id="a_edge3_Node000003_Node000004"><a xlink:title=" ">
<path fill="none" stroke="#63b8ff" d="M307.85,-10C299.59,-10 291.35,-10 283.46,-10"/>
<polygon fill="#63b8ff" stroke="#63b8ff" points="307.59,-13.5 317.59,-10 307.59,-6.5 307.59,-13.5"/>
</a>
</g>
</g>
<!-- Node5 -->
<g id="Node000005" class="node">
<title>Node5</title>
<g id="a_Node000005"><a xlink:href="class_main_window.html#a996c5a2b6f77944776856f08ec30858d" target="_top" xlink:title=" ">
<polygon fill="white" stroke="#666666" points="134.5,-20 0,-20 0,0 134.5,0 134.5,-20"/>
<text xml:space="preserve" text-anchor="middle" x="67.25" y="-6.5" font-family="Helvetica,sans-Serif" font-size="10.00">MainWindow::MainWindow</text>
</a>
</g>
</g>
<!-- Node4&#45;&gt;Node5 -->
<g id="edge4_Node000004_Node000005" class="edge">
<title>Node4&#45;&gt;Node5</title>
<g id="a_edge4_Node000004_Node000005"><a xlink:title=" ">
<path fill="none" stroke="#63b8ff" d="M158.85,-10C150.93,-10 142.85,-10 134.94,-10"/>
<polygon fill="#63b8ff" stroke="#63b8ff" points="158.79,-13.5 168.79,-10 158.79,-6.5 158.79,-13.5"/>
</a>
</g>
</g>
</g>
</svg>
