<?xml version="1.0" encoding="UTF-8" standalone="no"?>
<!DOCTYPE svg PUBLIC "-//W3C//DTD SVG 1.1//EN"
 "http://www.w3.org/Graphics/SVG/1.1/DTD/svg11.dtd">
<!-- Generated by graphviz version 14.1.1 (20251213.1925)
 -->
<!-- Title: ConnectionLine::lineWidthChanged Pages: 1 -->
<svg width="2332pt" height="561pt"
 viewBox="0.00 0.00 2332.00 561.00" xmlns="http://www.w3.org/2000/svg" xmlns:xlink="http://www.w3.org/1999/xlink">
<g id="graph0" class="graph" transform="scale(1 1) rotate(0) translate(4 557.37)">
<title>ConnectionLine::lineWidthChanged</title>
<!-- Node1 -->
<g id="Node000001" class="node">
<title>Node1</title>
<g id="a_Node000001"><a xlink:title=" ">
<polygon fill="#999999" stroke="#666666" points="2324.25,-424.37 2194.25,-424.37 2194.25,-392.37 2324.25,-392.37 2324.25,-424.37"/>
<text xml:space="preserve" text-anchor="start" x="2202.25" y="-410.87" font-family="Helvetica,sans-Serif" font-size="10.00">ConnectionLine::lineWidth</text>
<text xml:space="preserve" text-anchor="middle" x="2259.25" y="-398.87" font-family="Helvetica,sans-Serif" font-size="10.00">Changed</text>
</a>
</g>
</g>
<!-- Node2 -->
<g id="Node000002" class="node">
<title>Node2</title>
<g id="a_Node000002"><a xlink:href="class_connection_graphics_item.html#ae2812529f5397be162547beaef4b9c51" target="_top" xlink:title=" ">
<polygon fill="white" stroke="#666666" points="2147,-474.37 2023,-474.37 2023,-442.37 2147,-442.37 2147,-474.37"/>
<text xml:space="preserve" text-anchor="start" x="2031" y="-460.87" font-family="Helvetica,sans-Serif" font-size="10.00">ConnectionGraphicsItem</text>
<text xml:space="preserve" text-anchor="middle" x="2085" y="-448.87" font-family="Helvetica,sans-Serif" font-size="10.00">::connectToConnection</text>
</a>
</g>
</g>
<!-- Node1&#45;&gt;Node2 -->
<g id="edge1_Node000001_Node000002" class="edge">
<title>Node1&#45;&gt;Node2</title>
<g id="a_edge1_Node000001_Node000002"><a xlink:title=" ">
<path fill="none" stroke="#63b8ff" d="M2191,-427.89C2175.07,-432.51 2158.23,-437.4 2142.82,-441.87"/>
<polygon fill="#63b8ff" stroke="#63b8ff" points="2191.77,-431.31 2200.4,-425.16 2189.82,-424.59 2191.77,-431.31"/>
</a>
</g>
</g>
<!-- Node5 -->
<g id="Node000005" class="node">
<title>Node5</title>
<g id="a_Node000005"><a xlink:href="class_connection_graphics_item.html#a72e7dac6ba526930e9c71d2aac9b9fd2" target="_top" xlink:title=" ">
<polygon fill="white" stroke="#666666" points="2155.62,-424.37 2014.38,-424.37 2014.38,-392.37 2155.62,-392.37 2155.62,-424.37"/>
<text xml:space="preserve" text-anchor="start" x="2022.38" y="-410.87" font-family="Helvetica,sans-Serif" font-size="10.00">ConnectionGraphicsItem</text>
<text xml:space="preserve" text-anchor="middle" x="2085" y="-398.87" font-family="Helvetica,sans-Serif" font-size="10.00">::disconnectFromConnection</text>
</a>
</g>
</g>
<!-- Node1&#45;&gt;Node5 -->
<g id="edge4_Node000001_Node000005" class="edge">
<title>Node1&#45;&gt;Node5</title>
<g id="a_edge4_Node000001_Node000005"><a xlink:title=" ">
<path fill="none" stroke="#63b8ff" d="M2182.89,-408.37C2173.95,-408.37 2164.84,-408.37 2155.98,-408.37"/>
<polygon fill="#63b8ff" stroke="#63b8ff" points="2182.6,-411.87 2192.6,-408.37 2182.6,-404.87 2182.6,-411.87"/>
</a>
</g>
</g>
<!-- Node7 -->
<g id="Node000007" class="node">
<title>Node7</title>
<g id="a_Node000007"><a xlink:href="class_connection_line.html#a7983d6ddbc5414ad75bfc9e16b78ea90" target="_top" xlink:title=" ">
<polygon fill="white" stroke="#666666" points="2158.25,-374.37 2011.75,-374.37 2011.75,-354.37 2158.25,-354.37 2158.25,-374.37"/>
<text xml:space="preserve" text-anchor="middle" x="2085" y="-360.87" font-family="Helvetica,sans-Serif" font-size="10.00">ConnectionLine::setLineWidth</text>
</a>
</g>
</g>
<!-- Node1&#45;&gt;Node7 -->
<g id="edge6_Node000001_Node000007" class="edge">
<title>Node1&#45;&gt;Node7</title>
<g id="a_edge6_Node000001_Node000007"><a xlink:title=" ">
<path fill="none" stroke="#63b8ff" d="M2183.17,-389.19C2163.86,-384.26 2143.8,-379.13 2126.95,-374.83"/>
<polygon fill="#63b8ff" stroke="#63b8ff" points="2182.09,-392.53 2192.64,-391.61 2183.82,-385.74 2182.09,-392.53"/>
</a>
</g>
</g>
<!-- Node3 -->
<g id="Node000003" class="node">
<title>Node3</title>
<g id="a_Node000003"><a xlink:href="class_connection_graphics_item.html#ab32d398765f9a4cd314e866585ac273d" target="_top" xlink:title=" ">
<polygon fill="white" stroke="#666666" points="1966,-474.37 1836,-474.37 1836,-442.37 1966,-442.37 1966,-474.37"/>
<text xml:space="preserve" text-anchor="start" x="1844" y="-460.87" font-family="Helvetica,sans-Serif" font-size="10.00">ConnectionGraphicsItem</text>
<text xml:space="preserve" text-anchor="middle" x="1901" y="-448.87" font-family="Helvetica,sans-Serif" font-size="10.00">::ConnectionGraphicsItem</text>
</a>
</g>
</g>
<!-- Node2&#45;&gt;Node3 -->
<g id="edge2_Node000002_Node000003" class="edge">
<title>Node2&#45;&gt;Node3</title>
<g id="a_edge2_Node000002_Node000003"><a xlink:title=" ">
<path fill="none" stroke="#63b8ff" d="M2011.38,-458.37C1996.44,-458.37 1980.82,-458.37 1966.21,-458.37"/>
<polygon fill="#63b8ff" stroke="#63b8ff" points="2011.12,-461.87 2021.12,-458.37 2011.12,-454.87 2011.12,-461.87"/>
</a>
</g>
</g>
<!-- Node4 -->
<g id="Node000004" class="node">
<title>Node4</title>
<g id="a_Node000004"><a xlink:href="class_relationship_connection_line_graphics_item.html#a55839fb084501f42fc8a6e7f08cff4ba" target="_top" xlink:title=" ">
<polygon fill="white" stroke="#666666" points="1790.25,-480.37 1606.25,-480.37 1606.25,-436.37 1790.25,-436.37 1790.25,-480.37"/>
<text xml:space="preserve" text-anchor="start" x="1614.25" y="-466.87" font-family="Helvetica,sans-Serif" font-size="10.00">RelationshipConnectionLine</text>
<text xml:space="preserve" text-anchor="start" x="1614.25" y="-454.87" font-family="Helvetica,sans-Serif" font-size="10.00">GraphicsItem::RelationshipConnection</text>
<text xml:space="preserve" text-anchor="middle" x="1698.25" y="-442.87" font-family="Helvetica,sans-Serif" font-size="10.00">LineGraphicsItem</text>
</a>
</g>
</g>
<!-- Node3&#45;&gt;Node4 -->
<g id="edge3_Node000003_Node000004" class="edge">
<title>Node3&#45;&gt;Node4</title>
<g id="a_edge3_Node000003_Node000004"><a xlink:title=" ">
<path fill="none" stroke="#63b8ff" d="M1824.36,-458.37C1813.36,-458.37 1801.94,-458.37 1790.66,-458.37"/>
<polygon fill="#63b8ff" stroke="#63b8ff" points="1824.14,-461.87 1834.14,-458.37 1824.14,-454.87 1824.14,-461.87"/>
</a>
</g>
</g>
<!-- Node6 -->
<g id="Node000006" class="node">
<title>Node6</title>
<g id="a_Node000006"><a xlink:href="class_connection_graphics_item.html#a483aaf1b7f1dc4f19a279e56c1adaf74" target="_top" xlink:title=" ">
<polygon fill="white" stroke="#666666" points="1969,-424.37 1833,-424.37 1833,-392.37 1969,-392.37 1969,-424.37"/>
<text xml:space="preserve" text-anchor="start" x="1841" y="-410.87" font-family="Helvetica,sans-Serif" font-size="10.00">ConnectionGraphicsItem</text>
<text xml:space="preserve" text-anchor="middle" x="1901" y="-398.87" font-family="Helvetica,sans-Serif" font-size="10.00">::~ConnectionGraphicsItem</text>
</a>
</g>
</g>
<!-- Node5&#45;&gt;Node6 -->
<g id="edge5_Node000005_Node000006" class="edge">
<title>Node5&#45;&gt;Node6</title>
<g id="a_edge5_Node000005_Node000006"><a xlink:title=" ">
<path fill="none" stroke="#63b8ff" d="M2002.46,-408.37C1991.4,-408.37 1980.15,-408.37 1969.38,-408.37"/>
<polygon fill="#63b8ff" stroke="#63b8ff" points="2002.38,-411.87 2012.38,-408.37 2002.38,-404.87 2002.38,-411.87"/>
</a>
</g>
</g>
<!-- Node8 -->
<g id="Node000008" class="node">
<title>Node8</title>
<g id="a_Node000008"><a xlink:href="class_connection_line.html#ae3606c18d99a61f056d37a755a9d14c0" target="_top" xlink:title=" ">
<polygon fill="white" stroke="#666666" points="1969,-374.37 1833,-374.37 1833,-354.37 1969,-354.37 1969,-374.37"/>
<text xml:space="preserve" text-anchor="middle" x="1901" y="-360.87" font-family="Helvetica,sans-Serif" font-size="10.00">ConnectionLine::deserialize</text>
</a>
</g>
</g>
<!-- Node7&#45;&gt;Node8 -->
<g id="edge7_Node000007_Node000008" class="edge">
<title>Node7&#45;&gt;Node8</title>
<g id="a_edge7_Node000007_Node000008"><a xlink:title=" ">
<path fill="none" stroke="#63b8ff" d="M1999.81,-364.37C1989.58,-364.37 1979.23,-364.37 1969.29,-364.37"/>
<polygon fill="#63b8ff" stroke="#63b8ff" points="1999.77,-367.87 2009.77,-364.37 1999.77,-360.87 1999.77,-367.87"/>
</a>
</g>
</g>
<!-- Node10 -->
<g id="Node000010" class="node">
<title>Node10</title>
<g id="a_Node000010"><a xlink:href="class_main_window.html#a1043995538765eae993ae75217c482e7" target="_top" xlink:title=" ">
<polygon fill="white" stroke="#666666" points="1975.75,-289.37 1826.25,-289.37 1826.25,-257.37 1975.75,-257.37 1975.75,-289.37"/>
<text xml:space="preserve" text-anchor="start" x="1834.25" y="-275.87" font-family="Helvetica,sans-Serif" font-size="10.00">MainWindow::onPropertyValue</text>
<text xml:space="preserve" text-anchor="middle" x="1901" y="-263.87" font-family="Helvetica,sans-Serif" font-size="10.00">Changed</text>
</a>
</g>
</g>
<!-- Node7&#45;&gt;Node10 -->
<g id="edge9_Node000007_Node000010" class="edge">
<title>Node7&#45;&gt;Node10</title>
<g id="a_edge9_Node000007_Node000010"><a xlink:title=" ">
<path fill="none" stroke="#63b8ff" d="M2053.17,-348.95C2020.33,-332.53 1968.53,-306.63 1934.91,-289.82"/>
<polygon fill="#63b8ff" stroke="#63b8ff" points="2051.26,-351.91 2061.77,-353.25 2054.39,-345.65 2051.26,-351.91"/>
</a>
</g>
</g>
<!-- Node9 -->
<g id="Node000009" class="node">
<title>Node9</title>
<g id="a_Node000009"><a xlink:href="class_relationship_connection_line.html#ae096b0c8c07ce5d7d5bd8acfad489f1a" target="_top" xlink:title=" ">
<polygon fill="white" stroke="#666666" points="1767,-399.37 1629.5,-399.37 1629.5,-367.37 1767,-367.37 1767,-399.37"/>
<text xml:space="preserve" text-anchor="start" x="1637.5" y="-385.87" font-family="Helvetica,sans-Serif" font-size="10.00">RelationshipConnectionLine</text>
<text xml:space="preserve" text-anchor="middle" x="1698.25" y="-373.87" font-family="Helvetica,sans-Serif" font-size="10.00">::deserialize</text>
</a>
</g>
</g>
<!-- Node8&#45;&gt;Node9 -->
<g id="edge8_Node000008_Node000009" class="edge">
<title>Node8&#45;&gt;Node9</title>
<g id="a_edge8_Node000008_Node000009"><a xlink:title=" ">
<path fill="none" stroke="#63b8ff" d="M1821.3,-371.82C1803.41,-373.51 1784.56,-375.29 1767.16,-376.94"/>
<polygon fill="#63b8ff" stroke="#63b8ff" points="1821.46,-375.32 1831.09,-370.89 1820.8,-368.35 1821.46,-375.32"/>
</a>
</g>
</g>
<!-- Node11 -->
<g id="Node000011" class="node">
<title>Node11</title>
<g id="a_Node000011"><a xlink:href="class_main_window.html#adfa32feecffce3959c99d145fc8b4854" target="_top" xlink:title=" ">
<polygon fill="white" stroke="#666666" points="1357,-28.37 1212,-28.37 1212,-8.37 1357,-8.37 1357,-28.37"/>
<text xml:space="preserve" text-anchor="middle" x="1284.5" y="-14.87" font-family="Helvetica,sans-Serif" font-size="10.00">MainWindow::connectSignals</text>
</a>
</g>
</g>
<!-- Node10&#45;&gt;Node11 -->
<g id="edge10_Node000010_Node000011" class="edge">
<title>Node10&#45;&gt;Node11</title>
<g id="a_edge10_Node000010_Node000011"><a xlink:title=" ">
<path fill="none" stroke="#63b8ff" d="M1879.14,-248.71C1831.28,-194.31 1707.13,-65.12 1570.25,-18.37 1494.46,7.52 1400.57,0.64 1341.83,-7.9"/>
<polygon fill="#63b8ff" stroke="#63b8ff" points="1876.21,-250.68 1885.42,-255.93 1881.5,-246.09 1876.21,-250.68"/>
</a>
</g>
</g>
<!-- Node13 -->
<g id="Node000013" class="node">
<title>Node13</title>
<g id="a_Node000013"><a xlink:href="class_main_window.html#a5caeae304b10e5cd9f83ef5c6086310b" target="_top" xlink:title=" ">
<polygon fill="white" stroke="#666666" points="1774.12,-267.37 1622.38,-267.37 1622.38,-235.37 1774.12,-235.37 1774.12,-267.37"/>
<text xml:space="preserve" text-anchor="start" x="1630.38" y="-253.87" font-family="Helvetica,sans-Serif" font-size="10.00">MainWindow::updateProperties</text>
<text xml:space="preserve" text-anchor="middle" x="1698.25" y="-241.87" font-family="Helvetica,sans-Serif" font-size="10.00">Panel</text>
</a>
</g>
</g>
<!-- Node10&#45;&gt;Node13 -->
<g id="edge12_Node000010_Node000013" class="edge">
<title>Node10&#45;&gt;Node13</title>
<g id="a_edge12_Node000010_Node000013"><a xlink:title=" ">
<path fill="none" stroke="#63b8ff" d="M1814.7,-257.34C1801.33,-255.75 1787.59,-254.29 1774.47,-253.05"/>
<polygon fill="#63b8ff" stroke="#63b8ff" points="1813.97,-260.78 1824.32,-258.51 1814.81,-253.83 1813.97,-260.78"/>
</a>
</g>
</g>
<!-- Node12 -->
<g id="Node000012" class="node">
<title>Node12</title>
<g id="a_Node000012"><a xlink:href="class_main_window.html#a996c5a2b6f77944776856f08ec30858d" target="_top" xlink:title=" ">
<polygon fill="white" stroke="#666666" points="1146,-28.37 1011.5,-28.37 1011.5,-8.37 1146,-8.37 1146,-28.37"/>
<text xml:space="preserve" text-anchor="middle" x="1078.75" y="-14.87" font-family="Helvetica,sans-Serif" font-size="10.00">MainWindow::MainWindow</text>
</a>
</g>
</g>
<!-- Node11&#45;&gt;Node12 -->
<g id="edge11_Node000011_Node000012" class="edge">
<title>Node11&#45;&gt;Node12</title>
<g id="a_edge11_Node000011_Node000012"><a xlink:title=" ">
<path fill="none" stroke="#63b8ff" d="M1200.27,-18.37C1182.26,-18.37 1163.44,-18.37 1146.17,-18.37"/>
<polygon fill="#63b8ff" stroke="#63b8ff" points="1200.15,-21.87 1210.15,-18.37 1200.15,-14.87 1200.15,-21.87"/>
</a>
</g>
</g>
<!-- Node13&#45;&gt;Node10 -->
<g id="edge41_Node000013_Node000010" class="edge">
<title>Node13&#45;&gt;Node10</title>
<g id="a_edge41_Node000013_Node000010"><a xlink:title=" ">
<path fill="none" stroke="#63b8ff" d="M1785.61,-267.52C1799,-269.1 1812.73,-270.56 1825.82,-271.78"/>
<polygon fill="#63b8ff" stroke="#63b8ff" points="1786.32,-264.08 1775.97,-266.35 1785.48,-271.03 1786.32,-264.08"/>
</a>
</g>
</g>
<!-- Node14 -->
<g id="Node000014" class="node">
<title>Node14</title>
<g id="a_Node000014"><a xlink:href="class_main_window.html#ad34ae0349abf41aa739b75b85df74126" target="_top" xlink:title=" ">
<polygon fill="white" stroke="#666666" points="1557.5,-147.37 1414.75,-147.37 1414.75,-115.37 1557.5,-115.37 1557.5,-147.37"/>
<text xml:space="preserve" text-anchor="start" x="1422.75" y="-133.87" font-family="Helvetica,sans-Serif" font-size="10.00">MainWindow::onAddAttribute</text>
<text xml:space="preserve" text-anchor="middle" x="1486.12" y="-121.87" font-family="Helvetica,sans-Serif" font-size="10.00">OnTreeClicked</text>
</a>
</g>
</g>
<!-- Node13&#45;&gt;Node14 -->
<g id="edge13_Node000013_Node000014" class="edge">
<title>Node13&#45;&gt;Node14</title>
<g id="a_edge13_Node000013_Node000014"><a xlink:title=" ">
<path fill="none" stroke="#63b8ff" d="M1668.81,-227.8C1643.98,-208.09 1606.36,-180.23 1570.25,-161.37 1560.6,-156.32 1549.9,-151.77 1539.49,-147.82"/>
<polygon fill="#63b8ff" stroke="#63b8ff" points="1666.5,-230.44 1676.49,-233.98 1670.89,-224.98 1666.5,-230.44"/>
</a>
</g>
</g>
<!-- Node21 -->
<g id="Node000021" class="node">
<title>Node21</title>
<g id="a_Node000021"><a xlink:href="class_main_window.html#a47fd0b86ddb5829e3b0cb15908671670" target="_top" xlink:title=" ">
<polygon fill="white" stroke="#666666" points="1165.5,-443.37 992,-443.37 992,-423.37 1165.5,-423.37 1165.5,-443.37"/>
<text xml:space="preserve" text-anchor="middle" x="1078.75" y="-429.87" font-family="Helvetica,sans-Serif" font-size="10.00">MainWindow::onCheckBoxChanged</text>
</a>
</g>
</g>
<!-- Node13&#45;&gt;Node21 -->
<g id="edge27_Node000013_Node000021" class="edge">
<title>Node13&#45;&gt;Node21</title>
<g id="a_edge27_Node000013_Node000021"><a xlink:title=" ">
<path fill="none" stroke="#63b8ff" d="M1673.65,-275.85C1623.02,-326.38 1497.83,-440.94 1366,-482.37 1296.89,-504.09 1274.15,-495.99 1203,-482.37 1164.55,-475.01 1122.82,-455.81 1099.12,-443.75"/>
<polygon fill="#63b8ff" stroke="#63b8ff" points="1676.06,-278.39 1680.61,-268.82 1671.08,-273.47 1676.06,-278.39"/>
</a>
</g>
</g>
<!-- Node23 -->
<g id="Node000023" class="node">
<title>Node23</title>
<g id="a_Node000023"><a xlink:href="class_main_window.html#ac1e0c79708cf9aa9b7ca1a87697e5b34" target="_top" xlink:title=" ">
<polygon fill="white" stroke="#666666" points="1167,-311.37 990.5,-311.37 990.5,-291.37 1167,-291.37 1167,-311.37"/>
<text xml:space="preserve" text-anchor="middle" x="1078.75" y="-297.87" font-family="Helvetica,sans-Serif" font-size="10.00">MainWindow::onComboBoxChanged</text>
</a>
</g>
</g>
<!-- Node13&#45;&gt;Node23 -->
<g id="edge31_Node000013_Node000023" class="edge">
<title>Node13&#45;&gt;Node23</title>
<g id="a_edge31_Node000013_Node000023"><a xlink:title=" ">
<path fill="none" stroke="#63b8ff" d="M1610.85,-249.28C1511.81,-248.13 1344.86,-250.03 1203,-270.37 1172.2,-274.78 1137.94,-283.74 1113.38,-290.9"/>
<polygon fill="#63b8ff" stroke="#63b8ff" points="1610.73,-252.78 1620.78,-249.41 1610.82,-245.78 1610.73,-252.78"/>
</a>
</g>
</g>
<!-- Node27 -->
<g id="Node000027" class="node">
<title>Node27</title>
<g id="a_Node000027"><a xlink:href="class_main_window.html#a0e7ca45ac830893108871185dda813a4" target="_top" xlink:title=" ">
<polygon fill="white" stroke="#666666" points="1366,-185.37 1203,-185.37 1203,-165.37 1366,-165.37 1366,-185.37"/>
<text xml:space="preserve" text-anchor="middle" x="1284.5" y="-171.87" font-family="Helvetica,sans-Serif" font-size="10.00">MainWindow::onLineEditChanged</text>
</a>
</g>
</g>
<!-- Node13&#45;&gt;Node27 -->
<g id="edge38_Node000013_Node000027" class="edge">
<title>Node13&#45;&gt;Node27</title>
<g id="a_edge38_Node000013_Node000027"><a xlink:title=" ">
<path fill="none" stroke="#63b8ff" d="M1654.77,-230.16C1630.59,-219.08 1599.41,-206.39 1570.25,-199.37 1502.73,-183.11 1423.9,-177.45 1366.32,-175.67"/>
<polygon fill="#63b8ff" stroke="#63b8ff" points="1653.1,-233.25 1663.64,-234.31 1656.06,-226.91 1653.1,-233.25"/>
</a>
</g>
</g>
<!-- Node29 -->
<g id="Node000029" class="node">
<title>Node29</title>
<g id="a_Node000029"><a xlink:href="class_main_window.html#a95674d4bfc5fc2aad6df1601f23b1793" target="_top" xlink:title=" ">
<polygon fill="white" stroke="#666666" points="1567.25,-97.37 1405,-97.37 1405,-65.37 1567.25,-65.37 1567.25,-97.37"/>
<text xml:space="preserve" text-anchor="start" x="1413" y="-83.87" font-family="Helvetica,sans-Serif" font-size="10.00">MainWindow::onRemoveAttribute</text>
<text xml:space="preserve" text-anchor="middle" x="1486.12" y="-71.87" font-family="Helvetica,sans-Serif" font-size="10.00">OnTreeClicked</text>
</a>
</g>
</g>
<!-- Node13&#45;&gt;Node29 -->
<g id="edge42_Node000013_Node000029" class="edge">
<title>Node13&#45;&gt;Node29</title>
<g id="a_edge42_Node000013_Node000029"><a xlink:title=" ">
<path fill="none" stroke="#63b8ff" d="M1681.58,-225.97C1660.29,-193.54 1619.21,-137.88 1570.25,-106.37 1565.18,-103.11 1559.67,-100.25 1553.97,-97.76"/>
<polygon fill="#63b8ff" stroke="#63b8ff" points="1678.37,-227.44 1686.72,-233.96 1684.25,-223.66 1678.37,-227.44"/>
</a>
</g>
</g>
<!-- Node30 -->
<g id="Node000030" class="node">
<title>Node30</title>
<g id="a_Node000030"><a xlink:href="class_main_window.html#a44791b85064ecff42c12429c6667e83b" target="_top" xlink:title=" ">
<polygon fill="white" stroke="#666666" points="1570.25,-47.37 1402,-47.37 1402,-27.37 1570.25,-27.37 1570.25,-47.37"/>
<text xml:space="preserve" text-anchor="middle" x="1486.12" y="-33.87" font-family="Helvetica,sans-Serif" font-size="10.00">MainWindow::onSelectionChanged</text>
</a>
</g>
</g>
<!-- Node13&#45;&gt;Node30 -->
<g id="edge44_Node000013_Node000030" class="edge">
<title>Node13&#45;&gt;Node30</title>
<g id="a_edge44_Node000013_Node000030"><a xlink:title=" ">
<path fill="none" stroke="#63b8ff" d="M1687.39,-224.27C1670.4,-181.55 1631.41,-99.03 1570.25,-56.37 1565.27,-52.9 1559.76,-50.05 1554,-47.71"/>
<polygon fill="#63b8ff" stroke="#63b8ff" points="1684.1,-225.47 1690.97,-233.54 1690.63,-222.95 1684.1,-225.47"/>
</a>
</g>
</g>
<!-- Node31 -->
<g id="Node000031" class="node">
<title>Node31</title>
<g id="a_Node000031"><a xlink:href="class_main_window.html#af380eeda83d30cd1ecb1419cfd5161d7" target="_top" xlink:title=" ">
<polygon fill="white" stroke="#666666" points="1553,-311.37 1419.25,-311.37 1419.25,-279.37 1553,-279.37 1553,-311.37"/>
<text xml:space="preserve" text-anchor="start" x="1427.25" y="-297.87" font-family="Helvetica,sans-Serif" font-size="10.00">MainWindow::updatesAfter</text>
<text xml:space="preserve" text-anchor="middle" x="1486.12" y="-285.87" font-family="Helvetica,sans-Serif" font-size="10.00">ChangingProperty</text>
</a>
</g>
</g>
<!-- Node13&#45;&gt;Node31 -->
<g id="edge46_Node000013_Node000031" class="edge">
<title>Node13&#45;&gt;Node31</title>
<g id="a_edge46_Node000013_Node000031"><a xlink:title=" ">
<path fill="none" stroke="#63b8ff" d="M1610.77,-269.48C1591.53,-273.51 1571.43,-277.72 1553.16,-281.54"/>
<polygon fill="#63b8ff" stroke="#63b8ff" points="1611.43,-272.92 1620.5,-267.44 1610,-266.06 1611.43,-272.92"/>
</a>
</g>
</g>
<!-- Node15 -->
<g id="Node000015" class="node">
<title>Node15</title>
<g id="a_Node000015"><a xlink:href="class_main_window.html#a6fd05e9f951dd6e7c2cd6ca815ef9d71" target="_top" xlink:title=" ">
<polygon fill="white" stroke="#666666" points="943.62,-128.37 809.88,-128.37 809.88,-96.37 943.62,-96.37 943.62,-128.37"/>
<text xml:space="preserve" text-anchor="start" x="817.88" y="-114.87" font-family="Helvetica,sans-Serif" font-size="10.00">MainWindow::createButton</text>
<text xml:space="preserve" text-anchor="middle" x="876.75" y="-102.87" font-family="Helvetica,sans-Serif" font-size="10.00">PropertyItem</text>
</a>
</g>
</g>
<!-- Node14&#45;&gt;Node15 -->
<g id="edge14_Node000014_Node000015" class="edge">
<title>Node14&#45;&gt;Node15</title>
<g id="a_edge14_Node000014_Node000015"><a xlink:title=" ">
<path fill="none" stroke="#63b8ff" d="M1402.82,-128.79C1281.15,-124.99 1055.69,-117.94 944,-114.44"/>
<polygon fill="#63b8ff" stroke="#63b8ff" points="1402.65,-132.29 1412.75,-129.1 1402.86,-125.29 1402.65,-132.29"/>
</a>
</g>
</g>
<!-- Node16 -->
<g id="Node000016" class="node">
<title>Node16</title>
<g id="a_Node000016"><a xlink:href="class_main_window.html#a697154cf7839e00c607134c2a4e018cf" target="_top" xlink:title=" ">
<polygon fill="white" stroke="#666666" points="567.75,-235.37 400.25,-235.37 400.25,-215.37 567.75,-215.37 567.75,-235.37"/>
<text xml:space="preserve" text-anchor="middle" x="484" y="-221.87" font-family="Helvetica,sans-Serif" font-size="10.00">MainWindow::populateAttributeList</text>
</a>
</g>
</g>
<!-- Node15&#45;&gt;Node16 -->
<g id="edge15_Node000015_Node000016" class="edge">
<title>Node15&#45;&gt;Node16</title>
<g id="a_edge15_Node000015_Node000016"><a xlink:title=" ">
<path fill="none" stroke="#63b8ff" d="M798.27,-119.73C742.92,-126.57 667.31,-139.15 603.75,-161.37 564.4,-175.12 522.36,-200.69 500.39,-215"/>
<polygon fill="#63b8ff" stroke="#63b8ff" points="798.4,-123.24 807.91,-118.58 797.57,-116.29 798.4,-123.24"/>
</a>
</g>
</g>
<!-- Node17 -->
<g id="Node000017" class="node">
<title>Node17</title>
<g id="a_Node000017"><a xlink:href="class_main_window.html#a3aa4112f20ad25eb3ad78fd354ba7de2" target="_top" xlink:title=" ">
<polygon fill="white" stroke="#666666" points="759.25,-285.37 607.5,-285.37 607.5,-253.37 759.25,-253.37 759.25,-285.37"/>
<text xml:space="preserve" text-anchor="start" x="615.5" y="-271.87" font-family="Helvetica,sans-Serif" font-size="10.00">MainWindow::populateAttribute</text>
<text xml:space="preserve" text-anchor="middle" x="683.38" y="-259.87" font-family="Helvetica,sans-Serif" font-size="10.00">Properties</text>
</a>
</g>
</g>
<!-- Node15&#45;&gt;Node17 -->
<g id="edge24_Node000015_Node000017" class="edge">
<title>Node15&#45;&gt;Node17</title>
<g id="a_edge24_Node000015_Node000017"><a xlink:title=" ">
<path fill="none" stroke="#63b8ff" d="M859.96,-138.42C840.63,-168.18 805.23,-216.34 763,-244.37 758.11,-247.62 752.76,-250.46 747.24,-252.96"/>
<polygon fill="#63b8ff" stroke="#63b8ff" points="862.89,-140.33 865.29,-130.01 856.98,-136.58 862.89,-140.33"/>
</a>
</g>
</g>
<!-- Node19 -->
<g id="Node000019" class="node">
<title>Node19</title>
<g id="a_Node000019"><a xlink:href="class_main_window.html#a40023e3590f2593fd133a6b111f63ed9" target="_top" xlink:title=" ">
<polygon fill="white" stroke="#666666" points="350,-241.37 209.5,-241.37 209.5,-209.37 350,-209.37 350,-241.37"/>
<text xml:space="preserve" text-anchor="start" x="217.5" y="-227.87" font-family="Helvetica,sans-Serif" font-size="10.00">MainWindow::populateEntity</text>
<text xml:space="preserve" text-anchor="middle" x="279.75" y="-215.87" font-family="Helvetica,sans-Serif" font-size="10.00">Properties</text>
</a>
</g>
</g>
<!-- Node15&#45;&gt;Node19 -->
<g id="edge25_Node000015_Node000019" class="edge">
<title>Node15&#45;&gt;Node19</title>
<g id="a_edge25_Node000015_Node000019"><a xlink:title=" ">
<path fill="none" stroke="#63b8ff" d="M818.34,-92.5C725.58,-63.93 539.14,-21.31 400.25,-85.37 343.95,-111.33 304.36,-178.34 288.48,-209.28"/>
<polygon fill="#63b8ff" stroke="#63b8ff" points="817.14,-95.79 827.73,-95.45 819.24,-89.11 817.14,-95.79"/>
</a>
</g>
</g>
<!-- Node20 -->
<g id="Node000020" class="node">
<title>Node20</title>
<g id="a_Node000020"><a xlink:href="class_main_window.html#a1049a5796ac248f40a3b4110ed5faf77" target="_top" xlink:title=" ">
<polygon fill="white" stroke="#666666" points="364.25,-310.37 195.25,-310.37 195.25,-278.37 364.25,-278.37 364.25,-310.37"/>
<text xml:space="preserve" text-anchor="start" x="203.25" y="-296.87" font-family="Helvetica,sans-Serif" font-size="10.00">MainWindow::populateRelationship</text>
<text xml:space="preserve" text-anchor="middle" x="279.75" y="-284.87" font-family="Helvetica,sans-Serif" font-size="10.00">Properties</text>
</a>
</g>
</g>
<!-- Node15&#45;&gt;Node20 -->
<g id="edge26_Node000015_Node000020" class="edge">
<title>Node15&#45;&gt;Node20</title>
<g id="a_edge26_Node000015_Node000020"><a xlink:title=" ">
<path fill="none" stroke="#63b8ff" d="M798.13,-107.56C743.21,-105.93 668.19,-107.34 603.75,-121.37 507.98,-142.22 478.85,-147.8 400.25,-206.37 379.99,-221.47 383.82,-234.38 364.25,-250.37 350.8,-261.36 334.17,-270.79 319.3,-278.07"/>
<polygon fill="#63b8ff" stroke="#63b8ff" points="797.9,-111.05 808.02,-107.89 798.14,-104.05 797.9,-111.05"/>
</a>
</g>
</g>
<!-- Node16&#45;&gt;Node17 -->
<g id="edge16_Node000016_Node000017" class="edge">
<title>Node16&#45;&gt;Node17</title>
<g id="a_edge16_Node000016_Node000017"><a xlink:title=" ">
<path fill="none" stroke="#63b8ff" d="M521.88,-238.99C545.86,-245.56 577.98,-253.11 607.19,-259.19"/>
<polygon fill="#63b8ff" stroke="#63b8ff" points="522.84,-235.62 512.27,-236.27 520.93,-242.36 522.84,-235.62"/>
</a>
</g>
</g>
<!-- Node16&#45;&gt;Node19 -->
<g id="edge20_Node000016_Node000019" class="edge">
<title>Node16&#45;&gt;Node19</title>
<g id="a_edge20_Node000016_Node000019"><a xlink:title=" ">
<path fill="none" stroke="#63b8ff" d="M388.6,-225.37C375.72,-225.37 362.69,-225.37 350.36,-225.37"/>
<polygon fill="#63b8ff" stroke="#63b8ff" points="388.35,-228.87 398.35,-225.37 388.35,-221.87 388.35,-228.87"/>
</a>
</g>
</g>
<!-- Node16&#45;&gt;Node20 -->
<g id="edge22_Node000016_Node000020" class="edge">
<title>Node16&#45;&gt;Node20</title>
<g id="a_edge22_Node000016_Node000020"><a xlink:title=" ">
<path fill="none" stroke="#63b8ff" d="M420.6,-238.49C413.69,-240.3 406.79,-242.27 400.25,-244.37 371.13,-253.73 339.23,-267.25 315.71,-277.88"/>
<polygon fill="#63b8ff" stroke="#63b8ff" points="421.11,-241.97 429.96,-236.15 419.41,-235.18 421.11,-241.97"/>
</a>
</g>
</g>
<!-- Node17&#45;&gt;Node16 -->
<g id="edge17_Node000017_Node000016" class="edge">
<title>Node17&#45;&gt;Node16</title>
<g id="a_edge17_Node000017_Node000016"><a xlink:title=" ">
<path fill="none" stroke="#63b8ff" d="M623.94,-250.12C604.33,-245.2 582.16,-240.14 561.38,-235.8"/>
<polygon fill="#63b8ff" stroke="#63b8ff" points="622.83,-253.45 633.38,-252.53 624.56,-246.66 622.83,-253.45"/>
</a>
</g>
</g>
<!-- Node18 -->
<g id="Node000018" class="node">
<title>Node18</title>
<g id="a_Node000018"><a xlink:href="class_main_window.html#add7e6ae12287854ff779bd4b5649dd98" target="_top" xlink:title=" ">
<polygon fill="white" stroke="#666666" points="159.25,-367.37 0,-367.37 0,-335.37 159.25,-335.37 159.25,-367.37"/>
<text xml:space="preserve" text-anchor="start" x="8" y="-353.87" font-family="Helvetica,sans-Serif" font-size="10.00">MainWindow::populateProperties</text>
<text xml:space="preserve" text-anchor="middle" x="79.62" y="-341.87" font-family="Helvetica,sans-Serif" font-size="10.00">ForElement</text>
</a>
</g>
</g>
<!-- Node17&#45;&gt;Node18 -->
<g id="edge18_Node000017_Node000018" class="edge">
<title>Node17&#45;&gt;Node18</title>
<g id="a_edge18_Node000017_Node000018"><a xlink:title=" ">
<path fill="none" stroke="#63b8ff" d="M600.69,-288.15C589.65,-290.41 578.44,-292.55 567.75,-294.37 424.63,-318.71 256.07,-335.91 159.45,-344.69"/>
<polygon fill="#63b8ff" stroke="#63b8ff" points="601.09,-291.64 610.16,-286.18 599.66,-284.79 601.09,-291.64"/>
</a>
</g>
</g>
<!-- Node18&#45;&gt;Node13 -->
<g id="edge19_Node000018_Node000013" class="edge">
<title>Node18&#45;&gt;Node13</title>
<g id="a_edge19_Node000018_Node000013"><a xlink:title=" ">
<path fill="none" stroke="#63b8ff" d="M106.45,-375.2C167.17,-428.63 325.75,-553.37 483,-553.37 1285.5,-553.37 1285.5,-553.37 1285.5,-553.37 1422.83,-553.37 1470.81,-528.09 1570.25,-433.37 1597.02,-407.87 1586.11,-389.37 1606.25,-358.37 1628.84,-323.6 1661.55,-287.83 1680.99,-267.71"/>
<polygon fill="#63b8ff" stroke="#63b8ff" points="108.81,-372.61 99.02,-368.57 104.15,-377.83 108.81,-372.61"/>
</a>
</g>
</g>
<!-- Node19&#45;&gt;Node18 -->
<g id="edge21_Node000019_Node000018" class="edge">
<title>Node19&#45;&gt;Node18</title>
<g id="a_edge21_Node000019_Node000018"><a xlink:title=" ">
<path fill="none" stroke="#63b8ff" d="M235.1,-246.94C222.08,-253.76 207.9,-261.56 195.25,-269.37 161.31,-290.32 124.12,-317.83 101.58,-335.06"/>
<polygon fill="#63b8ff" stroke="#63b8ff" points="236.63,-250.09 243.91,-242.4 233.42,-243.87 236.63,-250.09"/>
</a>
</g>
</g>
<!-- Node20&#45;&gt;Node18 -->
<g id="edge23_Node000020_Node000018" class="edge">
<title>Node20&#45;&gt;Node18</title>
<g id="a_edge23_Node000020_Node000018"><a xlink:title=" ">
<path fill="none" stroke="#63b8ff" d="M210.42,-314.03C186.75,-320.84 160.48,-328.39 137.8,-334.92"/>
<polygon fill="#63b8ff" stroke="#63b8ff" points="211.35,-317.4 219.99,-311.27 209.41,-310.68 211.35,-317.4"/>
</a>
</g>
</g>
<!-- Node22 -->
<g id="Node000022" class="node">
<title>Node22</title>
<g id="a_Node000022"><a xlink:href="class_main_window.html#a44aaf7bb6d9a56f53b8a7a9e4fc29f8c" target="_top" xlink:title=" ">
<polygon fill="white" stroke="#666666" points="952.25,-373.37 801.25,-373.37 801.25,-341.37 952.25,-341.37 952.25,-373.37"/>
<text xml:space="preserve" text-anchor="start" x="809.25" y="-359.87" font-family="Helvetica,sans-Serif" font-size="10.00">MainWindow::createCheckBox</text>
<text xml:space="preserve" text-anchor="middle" x="876.75" y="-347.87" font-family="Helvetica,sans-Serif" font-size="10.00">PropertyItem</text>
</a>
</g>
</g>
<!-- Node21&#45;&gt;Node22 -->
<g id="edge28_Node000021_Node000022" class="edge">
<title>Node21&#45;&gt;Node22</title>
<g id="a_edge28_Node000021_Node000022"><a xlink:title=" ">
<path fill="none" stroke="#63b8ff" d="M1039.95,-419C1006.06,-406.13 956.35,-387.24 920.91,-373.77"/>
<polygon fill="#63b8ff" stroke="#63b8ff" points="1038.35,-422.14 1048.95,-422.42 1040.84,-415.6 1038.35,-422.14"/>
</a>
</g>
</g>
<!-- Node22&#45;&gt;Node17 -->
<g id="edge29_Node000022_Node000017" class="edge">
<title>Node22&#45;&gt;Node17</title>
<g id="a_edge29_Node000022_Node000017"><a xlink:title=" ">
<path fill="none" stroke="#63b8ff" d="M810.62,-337.1C806.66,-335.58 802.76,-334 799,-332.37 767.74,-318.83 733.76,-299.53 710.98,-285.86"/>
<polygon fill="#63b8ff" stroke="#63b8ff" points="809.17,-340.3 819.77,-340.48 811.59,-333.73 809.17,-340.3"/>
</a>
</g>
</g>
<!-- Node22&#45;&gt;Node20 -->
<g id="edge30_Node000022_Node000020" class="edge">
<title>Node22&#45;&gt;Node20</title>
<g id="a_edge30_Node000022_Node000020"><a xlink:title=" ">
<path fill="none" stroke="#63b8ff" d="M789.74,-351.11C694.35,-343.78 536.01,-330.42 400.25,-313.37 388.68,-311.92 376.51,-310.2 364.55,-308.4"/>
<polygon fill="#63b8ff" stroke="#63b8ff" points="789.3,-354.59 799.54,-351.86 789.84,-347.61 789.3,-354.59"/>
</a>
</g>
</g>
<!-- Node24 -->
<g id="Node000024" class="node">
<title>Node24</title>
<g id="a_Node000024"><a xlink:href="class_main_window.html#a872e6a76dcbf858ae9d483eceddf90e1" target="_top" xlink:title=" ">
<polygon fill="white" stroke="#666666" points="953.75,-323.37 799.75,-323.37 799.75,-291.37 953.75,-291.37 953.75,-323.37"/>
<text xml:space="preserve" text-anchor="start" x="807.75" y="-309.87" font-family="Helvetica,sans-Serif" font-size="10.00">MainWindow::createComboBox</text>
<text xml:space="preserve" text-anchor="middle" x="876.75" y="-297.87" font-family="Helvetica,sans-Serif" font-size="10.00">PropertyItem</text>
</a>
</g>
</g>
<!-- Node23&#45;&gt;Node24 -->
<g id="edge32_Node000023_Node000024" class="edge">
<title>Node23&#45;&gt;Node24</title>
<g id="a_edge32_Node000023_Node000024"><a xlink:title=" ">
<path fill="none" stroke="#63b8ff" d="M978.76,-304.34C970.48,-304.59 962.19,-304.84 954.12,-305.08"/>
<polygon fill="#63b8ff" stroke="#63b8ff" points="978.62,-307.84 988.51,-304.05 978.41,-300.85 978.62,-307.84"/>
</a>
</g>
</g>
<!-- Node25 -->
<g id="Node000025" class="node">
<title>Node25</title>
<g id="a_Node000025"><a xlink:href="class_main_window.html#abae03a6494d13d74ed1b2e31ec1f2fc7" target="_top" xlink:title=" ">
<polygon fill="white" stroke="#666666" points="954.5,-273.37 799,-273.37 799,-241.37 954.5,-241.37 954.5,-273.37"/>
<text xml:space="preserve" text-anchor="start" x="807" y="-259.87" font-family="Helvetica,sans-Serif" font-size="10.00">MainWindow::createIconCombo</text>
<text xml:space="preserve" text-anchor="middle" x="876.75" y="-247.87" font-family="Helvetica,sans-Serif" font-size="10.00">BoxPropertyItem</text>
</a>
</g>
</g>
<!-- Node23&#45;&gt;Node25 -->
<g id="edge35_Node000023_Node000025" class="edge">
<title>Node23&#45;&gt;Node25</title>
<g id="a_edge35_Node000023_Node000025"><a xlink:title=" ">
<path fill="none" stroke="#63b8ff" d="M1018.86,-288.41C998.04,-283.83 974.34,-278.62 952.39,-273.79"/>
<polygon fill="#63b8ff" stroke="#63b8ff" points="1018.1,-291.83 1028.62,-290.56 1019.61,-284.99 1018.1,-291.83"/>
</a>
</g>
</g>
<!-- Node24&#45;&gt;Node17 -->
<g id="edge33_Node000024_Node000017" class="edge">
<title>Node24&#45;&gt;Node17</title>
<g id="a_edge33_Node000024_Node000017"><a xlink:title=" ">
<path fill="none" stroke="#63b8ff" d="M788.12,-289.97C778.55,-288.07 768.87,-286.15 759.47,-284.28"/>
<polygon fill="#63b8ff" stroke="#63b8ff" points="787.31,-293.38 797.8,-291.89 788.68,-286.51 787.31,-293.38"/>
</a>
</g>
</g>
<!-- Node24&#45;&gt;Node20 -->
<g id="edge34_Node000024_Node000020" class="edge">
<title>Node24&#45;&gt;Node20</title>
<g id="a_edge34_Node000024_Node000020"><a xlink:title=" ">
<path fill="none" stroke="#63b8ff" d="M788.04,-305.45C674.01,-302.96 476.24,-298.64 364.3,-296.19"/>
<polygon fill="#63b8ff" stroke="#63b8ff" points="787.9,-308.95 797.97,-305.67 788.05,-301.95 787.9,-308.95"/>
</a>
</g>
</g>
<!-- Node26 -->
<g id="Node000026" class="node">
<title>Node26</title>
<g id="a_Node000026"><a xlink:href="class_main_window.html#af02df1238ccf49caa1c4099c88dfe465" target="_top" xlink:title=" ">
<polygon fill="white" stroke="#666666" points="763,-235.37 603.75,-235.37 603.75,-203.37 763,-203.37 763,-235.37"/>
<text xml:space="preserve" text-anchor="start" x="611.75" y="-221.87" font-family="Helvetica,sans-Serif" font-size="10.00">MainWindow::populateProperties</text>
<text xml:space="preserve" text-anchor="middle" x="683.38" y="-209.87" font-family="Helvetica,sans-Serif" font-size="10.00">ForConnection</text>
</a>
</g>
</g>
<!-- Node25&#45;&gt;Node26 -->
<g id="edge36_Node000025_Node000026" class="edge">
<title>Node25&#45;&gt;Node26</title>
<g id="a_edge36_Node000025_Node000026"><a xlink:title=" ">
<path fill="none" stroke="#63b8ff" d="M787.47,-239.84C779.44,-238.25 771.35,-236.64 763.41,-235.06"/>
<polygon fill="#63b8ff" stroke="#63b8ff" points="786.76,-243.27 797.25,-241.78 788.13,-236.4 786.76,-243.27"/>
</a>
</g>
</g>
<!-- Node26&#45;&gt;Node13 -->
<g id="edge37_Node000026_Node000013" class="edge">
<title>Node26&#45;&gt;Node13</title>
<g id="a_edge37_Node000026_Node000013"><a xlink:title=" ">
<path fill="none" stroke="#63b8ff" d="M774.95,-217.2C854.68,-215.48 973.91,-213.37 1077.75,-213.37 1285.5,-213.37 1285.5,-213.37 1285.5,-213.37 1403.41,-213.37 1539.52,-229.01 1621.93,-240.22"/>
<polygon fill="#63b8ff" stroke="#63b8ff" points="774.92,-213.7 765,-217.42 775.07,-220.7 774.92,-213.7"/>
</a>
</g>
</g>
<!-- Node28 -->
<g id="Node000028" class="node">
<title>Node28</title>
<g id="a_Node000028"><a xlink:href="class_main_window.html#ae3b6600dd59da1822ef94bbd5f37f0cc" target="_top" xlink:title=" ">
<polygon fill="white" stroke="#666666" points="554.25,-285.37 413.75,-285.37 413.75,-253.37 554.25,-253.37 554.25,-285.37"/>
<text xml:space="preserve" text-anchor="start" x="421.75" y="-271.87" font-family="Helvetica,sans-Serif" font-size="10.00">MainWindow::createLineEdit</text>
<text xml:space="preserve" text-anchor="middle" x="484" y="-259.87" font-family="Helvetica,sans-Serif" font-size="10.00">PropertyItem</text>
</a>
</g>
</g>
<!-- Node27&#45;&gt;Node28 -->
<g id="edge39_Node000027_Node000028" class="edge">
<title>Node27&#45;&gt;Node28</title>
<g id="a_edge39_Node000027_Node000028"><a xlink:title=" ">
<path fill="none" stroke="#63b8ff" d="M1191.18,-168.04C1029.5,-156.83 702.88,-141.83 603.75,-194.37 579.56,-207.19 590.04,-228.46 567.75,-244.37 563.23,-247.6 558.29,-250.41 553.14,-252.87"/>
<polygon fill="#63b8ff" stroke="#63b8ff" points="1190.79,-171.53 1201.02,-168.74 1191.29,-164.54 1190.79,-171.53"/>
</a>
</g>
</g>
<!-- Node28&#45;&gt;Node20 -->
<g id="edge40_Node000028_Node000020" class="edge">
<title>Node28&#45;&gt;Node20</title>
<g id="a_edge40_Node000028_Node000020"><a xlink:title=" ">
<path fill="none" stroke="#63b8ff" d="M402.15,-279.36C389.74,-280.9 376.91,-282.48 364.44,-284.02"/>
<polygon fill="#63b8ff" stroke="#63b8ff" points="402.4,-282.86 411.89,-278.16 401.54,-275.91 402.4,-282.86"/>
</a>
</g>
</g>
<!-- Node29&#45;&gt;Node15 -->
<g id="edge43_Node000029_Node000015" class="edge">
<title>Node29&#45;&gt;Node15</title>
<g id="a_edge43_Node000029_Node000015"><a xlink:title=" ">
<path fill="none" stroke="#63b8ff" d="M1393.49,-86.05C1269.89,-92.35 1052.75,-103.44 943.89,-108.99"/>
<polygon fill="#63b8ff" stroke="#63b8ff" points="1393.46,-89.55 1403.27,-85.55 1393.11,-82.56 1393.46,-89.55"/>
</a>
</g>
</g>
<!-- Node30&#45;&gt;Node11 -->
<g id="edge45_Node000030_Node000011" class="edge">
<title>Node30&#45;&gt;Node11</title>
<g id="a_edge45_Node000030_Node000011"><a xlink:title=" ">
<path fill="none" stroke="#63b8ff" d="M1390.49,-28.36C1379.32,-27.3 1368.05,-26.23 1357.26,-25.2"/>
<polygon fill="#63b8ff" stroke="#63b8ff" points="1389.83,-31.81 1400.12,-29.28 1390.49,-24.85 1389.83,-31.81"/>
</a>
</g>
</g>
<!-- Node31&#45;&gt;Node10 -->
<g id="edge58_Node000031_Node000010" class="edge">
<title>Node31&#45;&gt;Node10</title>
<g id="a_edge58_Node000031_Node000010"><a xlink:title=" ">
<path fill="none" stroke="#63b8ff" d="M1564.72,-291.23C1639.71,-287.24 1752.5,-281.23 1826.19,-277.3"/>
<polygon fill="#63b8ff" stroke="#63b8ff" points="1564.79,-287.73 1554.99,-291.75 1565.17,-294.72 1564.79,-287.73"/>
</a>
</g>
</g>
<!-- Node31&#45;&gt;Node21 -->
<g id="edge55_Node000031_Node000021" class="edge">
<title>Node31&#45;&gt;Node21</title>
<g id="a_edge55_Node000031_Node000021"><a xlink:title=" ">
<path fill="none" stroke="#63b8ff" d="M1474.79,-322.25C1458.38,-360.66 1422.32,-429.77 1366,-458.37 1278.37,-502.86 1156.1,-464.07 1104.39,-443.83"/>
<polygon fill="#63b8ff" stroke="#63b8ff" points="1477.93,-323.82 1478.5,-313.24 1471.46,-321.15 1477.93,-323.82"/>
</a>
</g>
</g>
<!-- Node31&#45;&gt;Node23 -->
<g id="edge56_Node000031_Node000023" class="edge">
<title>Node31&#45;&gt;Node23</title>
<g id="a_edge56_Node000031_Node000023"><a xlink:title=" ">
<path fill="none" stroke="#63b8ff" d="M1408.02,-313.97C1394.11,-316.63 1379.68,-318.95 1366,-320.37 1293.94,-327.85 1275.23,-325.9 1203,-320.37 1180.87,-318.67 1156.71,-315.29 1135.68,-311.84"/>
<polygon fill="#63b8ff" stroke="#63b8ff" points="1408.43,-317.46 1417.55,-312.07 1407.06,-310.59 1408.43,-317.46"/>
</a>
</g>
</g>
<!-- Node31&#45;&gt;Node27 -->
<g id="edge57_Node000031_Node000027" class="edge">
<title>Node31&#45;&gt;Node27</title>
<g id="a_edge57_Node000031_Node000027"><a xlink:title=" ">
<path fill="none" stroke="#63b8ff" d="M1448.19,-273.17C1404.92,-247.16 1335.06,-205.16 1302.82,-185.78"/>
<polygon fill="#63b8ff" stroke="#63b8ff" points="1446.12,-276 1456.49,-278.16 1449.72,-270 1446.12,-276"/>
</a>
</g>
</g>
<!-- Node32 -->
<g id="Node000032" class="node">
<title>Node32</title>
<g id="a_Node000032"><a xlink:href="class_main_window.html#a9ed390421f6755b891cfc651d173db7b" target="_top" xlink:title=" ">
<polygon fill="white" stroke="#666666" points="1356.25,-449.37 1212.75,-449.37 1212.75,-417.37 1356.25,-417.37 1356.25,-449.37"/>
<text xml:space="preserve" text-anchor="start" x="1220.75" y="-435.87" font-family="Helvetica,sans-Serif" font-size="10.00">MainWindow::handleAttribute</text>
<text xml:space="preserve" text-anchor="middle" x="1284.5" y="-423.87" font-family="Helvetica,sans-Serif" font-size="10.00">PropertyChange</text>
</a>
</g>
</g>
<!-- Node31&#45;&gt;Node32 -->
<g id="edge47_Node000031_Node000032" class="edge">
<title>Node31&#45;&gt;Node32</title>
<g id="a_edge47_Node000031_Node000032"><a xlink:title=" ">
<path fill="none" stroke="#63b8ff" d="M1412.07,-317.47C1408.48,-319.84 1405.09,-322.47 1402,-325.37 1372.69,-352.89 1395.93,-381.51 1366,-408.37 1362.3,-411.69 1358.16,-414.57 1353.76,-417.07"/>
<polygon fill="#63b8ff" stroke="#63b8ff" points="1413.75,-320.54 1420.66,-312.51 1410.25,-314.48 1413.75,-320.54"/>
</a>
</g>
</g>
<!-- Node33 -->
<g id="Node000033" class="node">
<title>Node33</title>
<g id="a_Node000033"><a xlink:href="class_main_window.html#aa69c4b7c558b2fb3922adf75af48330a" target="_top" xlink:title=" ">
<polygon fill="white" stroke="#666666" points="1364.88,-311.37 1204.12,-311.37 1204.12,-279.37 1364.88,-279.37 1364.88,-311.37"/>
<text xml:space="preserve" text-anchor="start" x="1212.12" y="-297.87" font-family="Helvetica,sans-Serif" font-size="10.00">MainWindow::handleRelationship</text>
<text xml:space="preserve" text-anchor="middle" x="1284.5" y="-285.87" font-family="Helvetica,sans-Serif" font-size="10.00">EndCardinalityChange</text>
</a>
</g>
</g>
<!-- Node31&#45;&gt;Node33 -->
<g id="edge51_Node000031_Node000033" class="edge">
<title>Node31&#45;&gt;Node33</title>
<g id="a_edge51_Node000031_Node000033"><a xlink:title=" ">
<path fill="none" stroke="#63b8ff" d="M1407.42,-295.37C1393.51,-295.37 1379,-295.37 1365.05,-295.37"/>
<polygon fill="#63b8ff" stroke="#63b8ff" points="1407.42,-298.87 1417.42,-295.37 1407.42,-291.87 1407.42,-298.87"/>
</a>
</g>
</g>
<!-- Node34 -->
<g id="Node000034" class="node">
<title>Node34</title>
<g id="a_Node000034"><a xlink:href="class_main_window.html#a96d575a529f7c24b1b5094b4b1e42742" target="_top" xlink:title=" ">
<polygon fill="white" stroke="#666666" points="1364.88,-399.37 1204.12,-399.37 1204.12,-367.37 1364.88,-367.37 1364.88,-399.37"/>
<text xml:space="preserve" text-anchor="start" x="1212.12" y="-385.87" font-family="Helvetica,sans-Serif" font-size="10.00">MainWindow::handleRelationship</text>
<text xml:space="preserve" text-anchor="middle" x="1284.5" y="-373.87" font-family="Helvetica,sans-Serif" font-size="10.00">EndParticipationChange</text>
</a>
</g>
</g>
<!-- Node31&#45;&gt;Node34 -->
<g id="edge53_Node000031_Node000034" class="edge">
<title>Node31&#45;&gt;Node34</title>
<g id="a_edge53_Node000031_Node000034"><a xlink:title=" ">
<path fill="none" stroke="#63b8ff" d="M1421.25,-316.07C1414.62,-318.91 1408.08,-322.02 1402,-325.37 1384.25,-335.15 1383.7,-343.49 1366,-353.37 1356.88,-358.46 1346.73,-363 1336.8,-366.93"/>
<polygon fill="#63b8ff" stroke="#63b8ff" points="1422.35,-319.4 1430.3,-312.4 1419.72,-312.91 1422.35,-319.4"/>
</a>
</g>
</g>
<!-- Node32&#45;&gt;Node10 -->
<g id="edge50_Node000032_Node000010" class="edge">
<title>Node32&#45;&gt;Node10</title>
<g id="a_edge50_Node000032_Node000010"><a xlink:title=" ">
<path fill="none" stroke="#63b8ff" d="M1359.75,-414.04C1481.75,-382.27 1722.5,-319.59 1836.84,-289.81"/>
<polygon fill="#63b8ff" stroke="#63b8ff" points="1358.93,-410.63 1350.14,-416.54 1360.7,-417.41 1358.93,-410.63"/>
</a>
</g>
</g>
<!-- Node32&#45;&gt;Node21 -->
<g id="edge48_Node000032_Node000021" class="edge">
<title>Node32&#45;&gt;Node21</title>
<g id="a_edge48_Node000032_Node000021"><a xlink:title=" ">
<path fill="none" stroke="#63b8ff" d="M1201.08,-433.37C1189.49,-433.37 1177.56,-433.37 1165.9,-433.37"/>
<polygon fill="#63b8ff" stroke="#63b8ff" points="1201.01,-436.87 1211.01,-433.37 1201.01,-429.87 1201.01,-436.87"/>
</a>
</g>
</g>
<!-- Node32&#45;&gt;Node23 -->
<g id="edge49_Node000032_Node000023" class="edge">
<title>Node32&#45;&gt;Node23</title>
<g id="a_edge49_Node000032_Node000023"><a xlink:title=" ">
<path fill="none" stroke="#63b8ff" d="M1210.79,-412.37C1208.12,-411.1 1205.52,-409.77 1203,-408.37 1154.48,-381.35 1108.01,-332.98 1088.89,-311.79"/>
<polygon fill="#63b8ff" stroke="#63b8ff" points="1209.36,-415.57 1219.93,-416.34 1212.15,-409.15 1209.36,-415.57"/>
</a>
</g>
</g>
<!-- Node33&#45;&gt;Node23 -->
<g id="edge52_Node000033_Node000023" class="edge">
<title>Node33&#45;&gt;Node23</title>
<g id="a_edge52_Node000033_Node000023"><a xlink:title=" ">
<path fill="none" stroke="#63b8ff" d="M1192.55,-298.05C1184.2,-298.29 1175.76,-298.54 1167.44,-298.79"/>
<polygon fill="#63b8ff" stroke="#63b8ff" points="1192.44,-301.55 1202.34,-297.76 1192.24,-294.55 1192.44,-301.55"/>
</a>
</g>
</g>
<!-- Node34&#45;&gt;Node21 -->
<g id="edge54_Node000034_Node000021" class="edge">
<title>Node34&#45;&gt;Node21</title>
<g id="a_edge54_Node000034_Node000021"><a xlink:title=" ">
<path fill="none" stroke="#63b8ff" d="M1205.44,-402.53C1177.25,-409.44 1146.48,-416.99 1122.45,-422.89"/>
<polygon fill="#63b8ff" stroke="#63b8ff" points="1206.15,-405.95 1215.03,-400.17 1204.49,-399.15 1206.15,-405.95"/>
</a>
</g>
</g>
</g>
</svg>
