<?xml version="1.0" encoding="UTF-8" standalone="no"?>
<!DOCTYPE svg PUBLIC "-//W3C//DTD SVG 1.1//EN"
 "http://www.w3.org/Graphics/SVG/1.1/DTD/svg11.dtd">
<!-- Generated by graphviz version 14.1.1 (20251213.1925)
 -->
<!-- Title: Attribute::Attribute Pages: 1 -->
<!--zoomable 305 -->

<svg id="main" version="1.1" xmlns="http://www.w3.org/2000/svg" xmlns:xlink="http://www.w3.org/1999/xlink" xml:space="preserve" onload="init(evt)">

<style type="text/css"><![CDATA[
.node, .edge {opacity: 0.7;}
.node.selected, .edge.selected {opacity: 1;}
.edge:hover path { stroke: red; }
.edge:hover polygon { stroke: red; fill: red; }
]]></style>

<defs>
  <circle id="rim" cx="0" cy="0" r="7"/>
  <circle id="rim2" cx="0" cy="0" r="3.5"/>
  <g id="zoomPlus">
    <use xlink:href="#rim" fill="#404040"><set attributeName="fill" to="#808080" begin="zoomplus.mouseover" end="zoomplus.mouseout"/></use>
    <path d="M-4,0h8M0,-4v8" fill="none" stroke="white" stroke-width="1.5" pointer-events="none"/>
  </g>
  <g id="zoomMin">
    <use xlink:href="#rim" fill="#404040"><set attributeName="fill" to="#808080" begin="zoomminus.mouseover" end="zoomminus.mouseout"/></use>
    <path d="M-4,0h8" fill="none" stroke="white" stroke-width="1.5" pointer-events="none"/>
  </g>
  <g id="arrowUp" transform="translate(30 24)">
    <use xlink:href="#rim"/>
    <path pointer-events="none" fill="none" stroke="white" stroke-width="1.5" d="M0,-3.0v7 M-2.5,-0.5L0,-3.0L2.5,-0.5"/>
  </g>
  <g id="arrowRight" transform="rotate(90) translate(36 -43)">
    <use xlink:href="#rim"/>
    <path pointer-events="none" fill="none" stroke="white" stroke-width="1.5" d="M0,-3.0v7 M-2.5,-0.5L0,-3.0L2.5,-0.5"/>
  </g>
  <g id="arrowDown" transform="rotate(180) translate(-30 -48)">
    <use xlink:href="#rim"/>
    <path pointer-events="none" fill="none" stroke="white" stroke-width="1.5" d="M0,-3.0v7 M-2.5,-0.5L0,-3.0L2.5,-0.5"/>
  </g>
  <g id="arrowLeft" transform="rotate(270) translate(-36 17)">
    <use xlink:href="#rim"/>
    <path pointer-events="none" fill="none" stroke="white" stroke-width="1.5" d="M0,-3.0v7 M-2.5,-0.5L0,-3.0L2.5,-0.5"/>
  </g>
  <g id="resetDef">
    <use xlink:href="#rim2" fill="#404040"><set attributeName="fill" to="#808080" begin="reset.mouseover" end="reset.mouseout"/></use>
  </g>
</defs>
<script type="application/ecmascript">
var viewWidth = 1165;
var viewHeight = 305;
var sectionId = 'dynsection-6';
</script>
<script type="application/ecmascript" xlink:href="svg.min.js"/>
<svg id="graph" class="graph">
<g id="viewport">
<title>Attribute::Attribute</title>
<!-- Node1 -->
<g id="Node000001" class="node">
<title>Node1</title>
<g id="a_Node000001"><a xlink:title=" ">
<polygon fill="#999999" stroke="#666666" points="95.5,-188 0,-188 0,-168 95.5,-168 95.5,-188"/>
<text xml:space="preserve" text-anchor="middle" x="47.75" y="-174.5" font-family="Helvetica,sans-Serif" font-size="10.00">Attribute::Attribute</text>
</a>
</g>
</g>
<!-- Node2 -->
<g id="Node000002" class="node">
<title>Node2</title>
<g id="a_Node000002"><a xlink:href="class_attribute.html#a119bae8069ee45c1e48122a79ea4b29e" target="_top" xlink:title=" ">
<polygon fill="white" stroke="#666666" points="227,-160 131.5,-160 131.5,-140 227,-140 227,-160"/>
<text xml:space="preserve" text-anchor="middle" x="179.25" y="-146.5" font-family="Helvetica,sans-Serif" font-size="10.00">Attribute::Attribute</text>
</a>
</g>
</g>
<!-- Node1&#45;&gt;Node2 -->
<g id="edge1_Node000001_Node000002" class="edge">
<title>Node1&#45;&gt;Node2</title>
<g id="a_edge1_Node000001_Node000002"><a xlink:title=" ">
<path fill="none" stroke="#63b8ff" d="M95.87,-167.81C103.82,-166.09 112.16,-164.29 120.35,-162.52"/>
<polygon fill="#63b8ff" stroke="#63b8ff" points="120.87,-165.99 129.9,-160.45 119.39,-159.15 120.87,-165.99"/>
</a>
</g>
</g>
<!-- Node3 -->
<g id="Node000003" class="node">
<title>Node3</title>
<g id="a_Node000003"><a xlink:href="class_basic_element.html#a85cccd7db0e46e4e2b646365cd6c66a9" target="_top" xlink:title=" ">
<polygon fill="white" stroke="#666666" points="406.5,-216 263,-216 263,-196 406.5,-196 406.5,-216"/>
<text xml:space="preserve" text-anchor="middle" x="334.75" y="-202.5" font-family="Helvetica,sans-Serif" font-size="10.00">BasicElement::BasicElement</text>
</a>
</g>
</g>
<!-- Node1&#45;&gt;Node3 -->
<g id="edge17_Node000001_Node000003" class="edge">
<title>Node1&#45;&gt;Node3</title>
<g id="a_edge17_Node000001_Node000003"><a xlink:title=" ">
<path fill="none" stroke="#63b8ff" d="M96,-183.26C107.6,-184.52 120,-185.83 131.5,-187 170.93,-191 214.71,-195.14 251.43,-198.54"/>
<polygon fill="#63b8ff" stroke="#63b8ff" points="250.8,-202 261.08,-199.43 251.45,-195.03 250.8,-202"/>
</a>
</g>
</g>
<!-- Node2&#45;&gt;Node2 -->
<g id="edge2_Node000002_Node000002" class="edge">
<title>Node2&#45;&gt;Node2</title>
<g id="a_edge2_Node000002_Node000002"><a xlink:title=" ">
<path fill="none" stroke="#63b8ff" d="M158.36,-160.34C149.43,-168.98 156.39,-178 179.25,-178 191.75,-178 199.5,-175.3 202.49,-171.44"/>
<polygon fill="#63b8ff" stroke="#63b8ff" points="205.95,-170.88 200.46,-161.82 199.1,-172.33 205.95,-170.88"/>
</a>
</g>
</g>
<!-- Node2&#45;&gt;Node3 -->
<g id="edge3_Node000002_Node000003" class="edge">
<title>Node2&#45;&gt;Node3</title>
<g id="a_edge3_Node000002_Node000003"><a xlink:title=" ">
<path fill="none" stroke="#63b8ff" d="M208.76,-160.4C232.92,-169.21 267.8,-181.94 294.57,-191.71"/>
<polygon fill="#63b8ff" stroke="#63b8ff" points="293.11,-194.9 303.71,-195.04 295.51,-188.32 293.11,-194.9"/>
</a>
</g>
</g>
<!-- Node10 -->
<g id="Node000010" class="node">
<title>Node10</title>
<g id="a_Node000010"><a xlink:href="class_attribute.html#a9fbfd8cb51abe1f5b3e85333eb3ba55a" target="_top" xlink:title=" ">
<polygon fill="white" stroke="#666666" points="393,-160 276.5,-160 276.5,-140 393,-140 393,-160"/>
<text xml:space="preserve" text-anchor="middle" x="334.75" y="-146.5" font-family="Helvetica,sans-Serif" font-size="10.00">Attribute::preferredSize</text>
</a>
</g>
</g>
<!-- Node2&#45;&gt;Node10 -->
<g id="edge10_Node000002_Node000010" class="edge">
<title>Node2&#45;&gt;Node10</title>
<g id="a_edge10_Node000002_Node000010"><a xlink:title=" ">
<path fill="none" stroke="#63b8ff" d="M227.14,-150C238.95,-150 251.88,-150 264.54,-150"/>
<polygon fill="#63b8ff" stroke="#63b8ff" points="264.53,-153.5 274.53,-150 264.53,-146.5 264.53,-153.5"/>
</a>
</g>
</g>
<!-- Node11 -->
<g id="Node000011" class="node">
<title>Node11</title>
<g id="a_Node000011"><a xlink:href="class_basic_element.html#ab86c964c6ef9e8d7299efc263a0837e7" target="_top" xlink:title=" ">
<polygon fill="white" stroke="#666666" points="392.62,-109 276.88,-109 276.88,-89 392.62,-89 392.62,-109"/>
<text xml:space="preserve" text-anchor="middle" x="334.75" y="-95.5" font-family="Helvetica,sans-Serif" font-size="10.00">BasicElement::setSize</text>
</a>
</g>
</g>
<!-- Node2&#45;&gt;Node11 -->
<g id="edge11_Node000002_Node000011" class="edge">
<title>Node2&#45;&gt;Node11</title>
<g id="a_edge11_Node000002_Node000011"><a xlink:title=" ">
<path fill="none" stroke="#63b8ff" d="M211.68,-139.56C234.76,-131.89 266.35,-121.39 291.61,-113"/>
<polygon fill="#63b8ff" stroke="#63b8ff" points="292.54,-116.38 300.92,-109.91 290.33,-109.74 292.54,-116.38"/>
</a>
</g>
</g>
<!-- Node4 -->
<g id="Node000004" class="node">
<title>Node4</title>
<g id="a_Node000004"><a xlink:href="class_basic_element.html#a028ebc6c9de8f0b90af0e7daef9549f8" target="_top" xlink:title=" ">
<polygon fill="white" stroke="#666666" points="591.25,-272 450,-272 450,-240 591.25,-240 591.25,-272"/>
<text xml:space="preserve" text-anchor="start" x="458" y="-258.5" font-family="Helvetica,sans-Serif" font-size="10.00">BasicElement::createDefault</text>
<text xml:space="preserve" text-anchor="middle" x="520.62" y="-246.5" font-family="Helvetica,sans-Serif" font-size="10.00">ConnectionPoints</text>
</a>
</g>
</g>
<!-- Node3&#45;&gt;Node4 -->
<g id="edge4_Node000003_Node000004" class="edge">
<title>Node3&#45;&gt;Node4</title>
<g id="a_edge4_Node000003_Node000004"><a xlink:title=" ">
<path fill="none" stroke="#63b8ff" d="M374.3,-216.48C395.67,-222.29 422.94,-229.71 448.06,-236.54"/>
<polygon fill="#63b8ff" stroke="#63b8ff" points="447.02,-239.89 457.59,-239.13 448.86,-233.13 447.02,-239.89"/>
</a>
</g>
</g>
<!-- Node9 -->
<g id="Node000009" class="node">
<title>Node9</title>
<g id="a_Node000009"><a xlink:href="class_basic_element.html#a01a6511d922708fe0042474740109152" target="_top" xlink:title=" ">
<polygon fill="white" stroke="#666666" points="589.75,-222 451.5,-222 451.5,-190 589.75,-190 589.75,-222"/>
<text xml:space="preserve" text-anchor="start" x="459.5" y="-208.5" font-family="Helvetica,sans-Serif" font-size="10.00">BasicElement::elementType</text>
<text xml:space="preserve" text-anchor="middle" x="520.62" y="-196.5" font-family="Helvetica,sans-Serif" font-size="10.00">ToString</text>
</a>
</g>
</g>
<!-- Node3&#45;&gt;Node9 -->
<g id="edge9_Node000003_Node000009" class="edge">
<title>Node3&#45;&gt;Node9</title>
<g id="a_edge9_Node000003_Node000009"><a xlink:title=" ">
<path fill="none" stroke="#63b8ff" d="M406.84,-206C417.64,-206 428.85,-206 439.82,-206"/>
<polygon fill="#63b8ff" stroke="#63b8ff" points="439.63,-209.5 449.63,-206 439.63,-202.5 439.63,-209.5"/>
</a>
</g>
</g>
<!-- Node5 -->
<g id="Node000005" class="node">
<title>Node5</title>
<g id="a_Node000005"><a xlink:href="class_basic_element.html#a0357bfa9b1ef06dd1c9d64bcb00813f4" target="_top" xlink:title=" ">
<polygon fill="white" stroke="#666666" points="785,-297 637,-297 637,-265 785,-265 785,-297"/>
<text xml:space="preserve" text-anchor="start" x="645" y="-283.5" font-family="Helvetica,sans-Serif" font-size="10.00">BasicElement::addConnection</text>
<text xml:space="preserve" text-anchor="middle" x="711" y="-271.5" font-family="Helvetica,sans-Serif" font-size="10.00">Point</text>
</a>
</g>
</g>
<!-- Node4&#45;&gt;Node5 -->
<g id="edge5_Node000004_Node000005" class="edge">
<title>Node4&#45;&gt;Node5</title>
<g id="a_edge5_Node000004_Node000005"><a xlink:title=" ">
<path fill="none" stroke="#63b8ff" d="M591.5,-265.27C602.57,-266.74 614.13,-268.28 625.49,-269.78"/>
<polygon fill="#63b8ff" stroke="#63b8ff" points="624.89,-273.24 635.27,-271.08 625.81,-266.3 624.89,-273.24"/>
</a>
</g>
</g>
<!-- Node6 -->
<g id="Node000006" class="node">
<title>Node6</title>
<g id="a_Node000006"><a xlink:href="class_connection_point.html#a9de406389d93810151498693037eeb95" target="_top" xlink:title=" ">
<polygon fill="white" stroke="#666666" points="787.25,-247 634.75,-247 634.75,-215 787.25,-215 787.25,-247"/>
<text xml:space="preserve" text-anchor="start" x="642.75" y="-233.5" font-family="Helvetica,sans-Serif" font-size="10.00">ConnectionPoint::createDefault</text>
<text xml:space="preserve" text-anchor="middle" x="711" y="-221.5" font-family="Helvetica,sans-Serif" font-size="10.00">ConnectionPoints</text>
</a>
</g>
</g>
<!-- Node4&#45;&gt;Node6 -->
<g id="edge6_Node000004_Node000006" class="edge">
<title>Node4&#45;&gt;Node6</title>
<g id="a_edge6_Node000004_Node000006"><a xlink:title=" ">
<path fill="none" stroke="#63b8ff" d="M591.5,-246.73C601.91,-245.34 612.75,-243.91 623.46,-242.49"/>
<polygon fill="#63b8ff" stroke="#63b8ff" points="623.59,-246 633.05,-241.21 622.67,-239.06 623.59,-246"/>
</a>
</g>
</g>
<!-- Node7 -->
<g id="Node000007" class="node">
<title>Node7</title>
<g id="a_Node000007"><a xlink:href="class_connection_point.html#a8977265b0868dad361fcbeec5a89bdeb" target="_top" xlink:title=" ">
<polygon fill="white" stroke="#666666" points="977.25,-247 823.25,-247 823.25,-215 977.25,-215 977.25,-247"/>
<text xml:space="preserve" text-anchor="start" x="831.25" y="-233.5" font-family="Helvetica,sans-Serif" font-size="10.00">ConnectionPoint::addConection</text>
<text xml:space="preserve" text-anchor="middle" x="900.25" y="-221.5" font-family="Helvetica,sans-Serif" font-size="10.00">Point</text>
</a>
</g>
</g>
<!-- Node6&#45;&gt;Node7 -->
<g id="edge7_Node000006_Node000007" class="edge">
<title>Node6&#45;&gt;Node7</title>
<g id="a_edge7_Node000006_Node000007"><a xlink:title=" ">
<path fill="none" stroke="#63b8ff" d="M787.62,-231C795.56,-231 803.67,-231 811.72,-231"/>
<polygon fill="#63b8ff" stroke="#63b8ff" points="811.53,-234.5 821.53,-231 811.53,-227.5 811.53,-234.5"/>
</a>
</g>
</g>
<!-- Node8 -->
<g id="Node000008" class="node">
<title>Node8</title>
<g id="a_Node000008"><a xlink:href="class_connection_point.html#ac498b99d7f91805fea3eab19f2e8b260" target="_top" xlink:title=" ">
<polygon fill="white" stroke="#666666" points="1156.75,-247 1013.25,-247 1013.25,-215 1156.75,-215 1156.75,-247"/>
<text xml:space="preserve" text-anchor="start" x="1021.25" y="-233.5" font-family="Helvetica,sans-Serif" font-size="10.00">ConnectionPoint::Connection</text>
<text xml:space="preserve" text-anchor="middle" x="1085" y="-221.5" font-family="Helvetica,sans-Serif" font-size="10.00">Point</text>
</a>
</g>
</g>
<!-- Node7&#45;&gt;Node8 -->
<g id="edge8_Node000007_Node000008" class="edge">
<title>Node7&#45;&gt;Node8</title>
<g id="a_edge8_Node000007_Node000008"><a xlink:title=" ">
<path fill="none" stroke="#63b8ff" d="M977.69,-231C985.51,-231 993.48,-231 1001.37,-231"/>
<polygon fill="#63b8ff" stroke="#63b8ff" points="1001.31,-234.5 1011.31,-231 1001.31,-227.5 1001.31,-234.5"/>
</a>
</g>
</g>
<!-- Node12 -->
<g id="Node000012" class="node">
<title>Node12</title>
<g id="a_Node000012"><a xlink:href="class_basic_element.html#ad1b7a593fb82e872041b342abd157088" target="_top" xlink:title=" ">
<polygon fill="white" stroke="#666666" points="598.75,-172 442.5,-172 442.5,-152 598.75,-152 598.75,-172"/>
<text xml:space="preserve" text-anchor="middle" x="520.62" y="-158.5" font-family="Helvetica,sans-Serif" font-size="10.00">BasicElement::elementChanged</text>
</a>
</g>
</g>
<!-- Node11&#45;&gt;Node12 -->
<g id="edge12_Node000011_Node000012" class="edge">
<title>Node11&#45;&gt;Node12</title>
<g id="a_edge12_Node000011_Node000012"><a xlink:title=" ">
<path fill="none" stroke="#63b8ff" d="M358.29,-109.44C379.64,-119.06 412.78,-133.27 442.5,-143 448.63,-145.01 455.09,-146.91 461.56,-148.69"/>
<polygon fill="#63b8ff" stroke="#63b8ff" points="460.38,-152 470.94,-151.17 462.17,-145.23 460.38,-152"/>
</a>
</g>
</g>
<!-- Node13 -->
<g id="Node000013" class="node">
<title>Node13</title>
<g id="a_Node000013"><a xlink:href="class_basic_element.html#a2cb2eb803daa35380908948215f8d468" target="_top" xlink:title=" ">
<polygon fill="white" stroke="#666666" points="591.62,-134 449.62,-134 449.62,-114 591.62,-114 591.62,-134"/>
<text xml:space="preserve" text-anchor="middle" x="520.62" y="-120.5" font-family="Helvetica,sans-Serif" font-size="10.00">BasicElement::minimumSize</text>
</a>
</g>
</g>
<!-- Node11&#45;&gt;Node13 -->
<g id="edge13_Node000011_Node000013" class="edge">
<title>Node11&#45;&gt;Node13</title>
<g id="a_edge13_Node000011_Node000013"><a xlink:title=" ">
<path fill="none" stroke="#63b8ff" d="M392.92,-106.77C407.26,-108.72 422.92,-110.85 438.19,-112.93"/>
<polygon fill="#63b8ff" stroke="#63b8ff" points="437.33,-116.34 447.71,-114.22 438.27,-109.41 437.33,-116.34"/>
</a>
</g>
</g>
<!-- Node14 -->
<g id="Node000014" class="node">
<title>Node14</title>
<g id="a_Node000014"><a xlink:href="class_basic_element.html#a596caee40cdd00a0aacce49689b63f92" target="_top" xlink:title=" ">
<polygon fill="white" stroke="#666666" points="596.5,-96 444.75,-96 444.75,-76 596.5,-76 596.5,-96"/>
<text xml:space="preserve" text-anchor="middle" x="520.62" y="-82.5" font-family="Helvetica,sans-Serif" font-size="10.00">BasicElement::notifyObservers</text>
</a>
</g>
</g>
<!-- Node11&#45;&gt;Node14 -->
<g id="edge14_Node000011_Node000014" class="edge">
<title>Node11&#45;&gt;Node14</title>
<g id="a_edge14_Node000011_Node000014"><a xlink:title=" ">
<path fill="none" stroke="#63b8ff" d="M392.92,-94.96C405.69,-94.06 419.5,-93.08 433.16,-92.11"/>
<polygon fill="#63b8ff" stroke="#63b8ff" points="433.32,-95.61 443.05,-91.41 432.83,-88.63 433.32,-95.61"/>
</a>
</g>
</g>
<!-- Node15 -->
<g id="Node000015" class="node">
<title>Node15</title>
<g id="a_Node000015"><a xlink:href="class_basic_element.html#aafd52d1fae2f0b7666ae15bcbb3782c2" target="_top" xlink:title=" ">
<polygon fill="white" stroke="#666666" points="596.5,-58 444.75,-58 444.75,-38 596.5,-38 596.5,-58"/>
<text xml:space="preserve" text-anchor="middle" x="520.62" y="-44.5" font-family="Helvetica,sans-Serif" font-size="10.00">BasicElement::onSizeChanged</text>
</a>
</g>
</g>
<!-- Node11&#45;&gt;Node15 -->
<g id="edge15_Node000011_Node000015" class="edge">
<title>Node11&#45;&gt;Node15</title>
<g id="a_edge15_Node000011_Node000015"><a xlink:title=" ">
<path fill="none" stroke="#63b8ff" d="M368.81,-88.63C389.83,-82.15 417.68,-73.77 442.5,-67 449.57,-65.07 457.02,-63.13 464.4,-61.25"/>
<polygon fill="#63b8ff" stroke="#63b8ff" points="465.16,-64.67 474.01,-58.84 463.46,-57.88 465.16,-64.67"/>
</a>
</g>
</g>
<!-- Node16 -->
<g id="Node000016" class="node">
<title>Node16</title>
<g id="a_Node000016"><a xlink:href="class_basic_element.html#a5af654d8bb5e16b44121f69c832037b8" target="_top" xlink:title=" ">
<polygon fill="white" stroke="#666666" points="590.5,-20 450.75,-20 450.75,0 590.5,0 590.5,-20"/>
<text xml:space="preserve" text-anchor="middle" x="520.62" y="-6.5" font-family="Helvetica,sans-Serif" font-size="10.00">BasicElement::sizeChanged</text>
</a>
</g>
</g>
<!-- Node11&#45;&gt;Node16 -->
<g id="edge16_Node000011_Node000016" class="edge">
<title>Node11&#45;&gt;Node16</title>
<g id="a_edge16_Node000011_Node000016"><a xlink:title=" ">
<path fill="none" stroke="#63b8ff" d="M348.4,-88.62C367.59,-73.38 405.73,-45.03 442.5,-29 446.84,-27.11 451.4,-25.38 456.04,-23.81"/>
<polygon fill="#63b8ff" stroke="#63b8ff" points="457.01,-27.18 465.53,-20.88 454.94,-20.49 457.01,-27.18"/>
</a>
</g>
</g>
</g>
</svg>

<g id="navigator" transform="translate(0 0)" fill="#404254">
  <rect fill="#f2f5e9" fill-opacity="0.5" stroke="#606060" stroke-width=".5" x="0" y="0" width="60" height="60"/>
  <use id="zoomplus" xlink:href="#zoomPlus" x="17" y="9" onmousedown="handleZoom(evt,'in')"/>
  <use id="zoomminus" xlink:href="#zoomMin" x="42" y="9" onmousedown="handleZoom(evt,'out')"/>
  <use id="reset" xlink:href="#resetDef" x="30" y="36" onmousedown="handleReset()"/>
   <use id="arrowup" xlink:href="#arrowUp" x="0" y="0" onmousedown="handlePan(0,-1)"/>
  <use id="arrowright" xlink:href="#arrowRight" x="0" y="0" onmousedown="handlePan(1,0)"/>
  <use id="arrowdown" xlink:href="#arrowDown" x="0" y="0" onmousedown="handlePan(0,1)"/>
  <use id="arrowleft" xlink:href="#arrowLeft" x="0" y="0" onmousedown="handlePan(-1,0)"/>
</g>
<svg viewBox="0 0 15 15" width="100%" height="30px" preserveAspectRatio="xMaxYMin meet">
 <g id="arrow_out" transform="scale(0.3 0.3)">
  <a xlink:href="class_attribute_af93ebaed48e35e2dbbf0abbb5ad5c688_cgraph_org.svg" target="_base">
   <rect id="button" ry="5" rx="5" y="6" x="6" height="38" width="38"
        fill="#f2f5e9" fill-opacity="0.5" stroke="#606060" stroke-width="1.0"/>
   <path id="arrow"
     d="M 11.500037,31.436501 C 11.940474,20.09759 22.043105,11.32322 32.158766,21.979434 L 37.068811,17.246167 C 37.068811,17.246167 37.088388,32 37.088388,32 L 22.160133,31.978069 C 22.160133,31.978069 26.997745,27.140456 26.997745,27.140456 C 18.528582,18.264221 13.291696,25.230495 11.500037,31.436501 z"
     style="fill:#404040;"/>
  </a>
 </g>
</svg>

<style type='text/css'>
<![CDATA[
[data-mouse-over-selected='false'] { opacity: 0.7; }
[data-mouse-over-selected='true']  { opacity: 1.0; }
]]>
</style>
<script type="application/ecmascript"><![CDATA[
document.addEventListener('DOMContentLoaded', (event) => {
  highlightEdges();
  highlightAdjacentNodes();
});
]]></script>
</svg>
