<?xml version="1.0" encoding="UTF-8" standalone="no"?>
<!DOCTYPE svg PUBLIC "-//W3C//DTD SVG 1.1//EN"
 "http://www.w3.org/Graphics/SVG/1.1/DTD/svg11.dtd">
<!-- Generated by graphviz version 14.1.1 (20251213.1925)
 -->
<!-- Title: BasicElement::move Pages: 1 -->
<svg width="475pt" height="166pt"
 viewBox="0.00 0.00 475.00 166.00" xmlns="http://www.w3.org/2000/svg" xmlns:xlink="http://www.w3.org/1999/xlink">

<svg id="main" version="1.1" xmlns="http://www.w3.org/2000/svg" xmlns:xlink="http://www.w3.org/1999/xlink" xml:space="preserve">

<style type="text/css"><![CDATA[
.node, .edge {opacity: 0.7;}
.node.selected, .edge.selected {opacity: 1;}
.edge:hover path { stroke: red; }
.edge:hover polygon { stroke: red; fill: red; }
]]></style>
<script type="application/ecmascript" xlink:href="svg.min.js"/>
<svg id="graph" class="graph">
<g id="graph0" class="graph" transform="scale(1 1) rotate(0) translate(4 162)">
<title>BasicElement::move</title>
<!-- Node1 -->
<g id="Node000001" class="node">
<title>Node1</title>
<g id="a_Node000001"><a xlink:title=" ">
<polygon fill="#999999" stroke="#666666" points="106.75,-89 0,-89 0,-69 106.75,-69 106.75,-89"/>
<text xml:space="preserve" text-anchor="middle" x="53.38" y="-75.5" font-family="Helvetica,sans-Serif" font-size="10.00">BasicElement::move</text>
</a>
</g>
</g>
<!-- Node2 -->
<g id="Node000002" class="node">
<title>Node2</title>
<g id="a_Node000002"><a xlink:href="class_basic_element.html#ab14524060d1b8fbbba753207029c6d7d" target="_top" xlink:title=" ">
<polygon fill="white" stroke="#666666" points="274.25,-89 142.75,-89 142.75,-69 274.25,-69 274.25,-89"/>
<text xml:space="preserve" text-anchor="middle" x="208.5" y="-75.5" font-family="Helvetica,sans-Serif" font-size="10.00">BasicElement::setPosition</text>
</a>
</g>
</g>
<!-- Node1&#45;&gt;Node2 -->
<g id="edge1_Node000001_Node000002" class="edge">
<title>Node1&#45;&gt;Node2</title>
<g id="a_edge1_Node000001_Node000002"><a xlink:title=" ">
<path fill="none" stroke="#63b8ff" d="M107.07,-79C114.77,-79 122.84,-79 130.9,-79"/>
<polygon fill="#63b8ff" stroke="#63b8ff" points="130.74,-82.5 140.74,-79 130.74,-75.5 130.74,-82.5"/>
</a>
</g>
</g>
<!-- Node3 -->
<g id="Node000003" class="node">
<title>Node3</title>
<g id="a_Node000003"><a xlink:href="class_basic_element.html#ad1b7a593fb82e872041b342abd157088" target="_top" xlink:title=" ">
<polygon fill="white" stroke="#666666" points="466.5,-158 310.25,-158 310.25,-138 466.5,-138 466.5,-158"/>
<text xml:space="preserve" text-anchor="middle" x="388.38" y="-144.5" font-family="Helvetica,sans-Serif" font-size="10.00">BasicElement::elementChanged</text>
</a>
</g>
</g>
<!-- Node2&#45;&gt;Node3 -->
<g id="edge2_Node000002_Node000003" class="edge">
<title>Node2&#45;&gt;Node3</title>
<g id="a_edge2_Node000002_Node000003"><a xlink:title=" ">
<path fill="none" stroke="#63b8ff" d="M227.53,-89.46C247.29,-100.56 280.18,-117.99 310.25,-129 315.62,-130.97 321.26,-132.79 326.97,-134.47"/>
<polygon fill="#63b8ff" stroke="#63b8ff" points="325.9,-137.81 336.47,-137.12 327.78,-131.07 325.9,-137.81"/>
</a>
</g>
</g>
<!-- Node4 -->
<g id="Node000004" class="node">
<title>Node4</title>
<g id="a_Node000004"><a xlink:href="class_basic_element.html#a84f8dd62eabbe3dded6bacf42a783856" target="_top" xlink:title=" ">
<polygon fill="white" stroke="#666666" points="459.38,-120 317.38,-120 317.38,-88 459.38,-88 459.38,-120"/>
<text xml:space="preserve" text-anchor="start" x="325.38" y="-106.5" font-family="Helvetica,sans-Serif" font-size="10.00">BasicElement::notifyPosition</text>
<text xml:space="preserve" text-anchor="middle" x="388.38" y="-94.5" font-family="Helvetica,sans-Serif" font-size="10.00">Changed</text>
</a>
</g>
</g>
<!-- Node2&#45;&gt;Node4 -->
<g id="edge3_Node000002_Node000004" class="edge">
<title>Node2&#45;&gt;Node4</title>
<g id="a_edge3_Node000002_Node000004"><a xlink:title=" ">
<path fill="none" stroke="#63b8ff" d="M274.72,-88.17C284.85,-89.59 295.41,-91.07 305.84,-92.54"/>
<polygon fill="#63b8ff" stroke="#63b8ff" points="305.18,-95.98 315.57,-93.91 306.15,-89.05 305.18,-95.98"/>
</a>
</g>
</g>
<!-- Node5 -->
<g id="Node000005" class="node">
<title>Node5</title>
<g id="a_Node000005"><a xlink:href="class_basic_element.html#aa4779b31234dc7c90ceddd5a3069b2e7" target="_top" xlink:title=" ">
<polygon fill="white" stroke="#666666" points="452.62,-70 324.12,-70 324.12,-38 452.62,-38 452.62,-70"/>
<text xml:space="preserve" text-anchor="start" x="332.12" y="-56.5" font-family="Helvetica,sans-Serif" font-size="10.00">BasicElement::onPosition</text>
<text xml:space="preserve" text-anchor="middle" x="388.38" y="-44.5" font-family="Helvetica,sans-Serif" font-size="10.00">Changed</text>
</a>
</g>
</g>
<!-- Node2&#45;&gt;Node5 -->
<g id="edge4_Node000002_Node000005" class="edge">
<title>Node2&#45;&gt;Node5</title>
<g id="a_edge4_Node000002_Node000005"><a xlink:title=" ">
<path fill="none" stroke="#63b8ff" d="M274.72,-69.83C286.95,-68.12 299.81,-66.31 312.3,-64.55"/>
<polygon fill="#63b8ff" stroke="#63b8ff" points="312.73,-68.03 322.14,-63.17 311.75,-61.09 312.73,-68.03"/>
</a>
</g>
</g>
<!-- Node6 -->
<g id="Node000006" class="node">
<title>Node6</title>
<g id="a_Node000006"><a xlink:href="class_basic_element.html#a02183bafd7c80f9f1f99a9b9f1631524" target="_top" xlink:title=" ">
<polygon fill="white" stroke="#666666" points="466.12,-20 310.62,-20 310.62,0 466.12,0 466.12,-20"/>
<text xml:space="preserve" text-anchor="middle" x="388.38" y="-6.5" font-family="Helvetica,sans-Serif" font-size="10.00">BasicElement::positionChanged</text>
</a>
</g>
</g>
<!-- Node2&#45;&gt;Node6 -->
<g id="edge5_Node000002_Node000006" class="edge">
<title>Node2&#45;&gt;Node6</title>
<g id="a_edge5_Node000002_Node000006"><a xlink:title=" ">
<path fill="none" stroke="#63b8ff" d="M227.53,-68.54C247.29,-57.44 280.18,-40.01 310.25,-29 315.62,-27.03 321.26,-25.21 326.97,-23.53"/>
<polygon fill="#63b8ff" stroke="#63b8ff" points="327.78,-26.93 336.47,-20.88 325.9,-20.19 327.78,-26.93"/>
</a>
</g>
</g>
</g>
</svg>
</svg>

<style type='text/css'>
<![CDATA[
[data-mouse-over-selected='false'] { opacity: 0.7; }
[data-mouse-over-selected='true']  { opacity: 1.0; }
]]>
</style>
<script type="application/ecmascript"><![CDATA[
document.addEventListener('DOMContentLoaded', (event) => {
  highlightEdges();
  highlightAdjacentNodes();
});
]]></script>
</svg>
