<?xml version="1.0" encoding="UTF-8" standalone="no"?>
<!DOCTYPE svg PUBLIC "-//W3C//DTD SVG 1.1//EN"
 "http://www.w3.org/Graphics/SVG/1.1/DTD/svg11.dtd">
<!-- Generated by graphviz version 14.1.1 (20251213.1925)
 -->
<!-- Title: RelationshipConnectionLine::deserialize Pages: 1 -->
<svg width="1427pt" height="276pt"
 viewBox="0.00 0.00 1427.00 276.00" xmlns="http://www.w3.org/2000/svg" xmlns:xlink="http://www.w3.org/1999/xlink">
<g id="graph0" class="graph" transform="scale(1 1) rotate(0) translate(4 272)">
<title>RelationshipConnectionLine::deserialize</title>
<!-- Node1 -->
<g id="Node000001" class="node">
<title>Node1</title>
<g id="a_Node000001"><a xlink:title=" ">
<polygon fill="#999999" stroke="#666666" points="137.5,-129 0,-129 0,-97 137.5,-97 137.5,-129"/>
<text xml:space="preserve" text-anchor="start" x="8" y="-115.5" font-family="Helvetica,sans-Serif" font-size="10.00">RelationshipConnectionLine</text>
<text xml:space="preserve" text-anchor="middle" x="68.75" y="-103.5" font-family="Helvetica,sans-Serif" font-size="10.00">::deserialize</text>
</a>
</g>
</g>
<!-- Node2 -->
<g id="Node000002" class="node">
<title>Node2</title>
<g id="a_Node000002"><a xlink:href="class_connection_line.html#ae3606c18d99a61f056d37a755a9d14c0" target="_top" xlink:title=" ">
<polygon fill="white" stroke="#666666" points="310.25,-158 174.25,-158 174.25,-138 310.25,-138 310.25,-158"/>
<text xml:space="preserve" text-anchor="middle" x="242.25" y="-144.5" font-family="Helvetica,sans-Serif" font-size="10.00">ConnectionLine::deserialize</text>
</a>
</g>
</g>
<!-- Node1&#45;&gt;Node2 -->
<g id="edge1_Node000001_Node000002" class="edge">
<title>Node1&#45;&gt;Node2</title>
<g id="a_edge1_Node000001_Node000002"><a xlink:title=" ">
<path fill="none" stroke="#63b8ff" d="M137.53,-126.83C151.14,-129.61 165.37,-132.52 178.79,-135.25"/>
<polygon fill="#63b8ff" stroke="#63b8ff" points="177.85,-138.63 188.35,-137.2 179.25,-131.77 177.85,-138.63"/>
</a>
</g>
</g>
<!-- Node16 -->
<g id="Node000016" class="node">
<title>Node16</title>
<g id="a_Node000016"><a xlink:href="class_relationship_connection_line.html#aa30d5092e409b8f272239e8e9b64717a" target="_top" xlink:title=" ">
<polygon fill="white" stroke="#666666" points="311,-95 173.5,-95 173.5,-63 311,-63 311,-95"/>
<text xml:space="preserve" text-anchor="start" x="181.5" y="-81.5" font-family="Helvetica,sans-Serif" font-size="10.00">RelationshipConnectionLine</text>
<text xml:space="preserve" text-anchor="middle" x="242.25" y="-69.5" font-family="Helvetica,sans-Serif" font-size="10.00">::isCardinalityOffsetValid</text>
</a>
</g>
</g>
<!-- Node1&#45;&gt;Node16 -->
<g id="edge19_Node000001_Node000016" class="edge">
<title>Node1&#45;&gt;Node16</title>
<g id="a_edge19_Node000001_Node000016"><a xlink:title=" ">
<path fill="none" stroke="#63b8ff" d="M137.53,-99.56C145.58,-97.97 153.84,-96.33 162.03,-94.71"/>
<polygon fill="#63b8ff" stroke="#63b8ff" points="162.51,-98.18 171.63,-92.8 161.14,-91.31 162.51,-98.18"/>
</a>
</g>
</g>
<!-- Node3 -->
<g id="Node000003" class="node">
<title>Node3</title>
<g id="a_Node000003"><a xlink:href="class_connection_line.html#aabbf15273d5fb94dad38aa8e4e1c861b" target="_top" xlink:title=" ">
<polygon fill="white" stroke="#666666" points="495.75,-158 353.75,-158 353.75,-138 495.75,-138 495.75,-158"/>
<text xml:space="preserve" text-anchor="middle" x="424.75" y="-144.5" font-family="Helvetica,sans-Serif" font-size="10.00">ConnectionLine::setLineType</text>
</a>
</g>
</g>
<!-- Node2&#45;&gt;Node3 -->
<g id="edge2_Node000002_Node000003" class="edge">
<title>Node2&#45;&gt;Node3</title>
<g id="a_edge2_Node000002_Node000003"><a xlink:title=" ">
<path fill="none" stroke="#63b8ff" d="M310.72,-148C320.94,-148 331.58,-148 342.06,-148"/>
<polygon fill="#63b8ff" stroke="#63b8ff" points="341.84,-151.5 351.84,-148 341.84,-144.5 341.84,-151.5"/>
</a>
</g>
</g>
<!-- Node14 -->
<g id="Node000014" class="node">
<title>Node14</title>
<g id="a_Node000014"><a xlink:href="class_connection_line.html#a7983d6ddbc5414ad75bfc9e16b78ea90" target="_top" xlink:title=" ">
<polygon fill="white" stroke="#666666" points="498,-218 351.5,-218 351.5,-198 498,-198 498,-218"/>
<text xml:space="preserve" text-anchor="middle" x="424.75" y="-204.5" font-family="Helvetica,sans-Serif" font-size="10.00">ConnectionLine::setLineWidth</text>
</a>
</g>
</g>
<!-- Node2&#45;&gt;Node14 -->
<g id="edge16_Node000002_Node000014" class="edge">
<title>Node2&#45;&gt;Node14</title>
<g id="a_edge16_Node000002_Node000014"><a xlink:title=" ">
<path fill="none" stroke="#63b8ff" d="M274.69,-158.45C304.36,-168.32 349.06,-183.17 381.77,-194.05"/>
<polygon fill="#63b8ff" stroke="#63b8ff" points="380.34,-197.26 390.93,-197.09 382.55,-190.61 380.34,-197.26"/>
</a>
</g>
</g>
<!-- Node4 -->
<g id="Node000004" class="node">
<title>Node4</title>
<g id="a_Node000004"><a xlink:href="class_connection_line.html#a9de44ae385d7941f3aa79da06e97d510" target="_top" xlink:title=" ">
<polygon fill="white" stroke="#666666" points="858.88,-186 722.12,-186 722.12,-154 858.88,-154 858.88,-186"/>
<text xml:space="preserve" text-anchor="start" x="730.12" y="-172.5" font-family="Helvetica,sans-Serif" font-size="10.00">ConnectionLine::connection</text>
<text xml:space="preserve" text-anchor="middle" x="790.5" y="-160.5" font-family="Helvetica,sans-Serif" font-size="10.00">Changed</text>
</a>
</g>
</g>
<!-- Node3&#45;&gt;Node4 -->
<g id="edge3_Node000003_Node000004" class="edge">
<title>Node3&#45;&gt;Node4</title>
<g id="a_edge3_Node000003_Node000004"><a xlink:title=" ">
<path fill="none" stroke="#63b8ff" d="M495.88,-152.24C557.33,-155.96 646.56,-161.35 710.5,-165.22"/>
<polygon fill="#63b8ff" stroke="#63b8ff" points="710.03,-168.7 720.22,-165.81 710.45,-161.71 710.03,-168.7"/>
</a>
</g>
</g>
<!-- Node11 -->
<g id="Node000011" class="node">
<title>Node11</title>
<g id="a_Node000011"><a xlink:href="class_connection_line.html#a7af2a1f9fc1a9ddb362634ecaa926ae8" target="_top" xlink:title=" ">
<polygon fill="white" stroke="#666666" points="672.62,-142 547.12,-142 547.12,-110 672.62,-110 672.62,-142"/>
<text xml:space="preserve" text-anchor="start" x="555.12" y="-128.5" font-family="Helvetica,sans-Serif" font-size="10.00">ConnectionLine::lineType</text>
<text xml:space="preserve" text-anchor="middle" x="609.88" y="-116.5" font-family="Helvetica,sans-Serif" font-size="10.00">Changed</text>
</a>
</g>
</g>
<!-- Node3&#45;&gt;Node11 -->
<g id="edge12_Node000003_Node000011" class="edge">
<title>Node3&#45;&gt;Node11</title>
<g id="a_edge12_Node000003_Node000011"><a xlink:title=" ">
<path fill="none" stroke="#63b8ff" d="M496.03,-139.56C508.98,-138 522.53,-136.37 535.57,-134.81"/>
<polygon fill="#63b8ff" stroke="#63b8ff" points="535.85,-138.3 545.36,-133.63 535.01,-131.35 535.85,-138.3"/>
</a>
</g>
</g>
<!-- Node12 -->
<g id="Node000012" class="node">
<title>Node12</title>
<g id="a_Node000012"><a xlink:href="class_connection_line.html#a78a97a15e4daad8d684b22e2a37a2e11" target="_top" xlink:title=" ">
<polygon fill="white" stroke="#666666" points="681.25,-92 538.5,-92 538.5,-60 681.25,-60 681.25,-92"/>
<text xml:space="preserve" text-anchor="start" x="546.5" y="-78.5" font-family="Helvetica,sans-Serif" font-size="10.00">ConnectionLine::resetControl</text>
<text xml:space="preserve" text-anchor="middle" x="609.88" y="-66.5" font-family="Helvetica,sans-Serif" font-size="10.00">Points</text>
</a>
</g>
</g>
<!-- Node3&#45;&gt;Node12 -->
<g id="edge13_Node000003_Node000012" class="edge">
<title>Node3&#45;&gt;Node12</title>
<g id="a_edge13_Node000003_Node000012"><a xlink:title=" ">
<path fill="none" stroke="#63b8ff" d="M480.02,-137.6C487.75,-135.25 495.46,-132.42 502.5,-129 520.74,-120.15 520.72,-110.74 538.5,-101 540.99,-99.64 543.56,-98.32 546.2,-97.06"/>
<polygon fill="#63b8ff" stroke="#63b8ff" points="547.45,-100.34 555.17,-93.08 544.61,-93.94 547.45,-100.34"/>
</a>
</g>
</g>
<!-- Node5 -->
<g id="Node000005" class="node">
<title>Node5</title>
<g id="a_Node000005"><a xlink:href="class_connection_line.html#a657559dca679d5fd04ae565b442b6a8b" target="_top" xlink:title=" ">
<polygon fill="white" stroke="#666666" points="1056.75,-180 899.75,-180 899.75,-160 1056.75,-160 1056.75,-180"/>
<text xml:space="preserve" text-anchor="middle" x="978.25" y="-166.5" font-family="Helvetica,sans-Serif" font-size="10.00">ConnectionLine::ConnectionLine</text>
</a>
</g>
</g>
<!-- Node4&#45;&gt;Node5 -->
<g id="edge4_Node000004_Node000005" class="edge">
<title>Node4&#45;&gt;Node5</title>
<g id="a_edge4_Node000004_Node000005"><a xlink:title=" ">
<path fill="none" stroke="#63b8ff" d="M859.35,-170C868.73,-170 878.49,-170 888.19,-170"/>
<polygon fill="#63b8ff" stroke="#63b8ff" points="888.01,-173.5 898.01,-170 888.01,-166.5 888.01,-173.5"/>
</a>
</g>
</g>
<!-- Node6 -->
<g id="Node000006" class="node">
<title>Node6</title>
<g id="a_Node000006"><a xlink:href="class_connection_line.html#a836aef7faf5a4fb8a5a10bfc71dbabe3" target="_top" xlink:title=" ">
<polygon fill="white" stroke="#666666" points="1227.25,-186 1092.75,-186 1092.75,-154 1227.25,-154 1227.25,-186"/>
<text xml:space="preserve" text-anchor="start" x="1100.75" y="-172.5" font-family="Helvetica,sans-Serif" font-size="10.00">ConnectionLine::connectTo</text>
<text xml:space="preserve" text-anchor="middle" x="1160" y="-160.5" font-family="Helvetica,sans-Serif" font-size="10.00">Points</text>
</a>
</g>
</g>
<!-- Node5&#45;&gt;Node6 -->
<g id="edge5_Node000005_Node000006" class="edge">
<title>Node5&#45;&gt;Node6</title>
<g id="a_edge5_Node000005_Node000006"><a xlink:title=" ">
<path fill="none" stroke="#63b8ff" d="M1057.05,-170C1064.95,-170 1072.98,-170 1080.89,-170"/>
<polygon fill="#63b8ff" stroke="#63b8ff" points="1080.85,-173.5 1090.85,-170 1080.85,-166.5 1080.85,-173.5"/>
</a>
</g>
</g>
<!-- Node7 -->
<g id="Node000007" class="node">
<title>Node7</title>
<g id="a_Node000007"><a xlink:href="class_connection_line.html#a53c863c51a284a7a8e6b35bc34bd2d34" target="_top" xlink:title=" ">
<polygon fill="white" stroke="#666666" points="1415.75,-252 1266.25,-252 1266.25,-220 1415.75,-220 1415.75,-252"/>
<text xml:space="preserve" text-anchor="start" x="1274.25" y="-238.5" font-family="Helvetica,sans-Serif" font-size="10.00">ConnectionLine::onConnection</text>
<text xml:space="preserve" text-anchor="middle" x="1341" y="-226.5" font-family="Helvetica,sans-Serif" font-size="10.00">PointChanged</text>
</a>
</g>
</g>
<!-- Node6&#45;&gt;Node7 -->
<g id="edge6_Node000006_Node000007" class="edge">
<title>Node6&#45;&gt;Node7</title>
<g id="a_edge6_Node000006_Node000007"><a xlink:title=" ">
<path fill="none" stroke="#63b8ff" d="M1200.1,-186.38C1219.05,-194.15 1242.22,-203.37 1263.25,-211 1267.7,-212.61 1272.3,-214.24 1276.95,-215.84"/>
<polygon fill="#63b8ff" stroke="#63b8ff" points="1275.79,-219.14 1286.39,-219.03 1278.04,-212.51 1275.79,-219.14"/>
</a>
</g>
</g>
<!-- Node8 -->
<g id="Node000008" class="node">
<title>Node8</title>
<g id="a_Node000008"><a xlink:href="class_connection_line.html#a4bce34a3f2fb1fd7145de2d9100c9173" target="_top" xlink:title=" ">
<polygon fill="white" stroke="#666666" points="1409,-114 1273,-114 1273,-82 1409,-82 1409,-114"/>
<text xml:space="preserve" text-anchor="start" x="1281" y="-100.5" font-family="Helvetica,sans-Serif" font-size="10.00">ConnectionLine::onElement</text>
<text xml:space="preserve" text-anchor="middle" x="1341" y="-88.5" font-family="Helvetica,sans-Serif" font-size="10.00">PositionChanged</text>
</a>
</g>
</g>
<!-- Node6&#45;&gt;Node8 -->
<g id="edge8_Node000006_Node000008" class="edge">
<title>Node6&#45;&gt;Node8</title>
<g id="a_edge8_Node000006_Node000008"><a xlink:title=" ">
<path fill="none" stroke="#63b8ff" d="M1194.2,-153.55C1214,-144.04 1239.78,-132.18 1263.25,-123 1267.39,-121.38 1271.68,-119.78 1276.02,-118.22"/>
<polygon fill="#63b8ff" stroke="#63b8ff" points="1277.16,-121.53 1285.44,-114.92 1274.84,-114.92 1277.16,-121.53"/>
</a>
</g>
</g>
<!-- Node9 -->
<g id="Node000009" class="node">
<title>Node9</title>
<g id="a_Node000009"><a xlink:href="class_basic_element.html#a02183bafd7c80f9f1f99a9b9f1631524" target="_top" xlink:title=" ">
<polygon fill="white" stroke="#666666" points="1418.75,-202 1263.25,-202 1263.25,-182 1418.75,-182 1418.75,-202"/>
<text xml:space="preserve" text-anchor="middle" x="1341" y="-188.5" font-family="Helvetica,sans-Serif" font-size="10.00">BasicElement::positionChanged</text>
</a>
</g>
</g>
<!-- Node6&#45;&gt;Node9 -->
<g id="edge10_Node000006_Node000009" class="edge">
<title>Node6&#45;&gt;Node9</title>
<g id="a_edge10_Node000006_Node000009"><a xlink:title=" ">
<path fill="none" stroke="#63b8ff" d="M1227.65,-178.19C1235.49,-179.16 1243.58,-180.15 1251.65,-181.14"/>
<polygon fill="#63b8ff" stroke="#63b8ff" points="1251.18,-184.61 1261.53,-182.36 1252.03,-177.66 1251.18,-184.61"/>
</a>
</g>
</g>
<!-- Node10 -->
<g id="Node000010" class="node">
<title>Node10</title>
<g id="a_Node000010"><a xlink:href="class_connection_point.html#a851668ae19e97658f1818a40ea375f65" target="_top" xlink:title=" ">
<polygon fill="white" stroke="#666666" points="1403.75,-164 1278.25,-164 1278.25,-132 1403.75,-132 1403.75,-164"/>
<text xml:space="preserve" text-anchor="start" x="1286.25" y="-150.5" font-family="Helvetica,sans-Serif" font-size="10.00">ConnectionPoint::relative</text>
<text xml:space="preserve" text-anchor="middle" x="1341" y="-138.5" font-family="Helvetica,sans-Serif" font-size="10.00">PositionChanged</text>
</a>
</g>
</g>
<!-- Node6&#45;&gt;Node10 -->
<g id="edge11_Node000006_Node000010" class="edge">
<title>Node6&#45;&gt;Node10</title>
<g id="a_edge11_Node000006_Node000010"><a xlink:title=" ">
<path fill="none" stroke="#63b8ff" d="M1227.65,-161.81C1240.41,-160.24 1253.84,-158.59 1266.8,-157"/>
<polygon fill="#63b8ff" stroke="#63b8ff" points="1267.03,-160.49 1276.53,-155.8 1266.18,-153.55 1267.03,-160.49"/>
</a>
</g>
</g>
<!-- Node7&#45;&gt;Node4 -->
<g id="edge7_Node000007_Node000004" class="edge">
<title>Node7&#45;&gt;Node4</title>
<g id="a_edge7_Node000007_Node000004"><a xlink:title=" ">
<path fill="none" stroke="#63b8ff" d="M1265.81,-229.62C1178.15,-221.72 1028,-207.08 899.75,-189 890.21,-187.66 880.22,-186.1 870.33,-184.47"/>
<polygon fill="#63b8ff" stroke="#63b8ff" points="871.17,-181.07 860.73,-182.86 870.01,-187.97 871.17,-181.07"/>
</a>
</g>
</g>
<!-- Node8&#45;&gt;Node4 -->
<g id="edge9_Node000008_Node000004" class="edge">
<title>Node8&#45;&gt;Node4</title>
<g id="a_edge9_Node000008_Node000004"><a xlink:title=" ">
<path fill="none" stroke="#63b8ff" d="M1272.72,-104.96C1186.24,-114.17 1031.5,-131.52 899.75,-151 890.22,-152.41 880.24,-154 870.35,-155.65"/>
<polygon fill="#63b8ff" stroke="#63b8ff" points="870.03,-152.16 860.75,-157.28 871.2,-159.06 870.03,-152.16"/>
</a>
</g>
</g>
<!-- Node12&#45;&gt;Node4 -->
<g id="edge14_Node000012_Node000004" class="edge">
<title>Node12&#45;&gt;Node4</title>
<g id="a_edge14_Node000012_Node000004"><a xlink:title=" ">
<path fill="none" stroke="#63b8ff" d="M661.43,-92.39C668.19,-95.04 674.96,-97.93 681.25,-101 708.22,-114.17 736.77,-132.58 757.78,-147.07"/>
<polygon fill="#63b8ff" stroke="#63b8ff" points="755.71,-149.9 765.91,-152.76 759.72,-144.16 755.71,-149.9"/>
</a>
</g>
</g>
<!-- Node13 -->
<g id="Node000013" class="node">
<title>Node13</title>
<g id="a_Node000013"><a xlink:href="class_connection_line.html#a93e2b3868595cc0ac41de6c0f36c2365" target="_top" xlink:title=" ">
<polygon fill="white" stroke="#666666" points="863.75,-92 717.25,-92 717.25,-60 863.75,-60 863.75,-92"/>
<text xml:space="preserve" text-anchor="start" x="725.25" y="-78.5" font-family="Helvetica,sans-Serif" font-size="10.00">ConnectionLine::controlPoints</text>
<text xml:space="preserve" text-anchor="middle" x="790.5" y="-66.5" font-family="Helvetica,sans-Serif" font-size="10.00">Changed</text>
</a>
</g>
</g>
<!-- Node12&#45;&gt;Node13 -->
<g id="edge15_Node000012_Node000013" class="edge">
<title>Node12&#45;&gt;Node13</title>
<g id="a_edge15_Node000012_Node000013"><a xlink:title=" ">
<path fill="none" stroke="#63b8ff" d="M681.73,-76C689.61,-76 697.69,-76 705.71,-76"/>
<polygon fill="#63b8ff" stroke="#63b8ff" points="705.46,-79.5 715.46,-76 705.46,-72.5 705.46,-79.5"/>
</a>
</g>
</g>
<!-- Node14&#45;&gt;Node4 -->
<g id="edge17_Node000014_Node000004" class="edge">
<title>Node14&#45;&gt;Node4</title>
<g id="a_edge17_Node000014_Node000004"><a xlink:title=" ">
<path fill="none" stroke="#63b8ff" d="M498.49,-200.4C559.9,-193.99 647.66,-184.82 710.72,-178.23"/>
<polygon fill="#63b8ff" stroke="#63b8ff" points="710.72,-181.75 720.3,-177.23 709.99,-174.79 710.72,-181.75"/>
</a>
</g>
</g>
<!-- Node15 -->
<g id="Node000015" class="node">
<title>Node15</title>
<g id="a_Node000015"><a xlink:href="class_connection_line.html#a3c8e72d1084c985add08c5e37d54835f" target="_top" xlink:title=" ">
<polygon fill="white" stroke="#666666" points="674.88,-268 544.88,-268 544.88,-236 674.88,-236 674.88,-268"/>
<text xml:space="preserve" text-anchor="start" x="552.88" y="-254.5" font-family="Helvetica,sans-Serif" font-size="10.00">ConnectionLine::lineWidth</text>
<text xml:space="preserve" text-anchor="middle" x="609.88" y="-242.5" font-family="Helvetica,sans-Serif" font-size="10.00">Changed</text>
</a>
</g>
</g>
<!-- Node14&#45;&gt;Node15 -->
<g id="edge18_Node000014_Node000015" class="edge">
<title>Node14&#45;&gt;Node15</title>
<g id="a_edge18_Node000014_Node000015"><a xlink:title=" ">
<path fill="none" stroke="#63b8ff" d="M469.15,-218.43C488.42,-223.06 511.67,-228.64 533.63,-233.92"/>
<polygon fill="#63b8ff" stroke="#63b8ff" points="532.61,-237.28 543.15,-236.21 534.25,-230.47 532.61,-237.28"/>
</a>
</g>
</g>
<!-- Node17 -->
<g id="Node000017" class="node">
<title>Node17</title>
<g id="a_Node000017"><a xlink:href="class_connection_line.html#a1bc3513a7e6738cc886e185e5475e734" target="_top" xlink:title=" ">
<polygon fill="white" stroke="#666666" points="502.5,-20 347,-20 347,0 502.5,0 502.5,-20"/>
<text xml:space="preserve" text-anchor="middle" x="424.75" y="-6.5" font-family="Helvetica,sans-Serif" font-size="10.00">ConnectionLine::getEndPosition</text>
</a>
</g>
</g>
<!-- Node16&#45;&gt;Node17 -->
<g id="edge20_Node000016_Node000017" class="edge">
<title>Node16&#45;&gt;Node17</title>
<g id="a_edge20_Node000016_Node000017"><a xlink:title=" ">
<path fill="none" stroke="#63b8ff" d="M272.96,-62.65C293.33,-51.95 321.23,-38.29 347,-29 352.43,-27.04 358.15,-25.22 363.91,-23.53"/>
<polygon fill="#63b8ff" stroke="#63b8ff" points="364.82,-26.91 373.53,-20.87 362.96,-20.16 364.82,-26.91"/>
</a>
</g>
</g>
<!-- Node18 -->
<g id="Node000018" class="node">
<title>Node18</title>
<g id="a_Node000018"><a xlink:href="class_connection_line.html#a45cb92cee71431ee04cfd1c5fba50acd" target="_top" xlink:title=" ">
<polygon fill="white" stroke="#666666" points="486.75,-120 362.75,-120 362.75,-88 486.75,-88 486.75,-120"/>
<text xml:space="preserve" text-anchor="start" x="370.75" y="-106.5" font-family="Helvetica,sans-Serif" font-size="10.00">ConnectionLine::getStart</text>
<text xml:space="preserve" text-anchor="middle" x="424.75" y="-94.5" font-family="Helvetica,sans-Serif" font-size="10.00">Position</text>
</a>
</g>
</g>
<!-- Node16&#45;&gt;Node18 -->
<g id="edge21_Node000016_Node000018" class="edge">
<title>Node16&#45;&gt;Node18</title>
<g id="a_edge21_Node000016_Node000018"><a xlink:title=" ">
<path fill="none" stroke="#63b8ff" d="M311.49,-88.45C324.46,-90.25 338.08,-92.13 351.18,-93.95"/>
<polygon fill="#63b8ff" stroke="#63b8ff" points="350.65,-97.41 361.03,-95.31 351.61,-90.47 350.65,-97.41"/>
</a>
</g>
</g>
<!-- Node19 -->
<g id="Node000019" class="node">
<title>Node19</title>
<g id="a_Node000019"><a xlink:href="class_relationship_connection_line.html#ab1dca8f109978ef13f02cb26801d31a9" target="_top" xlink:title=" ">
<polygon fill="white" stroke="#666666" points="493.5,-70 356,-70 356,-38 493.5,-38 493.5,-70"/>
<text xml:space="preserve" text-anchor="start" x="364" y="-56.5" font-family="Helvetica,sans-Serif" font-size="10.00">RelationshipConnectionLine</text>
<text xml:space="preserve" text-anchor="middle" x="424.75" y="-44.5" font-family="Helvetica,sans-Serif" font-size="10.00">::isRelationshipAtStart</text>
</a>
</g>
</g>
<!-- Node16&#45;&gt;Node19 -->
<g id="edge22_Node000016_Node000019" class="edge">
<title>Node16&#45;&gt;Node19</title>
<g id="a_edge22_Node000016_Node000019"><a xlink:title=" ">
<path fill="none" stroke="#63b8ff" d="M311.49,-69.55C322.23,-68.06 333.42,-66.51 344.39,-64.99"/>
<polygon fill="#63b8ff" stroke="#63b8ff" points="344.79,-68.47 354.21,-63.63 343.83,-61.54 344.79,-68.47"/>
</a>
</g>
</g>
</g>
</svg>
