<?xml version="1.0" encoding="UTF-8" standalone="no"?>
<!DOCTYPE svg PUBLIC "-//W3C//DTD SVG 1.1//EN"
 "http://www.w3.org/Graphics/SVG/1.1/DTD/svg11.dtd">
<!-- Generated by graphviz version 14.1.1 (20251213.1925)
 -->
<!-- Title: Entity::Entity Pages: 1 -->
<svg width="190pt" height="104pt"
 viewBox="0.00 0.00 190.00 104.00" xmlns="http://www.w3.org/2000/svg" xmlns:xlink="http://www.w3.org/1999/xlink">
<g id="graph0" class="graph" transform="scale(1 1) rotate(0) translate(4 100)">
<title>Entity::Entity</title>
<!-- Node1 -->
<g id="Node000001" class="node">
<title>Node1</title>
<g id="a_Node000001"><a xlink:title=" ">
<polygon fill="#999999" stroke="#666666" points="182,-58 109,-58 109,-38 182,-38 182,-58"/>
<text xml:space="preserve" text-anchor="middle" x="145.5" y="-44.5" font-family="Helvetica,sans-Serif" font-size="10.00">Entity::Entity</text>
</a>
</g>
</g>
<!-- Node1&#45;&gt;Node1 -->
<g id="edge4_Node000001_Node000001" class="edge">
<title>Node1&#45;&gt;Node1</title>
<g id="a_edge4_Node000001_Node000001"><a xlink:title=" ">
<path fill="none" stroke="#63b8ff" d="M164.77,-69.44C162.28,-73.3 155.86,-76 145.5,-76 126.55,-76 120.78,-66.98 128.18,-58.34"/>
<polygon fill="#63b8ff" stroke="#63b8ff" points="168.25,-69.08 163.08,-59.83 161.36,-70.28 168.25,-69.08"/>
</a>
</g>
</g>
<!-- Node2 -->
<g id="Node000002" class="node">
<title>Node2</title>
<g id="a_Node000002"><a xlink:href="class_entity.html#a31504f27be637a877dec58aab9815109" target="_top" xlink:title=" ">
<polygon fill="white" stroke="#666666" points="73,-96 0,-96 0,-76 73,-76 73,-96"/>
<text xml:space="preserve" text-anchor="middle" x="36.5" y="-82.5" font-family="Helvetica,sans-Serif" font-size="10.00">Entity::Entity</text>
</a>
</g>
</g>
<!-- Node1&#45;&gt;Node2 -->
<g id="edge1_Node000001_Node000002" class="edge">
<title>Node1&#45;&gt;Node2</title>
<g id="a_edge1_Node000001_Node000002"><a xlink:title=" ">
<path fill="none" stroke="#63b8ff" d="M104.39,-62.24C91.96,-66.66 78.49,-71.44 66.93,-75.55"/>
<polygon fill="#63b8ff" stroke="#63b8ff" points="105.3,-65.64 113.55,-58.99 102.96,-59.04 105.3,-65.64"/>
</a>
</g>
</g>
<!-- Node3 -->
<g id="Node000003" class="node">
<title>Node3</title>
<g id="a_Node000003"><a xlink:href="class_entity.html#a34cdf84f2657fd59a07265c37d94c88d" target="_top" xlink:title=" ">
<polygon fill="white" stroke="#666666" points="73,-58 0,-58 0,-38 73,-38 73,-58"/>
<text xml:space="preserve" text-anchor="middle" x="36.5" y="-44.5" font-family="Helvetica,sans-Serif" font-size="10.00">Entity::Entity</text>
</a>
</g>
</g>
<!-- Node1&#45;&gt;Node3 -->
<g id="edge2_Node000001_Node000003" class="edge">
<title>Node1&#45;&gt;Node3</title>
<g id="a_edge2_Node000001_Node000003"><a xlink:title=" ">
<path fill="none" stroke="#63b8ff" d="M97.31,-48C89.2,-48 80.89,-48 73.15,-48"/>
<polygon fill="#63b8ff" stroke="#63b8ff" points="97.06,-51.5 107.06,-48 97.06,-44.5 97.06,-51.5"/>
</a>
</g>
</g>
<!-- Node4 -->
<g id="Node000004" class="node">
<title>Node4</title>
<g id="a_Node000004"><a xlink:href="class_entity.html#ae562b28c015c3e376453d4b6dcf34f73" target="_top" xlink:title=" ">
<polygon fill="white" stroke="#666666" points="73,-20 0,-20 0,0 73,0 73,-20"/>
<text xml:space="preserve" text-anchor="middle" x="36.5" y="-6.5" font-family="Helvetica,sans-Serif" font-size="10.00">Entity::Entity</text>
</a>
</g>
</g>
<!-- Node1&#45;&gt;Node4 -->
<g id="edge3_Node000001_Node000004" class="edge">
<title>Node1&#45;&gt;Node4</title>
<g id="a_edge3_Node000001_Node000004"><a xlink:title=" ">
<path fill="none" stroke="#63b8ff" d="M104.39,-33.76C91.96,-29.34 78.49,-24.56 66.93,-20.45"/>
<polygon fill="#63b8ff" stroke="#63b8ff" points="102.96,-36.96 113.55,-37.01 105.3,-30.36 102.96,-36.96"/>
</a>
</g>
</g>
</g>
</svg>
