<?xml version="1.0" encoding="UTF-8" standalone="no"?>
<!DOCTYPE svg PUBLIC "-//W3C//DTD SVG 1.1//EN"
 "http://www.w3.org/Graphics/SVG/1.1/DTD/svg11.dtd">
<!-- Generated by graphviz version 14.1.1 (20251213.1925)
 -->
<!-- Title: RelationshipEnd::setCustomCardinalityText Pages: 1 -->
<!--zoomable 716 -->

<svg id="main" version="1.1" xmlns="http://www.w3.org/2000/svg" xmlns:xlink="http://www.w3.org/1999/xlink" xml:space="preserve" onload="init(evt)">

<style type="text/css"><![CDATA[
.node, .edge {opacity: 0.7;}
.node.selected, .edge.selected {opacity: 1;}
.edge:hover path { stroke: red; }
.edge:hover polygon { stroke: red; fill: red; }
]]></style>

<defs>
  <circle id="rim" cx="0" cy="0" r="7"/>
  <circle id="rim2" cx="0" cy="0" r="3.5"/>
  <g id="zoomPlus">
    <use xlink:href="#rim" fill="#404040"><set attributeName="fill" to="#808080" begin="zoomplus.mouseover" end="zoomplus.mouseout"/></use>
    <path d="M-4,0h8M0,-4v8" fill="none" stroke="white" stroke-width="1.5" pointer-events="none"/>
  </g>
  <g id="zoomMin">
    <use xlink:href="#rim" fill="#404040"><set attributeName="fill" to="#808080" begin="zoomminus.mouseover" end="zoomminus.mouseout"/></use>
    <path d="M-4,0h8" fill="none" stroke="white" stroke-width="1.5" pointer-events="none"/>
  </g>
  <g id="arrowUp" transform="translate(30 24)">
    <use xlink:href="#rim"/>
    <path pointer-events="none" fill="none" stroke="white" stroke-width="1.5" d="M0,-3.0v7 M-2.5,-0.5L0,-3.0L2.5,-0.5"/>
  </g>
  <g id="arrowRight" transform="rotate(90) translate(36 -43)">
    <use xlink:href="#rim"/>
    <path pointer-events="none" fill="none" stroke="white" stroke-width="1.5" d="M0,-3.0v7 M-2.5,-0.5L0,-3.0L2.5,-0.5"/>
  </g>
  <g id="arrowDown" transform="rotate(180) translate(-30 -48)">
    <use xlink:href="#rim"/>
    <path pointer-events="none" fill="none" stroke="white" stroke-width="1.5" d="M0,-3.0v7 M-2.5,-0.5L0,-3.0L2.5,-0.5"/>
  </g>
  <g id="arrowLeft" transform="rotate(270) translate(-36 17)">
    <use xlink:href="#rim"/>
    <path pointer-events="none" fill="none" stroke="white" stroke-width="1.5" d="M0,-3.0v7 M-2.5,-0.5L0,-3.0L2.5,-0.5"/>
  </g>
  <g id="resetDef">
    <use xlink:href="#rim2" fill="#404040"><set attributeName="fill" to="#808080" begin="reset.mouseover" end="reset.mouseout"/></use>
  </g>
</defs>
<script type="application/ecmascript">
var viewWidth = 2239;
var viewHeight = 716;
var sectionId = 'dynsection-11';
</script>
<script type="application/ecmascript" xlink:href="svg.min.js"/>
<svg id="graph" class="graph">
<g id="viewport">
<title>RelationshipEnd::setCustomCardinalityText</title>
<!-- Node1 -->
<g id="Node000001" class="node">
<title>Node1</title>
<g id="a_Node000001"><a xlink:title=" ">
<polygon fill="#999999" stroke="#666666" points="2230.75,-362 2089.5,-362 2089.5,-330 2230.75,-330 2230.75,-362"/>
<text xml:space="preserve" text-anchor="start" x="2097.5" y="-348.5" font-family="Helvetica,sans-Serif" font-size="10.00">RelationshipEnd::setCustom</text>
<text xml:space="preserve" text-anchor="middle" x="2160.12" y="-336.5" font-family="Helvetica,sans-Serif" font-size="10.00">CardinalityText</text>
</a>
</g>
</g>
<!-- Node2 -->
<g id="Node000002" class="node">
<title>Node2</title>
<g id="a_Node000002"><a xlink:href="class_properties_panel.html#aec8130201106284c02f21903b516554d" target="_top" xlink:title=" ">
<polygon fill="white" stroke="#666666" points="2053.5,-362 1916.75,-362 1916.75,-330 2053.5,-330 2053.5,-362"/>
<text xml:space="preserve" text-anchor="start" x="1924.75" y="-348.5" font-family="Helvetica,sans-Serif" font-size="10.00">PropertiesPanel::onLineEdit</text>
<text xml:space="preserve" text-anchor="middle" x="1985.12" y="-336.5" font-family="Helvetica,sans-Serif" font-size="10.00">Changed</text>
</a>
</g>
</g>
<!-- Node1&#45;&gt;Node2 -->
<g id="edge1_Node000001_Node000002" class="edge">
<title>Node1&#45;&gt;Node2</title>
<g id="a_edge1_Node000001_Node000002"><a xlink:title=" ">
<path fill="none" stroke="#63b8ff" d="M2077.89,-346C2069.8,-346 2061.65,-346 2053.73,-346"/>
<polygon fill="#63b8ff" stroke="#63b8ff" points="2077.74,-349.5 2087.74,-346 2077.74,-342.5 2077.74,-349.5"/>
</a>
</g>
</g>
<!-- Node3 -->
<g id="Node000003" class="node">
<title>Node3</title>
<g id="a_Node000003"><a xlink:href="class_properties_panel.html#a7bc224323f9c626842fdb6a89205c9bc" target="_top" xlink:title=" ">
<polygon fill="white" stroke="#666666" points="1880.75,-504 1744.75,-504 1744.75,-472 1880.75,-472 1880.75,-504"/>
<text xml:space="preserve" text-anchor="start" x="1752.75" y="-490.5" font-family="Helvetica,sans-Serif" font-size="10.00">PropertiesPanel::createLine</text>
<text xml:space="preserve" text-anchor="middle" x="1812.75" y="-478.5" font-family="Helvetica,sans-Serif" font-size="10.00">EditPropertyItem</text>
</a>
</g>
</g>
<!-- Node2&#45;&gt;Node3 -->
<g id="edge2_Node000002_Node000003" class="edge">
<title>Node2&#45;&gt;Node3</title>
<g id="a_edge2_Node000002_Node000003"><a xlink:title=" ">
<path fill="none" stroke="#63b8ff" d="M1955.89,-369.54C1921.25,-398.4 1863.44,-446.59 1833.33,-471.68"/>
<polygon fill="#63b8ff" stroke="#63b8ff" points="1957.98,-372.35 1963.42,-363.26 1953.5,-366.97 1957.98,-372.35"/>
</a>
</g>
</g>
<!-- Node4 -->
<g id="Node000004" class="node">
<title>Node4</title>
<g id="a_Node000004"><a xlink:href="class_properties_panel.html#aeb116e2e51099f618b5d284e492bc0e2" target="_top" xlink:title=" ">
<polygon fill="white" stroke="#666666" points="1708.75,-533 1581,-533 1581,-501 1708.75,-501 1708.75,-533"/>
<text xml:space="preserve" text-anchor="start" x="1589" y="-519.5" font-family="Helvetica,sans-Serif" font-size="10.00">PropertiesPanel::populate</text>
<text xml:space="preserve" text-anchor="middle" x="1644.88" y="-507.5" font-family="Helvetica,sans-Serif" font-size="10.00">RelationshipProperties</text>
</a>
</g>
</g>
<!-- Node3&#45;&gt;Node4 -->
<g id="edge3_Node000003_Node000004" class="edge">
<title>Node3&#45;&gt;Node4</title>
<g id="a_edge3_Node000003_Node000004"><a xlink:title=" ">
<path fill="none" stroke="#63b8ff" d="M1732.98,-501.77C1724.94,-503.18 1716.84,-504.59 1709,-505.96"/>
<polygon fill="#63b8ff" stroke="#63b8ff" points="1733.54,-505.23 1742.79,-500.06 1732.34,-498.33 1733.54,-505.23"/>
</a>
</g>
</g>
<!-- Node5 -->
<g id="Node000005" class="node">
<title>Node5</title>
<g id="a_Node000005"><a xlink:href="class_properties_panel.html#a037586f897062f3915a123b9f2a82b91" target="_top" xlink:title=" ">
<polygon fill="white" stroke="#666666" points="1545,-646 1417.25,-646 1417.25,-614 1545,-614 1545,-646"/>
<text xml:space="preserve" text-anchor="start" x="1425.25" y="-632.5" font-family="Helvetica,sans-Serif" font-size="10.00">PropertiesPanel::populate</text>
<text xml:space="preserve" text-anchor="middle" x="1481.12" y="-620.5" font-family="Helvetica,sans-Serif" font-size="10.00">ForElement</text>
</a>
</g>
</g>
<!-- Node4&#45;&gt;Node5 -->
<g id="edge4_Node000004_Node000005" class="edge">
<title>Node4&#45;&gt;Node5</title>
<g id="a_edge4_Node000004_Node000005"><a xlink:title=" ">
<path fill="none" stroke="#63b8ff" d="M1618.88,-541.07C1599.68,-558.76 1571.97,-582.65 1545,-600 1537.37,-604.91 1528.82,-609.52 1520.53,-613.58"/>
<polygon fill="#63b8ff" stroke="#63b8ff" points="1621.04,-543.84 1625.96,-534.45 1616.26,-538.72 1621.04,-543.84"/>
</a>
</g>
</g>
<!-- Node6 -->
<g id="Node000006" class="node">
<title>Node6</title>
<g id="a_Node000006"><a xlink:href="class_properties_panel.html#a139ae0158b486c6004e15e0ddf36f319" target="_top" xlink:title=" ">
<polygon fill="white" stroke="#666666" points="1381.25,-356 1260.25,-356 1260.25,-336 1381.25,-336 1381.25,-356"/>
<text xml:space="preserve" text-anchor="middle" x="1320.75" y="-342.5" font-family="Helvetica,sans-Serif" font-size="10.00">PropertiesPanel::refresh</text>
</a>
</g>
</g>
<!-- Node5&#45;&gt;Node6 -->
<g id="edge5_Node000005_Node000006" class="edge">
<title>Node5&#45;&gt;Node6</title>
<g id="a_edge5_Node000005_Node000006"><a xlink:title=" ">
<path fill="none" stroke="#63b8ff" d="M1465.39,-603.58C1431.66,-543.1 1350.02,-396.69 1327.55,-356.41"/>
<polygon fill="#63b8ff" stroke="#63b8ff" points="1462.26,-605.15 1470.19,-612.18 1468.37,-601.74 1462.26,-605.15"/>
</a>
</g>
</g>
<!-- Node6&#45;&gt;Node2 -->
<g id="edge29_Node000006_Node000002" class="edge">
<title>Node6&#45;&gt;Node2</title>
<g id="a_edge29_Node000006_Node000002"><a xlink:title=" ">
<path fill="none" stroke="#63b8ff" d="M1392.95,-346C1521.44,-346 1790.41,-346 1916.35,-346"/>
<polygon fill="#63b8ff" stroke="#63b8ff" points="1393.22,-342.5 1383.22,-346 1393.22,-349.5 1393.22,-342.5"/>
</a>
</g>
</g>
<!-- Node7 -->
<g id="Node000007" class="node">
<title>Node7</title>
<g id="a_Node000007"><a xlink:href="class_properties_panel.html#a55ae5c02e7d75c7bdc26281a148e8c5a" target="_top" xlink:title=" ">
<polygon fill="white" stroke="#666666" points="1224.25,-508 1068.75,-508 1068.75,-476 1224.25,-476 1224.25,-508"/>
<text xml:space="preserve" text-anchor="start" x="1076.75" y="-494.5" font-family="Helvetica,sans-Serif" font-size="10.00">PropertiesPanel::onAddAttribute</text>
<text xml:space="preserve" text-anchor="middle" x="1146.5" y="-482.5" font-family="Helvetica,sans-Serif" font-size="10.00">OnTreeClicked</text>
</a>
</g>
</g>
<!-- Node6&#45;&gt;Node7 -->
<g id="edge6_Node000006_Node000007" class="edge">
<title>Node6&#45;&gt;Node7</title>
<g id="a_edge6_Node000006_Node000007"><a xlink:title=" ">
<path fill="none" stroke="#63b8ff" d="M1298.77,-363.78C1265.12,-392.3 1199.56,-447.87 1166.92,-475.54"/>
<polygon fill="#63b8ff" stroke="#63b8ff" points="1300.84,-366.61 1306.21,-357.48 1296.32,-361.27 1300.84,-366.61"/>
</a>
</g>
</g>
<!-- Node12 -->
<g id="Node000012" class="node">
<title>Node12</title>
<g id="a_Node000012"><a xlink:href="class_properties_panel.html#a2800a2c7575a5fad6d923d9b64d982f8" target="_top" xlink:title=" ">
<polygon fill="white" stroke="#666666" points="815,-406 685,-406 685,-374 815,-374 815,-406"/>
<text xml:space="preserve" text-anchor="start" x="693" y="-392.5" font-family="Helvetica,sans-Serif" font-size="10.00">PropertiesPanel::onCheck</text>
<text xml:space="preserve" text-anchor="middle" x="750" y="-380.5" font-family="Helvetica,sans-Serif" font-size="10.00">BoxChanged</text>
</a>
</g>
</g>
<!-- Node6&#45;&gt;Node12 -->
<g id="edge18_Node000006_Node000012" class="edge">
<title>Node6&#45;&gt;Node12</title>
<g id="a_edge18_Node000006_Node000012"><a xlink:title=" ">
<path fill="none" stroke="#63b8ff" d="M1276.64,-359.74C1220.99,-376.7 1120.83,-404.56 1032.75,-415 956.17,-424.08 935.87,-423.73 859.25,-415 843.54,-413.21 826.78,-410 811.27,-406.47"/>
<polygon fill="#63b8ff" stroke="#63b8ff" points="1277.52,-363.14 1286.05,-356.85 1275.46,-356.45 1277.52,-363.14"/>
</a>
</g>
</g>
<!-- Node14 -->
<g id="Node000014" class="node">
<title>Node14</title>
<g id="a_Node000014"><a xlink:href="class_properties_panel.html#aec82450a3daeb2614c2321e37897f1dd" target="_top" xlink:title=" ">
<polygon fill="white" stroke="#666666" points="816.5,-258 683.5,-258 683.5,-226 816.5,-226 816.5,-258"/>
<text xml:space="preserve" text-anchor="start" x="691.5" y="-244.5" font-family="Helvetica,sans-Serif" font-size="10.00">PropertiesPanel::onCombo</text>
<text xml:space="preserve" text-anchor="middle" x="750" y="-232.5" font-family="Helvetica,sans-Serif" font-size="10.00">BoxChanged</text>
</a>
</g>
</g>
<!-- Node6&#45;&gt;Node14 -->
<g id="edge22_Node000006_Node000014" class="edge">
<title>Node6&#45;&gt;Node14</title>
<g id="a_edge22_Node000006_Node000014"><a xlink:title=" ">
<path fill="none" stroke="#63b8ff" d="M1248.47,-343.49C1156.92,-338.84 993.77,-325.71 859.25,-289 832.37,-281.66 803.5,-268.86 782.34,-258.46"/>
<polygon fill="#63b8ff" stroke="#63b8ff" points="1248.15,-346.98 1258.31,-343.97 1248.49,-339.98 1248.15,-346.98"/>
</a>
</g>
</g>
<!-- Node18 -->
<g id="Node000018" class="node">
<title>Node18</title>
<g id="a_Node000018"><a xlink:href="class_properties_panel.html#a3cdc065abcd2f9e59558903073c0f23f" target="_top" xlink:title=" ">
<polygon fill="white" stroke="#666666" points="819.12,-84 680.88,-84 680.88,-52 819.12,-52 819.12,-84"/>
<text xml:space="preserve" text-anchor="start" x="688.88" y="-70.5" font-family="Helvetica,sans-Serif" font-size="10.00">PropertiesPanel::onProperty</text>
<text xml:space="preserve" text-anchor="middle" x="750" y="-58.5" font-family="Helvetica,sans-Serif" font-size="10.00">ValueChanged</text>
</a>
</g>
</g>
<!-- Node6&#45;&gt;Node18 -->
<g id="edge30_Node000006_Node000018" class="edge">
<title>Node6&#45;&gt;Node18</title>
<g id="a_edge30_Node000006_Node000018"><a xlink:title=" ">
<path fill="none" stroke="#63b8ff" d="M1318.3,-324.45C1313.64,-276.32 1294.89,-161.56 1224.25,-109 1099.8,-16.4 903.35,-32.73 807.44,-51.57"/>
<polygon fill="#63b8ff" stroke="#63b8ff" points="1314.8,-324.49 1319.12,-334.16 1321.77,-323.9 1314.8,-324.49"/>
</a>
</g>
</g>
<!-- Node20 -->
<g id="Node000020" class="node">
<title>Node20</title>
<g id="a_Node000020"><a xlink:href="class_properties_panel.html#a8a2ec0bcba44f3bbd0245d3a53ff49f7" target="_top" xlink:title=" ">
<polygon fill="white" stroke="#666666" points="1215.62,-558 1077.38,-558 1077.38,-526 1215.62,-526 1215.62,-558"/>
<text xml:space="preserve" text-anchor="start" x="1085.38" y="-544.5" font-family="Helvetica,sans-Serif" font-size="10.00">PropertiesPanel::onRemove</text>
<text xml:space="preserve" text-anchor="middle" x="1146.5" y="-532.5" font-family="Helvetica,sans-Serif" font-size="10.00">AttributeOnTreeClicked</text>
</a>
</g>
</g>
<!-- Node6&#45;&gt;Node20 -->
<g id="edge33_Node000006_Node000020" class="edge">
<title>Node6&#45;&gt;Node20</title>
<g id="a_edge33_Node000006_Node000020"><a xlink:title=" ">
<path fill="none" stroke="#63b8ff" d="M1313.69,-366.81C1302.19,-402.69 1273.8,-476.25 1224.25,-517 1220.25,-520.29 1215.79,-523.16 1211.11,-525.65"/>
<polygon fill="#63b8ff" stroke="#63b8ff" points="1316.92,-368.22 1316.51,-357.63 1310.23,-366.17 1316.92,-368.22"/>
</a>
</g>
</g>
<!-- Node21 -->
<g id="Node000021" class="node">
<title>Node21</title>
<g id="a_Node000021"><a xlink:href="class_properties_panel.html#a79618c5c820a40931c085d54be70bd34" target="_top" xlink:title=" ">
<polygon fill="white" stroke="#666666" points="1209.25,-255 1083.75,-255 1083.75,-223 1209.25,-223 1209.25,-255"/>
<text xml:space="preserve" text-anchor="start" x="1091.75" y="-241.5" font-family="Helvetica,sans-Serif" font-size="10.00">PropertiesPanel::updates</text>
<text xml:space="preserve" text-anchor="middle" x="1146.5" y="-229.5" font-family="Helvetica,sans-Serif" font-size="10.00">AfterChangingProperty</text>
</a>
</g>
</g>
<!-- Node6&#45;&gt;Node21 -->
<g id="edge35_Node000006_Node000021" class="edge">
<title>Node6&#45;&gt;Node21</title>
<g id="a_edge35_Node000006_Node000021"><a xlink:title=" ">
<path fill="none" stroke="#63b8ff" d="M1293.23,-329.52C1260.8,-309.38 1206.27,-275.51 1173.9,-255.4"/>
<polygon fill="#63b8ff" stroke="#63b8ff" points="1291.29,-332.44 1301.63,-334.75 1294.99,-326.5 1291.29,-332.44"/>
</a>
</g>
</g>
<!-- Node8 -->
<g id="Node000008" class="node">
<title>Node8</title>
<g id="a_Node000008"><a xlink:href="class_properties_panel.html#a90cca2a241daa84841ee3e90d7768c8f" target="_top" xlink:title=" ">
<polygon fill="white" stroke="#666666" points="823.25,-567 676.75,-567 676.75,-535 823.25,-535 823.25,-567"/>
<text xml:space="preserve" text-anchor="start" x="684.75" y="-553.5" font-family="Helvetica,sans-Serif" font-size="10.00">PropertiesPanel::createButton</text>
<text xml:space="preserve" text-anchor="middle" x="750" y="-541.5" font-family="Helvetica,sans-Serif" font-size="10.00">PropertyItem</text>
</a>
</g>
</g>
<!-- Node7&#45;&gt;Node8 -->
<g id="edge7_Node000007_Node000008" class="edge">
<title>Node7&#45;&gt;Node8</title>
<g id="a_edge7_Node000007_Node000008"><a xlink:title=" ">
<path fill="none" stroke="#63b8ff" d="M1057.44,-505.17C987,-515.7 889.45,-530.29 823.48,-540.16"/>
<polygon fill="#63b8ff" stroke="#63b8ff" points="1057.63,-508.68 1067,-503.74 1056.6,-501.76 1057.63,-508.68"/>
</a>
</g>
</g>
<!-- Node8&#45;&gt;Node4 -->
<g id="edge17_Node000008_Node000004" class="edge">
<title>Node8&#45;&gt;Node4</title>
<g id="a_edge17_Node000008_Node000004"><a xlink:title=" ">
<path fill="none" stroke="#63b8ff" d="M792.89,-572.47C916.09,-632.41 1284.85,-788.64 1545,-655 1595.6,-629.01 1626.1,-563.77 1638.05,-533.24"/>
<polygon fill="#63b8ff" stroke="#63b8ff" points="794.63,-569.43 784.11,-568.15 791.54,-575.71 794.63,-569.43"/>
</a>
</g>
</g>
<!-- Node9 -->
<g id="Node000009" class="node">
<title>Node9</title>
<g id="a_Node000009"><a xlink:href="class_properties_panel.html#a050a4a9040c7aeefde9c1377d2e1909e" target="_top" xlink:title=" ">
<polygon fill="white" stroke="#666666" points="291.5,-526 163.75,-526 163.75,-494 291.5,-494 291.5,-526"/>
<text xml:space="preserve" text-anchor="start" x="171.75" y="-512.5" font-family="Helvetica,sans-Serif" font-size="10.00">PropertiesPanel::populate</text>
<text xml:space="preserve" text-anchor="middle" x="227.62" y="-500.5" font-family="Helvetica,sans-Serif" font-size="10.00">AttributeList</text>
</a>
</g>
</g>
<!-- Node8&#45;&gt;Node9 -->
<g id="edge8_Node000008_Node000009" class="edge">
<title>Node8&#45;&gt;Node9</title>
<g id="a_edge8_Node000008_Node000009"><a xlink:title=" ">
<path fill="none" stroke="#63b8ff" d="M665.17,-552.97C579.77,-553.77 443.75,-551.71 327.5,-535 313.65,-533.01 298.94,-529.87 285.21,-526.47"/>
<polygon fill="#63b8ff" stroke="#63b8ff" points="665.14,-556.47 675.1,-552.86 665.06,-549.47 665.14,-556.47"/>
</a>
</g>
</g>
<!-- Node10 -->
<g id="Node000010" class="node">
<title>Node10</title>
<g id="a_Node000010"><a xlink:href="class_properties_panel.html#acc5a2b4e63ea74eaa34853f1cec46b81" target="_top" xlink:title=" ">
<polygon fill="white" stroke="#666666" points="455.25,-526 327.5,-526 327.5,-494 455.25,-494 455.25,-526"/>
<text xml:space="preserve" text-anchor="start" x="335.5" y="-512.5" font-family="Helvetica,sans-Serif" font-size="10.00">PropertiesPanel::populate</text>
<text xml:space="preserve" text-anchor="middle" x="391.38" y="-500.5" font-family="Helvetica,sans-Serif" font-size="10.00">AttributeProperties</text>
</a>
</g>
</g>
<!-- Node8&#45;&gt;Node10 -->
<g id="edge15_Node000008_Node000010" class="edge">
<title>Node8&#45;&gt;Node10</title>
<g id="a_edge15_Node000008_Node000010"><a xlink:title=" ">
<path fill="none" stroke="#63b8ff" d="M665.11,-541.36C600.98,-533.98 513.96,-523.98 455.62,-517.27"/>
<polygon fill="#63b8ff" stroke="#63b8ff" points="664.56,-544.82 674.9,-542.48 665.36,-537.86 664.56,-544.82"/>
</a>
</g>
</g>
<!-- Node11 -->
<g id="Node000011" class="node">
<title>Node11</title>
<g id="a_Node000011"><a xlink:href="class_properties_panel.html#a6a4344308af5b2c993bc25981529239c" target="_top" xlink:title=" ">
<polygon fill="white" stroke="#666666" points="127.75,-678 0,-678 0,-646 127.75,-646 127.75,-678"/>
<text xml:space="preserve" text-anchor="start" x="8" y="-664.5" font-family="Helvetica,sans-Serif" font-size="10.00">PropertiesPanel::populate</text>
<text xml:space="preserve" text-anchor="middle" x="63.88" y="-652.5" font-family="Helvetica,sans-Serif" font-size="10.00">EntityProperties</text>
</a>
</g>
</g>
<!-- Node8&#45;&gt;Node11 -->
<g id="edge16_Node000008_Node000011" class="edge">
<title>Node8&#45;&gt;Node11</title>
<g id="a_edge16_Node000008_Node000011"><a xlink:title=" ">
<path fill="none" stroke="#63b8ff" d="M665.47,-564.55C526.82,-587.05 252.14,-631.62 128.18,-651.73"/>
<polygon fill="#63b8ff" stroke="#63b8ff" points="665.63,-568.07 674.94,-563.02 664.51,-561.16 665.63,-568.07"/>
</a>
</g>
</g>
<!-- Node9&#45;&gt;Node4 -->
<g id="edge14_Node000009_Node000004" class="edge">
<title>Node9&#45;&gt;Node4</title>
<g id="a_edge14_Node000009_Node000004"><a xlink:title=" ">
<path fill="none" stroke="#63b8ff" d="M231.04,-482.54C237.52,-421.86 259.64,-273.79 327.5,-173 366.63,-114.88 503.65,0 565,0 1147.5,0 1147.5,0 1147.5,0 1432.13,0 1604.42,-412.79 1637.87,-500.67"/>
<polygon fill="#63b8ff" stroke="#63b8ff" points="227.58,-481.98 230.07,-492.28 234.55,-482.68 227.58,-481.98"/>
</a>
</g>
</g>
<!-- Node9&#45;&gt;Node10 -->
<g id="edge9_Node000009_Node000010" class="edge">
<title>Node9&#45;&gt;Node10</title>
<g id="a_edge9_Node000009_Node000010"><a xlink:title=" ">
<path fill="none" stroke="#63b8ff" d="M303.28,-516.73C311.34,-516.78 319.48,-516.73 327.38,-516.6"/>
<polygon fill="#63b8ff" stroke="#63b8ff" points="303.54,-513.23 293.5,-516.62 303.46,-520.23 303.54,-513.23"/>
</a>
</g>
</g>
<!-- Node9&#45;&gt;Node11 -->
<g id="edge12_Node000009_Node000011" class="edge">
<title>Node9&#45;&gt;Node11</title>
<g id="a_edge12_Node000009_Node000011"><a xlink:title=" ">
<path fill="none" stroke="#63b8ff" d="M201.01,-534.08C167.73,-565.34 110.56,-619.07 82.06,-645.85"/>
<polygon fill="#63b8ff" stroke="#63b8ff" points="203.32,-536.7 208.21,-527.3 198.53,-531.6 203.32,-536.7"/>
</a>
</g>
</g>
<!-- Node10&#45;&gt;Node5 -->
<g id="edge11_Node000010_Node000005" class="edge">
<title>Node10&#45;&gt;Node5</title>
<g id="a_edge11_Node000010_Node000005"><a xlink:title=" ">
<path fill="none" stroke="#63b8ff" d="M432,-531.59C496.46,-564.65 628.93,-624 749,-624 1147.5,-624 1147.5,-624 1147.5,-624 1241.35,-624 1350.08,-626.42 1416.98,-628.18"/>
<polygon fill="#63b8ff" stroke="#63b8ff" points="433.71,-528.54 423.22,-527.03 430.48,-534.75 433.71,-528.54"/>
</a>
</g>
</g>
<!-- Node10&#45;&gt;Node9 -->
<g id="edge10_Node000010_Node000009" class="edge">
<title>Node10&#45;&gt;Node9</title>
<g id="a_edge10_Node000010_Node000009"><a xlink:title=" ">
<path fill="none" stroke="#63b8ff" d="M316.08,-503.27C308.03,-503.22 299.89,-503.26 291.99,-503.39"/>
<polygon fill="#63b8ff" stroke="#63b8ff" points="315.82,-506.77 325.86,-503.38 315.9,-499.77 315.82,-506.77"/>
</a>
</g>
</g>
<!-- Node11&#45;&gt;Node5 -->
<g id="edge13_Node000011_Node000005" class="edge">
<title>Node11&#45;&gt;Node5</title>
<g id="a_edge13_Node000011_Node000005"><a xlink:title=" ">
<path fill="none" stroke="#63b8ff" d="M139.32,-675.68C205.11,-686.57 303.78,-700 390.38,-700 751,-700 751,-700 751,-700 998.34,-700 1290.72,-659.59 1416.93,-640.18"/>
<polygon fill="#63b8ff" stroke="#63b8ff" points="140.17,-672.27 129.73,-674.07 139.01,-679.17 140.17,-672.27"/>
</a>
</g>
</g>
<!-- Node13 -->
<g id="Node000013" class="node">
<title>Node13</title>
<g id="a_Node000013"><a xlink:href="class_properties_panel.html#acfb41226221624e46767835caeea8abc" target="_top" xlink:title=" ">
<polygon fill="white" stroke="#666666" points="639.25,-488 492.75,-488 492.75,-456 639.25,-456 639.25,-488"/>
<text xml:space="preserve" text-anchor="start" x="500.75" y="-474.5" font-family="Helvetica,sans-Serif" font-size="10.00">PropertiesPanel::createCheck</text>
<text xml:space="preserve" text-anchor="middle" x="566" y="-462.5" font-family="Helvetica,sans-Serif" font-size="10.00">BoxPropertyItem</text>
</a>
</g>
</g>
<!-- Node12&#45;&gt;Node13 -->
<g id="edge19_Node000012_Node000013" class="edge">
<title>Node12&#45;&gt;Node13</title>
<g id="a_edge19_Node000012_Node000013"><a xlink:title=" ">
<path fill="none" stroke="#63b8ff" d="M711.24,-411.77C690.76,-423.09 664.79,-436.67 640.75,-447 633.79,-449.99 626.35,-452.87 618.97,-455.54"/>
<polygon fill="#63b8ff" stroke="#63b8ff" points="712.76,-414.92 719.79,-406.99 709.35,-408.81 712.76,-414.92"/>
</a>
</g>
</g>
<!-- Node13&#45;&gt;Node4 -->
<g id="edge21_Node000013_Node000004" class="edge">
<title>Node13&#45;&gt;Node4</title>
<g id="a_edge21_Node000013_Node000004"><a xlink:title=" ">
<path fill="none" stroke="#63b8ff" d="M650.9,-467.78C775.93,-462.3 1018.52,-454.79 1224.25,-467 1351.32,-474.54 1498.89,-494.83 1580.81,-507.12"/>
<polygon fill="#63b8ff" stroke="#63b8ff" points="650.88,-464.27 641.05,-468.22 651.2,-471.27 650.88,-464.27"/>
</a>
</g>
</g>
<!-- Node13&#45;&gt;Node10 -->
<g id="edge20_Node000013_Node000010" class="edge">
<title>Node13&#45;&gt;Node10</title>
<g id="a_edge20_Node000013_Node000010"><a xlink:title=" ">
<path fill="none" stroke="#63b8ff" d="M481.1,-490.47C472.55,-492.35 463.97,-494.24 455.69,-496.06"/>
<polygon fill="#63b8ff" stroke="#63b8ff" points="481.8,-493.9 490.81,-488.33 480.29,-487.06 481.8,-493.9"/>
</a>
</g>
</g>
<!-- Node15 -->
<g id="Node000015" class="node">
<title>Node15</title>
<g id="a_Node000015"><a xlink:href="class_properties_panel.html#a8fd53ec3c9f711c3354483e8bb4d0b47" target="_top" xlink:title=" ">
<polygon fill="white" stroke="#666666" points="640.75,-438 491.25,-438 491.25,-406 640.75,-406 640.75,-438"/>
<text xml:space="preserve" text-anchor="start" x="499.25" y="-424.5" font-family="Helvetica,sans-Serif" font-size="10.00">PropertiesPanel::createCombo</text>
<text xml:space="preserve" text-anchor="middle" x="566" y="-412.5" font-family="Helvetica,sans-Serif" font-size="10.00">BoxPropertyItem</text>
</a>
</g>
</g>
<!-- Node14&#45;&gt;Node15 -->
<g id="edge23_Node000014_Node000015" class="edge">
<title>Node14&#45;&gt;Node15</title>
<g id="a_edge23_Node000014_Node000015"><a xlink:title=" ">
<path fill="none" stroke="#63b8ff" d="M724.6,-266.13C686.97,-303.35 615.78,-373.76 583.57,-405.62"/>
<polygon fill="#63b8ff" stroke="#63b8ff" points="726.8,-268.88 731.45,-259.36 721.88,-263.9 726.8,-268.88"/>
</a>
</g>
</g>
<!-- Node16 -->
<g id="Node000016" class="node">
<title>Node16</title>
<g id="a_Node000016"><a xlink:href="class_properties_panel.html#a32c2dab00c58ffdcb6a1e3cd829d03c8" target="_top" xlink:title=" ">
<polygon fill="white" stroke="#666666" points="634.38,-236 497.62,-236 497.62,-204 634.38,-204 634.38,-236"/>
<text xml:space="preserve" text-anchor="start" x="505.62" y="-222.5" font-family="Helvetica,sans-Serif" font-size="10.00">PropertiesPanel::createIcon</text>
<text xml:space="preserve" text-anchor="middle" x="566" y="-210.5" font-family="Helvetica,sans-Serif" font-size="10.00">ComboBoxPropertyItem</text>
</a>
</g>
</g>
<!-- Node14&#45;&gt;Node16 -->
<g id="edge26_Node000014_Node000016" class="edge">
<title>Node14&#45;&gt;Node16</title>
<g id="a_edge26_Node000014_Node000016"><a xlink:title=" ">
<path fill="none" stroke="#63b8ff" d="M671.8,-232.67C659.42,-231.17 646.7,-229.63 634.57,-228.17"/>
<polygon fill="#63b8ff" stroke="#63b8ff" points="671.19,-236.12 681.53,-233.84 672.03,-229.17 671.19,-236.12"/>
</a>
</g>
</g>
<!-- Node15&#45;&gt;Node4 -->
<g id="edge25_Node000015_Node000004" class="edge">
<title>Node15&#45;&gt;Node4</title>
<g id="a_edge25_Node000015_Node000004"><a xlink:title=" ">
<path fill="none" stroke="#63b8ff" d="M629.77,-441.9C768.52,-485.58 1093.22,-586 1145.5,-586 1321.75,-586 1321.75,-586 1321.75,-586 1421.69,-586 1535.29,-553.85 1597.33,-533.44"/>
<polygon fill="#63b8ff" stroke="#63b8ff" points="630.94,-438.6 620.35,-438.93 628.84,-445.27 630.94,-438.6"/>
</a>
</g>
</g>
<!-- Node15&#45;&gt;Node10 -->
<g id="edge24_Node000015_Node000010" class="edge">
<title>Node15&#45;&gt;Node10</title>
<g id="a_edge24_Node000015_Node000010"><a xlink:title=" ">
<path fill="none" stroke="#63b8ff" d="M500.93,-442.65C497.62,-444.05 494.38,-445.5 491.25,-447 463.54,-460.29 434.12,-479.82 414.64,-493.6"/>
<polygon fill="#63b8ff" stroke="#63b8ff" points="502.22,-445.91 510.21,-438.95 499.62,-439.4 502.22,-445.91"/>
</a>
</g>
</g>
<!-- Node17 -->
<g id="Node000017" class="node">
<title>Node17</title>
<g id="a_Node000017"><a xlink:href="class_properties_panel.html#adbc7f8deb3a687706dc44ebbd7e39d9d" target="_top" xlink:title=" ">
<polygon fill="white" stroke="#666666" points="455.25,-214 327.5,-214 327.5,-182 455.25,-182 455.25,-214"/>
<text xml:space="preserve" text-anchor="start" x="335.5" y="-200.5" font-family="Helvetica,sans-Serif" font-size="10.00">PropertiesPanel::populate</text>
<text xml:space="preserve" text-anchor="middle" x="391.38" y="-188.5" font-family="Helvetica,sans-Serif" font-size="10.00">ForConnection</text>
</a>
</g>
</g>
<!-- Node16&#45;&gt;Node17 -->
<g id="edge27_Node000016_Node000017" class="edge">
<title>Node16&#45;&gt;Node17</title>
<g id="a_edge27_Node000016_Node000017"><a xlink:title=" ">
<path fill="none" stroke="#63b8ff" d="M485.92,-209.92C475.79,-208.63 465.52,-207.32 455.68,-206.07"/>
<polygon fill="#63b8ff" stroke="#63b8ff" points="485.41,-213.38 495.77,-211.18 486.29,-206.44 485.41,-213.38"/>
</a>
</g>
</g>
<!-- Node17&#45;&gt;Node6 -->
<g id="edge28_Node000017_Node000006" class="edge">
<title>Node17&#45;&gt;Node6</title>
<g id="a_edge28_Node000017_Node000006"><a xlink:title=" ">
<path fill="none" stroke="#63b8ff" d="M457.77,-178.46C528.79,-159 645.9,-132 749,-132 947,-132 947,-132 947,-132 1075.5,-132 1119.37,-139.75 1224.25,-214 1271.11,-247.18 1303.71,-310.74 1315.19,-335.64"/>
<polygon fill="#63b8ff" stroke="#63b8ff" points="456.94,-175.06 448.24,-181.11 458.81,-181.81 456.94,-175.06"/>
</a>
</g>
</g>
<!-- Node18&#45;&gt;Node6 -->
<g id="edge32_Node000018_Node000006" class="edge">
<title>Node18&#45;&gt;Node6</title>
<g id="a_edge32_Node000018_Node000006"><a xlink:title=" ">
<path fill="none" stroke="#63b8ff" d="M830.83,-59.78C932.63,-48.89 1109.21,-41.4 1224.25,-127 1296.38,-180.67 1314.41,-299.19 1318.58,-335.55"/>
<polygon fill="#63b8ff" stroke="#63b8ff" points="830.46,-56.3 820.91,-60.88 831.23,-63.26 830.46,-56.3"/>
</a>
</g>
</g>
<!-- Node19 -->
<g id="Node000019" class="node">
<title>Node19</title>
<g id="a_Node000019"><a xlink:href="class_properties_panel.html#a9866823e02faefceaae94fc0b0537707" target="_top" xlink:title=" ">
<polygon fill="white" stroke="#666666" points="633.62,-84 498.38,-84 498.38,-52 633.62,-52 633.62,-84"/>
<text xml:space="preserve" text-anchor="start" x="506.38" y="-70.5" font-family="Helvetica,sans-Serif" font-size="10.00">PropertiesPanel::Properties</text>
<text xml:space="preserve" text-anchor="middle" x="566" y="-58.5" font-family="Helvetica,sans-Serif" font-size="10.00">Panel</text>
</a>
</g>
</g>
<!-- Node18&#45;&gt;Node19 -->
<g id="edge31_Node000018_Node000019" class="edge">
<title>Node18&#45;&gt;Node19</title>
<g id="a_edge31_Node000018_Node000019"><a xlink:title=" ">
<path fill="none" stroke="#63b8ff" d="M669.27,-68C657.49,-68 645.46,-68 633.98,-68"/>
<polygon fill="#63b8ff" stroke="#63b8ff" points="668.94,-71.5 678.94,-68 668.94,-64.5 668.94,-71.5"/>
</a>
</g>
</g>
<!-- Node20&#45;&gt;Node8 -->
<g id="edge34_Node000020_Node000008" class="edge">
<title>Node20&#45;&gt;Node8</title>
<g id="a_edge34_Node000020_Node000008"><a xlink:title=" ">
<path fill="none" stroke="#63b8ff" d="M1066.14,-543.81C995.21,-545.43 892.16,-547.78 823.43,-549.35"/>
<polygon fill="#63b8ff" stroke="#63b8ff" points="1065.8,-547.32 1075.72,-543.59 1065.64,-540.32 1065.8,-547.32"/>
</a>
</g>
</g>
<!-- Node21&#45;&gt;Node2 -->
<g id="edge46_Node000021_Node000002" class="edge">
<title>Node21&#45;&gt;Node2</title>
<g id="a_edge46_Node000021_Node000002"><a xlink:title=" ">
<path fill="none" stroke="#63b8ff" d="M1169.01,-214.25C1218.23,-160.52 1345.27,-38 1480.12,-38 1645.88,-38 1645.88,-38 1645.88,-38 1821,-38 1945.39,-266.5 1976.52,-329.87"/>
<polygon fill="#63b8ff" stroke="#63b8ff" points="1166.63,-211.66 1162.54,-221.43 1171.83,-216.34 1166.63,-211.66"/>
</a>
</g>
</g>
<!-- Node21&#45;&gt;Node12 -->
<g id="edge44_Node000021_Node000012" class="edge">
<title>Node21&#45;&gt;Node12</title>
<g id="a_edge44_Node000021_Node000012"><a xlink:title=" ">
<path fill="none" stroke="#63b8ff" d="M1099.97,-260.1C1079.56,-269.32 1055.1,-280.05 1032.75,-289 952.19,-321.25 856.84,-354.41 800.27,-373.56"/>
<polygon fill="#63b8ff" stroke="#63b8ff" points="1101.2,-263.38 1108.86,-256.06 1098.31,-257.01 1101.2,-263.38"/>
</a>
</g>
</g>
<!-- Node21&#45;&gt;Node14 -->
<g id="edge45_Node000021_Node000014" class="edge">
<title>Node21&#45;&gt;Node14</title>
<g id="a_edge45_Node000021_Node000014"><a xlink:title=" ">
<path fill="none" stroke="#63b8ff" d="M1107.51,-217.38C1086.26,-206.52 1058.85,-194.53 1032.75,-189 957.31,-173.02 934.37,-171.6 859.25,-189 828.88,-196.04 797.19,-212.84 776.01,-225.65"/>
<polygon fill="#63b8ff" stroke="#63b8ff" points="1105.6,-220.32 1116.08,-221.88 1108.86,-214.13 1105.6,-220.32"/>
</a>
</g>
</g>
<!-- Node21&#45;&gt;Node18 -->
<g id="edge47_Node000021_Node000018" class="edge">
<title>Node21&#45;&gt;Node18</title>
<g id="a_edge47_Node000021_Node000018"><a xlink:title=" ">
<path fill="none" stroke="#63b8ff" d="M1111.63,-216.66C1089.69,-202.75 1060.2,-185.09 1032.75,-172 955.68,-135.26 861.93,-102.97 804.37,-84.47"/>
<polygon fill="#63b8ff" stroke="#63b8ff" points="1109.56,-219.49 1119.87,-221.94 1113.33,-213.6 1109.56,-219.49"/>
</a>
</g>
</g>
<!-- Node22 -->
<g id="Node000022" class="node">
<title>Node22</title>
<g id="a_Node000022"><a xlink:href="class_properties_panel.html#a74d22cd1ca119cda9cc4ca00b853e88d" target="_top" xlink:title=" ">
<polygon fill="white" stroke="#666666" points="1024.12,-230 867.88,-230 867.88,-198 1024.12,-198 1024.12,-230"/>
<text xml:space="preserve" text-anchor="start" x="875.88" y="-216.5" font-family="Helvetica,sans-Serif" font-size="10.00">PropertiesPanel::handleAttribute</text>
<text xml:space="preserve" text-anchor="middle" x="946" y="-204.5" font-family="Helvetica,sans-Serif" font-size="10.00">PropertyChange</text>
</a>
</g>
</g>
<!-- Node21&#45;&gt;Node22 -->
<g id="edge36_Node000021_Node000022" class="edge">
<title>Node21&#45;&gt;Node22</title>
<g id="a_edge36_Node000021_Node000022"><a xlink:title=" ">
<path fill="none" stroke="#63b8ff" d="M1072.37,-229.79C1056.81,-227.83 1040.33,-225.75 1024.61,-223.77"/>
<polygon fill="#63b8ff" stroke="#63b8ff" points="1071.65,-233.23 1082.01,-231 1072.52,-226.28 1071.65,-233.23"/>
</a>
</g>
</g>
<!-- Node23 -->
<g id="Node000023" class="node">
<title>Node23</title>
<g id="a_Node000023"><a xlink:href="class_properties_panel.html#aa82a2245c62f66554f277c64e643252c" target="_top" xlink:title=" ">
<polygon fill="white" stroke="#666666" points="1032.75,-280 859.25,-280 859.25,-248 1032.75,-248 1032.75,-280"/>
<text xml:space="preserve" text-anchor="start" x="867.25" y="-266.5" font-family="Helvetica,sans-Serif" font-size="10.00">PropertiesPanel::handleRelationship</text>
<text xml:space="preserve" text-anchor="middle" x="946" y="-254.5" font-family="Helvetica,sans-Serif" font-size="10.00">EndCardinalityChange</text>
</a>
</g>
</g>
<!-- Node21&#45;&gt;Node23 -->
<g id="edge40_Node000021_Node000023" class="edge">
<title>Node21&#45;&gt;Node23</title>
<g id="a_edge40_Node000021_Node000023"><a xlink:title=" ">
<path fill="none" stroke="#63b8ff" d="M1072.4,-248.21C1059.54,-249.83 1046.06,-251.52 1032.89,-253.18"/>
<polygon fill="#63b8ff" stroke="#63b8ff" points="1072.52,-251.72 1082.01,-247 1071.65,-244.77 1072.52,-251.72"/>
</a>
</g>
</g>
<!-- Node24 -->
<g id="Node000024" class="node">
<title>Node24</title>
<g id="a_Node000024"><a xlink:href="class_properties_panel.html#ac2741a5b2cb859b07534b8f7c786359b" target="_top" xlink:title=" ">
<polygon fill="white" stroke="#666666" points="1032.75,-406 859.25,-406 859.25,-374 1032.75,-374 1032.75,-406"/>
<text xml:space="preserve" text-anchor="start" x="867.25" y="-392.5" font-family="Helvetica,sans-Serif" font-size="10.00">PropertiesPanel::handleRelationship</text>
<text xml:space="preserve" text-anchor="middle" x="946" y="-380.5" font-family="Helvetica,sans-Serif" font-size="10.00">EndParticipationChange</text>
</a>
</g>
</g>
<!-- Node21&#45;&gt;Node24 -->
<g id="edge42_Node000021_Node000024" class="edge">
<title>Node21&#45;&gt;Node24</title>
<g id="a_edge42_Node000021_Node000024"><a xlink:title=" ">
<path fill="none" stroke="#63b8ff" d="M1114.74,-262.4C1074.2,-293.24 1003.93,-346.7 968.59,-373.57"/>
<polygon fill="#63b8ff" stroke="#63b8ff" points="1116.83,-265.2 1122.67,-256.36 1112.6,-259.63 1116.83,-265.2"/>
</a>
</g>
</g>
<!-- Node22&#45;&gt;Node12 -->
<g id="edge37_Node000022_Node000012" class="edge">
<title>Node22&#45;&gt;Node12</title>
<g id="a_edge37_Node000022_Node000012"><a xlink:title=" ">
<path fill="none" stroke="#63b8ff" d="M864.69,-235.45C862.82,-236.57 861.01,-237.76 859.25,-239 808.45,-274.98 772.72,-342.53 758.21,-373.6"/>
<polygon fill="#63b8ff" stroke="#63b8ff" points="865.86,-238.79 873.05,-231.01 862.57,-232.61 865.86,-238.79"/>
</a>
</g>
</g>
<!-- Node22&#45;&gt;Node14 -->
<g id="edge38_Node000022_Node000014" class="edge">
<title>Node22&#45;&gt;Node14</title>
<g id="a_edge38_Node000022_Node000014"><a xlink:title=" ">
<path fill="none" stroke="#63b8ff" d="M856.38,-226.79C843.07,-228.71 829.55,-230.66 816.83,-232.5"/>
<polygon fill="#63b8ff" stroke="#63b8ff" points="856.59,-230.3 865.99,-225.4 855.59,-223.37 856.59,-230.3"/>
</a>
</g>
</g>
<!-- Node22&#45;&gt;Node18 -->
<g id="edge39_Node000022_Node000018" class="edge">
<title>Node22&#45;&gt;Node18</title>
<g id="a_edge39_Node000022_Node000018"><a xlink:title=" ">
<path fill="none" stroke="#63b8ff" d="M914.2,-190.82C874.74,-161.13 807.33,-110.39 772.8,-84.4"/>
<polygon fill="#63b8ff" stroke="#63b8ff" points="911.82,-193.41 921.91,-196.63 916.03,-187.82 911.82,-193.41"/>
</a>
</g>
</g>
<!-- Node23&#45;&gt;Node14 -->
<g id="edge41_Node000023_Node000014" class="edge">
<title>Node23&#45;&gt;Node14</title>
<g id="a_edge41_Node000023_Node000014"><a xlink:title=" ">
<path fill="none" stroke="#63b8ff" d="M847.53,-252.95C837.14,-251.77 826.76,-250.59 816.86,-249.47"/>
<polygon fill="#63b8ff" stroke="#63b8ff" points="846.94,-256.4 857.28,-254.05 847.73,-249.45 846.94,-256.4"/>
</a>
</g>
</g>
<!-- Node24&#45;&gt;Node12 -->
<g id="edge43_Node000024_Node000012" class="edge">
<title>Node24&#45;&gt;Node12</title>
<g id="a_edge43_Node000024_Node000012"><a xlink:title=" ">
<path fill="none" stroke="#63b8ff" d="M847.47,-390C836.59,-390 825.72,-390 815.41,-390"/>
<polygon fill="#63b8ff" stroke="#63b8ff" points="847.27,-393.5 857.27,-390 847.27,-386.5 847.27,-393.5"/>
</a>
</g>
</g>
</g>
</svg>

<g id="navigator" transform="translate(0 0)" fill="#404254">
  <rect fill="#f2f5e9" fill-opacity="0.5" stroke="#606060" stroke-width=".5" x="0" y="0" width="60" height="60"/>
  <use id="zoomplus" xlink:href="#zoomPlus" x="17" y="9" onmousedown="handleZoom(evt,'in')"/>
  <use id="zoomminus" xlink:href="#zoomMin" x="42" y="9" onmousedown="handleZoom(evt,'out')"/>
  <use id="reset" xlink:href="#resetDef" x="30" y="36" onmousedown="handleReset()"/>
   <use id="arrowup" xlink:href="#arrowUp" x="0" y="0" onmousedown="handlePan(0,-1)"/>
  <use id="arrowright" xlink:href="#arrowRight" x="0" y="0" onmousedown="handlePan(1,0)"/>
  <use id="arrowdown" xlink:href="#arrowDown" x="0" y="0" onmousedown="handlePan(0,1)"/>
  <use id="arrowleft" xlink:href="#arrowLeft" x="0" y="0" onmousedown="handlePan(-1,0)"/>
</g>
<svg viewBox="0 0 15 15" width="100%" height="30px" preserveAspectRatio="xMaxYMin meet">
 <g id="arrow_out" transform="scale(0.3 0.3)">
  <a xlink:href="class_relationship_end_a872cd032aa3a9e2c7f23f455d03c4863_icgraph_org.svg" target="_base">
   <rect id="button" ry="5" rx="5" y="6" x="6" height="38" width="38"
        fill="#f2f5e9" fill-opacity="0.5" stroke="#606060" stroke-width="1.0"/>
   <path id="arrow"
     d="M 11.500037,31.436501 C 11.940474,20.09759 22.043105,11.32322 32.158766,21.979434 L 37.068811,17.246167 C 37.068811,17.246167 37.088388,32 37.088388,32 L 22.160133,31.978069 C 22.160133,31.978069 26.997745,27.140456 26.997745,27.140456 C 18.528582,18.264221 13.291696,25.230495 11.500037,31.436501 z"
     style="fill:#404040;"/>
  </a>
 </g>
</svg>

<style type='text/css'>
<![CDATA[
[data-mouse-over-selected='false'] { opacity: 0.7; }
[data-mouse-over-selected='true']  { opacity: 1.0; }
]]>
</style>
<script type="application/ecmascript"><![CDATA[
document.addEventListener('DOMContentLoaded', (event) => {
  highlightEdges();
  highlightAdjacentNodes();
});
]]></script>
</svg>
