<?xml version="1.0" encoding="UTF-8" standalone="no"?>
<!DOCTYPE svg PUBLIC "-//W3C//DTD SVG 1.1//EN"
 "http://www.w3.org/Graphics/SVG/1.1/DTD/svg11.dtd">
<!-- Generated by graphviz version 14.1.1 (20251213.1925)
 -->
<!-- Title: BasicElement::connectionPoints Pages: 1 -->
<!--zoomable 670 -->

<svg id="main" version="1.1" xmlns="http://www.w3.org/2000/svg" xmlns:xlink="http://www.w3.org/1999/xlink" xml:space="preserve" onload="init(evt)">

<style type="text/css"><![CDATA[
.node, .edge {opacity: 0.7;}
.node.selected, .edge.selected {opacity: 1;}
.edge:hover path { stroke: red; }
.edge:hover polygon { stroke: red; fill: red; }
]]></style>

<defs>
  <circle id="rim" cx="0" cy="0" r="7"/>
  <circle id="rim2" cx="0" cy="0" r="3.5"/>
  <g id="zoomPlus">
    <use xlink:href="#rim" fill="#404040"><set attributeName="fill" to="#808080" begin="zoomplus.mouseover" end="zoomplus.mouseout"/></use>
    <path d="M-4,0h8M0,-4v8" fill="none" stroke="white" stroke-width="1.5" pointer-events="none"/>
  </g>
  <g id="zoomMin">
    <use xlink:href="#rim" fill="#404040"><set attributeName="fill" to="#808080" begin="zoomminus.mouseover" end="zoomminus.mouseout"/></use>
    <path d="M-4,0h8" fill="none" stroke="white" stroke-width="1.5" pointer-events="none"/>
  </g>
  <g id="arrowUp" transform="translate(30 24)">
    <use xlink:href="#rim"/>
    <path pointer-events="none" fill="none" stroke="white" stroke-width="1.5" d="M0,-3.0v7 M-2.5,-0.5L0,-3.0L2.5,-0.5"/>
  </g>
  <g id="arrowRight" transform="rotate(90) translate(36 -43)">
    <use xlink:href="#rim"/>
    <path pointer-events="none" fill="none" stroke="white" stroke-width="1.5" d="M0,-3.0v7 M-2.5,-0.5L0,-3.0L2.5,-0.5"/>
  </g>
  <g id="arrowDown" transform="rotate(180) translate(-30 -48)">
    <use xlink:href="#rim"/>
    <path pointer-events="none" fill="none" stroke="white" stroke-width="1.5" d="M0,-3.0v7 M-2.5,-0.5L0,-3.0L2.5,-0.5"/>
  </g>
  <g id="arrowLeft" transform="rotate(270) translate(-36 17)">
    <use xlink:href="#rim"/>
    <path pointer-events="none" fill="none" stroke="white" stroke-width="1.5" d="M0,-3.0v7 M-2.5,-0.5L0,-3.0L2.5,-0.5"/>
  </g>
  <g id="resetDef">
    <use xlink:href="#rim2" fill="#404040"><set attributeName="fill" to="#808080" begin="reset.mouseover" end="reset.mouseout"/></use>
  </g>
</defs>
<script type="application/ecmascript">
var viewWidth = 2299;
var viewHeight = 670;
var sectionId = 'dynsection-9';
</script>
<script type="application/ecmascript" xlink:href="svg.min.js"/>
<svg id="graph" class="graph">
<g id="viewport">
<title>BasicElement::connectionPoints</title>
<!-- Node1 -->
<g id="Node000001" class="node">
<title>Node1</title>
<g id="a_Node000001"><a xlink:title=" ">
<polygon fill="#999999" stroke="#666666" points="2290.75,-130.8 2160.75,-130.8 2160.75,-98.8 2290.75,-98.8 2290.75,-130.8"/>
<text xml:space="preserve" text-anchor="start" x="2168.75" y="-117.3" font-family="Helvetica,sans-Serif" font-size="10.00">BasicElement::connection</text>
<text xml:space="preserve" text-anchor="middle" x="2225.75" y="-105.3" font-family="Helvetica,sans-Serif" font-size="10.00">Points</text>
</a>
</g>
</g>
<!-- Node2 -->
<g id="Node000002" class="node">
<title>Node2</title>
<g id="a_Node000002"><a xlink:href="class_properties_panel.html#afdbf8bbbf5225049cf87295d5151fb46" target="_top" xlink:title=" ">
<polygon fill="white" stroke="#666666" points="2124.75,-155.8 1955,-155.8 1955,-123.8 2124.75,-123.8 2124.75,-155.8"/>
<text xml:space="preserve" text-anchor="start" x="1963" y="-142.3" font-family="Helvetica,sans-Serif" font-size="10.00">PropertiesPanel::connect</text>
<text xml:space="preserve" text-anchor="middle" x="2039.88" y="-130.3" font-family="Helvetica,sans-Serif" font-size="10.00">BasicElementsWithConnectionLine</text>
</a>
</g>
</g>
<!-- Node1&#45;&gt;Node2 -->
<g id="edge1_Node000001_Node000002" class="edge">
<title>Node1&#45;&gt;Node2</title>
<g id="a_edge1_Node000001_Node000002"><a xlink:title=" ">
<path fill="none" stroke="#63b8ff" d="M2149.05,-125.09C2141.18,-126.16 2133.14,-127.26 2125.19,-128.34"/>
<polygon fill="#63b8ff" stroke="#63b8ff" points="2149.5,-128.56 2158.94,-123.75 2148.56,-121.63 2149.5,-128.56"/>
</a>
</g>
</g>
<!-- Node26 -->
<g id="Node000026" class="node">
<title>Node26</title>
<g id="a_Node000026"><a xlink:href="class_diagram_scene.html#a9413548fb3f634a36e7c6e5e03f48692" target="_top" xlink:title=" ">
<polygon fill="white" stroke="#666666" points="2115.75,-105.8 1964,-105.8 1964,-73.8 2115.75,-73.8 2115.75,-105.8"/>
<text xml:space="preserve" text-anchor="start" x="1972" y="-92.3" font-family="Helvetica,sans-Serif" font-size="10.00">DiagramScene::findConnection</text>
<text xml:space="preserve" text-anchor="middle" x="2039.88" y="-80.3" font-family="Helvetica,sans-Serif" font-size="10.00">PointInClonedElement</text>
</a>
</g>
</g>
<!-- Node1&#45;&gt;Node26 -->
<g id="edge49_Node000001_Node000026" class="edge">
<title>Node1&#45;&gt;Node26</title>
<g id="a_edge49_Node000001_Node000026"><a xlink:title=" ">
<path fill="none" stroke="#63b8ff" d="M2149.22,-104.53C2138.31,-103.05 2127.09,-101.52 2116.19,-100.04"/>
<polygon fill="#63b8ff" stroke="#63b8ff" points="2148.56,-107.97 2158.94,-105.85 2149.5,-101.04 2148.56,-107.97"/>
</a>
</g>
</g>
<!-- Node3 -->
<g id="Node000003" class="node">
<title>Node3</title>
<g id="a_Node000003"><a xlink:href="class_properties_panel.html#a55ae5c02e7d75c7bdc26281a148e8c5a" target="_top" xlink:title=" ">
<polygon fill="white" stroke="#666666" points="1909.62,-155.8 1754.12,-155.8 1754.12,-123.8 1909.62,-123.8 1909.62,-155.8"/>
<text xml:space="preserve" text-anchor="start" x="1762.12" y="-142.3" font-family="Helvetica,sans-Serif" font-size="10.00">PropertiesPanel::onAddAttribute</text>
<text xml:space="preserve" text-anchor="middle" x="1831.88" y="-130.3" font-family="Helvetica,sans-Serif" font-size="10.00">OnTreeClicked</text>
</a>
</g>
</g>
<!-- Node2&#45;&gt;Node3 -->
<g id="edge2_Node000002_Node000003" class="edge">
<title>Node2&#45;&gt;Node3</title>
<g id="a_edge2_Node000002_Node000003"><a xlink:title=" ">
<path fill="none" stroke="#63b8ff" d="M1943.61,-139.8C1932.37,-139.8 1921.01,-139.8 1910.06,-139.8"/>
<polygon fill="#63b8ff" stroke="#63b8ff" points="1943.28,-143.3 1953.28,-139.8 1943.28,-136.3 1943.28,-143.3"/>
</a>
</g>
</g>
<!-- Node4 -->
<g id="Node000004" class="node">
<title>Node4</title>
<g id="a_Node000004"><a xlink:href="class_properties_panel.html#a90cca2a241daa84841ee3e90d7768c8f" target="_top" xlink:title=" ">
<polygon fill="white" stroke="#666666" points="1705.38,-152.8 1558.88,-152.8 1558.88,-120.8 1705.38,-120.8 1705.38,-152.8"/>
<text xml:space="preserve" text-anchor="start" x="1566.88" y="-139.3" font-family="Helvetica,sans-Serif" font-size="10.00">PropertiesPanel::createButton</text>
<text xml:space="preserve" text-anchor="middle" x="1632.12" y="-127.3" font-family="Helvetica,sans-Serif" font-size="10.00">PropertyItem</text>
</a>
</g>
</g>
<!-- Node3&#45;&gt;Node4 -->
<g id="edge3_Node000003_Node000004" class="edge">
<title>Node3&#45;&gt;Node4</title>
<g id="a_edge3_Node000003_Node000004"><a xlink:title=" ">
<path fill="none" stroke="#63b8ff" d="M1742.61,-138.46C1730.28,-138.27 1717.73,-138.08 1705.73,-137.9"/>
<polygon fill="#63b8ff" stroke="#63b8ff" points="1742.29,-141.96 1752.34,-138.61 1742.39,-134.96 1742.29,-141.96"/>
</a>
</g>
</g>
<!-- Node5 -->
<g id="Node000005" class="node">
<title>Node5</title>
<g id="a_Node000005"><a xlink:href="class_properties_panel.html#a050a4a9040c7aeefde9c1377d2e1909e" target="_top" xlink:title=" ">
<polygon fill="white" stroke="#666666" points="1519.5,-130.8 1391.75,-130.8 1391.75,-98.8 1519.5,-98.8 1519.5,-130.8"/>
<text xml:space="preserve" text-anchor="start" x="1399.75" y="-117.3" font-family="Helvetica,sans-Serif" font-size="10.00">PropertiesPanel::populate</text>
<text xml:space="preserve" text-anchor="middle" x="1455.62" y="-105.3" font-family="Helvetica,sans-Serif" font-size="10.00">AttributeList</text>
</a>
</g>
</g>
<!-- Node4&#45;&gt;Node5 -->
<g id="edge4_Node000004_Node000005" class="edge">
<title>Node4&#45;&gt;Node5</title>
<g id="a_edge4_Node000004_Node000005"><a xlink:title=" ">
<path fill="none" stroke="#63b8ff" d="M1547.19,-126.22C1537.98,-125.06 1528.71,-123.89 1519.81,-122.77"/>
<polygon fill="#63b8ff" stroke="#63b8ff" points="1546.52,-129.66 1556.88,-127.44 1547.4,-122.72 1546.52,-129.66"/>
</a>
</g>
</g>
<!-- Node6 -->
<g id="Node000006" class="node">
<title>Node6</title>
<g id="a_Node000006"><a xlink:href="class_properties_panel.html#acc5a2b4e63ea74eaa34853f1cec46b81" target="_top" xlink:title=" ">
<polygon fill="white" stroke="#666666" points="1355.75,-124.8 1228,-124.8 1228,-92.8 1355.75,-92.8 1355.75,-124.8"/>
<text xml:space="preserve" text-anchor="start" x="1236" y="-111.3" font-family="Helvetica,sans-Serif" font-size="10.00">PropertiesPanel::populate</text>
<text xml:space="preserve" text-anchor="middle" x="1291.88" y="-99.3" font-family="Helvetica,sans-Serif" font-size="10.00">AttributeProperties</text>
</a>
</g>
</g>
<!-- Node4&#45;&gt;Node6 -->
<g id="edge46_Node000004_Node000006" class="edge">
<title>Node4&#45;&gt;Node6</title>
<g id="a_edge46_Node000004_Node000006"><a xlink:title=" ">
<path fill="none" stroke="#63b8ff" d="M1573.61,-116.41C1567.45,-113.96 1561.31,-111.4 1555.5,-108.8 1538.98,-101.42 1537.06,-94.15 1519.5,-89.8 1465.27,-76.37 1401.75,-83.59 1355.78,-92.74"/>
<polygon fill="#63b8ff" stroke="#63b8ff" points="1571.94,-119.51 1582.53,-119.87 1574.48,-112.99 1571.94,-119.51"/>
</a>
</g>
</g>
<!-- Node11 -->
<g id="Node000011" class="node">
<title>Node11</title>
<g id="a_Node000011"><a xlink:href="class_properties_panel.html#aeb116e2e51099f618b5d284e492bc0e2" target="_top" xlink:title=" ">
<polygon fill="white" stroke="#666666" points="127.75,-146.8 0,-146.8 0,-114.8 127.75,-114.8 127.75,-146.8"/>
<text xml:space="preserve" text-anchor="start" x="8" y="-133.3" font-family="Helvetica,sans-Serif" font-size="10.00">PropertiesPanel::populate</text>
<text xml:space="preserve" text-anchor="middle" x="63.88" y="-121.3" font-family="Helvetica,sans-Serif" font-size="10.00">RelationshipProperties</text>
</a>
</g>
</g>
<!-- Node4&#45;&gt;Node11 -->
<g id="edge48_Node000004_Node000011" class="edge">
<title>Node4&#45;&gt;Node11</title>
<g id="a_edge48_Node000004_Node000011"><a xlink:title=" ">
<path fill="none" stroke="#63b8ff" d="M1569.17,-115.87C1564.45,-113.67 1559.84,-111.31 1555.5,-108.8 1537.47,-98.37 1537.65,-89.02 1519.5,-78.8 1426.7,-26.51 1399.4,-0.8 1292.88,-0.8 1292.88,-0.8 1292.88,-0.8 417.38,-0.8 303.26,-0.8 266.63,8.57 163.75,-40.8 127.34,-58.27 94.74,-93.57 77.6,-114.39"/>
<polygon fill="#63b8ff" stroke="#63b8ff" points="1567.65,-119.03 1578.21,-119.82 1570.45,-112.61 1567.65,-119.03"/>
</a>
</g>
</g>
<!-- Node25 -->
<g id="Node000025" class="node">
<title>Node25</title>
<g id="a_Node000025"><a xlink:href="class_properties_panel.html#a6a4344308af5b2c993bc25981529239c" target="_top" xlink:title=" ">
<polygon fill="white" stroke="#666666" points="1355.75,-174.8 1228,-174.8 1228,-142.8 1355.75,-142.8 1355.75,-174.8"/>
<text xml:space="preserve" text-anchor="start" x="1236" y="-161.3" font-family="Helvetica,sans-Serif" font-size="10.00">PropertiesPanel::populate</text>
<text xml:space="preserve" text-anchor="middle" x="1291.88" y="-149.3" font-family="Helvetica,sans-Serif" font-size="10.00">EntityProperties</text>
</a>
</g>
</g>
<!-- Node4&#45;&gt;Node25 -->
<g id="edge47_Node000004_Node000025" class="edge">
<title>Node4&#45;&gt;Node25</title>
<g id="a_edge47_Node000004_Node000025"><a xlink:title=" ">
<path fill="none" stroke="#63b8ff" d="M1547.37,-142.25C1488.23,-146.09 1410.2,-151.17 1356.21,-154.68"/>
<polygon fill="#63b8ff" stroke="#63b8ff" points="1547.3,-145.76 1557.05,-141.62 1546.85,-138.77 1547.3,-145.76"/>
</a>
</g>
</g>
<!-- Node5&#45;&gt;Node6 -->
<g id="edge5_Node000005_Node000006" class="edge">
<title>Node5&#45;&gt;Node6</title>
<g id="a_edge5_Node000005_Node000006"><a xlink:title=" ">
<path fill="none" stroke="#63b8ff" d="M1380.33,-105.31C1372.28,-104.97 1364.14,-104.71 1356.24,-104.54"/>
<polygon fill="#63b8ff" stroke="#63b8ff" points="1379.96,-108.8 1390.11,-105.79 1380.29,-101.81 1379.96,-108.8"/>
</a>
</g>
</g>
<!-- Node5&#45;&gt;Node11 -->
<g id="edge45_Node000005_Node000011" class="edge">
<title>Node5&#45;&gt;Node11</title>
<g id="a_edge45_Node000005_Node000011"><a xlink:title=" ">
<path fill="none" stroke="#63b8ff" d="M1401.62,-94.52C1337.91,-72 1227.32,-38.8 1129.12,-38.8 1129.12,-38.8 1129.12,-38.8 417.38,-38.8 302.89,-38.8 272.79,-48.91 163.75,-83.8 139.31,-91.62 113.15,-104.26 93.88,-114.47"/>
<polygon fill="#63b8ff" stroke="#63b8ff" points="1400.17,-97.72 1410.76,-97.8 1402.53,-91.13 1400.17,-97.72"/>
</a>
</g>
</g>
<!-- Node5&#45;&gt;Node25 -->
<g id="edge43_Node000005_Node000025" class="edge">
<title>Node5&#45;&gt;Node25</title>
<g id="a_edge43_Node000005_Node000025"><a xlink:title=" ">
<path fill="none" stroke="#63b8ff" d="M1383.59,-134.12C1373.53,-136.86 1363.26,-139.65 1353.42,-142.33"/>
<polygon fill="#63b8ff" stroke="#63b8ff" points="1384.2,-137.58 1392.93,-131.58 1382.37,-130.83 1384.2,-137.58"/>
</a>
</g>
</g>
<!-- Node6&#45;&gt;Node5 -->
<g id="edge6_Node000006_Node000005" class="edge">
<title>Node6&#45;&gt;Node5</title>
<g id="a_edge6_Node000006_Node000005"><a xlink:title=" ">
<path fill="none" stroke="#63b8ff" d="M1367.53,-118.3C1375.59,-118.65 1383.73,-118.91 1391.63,-119.06"/>
<polygon fill="#63b8ff" stroke="#63b8ff" points="1367.9,-114.82 1357.75,-117.83 1367.57,-121.81 1367.9,-114.82"/>
</a>
</g>
</g>
<!-- Node7 -->
<g id="Node000007" class="node">
<title>Node7</title>
<g id="a_Node000007"><a xlink:href="class_properties_panel.html#a037586f897062f3915a123b9f2a82b91" target="_top" xlink:title=" ">
<polygon fill="white" stroke="#666666" points="1192,-174.8 1064.25,-174.8 1064.25,-142.8 1192,-142.8 1192,-174.8"/>
<text xml:space="preserve" text-anchor="start" x="1072.25" y="-161.3" font-family="Helvetica,sans-Serif" font-size="10.00">PropertiesPanel::populate</text>
<text xml:space="preserve" text-anchor="middle" x="1128.12" y="-149.3" font-family="Helvetica,sans-Serif" font-size="10.00">ForElement</text>
</a>
</g>
</g>
<!-- Node6&#45;&gt;Node7 -->
<g id="edge7_Node000006_Node000007" class="edge">
<title>Node6&#45;&gt;Node7</title>
<g id="a_edge7_Node000006_Node000007"><a xlink:title=" ">
<path fill="none" stroke="#63b8ff" d="M1227.29,-128.46C1212.46,-133.04 1196.82,-137.88 1182.48,-142.31"/>
<polygon fill="#63b8ff" stroke="#63b8ff" points="1227.95,-131.92 1236.47,-125.62 1225.88,-125.23 1227.95,-131.92"/>
</a>
</g>
</g>
<!-- Node8 -->
<g id="Node000008" class="node">
<title>Node8</title>
<g id="a_Node000008"><a xlink:href="class_properties_panel.html#a139ae0158b486c6004e15e0ddf36f319" target="_top" xlink:title=" ">
<polygon fill="white" stroke="#666666" points="1028.25,-349.8 907.25,-349.8 907.25,-329.8 1028.25,-329.8 1028.25,-349.8"/>
<text xml:space="preserve" text-anchor="middle" x="967.75" y="-336.3" font-family="Helvetica,sans-Serif" font-size="10.00">PropertiesPanel::refresh</text>
</a>
</g>
</g>
<!-- Node7&#45;&gt;Node8 -->
<g id="edge8_Node000007_Node000008" class="edge">
<title>Node7&#45;&gt;Node8</title>
<g id="a_edge8_Node000007_Node000008"><a xlink:title=" ">
<path fill="none" stroke="#63b8ff" d="M1105.42,-183.61C1070.31,-223.73 1002.51,-301.21 977.93,-329.31"/>
<polygon fill="#63b8ff" stroke="#63b8ff" points="1107.84,-186.15 1111.79,-176.32 1102.58,-181.54 1107.84,-186.15"/>
</a>
</g>
</g>
<!-- Node8&#45;&gt;Node3 -->
<g id="edge9_Node000008_Node000003" class="edge">
<title>Node8&#45;&gt;Node3</title>
<g id="a_edge9_Node000008_Node000003"><a xlink:title=" ">
<path fill="none" stroke="#63b8ff" d="M1003.78,-325.13C1062.2,-302.04 1183.69,-259.8 1290.88,-259.8 1456.62,-259.8 1456.62,-259.8 1456.62,-259.8 1590.7,-259.8 1739.45,-189.1 1801.35,-156.23"/>
<polygon fill="#63b8ff" stroke="#63b8ff" points="1002.67,-321.8 994.7,-328.78 1005.28,-328.3 1002.67,-321.8"/>
</a>
</g>
</g>
<!-- Node9 -->
<g id="Node000009" class="node">
<title>Node9</title>
<g id="a_Node000009"><a xlink:href="class_properties_panel.html#a2800a2c7575a5fad6d923d9b64d982f8" target="_top" xlink:title=" ">
<polygon fill="white" stroke="#666666" points="483.38,-307.8 353.38,-307.8 353.38,-275.8 483.38,-275.8 483.38,-307.8"/>
<text xml:space="preserve" text-anchor="start" x="361.38" y="-294.3" font-family="Helvetica,sans-Serif" font-size="10.00">PropertiesPanel::onCheck</text>
<text xml:space="preserve" text-anchor="middle" x="418.38" y="-282.3" font-family="Helvetica,sans-Serif" font-size="10.00">BoxChanged</text>
</a>
</g>
</g>
<!-- Node8&#45;&gt;Node9 -->
<g id="edge10_Node000008_Node000009" class="edge">
<title>Node8&#45;&gt;Node9</title>
<g id="a_edge10_Node000008_Node000009"><a xlink:title=" ">
<path fill="none" stroke="#63b8ff" d="M949.56,-321.61C931.76,-303.99 902.23,-278.05 871.25,-264.8 800.01,-234.34 598.91,-222.02 523.5,-239.8 494.39,-246.66 464.14,-262.97 443.79,-275.51"/>
<polygon fill="#63b8ff" stroke="#63b8ff" points="946.75,-323.75 956.26,-328.42 951.74,-318.84 946.75,-323.75"/>
</a>
</g>
</g>
<!-- Node12 -->
<g id="Node000012" class="node">
<title>Node12</title>
<g id="a_Node000012"><a xlink:href="class_properties_panel.html#aec82450a3daeb2614c2321e37897f1dd" target="_top" xlink:title=" ">
<polygon fill="white" stroke="#666666" points="484.88,-417.8 351.88,-417.8 351.88,-385.8 484.88,-385.8 484.88,-417.8"/>
<text xml:space="preserve" text-anchor="start" x="359.88" y="-404.3" font-family="Helvetica,sans-Serif" font-size="10.00">PropertiesPanel::onCombo</text>
<text xml:space="preserve" text-anchor="middle" x="418.38" y="-392.3" font-family="Helvetica,sans-Serif" font-size="10.00">BoxChanged</text>
</a>
</g>
</g>
<!-- Node8&#45;&gt;Node12 -->
<g id="edge15_Node000008_Node000012" class="edge">
<title>Node8&#45;&gt;Node12</title>
<g id="a_edge15_Node000008_Node000012"><a xlink:title=" ">
<path fill="none" stroke="#63b8ff" d="M925.25,-326.04C844.77,-301.72 663.13,-258.38 523.5,-310.8 483.72,-325.73 449.17,-363.52 431.64,-385.42"/>
<polygon fill="#63b8ff" stroke="#63b8ff" points="923.89,-329.29 934.47,-328.89 925.95,-322.6 923.89,-329.29"/>
</a>
</g>
</g>
<!-- Node16 -->
<g id="Node000016" class="node">
<title>Node16</title>
<g id="a_Node000016"><a xlink:href="class_properties_panel.html#aec8130201106284c02f21903b516554d" target="_top" xlink:title=" ">
<polygon fill="white" stroke="#666666" points="678.62,-539.8 541.88,-539.8 541.88,-507.8 678.62,-507.8 678.62,-539.8"/>
<text xml:space="preserve" text-anchor="start" x="549.88" y="-526.3" font-family="Helvetica,sans-Serif" font-size="10.00">PropertiesPanel::onLineEdit</text>
<text xml:space="preserve" text-anchor="middle" x="610.25" y="-514.3" font-family="Helvetica,sans-Serif" font-size="10.00">Changed</text>
</a>
</g>
</g>
<!-- Node8&#45;&gt;Node16 -->
<g id="edge22_Node000008_Node000016" class="edge">
<title>Node8&#45;&gt;Node16</title>
<g id="a_edge22_Node000008_Node000016"><a xlink:title=" ">
<path fill="none" stroke="#63b8ff" d="M950.09,-358.4C932.13,-377.56 901.99,-407.3 871.25,-426.8 810.53,-465.32 732.24,-491.9 677.5,-507.36"/>
<polygon fill="#63b8ff" stroke="#63b8ff" points="952.43,-361.02 956.63,-351.29 947.28,-356.28 952.43,-361.02"/>
</a>
</g>
</g>
<!-- Node18 -->
<g id="Node000018" class="node">
<title>Node18</title>
<g id="a_Node000018"><a xlink:href="class_properties_panel.html#a3cdc065abcd2f9e59558903073c0f23f" target="_top" xlink:title=" ">
<polygon fill="white" stroke="#666666" points="487.5,-610.8 349.25,-610.8 349.25,-578.8 487.5,-578.8 487.5,-610.8"/>
<text xml:space="preserve" text-anchor="start" x="357.25" y="-597.3" font-family="Helvetica,sans-Serif" font-size="10.00">PropertiesPanel::onProperty</text>
<text xml:space="preserve" text-anchor="middle" x="418.38" y="-585.3" font-family="Helvetica,sans-Serif" font-size="10.00">ValueChanged</text>
</a>
</g>
</g>
<!-- Node8&#45;&gt;Node18 -->
<g id="edge25_Node000008_Node000018" class="edge">
<title>Node8&#45;&gt;Node18</title>
<g id="a_edge25_Node000008_Node000018"><a xlink:title=" ">
<path fill="none" stroke="#63b8ff" d="M951.85,-359.61C934.93,-385.66 905.21,-431.05 871.25,-462.8 804.52,-525.18 784.14,-544.4 697,-571.8 628.17,-593.44 545.05,-594.58 487.81,-593.58"/>
<polygon fill="#63b8ff" stroke="#63b8ff" points="954.74,-361.59 957.27,-351.3 948.88,-357.77 954.74,-361.59"/>
</a>
</g>
</g>
<!-- Node20 -->
<g id="Node000020" class="node">
<title>Node20</title>
<g id="a_Node000020"><a xlink:href="class_properties_panel.html#a8a2ec0bcba44f3bbd0245d3a53ff49f7" target="_top" xlink:title=" ">
<polygon fill="white" stroke="#666666" points="871.25,-212.8 733,-212.8 733,-180.8 871.25,-180.8 871.25,-212.8"/>
<text xml:space="preserve" text-anchor="start" x="741" y="-199.3" font-family="Helvetica,sans-Serif" font-size="10.00">PropertiesPanel::onRemove</text>
<text xml:space="preserve" text-anchor="middle" x="802.12" y="-187.3" font-family="Helvetica,sans-Serif" font-size="10.00">AttributeOnTreeClicked</text>
</a>
</g>
</g>
<!-- Node8&#45;&gt;Node20 -->
<g id="edge28_Node000008_Node000020" class="edge">
<title>Node8&#45;&gt;Node20</title>
<g id="a_edge28_Node000008_Node000020"><a xlink:title=" ">
<path fill="none" stroke="#63b8ff" d="M954.19,-319.99C937.72,-295.35 906.71,-253.31 871.25,-226.8 864.32,-221.62 856.34,-217.09 848.35,-213.23"/>
<polygon fill="#63b8ff" stroke="#63b8ff" points="951.1,-321.66 959.5,-328.12 956.96,-317.84 951.1,-321.66"/>
</a>
</g>
</g>
<!-- Node21 -->
<g id="Node000021" class="node">
<title>Node21</title>
<g id="a_Node000021"><a xlink:href="class_properties_panel.html#a79618c5c820a40931c085d54be70bd34" target="_top" xlink:title=" ">
<polygon fill="white" stroke="#666666" points="864.88,-417.8 739.38,-417.8 739.38,-385.8 864.88,-385.8 864.88,-417.8"/>
<text xml:space="preserve" text-anchor="start" x="747.38" y="-404.3" font-family="Helvetica,sans-Serif" font-size="10.00">PropertiesPanel::updates</text>
<text xml:space="preserve" text-anchor="middle" x="802.12" y="-392.3" font-family="Helvetica,sans-Serif" font-size="10.00">AfterChangingProperty</text>
</a>
</g>
</g>
<!-- Node8&#45;&gt;Node21 -->
<g id="edge30_Node000008_Node000021" class="edge">
<title>Node8&#45;&gt;Node21</title>
<g id="a_edge30_Node000008_Node000021"><a xlink:title=" ">
<path fill="none" stroke="#63b8ff" d="M928.66,-354.23C904.13,-363.53 872.17,-375.64 846.64,-385.31"/>
<polygon fill="#63b8ff" stroke="#63b8ff" points="929.84,-357.53 937.95,-350.71 927.36,-350.98 929.84,-357.53"/>
</a>
</g>
</g>
<!-- Node10 -->
<g id="Node000010" class="node">
<title>Node10</title>
<g id="a_Node000010"><a xlink:href="class_properties_panel.html#acfb41226221624e46767835caeea8abc" target="_top" xlink:title=" ">
<polygon fill="white" stroke="#666666" points="311.75,-124.8 165.25,-124.8 165.25,-92.8 311.75,-92.8 311.75,-124.8"/>
<text xml:space="preserve" text-anchor="start" x="173.25" y="-111.3" font-family="Helvetica,sans-Serif" font-size="10.00">PropertiesPanel::createCheck</text>
<text xml:space="preserve" text-anchor="middle" x="238.5" y="-99.3" font-family="Helvetica,sans-Serif" font-size="10.00">BoxPropertyItem</text>
</a>
</g>
</g>
<!-- Node9&#45;&gt;Node10 -->
<g id="edge11_Node000009_Node000010" class="edge">
<title>Node9&#45;&gt;Node10</title>
<g id="a_edge11_Node000009_Node000010"><a xlink:title=" ">
<path fill="none" stroke="#63b8ff" d="M397.5,-266.76C377.26,-241.8 344.5,-202.81 313.25,-171.8 296.28,-154.96 275.44,-137.42 260.25,-125.13"/>
<polygon fill="#63b8ff" stroke="#63b8ff" points="394.66,-268.83 403.66,-274.42 400.12,-264.44 394.66,-268.83"/>
</a>
</g>
</g>
<!-- Node10&#45;&gt;Node6 -->
<g id="edge12_Node000010_Node000006" class="edge">
<title>Node10&#45;&gt;Node6</title>
<g id="a_edge12_Node000010_Node000006"><a xlink:title=" ">
<path fill="none" stroke="#63b8ff" d="M323.34,-110.94C398.28,-112.66 511.09,-114.8 609.25,-114.8 968.75,-114.8 968.75,-114.8 968.75,-114.8 1058.66,-114.8 1162.67,-112.43 1227.62,-110.67"/>
<polygon fill="#63b8ff" stroke="#63b8ff" points="323.7,-107.44 313.62,-110.71 323.54,-114.44 323.7,-107.44"/>
</a>
</g>
</g>
<!-- Node10&#45;&gt;Node11 -->
<g id="edge13_Node000010_Node000011" class="edge">
<title>Node10&#45;&gt;Node11</title>
<g id="a_edge13_Node000010_Node000011"><a xlink:title=" ">
<path fill="none" stroke="#63b8ff" d="M153.6,-119.49C145.05,-120.58 136.47,-121.68 128.19,-122.73"/>
<polygon fill="#63b8ff" stroke="#63b8ff" points="153.81,-122.99 163.29,-118.26 152.93,-116.05 153.81,-122.99"/>
</a>
</g>
</g>
<!-- Node11&#45;&gt;Node7 -->
<g id="edge14_Node000011_Node000007" class="edge">
<title>Node11&#45;&gt;Node7</title>
<g id="a_edge14_Node000011_Node000007"><a xlink:title=" ">
<path fill="none" stroke="#63b8ff" d="M139.25,-138.14C210.54,-144.54 321.19,-152.8 417.38,-152.8 803.12,-152.8 803.12,-152.8 803.12,-152.8 893.7,-152.8 998.5,-155.17 1063.81,-156.93"/>
<polygon fill="#63b8ff" stroke="#63b8ff" points="139.94,-134.69 129.67,-137.27 139.31,-141.66 139.94,-134.69"/>
</a>
</g>
</g>
<!-- Node13 -->
<g id="Node000013" class="node">
<title>Node13</title>
<g id="a_Node000013"><a xlink:href="class_properties_panel.html#a8fd53ec3c9f711c3354483e8bb4d0b47" target="_top" xlink:title=" ">
<polygon fill="white" stroke="#666666" points="313.25,-212.8 163.75,-212.8 163.75,-180.8 313.25,-180.8 313.25,-212.8"/>
<text xml:space="preserve" text-anchor="start" x="171.75" y="-199.3" font-family="Helvetica,sans-Serif" font-size="10.00">PropertiesPanel::createCombo</text>
<text xml:space="preserve" text-anchor="middle" x="238.5" y="-187.3" font-family="Helvetica,sans-Serif" font-size="10.00">BoxPropertyItem</text>
</a>
</g>
</g>
<!-- Node12&#45;&gt;Node13 -->
<g id="edge16_Node000012_Node000013" class="edge">
<title>Node12&#45;&gt;Node13</title>
<g id="a_edge16_Node000012_Node000013"><a xlink:title=" ">
<path fill="none" stroke="#63b8ff" d="M395.61,-376.72C358.62,-334.09 284.52,-248.68 253.58,-213.02"/>
<polygon fill="#63b8ff" stroke="#63b8ff" points="392.93,-378.97 402.13,-384.23 398.22,-374.38 392.93,-378.97"/>
</a>
</g>
</g>
<!-- Node14 -->
<g id="Node000014" class="node">
<title>Node14</title>
<g id="a_Node000014"><a xlink:href="class_properties_panel.html#a32c2dab00c58ffdcb6a1e3cd829d03c8" target="_top" xlink:title=" ">
<polygon fill="white" stroke="#666666" points="306.88,-438.8 170.12,-438.8 170.12,-406.8 306.88,-406.8 306.88,-438.8"/>
<text xml:space="preserve" text-anchor="start" x="178.12" y="-425.3" font-family="Helvetica,sans-Serif" font-size="10.00">PropertiesPanel::createIcon</text>
<text xml:space="preserve" text-anchor="middle" x="238.5" y="-413.3" font-family="Helvetica,sans-Serif" font-size="10.00">ComboBoxPropertyItem</text>
</a>
</g>
</g>
<!-- Node12&#45;&gt;Node14 -->
<g id="edge19_Node000012_Node000014" class="edge">
<title>Node12&#45;&gt;Node14</title>
<g id="a_edge19_Node000012_Node000014"><a xlink:title=" ">
<path fill="none" stroke="#63b8ff" d="M340.08,-410.93C329.12,-412.22 317.92,-413.54 307.16,-414.81"/>
<polygon fill="#63b8ff" stroke="#63b8ff" points="340.37,-414.42 349.89,-409.77 339.55,-407.46 340.37,-414.42"/>
</a>
</g>
</g>
<!-- Node13&#45;&gt;Node6 -->
<g id="edge17_Node000013_Node000006" class="edge">
<title>Node13&#45;&gt;Node6</title>
<g id="a_edge17_Node000013_Node000006"><a xlink:title=" ">
<path fill="none" stroke="#63b8ff" d="M295.41,-176.66C395.45,-142.48 612.28,-76.8 801.12,-76.8 968.75,-76.8 968.75,-76.8 968.75,-76.8 1059.09,-76.8 1162.99,-89.42 1227.8,-98.81"/>
<polygon fill="#63b8ff" stroke="#63b8ff" points="294.41,-173.31 286.09,-179.87 296.69,-179.92 294.41,-173.31"/>
</a>
</g>
</g>
<!-- Node13&#45;&gt;Node11 -->
<g id="edge18_Node000013_Node000011" class="edge">
<title>Node13&#45;&gt;Node11</title>
<g id="a_edge18_Node000013_Node000011"><a xlink:title=" ">
<path fill="none" stroke="#63b8ff" d="M183.82,-176.28C159.34,-166.92 130.75,-155.99 107.74,-147.19"/>
<polygon fill="#63b8ff" stroke="#63b8ff" points="182.38,-179.47 192.97,-179.78 184.88,-172.93 182.38,-179.47"/>
</a>
</g>
</g>
<!-- Node15 -->
<g id="Node000015" class="node">
<title>Node15</title>
<g id="a_Node000015"><a xlink:href="class_properties_panel.html#adbc7f8deb3a687706dc44ebbd7e39d9d" target="_top" xlink:title=" ">
<polygon fill="white" stroke="#666666" points="127.75,-579.8 0,-579.8 0,-547.8 127.75,-547.8 127.75,-579.8"/>
<text xml:space="preserve" text-anchor="start" x="8" y="-566.3" font-family="Helvetica,sans-Serif" font-size="10.00">PropertiesPanel::populate</text>
<text xml:space="preserve" text-anchor="middle" x="63.88" y="-554.3" font-family="Helvetica,sans-Serif" font-size="10.00">ForConnection</text>
</a>
</g>
</g>
<!-- Node14&#45;&gt;Node15 -->
<g id="edge20_Node000014_Node000015" class="edge">
<title>Node14&#45;&gt;Node15</title>
<g id="a_edge20_Node000014_Node000015"><a xlink:title=" ">
<path fill="none" stroke="#63b8ff" d="M208.55,-446.45C173.48,-475.09 115.34,-522.58 84.89,-547.45"/>
<polygon fill="#63b8ff" stroke="#63b8ff" points="210.66,-449.24 216.19,-440.21 206.23,-443.82 210.66,-449.24"/>
</a>
</g>
</g>
<!-- Node15&#45;&gt;Node8 -->
<g id="edge21_Node000015_Node000008" class="edge">
<title>Node15&#45;&gt;Node8</title>
<g id="a_edge21_Node000015_Node000008"><a xlink:title=" ">
<path fill="none" stroke="#63b8ff" d="M97.58,-586.2C116.21,-597.94 140.42,-611.55 163.75,-619.8 271.48,-657.87 303.12,-661.8 417.38,-661.8 611.25,-661.8 611.25,-661.8 611.25,-661.8 738.33,-661.8 780.92,-632.19 871.25,-542.8 930.22,-484.45 957.17,-382.67 964.56,-350.12"/>
<polygon fill="#63b8ff" stroke="#63b8ff" points="99.69,-583.4 89.39,-580.92 95.9,-589.28 99.69,-583.4"/>
</a>
</g>
</g>
<!-- Node17 -->
<g id="Node000017" class="node">
<title>Node17</title>
<g id="a_Node000017"><a xlink:href="class_properties_panel.html#a7bc224323f9c626842fdb6a89205c9bc" target="_top" xlink:title=" ">
<polygon fill="white" stroke="#666666" points="486.38,-503.8 350.38,-503.8 350.38,-471.8 486.38,-471.8 486.38,-503.8"/>
<text xml:space="preserve" text-anchor="start" x="358.38" y="-490.3" font-family="Helvetica,sans-Serif" font-size="10.00">PropertiesPanel::createLine</text>
<text xml:space="preserve" text-anchor="middle" x="418.38" y="-478.3" font-family="Helvetica,sans-Serif" font-size="10.00">EditPropertyItem</text>
</a>
</g>
</g>
<!-- Node16&#45;&gt;Node17 -->
<g id="edge23_Node000016_Node000017" class="edge">
<title>Node16&#45;&gt;Node17</title>
<g id="a_edge23_Node000016_Node000017"><a xlink:title=" ">
<path fill="none" stroke="#63b8ff" d="M530.52,-508.87C515.99,-506.12 500.93,-503.26 486.77,-500.58"/>
<polygon fill="#63b8ff" stroke="#63b8ff" points="529.54,-512.25 540.02,-510.67 530.84,-505.37 529.54,-512.25"/>
</a>
</g>
</g>
<!-- Node17&#45;&gt;Node11 -->
<g id="edge24_Node000017_Node000011" class="edge">
<title>Node17&#45;&gt;Node11</title>
<g id="a_edge24_Node000017_Node000011"><a xlink:title=" ">
<path fill="none" stroke="#63b8ff" d="M338.58,-495.71C283.4,-496.84 211.31,-488.88 163.75,-447.8 70.39,-367.16 64.02,-199.82 64.45,-147.09"/>
<polygon fill="#63b8ff" stroke="#63b8ff" points="338.69,-499.21 348.57,-495.39 338.46,-492.21 338.69,-499.21"/>
</a>
</g>
</g>
<!-- Node18&#45;&gt;Node8 -->
<g id="edge27_Node000018_Node000008" class="edge">
<title>Node18&#45;&gt;Node8</title>
<g id="a_edge27_Node000018_Node000008"><a xlink:title=" ">
<path fill="none" stroke="#63b8ff" d="M499.19,-608.8C555.71,-612.35 632.61,-610.05 697,-589.8 784.14,-562.4 804.52,-543.18 871.25,-480.8 915.26,-439.66 952.15,-375.6 963.3,-350.06"/>
<polygon fill="#63b8ff" stroke="#63b8ff" points="499.54,-605.32 489.32,-608.1 499.04,-612.3 499.54,-605.32"/>
</a>
</g>
</g>
<!-- Node19 -->
<g id="Node000019" class="node">
<title>Node19</title>
<g id="a_Node000019"><a xlink:href="class_properties_panel.html#a9866823e02faefceaae94fc0b0537707" target="_top" xlink:title=" ">
<polygon fill="white" stroke="#666666" points="306.12,-610.8 170.88,-610.8 170.88,-578.8 306.12,-578.8 306.12,-610.8"/>
<text xml:space="preserve" text-anchor="start" x="178.88" y="-597.3" font-family="Helvetica,sans-Serif" font-size="10.00">PropertiesPanel::Properties</text>
<text xml:space="preserve" text-anchor="middle" x="238.5" y="-585.3" font-family="Helvetica,sans-Serif" font-size="10.00">Panel</text>
</a>
</g>
</g>
<!-- Node18&#45;&gt;Node19 -->
<g id="edge26_Node000018_Node000019" class="edge">
<title>Node18&#45;&gt;Node19</title>
<g id="a_edge26_Node000018_Node000019"><a xlink:title=" ">
<path fill="none" stroke="#63b8ff" d="M337.66,-594.8C327.26,-594.8 316.68,-594.8 306.52,-594.8"/>
<polygon fill="#63b8ff" stroke="#63b8ff" points="337.34,-598.3 347.34,-594.8 337.34,-591.3 337.34,-598.3"/>
</a>
</g>
</g>
<!-- Node20&#45;&gt;Node4 -->
<g id="edge29_Node000020_Node000004" class="edge">
<title>Node20&#45;&gt;Node4</title>
<g id="a_edge29_Node000020_Node000004"><a xlink:title=" ">
<path fill="none" stroke="#63b8ff" d="M883.18,-199.11C948.75,-200.8 1043.93,-202.8 1127.12,-202.8 1292.88,-202.8 1292.88,-202.8 1292.88,-202.8 1396.08,-202.8 1513.78,-172.83 1579.58,-153.28"/>
<polygon fill="#63b8ff" stroke="#63b8ff" points="883.3,-195.61 873.21,-198.85 883.12,-202.61 883.3,-195.61"/>
</a>
</g>
</g>
<!-- Node21&#45;&gt;Node9 -->
<g id="edge39_Node000021_Node000009" class="edge">
<title>Node21&#45;&gt;Node9</title>
<g id="a_edge39_Node000021_Node000009"><a xlink:title=" ">
<path fill="none" stroke="#63b8ff" d="M780.97,-376.72C761.89,-355.02 731.15,-324.97 697,-310.8 628.28,-282.29 541.77,-281.2 483.75,-284.87"/>
<polygon fill="#63b8ff" stroke="#63b8ff" points="778.27,-378.95 787.43,-384.29 783.6,-374.41 778.27,-378.95"/>
</a>
</g>
</g>
<!-- Node21&#45;&gt;Node12 -->
<g id="edge40_Node000021_Node000012" class="edge">
<title>Node21&#45;&gt;Node12</title>
<g id="a_edge40_Node000021_Node000012"><a xlink:title=" ">
<path fill="none" stroke="#63b8ff" d="M727.46,-399.41C717.23,-399.16 706.85,-398.94 697,-398.8 619.9,-397.69 600.6,-397.69 523.5,-398.8 511.11,-398.98 497.9,-399.28 485.19,-399.62"/>
<polygon fill="#63b8ff" stroke="#63b8ff" points="727.31,-402.91 737.4,-399.68 727.5,-395.91 727.31,-402.91"/>
</a>
</g>
</g>
<!-- Node21&#45;&gt;Node16 -->
<g id="edge41_Node000021_Node000016" class="edge">
<title>Node21&#45;&gt;Node16</title>
<g id="a_edge41_Node000021_Node000016"><a xlink:title=" ">
<path fill="none" stroke="#63b8ff" d="M777.46,-426.31C752.58,-451.61 714.66,-488.76 697,-498.8 691.34,-502.02 685.23,-504.85 678.96,-507.34"/>
<polygon fill="#63b8ff" stroke="#63b8ff" points="779.8,-428.92 784.29,-419.32 774.8,-424.03 779.8,-428.92"/>
</a>
</g>
</g>
<!-- Node21&#45;&gt;Node18 -->
<g id="edge42_Node000021_Node000018" class="edge">
<title>Node21&#45;&gt;Node18</title>
<g id="a_edge42_Node000021_Node000018"><a xlink:title=" ">
<path fill="none" stroke="#63b8ff" d="M790.2,-428.32C774.76,-462.19 743.2,-519.87 697,-548.8 662.99,-570.09 558.34,-583 487.69,-589.51"/>
<polygon fill="#63b8ff" stroke="#63b8ff" points="793.38,-429.77 794.2,-419.21 786.97,-426.96 793.38,-429.77"/>
</a>
</g>
</g>
<!-- Node22 -->
<g id="Node000022" class="node">
<title>Node22</title>
<g id="a_Node000022"><a xlink:href="class_properties_panel.html#a74d22cd1ca119cda9cc4ca00b853e88d" target="_top" xlink:title=" ">
<polygon fill="white" stroke="#666666" points="688.38,-489.8 532.12,-489.8 532.12,-457.8 688.38,-457.8 688.38,-489.8"/>
<text xml:space="preserve" text-anchor="start" x="540.12" y="-476.3" font-family="Helvetica,sans-Serif" font-size="10.00">PropertiesPanel::handleAttribute</text>
<text xml:space="preserve" text-anchor="middle" x="610.25" y="-464.3" font-family="Helvetica,sans-Serif" font-size="10.00">PropertyChange</text>
</a>
</g>
</g>
<!-- Node21&#45;&gt;Node22 -->
<g id="edge31_Node000021_Node000022" class="edge">
<title>Node21&#45;&gt;Node22</title>
<g id="a_edge31_Node000021_Node000022"><a xlink:title=" ">
<path fill="none" stroke="#63b8ff" d="M757.45,-423.16C739.03,-431.73 717.22,-441.33 697,-448.8 688.85,-451.81 680.17,-454.7 671.57,-457.38"/>
<polygon fill="#63b8ff" stroke="#63b8ff" points="758.94,-426.33 766.49,-418.9 755.95,-420 758.94,-426.33"/>
</a>
</g>
</g>
<!-- Node23 -->
<g id="Node000023" class="node">
<title>Node23</title>
<g id="a_Node000023"><a xlink:href="class_properties_panel.html#aa82a2245c62f66554f277c64e643252c" target="_top" xlink:title=" ">
<polygon fill="white" stroke="#666666" points="697,-439.8 523.5,-439.8 523.5,-407.8 697,-407.8 697,-439.8"/>
<text xml:space="preserve" text-anchor="start" x="531.5" y="-426.3" font-family="Helvetica,sans-Serif" font-size="10.00">PropertiesPanel::handleRelationship</text>
<text xml:space="preserve" text-anchor="middle" x="610.25" y="-414.3" font-family="Helvetica,sans-Serif" font-size="10.00">EndCardinalityChange</text>
</a>
</g>
</g>
<!-- Node21&#45;&gt;Node23 -->
<g id="edge35_Node000021_Node000023" class="edge">
<title>Node21&#45;&gt;Node23</title>
<g id="a_edge35_Node000021_Node000023"><a xlink:title=" ">
<path fill="none" stroke="#63b8ff" d="M727.52,-410.33C717.64,-411.47 707.42,-412.66 697.35,-413.82"/>
<polygon fill="#63b8ff" stroke="#63b8ff" points="727.92,-413.81 737.45,-409.18 727.11,-406.85 727.92,-413.81"/>
</a>
</g>
</g>
<!-- Node24 -->
<g id="Node000024" class="node">
<title>Node24</title>
<g id="a_Node000024"><a xlink:href="class_properties_panel.html#ac2741a5b2cb859b07534b8f7c786359b" target="_top" xlink:title=" ">
<polygon fill="white" stroke="#666666" points="697,-351.8 523.5,-351.8 523.5,-319.8 697,-319.8 697,-351.8"/>
<text xml:space="preserve" text-anchor="start" x="531.5" y="-338.3" font-family="Helvetica,sans-Serif" font-size="10.00">PropertiesPanel::handleRelationship</text>
<text xml:space="preserve" text-anchor="middle" x="610.25" y="-326.3" font-family="Helvetica,sans-Serif" font-size="10.00">EndParticipationChange</text>
</a>
</g>
</g>
<!-- Node21&#45;&gt;Node24 -->
<g id="edge37_Node000021_Node000024" class="edge">
<title>Node21&#45;&gt;Node24</title>
<g id="a_edge37_Node000021_Node000024"><a xlink:title=" ">
<path fill="none" stroke="#63b8ff" d="M743.16,-381.65C716,-372.21 684.05,-361.11 658.4,-352.19"/>
<polygon fill="#63b8ff" stroke="#63b8ff" points="741.68,-384.84 752.27,-384.82 743.98,-378.23 741.68,-384.84"/>
</a>
</g>
</g>
<!-- Node22&#45;&gt;Node9 -->
<g id="edge32_Node000022_Node000009" class="edge">
<title>Node22&#45;&gt;Node9</title>
<g id="a_edge32_Node000022_Node000009"><a xlink:title=" ">
<path fill="none" stroke="#63b8ff" d="M526.91,-451.47C525.74,-450.61 524.61,-449.72 523.5,-448.8 496.03,-425.88 506.8,-406.93 487.5,-376.8 471.28,-351.48 448.93,-324.82 434.32,-308.26"/>
<polygon fill="#63b8ff" stroke="#63b8ff" points="524.74,-454.24 535.07,-456.6 528.47,-448.31 524.74,-454.24"/>
</a>
</g>
</g>
<!-- Node22&#45;&gt;Node12 -->
<g id="edge33_Node000022_Node000012" class="edge">
<title>Node22&#45;&gt;Node12</title>
<g id="a_edge33_Node000022_Node000012"><a xlink:title=" ">
<path fill="none" stroke="#63b8ff" d="M538.05,-453.88C533.1,-452.24 528.21,-450.54 523.5,-448.8 499.31,-439.87 472.84,-427.89 452.64,-418.26"/>
<polygon fill="#63b8ff" stroke="#63b8ff" points="536.9,-457.19 547.49,-456.91 539.04,-450.52 536.9,-457.19"/>
</a>
</g>
</g>
<!-- Node22&#45;&gt;Node18 -->
<g id="edge34_Node000022_Node000018" class="edge">
<title>Node22&#45;&gt;Node18</title>
<g id="a_edge34_Node000022_Node000018"><a xlink:title=" ">
<path fill="none" stroke="#63b8ff" d="M531.17,-494.81C528.55,-496.07 525.98,-497.4 523.5,-498.8 486.04,-519.97 451.13,-557.05 432.8,-578.41"/>
<polygon fill="#63b8ff" stroke="#63b8ff" points="532.4,-498.09 540.17,-490.89 529.6,-491.68 532.4,-498.09"/>
</a>
</g>
</g>
<!-- Node23&#45;&gt;Node12 -->
<g id="edge36_Node000023_Node000012" class="edge">
<title>Node23&#45;&gt;Node12</title>
<g id="a_edge36_Node000023_Node000012"><a xlink:title=" ">
<path fill="none" stroke="#63b8ff" d="M511.81,-412.51C502.81,-411.47 493.84,-410.43 485.22,-409.43"/>
<polygon fill="#63b8ff" stroke="#63b8ff" points="511.36,-415.98 521.7,-413.66 512.17,-409.03 511.36,-415.98"/>
</a>
</g>
</g>
<!-- Node24&#45;&gt;Node9 -->
<g id="edge38_Node000024_Node000009" class="edge">
<title>Node24&#45;&gt;Node9</title>
<g id="a_edge38_Node000024_Node000009"><a xlink:title=" ">
<path fill="none" stroke="#63b8ff" d="M527.24,-316.8C512.67,-313.42 497.68,-309.95 483.69,-306.7"/>
<polygon fill="#63b8ff" stroke="#63b8ff" points="526.27,-320.16 536.8,-319.01 527.85,-313.34 526.27,-320.16"/>
</a>
</g>
</g>
<!-- Node25&#45;&gt;Node7 -->
<g id="edge44_Node000025_Node000007" class="edge">
<title>Node25&#45;&gt;Node7</title>
<g id="a_edge44_Node000025_Node000007"><a xlink:title=" ">
<path fill="none" stroke="#63b8ff" d="M1216.58,-158.8C1208.53,-158.8 1200.39,-158.8 1192.49,-158.8"/>
<polygon fill="#63b8ff" stroke="#63b8ff" points="1216.36,-162.3 1226.36,-158.8 1216.36,-155.3 1216.36,-162.3"/>
</a>
</g>
</g>
<!-- Node27 -->
<g id="Node000027" class="node">
<title>Node27</title>
<g id="a_Node000027"><a xlink:href="class_diagram_scene.html#a61e7061e5add947d09ad87feaf2b8dc1" target="_top" xlink:title=" ">
<polygon fill="white" stroke="#666666" points="1919,-99.8 1744.75,-99.8 1744.75,-79.8 1919,-79.8 1919,-99.8"/>
<text xml:space="preserve" text-anchor="middle" x="1831.88" y="-86.3" font-family="Helvetica,sans-Serif" font-size="10.00">DiagramScene::pasteFromClipboard</text>
</a>
</g>
</g>
<!-- Node26&#45;&gt;Node27 -->
<g id="edge50_Node000026_Node000027" class="edge">
<title>Node26&#45;&gt;Node27</title>
<g id="a_edge50_Node000026_Node000027"><a xlink:title=" ">
<path fill="none" stroke="#63b8ff" d="M1952.38,-89.8C1941.48,-89.8 1930.33,-89.8 1919.43,-89.8"/>
<polygon fill="#63b8ff" stroke="#63b8ff" points="1952.12,-93.3 1962.12,-89.8 1952.12,-86.3 1952.12,-93.3"/>
</a>
</g>
</g>
<!-- Node28 -->
<g id="Node000028" class="node">
<title>Node28</title>
<g id="a_Node000028"><a xlink:href="class_diagram_scene.html#a074e1181353b257a18ea2d243b459a47" target="_top" xlink:title=" ">
<polygon fill="white" stroke="#666666" points="1708.75,-99.8 1555.5,-99.8 1555.5,-79.8 1708.75,-79.8 1708.75,-99.8"/>
<text xml:space="preserve" text-anchor="middle" x="1632.12" y="-86.3" font-family="Helvetica,sans-Serif" font-size="10.00">DiagramScene::keyPressEvent</text>
</a>
</g>
</g>
<!-- Node27&#45;&gt;Node28 -->
<g id="edge51_Node000027_Node000028" class="edge">
<title>Node27&#45;&gt;Node28</title>
<g id="a_edge51_Node000027_Node000028"><a xlink:title=" ">
<path fill="none" stroke="#63b8ff" d="M1733.09,-89.8C1725.05,-89.8 1717,-89.8 1709.16,-89.8"/>
<polygon fill="#63b8ff" stroke="#63b8ff" points="1732.91,-93.3 1742.91,-89.8 1732.91,-86.3 1732.91,-93.3"/>
</a>
</g>
</g>
</g>
</svg>

<g id="navigator" transform="translate(0 0)" fill="#404254">
  <rect fill="#f2f5e9" fill-opacity="0.5" stroke="#606060" stroke-width=".5" x="0" y="0" width="60" height="60"/>
  <use id="zoomplus" xlink:href="#zoomPlus" x="17" y="9" onmousedown="handleZoom(evt,'in')"/>
  <use id="zoomminus" xlink:href="#zoomMin" x="42" y="9" onmousedown="handleZoom(evt,'out')"/>
  <use id="reset" xlink:href="#resetDef" x="30" y="36" onmousedown="handleReset()"/>
   <use id="arrowup" xlink:href="#arrowUp" x="0" y="0" onmousedown="handlePan(0,-1)"/>
  <use id="arrowright" xlink:href="#arrowRight" x="0" y="0" onmousedown="handlePan(1,0)"/>
  <use id="arrowdown" xlink:href="#arrowDown" x="0" y="0" onmousedown="handlePan(0,1)"/>
  <use id="arrowleft" xlink:href="#arrowLeft" x="0" y="0" onmousedown="handlePan(-1,0)"/>
</g>
<svg viewBox="0 0 15 15" width="100%" height="30px" preserveAspectRatio="xMaxYMin meet">
 <g id="arrow_out" transform="scale(0.3 0.3)">
  <a xlink:href="class_basic_element_a482ffd2c58ecdc8bba5bfeaadf8f26d4_icgraph_org.svg" target="_base">
   <rect id="button" ry="5" rx="5" y="6" x="6" height="38" width="38"
        fill="#f2f5e9" fill-opacity="0.5" stroke="#606060" stroke-width="1.0"/>
   <path id="arrow"
     d="M 11.500037,31.436501 C 11.940474,20.09759 22.043105,11.32322 32.158766,21.979434 L 37.068811,17.246167 C 37.068811,17.246167 37.088388,32 37.088388,32 L 22.160133,31.978069 C 22.160133,31.978069 26.997745,27.140456 26.997745,27.140456 C 18.528582,18.264221 13.291696,25.230495 11.500037,31.436501 z"
     style="fill:#404040;"/>
  </a>
 </g>
</svg>

<style type='text/css'>
<![CDATA[
[data-mouse-over-selected='false'] { opacity: 0.7; }
[data-mouse-over-selected='true']  { opacity: 1.0; }
]]>
</style>
<script type="application/ecmascript"><![CDATA[
document.addEventListener('DOMContentLoaded', (event) => {
  highlightEdges();
  highlightAdjacentNodes();
});
]]></script>
</svg>
