<?xml version="1.0" encoding="UTF-8" standalone="no"?>
<!DOCTYPE svg PUBLIC "-//W3C//DTD SVG 1.1//EN"
 "http://www.w3.org/Graphics/SVG/1.1/DTD/svg11.dtd">
<!-- Generated by graphviz version 14.1.1 (20251213.1925)
 -->
<!-- Title: Relationship::deserialize Pages: 1 -->
<svg width="304pt" height="154pt"
 viewBox="0.00 0.00 304.00 154.00" xmlns="http://www.w3.org/2000/svg" xmlns:xlink="http://www.w3.org/1999/xlink">

<svg id="main" version="1.1" xmlns="http://www.w3.org/2000/svg" xmlns:xlink="http://www.w3.org/1999/xlink" xml:space="preserve">

<style type="text/css"><![CDATA[
.node, .edge {opacity: 0.7;}
.node.selected, .edge.selected {opacity: 1;}
.edge:hover path { stroke: red; }
.edge:hover polygon { stroke: red; fill: red; }
]]></style>
<script type="application/ecmascript" xlink:href="svg.min.js"/>
<svg id="graph" class="graph">
<g id="graph0" class="graph" transform="scale(1 1) rotate(0) translate(4 150)">
<title>Relationship::deserialize</title>
<!-- Node1 -->
<g id="Node000001" class="node">
<title>Node1</title>
<g id="a_Node000001"><a xlink:title=" ">
<polygon fill="#999999" stroke="#666666" points="122.5,-80 0,-80 0,-60 122.5,-60 122.5,-80"/>
<text xml:space="preserve" text-anchor="middle" x="61.25" y="-66.5" font-family="Helvetica,sans-Serif" font-size="10.00">Relationship::deserialize</text>
</a>
</g>
</g>
<!-- Node2 -->
<g id="Node000002" class="node">
<title>Node2</title>
<g id="a_Node000002"><a xlink:href="class_relationship.html#a7a5fe6fae3aa588c0bc1f766d55d983e" target="_top" xlink:title=" ">
<polygon fill="white" stroke="#666666" points="281.75,-146 172.75,-146 172.75,-126 281.75,-126 281.75,-146"/>
<text xml:space="preserve" text-anchor="middle" x="227.25" y="-132.5" font-family="Helvetica,sans-Serif" font-size="10.00">Relationship::addEnd</text>
</a>
</g>
</g>
<!-- Node1&#45;&gt;Node2 -->
<g id="edge1_Node000001_Node000002" class="edge">
<title>Node1&#45;&gt;Node2</title>
<g id="a_edge1_Node000001_Node000002"><a xlink:title=" ">
<path fill="none" stroke="#63b8ff" d="M80.97,-80.4C100.05,-90.7 130.69,-106.41 158.5,-117 163.38,-118.86 168.52,-120.63 173.7,-122.28"/>
<polygon fill="#63b8ff" stroke="#63b8ff" points="172.27,-125.5 182.85,-125.07 174.31,-118.81 172.27,-125.5"/>
</a>
</g>
</g>
<!-- Node3 -->
<g id="Node000003" class="node">
<title>Node3</title>
<g id="a_Node000003"><a xlink:href="class_relationship_end.html#ae60260b5521feb7cc4c0014fbc704426" target="_top" xlink:title=" ">
<polygon fill="white" stroke="#666666" points="296,-108 158.5,-108 158.5,-76 296,-76 296,-108"/>
<text xml:space="preserve" text-anchor="start" x="166.5" y="-94.5" font-family="Helvetica,sans-Serif" font-size="10.00">RelationshipEnd::cardinality</text>
<text xml:space="preserve" text-anchor="middle" x="227.25" y="-82.5" font-family="Helvetica,sans-Serif" font-size="10.00">FromString</text>
</a>
</g>
</g>
<!-- Node1&#45;&gt;Node3 -->
<g id="edge2_Node000001_Node000003" class="edge">
<title>Node1&#45;&gt;Node3</title>
<g id="a_edge2_Node000001_Node000003"><a xlink:title=" ">
<path fill="none" stroke="#63b8ff" d="M122.85,-78.13C130.67,-79.18 138.76,-80.26 146.82,-81.34"/>
<polygon fill="#63b8ff" stroke="#63b8ff" points="146.28,-84.8 156.66,-82.66 147.21,-77.87 146.28,-84.8"/>
</a>
</g>
</g>
<!-- Node4 -->
<g id="Node000004" class="node">
<title>Node4</title>
<g id="a_Node000004"><a xlink:href="class_relationship.html#a6ab176617d7183a41cee95a1d2d0348f" target="_top" xlink:title=" ">
<polygon fill="white" stroke="#666666" points="287,-58 167.5,-58 167.5,-38 287,-38 287,-58"/>
<text xml:space="preserve" text-anchor="middle" x="227.25" y="-44.5" font-family="Helvetica,sans-Serif" font-size="10.00">Relationship::clearEnds</text>
</a>
</g>
</g>
<!-- Node1&#45;&gt;Node4 -->
<g id="edge3_Node000001_Node000004" class="edge">
<title>Node1&#45;&gt;Node4</title>
<g id="a_edge3_Node000001_Node000004"><a xlink:title=" ">
<path fill="none" stroke="#63b8ff" d="M122.85,-61.87C133.62,-60.43 144.92,-58.91 155.93,-57.43"/>
<polygon fill="#63b8ff" stroke="#63b8ff" points="156.32,-60.91 165.76,-56.11 155.39,-53.97 156.32,-60.91"/>
</a>
</g>
</g>
<!-- Node5 -->
<g id="Node000005" class="node">
<title>Node5</title>
<g id="a_Node000005"><a xlink:href="class_basic_element.html#a2584be00dd464aa45874efe1615abbed" target="_top" xlink:title=" ">
<polygon fill="white" stroke="#666666" points="291.88,-20 162.62,-20 162.62,0 291.88,0 291.88,-20"/>
<text xml:space="preserve" text-anchor="middle" x="227.25" y="-6.5" font-family="Helvetica,sans-Serif" font-size="10.00">BasicElement::deserialize</text>
</a>
</g>
</g>
<!-- Node1&#45;&gt;Node5 -->
<g id="edge4_Node000001_Node000005" class="edge">
<title>Node1&#45;&gt;Node5</title>
<g id="a_edge4_Node000001_Node000005"><a xlink:title=" ">
<path fill="none" stroke="#63b8ff" d="M84.49,-59.56C103.79,-50.73 132.63,-38.1 158.5,-29 163.84,-27.12 169.46,-25.3 175.09,-23.58"/>
<polygon fill="#63b8ff" stroke="#63b8ff" points="175.81,-27.02 184.41,-20.83 173.83,-20.31 175.81,-27.02"/>
</a>
</g>
</g>
</g>
</svg>
</svg>

<style type='text/css'>
<![CDATA[
[data-mouse-over-selected='false'] { opacity: 0.7; }
[data-mouse-over-selected='true']  { opacity: 1.0; }
]]>
</style>
<script type="application/ecmascript"><![CDATA[
document.addEventListener('DOMContentLoaded', (event) => {
  highlightEdges();
  highlightAdjacentNodes();
});
]]></script>
</svg>
