<?xml version="1.0" encoding="UTF-8" standalone="no"?>
<!DOCTYPE svg PUBLIC "-//W3C//DTD SVG 1.1//EN"
 "http://www.w3.org/Graphics/SVG/1.1/DTD/svg11.dtd">
<!-- Generated by graphviz version 14.1.1 (20251213.1925)
 -->
<!-- Title: MainWindow::saveAsFile Pages: 1 -->
<svg width="1130pt" height="142pt"
 viewBox="0.00 0.00 1130.00 142.00" xmlns="http://www.w3.org/2000/svg" xmlns:xlink="http://www.w3.org/1999/xlink">
<g id="graph0" class="graph" transform="scale(1 1) rotate(0) translate(4 138)">
<title>MainWindow::saveAsFile</title>
<!-- Node1 -->
<g id="Node000001" class="node">
<title>Node1</title>
<g id="a_Node000001"><a xlink:title=" ">
<polygon fill="#999999" stroke="#666666" points="1121.5,-134 994.5,-134 994.5,-114 1121.5,-114 1121.5,-134"/>
<text xml:space="preserve" text-anchor="middle" x="1058" y="-120.5" font-family="Helvetica,sans-Serif" font-size="10.00">MainWindow::saveAsFile</text>
</a>
</g>
</g>
<!-- Node2 -->
<g id="Node000002" class="node">
<title>Node2</title>
<g id="a_Node000002"><a xlink:href="class_main_window.html#aaf455232cccaa422fc4c371fa99bff84" target="_top" xlink:title=" ">
<polygon fill="white" stroke="#666666" points="644.5,-96 499.5,-96 499.5,-76 644.5,-76 644.5,-96"/>
<text xml:space="preserve" text-anchor="middle" x="572" y="-82.5" font-family="Helvetica,sans-Serif" font-size="10.00">MainWindow::createFileMenu</text>
</a>
</g>
</g>
<!-- Node1&#45;&gt;Node2 -->
<g id="edge1_Node000001_Node000002" class="edge">
<title>Node1&#45;&gt;Node2</title>
<g id="a_edge1_Node000001_Node000002"><a xlink:title=" ">
<path fill="none" stroke="#63b8ff" d="M982.83,-130.05C906.49,-134.74 784.36,-137.91 680.5,-121 651.25,-116.24 619.1,-104.92 597.66,-96.43"/>
<polygon fill="#63b8ff" stroke="#63b8ff" points="982.95,-133.55 992.71,-129.42 982.5,-126.57 982.95,-133.55"/>
</a>
</g>
</g>
<!-- Node6 -->
<g id="Node000006" class="node">
<title>Node6</title>
<g id="a_Node000006"><a xlink:href="class_main_window.html#a464aaa4d378e7b2d814756a73d6e1ed6" target="_top" xlink:title=" ">
<polygon fill="white" stroke="#666666" points="958.5,-96 843.5,-96 843.5,-76 958.5,-76 958.5,-96"/>
<text xml:space="preserve" text-anchor="middle" x="901" y="-82.5" font-family="Helvetica,sans-Serif" font-size="10.00">MainWindow::saveFile</text>
</a>
</g>
</g>
<!-- Node1&#45;&gt;Node6 -->
<g id="edge5_Node000001_Node000006" class="edge">
<title>Node1&#45;&gt;Node6</title>
<g id="a_edge5_Node000001_Node000006"><a xlink:title=" ">
<path fill="none" stroke="#63b8ff" d="M1003.23,-110.82C984.06,-106.12 962.74,-100.89 944.63,-96.45"/>
<polygon fill="#63b8ff" stroke="#63b8ff" points="1002.22,-114.17 1012.77,-113.16 1003.89,-107.37 1002.22,-114.17"/>
</a>
</g>
</g>
<!-- Node3 -->
<g id="Node000003" class="node">
<title>Node3</title>
<g id="a_Node000003"><a xlink:href="class_main_window.html#a2305527bb5d827ae07967ea1c86ee6fb" target="_top" xlink:title=" ">
<polygon fill="white" stroke="#666666" points="463.5,-96 319.25,-96 319.25,-76 463.5,-76 463.5,-96"/>
<text xml:space="preserve" text-anchor="middle" x="391.38" y="-82.5" font-family="Helvetica,sans-Serif" font-size="10.00">MainWindow::createMenuBar</text>
</a>
</g>
</g>
<!-- Node2&#45;&gt;Node3 -->
<g id="edge2_Node000002_Node000003" class="edge">
<title>Node2&#45;&gt;Node3</title>
<g id="a_edge2_Node000002_Node000003"><a xlink:title=" ">
<path fill="none" stroke="#63b8ff" d="M487.84,-86C479.81,-86 471.72,-86 463.82,-86"/>
<polygon fill="#63b8ff" stroke="#63b8ff" points="487.6,-89.5 497.6,-86 487.6,-82.5 487.6,-89.5"/>
</a>
</g>
</g>
<!-- Node4 -->
<g id="Node000004" class="node">
<title>Node4</title>
<g id="a_Node000004"><a xlink:href="class_main_window.html#a3a304253c9e7caeef028f75358bf1fd5" target="_top" xlink:title=" ">
<polygon fill="white" stroke="#666666" points="283.25,-96 170.5,-96 170.5,-76 283.25,-76 283.25,-96"/>
<text xml:space="preserve" text-anchor="middle" x="226.88" y="-82.5" font-family="Helvetica,sans-Serif" font-size="10.00">MainWindow::setupUI</text>
</a>
</g>
</g>
<!-- Node3&#45;&gt;Node4 -->
<g id="edge3_Node000003_Node000004" class="edge">
<title>Node3&#45;&gt;Node4</title>
<g id="a_edge3_Node000003_Node000004"><a xlink:title=" ">
<path fill="none" stroke="#63b8ff" d="M307.85,-86C299.59,-86 291.35,-86 283.46,-86"/>
<polygon fill="#63b8ff" stroke="#63b8ff" points="307.59,-89.5 317.59,-86 307.59,-82.5 307.59,-89.5"/>
</a>
</g>
</g>
<!-- Node5 -->
<g id="Node000005" class="node">
<title>Node5</title>
<g id="a_Node000005"><a xlink:href="class_main_window.html#a996c5a2b6f77944776856f08ec30858d" target="_top" xlink:title=" ">
<polygon fill="white" stroke="#666666" points="134.5,-96 0,-96 0,-76 134.5,-76 134.5,-96"/>
<text xml:space="preserve" text-anchor="middle" x="67.25" y="-82.5" font-family="Helvetica,sans-Serif" font-size="10.00">MainWindow::MainWindow</text>
</a>
</g>
</g>
<!-- Node4&#45;&gt;Node5 -->
<g id="edge4_Node000004_Node000005" class="edge">
<title>Node4&#45;&gt;Node5</title>
<g id="a_edge4_Node000004_Node000005"><a xlink:title=" ">
<path fill="none" stroke="#63b8ff" d="M158.85,-86C150.93,-86 142.85,-86 134.94,-86"/>
<polygon fill="#63b8ff" stroke="#63b8ff" points="158.79,-89.5 168.79,-86 158.79,-82.5 158.79,-89.5"/>
</a>
</g>
</g>
<!-- Node6&#45;&gt;Node2 -->
<g id="edge7_Node000006_Node000002" class="edge">
<title>Node6&#45;&gt;Node2</title>
<g id="a_edge7_Node000006_Node000002"><a xlink:title=" ">
<path fill="none" stroke="#63b8ff" d="M847.29,-98.75C834.36,-101.34 820.49,-103.68 807.5,-105 751.34,-110.71 736.73,-109.93 680.5,-105 661.15,-103.3 640.06,-99.92 621.73,-96.47"/>
<polygon fill="#63b8ff" stroke="#63b8ff" points="847.83,-102.21 856.89,-96.73 846.39,-95.36 847.83,-102.21"/>
</a>
</g>
</g>
<!-- Node7 -->
<g id="Node000007" class="node">
<title>Node7</title>
<g id="a_Node000007"><a xlink:href="class_main_window.html#a05fb9d72c044aa3bb7d187b994704e2f" target="_top" xlink:title=" ">
<polygon fill="white" stroke="#666666" points="807.5,-96 680.5,-96 680.5,-76 807.5,-76 807.5,-96"/>
<text xml:space="preserve" text-anchor="middle" x="744" y="-82.5" font-family="Helvetica,sans-Serif" font-size="10.00">MainWindow::closeEvent</text>
</a>
</g>
</g>
<!-- Node6&#45;&gt;Node7 -->
<g id="edge6_Node000006_Node000007" class="edge">
<title>Node6&#45;&gt;Node7</title>
<g id="a_edge6_Node000006_Node000007"><a xlink:title=" ">
<path fill="none" stroke="#63b8ff" d="M831.68,-86C823.75,-86 815.69,-86 807.84,-86"/>
<polygon fill="#63b8ff" stroke="#63b8ff" points="831.65,-89.5 841.65,-86 831.65,-82.5 831.65,-89.5"/>
</a>
</g>
</g>
<!-- Node8 -->
<g id="Node000008" class="node">
<title>Node8</title>
<g id="a_Node000008"><a xlink:href="class_main_window.html#a69f73b93cc05c89a9ae1be0161105982" target="_top" xlink:title=" ">
<polygon fill="white" stroke="#666666" points="800,-58 688,-58 688,-38 800,-38 800,-58"/>
<text xml:space="preserve" text-anchor="middle" x="744" y="-44.5" font-family="Helvetica,sans-Serif" font-size="10.00">MainWindow::newFile</text>
</a>
</g>
</g>
<!-- Node6&#45;&gt;Node8 -->
<g id="edge8_Node000006_Node000008" class="edge">
<title>Node6&#45;&gt;Node8</title>
<g id="a_edge8_Node000006_Node000008"><a xlink:title=" ">
<path fill="none" stroke="#63b8ff" d="M846.23,-72.82C827.06,-68.12 805.74,-62.89 787.63,-58.45"/>
<polygon fill="#63b8ff" stroke="#63b8ff" points="845.22,-76.17 855.77,-75.16 846.89,-69.37 845.22,-76.17"/>
</a>
</g>
</g>
<!-- Node9 -->
<g id="Node000009" class="node">
<title>Node9</title>
<g id="a_Node000009"><a xlink:href="class_main_window.html#a288b768c3c21a9171bdc56fe845ece8b" target="_top" xlink:title=" ">
<polygon fill="white" stroke="#666666" points="801.5,-20 686.5,-20 686.5,0 801.5,0 801.5,-20"/>
<text xml:space="preserve" text-anchor="middle" x="744" y="-6.5" font-family="Helvetica,sans-Serif" font-size="10.00">MainWindow::openFile</text>
</a>
</g>
</g>
<!-- Node6&#45;&gt;Node9 -->
<g id="edge10_Node000006_Node000009" class="edge">
<title>Node6&#45;&gt;Node9</title>
<g id="a_edge10_Node000006_Node000009"><a xlink:title=" ">
<path fill="none" stroke="#63b8ff" d="M876.7,-69.3C858.54,-56.87 832.31,-40.19 807.5,-29 800.37,-25.78 792.54,-22.92 784.91,-20.45"/>
<polygon fill="#63b8ff" stroke="#63b8ff" points="874.45,-72 884.66,-74.84 878.45,-66.26 874.45,-72"/>
</a>
</g>
</g>
<!-- Node8&#45;&gt;Node2 -->
<g id="edge9_Node000008_Node000002" class="edge">
<title>Node8&#45;&gt;Node2</title>
<g id="a_edge9_Node000008_Node000002"><a xlink:title=" ">
<path fill="none" stroke="#63b8ff" d="M684.91,-60.98C663.65,-65.74 639.89,-71.05 619.75,-75.55"/>
<polygon fill="#63b8ff" stroke="#63b8ff" points="685.62,-64.41 694.62,-58.81 684.1,-57.58 685.62,-64.41"/>
</a>
</g>
</g>
<!-- Node9&#45;&gt;Node2 -->
<g id="edge11_Node000009_Node000002" class="edge">
<title>Node9&#45;&gt;Node2</title>
<g id="a_edge11_Node000009_Node000002"><a xlink:title=" ">
<path fill="none" stroke="#63b8ff" d="M693.91,-23.93C689.34,-25.53 684.8,-27.22 680.5,-29 647.3,-42.7 610.79,-63.34 590.01,-75.66"/>
<polygon fill="#63b8ff" stroke="#63b8ff" points="694.75,-27.34 703.14,-20.88 692.55,-20.7 694.75,-27.34"/>
</a>
</g>
</g>
</g>
</svg>
