<?xml version="1.0" encoding="UTF-8" standalone="no"?>
<!DOCTYPE svg PUBLIC "-//W3C//DTD SVG 1.1//EN"
 "http://www.w3.org/Graphics/SVG/1.1/DTD/svg11.dtd">
<!-- Generated by graphviz version 14.1.1 (20251213.1925)
 -->
<!-- Title: ConnectionGraphicsItem Pages: 1 -->
<!--zoomable 1579 -->

<svg id="main" version="1.1" xmlns="http://www.w3.org/2000/svg" xmlns:xlink="http://www.w3.org/1999/xlink" xml:space="preserve" onload="init(evt)">

<style type="text/css"><![CDATA[
.node, .edge {opacity: 0.7;}
.node.selected, .edge.selected {opacity: 1;}
.edge:hover path { stroke: red; }
.edge:hover polygon { stroke: red; fill: red; }
]]></style>

<defs>
  <circle id="rim" cx="0" cy="0" r="7"/>
  <circle id="rim2" cx="0" cy="0" r="3.5"/>
  <g id="zoomPlus">
    <use xlink:href="#rim" fill="#404040"><set attributeName="fill" to="#808080" begin="zoomplus.mouseover" end="zoomplus.mouseout"/></use>
    <path d="M-4,0h8M0,-4v8" fill="none" stroke="white" stroke-width="1.5" pointer-events="none"/>
  </g>
  <g id="zoomMin">
    <use xlink:href="#rim" fill="#404040"><set attributeName="fill" to="#808080" begin="zoomminus.mouseover" end="zoomminus.mouseout"/></use>
    <path d="M-4,0h8" fill="none" stroke="white" stroke-width="1.5" pointer-events="none"/>
  </g>
  <g id="arrowUp" transform="translate(30 24)">
    <use xlink:href="#rim"/>
    <path pointer-events="none" fill="none" stroke="white" stroke-width="1.5" d="M0,-3.0v7 M-2.5,-0.5L0,-3.0L2.5,-0.5"/>
  </g>
  <g id="arrowRight" transform="rotate(90) translate(36 -43)">
    <use xlink:href="#rim"/>
    <path pointer-events="none" fill="none" stroke="white" stroke-width="1.5" d="M0,-3.0v7 M-2.5,-0.5L0,-3.0L2.5,-0.5"/>
  </g>
  <g id="arrowDown" transform="rotate(180) translate(-30 -48)">
    <use xlink:href="#rim"/>
    <path pointer-events="none" fill="none" stroke="white" stroke-width="1.5" d="M0,-3.0v7 M-2.5,-0.5L0,-3.0L2.5,-0.5"/>
  </g>
  <g id="arrowLeft" transform="rotate(270) translate(-36 17)">
    <use xlink:href="#rim"/>
    <path pointer-events="none" fill="none" stroke="white" stroke-width="1.5" d="M0,-3.0v7 M-2.5,-0.5L0,-3.0L2.5,-0.5"/>
  </g>
  <g id="resetDef">
    <use xlink:href="#rim2" fill="#404040"><set attributeName="fill" to="#808080" begin="reset.mouseover" end="reset.mouseout"/></use>
  </g>
</defs>
<script type="application/ecmascript">
var viewWidth = 369;
var viewHeight = 1579;
var sectionId = 'dynsection-1';
</script>
<script type="application/ecmascript" xlink:href="svg.min.js"/>
<svg id="graph" class="graph">
<g id="viewport">
<title>ConnectionGraphicsItem</title>
<!-- Node1 -->
<g id="Node000001" class="node">
<title>Node1</title>
<g id="a_Node000001"><a xlink:title=" ">
<polygon fill="#999999" stroke="none" points="269.88,-630 121.38,-630 121.38,-234 269.88,-234 269.88,-630"/>
<text xml:space="preserve" text-anchor="start" x="141.62" y="-616.5" font-family="Helvetica,sans-Serif" font-size="10.00">ConnectionGraphicsItem</text>
<text xml:space="preserve" text-anchor="start" x="126.88" y="-600.5" font-family="Helvetica,sans-Serif" font-size="10.00">&#45;</text>
<text xml:space="preserve" text-anchor="start" x="135.38" y="-600.5" font-family="Helvetica,sans-Serif" font-size="10.00">m_isHovered</text>
<text xml:space="preserve" text-anchor="start" x="125.38" y="-584.5" font-family="Helvetica,sans-Serif" font-size="10.00">+</text>
<text xml:space="preserve" text-anchor="start" x="135.38" y="-584.5" font-family="Helvetica,sans-Serif" font-size="10.00">ConnectionGraphicsItem()</text>
<text xml:space="preserve" text-anchor="start" x="125.38" y="-568.5" font-family="Helvetica,sans-Serif" font-size="10.00">+</text>
<text xml:space="preserve" text-anchor="start" x="135.38" y="-568.5" font-family="Helvetica,sans-Serif" font-size="10.00">~ConnectionGraphicsItem()</text>
<text xml:space="preserve" text-anchor="start" x="125.38" y="-552.5" font-family="Helvetica,sans-Serif" font-size="10.00">+</text>
<text xml:space="preserve" text-anchor="start" x="135.38" y="-552.5" font-family="Helvetica,sans-Serif" font-size="10.00">boundingRect()</text>
<text xml:space="preserve" text-anchor="start" x="125.38" y="-536.5" font-family="Helvetica,sans-Serif" font-size="10.00">+</text>
<text xml:space="preserve" text-anchor="start" x="135.38" y="-536.5" font-family="Helvetica,sans-Serif" font-size="10.00">paint()</text>
<text xml:space="preserve" text-anchor="start" x="125.38" y="-520.5" font-family="Helvetica,sans-Serif" font-size="10.00">+</text>
<text xml:space="preserve" text-anchor="start" x="135.38" y="-520.5" font-family="Helvetica,sans-Serif" font-size="10.00">shape()</text>
<text xml:space="preserve" text-anchor="start" x="125.38" y="-504.5" font-family="Helvetica,sans-Serif" font-size="10.00">+</text>
<text xml:space="preserve" text-anchor="start" x="135.38" y="-504.5" font-family="Helvetica,sans-Serif" font-size="10.00">updateControlPointPosition()</text>
<text xml:space="preserve" text-anchor="start" x="125.38" y="-488.5" font-family="Helvetica,sans-Serif" font-size="10.00">+</text>
<text xml:space="preserve" text-anchor="start" x="135.38" y="-488.5" font-family="Helvetica,sans-Serif" font-size="10.00">setSelected()</text>
<text xml:space="preserve" text-anchor="start" x="125.75" y="-472.5" font-family="Helvetica,sans-Serif" font-size="10.00">#</text>
<text xml:space="preserve" text-anchor="start" x="135.38" y="-472.5" font-family="Helvetica,sans-Serif" font-size="10.00">mousePressEvent()</text>
<text xml:space="preserve" text-anchor="start" x="125.75" y="-456.5" font-family="Helvetica,sans-Serif" font-size="10.00">#</text>
<text xml:space="preserve" text-anchor="start" x="135.38" y="-456.5" font-family="Helvetica,sans-Serif" font-size="10.00">hoverEnterEvent()</text>
<text xml:space="preserve" text-anchor="start" x="125.75" y="-440.5" font-family="Helvetica,sans-Serif" font-size="10.00">#</text>
<text xml:space="preserve" text-anchor="start" x="135.38" y="-440.5" font-family="Helvetica,sans-Serif" font-size="10.00">hoverLeaveEvent()</text>
<text xml:space="preserve" text-anchor="start" x="126.88" y="-424.5" font-family="Helvetica,sans-Serif" font-size="10.00">&#45;</text>
<text xml:space="preserve" text-anchor="start" x="135.38" y="-424.5" font-family="Helvetica,sans-Serif" font-size="10.00">createStraightPath()</text>
<text xml:space="preserve" text-anchor="start" x="126.88" y="-408.5" font-family="Helvetica,sans-Serif" font-size="10.00">&#45;</text>
<text xml:space="preserve" text-anchor="start" x="135.38" y="-408.5" font-family="Helvetica,sans-Serif" font-size="10.00">createOrthogonalPath()</text>
<text xml:space="preserve" text-anchor="start" x="126.88" y="-392.5" font-family="Helvetica,sans-Serif" font-size="10.00">&#45;</text>
<text xml:space="preserve" text-anchor="start" x="135.38" y="-392.5" font-family="Helvetica,sans-Serif" font-size="10.00">createBezierPath()</text>
<text xml:space="preserve" text-anchor="start" x="126.88" y="-376.5" font-family="Helvetica,sans-Serif" font-size="10.00">&#45;</text>
<text xml:space="preserve" text-anchor="start" x="135.38" y="-376.5" font-family="Helvetica,sans-Serif" font-size="10.00">createSimpleOrthogonalPath()</text>
<text xml:space="preserve" text-anchor="start" x="126.88" y="-360.5" font-family="Helvetica,sans-Serif" font-size="10.00">&#45;</text>
<text xml:space="preserve" text-anchor="start" x="135.38" y="-360.5" font-family="Helvetica,sans-Serif" font-size="10.00">createOrthogonalPathWith</text>
<text xml:space="preserve" text-anchor="start" x="135.38" y="-348.5" font-family="Helvetica,sans-Serif" font-size="10.00">Directions()</text>
<text xml:space="preserve" text-anchor="start" x="126.88" y="-332.5" font-family="Helvetica,sans-Serif" font-size="10.00">&#45;</text>
<text xml:space="preserve" text-anchor="start" x="135.38" y="-332.5" font-family="Helvetica,sans-Serif" font-size="10.00">calculateControlPointFrom</text>
<text xml:space="preserve" text-anchor="start" x="135.38" y="-320.5" font-family="Helvetica,sans-Serif" font-size="10.00">Direction()</text>
<text xml:space="preserve" text-anchor="start" x="126.88" y="-304.5" font-family="Helvetica,sans-Serif" font-size="10.00">&#45;</text>
<text xml:space="preserve" text-anchor="start" x="135.38" y="-304.5" font-family="Helvetica,sans-Serif" font-size="10.00">connectToConnection()</text>
<text xml:space="preserve" text-anchor="start" x="126.88" y="-288.5" font-family="Helvetica,sans-Serif" font-size="10.00">&#45;</text>
<text xml:space="preserve" text-anchor="start" x="135.38" y="-288.5" font-family="Helvetica,sans-Serif" font-size="10.00">disconnectFromConnection()</text>
<text xml:space="preserve" text-anchor="start" x="126.88" y="-272.5" font-family="Helvetica,sans-Serif" font-size="10.00">&#45;</text>
<text xml:space="preserve" text-anchor="start" x="135.38" y="-272.5" font-family="Helvetica,sans-Serif" font-size="10.00">createControlPoints()</text>
<text xml:space="preserve" text-anchor="start" x="126.88" y="-256.5" font-family="Helvetica,sans-Serif" font-size="10.00">&#45;</text>
<text xml:space="preserve" text-anchor="start" x="135.38" y="-256.5" font-family="Helvetica,sans-Serif" font-size="10.00">updateControlPointsPosition()</text>
<text xml:space="preserve" text-anchor="start" x="126.88" y="-240.5" font-family="Helvetica,sans-Serif" font-size="10.00">&#45;</text>
<text xml:space="preserve" text-anchor="start" x="135.38" y="-240.5" font-family="Helvetica,sans-Serif" font-size="10.00">updateFromConnection()</text>
<polygon fill="#666666" stroke="#666666" points="121.38,-612 121.38,-612 269.88,-612 269.88,-612 121.38,-612"/>
<polygon fill="#666666" stroke="#666666" points="121.38,-596 121.38,-596 133.38,-596 133.38,-596 121.38,-596"/>
<polygon fill="#666666" stroke="#666666" points="133.38,-596 133.38,-596 269.88,-596 269.88,-596 133.38,-596"/>
<polygon fill="none" stroke="#666666" points="121.38,-234 121.38,-630 269.88,-630 269.88,-234 121.38,-234"/>
</a>
</g>
</g>
<!-- Node6 -->
<g id="Node000006" class="node">
<title>Node6</title>
<g id="a_Node000006"><a xlink:href="class_bezier_control_point.html" target="_top" xlink:title="Interactive control point for Bezier curve manipulation in connections.">
<polygon fill="white" stroke="none" points="142,-164 27.25,-164 27.25,0 142,0 142,-164"/>
<text xml:space="preserve" text-anchor="start" x="43.75" y="-150.5" font-family="Helvetica,sans-Serif" font-size="10.00">BezierControlPoint</text>
<text xml:space="preserve" text-anchor="start" x="32.75" y="-134.5" font-family="Helvetica,sans-Serif" font-size="10.00">&#45;</text>
<text xml:space="preserve" text-anchor="start" x="41.25" y="-134.5" font-family="Helvetica,sans-Serif" font-size="10.00">m_type</text>
<text xml:space="preserve" text-anchor="start" x="32.75" y="-118.5" font-family="Helvetica,sans-Serif" font-size="10.00">&#45;</text>
<text xml:space="preserve" text-anchor="start" x="41.25" y="-118.5" font-family="Helvetica,sans-Serif" font-size="10.00">m_isDragging</text>
<text xml:space="preserve" text-anchor="start" x="31.25" y="-102.5" font-family="Helvetica,sans-Serif" font-size="10.00">+</text>
<text xml:space="preserve" text-anchor="start" x="41.25" y="-102.5" font-family="Helvetica,sans-Serif" font-size="10.00">BezierControlPoint()</text>
<text xml:space="preserve" text-anchor="start" x="31.25" y="-86.5" font-family="Helvetica,sans-Serif" font-size="10.00">+</text>
<text xml:space="preserve" text-anchor="start" x="41.25" y="-86.5" font-family="Helvetica,sans-Serif" font-size="10.00">updatePosition()</text>
<text xml:space="preserve" text-anchor="start" x="31.62" y="-70.5" font-family="Helvetica,sans-Serif" font-size="10.00">#</text>
<text xml:space="preserve" text-anchor="start" x="41.25" y="-70.5" font-family="Helvetica,sans-Serif" font-size="10.00">mousePressEvent()</text>
<text xml:space="preserve" text-anchor="start" x="31.62" y="-54.5" font-family="Helvetica,sans-Serif" font-size="10.00">#</text>
<text xml:space="preserve" text-anchor="start" x="41.25" y="-54.5" font-family="Helvetica,sans-Serif" font-size="10.00">mouseMoveEvent()</text>
<text xml:space="preserve" text-anchor="start" x="31.62" y="-38.5" font-family="Helvetica,sans-Serif" font-size="10.00">#</text>
<text xml:space="preserve" text-anchor="start" x="41.25" y="-38.5" font-family="Helvetica,sans-Serif" font-size="10.00">mouseReleaseEvent()</text>
<text xml:space="preserve" text-anchor="start" x="31.62" y="-22.5" font-family="Helvetica,sans-Serif" font-size="10.00">#</text>
<text xml:space="preserve" text-anchor="start" x="41.25" y="-22.5" font-family="Helvetica,sans-Serif" font-size="10.00">hoverEnterEvent()</text>
<text xml:space="preserve" text-anchor="start" x="31.62" y="-6.5" font-family="Helvetica,sans-Serif" font-size="10.00">#</text>
<text xml:space="preserve" text-anchor="start" x="41.25" y="-6.5" font-family="Helvetica,sans-Serif" font-size="10.00">hoverLeaveEvent()</text>
<polygon fill="#666666" stroke="#666666" points="27.25,-146 27.25,-146 142,-146 142,-146 27.25,-146"/>
<polygon fill="#666666" stroke="#666666" points="27.25,-114 27.25,-114 39.25,-114 39.25,-114 27.25,-114"/>
<polygon fill="#666666" stroke="#666666" points="39.25,-114 39.25,-114 142,-114 142,-114 39.25,-114"/>
<polygon fill="none" stroke="#666666" points="27.25,0 27.25,-164 142,-164 142,0 27.25,0"/>
</a>
</g>
</g>
<!-- Node1&#45;&gt;Node6 -->
<g id="edge9_Node000006_Node000001" class="edge">
<title>Node1&#45;&gt;Node6</title>
<g id="a_edge9_Node000006_Node000001"><a xlink:title=" ">
<path fill="none" stroke="#63b8ff" d="M121.53,-244.8C118.67,-241.08 115.7,-237.48 112.62,-234 102.01,-221.99 89.4,-229.88 81.38,-216 74.47,-204.06 70.97,-190.45 69.65,-176.6"/>
<polygon fill="none" stroke="#63b8ff" points="69.66,-176.75 65.37,-170.95 69.06,-164.76 73.36,-170.56 69.66,-176.75"/>
</a>
</g>
<text xml:space="preserve" text-anchor="start" x="84.38" y="-195.5" font-family="Helvetica,sans-Serif" font-size="10.00" fill="grey">&#45;m_connectionItem</text>
</g>
<!-- Node2 -->
<g id="Node000002" class="node">
<title>Node2</title>
<g id="a_Node000002"><a xlink:title=" ">
<polygon fill="white" stroke="none" points="154.62,-1571 110.62,-1571 110.62,-1519 154.62,-1519 154.62,-1571"/>
<text xml:space="preserve" text-anchor="start" x="114.62" y="-1557.5" font-family="Helvetica,sans-Serif" font-size="10.00">QObject</text>
<text xml:space="preserve" text-anchor="start" x="131.12" y="-1541.5" font-family="Helvetica,sans-Serif" font-size="10.00"> </text>
<text xml:space="preserve" text-anchor="start" x="131.12" y="-1525.5" font-family="Helvetica,sans-Serif" font-size="10.00"> </text>
<polygon fill="#666666" stroke="#666666" points="110.62,-1553 110.62,-1553 154.62,-1553 154.62,-1553 110.62,-1553"/>
<polygon fill="#666666" stroke="#666666" points="110.62,-1537 110.62,-1537 154.62,-1537 154.62,-1537 110.62,-1537"/>
<polygon fill="none" stroke="#666666" points="110.62,-1519 110.62,-1571 154.62,-1571 154.62,-1519 110.62,-1519"/>
</a>
</g>
</g>
<!-- Node2&#45;&gt;Node1 -->
<g id="edge1_Node000001_Node000002" class="edge">
<title>Node2&#45;&gt;Node1</title>
<g id="a_edge1_Node000001_Node000002"><a xlink:title=" ">
<path fill="none" stroke="#63b8ff" d="M127.24,-1507.88C110.48,-1389.05 63.34,-999.83 113.62,-684 116.45,-666.23 120.34,-648.01 124.9,-629.89"/>
<polygon fill="none" stroke="#63b8ff" points="123.75,-1508.25 128.63,-1517.65 130.68,-1507.26 123.75,-1508.25"/>
</a>
</g>
</g>
<!-- Node4 -->
<g id="Node000004" class="node">
<title>Node4</title>
<g id="a_Node000004"><a xlink:href="class_connection_line.html" target="_top" xlink:title=" ">
<polygon fill="white" stroke="none" points="268.38,-1136 122.88,-1136 122.88,-684 268.38,-684 268.38,-1136"/>
<text xml:space="preserve" text-anchor="start" x="161.88" y="-1122.5" font-family="Helvetica,sans-Serif" font-size="10.00">ConnectionLine</text>
<text xml:space="preserve" text-anchor="start" x="126.88" y="-1106.5" font-family="Helvetica,sans-Serif" font-size="10.00">+</text>
<text xml:space="preserve" text-anchor="start" x="136.88" y="-1106.5" font-family="Helvetica,sans-Serif" font-size="10.00">id</text>
<text xml:space="preserve" text-anchor="start" x="126.88" y="-1090.5" font-family="Helvetica,sans-Serif" font-size="10.00">+</text>
<text xml:space="preserve" text-anchor="start" x="136.88" y="-1090.5" font-family="Helvetica,sans-Serif" font-size="10.00">startPoint</text>
<text xml:space="preserve" text-anchor="start" x="126.88" y="-1074.5" font-family="Helvetica,sans-Serif" font-size="10.00">+</text>
<text xml:space="preserve" text-anchor="start" x="136.88" y="-1074.5" font-family="Helvetica,sans-Serif" font-size="10.00">endPoint</text>
<text xml:space="preserve" text-anchor="start" x="126.88" y="-1058.5" font-family="Helvetica,sans-Serif" font-size="10.00">+</text>
<text xml:space="preserve" text-anchor="start" x="136.88" y="-1058.5" font-family="Helvetica,sans-Serif" font-size="10.00">lineType</text>
<text xml:space="preserve" text-anchor="start" x="128.38" y="-1042.5" font-family="Helvetica,sans-Serif" font-size="10.00">&#45;</text>
<text xml:space="preserve" text-anchor="start" x="136.88" y="-1042.5" font-family="Helvetica,sans-Serif" font-size="10.00">m_id</text>
<text xml:space="preserve" text-anchor="start" x="128.38" y="-1026.5" font-family="Helvetica,sans-Serif" font-size="10.00">&#45;</text>
<text xml:space="preserve" text-anchor="start" x="136.88" y="-1026.5" font-family="Helvetica,sans-Serif" font-size="10.00">m_lineType</text>
<text xml:space="preserve" text-anchor="start" x="128.38" y="-1010.5" font-family="Helvetica,sans-Serif" font-size="10.00">&#45;</text>
<text xml:space="preserve" text-anchor="start" x="136.88" y="-1010.5" font-family="Helvetica,sans-Serif" font-size="10.00">m_lineWidth</text>
<text xml:space="preserve" text-anchor="start" x="128.38" y="-994.5" font-family="Helvetica,sans-Serif" font-size="10.00">&#45;</text>
<text xml:space="preserve" text-anchor="start" x="136.88" y="-994.5" font-family="Helvetica,sans-Serif" font-size="10.00">m_control1Offset</text>
<text xml:space="preserve" text-anchor="start" x="128.38" y="-978.5" font-family="Helvetica,sans-Serif" font-size="10.00">&#45;</text>
<text xml:space="preserve" text-anchor="start" x="136.88" y="-978.5" font-family="Helvetica,sans-Serif" font-size="10.00">m_control2Offset</text>
<text xml:space="preserve" text-anchor="start" x="128.38" y="-962.5" font-family="Helvetica,sans-Serif" font-size="10.00">&#45;</text>
<text xml:space="preserve" text-anchor="start" x="136.88" y="-962.5" font-family="Helvetica,sans-Serif" font-size="10.00">m_hasCustomControlPoints</text>
<text xml:space="preserve" text-anchor="start" x="126.88" y="-946.5" font-family="Helvetica,sans-Serif" font-size="10.00">+</text>
<text xml:space="preserve" text-anchor="start" x="136.88" y="-946.5" font-family="Helvetica,sans-Serif" font-size="10.00">ConnectionLine()</text>
<text xml:space="preserve" text-anchor="start" x="126.88" y="-930.5" font-family="Helvetica,sans-Serif" font-size="10.00">+</text>
<text xml:space="preserve" text-anchor="start" x="136.88" y="-930.5" font-family="Helvetica,sans-Serif" font-size="10.00">~ConnectionLine()</text>
<text xml:space="preserve" text-anchor="start" x="126.88" y="-914.5" font-family="Helvetica,sans-Serif" font-size="10.00">+</text>
<text xml:space="preserve" text-anchor="start" x="136.88" y="-914.5" font-family="Helvetica,sans-Serif" font-size="10.00">id()</text>
<text xml:space="preserve" text-anchor="start" x="126.88" y="-898.5" font-family="Helvetica,sans-Serif" font-size="10.00">+</text>
<text xml:space="preserve" text-anchor="start" x="136.88" y="-898.5" font-family="Helvetica,sans-Serif" font-size="10.00">startPoint()</text>
<text xml:space="preserve" text-anchor="start" x="126.88" y="-882.5" font-family="Helvetica,sans-Serif" font-size="10.00">+</text>
<text xml:space="preserve" text-anchor="start" x="136.88" y="-882.5" font-family="Helvetica,sans-Serif" font-size="10.00">endPoint()</text>
<text xml:space="preserve" text-anchor="start" x="126.88" y="-866.5" font-family="Helvetica,sans-Serif" font-size="10.00">+</text>
<text xml:space="preserve" text-anchor="start" x="136.88" y="-866.5" font-family="Helvetica,sans-Serif" font-size="10.00">lineType()</text>
<text xml:space="preserve" text-anchor="start" x="126.88" y="-850.5" font-family="Helvetica,sans-Serif" font-size="10.00">+</text>
<text xml:space="preserve" text-anchor="start" x="136.88" y="-850.5" font-family="Helvetica,sans-Serif" font-size="10.00">lineWidth()</text>
<text xml:space="preserve" text-anchor="start" x="126.88" y="-834.5" font-family="Helvetica,sans-Serif" font-size="10.00">+</text>
<text xml:space="preserve" text-anchor="start" x="136.88" y="-834.5" font-family="Helvetica,sans-Serif" font-size="10.00">control1Offset()</text>
<text xml:space="preserve" text-anchor="start" x="126.88" y="-818.5" font-family="Helvetica,sans-Serif" font-size="10.00">+</text>
<text xml:space="preserve" text-anchor="start" x="136.88" y="-818.5" font-family="Helvetica,sans-Serif" font-size="10.00">control2Offset()</text>
<text xml:space="preserve" text-anchor="start" x="126.88" y="-802.5" font-family="Helvetica,sans-Serif" font-size="10.00">+</text>
<text xml:space="preserve" text-anchor="start" x="136.88" y="-802.5" font-family="Helvetica,sans-Serif" font-size="10.00">hasCustomControlPoints()</text>
<text xml:space="preserve" text-anchor="start" x="136.88" y="-786.5" font-family="Helvetica,sans-Serif" font-size="10.00">and 15 more...</text>
<text xml:space="preserve" text-anchor="start" x="126.88" y="-770.5" font-family="Helvetica,sans-Serif" font-size="10.00">+</text>
<text xml:space="preserve" text-anchor="start" x="136.88" y="-770.5" font-family="Helvetica,sans-Serif" font-size="10.00">lineTypeToString()</text>
<text xml:space="preserve" text-anchor="start" x="126.88" y="-754.5" font-family="Helvetica,sans-Serif" font-size="10.00">+</text>
<text xml:space="preserve" text-anchor="start" x="136.88" y="-754.5" font-family="Helvetica,sans-Serif" font-size="10.00">lineTypeFromString()</text>
<text xml:space="preserve" text-anchor="start" x="128.38" y="-738.5" font-family="Helvetica,sans-Serif" font-size="10.00">&#45;</text>
<text xml:space="preserve" text-anchor="start" x="136.88" y="-738.5" font-family="Helvetica,sans-Serif" font-size="10.00">connectToPoints()</text>
<text xml:space="preserve" text-anchor="start" x="128.38" y="-722.5" font-family="Helvetica,sans-Serif" font-size="10.00">&#45;</text>
<text xml:space="preserve" text-anchor="start" x="136.88" y="-722.5" font-family="Helvetica,sans-Serif" font-size="10.00">disconnectFromPoints()</text>
<text xml:space="preserve" text-anchor="start" x="128.38" y="-706.5" font-family="Helvetica,sans-Serif" font-size="10.00">&#45;</text>
<text xml:space="preserve" text-anchor="start" x="136.88" y="-706.5" font-family="Helvetica,sans-Serif" font-size="10.00">onElementPositionChanged()</text>
<text xml:space="preserve" text-anchor="start" x="128.38" y="-690.5" font-family="Helvetica,sans-Serif" font-size="10.00">&#45;</text>
<text xml:space="preserve" text-anchor="start" x="136.88" y="-690.5" font-family="Helvetica,sans-Serif" font-size="10.00">onConnectionPointChanged()</text>
<polygon fill="#666666" stroke="#666666" points="122.88,-1118 122.88,-1118 268.38,-1118 268.38,-1118 122.88,-1118"/>
<polygon fill="#666666" stroke="#666666" points="122.88,-958 122.88,-958 134.88,-958 134.88,-958 122.88,-958"/>
<polygon fill="#666666" stroke="#666666" points="134.88,-958 134.88,-958 268.38,-958 268.38,-958 134.88,-958"/>
<polygon fill="none" stroke="#666666" points="122.88,-684 122.88,-1136 268.38,-1136 268.38,-684 122.88,-684"/>
</a>
</g>
</g>
<!-- Node2&#45;&gt;Node4 -->
<g id="edge4_Node000004_Node000002" class="edge">
<title>Node2&#45;&gt;Node4</title>
<g id="a_edge4_Node000004_Node000002"><a xlink:title=" ">
<path fill="none" stroke="#63b8ff" d="M133.57,-1507.9C135.42,-1445.98 140.39,-1315.63 151.62,-1206 153.96,-1183.21 156.8,-1159.48 159.91,-1135.82"/>
<polygon fill="none" stroke="#63b8ff" points="130.07,-1507.73 133.28,-1517.83 137.07,-1507.93 130.07,-1507.73"/>
</a>
</g>
</g>
<!-- Node5 -->
<g id="Node000005" class="node">
<title>Node5</title>
<g id="a_Node000005"><a xlink:href="class_connection_point.html" target="_top" xlink:title="Represents a connection point on an ERD element for line attachment.">
<polygon fill="white" stroke="none" points="320.5,-1482 160.75,-1482 160.75,-1206 320.5,-1206 320.5,-1482"/>
<text xml:space="preserve" text-anchor="start" x="204.62" y="-1468.5" font-family="Helvetica,sans-Serif" font-size="10.00">ConnectionPoint</text>
<text xml:space="preserve" text-anchor="start" x="164.75" y="-1452.5" font-family="Helvetica,sans-Serif" font-size="10.00">+</text>
<text xml:space="preserve" text-anchor="start" x="174.75" y="-1452.5" font-family="Helvetica,sans-Serif" font-size="10.00">id</text>
<text xml:space="preserve" text-anchor="start" x="164.75" y="-1436.5" font-family="Helvetica,sans-Serif" font-size="10.00">+</text>
<text xml:space="preserve" text-anchor="start" x="174.75" y="-1436.5" font-family="Helvetica,sans-Serif" font-size="10.00">relativePosition</text>
<text xml:space="preserve" text-anchor="start" x="164.75" y="-1420.5" font-family="Helvetica,sans-Serif" font-size="10.00">+</text>
<text xml:space="preserve" text-anchor="start" x="174.75" y="-1420.5" font-family="Helvetica,sans-Serif" font-size="10.00">direction</text>
<text xml:space="preserve" text-anchor="start" x="166.25" y="-1404.5" font-family="Helvetica,sans-Serif" font-size="10.00">&#45;</text>
<text xml:space="preserve" text-anchor="start" x="174.75" y="-1404.5" font-family="Helvetica,sans-Serif" font-size="10.00">m_id</text>
<text xml:space="preserve" text-anchor="start" x="166.25" y="-1388.5" font-family="Helvetica,sans-Serif" font-size="10.00">&#45;</text>
<text xml:space="preserve" text-anchor="start" x="174.75" y="-1388.5" font-family="Helvetica,sans-Serif" font-size="10.00">m_relativePosition</text>
<text xml:space="preserve" text-anchor="start" x="166.25" y="-1372.5" font-family="Helvetica,sans-Serif" font-size="10.00">&#45;</text>
<text xml:space="preserve" text-anchor="start" x="174.75" y="-1372.5" font-family="Helvetica,sans-Serif" font-size="10.00">m_direction</text>
<text xml:space="preserve" text-anchor="start" x="164.75" y="-1356.5" font-family="Helvetica,sans-Serif" font-size="10.00">+</text>
<text xml:space="preserve" text-anchor="start" x="174.75" y="-1356.5" font-family="Helvetica,sans-Serif" font-size="10.00">ConnectionPoint()</text>
<text xml:space="preserve" text-anchor="start" x="164.75" y="-1340.5" font-family="Helvetica,sans-Serif" font-size="10.00">+</text>
<text xml:space="preserve" text-anchor="start" x="174.75" y="-1340.5" font-family="Helvetica,sans-Serif" font-size="10.00">ConnectionPoint()</text>
<text xml:space="preserve" text-anchor="start" x="164.75" y="-1324.5" font-family="Helvetica,sans-Serif" font-size="10.00">+</text>
<text xml:space="preserve" text-anchor="start" x="174.75" y="-1324.5" font-family="Helvetica,sans-Serif" font-size="10.00">~ConnectionPoint()</text>
<text xml:space="preserve" text-anchor="start" x="164.75" y="-1308.5" font-family="Helvetica,sans-Serif" font-size="10.00">+</text>
<text xml:space="preserve" text-anchor="start" x="174.75" y="-1308.5" font-family="Helvetica,sans-Serif" font-size="10.00">id()</text>
<text xml:space="preserve" text-anchor="start" x="164.75" y="-1292.5" font-family="Helvetica,sans-Serif" font-size="10.00">+</text>
<text xml:space="preserve" text-anchor="start" x="174.75" y="-1292.5" font-family="Helvetica,sans-Serif" font-size="10.00">relativePosition()</text>
<text xml:space="preserve" text-anchor="start" x="164.75" y="-1276.5" font-family="Helvetica,sans-Serif" font-size="10.00">+</text>
<text xml:space="preserve" text-anchor="start" x="174.75" y="-1276.5" font-family="Helvetica,sans-Serif" font-size="10.00">direction()</text>
<text xml:space="preserve" text-anchor="start" x="164.75" y="-1260.5" font-family="Helvetica,sans-Serif" font-size="10.00">+</text>
<text xml:space="preserve" text-anchor="start" x="174.75" y="-1260.5" font-family="Helvetica,sans-Serif" font-size="10.00">setRelativePosition()</text>
<text xml:space="preserve" text-anchor="start" x="164.75" y="-1244.5" font-family="Helvetica,sans-Serif" font-size="10.00">+</text>
<text xml:space="preserve" text-anchor="start" x="174.75" y="-1244.5" font-family="Helvetica,sans-Serif" font-size="10.00">absolutePosition()</text>
<text xml:space="preserve" text-anchor="start" x="164.75" y="-1228.5" font-family="Helvetica,sans-Serif" font-size="10.00">+</text>
<text xml:space="preserve" text-anchor="start" x="174.75" y="-1228.5" font-family="Helvetica,sans-Serif" font-size="10.00">createDefaultConnectionPoints()</text>
<text xml:space="preserve" text-anchor="start" x="166.25" y="-1212.5" font-family="Helvetica,sans-Serif" font-size="10.00">&#45;</text>
<text xml:space="preserve" text-anchor="start" x="174.75" y="-1212.5" font-family="Helvetica,sans-Serif" font-size="10.00">addConnectionPoint()</text>
<polygon fill="#666666" stroke="#666666" points="160.75,-1464 160.75,-1464 320.5,-1464 320.5,-1464 160.75,-1464"/>
<polygon fill="#666666" stroke="#666666" points="160.75,-1368 160.75,-1368 172.75,-1368 172.75,-1368 160.75,-1368"/>
<polygon fill="#666666" stroke="#666666" points="172.75,-1368 172.75,-1368 320.5,-1368 320.5,-1368 172.75,-1368"/>
<polygon fill="none" stroke="#666666" points="160.75,-1206 160.75,-1482 320.5,-1482 320.5,-1206 160.75,-1206"/>
</a>
</g>
</g>
<!-- Node2&#45;&gt;Node5 -->
<g id="edge6_Node000005_Node000002" class="edge">
<title>Node2&#45;&gt;Node5</title>
<g id="a_edge6_Node000005_Node000002"><a xlink:title=" ">
<path fill="none" stroke="#63b8ff" d="M151.47,-1509.28C155.98,-1500.96 161.07,-1491.58 166.48,-1481.62"/>
<polygon fill="none" stroke="#63b8ff" points="148.5,-1507.41 146.81,-1517.87 154.65,-1510.75 148.5,-1507.41"/>
</a>
</g>
</g>
<!-- Node3 -->
<g id="Node000003" class="node">
<title>Node3</title>
<g id="a_Node000003"><a xlink:title=" ">
<polygon fill="white" stroke="none" points="360.62,-936 286.62,-936 286.62,-884 360.62,-884 360.62,-936"/>
<text xml:space="preserve" text-anchor="start" x="290.62" y="-922.5" font-family="Helvetica,sans-Serif" font-size="10.00">QGraphicsItem</text>
<text xml:space="preserve" text-anchor="start" x="322.12" y="-906.5" font-family="Helvetica,sans-Serif" font-size="10.00"> </text>
<text xml:space="preserve" text-anchor="start" x="322.12" y="-890.5" font-family="Helvetica,sans-Serif" font-size="10.00"> </text>
<polygon fill="#666666" stroke="#666666" points="286.62,-918 286.62,-918 360.62,-918 360.62,-918 286.62,-918"/>
<polygon fill="#666666" stroke="#666666" points="286.62,-902 286.62,-902 360.62,-902 360.62,-902 286.62,-902"/>
<polygon fill="none" stroke="#666666" points="286.62,-884 286.62,-936 360.62,-936 360.62,-884 286.62,-884"/>
</a>
</g>
</g>
<!-- Node3&#45;&gt;Node1 -->
<g id="edge2_Node000001_Node000003" class="edge">
<title>Node3&#45;&gt;Node1</title>
<g id="a_edge2_Node000001_Node000003"><a xlink:title=" ">
<path fill="none" stroke="#63b8ff" d="M317.84,-872.94C309.32,-822.22 291.97,-727.16 269.62,-648 267.94,-642.02 266.18,-635.96 264.36,-629.85"/>
<polygon fill="none" stroke="#63b8ff" points="314.37,-873.47 319.46,-882.76 321.28,-872.32 314.37,-873.47"/>
</a>
</g>
</g>
<!-- Node4&#45;&gt;Node1 -->
<g id="edge3_Node000001_Node000004" class="edge">
<title>Node4&#45;&gt;Node1</title>
<g id="a_edge3_Node000001_Node000004"><a xlink:title=" ">
<path fill="none" stroke="#63b8ff" d="M195.62,-684.24C195.62,-670.33 195.62,-656.35 195.62,-642.51"/>
<polygon fill="none" stroke="#63b8ff" points="195.63,-642.74 191.63,-636.74 195.63,-630.74 199.63,-636.74 195.63,-642.74"/>
</a>
</g>
<text xml:space="preserve" text-anchor="start" x="198.62" y="-653.5" font-family="Helvetica,sans-Serif" font-size="10.00" fill="grey">&#45;m_connection</text>
</g>
<!-- Node5&#45;&gt;Node4 -->
<g id="edge5_Node000004_Node000005" class="edge">
<title>Node5&#45;&gt;Node4</title>
<g id="a_edge5_Node000004_Node000005"><a xlink:title=" ">
<path fill="none" stroke="#63b8ff" d="M226.36,-1206.02C224.43,-1187.57 222.42,-1168.23 220.38,-1148.65"/>
<polygon fill="none" stroke="#63b8ff" points="220.37,-1148.59 215.77,-1143.03 219.13,-1136.65 223.73,-1142.21 220.37,-1148.59"/>
</a>
</g>
<text xml:space="preserve" text-anchor="start" x="226.48" y="-1175.5" font-family="Helvetica,sans-Serif" font-size="10.00" fill="grey">&#45;m_endPoint</text>
<text xml:space="preserve" text-anchor="start" x="226.48" y="-1159.5" font-family="Helvetica,sans-Serif" font-size="10.00" fill="grey">&#45;m_startPoint</text>
</g>
<!-- Node6&#45;&gt;Node1 -->
<g id="edge7_Node000001_Node000006" class="edge">
<title>Node6&#45;&gt;Node1</title>
<g id="a_edge7_Node000001_Node000006"><a xlink:title=" ">
<path fill="none" stroke="#63b8ff" d="M141.83,-133.31C154.75,-147.71 166.92,-164.33 174.62,-182 180.13,-194.64 184.6,-207.97 188.19,-221.64"/>
<polygon fill="none" stroke="#63b8ff" points="188.21,-221.73 193.51,-226.62 191.04,-233.39 185.74,-228.51 188.21,-221.73"/>
</a>
</g>
<text xml:space="preserve" text-anchor="start" x="188.99" y="-203.5" font-family="Helvetica,sans-Serif" font-size="10.00" fill="grey">&#45;m_controlPoint1</text>
<text xml:space="preserve" text-anchor="start" x="188.99" y="-187.5" font-family="Helvetica,sans-Serif" font-size="10.00" fill="grey">&#45;m_controlPoint2</text>
</g>
<!-- Node7 -->
<g id="Node000007" class="node">
<title>Node7</title>
<g id="a_Node000007"><a xlink:title=" ">
<polygon fill="white" stroke="none" points="103.25,-458 0,-458 0,-406 103.25,-406 103.25,-458"/>
<text xml:space="preserve" text-anchor="start" x="4" y="-444.5" font-family="Helvetica,sans-Serif" font-size="10.00">QGraphicsEllipseItem</text>
<text xml:space="preserve" text-anchor="start" x="50.12" y="-428.5" font-family="Helvetica,sans-Serif" font-size="10.00"> </text>
<text xml:space="preserve" text-anchor="start" x="50.12" y="-412.5" font-family="Helvetica,sans-Serif" font-size="10.00"> </text>
<polygon fill="#666666" stroke="#666666" points="0,-440 0,-440 103.25,-440 103.25,-440 0,-440"/>
<polygon fill="#666666" stroke="#666666" points="0,-424 0,-424 103.25,-424 103.25,-424 0,-424"/>
<polygon fill="none" stroke="#666666" points="0,-406 0,-458 103.25,-458 103.25,-406 0,-406"/>
</a>
</g>
</g>
<!-- Node7&#45;&gt;Node6 -->
<g id="edge8_Node000006_Node000007" class="edge">
<title>Node7&#45;&gt;Node6</title>
<g id="a_edge8_Node000006_Node000007"><a xlink:title=" ">
<path fill="none" stroke="#63b8ff" d="M52.15,-394.71C53.2,-346.1 56.33,-257.27 65.62,-182 66.35,-176.09 67.23,-170.01 68.19,-163.9"/>
<polygon fill="none" stroke="#63b8ff" points="48.65,-394.58 51.96,-404.65 55.65,-394.72 48.65,-394.58"/>
</a>
</g>
</g>
</g>
</svg>

<g id="navigator" transform="translate(0 0)" fill="#404254">
  <rect fill="#f2f5e9" fill-opacity="0.5" stroke="#606060" stroke-width=".5" x="0" y="0" width="60" height="60"/>
  <use id="zoomplus" xlink:href="#zoomPlus" x="17" y="9" onmousedown="handleZoom(evt,'in')"/>
  <use id="zoomminus" xlink:href="#zoomMin" x="42" y="9" onmousedown="handleZoom(evt,'out')"/>
  <use id="reset" xlink:href="#resetDef" x="30" y="36" onmousedown="handleReset()"/>
   <use id="arrowup" xlink:href="#arrowUp" x="0" y="0" onmousedown="handlePan(0,-1)"/>
  <use id="arrowright" xlink:href="#arrowRight" x="0" y="0" onmousedown="handlePan(1,0)"/>
  <use id="arrowdown" xlink:href="#arrowDown" x="0" y="0" onmousedown="handlePan(0,1)"/>
  <use id="arrowleft" xlink:href="#arrowLeft" x="0" y="0" onmousedown="handlePan(-1,0)"/>
</g>
<svg viewBox="0 0 15 15" width="100%" height="30px" preserveAspectRatio="xMaxYMin meet">
 <g id="arrow_out" transform="scale(0.3 0.3)">
  <a xlink:href="class_connection_graphics_item__coll__graph_org.svg" target="_base">
   <rect id="button" ry="5" rx="5" y="6" x="6" height="38" width="38"
        fill="#f2f5e9" fill-opacity="0.5" stroke="#606060" stroke-width="1.0"/>
   <path id="arrow"
     d="M 11.500037,31.436501 C 11.940474,20.09759 22.043105,11.32322 32.158766,21.979434 L 37.068811,17.246167 C 37.068811,17.246167 37.088388,32 37.088388,32 L 22.160133,31.978069 C 22.160133,31.978069 26.997745,27.140456 26.997745,27.140456 C 18.528582,18.264221 13.291696,25.230495 11.500037,31.436501 z"
     style="fill:#404040;"/>
  </a>
 </g>
</svg>

<style type='text/css'>
<![CDATA[
[data-mouse-over-selected='false'] { opacity: 0.7; }
[data-mouse-over-selected='true']  { opacity: 1.0; }
]]>
</style>
<script type="application/ecmascript"><![CDATA[
document.addEventListener('DOMContentLoaded', (event) => {
  highlightEdges();
  highlightAdjacentNodes();
});
]]></script>
</svg>
