<?xml version="1.0" encoding="UTF-8" standalone="no"?>
<!DOCTYPE svg PUBLIC "-//W3C//DTD SVG 1.1//EN"
 "http://www.w3.org/Graphics/SVG/1.1/DTD/svg11.dtd">
<!-- Generated by graphviz version 14.1.1 (20251213.1925)
 -->
<!-- Title: DiagramScene::removeElement Pages: 1 -->
<!--zoomable 160 -->

<svg id="main" version="1.1" xmlns="http://www.w3.org/2000/svg" xmlns:xlink="http://www.w3.org/1999/xlink" xml:space="preserve" onload="init(evt)">

<style type="text/css"><![CDATA[
.node, .edge {opacity: 0.7;}
.node.selected, .edge.selected {opacity: 1;}
.edge:hover path { stroke: red; }
.edge:hover polygon { stroke: red; fill: red; }
]]></style>

<defs>
  <circle id="rim" cx="0" cy="0" r="7"/>
  <circle id="rim2" cx="0" cy="0" r="3.5"/>
  <g id="zoomPlus">
    <use xlink:href="#rim" fill="#404040"><set attributeName="fill" to="#808080" begin="zoomplus.mouseover" end="zoomplus.mouseout"/></use>
    <path d="M-4,0h8M0,-4v8" fill="none" stroke="white" stroke-width="1.5" pointer-events="none"/>
  </g>
  <g id="zoomMin">
    <use xlink:href="#rim" fill="#404040"><set attributeName="fill" to="#808080" begin="zoomminus.mouseover" end="zoomminus.mouseout"/></use>
    <path d="M-4,0h8" fill="none" stroke="white" stroke-width="1.5" pointer-events="none"/>
  </g>
  <g id="arrowUp" transform="translate(30 24)">
    <use xlink:href="#rim"/>
    <path pointer-events="none" fill="none" stroke="white" stroke-width="1.5" d="M0,-3.0v7 M-2.5,-0.5L0,-3.0L2.5,-0.5"/>
  </g>
  <g id="arrowRight" transform="rotate(90) translate(36 -43)">
    <use xlink:href="#rim"/>
    <path pointer-events="none" fill="none" stroke="white" stroke-width="1.5" d="M0,-3.0v7 M-2.5,-0.5L0,-3.0L2.5,-0.5"/>
  </g>
  <g id="arrowDown" transform="rotate(180) translate(-30 -48)">
    <use xlink:href="#rim"/>
    <path pointer-events="none" fill="none" stroke="white" stroke-width="1.5" d="M0,-3.0v7 M-2.5,-0.5L0,-3.0L2.5,-0.5"/>
  </g>
  <g id="arrowLeft" transform="rotate(270) translate(-36 17)">
    <use xlink:href="#rim"/>
    <path pointer-events="none" fill="none" stroke="white" stroke-width="1.5" d="M0,-3.0v7 M-2.5,-0.5L0,-3.0L2.5,-0.5"/>
  </g>
  <g id="resetDef">
    <use xlink:href="#rim2" fill="#404040"><set attributeName="fill" to="#808080" begin="reset.mouseover" end="reset.mouseout"/></use>
  </g>
</defs>
<script type="application/ecmascript">
var viewWidth = 956;
var viewHeight = 160;
var sectionId = 'dynsection-59';
</script>
<script type="application/ecmascript" xlink:href="svg.min.js"/>
<svg id="graph" class="graph">
<g id="viewport">
<title>DiagramScene::removeElement</title>
<!-- Node1 -->
<g id="Node000001" class="node">
<title>Node1</title>
<g id="a_Node000001"><a xlink:title=" ">
<polygon fill="#999999" stroke="#666666" points="154.75,-121 0,-121 0,-101 154.75,-101 154.75,-121"/>
<text xml:space="preserve" text-anchor="middle" x="77.38" y="-107.5" font-family="Helvetica,sans-Serif" font-size="10.00">DiagramScene::removeElement</text>
</a>
</g>
</g>
<!-- Node2 -->
<g id="Node000002" class="node">
<title>Node2</title>
<g id="a_Node000002"><a xlink:href="class_diagram_scene.html#ad8f482915e4991d8ba601f691086fbdc" target="_top" xlink:title=" ">
<polygon fill="white" stroke="#666666" points="346.25,-152 190.75,-152 190.75,-120 346.25,-120 346.25,-152"/>
<text xml:space="preserve" text-anchor="start" x="198.75" y="-138.5" font-family="Helvetica,sans-Serif" font-size="10.00">DiagramScene::removeAttribute</text>
<text xml:space="preserve" text-anchor="middle" x="268.5" y="-126.5" font-family="Helvetica,sans-Serif" font-size="10.00">FromParents</text>
</a>
</g>
</g>
<!-- Node1&#45;&gt;Node2 -->
<g id="edge1_Node000001_Node000002" class="edge">
<title>Node1&#45;&gt;Node2</title>
<g id="a_edge1_Node000001_Node000002"><a xlink:title=" ">
<path fill="none" stroke="#63b8ff" d="M155.03,-121.13C162.96,-122.18 171.07,-123.25 179.12,-124.32"/>
<polygon fill="#63b8ff" stroke="#63b8ff" points="178.56,-127.77 188.93,-125.61 179.48,-120.83 178.56,-127.77"/>
</a>
</g>
</g>
<!-- Node3 -->
<g id="Node000003" class="node">
<title>Node3</title>
<g id="a_Node000003"><a xlink:href="class_diagram_scene.html#a0d026405c431d3aca9494d64296bb956" target="_top" xlink:title=" ">
<polygon fill="white" stroke="#666666" points="345.88,-102 191.12,-102 191.12,-70 345.88,-70 345.88,-102"/>
<text xml:space="preserve" text-anchor="start" x="199.12" y="-88.5" font-family="Helvetica,sans-Serif" font-size="10.00">DiagramScene::removeElement</text>
<text xml:space="preserve" text-anchor="middle" x="268.5" y="-76.5" font-family="Helvetica,sans-Serif" font-size="10.00">Connections</text>
</a>
</g>
</g>
<!-- Node1&#45;&gt;Node3 -->
<g id="edge2_Node000001_Node000003" class="edge">
<title>Node1&#45;&gt;Node3</title>
<g id="a_edge2_Node000001_Node000003"><a xlink:title=" ">
<path fill="none" stroke="#63b8ff" d="M155.03,-100.87C163.03,-99.81 171.21,-98.73 179.33,-97.66"/>
<polygon fill="#63b8ff" stroke="#63b8ff" points="179.78,-101.13 189.24,-96.35 178.87,-94.19 179.78,-101.13"/>
</a>
</g>
</g>
<!-- Node4 -->
<g id="Node000004" class="node">
<title>Node4</title>
<g id="a_Node000004"><a xlink:href="class_diagram_scene.html#a40c9b85a9f304007a227b9db63178d08" target="_top" xlink:title=" ">
<polygon fill="white" stroke="#666666" points="549.38,-115 383.38,-115 383.38,-95 549.38,-95 549.38,-115"/>
<text xml:space="preserve" text-anchor="middle" x="466.38" y="-101.5" font-family="Helvetica,sans-Serif" font-size="10.00">DiagramScene::getAllConnections</text>
</a>
</g>
</g>
<!-- Node3&#45;&gt;Node4 -->
<g id="edge3_Node000003_Node000004" class="edge">
<title>Node3&#45;&gt;Node4</title>
<g id="a_edge3_Node000003_Node000004"><a xlink:title=" ">
<path fill="none" stroke="#63b8ff" d="M346.35,-93.45C354.61,-94.26 363.07,-95.08 371.49,-95.89"/>
<polygon fill="#63b8ff" stroke="#63b8ff" points="371.13,-99.37 381.42,-96.86 371.81,-92.41 371.13,-99.37"/>
</a>
</g>
</g>
<!-- Node5 -->
<g id="Node000005" class="node">
<title>Node5</title>
<g id="a_Node000005"><a xlink:href="class_diagram_scene.html#a5d546daf9d3a3d5155b611ec31c4dccb" target="_top" xlink:title=" ">
<polygon fill="white" stroke="#666666" points="550.5,-77 382.25,-77 382.25,-57 550.5,-57 550.5,-77"/>
<text xml:space="preserve" text-anchor="middle" x="466.38" y="-63.5" font-family="Helvetica,sans-Serif" font-size="10.00">DiagramScene::removeConnection</text>
</a>
</g>
</g>
<!-- Node3&#45;&gt;Node5 -->
<g id="edge4_Node000003_Node000005" class="edge">
<title>Node3&#45;&gt;Node5</title>
<g id="a_edge4_Node000003_Node000005"><a xlink:title=" ">
<path fill="none" stroke="#63b8ff" d="M346.35,-78.55C354.29,-77.78 362.43,-76.99 370.53,-76.2"/>
<polygon fill="#63b8ff" stroke="#63b8ff" points="370.83,-79.69 380.45,-75.24 370.15,-72.72 370.83,-79.69"/>
</a>
</g>
</g>
<!-- Node6 -->
<g id="Node000006" class="node">
<title>Node6</title>
<g id="a_Node000006"><a xlink:href="class_diagram_scene.html#af24fc3dc11041bb31e4f0627f0a09e75" target="_top" xlink:title=" ">
<polygon fill="white" stroke="#666666" points="746.88,-58 595.12,-58 595.12,-26 746.88,-26 746.88,-58"/>
<text xml:space="preserve" text-anchor="start" x="603.12" y="-44.5" font-family="Helvetica,sans-Serif" font-size="10.00">DiagramScene::handleAttribute</text>
<text xml:space="preserve" text-anchor="middle" x="671" y="-32.5" font-family="Helvetica,sans-Serif" font-size="10.00">Disconnection</text>
</a>
</g>
</g>
<!-- Node5&#45;&gt;Node6 -->
<g id="edge5_Node000005_Node000006" class="edge">
<title>Node5&#45;&gt;Node6</title>
<g id="a_edge5_Node000005_Node000006"><a xlink:title=" ">
<path fill="none" stroke="#63b8ff" d="M550.96,-56.69C561.72,-55.36 572.76,-54 583.56,-52.66"/>
<polygon fill="#63b8ff" stroke="#63b8ff" points="583.72,-56.17 593.22,-51.47 582.86,-49.22 583.72,-56.17"/>
</a>
</g>
</g>
<!-- Node10 -->
<g id="Node000010" class="node">
<title>Node10</title>
<g id="a_Node000010"><a xlink:href="class_diagram_scene.html#a244ffcbacfc985e542579c0e112cfd52" target="_top" xlink:title=" ">
<polygon fill="white" stroke="#666666" points="755.5,-108 586.5,-108 586.5,-76 755.5,-76 755.5,-108"/>
<text xml:space="preserve" text-anchor="start" x="594.5" y="-94.5" font-family="Helvetica,sans-Serif" font-size="10.00">DiagramScene::handleRelationship</text>
<text xml:space="preserve" text-anchor="middle" x="671" y="-82.5" font-family="Helvetica,sans-Serif" font-size="10.00">Disconnection</text>
</a>
</g>
</g>
<!-- Node5&#45;&gt;Node10 -->
<g id="edge9_Node000005_Node000010" class="edge">
<title>Node5&#45;&gt;Node10</title>
<g id="a_edge9_Node000005_Node000010"><a xlink:title=" ">
<path fill="none" stroke="#63b8ff" d="M550.96,-77.31C558.89,-78.29 566.97,-79.29 574.99,-80.28"/>
<polygon fill="#63b8ff" stroke="#63b8ff" points="574.42,-83.73 584.78,-81.49 575.28,-76.79 574.42,-83.73"/>
</a>
</g>
</g>
<!-- Node7 -->
<g id="Node000007" class="node">
<title>Node7</title>
<g id="a_Node000007"><a xlink:href="class_connection_line.html#ab11952b505976244aabc575e0ec7b118" target="_top" xlink:title=" ">
<polygon fill="white" stroke="#666666" points="947.75,-58 791.5,-58 791.5,-38 947.75,-38 947.75,-58"/>
<text xml:space="preserve" text-anchor="middle" x="869.62" y="-44.5" font-family="Helvetica,sans-Serif" font-size="10.00">ConnectionLine::getEndElement</text>
</a>
</g>
</g>
<!-- Node6&#45;&gt;Node7 -->
<g id="edge6_Node000006_Node000007" class="edge">
<title>Node6&#45;&gt;Node7</title>
<g id="a_edge6_Node000006_Node000007"><a xlink:title=" ">
<path fill="none" stroke="#63b8ff" d="M747.18,-44.29C757.88,-44.62 768.97,-44.96 779.9,-45.29"/>
<polygon fill="#63b8ff" stroke="#63b8ff" points="779.59,-48.78 789.69,-45.59 779.81,-41.79 779.59,-48.78"/>
</a>
</g>
</g>
<!-- Node8 -->
<g id="Node000008" class="node">
<title>Node8</title>
<g id="a_Node000008"><a xlink:href="class_connection_line.html#ad957be37b7bbb9250366225fd357a5a6" target="_top" xlink:title=" ">
<polygon fill="white" stroke="#666666" points="931.62,-108 807.62,-108 807.62,-76 931.62,-76 931.62,-108"/>
<text xml:space="preserve" text-anchor="start" x="815.62" y="-94.5" font-family="Helvetica,sans-Serif" font-size="10.00">ConnectionLine::getStart</text>
<text xml:space="preserve" text-anchor="middle" x="869.62" y="-82.5" font-family="Helvetica,sans-Serif" font-size="10.00">Element</text>
</a>
</g>
</g>
<!-- Node6&#45;&gt;Node8 -->
<g id="edge7_Node000006_Node000008" class="edge">
<title>Node6&#45;&gt;Node8</title>
<g id="a_edge7_Node000006_Node000008"><a xlink:title=" ">
<path fill="none" stroke="#63b8ff" d="M736.65,-58.44C755.74,-63.29 776.74,-68.64 796.28,-73.6"/>
<polygon fill="#63b8ff" stroke="#63b8ff" points="795.25,-76.95 805.8,-76.02 796.97,-70.17 795.25,-76.95"/>
</a>
</g>
</g>
<!-- Node9 -->
<g id="Node000009" class="node">
<title>Node9</title>
<g id="a_Node000009"><a xlink:href="class_connection_line.html#aea85162c28f293b1df0cce97d57bb471" target="_top" xlink:title=" ">
<polygon fill="white" stroke="#666666" points="928.62,-20 810.62,-20 810.62,0 928.62,0 928.62,-20"/>
<text xml:space="preserve" text-anchor="middle" x="869.62" y="-6.5" font-family="Helvetica,sans-Serif" font-size="10.00">ConnectionLine::isValid</text>
</a>
</g>
</g>
<!-- Node6&#45;&gt;Node9 -->
<g id="edge8_Node000006_Node000009" class="edge">
<title>Node6&#45;&gt;Node9</title>
<g id="a_edge8_Node000006_Node000009"><a xlink:title=" ">
<path fill="none" stroke="#63b8ff" d="M747.18,-29.77C764.34,-26.97 782.5,-24.02 799.4,-21.27"/>
<polygon fill="#63b8ff" stroke="#63b8ff" points="799.5,-24.8 808.81,-19.73 798.38,-17.89 799.5,-24.8"/>
</a>
</g>
</g>
<!-- Node10&#45;&gt;Node7 -->
<g id="edge10_Node000010_Node000007" class="edge">
<title>Node10&#45;&gt;Node7</title>
<g id="a_edge10_Node000010_Node000007"><a xlink:title=" ">
<path fill="none" stroke="#63b8ff" d="M745.5,-75.55C767.03,-70.73 790.27,-65.53 810.69,-60.96"/>
<polygon fill="#63b8ff" stroke="#63b8ff" points="811.25,-64.43 820.24,-58.83 809.72,-57.6 811.25,-64.43"/>
</a>
</g>
</g>
<!-- Node10&#45;&gt;Node8 -->
<g id="edge11_Node000010_Node000008" class="edge">
<title>Node10&#45;&gt;Node8</title>
<g id="a_edge11_Node000010_Node000008"><a xlink:title=" ">
<path fill="none" stroke="#63b8ff" d="M755.96,-92C769.28,-92 782.96,-92 795.99,-92"/>
<polygon fill="#63b8ff" stroke="#63b8ff" points="795.74,-95.5 805.74,-92 795.74,-88.5 795.74,-95.5"/>
</a>
</g>
</g>
</g>
</svg>

<g id="navigator" transform="translate(0 0)" fill="#404254">
  <rect fill="#f2f5e9" fill-opacity="0.5" stroke="#606060" stroke-width=".5" x="0" y="0" width="60" height="60"/>
  <use id="zoomplus" xlink:href="#zoomPlus" x="17" y="9" onmousedown="handleZoom(evt,'in')"/>
  <use id="zoomminus" xlink:href="#zoomMin" x="42" y="9" onmousedown="handleZoom(evt,'out')"/>
  <use id="reset" xlink:href="#resetDef" x="30" y="36" onmousedown="handleReset()"/>
   <use id="arrowup" xlink:href="#arrowUp" x="0" y="0" onmousedown="handlePan(0,-1)"/>
  <use id="arrowright" xlink:href="#arrowRight" x="0" y="0" onmousedown="handlePan(1,0)"/>
  <use id="arrowdown" xlink:href="#arrowDown" x="0" y="0" onmousedown="handlePan(0,1)"/>
  <use id="arrowleft" xlink:href="#arrowLeft" x="0" y="0" onmousedown="handlePan(-1,0)"/>
</g>
<svg viewBox="0 0 15 15" width="100%" height="30px" preserveAspectRatio="xMaxYMin meet">
 <g id="arrow_out" transform="scale(0.3 0.3)">
  <a xlink:href="class_diagram_scene_ae531fa5ccfc6393d5a60f956a652118d_cgraph_org.svg" target="_base">
   <rect id="button" ry="5" rx="5" y="6" x="6" height="38" width="38"
        fill="#f2f5e9" fill-opacity="0.5" stroke="#606060" stroke-width="1.0"/>
   <path id="arrow"
     d="M 11.500037,31.436501 C 11.940474,20.09759 22.043105,11.32322 32.158766,21.979434 L 37.068811,17.246167 C 37.068811,17.246167 37.088388,32 37.088388,32 L 22.160133,31.978069 C 22.160133,31.978069 26.997745,27.140456 26.997745,27.140456 C 18.528582,18.264221 13.291696,25.230495 11.500037,31.436501 z"
     style="fill:#404040;"/>
  </a>
 </g>
</svg>

<style type='text/css'>
<![CDATA[
[data-mouse-over-selected='false'] { opacity: 0.7; }
[data-mouse-over-selected='true']  { opacity: 1.0; }
]]>
</style>
<script type="application/ecmascript"><![CDATA[
document.addEventListener('DOMContentLoaded', (event) => {
  highlightEdges();
  highlightAdjacentNodes();
});
]]></script>
</svg>
