<?xml version="1.0" encoding="UTF-8" standalone="no"?>
<!DOCTYPE svg PUBLIC "-//W3C//DTD SVG 1.1//EN"
 "http://www.w3.org/Graphics/SVG/1.1/DTD/svg11.dtd">
<!-- Generated by graphviz version 14.1.1 (20251213.1925)
 -->
<!-- Title: BasicElement::boundingRect Pages: 1 -->
<svg width="347pt" height="266pt"
 viewBox="0.00 0.00 347.00 266.00" xmlns="http://www.w3.org/2000/svg" xmlns:xlink="http://www.w3.org/1999/xlink">
<g id="graph0" class="graph" transform="scale(1 1) rotate(0) translate(4 262)">
<title>BasicElement::boundingRect</title>
<!-- Node1 -->
<g id="Node000001" class="node">
<title>Node1</title>
<g id="a_Node000001"><a xlink:title=" ">
<polygon fill="#999999" stroke="#666666" points="338.75,-139 196,-139 196,-119 338.75,-119 338.75,-139"/>
<text xml:space="preserve" text-anchor="middle" x="267.38" y="-125.5" font-family="Helvetica,sans-Serif" font-size="10.00">BasicElement::boundingRect</text>
</a>
</g>
</g>
<!-- Node2 -->
<g id="Node000002" class="node">
<title>Node2</title>
<g id="a_Node000002"><a xlink:href="class_attribute_renderer.html#a9b78289101166ca718edc4204a696475" target="_top" xlink:title=" ">
<polygon fill="white" stroke="#666666" points="129.25,-258 30.75,-258 30.75,-226 129.25,-226 129.25,-258"/>
<text xml:space="preserve" text-anchor="start" x="38.75" y="-244.5" font-family="Helvetica,sans-Serif" font-size="10.00">AttributeRenderer::</text>
<text xml:space="preserve" text-anchor="middle" x="80" y="-232.5" font-family="Helvetica,sans-Serif" font-size="10.00">isInElementRect</text>
</a>
</g>
</g>
<!-- Node1&#45;&gt;Node2 -->
<g id="edge1_Node000001_Node000002" class="edge">
<title>Node1&#45;&gt;Node2</title>
<g id="a_edge1_Node000001_Node000002"><a xlink:title=" ">
<path fill="none" stroke="#63b8ff" d="M248.64,-147.41C228.73,-167.13 194.65,-198.12 160,-217 150.53,-222.16 139.82,-226.44 129.42,-229.92"/>
<polygon fill="#63b8ff" stroke="#63b8ff" points="250.89,-150.12 255.44,-140.55 245.91,-145.19 250.89,-150.12"/>
</a>
</g>
</g>
<!-- Node3 -->
<g id="Node000003" class="node">
<title>Node3</title>
<g id="a_Node000003"><a xlink:href="class_entity_renderer.html#a41cb5b901d024e3827de122ed649c98c" target="_top" xlink:title=" ">
<polygon fill="white" stroke="#666666" points="160,-208 0,-208 0,-188 160,-188 160,-208"/>
<text xml:space="preserve" text-anchor="middle" x="80" y="-194.5" font-family="Helvetica,sans-Serif" font-size="10.00">EntityRenderer::isInElementRect</text>
</a>
</g>
</g>
<!-- Node1&#45;&gt;Node3 -->
<g id="edge2_Node000001_Node000003" class="edge">
<title>Node1&#45;&gt;Node3</title>
<g id="a_edge2_Node000001_Node000003"><a xlink:title=" ">
<path fill="none" stroke="#63b8ff" d="M237.09,-144.74C216.1,-155.54 186.89,-169.56 160,-179 150.82,-182.22 140.84,-185.09 131.18,-187.56"/>
<polygon fill="#63b8ff" stroke="#63b8ff" points="238.68,-147.86 245.93,-140.14 235.44,-141.66 238.68,-147.86"/>
</a>
</g>
</g>
<!-- Node4 -->
<g id="Node000004" class="node">
<title>Node4</title>
<g id="a_Node000004"><a xlink:href="class_relationship_renderer.html#a543e7804a1ba65429372b0caeab2ac06" target="_top" xlink:title=" ">
<polygon fill="white" stroke="#666666" points="134.88,-170 25.12,-170 25.12,-138 134.88,-138 134.88,-170"/>
<text xml:space="preserve" text-anchor="start" x="33.12" y="-156.5" font-family="Helvetica,sans-Serif" font-size="10.00">RelationshipRenderer</text>
<text xml:space="preserve" text-anchor="middle" x="80" y="-144.5" font-family="Helvetica,sans-Serif" font-size="10.00">::isInElementRect</text>
</a>
</g>
</g>
<!-- Node1&#45;&gt;Node4 -->
<g id="edge3_Node000001_Node000004" class="edge">
<title>Node1&#45;&gt;Node4</title>
<g id="a_edge3_Node000001_Node000004"><a xlink:title=" ">
<path fill="none" stroke="#63b8ff" d="M184.36,-140.06C167.73,-142.3 150.64,-144.61 135.27,-146.68"/>
<polygon fill="#63b8ff" stroke="#63b8ff" points="184.82,-143.53 194.26,-138.73 183.89,-136.59 184.82,-143.53"/>
</a>
</g>
</g>
<!-- Node5 -->
<g id="Node000005" class="node">
<title>Node5</title>
<g id="a_Node000005"><a xlink:href="class_attribute_renderer.html#ac49ce03aeca93d9d70c6cddffc5bc7f4" target="_top" xlink:title=" ">
<polygon fill="white" stroke="#666666" points="129.25,-120 30.75,-120 30.75,-88 129.25,-88 129.25,-120"/>
<text xml:space="preserve" text-anchor="start" x="38.75" y="-106.5" font-family="Helvetica,sans-Serif" font-size="10.00">AttributeRenderer::</text>
<text xml:space="preserve" text-anchor="middle" x="80" y="-94.5" font-family="Helvetica,sans-Serif" font-size="10.00">selectionRect</text>
</a>
</g>
</g>
<!-- Node1&#45;&gt;Node5 -->
<g id="edge4_Node000001_Node000005" class="edge">
<title>Node1&#45;&gt;Node5</title>
<g id="a_edge4_Node000001_Node000005"><a xlink:title=" ">
<path fill="none" stroke="#63b8ff" d="M184.5,-117.96C165.74,-115.43 146.39,-112.82 129.56,-110.55"/>
<polygon fill="#63b8ff" stroke="#63b8ff" points="183.89,-121.41 194.26,-119.27 184.82,-114.47 183.89,-121.41"/>
</a>
</g>
</g>
<!-- Node6 -->
<g id="Node000006" class="node">
<title>Node6</title>
<g id="a_Node000006"><a xlink:href="class_entity_renderer.html#afdb9604daa3feb4b7282e04a4d1996f8" target="_top" xlink:title=" ">
<polygon fill="white" stroke="#666666" points="153.62,-70 6.38,-70 6.38,-50 153.62,-50 153.62,-70"/>
<text xml:space="preserve" text-anchor="middle" x="80" y="-56.5" font-family="Helvetica,sans-Serif" font-size="10.00">EntityRenderer::selectionRect</text>
</a>
</g>
</g>
<!-- Node1&#45;&gt;Node6 -->
<g id="edge5_Node000001_Node000006" class="edge">
<title>Node1&#45;&gt;Node6</title>
<g id="a_edge5_Node000001_Node000006"><a xlink:title=" ">
<path fill="none" stroke="#63b8ff" d="M237.09,-113.26C216.1,-102.46 186.89,-88.44 160,-79 150.82,-75.78 140.84,-72.91 131.18,-70.44"/>
<polygon fill="#63b8ff" stroke="#63b8ff" points="235.44,-116.34 245.93,-117.86 238.68,-110.14 235.44,-116.34"/>
</a>
</g>
</g>
<!-- Node7 -->
<g id="Node000007" class="node">
<title>Node7</title>
<g id="a_Node000007"><a xlink:href="class_relationship_renderer.html#a9e5ee3ddcaa8017ec5a3c3ed5c7212b2" target="_top" xlink:title=" ">
<polygon fill="white" stroke="#666666" points="134.88,-32 25.12,-32 25.12,0 134.88,0 134.88,-32"/>
<text xml:space="preserve" text-anchor="start" x="33.12" y="-18.5" font-family="Helvetica,sans-Serif" font-size="10.00">RelationshipRenderer</text>
<text xml:space="preserve" text-anchor="middle" x="80" y="-6.5" font-family="Helvetica,sans-Serif" font-size="10.00">::selectionRect</text>
</a>
</g>
</g>
<!-- Node1&#45;&gt;Node7 -->
<g id="edge6_Node000001_Node000007" class="edge">
<title>Node1&#45;&gt;Node7</title>
<g id="a_edge6_Node000001_Node000007"><a xlink:title=" ">
<path fill="none" stroke="#63b8ff" d="M248.64,-110.59C228.73,-90.87 194.65,-59.88 160,-41 152.29,-36.8 143.77,-33.19 135.27,-30.11"/>
<polygon fill="#63b8ff" stroke="#63b8ff" points="245.91,-112.81 255.44,-117.45 250.89,-107.88 245.91,-112.81"/>
</a>
</g>
</g>
</g>
</svg>
