<?xml version="1.0" encoding="UTF-8" standalone="no"?>
<!DOCTYPE svg PUBLIC "-//W3C//DTD SVG 1.1//EN"
 "http://www.w3.org/Graphics/SVG/1.1/DTD/svg11.dtd">
<!-- Generated by graphviz version 14.1.1 (20251213.1925)
 -->
<!-- Title: PropertiesPanel::createButtonPropertyItem Pages: 1 -->
<!--zoomable 754 -->

<svg id="main" version="1.1" xmlns="http://www.w3.org/2000/svg" xmlns:xlink="http://www.w3.org/1999/xlink" xml:space="preserve" onload="init(evt)">

<style type="text/css"><![CDATA[
.node, .edge {opacity: 0.7;}
.node.selected, .edge.selected {opacity: 1;}
.edge:hover path { stroke: red; }
.edge:hover polygon { stroke: red; fill: red; }
]]></style>

<defs>
  <circle id="rim" cx="0" cy="0" r="7"/>
  <circle id="rim2" cx="0" cy="0" r="3.5"/>
  <g id="zoomPlus">
    <use xlink:href="#rim" fill="#404040"><set attributeName="fill" to="#808080" begin="zoomplus.mouseover" end="zoomplus.mouseout"/></use>
    <path d="M-4,0h8M0,-4v8" fill="none" stroke="white" stroke-width="1.5" pointer-events="none"/>
  </g>
  <g id="zoomMin">
    <use xlink:href="#rim" fill="#404040"><set attributeName="fill" to="#808080" begin="zoomminus.mouseover" end="zoomminus.mouseout"/></use>
    <path d="M-4,0h8" fill="none" stroke="white" stroke-width="1.5" pointer-events="none"/>
  </g>
  <g id="arrowUp" transform="translate(30 24)">
    <use xlink:href="#rim"/>
    <path pointer-events="none" fill="none" stroke="white" stroke-width="1.5" d="M0,-3.0v7 M-2.5,-0.5L0,-3.0L2.5,-0.5"/>
  </g>
  <g id="arrowRight" transform="rotate(90) translate(36 -43)">
    <use xlink:href="#rim"/>
    <path pointer-events="none" fill="none" stroke="white" stroke-width="1.5" d="M0,-3.0v7 M-2.5,-0.5L0,-3.0L2.5,-0.5"/>
  </g>
  <g id="arrowDown" transform="rotate(180) translate(-30 -48)">
    <use xlink:href="#rim"/>
    <path pointer-events="none" fill="none" stroke="white" stroke-width="1.5" d="M0,-3.0v7 M-2.5,-0.5L0,-3.0L2.5,-0.5"/>
  </g>
  <g id="arrowLeft" transform="rotate(270) translate(-36 17)">
    <use xlink:href="#rim"/>
    <path pointer-events="none" fill="none" stroke="white" stroke-width="1.5" d="M0,-3.0v7 M-2.5,-0.5L0,-3.0L2.5,-0.5"/>
  </g>
  <g id="resetDef">
    <use xlink:href="#rim2" fill="#404040"><set attributeName="fill" to="#808080" begin="reset.mouseover" end="reset.mouseout"/></use>
  </g>
</defs>
<script type="application/ecmascript">
var viewWidth = 1727;
var viewHeight = 754;
var sectionId = 'dynsection-7';
</script>
<script type="application/ecmascript" xlink:href="svg.min.js"/>
<svg id="graph" class="graph">
<g id="viewport">
<title>PropertiesPanel::createButtonPropertyItem</title>
<!-- Node1 -->
<g id="Node000001" class="node">
<title>Node1</title>
<g id="a_Node000001"><a xlink:title=" ">
<polygon fill="#999999" stroke="#666666" points="1719.25,-621 1572.75,-621 1572.75,-589 1719.25,-589 1719.25,-621"/>
<text xml:space="preserve" text-anchor="start" x="1580.75" y="-607.5" font-family="Helvetica,sans-Serif" font-size="10.00">PropertiesPanel::createButton</text>
<text xml:space="preserve" text-anchor="middle" x="1646" y="-595.5" font-family="Helvetica,sans-Serif" font-size="10.00">PropertyItem</text>
</a>
</g>
</g>
<!-- Node2 -->
<g id="Node000002" class="node">
<title>Node2</title>
<g id="a_Node000002"><a xlink:href="class_properties_panel.html#a050a4a9040c7aeefde9c1377d2e1909e" target="_top" xlink:title=" ">
<polygon fill="white" stroke="#666666" points="1536.75,-643 1409,-643 1409,-611 1536.75,-611 1536.75,-643"/>
<text xml:space="preserve" text-anchor="start" x="1417" y="-629.5" font-family="Helvetica,sans-Serif" font-size="10.00">PropertiesPanel::populate</text>
<text xml:space="preserve" text-anchor="middle" x="1472.88" y="-617.5" font-family="Helvetica,sans-Serif" font-size="10.00">AttributeList</text>
</a>
</g>
</g>
<!-- Node1&#45;&gt;Node2 -->
<g id="edge1_Node000001_Node000002" class="edge">
<title>Node1&#45;&gt;Node2</title>
<g id="a_edge1_Node000001_Node000002"><a xlink:title=" ">
<path fill="none" stroke="#63b8ff" d="M1561.06,-615.79C1552.99,-616.83 1544.91,-617.87 1537.08,-618.87"/>
<polygon fill="#63b8ff" stroke="#63b8ff" points="1561.45,-619.27 1570.93,-614.52 1560.56,-612.33 1561.45,-619.27"/>
</a>
</g>
</g>
<!-- Node3 -->
<g id="Node000003" class="node">
<title>Node3</title>
<g id="a_Node000003"><a xlink:href="class_properties_panel.html#acc5a2b4e63ea74eaa34853f1cec46b81" target="_top" xlink:title=" ">
<polygon fill="white" stroke="#666666" points="1373,-649 1245.25,-649 1245.25,-617 1373,-617 1373,-649"/>
<text xml:space="preserve" text-anchor="start" x="1253.25" y="-635.5" font-family="Helvetica,sans-Serif" font-size="10.00">PropertiesPanel::populate</text>
<text xml:space="preserve" text-anchor="middle" x="1309.12" y="-623.5" font-family="Helvetica,sans-Serif" font-size="10.00">AttributeProperties</text>
</a>
</g>
</g>
<!-- Node1&#45;&gt;Node3 -->
<g id="edge44_Node000001_Node000003" class="edge">
<title>Node1&#45;&gt;Node3</title>
<g id="a_edge44_Node000001_Node000003"><a xlink:title=" ">
<path fill="none" stroke="#63b8ff" d="M1606.22,-626.45C1586.14,-636.35 1560.84,-647 1536.75,-652 1482.24,-663.32 1419.03,-656.41 1373.24,-647.91"/>
<polygon fill="#63b8ff" stroke="#63b8ff" points="1607.53,-629.71 1614.87,-622.06 1604.37,-623.47 1607.53,-629.71"/>
</a>
</g>
</g>
<!-- Node9 -->
<g id="Node000009" class="node">
<title>Node9</title>
<g id="a_Node000009"><a xlink:href="class_properties_panel.html#aeb116e2e51099f618b5d284e492bc0e2" target="_top" xlink:title=" ">
<polygon fill="white" stroke="#666666" points="127.75,-588 0,-588 0,-556 127.75,-556 127.75,-588"/>
<text xml:space="preserve" text-anchor="start" x="8" y="-574.5" font-family="Helvetica,sans-Serif" font-size="10.00">PropertiesPanel::populate</text>
<text xml:space="preserve" text-anchor="middle" x="63.88" y="-562.5" font-family="Helvetica,sans-Serif" font-size="10.00">RelationshipProperties</text>
</a>
</g>
</g>
<!-- Node1&#45;&gt;Node9 -->
<g id="edge46_Node000001_Node000009" class="edge">
<title>Node1&#45;&gt;Node9</title>
<g id="a_edge46_Node000001_Node000009"><a xlink:title=" ">
<path fill="none" stroke="#63b8ff" d="M1614.03,-627.98C1557.03,-667.94 1430.28,-746 1310.12,-746 1310.12,-746 1310.12,-746 417.38,-746 300.67,-746 263.78,-738.11 163.75,-678 124.92,-654.67 91.81,-611.74 75.58,-588.31"/>
<polygon fill="#63b8ff" stroke="#63b8ff" points="1615.86,-630.98 1621.98,-622.33 1611.8,-625.27 1615.86,-630.98"/>
</a>
</g>
</g>
<!-- Node23 -->
<g id="Node000023" class="node">
<title>Node23</title>
<g id="a_Node000023"><a xlink:href="class_properties_panel.html#a6a4344308af5b2c993bc25981529239c" target="_top" xlink:title=" ">
<polygon fill="white" stroke="#666666" points="1373,-599 1245.25,-599 1245.25,-567 1373,-567 1373,-599"/>
<text xml:space="preserve" text-anchor="start" x="1253.25" y="-585.5" font-family="Helvetica,sans-Serif" font-size="10.00">PropertiesPanel::populate</text>
<text xml:space="preserve" text-anchor="middle" x="1309.12" y="-573.5" font-family="Helvetica,sans-Serif" font-size="10.00">EntityProperties</text>
</a>
</g>
</g>
<!-- Node1&#45;&gt;Node23 -->
<g id="edge45_Node000001_Node000023" class="edge">
<title>Node1&#45;&gt;Node23</title>
<g id="a_edge45_Node000001_Node000023"><a xlink:title=" ">
<path fill="none" stroke="#63b8ff" d="M1560.94,-599.48C1502.72,-595.65 1426.43,-590.64 1373.34,-587.15"/>
<polygon fill="#63b8ff" stroke="#63b8ff" points="1560.62,-602.96 1570.83,-600.13 1561.08,-595.98 1560.62,-602.96"/>
</a>
</g>
</g>
<!-- Node2&#45;&gt;Node3 -->
<g id="edge2_Node000002_Node000003" class="edge">
<title>Node2&#45;&gt;Node3</title>
<g id="a_edge2_Node000002_Node000003"><a xlink:title=" ">
<path fill="none" stroke="#63b8ff" d="M1397.58,-623.03C1389.53,-623.28 1381.39,-623.62 1373.49,-624.04"/>
<polygon fill="#63b8ff" stroke="#63b8ff" points="1397.46,-626.53 1407.36,-622.77 1397.28,-619.53 1397.46,-626.53"/>
</a>
</g>
</g>
<!-- Node2&#45;&gt;Node9 -->
<g id="edge43_Node000002_Node000009" class="edge">
<title>Node2&#45;&gt;Node9</title>
<g id="a_edge43_Node000002_Node000009"><a xlink:title=" ">
<path fill="none" stroke="#63b8ff" d="M1421.88,-647.52C1358.79,-671.52 1246.43,-708 1146.38,-708 1146.38,-708 1146.38,-708 417.38,-708 285.86,-708 144.12,-624.58 88.85,-588.4"/>
<polygon fill="#63b8ff" stroke="#63b8ff" points="1422.84,-650.9 1430.91,-644.03 1420.32,-644.37 1422.84,-650.9"/>
</a>
</g>
</g>
<!-- Node2&#45;&gt;Node23 -->
<g id="edge41_Node000002_Node000023" class="edge">
<title>Node2&#45;&gt;Node23</title>
<g id="a_edge41_Node000002_Node000023"><a xlink:title=" ">
<path fill="none" stroke="#63b8ff" d="M1400.84,-607.68C1390.78,-604.94 1380.51,-602.15 1370.67,-599.47"/>
<polygon fill="#63b8ff" stroke="#63b8ff" points="1399.62,-610.97 1410.18,-610.22 1401.45,-604.22 1399.62,-610.97"/>
</a>
</g>
</g>
<!-- Node3&#45;&gt;Node2 -->
<g id="edge3_Node000003_Node000002" class="edge">
<title>Node3&#45;&gt;Node2</title>
<g id="a_edge3_Node000003_Node000002"><a xlink:title=" ">
<path fill="none" stroke="#63b8ff" d="M1384.78,-636.96C1392.84,-636.71 1400.98,-636.36 1408.88,-635.94"/>
<polygon fill="#63b8ff" stroke="#63b8ff" points="1384.9,-633.46 1375,-637.22 1385.09,-640.46 1384.9,-633.46"/>
</a>
</g>
</g>
<!-- Node4 -->
<g id="Node000004" class="node">
<title>Node4</title>
<g id="a_Node000004"><a xlink:href="class_properties_panel.html#a037586f897062f3915a123b9f2a82b91" target="_top" xlink:title=" ">
<polygon fill="white" stroke="#666666" points="1209.25,-602 1081.5,-602 1081.5,-570 1209.25,-570 1209.25,-602"/>
<text xml:space="preserve" text-anchor="start" x="1089.5" y="-588.5" font-family="Helvetica,sans-Serif" font-size="10.00">PropertiesPanel::populate</text>
<text xml:space="preserve" text-anchor="middle" x="1145.38" y="-576.5" font-family="Helvetica,sans-Serif" font-size="10.00">ForElement</text>
</a>
</g>
</g>
<!-- Node3&#45;&gt;Node4 -->
<g id="edge4_Node000003_Node000004" class="edge">
<title>Node3&#45;&gt;Node4</title>
<g id="a_edge4_Node000003_Node000004"><a xlink:title=" ">
<path fill="none" stroke="#63b8ff" d="M1240.66,-613.4C1228.11,-609.75 1215.1,-605.97 1202.92,-602.43"/>
<polygon fill="#63b8ff" stroke="#63b8ff" points="1239.52,-616.71 1250.1,-616.14 1241.47,-609.99 1239.52,-616.71"/>
</a>
</g>
</g>
<!-- Node5 -->
<g id="Node000005" class="node">
<title>Node5</title>
<g id="a_Node000005"><a xlink:href="class_properties_panel.html#a139ae0158b486c6004e15e0ddf36f319" target="_top" xlink:title=" ">
<polygon fill="white" stroke="#666666" points="1045.5,-233 924.5,-233 924.5,-213 1045.5,-213 1045.5,-233"/>
<text xml:space="preserve" text-anchor="middle" x="985" y="-219.5" font-family="Helvetica,sans-Serif" font-size="10.00">PropertiesPanel::refresh</text>
</a>
</g>
</g>
<!-- Node4&#45;&gt;Node5 -->
<g id="edge5_Node000004_Node000005" class="edge">
<title>Node4&#45;&gt;Node5</title>
<g id="a_edge5_Node000004_Node000005"><a xlink:title=" ">
<path fill="none" stroke="#63b8ff" d="M1132.91,-559.71C1100.89,-486.34 1011.54,-281.55 990.49,-233.28"/>
<polygon fill="#63b8ff" stroke="#63b8ff" points="1129.55,-560.78 1136.76,-568.55 1135.97,-557.98 1129.55,-560.78"/>
</a>
</g>
</g>
<!-- Node6 -->
<g id="Node000006" class="node">
<title>Node6</title>
<g id="a_Node000006"><a xlink:href="class_properties_panel.html#a55ae5c02e7d75c7bdc26281a148e8c5a" target="_top" xlink:title=" ">
<polygon fill="white" stroke="#666666" points="888.5,-82 733,-82 733,-50 888.5,-50 888.5,-82"/>
<text xml:space="preserve" text-anchor="start" x="741" y="-68.5" font-family="Helvetica,sans-Serif" font-size="10.00">PropertiesPanel::onAddAttribute</text>
<text xml:space="preserve" text-anchor="middle" x="810.75" y="-56.5" font-family="Helvetica,sans-Serif" font-size="10.00">OnTreeClicked</text>
</a>
</g>
</g>
<!-- Node5&#45;&gt;Node6 -->
<g id="edge6_Node000005_Node000006" class="edge">
<title>Node5&#45;&gt;Node6</title>
<g id="a_edge6_Node000005_Node000006"><a xlink:title=" ">
<path fill="none" stroke="#63b8ff" d="M963.8,-204.98C951.55,-193.43 936.1,-177.7 924.5,-162 904.65,-135.12 913.58,-118.08 888.5,-96 882.38,-90.61 875.18,-86.13 867.69,-82.43"/>
<polygon fill="#63b8ff" stroke="#63b8ff" points="961.22,-207.36 970.94,-211.56 965.96,-202.21 961.22,-207.36"/>
</a>
</g>
</g>
<!-- Node7 -->
<g id="Node000007" class="node">
<title>Node7</title>
<g id="a_Node000007"><a xlink:href="class_properties_panel.html#a2800a2c7575a5fad6d923d9b64d982f8" target="_top" xlink:title=" ">
<polygon fill="white" stroke="#666666" points="483.38,-340 353.38,-340 353.38,-308 483.38,-308 483.38,-340"/>
<text xml:space="preserve" text-anchor="start" x="361.38" y="-326.5" font-family="Helvetica,sans-Serif" font-size="10.00">PropertiesPanel::onCheck</text>
<text xml:space="preserve" text-anchor="middle" x="418.38" y="-314.5" font-family="Helvetica,sans-Serif" font-size="10.00">BoxChanged</text>
</a>
</g>
</g>
<!-- Node5&#45;&gt;Node7 -->
<g id="edge8_Node000005_Node000007" class="edge">
<title>Node5&#45;&gt;Node7</title>
<g id="a_edge8_Node000005_Node000007"><a xlink:title=" ">
<path fill="none" stroke="#63b8ff" d="M913.01,-227.59C821.75,-234.62 658.93,-250.98 523.5,-285 500.85,-290.69 476.35,-299.71 456.8,-307.65"/>
<polygon fill="#63b8ff" stroke="#63b8ff" points="913.1,-231.1 922.8,-226.85 912.57,-224.12 913.1,-231.1"/>
</a>
</g>
</g>
<!-- Node10 -->
<g id="Node000010" class="node">
<title>Node10</title>
<g id="a_Node000010"><a xlink:href="class_properties_panel.html#aec82450a3daeb2614c2321e37897f1dd" target="_top" xlink:title=" ">
<polygon fill="white" stroke="#666666" points="484.88,-462 351.88,-462 351.88,-430 484.88,-430 484.88,-462"/>
<text xml:space="preserve" text-anchor="start" x="359.88" y="-448.5" font-family="Helvetica,sans-Serif" font-size="10.00">PropertiesPanel::onCombo</text>
<text xml:space="preserve" text-anchor="middle" x="418.38" y="-436.5" font-family="Helvetica,sans-Serif" font-size="10.00">BoxChanged</text>
</a>
</g>
</g>
<!-- Node5&#45;&gt;Node10 -->
<g id="edge13_Node000005_Node000010" class="edge">
<title>Node5&#45;&gt;Node10</title>
<g id="a_edge13_Node000005_Node000010"><a xlink:title=" ">
<path fill="none" stroke="#63b8ff" d="M975.26,-243.72C961.07,-275.29 930.32,-335.82 888.5,-374 817.89,-438.46 789.95,-449.6 697,-472 622.04,-490.07 600.03,-481.41 523.5,-472 507.41,-470.02 490.23,-466.39 474.56,-462.45"/>
<polygon fill="#63b8ff" stroke="#63b8ff" points="978.33,-245.44 979.12,-234.87 971.91,-242.63 978.33,-245.44"/>
</a>
</g>
</g>
<!-- Node14 -->
<g id="Node000014" class="node">
<title>Node14</title>
<g id="a_Node000014"><a xlink:href="class_properties_panel.html#aec8130201106284c02f21903b516554d" target="_top" xlink:title=" ">
<polygon fill="white" stroke="#666666" points="678.62,-566 541.88,-566 541.88,-534 678.62,-534 678.62,-566"/>
<text xml:space="preserve" text-anchor="start" x="549.88" y="-552.5" font-family="Helvetica,sans-Serif" font-size="10.00">PropertiesPanel::onLineEdit</text>
<text xml:space="preserve" text-anchor="middle" x="610.25" y="-540.5" font-family="Helvetica,sans-Serif" font-size="10.00">Changed</text>
</a>
</g>
</g>
<!-- Node5&#45;&gt;Node14 -->
<g id="edge20_Node000005_Node000014" class="edge">
<title>Node5&#45;&gt;Node14</title>
<g id="a_edge20_Node000005_Node000014"><a xlink:title=" ">
<path fill="none" stroke="#63b8ff" d="M984.39,-244.53C984.12,-300.22 974.98,-449.53 888.5,-520 830.14,-567.56 740.38,-568.41 678.9,-561.75"/>
<polygon fill="#63b8ff" stroke="#63b8ff" points="987.89,-244.8 984.34,-234.82 980.89,-244.84 987.89,-244.8"/>
</a>
</g>
</g>
<!-- Node16 -->
<g id="Node000016" class="node">
<title>Node16</title>
<g id="a_Node000016"><a xlink:href="class_properties_panel.html#a3cdc065abcd2f9e59558903073c0f23f" target="_top" xlink:title=" ">
<polygon fill="white" stroke="#666666" points="487.5,-197 349.25,-197 349.25,-165 487.5,-165 487.5,-197"/>
<text xml:space="preserve" text-anchor="start" x="357.25" y="-183.5" font-family="Helvetica,sans-Serif" font-size="10.00">PropertiesPanel::onProperty</text>
<text xml:space="preserve" text-anchor="middle" x="418.38" y="-171.5" font-family="Helvetica,sans-Serif" font-size="10.00">ValueChanged</text>
</a>
</g>
</g>
<!-- Node5&#45;&gt;Node16 -->
<g id="edge23_Node000005_Node000016" class="edge">
<title>Node5&#45;&gt;Node16</title>
<g id="a_edge23_Node000005_Node000016"><a xlink:title=" ">
<path fill="none" stroke="#63b8ff" d="M912.88,-213.05C803.54,-202.11 595.53,-186.66 487.82,-181.5"/>
<polygon fill="#63b8ff" stroke="#63b8ff" points="912.3,-216.51 922.6,-214.04 913.01,-209.54 912.3,-216.51"/>
</a>
</g>
</g>
<!-- Node18 -->
<g id="Node000018" class="node">
<title>Node18</title>
<g id="a_Node000018"><a xlink:href="class_properties_panel.html#a8a2ec0bcba44f3bbd0245d3a53ff49f7" target="_top" xlink:title=" ">
<polygon fill="white" stroke="#666666" points="879.88,-32 741.62,-32 741.62,0 879.88,0 879.88,-32"/>
<text xml:space="preserve" text-anchor="start" x="749.62" y="-18.5" font-family="Helvetica,sans-Serif" font-size="10.00">PropertiesPanel::onRemove</text>
<text xml:space="preserve" text-anchor="middle" x="810.75" y="-6.5" font-family="Helvetica,sans-Serif" font-size="10.00">AttributeOnTreeClicked</text>
</a>
</g>
</g>
<!-- Node5&#45;&gt;Node18 -->
<g id="edge26_Node000005_Node000018" class="edge">
<title>Node5&#45;&gt;Node18</title>
<g id="a_edge26_Node000005_Node000018"><a xlink:title=" ">
<path fill="none" stroke="#63b8ff" d="M978.63,-201.9C967.93,-164.14 940.41,-84.83 888.5,-41 884.65,-37.75 880.36,-34.91 875.83,-32.44"/>
<polygon fill="#63b8ff" stroke="#63b8ff" points="975.14,-202.41 981.12,-211.15 981.89,-200.58 975.14,-202.41"/>
</a>
</g>
</g>
<!-- Node19 -->
<g id="Node000019" class="node">
<title>Node19</title>
<g id="a_Node000019"><a xlink:href="class_properties_panel.html#a79618c5c820a40931c085d54be70bd34" target="_top" xlink:title=" ">
<polygon fill="white" stroke="#666666" points="873.5,-365 748,-365 748,-333 873.5,-333 873.5,-365"/>
<text xml:space="preserve" text-anchor="start" x="756" y="-351.5" font-family="Helvetica,sans-Serif" font-size="10.00">PropertiesPanel::updates</text>
<text xml:space="preserve" text-anchor="middle" x="810.75" y="-339.5" font-family="Helvetica,sans-Serif" font-size="10.00">AfterChangingProperty</text>
</a>
</g>
</g>
<!-- Node5&#45;&gt;Node19 -->
<g id="edge28_Node000005_Node000019" class="edge">
<title>Node5&#45;&gt;Node19</title>
<g id="a_edge28_Node000005_Node000019"><a xlink:title=" ">
<path fill="none" stroke="#63b8ff" d="M960.93,-239.87C927.72,-264.17 866.83,-308.71 834.05,-332.69"/>
<polygon fill="#63b8ff" stroke="#63b8ff" points="962.68,-242.93 968.68,-234.2 958.54,-237.28 962.68,-242.93"/>
</a>
</g>
</g>
<!-- Node6&#45;&gt;Node1 -->
<g id="edge7_Node000006_Node000001" class="edge">
<title>Node6&#45;&gt;Node1</title>
<g id="a_edge7_Node000006_Node000001"><a xlink:title=" ">
<path fill="none" stroke="#63b8ff" d="M862.32,-86.57C926.71,-110.86 1041.91,-148 1144.38,-148 1310.12,-148 1310.12,-148 1310.12,-148 1533.4,-148 1624.01,-507.33 1641.68,-588.74"/>
<polygon fill="#63b8ff" stroke="#63b8ff" points="863.68,-83.34 853.09,-83.04 861.17,-89.88 863.68,-83.34"/>
</a>
</g>
</g>
<!-- Node8 -->
<g id="Node000008" class="node">
<title>Node8</title>
<g id="a_Node000008"><a xlink:href="class_properties_panel.html#acfb41226221624e46767835caeea8abc" target="_top" xlink:title=" ">
<polygon fill="white" stroke="#666666" points="311.75,-478 165.25,-478 165.25,-446 311.75,-446 311.75,-478"/>
<text xml:space="preserve" text-anchor="start" x="173.25" y="-464.5" font-family="Helvetica,sans-Serif" font-size="10.00">PropertiesPanel::createCheck</text>
<text xml:space="preserve" text-anchor="middle" x="238.5" y="-452.5" font-family="Helvetica,sans-Serif" font-size="10.00">BoxPropertyItem</text>
</a>
</g>
</g>
<!-- Node7&#45;&gt;Node8 -->
<g id="edge9_Node000007_Node000008" class="edge">
<title>Node7&#45;&gt;Node8</title>
<g id="a_edge9_Node000007_Node000008"><a xlink:title=" ">
<path fill="none" stroke="#63b8ff" d="M387.22,-347.4C351.23,-375.32 291.98,-421.28 260.58,-445.65"/>
<polygon fill="#63b8ff" stroke="#63b8ff" points="389.32,-350.2 395.08,-341.3 385.03,-344.66 389.32,-350.2"/>
</a>
</g>
</g>
<!-- Node8&#45;&gt;Node3 -->
<g id="edge10_Node000008_Node000003" class="edge">
<title>Node8&#45;&gt;Node3</title>
<g id="a_edge10_Node000008_Node000003"><a xlink:title=" ">
<path fill="none" stroke="#63b8ff" d="M266.9,-485.69C296.35,-510.98 340.16,-548.11 349.25,-553 455.6,-610.22 488.48,-632 609.25,-632 986,-632 986,-632 986,-632 1075.9,-632 1179.91,-632.39 1244.86,-632.69"/>
<polygon fill="#63b8ff" stroke="#63b8ff" points="269.29,-483.12 259.43,-479.25 264.72,-488.43 269.29,-483.12"/>
</a>
</g>
</g>
<!-- Node8&#45;&gt;Node9 -->
<g id="edge11_Node000008_Node000009" class="edge">
<title>Node8&#45;&gt;Node9</title>
<g id="a_edge11_Node000008_Node000009"><a xlink:title=" ">
<path fill="none" stroke="#63b8ff" d="M181.14,-482.89C175.15,-485.71 169.24,-488.76 163.75,-492 132.57,-510.41 100.76,-538.06 81.92,-555.56"/>
<polygon fill="#63b8ff" stroke="#63b8ff" points="182.17,-486.27 189.87,-478.99 179.31,-479.88 182.17,-486.27"/>
</a>
</g>
</g>
<!-- Node9&#45;&gt;Node4 -->
<g id="edge12_Node000009_Node000004" class="edge">
<title>Node9&#45;&gt;Node4</title>
<g id="a_edge12_Node000009_Node000004"><a xlink:title=" ">
<path fill="none" stroke="#63b8ff" d="M139.25,-579.34C210.54,-585.74 321.19,-594 417.38,-594 811.75,-594 811.75,-594 811.75,-594 905.62,-594 1014.34,-590.78 1081.24,-588.42"/>
<polygon fill="#63b8ff" stroke="#63b8ff" points="139.94,-575.89 129.67,-578.47 139.31,-582.86 139.94,-575.89"/>
</a>
</g>
</g>
<!-- Node11 -->
<g id="Node000011" class="node">
<title>Node11</title>
<g id="a_Node000011"><a xlink:href="class_properties_panel.html#a8fd53ec3c9f711c3354483e8bb4d0b47" target="_top" xlink:title=" ">
<polygon fill="white" stroke="#666666" points="313.25,-566 163.75,-566 163.75,-534 313.25,-534 313.25,-566"/>
<text xml:space="preserve" text-anchor="start" x="171.75" y="-552.5" font-family="Helvetica,sans-Serif" font-size="10.00">PropertiesPanel::createCombo</text>
<text xml:space="preserve" text-anchor="middle" x="238.5" y="-540.5" font-family="Helvetica,sans-Serif" font-size="10.00">BoxPropertyItem</text>
</a>
</g>
</g>
<!-- Node10&#45;&gt;Node11 -->
<g id="edge14_Node000010_Node000011" class="edge">
<title>Node10&#45;&gt;Node11</title>
<g id="a_edge14_Node000010_Node000011"><a xlink:title=" ">
<path fill="none" stroke="#63b8ff" d="M379.28,-468.27C345.75,-487.88 297.68,-515.98 267.55,-533.6"/>
<polygon fill="#63b8ff" stroke="#63b8ff" points="381.02,-471.31 387.88,-463.24 377.48,-465.27 381.02,-471.31"/>
</a>
</g>
</g>
<!-- Node12 -->
<g id="Node000012" class="node">
<title>Node12</title>
<g id="a_Node000012"><a xlink:href="class_properties_panel.html#a32c2dab00c58ffdcb6a1e3cd829d03c8" target="_top" xlink:title=" ">
<polygon fill="white" stroke="#666666" points="306.88,-353 170.12,-353 170.12,-321 306.88,-321 306.88,-353"/>
<text xml:space="preserve" text-anchor="start" x="178.12" y="-339.5" font-family="Helvetica,sans-Serif" font-size="10.00">PropertiesPanel::createIcon</text>
<text xml:space="preserve" text-anchor="middle" x="238.5" y="-327.5" font-family="Helvetica,sans-Serif" font-size="10.00">ComboBoxPropertyItem</text>
</a>
</g>
</g>
<!-- Node10&#45;&gt;Node12 -->
<g id="edge17_Node000010_Node000012" class="edge">
<title>Node10&#45;&gt;Node12</title>
<g id="a_edge17_Node000010_Node000012"><a xlink:title=" ">
<path fill="none" stroke="#63b8ff" d="M381.17,-423.81C347.11,-402.94 296.91,-372.18 266.31,-353.43"/>
<polygon fill="#63b8ff" stroke="#63b8ff" points="379.1,-426.65 389.45,-428.89 382.76,-420.68 379.1,-426.65"/>
</a>
</g>
</g>
<!-- Node11&#45;&gt;Node3 -->
<g id="edge15_Node000011_Node000003" class="edge">
<title>Node11&#45;&gt;Node3</title>
<g id="a_edge15_Node000011_Node000003"><a xlink:title=" ">
<path fill="none" stroke="#63b8ff" d="M259.61,-574.87C279.66,-597.71 312.69,-630.31 349.25,-646 455.89,-691.76 493.2,-670 609.25,-670 986,-670 986,-670 986,-670 1076.35,-670 1180.03,-655.46 1244.81,-644.61"/>
<polygon fill="#63b8ff" stroke="#63b8ff" points="262.47,-572.83 253.31,-567.51 257.15,-577.38 262.47,-572.83"/>
</a>
</g>
</g>
<!-- Node11&#45;&gt;Node9 -->
<g id="edge16_Node000011_Node000009" class="edge">
<title>Node11&#45;&gt;Node9</title>
<g id="a_edge16_Node000011_Node000009"><a xlink:title=" ">
<path fill="none" stroke="#63b8ff" d="M151.99,-560.9C143.97,-561.92 135.94,-562.94 128.17,-563.93"/>
<polygon fill="#63b8ff" stroke="#63b8ff" points="152.31,-564.39 161.79,-559.65 151.43,-557.44 152.31,-564.39"/>
</a>
</g>
</g>
<!-- Node13 -->
<g id="Node000013" class="node">
<title>Node13</title>
<g id="a_Node000013"><a xlink:href="class_properties_panel.html#adbc7f8deb3a687706dc44ebbd7e39d9d" target="_top" xlink:title=" ">
<polygon fill="white" stroke="#666666" points="127.75,-202 0,-202 0,-170 127.75,-170 127.75,-202"/>
<text xml:space="preserve" text-anchor="start" x="8" y="-188.5" font-family="Helvetica,sans-Serif" font-size="10.00">PropertiesPanel::populate</text>
<text xml:space="preserve" text-anchor="middle" x="63.88" y="-176.5" font-family="Helvetica,sans-Serif" font-size="10.00">ForConnection</text>
</a>
</g>
</g>
<!-- Node12&#45;&gt;Node13 -->
<g id="edge18_Node000012_Node000013" class="edge">
<title>Node12&#45;&gt;Node13</title>
<g id="a_edge18_Node000012_Node000013"><a xlink:title=" ">
<path fill="none" stroke="#63b8ff" d="M210.3,-313.21C174.98,-282.31 114.25,-229.19 83.65,-202.43"/>
<polygon fill="#63b8ff" stroke="#63b8ff" points="207.73,-315.61 217.56,-319.56 212.34,-310.34 207.73,-315.61"/>
</a>
</g>
</g>
<!-- Node13&#45;&gt;Node5 -->
<g id="edge19_Node000013_Node000005" class="edge">
<title>Node13&#45;&gt;Node5</title>
<g id="a_edge19_Node000013_Node000005"><a xlink:title=" ">
<path fill="none" stroke="#63b8ff" d="M121.57,-166C190.55,-143.48 311,-110 417.38,-110 611.25,-110 611.25,-110 611.25,-110 751.9,-110 910.07,-184.6 964.44,-212.57"/>
<polygon fill="#63b8ff" stroke="#63b8ff" points="120.78,-162.57 112.38,-169.03 122.98,-169.22 120.78,-162.57"/>
</a>
</g>
</g>
<!-- Node15 -->
<g id="Node000015" class="node">
<title>Node15</title>
<g id="a_Node000015"><a xlink:href="class_properties_panel.html#a7bc224323f9c626842fdb6a89205c9bc" target="_top" xlink:title=" ">
<polygon fill="white" stroke="#666666" points="486.38,-544 350.38,-544 350.38,-512 486.38,-512 486.38,-544"/>
<text xml:space="preserve" text-anchor="start" x="358.38" y="-530.5" font-family="Helvetica,sans-Serif" font-size="10.00">PropertiesPanel::createLine</text>
<text xml:space="preserve" text-anchor="middle" x="418.38" y="-518.5" font-family="Helvetica,sans-Serif" font-size="10.00">EditPropertyItem</text>
</a>
</g>
</g>
<!-- Node14&#45;&gt;Node15 -->
<g id="edge21_Node000014_Node000015" class="edge">
<title>Node14&#45;&gt;Node15</title>
<g id="a_edge21_Node000014_Node000015"><a xlink:title=" ">
<path fill="none" stroke="#63b8ff" d="M530.09,-540.83C515.69,-539.16 500.79,-537.43 486.77,-535.81"/>
<polygon fill="#63b8ff" stroke="#63b8ff" points="529.67,-544.3 540,-541.98 530.47,-537.35 529.67,-544.3"/>
</a>
</g>
</g>
<!-- Node15&#45;&gt;Node9 -->
<g id="edge22_Node000015_Node000009" class="edge">
<title>Node15&#45;&gt;Node9</title>
<g id="a_edge22_Node000015_Node000009"><a xlink:title=" ">
<path fill="none" stroke="#63b8ff" d="M338.81,-517.77C288.21,-513.45 221.36,-512.01 163.75,-525 137.61,-530.9 110.27,-544.56 90.98,-555.64"/>
<polygon fill="#63b8ff" stroke="#63b8ff" points="338.22,-521.23 348.5,-518.66 338.86,-514.26 338.22,-521.23"/>
</a>
</g>
</g>
<!-- Node16&#45;&gt;Node5 -->
<g id="edge25_Node000016_Node000005" class="edge">
<title>Node16&#45;&gt;Node5</title>
<g id="a_edge25_Node000016_Node000005"><a xlink:title=" ">
<path fill="none" stroke="#63b8ff" d="M499.28,-191.82C613.76,-203 821.9,-218.31 924.11,-222.9"/>
<polygon fill="#63b8ff" stroke="#63b8ff" points="499.62,-188.34 489.33,-190.83 498.93,-195.3 499.62,-188.34"/>
</a>
</g>
</g>
<!-- Node17 -->
<g id="Node000017" class="node">
<title>Node17</title>
<g id="a_Node000017"><a xlink:href="class_properties_panel.html#a9866823e02faefceaae94fc0b0537707" target="_top" xlink:title=" ">
<polygon fill="white" stroke="#666666" points="306.12,-197 170.88,-197 170.88,-165 306.12,-165 306.12,-197"/>
<text xml:space="preserve" text-anchor="start" x="178.88" y="-183.5" font-family="Helvetica,sans-Serif" font-size="10.00">PropertiesPanel::Properties</text>
<text xml:space="preserve" text-anchor="middle" x="238.5" y="-171.5" font-family="Helvetica,sans-Serif" font-size="10.00">Panel</text>
</a>
</g>
</g>
<!-- Node16&#45;&gt;Node17 -->
<g id="edge24_Node000016_Node000017" class="edge">
<title>Node16&#45;&gt;Node17</title>
<g id="a_edge24_Node000016_Node000017"><a xlink:title=" ">
<path fill="none" stroke="#63b8ff" d="M337.66,-181C327.26,-181 316.68,-181 306.52,-181"/>
<polygon fill="#63b8ff" stroke="#63b8ff" points="337.34,-184.5 347.34,-181 337.34,-177.5 337.34,-184.5"/>
</a>
</g>
</g>
<!-- Node18&#45;&gt;Node1 -->
<g id="edge27_Node000018_Node000001" class="edge">
<title>Node18&#45;&gt;Node1</title>
<g id="a_edge27_Node000018_Node000001"><a xlink:title=" ">
<path fill="none" stroke="#63b8ff" d="M891.53,-23.12C958.86,-28.51 1057.85,-35 1144.38,-35 1310.12,-35 1310.12,-35 1310.12,-35 1428.52,-35 1466.81,-79.48 1536.75,-175 1636.12,-310.71 1644.72,-528.01 1645.11,-588.76"/>
<polygon fill="#63b8ff" stroke="#63b8ff" points="891.93,-19.64 881.68,-22.32 891.36,-26.62 891.93,-19.64"/>
</a>
</g>
</g>
<!-- Node19&#45;&gt;Node7 -->
<g id="edge37_Node000019_Node000007" class="edge">
<title>Node19&#45;&gt;Node7</title>
<g id="a_edge37_Node000019_Node000007"><a xlink:title=" ">
<path fill="none" stroke="#63b8ff" d="M771.76,-327.38C750.51,-316.52 723.1,-304.53 697,-299 621.56,-283.02 600.08,-289.94 523.5,-299 508.36,-300.79 492.24,-304 477.31,-307.54"/>
<polygon fill="#63b8ff" stroke="#63b8ff" points="769.85,-330.32 780.33,-331.88 773.11,-324.13 769.85,-330.32"/>
</a>
</g>
</g>
<!-- Node19&#45;&gt;Node10 -->
<g id="edge38_Node000019_Node000010" class="edge">
<title>Node19&#45;&gt;Node10</title>
<g id="a_edge38_Node000019_Node000010"><a xlink:title=" ">
<path fill="none" stroke="#63b8ff" d="M790.77,-374.15C770.61,-398.58 736.26,-434.1 697,-449 628.28,-475.09 542.91,-469.03 485.12,-459.87"/>
<polygon fill="#63b8ff" stroke="#63b8ff" points="793.32,-376.57 796.84,-366.57 787.86,-372.19 793.32,-376.57"/>
</a>
</g>
</g>
<!-- Node19&#45;&gt;Node14 -->
<g id="edge39_Node000019_Node000014" class="edge">
<title>Node19&#45;&gt;Node14</title>
<g id="a_edge39_Node000019_Node000014"><a xlink:title=" ">
<path fill="none" stroke="#63b8ff" d="M790.59,-374.51C769.18,-402.28 732.8,-447.35 697,-482 677.2,-501.16 652.32,-520.43 634.47,-533.54"/>
<polygon fill="#63b8ff" stroke="#63b8ff" points="793.3,-376.72 796.59,-366.65 787.73,-372.47 793.3,-376.72"/>
</a>
</g>
</g>
<!-- Node19&#45;&gt;Node16 -->
<g id="edge40_Node000019_Node000016" class="edge">
<title>Node19&#45;&gt;Node16</title>
<g id="a_edge40_Node000019_Node000016"><a xlink:title=" ">
<path fill="none" stroke="#63b8ff" d="M773.7,-326.6C751.94,-313.58 723.4,-297.34 697,-285 620.07,-249.03 526.98,-216.22 470.51,-197.45"/>
<polygon fill="#63b8ff" stroke="#63b8ff" points="771.83,-329.56 782.2,-331.74 775.45,-323.57 771.83,-329.56"/>
</a>
</g>
</g>
<!-- Node20 -->
<g id="Node000020" class="node">
<title>Node20</title>
<g id="a_Node000020"><a xlink:href="class_properties_panel.html#a74d22cd1ca119cda9cc4ca00b853e88d" target="_top" xlink:title=" ">
<polygon fill="white" stroke="#666666" points="688.38,-390 532.12,-390 532.12,-358 688.38,-358 688.38,-390"/>
<text xml:space="preserve" text-anchor="start" x="540.12" y="-376.5" font-family="Helvetica,sans-Serif" font-size="10.00">PropertiesPanel::handleAttribute</text>
<text xml:space="preserve" text-anchor="middle" x="610.25" y="-364.5" font-family="Helvetica,sans-Serif" font-size="10.00">PropertyChange</text>
</a>
</g>
</g>
<!-- Node19&#45;&gt;Node20 -->
<g id="edge29_Node000019_Node000020" class="edge">
<title>Node19&#45;&gt;Node20</title>
<g id="a_edge29_Node000019_Node000020"><a xlink:title=" ">
<path fill="none" stroke="#63b8ff" d="M736.62,-358.21C721.06,-360.17 704.58,-362.25 688.86,-364.23"/>
<polygon fill="#63b8ff" stroke="#63b8ff" points="736.77,-361.72 746.26,-357 735.9,-354.77 736.77,-361.72"/>
</a>
</g>
</g>
<!-- Node21 -->
<g id="Node000021" class="node">
<title>Node21</title>
<g id="a_Node000021"><a xlink:href="class_properties_panel.html#aa82a2245c62f66554f277c64e643252c" target="_top" xlink:title=" ">
<polygon fill="white" stroke="#666666" points="697,-440 523.5,-440 523.5,-408 697,-408 697,-440"/>
<text xml:space="preserve" text-anchor="start" x="531.5" y="-426.5" font-family="Helvetica,sans-Serif" font-size="10.00">PropertiesPanel::handleRelationship</text>
<text xml:space="preserve" text-anchor="middle" x="610.25" y="-414.5" font-family="Helvetica,sans-Serif" font-size="10.00">EndCardinalityChange</text>
</a>
</g>
</g>
<!-- Node19&#45;&gt;Node21 -->
<g id="edge33_Node000019_Node000021" class="edge">
<title>Node19&#45;&gt;Node21</title>
<g id="a_edge33_Node000019_Node000021"><a xlink:title=" ">
<path fill="none" stroke="#63b8ff" d="M765.84,-370.11C745.21,-379.6 720.12,-390.55 697,-399 688.84,-401.98 680.15,-404.86 671.55,-407.53"/>
<polygon fill="#63b8ff" stroke="#63b8ff" points="767.23,-373.33 774.82,-365.94 764.28,-366.98 767.23,-373.33"/>
</a>
</g>
</g>
<!-- Node22 -->
<g id="Node000022" class="node">
<title>Node22</title>
<g id="a_Node000022"><a xlink:href="class_properties_panel.html#ac2741a5b2cb859b07534b8f7c786359b" target="_top" xlink:title=" ">
<polygon fill="white" stroke="#666666" points="697,-340 523.5,-340 523.5,-308 697,-308 697,-340"/>
<text xml:space="preserve" text-anchor="start" x="531.5" y="-326.5" font-family="Helvetica,sans-Serif" font-size="10.00">PropertiesPanel::handleRelationship</text>
<text xml:space="preserve" text-anchor="middle" x="610.25" y="-314.5" font-family="Helvetica,sans-Serif" font-size="10.00">EndParticipationChange</text>
</a>
</g>
</g>
<!-- Node19&#45;&gt;Node22 -->
<g id="edge35_Node000019_Node000022" class="edge">
<title>Node19&#45;&gt;Node22</title>
<g id="a_edge35_Node000019_Node000022"><a xlink:title=" ">
<path fill="none" stroke="#63b8ff" d="M736.65,-339.79C723.79,-338.17 710.31,-336.48 697.14,-334.82"/>
<polygon fill="#63b8ff" stroke="#63b8ff" points="735.9,-343.23 746.26,-341 736.77,-336.28 735.9,-343.23"/>
</a>
</g>
</g>
<!-- Node20&#45;&gt;Node7 -->
<g id="edge30_Node000020_Node000007" class="edge">
<title>Node20&#45;&gt;Node7</title>
<g id="a_edge30_Node000020_Node000007"><a xlink:title=" ">
<path fill="none" stroke="#63b8ff" d="M535.87,-354.68C518.03,-349.98 499.13,-345 481.85,-340.45"/>
<polygon fill="#63b8ff" stroke="#63b8ff" points="534.79,-358.01 545.35,-357.17 536.57,-351.24 534.79,-358.01"/>
</a>
</g>
</g>
<!-- Node20&#45;&gt;Node10 -->
<g id="edge31_Node000020_Node000010" class="edge">
<title>Node20&#45;&gt;Node10</title>
<g id="a_edge31_Node000020_Node000010"><a xlink:title=" ">
<path fill="none" stroke="#63b8ff" d="M538.05,-393.92C533.1,-395.56 528.21,-397.26 523.5,-399 499.31,-407.93 472.84,-419.91 452.64,-429.54"/>
<polygon fill="#63b8ff" stroke="#63b8ff" points="539.04,-397.28 547.49,-390.89 536.9,-390.61 539.04,-397.28"/>
</a>
</g>
</g>
<!-- Node20&#45;&gt;Node16 -->
<g id="edge32_Node000020_Node000016" class="edge">
<title>Node20&#45;&gt;Node16</title>
<g id="a_edge32_Node000020_Node000016"><a xlink:title=" ">
<path fill="none" stroke="#63b8ff" d="M527.67,-351.95C526.24,-351.01 524.85,-350.03 523.5,-349 509.53,-338.39 451.44,-237.52 428.63,-197.37"/>
<polygon fill="#63b8ff" stroke="#63b8ff" points="525.8,-354.92 536.22,-356.86 529.29,-348.85 525.8,-354.92"/>
</a>
</g>
</g>
<!-- Node21&#45;&gt;Node10 -->
<g id="edge34_Node000021_Node000010" class="edge">
<title>Node21&#45;&gt;Node10</title>
<g id="a_edge34_Node000021_Node000010"><a xlink:title=" ">
<path fill="none" stroke="#63b8ff" d="M511.81,-435.29C502.81,-436.33 493.84,-437.37 485.22,-438.37"/>
<polygon fill="#63b8ff" stroke="#63b8ff" points="512.17,-438.77 521.7,-434.14 511.36,-431.82 512.17,-438.77"/>
</a>
</g>
</g>
<!-- Node22&#45;&gt;Node7 -->
<g id="edge36_Node000022_Node000007" class="edge">
<title>Node22&#45;&gt;Node7</title>
<g id="a_edge36_Node000022_Node000007"><a xlink:title=" ">
<path fill="none" stroke="#63b8ff" d="M511.99,-324C502.44,-324 492.91,-324 483.81,-324"/>
<polygon fill="#63b8ff" stroke="#63b8ff" points="511.69,-327.5 521.69,-324 511.69,-320.5 511.69,-327.5"/>
</a>
</g>
</g>
<!-- Node23&#45;&gt;Node4 -->
<g id="edge42_Node000023_Node000004" class="edge">
<title>Node23&#45;&gt;Node4</title>
<g id="a_edge42_Node000023_Node000004"><a xlink:title=" ">
<path fill="none" stroke="#63b8ff" d="M1233.83,-584.38C1225.78,-584.53 1217.64,-584.68 1209.74,-584.82"/>
<polygon fill="#63b8ff" stroke="#63b8ff" points="1233.68,-587.88 1243.61,-584.2 1233.55,-580.88 1233.68,-587.88"/>
</a>
</g>
</g>
</g>
</svg>

<g id="navigator" transform="translate(0 0)" fill="#404254">
  <rect fill="#f2f5e9" fill-opacity="0.5" stroke="#606060" stroke-width=".5" x="0" y="0" width="60" height="60"/>
  <use id="zoomplus" xlink:href="#zoomPlus" x="17" y="9" onmousedown="handleZoom(evt,'in')"/>
  <use id="zoomminus" xlink:href="#zoomMin" x="42" y="9" onmousedown="handleZoom(evt,'out')"/>
  <use id="reset" xlink:href="#resetDef" x="30" y="36" onmousedown="handleReset()"/>
   <use id="arrowup" xlink:href="#arrowUp" x="0" y="0" onmousedown="handlePan(0,-1)"/>
  <use id="arrowright" xlink:href="#arrowRight" x="0" y="0" onmousedown="handlePan(1,0)"/>
  <use id="arrowdown" xlink:href="#arrowDown" x="0" y="0" onmousedown="handlePan(0,1)"/>
  <use id="arrowleft" xlink:href="#arrowLeft" x="0" y="0" onmousedown="handlePan(-1,0)"/>
</g>
<svg viewBox="0 0 15 15" width="100%" height="30px" preserveAspectRatio="xMaxYMin meet">
 <g id="arrow_out" transform="scale(0.3 0.3)">
  <a xlink:href="class_properties_panel_a90cca2a241daa84841ee3e90d7768c8f_icgraph_org.svg" target="_base">
   <rect id="button" ry="5" rx="5" y="6" x="6" height="38" width="38"
        fill="#f2f5e9" fill-opacity="0.5" stroke="#606060" stroke-width="1.0"/>
   <path id="arrow"
     d="M 11.500037,31.436501 C 11.940474,20.09759 22.043105,11.32322 32.158766,21.979434 L 37.068811,17.246167 C 37.068811,17.246167 37.088388,32 37.088388,32 L 22.160133,31.978069 C 22.160133,31.978069 26.997745,27.140456 26.997745,27.140456 C 18.528582,18.264221 13.291696,25.230495 11.500037,31.436501 z"
     style="fill:#404040;"/>
  </a>
 </g>
</svg>

<style type='text/css'>
<![CDATA[
[data-mouse-over-selected='false'] { opacity: 0.7; }
[data-mouse-over-selected='true']  { opacity: 1.0; }
]]>
</style>
<script type="application/ecmascript"><![CDATA[
document.addEventListener('DOMContentLoaded', (event) => {
  highlightEdges();
  highlightAdjacentNodes();
});
]]></script>
</svg>
