<?xml version="1.0" encoding="UTF-8" standalone="no"?>
<!DOCTYPE svg PUBLIC "-//W3C//DTD SVG 1.1//EN"
 "http://www.w3.org/Graphics/SVG/1.1/DTD/svg11.dtd">
<!-- Generated by graphviz version 14.1.1 (20251213.1925)
 -->
<!-- Title: Relationship Pages: 1 -->
<!--zoomable 796 -->

<svg id="main" version="1.1" xmlns="http://www.w3.org/2000/svg" xmlns:xlink="http://www.w3.org/1999/xlink" xml:space="preserve" onload="init(evt)">

<style type="text/css"><![CDATA[
.node, .edge {opacity: 0.7;}
.node.selected, .edge.selected {opacity: 1;}
.edge:hover path { stroke: red; }
.edge:hover polygon { stroke: red; fill: red; }
]]></style>

<defs>
  <circle id="rim" cx="0" cy="0" r="7"/>
  <circle id="rim2" cx="0" cy="0" r="3.5"/>
  <g id="zoomPlus">
    <use xlink:href="#rim" fill="#404040"><set attributeName="fill" to="#808080" begin="zoomplus.mouseover" end="zoomplus.mouseout"/></use>
    <path d="M-4,0h8M0,-4v8" fill="none" stroke="white" stroke-width="1.5" pointer-events="none"/>
  </g>
  <g id="zoomMin">
    <use xlink:href="#rim" fill="#404040"><set attributeName="fill" to="#808080" begin="zoomminus.mouseover" end="zoomminus.mouseout"/></use>
    <path d="M-4,0h8" fill="none" stroke="white" stroke-width="1.5" pointer-events="none"/>
  </g>
  <g id="arrowUp" transform="translate(30 24)">
    <use xlink:href="#rim"/>
    <path pointer-events="none" fill="none" stroke="white" stroke-width="1.5" d="M0,-3.0v7 M-2.5,-0.5L0,-3.0L2.5,-0.5"/>
  </g>
  <g id="arrowRight" transform="rotate(90) translate(36 -43)">
    <use xlink:href="#rim"/>
    <path pointer-events="none" fill="none" stroke="white" stroke-width="1.5" d="M0,-3.0v7 M-2.5,-0.5L0,-3.0L2.5,-0.5"/>
  </g>
  <g id="arrowDown" transform="rotate(180) translate(-30 -48)">
    <use xlink:href="#rim"/>
    <path pointer-events="none" fill="none" stroke="white" stroke-width="1.5" d="M0,-3.0v7 M-2.5,-0.5L0,-3.0L2.5,-0.5"/>
  </g>
  <g id="arrowLeft" transform="rotate(270) translate(-36 17)">
    <use xlink:href="#rim"/>
    <path pointer-events="none" fill="none" stroke="white" stroke-width="1.5" d="M0,-3.0v7 M-2.5,-0.5L0,-3.0L2.5,-0.5"/>
  </g>
  <g id="resetDef">
    <use xlink:href="#rim2" fill="#404040"><set attributeName="fill" to="#808080" begin="reset.mouseover" end="reset.mouseout"/></use>
  </g>
</defs>
<script type="application/ecmascript">
var viewWidth = 130;
var viewHeight = 796;
var sectionId = 'dynsection-1';
</script>
<script type="application/ecmascript" xlink:href="svg.min.js"/>
<svg id="graph" class="graph">
<g id="viewport">
<title>Relationship</title>
<!-- Node1 -->
<g id="Node000001" class="node">
<title>Node1</title>
<g id="a_Node000001"><a xlink:title="Represents a relationship element in an ERD diagram.">
<polygon fill="#999999" stroke="none" points="112.12,-228 10.12,-228 10.12,0 112.12,0 112.12,-228"/>
<text xml:space="preserve" text-anchor="start" x="34.12" y="-214.5" font-family="Helvetica,sans-Serif" font-size="10.00">Relationship</text>
<text xml:space="preserve" text-anchor="start" x="15.62" y="-198.5" font-family="Helvetica,sans-Serif" font-size="10.00">&#45;</text>
<text xml:space="preserve" text-anchor="start" x="24.12" y="-198.5" font-family="Helvetica,sans-Serif" font-size="10.00">m_isIdentifying</text>
<text xml:space="preserve" text-anchor="start" x="15.62" y="-182.5" font-family="Helvetica,sans-Serif" font-size="10.00">&#45;</text>
<text xml:space="preserve" text-anchor="start" x="24.12" y="-182.5" font-family="Helvetica,sans-Serif" font-size="10.00">m_ends</text>
<text xml:space="preserve" text-anchor="start" x="14.12" y="-166.5" font-family="Helvetica,sans-Serif" font-size="10.00">+</text>
<text xml:space="preserve" text-anchor="start" x="24.12" y="-166.5" font-family="Helvetica,sans-Serif" font-size="10.00">Relationship()</text>
<text xml:space="preserve" text-anchor="start" x="14.12" y="-150.5" font-family="Helvetica,sans-Serif" font-size="10.00">+</text>
<text xml:space="preserve" text-anchor="start" x="24.12" y="-150.5" font-family="Helvetica,sans-Serif" font-size="10.00">Relationship()</text>
<text xml:space="preserve" text-anchor="start" x="14.12" y="-134.5" font-family="Helvetica,sans-Serif" font-size="10.00">+</text>
<text xml:space="preserve" text-anchor="start" x="24.12" y="-134.5" font-family="Helvetica,sans-Serif" font-size="10.00">Relationship()</text>
<text xml:space="preserve" text-anchor="start" x="14.12" y="-118.5" font-family="Helvetica,sans-Serif" font-size="10.00">+</text>
<text xml:space="preserve" text-anchor="start" x="24.12" y="-118.5" font-family="Helvetica,sans-Serif" font-size="10.00">~Relationship()</text>
<text xml:space="preserve" text-anchor="start" x="14.12" y="-102.5" font-family="Helvetica,sans-Serif" font-size="10.00">+</text>
<text xml:space="preserve" text-anchor="start" x="24.12" y="-102.5" font-family="Helvetica,sans-Serif" font-size="10.00">minimumSize()</text>
<text xml:space="preserve" text-anchor="start" x="14.12" y="-86.5" font-family="Helvetica,sans-Serif" font-size="10.00">+</text>
<text xml:space="preserve" text-anchor="start" x="24.12" y="-86.5" font-family="Helvetica,sans-Serif" font-size="10.00">preferredSize()</text>
<text xml:space="preserve" text-anchor="start" x="14.12" y="-70.5" font-family="Helvetica,sans-Serif" font-size="10.00">+</text>
<text xml:space="preserve" text-anchor="start" x="24.12" y="-70.5" font-family="Helvetica,sans-Serif" font-size="10.00">clone()</text>
<text xml:space="preserve" text-anchor="start" x="14.12" y="-54.5" font-family="Helvetica,sans-Serif" font-size="10.00">+</text>
<text xml:space="preserve" text-anchor="start" x="24.12" y="-54.5" font-family="Helvetica,sans-Serif" font-size="10.00">typeDisplayName()</text>
<text xml:space="preserve" text-anchor="start" x="14.12" y="-38.5" font-family="Helvetica,sans-Serif" font-size="10.00">+</text>
<text xml:space="preserve" text-anchor="start" x="24.12" y="-38.5" font-family="Helvetica,sans-Serif" font-size="10.00">ends()</text>
<text xml:space="preserve" text-anchor="start" x="14.12" y="-22.5" font-family="Helvetica,sans-Serif" font-size="10.00">+</text>
<text xml:space="preserve" text-anchor="start" x="24.12" y="-22.5" font-family="Helvetica,sans-Serif" font-size="10.00">addEnd()</text>
<text xml:space="preserve" text-anchor="start" x="24.12" y="-6.5" font-family="Helvetica,sans-Serif" font-size="10.00">and 7 more...</text>
<polygon fill="#666666" stroke="#666666" points="10.12,-210 10.12,-210 112.12,-210 112.12,-210 10.12,-210"/>
<polygon fill="#666666" stroke="#666666" points="10.12,-178 10.12,-178 22.12,-178 22.12,-178 10.12,-178"/>
<polygon fill="#666666" stroke="#666666" points="22.12,-178 22.12,-178 112.12,-178 112.12,-178 22.12,-178"/>
<polygon fill="none" stroke="#666666" points="10.12,0 10.12,-228 112.12,-228 112.12,0 10.12,0"/>
</a>
</g>
</g>
<!-- Node2 -->
<g id="Node000002" class="node">
<title>Node2</title>
<g id="a_Node000002"><a xlink:href="class_basic_element.html" target="_top" xlink:title="Abstract base class for all ERD elements (Model only).">
<polygon fill="white" stroke="none" points="122.25,-700 0,-700 0,-264 122.25,-264 122.25,-700"/>
<text xml:space="preserve" text-anchor="start" x="30.75" y="-686.5" font-family="Helvetica,sans-Serif" font-size="10.00">BasicElement</text>
<text xml:space="preserve" text-anchor="start" x="4" y="-670.5" font-family="Helvetica,sans-Serif" font-size="10.00">+</text>
<text xml:space="preserve" text-anchor="start" x="14" y="-670.5" font-family="Helvetica,sans-Serif" font-size="10.00">id</text>
<text xml:space="preserve" text-anchor="start" x="4" y="-654.5" font-family="Helvetica,sans-Serif" font-size="10.00">+</text>
<text xml:space="preserve" text-anchor="start" x="14" y="-654.5" font-family="Helvetica,sans-Serif" font-size="10.00">name</text>
<text xml:space="preserve" text-anchor="start" x="4" y="-638.5" font-family="Helvetica,sans-Serif" font-size="10.00">+</text>
<text xml:space="preserve" text-anchor="start" x="14" y="-638.5" font-family="Helvetica,sans-Serif" font-size="10.00">type</text>
<text xml:space="preserve" text-anchor="start" x="4" y="-622.5" font-family="Helvetica,sans-Serif" font-size="10.00">+</text>
<text xml:space="preserve" text-anchor="start" x="14" y="-622.5" font-family="Helvetica,sans-Serif" font-size="10.00">position</text>
<text xml:space="preserve" text-anchor="start" x="5.5" y="-606.5" font-family="Helvetica,sans-Serif" font-size="10.00">&#45;</text>
<text xml:space="preserve" text-anchor="start" x="14" y="-606.5" font-family="Helvetica,sans-Serif" font-size="10.00">m_id</text>
<text xml:space="preserve" text-anchor="start" x="5.5" y="-590.5" font-family="Helvetica,sans-Serif" font-size="10.00">&#45;</text>
<text xml:space="preserve" text-anchor="start" x="14" y="-590.5" font-family="Helvetica,sans-Serif" font-size="10.00">m_name</text>
<text xml:space="preserve" text-anchor="start" x="5.5" y="-574.5" font-family="Helvetica,sans-Serif" font-size="10.00">&#45;</text>
<text xml:space="preserve" text-anchor="start" x="14" y="-574.5" font-family="Helvetica,sans-Serif" font-size="10.00">m_type</text>
<text xml:space="preserve" text-anchor="start" x="5.5" y="-558.5" font-family="Helvetica,sans-Serif" font-size="10.00">&#45;</text>
<text xml:space="preserve" text-anchor="start" x="14" y="-558.5" font-family="Helvetica,sans-Serif" font-size="10.00">m_position</text>
<text xml:space="preserve" text-anchor="start" x="5.5" y="-542.5" font-family="Helvetica,sans-Serif" font-size="10.00">&#45;</text>
<text xml:space="preserve" text-anchor="start" x="14" y="-542.5" font-family="Helvetica,sans-Serif" font-size="10.00">m_size</text>
<text xml:space="preserve" text-anchor="start" x="5.5" y="-526.5" font-family="Helvetica,sans-Serif" font-size="10.00">&#45;</text>
<text xml:space="preserve" text-anchor="start" x="14" y="-526.5" font-family="Helvetica,sans-Serif" font-size="10.00">m_connectionPoints</text>
<text xml:space="preserve" text-anchor="start" x="5.5" y="-510.5" font-family="Helvetica,sans-Serif" font-size="10.00">&#45;</text>
<text xml:space="preserve" text-anchor="start" x="14" y="-510.5" font-family="Helvetica,sans-Serif" font-size="10.00">m_observers</text>
<text xml:space="preserve" text-anchor="start" x="5.5" y="-494.5" font-family="Helvetica,sans-Serif" font-size="10.00">&#45;</text>
<text xml:space="preserve" text-anchor="start" x="14" y="-494.5" font-family="Helvetica,sans-Serif" font-size="10.00">m_attributeIds</text>
<text xml:space="preserve" text-anchor="start" x="4" y="-478.5" font-family="Helvetica,sans-Serif" font-size="10.00">+</text>
<text xml:space="preserve" text-anchor="start" x="14" y="-478.5" font-family="Helvetica,sans-Serif" font-size="10.00">BasicElement()</text>
<text xml:space="preserve" text-anchor="start" x="4" y="-462.5" font-family="Helvetica,sans-Serif" font-size="10.00">+</text>
<text xml:space="preserve" text-anchor="start" x="14" y="-462.5" font-family="Helvetica,sans-Serif" font-size="10.00">BasicElement()</text>
<text xml:space="preserve" text-anchor="start" x="4" y="-446.5" font-family="Helvetica,sans-Serif" font-size="10.00">+</text>
<text xml:space="preserve" text-anchor="start" x="14" y="-446.5" font-family="Helvetica,sans-Serif" font-size="10.00">~BasicElement()</text>
<text xml:space="preserve" text-anchor="start" x="4" y="-430.5" font-family="Helvetica,sans-Serif" font-size="10.00">+</text>
<text xml:space="preserve" text-anchor="start" x="14" y="-430.5" font-family="Helvetica,sans-Serif" font-size="10.00">id()</text>
<text xml:space="preserve" text-anchor="start" x="4" y="-414.5" font-family="Helvetica,sans-Serif" font-size="10.00">+</text>
<text xml:space="preserve" text-anchor="start" x="14" y="-414.5" font-family="Helvetica,sans-Serif" font-size="10.00">name()</text>
<text xml:space="preserve" text-anchor="start" x="4" y="-398.5" font-family="Helvetica,sans-Serif" font-size="10.00">+</text>
<text xml:space="preserve" text-anchor="start" x="14" y="-398.5" font-family="Helvetica,sans-Serif" font-size="10.00">type()</text>
<text xml:space="preserve" text-anchor="start" x="4" y="-382.5" font-family="Helvetica,sans-Serif" font-size="10.00">+</text>
<text xml:space="preserve" text-anchor="start" x="14" y="-382.5" font-family="Helvetica,sans-Serif" font-size="10.00">position()</text>
<text xml:space="preserve" text-anchor="start" x="4" y="-366.5" font-family="Helvetica,sans-Serif" font-size="10.00">+</text>
<text xml:space="preserve" text-anchor="start" x="14" y="-366.5" font-family="Helvetica,sans-Serif" font-size="10.00">size()</text>
<text xml:space="preserve" text-anchor="start" x="4" y="-350.5" font-family="Helvetica,sans-Serif" font-size="10.00">+</text>
<text xml:space="preserve" text-anchor="start" x="14" y="-350.5" font-family="Helvetica,sans-Serif" font-size="10.00">boundingRect()</text>
<text xml:space="preserve" text-anchor="start" x="4" y="-334.5" font-family="Helvetica,sans-Serif" font-size="10.00">+</text>
<text xml:space="preserve" text-anchor="start" x="14" y="-334.5" font-family="Helvetica,sans-Serif" font-size="10.00">connectionPoints()</text>
<text xml:space="preserve" text-anchor="start" x="14" y="-318.5" font-family="Helvetica,sans-Serif" font-size="10.00">and 23 more...</text>
<text xml:space="preserve" text-anchor="start" x="4" y="-302.5" font-family="Helvetica,sans-Serif" font-size="10.00">+</text>
<text xml:space="preserve" text-anchor="start" x="14" y="-302.5" font-family="Helvetica,sans-Serif" font-size="10.00">elementTypeToString()</text>
<text xml:space="preserve" text-anchor="start" x="4.38" y="-286.5" font-family="Helvetica,sans-Serif" font-size="10.00">#</text>
<text xml:space="preserve" text-anchor="start" x="14" y="-286.5" font-family="Helvetica,sans-Serif" font-size="10.00">notifyObservers()</text>
<text xml:space="preserve" text-anchor="start" x="4.38" y="-270.5" font-family="Helvetica,sans-Serif" font-size="10.00">#</text>
<text xml:space="preserve" text-anchor="start" x="14" y="-270.5" font-family="Helvetica,sans-Serif" font-size="10.00">notifyPositionChanged()</text>
<polygon fill="#666666" stroke="#666666" points="0,-682 0,-682 122.25,-682 122.25,-682 0,-682"/>
<polygon fill="#666666" stroke="#666666" points="0,-490 0,-490 12,-490 12,-490 0,-490"/>
<polygon fill="#666666" stroke="#666666" points="12,-490 12,-490 122.25,-490 122.25,-490 12,-490"/>
<polygon fill="none" stroke="#666666" points="0,-264 0,-700 122.25,-700 122.25,-264 0,-264"/>
</a>
</g>
</g>
<!-- Node2&#45;&gt;Node1 -->
<g id="edge1_Node000001_Node000002" class="edge">
<title>Node2&#45;&gt;Node1</title>
<g id="a_edge1_Node000001_Node000002"><a xlink:title=" ">
<path fill="none" stroke="#63b8ff" d="M61.12,-252.79C61.12,-244.21 61.12,-235.78 61.12,-227.57"/>
<polygon fill="none" stroke="#63b8ff" points="57.63,-252.62 61.13,-262.62 64.63,-252.62 57.63,-252.62"/>
</a>
</g>
</g>
<!-- Node3 -->
<g id="Node000003" class="node">
<title>Node3</title>
<g id="a_Node000003"><a xlink:title=" ">
<polygon fill="white" stroke="none" points="83.12,-788 39.12,-788 39.12,-736 83.12,-736 83.12,-788"/>
<text xml:space="preserve" text-anchor="start" x="43.12" y="-774.5" font-family="Helvetica,sans-Serif" font-size="10.00">QObject</text>
<text xml:space="preserve" text-anchor="start" x="59.62" y="-758.5" font-family="Helvetica,sans-Serif" font-size="10.00"> </text>
<text xml:space="preserve" text-anchor="start" x="59.62" y="-742.5" font-family="Helvetica,sans-Serif" font-size="10.00"> </text>
<polygon fill="#666666" stroke="#666666" points="39.12,-770 39.12,-770 83.12,-770 83.12,-770 39.12,-770"/>
<polygon fill="#666666" stroke="#666666" points="39.12,-754 39.12,-754 83.12,-754 83.12,-754 39.12,-754"/>
<polygon fill="none" stroke="#666666" points="39.12,-736 39.12,-788 83.12,-788 83.12,-736 39.12,-736"/>
</a>
</g>
</g>
<!-- Node3&#45;&gt;Node2 -->
<g id="edge2_Node000002_Node000003" class="edge">
<title>Node3&#45;&gt;Node2</title>
<g id="a_edge2_Node000002_Node000003"><a xlink:title=" ">
<path fill="none" stroke="#63b8ff" d="M61.12,-724.93C61.12,-717.39 61.12,-708.94 61.12,-699.83"/>
<polygon fill="none" stroke="#63b8ff" points="57.63,-724.82 61.13,-734.82 64.63,-724.82 57.63,-724.82"/>
</a>
</g>
</g>
</g>
</svg>

<g id="navigator" transform="translate(0 0)" fill="#404254">
  <rect fill="#f2f5e9" fill-opacity="0.5" stroke="#606060" stroke-width=".5" x="0" y="0" width="60" height="60"/>
  <use id="zoomplus" xlink:href="#zoomPlus" x="17" y="9" onmousedown="handleZoom(evt,'in')"/>
  <use id="zoomminus" xlink:href="#zoomMin" x="42" y="9" onmousedown="handleZoom(evt,'out')"/>
  <use id="reset" xlink:href="#resetDef" x="30" y="36" onmousedown="handleReset()"/>
   <use id="arrowup" xlink:href="#arrowUp" x="0" y="0" onmousedown="handlePan(0,-1)"/>
  <use id="arrowright" xlink:href="#arrowRight" x="0" y="0" onmousedown="handlePan(1,0)"/>
  <use id="arrowdown" xlink:href="#arrowDown" x="0" y="0" onmousedown="handlePan(0,1)"/>
  <use id="arrowleft" xlink:href="#arrowLeft" x="0" y="0" onmousedown="handlePan(-1,0)"/>
</g>
<svg viewBox="0 0 15 15" width="100%" height="30px" preserveAspectRatio="xMaxYMin meet">
 <g id="arrow_out" transform="scale(0.3 0.3)">
  <a xlink:href="class_relationship__coll__graph_org.svg" target="_base">
   <rect id="button" ry="5" rx="5" y="6" x="6" height="38" width="38"
        fill="#f2f5e9" fill-opacity="0.5" stroke="#606060" stroke-width="1.0"/>
   <path id="arrow"
     d="M 11.500037,31.436501 C 11.940474,20.09759 22.043105,11.32322 32.158766,21.979434 L 37.068811,17.246167 C 37.068811,17.246167 37.088388,32 37.088388,32 L 22.160133,31.978069 C 22.160133,31.978069 26.997745,27.140456 26.997745,27.140456 C 18.528582,18.264221 13.291696,25.230495 11.500037,31.436501 z"
     style="fill:#404040;"/>
  </a>
 </g>
</svg>

<style type='text/css'>
<![CDATA[
[data-mouse-over-selected='false'] { opacity: 0.7; }
[data-mouse-over-selected='true']  { opacity: 1.0; }
]]>
</style>
<script type="application/ecmascript"><![CDATA[
document.addEventListener('DOMContentLoaded', (event) => {
  highlightEdges();
  highlightAdjacentNodes();
});
]]></script>
</svg>
