<?xml version="1.0" encoding="UTF-8" standalone="no"?>
<!DOCTYPE svg PUBLIC "-//W3C//DTD SVG 1.1//EN"
 "http://www.w3.org/Graphics/SVG/1.1/DTD/svg11.dtd">
<!-- Generated by graphviz version 14.1.1 (20251213.1925)
 -->
<!-- Title: DiagramScene::pasteFromClipboard Pages: 1 -->
<svg width="954pt" height="386pt"
 viewBox="0.00 0.00 954.00 386.00" xmlns="http://www.w3.org/2000/svg" xmlns:xlink="http://www.w3.org/1999/xlink">
<g id="graph0" class="graph" transform="scale(1 1) rotate(0) translate(4 382)">
<title>DiagramScene::pasteFromClipboard</title>
<!-- Node1 -->
<g id="Node000001" class="node">
<title>Node1</title>
<g id="a_Node000001"><a xlink:title=" ">
<polygon fill="#999999" stroke="#666666" points="174.25,-212 0,-212 0,-192 174.25,-192 174.25,-212"/>
<text xml:space="preserve" text-anchor="middle" x="87.12" y="-198.5" font-family="Helvetica,sans-Serif" font-size="10.00">DiagramScene::pasteFromClipboard</text>
</a>
</g>
</g>
<!-- Node2 -->
<g id="Node000002" class="node">
<title>Node2</title>
<g id="a_Node000002"><a xlink:href="class_diagram_scene.html#a795592348d4dcbd78d984db93c2fbedb" target="_top" xlink:title=" ">
<polygon fill="white" stroke="#666666" points="364.25,-328 212.5,-328 212.5,-308 364.25,-308 364.25,-328"/>
<text xml:space="preserve" text-anchor="middle" x="288.38" y="-314.5" font-family="Helvetica,sans-Serif" font-size="10.00">DiagramScene::addConnection</text>
</a>
</g>
</g>
<!-- Node1&#45;&gt;Node2 -->
<g id="edge1_Node000001_Node000002" class="edge">
<title>Node1&#45;&gt;Node2</title>
<g id="a_edge1_Node000001_Node000002"><a xlink:title=" ">
<path fill="none" stroke="#63b8ff" d="M99.39,-212.43C119.96,-230.98 165.62,-269.94 210.25,-293 218.34,-297.18 227.27,-300.84 236.09,-303.99"/>
<polygon fill="#63b8ff" stroke="#63b8ff" points="234.71,-307.21 245.3,-307.08 236.94,-300.58 234.71,-307.21"/>
</a>
</g>
</g>
<!-- Node7 -->
<g id="Node000007" class="node">
<title>Node7</title>
<g id="a_Node000007"><a xlink:href="class_diagram_scene.html#ab3f76238d2c252f2918047140d87dd23" target="_top" xlink:title=" ">
<polygon fill="white" stroke="#666666" points="357.5,-284 219.25,-284 219.25,-264 357.5,-264 357.5,-284"/>
<text xml:space="preserve" text-anchor="middle" x="288.38" y="-270.5" font-family="Helvetica,sans-Serif" font-size="10.00">DiagramScene::addElement</text>
</a>
</g>
</g>
<!-- Node1&#45;&gt;Node7 -->
<g id="edge6_Node000001_Node000007" class="edge">
<title>Node1&#45;&gt;Node7</title>
<g id="a_edge6_Node000001_Node000007"><a xlink:title=" ">
<path fill="none" stroke="#63b8ff" d="M114.18,-212.5C138.8,-222.3 176.84,-237.17 210.25,-249 220.79,-252.73 232.21,-256.55 242.95,-260.05"/>
<polygon fill="#63b8ff" stroke="#63b8ff" points="241.8,-263.36 252.39,-263.1 243.95,-256.7 241.8,-263.36"/>
</a>
</g>
</g>
<!-- Node9 -->
<g id="Node000009" class="node">
<title>Node9</title>
<g id="a_Node000009"><a xlink:href="class_diagram_scene.html#a4d84b4d068e1c3ee53f9f9f8c6e7a94f" target="_top" xlink:title=" ">
<polygon fill="white" stroke="#666666" points="366.5,-240 210.25,-240 210.25,-208 366.5,-208 366.5,-240"/>
<text xml:space="preserve" text-anchor="start" x="218.25" y="-226.5" font-family="Helvetica,sans-Serif" font-size="10.00">DiagramScene::addRelationship</text>
<text xml:space="preserve" text-anchor="middle" x="288.38" y="-214.5" font-family="Helvetica,sans-Serif" font-size="10.00">Connection</text>
</a>
</g>
</g>
<!-- Node1&#45;&gt;Node9 -->
<g id="edge8_Node000001_Node000009" class="edge">
<title>Node1&#45;&gt;Node9</title>
<g id="a_edge8_Node000001_Node000009"><a xlink:title=" ">
<path fill="none" stroke="#63b8ff" d="M174.65,-211.55C182.64,-212.44 190.75,-213.33 198.77,-214.22"/>
<polygon fill="#63b8ff" stroke="#63b8ff" points="198.18,-217.67 208.51,-215.29 198.95,-210.72 198.18,-217.67"/>
</a>
</g>
</g>
<!-- Node10 -->
<g id="Node000010" class="node">
<title>Node10</title>
<g id="a_Node000010"><a xlink:href="class_diagram_scene.html#add93af6ff55d3453051b8c057cd4bdcb" target="_top" xlink:title=" ">
<polygon fill="white" stroke="#666666" points="362.38,-190 214.38,-190 214.38,-170 362.38,-170 362.38,-190"/>
<text xml:space="preserve" text-anchor="middle" x="288.38" y="-176.5" font-family="Helvetica,sans-Serif" font-size="10.00">DiagramScene::clearSelection</text>
</a>
</g>
</g>
<!-- Node1&#45;&gt;Node10 -->
<g id="edge9_Node000001_Node000010" class="edge">
<title>Node1&#45;&gt;Node10</title>
<g id="a_edge9_Node000001_Node000010"><a xlink:title=" ">
<path fill="none" stroke="#63b8ff" d="M174.65,-192.45C183.98,-191.42 193.47,-190.37 202.78,-189.34"/>
<polygon fill="#63b8ff" stroke="#63b8ff" points="202.97,-192.84 212.52,-188.26 202.2,-185.88 202.97,-192.84"/>
</a>
</g>
</g>
<!-- Node17 -->
<g id="Node000017" class="node">
<title>Node17</title>
<g id="a_Node000017"><a xlink:href="class_diagram_scene.html#aa7d8cdf9568c51ab910df9d5630093b7" target="_top" xlink:title=" ">
<polygon fill="white" stroke="#666666" points="558,-114 409.25,-114 409.25,-94 558,-94 558,-114"/>
<text xml:space="preserve" text-anchor="middle" x="483.62" y="-100.5" font-family="Helvetica,sans-Serif" font-size="10.00">DiagramScene::selectElement</text>
</a>
</g>
</g>
<!-- Node1&#45;&gt;Node17 -->
<g id="edge25_Node000001_Node000017" class="edge">
<title>Node1&#45;&gt;Node17</title>
<g id="a_edge25_Node000001_Node000017"><a xlink:title=" ">
<path fill="none" stroke="#63b8ff" d="M115.97,-191.61C140.54,-182.69 177.44,-169.91 210.25,-161 277.86,-142.65 356.27,-126.8 411.55,-116.5"/>
<polygon fill="#63b8ff" stroke="#63b8ff" points="411.95,-119.99 421.15,-114.73 410.68,-113.1 411.95,-119.99"/>
</a>
</g>
</g>
<!-- Node22 -->
<g id="Node000022" class="node">
<title>Node22</title>
<g id="a_Node000022"><a xlink:href="class_diagram_scene.html#a9413548fb3f634a36e7c6e5e03f48692" target="_top" xlink:title=" ">
<polygon fill="white" stroke="#666666" points="364.25,-98 212.5,-98 212.5,-66 364.25,-66 364.25,-98"/>
<text xml:space="preserve" text-anchor="start" x="220.5" y="-84.5" font-family="Helvetica,sans-Serif" font-size="10.00">DiagramScene::findConnection</text>
<text xml:space="preserve" text-anchor="middle" x="288.38" y="-72.5" font-family="Helvetica,sans-Serif" font-size="10.00">PointInClonedElement</text>
</a>
</g>
</g>
<!-- Node1&#45;&gt;Node22 -->
<g id="edge23_Node000001_Node000022" class="edge">
<title>Node1&#45;&gt;Node22</title>
<g id="a_edge23_Node000001_Node000022"><a xlink:title=" ">
<path fill="none" stroke="#63b8ff" d="M103.28,-191.59C126.11,-176.06 170.85,-146.16 210.25,-123 221.36,-116.47 233.59,-109.76 244.98,-103.7"/>
<polygon fill="#63b8ff" stroke="#63b8ff" points="246.58,-106.81 253.8,-99.06 243.32,-100.62 246.58,-106.81"/>
</a>
</g>
</g>
<!-- Node3 -->
<g id="Node000003" class="node">
<title>Node3</title>
<g id="a_Node000003"><a xlink:href="class_diagram_scene.html#a355fffd036fbfb751f2d9ada2b9eacf5" target="_top" xlink:title=" ">
<polygon fill="white" stroke="#666666" points="559.5,-340 407.75,-340 407.75,-308 559.5,-308 559.5,-340"/>
<text xml:space="preserve" text-anchor="start" x="415.75" y="-326.5" font-family="Helvetica,sans-Serif" font-size="10.00">DiagramScene::handleAttribute</text>
<text xml:space="preserve" text-anchor="middle" x="483.62" y="-314.5" font-family="Helvetica,sans-Serif" font-size="10.00">Connection</text>
</a>
</g>
</g>
<!-- Node2&#45;&gt;Node3 -->
<g id="edge2_Node000002_Node000003" class="edge">
<title>Node2&#45;&gt;Node3</title>
<g id="a_edge2_Node000002_Node000003"><a xlink:title=" ">
<path fill="none" stroke="#63b8ff" d="M364.64,-320.34C375,-320.66 385.69,-320.99 396.22,-321.32"/>
<polygon fill="#63b8ff" stroke="#63b8ff" points="395.94,-324.81 406.05,-321.62 396.16,-317.81 395.94,-324.81"/>
</a>
</g>
</g>
<!-- Node4 -->
<g id="Node000004" class="node">
<title>Node4</title>
<g id="a_Node000004"><a xlink:href="class_connection_line.html#ab11952b505976244aabc575e0ec7b118" target="_top" xlink:title=" ">
<polygon fill="white" stroke="#666666" points="764.12,-378 607.88,-378 607.88,-358 764.12,-358 764.12,-378"/>
<text xml:space="preserve" text-anchor="middle" x="686" y="-364.5" font-family="Helvetica,sans-Serif" font-size="10.00">ConnectionLine::getEndElement</text>
</a>
</g>
</g>
<!-- Node3&#45;&gt;Node4 -->
<g id="edge3_Node000003_Node000004" class="edge">
<title>Node3&#45;&gt;Node4</title>
<g id="a_edge3_Node000003_Node000004"><a xlink:title=" ">
<path fill="none" stroke="#63b8ff" d="M559.52,-340.45C581.47,-345.27 605.15,-350.47 625.96,-355.04"/>
<polygon fill="#63b8ff" stroke="#63b8ff" points="625.2,-358.45 635.72,-357.18 626.7,-351.62 625.2,-358.45"/>
</a>
</g>
</g>
<!-- Node5 -->
<g id="Node000005" class="node">
<title>Node5</title>
<g id="a_Node000005"><a xlink:href="class_connection_line.html#ad957be37b7bbb9250366225fd357a5a6" target="_top" xlink:title=" ">
<polygon fill="white" stroke="#666666" points="748,-340 624,-340 624,-308 748,-308 748,-340"/>
<text xml:space="preserve" text-anchor="start" x="632" y="-326.5" font-family="Helvetica,sans-Serif" font-size="10.00">ConnectionLine::getStart</text>
<text xml:space="preserve" text-anchor="middle" x="686" y="-314.5" font-family="Helvetica,sans-Serif" font-size="10.00">Element</text>
</a>
</g>
</g>
<!-- Node3&#45;&gt;Node5 -->
<g id="edge4_Node000003_Node000005" class="edge">
<title>Node3&#45;&gt;Node5</title>
<g id="a_edge4_Node000003_Node000005"><a xlink:title=" ">
<path fill="none" stroke="#63b8ff" d="M559.81,-324C577.12,-324 595.49,-324 612.67,-324"/>
<polygon fill="#63b8ff" stroke="#63b8ff" points="612.26,-327.5 622.26,-324 612.26,-320.5 612.26,-327.5"/>
</a>
</g>
</g>
<!-- Node6 -->
<g id="Node000006" class="node">
<title>Node6</title>
<g id="a_Node000006"><a xlink:href="class_connection_line.html#aea85162c28f293b1df0cce97d57bb471" target="_top" xlink:title=" ">
<polygon fill="white" stroke="#666666" points="745,-290 627,-290 627,-270 745,-270 745,-290"/>
<text xml:space="preserve" text-anchor="middle" x="686" y="-276.5" font-family="Helvetica,sans-Serif" font-size="10.00">ConnectionLine::isValid</text>
</a>
</g>
</g>
<!-- Node3&#45;&gt;Node6 -->
<g id="edge5_Node000003_Node000006" class="edge">
<title>Node3&#45;&gt;Node6</title>
<g id="a_edge5_Node000003_Node000006"><a xlink:title=" ">
<path fill="none" stroke="#63b8ff" d="M559.52,-307.55C581.47,-302.73 605.15,-297.53 625.96,-292.96"/>
<polygon fill="#63b8ff" stroke="#63b8ff" points="626.7,-296.38 635.72,-290.82 625.2,-289.55 626.7,-296.38"/>
</a>
</g>
</g>
<!-- Node8 -->
<g id="Node000008" class="node">
<title>Node8</title>
<g id="a_Node000008"><a xlink:href="class_diagram_scene.html#ad97223f92ae9cce97857ac5c45c1a3b6" target="_top" xlink:title=" ">
<polygon fill="white" stroke="#666666" points="558,-290 409.25,-290 409.25,-270 558,-270 558,-290"/>
<text xml:space="preserve" text-anchor="middle" x="483.62" y="-276.5" font-family="Helvetica,sans-Serif" font-size="10.00">DiagramScene::elementAdded</text>
</a>
</g>
</g>
<!-- Node7&#45;&gt;Node8 -->
<g id="edge7_Node000007_Node000008" class="edge">
<title>Node7&#45;&gt;Node8</title>
<g id="a_edge7_Node000007_Node000008"><a xlink:title=" ">
<path fill="none" stroke="#63b8ff" d="M357.78,-276.12C370.76,-276.53 384.48,-276.95 397.89,-277.37"/>
<polygon fill="#63b8ff" stroke="#63b8ff" points="397.45,-280.86 407.55,-277.67 397.66,-273.86 397.45,-280.86"/>
</a>
</g>
</g>
<!-- Node11 -->
<g id="Node000011" class="node">
<title>Node11</title>
<g id="a_Node000011"><a xlink:href="class_diagram_scene.html#a496c60851a94026b46ba80b647e4eb47" target="_top" xlink:title=" ">
<polygon fill="white" stroke="#666666" points="552.75,-252 414.5,-252 414.5,-220 552.75,-220 552.75,-252"/>
<text xml:space="preserve" text-anchor="start" x="422.5" y="-238.5" font-family="Helvetica,sans-Serif" font-size="10.00">DiagramScene::getSelected</text>
<text xml:space="preserve" text-anchor="middle" x="483.62" y="-226.5" font-family="Helvetica,sans-Serif" font-size="10.00">Connections</text>
</a>
</g>
</g>
<!-- Node10&#45;&gt;Node11 -->
<g id="edge10_Node000010_Node000011" class="edge">
<title>Node10&#45;&gt;Node11</title>
<g id="a_edge10_Node000010_Node000011"><a xlink:title=" ">
<path fill="none" stroke="#63b8ff" d="M334.4,-190.45C344.97,-193.08 356.17,-196.01 366.5,-199 382.7,-203.69 386.45,-205.82 402.5,-211 407.82,-212.72 413.35,-214.48 418.91,-216.24"/>
<polygon fill="#63b8ff" stroke="#63b8ff" points="417.53,-219.48 428.12,-219.15 419.64,-212.8 417.53,-219.48"/>
</a>
</g>
</g>
<!-- Node12 -->
<g id="Node000012" class="node">
<title>Node12</title>
<g id="a_Node000012"><a xlink:href="class_diagram_scene.html#aef557b645a95aaa376592146d4c6c60e" target="_top" xlink:title=" ">
<polygon fill="white" stroke="#666666" points="552.75,-202 414.5,-202 414.5,-170 552.75,-170 552.75,-202"/>
<text xml:space="preserve" text-anchor="start" x="422.5" y="-188.5" font-family="Helvetica,sans-Serif" font-size="10.00">DiagramScene::getSelected</text>
<text xml:space="preserve" text-anchor="middle" x="483.62" y="-176.5" font-family="Helvetica,sans-Serif" font-size="10.00">Elements</text>
</a>
</g>
</g>
<!-- Node10&#45;&gt;Node12 -->
<g id="edge11_Node000010_Node000012" class="edge">
<title>Node10&#45;&gt;Node12</title>
<g id="a_edge11_Node000010_Node000012"><a xlink:title=" ">
<path fill="none" stroke="#63b8ff" d="M362.71,-182.28C375.76,-182.68 389.41,-183.11 402.63,-183.52"/>
<polygon fill="#63b8ff" stroke="#63b8ff" points="402.5,-187.01 412.6,-183.83 402.72,-180.02 402.5,-187.01"/>
</a>
</g>
</g>
<!-- Node13 -->
<g id="Node000013" class="node">
<title>Node13</title>
<g id="a_Node000013"><a xlink:href="class_diagram_scene.html#ac7268f1b5870d5c67f54057e6638bcec" target="_top" xlink:title=" ">
<polygon fill="white" stroke="#666666" points="564.75,-152 402.5,-152 402.5,-132 564.75,-132 564.75,-152"/>
<text xml:space="preserve" text-anchor="middle" x="483.62" y="-138.5" font-family="Helvetica,sans-Serif" font-size="10.00">DiagramScene::selectConnection</text>
</a>
</g>
</g>
<!-- Node10&#45;&gt;Node13 -->
<g id="edge12_Node000010_Node000013" class="edge">
<title>Node10&#45;&gt;Node13</title>
<g id="a_edge12_Node000010_Node000013"><a xlink:title=" ">
<path fill="none" stroke="#63b8ff" d="M342.69,-169.52C366.14,-164.91 393.87,-159.45 418.44,-154.62"/>
<polygon fill="#63b8ff" stroke="#63b8ff" points="418.86,-158.11 428,-152.74 417.51,-151.24 418.86,-158.11"/>
</a>
</g>
</g>
<!-- Node10&#45;&gt;Node17 -->
<g id="edge16_Node000010_Node000017" class="edge">
<title>Node10&#45;&gt;Node17</title>
<g id="a_edge16_Node000010_Node000017"><a xlink:title=" ">
<path fill="none" stroke="#63b8ff" d="M323.77,-169.56C337.48,-164.77 353.14,-158.48 366.5,-151 384.19,-141.1 384.22,-131.76 402.5,-123 406.27,-121.19 410.22,-119.55 414.26,-118.06"/>
<polygon fill="#63b8ff" stroke="#63b8ff" points="415.29,-121.41 423.68,-114.94 413.09,-114.76 415.29,-121.41"/>
</a>
</g>
</g>
<!-- Node14 -->
<g id="Node000014" class="node">
<title>Node14</title>
<g id="a_Node000014"><a xlink:href="class_diagram_scene.html#a5f3d68221bac825f2b027d638d25fa49" target="_top" xlink:title=" ">
<polygon fill="white" stroke="#666666" points="752.88,-252 619.12,-252 619.12,-220 752.88,-220 752.88,-252"/>
<text xml:space="preserve" text-anchor="start" x="627.12" y="-238.5" font-family="Helvetica,sans-Serif" font-size="10.00">DiagramScene::connection</text>
<text xml:space="preserve" text-anchor="middle" x="686" y="-226.5" font-family="Helvetica,sans-Serif" font-size="10.00">Deselected</text>
</a>
</g>
</g>
<!-- Node13&#45;&gt;Node14 -->
<g id="edge13_Node000013_Node000014" class="edge">
<title>Node13&#45;&gt;Node14</title>
<g id="a_edge13_Node000013_Node000014"><a xlink:title=" ">
<path fill="none" stroke="#63b8ff" d="M548.12,-152.47C553.99,-154.77 559.64,-157.58 564.75,-161 587.51,-176.23 578.43,-195.14 600.75,-211 603.37,-212.86 606.14,-214.59 609,-216.19"/>
<polygon fill="#63b8ff" stroke="#63b8ff" points="607.18,-219.19 617.69,-220.48 610.28,-212.92 607.18,-219.19"/>
</a>
</g>
</g>
<!-- Node15 -->
<g id="Node000015" class="node">
<title>Node15</title>
<g id="a_Node000015"><a xlink:href="class_diagram_scene.html#ac397b05d6318f8b7c9366a8b857ed98c" target="_top" xlink:title=" ">
<polygon fill="white" stroke="#666666" points="752.88,-202 619.12,-202 619.12,-170 752.88,-170 752.88,-202"/>
<text xml:space="preserve" text-anchor="start" x="627.12" y="-188.5" font-family="Helvetica,sans-Serif" font-size="10.00">DiagramScene::connection</text>
<text xml:space="preserve" text-anchor="middle" x="686" y="-176.5" font-family="Helvetica,sans-Serif" font-size="10.00">Selected</text>
</a>
</g>
</g>
<!-- Node13&#45;&gt;Node15 -->
<g id="edge14_Node000013_Node000015" class="edge">
<title>Node13&#45;&gt;Node15</title>
<g id="a_edge14_Node000013_Node000015"><a xlink:title=" ">
<path fill="none" stroke="#63b8ff" d="M532.37,-152.48C554.85,-157.42 582.25,-163.44 607.59,-169"/>
<polygon fill="#63b8ff" stroke="#63b8ff" points="606.68,-172.39 617.2,-171.11 608.19,-165.55 606.68,-172.39"/>
</a>
</g>
</g>
<!-- Node16 -->
<g id="Node000016" class="node">
<title>Node16</title>
<g id="a_Node000016"><a xlink:href="class_diagram_scene.html#a7dbb09a9acecc803601560e50ad720ea" target="_top" xlink:title=" ">
<polygon fill="white" stroke="#666666" points="768.25,-152 603.75,-152 603.75,-132 768.25,-132 768.25,-152"/>
<text xml:space="preserve" text-anchor="middle" x="686" y="-138.5" font-family="Helvetica,sans-Serif" font-size="10.00">DiagramScene::selectionChanged</text>
</a>
</g>
</g>
<!-- Node13&#45;&gt;Node16 -->
<g id="edge15_Node000013_Node000016" class="edge">
<title>Node13&#45;&gt;Node16</title>
<g id="a_edge15_Node000013_Node000016"><a xlink:title=" ">
<path fill="none" stroke="#63b8ff" d="M564.97,-142C573.85,-142 582.95,-142 591.97,-142"/>
<polygon fill="#63b8ff" stroke="#63b8ff" points="591.81,-145.5 601.81,-142 591.81,-138.5 591.81,-145.5"/>
</a>
</g>
</g>
<!-- Node17&#45;&gt;Node16 -->
<g id="edge22_Node000017_Node000016" class="edge">
<title>Node17&#45;&gt;Node16</title>
<g id="a_edge22_Node000017_Node000016"><a xlink:title=" ">
<path fill="none" stroke="#63b8ff" d="M539.91,-114.48C564.33,-119.12 593.24,-124.6 618.79,-129.44"/>
<polygon fill="#63b8ff" stroke="#63b8ff" points="617.93,-132.84 628.41,-131.27 619.24,-125.97 617.93,-132.84"/>
</a>
</g>
</g>
<!-- Node18 -->
<g id="Node000018" class="node">
<title>Node18</title>
<g id="a_Node000018"><a xlink:href="class_diagram_scene.html#a065ce2ec3d83e05c486ae418eaf6320f" target="_top" xlink:title=" ">
<polygon fill="white" stroke="#666666" points="771.25,-114 600.75,-114 600.75,-94 771.25,-94 771.25,-114"/>
<text xml:space="preserve" text-anchor="middle" x="686" y="-100.5" font-family="Helvetica,sans-Serif" font-size="10.00">DiagramScene::elementDeselected</text>
</a>
</g>
</g>
<!-- Node17&#45;&gt;Node18 -->
<g id="edge17_Node000017_Node000018" class="edge">
<title>Node17&#45;&gt;Node18</title>
<g id="a_edge17_Node000017_Node000018"><a xlink:title=" ">
<path fill="none" stroke="#63b8ff" d="M558.38,-104C568.46,-104 578.93,-104 589.33,-104"/>
<polygon fill="#63b8ff" stroke="#63b8ff" points="589.05,-107.5 599.05,-104 589.05,-100.5 589.05,-107.5"/>
</a>
</g>
</g>
<!-- Node19 -->
<g id="Node000019" class="node">
<title>Node19</title>
<g id="a_Node000019"><a xlink:href="class_diagram_scene.html#a15719115f3f2f26120243d71999dcfea" target="_top" xlink:title=" ">
<polygon fill="white" stroke="#666666" points="765.62,-76 606.38,-76 606.38,-56 765.62,-56 765.62,-76"/>
<text xml:space="preserve" text-anchor="middle" x="686" y="-62.5" font-family="Helvetica,sans-Serif" font-size="10.00">DiagramScene::elementSelected</text>
</a>
</g>
</g>
<!-- Node17&#45;&gt;Node19 -->
<g id="edge18_Node000017_Node000019" class="edge">
<title>Node17&#45;&gt;Node19</title>
<g id="a_edge18_Node000017_Node000019"><a xlink:title=" ">
<path fill="none" stroke="#63b8ff" d="M539.91,-93.52C564.33,-88.88 593.24,-83.4 618.79,-78.56"/>
<polygon fill="#63b8ff" stroke="#63b8ff" points="619.24,-82.03 628.41,-76.73 617.93,-75.16 619.24,-82.03"/>
</a>
</g>
</g>
<!-- Node20 -->
<g id="Node000020" class="node">
<title>Node20</title>
<g id="a_Node000020"><a xlink:href="class_diagram_scene.html#a45f18c15840085ffda39cfc9229a15ee" target="_top" xlink:title=" ">
<polygon fill="white" stroke="#666666" points="766.38,-20 605.62,-20 605.62,0 766.38,0 766.38,-20"/>
<text xml:space="preserve" text-anchor="middle" x="686" y="-6.5" font-family="Helvetica,sans-Serif" font-size="10.00">DiagramScene::findGraphicsItem</text>
</a>
</g>
</g>
<!-- Node17&#45;&gt;Node20 -->
<g id="edge19_Node000017_Node000020" class="edge">
<title>Node17&#45;&gt;Node20</title>
<g id="a_edge19_Node000017_Node000020"><a xlink:title=" ">
<path fill="none" stroke="#63b8ff" d="M545.58,-93.54C552.27,-91.23 558.8,-88.43 564.75,-85 584.91,-73.39 581.72,-60.39 600.75,-47 613.56,-37.99 628.91,-30.46 642.98,-24.59"/>
<polygon fill="#63b8ff" stroke="#63b8ff" points="644.02,-27.94 652.01,-20.99 641.43,-21.44 644.02,-27.94"/>
</a>
</g>
</g>
<!-- Node20&#45;&gt;Node20 -->
<g id="edge21_Node000020_Node000020" class="edge">
<title>Node20&#45;&gt;Node20</title>
<g id="a_edge21_Node000020_Node000020"><a xlink:title=" ">
<path fill="none" stroke="#63b8ff" d="M655.75,-20.34C642.82,-28.98 652.91,-38 686,-38 704.61,-38 715.95,-35.14 720,-31.11"/>
<polygon fill="#63b8ff" stroke="#63b8ff" points="723.34,-30.06 716.75,-21.77 716.73,-32.36 723.34,-30.06"/>
</a>
</g>
</g>
<!-- Node21 -->
<g id="Node000021" class="node">
<title>Node21</title>
<g id="a_Node000021"><a xlink:href="class_diagram_scene.html#a4da4018bb57166e46104700d2847c41d" target="_top" xlink:title=" ">
<polygon fill="white" stroke="#666666" points="945.5,-20 807.25,-20 807.25,0 945.5,0 945.5,-20"/>
<text xml:space="preserve" text-anchor="middle" x="876.38" y="-6.5" font-family="Helvetica,sans-Serif" font-size="10.00">DiagramScene::findElement</text>
</a>
</g>
</g>
<!-- Node20&#45;&gt;Node21 -->
<g id="edge20_Node000020_Node000021" class="edge">
<title>Node20&#45;&gt;Node21</title>
<g id="a_edge20_Node000020_Node000021"><a xlink:title=" ">
<path fill="none" stroke="#63b8ff" d="M766.61,-10C776.11,-10 785.81,-10 795.31,-10"/>
<polygon fill="#63b8ff" stroke="#63b8ff" points="795.26,-13.5 805.26,-10 795.26,-6.5 795.26,-13.5"/>
</a>
</g>
</g>
<!-- Node23 -->
<g id="Node000023" class="node">
<title>Node23</title>
<g id="a_Node000023"><a xlink:href="class_basic_element.html#a482ffd2c58ecdc8bba5bfeaadf8f26d4" target="_top" xlink:title=" ">
<polygon fill="white" stroke="#666666" points="548.62,-76 418.62,-76 418.62,-44 548.62,-44 548.62,-76"/>
<text xml:space="preserve" text-anchor="start" x="426.62" y="-62.5" font-family="Helvetica,sans-Serif" font-size="10.00">BasicElement::connection</text>
<text xml:space="preserve" text-anchor="middle" x="483.62" y="-50.5" font-family="Helvetica,sans-Serif" font-size="10.00">Points</text>
</a>
</g>
</g>
<!-- Node22&#45;&gt;Node23 -->
<g id="edge24_Node000022_Node000023" class="edge">
<title>Node22&#45;&gt;Node23</title>
<g id="a_edge24_Node000022_Node000023"><a xlink:title=" ">
<path fill="none" stroke="#63b8ff" d="M364.64,-73.43C378.61,-71.84 393.2,-70.18 407.17,-68.59"/>
<polygon fill="#63b8ff" stroke="#63b8ff" points="407.18,-72.11 416.72,-67.5 406.38,-65.16 407.18,-72.11"/>
</a>
</g>
</g>
</g>
</svg>
