<?xml version="1.0" encoding="UTF-8" standalone="no"?>
<!DOCTYPE svg PUBLIC "-//W3C//DTD SVG 1.1//EN"
 "http://www.w3.org/Graphics/SVG/1.1/DTD/svg11.dtd">
<!-- Generated by graphviz version 14.1.1 (20251213.1925)
 -->
<!-- Title: Relationship::Relationship Pages: 1 -->
<svg width="1068pt" height="305pt"
 viewBox="0.00 0.00 1068.00 305.00" xmlns="http://www.w3.org/2000/svg" xmlns:xlink="http://www.w3.org/1999/xlink">
<g id="graph0" class="graph" transform="scale(1 1) rotate(0) translate(4 301)">
<title>Relationship::Relationship</title>
<!-- Node1 -->
<g id="Node000001" class="node">
<title>Node1</title>
<g id="a_Node000001"><a xlink:title=" ">
<polygon fill="#999999" stroke="#666666" points="130,-166 0,-166 0,-146 130,-146 130,-166"/>
<text xml:space="preserve" text-anchor="middle" x="65" y="-152.5" font-family="Helvetica,sans-Serif" font-size="10.00">Relationship::Relationship</text>
</a>
</g>
</g>
<!-- Node1&#45;&gt;Node1 -->
<g id="edge9_Node000001_Node000001" class="edge">
<title>Node1&#45;&gt;Node1</title>
<g id="a_edge9_Node000001_Node000001"><a xlink:title=" ">
<path fill="none" stroke="#63b8ff" d="M37.55,-166.34C25.82,-174.98 34.97,-184 65,-184 81.89,-184 92.18,-181.14 95.85,-177.11"/>
<polygon fill="#63b8ff" stroke="#63b8ff" points="99.26,-176.26 92.9,-167.78 92.58,-178.37 99.26,-176.26"/>
</a>
</g>
</g>
<!-- Node2 -->
<g id="Node000002" class="node">
<title>Node2</title>
<g id="a_Node000002"><a xlink:href="class_basic_element.html#a85cccd7db0e46e4e2b646365cd6c66a9" target="_top" xlink:title=" ">
<polygon fill="white" stroke="#666666" points="309.5,-216 166,-216 166,-196 309.5,-196 309.5,-216"/>
<text xml:space="preserve" text-anchor="middle" x="237.75" y="-202.5" font-family="Helvetica,sans-Serif" font-size="10.00">BasicElement::BasicElement</text>
</a>
</g>
</g>
<!-- Node1&#45;&gt;Node2 -->
<g id="edge1_Node000001_Node000002" class="edge">
<title>Node1&#45;&gt;Node2</title>
<g id="a_edge1_Node000001_Node000002"><a xlink:title=" ">
<path fill="none" stroke="#63b8ff" d="M101.79,-166.48C127.52,-174.02 162.44,-184.24 190.31,-192.4"/>
<polygon fill="#63b8ff" stroke="#63b8ff" points="188.97,-195.66 199.55,-195.11 190.94,-188.94 188.97,-195.66"/>
</a>
</g>
</g>
<!-- Node9 -->
<g id="Node000009" class="node">
<title>Node9</title>
<g id="a_Node000009"><a xlink:href="class_relationship.html#afdc74fcf0c54abc297ee3c6239d9a867" target="_top" xlink:title=" ">
<polygon fill="white" stroke="#666666" points="304.62,-166 170.88,-166 170.88,-146 304.62,-146 304.62,-166"/>
<text xml:space="preserve" text-anchor="middle" x="237.75" y="-152.5" font-family="Helvetica,sans-Serif" font-size="10.00">Relationship::preferredSize</text>
</a>
</g>
</g>
<!-- Node1&#45;&gt;Node9 -->
<g id="edge8_Node000001_Node000009" class="edge">
<title>Node1&#45;&gt;Node9</title>
<g id="a_edge8_Node000001_Node000009"><a xlink:title=" ">
<path fill="none" stroke="#63b8ff" d="M130.07,-156C139.59,-156 149.49,-156 159.25,-156"/>
<polygon fill="#63b8ff" stroke="#63b8ff" points="159.1,-159.5 169.1,-156 159.1,-152.5 159.1,-159.5"/>
</a>
</g>
</g>
<!-- Node10 -->
<g id="Node000010" class="node">
<title>Node10</title>
<g id="a_Node000010"><a xlink:href="class_basic_element.html#ab86c964c6ef9e8d7299efc263a0837e7" target="_top" xlink:title=" ">
<polygon fill="white" stroke="#666666" points="295.62,-115 179.88,-115 179.88,-95 295.62,-95 295.62,-115"/>
<text xml:space="preserve" text-anchor="middle" x="237.75" y="-101.5" font-family="Helvetica,sans-Serif" font-size="10.00">BasicElement::setSize</text>
</a>
</g>
</g>
<!-- Node1&#45;&gt;Node10 -->
<g id="edge10_Node000001_Node000010" class="edge">
<title>Node1&#45;&gt;Node10</title>
<g id="a_edge10_Node000001_Node000010"><a xlink:title=" ">
<path fill="none" stroke="#63b8ff" d="M100.97,-145.56C126.98,-137.79 162.72,-127.11 191,-118.66"/>
<polygon fill="#63b8ff" stroke="#63b8ff" points="191.8,-122.08 200.38,-115.86 189.8,-115.37 191.8,-122.08"/>
</a>
</g>
</g>
<!-- Node3 -->
<g id="Node000003" class="node">
<title>Node3</title>
<g id="a_Node000003"><a xlink:href="class_basic_element.html#a028ebc6c9de8f0b90af0e7daef9549f8" target="_top" xlink:title=" ">
<polygon fill="white" stroke="#666666" points="494.25,-272 353,-272 353,-240 494.25,-240 494.25,-272"/>
<text xml:space="preserve" text-anchor="start" x="361" y="-258.5" font-family="Helvetica,sans-Serif" font-size="10.00">BasicElement::createDefault</text>
<text xml:space="preserve" text-anchor="middle" x="423.62" y="-246.5" font-family="Helvetica,sans-Serif" font-size="10.00">ConnectionPoints</text>
</a>
</g>
</g>
<!-- Node2&#45;&gt;Node3 -->
<g id="edge2_Node000002_Node000003" class="edge">
<title>Node2&#45;&gt;Node3</title>
<g id="a_edge2_Node000002_Node000003"><a xlink:title=" ">
<path fill="none" stroke="#63b8ff" d="M277.3,-216.48C298.67,-222.29 325.94,-229.71 351.06,-236.54"/>
<polygon fill="#63b8ff" stroke="#63b8ff" points="350.02,-239.89 360.59,-239.13 351.86,-233.13 350.02,-239.89"/>
</a>
</g>
</g>
<!-- Node8 -->
<g id="Node000008" class="node">
<title>Node8</title>
<g id="a_Node000008"><a xlink:href="class_basic_element.html#a01a6511d922708fe0042474740109152" target="_top" xlink:title=" ">
<polygon fill="white" stroke="#666666" points="492.75,-222 354.5,-222 354.5,-190 492.75,-190 492.75,-222"/>
<text xml:space="preserve" text-anchor="start" x="362.5" y="-208.5" font-family="Helvetica,sans-Serif" font-size="10.00">BasicElement::elementType</text>
<text xml:space="preserve" text-anchor="middle" x="423.62" y="-196.5" font-family="Helvetica,sans-Serif" font-size="10.00">ToString</text>
</a>
</g>
</g>
<!-- Node2&#45;&gt;Node8 -->
<g id="edge7_Node000002_Node000008" class="edge">
<title>Node2&#45;&gt;Node8</title>
<g id="a_edge7_Node000002_Node000008"><a xlink:title=" ">
<path fill="none" stroke="#63b8ff" d="M309.84,-206C320.64,-206 331.85,-206 342.82,-206"/>
<polygon fill="#63b8ff" stroke="#63b8ff" points="342.63,-209.5 352.63,-206 342.63,-202.5 342.63,-209.5"/>
</a>
</g>
</g>
<!-- Node4 -->
<g id="Node000004" class="node">
<title>Node4</title>
<g id="a_Node000004"><a xlink:href="class_basic_element.html#a0357bfa9b1ef06dd1c9d64bcb00813f4" target="_top" xlink:title=" ">
<polygon fill="white" stroke="#666666" points="688,-297 540,-297 540,-265 688,-265 688,-297"/>
<text xml:space="preserve" text-anchor="start" x="548" y="-283.5" font-family="Helvetica,sans-Serif" font-size="10.00">BasicElement::addConnection</text>
<text xml:space="preserve" text-anchor="middle" x="614" y="-271.5" font-family="Helvetica,sans-Serif" font-size="10.00">Point</text>
</a>
</g>
</g>
<!-- Node3&#45;&gt;Node4 -->
<g id="edge3_Node000003_Node000004" class="edge">
<title>Node3&#45;&gt;Node4</title>
<g id="a_edge3_Node000003_Node000004"><a xlink:title=" ">
<path fill="none" stroke="#63b8ff" d="M494.5,-265.27C505.57,-266.74 517.13,-268.28 528.49,-269.78"/>
<polygon fill="#63b8ff" stroke="#63b8ff" points="527.89,-273.24 538.27,-271.08 528.81,-266.3 527.89,-273.24"/>
</a>
</g>
</g>
<!-- Node5 -->
<g id="Node000005" class="node">
<title>Node5</title>
<g id="a_Node000005"><a xlink:href="class_connection_point.html#a9de406389d93810151498693037eeb95" target="_top" xlink:title=" ">
<polygon fill="white" stroke="#666666" points="690.25,-247 537.75,-247 537.75,-215 690.25,-215 690.25,-247"/>
<text xml:space="preserve" text-anchor="start" x="545.75" y="-233.5" font-family="Helvetica,sans-Serif" font-size="10.00">ConnectionPoint::createDefault</text>
<text xml:space="preserve" text-anchor="middle" x="614" y="-221.5" font-family="Helvetica,sans-Serif" font-size="10.00">ConnectionPoints</text>
</a>
</g>
</g>
<!-- Node3&#45;&gt;Node5 -->
<g id="edge4_Node000003_Node000005" class="edge">
<title>Node3&#45;&gt;Node5</title>
<g id="a_edge4_Node000003_Node000005"><a xlink:title=" ">
<path fill="none" stroke="#63b8ff" d="M494.5,-246.73C504.91,-245.34 515.75,-243.91 526.46,-242.49"/>
<polygon fill="#63b8ff" stroke="#63b8ff" points="526.59,-246 536.05,-241.21 525.67,-239.06 526.59,-246"/>
</a>
</g>
</g>
<!-- Node6 -->
<g id="Node000006" class="node">
<title>Node6</title>
<g id="a_Node000006"><a xlink:href="class_connection_point.html#a8977265b0868dad361fcbeec5a89bdeb" target="_top" xlink:title=" ">
<polygon fill="white" stroke="#666666" points="880.25,-247 726.25,-247 726.25,-215 880.25,-215 880.25,-247"/>
<text xml:space="preserve" text-anchor="start" x="734.25" y="-233.5" font-family="Helvetica,sans-Serif" font-size="10.00">ConnectionPoint::addConection</text>
<text xml:space="preserve" text-anchor="middle" x="803.25" y="-221.5" font-family="Helvetica,sans-Serif" font-size="10.00">Point</text>
</a>
</g>
</g>
<!-- Node5&#45;&gt;Node6 -->
<g id="edge5_Node000005_Node000006" class="edge">
<title>Node5&#45;&gt;Node6</title>
<g id="a_edge5_Node000005_Node000006"><a xlink:title=" ">
<path fill="none" stroke="#63b8ff" d="M690.62,-231C698.56,-231 706.67,-231 714.72,-231"/>
<polygon fill="#63b8ff" stroke="#63b8ff" points="714.53,-234.5 724.53,-231 714.53,-227.5 714.53,-234.5"/>
</a>
</g>
</g>
<!-- Node7 -->
<g id="Node000007" class="node">
<title>Node7</title>
<g id="a_Node000007"><a xlink:href="class_connection_point.html#ac498b99d7f91805fea3eab19f2e8b260" target="_top" xlink:title=" ">
<polygon fill="white" stroke="#666666" points="1059.75,-247 916.25,-247 916.25,-215 1059.75,-215 1059.75,-247"/>
<text xml:space="preserve" text-anchor="start" x="924.25" y="-233.5" font-family="Helvetica,sans-Serif" font-size="10.00">ConnectionPoint::Connection</text>
<text xml:space="preserve" text-anchor="middle" x="988" y="-221.5" font-family="Helvetica,sans-Serif" font-size="10.00">Point</text>
</a>
</g>
</g>
<!-- Node6&#45;&gt;Node7 -->
<g id="edge6_Node000006_Node000007" class="edge">
<title>Node6&#45;&gt;Node7</title>
<g id="a_edge6_Node000006_Node000007"><a xlink:title=" ">
<path fill="none" stroke="#63b8ff" d="M880.69,-231C888.51,-231 896.48,-231 904.37,-231"/>
<polygon fill="#63b8ff" stroke="#63b8ff" points="904.31,-234.5 914.31,-231 904.31,-227.5 904.31,-234.5"/>
</a>
</g>
</g>
<!-- Node11 -->
<g id="Node000011" class="node">
<title>Node11</title>
<g id="a_Node000011"><a xlink:href="class_basic_element.html#ad1b7a593fb82e872041b342abd157088" target="_top" xlink:title=" ">
<polygon fill="white" stroke="#666666" points="501.75,-172 345.5,-172 345.5,-152 501.75,-152 501.75,-172"/>
<text xml:space="preserve" text-anchor="middle" x="423.62" y="-158.5" font-family="Helvetica,sans-Serif" font-size="10.00">BasicElement::elementChanged</text>
</a>
</g>
</g>
<!-- Node10&#45;&gt;Node11 -->
<g id="edge11_Node000010_Node000011" class="edge">
<title>Node10&#45;&gt;Node11</title>
<g id="a_edge11_Node000010_Node000011"><a xlink:title=" ">
<path fill="none" stroke="#63b8ff" d="M265.7,-115.44C287.14,-123.54 317.99,-134.74 345.5,-143 352.09,-144.98 359.03,-146.91 365.95,-148.73"/>
<polygon fill="#63b8ff" stroke="#63b8ff" points="364.72,-152.03 375.28,-151.12 366.46,-145.25 364.72,-152.03"/>
</a>
</g>
</g>
<!-- Node12 -->
<g id="Node000012" class="node">
<title>Node12</title>
<g id="a_Node000012"><a xlink:href="class_basic_element.html#a2cb2eb803daa35380908948215f8d468" target="_top" xlink:title=" ">
<polygon fill="white" stroke="#666666" points="494.62,-134 352.62,-134 352.62,-114 494.62,-114 494.62,-134"/>
<text xml:space="preserve" text-anchor="middle" x="423.62" y="-120.5" font-family="Helvetica,sans-Serif" font-size="10.00">BasicElement::minimumSize</text>
</a>
</g>
</g>
<!-- Node10&#45;&gt;Node12 -->
<g id="edge12_Node000010_Node000012" class="edge">
<title>Node10&#45;&gt;Node12</title>
<g id="a_edge12_Node000010_Node000012"><a xlink:title=" ">
<path fill="none" stroke="#63b8ff" d="M295.92,-110.91C310.26,-112.39 325.92,-114.01 341.19,-115.58"/>
<polygon fill="#63b8ff" stroke="#63b8ff" points="340.4,-119.02 350.7,-116.57 341.12,-112.06 340.4,-119.02"/>
</a>
</g>
</g>
<!-- Node13 -->
<g id="Node000013" class="node">
<title>Node13</title>
<g id="a_Node000013"><a xlink:href="class_basic_element.html#a596caee40cdd00a0aacce49689b63f92" target="_top" xlink:title=" ">
<polygon fill="white" stroke="#666666" points="499.5,-96 347.75,-96 347.75,-76 499.5,-76 499.5,-96"/>
<text xml:space="preserve" text-anchor="middle" x="423.62" y="-82.5" font-family="Helvetica,sans-Serif" font-size="10.00">BasicElement::notifyObservers</text>
</a>
</g>
</g>
<!-- Node10&#45;&gt;Node13 -->
<g id="edge13_Node000010_Node000013" class="edge">
<title>Node10&#45;&gt;Node13</title>
<g id="a_edge13_Node000010_Node000013"><a xlink:title=" ">
<path fill="none" stroke="#63b8ff" d="M295.92,-99.09C308.69,-97.77 322.5,-96.35 336.16,-94.93"/>
<polygon fill="#63b8ff" stroke="#63b8ff" points="336.47,-98.42 346.05,-93.91 335.75,-91.46 336.47,-98.42"/>
</a>
</g>
</g>
<!-- Node14 -->
<g id="Node000014" class="node">
<title>Node14</title>
<g id="a_Node000014"><a xlink:href="class_basic_element.html#aafd52d1fae2f0b7666ae15bcbb3782c2" target="_top" xlink:title=" ">
<polygon fill="white" stroke="#666666" points="499.5,-58 347.75,-58 347.75,-38 499.5,-38 499.5,-58"/>
<text xml:space="preserve" text-anchor="middle" x="423.62" y="-44.5" font-family="Helvetica,sans-Serif" font-size="10.00">BasicElement::onSizeChanged</text>
</a>
</g>
</g>
<!-- Node10&#45;&gt;Node14 -->
<g id="edge14_Node000010_Node000014" class="edge">
<title>Node10&#45;&gt;Node14</title>
<g id="a_edge14_Node000010_Node000014"><a xlink:title=" ">
<path fill="none" stroke="#63b8ff" d="M265.7,-94.56C287.14,-86.46 317.99,-75.26 345.5,-67 352.09,-65.02 359.03,-63.09 365.95,-61.27"/>
<polygon fill="#63b8ff" stroke="#63b8ff" points="366.46,-64.75 375.28,-58.88 364.72,-57.97 366.46,-64.75"/>
</a>
</g>
</g>
<!-- Node15 -->
<g id="Node000015" class="node">
<title>Node15</title>
<g id="a_Node000015"><a xlink:href="class_basic_element.html#a5af654d8bb5e16b44121f69c832037b8" target="_top" xlink:title=" ">
<polygon fill="white" stroke="#666666" points="493.5,-20 353.75,-20 353.75,0 493.5,0 493.5,-20"/>
<text xml:space="preserve" text-anchor="middle" x="423.62" y="-6.5" font-family="Helvetica,sans-Serif" font-size="10.00">BasicElement::sizeChanged</text>
</a>
</g>
</g>
<!-- Node10&#45;&gt;Node15 -->
<g id="edge15_Node000010_Node000015" class="edge">
<title>Node10&#45;&gt;Node15</title>
<g id="a_edge15_Node000010_Node000015"><a xlink:title=" ">
<path fill="none" stroke="#63b8ff" d="M250,-94.75C268.53,-78.42 307.25,-46.55 345.5,-29 349.54,-27.14 353.79,-25.46 358.13,-23.92"/>
<polygon fill="#63b8ff" stroke="#63b8ff" points="359.15,-27.27 367.6,-20.87 357.01,-20.61 359.15,-27.27"/>
</a>
</g>
</g>
</g>
</svg>
