<?xml version="1.0" encoding="UTF-8" standalone="no"?>
<!DOCTYPE svg PUBLIC "-//W3C//DTD SVG 1.1//EN"
 "http://www.w3.org/Graphics/SVG/1.1/DTD/svg11.dtd">
<!-- Generated by graphviz version 14.1.1 (20251213.1925)
 -->
<!-- Title: JsonHelper::saveDiagramToFile Pages: 1 -->
<!--zoomable 128 -->

<svg id="main" version="1.1" xmlns="http://www.w3.org/2000/svg" xmlns:xlink="http://www.w3.org/1999/xlink" xml:space="preserve" onload="init(evt)">

<style type="text/css"><![CDATA[
.node, .edge {opacity: 0.7;}
.node.selected, .edge.selected {opacity: 1;}
.edge:hover path { stroke: red; }
.edge:hover polygon { stroke: red; fill: red; }
]]></style>

<defs>
  <circle id="rim" cx="0" cy="0" r="7"/>
  <circle id="rim2" cx="0" cy="0" r="3.5"/>
  <g id="zoomPlus">
    <use xlink:href="#rim" fill="#404040"><set attributeName="fill" to="#808080" begin="zoomplus.mouseover" end="zoomplus.mouseout"/></use>
    <path d="M-4,0h8M0,-4v8" fill="none" stroke="white" stroke-width="1.5" pointer-events="none"/>
  </g>
  <g id="zoomMin">
    <use xlink:href="#rim" fill="#404040"><set attributeName="fill" to="#808080" begin="zoomminus.mouseover" end="zoomminus.mouseout"/></use>
    <path d="M-4,0h8" fill="none" stroke="white" stroke-width="1.5" pointer-events="none"/>
  </g>
  <g id="arrowUp" transform="translate(30 24)">
    <use xlink:href="#rim"/>
    <path pointer-events="none" fill="none" stroke="white" stroke-width="1.5" d="M0,-3.0v7 M-2.5,-0.5L0,-3.0L2.5,-0.5"/>
  </g>
  <g id="arrowRight" transform="rotate(90) translate(36 -43)">
    <use xlink:href="#rim"/>
    <path pointer-events="none" fill="none" stroke="white" stroke-width="1.5" d="M0,-3.0v7 M-2.5,-0.5L0,-3.0L2.5,-0.5"/>
  </g>
  <g id="arrowDown" transform="rotate(180) translate(-30 -48)">
    <use xlink:href="#rim"/>
    <path pointer-events="none" fill="none" stroke="white" stroke-width="1.5" d="M0,-3.0v7 M-2.5,-0.5L0,-3.0L2.5,-0.5"/>
  </g>
  <g id="arrowLeft" transform="rotate(270) translate(-36 17)">
    <use xlink:href="#rim"/>
    <path pointer-events="none" fill="none" stroke="white" stroke-width="1.5" d="M0,-3.0v7 M-2.5,-0.5L0,-3.0L2.5,-0.5"/>
  </g>
  <g id="resetDef">
    <use xlink:href="#rim2" fill="#404040"><set attributeName="fill" to="#808080" begin="reset.mouseover" end="reset.mouseout"/></use>
  </g>
</defs>
<script type="application/ecmascript">
var viewWidth = 864;
var viewHeight = 128;
var sectionId = 'dynsection-13';
</script>
<script type="application/ecmascript" xlink:href="svg.min.js"/>
<svg id="graph" class="graph">
<g id="viewport">
<title>JsonHelper::saveDiagramToFile</title>
<!-- Node1 -->
<g id="Node000001" class="node">
<title>Node1</title>
<g id="a_Node000001"><a xlink:title=" ">
<polygon fill="#999999" stroke="#666666" points="155.5,-51 0,-51 0,-31 155.5,-31 155.5,-51"/>
<text xml:space="preserve" text-anchor="middle" x="77.75" y="-37.5" font-family="Helvetica,sans-Serif" font-size="10.00">JsonHelper::saveDiagramToFile</text>
</a>
</g>
</g>
<!-- Node2 -->
<g id="Node000002" class="node">
<title>Node2</title>
<g id="a_Node000002"><a xlink:href="class_json_helper.html#a3dc80512edb9b1f8bc8e50015e27e864" target="_top" xlink:title=" ">
<polygon fill="white" stroke="#666666" points="329,-57 191.5,-57 191.5,-25 329,-25 329,-57"/>
<text xml:space="preserve" text-anchor="start" x="199.5" y="-43.5" font-family="Helvetica,sans-Serif" font-size="10.00">JsonHelper::diagramToJson</text>
<text xml:space="preserve" text-anchor="middle" x="260.25" y="-31.5" font-family="Helvetica,sans-Serif" font-size="10.00">Object</text>
</a>
</g>
</g>
<!-- Node1&#45;&gt;Node2 -->
<g id="edge1_Node000001_Node000002" class="edge">
<title>Node1&#45;&gt;Node2</title>
<g id="a_edge1_Node000001_Node000002"><a xlink:title=" ">
<path fill="none" stroke="#63b8ff" d="M155.82,-41C163.83,-41 171.98,-41 180.02,-41"/>
<polygon fill="#63b8ff" stroke="#63b8ff" points="179.76,-44.5 189.76,-41 179.76,-37.5 179.76,-44.5"/>
</a>
</g>
</g>
<!-- Node3 -->
<g id="Node000003" class="node">
<title>Node3</title>
<g id="a_Node000003"><a xlink:href="class_json_helper.html#ace49a2bdc031d44388b744f93da1fd6d" target="_top" xlink:title=" ">
<polygon fill="white" stroke="#666666" points="498.38,-82 369.12,-82 369.12,-50 498.38,-50 498.38,-82"/>
<text xml:space="preserve" text-anchor="start" x="377.12" y="-68.5" font-family="Helvetica,sans-Serif" font-size="10.00">JsonHelper::connectionTo</text>
<text xml:space="preserve" text-anchor="middle" x="433.75" y="-56.5" font-family="Helvetica,sans-Serif" font-size="10.00">JsonObject</text>
</a>
</g>
</g>
<!-- Node2&#45;&gt;Node3 -->
<g id="edge2_Node000002_Node000003" class="edge">
<title>Node2&#45;&gt;Node3</title>
<g id="a_edge2_Node000002_Node000003"><a xlink:title=" ">
<path fill="none" stroke="#63b8ff" d="M329.03,-50.88C338.45,-52.25 348.18,-53.67 357.72,-55.06"/>
<polygon fill="#63b8ff" stroke="#63b8ff" points="356.92,-58.48 367.32,-56.46 357.93,-51.56 356.92,-58.48"/>
</a>
</g>
</g>
<!-- Node8 -->
<g id="Node000008" class="node">
<title>Node8</title>
<g id="a_Node000008"><a xlink:href="class_json_helper.html#a2141a614711cf449951f1ebde5a9b119" target="_top" xlink:title=" ">
<polygon fill="white" stroke="#666666" points="502.5,-32 365,-32 365,0 502.5,0 502.5,-32"/>
<text xml:space="preserve" text-anchor="start" x="373" y="-18.5" font-family="Helvetica,sans-Serif" font-size="10.00">JsonHelper::elementToJson</text>
<text xml:space="preserve" text-anchor="middle" x="433.75" y="-6.5" font-family="Helvetica,sans-Serif" font-size="10.00">Object</text>
</a>
</g>
</g>
<!-- Node2&#45;&gt;Node8 -->
<g id="edge7_Node000002_Node000008" class="edge">
<title>Node2&#45;&gt;Node8</title>
<g id="a_edge7_Node000002_Node000008"><a xlink:title=" ">
<path fill="none" stroke="#63b8ff" d="M329.03,-31.12C336.99,-29.96 345.16,-28.77 353.25,-27.59"/>
<polygon fill="#63b8ff" stroke="#63b8ff" points="353.73,-31.06 363.12,-26.15 352.72,-24.13 353.73,-31.06"/>
</a>
</g>
</g>
<!-- Node4 -->
<g id="Node000004" class="node">
<title>Node4</title>
<g id="a_Node000004"><a xlink:href="class_connection_line.html#a89b03bf381274e4504b1cde0f32972ee" target="_top" xlink:title=" ">
<polygon fill="white" stroke="#666666" points="664,-76 538.5,-76 538.5,-56 664,-56 664,-76"/>
<text xml:space="preserve" text-anchor="middle" x="601.25" y="-62.5" font-family="Helvetica,sans-Serif" font-size="10.00">ConnectionLine::serialize</text>
</a>
</g>
</g>
<!-- Node3&#45;&gt;Node4 -->
<g id="edge3_Node000003_Node000004" class="edge">
<title>Node3&#45;&gt;Node4</title>
<g id="a_edge3_Node000003_Node000004"><a xlink:title=" ">
<path fill="none" stroke="#63b8ff" d="M498.74,-66C507.92,-66 517.43,-66 526.78,-66"/>
<polygon fill="#63b8ff" stroke="#63b8ff" points="526.55,-69.5 536.55,-66 526.55,-62.5 526.55,-69.5"/>
</a>
</g>
</g>
<!-- Node5 -->
<g id="Node000005" class="node">
<title>Node5</title>
<g id="a_Node000005"><a xlink:href="class_connection_line.html#ab11952b505976244aabc575e0ec7b118" target="_top" xlink:title=" ">
<polygon fill="white" stroke="#666666" points="856.25,-120 700,-120 700,-100 856.25,-100 856.25,-120"/>
<text xml:space="preserve" text-anchor="middle" x="778.12" y="-106.5" font-family="Helvetica,sans-Serif" font-size="10.00">ConnectionLine::getEndElement</text>
</a>
</g>
</g>
<!-- Node4&#45;&gt;Node5 -->
<g id="edge4_Node000004_Node000005" class="edge">
<title>Node4&#45;&gt;Node5</title>
<g id="a_edge4_Node000004_Node000005"><a xlink:title=" ">
<path fill="none" stroke="#63b8ff" d="M642.65,-76.42C660.26,-80.94 681.14,-86.27 700,-91 707.55,-92.89 715.51,-94.88 723.34,-96.82"/>
<polygon fill="#63b8ff" stroke="#63b8ff" points="722.26,-100.15 732.8,-99.15 723.94,-93.36 722.26,-100.15"/>
</a>
</g>
</g>
<!-- Node6 -->
<g id="Node000006" class="node">
<title>Node6</title>
<g id="a_Node000006"><a xlink:href="class_connection_line.html#ad957be37b7bbb9250366225fd357a5a6" target="_top" xlink:title=" ">
<polygon fill="white" stroke="#666666" points="840.12,-82 716.12,-82 716.12,-50 840.12,-50 840.12,-82"/>
<text xml:space="preserve" text-anchor="start" x="724.12" y="-68.5" font-family="Helvetica,sans-Serif" font-size="10.00">ConnectionLine::getStart</text>
<text xml:space="preserve" text-anchor="middle" x="778.12" y="-56.5" font-family="Helvetica,sans-Serif" font-size="10.00">Element</text>
</a>
</g>
</g>
<!-- Node4&#45;&gt;Node6 -->
<g id="edge5_Node000004_Node000006" class="edge">
<title>Node4&#45;&gt;Node6</title>
<g id="a_edge5_Node000004_Node000006"><a xlink:title=" ">
<path fill="none" stroke="#63b8ff" d="M664.4,-66C677.3,-66 691.02,-66 704.27,-66"/>
<polygon fill="#63b8ff" stroke="#63b8ff" points="704.25,-69.5 714.25,-66 704.25,-62.5 704.25,-69.5"/>
</a>
</g>
</g>
<!-- Node7 -->
<g id="Node000007" class="node">
<title>Node7</title>
<g id="a_Node000007"><a xlink:href="class_connection_line.html#aacfed243a999c948c87dab84ebc508aa" target="_top" xlink:title=" ">
<polygon fill="white" stroke="#666666" points="843.12,-32 713.12,-32 713.12,-12 843.12,-12 843.12,-32"/>
<text xml:space="preserve" text-anchor="middle" x="778.12" y="-18.5" font-family="Helvetica,sans-Serif" font-size="10.00">ConnectionLine::lineWidth</text>
</a>
</g>
</g>
<!-- Node4&#45;&gt;Node7 -->
<g id="edge6_Node000004_Node000007" class="edge">
<title>Node4&#45;&gt;Node7</title>
<g id="a_edge6_Node000004_Node000007"><a xlink:title=" ">
<path fill="none" stroke="#63b8ff" d="M642.65,-55.58C660.26,-51.06 681.14,-45.73 700,-41 707.55,-39.11 715.51,-37.12 723.34,-35.18"/>
<polygon fill="#63b8ff" stroke="#63b8ff" points="723.94,-38.64 732.8,-32.85 722.26,-31.85 723.94,-38.64"/>
</a>
</g>
</g>
<!-- Node9 -->
<g id="Node000009" class="node">
<title>Node9</title>
<g id="a_Node000009"><a xlink:href="class_basic_element.html#a56f5f9a22723d2a99d87c7508b0bec7f" target="_top" xlink:title=" ">
<polygon fill="white" stroke="#666666" points="660.62,-26 541.88,-26 541.88,-6 660.62,-6 660.62,-26"/>
<text xml:space="preserve" text-anchor="middle" x="601.25" y="-12.5" font-family="Helvetica,sans-Serif" font-size="10.00">BasicElement::serialize</text>
</a>
</g>
</g>
<!-- Node8&#45;&gt;Node9 -->
<g id="edge8_Node000008_Node000009" class="edge">
<title>Node8&#45;&gt;Node9</title>
<g id="a_edge8_Node000008_Node000009"><a xlink:title=" ">
<path fill="none" stroke="#63b8ff" d="M502.54,-16C511.64,-16 520.99,-16 530.13,-16"/>
<polygon fill="#63b8ff" stroke="#63b8ff" points="530.05,-19.5 540.05,-16 530.05,-12.5 530.05,-19.5"/>
</a>
</g>
</g>
</g>
</svg>

<g id="navigator" transform="translate(0 0)" fill="#404254">
  <rect fill="#f2f5e9" fill-opacity="0.5" stroke="#606060" stroke-width=".5" x="0" y="0" width="60" height="60"/>
  <use id="zoomplus" xlink:href="#zoomPlus" x="17" y="9" onmousedown="handleZoom(evt,'in')"/>
  <use id="zoomminus" xlink:href="#zoomMin" x="42" y="9" onmousedown="handleZoom(evt,'out')"/>
  <use id="reset" xlink:href="#resetDef" x="30" y="36" onmousedown="handleReset()"/>
   <use id="arrowup" xlink:href="#arrowUp" x="0" y="0" onmousedown="handlePan(0,-1)"/>
  <use id="arrowright" xlink:href="#arrowRight" x="0" y="0" onmousedown="handlePan(1,0)"/>
  <use id="arrowdown" xlink:href="#arrowDown" x="0" y="0" onmousedown="handlePan(0,1)"/>
  <use id="arrowleft" xlink:href="#arrowLeft" x="0" y="0" onmousedown="handlePan(-1,0)"/>
</g>
<svg viewBox="0 0 15 15" width="100%" height="30px" preserveAspectRatio="xMaxYMin meet">
 <g id="arrow_out" transform="scale(0.3 0.3)">
  <a xlink:href="class_json_helper_a7f720f1105f91b135fdfbcaf94e3f929_cgraph_org.svg" target="_base">
   <rect id="button" ry="5" rx="5" y="6" x="6" height="38" width="38"
        fill="#f2f5e9" fill-opacity="0.5" stroke="#606060" stroke-width="1.0"/>
   <path id="arrow"
     d="M 11.500037,31.436501 C 11.940474,20.09759 22.043105,11.32322 32.158766,21.979434 L 37.068811,17.246167 C 37.068811,17.246167 37.088388,32 37.088388,32 L 22.160133,31.978069 C 22.160133,31.978069 26.997745,27.140456 26.997745,27.140456 C 18.528582,18.264221 13.291696,25.230495 11.500037,31.436501 z"
     style="fill:#404040;"/>
  </a>
 </g>
</svg>

<style type='text/css'>
<![CDATA[
[data-mouse-over-selected='false'] { opacity: 0.7; }
[data-mouse-over-selected='true']  { opacity: 1.0; }
]]>
</style>
<script type="application/ecmascript"><![CDATA[
document.addEventListener('DOMContentLoaded', (event) => {
  highlightEdges();
  highlightAdjacentNodes();
});
]]></script>
</svg>
