<?xml version="1.0" encoding="UTF-8" standalone="no"?>
<!DOCTYPE svg PUBLIC "-//W3C//DTD SVG 1.1//EN"
 "http://www.w3.org/Graphics/SVG/1.1/DTD/svg11.dtd">
<!-- Generated by graphviz version 14.1.1 (20251213.1925)
 -->
<!-- Title: ConnectionGraphicsItem::connectToConnection Pages: 1 -->
<svg width="518pt" height="52pt"
 viewBox="0.00 0.00 518.00 52.00" xmlns="http://www.w3.org/2000/svg" xmlns:xlink="http://www.w3.org/1999/xlink">
<g id="graph0" class="graph" transform="scale(1 1) rotate(0) translate(4 48)">
<title>ConnectionGraphicsItem::connectToConnection</title>
<!-- Node1 -->
<g id="Node000001" class="node">
<title>Node1</title>
<g id="a_Node000001"><a xlink:title=" ">
<polygon fill="#999999" stroke="#666666" points="510,-38 386,-38 386,-6 510,-6 510,-38"/>
<text xml:space="preserve" text-anchor="start" x="394" y="-24.5" font-family="Helvetica,sans-Serif" font-size="10.00">ConnectionGraphicsItem</text>
<text xml:space="preserve" text-anchor="middle" x="448" y="-12.5" font-family="Helvetica,sans-Serif" font-size="10.00">::connectToConnection</text>
</a>
</g>
</g>
<!-- Node2 -->
<g id="Node000002" class="node">
<title>Node2</title>
<g id="a_Node000002"><a xlink:href="class_connection_graphics_item.html#ab32d398765f9a4cd314e866585ac273d" target="_top" xlink:title=" ">
<polygon fill="white" stroke="#666666" points="350,-38 220,-38 220,-6 350,-6 350,-38"/>
<text xml:space="preserve" text-anchor="start" x="228" y="-24.5" font-family="Helvetica,sans-Serif" font-size="10.00">ConnectionGraphicsItem</text>
<text xml:space="preserve" text-anchor="middle" x="285" y="-12.5" font-family="Helvetica,sans-Serif" font-size="10.00">::ConnectionGraphicsItem</text>
</a>
</g>
</g>
<!-- Node1&#45;&gt;Node2 -->
<g id="edge1_Node000001_Node000002" class="edge">
<title>Node1&#45;&gt;Node2</title>
<g id="a_edge1_Node000001_Node000002"><a xlink:title=" ">
<path fill="none" stroke="#63b8ff" d="M374.43,-22C366.41,-22 358.28,-22 350.37,-22"/>
<polygon fill="#63b8ff" stroke="#63b8ff" points="374.16,-25.5 384.16,-22 374.16,-18.5 374.16,-25.5"/>
</a>
</g>
</g>
<!-- Node3 -->
<g id="Node000003" class="node">
<title>Node3</title>
<g id="a_Node000003"><a xlink:href="class_relationship_connection_line_graphics_item.html#a55839fb084501f42fc8a6e7f08cff4ba" target="_top" xlink:title=" ">
<polygon fill="white" stroke="#666666" points="184,-44 0,-44 0,0 184,0 184,-44"/>
<text xml:space="preserve" text-anchor="start" x="8" y="-30.5" font-family="Helvetica,sans-Serif" font-size="10.00">RelationshipConnectionLine</text>
<text xml:space="preserve" text-anchor="start" x="8" y="-18.5" font-family="Helvetica,sans-Serif" font-size="10.00">GraphicsItem::RelationshipConnection</text>
<text xml:space="preserve" text-anchor="middle" x="92" y="-6.5" font-family="Helvetica,sans-Serif" font-size="10.00">LineGraphicsItem</text>
</a>
</g>
</g>
<!-- Node2&#45;&gt;Node3 -->
<g id="edge2_Node000002_Node000003" class="edge">
<title>Node2&#45;&gt;Node3</title>
<g id="a_edge2_Node000002_Node000003"><a xlink:title=" ">
<path fill="none" stroke="#63b8ff" d="M208.22,-22C200.34,-22 192.28,-22 184.26,-22"/>
<polygon fill="#63b8ff" stroke="#63b8ff" points="208.09,-25.5 218.09,-22 208.09,-18.5 208.09,-25.5"/>
</a>
</g>
</g>
</g>
</svg>
