<?xml version="1.0" encoding="UTF-8" standalone="no"?>
<!DOCTYPE svg PUBLIC "-//W3C//DTD SVG 1.1//EN"
 "http://www.w3.org/Graphics/SVG/1.1/DTD/svg11.dtd">
<!-- Generated by graphviz version 14.1.1 (20251213.1925)
 -->
<!-- Title: ConnectionLine::getEndElement Pages: 1 -->
<!--zoomable 322 -->

<svg id="main" version="1.1" xmlns="http://www.w3.org/2000/svg" xmlns:xlink="http://www.w3.org/1999/xlink" xml:space="preserve" onload="init(evt)">

<style type="text/css"><![CDATA[
.node, .edge {opacity: 0.7;}
.node.selected, .edge.selected {opacity: 1;}
.edge:hover path { stroke: red; }
.edge:hover polygon { stroke: red; fill: red; }
]]></style>

<defs>
  <circle id="rim" cx="0" cy="0" r="7"/>
  <circle id="rim2" cx="0" cy="0" r="3.5"/>
  <g id="zoomPlus">
    <use xlink:href="#rim" fill="#404040"><set attributeName="fill" to="#808080" begin="zoomplus.mouseover" end="zoomplus.mouseout"/></use>
    <path d="M-4,0h8M0,-4v8" fill="none" stroke="white" stroke-width="1.5" pointer-events="none"/>
  </g>
  <g id="zoomMin">
    <use xlink:href="#rim" fill="#404040"><set attributeName="fill" to="#808080" begin="zoomminus.mouseover" end="zoomminus.mouseout"/></use>
    <path d="M-4,0h8" fill="none" stroke="white" stroke-width="1.5" pointer-events="none"/>
  </g>
  <g id="arrowUp" transform="translate(30 24)">
    <use xlink:href="#rim"/>
    <path pointer-events="none" fill="none" stroke="white" stroke-width="1.5" d="M0,-3.0v7 M-2.5,-0.5L0,-3.0L2.5,-0.5"/>
  </g>
  <g id="arrowRight" transform="rotate(90) translate(36 -43)">
    <use xlink:href="#rim"/>
    <path pointer-events="none" fill="none" stroke="white" stroke-width="1.5" d="M0,-3.0v7 M-2.5,-0.5L0,-3.0L2.5,-0.5"/>
  </g>
  <g id="arrowDown" transform="rotate(180) translate(-30 -48)">
    <use xlink:href="#rim"/>
    <path pointer-events="none" fill="none" stroke="white" stroke-width="1.5" d="M0,-3.0v7 M-2.5,-0.5L0,-3.0L2.5,-0.5"/>
  </g>
  <g id="arrowLeft" transform="rotate(270) translate(-36 17)">
    <use xlink:href="#rim"/>
    <path pointer-events="none" fill="none" stroke="white" stroke-width="1.5" d="M0,-3.0v7 M-2.5,-0.5L0,-3.0L2.5,-0.5"/>
  </g>
  <g id="resetDef">
    <use xlink:href="#rim2" fill="#404040"><set attributeName="fill" to="#808080" begin="reset.mouseover" end="reset.mouseout"/></use>
  </g>
</defs>
<script type="application/ecmascript">
var viewWidth = 1373;
var viewHeight = 322;
var sectionId = 'dynsection-15';
</script>
<script type="application/ecmascript" xlink:href="svg.min.js"/>
<svg id="graph" class="graph">
<g id="viewport">
<title>ConnectionLine::getEndElement</title>
<!-- Node1 -->
<g id="Node000001" class="node">
<title>Node1</title>
<g id="a_Node000001"><a xlink:title=" ">
<polygon fill="#999999" stroke="#666666" points="1364.5,-158 1208.25,-158 1208.25,-138 1364.5,-138 1364.5,-158"/>
<text xml:space="preserve" text-anchor="middle" x="1286.38" y="-144.5" font-family="Helvetica,sans-Serif" font-size="10.00">ConnectionLine::getEndElement</text>
</a>
</g>
</g>
<!-- Node2 -->
<g id="Node000002" class="node">
<title>Node2</title>
<g id="a_Node000002"><a xlink:href="class_diagram_scene.html#a355fffd036fbfb751f2d9ada2b9eacf5" target="_top" xlink:title=" ">
<polygon fill="white" stroke="#666666" points="1163.62,-245 1011.88,-245 1011.88,-213 1163.62,-213 1163.62,-245"/>
<text xml:space="preserve" text-anchor="start" x="1019.88" y="-231.5" font-family="Helvetica,sans-Serif" font-size="10.00">DiagramScene::handleAttribute</text>
<text xml:space="preserve" text-anchor="middle" x="1087.75" y="-219.5" font-family="Helvetica,sans-Serif" font-size="10.00">Connection</text>
</a>
</g>
</g>
<!-- Node1&#45;&gt;Node2 -->
<g id="edge1_Node000001_Node000002" class="edge">
<title>Node1&#45;&gt;Node2</title>
<g id="a_edge1_Node000001_Node000002"><a xlink:title=" ">
<path fill="none" stroke="#63b8ff" d="M1252.68,-163.08C1230.21,-173.29 1199.6,-186.89 1172.25,-198 1160.07,-202.95 1146.78,-208.03 1134.45,-212.6"/>
<polygon fill="#63b8ff" stroke="#63b8ff" points="1253.99,-166.33 1261.63,-158.99 1251.08,-159.96 1253.99,-166.33"/>
</a>
</g>
</g>
<!-- Node10 -->
<g id="Node000010" class="node">
<title>Node10</title>
<g id="a_Node000010"><a xlink:href="class_diagram_scene.html#af24fc3dc11041bb31e4f0627f0a09e75" target="_top" xlink:title=" ">
<polygon fill="white" stroke="#666666" points="1163.62,-189 1011.88,-189 1011.88,-157 1163.62,-157 1163.62,-189"/>
<text xml:space="preserve" text-anchor="start" x="1019.88" y="-175.5" font-family="Helvetica,sans-Serif" font-size="10.00">DiagramScene::handleAttribute</text>
<text xml:space="preserve" text-anchor="middle" x="1087.75" y="-163.5" font-family="Helvetica,sans-Serif" font-size="10.00">Disconnection</text>
</a>
</g>
</g>
<!-- Node1&#45;&gt;Node10 -->
<g id="edge9_Node000001_Node000010" class="edge">
<title>Node1&#45;&gt;Node10</title>
<g id="a_edge9_Node000001_Node000010"><a xlink:title=" ">
<path fill="none" stroke="#63b8ff" d="M1196.62,-159.28C1185.68,-160.68 1174.57,-162.09 1163.86,-163.45"/>
<polygon fill="#63b8ff" stroke="#63b8ff" points="1196.97,-162.77 1206.44,-158.04 1196.08,-155.83 1196.97,-162.77"/>
</a>
</g>
</g>
<!-- Node17 -->
<g id="Node000017" class="node">
<title>Node17</title>
<g id="a_Node000017"><a xlink:href="class_diagram_scene.html#a244ffcbacfc985e542579c0e112cfd52" target="_top" xlink:title=" ">
<polygon fill="white" stroke="#666666" points="1172.25,-139 1003.25,-139 1003.25,-107 1172.25,-107 1172.25,-139"/>
<text xml:space="preserve" text-anchor="start" x="1011.25" y="-125.5" font-family="Helvetica,sans-Serif" font-size="10.00">DiagramScene::handleRelationship</text>
<text xml:space="preserve" text-anchor="middle" x="1087.75" y="-113.5" font-family="Helvetica,sans-Serif" font-size="10.00">Disconnection</text>
</a>
</g>
</g>
<!-- Node1&#45;&gt;Node17 -->
<g id="edge18_Node000001_Node000017" class="edge">
<title>Node1&#45;&gt;Node17</title>
<g id="a_edge18_Node000001_Node000017"><a xlink:title=" ">
<path fill="none" stroke="#63b8ff" d="M1196.69,-136.72C1188.67,-135.7 1180.57,-134.67 1172.59,-133.66"/>
<polygon fill="#63b8ff" stroke="#63b8ff" points="1196.08,-140.17 1206.44,-137.96 1196.97,-133.23 1196.08,-140.17"/>
</a>
</g>
</g>
<!-- Node18 -->
<g id="Node000018" class="node">
<title>Node18</title>
<g id="a_Node000018"><a xlink:href="class_connection_line.html#a89b03bf381274e4504b1cde0f32972ee" target="_top" xlink:title=" ">
<polygon fill="white" stroke="#666666" points="1150.5,-76 1025,-76 1025,-56 1150.5,-56 1150.5,-76"/>
<text xml:space="preserve" text-anchor="middle" x="1087.75" y="-62.5" font-family="Helvetica,sans-Serif" font-size="10.00">ConnectionLine::serialize</text>
</a>
</g>
</g>
<!-- Node1&#45;&gt;Node18 -->
<g id="edge20_Node000001_Node000018" class="edge">
<title>Node1&#45;&gt;Node18</title>
<g id="a_edge20_Node000001_Node000018"><a xlink:title=" ">
<path fill="none" stroke="#63b8ff" d="M1252.22,-132.82C1229.77,-122.67 1199.38,-109.18 1172.25,-98 1154.02,-90.48 1133.33,-82.55 1117.1,-76.46"/>
<polygon fill="#63b8ff" stroke="#63b8ff" points="1250.62,-135.94 1261.18,-136.88 1253.52,-129.56 1250.62,-135.94"/>
</a>
</g>
</g>
<!-- Node3 -->
<g id="Node000003" class="node">
<title>Node3</title>
<g id="a_Node000003"><a xlink:href="class_diagram_scene.html#a795592348d4dcbd78d984db93c2fbedb" target="_top" xlink:title=" ">
<polygon fill="white" stroke="#666666" points="959,-242 807.25,-242 807.25,-222 959,-222 959,-242"/>
<text xml:space="preserve" text-anchor="middle" x="883.12" y="-228.5" font-family="Helvetica,sans-Serif" font-size="10.00">DiagramScene::addConnection</text>
</a>
</g>
</g>
<!-- Node2&#45;&gt;Node3 -->
<g id="edge2_Node000002_Node000003" class="edge">
<title>Node2&#45;&gt;Node3</title>
<g id="a_edge2_Node000002_Node000003"><a xlink:title=" ">
<path fill="none" stroke="#63b8ff" d="M1000.22,-230.28C986.56,-230.48 972.54,-230.69 959.17,-230.89"/>
<polygon fill="#63b8ff" stroke="#63b8ff" points="1000.13,-233.78 1010.07,-230.14 1000.02,-226.78 1000.13,-233.78"/>
</a>
</g>
</g>
<!-- Node4 -->
<g id="Node000004" class="node">
<title>Node4</title>
<g id="a_Node000004"><a xlink:href="class_diagram_scene.html#a8a3265678249b08f424e17fbfa8d0de5" target="_top" xlink:title=" ">
<polygon fill="white" stroke="#666666" points="758.5,-314 599.25,-314 599.25,-294 758.5,-294 758.5,-314"/>
<text xml:space="preserve" text-anchor="middle" x="678.88" y="-300.5" font-family="Helvetica,sans-Serif" font-size="10.00">DiagramScene::finishConnection</text>
</a>
</g>
</g>
<!-- Node3&#45;&gt;Node4 -->
<g id="edge3_Node000003_Node000004" class="edge">
<title>Node3&#45;&gt;Node4</title>
<g id="a_edge3_Node000003_Node000004"><a xlink:title=" ">
<path fill="none" stroke="#63b8ff" d="M851.83,-247.44C828.14,-259.04 794.1,-274.64 763,-285 753.31,-288.23 742.8,-291.1 732.63,-293.57"/>
<polygon fill="#63b8ff" stroke="#63b8ff" points="853.18,-250.68 860.59,-243.1 850.08,-244.41 853.18,-250.68"/>
</a>
</g>
</g>
<!-- Node5 -->
<g id="Node000005" class="node">
<title>Node5</title>
<g id="a_Node000005"><a xlink:href="class_diagram_serializer.html#a92507b425e8c13399c6de5d85e7950fb" target="_top" xlink:title=" ">
<polygon fill="white" stroke="#666666" points="728.5,-276 629.25,-276 629.25,-244 728.5,-244 728.5,-276"/>
<text xml:space="preserve" text-anchor="start" x="637.25" y="-262.5" font-family="Helvetica,sans-Serif" font-size="10.00">DiagramSerializer::</text>
<text xml:space="preserve" text-anchor="middle" x="678.88" y="-250.5" font-family="Helvetica,sans-Serif" font-size="10.00">loadConnections</text>
</a>
</g>
</g>
<!-- Node3&#45;&gt;Node5 -->
<g id="edge4_Node000003_Node000005" class="edge">
<title>Node3&#45;&gt;Node5</title>
<g id="a_edge4_Node000003_Node000005"><a xlink:title=" ">
<path fill="none" stroke="#63b8ff" d="M795.7,-243.97C772.84,-247.13 748.96,-250.44 728.87,-253.22"/>
<polygon fill="#63b8ff" stroke="#63b8ff" points="795.89,-247.47 805.32,-242.63 794.93,-240.54 795.89,-247.47"/>
</a>
</g>
</g>
<!-- Node8 -->
<g id="Node000008" class="node">
<title>Node8</title>
<g id="a_Node000008"><a xlink:href="class_diagram_scene.html#a61e7061e5add947d09ad87feaf2b8dc1" target="_top" xlink:title=" ">
<polygon fill="white" stroke="#666666" points="558.75,-226 384.5,-226 384.5,-206 558.75,-206 558.75,-226"/>
<text xml:space="preserve" text-anchor="middle" x="471.62" y="-212.5" font-family="Helvetica,sans-Serif" font-size="10.00">DiagramScene::pasteFromClipboard</text>
</a>
</g>
</g>
<!-- Node3&#45;&gt;Node8 -->
<g id="edge7_Node000003_Node000008" class="edge">
<title>Node3&#45;&gt;Node8</title>
<g id="a_edge7_Node000003_Node000008"><a xlink:title=" ">
<path fill="none" stroke="#63b8ff" d="M795.65,-228.62C726,-225.9 628.57,-222.09 558.96,-219.37"/>
<polygon fill="#63b8ff" stroke="#63b8ff" points="795.37,-232.11 805.5,-229.01 795.65,-225.12 795.37,-232.11"/>
</a>
</g>
</g>
<!-- Node6 -->
<g id="Node000006" class="node">
<title>Node6</title>
<g id="a_Node000006"><a xlink:href="class_diagram_serializer.html#a003be4c7f5d036e58e3fa047d1d9b0d8" target="_top" xlink:title=" ">
<polygon fill="white" stroke="#666666" points="521.25,-276 422,-276 422,-244 521.25,-244 521.25,-276"/>
<text xml:space="preserve" text-anchor="start" x="430" y="-262.5" font-family="Helvetica,sans-Serif" font-size="10.00">DiagramSerializer::</text>
<text xml:space="preserve" text-anchor="middle" x="471.62" y="-250.5" font-family="Helvetica,sans-Serif" font-size="10.00">loadDiagram</text>
</a>
</g>
</g>
<!-- Node5&#45;&gt;Node6 -->
<g id="edge5_Node000005_Node000006" class="edge">
<title>Node5&#45;&gt;Node6</title>
<g id="a_edge5_Node000005_Node000006"><a xlink:title=" ">
<path fill="none" stroke="#63b8ff" d="M617.58,-260C586.99,-260 550.31,-260 521.51,-260"/>
<polygon fill="#63b8ff" stroke="#63b8ff" points="617.46,-263.5 627.46,-260 617.46,-256.5 617.46,-263.5"/>
</a>
</g>
</g>
<!-- Node7 -->
<g id="Node000007" class="node">
<title>Node7</title>
<g id="a_Node000007"><a xlink:href="class_diagram_file_manager.html#a24c0e01d7ac53866944eb10948286ed9" target="_top" xlink:title=" ">
<polygon fill="white" stroke="#666666" points="321.88,-276 215.88,-276 215.88,-244 321.88,-244 321.88,-276"/>
<text xml:space="preserve" text-anchor="start" x="223.88" y="-262.5" font-family="Helvetica,sans-Serif" font-size="10.00">DiagramFileManager</text>
<text xml:space="preserve" text-anchor="middle" x="268.88" y="-250.5" font-family="Helvetica,sans-Serif" font-size="10.00">::openDiagram</text>
</a>
</g>
</g>
<!-- Node6&#45;&gt;Node7 -->
<g id="edge6_Node000006_Node000007" class="edge">
<title>Node6&#45;&gt;Node7</title>
<g id="a_edge6_Node000006_Node000007"><a xlink:title=" ">
<path fill="none" stroke="#63b8ff" d="M410.25,-260C382.25,-260 349.29,-260 322.34,-260"/>
<polygon fill="#63b8ff" stroke="#63b8ff" points="410,-263.5 420,-260 410,-256.5 410,-263.5"/>
</a>
</g>
</g>
<!-- Node9 -->
<g id="Node000009" class="node">
<title>Node9</title>
<g id="a_Node000009"><a xlink:href="class_diagram_scene.html#a074e1181353b257a18ea2d243b459a47" target="_top" xlink:title=" ">
<polygon fill="white" stroke="#666666" points="153.25,-207 0,-207 0,-187 153.25,-187 153.25,-207"/>
<text xml:space="preserve" text-anchor="middle" x="76.62" y="-193.5" font-family="Helvetica,sans-Serif" font-size="10.00">DiagramScene::keyPressEvent</text>
</a>
</g>
</g>
<!-- Node8&#45;&gt;Node9 -->
<g id="edge8_Node000008_Node000009" class="edge">
<title>Node8&#45;&gt;Node9</title>
<g id="a_edge8_Node000008_Node000009"><a xlink:title=" ">
<path fill="none" stroke="#63b8ff" d="M373.26,-211.29C305.46,-208.01 216.31,-203.71 153.71,-200.68"/>
<polygon fill="#63b8ff" stroke="#63b8ff" points="372.71,-214.77 382.87,-211.76 373.05,-207.78 372.71,-214.77"/>
</a>
</g>
</g>
<!-- Node11 -->
<g id="Node000011" class="node">
<title>Node11</title>
<g id="a_Node000011"><a xlink:href="class_diagram_scene.html#a5d546daf9d3a3d5155b611ec31c4dccb" target="_top" xlink:title=" ">
<polygon fill="white" stroke="#666666" points="967.25,-150 799,-150 799,-130 967.25,-130 967.25,-150"/>
<text xml:space="preserve" text-anchor="middle" x="883.12" y="-136.5" font-family="Helvetica,sans-Serif" font-size="10.00">DiagramScene::removeConnection</text>
</a>
</g>
</g>
<!-- Node10&#45;&gt;Node11 -->
<g id="edge10_Node000010_Node000011" class="edge">
<title>Node10&#45;&gt;Node11</title>
<g id="a_edge10_Node000010_Node000011"><a xlink:title=" ">
<path fill="none" stroke="#63b8ff" d="M1000.29,-158.92C982.93,-156.09 964.97,-153.17 948.52,-150.49"/>
<polygon fill="#63b8ff" stroke="#63b8ff" points="999.66,-162.36 1010.09,-160.52 1000.79,-155.45 999.66,-162.36"/>
</a>
</g>
</g>
<!-- Node12 -->
<g id="Node000012" class="node">
<title>Node12</title>
<g id="a_Node000012"><a xlink:href="class_diagram_scene.html#a03a8b712a0872e8f6290c059de956505" target="_top" xlink:title=" ">
<polygon fill="white" stroke="#666666" points="344.38,-188 193.38,-188 193.38,-168 344.38,-168 344.38,-188"/>
<text xml:space="preserve" text-anchor="middle" x="268.88" y="-174.5" font-family="Helvetica,sans-Serif" font-size="10.00">DiagramScene::deleteSelected</text>
</a>
</g>
</g>
<!-- Node11&#45;&gt;Node12 -->
<g id="edge11_Node000011_Node000012" class="edge">
<title>Node11&#45;&gt;Node12</title>
<g id="a_edge11_Node000011_Node000012"><a xlink:title=" ">
<path fill="none" stroke="#63b8ff" d="M814.04,-152.3C797.39,-154.91 779.6,-157.36 763,-159 615.28,-173.57 441.65,-177.12 344.84,-177.9"/>
<polygon fill="#63b8ff" stroke="#63b8ff" points="814.54,-155.76 823.85,-150.72 813.42,-148.85 814.54,-155.76"/>
</a>
</g>
</g>
<!-- Node13 -->
<g id="Node000013" class="node">
<title>Node13</title>
<g id="a_Node000013"><a xlink:href="class_diagram_scene.html#abfda0a4eecbce90cc6c7e7462259d199" target="_top" xlink:title=" ">
<polygon fill="white" stroke="#666666" points="763,-150 594.75,-150 594.75,-130 763,-130 763,-150"/>
<text xml:space="preserve" text-anchor="middle" x="678.88" y="-136.5" font-family="Helvetica,sans-Serif" font-size="10.00">DiagramScene::removeConnection</text>
</a>
</g>
</g>
<!-- Node11&#45;&gt;Node13 -->
<g id="edge13_Node000011_Node000013" class="edge">
<title>Node11&#45;&gt;Node13</title>
<g id="a_edge13_Node000011_Node000013"><a xlink:title=" ">
<path fill="none" stroke="#63b8ff" d="M787.43,-140C779.42,-140 771.36,-140 763.44,-140"/>
<polygon fill="#63b8ff" stroke="#63b8ff" points="787.18,-143.5 797.18,-140 787.18,-136.5 787.18,-143.5"/>
</a>
</g>
</g>
<!-- Node14 -->
<g id="Node000014" class="node">
<title>Node14</title>
<g id="a_Node000014"><a xlink:href="class_diagram_scene.html#a0d026405c431d3aca9494d64296bb956" target="_top" xlink:title=" ">
<polygon fill="white" stroke="#666666" points="756.25,-112 601.5,-112 601.5,-80 756.25,-80 756.25,-112"/>
<text xml:space="preserve" text-anchor="start" x="609.5" y="-98.5" font-family="Helvetica,sans-Serif" font-size="10.00">DiagramScene::removeElement</text>
<text xml:space="preserve" text-anchor="middle" x="678.88" y="-86.5" font-family="Helvetica,sans-Serif" font-size="10.00">Connections</text>
</a>
</g>
</g>
<!-- Node11&#45;&gt;Node14 -->
<g id="edge14_Node000011_Node000014" class="edge">
<title>Node11&#45;&gt;Node14</title>
<g id="a_edge14_Node000011_Node000014"><a xlink:title=" ">
<path fill="none" stroke="#63b8ff" d="M822.86,-127.11C801.74,-122.51 777.66,-117.27 755.35,-112.42"/>
<polygon fill="#63b8ff" stroke="#63b8ff" points="821.94,-130.49 832.46,-129.2 823.43,-123.65 821.94,-130.49"/>
</a>
</g>
</g>
<!-- Node12&#45;&gt;Node9 -->
<g id="edge12_Node000012_Node000009" class="edge">
<title>Node12&#45;&gt;Node9</title>
<g id="a_edge12_Node000012_Node000009"><a xlink:title=" ">
<path fill="none" stroke="#63b8ff" d="M181.67,-186.61C172.35,-187.54 162.91,-188.48 153.72,-189.4"/>
<polygon fill="#63b8ff" stroke="#63b8ff" points="181.85,-190.11 191.45,-185.63 181.15,-183.14 181.85,-190.11"/>
</a>
</g>
</g>
<!-- Node15 -->
<g id="Node000015" class="node">
<title>Node15</title>
<g id="a_Node000015"><a xlink:href="class_diagram_scene.html#ae531fa5ccfc6393d5a60f956a652118d" target="_top" xlink:title=" ">
<polygon fill="white" stroke="#666666" points="549,-133 394.25,-133 394.25,-113 549,-113 549,-133"/>
<text xml:space="preserve" text-anchor="middle" x="471.62" y="-119.5" font-family="Helvetica,sans-Serif" font-size="10.00">DiagramScene::removeElement</text>
</a>
</g>
</g>
<!-- Node14&#45;&gt;Node15 -->
<g id="edge15_Node000014_Node000015" class="edge">
<title>Node14&#45;&gt;Node15</title>
<g id="a_edge15_Node000014_Node000015"><a xlink:title=" ">
<path fill="none" stroke="#63b8ff" d="M589.9,-107.57C576.37,-109.35 562.5,-111.18 549.25,-112.92"/>
<polygon fill="#63b8ff" stroke="#63b8ff" points="590.2,-111.06 599.65,-106.29 589.28,-104.12 590.2,-111.06"/>
</a>
</g>
</g>
<!-- Node15&#45;&gt;Node12 -->
<g id="edge16_Node000015_Node000012" class="edge">
<title>Node15&#45;&gt;Node12</title>
<g id="a_edge16_Node000015_Node000012"><a xlink:title=" ">
<path fill="none" stroke="#63b8ff" d="M421.46,-136.47C386.48,-146.05 340.16,-158.74 307.96,-167.56"/>
<polygon fill="#63b8ff" stroke="#63b8ff" points="422.21,-139.89 430.93,-133.87 420.36,-133.14 422.21,-139.89"/>
</a>
</g>
</g>
<!-- Node16 -->
<g id="Node000016" class="node">
<title>Node16</title>
<g id="a_Node000016"><a xlink:href="class_diagram_scene.html#affc06437d827ac64a996cd13690a49c6" target="_top" xlink:title=" ">
<polygon fill="white" stroke="#666666" points="346.25,-133 191.5,-133 191.5,-113 346.25,-113 346.25,-133"/>
<text xml:space="preserve" text-anchor="middle" x="268.88" y="-119.5" font-family="Helvetica,sans-Serif" font-size="10.00">DiagramScene::removeElement</text>
</a>
</g>
</g>
<!-- Node15&#45;&gt;Node16 -->
<g id="edge17_Node000015_Node000016" class="edge">
<title>Node15&#45;&gt;Node16</title>
<g id="a_edge17_Node000015_Node000016"><a xlink:title=" ">
<path fill="none" stroke="#63b8ff" d="M382.49,-123C370.53,-123 358.33,-123 346.59,-123"/>
<polygon fill="#63b8ff" stroke="#63b8ff" points="382.36,-126.5 392.36,-123 382.36,-119.5 382.36,-126.5"/>
</a>
</g>
</g>
<!-- Node17&#45;&gt;Node11 -->
<g id="edge19_Node000017_Node000011" class="edge">
<title>Node17&#45;&gt;Node11</title>
<g id="a_edge19_Node000017_Node000011"><a xlink:title=" ">
<path fill="none" stroke="#63b8ff" d="M991.6,-130.98C983.59,-131.66 975.53,-132.33 967.61,-133"/>
<polygon fill="#63b8ff" stroke="#63b8ff" points="991.69,-134.49 1001.36,-130.16 991.11,-127.51 991.69,-134.49"/>
</a>
</g>
</g>
<!-- Node19 -->
<g id="Node000019" class="node">
<title>Node19</title>
<g id="a_Node000019"><a xlink:href="class_diagram_serializer.html#afc169d49508cfe6a9f14aadfbc395bff" target="_top" xlink:title=" ">
<polygon fill="white" stroke="#666666" points="944.75,-82 821.5,-82 821.5,-50 944.75,-50 944.75,-82"/>
<text xml:space="preserve" text-anchor="start" x="829.5" y="-68.5" font-family="Helvetica,sans-Serif" font-size="10.00">DiagramSerializer::</text>
<text xml:space="preserve" text-anchor="middle" x="883.12" y="-56.5" font-family="Helvetica,sans-Serif" font-size="10.00">connectionToJsonObject</text>
</a>
</g>
</g>
<!-- Node18&#45;&gt;Node19 -->
<g id="edge21_Node000018_Node000019" class="edge">
<title>Node18&#45;&gt;Node19</title>
<g id="a_edge21_Node000018_Node000019"><a xlink:title=" ">
<path fill="none" stroke="#63b8ff" d="M1013.11,-66C990.79,-66 966.53,-66 945.13,-66"/>
<polygon fill="#63b8ff" stroke="#63b8ff" points="1013.07,-69.5 1023.07,-66 1013.07,-62.5 1013.07,-69.5"/>
</a>
</g>
</g>
<!-- Node24 -->
<g id="Node000024" class="node">
<title>Node24</title>
<g id="a_Node000024"><a xlink:href="class_relationship_connection_line.html#a842e00383d27f1078be5ca78ed1e34ec" target="_top" xlink:title=" ">
<polygon fill="white" stroke="#666666" points="951.88,-32 814.38,-32 814.38,0 951.88,0 951.88,-32"/>
<text xml:space="preserve" text-anchor="start" x="822.38" y="-18.5" font-family="Helvetica,sans-Serif" font-size="10.00">RelationshipConnectionLine</text>
<text xml:space="preserve" text-anchor="middle" x="883.12" y="-6.5" font-family="Helvetica,sans-Serif" font-size="10.00">::serialize</text>
</a>
</g>
</g>
<!-- Node18&#45;&gt;Node24 -->
<g id="edge26_Node000018_Node000024" class="edge">
<title>Node18&#45;&gt;Node24</title>
<g id="a_edge26_Node000018_Node000024"><a xlink:title=" ">
<path fill="none" stroke="#63b8ff" d="M1033.42,-52.84C1008.14,-46.6 977.67,-39.08 950.87,-32.47"/>
<polygon fill="#63b8ff" stroke="#63b8ff" points="1032.26,-56.16 1042.8,-55.16 1033.93,-49.36 1032.26,-56.16"/>
</a>
</g>
</g>
<!-- Node20 -->
<g id="Node000020" class="node">
<title>Node20</title>
<g id="a_Node000020"><a xlink:href="class_diagram_serializer.html#a957a2a2f28fe9d1d257ff01154872608" target="_top" xlink:title=" ">
<polygon fill="white" stroke="#666666" points="734.12,-62 623.62,-62 623.62,-30 734.12,-30 734.12,-62"/>
<text xml:space="preserve" text-anchor="start" x="631.62" y="-48.5" font-family="Helvetica,sans-Serif" font-size="10.00">DiagramSerializer::</text>
<text xml:space="preserve" text-anchor="middle" x="678.88" y="-36.5" font-family="Helvetica,sans-Serif" font-size="10.00">diagramToJsonObject</text>
</a>
</g>
</g>
<!-- Node19&#45;&gt;Node20 -->
<g id="edge22_Node000019_Node000020" class="edge">
<title>Node19&#45;&gt;Node20</title>
<g id="a_edge22_Node000019_Node000020"><a xlink:title=" ">
<path fill="none" stroke="#63b8ff" d="M809.96,-58.86C785.12,-56.41 757.73,-53.7 734.52,-51.4"/>
<polygon fill="#63b8ff" stroke="#63b8ff" points="809.37,-62.32 819.66,-59.82 810.06,-55.36 809.37,-62.32"/>
</a>
</g>
</g>
<!-- Node21 -->
<g id="Node000021" class="node">
<title>Node21</title>
<g id="a_Node000021"><a xlink:href="class_diagram_serializer.html#af41f90138bda3c05cb4a37c709682770" target="_top" xlink:title=" ">
<polygon fill="white" stroke="#666666" points="521.62,-62 421.62,-62 421.62,-30 521.62,-30 521.62,-62"/>
<text xml:space="preserve" text-anchor="start" x="429.62" y="-48.5" font-family="Helvetica,sans-Serif" font-size="10.00">DiagramSerializer::</text>
<text xml:space="preserve" text-anchor="middle" x="471.62" y="-36.5" font-family="Helvetica,sans-Serif" font-size="10.00">saveDiagramToFile</text>
</a>
</g>
</g>
<!-- Node20&#45;&gt;Node21 -->
<g id="edge23_Node000020_Node000021" class="edge">
<title>Node20&#45;&gt;Node21</title>
<g id="a_edge23_Node000020_Node000021"><a xlink:title=" ">
<path fill="none" stroke="#63b8ff" d="M611.79,-46C582.6,-46 548.88,-46 521.94,-46"/>
<polygon fill="#63b8ff" stroke="#63b8ff" points="611.63,-49.5 621.63,-46 611.63,-42.5 611.63,-49.5"/>
</a>
</g>
</g>
<!-- Node22 -->
<g id="Node000022" class="node">
<title>Node22</title>
<g id="a_Node000022"><a xlink:href="class_auto_save_manager.html#a23c137dda32115b244ed8422369cc2e0" target="_top" xlink:title=" ">
<polygon fill="white" stroke="#666666" points="348.5,-78 189.25,-78 189.25,-58 348.5,-58 348.5,-78"/>
<text xml:space="preserve" text-anchor="middle" x="268.88" y="-64.5" font-family="Helvetica,sans-Serif" font-size="10.00">AutoSaveManager::executeSave</text>
</a>
</g>
</g>
<!-- Node21&#45;&gt;Node22 -->
<g id="edge24_Node000021_Node000022" class="edge">
<title>Node21&#45;&gt;Node22</title>
<g id="a_edge24_Node000021_Node000022"><a xlink:title=" ">
<path fill="none" stroke="#63b8ff" d="M409.92,-52.65C390.68,-54.76 369.12,-57.12 348.8,-59.35"/>
<polygon fill="#63b8ff" stroke="#63b8ff" points="410.2,-56.14 419.75,-51.57 409.43,-49.19 410.2,-56.14"/>
</a>
</g>
</g>
<!-- Node23 -->
<g id="Node000023" class="node">
<title>Node23</title>
<g id="a_Node000023"><a xlink:href="class_diagram_file_manager.html#a84a364087a0eecd1c416b05615fe1f0b" target="_top" xlink:title=" ">
<polygon fill="white" stroke="#666666" points="321.88,-40 215.88,-40 215.88,-8 321.88,-8 321.88,-40"/>
<text xml:space="preserve" text-anchor="start" x="223.88" y="-26.5" font-family="Helvetica,sans-Serif" font-size="10.00">DiagramFileManager</text>
<text xml:space="preserve" text-anchor="middle" x="268.88" y="-14.5" font-family="Helvetica,sans-Serif" font-size="10.00">::saveDiagram</text>
</a>
</g>
</g>
<!-- Node21&#45;&gt;Node23 -->
<g id="edge25_Node000021_Node000023" class="edge">
<title>Node21&#45;&gt;Node23</title>
<g id="a_edge25_Node000021_Node000023"><a xlink:title=" ">
<path fill="none" stroke="#63b8ff" d="M410,-39.36C382.01,-36.29 349.1,-32.68 322.21,-29.74"/>
<polygon fill="#63b8ff" stroke="#63b8ff" points="409.43,-42.81 419.75,-40.43 410.2,-35.86 409.43,-42.81"/>
</a>
</g>
</g>
</g>
</svg>

<g id="navigator" transform="translate(0 0)" fill="#404254">
  <rect fill="#f2f5e9" fill-opacity="0.5" stroke="#606060" stroke-width=".5" x="0" y="0" width="60" height="60"/>
  <use id="zoomplus" xlink:href="#zoomPlus" x="17" y="9" onmousedown="handleZoom(evt,'in')"/>
  <use id="zoomminus" xlink:href="#zoomMin" x="42" y="9" onmousedown="handleZoom(evt,'out')"/>
  <use id="reset" xlink:href="#resetDef" x="30" y="36" onmousedown="handleReset()"/>
   <use id="arrowup" xlink:href="#arrowUp" x="0" y="0" onmousedown="handlePan(0,-1)"/>
  <use id="arrowright" xlink:href="#arrowRight" x="0" y="0" onmousedown="handlePan(1,0)"/>
  <use id="arrowdown" xlink:href="#arrowDown" x="0" y="0" onmousedown="handlePan(0,1)"/>
  <use id="arrowleft" xlink:href="#arrowLeft" x="0" y="0" onmousedown="handlePan(-1,0)"/>
</g>
<svg viewBox="0 0 15 15" width="100%" height="30px" preserveAspectRatio="xMaxYMin meet">
 <g id="arrow_out" transform="scale(0.3 0.3)">
  <a xlink:href="class_connection_line_ab11952b505976244aabc575e0ec7b118_icgraph_org.svg" target="_base">
   <rect id="button" ry="5" rx="5" y="6" x="6" height="38" width="38"
        fill="#f2f5e9" fill-opacity="0.5" stroke="#606060" stroke-width="1.0"/>
   <path id="arrow"
     d="M 11.500037,31.436501 C 11.940474,20.09759 22.043105,11.32322 32.158766,21.979434 L 37.068811,17.246167 C 37.068811,17.246167 37.088388,32 37.088388,32 L 22.160133,31.978069 C 22.160133,31.978069 26.997745,27.140456 26.997745,27.140456 C 18.528582,18.264221 13.291696,25.230495 11.500037,31.436501 z"
     style="fill:#404040;"/>
  </a>
 </g>
</svg>

<style type='text/css'>
<![CDATA[
[data-mouse-over-selected='false'] { opacity: 0.7; }
[data-mouse-over-selected='true']  { opacity: 1.0; }
]]>
</style>
<script type="application/ecmascript"><![CDATA[
document.addEventListener('DOMContentLoaded', (event) => {
  highlightEdges();
  highlightAdjacentNodes();
});
]]></script>
</svg>
