<?xml version="1.0" encoding="UTF-8" standalone="no"?>
<!DOCTYPE svg PUBLIC "-//W3C//DTD SVG 1.1//EN"
 "http://www.w3.org/Graphics/SVG/1.1/DTD/svg11.dtd">
<!-- Generated by graphviz version 14.1.1 (20251213.1925)
 -->
<!-- Title: BasicElement::deserialize Pages: 1 -->
<svg width="508pt" height="154pt"
 viewBox="0.00 0.00 508.00 154.00" xmlns="http://www.w3.org/2000/svg" xmlns:xlink="http://www.w3.org/1999/xlink">
<g id="graph0" class="graph" transform="scale(1 1) rotate(0) translate(4 150)">
<title>BasicElement::deserialize</title>
<!-- Node1 -->
<g id="Node000001" class="node">
<title>Node1</title>
<g id="a_Node000001"><a xlink:title=" ">
<polygon fill="#999999" stroke="#666666" points="500.25,-89 371,-89 371,-69 500.25,-69 500.25,-89"/>
<text xml:space="preserve" text-anchor="middle" x="435.62" y="-75.5" font-family="Helvetica,sans-Serif" font-size="10.00">BasicElement::deserialize</text>
</a>
</g>
</g>
<!-- Node2 -->
<g id="Node000002" class="node">
<title>Node2</title>
<g id="a_Node000002"><a xlink:href="class_attribute.html#a598a04fe32a1046a6d55bbd3b227c023" target="_top" xlink:title=" ">
<polygon fill="white" stroke="#666666" points="312.88,-146 207.62,-146 207.62,-126 312.88,-126 312.88,-146"/>
<text xml:space="preserve" text-anchor="middle" x="260.25" y="-132.5" font-family="Helvetica,sans-Serif" font-size="10.00">Attribute::deserialize</text>
</a>
</g>
</g>
<!-- Node1&#45;&gt;Node2 -->
<g id="edge1_Node000001_Node000002" class="edge">
<title>Node1&#45;&gt;Node2</title>
<g id="a_edge1_Node000001_Node000002"><a xlink:title=" ">
<path fill="none" stroke="#63b8ff" d="M399.02,-93.69C380.17,-101.19 356.53,-110.15 335,-117 325.43,-120.05 315.04,-122.96 305.16,-125.55"/>
<polygon fill="#63b8ff" stroke="#63b8ff" points="400.14,-97.02 408.11,-90.04 397.53,-90.52 400.14,-97.02"/>
</a>
</g>
</g>
<!-- Node3 -->
<g id="Node000003" class="node">
<title>Node3</title>
<g id="a_Node000003"><a xlink:href="class_entity.html#ab38972d0a706fc31d67d0e22343c70e6" target="_top" xlink:title=" ">
<polygon fill="white" stroke="#666666" points="307.25,-108 213.25,-108 213.25,-88 307.25,-88 307.25,-108"/>
<text xml:space="preserve" text-anchor="middle" x="260.25" y="-94.5" font-family="Helvetica,sans-Serif" font-size="10.00">Entity::deserialize</text>
</a>
</g>
</g>
<!-- Node1&#45;&gt;Node3 -->
<g id="edge2_Node000001_Node000003" class="edge">
<title>Node1&#45;&gt;Node3</title>
<g id="a_edge2_Node000001_Node000003"><a xlink:title=" ">
<path fill="none" stroke="#63b8ff" d="M359.18,-87.27C341.67,-89.19 323.55,-91.17 307.72,-92.91"/>
<polygon fill="#63b8ff" stroke="#63b8ff" points="359.5,-90.75 369.05,-86.19 358.73,-83.8 359.5,-90.75"/>
</a>
</g>
</g>
<!-- Node4 -->
<g id="Node000004" class="node">
<title>Node4</title>
<g id="a_Node000004"><a xlink:href="class_relationship.html#af14ba497de57d4e14557eb4450fb730b" target="_top" xlink:title=" ">
<polygon fill="white" stroke="#666666" points="321.5,-70 199,-70 199,-50 321.5,-50 321.5,-70"/>
<text xml:space="preserve" text-anchor="middle" x="260.25" y="-56.5" font-family="Helvetica,sans-Serif" font-size="10.00">Relationship::deserialize</text>
</a>
</g>
</g>
<!-- Node1&#45;&gt;Node4 -->
<g id="edge3_Node000001_Node000004" class="edge">
<title>Node1&#45;&gt;Node4</title>
<g id="a_edge3_Node000001_Node000004"><a xlink:title=" ">
<path fill="none" stroke="#63b8ff" d="M359.22,-70.74C346.74,-69.37 333.94,-67.97 321.89,-66.65"/>
<polygon fill="#63b8ff" stroke="#63b8ff" points="358.73,-74.2 369.05,-71.81 359.5,-67.25 358.73,-74.2"/>
</a>
</g>
</g>
<!-- Node5 -->
<g id="Node000005" class="node">
<title>Node5</title>
<g id="a_Node000005"><a xlink:href="class_json_helper.html#adb4272c2eb4e63b0c8c1875252512e9c" target="_top" xlink:title=" ">
<polygon fill="white" stroke="#666666" points="335,-32 185.5,-32 185.5,0 335,0 335,-32"/>
<text xml:space="preserve" text-anchor="start" x="193.5" y="-18.5" font-family="Helvetica,sans-Serif" font-size="10.00">JsonHelper::elementFromJson</text>
<text xml:space="preserve" text-anchor="middle" x="260.25" y="-6.5" font-family="Helvetica,sans-Serif" font-size="10.00">Object</text>
</a>
</g>
</g>
<!-- Node1&#45;&gt;Node5 -->
<g id="edge4_Node000001_Node000005" class="edge">
<title>Node1&#45;&gt;Node5</title>
<g id="a_edge4_Node000001_Node000005"><a xlink:title=" ">
<path fill="none" stroke="#63b8ff" d="M397.37,-64.41C378.7,-57.2 355.72,-48.46 335,-41 327.11,-38.16 318.72,-35.23 310.53,-32.42"/>
<polygon fill="#63b8ff" stroke="#63b8ff" points="396.09,-67.67 406.68,-68.02 398.62,-61.14 396.09,-67.67"/>
</a>
</g>
</g>
<!-- Node6 -->
<g id="Node000006" class="node">
<title>Node6</title>
<g id="a_Node000006"><a xlink:href="class_json_helper.html#a189457b24e6d3d111c6f212ea1e65981" target="_top" xlink:title=" ">
<polygon fill="white" stroke="#666666" points="149.5,-26 0,-26 0,-6 149.5,-6 149.5,-26"/>
<text xml:space="preserve" text-anchor="middle" x="74.75" y="-12.5" font-family="Helvetica,sans-Serif" font-size="10.00">JsonHelper::elementFromJson</text>
</a>
</g>
</g>
<!-- Node5&#45;&gt;Node6 -->
<g id="edge5_Node000005_Node000006" class="edge">
<title>Node5&#45;&gt;Node6</title>
<g id="a_edge5_Node000005_Node000006"><a xlink:title=" ">
<path fill="none" stroke="#63b8ff" d="M173.86,-16C165.84,-16 157.75,-16 149.84,-16"/>
<polygon fill="#63b8ff" stroke="#63b8ff" points="173.63,-19.5 183.63,-16 173.63,-12.5 173.63,-19.5"/>
</a>
</g>
</g>
</g>
</svg>
