<?xml version="1.0" encoding="UTF-8" standalone="no"?>
<!DOCTYPE svg PUBLIC "-//W3C//DTD SVG 1.1//EN"
 "http://www.w3.org/Graphics/SVG/1.1/DTD/svg11.dtd">
<!-- Generated by graphviz version 14.1.1 (20251213.1925)
 -->
<!-- Title: JsonHelper::diagramToJson Pages: 1 -->
<svg width="846pt" height="128pt"
 viewBox="0.00 0.00 846.00 128.00" xmlns="http://www.w3.org/2000/svg" xmlns:xlink="http://www.w3.org/1999/xlink">
<g id="graph0" class="graph" transform="scale(1 1) rotate(0) translate(4 124)">
<title>JsonHelper::diagramToJson</title>
<!-- Node1 -->
<g id="Node000001" class="node">
<title>Node1</title>
<g id="a_Node000001"><a xlink:title=" ">
<polygon fill="#999999" stroke="#666666" points="137.5,-51 0,-51 0,-31 137.5,-31 137.5,-51"/>
<text xml:space="preserve" text-anchor="middle" x="68.75" y="-37.5" font-family="Helvetica,sans-Serif" font-size="10.00">JsonHelper::diagramToJson</text>
</a>
</g>
</g>
<!-- Node2 -->
<g id="Node000002" class="node">
<title>Node2</title>
<g id="a_Node000002"><a xlink:href="class_json_helper.html#a3dc80512edb9b1f8bc8e50015e27e864" target="_top" xlink:title=" ">
<polygon fill="white" stroke="#666666" points="311,-57 173.5,-57 173.5,-25 311,-25 311,-57"/>
<text xml:space="preserve" text-anchor="start" x="181.5" y="-43.5" font-family="Helvetica,sans-Serif" font-size="10.00">JsonHelper::diagramToJson</text>
<text xml:space="preserve" text-anchor="middle" x="242.25" y="-31.5" font-family="Helvetica,sans-Serif" font-size="10.00">Object</text>
</a>
</g>
</g>
<!-- Node1&#45;&gt;Node2 -->
<g id="edge1_Node000001_Node000002" class="edge">
<title>Node1&#45;&gt;Node2</title>
<g id="a_edge1_Node000001_Node000002"><a xlink:title=" ">
<path fill="none" stroke="#63b8ff" d="M137.53,-41C145.49,-41 153.66,-41 161.75,-41"/>
<polygon fill="#63b8ff" stroke="#63b8ff" points="161.6,-44.5 171.6,-41 161.6,-37.5 161.6,-44.5"/>
</a>
</g>
</g>
<!-- Node3 -->
<g id="Node000003" class="node">
<title>Node3</title>
<g id="a_Node000003"><a xlink:href="class_json_helper.html#ace49a2bdc031d44388b744f93da1fd6d" target="_top" xlink:title=" ">
<polygon fill="white" stroke="#666666" points="480.38,-82 351.12,-82 351.12,-50 480.38,-50 480.38,-82"/>
<text xml:space="preserve" text-anchor="start" x="359.12" y="-68.5" font-family="Helvetica,sans-Serif" font-size="10.00">JsonHelper::connectionTo</text>
<text xml:space="preserve" text-anchor="middle" x="415.75" y="-56.5" font-family="Helvetica,sans-Serif" font-size="10.00">JsonObject</text>
</a>
</g>
</g>
<!-- Node2&#45;&gt;Node3 -->
<g id="edge2_Node000002_Node000003" class="edge">
<title>Node2&#45;&gt;Node3</title>
<g id="a_edge2_Node000002_Node000003"><a xlink:title=" ">
<path fill="none" stroke="#63b8ff" d="M311.03,-50.88C320.45,-52.25 330.18,-53.67 339.72,-55.06"/>
<polygon fill="#63b8ff" stroke="#63b8ff" points="338.92,-58.48 349.32,-56.46 339.93,-51.56 338.92,-58.48"/>
</a>
</g>
</g>
<!-- Node8 -->
<g id="Node000008" class="node">
<title>Node8</title>
<g id="a_Node000008"><a xlink:href="class_json_helper.html#a2141a614711cf449951f1ebde5a9b119" target="_top" xlink:title=" ">
<polygon fill="white" stroke="#666666" points="484.5,-32 347,-32 347,0 484.5,0 484.5,-32"/>
<text xml:space="preserve" text-anchor="start" x="355" y="-18.5" font-family="Helvetica,sans-Serif" font-size="10.00">JsonHelper::elementToJson</text>
<text xml:space="preserve" text-anchor="middle" x="415.75" y="-6.5" font-family="Helvetica,sans-Serif" font-size="10.00">Object</text>
</a>
</g>
</g>
<!-- Node2&#45;&gt;Node8 -->
<g id="edge7_Node000002_Node000008" class="edge">
<title>Node2&#45;&gt;Node8</title>
<g id="a_edge7_Node000002_Node000008"><a xlink:title=" ">
<path fill="none" stroke="#63b8ff" d="M311.03,-31.12C318.99,-29.96 327.16,-28.77 335.25,-27.59"/>
<polygon fill="#63b8ff" stroke="#63b8ff" points="335.73,-31.06 345.12,-26.15 334.72,-24.13 335.73,-31.06"/>
</a>
</g>
</g>
<!-- Node4 -->
<g id="Node000004" class="node">
<title>Node4</title>
<g id="a_Node000004"><a xlink:href="class_connection_line.html#a89b03bf381274e4504b1cde0f32972ee" target="_top" xlink:title=" ">
<polygon fill="white" stroke="#666666" points="646,-76 520.5,-76 520.5,-56 646,-56 646,-76"/>
<text xml:space="preserve" text-anchor="middle" x="583.25" y="-62.5" font-family="Helvetica,sans-Serif" font-size="10.00">ConnectionLine::serialize</text>
</a>
</g>
</g>
<!-- Node3&#45;&gt;Node4 -->
<g id="edge3_Node000003_Node000004" class="edge">
<title>Node3&#45;&gt;Node4</title>
<g id="a_edge3_Node000003_Node000004"><a xlink:title=" ">
<path fill="none" stroke="#63b8ff" d="M480.74,-66C489.92,-66 499.43,-66 508.78,-66"/>
<polygon fill="#63b8ff" stroke="#63b8ff" points="508.55,-69.5 518.55,-66 508.55,-62.5 508.55,-69.5"/>
</a>
</g>
</g>
<!-- Node5 -->
<g id="Node000005" class="node">
<title>Node5</title>
<g id="a_Node000005"><a xlink:href="class_connection_line.html#ab11952b505976244aabc575e0ec7b118" target="_top" xlink:title=" ">
<polygon fill="white" stroke="#666666" points="838.25,-120 682,-120 682,-100 838.25,-100 838.25,-120"/>
<text xml:space="preserve" text-anchor="middle" x="760.12" y="-106.5" font-family="Helvetica,sans-Serif" font-size="10.00">ConnectionLine::getEndElement</text>
</a>
</g>
</g>
<!-- Node4&#45;&gt;Node5 -->
<g id="edge4_Node000004_Node000005" class="edge">
<title>Node4&#45;&gt;Node5</title>
<g id="a_edge4_Node000004_Node000005"><a xlink:title=" ">
<path fill="none" stroke="#63b8ff" d="M624.65,-76.42C642.26,-80.94 663.14,-86.27 682,-91 689.55,-92.89 697.51,-94.88 705.34,-96.82"/>
<polygon fill="#63b8ff" stroke="#63b8ff" points="704.26,-100.15 714.8,-99.15 705.94,-93.36 704.26,-100.15"/>
</a>
</g>
</g>
<!-- Node6 -->
<g id="Node000006" class="node">
<title>Node6</title>
<g id="a_Node000006"><a xlink:href="class_connection_line.html#ad957be37b7bbb9250366225fd357a5a6" target="_top" xlink:title=" ">
<polygon fill="white" stroke="#666666" points="822.12,-82 698.12,-82 698.12,-50 822.12,-50 822.12,-82"/>
<text xml:space="preserve" text-anchor="start" x="706.12" y="-68.5" font-family="Helvetica,sans-Serif" font-size="10.00">ConnectionLine::getStart</text>
<text xml:space="preserve" text-anchor="middle" x="760.12" y="-56.5" font-family="Helvetica,sans-Serif" font-size="10.00">Element</text>
</a>
</g>
</g>
<!-- Node4&#45;&gt;Node6 -->
<g id="edge5_Node000004_Node000006" class="edge">
<title>Node4&#45;&gt;Node6</title>
<g id="a_edge5_Node000004_Node000006"><a xlink:title=" ">
<path fill="none" stroke="#63b8ff" d="M646.4,-66C659.3,-66 673.02,-66 686.27,-66"/>
<polygon fill="#63b8ff" stroke="#63b8ff" points="686.25,-69.5 696.25,-66 686.25,-62.5 686.25,-69.5"/>
</a>
</g>
</g>
<!-- Node7 -->
<g id="Node000007" class="node">
<title>Node7</title>
<g id="a_Node000007"><a xlink:href="class_connection_line.html#aacfed243a999c948c87dab84ebc508aa" target="_top" xlink:title=" ">
<polygon fill="white" stroke="#666666" points="825.12,-32 695.12,-32 695.12,-12 825.12,-12 825.12,-32"/>
<text xml:space="preserve" text-anchor="middle" x="760.12" y="-18.5" font-family="Helvetica,sans-Serif" font-size="10.00">ConnectionLine::lineWidth</text>
</a>
</g>
</g>
<!-- Node4&#45;&gt;Node7 -->
<g id="edge6_Node000004_Node000007" class="edge">
<title>Node4&#45;&gt;Node7</title>
<g id="a_edge6_Node000004_Node000007"><a xlink:title=" ">
<path fill="none" stroke="#63b8ff" d="M624.65,-55.58C642.26,-51.06 663.14,-45.73 682,-41 689.55,-39.11 697.51,-37.12 705.34,-35.18"/>
<polygon fill="#63b8ff" stroke="#63b8ff" points="705.94,-38.64 714.8,-32.85 704.26,-31.85 705.94,-38.64"/>
</a>
</g>
</g>
<!-- Node9 -->
<g id="Node000009" class="node">
<title>Node9</title>
<g id="a_Node000009"><a xlink:href="class_basic_element.html#a56f5f9a22723d2a99d87c7508b0bec7f" target="_top" xlink:title=" ">
<polygon fill="white" stroke="#666666" points="642.62,-26 523.88,-26 523.88,-6 642.62,-6 642.62,-26"/>
<text xml:space="preserve" text-anchor="middle" x="583.25" y="-12.5" font-family="Helvetica,sans-Serif" font-size="10.00">BasicElement::serialize</text>
</a>
</g>
</g>
<!-- Node8&#45;&gt;Node9 -->
<g id="edge8_Node000008_Node000009" class="edge">
<title>Node8&#45;&gt;Node9</title>
<g id="a_edge8_Node000008_Node000009"><a xlink:title=" ">
<path fill="none" stroke="#63b8ff" d="M484.54,-16C493.64,-16 502.99,-16 512.13,-16"/>
<polygon fill="#63b8ff" stroke="#63b8ff" points="512.05,-19.5 522.05,-16 512.05,-12.5 512.05,-19.5"/>
</a>
</g>
</g>
</g>
</svg>
