<?xml version="1.0" encoding="UTF-8" standalone="no"?>
<!DOCTYPE svg PUBLIC "-//W3C//DTD SVG 1.1//EN"
 "http://www.w3.org/Graphics/SVG/1.1/DTD/svg11.dtd">
<!-- Generated by graphviz version 14.1.1 (20251213.1925)
 -->
<!-- Title: ConnectionGraphicsItem::~ConnectionGraphicsItem Pages: 1 -->
<svg width="1059pt" height="406pt"
 viewBox="0.00 0.00 1059.00 406.00" xmlns="http://www.w3.org/2000/svg" xmlns:xlink="http://www.w3.org/1999/xlink">
<g id="graph0" class="graph" transform="scale(1 1) rotate(0) translate(4 402)">
<title>ConnectionGraphicsItem::~ConnectionGraphicsItem</title>
<!-- Node1 -->
<g id="Node000001" class="node">
<title>Node1</title>
<g id="a_Node000001"><a xlink:title=" ">
<polygon fill="#999999" stroke="#666666" points="136,-182 0,-182 0,-150 136,-150 136,-182"/>
<text xml:space="preserve" text-anchor="start" x="8" y="-168.5" font-family="Helvetica,sans-Serif" font-size="10.00">ConnectionGraphicsItem</text>
<text xml:space="preserve" text-anchor="middle" x="68" y="-156.5" font-family="Helvetica,sans-Serif" font-size="10.00">::~ConnectionGraphicsItem</text>
</a>
</g>
</g>
<!-- Node2 -->
<g id="Node000002" class="node">
<title>Node2</title>
<g id="a_Node000002"><a xlink:href="class_connection_graphics_item.html#a72e7dac6ba526930e9c71d2aac9b9fd2" target="_top" xlink:title=" ">
<polygon fill="white" stroke="#666666" points="313.25,-182 172,-182 172,-150 313.25,-150 313.25,-182"/>
<text xml:space="preserve" text-anchor="start" x="180" y="-168.5" font-family="Helvetica,sans-Serif" font-size="10.00">ConnectionGraphicsItem</text>
<text xml:space="preserve" text-anchor="middle" x="242.62" y="-156.5" font-family="Helvetica,sans-Serif" font-size="10.00">::disconnectFromConnection</text>
</a>
</g>
</g>
<!-- Node1&#45;&gt;Node2 -->
<g id="edge1_Node000001_Node000002" class="edge">
<title>Node1&#45;&gt;Node2</title>
<g id="a_edge1_Node000001_Node000002"><a xlink:title=" ">
<path fill="none" stroke="#63b8ff" d="M136.24,-166C144.15,-166 152.29,-166 160.37,-166"/>
<polygon fill="#63b8ff" stroke="#63b8ff" points="160.21,-169.5 170.21,-166 160.21,-162.5 160.21,-169.5"/>
</a>
</g>
</g>
<!-- Node3 -->
<g id="Node000003" class="node">
<title>Node3</title>
<g id="a_Node000003"><a xlink:href="class_connection_line.html#a9de44ae385d7941f3aa79da06e97d510" target="_top" xlink:title=" ">
<polygon fill="white" stroke="#666666" points="490.88,-332 354.12,-332 354.12,-300 490.88,-300 490.88,-332"/>
<text xml:space="preserve" text-anchor="start" x="362.12" y="-318.5" font-family="Helvetica,sans-Serif" font-size="10.00">ConnectionLine::connection</text>
<text xml:space="preserve" text-anchor="middle" x="422.5" y="-306.5" font-family="Helvetica,sans-Serif" font-size="10.00">Changed</text>
</a>
</g>
</g>
<!-- Node2&#45;&gt;Node3 -->
<g id="edge2_Node000002_Node000003" class="edge">
<title>Node2&#45;&gt;Node3</title>
<g id="a_edge2_Node000002_Node000003"><a xlink:title=" ">
<path fill="none" stroke="#63b8ff" d="M253.22,-182.22C269.66,-208.67 305.67,-261.11 349.25,-291 351.02,-292.21 352.84,-293.37 354.72,-294.47"/>
<polygon fill="#63b8ff" stroke="#63b8ff" points="352.63,-297.33 363.12,-298.88 355.89,-291.13 352.63,-297.33"/>
</a>
</g>
</g>
<!-- Node10 -->
<g id="Node000010" class="node">
<title>Node10</title>
<g id="a_Node000010"><a xlink:href="class_connection_line.html#a93e2b3868595cc0ac41de6c0f36c2365" target="_top" xlink:title=" ">
<polygon fill="white" stroke="#666666" points="495.75,-282 349.25,-282 349.25,-250 495.75,-250 495.75,-282"/>
<text xml:space="preserve" text-anchor="start" x="357.25" y="-268.5" font-family="Helvetica,sans-Serif" font-size="10.00">ConnectionLine::controlPoints</text>
<text xml:space="preserve" text-anchor="middle" x="422.5" y="-256.5" font-family="Helvetica,sans-Serif" font-size="10.00">Changed</text>
</a>
</g>
</g>
<!-- Node2&#45;&gt;Node10 -->
<g id="edge11_Node000002_Node000010" class="edge">
<title>Node2&#45;&gt;Node10</title>
<g id="a_edge11_Node000002_Node000010"><a xlink:title=" ">
<path fill="none" stroke="#63b8ff" d="M263.17,-182.47C283.58,-199.04 317.05,-224.43 349.25,-241 352.07,-242.45 355,-243.85 357.98,-245.19"/>
<polygon fill="#63b8ff" stroke="#63b8ff" points="356.32,-248.29 366.89,-248.95 359.04,-241.84 356.32,-248.29"/>
</a>
</g>
</g>
<!-- Node11 -->
<g id="Node000011" class="node">
<title>Node11</title>
<g id="a_Node000011"><a xlink:href="class_connection_line.html#aac502857bfb1af787f061a04ab4243be" target="_top" xlink:title=" ">
<polygon fill="white" stroke="#666666" points="486.38,-232 358.62,-232 358.62,-200 486.38,-200 486.38,-232"/>
<text xml:space="preserve" text-anchor="start" x="366.62" y="-218.5" font-family="Helvetica,sans-Serif" font-size="10.00">ConnectionLine::endPoint</text>
<text xml:space="preserve" text-anchor="middle" x="422.5" y="-206.5" font-family="Helvetica,sans-Serif" font-size="10.00">Changed</text>
</a>
</g>
</g>
<!-- Node2&#45;&gt;Node11 -->
<g id="edge12_Node000002_Node000011" class="edge">
<title>Node2&#45;&gt;Node11</title>
<g id="a_edge12_Node000002_Node000011"><a xlink:title=" ">
<path fill="none" stroke="#63b8ff" d="M301.87,-182.37C317.91,-186.88 335.47,-191.82 352.07,-196.48"/>
<polygon fill="#63b8ff" stroke="#63b8ff" points="350.79,-199.76 361.36,-199.1 352.69,-193.02 350.79,-199.76"/>
</a>
</g>
</g>
<!-- Node12 -->
<g id="Node000012" class="node">
<title>Node12</title>
<g id="a_Node000012"><a xlink:href="class_connection_line.html#a7af2a1f9fc1a9ddb362634ecaa926ae8" target="_top" xlink:title=" ">
<polygon fill="white" stroke="#666666" points="485.25,-182 359.75,-182 359.75,-150 485.25,-150 485.25,-182"/>
<text xml:space="preserve" text-anchor="start" x="367.75" y="-168.5" font-family="Helvetica,sans-Serif" font-size="10.00">ConnectionLine::lineType</text>
<text xml:space="preserve" text-anchor="middle" x="422.5" y="-156.5" font-family="Helvetica,sans-Serif" font-size="10.00">Changed</text>
</a>
</g>
</g>
<!-- Node2&#45;&gt;Node12 -->
<g id="edge13_Node000002_Node000012" class="edge">
<title>Node2&#45;&gt;Node12</title>
<g id="a_edge13_Node000002_Node000012"><a xlink:title=" ">
<path fill="none" stroke="#63b8ff" d="M313.67,-166C324.97,-166 336.7,-166 348.08,-166"/>
<polygon fill="#63b8ff" stroke="#63b8ff" points="347.8,-169.5 357.8,-166 347.8,-162.5 347.8,-169.5"/>
</a>
</g>
</g>
<!-- Node13 -->
<g id="Node000013" class="node">
<title>Node13</title>
<g id="a_Node000013"><a xlink:href="class_connection_line.html#a3c8e72d1084c985add08c5e37d54835f" target="_top" xlink:title=" ">
<polygon fill="white" stroke="#666666" points="487.5,-132 357.5,-132 357.5,-100 487.5,-100 487.5,-132"/>
<text xml:space="preserve" text-anchor="start" x="365.5" y="-118.5" font-family="Helvetica,sans-Serif" font-size="10.00">ConnectionLine::lineWidth</text>
<text xml:space="preserve" text-anchor="middle" x="422.5" y="-106.5" font-family="Helvetica,sans-Serif" font-size="10.00">Changed</text>
</a>
</g>
</g>
<!-- Node2&#45;&gt;Node13 -->
<g id="edge14_Node000002_Node000013" class="edge">
<title>Node2&#45;&gt;Node13</title>
<g id="a_edge14_Node000002_Node000013"><a xlink:title=" ">
<path fill="none" stroke="#63b8ff" d="M301.87,-149.63C317.91,-145.12 335.47,-140.18 352.07,-135.52"/>
<polygon fill="#63b8ff" stroke="#63b8ff" points="352.69,-138.98 361.36,-132.9 350.79,-132.24 352.69,-138.98"/>
</a>
</g>
</g>
<!-- Node14 -->
<g id="Node000014" class="node">
<title>Node14</title>
<g id="a_Node000014"><a xlink:href="class_connection_line.html#afcc2bd845912903497ccaa97e67b8a89" target="_top" xlink:title=" ">
<polygon fill="white" stroke="#666666" points="488.25,-82 356.75,-82 356.75,-50 488.25,-50 488.25,-82"/>
<text xml:space="preserve" text-anchor="start" x="364.75" y="-68.5" font-family="Helvetica,sans-Serif" font-size="10.00">ConnectionLine::startPoint</text>
<text xml:space="preserve" text-anchor="middle" x="422.5" y="-56.5" font-family="Helvetica,sans-Serif" font-size="10.00">Changed</text>
</a>
</g>
</g>
<!-- Node2&#45;&gt;Node14 -->
<g id="edge15_Node000002_Node000014" class="edge">
<title>Node2&#45;&gt;Node14</title>
<g id="a_edge15_Node000002_Node000014"><a xlink:title=" ">
<path fill="none" stroke="#63b8ff" d="M263.17,-149.53C283.58,-132.96 317.05,-107.57 349.25,-91 352.07,-89.55 355,-88.15 357.98,-86.81"/>
<polygon fill="#63b8ff" stroke="#63b8ff" points="359.04,-90.16 366.89,-83.05 356.32,-83.71 359.04,-90.16"/>
</a>
</g>
</g>
<!-- Node15 -->
<g id="Node000015" class="node">
<title>Node15</title>
<g id="a_Node000015"><a xlink:href="class_connection_graphics_item.html#ae9e946d48f378aea3604fe67c95fe9a6" target="_top" xlink:title=" ">
<polygon fill="white" stroke="#666666" points="484.5,-32 360.5,-32 360.5,0 484.5,0 484.5,-32"/>
<text xml:space="preserve" text-anchor="start" x="368.5" y="-18.5" font-family="Helvetica,sans-Serif" font-size="10.00">ConnectionGraphicsItem</text>
<text xml:space="preserve" text-anchor="middle" x="422.5" y="-6.5" font-family="Helvetica,sans-Serif" font-size="10.00">::updateFromConnection</text>
</a>
</g>
</g>
<!-- Node2&#45;&gt;Node15 -->
<g id="edge16_Node000002_Node000015" class="edge">
<title>Node2&#45;&gt;Node15</title>
<g id="a_edge16_Node000002_Node000015"><a xlink:title=" ">
<path fill="none" stroke="#63b8ff" d="M253.22,-149.78C269.66,-123.33 305.67,-70.89 349.25,-41 351.02,-39.79 352.84,-38.63 354.72,-37.53"/>
<polygon fill="#63b8ff" stroke="#63b8ff" points="355.89,-40.87 363.12,-33.12 352.63,-34.67 355.89,-40.87"/>
</a>
</g>
</g>
<!-- Node4 -->
<g id="Node000004" class="node">
<title>Node4</title>
<g id="a_Node000004"><a xlink:href="class_connection_line.html#a657559dca679d5fd04ae565b442b6a8b" target="_top" xlink:title=" ">
<polygon fill="white" stroke="#666666" points="688.75,-326 531.75,-326 531.75,-306 688.75,-306 688.75,-326"/>
<text xml:space="preserve" text-anchor="middle" x="610.25" y="-312.5" font-family="Helvetica,sans-Serif" font-size="10.00">ConnectionLine::ConnectionLine</text>
</a>
</g>
</g>
<!-- Node3&#45;&gt;Node4 -->
<g id="edge3_Node000003_Node000004" class="edge">
<title>Node3&#45;&gt;Node4</title>
<g id="a_edge3_Node000003_Node000004"><a xlink:title=" ">
<path fill="none" stroke="#63b8ff" d="M491.35,-316C500.73,-316 510.49,-316 520.19,-316"/>
<polygon fill="#63b8ff" stroke="#63b8ff" points="520.01,-319.5 530.01,-316 520.01,-312.5 520.01,-319.5"/>
</a>
</g>
</g>
<!-- Node5 -->
<g id="Node000005" class="node">
<title>Node5</title>
<g id="a_Node000005"><a xlink:href="class_connection_line.html#a836aef7faf5a4fb8a5a10bfc71dbabe3" target="_top" xlink:title=" ">
<polygon fill="white" stroke="#666666" points="859.25,-332 724.75,-332 724.75,-300 859.25,-300 859.25,-332"/>
<text xml:space="preserve" text-anchor="start" x="732.75" y="-318.5" font-family="Helvetica,sans-Serif" font-size="10.00">ConnectionLine::connectTo</text>
<text xml:space="preserve" text-anchor="middle" x="792" y="-306.5" font-family="Helvetica,sans-Serif" font-size="10.00">Points</text>
</a>
</g>
</g>
<!-- Node4&#45;&gt;Node5 -->
<g id="edge4_Node000004_Node000005" class="edge">
<title>Node4&#45;&gt;Node5</title>
<g id="a_edge4_Node000004_Node000005"><a xlink:title=" ">
<path fill="none" stroke="#63b8ff" d="M689.05,-316C696.95,-316 704.98,-316 712.89,-316"/>
<polygon fill="#63b8ff" stroke="#63b8ff" points="712.85,-319.5 722.85,-316 712.85,-312.5 712.85,-319.5"/>
</a>
</g>
</g>
<!-- Node6 -->
<g id="Node000006" class="node">
<title>Node6</title>
<g id="a_Node000006"><a xlink:href="class_connection_line.html#a53c863c51a284a7a8e6b35bc34bd2d34" target="_top" xlink:title=" ">
<polygon fill="white" stroke="#666666" points="1047.75,-398 898.25,-398 898.25,-366 1047.75,-366 1047.75,-398"/>
<text xml:space="preserve" text-anchor="start" x="906.25" y="-384.5" font-family="Helvetica,sans-Serif" font-size="10.00">ConnectionLine::onConnection</text>
<text xml:space="preserve" text-anchor="middle" x="973" y="-372.5" font-family="Helvetica,sans-Serif" font-size="10.00">PointChanged</text>
</a>
</g>
</g>
<!-- Node5&#45;&gt;Node6 -->
<g id="edge5_Node000005_Node000006" class="edge">
<title>Node5&#45;&gt;Node6</title>
<g id="a_edge5_Node000005_Node000006"><a xlink:title=" ">
<path fill="none" stroke="#63b8ff" d="M832.1,-332.38C851.05,-340.15 874.22,-349.37 895.25,-357 899.7,-358.61 904.3,-360.24 908.95,-361.84"/>
<polygon fill="#63b8ff" stroke="#63b8ff" points="907.79,-365.14 918.39,-365.03 910.04,-358.51 907.79,-365.14"/>
</a>
</g>
</g>
<!-- Node7 -->
<g id="Node000007" class="node">
<title>Node7</title>
<g id="a_Node000007"><a xlink:href="class_connection_line.html#a4bce34a3f2fb1fd7145de2d9100c9173" target="_top" xlink:title=" ">
<polygon fill="white" stroke="#666666" points="1041,-260 905,-260 905,-228 1041,-228 1041,-260"/>
<text xml:space="preserve" text-anchor="start" x="913" y="-246.5" font-family="Helvetica,sans-Serif" font-size="10.00">ConnectionLine::onElement</text>
<text xml:space="preserve" text-anchor="middle" x="973" y="-234.5" font-family="Helvetica,sans-Serif" font-size="10.00">PositionChanged</text>
</a>
</g>
</g>
<!-- Node5&#45;&gt;Node7 -->
<g id="edge7_Node000005_Node000007" class="edge">
<title>Node5&#45;&gt;Node7</title>
<g id="a_edge7_Node000005_Node000007"><a xlink:title=" ">
<path fill="none" stroke="#63b8ff" d="M826.2,-299.55C846,-290.04 871.78,-278.18 895.25,-269 899.39,-267.38 903.68,-265.78 908.02,-264.22"/>
<polygon fill="#63b8ff" stroke="#63b8ff" points="909.16,-267.53 917.44,-260.92 906.84,-260.92 909.16,-267.53"/>
</a>
</g>
</g>
<!-- Node8 -->
<g id="Node000008" class="node">
<title>Node8</title>
<g id="a_Node000008"><a xlink:href="class_basic_element.html#a02183bafd7c80f9f1f99a9b9f1631524" target="_top" xlink:title=" ">
<polygon fill="white" stroke="#666666" points="1050.75,-348 895.25,-348 895.25,-328 1050.75,-328 1050.75,-348"/>
<text xml:space="preserve" text-anchor="middle" x="973" y="-334.5" font-family="Helvetica,sans-Serif" font-size="10.00">BasicElement::positionChanged</text>
</a>
</g>
</g>
<!-- Node5&#45;&gt;Node8 -->
<g id="edge9_Node000005_Node000008" class="edge">
<title>Node5&#45;&gt;Node8</title>
<g id="a_edge9_Node000005_Node000008"><a xlink:title=" ">
<path fill="none" stroke="#63b8ff" d="M859.65,-324.19C867.49,-325.16 875.58,-326.15 883.65,-327.14"/>
<polygon fill="#63b8ff" stroke="#63b8ff" points="883.18,-330.61 893.53,-328.36 884.03,-323.66 883.18,-330.61"/>
</a>
</g>
</g>
<!-- Node9 -->
<g id="Node000009" class="node">
<title>Node9</title>
<g id="a_Node000009"><a xlink:href="class_connection_point.html#a851668ae19e97658f1818a40ea375f65" target="_top" xlink:title=" ">
<polygon fill="white" stroke="#666666" points="1035.75,-310 910.25,-310 910.25,-278 1035.75,-278 1035.75,-310"/>
<text xml:space="preserve" text-anchor="start" x="918.25" y="-296.5" font-family="Helvetica,sans-Serif" font-size="10.00">ConnectionPoint::relative</text>
<text xml:space="preserve" text-anchor="middle" x="973" y="-284.5" font-family="Helvetica,sans-Serif" font-size="10.00">PositionChanged</text>
</a>
</g>
</g>
<!-- Node5&#45;&gt;Node9 -->
<g id="edge10_Node000005_Node000009" class="edge">
<title>Node5&#45;&gt;Node9</title>
<g id="a_edge10_Node000005_Node000009"><a xlink:title=" ">
<path fill="none" stroke="#63b8ff" d="M859.65,-307.81C872.41,-306.24 885.84,-304.59 898.8,-303"/>
<polygon fill="#63b8ff" stroke="#63b8ff" points="899.03,-306.49 908.53,-301.8 898.18,-299.55 899.03,-306.49"/>
</a>
</g>
</g>
<!-- Node6&#45;&gt;Node3 -->
<g id="edge6_Node000006_Node000003" class="edge">
<title>Node6&#45;&gt;Node3</title>
<g id="a_edge6_Node000006_Node000003"><a xlink:title=" ">
<path fill="none" stroke="#63b8ff" d="M897.81,-375.62C810.15,-367.72 660,-353.08 531.75,-335 522.21,-333.66 512.22,-332.1 502.33,-330.47"/>
<polygon fill="#63b8ff" stroke="#63b8ff" points="503.17,-327.07 492.73,-328.86 502.01,-333.97 503.17,-327.07"/>
</a>
</g>
</g>
<!-- Node7&#45;&gt;Node3 -->
<g id="edge8_Node000007_Node000003" class="edge">
<title>Node7&#45;&gt;Node3</title>
<g id="a_edge8_Node000007_Node000003"><a xlink:title=" ">
<path fill="none" stroke="#63b8ff" d="M904.72,-250.96C818.24,-260.17 663.5,-277.52 531.75,-297 522.22,-298.41 512.24,-300 502.35,-301.65"/>
<polygon fill="#63b8ff" stroke="#63b8ff" points="502.03,-298.16 492.75,-303.28 503.2,-305.06 502.03,-298.16"/>
</a>
</g>
</g>
<!-- Node16 -->
<g id="Node000016" class="node">
<title>Node16</title>
<g id="a_Node000016"><a xlink:href="class_connection_graphics_item.html#aadc87896a249eaf4a8b7fdcc76745e34" target="_top" xlink:title=" ">
<polygon fill="white" stroke="#666666" points="683.12,-32 537.38,-32 537.38,0 683.12,0 683.12,-32"/>
<text xml:space="preserve" text-anchor="start" x="545.38" y="-18.5" font-family="Helvetica,sans-Serif" font-size="10.00">ConnectionGraphicsItem</text>
<text xml:space="preserve" text-anchor="middle" x="610.25" y="-6.5" font-family="Helvetica,sans-Serif" font-size="10.00">::updateControlPointsPosition</text>
</a>
</g>
</g>
<!-- Node15&#45;&gt;Node16 -->
<g id="edge17_Node000015_Node000016" class="edge">
<title>Node15&#45;&gt;Node16</title>
<g id="a_edge17_Node000015_Node000016"><a xlink:title=" ">
<path fill="none" stroke="#63b8ff" d="M484.84,-16C497.88,-16 511.87,-16 525.58,-16"/>
<polygon fill="#63b8ff" stroke="#63b8ff" points="525.5,-19.5 535.5,-16 525.5,-12.5 525.5,-19.5"/>
</a>
</g>
</g>
</g>
</svg>
