<?xml version="1.0" encoding="UTF-8" standalone="no"?>
<!DOCTYPE svg PUBLIC "-//W3C//DTD SVG 1.1//EN"
 "http://www.w3.org/Graphics/SVG/1.1/DTD/svg11.dtd">
<!-- Generated by graphviz version 14.1.1 (20251213.1925)
 -->
<!-- Title: PropertiesPanel::onPropertyValueChanged Pages: 1 -->
<svg width="1736pt" height="558pt"
 viewBox="0.00 0.00 1736.00 558.00" xmlns="http://www.w3.org/2000/svg" xmlns:xlink="http://www.w3.org/1999/xlink">
<g id="graph0" class="graph" transform="scale(1 1) rotate(0) translate(4 553.51)">
<title>PropertiesPanel::onPropertyValueChanged</title>
<!-- Node1 -->
<g id="Node000001" class="node">
<title>Node1</title>
<g id="a_Node000001"><a xlink:title=" ">
<polygon fill="#999999" stroke="#666666" points="1728.25,-351.51 1590,-351.51 1590,-319.51 1728.25,-319.51 1728.25,-351.51"/>
<text xml:space="preserve" text-anchor="start" x="1598" y="-338.01" font-family="Helvetica,sans-Serif" font-size="10.00">PropertiesPanel::onProperty</text>
<text xml:space="preserve" text-anchor="middle" x="1659.12" y="-326.01" font-family="Helvetica,sans-Serif" font-size="10.00">ValueChanged</text>
</a>
</g>
</g>
<!-- Node2 -->
<g id="Node000002" class="node">
<title>Node2</title>
<g id="a_Node000002"><a xlink:href="class_properties_panel.html#a9866823e02faefceaae94fc0b0537707" target="_top" xlink:title=" ">
<polygon fill="white" stroke="#666666" points="1554,-549.51 1418.75,-549.51 1418.75,-517.51 1554,-517.51 1554,-549.51"/>
<text xml:space="preserve" text-anchor="start" x="1426.75" y="-536.01" font-family="Helvetica,sans-Serif" font-size="10.00">PropertiesPanel::Properties</text>
<text xml:space="preserve" text-anchor="middle" x="1486.38" y="-524.01" font-family="Helvetica,sans-Serif" font-size="10.00">Panel</text>
</a>
</g>
</g>
<!-- Node1&#45;&gt;Node2 -->
<g id="edge1_Node000001_Node000002" class="edge">
<title>Node1&#45;&gt;Node2</title>
<g id="a_edge1_Node000001_Node000002"><a xlink:title=" ">
<path fill="none" stroke="#63b8ff" d="M1647.59,-362.09C1632.03,-398.36 1599.73,-463.44 1554,-503.51 1547.99,-508.77 1540.9,-513.26 1533.63,-517.04"/>
<polygon fill="#63b8ff" stroke="#63b8ff" points="1650.68,-363.79 1651.3,-353.21 1644.22,-361.09 1650.68,-363.79"/>
</a>
</g>
</g>
<!-- Node3 -->
<g id="Node000003" class="node">
<title>Node3</title>
<g id="a_Node000003"><a xlink:href="class_properties_panel.html#a139ae0158b486c6004e15e0ddf36f319" target="_top" xlink:title=" ">
<polygon fill="white" stroke="#666666" points="1546.88,-244.51 1425.88,-244.51 1425.88,-224.51 1546.88,-224.51 1546.88,-244.51"/>
<text xml:space="preserve" text-anchor="middle" x="1486.38" y="-231.01" font-family="Helvetica,sans-Serif" font-size="10.00">PropertiesPanel::refresh</text>
</a>
</g>
</g>
<!-- Node1&#45;&gt;Node3 -->
<g id="edge2_Node000001_Node000003" class="edge">
<title>Node1&#45;&gt;Node3</title>
<g id="a_edge2_Node000001_Node000003"><a xlink:title=" ">
<path fill="none" stroke="#63b8ff" d="M1628.81,-312.93C1596.4,-291.68 1544.68,-261.15 1513.58,-244.98"/>
<polygon fill="#63b8ff" stroke="#63b8ff" points="1626.68,-315.72 1636.94,-318.36 1630.57,-309.89 1626.68,-315.72"/>
</a>
</g>
</g>
<!-- Node3&#45;&gt;Node1 -->
<g id="edge31_Node000003_Node000001" class="edge">
<title>Node3&#45;&gt;Node1</title>
<g id="a_edge31_Node000003_Node000001"><a xlink:title=" ">
<path fill="none" stroke="#63b8ff" d="M1508,-251.29C1535.87,-270.22 1586.03,-300.27 1620.65,-319.04"/>
<polygon fill="#63b8ff" stroke="#63b8ff" points="1510.25,-248.6 1500.05,-245.73 1506.24,-254.33 1510.25,-248.6"/>
</a>
</g>
</g>
<!-- Node4 -->
<g id="Node000004" class="node">
<title>Node4</title>
<g id="a_Node000004"><a xlink:href="class_properties_panel.html#a55ae5c02e7d75c7bdc26281a148e8c5a" target="_top" xlink:title=" ">
<polygon fill="white" stroke="#666666" points="1382.75,-137.51 1227.25,-137.51 1227.25,-105.51 1382.75,-105.51 1382.75,-137.51"/>
<text xml:space="preserve" text-anchor="start" x="1235.25" y="-124.01" font-family="Helvetica,sans-Serif" font-size="10.00">PropertiesPanel::onAddAttribute</text>
<text xml:space="preserve" text-anchor="middle" x="1305" y="-112.01" font-family="Helvetica,sans-Serif" font-size="10.00">OnTreeClicked</text>
</a>
</g>
</g>
<!-- Node3&#45;&gt;Node4 -->
<g id="edge3_Node000003_Node000004" class="edge">
<title>Node3&#45;&gt;Node4</title>
<g id="a_edge3_Node000003_Node000004"><a xlink:title=" ">
<path fill="none" stroke="#63b8ff" d="M1466.49,-216.21C1446.84,-197.94 1414.56,-169.99 1382.75,-151.51 1373.97,-146.4 1364.15,-141.82 1354.55,-137.87"/>
<polygon fill="#63b8ff" stroke="#63b8ff" points="1464.05,-218.72 1473.72,-223.05 1468.86,-213.63 1464.05,-218.72"/>
</a>
</g>
</g>
<!-- Node11 -->
<g id="Node000011" class="node">
<title>Node11</title>
<g id="a_Node000011"><a xlink:href="class_properties_panel.html#a2800a2c7575a5fad6d923d9b64d982f8" target="_top" xlink:title=" ">
<polygon fill="white" stroke="#666666" points="980.25,-439.51 850.25,-439.51 850.25,-407.51 980.25,-407.51 980.25,-439.51"/>
<text xml:space="preserve" text-anchor="start" x="858.25" y="-426.01" font-family="Helvetica,sans-Serif" font-size="10.00">PropertiesPanel::onCheck</text>
<text xml:space="preserve" text-anchor="middle" x="915.25" y="-414.01" font-family="Helvetica,sans-Serif" font-size="10.00">BoxChanged</text>
</a>
</g>
</g>
<!-- Node3&#45;&gt;Node11 -->
<g id="edge17_Node000003_Node000011" class="edge">
<title>Node3&#45;&gt;Node11</title>
<g id="a_edge17_Node000003_Node000011"><a xlink:title=" ">
<path fill="none" stroke="#63b8ff" d="M1472.62,-254.15C1436.48,-307.61 1327.15,-454.64 1191.25,-498.51 1117.87,-522.19 1090.99,-522.63 1017.75,-498.51 982.79,-486.99 950,-458.29 931.59,-439.92"/>
<polygon fill="#63b8ff" stroke="#63b8ff" points="1475.4,-256.29 1478.02,-246.02 1469.57,-252.41 1475.4,-256.29"/>
</a>
</g>
</g>
<!-- Node13 -->
<g id="Node000013" class="node">
<title>Node13</title>
<g id="a_Node000013"><a xlink:href="class_properties_panel.html#aec82450a3daeb2614c2321e37897f1dd" target="_top" xlink:title=" ">
<polygon fill="white" stroke="#666666" points="981.75,-307.51 848.75,-307.51 848.75,-275.51 981.75,-275.51 981.75,-307.51"/>
<text xml:space="preserve" text-anchor="start" x="856.75" y="-294.01" font-family="Helvetica,sans-Serif" font-size="10.00">PropertiesPanel::onCombo</text>
<text xml:space="preserve" text-anchor="middle" x="915.25" y="-282.01" font-family="Helvetica,sans-Serif" font-size="10.00">BoxChanged</text>
</a>
</g>
</g>
<!-- Node3&#45;&gt;Node13 -->
<g id="edge21_Node000003_Node000013" class="edge">
<title>Node3&#45;&gt;Node13</title>
<g id="a_edge21_Node000003_Node000013"><a xlink:title=" ">
<path fill="none" stroke="#63b8ff" d="M1414.14,-241.64C1303.03,-252.77 1090.06,-274.1 982.25,-284.9"/>
<polygon fill="#63b8ff" stroke="#63b8ff" points="1414.44,-245.13 1424.04,-240.65 1413.74,-238.16 1414.44,-245.13"/>
</a>
</g>
</g>
<!-- Node17 -->
<g id="Node000017" class="node">
<title>Node17</title>
<g id="a_Node000017"><a xlink:href="class_properties_panel.html#aec8130201106284c02f21903b516554d" target="_top" xlink:title=" ">
<polygon fill="white" stroke="#666666" points="1172.88,-225.51 1036.12,-225.51 1036.12,-193.51 1172.88,-193.51 1172.88,-225.51"/>
<text xml:space="preserve" text-anchor="start" x="1044.12" y="-212.01" font-family="Helvetica,sans-Serif" font-size="10.00">PropertiesPanel::onLineEdit</text>
<text xml:space="preserve" text-anchor="middle" x="1104.5" y="-200.01" font-family="Helvetica,sans-Serif" font-size="10.00">Changed</text>
</a>
</g>
</g>
<!-- Node3&#45;&gt;Node17 -->
<g id="edge28_Node000003_Node000017" class="edge">
<title>Node3&#45;&gt;Node17</title>
<g id="a_edge28_Node000003_Node000017"><a xlink:title=" ">
<path fill="none" stroke="#63b8ff" d="M1414.41,-229.84C1345.36,-225.29 1241.19,-218.44 1173.26,-213.97"/>
<polygon fill="#63b8ff" stroke="#63b8ff" points="1413.88,-233.31 1424.09,-230.47 1414.34,-226.32 1413.88,-233.31"/>
</a>
</g>
</g>
<!-- Node19 -->
<g id="Node000019" class="node">
<title>Node19</title>
<g id="a_Node000019"><a xlink:href="class_properties_panel.html#a8a2ec0bcba44f3bbd0245d3a53ff49f7" target="_top" xlink:title=" ">
<polygon fill="white" stroke="#666666" points="1374.12,-87.51 1235.88,-87.51 1235.88,-55.51 1374.12,-55.51 1374.12,-87.51"/>
<text xml:space="preserve" text-anchor="start" x="1243.88" y="-74.01" font-family="Helvetica,sans-Serif" font-size="10.00">PropertiesPanel::onRemove</text>
<text xml:space="preserve" text-anchor="middle" x="1305" y="-62.01" font-family="Helvetica,sans-Serif" font-size="10.00">AttributeOnTreeClicked</text>
</a>
</g>
</g>
<!-- Node3&#45;&gt;Node19 -->
<g id="edge32_Node000003_Node000019" class="edge">
<title>Node3&#45;&gt;Node19</title>
<g id="a_edge32_Node000003_Node000019"><a xlink:title=" ">
<path fill="none" stroke="#63b8ff" d="M1475.38,-213.98C1459.73,-183.9 1426.61,-128.02 1382.75,-96.51 1378.2,-93.23 1373.19,-90.38 1367.99,-87.88"/>
<polygon fill="#63b8ff" stroke="#63b8ff" points="1472.2,-215.44 1479.83,-222.79 1478.45,-212.28 1472.2,-215.44"/>
</a>
</g>
</g>
<!-- Node20 -->
<g id="Node000020" class="node">
<title>Node20</title>
<g id="a_Node000020"><a xlink:href="class_properties_panel.html#a79618c5c820a40931c085d54be70bd34" target="_top" xlink:title=" ">
<polygon fill="white" stroke="#666666" points="1367.75,-351.51 1242.25,-351.51 1242.25,-319.51 1367.75,-319.51 1367.75,-351.51"/>
<text xml:space="preserve" text-anchor="start" x="1250.25" y="-338.01" font-family="Helvetica,sans-Serif" font-size="10.00">PropertiesPanel::updates</text>
<text xml:space="preserve" text-anchor="middle" x="1305" y="-326.01" font-family="Helvetica,sans-Serif" font-size="10.00">AfterChangingProperty</text>
</a>
</g>
</g>
<!-- Node3&#45;&gt;Node20 -->
<g id="edge34_Node000003_Node000020" class="edge">
<title>Node3&#45;&gt;Node20</title>
<g id="a_edge34_Node000003_Node000020"><a xlink:title=" ">
<path fill="none" stroke="#63b8ff" d="M1456.84,-250.57C1423.48,-269.35 1368.59,-300.26 1335.03,-319.16"/>
<polygon fill="#63b8ff" stroke="#63b8ff" points="1458.54,-253.63 1465.54,-245.68 1455.1,-247.53 1458.54,-253.63"/>
</a>
</g>
</g>
<!-- Node5 -->
<g id="Node000005" class="node">
<title>Node5</title>
<g id="a_Node000005"><a xlink:href="class_properties_panel.html#a90cca2a241daa84841ee3e90d7768c8f" target="_top" xlink:title=" ">
<polygon fill="white" stroke="#666666" points="811.25,-115.51 664.75,-115.51 664.75,-83.51 811.25,-83.51 811.25,-115.51"/>
<text xml:space="preserve" text-anchor="start" x="672.75" y="-102.01" font-family="Helvetica,sans-Serif" font-size="10.00">PropertiesPanel::createButton</text>
<text xml:space="preserve" text-anchor="middle" x="738" y="-90.01" font-family="Helvetica,sans-Serif" font-size="10.00">PropertyItem</text>
</a>
</g>
</g>
<!-- Node4&#45;&gt;Node5 -->
<g id="edge4_Node000004_Node000005" class="edge">
<title>Node4&#45;&gt;Node5</title>
<g id="a_edge4_Node000004_Node000005"><a xlink:title=" ">
<path fill="none" stroke="#63b8ff" d="M1215.73,-118.07C1104.34,-113.73 914.86,-106.35 811.51,-102.33"/>
<polygon fill="#63b8ff" stroke="#63b8ff" points="1215.28,-121.55 1225.41,-118.45 1215.55,-114.56 1215.28,-121.55"/>
</a>
</g>
</g>
<!-- Node6 -->
<g id="Node000006" class="node">
<title>Node6</title>
<g id="a_Node000006"><a xlink:href="class_properties_panel.html#a050a4a9040c7aeefde9c1377d2e1909e" target="_top" xlink:title=" ">
<polygon fill="white" stroke="#666666" points="459.38,-181.51 331.62,-181.51 331.62,-149.51 459.38,-149.51 459.38,-181.51"/>
<text xml:space="preserve" text-anchor="start" x="339.62" y="-168.01" font-family="Helvetica,sans-Serif" font-size="10.00">PropertiesPanel::populate</text>
<text xml:space="preserve" text-anchor="middle" x="395.5" y="-156.01" font-family="Helvetica,sans-Serif" font-size="10.00">AttributeList</text>
</a>
</g>
</g>
<!-- Node5&#45;&gt;Node6 -->
<g id="edge5_Node000005_Node000006" class="edge">
<title>Node5&#45;&gt;Node6</title>
<g id="a_edge5_Node000005_Node000006"><a xlink:title=" ">
<path fill="none" stroke="#63b8ff" d="M653.2,-115.73C607.73,-124.53 550.53,-135.61 499.5,-145.51 486.62,-148 472.84,-150.68 459.69,-153.23"/>
<polygon fill="#63b8ff" stroke="#63b8ff" points="653.86,-119.16 663.01,-113.83 652.53,-112.29 653.86,-119.16"/>
</a>
</g>
</g>
<!-- Node7 -->
<g id="Node000007" class="node">
<title>Node7</title>
<g id="a_Node000007"><a xlink:href="class_properties_panel.html#acc5a2b4e63ea74eaa34853f1cec46b81" target="_top" xlink:title=" ">
<polygon fill="white" stroke="#666666" points="627.25,-269.51 499.5,-269.51 499.5,-237.51 627.25,-237.51 627.25,-269.51"/>
<text xml:space="preserve" text-anchor="start" x="507.5" y="-256.01" font-family="Helvetica,sans-Serif" font-size="10.00">PropertiesPanel::populate</text>
<text xml:space="preserve" text-anchor="middle" x="563.38" y="-244.01" font-family="Helvetica,sans-Serif" font-size="10.00">AttributeProperties</text>
</a>
</g>
</g>
<!-- Node5&#45;&gt;Node7 -->
<g id="edge14_Node000005_Node000007" class="edge">
<title>Node5&#45;&gt;Node7</title>
<g id="a_edge14_Node000005_Node000007"><a xlink:title=" ">
<path fill="none" stroke="#63b8ff" d="M720.99,-124.92C701.82,-153.56 667.22,-199.84 627.25,-228.51 622.76,-231.72 617.8,-234.6 612.7,-237.16"/>
<polygon fill="#63b8ff" stroke="#63b8ff" points="723.73,-127.13 726.29,-116.85 717.88,-123.29 723.73,-127.13"/>
</a>
</g>
</g>
<!-- Node9 -->
<g id="Node000009" class="node">
<title>Node9</title>
<g id="a_Node000009"><a xlink:href="class_properties_panel.html#a6a4344308af5b2c993bc25981529239c" target="_top" xlink:title=" ">
<polygon fill="white" stroke="#666666" points="291.5,-181.51 163.75,-181.51 163.75,-149.51 291.5,-149.51 291.5,-181.51"/>
<text xml:space="preserve" text-anchor="start" x="171.75" y="-168.01" font-family="Helvetica,sans-Serif" font-size="10.00">PropertiesPanel::populate</text>
<text xml:space="preserve" text-anchor="middle" x="227.62" y="-156.01" font-family="Helvetica,sans-Serif" font-size="10.00">EntityProperties</text>
</a>
</g>
</g>
<!-- Node5&#45;&gt;Node9 -->
<g id="edge15_Node000005_Node000009" class="edge">
<title>Node5&#45;&gt;Node9</title>
<g id="a_edge15_Node000005_Node000009"><a xlink:title=" ">
<path fill="none" stroke="#63b8ff" d="M679.28,-79.69C597.65,-55.06 445.28,-21.73 327.5,-69.51 287.81,-85.6 255.29,-126.12 239.31,-149.04"/>
<polygon fill="#63b8ff" stroke="#63b8ff" points="678.05,-82.97 688.64,-82.58 680.11,-76.28 678.05,-82.97"/>
</a>
</g>
</g>
<!-- Node10 -->
<g id="Node000010" class="node">
<title>Node10</title>
<g id="a_Node000010"><a xlink:href="class_properties_panel.html#aeb116e2e51099f618b5d284e492bc0e2" target="_top" xlink:title=" ">
<polygon fill="white" stroke="#666666" points="291.5,-231.51 163.75,-231.51 163.75,-199.51 291.5,-199.51 291.5,-231.51"/>
<text xml:space="preserve" text-anchor="start" x="171.75" y="-218.01" font-family="Helvetica,sans-Serif" font-size="10.00">PropertiesPanel::populate</text>
<text xml:space="preserve" text-anchor="middle" x="227.62" y="-206.01" font-family="Helvetica,sans-Serif" font-size="10.00">RelationshipProperties</text>
</a>
</g>
</g>
<!-- Node5&#45;&gt;Node10 -->
<g id="edge16_Node000005_Node000010" class="edge">
<title>Node5&#45;&gt;Node10</title>
<g id="a_edge16_Node000005_Node000010"><a xlink:title=" ">
<path fill="none" stroke="#63b8ff" d="M653.08,-88.05C565.46,-80.39 427.17,-80.78 327.5,-140.51 304.01,-154.58 313.09,-173.66 291.5,-190.51 287.43,-193.69 282.89,-196.51 278.18,-199.01"/>
<polygon fill="#63b8ff" stroke="#63b8ff" points="652.51,-91.52 662.79,-88.96 653.16,-84.55 652.51,-91.52"/>
</a>
</g>
</g>
<!-- Node6&#45;&gt;Node7 -->
<g id="edge6_Node000006_Node000007" class="edge">
<title>Node6&#45;&gt;Node7</title>
<g id="a_edge6_Node000006_Node000007"><a xlink:title=" ">
<path fill="none" stroke="#63b8ff" d="M437.6,-186.23C446.51,-189.97 455.62,-194.29 463.5,-199.51 482.75,-212.25 480.28,-224.27 499.05,-237.2"/>
<polygon fill="#63b8ff" stroke="#63b8ff" points="438.9,-182.99 428.32,-182.51 436.29,-189.48 438.9,-182.99"/>
</a>
</g>
</g>
<!-- Node6&#45;&gt;Node9 -->
<g id="edge10_Node000006_Node000009" class="edge">
<title>Node6&#45;&gt;Node9</title>
<g id="a_edge10_Node000006_Node000009"><a xlink:title=" ">
<path fill="none" stroke="#63b8ff" d="M319.98,-165.51C310.61,-165.51 301.09,-165.51 291.91,-165.51"/>
<polygon fill="#63b8ff" stroke="#63b8ff" points="319.8,-169.01 329.8,-165.51 319.8,-162.01 319.8,-169.01"/>
</a>
</g>
</g>
<!-- Node6&#45;&gt;Node10 -->
<g id="edge12_Node000006_Node000010" class="edge">
<title>Node6&#45;&gt;Node10</title>
<g id="a_edge12_Node000006_Node000010"><a xlink:title=" ">
<path fill="none" stroke="#63b8ff" d="M329.29,-185.16C314.08,-189.75 298.04,-194.58 283.34,-199.01"/>
<polygon fill="#63b8ff" stroke="#63b8ff" points="330.17,-188.55 338.74,-182.31 328.15,-181.85 330.17,-188.55"/>
</a>
</g>
</g>
<!-- Node7&#45;&gt;Node6 -->
<g id="edge7_Node000007_Node000006" class="edge">
<title>Node7&#45;&gt;Node6</title>
<g id="a_edge7_Node000007_Node000006"><a xlink:title=" ">
<path fill="none" stroke="#63b8ff" d="M524.01,-232.56C515.58,-228.82 506.95,-224.56 499.5,-219.51 480.24,-206.46 482.9,-194.35 463.5,-181.51 462.26,-180.68 460.98,-179.88 459.69,-179.11"/>
<polygon fill="#63b8ff" stroke="#63b8ff" points="522.51,-235.73 533.08,-236.45 525.27,-229.3 522.51,-235.73"/>
</a>
</g>
</g>
<!-- Node8 -->
<g id="Node000008" class="node">
<title>Node8</title>
<g id="a_Node000008"><a xlink:href="class_properties_panel.html#a037586f897062f3915a123b9f2a82b91" target="_top" xlink:title=" ">
<polygon fill="white" stroke="#666666" points="127.75,-206.51 0,-206.51 0,-174.51 127.75,-174.51 127.75,-206.51"/>
<text xml:space="preserve" text-anchor="start" x="8" y="-193.01" font-family="Helvetica,sans-Serif" font-size="10.00">PropertiesPanel::populate</text>
<text xml:space="preserve" text-anchor="middle" x="63.88" y="-181.01" font-family="Helvetica,sans-Serif" font-size="10.00">ForElement</text>
</a>
</g>
</g>
<!-- Node7&#45;&gt;Node8 -->
<g id="edge8_Node000007_Node000008" class="edge">
<title>Node7&#45;&gt;Node8</title>
<g id="a_edge8_Node000007_Node000008"><a xlink:title=" ">
<path fill="none" stroke="#63b8ff" d="M487.96,-260.55C406.86,-266.06 273.95,-268.69 163.75,-240.51 136.91,-233.64 108.98,-218.68 89.68,-206.9"/>
<polygon fill="#63b8ff" stroke="#63b8ff" points="487.82,-264.07 497.54,-259.87 487.32,-257.09 487.82,-264.07"/>
</a>
</g>
</g>
<!-- Node8&#45;&gt;Node3 -->
<g id="edge9_Node000008_Node000003" class="edge">
<title>Node8&#45;&gt;Node3</title>
<g id="a_edge9_Node000008_Node000003"><a xlink:title=" ">
<path fill="none" stroke="#63b8ff" d="M88.34,-166.26C139.14,-116.5 265.18,-7.51 394.5,-7.51 1105.5,-7.51 1105.5,-7.51 1105.5,-7.51 1229.94,-7.51 1280.43,24.31 1382.75,-46.51 1447.88,-91.58 1475.67,-191.8 1483.17,-224.19"/>
<polygon fill="#63b8ff" stroke="#63b8ff" points="85.99,-163.66 81.37,-173.2 90.92,-168.63 85.99,-163.66"/>
</a>
</g>
</g>
<!-- Node9&#45;&gt;Node8 -->
<g id="edge11_Node000009_Node000008" class="edge">
<title>Node9&#45;&gt;Node8</title>
<g id="a_edge11_Node000009_Node000008"><a xlink:title=" ">
<path fill="none" stroke="#63b8ff" d="M152.33,-176.99C144.28,-178.23 136.14,-179.49 128.24,-180.71"/>
<polygon fill="#63b8ff" stroke="#63b8ff" points="152.78,-180.46 162.13,-175.47 151.71,-173.54 152.78,-180.46"/>
</a>
</g>
</g>
<!-- Node10&#45;&gt;Node8 -->
<g id="edge13_Node000010_Node000008" class="edge">
<title>Node10&#45;&gt;Node8</title>
<g id="a_edge13_Node000010_Node000008"><a xlink:title=" ">
<path fill="none" stroke="#63b8ff" d="M152.33,-204.02C144.28,-202.78 136.14,-201.52 128.24,-200.3"/>
<polygon fill="#63b8ff" stroke="#63b8ff" points="151.71,-207.47 162.13,-205.54 152.78,-200.55 151.71,-207.47"/>
</a>
</g>
</g>
<!-- Node12 -->
<g id="Node000012" class="node">
<title>Node12</title>
<g id="a_Node000012"><a xlink:href="class_properties_panel.html#acfb41226221624e46767835caeea8abc" target="_top" xlink:title=" ">
<polygon fill="white" stroke="#666666" points="811.25,-357.51 664.75,-357.51 664.75,-325.51 811.25,-325.51 811.25,-357.51"/>
<text xml:space="preserve" text-anchor="start" x="672.75" y="-344.01" font-family="Helvetica,sans-Serif" font-size="10.00">PropertiesPanel::createCheck</text>
<text xml:space="preserve" text-anchor="middle" x="738" y="-332.01" font-family="Helvetica,sans-Serif" font-size="10.00">BoxPropertyItem</text>
</a>
</g>
</g>
<!-- Node11&#45;&gt;Node12 -->
<g id="edge18_Node000011_Node000012" class="edge">
<title>Node11&#45;&gt;Node12</title>
<g id="a_edge18_Node000011_Node000012"><a xlink:title=" ">
<path fill="none" stroke="#63b8ff" d="M869.12,-402.39C839.49,-388.52 801.31,-370.66 773.98,-357.87"/>
<polygon fill="#63b8ff" stroke="#63b8ff" points="867.29,-405.4 877.84,-406.47 870.26,-399.06 867.29,-405.4"/>
</a>
</g>
</g>
<!-- Node12&#45;&gt;Node7 -->
<g id="edge19_Node000012_Node000007" class="edge">
<title>Node12&#45;&gt;Node7</title>
<g id="a_edge19_Node000012_Node000007"><a xlink:title=" ">
<path fill="none" stroke="#63b8ff" d="M672.93,-320.85C669.62,-319.46 666.38,-318.01 663.25,-316.51 635.54,-303.22 606.12,-283.69 586.64,-269.9"/>
<polygon fill="#63b8ff" stroke="#63b8ff" points="671.62,-324.1 682.21,-324.56 674.22,-317.6 671.62,-324.1"/>
</a>
</g>
</g>
<!-- Node12&#45;&gt;Node10 -->
<g id="edge20_Node000012_Node000010" class="edge">
<title>Node12&#45;&gt;Node10</title>
<g id="a_edge20_Node000012_Node000010"><a xlink:title=" ">
<path fill="none" stroke="#63b8ff" d="M653.2,-335.25C568.93,-327.06 436.28,-308.94 327.5,-270.51 300.46,-260.95 272.1,-244.41 252.73,-231.95"/>
<polygon fill="#63b8ff" stroke="#63b8ff" points="652.71,-338.72 662.99,-336.18 653.37,-331.75 652.71,-338.72"/>
</a>
</g>
</g>
<!-- Node14 -->
<g id="Node000014" class="node">
<title>Node14</title>
<g id="a_Node000014"><a xlink:href="class_properties_panel.html#a8fd53ec3c9f711c3354483e8bb4d0b47" target="_top" xlink:title=" ">
<polygon fill="white" stroke="#666666" points="812.75,-307.51 663.25,-307.51 663.25,-275.51 812.75,-275.51 812.75,-307.51"/>
<text xml:space="preserve" text-anchor="start" x="671.25" y="-294.01" font-family="Helvetica,sans-Serif" font-size="10.00">PropertiesPanel::createCombo</text>
<text xml:space="preserve" text-anchor="middle" x="738" y="-282.01" font-family="Helvetica,sans-Serif" font-size="10.00">BoxPropertyItem</text>
</a>
</g>
</g>
<!-- Node13&#45;&gt;Node14 -->
<g id="edge22_Node000013_Node000014" class="edge">
<title>Node13&#45;&gt;Node14</title>
<g id="a_edge22_Node000013_Node000014"><a xlink:title=" ">
<path fill="none" stroke="#63b8ff" d="M837.25,-291.51C829.22,-291.51 821.07,-291.51 813.07,-291.51"/>
<polygon fill="#63b8ff" stroke="#63b8ff" points="836.98,-295.01 846.98,-291.51 836.98,-288.01 836.98,-295.01"/>
</a>
</g>
</g>
<!-- Node15 -->
<g id="Node000015" class="node">
<title>Node15</title>
<g id="a_Node000015"><a xlink:href="class_properties_panel.html#a32c2dab00c58ffdcb6a1e3cd829d03c8" target="_top" xlink:title=" ">
<polygon fill="white" stroke="#666666" points="806.38,-257.51 669.62,-257.51 669.62,-225.51 806.38,-225.51 806.38,-257.51"/>
<text xml:space="preserve" text-anchor="start" x="677.62" y="-244.01" font-family="Helvetica,sans-Serif" font-size="10.00">PropertiesPanel::createIcon</text>
<text xml:space="preserve" text-anchor="middle" x="738" y="-232.01" font-family="Helvetica,sans-Serif" font-size="10.00">ComboBoxPropertyItem</text>
</a>
</g>
</g>
<!-- Node13&#45;&gt;Node15 -->
<g id="edge25_Node000013_Node000015" class="edge">
<title>Node13&#45;&gt;Node15</title>
<g id="a_edge25_Node000013_Node000015"><a xlink:title=" ">
<path fill="none" stroke="#63b8ff" d="M845.82,-271.98C829.62,-267.36 812.49,-262.47 796.81,-258"/>
<polygon fill="#63b8ff" stroke="#63b8ff" points="844.83,-275.34 855.41,-274.72 846.76,-268.61 844.83,-275.34"/>
</a>
</g>
</g>
<!-- Node14&#45;&gt;Node7 -->
<g id="edge23_Node000014_Node000007" class="edge">
<title>Node14&#45;&gt;Node7</title>
<g id="a_edge23_Node000014_Node000007"><a xlink:title=" ">
<path fill="none" stroke="#63b8ff" d="M651.76,-272.74C643.65,-270.96 635.52,-269.17 627.67,-267.44"/>
<polygon fill="#63b8ff" stroke="#63b8ff" points="650.79,-276.11 661.31,-274.84 652.3,-269.28 650.79,-276.11"/>
</a>
</g>
</g>
<!-- Node14&#45;&gt;Node10 -->
<g id="edge24_Node000014_Node000010" class="edge">
<title>Node14&#45;&gt;Node10</title>
<g id="a_edge24_Node000014_Node000010"><a xlink:title=" ">
<path fill="none" stroke="#63b8ff" d="M651.61,-290.19C606.25,-288.64 549.66,-285.37 499.5,-278.51 421.94,-267.89 403.68,-258.55 327.5,-240.51 315.96,-237.77 303.68,-234.76 291.85,-231.79"/>
<polygon fill="#63b8ff" stroke="#63b8ff" points="651.27,-293.68 661.38,-290.5 651.49,-286.68 651.27,-293.68"/>
</a>
</g>
</g>
<!-- Node16 -->
<g id="Node000016" class="node">
<title>Node16</title>
<g id="a_Node000016"><a xlink:href="class_properties_panel.html#adbc7f8deb3a687706dc44ebbd7e39d9d" target="_top" xlink:title=" ">
<polygon fill="white" stroke="#666666" points="627.25,-219.51 499.5,-219.51 499.5,-187.51 627.25,-187.51 627.25,-219.51"/>
<text xml:space="preserve" text-anchor="start" x="507.5" y="-206.01" font-family="Helvetica,sans-Serif" font-size="10.00">PropertiesPanel::populate</text>
<text xml:space="preserve" text-anchor="middle" x="563.38" y="-194.01" font-family="Helvetica,sans-Serif" font-size="10.00">ForConnection</text>
</a>
</g>
</g>
<!-- Node15&#45;&gt;Node16 -->
<g id="edge26_Node000015_Node000016" class="edge">
<title>Node15&#45;&gt;Node16</title>
<g id="a_edge26_Node000015_Node000016"><a xlink:title=" ">
<path fill="none" stroke="#63b8ff" d="M658.24,-224.17C648.01,-221.92 637.63,-219.63 627.68,-217.44"/>
<polygon fill="#63b8ff" stroke="#63b8ff" points="657.27,-227.54 667.79,-226.27 658.78,-220.7 657.27,-227.54"/>
</a>
</g>
</g>
<!-- Node16&#45;&gt;Node3 -->
<g id="edge27_Node000016_Node000003" class="edge">
<title>Node16&#45;&gt;Node3</title>
<g id="a_edge27_Node000016_Node000003"><a xlink:title=" ">
<path fill="none" stroke="#63b8ff" d="M639,-196.17C756.59,-185.75 992.13,-169.51 1191.25,-184.51 1280.09,-191.19 1382.32,-211.47 1439.85,-224.05"/>
<polygon fill="#63b8ff" stroke="#63b8ff" points="638.8,-192.67 629.16,-197.05 639.43,-199.65 638.8,-192.67"/>
</a>
</g>
</g>
<!-- Node18 -->
<g id="Node000018" class="node">
<title>Node18</title>
<g id="a_Node000018"><a xlink:href="class_properties_panel.html#a7bc224323f9c626842fdb6a89205c9bc" target="_top" xlink:title=" ">
<polygon fill="white" stroke="#666666" points="463.5,-231.51 327.5,-231.51 327.5,-199.51 463.5,-199.51 463.5,-231.51"/>
<text xml:space="preserve" text-anchor="start" x="335.5" y="-218.01" font-family="Helvetica,sans-Serif" font-size="10.00">PropertiesPanel::createLine</text>
<text xml:space="preserve" text-anchor="middle" x="395.5" y="-206.01" font-family="Helvetica,sans-Serif" font-size="10.00">EditPropertyItem</text>
</a>
</g>
</g>
<!-- Node17&#45;&gt;Node18 -->
<g id="edge29_Node000017_Node000018" class="edge">
<title>Node17&#45;&gt;Node18</title>
<g id="a_edge29_Node000017_Node000018"><a xlink:title=" ">
<path fill="none" stroke="#63b8ff" d="M1024.65,-194.36C908.68,-174.58 685.7,-146.08 499.5,-178.51 496.32,-179.06 467.45,-189.47 441.08,-199.1"/>
<polygon fill="#63b8ff" stroke="#63b8ff" points="1023.93,-197.79 1034.38,-196.05 1025.13,-190.89 1023.93,-197.79"/>
</a>
</g>
</g>
<!-- Node18&#45;&gt;Node10 -->
<g id="edge30_Node000018_Node000010" class="edge">
<title>Node18&#45;&gt;Node10</title>
<g id="a_edge30_Node000018_Node000010"><a xlink:title=" ">
<path fill="none" stroke="#63b8ff" d="M315.73,-215.51C307.69,-215.51 299.59,-215.51 291.75,-215.51"/>
<polygon fill="#63b8ff" stroke="#63b8ff" points="315.52,-219.01 325.52,-215.51 315.52,-212.01 315.52,-219.01"/>
</a>
</g>
</g>
<!-- Node19&#45;&gt;Node5 -->
<g id="edge33_Node000019_Node000005" class="edge">
<title>Node19&#45;&gt;Node5</title>
<g id="a_edge33_Node000019_Node000005"><a xlink:title=" ">
<path fill="none" stroke="#63b8ff" d="M1224.21,-75.46C1114.14,-80.91 917.31,-90.67 811.32,-95.92"/>
<polygon fill="#63b8ff" stroke="#63b8ff" points="1224.24,-78.96 1234.05,-74.97 1223.89,-71.97 1224.24,-78.96"/>
</a>
</g>
</g>
<!-- Node20&#45;&gt;Node1 -->
<g id="edge46_Node000020_Node000001" class="edge">
<title>Node20&#45;&gt;Node1</title>
<g id="a_edge46_Node000020_Node000001"><a xlink:title=" ">
<path fill="none" stroke="#63b8ff" d="M1379.47,-335.51C1441.41,-335.51 1529.38,-335.51 1589.81,-335.51"/>
<polygon fill="#63b8ff" stroke="#63b8ff" points="1379.73,-332.01 1369.73,-335.51 1379.73,-339.01 1379.73,-332.01"/>
</a>
</g>
</g>
<!-- Node20&#45;&gt;Node11 -->
<g id="edge43_Node000020_Node000011" class="edge">
<title>Node20&#45;&gt;Node11</title>
<g id="a_edge43_Node000020_Node000011"><a xlink:title=" ">
<path fill="none" stroke="#63b8ff" d="M1231,-351.72C1217.77,-354.65 1204.1,-357.67 1191.25,-360.51 1114.16,-377.49 1094.64,-380.62 1017.75,-398.51 1005.73,-401.3 992.93,-404.38 980.62,-407.38"/>
<polygon fill="#63b8ff" stroke="#63b8ff" points="1231.49,-355.2 1240.5,-349.62 1229.98,-348.36 1231.49,-355.2"/>
</a>
</g>
</g>
<!-- Node20&#45;&gt;Node13 -->
<g id="edge44_Node000020_Node000013" class="edge">
<title>Node20&#45;&gt;Node13</title>
<g id="a_edge44_Node000020_Node000013"><a xlink:title=" ">
<path fill="none" stroke="#63b8ff" d="M1231.05,-317.67C1217.86,-314.92 1204.19,-312.38 1191.25,-310.51 1120.2,-300.23 1038,-295.48 982.11,-293.3"/>
<polygon fill="#63b8ff" stroke="#63b8ff" points="1229.99,-321.02 1240.5,-319.7 1231.46,-314.17 1229.99,-321.02"/>
</a>
</g>
</g>
<!-- Node20&#45;&gt;Node17 -->
<g id="edge45_Node000020_Node000017" class="edge">
<title>Node20&#45;&gt;Node17</title>
<g id="a_edge45_Node000020_Node000017"><a xlink:title=" ">
<path fill="none" stroke="#63b8ff" d="M1268.57,-313.02C1229.19,-288.02 1166.53,-248.25 1131.46,-225.98"/>
<polygon fill="#63b8ff" stroke="#63b8ff" points="1266.45,-315.82 1276.77,-318.22 1270.2,-309.91 1266.45,-315.82"/>
</a>
</g>
</g>
<!-- Node21 -->
<g id="Node000021" class="node">
<title>Node21</title>
<g id="a_Node000021"><a xlink:href="class_properties_panel.html#a74d22cd1ca119cda9cc4ca00b853e88d" target="_top" xlink:title=" ">
<polygon fill="white" stroke="#666666" points="1182.62,-439.51 1026.38,-439.51 1026.38,-407.51 1182.62,-407.51 1182.62,-439.51"/>
<text xml:space="preserve" text-anchor="start" x="1034.38" y="-426.01" font-family="Helvetica,sans-Serif" font-size="10.00">PropertiesPanel::handleAttribute</text>
<text xml:space="preserve" text-anchor="middle" x="1104.5" y="-414.01" font-family="Helvetica,sans-Serif" font-size="10.00">PropertyChange</text>
</a>
</g>
</g>
<!-- Node20&#45;&gt;Node21 -->
<g id="edge35_Node000020_Node000021" class="edge">
<title>Node20&#45;&gt;Node21</title>
<g id="a_edge35_Node000020_Node000021"><a xlink:title=" ">
<path fill="none" stroke="#63b8ff" d="M1264.86,-357.34C1243.46,-368.84 1216.28,-382.75 1191.25,-393.51 1180.09,-398.3 1167.89,-402.92 1156.28,-407.05"/>
<polygon fill="#63b8ff" stroke="#63b8ff" points="1266.41,-360.48 1273.53,-352.63 1263.07,-354.32 1266.41,-360.48"/>
</a>
</g>
</g>
<!-- Node22 -->
<g id="Node000022" class="node">
<title>Node22</title>
<g id="a_Node000022"><a xlink:href="class_properties_panel.html#aa82a2245c62f66554f277c64e643252c" target="_top" xlink:title=" ">
<polygon fill="white" stroke="#666666" points="1191.25,-351.51 1017.75,-351.51 1017.75,-319.51 1191.25,-319.51 1191.25,-351.51"/>
<text xml:space="preserve" text-anchor="start" x="1025.75" y="-338.01" font-family="Helvetica,sans-Serif" font-size="10.00">PropertiesPanel::handleRelationship</text>
<text xml:space="preserve" text-anchor="middle" x="1104.5" y="-326.01" font-family="Helvetica,sans-Serif" font-size="10.00">EndCardinalityChange</text>
</a>
</g>
</g>
<!-- Node20&#45;&gt;Node22 -->
<g id="edge39_Node000020_Node000022" class="edge">
<title>Node20&#45;&gt;Node22</title>
<g id="a_edge39_Node000020_Node000022"><a xlink:title=" ">
<path fill="none" stroke="#63b8ff" d="M1230.51,-335.51C1217.77,-335.51 1204.42,-335.51 1191.39,-335.51"/>
<polygon fill="#63b8ff" stroke="#63b8ff" points="1230.5,-339.01 1240.5,-335.51 1230.5,-332.01 1230.5,-339.01"/>
</a>
</g>
</g>
<!-- Node23 -->
<g id="Node000023" class="node">
<title>Node23</title>
<g id="a_Node000023"><a xlink:href="class_properties_panel.html#ac2741a5b2cb859b07534b8f7c786359b" target="_top" xlink:title=" ">
<polygon fill="white" stroke="#666666" points="1191.25,-489.51 1017.75,-489.51 1017.75,-457.51 1191.25,-457.51 1191.25,-489.51"/>
<text xml:space="preserve" text-anchor="start" x="1025.75" y="-476.01" font-family="Helvetica,sans-Serif" font-size="10.00">PropertiesPanel::handleRelationship</text>
<text xml:space="preserve" text-anchor="middle" x="1104.5" y="-464.01" font-family="Helvetica,sans-Serif" font-size="10.00">EndParticipationChange</text>
</a>
</g>
</g>
<!-- Node20&#45;&gt;Node23 -->
<g id="edge41_Node000020_Node000023" class="edge">
<title>Node20&#45;&gt;Node23</title>
<g id="a_edge41_Node000020_Node000023"><a xlink:title=" ">
<path fill="none" stroke="#63b8ff" d="M1285.22,-360.72C1264.8,-386.4 1229.89,-425.6 1191.25,-448.51 1185.78,-451.75 1179.86,-454.59 1173.78,-457.08"/>
<polygon fill="#63b8ff" stroke="#63b8ff" points="1287.75,-363.16 1291.13,-353.12 1282.23,-358.86 1287.75,-363.16"/>
</a>
</g>
</g>
<!-- Node21&#45;&gt;Node1 -->
<g id="edge38_Node000021_Node000001" class="edge">
<title>Node21&#45;&gt;Node1</title>
<g id="a_edge38_Node000021_Node000001"><a xlink:title=" ">
<path fill="none" stroke="#63b8ff" d="M1193.96,-409.42C1304.03,-391.89 1489.62,-362.34 1589.53,-346.43"/>
<polygon fill="#63b8ff" stroke="#63b8ff" points="1193.71,-405.91 1184.39,-410.94 1194.82,-412.83 1193.71,-405.91"/>
</a>
</g>
</g>
<!-- Node21&#45;&gt;Node11 -->
<g id="edge36_Node000021_Node000011" class="edge">
<title>Node21&#45;&gt;Node11</title>
<g id="a_edge36_Node000021_Node000011"><a xlink:title=" ">
<path fill="none" stroke="#63b8ff" d="M1014.59,-423.51C1003.13,-423.51 991.57,-423.51 980.62,-423.51"/>
<polygon fill="#63b8ff" stroke="#63b8ff" points="1014.47,-427.01 1024.47,-423.51 1014.47,-420.01 1014.47,-427.01"/>
</a>
</g>
</g>
<!-- Node21&#45;&gt;Node13 -->
<g id="edge37_Node000021_Node000013" class="edge">
<title>Node21&#45;&gt;Node13</title>
<g id="a_edge37_Node000021_Node000013"><a xlink:title=" ">
<path fill="none" stroke="#63b8ff" d="M1071.16,-400.71C1033.66,-374.27 972.75,-331.34 939.59,-307.96"/>
<polygon fill="#63b8ff" stroke="#63b8ff" points="1068.74,-403.28 1078.93,-406.18 1072.77,-397.56 1068.74,-403.28"/>
</a>
</g>
</g>
<!-- Node22&#45;&gt;Node13 -->
<g id="edge40_Node000022_Node000013" class="edge">
<title>Node22&#45;&gt;Node13</title>
<g id="a_edge40_Node000022_Node000013"><a xlink:title=" ">
<path fill="none" stroke="#63b8ff" d="M1022.33,-316.43C1008.9,-313.28 995.12,-310.04 982.13,-306.99"/>
<polygon fill="#63b8ff" stroke="#63b8ff" points="1021.5,-319.83 1032.04,-318.71 1023.1,-313.02 1021.5,-319.83"/>
</a>
</g>
</g>
<!-- Node23&#45;&gt;Node11 -->
<g id="edge42_Node000023_Node000011" class="edge">
<title>Node23&#45;&gt;Node11</title>
<g id="a_edge42_Node000023_Node000011"><a xlink:title=" ">
<path fill="none" stroke="#63b8ff" d="M1031.14,-454.18C1013.55,-449.49 994.9,-444.51 977.86,-439.96"/>
<polygon fill="#63b8ff" stroke="#63b8ff" points="1029.9,-457.48 1040.47,-456.67 1031.71,-450.71 1029.9,-457.48"/>
</a>
</g>
</g>
</g>
</svg>
