<?xml version="1.0" encoding="UTF-8" standalone="no"?>
<!DOCTYPE svg PUBLIC "-//W3C//DTD SVG 1.1//EN"
 "http://www.w3.org/Graphics/SVG/1.1/DTD/svg11.dtd">
<!-- Generated by graphviz version 14.1.1 (20251213.1925)
 -->
<!-- Title: DiagramFileManager::statusMessageRequested Pages: 1 -->
<svg width="496pt" height="228pt"
 viewBox="0.00 0.00 496.00 228.00" xmlns="http://www.w3.org/2000/svg" xmlns:xlink="http://www.w3.org/1999/xlink">

<svg id="main" version="1.1" xmlns="http://www.w3.org/2000/svg" xmlns:xlink="http://www.w3.org/1999/xlink" xml:space="preserve">

<style type="text/css"><![CDATA[
.node, .edge {opacity: 0.7;}
.node.selected, .edge.selected {opacity: 1;}
.edge:hover path { stroke: red; }
.edge:hover polygon { stroke: red; fill: red; }
]]></style>
<script type="application/ecmascript" xlink:href="svg.min.js"/>
<svg id="graph" class="graph">
<g id="graph0" class="graph" transform="scale(1 1) rotate(0) translate(4 224)">
<title>DiagramFileManager::statusMessageRequested</title>
<!-- Node1 -->
<g id="Node000001" class="node">
<title>Node1</title>
<g id="a_Node000001"><a xlink:title=" ">
<polygon fill="#999999" stroke="#666666" points="487.5,-132 351.5,-132 351.5,-100 487.5,-100 487.5,-132"/>
<text xml:space="preserve" text-anchor="start" x="359.5" y="-118.5" font-family="Helvetica,sans-Serif" font-size="10.00">DiagramFileManager</text>
<text xml:space="preserve" text-anchor="middle" x="419.5" y="-106.5" font-family="Helvetica,sans-Serif" font-size="10.00">::statusMessageRequested</text>
</a>
</g>
</g>
<!-- Node2 -->
<g id="Node000002" class="node">
<title>Node2</title>
<g id="a_Node000002"><a xlink:href="class_main_window.html#adfa32feecffce3959c99d145fc8b4854" target="_top" xlink:title=" ">
<polygon fill="white" stroke="#666666" points="315.5,-220 170.5,-220 170.5,-200 315.5,-200 315.5,-220"/>
<text xml:space="preserve" text-anchor="middle" x="243" y="-206.5" font-family="Helvetica,sans-Serif" font-size="10.00">MainWindow::connectSignals</text>
</a>
</g>
</g>
<!-- Node1&#45;&gt;Node2 -->
<g id="edge1_Node000001_Node000002" class="edge">
<title>Node1&#45;&gt;Node2</title>
<g id="a_edge1_Node000001_Node000002"><a xlink:title=" ">
<path fill="none" stroke="#63b8ff" d="M391.75,-139.79C371.93,-156.28 343.6,-177.61 315.5,-191 308.43,-194.37 300.66,-197.21 292.94,-199.59"/>
<polygon fill="#63b8ff" stroke="#63b8ff" points="393.98,-142.48 399.33,-133.34 389.44,-137.15 393.98,-142.48"/>
</a>
</g>
</g>
<!-- Node4 -->
<g id="Node000004" class="node">
<title>Node4</title>
<g id="a_Node000004"><a xlink:href="class_diagram_file_manager.html#af08299559bde483382e5ed2751f8820e" target="_top" xlink:title=" ">
<polygon fill="white" stroke="#666666" points="296,-182 190,-182 190,-150 296,-150 296,-182"/>
<text xml:space="preserve" text-anchor="start" x="198" y="-168.5" font-family="Helvetica,sans-Serif" font-size="10.00">DiagramFileManager</text>
<text xml:space="preserve" text-anchor="middle" x="243" y="-156.5" font-family="Helvetica,sans-Serif" font-size="10.00">::exportDiagram</text>
</a>
</g>
</g>
<!-- Node1&#45;&gt;Node4 -->
<g id="edge3_Node000001_Node000004" class="edge">
<title>Node1&#45;&gt;Node4</title>
<g id="a_edge3_Node000001_Node000004"><a xlink:title=" ">
<path fill="none" stroke="#63b8ff" d="M350.34,-135.53C332.36,-140.68 313.24,-146.16 296.25,-151.03"/>
<polygon fill="#63b8ff" stroke="#63b8ff" points="351.26,-138.91 359.91,-132.79 349.33,-132.18 351.26,-138.91"/>
</a>
</g>
</g>
<!-- Node5 -->
<g id="Node000005" class="node">
<title>Node5</title>
<g id="a_Node000005"><a xlink:href="class_diagram_file_manager.html#a34a65268899b28c2278a5a3857f1f1d5" target="_top" xlink:title=" ">
<polygon fill="white" stroke="#666666" points="296,-132 190,-132 190,-100 296,-100 296,-132"/>
<text xml:space="preserve" text-anchor="start" x="198" y="-118.5" font-family="Helvetica,sans-Serif" font-size="10.00">DiagramFileManager</text>
<text xml:space="preserve" text-anchor="middle" x="243" y="-106.5" font-family="Helvetica,sans-Serif" font-size="10.00">::newDiagram</text>
</a>
</g>
</g>
<!-- Node1&#45;&gt;Node5 -->
<g id="edge4_Node000001_Node000005" class="edge">
<title>Node1&#45;&gt;Node5</title>
<g id="a_edge4_Node000001_Node000005"><a xlink:title=" ">
<path fill="none" stroke="#63b8ff" d="M339.87,-116C325.14,-116 310.09,-116 296.4,-116"/>
<polygon fill="#63b8ff" stroke="#63b8ff" points="339.52,-119.5 349.52,-116 339.52,-112.5 339.52,-119.5"/>
</a>
</g>
</g>
<!-- Node6 -->
<g id="Node000006" class="node">
<title>Node6</title>
<g id="a_Node000006"><a xlink:href="class_diagram_file_manager.html#a24c0e01d7ac53866944eb10948286ed9" target="_top" xlink:title=" ">
<polygon fill="white" stroke="#666666" points="296,-82 190,-82 190,-50 296,-50 296,-82"/>
<text xml:space="preserve" text-anchor="start" x="198" y="-68.5" font-family="Helvetica,sans-Serif" font-size="10.00">DiagramFileManager</text>
<text xml:space="preserve" text-anchor="middle" x="243" y="-56.5" font-family="Helvetica,sans-Serif" font-size="10.00">::openDiagram</text>
</a>
</g>
</g>
<!-- Node1&#45;&gt;Node6 -->
<g id="edge5_Node000001_Node000006" class="edge">
<title>Node1&#45;&gt;Node6</title>
<g id="a_edge5_Node000001_Node000006"><a xlink:title=" ">
<path fill="none" stroke="#63b8ff" d="M350.34,-96.47C332.36,-91.32 313.24,-85.84 296.25,-80.97"/>
<polygon fill="#63b8ff" stroke="#63b8ff" points="349.33,-99.82 359.91,-99.21 351.26,-93.09 349.33,-99.82"/>
</a>
</g>
</g>
<!-- Node7 -->
<g id="Node000007" class="node">
<title>Node7</title>
<g id="a_Node000007"><a xlink:href="class_diagram_file_manager.html#a84a364087a0eecd1c416b05615fe1f0b" target="_top" xlink:title=" ">
<polygon fill="white" stroke="#666666" points="296,-32 190,-32 190,0 296,0 296,-32"/>
<text xml:space="preserve" text-anchor="start" x="198" y="-18.5" font-family="Helvetica,sans-Serif" font-size="10.00">DiagramFileManager</text>
<text xml:space="preserve" text-anchor="middle" x="243" y="-6.5" font-family="Helvetica,sans-Serif" font-size="10.00">::saveDiagram</text>
</a>
</g>
</g>
<!-- Node1&#45;&gt;Node7 -->
<g id="edge6_Node000001_Node000007" class="edge">
<title>Node1&#45;&gt;Node7</title>
<g id="a_edge6_Node000001_Node000007"><a xlink:title=" ">
<path fill="none" stroke="#63b8ff" d="M390.68,-92.26C370.75,-76.16 342.73,-55.28 315.5,-41 309.44,-37.82 302.9,-34.91 296.31,-32.28"/>
<polygon fill="#63b8ff" stroke="#63b8ff" points="388.39,-94.91 398.34,-98.55 392.83,-89.5 388.39,-94.91"/>
</a>
</g>
</g>
<!-- Node3 -->
<g id="Node000003" class="node">
<title>Node3</title>
<g id="a_Node000003"><a xlink:href="class_main_window.html#a996c5a2b6f77944776856f08ec30858d" target="_top" xlink:title=" ">
<polygon fill="white" stroke="#666666" points="134.5,-220 0,-220 0,-200 134.5,-200 134.5,-220"/>
<text xml:space="preserve" text-anchor="middle" x="67.25" y="-206.5" font-family="Helvetica,sans-Serif" font-size="10.00">MainWindow::MainWindow</text>
</a>
</g>
</g>
<!-- Node2&#45;&gt;Node3 -->
<g id="edge2_Node000002_Node000003" class="edge">
<title>Node2&#45;&gt;Node3</title>
<g id="a_edge2_Node000002_Node000003"><a xlink:title=" ">
<path fill="none" stroke="#63b8ff" d="M158.78,-210C150.74,-210 142.67,-210 134.83,-210"/>
<polygon fill="#63b8ff" stroke="#63b8ff" points="158.56,-213.5 168.56,-210 158.56,-206.5 158.56,-213.5"/>
</a>
</g>
</g>
</g>
</svg>
</svg>

<style type='text/css'>
<![CDATA[
[data-mouse-over-selected='false'] { opacity: 0.7; }
[data-mouse-over-selected='true']  { opacity: 1.0; }
]]>
</style>
<script type="application/ecmascript"><![CDATA[
document.addEventListener('DOMContentLoaded', (event) => {
  highlightEdges();
  highlightAdjacentNodes();
});
]]></script>
</svg>
