<?xml version="1.0" encoding="UTF-8" standalone="no"?>
<!DOCTYPE svg PUBLIC "-//W3C//DTD SVG 1.1//EN"
 "http://www.w3.org/Graphics/SVG/1.1/DTD/svg11.dtd">
<!-- Generated by graphviz version 14.1.1 (20251213.1925)
 -->
<!-- Title: ConnectionLine::getEndElement Pages: 1 -->
<svg width="2052pt" height="401pt"
 viewBox="0.00 0.00 2052.00 401.00" xmlns="http://www.w3.org/2000/svg" xmlns:xlink="http://www.w3.org/1999/xlink">
<g id="graph0" class="graph" transform="scale(1 1) rotate(0) translate(4 397)">
<title>ConnectionLine::getEndElement</title>
<!-- Node1 -->
<g id="Node000001" class="node">
<title>Node1</title>
<g id="a_Node000001"><a xlink:title=" ">
<polygon fill="#999999" stroke="#666666" points="2044.25,-276 1888,-276 1888,-256 2044.25,-256 2044.25,-276"/>
<text xml:space="preserve" text-anchor="middle" x="1966.12" y="-262.5" font-family="Helvetica,sans-Serif" font-size="10.00">ConnectionLine::getEndElement</text>
</a>
</g>
</g>
<!-- Node2 -->
<g id="Node000002" class="node">
<title>Node2</title>
<g id="a_Node000002"><a xlink:href="class_diagram_scene.html#a355fffd036fbfb751f2d9ada2b9eacf5" target="_top" xlink:title=" ">
<polygon fill="white" stroke="#666666" points="1843.38,-372 1691.62,-372 1691.62,-340 1843.38,-340 1843.38,-372"/>
<text xml:space="preserve" text-anchor="start" x="1699.62" y="-358.5" font-family="Helvetica,sans-Serif" font-size="10.00">DiagramScene::handleAttribute</text>
<text xml:space="preserve" text-anchor="middle" x="1767.5" y="-346.5" font-family="Helvetica,sans-Serif" font-size="10.00">Connection</text>
</a>
</g>
</g>
<!-- Node1&#45;&gt;Node2 -->
<g id="edge1_Node000001_Node000002" class="edge">
<title>Node1&#45;&gt;Node2</title>
<g id="a_edge1_Node000001_Node000002"><a xlink:title=" ">
<path fill="none" stroke="#63b8ff" d="M1932.31,-281.02C1896.97,-297.2 1840.91,-322.86 1804.41,-339.56"/>
<polygon fill="#63b8ff" stroke="#63b8ff" points="1933.56,-284.3 1941.19,-276.95 1930.64,-277.93 1933.56,-284.3"/>
</a>
</g>
</g>
<!-- Node7 -->
<g id="Node000007" class="node">
<title>Node7</title>
<g id="a_Node000007"><a xlink:href="class_diagram_scene.html#af24fc3dc11041bb31e4f0627f0a09e75" target="_top" xlink:title=" ">
<polygon fill="white" stroke="#666666" points="1843.38,-307 1691.62,-307 1691.62,-275 1843.38,-275 1843.38,-307"/>
<text xml:space="preserve" text-anchor="start" x="1699.62" y="-293.5" font-family="Helvetica,sans-Serif" font-size="10.00">DiagramScene::handleAttribute</text>
<text xml:space="preserve" text-anchor="middle" x="1767.5" y="-281.5" font-family="Helvetica,sans-Serif" font-size="10.00">Disconnection</text>
</a>
</g>
</g>
<!-- Node1&#45;&gt;Node7 -->
<g id="edge6_Node000001_Node000007" class="edge">
<title>Node1&#45;&gt;Node7</title>
<g id="a_edge6_Node000001_Node000007"><a xlink:title=" ">
<path fill="none" stroke="#63b8ff" d="M1876.37,-277.28C1865.43,-278.68 1854.32,-280.09 1843.61,-281.45"/>
<polygon fill="#63b8ff" stroke="#63b8ff" points="1876.72,-280.77 1886.19,-276.04 1875.83,-273.83 1876.72,-280.77"/>
</a>
</g>
</g>
<!-- Node16 -->
<g id="Node000016" class="node">
<title>Node16</title>
<g id="a_Node000016"><a xlink:href="class_diagram_scene.html#a244ffcbacfc985e542579c0e112cfd52" target="_top" xlink:title=" ">
<polygon fill="white" stroke="#666666" points="1852,-257 1683,-257 1683,-225 1852,-225 1852,-257"/>
<text xml:space="preserve" text-anchor="start" x="1691" y="-243.5" font-family="Helvetica,sans-Serif" font-size="10.00">DiagramScene::handleRelationship</text>
<text xml:space="preserve" text-anchor="middle" x="1767.5" y="-231.5" font-family="Helvetica,sans-Serif" font-size="10.00">Disconnection</text>
</a>
</g>
</g>
<!-- Node1&#45;&gt;Node16 -->
<g id="edge18_Node000001_Node000016" class="edge">
<title>Node1&#45;&gt;Node16</title>
<g id="a_edge18_Node000001_Node000016"><a xlink:title=" ">
<path fill="none" stroke="#63b8ff" d="M1876.44,-254.72C1868.42,-253.7 1860.32,-252.67 1852.34,-251.66"/>
<polygon fill="#63b8ff" stroke="#63b8ff" points="1875.83,-258.17 1886.19,-255.96 1876.72,-251.23 1875.83,-258.17"/>
</a>
</g>
</g>
<!-- Node17 -->
<g id="Node000017" class="node">
<title>Node17</title>
<g id="a_Node000017"><a xlink:href="class_connection_line.html#a89b03bf381274e4504b1cde0f32972ee" target="_top" xlink:title=" ">
<polygon fill="white" stroke="#666666" points="1830.25,-196 1704.75,-196 1704.75,-176 1830.25,-176 1830.25,-196"/>
<text xml:space="preserve" text-anchor="middle" x="1767.5" y="-182.5" font-family="Helvetica,sans-Serif" font-size="10.00">ConnectionLine::serialize</text>
</a>
</g>
</g>
<!-- Node1&#45;&gt;Node17 -->
<g id="edge20_Node000001_Node000017" class="edge">
<title>Node1&#45;&gt;Node17</title>
<g id="a_edge20_Node000001_Node000017"><a xlink:title=" ">
<path fill="none" stroke="#63b8ff" d="M1932.47,-250.83C1910.01,-240.58 1879.41,-226.97 1852,-216 1834.69,-209.08 1815.09,-202 1799.23,-196.45"/>
<polygon fill="#63b8ff" stroke="#63b8ff" points="1930.86,-253.94 1941.41,-254.93 1933.78,-247.58 1930.86,-253.94"/>
</a>
</g>
</g>
<!-- Node3 -->
<g id="Node000003" class="node">
<title>Node3</title>
<g id="a_Node000003"><a xlink:href="class_diagram_scene.html#a795592348d4dcbd78d984db93c2fbedb" target="_top" xlink:title=" ">
<polygon fill="white" stroke="#666666" points="1638.75,-374 1487,-374 1487,-354 1638.75,-354 1638.75,-374"/>
<text xml:space="preserve" text-anchor="middle" x="1562.88" y="-360.5" font-family="Helvetica,sans-Serif" font-size="10.00">DiagramScene::addConnection</text>
</a>
</g>
</g>
<!-- Node2&#45;&gt;Node3 -->
<g id="edge2_Node000002_Node000003" class="edge">
<title>Node2&#45;&gt;Node3</title>
<g id="a_edge2_Node000002_Node000003"><a xlink:title=" ">
<path fill="none" stroke="#63b8ff" d="M1679.97,-359.42C1666.31,-359.96 1652.29,-360.51 1638.92,-361.04"/>
<polygon fill="#63b8ff" stroke="#63b8ff" points="1679.97,-362.92 1689.83,-359.03 1679.7,-355.92 1679.97,-362.92"/>
</a>
</g>
</g>
<!-- Node4 -->
<g id="Node000004" class="node">
<title>Node4</title>
<g id="a_Node000004"><a xlink:href="class_diagram_scene.html#a8a3265678249b08f424e17fbfa8d0de5" target="_top" xlink:title=" ">
<polygon fill="white" stroke="#666666" points="1438.25,-374 1279,-374 1279,-354 1438.25,-354 1438.25,-374"/>
<text xml:space="preserve" text-anchor="middle" x="1358.62" y="-360.5" font-family="Helvetica,sans-Serif" font-size="10.00">DiagramScene::finishConnection</text>
</a>
</g>
</g>
<!-- Node3&#45;&gt;Node4 -->
<g id="edge3_Node000003_Node000004" class="edge">
<title>Node3&#45;&gt;Node4</title>
<g id="a_edge3_Node000003_Node000004"><a xlink:title=" ">
<path fill="none" stroke="#63b8ff" d="M1475.09,-364C1463.01,-364 1450.65,-364 1438.72,-364"/>
<polygon fill="#63b8ff" stroke="#63b8ff" points="1475.05,-367.5 1485.05,-364 1475.05,-360.5 1475.05,-367.5"/>
</a>
</g>
</g>
<!-- Node5 -->
<g id="Node000005" class="node">
<title>Node5</title>
<g id="a_Node000005"><a xlink:href="class_diagram_scene.html#a61e7061e5add947d09ad87feaf2b8dc1" target="_top" xlink:title=" ">
<polygon fill="white" stroke="#666666" points="1238.5,-393 1064.25,-393 1064.25,-373 1238.5,-373 1238.5,-393"/>
<text xml:space="preserve" text-anchor="middle" x="1151.38" y="-379.5" font-family="Helvetica,sans-Serif" font-size="10.00">DiagramScene::pasteFromClipboard</text>
</a>
</g>
</g>
<!-- Node3&#45;&gt;Node5 -->
<g id="edge4_Node000003_Node000005" class="edge">
<title>Node3&#45;&gt;Node5</title>
<g id="a_edge4_Node000003_Node000005"><a xlink:title=" ">
<path fill="none" stroke="#63b8ff" d="M1496.61,-376.32C1479.18,-379.08 1460.3,-381.61 1442.75,-383 1374.4,-388.42 1296.72,-388.08 1238.92,-386.57"/>
<polygon fill="#63b8ff" stroke="#63b8ff" points="1497.04,-379.79 1506.34,-374.72 1495.9,-372.88 1497.04,-379.79"/>
</a>
</g>
</g>
<!-- Node6 -->
<g id="Node000006" class="node">
<title>Node6</title>
<g id="a_Node000006"><a xlink:href="class_diagram_scene.html#a074e1181353b257a18ea2d243b459a47" target="_top" xlink:title=" ">
<polygon fill="white" stroke="#666666" points="835.62,-355 682.38,-355 682.38,-335 835.62,-335 835.62,-355"/>
<text xml:space="preserve" text-anchor="middle" x="759" y="-341.5" font-family="Helvetica,sans-Serif" font-size="10.00">DiagramScene::keyPressEvent</text>
</a>
</g>
</g>
<!-- Node5&#45;&gt;Node6 -->
<g id="edge5_Node000005_Node000006" class="edge">
<title>Node5&#45;&gt;Node6</title>
<g id="a_edge5_Node000005_Node000006"><a xlink:title=" ">
<path fill="none" stroke="#63b8ff" d="M1052.8,-373.5C985.72,-366.97 897.93,-358.43 836.04,-352.4"/>
<polygon fill="#63b8ff" stroke="#63b8ff" points="1052.42,-376.98 1062.72,-374.47 1053.1,-370.01 1052.42,-376.98"/>
</a>
</g>
</g>
<!-- Node8 -->
<g id="Node000008" class="node">
<title>Node8</title>
<g id="a_Node000008"><a xlink:href="class_diagram_scene.html#a5d546daf9d3a3d5155b611ec31c4dccb" target="_top" xlink:title=" ">
<polygon fill="white" stroke="#666666" points="1647,-262 1478.75,-262 1478.75,-242 1647,-242 1647,-262"/>
<text xml:space="preserve" text-anchor="middle" x="1562.88" y="-248.5" font-family="Helvetica,sans-Serif" font-size="10.00">DiagramScene::removeConnection</text>
</a>
</g>
</g>
<!-- Node7&#45;&gt;Node8 -->
<g id="edge7_Node000007_Node000008" class="edge">
<title>Node7&#45;&gt;Node8</title>
<g id="a_edge7_Node000007_Node000008"><a xlink:title=" ">
<path fill="none" stroke="#63b8ff" d="M1680.14,-274.38C1659.18,-270.34 1637.35,-266.14 1618.34,-262.48"/>
<polygon fill="#63b8ff" stroke="#63b8ff" points="1679.37,-277.79 1689.85,-276.25 1680.69,-270.92 1679.37,-277.79"/>
</a>
</g>
</g>
<!-- Node9 -->
<g id="Node000009" class="node">
<title>Node9</title>
<g id="a_Node000009"><a xlink:href="class_diagram_scene.html#a0c02f289dea7872eae24bb2c0f91d5ea" target="_top" xlink:title=" ">
<polygon fill="white" stroke="#666666" points="1023,-213 878.75,-213 878.75,-193 1023,-193 1023,-213"/>
<text xml:space="preserve" text-anchor="middle" x="950.88" y="-199.5" font-family="Helvetica,sans-Serif" font-size="10.00">DiagramScene::clearDiagram</text>
</a>
</g>
</g>
<!-- Node8&#45;&gt;Node9 -->
<g id="edge8_Node000008_Node000009" class="edge">
<title>Node8&#45;&gt;Node9</title>
<g id="a_edge8_Node000008_Node000009"><a xlink:title=" ">
<path fill="none" stroke="#63b8ff" d="M1521,-238.08C1498.24,-231 1469.25,-223.04 1442.75,-219 1295.03,-196.46 1119.52,-197.28 1023.49,-200.04"/>
<polygon fill="#63b8ff" stroke="#63b8ff" points="1519.92,-241.41 1530.51,-241.12 1522.04,-234.74 1519.92,-241.41"/>
</a>
</g>
</g>
<!-- Node11 -->
<g id="Node000011" class="node">
<title>Node11</title>
<g id="a_Node000011"><a xlink:href="class_diagram_scene.html#a03a8b712a0872e8f6290c059de956505" target="_top" xlink:title=" ">
<polygon fill="white" stroke="#666666" points="1026.38,-336 875.38,-336 875.38,-316 1026.38,-316 1026.38,-336"/>
<text xml:space="preserve" text-anchor="middle" x="950.88" y="-322.5" font-family="Helvetica,sans-Serif" font-size="10.00">DiagramScene::deleteSelected</text>
</a>
</g>
</g>
<!-- Node8&#45;&gt;Node11 -->
<g id="edge10_Node000008_Node000011" class="edge">
<title>Node8&#45;&gt;Node11</title>
<g id="a_edge10_Node000008_Node000011"><a xlink:title=" ">
<path fill="none" stroke="#63b8ff" d="M1535.02,-268.14C1511.58,-281.3 1476.17,-298.98 1442.75,-307 1298.66,-341.59 1124.04,-337.98 1026.71,-332.09"/>
<polygon fill="#63b8ff" stroke="#63b8ff" points="1536.66,-271.24 1543.59,-263.22 1533.17,-265.17 1536.66,-271.24"/>
</a>
</g>
</g>
<!-- Node12 -->
<g id="Node000012" class="node">
<title>Node12</title>
<g id="a_Node000012"><a xlink:href="class_diagram_scene.html#abfda0a4eecbce90cc6c7e7462259d199" target="_top" xlink:title=" ">
<polygon fill="white" stroke="#666666" points="1442.75,-298 1274.5,-298 1274.5,-278 1442.75,-278 1442.75,-298"/>
<text xml:space="preserve" text-anchor="middle" x="1358.62" y="-284.5" font-family="Helvetica,sans-Serif" font-size="10.00">DiagramScene::removeConnection</text>
</a>
</g>
</g>
<!-- Node8&#45;&gt;Node12 -->
<g id="edge12_Node000008_Node000012" class="edge">
<title>Node8&#45;&gt;Node12</title>
<g id="a_edge12_Node000008_Node000012"><a xlink:title=" ">
<path fill="none" stroke="#63b8ff" d="M1491.95,-264.45C1468.03,-268.7 1441.51,-273.42 1418.54,-277.51"/>
<polygon fill="#63b8ff" stroke="#63b8ff" points="1492.38,-267.92 1501.61,-262.73 1491.16,-261.03 1492.38,-267.92"/>
</a>
</g>
</g>
<!-- Node13 -->
<g id="Node000013" class="node">
<title>Node13</title>
<g id="a_Node000013"><a xlink:href="class_diagram_scene.html#a0d026405c431d3aca9494d64296bb956" target="_top" xlink:title=" ">
<polygon fill="white" stroke="#666666" points="1436,-260 1281.25,-260 1281.25,-228 1436,-228 1436,-260"/>
<text xml:space="preserve" text-anchor="start" x="1289.25" y="-246.5" font-family="Helvetica,sans-Serif" font-size="10.00">DiagramScene::removeElement</text>
<text xml:space="preserve" text-anchor="middle" x="1358.62" y="-234.5" font-family="Helvetica,sans-Serif" font-size="10.00">Connections</text>
</a>
</g>
</g>
<!-- Node8&#45;&gt;Node13 -->
<g id="edge13_Node000008_Node000013" class="edge">
<title>Node8&#45;&gt;Node13</title>
<g id="a_edge13_Node000008_Node000013"><a xlink:title=" ">
<path fill="none" stroke="#63b8ff" d="M1467.27,-248.26C1456.92,-247.85 1446.47,-247.44 1436.38,-247.04"/>
<polygon fill="#63b8ff" stroke="#63b8ff" points="1466.8,-251.74 1476.93,-248.64 1467.08,-244.75 1466.8,-251.74"/>
</a>
</g>
</g>
<!-- Node10 -->
<g id="Node000010" class="node">
<title>Node10</title>
<g id="a_Node000010"><a xlink:href="class_diagram_scene.html#a189b7f9e32b70c751124cffce8d63c8c" target="_top" xlink:title=" ">
<polygon fill="white" stroke="#666666" points="837.5,-213 680.5,-213 680.5,-193 837.5,-193 837.5,-213"/>
<text xml:space="preserve" text-anchor="middle" x="759" y="-199.5" font-family="Helvetica,sans-Serif" font-size="10.00">DiagramScene::~DiagramScene</text>
</a>
</g>
</g>
<!-- Node9&#45;&gt;Node10 -->
<g id="edge9_Node000009_Node000010" class="edge">
<title>Node9&#45;&gt;Node10</title>
<g id="a_edge9_Node000009_Node000010"><a xlink:title=" ">
<path fill="none" stroke="#63b8ff" d="M867.06,-203C857.34,-203 847.45,-203 837.8,-203"/>
<polygon fill="#63b8ff" stroke="#63b8ff" points="866.85,-206.5 876.85,-203 866.85,-199.5 866.85,-206.5"/>
</a>
</g>
</g>
<!-- Node11&#45;&gt;Node6 -->
<g id="edge11_Node000011_Node000006" class="edge">
<title>Node11&#45;&gt;Node6</title>
<g id="a_edge11_Node000011_Node000006"><a xlink:title=" ">
<path fill="none" stroke="#63b8ff" d="M863.84,-334.61C854.54,-335.54 845.12,-336.48 835.95,-337.4"/>
<polygon fill="#63b8ff" stroke="#63b8ff" points="864,-338.11 873.6,-333.63 863.3,-331.15 864,-338.11"/>
</a>
</g>
</g>
<!-- Node14 -->
<g id="Node000014" class="node">
<title>Node14</title>
<g id="a_Node000014"><a xlink:href="class_diagram_scene.html#ae531fa5ccfc6393d5a60f956a652118d" target="_top" xlink:title=" ">
<polygon fill="white" stroke="#666666" points="1228.75,-254 1074,-254 1074,-234 1228.75,-234 1228.75,-254"/>
<text xml:space="preserve" text-anchor="middle" x="1151.38" y="-240.5" font-family="Helvetica,sans-Serif" font-size="10.00">DiagramScene::removeElement</text>
</a>
</g>
</g>
<!-- Node13&#45;&gt;Node14 -->
<g id="edge14_Node000013_Node000014" class="edge">
<title>Node13&#45;&gt;Node14</title>
<g id="a_edge14_Node000013_Node000014"><a xlink:title=" ">
<path fill="none" stroke="#63b8ff" d="M1269.65,-244C1256.12,-244 1242.25,-244 1229,-244"/>
<polygon fill="#63b8ff" stroke="#63b8ff" points="1269.39,-247.5 1279.39,-244 1269.39,-240.5 1269.39,-247.5"/>
</a>
</g>
</g>
<!-- Node14&#45;&gt;Node9 -->
<g id="edge15_Node000014_Node000009" class="edge">
<title>Node14&#45;&gt;Node9</title>
<g id="a_edge15_Node000014_Node000009"><a xlink:title=" ">
<path fill="none" stroke="#63b8ff" d="M1088.61,-231.24C1060.9,-225.52 1028.62,-218.85 1002.39,-213.43"/>
<polygon fill="#63b8ff" stroke="#63b8ff" points="1087.79,-234.65 1098.29,-233.24 1089.2,-227.79 1087.79,-234.65"/>
</a>
</g>
</g>
<!-- Node14&#45;&gt;Node11 -->
<g id="edge16_Node000014_Node000011" class="edge">
<title>Node14&#45;&gt;Node11</title>
<g id="a_edge16_Node000014_Node000011"><a xlink:title=" ">
<path fill="none" stroke="#63b8ff" d="M1114.71,-258.73C1075.05,-275.12 1011.99,-301.17 977.12,-315.57"/>
<polygon fill="#63b8ff" stroke="#63b8ff" points="1115.93,-262.02 1123.84,-254.96 1113.26,-255.55 1115.93,-262.02"/>
</a>
</g>
</g>
<!-- Node15 -->
<g id="Node000015" class="node">
<title>Node15</title>
<g id="a_Node000015"><a xlink:href="class_diagram_scene.html#affc06437d827ac64a996cd13690a49c6" target="_top" xlink:title=" ">
<polygon fill="white" stroke="#666666" points="1028.25,-254 873.5,-254 873.5,-234 1028.25,-234 1028.25,-254"/>
<text xml:space="preserve" text-anchor="middle" x="950.88" y="-240.5" font-family="Helvetica,sans-Serif" font-size="10.00">DiagramScene::removeElement</text>
</a>
</g>
</g>
<!-- Node14&#45;&gt;Node15 -->
<g id="edge17_Node000014_Node000015" class="edge">
<title>Node14&#45;&gt;Node15</title>
<g id="a_edge17_Node000014_Node000015"><a xlink:title=" ">
<path fill="none" stroke="#63b8ff" d="M1062.12,-244C1050.99,-244 1039.68,-244 1028.74,-244"/>
<polygon fill="#63b8ff" stroke="#63b8ff" points="1062.12,-247.5 1072.12,-244 1062.12,-240.5 1062.12,-247.5"/>
</a>
</g>
</g>
<!-- Node16&#45;&gt;Node8 -->
<g id="edge19_Node000016_Node000008" class="edge">
<title>Node16&#45;&gt;Node8</title>
<g id="a_edge19_Node000016_Node000008"><a xlink:title=" ">
<path fill="none" stroke="#63b8ff" d="M1671.35,-246.17C1663.34,-246.6 1655.28,-247.04 1647.36,-247.47"/>
<polygon fill="#63b8ff" stroke="#63b8ff" points="1671.32,-249.67 1681.11,-245.64 1670.94,-242.68 1671.32,-249.67"/>
</a>
</g>
</g>
<!-- Node18 -->
<g id="Node000018" class="node">
<title>Node18</title>
<g id="a_Node000018"><a xlink:href="class_json_helper.html#ace49a2bdc031d44388b744f93da1fd6d" target="_top" xlink:title=" ">
<polygon fill="white" stroke="#666666" points="1627.5,-202 1498.25,-202 1498.25,-170 1627.5,-170 1627.5,-202"/>
<text xml:space="preserve" text-anchor="start" x="1506.25" y="-188.5" font-family="Helvetica,sans-Serif" font-size="10.00">JsonHelper::connectionTo</text>
<text xml:space="preserve" text-anchor="middle" x="1562.88" y="-176.5" font-family="Helvetica,sans-Serif" font-size="10.00">JsonObject</text>
</a>
</g>
</g>
<!-- Node17&#45;&gt;Node18 -->
<g id="edge21_Node000017_Node000018" class="edge">
<title>Node17&#45;&gt;Node18</title>
<g id="a_edge21_Node000017_Node000018"><a xlink:title=" ">
<path fill="none" stroke="#63b8ff" d="M1692.99,-186C1671.6,-186 1648.42,-186 1627.68,-186"/>
<polygon fill="#63b8ff" stroke="#63b8ff" points="1692.82,-189.5 1702.82,-186 1692.82,-182.5 1692.82,-189.5"/>
</a>
</g>
</g>
<!-- Node31 -->
<g id="Node000031" class="node">
<title>Node31</title>
<g id="a_Node000031"><a xlink:href="class_relationship_connection_line.html#a842e00383d27f1078be5ca78ed1e34ec" target="_top" xlink:title=" ">
<polygon fill="white" stroke="#666666" points="1631.62,-152 1494.12,-152 1494.12,-120 1631.62,-120 1631.62,-152"/>
<text xml:space="preserve" text-anchor="start" x="1502.12" y="-138.5" font-family="Helvetica,sans-Serif" font-size="10.00">RelationshipConnectionLine</text>
<text xml:space="preserve" text-anchor="middle" x="1562.88" y="-126.5" font-family="Helvetica,sans-Serif" font-size="10.00">::serialize</text>
</a>
</g>
</g>
<!-- Node17&#45;&gt;Node31 -->
<g id="edge38_Node000017_Node000031" class="edge">
<title>Node17&#45;&gt;Node31</title>
<g id="a_edge38_Node000017_Node000031"><a xlink:title=" ">
<path fill="none" stroke="#63b8ff" d="M1713.17,-172.84C1687.89,-166.6 1657.42,-159.08 1630.62,-152.47"/>
<polygon fill="#63b8ff" stroke="#63b8ff" points="1712.01,-176.16 1722.55,-175.16 1713.68,-169.36 1712.01,-176.16"/>
</a>
</g>
</g>
<!-- Node19 -->
<g id="Node000019" class="node">
<title>Node19</title>
<g id="a_Node000019"><a xlink:href="class_json_helper.html#a3dc80512edb9b1f8bc8e50015e27e864" target="_top" xlink:title=" ">
<polygon fill="white" stroke="#666666" points="1427.38,-172 1289.88,-172 1289.88,-140 1427.38,-140 1427.38,-172"/>
<text xml:space="preserve" text-anchor="start" x="1297.88" y="-158.5" font-family="Helvetica,sans-Serif" font-size="10.00">JsonHelper::diagramToJson</text>
<text xml:space="preserve" text-anchor="middle" x="1358.62" y="-146.5" font-family="Helvetica,sans-Serif" font-size="10.00">Object</text>
</a>
</g>
</g>
<!-- Node18&#45;&gt;Node19 -->
<g id="edge22_Node000018_Node000019" class="edge">
<title>Node18&#45;&gt;Node19</title>
<g id="a_edge22_Node000018_Node000019"><a xlink:title=" ">
<path fill="none" stroke="#63b8ff" d="M1486.69,-174.85C1467.36,-171.98 1446.69,-168.91 1427.75,-166.1"/>
<polygon fill="#63b8ff" stroke="#63b8ff" points="1485.98,-178.28 1496.38,-176.29 1487.01,-171.36 1485.98,-178.28"/>
</a>
</g>
</g>
<!-- Node20 -->
<g id="Node000020" class="node">
<title>Node20</title>
<g id="a_Node000020"><a xlink:href="class_json_helper.html#a27d74ef624077d3187ef066a8867ba70" target="_top" xlink:title=" ">
<polygon fill="white" stroke="#666666" points="1220.12,-169 1082.62,-169 1082.62,-149 1220.12,-149 1220.12,-169"/>
<text xml:space="preserve" text-anchor="middle" x="1151.38" y="-155.5" font-family="Helvetica,sans-Serif" font-size="10.00">JsonHelper::diagramToJson</text>
</a>
</g>
</g>
<!-- Node19&#45;&gt;Node20 -->
<g id="edge23_Node000019_Node000020" class="edge">
<title>Node19&#45;&gt;Node20</title>
<g id="a_edge23_Node000019_Node000020"><a xlink:title=" ">
<path fill="none" stroke="#63b8ff" d="M1278.21,-157.16C1259.19,-157.44 1239.06,-157.73 1220.6,-158"/>
<polygon fill="#63b8ff" stroke="#63b8ff" points="1278.1,-160.66 1288.05,-157.02 1278,-153.66 1278.1,-160.66"/>
</a>
</g>
</g>
<!-- Node21 -->
<g id="Node000021" class="node">
<title>Node21</title>
<g id="a_Node000021"><a xlink:href="class_json_helper.html#a7f720f1105f91b135fdfbcaf94e3f929" target="_top" xlink:title=" ">
<polygon fill="white" stroke="#666666" points="1229.12,-131 1073.62,-131 1073.62,-111 1229.12,-111 1229.12,-131"/>
<text xml:space="preserve" text-anchor="middle" x="1151.38" y="-117.5" font-family="Helvetica,sans-Serif" font-size="10.00">JsonHelper::saveDiagramToFile</text>
</a>
</g>
</g>
<!-- Node19&#45;&gt;Node21 -->
<g id="edge24_Node000019_Node000021" class="edge">
<title>Node19&#45;&gt;Node21</title>
<g id="a_edge24_Node000019_Node000021"><a xlink:title=" ">
<path fill="none" stroke="#63b8ff" d="M1278.48,-142.5C1256.98,-138.84 1234.03,-134.92 1213.68,-131.45"/>
<polygon fill="#63b8ff" stroke="#63b8ff" points="1277.63,-145.91 1288.07,-144.14 1278.8,-139.01 1277.63,-145.91"/>
</a>
</g>
</g>
<!-- Node22 -->
<g id="Node000022" class="node">
<title>Node22</title>
<g id="a_Node000022"><a xlink:href="class_main_window.html#a464aaa4d378e7b2d814756a73d6e1ed6" target="_top" xlink:title=" ">
<polygon fill="white" stroke="#666666" points="1008.38,-131 893.38,-131 893.38,-111 1008.38,-111 1008.38,-131"/>
<text xml:space="preserve" text-anchor="middle" x="950.88" y="-117.5" font-family="Helvetica,sans-Serif" font-size="10.00">MainWindow::saveFile</text>
</a>
</g>
</g>
<!-- Node21&#45;&gt;Node22 -->
<g id="edge25_Node000021_Node000022" class="edge">
<title>Node21&#45;&gt;Node22</title>
<g id="a_edge25_Node000021_Node000022"><a xlink:title=" ">
<path fill="none" stroke="#63b8ff" d="M1061.91,-121C1043.9,-121 1025.41,-121 1008.86,-121"/>
<polygon fill="#63b8ff" stroke="#63b8ff" points="1061.83,-124.5 1071.83,-121 1061.83,-117.5 1061.83,-124.5"/>
</a>
</g>
</g>
<!-- Node23 -->
<g id="Node000023" class="node">
<title>Node23</title>
<g id="a_Node000023"><a xlink:href="class_main_window.html#a05fb9d72c044aa3bb7d187b994704e2f" target="_top" xlink:title=" ">
<polygon fill="white" stroke="#666666" points="822.5,-96 695.5,-96 695.5,-76 822.5,-76 822.5,-96"/>
<text xml:space="preserve" text-anchor="middle" x="759" y="-82.5" font-family="Helvetica,sans-Serif" font-size="10.00">MainWindow::closeEvent</text>
</a>
</g>
</g>
<!-- Node22&#45;&gt;Node23 -->
<g id="edge26_Node000022_Node000023" class="edge">
<title>Node22&#45;&gt;Node23</title>
<g id="a_edge26_Node000022_Node000023"><a xlink:title=" ">
<path fill="none" stroke="#63b8ff" d="M881.88,-108.47C860.54,-104.53 837.22,-100.23 816.75,-96.46"/>
<polygon fill="#63b8ff" stroke="#63b8ff" points="881.21,-111.9 891.67,-110.27 882.48,-105.02 881.21,-111.9"/>
</a>
</g>
</g>
<!-- Node24 -->
<g id="Node000024" class="node">
<title>Node24</title>
<g id="a_Node000024"><a xlink:href="class_main_window.html#aaf455232cccaa422fc4c371fa99bff84" target="_top" xlink:title=" ">
<polygon fill="white" stroke="#666666" points="644.5,-96 499.5,-96 499.5,-76 644.5,-76 644.5,-96"/>
<text xml:space="preserve" text-anchor="middle" x="572" y="-82.5" font-family="Helvetica,sans-Serif" font-size="10.00">MainWindow::createFileMenu</text>
</a>
</g>
</g>
<!-- Node22&#45;&gt;Node24 -->
<g id="edge27_Node000022_Node000024" class="edge">
<title>Node22&#45;&gt;Node24</title>
<g id="a_edge27_Node000022_Node000024"><a xlink:title=" ">
<path fill="none" stroke="#63b8ff" d="M924.41,-104.66C902.39,-91.56 869.2,-74.22 837.5,-67 760.29,-49.41 667.43,-64.03 614.81,-75.52"/>
<polygon fill="#63b8ff" stroke="#63b8ff" points="922.33,-107.49 932.68,-109.71 925.97,-101.51 922.33,-107.49"/>
</a>
</g>
</g>
<!-- Node28 -->
<g id="Node000028" class="node">
<title>Node28</title>
<g id="a_Node000028"><a xlink:href="class_main_window.html#a69f73b93cc05c89a9ae1be0161105982" target="_top" xlink:title=" ">
<polygon fill="white" stroke="#666666" points="815,-20 703,-20 703,0 815,0 815,-20"/>
<text xml:space="preserve" text-anchor="middle" x="759" y="-6.5" font-family="Helvetica,sans-Serif" font-size="10.00">MainWindow::newFile</text>
</a>
</g>
</g>
<!-- Node22&#45;&gt;Node28 -->
<g id="edge31_Node000022_Node000028" class="edge">
<title>Node22&#45;&gt;Node28</title>
<g id="a_edge31_Node000022_Node000028"><a xlink:title=" ">
<path fill="none" stroke="#63b8ff" d="M930.92,-102.83C909.7,-83.36 873.54,-52.74 837.5,-34 826.88,-28.48 814.77,-23.97 803.32,-20.43"/>
<polygon fill="#63b8ff" stroke="#63b8ff" points="928.51,-105.36 938.21,-109.63 933.29,-100.25 928.51,-105.36"/>
</a>
</g>
</g>
<!-- Node29 -->
<g id="Node000029" class="node">
<title>Node29</title>
<g id="a_Node000029"><a xlink:href="class_main_window.html#a288b768c3c21a9171bdc56fe845ece8b" target="_top" xlink:title=" ">
<polygon fill="white" stroke="#666666" points="816.5,-172 701.5,-172 701.5,-152 816.5,-152 816.5,-172"/>
<text xml:space="preserve" text-anchor="middle" x="759" y="-158.5" font-family="Helvetica,sans-Serif" font-size="10.00">MainWindow::openFile</text>
</a>
</g>
</g>
<!-- Node22&#45;&gt;Node29 -->
<g id="edge33_Node000022_Node000029" class="edge">
<title>Node22&#45;&gt;Node29</title>
<g id="a_edge33_Node000022_Node000029"><a xlink:title=" ">
<path fill="none" stroke="#63b8ff" d="M890.44,-133.83C864.01,-139.54 833.3,-146.17 808.32,-151.57"/>
<polygon fill="#63b8ff" stroke="#63b8ff" points="890.95,-137.3 899.99,-131.77 889.48,-130.46 890.95,-137.3"/>
</a>
</g>
</g>
<!-- Node30 -->
<g id="Node000030" class="node">
<title>Node30</title>
<g id="a_Node000030"><a xlink:href="class_main_window.html#ace1b7624a64f4d70513b86601e5846f9" target="_top" xlink:title=" ">
<polygon fill="white" stroke="#666666" points="822.5,-134 695.5,-134 695.5,-114 822.5,-114 822.5,-134"/>
<text xml:space="preserve" text-anchor="middle" x="759" y="-120.5" font-family="Helvetica,sans-Serif" font-size="10.00">MainWindow::saveAsFile</text>
</a>
</g>
</g>
<!-- Node22&#45;&gt;Node30 -->
<g id="edge35_Node000022_Node000030" class="edge">
<title>Node22&#45;&gt;Node30</title>
<g id="a_edge35_Node000022_Node000030"><a xlink:title=" ">
<path fill="none" stroke="#63b8ff" d="M881.54,-115.57C862.4,-115.52 841.7,-115.88 822.9,-116.61"/>
<polygon fill="#63b8ff" stroke="#63b8ff" points="881.37,-119.07 891.39,-115.64 881.42,-112.07 881.37,-119.07"/>
</a>
</g>
</g>
<!-- Node25 -->
<g id="Node000025" class="node">
<title>Node25</title>
<g id="a_Node000025"><a xlink:href="class_main_window.html#a2305527bb5d827ae07967ea1c86ee6fb" target="_top" xlink:title=" ">
<polygon fill="white" stroke="#666666" points="463.5,-96 319.25,-96 319.25,-76 463.5,-76 463.5,-96"/>
<text xml:space="preserve" text-anchor="middle" x="391.38" y="-82.5" font-family="Helvetica,sans-Serif" font-size="10.00">MainWindow::createMenuBar</text>
</a>
</g>
</g>
<!-- Node24&#45;&gt;Node25 -->
<g id="edge28_Node000024_Node000025" class="edge">
<title>Node24&#45;&gt;Node25</title>
<g id="a_edge28_Node000024_Node000025"><a xlink:title=" ">
<path fill="none" stroke="#63b8ff" d="M487.84,-86C479.81,-86 471.72,-86 463.82,-86"/>
<polygon fill="#63b8ff" stroke="#63b8ff" points="487.6,-89.5 497.6,-86 487.6,-82.5 487.6,-89.5"/>
</a>
</g>
</g>
<!-- Node26 -->
<g id="Node000026" class="node">
<title>Node26</title>
<g id="a_Node000026"><a xlink:href="class_main_window.html#a3a304253c9e7caeef028f75358bf1fd5" target="_top" xlink:title=" ">
<polygon fill="white" stroke="#666666" points="283.25,-96 170.5,-96 170.5,-76 283.25,-76 283.25,-96"/>
<text xml:space="preserve" text-anchor="middle" x="226.88" y="-82.5" font-family="Helvetica,sans-Serif" font-size="10.00">MainWindow::setupUI</text>
</a>
</g>
</g>
<!-- Node25&#45;&gt;Node26 -->
<g id="edge29_Node000025_Node000026" class="edge">
<title>Node25&#45;&gt;Node26</title>
<g id="a_edge29_Node000025_Node000026"><a xlink:title=" ">
<path fill="none" stroke="#63b8ff" d="M307.85,-86C299.59,-86 291.35,-86 283.46,-86"/>
<polygon fill="#63b8ff" stroke="#63b8ff" points="307.59,-89.5 317.59,-86 307.59,-82.5 307.59,-89.5"/>
</a>
</g>
</g>
<!-- Node27 -->
<g id="Node000027" class="node">
<title>Node27</title>
<g id="a_Node000027"><a xlink:href="class_main_window.html#a996c5a2b6f77944776856f08ec30858d" target="_top" xlink:title=" ">
<polygon fill="white" stroke="#666666" points="134.5,-96 0,-96 0,-76 134.5,-76 134.5,-96"/>
<text xml:space="preserve" text-anchor="middle" x="67.25" y="-82.5" font-family="Helvetica,sans-Serif" font-size="10.00">MainWindow::MainWindow</text>
</a>
</g>
</g>
<!-- Node26&#45;&gt;Node27 -->
<g id="edge30_Node000026_Node000027" class="edge">
<title>Node26&#45;&gt;Node27</title>
<g id="a_edge30_Node000026_Node000027"><a xlink:title=" ">
<path fill="none" stroke="#63b8ff" d="M158.85,-86C150.93,-86 142.85,-86 134.94,-86"/>
<polygon fill="#63b8ff" stroke="#63b8ff" points="158.79,-89.5 168.79,-86 158.79,-82.5 158.79,-89.5"/>
</a>
</g>
</g>
<!-- Node28&#45;&gt;Node24 -->
<g id="edge32_Node000028_Node000024" class="edge">
<title>Node28&#45;&gt;Node24</title>
<g id="a_edge32_Node000028_Node000024"><a xlink:title=" ">
<path fill="none" stroke="#63b8ff" d="M709.44,-23.81C699.76,-26.91 689.74,-30.36 680.5,-34 648.87,-46.47 613.65,-64.3 592.42,-75.51"/>
<polygon fill="#63b8ff" stroke="#63b8ff" points="710.2,-27.24 718.71,-20.93 708.12,-20.55 710.2,-27.24"/>
</a>
</g>
</g>
<!-- Node29&#45;&gt;Node24 -->
<g id="edge34_Node000029_Node000024" class="edge">
<title>Node29&#45;&gt;Node24</title>
<g id="a_edge34_Node000029_Node000024"><a xlink:title=" ">
<path fill="none" stroke="#63b8ff" d="M696.73,-148.49C691.19,-146.81 685.71,-144.98 680.5,-143 646.74,-130.14 610.12,-109.03 589.52,-96.43"/>
<polygon fill="#63b8ff" stroke="#63b8ff" points="695.39,-151.74 705.96,-151.1 697.3,-145.01 695.39,-151.74"/>
</a>
</g>
</g>
<!-- Node30&#45;&gt;Node22 -->
<g id="edge37_Node000030_Node000022" class="edge">
<title>Node30&#45;&gt;Node22</title>
<g id="a_edge37_Node000030_Node000022"><a xlink:title=" ">
<path fill="none" stroke="#63b8ff" d="M834.22,-129.43C853.73,-129.4 874.46,-128.95 892.91,-128.15"/>
<polygon fill="#63b8ff" stroke="#63b8ff" points="834.42,-125.93 824.41,-129.41 834.4,-132.93 834.42,-125.93"/>
</a>
</g>
</g>
<!-- Node30&#45;&gt;Node24 -->
<g id="edge36_Node000030_Node000024" class="edge">
<title>Node30&#45;&gt;Node24</title>
<g id="a_edge36_Node000030_Node000024"><a xlink:title=" ">
<path fill="none" stroke="#63b8ff" d="M695.75,-111.21C672.37,-106.41 646.1,-101.01 623.88,-96.45"/>
<polygon fill="#63b8ff" stroke="#63b8ff" points="694.98,-114.63 705.48,-113.21 696.38,-107.77 694.98,-114.63"/>
</a>
</g>
</g>
</g>
</svg>
