<?xml version="1.0" encoding="UTF-8" standalone="no"?>
<!DOCTYPE svg PUBLIC "-//W3C//DTD SVG 1.1//EN"
 "http://www.w3.org/Graphics/SVG/1.1/DTD/svg11.dtd">
<!-- Generated by graphviz version 14.1.1 (20251213.1925)
 -->
<!-- Title: DiagramScene::findGraphicsItem Pages: 1 -->
<svg width="964pt" height="230pt"
 viewBox="0.00 0.00 964.00 230.00" xmlns="http://www.w3.org/2000/svg" xmlns:xlink="http://www.w3.org/1999/xlink">
<g id="graph0" class="graph" transform="scale(1 1) rotate(0) translate(4 226)">
<title>DiagramScene::findGraphicsItem</title>
<!-- Node1 -->
<g id="Node000001" class="node">
<title>Node1</title>
<g id="a_Node000001"><a xlink:title=" ">
<polygon fill="#999999" stroke="#666666" points="956,-77 795.25,-77 795.25,-57 956,-57 956,-77"/>
<text xml:space="preserve" text-anchor="middle" x="875.62" y="-63.5" font-family="Helvetica,sans-Serif" font-size="10.00">DiagramScene::findGraphicsItem</text>
</a>
</g>
</g>
<!-- Node1&#45;&gt;Node1 -->
<g id="edge1_Node000001_Node000001" class="edge">
<title>Node1&#45;&gt;Node1</title>
<g id="a_edge1_Node000001_Node000001"><a xlink:title=" ">
<path fill="none" stroke="#63b8ff" d="M909.69,-88.11C905.63,-92.14 894.28,-95 875.62,-95 842.47,-95 832.36,-85.98 845.32,-77.34"/>
<polygon fill="#63b8ff" stroke="#63b8ff" points="913.03,-87.05 906.43,-78.77 906.42,-89.36 913.03,-87.05"/>
</a>
</g>
</g>
<!-- Node2 -->
<g id="Node000002" class="node">
<title>Node2</title>
<g id="a_Node000002"><a xlink:href="class_diagram_scene.html#adffd7c14eb320f4e260f6fed731c1809" target="_top" xlink:title=" ">
<polygon fill="white" stroke="#666666" points="759.25,-77 610.5,-77 610.5,-57 759.25,-57 759.25,-77"/>
<text xml:space="preserve" text-anchor="middle" x="684.88" y="-63.5" font-family="Helvetica,sans-Serif" font-size="10.00">DiagramScene::selectElement</text>
</a>
</g>
</g>
<!-- Node1&#45;&gt;Node2 -->
<g id="edge2_Node000001_Node000002" class="edge">
<title>Node1&#45;&gt;Node2</title>
<g id="a_edge2_Node000001_Node000002"><a xlink:title=" ">
<path fill="none" stroke="#63b8ff" d="M783.57,-67C775.55,-67 767.51,-67 759.66,-67"/>
<polygon fill="#63b8ff" stroke="#63b8ff" points="783.34,-70.5 793.34,-67 783.34,-63.5 783.34,-70.5"/>
</a>
</g>
</g>
<!-- Node3 -->
<g id="Node000003" class="node">
<title>Node3</title>
<g id="a_Node000003"><a xlink:href="class_diagram_scene.html#a9341fab75d7299e330baae13993bed28" target="_top" xlink:title=" ">
<polygon fill="white" stroke="#666666" points="562.88,-140 414.88,-140 414.88,-120 562.88,-120 562.88,-140"/>
<text xml:space="preserve" text-anchor="middle" x="488.88" y="-126.5" font-family="Helvetica,sans-Serif" font-size="10.00">DiagramScene::clearSelection</text>
</a>
</g>
</g>
<!-- Node2&#45;&gt;Node3 -->
<g id="edge3_Node000002_Node000003" class="edge">
<title>Node2&#45;&gt;Node3</title>
<g id="a_edge3_Node000002_Node000003"><a xlink:title=" ">
<path fill="none" stroke="#63b8ff" d="M641.19,-80.86C605.22,-92.54 554.55,-109 521.96,-119.58"/>
<polygon fill="#63b8ff" stroke="#63b8ff" points="641.97,-84.29 650.4,-77.87 639.81,-77.63 641.97,-84.29"/>
</a>
</g>
</g>
<!-- Node8 -->
<g id="Node000008" class="node">
<title>Node8</title>
<g id="a_Node000008"><a xlink:href="class_diagram_scene.html#a61e7061e5add947d09ad87feaf2b8dc1" target="_top" xlink:title=" ">
<polygon fill="white" stroke="#666666" points="367.25,-96 193,-96 193,-76 367.25,-76 367.25,-96"/>
<text xml:space="preserve" text-anchor="middle" x="280.12" y="-82.5" font-family="Helvetica,sans-Serif" font-size="10.00">DiagramScene::pasteFromClipboard</text>
</a>
</g>
</g>
<!-- Node2&#45;&gt;Node8 -->
<g id="edge12_Node000002_Node000008" class="edge">
<title>Node2&#45;&gt;Node8</title>
<g id="a_edge12_Node000002_Node000008"><a xlink:title=" ">
<path fill="none" stroke="#63b8ff" d="M598.9,-71.01C530.87,-74.22 435.85,-78.7 367.47,-81.93"/>
<polygon fill="#63b8ff" stroke="#63b8ff" points="598.67,-74.52 608.49,-70.56 598.34,-67.53 598.67,-74.52"/>
</a>
</g>
</g>
<!-- Node9 -->
<g id="Node000009" class="node">
<title>Node9</title>
<g id="a_Node000009"><a xlink:href="class_diagram_scene.html#ad46a8dc374895fd670f50f30f2c2acbd" target="_top" xlink:title=" ">
<polygon fill="white" stroke="#666666" points="574.5,-58 403.25,-58 403.25,-38 574.5,-38 574.5,-58"/>
<text xml:space="preserve" text-anchor="middle" x="488.88" y="-44.5" font-family="Helvetica,sans-Serif" font-size="10.00">DiagramScene::finishSelectionRect</text>
</a>
</g>
</g>
<!-- Node2&#45;&gt;Node9 -->
<g id="edge10_Node000002_Node000009" class="edge">
<title>Node2&#45;&gt;Node9</title>
<g id="a_edge10_Node000002_Node000009"><a xlink:title=" ">
<path fill="none" stroke="#63b8ff" d="M599.01,-58.69C590.98,-57.9 582.85,-57.11 574.82,-56.32"/>
<polygon fill="#63b8ff" stroke="#63b8ff" points="598.46,-62.15 608.75,-59.64 599.14,-55.18 598.46,-62.15"/>
</a>
</g>
</g>
<!-- Node11 -->
<g id="Node000011" class="node">
<title>Node11</title>
<g id="a_Node000011"><a xlink:href="class_diagram_scene.html#a52f85570092aa1c3df464382efad08fa" target="_top" xlink:title=" ">
<polygon fill="white" stroke="#666666" points="563.25,-20 414.5,-20 414.5,0 563.25,0 563.25,-20"/>
<text xml:space="preserve" text-anchor="middle" x="488.88" y="-6.5" font-family="Helvetica,sans-Serif" font-size="10.00">DiagramScene::selectElement</text>
</a>
</g>
</g>
<!-- Node2&#45;&gt;Node11 -->
<g id="edge13_Node000002_Node000011" class="edge">
<title>Node2&#45;&gt;Node11</title>
<g id="a_edge13_Node000002_Node000011"><a xlink:title=" ">
<path fill="none" stroke="#63b8ff" d="M646.05,-52.67C625.14,-45.05 598.59,-35.86 574.5,-29 563.64,-25.9 551.88,-22.99 540.68,-20.42"/>
<polygon fill="#63b8ff" stroke="#63b8ff" points="644.72,-55.91 655.31,-56.08 647.14,-49.34 644.72,-55.91"/>
</a>
</g>
</g>
<!-- Node4 -->
<g id="Node000004" class="node">
<title>Node4</title>
<g id="a_Node000004"><a xlink:href="class_diagram_scene.html#a0c02f289dea7872eae24bb2c0f91d5ea" target="_top" xlink:title=" ">
<polygon fill="white" stroke="#666666" points="352.25,-222 208,-222 208,-202 352.25,-202 352.25,-222"/>
<text xml:space="preserve" text-anchor="middle" x="280.12" y="-208.5" font-family="Helvetica,sans-Serif" font-size="10.00">DiagramScene::clearDiagram</text>
</a>
</g>
</g>
<!-- Node3&#45;&gt;Node4 -->
<g id="edge4_Node000003_Node000004" class="edge">
<title>Node3&#45;&gt;Node4</title>
<g id="a_edge4_Node000003_Node000004"><a xlink:title=" ">
<path fill="none" stroke="#63b8ff" d="M459.23,-145.55C435.18,-158.17 399.64,-175.81 367.25,-188 353.59,-193.14 338.36,-197.74 324.54,-201.51"/>
<polygon fill="#63b8ff" stroke="#63b8ff" points="460.58,-148.79 467.77,-141.02 457.3,-142.61 460.58,-148.79"/>
</a>
</g>
</g>
<!-- Node6 -->
<g id="Node000006" class="node">
<title>Node6</title>
<g id="a_Node000006"><a xlink:href="class_diagram_scene.html#a074e1181353b257a18ea2d243b459a47" target="_top" xlink:title=" ">
<polygon fill="white" stroke="#666666" points="155.12,-140 1.88,-140 1.88,-120 155.12,-120 155.12,-140"/>
<text xml:space="preserve" text-anchor="middle" x="78.5" y="-126.5" font-family="Helvetica,sans-Serif" font-size="10.00">DiagramScene::keyPressEvent</text>
</a>
</g>
</g>
<!-- Node3&#45;&gt;Node6 -->
<g id="edge6_Node000003_Node000006" class="edge">
<title>Node3&#45;&gt;Node6</title>
<g id="a_edge6_Node000003_Node000006"><a xlink:title=" ">
<path fill="none" stroke="#63b8ff" d="M436.63,-143.03C415.32,-147.82 390.24,-152.64 367.25,-155 290.21,-162.9 269.99,-163.38 193,-155 167.43,-152.22 139.17,-146 117.25,-140.47"/>
<polygon fill="#63b8ff" stroke="#63b8ff" points="437.28,-146.47 446.24,-140.81 435.71,-139.65 437.28,-146.47"/>
</a>
</g>
</g>
<!-- Node7 -->
<g id="Node000007" class="node">
<title>Node7</title>
<g id="a_Node000007"><a xlink:href="class_diagram_scene.html#a6847af7972303267f22e84ae1011c255" target="_top" xlink:title=" ">
<polygon fill="white" stroke="#666666" points="350.75,-146 209.5,-146 209.5,-114 350.75,-114 350.75,-146"/>
<text xml:space="preserve" text-anchor="start" x="217.5" y="-132.5" font-family="Helvetica,sans-Serif" font-size="10.00">DiagramScene::mousePress</text>
<text xml:space="preserve" text-anchor="middle" x="280.12" y="-120.5" font-family="Helvetica,sans-Serif" font-size="10.00">Event</text>
</a>
</g>
</g>
<!-- Node3&#45;&gt;Node7 -->
<g id="edge7_Node000003_Node000007" class="edge">
<title>Node3&#45;&gt;Node7</title>
<g id="a_edge7_Node000003_Node000007"><a xlink:title=" ">
<path fill="none" stroke="#63b8ff" d="M403.18,-130C385.92,-130 367.93,-130 351.25,-130"/>
<polygon fill="#63b8ff" stroke="#63b8ff" points="402.89,-133.5 412.89,-130 402.89,-126.5 402.89,-133.5"/>
</a>
</g>
</g>
<!-- Node3&#45;&gt;Node8 -->
<g id="edge8_Node000003_Node000008" class="edge">
<title>Node3&#45;&gt;Node8</title>
<g id="a_edge8_Node000003_Node000008"><a xlink:title=" ">
<path fill="none" stroke="#63b8ff" d="M427.54,-117.16C396.65,-110.59 359.51,-102.68 330.36,-96.48"/>
<polygon fill="#63b8ff" stroke="#63b8ff" points="426.63,-120.54 437.14,-119.2 428.08,-113.7 426.63,-120.54"/>
</a>
</g>
</g>
<!-- Node5 -->
<g id="Node000005" class="node">
<title>Node5</title>
<g id="a_Node000005"><a xlink:href="class_diagram_scene.html#a189b7f9e32b70c751124cffce8d63c8c" target="_top" xlink:title=" ">
<polygon fill="white" stroke="#666666" points="157,-222 0,-222 0,-202 157,-202 157,-222"/>
<text xml:space="preserve" text-anchor="middle" x="78.5" y="-208.5" font-family="Helvetica,sans-Serif" font-size="10.00">DiagramScene::~DiagramScene</text>
</a>
</g>
</g>
<!-- Node4&#45;&gt;Node5 -->
<g id="edge5_Node000004_Node000005" class="edge">
<title>Node4&#45;&gt;Node5</title>
<g id="a_edge5_Node000004_Node000005"><a xlink:title=" ">
<path fill="none" stroke="#63b8ff" d="M196.37,-212C183.43,-212 170.09,-212 157.27,-212"/>
<polygon fill="#63b8ff" stroke="#63b8ff" points="196.11,-215.5 206.11,-212 196.11,-208.5 196.11,-215.5"/>
</a>
</g>
</g>
<!-- Node8&#45;&gt;Node6 -->
<g id="edge9_Node000008_Node000006" class="edge">
<title>Node8&#45;&gt;Node6</title>
<g id="a_edge9_Node000008_Node000006"><a xlink:title=" ">
<path fill="none" stroke="#63b8ff" d="M220.48,-98.93C190.73,-105.48 155.06,-113.35 127.04,-119.52"/>
<polygon fill="#63b8ff" stroke="#63b8ff" points="221.07,-102.38 230.09,-96.81 219.57,-95.54 221.07,-102.38"/>
</a>
</g>
</g>
<!-- Node10 -->
<g id="Node000010" class="node">
<title>Node10</title>
<g id="a_Node000010"><a xlink:href="class_diagram_scene.html#a542ad58dab0f10f2825e0d69deabebe7" target="_top" xlink:title=" ">
<polygon fill="white" stroke="#666666" points="356,-58 204.25,-58 204.25,-26 356,-26 356,-58"/>
<text xml:space="preserve" text-anchor="start" x="212.25" y="-44.5" font-family="Helvetica,sans-Serif" font-size="10.00">DiagramScene::mouseRelease</text>
<text xml:space="preserve" text-anchor="middle" x="280.12" y="-32.5" font-family="Helvetica,sans-Serif" font-size="10.00">Event</text>
</a>
</g>
</g>
<!-- Node9&#45;&gt;Node10 -->
<g id="edge11_Node000009_Node000010" class="edge">
<title>Node9&#45;&gt;Node10</title>
<g id="a_edge11_Node000009_Node000010"><a xlink:title=" ">
<path fill="none" stroke="#63b8ff" d="M391.56,-45.2C379.68,-44.86 367.68,-44.51 356.19,-44.18"/>
<polygon fill="#63b8ff" stroke="#63b8ff" points="391.28,-48.7 401.37,-45.49 391.48,-41.7 391.28,-48.7"/>
</a>
</g>
</g>
</g>
</svg>
