<?xml version="1.0" encoding="UTF-8" standalone="no"?>
<!DOCTYPE svg PUBLIC "-//W3C//DTD SVG 1.1//EN"
 "http://www.w3.org/Graphics/SVG/1.1/DTD/svg11.dtd">
<!-- Generated by graphviz version 14.1.1 (20251213.1925)
 -->
<!-- Title: DiagramScene::connectionSelected Pages: 1 -->
<svg width="951pt" height="246pt"
 viewBox="0.00 0.00 951.00 246.00" xmlns="http://www.w3.org/2000/svg" xmlns:xlink="http://www.w3.org/1999/xlink">
<g id="graph0" class="graph" transform="scale(1 1) rotate(0) translate(4 242.42)">
<title>DiagramScene::connectionSelected</title>
<!-- Node1 -->
<g id="Node000001" class="node">
<title>Node1</title>
<g id="a_Node000001"><a xlink:title=" ">
<polygon fill="#999999" stroke="#666666" points="942.5,-215 808.75,-215 808.75,-183 942.5,-183 942.5,-215"/>
<text xml:space="preserve" text-anchor="start" x="816.75" y="-201.5" font-family="Helvetica,sans-Serif" font-size="10.00">DiagramScene::connection</text>
<text xml:space="preserve" text-anchor="middle" x="875.62" y="-189.5" font-family="Helvetica,sans-Serif" font-size="10.00">Selected</text>
</a>
</g>
</g>
<!-- Node2 -->
<g id="Node000002" class="node">
<title>Node2</title>
<g id="a_Node000002"><a xlink:href="class_diagram_scene.html#a530f6e2b54bdff761f3f478120187201" target="_top" xlink:title=" ">
<polygon fill="white" stroke="#666666" points="753.62,-231 629.62,-231 629.62,-211 753.62,-211 753.62,-231"/>
<text xml:space="preserve" text-anchor="middle" x="691.62" y="-217.5" font-family="Helvetica,sans-Serif" font-size="10.00">DiagramScene::selectAll</text>
</a>
</g>
</g>
<!-- Node1&#45;&gt;Node2 -->
<g id="edge1_Node000001_Node000002" class="edge">
<title>Node1&#45;&gt;Node2</title>
<g id="a_edge1_Node000001_Node000002"><a xlink:title=" ">
<path fill="none" stroke="#63b8ff" d="M796.99,-208.38C782.61,-210.12 767.77,-211.92 753.96,-213.59"/>
<polygon fill="#63b8ff" stroke="#63b8ff" points="797.39,-211.86 806.9,-207.19 796.55,-204.91 797.39,-211.86"/>
</a>
</g>
</g>
<!-- Node4 -->
<g id="Node000004" class="node">
<title>Node4</title>
<g id="a_Node000004"><a xlink:href="class_diagram_scene.html#ac7268f1b5870d5c67f54057e6638bcec" target="_top" xlink:title=" ">
<polygon fill="white" stroke="#666666" points="772.75,-190 610.5,-190 610.5,-170 772.75,-170 772.75,-190"/>
<text xml:space="preserve" text-anchor="middle" x="691.62" y="-176.5" font-family="Helvetica,sans-Serif" font-size="10.00">DiagramScene::selectConnection</text>
</a>
</g>
</g>
<!-- Node1&#45;&gt;Node4 -->
<g id="edge3_Node000001_Node000004" class="edge">
<title>Node1&#45;&gt;Node4</title>
<g id="a_edge3_Node000001_Node000004"><a xlink:title=" ">
<path fill="none" stroke="#63b8ff" d="M797.22,-190.92C789.22,-190.08 781.08,-189.23 773.05,-188.4"/>
<polygon fill="#63b8ff" stroke="#63b8ff" points="796.59,-194.37 806.9,-191.93 797.32,-187.41 796.59,-194.37"/>
</a>
</g>
</g>
<!-- Node3 -->
<g id="Node000003" class="node">
<title>Node3</title>
<g id="a_Node000003"><a xlink:href="class_diagram_scene.html#a074e1181353b257a18ea2d243b459a47" target="_top" xlink:title=" ">
<polygon fill="white" stroke="#666666" points="155.12,-146 1.88,-146 1.88,-126 155.12,-126 155.12,-146"/>
<text xml:space="preserve" text-anchor="middle" x="78.5" y="-132.5" font-family="Helvetica,sans-Serif" font-size="10.00">DiagramScene::keyPressEvent</text>
</a>
</g>
</g>
<!-- Node2&#45;&gt;Node3 -->
<g id="edge2_Node000002_Node000003" class="edge">
<title>Node2&#45;&gt;Node3</title>
<g id="a_edge2_Node000002_Node000003"><a xlink:title=" ">
<path fill="none" stroke="#63b8ff" d="M617.98,-229.99C519.4,-239.67 338.84,-248.39 193,-205 152.33,-192.9 111.49,-162.55 91.73,-146.43"/>
<polygon fill="#63b8ff" stroke="#63b8ff" points="618.19,-233.49 627.79,-229 617.49,-226.53 618.19,-233.49"/>
</a>
</g>
</g>
<!-- Node5 -->
<g id="Node000005" class="node">
<title>Node5</title>
<g id="a_Node000005"><a xlink:href="class_diagram_scene.html#add93af6ff55d3453051b8c057cd4bdcb" target="_top" xlink:title=" ">
<polygon fill="white" stroke="#666666" points="562.88,-108 414.88,-108 414.88,-88 562.88,-88 562.88,-108"/>
<text xml:space="preserve" text-anchor="middle" x="488.88" y="-94.5" font-family="Helvetica,sans-Serif" font-size="10.00">DiagramScene::clearSelection</text>
</a>
</g>
</g>
<!-- Node4&#45;&gt;Node5 -->
<g id="edge4_Node000004_Node000005" class="edge">
<title>Node4&#45;&gt;Node5</title>
<g id="a_edge4_Node000004_Node000005"><a xlink:title=" ">
<path fill="none" stroke="#63b8ff" d="M654.56,-165.27C614.45,-148.88 550.67,-122.83 515.41,-108.43"/>
<polygon fill="#63b8ff" stroke="#63b8ff" points="653.22,-168.5 663.8,-169.04 655.86,-162.02 653.22,-168.5"/>
</a>
</g>
</g>
<!-- Node10 -->
<g id="Node000010" class="node">
<title>Node10</title>
<g id="a_Node000010"><a xlink:href="class_diagram_scene.html#ad46a8dc374895fd670f50f30f2c2acbd" target="_top" xlink:title=" ">
<polygon fill="white" stroke="#666666" points="574.5,-190 403.25,-190 403.25,-170 574.5,-170 574.5,-190"/>
<text xml:space="preserve" text-anchor="middle" x="488.88" y="-176.5" font-family="Helvetica,sans-Serif" font-size="10.00">DiagramScene::finishSelectionRect</text>
</a>
</g>
</g>
<!-- Node4&#45;&gt;Node10 -->
<g id="edge11_Node000004_Node000010" class="edge">
<title>Node4&#45;&gt;Node10</title>
<g id="a_edge11_Node000004_Node000010"><a xlink:title=" ">
<path fill="none" stroke="#63b8ff" d="M598.65,-180C590.77,-180 582.81,-180 574.99,-180"/>
<polygon fill="#63b8ff" stroke="#63b8ff" points="598.62,-183.5 608.62,-180 598.62,-176.5 598.62,-183.5"/>
</a>
</g>
</g>
<!-- Node5&#45;&gt;Node3 -->
<g id="edge7_Node000005_Node000003" class="edge">
<title>Node5&#45;&gt;Node3</title>
<g id="a_edge7_Node000005_Node000003"><a xlink:title=" ">
<path fill="none" stroke="#63b8ff" d="M403.23,-101.17C344.18,-103.94 263.62,-108.84 193,-117 174.05,-119.19 153.44,-122.39 135.05,-125.54"/>
<polygon fill="#63b8ff" stroke="#63b8ff" points="403.03,-104.69 412.86,-100.73 402.71,-97.69 403.03,-104.69"/>
</a>
</g>
</g>
<!-- Node6 -->
<g id="Node000006" class="node">
<title>Node6</title>
<g id="a_Node000006"><a xlink:href="class_diagram_scene.html#a0c02f289dea7872eae24bb2c0f91d5ea" target="_top" xlink:title=" ">
<polygon fill="white" stroke="#666666" points="352.25,-70 208,-70 208,-50 352.25,-50 352.25,-70"/>
<text xml:space="preserve" text-anchor="middle" x="280.12" y="-56.5" font-family="Helvetica,sans-Serif" font-size="10.00">DiagramScene::clearDiagram</text>
</a>
</g>
</g>
<!-- Node5&#45;&gt;Node6 -->
<g id="edge5_Node000005_Node000006" class="edge">
<title>Node5&#45;&gt;Node6</title>
<g id="a_edge5_Node000005_Node000006"><a xlink:title=" ">
<path fill="none" stroke="#63b8ff" d="M419.72,-85.47C393.25,-80.61 363.27,-75.1 337.98,-70.45"/>
<polygon fill="#63b8ff" stroke="#63b8ff" points="418.88,-88.88 429.34,-87.24 420.14,-81.99 418.88,-88.88"/>
</a>
</g>
</g>
<!-- Node8 -->
<g id="Node000008" class="node">
<title>Node8</title>
<g id="a_Node000008"><a xlink:href="class_diagram_scene.html#a6847af7972303267f22e84ae1011c255" target="_top" xlink:title=" ">
<polygon fill="white" stroke="#666666" points="350.75,-32 209.5,-32 209.5,0 350.75,0 350.75,-32"/>
<text xml:space="preserve" text-anchor="start" x="217.5" y="-18.5" font-family="Helvetica,sans-Serif" font-size="10.00">DiagramScene::mousePress</text>
<text xml:space="preserve" text-anchor="middle" x="280.12" y="-6.5" font-family="Helvetica,sans-Serif" font-size="10.00">Event</text>
</a>
</g>
</g>
<!-- Node5&#45;&gt;Node8 -->
<g id="edge8_Node000005_Node000008" class="edge">
<title>Node5&#45;&gt;Node8</title>
<g id="a_edge8_Node000005_Node000008"><a xlink:title=" ">
<path fill="none" stroke="#63b8ff" d="M458.32,-82.41C434.24,-70.11 399.14,-53.07 367.25,-41 359.24,-37.97 350.7,-35.08 342.22,-32.43"/>
<polygon fill="#63b8ff" stroke="#63b8ff" points="456.4,-85.36 466.89,-86.83 459.61,-79.14 456.4,-85.36"/>
</a>
</g>
</g>
<!-- Node9 -->
<g id="Node000009" class="node">
<title>Node9</title>
<g id="a_Node000009"><a xlink:href="class_diagram_scene.html#a61e7061e5add947d09ad87feaf2b8dc1" target="_top" xlink:title=" ">
<polygon fill="white" stroke="#666666" points="367.25,-146 193,-146 193,-126 367.25,-126 367.25,-146"/>
<text xml:space="preserve" text-anchor="middle" x="280.12" y="-132.5" font-family="Helvetica,sans-Serif" font-size="10.00">DiagramScene::pasteFromClipboard</text>
</a>
</g>
</g>
<!-- Node5&#45;&gt;Node9 -->
<g id="edge9_Node000005_Node000009" class="edge">
<title>Node5&#45;&gt;Node9</title>
<g id="a_edge9_Node000005_Node000009"><a xlink:title=" ">
<path fill="none" stroke="#63b8ff" d="M419.72,-110.53C393.25,-115.39 363.27,-120.9 337.98,-125.55"/>
<polygon fill="#63b8ff" stroke="#63b8ff" points="420.14,-114.01 429.34,-108.76 418.88,-107.12 420.14,-114.01"/>
</a>
</g>
</g>
<!-- Node7 -->
<g id="Node000007" class="node">
<title>Node7</title>
<g id="a_Node000007"><a xlink:href="class_diagram_scene.html#a189b7f9e32b70c751124cffce8d63c8c" target="_top" xlink:title=" ">
<polygon fill="white" stroke="#666666" points="157,-70 0,-70 0,-50 157,-50 157,-70"/>
<text xml:space="preserve" text-anchor="middle" x="78.5" y="-56.5" font-family="Helvetica,sans-Serif" font-size="10.00">DiagramScene::~DiagramScene</text>
</a>
</g>
</g>
<!-- Node6&#45;&gt;Node7 -->
<g id="edge6_Node000006_Node000007" class="edge">
<title>Node6&#45;&gt;Node7</title>
<g id="a_edge6_Node000006_Node000007"><a xlink:title=" ">
<path fill="none" stroke="#63b8ff" d="M196.37,-60C183.43,-60 170.09,-60 157.27,-60"/>
<polygon fill="#63b8ff" stroke="#63b8ff" points="196.11,-63.5 206.11,-60 196.11,-56.5 196.11,-63.5"/>
</a>
</g>
</g>
<!-- Node9&#45;&gt;Node3 -->
<g id="edge10_Node000009_Node000003" class="edge">
<title>Node9&#45;&gt;Node3</title>
<g id="a_edge10_Node000009_Node000003"><a xlink:title=" ">
<path fill="none" stroke="#63b8ff" d="M181.31,-136C172.59,-136 163.86,-136 155.37,-136"/>
<polygon fill="#63b8ff" stroke="#63b8ff" points="181.21,-139.5 191.21,-136 181.21,-132.5 181.21,-139.5"/>
</a>
</g>
</g>
<!-- Node11 -->
<g id="Node000011" class="node">
<title>Node11</title>
<g id="a_Node000011"><a xlink:href="class_diagram_scene.html#a542ad58dab0f10f2825e0d69deabebe7" target="_top" xlink:title=" ">
<polygon fill="white" stroke="#666666" points="356,-196 204.25,-196 204.25,-164 356,-164 356,-196"/>
<text xml:space="preserve" text-anchor="start" x="212.25" y="-182.5" font-family="Helvetica,sans-Serif" font-size="10.00">DiagramScene::mouseRelease</text>
<text xml:space="preserve" text-anchor="middle" x="280.12" y="-170.5" font-family="Helvetica,sans-Serif" font-size="10.00">Event</text>
</a>
</g>
</g>
<!-- Node10&#45;&gt;Node11 -->
<g id="edge12_Node000010_Node000011" class="edge">
<title>Node10&#45;&gt;Node11</title>
<g id="a_edge12_Node000010_Node000011"><a xlink:title=" ">
<path fill="none" stroke="#63b8ff" d="M391.56,-180C379.68,-180 367.68,-180 356.19,-180"/>
<polygon fill="#63b8ff" stroke="#63b8ff" points="391.37,-183.5 401.37,-180 391.37,-176.5 391.37,-183.5"/>
</a>
</g>
</g>
</g>
</svg>
