<?xml version="1.0" encoding="UTF-8" standalone="no"?>
<!DOCTYPE svg PUBLIC "-//W3C//DTD SVG 1.1//EN"
 "http://www.w3.org/Graphics/SVG/1.1/DTD/svg11.dtd">
<!-- Generated by graphviz version 14.1.1 (20251213.1925)
 -->
<!-- Title: MainWindow::handleAttributePropertyChange Pages: 1 -->
<!--zoomable 758 -->

<svg id="main" version="1.1" xmlns="http://www.w3.org/2000/svg" xmlns:xlink="http://www.w3.org/1999/xlink" xml:space="preserve" onload="init(evt)">

<style type="text/css"><![CDATA[
.node, .edge {opacity: 0.7;}
.node.selected, .edge.selected {opacity: 1;}
.edge:hover path { stroke: red; }
.edge:hover polygon { stroke: red; fill: red; }
]]></style>

<defs>
  <circle id="rim" cx="0" cy="0" r="7"/>
  <circle id="rim2" cx="0" cy="0" r="3.5"/>
  <g id="zoomPlus">
    <use xlink:href="#rim" fill="#404040"><set attributeName="fill" to="#808080" begin="zoomplus.mouseover" end="zoomplus.mouseout"/></use>
    <path d="M-4,0h8M0,-4v8" fill="none" stroke="white" stroke-width="1.5" pointer-events="none"/>
  </g>
  <g id="zoomMin">
    <use xlink:href="#rim" fill="#404040"><set attributeName="fill" to="#808080" begin="zoomminus.mouseover" end="zoomminus.mouseout"/></use>
    <path d="M-4,0h8" fill="none" stroke="white" stroke-width="1.5" pointer-events="none"/>
  </g>
  <g id="arrowUp" transform="translate(30 24)">
    <use xlink:href="#rim"/>
    <path pointer-events="none" fill="none" stroke="white" stroke-width="1.5" d="M0,-3.0v7 M-2.5,-0.5L0,-3.0L2.5,-0.5"/>
  </g>
  <g id="arrowRight" transform="rotate(90) translate(36 -43)">
    <use xlink:href="#rim"/>
    <path pointer-events="none" fill="none" stroke="white" stroke-width="1.5" d="M0,-3.0v7 M-2.5,-0.5L0,-3.0L2.5,-0.5"/>
  </g>
  <g id="arrowDown" transform="rotate(180) translate(-30 -48)">
    <use xlink:href="#rim"/>
    <path pointer-events="none" fill="none" stroke="white" stroke-width="1.5" d="M0,-3.0v7 M-2.5,-0.5L0,-3.0L2.5,-0.5"/>
  </g>
  <g id="arrowLeft" transform="rotate(270) translate(-36 17)">
    <use xlink:href="#rim"/>
    <path pointer-events="none" fill="none" stroke="white" stroke-width="1.5" d="M0,-3.0v7 M-2.5,-0.5L0,-3.0L2.5,-0.5"/>
  </g>
  <g id="resetDef">
    <use xlink:href="#rim2" fill="#404040"><set attributeName="fill" to="#808080" begin="reset.mouseover" end="reset.mouseout"/></use>
  </g>
</defs>
<script type="application/ecmascript">
var viewWidth = 2530;
var viewHeight = 758;
var sectionId = 'dynsection-41';
</script>
<script type="application/ecmascript" xlink:href="svg.min.js"/>
<svg id="graph" class="graph">
<g id="viewport">
<title>MainWindow::handleAttributePropertyChange</title>
<!-- Node1 -->
<g id="Node000001" class="node">
<title>Node1</title>
<g id="a_Node000001"><a xlink:title=" ">
<polygon fill="#999999" stroke="#666666" points="2521.75,-602.15 2378.25,-602.15 2378.25,-570.15 2521.75,-570.15 2521.75,-602.15"/>
<text xml:space="preserve" text-anchor="start" x="2386.25" y="-588.65" font-family="Helvetica,sans-Serif" font-size="10.00">MainWindow::handleAttribute</text>
<text xml:space="preserve" text-anchor="middle" x="2450" y="-576.65" font-family="Helvetica,sans-Serif" font-size="10.00">PropertyChange</text>
</a>
</g>
</g>
<!-- Node2 -->
<g id="Node000002" class="node">
<title>Node2</title>
<g id="a_Node000002"><a xlink:href="class_main_window.html#a47fd0b86ddb5829e3b0cb15908671670" target="_top" xlink:title=" ">
<polygon fill="white" stroke="#666666" points="2342.25,-558.15 2168.75,-558.15 2168.75,-538.15 2342.25,-538.15 2342.25,-558.15"/>
<text xml:space="preserve" text-anchor="middle" x="2255.5" y="-544.65" font-family="Helvetica,sans-Serif" font-size="10.00">MainWindow::onCheckBoxChanged</text>
</a>
</g>
</g>
<!-- Node1&#45;&gt;Node2 -->
<g id="edge1_Node000001_Node000002" class="edge">
<title>Node1&#45;&gt;Node2</title>
<g id="a_edge1_Node000001_Node000002"><a xlink:title=" ">
<path fill="none" stroke="#63b8ff" d="M2366.61,-569.88C2347.3,-566.07 2327.22,-562.11 2309.59,-558.63"/>
<polygon fill="#63b8ff" stroke="#63b8ff" points="2365.89,-573.31 2376.38,-571.81 2367.25,-566.44 2365.89,-573.31"/>
</a>
</g>
</g>
<!-- Node12 -->
<g id="Node000012" class="node">
<title>Node12</title>
<g id="a_Node000012"><a xlink:href="class_main_window.html#ac1e0c79708cf9aa9b7ca1a87697e5b34" target="_top" xlink:title=" ">
<polygon fill="white" stroke="#666666" points="563.25,-612.15 386.75,-612.15 386.75,-592.15 563.25,-592.15 563.25,-612.15"/>
<text xml:space="preserve" text-anchor="middle" x="475" y="-598.65" font-family="Helvetica,sans-Serif" font-size="10.00">MainWindow::onComboBoxChanged</text>
</a>
</g>
</g>
<!-- Node1&#45;&gt;Node12 -->
<g id="edge48_Node000001_Node000012" class="edge">
<title>Node1&#45;&gt;Node12</title>
<g id="a_edge48_Node000001_Node000012"><a xlink:title=" ">
<path fill="none" stroke="#63b8ff" d="M2409.67,-607.9C2340.7,-643.95 2192.49,-712.15 2058.25,-712.15 2058.25,-712.15 2058.25,-712.15 881.38,-712.15 755.7,-712.15 717.23,-736.43 599.25,-693.15 550.81,-675.37 505.01,-632.28 485.66,-612.45"/>
<polygon fill="#63b8ff" stroke="#63b8ff" points="2411.11,-611.1 2418.31,-603.33 2407.84,-604.91 2411.11,-611.1"/>
</a>
</g>
</g>
<!-- Node18 -->
<g id="Node000018" class="node">
<title>Node18</title>
<g id="a_Node000018"><a xlink:href="class_main_window.html#a1043995538765eae993ae75217c482e7" target="_top" xlink:title=" ">
<polygon fill="white" stroke="#666666" points="755.5,-432.15 606,-432.15 606,-400.15 755.5,-400.15 755.5,-432.15"/>
<text xml:space="preserve" text-anchor="start" x="614" y="-418.65" font-family="Helvetica,sans-Serif" font-size="10.00">MainWindow::onPropertyValue</text>
<text xml:space="preserve" text-anchor="middle" x="680.75" y="-406.65" font-family="Helvetica,sans-Serif" font-size="10.00">Changed</text>
</a>
</g>
</g>
<!-- Node1&#45;&gt;Node18 -->
<g id="edge49_Node000001_Node000018" class="edge">
<title>Node1&#45;&gt;Node18</title>
<g id="a_edge49_Node000001_Node000018"><a xlink:title=" ">
<path fill="none" stroke="#63b8ff" d="M2421.03,-562.59C2359.63,-513.37 2206.66,-404.15 2058.25,-404.15 2058.25,-404.15 2058.25,-404.15 1077.38,-404.15 965.2,-404.15 835.21,-409.03 755.74,-412.56"/>
<polygon fill="#63b8ff" stroke="#63b8ff" points="2418.61,-565.13 2428.58,-568.72 2423.02,-559.7 2418.61,-565.13"/>
</a>
</g>
</g>
<!-- Node3 -->
<g id="Node000003" class="node">
<title>Node3</title>
<g id="a_Node000003"><a xlink:href="class_main_window.html#a44aaf7bb6d9a56f53b8a7a9e4fc29f8c" target="_top" xlink:title=" ">
<polygon fill="white" stroke="#666666" points="2132.75,-288.15 1981.75,-288.15 1981.75,-256.15 2132.75,-256.15 2132.75,-288.15"/>
<text xml:space="preserve" text-anchor="start" x="1989.75" y="-274.65" font-family="Helvetica,sans-Serif" font-size="10.00">MainWindow::createCheckBox</text>
<text xml:space="preserve" text-anchor="middle" x="2057.25" y="-262.65" font-family="Helvetica,sans-Serif" font-size="10.00">PropertyItem</text>
</a>
</g>
</g>
<!-- Node2&#45;&gt;Node3 -->
<g id="edge2_Node000002_Node000003" class="edge">
<title>Node2&#45;&gt;Node3</title>
<g id="a_edge2_Node000002_Node000003"><a xlink:title=" ">
<path fill="none" stroke="#63b8ff" d="M2240.54,-528.52C2203.65,-476.63 2104.05,-336.56 2069.92,-288.55"/>
<polygon fill="#63b8ff" stroke="#63b8ff" points="2237.52,-530.31 2246.17,-536.43 2243.23,-526.25 2237.52,-530.31"/>
</a>
</g>
</g>
<!-- Node4 -->
<g id="Node000004" class="node">
<title>Node4</title>
<g id="a_Node000004"><a xlink:href="class_main_window.html#a3aa4112f20ad25eb3ad78fd354ba7de2" target="_top" xlink:title=" ">
<polygon fill="white" stroke="#666666" points="1945.75,-130.15 1794,-130.15 1794,-98.15 1945.75,-98.15 1945.75,-130.15"/>
<text xml:space="preserve" text-anchor="start" x="1802" y="-116.65" font-family="Helvetica,sans-Serif" font-size="10.00">MainWindow::populateAttribute</text>
<text xml:space="preserve" text-anchor="middle" x="1869.88" y="-104.65" font-family="Helvetica,sans-Serif" font-size="10.00">Properties</text>
</a>
</g>
</g>
<!-- Node3&#45;&gt;Node4 -->
<g id="edge3_Node000003_Node000004" class="edge">
<title>Node3&#45;&gt;Node4</title>
<g id="a_edge3_Node000003_Node000004"><a xlink:title=" ">
<path fill="none" stroke="#63b8ff" d="M2028.57,-248.55C1990.56,-216.16 1923.2,-158.74 1890.19,-130.61"/>
<polygon fill="#63b8ff" stroke="#63b8ff" points="2026.08,-251.03 2035.96,-254.85 2030.62,-245.7 2026.08,-251.03"/>
</a>
</g>
</g>
<!-- Node11 -->
<g id="Node000011" class="node">
<title>Node11</title>
<g id="a_Node000011"><a xlink:href="class_main_window.html#a1049a5796ac248f40a3b4110ed5faf77" target="_top" xlink:title=" ">
<polygon fill="white" stroke="#666666" points="1554.5,-206.15 1385.5,-206.15 1385.5,-174.15 1554.5,-174.15 1554.5,-206.15"/>
<text xml:space="preserve" text-anchor="start" x="1393.5" y="-192.65" font-family="Helvetica,sans-Serif" font-size="10.00">MainWindow::populateRelationship</text>
<text xml:space="preserve" text-anchor="middle" x="1470" y="-180.65" font-family="Helvetica,sans-Serif" font-size="10.00">Properties</text>
</a>
</g>
</g>
<!-- Node3&#45;&gt;Node11 -->
<g id="edge47_Node000003_Node000011" class="edge">
<title>Node3&#45;&gt;Node11</title>
<g id="a_edge47_Node000003_Node000011"><a xlink:title=" ">
<path fill="none" stroke="#63b8ff" d="M1970.33,-260.11C1858.75,-244.47 1665.21,-217.36 1554.71,-201.88"/>
<polygon fill="#63b8ff" stroke="#63b8ff" points="1969.65,-263.55 1980.03,-261.47 1970.62,-256.61 1969.65,-263.55"/>
</a>
</g>
</g>
<!-- Node5 -->
<g id="Node000005" class="node">
<title>Node5</title>
<g id="a_Node000005"><a xlink:href="class_main_window.html#a697154cf7839e00c607134c2a4e018cf" target="_top" xlink:title=" ">
<polygon fill="white" stroke="#666666" points="1758,-124.15 1590.5,-124.15 1590.5,-104.15 1758,-104.15 1758,-124.15"/>
<text xml:space="preserve" text-anchor="middle" x="1674.25" y="-110.65" font-family="Helvetica,sans-Serif" font-size="10.00">MainWindow::populateAttributeList</text>
</a>
</g>
</g>
<!-- Node4&#45;&gt;Node5 -->
<g id="edge4_Node000004_Node000005" class="edge">
<title>Node4&#45;&gt;Node5</title>
<g id="a_edge4_Node000004_Node000005"><a xlink:title=" ">
<path fill="none" stroke="#63b8ff" d="M1782.49,-107.43C1774.48,-107.38 1766.36,-107.39 1758.38,-107.46"/>
<polygon fill="#63b8ff" stroke="#63b8ff" points="1782.19,-110.93 1792.22,-107.53 1782.26,-103.93 1782.19,-110.93"/>
</a>
</g>
</g>
<!-- Node7 -->
<g id="Node000007" class="node">
<title>Node7</title>
<g id="a_Node000007"><a xlink:href="class_main_window.html#add7e6ae12287854ff779bd4b5649dd98" target="_top" xlink:title=" ">
<polygon fill="white" stroke="#666666" points="1349.5,-310.15 1190.25,-310.15 1190.25,-278.15 1349.5,-278.15 1349.5,-310.15"/>
<text xml:space="preserve" text-anchor="start" x="1198.25" y="-296.65" font-family="Helvetica,sans-Serif" font-size="10.00">MainWindow::populateProperties</text>
<text xml:space="preserve" text-anchor="middle" x="1269.88" y="-284.65" font-family="Helvetica,sans-Serif" font-size="10.00">ForElement</text>
</a>
</g>
</g>
<!-- Node4&#45;&gt;Node7 -->
<g id="edge46_Node000004_Node000007" class="edge">
<title>Node4&#45;&gt;Node7</title>
<g id="a_edge46_Node000004_Node000007"><a xlink:title=" ">
<path fill="none" stroke="#63b8ff" d="M1809.24,-134.07C1746.17,-154.97 1643.65,-188.42 1554.5,-215.15 1478.49,-237.93 1390.36,-262.14 1332.77,-277.66"/>
<polygon fill="#63b8ff" stroke="#63b8ff" points="1809.96,-137.52 1818.35,-131.05 1807.75,-130.88 1809.96,-137.52"/>
</a>
</g>
</g>
<!-- Node5&#45;&gt;Node4 -->
<g id="edge5_Node000005_Node000004" class="edge">
<title>Node5&#45;&gt;Node4</title>
<g id="a_edge5_Node000005_Node000004"><a xlink:title=" ">
<path fill="none" stroke="#63b8ff" d="M1769.73,-120.89C1777.78,-120.91 1785.86,-120.86 1793.74,-120.74"/>
<polygon fill="#63b8ff" stroke="#63b8ff" points="1769.91,-117.4 1759.89,-120.84 1769.87,-124.39 1769.91,-117.4"/>
</a>
</g>
</g>
<!-- Node6 -->
<g id="Node000006" class="node">
<title>Node6</title>
<g id="a_Node000006"><a xlink:href="class_main_window.html#a40023e3590f2593fd133a6b111f63ed9" target="_top" xlink:title=" ">
<polygon fill="white" stroke="#666666" points="545.25,-200.15 404.75,-200.15 404.75,-168.15 545.25,-168.15 545.25,-200.15"/>
<text xml:space="preserve" text-anchor="start" x="412.75" y="-186.65" font-family="Helvetica,sans-Serif" font-size="10.00">MainWindow::populateEntity</text>
<text xml:space="preserve" text-anchor="middle" x="475" y="-174.65" font-family="Helvetica,sans-Serif" font-size="10.00">Properties</text>
</a>
</g>
</g>
<!-- Node5&#45;&gt;Node6 -->
<g id="edge6_Node000005_Node000006" class="edge">
<title>Node5&#45;&gt;Node6</title>
<g id="a_edge6_Node000005_Node000006"><a xlink:title=" ">
<path fill="none" stroke="#63b8ff" d="M1578.76,-114.99C1522.6,-115.69 1449.97,-116.95 1385.5,-119.15 1035.81,-131.08 946.4,-115.36 599.25,-159.15 581.7,-161.36 562.92,-164.67 545.44,-168.17"/>
<polygon fill="#63b8ff" stroke="#63b8ff" points="1578.65,-118.49 1588.61,-114.87 1578.57,-111.49 1578.65,-118.49"/>
</a>
</g>
</g>
<!-- Node5&#45;&gt;Node11 -->
<g id="edge45_Node000005_Node000011" class="edge">
<title>Node5&#45;&gt;Node11</title>
<g id="a_edge45_Node000005_Node000011"><a xlink:title=" ">
<path fill="none" stroke="#63b8ff" d="M1635.02,-128.51C1600.75,-141.39 1550.49,-160.28 1514.64,-173.75"/>
<polygon fill="#63b8ff" stroke="#63b8ff" points="1636.01,-131.88 1644.14,-125.09 1633.54,-125.33 1636.01,-131.88"/>
</a>
</g>
</g>
<!-- Node6&#45;&gt;Node7 -->
<g id="edge7_Node000006_Node000007" class="edge">
<title>Node6&#45;&gt;Node7</title>
<g id="a_edge7_Node000006_Node000007"><a xlink:title=" ">
<path fill="none" stroke="#63b8ff" d="M520.67,-205.25C581.73,-232.82 695.42,-279.64 798.25,-297.15 934.38,-320.32 1095.88,-311.59 1189.92,-302.98"/>
<polygon fill="#63b8ff" stroke="#63b8ff" points="522.18,-202.1 511.63,-201.13 519.28,-208.47 522.18,-202.1"/>
</a>
</g>
</g>
<!-- Node8 -->
<g id="Node000008" class="node">
<title>Node8</title>
<g id="a_Node000008"><a xlink:href="class_main_window.html#a5caeae304b10e5cd9f83ef5c6086310b" target="_top" xlink:title=" ">
<polygon fill="white" stroke="#666666" points="1154.25,-514.15 1002.5,-514.15 1002.5,-482.15 1154.25,-482.15 1154.25,-514.15"/>
<text xml:space="preserve" text-anchor="start" x="1010.5" y="-500.65" font-family="Helvetica,sans-Serif" font-size="10.00">MainWindow::updateProperties</text>
<text xml:space="preserve" text-anchor="middle" x="1078.38" y="-488.65" font-family="Helvetica,sans-Serif" font-size="10.00">Panel</text>
</a>
</g>
</g>
<!-- Node7&#45;&gt;Node8 -->
<g id="edge8_Node000007_Node000008" class="edge">
<title>Node7&#45;&gt;Node8</title>
<g id="a_edge8_Node000007_Node000008"><a xlink:title=" ">
<path fill="none" stroke="#63b8ff" d="M1245.95,-318.82C1206.75,-361.03 1127.83,-445.99 1094.63,-481.72"/>
<polygon fill="#63b8ff" stroke="#63b8ff" points="1248.42,-321.31 1252.66,-311.6 1243.29,-316.55 1248.42,-321.31"/>
</a>
</g>
</g>
<!-- Node8&#45;&gt;Node2 -->
<g id="edge16_Node000008_Node000002" class="edge">
<title>Node8&#45;&gt;Node2</title>
<g id="a_edge16_Node000008_Node000002"><a xlink:title=" ">
<path fill="none" stroke="#63b8ff" d="M1165.77,-500.24C1244.72,-501.97 1364.7,-504.15 1469,-504.15 1870.88,-504.15 1870.88,-504.15 1870.88,-504.15 1988.02,-504.15 2123.99,-524.65 2198.5,-537.66"/>
<polygon fill="#63b8ff" stroke="#63b8ff" points="1166.02,-496.74 1155.94,-500.02 1165.86,-503.74 1166.02,-496.74"/>
</a>
</g>
</g>
<!-- Node9 -->
<g id="Node000009" class="node">
<title>Node9</title>
<g id="a_Node000009"><a xlink:href="class_main_window.html#ad34ae0349abf41aa739b75b85df74126" target="_top" xlink:title=" ">
<polygon fill="white" stroke="#666666" points="953.75,-376.15 811,-376.15 811,-344.15 953.75,-344.15 953.75,-376.15"/>
<text xml:space="preserve" text-anchor="start" x="819" y="-362.65" font-family="Helvetica,sans-Serif" font-size="10.00">MainWindow::onAddAttribute</text>
<text xml:space="preserve" text-anchor="middle" x="882.38" y="-350.65" font-family="Helvetica,sans-Serif" font-size="10.00">OnTreeClicked</text>
</a>
</g>
</g>
<!-- Node8&#45;&gt;Node9 -->
<g id="edge9_Node000008_Node000009" class="edge">
<title>Node8&#45;&gt;Node9</title>
<g id="a_edge9_Node000008_Node000009"><a xlink:title=" ">
<path fill="none" stroke="#63b8ff" d="M1044.98,-475.1C1005.78,-447.22 940.76,-400.97 906.36,-376.5"/>
<polygon fill="#63b8ff" stroke="#63b8ff" points="1042.95,-477.95 1053.13,-480.9 1047.01,-472.25 1042.95,-477.95"/>
</a>
</g>
</g>
<!-- Node8&#45;&gt;Node12 -->
<g id="edge17_Node000008_Node000012" class="edge">
<title>Node8&#45;&gt;Node12</title>
<g id="a_edge17_Node000008_Node000012"><a xlink:title=" ">
<path fill="none" stroke="#63b8ff" d="M1060.17,-523.71C1040.89,-549.83 1006.97,-588.8 966.5,-605.15 811.14,-667.88 604.86,-632.42 517.7,-612.64"/>
<polygon fill="#63b8ff" stroke="#63b8ff" points="1062.98,-525.8 1065.95,-515.63 1057.28,-521.73 1062.98,-525.8"/>
</a>
</g>
</g>
<!-- Node16 -->
<g id="Node000016" class="node">
<title>Node16</title>
<g id="a_Node000016"><a xlink:href="class_main_window.html#a0e7ca45ac830893108871185dda813a4" target="_top" xlink:title=" ">
<polygon fill="white" stroke="#666666" points="762.25,-470.15 599.25,-470.15 599.25,-450.15 762.25,-450.15 762.25,-470.15"/>
<text xml:space="preserve" text-anchor="middle" x="680.75" y="-456.65" font-family="Helvetica,sans-Serif" font-size="10.00">MainWindow::onLineEditChanged</text>
</a>
</g>
</g>
<!-- Node8&#45;&gt;Node16 -->
<g id="edge24_Node000008_Node000016" class="edge">
<title>Node8&#45;&gt;Node16</title>
<g id="a_edge24_Node000008_Node000016"><a xlink:title=" ">
<path fill="none" stroke="#63b8ff" d="M990.94,-491.47C935.77,-487.03 862.75,-480.79 798.25,-474.15 786.7,-472.96 774.52,-471.6 762.56,-470.22"/>
<polygon fill="#63b8ff" stroke="#63b8ff" points="990.33,-494.93 1000.57,-492.24 990.89,-487.96 990.33,-494.93"/>
</a>
</g>
</g>
<!-- Node8&#45;&gt;Node18 -->
<g id="edge27_Node000008_Node000018" class="edge">
<title>Node8&#45;&gt;Node18</title>
<g id="a_edge27_Node000008_Node000018"><a xlink:title=" ">
<path fill="none" stroke="#63b8ff" d="M1027.77,-478.88C1008.63,-474.11 986.56,-469.36 966.5,-465.15 895.03,-450.13 813.35,-433.55 755.85,-423.61"/>
<polygon fill="#63b8ff" stroke="#63b8ff" points="1026.64,-482.2 1037.19,-481.3 1028.38,-475.42 1026.64,-482.2"/>
</a>
</g>
</g>
<!-- Node21 -->
<g id="Node000021" class="node">
<title>Node21</title>
<g id="a_Node000021"><a xlink:href="class_main_window.html#a95674d4bfc5fc2aad6df1601f23b1793" target="_top" xlink:title=" ">
<polygon fill="white" stroke="#666666" points="963.5,-288.15 801.25,-288.15 801.25,-256.15 963.5,-256.15 963.5,-288.15"/>
<text xml:space="preserve" text-anchor="start" x="809.25" y="-274.65" font-family="Helvetica,sans-Serif" font-size="10.00">MainWindow::onRemoveAttribute</text>
<text xml:space="preserve" text-anchor="middle" x="882.38" y="-262.65" font-family="Helvetica,sans-Serif" font-size="10.00">OnTreeClicked</text>
</a>
</g>
</g>
<!-- Node8&#45;&gt;Node21 -->
<g id="edge31_Node000008_Node000021" class="edge">
<title>Node8&#45;&gt;Node21</title>
<g id="a_edge31_Node000008_Node000021"><a xlink:title=" ">
<path fill="none" stroke="#63b8ff" d="M1063.21,-472.07C1044.06,-438.21 1007.55,-378.36 966.5,-335.15 949.29,-317.03 926.48,-300.14 909.11,-288.41"/>
<polygon fill="#63b8ff" stroke="#63b8ff" points="1060.14,-473.74 1068.06,-480.77 1066.25,-470.33 1060.14,-473.74"/>
</a>
</g>
</g>
<!-- Node22 -->
<g id="Node000022" class="node">
<title>Node22</title>
<g id="a_Node000022"><a xlink:href="class_main_window.html#a44791b85064ecff42c12429c6667e83b" target="_top" xlink:title=" ">
<polygon fill="white" stroke="#666666" points="966.5,-546.15 798.25,-546.15 798.25,-526.15 966.5,-526.15 966.5,-546.15"/>
<text xml:space="preserve" text-anchor="middle" x="882.38" y="-532.65" font-family="Helvetica,sans-Serif" font-size="10.00">MainWindow::onSelectionChanged</text>
</a>
</g>
</g>
<!-- Node8&#45;&gt;Node22 -->
<g id="edge33_Node000008_Node000022" class="edge">
<title>Node8&#45;&gt;Node22</title>
<g id="a_edge33_Node000008_Node000022"><a xlink:title=" ">
<path fill="none" stroke="#63b8ff" d="M990.98,-515.07C972.49,-518.69 953.48,-522.41 936.69,-525.7"/>
<polygon fill="#63b8ff" stroke="#63b8ff" points="991.47,-518.54 1000.61,-513.18 990.12,-511.67 991.47,-518.54"/>
</a>
</g>
</g>
<!-- Node23 -->
<g id="Node000023" class="node">
<title>Node23</title>
<g id="a_Node000023"><a xlink:href="class_main_window.html#af380eeda83d30cd1ecb1419cfd5161d7" target="_top" xlink:title=" ">
<polygon fill="white" stroke="#666666" points="949.25,-596.15 815.5,-596.15 815.5,-564.15 949.25,-564.15 949.25,-596.15"/>
<text xml:space="preserve" text-anchor="start" x="823.5" y="-582.65" font-family="Helvetica,sans-Serif" font-size="10.00">MainWindow::updatesAfter</text>
<text xml:space="preserve" text-anchor="middle" x="882.38" y="-570.65" font-family="Helvetica,sans-Serif" font-size="10.00">ChangingProperty</text>
</a>
</g>
</g>
<!-- Node8&#45;&gt;Node23 -->
<g id="edge35_Node000008_Node000023" class="edge">
<title>Node8&#45;&gt;Node23</title>
<g id="a_edge35_Node000008_Node000023"><a xlink:title=" ">
<path fill="none" stroke="#63b8ff" d="M1031.43,-519.52C1021.8,-524.2 1011.76,-529.23 1002.5,-534.15 986.14,-542.83 983.49,-547.76 966.5,-555.15 959.31,-558.27 951.62,-561.16 943.91,-563.77"/>
<polygon fill="#63b8ff" stroke="#63b8ff" points="1032.8,-522.75 1040.3,-515.26 1029.77,-516.44 1032.8,-522.75"/>
</a>
</g>
</g>
<!-- Node10 -->
<g id="Node000010" class="node">
<title>Node10</title>
<g id="a_Node000010"><a xlink:href="class_main_window.html#a6fd05e9f951dd6e7c2cd6ca815ef9d71" target="_top" xlink:title=" ">
<polygon fill="white" stroke="#666666" points="747.62,-200.15 613.88,-200.15 613.88,-168.15 747.62,-168.15 747.62,-200.15"/>
<text xml:space="preserve" text-anchor="start" x="621.88" y="-186.65" font-family="Helvetica,sans-Serif" font-size="10.00">MainWindow::createButton</text>
<text xml:space="preserve" text-anchor="middle" x="680.75" y="-174.65" font-family="Helvetica,sans-Serif" font-size="10.00">PropertyItem</text>
</a>
</g>
</g>
<!-- Node9&#45;&gt;Node10 -->
<g id="edge10_Node000009_Node000010" class="edge">
<title>Node9&#45;&gt;Node10</title>
<g id="a_edge10_Node000009_Node000010"><a xlink:title=" ">
<path fill="none" stroke="#63b8ff" d="M848.92,-336.97C833.26,-325.44 814.41,-311.02 798.25,-297.15 760.41,-264.66 719.2,-223.08 697.37,-200.51"/>
<polygon fill="#63b8ff" stroke="#63b8ff" points="846.85,-339.79 856.99,-342.86 850.98,-334.14 846.85,-339.79"/>
</a>
</g>
</g>
<!-- Node10&#45;&gt;Node4 -->
<g id="edge12_Node000010_Node000004" class="edge">
<title>Node10&#45;&gt;Node4</title>
<g id="a_edge12_Node000010_Node000004"><a xlink:title=" ">
<path fill="none" stroke="#63b8ff" d="M716.57,-161.72C783.58,-120.8 936.36,-38.15 1077.38,-38.15 1471,-38.15 1471,-38.15 1471,-38.15 1596.88,-38.15 1741.25,-75.3 1816.71,-97.65"/>
<polygon fill="#63b8ff" stroke="#63b8ff" points="714.89,-158.65 708.23,-166.89 718.57,-164.6 714.89,-158.65"/>
</a>
</g>
</g>
<!-- Node10&#45;&gt;Node5 -->
<g id="edge11_Node000010_Node000005" class="edge">
<title>Node10&#45;&gt;Node5</title>
<g id="a_edge11_Node000010_Node000005"><a xlink:title=" ">
<path fill="none" stroke="#63b8ff" d="M759.44,-178.66C942.93,-165.71 1401.89,-133.3 1590.42,-119.99"/>
<polygon fill="#63b8ff" stroke="#63b8ff" points="759.25,-175.17 749.53,-179.36 759.75,-182.15 759.25,-175.17"/>
</a>
</g>
</g>
<!-- Node10&#45;&gt;Node6 -->
<g id="edge13_Node000010_Node000006" class="edge">
<title>Node10&#45;&gt;Node6</title>
<g id="a_edge13_Node000010_Node000006"><a xlink:title=" ">
<path fill="none" stroke="#63b8ff" d="M602.2,-184.15C583.61,-184.15 563.88,-184.15 545.68,-184.15"/>
<polygon fill="#63b8ff" stroke="#63b8ff" points="602.08,-187.65 612.08,-184.15 602.08,-180.65 602.08,-187.65"/>
</a>
</g>
</g>
<!-- Node10&#45;&gt;Node11 -->
<g id="edge14_Node000010_Node000011" class="edge">
<title>Node10&#45;&gt;Node11</title>
<g id="a_edge14_Node000010_Node000011"><a xlink:title=" ">
<path fill="none" stroke="#63b8ff" d="M759.17,-184.74C907.72,-185.87 1231.64,-188.34 1385.12,-189.51"/>
<polygon fill="#63b8ff" stroke="#63b8ff" points="759.46,-181.24 749.43,-184.66 759.41,-188.24 759.46,-181.24"/>
</a>
</g>
</g>
<!-- Node11&#45;&gt;Node7 -->
<g id="edge15_Node000011_Node000007" class="edge">
<title>Node11&#45;&gt;Node7</title>
<g id="a_edge15_Node000011_Node000007"><a xlink:title=" ">
<path fill="none" stroke="#63b8ff" d="M1406.8,-210.7C1399.52,-213.63 1392.27,-216.8 1385.5,-220.15 1376.24,-224.72 1326.34,-257.44 1295.51,-277.81"/>
<polygon fill="#63b8ff" stroke="#63b8ff" points="1407.97,-214 1416.04,-207.13 1405.45,-207.47 1407.97,-214"/>
</a>
</g>
</g>
<!-- Node13 -->
<g id="Node000013" class="node">
<title>Node13</title>
<g id="a_Node000013"><a xlink:href="class_main_window.html#a872e6a76dcbf858ae9d483eceddf90e1" target="_top" xlink:title=" ">
<polygon fill="white" stroke="#666666" points="350,-92.15 196,-92.15 196,-60.15 350,-60.15 350,-92.15"/>
<text xml:space="preserve" text-anchor="start" x="204" y="-78.65" font-family="Helvetica,sans-Serif" font-size="10.00">MainWindow::createComboBox</text>
<text xml:space="preserve" text-anchor="middle" x="273" y="-66.65" font-family="Helvetica,sans-Serif" font-size="10.00">PropertyItem</text>
</a>
</g>
</g>
<!-- Node12&#45;&gt;Node13 -->
<g id="edge18_Node000012_Node000013" class="edge">
<title>Node12&#45;&gt;Node13</title>
<g id="a_edge18_Node000012_Node000013"><a xlink:title=" ">
<path fill="none" stroke="#63b8ff" d="M457.78,-583.11C438.37,-559.45 406.08,-517.19 386.75,-476.15 320.5,-335.48 285.89,-148.19 276.6,-92.45"/>
<polygon fill="#63b8ff" stroke="#63b8ff" points="454.94,-585.17 464.03,-590.61 460.31,-580.69 454.94,-585.17"/>
</a>
</g>
</g>
<!-- Node14 -->
<g id="Node000014" class="node">
<title>Node14</title>
<g id="a_Node000014"><a xlink:href="class_main_window.html#abae03a6494d13d74ed1b2e31ec1f2fc7" target="_top" xlink:title=" ">
<polygon fill="white" stroke="#666666" points="350.75,-681.15 195.25,-681.15 195.25,-649.15 350.75,-649.15 350.75,-681.15"/>
<text xml:space="preserve" text-anchor="start" x="203.25" y="-667.65" font-family="Helvetica,sans-Serif" font-size="10.00">MainWindow::createIconCombo</text>
<text xml:space="preserve" text-anchor="middle" x="273" y="-655.65" font-family="Helvetica,sans-Serif" font-size="10.00">BoxPropertyItem</text>
</a>
</g>
</g>
<!-- Node12&#45;&gt;Node14 -->
<g id="edge21_Node000012_Node000014" class="edge">
<title>Node12&#45;&gt;Node14</title>
<g id="a_edge21_Node000012_Node000014"><a xlink:title=" ">
<path fill="none" stroke="#63b8ff" d="M430.2,-615.94C399.59,-625.58 358.58,-638.5 326.26,-648.68"/>
<polygon fill="#63b8ff" stroke="#63b8ff" points="431.04,-619.35 439.53,-613 428.94,-612.67 431.04,-619.35"/>
</a>
</g>
</g>
<!-- Node13&#45;&gt;Node4 -->
<g id="edge19_Node000013_Node000004" class="edge">
<title>Node13&#45;&gt;Node4</title>
<g id="a_edge19_Node000013_Node000004"><a xlink:title=" ">
<path fill="none" stroke="#63b8ff" d="M338.02,-56.56C417.4,-34.04 557.23,-0.15 679.75,-0.15 1471,-0.15 1471,-0.15 1471,-0.15 1599.98,-0.15 1637.25,2.19 1758,-43.15 1792.67,-56.16 1827.86,-81.14 1849.03,-97.72"/>
<polygon fill="#63b8ff" stroke="#63b8ff" points="337.33,-53.11 328.68,-59.24 339.26,-59.84 337.33,-53.11"/>
</a>
</g>
</g>
<!-- Node13&#45;&gt;Node11 -->
<g id="edge20_Node000013_Node000011" class="edge">
<title>Node13&#45;&gt;Node11</title>
<g id="a_edge20_Node000013_Node000011"><a xlink:title=" ">
<path fill="none" stroke="#63b8ff" d="M361.48,-84.49C583.67,-105.69 1167.58,-161.39 1385.44,-182.17"/>
<polygon fill="#63b8ff" stroke="#63b8ff" points="362.01,-81.03 351.73,-83.56 361.35,-87.99 362.01,-81.03"/>
</a>
</g>
</g>
<!-- Node15 -->
<g id="Node000015" class="node">
<title>Node15</title>
<g id="a_Node000015"><a xlink:href="class_main_window.html#af02df1238ccf49caa1c4099c88dfe465" target="_top" xlink:title=" ">
<polygon fill="white" stroke="#666666" points="159.25,-723.15 0,-723.15 0,-691.15 159.25,-691.15 159.25,-723.15"/>
<text xml:space="preserve" text-anchor="start" x="8" y="-709.65" font-family="Helvetica,sans-Serif" font-size="10.00">MainWindow::populateProperties</text>
<text xml:space="preserve" text-anchor="middle" x="79.62" y="-697.65" font-family="Helvetica,sans-Serif" font-size="10.00">ForConnection</text>
</a>
</g>
</g>
<!-- Node14&#45;&gt;Node15 -->
<g id="edge22_Node000014_Node000015" class="edge">
<title>Node14&#45;&gt;Node15</title>
<g id="a_edge22_Node000014_Node000015"><a xlink:title=" ">
<path fill="none" stroke="#63b8ff" d="M185.96,-684.03C175.8,-686.26 165.49,-688.52 155.5,-690.71"/>
<polygon fill="#63b8ff" stroke="#63b8ff" points="186.42,-687.51 195.43,-681.95 184.92,-680.67 186.42,-687.51"/>
</a>
</g>
</g>
<!-- Node15&#45;&gt;Node8 -->
<g id="edge23_Node000015_Node000008" class="edge">
<title>Node15&#45;&gt;Node8</title>
<g id="a_edge23_Node000015_Node000008"><a xlink:title=" ">
<path fill="none" stroke="#63b8ff" d="M170.41,-722.59C249.95,-734.92 369.34,-750.15 474,-750.15 681.75,-750.15 681.75,-750.15 681.75,-750.15 818.07,-750.15 856.94,-717.27 966.5,-636.15 1013.18,-601.58 1051.37,-542.83 1068.16,-514.45"/>
<polygon fill="#63b8ff" stroke="#63b8ff" points="171.38,-719.2 160.96,-721.1 170.29,-726.11 171.38,-719.2"/>
</a>
</g>
</g>
<!-- Node17 -->
<g id="Node000017" class="node">
<title>Node17</title>
<g id="a_Node000017"><a xlink:href="class_main_window.html#ae3b6600dd59da1822ef94bbd5f37f0cc" target="_top" xlink:title=" ">
<polygon fill="white" stroke="#666666" points="545.25,-319.15 404.75,-319.15 404.75,-287.15 545.25,-287.15 545.25,-319.15"/>
<text xml:space="preserve" text-anchor="start" x="412.75" y="-305.65" font-family="Helvetica,sans-Serif" font-size="10.00">MainWindow::createLineEdit</text>
<text xml:space="preserve" text-anchor="middle" x="475" y="-293.65" font-family="Helvetica,sans-Serif" font-size="10.00">PropertyItem</text>
</a>
</g>
</g>
<!-- Node16&#45;&gt;Node17 -->
<g id="edge25_Node000016_Node000017" class="edge">
<title>Node16&#45;&gt;Node17</title>
<g id="a_edge25_Node000016_Node000017"><a xlink:title=" ">
<path fill="none" stroke="#63b8ff" d="M607.46,-445.46C604.63,-444.14 601.88,-442.71 599.25,-441.15 546.53,-409.77 503.87,-348.39 485.6,-319.25"/>
<polygon fill="#63b8ff" stroke="#63b8ff" points="606.01,-448.65 616.59,-449.16 608.64,-442.16 606.01,-448.65"/>
</a>
</g>
</g>
<!-- Node17&#45;&gt;Node11 -->
<g id="edge26_Node000017_Node000011" class="edge">
<title>Node17&#45;&gt;Node11</title>
<g id="a_edge26_Node000017_Node000011"><a xlink:title=" ">
<path fill="none" stroke="#63b8ff" d="M540.64,-283.63C620.08,-261.41 759.36,-228.15 881.38,-228.15 1079.38,-228.15 1079.38,-228.15 1079.38,-228.15 1185.23,-228.15 1306.5,-214.08 1385.25,-203.06"/>
<polygon fill="#63b8ff" stroke="#63b8ff" points="539.96,-280.18 531.29,-286.27 541.87,-286.92 539.96,-280.18"/>
</a>
</g>
</g>
<!-- Node18&#45;&gt;Node8 -->
<g id="edge30_Node000018_Node000008" class="edge">
<title>Node18&#45;&gt;Node8</title>
<g id="a_edge30_Node000018_Node000008"><a xlink:title=" ">
<path fill="none" stroke="#63b8ff" d="M742.53,-435.25C800.21,-448.89 889.32,-466.93 966.5,-483.15 978.06,-485.58 990.3,-488.18 1002.25,-490.64"/>
<polygon fill="#63b8ff" stroke="#63b8ff" points="743.44,-431.87 732.9,-432.94 741.8,-438.68 743.44,-431.87"/>
</a>
</g>
</g>
<!-- Node19 -->
<g id="Node000019" class="node">
<title>Node19</title>
<g id="a_Node000019"><a xlink:href="class_main_window.html#adfa32feecffce3959c99d145fc8b4854" target="_top" xlink:title=" ">
<polygon fill="white" stroke="#666666" points="547.5,-467.15 402.5,-467.15 402.5,-447.15 547.5,-447.15 547.5,-467.15"/>
<text xml:space="preserve" text-anchor="middle" x="475" y="-453.65" font-family="Helvetica,sans-Serif" font-size="10.00">MainWindow::connectSignals</text>
</a>
</g>
</g>
<!-- Node18&#45;&gt;Node19 -->
<g id="edge28_Node000018_Node000019" class="edge">
<title>Node18&#45;&gt;Node19</title>
<g id="a_edge28_Node000018_Node000019"><a xlink:title=" ">
<path fill="none" stroke="#63b8ff" d="M594.64,-433.27C572.04,-437.82 548.32,-442.59 528.08,-446.67"/>
<polygon fill="#63b8ff" stroke="#63b8ff" points="595.02,-436.77 604.13,-431.36 593.64,-429.9 595.02,-436.77"/>
</a>
</g>
</g>
<!-- Node20 -->
<g id="Node000020" class="node">
<title>Node20</title>
<g id="a_Node000020"><a xlink:href="class_main_window.html#a996c5a2b6f77944776856f08ec30858d" target="_top" xlink:title=" ">
<polygon fill="white" stroke="#666666" points="340.25,-467.15 205.75,-467.15 205.75,-447.15 340.25,-447.15 340.25,-467.15"/>
<text xml:space="preserve" text-anchor="middle" x="273" y="-453.65" font-family="Helvetica,sans-Serif" font-size="10.00">MainWindow::MainWindow</text>
</a>
</g>
</g>
<!-- Node19&#45;&gt;Node20 -->
<g id="edge29_Node000019_Node000020" class="edge">
<title>Node19&#45;&gt;Node20</title>
<g id="a_edge29_Node000019_Node000020"><a xlink:title=" ">
<path fill="none" stroke="#63b8ff" d="M390.65,-457.15C373.97,-457.15 356.65,-457.15 340.62,-457.15"/>
<polygon fill="#63b8ff" stroke="#63b8ff" points="390.56,-460.65 400.56,-457.15 390.56,-453.65 390.56,-460.65"/>
</a>
</g>
</g>
<!-- Node21&#45;&gt;Node10 -->
<g id="edge32_Node000021_Node000010" class="edge">
<title>Node21&#45;&gt;Node10</title>
<g id="a_edge32_Node000021_Node000010"><a xlink:title=" ">
<path fill="none" stroke="#63b8ff" d="M833.8,-251.17C798.62,-235.67 751.4,-214.85 718.97,-200.55"/>
<polygon fill="#63b8ff" stroke="#63b8ff" points="832.35,-254.36 842.91,-255.19 835.17,-247.95 832.35,-254.36"/>
</a>
</g>
</g>
<!-- Node22&#45;&gt;Node19 -->
<g id="edge34_Node000022_Node000019" class="edge">
<title>Node22&#45;&gt;Node19</title>
<g id="a_edge34_Node000022_Node000019"><a xlink:title=" ">
<path fill="none" stroke="#63b8ff" d="M816.7,-523.54C737.22,-508.05 603.83,-482.06 529.73,-467.62"/>
<polygon fill="#63b8ff" stroke="#63b8ff" points="815.57,-526.89 826.06,-525.37 816.91,-520.02 815.57,-526.89"/>
</a>
</g>
</g>
<!-- Node23&#45;&gt;Node1 -->
<g id="edge36_Node000023_Node000001" class="edge">
<title>Node23&#45;&gt;Node1</title>
<g id="a_edge36_Node000023_Node000001"><a xlink:title=" ">
<path fill="none" stroke="#63b8ff" d="M960.74,-594.21C1038.37,-607.08 1161.49,-624.15 1268.88,-624.15 2058.25,-624.15 2058.25,-624.15 2058.25,-624.15 2170.37,-624.15 2299.74,-608.46 2377.9,-597.24"/>
<polygon fill="#63b8ff" stroke="#63b8ff" points="961.56,-590.8 951.12,-592.59 960.4,-597.7 961.56,-590.8"/>
</a>
</g>
</g>
<!-- Node23&#45;&gt;Node2 -->
<g id="edge41_Node000023_Node000002" class="edge">
<title>Node23&#45;&gt;Node2</title>
<g id="a_edge41_Node000023_Node000002"><a xlink:title=" ">
<path fill="none" stroke="#63b8ff" d="M960.88,-569.92C1038.61,-560.55 1161.82,-548.15 1268.88,-548.15 1870.88,-548.15 1870.88,-548.15 1870.88,-548.15 1973.11,-548.15 2090.67,-548.15 2168.42,-548.15"/>
<polygon fill="#63b8ff" stroke="#63b8ff" points="960.75,-566.41 951.25,-571.09 961.6,-573.35 960.75,-566.41"/>
</a>
</g>
</g>
<!-- Node23&#45;&gt;Node12 -->
<g id="edge42_Node000023_Node000012" class="edge">
<title>Node23&#45;&gt;Node12</title>
<g id="a_edge42_Node000023_Node000012"><a xlink:title=" ">
<path fill="none" stroke="#63b8ff" d="M804.27,-561.54C790.36,-558.88 775.93,-556.57 762.25,-555.15 690.19,-547.67 670.5,-542.02 599.25,-555.15 561.41,-562.12 520.16,-580.18 496.27,-591.77"/>
<polygon fill="#63b8ff" stroke="#63b8ff" points="803.31,-564.92 813.8,-563.45 804.68,-558.06 803.31,-564.92"/>
</a>
</g>
</g>
<!-- Node23&#45;&gt;Node16 -->
<g id="edge43_Node000023_Node000016" class="edge">
<title>Node23&#45;&gt;Node16</title>
<g id="a_edge43_Node000023_Node000016"><a xlink:title=" ">
<path fill="none" stroke="#63b8ff" d="M805.88,-559.14C803.27,-557.88 800.71,-556.55 798.25,-555.15 779.38,-544.42 778.86,-536.11 762.25,-522.15 739.7,-503.19 712.31,-482.58 696,-470.54"/>
<polygon fill="#63b8ff" stroke="#63b8ff" points="804.25,-562.25 814.81,-563.07 807.07,-555.84 804.25,-562.25"/>
</a>
</g>
</g>
<!-- Node23&#45;&gt;Node18 -->
<g id="edge44_Node000023_Node000018" class="edge">
<title>Node23&#45;&gt;Node18</title>
<g id="a_edge44_Node000023_Node000018"><a xlink:title=" ">
<path fill="none" stroke="#63b8ff" d="M805.47,-561.2C802.91,-559.36 800.49,-557.35 798.25,-555.15 760.42,-517.83 799.91,-478.63 762.25,-441.15 758.93,-437.84 755.18,-434.97 751.17,-432.48"/>
<polygon fill="#63b8ff" stroke="#63b8ff" points="803.63,-564.17 814,-566.32 807.23,-558.17 803.63,-564.17"/>
</a>
</g>
</g>
<!-- Node24 -->
<g id="Node000024" class="node">
<title>Node24</title>
<g id="a_Node000024"><a xlink:href="class_main_window.html#aa69c4b7c558b2fb3922adf75af48330a" target="_top" xlink:title=" ">
<polygon fill="white" stroke="#666666" points="761.12,-596.15 600.38,-596.15 600.38,-564.15 761.12,-564.15 761.12,-596.15"/>
<text xml:space="preserve" text-anchor="start" x="608.38" y="-582.65" font-family="Helvetica,sans-Serif" font-size="10.00">MainWindow::handleRelationship</text>
<text xml:space="preserve" text-anchor="middle" x="680.75" y="-570.65" font-family="Helvetica,sans-Serif" font-size="10.00">EndCardinalityChange</text>
</a>
</g>
</g>
<!-- Node23&#45;&gt;Node24 -->
<g id="edge37_Node000023_Node000024" class="edge">
<title>Node23&#45;&gt;Node24</title>
<g id="a_edge37_Node000023_Node000024"><a xlink:title=" ">
<path fill="none" stroke="#63b8ff" d="M803.67,-580.15C789.76,-580.15 775.25,-580.15 761.3,-580.15"/>
<polygon fill="#63b8ff" stroke="#63b8ff" points="803.67,-583.65 813.67,-580.15 803.67,-576.65 803.67,-583.65"/>
</a>
</g>
</g>
<!-- Node25 -->
<g id="Node000025" class="node">
<title>Node25</title>
<g id="a_Node000025"><a xlink:href="class_main_window.html#a96d575a529f7c24b1b5094b4b1e42742" target="_top" xlink:title=" ">
<polygon fill="white" stroke="#666666" points="761.12,-684.15 600.38,-684.15 600.38,-652.15 761.12,-652.15 761.12,-684.15"/>
<text xml:space="preserve" text-anchor="start" x="608.38" y="-670.65" font-family="Helvetica,sans-Serif" font-size="10.00">MainWindow::handleRelationship</text>
<text xml:space="preserve" text-anchor="middle" x="680.75" y="-658.65" font-family="Helvetica,sans-Serif" font-size="10.00">EndParticipationChange</text>
</a>
</g>
</g>
<!-- Node23&#45;&gt;Node25 -->
<g id="edge39_Node000023_Node000025" class="edge">
<title>Node23&#45;&gt;Node25</title>
<g id="a_edge39_Node000023_Node000025"><a xlink:title=" ">
<path fill="none" stroke="#63b8ff" d="M833.8,-601.12C798.62,-616.62 751.4,-637.44 718.97,-651.74"/>
<polygon fill="#63b8ff" stroke="#63b8ff" points="835.17,-604.34 842.91,-597.1 832.35,-597.93 835.17,-604.34"/>
</a>
</g>
</g>
<!-- Node24&#45;&gt;Node12 -->
<g id="edge38_Node000024_Node000012" class="edge">
<title>Node24&#45;&gt;Node12</title>
<g id="a_edge38_Node000024_Node000012"><a xlink:title=" ">
<path fill="none" stroke="#63b8ff" d="M588.8,-589.97C580.45,-590.87 572.01,-591.78 563.69,-592.68"/>
<polygon fill="#63b8ff" stroke="#63b8ff" points="589.03,-593.46 598.59,-588.91 588.28,-586.5 589.03,-593.46"/>
</a>
</g>
</g>
<!-- Node25&#45;&gt;Node2 -->
<g id="edge40_Node000025_Node000002" class="edge">
<title>Node25&#45;&gt;Node2</title>
<g id="a_edge40_Node000025_Node000002"><a xlink:title=" ">
<path fill="none" stroke="#63b8ff" d="M772.87,-658.67C983.41,-637.09 1498.98,-586.15 1673.25,-586.15 1870.88,-586.15 1870.88,-586.15 1870.88,-586.15 1982.98,-586.15 2112.62,-569.88 2188.85,-558.63"/>
<polygon fill="#63b8ff" stroke="#63b8ff" points="772.65,-655.17 763.06,-659.68 773.37,-662.14 772.65,-655.17"/>
</a>
</g>
</g>
</g>
</svg>

<g id="navigator" transform="translate(0 0)" fill="#404254">
  <rect fill="#f2f5e9" fill-opacity="0.5" stroke="#606060" stroke-width=".5" x="0" y="0" width="60" height="60"/>
  <use id="zoomplus" xlink:href="#zoomPlus" x="17" y="9" onmousedown="handleZoom(evt,'in')"/>
  <use id="zoomminus" xlink:href="#zoomMin" x="42" y="9" onmousedown="handleZoom(evt,'out')"/>
  <use id="reset" xlink:href="#resetDef" x="30" y="36" onmousedown="handleReset()"/>
   <use id="arrowup" xlink:href="#arrowUp" x="0" y="0" onmousedown="handlePan(0,-1)"/>
  <use id="arrowright" xlink:href="#arrowRight" x="0" y="0" onmousedown="handlePan(1,0)"/>
  <use id="arrowdown" xlink:href="#arrowDown" x="0" y="0" onmousedown="handlePan(0,1)"/>
  <use id="arrowleft" xlink:href="#arrowLeft" x="0" y="0" onmousedown="handlePan(-1,0)"/>
</g>
<svg viewBox="0 0 15 15" width="100%" height="30px" preserveAspectRatio="xMaxYMin meet">
 <g id="arrow_out" transform="scale(0.3 0.3)">
  <a xlink:href="class_main_window_a9ed390421f6755b891cfc651d173db7b_icgraph_org.svg" target="_base">
   <rect id="button" ry="5" rx="5" y="6" x="6" height="38" width="38"
        fill="#f2f5e9" fill-opacity="0.5" stroke="#606060" stroke-width="1.0"/>
   <path id="arrow"
     d="M 11.500037,31.436501 C 11.940474,20.09759 22.043105,11.32322 32.158766,21.979434 L 37.068811,17.246167 C 37.068811,17.246167 37.088388,32 37.088388,32 L 22.160133,31.978069 C 22.160133,31.978069 26.997745,27.140456 26.997745,27.140456 C 18.528582,18.264221 13.291696,25.230495 11.500037,31.436501 z"
     style="fill:#404040;"/>
  </a>
 </g>
</svg>

<style type='text/css'>
<![CDATA[
[data-mouse-over-selected='false'] { opacity: 0.7; }
[data-mouse-over-selected='true']  { opacity: 1.0; }
]]>
</style>
<script type="application/ecmascript"><![CDATA[
document.addEventListener('DOMContentLoaded', (event) => {
  highlightEdges();
  highlightAdjacentNodes();
});
]]></script>
</svg>
