<?xml version="1.0" encoding="UTF-8" standalone="no"?>
<!DOCTYPE svg PUBLIC "-//W3C//DTD SVG 1.1//EN"
 "http://www.w3.org/Graphics/SVG/1.1/DTD/svg11.dtd">
<!-- Generated by graphviz version 14.1.1 (20251213.1925)
 -->
<!-- Title: MainWindow::onSelectionChanged Pages: 1 -->
<svg width="528pt" height="28pt"
 viewBox="0.00 0.00 528.00 28.00" xmlns="http://www.w3.org/2000/svg" xmlns:xlink="http://www.w3.org/1999/xlink">
<g id="graph0" class="graph" transform="scale(1 1) rotate(0) translate(4 24)">
<title>MainWindow::onSelectionChanged</title>
<!-- Node1 -->
<g id="Node000001" class="node">
<title>Node1</title>
<g id="a_Node000001"><a xlink:title=" ">
<polygon fill="#999999" stroke="#666666" points="519.75,-20 351.5,-20 351.5,0 519.75,0 519.75,-20"/>
<text xml:space="preserve" text-anchor="middle" x="435.62" y="-6.5" font-family="Helvetica,sans-Serif" font-size="10.00">MainWindow::onSelectionChanged</text>
</a>
</g>
</g>
<!-- Node2 -->
<g id="Node000002" class="node">
<title>Node2</title>
<g id="a_Node000002"><a xlink:href="class_main_window.html#adfa32feecffce3959c99d145fc8b4854" target="_top" xlink:title=" ">
<polygon fill="white" stroke="#666666" points="315.5,-20 170.5,-20 170.5,0 315.5,0 315.5,-20"/>
<text xml:space="preserve" text-anchor="middle" x="243" y="-6.5" font-family="Helvetica,sans-Serif" font-size="10.00">MainWindow::connectSignals</text>
</a>
</g>
</g>
<!-- Node1&#45;&gt;Node2 -->
<g id="edge1_Node000001_Node000002" class="edge">
<title>Node1&#45;&gt;Node2</title>
<g id="a_edge1_Node000001_Node000002"><a xlink:title=" ">
<path fill="none" stroke="#63b8ff" d="M339.72,-10C331.71,-10 323.7,-10 315.9,-10"/>
<polygon fill="#63b8ff" stroke="#63b8ff" points="339.5,-13.5 349.5,-10 339.5,-6.5 339.5,-13.5"/>
</a>
</g>
</g>
<!-- Node3 -->
<g id="Node000003" class="node">
<title>Node3</title>
<g id="a_Node000003"><a xlink:href="class_main_window.html#a996c5a2b6f77944776856f08ec30858d" target="_top" xlink:title=" ">
<polygon fill="white" stroke="#666666" points="134.5,-20 0,-20 0,0 134.5,0 134.5,-20"/>
<text xml:space="preserve" text-anchor="middle" x="67.25" y="-6.5" font-family="Helvetica,sans-Serif" font-size="10.00">MainWindow::MainWindow</text>
</a>
</g>
</g>
<!-- Node2&#45;&gt;Node3 -->
<g id="edge2_Node000002_Node000003" class="edge">
<title>Node2&#45;&gt;Node3</title>
<g id="a_edge2_Node000002_Node000003"><a xlink:title=" ">
<path fill="none" stroke="#63b8ff" d="M158.78,-10C150.74,-10 142.67,-10 134.83,-10"/>
<polygon fill="#63b8ff" stroke="#63b8ff" points="158.56,-13.5 168.56,-10 158.56,-6.5 158.56,-13.5"/>
</a>
</g>
</g>
</g>
</svg>
