<?xml version="1.0" encoding="UTF-8" standalone="no"?>
<!DOCTYPE svg PUBLIC "-//W3C//DTD SVG 1.1//EN"
 "http://www.w3.org/Graphics/SVG/1.1/DTD/svg11.dtd">
<!-- Generated by graphviz version 14.1.1 (20251213.1925)
 -->
<!-- Title: MainWindow::createDiagramArea Pages: 1 -->
<svg width="746pt" height="144pt"
 viewBox="0.00 0.00 746.00 144.00" xmlns="http://www.w3.org/2000/svg" xmlns:xlink="http://www.w3.org/1999/xlink">
<g id="graph0" class="graph" transform="scale(1 1) rotate(0) translate(4 140)">
<title>MainWindow::createDiagramArea</title>
<!-- Node1 -->
<g id="Node000001" class="node">
<title>Node1</title>
<g id="a_Node000001"><a xlink:title=" ">
<polygon fill="#999999" stroke="#666666" points="162.25,-89 0,-89 0,-69 162.25,-69 162.25,-89"/>
<text xml:space="preserve" text-anchor="middle" x="81.12" y="-75.5" font-family="Helvetica,sans-Serif" font-size="10.00">MainWindow::createDiagramArea</text>
</a>
</g>
</g>
<!-- Node2 -->
<g id="Node000002" class="node">
<title>Node2</title>
<g id="a_Node000002"><a xlink:href="class_diagram_view.html#aff439ca64e209a13a5ca84de4307deb4" target="_top" xlink:title=" ">
<polygon fill="white" stroke="#666666" points="354.88,-108 203.12,-108 203.12,-88 354.88,-88 354.88,-108"/>
<text xml:space="preserve" text-anchor="middle" x="279" y="-94.5" font-family="Helvetica,sans-Serif" font-size="10.00">DiagramView::elementDropped</text>
</a>
</g>
</g>
<!-- Node1&#45;&gt;Node2 -->
<g id="edge1_Node000001_Node000002" class="edge">
<title>Node1&#45;&gt;Node2</title>
<g id="a_edge1_Node000001_Node000002"><a xlink:title=" ">
<path fill="none" stroke="#63b8ff" d="M162.64,-86.81C172.2,-87.74 181.98,-88.69 191.62,-89.62"/>
<polygon fill="#63b8ff" stroke="#63b8ff" points="191.04,-93.08 201.33,-90.56 191.71,-86.11 191.04,-93.08"/>
</a>
</g>
</g>
<!-- Node3 -->
<g id="Node000003" class="node">
<title>Node3</title>
<g id="a_Node000003"><a xlink:href="class_main_window.html#a880a071072561df84782f84e0321da4e" target="_top" xlink:title=" ">
<polygon fill="white" stroke="#666666" points="359.75,-70 198.25,-70 198.25,-50 359.75,-50 359.75,-70"/>
<text xml:space="preserve" text-anchor="middle" x="279" y="-56.5" font-family="Helvetica,sans-Serif" font-size="10.00">MainWindow::onElementDropped</text>
</a>
</g>
</g>
<!-- Node1&#45;&gt;Node3 -->
<g id="edge2_Node000001_Node000003" class="edge">
<title>Node1&#45;&gt;Node3</title>
<g id="a_edge2_Node000001_Node000003"><a xlink:title=" ">
<path fill="none" stroke="#63b8ff" d="M162.64,-71.19C170.53,-70.42 178.58,-69.64 186.56,-68.87"/>
<polygon fill="#63b8ff" stroke="#63b8ff" points="186.67,-72.38 196.29,-67.93 186,-65.41 186.67,-72.38"/>
</a>
</g>
</g>
<!-- Node4 -->
<g id="Node000004" class="node">
<title>Node4</title>
<g id="a_Node000004"><a xlink:href="class_basic_element.html#ab14524060d1b8fbbba753207029c6d7d" target="_top" xlink:title=" ">
<polygon fill="white" stroke="#666666" points="537,-108 405.5,-108 405.5,-88 537,-88 537,-108"/>
<text xml:space="preserve" text-anchor="middle" x="471.25" y="-94.5" font-family="Helvetica,sans-Serif" font-size="10.00">BasicElement::setPosition</text>
</a>
</g>
</g>
<!-- Node3&#45;&gt;Node4 -->
<g id="edge3_Node000003_Node000004" class="edge">
<title>Node3&#45;&gt;Node4</title>
<g id="a_edge3_Node000003_Node000004"><a xlink:title=" ">
<path fill="none" stroke="#63b8ff" d="M332.49,-70.48C355.47,-75.07 382.63,-80.5 406.74,-85.31"/>
<polygon fill="#63b8ff" stroke="#63b8ff" points="405.95,-88.73 416.45,-87.25 407.33,-81.86 405.95,-88.73"/>
</a>
</g>
</g>
<!-- Node7 -->
<g id="Node000007" class="node">
<title>Node7</title>
<g id="a_Node000007"><a xlink:href="class_main_window.html#a51ab21a1be4a1389a00bdb35feee8d64" target="_top" xlink:title=" ">
<polygon fill="white" stroke="#666666" points="546.75,-70 395.75,-70 395.75,-50 546.75,-50 546.75,-70"/>
<text xml:space="preserve" text-anchor="middle" x="471.25" y="-56.5" font-family="Helvetica,sans-Serif" font-size="10.00">MainWindow::updateStatusBar</text>
</a>
</g>
</g>
<!-- Node3&#45;&gt;Node7 -->
<g id="edge6_Node000003_Node000007" class="edge">
<title>Node3&#45;&gt;Node7</title>
<g id="a_edge6_Node000003_Node000007"><a xlink:title=" ">
<path fill="none" stroke="#63b8ff" d="M360.13,-60C367.98,-60 375.96,-60 383.87,-60"/>
<polygon fill="#63b8ff" stroke="#63b8ff" points="383.85,-63.5 393.85,-60 383.85,-56.5 383.85,-63.5"/>
</a>
</g>
</g>
<!-- Node8 -->
<g id="Node000008" class="node">
<title>Node8</title>
<g id="a_Node000008"><a xlink:href="class_main_window.html#a90cfbcf2e0f2549760a60f184ee0acbf" target="_top" xlink:title=" ">
<polygon fill="white" stroke="#666666" points="542.62,-32 399.88,-32 399.88,0 542.62,0 542.62,-32"/>
<text xml:space="preserve" text-anchor="start" x="407.88" y="-18.5" font-family="Helvetica,sans-Serif" font-size="10.00">MainWindow::updateWindow</text>
<text xml:space="preserve" text-anchor="middle" x="471.25" y="-6.5" font-family="Helvetica,sans-Serif" font-size="10.00">Title</text>
</a>
</g>
</g>
<!-- Node3&#45;&gt;Node8 -->
<g id="edge7_Node000003_Node000008" class="edge">
<title>Node3&#45;&gt;Node8</title>
<g id="a_edge7_Node000003_Node000008"><a xlink:title=" ">
<path fill="none" stroke="#63b8ff" d="M325.09,-49.57C344.07,-45.18 366.78,-39.93 388.53,-34.9"/>
<polygon fill="#63b8ff" stroke="#63b8ff" points="389.03,-38.38 397.98,-32.71 387.45,-31.56 389.03,-38.38"/>
</a>
</g>
</g>
<!-- Node5 -->
<g id="Node000005" class="node">
<title>Node5</title>
<g id="a_Node000005"><a xlink:href="class_basic_element.html#a84f8dd62eabbe3dded6bacf42a783856" target="_top" xlink:title=" ">
<polygon fill="white" stroke="#666666" points="731.5,-136 589.5,-136 589.5,-104 731.5,-104 731.5,-136"/>
<text xml:space="preserve" text-anchor="start" x="597.5" y="-122.5" font-family="Helvetica,sans-Serif" font-size="10.00">BasicElement::notifyPosition</text>
<text xml:space="preserve" text-anchor="middle" x="660.5" y="-110.5" font-family="Helvetica,sans-Serif" font-size="10.00">Changed</text>
</a>
</g>
</g>
<!-- Node4&#45;&gt;Node5 -->
<g id="edge4_Node000004_Node000005" class="edge">
<title>Node4&#45;&gt;Node5</title>
<g id="a_edge4_Node000004_Node000005"><a xlink:title=" ">
<path fill="none" stroke="#63b8ff" d="M537.48,-105.66C550.51,-107.19 564.35,-108.82 577.85,-110.41"/>
<polygon fill="#63b8ff" stroke="#63b8ff" points="577.24,-113.86 587.58,-111.55 578.06,-106.91 577.24,-113.86"/>
</a>
</g>
</g>
<!-- Node6 -->
<g id="Node000006" class="node">
<title>Node6</title>
<g id="a_Node000006"><a xlink:href="class_basic_element.html#a02183bafd7c80f9f1f99a9b9f1631524" target="_top" xlink:title=" ">
<polygon fill="white" stroke="#666666" points="738.25,-86 582.75,-86 582.75,-66 738.25,-66 738.25,-86"/>
<text xml:space="preserve" text-anchor="middle" x="660.5" y="-72.5" font-family="Helvetica,sans-Serif" font-size="10.00">BasicElement::positionChanged</text>
</a>
</g>
</g>
<!-- Node4&#45;&gt;Node6 -->
<g id="edge5_Node000004_Node000006" class="edge">
<title>Node4&#45;&gt;Node6</title>
<g id="a_edge5_Node000004_Node000006"><a xlink:title=" ">
<path fill="none" stroke="#63b8ff" d="M537.48,-90.34C548.32,-89.06 559.73,-87.72 571.04,-86.39"/>
<polygon fill="#63b8ff" stroke="#63b8ff" points="571.26,-89.89 580.78,-85.25 570.44,-82.94 571.26,-89.89"/>
</a>
</g>
</g>
</g>
</svg>
