<?xml version="1.0" encoding="UTF-8" standalone="no"?>
<!DOCTYPE svg PUBLIC "-//W3C//DTD SVG 1.1//EN"
 "http://www.w3.org/Graphics/SVG/1.1/DTD/svg11.dtd">
<!-- Generated by graphviz version 14.1.1 (20251213.1925)
 -->
<!-- Title: DiagramScene::elementSelected Pages: 1 -->
<svg width="963pt" height="232pt"
 viewBox="0.00 0.00 963.00 232.00" xmlns="http://www.w3.org/2000/svg" xmlns:xlink="http://www.w3.org/1999/xlink">
<g id="graph0" class="graph" transform="scale(1 1) rotate(0) translate(4 228)">
<title>DiagramScene::elementSelected</title>
<!-- Node1 -->
<g id="Node000001" class="node">
<title>Node1</title>
<g id="a_Node000001"><a xlink:title=" ">
<polygon fill="#999999" stroke="#666666" points="954.5,-196 795.25,-196 795.25,-176 954.5,-176 954.5,-196"/>
<text xml:space="preserve" text-anchor="middle" x="874.88" y="-182.5" font-family="Helvetica,sans-Serif" font-size="10.00">DiagramScene::elementSelected</text>
</a>
</g>
</g>
<!-- Node2 -->
<g id="Node000002" class="node">
<title>Node2</title>
<g id="a_Node000002"><a xlink:href="class_diagram_scene.html#a530f6e2b54bdff761f3f478120187201" target="_top" xlink:title=" ">
<polygon fill="white" stroke="#666666" points="746.88,-224 622.88,-224 622.88,-204 746.88,-204 746.88,-224"/>
<text xml:space="preserve" text-anchor="middle" x="684.88" y="-210.5" font-family="Helvetica,sans-Serif" font-size="10.00">DiagramScene::selectAll</text>
</a>
</g>
</g>
<!-- Node1&#45;&gt;Node2 -->
<g id="edge1_Node000001_Node000002" class="edge">
<title>Node1&#45;&gt;Node2</title>
<g id="a_edge1_Node000001_Node000002"><a xlink:title=" ">
<path fill="none" stroke="#63b8ff" d="M792.6,-198.11C777.34,-200.38 761.63,-202.72 747.11,-204.88"/>
<polygon fill="#63b8ff" stroke="#63b8ff" points="792.73,-201.62 802.11,-196.69 791.7,-194.7 792.73,-201.62"/>
</a>
</g>
</g>
<!-- Node4 -->
<g id="Node000004" class="node">
<title>Node4</title>
<g id="a_Node000004"><a xlink:href="class_diagram_scene.html#aa7d8cdf9568c51ab910df9d5630093b7" target="_top" xlink:title=" ">
<polygon fill="white" stroke="#666666" points="759.25,-177 610.5,-177 610.5,-157 759.25,-157 759.25,-177"/>
<text xml:space="preserve" text-anchor="middle" x="684.88" y="-163.5" font-family="Helvetica,sans-Serif" font-size="10.00">DiagramScene::selectElement</text>
</a>
</g>
</g>
<!-- Node1&#45;&gt;Node4 -->
<g id="edge3_Node000001_Node000004" class="edge">
<title>Node1&#45;&gt;Node4</title>
<g id="a_edge3_Node000001_Node000004"><a xlink:title=" ">
<path fill="none" stroke="#63b8ff" d="M783.59,-176.88C775.51,-176.06 767.4,-175.24 759.48,-174.44"/>
<polygon fill="#63b8ff" stroke="#63b8ff" points="783.16,-180.35 793.46,-177.87 783.86,-173.38 783.16,-180.35"/>
</a>
</g>
</g>
<!-- Node3 -->
<g id="Node000003" class="node">
<title>Node3</title>
<g id="a_Node000003"><a xlink:href="class_diagram_scene.html#a074e1181353b257a18ea2d243b459a47" target="_top" xlink:title=" ">
<polygon fill="white" stroke="#666666" points="155.12,-196 1.88,-196 1.88,-176 155.12,-176 155.12,-196"/>
<text xml:space="preserve" text-anchor="middle" x="78.5" y="-182.5" font-family="Helvetica,sans-Serif" font-size="10.00">DiagramScene::keyPressEvent</text>
</a>
</g>
</g>
<!-- Node2&#45;&gt;Node3 -->
<g id="edge2_Node000002_Node000003" class="edge">
<title>Node2&#45;&gt;Node3</title>
<g id="a_edge2_Node000002_Node000003"><a xlink:title=" ">
<path fill="none" stroke="#63b8ff" d="M611.18,-216.01C515.2,-217.89 341.03,-218.67 193,-205 173.01,-203.15 151.22,-199.83 132.13,-196.47"/>
<polygon fill="#63b8ff" stroke="#63b8ff" points="611.05,-219.51 620.98,-215.8 610.91,-212.51 611.05,-219.51"/>
</a>
</g>
</g>
<!-- Node5 -->
<g id="Node000005" class="node">
<title>Node5</title>
<g id="a_Node000005"><a xlink:href="class_diagram_scene.html#add93af6ff55d3453051b8c057cd4bdcb" target="_top" xlink:title=" ">
<polygon fill="white" stroke="#666666" points="562.88,-158 414.88,-158 414.88,-138 562.88,-138 562.88,-158"/>
<text xml:space="preserve" text-anchor="middle" x="488.88" y="-144.5" font-family="Helvetica,sans-Serif" font-size="10.00">DiagramScene::clearSelection</text>
</a>
</g>
</g>
<!-- Node4&#45;&gt;Node5 -->
<g id="edge4_Node000004_Node000005" class="edge">
<title>Node4&#45;&gt;Node5</title>
<g id="a_edge4_Node000004_Node000005"><a xlink:title=" ">
<path fill="none" stroke="#63b8ff" d="M598.92,-158.68C586.99,-157.51 574.81,-156.32 563.12,-155.17"/>
<polygon fill="#63b8ff" stroke="#63b8ff" points="598.46,-162.15 608.75,-159.64 599.14,-155.18 598.46,-162.15"/>
</a>
</g>
</g>
<!-- Node9 -->
<g id="Node000009" class="node">
<title>Node9</title>
<g id="a_Node000009"><a xlink:href="class_diagram_scene.html#a61e7061e5add947d09ad87feaf2b8dc1" target="_top" xlink:title=" ">
<polygon fill="white" stroke="#666666" points="367.25,-196 193,-196 193,-176 367.25,-176 367.25,-196"/>
<text xml:space="preserve" text-anchor="middle" x="280.12" y="-182.5" font-family="Helvetica,sans-Serif" font-size="10.00">DiagramScene::pasteFromClipboard</text>
</a>
</g>
</g>
<!-- Node4&#45;&gt;Node9 -->
<g id="edge13_Node000004_Node000009" class="edge">
<title>Node4&#45;&gt;Node9</title>
<g id="a_edge13_Node000004_Node000009"><a xlink:title=" ">
<path fill="none" stroke="#63b8ff" d="M598.9,-171.01C530.87,-174.22 435.85,-178.7 367.47,-181.93"/>
<polygon fill="#63b8ff" stroke="#63b8ff" points="598.67,-174.52 608.49,-170.56 598.34,-167.53 598.67,-174.52"/>
</a>
</g>
</g>
<!-- Node10 -->
<g id="Node000010" class="node">
<title>Node10</title>
<g id="a_Node000010"><a xlink:href="class_diagram_scene.html#ad46a8dc374895fd670f50f30f2c2acbd" target="_top" xlink:title=" ">
<polygon fill="white" stroke="#666666" points="574.5,-73 403.25,-73 403.25,-53 574.5,-53 574.5,-73"/>
<text xml:space="preserve" text-anchor="middle" x="488.88" y="-59.5" font-family="Helvetica,sans-Serif" font-size="10.00">DiagramScene::finishSelectionRect</text>
</a>
</g>
</g>
<!-- Node4&#45;&gt;Node10 -->
<g id="edge11_Node000004_Node000010" class="edge">
<title>Node4&#45;&gt;Node10</title>
<g id="a_edge11_Node000004_Node000010"><a xlink:title=" ">
<path fill="none" stroke="#63b8ff" d="M654.6,-151.31C614.51,-129.81 543.59,-91.8 509.4,-73.46"/>
<polygon fill="#63b8ff" stroke="#63b8ff" points="652.76,-154.29 663.23,-155.93 656.07,-148.12 652.76,-154.29"/>
</a>
</g>
</g>
<!-- Node5&#45;&gt;Node3 -->
<g id="edge7_Node000005_Node000003" class="edge">
<title>Node5&#45;&gt;Node3</title>
<g id="a_edge7_Node000005_Node000003"><a xlink:title=" ">
<path fill="none" stroke="#63b8ff" d="M403.23,-151.17C344.18,-153.94 263.62,-158.84 193,-167 174.05,-169.19 153.44,-172.39 135.05,-175.54"/>
<polygon fill="#63b8ff" stroke="#63b8ff" points="403.03,-154.69 412.86,-150.73 402.71,-147.69 403.03,-154.69"/>
</a>
</g>
</g>
<!-- Node6 -->
<g id="Node000006" class="node">
<title>Node6</title>
<g id="a_Node000006"><a xlink:href="class_diagram_scene.html#a0c02f289dea7872eae24bb2c0f91d5ea" target="_top" xlink:title=" ">
<polygon fill="white" stroke="#666666" points="352.25,-120 208,-120 208,-100 352.25,-100 352.25,-120"/>
<text xml:space="preserve" text-anchor="middle" x="280.12" y="-106.5" font-family="Helvetica,sans-Serif" font-size="10.00">DiagramScene::clearDiagram</text>
</a>
</g>
</g>
<!-- Node5&#45;&gt;Node6 -->
<g id="edge5_Node000005_Node000006" class="edge">
<title>Node5&#45;&gt;Node6</title>
<g id="a_edge5_Node000005_Node000006"><a xlink:title=" ">
<path fill="none" stroke="#63b8ff" d="M419.72,-135.47C393.25,-130.61 363.27,-125.1 337.98,-120.45"/>
<polygon fill="#63b8ff" stroke="#63b8ff" points="418.88,-138.88 429.34,-137.24 420.14,-131.99 418.88,-138.88"/>
</a>
</g>
</g>
<!-- Node8 -->
<g id="Node000008" class="node">
<title>Node8</title>
<g id="a_Node000008"><a xlink:href="class_diagram_scene.html#a6847af7972303267f22e84ae1011c255" target="_top" xlink:title=" ">
<polygon fill="white" stroke="#666666" points="350.75,-82 209.5,-82 209.5,-50 350.75,-50 350.75,-82"/>
<text xml:space="preserve" text-anchor="start" x="217.5" y="-68.5" font-family="Helvetica,sans-Serif" font-size="10.00">DiagramScene::mousePress</text>
<text xml:space="preserve" text-anchor="middle" x="280.12" y="-56.5" font-family="Helvetica,sans-Serif" font-size="10.00">Event</text>
</a>
</g>
</g>
<!-- Node5&#45;&gt;Node8 -->
<g id="edge8_Node000005_Node000008" class="edge">
<title>Node5&#45;&gt;Node8</title>
<g id="a_edge8_Node000005_Node000008"><a xlink:title=" ">
<path fill="none" stroke="#63b8ff" d="M458.32,-132.41C434.24,-120.11 399.14,-103.07 367.25,-91 359.24,-87.97 350.7,-85.08 342.22,-82.43"/>
<polygon fill="#63b8ff" stroke="#63b8ff" points="456.4,-135.36 466.89,-136.83 459.61,-129.14 456.4,-135.36"/>
</a>
</g>
</g>
<!-- Node5&#45;&gt;Node9 -->
<g id="edge9_Node000005_Node000009" class="edge">
<title>Node5&#45;&gt;Node9</title>
<g id="a_edge9_Node000005_Node000009"><a xlink:title=" ">
<path fill="none" stroke="#63b8ff" d="M419.72,-160.53C393.25,-165.39 363.27,-170.9 337.98,-175.55"/>
<polygon fill="#63b8ff" stroke="#63b8ff" points="420.14,-164.01 429.34,-158.76 418.88,-157.12 420.14,-164.01"/>
</a>
</g>
</g>
<!-- Node7 -->
<g id="Node000007" class="node">
<title>Node7</title>
<g id="a_Node000007"><a xlink:href="class_diagram_scene.html#a189b7f9e32b70c751124cffce8d63c8c" target="_top" xlink:title=" ">
<polygon fill="white" stroke="#666666" points="157,-120 0,-120 0,-100 157,-100 157,-120"/>
<text xml:space="preserve" text-anchor="middle" x="78.5" y="-106.5" font-family="Helvetica,sans-Serif" font-size="10.00">DiagramScene::~DiagramScene</text>
</a>
</g>
</g>
<!-- Node6&#45;&gt;Node7 -->
<g id="edge6_Node000006_Node000007" class="edge">
<title>Node6&#45;&gt;Node7</title>
<g id="a_edge6_Node000006_Node000007"><a xlink:title=" ">
<path fill="none" stroke="#63b8ff" d="M196.37,-110C183.43,-110 170.09,-110 157.27,-110"/>
<polygon fill="#63b8ff" stroke="#63b8ff" points="196.11,-113.5 206.11,-110 196.11,-106.5 196.11,-113.5"/>
</a>
</g>
</g>
<!-- Node9&#45;&gt;Node3 -->
<g id="edge10_Node000009_Node000003" class="edge">
<title>Node9&#45;&gt;Node3</title>
<g id="a_edge10_Node000009_Node000003"><a xlink:title=" ">
<path fill="none" stroke="#63b8ff" d="M181.31,-186C172.59,-186 163.86,-186 155.37,-186"/>
<polygon fill="#63b8ff" stroke="#63b8ff" points="181.21,-189.5 191.21,-186 181.21,-182.5 181.21,-189.5"/>
</a>
</g>
</g>
<!-- Node11 -->
<g id="Node000011" class="node">
<title>Node11</title>
<g id="a_Node000011"><a xlink:href="class_diagram_scene.html#a542ad58dab0f10f2825e0d69deabebe7" target="_top" xlink:title=" ">
<polygon fill="white" stroke="#666666" points="356,-32 204.25,-32 204.25,0 356,0 356,-32"/>
<text xml:space="preserve" text-anchor="start" x="212.25" y="-18.5" font-family="Helvetica,sans-Serif" font-size="10.00">DiagramScene::mouseRelease</text>
<text xml:space="preserve" text-anchor="middle" x="280.12" y="-6.5" font-family="Helvetica,sans-Serif" font-size="10.00">Event</text>
</a>
</g>
</g>
<!-- Node10&#45;&gt;Node11 -->
<g id="edge12_Node000010_Node000011" class="edge">
<title>Node10&#45;&gt;Node11</title>
<g id="a_edge12_Node000010_Node000011"><a xlink:title=" ">
<path fill="none" stroke="#63b8ff" d="M430.73,-50.01C406.84,-44.58 378.81,-38.21 353.51,-32.46"/>
<polygon fill="#63b8ff" stroke="#63b8ff" points="429.73,-53.37 440.26,-52.18 431.28,-46.55 429.73,-53.37"/>
</a>
</g>
</g>
</g>
</svg>
