<?xml version="1.0" encoding="UTF-8" standalone="no"?>
<!DOCTYPE svg PUBLIC "-//W3C//DTD SVG 1.1//EN"
 "http://www.w3.org/Graphics/SVG/1.1/DTD/svg11.dtd">
<!-- Generated by graphviz version 14.1.1 (20251213.1925)
 -->
<!-- Title: ConnectionLine::ConnectionLine Pages: 1 -->
<svg width="700pt" height="217pt"
 viewBox="0.00 0.00 700.00 217.00" xmlns="http://www.w3.org/2000/svg" xmlns:xlink="http://www.w3.org/1999/xlink">
<g id="graph0" class="graph" transform="scale(1 1) rotate(0) translate(4 212.74)">
<title>ConnectionLine::ConnectionLine</title>
<!-- Node1 -->
<g id="Node000001" class="node">
<title>Node1</title>
<g id="a_Node000001"><a xlink:title=" ">
<polygon fill="#999999" stroke="#666666" points="157,-64.74 0,-64.74 0,-44.74 157,-44.74 157,-64.74"/>
<text xml:space="preserve" text-anchor="middle" x="78.5" y="-51.24" font-family="Helvetica,sans-Serif" font-size="10.00">ConnectionLine::ConnectionLine</text>
</a>
</g>
</g>
<!-- Node2 -->
<g id="Node000002" class="node">
<title>Node2</title>
<g id="a_Node000002"><a xlink:href="class_connection_line.html#a836aef7faf5a4fb8a5a10bfc71dbabe3" target="_top" xlink:title=" ">
<polygon fill="white" stroke="#666666" points="327.5,-114.74 193,-114.74 193,-82.74 327.5,-82.74 327.5,-114.74"/>
<text xml:space="preserve" text-anchor="start" x="201" y="-101.24" font-family="Helvetica,sans-Serif" font-size="10.00">ConnectionLine::connectTo</text>
<text xml:space="preserve" text-anchor="middle" x="260.25" y="-89.24" font-family="Helvetica,sans-Serif" font-size="10.00">Points</text>
</a>
</g>
</g>
<!-- Node1&#45;&gt;Node2 -->
<g id="edge1_Node000001_Node000002" class="edge">
<title>Node1&#45;&gt;Node2</title>
<g id="a_edge1_Node000001_Node000002"><a xlink:title=" ">
<path fill="none" stroke="#63b8ff" d="M122.1,-65.16C139.96,-69.54 161.31,-74.76 181.78,-79.77"/>
<polygon fill="#63b8ff" stroke="#63b8ff" points="180.7,-83.11 191.24,-82.09 182.36,-76.31 180.7,-83.11"/>
</a>
</g>
</g>
<!-- Node3 -->
<g id="Node000003" class="node">
<title>Node3</title>
<g id="a_Node000003"><a xlink:href="class_connection_line.html#a53c863c51a284a7a8e6b35bc34bd2d34" target="_top" xlink:title=" ">
<polygon fill="white" stroke="#666666" points="516,-208.74 366.5,-208.74 366.5,-176.74 516,-176.74 516,-208.74"/>
<text xml:space="preserve" text-anchor="start" x="374.5" y="-195.24" font-family="Helvetica,sans-Serif" font-size="10.00">ConnectionLine::onConnection</text>
<text xml:space="preserve" text-anchor="middle" x="441.25" y="-183.24" font-family="Helvetica,sans-Serif" font-size="10.00">PointChanged</text>
</a>
</g>
</g>
<!-- Node2&#45;&gt;Node3 -->
<g id="edge2_Node000002_Node000003" class="edge">
<title>Node2&#45;&gt;Node3</title>
<g id="a_edge2_Node000002_Node000003"><a xlink:title=" ">
<path fill="none" stroke="#63b8ff" d="M281.74,-115.09C301.67,-130.37 333.29,-152.98 363.5,-167.74 366.61,-169.26 369.84,-170.71 373.12,-172.11"/>
<polygon fill="#63b8ff" stroke="#63b8ff" points="371.79,-175.34 382.37,-175.79 374.38,-168.84 371.79,-175.34"/>
</a>
</g>
</g>
<!-- Node5 -->
<g id="Node000005" class="node">
<title>Node5</title>
<g id="a_Node000005"><a xlink:href="class_connection_line.html#a4bce34a3f2fb1fd7145de2d9100c9173" target="_top" xlink:title=" ">
<polygon fill="white" stroke="#666666" points="509.25,-158.74 373.25,-158.74 373.25,-126.74 509.25,-126.74 509.25,-158.74"/>
<text xml:space="preserve" text-anchor="start" x="381.25" y="-145.24" font-family="Helvetica,sans-Serif" font-size="10.00">ConnectionLine::onElement</text>
<text xml:space="preserve" text-anchor="middle" x="441.25" y="-133.24" font-family="Helvetica,sans-Serif" font-size="10.00">PositionChanged</text>
</a>
</g>
</g>
<!-- Node2&#45;&gt;Node5 -->
<g id="edge5_Node000002_Node000005" class="edge">
<title>Node2&#45;&gt;Node5</title>
<g id="a_edge5_Node000002_Node000005"><a xlink:title=" ">
<path fill="none" stroke="#63b8ff" d="M327.9,-115.12C339.13,-117.88 350.86,-120.76 362.34,-123.59"/>
<polygon fill="#63b8ff" stroke="#63b8ff" points="361.23,-126.92 371.77,-125.9 362.9,-120.12 361.23,-126.92"/>
</a>
</g>
</g>
<!-- Node6 -->
<g id="Node000006" class="node">
<title>Node6</title>
<g id="a_Node000006"><a xlink:href="class_basic_element.html#a02183bafd7c80f9f1f99a9b9f1631524" target="_top" xlink:title=" ">
<polygon fill="white" stroke="#666666" points="519,-108.74 363.5,-108.74 363.5,-88.74 519,-88.74 519,-108.74"/>
<text xml:space="preserve" text-anchor="middle" x="441.25" y="-95.24" font-family="Helvetica,sans-Serif" font-size="10.00">BasicElement::positionChanged</text>
</a>
</g>
</g>
<!-- Node2&#45;&gt;Node6 -->
<g id="edge7_Node000002_Node000006" class="edge">
<title>Node2&#45;&gt;Node6</title>
<g id="a_edge7_Node000002_Node000006"><a xlink:title=" ">
<path fill="none" stroke="#63b8ff" d="M327.9,-98.74C335.74,-98.74 343.83,-98.74 351.9,-98.74"/>
<polygon fill="#63b8ff" stroke="#63b8ff" points="351.77,-102.24 361.77,-98.74 351.77,-95.24 351.77,-102.24"/>
</a>
</g>
</g>
<!-- Node7 -->
<g id="Node000007" class="node">
<title>Node7</title>
<g id="a_Node000007"><a xlink:href="class_connection_point.html#a851668ae19e97658f1818a40ea375f65" target="_top" xlink:title=" ">
<polygon fill="white" stroke="#666666" points="504,-70.74 378.5,-70.74 378.5,-38.74 504,-38.74 504,-70.74"/>
<text xml:space="preserve" text-anchor="start" x="386.5" y="-57.24" font-family="Helvetica,sans-Serif" font-size="10.00">ConnectionPoint::relative</text>
<text xml:space="preserve" text-anchor="middle" x="441.25" y="-45.24" font-family="Helvetica,sans-Serif" font-size="10.00">PositionChanged</text>
</a>
</g>
</g>
<!-- Node2&#45;&gt;Node7 -->
<g id="edge8_Node000002_Node000007" class="edge">
<title>Node2&#45;&gt;Node7</title>
<g id="a_edge8_Node000002_Node000007"><a xlink:title=" ">
<path fill="none" stroke="#63b8ff" d="M327.9,-82.35C340.79,-79.18 354.36,-75.85 367.44,-72.63"/>
<polygon fill="#63b8ff" stroke="#63b8ff" points="367.93,-76.12 376.81,-70.33 366.26,-69.32 367.93,-76.12"/>
</a>
</g>
</g>
<!-- Node4 -->
<g id="Node000004" class="node">
<title>Node4</title>
<g id="a_Node000004"><a xlink:href="class_connection_line.html#a9de44ae385d7941f3aa79da06e97d510" target="_top" xlink:title=" ">
<polygon fill="white" stroke="#666666" points="691.75,-158.74 555,-158.74 555,-126.74 691.75,-126.74 691.75,-158.74"/>
<text xml:space="preserve" text-anchor="start" x="563" y="-145.24" font-family="Helvetica,sans-Serif" font-size="10.00">ConnectionLine::connection</text>
<text xml:space="preserve" text-anchor="middle" x="623.38" y="-133.24" font-family="Helvetica,sans-Serif" font-size="10.00">Changed</text>
</a>
</g>
</g>
<!-- Node3&#45;&gt;Node4 -->
<g id="edge3_Node000003_Node000004" class="edge">
<title>Node3&#45;&gt;Node4</title>
<g id="a_edge3_Node000003_Node000004"><a xlink:title=" ">
<path fill="none" stroke="#63b8ff" d="M501.48,-176.3C517.71,-171.79 535.47,-166.86 552.25,-162.2"/>
<polygon fill="#63b8ff" stroke="#63b8ff" points="552.95,-165.64 561.65,-159.59 551.08,-158.89 552.95,-165.64"/>
</a>
</g>
</g>
<!-- Node4&#45;&gt;Node1 -->
<g id="edge4_Node000004_Node000001" class="edge">
<title>Node4&#45;&gt;Node1</title>
<g id="a_edge4_Node000004_Node000001"><a xlink:title=" ">
<path fill="none" stroke="#63b8ff" d="M613.57,-126.48C598.32,-100.29 564.26,-49.67 519,-29.74 382.73,30.29 199.31,-15.53 119.44,-40.86"/>
<polygon fill="#63b8ff" stroke="#63b8ff" points="118.75,-37.4 110.31,-43.81 120.91,-44.06 118.75,-37.4"/>
</a>
</g>
</g>
<!-- Node5&#45;&gt;Node4 -->
<g id="edge6_Node000005_Node000004" class="edge">
<title>Node5&#45;&gt;Node4</title>
<g id="a_edge6_Node000005_Node000004"><a xlink:title=" ">
<path fill="none" stroke="#63b8ff" d="M509.58,-142.74C520.59,-142.74 532.1,-142.74 543.37,-142.74"/>
<polygon fill="#63b8ff" stroke="#63b8ff" points="543.02,-146.24 553.02,-142.74 543.02,-139.24 543.02,-146.24"/>
</a>
</g>
</g>
</g>
</svg>
