<?xml version="1.0" encoding="UTF-8" standalone="no"?>
<!DOCTYPE svg PUBLIC "-//W3C//DTD SVG 1.1//EN"
 "http://www.w3.org/Graphics/SVG/1.1/DTD/svg11.dtd">
<!-- Generated by graphviz version 14.1.1 (20251213.1925)
 -->
<!-- Title: DiagramScene::getAllConnections Pages: 1 -->
<svg width="936pt" height="66pt"
 viewBox="0.00 0.00 936.00 66.00" xmlns="http://www.w3.org/2000/svg" xmlns:xlink="http://www.w3.org/1999/xlink">
<g id="graph0" class="graph" transform="scale(1 1) rotate(0) translate(4 62)">
<title>DiagramScene::getAllConnections</title>
<!-- Node1 -->
<g id="Node000001" class="node">
<title>Node1</title>
<g id="a_Node000001"><a xlink:title=" ">
<polygon fill="#999999" stroke="#666666" points="927.5,-39 761.5,-39 761.5,-19 927.5,-19 927.5,-39"/>
<text xml:space="preserve" text-anchor="middle" x="844.5" y="-25.5" font-family="Helvetica,sans-Serif" font-size="10.00">DiagramScene::getAllConnections</text>
</a>
</g>
</g>
<!-- Node2 -->
<g id="Node000002" class="node">
<title>Node2</title>
<g id="a_Node000002"><a xlink:href="class_diagram_scene.html#a0d026405c431d3aca9494d64296bb956" target="_top" xlink:title=" ">
<polygon fill="white" stroke="#666666" points="725.5,-45 570.75,-45 570.75,-13 725.5,-13 725.5,-45"/>
<text xml:space="preserve" text-anchor="start" x="578.75" y="-31.5" font-family="Helvetica,sans-Serif" font-size="10.00">DiagramScene::removeElement</text>
<text xml:space="preserve" text-anchor="middle" x="648.12" y="-19.5" font-family="Helvetica,sans-Serif" font-size="10.00">Connections</text>
</a>
</g>
</g>
<!-- Node1&#45;&gt;Node2 -->
<g id="edge1_Node000001_Node000002" class="edge">
<title>Node1&#45;&gt;Node2</title>
<g id="a_edge1_Node000001_Node000002"><a xlink:title=" ">
<path fill="none" stroke="#63b8ff" d="M749.77,-29C741.74,-29 733.68,-29 725.81,-29"/>
<polygon fill="#63b8ff" stroke="#63b8ff" points="749.55,-32.5 759.55,-29 749.55,-25.5 749.55,-32.5"/>
</a>
</g>
</g>
<!-- Node3 -->
<g id="Node000003" class="node">
<title>Node3</title>
<g id="a_Node000003"><a xlink:href="class_diagram_scene.html#ae531fa5ccfc6393d5a60f956a652118d" target="_top" xlink:title=" ">
<polygon fill="white" stroke="#666666" points="534.75,-39 380,-39 380,-19 534.75,-19 534.75,-39"/>
<text xml:space="preserve" text-anchor="middle" x="457.38" y="-25.5" font-family="Helvetica,sans-Serif" font-size="10.00">DiagramScene::removeElement</text>
</a>
</g>
</g>
<!-- Node2&#45;&gt;Node3 -->
<g id="edge2_Node000002_Node000003" class="edge">
<title>Node2&#45;&gt;Node3</title>
<g id="a_edge2_Node000002_Node000003"><a xlink:title=" ">
<path fill="none" stroke="#63b8ff" d="M559.08,-29C551.07,-29 542.99,-29 535.08,-29"/>
<polygon fill="#63b8ff" stroke="#63b8ff" points="558.84,-32.5 568.84,-29 558.84,-25.5 558.84,-32.5"/>
</a>
</g>
</g>
<!-- Node4 -->
<g id="Node000004" class="node">
<title>Node4</title>
<g id="a_Node000004"><a xlink:href="class_diagram_scene.html#a03a8b712a0872e8f6290c059de956505" target="_top" xlink:title=" ">
<polygon fill="white" stroke="#666666" points="342.12,-58 191.12,-58 191.12,-38 342.12,-38 342.12,-58"/>
<text xml:space="preserve" text-anchor="middle" x="266.62" y="-44.5" font-family="Helvetica,sans-Serif" font-size="10.00">DiagramScene::deleteSelected</text>
</a>
</g>
</g>
<!-- Node3&#45;&gt;Node4 -->
<g id="edge3_Node000003_Node000004" class="edge">
<title>Node3&#45;&gt;Node4</title>
<g id="a_edge3_Node000003_Node000004"><a xlink:title=" ">
<path fill="none" stroke="#63b8ff" d="M368.32,-37.86C359.68,-38.73 350.98,-39.61 342.5,-40.46"/>
<polygon fill="#63b8ff" stroke="#63b8ff" points="368.5,-41.36 378.1,-36.88 367.8,-34.4 368.5,-41.36"/>
</a>
</g>
</g>
<!-- Node6 -->
<g id="Node000006" class="node">
<title>Node6</title>
<g id="a_Node000006"><a xlink:href="class_diagram_scene.html#affc06437d827ac64a996cd13690a49c6" target="_top" xlink:title=" ">
<polygon fill="white" stroke="#666666" points="344,-20 189.25,-20 189.25,0 344,0 344,-20"/>
<text xml:space="preserve" text-anchor="middle" x="266.62" y="-6.5" font-family="Helvetica,sans-Serif" font-size="10.00">DiagramScene::removeElement</text>
</a>
</g>
</g>
<!-- Node3&#45;&gt;Node6 -->
<g id="edge5_Node000003_Node000006" class="edge">
<title>Node3&#45;&gt;Node6</title>
<g id="a_edge5_Node000003_Node000006"><a xlink:title=" ">
<path fill="none" stroke="#63b8ff" d="M368.33,-20.14C360.32,-19.33 352.24,-18.52 344.33,-17.72"/>
<polygon fill="#63b8ff" stroke="#63b8ff" points="367.8,-23.6 378.1,-21.12 368.5,-16.64 367.8,-23.6"/>
</a>
</g>
</g>
<!-- Node5 -->
<g id="Node000005" class="node">
<title>Node5</title>
<g id="a_Node000005"><a xlink:href="class_diagram_scene.html#a074e1181353b257a18ea2d243b459a47" target="_top" xlink:title=" ">
<polygon fill="white" stroke="#666666" points="153.25,-58 0,-58 0,-38 153.25,-38 153.25,-58"/>
<text xml:space="preserve" text-anchor="middle" x="76.62" y="-44.5" font-family="Helvetica,sans-Serif" font-size="10.00">DiagramScene::keyPressEvent</text>
</a>
</g>
</g>
<!-- Node4&#45;&gt;Node5 -->
<g id="edge4_Node000004_Node000005" class="edge">
<title>Node4&#45;&gt;Node5</title>
<g id="a_edge4_Node000004_Node000005"><a xlink:title=" ">
<path fill="none" stroke="#63b8ff" d="M179.54,-48C170.94,-48 162.24,-48 153.75,-48"/>
<polygon fill="#63b8ff" stroke="#63b8ff" points="179.27,-51.5 189.27,-48 179.27,-44.5 179.27,-51.5"/>
</a>
</g>
</g>
</g>
</svg>
