<?xml version="1.0" encoding="UTF-8" standalone="no"?>
<!DOCTYPE svg PUBLIC "-//W3C//DTD SVG 1.1//EN"
 "http://www.w3.org/Graphics/SVG/1.1/DTD/svg11.dtd">
<!-- Generated by graphviz version 14.1.1 (20251213.1925)
 -->
<!-- Title: MainWindow::createCentralWidget Pages: 1 -->
<svg width="916pt" height="116pt"
 viewBox="0.00 0.00 916.00 116.00" xmlns="http://www.w3.org/2000/svg" xmlns:xlink="http://www.w3.org/1999/xlink">
<g id="graph0" class="graph" transform="scale(1 1) rotate(0) translate(4 112)">
<title>MainWindow::createCentralWidget</title>
<!-- Node1 -->
<g id="Node000001" class="node">
<title>Node1</title>
<g id="a_Node000001"><a xlink:title=" ">
<polygon fill="#999999" stroke="#666666" points="136.75,-54 0,-54 0,-22 136.75,-22 136.75,-54"/>
<text xml:space="preserve" text-anchor="start" x="8" y="-40.5" font-family="Helvetica,sans-Serif" font-size="10.00">MainWindow::createCentral</text>
<text xml:space="preserve" text-anchor="middle" x="68.38" y="-28.5" font-family="Helvetica,sans-Serif" font-size="10.00">Widget</text>
</a>
</g>
</g>
<!-- Node2 -->
<g id="Node000002" class="node">
<title>Node2</title>
<g id="a_Node000002"><a xlink:href="class_main_window.html#ac15079a99bc4f9b1a66e1da16bcbd55d" target="_top" xlink:title=" ">
<polygon fill="white" stroke="#666666" points="520.5,-70 358.25,-70 358.25,-50 520.5,-50 520.5,-70"/>
<text xml:space="preserve" text-anchor="middle" x="439.38" y="-56.5" font-family="Helvetica,sans-Serif" font-size="10.00">MainWindow::createDiagramArea</text>
</a>
</g>
</g>
<!-- Node1&#45;&gt;Node2 -->
<g id="edge1_Node000001_Node000002" class="edge">
<title>Node1&#45;&gt;Node2</title>
<g id="a_edge1_Node000001_Node000002"><a xlink:title=" ">
<path fill="none" stroke="#63b8ff" d="M137.06,-42.04C195.84,-45.54 281.5,-50.65 346.48,-54.52"/>
<polygon fill="#63b8ff" stroke="#63b8ff" points="346.25,-58.01 356.44,-55.11 346.66,-51.03 346.25,-58.01"/>
</a>
</g>
</g>
<!-- Node8 -->
<g id="Node000008" class="node">
<title>Node8</title>
<g id="a_Node000008"><a xlink:href="class_main_window.html#a002a373734d320507137dfb74d6b34a6" target="_top" xlink:title=" ">
<polygon fill="white" stroke="#666666" points="322.25,-29 172.75,-29 172.75,-9 322.25,-9 322.25,-29"/>
<text xml:space="preserve" text-anchor="middle" x="247.5" y="-15.5" font-family="Helvetica,sans-Serif" font-size="10.00">MainWindow::createSidePanel</text>
</a>
</g>
</g>
<!-- Node1&#45;&gt;Node8 -->
<g id="edge7_Node000001_Node000008" class="edge">
<title>Node1&#45;&gt;Node8</title>
<g id="a_edge7_Node000001_Node000008"><a xlink:title=" ">
<path fill="none" stroke="#63b8ff" d="M137.1,-30.74C144.93,-29.9 152.99,-29.03 161.02,-28.17"/>
<polygon fill="#63b8ff" stroke="#63b8ff" points="161.25,-31.66 170.82,-27.12 160.5,-24.7 161.25,-31.66"/>
</a>
</g>
</g>
<!-- Node3 -->
<g id="Node000003" class="node">
<title>Node3</title>
<g id="a_Node000003"><a xlink:href="class_diagram_view.html#aff439ca64e209a13a5ca84de4307deb4" target="_top" xlink:title=" ">
<polygon fill="white" stroke="#666666" points="713.12,-70 561.38,-70 561.38,-50 713.12,-50 713.12,-70"/>
<text xml:space="preserve" text-anchor="middle" x="637.25" y="-56.5" font-family="Helvetica,sans-Serif" font-size="10.00">DiagramView::elementDropped</text>
</a>
</g>
</g>
<!-- Node2&#45;&gt;Node3 -->
<g id="edge2_Node000002_Node000003" class="edge">
<title>Node2&#45;&gt;Node3</title>
<g id="a_edge2_Node000002_Node000003"><a xlink:title=" ">
<path fill="none" stroke="#63b8ff" d="M520.89,-60C530.45,-60 540.23,-60 549.87,-60"/>
<polygon fill="#63b8ff" stroke="#63b8ff" points="549.57,-63.5 559.57,-60 549.57,-56.5 549.57,-63.5"/>
</a>
</g>
</g>
<!-- Node4 -->
<g id="Node000004" class="node">
<title>Node4</title>
<g id="a_Node000004"><a xlink:href="class_main_window.html#a880a071072561df84782f84e0321da4e" target="_top" xlink:title=" ">
<polygon fill="white" stroke="#666666" points="718,-108 556.5,-108 556.5,-88 718,-88 718,-108"/>
<text xml:space="preserve" text-anchor="middle" x="637.25" y="-94.5" font-family="Helvetica,sans-Serif" font-size="10.00">MainWindow::onElementDropped</text>
</a>
</g>
</g>
<!-- Node2&#45;&gt;Node4 -->
<g id="edge3_Node000002_Node000004" class="edge">
<title>Node2&#45;&gt;Node4</title>
<g id="a_edge3_Node000002_Node000004"><a xlink:title=" ">
<path fill="none" stroke="#63b8ff" d="M494.42,-70.48C518.18,-75.09 546.29,-80.55 571.2,-85.38"/>
<polygon fill="#63b8ff" stroke="#63b8ff" points="570.41,-88.79 580.9,-87.26 571.75,-81.92 570.41,-88.79"/>
</a>
</g>
</g>
<!-- Node5 -->
<g id="Node000005" class="node">
<title>Node5</title>
<g id="a_Node000005"><a xlink:href="class_element_factory.html#a84bb24abdffea9682c5c007bc7792927" target="_top" xlink:title=" ">
<polygon fill="white" stroke="#666666" points="908,-108 754,-108 754,-88 908,-88 908,-108"/>
<text xml:space="preserve" text-anchor="middle" x="831" y="-94.5" font-family="Helvetica,sans-Serif" font-size="10.00">ElementFactory::createElement</text>
</a>
</g>
</g>
<!-- Node4&#45;&gt;Node5 -->
<g id="edge4_Node000004_Node000005" class="edge">
<title>Node4&#45;&gt;Node5</title>
<g id="a_edge4_Node000004_Node000005"><a xlink:title=" ">
<path fill="none" stroke="#63b8ff" d="M718.46,-98C726.41,-98 734.51,-98 742.53,-98"/>
<polygon fill="#63b8ff" stroke="#63b8ff" points="742.28,-101.5 752.28,-98 742.28,-94.5 742.28,-101.5"/>
</a>
</g>
</g>
<!-- Node6 -->
<g id="Node000006" class="node">
<title>Node6</title>
<g id="a_Node000006"><a xlink:href="class_main_window.html#a51ab21a1be4a1389a00bdb35feee8d64" target="_top" xlink:title=" ">
<polygon fill="white" stroke="#666666" points="906.5,-70 755.5,-70 755.5,-50 906.5,-50 906.5,-70"/>
<text xml:space="preserve" text-anchor="middle" x="831" y="-56.5" font-family="Helvetica,sans-Serif" font-size="10.00">MainWindow::updateStatusBar</text>
</a>
</g>
</g>
<!-- Node4&#45;&gt;Node6 -->
<g id="edge5_Node000004_Node000006" class="edge">
<title>Node4&#45;&gt;Node6</title>
<g id="a_edge5_Node000004_Node000006"><a xlink:title=" ">
<path fill="none" stroke="#63b8ff" d="M691.15,-87.52C714.31,-82.93 741.69,-77.5 765.99,-72.69"/>
<polygon fill="#63b8ff" stroke="#63b8ff" points="766.66,-76.12 775.78,-70.74 765.29,-69.26 766.66,-76.12"/>
</a>
</g>
</g>
<!-- Node7 -->
<g id="Node000007" class="node">
<title>Node7</title>
<g id="a_Node000007"><a xlink:href="class_main_window.html#a90cfbcf2e0f2549760a60f184ee0acbf" target="_top" xlink:title=" ">
<polygon fill="white" stroke="#666666" points="902.38,-32 759.62,-32 759.62,0 902.38,0 902.38,-32"/>
<text xml:space="preserve" text-anchor="start" x="767.62" y="-18.5" font-family="Helvetica,sans-Serif" font-size="10.00">MainWindow::updateWindow</text>
<text xml:space="preserve" text-anchor="middle" x="831" y="-6.5" font-family="Helvetica,sans-Serif" font-size="10.00">Title</text>
</a>
</g>
</g>
<!-- Node4&#45;&gt;Node7 -->
<g id="edge6_Node000004_Node000007" class="edge">
<title>Node4&#45;&gt;Node7</title>
<g id="a_edge6_Node000004_Node000007"><a xlink:title=" ">
<path fill="none" stroke="#63b8ff" d="M698.92,-87.51C705.58,-85.21 712.08,-82.41 718,-79 738.15,-67.38 734.35,-53.46 754,-41 755.97,-39.75 758.01,-38.56 760.1,-37.42"/>
<polygon fill="#63b8ff" stroke="#63b8ff" points="761.39,-40.69 768.83,-33.14 758.31,-34.4 761.39,-40.69"/>
</a>
</g>
</g>
<!-- Node9 -->
<g id="Node000009" class="node">
<title>Node9</title>
<g id="a_Node000009"><a xlink:href="class_main_window.html#a2b7e0ad982cc26a1351f1530ea090b5b" target="_top" xlink:title=" ">
<polygon fill="white" stroke="#666666" points="510,-32 368.75,-32 368.75,0 510,0 510,-32"/>
<text xml:space="preserve" text-anchor="start" x="376.75" y="-18.5" font-family="Helvetica,sans-Serif" font-size="10.00">MainWindow::createDrawing</text>
<text xml:space="preserve" text-anchor="middle" x="439.38" y="-6.5" font-family="Helvetica,sans-Serif" font-size="10.00">Button</text>
</a>
</g>
</g>
<!-- Node8&#45;&gt;Node9 -->
<g id="edge8_Node000008_Node000009" class="edge">
<title>Node8&#45;&gt;Node9</title>
<g id="a_edge8_Node000008_Node000009"><a xlink:title=" ">
<path fill="none" stroke="#63b8ff" d="M322.73,-17.83C334.04,-17.65 345.76,-17.46 357.21,-17.28"/>
<polygon fill="#63b8ff" stroke="#63b8ff" points="357.09,-20.78 367.03,-17.13 356.98,-13.79 357.09,-20.78"/>
</a>
</g>
</g>
<!-- Node10 -->
<g id="Node000010" class="node">
<title>Node10</title>
<g id="a_Node000010"><a xlink:href="class_main_window.html#a618482f2eb3e3a2eb8c5937f6374c79a" target="_top" xlink:title=" ">
<polygon fill="white" stroke="#666666" points="708.25,-32 566.25,-32 566.25,0 708.25,0 708.25,-32"/>
<text xml:space="preserve" text-anchor="start" x="574.25" y="-18.5" font-family="Helvetica,sans-Serif" font-size="10.00">MainWindow::onAddElement</text>
<text xml:space="preserve" text-anchor="middle" x="637.25" y="-6.5" font-family="Helvetica,sans-Serif" font-size="10.00">Clicked</text>
</a>
</g>
</g>
<!-- Node9&#45;&gt;Node10 -->
<g id="edge9_Node000009_Node000010" class="edge">
<title>Node9&#45;&gt;Node10</title>
<g id="a_edge9_Node000009_Node000010"><a xlink:title=" ">
<path fill="none" stroke="#63b8ff" d="M510.26,-16C524.71,-16 540.04,-16 554.86,-16"/>
<polygon fill="#63b8ff" stroke="#63b8ff" points="554.55,-19.5 564.55,-16 554.55,-12.5 554.55,-19.5"/>
</a>
</g>
</g>
<!-- Node10&#45;&gt;Node5 -->
<g id="edge10_Node000010_Node000005" class="edge">
<title>Node10&#45;&gt;Node5</title>
<g id="a_edge10_Node000010_Node000005"><a xlink:title=" ">
<path fill="none" stroke="#63b8ff" d="M701.43,-32.44C707.21,-34.93 712.83,-37.77 718,-41 737.73,-53.32 733.91,-67.27 754,-79 756.66,-80.55 759.45,-81.98 762.31,-83.29"/>
<polygon fill="#63b8ff" stroke="#63b8ff" points="760.98,-86.53 771.57,-86.99 763.58,-80.03 760.98,-86.53"/>
</a>
</g>
</g>
<!-- Node10&#45;&gt;Node6 -->
<g id="edge11_Node000010_Node000006" class="edge">
<title>Node10&#45;&gt;Node6</title>
<g id="a_edge11_Node000010_Node000006"><a xlink:title=" ">
<path fill="none" stroke="#63b8ff" d="M708.56,-32.13C729.94,-37.04 753.14,-42.36 773.48,-47.03"/>
<polygon fill="#63b8ff" stroke="#63b8ff" points="772.45,-50.39 782.98,-49.21 774.02,-43.56 772.45,-50.39"/>
</a>
</g>
</g>
<!-- Node10&#45;&gt;Node7 -->
<g id="edge12_Node000010_Node000007" class="edge">
<title>Node10&#45;&gt;Node7</title>
<g id="a_edge12_Node000010_Node000007"><a xlink:title=" ">
<path fill="none" stroke="#63b8ff" d="M708.56,-16C721.38,-16 734.85,-16 747.96,-16"/>
<polygon fill="#63b8ff" stroke="#63b8ff" points="747.86,-19.5 757.86,-16 747.86,-12.5 747.86,-19.5"/>
</a>
</g>
</g>
</g>
</svg>
