<?xml version="1.0" encoding="UTF-8" standalone="no"?>
<!DOCTYPE svg PUBLIC "-//W3C//DTD SVG 1.1//EN"
 "http://www.w3.org/Graphics/SVG/1.1/DTD/svg11.dtd">
<!-- Generated by graphviz version 14.1.1 (20251213.1925)
 -->
<!-- Title: ElementGraphicsItem::findConnectionPointAt Pages: 1 -->
<svg width="470pt" height="115pt"
 viewBox="0.00 0.00 470.00 115.00" xmlns="http://www.w3.org/2000/svg" xmlns:xlink="http://www.w3.org/1999/xlink">
<g id="graph0" class="graph" transform="scale(1 1) rotate(0) translate(4 111)">
<title>ElementGraphicsItem::findConnectionPointAt</title>
<!-- Node1 -->
<g id="Node000001" class="node">
<title>Node1</title>
<g id="a_Node000001"><a xlink:title=" ">
<polygon fill="#999999" stroke="#666666" points="462,-82 342.5,-82 342.5,-50 462,-50 462,-82"/>
<text xml:space="preserve" text-anchor="start" x="350.5" y="-68.5" font-family="Helvetica,sans-Serif" font-size="10.00">ElementGraphicsItem</text>
<text xml:space="preserve" text-anchor="middle" x="402.25" y="-56.5" font-family="Helvetica,sans-Serif" font-size="10.00">::findConnectionPointAt</text>
</a>
</g>
</g>
<!-- Node2 -->
<g id="Node000002" class="node">
<title>Node2</title>
<g id="a_Node000002"><a xlink:href="class_element_graphics_item.html#a793602d06f108dd05e8e103aa703974b" target="_top" xlink:title=" ">
<polygon fill="white" stroke="#666666" points="281.75,-107 171.25,-107 171.25,-75 281.75,-75 281.75,-107"/>
<text xml:space="preserve" text-anchor="start" x="179.25" y="-93.5" font-family="Helvetica,sans-Serif" font-size="10.00">ElementGraphicsItem</text>
<text xml:space="preserve" text-anchor="middle" x="226.5" y="-81.5" font-family="Helvetica,sans-Serif" font-size="10.00">::mousePressEvent</text>
</a>
</g>
</g>
<!-- Node1&#45;&gt;Node2 -->
<g id="edge1_Node000001_Node000002" class="edge">
<title>Node1&#45;&gt;Node2</title>
<g id="a_edge1_Node000001_Node000002"><a xlink:title=" ">
<path fill="none" stroke="#63b8ff" d="M331.27,-76.07C314.92,-78.42 297.74,-80.89 282.16,-83.13"/>
<polygon fill="#63b8ff" stroke="#63b8ff" points="331.53,-79.57 340.93,-74.68 330.53,-72.64 331.53,-79.57"/>
</a>
</g>
</g>
<!-- Node3 -->
<g id="Node000003" class="node">
<title>Node3</title>
<g id="a_Node000003"><a xlink:href="class_element_graphics_item.html#acccf7d3285160c3f826d7b407c51ebc9" target="_top" xlink:title=" ">
<polygon fill="white" stroke="#666666" points="306.5,-57 146.5,-57 146.5,-25 306.5,-25 306.5,-57"/>
<text xml:space="preserve" text-anchor="start" x="154.5" y="-43.5" font-family="Helvetica,sans-Serif" font-size="10.00">ElementGraphicsItem</text>
<text xml:space="preserve" text-anchor="middle" x="226.5" y="-31.5" font-family="Helvetica,sans-Serif" font-size="10.00">::updateHoveredConnectionPoint</text>
</a>
</g>
</g>
<!-- Node1&#45;&gt;Node3 -->
<g id="edge2_Node000001_Node000003" class="edge">
<title>Node1&#45;&gt;Node3</title>
<g id="a_edge2_Node000001_Node000003"><a xlink:title=" ">
<path fill="none" stroke="#63b8ff" d="M331.26,-55.93C323.25,-54.78 315.03,-53.59 306.91,-52.43"/>
<polygon fill="#63b8ff" stroke="#63b8ff" points="330.53,-59.36 340.93,-57.32 331.53,-52.43 330.53,-59.36"/>
</a>
</g>
</g>
<!-- Node4 -->
<g id="Node000004" class="node">
<title>Node4</title>
<g id="a_Node000004"><a xlink:href="class_element_graphics_item.html#acb0b801fcece8d5458fcb800b98fffa1" target="_top" xlink:title=" ">
<polygon fill="white" stroke="#666666" points="110.5,-82 0,-82 0,-50 110.5,-50 110.5,-82"/>
<text xml:space="preserve" text-anchor="start" x="8" y="-68.5" font-family="Helvetica,sans-Serif" font-size="10.00">ElementGraphicsItem</text>
<text xml:space="preserve" text-anchor="middle" x="55.25" y="-56.5" font-family="Helvetica,sans-Serif" font-size="10.00">::hoverEnterEvent</text>
</a>
</g>
</g>
<!-- Node3&#45;&gt;Node4 -->
<g id="edge3_Node000003_Node000004" class="edge">
<title>Node3&#45;&gt;Node4</title>
<g id="a_edge3_Node000003_Node000004"><a xlink:title=" ">
<path fill="none" stroke="#63b8ff" d="M135.02,-54.36C126.74,-55.59 118.54,-56.8 110.73,-57.95"/>
<polygon fill="#63b8ff" stroke="#63b8ff" points="135.45,-57.84 144.83,-52.92 134.42,-50.91 135.45,-57.84"/>
</a>
</g>
</g>
<!-- Node5 -->
<g id="Node000005" class="node">
<title>Node5</title>
<g id="a_Node000005"><a xlink:href="class_element_graphics_item.html#abedc932a8098839741d3dc217be990e8" target="_top" xlink:title=" ">
<polygon fill="white" stroke="#666666" points="110.5,-32 0,-32 0,0 110.5,0 110.5,-32"/>
<text xml:space="preserve" text-anchor="start" x="8" y="-18.5" font-family="Helvetica,sans-Serif" font-size="10.00">ElementGraphicsItem</text>
<text xml:space="preserve" text-anchor="middle" x="55.25" y="-6.5" font-family="Helvetica,sans-Serif" font-size="10.00">::hoverMoveEvent</text>
</a>
</g>
</g>
<!-- Node3&#45;&gt;Node5 -->
<g id="edge4_Node000003_Node000005" class="edge">
<title>Node3&#45;&gt;Node5</title>
<g id="a_edge4_Node000003_Node000005"><a xlink:title=" ">
<path fill="none" stroke="#63b8ff" d="M135.02,-27.64C126.74,-26.41 118.54,-25.2 110.73,-24.05"/>
<polygon fill="#63b8ff" stroke="#63b8ff" points="134.42,-31.09 144.83,-29.08 135.45,-24.16 134.42,-31.09"/>
</a>
</g>
</g>
</g>
</svg>
