<?xml version="1.0" encoding="UTF-8" standalone="no"?>
<!DOCTYPE svg PUBLIC "-//W3C//DTD SVG 1.1//EN"
 "http://www.w3.org/Graphics/SVG/1.1/DTD/svg11.dtd">
<!-- Generated by graphviz version 14.1.1 (20251213.1925)
 -->
<!-- Title: BasicElement::notifyPositionChanged Pages: 1 -->
<svg width="2782pt" height="856pt"
 viewBox="0.00 0.00 2782.00 856.00" xmlns="http://www.w3.org/2000/svg" xmlns:xlink="http://www.w3.org/1999/xlink">
<g id="graph0" class="graph" transform="scale(1 1) rotate(0) translate(4 851.81)">
<title>BasicElement::notifyPositionChanged</title>
<!-- Node1 -->
<g id="Node000001" class="node">
<title>Node1</title>
<g id="a_Node000001"><a xlink:title=" ">
<polygon fill="#999999" stroke="#666666" points="2773.75,-679 2631.75,-679 2631.75,-647 2773.75,-647 2773.75,-679"/>
<text xml:space="preserve" text-anchor="start" x="2639.75" y="-665.5" font-family="Helvetica,sans-Serif" font-size="10.00">BasicElement::notifyPosition</text>
<text xml:space="preserve" text-anchor="middle" x="2702.75" y="-653.5" font-family="Helvetica,sans-Serif" font-size="10.00">Changed</text>
</a>
</g>
</g>
<!-- Node2 -->
<g id="Node000002" class="node">
<title>Node2</title>
<g id="a_Node000002"><a xlink:href="class_basic_element.html#ab14524060d1b8fbbba753207029c6d7d" target="_top" xlink:title=" ">
<polygon fill="white" stroke="#666666" points="2595.75,-673 2464.25,-673 2464.25,-653 2595.75,-653 2595.75,-673"/>
<text xml:space="preserve" text-anchor="middle" x="2530" y="-659.5" font-family="Helvetica,sans-Serif" font-size="10.00">BasicElement::setPosition</text>
</a>
</g>
</g>
<!-- Node1&#45;&gt;Node2 -->
<g id="edge1_Node000001_Node000002" class="edge">
<title>Node1&#45;&gt;Node2</title>
<g id="a_edge1_Node000001_Node000002"><a xlink:title=" ">
<path fill="none" stroke="#63b8ff" d="M2620.01,-663C2611.98,-663 2603.9,-663 2596.07,-663"/>
<polygon fill="#63b8ff" stroke="#63b8ff" points="2619.8,-666.5 2629.8,-663 2619.8,-659.5 2619.8,-666.5"/>
</a>
</g>
</g>
<!-- Node3 -->
<g id="Node000003" class="node">
<title>Node3</title>
<g id="a_Node000003"><a xlink:href="class_basic_element.html#add857c56cf407a3f2c3b4221d84c18a5" target="_top" xlink:title=" ">
<polygon fill="white" stroke="#666666" points="2405,-717 2298.25,-717 2298.25,-697 2405,-697 2405,-717"/>
<text xml:space="preserve" text-anchor="middle" x="2351.62" y="-703.5" font-family="Helvetica,sans-Serif" font-size="10.00">BasicElement::move</text>
</a>
</g>
</g>
<!-- Node2&#45;&gt;Node3 -->
<g id="edge2_Node000002_Node000003" class="edge">
<title>Node2&#45;&gt;Node3</title>
<g id="a_edge2_Node000002_Node000003"><a xlink:title=" ">
<path fill="none" stroke="#63b8ff" d="M2476.32,-676.14C2450.14,-682.67 2418.94,-690.46 2394.43,-696.57"/>
<polygon fill="#63b8ff" stroke="#63b8ff" points="2476.88,-679.61 2485.73,-673.79 2475.18,-672.82 2476.88,-679.61"/>
</a>
</g>
</g>
<!-- Node4 -->
<g id="Node000004" class="node">
<title>Node4</title>
<g id="a_Node000004"><a xlink:href="class_property_command.html#ae105e0a173a3d4c69a9a6ba6582b644b" target="_top" xlink:title=" ">
<polygon fill="white" stroke="#666666" points="2428.25,-679 2275,-679 2275,-647 2428.25,-647 2428.25,-679"/>
<text xml:space="preserve" text-anchor="start" x="2283" y="-665.5" font-family="Helvetica,sans-Serif" font-size="10.00">PropertyCommand::setElement</text>
<text xml:space="preserve" text-anchor="middle" x="2351.62" y="-653.5" font-family="Helvetica,sans-Serif" font-size="10.00">Property</text>
</a>
</g>
</g>
<!-- Node2&#45;&gt;Node4 -->
<g id="edge3_Node000002_Node000004" class="edge">
<title>Node2&#45;&gt;Node4</title>
<g id="a_edge3_Node000002_Node000004"><a xlink:title=" ">
<path fill="none" stroke="#63b8ff" d="M2452.37,-663C2444.47,-663 2436.45,-663 2428.56,-663"/>
<polygon fill="#63b8ff" stroke="#63b8ff" points="2452.31,-666.5 2462.31,-663 2452.31,-659.5 2452.31,-666.5"/>
</a>
</g>
</g>
<!-- Node28 -->
<g id="Node000028" class="node">
<title>Node28</title>
<g id="a_Node000028"><a xlink:href="class_basic_element.html#a28d9895b6930a1be49e7375181848e77" target="_top" xlink:title=" ">
<polygon fill="white" stroke="#666666" points="2417.38,-629 2285.88,-629 2285.88,-609 2417.38,-609 2417.38,-629"/>
<text xml:space="preserve" text-anchor="middle" x="2351.62" y="-615.5" font-family="Helvetica,sans-Serif" font-size="10.00">BasicElement::setPosition</text>
</a>
</g>
</g>
<!-- Node2&#45;&gt;Node28 -->
<g id="edge55_Node000002_Node000028" class="edge">
<title>Node2&#45;&gt;Node28</title>
<g id="a_edge55_Node000002_Node000028"><a xlink:title=" ">
<path fill="none" stroke="#63b8ff" d="M2476.32,-649.86C2450.14,-643.33 2418.94,-635.54 2394.43,-629.43"/>
<polygon fill="#63b8ff" stroke="#63b8ff" points="2475.18,-653.18 2485.73,-652.21 2476.88,-646.39 2475.18,-653.18"/>
</a>
</g>
</g>
<!-- Node5 -->
<g id="Node000005" class="node">
<title>Node5</title>
<g id="a_Node000005"><a xlink:href="class_properties_panel.html#a74d22cd1ca119cda9cc4ca00b853e88d" target="_top" xlink:title=" ">
<polygon fill="white" stroke="#666666" points="2239,-679 2082.75,-679 2082.75,-647 2239,-647 2239,-679"/>
<text xml:space="preserve" text-anchor="start" x="2090.75" y="-665.5" font-family="Helvetica,sans-Serif" font-size="10.00">PropertiesPanel::handleAttribute</text>
<text xml:space="preserve" text-anchor="middle" x="2160.88" y="-653.5" font-family="Helvetica,sans-Serif" font-size="10.00">PropertyChange</text>
</a>
</g>
</g>
<!-- Node4&#45;&gt;Node5 -->
<g id="edge4_Node000004_Node000005" class="edge">
<title>Node4&#45;&gt;Node5</title>
<g id="a_edge4_Node000004_Node000005"><a xlink:title=" ">
<path fill="none" stroke="#63b8ff" d="M2263.35,-663C2255.3,-663 2247.17,-663 2239.21,-663"/>
<polygon fill="#63b8ff" stroke="#63b8ff" points="2263.16,-666.5 2273.16,-663 2263.16,-659.5 2263.16,-666.5"/>
</a>
</g>
</g>
<!-- Node6 -->
<g id="Node000006" class="node">
<title>Node6</title>
<g id="a_Node000006"><a xlink:href="class_properties_panel.html#a2800a2c7575a5fad6d923d9b64d982f8" target="_top" xlink:title=" ">
<polygon fill="white" stroke="#666666" points="2046.75,-594 1916.75,-594 1916.75,-562 2046.75,-562 2046.75,-594"/>
<text xml:space="preserve" text-anchor="start" x="1924.75" y="-580.5" font-family="Helvetica,sans-Serif" font-size="10.00">PropertiesPanel::onCheck</text>
<text xml:space="preserve" text-anchor="middle" x="1981.75" y="-568.5" font-family="Helvetica,sans-Serif" font-size="10.00">BoxChanged</text>
</a>
</g>
</g>
<!-- Node4&#45;&gt;Node6 -->
<g id="edge51_Node000004_Node000006" class="edge">
<title>Node4&#45;&gt;Node6</title>
<g id="a_edge51_Node000004_Node000006"><a xlink:title=" ">
<path fill="none" stroke="#63b8ff" d="M2268.35,-643.99C2201.54,-628.55 2108.63,-607.08 2047.15,-592.88"/>
<polygon fill="#63b8ff" stroke="#63b8ff" points="2267.25,-647.33 2277.78,-646.17 2268.83,-640.51 2267.25,-647.33"/>
</a>
</g>
</g>
<!-- Node16 -->
<g id="Node000016" class="node">
<title>Node16</title>
<g id="a_Node000016"><a xlink:href="class_properties_panel.html#aec82450a3daeb2614c2321e37897f1dd" target="_top" xlink:title=" ">
<polygon fill="white" stroke="#666666" points="483.75,-572 350.75,-572 350.75,-540 483.75,-540 483.75,-572"/>
<text xml:space="preserve" text-anchor="start" x="358.75" y="-558.5" font-family="Helvetica,sans-Serif" font-size="10.00">PropertiesPanel::onCombo</text>
<text xml:space="preserve" text-anchor="middle" x="417.25" y="-546.5" font-family="Helvetica,sans-Serif" font-size="10.00">BoxChanged</text>
</a>
</g>
</g>
<!-- Node4&#45;&gt;Node16 -->
<g id="edge52_Node000004_Node000016" class="edge">
<title>Node4&#45;&gt;Node16</title>
<g id="a_edge52_Node000004_Node000016"><a xlink:title=" ">
<path fill="none" stroke="#63b8ff" d="M2285.74,-682.61C2196.78,-708.82 2041.33,-752 1982.75,-752 1982.75,-752 1982.75,-752 1305.88,-752 957.11,-752 810.43,-958.97 521.25,-764 485.87,-740.15 503.76,-713.45 485.25,-675 467.05,-637.19 441.99,-594.77 428.25,-572.2"/>
<polygon fill="#63b8ff" stroke="#63b8ff" points="2286.46,-686.05 2295.06,-679.86 2284.48,-679.34 2286.46,-686.05"/>
</a>
</g>
</g>
<!-- Node20 -->
<g id="Node000020" class="node">
<title>Node20</title>
<g id="a_Node000020"><a xlink:href="class_properties_panel.html#aec8130201106284c02f21903b516554d" target="_top" xlink:title=" ">
<polygon fill="white" stroke="#666666" points="676.38,-436 539.62,-436 539.62,-404 676.38,-404 676.38,-436"/>
<text xml:space="preserve" text-anchor="start" x="547.62" y="-422.5" font-family="Helvetica,sans-Serif" font-size="10.00">PropertiesPanel::onLineEdit</text>
<text xml:space="preserve" text-anchor="middle" x="608" y="-410.5" font-family="Helvetica,sans-Serif" font-size="10.00">Changed</text>
</a>
</g>
</g>
<!-- Node4&#45;&gt;Node20 -->
<g id="edge53_Node000004_Node000020" class="edge">
<title>Node4&#45;&gt;Node20</title>
<g id="a_edge53_Node000004_Node000020"><a xlink:title=" ">
<path fill="none" stroke="#63b8ff" d="M2280.8,-641.47C2278.81,-640.36 2276.87,-639.21 2275,-638 2255.17,-625.22 2256.45,-614.87 2239,-599 2133.12,-502.72 2125.86,-404 1982.75,-404 1982.75,-404 1982.75,-404 981.75,-404 875.04,-404 751.3,-410.63 676.64,-415.35"/>
<polygon fill="#63b8ff" stroke="#63b8ff" points="2279.2,-644.58 2289.71,-645.89 2282.31,-638.31 2279.2,-644.58"/>
</a>
</g>
</g>
<!-- Node22 -->
<g id="Node000022" class="node">
<title>Node22</title>
<g id="a_Node000022"><a xlink:href="class_properties_panel.html#a3cdc065abcd2f9e59558903073c0f23f" target="_top" xlink:title=" ">
<polygon fill="white" stroke="#666666" points="677.12,-716 538.88,-716 538.88,-684 677.12,-684 677.12,-716"/>
<text xml:space="preserve" text-anchor="start" x="546.88" y="-702.5" font-family="Helvetica,sans-Serif" font-size="10.00">PropertiesPanel::onProperty</text>
<text xml:space="preserve" text-anchor="middle" x="608" y="-690.5" font-family="Helvetica,sans-Serif" font-size="10.00">ValueChanged</text>
</a>
</g>
</g>
<!-- Node4&#45;&gt;Node22 -->
<g id="edge54_Node000004_Node000022" class="edge">
<title>Node4&#45;&gt;Node22</title>
<g id="a_edge54_Node000004_Node000022"><a xlink:title=" ">
<path fill="none" stroke="#63b8ff" d="M2277.87,-685.59C2276.88,-686.37 2275.93,-687.17 2275,-688 2246.52,-713.43 2270.17,-743.94 2239,-766 2145.63,-832.08 2097.14,-790 1982.75,-790 1982.75,-790 1982.75,-790 1305.88,-790 1073.79,-790 801.78,-740.29 677.37,-714.76"/>
<polygon fill="#63b8ff" stroke="#63b8ff" points="2279.65,-688.61 2286.03,-680.15 2275.77,-682.78 2279.65,-688.61"/>
</a>
</g>
</g>
<!-- Node5&#45;&gt;Node6 -->
<g id="edge5_Node000005_Node000006" class="edge">
<title>Node5&#45;&gt;Node6</title>
<g id="a_edge5_Node000005_Node000006"><a xlink:title=" ">
<path fill="none" stroke="#63b8ff" d="M2115.37,-641.64C2084.91,-627.03 2045.12,-607.93 2017.1,-594.48"/>
<polygon fill="#63b8ff" stroke="#63b8ff" points="2113.83,-644.79 2124.36,-645.96 2116.86,-638.47 2113.83,-644.79"/>
</a>
</g>
</g>
<!-- Node5&#45;&gt;Node16 -->
<g id="edge49_Node000005_Node000016" class="edge">
<title>Node5&#45;&gt;Node16</title>
<g id="a_edge49_Node000005_Node000016"><a xlink:title=" ">
<path fill="none" stroke="#63b8ff" d="M2071.32,-668.09C2000.29,-671.73 1898.02,-676 1808.5,-676 1808.5,-676 1808.5,-676 1142.12,-676 865.32,-676 762.59,-860.54 521.25,-725 513.54,-720.67 451.54,-613.88 427.62,-572.33"/>
<polygon fill="#63b8ff" stroke="#63b8ff" points="2071.13,-671.6 2080.93,-667.59 2070.77,-664.61 2071.13,-671.6"/>
</a>
</g>
</g>
<!-- Node5&#45;&gt;Node22 -->
<g id="edge50_Node000005_Node000022" class="edge">
<title>Node5&#45;&gt;Node22</title>
<g id="a_edge50_Node000005_Node000022"><a xlink:title=" ">
<path fill="none" stroke="#63b8ff" d="M2086.68,-681.98C2073.45,-684.98 2059.74,-687.81 2046.75,-690 1941.81,-707.73 1914.92,-714 1808.5,-714 1808.5,-714 1808.5,-714 1142.12,-714 975.23,-714 779.06,-707.06 677.57,-702.95"/>
<polygon fill="#63b8ff" stroke="#63b8ff" points="2087.23,-685.45 2096.17,-679.77 2085.64,-678.63 2087.23,-685.45"/>
</a>
</g>
</g>
<!-- Node7 -->
<g id="Node000007" class="node">
<title>Node7</title>
<g id="a_Node000007"><a xlink:href="class_properties_panel.html#acfb41226221624e46767835caeea8abc" target="_top" xlink:title=" ">
<polygon fill="white" stroke="#666666" points="1880.75,-326 1734.25,-326 1734.25,-294 1880.75,-294 1880.75,-326"/>
<text xml:space="preserve" text-anchor="start" x="1742.25" y="-312.5" font-family="Helvetica,sans-Serif" font-size="10.00">PropertiesPanel::createCheck</text>
<text xml:space="preserve" text-anchor="middle" x="1807.5" y="-300.5" font-family="Helvetica,sans-Serif" font-size="10.00">BoxPropertyItem</text>
</a>
</g>
</g>
<!-- Node6&#45;&gt;Node7 -->
<g id="edge6_Node000006_Node000007" class="edge">
<title>Node6&#45;&gt;Node7</title>
<g id="a_edge6_Node000006_Node000007"><a xlink:title=" ">
<path fill="none" stroke="#63b8ff" d="M1964.03,-551.98C1928.86,-497.26 1848.08,-371.59 1819.1,-326.49"/>
<polygon fill="#63b8ff" stroke="#63b8ff" points="1961.06,-553.85 1969.42,-560.37 1966.95,-550.06 1961.06,-553.85"/>
</a>
</g>
</g>
<!-- Node8 -->
<g id="Node000008" class="node">
<title>Node8</title>
<g id="a_Node000008"><a xlink:href="class_properties_panel.html#acc5a2b4e63ea74eaa34853f1cec46b81" target="_top" xlink:title=" ">
<polygon fill="white" stroke="#666666" points="1698.25,-108 1570.5,-108 1570.5,-76 1698.25,-76 1698.25,-108"/>
<text xml:space="preserve" text-anchor="start" x="1578.5" y="-94.5" font-family="Helvetica,sans-Serif" font-size="10.00">PropertiesPanel::populate</text>
<text xml:space="preserve" text-anchor="middle" x="1634.38" y="-82.5" font-family="Helvetica,sans-Serif" font-size="10.00">AttributeProperties</text>
</a>
</g>
</g>
<!-- Node7&#45;&gt;Node8 -->
<g id="edge7_Node000007_Node000008" class="edge">
<title>Node7&#45;&gt;Node8</title>
<g id="a_edge7_Node000007_Node000008"><a xlink:title=" ">
<path fill="none" stroke="#63b8ff" d="M1786.67,-284.74C1751.18,-239.53 1677.75,-145.98 1648.15,-108.28"/>
<polygon fill="#63b8ff" stroke="#63b8ff" points="1783.78,-286.72 1792.7,-292.42 1789.28,-282.4 1783.78,-286.72"/>
</a>
</g>
</g>
<!-- Node15 -->
<g id="Node000015" class="node">
<title>Node15</title>
<g id="a_Node000015"><a xlink:href="class_properties_panel.html#aeb116e2e51099f618b5d284e492bc0e2" target="_top" xlink:title=" ">
<polygon fill="white" stroke="#666666" points="1370.75,-244 1243,-244 1243,-212 1370.75,-212 1370.75,-244"/>
<text xml:space="preserve" text-anchor="start" x="1251" y="-230.5" font-family="Helvetica,sans-Serif" font-size="10.00">PropertiesPanel::populate</text>
<text xml:space="preserve" text-anchor="middle" x="1306.88" y="-218.5" font-family="Helvetica,sans-Serif" font-size="10.00">RelationshipProperties</text>
</a>
</g>
</g>
<!-- Node7&#45;&gt;Node15 -->
<g id="edge48_Node000007_Node000015" class="edge">
<title>Node7&#45;&gt;Node15</title>
<g id="a_edge48_Node000007_Node000015"><a xlink:title=" ">
<path fill="none" stroke="#63b8ff" d="M1722.81,-296.24C1623.52,-279.91 1460.25,-253.06 1370.99,-238.38"/>
<polygon fill="#63b8ff" stroke="#63b8ff" points="1722.07,-299.66 1732.5,-297.83 1723.2,-292.75 1722.07,-299.66"/>
</a>
</g>
</g>
<!-- Node9 -->
<g id="Node000009" class="node">
<title>Node9</title>
<g id="a_Node000009"><a xlink:href="class_properties_panel.html#a050a4a9040c7aeefde9c1377d2e1909e" target="_top" xlink:title=" ">
<polygon fill="white" stroke="#666666" points="1534.5,-86 1406.75,-86 1406.75,-54 1534.5,-54 1534.5,-86"/>
<text xml:space="preserve" text-anchor="start" x="1414.75" y="-72.5" font-family="Helvetica,sans-Serif" font-size="10.00">PropertiesPanel::populate</text>
<text xml:space="preserve" text-anchor="middle" x="1470.62" y="-60.5" font-family="Helvetica,sans-Serif" font-size="10.00">AttributeList</text>
</a>
</g>
</g>
<!-- Node8&#45;&gt;Node9 -->
<g id="edge8_Node000008_Node000009" class="edge">
<title>Node8&#45;&gt;Node9</title>
<g id="a_edge8_Node000008_Node000009"><a xlink:title=" ">
<path fill="none" stroke="#63b8ff" d="M1559.08,-75.17C1551.03,-74.02 1542.89,-72.96 1534.99,-72.01"/>
<polygon fill="#63b8ff" stroke="#63b8ff" points="1558.47,-78.61 1568.88,-76.61 1559.5,-71.69 1558.47,-78.61"/>
</a>
</g>
</g>
<!-- Node11 -->
<g id="Node000011" class="node">
<title>Node11</title>
<g id="a_Node000011"><a xlink:href="class_properties_panel.html#a037586f897062f3915a123b9f2a82b91" target="_top" xlink:title=" ">
<polygon fill="white" stroke="#666666" points="1207,-326 1079.25,-326 1079.25,-294 1207,-294 1207,-326"/>
<text xml:space="preserve" text-anchor="start" x="1087.25" y="-312.5" font-family="Helvetica,sans-Serif" font-size="10.00">PropertiesPanel::populate</text>
<text xml:space="preserve" text-anchor="middle" x="1143.12" y="-300.5" font-family="Helvetica,sans-Serif" font-size="10.00">ForElement</text>
</a>
</g>
</g>
<!-- Node8&#45;&gt;Node11 -->
<g id="edge47_Node000008_Node000011" class="edge">
<title>Node8&#45;&gt;Node11</title>
<g id="a_edge47_Node000008_Node000011"><a xlink:title=" ">
<path fill="none" stroke="#63b8ff" d="M1602.69,-115.14C1555.32,-149.83 1460.45,-215.27 1370.75,-253 1317.65,-275.34 1253.73,-290.43 1207.33,-299.45"/>
<polygon fill="#63b8ff" stroke="#63b8ff" points="1604.6,-118.08 1610.57,-109.33 1600.45,-112.45 1604.6,-118.08"/>
</a>
</g>
</g>
<!-- Node9&#45;&gt;Node8 -->
<g id="edge9_Node000009_Node000008" class="edge">
<title>Node9&#45;&gt;Node8</title>
<g id="a_edge9_Node000009_Node000008"><a xlink:title=" ">
<path fill="none" stroke="#63b8ff" d="M1546.28,-86.89C1554.34,-88.03 1562.48,-89.09 1570.38,-90.03"/>
<polygon fill="#63b8ff" stroke="#63b8ff" points="1546.89,-83.44 1536.48,-85.45 1545.87,-90.36 1546.89,-83.44"/>
</a>
</g>
</g>
<!-- Node10 -->
<g id="Node000010" class="node">
<title>Node10</title>
<g id="a_Node000010"><a xlink:href="class_properties_panel.html#a6a4344308af5b2c993bc25981529239c" target="_top" xlink:title=" ">
<polygon fill="white" stroke="#666666" points="481.12,-162 353.38,-162 353.38,-130 481.12,-130 481.12,-162"/>
<text xml:space="preserve" text-anchor="start" x="361.38" y="-148.5" font-family="Helvetica,sans-Serif" font-size="10.00">PropertiesPanel::populate</text>
<text xml:space="preserve" text-anchor="middle" x="417.25" y="-136.5" font-family="Helvetica,sans-Serif" font-size="10.00">EntityProperties</text>
</a>
</g>
</g>
<!-- Node9&#45;&gt;Node10 -->
<g id="edge10_Node000009_Node000010" class="edge">
<title>Node9&#45;&gt;Node10</title>
<g id="a_edge10_Node000009_Node000010"><a xlink:title=" ">
<path fill="none" stroke="#63b8ff" d="M1395.41,-58.53C1329.56,-49.35 1230.68,-38 1144.12,-38 1144.12,-38 1144.12,-38 807.5,-38 672.15,-38 519.64,-99.38 452.78,-129.6"/>
<polygon fill="#63b8ff" stroke="#63b8ff" points="1394.6,-61.95 1404.99,-59.88 1395.58,-55.02 1394.6,-61.95"/>
</a>
</g>
</g>
<!-- Node9&#45;&gt;Node15 -->
<g id="edge46_Node000009_Node000015" class="edge">
<title>Node9&#45;&gt;Node15</title>
<g id="a_edge46_Node000009_Node000015"><a xlink:title=" ">
<path fill="none" stroke="#63b8ff" d="M1445.05,-94C1411.82,-126.47 1353.41,-183.52 1324.73,-211.54"/>
<polygon fill="#63b8ff" stroke="#63b8ff" points="1447.13,-96.86 1451.84,-87.37 1442.24,-91.86 1447.13,-96.86"/>
</a>
</g>
</g>
<!-- Node10&#45;&gt;Node11 -->
<g id="edge11_Node000010_Node000011" class="edge">
<title>Node10&#45;&gt;Node11</title>
<g id="a_edge11_Node000010_Node000011"><a xlink:title=" ">
<path fill="none" stroke="#63b8ff" d="M492.3,-164.14C502.03,-166.48 511.88,-168.81 521.25,-171 724.83,-218.49 966.72,-271.73 1079.03,-296.26"/>
<polygon fill="#63b8ff" stroke="#63b8ff" points="493.41,-160.81 482.87,-161.87 491.77,-167.61 493.41,-160.81"/>
</a>
</g>
</g>
<!-- Node12 -->
<g id="Node000012" class="node">
<title>Node12</title>
<g id="a_Node000012"><a xlink:href="class_properties_panel.html#a139ae0158b486c6004e15e0ddf36f319" target="_top" xlink:title=" ">
<polygon fill="white" stroke="#666666" points="1043.25,-501 922.25,-501 922.25,-481 1043.25,-481 1043.25,-501"/>
<text xml:space="preserve" text-anchor="middle" x="982.75" y="-487.5" font-family="Helvetica,sans-Serif" font-size="10.00">PropertiesPanel::refresh</text>
</a>
</g>
</g>
<!-- Node11&#45;&gt;Node12 -->
<g id="edge12_Node000011_Node000012" class="edge">
<title>Node11&#45;&gt;Node12</title>
<g id="a_edge12_Node000011_Node000012"><a xlink:title=" ">
<path fill="none" stroke="#63b8ff" d="M1120.42,-334.81C1085.31,-374.93 1017.51,-452.41 992.93,-480.5"/>
<polygon fill="#63b8ff" stroke="#63b8ff" points="1122.84,-337.35 1126.79,-327.52 1117.58,-332.74 1122.84,-337.35"/>
</a>
</g>
</g>
<!-- Node12&#45;&gt;Node6 -->
<g id="edge20_Node000012_Node000006" class="edge">
<title>Node12&#45;&gt;Node6</title>
<g id="a_edge20_Node000012_Node000006"><a xlink:title=" ">
<path fill="none" stroke="#63b8ff" d="M1055,-498.66C1120.21,-505.01 1219.42,-513 1305.88,-513 1635.38,-513 1635.38,-513 1635.38,-513 1745.53,-513 1773.16,-524.33 1880.75,-548 1897.39,-551.66 1915.29,-556.68 1931.29,-561.56"/>
<polygon fill="#63b8ff" stroke="#63b8ff" points="1055.43,-495.19 1045.14,-497.69 1054.74,-502.16 1055.43,-495.19"/>
</a>
</g>
</g>
<!-- Node13 -->
<g id="Node000013" class="node">
<title>Node13</title>
<g id="a_Node000013"><a xlink:href="class_properties_panel.html#a55ae5c02e7d75c7bdc26281a148e8c5a" target="_top" xlink:title=" ">
<polygon fill="white" stroke="#666666" points="886.25,-326 730.75,-326 730.75,-294 886.25,-294 886.25,-326"/>
<text xml:space="preserve" text-anchor="start" x="738.75" y="-312.5" font-family="Helvetica,sans-Serif" font-size="10.00">PropertiesPanel::onAddAttribute</text>
<text xml:space="preserve" text-anchor="middle" x="808.5" y="-300.5" font-family="Helvetica,sans-Serif" font-size="10.00">OnTreeClicked</text>
</a>
</g>
</g>
<!-- Node12&#45;&gt;Node13 -->
<g id="edge13_Node000012_Node000013" class="edge">
<title>Node12&#45;&gt;Node13</title>
<g id="a_edge13_Node000012_Node000013"><a xlink:title=" ">
<path fill="none" stroke="#63b8ff" d="M974.46,-470.15C961.76,-436.78 932.41,-371.43 886.25,-335 882.07,-331.7 877.44,-328.83 872.59,-326.33"/>
<polygon fill="#63b8ff" stroke="#63b8ff" points="971.02,-470.91 977.74,-479.1 977.59,-468.5 971.02,-470.91"/>
</a>
</g>
</g>
<!-- Node12&#45;&gt;Node16 -->
<g id="edge21_Node000012_Node000016" class="edge">
<title>Node12&#45;&gt;Node16</title>
<g id="a_edge21_Node000012_Node000016"><a xlink:title=" ">
<path fill="none" stroke="#63b8ff" d="M910.68,-499.2C800.62,-511.89 590.55,-536.13 483.89,-548.43"/>
<polygon fill="#63b8ff" stroke="#63b8ff" points="910.94,-502.69 920.48,-498.07 910.14,-495.74 910.94,-502.69"/>
</a>
</g>
</g>
<!-- Node12&#45;&gt;Node20 -->
<g id="edge28_Node000012_Node000020" class="edge">
<title>Node12&#45;&gt;Node20</title>
<g id="a_edge28_Node000012_Node000020"><a xlink:title=" ">
<path fill="none" stroke="#63b8ff" d="M934.42,-477.69C919.12,-473.64 902.03,-469.37 886.25,-466 815.27,-450.85 733.17,-437.78 676.84,-429.48"/>
<polygon fill="#63b8ff" stroke="#63b8ff" points="933.18,-480.98 943.74,-480.2 934.99,-474.22 933.18,-480.98"/>
</a>
</g>
</g>
<!-- Node12&#45;&gt;Node22 -->
<g id="edge31_Node000012_Node000022" class="edge">
<title>Node12&#45;&gt;Node22</title>
<g id="a_edge31_Node000012_Node000022"><a xlink:title=" ">
<path fill="none" stroke="#63b8ff" d="M960.51,-509.76C942.42,-528.92 914.87,-558.02 886.25,-578 810.6,-630.81 706.57,-664.71 649.88,-683.54"/>
<polygon fill="#63b8ff" stroke="#63b8ff" points="962.98,-512.24 967.32,-502.58 957.9,-507.43 962.98,-512.24"/>
</a>
</g>
</g>
<!-- Node24 -->
<g id="Node000024" class="node">
<title>Node24</title>
<g id="a_Node000024"><a xlink:href="class_properties_panel.html#a8a2ec0bcba44f3bbd0245d3a53ff49f7" target="_top" xlink:title=" ">
<polygon fill="white" stroke="#666666" points="877.62,-376 739.38,-376 739.38,-344 877.62,-344 877.62,-376"/>
<text xml:space="preserve" text-anchor="start" x="747.38" y="-362.5" font-family="Helvetica,sans-Serif" font-size="10.00">PropertiesPanel::onRemove</text>
<text xml:space="preserve" text-anchor="middle" x="808.5" y="-350.5" font-family="Helvetica,sans-Serif" font-size="10.00">AttributeOnTreeClicked</text>
</a>
</g>
</g>
<!-- Node12&#45;&gt;Node24 -->
<g id="edge34_Node000012_Node000024" class="edge">
<title>Node12&#45;&gt;Node24</title>
<g id="a_edge34_Node000012_Node000024"><a xlink:title=" ">
<path fill="none" stroke="#63b8ff" d="M958.94,-473.65C925.52,-448.24 863.7,-401.22 831.03,-376.38"/>
<polygon fill="#63b8ff" stroke="#63b8ff" points="956.66,-476.32 966.74,-479.58 960.9,-470.75 956.66,-476.32"/>
</a>
</g>
</g>
<!-- Node25 -->
<g id="Node000025" class="node">
<title>Node25</title>
<g id="a_Node000025"><a xlink:href="class_properties_panel.html#a79618c5c820a40931c085d54be70bd34" target="_top" xlink:title=" ">
<polygon fill="white" stroke="#666666" points="871.25,-578 745.75,-578 745.75,-546 871.25,-546 871.25,-578"/>
<text xml:space="preserve" text-anchor="start" x="753.75" y="-564.5" font-family="Helvetica,sans-Serif" font-size="10.00">PropertiesPanel::updates</text>
<text xml:space="preserve" text-anchor="middle" x="808.5" y="-552.5" font-family="Helvetica,sans-Serif" font-size="10.00">AfterChangingProperty</text>
</a>
</g>
</g>
<!-- Node12&#45;&gt;Node25 -->
<g id="edge36_Node000012_Node000025" class="edge">
<title>Node12&#45;&gt;Node25</title>
<g id="a_edge36_Node000012_Node000025"><a xlink:title=" ">
<path fill="none" stroke="#63b8ff" d="M947.52,-506.02C929.38,-513.9 906.67,-523.63 886.25,-532 875.26,-536.5 863.33,-541.24 852.23,-545.59"/>
<polygon fill="#63b8ff" stroke="#63b8ff" points="948.74,-509.3 956.51,-502.1 945.95,-502.89 948.74,-509.3"/>
</a>
</g>
</g>
<!-- Node14 -->
<g id="Node000014" class="node">
<title>Node14</title>
<g id="a_Node000014"><a xlink:href="class_properties_panel.html#a90cca2a241daa84841ee3e90d7768c8f" target="_top" xlink:title=" ">
<polygon fill="white" stroke="#666666" points="681.25,-162 534.75,-162 534.75,-130 681.25,-130 681.25,-162"/>
<text xml:space="preserve" text-anchor="start" x="542.75" y="-148.5" font-family="Helvetica,sans-Serif" font-size="10.00">PropertiesPanel::createButton</text>
<text xml:space="preserve" text-anchor="middle" x="608" y="-136.5" font-family="Helvetica,sans-Serif" font-size="10.00">PropertyItem</text>
</a>
</g>
</g>
<!-- Node13&#45;&gt;Node14 -->
<g id="edge14_Node000013_Node000014" class="edge">
<title>Node13&#45;&gt;Node14</title>
<g id="a_edge14_Node000013_Node000014"><a xlink:title=" ">
<path fill="none" stroke="#63b8ff" d="M779.08,-286.52C738.24,-252.78 663.99,-191.44 628.68,-162.26"/>
<polygon fill="#63b8ff" stroke="#63b8ff" points="776.64,-289.04 786.57,-292.71 781.09,-283.64 776.64,-289.04"/>
</a>
</g>
</g>
<!-- Node14&#45;&gt;Node8 -->
<g id="edge16_Node000014_Node000008" class="edge">
<title>Node14&#45;&gt;Node8</title>
<g id="a_edge16_Node000014_Node000008"><a xlink:title=" ">
<path fill="none" stroke="#63b8ff" d="M693,-134.65C768.43,-125.45 882.28,-114 981.75,-114 1307.88,-114 1307.88,-114 1307.88,-114 1399.21,-114 1504.62,-105.27 1570.15,-98.81"/>
<polygon fill="#63b8ff" stroke="#63b8ff" points="692.69,-131.16 683.2,-135.86 693.55,-138.11 692.69,-131.16"/>
</a>
</g>
</g>
<!-- Node14&#45;&gt;Node9 -->
<g id="edge15_Node000014_Node000009" class="edge">
<title>Node14&#45;&gt;Node9</title>
<g id="a_edge15_Node000014_Node000009"><a xlink:title=" ">
<path fill="none" stroke="#63b8ff" d="M655.49,-125.1C677.82,-115.94 705.22,-105.93 730.75,-100 839.91,-74.64 869.69,-76 981.75,-76 1144.12,-76 1144.12,-76 1144.12,-76 1235.26,-76 1340.73,-73.62 1406.32,-71.86"/>
<polygon fill="#63b8ff" stroke="#63b8ff" points="654.24,-121.83 646.37,-128.93 656.94,-128.29 654.24,-121.83"/>
</a>
</g>
</g>
<!-- Node14&#45;&gt;Node10 -->
<g id="edge17_Node000014_Node000010" class="edge">
<title>Node14&#45;&gt;Node10</title>
<g id="a_edge17_Node000014_Node000010"><a xlink:title=" ">
<path fill="none" stroke="#63b8ff" d="M523.14,-146C509.11,-146 494.78,-146 481.38,-146"/>
<polygon fill="#63b8ff" stroke="#63b8ff" points="522.78,-149.5 532.78,-146 522.78,-142.5 522.78,-149.5"/>
</a>
</g>
</g>
<!-- Node14&#45;&gt;Node15 -->
<g id="edge18_Node000014_Node000015" class="edge">
<title>Node14&#45;&gt;Node15</title>
<g id="a_edge18_Node000014_Node000015"><a xlink:title=" ">
<path fill="none" stroke="#63b8ff" d="M692.99,-148.65C780.69,-152.16 922.09,-159.89 1043.25,-176 1111.9,-185.13 1189.6,-201.25 1242.57,-213.13"/>
<polygon fill="#63b8ff" stroke="#63b8ff" points="693.15,-145.16 683.02,-148.26 692.88,-152.15 693.15,-145.16"/>
</a>
</g>
</g>
<!-- Node15&#45;&gt;Node11 -->
<g id="edge19_Node000015_Node000011" class="edge">
<title>Node15&#45;&gt;Node11</title>
<g id="a_edge19_Node000015_Node000011"><a xlink:title=" ">
<path fill="none" stroke="#63b8ff" d="M1259.8,-249.31C1254.1,-252.14 1248.38,-255.08 1243,-258 1226.52,-266.94 1223.48,-271.06 1207,-280 1198.39,-284.67 1188.93,-289.39 1180.03,-293.66"/>
<polygon fill="#63b8ff" stroke="#63b8ff" points="1261.16,-252.54 1268.61,-245.01 1258.09,-246.25 1261.16,-252.54"/>
</a>
</g>
</g>
<!-- Node17 -->
<g id="Node000017" class="node">
<title>Node17</title>
<g id="a_Node000017"><a xlink:href="class_properties_panel.html#a8fd53ec3c9f711c3354483e8bb4d0b47" target="_top" xlink:title=" ">
<polygon fill="white" stroke="#666666" points="313.25,-244 163.75,-244 163.75,-212 313.25,-212 313.25,-244"/>
<text xml:space="preserve" text-anchor="start" x="171.75" y="-230.5" font-family="Helvetica,sans-Serif" font-size="10.00">PropertiesPanel::createCombo</text>
<text xml:space="preserve" text-anchor="middle" x="238.5" y="-218.5" font-family="Helvetica,sans-Serif" font-size="10.00">BoxPropertyItem</text>
</a>
</g>
</g>
<!-- Node16&#45;&gt;Node17 -->
<g id="edge22_Node000016_Node000017" class="edge">
<title>Node16&#45;&gt;Node17</title>
<g id="a_edge22_Node000016_Node000017"><a xlink:title=" ">
<path fill="none" stroke="#63b8ff" d="M402.17,-529.87C367.15,-464.89 276.9,-297.4 248.32,-244.36"/>
<polygon fill="#63b8ff" stroke="#63b8ff" points="398.94,-531.26 406.77,-538.4 405.1,-527.94 398.94,-531.26"/>
</a>
</g>
</g>
<!-- Node18 -->
<g id="Node000018" class="node">
<title>Node18</title>
<g id="a_Node000018"><a xlink:href="class_properties_panel.html#a32c2dab00c58ffdcb6a1e3cd829d03c8" target="_top" xlink:title=" ">
<polygon fill="white" stroke="#666666" points="306.88,-556 170.12,-556 170.12,-524 306.88,-524 306.88,-556"/>
<text xml:space="preserve" text-anchor="start" x="178.12" y="-542.5" font-family="Helvetica,sans-Serif" font-size="10.00">PropertiesPanel::createIcon</text>
<text xml:space="preserve" text-anchor="middle" x="238.5" y="-530.5" font-family="Helvetica,sans-Serif" font-size="10.00">ComboBoxPropertyItem</text>
</a>
</g>
</g>
<!-- Node16&#45;&gt;Node18 -->
<g id="edge25_Node000016_Node000018" class="edge">
<title>Node16&#45;&gt;Node18</title>
<g id="a_edge25_Node000016_Node000018"><a xlink:title=" ">
<path fill="none" stroke="#63b8ff" d="M339.03,-549.01C328.41,-548.05 317.57,-547.07 307.14,-546.12"/>
<polygon fill="#63b8ff" stroke="#63b8ff" points="338.65,-552.49 348.93,-549.91 339.28,-545.52 338.65,-552.49"/>
</a>
</g>
</g>
<!-- Node17&#45;&gt;Node8 -->
<g id="edge23_Node000017_Node000008" class="edge">
<title>Node17&#45;&gt;Node8</title>
<g id="a_edge23_Node000017_Node000008"><a xlink:title=" ">
<path fill="none" stroke="#63b8ff" d="M260.21,-203.21C312.04,-144.15 454.17,0 607,0 1307.88,0 1307.88,0 1307.88,0 1410.56,0 1437.02,-12.71 1534.5,-45 1558.68,-53.01 1584.63,-65.51 1603.88,-75.61"/>
<polygon fill="#63b8ff" stroke="#63b8ff" points="257.84,-200.6 253.94,-210.46 263.13,-205.18 257.84,-200.6"/>
</a>
</g>
</g>
<!-- Node17&#45;&gt;Node15 -->
<g id="edge24_Node000017_Node000015" class="edge">
<title>Node17&#45;&gt;Node15</title>
<g id="a_edge24_Node000017_Node000015"><a xlink:title=" ">
<path fill="none" stroke="#63b8ff" d="M324.58,-228C399.07,-228 510.2,-228 607,-228 983.75,-228 983.75,-228 983.75,-228 1073.65,-228 1177.66,-228 1242.61,-228"/>
<polygon fill="#63b8ff" stroke="#63b8ff" points="324.92,-224.5 314.92,-228 324.92,-231.5 324.92,-224.5"/>
</a>
</g>
</g>
<!-- Node19 -->
<g id="Node000019" class="node">
<title>Node19</title>
<g id="a_Node000019"><a xlink:href="class_properties_panel.html#adbc7f8deb3a687706dc44ebbd7e39d9d" target="_top" xlink:title=" ">
<polygon fill="white" stroke="#666666" points="127.75,-526 0,-526 0,-494 127.75,-494 127.75,-526"/>
<text xml:space="preserve" text-anchor="start" x="8" y="-512.5" font-family="Helvetica,sans-Serif" font-size="10.00">PropertiesPanel::populate</text>
<text xml:space="preserve" text-anchor="middle" x="63.88" y="-500.5" font-family="Helvetica,sans-Serif" font-size="10.00">ForConnection</text>
</a>
</g>
</g>
<!-- Node18&#45;&gt;Node19 -->
<g id="edge26_Node000018_Node000019" class="edge">
<title>Node18&#45;&gt;Node19</title>
<g id="a_edge26_Node000018_Node000019"><a xlink:title=" ">
<path fill="none" stroke="#63b8ff" d="M158.74,-526.31C148.51,-524.53 138.13,-522.73 128.18,-521"/>
<polygon fill="#63b8ff" stroke="#63b8ff" points="157.83,-529.71 168.28,-527.97 159.03,-522.81 157.83,-529.71"/>
</a>
</g>
</g>
<!-- Node19&#45;&gt;Node12 -->
<g id="edge27_Node000019_Node000012" class="edge">
<title>Node19&#45;&gt;Node12</title>
<g id="a_edge27_Node000019_Node000012"><a xlink:title=" ">
<path fill="none" stroke="#63b8ff" d="M139.27,-499.95C210.28,-491.23 320.36,-480 416.25,-480 609,-480 609,-480 609,-480 719.55,-480 848.45,-484.89 922.05,-488.15"/>
<polygon fill="#63b8ff" stroke="#63b8ff" points="139.21,-496.43 129.71,-501.14 140.07,-503.37 139.21,-496.43"/>
</a>
</g>
</g>
<!-- Node21 -->
<g id="Node000021" class="node">
<title>Node21</title>
<g id="a_Node000021"><a xlink:href="class_properties_panel.html#a7bc224323f9c626842fdb6a89205c9bc" target="_top" xlink:title=" ">
<polygon fill="white" stroke="#666666" points="485.25,-370 349.25,-370 349.25,-338 485.25,-338 485.25,-370"/>
<text xml:space="preserve" text-anchor="start" x="357.25" y="-356.5" font-family="Helvetica,sans-Serif" font-size="10.00">PropertiesPanel::createLine</text>
<text xml:space="preserve" text-anchor="middle" x="417.25" y="-344.5" font-family="Helvetica,sans-Serif" font-size="10.00">EditPropertyItem</text>
</a>
</g>
</g>
<!-- Node20&#45;&gt;Node21 -->
<g id="edge29_Node000020_Node000021" class="edge">
<title>Node20&#45;&gt;Node21</title>
<g id="a_edge29_Node000020_Node000021"><a xlink:title=" ">
<path fill="none" stroke="#63b8ff" d="M549.02,-399.73C522.1,-390.31 490.51,-379.27 465.12,-370.39"/>
<polygon fill="#63b8ff" stroke="#63b8ff" points="547.83,-403.02 558.43,-403.02 550.14,-396.41 547.83,-403.02"/>
</a>
</g>
</g>
<!-- Node21&#45;&gt;Node15 -->
<g id="edge30_Node000021_Node000015" class="edge">
<title>Node21&#45;&gt;Node15</title>
<g id="a_edge30_Node000021_Node000015"><a xlink:title=" ">
<path fill="none" stroke="#63b8ff" d="M472.09,-333.84C546.42,-307.86 685.17,-266 807.5,-266 983.75,-266 983.75,-266 983.75,-266 1074.13,-266 1177.8,-251.06 1242.57,-239.92"/>
<polygon fill="#63b8ff" stroke="#63b8ff" points="471.29,-330.41 463.03,-337.05 473.62,-337.01 471.29,-330.41"/>
</a>
</g>
</g>
<!-- Node22&#45;&gt;Node12 -->
<g id="edge33_Node000022_Node000012" class="edge">
<title>Node22&#45;&gt;Node12</title>
<g id="a_edge33_Node000022_Node000012"><a xlink:title=" ">
<path fill="none" stroke="#63b8ff" d="M688.57,-685.45C746.68,-668.53 825.59,-638.34 886.25,-596 926.15,-568.15 963.97,-522.57 976.98,-501.39"/>
<polygon fill="#63b8ff" stroke="#63b8ff" points="687.72,-682.05 679.06,-688.14 689.63,-688.78 687.72,-682.05"/>
</a>
</g>
</g>
<!-- Node23 -->
<g id="Node000023" class="node">
<title>Node23</title>
<g id="a_Node000023"><a xlink:href="class_properties_panel.html#a9866823e02faefceaae94fc0b0537707" target="_top" xlink:title=" ">
<polygon fill="white" stroke="#666666" points="484.88,-716 349.62,-716 349.62,-684 484.88,-684 484.88,-716"/>
<text xml:space="preserve" text-anchor="start" x="357.62" y="-702.5" font-family="Helvetica,sans-Serif" font-size="10.00">PropertiesPanel::Properties</text>
<text xml:space="preserve" text-anchor="middle" x="417.25" y="-690.5" font-family="Helvetica,sans-Serif" font-size="10.00">Panel</text>
</a>
</g>
</g>
<!-- Node22&#45;&gt;Node23 -->
<g id="edge32_Node000022_Node000023" class="edge">
<title>Node22&#45;&gt;Node23</title>
<g id="a_edge32_Node000022_Node000023"><a xlink:title=" ">
<path fill="none" stroke="#63b8ff" d="M527.43,-700C513.36,-700 498.84,-700 485.16,-700"/>
<polygon fill="#63b8ff" stroke="#63b8ff" points="527.08,-703.5 537.08,-700 527.08,-696.5 527.08,-703.5"/>
</a>
</g>
</g>
<!-- Node24&#45;&gt;Node14 -->
<g id="edge35_Node000024_Node000014" class="edge">
<title>Node24&#45;&gt;Node14</title>
<g id="a_edge35_Node000024_Node000014"><a xlink:title=" ">
<path fill="none" stroke="#63b8ff" d="M734.83,-337.93C733.43,-336.99 732.07,-336.02 730.75,-335 668.92,-287.34 629.39,-198.79 615.05,-162.33"/>
<polygon fill="#63b8ff" stroke="#63b8ff" points="732.79,-340.79 743.19,-342.8 736.31,-334.74 732.79,-340.79"/>
</a>
</g>
</g>
<!-- Node25&#45;&gt;Node5 -->
<g id="edge37_Node000025_Node000005" class="edge">
<title>Node25&#45;&gt;Node5</title>
<g id="a_edge37_Node000025_Node000005"><a xlink:title=" ">
<path fill="none" stroke="#63b8ff" d="M882.55,-575.96C1003.95,-597.9 1255.11,-638 1469.62,-638 1808.5,-638 1808.5,-638 1808.5,-638 1902.99,-638 2011.41,-647.11 2082.53,-654.33"/>
<polygon fill="#63b8ff" stroke="#63b8ff" points="883.52,-572.58 873.06,-574.23 882.27,-579.46 883.52,-572.58"/>
</a>
</g>
</g>
<!-- Node25&#45;&gt;Node6 -->
<g id="edge42_Node000025_Node000006" class="edge">
<title>Node25&#45;&gt;Node6</title>
<g id="a_edge42_Node000025_Node000006"><a xlink:title=" ">
<path fill="none" stroke="#63b8ff" d="M883.06,-562C950.46,-562 1053.01,-562 1142.12,-562 1635.38,-562 1635.38,-562 1635.38,-562 1733.52,-562 1847.18,-568.53 1916.5,-573.24"/>
<polygon fill="#63b8ff" stroke="#63b8ff" points="883.24,-558.5 873.24,-562 883.24,-565.5 883.24,-558.5"/>
</a>
</g>
</g>
<!-- Node25&#45;&gt;Node16 -->
<g id="edge43_Node000025_Node000016" class="edge">
<title>Node25&#45;&gt;Node16</title>
<g id="a_edge43_Node000025_Node000016"><a xlink:title=" ">
<path fill="none" stroke="#63b8ff" d="M734.16,-560.87C662.16,-559.76 553.32,-558.08 484.04,-557.01"/>
<polygon fill="#63b8ff" stroke="#63b8ff" points="733.83,-564.36 743.88,-561.02 733.93,-557.37 733.83,-564.36"/>
</a>
</g>
</g>
<!-- Node25&#45;&gt;Node20 -->
<g id="edge44_Node000025_Node000020" class="edge">
<title>Node25&#45;&gt;Node20</title>
<g id="a_edge44_Node000025_Node000020"><a xlink:title=" ">
<path fill="none" stroke="#63b8ff" d="M775.37,-539.02C735.11,-510.21 667.11,-461.57 631.81,-436.32"/>
<polygon fill="#63b8ff" stroke="#63b8ff" points="773.33,-541.86 783.5,-544.83 777.4,-536.17 773.33,-541.86"/>
</a>
</g>
</g>
<!-- Node25&#45;&gt;Node22 -->
<g id="edge45_Node000025_Node000022" class="edge">
<title>Node25&#45;&gt;Node22</title>
<g id="a_edge45_Node000025_Node000022"><a xlink:title=" ">
<path fill="none" stroke="#63b8ff" d="M740.61,-584.09C737.08,-586.47 733.76,-589.1 730.75,-592 701.8,-619.91 724.91,-648.41 694.75,-675 689.63,-679.51 683.74,-683.21 677.49,-686.25"/>
<polygon fill="#63b8ff" stroke="#63b8ff" points="742.2,-587.21 749.03,-579.11 738.64,-581.18 742.2,-587.21"/>
</a>
</g>
</g>
<!-- Node26 -->
<g id="Node000026" class="node">
<title>Node26</title>
<g id="a_Node000026"><a xlink:href="class_properties_panel.html#aa82a2245c62f66554f277c64e643252c" target="_top" xlink:title=" ">
<polygon fill="white" stroke="#666666" points="694.75,-616 521.25,-616 521.25,-584 694.75,-584 694.75,-616"/>
<text xml:space="preserve" text-anchor="start" x="529.25" y="-602.5" font-family="Helvetica,sans-Serif" font-size="10.00">PropertiesPanel::handleRelationship</text>
<text xml:space="preserve" text-anchor="middle" x="608" y="-590.5" font-family="Helvetica,sans-Serif" font-size="10.00">EndCardinalityChange</text>
</a>
</g>
</g>
<!-- Node25&#45;&gt;Node26 -->
<g id="edge38_Node000025_Node000026" class="edge">
<title>Node25&#45;&gt;Node26</title>
<g id="a_edge38_Node000025_Node000026"><a xlink:title=" ">
<path fill="none" stroke="#63b8ff" d="M734.4,-575.99C721.54,-578.46 708.06,-581.04 694.89,-583.56"/>
<polygon fill="#63b8ff" stroke="#63b8ff" points="734.86,-579.47 744.02,-574.15 733.54,-572.59 734.86,-579.47"/>
</a>
</g>
</g>
<!-- Node27 -->
<g id="Node000027" class="node">
<title>Node27</title>
<g id="a_Node000027"><a xlink:href="class_properties_panel.html#ac2741a5b2cb859b07534b8f7c786359b" target="_top" xlink:title=" ">
<polygon fill="white" stroke="#666666" points="694.75,-666 521.25,-666 521.25,-634 694.75,-634 694.75,-666"/>
<text xml:space="preserve" text-anchor="start" x="529.25" y="-652.5" font-family="Helvetica,sans-Serif" font-size="10.00">PropertiesPanel::handleRelationship</text>
<text xml:space="preserve" text-anchor="middle" x="608" y="-640.5" font-family="Helvetica,sans-Serif" font-size="10.00">EndParticipationChange</text>
</a>
</g>
</g>
<!-- Node25&#45;&gt;Node27 -->
<g id="edge40_Node000025_Node000027" class="edge">
<title>Node25&#45;&gt;Node27</title>
<g id="a_edge40_Node000025_Node000027"><a xlink:title=" ">
<path fill="none" stroke="#63b8ff" d="M747.16,-583.08C741.47,-585.81 735.91,-588.78 730.75,-592 712.33,-603.48 713.66,-614.35 694.75,-625 688.94,-628.27 682.66,-631.15 676.24,-633.67"/>
<polygon fill="#63b8ff" stroke="#63b8ff" points="748.41,-586.36 756.1,-579.07 745.54,-579.98 748.41,-586.36"/>
</a>
</g>
</g>
<!-- Node26&#45;&gt;Node16 -->
<g id="edge39_Node000026_Node000016" class="edge">
<title>Node26&#45;&gt;Node16</title>
<g id="a_edge39_Node000026_Node000016"><a xlink:title=" ">
<path fill="none" stroke="#63b8ff" d="M525.45,-580.99C511.62,-577.76 497.4,-574.45 484.04,-571.34"/>
<polygon fill="#63b8ff" stroke="#63b8ff" points="524.44,-584.35 534.97,-583.21 526.03,-577.53 524.44,-584.35"/>
</a>
</g>
</g>
<!-- Node27&#45;&gt;Node6 -->
<g id="edge41_Node000027_Node000006" class="edge">
<title>Node27&#45;&gt;Node6</title>
<g id="a_edge41_Node000027_Node000006"><a xlink:title=" ">
<path fill="none" stroke="#63b8ff" d="M706.2,-640.67C865.53,-626.2 1192.29,-600 1469.62,-600 1635.38,-600 1635.38,-600 1635.38,-600 1733.61,-600 1847.24,-591.03 1916.54,-584.54"/>
<polygon fill="#63b8ff" stroke="#63b8ff" points="706.17,-637.15 696.53,-641.55 706.81,-644.13 706.17,-637.15"/>
</a>
</g>
</g>
</g>
</svg>
