<?xml version="1.0" encoding="UTF-8" standalone="no"?>
<!DOCTYPE svg PUBLIC "-//W3C//DTD SVG 1.1//EN"
 "http://www.w3.org/Graphics/SVG/1.1/DTD/svg11.dtd">
<!-- Generated by graphviz version 14.1.1 (20251213.1925)
 -->
<!-- Title: RelationshipConnectionLine::onRelationshipEndChanged Pages: 1 -->
<svg width="535pt" height="140pt"
 viewBox="0.00 0.00 535.00 140.00" xmlns="http://www.w3.org/2000/svg" xmlns:xlink="http://www.w3.org/1999/xlink">
<g id="graph0" class="graph" transform="scale(1 1) rotate(0) translate(4 136)">
<title>RelationshipConnectionLine::onRelationshipEndChanged</title>
<!-- Node1 -->
<g id="Node000001" class="node">
<title>Node1</title>
<g id="a_Node000001"><a xlink:title=" ">
<polygon fill="#999999" stroke="#666666" points="527.25,-82 384.5,-82 384.5,-50 527.25,-50 527.25,-82"/>
<text xml:space="preserve" text-anchor="start" x="392.5" y="-68.5" font-family="Helvetica,sans-Serif" font-size="10.00">RelationshipConnectionLine</text>
<text xml:space="preserve" text-anchor="middle" x="455.88" y="-56.5" font-family="Helvetica,sans-Serif" font-size="10.00">::onRelationshipEndChanged</text>
</a>
</g>
</g>
<!-- Node2 -->
<g id="Node000002" class="node">
<title>Node2</title>
<g id="a_Node000002"><a xlink:href="class_relationship_connection_line.html#a00e5304ae94f728128ec8b6476a74177" target="_top" xlink:title=" ">
<polygon fill="white" stroke="#666666" points="336.12,-107 197.88,-107 197.88,-75 336.12,-75 336.12,-107"/>
<text xml:space="preserve" text-anchor="start" x="205.88" y="-93.5" font-family="Helvetica,sans-Serif" font-size="10.00">RelationshipConnectionLine</text>
<text xml:space="preserve" text-anchor="middle" x="267" y="-81.5" font-family="Helvetica,sans-Serif" font-size="10.00">::connectToRelationshipEnd</text>
</a>
</g>
</g>
<!-- Node1&#45;&gt;Node2 -->
<g id="edge1_Node000001_Node000002" class="edge">
<title>Node1&#45;&gt;Node2</title>
<g id="a_edge1_Node000001_Node000002"><a xlink:title=" ">
<path fill="none" stroke="#63b8ff" d="M373.13,-76.94C360.93,-78.57 348.47,-80.23 336.58,-81.82"/>
<polygon fill="#63b8ff" stroke="#63b8ff" points="373.28,-80.45 382.73,-75.65 372.35,-73.51 373.28,-80.45"/>
</a>
</g>
</g>
<!-- Node5 -->
<g id="Node000005" class="node">
<title>Node5</title>
<g id="a_Node000005"><a xlink:href="class_relationship_connection_line.html#a73f28ee054400ee6eb13b64a7817ef4b" target="_top" xlink:title=" ">
<polygon fill="white" stroke="#666666" points="348.5,-57 185.5,-57 185.5,-25 348.5,-25 348.5,-57"/>
<text xml:space="preserve" text-anchor="start" x="193.5" y="-43.5" font-family="Helvetica,sans-Serif" font-size="10.00">RelationshipConnectionLine</text>
<text xml:space="preserve" text-anchor="middle" x="267" y="-31.5" font-family="Helvetica,sans-Serif" font-size="10.00">::disconnectFromRelationshipEnd</text>
</a>
</g>
</g>
<!-- Node1&#45;&gt;Node5 -->
<g id="edge4_Node000001_Node000005" class="edge">
<title>Node1&#45;&gt;Node5</title>
<g id="a_edge4_Node000001_Node000005"><a xlink:title=" ">
<path fill="none" stroke="#63b8ff" d="M372.97,-55.04C364.94,-53.97 356.8,-52.88 348.78,-51.81"/>
<polygon fill="#63b8ff" stroke="#63b8ff" points="372.35,-58.49 382.73,-56.35 373.28,-51.55 372.35,-58.49"/>
</a>
</g>
</g>
<!-- Node3 -->
<g id="Node000003" class="node">
<title>Node3</title>
<g id="a_Node000003"><a xlink:href="class_relationship_connection_line.html#a77c08ca0dffdc230d3f164d846b3c176" target="_top" xlink:title=" ">
<polygon fill="white" stroke="#666666" points="146.5,-132 3,-132 3,-100 146.5,-100 146.5,-132"/>
<text xml:space="preserve" text-anchor="start" x="11" y="-118.5" font-family="Helvetica,sans-Serif" font-size="10.00">RelationshipConnectionLine</text>
<text xml:space="preserve" text-anchor="middle" x="74.75" y="-106.5" font-family="Helvetica,sans-Serif" font-size="10.00">::RelationshipConnectionLine</text>
</a>
</g>
</g>
<!-- Node2&#45;&gt;Node3 -->
<g id="edge2_Node000002_Node000003" class="edge">
<title>Node2&#45;&gt;Node3</title>
<g id="a_edge2_Node000002_Node000003"><a xlink:title=" ">
<path fill="none" stroke="#63b8ff" d="M186.21,-101.49C173.11,-103.21 159.62,-104.98 146.76,-106.67"/>
<polygon fill="#63b8ff" stroke="#63b8ff" points="186.62,-104.96 196.08,-100.19 185.71,-98.02 186.62,-104.96"/>
</a>
</g>
</g>
<!-- Node4 -->
<g id="Node000004" class="node">
<title>Node4</title>
<g id="a_Node000004"><a xlink:href="class_relationship_connection_line.html#a7e2e06e83adcf3a6fd12c53aa21d71fa" target="_top" xlink:title=" ">
<polygon fill="white" stroke="#666666" points="143.5,-82 6,-82 6,-50 143.5,-50 143.5,-82"/>
<text xml:space="preserve" text-anchor="start" x="14" y="-68.5" font-family="Helvetica,sans-Serif" font-size="10.00">RelationshipConnectionLine</text>
<text xml:space="preserve" text-anchor="middle" x="74.75" y="-56.5" font-family="Helvetica,sans-Serif" font-size="10.00">::setRelationshipEnd</text>
</a>
</g>
</g>
<!-- Node2&#45;&gt;Node4 -->
<g id="edge3_Node000002_Node000004" class="edge">
<title>Node2&#45;&gt;Node4</title>
<g id="a_edge3_Node000002_Node000004"><a xlink:title=" ">
<path fill="none" stroke="#63b8ff" d="M186.38,-80.54C172.25,-78.68 157.65,-76.76 143.88,-74.95"/>
<polygon fill="#63b8ff" stroke="#63b8ff" points="185.71,-83.98 196.08,-81.81 186.62,-77.04 185.71,-83.98"/>
</a>
</g>
</g>
<!-- Node5&#45;&gt;Node4 -->
<g id="edge5_Node000005_Node000004" class="edge">
<title>Node5&#45;&gt;Node4</title>
<g id="a_edge5_Node000005_Node000004"><a xlink:title=" ">
<path fill="none" stroke="#63b8ff" d="M173.69,-53.13C163.6,-54.46 153.47,-55.79 143.75,-57.06"/>
<polygon fill="#63b8ff" stroke="#63b8ff" points="174.08,-56.61 183.54,-51.84 173.17,-49.67 174.08,-56.61"/>
</a>
</g>
</g>
<!-- Node6 -->
<g id="Node000006" class="node">
<title>Node6</title>
<g id="a_Node000006"><a xlink:href="class_relationship_connection_line.html#a1a1a07948058466e38bb1043c95a70c4" target="_top" xlink:title=" ">
<polygon fill="white" stroke="#666666" points="149.5,-32 0,-32 0,0 149.5,0 149.5,-32"/>
<text xml:space="preserve" text-anchor="start" x="8" y="-18.5" font-family="Helvetica,sans-Serif" font-size="10.00">RelationshipConnectionLine</text>
<text xml:space="preserve" text-anchor="middle" x="74.75" y="-6.5" font-family="Helvetica,sans-Serif" font-size="10.00">::~RelationshipConnectionLine</text>
</a>
</g>
</g>
<!-- Node5&#45;&gt;Node6 -->
<g id="edge6_Node000005_Node000006" class="edge">
<title>Node5&#45;&gt;Node6</title>
<g id="a_edge6_Node000005_Node000006"><a xlink:title=" ">
<path fill="none" stroke="#63b8ff" d="M173.8,-28.88C165.82,-27.84 157.81,-26.78 150,-25.76"/>
<polygon fill="#63b8ff" stroke="#63b8ff" points="173.17,-32.33 183.54,-30.16 174.08,-25.39 173.17,-32.33"/>
</a>
</g>
</g>
</g>
</svg>
