<?xml version="1.0" encoding="UTF-8" standalone="no"?>
<!DOCTYPE svg PUBLIC "-//W3C//DTD SVG 1.1//EN"
 "http://www.w3.org/Graphics/SVG/1.1/DTD/svg11.dtd">
<!-- Generated by graphviz version 14.1.1 (20251213.1925)
 -->
<!-- Title: ConnectionLine::setLineWidth Pages: 1 -->
<svg width="2134pt" height="620pt"
 viewBox="0.00 0.00 2134.00 620.00" xmlns="http://www.w3.org/2000/svg" xmlns:xlink="http://www.w3.org/1999/xlink">
<g id="graph0" class="graph" transform="scale(1 1) rotate(0) translate(4 615.87)">
<title>ConnectionLine::setLineWidth</title>
<!-- Node1 -->
<g id="Node000001" class="node">
<title>Node1</title>
<g id="a_Node000001"><a xlink:title=" ">
<polygon fill="#999999" stroke="#666666" points="2126,-369.87 1979.5,-369.87 1979.5,-349.87 2126,-349.87 2126,-369.87"/>
<text xml:space="preserve" text-anchor="middle" x="2052.75" y="-356.37" font-family="Helvetica,sans-Serif" font-size="10.00">ConnectionLine::setLineWidth</text>
</a>
</g>
</g>
<!-- Node2 -->
<g id="Node000002" class="node">
<title>Node2</title>
<g id="a_Node000002"><a xlink:href="class_connection_line.html#ae3606c18d99a61f056d37a755a9d14c0" target="_top" xlink:title=" ">
<polygon fill="white" stroke="#666666" points="1936.75,-498.87 1800.75,-498.87 1800.75,-478.87 1936.75,-478.87 1936.75,-498.87"/>
<text xml:space="preserve" text-anchor="middle" x="1868.75" y="-485.37" font-family="Helvetica,sans-Serif" font-size="10.00">ConnectionLine::deserialize</text>
</a>
</g>
</g>
<!-- Node1&#45;&gt;Node2 -->
<g id="edge1_Node000001_Node000002" class="edge">
<title>Node1&#45;&gt;Node2</title>
<g id="a_edge1_Node000001_Node000002"><a xlink:title=" ">
<path fill="none" stroke="#63b8ff" d="M2027.81,-376.84C1989.56,-403.95 1915.75,-456.27 1884.41,-478.48"/>
<polygon fill="#63b8ff" stroke="#63b8ff" points="2029.79,-379.72 2035.93,-371.09 2025.75,-374.01 2029.79,-379.72"/>
</a>
</g>
</g>
<!-- Node4 -->
<g id="Node000004" class="node">
<title>Node4</title>
<g id="a_Node000004"><a xlink:href="class_main_window.html#a1043995538765eae993ae75217c482e7" target="_top" xlink:title=" ">
<polygon fill="white" stroke="#666666" points="1943.5,-353.87 1794,-353.87 1794,-321.87 1943.5,-321.87 1943.5,-353.87"/>
<text xml:space="preserve" text-anchor="start" x="1802" y="-340.37" font-family="Helvetica,sans-Serif" font-size="10.00">MainWindow::onPropertyValue</text>
<text xml:space="preserve" text-anchor="middle" x="1868.75" y="-328.37" font-family="Helvetica,sans-Serif" font-size="10.00">Changed</text>
</a>
</g>
</g>
<!-- Node1&#45;&gt;Node4 -->
<g id="edge3_Node000001_Node000004" class="edge">
<title>Node1&#45;&gt;Node4</title>
<g id="a_edge3_Node000001_Node000004"><a xlink:title=" ">
<path fill="none" stroke="#63b8ff" d="M1967.8,-349.72C1959.8,-348.76 1951.73,-347.78 1943.84,-346.83"/>
<polygon fill="#63b8ff" stroke="#63b8ff" points="1967.18,-353.17 1977.53,-350.9 1968.02,-346.23 1967.18,-353.17"/>
</a>
</g>
</g>
<!-- Node3 -->
<g id="Node000003" class="node">
<title>Node3</title>
<g id="a_Node000003"><a xlink:href="class_relationship_connection_line.html#ae096b0c8c07ce5d7d5bd8acfad489f1a" target="_top" xlink:title=" ">
<polygon fill="white" stroke="#666666" points="1750.88,-611.87 1613.38,-611.87 1613.38,-579.87 1750.88,-579.87 1750.88,-611.87"/>
<text xml:space="preserve" text-anchor="start" x="1621.38" y="-598.37" font-family="Helvetica,sans-Serif" font-size="10.00">RelationshipConnectionLine</text>
<text xml:space="preserve" text-anchor="middle" x="1682.12" y="-586.37" font-family="Helvetica,sans-Serif" font-size="10.00">::deserialize</text>
</a>
</g>
</g>
<!-- Node2&#45;&gt;Node3 -->
<g id="edge2_Node000002_Node000003" class="edge">
<title>Node2&#45;&gt;Node3</title>
<g id="a_edge2_Node000002_Node000003"><a xlink:title=" ">
<path fill="none" stroke="#63b8ff" d="M1846.31,-506.16C1824.86,-522.91 1790.48,-548.28 1758,-565.87 1748.89,-570.81 1738.79,-575.4 1729.03,-579.43"/>
<polygon fill="#63b8ff" stroke="#63b8ff" points="1848.34,-509.02 1854.02,-500.07 1844,-503.53 1848.34,-509.02"/>
</a>
</g>
</g>
<!-- Node5 -->
<g id="Node000005" class="node">
<title>Node5</title>
<g id="a_Node000005"><a xlink:href="class_main_window.html#adfa32feecffce3959c99d145fc8b4854" target="_top" xlink:title=" ">
<polygon fill="white" stroke="#666666" points="1357,-542.87 1212,-542.87 1212,-522.87 1357,-522.87 1357,-542.87"/>
<text xml:space="preserve" text-anchor="middle" x="1284.5" y="-529.37" font-family="Helvetica,sans-Serif" font-size="10.00">MainWindow::connectSignals</text>
</a>
</g>
</g>
<!-- Node4&#45;&gt;Node5 -->
<g id="edge4_Node000004_Node000005" class="edge">
<title>Node4&#45;&gt;Node5</title>
<g id="a_edge4_Node000004_Node000005"><a xlink:title=" ">
<path fill="none" stroke="#63b8ff" d="M1842.6,-361.95C1794.46,-406.18 1683.89,-498.95 1570.25,-532.87 1497.66,-554.54 1409.93,-550.27 1351.21,-543.35"/>
<polygon fill="#63b8ff" stroke="#63b8ff" points="1844.8,-364.68 1849.75,-355.31 1840.04,-359.55 1844.8,-364.68"/>
</a>
</g>
</g>
<!-- Node7 -->
<g id="Node000007" class="node">
<title>Node7</title>
<g id="a_Node000007"><a xlink:href="class_main_window.html#a5caeae304b10e5cd9f83ef5c6086310b" target="_top" xlink:title=" ">
<polygon fill="white" stroke="#666666" points="1758,-353.87 1606.25,-353.87 1606.25,-321.87 1758,-321.87 1758,-353.87"/>
<text xml:space="preserve" text-anchor="start" x="1614.25" y="-340.37" font-family="Helvetica,sans-Serif" font-size="10.00">MainWindow::updateProperties</text>
<text xml:space="preserve" text-anchor="middle" x="1682.12" y="-328.37" font-family="Helvetica,sans-Serif" font-size="10.00">Panel</text>
</a>
</g>
</g>
<!-- Node4&#45;&gt;Node7 -->
<g id="edge6_Node000004_Node000007" class="edge">
<title>Node4&#45;&gt;Node7</title>
<g id="a_edge6_Node000004_Node000007"><a xlink:title=" ">
<path fill="none" stroke="#63b8ff" d="M1782.44,-331.14C1774.41,-331.1 1766.31,-331.13 1758.38,-331.23"/>
<polygon fill="#63b8ff" stroke="#63b8ff" points="1782.18,-334.64 1792.21,-331.23 1782.24,-327.64 1782.18,-334.64"/>
</a>
</g>
</g>
<!-- Node6 -->
<g id="Node000006" class="node">
<title>Node6</title>
<g id="a_Node000006"><a xlink:href="class_main_window.html#a996c5a2b6f77944776856f08ec30858d" target="_top" xlink:title=" ">
<polygon fill="white" stroke="#666666" points="1146,-542.87 1011.5,-542.87 1011.5,-522.87 1146,-522.87 1146,-542.87"/>
<text xml:space="preserve" text-anchor="middle" x="1078.75" y="-529.37" font-family="Helvetica,sans-Serif" font-size="10.00">MainWindow::MainWindow</text>
</a>
</g>
</g>
<!-- Node5&#45;&gt;Node6 -->
<g id="edge5_Node000005_Node000006" class="edge">
<title>Node5&#45;&gt;Node6</title>
<g id="a_edge5_Node000005_Node000006"><a xlink:title=" ">
<path fill="none" stroke="#63b8ff" d="M1200.27,-532.87C1182.26,-532.87 1163.44,-532.87 1146.17,-532.87"/>
<polygon fill="#63b8ff" stroke="#63b8ff" points="1200.15,-536.37 1210.15,-532.87 1200.15,-529.37 1200.15,-536.37"/>
</a>
</g>
</g>
<!-- Node7&#45;&gt;Node4 -->
<g id="edge35_Node000007_Node000004" class="edge">
<title>Node7&#45;&gt;Node4</title>
<g id="a_edge35_Node000007_Node000004"><a xlink:title=" ">
<path fill="none" stroke="#63b8ff" d="M1769.68,-344.61C1777.71,-344.64 1785.81,-344.61 1793.72,-344.5"/>
<polygon fill="#63b8ff" stroke="#63b8ff" points="1769.92,-341.11 1759.89,-344.53 1769.86,-348.11 1769.92,-341.11"/>
</a>
</g>
</g>
<!-- Node8 -->
<g id="Node000008" class="node">
<title>Node8</title>
<g id="a_Node000008"><a xlink:href="class_main_window.html#ad34ae0349abf41aa739b75b85df74126" target="_top" xlink:title=" ">
<polygon fill="white" stroke="#666666" points="1557.5,-447.87 1414.75,-447.87 1414.75,-415.87 1557.5,-415.87 1557.5,-447.87"/>
<text xml:space="preserve" text-anchor="start" x="1422.75" y="-434.37" font-family="Helvetica,sans-Serif" font-size="10.00">MainWindow::onAddAttribute</text>
<text xml:space="preserve" text-anchor="middle" x="1486.12" y="-422.37" font-family="Helvetica,sans-Serif" font-size="10.00">OnTreeClicked</text>
</a>
</g>
</g>
<!-- Node7&#45;&gt;Node8 -->
<g id="edge7_Node000007_Node000008" class="edge">
<title>Node7&#45;&gt;Node8</title>
<g id="a_edge7_Node000007_Node000008"><a xlink:title=" ">
<path fill="none" stroke="#63b8ff" d="M1649.47,-360.72C1627.95,-375.45 1598.38,-394.16 1570.25,-406.87 1563.38,-409.97 1556.03,-412.82 1548.64,-415.39"/>
<polygon fill="#63b8ff" stroke="#63b8ff" points="1651.3,-363.71 1657.52,-355.13 1647.31,-357.97 1651.3,-363.71"/>
</a>
</g>
</g>
<!-- Node15 -->
<g id="Node000015" class="node">
<title>Node15</title>
<g id="a_Node000015"><a xlink:href="class_main_window.html#a47fd0b86ddb5829e3b0cb15908671670" target="_top" xlink:title=" ">
<polygon fill="white" stroke="#666666" points="1165.5,-225.87 992,-225.87 992,-205.87 1165.5,-205.87 1165.5,-225.87"/>
<text xml:space="preserve" text-anchor="middle" x="1078.75" y="-212.37" font-family="Helvetica,sans-Serif" font-size="10.00">MainWindow::onCheckBoxChanged</text>
</a>
</g>
</g>
<!-- Node7&#45;&gt;Node15 -->
<g id="edge21_Node000007_Node000015" class="edge">
<title>Node7&#45;&gt;Node15</title>
<g id="a_edge21_Node000007_Node000015"><a xlink:title=" ">
<path fill="none" stroke="#63b8ff" d="M1642.39,-316.23C1621.59,-305.52 1595.17,-293.31 1570.25,-285.87 1432.19,-244.65 1264.81,-227.4 1165.58,-220.41"/>
<polygon fill="#63b8ff" stroke="#63b8ff" points="1640.6,-319.24 1651.08,-320.8 1643.86,-313.05 1640.6,-319.24"/>
</a>
</g>
</g>
<!-- Node17 -->
<g id="Node000017" class="node">
<title>Node17</title>
<g id="a_Node000017"><a xlink:href="class_main_window.html#ac1e0c79708cf9aa9b7ca1a87697e5b34" target="_top" xlink:title=" ">
<polygon fill="white" stroke="#666666" points="1167,-110.87 990.5,-110.87 990.5,-90.87 1167,-90.87 1167,-110.87"/>
<text xml:space="preserve" text-anchor="middle" x="1078.75" y="-97.37" font-family="Helvetica,sans-Serif" font-size="10.00">MainWindow::onComboBoxChanged</text>
</a>
</g>
</g>
<!-- Node7&#45;&gt;Node17 -->
<g id="edge25_Node000007_Node000017" class="edge">
<title>Node7&#45;&gt;Node17</title>
<g id="a_edge25_Node000007_Node000017"><a xlink:title=" ">
<path fill="none" stroke="#63b8ff" d="M1667.18,-311.83C1629.53,-244.92 1518.3,-68.64 1366,-16.87 1297.41,6.44 1272.23,4.48 1203,-16.87 1155.49,-31.52 1109.92,-71.45 1090.1,-90.49"/>
<polygon fill="#63b8ff" stroke="#63b8ff" points="1663.94,-313.21 1671.85,-320.26 1670.07,-309.82 1663.94,-313.21"/>
</a>
</g>
</g>
<!-- Node21 -->
<g id="Node000021" class="node">
<title>Node21</title>
<g id="a_Node000021"><a xlink:href="class_main_window.html#a0e7ca45ac830893108871185dda813a4" target="_top" xlink:title=" ">
<polygon fill="white" stroke="#666666" points="1366,-347.87 1203,-347.87 1203,-327.87 1366,-327.87 1366,-347.87"/>
<text xml:space="preserve" text-anchor="middle" x="1284.5" y="-334.37" font-family="Helvetica,sans-Serif" font-size="10.00">MainWindow::onLineEditChanged</text>
</a>
</g>
</g>
<!-- Node7&#45;&gt;Node21 -->
<g id="edge32_Node000007_Node000021" class="edge">
<title>Node7&#45;&gt;Node21</title>
<g id="a_edge32_Node000007_Node000021"><a xlink:title=" ">
<path fill="none" stroke="#63b8ff" d="M1594.68,-337.87C1526.74,-337.87 1432.8,-337.87 1366.35,-337.87"/>
<polygon fill="#63b8ff" stroke="#63b8ff" points="1594.27,-341.37 1604.27,-337.87 1594.27,-334.37 1594.27,-341.37"/>
</a>
</g>
</g>
<!-- Node23 -->
<g id="Node000023" class="node">
<title>Node23</title>
<g id="a_Node000023"><a xlink:href="class_main_window.html#a95674d4bfc5fc2aad6df1601f23b1793" target="_top" xlink:title=" ">
<polygon fill="white" stroke="#666666" points="1567.25,-397.87 1405,-397.87 1405,-365.87 1567.25,-365.87 1567.25,-397.87"/>
<text xml:space="preserve" text-anchor="start" x="1413" y="-384.37" font-family="Helvetica,sans-Serif" font-size="10.00">MainWindow::onRemoveAttribute</text>
<text xml:space="preserve" text-anchor="middle" x="1486.12" y="-372.37" font-family="Helvetica,sans-Serif" font-size="10.00">OnTreeClicked</text>
</a>
</g>
</g>
<!-- Node7&#45;&gt;Node23 -->
<g id="edge36_Node000007_Node000023" class="edge">
<title>Node7&#45;&gt;Node23</title>
<g id="a_edge36_Node000007_Node000023"><a xlink:title=" ">
<path fill="none" stroke="#63b8ff" d="M1597.66,-356.8C1585.09,-359.65 1572.2,-362.58 1559.87,-365.37"/>
<polygon fill="#63b8ff" stroke="#63b8ff" points="1598.16,-360.28 1607.13,-354.65 1596.61,-353.45 1598.16,-360.28"/>
</a>
</g>
</g>
<!-- Node24 -->
<g id="Node000024" class="node">
<title>Node24</title>
<g id="a_Node000024"><a xlink:href="class_main_window.html#a44791b85064ecff42c12429c6667e83b" target="_top" xlink:title=" ">
<polygon fill="white" stroke="#666666" points="1570.25,-523.87 1402,-523.87 1402,-503.87 1570.25,-503.87 1570.25,-523.87"/>
<text xml:space="preserve" text-anchor="middle" x="1486.12" y="-510.37" font-family="Helvetica,sans-Serif" font-size="10.00">MainWindow::onSelectionChanged</text>
</a>
</g>
</g>
<!-- Node7&#45;&gt;Node24 -->
<g id="edge38_Node000007_Node000024" class="edge">
<title>Node7&#45;&gt;Node24</title>
<g id="a_edge38_Node000007_Node000024"><a xlink:title=" ">
<path fill="none" stroke="#63b8ff" d="M1668.93,-364.02C1651.71,-398.06 1617.09,-457.08 1570.25,-489.87 1562.01,-495.64 1552.38,-500.04 1542.67,-503.38"/>
<polygon fill="#63b8ff" stroke="#63b8ff" points="1671.96,-365.78 1673.23,-355.26 1665.68,-362.69 1671.96,-365.78"/>
</a>
</g>
</g>
<!-- Node25 -->
<g id="Node000025" class="node">
<title>Node25</title>
<g id="a_Node000025"><a xlink:href="class_main_window.html#af380eeda83d30cd1ecb1419cfd5161d7" target="_top" xlink:title=" ">
<polygon fill="white" stroke="#666666" points="1553,-214.87 1419.25,-214.87 1419.25,-182.87 1553,-182.87 1553,-214.87"/>
<text xml:space="preserve" text-anchor="start" x="1427.25" y="-201.37" font-family="Helvetica,sans-Serif" font-size="10.00">MainWindow::updatesAfter</text>
<text xml:space="preserve" text-anchor="middle" x="1486.12" y="-189.37" font-family="Helvetica,sans-Serif" font-size="10.00">ChangingProperty</text>
</a>
</g>
</g>
<!-- Node7&#45;&gt;Node25 -->
<g id="edge40_Node000007_Node000025" class="edge">
<title>Node7&#45;&gt;Node25</title>
<g id="a_edge40_Node000007_Node000025"><a xlink:title=" ">
<path fill="none" stroke="#63b8ff" d="M1654.51,-314.38C1632.58,-295.49 1600.31,-268.76 1570.25,-247.87 1553.33,-236.11 1533.48,-224.34 1517.42,-215.29"/>
<polygon fill="#63b8ff" stroke="#63b8ff" points="1651.96,-316.8 1661.81,-320.71 1656.55,-311.52 1651.96,-316.8"/>
</a>
</g>
</g>
<!-- Node9 -->
<g id="Node000009" class="node">
<title>Node9</title>
<g id="a_Node000009"><a xlink:href="class_main_window.html#a6fd05e9f951dd6e7c2cd6ca815ef9d71" target="_top" xlink:title=" ">
<polygon fill="white" stroke="#666666" points="943.62,-409.87 809.88,-409.87 809.88,-377.87 943.62,-377.87 943.62,-409.87"/>
<text xml:space="preserve" text-anchor="start" x="817.88" y="-396.37" font-family="Helvetica,sans-Serif" font-size="10.00">MainWindow::createButton</text>
<text xml:space="preserve" text-anchor="middle" x="876.75" y="-384.37" font-family="Helvetica,sans-Serif" font-size="10.00">PropertyItem</text>
</a>
</g>
</g>
<!-- Node8&#45;&gt;Node9 -->
<g id="edge8_Node000008_Node000009" class="edge">
<title>Node8&#45;&gt;Node9</title>
<g id="a_edge8_Node000008_Node000009"><a xlink:title=" ">
<path fill="none" stroke="#63b8ff" d="M1403.32,-428.04C1305.19,-423.26 1135.73,-414.42 990.5,-403.87 975.41,-402.78 959.19,-401.43 943.9,-400.09"/>
<polygon fill="#63b8ff" stroke="#63b8ff" points="1402.97,-431.53 1413.13,-428.52 1403.31,-424.54 1402.97,-431.53"/>
</a>
</g>
</g>
<!-- Node10 -->
<g id="Node000010" class="node">
<title>Node10</title>
<g id="a_Node000010"><a xlink:href="class_main_window.html#a697154cf7839e00c607134c2a4e018cf" target="_top" xlink:title=" ">
<polygon fill="white" stroke="#666666" points="567.75,-371.87 400.25,-371.87 400.25,-351.87 567.75,-351.87 567.75,-371.87"/>
<text xml:space="preserve" text-anchor="middle" x="484" y="-358.37" font-family="Helvetica,sans-Serif" font-size="10.00">MainWindow::populateAttributeList</text>
</a>
</g>
</g>
<!-- Node9&#45;&gt;Node10 -->
<g id="edge9_Node000009_Node000010" class="edge">
<title>Node9&#45;&gt;Node10</title>
<g id="a_edge9_Node000009_Node000010"><a xlink:title=" ">
<path fill="none" stroke="#63b8ff" d="M798.22,-387.52C731.68,-382.07 636.02,-374.24 567.95,-368.66"/>
<polygon fill="#63b8ff" stroke="#63b8ff" points="797.7,-390.99 807.96,-388.32 798.28,-384.02 797.7,-390.99"/>
</a>
</g>
</g>
<!-- Node11 -->
<g id="Node000011" class="node">
<title>Node11</title>
<g id="a_Node000011"><a xlink:href="class_main_window.html#a3aa4112f20ad25eb3ad78fd354ba7de2" target="_top" xlink:title=" ">
<polygon fill="white" stroke="#666666" points="759.25,-333.87 607.5,-333.87 607.5,-301.87 759.25,-301.87 759.25,-333.87"/>
<text xml:space="preserve" text-anchor="start" x="615.5" y="-320.37" font-family="Helvetica,sans-Serif" font-size="10.00">MainWindow::populateAttribute</text>
<text xml:space="preserve" text-anchor="middle" x="683.38" y="-308.37" font-family="Helvetica,sans-Serif" font-size="10.00">Properties</text>
</a>
</g>
</g>
<!-- Node9&#45;&gt;Node11 -->
<g id="edge18_Node000009_Node000011" class="edge">
<title>Node9&#45;&gt;Node11</title>
<g id="a_edge18_Node000009_Node000011"><a xlink:title=" ">
<path fill="none" stroke="#63b8ff" d="M825.69,-373.16C806.16,-365.16 783.57,-355.99 763,-347.87 751.72,-343.42 739.49,-338.7 728.11,-334.36"/>
<polygon fill="#63b8ff" stroke="#63b8ff" points="824.2,-376.33 834.78,-376.9 826.86,-369.86 824.2,-376.33"/>
</a>
</g>
</g>
<!-- Node13 -->
<g id="Node000013" class="node">
<title>Node13</title>
<g id="a_Node000013"><a xlink:href="class_main_window.html#a40023e3590f2593fd133a6b111f63ed9" target="_top" xlink:title=" ">
<polygon fill="white" stroke="#666666" points="350,-383.87 209.5,-383.87 209.5,-351.87 350,-351.87 350,-383.87"/>
<text xml:space="preserve" text-anchor="start" x="217.5" y="-370.37" font-family="Helvetica,sans-Serif" font-size="10.00">MainWindow::populateEntity</text>
<text xml:space="preserve" text-anchor="middle" x="279.75" y="-358.37" font-family="Helvetica,sans-Serif" font-size="10.00">Properties</text>
</a>
</g>
</g>
<!-- Node9&#45;&gt;Node13 -->
<g id="edge19_Node000009_Node000013" class="edge">
<title>Node9&#45;&gt;Node13</title>
<g id="a_edge19_Node000009_Node000013"><a xlink:title=" ">
<path fill="none" stroke="#63b8ff" d="M798.34,-409.45C786.54,-411.28 774.48,-412.86 763,-413.87 602.4,-428.01 558.76,-443.33 400.25,-413.87 369.76,-408.21 337.02,-395.06 313.53,-384.26"/>
<polygon fill="#63b8ff" stroke="#63b8ff" points="798.73,-412.93 808.04,-407.86 797.61,-406.02 798.73,-412.93"/>
</a>
</g>
</g>
<!-- Node14 -->
<g id="Node000014" class="node">
<title>Node14</title>
<g id="a_Node000014"><a xlink:href="class_main_window.html#a1049a5796ac248f40a3b4110ed5faf77" target="_top" xlink:title=" ">
<polygon fill="white" stroke="#666666" points="364.25,-295.87 195.25,-295.87 195.25,-263.87 364.25,-263.87 364.25,-295.87"/>
<text xml:space="preserve" text-anchor="start" x="203.25" y="-282.37" font-family="Helvetica,sans-Serif" font-size="10.00">MainWindow::populateRelationship</text>
<text xml:space="preserve" text-anchor="middle" x="279.75" y="-270.37" font-family="Helvetica,sans-Serif" font-size="10.00">Properties</text>
</a>
</g>
</g>
<!-- Node9&#45;&gt;Node14 -->
<g id="edge20_Node000009_Node000014" class="edge">
<title>Node9&#45;&gt;Node14</title>
<g id="a_edge20_Node000009_Node000014"><a xlink:title=" ">
<path fill="none" stroke="#63b8ff" d="M798.47,-398.83C682.37,-405.09 469.22,-411.66 400.25,-380.87 379.01,-371.39 381.6,-358.38 364.25,-342.87 345.16,-325.81 321.77,-308.43 304.6,-296.26"/>
<polygon fill="#63b8ff" stroke="#63b8ff" points="798.43,-402.33 808.22,-398.29 798.04,-395.34 798.43,-402.33"/>
</a>
</g>
</g>
<!-- Node10&#45;&gt;Node11 -->
<g id="edge10_Node000010_Node000011" class="edge">
<title>Node10&#45;&gt;Node11</title>
<g id="a_edge10_Node000010_Node000011"><a xlink:title=" ">
<path fill="none" stroke="#63b8ff" d="M572.51,-349.07C593.95,-344.44 616.1,-339.23 634.85,-334.34"/>
<polygon fill="#63b8ff" stroke="#63b8ff" points="571.92,-345.62 562.87,-351.12 573.37,-352.47 571.92,-345.62"/>
</a>
</g>
</g>
<!-- Node10&#45;&gt;Node13 -->
<g id="edge14_Node000010_Node000013" class="edge">
<title>Node10&#45;&gt;Node13</title>
<g id="a_edge14_Node000010_Node000013"><a xlink:title=" ">
<path fill="none" stroke="#63b8ff" d="M388.6,-364.67C375.72,-365.05 362.69,-365.44 350.36,-365.81"/>
<polygon fill="#63b8ff" stroke="#63b8ff" points="388.46,-368.18 398.35,-364.38 388.25,-361.18 388.46,-368.18"/>
</a>
</g>
</g>
<!-- Node10&#45;&gt;Node14 -->
<g id="edge16_Node000010_Node000014" class="edge">
<title>Node10&#45;&gt;Node14</title>
<g id="a_edge16_Node000010_Node000014"><a xlink:title=" ">
<path fill="none" stroke="#63b8ff" d="M447.06,-347.3C411.74,-332.98 357.93,-311.17 321.15,-296.25"/>
<polygon fill="#63b8ff" stroke="#63b8ff" points="445.4,-350.4 455.98,-350.92 448.03,-343.92 445.4,-350.4"/>
</a>
</g>
</g>
<!-- Node11&#45;&gt;Node10 -->
<g id="edge11_Node000011_Node000010" class="edge">
<title>Node11&#45;&gt;Node10</title>
<g id="a_edge11_Node000011_Node000010"><a xlink:title=" ">
<path fill="none" stroke="#63b8ff" d="M596.33,-330.35C565.35,-337.02 532.68,-344.95 510.81,-351.39"/>
<polygon fill="#63b8ff" stroke="#63b8ff" points="596.65,-333.86 605.71,-328.37 595.2,-327.01 596.65,-333.86"/>
</a>
</g>
</g>
<!-- Node12 -->
<g id="Node000012" class="node">
<title>Node12</title>
<g id="a_Node000012"><a xlink:href="class_main_window.html#add7e6ae12287854ff779bd4b5649dd98" target="_top" xlink:title=" ">
<polygon fill="white" stroke="#666666" points="159.25,-361.87 0,-361.87 0,-329.87 159.25,-329.87 159.25,-361.87"/>
<text xml:space="preserve" text-anchor="start" x="8" y="-348.37" font-family="Helvetica,sans-Serif" font-size="10.00">MainWindow::populateProperties</text>
<text xml:space="preserve" text-anchor="middle" x="79.62" y="-336.37" font-family="Helvetica,sans-Serif" font-size="10.00">ForElement</text>
</a>
</g>
</g>
<!-- Node11&#45;&gt;Node12 -->
<g id="edge12_Node000011_Node000012" class="edge">
<title>Node11&#45;&gt;Node12</title>
<g id="a_edge12_Node000011_Node000012"><a xlink:title=" ">
<path fill="none" stroke="#63b8ff" d="M595.7,-321.9C478.73,-327.35 272.07,-336.96 159.35,-342.21"/>
<polygon fill="#63b8ff" stroke="#63b8ff" points="595.74,-325.41 605.56,-321.45 595.41,-318.41 595.74,-325.41"/>
</a>
</g>
</g>
<!-- Node12&#45;&gt;Node7 -->
<g id="edge13_Node000012_Node000007" class="edge">
<title>Node12&#45;&gt;Node7</title>
<g id="a_edge13_Node000012_Node000007"><a xlink:title=" ">
<path fill="none" stroke="#63b8ff" d="M119.62,-367.53C189.97,-404.51 343.76,-475.87 483,-475.87 1285.5,-475.87 1285.5,-475.87 1285.5,-475.87 1412.34,-475.87 1455.69,-511.32 1570.25,-456.87 1594.73,-445.24 1644.86,-384.12 1668.39,-354.28"/>
<polygon fill="#63b8ff" stroke="#63b8ff" points="121.67,-364.65 111.19,-363.05 118.38,-370.83 121.67,-364.65"/>
</a>
</g>
</g>
<!-- Node13&#45;&gt;Node12 -->
<g id="edge15_Node000013_Node000012" class="edge">
<title>Node13&#45;&gt;Node12</title>
<g id="a_edge15_Node000013_Node000012"><a xlink:title=" ">
<path fill="none" stroke="#63b8ff" d="M198.11,-358.92C185.37,-357.5 172.21,-356.04 159.51,-354.63"/>
<polygon fill="#63b8ff" stroke="#63b8ff" points="197.35,-362.35 207.67,-359.98 198.12,-355.4 197.35,-362.35"/>
</a>
</g>
</g>
<!-- Node14&#45;&gt;Node12 -->
<g id="edge17_Node000014_Node000012" class="edge">
<title>Node14&#45;&gt;Node12</title>
<g id="a_edge17_Node000014_Node000012"><a xlink:title=" ">
<path fill="none" stroke="#63b8ff" d="M218.65,-299.89C190.22,-309.36 156.71,-320.53 129.82,-329.48"/>
<polygon fill="#63b8ff" stroke="#63b8ff" points="219.45,-303.32 227.83,-296.83 217.24,-296.67 219.45,-303.32"/>
</a>
</g>
</g>
<!-- Node16 -->
<g id="Node000016" class="node">
<title>Node16</title>
<g id="a_Node000016"><a xlink:href="class_main_window.html#a44aaf7bb6d9a56f53b8a7a9e4fc29f8c" target="_top" xlink:title=" ">
<polygon fill="white" stroke="#666666" points="952.25,-263.87 801.25,-263.87 801.25,-231.87 952.25,-231.87 952.25,-263.87"/>
<text xml:space="preserve" text-anchor="start" x="809.25" y="-250.37" font-family="Helvetica,sans-Serif" font-size="10.00">MainWindow::createCheckBox</text>
<text xml:space="preserve" text-anchor="middle" x="876.75" y="-238.37" font-family="Helvetica,sans-Serif" font-size="10.00">PropertyItem</text>
</a>
</g>
</g>
<!-- Node15&#45;&gt;Node16 -->
<g id="edge22_Node000015_Node000016" class="edge">
<title>Node15&#45;&gt;Node16</title>
<g id="a_edge22_Node000015_Node000016"><a xlink:title=" ">
<path fill="none" stroke="#63b8ff" d="M1001.32,-228.1C985.27,-230.67 968.38,-233.37 952.4,-235.93"/>
<polygon fill="#63b8ff" stroke="#63b8ff" points="1001.45,-231.62 1010.77,-226.59 1000.34,-224.71 1001.45,-231.62"/>
</a>
</g>
</g>
<!-- Node16&#45;&gt;Node11 -->
<g id="edge23_Node000016_Node000011" class="edge">
<title>Node16&#45;&gt;Node11</title>
<g id="a_edge23_Node000016_Node000011"><a xlink:title=" ">
<path fill="none" stroke="#63b8ff" d="M820.13,-268.21C791.26,-278.78 756.44,-291.51 729.29,-301.44"/>
<polygon fill="#63b8ff" stroke="#63b8ff" points="821.27,-271.53 829.46,-264.8 818.87,-264.95 821.27,-271.53"/>
</a>
</g>
</g>
<!-- Node16&#45;&gt;Node14 -->
<g id="edge24_Node000016_Node000014" class="edge">
<title>Node16&#45;&gt;Node14</title>
<g id="a_edge24_Node000016_Node000014"><a xlink:title=" ">
<path fill="none" stroke="#63b8ff" d="M789.61,-244.21C694.12,-241.29 535.68,-239.85 400.25,-254.87 383.29,-256.75 365.18,-259.92 348.32,-263.39"/>
<polygon fill="#63b8ff" stroke="#63b8ff" points="789.32,-247.7 799.43,-244.52 789.54,-240.7 789.32,-247.7"/>
</a>
</g>
</g>
<!-- Node18 -->
<g id="Node000018" class="node">
<title>Node18</title>
<g id="a_Node000018"><a xlink:href="class_main_window.html#a872e6a76dcbf858ae9d483eceddf90e1" target="_top" xlink:title=" ">
<polygon fill="white" stroke="#666666" points="953.75,-213.87 799.75,-213.87 799.75,-181.87 953.75,-181.87 953.75,-213.87"/>
<text xml:space="preserve" text-anchor="start" x="807.75" y="-200.37" font-family="Helvetica,sans-Serif" font-size="10.00">MainWindow::createComboBox</text>
<text xml:space="preserve" text-anchor="middle" x="876.75" y="-188.37" font-family="Helvetica,sans-Serif" font-size="10.00">PropertyItem</text>
</a>
</g>
</g>
<!-- Node17&#45;&gt;Node18 -->
<g id="edge26_Node000017_Node000018" class="edge">
<title>Node17&#45;&gt;Node18</title>
<g id="a_edge26_Node000017_Node000018"><a xlink:title=" ">
<path fill="none" stroke="#63b8ff" d="M1046.22,-116.16C1009.56,-133.95 949.26,-163.19 911.62,-181.44"/>
<polygon fill="#63b8ff" stroke="#63b8ff" points="1047.51,-119.43 1054.98,-111.91 1044.46,-113.13 1047.51,-119.43"/>
</a>
</g>
</g>
<!-- Node19 -->
<g id="Node000019" class="node">
<title>Node19</title>
<g id="a_Node000019"><a xlink:href="class_main_window.html#abae03a6494d13d74ed1b2e31ec1f2fc7" target="_top" xlink:title=" ">
<polygon fill="white" stroke="#666666" points="954.5,-121.87 799,-121.87 799,-89.87 954.5,-89.87 954.5,-121.87"/>
<text xml:space="preserve" text-anchor="start" x="807" y="-108.37" font-family="Helvetica,sans-Serif" font-size="10.00">MainWindow::createIconCombo</text>
<text xml:space="preserve" text-anchor="middle" x="876.75" y="-96.37" font-family="Helvetica,sans-Serif" font-size="10.00">BoxPropertyItem</text>
</a>
</g>
</g>
<!-- Node17&#45;&gt;Node19 -->
<g id="edge29_Node000017_Node000019" class="edge">
<title>Node17&#45;&gt;Node19</title>
<g id="a_edge29_Node000017_Node000019"><a xlink:title=" ">
<path fill="none" stroke="#63b8ff" d="M978.68,-103.35C970.64,-103.55 962.59,-103.75 954.74,-103.95"/>
<polygon fill="#63b8ff" stroke="#63b8ff" points="978.6,-106.85 988.51,-103.1 978.43,-99.85 978.6,-106.85"/>
</a>
</g>
</g>
<!-- Node18&#45;&gt;Node11 -->
<g id="edge27_Node000018_Node000011" class="edge">
<title>Node18&#45;&gt;Node11</title>
<g id="a_edge27_Node000018_Node000011"><a xlink:title=" ">
<path fill="none" stroke="#63b8ff" d="M806.81,-218.89C804.14,-220.15 801.52,-221.48 799,-222.87 759.61,-244.57 720.81,-280.66 700,-301.55"/>
<polygon fill="#63b8ff" stroke="#63b8ff" points="808.19,-222.1 815.96,-214.9 805.39,-215.69 808.19,-222.1"/>
</a>
</g>
</g>
<!-- Node18&#45;&gt;Node14 -->
<g id="edge28_Node000018_Node000014" class="edge">
<title>Node18&#45;&gt;Node14</title>
<g id="a_edge28_Node000018_Node000014"><a xlink:title=" ">
<path fill="none" stroke="#63b8ff" d="M788.19,-199.47C692.1,-202.63 533.76,-212.04 400.25,-239.87 373.59,-245.43 344.59,-255.04 321.84,-263.45"/>
<polygon fill="#63b8ff" stroke="#63b8ff" points="788.2,-202.97 798.08,-199.16 787.98,-195.97 788.2,-202.97"/>
</a>
</g>
</g>
<!-- Node20 -->
<g id="Node000020" class="node">
<title>Node20</title>
<g id="a_Node000020"><a xlink:href="class_main_window.html#af02df1238ccf49caa1c4099c88dfe465" target="_top" xlink:title=" ">
<polygon fill="white" stroke="#666666" points="763,-147.87 603.75,-147.87 603.75,-115.87 763,-115.87 763,-147.87"/>
<text xml:space="preserve" text-anchor="start" x="611.75" y="-134.37" font-family="Helvetica,sans-Serif" font-size="10.00">MainWindow::populateProperties</text>
<text xml:space="preserve" text-anchor="middle" x="683.38" y="-122.37" font-family="Helvetica,sans-Serif" font-size="10.00">ForConnection</text>
</a>
</g>
</g>
<!-- Node19&#45;&gt;Node20 -->
<g id="edge30_Node000019_Node000020" class="edge">
<title>Node19&#45;&gt;Node20</title>
<g id="a_edge30_Node000019_Node000020"><a xlink:title=" ">
<path fill="none" stroke="#63b8ff" d="M787.47,-117.87C779.44,-118.96 771.35,-120.06 763.41,-121.13"/>
<polygon fill="#63b8ff" stroke="#63b8ff" points="787.8,-121.35 797.24,-116.54 786.86,-114.42 787.8,-121.35"/>
</a>
</g>
</g>
<!-- Node20&#45;&gt;Node7 -->
<g id="edge31_Node000020_Node000007" class="edge">
<title>Node20&#45;&gt;Node7</title>
<g id="a_edge31_Node000020_Node000007"><a xlink:title=" ">
<path fill="none" stroke="#63b8ff" d="M774.89,-137.25C841.71,-142.75 925.82,-153.35 954.5,-172.87 980.84,-190.8 964.14,-216.97 990.5,-234.87 1089.73,-302.24 1448.18,-327 1605.83,-334.77"/>
<polygon fill="#63b8ff" stroke="#63b8ff" points="775.23,-133.77 764.99,-136.47 774.68,-140.75 775.23,-133.77"/>
</a>
</g>
</g>
<!-- Node22 -->
<g id="Node000022" class="node">
<title>Node22</title>
<g id="a_Node000022"><a xlink:href="class_main_window.html#ae3b6600dd59da1822ef94bbd5f37f0cc" target="_top" xlink:title=" ">
<polygon fill="white" stroke="#666666" points="554.25,-295.87 413.75,-295.87 413.75,-263.87 554.25,-263.87 554.25,-295.87"/>
<text xml:space="preserve" text-anchor="start" x="421.75" y="-282.37" font-family="Helvetica,sans-Serif" font-size="10.00">MainWindow::createLineEdit</text>
<text xml:space="preserve" text-anchor="middle" x="484" y="-270.37" font-family="Helvetica,sans-Serif" font-size="10.00">PropertyItem</text>
</a>
</g>
</g>
<!-- Node21&#45;&gt;Node22 -->
<g id="edge33_Node000021_Node000022" class="edge">
<title>Node21&#45;&gt;Node22</title>
<g id="a_edge33_Node000021_Node000022"><a xlink:title=" ">
<path fill="none" stroke="#63b8ff" d="M1191.49,-328.81C1087.54,-318.83 913.26,-302.88 763,-292.87 692.13,-288.15 610.99,-284.57 554.73,-282.37"/>
<polygon fill="#63b8ff" stroke="#63b8ff" points="1191.08,-332.29 1201.37,-329.76 1191.76,-325.32 1191.08,-332.29"/>
</a>
</g>
</g>
<!-- Node22&#45;&gt;Node14 -->
<g id="edge34_Node000022_Node000014" class="edge">
<title>Node22&#45;&gt;Node14</title>
<g id="a_edge34_Node000022_Node000014"><a xlink:title=" ">
<path fill="none" stroke="#63b8ff" d="M402.15,-279.87C389.74,-279.87 376.91,-279.87 364.44,-279.87"/>
<polygon fill="#63b8ff" stroke="#63b8ff" points="401.88,-283.37 411.88,-279.87 401.88,-276.37 401.88,-283.37"/>
</a>
</g>
</g>
<!-- Node23&#45;&gt;Node9 -->
<g id="edge37_Node000023_Node000009" class="edge">
<title>Node23&#45;&gt;Node9</title>
<g id="a_edge37_Node000023_Node000009"><a xlink:title=" ">
<path fill="none" stroke="#63b8ff" d="M1393.49,-383.68C1269.89,-386.12 1052.75,-390.41 943.89,-392.56"/>
<polygon fill="#63b8ff" stroke="#63b8ff" points="1393.34,-387.19 1403.27,-383.49 1393.2,-380.19 1393.34,-387.19"/>
</a>
</g>
</g>
<!-- Node24&#45;&gt;Node5 -->
<g id="edge39_Node000024_Node000005" class="edge">
<title>Node24&#45;&gt;Node5</title>
<g id="a_edge39_Node000024_Node000005"><a xlink:title=" ">
<path fill="none" stroke="#63b8ff" d="M1390.49,-522.88C1379.32,-523.94 1368.05,-525.01 1357.26,-526.04"/>
<polygon fill="#63b8ff" stroke="#63b8ff" points="1390.49,-526.39 1400.12,-521.96 1389.83,-519.43 1390.49,-526.39"/>
</a>
</g>
</g>
<!-- Node25&#45;&gt;Node4 -->
<g id="edge52_Node000025_Node000004" class="edge">
<title>Node25&#45;&gt;Node4</title>
<g id="a_edge52_Node000025_Node000004"><a xlink:title=" ">
<path fill="none" stroke="#63b8ff" d="M1542.97,-219.27C1618.78,-246.95 1752.77,-295.88 1822.59,-321.38"/>
<polygon fill="#63b8ff" stroke="#63b8ff" points="1544.24,-216 1533.65,-215.86 1541.84,-222.58 1544.24,-216"/>
</a>
</g>
</g>
<!-- Node25&#45;&gt;Node15 -->
<g id="edge49_Node000025_Node000015" class="edge">
<title>Node25&#45;&gt;Node15</title>
<g id="a_edge49_Node000025_Node000015"><a xlink:title=" ">
<path fill="none" stroke="#63b8ff" d="M1407.5,-202.92C1393.68,-203.6 1379.41,-204.28 1366,-204.87 1298.8,-207.85 1222.71,-210.76 1165.88,-212.83"/>
<polygon fill="#63b8ff" stroke="#63b8ff" points="1407.65,-206.41 1417.46,-202.42 1407.3,-199.42 1407.65,-206.41"/>
</a>
</g>
</g>
<!-- Node25&#45;&gt;Node17 -->
<g id="edge50_Node000025_Node000017" class="edge">
<title>Node25&#45;&gt;Node17</title>
<g id="a_edge50_Node000025_Node000017"><a xlink:title=" ">
<path fill="none" stroke="#63b8ff" d="M1435.06,-178.26C1414,-170.14 1389.07,-161.26 1366,-154.87 1294.96,-135.2 1212.03,-120.43 1153.77,-111.35"/>
<polygon fill="#63b8ff" stroke="#63b8ff" points="1433.69,-181.48 1444.28,-181.86 1436.24,-174.96 1433.69,-181.48"/>
</a>
</g>
</g>
<!-- Node25&#45;&gt;Node21 -->
<g id="edge51_Node000025_Node000021" class="edge">
<title>Node25&#45;&gt;Node21</title>
<g id="a_edge51_Node000025_Node000021"><a xlink:title=" ">
<path fill="none" stroke="#63b8ff" d="M1452.05,-221.9C1408.1,-252.5 1332.3,-305.28 1300.37,-327.52"/>
<polygon fill="#63b8ff" stroke="#63b8ff" points="1453.99,-224.81 1460.2,-216.23 1449.99,-219.07 1453.99,-224.81"/>
</a>
</g>
</g>
<!-- Node26 -->
<g id="Node000026" class="node">
<title>Node26</title>
<g id="a_Node000026"><a xlink:href="class_main_window.html#a9ed390421f6755b891cfc651d173db7b" target="_top" xlink:title=" ">
<polygon fill="white" stroke="#666666" points="1356.25,-107.87 1212.75,-107.87 1212.75,-75.87 1356.25,-75.87 1356.25,-107.87"/>
<text xml:space="preserve" text-anchor="start" x="1220.75" y="-94.37" font-family="Helvetica,sans-Serif" font-size="10.00">MainWindow::handleAttribute</text>
<text xml:space="preserve" text-anchor="middle" x="1284.5" y="-82.37" font-family="Helvetica,sans-Serif" font-size="10.00">PropertyChange</text>
</a>
</g>
</g>
<!-- Node25&#45;&gt;Node26 -->
<g id="edge41_Node000025_Node000026" class="edge">
<title>Node25&#45;&gt;Node26</title>
<g id="a_edge41_Node000025_Node000026"><a xlink:title=" ">
<path fill="none" stroke="#63b8ff" d="M1454.08,-176.13C1430.66,-159.65 1397.34,-137.6 1366,-121.87 1356.14,-116.92 1345.25,-112.32 1334.75,-108.29"/>
<polygon fill="#63b8ff" stroke="#63b8ff" points="1451.75,-178.77 1461.92,-181.71 1455.8,-173.06 1451.75,-178.77"/>
</a>
</g>
</g>
<!-- Node27 -->
<g id="Node000027" class="node">
<title>Node27</title>
<g id="a_Node000027"><a xlink:href="class_main_window.html#aa69c4b7c558b2fb3922adf75af48330a" target="_top" xlink:title=" ">
<polygon fill="white" stroke="#666666" points="1364.88,-57.87 1204.12,-57.87 1204.12,-25.87 1364.88,-25.87 1364.88,-57.87"/>
<text xml:space="preserve" text-anchor="start" x="1212.12" y="-44.37" font-family="Helvetica,sans-Serif" font-size="10.00">MainWindow::handleRelationship</text>
<text xml:space="preserve" text-anchor="middle" x="1284.5" y="-32.37" font-family="Helvetica,sans-Serif" font-size="10.00">EndCardinalityChange</text>
</a>
</g>
</g>
<!-- Node25&#45;&gt;Node27 -->
<g id="edge45_Node000025_Node000027" class="edge">
<title>Node25&#45;&gt;Node27</title>
<g id="a_edge45_Node000025_Node000027"><a xlink:title=" ">
<path fill="none" stroke="#63b8ff" d="M1468.4,-173.19C1447.75,-143.44 1409.93,-94.96 1366,-66.87 1360.94,-63.64 1355.44,-60.8 1349.77,-58.31"/>
<polygon fill="#63b8ff" stroke="#63b8ff" points="1465.36,-174.94 1473.87,-181.24 1471.15,-171.01 1465.36,-174.94"/>
</a>
</g>
</g>
<!-- Node28 -->
<g id="Node000028" class="node">
<title>Node28</title>
<g id="a_Node000028"><a xlink:href="class_main_window.html#a96d575a529f7c24b1b5094b4b1e42742" target="_top" xlink:title=" ">
<polygon fill="white" stroke="#666666" points="1364.88,-195.87 1204.12,-195.87 1204.12,-163.87 1364.88,-163.87 1364.88,-195.87"/>
<text xml:space="preserve" text-anchor="start" x="1212.12" y="-182.37" font-family="Helvetica,sans-Serif" font-size="10.00">MainWindow::handleRelationship</text>
<text xml:space="preserve" text-anchor="middle" x="1284.5" y="-170.37" font-family="Helvetica,sans-Serif" font-size="10.00">EndParticipationChange</text>
</a>
</g>
</g>
<!-- Node25&#45;&gt;Node28 -->
<g id="edge47_Node000025_Node000028" class="edge">
<title>Node25&#45;&gt;Node28</title>
<g id="a_edge47_Node000025_Node000028"><a xlink:title=" ">
<path fill="none" stroke="#63b8ff" d="M1407.83,-191.52C1393.8,-190.18 1379.14,-188.78 1365.05,-187.44"/>
<polygon fill="#63b8ff" stroke="#63b8ff" points="1407.14,-194.96 1417.42,-192.43 1407.8,-188 1407.14,-194.96"/>
</a>
</g>
</g>
<!-- Node26&#45;&gt;Node4 -->
<g id="edge44_Node000026_Node000004" class="edge">
<title>Node26&#45;&gt;Node4</title>
<g id="a_edge44_Node000026_Node000004"><a xlink:title=" ">
<path fill="none" stroke="#63b8ff" d="M1367.55,-105.7C1465.67,-124.82 1632.39,-165.69 1758,-239.87 1796.49,-262.6 1833.64,-300.05 1853.3,-321.47"/>
<polygon fill="#63b8ff" stroke="#63b8ff" points="1368.48,-102.31 1358,-103.87 1367.16,-109.19 1368.48,-102.31"/>
</a>
</g>
</g>
<!-- Node26&#45;&gt;Node15 -->
<g id="edge42_Node000026_Node000015" class="edge">
<title>Node26&#45;&gt;Node15</title>
<g id="a_edge42_Node000026_Node000015"><a xlink:title=" ">
<path fill="none" stroke="#63b8ff" d="M1246.62,-114.32C1202.23,-141.33 1129.59,-185.54 1096.78,-205.51"/>
<polygon fill="#63b8ff" stroke="#63b8ff" points="1248.43,-117.31 1255.15,-109.12 1244.79,-111.33 1248.43,-117.31"/>
</a>
</g>
</g>
<!-- Node26&#45;&gt;Node17 -->
<g id="edge43_Node000026_Node000017" class="edge">
<title>Node26&#45;&gt;Node17</title>
<g id="a_edge43_Node000026_Node000017"><a xlink:title=" ">
<path fill="none" stroke="#63b8ff" d="M1201.08,-95.51C1189.96,-96 1178.53,-96.51 1167.33,-97"/>
<polygon fill="#63b8ff" stroke="#63b8ff" points="1201.18,-99.01 1211.01,-95.07 1200.87,-92.02 1201.18,-99.01"/>
</a>
</g>
</g>
<!-- Node27&#45;&gt;Node17 -->
<g id="edge46_Node000027_Node000017" class="edge">
<title>Node27&#45;&gt;Node17</title>
<g id="a_edge46_Node000027_Node000017"><a xlink:title=" ">
<path fill="none" stroke="#63b8ff" d="M1215.69,-61.51C1182.39,-71.15 1143.61,-82.38 1116.01,-90.37"/>
<polygon fill="#63b8ff" stroke="#63b8ff" points="1216.66,-64.87 1225.29,-58.73 1214.71,-58.15 1216.66,-64.87"/>
</a>
</g>
</g>
<!-- Node28&#45;&gt;Node15 -->
<g id="edge48_Node000028_Node000015" class="edge">
<title>Node28&#45;&gt;Node15</title>
<g id="a_edge48_Node000028_Node000015"><a xlink:title=" ">
<path fill="none" stroke="#63b8ff" d="M1192.64,-195.93C1174.5,-199.13 1155.9,-202.42 1139.16,-205.38"/>
<polygon fill="#63b8ff" stroke="#63b8ff" points="1193.12,-199.39 1202.36,-194.21 1191.9,-192.5 1193.12,-199.39"/>
</a>
</g>
</g>
</g>
</svg>
