<?xml version="1.0" encoding="UTF-8" standalone="no"?>
<!DOCTYPE svg PUBLIC "-//W3C//DTD SVG 1.1//EN"
 "http://www.w3.org/Graphics/SVG/1.1/DTD/svg11.dtd">
<!-- Generated by graphviz version 14.1.1 (20251213.1925)
 -->
<!-- Title: Attribute::setAttributeType Pages: 1 -->
<svg width="526pt" height="154pt"
 viewBox="0.00 0.00 526.00 154.00" xmlns="http://www.w3.org/2000/svg" xmlns:xlink="http://www.w3.org/1999/xlink">
<g id="graph0" class="graph" transform="scale(1 1) rotate(0) translate(4 150)">
<title>Attribute::setAttributeType</title>
<!-- Node1 -->
<g id="Node000001" class="node">
<title>Node1</title>
<g id="a_Node000001"><a xlink:title=" ">
<polygon fill="#999999" stroke="#666666" points="130,-77 0,-77 0,-57 130,-57 130,-77"/>
<text xml:space="preserve" text-anchor="middle" x="65" y="-63.5" font-family="Helvetica,sans-Serif" font-size="10.00">Attribute::setAttributeType</text>
</a>
</g>
</g>
<!-- Node2 -->
<g id="Node000002" class="node">
<title>Node2</title>
<g id="a_Node000002"><a xlink:href="class_attribute.html#acef960b4cb4bd5ddd2b0a2458dfff316" target="_top" xlink:title=" ">
<polygon fill="white" stroke="#666666" points="303.12,-146 188.12,-146 188.12,-114 303.12,-114 303.12,-146"/>
<text xml:space="preserve" text-anchor="start" x="196.12" y="-132.5" font-family="Helvetica,sans-Serif" font-size="10.00">Attribute::attributeType</text>
<text xml:space="preserve" text-anchor="middle" x="245.62" y="-120.5" font-family="Helvetica,sans-Serif" font-size="10.00">Changed</text>
</a>
</g>
</g>
<!-- Node1&#45;&gt;Node2 -->
<g id="edge1_Node000001_Node000002" class="edge">
<title>Node1&#45;&gt;Node2</title>
<g id="a_edge1_Node000001_Node000002"><a xlink:title=" ">
<path fill="none" stroke="#63b8ff" d="M92.17,-77.4C112.26,-85.27 140.75,-96.19 166,-105 170.77,-106.66 175.72,-108.34 180.7,-110"/>
<polygon fill="#63b8ff" stroke="#63b8ff" points="179.59,-113.32 190.19,-113.12 181.78,-106.67 179.59,-113.32"/>
</a>
</g>
</g>
<!-- Node3 -->
<g id="Node000003" class="node">
<title>Node3</title>
<g id="a_Node000003"><a xlink:href="class_basic_element.html#a7d4ba0dde91dbc91f7560297ae3e1716" target="_top" xlink:title=" ">
<polygon fill="white" stroke="#666666" points="325.25,-96 166,-96 166,-76 325.25,-76 325.25,-96"/>
<text xml:space="preserve" text-anchor="middle" x="245.62" y="-82.5" font-family="Helvetica,sans-Serif" font-size="10.00">BasicElement::clearAttributesIds</text>
</a>
</g>
</g>
<!-- Node1&#45;&gt;Node3 -->
<g id="edge2_Node000001_Node000003" class="edge">
<title>Node1&#45;&gt;Node3</title>
<g id="a_edge2_Node000001_Node000003"><a xlink:title=" ">
<path fill="none" stroke="#63b8ff" d="M130.49,-73.86C138.23,-74.68 146.24,-75.54 154.27,-76.39"/>
<polygon fill="#63b8ff" stroke="#63b8ff" points="153.78,-79.86 164.09,-77.43 154.52,-72.9 153.78,-79.86"/>
</a>
</g>
</g>
<!-- Node4 -->
<g id="Node000004" class="node">
<title>Node4</title>
<g id="a_Node000004"><a xlink:href="class_basic_element.html#ad1b7a593fb82e872041b342abd157088" target="_top" xlink:title=" ">
<polygon fill="white" stroke="#666666" points="517.5,-58 361.25,-58 361.25,-38 517.5,-38 517.5,-58"/>
<text xml:space="preserve" text-anchor="middle" x="439.38" y="-44.5" font-family="Helvetica,sans-Serif" font-size="10.00">BasicElement::elementChanged</text>
</a>
</g>
</g>
<!-- Node1&#45;&gt;Node4 -->
<g id="edge3_Node000001_Node000004" class="edge">
<title>Node1&#45;&gt;Node4</title>
<g id="a_edge3_Node000001_Node000004"><a xlink:title=" ">
<path fill="none" stroke="#63b8ff" d="M130.44,-63.71C190.95,-60.62 282.01,-55.98 349.42,-52.54"/>
<polygon fill="#63b8ff" stroke="#63b8ff" points="349.56,-56.04 359.36,-52.03 349.2,-49.05 349.56,-56.04"/>
</a>
</g>
</g>
<!-- Node5 -->
<g id="Node000005" class="node">
<title>Node5</title>
<g id="a_Node000005"><a xlink:href="class_attribute.html#a8918add957134a18557a19f9939699f3" target="_top" xlink:title=" ">
<polygon fill="white" stroke="#666666" points="307.25,-20 184,-20 184,0 307.25,0 307.25,-20"/>
<text xml:space="preserve" text-anchor="middle" x="245.62" y="-6.5" font-family="Helvetica,sans-Serif" font-size="10.00">Attribute::setPrimaryKey</text>
</a>
</g>
</g>
<!-- Node1&#45;&gt;Node5 -->
<g id="edge4_Node000001_Node000005" class="edge">
<title>Node1&#45;&gt;Node5</title>
<g id="a_edge4_Node000001_Node000005"><a xlink:title=" ">
<path fill="none" stroke="#63b8ff" d="M97.02,-56.56C116.74,-49.98 142.83,-41.36 166,-34 176.6,-30.63 188.03,-27.09 198.81,-23.8"/>
<polygon fill="#63b8ff" stroke="#63b8ff" points="199.74,-27.17 208.29,-20.91 197.7,-20.47 199.74,-27.17"/>
</a>
</g>
</g>
<!-- Node5&#45;&gt;Node4 -->
<g id="edge5_Node000005_Node000004" class="edge">
<title>Node5&#45;&gt;Node4</title>
<g id="a_edge5_Node000005_Node000004"><a xlink:title=" ">
<path fill="none" stroke="#63b8ff" d="M299.53,-20.48C322.69,-25.07 350.06,-30.5 374.36,-35.31"/>
<polygon fill="#63b8ff" stroke="#63b8ff" points="373.67,-38.74 384.16,-37.26 375.03,-31.88 373.67,-38.74"/>
</a>
</g>
</g>
<!-- Node6 -->
<g id="Node000006" class="node">
<title>Node6</title>
<g id="a_Node000006"><a xlink:href="class_attribute.html#a3c9d142321c01521ec6b2e9655c7879d" target="_top" xlink:title=" ">
<polygon fill="white" stroke="#666666" points="513,-20 365.75,-20 365.75,0 513,0 513,-20"/>
<text xml:space="preserve" text-anchor="middle" x="439.38" y="-6.5" font-family="Helvetica,sans-Serif" font-size="10.00">Attribute::primaryKeyChanged</text>
</a>
</g>
</g>
<!-- Node5&#45;&gt;Node6 -->
<g id="edge6_Node000005_Node000006" class="edge">
<title>Node5&#45;&gt;Node6</title>
<g id="a_edge6_Node000005_Node000006"><a xlink:title=" ">
<path fill="none" stroke="#63b8ff" d="M307.56,-10C322.38,-10 338.5,-10 354.19,-10"/>
<polygon fill="#63b8ff" stroke="#63b8ff" points="354.01,-13.5 364.01,-10 354.01,-6.5 354.01,-13.5"/>
</a>
</g>
</g>
</g>
</svg>
