<?xml version="1.0" encoding="UTF-8" standalone="no"?>
<!DOCTYPE svg PUBLIC "-//W3C//DTD SVG 1.1//EN"
 "http://www.w3.org/Graphics/SVG/1.1/DTD/svg11.dtd">
<!-- Generated by graphviz version 14.1.1 (20251213.1925)
 -->
<!-- Title: RelationshipConnectionLine::disconnectFromRelationshipEnd Pages: 1 -->
<svg width="1107pt" height="212pt"
 viewBox="0.00 0.00 1107.00 212.00" xmlns="http://www.w3.org/2000/svg" xmlns:xlink="http://www.w3.org/1999/xlink">
<g id="graph0" class="graph" transform="scale(1 1) rotate(0) translate(4 208)">
<title>RelationshipConnectionLine::disconnectFromRelationshipEnd</title>
<!-- Node1 -->
<g id="Node000001" class="node">
<title>Node1</title>
<g id="a_Node000001"><a xlink:title=" ">
<polygon fill="#999999" stroke="#666666" points="163,-129 0,-129 0,-97 163,-97 163,-129"/>
<text xml:space="preserve" text-anchor="start" x="8" y="-115.5" font-family="Helvetica,sans-Serif" font-size="10.00">RelationshipConnectionLine</text>
<text xml:space="preserve" text-anchor="middle" x="81.5" y="-103.5" font-family="Helvetica,sans-Serif" font-size="10.00">::disconnectFromRelationshipEnd</text>
</a>
</g>
</g>
<!-- Node2 -->
<g id="Node000002" class="node">
<title>Node2</title>
<g id="a_Node000002"><a xlink:href="class_relationship_end.html#a428833c0b2339ae098d4b81dae5ee06b" target="_top" xlink:title=" ">
<polygon fill="white" stroke="#666666" points="353.75,-204 216.25,-204 216.25,-172 353.75,-172 353.75,-204"/>
<text xml:space="preserve" text-anchor="start" x="224.25" y="-190.5" font-family="Helvetica,sans-Serif" font-size="10.00">RelationshipEnd::cardinality</text>
<text xml:space="preserve" text-anchor="middle" x="285" y="-178.5" font-family="Helvetica,sans-Serif" font-size="10.00">Changed</text>
</a>
</g>
</g>
<!-- Node1&#45;&gt;Node2 -->
<g id="edge1_Node000001_Node000002" class="edge">
<title>Node1&#45;&gt;Node2</title>
<g id="a_edge1_Node000001_Node000002"><a xlink:title=" ">
<path fill="none" stroke="#63b8ff" d="M117.75,-129.43C140.63,-139.77 171.25,-153.01 199,-163 203.9,-164.76 208.99,-166.5 214.13,-168.18"/>
<polygon fill="#63b8ff" stroke="#63b8ff" points="212.69,-171.39 223.28,-171.09 214.81,-164.72 212.69,-171.39"/>
</a>
</g>
</g>
<!-- Node3 -->
<g id="Node000003" class="node">
<title>Node3</title>
<g id="a_Node000003"><a xlink:href="class_relationship_end.html#aabe969de6fb68acfe7053465c004a74d" target="_top" xlink:title=" ">
<polygon fill="white" stroke="#666666" points="371,-154 199,-154 199,-122 371,-122 371,-154"/>
<text xml:space="preserve" text-anchor="start" x="207" y="-140.5" font-family="Helvetica,sans-Serif" font-size="10.00">RelationshipEnd::customCardinality</text>
<text xml:space="preserve" text-anchor="middle" x="285" y="-128.5" font-family="Helvetica,sans-Serif" font-size="10.00">TextChanged</text>
</a>
</g>
</g>
<!-- Node1&#45;&gt;Node3 -->
<g id="edge2_Node000001_Node000003" class="edge">
<title>Node1&#45;&gt;Node3</title>
<g id="a_edge2_Node000001_Node000003"><a xlink:title=" ">
<path fill="none" stroke="#63b8ff" d="M163.3,-123.02C171.19,-124 179.24,-125 187.27,-126"/>
<polygon fill="#63b8ff" stroke="#63b8ff" points="186.71,-129.46 197.07,-127.21 187.57,-122.51 186.71,-129.46"/>
</a>
</g>
</g>
<!-- Node4 -->
<g id="Node000004" class="node">
<title>Node4</title>
<g id="a_Node000004"><a xlink:href="class_relationship_connection_line.html#a5b1065964a03731df2da3883f650faa6" target="_top" xlink:title=" ">
<polygon fill="white" stroke="#666666" points="356.38,-104 213.62,-104 213.62,-72 356.38,-72 356.38,-104"/>
<text xml:space="preserve" text-anchor="start" x="221.62" y="-90.5" font-family="Helvetica,sans-Serif" font-size="10.00">RelationshipConnectionLine</text>
<text xml:space="preserve" text-anchor="middle" x="285" y="-78.5" font-family="Helvetica,sans-Serif" font-size="10.00">::onRelationshipEndChanged</text>
</a>
</g>
</g>
<!-- Node1&#45;&gt;Node4 -->
<g id="edge3_Node000001_Node000004" class="edge">
<title>Node1&#45;&gt;Node4</title>
<g id="a_edge3_Node000001_Node000004"><a xlink:title=" ">
<path fill="none" stroke="#63b8ff" d="M163.3,-102.98C176.08,-101.39 189.32,-99.75 202.13,-98.16"/>
<polygon fill="#63b8ff" stroke="#63b8ff" points="202.26,-101.67 211.76,-96.96 201.4,-94.72 202.26,-101.67"/>
</a>
</g>
</g>
<!-- Node12 -->
<g id="Node000012" class="node">
<title>Node12</title>
<g id="a_Node000012"><a xlink:href="class_relationship_end.html#a6e9e40441ae8b3ce493d71756d692a0c" target="_top" xlink:title=" ">
<polygon fill="white" stroke="#666666" points="368,-54 202,-54 202,-22 368,-22 368,-54"/>
<text xml:space="preserve" text-anchor="start" x="210" y="-40.5" font-family="Helvetica,sans-Serif" font-size="10.00">RelationshipEnd::totalParticipation</text>
<text xml:space="preserve" text-anchor="middle" x="285" y="-28.5" font-family="Helvetica,sans-Serif" font-size="10.00">Changed</text>
</a>
</g>
</g>
<!-- Node1&#45;&gt;Node12 -->
<g id="edge13_Node000001_Node000012" class="edge">
<title>Node1&#45;&gt;Node12</title>
<g id="a_edge13_Node000001_Node000012"><a xlink:title=" ">
<path fill="none" stroke="#63b8ff" d="M117.75,-96.57C140.63,-86.23 171.25,-72.99 199,-63 203.9,-61.24 208.99,-59.5 214.13,-57.82"/>
<polygon fill="#63b8ff" stroke="#63b8ff" points="214.81,-61.28 223.28,-54.91 212.69,-54.61 214.81,-61.28"/>
</a>
</g>
</g>
<!-- Node5 -->
<g id="Node000005" class="node">
<title>Node5</title>
<g id="a_Node000005"><a xlink:href="class_connection_line.html#a9de44ae385d7941f3aa79da06e97d510" target="_top" xlink:title=" ">
<polygon fill="white" stroke="#666666" points="543.75,-104 407,-104 407,-72 543.75,-72 543.75,-104"/>
<text xml:space="preserve" text-anchor="start" x="415" y="-90.5" font-family="Helvetica,sans-Serif" font-size="10.00">ConnectionLine::connection</text>
<text xml:space="preserve" text-anchor="middle" x="475.38" y="-78.5" font-family="Helvetica,sans-Serif" font-size="10.00">Changed</text>
</a>
</g>
</g>
<!-- Node4&#45;&gt;Node5 -->
<g id="edge4_Node000004_Node000005" class="edge">
<title>Node4&#45;&gt;Node5</title>
<g id="a_edge4_Node000004_Node000005"><a xlink:title=" ">
<path fill="none" stroke="#63b8ff" d="M356.68,-88C369.36,-88 382.64,-88 395.53,-88"/>
<polygon fill="#63b8ff" stroke="#63b8ff" points="395.22,-91.5 405.22,-88 395.22,-84.5 395.22,-91.5"/>
</a>
</g>
</g>
<!-- Node6 -->
<g id="Node000006" class="node">
<title>Node6</title>
<g id="a_Node000006"><a xlink:href="class_connection_line.html#a657559dca679d5fd04ae565b442b6a8b" target="_top" xlink:title=" ">
<polygon fill="white" stroke="#666666" points="736.75,-98 579.75,-98 579.75,-78 736.75,-78 736.75,-98"/>
<text xml:space="preserve" text-anchor="middle" x="658.25" y="-84.5" font-family="Helvetica,sans-Serif" font-size="10.00">ConnectionLine::ConnectionLine</text>
</a>
</g>
</g>
<!-- Node5&#45;&gt;Node6 -->
<g id="edge5_Node000005_Node000006" class="edge">
<title>Node5&#45;&gt;Node6</title>
<g id="a_edge5_Node000005_Node000006"><a xlink:title=" ">
<path fill="none" stroke="#63b8ff" d="M544.24,-88C552.01,-88 560.01,-88 568,-88"/>
<polygon fill="#63b8ff" stroke="#63b8ff" points="567.76,-91.5 577.76,-88 567.76,-84.5 567.76,-91.5"/>
</a>
</g>
</g>
<!-- Node7 -->
<g id="Node000007" class="node">
<title>Node7</title>
<g id="a_Node000007"><a xlink:href="class_connection_line.html#a836aef7faf5a4fb8a5a10bfc71dbabe3" target="_top" xlink:title=" ">
<polygon fill="white" stroke="#666666" points="907.25,-104 772.75,-104 772.75,-72 907.25,-72 907.25,-104"/>
<text xml:space="preserve" text-anchor="start" x="780.75" y="-90.5" font-family="Helvetica,sans-Serif" font-size="10.00">ConnectionLine::connectTo</text>
<text xml:space="preserve" text-anchor="middle" x="840" y="-78.5" font-family="Helvetica,sans-Serif" font-size="10.00">Points</text>
</a>
</g>
</g>
<!-- Node6&#45;&gt;Node7 -->
<g id="edge6_Node000006_Node000007" class="edge">
<title>Node6&#45;&gt;Node7</title>
<g id="a_edge6_Node000006_Node000007"><a xlink:title=" ">
<path fill="none" stroke="#63b8ff" d="M737.05,-88C744.95,-88 752.98,-88 760.89,-88"/>
<polygon fill="#63b8ff" stroke="#63b8ff" points="760.85,-91.5 770.85,-88 760.85,-84.5 760.85,-91.5"/>
</a>
</g>
</g>
<!-- Node8 -->
<g id="Node000008" class="node">
<title>Node8</title>
<g id="a_Node000008"><a xlink:href="class_connection_line.html#a53c863c51a284a7a8e6b35bc34bd2d34" target="_top" xlink:title=" ">
<polygon fill="white" stroke="#666666" points="1095.75,-170 946.25,-170 946.25,-138 1095.75,-138 1095.75,-170"/>
<text xml:space="preserve" text-anchor="start" x="954.25" y="-156.5" font-family="Helvetica,sans-Serif" font-size="10.00">ConnectionLine::onConnection</text>
<text xml:space="preserve" text-anchor="middle" x="1021" y="-144.5" font-family="Helvetica,sans-Serif" font-size="10.00">PointChanged</text>
</a>
</g>
</g>
<!-- Node7&#45;&gt;Node8 -->
<g id="edge7_Node000007_Node000008" class="edge">
<title>Node7&#45;&gt;Node8</title>
<g id="a_edge7_Node000007_Node000008"><a xlink:title=" ">
<path fill="none" stroke="#63b8ff" d="M880.1,-104.38C899.05,-112.15 922.22,-121.37 943.25,-129 947.7,-130.61 952.3,-132.24 956.95,-133.84"/>
<polygon fill="#63b8ff" stroke="#63b8ff" points="955.79,-137.14 966.39,-137.03 958.04,-130.51 955.79,-137.14"/>
</a>
</g>
</g>
<!-- Node9 -->
<g id="Node000009" class="node">
<title>Node9</title>
<g id="a_Node000009"><a xlink:href="class_connection_line.html#a4bce34a3f2fb1fd7145de2d9100c9173" target="_top" xlink:title=" ">
<polygon fill="white" stroke="#666666" points="1089,-32 953,-32 953,0 1089,0 1089,-32"/>
<text xml:space="preserve" text-anchor="start" x="961" y="-18.5" font-family="Helvetica,sans-Serif" font-size="10.00">ConnectionLine::onElement</text>
<text xml:space="preserve" text-anchor="middle" x="1021" y="-6.5" font-family="Helvetica,sans-Serif" font-size="10.00">PositionChanged</text>
</a>
</g>
</g>
<!-- Node7&#45;&gt;Node9 -->
<g id="edge9_Node000007_Node000009" class="edge">
<title>Node7&#45;&gt;Node9</title>
<g id="a_edge9_Node000007_Node000009"><a xlink:title=" ">
<path fill="none" stroke="#63b8ff" d="M874.2,-71.55C894,-62.04 919.78,-50.18 943.25,-41 947.39,-39.38 951.68,-37.78 956.02,-36.22"/>
<polygon fill="#63b8ff" stroke="#63b8ff" points="957.16,-39.53 965.44,-32.92 954.84,-32.92 957.16,-39.53"/>
</a>
</g>
</g>
<!-- Node10 -->
<g id="Node000010" class="node">
<title>Node10</title>
<g id="a_Node000010"><a xlink:href="class_basic_element.html#a02183bafd7c80f9f1f99a9b9f1631524" target="_top" xlink:title=" ">
<polygon fill="white" stroke="#666666" points="1098.75,-120 943.25,-120 943.25,-100 1098.75,-100 1098.75,-120"/>
<text xml:space="preserve" text-anchor="middle" x="1021" y="-106.5" font-family="Helvetica,sans-Serif" font-size="10.00">BasicElement::positionChanged</text>
</a>
</g>
</g>
<!-- Node7&#45;&gt;Node10 -->
<g id="edge11_Node000007_Node000010" class="edge">
<title>Node7&#45;&gt;Node10</title>
<g id="a_edge11_Node000007_Node000010"><a xlink:title=" ">
<path fill="none" stroke="#63b8ff" d="M907.65,-96.19C915.49,-97.16 923.58,-98.15 931.65,-99.14"/>
<polygon fill="#63b8ff" stroke="#63b8ff" points="931.18,-102.61 941.53,-100.36 932.03,-95.66 931.18,-102.61"/>
</a>
</g>
</g>
<!-- Node11 -->
<g id="Node000011" class="node">
<title>Node11</title>
<g id="a_Node000011"><a xlink:href="class_connection_point.html#a851668ae19e97658f1818a40ea375f65" target="_top" xlink:title=" ">
<polygon fill="white" stroke="#666666" points="1083.75,-82 958.25,-82 958.25,-50 1083.75,-50 1083.75,-82"/>
<text xml:space="preserve" text-anchor="start" x="966.25" y="-68.5" font-family="Helvetica,sans-Serif" font-size="10.00">ConnectionPoint::relative</text>
<text xml:space="preserve" text-anchor="middle" x="1021" y="-56.5" font-family="Helvetica,sans-Serif" font-size="10.00">PositionChanged</text>
</a>
</g>
</g>
<!-- Node7&#45;&gt;Node11 -->
<g id="edge12_Node000007_Node000011" class="edge">
<title>Node7&#45;&gt;Node11</title>
<g id="a_edge12_Node000007_Node000011"><a xlink:title=" ">
<path fill="none" stroke="#63b8ff" d="M907.65,-79.81C920.41,-78.24 933.84,-76.59 946.8,-75"/>
<polygon fill="#63b8ff" stroke="#63b8ff" points="947.03,-78.49 956.53,-73.8 946.18,-71.55 947.03,-78.49"/>
</a>
</g>
</g>
<!-- Node8&#45;&gt;Node5 -->
<g id="edge8_Node000008_Node000005" class="edge">
<title>Node8&#45;&gt;Node5</title>
<g id="a_edge8_Node000008_Node000005"><a xlink:title=" ">
<path fill="none" stroke="#63b8ff" d="M945.79,-147.8C858.1,-140.07 707.93,-125.59 579.75,-107 571.8,-105.85 563.54,-104.53 555.29,-103.14"/>
<polygon fill="#63b8ff" stroke="#63b8ff" points="556.04,-99.71 545.59,-101.46 554.84,-106.61 556.04,-99.71"/>
</a>
</g>
</g>
<!-- Node9&#45;&gt;Node5 -->
<g id="edge10_Node000009_Node000005" class="edge">
<title>Node9&#45;&gt;Node5</title>
<g id="a_edge10_Node000009_Node000005"><a xlink:title=" ">
<path fill="none" stroke="#63b8ff" d="M952.7,-22.79C866.18,-31.82 711.42,-48.99 579.75,-69 571.81,-70.21 563.55,-71.56 555.31,-72.97"/>
<polygon fill="#63b8ff" stroke="#63b8ff" points="554.85,-69.5 545.6,-74.67 556.06,-76.39 554.85,-69.5"/>
</a>
</g>
</g>
</g>
</svg>
