<?xml version="1.0" encoding="UTF-8" standalone="no"?>
<!DOCTYPE svg PUBLIC "-//W3C//DTD SVG 1.1//EN"
 "http://www.w3.org/Graphics/SVG/1.1/DTD/svg11.dtd">
<!-- Generated by graphviz version 14.1.1 (20251213.1925)
 -->
<!-- Title: PropertiesPanel::createPropertyItem Pages: 1 -->
<svg width="1755pt" height="770pt"
 viewBox="0.00 0.00 1755.00 770.00" xmlns="http://www.w3.org/2000/svg" xmlns:xlink="http://www.w3.org/1999/xlink">
<g id="graph0" class="graph" transform="scale(1 1) rotate(0) translate(4 766)">
<title>PropertiesPanel::createPropertyItem</title>
<!-- Node1 -->
<g id="Node000001" class="node">
<title>Node1</title>
<g id="a_Node000001"><a xlink:title=" ">
<polygon fill="#999999" stroke="#666666" points="1747,-314 1572.75,-314 1572.75,-294 1747,-294 1747,-314"/>
<text xml:space="preserve" text-anchor="middle" x="1659.88" y="-300.5" font-family="Helvetica,sans-Serif" font-size="10.00">PropertiesPanel::createPropertyItem</text>
</a>
</g>
</g>
<!-- Node2 -->
<g id="Node000002" class="node">
<title>Node2</title>
<g id="a_Node000002"><a xlink:href="class_properties_panel.html#a050a4a9040c7aeefde9c1377d2e1909e" target="_top" xlink:title=" ">
<polygon fill="white" stroke="#666666" points="1536.75,-196 1409,-196 1409,-164 1536.75,-164 1536.75,-196"/>
<text xml:space="preserve" text-anchor="start" x="1417" y="-182.5" font-family="Helvetica,sans-Serif" font-size="10.00">PropertiesPanel::populate</text>
<text xml:space="preserve" text-anchor="middle" x="1472.88" y="-170.5" font-family="Helvetica,sans-Serif" font-size="10.00">AttributeList</text>
</a>
</g>
</g>
<!-- Node1&#45;&gt;Node2 -->
<g id="edge1_Node000001_Node000002" class="edge">
<title>Node1&#45;&gt;Node2</title>
<g id="a_edge1_Node000001_Node000002"><a xlink:title=" ">
<path fill="none" stroke="#63b8ff" d="M1634.25,-287.5C1598.79,-263.73 1533.73,-220.12 1498.35,-196.41"/>
<polygon fill="#63b8ff" stroke="#63b8ff" points="1631.91,-290.14 1642.16,-292.8 1635.8,-284.32 1631.91,-290.14"/>
</a>
</g>
</g>
<!-- Node4 -->
<g id="Node000004" class="node">
<title>Node4</title>
<g id="a_Node000004"><a xlink:href="class_properties_panel.html#a037586f897062f3915a123b9f2a82b91" target="_top" xlink:title=" ">
<polygon fill="white" stroke="#666666" points="1209.25,-174 1081.5,-174 1081.5,-142 1209.25,-142 1209.25,-174"/>
<text xml:space="preserve" text-anchor="start" x="1089.5" y="-160.5" font-family="Helvetica,sans-Serif" font-size="10.00">PropertiesPanel::populate</text>
<text xml:space="preserve" text-anchor="middle" x="1145.38" y="-148.5" font-family="Helvetica,sans-Serif" font-size="10.00">ForElement</text>
</a>
</g>
</g>
<!-- Node1&#45;&gt;Node4 -->
<g id="edge49_Node000001_Node000004" class="edge">
<title>Node1&#45;&gt;Node4</title>
<g id="a_edge49_Node000001_Node000004"><a xlink:title=" ">
<path fill="none" stroke="#63b8ff" d="M1611.08,-290.39C1516.6,-263.47 1306.25,-203.55 1204.17,-174.46"/>
<polygon fill="#63b8ff" stroke="#63b8ff" points="1609.99,-293.71 1620.56,-293.09 1611.9,-286.98 1609.99,-293.71"/>
</a>
</g>
</g>
<!-- Node15 -->
<g id="Node000015" class="node">
<title>Node15</title>
<g id="a_Node000015"><a xlink:href="class_properties_panel.html#adbc7f8deb3a687706dc44ebbd7e39d9d" target="_top" xlink:title=" ">
<polygon fill="white" stroke="#666666" points="127.75,-740 0,-740 0,-708 127.75,-708 127.75,-740"/>
<text xml:space="preserve" text-anchor="start" x="8" y="-726.5" font-family="Helvetica,sans-Serif" font-size="10.00">PropertiesPanel::populate</text>
<text xml:space="preserve" text-anchor="middle" x="63.88" y="-714.5" font-family="Helvetica,sans-Serif" font-size="10.00">ForConnection</text>
</a>
</g>
</g>
<!-- Node1&#45;&gt;Node15 -->
<g id="edge48_Node000001_Node000015" class="edge">
<title>Node1&#45;&gt;Node15</title>
<g id="a_edge48_Node000001_Node000015"><a xlink:title=" ">
<path fill="none" stroke="#63b8ff" d="M1653.96,-325.44C1631.8,-415.92 1532.53,-762 1310.12,-762 1310.12,-762 1310.12,-762 417.38,-762 315.66,-762 198.38,-746.17 128.01,-734.94"/>
<polygon fill="#63b8ff" stroke="#63b8ff" points="1657.31,-326.44 1656.22,-315.9 1650.5,-324.82 1657.31,-326.44"/>
</a>
</g>
</g>
<!-- Node3 -->
<g id="Node000003" class="node">
<title>Node3</title>
<g id="a_Node000003"><a xlink:href="class_properties_panel.html#acc5a2b4e63ea74eaa34853f1cec46b81" target="_top" xlink:title=" ">
<polygon fill="white" stroke="#666666" points="1373,-152 1245.25,-152 1245.25,-120 1373,-120 1373,-152"/>
<text xml:space="preserve" text-anchor="start" x="1253.25" y="-138.5" font-family="Helvetica,sans-Serif" font-size="10.00">PropertiesPanel::populate</text>
<text xml:space="preserve" text-anchor="middle" x="1309.12" y="-126.5" font-family="Helvetica,sans-Serif" font-size="10.00">AttributeProperties</text>
</a>
</g>
</g>
<!-- Node2&#45;&gt;Node3 -->
<g id="edge2_Node000002_Node000003" class="edge">
<title>Node2&#45;&gt;Node3</title>
<g id="a_edge2_Node000002_Node000003"><a xlink:title=" ">
<path fill="none" stroke="#63b8ff" d="M1422.28,-160.23C1406.88,-155.55 1389.7,-150.77 1373.5,-146.63"/>
<polygon fill="#63b8ff" stroke="#63b8ff" points="1421.1,-163.53 1431.69,-163.15 1423.18,-156.84 1421.1,-163.53"/>
</a>
</g>
</g>
<!-- Node8 -->
<g id="Node000008" class="node">
<title>Node8</title>
<g id="a_Node000008"><a xlink:href="class_properties_panel.html#a6a4344308af5b2c993bc25981529239c" target="_top" xlink:title=" ">
<polygon fill="white" stroke="#666666" points="482.25,-206 354.5,-206 354.5,-174 482.25,-174 482.25,-206"/>
<text xml:space="preserve" text-anchor="start" x="362.5" y="-192.5" font-family="Helvetica,sans-Serif" font-size="10.00">PropertiesPanel::populate</text>
<text xml:space="preserve" text-anchor="middle" x="418.38" y="-180.5" font-family="Helvetica,sans-Serif" font-size="10.00">EntityProperties</text>
</a>
</g>
</g>
<!-- Node2&#45;&gt;Node8 -->
<g id="edge46_Node000002_Node000008" class="edge">
<title>Node2&#45;&gt;Node8</title>
<g id="a_edge46_Node000002_Node000008"><a xlink:title=" ">
<path fill="none" stroke="#63b8ff" d="M1397.48,-180.9C1344.9,-181.52 1272.76,-182.36 1209.25,-183 938.93,-185.74 616.57,-188.41 482.6,-189.49"/>
<polygon fill="#63b8ff" stroke="#63b8ff" points="1397.26,-184.4 1407.21,-180.78 1397.17,-177.4 1397.26,-184.4"/>
</a>
</g>
</g>
<!-- Node9 -->
<g id="Node000009" class="node">
<title>Node9</title>
<g id="a_Node000009"><a xlink:href="class_properties_panel.html#aeb116e2e51099f618b5d284e492bc0e2" target="_top" xlink:title=" ">
<polygon fill="white" stroke="#666666" points="127.75,-272 0,-272 0,-240 127.75,-240 127.75,-272"/>
<text xml:space="preserve" text-anchor="start" x="8" y="-258.5" font-family="Helvetica,sans-Serif" font-size="10.00">PropertiesPanel::populate</text>
<text xml:space="preserve" text-anchor="middle" x="63.88" y="-246.5" font-family="Helvetica,sans-Serif" font-size="10.00">RelationshipProperties</text>
</a>
</g>
</g>
<!-- Node2&#45;&gt;Node9 -->
<g id="edge47_Node000002_Node000009" class="edge">
<title>Node2&#45;&gt;Node9</title>
<g id="a_edge47_Node000002_Node000009"><a xlink:title=" ">
<path fill="none" stroke="#63b8ff" d="M1448.32,-155.8C1397.89,-106.7 1273.65,0 1146.38,0 1146.38,0 1146.38,0 417.38,0 253.63,0 114.73,-183.09 75.77,-239.6"/>
<polygon fill="#63b8ff" stroke="#63b8ff" points="1445.67,-158.1 1455.24,-162.64 1450.6,-153.12 1445.67,-158.1"/>
</a>
</g>
</g>
<!-- Node3&#45;&gt;Node2 -->
<g id="edge3_Node000003_Node000002" class="edge">
<title>Node3&#45;&gt;Node2</title>
<g id="a_edge3_Node000003_Node000002"><a xlink:title=" ">
<path fill="none" stroke="#63b8ff" d="M1359.82,-155.8C1375.31,-160.5 1392.6,-165.31 1408.88,-169.46"/>
<polygon fill="#63b8ff" stroke="#63b8ff" points="1360.93,-152.48 1350.35,-152.86 1358.86,-159.17 1360.93,-152.48"/>
</a>
</g>
</g>
<!-- Node3&#45;&gt;Node4 -->
<g id="edge4_Node000003_Node000004" class="edge">
<title>Node3&#45;&gt;Node4</title>
<g id="a_edge4_Node000003_Node000004"><a xlink:title=" ">
<path fill="none" stroke="#63b8ff" d="M1233.83,-146.1C1225.78,-147.2 1217.64,-148.31 1209.74,-149.38"/>
<polygon fill="#63b8ff" stroke="#63b8ff" points="1234.19,-149.59 1243.63,-144.77 1233.24,-142.65 1234.19,-149.59"/>
</a>
</g>
</g>
<!-- Node5 -->
<g id="Node000005" class="node">
<title>Node5</title>
<g id="a_Node000005"><a xlink:href="class_properties_panel.html#a139ae0158b486c6004e15e0ddf36f319" target="_top" xlink:title=" ">
<polygon fill="white" stroke="#666666" points="1045.5,-474 924.5,-474 924.5,-454 1045.5,-454 1045.5,-474"/>
<text xml:space="preserve" text-anchor="middle" x="985" y="-460.5" font-family="Helvetica,sans-Serif" font-size="10.00">PropertiesPanel::refresh</text>
</a>
</g>
</g>
<!-- Node4&#45;&gt;Node5 -->
<g id="edge5_Node000004_Node000005" class="edge">
<title>Node4&#45;&gt;Node5</title>
<g id="a_edge5_Node000004_Node000005"><a xlink:title=" ">
<path fill="none" stroke="#63b8ff" d="M1130.61,-184.6C1097.3,-248.96 1013.48,-410.9 991.4,-453.57"/>
<polygon fill="#63b8ff" stroke="#63b8ff" points="1133.68,-186.29 1135.16,-175.8 1127.46,-183.07 1133.68,-186.29"/>
</a>
</g>
</g>
<!-- Node6 -->
<g id="Node000006" class="node">
<title>Node6</title>
<g id="a_Node000006"><a xlink:href="class_properties_panel.html#a55ae5c02e7d75c7bdc26281a148e8c5a" target="_top" xlink:title=" ">
<polygon fill="white" stroke="#666666" points="888.5,-376 733,-376 733,-344 888.5,-344 888.5,-376"/>
<text xml:space="preserve" text-anchor="start" x="741" y="-362.5" font-family="Helvetica,sans-Serif" font-size="10.00">PropertiesPanel::onAddAttribute</text>
<text xml:space="preserve" text-anchor="middle" x="810.75" y="-350.5" font-family="Helvetica,sans-Serif" font-size="10.00">OnTreeClicked</text>
</a>
</g>
</g>
<!-- Node5&#45;&gt;Node6 -->
<g id="edge6_Node000005_Node000006" class="edge">
<title>Node5&#45;&gt;Node6</title>
<g id="a_edge6_Node000005_Node000006"><a xlink:title=" ">
<path fill="none" stroke="#63b8ff" d="M964.59,-446.24C946.08,-430 916.91,-406.11 888.5,-390 879.54,-384.92 869.55,-380.32 859.82,-376.34"/>
<polygon fill="#63b8ff" stroke="#63b8ff" points="962.08,-448.69 971.87,-452.74 966.74,-443.47 962.08,-448.69"/>
</a>
</g>
</g>
<!-- Node10 -->
<g id="Node000010" class="node">
<title>Node10</title>
<g id="a_Node000010"><a xlink:href="class_properties_panel.html#a2800a2c7575a5fad6d923d9b64d982f8" target="_top" xlink:title=" ">
<polygon fill="white" stroke="#666666" points="483.38,-382 353.38,-382 353.38,-350 483.38,-350 483.38,-382"/>
<text xml:space="preserve" text-anchor="start" x="361.38" y="-368.5" font-family="Helvetica,sans-Serif" font-size="10.00">PropertiesPanel::onCheck</text>
<text xml:space="preserve" text-anchor="middle" x="418.38" y="-356.5" font-family="Helvetica,sans-Serif" font-size="10.00">BoxChanged</text>
</a>
</g>
</g>
<!-- Node5&#45;&gt;Node10 -->
<g id="edge14_Node000005_Node000010" class="edge">
<title>Node5&#45;&gt;Node10</title>
<g id="a_edge14_Node000005_Node000010"><a xlink:title=" ">
<path fill="none" stroke="#63b8ff" d="M912.91,-459.1C848.87,-453.41 760.66,-441.99 733,-421 703.22,-398.41 728.58,-364.99 697,-345 623.07,-298.22 514.9,-328.08 457.86,-349.6"/>
<polygon fill="#63b8ff" stroke="#63b8ff" points="912.4,-462.57 922.66,-459.94 912.99,-455.59 912.4,-462.57"/>
</a>
</g>
</g>
<!-- Node12 -->
<g id="Node000012" class="node">
<title>Node12</title>
<g id="a_Node000012"><a xlink:href="class_properties_panel.html#aec82450a3daeb2614c2321e37897f1dd" target="_top" xlink:title=" ">
<polygon fill="white" stroke="#666666" points="484.88,-548 351.88,-548 351.88,-516 484.88,-516 484.88,-548"/>
<text xml:space="preserve" text-anchor="start" x="359.88" y="-534.5" font-family="Helvetica,sans-Serif" font-size="10.00">PropertiesPanel::onCombo</text>
<text xml:space="preserve" text-anchor="middle" x="418.38" y="-522.5" font-family="Helvetica,sans-Serif" font-size="10.00">BoxChanged</text>
</a>
</g>
</g>
<!-- Node5&#45;&gt;Node12 -->
<g id="edge18_Node000005_Node000012" class="edge">
<title>Node5&#45;&gt;Node12</title>
<g id="a_edge18_Node000005_Node000012"><a xlink:title=" ">
<path fill="none" stroke="#63b8ff" d="M956.37,-479.78C937.69,-489.89 912.21,-502.64 888.5,-511 734.46,-565.34 685.96,-570.98 523.5,-554 511,-552.69 497.8,-550.53 485.15,-548.06"/>
<polygon fill="#63b8ff" stroke="#63b8ff" points="957.85,-482.95 964.92,-475.06 954.47,-476.82 957.85,-482.95"/>
</a>
</g>
</g>
<!-- Node16 -->
<g id="Node000016" class="node">
<title>Node16</title>
<g id="a_Node000016"><a xlink:href="class_properties_panel.html#aec8130201106284c02f21903b516554d" target="_top" xlink:title=" ">
<polygon fill="white" stroke="#666666" points="678.62,-300 541.88,-300 541.88,-268 678.62,-268 678.62,-300"/>
<text xml:space="preserve" text-anchor="start" x="549.88" y="-286.5" font-family="Helvetica,sans-Serif" font-size="10.00">PropertiesPanel::onLineEdit</text>
<text xml:space="preserve" text-anchor="middle" x="610.25" y="-274.5" font-family="Helvetica,sans-Serif" font-size="10.00">Changed</text>
</a>
</g>
</g>
<!-- Node5&#45;&gt;Node16 -->
<g id="edge25_Node000005_Node000016" class="edge">
<title>Node5&#45;&gt;Node16</title>
<g id="a_edge25_Node000005_Node000016"><a xlink:title=" ">
<path fill="none" stroke="#63b8ff" d="M947.81,-449.47C930.07,-442.58 908.31,-434.46 888.5,-428 820.33,-405.78 788.5,-430.4 733,-385 705.62,-362.6 723.62,-337.3 697,-314 690.83,-308.6 683.63,-304.15 676.07,-300.5"/>
<polygon fill="#63b8ff" stroke="#63b8ff" points="946.29,-452.63 956.87,-453.03 948.84,-446.12 946.29,-452.63"/>
</a>
</g>
</g>
<!-- Node18 -->
<g id="Node000018" class="node">
<title>Node18</title>
<g id="a_Node000018"><a xlink:href="class_properties_panel.html#a3cdc065abcd2f9e59558903073c0f23f" target="_top" xlink:title=" ">
<polygon fill="white" stroke="#666666" points="487.5,-670 349.25,-670 349.25,-638 487.5,-638 487.5,-670"/>
<text xml:space="preserve" text-anchor="start" x="357.25" y="-656.5" font-family="Helvetica,sans-Serif" font-size="10.00">PropertiesPanel::onProperty</text>
<text xml:space="preserve" text-anchor="middle" x="418.38" y="-644.5" font-family="Helvetica,sans-Serif" font-size="10.00">ValueChanged</text>
</a>
</g>
</g>
<!-- Node5&#45;&gt;Node18 -->
<g id="edge28_Node000005_Node000018" class="edge">
<title>Node5&#45;&gt;Node18</title>
<g id="a_edge28_Node000005_Node000018"><a xlink:title=" ">
<path fill="none" stroke="#63b8ff" d="M960.96,-481.9C942.89,-498.75 916.24,-523.02 888.5,-538 758.03,-608.46 582.96,-632.65 487.85,-643.86"/>
<polygon fill="#63b8ff" stroke="#63b8ff" points="963.07,-484.71 968,-475.33 958.3,-479.59 963.07,-484.71"/>
</a>
</g>
</g>
<!-- Node20 -->
<g id="Node000020" class="node">
<title>Node20</title>
<g id="a_Node000020"><a xlink:href="class_properties_panel.html#a8a2ec0bcba44f3bbd0245d3a53ff49f7" target="_top" xlink:title=" ">
<polygon fill="white" stroke="#666666" points="879.88,-326 741.62,-326 741.62,-294 879.88,-294 879.88,-326"/>
<text xml:space="preserve" text-anchor="start" x="749.62" y="-312.5" font-family="Helvetica,sans-Serif" font-size="10.00">PropertiesPanel::onRemove</text>
<text xml:space="preserve" text-anchor="middle" x="810.75" y="-300.5" font-family="Helvetica,sans-Serif" font-size="10.00">AttributeOnTreeClicked</text>
</a>
</g>
</g>
<!-- Node5&#45;&gt;Node20 -->
<g id="edge31_Node000005_Node000020" class="edge">
<title>Node5&#45;&gt;Node20</title>
<g id="a_edge31_Node000005_Node000020"><a xlink:title=" ">
<path fill="none" stroke="#63b8ff" d="M974.1,-443.6C959.31,-415.22 928.82,-364.04 888.5,-335 883.95,-331.72 878.95,-328.86 873.75,-326.36"/>
<polygon fill="#63b8ff" stroke="#63b8ff" points="970.83,-444.89 978.46,-452.24 977.08,-441.74 970.83,-444.89"/>
</a>
</g>
</g>
<!-- Node21 -->
<g id="Node000021" class="node">
<title>Node21</title>
<g id="a_Node000021"><a xlink:href="class_properties_panel.html#a79618c5c820a40931c085d54be70bd34" target="_top" xlink:title=" ">
<polygon fill="white" stroke="#666666" points="873.5,-502 748,-502 748,-470 873.5,-470 873.5,-502"/>
<text xml:space="preserve" text-anchor="start" x="756" y="-488.5" font-family="Helvetica,sans-Serif" font-size="10.00">PropertiesPanel::updates</text>
<text xml:space="preserve" text-anchor="middle" x="810.75" y="-476.5" font-family="Helvetica,sans-Serif" font-size="10.00">AfterChangingProperty</text>
</a>
</g>
</g>
<!-- Node5&#45;&gt;Node21 -->
<g id="edge33_Node000005_Node000021" class="edge">
<title>Node5&#45;&gt;Node21</title>
<g id="a_edge33_Node000005_Node000021"><a xlink:title=" ">
<path fill="none" stroke="#63b8ff" d="M912.96,-473.07C899.95,-474.74 886.47,-476.46 873.75,-478.08"/>
<polygon fill="#63b8ff" stroke="#63b8ff" points="913.26,-476.56 922.74,-471.82 912.37,-469.62 913.26,-476.56"/>
</a>
</g>
</g>
<!-- Node7 -->
<g id="Node000007" class="node">
<title>Node7</title>
<g id="a_Node000007"><a xlink:href="class_properties_panel.html#a90cca2a241daa84841ee3e90d7768c8f" target="_top" xlink:title=" ">
<polygon fill="white" stroke="#666666" points="683.5,-250 537,-250 537,-218 683.5,-218 683.5,-250"/>
<text xml:space="preserve" text-anchor="start" x="545" y="-236.5" font-family="Helvetica,sans-Serif" font-size="10.00">PropertiesPanel::createButton</text>
<text xml:space="preserve" text-anchor="middle" x="610.25" y="-224.5" font-family="Helvetica,sans-Serif" font-size="10.00">PropertyItem</text>
</a>
</g>
</g>
<!-- Node6&#45;&gt;Node7 -->
<g id="edge7_Node000006_Node000007" class="edge">
<title>Node6&#45;&gt;Node7</title>
<g id="a_edge7_Node000006_Node000007"><a xlink:title=" ">
<path fill="none" stroke="#63b8ff" d="M735.84,-337.35C734.87,-336.59 733.92,-335.81 733,-335 704.94,-310.31 725.44,-283.25 697,-259 692.99,-255.58 688.53,-252.63 683.81,-250.08"/>
<polygon fill="#63b8ff" stroke="#63b8ff" points="733.61,-340.08 743.88,-342.68 737.48,-334.24 733.61,-340.08"/>
</a>
</g>
</g>
<!-- Node7&#45;&gt;Node2 -->
<g id="edge8_Node000007_Node000002" class="edge">
<title>Node7&#45;&gt;Node2</title>
<g id="a_edge8_Node000007_Node000002"><a xlink:title=" ">
<path fill="none" stroke="#63b8ff" d="M695.25,-245.35C770.68,-254.55 884.53,-266 984,-266 1146.38,-266 1146.38,-266 1146.38,-266 1254.21,-266 1375.68,-221.33 1435.12,-196.38"/>
<polygon fill="#63b8ff" stroke="#63b8ff" points="695.8,-241.89 685.45,-244.14 694.94,-248.84 695.8,-241.89"/>
</a>
</g>
</g>
<!-- Node7&#45;&gt;Node3 -->
<g id="edge9_Node000007_Node000003" class="edge">
<title>Node7&#45;&gt;Node3</title>
<g id="a_edge9_Node000007_Node000003"><a xlink:title=" ">
<path fill="none" stroke="#63b8ff" d="M679.5,-214.58C770.34,-189.82 936.43,-148.4 1081.5,-133 1136.48,-127.16 1199.37,-128.64 1244.93,-131.15"/>
<polygon fill="#63b8ff" stroke="#63b8ff" points="678.71,-211.16 669.99,-217.18 680.56,-217.91 678.71,-211.16"/>
</a>
</g>
</g>
<!-- Node7&#45;&gt;Node8 -->
<g id="edge10_Node000007_Node000008" class="edge">
<title>Node7&#45;&gt;Node8</title>
<g id="a_edge10_Node000007_Node000008"><a xlink:title=" ">
<path fill="none" stroke="#63b8ff" d="M527.41,-215.04C512.36,-211.55 496.85,-207.95 482.45,-204.62"/>
<polygon fill="#63b8ff" stroke="#63b8ff" points="526.27,-218.36 536.8,-217.21 527.85,-211.54 526.27,-218.36"/>
</a>
</g>
</g>
<!-- Node7&#45;&gt;Node9 -->
<g id="edge12_Node000007_Node000009" class="edge">
<title>Node7&#45;&gt;Node9</title>
<g id="a_edge12_Node000007_Node000009"><a xlink:title=" ">
<path fill="none" stroke="#63b8ff" d="M525.35,-237.39C415.76,-241.82 226.33,-249.48 128.08,-253.45"/>
<polygon fill="#63b8ff" stroke="#63b8ff" points="525.32,-240.89 535.17,-236.99 525.03,-233.9 525.32,-240.89"/>
</a>
</g>
</g>
<!-- Node8&#45;&gt;Node4 -->
<g id="edge11_Node000008_Node000004" class="edge">
<title>Node8&#45;&gt;Node4</title>
<g id="a_edge11_Node000008_Node000004"><a xlink:title=" ">
<path fill="none" stroke="#63b8ff" d="M493.76,-179.04C503.74,-177.85 513.86,-176.79 523.5,-176 726.91,-159.42 968.88,-157.52 1081.24,-157.65"/>
<polygon fill="#63b8ff" stroke="#63b8ff" points="493.58,-175.53 484.09,-180.24 494.44,-182.48 493.58,-175.53"/>
</a>
</g>
</g>
<!-- Node9&#45;&gt;Node4 -->
<g id="edge13_Node000009_Node000004" class="edge">
<title>Node9&#45;&gt;Node4</title>
<g id="a_edge13_Node000009_Node000004"><a xlink:title=" ">
<path fill="none" stroke="#63b8ff" d="M114.68,-235.28C170.63,-213.16 264.68,-179.33 349.25,-165 618.23,-119.41 945.77,-140.04 1081.16,-151.82"/>
<polygon fill="#63b8ff" stroke="#63b8ff" points="113.41,-232.02 105.42,-238.98 116.01,-238.52 113.41,-232.02"/>
</a>
</g>
</g>
<!-- Node11 -->
<g id="Node000011" class="node">
<title>Node11</title>
<g id="a_Node000011"><a xlink:href="class_properties_panel.html#acfb41226221624e46767835caeea8abc" target="_top" xlink:title=" ">
<polygon fill="white" stroke="#666666" points="311.75,-344 165.25,-344 165.25,-312 311.75,-312 311.75,-344"/>
<text xml:space="preserve" text-anchor="start" x="173.25" y="-330.5" font-family="Helvetica,sans-Serif" font-size="10.00">PropertiesPanel::createCheck</text>
<text xml:space="preserve" text-anchor="middle" x="238.5" y="-318.5" font-family="Helvetica,sans-Serif" font-size="10.00">BoxPropertyItem</text>
</a>
</g>
</g>
<!-- Node10&#45;&gt;Node11 -->
<g id="edge15_Node000010_Node000011" class="edge">
<title>Node10&#45;&gt;Node11</title>
<g id="a_edge15_Node000010_Node000011"><a xlink:title=" ">
<path fill="none" stroke="#63b8ff" d="M341.91,-349.88C332.06,-347.77 321.99,-345.62 312.19,-343.53"/>
<polygon fill="#63b8ff" stroke="#63b8ff" points="340.92,-353.24 351.43,-351.91 342.38,-346.4 340.92,-353.24"/>
</a>
</g>
</g>
<!-- Node11&#45;&gt;Node3 -->
<g id="edge16_Node000011_Node000003" class="edge">
<title>Node11&#45;&gt;Node3</title>
<g id="a_edge16_Node000011_Node000003"><a xlink:title=" ">
<path fill="none" stroke="#63b8ff" d="M312.17,-304.21C312.54,-303.81 312.9,-303.41 313.25,-303 372.96,-233.5 282.02,-162.26 349.25,-100 419.43,-35.01 1118.49,-31.8 1209.25,-62 1243.43,-73.37 1275.33,-101.69 1293.22,-119.81"/>
<polygon fill="#63b8ff" stroke="#63b8ff" points="310.03,-301.44 304.75,-310.62 314.61,-306.73 310.03,-301.44"/>
</a>
</g>
</g>
<!-- Node11&#45;&gt;Node9 -->
<g id="edge17_Node000011_Node000009" class="edge">
<title>Node11&#45;&gt;Node9</title>
<g id="a_edge17_Node000011_Node000009"><a xlink:title=" ">
<path fill="none" stroke="#63b8ff" d="M175.66,-307.63C171.61,-306.12 167.61,-304.57 163.75,-303 141.03,-293.79 116.1,-281.92 96.96,-272.42"/>
<polygon fill="#63b8ff" stroke="#63b8ff" points="174.42,-310.91 185.01,-311.04 176.81,-304.33 174.42,-310.91"/>
</a>
</g>
</g>
<!-- Node13 -->
<g id="Node000013" class="node">
<title>Node13</title>
<g id="a_Node000013"><a xlink:href="class_properties_panel.html#a8fd53ec3c9f711c3354483e8bb4d0b47" target="_top" xlink:title=" ">
<polygon fill="white" stroke="#666666" points="313.25,-394 163.75,-394 163.75,-362 313.25,-362 313.25,-394"/>
<text xml:space="preserve" text-anchor="start" x="171.75" y="-380.5" font-family="Helvetica,sans-Serif" font-size="10.00">PropertiesPanel::createCombo</text>
<text xml:space="preserve" text-anchor="middle" x="238.5" y="-368.5" font-family="Helvetica,sans-Serif" font-size="10.00">BoxPropertyItem</text>
</a>
</g>
</g>
<!-- Node12&#45;&gt;Node13 -->
<g id="edge19_Node000012_Node000013" class="edge">
<title>Node12&#45;&gt;Node13</title>
<g id="a_edge19_Node000012_Node000013"><a xlink:title=" ">
<path fill="none" stroke="#63b8ff" d="M389.67,-508.01C353.15,-476.39 289.87,-421.61 258.4,-394.36"/>
<polygon fill="#63b8ff" stroke="#63b8ff" points="387.34,-510.63 397.19,-514.53 391.93,-505.34 387.34,-510.63"/>
</a>
</g>
</g>
<!-- Node14 -->
<g id="Node000014" class="node">
<title>Node14</title>
<g id="a_Node000014"><a xlink:href="class_properties_panel.html#a32c2dab00c58ffdcb6a1e3cd829d03c8" target="_top" xlink:title=" ">
<polygon fill="white" stroke="#666666" points="306.88,-584 170.12,-584 170.12,-552 306.88,-552 306.88,-584"/>
<text xml:space="preserve" text-anchor="start" x="178.12" y="-570.5" font-family="Helvetica,sans-Serif" font-size="10.00">PropertiesPanel::createIcon</text>
<text xml:space="preserve" text-anchor="middle" x="238.5" y="-558.5" font-family="Helvetica,sans-Serif" font-size="10.00">ComboBoxPropertyItem</text>
</a>
</g>
</g>
<!-- Node12&#45;&gt;Node14 -->
<g id="edge22_Node000012_Node000014" class="edge">
<title>Node12&#45;&gt;Node14</title>
<g id="a_edge22_Node000012_Node000014"><a xlink:title=" ">
<path fill="none" stroke="#63b8ff" d="M340.43,-547.57C329.36,-549.81 318.03,-552.11 307.16,-554.31"/>
<polygon fill="#63b8ff" stroke="#63b8ff" points="340.8,-551.07 349.91,-545.65 339.41,-544.21 340.8,-551.07"/>
</a>
</g>
</g>
<!-- Node13&#45;&gt;Node3 -->
<g id="edge20_Node000013_Node000003" class="edge">
<title>Node13&#45;&gt;Node3</title>
<g id="a_edge20_Node000013_Node000003"><a xlink:title=" ">
<path fill="none" stroke="#63b8ff" d="M312.16,-354.2C312.53,-353.81 312.89,-353.41 313.25,-353 369.13,-288.85 285.18,-220.97 349.25,-165 482.28,-48.78 1053.21,-105.25 1245.01,-128.02"/>
<polygon fill="#63b8ff" stroke="#63b8ff" points="310.03,-351.42 304.7,-360.58 314.58,-356.74 310.03,-351.42"/>
</a>
</g>
</g>
<!-- Node13&#45;&gt;Node9 -->
<g id="edge21_Node000013_Node000009" class="edge">
<title>Node13&#45;&gt;Node9</title>
<g id="a_edge21_Node000013_Node000009"><a xlink:title=" ">
<path fill="none" stroke="#63b8ff" d="M170.01,-356.58C167.87,-355.44 165.77,-354.24 163.75,-353 127.9,-330.96 94.86,-293.72 77.54,-272.37"/>
<polygon fill="#63b8ff" stroke="#63b8ff" points="168.45,-359.71 178.98,-360.89 171.48,-353.4 168.45,-359.71"/>
</a>
</g>
</g>
<!-- Node14&#45;&gt;Node15 -->
<g id="edge23_Node000014_Node000015" class="edge">
<title>Node14&#45;&gt;Node15</title>
<g id="a_edge23_Node000014_Node000015"><a xlink:title=" ">
<path fill="none" stroke="#63b8ff" d="M208.24,-591.36C194.53,-602.52 178.09,-616.21 163.75,-629 133.72,-655.78 100.25,-688.6 80.97,-707.82"/>
<polygon fill="#63b8ff" stroke="#63b8ff" points="210.06,-594.39 215.63,-585.38 205.66,-588.95 210.06,-594.39"/>
</a>
</g>
</g>
<!-- Node15&#45;&gt;Node5 -->
<g id="edge24_Node000015_Node000005" class="edge">
<title>Node15&#45;&gt;Node5</title>
<g id="a_edge24_Node000015_Node000005"><a xlink:title=" ">
<path fill="none" stroke="#63b8ff" d="M139.34,-724C210.68,-724 321.38,-724 417.38,-724 611.25,-724 611.25,-724 611.25,-724 746.42,-724 784.2,-684.97 888.5,-599 933.47,-561.93 967.17,-498.76 979.2,-474.2"/>
<polygon fill="#63b8ff" stroke="#63b8ff" points="139.75,-720.5 129.75,-724 139.75,-727.5 139.75,-720.5"/>
</a>
</g>
</g>
<!-- Node17 -->
<g id="Node000017" class="node">
<title>Node17</title>
<g id="a_Node000017"><a xlink:href="class_properties_panel.html#a7bc224323f9c626842fdb6a89205c9bc" target="_top" xlink:title=" ">
<polygon fill="white" stroke="#666666" points="306.5,-294 170.5,-294 170.5,-262 306.5,-262 306.5,-294"/>
<text xml:space="preserve" text-anchor="start" x="178.5" y="-280.5" font-family="Helvetica,sans-Serif" font-size="10.00">PropertiesPanel::createLine</text>
<text xml:space="preserve" text-anchor="middle" x="238.5" y="-268.5" font-family="Helvetica,sans-Serif" font-size="10.00">EditPropertyItem</text>
</a>
</g>
</g>
<!-- Node16&#45;&gt;Node17 -->
<g id="edge26_Node000016_Node000017" class="edge">
<title>Node16&#45;&gt;Node17</title>
<g id="a_edge26_Node000016_Node000017"><a xlink:title=" ">
<path fill="none" stroke="#63b8ff" d="M530.19,-282.72C463.75,-281.64 369.81,-280.11 306.89,-279.09"/>
<polygon fill="#63b8ff" stroke="#63b8ff" points="529.86,-286.21 539.92,-282.87 529.98,-279.21 529.86,-286.21"/>
</a>
</g>
</g>
<!-- Node17&#45;&gt;Node9 -->
<g id="edge27_Node000017_Node000009" class="edge">
<title>Node17&#45;&gt;Node9</title>
<g id="a_edge27_Node000017_Node000009"><a xlink:title=" ">
<path fill="none" stroke="#63b8ff" d="M159.06,-268C148.65,-266.68 138.08,-265.33 127.97,-264.04"/>
<polygon fill="#63b8ff" stroke="#63b8ff" points="158.4,-271.45 168.76,-269.24 159.29,-264.5 158.4,-271.45"/>
</a>
</g>
</g>
<!-- Node18&#45;&gt;Node5 -->
<g id="edge30_Node000018_Node000005" class="edge">
<title>Node18&#45;&gt;Node5</title>
<g id="a_edge30_Node000018_Node000005"><a xlink:title=" ">
<path fill="none" stroke="#63b8ff" d="M499.06,-655.18C596.23,-648.74 763,-623.77 888.5,-556 928.12,-534.6 965.53,-494.25 978.86,-474.4"/>
<polygon fill="#63b8ff" stroke="#63b8ff" points="499.13,-651.67 489.36,-655.77 499.56,-658.66 499.13,-651.67"/>
</a>
</g>
</g>
<!-- Node19 -->
<g id="Node000019" class="node">
<title>Node19</title>
<g id="a_Node000019"><a xlink:href="class_properties_panel.html#a9866823e02faefceaae94fc0b0537707" target="_top" xlink:title=" ">
<polygon fill="white" stroke="#666666" points="306.12,-670 170.88,-670 170.88,-638 306.12,-638 306.12,-670"/>
<text xml:space="preserve" text-anchor="start" x="178.88" y="-656.5" font-family="Helvetica,sans-Serif" font-size="10.00">PropertiesPanel::Properties</text>
<text xml:space="preserve" text-anchor="middle" x="238.5" y="-644.5" font-family="Helvetica,sans-Serif" font-size="10.00">Panel</text>
</a>
</g>
</g>
<!-- Node18&#45;&gt;Node19 -->
<g id="edge29_Node000018_Node000019" class="edge">
<title>Node18&#45;&gt;Node19</title>
<g id="a_edge29_Node000018_Node000019"><a xlink:title=" ">
<path fill="none" stroke="#63b8ff" d="M337.66,-654C327.26,-654 316.68,-654 306.52,-654"/>
<polygon fill="#63b8ff" stroke="#63b8ff" points="337.34,-657.5 347.34,-654 337.34,-650.5 337.34,-657.5"/>
</a>
</g>
</g>
<!-- Node20&#45;&gt;Node7 -->
<g id="edge32_Node000020_Node000007" class="edge">
<title>Node20&#45;&gt;Node7</title>
<g id="a_edge32_Node000020_Node000007"><a xlink:title=" ">
<path fill="none" stroke="#63b8ff" d="M753.86,-289.33C746.77,-286.37 739.66,-283.22 733,-280 716.32,-271.94 714.02,-266.31 697,-259 689.73,-255.88 681.96,-253.01 674.17,-250.41"/>
<polygon fill="#63b8ff" stroke="#63b8ff" points="752.22,-292.44 762.8,-292.97 754.86,-285.96 752.22,-292.44"/>
</a>
</g>
</g>
<!-- Node21&#45;&gt;Node10 -->
<g id="edge42_Node000021_Node000010" class="edge">
<title>Node21&#45;&gt;Node10</title>
<g id="a_edge42_Node000021_Node000010"><a xlink:title=" ">
<path fill="none" stroke="#63b8ff" d="M743.58,-464.03C739.81,-461.61 736.24,-458.94 733,-456 706.8,-432.22 726.5,-404.53 697,-385 633.86,-343.19 543.96,-345.46 483.74,-353.5"/>
<polygon fill="#63b8ff" stroke="#63b8ff" points="741.53,-466.9 751.96,-468.79 744.99,-460.81 741.53,-466.9"/>
</a>
</g>
</g>
<!-- Node21&#45;&gt;Node12 -->
<g id="edge43_Node000021_Node000012" class="edge">
<title>Node21&#45;&gt;Node12</title>
<g id="a_edge43_Node000021_Node000012"><a xlink:title=" ">
<path fill="none" stroke="#63b8ff" d="M770.98,-507.56C749.82,-518.1 722.74,-529.65 697,-535 625.74,-549.82 541.95,-546.11 485.21,-540.58"/>
<polygon fill="#63b8ff" stroke="#63b8ff" points="772.52,-510.7 779.82,-503.03 769.33,-504.48 772.52,-510.7"/>
</a>
</g>
</g>
<!-- Node21&#45;&gt;Node16 -->
<g id="edge44_Node000021_Node000016" class="edge">
<title>Node21&#45;&gt;Node16</title>
<g id="a_edge44_Node000021_Node000016"><a xlink:title=" ">
<path fill="none" stroke="#63b8ff" d="M778.46,-462.48C763.54,-450.28 746.13,-434.49 733,-418 712.18,-391.86 718.52,-377.56 697,-352 679.74,-331.51 655.48,-312.96 637.17,-300.43"/>
<polygon fill="#63b8ff" stroke="#63b8ff" points="776.18,-465.14 786.18,-468.64 780.55,-459.67 776.18,-465.14"/>
</a>
</g>
</g>
<!-- Node21&#45;&gt;Node18 -->
<g id="edge45_Node000021_Node000018" class="edge">
<title>Node21&#45;&gt;Node18</title>
<g id="a_edge45_Node000021_Node000018"><a xlink:title=" ">
<path fill="none" stroke="#63b8ff" d="M776.38,-508.51C754.44,-522.71 724.74,-540.8 697,-554 622.52,-589.45 531.92,-619.86 474.93,-637.55"/>
<polygon fill="#63b8ff" stroke="#63b8ff" points="778.17,-511.52 784.62,-503.12 774.34,-505.67 778.17,-511.52"/>
</a>
</g>
</g>
<!-- Node22 -->
<g id="Node000022" class="node">
<title>Node22</title>
<g id="a_Node000022"><a xlink:href="class_properties_panel.html#a74d22cd1ca119cda9cc4ca00b853e88d" target="_top" xlink:title=" ">
<polygon fill="white" stroke="#666666" points="688.38,-526 532.12,-526 532.12,-494 688.38,-494 688.38,-526"/>
<text xml:space="preserve" text-anchor="start" x="540.12" y="-512.5" font-family="Helvetica,sans-Serif" font-size="10.00">PropertiesPanel::handleAttribute</text>
<text xml:space="preserve" text-anchor="middle" x="610.25" y="-500.5" font-family="Helvetica,sans-Serif" font-size="10.00">PropertyChange</text>
</a>
</g>
</g>
<!-- Node21&#45;&gt;Node22 -->
<g id="edge34_Node000021_Node000022" class="edge">
<title>Node21&#45;&gt;Node22</title>
<g id="a_edge34_Node000021_Node000022"><a xlink:title=" ">
<path fill="none" stroke="#63b8ff" d="M736.62,-494.84C721.06,-496.72 704.58,-498.72 688.86,-500.62"/>
<polygon fill="#63b8ff" stroke="#63b8ff" points="736.75,-498.35 746.26,-493.68 735.91,-491.4 736.75,-498.35"/>
</a>
</g>
</g>
<!-- Node23 -->
<g id="Node000023" class="node">
<title>Node23</title>
<g id="a_Node000023"><a xlink:href="class_properties_panel.html#aa82a2245c62f66554f277c64e643252c" target="_top" xlink:title=" ">
<polygon fill="white" stroke="#666666" points="697,-476 523.5,-476 523.5,-444 697,-444 697,-476"/>
<text xml:space="preserve" text-anchor="start" x="531.5" y="-462.5" font-family="Helvetica,sans-Serif" font-size="10.00">PropertiesPanel::handleRelationship</text>
<text xml:space="preserve" text-anchor="middle" x="610.25" y="-450.5" font-family="Helvetica,sans-Serif" font-size="10.00">EndCardinalityChange</text>
</a>
</g>
</g>
<!-- Node21&#45;&gt;Node23 -->
<g id="edge38_Node000021_Node000023" class="edge">
<title>Node21&#45;&gt;Node23</title>
<g id="a_edge38_Node000021_Node000023"><a xlink:title=" ">
<path fill="none" stroke="#63b8ff" d="M736.65,-476.42C723.79,-474.74 710.31,-472.97 697.14,-471.25"/>
<polygon fill="#63b8ff" stroke="#63b8ff" points="735.89,-479.86 746.26,-477.68 736.8,-472.91 735.89,-479.86"/>
</a>
</g>
</g>
<!-- Node24 -->
<g id="Node000024" class="node">
<title>Node24</title>
<g id="a_Node000024"><a xlink:href="class_properties_panel.html#ac2741a5b2cb859b07534b8f7c786359b" target="_top" xlink:title=" ">
<polygon fill="white" stroke="#666666" points="697,-426 523.5,-426 523.5,-394 697,-394 697,-426"/>
<text xml:space="preserve" text-anchor="start" x="531.5" y="-412.5" font-family="Helvetica,sans-Serif" font-size="10.00">PropertiesPanel::handleRelationship</text>
<text xml:space="preserve" text-anchor="middle" x="610.25" y="-400.5" font-family="Helvetica,sans-Serif" font-size="10.00">EndParticipationChange</text>
</a>
</g>
</g>
<!-- Node21&#45;&gt;Node24 -->
<g id="edge40_Node000021_Node000024" class="edge">
<title>Node21&#45;&gt;Node24</title>
<g id="a_edge40_Node000021_Node000024"><a xlink:title=" ">
<path fill="none" stroke="#63b8ff" d="M753.86,-465.33C746.77,-462.37 739.66,-459.22 733,-456 716.32,-447.94 714.02,-442.31 697,-435 689.73,-431.88 681.96,-429.01 674.17,-426.41"/>
<polygon fill="#63b8ff" stroke="#63b8ff" points="752.22,-468.44 762.8,-468.97 754.86,-461.96 752.22,-468.44"/>
</a>
</g>
</g>
<!-- Node22&#45;&gt;Node10 -->
<g id="edge35_Node000022_Node000010" class="edge">
<title>Node22&#45;&gt;Node10</title>
<g id="a_edge35_Node000022_Node000010"><a xlink:title=" ">
<path fill="none" stroke="#63b8ff" d="M529.66,-488.63C527.55,-487.48 525.49,-486.27 523.5,-485 480.91,-457.83 445.75,-408.24 429.35,-382.5"/>
<polygon fill="#63b8ff" stroke="#63b8ff" points="527.97,-491.7 538.49,-492.91 531.03,-485.4 527.97,-491.7"/>
</a>
</g>
</g>
<!-- Node22&#45;&gt;Node12 -->
<g id="edge36_Node000022_Node000012" class="edge">
<title>Node22&#45;&gt;Node12</title>
<g id="a_edge36_Node000022_Node000012"><a xlink:title=" ">
<path fill="none" stroke="#63b8ff" d="M520.41,-520.29C508.52,-521.67 496.49,-523.06 485.1,-524.39"/>
<polygon fill="#63b8ff" stroke="#63b8ff" points="520.71,-523.78 530.24,-519.15 519.91,-516.83 520.71,-523.78"/>
</a>
</g>
</g>
<!-- Node22&#45;&gt;Node18 -->
<g id="edge37_Node000022_Node000018" class="edge">
<title>Node22&#45;&gt;Node18</title>
<g id="a_edge37_Node000022_Node000018"><a xlink:title=" ">
<path fill="none" stroke="#63b8ff" d="M579.13,-532.84C540.63,-562.04 474.89,-611.89 441,-637.6"/>
<polygon fill="#63b8ff" stroke="#63b8ff" points="580.78,-535.98 586.63,-527.15 576.55,-530.41 580.78,-535.98"/>
</a>
</g>
</g>
<!-- Node23&#45;&gt;Node12 -->
<g id="edge39_Node000023_Node000012" class="edge">
<title>Node23&#45;&gt;Node12</title>
<g id="a_edge39_Node000023_Node000012"><a xlink:title=" ">
<path fill="none" stroke="#63b8ff" d="M538.05,-479.92C533.1,-481.56 528.21,-483.26 523.5,-485 499.31,-493.93 472.84,-505.91 452.64,-515.54"/>
<polygon fill="#63b8ff" stroke="#63b8ff" points="539.04,-483.28 547.49,-476.89 536.9,-476.61 539.04,-483.28"/>
</a>
</g>
</g>
<!-- Node24&#45;&gt;Node10 -->
<g id="edge41_Node000024_Node000010" class="edge">
<title>Node24&#45;&gt;Node10</title>
<g id="a_edge41_Node000024_Node000010"><a xlink:title=" ">
<path fill="none" stroke="#63b8ff" d="M527.24,-391C512.67,-387.62 497.68,-384.15 483.69,-380.9"/>
<polygon fill="#63b8ff" stroke="#63b8ff" points="526.27,-394.36 536.8,-393.21 527.85,-387.54 526.27,-394.36"/>
</a>
</g>
</g>
</g>
</svg>
