<?xml version="1.0" encoding="UTF-8" standalone="no"?>
<!DOCTYPE svg PUBLIC "-//W3C//DTD SVG 1.1//EN"
 "http://www.w3.org/Graphics/SVG/1.1/DTD/svg11.dtd">
<!-- Generated by graphviz version 14.1.1 (20251213.1925)
 -->
<!-- Title: QuickAccessToolbar::QuickAccessToolbar Pages: 1 -->
<svg width="407pt" height="290pt"
 viewBox="0.00 0.00 407.00 290.00" xmlns="http://www.w3.org/2000/svg" xmlns:xlink="http://www.w3.org/1999/xlink">
<g id="graph0" class="graph" transform="scale(1 1) rotate(0) translate(4 286)">
<title>QuickAccessToolbar::QuickAccessToolbar</title>
<!-- Node1 -->
<g id="Node000001" class="node">
<title>Node1</title>
<g id="a_Node000001"><a xlink:title=" ">
<polygon fill="#999999" stroke="#666666" points="112,-132 0,-132 0,-100 112,-100 112,-132"/>
<text xml:space="preserve" text-anchor="start" x="8" y="-118.5" font-family="Helvetica,sans-Serif" font-size="10.00">QuickAccessToolbar</text>
<text xml:space="preserve" text-anchor="middle" x="56" y="-106.5" font-family="Helvetica,sans-Serif" font-size="10.00">::QuickAccessToolbar</text>
</a>
</g>
</g>
<!-- Node2 -->
<g id="Node000002" class="node">
<title>Node2</title>
<g id="a_Node000002"><a xlink:href="class_quick_access_toolbar.html#a9e7b41af686d1b6db9993d80e8390053" target="_top" xlink:title=" ">
<polygon fill="white" stroke="#666666" points="254,-157 148,-157 148,-125 254,-125 254,-157"/>
<text xml:space="preserve" text-anchor="start" x="156" y="-143.5" font-family="Helvetica,sans-Serif" font-size="10.00">QuickAccessToolbar</text>
<text xml:space="preserve" text-anchor="middle" x="201" y="-131.5" font-family="Helvetica,sans-Serif" font-size="10.00">::addDefaultActions</text>
</a>
</g>
</g>
<!-- Node1&#45;&gt;Node2 -->
<g id="edge1_Node000001_Node000002" class="edge">
<title>Node1&#45;&gt;Node2</title>
<g id="a_edge1_Node000001_Node000002"><a xlink:title=" ">
<path fill="none" stroke="#63b8ff" d="M112.29,-125.67C120.19,-127.05 128.38,-128.48 136.43,-129.89"/>
<polygon fill="#63b8ff" stroke="#63b8ff" points="135.73,-133.32 146.18,-131.59 136.94,-126.42 135.73,-133.32"/>
</a>
</g>
</g>
<!-- Node9 -->
<g id="Node000009" class="node">
<title>Node9</title>
<g id="a_Node000009"><a xlink:href="class_quick_access_toolbar.html#aa81ab086f3f156e257c61050927b8fea" target="_top" xlink:title=" ">
<polygon fill="white" stroke="#666666" points="254,-107 148,-107 148,-75 254,-75 254,-107"/>
<text xml:space="preserve" text-anchor="start" x="156" y="-93.5" font-family="Helvetica,sans-Serif" font-size="10.00">QuickAccessToolbar</text>
<text xml:space="preserve" text-anchor="middle" x="201" y="-81.5" font-family="Helvetica,sans-Serif" font-size="10.00">::setupToolbar</text>
</a>
</g>
</g>
<!-- Node1&#45;&gt;Node9 -->
<g id="edge8_Node000001_Node000009" class="edge">
<title>Node1&#45;&gt;Node9</title>
<g id="a_edge8_Node000001_Node000009"><a xlink:title=" ">
<path fill="none" stroke="#63b8ff" d="M112.29,-106.33C120.19,-104.95 128.38,-103.52 136.43,-102.11"/>
<polygon fill="#63b8ff" stroke="#63b8ff" points="136.94,-105.58 146.18,-100.41 135.73,-98.68 136.94,-105.58"/>
</a>
</g>
</g>
<!-- Node3 -->
<g id="Node000003" class="node">
<title>Node3</title>
<g id="a_Node000003"><a xlink:href="class_quick_access_toolbar.html#a75e787a5ac9594c43bea4cbaa36c67d0" target="_top" xlink:title=" ">
<polygon fill="white" stroke="#666666" points="399,-282 290,-282 290,-250 399,-250 399,-282"/>
<text xml:space="preserve" text-anchor="start" x="298" y="-268.5" font-family="Helvetica,sans-Serif" font-size="10.00">QuickAccessToolbar</text>
<text xml:space="preserve" text-anchor="middle" x="344.5" y="-256.5" font-family="Helvetica,sans-Serif" font-size="10.00">::addActionToToolBar</text>
</a>
</g>
</g>
<!-- Node2&#45;&gt;Node3 -->
<g id="edge2_Node000002_Node000003" class="edge">
<title>Node2&#45;&gt;Node3</title>
<g id="a_edge2_Node000002_Node000003"><a xlink:title=" ">
<path fill="none" stroke="#63b8ff" d="M213.13,-157.41C228.38,-178.91 257.61,-216.73 290,-241 291.31,-241.98 292.66,-242.93 294.05,-243.86"/>
<polygon fill="#63b8ff" stroke="#63b8ff" points="291.91,-246.66 302.28,-248.83 295.52,-240.67 291.91,-246.66"/>
</a>
</g>
</g>
<!-- Node4 -->
<g id="Node000004" class="node">
<title>Node4</title>
<g id="a_Node000004"><a xlink:href="class_quick_access_toolbar.html#a95925c4900144d5faa1a4516ea7d2874" target="_top" xlink:title=" ">
<polygon fill="white" stroke="#666666" points="397.5,-232 291.5,-232 291.5,-200 397.5,-200 397.5,-232"/>
<text xml:space="preserve" text-anchor="start" x="299.5" y="-218.5" font-family="Helvetica,sans-Serif" font-size="10.00">QuickAccessToolbar</text>
<text xml:space="preserve" text-anchor="middle" x="344.5" y="-206.5" font-family="Helvetica,sans-Serif" font-size="10.00">::onAboutAction</text>
</a>
</g>
</g>
<!-- Node2&#45;&gt;Node4 -->
<g id="edge3_Node000002_Node000004" class="edge">
<title>Node2&#45;&gt;Node4</title>
<g id="a_edge3_Node000002_Node000004"><a xlink:title=" ">
<path fill="none" stroke="#63b8ff" d="M229.43,-157.33C246.64,-167.39 269.39,-180.35 290,-191 292.34,-192.21 294.76,-193.43 297.2,-194.65"/>
<polygon fill="#63b8ff" stroke="#63b8ff" points="295.45,-197.69 305.98,-198.92 298.52,-191.39 295.45,-197.69"/>
</a>
</g>
</g>
<!-- Node5 -->
<g id="Node000005" class="node">
<title>Node5</title>
<g id="a_Node000005"><a xlink:href="class_quick_access_toolbar.html#ae2051a27933a2022dc2b6c5cc8ef4b63" target="_top" xlink:title=" ">
<polygon fill="white" stroke="#666666" points="397.5,-182 291.5,-182 291.5,-150 397.5,-150 397.5,-182"/>
<text xml:space="preserve" text-anchor="start" x="299.5" y="-168.5" font-family="Helvetica,sans-Serif" font-size="10.00">QuickAccessToolbar</text>
<text xml:space="preserve" text-anchor="middle" x="344.5" y="-156.5" font-family="Helvetica,sans-Serif" font-size="10.00">::onHelpAction</text>
</a>
</g>
</g>
<!-- Node2&#45;&gt;Node5 -->
<g id="edge4_Node000002_Node000005" class="edge">
<title>Node2&#45;&gt;Node5</title>
<g id="a_edge4_Node000002_Node000005"><a xlink:title=" ">
<path fill="none" stroke="#63b8ff" d="M254.29,-150.24C262.72,-151.73 271.52,-153.28 280.18,-154.81"/>
<polygon fill="#63b8ff" stroke="#63b8ff" points="279.48,-158.24 289.94,-156.54 280.7,-151.35 279.48,-158.24"/>
</a>
</g>
</g>
<!-- Node6 -->
<g id="Node000006" class="node">
<title>Node6</title>
<g id="a_Node000006"><a xlink:href="class_quick_access_toolbar.html#aa9d56b4b5e0885c23f4101b066bbde9d" target="_top" xlink:title=" ">
<polygon fill="white" stroke="#666666" points="397.5,-132 291.5,-132 291.5,-100 397.5,-100 397.5,-132"/>
<text xml:space="preserve" text-anchor="start" x="299.5" y="-118.5" font-family="Helvetica,sans-Serif" font-size="10.00">QuickAccessToolbar</text>
<text xml:space="preserve" text-anchor="middle" x="344.5" y="-106.5" font-family="Helvetica,sans-Serif" font-size="10.00">::onNewAction</text>
</a>
</g>
</g>
<!-- Node2&#45;&gt;Node6 -->
<g id="edge5_Node000002_Node000006" class="edge">
<title>Node2&#45;&gt;Node6</title>
<g id="a_edge5_Node000002_Node000006"><a xlink:title=" ">
<path fill="none" stroke="#63b8ff" d="M254.29,-131.76C262.72,-130.27 271.52,-128.72 280.18,-127.19"/>
<polygon fill="#63b8ff" stroke="#63b8ff" points="280.7,-130.65 289.94,-125.46 279.48,-123.76 280.7,-130.65"/>
</a>
</g>
</g>
<!-- Node7 -->
<g id="Node000007" class="node">
<title>Node7</title>
<g id="a_Node000007"><a xlink:href="class_quick_access_toolbar.html#a3d84253b27fe73b9aeefdd3388da9ce4" target="_top" xlink:title=" ">
<polygon fill="white" stroke="#666666" points="397.5,-82 291.5,-82 291.5,-50 397.5,-50 397.5,-82"/>
<text xml:space="preserve" text-anchor="start" x="299.5" y="-68.5" font-family="Helvetica,sans-Serif" font-size="10.00">QuickAccessToolbar</text>
<text xml:space="preserve" text-anchor="middle" x="344.5" y="-56.5" font-family="Helvetica,sans-Serif" font-size="10.00">::onOpenAction</text>
</a>
</g>
</g>
<!-- Node2&#45;&gt;Node7 -->
<g id="edge6_Node000002_Node000007" class="edge">
<title>Node2&#45;&gt;Node7</title>
<g id="a_edge6_Node000002_Node000007"><a xlink:title=" ">
<path fill="none" stroke="#63b8ff" d="M238.19,-124.52C243.57,-121.81 248.98,-118.92 254,-116 270.83,-106.19 273.12,-100.71 290,-91 292.01,-89.84 294.09,-88.69 296.2,-87.56"/>
<polygon fill="#63b8ff" stroke="#63b8ff" points="297.6,-90.78 304.9,-83.1 294.4,-84.55 297.6,-90.78"/>
</a>
</g>
</g>
<!-- Node8 -->
<g id="Node000008" class="node">
<title>Node8</title>
<g id="a_Node000008"><a xlink:href="class_quick_access_toolbar.html#acb9dd70de40aa7efa692172a3322a3b8" target="_top" xlink:title=" ">
<polygon fill="white" stroke="#666666" points="397.5,-32 291.5,-32 291.5,0 397.5,0 397.5,-32"/>
<text xml:space="preserve" text-anchor="start" x="299.5" y="-18.5" font-family="Helvetica,sans-Serif" font-size="10.00">QuickAccessToolbar</text>
<text xml:space="preserve" text-anchor="middle" x="344.5" y="-6.5" font-family="Helvetica,sans-Serif" font-size="10.00">::onSaveAction</text>
</a>
</g>
</g>
<!-- Node2&#45;&gt;Node8 -->
<g id="edge7_Node000002_Node000008" class="edge">
<title>Node2&#45;&gt;Node8</title>
<g id="a_edge7_Node000002_Node000008"><a xlink:title=" ">
<path fill="none" stroke="#63b8ff" d="M243.25,-124.54C247.14,-122.03 250.81,-119.19 254,-116 280.14,-89.85 263.72,-67.01 290,-41 290.61,-40.39 291.25,-39.8 291.9,-39.21"/>
<polygon fill="#63b8ff" stroke="#63b8ff" points="293.95,-42.05 299.85,-33.25 289.75,-36.45 293.95,-42.05"/>
</a>
</g>
</g>
</g>
</svg>
