<?xml version="1.0" encoding="UTF-8" standalone="no"?>
<!DOCTYPE svg PUBLIC "-//W3C//DTD SVG 1.1//EN"
 "http://www.w3.org/Graphics/SVG/1.1/DTD/svg11.dtd">
<!-- Generated by graphviz version 14.1.1 (20251213.1925)
 -->
<!-- Title: AutoSaveManager::saveRequested Pages: 1 -->
<svg width="541pt" height="78pt"
 viewBox="0.00 0.00 541.00 78.00" xmlns="http://www.w3.org/2000/svg" xmlns:xlink="http://www.w3.org/1999/xlink">
<g id="graph0" class="graph" transform="scale(1 1) rotate(0) translate(4 74)">
<title>AutoSaveManager::saveRequested</title>
<!-- Node1 -->
<g id="Node000001" class="node">
<title>Node1</title>
<g id="a_Node000001"><a xlink:title=" ">
<polygon fill="#999999" stroke="#666666" points="532.5,-48 362,-48 362,-28 532.5,-28 532.5,-48"/>
<text xml:space="preserve" text-anchor="middle" x="447.25" y="-34.5" font-family="Helvetica,sans-Serif" font-size="10.00">AutoSaveManager::saveRequested</text>
</a>
</g>
</g>
<!-- Node2 -->
<g id="Node000002" class="node">
<title>Node2</title>
<g id="a_Node000002"><a xlink:href="class_main_window.html#adfa32feecffce3959c99d145fc8b4854" target="_top" xlink:title=" ">
<polygon fill="white" stroke="#666666" points="326,-70 181,-70 181,-50 326,-50 326,-70"/>
<text xml:space="preserve" text-anchor="middle" x="253.5" y="-56.5" font-family="Helvetica,sans-Serif" font-size="10.00">MainWindow::connectSignals</text>
</a>
</g>
</g>
<!-- Node1&#45;&gt;Node2 -->
<g id="edge1_Node000001_Node000002" class="edge">
<title>Node1&#45;&gt;Node2</title>
<g id="a_edge1_Node000001_Node000002"><a xlink:title=" ">
<path fill="none" stroke="#63b8ff" d="M350.26,-49.01C342.23,-49.93 334.21,-50.85 326.41,-51.75"/>
<polygon fill="#63b8ff" stroke="#63b8ff" points="350.55,-52.5 360.08,-47.89 349.75,-45.55 350.55,-52.5"/>
</a>
</g>
</g>
<!-- Node4 -->
<g id="Node000004" class="node">
<title>Node4</title>
<g id="a_Node000004"><a xlink:href="class_auto_save_manager.html#afc210ecc4d92e0c5316d2565d8794f04" target="_top" xlink:title=" ">
<polygon fill="white" stroke="#666666" points="322.25,-32 184.75,-32 184.75,0 322.25,0 322.25,-32"/>
<text xml:space="preserve" text-anchor="start" x="192.75" y="-18.5" font-family="Helvetica,sans-Serif" font-size="10.00">AutoSaveManager::onTimer</text>
<text xml:space="preserve" text-anchor="middle" x="253.5" y="-6.5" font-family="Helvetica,sans-Serif" font-size="10.00">Triggered</text>
</a>
</g>
</g>
<!-- Node1&#45;&gt;Node4 -->
<g id="edge3_Node000001_Node000004" class="edge">
<title>Node1&#45;&gt;Node4</title>
<g id="a_edge3_Node000001_Node000004"><a xlink:title=" ">
<path fill="none" stroke="#63b8ff" d="M350.23,-26.98C340.9,-25.91 331.57,-24.84 322.6,-23.81"/>
<polygon fill="#63b8ff" stroke="#63b8ff" points="349.75,-30.45 360.08,-28.11 350.55,-23.5 349.75,-30.45"/>
</a>
</g>
</g>
<!-- Node3 -->
<g id="Node000003" class="node">
<title>Node3</title>
<g id="a_Node000003"><a xlink:href="class_main_window.html#a996c5a2b6f77944776856f08ec30858d" target="_top" xlink:title=" ">
<polygon fill="white" stroke="#666666" points="139.75,-70 5.25,-70 5.25,-50 139.75,-50 139.75,-70"/>
<text xml:space="preserve" text-anchor="middle" x="72.5" y="-56.5" font-family="Helvetica,sans-Serif" font-size="10.00">MainWindow::MainWindow</text>
</a>
</g>
</g>
<!-- Node2&#45;&gt;Node3 -->
<g id="edge2_Node000002_Node000003" class="edge">
<title>Node2&#45;&gt;Node3</title>
<g id="a_edge2_Node000002_Node000003"><a xlink:title=" ">
<path fill="none" stroke="#63b8ff" d="M169.3,-60C159.5,-60 149.6,-60 140.07,-60"/>
<polygon fill="#63b8ff" stroke="#63b8ff" points="169.21,-63.5 179.21,-60 169.21,-56.5 169.21,-63.5"/>
</a>
</g>
</g>
<!-- Node5 -->
<g id="Node000005" class="node">
<title>Node5</title>
<g id="a_Node000005"><a xlink:href="class_auto_save_manager.html#a2d6ec6a7aca5011dc47b4bed3ada2e27" target="_top" xlink:title=" ">
<polygon fill="white" stroke="#666666" points="145,-32 0,-32 0,0 145,0 145,-32"/>
<text xml:space="preserve" text-anchor="start" x="8" y="-18.5" font-family="Helvetica,sans-Serif" font-size="10.00">AutoSaveManager::AutoSave</text>
<text xml:space="preserve" text-anchor="middle" x="72.5" y="-6.5" font-family="Helvetica,sans-Serif" font-size="10.00">Manager</text>
</a>
</g>
</g>
<!-- Node4&#45;&gt;Node5 -->
<g id="edge4_Node000004_Node000005" class="edge">
<title>Node4&#45;&gt;Node5</title>
<g id="a_edge4_Node000004_Node000005"><a xlink:title=" ">
<path fill="none" stroke="#63b8ff" d="M172.83,-16C163.69,-16 154.4,-16 145.36,-16"/>
<polygon fill="#63b8ff" stroke="#63b8ff" points="172.8,-19.5 182.8,-16 172.8,-12.5 172.8,-19.5"/>
</a>
</g>
</g>
</g>
</svg>
