<?xml version="1.0" encoding="UTF-8" standalone="no"?>
<!DOCTYPE svg PUBLIC "-//W3C//DTD SVG 1.1//EN"
 "http://www.w3.org/Graphics/SVG/1.1/DTD/svg11.dtd">
<!-- Generated by graphviz version 14.1.1 (20251213.1925)
 -->
<!-- Title: ConnectionGraphicsItem::disconnectFromConnection Pages: 1 -->
<svg width="887pt" height="406pt"
 viewBox="0.00 0.00 887.00 406.00" xmlns="http://www.w3.org/2000/svg" xmlns:xlink="http://www.w3.org/1999/xlink">
<g id="graph0" class="graph" transform="scale(1 1) rotate(0) translate(4 402)">
<title>ConnectionGraphicsItem::disconnectFromConnection</title>
<!-- Node1 -->
<g id="Node000001" class="node">
<title>Node1</title>
<g id="a_Node000001"><a xlink:title=" ">
<polygon fill="#999999" stroke="#666666" points="141.25,-182 0,-182 0,-150 141.25,-150 141.25,-182"/>
<text xml:space="preserve" text-anchor="start" x="8" y="-168.5" font-family="Helvetica,sans-Serif" font-size="10.00">ConnectionGraphicsItem</text>
<text xml:space="preserve" text-anchor="middle" x="70.62" y="-156.5" font-family="Helvetica,sans-Serif" font-size="10.00">::disconnectFromConnection</text>
</a>
</g>
</g>
<!-- Node2 -->
<g id="Node000002" class="node">
<title>Node2</title>
<g id="a_Node000002"><a xlink:href="class_connection_line.html#a9de44ae385d7941f3aa79da06e97d510" target="_top" xlink:title=" ">
<polygon fill="white" stroke="#666666" points="318.88,-332 182.12,-332 182.12,-300 318.88,-300 318.88,-332"/>
<text xml:space="preserve" text-anchor="start" x="190.12" y="-318.5" font-family="Helvetica,sans-Serif" font-size="10.00">ConnectionLine::connection</text>
<text xml:space="preserve" text-anchor="middle" x="250.5" y="-306.5" font-family="Helvetica,sans-Serif" font-size="10.00">Changed</text>
</a>
</g>
</g>
<!-- Node1&#45;&gt;Node2 -->
<g id="edge1_Node000001_Node000002" class="edge">
<title>Node1&#45;&gt;Node2</title>
<g id="a_edge1_Node000001_Node000002"><a xlink:title=" ">
<path fill="none" stroke="#63b8ff" d="M81.22,-182.22C97.66,-208.67 133.67,-261.11 177.25,-291 179.02,-292.21 180.84,-293.37 182.72,-294.47"/>
<polygon fill="#63b8ff" stroke="#63b8ff" points="180.63,-297.33 191.12,-298.88 183.89,-291.13 180.63,-297.33"/>
</a>
</g>
</g>
<!-- Node9 -->
<g id="Node000009" class="node">
<title>Node9</title>
<g id="a_Node000009"><a xlink:href="class_connection_line.html#a93e2b3868595cc0ac41de6c0f36c2365" target="_top" xlink:title=" ">
<polygon fill="white" stroke="#666666" points="323.75,-282 177.25,-282 177.25,-250 323.75,-250 323.75,-282"/>
<text xml:space="preserve" text-anchor="start" x="185.25" y="-268.5" font-family="Helvetica,sans-Serif" font-size="10.00">ConnectionLine::controlPoints</text>
<text xml:space="preserve" text-anchor="middle" x="250.5" y="-256.5" font-family="Helvetica,sans-Serif" font-size="10.00">Changed</text>
</a>
</g>
</g>
<!-- Node1&#45;&gt;Node9 -->
<g id="edge10_Node000001_Node000009" class="edge">
<title>Node1&#45;&gt;Node9</title>
<g id="a_edge10_Node000001_Node000009"><a xlink:title=" ">
<path fill="none" stroke="#63b8ff" d="M91.17,-182.47C111.58,-199.04 145.05,-224.43 177.25,-241 180.07,-242.45 183,-243.85 185.98,-245.19"/>
<polygon fill="#63b8ff" stroke="#63b8ff" points="184.32,-248.29 194.89,-248.95 187.04,-241.84 184.32,-248.29"/>
</a>
</g>
</g>
<!-- Node10 -->
<g id="Node000010" class="node">
<title>Node10</title>
<g id="a_Node000010"><a xlink:href="class_connection_line.html#aac502857bfb1af787f061a04ab4243be" target="_top" xlink:title=" ">
<polygon fill="white" stroke="#666666" points="314.38,-232 186.62,-232 186.62,-200 314.38,-200 314.38,-232"/>
<text xml:space="preserve" text-anchor="start" x="194.62" y="-218.5" font-family="Helvetica,sans-Serif" font-size="10.00">ConnectionLine::endPoint</text>
<text xml:space="preserve" text-anchor="middle" x="250.5" y="-206.5" font-family="Helvetica,sans-Serif" font-size="10.00">Changed</text>
</a>
</g>
</g>
<!-- Node1&#45;&gt;Node10 -->
<g id="edge11_Node000001_Node000010" class="edge">
<title>Node1&#45;&gt;Node10</title>
<g id="a_edge11_Node000001_Node000010"><a xlink:title=" ">
<path fill="none" stroke="#63b8ff" d="M129.87,-182.37C145.91,-186.88 163.47,-191.82 180.07,-196.48"/>
<polygon fill="#63b8ff" stroke="#63b8ff" points="178.79,-199.76 189.36,-199.1 180.69,-193.02 178.79,-199.76"/>
</a>
</g>
</g>
<!-- Node11 -->
<g id="Node000011" class="node">
<title>Node11</title>
<g id="a_Node000011"><a xlink:href="class_connection_line.html#a7af2a1f9fc1a9ddb362634ecaa926ae8" target="_top" xlink:title=" ">
<polygon fill="white" stroke="#666666" points="313.25,-182 187.75,-182 187.75,-150 313.25,-150 313.25,-182"/>
<text xml:space="preserve" text-anchor="start" x="195.75" y="-168.5" font-family="Helvetica,sans-Serif" font-size="10.00">ConnectionLine::lineType</text>
<text xml:space="preserve" text-anchor="middle" x="250.5" y="-156.5" font-family="Helvetica,sans-Serif" font-size="10.00">Changed</text>
</a>
</g>
</g>
<!-- Node1&#45;&gt;Node11 -->
<g id="edge12_Node000001_Node000011" class="edge">
<title>Node1&#45;&gt;Node11</title>
<g id="a_edge12_Node000001_Node000011"><a xlink:title=" ">
<path fill="none" stroke="#63b8ff" d="M141.67,-166C152.97,-166 164.7,-166 176.08,-166"/>
<polygon fill="#63b8ff" stroke="#63b8ff" points="175.8,-169.5 185.8,-166 175.8,-162.5 175.8,-169.5"/>
</a>
</g>
</g>
<!-- Node12 -->
<g id="Node000012" class="node">
<title>Node12</title>
<g id="a_Node000012"><a xlink:href="class_connection_line.html#a3c8e72d1084c985add08c5e37d54835f" target="_top" xlink:title=" ">
<polygon fill="white" stroke="#666666" points="315.5,-132 185.5,-132 185.5,-100 315.5,-100 315.5,-132"/>
<text xml:space="preserve" text-anchor="start" x="193.5" y="-118.5" font-family="Helvetica,sans-Serif" font-size="10.00">ConnectionLine::lineWidth</text>
<text xml:space="preserve" text-anchor="middle" x="250.5" y="-106.5" font-family="Helvetica,sans-Serif" font-size="10.00">Changed</text>
</a>
</g>
</g>
<!-- Node1&#45;&gt;Node12 -->
<g id="edge13_Node000001_Node000012" class="edge">
<title>Node1&#45;&gt;Node12</title>
<g id="a_edge13_Node000001_Node000012"><a xlink:title=" ">
<path fill="none" stroke="#63b8ff" d="M129.87,-149.63C145.91,-145.12 163.47,-140.18 180.07,-135.52"/>
<polygon fill="#63b8ff" stroke="#63b8ff" points="180.69,-138.98 189.36,-132.9 178.79,-132.24 180.69,-138.98"/>
</a>
</g>
</g>
<!-- Node13 -->
<g id="Node000013" class="node">
<title>Node13</title>
<g id="a_Node000013"><a xlink:href="class_connection_line.html#afcc2bd845912903497ccaa97e67b8a89" target="_top" xlink:title=" ">
<polygon fill="white" stroke="#666666" points="316.25,-82 184.75,-82 184.75,-50 316.25,-50 316.25,-82"/>
<text xml:space="preserve" text-anchor="start" x="192.75" y="-68.5" font-family="Helvetica,sans-Serif" font-size="10.00">ConnectionLine::startPoint</text>
<text xml:space="preserve" text-anchor="middle" x="250.5" y="-56.5" font-family="Helvetica,sans-Serif" font-size="10.00">Changed</text>
</a>
</g>
</g>
<!-- Node1&#45;&gt;Node13 -->
<g id="edge14_Node000001_Node000013" class="edge">
<title>Node1&#45;&gt;Node13</title>
<g id="a_edge14_Node000001_Node000013"><a xlink:title=" ">
<path fill="none" stroke="#63b8ff" d="M91.17,-149.53C111.58,-132.96 145.05,-107.57 177.25,-91 180.07,-89.55 183,-88.15 185.98,-86.81"/>
<polygon fill="#63b8ff" stroke="#63b8ff" points="187.04,-90.16 194.89,-83.05 184.32,-83.71 187.04,-90.16"/>
</a>
</g>
</g>
<!-- Node14 -->
<g id="Node000014" class="node">
<title>Node14</title>
<g id="a_Node000014"><a xlink:href="class_connection_graphics_item.html#ae9e946d48f378aea3604fe67c95fe9a6" target="_top" xlink:title=" ">
<polygon fill="white" stroke="#666666" points="312.5,-32 188.5,-32 188.5,0 312.5,0 312.5,-32"/>
<text xml:space="preserve" text-anchor="start" x="196.5" y="-18.5" font-family="Helvetica,sans-Serif" font-size="10.00">ConnectionGraphicsItem</text>
<text xml:space="preserve" text-anchor="middle" x="250.5" y="-6.5" font-family="Helvetica,sans-Serif" font-size="10.00">::updateFromConnection</text>
</a>
</g>
</g>
<!-- Node1&#45;&gt;Node14 -->
<g id="edge15_Node000001_Node000014" class="edge">
<title>Node1&#45;&gt;Node14</title>
<g id="a_edge15_Node000001_Node000014"><a xlink:title=" ">
<path fill="none" stroke="#63b8ff" d="M81.22,-149.78C97.66,-123.33 133.67,-70.89 177.25,-41 179.02,-39.79 180.84,-38.63 182.72,-37.53"/>
<polygon fill="#63b8ff" stroke="#63b8ff" points="183.89,-40.87 191.12,-33.12 180.63,-34.67 183.89,-40.87"/>
</a>
</g>
</g>
<!-- Node3 -->
<g id="Node000003" class="node">
<title>Node3</title>
<g id="a_Node000003"><a xlink:href="class_connection_line.html#a657559dca679d5fd04ae565b442b6a8b" target="_top" xlink:title=" ">
<polygon fill="white" stroke="#666666" points="516.75,-326 359.75,-326 359.75,-306 516.75,-306 516.75,-326"/>
<text xml:space="preserve" text-anchor="middle" x="438.25" y="-312.5" font-family="Helvetica,sans-Serif" font-size="10.00">ConnectionLine::ConnectionLine</text>
</a>
</g>
</g>
<!-- Node2&#45;&gt;Node3 -->
<g id="edge2_Node000002_Node000003" class="edge">
<title>Node2&#45;&gt;Node3</title>
<g id="a_edge2_Node000002_Node000003"><a xlink:title=" ">
<path fill="none" stroke="#63b8ff" d="M319.35,-316C328.73,-316 338.49,-316 348.19,-316"/>
<polygon fill="#63b8ff" stroke="#63b8ff" points="348.01,-319.5 358.01,-316 348.01,-312.5 348.01,-319.5"/>
</a>
</g>
</g>
<!-- Node4 -->
<g id="Node000004" class="node">
<title>Node4</title>
<g id="a_Node000004"><a xlink:href="class_connection_line.html#a836aef7faf5a4fb8a5a10bfc71dbabe3" target="_top" xlink:title=" ">
<polygon fill="white" stroke="#666666" points="687.25,-332 552.75,-332 552.75,-300 687.25,-300 687.25,-332"/>
<text xml:space="preserve" text-anchor="start" x="560.75" y="-318.5" font-family="Helvetica,sans-Serif" font-size="10.00">ConnectionLine::connectTo</text>
<text xml:space="preserve" text-anchor="middle" x="620" y="-306.5" font-family="Helvetica,sans-Serif" font-size="10.00">Points</text>
</a>
</g>
</g>
<!-- Node3&#45;&gt;Node4 -->
<g id="edge3_Node000003_Node000004" class="edge">
<title>Node3&#45;&gt;Node4</title>
<g id="a_edge3_Node000003_Node000004"><a xlink:title=" ">
<path fill="none" stroke="#63b8ff" d="M517.05,-316C524.95,-316 532.98,-316 540.89,-316"/>
<polygon fill="#63b8ff" stroke="#63b8ff" points="540.85,-319.5 550.85,-316 540.85,-312.5 540.85,-319.5"/>
</a>
</g>
</g>
<!-- Node5 -->
<g id="Node000005" class="node">
<title>Node5</title>
<g id="a_Node000005"><a xlink:href="class_connection_line.html#a53c863c51a284a7a8e6b35bc34bd2d34" target="_top" xlink:title=" ">
<polygon fill="white" stroke="#666666" points="875.75,-398 726.25,-398 726.25,-366 875.75,-366 875.75,-398"/>
<text xml:space="preserve" text-anchor="start" x="734.25" y="-384.5" font-family="Helvetica,sans-Serif" font-size="10.00">ConnectionLine::onConnection</text>
<text xml:space="preserve" text-anchor="middle" x="801" y="-372.5" font-family="Helvetica,sans-Serif" font-size="10.00">PointChanged</text>
</a>
</g>
</g>
<!-- Node4&#45;&gt;Node5 -->
<g id="edge4_Node000004_Node000005" class="edge">
<title>Node4&#45;&gt;Node5</title>
<g id="a_edge4_Node000004_Node000005"><a xlink:title=" ">
<path fill="none" stroke="#63b8ff" d="M660.1,-332.38C679.05,-340.15 702.22,-349.37 723.25,-357 727.7,-358.61 732.3,-360.24 736.95,-361.84"/>
<polygon fill="#63b8ff" stroke="#63b8ff" points="735.79,-365.14 746.39,-365.03 738.04,-358.51 735.79,-365.14"/>
</a>
</g>
</g>
<!-- Node6 -->
<g id="Node000006" class="node">
<title>Node6</title>
<g id="a_Node000006"><a xlink:href="class_connection_line.html#a4bce34a3f2fb1fd7145de2d9100c9173" target="_top" xlink:title=" ">
<polygon fill="white" stroke="#666666" points="869,-260 733,-260 733,-228 869,-228 869,-260"/>
<text xml:space="preserve" text-anchor="start" x="741" y="-246.5" font-family="Helvetica,sans-Serif" font-size="10.00">ConnectionLine::onElement</text>
<text xml:space="preserve" text-anchor="middle" x="801" y="-234.5" font-family="Helvetica,sans-Serif" font-size="10.00">PositionChanged</text>
</a>
</g>
</g>
<!-- Node4&#45;&gt;Node6 -->
<g id="edge6_Node000004_Node000006" class="edge">
<title>Node4&#45;&gt;Node6</title>
<g id="a_edge6_Node000004_Node000006"><a xlink:title=" ">
<path fill="none" stroke="#63b8ff" d="M654.2,-299.55C674,-290.04 699.78,-278.18 723.25,-269 727.39,-267.38 731.68,-265.78 736.02,-264.22"/>
<polygon fill="#63b8ff" stroke="#63b8ff" points="737.16,-267.53 745.44,-260.92 734.84,-260.92 737.16,-267.53"/>
</a>
</g>
</g>
<!-- Node7 -->
<g id="Node000007" class="node">
<title>Node7</title>
<g id="a_Node000007"><a xlink:href="class_basic_element.html#a02183bafd7c80f9f1f99a9b9f1631524" target="_top" xlink:title=" ">
<polygon fill="white" stroke="#666666" points="878.75,-348 723.25,-348 723.25,-328 878.75,-328 878.75,-348"/>
<text xml:space="preserve" text-anchor="middle" x="801" y="-334.5" font-family="Helvetica,sans-Serif" font-size="10.00">BasicElement::positionChanged</text>
</a>
</g>
</g>
<!-- Node4&#45;&gt;Node7 -->
<g id="edge8_Node000004_Node000007" class="edge">
<title>Node4&#45;&gt;Node7</title>
<g id="a_edge8_Node000004_Node000007"><a xlink:title=" ">
<path fill="none" stroke="#63b8ff" d="M687.65,-324.19C695.49,-325.16 703.58,-326.15 711.65,-327.14"/>
<polygon fill="#63b8ff" stroke="#63b8ff" points="711.18,-330.61 721.53,-328.36 712.03,-323.66 711.18,-330.61"/>
</a>
</g>
</g>
<!-- Node8 -->
<g id="Node000008" class="node">
<title>Node8</title>
<g id="a_Node000008"><a xlink:href="class_connection_point.html#a851668ae19e97658f1818a40ea375f65" target="_top" xlink:title=" ">
<polygon fill="white" stroke="#666666" points="863.75,-310 738.25,-310 738.25,-278 863.75,-278 863.75,-310"/>
<text xml:space="preserve" text-anchor="start" x="746.25" y="-296.5" font-family="Helvetica,sans-Serif" font-size="10.00">ConnectionPoint::relative</text>
<text xml:space="preserve" text-anchor="middle" x="801" y="-284.5" font-family="Helvetica,sans-Serif" font-size="10.00">PositionChanged</text>
</a>
</g>
</g>
<!-- Node4&#45;&gt;Node8 -->
<g id="edge9_Node000004_Node000008" class="edge">
<title>Node4&#45;&gt;Node8</title>
<g id="a_edge9_Node000004_Node000008"><a xlink:title=" ">
<path fill="none" stroke="#63b8ff" d="M687.65,-307.81C700.41,-306.24 713.84,-304.59 726.8,-303"/>
<polygon fill="#63b8ff" stroke="#63b8ff" points="727.03,-306.49 736.53,-301.8 726.18,-299.55 727.03,-306.49"/>
</a>
</g>
</g>
<!-- Node5&#45;&gt;Node2 -->
<g id="edge5_Node000005_Node000002" class="edge">
<title>Node5&#45;&gt;Node2</title>
<g id="a_edge5_Node000005_Node000002"><a xlink:title=" ">
<path fill="none" stroke="#63b8ff" d="M725.81,-375.62C638.15,-367.72 488,-353.08 359.75,-335 350.21,-333.66 340.22,-332.1 330.33,-330.47"/>
<polygon fill="#63b8ff" stroke="#63b8ff" points="331.17,-327.07 320.73,-328.86 330.01,-333.97 331.17,-327.07"/>
</a>
</g>
</g>
<!-- Node6&#45;&gt;Node2 -->
<g id="edge7_Node000006_Node000002" class="edge">
<title>Node6&#45;&gt;Node2</title>
<g id="a_edge7_Node000006_Node000002"><a xlink:title=" ">
<path fill="none" stroke="#63b8ff" d="M732.72,-250.96C646.24,-260.17 491.5,-277.52 359.75,-297 350.22,-298.41 340.24,-300 330.35,-301.65"/>
<polygon fill="#63b8ff" stroke="#63b8ff" points="330.03,-298.16 320.75,-303.28 331.2,-305.06 330.03,-298.16"/>
</a>
</g>
</g>
<!-- Node15 -->
<g id="Node000015" class="node">
<title>Node15</title>
<g id="a_Node000015"><a xlink:href="class_connection_graphics_item.html#aadc87896a249eaf4a8b7fdcc76745e34" target="_top" xlink:title=" ">
<polygon fill="white" stroke="#666666" points="511.12,-32 365.38,-32 365.38,0 511.12,0 511.12,-32"/>
<text xml:space="preserve" text-anchor="start" x="373.38" y="-18.5" font-family="Helvetica,sans-Serif" font-size="10.00">ConnectionGraphicsItem</text>
<text xml:space="preserve" text-anchor="middle" x="438.25" y="-6.5" font-family="Helvetica,sans-Serif" font-size="10.00">::updateControlPointsPosition</text>
</a>
</g>
</g>
<!-- Node14&#45;&gt;Node15 -->
<g id="edge16_Node000014_Node000015" class="edge">
<title>Node14&#45;&gt;Node15</title>
<g id="a_edge16_Node000014_Node000015"><a xlink:title=" ">
<path fill="none" stroke="#63b8ff" d="M312.84,-16C325.88,-16 339.87,-16 353.58,-16"/>
<polygon fill="#63b8ff" stroke="#63b8ff" points="353.5,-19.5 363.5,-16 353.5,-12.5 353.5,-19.5"/>
</a>
</g>
</g>
</g>
</svg>
