<?xml version="1.0" encoding="UTF-8" standalone="no"?>
<!DOCTYPE svg PUBLIC "-//W3C//DTD SVG 1.1//EN"
 "http://www.w3.org/Graphics/SVG/1.1/DTD/svg11.dtd">
<!-- Generated by graphviz version 14.1.1 (20251213.1925)
 -->
<!-- Title: AutoSaveManager::statusMessageRequested Pages: 1 -->
<svg width="545pt" height="104pt"
 viewBox="0.00 0.00 545.00 104.00" xmlns="http://www.w3.org/2000/svg" xmlns:xlink="http://www.w3.org/1999/xlink">
<g id="graph0" class="graph" transform="scale(1 1) rotate(0) translate(4 100)">
<title>AutoSaveManager::statusMessageRequested</title>
<!-- Node1 -->
<g id="Node000001" class="node">
<title>Node1</title>
<g id="a_Node000001"><a xlink:title=" ">
<polygon fill="#999999" stroke="#666666" points="537,-64 368,-64 368,-32 537,-32 537,-64"/>
<text xml:space="preserve" text-anchor="start" x="376" y="-50.5" font-family="Helvetica,sans-Serif" font-size="10.00">AutoSaveManager::statusMessage</text>
<text xml:space="preserve" text-anchor="middle" x="452.5" y="-38.5" font-family="Helvetica,sans-Serif" font-size="10.00">Requested</text>
</a>
</g>
</g>
<!-- Node2 -->
<g id="Node000002" class="node">
<title>Node2</title>
<g id="a_Node000002"><a xlink:href="class_main_window.html#adfa32feecffce3959c99d145fc8b4854" target="_top" xlink:title=" ">
<polygon fill="white" stroke="#666666" points="332,-96 187,-96 187,-76 332,-76 332,-96"/>
<text xml:space="preserve" text-anchor="middle" x="259.5" y="-82.5" font-family="Helvetica,sans-Serif" font-size="10.00">MainWindow::connectSignals</text>
</a>
</g>
</g>
<!-- Node1&#45;&gt;Node2 -->
<g id="edge1_Node000001_Node000002" class="edge">
<title>Node1&#45;&gt;Node2</title>
<g id="a_edge1_Node000001_Node000002"><a xlink:title=" ">
<path fill="none" stroke="#63b8ff" d="M357.73,-66.66C342.44,-69.7 327.09,-72.75 313.25,-75.51"/>
<polygon fill="#63b8ff" stroke="#63b8ff" points="358.23,-70.13 367.35,-64.74 356.86,-63.26 358.23,-70.13"/>
</a>
</g>
</g>
<!-- Node4 -->
<g id="Node000004" class="node">
<title>Node4</title>
<g id="a_Node000004"><a xlink:href="class_auto_save_manager.html#ac80d3c995c6ac5ad70b0c0b4cf74b096" target="_top" xlink:title=" ">
<polygon fill="white" stroke="#666666" points="320.38,-58 198.62,-58 198.62,-38 320.38,-38 320.38,-58"/>
<text xml:space="preserve" text-anchor="middle" x="259.5" y="-44.5" font-family="Helvetica,sans-Serif" font-size="10.00">AutoSaveManager::start</text>
</a>
</g>
</g>
<!-- Node1&#45;&gt;Node4 -->
<g id="edge3_Node000001_Node000004" class="edge">
<title>Node1&#45;&gt;Node4</title>
<g id="a_edge3_Node000001_Node000004"><a xlink:title=" ">
<path fill="none" stroke="#63b8ff" d="M356.54,-48C344.33,-48 332.11,-48 320.68,-48"/>
<polygon fill="#63b8ff" stroke="#63b8ff" points="356.21,-51.5 366.21,-48 356.21,-44.5 356.21,-51.5"/>
</a>
</g>
</g>
<!-- Node6 -->
<g id="Node000006" class="node">
<title>Node6</title>
<g id="a_Node000006"><a xlink:href="class_auto_save_manager.html#a78b573d8221a0b78a6a0045568f8a4cc" target="_top" xlink:title=" ">
<polygon fill="white" stroke="#666666" points="320,-20 199,-20 199,0 320,0 320,-20"/>
<text xml:space="preserve" text-anchor="middle" x="259.5" y="-6.5" font-family="Helvetica,sans-Serif" font-size="10.00">AutoSaveManager::stop</text>
</a>
</g>
</g>
<!-- Node1&#45;&gt;Node6 -->
<g id="edge5_Node000001_Node000006" class="edge">
<title>Node1&#45;&gt;Node6</title>
<g id="a_edge5_Node000001_Node000006"><a xlink:title=" ">
<path fill="none" stroke="#63b8ff" d="M357.73,-29.34C342.44,-26.3 327.09,-23.25 313.25,-20.49"/>
<polygon fill="#63b8ff" stroke="#63b8ff" points="356.86,-32.74 367.35,-31.26 358.23,-25.87 356.86,-32.74"/>
</a>
</g>
</g>
<!-- Node3 -->
<g id="Node000003" class="node">
<title>Node3</title>
<g id="a_Node000003"><a xlink:href="class_main_window.html#a996c5a2b6f77944776856f08ec30858d" target="_top" xlink:title=" ">
<polygon fill="white" stroke="#666666" points="142.75,-96 8.25,-96 8.25,-76 142.75,-76 142.75,-96"/>
<text xml:space="preserve" text-anchor="middle" x="75.5" y="-82.5" font-family="Helvetica,sans-Serif" font-size="10.00">MainWindow::MainWindow</text>
</a>
</g>
</g>
<!-- Node2&#45;&gt;Node3 -->
<g id="edge2_Node000002_Node000003" class="edge">
<title>Node2&#45;&gt;Node3</title>
<g id="a_edge2_Node000002_Node000003"><a xlink:title=" ">
<path fill="none" stroke="#63b8ff" d="M175.06,-86C164.37,-86 153.54,-86 143.17,-86"/>
<polygon fill="#63b8ff" stroke="#63b8ff" points="175.06,-89.5 185.06,-86 175.06,-82.5 175.06,-89.5"/>
</a>
</g>
</g>
<!-- Node5 -->
<g id="Node000005" class="node">
<title>Node5</title>
<g id="a_Node000005"><a xlink:href="class_auto_save_manager.html#abc8d58db920f869e8e594b4568e82e24" target="_top" xlink:title=" ">
<polygon fill="white" stroke="#666666" points="151,-39 0,-39 0,-19 151,-19 151,-39"/>
<text xml:space="preserve" text-anchor="middle" x="75.5" y="-25.5" font-family="Helvetica,sans-Serif" font-size="10.00">AutoSaveManager::setEnabled</text>
</a>
</g>
</g>
<!-- Node4&#45;&gt;Node5 -->
<g id="edge4_Node000004_Node000005" class="edge">
<title>Node4&#45;&gt;Node5</title>
<g id="a_edge4_Node000004_Node000005"><a xlink:title=" ">
<path fill="none" stroke="#63b8ff" d="M187.05,-40.54C175.31,-39.32 163.1,-38.04 151.28,-36.81"/>
<polygon fill="#63b8ff" stroke="#63b8ff" points="186.33,-43.99 196.64,-41.54 187.06,-37.02 186.33,-43.99"/>
</a>
</g>
</g>
<!-- Node6&#45;&gt;Node5 -->
<g id="edge6_Node000006_Node000005" class="edge">
<title>Node6&#45;&gt;Node5</title>
<g id="a_edge6_Node000006_Node000005"><a xlink:title=" ">
<path fill="none" stroke="#63b8ff" d="M187.46,-17.42C175.61,-18.65 163.28,-19.94 151.33,-21.19"/>
<polygon fill="#63b8ff" stroke="#63b8ff" points="187.57,-20.92 197.15,-16.4 186.84,-13.96 187.57,-20.92"/>
</a>
</g>
</g>
</g>
</svg>
