<?xml version="1.0" encoding="UTF-8" standalone="no"?>
<!DOCTYPE svg PUBLIC "-//W3C//DTD SVG 1.1//EN"
 "http://www.w3.org/Graphics/SVG/1.1/DTD/svg11.dtd">
<!-- Generated by graphviz version 14.1.1 (20251213.1925)
 -->
<!-- Title: DiagramScene::elementAdded Pages: 1 -->
<svg width="731pt" height="66pt"
 viewBox="0.00 0.00 731.00 66.00" xmlns="http://www.w3.org/2000/svg" xmlns:xlink="http://www.w3.org/1999/xlink">
<g id="graph0" class="graph" transform="scale(1 1) rotate(0) translate(4 62)">
<title>DiagramScene::elementAdded</title>
<!-- Node1 -->
<g id="Node000001" class="node">
<title>Node1</title>
<g id="a_Node000001"><a xlink:title=" ">
<polygon fill="#999999" stroke="#666666" points="722.5,-39 573.75,-39 573.75,-19 722.5,-19 722.5,-39"/>
<text xml:space="preserve" text-anchor="middle" x="648.12" y="-25.5" font-family="Helvetica,sans-Serif" font-size="10.00">DiagramScene::elementAdded</text>
</a>
</g>
</g>
<!-- Node2 -->
<g id="Node000002" class="node">
<title>Node2</title>
<g id="a_Node000002"><a xlink:href="class_diagram_scene.html#ab3f76238d2c252f2918047140d87dd23" target="_top" xlink:title=" ">
<polygon fill="white" stroke="#666666" points="537.75,-39 399.5,-39 399.5,-19 537.75,-19 537.75,-39"/>
<text xml:space="preserve" text-anchor="middle" x="468.62" y="-25.5" font-family="Helvetica,sans-Serif" font-size="10.00">DiagramScene::addElement</text>
</a>
</g>
</g>
<!-- Node1&#45;&gt;Node2 -->
<g id="edge1_Node000001_Node000002" class="edge">
<title>Node1&#45;&gt;Node2</title>
<g id="a_edge1_Node000001_Node000002"><a xlink:title=" ">
<path fill="none" stroke="#63b8ff" d="M562.05,-29C553.99,-29 545.89,-29 538.01,-29"/>
<polygon fill="#63b8ff" stroke="#63b8ff" points="561.88,-32.5 571.88,-29 561.88,-25.5 561.88,-32.5"/>
</a>
</g>
</g>
<!-- Node3 -->
<g id="Node000003" class="node">
<title>Node3</title>
<g id="a_Node000003"><a xlink:href="class_diagram_scene.html#a7875efc4949e17967d9e11786b146cc9" target="_top" xlink:title=" ">
<polygon fill="white" stroke="#666666" points="358.25,-58 194.5,-58 194.5,-38 358.25,-38 358.25,-58"/>
<text xml:space="preserve" text-anchor="middle" x="276.38" y="-44.5" font-family="Helvetica,sans-Serif" font-size="10.00">DiagramScene::duplicateSelected</text>
</a>
</g>
</g>
<!-- Node2&#45;&gt;Node3 -->
<g id="edge2_Node000002_Node000003" class="edge">
<title>Node2&#45;&gt;Node3</title>
<g id="a_edge2_Node000002_Node000003"><a xlink:title=" ">
<path fill="none" stroke="#63b8ff" d="M387.91,-36.96C378.18,-37.93 368.23,-38.93 358.47,-39.9"/>
<polygon fill="#63b8ff" stroke="#63b8ff" points="388.1,-40.46 397.7,-35.98 387.4,-33.49 388.1,-40.46"/>
</a>
</g>
</g>
<!-- Node5 -->
<g id="Node000005" class="node">
<title>Node5</title>
<g id="a_Node000005"><a xlink:href="class_diagram_scene.html#a61e7061e5add947d09ad87feaf2b8dc1" target="_top" xlink:title=" ">
<polygon fill="white" stroke="#666666" points="363.5,-20 189.25,-20 189.25,0 363.5,0 363.5,-20"/>
<text xml:space="preserve" text-anchor="middle" x="276.38" y="-6.5" font-family="Helvetica,sans-Serif" font-size="10.00">DiagramScene::pasteFromClipboard</text>
</a>
</g>
</g>
<!-- Node2&#45;&gt;Node5 -->
<g id="edge4_Node000002_Node000005" class="edge">
<title>Node2&#45;&gt;Node5</title>
<g id="a_edge4_Node000002_Node000005"><a xlink:title=" ">
<path fill="none" stroke="#63b8ff" d="M388,-21.05C379.99,-20.25 371.82,-19.43 363.74,-18.63"/>
<polygon fill="#63b8ff" stroke="#63b8ff" points="387.4,-24.51 397.7,-22.02 388.1,-17.54 387.4,-24.51"/>
</a>
</g>
</g>
<!-- Node4 -->
<g id="Node000004" class="node">
<title>Node4</title>
<g id="a_Node000004"><a xlink:href="class_diagram_scene.html#a074e1181353b257a18ea2d243b459a47" target="_top" xlink:title=" ">
<polygon fill="white" stroke="#666666" points="153.25,-39 0,-39 0,-19 153.25,-19 153.25,-39"/>
<text xml:space="preserve" text-anchor="middle" x="76.62" y="-25.5" font-family="Helvetica,sans-Serif" font-size="10.00">DiagramScene::keyPressEvent</text>
</a>
</g>
</g>
<!-- Node3&#45;&gt;Node4 -->
<g id="edge3_Node000003_Node000004" class="edge">
<title>Node3&#45;&gt;Node4</title>
<g id="a_edge3_Node000003_Node000004"><a xlink:title=" ">
<path fill="none" stroke="#63b8ff" d="M182.68,-39.09C172.91,-38.15 163.06,-37.21 153.51,-36.29"/>
<polygon fill="#63b8ff" stroke="#63b8ff" points="182.29,-42.57 192.58,-40.04 182.96,-35.6 182.29,-42.57"/>
</a>
</g>
</g>
<!-- Node5&#45;&gt;Node4 -->
<g id="edge5_Node000005_Node000004" class="edge">
<title>Node5&#45;&gt;Node4</title>
<g id="a_edge5_Node000005_Node000004"><a xlink:title=" ">
<path fill="none" stroke="#63b8ff" d="M177.59,-19.4C169.55,-20.17 161.5,-20.94 153.66,-21.69"/>
<polygon fill="#63b8ff" stroke="#63b8ff" points="177.8,-22.89 187.42,-18.45 177.13,-15.92 177.8,-22.89"/>
</a>
</g>
</g>
</g>
</svg>
