<?xml version="1.0" encoding="UTF-8" standalone="no"?>
<!DOCTYPE svg PUBLIC "-//W3C//DTD SVG 1.1//EN"
 "http://www.w3.org/Graphics/SVG/1.1/DTD/svg11.dtd">
<!-- Generated by graphviz version 14.1.1 (20251213.1925)
 -->
<!-- Title: PropertiesPanel::onCheckBoxChanged Pages: 1 -->
<svg width="2057pt" height="815pt"
 viewBox="0.00 0.00 2057.00 815.00" xmlns="http://www.w3.org/2000/svg" xmlns:xlink="http://www.w3.org/1999/xlink">
<g id="graph0" class="graph" transform="scale(1 1) rotate(0) translate(4 811)">
<title>PropertiesPanel::onCheckBoxChanged</title>
<!-- Node1 -->
<g id="Node000001" class="node">
<title>Node1</title>
<g id="a_Node000001"><a xlink:title=" ">
<polygon fill="#999999" stroke="#666666" points="2049,-248 1919,-248 1919,-216 2049,-216 2049,-248"/>
<text xml:space="preserve" text-anchor="start" x="1927" y="-234.5" font-family="Helvetica,sans-Serif" font-size="10.00">PropertiesPanel::onCheck</text>
<text xml:space="preserve" text-anchor="middle" x="1984" y="-222.5" font-family="Helvetica,sans-Serif" font-size="10.00">BoxChanged</text>
</a>
</g>
</g>
<!-- Node2 -->
<g id="Node000002" class="node">
<title>Node2</title>
<g id="a_Node000002"><a xlink:href="class_properties_panel.html#acfb41226221624e46767835caeea8abc" target="_top" xlink:title=" ">
<polygon fill="white" stroke="#666666" points="1883,-633 1736.5,-633 1736.5,-601 1883,-601 1883,-633"/>
<text xml:space="preserve" text-anchor="start" x="1744.5" y="-619.5" font-family="Helvetica,sans-Serif" font-size="10.00">PropertiesPanel::createCheck</text>
<text xml:space="preserve" text-anchor="middle" x="1809.75" y="-607.5" font-family="Helvetica,sans-Serif" font-size="10.00">BoxPropertyItem</text>
</a>
</g>
</g>
<!-- Node1&#45;&gt;Node2 -->
<g id="edge1_Node000001_Node000002" class="edge">
<title>Node1&#45;&gt;Node2</title>
<g id="a_edge1_Node000001_Node000002"><a xlink:title=" ">
<path fill="none" stroke="#63b8ff" d="M1971.2,-258.37C1938.04,-332.49 1844.66,-541.2 1817.96,-600.88"/>
<polygon fill="#63b8ff" stroke="#63b8ff" points="1974.31,-259.99 1975.2,-249.43 1967.92,-257.13 1974.31,-259.99"/>
</a>
</g>
</g>
<!-- Node3 -->
<g id="Node000003" class="node">
<title>Node3</title>
<g id="a_Node000003"><a xlink:href="class_properties_panel.html#acc5a2b4e63ea74eaa34853f1cec46b81" target="_top" xlink:title=" ">
<polygon fill="white" stroke="#666666" points="1700.5,-709 1572.75,-709 1572.75,-677 1700.5,-677 1700.5,-709"/>
<text xml:space="preserve" text-anchor="start" x="1580.75" y="-695.5" font-family="Helvetica,sans-Serif" font-size="10.00">PropertiesPanel::populate</text>
<text xml:space="preserve" text-anchor="middle" x="1636.62" y="-683.5" font-family="Helvetica,sans-Serif" font-size="10.00">AttributeProperties</text>
</a>
</g>
</g>
<!-- Node2&#45;&gt;Node3 -->
<g id="edge2_Node000002_Node000003" class="edge">
<title>Node2&#45;&gt;Node3</title>
<g id="a_edge2_Node000002_Node000003"><a xlink:title=" ">
<path fill="none" stroke="#63b8ff" d="M1761.12,-638.16C1733.8,-650.29 1700.01,-665.29 1674.68,-676.54"/>
<polygon fill="#63b8ff" stroke="#63b8ff" points="1762.52,-641.36 1770.24,-634.11 1759.68,-634.97 1762.52,-641.36"/>
</a>
</g>
</g>
<!-- Node10 -->
<g id="Node000010" class="node">
<title>Node10</title>
<g id="a_Node000010"><a xlink:href="class_properties_panel.html#aeb116e2e51099f618b5d284e492bc0e2" target="_top" xlink:title=" ">
<polygon fill="white" stroke="#666666" points="1373,-633 1245.25,-633 1245.25,-601 1373,-601 1373,-633"/>
<text xml:space="preserve" text-anchor="start" x="1253.25" y="-619.5" font-family="Helvetica,sans-Serif" font-size="10.00">PropertiesPanel::populate</text>
<text xml:space="preserve" text-anchor="middle" x="1309.12" y="-607.5" font-family="Helvetica,sans-Serif" font-size="10.00">RelationshipProperties</text>
</a>
</g>
</g>
<!-- Node2&#45;&gt;Node10 -->
<g id="edge46_Node000002_Node000010" class="edge">
<title>Node2&#45;&gt;Node10</title>
<g id="a_edge46_Node000002_Node000010"><a xlink:title=" ">
<path fill="none" stroke="#63b8ff" d="M1724.76,-617C1625.44,-617 1462.41,-617 1373.24,-617"/>
<polygon fill="#63b8ff" stroke="#63b8ff" points="1724.73,-620.5 1734.73,-617 1724.73,-613.5 1724.73,-620.5"/>
</a>
</g>
</g>
<!-- Node4 -->
<g id="Node000004" class="node">
<title>Node4</title>
<g id="a_Node000004"><a xlink:href="class_properties_panel.html#a050a4a9040c7aeefde9c1377d2e1909e" target="_top" xlink:title=" ">
<polygon fill="white" stroke="#666666" points="1536.75,-709 1409,-709 1409,-677 1536.75,-677 1536.75,-709"/>
<text xml:space="preserve" text-anchor="start" x="1417" y="-695.5" font-family="Helvetica,sans-Serif" font-size="10.00">PropertiesPanel::populate</text>
<text xml:space="preserve" text-anchor="middle" x="1472.88" y="-683.5" font-family="Helvetica,sans-Serif" font-size="10.00">AttributeList</text>
</a>
</g>
</g>
<!-- Node3&#45;&gt;Node4 -->
<g id="edge3_Node000003_Node000004" class="edge">
<title>Node3&#45;&gt;Node4</title>
<g id="a_edge3_Node000003_Node000004"><a xlink:title=" ">
<path fill="none" stroke="#63b8ff" d="M1561.33,-686.27C1553.28,-686.22 1545.14,-686.26 1537.24,-686.39"/>
<polygon fill="#63b8ff" stroke="#63b8ff" points="1561.07,-689.77 1571.11,-686.38 1561.15,-682.77 1561.07,-689.77"/>
</a>
</g>
</g>
<!-- Node6 -->
<g id="Node000006" class="node">
<title>Node6</title>
<g id="a_Node000006"><a xlink:href="class_properties_panel.html#a037586f897062f3915a123b9f2a82b91" target="_top" xlink:title=" ">
<polygon fill="white" stroke="#666666" points="1209.25,-504 1081.5,-504 1081.5,-472 1209.25,-472 1209.25,-504"/>
<text xml:space="preserve" text-anchor="start" x="1089.5" y="-490.5" font-family="Helvetica,sans-Serif" font-size="10.00">PropertiesPanel::populate</text>
<text xml:space="preserve" text-anchor="middle" x="1145.38" y="-478.5" font-family="Helvetica,sans-Serif" font-size="10.00">ForElement</text>
</a>
</g>
</g>
<!-- Node3&#45;&gt;Node6 -->
<g id="edge45_Node000003_Node000006" class="edge">
<title>Node3&#45;&gt;Node6</title>
<g id="a_edge45_Node000003_Node000006"><a xlink:title=" ">
<path fill="none" stroke="#63b8ff" d="M1585.95,-672.19C1488.42,-631.32 1273.69,-541.35 1185.43,-504.37"/>
<polygon fill="#63b8ff" stroke="#63b8ff" points="1584.44,-675.35 1595.02,-675.99 1587.15,-668.89 1584.44,-675.35"/>
</a>
</g>
</g>
<!-- Node4&#45;&gt;Node3 -->
<g id="edge4_Node000004_Node000003" class="edge">
<title>Node4&#45;&gt;Node3</title>
<g id="a_edge4_Node000004_Node000003"><a xlink:title=" ">
<path fill="none" stroke="#63b8ff" d="M1548.53,-699.73C1556.59,-699.78 1564.73,-699.73 1572.63,-699.6"/>
<polygon fill="#63b8ff" stroke="#63b8ff" points="1548.79,-696.23 1538.75,-699.62 1548.71,-703.23 1548.79,-696.23"/>
</a>
</g>
</g>
<!-- Node5 -->
<g id="Node000005" class="node">
<title>Node5</title>
<g id="a_Node000005"><a xlink:href="class_properties_panel.html#a6a4344308af5b2c993bc25981529239c" target="_top" xlink:title=" ">
<polygon fill="white" stroke="#666666" points="482.25,-677 354.5,-677 354.5,-645 482.25,-645 482.25,-677"/>
<text xml:space="preserve" text-anchor="start" x="362.5" y="-663.5" font-family="Helvetica,sans-Serif" font-size="10.00">PropertiesPanel::populate</text>
<text xml:space="preserve" text-anchor="middle" x="418.38" y="-651.5" font-family="Helvetica,sans-Serif" font-size="10.00">EntityProperties</text>
</a>
</g>
</g>
<!-- Node4&#45;&gt;Node5 -->
<g id="edge5_Node000004_Node000005" class="edge">
<title>Node4&#45;&gt;Node5</title>
<g id="a_edge5_Node000004_Node000005"><a xlink:title=" ">
<path fill="none" stroke="#63b8ff" d="M1397.52,-704.67C1389.27,-705.63 1380.97,-706.44 1373,-707 1089.22,-726.99 1017.09,-711.88 733,-697 639.89,-692.12 615.77,-699.38 523.5,-686 509.24,-683.93 494.07,-680.82 479.85,-677.5"/>
<polygon fill="#63b8ff" stroke="#63b8ff" points="1397.72,-708.17 1407.22,-703.48 1396.86,-701.23 1397.72,-708.17"/>
</a>
</g>
</g>
<!-- Node4&#45;&gt;Node10 -->
<g id="edge44_Node000004_Node000010" class="edge">
<title>Node4&#45;&gt;Node10</title>
<g id="a_edge44_Node000004_Node000010"><a xlink:title=" ">
<path fill="none" stroke="#63b8ff" d="M1426.51,-671.68C1400.74,-659.58 1368.98,-644.66 1345.15,-633.46"/>
<polygon fill="#63b8ff" stroke="#63b8ff" points="1424.87,-674.78 1435.41,-675.87 1427.85,-668.45 1424.87,-674.78"/>
</a>
</g>
</g>
<!-- Node5&#45;&gt;Node6 -->
<g id="edge6_Node000005_Node000006" class="edge">
<title>Node5&#45;&gt;Node6</title>
<g id="a_edge6_Node000005_Node000006"><a xlink:title=" ">
<path fill="none" stroke="#63b8ff" d="M444.94,-637.12C495.32,-591.9 612.98,-495.16 733,-460 854.77,-424.33 1005.13,-451.48 1086.11,-471.55"/>
<polygon fill="#63b8ff" stroke="#63b8ff" points="442.78,-634.35 437.73,-643.67 447.49,-639.54 442.78,-634.35"/>
</a>
</g>
</g>
<!-- Node7 -->
<g id="Node000007" class="node">
<title>Node7</title>
<g id="a_Node000007"><a xlink:href="class_properties_panel.html#a139ae0158b486c6004e15e0ddf36f319" target="_top" xlink:title=" ">
<polygon fill="white" stroke="#666666" points="1045.5,-351 924.5,-351 924.5,-331 1045.5,-331 1045.5,-351"/>
<text xml:space="preserve" text-anchor="middle" x="985" y="-337.5" font-family="Helvetica,sans-Serif" font-size="10.00">PropertiesPanel::refresh</text>
</a>
</g>
</g>
<!-- Node6&#45;&gt;Node7 -->
<g id="edge7_Node000006_Node000007" class="edge">
<title>Node6&#45;&gt;Node7</title>
<g id="a_edge7_Node000006_Node000007"><a xlink:title=" ">
<path fill="none" stroke="#63b8ff" d="M1118.48,-463.96C1083.3,-431.31 1021.94,-374.36 997,-351.21"/>
<polygon fill="#63b8ff" stroke="#63b8ff" points="1116,-466.44 1125.71,-470.68 1120.76,-461.31 1116,-466.44"/>
</a>
</g>
</g>
<!-- Node7&#45;&gt;Node1 -->
<g id="edge15_Node000007_Node000001" class="edge">
<title>Node7&#45;&gt;Node1</title>
<g id="a_edge15_Node000007_Node000001"><a xlink:title=" ">
<path fill="none" stroke="#63b8ff" d="M1057.1,-328.81C1122.21,-318.71 1221.36,-306 1308.12,-306 1637.62,-306 1637.62,-306 1637.62,-306 1746.78,-306 1871.11,-270.22 1936.75,-248.42"/>
<polygon fill="#63b8ff" stroke="#63b8ff" points="1056.58,-325.34 1047.25,-330.36 1057.67,-332.26 1056.58,-325.34"/>
</a>
</g>
</g>
<!-- Node8 -->
<g id="Node000008" class="node">
<title>Node8</title>
<g id="a_Node000008"><a xlink:href="class_properties_panel.html#a55ae5c02e7d75c7bdc26281a148e8c5a" target="_top" xlink:title=" ">
<polygon fill="white" stroke="#666666" points="888.5,-551 733,-551 733,-519 888.5,-519 888.5,-551"/>
<text xml:space="preserve" text-anchor="start" x="741" y="-537.5" font-family="Helvetica,sans-Serif" font-size="10.00">PropertiesPanel::onAddAttribute</text>
<text xml:space="preserve" text-anchor="middle" x="810.75" y="-525.5" font-family="Helvetica,sans-Serif" font-size="10.00">OnTreeClicked</text>
</a>
</g>
</g>
<!-- Node7&#45;&gt;Node8 -->
<g id="edge8_Node000007_Node000008" class="edge">
<title>Node7&#45;&gt;Node8</title>
<g id="a_edge8_Node000007_Node000008"><a xlink:title=" ">
<path fill="none" stroke="#63b8ff" d="M977.7,-362.07C965.99,-397.72 937.48,-469.93 888.5,-510 884.49,-513.28 880.03,-516.14 875.34,-518.62"/>
<polygon fill="#63b8ff" stroke="#63b8ff" points="980.92,-363.52 980.58,-352.93 974.24,-361.42 980.92,-363.52"/>
</a>
</g>
</g>
<!-- Node11 -->
<g id="Node000011" class="node">
<title>Node11</title>
<g id="a_Node000011"><a xlink:href="class_properties_panel.html#aec82450a3daeb2614c2321e37897f1dd" target="_top" xlink:title=" ">
<polygon fill="white" stroke="#666666" points="484.88,-311 351.88,-311 351.88,-279 484.88,-279 484.88,-311"/>
<text xml:space="preserve" text-anchor="start" x="359.88" y="-297.5" font-family="Helvetica,sans-Serif" font-size="10.00">PropertiesPanel::onCombo</text>
<text xml:space="preserve" text-anchor="middle" x="418.38" y="-285.5" font-family="Helvetica,sans-Serif" font-size="10.00">BoxChanged</text>
</a>
</g>
</g>
<!-- Node7&#45;&gt;Node11 -->
<g id="edge16_Node000007_Node000011" class="edge">
<title>Node7&#45;&gt;Node11</title>
<g id="a_edge16_Node000007_Node000011"><a xlink:title=" ">
<path fill="none" stroke="#63b8ff" d="M912.79,-335.2C802.51,-326.21 592.02,-309.07 485.15,-300.36"/>
<polygon fill="#63b8ff" stroke="#63b8ff" points="912.35,-338.67 922.6,-336 912.92,-331.7 912.35,-338.67"/>
</a>
</g>
</g>
<!-- Node15 -->
<g id="Node000015" class="node">
<title>Node15</title>
<g id="a_Node000015"><a xlink:href="class_properties_panel.html#aec8130201106284c02f21903b516554d" target="_top" xlink:title=" ">
<polygon fill="white" stroke="#666666" points="678.62,-380 541.88,-380 541.88,-348 678.62,-348 678.62,-380"/>
<text xml:space="preserve" text-anchor="start" x="549.88" y="-366.5" font-family="Helvetica,sans-Serif" font-size="10.00">PropertiesPanel::onLineEdit</text>
<text xml:space="preserve" text-anchor="middle" x="610.25" y="-354.5" font-family="Helvetica,sans-Serif" font-size="10.00">Changed</text>
</a>
</g>
</g>
<!-- Node7&#45;&gt;Node15 -->
<g id="edge23_Node000007_Node000015" class="edge">
<title>Node7&#45;&gt;Node15</title>
<g id="a_edge23_Node000007_Node000015"><a xlink:title=" ">
<path fill="none" stroke="#63b8ff" d="M912.76,-345.4C845.4,-349.55 745.03,-355.75 678.88,-359.83"/>
<polygon fill="#63b8ff" stroke="#63b8ff" points="912.84,-348.9 922.6,-344.79 912.4,-341.91 912.84,-348.9"/>
</a>
</g>
</g>
<!-- Node17 -->
<g id="Node000017" class="node">
<title>Node17</title>
<g id="a_Node000017"><a xlink:href="class_properties_panel.html#a3cdc065abcd2f9e59558903073c0f23f" target="_top" xlink:title=" ">
<polygon fill="white" stroke="#666666" points="487.5,-112 349.25,-112 349.25,-80 487.5,-80 487.5,-112"/>
<text xml:space="preserve" text-anchor="start" x="357.25" y="-98.5" font-family="Helvetica,sans-Serif" font-size="10.00">PropertiesPanel::onProperty</text>
<text xml:space="preserve" text-anchor="middle" x="418.38" y="-86.5" font-family="Helvetica,sans-Serif" font-size="10.00">ValueChanged</text>
</a>
</g>
</g>
<!-- Node7&#45;&gt;Node17 -->
<g id="edge26_Node000007_Node000017" class="edge">
<title>Node7&#45;&gt;Node17</title>
<g id="a_edge26_Node000007_Node000017"><a xlink:title=" ">
<path fill="none" stroke="#63b8ff" d="M975.68,-320.61C960.65,-290.79 926.95,-235.85 888.5,-198 814.83,-125.48 795.7,-96.72 697,-66 612.77,-39.78 507.54,-61.62 454.06,-79.58"/>
<polygon fill="#63b8ff" stroke="#63b8ff" points="972.38,-321.84 979.84,-329.36 978.7,-318.83 972.38,-321.84"/>
</a>
</g>
</g>
<!-- Node19 -->
<g id="Node000019" class="node">
<title>Node19</title>
<g id="a_Node000019"><a xlink:href="class_properties_panel.html#a8a2ec0bcba44f3bbd0245d3a53ff49f7" target="_top" xlink:title=" ">
<polygon fill="white" stroke="#666666" points="879.88,-501 741.62,-501 741.62,-469 879.88,-469 879.88,-501"/>
<text xml:space="preserve" text-anchor="start" x="749.62" y="-487.5" font-family="Helvetica,sans-Serif" font-size="10.00">PropertiesPanel::onRemove</text>
<text xml:space="preserve" text-anchor="middle" x="810.75" y="-475.5" font-family="Helvetica,sans-Serif" font-size="10.00">AttributeOnTreeClicked</text>
</a>
</g>
</g>
<!-- Node7&#45;&gt;Node19 -->
<g id="edge29_Node000007_Node000019" class="edge">
<title>Node7&#45;&gt;Node19</title>
<g id="a_edge29_Node000007_Node000019"><a xlink:title=" ">
<path fill="none" stroke="#63b8ff" d="M963.05,-358.52C929.5,-386.56 864.19,-441.16 831.45,-468.53"/>
<polygon fill="#63b8ff" stroke="#63b8ff" points="965.02,-361.43 970.45,-352.33 960.53,-356.06 965.02,-361.43"/>
</a>
</g>
</g>
<!-- Node20 -->
<g id="Node000020" class="node">
<title>Node20</title>
<g id="a_Node000020"><a xlink:href="class_properties_panel.html#a79618c5c820a40931c085d54be70bd34" target="_top" xlink:title=" ">
<polygon fill="white" stroke="#666666" points="873.5,-248 748,-248 748,-216 873.5,-216 873.5,-248"/>
<text xml:space="preserve" text-anchor="start" x="756" y="-234.5" font-family="Helvetica,sans-Serif" font-size="10.00">PropertiesPanel::updates</text>
<text xml:space="preserve" text-anchor="middle" x="810.75" y="-222.5" font-family="Helvetica,sans-Serif" font-size="10.00">AfterChangingProperty</text>
</a>
</g>
</g>
<!-- Node7&#45;&gt;Node20 -->
<g id="edge31_Node000007_Node000020" class="edge">
<title>Node7&#45;&gt;Node20</title>
<g id="a_edge31_Node000007_Node000020"><a xlink:title=" ">
<path fill="none" stroke="#63b8ff" d="M957.77,-324.4C925.22,-303.8 870.06,-268.9 837.66,-248.4"/>
<polygon fill="#63b8ff" stroke="#63b8ff" points="955.88,-327.35 966.2,-329.74 959.63,-321.43 955.88,-327.35"/>
</a>
</g>
</g>
<!-- Node9 -->
<g id="Node000009" class="node">
<title>Node9</title>
<g id="a_Node000009"><a xlink:href="class_properties_panel.html#a90cca2a241daa84841ee3e90d7768c8f" target="_top" xlink:title=" ">
<polygon fill="white" stroke="#666666" points="683.5,-677 537,-677 537,-645 683.5,-645 683.5,-677"/>
<text xml:space="preserve" text-anchor="start" x="545" y="-663.5" font-family="Helvetica,sans-Serif" font-size="10.00">PropertiesPanel::createButton</text>
<text xml:space="preserve" text-anchor="middle" x="610.25" y="-651.5" font-family="Helvetica,sans-Serif" font-size="10.00">PropertyItem</text>
</a>
</g>
</g>
<!-- Node8&#45;&gt;Node9 -->
<g id="edge9_Node000008_Node000009" class="edge">
<title>Node8&#45;&gt;Node9</title>
<g id="a_edge9_Node000008_Node000009"><a xlink:title=" ">
<path fill="none" stroke="#63b8ff" d="M774.32,-557.49C734.94,-582.49 672.28,-622.26 637.21,-644.52"/>
<polygon fill="#63b8ff" stroke="#63b8ff" points="775.95,-560.6 782.52,-552.28 772.2,-554.69 775.95,-560.6"/>
</a>
</g>
</g>
<!-- Node9&#45;&gt;Node3 -->
<g id="edge11_Node000009_Node000003" class="edge">
<title>Node9&#45;&gt;Node3</title>
<g id="a_edge11_Node000009_Node000003"><a xlink:title=" ">
<path fill="none" stroke="#63b8ff" d="M669.89,-680.89C767.23,-712.09 968.88,-769 1144.38,-769 1310.12,-769 1310.12,-769 1310.12,-769 1414,-769 1531.75,-731.84 1593.19,-709.49"/>
<polygon fill="#63b8ff" stroke="#63b8ff" points="671.14,-677.62 660.55,-677.87 668.98,-684.28 671.14,-677.62"/>
</a>
</g>
</g>
<!-- Node9&#45;&gt;Node4 -->
<g id="edge10_Node000009_Node000004" class="edge">
<title>Node9&#45;&gt;Node4</title>
<g id="a_edge10_Node000009_Node000004"><a xlink:title=" ">
<path fill="none" stroke="#63b8ff" d="M695.25,-672.35C770.68,-681.55 884.53,-693 984,-693 1146.38,-693 1146.38,-693 1146.38,-693 1237.5,-693 1342.97,-693 1408.56,-693"/>
<polygon fill="#63b8ff" stroke="#63b8ff" points="695.8,-668.89 685.45,-671.14 694.94,-675.84 695.8,-668.89"/>
</a>
</g>
</g>
<!-- Node9&#45;&gt;Node5 -->
<g id="edge12_Node000009_Node000005" class="edge">
<title>Node9&#45;&gt;Node5</title>
<g id="a_edge12_Node000009_Node000005"><a xlink:title=" ">
<path fill="none" stroke="#63b8ff" d="M525.27,-661C510.95,-661 496.29,-661 482.63,-661"/>
<polygon fill="#63b8ff" stroke="#63b8ff" points="525.14,-664.5 535.14,-661 525.14,-657.5 525.14,-664.5"/>
</a>
</g>
</g>
<!-- Node9&#45;&gt;Node10 -->
<g id="edge13_Node000009_Node000010" class="edge">
<title>Node9&#45;&gt;Node10</title>
<g id="a_edge13_Node000009_Node000010"><a xlink:title=" ">
<path fill="none" stroke="#63b8ff" d="M694.89,-659.19C810.68,-656.15 1026.24,-648.51 1209.25,-631 1220.81,-629.89 1233.1,-628.41 1244.93,-626.82"/>
<polygon fill="#63b8ff" stroke="#63b8ff" points="695.08,-655.69 685.18,-659.44 695.26,-662.68 695.08,-655.69"/>
</a>
</g>
</g>
<!-- Node10&#45;&gt;Node6 -->
<g id="edge14_Node000010_Node000006" class="edge">
<title>Node10&#45;&gt;Node6</title>
<g id="a_edge14_Node000010_Node000006"><a xlink:title=" ">
<path fill="none" stroke="#63b8ff" d="M1277.73,-593.49C1267.39,-585.45 1255.79,-576.37 1245.25,-568 1217.76,-546.17 1186.27,-520.59 1166.36,-504.35"/>
<polygon fill="#63b8ff" stroke="#63b8ff" points="1275.56,-596.24 1285.61,-599.61 1279.86,-590.71 1275.56,-596.24"/>
</a>
</g>
</g>
<!-- Node12 -->
<g id="Node000012" class="node">
<title>Node12</title>
<g id="a_Node000012"><a xlink:href="class_properties_panel.html#a8fd53ec3c9f711c3354483e8bb4d0b47" target="_top" xlink:title=" ">
<polygon fill="white" stroke="#666666" points="313.25,-633 163.75,-633 163.75,-601 313.25,-601 313.25,-633"/>
<text xml:space="preserve" text-anchor="start" x="171.75" y="-619.5" font-family="Helvetica,sans-Serif" font-size="10.00">PropertiesPanel::createCombo</text>
<text xml:space="preserve" text-anchor="middle" x="238.5" y="-607.5" font-family="Helvetica,sans-Serif" font-size="10.00">BoxPropertyItem</text>
</a>
</g>
</g>
<!-- Node11&#45;&gt;Node12 -->
<g id="edge17_Node000011_Node000012" class="edge">
<title>Node11&#45;&gt;Node12</title>
<g id="a_edge17_Node000011_Node000012"><a xlink:title=" ">
<path fill="none" stroke="#63b8ff" d="M373.63,-317.48C364.71,-323.55 356,-330.76 349.25,-339 280.5,-422.87 250.85,-555.09 242.29,-600.81"/>
<polygon fill="#63b8ff" stroke="#63b8ff" points="375.46,-320.47 382.03,-312.16 371.71,-314.55 375.46,-320.47"/>
</a>
</g>
</g>
<!-- Node13 -->
<g id="Node000013" class="node">
<title>Node13</title>
<g id="a_Node000013"><a xlink:href="class_properties_panel.html#a32c2dab00c58ffdcb6a1e3cd829d03c8" target="_top" xlink:title=" ">
<polygon fill="white" stroke="#666666" points="306.88,-346 170.12,-346 170.12,-314 306.88,-314 306.88,-346"/>
<text xml:space="preserve" text-anchor="start" x="178.12" y="-332.5" font-family="Helvetica,sans-Serif" font-size="10.00">PropertiesPanel::createIcon</text>
<text xml:space="preserve" text-anchor="middle" x="238.5" y="-320.5" font-family="Helvetica,sans-Serif" font-size="10.00">ComboBoxPropertyItem</text>
</a>
</g>
</g>
<!-- Node11&#45;&gt;Node13 -->
<g id="edge20_Node000011_Node000013" class="edge">
<title>Node11&#45;&gt;Node13</title>
<g id="a_edge20_Node000011_Node000013"><a xlink:title=" ">
<path fill="none" stroke="#63b8ff" d="M340.43,-310.14C329.36,-312.32 318.03,-314.55 307.16,-316.69"/>
<polygon fill="#63b8ff" stroke="#63b8ff" points="340.77,-313.64 349.91,-308.28 339.42,-306.77 340.77,-313.64"/>
</a>
</g>
</g>
<!-- Node12&#45;&gt;Node3 -->
<g id="edge18_Node000012_Node000003" class="edge">
<title>Node12&#45;&gt;Node3</title>
<g id="a_edge18_Node000012_Node000003"><a xlink:title=" ">
<path fill="none" stroke="#63b8ff" d="M264.68,-640.81C321.38,-691.8 465.39,-807 609.25,-807 1310.12,-807 1310.12,-807 1310.12,-807 1413.17,-807 1441.72,-797.87 1536.75,-758 1566.3,-745.6 1596.55,-724.18 1615.68,-709.33"/>
<polygon fill="#63b8ff" stroke="#63b8ff" points="267.21,-638.37 257.46,-634.22 262.49,-643.54 267.21,-638.37"/>
</a>
</g>
</g>
<!-- Node12&#45;&gt;Node10 -->
<g id="edge19_Node000012_Node000010" class="edge">
<title>Node12&#45;&gt;Node10</title>
<g id="a_edge19_Node000012_Node000010"><a xlink:title=" ">
<path fill="none" stroke="#63b8ff" d="M324.75,-617C399.69,-617 511.71,-617 609.25,-617 986,-617 986,-617 986,-617 1075.9,-617 1179.91,-617 1244.86,-617"/>
<polygon fill="#63b8ff" stroke="#63b8ff" points="325.02,-613.5 315.02,-617 325.02,-620.5 325.02,-613.5"/>
</a>
</g>
</g>
<!-- Node14 -->
<g id="Node000014" class="node">
<title>Node14</title>
<g id="a_Node000014"><a xlink:href="class_properties_panel.html#adbc7f8deb3a687706dc44ebbd7e39d9d" target="_top" xlink:title=" ">
<polygon fill="white" stroke="#666666" points="127.75,-385 0,-385 0,-353 127.75,-353 127.75,-385"/>
<text xml:space="preserve" text-anchor="start" x="8" y="-371.5" font-family="Helvetica,sans-Serif" font-size="10.00">PropertiesPanel::populate</text>
<text xml:space="preserve" text-anchor="middle" x="63.88" y="-359.5" font-family="Helvetica,sans-Serif" font-size="10.00">ForConnection</text>
</a>
</g>
</g>
<!-- Node13&#45;&gt;Node14 -->
<g id="edge21_Node000013_Node000014" class="edge">
<title>Node13&#45;&gt;Node14</title>
<g id="a_edge21_Node000013_Node000014"><a xlink:title=" ">
<path fill="none" stroke="#63b8ff" d="M158.74,-347.79C148.51,-350.11 138.13,-352.45 128.18,-354.7"/>
<polygon fill="#63b8ff" stroke="#63b8ff" points="159.31,-351.25 168.29,-345.64 157.77,-344.43 159.31,-351.25"/>
</a>
</g>
</g>
<!-- Node14&#45;&gt;Node7 -->
<g id="edge22_Node000014_Node000007" class="edge">
<title>Node14&#45;&gt;Node7</title>
<g id="a_edge22_Node000014_Node000007"><a xlink:title=" ">
<path fill="none" stroke="#63b8ff" d="M139.6,-375.78C257.95,-385.52 495.73,-401.04 697,-389 782.57,-383.88 804.28,-382 888.5,-366 908.7,-362.16 930.95,-356.43 948.89,-351.42"/>
<polygon fill="#63b8ff" stroke="#63b8ff" points="139.95,-372.29 129.69,-374.95 139.37,-379.27 139.95,-372.29"/>
</a>
</g>
</g>
<!-- Node16 -->
<g id="Node000016" class="node">
<title>Node16</title>
<g id="a_Node000016"><a xlink:href="class_properties_panel.html#a7bc224323f9c626842fdb6a89205c9bc" target="_top" xlink:title=" ">
<polygon fill="white" stroke="#666666" points="486.38,-380 350.38,-380 350.38,-348 486.38,-348 486.38,-380"/>
<text xml:space="preserve" text-anchor="start" x="358.38" y="-366.5" font-family="Helvetica,sans-Serif" font-size="10.00">PropertiesPanel::createLine</text>
<text xml:space="preserve" text-anchor="middle" x="418.38" y="-354.5" font-family="Helvetica,sans-Serif" font-size="10.00">EditPropertyItem</text>
</a>
</g>
</g>
<!-- Node15&#45;&gt;Node16 -->
<g id="edge24_Node000015_Node000016" class="edge">
<title>Node15&#45;&gt;Node16</title>
<g id="a_edge24_Node000015_Node000016"><a xlink:title=" ">
<path fill="none" stroke="#63b8ff" d="M530.09,-364C515.69,-364 500.79,-364 486.77,-364"/>
<polygon fill="#63b8ff" stroke="#63b8ff" points="529.99,-367.5 539.99,-364 529.99,-360.5 529.99,-367.5"/>
</a>
</g>
</g>
<!-- Node16&#45;&gt;Node10 -->
<g id="edge25_Node000016_Node000010" class="edge">
<title>Node16&#45;&gt;Node10</title>
<g id="a_edge25_Node000016_Node000010"><a xlink:title=" ">
<path fill="none" stroke="#63b8ff" d="M442.78,-388.16C499.85,-444.34 652.99,-579 809.75,-579 986,-579 986,-579 986,-579 1076.38,-579 1180.05,-593.94 1244.82,-605.08"/>
<polygon fill="#63b8ff" stroke="#63b8ff" points="445.39,-385.82 435.84,-381.23 440.44,-390.77 445.39,-385.82"/>
</a>
</g>
</g>
<!-- Node17&#45;&gt;Node7 -->
<g id="edge28_Node000017_Node000007" class="edge">
<title>Node17&#45;&gt;Node7</title>
<g id="a_edge28_Node000017_Node000007"><a xlink:title=" ">
<path fill="none" stroke="#63b8ff" d="M498.74,-82.15C555.24,-72.07 632.31,-63.87 697,-84 795.7,-114.72 814.83,-143.48 888.5,-216 926.57,-253.48 959.98,-307.7 975.22,-330.7"/>
<polygon fill="#63b8ff" stroke="#63b8ff" points="498.41,-78.65 489.21,-83.9 499.68,-85.53 498.41,-78.65"/>
</a>
</g>
</g>
<!-- Node18 -->
<g id="Node000018" class="node">
<title>Node18</title>
<g id="a_Node000018"><a xlink:href="class_properties_panel.html#a9866823e02faefceaae94fc0b0537707" target="_top" xlink:title=" ">
<polygon fill="white" stroke="#666666" points="306.12,-112 170.88,-112 170.88,-80 306.12,-80 306.12,-112"/>
<text xml:space="preserve" text-anchor="start" x="178.88" y="-98.5" font-family="Helvetica,sans-Serif" font-size="10.00">PropertiesPanel::Properties</text>
<text xml:space="preserve" text-anchor="middle" x="238.5" y="-86.5" font-family="Helvetica,sans-Serif" font-size="10.00">Panel</text>
</a>
</g>
</g>
<!-- Node17&#45;&gt;Node18 -->
<g id="edge27_Node000017_Node000018" class="edge">
<title>Node17&#45;&gt;Node18</title>
<g id="a_edge27_Node000017_Node000018"><a xlink:title=" ">
<path fill="none" stroke="#63b8ff" d="M337.66,-96C327.26,-96 316.68,-96 306.52,-96"/>
<polygon fill="#63b8ff" stroke="#63b8ff" points="337.34,-99.5 347.34,-96 337.34,-92.5 337.34,-99.5"/>
</a>
</g>
</g>
<!-- Node19&#45;&gt;Node9 -->
<g id="edge30_Node000019_Node000009" class="edge">
<title>Node19&#45;&gt;Node9</title>
<g id="a_edge30_Node000019_Node000009"><a xlink:title=" ">
<path fill="none" stroke="#63b8ff" d="M738.5,-506.5C736.61,-507.61 734.77,-508.78 733,-510 679.49,-546.89 637.46,-613.98 620.02,-644.77"/>
<polygon fill="#63b8ff" stroke="#63b8ff" points="739.7,-509.82 746.94,-502.08 736.46,-503.62 739.7,-509.82"/>
</a>
</g>
</g>
<!-- Node20&#45;&gt;Node1 -->
<g id="edge40_Node000020_Node000001" class="edge">
<title>Node20&#45;&gt;Node1</title>
<g id="a_edge40_Node000020_Node000001"><a xlink:title=" ">
<path fill="none" stroke="#63b8ff" d="M885.31,-232C952.71,-232 1055.26,-232 1144.38,-232 1637.62,-232 1637.62,-232 1637.62,-232 1735.66,-232 1849.35,-232 1918.71,-232"/>
<polygon fill="#63b8ff" stroke="#63b8ff" points="885.49,-228.5 875.49,-232 885.49,-235.5 885.49,-228.5"/>
</a>
</g>
</g>
<!-- Node20&#45;&gt;Node11 -->
<g id="edge41_Node000020_Node000011" class="edge">
<title>Node20&#45;&gt;Node11</title>
<g id="a_edge41_Node000020_Node000011"><a xlink:title=" ">
<path fill="none" stroke="#63b8ff" d="M736.39,-230.21C677.96,-230.36 594.49,-234.15 523.5,-251 497.91,-257.07 470.58,-268.84 450.35,-278.68"/>
<polygon fill="#63b8ff" stroke="#63b8ff" points="736.21,-233.71 746.21,-230.22 736.22,-226.71 736.21,-233.71"/>
</a>
</g>
</g>
<!-- Node20&#45;&gt;Node15 -->
<g id="edge42_Node000020_Node000015" class="edge">
<title>Node20&#45;&gt;Node15</title>
<g id="a_edge42_Node000020_Node000015"><a xlink:title=" ">
<path fill="none" stroke="#63b8ff" d="M775.47,-254.79C735.71,-281.23 671.15,-324.17 635.99,-347.55"/>
<polygon fill="#63b8ff" stroke="#63b8ff" points="777.36,-257.74 783.75,-249.29 773.49,-251.91 777.36,-257.74"/>
</a>
</g>
</g>
<!-- Node20&#45;&gt;Node17 -->
<g id="edge43_Node000020_Node000017" class="edge">
<title>Node20&#45;&gt;Node17</title>
<g id="a_edge43_Node000020_Node000017"><a xlink:title=" ">
<path fill="none" stroke="#63b8ff" d="M778.64,-209.03C756.8,-193.91 726.36,-174.81 697,-163 623.76,-133.54 600.11,-144.04 523.5,-125 508.11,-121.18 491.54,-116.72 476.24,-112.46"/>
<polygon fill="#63b8ff" stroke="#63b8ff" points="776.61,-211.88 786.8,-214.78 780.64,-206.16 776.61,-211.88"/>
</a>
</g>
</g>
<!-- Node21 -->
<g id="Node000021" class="node">
<title>Node21</title>
<g id="a_Node000021"><a xlink:href="class_properties_panel.html#a74d22cd1ca119cda9cc4ca00b853e88d" target="_top" xlink:title=" ">
<polygon fill="white" stroke="#666666" points="688.38,-204 532.12,-204 532.12,-172 688.38,-172 688.38,-204"/>
<text xml:space="preserve" text-anchor="start" x="540.12" y="-190.5" font-family="Helvetica,sans-Serif" font-size="10.00">PropertiesPanel::handleAttribute</text>
<text xml:space="preserve" text-anchor="middle" x="610.25" y="-178.5" font-family="Helvetica,sans-Serif" font-size="10.00">PropertyChange</text>
</a>
</g>
</g>
<!-- Node20&#45;&gt;Node21 -->
<g id="edge32_Node000020_Node000021" class="edge">
<title>Node20&#45;&gt;Node21</title>
<g id="a_edge32_Node000020_Node000021"><a xlink:title=" ">
<path fill="none" stroke="#63b8ff" d="M736.95,-215.86C720.24,-212.16 702.44,-208.21 685.65,-204.49"/>
<polygon fill="#63b8ff" stroke="#63b8ff" points="735.76,-219.18 746.28,-217.93 737.28,-212.35 735.76,-219.18"/>
</a>
</g>
</g>
<!-- Node22 -->
<g id="Node000022" class="node">
<title>Node22</title>
<g id="a_Node000022"><a xlink:href="class_properties_panel.html#aa82a2245c62f66554f277c64e643252c" target="_top" xlink:title=" ">
<polygon fill="white" stroke="#666666" points="697,-292 523.5,-292 523.5,-260 697,-260 697,-292"/>
<text xml:space="preserve" text-anchor="start" x="531.5" y="-278.5" font-family="Helvetica,sans-Serif" font-size="10.00">PropertiesPanel::handleRelationship</text>
<text xml:space="preserve" text-anchor="middle" x="610.25" y="-266.5" font-family="Helvetica,sans-Serif" font-size="10.00">EndCardinalityChange</text>
</a>
</g>
</g>
<!-- Node20&#45;&gt;Node22 -->
<g id="edge36_Node000020_Node000022" class="edge">
<title>Node20&#45;&gt;Node22</title>
<g id="a_edge36_Node000020_Node000022"><a xlink:title=" ">
<path fill="none" stroke="#63b8ff" d="M736.95,-248.14C720.24,-251.84 702.44,-255.79 685.65,-259.51"/>
<polygon fill="#63b8ff" stroke="#63b8ff" points="737.28,-251.65 746.28,-246.07 735.76,-244.82 737.28,-251.65"/>
</a>
</g>
</g>
<!-- Node23 -->
<g id="Node000023" class="node">
<title>Node23</title>
<g id="a_Node000023"><a xlink:href="class_properties_panel.html#ac2741a5b2cb859b07534b8f7c786359b" target="_top" xlink:title=" ">
<polygon fill="white" stroke="#666666" points="697,-116 523.5,-116 523.5,-84 697,-84 697,-116"/>
<text xml:space="preserve" text-anchor="start" x="531.5" y="-102.5" font-family="Helvetica,sans-Serif" font-size="10.00">PropertiesPanel::handleRelationship</text>
<text xml:space="preserve" text-anchor="middle" x="610.25" y="-90.5" font-family="Helvetica,sans-Serif" font-size="10.00">EndParticipationChange</text>
</a>
</g>
</g>
<!-- Node20&#45;&gt;Node23 -->
<g id="edge38_Node000020_Node000023" class="edge">
<title>Node20&#45;&gt;Node23</title>
<g id="a_edge38_Node000020_Node000023"><a xlink:title=" ">
<path fill="none" stroke="#63b8ff" d="M787.89,-207.21C766.64,-184.41 732.46,-151.06 697,-130 688.19,-124.76 678.32,-120.25 668.5,-116.44"/>
<polygon fill="#63b8ff" stroke="#63b8ff" points="785.28,-209.54 794.62,-214.55 790.45,-204.82 785.28,-209.54"/>
</a>
</g>
</g>
<!-- Node21&#45;&gt;Node1 -->
<g id="edge33_Node000021_Node000001" class="edge">
<title>Node21&#45;&gt;Node1</title>
<g id="a_edge33_Node000021_Node000001"><a xlink:title=" ">
<path fill="none" stroke="#63b8ff" d="M700.05,-188C775.57,-188 886.9,-188 984,-188 1637.62,-188 1637.62,-188 1637.62,-188 1736.3,-188 1849.58,-205.89 1918.7,-218.86"/>
<polygon fill="#63b8ff" stroke="#63b8ff" points="700.22,-184.5 690.22,-188 700.22,-191.5 700.22,-184.5"/>
</a>
</g>
</g>
<!-- Node21&#45;&gt;Node11 -->
<g id="edge34_Node000021_Node000011" class="edge">
<title>Node21&#45;&gt;Node11</title>
<g id="a_edge34_Node000021_Node000011"><a xlink:title=" ">
<path fill="none" stroke="#63b8ff" d="M543.92,-208.53C536.9,-211.42 529.96,-214.58 523.5,-218 491.11,-235.14 457.75,-261.67 437.79,-278.68"/>
<polygon fill="#63b8ff" stroke="#63b8ff" points="544.78,-211.95 552.82,-205.04 542.23,-205.43 544.78,-211.95"/>
</a>
</g>
</g>
<!-- Node21&#45;&gt;Node17 -->
<g id="edge35_Node000021_Node000017" class="edge">
<title>Node21&#45;&gt;Node17</title>
<g id="a_edge35_Node000021_Node000017"><a xlink:title=" ">
<path fill="none" stroke="#63b8ff" d="M546.32,-167.62C538.54,-164.62 530.77,-161.39 523.5,-158 495.09,-144.74 464.48,-125.91 443.85,-112.49"/>
<polygon fill="#63b8ff" stroke="#63b8ff" points="544.88,-170.82 555.47,-171.03 547.32,-164.26 544.88,-170.82"/>
</a>
</g>
</g>
<!-- Node22&#45;&gt;Node11 -->
<g id="edge37_Node000022_Node000011" class="edge">
<title>Node22&#45;&gt;Node11</title>
<g id="a_edge37_Node000022_Node000011"><a xlink:title=" ">
<path fill="none" stroke="#63b8ff" d="M511.81,-285.75C502.81,-286.65 493.84,-287.55 485.22,-288.41"/>
<polygon fill="#63b8ff" stroke="#63b8ff" points="512.09,-289.24 521.7,-284.76 511.4,-282.27 512.09,-289.24"/>
</a>
</g>
</g>
<!-- Node23&#45;&gt;Node1 -->
<g id="edge39_Node000023_Node000001" class="edge">
<title>Node23&#45;&gt;Node1</title>
<g id="a_edge39_Node000023_Node000001"><a xlink:title=" ">
<path fill="none" stroke="#63b8ff" d="M657.73,-79.08C727.22,-49.76 863,0 984,0 1637.62,0 1637.62,0 1637.62,0 1792.56,0 1930.33,-162.88 1970.93,-215.69"/>
<polygon fill="#63b8ff" stroke="#63b8ff" points="656.37,-75.86 648.55,-83 659.12,-82.29 656.37,-75.86"/>
</a>
</g>
</g>
</g>
</svg>
