<?xml version="1.0" encoding="UTF-8" standalone="no"?>
<!DOCTYPE svg PUBLIC "-//W3C//DTD SVG 1.1//EN"
 "http://www.w3.org/Graphics/SVG/1.1/DTD/svg11.dtd">
<!-- Generated by graphviz version 14.1.1 (20251213.1925)
 -->
<!-- Title: MainWindow::populateAttributeProperties Pages: 1 -->
<svg width="1954pt" height="960pt"
 viewBox="0.00 0.00 1954.00 960.00" xmlns="http://www.w3.org/2000/svg" xmlns:xlink="http://www.w3.org/1999/xlink">
<g id="graph0" class="graph" transform="scale(1 1) rotate(0) translate(4 956)">
<title>MainWindow::populateAttributeProperties</title>
<!-- Node1 -->
<g id="Node000001" class="node">
<title>Node1</title>
<g id="a_Node000001"><a xlink:title=" ">
<polygon fill="#999999" stroke="#666666" points="1945.75,-228 1794,-228 1794,-196 1945.75,-196 1945.75,-228"/>
<text xml:space="preserve" text-anchor="start" x="1802" y="-214.5" font-family="Helvetica,sans-Serif" font-size="10.00">MainWindow::populateAttribute</text>
<text xml:space="preserve" text-anchor="middle" x="1869.88" y="-202.5" font-family="Helvetica,sans-Serif" font-size="10.00">Properties</text>
</a>
</g>
</g>
<!-- Node2 -->
<g id="Node000002" class="node">
<title>Node2</title>
<g id="a_Node000002"><a xlink:href="class_main_window.html#a697154cf7839e00c607134c2a4e018cf" target="_top" xlink:title=" ">
<polygon fill="white" stroke="#666666" points="1758,-200 1590.5,-200 1590.5,-180 1758,-180 1758,-200"/>
<text xml:space="preserve" text-anchor="middle" x="1674.25" y="-186.5" font-family="Helvetica,sans-Serif" font-size="10.00">MainWindow::populateAttributeList</text>
</a>
</g>
</g>
<!-- Node1&#45;&gt;Node2 -->
<g id="edge1_Node000001_Node000002" class="edge">
<title>Node1&#45;&gt;Node2</title>
<g id="a_edge1_Node000001_Node000002"><a xlink:title=" ">
<path fill="none" stroke="#63b8ff" d="M1782.49,-195.47C1774.48,-194.51 1766.36,-193.59 1758.38,-192.76"/>
<polygon fill="#63b8ff" stroke="#63b8ff" points="1781.88,-198.92 1792.24,-196.68 1782.74,-191.97 1781.88,-198.92"/>
</a>
</g>
</g>
<!-- Node4 -->
<g id="Node000004" class="node">
<title>Node4</title>
<g id="a_Node000004"><a xlink:href="class_main_window.html#add7e6ae12287854ff779bd4b5649dd98" target="_top" xlink:title=" ">
<polygon fill="white" stroke="#666666" points="1349.5,-250 1190.25,-250 1190.25,-218 1349.5,-218 1349.5,-250"/>
<text xml:space="preserve" text-anchor="start" x="1198.25" y="-236.5" font-family="Helvetica,sans-Serif" font-size="10.00">MainWindow::populateProperties</text>
<text xml:space="preserve" text-anchor="middle" x="1269.88" y="-224.5" font-family="Helvetica,sans-Serif" font-size="10.00">ForElement</text>
</a>
</g>
</g>
<!-- Node1&#45;&gt;Node4 -->
<g id="edge49_Node000001_Node000004" class="edge">
<title>Node1&#45;&gt;Node4</title>
<g id="a_edge49_Node000001_Node000004"><a xlink:title=" ">
<path fill="none" stroke="#63b8ff" d="M1782.46,-215.18C1666.47,-219.45 1462.09,-226.97 1349.97,-231.09"/>
<polygon fill="#63b8ff" stroke="#63b8ff" points="1782.37,-218.69 1792.23,-214.82 1782.11,-211.69 1782.37,-218.69"/>
</a>
</g>
</g>
<!-- Node2&#45;&gt;Node1 -->
<g id="edge2_Node000002_Node000001" class="edge">
<title>Node2&#45;&gt;Node1</title>
<g id="a_edge2_Node000002_Node000001"><a xlink:title=" ">
<path fill="none" stroke="#63b8ff" d="M1728.48,-202.15C1748.63,-205.08 1771.95,-207.9 1793.74,-210.06"/>
<polygon fill="#63b8ff" stroke="#63b8ff" points="1729.24,-198.73 1718.83,-200.69 1728.2,-205.65 1729.24,-198.73"/>
</a>
</g>
</g>
<!-- Node3 -->
<g id="Node000003" class="node">
<title>Node3</title>
<g id="a_Node000003"><a xlink:href="class_main_window.html#a40023e3590f2593fd133a6b111f63ed9" target="_top" xlink:title=" ">
<polygon fill="white" stroke="#666666" points="545.25,-168 404.75,-168 404.75,-136 545.25,-136 545.25,-168"/>
<text xml:space="preserve" text-anchor="start" x="412.75" y="-154.5" font-family="Helvetica,sans-Serif" font-size="10.00">MainWindow::populateEntity</text>
<text xml:space="preserve" text-anchor="middle" x="475" y="-142.5" font-family="Helvetica,sans-Serif" font-size="10.00">Properties</text>
</a>
</g>
</g>
<!-- Node2&#45;&gt;Node3 -->
<g id="edge3_Node000002_Node000003" class="edge">
<title>Node2&#45;&gt;Node3</title>
<g id="a_edge3_Node000002_Node000003"><a xlink:title=" ">
<path fill="none" stroke="#63b8ff" d="M1650.68,-172.83C1627.74,-156.29 1590.54,-131.94 1554.5,-119 1434.5,-75.92 1398.37,-76 1270.88,-76 1270.88,-76 1270.88,-76 881.38,-76 753.2,-76 606.08,-113.16 529.17,-135.51"/>
<polygon fill="#63b8ff" stroke="#63b8ff" points="1648.53,-175.59 1658.66,-178.7 1652.68,-169.95 1648.53,-175.59"/>
</a>
</g>
</g>
<!-- Node8 -->
<g id="Node000008" class="node">
<title>Node8</title>
<g id="a_Node000008"><a xlink:href="class_main_window.html#a1049a5796ac248f40a3b4110ed5faf77" target="_top" xlink:title=" ">
<polygon fill="white" stroke="#666666" points="1554.5,-206 1385.5,-206 1385.5,-174 1554.5,-174 1554.5,-206"/>
<text xml:space="preserve" text-anchor="start" x="1393.5" y="-192.5" font-family="Helvetica,sans-Serif" font-size="10.00">MainWindow::populateRelationship</text>
<text xml:space="preserve" text-anchor="middle" x="1470" y="-180.5" font-family="Helvetica,sans-Serif" font-size="10.00">Properties</text>
</a>
</g>
</g>
<!-- Node2&#45;&gt;Node8 -->
<g id="edge48_Node000002_Node000008" class="edge">
<title>Node2&#45;&gt;Node8</title>
<g id="a_edge48_Node000002_Node000008"><a xlink:title=" ">
<path fill="none" stroke="#63b8ff" d="M1578.83,-190C1570.81,-190 1562.73,-190 1554.8,-190"/>
<polygon fill="#63b8ff" stroke="#63b8ff" points="1578.6,-193.5 1588.6,-190 1578.6,-186.5 1578.6,-193.5"/>
</a>
</g>
</g>
<!-- Node3&#45;&gt;Node4 -->
<g id="edge4_Node000003_Node000004" class="edge">
<title>Node3&#45;&gt;Node4</title>
<g id="a_edge4_Node000003_Node000004"><a xlink:title=" ">
<path fill="none" stroke="#63b8ff" d="M556.86,-160.36C709.59,-176.16 1038.72,-210.2 1189.95,-225.84"/>
<polygon fill="#63b8ff" stroke="#63b8ff" points="557.54,-156.91 547.24,-159.37 556.82,-163.88 557.54,-156.91"/>
</a>
</g>
</g>
<!-- Node5 -->
<g id="Node000005" class="node">
<title>Node5</title>
<g id="a_Node000005"><a xlink:href="class_main_window.html#a5caeae304b10e5cd9f83ef5c6086310b" target="_top" xlink:title=" ">
<polygon fill="white" stroke="#666666" points="1154.25,-496 1002.5,-496 1002.5,-464 1154.25,-464 1154.25,-496"/>
<text xml:space="preserve" text-anchor="start" x="1010.5" y="-482.5" font-family="Helvetica,sans-Serif" font-size="10.00">MainWindow::updateProperties</text>
<text xml:space="preserve" text-anchor="middle" x="1078.38" y="-470.5" font-family="Helvetica,sans-Serif" font-size="10.00">Panel</text>
</a>
</g>
</g>
<!-- Node4&#45;&gt;Node5 -->
<g id="edge5_Node000004_Node000005" class="edge">
<title>Node4&#45;&gt;Node5</title>
<g id="a_edge5_Node000004_Node000005"><a xlink:title=" ">
<path fill="none" stroke="#63b8ff" d="M1249.56,-259.08C1210.72,-309.49 1124.16,-421.86 1091.85,-463.8"/>
<polygon fill="#63b8ff" stroke="#63b8ff" points="1252.19,-261.4 1255.52,-251.34 1246.64,-257.13 1252.19,-261.4"/>
</a>
</g>
</g>
<!-- Node6 -->
<g id="Node000006" class="node">
<title>Node6</title>
<g id="a_Node000006"><a xlink:href="class_main_window.html#ad34ae0349abf41aa739b75b85df74126" target="_top" xlink:title=" ">
<polygon fill="white" stroke="#666666" points="953.75,-338 811,-338 811,-306 953.75,-306 953.75,-338"/>
<text xml:space="preserve" text-anchor="start" x="819" y="-324.5" font-family="Helvetica,sans-Serif" font-size="10.00">MainWindow::onAddAttribute</text>
<text xml:space="preserve" text-anchor="middle" x="882.38" y="-312.5" font-family="Helvetica,sans-Serif" font-size="10.00">OnTreeClicked</text>
</a>
</g>
</g>
<!-- Node5&#45;&gt;Node6 -->
<g id="edge6_Node000005_Node000006" class="edge">
<title>Node5&#45;&gt;Node6</title>
<g id="a_edge6_Node000005_Node000006"><a xlink:title=" ">
<path fill="none" stroke="#63b8ff" d="M1048.66,-456.61C1008.93,-424.26 938.2,-366.65 903.59,-338.46"/>
<polygon fill="#63b8ff" stroke="#63b8ff" points="1046.21,-459.13 1056.17,-462.73 1050.63,-453.7 1046.21,-459.13"/>
</a>
</g>
</g>
<!-- Node9 -->
<g id="Node000009" class="node">
<title>Node9</title>
<g id="a_Node000009"><a xlink:href="class_main_window.html#a47fd0b86ddb5829e3b0cb15908671670" target="_top" xlink:title=" ">
<polygon fill="white" stroke="#666666" points="561.75,-528 388.25,-528 388.25,-508 561.75,-508 561.75,-528"/>
<text xml:space="preserve" text-anchor="middle" x="475" y="-514.5" font-family="Helvetica,sans-Serif" font-size="10.00">MainWindow::onCheckBoxChanged</text>
</a>
</g>
</g>
<!-- Node5&#45;&gt;Node9 -->
<g id="edge13_Node000005_Node000009" class="edge">
<title>Node5&#45;&gt;Node9</title>
<g id="a_edge13_Node000005_Node000009"><a xlink:title=" ">
<path fill="none" stroke="#63b8ff" d="M1026.48,-459.67C937.4,-427.18 748.51,-372.15 599.25,-423 549.13,-440.08 503.51,-486.69 484.88,-507.6"/>
<polygon fill="#63b8ff" stroke="#63b8ff" points="1025.08,-462.89 1035.68,-463.08 1027.52,-456.32 1025.08,-462.89"/>
</a>
</g>
</g>
<!-- Node11 -->
<g id="Node000011" class="node">
<title>Node11</title>
<g id="a_Node000011"><a xlink:href="class_main_window.html#ac1e0c79708cf9aa9b7ca1a87697e5b34" target="_top" xlink:title=" ">
<polygon fill="white" stroke="#666666" points="563.25,-682 386.75,-682 386.75,-662 563.25,-662 563.25,-682"/>
<text xml:space="preserve" text-anchor="middle" x="475" y="-668.5" font-family="Helvetica,sans-Serif" font-size="10.00">MainWindow::onComboBoxChanged</text>
</a>
</g>
</g>
<!-- Node5&#45;&gt;Node11 -->
<g id="edge17_Node000005_Node000011" class="edge">
<title>Node5&#45;&gt;Node11</title>
<g id="a_edge17_Node000005_Node000011"><a xlink:title=" ">
<path fill="none" stroke="#63b8ff" d="M1022.68,-500.4C960.23,-523.27 854.75,-560.58 762.25,-587 690.72,-607.43 670.39,-603.25 599.25,-625 564.21,-635.71 524.83,-651.39 500.21,-661.65"/>
<polygon fill="#63b8ff" stroke="#63b8ff" points="1023.85,-503.7 1032.03,-496.97 1021.43,-497.13 1023.85,-503.7"/>
</a>
</g>
</g>
<!-- Node15 -->
<g id="Node000015" class="node">
<title>Node15</title>
<g id="a_Node000015"><a xlink:href="class_main_window.html#a0e7ca45ac830893108871185dda813a4" target="_top" xlink:title=" ">
<polygon fill="white" stroke="#666666" points="762.25,-452 599.25,-452 599.25,-432 762.25,-432 762.25,-452"/>
<text xml:space="preserve" text-anchor="middle" x="680.75" y="-438.5" font-family="Helvetica,sans-Serif" font-size="10.00">MainWindow::onLineEditChanged</text>
</a>
</g>
</g>
<!-- Node5&#45;&gt;Node15 -->
<g id="edge24_Node000005_Node000015" class="edge">
<title>Node5&#45;&gt;Node15</title>
<g id="a_edge24_Node000005_Node000015"><a xlink:title=" ">
<path fill="none" stroke="#63b8ff" d="M991.01,-468.74C982.73,-467.77 974.46,-466.84 966.5,-466 897.8,-458.77 819.58,-452.3 762.53,-447.91"/>
<polygon fill="#63b8ff" stroke="#63b8ff" points="990.43,-472.2 1000.77,-469.91 991.26,-465.25 990.43,-472.2"/>
</a>
</g>
</g>
<!-- Node17 -->
<g id="Node000017" class="node">
<title>Node17</title>
<g id="a_Node000017"><a xlink:href="class_main_window.html#a1043995538765eae993ae75217c482e7" target="_top" xlink:title=" ">
<polygon fill="white" stroke="#666666" points="549.75,-845 400.25,-845 400.25,-813 549.75,-813 549.75,-845"/>
<text xml:space="preserve" text-anchor="start" x="408.25" y="-831.5" font-family="Helvetica,sans-Serif" font-size="10.00">MainWindow::onPropertyValue</text>
<text xml:space="preserve" text-anchor="middle" x="475" y="-819.5" font-family="Helvetica,sans-Serif" font-size="10.00">Changed</text>
</a>
</g>
</g>
<!-- Node5&#45;&gt;Node17 -->
<g id="edge27_Node000005_Node000017" class="edge">
<title>Node5&#45;&gt;Node17</title>
<g id="a_edge27_Node000005_Node000017"><a xlink:title=" ">
<path fill="none" stroke="#63b8ff" d="M1064.81,-506.84C1047.67,-545.79 1013.61,-617.87 966.5,-666 892.54,-741.57 862.46,-754.25 762.25,-788 692.82,-811.38 609.11,-818.48 550.21,-821.97"/>
<polygon fill="#63b8ff" stroke="#63b8ff" points="1068,-508.29 1068.78,-497.72 1061.58,-505.49 1068,-508.29"/>
</a>
</g>
</g>
<!-- Node20 -->
<g id="Node000020" class="node">
<title>Node20</title>
<g id="a_Node000020"><a xlink:href="class_main_window.html#a95674d4bfc5fc2aad6df1601f23b1793" target="_top" xlink:title=" ">
<polygon fill="white" stroke="#666666" points="963.5,-288 801.25,-288 801.25,-256 963.5,-256 963.5,-288"/>
<text xml:space="preserve" text-anchor="start" x="809.25" y="-274.5" font-family="Helvetica,sans-Serif" font-size="10.00">MainWindow::onRemoveAttribute</text>
<text xml:space="preserve" text-anchor="middle" x="882.38" y="-262.5" font-family="Helvetica,sans-Serif" font-size="10.00">OnTreeClicked</text>
</a>
</g>
</g>
<!-- Node5&#45;&gt;Node20 -->
<g id="edge31_Node000005_Node000020" class="edge">
<title>Node5&#45;&gt;Node20</title>
<g id="a_edge31_Node000005_Node000020"><a xlink:title=" ">
<path fill="none" stroke="#63b8ff" d="M1068.12,-452.77C1053.11,-412.71 1019.69,-338.2 966.5,-297 962.21,-293.68 957.48,-290.8 952.53,-288.29"/>
<polygon fill="#63b8ff" stroke="#63b8ff" points="1064.81,-453.92 1071.51,-462.13 1071.4,-451.54 1064.81,-453.92"/>
</a>
</g>
</g>
<!-- Node21 -->
<g id="Node000021" class="node">
<title>Node21</title>
<g id="a_Node000021"><a xlink:href="class_main_window.html#a44791b85064ecff42c12429c6667e83b" target="_top" xlink:title=" ">
<polygon fill="white" stroke="#666666" points="966.5,-886 798.25,-886 798.25,-866 966.5,-866 966.5,-886"/>
<text xml:space="preserve" text-anchor="middle" x="882.38" y="-872.5" font-family="Helvetica,sans-Serif" font-size="10.00">MainWindow::onSelectionChanged</text>
</a>
</g>
</g>
<!-- Node5&#45;&gt;Node21 -->
<g id="edge33_Node000005_Node000021" class="edge">
<title>Node5&#45;&gt;Node21</title>
<g id="a_edge33_Node000005_Node000021"><a xlink:title=" ">
<path fill="none" stroke="#63b8ff" d="M1077.6,-507.59C1076.6,-576.04 1064.24,-755.09 966.5,-852 960.63,-857.82 953.45,-862.24 945.79,-865.6"/>
<polygon fill="#63b8ff" stroke="#63b8ff" points="1081.09,-508.04 1077.66,-498.01 1074.09,-507.99 1081.09,-508.04"/>
</a>
</g>
</g>
<!-- Node22 -->
<g id="Node000022" class="node">
<title>Node22</title>
<g id="a_Node000022"><a xlink:href="class_main_window.html#af380eeda83d30cd1ecb1419cfd5161d7" target="_top" xlink:title=" ">
<polygon fill="white" stroke="#666666" points="949.25,-666 815.5,-666 815.5,-634 949.25,-634 949.25,-666"/>
<text xml:space="preserve" text-anchor="start" x="823.5" y="-652.5" font-family="Helvetica,sans-Serif" font-size="10.00">MainWindow::updatesAfter</text>
<text xml:space="preserve" text-anchor="middle" x="882.38" y="-640.5" font-family="Helvetica,sans-Serif" font-size="10.00">ChangingProperty</text>
</a>
</g>
</g>
<!-- Node5&#45;&gt;Node22 -->
<g id="edge35_Node000005_Node000022" class="edge">
<title>Node5&#45;&gt;Node22</title>
<g id="a_edge35_Node000005_Node000022"><a xlink:title=" ">
<path fill="none" stroke="#63b8ff" d="M1062.96,-505.98C1044.43,-537.15 1009.46,-589.09 966.5,-620 959.03,-625.38 950.49,-629.88 941.8,-633.63"/>
<polygon fill="#63b8ff" stroke="#63b8ff" points="1065.85,-507.97 1067.84,-497.57 1059.79,-504.46 1065.85,-507.97"/>
</a>
</g>
</g>
<!-- Node7 -->
<g id="Node000007" class="node">
<title>Node7</title>
<g id="a_Node000007"><a xlink:href="class_main_window.html#a6fd05e9f951dd6e7c2cd6ca815ef9d71" target="_top" xlink:title=" ">
<polygon fill="white" stroke="#666666" points="747.62,-228 613.88,-228 613.88,-196 747.62,-196 747.62,-228"/>
<text xml:space="preserve" text-anchor="start" x="621.88" y="-214.5" font-family="Helvetica,sans-Serif" font-size="10.00">MainWindow::createButton</text>
<text xml:space="preserve" text-anchor="middle" x="680.75" y="-202.5" font-family="Helvetica,sans-Serif" font-size="10.00">PropertyItem</text>
</a>
</g>
</g>
<!-- Node6&#45;&gt;Node7 -->
<g id="edge7_Node000006_Node000007" class="edge">
<title>Node6&#45;&gt;Node7</title>
<g id="a_edge7_Node000006_Node000007"><a xlink:title=" ">
<path fill="none" stroke="#63b8ff" d="M807.76,-301.36C804.51,-299.98 801.32,-298.53 798.25,-297 760.36,-278.17 721.72,-247.16 699.84,-228.25"/>
<polygon fill="#63b8ff" stroke="#63b8ff" points="806.31,-304.55 816.9,-304.97 808.88,-298.04 806.31,-304.55"/>
</a>
</g>
</g>
<!-- Node7&#45;&gt;Node1 -->
<g id="edge9_Node000007_Node000001" class="edge">
<title>Node7&#45;&gt;Node1</title>
<g id="a_edge9_Node000007_Node000001"><a xlink:title=" ">
<path fill="none" stroke="#63b8ff" d="M758.99,-221.37C858.51,-232.94 1036.96,-251.93 1190.25,-259 1442.58,-270.64 1507.38,-264.59 1758,-233 1769.57,-231.54 1781.74,-229.63 1793.63,-227.55"/>
<polygon fill="#63b8ff" stroke="#63b8ff" points="759.69,-217.93 749.35,-220.25 758.87,-224.88 759.69,-217.93"/>
</a>
</g>
</g>
<!-- Node7&#45;&gt;Node2 -->
<g id="edge8_Node000007_Node000002" class="edge">
<title>Node7&#45;&gt;Node2</title>
<g id="a_edge8_Node000007_Node000002"><a xlink:title=" ">
<path fill="none" stroke="#63b8ff" d="M731.21,-191.51C805.17,-162.78 949.57,-114 1077.38,-114 1270.88,-114 1270.88,-114 1270.88,-114 1410.39,-114 1572.47,-158.66 1640.52,-179.51"/>
<polygon fill="#63b8ff" stroke="#63b8ff" points="730.26,-188.13 722.23,-195.04 732.82,-194.64 730.26,-188.13"/>
</a>
</g>
</g>
<!-- Node7&#45;&gt;Node3 -->
<g id="edge10_Node000007_Node000003" class="edge">
<title>Node7&#45;&gt;Node3</title>
<g id="a_edge10_Node000007_Node000003"><a xlink:title=" ">
<path fill="none" stroke="#63b8ff" d="M612.81,-192.29C586.59,-184.57 556.85,-175.81 531.82,-168.44"/>
<polygon fill="#63b8ff" stroke="#63b8ff" points="611.77,-195.63 622.35,-195.1 613.75,-188.92 611.77,-195.63"/>
</a>
</g>
</g>
<!-- Node7&#45;&gt;Node8 -->
<g id="edge11_Node000007_Node000008" class="edge">
<title>Node7&#45;&gt;Node8</title>
<g id="a_edge11_Node000007_Node000008"><a xlink:title=" ">
<path fill="none" stroke="#63b8ff" d="M759.26,-200.84C824.09,-192.1 919.11,-180.67 1002.5,-176 1156.48,-167.39 1195.54,-167.01 1349.5,-176 1361.07,-176.68 1373.25,-177.72 1385.21,-178.93"/>
<polygon fill="#63b8ff" stroke="#63b8ff" points="758.85,-197.37 749.41,-202.18 759.79,-204.3 758.85,-197.37"/>
</a>
</g>
</g>
<!-- Node8&#45;&gt;Node4 -->
<g id="edge12_Node000008_Node000004" class="edge">
<title>Node8&#45;&gt;Node4</title>
<g id="a_edge12_Node000008_Node000004"><a xlink:title=" ">
<path fill="none" stroke="#63b8ff" d="M1383.76,-208.93C1370.92,-211.78 1357.76,-214.7 1345.17,-217.5"/>
<polygon fill="#63b8ff" stroke="#63b8ff" points="1384.46,-212.36 1393.47,-206.77 1382.95,-205.53 1384.46,-212.36"/>
</a>
</g>
</g>
<!-- Node10 -->
<g id="Node000010" class="node">
<title>Node10</title>
<g id="a_Node000010"><a xlink:href="class_main_window.html#a44aaf7bb6d9a56f53b8a7a9e4fc29f8c" target="_top" xlink:title=" ">
<polygon fill="white" stroke="#666666" points="348.5,-54 197.5,-54 197.5,-22 348.5,-22 348.5,-54"/>
<text xml:space="preserve" text-anchor="start" x="205.5" y="-40.5" font-family="Helvetica,sans-Serif" font-size="10.00">MainWindow::createCheckBox</text>
<text xml:space="preserve" text-anchor="middle" x="273" y="-28.5" font-family="Helvetica,sans-Serif" font-size="10.00">PropertyItem</text>
</a>
</g>
</g>
<!-- Node9&#45;&gt;Node10 -->
<g id="edge14_Node000009_Node000010" class="edge">
<title>Node9&#45;&gt;Node10</title>
<g id="a_edge14_Node000009_Node000010"><a xlink:title=" ">
<path fill="none" stroke="#63b8ff" d="M452.05,-500.29C432.28,-483.22 403.77,-455.67 386.75,-426 311.53,-294.88 283.05,-109.57 275.92,-54.21"/>
<polygon fill="#63b8ff" stroke="#63b8ff" points="449.65,-502.84 459.55,-506.6 454.16,-497.48 449.65,-502.84"/>
</a>
</g>
</g>
<!-- Node10&#45;&gt;Node1 -->
<g id="edge15_Node000010_Node000001" class="edge">
<title>Node10&#45;&gt;Node1</title>
<g id="a_edge15_Node000010_Node000001"><a xlink:title=" ">
<path fill="none" stroke="#63b8ff" d="M360.22,-25.22C442.21,-14.18 569.1,0 679.75,0 1471,0 1471,0 1471,0 1637.32,0 1801.67,-146.07 1852.72,-195.72"/>
<polygon fill="#63b8ff" stroke="#63b8ff" points="359.89,-21.73 350.46,-26.55 360.84,-28.67 359.89,-21.73"/>
</a>
</g>
</g>
<!-- Node10&#45;&gt;Node8 -->
<g id="edge16_Node000010_Node000008" class="edge">
<title>Node10&#45;&gt;Node8</title>
<g id="a_edge16_Node000010_Node000008"><a xlink:title=" ">
<path fill="none" stroke="#63b8ff" d="M360.07,-38C442.2,-38 569.41,-38 679.75,-38 1079.38,-38 1079.38,-38 1079.38,-38 1227.5,-38 1386.96,-134.52 1445.64,-173.73"/>
<polygon fill="#63b8ff" stroke="#63b8ff" points="360.3,-34.5 350.3,-38 360.3,-41.5 360.3,-34.5"/>
</a>
</g>
</g>
<!-- Node12 -->
<g id="Node000012" class="node">
<title>Node12</title>
<g id="a_Node000012"><a xlink:href="class_main_window.html#a872e6a76dcbf858ae9d483eceddf90e1" target="_top" xlink:title=" ">
<polygon fill="white" stroke="#666666" points="350,-930 196,-930 196,-898 350,-898 350,-930"/>
<text xml:space="preserve" text-anchor="start" x="204" y="-916.5" font-family="Helvetica,sans-Serif" font-size="10.00">MainWindow::createComboBox</text>
<text xml:space="preserve" text-anchor="middle" x="273" y="-904.5" font-family="Helvetica,sans-Serif" font-size="10.00">PropertyItem</text>
</a>
</g>
</g>
<!-- Node11&#45;&gt;Node12 -->
<g id="edge18_Node000011_Node000012" class="edge">
<title>Node11&#45;&gt;Node12</title>
<g id="a_edge18_Node000011_Node000012"><a xlink:title=" ">
<path fill="none" stroke="#63b8ff" d="M460.25,-691.75C442.62,-717.29 411.4,-763.33 386.75,-804 369.63,-832.24 373.81,-845.36 350.75,-869 339.42,-880.61 324.48,-890.26 310.78,-897.62"/>
<polygon fill="#63b8ff" stroke="#63b8ff" points="463.02,-693.89 465.84,-683.67 457.27,-689.9 463.02,-693.89"/>
</a>
</g>
</g>
<!-- Node13 -->
<g id="Node000013" class="node">
<title>Node13</title>
<g id="a_Node000013"><a xlink:href="class_main_window.html#abae03a6494d13d74ed1b2e31ec1f2fc7" target="_top" xlink:title=" ">
<polygon fill="white" stroke="#666666" points="350.75,-625 195.25,-625 195.25,-593 350.75,-593 350.75,-625"/>
<text xml:space="preserve" text-anchor="start" x="203.25" y="-611.5" font-family="Helvetica,sans-Serif" font-size="10.00">MainWindow::createIconCombo</text>
<text xml:space="preserve" text-anchor="middle" x="273" y="-599.5" font-family="Helvetica,sans-Serif" font-size="10.00">BoxPropertyItem</text>
</a>
</g>
</g>
<!-- Node11&#45;&gt;Node13 -->
<g id="edge21_Node000011_Node000013" class="edge">
<title>Node11&#45;&gt;Node13</title>
<g id="a_edge21_Node000011_Node000013"><a xlink:title=" ">
<path fill="none" stroke="#63b8ff" d="M430.2,-658.2C399.59,-648.56 358.58,-635.64 326.26,-625.46"/>
<polygon fill="#63b8ff" stroke="#63b8ff" points="428.94,-661.48 439.53,-661.14 431.04,-654.8 428.94,-661.48"/>
</a>
</g>
</g>
<!-- Node12&#45;&gt;Node1 -->
<g id="edge19_Node000012_Node000001" class="edge">
<title>Node12&#45;&gt;Node1</title>
<g id="a_edge19_Node000012_Node000001"><a xlink:title=" ">
<path fill="none" stroke="#63b8ff" d="M361.73,-926.98C443.76,-937.99 569.78,-952 679.75,-952 1471,-952 1471,-952 1471,-952 1811.23,-952 1861.77,-337.68 1868.07,-228.49"/>
<polygon fill="#63b8ff" stroke="#63b8ff" points="362.33,-923.53 351.95,-925.66 361.39,-930.47 362.33,-923.53"/>
</a>
</g>
</g>
<!-- Node12&#45;&gt;Node8 -->
<g id="edge20_Node000012_Node000008" class="edge">
<title>Node12&#45;&gt;Node8</title>
<g id="a_edge20_Node000012_Node000008"><a xlink:title=" ">
<path fill="none" stroke="#63b8ff" d="M361.57,-914C443.75,-914 570.09,-914 679.75,-914 1079.38,-914 1079.38,-914 1079.38,-914 1411.96,-914 1461.9,-314.25 1468.18,-206.48"/>
<polygon fill="#63b8ff" stroke="#63b8ff" points="361.79,-910.5 351.79,-914 361.79,-917.5 361.79,-910.5"/>
</a>
</g>
</g>
<!-- Node14 -->
<g id="Node000014" class="node">
<title>Node14</title>
<g id="a_Node000014"><a xlink:href="class_main_window.html#af02df1238ccf49caa1c4099c88dfe465" target="_top" xlink:title=" ">
<polygon fill="white" stroke="#666666" points="159.25,-560 0,-560 0,-528 159.25,-528 159.25,-560"/>
<text xml:space="preserve" text-anchor="start" x="8" y="-546.5" font-family="Helvetica,sans-Serif" font-size="10.00">MainWindow::populateProperties</text>
<text xml:space="preserve" text-anchor="middle" x="79.62" y="-534.5" font-family="Helvetica,sans-Serif" font-size="10.00">ForConnection</text>
</a>
</g>
</g>
<!-- Node13&#45;&gt;Node14 -->
<g id="edge22_Node000013_Node000014" class="edge">
<title>Node13&#45;&gt;Node14</title>
<g id="a_edge22_Node000013_Node000014"><a xlink:title=" ">
<path fill="none" stroke="#63b8ff" d="M212.85,-588.91C185.9,-579.76 154.4,-569.06 128.9,-560.4"/>
<polygon fill="#63b8ff" stroke="#63b8ff" points="211.68,-592.21 222.27,-592.11 213.93,-585.58 211.68,-592.21"/>
</a>
</g>
</g>
<!-- Node14&#45;&gt;Node5 -->
<g id="edge23_Node000014_Node000005" class="edge">
<title>Node14&#45;&gt;Node5</title>
<g id="a_edge23_Node000014_Node000005"><a xlink:title=" ">
<path fill="none" stroke="#63b8ff" d="M153.54,-524.91C232.07,-506.05 361,-480 474,-480 681.75,-480 681.75,-480 681.75,-480 793.36,-480 922.69,-480 1002.27,-480"/>
<polygon fill="#63b8ff" stroke="#63b8ff" points="153.16,-521.4 144.27,-527.16 154.81,-528.2 153.16,-521.4"/>
</a>
</g>
</g>
<!-- Node16 -->
<g id="Node000016" class="node">
<title>Node16</title>
<g id="a_Node000016"><a xlink:href="class_main_window.html#ae3b6600dd59da1822ef94bbd5f37f0cc" target="_top" xlink:title=" ">
<polygon fill="white" stroke="#666666" points="545.25,-417 404.75,-417 404.75,-385 545.25,-385 545.25,-417"/>
<text xml:space="preserve" text-anchor="start" x="412.75" y="-403.5" font-family="Helvetica,sans-Serif" font-size="10.00">MainWindow::createLineEdit</text>
<text xml:space="preserve" text-anchor="middle" x="475" y="-391.5" font-family="Helvetica,sans-Serif" font-size="10.00">PropertyItem</text>
</a>
</g>
</g>
<!-- Node15&#45;&gt;Node16 -->
<g id="edge25_Node000015_Node000016" class="edge">
<title>Node15&#45;&gt;Node16</title>
<g id="a_edge25_Node000015_Node000016"><a xlink:title=" ">
<path fill="none" stroke="#63b8ff" d="M616.66,-429.31C594.12,-424.77 568.59,-419.63 545.54,-414.99"/>
<polygon fill="#63b8ff" stroke="#63b8ff" points="615.83,-432.71 626.32,-431.25 617.21,-425.85 615.83,-432.71"/>
</a>
</g>
</g>
<!-- Node16&#45;&gt;Node8 -->
<g id="edge26_Node000016_Node000008" class="edge">
<title>Node16&#45;&gt;Node8</title>
<g id="a_edge26_Node000016_Node000008"><a xlink:title=" ">
<path fill="none" stroke="#63b8ff" d="M556.53,-396.44C675.67,-388.97 892.72,-372.36 966.5,-347 1076.99,-309.01 1078.99,-244.68 1190.25,-209 1253.41,-188.74 1328.64,-184.71 1385.01,-185.34"/>
<polygon fill="#63b8ff" stroke="#63b8ff" points="556.59,-392.93 546.83,-397.04 557.03,-399.92 556.59,-392.93"/>
</a>
</g>
</g>
<!-- Node17&#45;&gt;Node5 -->
<g id="edge30_Node000017_Node000005" class="edge">
<title>Node17&#45;&gt;Node5</title>
<g id="a_edge30_Node000017_Node000005"><a xlink:title=" ">
<path fill="none" stroke="#63b8ff" d="M561.53,-836.49C619.52,-835.53 697.16,-827.92 762.25,-806 862.46,-772.25 892.54,-759.57 966.5,-684 1023.02,-626.25 1060.76,-534.01 1073.03,-496.33"/>
<polygon fill="#63b8ff" stroke="#63b8ff" points="561.69,-832.99 551.72,-836.58 561.75,-839.99 561.69,-832.99"/>
</a>
</g>
</g>
<!-- Node18 -->
<g id="Node000018" class="node">
<title>Node18</title>
<g id="a_Node000018"><a xlink:href="class_main_window.html#adfa32feecffce3959c99d145fc8b4854" target="_top" xlink:title=" ">
<polygon fill="white" stroke="#666666" points="345.5,-860 200.5,-860 200.5,-840 345.5,-840 345.5,-860"/>
<text xml:space="preserve" text-anchor="middle" x="273" y="-846.5" font-family="Helvetica,sans-Serif" font-size="10.00">MainWindow::connectSignals</text>
</a>
</g>
</g>
<!-- Node17&#45;&gt;Node18 -->
<g id="edge28_Node000017_Node000018" class="edge">
<title>Node17&#45;&gt;Node18</title>
<g id="a_edge28_Node000017_Node000018"><a xlink:title=" ">
<path fill="none" stroke="#63b8ff" d="M388.49,-837.98C374.25,-839.47 359.6,-841.01 345.74,-842.47"/>
<polygon fill="#63b8ff" stroke="#63b8ff" points="388.73,-841.47 398.31,-836.95 388,-834.51 388.73,-841.47"/>
</a>
</g>
</g>
<!-- Node19 -->
<g id="Node000019" class="node">
<title>Node19</title>
<g id="a_Node000019"><a xlink:href="class_main_window.html#a996c5a2b6f77944776856f08ec30858d" target="_top" xlink:title=" ">
<polygon fill="white" stroke="#666666" points="146.88,-860 12.38,-860 12.38,-840 146.88,-840 146.88,-860"/>
<text xml:space="preserve" text-anchor="middle" x="79.62" y="-846.5" font-family="Helvetica,sans-Serif" font-size="10.00">MainWindow::MainWindow</text>
</a>
</g>
</g>
<!-- Node18&#45;&gt;Node19 -->
<g id="edge29_Node000018_Node000019" class="edge">
<title>Node18&#45;&gt;Node19</title>
<g id="a_edge29_Node000018_Node000019"><a xlink:title=" ">
<path fill="none" stroke="#63b8ff" d="M189.06,-850C175.05,-850 160.67,-850 147.14,-850"/>
<polygon fill="#63b8ff" stroke="#63b8ff" points="188.68,-853.5 198.68,-850 188.68,-846.5 188.68,-853.5"/>
</a>
</g>
</g>
<!-- Node20&#45;&gt;Node7 -->
<g id="edge32_Node000020_Node000007" class="edge">
<title>Node20&#45;&gt;Node7</title>
<g id="a_edge32_Node000020_Node000007"><a xlink:title=" ">
<path fill="none" stroke="#63b8ff" d="M815.79,-252.29C790.1,-244.57 760.97,-235.81 736.44,-228.44"/>
<polygon fill="#63b8ff" stroke="#63b8ff" points="814.53,-255.56 825.11,-255.09 816.54,-248.86 814.53,-255.56"/>
</a>
</g>
</g>
<!-- Node21&#45;&gt;Node18 -->
<g id="edge34_Node000021_Node000018" class="edge">
<title>Node21&#45;&gt;Node18</title>
<g id="a_edge34_Node000021_Node000018"><a xlink:title=" ">
<path fill="none" stroke="#63b8ff" d="M786.71,-871.95C664.72,-866.73 455.32,-857.76 345.69,-853.07"/>
<polygon fill="#63b8ff" stroke="#63b8ff" points="786.23,-875.43 796.37,-872.36 786.52,-868.44 786.23,-875.43"/>
</a>
</g>
</g>
<!-- Node22&#45;&gt;Node9 -->
<g id="edge44_Node000022_Node000009" class="edge">
<title>Node22&#45;&gt;Node9</title>
<g id="a_edge44_Node000022_Node000009"><a xlink:title=" ">
<path fill="none" stroke="#63b8ff" d="M863.44,-624.71C842.59,-597.6 805.46,-555.92 762.25,-537 699.17,-509.39 620.74,-506.06 561.94,-508.84"/>
<polygon fill="#63b8ff" stroke="#63b8ff" points="860.41,-626.51 869.21,-632.41 866.02,-622.31 860.41,-626.51"/>
</a>
</g>
</g>
<!-- Node22&#45;&gt;Node11 -->
<g id="edge45_Node000022_Node000011" class="edge">
<title>Node22&#45;&gt;Node11</title>
<g id="a_edge45_Node000022_Node000011"><a xlink:title=" ">
<path fill="none" stroke="#63b8ff" d="M804.27,-668.6C790.36,-671.27 775.93,-673.58 762.25,-675 695.89,-681.89 620.4,-680.73 563.62,-678.06"/>
<polygon fill="#63b8ff" stroke="#63b8ff" points="804.68,-672.09 813.8,-666.7 803.31,-665.23 804.68,-672.09"/>
</a>
</g>
</g>
<!-- Node22&#45;&gt;Node15 -->
<g id="edge46_Node000022_Node000015" class="edge">
<title>Node22&#45;&gt;Node15</title>
<g id="a_edge46_Node000022_Node000015"><a xlink:title=" ">
<path fill="none" stroke="#63b8ff" d="M863.44,-624.57C841.4,-594.21 802.04,-542.69 762.25,-504 741.51,-483.83 714.3,-464.06 697.43,-452.45"/>
<polygon fill="#63b8ff" stroke="#63b8ff" points="860.4,-626.34 869.07,-632.42 866.08,-622.25 860.4,-626.34"/>
</a>
</g>
</g>
<!-- Node22&#45;&gt;Node17 -->
<g id="edge47_Node000022_Node000017" class="edge">
<title>Node22&#45;&gt;Node17</title>
<g id="a_edge47_Node000022_Node000017"><a xlink:title=" ">
<path fill="none" stroke="#63b8ff" d="M861.83,-675.21C840.28,-701.22 803.18,-741.02 762.25,-763 743.58,-773.03 628.43,-797.87 549.99,-814.05"/>
<polygon fill="#63b8ff" stroke="#63b8ff" points="864.52,-677.45 868.1,-667.48 859.08,-673.05 864.52,-677.45"/>
</a>
</g>
</g>
<!-- Node23 -->
<g id="Node000023" class="node">
<title>Node23</title>
<g id="a_Node000023"><a xlink:href="class_main_window.html#a9ed390421f6755b891cfc651d173db7b" target="_top" xlink:title=" ">
<polygon fill="white" stroke="#666666" points="752.5,-666 609,-666 609,-634 752.5,-634 752.5,-666"/>
<text xml:space="preserve" text-anchor="start" x="617" y="-652.5" font-family="Helvetica,sans-Serif" font-size="10.00">MainWindow::handleAttribute</text>
<text xml:space="preserve" text-anchor="middle" x="680.75" y="-640.5" font-family="Helvetica,sans-Serif" font-size="10.00">PropertyChange</text>
</a>
</g>
</g>
<!-- Node22&#45;&gt;Node23 -->
<g id="edge36_Node000022_Node000023" class="edge">
<title>Node22&#45;&gt;Node23</title>
<g id="a_edge36_Node000022_Node000023"><a xlink:title=" ">
<path fill="none" stroke="#63b8ff" d="M803.75,-650C787.01,-650 769.39,-650 752.91,-650"/>
<polygon fill="#63b8ff" stroke="#63b8ff" points="803.67,-653.5 813.67,-650 803.67,-646.5 803.67,-653.5"/>
</a>
</g>
</g>
<!-- Node24 -->
<g id="Node000024" class="node">
<title>Node24</title>
<g id="a_Node000024"><a xlink:href="class_main_window.html#aa69c4b7c558b2fb3922adf75af48330a" target="_top" xlink:title=" ">
<polygon fill="white" stroke="#666666" points="761.12,-754 600.38,-754 600.38,-722 761.12,-722 761.12,-754"/>
<text xml:space="preserve" text-anchor="start" x="608.38" y="-740.5" font-family="Helvetica,sans-Serif" font-size="10.00">MainWindow::handleRelationship</text>
<text xml:space="preserve" text-anchor="middle" x="680.75" y="-728.5" font-family="Helvetica,sans-Serif" font-size="10.00">EndCardinalityChange</text>
</a>
</g>
</g>
<!-- Node22&#45;&gt;Node24 -->
<g id="edge40_Node000022_Node000024" class="edge">
<title>Node22&#45;&gt;Node24</title>
<g id="a_edge40_Node000022_Node000024"><a xlink:title=" ">
<path fill="none" stroke="#63b8ff" d="M839.39,-671.67C816.78,-683.03 788.26,-696.85 762.25,-708 751.28,-712.7 739.31,-717.39 728.03,-721.62"/>
<polygon fill="#63b8ff" stroke="#63b8ff" points="840.96,-674.8 848.31,-667.16 837.8,-668.55 840.96,-674.8"/>
</a>
</g>
</g>
<!-- Node25 -->
<g id="Node000025" class="node">
<title>Node25</title>
<g id="a_Node000025"><a xlink:href="class_main_window.html#a96d575a529f7c24b1b5094b4b1e42742" target="_top" xlink:title=" ">
<polygon fill="white" stroke="#666666" points="761.12,-578 600.38,-578 600.38,-546 761.12,-546 761.12,-578"/>
<text xml:space="preserve" text-anchor="start" x="608.38" y="-564.5" font-family="Helvetica,sans-Serif" font-size="10.00">MainWindow::handleRelationship</text>
<text xml:space="preserve" text-anchor="middle" x="680.75" y="-552.5" font-family="Helvetica,sans-Serif" font-size="10.00">EndParticipationChange</text>
</a>
</g>
</g>
<!-- Node22&#45;&gt;Node25 -->
<g id="edge42_Node000022_Node000025" class="edge">
<title>Node22&#45;&gt;Node25</title>
<g id="a_edge42_Node000022_Node000025"><a xlink:title=" ">
<path fill="none" stroke="#63b8ff" d="M833.8,-629.03C798.62,-613.52 751.4,-592.71 718.97,-578.41"/>
<polygon fill="#63b8ff" stroke="#63b8ff" points="832.35,-632.21 842.91,-633.04 835.17,-625.81 832.35,-632.21"/>
</a>
</g>
</g>
<!-- Node23&#45;&gt;Node9 -->
<g id="edge37_Node000023_Node000009" class="edge">
<title>Node23&#45;&gt;Node9</title>
<g id="a_edge37_Node000023_Node000009"><a xlink:title=" ">
<path fill="none" stroke="#63b8ff" d="M644.79,-627.35C600.15,-598.43 524.77,-549.6 492.01,-528.37"/>
<polygon fill="#63b8ff" stroke="#63b8ff" points="642.79,-630.23 653.09,-632.73 646.6,-624.35 642.79,-630.23"/>
</a>
</g>
</g>
<!-- Node23&#45;&gt;Node11 -->
<g id="edge38_Node000023_Node000011" class="edge">
<title>Node23&#45;&gt;Node11</title>
<g id="a_edge38_Node000023_Node000011"><a xlink:title=" ">
<path fill="none" stroke="#63b8ff" d="M597.33,-658.9C586.21,-660.1 574.78,-661.33 563.58,-662.54"/>
<polygon fill="#63b8ff" stroke="#63b8ff" points="597.7,-662.38 607.27,-657.83 596.95,-655.42 597.7,-662.38"/>
</a>
</g>
</g>
<!-- Node23&#45;&gt;Node17 -->
<g id="edge39_Node000023_Node000017" class="edge">
<title>Node23&#45;&gt;Node17</title>
<g id="a_edge39_Node000023_Node000017"><a xlink:title=" ">
<path fill="none" stroke="#63b8ff" d="M648.8,-673.17C633.61,-684.8 615.19,-699.31 599.25,-713 559.57,-747.08 515.48,-789.85 492.3,-812.75"/>
<polygon fill="#63b8ff" stroke="#63b8ff" points="650.75,-676.08 656.59,-667.24 646.51,-670.51 650.75,-676.08"/>
</a>
</g>
</g>
<!-- Node24&#45;&gt;Node11 -->
<g id="edge41_Node000024_Node000011" class="edge">
<title>Node24&#45;&gt;Node11</title>
<g id="a_edge41_Node000024_Node000011"><a xlink:title=" ">
<path fill="none" stroke="#63b8ff" d="M617.91,-717.97C581.72,-706.25 537.51,-691.92 508.15,-682.41"/>
<polygon fill="#63b8ff" stroke="#63b8ff" points="616.83,-721.3 627.42,-721.05 618.99,-714.64 616.83,-721.3"/>
</a>
</g>
</g>
<!-- Node25&#45;&gt;Node9 -->
<g id="edge43_Node000025_Node000009" class="edge">
<title>Node25&#45;&gt;Node9</title>
<g id="a_edge43_Node000025_Node000009"><a xlink:title=" ">
<path fill="none" stroke="#63b8ff" d="M592.62,-543.19C569.33,-538.16 544.99,-532.9 524.61,-528.5"/>
<polygon fill="#63b8ff" stroke="#63b8ff" points="591.6,-546.54 602.11,-545.23 593.08,-539.7 591.6,-546.54"/>
</a>
</g>
</g>
</g>
</svg>
