<?xml version="1.0" encoding="UTF-8" standalone="no"?>
<!DOCTYPE svg PUBLIC "-//W3C//DTD SVG 1.1//EN"
 "http://www.w3.org/Graphics/SVG/1.1/DTD/svg11.dtd">
<!-- Generated by graphviz version 14.1.1 (20251213.1925)
 -->
<!-- Title: ConnectionLine::setControl2Offset Pages: 1 -->
<svg width="885pt" height="178pt"
 viewBox="0.00 0.00 885.00 178.00" xmlns="http://www.w3.org/2000/svg" xmlns:xlink="http://www.w3.org/1999/xlink">
<g id="graph0" class="graph" transform="scale(1 1) rotate(0) translate(4 174)">
<title>ConnectionLine::setControl2Offset</title>
<!-- Node1 -->
<g id="Node000001" class="node">
<title>Node1</title>
<g id="a_Node000001"><a xlink:title=" ">
<polygon fill="#999999" stroke="#666666" points="139.75,-79 0,-79 0,-47 139.75,-47 139.75,-79"/>
<text xml:space="preserve" text-anchor="start" x="8" y="-65.5" font-family="Helvetica,sans-Serif" font-size="10.00">ConnectionLine::setControl2</text>
<text xml:space="preserve" text-anchor="middle" x="69.88" y="-53.5" font-family="Helvetica,sans-Serif" font-size="10.00">Offset</text>
</a>
</g>
</g>
<!-- Node2 -->
<g id="Node000002" class="node">
<title>Node2</title>
<g id="a_Node000002"><a xlink:href="class_connection_line.html#a9de44ae385d7941f3aa79da06e97d510" target="_top" xlink:title=" ">
<polygon fill="white" stroke="#666666" points="317.38,-104 180.62,-104 180.62,-72 317.38,-72 317.38,-104"/>
<text xml:space="preserve" text-anchor="start" x="188.62" y="-90.5" font-family="Helvetica,sans-Serif" font-size="10.00">ConnectionLine::connection</text>
<text xml:space="preserve" text-anchor="middle" x="249" y="-78.5" font-family="Helvetica,sans-Serif" font-size="10.00">Changed</text>
</a>
</g>
</g>
<!-- Node1&#45;&gt;Node2 -->
<g id="edge1_Node000001_Node000002" class="edge">
<title>Node1&#45;&gt;Node2</title>
<g id="a_edge1_Node000001_Node000002"><a xlink:title=" ">
<path fill="none" stroke="#63b8ff" d="M140.12,-72.77C149.6,-74.11 159.4,-75.49 169.04,-76.86"/>
<polygon fill="#63b8ff" stroke="#63b8ff" points="168.37,-80.3 178.76,-78.23 169.35,-73.36 168.37,-80.3"/>
</a>
</g>
</g>
<!-- Node9 -->
<g id="Node000009" class="node">
<title>Node9</title>
<g id="a_Node000009"><a xlink:href="class_connection_line.html#a93e2b3868595cc0ac41de6c0f36c2365" target="_top" xlink:title=" ">
<polygon fill="white" stroke="#666666" points="322.25,-54 175.75,-54 175.75,-22 322.25,-22 322.25,-54"/>
<text xml:space="preserve" text-anchor="start" x="183.75" y="-40.5" font-family="Helvetica,sans-Serif" font-size="10.00">ConnectionLine::controlPoints</text>
<text xml:space="preserve" text-anchor="middle" x="249" y="-28.5" font-family="Helvetica,sans-Serif" font-size="10.00">Changed</text>
</a>
</g>
</g>
<!-- Node1&#45;&gt;Node9 -->
<g id="edge10_Node000001_Node000009" class="edge">
<title>Node1&#45;&gt;Node9</title>
<g id="a_edge10_Node000001_Node000009"><a xlink:title=" ">
<path fill="none" stroke="#63b8ff" d="M140.12,-53.23C147.97,-52.12 156.03,-50.98 164.04,-49.85"/>
<polygon fill="#63b8ff" stroke="#63b8ff" points="164.39,-53.34 173.8,-48.47 163.41,-46.4 164.39,-53.34"/>
</a>
</g>
</g>
<!-- Node3 -->
<g id="Node000003" class="node">
<title>Node3</title>
<g id="a_Node000003"><a xlink:href="class_connection_line.html#a657559dca679d5fd04ae565b442b6a8b" target="_top" xlink:title=" ">
<polygon fill="white" stroke="#666666" points="515.25,-98 358.25,-98 358.25,-78 515.25,-78 515.25,-98"/>
<text xml:space="preserve" text-anchor="middle" x="436.75" y="-84.5" font-family="Helvetica,sans-Serif" font-size="10.00">ConnectionLine::ConnectionLine</text>
</a>
</g>
</g>
<!-- Node2&#45;&gt;Node3 -->
<g id="edge2_Node000002_Node000003" class="edge">
<title>Node2&#45;&gt;Node3</title>
<g id="a_edge2_Node000002_Node000003"><a xlink:title=" ">
<path fill="none" stroke="#63b8ff" d="M317.85,-88C327.23,-88 336.99,-88 346.69,-88"/>
<polygon fill="#63b8ff" stroke="#63b8ff" points="346.51,-91.5 356.51,-88 346.51,-84.5 346.51,-91.5"/>
</a>
</g>
</g>
<!-- Node4 -->
<g id="Node000004" class="node">
<title>Node4</title>
<g id="a_Node000004"><a xlink:href="class_connection_line.html#a836aef7faf5a4fb8a5a10bfc71dbabe3" target="_top" xlink:title=" ">
<polygon fill="white" stroke="#666666" points="685.75,-104 551.25,-104 551.25,-72 685.75,-72 685.75,-104"/>
<text xml:space="preserve" text-anchor="start" x="559.25" y="-90.5" font-family="Helvetica,sans-Serif" font-size="10.00">ConnectionLine::connectTo</text>
<text xml:space="preserve" text-anchor="middle" x="618.5" y="-78.5" font-family="Helvetica,sans-Serif" font-size="10.00">Points</text>
</a>
</g>
</g>
<!-- Node3&#45;&gt;Node4 -->
<g id="edge3_Node000003_Node000004" class="edge">
<title>Node3&#45;&gt;Node4</title>
<g id="a_edge3_Node000003_Node000004"><a xlink:title=" ">
<path fill="none" stroke="#63b8ff" d="M515.55,-88C523.45,-88 531.48,-88 539.39,-88"/>
<polygon fill="#63b8ff" stroke="#63b8ff" points="539.35,-91.5 549.35,-88 539.35,-84.5 539.35,-91.5"/>
</a>
</g>
</g>
<!-- Node5 -->
<g id="Node000005" class="node">
<title>Node5</title>
<g id="a_Node000005"><a xlink:href="class_connection_line.html#a53c863c51a284a7a8e6b35bc34bd2d34" target="_top" xlink:title=" ">
<polygon fill="white" stroke="#666666" points="874.25,-170 724.75,-170 724.75,-138 874.25,-138 874.25,-170"/>
<text xml:space="preserve" text-anchor="start" x="732.75" y="-156.5" font-family="Helvetica,sans-Serif" font-size="10.00">ConnectionLine::onConnection</text>
<text xml:space="preserve" text-anchor="middle" x="799.5" y="-144.5" font-family="Helvetica,sans-Serif" font-size="10.00">PointChanged</text>
</a>
</g>
</g>
<!-- Node4&#45;&gt;Node5 -->
<g id="edge4_Node000004_Node000005" class="edge">
<title>Node4&#45;&gt;Node5</title>
<g id="a_edge4_Node000004_Node000005"><a xlink:title=" ">
<path fill="none" stroke="#63b8ff" d="M658.6,-104.38C677.55,-112.15 700.72,-121.37 721.75,-129 726.2,-130.61 730.8,-132.24 735.45,-133.84"/>
<polygon fill="#63b8ff" stroke="#63b8ff" points="734.29,-137.14 744.89,-137.03 736.54,-130.51 734.29,-137.14"/>
</a>
</g>
</g>
<!-- Node6 -->
<g id="Node000006" class="node">
<title>Node6</title>
<g id="a_Node000006"><a xlink:href="class_connection_line.html#a4bce34a3f2fb1fd7145de2d9100c9173" target="_top" xlink:title=" ">
<polygon fill="white" stroke="#666666" points="867.5,-32 731.5,-32 731.5,0 867.5,0 867.5,-32"/>
<text xml:space="preserve" text-anchor="start" x="739.5" y="-18.5" font-family="Helvetica,sans-Serif" font-size="10.00">ConnectionLine::onElement</text>
<text xml:space="preserve" text-anchor="middle" x="799.5" y="-6.5" font-family="Helvetica,sans-Serif" font-size="10.00">PositionChanged</text>
</a>
</g>
</g>
<!-- Node4&#45;&gt;Node6 -->
<g id="edge6_Node000004_Node000006" class="edge">
<title>Node4&#45;&gt;Node6</title>
<g id="a_edge6_Node000004_Node000006"><a xlink:title=" ">
<path fill="none" stroke="#63b8ff" d="M652.7,-71.55C672.5,-62.04 698.28,-50.18 721.75,-41 725.89,-39.38 730.18,-37.78 734.52,-36.22"/>
<polygon fill="#63b8ff" stroke="#63b8ff" points="735.66,-39.53 743.94,-32.92 733.34,-32.92 735.66,-39.53"/>
</a>
</g>
</g>
<!-- Node7 -->
<g id="Node000007" class="node">
<title>Node7</title>
<g id="a_Node000007"><a xlink:href="class_basic_element.html#a02183bafd7c80f9f1f99a9b9f1631524" target="_top" xlink:title=" ">
<polygon fill="white" stroke="#666666" points="877.25,-120 721.75,-120 721.75,-100 877.25,-100 877.25,-120"/>
<text xml:space="preserve" text-anchor="middle" x="799.5" y="-106.5" font-family="Helvetica,sans-Serif" font-size="10.00">BasicElement::positionChanged</text>
</a>
</g>
</g>
<!-- Node4&#45;&gt;Node7 -->
<g id="edge8_Node000004_Node000007" class="edge">
<title>Node4&#45;&gt;Node7</title>
<g id="a_edge8_Node000004_Node000007"><a xlink:title=" ">
<path fill="none" stroke="#63b8ff" d="M686.15,-96.19C693.99,-97.16 702.08,-98.15 710.15,-99.14"/>
<polygon fill="#63b8ff" stroke="#63b8ff" points="709.68,-102.61 720.03,-100.36 710.53,-95.66 709.68,-102.61"/>
</a>
</g>
</g>
<!-- Node8 -->
<g id="Node000008" class="node">
<title>Node8</title>
<g id="a_Node000008"><a xlink:href="class_connection_point.html#a851668ae19e97658f1818a40ea375f65" target="_top" xlink:title=" ">
<polygon fill="white" stroke="#666666" points="862.25,-82 736.75,-82 736.75,-50 862.25,-50 862.25,-82"/>
<text xml:space="preserve" text-anchor="start" x="744.75" y="-68.5" font-family="Helvetica,sans-Serif" font-size="10.00">ConnectionPoint::relative</text>
<text xml:space="preserve" text-anchor="middle" x="799.5" y="-56.5" font-family="Helvetica,sans-Serif" font-size="10.00">PositionChanged</text>
</a>
</g>
</g>
<!-- Node4&#45;&gt;Node8 -->
<g id="edge9_Node000004_Node000008" class="edge">
<title>Node4&#45;&gt;Node8</title>
<g id="a_edge9_Node000004_Node000008"><a xlink:title=" ">
<path fill="none" stroke="#63b8ff" d="M686.15,-79.81C698.91,-78.24 712.34,-76.59 725.3,-75"/>
<polygon fill="#63b8ff" stroke="#63b8ff" points="725.53,-78.49 735.03,-73.8 724.68,-71.55 725.53,-78.49"/>
</a>
</g>
</g>
<!-- Node5&#45;&gt;Node2 -->
<g id="edge5_Node000005_Node000002" class="edge">
<title>Node5&#45;&gt;Node2</title>
<g id="a_edge5_Node000005_Node000002"><a xlink:title=" ">
<path fill="none" stroke="#63b8ff" d="M724.31,-147.62C636.65,-139.72 486.5,-125.08 358.25,-107 348.71,-105.66 338.72,-104.1 328.83,-102.47"/>
<polygon fill="#63b8ff" stroke="#63b8ff" points="329.67,-99.07 319.23,-100.86 328.51,-105.97 329.67,-99.07"/>
</a>
</g>
</g>
<!-- Node6&#45;&gt;Node2 -->
<g id="edge7_Node000006_Node000002" class="edge">
<title>Node6&#45;&gt;Node2</title>
<g id="a_edge7_Node000006_Node000002"><a xlink:title=" ">
<path fill="none" stroke="#63b8ff" d="M731.22,-22.96C644.74,-32.17 490,-49.52 358.25,-69 348.72,-70.41 338.74,-72 328.85,-73.65"/>
<polygon fill="#63b8ff" stroke="#63b8ff" points="328.53,-70.16 319.25,-75.28 329.7,-77.06 328.53,-70.16"/>
</a>
</g>
</g>
</g>
</svg>
