<?xml version="1.0" encoding="UTF-8" standalone="no"?>
<!DOCTYPE svg PUBLIC "-//W3C//DTD SVG 1.1//EN"
 "http://www.w3.org/Graphics/SVG/1.1/DTD/svg11.dtd">
<!-- Generated by graphviz version 14.1.1 (20251213.1925)
 -->
<!-- Title: ConnectionGraphicsItem::calculateControlPointFromDirection Pages: 1 -->
<svg width="678pt" height="90pt"
 viewBox="0.00 0.00 678.00 90.00" xmlns="http://www.w3.org/2000/svg" xmlns:xlink="http://www.w3.org/1999/xlink">
<g id="graph0" class="graph" transform="scale(1 1) rotate(0) translate(4 86)">
<title>ConnectionGraphicsItem::calculateControlPointFromDirection</title>
<!-- Node1 -->
<g id="Node000001" class="node">
<title>Node1</title>
<g id="a_Node000001"><a xlink:title=" ">
<polygon fill="#999999" stroke="#666666" points="670,-57 493.5,-57 493.5,-25 670,-25 670,-57"/>
<text xml:space="preserve" text-anchor="start" x="501.5" y="-43.5" font-family="Helvetica,sans-Serif" font-size="10.00">ConnectionGraphicsItem</text>
<text xml:space="preserve" text-anchor="middle" x="581.75" y="-31.5" font-family="Helvetica,sans-Serif" font-size="10.00">::calculateControlPointFromDirection</text>
</a>
</g>
</g>
<!-- Node2 -->
<g id="Node000002" class="node">
<title>Node2</title>
<g id="a_Node000002"><a xlink:href="class_connection_graphics_item.html#ab2ce5adc2d399026c9393fca5d8b6714" target="_top" xlink:title=" ">
<polygon fill="white" stroke="#666666" points="457.5,-57 333.5,-57 333.5,-25 457.5,-25 457.5,-57"/>
<text xml:space="preserve" text-anchor="start" x="341.5" y="-43.5" font-family="Helvetica,sans-Serif" font-size="10.00">ConnectionGraphicsItem</text>
<text xml:space="preserve" text-anchor="middle" x="395.5" y="-31.5" font-family="Helvetica,sans-Serif" font-size="10.00">::createBezierPath</text>
</a>
</g>
</g>
<!-- Node1&#45;&gt;Node2 -->
<g id="edge1_Node000001_Node000002" class="edge">
<title>Node1&#45;&gt;Node2</title>
<g id="a_edge1_Node000001_Node000002"><a xlink:title=" ">
<path fill="none" stroke="#63b8ff" d="M481.98,-41C473.75,-41 465.6,-41 457.78,-41"/>
<polygon fill="#63b8ff" stroke="#63b8ff" points="481.7,-44.5 491.7,-41 481.7,-37.5 481.7,-44.5"/>
</a>
</g>
</g>
<!-- Node3 -->
<g id="Node000003" class="node">
<title>Node3</title>
<g id="a_Node000003"><a xlink:href="class_connection_graphics_item.html#aa15031a5befb8eb5f1287e55ce484aa2" target="_top" xlink:title=" ">
<polygon fill="white" stroke="#666666" points="297.5,-82 173.5,-82 173.5,-50 297.5,-50 297.5,-82"/>
<text xml:space="preserve" text-anchor="start" x="181.5" y="-68.5" font-family="Helvetica,sans-Serif" font-size="10.00">ConnectionGraphicsItem</text>
<text xml:space="preserve" text-anchor="middle" x="235.5" y="-56.5" font-family="Helvetica,sans-Serif" font-size="10.00">::paint</text>
</a>
</g>
</g>
<!-- Node2&#45;&gt;Node3 -->
<g id="edge2_Node000002_Node000003" class="edge">
<title>Node2&#45;&gt;Node3</title>
<g id="a_edge2_Node000002_Node000003"><a xlink:title=" ">
<path fill="none" stroke="#63b8ff" d="M322.1,-52.46C314.03,-53.73 305.86,-55.02 297.95,-56.28"/>
<polygon fill="#63b8ff" stroke="#63b8ff" points="322.59,-55.92 331.92,-50.9 321.49,-49.01 322.59,-55.92"/>
</a>
</g>
</g>
<!-- Node5 -->
<g id="Node000005" class="node">
<title>Node5</title>
<g id="a_Node000005"><a xlink:href="class_connection_graphics_item.html#aeea9fd05b92eeba219efbf363460347c" target="_top" xlink:title=" ">
<polygon fill="white" stroke="#666666" points="297.5,-32 173.5,-32 173.5,0 297.5,0 297.5,-32"/>
<text xml:space="preserve" text-anchor="start" x="181.5" y="-18.5" font-family="Helvetica,sans-Serif" font-size="10.00">ConnectionGraphicsItem</text>
<text xml:space="preserve" text-anchor="middle" x="235.5" y="-6.5" font-family="Helvetica,sans-Serif" font-size="10.00">::shape</text>
</a>
</g>
</g>
<!-- Node2&#45;&gt;Node5 -->
<g id="edge4_Node000002_Node000005" class="edge">
<title>Node2&#45;&gt;Node5</title>
<g id="a_edge4_Node000002_Node000005"><a xlink:title=" ">
<path fill="none" stroke="#63b8ff" d="M322.1,-29.54C314.03,-28.27 305.86,-26.98 297.95,-25.72"/>
<polygon fill="#63b8ff" stroke="#63b8ff" points="321.49,-32.99 331.92,-31.1 322.59,-26.08 321.49,-32.99"/>
</a>
</g>
</g>
<!-- Node4 -->
<g id="Node000004" class="node">
<title>Node4</title>
<g id="a_Node000004"><a xlink:href="class_relationship_connection_line_graphics_item.html#a4c6ae57b385298b1fadf364b34d03829" target="_top" xlink:title=" ">
<polygon fill="white" stroke="#666666" points="137.5,-82 0,-82 0,-50 137.5,-50 137.5,-82"/>
<text xml:space="preserve" text-anchor="start" x="8" y="-68.5" font-family="Helvetica,sans-Serif" font-size="10.00">RelationshipConnectionLine</text>
<text xml:space="preserve" text-anchor="middle" x="68.75" y="-56.5" font-family="Helvetica,sans-Serif" font-size="10.00">GraphicsItem::paint</text>
</a>
</g>
</g>
<!-- Node3&#45;&gt;Node4 -->
<g id="edge3_Node000003_Node000004" class="edge">
<title>Node3&#45;&gt;Node4</title>
<g id="a_edge3_Node000003_Node000004"><a xlink:title=" ">
<path fill="none" stroke="#63b8ff" d="M161.65,-66C153.72,-66 145.67,-66 137.79,-66"/>
<polygon fill="#63b8ff" stroke="#63b8ff" points="161.64,-69.5 171.64,-66 161.64,-62.5 161.64,-69.5"/>
</a>
</g>
</g>
<!-- Node6 -->
<g id="Node000006" class="node">
<title>Node6</title>
<g id="a_Node000006"><a xlink:href="class_relationship_connection_line_graphics_item.html#afc1acb4a0cf1004d31bd2b89bc394d7d" target="_top" xlink:title=" ">
<polygon fill="white" stroke="#666666" points="137.5,-32 0,-32 0,0 137.5,0 137.5,-32"/>
<text xml:space="preserve" text-anchor="start" x="8" y="-18.5" font-family="Helvetica,sans-Serif" font-size="10.00">RelationshipConnectionLine</text>
<text xml:space="preserve" text-anchor="middle" x="68.75" y="-6.5" font-family="Helvetica,sans-Serif" font-size="10.00">GraphicsItem::shape</text>
</a>
</g>
</g>
<!-- Node5&#45;&gt;Node6 -->
<g id="edge5_Node000005_Node000006" class="edge">
<title>Node5&#45;&gt;Node6</title>
<g id="a_edge5_Node000005_Node000006"><a xlink:title=" ">
<path fill="none" stroke="#63b8ff" d="M161.65,-16C153.72,-16 145.67,-16 137.79,-16"/>
<polygon fill="#63b8ff" stroke="#63b8ff" points="161.64,-19.5 171.64,-16 161.64,-12.5 161.64,-19.5"/>
</a>
</g>
</g>
</g>
</svg>
