<?xml version="1.0" encoding="UTF-8" standalone="no"?>
<!DOCTYPE svg PUBLIC "-//W3C//DTD SVG 1.1//EN"
 "http://www.w3.org/Graphics/SVG/1.1/DTD/svg11.dtd">
<!-- Generated by graphviz version 14.1.1 (20251213.1925)
 -->
<!-- Title: Relationship::Relationship Pages: 1 -->
<svg width="1247pt" height="219pt"
 viewBox="0.00 0.00 1247.00 219.00" xmlns="http://www.w3.org/2000/svg" xmlns:xlink="http://www.w3.org/1999/xlink">
<g id="graph0" class="graph" transform="scale(1 1) rotate(0) translate(4 215)">
<title>Relationship::Relationship</title>
<!-- Node1 -->
<g id="Node000001" class="node">
<title>Node1</title>
<g id="a_Node000001"><a xlink:title=" ">
<polygon fill="#999999" stroke="#666666" points="130,-121 0,-121 0,-101 130,-101 130,-121"/>
<text xml:space="preserve" text-anchor="middle" x="65" y="-107.5" font-family="Helvetica,sans-Serif" font-size="10.00">Relationship::Relationship</text>
</a>
</g>
</g>
<!-- Node2 -->
<g id="Node000002" class="node">
<title>Node2</title>
<g id="a_Node000002"><a xlink:href="class_basic_element.html#a85cccd7db0e46e4e2b646365cd6c66a9" target="_top" xlink:title=" ">
<polygon fill="white" stroke="#666666" points="475.5,-140 332,-140 332,-120 475.5,-120 475.5,-140"/>
<text xml:space="preserve" text-anchor="middle" x="403.75" y="-126.5" font-family="Helvetica,sans-Serif" font-size="10.00">BasicElement::BasicElement</text>
</a>
</g>
</g>
<!-- Node1&#45;&gt;Node2 -->
<g id="edge1_Node000001_Node000002" class="edge">
<title>Node1&#45;&gt;Node2</title>
<g id="a_edge1_Node000001_Node000002"><a xlink:title=" ">
<path fill="none" stroke="#63b8ff" d="M130.25,-117.24C142.13,-118.26 154.43,-119.24 166,-120 217.28,-123.39 274.88,-125.85 320.43,-127.48"/>
<polygon fill="#63b8ff" stroke="#63b8ff" points="320.11,-130.98 330.23,-127.83 320.35,-123.98 320.11,-130.98"/>
</a>
</g>
</g>
<!-- Node9 -->
<g id="Node000009" class="node">
<title>Node9</title>
<g id="a_Node000009"><a xlink:href="class_relationship.html#a7029bae7f63e705126cf2776602e0b52" target="_top" xlink:title=" ">
<polygon fill="white" stroke="#666666" points="296,-93 166,-93 166,-73 296,-73 296,-93"/>
<text xml:space="preserve" text-anchor="middle" x="231" y="-79.5" font-family="Helvetica,sans-Serif" font-size="10.00">Relationship::Relationship</text>
</a>
</g>
</g>
<!-- Node1&#45;&gt;Node9 -->
<g id="edge8_Node000001_Node000009" class="edge">
<title>Node1&#45;&gt;Node9</title>
<g id="a_edge8_Node000001_Node000009"><a xlink:title=" ">
<path fill="none" stroke="#63b8ff" d="M127.07,-100.57C136.93,-98.89 147.22,-97.13 157.32,-95.41"/>
<polygon fill="#63b8ff" stroke="#63b8ff" points="157.85,-98.87 167.12,-93.74 156.67,-91.97 157.85,-98.87"/>
</a>
</g>
</g>
<!-- Node3 -->
<g id="Node000003" class="node">
<title>Node3</title>
<g id="a_Node000003"><a xlink:href="class_basic_element.html#a78e2ce29aa5b2a9fae74cf435996ce8b" target="_top" xlink:title=" ">
<polygon fill="white" stroke="#666666" points="665.5,-186 521.25,-186 521.25,-154 665.5,-154 665.5,-186"/>
<text xml:space="preserve" text-anchor="start" x="529.25" y="-172.5" font-family="Helvetica,sans-Serif" font-size="10.00">BasicElement::createAndAdd</text>
<text xml:space="preserve" text-anchor="middle" x="593.38" y="-160.5" font-family="Helvetica,sans-Serif" font-size="10.00">DefaultConnectionPoints</text>
</a>
</g>
</g>
<!-- Node2&#45;&gt;Node3 -->
<g id="edge2_Node000002_Node000003" class="edge">
<title>Node2&#45;&gt;Node3</title>
<g id="a_edge2_Node000002_Node000003"><a xlink:title=" ">
<path fill="none" stroke="#63b8ff" d="M453.56,-140.41C470.71,-144.06 490.5,-148.28 509.66,-152.37"/>
<polygon fill="#63b8ff" stroke="#63b8ff" points="508.85,-155.77 519.36,-154.43 510.31,-148.93 508.85,-155.77"/>
</a>
</g>
</g>
<!-- Node8 -->
<g id="Node000008" class="node">
<title>Node8</title>
<g id="a_Node000008"><a xlink:href="class_basic_element.html#abb80391f2c11a0eb2fe2b21d53967450" target="_top" xlink:title=" ">
<polygon fill="white" stroke="#666666" points="675.25,-136 511.5,-136 511.5,-116 675.25,-116 675.25,-136"/>
<text xml:space="preserve" text-anchor="middle" x="593.38" y="-122.5" font-family="Helvetica,sans-Serif" font-size="10.00">BasicElement::stringElementType</text>
</a>
</g>
</g>
<!-- Node2&#45;&gt;Node8 -->
<g id="edge7_Node000002_Node000008" class="edge">
<title>Node2&#45;&gt;Node8</title>
<g id="a_edge7_Node000002_Node000008"><a xlink:title=" ">
<path fill="none" stroke="#63b8ff" d="M475.95,-128.48C483.77,-128.32 491.82,-128.14 499.85,-127.97"/>
<polygon fill="#63b8ff" stroke="#63b8ff" points="499.73,-131.48 509.66,-127.76 499.58,-124.48 499.73,-131.48"/>
</a>
</g>
</g>
<!-- Node4 -->
<g id="Node000004" class="node">
<title>Node4</title>
<g id="a_Node000004"><a xlink:href="class_basic_element.html#a0357bfa9b1ef06dd1c9d64bcb00813f4" target="_top" xlink:title=" ">
<polygon fill="white" stroke="#666666" points="861.5,-211 713.5,-211 713.5,-179 861.5,-179 861.5,-211"/>
<text xml:space="preserve" text-anchor="start" x="721.5" y="-197.5" font-family="Helvetica,sans-Serif" font-size="10.00">BasicElement::addConnection</text>
<text xml:space="preserve" text-anchor="middle" x="787.5" y="-185.5" font-family="Helvetica,sans-Serif" font-size="10.00">Point</text>
</a>
</g>
</g>
<!-- Node3&#45;&gt;Node4 -->
<g id="edge3_Node000003_Node000004" class="edge">
<title>Node3&#45;&gt;Node4</title>
<g id="a_edge3_Node000003_Node000004"><a xlink:title=" ">
<path fill="none" stroke="#63b8ff" d="M665.92,-179.31C677.64,-180.83 689.88,-182.43 701.89,-183.99"/>
<polygon fill="#63b8ff" stroke="#63b8ff" points="701.43,-187.46 711.8,-185.28 702.33,-180.52 701.43,-187.46"/>
</a>
</g>
</g>
<!-- Node5 -->
<g id="Node000005" class="node">
<title>Node5</title>
<g id="a_Node000005"><a xlink:href="class_connection_point.html#af57583f18ef35d9b3eafa83665e7ebe4" target="_top" xlink:title=" ">
<polygon fill="white" stroke="#666666" points="863.75,-161 711.25,-161 711.25,-129 863.75,-129 863.75,-161"/>
<text xml:space="preserve" text-anchor="start" x="719.25" y="-147.5" font-family="Helvetica,sans-Serif" font-size="10.00">ConnectionPoint::createDefault</text>
<text xml:space="preserve" text-anchor="middle" x="787.5" y="-135.5" font-family="Helvetica,sans-Serif" font-size="10.00">ConnectionPoints</text>
</a>
</g>
</g>
<!-- Node3&#45;&gt;Node5 -->
<g id="edge4_Node000003_Node000005" class="edge">
<title>Node3&#45;&gt;Node5</title>
<g id="a_edge4_Node000003_Node000005"><a xlink:title=" ">
<path fill="none" stroke="#63b8ff" d="M665.92,-160.69C676.96,-159.25 688.46,-157.76 699.79,-156.28"/>
<polygon fill="#63b8ff" stroke="#63b8ff" points="700.08,-159.78 709.54,-155.01 699.17,-152.83 700.08,-159.78"/>
</a>
</g>
</g>
<!-- Node6 -->
<g id="Node000006" class="node">
<title>Node6</title>
<g id="a_Node000006"><a xlink:href="class_connection_point.html#a7b8c2910eb504959c4211764a9abc2e8" target="_top" xlink:title=" ">
<polygon fill="white" stroke="#666666" points="1059,-161 899.75,-161 899.75,-129 1059,-129 1059,-161"/>
<text xml:space="preserve" text-anchor="start" x="907.75" y="-147.5" font-family="Helvetica,sans-Serif" font-size="10.00">ConnectionPoint::addConnection</text>
<text xml:space="preserve" text-anchor="middle" x="979.38" y="-135.5" font-family="Helvetica,sans-Serif" font-size="10.00">Point</text>
</a>
</g>
</g>
<!-- Node5&#45;&gt;Node6 -->
<g id="edge5_Node000005_Node000006" class="edge">
<title>Node5&#45;&gt;Node6</title>
<g id="a_edge5_Node000005_Node000006"><a xlink:title=" ">
<path fill="none" stroke="#63b8ff" d="M864.09,-145C871.96,-145 880.02,-145 888.03,-145"/>
<polygon fill="#63b8ff" stroke="#63b8ff" points="887.8,-148.5 897.8,-145 887.8,-141.5 887.8,-148.5"/>
</a>
</g>
</g>
<!-- Node7 -->
<g id="Node000007" class="node">
<title>Node7</title>
<g id="a_Node000007"><a xlink:href="class_connection_point.html#ac498b99d7f91805fea3eab19f2e8b260" target="_top" xlink:title=" ">
<polygon fill="white" stroke="#666666" points="1238.5,-161 1095,-161 1095,-129 1238.5,-129 1238.5,-161"/>
<text xml:space="preserve" text-anchor="start" x="1103" y="-147.5" font-family="Helvetica,sans-Serif" font-size="10.00">ConnectionPoint::Connection</text>
<text xml:space="preserve" text-anchor="middle" x="1166.75" y="-135.5" font-family="Helvetica,sans-Serif" font-size="10.00">Point</text>
</a>
</g>
</g>
<!-- Node6&#45;&gt;Node7 -->
<g id="edge6_Node000006_Node000007" class="edge">
<title>Node6&#45;&gt;Node7</title>
<g id="a_edge6_Node000006_Node000007"><a xlink:title=" ">
<path fill="none" stroke="#63b8ff" d="M1059.26,-145C1067.14,-145 1075.15,-145 1083.07,-145"/>
<polygon fill="#63b8ff" stroke="#63b8ff" points="1083.06,-148.5 1093.06,-145 1083.06,-141.5 1083.06,-148.5"/>
</a>
</g>
</g>
<!-- Node9&#45;&gt;Node2 -->
<g id="edge9_Node000009_Node000002" class="edge">
<title>Node9&#45;&gt;Node2</title>
<g id="a_edge9_Node000009_Node000002"><a xlink:title=" ">
<path fill="none" stroke="#63b8ff" d="M269.89,-93.43C294.57,-100.22 327,-109.15 353.64,-116.48"/>
<polygon fill="#63b8ff" stroke="#63b8ff" points="352.64,-119.84 363.21,-119.12 354.49,-113.09 352.64,-119.84"/>
</a>
</g>
</g>
<!-- Node9&#45;&gt;Node9 -->
<g id="edge11_Node000009_Node000009" class="edge">
<title>Node9&#45;&gt;Node9</title>
<g id="a_edge11_Node000009_Node000009"><a xlink:title=" ">
<path fill="none" stroke="#63b8ff" d="M204.62,-93.34C193.35,-101.98 202.14,-111 231,-111 246.78,-111 256.56,-108.3 260.34,-104.44"/>
<polygon fill="#63b8ff" stroke="#63b8ff" points="263.73,-103.56 257.77,-94.8 256.96,-105.37 263.73,-103.56"/>
</a>
</g>
</g>
<!-- Node10 -->
<g id="Node000010" class="node">
<title>Node10</title>
<g id="a_Node000010"><a xlink:href="class_relationship.html#afdc74fcf0c54abc297ee3c6239d9a867" target="_top" xlink:title=" ">
<polygon fill="white" stroke="#666666" points="470.62,-96 336.88,-96 336.88,-76 470.62,-76 470.62,-96"/>
<text xml:space="preserve" text-anchor="middle" x="403.75" y="-82.5" font-family="Helvetica,sans-Serif" font-size="10.00">Relationship::preferredSize</text>
</a>
</g>
</g>
<!-- Node9&#45;&gt;Node10 -->
<g id="edge10_Node000009_Node000010" class="edge">
<title>Node9&#45;&gt;Node10</title>
<g id="a_edge10_Node000009_Node000010"><a xlink:title=" ">
<path fill="none" stroke="#63b8ff" d="M296.07,-84.13C305.59,-84.29 315.49,-84.47 325.25,-84.64"/>
<polygon fill="#63b8ff" stroke="#63b8ff" points="325.04,-88.14 335.1,-84.81 325.16,-81.14 325.04,-88.14"/>
</a>
</g>
</g>
<!-- Node11 -->
<g id="Node000011" class="node">
<title>Node11</title>
<g id="a_Node000011"><a xlink:href="class_basic_element.html#ab86c964c6ef9e8d7299efc263a0837e7" target="_top" xlink:title=" ">
<polygon fill="white" stroke="#666666" points="461.62,-58 345.88,-58 345.88,-38 461.62,-38 461.62,-58"/>
<text xml:space="preserve" text-anchor="middle" x="403.75" y="-44.5" font-family="Helvetica,sans-Serif" font-size="10.00">BasicElement::setSize</text>
</a>
</g>
</g>
<!-- Node9&#45;&gt;Node11 -->
<g id="edge12_Node000009_Node000011" class="edge">
<title>Node9&#45;&gt;Node11</title>
<g id="a_edge12_Node000009_Node000011"><a xlink:title=" ">
<path fill="none" stroke="#63b8ff" d="M282.77,-72.59C300.84,-68.89 321.41,-64.67 340.35,-60.79"/>
<polygon fill="#63b8ff" stroke="#63b8ff" points="341.01,-64.23 350.1,-58.79 339.61,-57.37 341.01,-64.23"/>
</a>
</g>
</g>
<!-- Node12 -->
<g id="Node000012" class="node">
<title>Node12</title>
<g id="a_Node000012"><a xlink:href="class_basic_element.html#a2cb2eb803daa35380908948215f8d468" target="_top" xlink:title=" ">
<polygon fill="white" stroke="#666666" points="664.38,-96 522.38,-96 522.38,-76 664.38,-76 664.38,-96"/>
<text xml:space="preserve" text-anchor="middle" x="593.38" y="-82.5" font-family="Helvetica,sans-Serif" font-size="10.00">BasicElement::minimumSize</text>
</a>
</g>
</g>
<!-- Node11&#45;&gt;Node12 -->
<g id="edge13_Node000011_Node000012" class="edge">
<title>Node11&#45;&gt;Node12</title>
<g id="a_edge13_Node000011_Node000012"><a xlink:title=" ">
<path fill="none" stroke="#63b8ff" d="M456.52,-58.48C479.18,-63.07 505.96,-68.5 529.74,-73.31"/>
<polygon fill="#63b8ff" stroke="#63b8ff" points="528.8,-76.69 539.29,-75.25 530.19,-69.83 528.8,-76.69"/>
</a>
</g>
</g>
<!-- Node13 -->
<g id="Node000013" class="node">
<title>Node13</title>
<g id="a_Node000013"><a xlink:href="class_basic_element.html#a596caee40cdd00a0aacce49689b63f92" target="_top" xlink:title=" ">
<polygon fill="white" stroke="#666666" points="669.25,-58 517.5,-58 517.5,-38 669.25,-38 669.25,-58"/>
<text xml:space="preserve" text-anchor="middle" x="593.38" y="-44.5" font-family="Helvetica,sans-Serif" font-size="10.00">BasicElement::notifyObservers</text>
</a>
</g>
</g>
<!-- Node11&#45;&gt;Node13 -->
<g id="edge14_Node000011_Node000013" class="edge">
<title>Node11&#45;&gt;Node13</title>
<g id="a_edge14_Node000011_Node000013"><a xlink:title=" ">
<path fill="none" stroke="#63b8ff" d="M462.06,-48C475.89,-48 490.97,-48 505.81,-48"/>
<polygon fill="#63b8ff" stroke="#63b8ff" points="505.57,-51.5 515.56,-48 505.56,-44.5 505.57,-51.5"/>
</a>
</g>
</g>
<!-- Node14 -->
<g id="Node000014" class="node">
<title>Node14</title>
<g id="a_Node000014"><a xlink:href="class_basic_element.html#a542adbf85a58c5c9bf17975964d7e446" target="_top" xlink:title=" ">
<polygon fill="white" stroke="#666666" points="643.75,-20 543,-20 543,0 643.75,0 643.75,-20"/>
<text xml:space="preserve" text-anchor="middle" x="593.38" y="-6.5" font-family="Helvetica,sans-Serif" font-size="10.00">BasicElement::size</text>
</a>
</g>
</g>
<!-- Node11&#45;&gt;Node14 -->
<g id="edge15_Node000011_Node000014" class="edge">
<title>Node11&#45;&gt;Node14</title>
<g id="a_edge15_Node000011_Node000014"><a xlink:title=" ">
<path fill="none" stroke="#63b8ff" d="M456.52,-37.52C479.74,-32.81 507.29,-27.23 531.5,-22.33"/>
<polygon fill="#63b8ff" stroke="#63b8ff" points="532.13,-25.77 541.23,-20.36 530.74,-18.91 532.13,-25.77"/>
</a>
</g>
</g>
</g>
</svg>
