<?xml version="1.0" encoding="UTF-8" standalone="no"?>
<!DOCTYPE svg PUBLIC "-//W3C//DTD SVG 1.1//EN"
 "http://www.w3.org/Graphics/SVG/1.1/DTD/svg11.dtd">
<!-- Generated by graphviz version 14.1.1 (20251213.1925)
 -->
<!-- Title: MainWindow::onAddEntityClicked Pages: 1 -->
<svg width="360pt" height="78pt"
 viewBox="0.00 0.00 360.00 78.00" xmlns="http://www.w3.org/2000/svg" xmlns:xlink="http://www.w3.org/1999/xlink">
<g id="graph0" class="graph" transform="scale(1 1) rotate(0) translate(4 74)">
<title>MainWindow::onAddEntityClicked</title>
<!-- Node1 -->
<g id="Node000001" class="node">
<title>Node1</title>
<g id="a_Node000001"><a xlink:title=" ">
<polygon fill="#999999" stroke="#666666" points="164.5,-48 0,-48 0,-28 164.5,-28 164.5,-48"/>
<text xml:space="preserve" text-anchor="middle" x="82.25" y="-34.5" font-family="Helvetica,sans-Serif" font-size="10.00">MainWindow::onAddEntityClicked</text>
</a>
</g>
</g>
<!-- Node2 -->
<g id="Node000002" class="node">
<title>Node2</title>
<g id="a_Node000002"><a xlink:href="class_main_window.html#a51ab21a1be4a1389a00bdb35feee8d64" target="_top" xlink:title=" ">
<polygon fill="white" stroke="#666666" points="351.5,-70 200.5,-70 200.5,-50 351.5,-50 351.5,-70"/>
<text xml:space="preserve" text-anchor="middle" x="276" y="-56.5" font-family="Helvetica,sans-Serif" font-size="10.00">MainWindow::updateStatusBar</text>
</a>
</g>
</g>
<!-- Node1&#45;&gt;Node2 -->
<g id="edge1_Node000001_Node000002" class="edge">
<title>Node1&#45;&gt;Node2</title>
<g id="a_edge1_Node000001_Node000002"><a xlink:title=" ">
<path fill="none" stroke="#63b8ff" d="M164.85,-47.36C172.81,-48.28 180.92,-49.21 188.93,-50.12"/>
<polygon fill="#63b8ff" stroke="#63b8ff" points="188.33,-53.58 198.66,-51.24 189.13,-46.62 188.33,-53.58"/>
</a>
</g>
</g>
<!-- Node3 -->
<g id="Node000003" class="node">
<title>Node3</title>
<g id="a_Node000003"><a xlink:href="class_main_window.html#a90cfbcf2e0f2549760a60f184ee0acbf" target="_top" xlink:title=" ">
<polygon fill="white" stroke="#666666" points="347.38,-32 204.62,-32 204.62,0 347.38,0 347.38,-32"/>
<text xml:space="preserve" text-anchor="start" x="212.62" y="-18.5" font-family="Helvetica,sans-Serif" font-size="10.00">MainWindow::updateWindow</text>
<text xml:space="preserve" text-anchor="middle" x="276" y="-6.5" font-family="Helvetica,sans-Serif" font-size="10.00">Title</text>
</a>
</g>
</g>
<!-- Node1&#45;&gt;Node3 -->
<g id="edge2_Node000001_Node000003" class="edge">
<title>Node1&#45;&gt;Node3</title>
<g id="a_edge2_Node000001_Node000003"><a xlink:title=" ">
<path fill="none" stroke="#63b8ff" d="M164.85,-28.64C174.2,-27.57 183.73,-26.47 193.08,-25.4"/>
<polygon fill="#63b8ff" stroke="#63b8ff" points="193.34,-28.89 202.87,-24.28 192.54,-21.94 193.34,-28.89"/>
</a>
</g>
</g>
</g>
</svg>
