<?xml version="1.0" encoding="UTF-8" standalone="no"?>
<!DOCTYPE svg PUBLIC "-//W3C//DTD SVG 1.1//EN"
 "http://www.w3.org/Graphics/SVG/1.1/DTD/svg11.dtd">
<!-- Generated by graphviz version 14.1.1 (20251213.1925)
 -->
<!-- Title: Entity::Entity Pages: 1 -->
<!--zoomable 206 -->

<svg id="main" version="1.1" xmlns="http://www.w3.org/2000/svg" xmlns:xlink="http://www.w3.org/1999/xlink" xml:space="preserve" onload="init(evt)">

<style type="text/css"><![CDATA[
.node, .edge {opacity: 0.7;}
.node.selected, .edge.selected {opacity: 1;}
.edge:hover path { stroke: red; }
.edge:hover polygon { stroke: red; fill: red; }
]]></style>

<defs>
  <circle id="rim" cx="0" cy="0" r="7"/>
  <circle id="rim2" cx="0" cy="0" r="3.5"/>
  <g id="zoomPlus">
    <use xlink:href="#rim" fill="#404040"><set attributeName="fill" to="#808080" begin="zoomplus.mouseover" end="zoomplus.mouseout"/></use>
    <path d="M-4,0h8M0,-4v8" fill="none" stroke="white" stroke-width="1.5" pointer-events="none"/>
  </g>
  <g id="zoomMin">
    <use xlink:href="#rim" fill="#404040"><set attributeName="fill" to="#808080" begin="zoomminus.mouseover" end="zoomminus.mouseout"/></use>
    <path d="M-4,0h8" fill="none" stroke="white" stroke-width="1.5" pointer-events="none"/>
  </g>
  <g id="arrowUp" transform="translate(30 24)">
    <use xlink:href="#rim"/>
    <path pointer-events="none" fill="none" stroke="white" stroke-width="1.5" d="M0,-3.0v7 M-2.5,-0.5L0,-3.0L2.5,-0.5"/>
  </g>
  <g id="arrowRight" transform="rotate(90) translate(36 -43)">
    <use xlink:href="#rim"/>
    <path pointer-events="none" fill="none" stroke="white" stroke-width="1.5" d="M0,-3.0v7 M-2.5,-0.5L0,-3.0L2.5,-0.5"/>
  </g>
  <g id="arrowDown" transform="rotate(180) translate(-30 -48)">
    <use xlink:href="#rim"/>
    <path pointer-events="none" fill="none" stroke="white" stroke-width="1.5" d="M0,-3.0v7 M-2.5,-0.5L0,-3.0L2.5,-0.5"/>
  </g>
  <g id="arrowLeft" transform="rotate(270) translate(-36 17)">
    <use xlink:href="#rim"/>
    <path pointer-events="none" fill="none" stroke="white" stroke-width="1.5" d="M0,-3.0v7 M-2.5,-0.5L0,-3.0L2.5,-0.5"/>
  </g>
  <g id="resetDef">
    <use xlink:href="#rim2" fill="#404040"><set attributeName="fill" to="#808080" begin="reset.mouseover" end="reset.mouseout"/></use>
  </g>
</defs>
<script type="application/ecmascript">
var viewWidth = 1182;
var viewHeight = 206;
var sectionId = 'dynsection-4';
</script>
<script type="application/ecmascript" xlink:href="svg.min.js"/>
<svg id="graph" class="graph">
<g id="viewport">
<title>Entity::Entity</title>
<!-- Node1 -->
<g id="Node000001" class="node">
<title>Node1</title>
<g id="a_Node000001"><a xlink:title=" ">
<polygon fill="#999999" stroke="#666666" points="73,-96 0,-96 0,-76 73,-76 73,-96"/>
<text xml:space="preserve" text-anchor="middle" x="36.5" y="-82.5" font-family="Helvetica,sans-Serif" font-size="10.00">Entity::Entity</text>
</a>
</g>
</g>
<!-- Node2 -->
<g id="Node000002" class="node">
<title>Node2</title>
<g id="a_Node000002"><a xlink:href="class_basic_element.html#a85cccd7db0e46e4e2b646365cd6c66a9" target="_top" xlink:title=" ">
<polygon fill="white" stroke="#666666" points="411,-176 267.5,-176 267.5,-156 411,-156 411,-176"/>
<text xml:space="preserve" text-anchor="middle" x="339.25" y="-162.5" font-family="Helvetica,sans-Serif" font-size="10.00">BasicElement::BasicElement</text>
</a>
</g>
</g>
<!-- Node1&#45;&gt;Node2 -->
<g id="edge1_Node000001_Node000002" class="edge">
<title>Node1&#45;&gt;Node2</title>
<g id="a_edge1_Node000001_Node000002"><a xlink:title=" ">
<path fill="none" stroke="#63b8ff" d="M46.5,-96.13C59.03,-109.48 83.12,-132.47 109,-143 155.18,-161.8 210.74,-167.74 255.6,-168.89"/>
<polygon fill="#63b8ff" stroke="#63b8ff" points="255.48,-172.39 265.54,-169.06 255.6,-165.39 255.48,-172.39"/>
</a>
</g>
</g>
<!-- Node9 -->
<g id="Node000009" class="node">
<title>Node9</title>
<g id="a_Node000009"><a xlink:href="class_entity.html#a832667fda0ef14f127465d2837132244" target="_top" xlink:title=" ">
<polygon fill="white" stroke="#666666" points="206.75,-96 133.75,-96 133.75,-76 206.75,-76 206.75,-96"/>
<text xml:space="preserve" text-anchor="middle" x="170.25" y="-82.5" font-family="Helvetica,sans-Serif" font-size="10.00">Entity::Entity</text>
</a>
</g>
</g>
<!-- Node1&#45;&gt;Node9 -->
<g id="edge8_Node000001_Node000009" class="edge">
<title>Node1&#45;&gt;Node9</title>
<g id="a_edge8_Node000001_Node000009"><a xlink:title=" ">
<path fill="none" stroke="#63b8ff" d="M73.15,-86C88.24,-86 106.02,-86 122.17,-86"/>
<polygon fill="#63b8ff" stroke="#63b8ff" points="122.05,-89.5 132.05,-86 122.05,-82.5 122.05,-89.5"/>
</a>
</g>
</g>
<!-- Node10 -->
<g id="Node000010" class="node">
<title>Node10</title>
<g id="a_Node000010"><a xlink:href="class_entity.html#a237af8c74037b83ace59083cf9af53f4" target="_top" xlink:title=" ">
<polygon fill="white" stroke="#666666" points="391.88,-135 286.62,-135 286.62,-115 391.88,-115 391.88,-135"/>
<text xml:space="preserve" text-anchor="middle" x="339.25" y="-121.5" font-family="Helvetica,sans-Serif" font-size="10.00">Entity::preferredSize</text>
</a>
</g>
</g>
<!-- Node1&#45;&gt;Node10 -->
<g id="edge16_Node000001_Node000010" class="edge">
<title>Node1&#45;&gt;Node10</title>
<g id="a_edge16_Node000001_Node000010"><a xlink:title=" ">
<path fill="none" stroke="#63b8ff" d="M52.56,-96.47C66.48,-105.48 88.11,-117.82 109,-123 163.84,-136.6 228.36,-135.73 274.96,-132.26"/>
<polygon fill="#63b8ff" stroke="#63b8ff" points="275.21,-135.75 284.89,-131.45 274.64,-128.77 275.21,-135.75"/>
</a>
</g>
</g>
<!-- Node11 -->
<g id="Node000011" class="node">
<title>Node11</title>
<g id="a_Node000011"><a xlink:href="class_basic_element.html#ab86c964c6ef9e8d7299efc263a0837e7" target="_top" xlink:title=" ">
<polygon fill="white" stroke="#666666" points="397.12,-58 281.38,-58 281.38,-38 397.12,-38 397.12,-58"/>
<text xml:space="preserve" text-anchor="middle" x="339.25" y="-44.5" font-family="Helvetica,sans-Serif" font-size="10.00">BasicElement::setSize</text>
</a>
</g>
</g>
<!-- Node1&#45;&gt;Node11 -->
<g id="edge19_Node000001_Node000011" class="edge">
<title>Node1&#45;&gt;Node11</title>
<g id="a_edge19_Node000001_Node000011"><a xlink:title=" ">
<path fill="none" stroke="#63b8ff" d="M71.78,-75.57C83.49,-72.36 96.72,-69.12 109,-67 162.51,-57.75 223.85,-52.96 269.61,-50.51"/>
<polygon fill="#63b8ff" stroke="#63b8ff" points="269.58,-54.02 279.38,-50.01 269.22,-47.03 269.58,-54.02"/>
</a>
</g>
</g>
<!-- Node15 -->
<g id="Node000015" class="node">
<title>Node15</title>
<g id="a_Node000015"><a xlink:href="class_basic_element.html#a42ea6812e7627bb99af54cab547aa803" target="_top" xlink:title=" ">
<polygon fill="white" stroke="#666666" points="231.5,-20 109,-20 109,0 231.5,0 231.5,-20"/>
<text xml:space="preserve" text-anchor="middle" x="170.25" y="-6.5" font-family="Helvetica,sans-Serif" font-size="10.00">BasicElement::setName</text>
</a>
</g>
</g>
<!-- Node1&#45;&gt;Node15 -->
<g id="edge17_Node000001_Node000015" class="edge">
<title>Node1&#45;&gt;Node15</title>
<g id="a_edge17_Node000001_Node000015"><a xlink:title=" ">
<path fill="none" stroke="#63b8ff" d="M49.77,-75.6C63.53,-64.3 86.82,-46.23 109,-34 115.15,-30.61 121.87,-27.45 128.53,-24.6"/>
<polygon fill="#63b8ff" stroke="#63b8ff" points="129.5,-27.99 137.45,-20.98 126.86,-21.5 129.5,-27.99"/>
</a>
</g>
</g>
<!-- Node3 -->
<g id="Node000003" class="node">
<title>Node3</title>
<g id="a_Node000003"><a xlink:href="class_basic_element.html#a78e2ce29aa5b2a9fae74cf435996ce8b" target="_top" xlink:title=" ">
<polygon fill="white" stroke="#666666" points="601,-160 456.75,-160 456.75,-128 601,-128 601,-160"/>
<text xml:space="preserve" text-anchor="start" x="464.75" y="-146.5" font-family="Helvetica,sans-Serif" font-size="10.00">BasicElement::createAndAdd</text>
<text xml:space="preserve" text-anchor="middle" x="528.88" y="-134.5" font-family="Helvetica,sans-Serif" font-size="10.00">DefaultConnectionPoints</text>
</a>
</g>
</g>
<!-- Node2&#45;&gt;Node3 -->
<g id="edge2_Node000002_Node000003" class="edge">
<title>Node2&#45;&gt;Node3</title>
<g id="a_edge2_Node000002_Node000003"><a xlink:title=" ">
<path fill="none" stroke="#63b8ff" d="M411.45,-157.65C422.49,-156.36 433.98,-155.01 445.24,-153.69"/>
<polygon fill="#63b8ff" stroke="#63b8ff" points="445.38,-157.2 454.91,-152.56 444.57,-150.24 445.38,-157.2"/>
</a>
</g>
</g>
<!-- Node8 -->
<g id="Node000008" class="node">
<title>Node8</title>
<g id="a_Node000008"><a xlink:href="class_basic_element.html#abb80391f2c11a0eb2fe2b21d53967450" target="_top" xlink:title=" ">
<polygon fill="white" stroke="#666666" points="610.75,-198 447,-198 447,-178 610.75,-178 610.75,-198"/>
<text xml:space="preserve" text-anchor="middle" x="528.88" y="-184.5" font-family="Helvetica,sans-Serif" font-size="10.00">BasicElement::stringElementType</text>
</a>
</g>
</g>
<!-- Node2&#45;&gt;Node8 -->
<g id="edge7_Node000002_Node000008" class="edge">
<title>Node2&#45;&gt;Node8</title>
<g id="a_edge7_Node000002_Node000008"><a xlink:title=" ">
<path fill="none" stroke="#63b8ff" d="M411.45,-174.35C419.27,-175.27 427.32,-176.21 435.35,-177.15"/>
<polygon fill="#63b8ff" stroke="#63b8ff" points="434.83,-180.61 445.17,-178.3 435.64,-173.66 434.83,-180.61"/>
</a>
</g>
</g>
<!-- Node4 -->
<g id="Node000004" class="node">
<title>Node4</title>
<g id="a_Node000004"><a xlink:href="class_basic_element.html#a0357bfa9b1ef06dd1c9d64bcb00813f4" target="_top" xlink:title=" ">
<polygon fill="white" stroke="#666666" points="797,-185 649,-185 649,-153 797,-153 797,-185"/>
<text xml:space="preserve" text-anchor="start" x="657" y="-171.5" font-family="Helvetica,sans-Serif" font-size="10.00">BasicElement::addConnection</text>
<text xml:space="preserve" text-anchor="middle" x="723" y="-159.5" font-family="Helvetica,sans-Serif" font-size="10.00">Point</text>
</a>
</g>
</g>
<!-- Node3&#45;&gt;Node4 -->
<g id="edge3_Node000003_Node000004" class="edge">
<title>Node3&#45;&gt;Node4</title>
<g id="a_edge3_Node000003_Node000004"><a xlink:title=" ">
<path fill="none" stroke="#63b8ff" d="M601.42,-153.31C613.14,-154.83 625.38,-156.43 637.39,-157.99"/>
<polygon fill="#63b8ff" stroke="#63b8ff" points="636.93,-161.46 647.3,-159.28 637.83,-154.52 636.93,-161.46"/>
</a>
</g>
</g>
<!-- Node5 -->
<g id="Node000005" class="node">
<title>Node5</title>
<g id="a_Node000005"><a xlink:href="class_connection_point.html#af57583f18ef35d9b3eafa83665e7ebe4" target="_top" xlink:title=" ">
<polygon fill="white" stroke="#666666" points="799.25,-135 646.75,-135 646.75,-103 799.25,-103 799.25,-135"/>
<text xml:space="preserve" text-anchor="start" x="654.75" y="-121.5" font-family="Helvetica,sans-Serif" font-size="10.00">ConnectionPoint::createDefault</text>
<text xml:space="preserve" text-anchor="middle" x="723" y="-109.5" font-family="Helvetica,sans-Serif" font-size="10.00">ConnectionPoints</text>
</a>
</g>
</g>
<!-- Node3&#45;&gt;Node5 -->
<g id="edge4_Node000003_Node000005" class="edge">
<title>Node3&#45;&gt;Node5</title>
<g id="a_edge4_Node000003_Node000005"><a xlink:title=" ">
<path fill="none" stroke="#63b8ff" d="M601.42,-134.69C612.46,-133.25 623.96,-131.76 635.29,-130.28"/>
<polygon fill="#63b8ff" stroke="#63b8ff" points="635.58,-133.78 645.04,-129.01 634.67,-126.83 635.58,-133.78"/>
</a>
</g>
</g>
<!-- Node6 -->
<g id="Node000006" class="node">
<title>Node6</title>
<g id="a_Node000006"><a xlink:href="class_connection_point.html#a7b8c2910eb504959c4211764a9abc2e8" target="_top" xlink:title=" ">
<polygon fill="white" stroke="#666666" points="994.5,-135 835.25,-135 835.25,-103 994.5,-103 994.5,-135"/>
<text xml:space="preserve" text-anchor="start" x="843.25" y="-121.5" font-family="Helvetica,sans-Serif" font-size="10.00">ConnectionPoint::addConnection</text>
<text xml:space="preserve" text-anchor="middle" x="914.88" y="-109.5" font-family="Helvetica,sans-Serif" font-size="10.00">Point</text>
</a>
</g>
</g>
<!-- Node5&#45;&gt;Node6 -->
<g id="edge5_Node000005_Node000006" class="edge">
<title>Node5&#45;&gt;Node6</title>
<g id="a_edge5_Node000005_Node000006"><a xlink:title=" ">
<path fill="none" stroke="#63b8ff" d="M799.59,-119C807.46,-119 815.52,-119 823.53,-119"/>
<polygon fill="#63b8ff" stroke="#63b8ff" points="823.3,-122.5 833.3,-119 823.3,-115.5 823.3,-122.5"/>
</a>
</g>
</g>
<!-- Node7 -->
<g id="Node000007" class="node">
<title>Node7</title>
<g id="a_Node000007"><a xlink:href="class_connection_point.html#ac498b99d7f91805fea3eab19f2e8b260" target="_top" xlink:title=" ">
<polygon fill="white" stroke="#666666" points="1174,-135 1030.5,-135 1030.5,-103 1174,-103 1174,-135"/>
<text xml:space="preserve" text-anchor="start" x="1038.5" y="-121.5" font-family="Helvetica,sans-Serif" font-size="10.00">ConnectionPoint::Connection</text>
<text xml:space="preserve" text-anchor="middle" x="1102.25" y="-109.5" font-family="Helvetica,sans-Serif" font-size="10.00">Point</text>
</a>
</g>
</g>
<!-- Node6&#45;&gt;Node7 -->
<g id="edge6_Node000006_Node000007" class="edge">
<title>Node6&#45;&gt;Node7</title>
<g id="a_edge6_Node000006_Node000007"><a xlink:title=" ">
<path fill="none" stroke="#63b8ff" d="M994.76,-119C1002.64,-119 1010.65,-119 1018.57,-119"/>
<polygon fill="#63b8ff" stroke="#63b8ff" points="1018.56,-122.5 1028.56,-119 1018.56,-115.5 1018.56,-122.5"/>
</a>
</g>
</g>
<!-- Node9&#45;&gt;Node2 -->
<g id="edge9_Node000009_Node000002" class="edge">
<title>Node9&#45;&gt;Node2</title>
<g id="a_edge9_Node000009_Node000002"><a xlink:title=" ">
<path fill="none" stroke="#63b8ff" d="M185.97,-96.42C204.34,-109.05 237.06,-130.34 267.5,-144 273.97,-146.9 280.93,-149.58 287.88,-151.98"/>
<polygon fill="#63b8ff" stroke="#63b8ff" points="286.67,-155.27 297.26,-155.07 288.86,-148.62 286.67,-155.27"/>
</a>
</g>
</g>
<!-- Node9&#45;&gt;Node9 -->
<g id="edge10_Node000009_Node000009" class="edge">
<title>Node9&#45;&gt;Node9</title>
<g id="a_edge10_Node000009_Node000009"><a xlink:title=" ">
<path fill="none" stroke="#63b8ff" d="M149,-96.34C139.92,-104.98 147,-114 170.25,-114 182.96,-114 190.84,-111.3 193.89,-107.44"/>
<polygon fill="#63b8ff" stroke="#63b8ff" points="197.34,-106.86 191.82,-97.82 190.5,-108.33 197.34,-106.86"/>
</a>
</g>
</g>
<!-- Node9&#45;&gt;Node10 -->
<g id="edge11_Node000009_Node000010" class="edge">
<title>Node9&#45;&gt;Node10</title>
<g id="a_edge11_Node000009_Node000010"><a xlink:title=" ">
<path fill="none" stroke="#63b8ff" d="M207.08,-94.37C229.02,-99.49 257.56,-106.16 282.42,-111.96"/>
<polygon fill="#63b8ff" stroke="#63b8ff" points="281.54,-115.35 292.07,-114.22 283.13,-108.53 281.54,-115.35"/>
</a>
</g>
</g>
<!-- Node9&#45;&gt;Node11 -->
<g id="edge12_Node000009_Node000011" class="edge">
<title>Node9&#45;&gt;Node11</title>
<g id="a_edge12_Node000009_Node000011"><a xlink:title=" ">
<path fill="none" stroke="#63b8ff" d="M207.08,-77.85C228.68,-72.93 256.7,-66.56 281.29,-60.96"/>
<polygon fill="#63b8ff" stroke="#63b8ff" points="281.86,-64.42 290.83,-58.79 280.31,-57.6 281.86,-64.42"/>
</a>
</g>
</g>
<!-- Node12 -->
<g id="Node000012" class="node">
<title>Node12</title>
<g id="a_Node000012"><a xlink:href="class_basic_element.html#a2cb2eb803daa35380908948215f8d468" target="_top" xlink:title=" ">
<polygon fill="white" stroke="#666666" points="599.88,-58 457.88,-58 457.88,-38 599.88,-38 599.88,-58"/>
<text xml:space="preserve" text-anchor="middle" x="528.88" y="-44.5" font-family="Helvetica,sans-Serif" font-size="10.00">BasicElement::minimumSize</text>
</a>
</g>
</g>
<!-- Node11&#45;&gt;Node12 -->
<g id="edge13_Node000011_Node000012" class="edge">
<title>Node11&#45;&gt;Node12</title>
<g id="a_edge13_Node000011_Node000012"><a xlink:title=" ">
<path fill="none" stroke="#63b8ff" d="M397.56,-48C412.97,-48 429.94,-48 446.39,-48"/>
<polygon fill="#63b8ff" stroke="#63b8ff" points="446.16,-51.5 456.16,-48 446.16,-44.5 446.16,-51.5"/>
</a>
</g>
</g>
<!-- Node13 -->
<g id="Node000013" class="node">
<title>Node13</title>
<g id="a_Node000013"><a xlink:href="class_basic_element.html#a596caee40cdd00a0aacce49689b63f92" target="_top" xlink:title=" ">
<polygon fill="white" stroke="#666666" points="604.75,-20 453,-20 453,0 604.75,0 604.75,-20"/>
<text xml:space="preserve" text-anchor="middle" x="528.88" y="-6.5" font-family="Helvetica,sans-Serif" font-size="10.00">BasicElement::notifyObservers</text>
</a>
</g>
</g>
<!-- Node11&#45;&gt;Node13 -->
<g id="edge14_Node000011_Node000013" class="edge">
<title>Node11&#45;&gt;Node13</title>
<g id="a_edge14_Node000011_Node000013"><a xlink:title=" ">
<path fill="none" stroke="#63b8ff" d="M392.02,-37.52C414.68,-32.93 441.46,-27.5 465.24,-22.69"/>
<polygon fill="#63b8ff" stroke="#63b8ff" points="465.69,-26.17 474.79,-20.75 464.3,-19.31 465.69,-26.17"/>
</a>
</g>
</g>
<!-- Node14 -->
<g id="Node000014" class="node">
<title>Node14</title>
<g id="a_Node000014"><a xlink:href="class_basic_element.html#a542adbf85a58c5c9bf17975964d7e446" target="_top" xlink:title=" ">
<polygon fill="white" stroke="#666666" points="579.25,-96 478.5,-96 478.5,-76 579.25,-76 579.25,-96"/>
<text xml:space="preserve" text-anchor="middle" x="528.88" y="-82.5" font-family="Helvetica,sans-Serif" font-size="10.00">BasicElement::size</text>
</a>
</g>
</g>
<!-- Node11&#45;&gt;Node14 -->
<g id="edge15_Node000011_Node000014" class="edge">
<title>Node11&#45;&gt;Node14</title>
<g id="a_edge15_Node000011_Node000014"><a xlink:title=" ">
<path fill="none" stroke="#63b8ff" d="M392.02,-58.48C415.24,-63.19 442.79,-68.77 467,-73.67"/>
<polygon fill="#63b8ff" stroke="#63b8ff" points="466.24,-77.09 476.73,-75.64 467.63,-70.23 466.24,-77.09"/>
</a>
</g>
</g>
<!-- Node15&#45;&gt;Node13 -->
<g id="edge18_Node000015_Node000013" class="edge">
<title>Node15&#45;&gt;Node13</title>
<g id="a_edge18_Node000015_Node000013"><a xlink:title=" ">
<path fill="none" stroke="#63b8ff" d="M231.75,-10C289.3,-10 376.49,-10 441.38,-10"/>
<polygon fill="#63b8ff" stroke="#63b8ff" points="441.3,-13.5 451.3,-10 441.3,-6.5 441.3,-13.5"/>
</a>
</g>
</g>
</g>
</svg>

<g id="navigator" transform="translate(0 0)" fill="#404254">
  <rect fill="#f2f5e9" fill-opacity="0.5" stroke="#606060" stroke-width=".5" x="0" y="0" width="60" height="60"/>
  <use id="zoomplus" xlink:href="#zoomPlus" x="17" y="9" onmousedown="handleZoom(evt,'in')"/>
  <use id="zoomminus" xlink:href="#zoomMin" x="42" y="9" onmousedown="handleZoom(evt,'out')"/>
  <use id="reset" xlink:href="#resetDef" x="30" y="36" onmousedown="handleReset()"/>
   <use id="arrowup" xlink:href="#arrowUp" x="0" y="0" onmousedown="handlePan(0,-1)"/>
  <use id="arrowright" xlink:href="#arrowRight" x="0" y="0" onmousedown="handlePan(1,0)"/>
  <use id="arrowdown" xlink:href="#arrowDown" x="0" y="0" onmousedown="handlePan(0,1)"/>
  <use id="arrowleft" xlink:href="#arrowLeft" x="0" y="0" onmousedown="handlePan(-1,0)"/>
</g>
<svg viewBox="0 0 15 15" width="100%" height="30px" preserveAspectRatio="xMaxYMin meet">
 <g id="arrow_out" transform="scale(0.3 0.3)">
  <a xlink:href="class_entity_ae562b28c015c3e376453d4b6dcf34f73_cgraph_org.svg" target="_base">
   <rect id="button" ry="5" rx="5" y="6" x="6" height="38" width="38"
        fill="#f2f5e9" fill-opacity="0.5" stroke="#606060" stroke-width="1.0"/>
   <path id="arrow"
     d="M 11.500037,31.436501 C 11.940474,20.09759 22.043105,11.32322 32.158766,21.979434 L 37.068811,17.246167 C 37.068811,17.246167 37.088388,32 37.088388,32 L 22.160133,31.978069 C 22.160133,31.978069 26.997745,27.140456 26.997745,27.140456 C 18.528582,18.264221 13.291696,25.230495 11.500037,31.436501 z"
     style="fill:#404040;"/>
  </a>
 </g>
</svg>

<style type='text/css'>
<![CDATA[
[data-mouse-over-selected='false'] { opacity: 0.7; }
[data-mouse-over-selected='true']  { opacity: 1.0; }
]]>
</style>
<script type="application/ecmascript"><![CDATA[
document.addEventListener('DOMContentLoaded', (event) => {
  highlightEdges();
  highlightAdjacentNodes();
});
]]></script>
</svg>
