<?xml version="1.0" encoding="UTF-8" standalone="no"?>
<!DOCTYPE svg PUBLIC "-//W3C//DTD SVG 1.1//EN"
 "http://www.w3.org/Graphics/SVG/1.1/DTD/svg11.dtd">
<!-- Generated by graphviz version 14.1.1 (20251213.1925)
 -->
<!-- Title: DiagramScene::elementSelected Pages: 1 -->
<!--zoomable 223 -->

<svg id="main" version="1.1" xmlns="http://www.w3.org/2000/svg" xmlns:xlink="http://www.w3.org/1999/xlink" xml:space="preserve" onload="init(evt)">

<style type="text/css"><![CDATA[
.node, .edge {opacity: 0.7;}
.node.selected, .edge.selected {opacity: 1;}
.edge:hover path { stroke: red; }
.edge:hover polygon { stroke: red; fill: red; }
]]></style>

<defs>
  <circle id="rim" cx="0" cy="0" r="7"/>
  <circle id="rim2" cx="0" cy="0" r="3.5"/>
  <g id="zoomPlus">
    <use xlink:href="#rim" fill="#404040"><set attributeName="fill" to="#808080" begin="zoomplus.mouseover" end="zoomplus.mouseout"/></use>
    <path d="M-4,0h8M0,-4v8" fill="none" stroke="white" stroke-width="1.5" pointer-events="none"/>
  </g>
  <g id="zoomMin">
    <use xlink:href="#rim" fill="#404040"><set attributeName="fill" to="#808080" begin="zoomminus.mouseover" end="zoomminus.mouseout"/></use>
    <path d="M-4,0h8" fill="none" stroke="white" stroke-width="1.5" pointer-events="none"/>
  </g>
  <g id="arrowUp" transform="translate(30 24)">
    <use xlink:href="#rim"/>
    <path pointer-events="none" fill="none" stroke="white" stroke-width="1.5" d="M0,-3.0v7 M-2.5,-0.5L0,-3.0L2.5,-0.5"/>
  </g>
  <g id="arrowRight" transform="rotate(90) translate(36 -43)">
    <use xlink:href="#rim"/>
    <path pointer-events="none" fill="none" stroke="white" stroke-width="1.5" d="M0,-3.0v7 M-2.5,-0.5L0,-3.0L2.5,-0.5"/>
  </g>
  <g id="arrowDown" transform="rotate(180) translate(-30 -48)">
    <use xlink:href="#rim"/>
    <path pointer-events="none" fill="none" stroke="white" stroke-width="1.5" d="M0,-3.0v7 M-2.5,-0.5L0,-3.0L2.5,-0.5"/>
  </g>
  <g id="arrowLeft" transform="rotate(270) translate(-36 17)">
    <use xlink:href="#rim"/>
    <path pointer-events="none" fill="none" stroke="white" stroke-width="1.5" d="M0,-3.0v7 M-2.5,-0.5L0,-3.0L2.5,-0.5"/>
  </g>
  <g id="resetDef">
    <use xlink:href="#rim2" fill="#404040"><set attributeName="fill" to="#808080" begin="reset.mouseover" end="reset.mouseout"/></use>
  </g>
</defs>
<script type="application/ecmascript">
var viewWidth = 963;
var viewHeight = 223;
var sectionId = 'dynsection-28';
</script>
<script type="application/ecmascript" xlink:href="svg.min.js"/>
<svg id="graph" class="graph">
<g id="viewport">
<title>DiagramScene::elementSelected</title>
<!-- Node1 -->
<g id="Node000001" class="node">
<title>Node1</title>
<g id="a_Node000001"><a xlink:title=" ">
<polygon fill="#999999" stroke="#666666" points="954.5,-177 795.25,-177 795.25,-157 954.5,-157 954.5,-177"/>
<text xml:space="preserve" text-anchor="middle" x="874.88" y="-163.5" font-family="Helvetica,sans-Serif" font-size="10.00">DiagramScene::elementSelected</text>
</a>
</g>
</g>
<!-- Node2 -->
<g id="Node000002" class="node">
<title>Node2</title>
<g id="a_Node000002"><a xlink:href="class_diagram_scene.html#a530f6e2b54bdff761f3f478120187201" target="_top" xlink:title=" ">
<polygon fill="white" stroke="#666666" points="746.88,-215 622.88,-215 622.88,-195 746.88,-195 746.88,-215"/>
<text xml:space="preserve" text-anchor="middle" x="684.88" y="-201.5" font-family="Helvetica,sans-Serif" font-size="10.00">DiagramScene::selectAll</text>
</a>
</g>
</g>
<!-- Node1&#45;&gt;Node2 -->
<g id="edge1_Node000001_Node000002" class="edge">
<title>Node1&#45;&gt;Node2</title>
<g id="a_edge1_Node000001_Node000002"><a xlink:title=" ">
<path fill="none" stroke="#63b8ff" d="M810.93,-179.72C787.1,-184.54 760.26,-189.96 737.58,-194.55"/>
<polygon fill="#63b8ff" stroke="#63b8ff" points="811.41,-183.2 820.52,-177.78 810.03,-176.33 811.41,-183.2"/>
</a>
</g>
</g>
<!-- Node4 -->
<g id="Node000004" class="node">
<title>Node4</title>
<g id="a_Node000004"><a xlink:href="class_diagram_scene.html#adffd7c14eb320f4e260f6fed731c1809" target="_top" xlink:title=" ">
<polygon fill="white" stroke="#666666" points="759.25,-158 610.5,-158 610.5,-138 759.25,-138 759.25,-158"/>
<text xml:space="preserve" text-anchor="middle" x="684.88" y="-144.5" font-family="Helvetica,sans-Serif" font-size="10.00">DiagramScene::selectElement</text>
</a>
</g>
</g>
<!-- Node1&#45;&gt;Node4 -->
<g id="edge3_Node000001_Node000004" class="edge">
<title>Node1&#45;&gt;Node4</title>
<g id="a_edge3_Node000001_Node000004"><a xlink:title=" ">
<path fill="none" stroke="#63b8ff" d="M783.59,-157.88C775.51,-157.06 767.4,-156.24 759.48,-155.44"/>
<polygon fill="#63b8ff" stroke="#63b8ff" points="783.16,-161.35 793.46,-158.87 783.86,-154.38 783.16,-161.35"/>
</a>
</g>
</g>
<!-- Node3 -->
<g id="Node000003" class="node">
<title>Node3</title>
<g id="a_Node000003"><a xlink:href="class_diagram_scene.html#a074e1181353b257a18ea2d243b459a47" target="_top" xlink:title=" ">
<polygon fill="white" stroke="#666666" points="155.12,-196 1.88,-196 1.88,-176 155.12,-176 155.12,-196"/>
<text xml:space="preserve" text-anchor="middle" x="78.5" y="-182.5" font-family="Helvetica,sans-Serif" font-size="10.00">DiagramScene::keyPressEvent</text>
</a>
</g>
</g>
<!-- Node2&#45;&gt;Node3 -->
<g id="edge2_Node000002_Node000003" class="edge">
<title>Node2&#45;&gt;Node3</title>
<g id="a_edge2_Node000002_Node000003"><a xlink:title=" ">
<path fill="none" stroke="#63b8ff" d="M611.21,-208.75C515.26,-212.85 341.12,-217.31 193,-205 172.59,-203.3 150.33,-199.92 130.97,-196.47"/>
<polygon fill="#63b8ff" stroke="#63b8ff" points="611.17,-212.26 621.01,-208.32 610.86,-205.26 611.17,-212.26"/>
</a>
</g>
</g>
<!-- Node5 -->
<g id="Node000005" class="node">
<title>Node5</title>
<g id="a_Node000005"><a xlink:href="class_diagram_scene.html#a9341fab75d7299e330baae13993bed28" target="_top" xlink:title=" ">
<polygon fill="white" stroke="#666666" points="562.88,-120 414.88,-120 414.88,-100 562.88,-100 562.88,-120"/>
<text xml:space="preserve" text-anchor="middle" x="488.88" y="-106.5" font-family="Helvetica,sans-Serif" font-size="10.00">DiagramScene::clearSelection</text>
</a>
</g>
</g>
<!-- Node4&#45;&gt;Node5 -->
<g id="edge4_Node000004_Node000005" class="edge">
<title>Node4&#45;&gt;Node5</title>
<g id="a_edge4_Node000004_Node000005"><a xlink:title=" ">
<path fill="none" stroke="#63b8ff" d="M619.26,-135.34C594.58,-130.51 566.74,-125.06 543.23,-120.45"/>
<polygon fill="#63b8ff" stroke="#63b8ff" points="618.38,-138.74 628.86,-137.22 619.72,-131.87 618.38,-138.74"/>
</a>
</g>
</g>
<!-- Node9 -->
<g id="Node000009" class="node">
<title>Node9</title>
<g id="a_Node000009"><a xlink:href="class_diagram_scene.html#a61e7061e5add947d09ad87feaf2b8dc1" target="_top" xlink:title=" ">
<polygon fill="white" stroke="#666666" points="367.25,-196 193,-196 193,-176 367.25,-176 367.25,-196"/>
<text xml:space="preserve" text-anchor="middle" x="280.12" y="-182.5" font-family="Helvetica,sans-Serif" font-size="10.00">DiagramScene::pasteFromClipboard</text>
</a>
</g>
</g>
<!-- Node4&#45;&gt;Node9 -->
<g id="edge13_Node000004_Node000009" class="edge">
<title>Node4&#45;&gt;Node9</title>
<g id="a_edge13_Node000004_Node000009"><a xlink:title=" ">
<path fill="none" stroke="#63b8ff" d="M598.91,-151.83C543.17,-154.82 468.74,-159.7 403.25,-167 383.1,-169.25 361.18,-172.42 341.55,-175.54"/>
<polygon fill="#63b8ff" stroke="#63b8ff" points="598.84,-155.34 608.65,-151.32 598.48,-148.35 598.84,-155.34"/>
</a>
</g>
</g>
<!-- Node10 -->
<g id="Node000010" class="node">
<title>Node10</title>
<g id="a_Node000010"><a xlink:href="class_diagram_scene.html#ad46a8dc374895fd670f50f30f2c2acbd" target="_top" xlink:title=" ">
<polygon fill="white" stroke="#666666" points="574.5,-54 403.25,-54 403.25,-34 574.5,-34 574.5,-54"/>
<text xml:space="preserve" text-anchor="middle" x="488.88" y="-40.5" font-family="Helvetica,sans-Serif" font-size="10.00">DiagramScene::finishSelectionRect</text>
</a>
</g>
</g>
<!-- Node4&#45;&gt;Node10 -->
<g id="edge11_Node000004_Node000010" class="edge">
<title>Node4&#45;&gt;Node10</title>
<g id="a_edge11_Node000004_Node000010"><a xlink:title=" ">
<path fill="none" stroke="#63b8ff" d="M654.6,-132.31C614.51,-110.81 543.59,-72.8 509.4,-54.46"/>
<polygon fill="#63b8ff" stroke="#63b8ff" points="652.76,-135.29 663.23,-136.93 656.07,-129.12 652.76,-135.29"/>
</a>
</g>
</g>
<!-- Node12 -->
<g id="Node000012" class="node">
<title>Node12</title>
<g id="a_Node000012"><a xlink:href="class_diagram_scene.html#a52f85570092aa1c3df464382efad08fa" target="_top" xlink:title=" ">
<polygon fill="white" stroke="#666666" points="563.25,-196 414.5,-196 414.5,-176 563.25,-176 563.25,-196"/>
<text xml:space="preserve" text-anchor="middle" x="488.88" y="-182.5" font-family="Helvetica,sans-Serif" font-size="10.00">DiagramScene::selectElement</text>
</a>
</g>
</g>
<!-- Node4&#45;&gt;Node12 -->
<g id="edge14_Node000004_Node000012" class="edge">
<title>Node4&#45;&gt;Node12</title>
<g id="a_edge14_Node000004_Node000012"><a xlink:title=" ">
<path fill="none" stroke="#63b8ff" d="M619.26,-160.66C594.58,-165.49 566.74,-170.94 543.23,-175.55"/>
<polygon fill="#63b8ff" stroke="#63b8ff" points="619.72,-164.13 628.86,-158.78 618.38,-157.26 619.72,-164.13"/>
</a>
</g>
</g>
<!-- Node5&#45;&gt;Node3 -->
<g id="edge7_Node000005_Node000003" class="edge">
<title>Node5&#45;&gt;Node3</title>
<g id="a_edge7_Node000005_Node000003"><a xlink:title=" ">
<path fill="none" stroke="#63b8ff" d="M420.64,-122.51C341.06,-137.32 209.98,-161.72 135.6,-175.56"/>
<polygon fill="#63b8ff" stroke="#63b8ff" points="420.84,-126.04 430.03,-120.76 419.56,-119.15 420.84,-126.04"/>
</a>
</g>
</g>
<!-- Node6 -->
<g id="Node000006" class="node">
<title>Node6</title>
<g id="a_Node000006"><a xlink:href="class_diagram_scene.html#a0c02f289dea7872eae24bb2c0f91d5ea" target="_top" xlink:title=" ">
<polygon fill="white" stroke="#666666" points="352.25,-70 208,-70 208,-50 352.25,-50 352.25,-70"/>
<text xml:space="preserve" text-anchor="middle" x="280.12" y="-56.5" font-family="Helvetica,sans-Serif" font-size="10.00">DiagramScene::clearDiagram</text>
</a>
</g>
</g>
<!-- Node5&#45;&gt;Node6 -->
<g id="edge5_Node000005_Node000006" class="edge">
<title>Node5&#45;&gt;Node6</title>
<g id="a_edge5_Node000005_Node000006"><a xlink:title=" ">
<path fill="none" stroke="#63b8ff" d="M437.66,-96.68C416.04,-91.06 390.44,-84.54 367.25,-79 355.19,-76.12 342.13,-73.16 329.93,-70.46"/>
<polygon fill="#63b8ff" stroke="#63b8ff" points="436.55,-100.01 447.11,-99.15 438.32,-93.24 436.55,-100.01"/>
</a>
</g>
</g>
<!-- Node8 -->
<g id="Node000008" class="node">
<title>Node8</title>
<g id="a_Node000008"><a xlink:href="class_diagram_scene.html#a6847af7972303267f22e84ae1011c255" target="_top" xlink:title=" ">
<polygon fill="white" stroke="#666666" points="350.75,-120 209.5,-120 209.5,-88 350.75,-88 350.75,-120"/>
<text xml:space="preserve" text-anchor="start" x="217.5" y="-106.5" font-family="Helvetica,sans-Serif" font-size="10.00">DiagramScene::mousePress</text>
<text xml:space="preserve" text-anchor="middle" x="280.12" y="-94.5" font-family="Helvetica,sans-Serif" font-size="10.00">Event</text>
</a>
</g>
</g>
<!-- Node5&#45;&gt;Node8 -->
<g id="edge8_Node000005_Node000008" class="edge">
<title>Node5&#45;&gt;Node8</title>
<g id="a_edge8_Node000005_Node000008"><a xlink:title=" ">
<path fill="none" stroke="#63b8ff" d="M403.18,-107.54C385.92,-107.04 367.93,-106.52 351.25,-106.03"/>
<polygon fill="#63b8ff" stroke="#63b8ff" points="402.79,-111.03 412.89,-107.82 402.99,-104.04 402.79,-111.03"/>
</a>
</g>
</g>
<!-- Node5&#45;&gt;Node9 -->
<g id="edge9_Node000005_Node000009" class="edge">
<title>Node5&#45;&gt;Node9</title>
<g id="a_edge9_Node000005_Node000009"><a xlink:title=" ">
<path fill="none" stroke="#63b8ff" d="M428.02,-123.84C419.5,-126.7 411.01,-130.07 403.25,-134 385.17,-143.16 385.35,-152.89 367.25,-162 356.02,-167.65 343.27,-172.13 331.1,-175.61"/>
<polygon fill="#63b8ff" stroke="#63b8ff" points="428.83,-127.25 437.33,-120.93 426.74,-120.57 428.83,-127.25"/>
</a>
</g>
</g>
<!-- Node7 -->
<g id="Node000007" class="node">
<title>Node7</title>
<g id="a_Node000007"><a xlink:href="class_diagram_scene.html#a189b7f9e32b70c751124cffce8d63c8c" target="_top" xlink:title=" ">
<polygon fill="white" stroke="#666666" points="157,-70 0,-70 0,-50 157,-50 157,-70"/>
<text xml:space="preserve" text-anchor="middle" x="78.5" y="-56.5" font-family="Helvetica,sans-Serif" font-size="10.00">DiagramScene::~DiagramScene</text>
</a>
</g>
</g>
<!-- Node6&#45;&gt;Node7 -->
<g id="edge6_Node000006_Node000007" class="edge">
<title>Node6&#45;&gt;Node7</title>
<g id="a_edge6_Node000006_Node000007"><a xlink:title=" ">
<path fill="none" stroke="#63b8ff" d="M196.37,-60C183.43,-60 170.09,-60 157.27,-60"/>
<polygon fill="#63b8ff" stroke="#63b8ff" points="196.11,-63.5 206.11,-60 196.11,-56.5 196.11,-63.5"/>
</a>
</g>
</g>
<!-- Node9&#45;&gt;Node3 -->
<g id="edge10_Node000009_Node000003" class="edge">
<title>Node9&#45;&gt;Node3</title>
<g id="a_edge10_Node000009_Node000003"><a xlink:title=" ">
<path fill="none" stroke="#63b8ff" d="M181.31,-186C172.59,-186 163.86,-186 155.37,-186"/>
<polygon fill="#63b8ff" stroke="#63b8ff" points="181.21,-189.5 191.21,-186 181.21,-182.5 181.21,-189.5"/>
</a>
</g>
</g>
<!-- Node11 -->
<g id="Node000011" class="node">
<title>Node11</title>
<g id="a_Node000011"><a xlink:href="class_diagram_scene.html#a542ad58dab0f10f2825e0d69deabebe7" target="_top" xlink:title=" ">
<polygon fill="white" stroke="#666666" points="356,-32 204.25,-32 204.25,0 356,0 356,-32"/>
<text xml:space="preserve" text-anchor="start" x="212.25" y="-18.5" font-family="Helvetica,sans-Serif" font-size="10.00">DiagramScene::mouseRelease</text>
<text xml:space="preserve" text-anchor="middle" x="280.12" y="-6.5" font-family="Helvetica,sans-Serif" font-size="10.00">Event</text>
</a>
</g>
</g>
<!-- Node10&#45;&gt;Node11 -->
<g id="edge12_Node000010_Node000011" class="edge">
<title>Node10&#45;&gt;Node11</title>
<g id="a_edge12_Node000010_Node000011"><a xlink:title=" ">
<path fill="none" stroke="#63b8ff" d="M399.22,-31.99C384.91,-30.05 370.21,-28.06 356.25,-26.17"/>
<polygon fill="#63b8ff" stroke="#63b8ff" points="398.72,-35.46 409.1,-33.33 399.66,-28.52 398.72,-35.46"/>
</a>
</g>
</g>
</g>
</svg>

<g id="navigator" transform="translate(0 0)" fill="#404254">
  <rect fill="#f2f5e9" fill-opacity="0.5" stroke="#606060" stroke-width=".5" x="0" y="0" width="60" height="60"/>
  <use id="zoomplus" xlink:href="#zoomPlus" x="17" y="9" onmousedown="handleZoom(evt,'in')"/>
  <use id="zoomminus" xlink:href="#zoomMin" x="42" y="9" onmousedown="handleZoom(evt,'out')"/>
  <use id="reset" xlink:href="#resetDef" x="30" y="36" onmousedown="handleReset()"/>
   <use id="arrowup" xlink:href="#arrowUp" x="0" y="0" onmousedown="handlePan(0,-1)"/>
  <use id="arrowright" xlink:href="#arrowRight" x="0" y="0" onmousedown="handlePan(1,0)"/>
  <use id="arrowdown" xlink:href="#arrowDown" x="0" y="0" onmousedown="handlePan(0,1)"/>
  <use id="arrowleft" xlink:href="#arrowLeft" x="0" y="0" onmousedown="handlePan(-1,0)"/>
</g>
<svg viewBox="0 0 15 15" width="100%" height="30px" preserveAspectRatio="xMaxYMin meet">
 <g id="arrow_out" transform="scale(0.3 0.3)">
  <a xlink:href="class_diagram_scene_a15719115f3f2f26120243d71999dcfea_icgraph_org.svg" target="_base">
   <rect id="button" ry="5" rx="5" y="6" x="6" height="38" width="38"
        fill="#f2f5e9" fill-opacity="0.5" stroke="#606060" stroke-width="1.0"/>
   <path id="arrow"
     d="M 11.500037,31.436501 C 11.940474,20.09759 22.043105,11.32322 32.158766,21.979434 L 37.068811,17.246167 C 37.068811,17.246167 37.088388,32 37.088388,32 L 22.160133,31.978069 C 22.160133,31.978069 26.997745,27.140456 26.997745,27.140456 C 18.528582,18.264221 13.291696,25.230495 11.500037,31.436501 z"
     style="fill:#404040;"/>
  </a>
 </g>
</svg>

<style type='text/css'>
<![CDATA[
[data-mouse-over-selected='false'] { opacity: 0.7; }
[data-mouse-over-selected='true']  { opacity: 1.0; }
]]>
</style>
<script type="application/ecmascript"><![CDATA[
document.addEventListener('DOMContentLoaded', (event) => {
  highlightEdges();
  highlightAdjacentNodes();
});
]]></script>
</svg>
