<?xml version="1.0" encoding="UTF-8" standalone="no"?>
<!DOCTYPE svg PUBLIC "-//W3C//DTD SVG 1.1//EN"
 "http://www.w3.org/Graphics/SVG/1.1/DTD/svg11.dtd">
<!-- Generated by graphviz version 14.1.1 (20251213.1925)
 -->
<!-- Title: ConnectionLine::resetControlPoints Pages: 1 -->
<svg width="888pt" height="178pt"
 viewBox="0.00 0.00 888.00 178.00" xmlns="http://www.w3.org/2000/svg" xmlns:xlink="http://www.w3.org/1999/xlink">
<g id="graph0" class="graph" transform="scale(1 1) rotate(0) translate(4 174)">
<title>ConnectionLine::resetControlPoints</title>
<!-- Node1 -->
<g id="Node000001" class="node">
<title>Node1</title>
<g id="a_Node000001"><a xlink:title=" ">
<polygon fill="#999999" stroke="#666666" points="142.75,-79 0,-79 0,-47 142.75,-47 142.75,-79"/>
<text xml:space="preserve" text-anchor="start" x="8" y="-65.5" font-family="Helvetica,sans-Serif" font-size="10.00">ConnectionLine::resetControl</text>
<text xml:space="preserve" text-anchor="middle" x="71.38" y="-53.5" font-family="Helvetica,sans-Serif" font-size="10.00">Points</text>
</a>
</g>
</g>
<!-- Node2 -->
<g id="Node000002" class="node">
<title>Node2</title>
<g id="a_Node000002"><a xlink:href="class_connection_line.html#a9de44ae385d7941f3aa79da06e97d510" target="_top" xlink:title=" ">
<polygon fill="white" stroke="#666666" points="320.38,-104 183.62,-104 183.62,-72 320.38,-72 320.38,-104"/>
<text xml:space="preserve" text-anchor="start" x="191.62" y="-90.5" font-family="Helvetica,sans-Serif" font-size="10.00">ConnectionLine::connection</text>
<text xml:space="preserve" text-anchor="middle" x="252" y="-78.5" font-family="Helvetica,sans-Serif" font-size="10.00">Changed</text>
</a>
</g>
</g>
<!-- Node1&#45;&gt;Node2 -->
<g id="edge1_Node000001_Node000002" class="edge">
<title>Node1&#45;&gt;Node2</title>
<g id="a_edge1_Node000001_Node000002"><a xlink:title=" ">
<path fill="none" stroke="#63b8ff" d="M143.23,-72.92C152.68,-74.24 162.42,-75.6 172,-76.94"/>
<polygon fill="#63b8ff" stroke="#63b8ff" points="171.26,-80.37 181.64,-78.29 172.23,-73.44 171.26,-80.37"/>
</a>
</g>
</g>
<!-- Node9 -->
<g id="Node000009" class="node">
<title>Node9</title>
<g id="a_Node000009"><a xlink:href="class_connection_line.html#a93e2b3868595cc0ac41de6c0f36c2365" target="_top" xlink:title=" ">
<polygon fill="white" stroke="#666666" points="325.25,-54 178.75,-54 178.75,-22 325.25,-22 325.25,-54"/>
<text xml:space="preserve" text-anchor="start" x="186.75" y="-40.5" font-family="Helvetica,sans-Serif" font-size="10.00">ConnectionLine::controlPoints</text>
<text xml:space="preserve" text-anchor="middle" x="252" y="-28.5" font-family="Helvetica,sans-Serif" font-size="10.00">Changed</text>
</a>
</g>
</g>
<!-- Node1&#45;&gt;Node9 -->
<g id="edge10_Node000001_Node000009" class="edge">
<title>Node1&#45;&gt;Node9</title>
<g id="a_edge10_Node000001_Node000009"><a xlink:title=" ">
<path fill="none" stroke="#63b8ff" d="M143.23,-53.08C151.11,-51.98 159.19,-50.85 167.21,-49.73"/>
<polygon fill="#63b8ff" stroke="#63b8ff" points="167.56,-53.21 176.98,-48.36 166.59,-46.28 167.56,-53.21"/>
</a>
</g>
</g>
<!-- Node3 -->
<g id="Node000003" class="node">
<title>Node3</title>
<g id="a_Node000003"><a xlink:href="class_connection_line.html#a657559dca679d5fd04ae565b442b6a8b" target="_top" xlink:title=" ">
<polygon fill="white" stroke="#666666" points="518.25,-98 361.25,-98 361.25,-78 518.25,-78 518.25,-98"/>
<text xml:space="preserve" text-anchor="middle" x="439.75" y="-84.5" font-family="Helvetica,sans-Serif" font-size="10.00">ConnectionLine::ConnectionLine</text>
</a>
</g>
</g>
<!-- Node2&#45;&gt;Node3 -->
<g id="edge2_Node000002_Node000003" class="edge">
<title>Node2&#45;&gt;Node3</title>
<g id="a_edge2_Node000002_Node000003"><a xlink:title=" ">
<path fill="none" stroke="#63b8ff" d="M320.85,-88C330.23,-88 339.99,-88 349.69,-88"/>
<polygon fill="#63b8ff" stroke="#63b8ff" points="349.51,-91.5 359.51,-88 349.51,-84.5 349.51,-91.5"/>
</a>
</g>
</g>
<!-- Node4 -->
<g id="Node000004" class="node">
<title>Node4</title>
<g id="a_Node000004"><a xlink:href="class_connection_line.html#a836aef7faf5a4fb8a5a10bfc71dbabe3" target="_top" xlink:title=" ">
<polygon fill="white" stroke="#666666" points="688.75,-104 554.25,-104 554.25,-72 688.75,-72 688.75,-104"/>
<text xml:space="preserve" text-anchor="start" x="562.25" y="-90.5" font-family="Helvetica,sans-Serif" font-size="10.00">ConnectionLine::connectTo</text>
<text xml:space="preserve" text-anchor="middle" x="621.5" y="-78.5" font-family="Helvetica,sans-Serif" font-size="10.00">Points</text>
</a>
</g>
</g>
<!-- Node3&#45;&gt;Node4 -->
<g id="edge3_Node000003_Node000004" class="edge">
<title>Node3&#45;&gt;Node4</title>
<g id="a_edge3_Node000003_Node000004"><a xlink:title=" ">
<path fill="none" stroke="#63b8ff" d="M518.55,-88C526.45,-88 534.48,-88 542.39,-88"/>
<polygon fill="#63b8ff" stroke="#63b8ff" points="542.35,-91.5 552.35,-88 542.35,-84.5 542.35,-91.5"/>
</a>
</g>
</g>
<!-- Node5 -->
<g id="Node000005" class="node">
<title>Node5</title>
<g id="a_Node000005"><a xlink:href="class_connection_line.html#a53c863c51a284a7a8e6b35bc34bd2d34" target="_top" xlink:title=" ">
<polygon fill="white" stroke="#666666" points="877.25,-170 727.75,-170 727.75,-138 877.25,-138 877.25,-170"/>
<text xml:space="preserve" text-anchor="start" x="735.75" y="-156.5" font-family="Helvetica,sans-Serif" font-size="10.00">ConnectionLine::onConnection</text>
<text xml:space="preserve" text-anchor="middle" x="802.5" y="-144.5" font-family="Helvetica,sans-Serif" font-size="10.00">PointChanged</text>
</a>
</g>
</g>
<!-- Node4&#45;&gt;Node5 -->
<g id="edge4_Node000004_Node000005" class="edge">
<title>Node4&#45;&gt;Node5</title>
<g id="a_edge4_Node000004_Node000005"><a xlink:title=" ">
<path fill="none" stroke="#63b8ff" d="M661.6,-104.38C680.55,-112.15 703.72,-121.37 724.75,-129 729.2,-130.61 733.8,-132.24 738.45,-133.84"/>
<polygon fill="#63b8ff" stroke="#63b8ff" points="737.29,-137.14 747.89,-137.03 739.54,-130.51 737.29,-137.14"/>
</a>
</g>
</g>
<!-- Node6 -->
<g id="Node000006" class="node">
<title>Node6</title>
<g id="a_Node000006"><a xlink:href="class_connection_line.html#a4bce34a3f2fb1fd7145de2d9100c9173" target="_top" xlink:title=" ">
<polygon fill="white" stroke="#666666" points="870.5,-32 734.5,-32 734.5,0 870.5,0 870.5,-32"/>
<text xml:space="preserve" text-anchor="start" x="742.5" y="-18.5" font-family="Helvetica,sans-Serif" font-size="10.00">ConnectionLine::onElement</text>
<text xml:space="preserve" text-anchor="middle" x="802.5" y="-6.5" font-family="Helvetica,sans-Serif" font-size="10.00">PositionChanged</text>
</a>
</g>
</g>
<!-- Node4&#45;&gt;Node6 -->
<g id="edge6_Node000004_Node000006" class="edge">
<title>Node4&#45;&gt;Node6</title>
<g id="a_edge6_Node000004_Node000006"><a xlink:title=" ">
<path fill="none" stroke="#63b8ff" d="M655.7,-71.55C675.5,-62.04 701.28,-50.18 724.75,-41 728.89,-39.38 733.18,-37.78 737.52,-36.22"/>
<polygon fill="#63b8ff" stroke="#63b8ff" points="738.66,-39.53 746.94,-32.92 736.34,-32.92 738.66,-39.53"/>
</a>
</g>
</g>
<!-- Node7 -->
<g id="Node000007" class="node">
<title>Node7</title>
<g id="a_Node000007"><a xlink:href="class_basic_element.html#a02183bafd7c80f9f1f99a9b9f1631524" target="_top" xlink:title=" ">
<polygon fill="white" stroke="#666666" points="880.25,-120 724.75,-120 724.75,-100 880.25,-100 880.25,-120"/>
<text xml:space="preserve" text-anchor="middle" x="802.5" y="-106.5" font-family="Helvetica,sans-Serif" font-size="10.00">BasicElement::positionChanged</text>
</a>
</g>
</g>
<!-- Node4&#45;&gt;Node7 -->
<g id="edge8_Node000004_Node000007" class="edge">
<title>Node4&#45;&gt;Node7</title>
<g id="a_edge8_Node000004_Node000007"><a xlink:title=" ">
<path fill="none" stroke="#63b8ff" d="M689.15,-96.19C696.99,-97.16 705.08,-98.15 713.15,-99.14"/>
<polygon fill="#63b8ff" stroke="#63b8ff" points="712.68,-102.61 723.03,-100.36 713.53,-95.66 712.68,-102.61"/>
</a>
</g>
</g>
<!-- Node8 -->
<g id="Node000008" class="node">
<title>Node8</title>
<g id="a_Node000008"><a xlink:href="class_connection_point.html#a851668ae19e97658f1818a40ea375f65" target="_top" xlink:title=" ">
<polygon fill="white" stroke="#666666" points="865.25,-82 739.75,-82 739.75,-50 865.25,-50 865.25,-82"/>
<text xml:space="preserve" text-anchor="start" x="747.75" y="-68.5" font-family="Helvetica,sans-Serif" font-size="10.00">ConnectionPoint::relative</text>
<text xml:space="preserve" text-anchor="middle" x="802.5" y="-56.5" font-family="Helvetica,sans-Serif" font-size="10.00">PositionChanged</text>
</a>
</g>
</g>
<!-- Node4&#45;&gt;Node8 -->
<g id="edge9_Node000004_Node000008" class="edge">
<title>Node4&#45;&gt;Node8</title>
<g id="a_edge9_Node000004_Node000008"><a xlink:title=" ">
<path fill="none" stroke="#63b8ff" d="M689.15,-79.81C701.91,-78.24 715.34,-76.59 728.3,-75"/>
<polygon fill="#63b8ff" stroke="#63b8ff" points="728.53,-78.49 738.03,-73.8 727.68,-71.55 728.53,-78.49"/>
</a>
</g>
</g>
<!-- Node5&#45;&gt;Node2 -->
<g id="edge5_Node000005_Node000002" class="edge">
<title>Node5&#45;&gt;Node2</title>
<g id="a_edge5_Node000005_Node000002"><a xlink:title=" ">
<path fill="none" stroke="#63b8ff" d="M727.31,-147.62C639.65,-139.72 489.5,-125.08 361.25,-107 351.71,-105.66 341.72,-104.1 331.83,-102.47"/>
<polygon fill="#63b8ff" stroke="#63b8ff" points="332.67,-99.07 322.23,-100.86 331.51,-105.97 332.67,-99.07"/>
</a>
</g>
</g>
<!-- Node6&#45;&gt;Node2 -->
<g id="edge7_Node000006_Node000002" class="edge">
<title>Node6&#45;&gt;Node2</title>
<g id="a_edge7_Node000006_Node000002"><a xlink:title=" ">
<path fill="none" stroke="#63b8ff" d="M734.22,-22.96C647.74,-32.17 493,-49.52 361.25,-69 351.72,-70.41 341.74,-72 331.85,-73.65"/>
<polygon fill="#63b8ff" stroke="#63b8ff" points="331.53,-70.16 322.25,-75.28 332.7,-77.06 331.53,-70.16"/>
</a>
</g>
</g>
</g>
</svg>
