<?xml version="1.0" encoding="UTF-8" standalone="no"?>
<!DOCTYPE svg PUBLIC "-//W3C//DTD SVG 1.1//EN"
 "http://www.w3.org/Graphics/SVG/1.1/DTD/svg11.dtd">
<!-- Generated by graphviz version 14.1.1 (20251213.1925)
 -->
<!-- Title: ConnectionLine::deserialize Pages: 1 -->
<svg width="1243pt" height="209pt"
 viewBox="0.00 0.00 1243.00 209.00" xmlns="http://www.w3.org/2000/svg" xmlns:xlink="http://www.w3.org/1999/xlink">
<g id="graph0" class="graph" transform="scale(1 1) rotate(0) translate(4 205)">
<title>ConnectionLine::deserialize</title>
<!-- Node1 -->
<g id="Node000001" class="node">
<title>Node1</title>
<g id="a_Node000001"><a xlink:title=" ">
<polygon fill="#999999" stroke="#666666" points="136,-79 0,-79 0,-59 136,-59 136,-79"/>
<text xml:space="preserve" text-anchor="middle" x="68" y="-65.5" font-family="Helvetica,sans-Serif" font-size="10.00">ConnectionLine::deserialize</text>
</a>
</g>
</g>
<!-- Node2 -->
<g id="Node000002" class="node">
<title>Node2</title>
<g id="a_Node000002"><a xlink:href="class_connection_line.html#aabbf15273d5fb94dad38aa8e4e1c861b" target="_top" xlink:title=" ">
<polygon fill="white" stroke="#666666" points="316.25,-123 174.25,-123 174.25,-103 316.25,-103 316.25,-123"/>
<text xml:space="preserve" text-anchor="middle" x="245.25" y="-109.5" font-family="Helvetica,sans-Serif" font-size="10.00">ConnectionLine::setLineType</text>
</a>
</g>
</g>
<!-- Node1&#45;&gt;Node2 -->
<g id="edge1_Node000001_Node000002" class="edge">
<title>Node1&#45;&gt;Node2</title>
<g id="a_edge1_Node000001_Node000002"><a xlink:title=" ">
<path fill="none" stroke="#63b8ff" d="M110.53,-79.43C134.78,-85.52 165.61,-93.26 191.55,-99.77"/>
<polygon fill="#63b8ff" stroke="#63b8ff" points="190.69,-103.16 201.25,-102.2 192.4,-96.37 190.69,-103.16"/>
</a>
</g>
</g>
<!-- Node13 -->
<g id="Node000013" class="node">
<title>Node13</title>
<g id="a_Node000013"><a xlink:href="class_connection_line.html#a7983d6ddbc5414ad75bfc9e16b78ea90" target="_top" xlink:title=" ">
<polygon fill="white" stroke="#666666" points="318.5,-57 172,-57 172,-37 318.5,-37 318.5,-57"/>
<text xml:space="preserve" text-anchor="middle" x="245.25" y="-43.5" font-family="Helvetica,sans-Serif" font-size="10.00">ConnectionLine::setLineWidth</text>
</a>
</g>
</g>
<!-- Node1&#45;&gt;Node13 -->
<g id="edge15_Node000001_Node000013" class="edge">
<title>Node1&#45;&gt;Node13</title>
<g id="a_edge15_Node000001_Node000013"><a xlink:title=" ">
<path fill="none" stroke="#63b8ff" d="M136.26,-60.56C144.13,-59.57 152.23,-58.55 160.3,-57.54"/>
<polygon fill="#63b8ff" stroke="#63b8ff" points="160.65,-61.02 170.14,-56.3 159.78,-54.08 160.65,-61.02"/>
</a>
</g>
</g>
<!-- Node3 -->
<g id="Node000003" class="node">
<title>Node3</title>
<g id="a_Node000003"><a xlink:href="class_connection_line.html#a9de44ae385d7941f3aa79da06e97d510" target="_top" xlink:title=" ">
<polygon fill="white" stroke="#666666" points="674.88,-104 538.12,-104 538.12,-72 674.88,-72 674.88,-104"/>
<text xml:space="preserve" text-anchor="start" x="546.12" y="-90.5" font-family="Helvetica,sans-Serif" font-size="10.00">ConnectionLine::connection</text>
<text xml:space="preserve" text-anchor="middle" x="606.5" y="-78.5" font-family="Helvetica,sans-Serif" font-size="10.00">Changed</text>
</a>
</g>
</g>
<!-- Node2&#45;&gt;Node3 -->
<g id="edge2_Node000002_Node000003" class="edge">
<title>Node2&#45;&gt;Node3</title>
<g id="a_edge2_Node000002_Node000003"><a xlink:title=" ">
<path fill="none" stroke="#63b8ff" d="M316.37,-108.12C376.63,-103.93 463.49,-97.88 526.26,-93.51"/>
<polygon fill="#63b8ff" stroke="#63b8ff" points="526.45,-97.01 536.18,-92.82 525.96,-90.03 526.45,-97.01"/>
</a>
</g>
</g>
<!-- Node10 -->
<g id="Node000010" class="node">
<title>Node10</title>
<g id="a_Node000010"><a xlink:href="class_connection_line.html#a7af2a1f9fc1a9ddb362634ecaa926ae8" target="_top" xlink:title=" ">
<polygon fill="white" stroke="#666666" points="488.62,-201 363.12,-201 363.12,-169 488.62,-169 488.62,-201"/>
<text xml:space="preserve" text-anchor="start" x="371.12" y="-187.5" font-family="Helvetica,sans-Serif" font-size="10.00">ConnectionLine::lineType</text>
<text xml:space="preserve" text-anchor="middle" x="425.88" y="-175.5" font-family="Helvetica,sans-Serif" font-size="10.00">Changed</text>
</a>
</g>
</g>
<!-- Node2&#45;&gt;Node10 -->
<g id="edge11_Node000002_Node000010" class="edge">
<title>Node2&#45;&gt;Node10</title>
<g id="a_edge11_Node000002_Node000010"><a xlink:title=" ">
<path fill="none" stroke="#63b8ff" d="M268.87,-123.36C290.64,-133.2 324.57,-148.2 354.5,-160 358.52,-161.59 362.69,-163.18 366.9,-164.76"/>
<polygon fill="#63b8ff" stroke="#63b8ff" points="365.38,-167.93 375.97,-168.11 367.8,-161.36 365.38,-167.93"/>
</a>
</g>
</g>
<!-- Node11 -->
<g id="Node000011" class="node">
<title>Node11</title>
<g id="a_Node000011"><a xlink:href="class_connection_line.html#a78a97a15e4daad8d684b22e2a37a2e11" target="_top" xlink:title=" ">
<polygon fill="white" stroke="#666666" points="497.25,-151 354.5,-151 354.5,-119 497.25,-119 497.25,-151"/>
<text xml:space="preserve" text-anchor="start" x="362.5" y="-137.5" font-family="Helvetica,sans-Serif" font-size="10.00">ConnectionLine::resetControl</text>
<text xml:space="preserve" text-anchor="middle" x="425.88" y="-125.5" font-family="Helvetica,sans-Serif" font-size="10.00">Points</text>
</a>
</g>
</g>
<!-- Node2&#45;&gt;Node11 -->
<g id="edge12_Node000002_Node000011" class="edge">
<title>Node2&#45;&gt;Node11</title>
<g id="a_edge12_Node000002_Node000011"><a xlink:title=" ">
<path fill="none" stroke="#63b8ff" d="M316.59,-121.66C325.14,-122.72 333.94,-123.8 342.65,-124.87"/>
<polygon fill="#63b8ff" stroke="#63b8ff" points="342.16,-128.34 352.51,-126.09 343.01,-121.39 342.16,-128.34"/>
</a>
</g>
</g>
<!-- Node4 -->
<g id="Node000004" class="node">
<title>Node4</title>
<g id="a_Node000004"><a xlink:href="class_connection_line.html#a657559dca679d5fd04ae565b442b6a8b" target="_top" xlink:title=" ">
<polygon fill="white" stroke="#666666" points="872.75,-98 715.75,-98 715.75,-78 872.75,-78 872.75,-98"/>
<text xml:space="preserve" text-anchor="middle" x="794.25" y="-84.5" font-family="Helvetica,sans-Serif" font-size="10.00">ConnectionLine::ConnectionLine</text>
</a>
</g>
</g>
<!-- Node3&#45;&gt;Node4 -->
<g id="edge3_Node000003_Node000004" class="edge">
<title>Node3&#45;&gt;Node4</title>
<g id="a_edge3_Node000003_Node000004"><a xlink:title=" ">
<path fill="none" stroke="#63b8ff" d="M675.35,-88C684.73,-88 694.49,-88 704.19,-88"/>
<polygon fill="#63b8ff" stroke="#63b8ff" points="704.01,-91.5 714.01,-88 704.01,-84.5 704.01,-91.5"/>
</a>
</g>
</g>
<!-- Node5 -->
<g id="Node000005" class="node">
<title>Node5</title>
<g id="a_Node000005"><a xlink:href="class_connection_line.html#a836aef7faf5a4fb8a5a10bfc71dbabe3" target="_top" xlink:title=" ">
<polygon fill="white" stroke="#666666" points="1043.25,-104 908.75,-104 908.75,-72 1043.25,-72 1043.25,-104"/>
<text xml:space="preserve" text-anchor="start" x="916.75" y="-90.5" font-family="Helvetica,sans-Serif" font-size="10.00">ConnectionLine::connectTo</text>
<text xml:space="preserve" text-anchor="middle" x="976" y="-78.5" font-family="Helvetica,sans-Serif" font-size="10.00">Points</text>
</a>
</g>
</g>
<!-- Node4&#45;&gt;Node5 -->
<g id="edge4_Node000004_Node000005" class="edge">
<title>Node4&#45;&gt;Node5</title>
<g id="a_edge4_Node000004_Node000005"><a xlink:title=" ">
<path fill="none" stroke="#63b8ff" d="M873.05,-88C880.95,-88 888.98,-88 896.89,-88"/>
<polygon fill="#63b8ff" stroke="#63b8ff" points="896.85,-91.5 906.85,-88 896.85,-84.5 896.85,-91.5"/>
</a>
</g>
</g>
<!-- Node6 -->
<g id="Node000006" class="node">
<title>Node6</title>
<g id="a_Node000006"><a xlink:href="class_connection_line.html#a53c863c51a284a7a8e6b35bc34bd2d34" target="_top" xlink:title=" ">
<polygon fill="white" stroke="#666666" points="1231.75,-170 1082.25,-170 1082.25,-138 1231.75,-138 1231.75,-170"/>
<text xml:space="preserve" text-anchor="start" x="1090.25" y="-156.5" font-family="Helvetica,sans-Serif" font-size="10.00">ConnectionLine::onConnection</text>
<text xml:space="preserve" text-anchor="middle" x="1157" y="-144.5" font-family="Helvetica,sans-Serif" font-size="10.00">PointChanged</text>
</a>
</g>
</g>
<!-- Node5&#45;&gt;Node6 -->
<g id="edge5_Node000005_Node000006" class="edge">
<title>Node5&#45;&gt;Node6</title>
<g id="a_edge5_Node000005_Node000006"><a xlink:title=" ">
<path fill="none" stroke="#63b8ff" d="M1016.1,-104.38C1035.05,-112.15 1058.22,-121.37 1079.25,-129 1083.7,-130.61 1088.3,-132.24 1092.95,-133.84"/>
<polygon fill="#63b8ff" stroke="#63b8ff" points="1091.79,-137.14 1102.39,-137.03 1094.04,-130.51 1091.79,-137.14"/>
</a>
</g>
</g>
<!-- Node7 -->
<g id="Node000007" class="node">
<title>Node7</title>
<g id="a_Node000007"><a xlink:href="class_connection_line.html#a4bce34a3f2fb1fd7145de2d9100c9173" target="_top" xlink:title=" ">
<polygon fill="white" stroke="#666666" points="1225,-32 1089,-32 1089,0 1225,0 1225,-32"/>
<text xml:space="preserve" text-anchor="start" x="1097" y="-18.5" font-family="Helvetica,sans-Serif" font-size="10.00">ConnectionLine::onElement</text>
<text xml:space="preserve" text-anchor="middle" x="1157" y="-6.5" font-family="Helvetica,sans-Serif" font-size="10.00">PositionChanged</text>
</a>
</g>
</g>
<!-- Node5&#45;&gt;Node7 -->
<g id="edge7_Node000005_Node000007" class="edge">
<title>Node5&#45;&gt;Node7</title>
<g id="a_edge7_Node000005_Node000007"><a xlink:title=" ">
<path fill="none" stroke="#63b8ff" d="M1010.2,-71.55C1030,-62.04 1055.78,-50.18 1079.25,-41 1083.39,-39.38 1087.68,-37.78 1092.02,-36.22"/>
<polygon fill="#63b8ff" stroke="#63b8ff" points="1093.16,-39.53 1101.44,-32.92 1090.84,-32.92 1093.16,-39.53"/>
</a>
</g>
</g>
<!-- Node8 -->
<g id="Node000008" class="node">
<title>Node8</title>
<g id="a_Node000008"><a xlink:href="class_basic_element.html#a02183bafd7c80f9f1f99a9b9f1631524" target="_top" xlink:title=" ">
<polygon fill="white" stroke="#666666" points="1234.75,-120 1079.25,-120 1079.25,-100 1234.75,-100 1234.75,-120"/>
<text xml:space="preserve" text-anchor="middle" x="1157" y="-106.5" font-family="Helvetica,sans-Serif" font-size="10.00">BasicElement::positionChanged</text>
</a>
</g>
</g>
<!-- Node5&#45;&gt;Node8 -->
<g id="edge9_Node000005_Node000008" class="edge">
<title>Node5&#45;&gt;Node8</title>
<g id="a_edge9_Node000005_Node000008"><a xlink:title=" ">
<path fill="none" stroke="#63b8ff" d="M1043.65,-96.19C1051.49,-97.16 1059.58,-98.15 1067.65,-99.14"/>
<polygon fill="#63b8ff" stroke="#63b8ff" points="1067.18,-102.61 1077.53,-100.36 1068.03,-95.66 1067.18,-102.61"/>
</a>
</g>
</g>
<!-- Node9 -->
<g id="Node000009" class="node">
<title>Node9</title>
<g id="a_Node000009"><a xlink:href="class_connection_point.html#a851668ae19e97658f1818a40ea375f65" target="_top" xlink:title=" ">
<polygon fill="white" stroke="#666666" points="1219.75,-82 1094.25,-82 1094.25,-50 1219.75,-50 1219.75,-82"/>
<text xml:space="preserve" text-anchor="start" x="1102.25" y="-68.5" font-family="Helvetica,sans-Serif" font-size="10.00">ConnectionPoint::relative</text>
<text xml:space="preserve" text-anchor="middle" x="1157" y="-56.5" font-family="Helvetica,sans-Serif" font-size="10.00">PositionChanged</text>
</a>
</g>
</g>
<!-- Node5&#45;&gt;Node9 -->
<g id="edge10_Node000005_Node000009" class="edge">
<title>Node5&#45;&gt;Node9</title>
<g id="a_edge10_Node000005_Node000009"><a xlink:title=" ">
<path fill="none" stroke="#63b8ff" d="M1043.65,-79.81C1056.41,-78.24 1069.84,-76.59 1082.8,-75"/>
<polygon fill="#63b8ff" stroke="#63b8ff" points="1083.03,-78.49 1092.53,-73.8 1082.18,-71.55 1083.03,-78.49"/>
</a>
</g>
</g>
<!-- Node6&#45;&gt;Node3 -->
<g id="edge6_Node000006_Node000003" class="edge">
<title>Node6&#45;&gt;Node3</title>
<g id="a_edge6_Node000006_Node000003"><a xlink:title=" ">
<path fill="none" stroke="#63b8ff" d="M1081.81,-147.62C994.15,-139.72 844,-125.08 715.75,-107 706.21,-105.66 696.22,-104.1 686.33,-102.47"/>
<polygon fill="#63b8ff" stroke="#63b8ff" points="687.17,-99.07 676.73,-100.86 686.01,-105.97 687.17,-99.07"/>
</a>
</g>
</g>
<!-- Node7&#45;&gt;Node3 -->
<g id="edge8_Node000007_Node000003" class="edge">
<title>Node7&#45;&gt;Node3</title>
<g id="a_edge8_Node000007_Node000003"><a xlink:title=" ">
<path fill="none" stroke="#63b8ff" d="M1088.72,-22.96C1002.24,-32.17 847.5,-49.52 715.75,-69 706.22,-70.41 696.24,-72 686.35,-73.65"/>
<polygon fill="#63b8ff" stroke="#63b8ff" points="686.03,-70.16 676.75,-75.28 687.2,-77.06 686.03,-70.16"/>
</a>
</g>
</g>
<!-- Node11&#45;&gt;Node3 -->
<g id="edge13_Node000011_Node000003" class="edge">
<title>Node11&#45;&gt;Node3</title>
<g id="a_edge13_Node000011_Node000003"><a xlink:title=" ">
<path fill="none" stroke="#63b8ff" d="M489.35,-118.56C503.22,-114.91 518.04,-111.01 532.3,-107.26"/>
<polygon fill="#63b8ff" stroke="#63b8ff" points="532.82,-110.74 541.6,-104.81 531.04,-103.97 532.82,-110.74"/>
</a>
</g>
</g>
<!-- Node12 -->
<g id="Node000012" class="node">
<title>Node12</title>
<g id="a_Node000012"><a xlink:href="class_connection_line.html#a93e2b3868595cc0ac41de6c0f36c2365" target="_top" xlink:title=" ">
<polygon fill="white" stroke="#666666" points="679.75,-154 533.25,-154 533.25,-122 679.75,-122 679.75,-154"/>
<text xml:space="preserve" text-anchor="start" x="541.25" y="-140.5" font-family="Helvetica,sans-Serif" font-size="10.00">ConnectionLine::controlPoints</text>
<text xml:space="preserve" text-anchor="middle" x="606.5" y="-128.5" font-family="Helvetica,sans-Serif" font-size="10.00">Changed</text>
</a>
</g>
</g>
<!-- Node11&#45;&gt;Node12 -->
<g id="edge14_Node000011_Node000012" class="edge">
<title>Node11&#45;&gt;Node12</title>
<g id="a_edge14_Node000011_Node000012"><a xlink:title=" ">
<path fill="none" stroke="#63b8ff" d="M497.73,-136.19C505.61,-136.32 513.69,-136.46 521.71,-136.59"/>
<polygon fill="#63b8ff" stroke="#63b8ff" points="521.4,-140.09 531.46,-136.76 521.52,-133.09 521.4,-140.09"/>
</a>
</g>
</g>
<!-- Node13&#45;&gt;Node3 -->
<g id="edge16_Node000013_Node000003" class="edge">
<title>Node13&#45;&gt;Node3</title>
<g id="a_edge16_Node000013_Node000003"><a xlink:title=" ">
<path fill="none" stroke="#63b8ff" d="M277.81,-36.54C326.03,-22.18 420.52,-0.45 497.25,-22 527.02,-30.36 556.72,-49.42 577.45,-64.92"/>
<polygon fill="#63b8ff" stroke="#63b8ff" points="575.06,-67.49 585.12,-70.82 579.33,-61.94 575.06,-67.49"/>
</a>
</g>
</g>
<!-- Node14 -->
<g id="Node000014" class="node">
<title>Node14</title>
<g id="a_Node000014"><a xlink:href="class_connection_line.html#a3c8e72d1084c985add08c5e37d54835f" target="_top" xlink:title=" ">
<polygon fill="white" stroke="#666666" points="490.88,-63 360.88,-63 360.88,-31 490.88,-31 490.88,-63"/>
<text xml:space="preserve" text-anchor="start" x="368.88" y="-49.5" font-family="Helvetica,sans-Serif" font-size="10.00">ConnectionLine::lineWidth</text>
<text xml:space="preserve" text-anchor="middle" x="425.88" y="-37.5" font-family="Helvetica,sans-Serif" font-size="10.00">Changed</text>
</a>
</g>
</g>
<!-- Node13&#45;&gt;Node14 -->
<g id="edge17_Node000013_Node000014" class="edge">
<title>Node13&#45;&gt;Node14</title>
<g id="a_edge17_Node000013_Node000014"><a xlink:title=" ">
<path fill="none" stroke="#63b8ff" d="M318.9,-47C328.94,-47 339.27,-47 349.35,-47"/>
<polygon fill="#63b8ff" stroke="#63b8ff" points="349.09,-50.5 359.09,-47 349.09,-43.5 349.09,-50.5"/>
</a>
</g>
</g>
</g>
</svg>
