<?xml version="1.0" encoding="UTF-8" standalone="no"?>
<!DOCTYPE svg PUBLIC "-//W3C//DTD SVG 1.1//EN"
 "http://www.w3.org/Graphics/SVG/1.1/DTD/svg11.dtd">
<!-- Generated by graphviz version 14.1.1 (20251213.1925)
 -->
<!-- Title: MainWindow::onAutoSaveTriggered Pages: 1 -->
<svg width="1273pt" height="147pt"
 viewBox="0.00 0.00 1273.00 147.00" xmlns="http://www.w3.org/2000/svg" xmlns:xlink="http://www.w3.org/1999/xlink">
<g id="graph0" class="graph" transform="scale(1 1) rotate(0) translate(4 143)">
<title>MainWindow::onAutoSaveTriggered</title>
<!-- Node1 -->
<g id="Node000001" class="node">
<title>Node1</title>
<g id="a_Node000001"><a xlink:title=" ">
<polygon fill="#999999" stroke="#666666" points="172,-70 0,-70 0,-50 172,-50 172,-70"/>
<text xml:space="preserve" text-anchor="middle" x="86" y="-56.5" font-family="Helvetica,sans-Serif" font-size="10.00">MainWindow::onAutoSaveTriggered</text>
</a>
</g>
</g>
<!-- Node2 -->
<g id="Node000002" class="node">
<title>Node2</title>
<g id="a_Node000002"><a xlink:href="class_main_window.html#a101685dce06592fd3a51da45fc7be4ad" target="_top" xlink:title=" ">
<polygon fill="white" stroke="#666666" points="363.5,-89 217,-89 217,-69 363.5,-69 363.5,-89"/>
<text xml:space="preserve" text-anchor="middle" x="290.25" y="-75.5" font-family="Helvetica,sans-Serif" font-size="10.00">MainWindow::saveToMainFile</text>
</a>
</g>
</g>
<!-- Node1&#45;&gt;Node2 -->
<g id="edge1_Node000001_Node000002" class="edge">
<title>Node1&#45;&gt;Node2</title>
<g id="a_edge1_Node000001_Node000002"><a xlink:title=" ">
<path fill="none" stroke="#63b8ff" d="M172.48,-68.03C183.36,-69.05 194.49,-70.1 205.35,-71.12"/>
<polygon fill="#63b8ff" stroke="#63b8ff" points="204.75,-74.58 215.03,-72.03 205.41,-67.61 204.75,-74.58"/>
</a>
</g>
</g>
<!-- Node13 -->
<g id="Node000013" class="node">
<title>Node13</title>
<g id="a_Node000013"><a xlink:href="class_main_window.html#ab38b9b1c96adcb0bbbbaec5b3ff5ae19" target="_top" xlink:title=" ">
<polygon fill="white" stroke="#666666" points="372.5,-51 208,-51 208,-31 372.5,-31 372.5,-51"/>
<text xml:space="preserve" text-anchor="middle" x="290.25" y="-37.5" font-family="Helvetica,sans-Serif" font-size="10.00">MainWindow::saveVersionBackup</text>
</a>
</g>
</g>
<!-- Node1&#45;&gt;Node13 -->
<g id="edge12_Node000001_Node000013" class="edge">
<title>Node1&#45;&gt;Node13</title>
<g id="a_edge12_Node000001_Node000013"><a xlink:title=" ">
<path fill="none" stroke="#63b8ff" d="M172.48,-51.97C180.39,-51.23 188.44,-50.47 196.41,-49.72"/>
<polygon fill="#63b8ff" stroke="#63b8ff" points="196.49,-53.23 206.12,-48.81 195.83,-46.26 196.49,-53.23"/>
</a>
</g>
</g>
<!-- Node3 -->
<g id="Node000003" class="node">
<title>Node3</title>
<g id="a_Node000003"><a xlink:href="class_json_helper.html#a7f720f1105f91b135fdfbcaf94e3f929" target="_top" xlink:title=" ">
<polygon fill="white" stroke="#666666" points="564,-70 408.5,-70 408.5,-50 564,-50 564,-70"/>
<text xml:space="preserve" text-anchor="middle" x="486.25" y="-56.5" font-family="Helvetica,sans-Serif" font-size="10.00">JsonHelper::saveDiagramToFile</text>
</a>
</g>
</g>
<!-- Node2&#45;&gt;Node3 -->
<g id="edge2_Node000002_Node000003" class="edge">
<title>Node2&#45;&gt;Node3</title>
<g id="a_edge2_Node000002_Node000003"><a xlink:title=" ">
<path fill="none" stroke="#63b8ff" d="M363.76,-71.9C374.55,-70.84 385.76,-69.74 396.83,-68.66"/>
<polygon fill="#63b8ff" stroke="#63b8ff" points="397.16,-72.14 406.77,-67.69 396.48,-65.18 397.16,-72.14"/>
</a>
</g>
</g>
<!-- Node12 -->
<g id="Node000012" class="node">
<title>Node12</title>
<g id="a_Node000012"><a xlink:href="class_main_window.html#a90cfbcf2e0f2549760a60f184ee0acbf" target="_top" xlink:title=" ">
<polygon fill="white" stroke="#666666" points="557.62,-120 414.88,-120 414.88,-88 557.62,-88 557.62,-120"/>
<text xml:space="preserve" text-anchor="start" x="422.88" y="-106.5" font-family="Helvetica,sans-Serif" font-size="10.00">MainWindow::updateWindow</text>
<text xml:space="preserve" text-anchor="middle" x="486.25" y="-94.5" font-family="Helvetica,sans-Serif" font-size="10.00">Title</text>
</a>
</g>
</g>
<!-- Node2&#45;&gt;Node12 -->
<g id="edge11_Node000002_Node000012" class="edge">
<title>Node2&#45;&gt;Node12</title>
<g id="a_edge11_Node000002_Node000012"><a xlink:title=" ">
<path fill="none" stroke="#63b8ff" d="M363.76,-88.34C376.58,-90 390.01,-91.73 403.07,-93.41"/>
<polygon fill="#63b8ff" stroke="#63b8ff" points="402.57,-96.87 412.93,-94.68 403.46,-89.93 402.57,-96.87"/>
</a>
</g>
</g>
<!-- Node4 -->
<g id="Node000004" class="node">
<title>Node4</title>
<g id="a_Node000004"><a xlink:href="class_json_helper.html#a3dc80512edb9b1f8bc8e50015e27e864" target="_top" xlink:title=" ">
<polygon fill="white" stroke="#666666" points="737.5,-76 600,-76 600,-44 737.5,-44 737.5,-76"/>
<text xml:space="preserve" text-anchor="start" x="608" y="-62.5" font-family="Helvetica,sans-Serif" font-size="10.00">JsonHelper::diagramToJson</text>
<text xml:space="preserve" text-anchor="middle" x="668.75" y="-50.5" font-family="Helvetica,sans-Serif" font-size="10.00">Object</text>
</a>
</g>
</g>
<!-- Node3&#45;&gt;Node4 -->
<g id="edge3_Node000003_Node000004" class="edge">
<title>Node3&#45;&gt;Node4</title>
<g id="a_edge3_Node000003_Node000004"><a xlink:title=" ">
<path fill="none" stroke="#63b8ff" d="M564.32,-60C572.33,-60 580.48,-60 588.52,-60"/>
<polygon fill="#63b8ff" stroke="#63b8ff" points="588.26,-63.5 598.26,-60 588.26,-56.5 588.26,-63.5"/>
</a>
</g>
</g>
<!-- Node5 -->
<g id="Node000005" class="node">
<title>Node5</title>
<g id="a_Node000005"><a xlink:href="class_json_helper.html#ace49a2bdc031d44388b744f93da1fd6d" target="_top" xlink:title=" ">
<polygon fill="white" stroke="#666666" points="906.88,-101 777.62,-101 777.62,-69 906.88,-69 906.88,-101"/>
<text xml:space="preserve" text-anchor="start" x="785.62" y="-87.5" font-family="Helvetica,sans-Serif" font-size="10.00">JsonHelper::connectionTo</text>
<text xml:space="preserve" text-anchor="middle" x="842.25" y="-75.5" font-family="Helvetica,sans-Serif" font-size="10.00">JsonObject</text>
</a>
</g>
</g>
<!-- Node4&#45;&gt;Node5 -->
<g id="edge4_Node000004_Node000005" class="edge">
<title>Node4&#45;&gt;Node5</title>
<g id="a_edge4_Node000004_Node000005"><a xlink:title=" ">
<path fill="none" stroke="#63b8ff" d="M737.53,-69.88C746.95,-71.25 756.68,-72.67 766.22,-74.06"/>
<polygon fill="#63b8ff" stroke="#63b8ff" points="765.42,-77.48 775.82,-75.46 766.43,-70.56 765.42,-77.48"/>
</a>
</g>
</g>
<!-- Node10 -->
<g id="Node000010" class="node">
<title>Node10</title>
<g id="a_Node000010"><a xlink:href="class_json_helper.html#a2141a614711cf449951f1ebde5a9b119" target="_top" xlink:title=" ">
<polygon fill="white" stroke="#666666" points="911,-51 773.5,-51 773.5,-19 911,-19 911,-51"/>
<text xml:space="preserve" text-anchor="start" x="781.5" y="-37.5" font-family="Helvetica,sans-Serif" font-size="10.00">JsonHelper::elementToJson</text>
<text xml:space="preserve" text-anchor="middle" x="842.25" y="-25.5" font-family="Helvetica,sans-Serif" font-size="10.00">Object</text>
</a>
</g>
</g>
<!-- Node4&#45;&gt;Node10 -->
<g id="edge9_Node000004_Node000010" class="edge">
<title>Node4&#45;&gt;Node10</title>
<g id="a_edge9_Node000004_Node000010"><a xlink:title=" ">
<path fill="none" stroke="#63b8ff" d="M737.53,-50.12C745.49,-48.96 753.66,-47.77 761.75,-46.59"/>
<polygon fill="#63b8ff" stroke="#63b8ff" points="762.23,-50.06 771.62,-45.15 761.22,-43.13 762.23,-50.06"/>
</a>
</g>
</g>
<!-- Node6 -->
<g id="Node000006" class="node">
<title>Node6</title>
<g id="a_Node000006"><a xlink:href="class_connection_line.html#a89b03bf381274e4504b1cde0f32972ee" target="_top" xlink:title=" ">
<polygon fill="white" stroke="#666666" points="1072.5,-95 947,-95 947,-75 1072.5,-75 1072.5,-95"/>
<text xml:space="preserve" text-anchor="middle" x="1009.75" y="-81.5" font-family="Helvetica,sans-Serif" font-size="10.00">ConnectionLine::serialize</text>
</a>
</g>
</g>
<!-- Node5&#45;&gt;Node6 -->
<g id="edge5_Node000005_Node000006" class="edge">
<title>Node5&#45;&gt;Node6</title>
<g id="a_edge5_Node000005_Node000006"><a xlink:title=" ">
<path fill="none" stroke="#63b8ff" d="M907.24,-85C916.42,-85 925.93,-85 935.28,-85"/>
<polygon fill="#63b8ff" stroke="#63b8ff" points="935.05,-88.5 945.05,-85 935.05,-81.5 935.05,-88.5"/>
</a>
</g>
</g>
<!-- Node7 -->
<g id="Node000007" class="node">
<title>Node7</title>
<g id="a_Node000007"><a xlink:href="class_connection_line.html#ab11952b505976244aabc575e0ec7b118" target="_top" xlink:title=" ">
<polygon fill="white" stroke="#666666" points="1264.75,-139 1108.5,-139 1108.5,-119 1264.75,-119 1264.75,-139"/>
<text xml:space="preserve" text-anchor="middle" x="1186.62" y="-125.5" font-family="Helvetica,sans-Serif" font-size="10.00">ConnectionLine::getEndElement</text>
</a>
</g>
</g>
<!-- Node6&#45;&gt;Node7 -->
<g id="edge6_Node000006_Node000007" class="edge">
<title>Node6&#45;&gt;Node7</title>
<g id="a_edge6_Node000006_Node000007"><a xlink:title=" ">
<path fill="none" stroke="#63b8ff" d="M1051.15,-95.42C1068.76,-99.94 1089.64,-105.27 1108.5,-110 1116.05,-111.89 1124.01,-113.88 1131.84,-115.82"/>
<polygon fill="#63b8ff" stroke="#63b8ff" points="1130.76,-119.15 1141.3,-118.15 1132.44,-112.36 1130.76,-119.15"/>
</a>
</g>
</g>
<!-- Node8 -->
<g id="Node000008" class="node">
<title>Node8</title>
<g id="a_Node000008"><a xlink:href="class_connection_line.html#ad957be37b7bbb9250366225fd357a5a6" target="_top" xlink:title=" ">
<polygon fill="white" stroke="#666666" points="1248.62,-101 1124.62,-101 1124.62,-69 1248.62,-69 1248.62,-101"/>
<text xml:space="preserve" text-anchor="start" x="1132.62" y="-87.5" font-family="Helvetica,sans-Serif" font-size="10.00">ConnectionLine::getStart</text>
<text xml:space="preserve" text-anchor="middle" x="1186.62" y="-75.5" font-family="Helvetica,sans-Serif" font-size="10.00">Element</text>
</a>
</g>
</g>
<!-- Node6&#45;&gt;Node8 -->
<g id="edge7_Node000006_Node000008" class="edge">
<title>Node6&#45;&gt;Node8</title>
<g id="a_edge7_Node000006_Node000008"><a xlink:title=" ">
<path fill="none" stroke="#63b8ff" d="M1072.9,-85C1085.8,-85 1099.52,-85 1112.77,-85"/>
<polygon fill="#63b8ff" stroke="#63b8ff" points="1112.75,-88.5 1122.75,-85 1112.75,-81.5 1112.75,-88.5"/>
</a>
</g>
</g>
<!-- Node9 -->
<g id="Node000009" class="node">
<title>Node9</title>
<g id="a_Node000009"><a xlink:href="class_connection_line.html#aacfed243a999c948c87dab84ebc508aa" target="_top" xlink:title=" ">
<polygon fill="white" stroke="#666666" points="1251.62,-51 1121.62,-51 1121.62,-31 1251.62,-31 1251.62,-51"/>
<text xml:space="preserve" text-anchor="middle" x="1186.62" y="-37.5" font-family="Helvetica,sans-Serif" font-size="10.00">ConnectionLine::lineWidth</text>
</a>
</g>
</g>
<!-- Node6&#45;&gt;Node9 -->
<g id="edge8_Node000006_Node000009" class="edge">
<title>Node6&#45;&gt;Node9</title>
<g id="a_edge8_Node000006_Node000009"><a xlink:title=" ">
<path fill="none" stroke="#63b8ff" d="M1051.15,-74.58C1068.76,-70.06 1089.64,-64.73 1108.5,-60 1116.05,-58.11 1124.01,-56.12 1131.84,-54.18"/>
<polygon fill="#63b8ff" stroke="#63b8ff" points="1132.44,-57.64 1141.3,-51.85 1130.76,-50.85 1132.44,-57.64"/>
</a>
</g>
</g>
<!-- Node11 -->
<g id="Node000011" class="node">
<title>Node11</title>
<g id="a_Node000011"><a xlink:href="class_basic_element.html#a56f5f9a22723d2a99d87c7508b0bec7f" target="_top" xlink:title=" ">
<polygon fill="white" stroke="#666666" points="1069.12,-45 950.38,-45 950.38,-25 1069.12,-25 1069.12,-45"/>
<text xml:space="preserve" text-anchor="middle" x="1009.75" y="-31.5" font-family="Helvetica,sans-Serif" font-size="10.00">BasicElement::serialize</text>
</a>
</g>
</g>
<!-- Node10&#45;&gt;Node11 -->
<g id="edge10_Node000010_Node000011" class="edge">
<title>Node10&#45;&gt;Node11</title>
<g id="a_edge10_Node000010_Node000011"><a xlink:title=" ">
<path fill="none" stroke="#63b8ff" d="M911.04,-35C920.14,-35 929.49,-35 938.63,-35"/>
<polygon fill="#63b8ff" stroke="#63b8ff" points="938.55,-38.5 948.55,-35 938.55,-31.5 938.55,-38.5"/>
</a>
</g>
</g>
<!-- Node13&#45;&gt;Node3 -->
<g id="edge14_Node000013_Node000003" class="edge">
<title>Node13&#45;&gt;Node3</title>
<g id="a_edge14_Node000013_Node000003"><a xlink:title=" ">
<path fill="none" stroke="#63b8ff" d="M372.96,-49C380.91,-49.78 389.01,-50.57 397.02,-51.36"/>
<polygon fill="#63b8ff" stroke="#63b8ff" points="396.47,-54.82 406.77,-52.31 397.16,-47.86 396.47,-54.82"/>
</a>
</g>
</g>
<!-- Node14 -->
<g id="Node000014" class="node">
<title>Node14</title>
<g id="a_Node000014"><a xlink:href="class_main_window.html#ae7ae4d876af9ec4b32587c25558e2e47" target="_top" xlink:title=" ">
<polygon fill="white" stroke="#666666" points="554.25,-32 418.25,-32 418.25,0 554.25,0 554.25,-32"/>
<text xml:space="preserve" text-anchor="start" x="426.25" y="-18.5" font-family="Helvetica,sans-Serif" font-size="10.00">MainWindow::generateAuto</text>
<text xml:space="preserve" text-anchor="middle" x="486.25" y="-6.5" font-family="Helvetica,sans-Serif" font-size="10.00">SaveFileName</text>
</a>
</g>
</g>
<!-- Node13&#45;&gt;Node14 -->
<g id="edge13_Node000013_Node000014" class="edge">
<title>Node13&#45;&gt;Node14</title>
<g id="a_edge13_Node000013_Node000014"><a xlink:title=" ">
<path fill="none" stroke="#63b8ff" d="M372.68,-30.51C383.96,-29.05 395.52,-27.56 406.74,-26.12"/>
<polygon fill="#63b8ff" stroke="#63b8ff" points="406.86,-29.63 416.33,-24.88 405.96,-22.69 406.86,-29.63"/>
</a>
</g>
</g>
</g>
</svg>
