<?xml version="1.0" encoding="UTF-8" standalone="no"?>
<!DOCTYPE svg PUBLIC "-//W3C//DTD SVG 1.1//EN"
 "http://www.w3.org/Graphics/SVG/1.1/DTD/svg11.dtd">
<!-- Generated by graphviz version 14.1.1 (20251213.1925)
 -->
<!-- Title: Attribute::primaryKeyChanged Pages: 1 -->
<svg width="481pt" height="28pt"
 viewBox="0.00 0.00 481.00 28.00" xmlns="http://www.w3.org/2000/svg" xmlns:xlink="http://www.w3.org/1999/xlink">
<g id="graph0" class="graph" transform="scale(1 1) rotate(0) translate(4 24)">
<title>Attribute::primaryKeyChanged</title>
<!-- Node1 -->
<g id="Node000001" class="node">
<title>Node1</title>
<g id="a_Node000001"><a xlink:title=" ">
<polygon fill="#999999" stroke="#666666" points="472.5,-20 325.25,-20 325.25,0 472.5,0 472.5,-20"/>
<text xml:space="preserve" text-anchor="middle" x="398.88" y="-6.5" font-family="Helvetica,sans-Serif" font-size="10.00">Attribute::primaryKeyChanged</text>
</a>
</g>
</g>
<!-- Node2 -->
<g id="Node000002" class="node">
<title>Node2</title>
<g id="a_Node000002"><a xlink:href="class_attribute.html#a8918add957134a18557a19f9939699f3" target="_top" xlink:title=" ">
<polygon fill="white" stroke="#666666" points="289.25,-20 166,-20 166,0 289.25,0 289.25,-20"/>
<text xml:space="preserve" text-anchor="middle" x="227.62" y="-6.5" font-family="Helvetica,sans-Serif" font-size="10.00">Attribute::setPrimaryKey</text>
</a>
</g>
</g>
<!-- Node1&#45;&gt;Node2 -->
<g id="edge1_Node000001_Node000002" class="edge">
<title>Node1&#45;&gt;Node2</title>
<g id="a_edge1_Node000001_Node000002"><a xlink:title=" ">
<path fill="none" stroke="#63b8ff" d="M313.69,-10C305.58,-10 297.46,-10 289.64,-10"/>
<polygon fill="#63b8ff" stroke="#63b8ff" points="313.6,-13.5 323.6,-10 313.6,-6.5 313.6,-13.5"/>
</a>
</g>
</g>
<!-- Node3 -->
<g id="Node000003" class="node">
<title>Node3</title>
<g id="a_Node000003"><a xlink:href="class_attribute.html#ad76b9eb27719dada6e85b73f0ffc8ac0" target="_top" xlink:title=" ">
<polygon fill="white" stroke="#666666" points="130,-20 0,-20 0,0 130,0 130,-20"/>
<text xml:space="preserve" text-anchor="middle" x="65" y="-6.5" font-family="Helvetica,sans-Serif" font-size="10.00">Attribute::setAttributeType</text>
</a>
</g>
</g>
<!-- Node2&#45;&gt;Node3 -->
<g id="edge2_Node000002_Node000003" class="edge">
<title>Node2&#45;&gt;Node3</title>
<g id="a_edge2_Node000002_Node000003"><a xlink:title=" ">
<path fill="none" stroke="#63b8ff" d="M154.57,-10C146.48,-10 138.28,-10 130.29,-10"/>
<polygon fill="#63b8ff" stroke="#63b8ff" points="154.39,-13.5 164.39,-10 154.39,-6.5 154.39,-13.5"/>
</a>
</g>
</g>
</g>
</svg>
