<?xml version="1.0" encoding="UTF-8" standalone="no"?>
<!DOCTYPE svg PUBLIC "-//W3C//DTD SVG 1.1//EN"
 "http://www.w3.org/Graphics/SVG/1.1/DTD/svg11.dtd">
<!-- Generated by graphviz version 14.1.1 (20251213.1925)
 -->
<!-- Title: Attribute::Attribute Pages: 1 -->
<!--zoomable 229 -->

<svg id="main" version="1.1" xmlns="http://www.w3.org/2000/svg" xmlns:xlink="http://www.w3.org/1999/xlink" xml:space="preserve" onload="init(evt)">

<style type="text/css"><![CDATA[
.node, .edge {opacity: 0.7;}
.node.selected, .edge.selected {opacity: 1;}
.edge:hover path { stroke: red; }
.edge:hover polygon { stroke: red; fill: red; }
]]></style>

<defs>
  <circle id="rim" cx="0" cy="0" r="7"/>
  <circle id="rim2" cx="0" cy="0" r="3.5"/>
  <g id="zoomPlus">
    <use xlink:href="#rim" fill="#404040"><set attributeName="fill" to="#808080" begin="zoomplus.mouseover" end="zoomplus.mouseout"/></use>
    <path d="M-4,0h8M0,-4v8" fill="none" stroke="white" stroke-width="1.5" pointer-events="none"/>
  </g>
  <g id="zoomMin">
    <use xlink:href="#rim" fill="#404040"><set attributeName="fill" to="#808080" begin="zoomminus.mouseover" end="zoomminus.mouseout"/></use>
    <path d="M-4,0h8" fill="none" stroke="white" stroke-width="1.5" pointer-events="none"/>
  </g>
  <g id="arrowUp" transform="translate(30 24)">
    <use xlink:href="#rim"/>
    <path pointer-events="none" fill="none" stroke="white" stroke-width="1.5" d="M0,-3.0v7 M-2.5,-0.5L0,-3.0L2.5,-0.5"/>
  </g>
  <g id="arrowRight" transform="rotate(90) translate(36 -43)">
    <use xlink:href="#rim"/>
    <path pointer-events="none" fill="none" stroke="white" stroke-width="1.5" d="M0,-3.0v7 M-2.5,-0.5L0,-3.0L2.5,-0.5"/>
  </g>
  <g id="arrowDown" transform="rotate(180) translate(-30 -48)">
    <use xlink:href="#rim"/>
    <path pointer-events="none" fill="none" stroke="white" stroke-width="1.5" d="M0,-3.0v7 M-2.5,-0.5L0,-3.0L2.5,-0.5"/>
  </g>
  <g id="arrowLeft" transform="rotate(270) translate(-36 17)">
    <use xlink:href="#rim"/>
    <path pointer-events="none" fill="none" stroke="white" stroke-width="1.5" d="M0,-3.0v7 M-2.5,-0.5L0,-3.0L2.5,-0.5"/>
  </g>
  <g id="resetDef">
    <use xlink:href="#rim2" fill="#404040"><set attributeName="fill" to="#808080" begin="reset.mouseover" end="reset.mouseout"/></use>
  </g>
</defs>
<script type="application/ecmascript">
var viewWidth = 1034;
var viewHeight = 229;
var sectionId = 'dynsection-2';
</script>
<script type="application/ecmascript" xlink:href="svg.min.js"/>
<svg id="graph" class="graph">
<g id="viewport">
<title>Attribute::Attribute</title>
<!-- Node1 -->
<g id="Node000001" class="node">
<title>Node1</title>
<g id="a_Node000001"><a xlink:title=" ">
<polygon fill="#999999" stroke="#666666" points="95.5,-101 0,-101 0,-81 95.5,-81 95.5,-101"/>
<text xml:space="preserve" text-anchor="middle" x="47.75" y="-87.5" font-family="Helvetica,sans-Serif" font-size="10.00">Attribute::Attribute</text>
</a>
</g>
</g>
<!-- Node1&#45;&gt;Node1 -->
<g id="edge1_Node000001_Node000001" class="edge">
<title>Node1&#45;&gt;Node1</title>
<g id="a_edge1_Node000001_Node000001"><a xlink:title=" ">
<path fill="none" stroke="#63b8ff" d="M23.04,-101.34C12.48,-109.98 20.72,-119 47.75,-119 62.53,-119 71.69,-116.3 75.23,-112.44"/>
<polygon fill="#63b8ff" stroke="#63b8ff" points="78.65,-111.66 72.82,-102.81 71.85,-113.36 78.65,-111.66"/>
</a>
</g>
</g>
<!-- Node2 -->
<g id="Node000002" class="node">
<title>Node2</title>
<g id="a_Node000002"><a xlink:href="class_basic_element.html#a85cccd7db0e46e4e2b646365cd6c66a9" target="_top" xlink:title=" ">
<polygon fill="white" stroke="#666666" points="275,-140 131.5,-140 131.5,-120 275,-120 275,-140"/>
<text xml:space="preserve" text-anchor="middle" x="203.25" y="-126.5" font-family="Helvetica,sans-Serif" font-size="10.00">BasicElement::BasicElement</text>
</a>
</g>
</g>
<!-- Node1&#45;&gt;Node2 -->
<g id="edge2_Node000001_Node000002" class="edge">
<title>Node1&#45;&gt;Node2</title>
<g id="a_edge2_Node000001_Node000002"><a xlink:title=" ">
<path fill="none" stroke="#63b8ff" d="M89.89,-101.45C108.38,-106.15 130.42,-111.75 150.07,-116.74"/>
<polygon fill="#63b8ff" stroke="#63b8ff" points="148.98,-120.08 159.53,-119.15 150.7,-113.29 148.98,-120.08"/>
</a>
</g>
</g>
<!-- Node9 -->
<g id="Node000009" class="node">
<title>Node9</title>
<g id="a_Node000009"><a xlink:href="class_attribute.html#a9fbfd8cb51abe1f5b3e85333eb3ba55a" target="_top" xlink:title=" ">
<polygon fill="white" stroke="#666666" points="261.5,-101 145,-101 145,-81 261.5,-81 261.5,-101"/>
<text xml:space="preserve" text-anchor="middle" x="203.25" y="-87.5" font-family="Helvetica,sans-Serif" font-size="10.00">Attribute::preferredSize</text>
</a>
</g>
</g>
<!-- Node1&#45;&gt;Node9 -->
<g id="edge9_Node000001_Node000009" class="edge">
<title>Node1&#45;&gt;Node9</title>
<g id="a_edge9_Node000001_Node000009"><a xlink:title=" ">
<path fill="none" stroke="#63b8ff" d="M95.64,-91C107.45,-91 120.38,-91 133.04,-91"/>
<polygon fill="#63b8ff" stroke="#63b8ff" points="133.03,-94.5 143.03,-91 133.03,-87.5 133.03,-94.5"/>
</a>
</g>
</g>
<!-- Node10 -->
<g id="Node000010" class="node">
<title>Node10</title>
<g id="a_Node000010"><a xlink:href="class_basic_element.html#ab86c964c6ef9e8d7299efc263a0837e7" target="_top" xlink:title=" ">
<polygon fill="white" stroke="#666666" points="261.12,-60 145.38,-60 145.38,-40 261.12,-40 261.12,-60"/>
<text xml:space="preserve" text-anchor="middle" x="203.25" y="-46.5" font-family="Helvetica,sans-Serif" font-size="10.00">BasicElement::setSize</text>
</a>
</g>
</g>
<!-- Node1&#45;&gt;Node10 -->
<g id="edge10_Node000001_Node000010" class="edge">
<title>Node1&#45;&gt;Node10</title>
<g id="a_edge10_Node000001_Node000010"><a xlink:title=" ">
<path fill="none" stroke="#63b8ff" d="M87.88,-80.55C107.46,-75.32 131.37,-68.93 152.26,-63.35"/>
<polygon fill="#63b8ff" stroke="#63b8ff" points="152.97,-66.79 161.73,-60.82 151.16,-60.02 152.97,-66.79"/>
</a>
</g>
</g>
<!-- Node3 -->
<g id="Node000003" class="node">
<title>Node3</title>
<g id="a_Node000003"><a xlink:href="class_basic_element.html#a78e2ce29aa5b2a9fae74cf435996ce8b" target="_top" xlink:title=" ">
<polygon fill="white" stroke="#666666" points="459,-196 314.75,-196 314.75,-164 459,-164 459,-196"/>
<text xml:space="preserve" text-anchor="start" x="322.75" y="-182.5" font-family="Helvetica,sans-Serif" font-size="10.00">BasicElement::createAndAdd</text>
<text xml:space="preserve" text-anchor="middle" x="386.88" y="-170.5" font-family="Helvetica,sans-Serif" font-size="10.00">DefaultConnectionPoints</text>
</a>
</g>
</g>
<!-- Node2&#45;&gt;Node3 -->
<g id="edge3_Node000002_Node000003" class="edge">
<title>Node2&#45;&gt;Node3</title>
<g id="a_edge3_Node000002_Node000003"><a xlink:title=" ">
<path fill="none" stroke="#63b8ff" d="M242.32,-140.48C263.44,-146.29 290.37,-153.71 315.19,-160.54"/>
<polygon fill="#63b8ff" stroke="#63b8ff" points="314.01,-163.85 324.58,-163.13 315.87,-157.1 314.01,-163.85"/>
</a>
</g>
</g>
<!-- Node8 -->
<g id="Node000008" class="node">
<title>Node8</title>
<g id="a_Node000008"><a xlink:href="class_basic_element.html#a01a6511d922708fe0042474740109152" target="_top" xlink:title=" ">
<polygon fill="white" stroke="#666666" points="456,-146 317.75,-146 317.75,-114 456,-114 456,-146"/>
<text xml:space="preserve" text-anchor="start" x="325.75" y="-132.5" font-family="Helvetica,sans-Serif" font-size="10.00">BasicElement::elementType</text>
<text xml:space="preserve" text-anchor="middle" x="386.88" y="-120.5" font-family="Helvetica,sans-Serif" font-size="10.00">ToString</text>
</a>
</g>
</g>
<!-- Node2&#45;&gt;Node8 -->
<g id="edge8_Node000002_Node000008" class="edge">
<title>Node2&#45;&gt;Node8</title>
<g id="a_edge8_Node000002_Node000008"><a xlink:title=" ">
<path fill="none" stroke="#63b8ff" d="M275.25,-130C285.3,-130 295.69,-130 305.89,-130"/>
<polygon fill="#63b8ff" stroke="#63b8ff" points="305.79,-133.5 315.79,-130 305.79,-126.5 305.79,-133.5"/>
</a>
</g>
</g>
<!-- Node4 -->
<g id="Node000004" class="node">
<title>Node4</title>
<g id="a_Node000004"><a xlink:href="class_basic_element.html#a0357bfa9b1ef06dd1c9d64bcb00813f4" target="_top" xlink:title=" ">
<polygon fill="white" stroke="#666666" points="649,-221 501,-221 501,-189 649,-189 649,-221"/>
<text xml:space="preserve" text-anchor="start" x="509" y="-207.5" font-family="Helvetica,sans-Serif" font-size="10.00">BasicElement::addConnection</text>
<text xml:space="preserve" text-anchor="middle" x="575" y="-195.5" font-family="Helvetica,sans-Serif" font-size="10.00">Point</text>
</a>
</g>
</g>
<!-- Node3&#45;&gt;Node4 -->
<g id="edge4_Node000003_Node000004" class="edge">
<title>Node3&#45;&gt;Node4</title>
<g id="a_edge4_Node000003_Node000004"><a xlink:title=" ">
<path fill="none" stroke="#63b8ff" d="M459.3,-189.59C469.14,-190.91 479.31,-192.28 489.35,-193.63"/>
<polygon fill="#63b8ff" stroke="#63b8ff" points="488.73,-197.08 499.11,-194.94 489.66,-190.14 488.73,-197.08"/>
</a>
</g>
</g>
<!-- Node5 -->
<g id="Node000005" class="node">
<title>Node5</title>
<g id="a_Node000005"><a xlink:href="class_connection_point.html#a828996f0bb02e9154b5d3af03f1734b8" target="_top" xlink:title=" ">
<polygon fill="white" stroke="#666666" points="651.25,-171 498.75,-171 498.75,-139 651.25,-139 651.25,-171"/>
<text xml:space="preserve" text-anchor="start" x="506.75" y="-157.5" font-family="Helvetica,sans-Serif" font-size="10.00">ConnectionPoint::createDefault</text>
<text xml:space="preserve" text-anchor="middle" x="575" y="-145.5" font-family="Helvetica,sans-Serif" font-size="10.00">ConnectionPoints</text>
</a>
</g>
</g>
<!-- Node3&#45;&gt;Node5 -->
<g id="edge5_Node000003_Node000005" class="edge">
<title>Node3&#45;&gt;Node5</title>
<g id="a_edge5_Node000003_Node000005"><a xlink:title=" ">
<path fill="none" stroke="#63b8ff" d="M459.3,-170.41C468.41,-169.18 477.82,-167.92 487.14,-166.67"/>
<polygon fill="#63b8ff" stroke="#63b8ff" points="487.49,-170.15 496.94,-165.35 486.56,-163.21 487.49,-170.15"/>
</a>
</g>
</g>
<!-- Node6 -->
<g id="Node000006" class="node">
<title>Node6</title>
<g id="a_Node000006"><a xlink:href="class_connection_point.html#a0bca0b4cf605278cb17d8052dc027932" target="_top" xlink:title=" ">
<polygon fill="white" stroke="#666666" points="846.5,-171 687.25,-171 687.25,-139 846.5,-139 846.5,-171"/>
<text xml:space="preserve" text-anchor="start" x="695.25" y="-157.5" font-family="Helvetica,sans-Serif" font-size="10.00">ConnectionPoint::addConnection</text>
<text xml:space="preserve" text-anchor="middle" x="766.88" y="-145.5" font-family="Helvetica,sans-Serif" font-size="10.00">Point</text>
</a>
</g>
</g>
<!-- Node5&#45;&gt;Node6 -->
<g id="edge6_Node000005_Node000006" class="edge">
<title>Node5&#45;&gt;Node6</title>
<g id="a_edge6_Node000005_Node000006"><a xlink:title=" ">
<path fill="none" stroke="#63b8ff" d="M651.59,-155C659.46,-155 667.52,-155 675.53,-155"/>
<polygon fill="#63b8ff" stroke="#63b8ff" points="675.3,-158.5 685.3,-155 675.3,-151.5 675.3,-158.5"/>
</a>
</g>
</g>
<!-- Node7 -->
<g id="Node000007" class="node">
<title>Node7</title>
<g id="a_Node000007"><a xlink:href="class_connection_point.html#ac498b99d7f91805fea3eab19f2e8b260" target="_top" xlink:title=" ">
<polygon fill="white" stroke="#666666" points="1026,-171 882.5,-171 882.5,-139 1026,-139 1026,-171"/>
<text xml:space="preserve" text-anchor="start" x="890.5" y="-157.5" font-family="Helvetica,sans-Serif" font-size="10.00">ConnectionPoint::Connection</text>
<text xml:space="preserve" text-anchor="middle" x="954.25" y="-145.5" font-family="Helvetica,sans-Serif" font-size="10.00">Point</text>
</a>
</g>
</g>
<!-- Node6&#45;&gt;Node7 -->
<g id="edge7_Node000006_Node000007" class="edge">
<title>Node6&#45;&gt;Node7</title>
<g id="a_edge7_Node000006_Node000007"><a xlink:title=" ">
<path fill="none" stroke="#63b8ff" d="M846.76,-155C854.64,-155 862.65,-155 870.57,-155"/>
<polygon fill="#63b8ff" stroke="#63b8ff" points="870.56,-158.5 880.56,-155 870.56,-151.5 870.56,-158.5"/>
</a>
</g>
</g>
<!-- Node11 -->
<g id="Node000011" class="node">
<title>Node11</title>
<g id="a_Node000011"><a xlink:href="class_basic_element.html#a2cb2eb803daa35380908948215f8d468" target="_top" xlink:title=" ">
<polygon fill="white" stroke="#666666" points="457.88,-96 315.88,-96 315.88,-76 457.88,-76 457.88,-96"/>
<text xml:space="preserve" text-anchor="middle" x="386.88" y="-82.5" font-family="Helvetica,sans-Serif" font-size="10.00">BasicElement::minimumSize</text>
</a>
</g>
</g>
<!-- Node10&#45;&gt;Node11 -->
<g id="edge11_Node000010_Node000011" class="edge">
<title>Node10&#45;&gt;Node11</title>
<g id="a_edge11_Node000010_Node000011"><a xlink:title=" ">
<path fill="none" stroke="#63b8ff" d="M256.78,-60.41C277.12,-64.44 300.59,-69.1 321.9,-73.32"/>
<polygon fill="#63b8ff" stroke="#63b8ff" points="321.17,-76.74 331.66,-75.25 322.53,-69.88 321.17,-76.74"/>
</a>
</g>
</g>
<!-- Node12 -->
<g id="Node000012" class="node">
<title>Node12</title>
<g id="a_Node000012"><a xlink:href="class_basic_element.html#a596caee40cdd00a0aacce49689b63f92" target="_top" xlink:title=" ">
<polygon fill="white" stroke="#666666" points="462.75,-58 311,-58 311,-38 462.75,-38 462.75,-58"/>
<text xml:space="preserve" text-anchor="middle" x="386.88" y="-44.5" font-family="Helvetica,sans-Serif" font-size="10.00">BasicElement::notifyObservers</text>
</a>
</g>
</g>
<!-- Node10&#45;&gt;Node12 -->
<g id="edge12_Node000010_Node000012" class="edge">
<title>Node10&#45;&gt;Node12</title>
<g id="a_edge12_Node000010_Node000012"><a xlink:title=" ">
<path fill="none" stroke="#63b8ff" d="M261.22,-49.37C273.37,-49.24 286.46,-49.09 299.44,-48.95"/>
<polygon fill="#63b8ff" stroke="#63b8ff" points="299.31,-52.45 309.27,-48.84 299.23,-45.45 299.31,-52.45"/>
</a>
</g>
</g>
<!-- Node13 -->
<g id="Node000013" class="node">
<title>Node13</title>
<g id="a_Node000013"><a xlink:href="class_basic_element.html#a542adbf85a58c5c9bf17975964d7e446" target="_top" xlink:title=" ">
<polygon fill="white" stroke="#666666" points="437.25,-20 336.5,-20 336.5,0 437.25,0 437.25,-20"/>
<text xml:space="preserve" text-anchor="middle" x="386.88" y="-6.5" font-family="Helvetica,sans-Serif" font-size="10.00">BasicElement::size</text>
</a>
</g>
</g>
<!-- Node10&#45;&gt;Node13 -->
<g id="edge13_Node000010_Node000013" class="edge">
<title>Node10&#45;&gt;Node13</title>
<g id="a_edge13_Node000010_Node000013"><a xlink:title=" ">
<path fill="none" stroke="#63b8ff" d="M251.5,-39.59C274.65,-34.5 302.75,-28.31 327.26,-22.91"/>
<polygon fill="#63b8ff" stroke="#63b8ff" points="327.74,-26.39 336.76,-20.82 326.24,-19.55 327.74,-26.39"/>
</a>
</g>
</g>
</g>
</svg>

<g id="navigator" transform="translate(0 0)" fill="#404254">
  <rect fill="#f2f5e9" fill-opacity="0.5" stroke="#606060" stroke-width=".5" x="0" y="0" width="60" height="60"/>
  <use id="zoomplus" xlink:href="#zoomPlus" x="17" y="9" onmousedown="handleZoom(evt,'in')"/>
  <use id="zoomminus" xlink:href="#zoomMin" x="42" y="9" onmousedown="handleZoom(evt,'out')"/>
  <use id="reset" xlink:href="#resetDef" x="30" y="36" onmousedown="handleReset()"/>
   <use id="arrowup" xlink:href="#arrowUp" x="0" y="0" onmousedown="handlePan(0,-1)"/>
  <use id="arrowright" xlink:href="#arrowRight" x="0" y="0" onmousedown="handlePan(1,0)"/>
  <use id="arrowdown" xlink:href="#arrowDown" x="0" y="0" onmousedown="handlePan(0,1)"/>
  <use id="arrowleft" xlink:href="#arrowLeft" x="0" y="0" onmousedown="handlePan(-1,0)"/>
</g>
<svg viewBox="0 0 15 15" width="100%" height="30px" preserveAspectRatio="xMaxYMin meet">
 <g id="arrow_out" transform="scale(0.3 0.3)">
  <a xlink:href="class_attribute_a119bae8069ee45c1e48122a79ea4b29e_cgraph_org.svg" target="_base">
   <rect id="button" ry="5" rx="5" y="6" x="6" height="38" width="38"
        fill="#f2f5e9" fill-opacity="0.5" stroke="#606060" stroke-width="1.0"/>
   <path id="arrow"
     d="M 11.500037,31.436501 C 11.940474,20.09759 22.043105,11.32322 32.158766,21.979434 L 37.068811,17.246167 C 37.068811,17.246167 37.088388,32 37.088388,32 L 22.160133,31.978069 C 22.160133,31.978069 26.997745,27.140456 26.997745,27.140456 C 18.528582,18.264221 13.291696,25.230495 11.500037,31.436501 z"
     style="fill:#404040;"/>
  </a>
 </g>
</svg>

<style type='text/css'>
<![CDATA[
[data-mouse-over-selected='false'] { opacity: 0.7; }
[data-mouse-over-selected='true']  { opacity: 1.0; }
]]>
</style>
<script type="application/ecmascript"><![CDATA[
document.addEventListener('DOMContentLoaded', (event) => {
  highlightEdges();
  highlightAdjacentNodes();
});
]]></script>
</svg>
