<?xml version="1.0" encoding="UTF-8" standalone="no"?>
<!DOCTYPE svg PUBLIC "-//W3C//DTD SVG 1.1//EN"
 "http://www.w3.org/Graphics/SVG/1.1/DTD/svg11.dtd">
<!-- Generated by graphviz version 14.1.1 (20251213.1925)
 -->
<!-- Title: MainWindow::newFile Pages: 1 -->
<svg width="1163pt" height="185pt"
 viewBox="0.00 0.00 1163.00 185.00" xmlns="http://www.w3.org/2000/svg" xmlns:xlink="http://www.w3.org/1999/xlink">
<g id="graph0" class="graph" transform="scale(1 1) rotate(0) translate(4 181)">
<title>MainWindow::newFile</title>
<!-- Node1 -->
<g id="Node000001" class="node">
<title>Node1</title>
<g id="a_Node000001"><a xlink:title=" ">
<polygon fill="#999999" stroke="#666666" points="112,-70 0,-70 0,-50 112,-50 112,-70"/>
<text xml:space="preserve" text-anchor="middle" x="56" y="-56.5" font-family="Helvetica,sans-Serif" font-size="10.00">MainWindow::newFile</text>
</a>
</g>
</g>
<!-- Node2 -->
<g id="Node000002" class="node">
<title>Node2</title>
<g id="a_Node000002"><a xlink:href="class_main_window.html#a464aaa4d378e7b2d814756a73d6e1ed6" target="_top" xlink:title=" ">
<polygon fill="white" stroke="#666666" points="263,-108 148,-108 148,-88 263,-88 263,-108"/>
<text xml:space="preserve" text-anchor="middle" x="205.5" y="-94.5" font-family="Helvetica,sans-Serif" font-size="10.00">MainWindow::saveFile</text>
</a>
</g>
</g>
<!-- Node1&#45;&gt;Node2 -->
<g id="edge1_Node000001_Node000002" class="edge">
<title>Node1&#45;&gt;Node2</title>
<g id="a_edge1_Node000001_Node000002"><a xlink:title=" ">
<path fill="none" stroke="#63b8ff" d="M97.7,-70.48C114.78,-74.89 134.86,-80.06 152.96,-84.72"/>
<polygon fill="#63b8ff" stroke="#63b8ff" points="151.91,-88.07 162.47,-87.17 153.66,-81.29 151.91,-88.07"/>
</a>
</g>
</g>
<!-- Node13 -->
<g id="Node000013" class="node">
<title>Node13</title>
<g id="a_Node000013"><a xlink:href="class_main_window.html#a51ab21a1be4a1389a00bdb35feee8d64" target="_top" xlink:title=" ">
<polygon fill="white" stroke="#666666" points="452.25,-70 301.25,-70 301.25,-50 452.25,-50 452.25,-70"/>
<text xml:space="preserve" text-anchor="middle" x="376.75" y="-56.5" font-family="Helvetica,sans-Serif" font-size="10.00">MainWindow::updateStatusBar</text>
</a>
</g>
</g>
<!-- Node1&#45;&gt;Node13 -->
<g id="edge15_Node000001_Node000013" class="edge">
<title>Node1&#45;&gt;Node13</title>
<g id="a_edge15_Node000001_Node000013"><a xlink:title=" ">
<path fill="none" stroke="#63b8ff" d="M112.16,-60C161,-60 233.1,-60 289.55,-60"/>
<polygon fill="#63b8ff" stroke="#63b8ff" points="289.47,-63.5 299.47,-60 289.47,-56.5 289.47,-63.5"/>
</a>
</g>
</g>
<!-- Node14 -->
<g id="Node000014" class="node">
<title>Node14</title>
<g id="a_Node000014"><a xlink:href="class_main_window.html#a90cfbcf2e0f2549760a60f184ee0acbf" target="_top" xlink:title=" ">
<polygon fill="white" stroke="#666666" points="448.12,-32 305.38,-32 305.38,0 448.12,0 448.12,-32"/>
<text xml:space="preserve" text-anchor="start" x="313.38" y="-18.5" font-family="Helvetica,sans-Serif" font-size="10.00">MainWindow::updateWindow</text>
<text xml:space="preserve" text-anchor="middle" x="376.75" y="-6.5" font-family="Helvetica,sans-Serif" font-size="10.00">Title</text>
</a>
</g>
</g>
<!-- Node1&#45;&gt;Node14 -->
<g id="edge16_Node000001_Node000014" class="edge">
<title>Node1&#45;&gt;Node14</title>
<g id="a_edge16_Node000001_Node000014"><a xlink:title=" ">
<path fill="none" stroke="#63b8ff" d="M112.16,-52.39C162.27,-45.47 236.87,-35.17 293.93,-27.29"/>
<polygon fill="#63b8ff" stroke="#63b8ff" points="294.17,-30.8 303.59,-25.96 293.21,-23.86 294.17,-30.8"/>
</a>
</g>
</g>
<!-- Node3 -->
<g id="Node000003" class="node">
<title>Node3</title>
<g id="a_Node000003"><a xlink:href="class_main_window.html#ace1b7624a64f4d70513b86601e5846f9" target="_top" xlink:title=" ">
<polygon fill="white" stroke="#666666" points="440.25,-146 313.25,-146 313.25,-126 440.25,-126 440.25,-146"/>
<text xml:space="preserve" text-anchor="middle" x="376.75" y="-132.5" font-family="Helvetica,sans-Serif" font-size="10.00">MainWindow::saveAsFile</text>
</a>
</g>
</g>
<!-- Node2&#45;&gt;Node3 -->
<g id="edge2_Node000002_Node000003" class="edge">
<title>Node2&#45;&gt;Node3</title>
<g id="a_edge2_Node000002_Node000003"><a xlink:title=" ">
<path fill="none" stroke="#63b8ff" d="M263.33,-104.34C288.84,-109.44 318.15,-116.29 340.44,-122.47"/>
<polygon fill="#63b8ff" stroke="#63b8ff" points="339.37,-125.8 349.95,-125.21 341.31,-119.08 339.37,-125.8"/>
</a>
</g>
</g>
<!-- Node4 -->
<g id="Node000004" class="node">
<title>Node4</title>
<g id="a_Node000004"><a xlink:href="class_json_helper.html#a7f720f1105f91b135fdfbcaf94e3f929" target="_top" xlink:title=" ">
<polygon fill="white" stroke="#666666" points="454.5,-108 299,-108 299,-88 454.5,-88 454.5,-108"/>
<text xml:space="preserve" text-anchor="middle" x="376.75" y="-94.5" font-family="Helvetica,sans-Serif" font-size="10.00">JsonHelper::saveDiagramToFile</text>
</a>
</g>
</g>
<!-- Node2&#45;&gt;Node4 -->
<g id="edge4_Node000002_Node000004" class="edge">
<title>Node2&#45;&gt;Node4</title>
<g id="a_edge4_Node000002_Node000004"><a xlink:title=" ">
<path fill="none" stroke="#63b8ff" d="M263.33,-98C271.03,-98 279.08,-98 287.17,-98"/>
<polygon fill="#63b8ff" stroke="#63b8ff" points="287.11,-101.5 297.11,-98 287.11,-94.5 287.11,-101.5"/>
</a>
</g>
</g>
<!-- Node2&#45;&gt;Node13 -->
<g id="edge13_Node000002_Node000013" class="edge">
<title>Node2&#45;&gt;Node13</title>
<g id="a_edge13_Node000002_Node000013"><a xlink:title=" ">
<path fill="none" stroke="#63b8ff" d="M253.2,-87.52C273.27,-83.01 296.93,-77.7 318.08,-72.95"/>
<polygon fill="#63b8ff" stroke="#63b8ff" points="318.74,-76.39 327.73,-70.78 317.21,-69.56 318.74,-76.39"/>
</a>
</g>
</g>
<!-- Node2&#45;&gt;Node14 -->
<g id="edge14_Node000002_Node000014" class="edge">
<title>Node2&#45;&gt;Node14</title>
<g id="a_edge14_Node000002_Node000014"><a xlink:title=" ">
<path fill="none" stroke="#63b8ff" d="M220.95,-87.59C238.66,-75.19 269.9,-54.47 299,-41 302.31,-39.47 305.73,-37.99 309.22,-36.57"/>
<polygon fill="#63b8ff" stroke="#63b8ff" points="310.33,-39.9 318.4,-33.04 307.81,-33.37 310.33,-39.9"/>
</a>
</g>
</g>
<!-- Node3&#45;&gt;Node2 -->
<g id="edge3_Node000003_Node000002" class="edge">
<title>Node3&#45;&gt;Node2</title>
<g id="a_edge3_Node000003_Node000002"><a xlink:title=" ">
<path fill="none" stroke="#63b8ff" d="M313.11,-128.48C289.18,-123.57 262.74,-117.32 242.18,-111.63"/>
<polygon fill="#63b8ff" stroke="#63b8ff" points="243.14,-108.27 232.57,-108.87 241.21,-115 243.14,-108.27"/>
</a>
</g>
</g>
<!-- Node5 -->
<g id="Node000005" class="node">
<title>Node5</title>
<g id="a_Node000005"><a xlink:href="class_json_helper.html#a3dc80512edb9b1f8bc8e50015e27e864" target="_top" xlink:title=" ">
<polygon fill="white" stroke="#666666" points="628,-114 490.5,-114 490.5,-82 628,-82 628,-114"/>
<text xml:space="preserve" text-anchor="start" x="498.5" y="-100.5" font-family="Helvetica,sans-Serif" font-size="10.00">JsonHelper::diagramToJson</text>
<text xml:space="preserve" text-anchor="middle" x="559.25" y="-88.5" font-family="Helvetica,sans-Serif" font-size="10.00">Object</text>
</a>
</g>
</g>
<!-- Node4&#45;&gt;Node5 -->
<g id="edge5_Node000004_Node000005" class="edge">
<title>Node4&#45;&gt;Node5</title>
<g id="a_edge5_Node000004_Node000005"><a xlink:title=" ">
<path fill="none" stroke="#63b8ff" d="M454.82,-98C462.83,-98 470.98,-98 479.02,-98"/>
<polygon fill="#63b8ff" stroke="#63b8ff" points="478.76,-101.5 488.76,-98 478.76,-94.5 478.76,-101.5"/>
</a>
</g>
</g>
<!-- Node6 -->
<g id="Node000006" class="node">
<title>Node6</title>
<g id="a_Node000006"><a xlink:href="class_json_helper.html#ace49a2bdc031d44388b744f93da1fd6d" target="_top" xlink:title=" ">
<polygon fill="white" stroke="#666666" points="797.38,-139 668.12,-139 668.12,-107 797.38,-107 797.38,-139"/>
<text xml:space="preserve" text-anchor="start" x="676.12" y="-125.5" font-family="Helvetica,sans-Serif" font-size="10.00">JsonHelper::connectionTo</text>
<text xml:space="preserve" text-anchor="middle" x="732.75" y="-113.5" font-family="Helvetica,sans-Serif" font-size="10.00">JsonObject</text>
</a>
</g>
</g>
<!-- Node5&#45;&gt;Node6 -->
<g id="edge6_Node000005_Node000006" class="edge">
<title>Node5&#45;&gt;Node6</title>
<g id="a_edge6_Node000005_Node000006"><a xlink:title=" ">
<path fill="none" stroke="#63b8ff" d="M628.03,-107.88C637.45,-109.25 647.18,-110.67 656.72,-112.06"/>
<polygon fill="#63b8ff" stroke="#63b8ff" points="655.92,-115.48 666.32,-113.46 656.93,-108.56 655.92,-115.48"/>
</a>
</g>
</g>
<!-- Node11 -->
<g id="Node000011" class="node">
<title>Node11</title>
<g id="a_Node000011"><a xlink:href="class_json_helper.html#a2141a614711cf449951f1ebde5a9b119" target="_top" xlink:title=" ">
<polygon fill="white" stroke="#666666" points="801.5,-89 664,-89 664,-57 801.5,-57 801.5,-89"/>
<text xml:space="preserve" text-anchor="start" x="672" y="-75.5" font-family="Helvetica,sans-Serif" font-size="10.00">JsonHelper::elementToJson</text>
<text xml:space="preserve" text-anchor="middle" x="732.75" y="-63.5" font-family="Helvetica,sans-Serif" font-size="10.00">Object</text>
</a>
</g>
</g>
<!-- Node5&#45;&gt;Node11 -->
<g id="edge11_Node000005_Node000011" class="edge">
<title>Node5&#45;&gt;Node11</title>
<g id="a_edge11_Node000005_Node000011"><a xlink:title=" ">
<path fill="none" stroke="#63b8ff" d="M628.03,-88.12C635.99,-86.96 644.16,-85.77 652.25,-84.59"/>
<polygon fill="#63b8ff" stroke="#63b8ff" points="652.73,-88.06 662.12,-83.15 651.72,-81.13 652.73,-88.06"/>
</a>
</g>
</g>
<!-- Node7 -->
<g id="Node000007" class="node">
<title>Node7</title>
<g id="a_Node000007"><a xlink:href="class_connection_line.html#a89b03bf381274e4504b1cde0f32972ee" target="_top" xlink:title=" ">
<polygon fill="white" stroke="#666666" points="963,-133 837.5,-133 837.5,-113 963,-113 963,-133"/>
<text xml:space="preserve" text-anchor="middle" x="900.25" y="-119.5" font-family="Helvetica,sans-Serif" font-size="10.00">ConnectionLine::serialize</text>
</a>
</g>
</g>
<!-- Node6&#45;&gt;Node7 -->
<g id="edge7_Node000006_Node000007" class="edge">
<title>Node6&#45;&gt;Node7</title>
<g id="a_edge7_Node000006_Node000007"><a xlink:title=" ">
<path fill="none" stroke="#63b8ff" d="M797.74,-123C806.92,-123 816.43,-123 825.78,-123"/>
<polygon fill="#63b8ff" stroke="#63b8ff" points="825.55,-126.5 835.55,-123 825.55,-119.5 825.55,-126.5"/>
</a>
</g>
</g>
<!-- Node8 -->
<g id="Node000008" class="node">
<title>Node8</title>
<g id="a_Node000008"><a xlink:href="class_connection_line.html#ab11952b505976244aabc575e0ec7b118" target="_top" xlink:title=" ">
<polygon fill="white" stroke="#666666" points="1155.25,-177 999,-177 999,-157 1155.25,-157 1155.25,-177"/>
<text xml:space="preserve" text-anchor="middle" x="1077.12" y="-163.5" font-family="Helvetica,sans-Serif" font-size="10.00">ConnectionLine::getEndElement</text>
</a>
</g>
</g>
<!-- Node7&#45;&gt;Node8 -->
<g id="edge8_Node000007_Node000008" class="edge">
<title>Node7&#45;&gt;Node8</title>
<g id="a_edge8_Node000007_Node000008"><a xlink:title=" ">
<path fill="none" stroke="#63b8ff" d="M941.65,-133.42C959.26,-137.94 980.14,-143.27 999,-148 1006.55,-149.89 1014.51,-151.88 1022.34,-153.82"/>
<polygon fill="#63b8ff" stroke="#63b8ff" points="1021.26,-157.15 1031.8,-156.15 1022.94,-150.36 1021.26,-157.15"/>
</a>
</g>
</g>
<!-- Node9 -->
<g id="Node000009" class="node">
<title>Node9</title>
<g id="a_Node000009"><a xlink:href="class_connection_line.html#ad957be37b7bbb9250366225fd357a5a6" target="_top" xlink:title=" ">
<polygon fill="white" stroke="#666666" points="1139.12,-139 1015.12,-139 1015.12,-107 1139.12,-107 1139.12,-139"/>
<text xml:space="preserve" text-anchor="start" x="1023.12" y="-125.5" font-family="Helvetica,sans-Serif" font-size="10.00">ConnectionLine::getStart</text>
<text xml:space="preserve" text-anchor="middle" x="1077.12" y="-113.5" font-family="Helvetica,sans-Serif" font-size="10.00">Element</text>
</a>
</g>
</g>
<!-- Node7&#45;&gt;Node9 -->
<g id="edge9_Node000007_Node000009" class="edge">
<title>Node7&#45;&gt;Node9</title>
<g id="a_edge9_Node000007_Node000009"><a xlink:title=" ">
<path fill="none" stroke="#63b8ff" d="M963.4,-123C976.3,-123 990.02,-123 1003.27,-123"/>
<polygon fill="#63b8ff" stroke="#63b8ff" points="1003.25,-126.5 1013.25,-123 1003.25,-119.5 1003.25,-126.5"/>
</a>
</g>
</g>
<!-- Node10 -->
<g id="Node000010" class="node">
<title>Node10</title>
<g id="a_Node000010"><a xlink:href="class_connection_line.html#aacfed243a999c948c87dab84ebc508aa" target="_top" xlink:title=" ">
<polygon fill="white" stroke="#666666" points="1142.12,-89 1012.12,-89 1012.12,-69 1142.12,-69 1142.12,-89"/>
<text xml:space="preserve" text-anchor="middle" x="1077.12" y="-75.5" font-family="Helvetica,sans-Serif" font-size="10.00">ConnectionLine::lineWidth</text>
</a>
</g>
</g>
<!-- Node7&#45;&gt;Node10 -->
<g id="edge10_Node000007_Node000010" class="edge">
<title>Node7&#45;&gt;Node10</title>
<g id="a_edge10_Node000007_Node000010"><a xlink:title=" ">
<path fill="none" stroke="#63b8ff" d="M941.65,-112.58C959.26,-108.06 980.14,-102.73 999,-98 1006.55,-96.11 1014.51,-94.12 1022.34,-92.18"/>
<polygon fill="#63b8ff" stroke="#63b8ff" points="1022.94,-95.64 1031.8,-89.85 1021.26,-88.85 1022.94,-95.64"/>
</a>
</g>
</g>
<!-- Node12 -->
<g id="Node000012" class="node">
<title>Node12</title>
<g id="a_Node000012"><a xlink:href="class_basic_element.html#a56f5f9a22723d2a99d87c7508b0bec7f" target="_top" xlink:title=" ">
<polygon fill="white" stroke="#666666" points="959.62,-83 840.88,-83 840.88,-63 959.62,-63 959.62,-83"/>
<text xml:space="preserve" text-anchor="middle" x="900.25" y="-69.5" font-family="Helvetica,sans-Serif" font-size="10.00">BasicElement::serialize</text>
</a>
</g>
</g>
<!-- Node11&#45;&gt;Node12 -->
<g id="edge12_Node000011_Node000012" class="edge">
<title>Node11&#45;&gt;Node12</title>
<g id="a_edge12_Node000011_Node000012"><a xlink:title=" ">
<path fill="none" stroke="#63b8ff" d="M801.54,-73C810.64,-73 819.99,-73 829.13,-73"/>
<polygon fill="#63b8ff" stroke="#63b8ff" points="829.05,-76.5 839.05,-73 829.05,-69.5 829.05,-76.5"/>
</a>
</g>
</g>
</g>
</svg>
