<?xml version="1.0" encoding="UTF-8" standalone="no"?>
<!DOCTYPE svg PUBLIC "-//W3C//DTD SVG 1.1//EN"
 "http://www.w3.org/Graphics/SVG/1.1/DTD/svg11.dtd">
<!-- Generated by graphviz version 14.1.1 (20251213.1925)
 -->
<!-- Title: DiagramScene::removeConnection Pages: 1 -->
<svg width="951pt" height="105pt"
 viewBox="0.00 0.00 951.00 105.00" xmlns="http://www.w3.org/2000/svg" xmlns:xlink="http://www.w3.org/1999/xlink">
<g id="graph0" class="graph" transform="scale(1 1) rotate(0) translate(4 101)">
<title>DiagramScene::removeConnection</title>
<!-- Node1 -->
<g id="Node000001" class="node">
<title>Node1</title>
<g id="a_Node000001"><a xlink:title=" ">
<polygon fill="#999999" stroke="#666666" points="943.25,-70 775,-70 775,-50 943.25,-50 943.25,-70"/>
<text xml:space="preserve" text-anchor="middle" x="859.12" y="-56.5" font-family="Helvetica,sans-Serif" font-size="10.00">DiagramScene::removeConnection</text>
</a>
</g>
</g>
<!-- Node2 -->
<g id="Node000002" class="node">
<title>Node2</title>
<g id="a_Node000002"><a xlink:href="class_diagram_scene.html#a03a8b712a0872e8f6290c059de956505" target="_top" xlink:title=" ">
<polygon fill="white" stroke="#666666" points="342.12,-97 191.12,-97 191.12,-77 342.12,-77 342.12,-97"/>
<text xml:space="preserve" text-anchor="middle" x="266.62" y="-83.5" font-family="Helvetica,sans-Serif" font-size="10.00">DiagramScene::deleteSelected</text>
</a>
</g>
</g>
<!-- Node1&#45;&gt;Node2 -->
<g id="edge1_Node000001_Node000002" class="edge">
<title>Node1&#45;&gt;Node2</title>
<g id="a_edge1_Node000001_Node000002"><a xlink:title=" ">
<path fill="none" stroke="#63b8ff" d="M791.82,-72.28C774.68,-74.98 756.2,-77.49 739,-79 599.37,-91.26 435.62,-90.7 342.5,-88.98"/>
<polygon fill="#63b8ff" stroke="#63b8ff" points="792.07,-75.78 801.38,-70.72 790.94,-68.87 792.07,-75.78"/>
</a>
</g>
</g>
<!-- Node4 -->
<g id="Node000004" class="node">
<title>Node4</title>
<g id="a_Node000004"><a xlink:href="class_diagram_scene.html#abfda0a4eecbce90cc6c7e7462259d199" target="_top" xlink:title=" ">
<polygon fill="white" stroke="#666666" points="739,-70 570.75,-70 570.75,-50 739,-50 739,-70"/>
<text xml:space="preserve" text-anchor="middle" x="654.88" y="-56.5" font-family="Helvetica,sans-Serif" font-size="10.00">DiagramScene::removeConnection</text>
</a>
</g>
</g>
<!-- Node1&#45;&gt;Node4 -->
<g id="edge3_Node000001_Node000004" class="edge">
<title>Node1&#45;&gt;Node4</title>
<g id="a_edge3_Node000001_Node000004"><a xlink:title=" ">
<path fill="none" stroke="#63b8ff" d="M763.43,-60C755.42,-60 747.36,-60 739.44,-60"/>
<polygon fill="#63b8ff" stroke="#63b8ff" points="763.18,-63.5 773.18,-60 763.18,-56.5 763.18,-63.5"/>
</a>
</g>
</g>
<!-- Node5 -->
<g id="Node000005" class="node">
<title>Node5</title>
<g id="a_Node000005"><a xlink:href="class_diagram_scene.html#a0d026405c431d3aca9494d64296bb956" target="_top" xlink:title=" ">
<polygon fill="white" stroke="#666666" points="732.25,-32 577.5,-32 577.5,0 732.25,0 732.25,-32"/>
<text xml:space="preserve" text-anchor="start" x="585.5" y="-18.5" font-family="Helvetica,sans-Serif" font-size="10.00">DiagramScene::removeElement</text>
<text xml:space="preserve" text-anchor="middle" x="654.88" y="-6.5" font-family="Helvetica,sans-Serif" font-size="10.00">Connections</text>
</a>
</g>
</g>
<!-- Node1&#45;&gt;Node5 -->
<g id="edge4_Node000001_Node000005" class="edge">
<title>Node1&#45;&gt;Node5</title>
<g id="a_edge4_Node000001_Node000005"><a xlink:title=" ">
<path fill="none" stroke="#63b8ff" d="M798.86,-47.11C777.74,-42.51 753.66,-37.27 731.35,-32.42"/>
<polygon fill="#63b8ff" stroke="#63b8ff" points="797.94,-50.49 808.46,-49.2 799.43,-43.65 797.94,-50.49"/>
</a>
</g>
</g>
<!-- Node3 -->
<g id="Node000003" class="node">
<title>Node3</title>
<g id="a_Node000003"><a xlink:href="class_diagram_scene.html#a074e1181353b257a18ea2d243b459a47" target="_top" xlink:title=" ">
<polygon fill="white" stroke="#666666" points="153.25,-97 0,-97 0,-77 153.25,-77 153.25,-97"/>
<text xml:space="preserve" text-anchor="middle" x="76.62" y="-83.5" font-family="Helvetica,sans-Serif" font-size="10.00">DiagramScene::keyPressEvent</text>
</a>
</g>
</g>
<!-- Node2&#45;&gt;Node3 -->
<g id="edge2_Node000002_Node000003" class="edge">
<title>Node2&#45;&gt;Node3</title>
<g id="a_edge2_Node000002_Node000003"><a xlink:title=" ">
<path fill="none" stroke="#63b8ff" d="M179.54,-87C170.94,-87 162.24,-87 153.75,-87"/>
<polygon fill="#63b8ff" stroke="#63b8ff" points="179.27,-90.5 189.27,-87 179.27,-83.5 179.27,-90.5"/>
</a>
</g>
</g>
<!-- Node6 -->
<g id="Node000006" class="node">
<title>Node6</title>
<g id="a_Node000006"><a xlink:href="class_diagram_scene.html#ae531fa5ccfc6393d5a60f956a652118d" target="_top" xlink:title=" ">
<polygon fill="white" stroke="#666666" points="534.75,-37 380,-37 380,-17 534.75,-17 534.75,-37"/>
<text xml:space="preserve" text-anchor="middle" x="457.38" y="-23.5" font-family="Helvetica,sans-Serif" font-size="10.00">DiagramScene::removeElement</text>
</a>
</g>
</g>
<!-- Node5&#45;&gt;Node6 -->
<g id="edge5_Node000005_Node000006" class="edge">
<title>Node5&#45;&gt;Node6</title>
<g id="a_edge5_Node000005_Node000006"><a xlink:title=" ">
<path fill="none" stroke="#63b8ff" d="M565.74,-20.96C555.55,-21.53 545.21,-22.11 535.18,-22.68"/>
<polygon fill="#63b8ff" stroke="#63b8ff" points="565.87,-24.46 575.66,-20.4 565.48,-17.47 565.87,-24.46"/>
</a>
</g>
</g>
<!-- Node6&#45;&gt;Node2 -->
<g id="edge6_Node000006_Node000002" class="edge">
<title>Node6&#45;&gt;Node2</title>
<g id="a_edge6_Node000006_Node000002"><a xlink:title=" ">
<path fill="none" stroke="#63b8ff" d="M412.86,-40.83C378.6,-51.72 331.59,-66.67 300.44,-76.57"/>
<polygon fill="#63b8ff" stroke="#63b8ff" points="413.59,-44.27 422.05,-37.91 411.46,-37.6 413.59,-44.27"/>
</a>
</g>
</g>
<!-- Node7 -->
<g id="Node000007" class="node">
<title>Node7</title>
<g id="a_Node000007"><a xlink:href="class_diagram_scene.html#affc06437d827ac64a996cd13690a49c6" target="_top" xlink:title=" ">
<polygon fill="white" stroke="#666666" points="344,-37 189.25,-37 189.25,-17 344,-17 344,-37"/>
<text xml:space="preserve" text-anchor="middle" x="266.62" y="-23.5" font-family="Helvetica,sans-Serif" font-size="10.00">DiagramScene::removeElement</text>
</a>
</g>
</g>
<!-- Node6&#45;&gt;Node7 -->
<g id="edge7_Node000006_Node000007" class="edge">
<title>Node6&#45;&gt;Node7</title>
<g id="a_edge7_Node000006_Node000007"><a xlink:title=" ">
<path fill="none" stroke="#63b8ff" d="M368.33,-27C360.32,-27 352.24,-27 344.33,-27"/>
<polygon fill="#63b8ff" stroke="#63b8ff" points="368.09,-30.5 378.09,-27 368.09,-23.5 368.09,-30.5"/>
</a>
</g>
</g>
</g>
</svg>
