<?xml version="1.0" encoding="UTF-8" standalone="no"?>
<!DOCTYPE svg PUBLIC "-//W3C//DTD SVG 1.1//EN"
 "http://www.w3.org/Graphics/SVG/1.1/DTD/svg11.dtd">
<!-- Generated by graphviz version 14.1.1 (20251213.1925)
 -->
<!-- Title: DraggableButton::DraggableButton Pages: 1 -->
<svg width="537pt" height="85pt"
 viewBox="0.00 0.00 537.00 85.00" xmlns="http://www.w3.org/2000/svg" xmlns:xlink="http://www.w3.org/1999/xlink">
<g id="graph0" class="graph" transform="scale(1 1) rotate(0) translate(4 81)">
<title>DraggableButton::DraggableButton</title>
<!-- Node1 -->
<g id="Node000001" class="node">
<title>Node1</title>
<g id="a_Node000001"><a xlink:title=" ">
<polygon fill="#999999" stroke="#666666" points="139,-64 0,-64 0,-32 139,-32 139,-64"/>
<text xml:space="preserve" text-anchor="start" x="8" y="-50.5" font-family="Helvetica,sans-Serif" font-size="10.00">DraggableButton::Draggable</text>
<text xml:space="preserve" text-anchor="middle" x="69.5" y="-38.5" font-family="Helvetica,sans-Serif" font-size="10.00">Button</text>
</a>
</g>
</g>
<!-- Node2 -->
<g id="Node000002" class="node">
<title>Node2</title>
<g id="a_Node000002"><a xlink:href="class_draggable_button.html#aa3cbbdc5c060528b3f4e0670c5533f8a" target="_top" xlink:title=" ">
<polygon fill="white" stroke="#666666" points="325.25,-77 175,-77 175,-57 325.25,-57 325.25,-77"/>
<text xml:space="preserve" text-anchor="middle" x="250.12" y="-63.5" font-family="Helvetica,sans-Serif" font-size="10.00">DraggableButton::elementType</text>
</a>
</g>
</g>
<!-- Node1&#45;&gt;Node2 -->
<g id="edge1_Node000001_Node000002" class="edge">
<title>Node1&#45;&gt;Node2</title>
<g id="a_edge1_Node000001_Node000002"><a xlink:title=" ">
<path fill="none" stroke="#63b8ff" d="M139.31,-55.32C147.19,-56.16 155.3,-57.02 163.36,-57.88"/>
<polygon fill="#63b8ff" stroke="#63b8ff" points="162.9,-61.35 173.21,-58.93 163.64,-54.39 162.9,-61.35"/>
</a>
</g>
</g>
<!-- Node3 -->
<g id="Node000003" class="node">
<title>Node3</title>
<g id="a_Node000003"><a xlink:href="class_draggable_button.html#af9acff4c210ccdd94acac5847cddd0bd" target="_top" xlink:title=" ">
<polygon fill="white" stroke="#666666" points="318.88,-39 181.38,-39 181.38,-19 318.88,-19 318.88,-39"/>
<text xml:space="preserve" text-anchor="middle" x="250.12" y="-25.5" font-family="Helvetica,sans-Serif" font-size="10.00">DraggableButton::setupIcon</text>
</a>
</g>
</g>
<!-- Node1&#45;&gt;Node3 -->
<g id="edge2_Node000001_Node000003" class="edge">
<title>Node1&#45;&gt;Node3</title>
<g id="a_edge2_Node000001_Node000003"><a xlink:title=" ">
<path fill="none" stroke="#63b8ff" d="M139.31,-40.68C149.23,-39.63 159.51,-38.53 169.63,-37.46"/>
<polygon fill="#63b8ff" stroke="#63b8ff" points="169.87,-40.95 179.44,-36.41 169.12,-33.99 169.87,-40.95"/>
</a>
</g>
</g>
<!-- Node4 -->
<g id="Node000004" class="node">
<title>Node4</title>
<g id="a_Node000004"><a xlink:href="class_draggable_button.html#a7fd40b89abec8f870befc9944cc08fd1" target="_top" xlink:title=" ">
<polygon fill="white" stroke="#666666" points="528.75,-58 361.25,-58 361.25,-38 528.75,-38 528.75,-58"/>
<text xml:space="preserve" text-anchor="middle" x="445" y="-44.5" font-family="Helvetica,sans-Serif" font-size="10.00">DraggableButton::getDisplayName</text>
</a>
</g>
</g>
<!-- Node3&#45;&gt;Node4 -->
<g id="edge3_Node000003_Node000004" class="edge">
<title>Node3&#45;&gt;Node4</title>
<g id="a_edge3_Node000003_Node000004"><a xlink:title=" ">
<path fill="none" stroke="#63b8ff" d="M319.13,-35.7C329.08,-36.68 339.48,-37.7 349.85,-38.72"/>
<polygon fill="#63b8ff" stroke="#63b8ff" points="349.26,-42.18 359.55,-39.68 349.94,-35.22 349.26,-42.18"/>
</a>
</g>
</g>
<!-- Node5 -->
<g id="Node000005" class="node">
<title>Node5</title>
<g id="a_Node000005"><a xlink:href="class_draggable_button.html#a0eb58733d3624401783dfa00b17ed66a" target="_top" xlink:title=" ">
<polygon fill="white" stroke="#666666" points="518.62,-20 371.38,-20 371.38,0 518.62,0 518.62,-20"/>
<text xml:space="preserve" text-anchor="middle" x="445" y="-6.5" font-family="Helvetica,sans-Serif" font-size="10.00">DraggableButton::getIconPath</text>
</a>
</g>
</g>
<!-- Node3&#45;&gt;Node5 -->
<g id="edge4_Node000003_Node000005" class="edge">
<title>Node3&#45;&gt;Node5</title>
<g id="a_edge4_Node000003_Node000005"><a xlink:title=" ">
<path fill="none" stroke="#63b8ff" d="M319.13,-22.3C332.26,-21.01 346.17,-19.64 359.74,-18.3"/>
<polygon fill="#63b8ff" stroke="#63b8ff" points="359.93,-21.8 369.54,-17.33 359.25,-14.83 359.93,-21.8"/>
</a>
</g>
</g>
</g>
</svg>
