<?xml version="1.0" encoding="UTF-8" standalone="no"?>
<!DOCTYPE svg PUBLIC "-//W3C//DTD SVG 1.1//EN"
 "http://www.w3.org/Graphics/SVG/1.1/DTD/svg11.dtd">
<!-- Generated by graphviz version 14.1.1 (20251213.1925)
 -->
<!-- Title: PropertiesPanel::createLineEditPropertyItem Pages: 1 -->
<!--zoomable 754 -->

<svg id="main" version="1.1" xmlns="http://www.w3.org/2000/svg" xmlns:xlink="http://www.w3.org/1999/xlink" xml:space="preserve" onload="init(evt)">

<style type="text/css"><![CDATA[
.node, .edge {opacity: 0.7;}
.node.selected, .edge.selected {opacity: 1;}
.edge:hover path { stroke: red; }
.edge:hover polygon { stroke: red; fill: red; }
]]></style>

<defs>
  <circle id="rim" cx="0" cy="0" r="7"/>
  <circle id="rim2" cx="0" cy="0" r="3.5"/>
  <g id="zoomPlus">
    <use xlink:href="#rim" fill="#404040"><set attributeName="fill" to="#808080" begin="zoomplus.mouseover" end="zoomplus.mouseout"/></use>
    <path d="M-4,0h8M0,-4v8" fill="none" stroke="white" stroke-width="1.5" pointer-events="none"/>
  </g>
  <g id="zoomMin">
    <use xlink:href="#rim" fill="#404040"><set attributeName="fill" to="#808080" begin="zoomminus.mouseover" end="zoomminus.mouseout"/></use>
    <path d="M-4,0h8" fill="none" stroke="white" stroke-width="1.5" pointer-events="none"/>
  </g>
  <g id="arrowUp" transform="translate(30 24)">
    <use xlink:href="#rim"/>
    <path pointer-events="none" fill="none" stroke="white" stroke-width="1.5" d="M0,-3.0v7 M-2.5,-0.5L0,-3.0L2.5,-0.5"/>
  </g>
  <g id="arrowRight" transform="rotate(90) translate(36 -43)">
    <use xlink:href="#rim"/>
    <path pointer-events="none" fill="none" stroke="white" stroke-width="1.5" d="M0,-3.0v7 M-2.5,-0.5L0,-3.0L2.5,-0.5"/>
  </g>
  <g id="arrowDown" transform="rotate(180) translate(-30 -48)">
    <use xlink:href="#rim"/>
    <path pointer-events="none" fill="none" stroke="white" stroke-width="1.5" d="M0,-3.0v7 M-2.5,-0.5L0,-3.0L2.5,-0.5"/>
  </g>
  <g id="arrowLeft" transform="rotate(270) translate(-36 17)">
    <use xlink:href="#rim"/>
    <path pointer-events="none" fill="none" stroke="white" stroke-width="1.5" d="M0,-3.0v7 M-2.5,-0.5L0,-3.0L2.5,-0.5"/>
  </g>
  <g id="resetDef">
    <use xlink:href="#rim2" fill="#404040"><set attributeName="fill" to="#808080" begin="reset.mouseover" end="reset.mouseout"/></use>
  </g>
</defs>
<script type="application/ecmascript">
var viewWidth = 1553;
var viewHeight = 754;
var sectionId = 'dynsection-15';
</script>
<script type="application/ecmascript" xlink:href="svg.min.js"/>
<svg id="graph" class="graph">
<g id="viewport">
<title>PropertiesPanel::createLineEditPropertyItem</title>
<!-- Node1 -->
<g id="Node000001" class="node">
<title>Node1</title>
<g id="a_Node000001"><a xlink:title=" ">
<polygon fill="#999999" stroke="#666666" points="1545,-53.52 1409,-53.52 1409,-21.52 1545,-21.52 1545,-53.52"/>
<text xml:space="preserve" text-anchor="start" x="1417" y="-40.02" font-family="Helvetica,sans-Serif" font-size="10.00">PropertiesPanel::createLine</text>
<text xml:space="preserve" text-anchor="middle" x="1477" y="-28.02" font-family="Helvetica,sans-Serif" font-size="10.00">EditPropertyItem</text>
</a>
</g>
</g>
<!-- Node2 -->
<g id="Node000002" class="node">
<title>Node2</title>
<g id="a_Node000002"><a xlink:href="class_properties_panel.html#aeb116e2e51099f618b5d284e492bc0e2" target="_top" xlink:title=" ">
<polygon fill="white" stroke="#666666" points="1373,-365.52 1245.25,-365.52 1245.25,-333.52 1373,-333.52 1373,-365.52"/>
<text xml:space="preserve" text-anchor="start" x="1253.25" y="-352.02" font-family="Helvetica,sans-Serif" font-size="10.00">PropertiesPanel::populate</text>
<text xml:space="preserve" text-anchor="middle" x="1309.12" y="-340.02" font-family="Helvetica,sans-Serif" font-size="10.00">RelationshipProperties</text>
</a>
</g>
</g>
<!-- Node1&#45;&gt;Node2 -->
<g id="edge1_Node000001_Node000002" class="edge">
<title>Node1&#45;&gt;Node2</title>
<g id="a_edge1_Node000001_Node000002"><a xlink:title=" ">
<path fill="none" stroke="#63b8ff" d="M1462.07,-63.72C1428.84,-126.22 1345.7,-282.61 1318.72,-333.35"/>
<polygon fill="#63b8ff" stroke="#63b8ff" points="1465,-65.67 1466.6,-55.19 1458.82,-62.38 1465,-65.67"/>
</a>
</g>
</g>
<!-- Node3 -->
<g id="Node000003" class="node">
<title>Node3</title>
<g id="a_Node000003"><a xlink:href="class_properties_panel.html#a037586f897062f3915a123b9f2a82b91" target="_top" xlink:title=" ">
<polygon fill="white" stroke="#666666" points="1209.25,-683.52 1081.5,-683.52 1081.5,-651.52 1209.25,-651.52 1209.25,-683.52"/>
<text xml:space="preserve" text-anchor="start" x="1089.5" y="-670.02" font-family="Helvetica,sans-Serif" font-size="10.00">PropertiesPanel::populate</text>
<text xml:space="preserve" text-anchor="middle" x="1145.38" y="-658.02" font-family="Helvetica,sans-Serif" font-size="10.00">ForElement</text>
</a>
</g>
</g>
<!-- Node2&#45;&gt;Node3 -->
<g id="edge2_Node000002_Node000003" class="edge">
<title>Node2&#45;&gt;Node3</title>
<g id="a_edge2_Node000002_Node000003"><a xlink:title=" ">
<path fill="none" stroke="#63b8ff" d="M1305.71,-377.08C1299.47,-432.84 1278.1,-560.3 1209.25,-637.52 1204.5,-642.85 1198.6,-647.31 1192.33,-651.03"/>
<polygon fill="#63b8ff" stroke="#63b8ff" points="1309.18,-377.52 1306.73,-367.22 1302.22,-376.8 1309.18,-377.52"/>
</a>
</g>
</g>
<!-- Node4 -->
<g id="Node000004" class="node">
<title>Node4</title>
<g id="a_Node000004"><a xlink:href="class_properties_panel.html#a139ae0158b486c6004e15e0ddf36f319" target="_top" xlink:title=" ">
<polygon fill="white" stroke="#666666" points="1045.5,-463.52 924.5,-463.52 924.5,-443.52 1045.5,-443.52 1045.5,-463.52"/>
<text xml:space="preserve" text-anchor="middle" x="985" y="-450.02" font-family="Helvetica,sans-Serif" font-size="10.00">PropertiesPanel::refresh</text>
</a>
</g>
</g>
<!-- Node3&#45;&gt;Node4 -->
<g id="edge3_Node000003_Node000004" class="edge">
<title>Node3&#45;&gt;Node4</title>
<g id="a_edge3_Node000003_Node000004"><a xlink:title=" ">
<path fill="none" stroke="#63b8ff" d="M1125.36,-641.84C1090.43,-594.63 1017.42,-495.97 993.65,-463.86"/>
<polygon fill="#63b8ff" stroke="#63b8ff" points="1122.55,-643.91 1131.31,-649.87 1128.17,-639.75 1122.55,-643.91"/>
</a>
</g>
</g>
<!-- Node5 -->
<g id="Node000005" class="node">
<title>Node5</title>
<g id="a_Node000005"><a xlink:href="class_properties_panel.html#a55ae5c02e7d75c7bdc26281a148e8c5a" target="_top" xlink:title=" ">
<polygon fill="white" stroke="#666666" points="888.5,-545.52 733,-545.52 733,-513.52 888.5,-513.52 888.5,-545.52"/>
<text xml:space="preserve" text-anchor="start" x="741" y="-532.02" font-family="Helvetica,sans-Serif" font-size="10.00">PropertiesPanel::onAddAttribute</text>
<text xml:space="preserve" text-anchor="middle" x="810.75" y="-520.02" font-family="Helvetica,sans-Serif" font-size="10.00">OnTreeClicked</text>
</a>
</g>
</g>
<!-- Node4&#45;&gt;Node5 -->
<g id="edge4_Node000004_Node000005" class="edge">
<title>Node4&#45;&gt;Node5</title>
<g id="a_edge4_Node000004_Node000005"><a xlink:title=" ">
<path fill="none" stroke="#63b8ff" d="M953.48,-468.96C934.87,-478.18 910.5,-489.94 888.5,-499.52 877.88,-504.15 866.29,-508.85 855.42,-513.12"/>
<polygon fill="#63b8ff" stroke="#63b8ff" points="954.98,-472.12 962.36,-464.52 951.85,-465.86 954.98,-472.12"/>
</a>
</g>
</g>
<!-- Node10 -->
<g id="Node000010" class="node">
<title>Node10</title>
<g id="a_Node000010"><a xlink:href="class_properties_panel.html#a2800a2c7575a5fad6d923d9b64d982f8" target="_top" xlink:title=" ">
<polygon fill="white" stroke="#666666" points="483.38,-383.52 353.38,-383.52 353.38,-351.52 483.38,-351.52 483.38,-383.52"/>
<text xml:space="preserve" text-anchor="start" x="361.38" y="-370.02" font-family="Helvetica,sans-Serif" font-size="10.00">PropertiesPanel::onCheck</text>
<text xml:space="preserve" text-anchor="middle" x="418.38" y="-358.02" font-family="Helvetica,sans-Serif" font-size="10.00">BoxChanged</text>
</a>
</g>
</g>
<!-- Node4&#45;&gt;Node10 -->
<g id="edge16_Node000004_Node000010" class="edge">
<title>Node4&#45;&gt;Node10</title>
<g id="a_edge16_Node000004_Node000010"><a xlink:title=" ">
<path fill="none" stroke="#63b8ff" d="M912.94,-445.22C822.28,-434.26 660.75,-413.53 523.5,-389.52 510.58,-387.26 496.81,-384.56 483.67,-381.84"/>
<polygon fill="#63b8ff" stroke="#63b8ff" points="912.33,-448.67 922.68,-446.39 913.17,-441.72 912.33,-448.67"/>
</a>
</g>
</g>
<!-- Node12 -->
<g id="Node000012" class="node">
<title>Node12</title>
<g id="a_Node000012"><a xlink:href="class_properties_panel.html#aec82450a3daeb2614c2321e37897f1dd" target="_top" xlink:title=" ">
<polygon fill="white" stroke="#666666" points="484.88,-223.52 351.88,-223.52 351.88,-191.52 484.88,-191.52 484.88,-223.52"/>
<text xml:space="preserve" text-anchor="start" x="359.88" y="-210.02" font-family="Helvetica,sans-Serif" font-size="10.00">PropertiesPanel::onCombo</text>
<text xml:space="preserve" text-anchor="middle" x="418.38" y="-198.02" font-family="Helvetica,sans-Serif" font-size="10.00">BoxChanged</text>
</a>
</g>
</g>
<!-- Node4&#45;&gt;Node12 -->
<g id="edge20_Node000004_Node000012" class="edge">
<title>Node4&#45;&gt;Node12</title>
<g id="a_edge20_Node000004_Node000012"><a xlink:title=" ">
<path fill="none" stroke="#63b8ff" d="M982.21,-431.83C976.99,-382.69 957.47,-262.01 888.5,-195.52 769.98,-81.27 680.17,-81.97 523.5,-132.52 487.88,-144.02 454.17,-172.72 435.2,-191.1"/>
<polygon fill="#63b8ff" stroke="#63b8ff" points="978.71,-432.07 983.15,-441.69 985.68,-431.41 978.71,-432.07"/>
</a>
</g>
</g>
<!-- Node16 -->
<g id="Node000016" class="node">
<title>Node16</title>
<g id="a_Node000016"><a xlink:href="class_properties_panel.html#aec8130201106284c02f21903b516554d" target="_top" xlink:title=" ">
<polygon fill="white" stroke="#666666" points="678.62,-173.52 541.88,-173.52 541.88,-141.52 678.62,-141.52 678.62,-173.52"/>
<text xml:space="preserve" text-anchor="start" x="549.88" y="-160.02" font-family="Helvetica,sans-Serif" font-size="10.00">PropertiesPanel::onLineEdit</text>
<text xml:space="preserve" text-anchor="middle" x="610.25" y="-148.02" font-family="Helvetica,sans-Serif" font-size="10.00">Changed</text>
</a>
</g>
</g>
<!-- Node4&#45;&gt;Node16 -->
<g id="edge27_Node000004_Node000016" class="edge">
<title>Node4&#45;&gt;Node16</title>
<g id="a_edge27_Node000004_Node000016"><a xlink:title=" ">
<path fill="none" stroke="#63b8ff" d="M975.41,-432.62C961.24,-400.11 930.3,-336.88 888.5,-295.52 818.25,-226.01 787.7,-221.77 697,-182.52 689.74,-179.38 681.97,-176.5 674.18,-173.9"/>
<polygon fill="#63b8ff" stroke="#63b8ff" points="972.14,-433.88 979.27,-441.72 978.59,-431.14 972.14,-433.88"/>
</a>
</g>
</g>
<!-- Node17 -->
<g id="Node000017" class="node">
<title>Node17</title>
<g id="a_Node000017"><a xlink:href="class_properties_panel.html#a3cdc065abcd2f9e59558903073c0f23f" target="_top" xlink:title=" ">
<polygon fill="white" stroke="#666666" points="487.5,-478.52 349.25,-478.52 349.25,-446.52 487.5,-446.52 487.5,-478.52"/>
<text xml:space="preserve" text-anchor="start" x="357.25" y="-465.02" font-family="Helvetica,sans-Serif" font-size="10.00">PropertiesPanel::onProperty</text>
<text xml:space="preserve" text-anchor="middle" x="418.38" y="-453.02" font-family="Helvetica,sans-Serif" font-size="10.00">ValueChanged</text>
</a>
</g>
</g>
<!-- Node4&#45;&gt;Node17 -->
<g id="edge29_Node000004_Node000017" class="edge">
<title>Node4&#45;&gt;Node17</title>
<g id="a_edge29_Node000004_Node000017"><a xlink:title=" ">
<path fill="none" stroke="#63b8ff" d="M913.11,-457.32C822.62,-465.98 661.27,-481.7 523.5,-470.52 511.91,-469.58 499.66,-468.06 487.79,-466.45"/>
<polygon fill="#63b8ff" stroke="#63b8ff" points="913.2,-460.82 922.82,-456.39 912.53,-453.86 913.2,-460.82"/>
</a>
</g>
</g>
<!-- Node19 -->
<g id="Node000019" class="node">
<title>Node19</title>
<g id="a_Node000019"><a xlink:href="class_properties_panel.html#a8a2ec0bcba44f3bbd0245d3a53ff49f7" target="_top" xlink:title=" ">
<polygon fill="white" stroke="#666666" points="879.88,-595.52 741.62,-595.52 741.62,-563.52 879.88,-563.52 879.88,-595.52"/>
<text xml:space="preserve" text-anchor="start" x="749.62" y="-582.02" font-family="Helvetica,sans-Serif" font-size="10.00">PropertiesPanel::onRemove</text>
<text xml:space="preserve" text-anchor="middle" x="810.75" y="-570.02" font-family="Helvetica,sans-Serif" font-size="10.00">AttributeOnTreeClicked</text>
</a>
</g>
</g>
<!-- Node4&#45;&gt;Node19 -->
<g id="edge32_Node000004_Node000019" class="edge">
<title>Node4&#45;&gt;Node19</title>
<g id="a_edge32_Node000004_Node000019"><a xlink:title=" ">
<path fill="none" stroke="#63b8ff" d="M970.12,-473.34C953.27,-496.02 922.81,-532.82 888.5,-554.52 883.41,-557.74 877.86,-560.59 872.16,-563.09"/>
<polygon fill="#63b8ff" stroke="#63b8ff" points="972.95,-475.4 975.98,-465.25 967.28,-471.29 972.95,-475.4"/>
</a>
</g>
</g>
<!-- Node20 -->
<g id="Node000020" class="node">
<title>Node20</title>
<g id="a_Node000020"><a xlink:href="class_properties_panel.html#a79618c5c820a40931c085d54be70bd34" target="_top" xlink:title=" ">
<polygon fill="white" stroke="#666666" points="873.5,-336.52 748,-336.52 748,-304.52 873.5,-304.52 873.5,-336.52"/>
<text xml:space="preserve" text-anchor="start" x="756" y="-323.02" font-family="Helvetica,sans-Serif" font-size="10.00">PropertiesPanel::updates</text>
<text xml:space="preserve" text-anchor="middle" x="810.75" y="-311.02" font-family="Helvetica,sans-Serif" font-size="10.00">AfterChangingProperty</text>
</a>
</g>
</g>
<!-- Node4&#45;&gt;Node20 -->
<g id="edge34_Node000004_Node000020" class="edge">
<title>Node4&#45;&gt;Node20</title>
<g id="a_edge34_Node000004_Node000020"><a xlink:title=" ">
<path fill="none" stroke="#63b8ff" d="M961.49,-436.14C928.08,-410.35 865.81,-362.26 833.09,-337"/>
<polygon fill="#63b8ff" stroke="#63b8ff" points="959.23,-438.82 969.29,-442.16 963.51,-433.28 959.23,-438.82"/>
</a>
</g>
</g>
<!-- Node6 -->
<g id="Node000006" class="node">
<title>Node6</title>
<g id="a_Node000006"><a xlink:href="class_properties_panel.html#a90cca2a241daa84841ee3e90d7768c8f" target="_top" xlink:title=" ">
<polygon fill="white" stroke="#666666" points="683.5,-595.52 537,-595.52 537,-563.52 683.5,-563.52 683.5,-595.52"/>
<text xml:space="preserve" text-anchor="start" x="545" y="-582.02" font-family="Helvetica,sans-Serif" font-size="10.00">PropertiesPanel::createButton</text>
<text xml:space="preserve" text-anchor="middle" x="610.25" y="-570.02" font-family="Helvetica,sans-Serif" font-size="10.00">PropertyItem</text>
</a>
</g>
</g>
<!-- Node5&#45;&gt;Node6 -->
<g id="edge5_Node000005_Node000006" class="edge">
<title>Node5&#45;&gt;Node6</title>
<g id="a_edge5_Node000005_Node000006"><a xlink:title=" ">
<path fill="none" stroke="#63b8ff" d="M733.57,-548.71C714.76,-553.45 694.79,-558.48 676.56,-563.07"/>
<polygon fill="#63b8ff" stroke="#63b8ff" points="734.17,-552.17 743.01,-546.33 732.46,-545.38 734.17,-552.17"/>
</a>
</g>
</g>
<!-- Node6&#45;&gt;Node2 -->
<g id="edge15_Node000006_Node000002" class="edge">
<title>Node6&#45;&gt;Node2</title>
<g id="a_edge15_Node000006_Node000002"><a xlink:title=" ">
<path fill="none" stroke="#63b8ff" d="M677.52,-598.64C734.46,-611.98 818.26,-624.19 888.5,-604.52 1061.71,-556.02 1234.46,-414.24 1289.84,-365.89"/>
<polygon fill="#63b8ff" stroke="#63b8ff" points="678.51,-595.28 667.97,-596.32 676.86,-602.08 678.51,-595.28"/>
</a>
</g>
</g>
<!-- Node7 -->
<g id="Node000007" class="node">
<title>Node7</title>
<g id="a_Node000007"><a xlink:href="class_properties_panel.html#a050a4a9040c7aeefde9c1377d2e1909e" target="_top" xlink:title=" ">
<polygon fill="white" stroke="#666666" points="482.25,-677.52 354.5,-677.52 354.5,-645.52 482.25,-645.52 482.25,-677.52"/>
<text xml:space="preserve" text-anchor="start" x="362.5" y="-664.02" font-family="Helvetica,sans-Serif" font-size="10.00">PropertiesPanel::populate</text>
<text xml:space="preserve" text-anchor="middle" x="418.38" y="-652.02" font-family="Helvetica,sans-Serif" font-size="10.00">AttributeList</text>
</a>
</g>
</g>
<!-- Node6&#45;&gt;Node7 -->
<g id="edge6_Node000006_Node000007" class="edge">
<title>Node6&#45;&gt;Node7</title>
<g id="a_edge6_Node000006_Node000007"><a xlink:title=" ">
<path fill="none" stroke="#63b8ff" d="M560.77,-600.46C528.61,-614.35 487.01,-632.31 457.28,-645.15"/>
<polygon fill="#63b8ff" stroke="#63b8ff" points="562.1,-603.7 569.89,-596.52 559.32,-597.27 562.1,-603.7"/>
</a>
</g>
</g>
<!-- Node8 -->
<g id="Node000008" class="node">
<title>Node8</title>
<g id="a_Node000008"><a xlink:href="class_properties_panel.html#acc5a2b4e63ea74eaa34853f1cec46b81" target="_top" xlink:title=" ">
<polygon fill="white" stroke="#666666" points="127.75,-615.52 0,-615.52 0,-583.52 127.75,-583.52 127.75,-615.52"/>
<text xml:space="preserve" text-anchor="start" x="8" y="-602.02" font-family="Helvetica,sans-Serif" font-size="10.00">PropertiesPanel::populate</text>
<text xml:space="preserve" text-anchor="middle" x="63.88" y="-590.02" font-family="Helvetica,sans-Serif" font-size="10.00">AttributeProperties</text>
</a>
</g>
</g>
<!-- Node6&#45;&gt;Node8 -->
<g id="edge13_Node000006_Node000008" class="edge">
<title>Node6&#45;&gt;Node8</title>
<g id="a_edge13_Node000006_Node000008"><a xlink:title=" ">
<path fill="none" stroke="#63b8ff" d="M525.04,-575.03C435.29,-571.33 289.13,-568.44 163.75,-580.52 152.18,-581.64 139.95,-583.46 128.18,-585.54"/>
<polygon fill="#63b8ff" stroke="#63b8ff" points="524.86,-578.52 535,-575.45 525.16,-571.53 524.86,-578.52"/>
</a>
</g>
</g>
<!-- Node9 -->
<g id="Node000009" class="node">
<title>Node9</title>
<g id="a_Node000009"><a xlink:href="class_properties_panel.html#a6a4344308af5b2c993bc25981529239c" target="_top" xlink:title=" ">
<polygon fill="white" stroke="#666666" points="302.38,-621.52 174.62,-621.52 174.62,-589.52 302.38,-589.52 302.38,-621.52"/>
<text xml:space="preserve" text-anchor="start" x="182.62" y="-608.02" font-family="Helvetica,sans-Serif" font-size="10.00">PropertiesPanel::populate</text>
<text xml:space="preserve" text-anchor="middle" x="238.5" y="-596.02" font-family="Helvetica,sans-Serif" font-size="10.00">EntityProperties</text>
</a>
</g>
</g>
<!-- Node6&#45;&gt;Node9 -->
<g id="edge14_Node000006_Node000009" class="edge">
<title>Node6&#45;&gt;Node9</title>
<g id="a_edge14_Node000006_Node000009"><a xlink:title=" ">
<path fill="none" stroke="#63b8ff" d="M525.18,-585.43C457.57,-590.19 364.06,-596.76 302.7,-601.08"/>
<polygon fill="#63b8ff" stroke="#63b8ff" points="525.4,-588.93 535.13,-584.73 524.91,-581.95 525.4,-588.93"/>
</a>
</g>
</g>
<!-- Node7&#45;&gt;Node2 -->
<g id="edge12_Node000007_Node000002" class="edge">
<title>Node7&#45;&gt;Node2</title>
<g id="a_edge12_Node000007_Node000002"><a xlink:title=" ">
<path fill="none" stroke="#63b8ff" d="M477.17,-681.5C552.67,-705.77 689.45,-743.52 809.75,-743.52 986,-743.52 986,-743.52 986,-743.52 1087.78,-743.52 1135.29,-762.45 1209.25,-692.52 1306.3,-600.77 1310.02,-420.43 1308.77,-365.67"/>
<polygon fill="#63b8ff" stroke="#63b8ff" points="478.51,-678.25 467.92,-678.49 476.34,-684.91 478.51,-678.25"/>
</a>
</g>
</g>
<!-- Node7&#45;&gt;Node8 -->
<g id="edge7_Node000007_Node000008" class="edge">
<title>Node7&#45;&gt;Node8</title>
<g id="a_edge7_Node000007_Node000008"><a xlink:title=" ">
<path fill="none" stroke="#63b8ff" d="M342.82,-648.4C291.97,-642.37 223.31,-634.39 163.75,-621.52 152.14,-619.02 139.95,-615.74 128.24,-612.42"/>
<polygon fill="#63b8ff" stroke="#63b8ff" points="342.2,-651.85 352.54,-649.56 343.03,-644.9 342.2,-651.85"/>
</a>
</g>
</g>
<!-- Node7&#45;&gt;Node9 -->
<g id="edge10_Node000007_Node000009" class="edge">
<title>Node7&#45;&gt;Node9</title>
<g id="a_edge10_Node000007_Node000009"><a xlink:title=" ">
<path fill="none" stroke="#63b8ff" d="M354.18,-641.63C333.77,-635.2 311.38,-628.15 291.84,-622"/>
<polygon fill="#63b8ff" stroke="#63b8ff" points="352.94,-644.9 363.53,-644.57 355.04,-638.23 352.94,-644.9"/>
</a>
</g>
</g>
<!-- Node8&#45;&gt;Node3 -->
<g id="edge9_Node000008_Node000003" class="edge">
<title>Node8&#45;&gt;Node3</title>
<g id="a_edge9_Node000008_Node000003"><a xlink:title=" ">
<path fill="none" stroke="#63b8ff" d="M93.23,-622.84C112.09,-637.12 138.04,-654.52 163.75,-664.52 270.17,-705.91 303.19,-705.52 417.38,-705.52 811.75,-705.52 811.75,-705.52 811.75,-705.52 906.05,-705.52 1014.43,-690.26 1081.16,-679.08"/>
<polygon fill="#63b8ff" stroke="#63b8ff" points="95.55,-620.22 85.51,-616.85 91.26,-625.75 95.55,-620.22"/>
</a>
</g>
</g>
<!-- Node8&#45;&gt;Node7 -->
<g id="edge8_Node000008_Node000007" class="edge">
<title>Node8&#45;&gt;Node7</title>
<g id="a_edge8_Node000008_Node000007"><a xlink:title=" ">
<path fill="none" stroke="#63b8ff" d="M99.75,-620.17C118.5,-627.53 142.14,-634.86 163.75,-639.52 227.81,-653.36 302.41,-661.55 354.04,-664.27"/>
<polygon fill="#63b8ff" stroke="#63b8ff" points="101.3,-617.03 90.73,-616.44 98.63,-623.49 101.3,-617.03"/>
</a>
</g>
</g>
<!-- Node9&#45;&gt;Node3 -->
<g id="edge11_Node000009_Node000003" class="edge">
<title>Node9&#45;&gt;Node3</title>
<g id="a_edge11_Node000009_Node000003"><a xlink:title=" ">
<path fill="none" stroke="#63b8ff" d="M314.17,-610.64C488.31,-622.57 918.82,-652.07 1081.11,-663.19"/>
<polygon fill="#63b8ff" stroke="#63b8ff" points="314.55,-607.16 304.34,-609.97 314.07,-614.14 314.55,-607.16"/>
</a>
</g>
</g>
<!-- Node11 -->
<g id="Node000011" class="node">
<title>Node11</title>
<g id="a_Node000011"><a xlink:href="class_properties_panel.html#acfb41226221624e46767835caeea8abc" target="_top" xlink:title=" ">
<polygon fill="white" stroke="#666666" points="311.75,-383.52 165.25,-383.52 165.25,-351.52 311.75,-351.52 311.75,-383.52"/>
<text xml:space="preserve" text-anchor="start" x="173.25" y="-370.02" font-family="Helvetica,sans-Serif" font-size="10.00">PropertiesPanel::createCheck</text>
<text xml:space="preserve" text-anchor="middle" x="238.5" y="-358.02" font-family="Helvetica,sans-Serif" font-size="10.00">BoxPropertyItem</text>
</a>
</g>
</g>
<!-- Node10&#45;&gt;Node11 -->
<g id="edge17_Node000010_Node000011" class="edge">
<title>Node10&#45;&gt;Node11</title>
<g id="a_edge17_Node000010_Node000011"><a xlink:title=" ">
<path fill="none" stroke="#63b8ff" d="M341.59,-367.52C331.85,-367.52 321.88,-367.52 312.19,-367.52"/>
<polygon fill="#63b8ff" stroke="#63b8ff" points="341.39,-371.02 351.39,-367.52 341.39,-364.02 341.39,-371.02"/>
</a>
</g>
</g>
<!-- Node11&#45;&gt;Node2 -->
<g id="edge19_Node000011_Node000002" class="edge">
<title>Node11&#45;&gt;Node2</title>
<g id="a_edge19_Node000011_Node000002"><a xlink:title=" ">
<path fill="none" stroke="#63b8ff" d="M254,-341.24C280.7,-293.14 336.09,-194.76 349.25,-182.52 440.75,-97.42 484.29,-75.52 609.25,-75.52 986,-75.52 986,-75.52 986,-75.52 1146.05,-75.52 1267.11,-274.22 1299.52,-333.2"/>
<polygon fill="#63b8ff" stroke="#63b8ff" points="250.98,-339.46 249.2,-349.91 257.11,-342.86 250.98,-339.46"/>
</a>
</g>
</g>
<!-- Node11&#45;&gt;Node8 -->
<g id="edge18_Node000011_Node000008" class="edge">
<title>Node11&#45;&gt;Node8</title>
<g id="a_edge18_Node000011_Node000008"><a xlink:title=" ">
<path fill="none" stroke="#63b8ff" d="M209.07,-391.3C194.6,-404.16 177.26,-420.81 163.75,-437.52 123.98,-486.73 88.25,-553.25 72.87,-583.44"/>
<polygon fill="#63b8ff" stroke="#63b8ff" points="211.27,-394.02 216.51,-384.81 206.67,-388.74 211.27,-394.02"/>
</a>
</g>
</g>
<!-- Node13 -->
<g id="Node000013" class="node">
<title>Node13</title>
<g id="a_Node000013"><a xlink:href="class_properties_panel.html#a8fd53ec3c9f711c3354483e8bb4d0b47" target="_top" xlink:title=" ">
<polygon fill="white" stroke="#666666" points="313.25,-223.52 163.75,-223.52 163.75,-191.52 313.25,-191.52 313.25,-223.52"/>
<text xml:space="preserve" text-anchor="start" x="171.75" y="-210.02" font-family="Helvetica,sans-Serif" font-size="10.00">PropertiesPanel::createCombo</text>
<text xml:space="preserve" text-anchor="middle" x="238.5" y="-198.02" font-family="Helvetica,sans-Serif" font-size="10.00">BoxPropertyItem</text>
</a>
</g>
</g>
<!-- Node12&#45;&gt;Node13 -->
<g id="edge21_Node000012_Node000013" class="edge">
<title>Node12&#45;&gt;Node13</title>
<g id="a_edge21_Node000012_Node000013"><a xlink:title=" ">
<path fill="none" stroke="#63b8ff" d="M339.95,-207.52C331.16,-207.52 322.21,-207.52 313.46,-207.52"/>
<polygon fill="#63b8ff" stroke="#63b8ff" points="339.88,-211.02 349.88,-207.52 339.88,-204.02 339.88,-211.02"/>
</a>
</g>
</g>
<!-- Node14 -->
<g id="Node000014" class="node">
<title>Node14</title>
<g id="a_Node000014"><a xlink:href="class_properties_panel.html#a32c2dab00c58ffdcb6a1e3cd829d03c8" target="_top" xlink:title=" ">
<polygon fill="white" stroke="#666666" points="306.88,-135.52 170.12,-135.52 170.12,-103.52 306.88,-103.52 306.88,-135.52"/>
<text xml:space="preserve" text-anchor="start" x="178.12" y="-122.02" font-family="Helvetica,sans-Serif" font-size="10.00">PropertiesPanel::createIcon</text>
<text xml:space="preserve" text-anchor="middle" x="238.5" y="-110.02" font-family="Helvetica,sans-Serif" font-size="10.00">ComboBoxPropertyItem</text>
</a>
</g>
</g>
<!-- Node12&#45;&gt;Node14 -->
<g id="edge24_Node000012_Node000014" class="edge">
<title>Node12&#45;&gt;Node14</title>
<g id="a_edge24_Node000012_Node000014"><a xlink:title=" ">
<path fill="none" stroke="#63b8ff" d="M374.17,-186.15C342.92,-170.69 301.32,-150.11 272.66,-135.93"/>
<polygon fill="#63b8ff" stroke="#63b8ff" points="372.46,-189.21 382.98,-190.51 375.57,-182.93 372.46,-189.21"/>
</a>
</g>
</g>
<!-- Node13&#45;&gt;Node2 -->
<g id="edge23_Node000013_Node000002" class="edge">
<title>Node13&#45;&gt;Node2</title>
<g id="a_edge23_Node000013_Node000002"><a xlink:title=" ">
<path fill="none" stroke="#63b8ff" d="M270.85,-184.32C284.74,-173.18 300.74,-159.09 313.25,-144.52 333.02,-121.51 323.87,-103.15 349.25,-86.52 550.79,45.55 648.71,-6.83 888.5,-30.52 1033.16,-44.81 1097.97,-1 1209.25,-94.52 1285.22,-158.37 1303.05,-287.93 1307.03,-333.35"/>
<polygon fill="#63b8ff" stroke="#63b8ff" points="268.98,-181.34 263.27,-190.27 273.3,-186.85 268.98,-181.34"/>
</a>
</g>
</g>
<!-- Node13&#45;&gt;Node8 -->
<g id="edge22_Node000013_Node000008" class="edge">
<title>Node13&#45;&gt;Node8</title>
<g id="a_edge22_Node000013_Node000008"><a xlink:title=" ">
<path fill="none" stroke="#63b8ff" d="M221.94,-233.54C206.23,-260.35 181.78,-303.58 163.75,-342.52 122.67,-431.24 84.13,-542.22 70.28,-583.28"/>
<polygon fill="#63b8ff" stroke="#63b8ff" points="224.86,-235.48 226.93,-225.09 218.83,-231.92 224.86,-235.48"/>
</a>
</g>
</g>
<!-- Node15 -->
<g id="Node000015" class="node">
<title>Node15</title>
<g id="a_Node000015"><a xlink:href="class_properties_panel.html#adbc7f8deb3a687706dc44ebbd7e39d9d" target="_top" xlink:title=" ">
<polygon fill="white" stroke="#666666" points="127.75,-94.52 0,-94.52 0,-62.52 127.75,-62.52 127.75,-94.52"/>
<text xml:space="preserve" text-anchor="start" x="8" y="-81.02" font-family="Helvetica,sans-Serif" font-size="10.00">PropertiesPanel::populate</text>
<text xml:space="preserve" text-anchor="middle" x="63.88" y="-69.02" font-family="Helvetica,sans-Serif" font-size="10.00">ForConnection</text>
</a>
</g>
</g>
<!-- Node14&#45;&gt;Node15 -->
<g id="edge25_Node000014_Node000015" class="edge">
<title>Node14&#45;&gt;Node15</title>
<g id="a_edge25_Node000014_Node000015"><a xlink:title=" ">
<path fill="none" stroke="#63b8ff" d="M158.74,-100.82C148.51,-98.39 138.13,-95.92 128.18,-93.56"/>
<polygon fill="#63b8ff" stroke="#63b8ff" points="157.76,-104.18 168.3,-103.09 159.38,-97.37 157.76,-104.18"/>
</a>
</g>
</g>
<!-- Node15&#45;&gt;Node4 -->
<g id="edge26_Node000015_Node000004" class="edge">
<title>Node15&#45;&gt;Node4</title>
<g id="a_edge26_Node000015_Node000004"><a xlink:title=" ">
<path fill="none" stroke="#63b8ff" d="M139.05,-64.84C210.18,-52.92 320.73,-37.52 417.38,-37.52 611.25,-37.52 611.25,-37.52 611.25,-37.52 737.61,-37.52 797.34,-13.01 888.5,-100.52 940.6,-150.54 975.52,-390.44 982.65,-443.23"/>
<polygon fill="#63b8ff" stroke="#63b8ff" points="138.74,-61.34 129.47,-66.47 139.91,-68.24 138.74,-61.34"/>
</a>
</g>
</g>
<!-- Node16&#45;&gt;Node1 -->
<g id="edge28_Node000016_Node000001" class="edge">
<title>Node16&#45;&gt;Node1</title>
<g id="a_edge28_Node000016_Node000001"><a xlink:title=" ">
<path fill="none" stroke="#63b8ff" d="M690.11,-146.58C858.52,-123.21 1250.75,-68.78 1408.5,-46.89"/>
<polygon fill="#63b8ff" stroke="#63b8ff" points="689.79,-143.09 680.36,-147.93 690.75,-150.02 689.79,-143.09"/>
</a>
</g>
</g>
<!-- Node17&#45;&gt;Node4 -->
<g id="edge31_Node000017_Node000004" class="edge">
<title>Node17&#45;&gt;Node4</title>
<g id="a_edge31_Node000017_Node000004"><a xlink:title=" ">
<path fill="none" stroke="#63b8ff" d="M471.38,-481.27C487.96,-484.5 506.44,-487.14 523.5,-488.52 680.53,-501.26 868.2,-479.06 946.65,-464.02"/>
<polygon fill="#63b8ff" stroke="#63b8ff" points="472.22,-477.87 461.72,-479.26 470.79,-484.72 472.22,-477.87"/>
</a>
</g>
</g>
<!-- Node18 -->
<g id="Node000018" class="node">
<title>Node18</title>
<g id="a_Node000018"><a xlink:href="class_properties_panel.html#a9866823e02faefceaae94fc0b0537707" target="_top" xlink:title=" ">
<polygon fill="white" stroke="#666666" points="306.12,-478.52 170.88,-478.52 170.88,-446.52 306.12,-446.52 306.12,-478.52"/>
<text xml:space="preserve" text-anchor="start" x="178.88" y="-465.02" font-family="Helvetica,sans-Serif" font-size="10.00">PropertiesPanel::Properties</text>
<text xml:space="preserve" text-anchor="middle" x="238.5" y="-453.02" font-family="Helvetica,sans-Serif" font-size="10.00">Panel</text>
</a>
</g>
</g>
<!-- Node17&#45;&gt;Node18 -->
<g id="edge30_Node000017_Node000018" class="edge">
<title>Node17&#45;&gt;Node18</title>
<g id="a_edge30_Node000017_Node000018"><a xlink:title=" ">
<path fill="none" stroke="#63b8ff" d="M337.66,-462.52C327.26,-462.52 316.68,-462.52 306.52,-462.52"/>
<polygon fill="#63b8ff" stroke="#63b8ff" points="337.34,-466.02 347.34,-462.52 337.34,-459.02 337.34,-466.02"/>
</a>
</g>
</g>
<!-- Node19&#45;&gt;Node6 -->
<g id="edge33_Node000019_Node000006" class="edge">
<title>Node19&#45;&gt;Node6</title>
<g id="a_edge33_Node000019_Node000006"><a xlink:title=" ">
<path fill="none" stroke="#63b8ff" d="M729.72,-579.52C714.57,-579.52 698.81,-579.52 683.9,-579.52"/>
<polygon fill="#63b8ff" stroke="#63b8ff" points="729.65,-583.02 739.65,-579.52 729.65,-576.02 729.65,-583.02"/>
</a>
</g>
</g>
<!-- Node20&#45;&gt;Node10 -->
<g id="edge43_Node000020_Node000010" class="edge">
<title>Node20&#45;&gt;Node10</title>
<g id="a_edge43_Node000020_Node000010"><a xlink:title=" ">
<path fill="none" stroke="#63b8ff" d="M771.76,-342.15C750.51,-353 723.1,-364.99 697,-370.52 625.21,-385.73 540.61,-381.79 483.84,-376.09"/>
<polygon fill="#63b8ff" stroke="#63b8ff" points="773.11,-345.4 780.33,-337.65 769.85,-339.2 773.11,-345.4"/>
</a>
</g>
</g>
<!-- Node20&#45;&gt;Node12 -->
<g id="edge44_Node000020_Node000012" class="edge">
<title>Node20&#45;&gt;Node12</title>
<g id="a_edge44_Node000020_Node000012"><a xlink:title=" ">
<path fill="none" stroke="#63b8ff" d="M767,-299.12C746.26,-289.37 720.74,-278.3 697,-270.52 621.98,-245.95 600.44,-250.18 523.5,-232.52 511.09,-229.67 497.86,-226.56 485.15,-223.53"/>
<polygon fill="#63b8ff" stroke="#63b8ff" points="765.48,-302.27 776.02,-303.42 768.5,-295.96 765.48,-302.27"/>
</a>
</g>
</g>
<!-- Node20&#45;&gt;Node16 -->
<g id="edge45_Node000020_Node000016" class="edge">
<title>Node20&#45;&gt;Node16</title>
<g id="a_edge45_Node000020_Node000016"><a xlink:title=" ">
<path fill="none" stroke="#63b8ff" d="M786.45,-296.05C770.78,-279.21 749.97,-256.08 733,-234.52 715.61,-212.44 719.8,-198.96 697,-182.52 691.46,-178.53 685.3,-175.18 678.88,-172.35"/>
<polygon fill="#63b8ff" stroke="#63b8ff" points="783.69,-298.23 793.09,-303.14 788.8,-293.45 783.69,-298.23"/>
</a>
</g>
</g>
<!-- Node20&#45;&gt;Node17 -->
<g id="edge46_Node000020_Node000017" class="edge">
<title>Node20&#45;&gt;Node17</title>
<g id="a_edge46_Node000020_Node000017"><a xlink:title=" ">
<path fill="none" stroke="#63b8ff" d="M778.07,-343.39C756.18,-358.29 725.92,-377.19 697,-389.52 628.47,-418.75 545.3,-438.74 487.96,-450.31"/>
<polygon fill="#63b8ff" stroke="#63b8ff" points="780.02,-346.29 786.25,-337.72 776.04,-340.54 780.02,-346.29"/>
</a>
</g>
</g>
<!-- Node21 -->
<g id="Node000021" class="node">
<title>Node21</title>
<g id="a_Node000021"><a xlink:href="class_properties_panel.html#a74d22cd1ca119cda9cc4ca00b853e88d" target="_top" xlink:title=" ">
<polygon fill="white" stroke="#666666" points="688.38,-361.52 532.12,-361.52 532.12,-329.52 688.38,-329.52 688.38,-361.52"/>
<text xml:space="preserve" text-anchor="start" x="540.12" y="-348.02" font-family="Helvetica,sans-Serif" font-size="10.00">PropertiesPanel::handleAttribute</text>
<text xml:space="preserve" text-anchor="middle" x="610.25" y="-336.02" font-family="Helvetica,sans-Serif" font-size="10.00">PropertyChange</text>
</a>
</g>
</g>
<!-- Node20&#45;&gt;Node21 -->
<g id="edge35_Node000020_Node000021" class="edge">
<title>Node20&#45;&gt;Node21</title>
<g id="a_edge35_Node000020_Node000021"><a xlink:title=" ">
<path fill="none" stroke="#63b8ff" d="M736.62,-329.73C721.06,-331.69 704.58,-333.77 688.86,-335.75"/>
<polygon fill="#63b8ff" stroke="#63b8ff" points="736.77,-333.24 746.26,-328.52 735.9,-326.3 736.77,-333.24"/>
</a>
</g>
</g>
<!-- Node22 -->
<g id="Node000022" class="node">
<title>Node22</title>
<g id="a_Node000022"><a xlink:href="class_properties_panel.html#aa82a2245c62f66554f277c64e643252c" target="_top" xlink:title=" ">
<polygon fill="white" stroke="#666666" points="697,-223.52 523.5,-223.52 523.5,-191.52 697,-191.52 697,-223.52"/>
<text xml:space="preserve" text-anchor="start" x="531.5" y="-210.02" font-family="Helvetica,sans-Serif" font-size="10.00">PropertiesPanel::handleRelationship</text>
<text xml:space="preserve" text-anchor="middle" x="610.25" y="-198.02" font-family="Helvetica,sans-Serif" font-size="10.00">EndCardinalityChange</text>
</a>
</g>
</g>
<!-- Node20&#45;&gt;Node22 -->
<g id="edge39_Node000020_Node000022" class="edge">
<title>Node20&#45;&gt;Node22</title>
<g id="a_edge39_Node000020_Node000022"><a xlink:title=" ">
<path fill="none" stroke="#63b8ff" d="M782.63,-296.94C760.7,-278.79 728.41,-254.1 697,-237.52 687.24,-232.37 676.4,-227.79 665.81,-223.86"/>
<polygon fill="#63b8ff" stroke="#63b8ff" points="780.29,-299.55 790.2,-303.3 784.79,-294.19 780.29,-299.55"/>
</a>
</g>
</g>
<!-- Node23 -->
<g id="Node000023" class="node">
<title>Node23</title>
<g id="a_Node000023"><a xlink:href="class_properties_panel.html#ac2741a5b2cb859b07534b8f7c786359b" target="_top" xlink:title=" ">
<polygon fill="white" stroke="#666666" points="697,-311.52 523.5,-311.52 523.5,-279.52 697,-279.52 697,-311.52"/>
<text xml:space="preserve" text-anchor="start" x="531.5" y="-298.02" font-family="Helvetica,sans-Serif" font-size="10.00">PropertiesPanel::handleRelationship</text>
<text xml:space="preserve" text-anchor="middle" x="610.25" y="-286.02" font-family="Helvetica,sans-Serif" font-size="10.00">EndParticipationChange</text>
</a>
</g>
</g>
<!-- Node20&#45;&gt;Node23 -->
<g id="edge41_Node000020_Node000023" class="edge">
<title>Node20&#45;&gt;Node23</title>
<g id="a_edge41_Node000020_Node000023"><a xlink:title=" ">
<path fill="none" stroke="#63b8ff" d="M736.65,-311.32C723.79,-309.7 710.31,-308 697.14,-306.34"/>
<polygon fill="#63b8ff" stroke="#63b8ff" points="735.9,-314.75 746.26,-312.53 736.77,-307.8 735.9,-314.75"/>
</a>
</g>
</g>
<!-- Node21&#45;&gt;Node10 -->
<g id="edge36_Node000021_Node000010" class="edge">
<title>Node21&#45;&gt;Node10</title>
<g id="a_edge36_Node000021_Node000010"><a xlink:title=" ">
<path fill="none" stroke="#63b8ff" d="M520.41,-355.82C508,-357.25 495.45,-358.71 483.61,-360.08"/>
<polygon fill="#63b8ff" stroke="#63b8ff" points="520.71,-359.3 530.24,-354.68 519.91,-352.35 520.71,-359.3"/>
</a>
</g>
</g>
<!-- Node21&#45;&gt;Node12 -->
<g id="edge37_Node000021_Node000012" class="edge">
<title>Node21&#45;&gt;Node12</title>
<g id="a_edge37_Node000021_Node000012"><a xlink:title=" ">
<path fill="none" stroke="#63b8ff" d="M530.13,-324.31C527.86,-323.11 525.64,-321.85 523.5,-320.52 482.23,-294.94 447.02,-248.62 430.1,-223.98"/>
<polygon fill="#63b8ff" stroke="#63b8ff" points="528.48,-327.4 539.02,-328.5 531.46,-321.07 528.48,-327.4"/>
</a>
</g>
</g>
<!-- Node21&#45;&gt;Node17 -->
<g id="edge38_Node000021_Node000017" class="edge">
<title>Node21&#45;&gt;Node17</title>
<g id="a_edge38_Node000021_Node000017"><a xlink:title=" ">
<path fill="none" stroke="#63b8ff" d="M573.4,-367.61C536.27,-390.49 479.1,-425.72 445.86,-446.2"/>
<polygon fill="#63b8ff" stroke="#63b8ff" points="574.88,-370.81 581.56,-362.59 571.21,-364.85 574.88,-370.81"/>
</a>
</g>
</g>
<!-- Node22&#45;&gt;Node12 -->
<g id="edge40_Node000022_Node000012" class="edge">
<title>Node22&#45;&gt;Node12</title>
<g id="a_edge40_Node000022_Node000012"><a xlink:title=" ">
<path fill="none" stroke="#63b8ff" d="M511.81,-207.52C502.81,-207.52 493.84,-207.52 485.22,-207.52"/>
<polygon fill="#63b8ff" stroke="#63b8ff" points="511.69,-211.02 521.69,-207.52 511.69,-204.02 511.69,-211.02"/>
</a>
</g>
</g>
<!-- Node23&#45;&gt;Node10 -->
<g id="edge42_Node000023_Node000010" class="edge">
<title>Node23&#45;&gt;Node10</title>
<g id="a_edge42_Node000023_Node000010"><a xlink:title=" ">
<path fill="none" stroke="#63b8ff" d="M538.05,-315.44C533.1,-317.08 528.21,-318.78 523.5,-320.52 499.31,-329.46 472.84,-341.44 452.64,-351.07"/>
<polygon fill="#63b8ff" stroke="#63b8ff" points="539.04,-318.8 547.49,-312.41 536.9,-312.14 539.04,-318.8"/>
</a>
</g>
</g>
</g>
</svg>

<g id="navigator" transform="translate(0 0)" fill="#404254">
  <rect fill="#f2f5e9" fill-opacity="0.5" stroke="#606060" stroke-width=".5" x="0" y="0" width="60" height="60"/>
  <use id="zoomplus" xlink:href="#zoomPlus" x="17" y="9" onmousedown="handleZoom(evt,'in')"/>
  <use id="zoomminus" xlink:href="#zoomMin" x="42" y="9" onmousedown="handleZoom(evt,'out')"/>
  <use id="reset" xlink:href="#resetDef" x="30" y="36" onmousedown="handleReset()"/>
   <use id="arrowup" xlink:href="#arrowUp" x="0" y="0" onmousedown="handlePan(0,-1)"/>
  <use id="arrowright" xlink:href="#arrowRight" x="0" y="0" onmousedown="handlePan(1,0)"/>
  <use id="arrowdown" xlink:href="#arrowDown" x="0" y="0" onmousedown="handlePan(0,1)"/>
  <use id="arrowleft" xlink:href="#arrowLeft" x="0" y="0" onmousedown="handlePan(-1,0)"/>
</g>
<svg viewBox="0 0 15 15" width="100%" height="30px" preserveAspectRatio="xMaxYMin meet">
 <g id="arrow_out" transform="scale(0.3 0.3)">
  <a xlink:href="class_properties_panel_a7bc224323f9c626842fdb6a89205c9bc_icgraph_org.svg" target="_base">
   <rect id="button" ry="5" rx="5" y="6" x="6" height="38" width="38"
        fill="#f2f5e9" fill-opacity="0.5" stroke="#606060" stroke-width="1.0"/>
   <path id="arrow"
     d="M 11.500037,31.436501 C 11.940474,20.09759 22.043105,11.32322 32.158766,21.979434 L 37.068811,17.246167 C 37.068811,17.246167 37.088388,32 37.088388,32 L 22.160133,31.978069 C 22.160133,31.978069 26.997745,27.140456 26.997745,27.140456 C 18.528582,18.264221 13.291696,25.230495 11.500037,31.436501 z"
     style="fill:#404040;"/>
  </a>
 </g>
</svg>

<style type='text/css'>
<![CDATA[
[data-mouse-over-selected='false'] { opacity: 0.7; }
[data-mouse-over-selected='true']  { opacity: 1.0; }
]]>
</style>
<script type="application/ecmascript"><![CDATA[
document.addEventListener('DOMContentLoaded', (event) => {
  highlightEdges();
  highlightAdjacentNodes();
});
]]></script>
</svg>
