<?xml version="1.0" encoding="UTF-8" standalone="no"?>
<!DOCTYPE svg PUBLIC "-//W3C//DTD SVG 1.1//EN"
 "http://www.w3.org/Graphics/SVG/1.1/DTD/svg11.dtd">
<!-- Generated by graphviz version 14.1.1 (20251213.1925)
 -->
<!-- Title: DiagramScene::elementDeselected Pages: 1 -->
<svg width="974pt" height="204pt"
 viewBox="0.00 0.00 974.00 204.00" xmlns="http://www.w3.org/2000/svg" xmlns:xlink="http://www.w3.org/1999/xlink">
<g id="graph0" class="graph" transform="scale(1 1) rotate(0) translate(4 200)">
<title>DiagramScene::elementDeselected</title>
<!-- Node1 -->
<g id="Node000001" class="node">
<title>Node1</title>
<g id="a_Node000001"><a xlink:title=" ">
<polygon fill="#999999" stroke="#666666" points="965.75,-70 795.25,-70 795.25,-50 965.75,-50 965.75,-70"/>
<text xml:space="preserve" text-anchor="middle" x="880.5" y="-56.5" font-family="Helvetica,sans-Serif" font-size="10.00">DiagramScene::elementDeselected</text>
</a>
</g>
</g>
<!-- Node2 -->
<g id="Node000002" class="node">
<title>Node2</title>
<g id="a_Node000002"><a xlink:href="class_diagram_scene.html#aa7d8cdf9568c51ab910df9d5630093b7" target="_top" xlink:title=" ">
<polygon fill="white" stroke="#666666" points="759.25,-70 610.5,-70 610.5,-50 759.25,-50 759.25,-70"/>
<text xml:space="preserve" text-anchor="middle" x="684.88" y="-56.5" font-family="Helvetica,sans-Serif" font-size="10.00">DiagramScene::selectElement</text>
</a>
</g>
</g>
<!-- Node1&#45;&gt;Node2 -->
<g id="edge1_Node000001_Node000002" class="edge">
<title>Node1&#45;&gt;Node2</title>
<g id="a_edge1_Node000001_Node000002"><a xlink:title=" ">
<path fill="none" stroke="#63b8ff" d="M783.56,-60C775.55,-60 767.53,-60 759.72,-60"/>
<polygon fill="#63b8ff" stroke="#63b8ff" points="783.34,-63.5 793.34,-60 783.34,-56.5 783.34,-63.5"/>
</a>
</g>
</g>
<!-- Node3 -->
<g id="Node000003" class="node">
<title>Node3</title>
<g id="a_Node000003"><a xlink:href="class_diagram_scene.html#add93af6ff55d3453051b8c057cd4bdcb" target="_top" xlink:title=" ">
<polygon fill="white" stroke="#666666" points="562.88,-114 414.88,-114 414.88,-94 562.88,-94 562.88,-114"/>
<text xml:space="preserve" text-anchor="middle" x="488.88" y="-100.5" font-family="Helvetica,sans-Serif" font-size="10.00">DiagramScene::clearSelection</text>
</a>
</g>
</g>
<!-- Node2&#45;&gt;Node3 -->
<g id="edge2_Node000002_Node000003" class="edge">
<title>Node2&#45;&gt;Node3</title>
<g id="a_edge2_Node000002_Node000003"><a xlink:title=" ">
<path fill="none" stroke="#63b8ff" d="M626.7,-72.97C597.75,-79.53 563.06,-87.4 535.86,-93.57"/>
<polygon fill="#63b8ff" stroke="#63b8ff" points="627.45,-76.39 636.42,-70.76 625.9,-69.56 627.45,-76.39"/>
</a>
</g>
</g>
<!-- Node8 -->
<g id="Node000008" class="node">
<title>Node8</title>
<g id="a_Node000008"><a xlink:href="class_diagram_scene.html#a61e7061e5add947d09ad87feaf2b8dc1" target="_top" xlink:title=" ">
<polygon fill="white" stroke="#666666" points="367.25,-70 193,-70 193,-50 367.25,-50 367.25,-70"/>
<text xml:space="preserve" text-anchor="middle" x="280.12" y="-56.5" font-family="Helvetica,sans-Serif" font-size="10.00">DiagramScene::pasteFromClipboard</text>
</a>
</g>
</g>
<!-- Node2&#45;&gt;Node8 -->
<g id="edge11_Node000002_Node000008" class="edge">
<title>Node2&#45;&gt;Node8</title>
<g id="a_edge11_Node000002_Node000008"><a xlink:title=" ">
<path fill="none" stroke="#63b8ff" d="M598.9,-60C530.87,-60 435.85,-60 367.47,-60"/>
<polygon fill="#63b8ff" stroke="#63b8ff" points="598.49,-63.5 608.49,-60 598.49,-56.5 598.49,-63.5"/>
</a>
</g>
</g>
<!-- Node9 -->
<g id="Node000009" class="node">
<title>Node9</title>
<g id="a_Node000009"><a xlink:href="class_diagram_scene.html#ad46a8dc374895fd670f50f30f2c2acbd" target="_top" xlink:title=" ">
<polygon fill="white" stroke="#666666" points="574.5,-29 403.25,-29 403.25,-9 574.5,-9 574.5,-29"/>
<text xml:space="preserve" text-anchor="middle" x="488.88" y="-15.5" font-family="Helvetica,sans-Serif" font-size="10.00">DiagramScene::finishSelectionRect</text>
</a>
</g>
</g>
<!-- Node2&#45;&gt;Node9 -->
<g id="edge9_Node000002_Node000009" class="edge">
<title>Node2&#45;&gt;Node9</title>
<g id="a_edge9_Node000002_Node000009"><a xlink:title=" ">
<path fill="none" stroke="#63b8ff" d="M623.51,-47.24C596.43,-41.52 564.88,-34.85 539.24,-29.43"/>
<polygon fill="#63b8ff" stroke="#63b8ff" points="622.43,-50.59 632.94,-49.23 623.88,-43.74 622.43,-50.59"/>
</a>
</g>
</g>
<!-- Node4 -->
<g id="Node000004" class="node">
<title>Node4</title>
<g id="a_Node000004"><a xlink:href="class_diagram_scene.html#a0c02f289dea7872eae24bb2c0f91d5ea" target="_top" xlink:title=" ">
<polygon fill="white" stroke="#666666" points="352.25,-196 208,-196 208,-176 352.25,-176 352.25,-196"/>
<text xml:space="preserve" text-anchor="middle" x="280.12" y="-182.5" font-family="Helvetica,sans-Serif" font-size="10.00">DiagramScene::clearDiagram</text>
</a>
</g>
</g>
<!-- Node3&#45;&gt;Node4 -->
<g id="edge3_Node000003_Node000004" class="edge">
<title>Node3&#45;&gt;Node4</title>
<g id="a_edge3_Node000003_Node000004"><a xlink:title=" ">
<path fill="none" stroke="#63b8ff" d="M459.23,-119.55C435.18,-132.17 399.64,-149.81 367.25,-162 353.59,-167.14 338.36,-171.74 324.54,-175.51"/>
<polygon fill="#63b8ff" stroke="#63b8ff" points="460.58,-122.79 467.77,-115.02 457.3,-116.61 460.58,-122.79"/>
</a>
</g>
</g>
<!-- Node6 -->
<g id="Node000006" class="node">
<title>Node6</title>
<g id="a_Node000006"><a xlink:href="class_diagram_scene.html#a074e1181353b257a18ea2d243b459a47" target="_top" xlink:title=" ">
<polygon fill="white" stroke="#666666" points="155.12,-114 1.88,-114 1.88,-94 155.12,-94 155.12,-114"/>
<text xml:space="preserve" text-anchor="middle" x="78.5" y="-100.5" font-family="Helvetica,sans-Serif" font-size="10.00">DiagramScene::keyPressEvent</text>
</a>
</g>
</g>
<!-- Node3&#45;&gt;Node6 -->
<g id="edge5_Node000003_Node000006" class="edge">
<title>Node3&#45;&gt;Node6</title>
<g id="a_edge5_Node000003_Node000006"><a xlink:title=" ">
<path fill="none" stroke="#63b8ff" d="M436.63,-117.03C415.32,-121.82 390.24,-126.64 367.25,-129 290.21,-136.9 269.99,-137.38 193,-129 167.43,-126.22 139.17,-120 117.25,-114.47"/>
<polygon fill="#63b8ff" stroke="#63b8ff" points="437.28,-120.47 446.24,-114.81 435.71,-113.65 437.28,-120.47"/>
</a>
</g>
</g>
<!-- Node7 -->
<g id="Node000007" class="node">
<title>Node7</title>
<g id="a_Node000007"><a xlink:href="class_diagram_scene.html#a6847af7972303267f22e84ae1011c255" target="_top" xlink:title=" ">
<polygon fill="white" stroke="#666666" points="350.75,-120 209.5,-120 209.5,-88 350.75,-88 350.75,-120"/>
<text xml:space="preserve" text-anchor="start" x="217.5" y="-106.5" font-family="Helvetica,sans-Serif" font-size="10.00">DiagramScene::mousePress</text>
<text xml:space="preserve" text-anchor="middle" x="280.12" y="-94.5" font-family="Helvetica,sans-Serif" font-size="10.00">Event</text>
</a>
</g>
</g>
<!-- Node3&#45;&gt;Node7 -->
<g id="edge6_Node000003_Node000007" class="edge">
<title>Node3&#45;&gt;Node7</title>
<g id="a_edge6_Node000003_Node000007"><a xlink:title=" ">
<path fill="none" stroke="#63b8ff" d="M403.18,-104C385.92,-104 367.93,-104 351.25,-104"/>
<polygon fill="#63b8ff" stroke="#63b8ff" points="402.89,-107.5 412.89,-104 402.89,-100.5 402.89,-107.5"/>
</a>
</g>
</g>
<!-- Node3&#45;&gt;Node8 -->
<g id="edge7_Node000003_Node000008" class="edge">
<title>Node3&#45;&gt;Node8</title>
<g id="a_edge7_Node000003_Node000008"><a xlink:title=" ">
<path fill="none" stroke="#63b8ff" d="M427.54,-91.16C396.65,-84.59 359.51,-76.68 330.36,-70.48"/>
<polygon fill="#63b8ff" stroke="#63b8ff" points="426.63,-94.54 437.14,-93.2 428.08,-87.7 426.63,-94.54"/>
</a>
</g>
</g>
<!-- Node5 -->
<g id="Node000005" class="node">
<title>Node5</title>
<g id="a_Node000005"><a xlink:href="class_diagram_scene.html#a189b7f9e32b70c751124cffce8d63c8c" target="_top" xlink:title=" ">
<polygon fill="white" stroke="#666666" points="157,-196 0,-196 0,-176 157,-176 157,-196"/>
<text xml:space="preserve" text-anchor="middle" x="78.5" y="-182.5" font-family="Helvetica,sans-Serif" font-size="10.00">DiagramScene::~DiagramScene</text>
</a>
</g>
</g>
<!-- Node4&#45;&gt;Node5 -->
<g id="edge4_Node000004_Node000005" class="edge">
<title>Node4&#45;&gt;Node5</title>
<g id="a_edge4_Node000004_Node000005"><a xlink:title=" ">
<path fill="none" stroke="#63b8ff" d="M196.37,-186C183.43,-186 170.09,-186 157.27,-186"/>
<polygon fill="#63b8ff" stroke="#63b8ff" points="196.11,-189.5 206.11,-186 196.11,-182.5 196.11,-189.5"/>
</a>
</g>
</g>
<!-- Node8&#45;&gt;Node6 -->
<g id="edge8_Node000008_Node000006" class="edge">
<title>Node8&#45;&gt;Node6</title>
<g id="a_edge8_Node000008_Node000006"><a xlink:title=" ">
<path fill="none" stroke="#63b8ff" d="M220.48,-72.93C190.73,-79.48 155.06,-87.35 127.04,-93.52"/>
<polygon fill="#63b8ff" stroke="#63b8ff" points="221.07,-76.38 230.09,-70.81 219.57,-69.54 221.07,-76.38"/>
</a>
</g>
</g>
<!-- Node10 -->
<g id="Node000010" class="node">
<title>Node10</title>
<g id="a_Node000010"><a xlink:href="class_diagram_scene.html#a542ad58dab0f10f2825e0d69deabebe7" target="_top" xlink:title=" ">
<polygon fill="white" stroke="#666666" points="356,-32 204.25,-32 204.25,0 356,0 356,-32"/>
<text xml:space="preserve" text-anchor="start" x="212.25" y="-18.5" font-family="Helvetica,sans-Serif" font-size="10.00">DiagramScene::mouseRelease</text>
<text xml:space="preserve" text-anchor="middle" x="280.12" y="-6.5" font-family="Helvetica,sans-Serif" font-size="10.00">Event</text>
</a>
</g>
</g>
<!-- Node9&#45;&gt;Node10 -->
<g id="edge10_Node000009_Node000010" class="edge">
<title>Node9&#45;&gt;Node10</title>
<g id="a_edge10_Node000009_Node000010"><a xlink:title=" ">
<path fill="none" stroke="#63b8ff" d="M391.56,-17.6C379.68,-17.43 367.68,-17.26 356.19,-17.09"/>
<polygon fill="#63b8ff" stroke="#63b8ff" points="391.32,-21.1 401.37,-17.74 391.43,-14.1 391.32,-21.1"/>
</a>
</g>
</g>
</g>
</svg>
