<?xml version="1.0" encoding="UTF-8" standalone="no"?>
<!DOCTYPE svg PUBLIC "-//W3C//DTD SVG 1.1//EN"
 "http://www.w3.org/Graphics/SVG/1.1/DTD/svg11.dtd">
<!-- Generated by graphviz version 14.1.1 (20251213.1925)
 -->
<!-- Title: MainWindow::createCentralWidget Pages: 1 -->
<svg width="464pt" height="40pt"
 viewBox="0.00 0.00 464.00 40.00" xmlns="http://www.w3.org/2000/svg" xmlns:xlink="http://www.w3.org/1999/xlink">
<g id="graph0" class="graph" transform="scale(1 1) rotate(0) translate(4 36)">
<title>MainWindow::createCentralWidget</title>
<!-- Node1 -->
<g id="Node000001" class="node">
<title>Node1</title>
<g id="a_Node000001"><a xlink:title=" ">
<polygon fill="#999999" stroke="#666666" points="456,-32 319.25,-32 319.25,0 456,0 456,-32"/>
<text xml:space="preserve" text-anchor="start" x="327.25" y="-18.5" font-family="Helvetica,sans-Serif" font-size="10.00">MainWindow::createCentral</text>
<text xml:space="preserve" text-anchor="middle" x="387.62" y="-6.5" font-family="Helvetica,sans-Serif" font-size="10.00">Widget</text>
</a>
</g>
</g>
<!-- Node2 -->
<g id="Node000002" class="node">
<title>Node2</title>
<g id="a_Node000002"><a xlink:href="class_main_window.html#a3a304253c9e7caeef028f75358bf1fd5" target="_top" xlink:title=" ">
<polygon fill="white" stroke="#666666" points="283.25,-26 170.5,-26 170.5,-6 283.25,-6 283.25,-26"/>
<text xml:space="preserve" text-anchor="middle" x="226.88" y="-12.5" font-family="Helvetica,sans-Serif" font-size="10.00">MainWindow::setupUI</text>
</a>
</g>
</g>
<!-- Node1&#45;&gt;Node2 -->
<g id="edge1_Node000001_Node000002" class="edge">
<title>Node1&#45;&gt;Node2</title>
<g id="a_edge1_Node000001_Node000002"><a xlink:title=" ">
<path fill="none" stroke="#63b8ff" d="M307.43,-16C299.33,-16 291.24,-16 283.47,-16"/>
<polygon fill="#63b8ff" stroke="#63b8ff" points="307.33,-19.5 317.33,-16 307.33,-12.5 307.33,-19.5"/>
</a>
</g>
</g>
<!-- Node3 -->
<g id="Node000003" class="node">
<title>Node3</title>
<g id="a_Node000003"><a xlink:href="class_main_window.html#a996c5a2b6f77944776856f08ec30858d" target="_top" xlink:title=" ">
<polygon fill="white" stroke="#666666" points="134.5,-26 0,-26 0,-6 134.5,-6 134.5,-26"/>
<text xml:space="preserve" text-anchor="middle" x="67.25" y="-12.5" font-family="Helvetica,sans-Serif" font-size="10.00">MainWindow::MainWindow</text>
</a>
</g>
</g>
<!-- Node2&#45;&gt;Node3 -->
<g id="edge2_Node000002_Node000003" class="edge">
<title>Node2&#45;&gt;Node3</title>
<g id="a_edge2_Node000002_Node000003"><a xlink:title=" ">
<path fill="none" stroke="#63b8ff" d="M158.85,-16C150.93,-16 142.85,-16 134.94,-16"/>
<polygon fill="#63b8ff" stroke="#63b8ff" points="158.79,-19.5 168.79,-16 158.79,-12.5 158.79,-19.5"/>
</a>
</g>
</g>
</g>
</svg>
