<?xml version="1.0" encoding="UTF-8" standalone="no"?>
<!DOCTYPE svg PUBLIC "-//W3C//DTD SVG 1.1//EN"
 "http://www.w3.org/Graphics/SVG/1.1/DTD/svg11.dtd">
<!-- Generated by graphviz version 14.1.1 (20251213.1925)
 -->
<!-- Title: DiagramScene::selectElement Pages: 1 -->
<!--zoomable 185 -->

<svg id="main" version="1.1" xmlns="http://www.w3.org/2000/svg" xmlns:xlink="http://www.w3.org/1999/xlink" xml:space="preserve" onload="init(evt)">

<style type="text/css"><![CDATA[
.node, .edge {opacity: 0.7;}
.node.selected, .edge.selected {opacity: 1;}
.edge:hover path { stroke: red; }
.edge:hover polygon { stroke: red; fill: red; }
]]></style>

<defs>
  <circle id="rim" cx="0" cy="0" r="7"/>
  <circle id="rim2" cx="0" cy="0" r="3.5"/>
  <g id="zoomPlus">
    <use xlink:href="#rim" fill="#404040"><set attributeName="fill" to="#808080" begin="zoomplus.mouseover" end="zoomplus.mouseout"/></use>
    <path d="M-4,0h8M0,-4v8" fill="none" stroke="white" stroke-width="1.5" pointer-events="none"/>
  </g>
  <g id="zoomMin">
    <use xlink:href="#rim" fill="#404040"><set attributeName="fill" to="#808080" begin="zoomminus.mouseover" end="zoomminus.mouseout"/></use>
    <path d="M-4,0h8" fill="none" stroke="white" stroke-width="1.5" pointer-events="none"/>
  </g>
  <g id="arrowUp" transform="translate(30 24)">
    <use xlink:href="#rim"/>
    <path pointer-events="none" fill="none" stroke="white" stroke-width="1.5" d="M0,-3.0v7 M-2.5,-0.5L0,-3.0L2.5,-0.5"/>
  </g>
  <g id="arrowRight" transform="rotate(90) translate(36 -43)">
    <use xlink:href="#rim"/>
    <path pointer-events="none" fill="none" stroke="white" stroke-width="1.5" d="M0,-3.0v7 M-2.5,-0.5L0,-3.0L2.5,-0.5"/>
  </g>
  <g id="arrowDown" transform="rotate(180) translate(-30 -48)">
    <use xlink:href="#rim"/>
    <path pointer-events="none" fill="none" stroke="white" stroke-width="1.5" d="M0,-3.0v7 M-2.5,-0.5L0,-3.0L2.5,-0.5"/>
  </g>
  <g id="arrowLeft" transform="rotate(270) translate(-36 17)">
    <use xlink:href="#rim"/>
    <path pointer-events="none" fill="none" stroke="white" stroke-width="1.5" d="M0,-3.0v7 M-2.5,-0.5L0,-3.0L2.5,-0.5"/>
  </g>
  <g id="resetDef">
    <use xlink:href="#rim2" fill="#404040"><set attributeName="fill" to="#808080" begin="reset.mouseover" end="reset.mouseout"/></use>
  </g>
</defs>
<script type="application/ecmascript">
var viewWidth = 722;
var viewHeight = 185;
var sectionId = 'dynsection-72';
</script>
<script type="application/ecmascript" xlink:href="svg.min.js"/>
<svg id="graph" class="graph">
<g id="viewport">
<title>DiagramScene::selectElement</title>
<!-- Node1 -->
<g id="Node000001" class="node">
<title>Node1</title>
<g id="a_Node000001"><a xlink:title=" ">
<polygon fill="#999999" stroke="#666666" points="148.75,-152 0,-152 0,-132 148.75,-132 148.75,-152"/>
<text xml:space="preserve" text-anchor="middle" x="74.38" y="-138.5" font-family="Helvetica,sans-Serif" font-size="10.00">DiagramScene::selectElement</text>
</a>
</g>
</g>
<!-- Node2 -->
<g id="Node000002" class="node">
<title>Node2</title>
<g id="a_Node000002"><a xlink:href="class_diagram_scene.html#a4da4018bb57166e46104700d2847c41d" target="_top" xlink:title=" ">
<polygon fill="white" stroke="#666666" points="714.25,-124 576,-124 576,-104 714.25,-104 714.25,-124"/>
<text xml:space="preserve" text-anchor="middle" x="645.12" y="-110.5" font-family="Helvetica,sans-Serif" font-size="10.00">DiagramScene::findElement</text>
</a>
</g>
</g>
<!-- Node1&#45;&gt;Node2 -->
<g id="edge1_Node000001_Node000002" class="edge">
<title>Node1&#45;&gt;Node2</title>
<g id="a_edge1_Node000001_Node000002"><a xlink:title=" ">
<path fill="none" stroke="#63b8ff" d="M126.97,-152.45C213.49,-168.12 392.81,-192.68 540,-161 567.74,-155.03 596.99,-141.05 617.41,-129.89"/>
<polygon fill="#63b8ff" stroke="#63b8ff" points="618.91,-133.06 625.9,-125.1 615.47,-126.96 618.91,-133.06"/>
</a>
</g>
</g>
<!-- Node3 -->
<g id="Node000003" class="node">
<title>Node3</title>
<g id="a_Node000003"><a xlink:href="class_diagram_scene.html#adffd7c14eb320f4e260f6fed731c1809" target="_top" xlink:title=" ">
<polygon fill="white" stroke="#666666" points="333.5,-114 184.75,-114 184.75,-94 333.5,-94 333.5,-114"/>
<text xml:space="preserve" text-anchor="middle" x="259.12" y="-100.5" font-family="Helvetica,sans-Serif" font-size="10.00">DiagramScene::selectElement</text>
</a>
</g>
</g>
<!-- Node1&#45;&gt;Node3 -->
<g id="edge2_Node000001_Node000003" class="edge">
<title>Node1&#45;&gt;Node3</title>
<g id="a_edge2_Node000001_Node000003"><a xlink:title=" ">
<path fill="none" stroke="#63b8ff" d="M125.8,-131.52C147.77,-126.95 173.72,-121.55 196.8,-116.75"/>
<polygon fill="#63b8ff" stroke="#63b8ff" points="197.31,-120.22 206.39,-114.76 195.88,-113.37 197.31,-120.22"/>
</a>
</g>
</g>
<!-- Node4 -->
<g id="Node000004" class="node">
<title>Node4</title>
<g id="a_Node000004"><a xlink:href="class_diagram_scene.html#a065ce2ec3d83e05c486ae418eaf6320f" target="_top" xlink:title=" ">
<polygon fill="white" stroke="#666666" points="540,-152 369.5,-152 369.5,-132 540,-132 540,-152"/>
<text xml:space="preserve" text-anchor="middle" x="454.75" y="-138.5" font-family="Helvetica,sans-Serif" font-size="10.00">DiagramScene::elementDeselected</text>
</a>
</g>
</g>
<!-- Node3&#45;&gt;Node4 -->
<g id="edge3_Node000003_Node000004" class="edge">
<title>Node3&#45;&gt;Node4</title>
<g id="a_edge3_Node000003_Node000004"><a xlink:title=" ">
<path fill="none" stroke="#63b8ff" d="M313.55,-114.48C337.04,-119.09 364.83,-124.55 389.44,-129.38"/>
<polygon fill="#63b8ff" stroke="#63b8ff" points="388.53,-132.77 399.02,-131.26 389.88,-125.9 388.53,-132.77"/>
</a>
</g>
</g>
<!-- Node5 -->
<g id="Node000005" class="node">
<title>Node5</title>
<g id="a_Node000005"><a xlink:href="class_diagram_scene.html#a15719115f3f2f26120243d71999dcfea" target="_top" xlink:title=" ">
<polygon fill="white" stroke="#666666" points="534.38,-114 375.12,-114 375.12,-94 534.38,-94 534.38,-114"/>
<text xml:space="preserve" text-anchor="middle" x="454.75" y="-100.5" font-family="Helvetica,sans-Serif" font-size="10.00">DiagramScene::elementSelected</text>
</a>
</g>
</g>
<!-- Node3&#45;&gt;Node5 -->
<g id="edge4_Node000003_Node000005" class="edge">
<title>Node3&#45;&gt;Node5</title>
<g id="a_edge4_Node000003_Node000005"><a xlink:title=" ">
<path fill="none" stroke="#63b8ff" d="M333.88,-104C343.48,-104 353.4,-104 363.24,-104"/>
<polygon fill="#63b8ff" stroke="#63b8ff" points="363.21,-107.5 373.21,-104 363.21,-100.5 363.21,-107.5"/>
</a>
</g>
</g>
<!-- Node6 -->
<g id="Node000006" class="node">
<title>Node6</title>
<g id="a_Node000006"><a xlink:href="class_diagram_scene.html#a45f18c15840085ffda39cfc9229a15ee" target="_top" xlink:title=" ">
<polygon fill="white" stroke="#666666" points="535.12,-58 374.38,-58 374.38,-38 535.12,-38 535.12,-58"/>
<text xml:space="preserve" text-anchor="middle" x="454.75" y="-44.5" font-family="Helvetica,sans-Serif" font-size="10.00">DiagramScene::findGraphicsItem</text>
</a>
</g>
</g>
<!-- Node3&#45;&gt;Node6 -->
<g id="edge5_Node000003_Node000006" class="edge">
<title>Node3&#45;&gt;Node6</title>
<g id="a_edge5_Node000003_Node000006"><a xlink:title=" ">
<path fill="none" stroke="#63b8ff" d="M296.09,-93.6C327.37,-84.55 372.91,-71.38 407.01,-61.52"/>
<polygon fill="#63b8ff" stroke="#63b8ff" points="407.56,-65 416.2,-58.86 405.62,-58.28 407.56,-65"/>
</a>
</g>
</g>
<!-- Node7 -->
<g id="Node000007" class="node">
<title>Node7</title>
<g id="a_Node000007"><a xlink:href="class_diagram_scene.html#a7dbb09a9acecc803601560e50ad720ea" target="_top" xlink:title=" ">
<polygon fill="white" stroke="#666666" points="537,-20 372.5,-20 372.5,0 537,0 537,-20"/>
<text xml:space="preserve" text-anchor="middle" x="454.75" y="-6.5" font-family="Helvetica,sans-Serif" font-size="10.00">DiagramScene::selectionChanged</text>
</a>
</g>
</g>
<!-- Node3&#45;&gt;Node7 -->
<g id="edge8_Node000003_Node000007" class="edge">
<title>Node3&#45;&gt;Node7</title>
<g id="a_edge8_Node000003_Node000007"><a xlink:title=" ">
<path fill="none" stroke="#63b8ff" d="M272,-93.56C291.16,-77.28 330.67,-45.94 369.5,-29 374.03,-27.02 378.79,-25.24 383.64,-23.64"/>
<polygon fill="#63b8ff" stroke="#63b8ff" points="384.36,-27.08 392.92,-20.83 382.34,-20.37 384.36,-27.08"/>
</a>
</g>
</g>
<!-- Node6&#45;&gt;Node2 -->
<g id="edge6_Node000006_Node000002" class="edge">
<title>Node6&#45;&gt;Node2</title>
<g id="a_edge6_Node000006_Node000002"><a xlink:title=" ">
<path fill="none" stroke="#63b8ff" d="M485.6,-58.46C517.56,-69.66 568.47,-87.49 603.94,-99.92"/>
<polygon fill="#63b8ff" stroke="#63b8ff" points="602.39,-103.09 612.99,-103.09 604.71,-96.48 602.39,-103.09"/>
</a>
</g>
</g>
<!-- Node6&#45;&gt;Node6 -->
<g id="edge7_Node000006_Node000006" class="edge">
<title>Node6&#45;&gt;Node6</title>
<g id="a_edge7_Node000006_Node000006"><a xlink:title=" ">
<path fill="none" stroke="#63b8ff" d="M424.5,-58.34C411.57,-66.98 421.66,-76 454.75,-76 473.36,-76 484.7,-73.14 488.75,-69.11"/>
<polygon fill="#63b8ff" stroke="#63b8ff" points="492.09,-68.06 485.5,-59.77 485.48,-70.36 492.09,-68.06"/>
</a>
</g>
</g>
</g>
</svg>

<g id="navigator" transform="translate(0 0)" fill="#404254">
  <rect fill="#f2f5e9" fill-opacity="0.5" stroke="#606060" stroke-width=".5" x="0" y="0" width="60" height="60"/>
  <use id="zoomplus" xlink:href="#zoomPlus" x="17" y="9" onmousedown="handleZoom(evt,'in')"/>
  <use id="zoomminus" xlink:href="#zoomMin" x="42" y="9" onmousedown="handleZoom(evt,'out')"/>
  <use id="reset" xlink:href="#resetDef" x="30" y="36" onmousedown="handleReset()"/>
   <use id="arrowup" xlink:href="#arrowUp" x="0" y="0" onmousedown="handlePan(0,-1)"/>
  <use id="arrowright" xlink:href="#arrowRight" x="0" y="0" onmousedown="handlePan(1,0)"/>
  <use id="arrowdown" xlink:href="#arrowDown" x="0" y="0" onmousedown="handlePan(0,1)"/>
  <use id="arrowleft" xlink:href="#arrowLeft" x="0" y="0" onmousedown="handlePan(-1,0)"/>
</g>
<svg viewBox="0 0 15 15" width="100%" height="30px" preserveAspectRatio="xMaxYMin meet">
 <g id="arrow_out" transform="scale(0.3 0.3)">
  <a xlink:href="class_diagram_scene_a52f85570092aa1c3df464382efad08fa_cgraph_org.svg" target="_base">
   <rect id="button" ry="5" rx="5" y="6" x="6" height="38" width="38"
        fill="#f2f5e9" fill-opacity="0.5" stroke="#606060" stroke-width="1.0"/>
   <path id="arrow"
     d="M 11.500037,31.436501 C 11.940474,20.09759 22.043105,11.32322 32.158766,21.979434 L 37.068811,17.246167 C 37.068811,17.246167 37.088388,32 37.088388,32 L 22.160133,31.978069 C 22.160133,31.978069 26.997745,27.140456 26.997745,27.140456 C 18.528582,18.264221 13.291696,25.230495 11.500037,31.436501 z"
     style="fill:#404040;"/>
  </a>
 </g>
</svg>

<style type='text/css'>
<![CDATA[
[data-mouse-over-selected='false'] { opacity: 0.7; }
[data-mouse-over-selected='true']  { opacity: 1.0; }
]]>
</style>
<script type="application/ecmascript"><![CDATA[
document.addEventListener('DOMContentLoaded', (event) => {
  highlightEdges();
  highlightAdjacentNodes();
});
]]></script>
</svg>
