<?xml version="1.0" encoding="UTF-8" standalone="no"?>
<!DOCTYPE svg PUBLIC "-//W3C//DTD SVG 1.1//EN"
 "http://www.w3.org/Graphics/SVG/1.1/DTD/svg11.dtd">
<!-- Generated by graphviz version 14.1.1 (20251213.1925)
 -->
<!-- Title: DiagramScene::getSelectedElements Pages: 1 -->
<svg width="749pt" height="268pt"
 viewBox="0.00 0.00 749.00 268.00" xmlns="http://www.w3.org/2000/svg" xmlns:xlink="http://www.w3.org/1999/xlink">
<g id="graph0" class="graph" transform="scale(1 1) rotate(0) translate(4 264)">
<title>DiagramScene::getSelectedElements</title>
<!-- Node1 -->
<g id="Node000001" class="node">
<title>Node1</title>
<g id="a_Node000001"><a xlink:title=" ">
<polygon fill="#999999" stroke="#666666" points="741.25,-83 603,-83 603,-51 741.25,-51 741.25,-83"/>
<text xml:space="preserve" text-anchor="start" x="611" y="-69.5" font-family="Helvetica,sans-Serif" font-size="10.00">DiagramScene::getSelected</text>
<text xml:space="preserve" text-anchor="middle" x="672.12" y="-57.5" font-family="Helvetica,sans-Serif" font-size="10.00">Elements</text>
</a>
</g>
</g>
<!-- Node2 -->
<g id="Node000002" class="node">
<title>Node2</title>
<g id="a_Node000002"><a xlink:href="class_diagram_scene.html#add93af6ff55d3453051b8c057cd4bdcb" target="_top" xlink:title=" ">
<polygon fill="white" stroke="#666666" points="559.12,-178 411.12,-178 411.12,-158 559.12,-158 559.12,-178"/>
<text xml:space="preserve" text-anchor="middle" x="485.12" y="-164.5" font-family="Helvetica,sans-Serif" font-size="10.00">DiagramScene::clearSelection</text>
</a>
</g>
</g>
<!-- Node1&#45;&gt;Node2 -->
<g id="edge1_Node000001_Node000002" class="edge">
<title>Node1&#45;&gt;Node2</title>
<g id="a_edge1_Node000001_Node000002"><a xlink:title=" ">
<path fill="none" stroke="#63b8ff" d="M631.03,-88.89C592.12,-110.13 534.73,-141.47 505.21,-157.58"/>
<polygon fill="#63b8ff" stroke="#63b8ff" points="632.56,-92.04 639.66,-84.18 629.21,-85.9 632.56,-92.04"/>
</a>
</g>
</g>
<!-- Node8 -->
<g id="Node000008" class="node">
<title>Node8</title>
<g id="a_Node000008"><a xlink:href="class_diagram_scene.html#a99cbe05259c61eebf9cc8d67947f6dca" target="_top" xlink:title=" ">
<polygon fill="white" stroke="#666666" points="353,-96 207.25,-96 207.25,-76 353,-76 353,-96"/>
<text xml:space="preserve" text-anchor="middle" x="280.12" y="-82.5" font-family="Helvetica,sans-Serif" font-size="10.00">DiagramScene::copySelected</text>
</a>
</g>
</g>
<!-- Node1&#45;&gt;Node8 -->
<g id="edge8_Node000001_Node000008" class="edge">
<title>Node1&#45;&gt;Node8</title>
<g id="a_edge8_Node000001_Node000008"><a xlink:title=" ">
<path fill="none" stroke="#63b8ff" d="M591.38,-70.89C521.53,-74.29 420.92,-79.19 353.4,-82.48"/>
<polygon fill="#63b8ff" stroke="#63b8ff" points="591.42,-74.39 601.23,-70.4 591.08,-67.4 591.42,-74.39"/>
</a>
</g>
</g>
<!-- Node9 -->
<g id="Node000009" class="node">
<title>Node9</title>
<g id="a_Node000009"><a xlink:href="class_diagram_scene.html#a03a8b712a0872e8f6290c059de956505" target="_top" xlink:title=" ">
<polygon fill="white" stroke="#666666" points="560.62,-58 409.62,-58 409.62,-38 560.62,-38 560.62,-58"/>
<text xml:space="preserve" text-anchor="middle" x="485.12" y="-44.5" font-family="Helvetica,sans-Serif" font-size="10.00">DiagramScene::deleteSelected</text>
</a>
</g>
</g>
<!-- Node1&#45;&gt;Node9 -->
<g id="edge10_Node000001_Node000009" class="edge">
<title>Node1&#45;&gt;Node9</title>
<g id="a_edge10_Node000001_Node000009"><a xlink:title=" ">
<path fill="none" stroke="#63b8ff" d="M591.23,-58.79C581.14,-57.76 570.85,-56.7 560.85,-55.67"/>
<polygon fill="#63b8ff" stroke="#63b8ff" points="590.69,-62.26 601,-59.8 591.41,-55.29 590.69,-62.26"/>
</a>
</g>
</g>
<!-- Node10 -->
<g id="Node000010" class="node">
<title>Node10</title>
<g id="a_Node000010"><a xlink:href="class_diagram_scene.html#a7875efc4949e17967d9e11786b146cc9" target="_top" xlink:title=" ">
<polygon fill="white" stroke="#666666" points="567,-20 403.25,-20 403.25,0 567,0 567,-20"/>
<text xml:space="preserve" text-anchor="middle" x="485.12" y="-6.5" font-family="Helvetica,sans-Serif" font-size="10.00">DiagramScene::duplicateSelected</text>
</a>
</g>
</g>
<!-- Node1&#45;&gt;Node10 -->
<g id="edge12_Node000001_Node000010" class="edge">
<title>Node1&#45;&gt;Node10</title>
<g id="a_edge12_Node000001_Node000010"><a xlink:title=" ">
<path fill="none" stroke="#63b8ff" d="M618.93,-46.57C602.46,-40.5 584.09,-34.11 567,-29 556.64,-25.9 545.4,-22.99 534.7,-20.42"/>
<polygon fill="#63b8ff" stroke="#63b8ff" points="617.45,-49.75 628.04,-49.97 619.89,-43.2 617.45,-49.75"/>
</a>
</g>
</g>
<!-- Node3 -->
<g id="Node000003" class="node">
<title>Node3</title>
<g id="a_Node000003"><a xlink:href="class_diagram_scene.html#a0c02f289dea7872eae24bb2c0f91d5ea" target="_top" xlink:title=" ">
<polygon fill="white" stroke="#666666" points="352.25,-260 208,-260 208,-240 352.25,-240 352.25,-260"/>
<text xml:space="preserve" text-anchor="middle" x="280.12" y="-246.5" font-family="Helvetica,sans-Serif" font-size="10.00">DiagramScene::clearDiagram</text>
</a>
</g>
</g>
<!-- Node2&#45;&gt;Node3 -->
<g id="edge2_Node000002_Node000003" class="edge">
<title>Node2&#45;&gt;Node3</title>
<g id="a_edge2_Node000002_Node000003"><a xlink:title=" ">
<path fill="none" stroke="#63b8ff" d="M456.12,-183.77C432.86,-196.42 398.61,-213.97 367.25,-226 353.63,-231.22 338.4,-235.85 324.58,-239.61"/>
<polygon fill="#63b8ff" stroke="#63b8ff" points="457.59,-186.96 464.66,-179.08 454.21,-180.83 457.59,-186.96"/>
</a>
</g>
</g>
<!-- Node5 -->
<g id="Node000005" class="node">
<title>Node5</title>
<g id="a_Node000005"><a xlink:href="class_diagram_scene.html#a074e1181353b257a18ea2d243b459a47" target="_top" xlink:title=" ">
<polygon fill="white" stroke="#666666" points="155.12,-96 1.88,-96 1.88,-76 155.12,-76 155.12,-96"/>
<text xml:space="preserve" text-anchor="middle" x="78.5" y="-82.5" font-family="Helvetica,sans-Serif" font-size="10.00">DiagramScene::keyPressEvent</text>
</a>
</g>
</g>
<!-- Node2&#45;&gt;Node5 -->
<g id="edge4_Node000002_Node000005" class="edge">
<title>Node2&#45;&gt;Node5</title>
<g id="a_edge4_Node000002_Node000005"><a xlink:title=" ">
<path fill="none" stroke="#63b8ff" d="M445.72,-181.92C388.46,-200.37 278.31,-226.87 193,-193 142.66,-173.01 101.7,-118.95 86.19,-96.25"/>
<polygon fill="#63b8ff" stroke="#63b8ff" points="446.62,-185.31 455.01,-178.84 444.41,-178.67 446.62,-185.31"/>
</a>
</g>
</g>
<!-- Node6 -->
<g id="Node000006" class="node">
<title>Node6</title>
<g id="a_Node000006"><a xlink:href="class_diagram_scene.html#a6847af7972303267f22e84ae1011c255" target="_top" xlink:title=" ">
<polygon fill="white" stroke="#666666" points="350.75,-184 209.5,-184 209.5,-152 350.75,-152 350.75,-184"/>
<text xml:space="preserve" text-anchor="start" x="217.5" y="-170.5" font-family="Helvetica,sans-Serif" font-size="10.00">DiagramScene::mousePress</text>
<text xml:space="preserve" text-anchor="middle" x="280.12" y="-158.5" font-family="Helvetica,sans-Serif" font-size="10.00">Event</text>
</a>
</g>
</g>
<!-- Node2&#45;&gt;Node6 -->
<g id="edge5_Node000002_Node000006" class="edge">
<title>Node2&#45;&gt;Node6</title>
<g id="a_edge5_Node000002_Node000006"><a xlink:title=" ">
<path fill="none" stroke="#63b8ff" d="M399.71,-168C383.47,-168 366.63,-168 350.92,-168"/>
<polygon fill="#63b8ff" stroke="#63b8ff" points="399.32,-171.5 409.32,-168 399.32,-164.5 399.32,-171.5"/>
</a>
</g>
</g>
<!-- Node7 -->
<g id="Node000007" class="node">
<title>Node7</title>
<g id="a_Node000007"><a xlink:href="class_diagram_scene.html#a61e7061e5add947d09ad87feaf2b8dc1" target="_top" xlink:title=" ">
<polygon fill="white" stroke="#666666" points="367.25,-134 193,-134 193,-114 367.25,-114 367.25,-134"/>
<text xml:space="preserve" text-anchor="middle" x="280.12" y="-120.5" font-family="Helvetica,sans-Serif" font-size="10.00">DiagramScene::pasteFromClipboard</text>
</a>
</g>
</g>
<!-- Node2&#45;&gt;Node7 -->
<g id="edge6_Node000002_Node000007" class="edge">
<title>Node2&#45;&gt;Node7</title>
<g id="a_edge6_Node000002_Node000007"><a xlink:title=" ">
<path fill="none" stroke="#63b8ff" d="M424.89,-155.16C394.55,-148.59 358.09,-140.68 329.47,-134.48"/>
<polygon fill="#63b8ff" stroke="#63b8ff" points="423.77,-158.5 434.28,-157.2 425.25,-151.66 423.77,-158.5"/>
</a>
</g>
</g>
<!-- Node4 -->
<g id="Node000004" class="node">
<title>Node4</title>
<g id="a_Node000004"><a xlink:href="class_diagram_scene.html#a189b7f9e32b70c751124cffce8d63c8c" target="_top" xlink:title=" ">
<polygon fill="white" stroke="#666666" points="157,-260 0,-260 0,-240 157,-240 157,-260"/>
<text xml:space="preserve" text-anchor="middle" x="78.5" y="-246.5" font-family="Helvetica,sans-Serif" font-size="10.00">DiagramScene::~DiagramScene</text>
</a>
</g>
</g>
<!-- Node3&#45;&gt;Node4 -->
<g id="edge3_Node000003_Node000004" class="edge">
<title>Node3&#45;&gt;Node4</title>
<g id="a_edge3_Node000003_Node000004"><a xlink:title=" ">
<path fill="none" stroke="#63b8ff" d="M196.37,-250C183.43,-250 170.09,-250 157.27,-250"/>
<polygon fill="#63b8ff" stroke="#63b8ff" points="196.11,-253.5 206.11,-250 196.11,-246.5 196.11,-253.5"/>
</a>
</g>
</g>
<!-- Node7&#45;&gt;Node5 -->
<g id="edge7_Node000007_Node000005" class="edge">
<title>Node7&#45;&gt;Node5</title>
<g id="a_edge7_Node000007_Node000005"><a xlink:title=" ">
<path fill="none" stroke="#63b8ff" d="M212.98,-111.41C187.5,-106.56 158.7,-101.08 134.4,-96.45"/>
<polygon fill="#63b8ff" stroke="#63b8ff" points="212.08,-114.8 222.56,-113.23 213.39,-107.92 212.08,-114.8"/>
</a>
</g>
</g>
<!-- Node8&#45;&gt;Node5 -->
<g id="edge9_Node000008_Node000005" class="edge">
<title>Node8&#45;&gt;Node5</title>
<g id="a_edge9_Node000008_Node000005"><a xlink:title=" ">
<path fill="none" stroke="#63b8ff" d="M195.65,-86C182.27,-86 168.49,-86 155.3,-86"/>
<polygon fill="#63b8ff" stroke="#63b8ff" points="195.26,-89.5 205.26,-86 195.26,-82.5 195.26,-89.5"/>
</a>
</g>
</g>
<!-- Node9&#45;&gt;Node5 -->
<g id="edge11_Node000009_Node000005" class="edge">
<title>Node9&#45;&gt;Node5</title>
<g id="a_edge11_Node000009_Node000005"><a xlink:title=" ">
<path fill="none" stroke="#63b8ff" d="M397.81,-51.35C339.78,-54.17 261.63,-59.04 193,-67 174.15,-69.19 153.66,-72.37 135.34,-75.5"/>
<polygon fill="#63b8ff" stroke="#63b8ff" points="397.81,-54.86 407.63,-50.89 397.48,-47.86 397.81,-54.86"/>
</a>
</g>
</g>
<!-- Node10&#45;&gt;Node5 -->
<g id="edge13_Node000010_Node000005" class="edge">
<title>Node10&#45;&gt;Node5</title>
<g id="a_edge13_Node000010_Node000005"><a xlink:title=" ">
<path fill="none" stroke="#63b8ff" d="M391.52,-18.06C333.92,-24.14 258.6,-34.04 193,-49 162.89,-55.86 129.38,-67.27 106.63,-75.61"/>
<polygon fill="#63b8ff" stroke="#63b8ff" points="391.7,-21.56 401.28,-17.05 390.98,-14.6 391.7,-21.56"/>
</a>
</g>
</g>
</g>
</svg>
