<?xml version="1.0" encoding="UTF-8" standalone="no"?>
<!DOCTYPE svg PUBLIC "-//W3C//DTD SVG 1.1//EN"
 "http://www.w3.org/Graphics/SVG/1.1/DTD/svg11.dtd">
<!-- Generated by graphviz version 14.1.1 (20251213.1925)
 -->
<!-- Title: ConnectionLine::setStartPoint Pages: 1 -->
<!--zoomable 278 -->

<svg id="main" version="1.1" xmlns="http://www.w3.org/2000/svg" xmlns:xlink="http://www.w3.org/1999/xlink" xml:space="preserve" onload="init(evt)">

<style type="text/css"><![CDATA[
.node, .edge {opacity: 0.7;}
.node.selected, .edge.selected {opacity: 1;}
.edge:hover path { stroke: red; }
.edge:hover polygon { stroke: red; fill: red; }
]]></style>

<defs>
  <circle id="rim" cx="0" cy="0" r="7"/>
  <circle id="rim2" cx="0" cy="0" r="3.5"/>
  <g id="zoomPlus">
    <use xlink:href="#rim" fill="#404040"><set attributeName="fill" to="#808080" begin="zoomplus.mouseover" end="zoomplus.mouseout"/></use>
    <path d="M-4,0h8M0,-4v8" fill="none" stroke="white" stroke-width="1.5" pointer-events="none"/>
  </g>
  <g id="zoomMin">
    <use xlink:href="#rim" fill="#404040"><set attributeName="fill" to="#808080" begin="zoomminus.mouseover" end="zoomminus.mouseout"/></use>
    <path d="M-4,0h8" fill="none" stroke="white" stroke-width="1.5" pointer-events="none"/>
  </g>
  <g id="arrowUp" transform="translate(30 24)">
    <use xlink:href="#rim"/>
    <path pointer-events="none" fill="none" stroke="white" stroke-width="1.5" d="M0,-3.0v7 M-2.5,-0.5L0,-3.0L2.5,-0.5"/>
  </g>
  <g id="arrowRight" transform="rotate(90) translate(36 -43)">
    <use xlink:href="#rim"/>
    <path pointer-events="none" fill="none" stroke="white" stroke-width="1.5" d="M0,-3.0v7 M-2.5,-0.5L0,-3.0L2.5,-0.5"/>
  </g>
  <g id="arrowDown" transform="rotate(180) translate(-30 -48)">
    <use xlink:href="#rim"/>
    <path pointer-events="none" fill="none" stroke="white" stroke-width="1.5" d="M0,-3.0v7 M-2.5,-0.5L0,-3.0L2.5,-0.5"/>
  </g>
  <g id="arrowLeft" transform="rotate(270) translate(-36 17)">
    <use xlink:href="#rim"/>
    <path pointer-events="none" fill="none" stroke="white" stroke-width="1.5" d="M0,-3.0v7 M-2.5,-0.5L0,-3.0L2.5,-0.5"/>
  </g>
  <g id="resetDef">
    <use xlink:href="#rim2" fill="#404040"><set attributeName="fill" to="#808080" begin="reset.mouseover" end="reset.mouseout"/></use>
  </g>
</defs>
<script type="application/ecmascript">
var viewWidth = 860;
var viewHeight = 278;
var sectionId = 'dynsection-43';
</script>
<script type="application/ecmascript" xlink:href="svg.min.js"/>
<svg id="graph" class="graph">
<g id="viewport">
<title>ConnectionLine::setStartPoint</title>
<!-- Node1 -->
<g id="Node000001" class="node">
<title>Node1</title>
<g id="a_Node000001"><a xlink:title=" ">
<polygon fill="#999999" stroke="#666666" points="124,-148 0,-148 0,-116 124,-116 124,-148"/>
<text xml:space="preserve" text-anchor="start" x="8" y="-134.5" font-family="Helvetica,sans-Serif" font-size="10.00">ConnectionLine::setStart</text>
<text xml:space="preserve" text-anchor="middle" x="62" y="-122.5" font-family="Helvetica,sans-Serif" font-size="10.00">Point</text>
</a>
</g>
</g>
<!-- Node2 -->
<g id="Node000002" class="node">
<title>Node2</title>
<g id="a_Node000002"><a xlink:href="class_connection_line.html#a9de44ae385d7941f3aa79da06e97d510" target="_top" xlink:title=" ">
<polygon fill="white" stroke="#666666" points="296.75,-183 160,-183 160,-151 296.75,-151 296.75,-183"/>
<text xml:space="preserve" text-anchor="start" x="168" y="-169.5" font-family="Helvetica,sans-Serif" font-size="10.00">ConnectionLine::connection</text>
<text xml:space="preserve" text-anchor="middle" x="228.38" y="-157.5" font-family="Helvetica,sans-Serif" font-size="10.00">Changed</text>
</a>
</g>
</g>
<!-- Node1&#45;&gt;Node2 -->
<g id="edge1_Node000001_Node000002" class="edge">
<title>Node1&#45;&gt;Node2</title>
<g id="a_edge1_Node000001_Node000002"><a xlink:title=" ">
<path fill="none" stroke="#63b8ff" d="M124.21,-145.03C132.18,-146.73 140.43,-148.49 148.63,-150.23"/>
<polygon fill="#63b8ff" stroke="#63b8ff" points="147.77,-153.63 158.28,-152.29 149.23,-146.78 147.77,-153.63"/>
</a>
</g>
</g>
<!-- Node5 -->
<g id="Node000005" class="node">
<title>Node5</title>
<g id="a_Node000005"><a xlink:href="class_connection_line.html#a53c863c51a284a7a8e6b35bc34bd2d34" target="_top" xlink:title=" ">
<polygon fill="white" stroke="#666666" points="848.75,-246 699.25,-246 699.25,-214 848.75,-214 848.75,-246"/>
<text xml:space="preserve" text-anchor="start" x="707.25" y="-232.5" font-family="Helvetica,sans-Serif" font-size="10.00">ConnectionLine::onConnection</text>
<text xml:space="preserve" text-anchor="middle" x="774" y="-220.5" font-family="Helvetica,sans-Serif" font-size="10.00">PointChanged</text>
</a>
</g>
</g>
<!-- Node1&#45;&gt;Node5 -->
<g id="edge10_Node000001_Node000005" class="edge">
<title>Node1&#45;&gt;Node5</title>
<g id="a_edge10_Node000001_Node000005"><a xlink:title=" ">
<path fill="none" stroke="#63b8ff" d="M75.73,-148.34C92.56,-168.62 124.32,-202.42 160,-218 334.77,-294.32 565.14,-269.69 687.7,-248.03"/>
<polygon fill="#63b8ff" stroke="#63b8ff" points="688.15,-251.51 697.37,-246.29 686.91,-244.62 688.15,-251.51"/>
</a>
</g>
</g>
<!-- Node6 -->
<g id="Node000006" class="node">
<title>Node6</title>
<g id="a_Node000006"><a xlink:href="class_connection_line.html#a4bce34a3f2fb1fd7145de2d9100c9173" target="_top" xlink:title=" ">
<polygon fill="white" stroke="#666666" points="842,-196 706,-196 706,-164 842,-164 842,-196"/>
<text xml:space="preserve" text-anchor="start" x="714" y="-182.5" font-family="Helvetica,sans-Serif" font-size="10.00">ConnectionLine::onElement</text>
<text xml:space="preserve" text-anchor="middle" x="774" y="-170.5" font-family="Helvetica,sans-Serif" font-size="10.00">PositionChanged</text>
</a>
</g>
</g>
<!-- Node1&#45;&gt;Node6 -->
<g id="edge11_Node000001_Node000006" class="edge">
<title>Node1&#45;&gt;Node6</title>
<g id="a_edge11_Node000001_Node000006"><a xlink:title=" ">
<path fill="none" stroke="#63b8ff" d="M82.24,-148.45C100.77,-163.12 130.29,-183.55 160,-192 345.73,-244.8 576.03,-216.75 694.49,-195.91"/>
<polygon fill="#63b8ff" stroke="#63b8ff" points="694.88,-199.4 704.11,-194.19 693.65,-192.51 694.88,-199.4"/>
</a>
</g>
</g>
<!-- Node7 -->
<g id="Node000007" class="node">
<title>Node7</title>
<g id="a_Node000007"><a xlink:href="class_basic_element.html#a02183bafd7c80f9f1f99a9b9f1631524" target="_top" xlink:title=" ">
<polygon fill="white" stroke="#666666" points="851.75,-140 696.25,-140 696.25,-120 851.75,-120 851.75,-140"/>
<text xml:space="preserve" text-anchor="middle" x="774" y="-126.5" font-family="Helvetica,sans-Serif" font-size="10.00">BasicElement::positionChanged</text>
</a>
</g>
</g>
<!-- Node1&#45;&gt;Node7 -->
<g id="edge12_Node000001_Node000007" class="edge">
<title>Node1&#45;&gt;Node7</title>
<g id="a_edge12_Node000001_Node000007"><a xlink:title=" ">
<path fill="none" stroke="#63b8ff" d="M124.1,-127.14C232.27,-119.29 464.54,-105.75 660.25,-117 668.16,-117.45 676.37,-118.09 684.59,-118.83"/>
<polygon fill="#63b8ff" stroke="#63b8ff" points="683.97,-122.29 694.26,-119.76 684.65,-115.32 683.97,-122.29"/>
</a>
</g>
</g>
<!-- Node8 -->
<g id="Node000008" class="node">
<title>Node8</title>
<g id="a_Node000008"><a xlink:href="class_connection_point.html#a851668ae19e97658f1818a40ea375f65" target="_top" xlink:title=" ">
<polygon fill="white" stroke="#666666" points="836.75,-89 711.25,-89 711.25,-57 836.75,-57 836.75,-89"/>
<text xml:space="preserve" text-anchor="start" x="719.25" y="-75.5" font-family="Helvetica,sans-Serif" font-size="10.00">ConnectionPoint::relative</text>
<text xml:space="preserve" text-anchor="middle" x="774" y="-63.5" font-family="Helvetica,sans-Serif" font-size="10.00">PositionChanged</text>
</a>
</g>
</g>
<!-- Node1&#45;&gt;Node8 -->
<g id="edge13_Node000001_Node000008" class="edge">
<title>Node1&#45;&gt;Node8</title>
<g id="a_edge13_Node000001_Node000008"><a xlink:title=" ">
<path fill="none" stroke="#63b8ff" d="M124.38,-118.74C136.16,-116.55 148.43,-114.5 160,-113 353.76,-87.81 584.15,-78.19 699.5,-74.75"/>
<polygon fill="#63b8ff" stroke="#63b8ff" points="699.56,-78.25 709.46,-74.46 699.36,-71.26 699.56,-78.25"/>
</a>
</g>
</g>
<!-- Node9 -->
<g id="Node000009" class="node">
<title>Node9</title>
<g id="a_Node000009"><a xlink:href="class_connection_line.html#afcc2bd845912903497ccaa97e67b8a89" target="_top" xlink:title=" ">
<polygon fill="white" stroke="#666666" points="294.12,-32 162.62,-32 162.62,0 294.12,0 294.12,-32"/>
<text xml:space="preserve" text-anchor="start" x="170.62" y="-18.5" font-family="Helvetica,sans-Serif" font-size="10.00">ConnectionLine::startPoint</text>
<text xml:space="preserve" text-anchor="middle" x="228.38" y="-6.5" font-family="Helvetica,sans-Serif" font-size="10.00">Changed</text>
</a>
</g>
</g>
<!-- Node1&#45;&gt;Node9 -->
<g id="edge14_Node000001_Node000009" class="edge">
<title>Node1&#45;&gt;Node9</title>
<g id="a_edge14_Node000001_Node000009"><a xlink:title=" ">
<path fill="none" stroke="#63b8ff" d="M78.24,-115.76C96.37,-97.11 128.21,-66.47 160,-46 164.72,-42.96 169.81,-40.08 174.99,-37.39"/>
<polygon fill="#63b8ff" stroke="#63b8ff" points="176.21,-40.69 183.64,-33.15 173.12,-34.41 176.21,-40.69"/>
</a>
</g>
</g>
<!-- Node3 -->
<g id="Node000003" class="node">
<title>Node3</title>
<g id="a_Node000003"><a xlink:href="class_connection_line.html#a657559dca679d5fd04ae565b442b6a8b" target="_top" xlink:title=" ">
<polygon fill="white" stroke="#666666" points="489.75,-155 332.75,-155 332.75,-135 489.75,-135 489.75,-155"/>
<text xml:space="preserve" text-anchor="middle" x="411.25" y="-141.5" font-family="Helvetica,sans-Serif" font-size="10.00">ConnectionLine::ConnectionLine</text>
</a>
</g>
</g>
<!-- Node2&#45;&gt;Node3 -->
<g id="edge2_Node000002_Node000003" class="edge">
<title>Node2&#45;&gt;Node3</title>
<g id="a_edge2_Node000002_Node000003"><a xlink:title=" ">
<path fill="none" stroke="#63b8ff" d="M297.24,-158.75C305.01,-157.8 313.01,-156.83 321,-155.86"/>
<polygon fill="#63b8ff" stroke="#63b8ff" points="321.26,-159.35 330.77,-154.67 320.42,-152.4 321.26,-159.35"/>
</a>
</g>
</g>
<!-- Node4 -->
<g id="Node000004" class="node">
<title>Node4</title>
<g id="a_Node000004"><a xlink:href="class_connection_line.html#a836aef7faf5a4fb8a5a10bfc71dbabe3" target="_top" xlink:title=" ">
<polygon fill="white" stroke="#666666" points="660.25,-158 525.75,-158 525.75,-126 660.25,-126 660.25,-158"/>
<text xml:space="preserve" text-anchor="start" x="533.75" y="-144.5" font-family="Helvetica,sans-Serif" font-size="10.00">ConnectionLine::connectTo</text>
<text xml:space="preserve" text-anchor="middle" x="593" y="-132.5" font-family="Helvetica,sans-Serif" font-size="10.00">Points</text>
</a>
</g>
</g>
<!-- Node3&#45;&gt;Node4 -->
<g id="edge3_Node000003_Node000004" class="edge">
<title>Node3&#45;&gt;Node4</title>
<g id="a_edge3_Node000003_Node000004"><a xlink:title=" ">
<path fill="none" stroke="#63b8ff" d="M490.05,-143.7C497.95,-143.57 505.98,-143.44 513.89,-143.3"/>
<polygon fill="#63b8ff" stroke="#63b8ff" points="513.91,-146.8 523.85,-143.14 513.79,-139.8 513.91,-146.8"/>
</a>
</g>
</g>
<!-- Node4&#45;&gt;Node5 -->
<g id="edge4_Node000004_Node000005" class="edge">
<title>Node4&#45;&gt;Node5</title>
<g id="a_edge4_Node000004_Node000005"><a xlink:title=" ">
<path fill="none" stroke="#63b8ff" d="M617.07,-158.43C637.24,-172.23 667.68,-191.77 696.25,-205 699.56,-206.53 702.98,-208.01 706.47,-209.43"/>
<polygon fill="#63b8ff" stroke="#63b8ff" points="705.06,-212.63 715.65,-212.96 707.58,-206.1 705.06,-212.63"/>
</a>
</g>
</g>
<!-- Node4&#45;&gt;Node6 -->
<g id="edge6_Node000004_Node000006" class="edge">
<title>Node4&#45;&gt;Node6</title>
<g id="a_edge6_Node000004_Node000006"><a xlink:title=" ">
<path fill="none" stroke="#63b8ff" d="M660.65,-156.15C671.69,-158.49 683.22,-160.94 694.51,-163.34"/>
<polygon fill="#63b8ff" stroke="#63b8ff" points="693.7,-166.74 704.21,-165.4 695.16,-159.9 693.7,-166.74"/>
</a>
</g>
</g>
<!-- Node4&#45;&gt;Node7 -->
<g id="edge8_Node000004_Node000007" class="edge">
<title>Node4&#45;&gt;Node7</title>
<g id="a_edge8_Node000004_Node000007"><a xlink:title=" ">
<path fill="none" stroke="#63b8ff" d="M660.65,-137.53C668.49,-137.01 676.58,-136.46 684.65,-135.92"/>
<polygon fill="#63b8ff" stroke="#63b8ff" points="684.78,-139.42 694.52,-135.26 684.31,-132.44 684.78,-139.42"/>
</a>
</g>
</g>
<!-- Node4&#45;&gt;Node8 -->
<g id="edge9_Node000004_Node000008" class="edge">
<title>Node4&#45;&gt;Node8</title>
<g id="a_edge9_Node000004_Node000008"><a xlink:title=" ">
<path fill="none" stroke="#63b8ff" d="M636.42,-125.65C661.32,-116.05 693.01,-103.83 719.6,-93.59"/>
<polygon fill="#63b8ff" stroke="#63b8ff" points="720.78,-96.88 728.85,-90.02 718.26,-90.35 720.78,-96.88"/>
</a>
</g>
</g>
<!-- Node5&#45;&gt;Node2 -->
<g id="edge5_Node000005_Node000002" class="edge">
<title>Node5&#45;&gt;Node2</title>
<g id="a_edge5_Node000005_Node000002"><a xlink:title=" ">
<path fill="none" stroke="#63b8ff" d="M698.81,-224.02C611.15,-216.59 460.99,-202.7 332.75,-185 324.81,-183.9 316.55,-182.65 308.3,-181.33"/>
<polygon fill="#63b8ff" stroke="#63b8ff" points="309.04,-177.91 298.6,-179.74 307.9,-184.81 309.04,-177.91"/>
</a>
</g>
</g>
<!-- Node6&#45;&gt;Node2 -->
<g id="edge7_Node000006_Node000002" class="edge">
<title>Node6&#45;&gt;Node2</title>
<g id="a_edge7_Node000006_Node000002"><a xlink:title=" ">
<path fill="none" stroke="#63b8ff" d="M705.68,-178.39C605.01,-175.98 415.64,-171.45 308.5,-168.89"/>
<polygon fill="#63b8ff" stroke="#63b8ff" points="308.72,-165.4 298.64,-168.66 308.55,-172.39 308.72,-165.4"/>
</a>
</g>
</g>
</g>
</svg>

<g id="navigator" transform="translate(0 0)" fill="#404254">
  <rect fill="#f2f5e9" fill-opacity="0.5" stroke="#606060" stroke-width=".5" x="0" y="0" width="60" height="60"/>
  <use id="zoomplus" xlink:href="#zoomPlus" x="17" y="9" onmousedown="handleZoom(evt,'in')"/>
  <use id="zoomminus" xlink:href="#zoomMin" x="42" y="9" onmousedown="handleZoom(evt,'out')"/>
  <use id="reset" xlink:href="#resetDef" x="30" y="36" onmousedown="handleReset()"/>
   <use id="arrowup" xlink:href="#arrowUp" x="0" y="0" onmousedown="handlePan(0,-1)"/>
  <use id="arrowright" xlink:href="#arrowRight" x="0" y="0" onmousedown="handlePan(1,0)"/>
  <use id="arrowdown" xlink:href="#arrowDown" x="0" y="0" onmousedown="handlePan(0,1)"/>
  <use id="arrowleft" xlink:href="#arrowLeft" x="0" y="0" onmousedown="handlePan(-1,0)"/>
</g>
<svg viewBox="0 0 15 15" width="100%" height="30px" preserveAspectRatio="xMaxYMin meet">
 <g id="arrow_out" transform="scale(0.3 0.3)">
  <a xlink:href="class_connection_line_a1e6c91e7c182b1c750edf0264f44a60a_cgraph_org.svg" target="_base">
   <rect id="button" ry="5" rx="5" y="6" x="6" height="38" width="38"
        fill="#f2f5e9" fill-opacity="0.5" stroke="#606060" stroke-width="1.0"/>
   <path id="arrow"
     d="M 11.500037,31.436501 C 11.940474,20.09759 22.043105,11.32322 32.158766,21.979434 L 37.068811,17.246167 C 37.068811,17.246167 37.088388,32 37.088388,32 L 22.160133,31.978069 C 22.160133,31.978069 26.997745,27.140456 26.997745,27.140456 C 18.528582,18.264221 13.291696,25.230495 11.500037,31.436501 z"
     style="fill:#404040;"/>
  </a>
 </g>
</svg>

<style type='text/css'>
<![CDATA[
[data-mouse-over-selected='false'] { opacity: 0.7; }
[data-mouse-over-selected='true']  { opacity: 1.0; }
]]>
</style>
<script type="application/ecmascript"><![CDATA[
document.addEventListener('DOMContentLoaded', (event) => {
  highlightEdges();
  highlightAdjacentNodes();
});
]]></script>
</svg>
