<?xml version="1.0" encoding="UTF-8" standalone="no"?>
<!DOCTYPE svg PUBLIC "-//W3C//DTD SVG 1.1//EN"
 "http://www.w3.org/Graphics/SVG/1.1/DTD/svg11.dtd">
<!-- Generated by graphviz version 14.1.1 (20251213.1925)
 -->
<!-- Title: ElementGraphicsItem::setupRenderer Pages: 1 -->
<svg width="418pt" height="40pt"
 viewBox="0.00 0.00 418.00 40.00" xmlns="http://www.w3.org/2000/svg" xmlns:xlink="http://www.w3.org/1999/xlink">
<g id="graph0" class="graph" transform="scale(1 1) rotate(0) translate(4 36)">
<title>ElementGraphicsItem::setupRenderer</title>
<!-- Node1 -->
<g id="Node000001" class="node">
<title>Node1</title>
<g id="a_Node000001"><a xlink:title=" ">
<polygon fill="#999999" stroke="#666666" points="409.5,-32 299,-32 299,0 409.5,0 409.5,-32"/>
<text xml:space="preserve" text-anchor="start" x="307" y="-18.5" font-family="Helvetica,sans-Serif" font-size="10.00">ElementGraphicsItem</text>
<text xml:space="preserve" text-anchor="middle" x="354.25" y="-6.5" font-family="Helvetica,sans-Serif" font-size="10.00">::setupRenderer</text>
</a>
</g>
</g>
<!-- Node2 -->
<g id="Node000002" class="node">
<title>Node2</title>
<g id="a_Node000002"><a xlink:href="class_element_graphics_item.html#a15c1c0390715f724886f2c4f842bd7c0" target="_top" xlink:title=" ">
<polygon fill="white" stroke="#666666" points="263,-32 146.5,-32 146.5,0 263,0 263,-32"/>
<text xml:space="preserve" text-anchor="start" x="154.5" y="-18.5" font-family="Helvetica,sans-Serif" font-size="10.00">ElementGraphicsItem</text>
<text xml:space="preserve" text-anchor="middle" x="204.75" y="-6.5" font-family="Helvetica,sans-Serif" font-size="10.00">::ElementGraphicsItem</text>
</a>
</g>
</g>
<!-- Node1&#45;&gt;Node2 -->
<g id="edge1_Node000001_Node000002" class="edge">
<title>Node1&#45;&gt;Node2</title>
<g id="a_edge1_Node000001_Node000002"><a xlink:title=" ">
<path fill="none" stroke="#63b8ff" d="M287.26,-16C279.34,-16 271.29,-16 263.49,-16"/>
<polygon fill="#63b8ff" stroke="#63b8ff" points="287.23,-19.5 297.23,-16 287.23,-12.5 287.23,-19.5"/>
</a>
</g>
</g>
<!-- Node3 -->
<g id="Node000003" class="node">
<title>Node3</title>
<g id="a_Node000003"><a xlink:href="class_element_graphics_item.html#a215ad3b183b805a08039ce7929a0e1d0" target="_top" xlink:title=" ">
<polygon fill="white" stroke="#666666" points="110.5,-32 0,-32 0,0 110.5,0 110.5,-32"/>
<text xml:space="preserve" text-anchor="start" x="8" y="-18.5" font-family="Helvetica,sans-Serif" font-size="10.00">ElementGraphicsItem</text>
<text xml:space="preserve" text-anchor="middle" x="55.25" y="-6.5" font-family="Helvetica,sans-Serif" font-size="10.00">::mouseMoveEvent</text>
</a>
</g>
</g>
<!-- Node2&#45;&gt;Node3 -->
<g id="edge2_Node000002_Node000003" class="edge">
<title>Node2&#45;&gt;Node3</title>
<g id="a_edge2_Node000002_Node000003"><a xlink:title=" ">
<path fill="none" stroke="#63b8ff" d="M134.97,-16C126.89,-16 118.73,-16 110.89,-16"/>
<polygon fill="#63b8ff" stroke="#63b8ff" points="134.79,-19.5 144.79,-16 134.79,-12.5 134.79,-19.5"/>
</a>
</g>
</g>
</g>
</svg>
