<?xml version="1.0" encoding="UTF-8" standalone="no"?>
<!DOCTYPE svg PUBLIC "-//W3C//DTD SVG 1.1//EN"
 "http://www.w3.org/Graphics/SVG/1.1/DTD/svg11.dtd">
<!-- Generated by graphviz version 14.1.1 (20251213.1925)
 -->
<!-- Title: Attribute::preferredSize Pages: 1 -->
<svg width="388pt" height="113pt"
 viewBox="0.00 0.00 388.00 113.00" xmlns="http://www.w3.org/2000/svg" xmlns:xlink="http://www.w3.org/1999/xlink">
<g id="graph0" class="graph" transform="scale(1 1) rotate(0) translate(4 109)">
<title>Attribute::preferredSize</title>
<!-- Node1 -->
<g id="Node000001" class="node">
<title>Node1</title>
<g id="a_Node000001"><a xlink:title=" ">
<polygon fill="#999999" stroke="#666666" points="379.5,-58 263,-58 263,-38 379.5,-38 379.5,-58"/>
<text xml:space="preserve" text-anchor="middle" x="321.25" y="-44.5" font-family="Helvetica,sans-Serif" font-size="10.00">Attribute::preferredSize</text>
</a>
</g>
</g>
<!-- Node2 -->
<g id="Node000002" class="node">
<title>Node2</title>
<g id="a_Node000002"><a xlink:href="class_attribute.html#a069397c04d49d00d9c2f50d6cbe7abe6" target="_top" xlink:title=" ">
<polygon fill="white" stroke="#666666" points="95.5,-105 0,-105 0,-85 95.5,-85 95.5,-105"/>
<text xml:space="preserve" text-anchor="middle" x="47.75" y="-91.5" font-family="Helvetica,sans-Serif" font-size="10.00">Attribute::Attribute</text>
</a>
</g>
</g>
<!-- Node1&#45;&gt;Node2 -->
<g id="edge1_Node000001_Node000002" class="edge">
<title>Node1&#45;&gt;Node2</title>
<g id="a_edge1_Node000001_Node000002"><a xlink:title=" ">
<path fill="none" stroke="#63b8ff" d="M289.41,-63.15C271.61,-71.14 248.55,-80.25 227,-85 183.26,-94.64 132.11,-96.58 95.85,-96.45"/>
<polygon fill="#63b8ff" stroke="#63b8ff" points="290.77,-66.37 298.38,-59 287.83,-60.02 290.77,-66.37"/>
</a>
</g>
</g>
<!-- Node3 -->
<g id="Node000003" class="node">
<title>Node3</title>
<g id="a_Node000003"><a xlink:href="class_attribute.html#add9e11d2b5f40d9d51bc7e4aeb4904db" target="_top" xlink:title=" ">
<polygon fill="white" stroke="#666666" points="95.5,-20 0,-20 0,0 95.5,0 95.5,-20"/>
<text xml:space="preserve" text-anchor="middle" x="47.75" y="-6.5" font-family="Helvetica,sans-Serif" font-size="10.00">Attribute::Attribute</text>
</a>
</g>
</g>
<!-- Node1&#45;&gt;Node3 -->
<g id="edge2_Node000001_Node000003" class="edge">
<title>Node1&#45;&gt;Node3</title>
<g id="a_edge2_Node000001_Node000003"><a xlink:title=" ">
<path fill="none" stroke="#63b8ff" d="M262.44,-35.33C250.75,-33.02 238.51,-30.78 227,-29 182.71,-22.14 131.85,-16.99 95.82,-13.79"/>
<polygon fill="#63b8ff" stroke="#63b8ff" points="261.47,-38.71 271.96,-37.26 262.85,-31.85 261.47,-38.71"/>
</a>
</g>
</g>
<!-- Node4 -->
<g id="Node000004" class="node">
<title>Node4</title>
<g id="a_Node000004"><a xlink:href="class_attribute.html#a119bae8069ee45c1e48122a79ea4b29e" target="_top" xlink:title=" ">
<polygon fill="white" stroke="#666666" points="227,-58 131.5,-58 131.5,-38 227,-38 227,-58"/>
<text xml:space="preserve" text-anchor="middle" x="179.25" y="-44.5" font-family="Helvetica,sans-Serif" font-size="10.00">Attribute::Attribute</text>
</a>
</g>
</g>
<!-- Node1&#45;&gt;Node4 -->
<g id="edge3_Node000001_Node000004" class="edge">
<title>Node1&#45;&gt;Node4</title>
<g id="a_edge3_Node000001_Node000004"><a xlink:title=" ">
<path fill="none" stroke="#63b8ff" d="M251.48,-48C243.35,-48 235.2,-48 227.47,-48"/>
<polygon fill="#63b8ff" stroke="#63b8ff" points="251.39,-51.5 261.39,-48 251.39,-44.5 251.39,-51.5"/>
</a>
</g>
</g>
<!-- Node4&#45;&gt;Node2 -->
<g id="edge5_Node000004_Node000002" class="edge">
<title>Node4&#45;&gt;Node2</title>
<g id="a_edge5_Node000004_Node000002"><a xlink:title=" ">
<path fill="none" stroke="#63b8ff" d="M138.94,-62.27C119.11,-69.46 95.5,-78.03 77.41,-84.6"/>
<polygon fill="#63b8ff" stroke="#63b8ff" points="139.88,-65.65 148.09,-58.95 137.49,-59.07 139.88,-65.65"/>
</a>
</g>
</g>
<!-- Node4&#45;&gt;Node3 -->
<g id="edge6_Node000004_Node000003" class="edge">
<title>Node4&#45;&gt;Node3</title>
<g id="a_edge6_Node000004_Node000003"><a xlink:title=" ">
<path fill="none" stroke="#63b8ff" d="M131.52,-34.29C115.98,-29.73 98.93,-24.72 84.36,-20.45"/>
<polygon fill="#63b8ff" stroke="#63b8ff" points="130.49,-37.63 141.07,-37.09 132.46,-30.92 130.49,-37.63"/>
</a>
</g>
</g>
<!-- Node4&#45;&gt;Node4 -->
<g id="edge7_Node000004_Node000004" class="edge">
<title>Node4&#45;&gt;Node4</title>
<g id="a_edge7_Node000004_Node000004"><a xlink:title=" ">
<path fill="none" stroke="#63b8ff" d="M202.49,-69.44C199.5,-73.3 191.75,-76 179.25,-76 156.39,-76 149.43,-66.98 158.36,-58.34"/>
<polygon fill="#63b8ff" stroke="#63b8ff" points="205.95,-68.88 200.46,-59.82 199.1,-70.33 205.95,-68.88"/>
</a>
</g>
</g>
<!-- Node5 -->
<g id="Node000005" class="node">
<title>Node5</title>
<g id="a_Node000005"><a xlink:href="class_attribute.html#af93ebaed48e35e2dbbf0abbb5ad5c688" target="_top" xlink:title=" ">
<polygon fill="white" stroke="#666666" points="95.5,-58 0,-58 0,-38 95.5,-38 95.5,-58"/>
<text xml:space="preserve" text-anchor="middle" x="47.75" y="-44.5" font-family="Helvetica,sans-Serif" font-size="10.00">Attribute::Attribute</text>
</a>
</g>
</g>
<!-- Node4&#45;&gt;Node5 -->
<g id="edge4_Node000004_Node000005" class="edge">
<title>Node4&#45;&gt;Node5</title>
<g id="a_edge4_Node000004_Node000005"><a xlink:title=" ">
<path fill="none" stroke="#63b8ff" d="M119.82,-48C111.71,-48 103.47,-48 95.62,-48"/>
<polygon fill="#63b8ff" stroke="#63b8ff" points="119.62,-51.5 129.62,-48 119.62,-44.5 119.62,-51.5"/>
</a>
</g>
</g>
</g>
</svg>
