<?xml version="1.0" encoding="UTF-8" standalone="no"?>
<!DOCTYPE svg PUBLIC "-//W3C//DTD SVG 1.1//EN"
 "http://www.w3.org/Graphics/SVG/1.1/DTD/svg11.dtd">
<!-- Generated by graphviz version 14.1.1 (20251213.1925)
 -->
<!-- Title: IElementRenderer Pages: 1 -->
<svg width="117pt" height="124pt"
 viewBox="0.00 0.00 117.00 124.00" xmlns="http://www.w3.org/2000/svg" xmlns:xlink="http://www.w3.org/1999/xlink">
<g id="graph0" class="graph" transform="scale(1 1) rotate(0) translate(4 120)">
<title>IElementRenderer</title>
<!-- Node1 -->
<g id="Node000001" class="node">
<title>Node1</title>
<g id="a_Node000001"><a xlink:title="Abstract interface for element rendering in ERD diagrams.">
<polygon fill="#999999" stroke="none" points="108.75,-116 0,-116 0,0 108.75,0 108.75,-116"/>
<text xml:space="preserve" text-anchor="start" x="15" y="-102.5" font-family="Helvetica,sans-Serif" font-size="10.00">IElementRenderer</text>
<text xml:space="preserve" text-anchor="start" x="52.88" y="-86.5" font-family="Helvetica,sans-Serif" font-size="10.00"> </text>
<text xml:space="preserve" text-anchor="start" x="4" y="-70.5" font-family="Helvetica,sans-Serif" font-size="10.00">+</text>
<text xml:space="preserve" text-anchor="start" x="14" y="-70.5" font-family="Helvetica,sans-Serif" font-size="10.00">~IElementRenderer()</text>
<text xml:space="preserve" text-anchor="start" x="4" y="-54.5" font-family="Helvetica,sans-Serif" font-size="10.00">+</text>
<text xml:space="preserve" text-anchor="start" x="14" y="-54.5" font-family="Helvetica,sans-Serif" font-size="10.00">render()</text>
<text xml:space="preserve" text-anchor="start" x="4" y="-38.5" font-family="Helvetica,sans-Serif" font-size="10.00">+</text>
<text xml:space="preserve" text-anchor="start" x="14" y="-38.5" font-family="Helvetica,sans-Serif" font-size="10.00">isInElementRect()</text>
<text xml:space="preserve" text-anchor="start" x="4" y="-22.5" font-family="Helvetica,sans-Serif" font-size="10.00">+</text>
<text xml:space="preserve" text-anchor="start" x="14" y="-22.5" font-family="Helvetica,sans-Serif" font-size="10.00">selectionRect()</text>
<text xml:space="preserve" text-anchor="start" x="4" y="-6.5" font-family="Helvetica,sans-Serif" font-size="10.00">+</text>
<text xml:space="preserve" text-anchor="start" x="14" y="-6.5" font-family="Helvetica,sans-Serif" font-size="10.00">renderSelection()</text>
<polygon fill="#666666" stroke="#666666" points="0,-98 0,-98 108.75,-98 108.75,-98 0,-98"/>
<polygon fill="#666666" stroke="#666666" points="0,-82 0,-82 108.75,-82 108.75,-82 0,-82"/>
<polygon fill="none" stroke="#666666" points="0,0 0,-116 108.75,-116 108.75,0 0,0"/>
</a>
</g>
</g>
</g>
</svg>
