<?xml version="1.0" encoding="UTF-8" standalone="no"?>
<!DOCTYPE svg PUBLIC "-//W3C//DTD SVG 1.1//EN"
 "http://www.w3.org/Graphics/SVG/1.1/DTD/svg11.dtd">
<!-- Generated by graphviz version 14.1.1 (20251213.1925)
 -->
<!-- Title: ElementGraphicsItem::updateHoveredConnectionPoint Pages: 1 -->
<svg width="655pt" height="40pt"
 viewBox="0.00 0.00 655.00 40.00" xmlns="http://www.w3.org/2000/svg" xmlns:xlink="http://www.w3.org/1999/xlink">
<g id="graph0" class="graph" transform="scale(1 1) rotate(0) translate(4 36)">
<title>ElementGraphicsItem::updateHoveredConnectionPoint</title>
<!-- Node1 -->
<g id="Node000001" class="node">
<title>Node1</title>
<g id="a_Node000001"><a xlink:title=" ">
<polygon fill="#999999" stroke="#666666" points="160,-32 0,-32 0,0 160,0 160,-32"/>
<text xml:space="preserve" text-anchor="start" x="8" y="-18.5" font-family="Helvetica,sans-Serif" font-size="10.00">ElementGraphicsItem</text>
<text xml:space="preserve" text-anchor="middle" x="80" y="-6.5" font-family="Helvetica,sans-Serif" font-size="10.00">::updateHoveredConnectionPoint</text>
</a>
</g>
</g>
<!-- Node2 -->
<g id="Node000002" class="node">
<title>Node2</title>
<g id="a_Node000002"><a xlink:href="class_element_graphics_item.html#a778f08249305dd4301855fefea15ce81" target="_top" xlink:title=" ">
<polygon fill="white" stroke="#666666" points="315.5,-32 196,-32 196,0 315.5,0 315.5,-32"/>
<text xml:space="preserve" text-anchor="start" x="204" y="-18.5" font-family="Helvetica,sans-Serif" font-size="10.00">ElementGraphicsItem</text>
<text xml:space="preserve" text-anchor="middle" x="255.75" y="-6.5" font-family="Helvetica,sans-Serif" font-size="10.00">::findConnectionPointAt</text>
</a>
</g>
</g>
<!-- Node1&#45;&gt;Node2 -->
<g id="edge1_Node000001_Node000002" class="edge">
<title>Node1&#45;&gt;Node2</title>
<g id="a_edge1_Node000001_Node000002"><a xlink:title=" ">
<path fill="none" stroke="#63b8ff" d="M160.25,-16C168.25,-16 176.33,-16 184.23,-16"/>
<polygon fill="#63b8ff" stroke="#63b8ff" points="184.12,-19.5 194.12,-16 184.12,-12.5 184.12,-19.5"/>
</a>
</g>
</g>
<!-- Node3 -->
<g id="Node000003" class="node">
<title>Node3</title>
<g id="a_Node000003"><a xlink:href="class_element_graphics_item.html#aba16bb9e988fba3ef75a81587c6e75db" target="_top" xlink:title=" ">
<polygon fill="white" stroke="#666666" points="480,-32 351.5,-32 351.5,0 480,0 480,-32"/>
<text xml:space="preserve" text-anchor="start" x="359.5" y="-18.5" font-family="Helvetica,sans-Serif" font-size="10.00">ElementGraphicsItem</text>
<text xml:space="preserve" text-anchor="middle" x="415.75" y="-6.5" font-family="Helvetica,sans-Serif" font-size="10.00">::getConnectionPointRect</text>
</a>
</g>
</g>
<!-- Node2&#45;&gt;Node3 -->
<g id="edge2_Node000002_Node000003" class="edge">
<title>Node2&#45;&gt;Node3</title>
<g id="a_edge2_Node000002_Node000003"><a xlink:title=" ">
<path fill="none" stroke="#63b8ff" d="M315.58,-16C323.46,-16 331.61,-16 339.72,-16"/>
<polygon fill="#63b8ff" stroke="#63b8ff" points="339.58,-19.5 349.58,-16 339.58,-12.5 339.58,-19.5"/>
</a>
</g>
</g>
<!-- Node4 -->
<g id="Node000004" class="node">
<title>Node4</title>
<g id="a_Node000004"><a xlink:href="class_connection_point.html#a6bf5d1a8e9fbea5999a77aeb0f5ada2a" target="_top" xlink:title=" ">
<polygon fill="white" stroke="#666666" points="646.75,-32 516,-32 516,0 646.75,0 646.75,-32"/>
<text xml:space="preserve" text-anchor="start" x="524" y="-18.5" font-family="Helvetica,sans-Serif" font-size="10.00">ConnectionPoint::absolute</text>
<text xml:space="preserve" text-anchor="middle" x="581.38" y="-6.5" font-family="Helvetica,sans-Serif" font-size="10.00">Position</text>
</a>
</g>
</g>
<!-- Node3&#45;&gt;Node4 -->
<g id="edge3_Node000003_Node000004" class="edge">
<title>Node3&#45;&gt;Node4</title>
<g id="a_edge3_Node000003_Node000004"><a xlink:title=" ">
<path fill="none" stroke="#63b8ff" d="M480.48,-16C488.35,-16 496.45,-16 504.48,-16"/>
<polygon fill="#63b8ff" stroke="#63b8ff" points="504.23,-19.5 514.23,-16 504.23,-12.5 504.23,-19.5"/>
</a>
</g>
</g>
</g>
</svg>
