<?xml version="1.0" encoding="UTF-8" standalone="no"?>
<!DOCTYPE svg PUBLIC "-//W3C//DTD SVG 1.1//EN"
 "http://www.w3.org/Graphics/SVG/1.1/DTD/svg11.dtd">
<!-- Generated by graphviz version 14.1.1 (20251213.1925)
 -->
<!-- Title: BasicElement::typeDisplayName Pages: 1 -->
<!--zoomable 722 -->

<svg id="main" version="1.1" xmlns="http://www.w3.org/2000/svg" xmlns:xlink="http://www.w3.org/1999/xlink" xml:space="preserve" onload="init(evt)">

<style type="text/css"><![CDATA[
.node, .edge {opacity: 0.7;}
.node.selected, .edge.selected {opacity: 1;}
.edge:hover path { stroke: red; }
.edge:hover polygon { stroke: red; fill: red; }
]]></style>

<defs>
  <circle id="rim" cx="0" cy="0" r="7"/>
  <circle id="rim2" cx="0" cy="0" r="3.5"/>
  <g id="zoomPlus">
    <use xlink:href="#rim" fill="#404040"><set attributeName="fill" to="#808080" begin="zoomplus.mouseover" end="zoomplus.mouseout"/></use>
    <path d="M-4,0h8M0,-4v8" fill="none" stroke="white" stroke-width="1.5" pointer-events="none"/>
  </g>
  <g id="zoomMin">
    <use xlink:href="#rim" fill="#404040"><set attributeName="fill" to="#808080" begin="zoomminus.mouseover" end="zoomminus.mouseout"/></use>
    <path d="M-4,0h8" fill="none" stroke="white" stroke-width="1.5" pointer-events="none"/>
  </g>
  <g id="arrowUp" transform="translate(30 24)">
    <use xlink:href="#rim"/>
    <path pointer-events="none" fill="none" stroke="white" stroke-width="1.5" d="M0,-3.0v7 M-2.5,-0.5L0,-3.0L2.5,-0.5"/>
  </g>
  <g id="arrowRight" transform="rotate(90) translate(36 -43)">
    <use xlink:href="#rim"/>
    <path pointer-events="none" fill="none" stroke="white" stroke-width="1.5" d="M0,-3.0v7 M-2.5,-0.5L0,-3.0L2.5,-0.5"/>
  </g>
  <g id="arrowDown" transform="rotate(180) translate(-30 -48)">
    <use xlink:href="#rim"/>
    <path pointer-events="none" fill="none" stroke="white" stroke-width="1.5" d="M0,-3.0v7 M-2.5,-0.5L0,-3.0L2.5,-0.5"/>
  </g>
  <g id="arrowLeft" transform="rotate(270) translate(-36 17)">
    <use xlink:href="#rim"/>
    <path pointer-events="none" fill="none" stroke="white" stroke-width="1.5" d="M0,-3.0v7 M-2.5,-0.5L0,-3.0L2.5,-0.5"/>
  </g>
  <g id="resetDef">
    <use xlink:href="#rim2" fill="#404040"><set attributeName="fill" to="#808080" begin="reset.mouseover" end="reset.mouseout"/></use>
  </g>
</defs>
<script type="application/ecmascript">
var viewWidth = 1422;
var viewHeight = 722;
var sectionId = 'dynsection-33';
</script>
<script type="application/ecmascript" xlink:href="svg.min.js"/>
<svg id="graph" class="graph">
<g id="viewport">
<title>BasicElement::typeDisplayName</title>
<!-- Node1 -->
<g id="Node000001" class="node">
<title>Node1</title>
<g id="a_Node000001"><a xlink:title=" ">
<polygon fill="#999999" stroke="#666666" points="1414.25,-589.72 1253.5,-589.72 1253.5,-569.72 1414.25,-569.72 1414.25,-589.72"/>
<text xml:space="preserve" text-anchor="middle" x="1333.88" y="-576.22" font-family="Helvetica,sans-Serif" font-size="10.00">BasicElement::typeDisplayName</text>
</a>
</g>
</g>
<!-- Node2 -->
<g id="Node000002" class="node">
<title>Node2</title>
<g id="a_Node000002"><a xlink:href="class_properties_panel.html#a037586f897062f3915a123b9f2a82b91" target="_top" xlink:title=" ">
<polygon fill="white" stroke="#666666" points="1217.5,-595.72 1089.75,-595.72 1089.75,-563.72 1217.5,-563.72 1217.5,-595.72"/>
<text xml:space="preserve" text-anchor="start" x="1097.75" y="-582.22" font-family="Helvetica,sans-Serif" font-size="10.00">PropertiesPanel::populate</text>
<text xml:space="preserve" text-anchor="middle" x="1153.62" y="-570.22" font-family="Helvetica,sans-Serif" font-size="10.00">ForElement</text>
</a>
</g>
</g>
<!-- Node1&#45;&gt;Node2 -->
<g id="edge1_Node000001_Node000002" class="edge">
<title>Node1&#45;&gt;Node2</title>
<g id="a_edge1_Node000001_Node000002"><a xlink:title=" ">
<path fill="none" stroke="#63b8ff" d="M1241.78,-579.72C1233.74,-579.72 1225.72,-579.72 1217.99,-579.72"/>
<polygon fill="#63b8ff" stroke="#63b8ff" points="1241.62,-583.22 1251.62,-579.72 1241.62,-576.22 1241.62,-583.22"/>
</a>
</g>
</g>
<!-- Node3 -->
<g id="Node000003" class="node">
<title>Node3</title>
<g id="a_Node000003"><a xlink:href="class_properties_panel.html#a139ae0158b486c6004e15e0ddf36f319" target="_top" xlink:title=" ">
<polygon fill="white" stroke="#666666" points="1053.75,-497.72 932.75,-497.72 932.75,-477.72 1053.75,-477.72 1053.75,-497.72"/>
<text xml:space="preserve" text-anchor="middle" x="993.25" y="-484.22" font-family="Helvetica,sans-Serif" font-size="10.00">PropertiesPanel::refresh</text>
</a>
</g>
</g>
<!-- Node2&#45;&gt;Node3 -->
<g id="edge2_Node000002_Node000003" class="edge">
<title>Node2&#45;&gt;Node3</title>
<g id="a_edge2_Node000002_Node000003"><a xlink:title=" ">
<path fill="none" stroke="#63b8ff" d="M1114.66,-557.67C1082.13,-538.77 1036.72,-512.39 1012,-498.03"/>
<polygon fill="#63b8ff" stroke="#63b8ff" points="1112.6,-560.51 1123,-562.51 1116.11,-554.46 1112.6,-560.51"/>
</a>
</g>
</g>
<!-- Node4 -->
<g id="Node000004" class="node">
<title>Node4</title>
<g id="a_Node000004"><a xlink:href="class_properties_panel.html#a55ae5c02e7d75c7bdc26281a148e8c5a" target="_top" xlink:title=" ">
<polygon fill="white" stroke="#666666" points="896.75,-594.72 741.25,-594.72 741.25,-562.72 896.75,-562.72 896.75,-594.72"/>
<text xml:space="preserve" text-anchor="start" x="749.25" y="-581.22" font-family="Helvetica,sans-Serif" font-size="10.00">PropertiesPanel::onAddAttribute</text>
<text xml:space="preserve" text-anchor="middle" x="819" y="-569.22" font-family="Helvetica,sans-Serif" font-size="10.00">OnTreeClicked</text>
</a>
</g>
</g>
<!-- Node3&#45;&gt;Node4 -->
<g id="edge3_Node000003_Node000004" class="edge">
<title>Node3&#45;&gt;Node4</title>
<g id="a_edge3_Node000003_Node000004"><a xlink:title=" ">
<path fill="none" stroke="#63b8ff" d="M968.61,-504.67C949.74,-517.74 922.32,-535.71 896.75,-548.72 887.19,-553.58 876.64,-558.17 866.5,-562.23"/>
<polygon fill="#63b8ff" stroke="#63b8ff" points="970.48,-507.63 976.65,-499.02 966.46,-501.9 970.48,-507.63"/>
</a>
</g>
</g>
<!-- Node10 -->
<g id="Node000010" class="node">
<title>Node10</title>
<g id="a_Node000010"><a xlink:href="class_properties_panel.html#a2800a2c7575a5fad6d923d9b64d982f8" target="_top" xlink:title=" ">
<polygon fill="white" stroke="#666666" points="487.5,-453.72 357.5,-453.72 357.5,-421.72 487.5,-421.72 487.5,-453.72"/>
<text xml:space="preserve" text-anchor="start" x="365.5" y="-440.22" font-family="Helvetica,sans-Serif" font-size="10.00">PropertiesPanel::onCheck</text>
<text xml:space="preserve" text-anchor="middle" x="422.5" y="-428.22" font-family="Helvetica,sans-Serif" font-size="10.00">BoxChanged</text>
</a>
</g>
</g>
<!-- Node3&#45;&gt;Node10 -->
<g id="edge16_Node000003_Node000010" class="edge">
<title>Node3&#45;&gt;Node10</title>
<g id="a_edge16_Node000003_Node000010"><a xlink:title=" ">
<path fill="none" stroke="#63b8ff" d="M945.48,-501.06C860.71,-522.93 677.02,-559.62 531.75,-513.72 494.75,-502.03 459.42,-472.65 439.69,-454.03"/>
<polygon fill="#63b8ff" stroke="#63b8ff" points="946.28,-504.47 955.06,-498.54 944.5,-497.7 946.28,-504.47"/>
</a>
</g>
</g>
<!-- Node12 -->
<g id="Node000012" class="node">
<title>Node12</title>
<g id="a_Node000012"><a xlink:href="class_properties_panel.html#aec82450a3daeb2614c2321e37897f1dd" target="_top" xlink:title=" ">
<polygon fill="white" stroke="#666666" points="489,-274.72 356,-274.72 356,-242.72 489,-242.72 489,-274.72"/>
<text xml:space="preserve" text-anchor="start" x="364" y="-261.22" font-family="Helvetica,sans-Serif" font-size="10.00">PropertiesPanel::onCombo</text>
<text xml:space="preserve" text-anchor="middle" x="422.5" y="-249.22" font-family="Helvetica,sans-Serif" font-size="10.00">BoxChanged</text>
</a>
</g>
</g>
<!-- Node3&#45;&gt;Node12 -->
<g id="edge20_Node000003_Node000012" class="edge">
<title>Node3&#45;&gt;Node12</title>
<g id="a_edge20_Node000003_Node000012"><a xlink:title=" ">
<path fill="none" stroke="#63b8ff" d="M985.5,-466.99C972.95,-431.05 943,-356.44 896.75,-308.72 828.44,-238.24 800.09,-224.02 705.25,-198.72 630.74,-178.84 605.98,-177.83 531.75,-198.72 513.7,-203.8 512.06,-211.46 495.75,-220.72 482.81,-228.07 468.33,-235.78 455.75,-242.32"/>
<polygon fill="#63b8ff" stroke="#63b8ff" points="982.09,-467.82 988.61,-476.17 988.72,-465.57 982.09,-467.82"/>
</a>
</g>
</g>
<!-- Node16 -->
<g id="Node000016" class="node">
<title>Node16</title>
<g id="a_Node000016"><a xlink:href="class_properties_panel.html#aec8130201106284c02f21903b516554d" target="_top" xlink:title=" ">
<polygon fill="white" stroke="#666666" points="686.88,-151.72 550.12,-151.72 550.12,-119.72 686.88,-119.72 686.88,-151.72"/>
<text xml:space="preserve" text-anchor="start" x="558.12" y="-138.22" font-family="Helvetica,sans-Serif" font-size="10.00">PropertiesPanel::onLineEdit</text>
<text xml:space="preserve" text-anchor="middle" x="618.5" y="-126.22" font-family="Helvetica,sans-Serif" font-size="10.00">Changed</text>
</a>
</g>
</g>
<!-- Node3&#45;&gt;Node16 -->
<g id="edge27_Node000003_Node000016" class="edge">
<title>Node3&#45;&gt;Node16</title>
<g id="a_edge27_Node000003_Node000016"><a xlink:title=" ">
<path fill="none" stroke="#63b8ff" d="M989.01,-466.25C978.66,-400.73 944.29,-205.36 896.75,-165.72 838.84,-117.42 748.77,-116.79 687.11,-123.7"/>
<polygon fill="#63b8ff" stroke="#63b8ff" points="985.49,-466.38 990.48,-475.73 992.41,-465.31 985.49,-466.38"/>
</a>
</g>
</g>
<!-- Node18 -->
<g id="Node000018" class="node">
<title>Node18</title>
<g id="a_Node000018"><a xlink:href="class_properties_panel.html#a3cdc065abcd2f9e59558903073c0f23f" target="_top" xlink:title=" ">
<polygon fill="white" stroke="#666666" points="491.62,-394.72 353.38,-394.72 353.38,-362.72 491.62,-362.72 491.62,-394.72"/>
<text xml:space="preserve" text-anchor="start" x="361.38" y="-381.22" font-family="Helvetica,sans-Serif" font-size="10.00">PropertiesPanel::onProperty</text>
<text xml:space="preserve" text-anchor="middle" x="422.5" y="-369.22" font-family="Helvetica,sans-Serif" font-size="10.00">ValueChanged</text>
</a>
</g>
</g>
<!-- Node3&#45;&gt;Node18 -->
<g id="edge30_Node000003_Node000018" class="edge">
<title>Node3&#45;&gt;Node18</title>
<g id="a_edge30_Node000003_Node000018"><a xlink:title=" ">
<path fill="none" stroke="#63b8ff" d="M921.32,-485.61C809.16,-486.48 596.86,-489.33 531.75,-453.72 507.73,-440.58 516.81,-421.22 495.75,-403.72 492.02,-400.62 487.96,-397.73 483.72,-395.08"/>
<polygon fill="#63b8ff" stroke="#63b8ff" points="921.03,-489.11 931,-485.54 920.98,-482.11 921.03,-489.11"/>
</a>
</g>
</g>
<!-- Node20 -->
<g id="Node000020" class="node">
<title>Node20</title>
<g id="a_Node000020"><a xlink:href="class_properties_panel.html#a8a2ec0bcba44f3bbd0245d3a53ff49f7" target="_top" xlink:title=" ">
<polygon fill="white" stroke="#666666" points="888.12,-644.72 749.88,-644.72 749.88,-612.72 888.12,-612.72 888.12,-644.72"/>
<text xml:space="preserve" text-anchor="start" x="757.88" y="-631.22" font-family="Helvetica,sans-Serif" font-size="10.00">PropertiesPanel::onRemove</text>
<text xml:space="preserve" text-anchor="middle" x="819" y="-619.22" font-family="Helvetica,sans-Serif" font-size="10.00">AttributeOnTreeClicked</text>
</a>
</g>
</g>
<!-- Node3&#45;&gt;Node20 -->
<g id="edge33_Node000003_Node000020" class="edge">
<title>Node3&#45;&gt;Node20</title>
<g id="a_edge33_Node000003_Node000020"><a xlink:title=" ">
<path fill="none" stroke="#63b8ff" d="M980.71,-507.87C964.94,-533.68 934.28,-578.13 896.75,-603.72 892,-606.95 886.81,-609.8 881.43,-612.29"/>
<polygon fill="#63b8ff" stroke="#63b8ff" points="983.67,-509.75 985.76,-499.36 977.65,-506.17 983.67,-509.75"/>
</a>
</g>
</g>
<!-- Node21 -->
<g id="Node000021" class="node">
<title>Node21</title>
<g id="a_Node000021"><a xlink:href="class_properties_panel.html#a79618c5c820a40931c085d54be70bd34" target="_top" xlink:title=" ">
<polygon fill="white" stroke="#666666" points="881.75,-349.72 756.25,-349.72 756.25,-317.72 881.75,-317.72 881.75,-349.72"/>
<text xml:space="preserve" text-anchor="start" x="764.25" y="-336.22" font-family="Helvetica,sans-Serif" font-size="10.00">PropertiesPanel::updates</text>
<text xml:space="preserve" text-anchor="middle" x="819" y="-324.22" font-family="Helvetica,sans-Serif" font-size="10.00">AfterChangingProperty</text>
</a>
</g>
</g>
<!-- Node3&#45;&gt;Node21 -->
<g id="edge35_Node000003_Node000021" class="edge">
<title>Node3&#45;&gt;Node21</title>
<g id="a_edge35_Node000003_Node000021"><a xlink:title=" ">
<path fill="none" stroke="#63b8ff" d="M972.11,-469.71C938.33,-439.51 870.78,-379.11 838.28,-350.06"/>
<polygon fill="#63b8ff" stroke="#63b8ff" points="969.76,-472.31 979.55,-476.37 974.43,-467.09 969.76,-472.31"/>
</a>
</g>
</g>
<!-- Node5 -->
<g id="Node000005" class="node">
<title>Node5</title>
<g id="a_Node000005"><a xlink:href="class_properties_panel.html#a90cca2a241daa84841ee3e90d7768c8f" target="_top" xlink:title=" ">
<polygon fill="white" stroke="#666666" points="495.75,-594.72 349.25,-594.72 349.25,-562.72 495.75,-562.72 495.75,-594.72"/>
<text xml:space="preserve" text-anchor="start" x="357.25" y="-581.22" font-family="Helvetica,sans-Serif" font-size="10.00">PropertiesPanel::createButton</text>
<text xml:space="preserve" text-anchor="middle" x="422.5" y="-569.22" font-family="Helvetica,sans-Serif" font-size="10.00">PropertyItem</text>
</a>
</g>
</g>
<!-- Node4&#45;&gt;Node5 -->
<g id="edge4_Node000004_Node000005" class="edge">
<title>Node4&#45;&gt;Node5</title>
<g id="a_edge4_Node000004_Node000005"><a xlink:title=" ">
<path fill="none" stroke="#63b8ff" d="M729.5,-578.72C659.1,-578.72 561.81,-578.72 495.98,-578.72"/>
<polygon fill="#63b8ff" stroke="#63b8ff" points="729.49,-582.22 739.49,-578.72 729.49,-575.22 729.49,-582.22"/>
</a>
</g>
</g>
<!-- Node6 -->
<g id="Node000006" class="node">
<title>Node6</title>
<g id="a_Node000006"><a xlink:href="class_properties_panel.html#a050a4a9040c7aeefde9c1377d2e1909e" target="_top" xlink:title=" ">
<polygon fill="white" stroke="#666666" points="302.38,-594.72 174.62,-594.72 174.62,-562.72 302.38,-562.72 302.38,-594.72"/>
<text xml:space="preserve" text-anchor="start" x="182.62" y="-581.22" font-family="Helvetica,sans-Serif" font-size="10.00">PropertiesPanel::populate</text>
<text xml:space="preserve" text-anchor="middle" x="238.5" y="-569.22" font-family="Helvetica,sans-Serif" font-size="10.00">AttributeList</text>
</a>
</g>
</g>
<!-- Node5&#45;&gt;Node6 -->
<g id="edge5_Node000005_Node000006" class="edge">
<title>Node5&#45;&gt;Node6</title>
<g id="a_edge5_Node000005_Node000006"><a xlink:title=" ">
<path fill="none" stroke="#63b8ff" d="M337.61,-578.72C325.87,-578.72 313.97,-578.72 302.71,-578.72"/>
<polygon fill="#63b8ff" stroke="#63b8ff" points="337.27,-582.22 347.27,-578.72 337.27,-575.22 337.27,-582.22"/>
</a>
</g>
</g>
<!-- Node7 -->
<g id="Node000007" class="node">
<title>Node7</title>
<g id="a_Node000007"><a xlink:href="class_properties_panel.html#acc5a2b4e63ea74eaa34853f1cec46b81" target="_top" xlink:title=" ">
<polygon fill="white" stroke="#666666" points="127.75,-572.72 0,-572.72 0,-540.72 127.75,-540.72 127.75,-572.72"/>
<text xml:space="preserve" text-anchor="start" x="8" y="-559.22" font-family="Helvetica,sans-Serif" font-size="10.00">PropertiesPanel::populate</text>
<text xml:space="preserve" text-anchor="middle" x="63.88" y="-547.22" font-family="Helvetica,sans-Serif" font-size="10.00">AttributeProperties</text>
</a>
</g>
</g>
<!-- Node5&#45;&gt;Node7 -->
<g id="edge13_Node000005_Node000007" class="edge">
<title>Node5&#45;&gt;Node7</title>
<g id="a_edge13_Node000005_Node000007"><a xlink:title=" ">
<path fill="none" stroke="#63b8ff" d="M350.15,-559.83C337.92,-557.29 325.28,-555.09 313.25,-553.72 250.59,-546.58 178.46,-548.57 128.13,-551.6"/>
<polygon fill="#63b8ff" stroke="#63b8ff" points="349.24,-563.22 359.75,-561.93 350.73,-556.38 349.24,-563.22"/>
</a>
</g>
</g>
<!-- Node8 -->
<g id="Node000008" class="node">
<title>Node8</title>
<g id="a_Node000008"><a xlink:href="class_properties_panel.html#a6a4344308af5b2c993bc25981529239c" target="_top" xlink:title=" ">
<polygon fill="white" stroke="#666666" points="127.75,-691.72 0,-691.72 0,-659.72 127.75,-659.72 127.75,-691.72"/>
<text xml:space="preserve" text-anchor="start" x="8" y="-678.22" font-family="Helvetica,sans-Serif" font-size="10.00">PropertiesPanel::populate</text>
<text xml:space="preserve" text-anchor="middle" x="63.88" y="-666.22" font-family="Helvetica,sans-Serif" font-size="10.00">EntityProperties</text>
</a>
</g>
</g>
<!-- Node5&#45;&gt;Node8 -->
<g id="edge14_Node000005_Node000008" class="edge">
<title>Node5&#45;&gt;Node8</title>
<g id="a_edge14_Node000005_Node000008"><a xlink:title=" ">
<path fill="none" stroke="#63b8ff" d="M349.89,-598.19C284.04,-616.11 187.46,-642.38 125.37,-659.26"/>
<polygon fill="#63b8ff" stroke="#63b8ff" points="350.81,-601.57 359.54,-595.57 348.97,-594.82 350.81,-601.57"/>
</a>
</g>
</g>
<!-- Node9 -->
<g id="Node000009" class="node">
<title>Node9</title>
<g id="a_Node000009"><a xlink:href="class_properties_panel.html#aeb116e2e51099f618b5d284e492bc0e2" target="_top" xlink:title=" ">
<polygon fill="white" stroke="#666666" points="127.75,-391.72 0,-391.72 0,-359.72 127.75,-359.72 127.75,-391.72"/>
<text xml:space="preserve" text-anchor="start" x="8" y="-378.22" font-family="Helvetica,sans-Serif" font-size="10.00">PropertiesPanel::populate</text>
<text xml:space="preserve" text-anchor="middle" x="63.88" y="-366.22" font-family="Helvetica,sans-Serif" font-size="10.00">RelationshipProperties</text>
</a>
</g>
</g>
<!-- Node5&#45;&gt;Node9 -->
<g id="edge15_Node000005_Node000009" class="edge">
<title>Node5&#45;&gt;Node9</title>
<g id="a_edge15_Node000005_Node000009"><a xlink:title=" ">
<path fill="none" stroke="#63b8ff" d="M407.91,-552.61C390.31,-521.4 356.66,-469.88 313.25,-441.72 255.74,-404.41 229.96,-421.5 163.75,-403.72 150.22,-400.08 135.7,-396.05 122.05,-392.19"/>
<polygon fill="#63b8ff" stroke="#63b8ff" points="404.65,-553.94 412.53,-561.02 410.79,-550.57 404.65,-553.94"/>
</a>
</g>
</g>
<!-- Node6&#45;&gt;Node7 -->
<g id="edge6_Node000006_Node000007" class="edge">
<title>Node6&#45;&gt;Node7</title>
<g id="a_edge6_Node000006_Node000007"><a xlink:title=" ">
<path fill="none" stroke="#63b8ff" d="M163.15,-562.55C151.49,-560.95 139.54,-559.48 128.17,-558.25"/>
<polygon fill="#63b8ff" stroke="#63b8ff" points="162.31,-565.97 172.7,-563.91 163.29,-559.04 162.31,-565.97"/>
</a>
</g>
</g>
<!-- Node6&#45;&gt;Node8 -->
<g id="edge9_Node000006_Node000008" class="edge">
<title>Node6&#45;&gt;Node8</title>
<g id="a_edge9_Node000006_Node000008"><a xlink:title=" ">
<path fill="none" stroke="#63b8ff" d="M198.39,-600.7C166.68,-618.51 122.69,-643.23 94.01,-659.34"/>
<polygon fill="#63b8ff" stroke="#63b8ff" points="199.89,-603.86 206.9,-595.91 196.46,-597.76 199.89,-603.86"/>
</a>
</g>
</g>
<!-- Node6&#45;&gt;Node9 -->
<g id="edge11_Node000006_Node000009" class="edge">
<title>Node6&#45;&gt;Node9</title>
<g id="a_edge11_Node000006_Node000009"><a xlink:title=" ">
<path fill="none" stroke="#63b8ff" d="M216.4,-553.9C180.6,-511.81 108.95,-427.55 78.78,-392.06"/>
<polygon fill="#63b8ff" stroke="#63b8ff" points="213.54,-555.95 222.68,-561.3 218.87,-551.41 213.54,-555.95"/>
</a>
</g>
</g>
<!-- Node7&#45;&gt;Node2 -->
<g id="edge8_Node000007_Node000002" class="edge">
<title>Node7&#45;&gt;Node2</title>
<g id="a_edge8_Node000007_Node000002"><a xlink:title=" ">
<path fill="none" stroke="#63b8ff" d="M102.45,-578.49C120.42,-587.86 142.59,-597.97 163.75,-603.72 294.71,-639.27 691.95,-682.74 896.75,-653.72 973.67,-642.82 1059.83,-614.36 1109.97,-596.08"/>
<polygon fill="#63b8ff" stroke="#63b8ff" points="104.2,-575.45 93.73,-573.81 100.89,-581.62 104.2,-575.45"/>
</a>
</g>
</g>
<!-- Node7&#45;&gt;Node6 -->
<g id="edge7_Node000007_Node000006" class="edge">
<title>Node7&#45;&gt;Node6</title>
<g id="a_edge7_Node000007_Node000006"><a xlink:title=" ">
<path fill="none" stroke="#63b8ff" d="M139.22,-572.88C150.87,-574.48 162.83,-575.95 174.2,-577.18"/>
<polygon fill="#63b8ff" stroke="#63b8ff" points="140.06,-569.47 129.66,-571.53 139.07,-576.4 140.06,-569.47"/>
</a>
</g>
</g>
<!-- Node8&#45;&gt;Node2 -->
<g id="edge10_Node000008_Node000002" class="edge">
<title>Node8&#45;&gt;Node2</title>
<g id="a_edge10_Node000008_Node000002"><a xlink:title=" ">
<path fill="none" stroke="#63b8ff" d="M139.31,-688.3C211.29,-699.36 323.54,-713.72 421.5,-713.72 820,-713.72 820,-713.72 820,-713.72 928.2,-713.72 955.67,-691.4 1053.75,-645.72 1082.75,-632.21 1112.88,-610.87 1132.14,-596.12"/>
<polygon fill="#63b8ff" stroke="#63b8ff" points="140.03,-684.87 129.61,-686.79 138.95,-691.79 140.03,-684.87"/>
</a>
</g>
</g>
<!-- Node9&#45;&gt;Node2 -->
<g id="edge12_Node000009_Node000002" class="edge">
<title>Node9&#45;&gt;Node2</title>
<g id="a_edge12_Node000009_Node000002"><a xlink:title=" ">
<path fill="none" stroke="#63b8ff" d="M68.77,-348.15C77.03,-300.92 100.96,-205.12 163.75,-158.72 426.17,35.23 618.33,53.46 896.75,-116.72 1071.11,-223.29 1135.67,-494.36 1149.58,-563.48"/>
<polygon fill="#63b8ff" stroke="#63b8ff" points="65.35,-347.39 67.2,-357.82 72.26,-348.52 65.35,-347.39"/>
</a>
</g>
</g>
<!-- Node11 -->
<g id="Node000011" class="node">
<title>Node11</title>
<g id="a_Node000011"><a xlink:href="class_properties_panel.html#acfb41226221624e46767835caeea8abc" target="_top" xlink:title=" ">
<polygon fill="white" stroke="#666666" points="311.75,-482.72 165.25,-482.72 165.25,-450.72 311.75,-450.72 311.75,-482.72"/>
<text xml:space="preserve" text-anchor="start" x="173.25" y="-469.22" font-family="Helvetica,sans-Serif" font-size="10.00">PropertiesPanel::createCheck</text>
<text xml:space="preserve" text-anchor="middle" x="238.5" y="-457.22" font-family="Helvetica,sans-Serif" font-size="10.00">BoxPropertyItem</text>
</a>
</g>
</g>
<!-- Node10&#45;&gt;Node11 -->
<g id="edge17_Node000010_Node000011" class="edge">
<title>Node10&#45;&gt;Node11</title>
<g id="a_edge17_Node000010_Node000011"><a xlink:title=" ">
<path fill="none" stroke="#63b8ff" d="M346.03,-449.74C334.84,-451.53 323.34,-453.36 312.21,-455.13"/>
<polygon fill="#63b8ff" stroke="#63b8ff" points="346.26,-453.25 355.58,-448.22 345.16,-446.34 346.26,-453.25"/>
</a>
</g>
</g>
<!-- Node11&#45;&gt;Node7 -->
<g id="edge18_Node000011_Node000007" class="edge">
<title>Node11&#45;&gt;Node7</title>
<g id="a_edge18_Node000011_Node000007"><a xlink:title=" ">
<path fill="none" stroke="#63b8ff" d="M196.29,-488.2C165.68,-504.16 124.53,-525.62 96.49,-540.24"/>
<polygon fill="#63b8ff" stroke="#63b8ff" points="197.65,-491.44 204.9,-483.72 194.41,-485.24 197.65,-491.44"/>
</a>
</g>
</g>
<!-- Node11&#45;&gt;Node9 -->
<g id="edge19_Node000011_Node000009" class="edge">
<title>Node11&#45;&gt;Node9</title>
<g id="a_edge19_Node000011_Node000009"><a xlink:title=" ">
<path fill="none" stroke="#63b8ff" d="M183.27,-445.87C176.62,-442.96 169.98,-439.88 163.75,-436.72 137.31,-423.3 108.63,-405.18 89.01,-392.18"/>
<polygon fill="#63b8ff" stroke="#63b8ff" points="181.71,-449.01 192.28,-449.7 184.45,-442.57 181.71,-449.01"/>
</a>
</g>
</g>
<!-- Node13 -->
<g id="Node000013" class="node">
<title>Node13</title>
<g id="a_Node000013"><a xlink:href="class_properties_panel.html#a8fd53ec3c9f711c3354483e8bb4d0b47" target="_top" xlink:title=" ">
<polygon fill="white" stroke="#666666" points="313.25,-344.72 163.75,-344.72 163.75,-312.72 313.25,-312.72 313.25,-344.72"/>
<text xml:space="preserve" text-anchor="start" x="171.75" y="-331.22" font-family="Helvetica,sans-Serif" font-size="10.00">PropertiesPanel::createCombo</text>
<text xml:space="preserve" text-anchor="middle" x="238.5" y="-319.22" font-family="Helvetica,sans-Serif" font-size="10.00">BoxPropertyItem</text>
</a>
</g>
</g>
<!-- Node12&#45;&gt;Node13 -->
<g id="edge21_Node000012_Node000013" class="edge">
<title>Node12&#45;&gt;Node13</title>
<g id="a_edge21_Node000012_Node000013"><a xlink:title=" ">
<path fill="none" stroke="#63b8ff" d="M368.24,-279.2C340.85,-289.74 307.92,-302.4 282.22,-312.29"/>
<polygon fill="#63b8ff" stroke="#63b8ff" points="369.34,-282.53 377.42,-275.67 366.83,-276 369.34,-282.53"/>
</a>
</g>
</g>
<!-- Node14 -->
<g id="Node000014" class="node">
<title>Node14</title>
<g id="a_Node000014"><a xlink:href="class_properties_panel.html#a32c2dab00c58ffdcb6a1e3cd829d03c8" target="_top" xlink:title=" ">
<polygon fill="white" stroke="#666666" points="306.88,-199.72 170.12,-199.72 170.12,-167.72 306.88,-167.72 306.88,-199.72"/>
<text xml:space="preserve" text-anchor="start" x="178.12" y="-186.22" font-family="Helvetica,sans-Serif" font-size="10.00">PropertiesPanel::createIcon</text>
<text xml:space="preserve" text-anchor="middle" x="238.5" y="-174.22" font-family="Helvetica,sans-Serif" font-size="10.00">ComboBoxPropertyItem</text>
</a>
</g>
</g>
<!-- Node12&#45;&gt;Node14 -->
<g id="edge24_Node000012_Node000014" class="edge">
<title>Node12&#45;&gt;Node14</title>
<g id="a_edge24_Node000012_Node000014"><a xlink:title=" ">
<path fill="none" stroke="#63b8ff" d="M371.23,-238C342.26,-226.06 306.35,-211.27 279.35,-200.14"/>
<polygon fill="#63b8ff" stroke="#63b8ff" points="369.58,-241.11 380.16,-241.68 372.25,-234.64 369.58,-241.11"/>
</a>
</g>
</g>
<!-- Node13&#45;&gt;Node7 -->
<g id="edge22_Node000013_Node000007" class="edge">
<title>Node13&#45;&gt;Node7</title>
<g id="a_edge22_Node000013_Node000007"><a xlink:title=" ">
<path fill="none" stroke="#63b8ff" d="M166.65,-351.32C165.66,-352.09 164.69,-352.89 163.75,-353.72 133.23,-380.6 87.23,-497.27 70.89,-540.52"/>
<polygon fill="#63b8ff" stroke="#63b8ff" points="168.48,-354.3 174.9,-345.88 164.63,-348.46 168.48,-354.3"/>
</a>
</g>
</g>
<!-- Node13&#45;&gt;Node9 -->
<g id="edge23_Node000013_Node000009" class="edge">
<title>Node13&#45;&gt;Node9</title>
<g id="a_edge23_Node000013_Node000009"><a xlink:title=" ">
<path fill="none" stroke="#63b8ff" d="M166.31,-348.1C152.66,-351.82 138.49,-355.68 125.22,-359.29"/>
<polygon fill="#63b8ff" stroke="#63b8ff" points="166.93,-351.56 175.66,-345.55 165.1,-344.8 166.93,-351.56"/>
</a>
</g>
</g>
<!-- Node15 -->
<g id="Node000015" class="node">
<title>Node15</title>
<g id="a_Node000015"><a xlink:href="class_properties_panel.html#adbc7f8deb3a687706dc44ebbd7e39d9d" target="_top" xlink:title=" ">
<polygon fill="white" stroke="#666666" points="127.75,-120.72 0,-120.72 0,-88.72 127.75,-88.72 127.75,-120.72"/>
<text xml:space="preserve" text-anchor="start" x="8" y="-107.22" font-family="Helvetica,sans-Serif" font-size="10.00">PropertiesPanel::populate</text>
<text xml:space="preserve" text-anchor="middle" x="63.88" y="-95.22" font-family="Helvetica,sans-Serif" font-size="10.00">ForConnection</text>
</a>
</g>
</g>
<!-- Node14&#45;&gt;Node15 -->
<g id="edge25_Node000014_Node000015" class="edge">
<title>Node14&#45;&gt;Node15</title>
<g id="a_edge25_Node000014_Node000015"><a xlink:title=" ">
<path fill="none" stroke="#63b8ff" d="M191.26,-162.56C162.91,-149.58 127.14,-133.21 100.89,-121.2"/>
<polygon fill="#63b8ff" stroke="#63b8ff" points="189.81,-165.74 200.36,-166.72 192.72,-159.38 189.81,-165.74"/>
</a>
</g>
</g>
<!-- Node15&#45;&gt;Node3 -->
<g id="edge26_Node000015_Node000003" class="edge">
<title>Node15&#45;&gt;Node3</title>
<g id="a_edge26_Node000015_Node000003"><a xlink:title=" ">
<path fill="none" stroke="#63b8ff" d="M139.2,-100.43C211.32,-96.64 323.88,-91.72 421.5,-91.72 619.5,-91.72 619.5,-91.72 619.5,-91.72 743.22,-91.72 802.47,-36.6 896.75,-116.72 954.65,-165.92 985.27,-422.86 991.19,-477.5"/>
<polygon fill="#63b8ff" stroke="#63b8ff" points="139.29,-96.92 129.49,-100.95 139.66,-103.91 139.29,-96.92"/>
</a>
</g>
</g>
<!-- Node17 -->
<g id="Node000017" class="node">
<title>Node17</title>
<g id="a_Node000017"><a xlink:href="class_properties_panel.html#a7bc224323f9c626842fdb6a89205c9bc" target="_top" xlink:title=" ">
<polygon fill="white" stroke="#666666" points="490.5,-211.72 354.5,-211.72 354.5,-179.72 490.5,-179.72 490.5,-211.72"/>
<text xml:space="preserve" text-anchor="start" x="362.5" y="-198.22" font-family="Helvetica,sans-Serif" font-size="10.00">PropertiesPanel::createLine</text>
<text xml:space="preserve" text-anchor="middle" x="422.5" y="-186.22" font-family="Helvetica,sans-Serif" font-size="10.00">EditPropertyItem</text>
</a>
</g>
</g>
<!-- Node16&#45;&gt;Node17 -->
<g id="edge28_Node000016_Node000017" class="edge">
<title>Node16&#45;&gt;Node17</title>
<g id="a_edge28_Node000016_Node000017"><a xlink:title=" ">
<path fill="none" stroke="#63b8ff" d="M553.43,-155.53C528.54,-163.23 500.38,-171.94 476.65,-179.28"/>
<polygon fill="#63b8ff" stroke="#63b8ff" points="554.27,-158.94 562.79,-152.64 552.2,-152.25 554.27,-158.94"/>
</a>
</g>
</g>
<!-- Node17&#45;&gt;Node9 -->
<g id="edge29_Node000017_Node000009" class="edge">
<title>Node17&#45;&gt;Node9</title>
<g id="a_edge29_Node000017_Node000009"><a xlink:title=" ">
<path fill="none" stroke="#63b8ff" d="M362.73,-215.89C309.28,-235.26 229,-266.95 163.75,-303.72 134.52,-320.19 103.71,-343.75 84.4,-359.38"/>
<polygon fill="#63b8ff" stroke="#63b8ff" points="363.73,-219.25 371.96,-212.57 361.37,-212.66 363.73,-219.25"/>
</a>
</g>
</g>
<!-- Node18&#45;&gt;Node3 -->
<g id="edge32_Node000018_Node000003" class="edge">
<title>Node18&#45;&gt;Node3</title>
<g id="a_edge32_Node000018_Node000003"><a xlink:title=" ">
<path fill="none" stroke="#63b8ff" d="M459.78,-399.98C472,-405.88 485.19,-412.95 495.75,-421.72 516.81,-439.22 507.73,-458.58 531.75,-471.72 599.1,-508.55 823.91,-504.23 932.52,-495.96"/>
<polygon fill="#63b8ff" stroke="#63b8ff" points="461.3,-396.82 450.76,-395.73 458.32,-403.16 461.3,-396.82"/>
</a>
</g>
</g>
<!-- Node19 -->
<g id="Node000019" class="node">
<title>Node19</title>
<g id="a_Node000019"><a xlink:href="class_properties_panel.html#a9866823e02faefceaae94fc0b0537707" target="_top" xlink:title=" ">
<polygon fill="white" stroke="#666666" points="306.12,-394.72 170.88,-394.72 170.88,-362.72 306.12,-362.72 306.12,-394.72"/>
<text xml:space="preserve" text-anchor="start" x="178.88" y="-381.22" font-family="Helvetica,sans-Serif" font-size="10.00">PropertiesPanel::Properties</text>
<text xml:space="preserve" text-anchor="middle" x="238.5" y="-369.22" font-family="Helvetica,sans-Serif" font-size="10.00">Panel</text>
</a>
</g>
</g>
<!-- Node18&#45;&gt;Node19 -->
<g id="edge31_Node000018_Node000019" class="edge">
<title>Node18&#45;&gt;Node19</title>
<g id="a_edge31_Node000018_Node000019"><a xlink:title=" ">
<path fill="none" stroke="#63b8ff" d="M341.77,-378.72C329.99,-378.72 317.96,-378.72 306.48,-378.72"/>
<polygon fill="#63b8ff" stroke="#63b8ff" points="341.44,-382.22 351.44,-378.72 341.44,-375.22 341.44,-382.22"/>
</a>
</g>
</g>
<!-- Node20&#45;&gt;Node5 -->
<g id="edge34_Node000020_Node000005" class="edge">
<title>Node20&#45;&gt;Node5</title>
<g id="a_edge34_Node000020_Node000005"><a xlink:title=" ">
<path fill="none" stroke="#63b8ff" d="M738.27,-618.77C680.84,-611.58 601.5,-601.61 531.75,-592.72 520.19,-591.24 507.94,-589.67 495.99,-588.13"/>
<polygon fill="#63b8ff" stroke="#63b8ff" points="737.59,-622.21 747.95,-619.98 738.46,-615.26 737.59,-622.21"/>
</a>
</g>
</g>
<!-- Node21&#45;&gt;Node10 -->
<g id="edge44_Node000021_Node000010" class="edge">
<title>Node21&#45;&gt;Node10</title>
<g id="a_edge44_Node000021_Node000010"><a xlink:title=" ">
<path fill="none" stroke="#63b8ff" d="M760.16,-353.73C742.62,-359.52 723.23,-365.64 705.25,-370.72 684.44,-376.59 564.41,-404.82 487.88,-422.71"/>
<polygon fill="#63b8ff" stroke="#63b8ff" points="761,-357.14 769.38,-350.65 758.79,-350.5 761,-357.14"/>
</a>
</g>
</g>
<!-- Node21&#45;&gt;Node12 -->
<g id="edge45_Node000021_Node000012" class="edge">
<title>Node21&#45;&gt;Node12</title>
<g id="a_edge45_Node000021_Node000012"><a xlink:title=" ">
<path fill="none" stroke="#63b8ff" d="M775.48,-312.48C754.78,-303.06 729.24,-292.77 705.25,-286.72 632.8,-268.45 547.06,-262 489.35,-259.78"/>
<polygon fill="#63b8ff" stroke="#63b8ff" points="773.91,-315.61 784.45,-316.66 776.86,-309.26 773.91,-315.61"/>
</a>
</g>
</g>
<!-- Node21&#45;&gt;Node16 -->
<g id="edge46_Node000021_Node000016" class="edge">
<title>Node21&#45;&gt;Node16</title>
<g id="a_edge46_Node000021_Node000016"><a xlink:title=" ">
<path fill="none" stroke="#63b8ff" d="M799.49,-308C778.41,-279.6 742.08,-233.32 705.25,-198.72 686.54,-181.13 662.87,-164.07 645.14,-152.15"/>
<polygon fill="#63b8ff" stroke="#63b8ff" points="796.65,-310.05 805.4,-316.03 802.29,-305.9 796.65,-310.05"/>
</a>
</g>
</g>
<!-- Node21&#45;&gt;Node18 -->
<g id="edge47_Node000021_Node000018" class="edge">
<title>Node21&#45;&gt;Node18</title>
<g id="a_edge47_Node000021_Node000018"><a xlink:title=" ">
<path fill="none" stroke="#63b8ff" d="M744.64,-342.09C672.24,-350.34 562.43,-362.87 491.83,-370.92"/>
<polygon fill="#63b8ff" stroke="#63b8ff" points="744.88,-345.58 754.42,-340.97 744.09,-338.63 744.88,-345.58"/>
</a>
</g>
</g>
<!-- Node22 -->
<g id="Node000022" class="node">
<title>Node22</title>
<g id="a_Node000022"><a xlink:href="class_properties_panel.html#a74d22cd1ca119cda9cc4ca00b853e88d" target="_top" xlink:title=" ">
<polygon fill="white" stroke="#666666" points="696.62,-327.72 540.38,-327.72 540.38,-295.72 696.62,-295.72 696.62,-327.72"/>
<text xml:space="preserve" text-anchor="start" x="548.38" y="-314.22" font-family="Helvetica,sans-Serif" font-size="10.00">PropertiesPanel::handleAttribute</text>
<text xml:space="preserve" text-anchor="middle" x="618.5" y="-302.22" font-family="Helvetica,sans-Serif" font-size="10.00">PropertyChange</text>
</a>
</g>
</g>
<!-- Node21&#45;&gt;Node22 -->
<g id="edge36_Node000021_Node000022" class="edge">
<title>Node21&#45;&gt;Node22</title>
<g id="a_edge36_Node000021_Node000022"><a xlink:title=" ">
<path fill="none" stroke="#63b8ff" d="M744.87,-325.61C729.31,-323.89 712.83,-322.06 697.11,-320.32"/>
<polygon fill="#63b8ff" stroke="#63b8ff" points="744.18,-329.06 754.51,-326.68 744.95,-322.1 744.18,-329.06"/>
</a>
</g>
</g>
<!-- Node23 -->
<g id="Node000023" class="node">
<title>Node23</title>
<g id="a_Node000023"><a xlink:href="class_properties_panel.html#aa82a2245c62f66554f277c64e643252c" target="_top" xlink:title=" ">
<polygon fill="white" stroke="#666666" points="705.25,-239.72 531.75,-239.72 531.75,-207.72 705.25,-207.72 705.25,-239.72"/>
<text xml:space="preserve" text-anchor="start" x="539.75" y="-226.22" font-family="Helvetica,sans-Serif" font-size="10.00">PropertiesPanel::handleRelationship</text>
<text xml:space="preserve" text-anchor="middle" x="618.5" y="-214.22" font-family="Helvetica,sans-Serif" font-size="10.00">EndCardinalityChange</text>
</a>
</g>
</g>
<!-- Node21&#45;&gt;Node23 -->
<g id="edge40_Node000021_Node000023" class="edge">
<title>Node21&#45;&gt;Node23</title>
<g id="a_edge40_Node000021_Node000023"><a xlink:title=" ">
<path fill="none" stroke="#63b8ff" d="M789.94,-310.42C767.96,-293.03 736.04,-269.62 705.25,-253.72 695.44,-248.65 684.59,-244.11 673.99,-240.19"/>
<polygon fill="#63b8ff" stroke="#63b8ff" points="787.56,-312.99 797.55,-316.52 791.94,-307.53 787.56,-312.99"/>
</a>
</g>
</g>
<!-- Node24 -->
<g id="Node000024" class="node">
<title>Node24</title>
<g id="a_Node000024"><a xlink:href="class_properties_panel.html#ac2741a5b2cb859b07534b8f7c786359b" target="_top" xlink:title=" ">
<polygon fill="white" stroke="#666666" points="705.25,-453.72 531.75,-453.72 531.75,-421.72 705.25,-421.72 705.25,-453.72"/>
<text xml:space="preserve" text-anchor="start" x="539.75" y="-440.22" font-family="Helvetica,sans-Serif" font-size="10.00">PropertiesPanel::handleRelationship</text>
<text xml:space="preserve" text-anchor="middle" x="618.5" y="-428.22" font-family="Helvetica,sans-Serif" font-size="10.00">EndParticipationChange</text>
</a>
</g>
</g>
<!-- Node21&#45;&gt;Node24 -->
<g id="edge42_Node000021_Node000024" class="edge">
<title>Node21&#45;&gt;Node24</title>
<g id="a_edge42_Node000021_Node000024"><a xlink:title=" ">
<path fill="none" stroke="#63b8ff" d="M787.34,-356.8C765.33,-372.62 734.51,-393.27 705.25,-407.72 695.07,-412.75 683.83,-417.32 672.94,-421.29"/>
<polygon fill="#63b8ff" stroke="#63b8ff" points="789.25,-359.74 795.27,-351.03 785.13,-354.08 789.25,-359.74"/>
</a>
</g>
</g>
<!-- Node22&#45;&gt;Node10 -->
<g id="edge37_Node000022_Node000010" class="edge">
<title>Node22&#45;&gt;Node10</title>
<g id="a_edge37_Node000022_Node000010"><a xlink:title=" ">
<path fill="none" stroke="#63b8ff" d="M588.36,-334.85C558.6,-358.26 514.25,-392.54 495.75,-403.72 485.19,-410.1 473.24,-416.15 462.14,-421.33"/>
<polygon fill="#63b8ff" stroke="#63b8ff" points="590.2,-337.85 595.89,-328.91 585.87,-332.35 590.2,-337.85"/>
</a>
</g>
</g>
<!-- Node22&#45;&gt;Node12 -->
<g id="edge38_Node000022_Node000012" class="edge">
<title>Node22&#45;&gt;Node12</title>
<g id="a_edge38_Node000022_Node000012"><a xlink:title=" ">
<path fill="none" stroke="#63b8ff" d="M546.3,-292.27C525.77,-286.66 503.58,-280.6 483.78,-275.19"/>
<polygon fill="#63b8ff" stroke="#63b8ff" points="545.15,-295.58 555.72,-294.84 547,-288.83 545.15,-295.58"/>
</a>
</g>
</g>
<!-- Node22&#45;&gt;Node18 -->
<g id="edge39_Node000022_Node000018" class="edge">
<title>Node22&#45;&gt;Node18</title>
<g id="a_edge39_Node000022_Node000018"><a xlink:title=" ">
<path fill="none" stroke="#63b8ff" d="M559.52,-331.74C531.31,-341.48 497.83,-353.05 471.14,-362.26"/>
<polygon fill="#63b8ff" stroke="#63b8ff" points="560.3,-335.17 568.61,-328.6 558.02,-328.56 560.3,-335.17"/>
</a>
</g>
</g>
<!-- Node23&#45;&gt;Node12 -->
<g id="edge41_Node000023_Node000012" class="edge">
<title>Node23&#45;&gt;Node12</title>
<g id="a_edge41_Node000023_Node000012"><a xlink:title=" ">
<path fill="none" stroke="#63b8ff" d="M520.03,-241.3C509.64,-243.18 499.26,-245.05 489.36,-246.84"/>
<polygon fill="#63b8ff" stroke="#63b8ff" points="520.57,-244.76 529.79,-239.54 519.33,-237.87 520.57,-244.76"/>
</a>
</g>
</g>
<!-- Node24&#45;&gt;Node10 -->
<g id="edge43_Node000024_Node000010" class="edge">
<title>Node24&#45;&gt;Node10</title>
<g id="a_edge43_Node000024_Node000010"><a xlink:title=" ">
<path fill="none" stroke="#63b8ff" d="M519.97,-437.72C509.09,-437.72 498.22,-437.72 487.91,-437.72"/>
<polygon fill="#63b8ff" stroke="#63b8ff" points="519.77,-441.22 529.77,-437.72 519.77,-434.22 519.77,-441.22"/>
</a>
</g>
</g>
</g>
</svg>

<g id="navigator" transform="translate(0 0)" fill="#404254">
  <rect fill="#f2f5e9" fill-opacity="0.5" stroke="#606060" stroke-width=".5" x="0" y="0" width="60" height="60"/>
  <use id="zoomplus" xlink:href="#zoomPlus" x="17" y="9" onmousedown="handleZoom(evt,'in')"/>
  <use id="zoomminus" xlink:href="#zoomMin" x="42" y="9" onmousedown="handleZoom(evt,'out')"/>
  <use id="reset" xlink:href="#resetDef" x="30" y="36" onmousedown="handleReset()"/>
   <use id="arrowup" xlink:href="#arrowUp" x="0" y="0" onmousedown="handlePan(0,-1)"/>
  <use id="arrowright" xlink:href="#arrowRight" x="0" y="0" onmousedown="handlePan(1,0)"/>
  <use id="arrowdown" xlink:href="#arrowDown" x="0" y="0" onmousedown="handlePan(0,1)"/>
  <use id="arrowleft" xlink:href="#arrowLeft" x="0" y="0" onmousedown="handlePan(-1,0)"/>
</g>
<svg viewBox="0 0 15 15" width="100%" height="30px" preserveAspectRatio="xMaxYMin meet">
 <g id="arrow_out" transform="scale(0.3 0.3)">
  <a xlink:href="class_basic_element_aa5ae2ba261410dcf01c30ef24adf4ab0_icgraph_org.svg" target="_base">
   <rect id="button" ry="5" rx="5" y="6" x="6" height="38" width="38"
        fill="#f2f5e9" fill-opacity="0.5" stroke="#606060" stroke-width="1.0"/>
   <path id="arrow"
     d="M 11.500037,31.436501 C 11.940474,20.09759 22.043105,11.32322 32.158766,21.979434 L 37.068811,17.246167 C 37.068811,17.246167 37.088388,32 37.088388,32 L 22.160133,31.978069 C 22.160133,31.978069 26.997745,27.140456 26.997745,27.140456 C 18.528582,18.264221 13.291696,25.230495 11.500037,31.436501 z"
     style="fill:#404040;"/>
  </a>
 </g>
</svg>

<style type='text/css'>
<![CDATA[
[data-mouse-over-selected='false'] { opacity: 0.7; }
[data-mouse-over-selected='true']  { opacity: 1.0; }
]]>
</style>
<script type="application/ecmascript"><![CDATA[
document.addEventListener('DOMContentLoaded', (event) => {
  highlightEdges();
  highlightAdjacentNodes();
});
]]></script>
</svg>
