<?xml version="1.0" encoding="UTF-8" standalone="no"?>
<!DOCTYPE svg PUBLIC "-//W3C//DTD SVG 1.1//EN"
 "http://www.w3.org/Graphics/SVG/1.1/DTD/svg11.dtd">
<!-- Generated by graphviz version 14.1.1 (20251213.1925)
 -->
<!-- Title: DiagramScene::addRelationshipConnection Pages: 1 -->
<svg width="564pt" height="66pt"
 viewBox="0.00 0.00 564.00 66.00" xmlns="http://www.w3.org/2000/svg" xmlns:xlink="http://www.w3.org/1999/xlink">
<g id="graph0" class="graph" transform="scale(1 1) rotate(0) translate(4 62)">
<title>DiagramScene::addRelationshipConnection</title>
<!-- Node1 -->
<g id="Node000001" class="node">
<title>Node1</title>
<g id="a_Node000001"><a xlink:title=" ">
<polygon fill="#999999" stroke="#666666" points="555.75,-45 399.5,-45 399.5,-13 555.75,-13 555.75,-45"/>
<text xml:space="preserve" text-anchor="start" x="407.5" y="-31.5" font-family="Helvetica,sans-Serif" font-size="10.00">DiagramScene::addRelationship</text>
<text xml:space="preserve" text-anchor="middle" x="477.62" y="-19.5" font-family="Helvetica,sans-Serif" font-size="10.00">Connection</text>
</a>
</g>
</g>
<!-- Node2 -->
<g id="Node000002" class="node">
<title>Node2</title>
<g id="a_Node000002"><a xlink:href="class_diagram_scene.html#a8a3265678249b08f424e17fbfa8d0de5" target="_top" xlink:title=" ">
<polygon fill="white" stroke="#666666" points="356,-58 196.75,-58 196.75,-38 356,-38 356,-58"/>
<text xml:space="preserve" text-anchor="middle" x="276.38" y="-44.5" font-family="Helvetica,sans-Serif" font-size="10.00">DiagramScene::finishConnection</text>
</a>
</g>
</g>
<!-- Node1&#45;&gt;Node2 -->
<g id="edge1_Node000001_Node000002" class="edge">
<title>Node1&#45;&gt;Node2</title>
<g id="a_edge1_Node000001_Node000002"><a xlink:title=" ">
<path fill="none" stroke="#63b8ff" d="M387.77,-37.47C377.32,-38.47 366.71,-39.48 356.41,-40.46"/>
<polygon fill="#63b8ff" stroke="#63b8ff" points="387.89,-40.98 397.51,-36.54 387.23,-34.01 387.89,-40.98"/>
</a>
</g>
</g>
<!-- Node3 -->
<g id="Node000003" class="node">
<title>Node3</title>
<g id="a_Node000003"><a xlink:href="class_diagram_scene.html#a61e7061e5add947d09ad87feaf2b8dc1" target="_top" xlink:title=" ">
<polygon fill="white" stroke="#666666" points="363.5,-20 189.25,-20 189.25,0 363.5,0 363.5,-20"/>
<text xml:space="preserve" text-anchor="middle" x="276.38" y="-6.5" font-family="Helvetica,sans-Serif" font-size="10.00">DiagramScene::pasteFromClipboard</text>
</a>
</g>
</g>
<!-- Node1&#45;&gt;Node3 -->
<g id="edge2_Node000001_Node000003" class="edge">
<title>Node1&#45;&gt;Node3</title>
<g id="a_edge2_Node000001_Node000003"><a xlink:title=" ">
<path fill="none" stroke="#63b8ff" d="M387.78,-20.53C379.77,-19.76 371.67,-18.99 363.69,-18.23"/>
<polygon fill="#63b8ff" stroke="#63b8ff" points="387.23,-23.99 397.51,-21.46 387.89,-17.02 387.23,-23.99"/>
</a>
</g>
</g>
<!-- Node4 -->
<g id="Node000004" class="node">
<title>Node4</title>
<g id="a_Node000004"><a xlink:href="class_diagram_scene.html#a074e1181353b257a18ea2d243b459a47" target="_top" xlink:title=" ">
<polygon fill="white" stroke="#666666" points="153.25,-20 0,-20 0,0 153.25,0 153.25,-20"/>
<text xml:space="preserve" text-anchor="middle" x="76.62" y="-6.5" font-family="Helvetica,sans-Serif" font-size="10.00">DiagramScene::keyPressEvent</text>
</a>
</g>
</g>
<!-- Node3&#45;&gt;Node4 -->
<g id="edge3_Node000003_Node000004" class="edge">
<title>Node3&#45;&gt;Node4</title>
<g id="a_edge3_Node000003_Node000004"><a xlink:title=" ">
<path fill="none" stroke="#63b8ff" d="M177.59,-10C169.55,-10 161.5,-10 153.66,-10"/>
<polygon fill="#63b8ff" stroke="#63b8ff" points="177.41,-13.5 187.41,-10 177.41,-6.5 177.41,-13.5"/>
</a>
</g>
</g>
</g>
</svg>
