<?xml version="1.0" encoding="UTF-8" standalone="no"?>
<!DOCTYPE svg PUBLIC "-//W3C//DTD SVG 1.1//EN"
 "http://www.w3.org/Graphics/SVG/1.1/DTD/svg11.dtd">
<!-- Generated by graphviz version 14.1.1 (20251213.1925)
 -->
<!-- Title: DiagramSerializer::connectionToJsonObject Pages: 1 -->
<svg width="609pt" height="78pt"
 viewBox="0.00 0.00 609.00 78.00" xmlns="http://www.w3.org/2000/svg" xmlns:xlink="http://www.w3.org/1999/xlink">
<g id="graph0" class="graph" transform="scale(1 1) rotate(0) translate(4 74)">
<title>DiagramSerializer::connectionToJsonObject</title>
<!-- Node1 -->
<g id="Node000001" class="node">
<title>Node1</title>
<g id="a_Node000001"><a xlink:title=" ">
<polygon fill="#999999" stroke="#666666" points="601,-54 477.75,-54 477.75,-22 601,-22 601,-54"/>
<text xml:space="preserve" text-anchor="start" x="485.75" y="-40.5" font-family="Helvetica,sans-Serif" font-size="10.00">DiagramSerializer::</text>
<text xml:space="preserve" text-anchor="middle" x="539.38" y="-28.5" font-family="Helvetica,sans-Serif" font-size="10.00">connectionToJsonObject</text>
</a>
</g>
</g>
<!-- Node2 -->
<g id="Node000002" class="node">
<title>Node2</title>
<g id="a_Node000002"><a xlink:href="class_diagram_serializer.html#a957a2a2f28fe9d1d257ff01154872608" target="_top" xlink:title=" ">
<polygon fill="white" stroke="#666666" points="441.75,-54 331.25,-54 331.25,-22 441.75,-22 441.75,-54"/>
<text xml:space="preserve" text-anchor="start" x="339.25" y="-40.5" font-family="Helvetica,sans-Serif" font-size="10.00">DiagramSerializer::</text>
<text xml:space="preserve" text-anchor="middle" x="386.5" y="-28.5" font-family="Helvetica,sans-Serif" font-size="10.00">diagramToJsonObject</text>
</a>
</g>
</g>
<!-- Node1&#45;&gt;Node2 -->
<g id="edge1_Node000001_Node000002" class="edge">
<title>Node1&#45;&gt;Node2</title>
<g id="a_edge1_Node000001_Node000002"><a xlink:title=" ">
<path fill="none" stroke="#63b8ff" d="M466.02,-38C457.88,-38 449.7,-38 441.85,-38"/>
<polygon fill="#63b8ff" stroke="#63b8ff" points="465.93,-41.5 475.93,-38 465.93,-34.5 465.93,-41.5"/>
</a>
</g>
</g>
<!-- Node3 -->
<g id="Node000003" class="node">
<title>Node3</title>
<g id="a_Node000003"><a xlink:href="class_diagram_serializer.html#af41f90138bda3c05cb4a37c709682770" target="_top" xlink:title=" ">
<polygon fill="white" stroke="#666666" points="295.25,-54 195.25,-54 195.25,-22 295.25,-22 295.25,-54"/>
<text xml:space="preserve" text-anchor="start" x="203.25" y="-40.5" font-family="Helvetica,sans-Serif" font-size="10.00">DiagramSerializer::</text>
<text xml:space="preserve" text-anchor="middle" x="245.25" y="-28.5" font-family="Helvetica,sans-Serif" font-size="10.00">saveDiagramToFile</text>
</a>
</g>
</g>
<!-- Node2&#45;&gt;Node3 -->
<g id="edge2_Node000002_Node000003" class="edge">
<title>Node2&#45;&gt;Node3</title>
<g id="a_edge2_Node000002_Node000003"><a xlink:title=" ">
<path fill="none" stroke="#63b8ff" d="M319.6,-38C311.57,-38 303.48,-38 295.74,-38"/>
<polygon fill="#63b8ff" stroke="#63b8ff" points="319.35,-41.5 329.35,-38 319.35,-34.5 319.35,-41.5"/>
</a>
</g>
</g>
<!-- Node4 -->
<g id="Node000004" class="node">
<title>Node4</title>
<g id="a_Node000004"><a xlink:href="class_auto_save_manager.html#a23c137dda32115b244ed8422369cc2e0" target="_top" xlink:title=" ">
<polygon fill="white" stroke="#666666" points="159.25,-70 0,-70 0,-50 159.25,-50 159.25,-70"/>
<text xml:space="preserve" text-anchor="middle" x="79.62" y="-56.5" font-family="Helvetica,sans-Serif" font-size="10.00">AutoSaveManager::executeSave</text>
</a>
</g>
</g>
<!-- Node3&#45;&gt;Node4 -->
<g id="edge3_Node000003_Node000004" class="edge">
<title>Node3&#45;&gt;Node4</title>
<g id="a_edge3_Node000003_Node000004"><a xlink:title=" ">
<path fill="none" stroke="#63b8ff" d="M183.75,-46.13C175.5,-47.24 166.95,-48.39 158.45,-49.54"/>
<polygon fill="#63b8ff" stroke="#63b8ff" points="184.21,-49.6 193.66,-44.8 183.28,-42.67 184.21,-49.6"/>
</a>
</g>
</g>
<!-- Node5 -->
<g id="Node000005" class="node">
<title>Node5</title>
<g id="a_Node000005"><a xlink:href="class_diagram_file_manager.html#a84a364087a0eecd1c416b05615fe1f0b" target="_top" xlink:title=" ">
<polygon fill="white" stroke="#666666" points="132.62,-32 26.62,-32 26.62,0 132.62,0 132.62,-32"/>
<text xml:space="preserve" text-anchor="start" x="34.62" y="-18.5" font-family="Helvetica,sans-Serif" font-size="10.00">DiagramFileManager</text>
<text xml:space="preserve" text-anchor="middle" x="79.62" y="-6.5" font-family="Helvetica,sans-Serif" font-size="10.00">::saveDiagram</text>
</a>
</g>
</g>
<!-- Node3&#45;&gt;Node5 -->
<g id="edge4_Node000003_Node000005" class="edge">
<title>Node3&#45;&gt;Node5</title>
<g id="a_edge4_Node000003_Node000005"><a xlink:title=" ">
<path fill="none" stroke="#63b8ff" d="M183.86,-29.88C167.21,-27.64 149.27,-25.23 133.1,-23.06"/>
<polygon fill="#63b8ff" stroke="#63b8ff" points="183.28,-33.33 193.66,-31.2 184.21,-26.4 183.28,-33.33"/>
</a>
</g>
</g>
</g>
</svg>
