<?xml version="1.0" encoding="UTF-8" standalone="no"?>
<!DOCTYPE svg PUBLIC "-//W3C//DTD SVG 1.1//EN"
 "http://www.w3.org/Graphics/SVG/1.1/DTD/svg11.dtd">
<!-- Generated by graphviz version 14.1.1 (20251213.1925)
 -->
<!-- Title: MainWindow::updateWindowTitle Pages: 1 -->
<!--zoomable 331 -->

<svg id="main" version="1.1" xmlns="http://www.w3.org/2000/svg" xmlns:xlink="http://www.w3.org/1999/xlink" xml:space="preserve" onload="init(evt)">

<style type="text/css"><![CDATA[
.node, .edge {opacity: 0.7;}
.node.selected, .edge.selected {opacity: 1;}
.edge:hover path { stroke: red; }
.edge:hover polygon { stroke: red; fill: red; }
]]></style>

<defs>
  <circle id="rim" cx="0" cy="0" r="7"/>
  <circle id="rim2" cx="0" cy="0" r="3.5"/>
  <g id="zoomPlus">
    <use xlink:href="#rim" fill="#404040"><set attributeName="fill" to="#808080" begin="zoomplus.mouseover" end="zoomplus.mouseout"/></use>
    <path d="M-4,0h8M0,-4v8" fill="none" stroke="white" stroke-width="1.5" pointer-events="none"/>
  </g>
  <g id="zoomMin">
    <use xlink:href="#rim" fill="#404040"><set attributeName="fill" to="#808080" begin="zoomminus.mouseover" end="zoomminus.mouseout"/></use>
    <path d="M-4,0h8" fill="none" stroke="white" stroke-width="1.5" pointer-events="none"/>
  </g>
  <g id="arrowUp" transform="translate(30 24)">
    <use xlink:href="#rim"/>
    <path pointer-events="none" fill="none" stroke="white" stroke-width="1.5" d="M0,-3.0v7 M-2.5,-0.5L0,-3.0L2.5,-0.5"/>
  </g>
  <g id="arrowRight" transform="rotate(90) translate(36 -43)">
    <use xlink:href="#rim"/>
    <path pointer-events="none" fill="none" stroke="white" stroke-width="1.5" d="M0,-3.0v7 M-2.5,-0.5L0,-3.0L2.5,-0.5"/>
  </g>
  <g id="arrowDown" transform="rotate(180) translate(-30 -48)">
    <use xlink:href="#rim"/>
    <path pointer-events="none" fill="none" stroke="white" stroke-width="1.5" d="M0,-3.0v7 M-2.5,-0.5L0,-3.0L2.5,-0.5"/>
  </g>
  <g id="arrowLeft" transform="rotate(270) translate(-36 17)">
    <use xlink:href="#rim"/>
    <path pointer-events="none" fill="none" stroke="white" stroke-width="1.5" d="M0,-3.0v7 M-2.5,-0.5L0,-3.0L2.5,-0.5"/>
  </g>
  <g id="resetDef">
    <use xlink:href="#rim2" fill="#404040"><set attributeName="fill" to="#808080" begin="reset.mouseover" end="reset.mouseout"/></use>
  </g>
</defs>
<script type="application/ecmascript">
var viewWidth = 1413;
var viewHeight = 331;
var sectionId = 'dynsection-45';
</script>
<script type="application/ecmascript" xlink:href="svg.min.js"/>
<svg id="graph" class="graph">
<g id="viewport">
<title>MainWindow::updateWindowTitle</title>
<!-- Node1 -->
<g id="Node000001" class="node">
<title>Node1</title>
<g id="a_Node000001"><a xlink:title=" ">
<polygon fill="#999999" stroke="#666666" points="1405.25,-206 1262.5,-206 1262.5,-174 1405.25,-174 1405.25,-206"/>
<text xml:space="preserve" text-anchor="start" x="1270.5" y="-192.5" font-family="Helvetica,sans-Serif" font-size="10.00">MainWindow::updateWindow</text>
<text xml:space="preserve" text-anchor="middle" x="1333.88" y="-180.5" font-family="Helvetica,sans-Serif" font-size="10.00">Title</text>
</a>
</g>
</g>
<!-- Node2 -->
<g id="Node000002" class="node">
<title>Node2</title>
<g id="a_Node000002"><a xlink:href="class_main_window.html#adfa32feecffce3959c99d145fc8b4854" target="_top" xlink:title=" ">
<polygon fill="white" stroke="#666666" points="464.25,-295 319.25,-295 319.25,-275 464.25,-275 464.25,-295"/>
<text xml:space="preserve" text-anchor="middle" x="391.75" y="-281.5" font-family="Helvetica,sans-Serif" font-size="10.00">MainWindow::connectSignals</text>
</a>
</g>
</g>
<!-- Node1&#45;&gt;Node2 -->
<g id="edge1_Node000001_Node000002" class="edge">
<title>Node1&#45;&gt;Node2</title>
<g id="a_edge1_Node000001_Node000002"><a xlink:title=" ">
<path fill="none" stroke="#63b8ff" d="M1289.18,-211.07C1270.26,-219.51 1247.65,-228.71 1226.5,-235 1106.33,-270.75 1074.25,-285 948.88,-285 948.88,-285 948.88,-285 755,-285 654.22,-285 537.66,-285 464.57,-285"/>
<polygon fill="#63b8ff" stroke="#63b8ff" points="1290.53,-214.3 1298.19,-206.98 1287.64,-207.93 1290.53,-214.3"/>
</a>
</g>
</g>
<!-- Node3 -->
<g id="Node000003" class="node">
<title>Node3</title>
<g id="a_Node000003"><a xlink:href="class_main_window.html#a996c5a2b6f77944776856f08ec30858d" target="_top" xlink:title=" ">
<polygon fill="white" stroke="#666666" points="134.5,-295 0,-295 0,-275 134.5,-275 134.5,-295"/>
<text xml:space="preserve" text-anchor="middle" x="67.25" y="-281.5" font-family="Helvetica,sans-Serif" font-size="10.00">MainWindow::MainWindow</text>
</a>
</g>
</g>
<!-- Node1&#45;&gt;Node3 -->
<g id="edge3_Node000001_Node000003" class="edge">
<title>Node1&#45;&gt;Node3</title>
<g id="a_edge3_Node000001_Node000003"><a xlink:title=" ">
<path fill="none" stroke="#63b8ff" d="M1308.06,-213.93C1287.75,-232.13 1257.42,-256.31 1226.5,-270 1111.63,-320.85 1074.49,-323 948.88,-323 948.88,-323 948.88,-323 390.75,-323 296.32,-323 187.4,-306.73 123.37,-295.48"/>
<polygon fill="#63b8ff" stroke="#63b8ff" points="1310.27,-216.65 1315.28,-207.31 1305.54,-211.49 1310.27,-216.65"/>
</a>
</g>
</g>
<!-- Node4 -->
<g id="Node000004" class="node">
<title>Node4</title>
<g id="a_Node000004"><a xlink:href="class_main_window.html#a69f73b93cc05c89a9ae1be0161105982" target="_top" xlink:title=" ">
<polygon fill="white" stroke="#666666" points="812,-257 700,-257 700,-237 812,-237 812,-257"/>
<text xml:space="preserve" text-anchor="middle" x="756" y="-243.5" font-family="Helvetica,sans-Serif" font-size="10.00">MainWindow::newFile</text>
</a>
</g>
</g>
<!-- Node1&#45;&gt;Node4 -->
<g id="edge4_Node000001_Node000004" class="edge">
<title>Node1&#45;&gt;Node4</title>
<g id="a_edge4_Node000001_Node000004"><a xlink:title=" ">
<path fill="none" stroke="#63b8ff" d="M1250.96,-208.05C1242.72,-209.53 1234.46,-210.88 1226.5,-212 1077.56,-232.86 900.18,-241.82 812.18,-245.2"/>
<polygon fill="#63b8ff" stroke="#63b8ff" points="1251.47,-211.51 1260.66,-206.24 1250.18,-204.63 1251.47,-211.51"/>
</a>
</g>
</g>
<!-- Node8 -->
<g id="Node000008" class="node">
<title>Node8</title>
<g id="a_Node000008"><a xlink:href="class_main_window.html#a618482f2eb3e3a2eb8c5937f6374c79a" target="_top" xlink:title=" ">
<polygon fill="white" stroke="#666666" points="1216.75,-86 1074.75,-86 1074.75,-54 1216.75,-54 1216.75,-86"/>
<text xml:space="preserve" text-anchor="start" x="1082.75" y="-72.5" font-family="Helvetica,sans-Serif" font-size="10.00">MainWindow::onAddElement</text>
<text xml:space="preserve" text-anchor="middle" x="1145.75" y="-60.5" font-family="Helvetica,sans-Serif" font-size="10.00">Clicked</text>
</a>
</g>
</g>
<!-- Node1&#45;&gt;Node8 -->
<g id="edge9_Node000001_Node000008" class="edge">
<title>Node1&#45;&gt;Node8</title>
<g id="a_edge9_Node000001_Node000008"><a xlink:title=" ">
<path fill="none" stroke="#63b8ff" d="M1302.35,-166.75C1281.43,-151.18 1252.81,-130.58 1226.5,-114 1210.98,-104.22 1193.15,-94.27 1178.29,-86.31"/>
<polygon fill="#63b8ff" stroke="#63b8ff" points="1300.07,-169.42 1310.17,-172.61 1304.27,-163.82 1300.07,-169.42"/>
</a>
</g>
</g>
<!-- Node12 -->
<g id="Node000012" class="node">
<title>Node12</title>
<g id="a_Node000012"><a xlink:href="class_main_window.html#a880a071072561df84782f84e0321da4e" target="_top" xlink:title=" ">
<polygon fill="white" stroke="#666666" points="1226.5,-36 1065,-36 1065,-16 1226.5,-16 1226.5,-36"/>
<text xml:space="preserve" text-anchor="middle" x="1145.75" y="-22.5" font-family="Helvetica,sans-Serif" font-size="10.00">MainWindow::onElementDropped</text>
</a>
</g>
</g>
<!-- Node1&#45;&gt;Node12 -->
<g id="edge14_Node000001_Node000012" class="edge">
<title>Node1&#45;&gt;Node12</title>
<g id="a_edge14_Node000001_Node000012"><a xlink:title=" ">
<path fill="none" stroke="#63b8ff" d="M1320.63,-163.29C1304.07,-130.26 1271.38,-74.78 1226.5,-45 1221.28,-41.54 1215.5,-38.7 1209.51,-36.39"/>
<polygon fill="#63b8ff" stroke="#63b8ff" points="1317.44,-164.73 1324.96,-172.2 1323.74,-161.67 1317.44,-164.73"/>
</a>
</g>
</g>
<!-- Node14 -->
<g id="Node000014" class="node">
<title>Node14</title>
<g id="a_Node000014"><a xlink:href="class_main_window.html#a288b768c3c21a9171bdc56fe845ece8b" target="_top" xlink:title=" ">
<polygon fill="white" stroke="#666666" points="813.5,-219 698.5,-219 698.5,-199 813.5,-199 813.5,-219"/>
<text xml:space="preserve" text-anchor="middle" x="756" y="-205.5" font-family="Helvetica,sans-Serif" font-size="10.00">MainWindow::openFile</text>
</a>
</g>
</g>
<!-- Node1&#45;&gt;Node14 -->
<g id="edge17_Node000001_Node000014" class="edge">
<title>Node1&#45;&gt;Node14</title>
<g id="a_edge17_Node000001_Node000014"><a xlink:title=" ">
<path fill="none" stroke="#63b8ff" d="M1250.98,-193.99C1242.71,-194.35 1234.44,-194.7 1226.5,-195 1077.58,-200.72 902.02,-205.41 813.74,-207.62"/>
<polygon fill="#63b8ff" stroke="#63b8ff" points="1250.87,-197.5 1260.7,-193.56 1250.56,-190.51 1250.87,-197.5"/>
</a>
</g>
</g>
<!-- Node15 -->
<g id="Node000015" class="node">
<title>Node15</title>
<g id="a_Node000015"><a xlink:href="class_main_window.html#ace1b7624a64f4d70513b86601e5846f9" target="_top" xlink:title=" ">
<polygon fill="white" stroke="#666666" points="1209.25,-143 1082.25,-143 1082.25,-123 1209.25,-123 1209.25,-143"/>
<text xml:space="preserve" text-anchor="middle" x="1145.75" y="-129.5" font-family="Helvetica,sans-Serif" font-size="10.00">MainWindow::saveAsFile</text>
</a>
</g>
</g>
<!-- Node1&#45;&gt;Node15 -->
<g id="edge19_Node000001_Node000015" class="edge">
<title>Node1&#45;&gt;Node15</title>
<g id="a_edge19_Node000001_Node000015"><a xlink:title=" ">
<path fill="none" stroke="#63b8ff" d="M1269.51,-170.25C1255.36,-165.86 1240.43,-161.26 1226.5,-157 1211.84,-152.52 1195.65,-147.64 1181.71,-143.45"/>
<polygon fill="#63b8ff" stroke="#63b8ff" points="1268.11,-173.48 1278.7,-173.1 1270.19,-166.79 1268.11,-173.48"/>
</a>
</g>
</g>
<!-- Node16 -->
<g id="Node000016" class="node">
<title>Node16</title>
<g id="a_Node000016"><a xlink:href="class_main_window.html#a464aaa4d378e7b2d814756a73d6e1ed6" target="_top" xlink:title=" ">
<polygon fill="white" stroke="#666666" points="1005.38,-181 890.38,-181 890.38,-161 1005.38,-161 1005.38,-181"/>
<text xml:space="preserve" text-anchor="middle" x="947.88" y="-167.5" font-family="Helvetica,sans-Serif" font-size="10.00">MainWindow::saveFile</text>
</a>
</g>
</g>
<!-- Node1&#45;&gt;Node16 -->
<g id="edge26_Node000001_Node000016" class="edge">
<title>Node1&#45;&gt;Node16</title>
<g id="a_edge26_Node000001_Node000016"><a xlink:title=" ">
<path fill="none" stroke="#63b8ff" d="M1251.35,-185.97C1177.53,-182.31 1070.7,-177.03 1005.74,-173.81"/>
<polygon fill="#63b8ff" stroke="#63b8ff" points="1250.77,-189.44 1260.93,-186.44 1251.12,-182.45 1250.77,-189.44"/>
</a>
</g>
</g>
<!-- Node2&#45;&gt;Node3 -->
<g id="edge2_Node000002_Node000003" class="edge">
<title>Node2&#45;&gt;Node3</title>
<g id="a_edge2_Node000002_Node000003"><a xlink:title=" ">
<path fill="none" stroke="#63b8ff" d="M307.55,-285C253.83,-285 184.86,-285 134.78,-285"/>
<polygon fill="#63b8ff" stroke="#63b8ff" points="307.26,-288.5 317.26,-285 307.26,-281.5 307.26,-288.5"/>
</a>
</g>
</g>
<!-- Node5 -->
<g id="Node000005" class="node">
<title>Node5</title>
<g id="a_Node000005"><a xlink:href="class_main_window.html#aaf455232cccaa422fc4c371fa99bff84" target="_top" xlink:title=" ">
<polygon fill="white" stroke="#666666" points="645.25,-200 500.25,-200 500.25,-180 645.25,-180 645.25,-200"/>
<text xml:space="preserve" text-anchor="middle" x="572.75" y="-186.5" font-family="Helvetica,sans-Serif" font-size="10.00">MainWindow::createFileMenu</text>
</a>
</g>
</g>
<!-- Node4&#45;&gt;Node5 -->
<g id="edge5_Node000004_Node000005" class="edge">
<title>Node4&#45;&gt;Node5</title>
<g id="a_edge5_Node000004_Node000005"><a xlink:title=" ">
<path fill="none" stroke="#63b8ff" d="M700.86,-233.63C694.23,-231.83 687.57,-229.93 681.25,-228 653.61,-219.57 622.53,-208.4 600.92,-200.35"/>
<polygon fill="#63b8ff" stroke="#63b8ff" points="699.9,-237 710.46,-236.19 701.7,-230.23 699.9,-237"/>
</a>
</g>
</g>
<!-- Node6 -->
<g id="Node000006" class="node">
<title>Node6</title>
<g id="a_Node000006"><a xlink:href="class_main_window.html#a2305527bb5d827ae07967ea1c86ee6fb" target="_top" xlink:title=" ">
<polygon fill="white" stroke="#666666" points="463.88,-200 319.62,-200 319.62,-180 463.88,-180 463.88,-200"/>
<text xml:space="preserve" text-anchor="middle" x="391.75" y="-186.5" font-family="Helvetica,sans-Serif" font-size="10.00">MainWindow::createMenuBar</text>
</a>
</g>
</g>
<!-- Node5&#45;&gt;Node6 -->
<g id="edge6_Node000005_Node000006" class="edge">
<title>Node5&#45;&gt;Node6</title>
<g id="a_edge6_Node000005_Node000006"><a xlink:title=" ">
<path fill="none" stroke="#63b8ff" d="M488.56,-190C480.44,-190 472.24,-190 464.25,-190"/>
<polygon fill="#63b8ff" stroke="#63b8ff" points="488.46,-193.5 498.46,-190 488.46,-186.5 488.46,-193.5"/>
</a>
</g>
</g>
<!-- Node7 -->
<g id="Node000007" class="node">
<title>Node7</title>
<g id="a_Node000007"><a xlink:href="class_main_window.html#a3a304253c9e7caeef028f75358bf1fd5" target="_top" xlink:title=" ">
<polygon fill="white" stroke="#666666" points="283.25,-200 170.5,-200 170.5,-180 283.25,-180 283.25,-200"/>
<text xml:space="preserve" text-anchor="middle" x="226.88" y="-186.5" font-family="Helvetica,sans-Serif" font-size="10.00">MainWindow::setupUI</text>
</a>
</g>
</g>
<!-- Node6&#45;&gt;Node7 -->
<g id="edge7_Node000006_Node000007" class="edge">
<title>Node6&#45;&gt;Node7</title>
<g id="a_edge7_Node000006_Node000007"><a xlink:title=" ">
<path fill="none" stroke="#63b8ff" d="M308.04,-190C299.76,-190 291.49,-190 283.59,-190"/>
<polygon fill="#63b8ff" stroke="#63b8ff" points="307.8,-193.5 317.8,-190 307.8,-186.5 307.8,-193.5"/>
</a>
</g>
</g>
<!-- Node7&#45;&gt;Node3 -->
<g id="edge8_Node000007_Node000003" class="edge">
<title>Node7&#45;&gt;Node3</title>
<g id="a_edge8_Node000007_Node000003"><a xlink:title=" ">
<path fill="none" stroke="#63b8ff" d="M198.96,-206.22C166.45,-225.81 112.74,-258.18 85.4,-274.67"/>
<polygon fill="#63b8ff" stroke="#63b8ff" points="200.65,-209.29 207.41,-201.13 197.04,-203.29 200.65,-209.29"/>
</a>
</g>
</g>
<!-- Node9 -->
<g id="Node000009" class="node">
<title>Node9</title>
<g id="a_Node000009"><a xlink:href="class_main_window.html#a2b7e0ad982cc26a1351f1530ea090b5b" target="_top" xlink:title=" ">
<polygon fill="white" stroke="#666666" points="1018.5,-70 877.25,-70 877.25,-38 1018.5,-38 1018.5,-70"/>
<text xml:space="preserve" text-anchor="start" x="885.25" y="-56.5" font-family="Helvetica,sans-Serif" font-size="10.00">MainWindow::createDrawing</text>
<text xml:space="preserve" text-anchor="middle" x="947.88" y="-44.5" font-family="Helvetica,sans-Serif" font-size="10.00">Button</text>
</a>
</g>
</g>
<!-- Node8&#45;&gt;Node9 -->
<g id="edge10_Node000008_Node000009" class="edge">
<title>Node8&#45;&gt;Node9</title>
<g id="a_edge10_Node000008_Node000009"><a xlink:title=" ">
<path fill="none" stroke="#63b8ff" d="M1063.14,-63.33C1048.37,-62.13 1033.08,-60.88 1018.69,-59.7"/>
<polygon fill="#63b8ff" stroke="#63b8ff" points="1062.55,-66.8 1072.8,-64.12 1063.12,-59.82 1062.55,-66.8"/>
</a>
</g>
</g>
<!-- Node10 -->
<g id="Node000010" class="node">
<title>Node10</title>
<g id="a_Node000010"><a xlink:href="class_main_window.html#a002a373734d320507137dfb74d6b34a6" target="_top" xlink:title=" ">
<polygon fill="white" stroke="#666666" points="830.75,-64 681.25,-64 681.25,-44 830.75,-44 830.75,-64"/>
<text xml:space="preserve" text-anchor="middle" x="756" y="-50.5" font-family="Helvetica,sans-Serif" font-size="10.00">MainWindow::createSidePanel</text>
</a>
</g>
</g>
<!-- Node9&#45;&gt;Node10 -->
<g id="edge11_Node000009_Node000010" class="edge">
<title>Node9&#45;&gt;Node10</title>
<g id="a_edge11_Node000009_Node000010"><a xlink:title=" ">
<path fill="none" stroke="#63b8ff" d="M865.66,-54C854.22,-54 842.51,-54 831.21,-54"/>
<polygon fill="#63b8ff" stroke="#63b8ff" points="865.47,-57.5 875.47,-54 865.47,-50.5 865.47,-57.5"/>
</a>
</g>
</g>
<!-- Node11 -->
<g id="Node000011" class="node">
<title>Node11</title>
<g id="a_Node000011"><a xlink:href="class_main_window.html#a87f94def1c8d92ef141ffb6a20cf3900" target="_top" xlink:title=" ">
<polygon fill="white" stroke="#666666" points="641.12,-70 504.38,-70 504.38,-38 641.12,-38 641.12,-70"/>
<text xml:space="preserve" text-anchor="start" x="512.38" y="-56.5" font-family="Helvetica,sans-Serif" font-size="10.00">MainWindow::createCentral</text>
<text xml:space="preserve" text-anchor="middle" x="572.75" y="-44.5" font-family="Helvetica,sans-Serif" font-size="10.00">Widget</text>
</a>
</g>
</g>
<!-- Node10&#45;&gt;Node11 -->
<g id="edge12_Node000010_Node000011" class="edge">
<title>Node10&#45;&gt;Node11</title>
<g id="a_edge12_Node000010_Node000011"><a xlink:title=" ">
<path fill="none" stroke="#63b8ff" d="M669.39,-54C660.02,-54 650.58,-54 641.47,-54"/>
<polygon fill="#63b8ff" stroke="#63b8ff" points="669.24,-57.5 679.24,-54 669.24,-50.5 669.24,-57.5"/>
</a>
</g>
</g>
<!-- Node11&#45;&gt;Node7 -->
<g id="edge13_Node000011_Node000007" class="edge">
<title>Node11&#45;&gt;Node7</title>
<g id="a_edge13_Node000011_Node000007"><a xlink:title=" ">
<path fill="none" stroke="#63b8ff" d="M519.73,-74.57C445.24,-104.03 310.93,-157.15 254.25,-179.57"/>
<polygon fill="#63b8ff" stroke="#63b8ff" points="520.85,-77.89 528.86,-70.96 518.28,-71.38 520.85,-77.89"/>
</a>
</g>
</g>
<!-- Node13 -->
<g id="Node000013" class="node">
<title>Node13</title>
<g id="a_Node000013"><a xlink:href="class_main_window.html#ac15079a99bc4f9b1a66e1da16bcbd55d" target="_top" xlink:title=" ">
<polygon fill="white" stroke="#666666" points="1029,-20 866.75,-20 866.75,0 1029,0 1029,-20"/>
<text xml:space="preserve" text-anchor="middle" x="947.88" y="-6.5" font-family="Helvetica,sans-Serif" font-size="10.00">MainWindow::createDiagramArea</text>
</a>
</g>
</g>
<!-- Node12&#45;&gt;Node13 -->
<g id="edge15_Node000012_Node000013" class="edge">
<title>Node12&#45;&gt;Node13</title>
<g id="a_edge15_Node000012_Node000013"><a xlink:title=" ">
<path fill="none" stroke="#63b8ff" d="M1053.26,-18.53C1045.26,-17.87 1037.2,-17.22 1029.3,-16.57"/>
<polygon fill="#63b8ff" stroke="#63b8ff" points="1052.75,-22 1063.01,-19.32 1053.32,-15.02 1052.75,-22"/>
</a>
</g>
</g>
<!-- Node13&#45;&gt;Node11 -->
<g id="edge16_Node000013_Node000011" class="edge">
<title>Node13&#45;&gt;Node11</title>
<g id="a_edge16_Node000013_Node000011"><a xlink:title=" ">
<path fill="none" stroke="#63b8ff" d="M855.09,-16.79C803.83,-21.05 738.86,-27.21 681.25,-35 668.38,-36.74 654.71,-38.91 641.57,-41.15"/>
<polygon fill="#63b8ff" stroke="#63b8ff" points="855.29,-20.29 864.97,-15.98 854.72,-13.31 855.29,-20.29"/>
</a>
</g>
</g>
<!-- Node14&#45;&gt;Node5 -->
<g id="edge18_Node000014_Node000005" class="edge">
<title>Node14&#45;&gt;Node5</title>
<g id="a_edge18_Node000014_Node000005"><a xlink:title=" ">
<path fill="none" stroke="#63b8ff" d="M687.02,-201.87C673.54,-200.46 659.35,-198.97 645.74,-197.55"/>
<polygon fill="#63b8ff" stroke="#63b8ff" points="686.33,-205.32 696.64,-202.88 687.06,-198.36 686.33,-205.32"/>
</a>
</g>
</g>
<!-- Node15&#45;&gt;Node5 -->
<g id="edge20_Node000015_Node000005" class="edge">
<title>Node15&#45;&gt;Node5</title>
<g id="a_edge20_Node000015_Node000005"><a xlink:title=" ">
<path fill="none" stroke="#63b8ff" d="M1094.3,-119.93C1007.52,-99.82 825.41,-68.19 681.25,-114 640.3,-127.01 601.52,-161.9 583.81,-179.52"/>
<polygon fill="#63b8ff" stroke="#63b8ff" points="1093.4,-123.31 1103.93,-122.21 1095.01,-116.5 1093.4,-123.31"/>
</a>
</g>
</g>
<!-- Node15&#45;&gt;Node16 -->
<g id="edge21_Node000015_Node000016" class="edge">
<title>Node15&#45;&gt;Node16</title>
<g id="a_edge21_Node000015_Node000016"><a xlink:title=" ">
<path fill="none" stroke="#63b8ff" d="M1079.51,-145.66C1054.59,-150.49 1026.48,-155.94 1002.74,-160.55"/>
<polygon fill="#63b8ff" stroke="#63b8ff" points="1080.07,-149.11 1089.22,-143.77 1078.74,-142.24 1080.07,-149.11"/>
</a>
</g>
</g>
<!-- Node16&#45;&gt;Node4 -->
<g id="edge24_Node000016_Node000004" class="edge">
<title>Node16&#45;&gt;Node4</title>
<g id="a_edge24_Node000016_Node000004"><a xlink:title=" ">
<path fill="none" stroke="#63b8ff" d="M918.68,-186.87C895.6,-199.36 861.8,-216.52 830.75,-228 822.07,-231.21 812.62,-234.09 803.48,-236.57"/>
<polygon fill="#63b8ff" stroke="#63b8ff" points="920.07,-190.1 927.16,-182.22 916.71,-183.96 920.07,-190.1"/>
</a>
</g>
</g>
<!-- Node16&#45;&gt;Node5 -->
<g id="edge23_Node000016_Node000005" class="edge">
<title>Node16&#45;&gt;Node5</title>
<g id="a_edge23_Node000016_Node000005"><a xlink:title=" ">
<path fill="none" stroke="#63b8ff" d="M879.1,-174.45C813.09,-177.81 713.09,-182.9 645.69,-186.34"/>
<polygon fill="#63b8ff" stroke="#63b8ff" points="878.88,-177.97 888.69,-173.96 878.53,-170.98 878.88,-177.97"/>
</a>
</g>
</g>
<!-- Node16&#45;&gt;Node14 -->
<g id="edge25_Node000016_Node000014" class="edge">
<title>Node16&#45;&gt;Node14</title>
<g id="a_edge25_Node000016_Node000014"><a xlink:title=" ">
<path fill="none" stroke="#63b8ff" d="M883.31,-183.72C859.23,-188.54 832.13,-193.96 809.22,-198.55"/>
<polygon fill="#63b8ff" stroke="#63b8ff" points="883.89,-187.18 893,-181.78 882.51,-180.31 883.89,-187.18"/>
</a>
</g>
</g>
<!-- Node17 -->
<g id="Node000017" class="node">
<title>Node17</title>
<g id="a_Node000017"><a xlink:href="class_main_window.html#a05fb9d72c044aa3bb7d187b994704e2f" target="_top" xlink:title=" ">
<polygon fill="white" stroke="#666666" points="819.5,-143 692.5,-143 692.5,-123 819.5,-123 819.5,-143"/>
<text xml:space="preserve" text-anchor="middle" x="756" y="-129.5" font-family="Helvetica,sans-Serif" font-size="10.00">MainWindow::closeEvent</text>
</a>
</g>
</g>
<!-- Node16&#45;&gt;Node17 -->
<g id="edge22_Node000016_Node000017" class="edge">
<title>Node16&#45;&gt;Node17</title>
<g id="a_edge22_Node000016_Node000017"><a xlink:title=" ">
<path fill="none" stroke="#63b8ff" d="M883.31,-158.28C859.23,-153.46 832.13,-148.04 809.22,-143.45"/>
<polygon fill="#63b8ff" stroke="#63b8ff" points="882.51,-161.69 893,-160.22 883.89,-154.82 882.51,-161.69"/>
</a>
</g>
</g>
</g>
</svg>

<g id="navigator" transform="translate(0 0)" fill="#404254">
  <rect fill="#f2f5e9" fill-opacity="0.5" stroke="#606060" stroke-width=".5" x="0" y="0" width="60" height="60"/>
  <use id="zoomplus" xlink:href="#zoomPlus" x="17" y="9" onmousedown="handleZoom(evt,'in')"/>
  <use id="zoomminus" xlink:href="#zoomMin" x="42" y="9" onmousedown="handleZoom(evt,'out')"/>
  <use id="reset" xlink:href="#resetDef" x="30" y="36" onmousedown="handleReset()"/>
   <use id="arrowup" xlink:href="#arrowUp" x="0" y="0" onmousedown="handlePan(0,-1)"/>
  <use id="arrowright" xlink:href="#arrowRight" x="0" y="0" onmousedown="handlePan(1,0)"/>
  <use id="arrowdown" xlink:href="#arrowDown" x="0" y="0" onmousedown="handlePan(0,1)"/>
  <use id="arrowleft" xlink:href="#arrowLeft" x="0" y="0" onmousedown="handlePan(-1,0)"/>
</g>
<svg viewBox="0 0 15 15" width="100%" height="30px" preserveAspectRatio="xMaxYMin meet">
 <g id="arrow_out" transform="scale(0.3 0.3)">
  <a xlink:href="class_main_window_a90cfbcf2e0f2549760a60f184ee0acbf_icgraph_org.svg" target="_base">
   <rect id="button" ry="5" rx="5" y="6" x="6" height="38" width="38"
        fill="#f2f5e9" fill-opacity="0.5" stroke="#606060" stroke-width="1.0"/>
   <path id="arrow"
     d="M 11.500037,31.436501 C 11.940474,20.09759 22.043105,11.32322 32.158766,21.979434 L 37.068811,17.246167 C 37.068811,17.246167 37.088388,32 37.088388,32 L 22.160133,31.978069 C 22.160133,31.978069 26.997745,27.140456 26.997745,27.140456 C 18.528582,18.264221 13.291696,25.230495 11.500037,31.436501 z"
     style="fill:#404040;"/>
  </a>
 </g>
</svg>

<style type='text/css'>
<![CDATA[
[data-mouse-over-selected='false'] { opacity: 0.7; }
[data-mouse-over-selected='true']  { opacity: 1.0; }
]]>
</style>
<script type="application/ecmascript"><![CDATA[
document.addEventListener('DOMContentLoaded', (event) => {
  highlightEdges();
  highlightAdjacentNodes();
});
]]></script>
</svg>
