<?xml version="1.0" encoding="UTF-8" standalone="no"?>
<!DOCTYPE svg PUBLIC "-//W3C//DTD SVG 1.1//EN"
 "http://www.w3.org/Graphics/SVG/1.1/DTD/svg11.dtd">
<!-- Generated by graphviz version 14.1.1 (20251213.1925)
 -->
<!-- Title: Relationship::Relationship Pages: 1 -->
<svg width="1069pt" height="229pt"
 viewBox="0.00 0.00 1069.00 229.00" xmlns="http://www.w3.org/2000/svg" xmlns:xlink="http://www.w3.org/1999/xlink">
<g id="graph0" class="graph" transform="scale(1 1) rotate(0) translate(4 225)">
<title>Relationship::Relationship</title>
<!-- Node1 -->
<g id="Node000001" class="node">
<title>Node1</title>
<g id="a_Node000001"><a xlink:title=" ">
<polygon fill="#999999" stroke="#666666" points="130,-101 0,-101 0,-81 130,-81 130,-101"/>
<text xml:space="preserve" text-anchor="middle" x="65" y="-87.5" font-family="Helvetica,sans-Serif" font-size="10.00">Relationship::Relationship</text>
</a>
</g>
</g>
<!-- Node1&#45;&gt;Node1 -->
<g id="edge9_Node000001_Node000001" class="edge">
<title>Node1&#45;&gt;Node1</title>
<g id="a_edge9_Node000001_Node000001"><a xlink:title=" ">
<path fill="none" stroke="#63b8ff" d="M37.55,-101.34C25.82,-109.98 34.97,-119 65,-119 81.89,-119 92.18,-116.14 95.85,-112.11"/>
<polygon fill="#63b8ff" stroke="#63b8ff" points="99.26,-111.26 92.9,-102.78 92.58,-113.37 99.26,-111.26"/>
</a>
</g>
</g>
<!-- Node2 -->
<g id="Node000002" class="node">
<title>Node2</title>
<g id="a_Node000002"><a xlink:href="class_basic_element.html#a85cccd7db0e46e4e2b646365cd6c66a9" target="_top" xlink:title=" ">
<polygon fill="white" stroke="#666666" points="309.5,-140 166,-140 166,-120 309.5,-120 309.5,-140"/>
<text xml:space="preserve" text-anchor="middle" x="237.75" y="-126.5" font-family="Helvetica,sans-Serif" font-size="10.00">BasicElement::BasicElement</text>
</a>
</g>
</g>
<!-- Node1&#45;&gt;Node2 -->
<g id="edge1_Node000001_Node000002" class="edge">
<title>Node1&#45;&gt;Node2</title>
<g id="a_edge1_Node000001_Node000002"><a xlink:title=" ">
<path fill="none" stroke="#63b8ff" d="M111.76,-101.45C132.72,-106.24 157.77,-111.96 179.92,-117.02"/>
<polygon fill="#63b8ff" stroke="#63b8ff" points="178.86,-120.37 189.39,-119.18 180.42,-113.54 178.86,-120.37"/>
</a>
</g>
</g>
<!-- Node9 -->
<g id="Node000009" class="node">
<title>Node9</title>
<g id="a_Node000009"><a xlink:href="class_relationship.html#afdc74fcf0c54abc297ee3c6239d9a867" target="_top" xlink:title=" ">
<polygon fill="white" stroke="#666666" points="304.62,-101 170.88,-101 170.88,-81 304.62,-81 304.62,-101"/>
<text xml:space="preserve" text-anchor="middle" x="237.75" y="-87.5" font-family="Helvetica,sans-Serif" font-size="10.00">Relationship::preferredSize</text>
</a>
</g>
</g>
<!-- Node1&#45;&gt;Node9 -->
<g id="edge8_Node000001_Node000009" class="edge">
<title>Node1&#45;&gt;Node9</title>
<g id="a_edge8_Node000001_Node000009"><a xlink:title=" ">
<path fill="none" stroke="#63b8ff" d="M130.07,-91C139.59,-91 149.49,-91 159.25,-91"/>
<polygon fill="#63b8ff" stroke="#63b8ff" points="159.1,-94.5 169.1,-91 159.1,-87.5 159.1,-94.5"/>
</a>
</g>
</g>
<!-- Node10 -->
<g id="Node000010" class="node">
<title>Node10</title>
<g id="a_Node000010"><a xlink:href="class_basic_element.html#ab86c964c6ef9e8d7299efc263a0837e7" target="_top" xlink:title=" ">
<polygon fill="white" stroke="#666666" points="295.62,-60 179.88,-60 179.88,-40 295.62,-40 295.62,-60"/>
<text xml:space="preserve" text-anchor="middle" x="237.75" y="-46.5" font-family="Helvetica,sans-Serif" font-size="10.00">BasicElement::setSize</text>
</a>
</g>
</g>
<!-- Node1&#45;&gt;Node10 -->
<g id="edge10_Node000001_Node000010" class="edge">
<title>Node1&#45;&gt;Node10</title>
<g id="a_edge10_Node000001_Node000010"><a xlink:title=" ">
<path fill="none" stroke="#63b8ff" d="M109.53,-80.55C131.61,-75.25 158.64,-68.75 182.11,-63.12"/>
<polygon fill="#63b8ff" stroke="#63b8ff" points="182.92,-66.52 191.83,-60.79 181.29,-59.72 182.92,-66.52"/>
</a>
</g>
</g>
<!-- Node3 -->
<g id="Node000003" class="node">
<title>Node3</title>
<g id="a_Node000003"><a xlink:href="class_basic_element.html#a78e2ce29aa5b2a9fae74cf435996ce8b" target="_top" xlink:title=" ">
<polygon fill="white" stroke="#666666" points="493.5,-196 349.25,-196 349.25,-164 493.5,-164 493.5,-196"/>
<text xml:space="preserve" text-anchor="start" x="357.25" y="-182.5" font-family="Helvetica,sans-Serif" font-size="10.00">BasicElement::createAndAdd</text>
<text xml:space="preserve" text-anchor="middle" x="421.38" y="-170.5" font-family="Helvetica,sans-Serif" font-size="10.00">DefaultConnectionPoints</text>
</a>
</g>
</g>
<!-- Node2&#45;&gt;Node3 -->
<g id="edge2_Node000002_Node000003" class="edge">
<title>Node2&#45;&gt;Node3</title>
<g id="a_edge2_Node000002_Node000003"><a xlink:title=" ">
<path fill="none" stroke="#63b8ff" d="M276.82,-140.48C297.94,-146.29 324.87,-153.71 349.69,-160.54"/>
<polygon fill="#63b8ff" stroke="#63b8ff" points="348.51,-163.85 359.08,-163.13 350.37,-157.1 348.51,-163.85"/>
</a>
</g>
</g>
<!-- Node8 -->
<g id="Node000008" class="node">
<title>Node8</title>
<g id="a_Node000008"><a xlink:href="class_basic_element.html#a01a6511d922708fe0042474740109152" target="_top" xlink:title=" ">
<polygon fill="white" stroke="#666666" points="490.5,-146 352.25,-146 352.25,-114 490.5,-114 490.5,-146"/>
<text xml:space="preserve" text-anchor="start" x="360.25" y="-132.5" font-family="Helvetica,sans-Serif" font-size="10.00">BasicElement::elementType</text>
<text xml:space="preserve" text-anchor="middle" x="421.38" y="-120.5" font-family="Helvetica,sans-Serif" font-size="10.00">ToString</text>
</a>
</g>
</g>
<!-- Node2&#45;&gt;Node8 -->
<g id="edge7_Node000002_Node000008" class="edge">
<title>Node2&#45;&gt;Node8</title>
<g id="a_edge7_Node000002_Node000008"><a xlink:title=" ">
<path fill="none" stroke="#63b8ff" d="M309.75,-130C319.8,-130 330.19,-130 340.39,-130"/>
<polygon fill="#63b8ff" stroke="#63b8ff" points="340.29,-133.5 350.29,-130 340.29,-126.5 340.29,-133.5"/>
</a>
</g>
</g>
<!-- Node4 -->
<g id="Node000004" class="node">
<title>Node4</title>
<g id="a_Node000004"><a xlink:href="class_basic_element.html#a0357bfa9b1ef06dd1c9d64bcb00813f4" target="_top" xlink:title=" ">
<polygon fill="white" stroke="#666666" points="683.5,-221 535.5,-221 535.5,-189 683.5,-189 683.5,-221"/>
<text xml:space="preserve" text-anchor="start" x="543.5" y="-207.5" font-family="Helvetica,sans-Serif" font-size="10.00">BasicElement::addConnection</text>
<text xml:space="preserve" text-anchor="middle" x="609.5" y="-195.5" font-family="Helvetica,sans-Serif" font-size="10.00">Point</text>
</a>
</g>
</g>
<!-- Node3&#45;&gt;Node4 -->
<g id="edge3_Node000003_Node000004" class="edge">
<title>Node3&#45;&gt;Node4</title>
<g id="a_edge3_Node000003_Node000004"><a xlink:title=" ">
<path fill="none" stroke="#63b8ff" d="M493.8,-189.59C503.64,-190.91 513.81,-192.28 523.85,-193.63"/>
<polygon fill="#63b8ff" stroke="#63b8ff" points="523.23,-197.08 533.61,-194.94 524.16,-190.14 523.23,-197.08"/>
</a>
</g>
</g>
<!-- Node5 -->
<g id="Node000005" class="node">
<title>Node5</title>
<g id="a_Node000005"><a xlink:href="class_connection_point.html#a828996f0bb02e9154b5d3af03f1734b8" target="_top" xlink:title=" ">
<polygon fill="white" stroke="#666666" points="685.75,-171 533.25,-171 533.25,-139 685.75,-139 685.75,-171"/>
<text xml:space="preserve" text-anchor="start" x="541.25" y="-157.5" font-family="Helvetica,sans-Serif" font-size="10.00">ConnectionPoint::createDefault</text>
<text xml:space="preserve" text-anchor="middle" x="609.5" y="-145.5" font-family="Helvetica,sans-Serif" font-size="10.00">ConnectionPoints</text>
</a>
</g>
</g>
<!-- Node3&#45;&gt;Node5 -->
<g id="edge4_Node000003_Node000005" class="edge">
<title>Node3&#45;&gt;Node5</title>
<g id="a_edge4_Node000003_Node000005"><a xlink:title=" ">
<path fill="none" stroke="#63b8ff" d="M493.8,-170.41C502.91,-169.18 512.32,-167.92 521.64,-166.67"/>
<polygon fill="#63b8ff" stroke="#63b8ff" points="521.99,-170.15 531.44,-165.35 521.06,-163.21 521.99,-170.15"/>
</a>
</g>
</g>
<!-- Node6 -->
<g id="Node000006" class="node">
<title>Node6</title>
<g id="a_Node000006"><a xlink:href="class_connection_point.html#a0bca0b4cf605278cb17d8052dc027932" target="_top" xlink:title=" ">
<polygon fill="white" stroke="#666666" points="881,-171 721.75,-171 721.75,-139 881,-139 881,-171"/>
<text xml:space="preserve" text-anchor="start" x="729.75" y="-157.5" font-family="Helvetica,sans-Serif" font-size="10.00">ConnectionPoint::addConnection</text>
<text xml:space="preserve" text-anchor="middle" x="801.38" y="-145.5" font-family="Helvetica,sans-Serif" font-size="10.00">Point</text>
</a>
</g>
</g>
<!-- Node5&#45;&gt;Node6 -->
<g id="edge5_Node000005_Node000006" class="edge">
<title>Node5&#45;&gt;Node6</title>
<g id="a_edge5_Node000005_Node000006"><a xlink:title=" ">
<path fill="none" stroke="#63b8ff" d="M686.09,-155C693.96,-155 702.02,-155 710.03,-155"/>
<polygon fill="#63b8ff" stroke="#63b8ff" points="709.8,-158.5 719.8,-155 709.8,-151.5 709.8,-158.5"/>
</a>
</g>
</g>
<!-- Node7 -->
<g id="Node000007" class="node">
<title>Node7</title>
<g id="a_Node000007"><a xlink:href="class_connection_point.html#ac498b99d7f91805fea3eab19f2e8b260" target="_top" xlink:title=" ">
<polygon fill="white" stroke="#666666" points="1060.5,-171 917,-171 917,-139 1060.5,-139 1060.5,-171"/>
<text xml:space="preserve" text-anchor="start" x="925" y="-157.5" font-family="Helvetica,sans-Serif" font-size="10.00">ConnectionPoint::Connection</text>
<text xml:space="preserve" text-anchor="middle" x="988.75" y="-145.5" font-family="Helvetica,sans-Serif" font-size="10.00">Point</text>
</a>
</g>
</g>
<!-- Node6&#45;&gt;Node7 -->
<g id="edge6_Node000006_Node000007" class="edge">
<title>Node6&#45;&gt;Node7</title>
<g id="a_edge6_Node000006_Node000007"><a xlink:title=" ">
<path fill="none" stroke="#63b8ff" d="M881.26,-155C889.14,-155 897.15,-155 905.07,-155"/>
<polygon fill="#63b8ff" stroke="#63b8ff" points="905.06,-158.5 915.06,-155 905.06,-151.5 905.06,-158.5"/>
</a>
</g>
</g>
<!-- Node11 -->
<g id="Node000011" class="node">
<title>Node11</title>
<g id="a_Node000011"><a xlink:href="class_basic_element.html#a2cb2eb803daa35380908948215f8d468" target="_top" xlink:title=" ">
<polygon fill="white" stroke="#666666" points="492.38,-96 350.38,-96 350.38,-76 492.38,-76 492.38,-96"/>
<text xml:space="preserve" text-anchor="middle" x="421.38" y="-82.5" font-family="Helvetica,sans-Serif" font-size="10.00">BasicElement::minimumSize</text>
</a>
</g>
</g>
<!-- Node10&#45;&gt;Node11 -->
<g id="edge11_Node000010_Node000011" class="edge">
<title>Node10&#45;&gt;Node11</title>
<g id="a_edge11_Node000010_Node000011"><a xlink:title=" ">
<path fill="none" stroke="#63b8ff" d="M291.28,-60.41C311.62,-64.44 335.09,-69.1 356.4,-73.32"/>
<polygon fill="#63b8ff" stroke="#63b8ff" points="355.67,-76.74 366.16,-75.25 357.03,-69.88 355.67,-76.74"/>
</a>
</g>
</g>
<!-- Node12 -->
<g id="Node000012" class="node">
<title>Node12</title>
<g id="a_Node000012"><a xlink:href="class_basic_element.html#a596caee40cdd00a0aacce49689b63f92" target="_top" xlink:title=" ">
<polygon fill="white" stroke="#666666" points="497.25,-58 345.5,-58 345.5,-38 497.25,-38 497.25,-58"/>
<text xml:space="preserve" text-anchor="middle" x="421.38" y="-44.5" font-family="Helvetica,sans-Serif" font-size="10.00">BasicElement::notifyObservers</text>
</a>
</g>
</g>
<!-- Node10&#45;&gt;Node12 -->
<g id="edge12_Node000010_Node000012" class="edge">
<title>Node10&#45;&gt;Node12</title>
<g id="a_edge12_Node000010_Node000012"><a xlink:title=" ">
<path fill="none" stroke="#63b8ff" d="M295.72,-49.37C307.87,-49.24 320.96,-49.09 333.94,-48.95"/>
<polygon fill="#63b8ff" stroke="#63b8ff" points="333.81,-52.45 343.77,-48.84 333.73,-45.45 333.81,-52.45"/>
</a>
</g>
</g>
<!-- Node13 -->
<g id="Node000013" class="node">
<title>Node13</title>
<g id="a_Node000013"><a xlink:href="class_basic_element.html#a542adbf85a58c5c9bf17975964d7e446" target="_top" xlink:title=" ">
<polygon fill="white" stroke="#666666" points="471.75,-20 371,-20 371,0 471.75,0 471.75,-20"/>
<text xml:space="preserve" text-anchor="middle" x="421.38" y="-6.5" font-family="Helvetica,sans-Serif" font-size="10.00">BasicElement::size</text>
</a>
</g>
</g>
<!-- Node10&#45;&gt;Node13 -->
<g id="edge13_Node000010_Node000013" class="edge">
<title>Node10&#45;&gt;Node13</title>
<g id="a_edge13_Node000010_Node000013"><a xlink:title=" ">
<path fill="none" stroke="#63b8ff" d="M286,-39.59C309.15,-34.5 337.25,-28.31 361.76,-22.91"/>
<polygon fill="#63b8ff" stroke="#63b8ff" points="362.24,-26.39 371.26,-20.82 360.74,-19.55 362.24,-26.39"/>
</a>
</g>
</g>
</g>
</svg>
