<?xml version="1.0" encoding="UTF-8" standalone="no"?>
<!DOCTYPE svg PUBLIC "-//W3C//DTD SVG 1.1//EN"
 "http://www.w3.org/Graphics/SVG/1.1/DTD/svg11.dtd">
<!-- Generated by graphviz version 14.1.1 (20251213.1925)
 -->
<!-- Title: DiagramScene::~DiagramScene Pages: 1 -->
<svg width="1364pt" height="413pt"
 viewBox="0.00 0.00 1364.00 413.00" xmlns="http://www.w3.org/2000/svg" xmlns:xlink="http://www.w3.org/1999/xlink">
<g id="graph0" class="graph" transform="scale(1 1) rotate(0) translate(4 409)">
<title>DiagramScene::~DiagramScene</title>
<!-- Node1 -->
<g id="Node000001" class="node">
<title>Node1</title>
<g id="a_Node000001"><a xlink:title=" ">
<polygon fill="#999999" stroke="#666666" points="157,-167 0,-167 0,-147 157,-147 157,-167"/>
<text xml:space="preserve" text-anchor="middle" x="78.5" y="-153.5" font-family="Helvetica,sans-Serif" font-size="10.00">DiagramScene::~DiagramScene</text>
</a>
</g>
</g>
<!-- Node2 -->
<g id="Node000002" class="node">
<title>Node2</title>
<g id="a_Node000002"><a xlink:href="class_diagram_scene.html#a0c02f289dea7872eae24bb2c0f91d5ea" target="_top" xlink:title=" ">
<polygon fill="white" stroke="#666666" points="337.25,-167 193,-167 193,-147 337.25,-147 337.25,-167"/>
<text xml:space="preserve" text-anchor="middle" x="265.12" y="-153.5" font-family="Helvetica,sans-Serif" font-size="10.00">DiagramScene::clearDiagram</text>
</a>
</g>
</g>
<!-- Node1&#45;&gt;Node2 -->
<g id="edge1_Node000001_Node000002" class="edge">
<title>Node1&#45;&gt;Node2</title>
<g id="a_edge1_Node000001_Node000002"><a xlink:title=" ">
<path fill="none" stroke="#63b8ff" d="M157.26,-157C165.23,-157 173.35,-157 181.37,-157"/>
<polygon fill="#63b8ff" stroke="#63b8ff" points="181.11,-160.5 191.11,-157 181.11,-153.5 181.11,-160.5"/>
</a>
</g>
</g>
<!-- Node3 -->
<g id="Node000003" class="node">
<title>Node3</title>
<g id="a_Node000003"><a xlink:href="class_diagram_scene.html#a483cb75d9da2cbe30aae1f4832560a65" target="_top" xlink:title=" ">
<polygon fill="white" stroke="#666666" points="545.62,-326 381.12,-326 381.12,-306 545.62,-306 545.62,-326"/>
<text xml:space="preserve" text-anchor="middle" x="463.38" y="-312.5" font-family="Helvetica,sans-Serif" font-size="10.00">DiagramScene::cancelConnection</text>
</a>
</g>
</g>
<!-- Node2&#45;&gt;Node3 -->
<g id="edge2_Node000002_Node000003" class="edge">
<title>Node2&#45;&gt;Node3</title>
<g id="a_edge2_Node000002_Node000003"><a xlink:title=" ">
<path fill="none" stroke="#63b8ff" d="M278.61,-167.36C298.54,-183.87 338.82,-217.15 373.25,-245 396.17,-263.54 422.61,-284.56 440.7,-298.88"/>
<polygon fill="#63b8ff" stroke="#63b8ff" points="438.14,-301.32 448.15,-304.77 442.48,-295.83 438.14,-301.32"/>
</a>
</g>
</g>
<!-- Node5 -->
<g id="Node000005" class="node">
<title>Node5</title>
<g id="a_Node000005"><a xlink:href="class_diagram_scene.html#a9341fab75d7299e330baae13993bed28" target="_top" xlink:title=" ">
<polygon fill="white" stroke="#666666" points="537.38,-236 389.38,-236 389.38,-216 537.38,-216 537.38,-236"/>
<text xml:space="preserve" text-anchor="middle" x="463.38" y="-222.5" font-family="Helvetica,sans-Serif" font-size="10.00">DiagramScene::clearSelection</text>
</a>
</g>
</g>
<!-- Node2&#45;&gt;Node5 -->
<g id="edge4_Node000002_Node000005" class="edge">
<title>Node2&#45;&gt;Node5</title>
<g id="a_edge4_Node000002_Node000005"><a xlink:title=" ">
<path fill="none" stroke="#63b8ff" d="M295.93,-167.48C329.6,-179.32 384.58,-198.65 422.06,-211.83"/>
<polygon fill="#63b8ff" stroke="#63b8ff" points="420.59,-215.02 431.18,-215.03 422.91,-208.41 420.59,-215.02"/>
</a>
</g>
</g>
<!-- Node17 -->
<g id="Node000017" class="node">
<title>Node17</title>
<g id="a_Node000017"><a xlink:href="class_diagram_scene.html#aefcfbcad98610038563584daf41c6baf" target="_top" xlink:title=" ">
<polygon fill="white" stroke="#666666" points="553.5,-167 373.25,-167 373.25,-147 553.5,-147 553.5,-167"/>
<text xml:space="preserve" text-anchor="middle" x="463.38" y="-153.5" font-family="Helvetica,sans-Serif" font-size="10.00">DiagramScene::destroySelectionRect</text>
</a>
</g>
</g>
<!-- Node2&#45;&gt;Node17 -->
<g id="edge19_Node000002_Node000017" class="edge">
<title>Node2&#45;&gt;Node17</title>
<g id="a_edge19_Node000002_Node000017"><a xlink:title=" ">
<path fill="none" stroke="#63b8ff" d="M337.53,-157C345.35,-157 353.42,-157 361.51,-157"/>
<polygon fill="#63b8ff" stroke="#63b8ff" points="361.43,-160.5 371.43,-157 361.43,-153.5 361.43,-160.5"/>
</a>
</g>
</g>
<!-- Node18 -->
<g id="Node000018" class="node">
<title>Node18</title>
<g id="a_Node000018"><a xlink:href="class_diagram_scene.html#a5d546daf9d3a3d5155b611ec31c4dccb" target="_top" xlink:title=" ">
<polygon fill="white" stroke="#666666" points="957.12,-117 788.88,-117 788.88,-97 957.12,-97 957.12,-117"/>
<text xml:space="preserve" text-anchor="middle" x="873" y="-103.5" font-family="Helvetica,sans-Serif" font-size="10.00">DiagramScene::removeConnection</text>
</a>
</g>
</g>
<!-- Node2&#45;&gt;Node18 -->
<g id="edge20_Node000002_Node000018" class="edge">
<title>Node2&#45;&gt;Node18</title>
<g id="a_edge20_Node000002_Node000018"><a xlink:title=" ">
<path fill="none" stroke="#63b8ff" d="M318.26,-146.53C335.68,-143.36 355.25,-140.15 373.25,-138 513.43,-121.27 676.92,-113.28 777.45,-109.68"/>
<polygon fill="#63b8ff" stroke="#63b8ff" points="777.4,-113.19 787.27,-109.34 777.16,-106.19 777.4,-113.19"/>
</a>
</g>
</g>
<!-- Node24 -->
<g id="Node000024" class="node">
<title>Node24</title>
<g id="a_Node000024"><a xlink:href="class_diagram_scene.html#ae531fa5ccfc6393d5a60f956a652118d" target="_top" xlink:title=" ">
<polygon fill="white" stroke="#666666" points="540.75,-76 386,-76 386,-56 540.75,-56 540.75,-76"/>
<text xml:space="preserve" text-anchor="middle" x="463.38" y="-62.5" font-family="Helvetica,sans-Serif" font-size="10.00">DiagramScene::removeElement</text>
</a>
</g>
</g>
<!-- Node2&#45;&gt;Node24 -->
<g id="edge28_Node000002_Node000024" class="edge">
<title>Node2&#45;&gt;Node24</title>
<g id="a_edge28_Node000002_Node000024"><a xlink:title=" ">
<path fill="none" stroke="#63b8ff" d="M281.95,-146.69C302.42,-133.67 339.46,-111.14 373.25,-96 386.65,-90 401.64,-84.51 415.44,-79.91"/>
<polygon fill="#63b8ff" stroke="#63b8ff" points="416.33,-83.3 424.77,-76.89 414.18,-76.64 416.33,-83.3"/>
</a>
</g>
</g>
<!-- Node4 -->
<g id="Node000004" class="node">
<title>Node4</title>
<g id="a_Node000004"><a xlink:href="class_diagram_scene.html#a12b2e24143d976ca11461361876b3892" target="_top" xlink:title=" ">
<polygon fill="white" stroke="#666666" points="737.5,-384 603.75,-384 603.75,-352 737.5,-352 737.5,-384"/>
<text xml:space="preserve" text-anchor="start" x="611.75" y="-370.5" font-family="Helvetica,sans-Serif" font-size="10.00">DiagramScene::connection</text>
<text xml:space="preserve" text-anchor="middle" x="670.62" y="-358.5" font-family="Helvetica,sans-Serif" font-size="10.00">Cancelled</text>
</a>
</g>
</g>
<!-- Node3&#45;&gt;Node4 -->
<g id="edge3_Node000003_Node000004" class="edge">
<title>Node3&#45;&gt;Node4</title>
<g id="a_edge3_Node000003_Node000004"><a xlink:title=" ">
<path fill="none" stroke="#63b8ff" d="M505.42,-326.4C530.74,-332.81 563.99,-341.24 593.95,-348.83"/>
<polygon fill="#63b8ff" stroke="#63b8ff" points="592.79,-352.15 603.35,-351.21 594.51,-345.36 592.79,-352.15"/>
</a>
</g>
</g>
<!-- Node6 -->
<g id="Node000006" class="node">
<title>Node6</title>
<g id="a_Node000006"><a xlink:href="class_diagram_scene.html#a496c60851a94026b46ba80b647e4eb47" target="_top" xlink:title=" ">
<polygon fill="white" stroke="#666666" points="739.75,-220 601.5,-220 601.5,-188 739.75,-188 739.75,-220"/>
<text xml:space="preserve" text-anchor="start" x="609.5" y="-206.5" font-family="Helvetica,sans-Serif" font-size="10.00">DiagramScene::getSelected</text>
<text xml:space="preserve" text-anchor="middle" x="670.62" y="-194.5" font-family="Helvetica,sans-Serif" font-size="10.00">Connections</text>
</a>
</g>
</g>
<!-- Node5&#45;&gt;Node6 -->
<g id="edge5_Node000005_Node000006" class="edge">
<title>Node5&#45;&gt;Node6</title>
<g id="a_edge5_Node000005_Node000006"><a xlink:title=" ">
<path fill="none" stroke="#63b8ff" d="M537.61,-218.15C554.6,-216.33 572.78,-214.38 590.04,-212.53"/>
<polygon fill="#63b8ff" stroke="#63b8ff" points="590.15,-216.04 599.72,-211.49 589.4,-209.08 590.15,-216.04"/>
</a>
</g>
</g>
<!-- Node7 -->
<g id="Node000007" class="node">
<title>Node7</title>
<g id="a_Node000007"><a xlink:href="class_diagram_scene.html#aef557b645a95aaa376592146d4c6c60e" target="_top" xlink:title=" ">
<polygon fill="white" stroke="#666666" points="739.75,-170 601.5,-170 601.5,-138 739.75,-138 739.75,-170"/>
<text xml:space="preserve" text-anchor="start" x="609.5" y="-156.5" font-family="Helvetica,sans-Serif" font-size="10.00">DiagramScene::getSelected</text>
<text xml:space="preserve" text-anchor="middle" x="670.62" y="-144.5" font-family="Helvetica,sans-Serif" font-size="10.00">Elements</text>
</a>
</g>
</g>
<!-- Node5&#45;&gt;Node7 -->
<g id="edge6_Node000005_Node000007" class="edge">
<title>Node5&#45;&gt;Node7</title>
<g id="a_edge6_Node000005_Node000007"><a xlink:title=" ">
<path fill="none" stroke="#63b8ff" d="M490.58,-215.66C515.79,-205.83 555.04,-190.84 589.5,-179 594.49,-177.29 599.67,-175.56 604.89,-173.85"/>
<polygon fill="#63b8ff" stroke="#63b8ff" points="605.73,-177.26 614.17,-170.86 603.58,-170.6 605.73,-177.26"/>
</a>
</g>
</g>
<!-- Node8 -->
<g id="Node000008" class="node">
<title>Node8</title>
<g id="a_Node000008"><a xlink:href="class_diagram_scene.html#a2b55d6646f19908d66e5c5eda455744e" target="_top" xlink:title=" ">
<polygon fill="white" stroke="#666666" points="751.75,-334 589.5,-334 589.5,-314 751.75,-314 751.75,-334"/>
<text xml:space="preserve" text-anchor="middle" x="670.62" y="-320.5" font-family="Helvetica,sans-Serif" font-size="10.00">DiagramScene::selectConnection</text>
</a>
</g>
</g>
<!-- Node5&#45;&gt;Node8 -->
<g id="edge7_Node000005_Node000008" class="edge">
<title>Node5&#45;&gt;Node8</title>
<g id="a_edge7_Node000005_Node000008"><a xlink:title=" ">
<path fill="none" stroke="#63b8ff" d="M479.15,-236.36C501.93,-251.95 547.42,-281.58 589.5,-300 598.2,-303.81 607.69,-307.24 616.99,-310.23"/>
<polygon fill="#63b8ff" stroke="#63b8ff" points="615.73,-313.51 626.32,-313.1 617.79,-306.82 615.73,-313.51"/>
</a>
</g>
</g>
<!-- Node11 -->
<g id="Node000011" class="node">
<title>Node11</title>
<g id="a_Node000011"><a xlink:href="class_diagram_scene.html#a7dbb09a9acecc803601560e50ad720ea" target="_top" xlink:title=" ">
<polygon fill="white" stroke="#666666" points="955.25,-305 790.75,-305 790.75,-285 955.25,-285 955.25,-305"/>
<text xml:space="preserve" text-anchor="middle" x="873" y="-291.5" font-family="Helvetica,sans-Serif" font-size="10.00">DiagramScene::selectionChanged</text>
</a>
</g>
</g>
<!-- Node5&#45;&gt;Node11 -->
<g id="edge18_Node000005_Node000011" class="edge">
<title>Node5&#45;&gt;Node11</title>
<g id="a_edge18_Node000005_Node000011"><a xlink:title=" ">
<path fill="none" stroke="#63b8ff" d="M490.28,-236.33C515.28,-245.85 554.38,-259.6 589.5,-267 651.99,-280.17 723.59,-287.18 779.08,-290.89"/>
<polygon fill="#63b8ff" stroke="#63b8ff" points="778.59,-294.37 788.79,-291.52 779.04,-287.38 778.59,-294.37"/>
</a>
</g>
</g>
<!-- Node12 -->
<g id="Node000012" class="node">
<title>Node12</title>
<g id="a_Node000012"><a xlink:href="class_diagram_scene.html#adffd7c14eb320f4e260f6fed731c1809" target="_top" xlink:title=" ">
<polygon fill="white" stroke="#666666" points="745,-258 596.25,-258 596.25,-238 745,-238 745,-258"/>
<text xml:space="preserve" text-anchor="middle" x="670.62" y="-244.5" font-family="Helvetica,sans-Serif" font-size="10.00">DiagramScene::selectElement</text>
</a>
</g>
</g>
<!-- Node5&#45;&gt;Node12 -->
<g id="edge11_Node000005_Node000012" class="edge">
<title>Node5&#45;&gt;Node12</title>
<g id="a_edge11_Node000005_Node000012"><a xlink:title=" ">
<path fill="none" stroke="#63b8ff" d="M537.61,-233.85C552.89,-235.49 569.13,-237.23 584.79,-238.91"/>
<polygon fill="#63b8ff" stroke="#63b8ff" points="584.26,-242.37 594.57,-239.96 585,-235.41 584.26,-242.37"/>
</a>
</g>
</g>
<!-- Node9 -->
<g id="Node000009" class="node">
<title>Node9</title>
<g id="a_Node000009"><a xlink:href="class_diagram_scene.html#a5f3d68221bac825f2b027d638d25fa49" target="_top" xlink:title=" ">
<polygon fill="white" stroke="#666666" points="939.88,-405 806.12,-405 806.12,-373 939.88,-373 939.88,-405"/>
<text xml:space="preserve" text-anchor="start" x="814.12" y="-391.5" font-family="Helvetica,sans-Serif" font-size="10.00">DiagramScene::connection</text>
<text xml:space="preserve" text-anchor="middle" x="873" y="-379.5" font-family="Helvetica,sans-Serif" font-size="10.00">Deselected</text>
</a>
</g>
</g>
<!-- Node8&#45;&gt;Node9 -->
<g id="edge8_Node000008_Node000009" class="edge">
<title>Node8&#45;&gt;Node9</title>
<g id="a_edge8_Node000008_Node000009"><a xlink:title=" ">
<path fill="none" stroke="#63b8ff" d="M725.32,-334.41C734.29,-336.81 743.39,-339.66 751.75,-343 768.95,-349.88 770.75,-356.65 787.75,-364 791.54,-365.64 795.48,-367.21 799.48,-368.72"/>
<polygon fill="#63b8ff" stroke="#63b8ff" points="798.17,-371.96 808.76,-372.02 800.51,-365.37 798.17,-371.96"/>
</a>
</g>
</g>
<!-- Node10 -->
<g id="Node000010" class="node">
<title>Node10</title>
<g id="a_Node000010"><a xlink:href="class_diagram_scene.html#ac397b05d6318f8b7c9366a8b857ed98c" target="_top" xlink:title=" ">
<polygon fill="white" stroke="#666666" points="939.88,-355 806.12,-355 806.12,-323 939.88,-323 939.88,-355"/>
<text xml:space="preserve" text-anchor="start" x="814.12" y="-341.5" font-family="Helvetica,sans-Serif" font-size="10.00">DiagramScene::connection</text>
<text xml:space="preserve" text-anchor="middle" x="873" y="-329.5" font-family="Helvetica,sans-Serif" font-size="10.00">Selected</text>
</a>
</g>
</g>
<!-- Node8&#45;&gt;Node10 -->
<g id="edge9_Node000008_Node000010" class="edge">
<title>Node8&#45;&gt;Node10</title>
<g id="a_edge9_Node000008_Node000010"><a xlink:title=" ">
<path fill="none" stroke="#63b8ff" d="M751.97,-330.01C766.06,-331.07 780.7,-332.16 794.7,-333.21"/>
<polygon fill="#63b8ff" stroke="#63b8ff" points="794.03,-336.67 804.26,-333.93 794.55,-329.69 794.03,-336.67"/>
</a>
</g>
</g>
<!-- Node8&#45;&gt;Node11 -->
<g id="edge10_Node000008_Node000011" class="edge">
<title>Node8&#45;&gt;Node11</title>
<g id="a_edge10_Node000008_Node000011"><a xlink:title=" ">
<path fill="none" stroke="#63b8ff" d="M743.96,-313.53C758.44,-311.44 773.75,-309.22 788.56,-307.08"/>
<polygon fill="#63b8ff" stroke="#63b8ff" points="788.87,-310.57 798.27,-305.67 787.87,-303.64 788.87,-310.57"/>
</a>
</g>
</g>
<!-- Node12&#45;&gt;Node11 -->
<g id="edge17_Node000012_Node000011" class="edge">
<title>Node12&#45;&gt;Node11</title>
<g id="a_edge17_Node000012_Node000011"><a xlink:title=" ">
<path fill="none" stroke="#63b8ff" d="M714.33,-258.46C736.26,-263.79 763.41,-270.32 787.75,-276 796.27,-277.99 805.29,-280.06 814.13,-282.07"/>
<polygon fill="#63b8ff" stroke="#63b8ff" points="813.18,-285.44 823.7,-284.24 814.72,-278.61 813.18,-285.44"/>
</a>
</g>
</g>
<!-- Node13 -->
<g id="Node000013" class="node">
<title>Node13</title>
<g id="a_Node000013"><a xlink:href="class_diagram_scene.html#a065ce2ec3d83e05c486ae418eaf6320f" target="_top" xlink:title=" ">
<polygon fill="white" stroke="#666666" points="958.25,-211 787.75,-211 787.75,-191 958.25,-191 958.25,-211"/>
<text xml:space="preserve" text-anchor="middle" x="873" y="-197.5" font-family="Helvetica,sans-Serif" font-size="10.00">DiagramScene::elementDeselected</text>
</a>
</g>
</g>
<!-- Node12&#45;&gt;Node13 -->
<g id="edge12_Node000012_Node000013" class="edge">
<title>Node12&#45;&gt;Node13</title>
<g id="a_edge12_Node000012_Node000013"><a xlink:title=" ">
<path fill="none" stroke="#63b8ff" d="M716.15,-237.54C727.75,-234.79 740.22,-231.81 751.75,-229 767.77,-225.1 771.7,-223.81 787.75,-220 796.07,-218.02 804.86,-215.98 813.5,-214.01"/>
<polygon fill="#63b8ff" stroke="#63b8ff" points="814.27,-217.42 823.25,-211.79 812.72,-210.6 814.27,-217.42"/>
</a>
</g>
</g>
<!-- Node14 -->
<g id="Node000014" class="node">
<title>Node14</title>
<g id="a_Node000014"><a xlink:href="class_diagram_scene.html#a15719115f3f2f26120243d71999dcfea" target="_top" xlink:title=" ">
<polygon fill="white" stroke="#666666" points="952.62,-173 793.38,-173 793.38,-153 952.62,-153 952.62,-173"/>
<text xml:space="preserve" text-anchor="middle" x="873" y="-159.5" font-family="Helvetica,sans-Serif" font-size="10.00">DiagramScene::elementSelected</text>
</a>
</g>
</g>
<!-- Node12&#45;&gt;Node14 -->
<g id="edge13_Node000012_Node000014" class="edge">
<title>Node12&#45;&gt;Node14</title>
<g id="a_edge13_Node000012_Node000014"><a xlink:title=" ">
<path fill="none" stroke="#63b8ff" d="M734.6,-237.53C740.64,-235.23 746.47,-232.42 751.75,-229 773.83,-214.69 765.59,-196.19 787.75,-182 790.04,-180.53 792.43,-179.18 794.89,-177.93"/>
<polygon fill="#63b8ff" stroke="#63b8ff" points="796.21,-181.17 803.97,-173.96 793.41,-174.76 796.21,-181.17"/>
</a>
</g>
</g>
<!-- Node15 -->
<g id="Node000015" class="node">
<title>Node15</title>
<g id="a_Node000015"><a xlink:href="class_diagram_scene.html#a45f18c15840085ffda39cfc9229a15ee" target="_top" xlink:title=" ">
<polygon fill="white" stroke="#666666" points="953.38,-249 792.62,-249 792.62,-229 953.38,-229 953.38,-249"/>
<text xml:space="preserve" text-anchor="middle" x="873" y="-235.5" font-family="Helvetica,sans-Serif" font-size="10.00">DiagramScene::findGraphicsItem</text>
</a>
</g>
</g>
<!-- Node12&#45;&gt;Node15 -->
<g id="edge14_Node000012_Node000015" class="edge">
<title>Node12&#45;&gt;Node15</title>
<g id="a_edge14_Node000012_Node000015"><a xlink:title=" ">
<path fill="none" stroke="#63b8ff" d="M745.38,-244.69C756.97,-244.17 769.06,-243.62 780.98,-243.09"/>
<polygon fill="#63b8ff" stroke="#63b8ff" points="780.99,-246.59 790.82,-242.65 780.67,-239.6 780.99,-246.59"/>
</a>
</g>
</g>
<!-- Node15&#45;&gt;Node15 -->
<g id="edge16_Node000015_Node000015" class="edge">
<title>Node15&#45;&gt;Node15</title>
<g id="a_edge16_Node000015_Node000015"><a xlink:title=" ">
<path fill="none" stroke="#63b8ff" d="M840.84,-249.34C827.1,-257.98 837.82,-267 873,-267 892.79,-267 904.84,-264.14 909.15,-260.11"/>
<polygon fill="#63b8ff" stroke="#63b8ff" points="912.44,-258.92 905.68,-250.76 905.87,-261.35 912.44,-258.92"/>
</a>
</g>
</g>
<!-- Node16 -->
<g id="Node000016" class="node">
<title>Node16</title>
<g id="a_Node000016"><a xlink:href="class_diagram_scene.html#a4da4018bb57166e46104700d2847c41d" target="_top" xlink:title=" ">
<polygon fill="white" stroke="#666666" points="1147.88,-249 1009.62,-249 1009.62,-229 1147.88,-229 1147.88,-249"/>
<text xml:space="preserve" text-anchor="middle" x="1078.75" y="-235.5" font-family="Helvetica,sans-Serif" font-size="10.00">DiagramScene::findElement</text>
</a>
</g>
</g>
<!-- Node15&#45;&gt;Node16 -->
<g id="edge15_Node000015_Node000016" class="edge">
<title>Node15&#45;&gt;Node16</title>
<g id="a_edge15_Node000015_Node000016"><a xlink:title=" ">
<path fill="none" stroke="#63b8ff" d="M953.65,-239C968.18,-239 983.35,-239 997.89,-239"/>
<polygon fill="#63b8ff" stroke="#63b8ff" points="997.87,-242.5 1007.87,-239 997.87,-235.5 997.87,-242.5"/>
</a>
</g>
</g>
<!-- Node19 -->
<g id="Node000019" class="node">
<title>Node19</title>
<g id="a_Node000019"><a xlink:href="class_diagram_scene.html#af24fc3dc11041bb31e4f0627f0a09e75" target="_top" xlink:title=" ">
<polygon fill="white" stroke="#666666" points="1154.62,-98 1002.88,-98 1002.88,-66 1154.62,-66 1154.62,-98"/>
<text xml:space="preserve" text-anchor="start" x="1010.88" y="-84.5" font-family="Helvetica,sans-Serif" font-size="10.00">DiagramScene::handleAttribute</text>
<text xml:space="preserve" text-anchor="middle" x="1078.75" y="-72.5" font-family="Helvetica,sans-Serif" font-size="10.00">Disconnection</text>
</a>
</g>
</g>
<!-- Node18&#45;&gt;Node19 -->
<g id="edge21_Node000018_Node000019" class="edge">
<title>Node18&#45;&gt;Node19</title>
<g id="a_edge21_Node000018_Node000019"><a xlink:title=" ">
<path fill="none" stroke="#63b8ff" d="M957.46,-96.76C968.67,-95.38 980.19,-93.97 991.45,-92.59"/>
<polygon fill="#63b8ff" stroke="#63b8ff" points="991.59,-96.1 1001.09,-91.41 990.74,-89.15 991.59,-96.1"/>
</a>
</g>
</g>
<!-- Node23 -->
<g id="Node000023" class="node">
<title>Node23</title>
<g id="a_Node000023"><a xlink:href="class_diagram_scene.html#a244ffcbacfc985e542579c0e112cfd52" target="_top" xlink:title=" ">
<polygon fill="white" stroke="#666666" points="1163.25,-148 994.25,-148 994.25,-116 1163.25,-116 1163.25,-148"/>
<text xml:space="preserve" text-anchor="start" x="1002.25" y="-134.5" font-family="Helvetica,sans-Serif" font-size="10.00">DiagramScene::handleRelationship</text>
<text xml:space="preserve" text-anchor="middle" x="1078.75" y="-122.5" font-family="Helvetica,sans-Serif" font-size="10.00">Disconnection</text>
</a>
</g>
</g>
<!-- Node18&#45;&gt;Node23 -->
<g id="edge25_Node000018_Node000023" class="edge">
<title>Node18&#45;&gt;Node23</title>
<g id="a_edge25_Node000018_Node000023"><a xlink:title=" ">
<path fill="none" stroke="#63b8ff" d="M957.46,-117.24C965.7,-118.25 974.1,-119.28 982.44,-120.31"/>
<polygon fill="#63b8ff" stroke="#63b8ff" points="981.91,-123.77 992.26,-121.51 982.76,-116.82 981.91,-123.77"/>
</a>
</g>
</g>
<!-- Node20 -->
<g id="Node000020" class="node">
<title>Node20</title>
<g id="a_Node000020"><a xlink:href="class_connection_line.html#ab11952b505976244aabc575e0ec7b118" target="_top" xlink:title=" ">
<polygon fill="white" stroke="#666666" points="1355.5,-98 1199.25,-98 1199.25,-78 1355.5,-78 1355.5,-98"/>
<text xml:space="preserve" text-anchor="middle" x="1277.38" y="-84.5" font-family="Helvetica,sans-Serif" font-size="10.00">ConnectionLine::getEndElement</text>
</a>
</g>
</g>
<!-- Node19&#45;&gt;Node20 -->
<g id="edge22_Node000019_Node000020" class="edge">
<title>Node19&#45;&gt;Node20</title>
<g id="a_edge22_Node000019_Node000020"><a xlink:title=" ">
<path fill="none" stroke="#63b8ff" d="M1154.93,-84.29C1165.63,-84.62 1176.72,-84.96 1187.65,-85.29"/>
<polygon fill="#63b8ff" stroke="#63b8ff" points="1187.34,-88.78 1197.44,-85.59 1187.56,-81.79 1187.34,-88.78"/>
</a>
</g>
</g>
<!-- Node21 -->
<g id="Node000021" class="node">
<title>Node21</title>
<g id="a_Node000021"><a xlink:href="class_connection_line.html#ad957be37b7bbb9250366225fd357a5a6" target="_top" xlink:title=" ">
<polygon fill="white" stroke="#666666" points="1339.38,-148 1215.38,-148 1215.38,-116 1339.38,-116 1339.38,-148"/>
<text xml:space="preserve" text-anchor="start" x="1223.38" y="-134.5" font-family="Helvetica,sans-Serif" font-size="10.00">ConnectionLine::getStart</text>
<text xml:space="preserve" text-anchor="middle" x="1277.38" y="-122.5" font-family="Helvetica,sans-Serif" font-size="10.00">Element</text>
</a>
</g>
</g>
<!-- Node19&#45;&gt;Node21 -->
<g id="edge23_Node000019_Node000021" class="edge">
<title>Node19&#45;&gt;Node21</title>
<g id="a_edge23_Node000019_Node000021"><a xlink:title=" ">
<path fill="none" stroke="#63b8ff" d="M1144.4,-98.44C1163.49,-103.29 1184.49,-108.64 1204.03,-113.6"/>
<polygon fill="#63b8ff" stroke="#63b8ff" points="1203,-116.95 1213.55,-116.02 1204.72,-110.17 1203,-116.95"/>
</a>
</g>
</g>
<!-- Node22 -->
<g id="Node000022" class="node">
<title>Node22</title>
<g id="a_Node000022"><a xlink:href="class_connection_line.html#aea85162c28f293b1df0cce97d57bb471" target="_top" xlink:title=" ">
<polygon fill="white" stroke="#666666" points="1336.38,-60 1218.38,-60 1218.38,-40 1336.38,-40 1336.38,-60"/>
<text xml:space="preserve" text-anchor="middle" x="1277.38" y="-46.5" font-family="Helvetica,sans-Serif" font-size="10.00">ConnectionLine::isValid</text>
</a>
</g>
</g>
<!-- Node19&#45;&gt;Node22 -->
<g id="edge24_Node000019_Node000022" class="edge">
<title>Node19&#45;&gt;Node22</title>
<g id="a_edge24_Node000019_Node000022"><a xlink:title=" ">
<path fill="none" stroke="#63b8ff" d="M1154.93,-69.77C1172.09,-66.97 1190.25,-64.02 1207.15,-61.27"/>
<polygon fill="#63b8ff" stroke="#63b8ff" points="1207.25,-64.8 1216.56,-59.73 1206.13,-57.89 1207.25,-64.8"/>
</a>
</g>
</g>
<!-- Node23&#45;&gt;Node20 -->
<g id="edge26_Node000023_Node000020" class="edge">
<title>Node23&#45;&gt;Node20</title>
<g id="a_edge26_Node000023_Node000020"><a xlink:title=" ">
<path fill="none" stroke="#63b8ff" d="M1153.25,-115.55C1174.78,-110.73 1198.02,-105.53 1218.44,-100.96"/>
<polygon fill="#63b8ff" stroke="#63b8ff" points="1219,-104.43 1227.99,-98.83 1217.47,-97.6 1219,-104.43"/>
</a>
</g>
</g>
<!-- Node23&#45;&gt;Node21 -->
<g id="edge27_Node000023_Node000021" class="edge">
<title>Node23&#45;&gt;Node21</title>
<g id="a_edge27_Node000023_Node000021"><a xlink:title=" ">
<path fill="none" stroke="#63b8ff" d="M1163.71,-132C1177.03,-132 1190.71,-132 1203.74,-132"/>
<polygon fill="#63b8ff" stroke="#63b8ff" points="1203.49,-135.5 1213.49,-132 1203.49,-128.5 1203.49,-135.5"/>
</a>
</g>
</g>
<!-- Node25 -->
<g id="Node000025" class="node">
<title>Node25</title>
<g id="a_Node000025"><a xlink:href="class_diagram_scene.html#ad8f482915e4991d8ba601f691086fbdc" target="_top" xlink:title=" ">
<polygon fill="white" stroke="#666666" points="748.38,-32 592.88,-32 592.88,0 748.38,0 748.38,-32"/>
<text xml:space="preserve" text-anchor="start" x="600.88" y="-18.5" font-family="Helvetica,sans-Serif" font-size="10.00">DiagramScene::removeAttribute</text>
<text xml:space="preserve" text-anchor="middle" x="670.62" y="-6.5" font-family="Helvetica,sans-Serif" font-size="10.00">FromParents</text>
</a>
</g>
</g>
<!-- Node24&#45;&gt;Node25 -->
<g id="edge29_Node000024_Node000025" class="edge">
<title>Node24&#45;&gt;Node25</title>
<g id="a_edge29_Node000024_Node000025"><a xlink:title=" ">
<path fill="none" stroke="#63b8ff" d="M507.4,-55.52C531.58,-49.63 562.52,-42.09 590.88,-35.18"/>
<polygon fill="#63b8ff" stroke="#63b8ff" points="591.65,-38.6 600.54,-32.83 590,-31.8 591.65,-38.6"/>
</a>
</g>
</g>
<!-- Node26 -->
<g id="Node000026" class="node">
<title>Node26</title>
<g id="a_Node000026"><a xlink:href="class_diagram_scene.html#a0d026405c431d3aca9494d64296bb956" target="_top" xlink:title=" ">
<polygon fill="white" stroke="#666666" points="748,-82 593.25,-82 593.25,-50 748,-50 748,-82"/>
<text xml:space="preserve" text-anchor="start" x="601.25" y="-68.5" font-family="Helvetica,sans-Serif" font-size="10.00">DiagramScene::removeElement</text>
<text xml:space="preserve" text-anchor="middle" x="670.62" y="-56.5" font-family="Helvetica,sans-Serif" font-size="10.00">Connections</text>
</a>
</g>
</g>
<!-- Node24&#45;&gt;Node26 -->
<g id="edge30_Node000024_Node000026" class="edge">
<title>Node24&#45;&gt;Node26</title>
<g id="a_edge30_Node000024_Node000026"><a xlink:title=" ">
<path fill="none" stroke="#63b8ff" d="M541.09,-66C554.35,-66 568.22,-66 581.74,-66"/>
<polygon fill="#63b8ff" stroke="#63b8ff" points="581.49,-69.5 591.48,-66 581.48,-62.5 581.49,-69.5"/>
</a>
</g>
</g>
<!-- Node26&#45;&gt;Node18 -->
<g id="edge32_Node000026_Node000018" class="edge">
<title>Node26&#45;&gt;Node18</title>
<g id="a_edge32_Node000026_Node000018"><a xlink:title=" ">
<path fill="none" stroke="#63b8ff" d="M748.24,-81.68C768.55,-85.83 790.24,-90.27 809.7,-94.25"/>
<polygon fill="#63b8ff" stroke="#63b8ff" points="808.89,-97.66 819.38,-96.23 810.29,-90.8 808.89,-97.66"/>
</a>
</g>
</g>
<!-- Node27 -->
<g id="Node000027" class="node">
<title>Node27</title>
<g id="a_Node000027"><a xlink:href="class_diagram_scene.html#a40c9b85a9f304007a227b9db63178d08" target="_top" xlink:title=" ">
<polygon fill="white" stroke="#666666" points="956,-76 790,-76 790,-56 956,-56 956,-76"/>
<text xml:space="preserve" text-anchor="middle" x="873" y="-62.5" font-family="Helvetica,sans-Serif" font-size="10.00">DiagramScene::getAllConnections</text>
</a>
</g>
</g>
<!-- Node26&#45;&gt;Node27 -->
<g id="edge31_Node000026_Node000027" class="edge">
<title>Node26&#45;&gt;Node27</title>
<g id="a_edge31_Node000026_Node000027"><a xlink:title=" ">
<path fill="none" stroke="#63b8ff" d="M748.24,-66C758.11,-66 768.31,-66 778.41,-66"/>
<polygon fill="#63b8ff" stroke="#63b8ff" points="778.25,-69.5 788.25,-66 778.25,-62.5 778.25,-69.5"/>
</a>
</g>
</g>
</g>
</svg>
