<?xml version="1.0" encoding="UTF-8" standalone="no"?>
<!DOCTYPE svg PUBLIC "-//W3C//DTD SVG 1.1//EN"
 "http://www.w3.org/Graphics/SVG/1.1/DTD/svg11.dtd">
<!-- Generated by graphviz version 14.1.1 (20251213.1925)
 -->
<!-- Title: MainWindow::createFileMenu Pages: 1 -->
<svg width="875pt" height="256pt"
 viewBox="0.00 0.00 875.00 256.00" xmlns="http://www.w3.org/2000/svg" xmlns:xlink="http://www.w3.org/1999/xlink">
<g id="graph0" class="graph" transform="scale(1 1) rotate(0) translate(4 252)">
<title>MainWindow::createFileMenu</title>
<!-- Node1 -->
<g id="Node000001" class="node">
<title>Node1</title>
<g id="a_Node000001"><a xlink:title=" ">
<polygon fill="#999999" stroke="#666666" points="145,-134 0,-134 0,-114 145,-114 145,-134"/>
<text xml:space="preserve" text-anchor="middle" x="72.5" y="-120.5" font-family="Helvetica,sans-Serif" font-size="10.00">MainWindow::createFileMenu</text>
</a>
</g>
</g>
<!-- Node2 -->
<g id="Node000002" class="node">
<title>Node2</title>
<g id="a_Node000002"><a xlink:href="class_main_window.html#adc645337d8ad9b2b9300f13e251fb5cb" target="_top" xlink:title=" ">
<polygon fill="white" stroke="#666666" points="318.5,-248 185.5,-248 185.5,-228 318.5,-228 318.5,-248"/>
<text xml:space="preserve" text-anchor="middle" x="252" y="-234.5" font-family="Helvetica,sans-Serif" font-size="10.00">MainWindow::createAction</text>
</a>
</g>
</g>
<!-- Node1&#45;&gt;Node2 -->
<g id="edge1_Node000001_Node000002" class="edge">
<title>Node1&#45;&gt;Node2</title>
<g id="a_edge1_Node000001_Node000002"><a xlink:title=" ">
<path fill="none" stroke="#63b8ff" d="M82.14,-134.28C99.07,-153.78 138.69,-196.19 181,-219 184.06,-220.65 187.27,-222.16 190.57,-223.55"/>
<polygon fill="#63b8ff" stroke="#63b8ff" points="189.31,-226.82 199.9,-227.05 191.77,-220.26 189.31,-226.82"/>
</a>
</g>
</g>
<!-- Node3 -->
<g id="Node000003" class="node">
<title>Node3</title>
<g id="a_Node000003"><a xlink:href="class_main_window.html#ab1ad4dd7adf6066b3c4cc3b7154eaf65" target="_top" xlink:title=" ">
<polygon fill="white" stroke="#666666" points="323,-210 181,-210 181,-190 323,-190 323,-210"/>
<text xml:space="preserve" text-anchor="middle" x="252" y="-196.5" font-family="Helvetica,sans-Serif" font-size="10.00">MainWindow::exitApplication</text>
</a>
</g>
</g>
<!-- Node1&#45;&gt;Node3 -->
<g id="edge2_Node000001_Node000003" class="edge">
<title>Node1&#45;&gt;Node3</title>
<g id="a_edge2_Node000001_Node000003"><a xlink:title=" ">
<path fill="none" stroke="#63b8ff" d="M92.99,-134.31C114.28,-145.36 149.56,-163.06 181,-176 189.35,-179.44 198.4,-182.8 207.13,-185.86"/>
<polygon fill="#63b8ff" stroke="#63b8ff" points="205.91,-189.15 216.5,-189.08 208.18,-182.52 205.91,-189.15"/>
</a>
</g>
</g>
<!-- Node4 -->
<g id="Node000004" class="node">
<title>Node4</title>
<g id="a_Node000004"><a xlink:href="class_main_window.html#a1d019681beef43511b35dec6f27d2077" target="_top" xlink:title=" ">
<polygon fill="white" stroke="#666666" points="501,-134 359,-134 359,-114 501,-114 501,-134"/>
<text xml:space="preserve" text-anchor="middle" x="430" y="-120.5" font-family="Helvetica,sans-Serif" font-size="10.00">MainWindow::exportDiagram</text>
</a>
</g>
</g>
<!-- Node1&#45;&gt;Node4 -->
<g id="edge3_Node000001_Node000004" class="edge">
<title>Node1&#45;&gt;Node4</title>
<g id="a_edge3_Node000001_Node000004"><a xlink:title=" ">
<path fill="none" stroke="#63b8ff" d="M145.44,-124C203.86,-124 286.26,-124 347.18,-124"/>
<polygon fill="#63b8ff" stroke="#63b8ff" points="347.17,-127.5 357.17,-124 347.17,-120.5 347.17,-127.5"/>
</a>
</g>
</g>
<!-- Node6 -->
<g id="Node000006" class="node">
<title>Node6</title>
<g id="a_Node000006"><a xlink:href="class_main_window.html#a69f73b93cc05c89a9ae1be0161105982" target="_top" xlink:title=" ">
<polygon fill="white" stroke="#666666" points="308,-58 196,-58 196,-38 308,-38 308,-58"/>
<text xml:space="preserve" text-anchor="middle" x="252" y="-44.5" font-family="Helvetica,sans-Serif" font-size="10.00">MainWindow::newFile</text>
</a>
</g>
</g>
<!-- Node1&#45;&gt;Node6 -->
<g id="edge5_Node000001_Node000006" class="edge">
<title>Node1&#45;&gt;Node6</title>
<g id="a_edge5_Node000001_Node000006"><a xlink:title=" ">
<path fill="none" stroke="#63b8ff" d="M92.99,-113.69C114.28,-102.64 149.56,-84.94 181,-72 189.35,-68.56 198.4,-65.2 207.13,-62.14"/>
<polygon fill="#63b8ff" stroke="#63b8ff" points="208.18,-65.48 216.5,-58.92 205.91,-58.85 208.18,-65.48"/>
</a>
</g>
</g>
<!-- Node7 -->
<g id="Node000007" class="node">
<title>Node7</title>
<g id="a_Node000007"><a xlink:href="class_main_window.html#a464aaa4d378e7b2d814756a73d6e1ed6" target="_top" xlink:title=" ">
<polygon fill="white" stroke="#666666" points="487.5,-96 372.5,-96 372.5,-76 487.5,-76 487.5,-96"/>
<text xml:space="preserve" text-anchor="middle" x="430" y="-82.5" font-family="Helvetica,sans-Serif" font-size="10.00">MainWindow::saveFile</text>
</a>
</g>
</g>
<!-- Node1&#45;&gt;Node7 -->
<g id="edge16_Node000001_Node000007" class="edge">
<title>Node1&#45;&gt;Node7</title>
<g id="a_edge16_Node000001_Node000007"><a xlink:title=" ">
<path fill="none" stroke="#63b8ff" d="M145.44,-116.31C208.37,-109.58 299.13,-99.88 360.9,-93.28"/>
<polygon fill="#63b8ff" stroke="#63b8ff" points="361.01,-96.79 370.58,-92.24 360.26,-89.83 361.01,-96.79"/>
</a>
</g>
</g>
<!-- Node8 -->
<g id="Node000008" class="node">
<title>Node8</title>
<g id="a_Node000008"><a xlink:href="class_main_window.html#ace1b7624a64f4d70513b86601e5846f9" target="_top" xlink:title=" ">
<polygon fill="white" stroke="#666666" points="676,-172 549,-172 549,-152 676,-152 676,-172"/>
<text xml:space="preserve" text-anchor="middle" x="612.5" y="-158.5" font-family="Helvetica,sans-Serif" font-size="10.00">MainWindow::saveAsFile</text>
</a>
</g>
</g>
<!-- Node1&#45;&gt;Node8 -->
<g id="edge15_Node000001_Node000008" class="edge">
<title>Node1&#45;&gt;Node8</title>
<g id="a_edge15_Node000001_Node000008"><a xlink:title=" ">
<path fill="none" stroke="#63b8ff" d="M145.41,-134.11C157.28,-135.57 169.47,-136.93 181,-138 305.7,-149.58 451.29,-156.28 537.19,-159.52"/>
<polygon fill="#63b8ff" stroke="#63b8ff" points="537.02,-163.02 547.14,-159.89 537.28,-156.02 537.02,-163.02"/>
</a>
</g>
</g>
<!-- Node10 -->
<g id="Node000010" class="node">
<title>Node10</title>
<g id="a_Node000010"><a xlink:href="class_main_window.html#a288b768c3c21a9171bdc56fe845ece8b" target="_top" xlink:title=" ">
<polygon fill="white" stroke="#666666" points="309.5,-20 194.5,-20 194.5,0 309.5,0 309.5,-20"/>
<text xml:space="preserve" text-anchor="middle" x="252" y="-6.5" font-family="Helvetica,sans-Serif" font-size="10.00">MainWindow::openFile</text>
</a>
</g>
</g>
<!-- Node1&#45;&gt;Node10 -->
<g id="edge12_Node000001_Node000010" class="edge">
<title>Node1&#45;&gt;Node10</title>
<g id="a_edge12_Node000001_Node000010"><a xlink:title=" ">
<path fill="none" stroke="#63b8ff" d="M82.14,-113.72C99.07,-94.22 138.69,-51.81 181,-29 184.06,-27.35 187.27,-25.84 190.57,-24.45"/>
<polygon fill="#63b8ff" stroke="#63b8ff" points="191.77,-27.74 199.9,-20.95 189.31,-21.18 191.77,-27.74"/>
</a>
</g>
</g>
<!-- Node5 -->
<g id="Node000005" class="node">
<title>Node5</title>
<g id="a_Node000005"><a xlink:href="class_main_window.html#a51ab21a1be4a1389a00bdb35feee8d64" target="_top" xlink:title=" ">
<polygon fill="white" stroke="#666666" points="688,-134 537,-134 537,-114 688,-114 688,-134"/>
<text xml:space="preserve" text-anchor="middle" x="612.5" y="-120.5" font-family="Helvetica,sans-Serif" font-size="10.00">MainWindow::updateStatusBar</text>
</a>
</g>
</g>
<!-- Node4&#45;&gt;Node5 -->
<g id="edge4_Node000004_Node000005" class="edge">
<title>Node4&#45;&gt;Node5</title>
<g id="a_edge4_Node000004_Node000005"><a xlink:title=" ">
<path fill="none" stroke="#63b8ff" d="M501.3,-124C509.17,-124 517.26,-124 525.3,-124"/>
<polygon fill="#63b8ff" stroke="#63b8ff" points="525.1,-127.5 535.1,-124 525.1,-120.5 525.1,-127.5"/>
</a>
</g>
</g>
<!-- Node6&#45;&gt;Node7 -->
<g id="edge6_Node000006_Node000007" class="edge">
<title>Node6&#45;&gt;Node7</title>
<g id="a_edge6_Node000006_Node000007"><a xlink:title=" ">
<path fill="none" stroke="#63b8ff" d="M301.56,-58.48C322.62,-63.03 347.49,-68.4 369.64,-73.18"/>
<polygon fill="#63b8ff" stroke="#63b8ff" points="368.61,-76.54 379.12,-75.23 370.08,-69.7 368.61,-76.54"/>
</a>
</g>
</g>
<!-- Node9 -->
<g id="Node000009" class="node">
<title>Node9</title>
<g id="a_Node000009"><a xlink:href="class_main_window.html#a90cfbcf2e0f2549760a60f184ee0acbf" target="_top" xlink:title=" ">
<polygon fill="white" stroke="#666666" points="866.75,-83 724,-83 724,-51 866.75,-51 866.75,-83"/>
<text xml:space="preserve" text-anchor="start" x="732" y="-69.5" font-family="Helvetica,sans-Serif" font-size="10.00">MainWindow::updateWindow</text>
<text xml:space="preserve" text-anchor="middle" x="795.38" y="-57.5" font-family="Helvetica,sans-Serif" font-size="10.00">Title</text>
</a>
</g>
</g>
<!-- Node6&#45;&gt;Node9 -->
<g id="edge11_Node000006_Node000009" class="edge">
<title>Node6&#45;&gt;Node9</title>
<g id="a_edge11_Node000006_Node000009"><a xlink:title=" ">
<path fill="none" stroke="#63b8ff" d="M308.39,-49.94C404.14,-53.3 601.03,-60.21 712.58,-64.13"/>
<polygon fill="#63b8ff" stroke="#63b8ff" points="712.13,-67.62 722.25,-64.47 712.38,-60.62 712.13,-67.62"/>
</a>
</g>
</g>
<!-- Node7&#45;&gt;Node5 -->
<g id="edge9_Node000007_Node000005" class="edge">
<title>Node7&#45;&gt;Node5</title>
<g id="a_edge9_Node000007_Node000005"><a xlink:title=" ">
<path fill="none" stroke="#63b8ff" d="M480.8,-96.48C502.4,-101.03 527.9,-106.4 550.62,-111.18"/>
<polygon fill="#63b8ff" stroke="#63b8ff" points="549.87,-114.6 560.38,-113.24 551.32,-107.75 549.87,-114.6"/>
</a>
</g>
</g>
<!-- Node7&#45;&gt;Node8 -->
<g id="edge7_Node000007_Node000008" class="edge">
<title>Node7&#45;&gt;Node8</title>
<g id="a_edge7_Node000007_Node000008"><a xlink:title=" ">
<path fill="none" stroke="#63b8ff" d="M482.43,-96.43C488.91,-98.76 495.27,-101.58 501,-105 520.97,-116.94 516.94,-131.22 537,-143 539.66,-144.56 542.45,-146 545.32,-147.32"/>
<polygon fill="#63b8ff" stroke="#63b8ff" points="544,-150.56 554.58,-151.03 546.6,-144.06 544,-150.56"/>
</a>
</g>
</g>
<!-- Node7&#45;&gt;Node9 -->
<g id="edge10_Node000007_Node000009" class="edge">
<title>Node7&#45;&gt;Node9</title>
<g id="a_edge10_Node000007_Node000009"><a xlink:title=" ">
<path fill="none" stroke="#63b8ff" d="M487.78,-83.03C548.09,-79.88 644.01,-74.86 712.49,-71.28"/>
<polygon fill="#63b8ff" stroke="#63b8ff" points="712.35,-74.79 722.15,-70.78 711.99,-67.8 712.35,-74.79"/>
</a>
</g>
</g>
<!-- Node8&#45;&gt;Node9 -->
<g id="edge8_Node000008_Node000009" class="edge">
<title>Node8&#45;&gt;Node9</title>
<g id="a_edge8_Node000008_Node000009"><a xlink:title=" ">
<path fill="none" stroke="#63b8ff" d="M664.87,-151.58C672.79,-149.21 680.74,-146.38 688,-143 717.27,-129.4 746.85,-107.45 767.36,-90.63"/>
<polygon fill="#63b8ff" stroke="#63b8ff" points="769.53,-93.38 774.95,-84.28 765.04,-88.01 769.53,-93.38"/>
</a>
</g>
</g>
<!-- Node10&#45;&gt;Node7 -->
<g id="edge13_Node000010_Node000007" class="edge">
<title>Node10&#45;&gt;Node7</title>
<g id="a_edge13_Node000010_Node000007"><a xlink:title=" ">
<path fill="none" stroke="#63b8ff" d="M297.56,-20.45C306.12,-22.92 314.93,-25.78 323,-29 351.39,-40.32 381.95,-57.31 402.93,-69.8"/>
<polygon fill="#63b8ff" stroke="#63b8ff" points="401.02,-72.74 411.38,-74.91 404.64,-66.74 401.02,-72.74"/>
</a>
</g>
</g>
<!-- Node10&#45;&gt;Node9 -->
<g id="edge14_Node000010_Node000009" class="edge">
<title>Node10&#45;&gt;Node9</title>
<g id="a_edge14_Node000010_Node000009"><a xlink:title=" ">
<path fill="none" stroke="#63b8ff" d="M309.7,-15.36C392.76,-23.29 552.4,-38.86 688,-54 695.95,-54.89 704.22,-55.84 712.49,-56.82"/>
<polygon fill="#63b8ff" stroke="#63b8ff" points="711.89,-60.27 722.23,-57.98 712.71,-53.32 711.89,-60.27"/>
</a>
</g>
</g>
</g>
</svg>
