<?xml version="1.0" encoding="UTF-8" standalone="no"?>
<!DOCTYPE svg PUBLIC "-//W3C//DTD SVG 1.1//EN"
 "http://www.w3.org/Graphics/SVG/1.1/DTD/svg11.dtd">
<!-- Generated by graphviz version 14.1.1 (20251213.1925)
 -->
<!-- Title: ConnectionGraphicsItem::updateFromConnection Pages: 1 -->
<svg width="701pt" height="118pt"
 viewBox="0.00 0.00 701.00 118.00" xmlns="http://www.w3.org/2000/svg" xmlns:xlink="http://www.w3.org/1999/xlink">
<g id="graph0" class="graph" transform="scale(1 1) rotate(0) translate(4 114)">
<title>ConnectionGraphicsItem::updateFromConnection</title>
<!-- Node1 -->
<g id="Node000001" class="node">
<title>Node1</title>
<g id="a_Node000001"><a xlink:title=" ">
<polygon fill="#999999" stroke="#666666" points="693.25,-82 569.25,-82 569.25,-50 693.25,-50 693.25,-82"/>
<text xml:space="preserve" text-anchor="start" x="577.25" y="-68.5" font-family="Helvetica,sans-Serif" font-size="10.00">ConnectionGraphicsItem</text>
<text xml:space="preserve" text-anchor="middle" x="631.25" y="-56.5" font-family="Helvetica,sans-Serif" font-size="10.00">::updateFromConnection</text>
</a>
</g>
</g>
<!-- Node2 -->
<g id="Node000002" class="node">
<title>Node2</title>
<g id="a_Node000002"><a xlink:href="class_connection_graphics_item.html#ab32d398765f9a4cd314e866585ac273d" target="_top" xlink:title=" ">
<polygon fill="white" stroke="#666666" points="353,-104 223,-104 223,-72 353,-72 353,-104"/>
<text xml:space="preserve" text-anchor="start" x="231" y="-90.5" font-family="Helvetica,sans-Serif" font-size="10.00">ConnectionGraphicsItem</text>
<text xml:space="preserve" text-anchor="middle" x="288" y="-78.5" font-family="Helvetica,sans-Serif" font-size="10.00">::ConnectionGraphicsItem</text>
</a>
</g>
</g>
<!-- Node1&#45;&gt;Node2 -->
<g id="edge1_Node000001_Node000002" class="edge">
<title>Node1&#45;&gt;Node2</title>
<g id="a_edge1_Node000001_Node000002"><a xlink:title=" ">
<path fill="none" stroke="#63b8ff" d="M565.39,-85.11C554.74,-87.56 543.75,-89.67 533.25,-91 472.56,-98.69 402.72,-96.77 353.3,-93.61"/>
<polygon fill="#63b8ff" stroke="#63b8ff" points="565.97,-88.57 574.87,-82.82 564.32,-81.77 565.97,-88.57"/>
</a>
</g>
</g>
<!-- Node4 -->
<g id="Node000004" class="node">
<title>Node4</title>
<g id="a_Node000004"><a xlink:href="class_connection_graphics_item.html#ae2812529f5397be162547beaef4b9c51" target="_top" xlink:title=" ">
<polygon fill="white" stroke="#666666" points="524.62,-82 400.62,-82 400.62,-50 524.62,-50 524.62,-82"/>
<text xml:space="preserve" text-anchor="start" x="408.62" y="-68.5" font-family="Helvetica,sans-Serif" font-size="10.00">ConnectionGraphicsItem</text>
<text xml:space="preserve" text-anchor="middle" x="462.62" y="-56.5" font-family="Helvetica,sans-Serif" font-size="10.00">::connectToConnection</text>
</a>
</g>
</g>
<!-- Node1&#45;&gt;Node4 -->
<g id="edge3_Node000001_Node000004" class="edge">
<title>Node1&#45;&gt;Node4</title>
<g id="a_edge3_Node000001_Node000004"><a xlink:title=" ">
<path fill="none" stroke="#63b8ff" d="M557.86,-66C546.9,-66 535.69,-66 525,-66"/>
<polygon fill="#63b8ff" stroke="#63b8ff" points="557.64,-69.5 567.64,-66 557.64,-62.5 557.64,-69.5"/>
</a>
</g>
</g>
<!-- Node5 -->
<g id="Node000005" class="node">
<title>Node5</title>
<g id="a_Node000005"><a xlink:href="class_connection_graphics_item.html#a72e7dac6ba526930e9c71d2aac9b9fd2" target="_top" xlink:title=" ">
<polygon fill="white" stroke="#666666" points="533.25,-32 392,-32 392,0 533.25,0 533.25,-32"/>
<text xml:space="preserve" text-anchor="start" x="400" y="-18.5" font-family="Helvetica,sans-Serif" font-size="10.00">ConnectionGraphicsItem</text>
<text xml:space="preserve" text-anchor="middle" x="462.62" y="-6.5" font-family="Helvetica,sans-Serif" font-size="10.00">::disconnectFromConnection</text>
</a>
</g>
</g>
<!-- Node1&#45;&gt;Node5 -->
<g id="edge5_Node000001_Node000005" class="edge">
<title>Node1&#45;&gt;Node5</title>
<g id="a_edge5_Node000001_Node000005"><a xlink:title=" ">
<path fill="none" stroke="#63b8ff" d="M564.75,-46.34C549.47,-41.76 533.36,-36.92 518.59,-32.49"/>
<polygon fill="#63b8ff" stroke="#63b8ff" points="563.66,-49.67 574.24,-49.19 565.67,-42.97 563.66,-49.67"/>
</a>
</g>
</g>
<!-- Node3 -->
<g id="Node000003" class="node">
<title>Node3</title>
<g id="a_Node000003"><a xlink:href="class_relationship_connection_line_graphics_item.html#a55839fb084501f42fc8a6e7f08cff4ba" target="_top" xlink:title=" ">
<polygon fill="white" stroke="#666666" points="184,-110 0,-110 0,-66 184,-66 184,-110"/>
<text xml:space="preserve" text-anchor="start" x="8" y="-96.5" font-family="Helvetica,sans-Serif" font-size="10.00">RelationshipConnectionLine</text>
<text xml:space="preserve" text-anchor="start" x="8" y="-84.5" font-family="Helvetica,sans-Serif" font-size="10.00">GraphicsItem::RelationshipConnection</text>
<text xml:space="preserve" text-anchor="middle" x="92" y="-72.5" font-family="Helvetica,sans-Serif" font-size="10.00">LineGraphicsItem</text>
</a>
</g>
</g>
<!-- Node2&#45;&gt;Node3 -->
<g id="edge2_Node000002_Node000003" class="edge">
<title>Node2&#45;&gt;Node3</title>
<g id="a_edge2_Node000002_Node000003"><a xlink:title=" ">
<path fill="none" stroke="#63b8ff" d="M211.29,-88C202.5,-88 193.47,-88 184.5,-88"/>
<polygon fill="#63b8ff" stroke="#63b8ff" points="211.16,-91.5 221.16,-88 211.16,-84.5 211.16,-91.5"/>
</a>
</g>
</g>
<!-- Node4&#45;&gt;Node2 -->
<g id="edge4_Node000004_Node000002" class="edge">
<title>Node4&#45;&gt;Node2</title>
<g id="a_edge4_Node000004_Node000002"><a xlink:title=" ">
<path fill="none" stroke="#63b8ff" d="M389.05,-75.25C377.2,-76.76 365,-78.31 353.36,-79.8"/>
<polygon fill="#63b8ff" stroke="#63b8ff" points="389.3,-78.75 398.78,-74.01 388.41,-71.8 389.3,-78.75"/>
</a>
</g>
</g>
<!-- Node6 -->
<g id="Node000006" class="node">
<title>Node6</title>
<g id="a_Node000006"><a xlink:href="class_connection_graphics_item.html#a483aaf1b7f1dc4f19a279e56c1adaf74" target="_top" xlink:title=" ">
<polygon fill="white" stroke="#666666" points="356,-32 220,-32 220,0 356,0 356,-32"/>
<text xml:space="preserve" text-anchor="start" x="228" y="-18.5" font-family="Helvetica,sans-Serif" font-size="10.00">ConnectionGraphicsItem</text>
<text xml:space="preserve" text-anchor="middle" x="288" y="-6.5" font-family="Helvetica,sans-Serif" font-size="10.00">::~ConnectionGraphicsItem</text>
</a>
</g>
</g>
<!-- Node5&#45;&gt;Node6 -->
<g id="edge6_Node000005_Node000006" class="edge">
<title>Node5&#45;&gt;Node6</title>
<g id="a_edge6_Node000005_Node000006"><a xlink:title=" ">
<path fill="none" stroke="#63b8ff" d="M380.57,-16C372.5,-16 364.37,-16 356.45,-16"/>
<polygon fill="#63b8ff" stroke="#63b8ff" points="380.4,-19.5 390.4,-16 380.4,-12.5 380.4,-19.5"/>
</a>
</g>
</g>
</g>
</svg>
