<?xml version="1.0" encoding="UTF-8" standalone="no"?>
<!DOCTYPE svg PUBLIC "-//W3C//DTD SVG 1.1//EN"
 "http://www.w3.org/Graphics/SVG/1.1/DTD/svg11.dtd">
<!-- Generated by graphviz version 14.1.1 (20251213.1925)
 -->
<!-- Title: BasicElement::removeAttributeId Pages: 1 -->
<svg width="2098pt" height="704pt"
 viewBox="0.00 0.00 2098.00 704.00" xmlns="http://www.w3.org/2000/svg" xmlns:xlink="http://www.w3.org/1999/xlink">
<g id="graph0" class="graph" transform="scale(1 1) rotate(0) translate(4 700)">
<title>BasicElement::removeAttributeId</title>
<!-- Node1 -->
<g id="Node000001" class="node">
<title>Node1</title>
<g id="a_Node000001"><a xlink:title=" ">
<polygon fill="#999999" stroke="#666666" points="2089.5,-356 1929.5,-356 1929.5,-336 2089.5,-336 2089.5,-356"/>
<text xml:space="preserve" text-anchor="middle" x="2009.5" y="-342.5" font-family="Helvetica,sans-Serif" font-size="10.00">BasicElement::removeAttributeId</text>
</a>
</g>
</g>
<!-- Node2 -->
<g id="Node000002" class="node">
<title>Node2</title>
<g id="a_Node000002"><a xlink:href="class_properties_panel.html#a8a2ec0bcba44f3bbd0245d3a53ff49f7" target="_top" xlink:title=" ">
<polygon fill="white" stroke="#666666" points="1893.5,-362 1755.25,-362 1755.25,-330 1893.5,-330 1893.5,-362"/>
<text xml:space="preserve" text-anchor="start" x="1763.25" y="-348.5" font-family="Helvetica,sans-Serif" font-size="10.00">PropertiesPanel::onRemove</text>
<text xml:space="preserve" text-anchor="middle" x="1824.38" y="-336.5" font-family="Helvetica,sans-Serif" font-size="10.00">AttributeOnTreeClicked</text>
</a>
</g>
</g>
<!-- Node1&#45;&gt;Node2 -->
<g id="edge1_Node000001_Node000002" class="edge">
<title>Node1&#45;&gt;Node2</title>
<g id="a_edge1_Node000001_Node000002"><a xlink:title=" ">
<path fill="none" stroke="#63b8ff" d="M1917.85,-346C1909.77,-346 1901.68,-346 1893.83,-346"/>
<polygon fill="#63b8ff" stroke="#63b8ff" points="1917.73,-349.5 1927.73,-346 1917.73,-342.5 1917.73,-349.5"/>
</a>
</g>
</g>
<!-- Node3 -->
<g id="Node000003" class="node">
<title>Node3</title>
<g id="a_Node000003"><a xlink:href="class_properties_panel.html#a90cca2a241daa84841ee3e90d7768c8f" target="_top" xlink:title=" ">
<polygon fill="white" stroke="#666666" points="1719.25,-535 1572.75,-535 1572.75,-503 1719.25,-503 1719.25,-535"/>
<text xml:space="preserve" text-anchor="start" x="1580.75" y="-521.5" font-family="Helvetica,sans-Serif" font-size="10.00">PropertiesPanel::createButton</text>
<text xml:space="preserve" text-anchor="middle" x="1646" y="-509.5" font-family="Helvetica,sans-Serif" font-size="10.00">PropertyItem</text>
</a>
</g>
</g>
<!-- Node2&#45;&gt;Node3 -->
<g id="edge2_Node000002_Node000003" class="edge">
<title>Node2&#45;&gt;Node3</title>
<g id="a_edge2_Node000002_Node000003"><a xlink:title=" ">
<path fill="none" stroke="#63b8ff" d="M1798.63,-370.27C1762.15,-406.06 1694.86,-472.05 1663.68,-502.64"/>
<polygon fill="#63b8ff" stroke="#63b8ff" points="1801.01,-372.84 1805.7,-363.34 1796.11,-367.84 1801.01,-372.84"/>
</a>
</g>
</g>
<!-- Node4 -->
<g id="Node000004" class="node">
<title>Node4</title>
<g id="a_Node000004"><a xlink:href="class_properties_panel.html#a050a4a9040c7aeefde9c1377d2e1909e" target="_top" xlink:title=" ">
<polygon fill="white" stroke="#666666" points="1536.75,-557 1409,-557 1409,-525 1536.75,-525 1536.75,-557"/>
<text xml:space="preserve" text-anchor="start" x="1417" y="-543.5" font-family="Helvetica,sans-Serif" font-size="10.00">PropertiesPanel::populate</text>
<text xml:space="preserve" text-anchor="middle" x="1472.88" y="-531.5" font-family="Helvetica,sans-Serif" font-size="10.00">AttributeList</text>
</a>
</g>
</g>
<!-- Node3&#45;&gt;Node4 -->
<g id="edge3_Node000003_Node000004" class="edge">
<title>Node3&#45;&gt;Node4</title>
<g id="a_edge3_Node000003_Node000004"><a xlink:title=" ">
<path fill="none" stroke="#63b8ff" d="M1561.06,-529.79C1552.99,-530.83 1544.91,-531.87 1537.08,-532.87"/>
<polygon fill="#63b8ff" stroke="#63b8ff" points="1561.45,-533.27 1570.93,-528.52 1560.56,-526.33 1561.45,-533.27"/>
</a>
</g>
</g>
<!-- Node5 -->
<g id="Node000005" class="node">
<title>Node5</title>
<g id="a_Node000005"><a xlink:href="class_properties_panel.html#acc5a2b4e63ea74eaa34853f1cec46b81" target="_top" xlink:title=" ">
<polygon fill="white" stroke="#666666" points="1373,-563 1245.25,-563 1245.25,-531 1373,-531 1373,-563"/>
<text xml:space="preserve" text-anchor="start" x="1253.25" y="-549.5" font-family="Helvetica,sans-Serif" font-size="10.00">PropertiesPanel::populate</text>
<text xml:space="preserve" text-anchor="middle" x="1309.12" y="-537.5" font-family="Helvetica,sans-Serif" font-size="10.00">AttributeProperties</text>
</a>
</g>
</g>
<!-- Node3&#45;&gt;Node5 -->
<g id="edge45_Node000003_Node000005" class="edge">
<title>Node3&#45;&gt;Node5</title>
<g id="a_edge45_Node000003_Node000005"><a xlink:title=" ">
<path fill="none" stroke="#63b8ff" d="M1606.22,-540.45C1586.14,-550.35 1560.84,-561 1536.75,-566 1482.24,-577.32 1419.03,-570.41 1373.24,-561.91"/>
<polygon fill="#63b8ff" stroke="#63b8ff" points="1607.53,-543.71 1614.87,-536.06 1604.37,-537.47 1607.53,-543.71"/>
</a>
</g>
</g>
<!-- Node11 -->
<g id="Node000011" class="node">
<title>Node11</title>
<g id="a_Node000011"><a xlink:href="class_properties_panel.html#aeb116e2e51099f618b5d284e492bc0e2" target="_top" xlink:title=" ">
<polygon fill="white" stroke="#666666" points="127.75,-576 0,-576 0,-544 127.75,-544 127.75,-576"/>
<text xml:space="preserve" text-anchor="start" x="8" y="-562.5" font-family="Helvetica,sans-Serif" font-size="10.00">PropertiesPanel::populate</text>
<text xml:space="preserve" text-anchor="middle" x="63.88" y="-550.5" font-family="Helvetica,sans-Serif" font-size="10.00">RelationshipProperties</text>
</a>
</g>
</g>
<!-- Node3&#45;&gt;Node11 -->
<g id="edge47_Node000003_Node000011" class="edge">
<title>Node3&#45;&gt;Node11</title>
<g id="a_edge47_Node000003_Node000011"><a xlink:title=" ">
<path fill="none" stroke="#63b8ff" d="M1620.18,-543.15C1567.65,-591.58 1439.42,-696 1310.12,-696 1310.12,-696 1310.12,-696 417.38,-696 301.74,-696 268.05,-687.92 163.75,-638 131.01,-622.33 99.16,-594.19 80.81,-576.33"/>
<polygon fill="#63b8ff" stroke="#63b8ff" points="1622.51,-545.76 1627.42,-536.37 1617.73,-540.65 1622.51,-545.76"/>
</a>
</g>
</g>
<!-- Node24 -->
<g id="Node000024" class="node">
<title>Node24</title>
<g id="a_Node000024"><a xlink:href="class_properties_panel.html#a6a4344308af5b2c993bc25981529239c" target="_top" xlink:title=" ">
<polygon fill="white" stroke="#666666" points="1373,-513 1245.25,-513 1245.25,-481 1373,-481 1373,-513"/>
<text xml:space="preserve" text-anchor="start" x="1253.25" y="-499.5" font-family="Helvetica,sans-Serif" font-size="10.00">PropertiesPanel::populate</text>
<text xml:space="preserve" text-anchor="middle" x="1309.12" y="-487.5" font-family="Helvetica,sans-Serif" font-size="10.00">EntityProperties</text>
</a>
</g>
</g>
<!-- Node3&#45;&gt;Node24 -->
<g id="edge46_Node000003_Node000024" class="edge">
<title>Node3&#45;&gt;Node24</title>
<g id="a_edge46_Node000003_Node000024"><a xlink:title=" ">
<path fill="none" stroke="#63b8ff" d="M1560.94,-513.48C1502.72,-509.65 1426.43,-504.64 1373.34,-501.15"/>
<polygon fill="#63b8ff" stroke="#63b8ff" points="1560.62,-516.96 1570.83,-514.13 1561.08,-509.98 1560.62,-516.96"/>
</a>
</g>
</g>
<!-- Node4&#45;&gt;Node5 -->
<g id="edge4_Node000004_Node000005" class="edge">
<title>Node4&#45;&gt;Node5</title>
<g id="a_edge4_Node000004_Node000005"><a xlink:title=" ">
<path fill="none" stroke="#63b8ff" d="M1397.58,-537.03C1389.53,-537.28 1381.39,-537.62 1373.49,-538.04"/>
<polygon fill="#63b8ff" stroke="#63b8ff" points="1397.46,-540.53 1407.36,-536.77 1397.28,-533.53 1397.46,-540.53"/>
</a>
</g>
</g>
<!-- Node4&#45;&gt;Node11 -->
<g id="edge44_Node000004_Node000011" class="edge">
<title>Node4&#45;&gt;Node11</title>
<g id="a_edge44_Node000004_Node000011"><a xlink:title=" ">
<path fill="none" stroke="#63b8ff" d="M1436.19,-563.06C1377.85,-596.97 1257.41,-658 1146.38,-658 1146.38,-658 1146.38,-658 417.38,-658 297.01,-658 161.69,-604.3 99.51,-576.4"/>
<polygon fill="#63b8ff" stroke="#63b8ff" points="1437.87,-566.13 1444.71,-558.04 1434.32,-560.1 1437.87,-566.13"/>
</a>
</g>
</g>
<!-- Node4&#45;&gt;Node24 -->
<g id="edge42_Node000004_Node000024" class="edge">
<title>Node4&#45;&gt;Node24</title>
<g id="a_edge42_Node000004_Node000024"><a xlink:title=" ">
<path fill="none" stroke="#63b8ff" d="M1400.84,-521.68C1390.78,-518.94 1380.51,-516.15 1370.67,-513.47"/>
<polygon fill="#63b8ff" stroke="#63b8ff" points="1399.62,-524.97 1410.18,-524.22 1401.45,-518.22 1399.62,-524.97"/>
</a>
</g>
</g>
<!-- Node5&#45;&gt;Node4 -->
<g id="edge5_Node000005_Node000004" class="edge">
<title>Node5&#45;&gt;Node4</title>
<g id="a_edge5_Node000005_Node000004"><a xlink:title=" ">
<path fill="none" stroke="#63b8ff" d="M1384.78,-550.96C1392.84,-550.71 1400.98,-550.36 1408.88,-549.94"/>
<polygon fill="#63b8ff" stroke="#63b8ff" points="1384.9,-547.46 1375,-551.22 1385.09,-554.46 1384.9,-547.46"/>
</a>
</g>
</g>
<!-- Node6 -->
<g id="Node000006" class="node">
<title>Node6</title>
<g id="a_Node000006"><a xlink:href="class_properties_panel.html#a037586f897062f3915a123b9f2a82b91" target="_top" xlink:title=" ">
<polygon fill="white" stroke="#666666" points="1209.25,-515 1081.5,-515 1081.5,-483 1209.25,-483 1209.25,-515"/>
<text xml:space="preserve" text-anchor="start" x="1089.5" y="-501.5" font-family="Helvetica,sans-Serif" font-size="10.00">PropertiesPanel::populate</text>
<text xml:space="preserve" text-anchor="middle" x="1145.38" y="-489.5" font-family="Helvetica,sans-Serif" font-size="10.00">ForElement</text>
</a>
</g>
</g>
<!-- Node5&#45;&gt;Node6 -->
<g id="edge6_Node000005_Node000006" class="edge">
<title>Node5&#45;&gt;Node6</title>
<g id="a_edge6_Node000005_Node000006"><a xlink:title=" ">
<path fill="none" stroke="#63b8ff" d="M1241.91,-527.35C1228.61,-523.4 1214.77,-519.3 1201.89,-515.47"/>
<polygon fill="#63b8ff" stroke="#63b8ff" points="1240.88,-530.7 1251.46,-530.18 1242.87,-523.98 1240.88,-530.7"/>
</a>
</g>
</g>
<!-- Node7 -->
<g id="Node000007" class="node">
<title>Node7</title>
<g id="a_Node000007"><a xlink:href="class_properties_panel.html#a139ae0158b486c6004e15e0ddf36f319" target="_top" xlink:title=" ">
<polygon fill="white" stroke="#666666" points="1045.5,-258 924.5,-258 924.5,-238 1045.5,-238 1045.5,-258"/>
<text xml:space="preserve" text-anchor="middle" x="985" y="-244.5" font-family="Helvetica,sans-Serif" font-size="10.00">PropertiesPanel::refresh</text>
</a>
</g>
</g>
<!-- Node6&#45;&gt;Node7 -->
<g id="edge7_Node000006_Node000007" class="edge">
<title>Node6&#45;&gt;Node7</title>
<g id="a_edge7_Node000006_Node000007"><a xlink:title=" ">
<path fill="none" stroke="#63b8ff" d="M1127.91,-472.91C1093.55,-418.45 1015.49,-294.74 992.49,-258.29"/>
<polygon fill="#63b8ff" stroke="#63b8ff" points="1124.88,-474.66 1133.18,-481.25 1130.8,-470.93 1124.88,-474.66"/>
</a>
</g>
</g>
<!-- Node7&#45;&gt;Node2 -->
<g id="edge28_Node000007_Node000002" class="edge">
<title>Node7&#45;&gt;Node2</title>
<g id="a_edge28_Node000007_Node000002"><a xlink:title=" ">
<path fill="none" stroke="#63b8ff" d="M1057.34,-248C1122.62,-248 1221.87,-248 1308.12,-248 1473.88,-248 1473.88,-248 1473.88,-248 1593.29,-248 1727.42,-301.7 1789.05,-329.6"/>
<polygon fill="#63b8ff" stroke="#63b8ff" points="1057.48,-244.5 1047.48,-248 1057.48,-251.5 1057.48,-244.5"/>
</a>
</g>
</g>
<!-- Node8 -->
<g id="Node000008" class="node">
<title>Node8</title>
<g id="a_Node000008"><a xlink:href="class_properties_panel.html#a55ae5c02e7d75c7bdc26281a148e8c5a" target="_top" xlink:title=" ">
<polygon fill="white" stroke="#666666" points="888.5,-32 733,-32 733,0 888.5,0 888.5,-32"/>
<text xml:space="preserve" text-anchor="start" x="741" y="-18.5" font-family="Helvetica,sans-Serif" font-size="10.00">PropertiesPanel::onAddAttribute</text>
<text xml:space="preserve" text-anchor="middle" x="810.75" y="-6.5" font-family="Helvetica,sans-Serif" font-size="10.00">OnTreeClicked</text>
</a>
</g>
</g>
<!-- Node7&#45;&gt;Node8 -->
<g id="edge8_Node000007_Node000008" class="edge">
<title>Node7&#45;&gt;Node8</title>
<g id="a_edge8_Node000007_Node000008"><a xlink:title=" ">
<path fill="none" stroke="#63b8ff" d="M932.83,-231.73C929.75,-229.47 926.92,-226.91 924.5,-224 872.91,-161.93 940.43,-107.79 888.5,-46 883.9,-40.52 878.17,-36.04 871.92,-32.38"/>
<polygon fill="#63b8ff" stroke="#63b8ff" points="931.01,-234.72 941.4,-236.83 934.6,-228.71 931.01,-234.72"/>
</a>
</g>
</g>
<!-- Node9 -->
<g id="Node000009" class="node">
<title>Node9</title>
<g id="a_Node000009"><a xlink:href="class_properties_panel.html#a2800a2c7575a5fad6d923d9b64d982f8" target="_top" xlink:title=" ">
<polygon fill="white" stroke="#666666" points="483.38,-478 353.38,-478 353.38,-446 483.38,-446 483.38,-478"/>
<text xml:space="preserve" text-anchor="start" x="361.38" y="-464.5" font-family="Helvetica,sans-Serif" font-size="10.00">PropertiesPanel::onCheck</text>
<text xml:space="preserve" text-anchor="middle" x="418.38" y="-452.5" font-family="Helvetica,sans-Serif" font-size="10.00">BoxChanged</text>
</a>
</g>
</g>
<!-- Node7&#45;&gt;Node9 -->
<g id="edge10_Node000007_Node000009" class="edge">
<title>Node7&#45;&gt;Node9</title>
<g id="a_edge10_Node000007_Node000009"><a xlink:title=" ">
<path fill="none" stroke="#63b8ff" d="M969.58,-267.43C931.67,-316.6 823.36,-445.03 697,-487 620.76,-512.32 526.66,-494.29 469.92,-478.49"/>
<polygon fill="#63b8ff" stroke="#63b8ff" points="972.23,-269.74 975.48,-259.66 966.65,-265.51 972.23,-269.74"/>
</a>
</g>
</g>
<!-- Node12 -->
<g id="Node000012" class="node">
<title>Node12</title>
<g id="a_Node000012"><a xlink:href="class_properties_panel.html#aec82450a3daeb2614c2321e37897f1dd" target="_top" xlink:title=" ">
<polygon fill="white" stroke="#666666" points="484.88,-336 351.88,-336 351.88,-304 484.88,-304 484.88,-336"/>
<text xml:space="preserve" text-anchor="start" x="359.88" y="-322.5" font-family="Helvetica,sans-Serif" font-size="10.00">PropertiesPanel::onCombo</text>
<text xml:space="preserve" text-anchor="middle" x="418.38" y="-310.5" font-family="Helvetica,sans-Serif" font-size="10.00">BoxChanged</text>
</a>
</g>
</g>
<!-- Node7&#45;&gt;Node12 -->
<g id="edge15_Node000007_Node000012" class="edge">
<title>Node7&#45;&gt;Node12</title>
<g id="a_edge15_Node000007_Node000012"><a xlink:title=" ">
<path fill="none" stroke="#63b8ff" d="M962.62,-265.26C944.11,-279.28 916.05,-298.41 888.5,-309 736.5,-367.43 685.54,-357.18 523.5,-341 511.02,-339.75 497.83,-337.69 485.17,-335.33"/>
<polygon fill="#63b8ff" stroke="#63b8ff" points="964.67,-268.1 970.42,-259.2 960.38,-262.57 964.67,-268.1"/>
</a>
</g>
</g>
<!-- Node16 -->
<g id="Node000016" class="node">
<title>Node16</title>
<g id="a_Node000016"><a xlink:href="class_properties_panel.html#aec8130201106284c02f21903b516554d" target="_top" xlink:title=" ">
<polygon fill="white" stroke="#666666" points="678.62,-214 541.88,-214 541.88,-182 678.62,-182 678.62,-214"/>
<text xml:space="preserve" text-anchor="start" x="549.88" y="-200.5" font-family="Helvetica,sans-Serif" font-size="10.00">PropertiesPanel::onLineEdit</text>
<text xml:space="preserve" text-anchor="middle" x="610.25" y="-188.5" font-family="Helvetica,sans-Serif" font-size="10.00">Changed</text>
</a>
</g>
</g>
<!-- Node7&#45;&gt;Node16 -->
<g id="edge22_Node000007_Node000016" class="edge">
<title>Node7&#45;&gt;Node16</title>
<g id="a_edge22_Node000007_Node000016"><a xlink:title=" ">
<path fill="none" stroke="#63b8ff" d="M912.76,-238.44C845.4,-229.41 745.03,-215.95 678.88,-207.07"/>
<polygon fill="#63b8ff" stroke="#63b8ff" points="912.23,-241.9 922.61,-239.77 913.17,-234.97 912.23,-241.9"/>
</a>
</g>
</g>
<!-- Node18 -->
<g id="Node000018" class="node">
<title>Node18</title>
<g id="a_Node000018"><a xlink:href="class_properties_panel.html#a3cdc065abcd2f9e59558903073c0f23f" target="_top" xlink:title=" ">
<polygon fill="white" stroke="#666666" points="487.5,-147 349.25,-147 349.25,-115 487.5,-115 487.5,-147"/>
<text xml:space="preserve" text-anchor="start" x="357.25" y="-133.5" font-family="Helvetica,sans-Serif" font-size="10.00">PropertiesPanel::onProperty</text>
<text xml:space="preserve" text-anchor="middle" x="418.38" y="-121.5" font-family="Helvetica,sans-Serif" font-size="10.00">ValueChanged</text>
</a>
</g>
</g>
<!-- Node7&#45;&gt;Node18 -->
<g id="edge25_Node000007_Node000018" class="edge">
<title>Node7&#45;&gt;Node18</title>
<g id="a_edge25_Node000007_Node000018"><a xlink:title=" ">
<path fill="none" stroke="#63b8ff" d="M964.37,-232.28C952.77,-226.47 937.79,-220.42 924.5,-215 823.21,-173.65 804.31,-142.3 697,-121 621.36,-105.99 600.61,-120.63 523.5,-121 512.02,-121.06 499.83,-121.14 487.99,-121.38"/>
<polygon fill="#63b8ff" stroke="#63b8ff" points="962.53,-235.26 972.98,-237.02 965.91,-229.13 962.53,-235.26"/>
</a>
</g>
</g>
<!-- Node20 -->
<g id="Node000020" class="node">
<title>Node20</title>
<g id="a_Node000020"><a xlink:href="class_properties_panel.html#a79618c5c820a40931c085d54be70bd34" target="_top" xlink:title=" ">
<polygon fill="white" stroke="#666666" points="873.5,-300 748,-300 748,-268 873.5,-268 873.5,-300"/>
<text xml:space="preserve" text-anchor="start" x="756" y="-286.5" font-family="Helvetica,sans-Serif" font-size="10.00">PropertiesPanel::updates</text>
<text xml:space="preserve" text-anchor="middle" x="810.75" y="-274.5" font-family="Helvetica,sans-Serif" font-size="10.00">AfterChangingProperty</text>
</a>
</g>
</g>
<!-- Node7&#45;&gt;Node20 -->
<g id="edge29_Node000007_Node000020" class="edge">
<title>Node7&#45;&gt;Node20</title>
<g id="a_edge29_Node000007_Node000020"><a xlink:title=" ">
<path fill="none" stroke="#63b8ff" d="M923.29,-260.69C907.22,-264.05 889.85,-267.68 873.71,-271.05"/>
<polygon fill="#63b8ff" stroke="#63b8ff" points="923.62,-264.19 932.7,-258.72 922.19,-257.34 923.62,-264.19"/>
</a>
</g>
</g>
<!-- Node8&#45;&gt;Node3 -->
<g id="edge9_Node000008_Node000003" class="edge">
<title>Node8&#45;&gt;Node3</title>
<g id="a_edge9_Node000008_Node000003"><a xlink:title=" ">
<path fill="none" stroke="#63b8ff" d="M852.51,-37.85C864.19,-44.23 876.9,-51.3 888.5,-58 1178.8,-225.76 1523.27,-442.1 1619.13,-502.63"/>
<polygon fill="#63b8ff" stroke="#63b8ff" points="854.34,-34.86 843.89,-33.16 851,-41.01 854.34,-34.86"/>
</a>
</g>
</g>
<!-- Node10 -->
<g id="Node000010" class="node">
<title>Node10</title>
<g id="a_Node000010"><a xlink:href="class_properties_panel.html#acfb41226221624e46767835caeea8abc" target="_top" xlink:title=" ">
<polygon fill="white" stroke="#666666" points="311.75,-554 165.25,-554 165.25,-522 311.75,-522 311.75,-554"/>
<text xml:space="preserve" text-anchor="start" x="173.25" y="-540.5" font-family="Helvetica,sans-Serif" font-size="10.00">PropertiesPanel::createCheck</text>
<text xml:space="preserve" text-anchor="middle" x="238.5" y="-528.5" font-family="Helvetica,sans-Serif" font-size="10.00">BoxPropertyItem</text>
</a>
</g>
</g>
<!-- Node9&#45;&gt;Node10 -->
<g id="edge11_Node000009_Node000010" class="edge">
<title>Node9&#45;&gt;Node10</title>
<g id="a_edge11_Node000009_Node000010"><a xlink:title=" ">
<path fill="none" stroke="#63b8ff" d="M376.34,-483.62C357.4,-493.2 334.45,-504.26 313.25,-513 306,-515.99 298.25,-518.91 290.6,-521.63"/>
<polygon fill="#63b8ff" stroke="#63b8ff" points="377.76,-486.82 385.07,-479.16 374.57,-480.59 377.76,-486.82"/>
</a>
</g>
</g>
<!-- Node10&#45;&gt;Node5 -->
<g id="edge12_Node000010_Node000005" class="edge">
<title>Node10&#45;&gt;Node5</title>
<g id="a_edge12_Node000010_Node000005"><a xlink:title=" ">
<path fill="none" stroke="#63b8ff" d="M323.34,-540.14C398.28,-541.86 511.09,-544 609.25,-544 986,-544 986,-544 986,-544 1075.9,-544 1179.91,-545.18 1244.86,-546.06"/>
<polygon fill="#63b8ff" stroke="#63b8ff" points="323.7,-536.64 313.62,-539.91 323.54,-543.64 323.7,-536.64"/>
</a>
</g>
</g>
<!-- Node10&#45;&gt;Node11 -->
<g id="edge13_Node000010_Node000011" class="edge">
<title>Node10&#45;&gt;Node11</title>
<g id="a_edge13_Node000010_Node000011"><a xlink:title=" ">
<path fill="none" stroke="#63b8ff" d="M153.6,-548.69C145.05,-549.78 136.47,-550.88 128.19,-551.93"/>
<polygon fill="#63b8ff" stroke="#63b8ff" points="153.81,-552.19 163.29,-547.46 152.93,-545.25 153.81,-552.19"/>
</a>
</g>
</g>
<!-- Node11&#45;&gt;Node6 -->
<g id="edge14_Node000011_Node000006" class="edge">
<title>Node11&#45;&gt;Node6</title>
<g id="a_edge14_Node000011_Node000006"><a xlink:title=" ">
<path fill="none" stroke="#63b8ff" d="M139.25,-567.34C210.54,-573.74 321.19,-582 417.38,-582 811.75,-582 811.75,-582 811.75,-582 920.52,-582 1043.5,-539.7 1104.98,-515.5"/>
<polygon fill="#63b8ff" stroke="#63b8ff" points="139.94,-563.89 129.67,-566.47 139.31,-570.86 139.94,-563.89"/>
</a>
</g>
</g>
<!-- Node13 -->
<g id="Node000013" class="node">
<title>Node13</title>
<g id="a_Node000013"><a xlink:href="class_properties_panel.html#a8fd53ec3c9f711c3354483e8bb4d0b47" target="_top" xlink:title=" ">
<polygon fill="white" stroke="#666666" points="313.25,-504 163.75,-504 163.75,-472 313.25,-472 313.25,-504"/>
<text xml:space="preserve" text-anchor="start" x="171.75" y="-490.5" font-family="Helvetica,sans-Serif" font-size="10.00">PropertiesPanel::createCombo</text>
<text xml:space="preserve" text-anchor="middle" x="238.5" y="-478.5" font-family="Helvetica,sans-Serif" font-size="10.00">BoxPropertyItem</text>
</a>
</g>
</g>
<!-- Node12&#45;&gt;Node13 -->
<g id="edge16_Node000012_Node000013" class="edge">
<title>Node12&#45;&gt;Node13</title>
<g id="a_edge16_Node000012_Node000013"><a xlink:title=" ">
<path fill="none" stroke="#63b8ff" d="M391.78,-344.17C355.09,-378.83 288.48,-441.74 256.95,-471.52"/>
<polygon fill="#63b8ff" stroke="#63b8ff" points="394.03,-346.86 398.9,-337.45 389.22,-341.78 394.03,-346.86"/>
</a>
</g>
</g>
<!-- Node14 -->
<g id="Node000014" class="node">
<title>Node14</title>
<g id="a_Node000014"><a xlink:href="class_properties_panel.html#a32c2dab00c58ffdcb6a1e3cd829d03c8" target="_top" xlink:title=" ">
<polygon fill="white" stroke="#666666" points="306.88,-267 170.12,-267 170.12,-235 306.88,-235 306.88,-267"/>
<text xml:space="preserve" text-anchor="start" x="178.12" y="-253.5" font-family="Helvetica,sans-Serif" font-size="10.00">PropertiesPanel::createIcon</text>
<text xml:space="preserve" text-anchor="middle" x="238.5" y="-241.5" font-family="Helvetica,sans-Serif" font-size="10.00">ComboBoxPropertyItem</text>
</a>
</g>
</g>
<!-- Node12&#45;&gt;Node14 -->
<g id="edge19_Node000012_Node000014" class="edge">
<title>Node12&#45;&gt;Node14</title>
<g id="a_edge19_Node000012_Node000014"><a xlink:title=" ">
<path fill="none" stroke="#63b8ff" d="M364.64,-299.54C338.26,-289.31 306.77,-277.09 281.97,-267.47"/>
<polygon fill="#63b8ff" stroke="#63b8ff" points="363.22,-302.75 373.81,-303.1 365.75,-296.22 363.22,-302.75"/>
</a>
</g>
</g>
<!-- Node13&#45;&gt;Node5 -->
<g id="edge17_Node000013_Node000005" class="edge">
<title>Node13&#45;&gt;Node5</title>
<g id="a_edge17_Node000013_Node000005"><a xlink:title=" ">
<path fill="none" stroke="#63b8ff" d="M306.59,-507.56C434.95,-544.31 711.26,-620 809.75,-620 986,-620 986,-620 986,-620 1087.64,-620 1202.96,-585 1264.29,-563.47"/>
<polygon fill="#63b8ff" stroke="#63b8ff" points="307.79,-504.26 297.21,-504.87 305.86,-510.99 307.79,-504.26"/>
</a>
</g>
</g>
<!-- Node13&#45;&gt;Node11 -->
<g id="edge18_Node000013_Node000011" class="edge">
<title>Node13&#45;&gt;Node11</title>
<g id="a_edge18_Node000013_Node000011"><a xlink:title=" ">
<path fill="none" stroke="#63b8ff" d="M175.66,-508.37C171.61,-509.88 167.61,-511.43 163.75,-513 141.03,-522.21 116.1,-534.08 96.96,-543.58"/>
<polygon fill="#63b8ff" stroke="#63b8ff" points="176.81,-511.67 185.01,-504.96 174.42,-505.09 176.81,-511.67"/>
</a>
</g>
</g>
<!-- Node15 -->
<g id="Node000015" class="node">
<title>Node15</title>
<g id="a_Node000015"><a xlink:href="class_properties_panel.html#adbc7f8deb3a687706dc44ebbd7e39d9d" target="_top" xlink:title=" ">
<polygon fill="white" stroke="#666666" points="127.75,-126 0,-126 0,-94 127.75,-94 127.75,-126"/>
<text xml:space="preserve" text-anchor="start" x="8" y="-112.5" font-family="Helvetica,sans-Serif" font-size="10.00">PropertiesPanel::populate</text>
<text xml:space="preserve" text-anchor="middle" x="63.88" y="-100.5" font-family="Helvetica,sans-Serif" font-size="10.00">ForConnection</text>
</a>
</g>
</g>
<!-- Node14&#45;&gt;Node15 -->
<g id="edge20_Node000014_Node000015" class="edge">
<title>Node14&#45;&gt;Node15</title>
<g id="a_edge20_Node000014_Node000015"><a xlink:title=" ">
<path fill="none" stroke="#63b8ff" d="M208.55,-227.35C173.48,-198.71 115.34,-151.22 84.89,-126.35"/>
<polygon fill="#63b8ff" stroke="#63b8ff" points="206.23,-229.98 216.19,-233.59 210.66,-224.56 206.23,-229.98"/>
</a>
</g>
</g>
<!-- Node15&#45;&gt;Node7 -->
<g id="edge21_Node000015_Node000007" class="edge">
<title>Node15&#45;&gt;Node7</title>
<g id="a_edge21_Node000015_Node000007"><a xlink:title=" ">
<path fill="none" stroke="#63b8ff" d="M139.23,-93.25C210.27,-78.72 320.57,-60 417.38,-60 611.25,-60 611.25,-60 611.25,-60 738.9,-60 792.98,-50.32 888.5,-135 920.43,-163.31 894.31,-193.84 924.5,-224 930.25,-229.75 937.56,-234.17 945.07,-237.55"/>
<polygon fill="#63b8ff" stroke="#63b8ff" points="138.74,-89.77 129.65,-95.23 140.16,-96.63 138.74,-89.77"/>
</a>
</g>
</g>
<!-- Node17 -->
<g id="Node000017" class="node">
<title>Node17</title>
<g id="a_Node000017"><a xlink:href="class_properties_panel.html#a7bc224323f9c626842fdb6a89205c9bc" target="_top" xlink:title=" ">
<polygon fill="white" stroke="#666666" points="486.38,-242 350.38,-242 350.38,-210 486.38,-210 486.38,-242"/>
<text xml:space="preserve" text-anchor="start" x="358.38" y="-228.5" font-family="Helvetica,sans-Serif" font-size="10.00">PropertiesPanel::createLine</text>
<text xml:space="preserve" text-anchor="middle" x="418.38" y="-216.5" font-family="Helvetica,sans-Serif" font-size="10.00">EditPropertyItem</text>
</a>
</g>
</g>
<!-- Node16&#45;&gt;Node17 -->
<g id="edge23_Node000016_Node000017" class="edge">
<title>Node16&#45;&gt;Node17</title>
<g id="a_edge23_Node000016_Node000017"><a xlink:title=" ">
<path fill="none" stroke="#63b8ff" d="M530.52,-209.61C515.99,-211.75 500.93,-213.97 486.77,-216.06"/>
<polygon fill="#63b8ff" stroke="#63b8ff" points="530.63,-213.13 540.01,-208.21 529.6,-206.21 530.63,-213.13"/>
</a>
</g>
</g>
<!-- Node17&#45;&gt;Node11 -->
<g id="edge24_Node000017_Node000011" class="edge">
<title>Node17&#45;&gt;Node11</title>
<g id="a_edge24_Node000017_Node000011"><a xlink:title=" ">
<path fill="none" stroke="#63b8ff" d="M391.48,-249.81C345.37,-292.3 246.15,-384.1 163.75,-463 134.4,-491.11 100.71,-524.38 81.2,-543.74"/>
<polygon fill="#63b8ff" stroke="#63b8ff" points="393.61,-252.61 398.6,-243.26 388.87,-247.46 393.61,-252.61"/>
</a>
</g>
</g>
<!-- Node18&#45;&gt;Node7 -->
<g id="edge27_Node000018_Node000007" class="edge">
<title>Node18&#45;&gt;Node7</title>
<g id="a_edge27_Node000018_Node000007"><a xlink:title=" ">
<path fill="none" stroke="#63b8ff" d="M499.44,-139.11C507.57,-139.09 515.7,-139.04 523.5,-139 600.61,-138.63 621.36,-123.99 697,-139 804.31,-160.3 823.21,-191.65 924.5,-233 928.21,-234.52 932.06,-236.08 935.92,-237.62"/>
<polygon fill="#63b8ff" stroke="#63b8ff" points="499.5,-135.61 489.5,-139.11 499.5,-142.61 499.5,-135.61"/>
</a>
</g>
</g>
<!-- Node19 -->
<g id="Node000019" class="node">
<title>Node19</title>
<g id="a_Node000019"><a xlink:href="class_properties_panel.html#a9866823e02faefceaae94fc0b0537707" target="_top" xlink:title=" ">
<polygon fill="white" stroke="#666666" points="306.12,-147 170.88,-147 170.88,-115 306.12,-115 306.12,-147"/>
<text xml:space="preserve" text-anchor="start" x="178.88" y="-133.5" font-family="Helvetica,sans-Serif" font-size="10.00">PropertiesPanel::Properties</text>
<text xml:space="preserve" text-anchor="middle" x="238.5" y="-121.5" font-family="Helvetica,sans-Serif" font-size="10.00">Panel</text>
</a>
</g>
</g>
<!-- Node18&#45;&gt;Node19 -->
<g id="edge26_Node000018_Node000019" class="edge">
<title>Node18&#45;&gt;Node19</title>
<g id="a_edge26_Node000018_Node000019"><a xlink:title=" ">
<path fill="none" stroke="#63b8ff" d="M337.66,-131C327.26,-131 316.68,-131 306.52,-131"/>
<polygon fill="#63b8ff" stroke="#63b8ff" points="337.34,-134.5 347.34,-131 337.34,-127.5 337.34,-134.5"/>
</a>
</g>
</g>
<!-- Node20&#45;&gt;Node9 -->
<g id="edge38_Node000020_Node000009" class="edge">
<title>Node20&#45;&gt;Node9</title>
<g id="a_edge38_Node000020_Node000009"><a xlink:title=" ">
<path fill="none" stroke="#63b8ff" d="M768.43,-305.6C747.22,-316.51 720.88,-329.77 697,-341 613.02,-380.49 512.87,-423.04 458.77,-445.66"/>
<polygon fill="#63b8ff" stroke="#63b8ff" points="769.77,-308.85 777.05,-301.15 766.56,-302.63 769.77,-308.85"/>
</a>
</g>
</g>
<!-- Node20&#45;&gt;Node12 -->
<g id="edge39_Node000020_Node000012" class="edge">
<title>Node20&#45;&gt;Node12</title>
<g id="a_edge39_Node000020_Node000012"><a xlink:title=" ">
<path fill="none" stroke="#63b8ff" d="M761.92,-304.49C742.21,-311.89 718.89,-319.32 697,-323 625.34,-335.04 541.81,-331.86 485.23,-327.21"/>
<polygon fill="#63b8ff" stroke="#63b8ff" points="763,-307.83 771.06,-300.95 760.47,-301.3 763,-307.83"/>
</a>
</g>
</g>
<!-- Node20&#45;&gt;Node16 -->
<g id="edge40_Node000020_Node000016" class="edge">
<title>Node20&#45;&gt;Node16</title>
<g id="a_edge40_Node000020_Node000016"><a xlink:title=" ">
<path fill="none" stroke="#63b8ff" d="M773.46,-261.8C751.81,-249.23 723.48,-233.88 697,-223 689.54,-219.94 681.57,-217.08 673.61,-214.49"/>
<polygon fill="#63b8ff" stroke="#63b8ff" points="771.5,-264.72 781.9,-266.77 775.06,-258.68 771.5,-264.72"/>
</a>
</g>
</g>
<!-- Node20&#45;&gt;Node18 -->
<g id="edge41_Node000020_Node000018" class="edge">
<title>Node20&#45;&gt;Node18</title>
<g id="a_edge41_Node000020_Node000018"><a xlink:title=" ">
<path fill="none" stroke="#63b8ff" d="M791.77,-258.62C771.8,-232.55 737.04,-193.03 697,-173 631.17,-140.07 546.41,-131.37 487.95,-129.78"/>
<polygon fill="#63b8ff" stroke="#63b8ff" points="788.75,-260.42 797.54,-266.34 794.36,-256.24 788.75,-260.42"/>
</a>
</g>
</g>
<!-- Node21 -->
<g id="Node000021" class="node">
<title>Node21</title>
<g id="a_Node000021"><a xlink:href="class_properties_panel.html#a74d22cd1ca119cda9cc4ca00b853e88d" target="_top" xlink:title=" ">
<polygon fill="white" stroke="#666666" points="688.38,-314 532.12,-314 532.12,-282 688.38,-282 688.38,-314"/>
<text xml:space="preserve" text-anchor="start" x="540.12" y="-300.5" font-family="Helvetica,sans-Serif" font-size="10.00">PropertiesPanel::handleAttribute</text>
<text xml:space="preserve" text-anchor="middle" x="610.25" y="-288.5" font-family="Helvetica,sans-Serif" font-size="10.00">PropertyChange</text>
</a>
</g>
</g>
<!-- Node20&#45;&gt;Node21 -->
<g id="edge30_Node000020_Node000021" class="edge">
<title>Node20&#45;&gt;Node21</title>
<g id="a_edge30_Node000020_Node000021"><a xlink:title=" ">
<path fill="none" stroke="#63b8ff" d="M736.62,-289.16C721.06,-290.26 704.58,-291.42 688.86,-292.53"/>
<polygon fill="#63b8ff" stroke="#63b8ff" points="736.52,-292.67 746.25,-288.48 736.03,-285.69 736.52,-292.67"/>
</a>
</g>
</g>
<!-- Node22 -->
<g id="Node000022" class="node">
<title>Node22</title>
<g id="a_Node000022"><a xlink:href="class_properties_panel.html#aa82a2245c62f66554f277c64e643252c" target="_top" xlink:title=" ">
<polygon fill="white" stroke="#666666" points="697,-264 523.5,-264 523.5,-232 697,-232 697,-264"/>
<text xml:space="preserve" text-anchor="start" x="531.5" y="-250.5" font-family="Helvetica,sans-Serif" font-size="10.00">PropertiesPanel::handleRelationship</text>
<text xml:space="preserve" text-anchor="middle" x="610.25" y="-238.5" font-family="Helvetica,sans-Serif" font-size="10.00">EndCardinalityChange</text>
</a>
</g>
</g>
<!-- Node20&#45;&gt;Node22 -->
<g id="edge34_Node000020_Node000022" class="edge">
<title>Node20&#45;&gt;Node22</title>
<g id="a_edge34_Node000020_Node000022"><a xlink:title=" ">
<path fill="none" stroke="#63b8ff" d="M736.65,-270.74C723.79,-268.41 710.31,-265.96 697.14,-263.58"/>
<polygon fill="#63b8ff" stroke="#63b8ff" points="735.81,-274.15 746.27,-272.49 737.06,-267.26 735.81,-274.15"/>
</a>
</g>
</g>
<!-- Node23 -->
<g id="Node000023" class="node">
<title>Node23</title>
<g id="a_Node000023"><a xlink:href="class_properties_panel.html#ac2741a5b2cb859b07534b8f7c786359b" target="_top" xlink:title=" ">
<polygon fill="white" stroke="#666666" points="697,-478 523.5,-478 523.5,-446 697,-446 697,-478"/>
<text xml:space="preserve" text-anchor="start" x="531.5" y="-464.5" font-family="Helvetica,sans-Serif" font-size="10.00">PropertiesPanel::handleRelationship</text>
<text xml:space="preserve" text-anchor="middle" x="610.25" y="-452.5" font-family="Helvetica,sans-Serif" font-size="10.00">EndParticipationChange</text>
</a>
</g>
</g>
<!-- Node20&#45;&gt;Node23 -->
<g id="edge36_Node000020_Node000023" class="edge">
<title>Node20&#45;&gt;Node23</title>
<g id="a_edge36_Node000020_Node000023"><a xlink:title=" ">
<path fill="none" stroke="#63b8ff" d="M786.26,-308.31C763.91,-331.1 729.04,-365.8 697,-394 676.03,-412.45 650.87,-432.14 633.25,-445.55"/>
<polygon fill="#63b8ff" stroke="#63b8ff" points="788.65,-310.88 793.13,-301.28 783.64,-305.99 788.65,-310.88"/>
</a>
</g>
</g>
<!-- Node21&#45;&gt;Node9 -->
<g id="edge31_Node000021_Node000009" class="edge">
<title>Node21&#45;&gt;Node9</title>
<g id="a_edge31_Node000021_Node000009"><a xlink:title=" ">
<path fill="none" stroke="#63b8ff" d="M579,-321.11C562.37,-334.02 541.53,-350.58 523.5,-366 491.92,-393.01 456.66,-426.2 436.34,-445.63"/>
<polygon fill="#63b8ff" stroke="#63b8ff" points="580.78,-324.15 586.55,-315.26 576.5,-318.61 580.78,-324.15"/>
</a>
</g>
</g>
<!-- Node21&#45;&gt;Node12 -->
<g id="edge32_Node000021_Node000012" class="edge">
<title>Node21&#45;&gt;Node12</title>
<g id="a_edge32_Node000021_Node000012"><a xlink:title=" ">
<path fill="none" stroke="#63b8ff" d="M520.41,-308.29C508.52,-309.67 496.49,-311.06 485.1,-312.39"/>
<polygon fill="#63b8ff" stroke="#63b8ff" points="520.71,-311.78 530.24,-307.15 519.91,-304.83 520.71,-311.78"/>
</a>
</g>
</g>
<!-- Node21&#45;&gt;Node18 -->
<g id="edge33_Node000021_Node000018" class="edge">
<title>Node21&#45;&gt;Node18</title>
<g id="a_edge33_Node000021_Node000018"><a xlink:title=" ">
<path fill="none" stroke="#63b8ff" d="M526.91,-275.67C525.74,-274.81 524.61,-273.92 523.5,-273 496.03,-250.08 508.22,-230.17 487.5,-201 473.16,-180.82 453.02,-160.89 438.36,-147.49"/>
<polygon fill="#63b8ff" stroke="#63b8ff" points="524.74,-278.44 535.07,-280.8 528.47,-272.51 524.74,-278.44"/>
</a>
</g>
</g>
<!-- Node22&#45;&gt;Node12 -->
<g id="edge35_Node000022_Node000012" class="edge">
<title>Node22&#45;&gt;Node12</title>
<g id="a_edge35_Node000022_Node000012"><a xlink:title=" ">
<path fill="none" stroke="#63b8ff" d="M538.05,-267.92C533.1,-269.56 528.21,-271.26 523.5,-273 499.31,-281.93 472.84,-293.91 452.64,-303.54"/>
<polygon fill="#63b8ff" stroke="#63b8ff" points="539.04,-271.28 547.49,-264.89 536.9,-264.61 539.04,-271.28"/>
</a>
</g>
</g>
<!-- Node23&#45;&gt;Node9 -->
<g id="edge37_Node000023_Node000009" class="edge">
<title>Node23&#45;&gt;Node9</title>
<g id="a_edge37_Node000023_Node000009"><a xlink:title=" ">
<path fill="none" stroke="#63b8ff" d="M511.99,-462C502.44,-462 492.91,-462 483.81,-462"/>
<polygon fill="#63b8ff" stroke="#63b8ff" points="511.69,-465.5 521.69,-462 511.69,-458.5 511.69,-465.5"/>
</a>
</g>
</g>
<!-- Node24&#45;&gt;Node6 -->
<g id="edge43_Node000024_Node000006" class="edge">
<title>Node24&#45;&gt;Node6</title>
<g id="a_edge43_Node000024_Node000006"><a xlink:title=" ">
<path fill="none" stroke="#63b8ff" d="M1233.83,-497.92C1225.78,-498.02 1217.64,-498.12 1209.74,-498.22"/>
<polygon fill="#63b8ff" stroke="#63b8ff" points="1233.66,-501.42 1243.61,-497.8 1233.57,-494.42 1233.66,-501.42"/>
</a>
</g>
</g>
</g>
</svg>
