<?xml version="1.0" encoding="UTF-8" standalone="no"?>
<!DOCTYPE svg PUBLIC "-//W3C//DTD SVG 1.1//EN"
 "http://www.w3.org/Graphics/SVG/1.1/DTD/svg11.dtd">
<!-- Generated by graphviz version 14.1.1 (20251213.1925)
 -->
<!-- Title: MainWindow::createMenuBar Pages: 1 -->
<svg width="1060pt" height="332pt"
 viewBox="0.00 0.00 1060.00 332.00" xmlns="http://www.w3.org/2000/svg" xmlns:xlink="http://www.w3.org/1999/xlink">
<g id="graph0" class="graph" transform="scale(1 1) rotate(0) translate(4 328)">
<title>MainWindow::createMenuBar</title>
<!-- Node1 -->
<g id="Node000001" class="node">
<title>Node1</title>
<g id="a_Node000001"><a xlink:title=" ">
<polygon fill="#999999" stroke="#666666" points="144.25,-191 0,-191 0,-171 144.25,-171 144.25,-191"/>
<text xml:space="preserve" text-anchor="middle" x="72.12" y="-177.5" font-family="Helvetica,sans-Serif" font-size="10.00">MainWindow::createMenuBar</text>
</a>
</g>
</g>
<!-- Node2 -->
<g id="Node000002" class="node">
<title>Node2</title>
<g id="a_Node000002"><a xlink:href="class_main_window.html#aaf455232cccaa422fc4c371fa99bff84" target="_top" xlink:title=" ">
<polygon fill="white" stroke="#666666" points="327.5,-153 182.5,-153 182.5,-133 327.5,-133 327.5,-153"/>
<text xml:space="preserve" text-anchor="middle" x="255" y="-139.5" font-family="Helvetica,sans-Serif" font-size="10.00">MainWindow::createFileMenu</text>
</a>
</g>
</g>
<!-- Node1&#45;&gt;Node2 -->
<g id="edge1_Node000001_Node000002" class="edge">
<title>Node1&#45;&gt;Node2</title>
<g id="a_edge1_Node000001_Node000002"><a xlink:title=" ">
<path fill="none" stroke="#63b8ff" d="M123.03,-170.52C144.68,-165.97 170.23,-160.6 192.99,-155.82"/>
<polygon fill="#63b8ff" stroke="#63b8ff" points="193.71,-159.24 202.78,-153.76 192.27,-152.39 193.71,-159.24"/>
</a>
</g>
</g>
<!-- Node12 -->
<g id="Node000012" class="node">
<title>Node12</title>
<g id="a_Node000012"><a xlink:href="class_main_window.html#a02e77ad39637c2db66227e8f8954adcb" target="_top" xlink:title=" ">
<polygon fill="white" stroke="#666666" points="329.75,-267 180.25,-267 180.25,-247 329.75,-247 329.75,-267"/>
<text xml:space="preserve" text-anchor="middle" x="255" y="-253.5" font-family="Helvetica,sans-Serif" font-size="10.00">MainWindow::createHelpMenu</text>
</a>
</g>
</g>
<!-- Node1&#45;&gt;Node12 -->
<g id="edge18_Node000001_Node000012" class="edge">
<title>Node1&#45;&gt;Node12</title>
<g id="a_edge18_Node000001_Node000012"><a xlink:title=" ">
<path fill="none" stroke="#63b8ff" d="M97.9,-191.41C129.2,-204.56 183.27,-227.28 218.84,-242.23"/>
<polygon fill="#63b8ff" stroke="#63b8ff" points="217.27,-245.36 227.84,-246.01 219.98,-238.91 217.27,-245.36"/>
</a>
</g>
</g>
<!-- Node3 -->
<g id="Node000003" class="node">
<title>Node3</title>
<g id="a_Node000003"><a xlink:href="class_main_window.html#adc645337d8ad9b2b9300f13e251fb5cb" target="_top" xlink:title=" ">
<polygon fill="white" stroke="#666666" points="503.25,-248 370.25,-248 370.25,-228 503.25,-228 503.25,-248"/>
<text xml:space="preserve" text-anchor="middle" x="436.75" y="-234.5" font-family="Helvetica,sans-Serif" font-size="10.00">MainWindow::createAction</text>
</a>
</g>
</g>
<!-- Node2&#45;&gt;Node3 -->
<g id="edge2_Node000002_Node000003" class="edge">
<title>Node2&#45;&gt;Node3</title>
<g id="a_edge2_Node000002_Node000003"><a xlink:title=" ">
<path fill="none" stroke="#63b8ff" d="M269.56,-153.34C289.68,-168.3 329.01,-196.15 365.75,-214 373.14,-217.59 381.2,-220.88 389.14,-223.8"/>
<polygon fill="#63b8ff" stroke="#63b8ff" points="387.8,-227.04 398.39,-227.05 390.12,-220.44 387.8,-227.04"/>
</a>
</g>
</g>
<!-- Node4 -->
<g id="Node000004" class="node">
<title>Node4</title>
<g id="a_Node000004"><a xlink:href="class_main_window.html#ab1ad4dd7adf6066b3c4cc3b7154eaf65" target="_top" xlink:title=" ">
<polygon fill="white" stroke="#666666" points="507.75,-96 365.75,-96 365.75,-76 507.75,-76 507.75,-96"/>
<text xml:space="preserve" text-anchor="middle" x="436.75" y="-82.5" font-family="Helvetica,sans-Serif" font-size="10.00">MainWindow::exitApplication</text>
</a>
</g>
</g>
<!-- Node2&#45;&gt;Node4 -->
<g id="edge3_Node000002_Node000004" class="edge">
<title>Node2&#45;&gt;Node4</title>
<g id="a_edge3_Node000002_Node000004"><a xlink:title=" ">
<path fill="none" stroke="#63b8ff" d="M288.97,-132.55C317.89,-123.37 360.17,-109.97 391.93,-99.9"/>
<polygon fill="#63b8ff" stroke="#63b8ff" points="392.77,-103.3 401.24,-96.94 390.65,-96.63 392.77,-103.3"/>
</a>
</g>
</g>
<!-- Node5 -->
<g id="Node000005" class="node">
<title>Node5</title>
<g id="a_Node000005"><a xlink:href="class_main_window.html#a1d019681beef43511b35dec6f27d2077" target="_top" xlink:title=" ">
<polygon fill="white" stroke="#666666" points="685.75,-210 543.75,-210 543.75,-190 685.75,-190 685.75,-210"/>
<text xml:space="preserve" text-anchor="middle" x="614.75" y="-196.5" font-family="Helvetica,sans-Serif" font-size="10.00">MainWindow::exportDiagram</text>
</a>
</g>
</g>
<!-- Node2&#45;&gt;Node5 -->
<g id="edge4_Node000002_Node000005" class="edge">
<title>Node2&#45;&gt;Node5</title>
<g id="a_edge4_Node000002_Node000005"><a xlink:title=" ">
<path fill="none" stroke="#63b8ff" d="M284.96,-153.4C306.86,-160.85 337.83,-170.51 365.75,-176 420.66,-186.8 483.41,-192.82 532.05,-196.12"/>
<polygon fill="#63b8ff" stroke="#63b8ff" points="531.75,-199.61 541.96,-196.77 532.21,-192.63 531.75,-199.61"/>
</a>
</g>
</g>
<!-- Node7 -->
<g id="Node000007" class="node">
<title>Node7</title>
<g id="a_Node000007"><a xlink:href="class_main_window.html#a69f73b93cc05c89a9ae1be0161105982" target="_top" xlink:title=" ">
<polygon fill="white" stroke="#666666" points="492.75,-20 380.75,-20 380.75,0 492.75,0 492.75,-20"/>
<text xml:space="preserve" text-anchor="middle" x="436.75" y="-6.5" font-family="Helvetica,sans-Serif" font-size="10.00">MainWindow::newFile</text>
</a>
</g>
</g>
<!-- Node2&#45;&gt;Node7 -->
<g id="edge6_Node000002_Node000007" class="edge">
<title>Node2&#45;&gt;Node7</title>
<g id="a_edge6_Node000002_Node000007"><a xlink:title=" ">
<path fill="none" stroke="#63b8ff" d="M262.9,-132.71C278.48,-110.29 318.71,-56.86 365.75,-29 368.35,-27.46 371.08,-26.04 373.89,-24.73"/>
<polygon fill="#63b8ff" stroke="#63b8ff" points="375,-28.06 382.94,-21.05 372.36,-21.58 375,-28.06"/>
</a>
</g>
</g>
<!-- Node8 -->
<g id="Node000008" class="node">
<title>Node8</title>
<g id="a_Node000008"><a xlink:href="class_main_window.html#a464aaa4d378e7b2d814756a73d6e1ed6" target="_top" xlink:title=" ">
<polygon fill="white" stroke="#666666" points="672.25,-115 557.25,-115 557.25,-95 672.25,-95 672.25,-115"/>
<text xml:space="preserve" text-anchor="middle" x="614.75" y="-101.5" font-family="Helvetica,sans-Serif" font-size="10.00">MainWindow::saveFile</text>
</a>
</g>
</g>
<!-- Node2&#45;&gt;Node8 -->
<g id="edge17_Node000002_Node000008" class="edge">
<title>Node2&#45;&gt;Node8</title>
<g id="a_edge17_Node000002_Node000008"><a xlink:title=" ">
<path fill="none" stroke="#63b8ff" d="M327.97,-135.36C391.45,-128.61 483.31,-118.86 545.62,-112.24"/>
<polygon fill="#63b8ff" stroke="#63b8ff" points="545.82,-115.74 555.39,-111.2 545.08,-108.77 545.82,-115.74"/>
</a>
</g>
</g>
<!-- Node9 -->
<g id="Node000009" class="node">
<title>Node9</title>
<g id="a_Node000009"><a xlink:href="class_main_window.html#ace1b7624a64f4d70513b86601e5846f9" target="_top" xlink:title=" ">
<polygon fill="white" stroke="#666666" points="860.75,-134 733.75,-134 733.75,-114 860.75,-114 860.75,-134"/>
<text xml:space="preserve" text-anchor="middle" x="797.25" y="-120.5" font-family="Helvetica,sans-Serif" font-size="10.00">MainWindow::saveAsFile</text>
</a>
</g>
</g>
<!-- Node2&#45;&gt;Node9 -->
<g id="edge16_Node000002_Node000009" class="edge">
<title>Node2&#45;&gt;Node9</title>
<g id="a_edge16_Node000002_Node000009"><a xlink:title=" ">
<path fill="none" stroke="#63b8ff" d="M327.91,-142.12C378.27,-141.37 447.13,-140.07 507.75,-138 580.69,-135.51 663.95,-131.32 722.21,-128.18"/>
<polygon fill="#63b8ff" stroke="#63b8ff" points="722.21,-131.68 732.01,-127.64 721.83,-124.69 722.21,-131.68"/>
</a>
</g>
</g>
<!-- Node11 -->
<g id="Node000011" class="node">
<title>Node11</title>
<g id="a_Node000011"><a xlink:href="class_main_window.html#a288b768c3c21a9171bdc56fe845ece8b" target="_top" xlink:title=" ">
<polygon fill="white" stroke="#666666" points="494.25,-58 379.25,-58 379.25,-38 494.25,-38 494.25,-58"/>
<text xml:space="preserve" text-anchor="middle" x="436.75" y="-44.5" font-family="Helvetica,sans-Serif" font-size="10.00">MainWindow::openFile</text>
</a>
</g>
</g>
<!-- Node2&#45;&gt;Node11 -->
<g id="edge13_Node000002_Node000011" class="edge">
<title>Node2&#45;&gt;Node11</title>
<g id="a_edge13_Node000002_Node000011"><a xlink:title=" ">
<path fill="none" stroke="#63b8ff" d="M267.99,-132.61C287.3,-116.38 327.08,-84.98 365.75,-67 369.68,-65.17 373.83,-63.49 378.05,-61.95"/>
<polygon fill="#63b8ff" stroke="#63b8ff" points="378.84,-65.38 387.21,-58.89 376.62,-58.74 378.84,-65.38"/>
</a>
</g>
</g>
<!-- Node6 -->
<g id="Node000006" class="node">
<title>Node6</title>
<g id="a_Node000006"><a xlink:href="class_main_window.html#a51ab21a1be4a1389a00bdb35feee8d64" target="_top" xlink:title=" ">
<polygon fill="white" stroke="#666666" points="872.75,-191 721.75,-191 721.75,-171 872.75,-171 872.75,-191"/>
<text xml:space="preserve" text-anchor="middle" x="797.25" y="-177.5" font-family="Helvetica,sans-Serif" font-size="10.00">MainWindow::updateStatusBar</text>
</a>
</g>
</g>
<!-- Node5&#45;&gt;Node6 -->
<g id="edge5_Node000005_Node000006" class="edge">
<title>Node5&#45;&gt;Node6</title>
<g id="a_edge5_Node000005_Node000006"><a xlink:title=" ">
<path fill="none" stroke="#63b8ff" d="M686.05,-192.6C693.92,-191.77 702.01,-190.92 710.05,-190.07"/>
<polygon fill="#63b8ff" stroke="#63b8ff" points="710.28,-193.57 719.86,-189.04 709.55,-186.61 710.28,-193.57"/>
</a>
</g>
</g>
<!-- Node7&#45;&gt;Node8 -->
<g id="edge7_Node000007_Node000008" class="edge">
<title>Node7&#45;&gt;Node8</title>
<g id="a_edge7_Node000007_Node000008"><a xlink:title=" ">
<path fill="none" stroke="#63b8ff" d="M485.27,-20.42C492.96,-22.81 500.7,-25.65 507.75,-29 540.24,-44.44 573.22,-69.98 593.57,-87.14"/>
<polygon fill="#63b8ff" stroke="#63b8ff" points="591.23,-89.74 601.09,-93.6 595.79,-84.43 591.23,-89.74"/>
</a>
</g>
</g>
<!-- Node10 -->
<g id="Node000010" class="node">
<title>Node10</title>
<g id="a_Node000010"><a xlink:href="class_main_window.html#a90cfbcf2e0f2549760a60f184ee0acbf" target="_top" xlink:title=" ">
<polygon fill="white" stroke="#666666" points="1051.5,-83 908.75,-83 908.75,-51 1051.5,-51 1051.5,-83"/>
<text xml:space="preserve" text-anchor="start" x="916.75" y="-69.5" font-family="Helvetica,sans-Serif" font-size="10.00">MainWindow::updateWindow</text>
<text xml:space="preserve" text-anchor="middle" x="980.12" y="-57.5" font-family="Helvetica,sans-Serif" font-size="10.00">Title</text>
</a>
</g>
</g>
<!-- Node7&#45;&gt;Node10 -->
<g id="edge12_Node000007_Node000010" class="edge">
<title>Node7&#45;&gt;Node10</title>
<g id="a_edge12_Node000007_Node000010"><a xlink:title=" ">
<path fill="none" stroke="#63b8ff" d="M493.07,-15.22C575.74,-23.11 736.4,-38.77 872.75,-54 880.7,-54.89 888.97,-55.84 897.24,-56.82"/>
<polygon fill="#63b8ff" stroke="#63b8ff" points="896.64,-60.27 906.98,-57.98 897.46,-53.32 896.64,-60.27"/>
</a>
</g>
</g>
<!-- Node8&#45;&gt;Node6 -->
<g id="edge10_Node000008_Node000006" class="edge">
<title>Node8&#45;&gt;Node6</title>
<g id="a_edge10_Node000008_Node000006"><a xlink:title=" ">
<path fill="none" stroke="#63b8ff" d="M640.47,-115.41C671.71,-128.56 725.67,-151.28 761.16,-166.23"/>
<polygon fill="#63b8ff" stroke="#63b8ff" points="759.57,-169.35 770.15,-170.01 762.29,-162.9 759.57,-169.35"/>
</a>
</g>
</g>
<!-- Node8&#45;&gt;Node9 -->
<g id="edge8_Node000008_Node000009" class="edge">
<title>Node8&#45;&gt;Node9</title>
<g id="a_edge8_Node000008_Node000009"><a xlink:title=" ">
<path fill="none" stroke="#63b8ff" d="M672.37,-110.96C688.16,-112.62 705.55,-114.45 722.19,-116.2"/>
<polygon fill="#63b8ff" stroke="#63b8ff" points="721.74,-119.68 732.05,-117.24 722.48,-112.71 721.74,-119.68"/>
</a>
</g>
</g>
<!-- Node8&#45;&gt;Node10 -->
<g id="edge11_Node000008_Node000010" class="edge">
<title>Node8&#45;&gt;Node10</title>
<g id="a_edge11_Node000008_Node000010"><a xlink:title=" ">
<path fill="none" stroke="#63b8ff" d="M672.53,-99.06C732.84,-92.75 828.76,-82.72 897.24,-75.56"/>
<polygon fill="#63b8ff" stroke="#63b8ff" points="897.33,-79.07 906.91,-74.55 896.6,-72.11 897.33,-79.07"/>
</a>
</g>
</g>
<!-- Node9&#45;&gt;Node10 -->
<g id="edge9_Node000009_Node000010" class="edge">
<title>Node9&#45;&gt;Node10</title>
<g id="a_edge9_Node000009_Node000010"><a xlink:title=" ">
<path fill="none" stroke="#63b8ff" d="M831.43,-113.55C855.12,-106.08 887.72,-95.8 916.27,-86.81"/>
<polygon fill="#63b8ff" stroke="#63b8ff" points="917.05,-90.23 925.54,-83.89 914.95,-83.55 917.05,-90.23"/>
</a>
</g>
</g>
<!-- Node11&#45;&gt;Node8 -->
<g id="edge14_Node000011_Node000008" class="edge">
<title>Node11&#45;&gt;Node8</title>
<g id="a_edge14_Node000011_Node000008"><a xlink:title=" ">
<path fill="none" stroke="#63b8ff" d="M478.26,-58.41C487.96,-61.06 498.26,-64.02 507.75,-67 530.57,-74.17 555.78,-83.17 575.9,-90.61"/>
<polygon fill="#63b8ff" stroke="#63b8ff" points="574.49,-93.82 585.08,-94.03 576.93,-87.26 574.49,-93.82"/>
</a>
</g>
</g>
<!-- Node11&#45;&gt;Node10 -->
<g id="edge15_Node000011_Node000010" class="edge">
<title>Node11&#45;&gt;Node10</title>
<g id="a_edge15_Node000011_Node000010"><a xlink:title=" ">
<path fill="none" stroke="#63b8ff" d="M494.66,-50C590.89,-53.37 786.07,-60.22 897.08,-64.12"/>
<polygon fill="#63b8ff" stroke="#63b8ff" points="896.91,-67.62 907.03,-64.47 897.15,-60.62 896.91,-67.62"/>
</a>
</g>
</g>
<!-- Node12&#45;&gt;Node3 -->
<g id="edge19_Node000012_Node000003" class="edge">
<title>Node12&#45;&gt;Node3</title>
<g id="a_edge19_Node000012_Node000003"><a xlink:title=" ">
<path fill="none" stroke="#63b8ff" d="M330.15,-249.16C339.5,-248.17 349.08,-247.16 358.48,-246.17"/>
<polygon fill="#63b8ff" stroke="#63b8ff" points="358.74,-249.66 368.32,-245.13 358,-242.7 358.74,-249.66"/>
</a>
</g>
</g>
<!-- Node13 -->
<g id="Node000013" class="node">
<title>Node13</title>
<g id="a_Node000013"><a xlink:href="class_main_window.html#aa3aa0f3ce42e748b931d6211921ea197" target="_top" xlink:title=" ">
<polygon fill="white" stroke="#666666" points="500.25,-286 373.25,-286 373.25,-266 500.25,-266 500.25,-286"/>
<text xml:space="preserve" text-anchor="middle" x="436.75" y="-272.5" font-family="Helvetica,sans-Serif" font-size="10.00">MainWindow::showAbout</text>
</a>
</g>
</g>
<!-- Node12&#45;&gt;Node13 -->
<g id="edge20_Node000012_Node000013" class="edge">
<title>Node12&#45;&gt;Node13</title>
<g id="a_edge20_Node000012_Node000013"><a xlink:title=" ">
<path fill="none" stroke="#63b8ff" d="M330.15,-264.84C340.59,-265.94 351.32,-267.08 361.76,-268.18"/>
<polygon fill="#63b8ff" stroke="#63b8ff" points="361.12,-271.63 371.43,-269.2 361.86,-264.67 361.12,-271.63"/>
</a>
</g>
</g>
<!-- Node14 -->
<g id="Node000014" class="node">
<title>Node14</title>
<g id="a_Node000014"><a xlink:href="class_main_window.html#a3111788b36503e5ae8eabef2b32a6f62" target="_top" xlink:title=" ">
<polygon fill="white" stroke="#666666" points="497.62,-324 375.88,-324 375.88,-304 497.62,-304 497.62,-324"/>
<text xml:space="preserve" text-anchor="middle" x="436.75" y="-310.5" font-family="Helvetica,sans-Serif" font-size="10.00">MainWindow::showHelp</text>
</a>
</g>
</g>
<!-- Node12&#45;&gt;Node14 -->
<g id="edge21_Node000012_Node000014" class="edge">
<title>Node12&#45;&gt;Node14</title>
<g id="a_edge21_Node000012_Node000014"><a xlink:title=" ">
<path fill="none" stroke="#63b8ff" d="M284.25,-267.38C306.31,-275.34 337.81,-286.38 365.75,-295 371.84,-296.88 378.26,-298.76 384.64,-300.56"/>
<polygon fill="#63b8ff" stroke="#63b8ff" points="383.24,-303.81 393.81,-303.11 385.11,-297.06 383.24,-303.81"/>
</a>
</g>
</g>
</g>
</svg>
