<?xml version="1.0" encoding="UTF-8" standalone="no"?>
<!DOCTYPE svg PUBLIC "-//W3C//DTD SVG 1.1//EN"
 "http://www.w3.org/Graphics/SVG/1.1/DTD/svg11.dtd">
<!-- Generated by graphviz version 14.1.1 (20251213.1925)
 -->
<!-- Title: DiagramFileManager::openDiagram Pages: 1 -->
<svg width="994pt" height="280pt"
 viewBox="0.00 0.00 994.00 280.00" xmlns="http://www.w3.org/2000/svg" xmlns:xlink="http://www.w3.org/1999/xlink">
<g id="graph0" class="graph" transform="scale(1 1) rotate(0) translate(4 276)">
<title>DiagramFileManager::openDiagram</title>
<!-- Node1 -->
<g id="Node000001" class="node">
<title>Node1</title>
<g id="a_Node000001"><a xlink:title=" ">
<polygon fill="#999999" stroke="#666666" points="106,-107 0,-107 0,-75 106,-75 106,-107"/>
<text xml:space="preserve" text-anchor="start" x="8" y="-93.5" font-family="Helvetica,sans-Serif" font-size="10.00">DiagramFileManager</text>
<text xml:space="preserve" text-anchor="middle" x="53" y="-81.5" font-family="Helvetica,sans-Serif" font-size="10.00">::openDiagram</text>
</a>
</g>
</g>
<!-- Node2 -->
<g id="Node000002" class="node">
<title>Node2</title>
<g id="a_Node000002"><a xlink:href="class_diagram_file_manager.html#a7c532ee071e3dc487110f7c02d9cace6" target="_top" xlink:title=" ">
<polygon fill="white" stroke="#666666" points="263,-182 157,-182 157,-150 263,-150 263,-182"/>
<text xml:space="preserve" text-anchor="start" x="165" y="-168.5" font-family="Helvetica,sans-Serif" font-size="10.00">DiagramFileManager</text>
<text xml:space="preserve" text-anchor="middle" x="210" y="-156.5" font-family="Helvetica,sans-Serif" font-size="10.00">::diagramLoaded</text>
</a>
</g>
</g>
<!-- Node1&#45;&gt;Node2 -->
<g id="edge1_Node000001_Node000002" class="edge">
<title>Node1&#45;&gt;Node2</title>
<g id="a_edge1_Node000001_Node000002"><a xlink:title=" ">
<path fill="none" stroke="#63b8ff" d="M80.37,-107.46C97.56,-117.8 120.67,-131.04 142,-141 145.11,-142.45 148.32,-143.88 151.59,-145.27"/>
<polygon fill="#63b8ff" stroke="#63b8ff" points="150.13,-148.46 160.71,-149.02 152.79,-141.98 150.13,-148.46"/>
</a>
</g>
</g>
<!-- Node3 -->
<g id="Node000003" class="node">
<title>Node3</title>
<g id="a_Node000003"><a xlink:href="class_diagram_serializer.html#a003be4c7f5d036e58e3fa047d1d9b0d8" target="_top" xlink:title=" ">
<polygon fill="white" stroke="#666666" points="259.62,-132 160.38,-132 160.38,-100 259.62,-100 259.62,-132"/>
<text xml:space="preserve" text-anchor="start" x="168.38" y="-118.5" font-family="Helvetica,sans-Serif" font-size="10.00">DiagramSerializer::</text>
<text xml:space="preserve" text-anchor="middle" x="210" y="-106.5" font-family="Helvetica,sans-Serif" font-size="10.00">loadDiagram</text>
</a>
</g>
</g>
<!-- Node1&#45;&gt;Node3 -->
<g id="edge2_Node000001_Node000003" class="edge">
<title>Node1&#45;&gt;Node3</title>
<g id="a_edge2_Node000001_Node000003"><a xlink:title=" ">
<path fill="none" stroke="#63b8ff" d="M106.48,-99.46C120.13,-101.67 134.94,-104.05 148.95,-106.31"/>
<polygon fill="#63b8ff" stroke="#63b8ff" points="148.05,-109.71 158.48,-107.85 149.17,-102.8 148.05,-109.71"/>
</a>
</g>
</g>
<!-- Node16 -->
<g id="Node000016" class="node">
<title>Node16</title>
<g id="a_Node000016"><a xlink:href="class_diagram_serializer.html#aa431be8e31fb618e3db3bf2c84988b5c" target="_top" xlink:title=" ">
<polygon fill="white" stroke="#666666" points="264.5,-82 155.5,-82 155.5,-50 264.5,-50 264.5,-82"/>
<text xml:space="preserve" text-anchor="start" x="163.5" y="-68.5" font-family="Helvetica,sans-Serif" font-size="10.00">DiagramSerializer::</text>
<text xml:space="preserve" text-anchor="middle" x="210" y="-56.5" font-family="Helvetica,sans-Serif" font-size="10.00">loadDiagramFromFile</text>
</a>
</g>
</g>
<!-- Node1&#45;&gt;Node16 -->
<g id="edge15_Node000001_Node000016" class="edge">
<title>Node1&#45;&gt;Node16</title>
<g id="a_edge15_Node000001_Node000016"><a xlink:title=" ">
<path fill="none" stroke="#63b8ff" d="M106.48,-82.54C118.51,-80.59 131.45,-78.51 143.95,-76.49"/>
<polygon fill="#63b8ff" stroke="#63b8ff" points="144.45,-79.96 153.76,-74.91 143.33,-73.05 144.45,-79.96"/>
</a>
</g>
</g>
<!-- Node17 -->
<g id="Node000017" class="node">
<title>Node17</title>
<g id="a_Node000017"><a xlink:href="class_diagram_file_manager.html#a14323a88d49512b33de80b3f781384ca" target="_top" xlink:title=" ">
<polygon fill="white" stroke="#666666" points="278,-32 142,-32 142,0 278,0 278,-32"/>
<text xml:space="preserve" text-anchor="start" x="150" y="-18.5" font-family="Helvetica,sans-Serif" font-size="10.00">DiagramFileManager</text>
<text xml:space="preserve" text-anchor="middle" x="210" y="-6.5" font-family="Helvetica,sans-Serif" font-size="10.00">::statusMessageRequested</text>
</a>
</g>
</g>
<!-- Node1&#45;&gt;Node17 -->
<g id="edge16_Node000001_Node000017" class="edge">
<title>Node1&#45;&gt;Node17</title>
<g id="a_edge16_Node000001_Node000017"><a xlink:title=" ">
<path fill="none" stroke="#63b8ff" d="M80.37,-74.54C97.56,-64.2 120.67,-50.96 142,-41 145.11,-39.55 148.32,-38.12 151.59,-36.73"/>
<polygon fill="#63b8ff" stroke="#63b8ff" points="152.79,-40.02 160.71,-32.98 150.13,-33.54 152.79,-40.02"/>
</a>
</g>
</g>
<!-- Node4 -->
<g id="Node000004" class="node">
<title>Node4</title>
<g id="a_Node000004"><a xlink:href="class_diagram_serializer.html#a92507b425e8c13399c6de5d85e7950fb" target="_top" xlink:title=" ">
<polygon fill="white" stroke="#666666" points="413.25,-168 314,-168 314,-136 413.25,-136 413.25,-168"/>
<text xml:space="preserve" text-anchor="start" x="322" y="-154.5" font-family="Helvetica,sans-Serif" font-size="10.00">DiagramSerializer::</text>
<text xml:space="preserve" text-anchor="middle" x="363.62" y="-142.5" font-family="Helvetica,sans-Serif" font-size="10.00">loadConnections</text>
</a>
</g>
</g>
<!-- Node3&#45;&gt;Node4 -->
<g id="edge3_Node000003_Node000004" class="edge">
<title>Node3&#45;&gt;Node4</title>
<g id="a_edge3_Node000003_Node000004"><a xlink:title=" ">
<path fill="none" stroke="#63b8ff" d="M259.81,-127.59C273.4,-130.82 288.33,-134.36 302.49,-137.72"/>
<polygon fill="#63b8ff" stroke="#63b8ff" points="301.64,-141.12 312.17,-140.02 303.25,-134.31 301.64,-141.12"/>
</a>
</g>
</g>
<!-- Node12 -->
<g id="Node000012" class="node">
<title>Node12</title>
<g id="a_Node000012"><a xlink:href="class_diagram_serializer.html#a2197514d6c716bf484314a2ee9a3d8c1" target="_top" xlink:title=" ">
<polygon fill="white" stroke="#666666" points="413.25,-96 314,-96 314,-64 413.25,-64 413.25,-96"/>
<text xml:space="preserve" text-anchor="start" x="322" y="-82.5" font-family="Helvetica,sans-Serif" font-size="10.00">DiagramSerializer::</text>
<text xml:space="preserve" text-anchor="middle" x="363.62" y="-70.5" font-family="Helvetica,sans-Serif" font-size="10.00">loadElements</text>
</a>
</g>
</g>
<!-- Node3&#45;&gt;Node12 -->
<g id="edge11_Node000003_Node000012" class="edge">
<title>Node3&#45;&gt;Node12</title>
<g id="a_edge11_Node000003_Node000012"><a xlink:title=" ">
<path fill="none" stroke="#63b8ff" d="M259.81,-104.41C273.4,-101.18 288.33,-97.64 302.49,-94.28"/>
<polygon fill="#63b8ff" stroke="#63b8ff" points="303.25,-97.69 312.17,-91.98 301.64,-90.88 303.25,-97.69"/>
</a>
</g>
</g>
<!-- Node5 -->
<g id="Node000005" class="node">
<title>Node5</title>
<g id="a_Node000005"><a xlink:href="class_diagram_scene.html#a795592348d4dcbd78d984db93c2fbedb" target="_top" xlink:title=" ">
<polygon fill="white" stroke="#666666" points="603.25,-228 451.5,-228 451.5,-208 603.25,-208 603.25,-228"/>
<text xml:space="preserve" text-anchor="middle" x="527.38" y="-214.5" font-family="Helvetica,sans-Serif" font-size="10.00">DiagramScene::addConnection</text>
</a>
</g>
</g>
<!-- Node4&#45;&gt;Node5 -->
<g id="edge4_Node000004_Node000005" class="edge">
<title>Node4&#45;&gt;Node5</title>
<g id="a_edge4_Node000004_Node000005"><a xlink:title=" ">
<path fill="none" stroke="#63b8ff" d="M390.05,-168.46C406.42,-178.46 428.45,-190.83 449.25,-199 454.2,-200.95 459.42,-202.74 464.7,-204.38"/>
<polygon fill="#63b8ff" stroke="#63b8ff" points="463.54,-207.68 474.12,-207.1 465.49,-200.96 463.54,-207.68"/>
</a>
</g>
</g>
<!-- Node10 -->
<g id="Node000010" class="node">
<title>Node10</title>
<g id="a_Node000010"><a xlink:href="class_diagram_scene.html#a4d84b4d068e1c3ee53f9f9f8c6e7a94f" target="_top" xlink:title=" ">
<polygon fill="white" stroke="#666666" points="605.5,-190 449.25,-190 449.25,-158 605.5,-158 605.5,-190"/>
<text xml:space="preserve" text-anchor="start" x="457.25" y="-176.5" font-family="Helvetica,sans-Serif" font-size="10.00">DiagramScene::addRelationship</text>
<text xml:space="preserve" text-anchor="middle" x="527.38" y="-164.5" font-family="Helvetica,sans-Serif" font-size="10.00">Connection</text>
</a>
</g>
</g>
<!-- Node4&#45;&gt;Node10 -->
<g id="edge9_Node000004_Node000010" class="edge">
<title>Node4&#45;&gt;Node10</title>
<g id="a_edge9_Node000004_Node000010"><a xlink:title=" ">
<path fill="none" stroke="#63b8ff" d="M413.59,-158.66C421.27,-159.7 429.39,-160.81 437.63,-161.93"/>
<polygon fill="#63b8ff" stroke="#63b8ff" points="437.02,-165.38 447.4,-163.26 437.96,-158.44 437.02,-165.38"/>
</a>
</g>
</g>
<!-- Node11 -->
<g id="Node000011" class="node">
<title>Node11</title>
<g id="a_Node000011"><a xlink:href="class_basic_element.html#a70598cf89581cc6e308dafaa69551934" target="_top" xlink:title=" ">
<polygon fill="white" stroke="#666666" points="600.25,-140 454.5,-140 454.5,-108 600.25,-108 600.25,-140"/>
<text xml:space="preserve" text-anchor="start" x="462.5" y="-126.5" font-family="Helvetica,sans-Serif" font-size="10.00">BasicElement::getConnection</text>
<text xml:space="preserve" text-anchor="middle" x="527.38" y="-114.5" font-family="Helvetica,sans-Serif" font-size="10.00">PointByDirection</text>
</a>
</g>
</g>
<!-- Node4&#45;&gt;Node11 -->
<g id="edge10_Node000004_Node000011" class="edge">
<title>Node4&#45;&gt;Node11</title>
<g id="a_edge10_Node000004_Node000011"><a xlink:title=" ">
<path fill="none" stroke="#63b8ff" d="M413.59,-143.52C422.92,-141.91 432.91,-140.18 442.96,-138.44"/>
<polygon fill="#63b8ff" stroke="#63b8ff" points="443.55,-141.89 452.81,-136.74 442.36,-134.99 443.55,-141.89"/>
</a>
</g>
</g>
<!-- Node6 -->
<g id="Node000006" class="node">
<title>Node6</title>
<g id="a_Node000006"><a xlink:href="class_diagram_scene.html#a355fffd036fbfb751f2d9ada2b9eacf5" target="_top" xlink:title=" ">
<polygon fill="white" stroke="#666666" points="793.25,-234 641.5,-234 641.5,-202 793.25,-202 793.25,-234"/>
<text xml:space="preserve" text-anchor="start" x="649.5" y="-220.5" font-family="Helvetica,sans-Serif" font-size="10.00">DiagramScene::handleAttribute</text>
<text xml:space="preserve" text-anchor="middle" x="717.38" y="-208.5" font-family="Helvetica,sans-Serif" font-size="10.00">Connection</text>
</a>
</g>
</g>
<!-- Node5&#45;&gt;Node6 -->
<g id="edge5_Node000005_Node000006" class="edge">
<title>Node5&#45;&gt;Node6</title>
<g id="a_edge5_Node000005_Node000006"><a xlink:title=" ">
<path fill="none" stroke="#63b8ff" d="M603.49,-218C612.09,-218 620.92,-218 629.66,-218"/>
<polygon fill="#63b8ff" stroke="#63b8ff" points="629.56,-221.5 639.56,-218 629.56,-214.5 629.56,-221.5"/>
</a>
</g>
</g>
<!-- Node7 -->
<g id="Node000007" class="node">
<title>Node7</title>
<g id="a_Node000007"><a xlink:href="class_connection_line.html#ab11952b505976244aabc575e0ec7b118" target="_top" xlink:title=" ">
<polygon fill="white" stroke="#666666" points="985.5,-272 829.25,-272 829.25,-252 985.5,-252 985.5,-272"/>
<text xml:space="preserve" text-anchor="middle" x="907.38" y="-258.5" font-family="Helvetica,sans-Serif" font-size="10.00">ConnectionLine::getEndElement</text>
</a>
</g>
</g>
<!-- Node6&#45;&gt;Node7 -->
<g id="edge6_Node000006_Node000007" class="edge">
<title>Node6&#45;&gt;Node7</title>
<g id="a_edge6_Node000006_Node000007"><a xlink:title=" ">
<path fill="none" stroke="#63b8ff" d="M788.65,-234.45C809.05,-239.22 831.04,-244.37 850.44,-248.91"/>
<polygon fill="#63b8ff" stroke="#63b8ff" points="849.52,-252.29 860.05,-251.16 851.11,-245.47 849.52,-252.29"/>
</a>
</g>
</g>
<!-- Node8 -->
<g id="Node000008" class="node">
<title>Node8</title>
<g id="a_Node000008"><a xlink:href="class_connection_line.html#ad957be37b7bbb9250366225fd357a5a6" target="_top" xlink:title=" ">
<polygon fill="white" stroke="#666666" points="969.38,-234 845.38,-234 845.38,-202 969.38,-202 969.38,-234"/>
<text xml:space="preserve" text-anchor="start" x="853.38" y="-220.5" font-family="Helvetica,sans-Serif" font-size="10.00">ConnectionLine::getStart</text>
<text xml:space="preserve" text-anchor="middle" x="907.38" y="-208.5" font-family="Helvetica,sans-Serif" font-size="10.00">Element</text>
</a>
</g>
</g>
<!-- Node6&#45;&gt;Node8 -->
<g id="edge7_Node000006_Node000008" class="edge">
<title>Node6&#45;&gt;Node8</title>
<g id="a_edge7_Node000006_Node000008"><a xlink:title=" ">
<path fill="none" stroke="#63b8ff" d="M793.49,-218C806.7,-218 820.43,-218 833.57,-218"/>
<polygon fill="#63b8ff" stroke="#63b8ff" points="833.43,-221.5 843.43,-218 833.43,-214.5 833.43,-221.5"/>
</a>
</g>
</g>
<!-- Node9 -->
<g id="Node000009" class="node">
<title>Node9</title>
<g id="a_Node000009"><a xlink:href="class_connection_line.html#aea85162c28f293b1df0cce97d57bb471" target="_top" xlink:title=" ">
<polygon fill="white" stroke="#666666" points="966.38,-184 848.38,-184 848.38,-164 966.38,-164 966.38,-184"/>
<text xml:space="preserve" text-anchor="middle" x="907.38" y="-170.5" font-family="Helvetica,sans-Serif" font-size="10.00">ConnectionLine::isValid</text>
</a>
</g>
</g>
<!-- Node6&#45;&gt;Node9 -->
<g id="edge8_Node000006_Node000009" class="edge">
<title>Node6&#45;&gt;Node9</title>
<g id="a_edge8_Node000006_Node000009"><a xlink:title=" ">
<path fill="none" stroke="#63b8ff" d="M788.65,-201.55C809.05,-196.78 831.04,-191.63 850.44,-187.09"/>
<polygon fill="#63b8ff" stroke="#63b8ff" points="851.11,-190.53 860.05,-184.84 849.52,-183.71 851.11,-190.53"/>
</a>
</g>
</g>
<!-- Node13 -->
<g id="Node000013" class="node">
<title>Node13</title>
<g id="a_Node000013"><a xlink:href="class_diagram_scene.html#ab3f76238d2c252f2918047140d87dd23" target="_top" xlink:title=" ">
<polygon fill="white" stroke="#666666" points="596.5,-90 458.25,-90 458.25,-70 596.5,-70 596.5,-90"/>
<text xml:space="preserve" text-anchor="middle" x="527.38" y="-76.5" font-family="Helvetica,sans-Serif" font-size="10.00">DiagramScene::addElement</text>
</a>
</g>
</g>
<!-- Node12&#45;&gt;Node13 -->
<g id="edge12_Node000012_Node000013" class="edge">
<title>Node12&#45;&gt;Node13</title>
<g id="a_edge12_Node000012_Node000013"><a xlink:title=" ">
<path fill="none" stroke="#63b8ff" d="M413.59,-80C424.05,-80 435.36,-80 446.64,-80"/>
<polygon fill="#63b8ff" stroke="#63b8ff" points="446.37,-83.5 456.37,-80 446.37,-76.5 446.37,-83.5"/>
</a>
</g>
</g>
<!-- Node15 -->
<g id="Node000015" class="node">
<title>Node15</title>
<g id="a_Node000015"><a xlink:href="class_element_factory.html#a84bb24abdffea9682c5c007bc7792927" target="_top" xlink:title=" ">
<polygon fill="white" stroke="#666666" points="604.38,-52 450.38,-52 450.38,-32 604.38,-32 604.38,-52"/>
<text xml:space="preserve" text-anchor="middle" x="527.38" y="-38.5" font-family="Helvetica,sans-Serif" font-size="10.00">ElementFactory::createElement</text>
</a>
</g>
</g>
<!-- Node12&#45;&gt;Node15 -->
<g id="edge14_Node000012_Node000015" class="edge">
<title>Node12&#45;&gt;Node15</title>
<g id="a_edge14_Node000012_Node000015"><a xlink:title=" ">
<path fill="none" stroke="#63b8ff" d="M413.59,-68.5C431.62,-64.26 452.16,-59.43 470.74,-55.07"/>
<polygon fill="#63b8ff" stroke="#63b8ff" points="471.3,-58.53 480.23,-52.84 469.7,-51.72 471.3,-58.53"/>
</a>
</g>
</g>
<!-- Node14 -->
<g id="Node000014" class="node">
<title>Node14</title>
<g id="a_Node000014"><a xlink:href="class_diagram_scene.html#ad97223f92ae9cce97857ac5c45c1a3b6" target="_top" xlink:title=" ">
<polygon fill="white" stroke="#666666" points="791.75,-90 643,-90 643,-70 791.75,-70 791.75,-90"/>
<text xml:space="preserve" text-anchor="middle" x="717.38" y="-76.5" font-family="Helvetica,sans-Serif" font-size="10.00">DiagramScene::elementAdded</text>
</a>
</g>
</g>
<!-- Node13&#45;&gt;Node14 -->
<g id="edge13_Node000013_Node000014" class="edge">
<title>Node13&#45;&gt;Node14</title>
<g id="a_edge13_Node000013_Node000014"><a xlink:title=" ">
<path fill="none" stroke="#63b8ff" d="M596.78,-80C607.96,-80 619.66,-80 631.19,-80"/>
<polygon fill="#63b8ff" stroke="#63b8ff" points="631.12,-83.5 641.12,-80 631.12,-76.5 631.12,-83.5"/>
</a>
</g>
</g>
</g>
</svg>
