<?xml version="1.0" encoding="UTF-8" standalone="no"?>
<!DOCTYPE svg PUBLIC "-//W3C//DTD SVG 1.1//EN"
 "http://www.w3.org/Graphics/SVG/1.1/DTD/svg11.dtd">
<!-- Generated by graphviz version 14.1.1 (20251213.1925)
 -->
<!-- Title: Relationship::Relationship Pages: 1 -->
<svg width="1235pt" height="230pt"
 viewBox="0.00 0.00 1235.00 230.00" xmlns="http://www.w3.org/2000/svg" xmlns:xlink="http://www.w3.org/1999/xlink">
<g id="graph0" class="graph" transform="scale(1 1) rotate(0) translate(4 226)">
<title>Relationship::Relationship</title>
<!-- Node1 -->
<g id="Node000001" class="node">
<title>Node1</title>
<g id="a_Node000001"><a xlink:title=" ">
<polygon fill="#999999" stroke="#666666" points="130,-122 0,-122 0,-102 130,-102 130,-122"/>
<text xml:space="preserve" text-anchor="middle" x="65" y="-108.5" font-family="Helvetica,sans-Serif" font-size="10.00">Relationship::Relationship</text>
</a>
</g>
</g>
<!-- Node2 -->
<g id="Node000002" class="node">
<title>Node2</title>
<g id="a_Node000002"><a xlink:href="class_basic_element.html#a85cccd7db0e46e4e2b646365cd6c66a9" target="_top" xlink:title=" ">
<polygon fill="white" stroke="#666666" points="475.5,-144 332,-144 332,-124 475.5,-124 475.5,-144"/>
<text xml:space="preserve" text-anchor="middle" x="403.75" y="-130.5" font-family="Helvetica,sans-Serif" font-size="10.00">BasicElement::BasicElement</text>
</a>
</g>
</g>
<!-- Node1&#45;&gt;Node2 -->
<g id="edge1_Node000001_Node000002" class="edge">
<title>Node1&#45;&gt;Node2</title>
<g id="a_edge1_Node000001_Node000002"><a xlink:title=" ">
<path fill="none" stroke="#63b8ff" d="M130.26,-118.12C142.14,-119.15 154.44,-120.16 166,-121 217.29,-124.71 274.89,-127.9 320.44,-130.19"/>
<polygon fill="#63b8ff" stroke="#63b8ff" points="320.07,-133.67 330.23,-130.67 320.42,-126.68 320.07,-133.67"/>
</a>
</g>
</g>
<!-- Node9 -->
<g id="Node000009" class="node">
<title>Node9</title>
<g id="a_Node000009"><a xlink:href="class_relationship.html#a7029bae7f63e705126cf2776602e0b52" target="_top" xlink:title=" ">
<polygon fill="white" stroke="#666666" points="296,-94 166,-94 166,-74 296,-74 296,-94"/>
<text xml:space="preserve" text-anchor="middle" x="231" y="-80.5" font-family="Helvetica,sans-Serif" font-size="10.00">Relationship::Relationship</text>
</a>
</g>
</g>
<!-- Node1&#45;&gt;Node9 -->
<g id="edge8_Node000001_Node000009" class="edge">
<title>Node1&#45;&gt;Node9</title>
<g id="a_edge8_Node000001_Node000009"><a xlink:title=" ">
<path fill="none" stroke="#63b8ff" d="M127.07,-101.57C136.93,-99.89 147.22,-98.13 157.32,-96.41"/>
<polygon fill="#63b8ff" stroke="#63b8ff" points="157.85,-99.87 167.12,-94.74 156.67,-92.97 157.85,-99.87"/>
</a>
</g>
</g>
<!-- Node3 -->
<g id="Node000003" class="node">
<title>Node3</title>
<g id="a_Node000003"><a xlink:href="class_basic_element.html#a78e2ce29aa5b2a9fae74cf435996ce8b" target="_top" xlink:title=" ">
<polygon fill="white" stroke="#666666" points="659.5,-197 515.25,-197 515.25,-165 659.5,-165 659.5,-197"/>
<text xml:space="preserve" text-anchor="start" x="523.25" y="-183.5" font-family="Helvetica,sans-Serif" font-size="10.00">BasicElement::createAndAdd</text>
<text xml:space="preserve" text-anchor="middle" x="587.38" y="-171.5" font-family="Helvetica,sans-Serif" font-size="10.00">DefaultConnectionPoints</text>
</a>
</g>
</g>
<!-- Node2&#45;&gt;Node3 -->
<g id="edge2_Node000002_Node000003" class="edge">
<title>Node2&#45;&gt;Node3</title>
<g id="a_edge2_Node000002_Node000003"><a xlink:title=" ">
<path fill="none" stroke="#63b8ff" d="M445.06,-144.43C464.64,-149.5 488.81,-155.75 511.59,-161.65"/>
<polygon fill="#63b8ff" stroke="#63b8ff" points="510.61,-165.01 521.17,-164.13 512.37,-158.23 510.61,-165.01"/>
</a>
</g>
</g>
<!-- Node8 -->
<g id="Node000008" class="node">
<title>Node8</title>
<g id="a_Node000008"><a xlink:href="class_basic_element.html#a01a6511d922708fe0042474740109152" target="_top" xlink:title=" ">
<polygon fill="white" stroke="#666666" points="656.5,-147 518.25,-147 518.25,-115 656.5,-115 656.5,-147"/>
<text xml:space="preserve" text-anchor="start" x="526.25" y="-133.5" font-family="Helvetica,sans-Serif" font-size="10.00">BasicElement::elementType</text>
<text xml:space="preserve" text-anchor="middle" x="587.38" y="-121.5" font-family="Helvetica,sans-Serif" font-size="10.00">ToString</text>
</a>
</g>
</g>
<!-- Node2&#45;&gt;Node8 -->
<g id="edge7_Node000002_Node000008" class="edge">
<title>Node2&#45;&gt;Node8</title>
<g id="a_edge7_Node000002_Node000008"><a xlink:title=" ">
<path fill="none" stroke="#63b8ff" d="M475.75,-132.83C485.8,-132.66 496.19,-132.49 506.39,-132.32"/>
<polygon fill="#63b8ff" stroke="#63b8ff" points="506.35,-135.82 516.29,-132.16 506.23,-128.82 506.35,-135.82"/>
</a>
</g>
</g>
<!-- Node4 -->
<g id="Node000004" class="node">
<title>Node4</title>
<g id="a_Node000004"><a xlink:href="class_basic_element.html#a0357bfa9b1ef06dd1c9d64bcb00813f4" target="_top" xlink:title=" ">
<polygon fill="white" stroke="#666666" points="849.5,-222 701.5,-222 701.5,-190 849.5,-190 849.5,-222"/>
<text xml:space="preserve" text-anchor="start" x="709.5" y="-208.5" font-family="Helvetica,sans-Serif" font-size="10.00">BasicElement::addConnection</text>
<text xml:space="preserve" text-anchor="middle" x="775.5" y="-196.5" font-family="Helvetica,sans-Serif" font-size="10.00">Point</text>
</a>
</g>
</g>
<!-- Node3&#45;&gt;Node4 -->
<g id="edge3_Node000003_Node000004" class="edge">
<title>Node3&#45;&gt;Node4</title>
<g id="a_edge3_Node000003_Node000004"><a xlink:title=" ">
<path fill="none" stroke="#63b8ff" d="M659.8,-190.59C669.64,-191.91 679.81,-193.28 689.85,-194.63"/>
<polygon fill="#63b8ff" stroke="#63b8ff" points="689.23,-198.08 699.61,-195.94 690.16,-191.14 689.23,-198.08"/>
</a>
</g>
</g>
<!-- Node5 -->
<g id="Node000005" class="node">
<title>Node5</title>
<g id="a_Node000005"><a xlink:href="class_connection_point.html#a828996f0bb02e9154b5d3af03f1734b8" target="_top" xlink:title=" ">
<polygon fill="white" stroke="#666666" points="851.75,-172 699.25,-172 699.25,-140 851.75,-140 851.75,-172"/>
<text xml:space="preserve" text-anchor="start" x="707.25" y="-158.5" font-family="Helvetica,sans-Serif" font-size="10.00">ConnectionPoint::createDefault</text>
<text xml:space="preserve" text-anchor="middle" x="775.5" y="-146.5" font-family="Helvetica,sans-Serif" font-size="10.00">ConnectionPoints</text>
</a>
</g>
</g>
<!-- Node3&#45;&gt;Node5 -->
<g id="edge4_Node000003_Node000005" class="edge">
<title>Node3&#45;&gt;Node5</title>
<g id="a_edge4_Node000003_Node000005"><a xlink:title=" ">
<path fill="none" stroke="#63b8ff" d="M659.8,-171.41C668.91,-170.18 678.32,-168.92 687.64,-167.67"/>
<polygon fill="#63b8ff" stroke="#63b8ff" points="687.99,-171.15 697.44,-166.35 687.06,-164.21 687.99,-171.15"/>
</a>
</g>
</g>
<!-- Node6 -->
<g id="Node000006" class="node">
<title>Node6</title>
<g id="a_Node000006"><a xlink:href="class_connection_point.html#a0bca0b4cf605278cb17d8052dc027932" target="_top" xlink:title=" ">
<polygon fill="white" stroke="#666666" points="1047,-172 887.75,-172 887.75,-140 1047,-140 1047,-172"/>
<text xml:space="preserve" text-anchor="start" x="895.75" y="-158.5" font-family="Helvetica,sans-Serif" font-size="10.00">ConnectionPoint::addConnection</text>
<text xml:space="preserve" text-anchor="middle" x="967.38" y="-146.5" font-family="Helvetica,sans-Serif" font-size="10.00">Point</text>
</a>
</g>
</g>
<!-- Node5&#45;&gt;Node6 -->
<g id="edge5_Node000005_Node000006" class="edge">
<title>Node5&#45;&gt;Node6</title>
<g id="a_edge5_Node000005_Node000006"><a xlink:title=" ">
<path fill="none" stroke="#63b8ff" d="M852.09,-156C859.96,-156 868.02,-156 876.03,-156"/>
<polygon fill="#63b8ff" stroke="#63b8ff" points="875.8,-159.5 885.8,-156 875.8,-152.5 875.8,-159.5"/>
</a>
</g>
</g>
<!-- Node7 -->
<g id="Node000007" class="node">
<title>Node7</title>
<g id="a_Node000007"><a xlink:href="class_connection_point.html#ac498b99d7f91805fea3eab19f2e8b260" target="_top" xlink:title=" ">
<polygon fill="white" stroke="#666666" points="1226.5,-172 1083,-172 1083,-140 1226.5,-140 1226.5,-172"/>
<text xml:space="preserve" text-anchor="start" x="1091" y="-158.5" font-family="Helvetica,sans-Serif" font-size="10.00">ConnectionPoint::Connection</text>
<text xml:space="preserve" text-anchor="middle" x="1154.75" y="-146.5" font-family="Helvetica,sans-Serif" font-size="10.00">Point</text>
</a>
</g>
</g>
<!-- Node6&#45;&gt;Node7 -->
<g id="edge6_Node000006_Node000007" class="edge">
<title>Node6&#45;&gt;Node7</title>
<g id="a_edge6_Node000006_Node000007"><a xlink:title=" ">
<path fill="none" stroke="#63b8ff" d="M1047.26,-156C1055.14,-156 1063.15,-156 1071.07,-156"/>
<polygon fill="#63b8ff" stroke="#63b8ff" points="1071.06,-159.5 1081.06,-156 1071.06,-152.5 1071.06,-159.5"/>
</a>
</g>
</g>
<!-- Node9&#45;&gt;Node2 -->
<g id="edge9_Node000009_Node000002" class="edge">
<title>Node9&#45;&gt;Node2</title>
<g id="a_edge9_Node000009_Node000002"><a xlink:title=" ">
<path fill="none" stroke="#63b8ff" d="M267.79,-94.48C293.52,-102.02 328.44,-112.24 356.31,-120.4"/>
<polygon fill="#63b8ff" stroke="#63b8ff" points="354.97,-123.66 365.55,-123.11 356.94,-116.94 354.97,-123.66"/>
</a>
</g>
</g>
<!-- Node9&#45;&gt;Node9 -->
<g id="edge11_Node000009_Node000009" class="edge">
<title>Node9&#45;&gt;Node9</title>
<g id="a_edge11_Node000009_Node000009"><a xlink:title=" ">
<path fill="none" stroke="#63b8ff" d="M204.62,-94.34C193.35,-102.98 202.14,-112 231,-112 246.78,-112 256.56,-109.3 260.34,-105.44"/>
<polygon fill="#63b8ff" stroke="#63b8ff" points="263.73,-104.56 257.77,-95.8 256.96,-106.37 263.73,-104.56"/>
</a>
</g>
</g>
<!-- Node10 -->
<g id="Node000010" class="node">
<title>Node10</title>
<g id="a_Node000010"><a xlink:href="class_relationship.html#afdc74fcf0c54abc297ee3c6239d9a867" target="_top" xlink:title=" ">
<polygon fill="white" stroke="#666666" points="470.62,-96 336.88,-96 336.88,-76 470.62,-76 470.62,-96"/>
<text xml:space="preserve" text-anchor="middle" x="403.75" y="-82.5" font-family="Helvetica,sans-Serif" font-size="10.00">Relationship::preferredSize</text>
</a>
</g>
</g>
<!-- Node9&#45;&gt;Node10 -->
<g id="edge10_Node000009_Node000010" class="edge">
<title>Node9&#45;&gt;Node10</title>
<g id="a_edge10_Node000009_Node000010"><a xlink:title=" ">
<path fill="none" stroke="#63b8ff" d="M296.07,-84.75C305.59,-84.86 315.49,-84.98 325.25,-85.09"/>
<polygon fill="#63b8ff" stroke="#63b8ff" points="325.06,-88.59 335.1,-85.21 325.14,-81.59 325.06,-88.59"/>
</a>
</g>
</g>
<!-- Node11 -->
<g id="Node000011" class="node">
<title>Node11</title>
<g id="a_Node000011"><a xlink:href="class_basic_element.html#ab86c964c6ef9e8d7299efc263a0837e7" target="_top" xlink:title=" ">
<polygon fill="white" stroke="#666666" points="461.62,-58 345.88,-58 345.88,-38 461.62,-38 461.62,-58"/>
<text xml:space="preserve" text-anchor="middle" x="403.75" y="-44.5" font-family="Helvetica,sans-Serif" font-size="10.00">BasicElement::setSize</text>
</a>
</g>
</g>
<!-- Node9&#45;&gt;Node11 -->
<g id="edge12_Node000009_Node000011" class="edge">
<title>Node9&#45;&gt;Node11</title>
<g id="a_edge12_Node000009_Node000011"><a xlink:title=" ">
<path fill="none" stroke="#63b8ff" d="M281.39,-73.59C300.33,-69.59 322.17,-64.99 342.05,-60.8"/>
<polygon fill="#63b8ff" stroke="#63b8ff" points="342.63,-64.25 351.7,-58.76 341.19,-57.4 342.63,-64.25"/>
</a>
</g>
</g>
<!-- Node12 -->
<g id="Node000012" class="node">
<title>Node12</title>
<g id="a_Node000012"><a xlink:href="class_basic_element.html#a2cb2eb803daa35380908948215f8d468" target="_top" xlink:title=" ">
<polygon fill="white" stroke="#666666" points="658.38,-96 516.38,-96 516.38,-76 658.38,-76 658.38,-96"/>
<text xml:space="preserve" text-anchor="middle" x="587.38" y="-82.5" font-family="Helvetica,sans-Serif" font-size="10.00">BasicElement::minimumSize</text>
</a>
</g>
</g>
<!-- Node11&#45;&gt;Node12 -->
<g id="edge13_Node000011_Node000012" class="edge">
<title>Node11&#45;&gt;Node12</title>
<g id="a_edge13_Node000011_Node000012"><a xlink:title=" ">
<path fill="none" stroke="#63b8ff" d="M454.86,-58.48C476.7,-63.05 502.49,-68.45 525.43,-73.25"/>
<polygon fill="#63b8ff" stroke="#63b8ff" points="524.44,-76.62 534.95,-75.24 525.88,-69.77 524.44,-76.62"/>
</a>
</g>
</g>
<!-- Node13 -->
<g id="Node000013" class="node">
<title>Node13</title>
<g id="a_Node000013"><a xlink:href="class_basic_element.html#a596caee40cdd00a0aacce49689b63f92" target="_top" xlink:title=" ">
<polygon fill="white" stroke="#666666" points="663.25,-58 511.5,-58 511.5,-38 663.25,-38 663.25,-58"/>
<text xml:space="preserve" text-anchor="middle" x="587.38" y="-44.5" font-family="Helvetica,sans-Serif" font-size="10.00">BasicElement::notifyObservers</text>
</a>
</g>
</g>
<!-- Node11&#45;&gt;Node13 -->
<g id="edge14_Node000011_Node000013" class="edge">
<title>Node11&#45;&gt;Node13</title>
<g id="a_edge14_Node000011_Node000013"><a xlink:title=" ">
<path fill="none" stroke="#63b8ff" d="M461.72,-48C473.87,-48 486.96,-48 499.94,-48"/>
<polygon fill="#63b8ff" stroke="#63b8ff" points="499.77,-51.5 509.77,-48 499.77,-44.5 499.77,-51.5"/>
</a>
</g>
</g>
<!-- Node14 -->
<g id="Node000014" class="node">
<title>Node14</title>
<g id="a_Node000014"><a xlink:href="class_basic_element.html#a542adbf85a58c5c9bf17975964d7e446" target="_top" xlink:title=" ">
<polygon fill="white" stroke="#666666" points="637.75,-20 537,-20 537,0 637.75,0 637.75,-20"/>
<text xml:space="preserve" text-anchor="middle" x="587.38" y="-6.5" font-family="Helvetica,sans-Serif" font-size="10.00">BasicElement::size</text>
</a>
</g>
</g>
<!-- Node11&#45;&gt;Node14 -->
<g id="edge15_Node000011_Node000014" class="edge">
<title>Node11&#45;&gt;Node14</title>
<g id="a_edge15_Node000011_Node000014"><a xlink:title=" ">
<path fill="none" stroke="#63b8ff" d="M454.86,-37.52C476.79,-32.93 502.71,-27.51 525.71,-22.69"/>
<polygon fill="#63b8ff" stroke="#63b8ff" points="526.19,-26.17 535.26,-20.69 524.76,-19.32 526.19,-26.17"/>
</a>
</g>
</g>
</g>
</svg>
