<?xml version="1.0" encoding="UTF-8" standalone="no"?>
<!DOCTYPE svg PUBLIC "-//W3C//DTD SVG 1.1//EN"
 "http://www.w3.org/Graphics/SVG/1.1/DTD/svg11.dtd">
<!-- Generated by graphviz version 14.1.1 (20251213.1925)
 -->
<!-- Title: ConnectionLine::setLineWidth Pages: 1 -->
<!--zoomable 178 -->

<svg id="main" version="1.1" xmlns="http://www.w3.org/2000/svg" xmlns:xlink="http://www.w3.org/1999/xlink" xml:space="preserve" onload="init(evt)">

<style type="text/css"><![CDATA[
.node, .edge {opacity: 0.7;}
.node.selected, .edge.selected {opacity: 1;}
.edge:hover path { stroke: red; }
.edge:hover polygon { stroke: red; fill: red; }
]]></style>

<defs>
  <circle id="rim" cx="0" cy="0" r="7"/>
  <circle id="rim2" cx="0" cy="0" r="3.5"/>
  <g id="zoomPlus">
    <use xlink:href="#rim" fill="#404040"><set attributeName="fill" to="#808080" begin="zoomplus.mouseover" end="zoomplus.mouseout"/></use>
    <path d="M-4,0h8M0,-4v8" fill="none" stroke="white" stroke-width="1.5" pointer-events="none"/>
  </g>
  <g id="zoomMin">
    <use xlink:href="#rim" fill="#404040"><set attributeName="fill" to="#808080" begin="zoomminus.mouseover" end="zoomminus.mouseout"/></use>
    <path d="M-4,0h8" fill="none" stroke="white" stroke-width="1.5" pointer-events="none"/>
  </g>
  <g id="arrowUp" transform="translate(30 24)">
    <use xlink:href="#rim"/>
    <path pointer-events="none" fill="none" stroke="white" stroke-width="1.5" d="M0,-3.0v7 M-2.5,-0.5L0,-3.0L2.5,-0.5"/>
  </g>
  <g id="arrowRight" transform="rotate(90) translate(36 -43)">
    <use xlink:href="#rim"/>
    <path pointer-events="none" fill="none" stroke="white" stroke-width="1.5" d="M0,-3.0v7 M-2.5,-0.5L0,-3.0L2.5,-0.5"/>
  </g>
  <g id="arrowDown" transform="rotate(180) translate(-30 -48)">
    <use xlink:href="#rim"/>
    <path pointer-events="none" fill="none" stroke="white" stroke-width="1.5" d="M0,-3.0v7 M-2.5,-0.5L0,-3.0L2.5,-0.5"/>
  </g>
  <g id="arrowLeft" transform="rotate(270) translate(-36 17)">
    <use xlink:href="#rim"/>
    <path pointer-events="none" fill="none" stroke="white" stroke-width="1.5" d="M0,-3.0v7 M-2.5,-0.5L0,-3.0L2.5,-0.5"/>
  </g>
  <g id="resetDef">
    <use xlink:href="#rim2" fill="#404040"><set attributeName="fill" to="#808080" begin="reset.mouseover" end="reset.mouseout"/></use>
  </g>
</defs>
<script type="application/ecmascript">
var viewWidth = 882;
var viewHeight = 178;
var sectionId = 'dynsection-41';
</script>
<script type="application/ecmascript" xlink:href="svg.min.js"/>
<svg id="graph" class="graph">
<g id="viewport">
<title>ConnectionLine::setLineWidth</title>
<!-- Node1 -->
<g id="Node000001" class="node">
<title>Node1</title>
<g id="a_Node000001"><a xlink:title=" ">
<polygon fill="#999999" stroke="#666666" points="146.5,-73 0,-73 0,-53 146.5,-53 146.5,-73"/>
<text xml:space="preserve" text-anchor="middle" x="73.25" y="-59.5" font-family="Helvetica,sans-Serif" font-size="10.00">ConnectionLine::setLineWidth</text>
</a>
</g>
</g>
<!-- Node2 -->
<g id="Node000002" class="node">
<title>Node2</title>
<g id="a_Node000002"><a xlink:href="class_connection_line.html#a9de44ae385d7941f3aa79da06e97d510" target="_top" xlink:title=" ">
<polygon fill="white" stroke="#666666" points="319.25,-104 182.5,-104 182.5,-72 319.25,-72 319.25,-104"/>
<text xml:space="preserve" text-anchor="start" x="190.5" y="-90.5" font-family="Helvetica,sans-Serif" font-size="10.00">ConnectionLine::connection</text>
<text xml:space="preserve" text-anchor="middle" x="250.88" y="-78.5" font-family="Helvetica,sans-Serif" font-size="10.00">Changed</text>
</a>
</g>
</g>
<!-- Node1&#45;&gt;Node2 -->
<g id="edge1_Node000001_Node000002" class="edge">
<title>Node1&#45;&gt;Node2</title>
<g id="a_edge1_Node000001_Node000002"><a xlink:title=" ">
<path fill="none" stroke="#63b8ff" d="M146.95,-73.35C154.84,-74.47 162.9,-75.62 170.86,-76.75"/>
<polygon fill="#63b8ff" stroke="#63b8ff" points="170.13,-80.18 180.52,-78.13 171.11,-73.25 170.13,-80.18"/>
</a>
</g>
</g>
<!-- Node9 -->
<g id="Node000009" class="node">
<title>Node9</title>
<g id="a_Node000009"><a xlink:href="class_connection_line.html#a3c8e72d1084c985add08c5e37d54835f" target="_top" xlink:title=" ">
<polygon fill="white" stroke="#666666" points="315.88,-54 185.88,-54 185.88,-22 315.88,-22 315.88,-54"/>
<text xml:space="preserve" text-anchor="start" x="193.88" y="-40.5" font-family="Helvetica,sans-Serif" font-size="10.00">ConnectionLine::lineWidth</text>
<text xml:space="preserve" text-anchor="middle" x="250.88" y="-28.5" font-family="Helvetica,sans-Serif" font-size="10.00">Changed</text>
</a>
</g>
</g>
<!-- Node1&#45;&gt;Node9 -->
<g id="edge10_Node000001_Node000009" class="edge">
<title>Node1&#45;&gt;Node9</title>
<g id="a_edge10_Node000001_Node000009"><a xlink:title=" ">
<path fill="none" stroke="#63b8ff" d="M146.95,-52.65C155.97,-51.37 165.22,-50.05 174.28,-48.76"/>
<polygon fill="#63b8ff" stroke="#63b8ff" points="174.74,-52.23 184.14,-47.36 173.75,-45.3 174.74,-52.23"/>
</a>
</g>
</g>
<!-- Node3 -->
<g id="Node000003" class="node">
<title>Node3</title>
<g id="a_Node000003"><a xlink:href="class_connection_line.html#a657559dca679d5fd04ae565b442b6a8b" target="_top" xlink:title=" ">
<polygon fill="white" stroke="#666666" points="512.25,-98 355.25,-98 355.25,-78 512.25,-78 512.25,-98"/>
<text xml:space="preserve" text-anchor="middle" x="433.75" y="-84.5" font-family="Helvetica,sans-Serif" font-size="10.00">ConnectionLine::ConnectionLine</text>
</a>
</g>
</g>
<!-- Node2&#45;&gt;Node3 -->
<g id="edge2_Node000002_Node000003" class="edge">
<title>Node2&#45;&gt;Node3</title>
<g id="a_edge2_Node000002_Node000003"><a xlink:title=" ">
<path fill="none" stroke="#63b8ff" d="M319.74,-88C327.51,-88 335.51,-88 343.5,-88"/>
<polygon fill="#63b8ff" stroke="#63b8ff" points="343.26,-91.5 353.26,-88 343.26,-84.5 343.26,-91.5"/>
</a>
</g>
</g>
<!-- Node4 -->
<g id="Node000004" class="node">
<title>Node4</title>
<g id="a_Node000004"><a xlink:href="class_connection_line.html#a836aef7faf5a4fb8a5a10bfc71dbabe3" target="_top" xlink:title=" ">
<polygon fill="white" stroke="#666666" points="682.75,-104 548.25,-104 548.25,-72 682.75,-72 682.75,-104"/>
<text xml:space="preserve" text-anchor="start" x="556.25" y="-90.5" font-family="Helvetica,sans-Serif" font-size="10.00">ConnectionLine::connectTo</text>
<text xml:space="preserve" text-anchor="middle" x="615.5" y="-78.5" font-family="Helvetica,sans-Serif" font-size="10.00">Points</text>
</a>
</g>
</g>
<!-- Node3&#45;&gt;Node4 -->
<g id="edge3_Node000003_Node000004" class="edge">
<title>Node3&#45;&gt;Node4</title>
<g id="a_edge3_Node000003_Node000004"><a xlink:title=" ">
<path fill="none" stroke="#63b8ff" d="M512.55,-88C520.45,-88 528.48,-88 536.39,-88"/>
<polygon fill="#63b8ff" stroke="#63b8ff" points="536.35,-91.5 546.35,-88 536.35,-84.5 536.35,-91.5"/>
</a>
</g>
</g>
<!-- Node5 -->
<g id="Node000005" class="node">
<title>Node5</title>
<g id="a_Node000005"><a xlink:href="class_connection_line.html#a53c863c51a284a7a8e6b35bc34bd2d34" target="_top" xlink:title=" ">
<polygon fill="white" stroke="#666666" points="871.25,-170 721.75,-170 721.75,-138 871.25,-138 871.25,-170"/>
<text xml:space="preserve" text-anchor="start" x="729.75" y="-156.5" font-family="Helvetica,sans-Serif" font-size="10.00">ConnectionLine::onConnection</text>
<text xml:space="preserve" text-anchor="middle" x="796.5" y="-144.5" font-family="Helvetica,sans-Serif" font-size="10.00">PointChanged</text>
</a>
</g>
</g>
<!-- Node4&#45;&gt;Node5 -->
<g id="edge4_Node000004_Node000005" class="edge">
<title>Node4&#45;&gt;Node5</title>
<g id="a_edge4_Node000004_Node000005"><a xlink:title=" ">
<path fill="none" stroke="#63b8ff" d="M655.6,-104.38C674.55,-112.15 697.72,-121.37 718.75,-129 723.2,-130.61 727.8,-132.24 732.45,-133.84"/>
<polygon fill="#63b8ff" stroke="#63b8ff" points="731.29,-137.14 741.89,-137.03 733.54,-130.51 731.29,-137.14"/>
</a>
</g>
</g>
<!-- Node6 -->
<g id="Node000006" class="node">
<title>Node6</title>
<g id="a_Node000006"><a xlink:href="class_connection_line.html#a4bce34a3f2fb1fd7145de2d9100c9173" target="_top" xlink:title=" ">
<polygon fill="white" stroke="#666666" points="864.5,-32 728.5,-32 728.5,0 864.5,0 864.5,-32"/>
<text xml:space="preserve" text-anchor="start" x="736.5" y="-18.5" font-family="Helvetica,sans-Serif" font-size="10.00">ConnectionLine::onElement</text>
<text xml:space="preserve" text-anchor="middle" x="796.5" y="-6.5" font-family="Helvetica,sans-Serif" font-size="10.00">PositionChanged</text>
</a>
</g>
</g>
<!-- Node4&#45;&gt;Node6 -->
<g id="edge6_Node000004_Node000006" class="edge">
<title>Node4&#45;&gt;Node6</title>
<g id="a_edge6_Node000004_Node000006"><a xlink:title=" ">
<path fill="none" stroke="#63b8ff" d="M649.7,-71.55C669.5,-62.04 695.28,-50.18 718.75,-41 722.89,-39.38 727.18,-37.78 731.52,-36.22"/>
<polygon fill="#63b8ff" stroke="#63b8ff" points="732.66,-39.53 740.94,-32.92 730.34,-32.92 732.66,-39.53"/>
</a>
</g>
</g>
<!-- Node7 -->
<g id="Node000007" class="node">
<title>Node7</title>
<g id="a_Node000007"><a xlink:href="class_basic_element.html#a02183bafd7c80f9f1f99a9b9f1631524" target="_top" xlink:title=" ">
<polygon fill="white" stroke="#666666" points="874.25,-120 718.75,-120 718.75,-100 874.25,-100 874.25,-120"/>
<text xml:space="preserve" text-anchor="middle" x="796.5" y="-106.5" font-family="Helvetica,sans-Serif" font-size="10.00">BasicElement::positionChanged</text>
</a>
</g>
</g>
<!-- Node4&#45;&gt;Node7 -->
<g id="edge8_Node000004_Node000007" class="edge">
<title>Node4&#45;&gt;Node7</title>
<g id="a_edge8_Node000004_Node000007"><a xlink:title=" ">
<path fill="none" stroke="#63b8ff" d="M683.15,-96.19C690.99,-97.16 699.08,-98.15 707.15,-99.14"/>
<polygon fill="#63b8ff" stroke="#63b8ff" points="706.68,-102.61 717.03,-100.36 707.53,-95.66 706.68,-102.61"/>
</a>
</g>
</g>
<!-- Node8 -->
<g id="Node000008" class="node">
<title>Node8</title>
<g id="a_Node000008"><a xlink:href="class_connection_point.html#a851668ae19e97658f1818a40ea375f65" target="_top" xlink:title=" ">
<polygon fill="white" stroke="#666666" points="859.25,-82 733.75,-82 733.75,-50 859.25,-50 859.25,-82"/>
<text xml:space="preserve" text-anchor="start" x="741.75" y="-68.5" font-family="Helvetica,sans-Serif" font-size="10.00">ConnectionPoint::relative</text>
<text xml:space="preserve" text-anchor="middle" x="796.5" y="-56.5" font-family="Helvetica,sans-Serif" font-size="10.00">PositionChanged</text>
</a>
</g>
</g>
<!-- Node4&#45;&gt;Node8 -->
<g id="edge9_Node000004_Node000008" class="edge">
<title>Node4&#45;&gt;Node8</title>
<g id="a_edge9_Node000004_Node000008"><a xlink:title=" ">
<path fill="none" stroke="#63b8ff" d="M683.15,-79.81C695.91,-78.24 709.34,-76.59 722.3,-75"/>
<polygon fill="#63b8ff" stroke="#63b8ff" points="722.53,-78.49 732.03,-73.8 721.68,-71.55 722.53,-78.49"/>
</a>
</g>
</g>
<!-- Node5&#45;&gt;Node2 -->
<g id="edge5_Node000005_Node000002" class="edge">
<title>Node5&#45;&gt;Node2</title>
<g id="a_edge5_Node000005_Node000002"><a xlink:title=" ">
<path fill="none" stroke="#63b8ff" d="M721.29,-147.8C633.6,-140.07 483.43,-125.59 355.25,-107 347.3,-105.85 339.04,-104.53 330.79,-103.14"/>
<polygon fill="#63b8ff" stroke="#63b8ff" points="331.54,-99.71 321.09,-101.46 330.34,-106.61 331.54,-99.71"/>
</a>
</g>
</g>
<!-- Node6&#45;&gt;Node2 -->
<g id="edge7_Node000006_Node000002" class="edge">
<title>Node6&#45;&gt;Node2</title>
<g id="a_edge7_Node000006_Node000002"><a xlink:title=" ">
<path fill="none" stroke="#63b8ff" d="M728.2,-22.79C641.68,-31.82 486.92,-48.99 355.25,-69 347.31,-70.21 339.05,-71.56 330.81,-72.97"/>
<polygon fill="#63b8ff" stroke="#63b8ff" points="330.35,-69.5 321.1,-74.67 331.56,-76.39 330.35,-69.5"/>
</a>
</g>
</g>
</g>
</svg>

<g id="navigator" transform="translate(0 0)" fill="#404254">
  <rect fill="#f2f5e9" fill-opacity="0.5" stroke="#606060" stroke-width=".5" x="0" y="0" width="60" height="60"/>
  <use id="zoomplus" xlink:href="#zoomPlus" x="17" y="9" onmousedown="handleZoom(evt,'in')"/>
  <use id="zoomminus" xlink:href="#zoomMin" x="42" y="9" onmousedown="handleZoom(evt,'out')"/>
  <use id="reset" xlink:href="#resetDef" x="30" y="36" onmousedown="handleReset()"/>
   <use id="arrowup" xlink:href="#arrowUp" x="0" y="0" onmousedown="handlePan(0,-1)"/>
  <use id="arrowright" xlink:href="#arrowRight" x="0" y="0" onmousedown="handlePan(1,0)"/>
  <use id="arrowdown" xlink:href="#arrowDown" x="0" y="0" onmousedown="handlePan(0,1)"/>
  <use id="arrowleft" xlink:href="#arrowLeft" x="0" y="0" onmousedown="handlePan(-1,0)"/>
</g>
<svg viewBox="0 0 15 15" width="100%" height="30px" preserveAspectRatio="xMaxYMin meet">
 <g id="arrow_out" transform="scale(0.3 0.3)">
  <a xlink:href="class_connection_line_a7983d6ddbc5414ad75bfc9e16b78ea90_cgraph_org.svg" target="_base">
   <rect id="button" ry="5" rx="5" y="6" x="6" height="38" width="38"
        fill="#f2f5e9" fill-opacity="0.5" stroke="#606060" stroke-width="1.0"/>
   <path id="arrow"
     d="M 11.500037,31.436501 C 11.940474,20.09759 22.043105,11.32322 32.158766,21.979434 L 37.068811,17.246167 C 37.068811,17.246167 37.088388,32 37.088388,32 L 22.160133,31.978069 C 22.160133,31.978069 26.997745,27.140456 26.997745,27.140456 C 18.528582,18.264221 13.291696,25.230495 11.500037,31.436501 z"
     style="fill:#404040;"/>
  </a>
 </g>
</svg>

<style type='text/css'>
<![CDATA[
[data-mouse-over-selected='false'] { opacity: 0.7; }
[data-mouse-over-selected='true']  { opacity: 1.0; }
]]>
</style>
<script type="application/ecmascript"><![CDATA[
document.addEventListener('DOMContentLoaded', (event) => {
  highlightEdges();
  highlightAdjacentNodes();
});
]]></script>
</svg>
