<?xml version="1.0" encoding="UTF-8" standalone="no"?>
<!DOCTYPE svg PUBLIC "-//W3C//DTD SVG 1.1//EN"
 "http://www.w3.org/Graphics/SVG/1.1/DTD/svg11.dtd">
<!-- Generated by graphviz version 14.1.1 (20251213.1925)
 -->
<!-- Title: BasicElement::connectionPoints Pages: 1 -->
<!--zoomable 748 -->

<svg id="main" version="1.1" xmlns="http://www.w3.org/2000/svg" xmlns:xlink="http://www.w3.org/1999/xlink" xml:space="preserve" onload="init(evt)">

<style type="text/css"><![CDATA[
.node, .edge {opacity: 0.7;}
.node.selected, .edge.selected {opacity: 1;}
.edge:hover path { stroke: red; }
.edge:hover polygon { stroke: red; fill: red; }
]]></style>

<defs>
  <circle id="rim" cx="0" cy="0" r="7"/>
  <circle id="rim2" cx="0" cy="0" r="3.5"/>
  <g id="zoomPlus">
    <use xlink:href="#rim" fill="#404040"><set attributeName="fill" to="#808080" begin="zoomplus.mouseover" end="zoomplus.mouseout"/></use>
    <path d="M-4,0h8M0,-4v8" fill="none" stroke="white" stroke-width="1.5" pointer-events="none"/>
  </g>
  <g id="zoomMin">
    <use xlink:href="#rim" fill="#404040"><set attributeName="fill" to="#808080" begin="zoomminus.mouseover" end="zoomminus.mouseout"/></use>
    <path d="M-4,0h8" fill="none" stroke="white" stroke-width="1.5" pointer-events="none"/>
  </g>
  <g id="arrowUp" transform="translate(30 24)">
    <use xlink:href="#rim"/>
    <path pointer-events="none" fill="none" stroke="white" stroke-width="1.5" d="M0,-3.0v7 M-2.5,-0.5L0,-3.0L2.5,-0.5"/>
  </g>
  <g id="arrowRight" transform="rotate(90) translate(36 -43)">
    <use xlink:href="#rim"/>
    <path pointer-events="none" fill="none" stroke="white" stroke-width="1.5" d="M0,-3.0v7 M-2.5,-0.5L0,-3.0L2.5,-0.5"/>
  </g>
  <g id="arrowDown" transform="rotate(180) translate(-30 -48)">
    <use xlink:href="#rim"/>
    <path pointer-events="none" fill="none" stroke="white" stroke-width="1.5" d="M0,-3.0v7 M-2.5,-0.5L0,-3.0L2.5,-0.5"/>
  </g>
  <g id="arrowLeft" transform="rotate(270) translate(-36 17)">
    <use xlink:href="#rim"/>
    <path pointer-events="none" fill="none" stroke="white" stroke-width="1.5" d="M0,-3.0v7 M-2.5,-0.5L0,-3.0L2.5,-0.5"/>
  </g>
  <g id="resetDef">
    <use xlink:href="#rim2" fill="#404040"><set attributeName="fill" to="#808080" begin="reset.mouseover" end="reset.mouseout"/></use>
  </g>
</defs>
<script type="application/ecmascript">
var viewWidth = 2512;
var viewHeight = 748;
var sectionId = 'dynsection-8';
</script>
<script type="application/ecmascript" xlink:href="svg.min.js"/>
<svg id="graph" class="graph">
<g id="viewport">
<title>BasicElement::connectionPoints</title>
<!-- Node1 -->
<g id="Node000001" class="node">
<title>Node1</title>
<g id="a_Node000001"><a xlink:title=" ">
<polygon fill="#999999" stroke="#666666" points="2503.75,-221 2373.75,-221 2373.75,-189 2503.75,-189 2503.75,-221"/>
<text xml:space="preserve" text-anchor="start" x="2381.75" y="-207.5" font-family="Helvetica,sans-Serif" font-size="10.00">BasicElement::connection</text>
<text xml:space="preserve" text-anchor="middle" x="2438.75" y="-195.5" font-family="Helvetica,sans-Serif" font-size="10.00">Points</text>
</a>
</g>
</g>
<!-- Node2 -->
<g id="Node000002" class="node">
<title>Node2</title>
<g id="a_Node000002"><a xlink:href="class_main_window.html#ac04f23b4022200626a309e71dc5eae5b" target="_top" xlink:title=" ">
<polygon fill="white" stroke="#666666" points="2334.38,-246 2189.38,-246 2189.38,-214 2334.38,-214 2334.38,-246"/>
<text xml:space="preserve" text-anchor="start" x="2197.38" y="-232.5" font-family="Helvetica,sans-Serif" font-size="10.00">MainWindow::ConnectBasic</text>
<text xml:space="preserve" text-anchor="middle" x="2261.88" y="-220.5" font-family="Helvetica,sans-Serif" font-size="10.00">ElementsWithConnectionLine</text>
</a>
</g>
</g>
<!-- Node1&#45;&gt;Node2 -->
<g id="edge1_Node000001_Node000002" class="edge">
<title>Node1&#45;&gt;Node2</title>
<g id="a_edge1_Node000001_Node000002"><a xlink:title=" ">
<path fill="none" stroke="#63b8ff" d="M2362.49,-215.76C2353.26,-217.08 2343.85,-218.42 2334.67,-219.74"/>
<polygon fill="#63b8ff" stroke="#63b8ff" points="2362.72,-219.26 2372.13,-214.38 2361.73,-212.33 2362.72,-219.26"/>
</a>
</g>
</g>
<!-- Node28 -->
<g id="Node000028" class="node">
<title>Node28</title>
<g id="a_Node000028"><a xlink:href="class_diagram_scene.html#a9413548fb3f634a36e7c6e5e03f48692" target="_top" xlink:title=" ">
<polygon fill="white" stroke="#666666" points="2337.75,-196 2186,-196 2186,-164 2337.75,-164 2337.75,-196"/>
<text xml:space="preserve" text-anchor="start" x="2194" y="-182.5" font-family="Helvetica,sans-Serif" font-size="10.00">DiagramScene::findConnection</text>
<text xml:space="preserve" text-anchor="middle" x="2261.88" y="-170.5" font-family="Helvetica,sans-Serif" font-size="10.00">PointInClonedElement</text>
</a>
</g>
</g>
<!-- Node1&#45;&gt;Node28 -->
<g id="edge52_Node000001_Node000028" class="edge">
<title>Node1&#45;&gt;Node28</title>
<g id="a_edge52_Node000001_Node000028"><a xlink:title=" ">
<path fill="none" stroke="#63b8ff" d="M2362.33,-194.22C2354.25,-193.06 2346.03,-191.89 2337.96,-190.73"/>
<polygon fill="#63b8ff" stroke="#63b8ff" points="2361.73,-197.67 2372.13,-195.62 2362.72,-190.74 2361.73,-197.67"/>
</a>
</g>
</g>
<!-- Node3 -->
<g id="Node000003" class="node">
<title>Node3</title>
<g id="a_Node000003"><a xlink:href="class_main_window.html#ad34ae0349abf41aa739b75b85df74126" target="_top" xlink:title=" ">
<polygon fill="white" stroke="#666666" points="2134.25,-246 1991.5,-246 1991.5,-214 2134.25,-214 2134.25,-246"/>
<text xml:space="preserve" text-anchor="start" x="1999.5" y="-232.5" font-family="Helvetica,sans-Serif" font-size="10.00">MainWindow::onAddAttribute</text>
<text xml:space="preserve" text-anchor="middle" x="2062.88" y="-220.5" font-family="Helvetica,sans-Serif" font-size="10.00">OnTreeClicked</text>
</a>
</g>
</g>
<!-- Node2&#45;&gt;Node3 -->
<g id="edge2_Node000002_Node000003" class="edge">
<title>Node2&#45;&gt;Node3</title>
<g id="a_edge2_Node000002_Node000003"><a xlink:title=" ">
<path fill="none" stroke="#63b8ff" d="M2177.58,-230C2163.29,-230 2148.57,-230 2134.65,-230"/>
<polygon fill="#63b8ff" stroke="#63b8ff" points="2177.4,-233.5 2187.4,-230 2177.4,-226.5 2177.4,-233.5"/>
</a>
</g>
</g>
<!-- Node4 -->
<g id="Node000004" class="node">
<title>Node4</title>
<g id="a_Node000004"><a xlink:href="class_main_window.html#a6fd05e9f951dd6e7c2cd6ca815ef9d71" target="_top" xlink:title=" ">
<polygon fill="white" stroke="#666666" points="1930,-643 1796.25,-643 1796.25,-611 1930,-611 1930,-643"/>
<text xml:space="preserve" text-anchor="start" x="1804.25" y="-629.5" font-family="Helvetica,sans-Serif" font-size="10.00">MainWindow::createButton</text>
<text xml:space="preserve" text-anchor="middle" x="1863.12" y="-617.5" font-family="Helvetica,sans-Serif" font-size="10.00">PropertyItem</text>
</a>
</g>
</g>
<!-- Node3&#45;&gt;Node4 -->
<g id="edge3_Node000003_Node000004" class="edge">
<title>Node3&#45;&gt;Node4</title>
<g id="a_edge3_Node000003_Node000004"><a xlink:title=" ">
<path fill="none" stroke="#63b8ff" d="M2048.85,-256.15C2011.16,-331.81 1902.76,-549.43 1872.22,-610.75"/>
<polygon fill="#63b8ff" stroke="#63b8ff" points="2051.88,-257.92 2053.2,-247.41 2045.61,-254.8 2051.88,-257.92"/>
</a>
</g>
</g>
<!-- Node5 -->
<g id="Node000005" class="node">
<title>Node5</title>
<g id="a_Node000005"><a xlink:href="class_main_window.html#a697154cf7839e00c607134c2a4e018cf" target="_top" xlink:title=" ">
<polygon fill="white" stroke="#666666" points="1750.5,-656 1583,-656 1583,-636 1750.5,-636 1750.5,-656"/>
<text xml:space="preserve" text-anchor="middle" x="1666.75" y="-642.5" font-family="Helvetica,sans-Serif" font-size="10.00">MainWindow::populateAttributeList</text>
</a>
</g>
</g>
<!-- Node4&#45;&gt;Node5 -->
<g id="edge4_Node000004_Node000005" class="edge">
<title>Node4&#45;&gt;Node5</title>
<g id="a_edge4_Node000004_Node000005"><a xlink:title=" ">
<path fill="none" stroke="#63b8ff" d="M1784.46,-634.59C1773.45,-635.67 1762.09,-636.78 1750.99,-637.86"/>
<polygon fill="#63b8ff" stroke="#63b8ff" points="1784.66,-638.09 1794.27,-633.63 1783.98,-631.12 1784.66,-638.09"/>
</a>
</g>
</g>
<!-- Node6 -->
<g id="Node000006" class="node">
<title>Node6</title>
<g id="a_Node000006"><a xlink:href="class_main_window.html#a3aa4112f20ad25eb3ad78fd354ba7de2" target="_top" xlink:title=" ">
<polygon fill="white" stroke="#666666" points="1547,-624 1395.25,-624 1395.25,-592 1547,-592 1547,-624"/>
<text xml:space="preserve" text-anchor="start" x="1403.25" y="-610.5" font-family="Helvetica,sans-Serif" font-size="10.00">MainWindow::populateAttribute</text>
<text xml:space="preserve" text-anchor="middle" x="1471.12" y="-598.5" font-family="Helvetica,sans-Serif" font-size="10.00">Properties</text>
</a>
</g>
</g>
<!-- Node4&#45;&gt;Node6 -->
<g id="edge49_Node000004_Node000006" class="edge">
<title>Node4&#45;&gt;Node6</title>
<g id="a_edge49_Node000004_Node000006"><a xlink:title=" ">
<path fill="none" stroke="#63b8ff" d="M1784.75,-623.23C1715.81,-619.87 1615.55,-614.99 1547.29,-611.66"/>
<polygon fill="#63b8ff" stroke="#63b8ff" points="1784.3,-626.71 1794.46,-623.7 1784.64,-619.72 1784.3,-626.71"/>
</a>
</g>
</g>
<!-- Node11 -->
<g id="Node000011" class="node">
<title>Node11</title>
<g id="a_Node000011"><a xlink:href="class_main_window.html#a1049a5796ac248f40a3b4110ed5faf77" target="_top" xlink:title=" ">
<polygon fill="white" stroke="#666666" points="169,-652 0,-652 0,-620 169,-620 169,-652"/>
<text xml:space="preserve" text-anchor="start" x="8" y="-638.5" font-family="Helvetica,sans-Serif" font-size="10.00">MainWindow::populateRelationship</text>
<text xml:space="preserve" text-anchor="middle" x="84.5" y="-626.5" font-family="Helvetica,sans-Serif" font-size="10.00">Properties</text>
</a>
</g>
</g>
<!-- Node4&#45;&gt;Node11 -->
<g id="edge51_Node000004_Node000011" class="edge">
<title>Node4&#45;&gt;Node11</title>
<g id="a_edge51_Node000004_Node000011"><a xlink:title=" ">
<path fill="none" stroke="#63b8ff" d="M1830.03,-649.41C1808.47,-663.42 1778.91,-680.71 1750.5,-691 1632.38,-733.77 1597.75,-740 1472.12,-740 1472.12,-740 1472.12,-740 483.75,-740 357.88,-740 325.21,-727.31 205,-690 173.69,-680.28 139.79,-664.41 116.13,-652.38"/>
<polygon fill="#63b8ff" stroke="#63b8ff" points="1831.67,-652.52 1838.07,-644.07 1827.8,-646.68 1831.67,-652.52"/>
</a>
</g>
</g>
<!-- Node27 -->
<g id="Node000027" class="node">
<title>Node27</title>
<g id="a_Node000027"><a xlink:href="class_main_window.html#a40023e3590f2593fd133a6b111f63ed9" target="_top" xlink:title=" ">
<polygon fill="white" stroke="#666666" points="1541.38,-712 1400.88,-712 1400.88,-680 1541.38,-680 1541.38,-712"/>
<text xml:space="preserve" text-anchor="start" x="1408.88" y="-698.5" font-family="Helvetica,sans-Serif" font-size="10.00">MainWindow::populateEntity</text>
<text xml:space="preserve" text-anchor="middle" x="1471.12" y="-686.5" font-family="Helvetica,sans-Serif" font-size="10.00">Properties</text>
</a>
</g>
</g>
<!-- Node4&#45;&gt;Node27 -->
<g id="edge50_Node000004_Node000027" class="edge">
<title>Node4&#45;&gt;Node27</title>
<g id="a_edge50_Node000004_Node000027"><a xlink:title=" ">
<path fill="none" stroke="#63b8ff" d="M1810.26,-647.27C1791.66,-653.84 1770.38,-660.57 1750.5,-665 1680.38,-680.65 1598.47,-688.56 1541.74,-692.45"/>
<polygon fill="#63b8ff" stroke="#63b8ff" points="1811.22,-650.64 1819.44,-643.96 1808.85,-644.06 1811.22,-650.64"/>
</a>
</g>
</g>
<!-- Node5&#45;&gt;Node6 -->
<g id="edge5_Node000005_Node000006" class="edge">
<title>Node5&#45;&gt;Node6</title>
<g id="a_edge5_Node000005_Node000006"><a xlink:title=" ">
<path fill="none" stroke="#63b8ff" d="M1626.65,-632.78C1603.84,-627.21 1574.29,-621.06 1547.15,-616.13"/>
<polygon fill="#63b8ff" stroke="#63b8ff" points="1625.58,-636.12 1636.13,-635.18 1627.29,-629.33 1625.58,-636.12"/>
</a>
</g>
</g>
<!-- Node5&#45;&gt;Node11 -->
<g id="edge48_Node000005_Node000011" class="edge">
<title>Node5&#45;&gt;Node11</title>
<g id="a_edge48_Node000005_Node000011"><a xlink:title=" ">
<path fill="none" stroke="#63b8ff" d="M1571.47,-653.01C1519.41,-657.31 1453.64,-663.45 1395.25,-671 1379.16,-673.08 1375.36,-675.1 1359.25,-677 1239.73,-691.13 1209.48,-696 1089.12,-696 1089.12,-696 1089.12,-696 483.75,-696 366.46,-696 231.88,-670.24 153.03,-652.47"/>
<polygon fill="#63b8ff" stroke="#63b8ff" points="1571.51,-656.52 1581.2,-652.22 1570.95,-649.55 1571.51,-656.52"/>
</a>
</g>
</g>
<!-- Node5&#45;&gt;Node27 -->
<g id="edge46_Node000005_Node000027" class="edge">
<title>Node5&#45;&gt;Node27</title>
<g id="a_edge46_Node000005_Node000027"><a xlink:title=" ">
<path fill="none" stroke="#63b8ff" d="M1614.14,-659.33C1590.11,-665.53 1561.29,-672.98 1535.91,-679.53"/>
<polygon fill="#63b8ff" stroke="#63b8ff" points="1614.89,-662.75 1623.69,-656.86 1613.14,-655.97 1614.89,-662.75"/>
</a>
</g>
</g>
<!-- Node6&#45;&gt;Node5 -->
<g id="edge6_Node000006_Node000005" class="edge">
<title>Node6&#45;&gt;Node5</title>
<g id="a_edge6_Node000006_Node000005"><a xlink:title=" ">
<path fill="none" stroke="#63b8ff" d="M1536.17,-626.96C1551,-630.21 1566.99,-633.45 1582.51,-636.35"/>
<polygon fill="#63b8ff" stroke="#63b8ff" points="1537.08,-623.58 1526.56,-624.82 1535.56,-630.41 1537.08,-623.58"/>
</a>
</g>
</g>
<!-- Node7 -->
<g id="Node000007" class="node">
<title>Node7</title>
<g id="a_Node000007"><a xlink:href="class_main_window.html#add7e6ae12287854ff779bd4b5649dd98" target="_top" xlink:title=" ">
<polygon fill="white" stroke="#666666" points="1359.25,-668 1200,-668 1200,-636 1359.25,-636 1359.25,-668"/>
<text xml:space="preserve" text-anchor="start" x="1208" y="-654.5" font-family="Helvetica,sans-Serif" font-size="10.00">MainWindow::populateProperties</text>
<text xml:space="preserve" text-anchor="middle" x="1279.62" y="-642.5" font-family="Helvetica,sans-Serif" font-size="10.00">ForElement</text>
</a>
</g>
</g>
<!-- Node6&#45;&gt;Node7 -->
<g id="edge7_Node000006_Node000007" class="edge">
<title>Node6&#45;&gt;Node7</title>
<g id="a_edge7_Node000006_Node000007"><a xlink:title=" ">
<path fill="none" stroke="#63b8ff" d="M1388.22,-627.02C1376.06,-629.84 1363.61,-632.73 1351.69,-635.5"/>
<polygon fill="#63b8ff" stroke="#63b8ff" points="1388.87,-630.46 1397.82,-624.79 1387.29,-623.64 1388.87,-630.46"/>
</a>
</g>
</g>
<!-- Node8 -->
<g id="Node000008" class="node">
<title>Node8</title>
<g id="a_Node000008"><a xlink:href="class_main_window.html#a5caeae304b10e5cd9f83ef5c6086310b" target="_top" xlink:title=" ">
<polygon fill="white" stroke="#666666" points="1164,-246 1012.25,-246 1012.25,-214 1164,-214 1164,-246"/>
<text xml:space="preserve" text-anchor="start" x="1020.25" y="-232.5" font-family="Helvetica,sans-Serif" font-size="10.00">MainWindow::updateProperties</text>
<text xml:space="preserve" text-anchor="middle" x="1088.12" y="-220.5" font-family="Helvetica,sans-Serif" font-size="10.00">Panel</text>
</a>
</g>
</g>
<!-- Node7&#45;&gt;Node8 -->
<g id="edge8_Node000007_Node000008" class="edge">
<title>Node7&#45;&gt;Node8</title>
<g id="a_edge8_Node000007_Node000008"><a xlink:title=" ">
<path fill="none" stroke="#63b8ff" d="M1266.76,-625.57C1231.07,-546.11 1125.44,-310.87 1096.52,-246.46"/>
<polygon fill="#63b8ff" stroke="#63b8ff" points="1263.4,-626.65 1270.69,-634.33 1269.79,-623.78 1263.4,-626.65"/>
</a>
</g>
</g>
<!-- Node8&#45;&gt;Node3 -->
<g id="edge9_Node000008_Node000003" class="edge">
<title>Node8&#45;&gt;Node3</title>
<g id="a_edge9_Node000008_Node000003"><a xlink:title=" ">
<path fill="none" stroke="#63b8ff" d="M1175.41,-227.87C1252.62,-226.14 1368.92,-224 1470.12,-224 1667.75,-224 1667.75,-224 1667.75,-224 1780.83,-224 1912.15,-226.5 1991.04,-228.27"/>
<polygon fill="#63b8ff" stroke="#63b8ff" points="1175.73,-224.36 1165.82,-228.08 1175.89,-231.36 1175.73,-224.36"/>
</a>
</g>
</g>
<!-- Node9 -->
<g id="Node000009" class="node">
<title>Node9</title>
<g id="a_Node000009"><a xlink:href="class_main_window.html#a47fd0b86ddb5829e3b0cb15908671670" target="_top" xlink:title=" ">
<polygon fill="white" stroke="#666666" points="571.5,-466 398,-466 398,-446 571.5,-446 571.5,-466"/>
<text xml:space="preserve" text-anchor="middle" x="484.75" y="-452.5" font-family="Helvetica,sans-Serif" font-size="10.00">MainWindow::onCheckBoxChanged</text>
</a>
</g>
</g>
<!-- Node8&#45;&gt;Node9 -->
<g id="edge10_Node000008_Node000009" class="edge">
<title>Node8&#45;&gt;Node9</title>
<g id="a_edge10_Node000008_Node000009"><a xlink:title=" ">
<path fill="none" stroke="#63b8ff" d="M1072.02,-256.08C1053.03,-286.97 1017.83,-338.34 976.25,-371 897.81,-432.62 869.48,-442.85 772,-464 697.06,-480.26 608.5,-474.02 549.95,-466.49"/>
<polygon fill="#63b8ff" stroke="#63b8ff" points="1074.88,-258.12 1077.05,-247.74 1068.89,-254.5 1074.88,-258.12"/>
</a>
</g>
</g>
<!-- Node12 -->
<g id="Node000012" class="node">
<title>Node12</title>
<g id="a_Node000012"><a xlink:href="class_main_window.html#ac1e0c79708cf9aa9b7ca1a87697e5b34" target="_top" xlink:title=" ">
<polygon fill="white" stroke="#666666" points="573,-312 396.5,-312 396.5,-292 573,-292 573,-312"/>
<text xml:space="preserve" text-anchor="middle" x="484.75" y="-298.5" font-family="Helvetica,sans-Serif" font-size="10.00">MainWindow::onComboBoxChanged</text>
</a>
</g>
</g>
<!-- Node8&#45;&gt;Node12 -->
<g id="edge15_Node000008_Node000012" class="edge">
<title>Node8&#45;&gt;Node12</title>
<g id="a_edge15_Node000008_Node000012"><a xlink:title=" ">
<path fill="none" stroke="#63b8ff" d="M1000.42,-224.05C903.67,-219.57 743.1,-218.6 609,-249 569.7,-257.91 527.23,-278.98 503.82,-291.71"/>
<polygon fill="#63b8ff" stroke="#63b8ff" points="1000.23,-227.55 1010.39,-224.54 1000.57,-220.55 1000.23,-227.55"/>
</a>
</g>
</g>
<!-- Node16 -->
<g id="Node000016" class="node">
<title>Node16</title>
<g id="a_Node000016"><a xlink:href="class_main_window.html#a0e7ca45ac830893108871185dda813a4" target="_top" xlink:title=" ">
<polygon fill="white" stroke="#666666" points="772,-542 609,-542 609,-522 772,-522 772,-542"/>
<text xml:space="preserve" text-anchor="middle" x="690.5" y="-528.5" font-family="Helvetica,sans-Serif" font-size="10.00">MainWindow::onLineEditChanged</text>
</a>
</g>
</g>
<!-- Node8&#45;&gt;Node16 -->
<g id="edge22_Node000008_Node000016" class="edge">
<title>Node8&#45;&gt;Node16</title>
<g id="a_edge22_Node000008_Node000016"><a xlink:title=" ">
<path fill="none" stroke="#63b8ff" d="M1085.28,-257.74C1079.83,-315.23 1058.51,-447.05 976.25,-508 907.99,-558.58 803.63,-552.23 742.02,-542.48"/>
<polygon fill="#63b8ff" stroke="#63b8ff" points="1088.76,-258.12 1086.12,-247.86 1081.79,-257.53 1088.76,-258.12"/>
</a>
</g>
</g>
<!-- Node18 -->
<g id="Node000018" class="node">
<title>Node18</title>
<g id="a_Node000018"><a xlink:href="class_main_window.html#a1043995538765eae993ae75217c482e7" target="_top" xlink:title=" ">
<polygon fill="white" stroke="#666666" points="559.5,-123 410,-123 410,-91 559.5,-91 559.5,-123"/>
<text xml:space="preserve" text-anchor="start" x="418" y="-109.5" font-family="Helvetica,sans-Serif" font-size="10.00">MainWindow::onPropertyValue</text>
<text xml:space="preserve" text-anchor="middle" x="484.75" y="-97.5" font-family="Helvetica,sans-Serif" font-size="10.00">Changed</text>
</a>
</g>
</g>
<!-- Node8&#45;&gt;Node18 -->
<g id="edge25_Node000008_Node000018" class="edge">
<title>Node8&#45;&gt;Node18</title>
<g id="a_edge25_Node000008_Node000018"><a xlink:title=" ">
<path fill="none" stroke="#63b8ff" d="M1052.43,-209.07C1039.6,-203.51 1025.06,-197.42 1012.25,-191 995.49,-182.59 993.89,-175.36 976.25,-169 834.81,-117.99 657.91,-103.53 559.87,-102.36"/>
<polygon fill="#63b8ff" stroke="#63b8ff" points="1050.79,-212.17 1061.35,-213 1053.61,-205.77 1050.79,-212.17"/>
</a>
</g>
</g>
<!-- Node21 -->
<g id="Node000021" class="node">
<title>Node21</title>
<g id="a_Node000021"><a xlink:href="class_main_window.html#a95674d4bfc5fc2aad6df1601f23b1793" target="_top" xlink:title=" ">
<polygon fill="white" stroke="#666666" points="973.25,-32 811,-32 811,0 973.25,0 973.25,-32"/>
<text xml:space="preserve" text-anchor="start" x="819" y="-18.5" font-family="Helvetica,sans-Serif" font-size="10.00">MainWindow::onRemoveAttribute</text>
<text xml:space="preserve" text-anchor="middle" x="892.12" y="-6.5" font-family="Helvetica,sans-Serif" font-size="10.00">OnTreeClicked</text>
</a>
</g>
</g>
<!-- Node8&#45;&gt;Node21 -->
<g id="edge29_Node000008_Node000021" class="edge">
<title>Node8&#45;&gt;Node21</title>
<g id="a_edge29_Node000008_Node000021"><a xlink:title=" ">
<path fill="none" stroke="#63b8ff" d="M1019.44,-207.02C1016.84,-204.88 1014.42,-202.55 1012.25,-200 965.23,-144.87 1025.67,-93.98 976.25,-41 973.17,-37.69 969.66,-34.82 965.88,-32.32"/>
<polygon fill="#63b8ff" stroke="#63b8ff" points="1017.44,-209.88 1027.65,-212.69 1021.42,-204.13 1017.44,-209.88"/>
</a>
</g>
</g>
<!-- Node22 -->
<g id="Node000022" class="node">
<title>Node22</title>
<g id="a_Node000022"><a xlink:href="class_main_window.html#a44791b85064ecff42c12429c6667e83b" target="_top" xlink:title=" ">
<polygon fill="white" stroke="#666666" points="976.25,-70 808,-70 808,-50 976.25,-50 976.25,-70"/>
<text xml:space="preserve" text-anchor="middle" x="892.12" y="-56.5" font-family="Helvetica,sans-Serif" font-size="10.00">MainWindow::onSelectionChanged</text>
</a>
</g>
</g>
<!-- Node8&#45;&gt;Node22 -->
<g id="edge31_Node000008_Node000022" class="edge">
<title>Node8&#45;&gt;Node22</title>
<g id="a_edge31_Node000008_Node000022"><a xlink:title=" ">
<path fill="none" stroke="#63b8ff" d="M1020.56,-207.47C1017.56,-205.21 1014.77,-202.73 1012.25,-200 975.64,-160.33 1014.8,-121.79 976.25,-84 970.35,-78.22 963.15,-73.81 955.48,-70.46"/>
<polygon fill="#63b8ff" stroke="#63b8ff" points="1018.48,-210.29 1028.77,-212.79 1022.28,-204.42 1018.48,-210.29"/>
</a>
</g>
</g>
<!-- Node23 -->
<g id="Node000023" class="node">
<title>Node23</title>
<g id="a_Node000023"><a xlink:href="class_main_window.html#af380eeda83d30cd1ecb1419cfd5161d7" target="_top" xlink:title=" ">
<polygon fill="white" stroke="#666666" points="959,-362 825.25,-362 825.25,-330 959,-330 959,-362"/>
<text xml:space="preserve" text-anchor="start" x="833.25" y="-348.5" font-family="Helvetica,sans-Serif" font-size="10.00">MainWindow::updatesAfter</text>
<text xml:space="preserve" text-anchor="middle" x="892.12" y="-336.5" font-family="Helvetica,sans-Serif" font-size="10.00">ChangingProperty</text>
</a>
</g>
</g>
<!-- Node8&#45;&gt;Node23 -->
<g id="edge33_Node000008_Node000023" class="edge">
<title>Node8&#45;&gt;Node23</title>
<g id="a_edge33_Node000008_Node000023"><a xlink:title=" ">
<path fill="none" stroke="#63b8ff" d="M1050.13,-252.12C1012.36,-274.7 954.61,-309.24 920.68,-329.52"/>
<polygon fill="#63b8ff" stroke="#63b8ff" points="1051.66,-255.29 1058.44,-247.15 1048.06,-249.28 1051.66,-255.29"/>
</a>
</g>
</g>
<!-- Node10 -->
<g id="Node000010" class="node">
<title>Node10</title>
<g id="a_Node000010"><a xlink:href="class_main_window.html#a44aaf7bb6d9a56f53b8a7a9e4fc29f8c" target="_top" xlink:title=" ">
<polygon fill="white" stroke="#666666" points="358.25,-589 207.25,-589 207.25,-557 358.25,-557 358.25,-589"/>
<text xml:space="preserve" text-anchor="start" x="215.25" y="-575.5" font-family="Helvetica,sans-Serif" font-size="10.00">MainWindow::createCheckBox</text>
<text xml:space="preserve" text-anchor="middle" x="282.75" y="-563.5" font-family="Helvetica,sans-Serif" font-size="10.00">PropertyItem</text>
</a>
</g>
</g>
<!-- Node9&#45;&gt;Node10 -->
<g id="edge11_Node000009_Node000010" class="edge">
<title>Node9&#45;&gt;Node10</title>
<g id="a_edge11_Node000009_Node000010"><a xlink:title=" ">
<path fill="none" stroke="#63b8ff" d="M446.05,-470.99C429.8,-478.54 411.19,-488.71 396.5,-501 376.32,-517.88 381.98,-532.8 360.5,-548 355.92,-551.24 350.91,-554.08 345.69,-556.56"/>
<polygon fill="#63b8ff" stroke="#63b8ff" points="447.23,-474.3 454.94,-467.03 444.39,-467.9 447.23,-474.3"/>
</a>
</g>
</g>
<!-- Node10&#45;&gt;Node6 -->
<g id="edge12_Node000010_Node000006" class="edge">
<title>Node10&#45;&gt;Node6</title>
<g id="a_edge12_Node000010_Node000006"><a xlink:title=" ">
<path fill="none" stroke="#63b8ff" d="M370.01,-584.77C452.02,-594.94 578.92,-608 689.5,-608 1089.12,-608 1089.12,-608 1089.12,-608 1195.29,-608 1318.09,-608 1394.94,-608"/>
<polygon fill="#63b8ff" stroke="#63b8ff" points="370.6,-581.32 360.24,-583.55 369.73,-588.26 370.6,-581.32"/>
</a>
</g>
</g>
<!-- Node10&#45;&gt;Node11 -->
<g id="edge13_Node000010_Node000011" class="edge">
<title>Node10&#45;&gt;Node11</title>
<g id="a_edge13_Node000010_Node000011"><a xlink:title=" ">
<path fill="none" stroke="#63b8ff" d="M219.68,-592.93C193.01,-601.49 162.21,-611.38 136.85,-619.52"/>
<polygon fill="#63b8ff" stroke="#63b8ff" points="220.55,-596.32 229,-589.93 218.41,-589.66 220.55,-596.32"/>
</a>
</g>
</g>
<!-- Node11&#45;&gt;Node7 -->
<g id="edge14_Node000011_Node000007" class="edge">
<title>Node11&#45;&gt;Node7</title>
<g id="a_edge14_Node000011_Node000007"><a xlink:title=" ">
<path fill="none" stroke="#63b8ff" d="M180.47,-643.08C261.12,-648.48 379.96,-655 483.75,-655 893.12,-655 893.12,-655 893.12,-655 999.21,-655 1121.71,-653.85 1199.63,-652.97"/>
<polygon fill="#63b8ff" stroke="#63b8ff" points="181.08,-639.61 170.86,-642.43 180.6,-646.6 181.08,-639.61"/>
</a>
</g>
</g>
<!-- Node13 -->
<g id="Node000013" class="node">
<title>Node13</title>
<g id="a_Node000013"><a xlink:href="class_main_window.html#a872e6a76dcbf858ae9d483eceddf90e1" target="_top" xlink:title=" ">
<polygon fill="white" stroke="#666666" points="359.75,-539 205.75,-539 205.75,-507 359.75,-507 359.75,-539"/>
<text xml:space="preserve" text-anchor="start" x="213.75" y="-525.5" font-family="Helvetica,sans-Serif" font-size="10.00">MainWindow::createComboBox</text>
<text xml:space="preserve" text-anchor="middle" x="282.75" y="-513.5" font-family="Helvetica,sans-Serif" font-size="10.00">PropertyItem</text>
</a>
</g>
</g>
<!-- Node12&#45;&gt;Node13 -->
<g id="edge16_Node000012_Node000013" class="edge">
<title>Node12&#45;&gt;Node13</title>
<g id="a_edge16_Node000012_Node000013"><a xlink:title=" ">
<path fill="none" stroke="#63b8ff" d="M466.84,-320.69C428.37,-363.2 334.83,-466.55 298.51,-506.69"/>
<polygon fill="#63b8ff" stroke="#63b8ff" points="469.24,-323.25 473.36,-313.49 464.05,-318.55 469.24,-323.25"/>
</a>
</g>
</g>
<!-- Node14 -->
<g id="Node000014" class="node">
<title>Node14</title>
<g id="a_Node000014"><a xlink:href="class_main_window.html#abae03a6494d13d74ed1b2e31ec1f2fc7" target="_top" xlink:title=" ">
<polygon fill="white" stroke="#666666" points="360.5,-274 205,-274 205,-242 360.5,-242 360.5,-274"/>
<text xml:space="preserve" text-anchor="start" x="213" y="-260.5" font-family="Helvetica,sans-Serif" font-size="10.00">MainWindow::createIconCombo</text>
<text xml:space="preserve" text-anchor="middle" x="282.75" y="-248.5" font-family="Helvetica,sans-Serif" font-size="10.00">BoxPropertyItem</text>
</a>
</g>
</g>
<!-- Node12&#45;&gt;Node14 -->
<g id="edge19_Node000012_Node000014" class="edge">
<title>Node12&#45;&gt;Node14</title>
<g id="a_edge19_Node000012_Node000014"><a xlink:title=" ">
<path fill="none" stroke="#63b8ff" d="M424.86,-289.04C404.04,-284.46 380.34,-279.25 358.39,-274.42"/>
<polygon fill="#63b8ff" stroke="#63b8ff" points="424.1,-292.46 434.62,-291.19 425.61,-285.62 424.1,-292.46"/>
</a>
</g>
</g>
<!-- Node13&#45;&gt;Node6 -->
<g id="edge17_Node000013_Node000006" class="edge">
<title>Node13&#45;&gt;Node6</title>
<g id="a_edge17_Node000013_Node000006"><a xlink:title=" ">
<path fill="none" stroke="#63b8ff" d="M352.45,-542.13C366.9,-545.57 382.13,-548.77 396.5,-551 525.45,-571.03 559,-570 689.5,-570 1089.12,-570 1089.12,-570 1089.12,-570 1195.65,-570 1318.1,-584.89 1394.8,-596.03"/>
<polygon fill="#63b8ff" stroke="#63b8ff" points="353.59,-538.81 343.05,-539.82 351.92,-545.61 353.59,-538.81"/>
</a>
</g>
</g>
<!-- Node13&#45;&gt;Node11 -->
<g id="edge18_Node000013_Node000011" class="edge">
<title>Node13&#45;&gt;Node11</title>
<g id="a_edge18_Node000013_Node000011"><a xlink:title=" ">
<path fill="none" stroke="#63b8ff" d="M213.86,-543.77C210.83,-545.12 207.86,-546.53 205,-548 166.05,-568.02 126.13,-600.26 103.71,-619.66"/>
<polygon fill="#63b8ff" stroke="#63b8ff" points="215.03,-547.08 222.94,-540.02 212.36,-540.61 215.03,-547.08"/>
</a>
</g>
</g>
<!-- Node15 -->
<g id="Node000015" class="node">
<title>Node15</title>
<g id="a_Node000015"><a xlink:href="class_main_window.html#af02df1238ccf49caa1c4099c88dfe465" target="_top" xlink:title=" ">
<polygon fill="white" stroke="#666666" points="164.12,-241 4.88,-241 4.88,-209 164.12,-209 164.12,-241"/>
<text xml:space="preserve" text-anchor="start" x="12.88" y="-227.5" font-family="Helvetica,sans-Serif" font-size="10.00">MainWindow::populateProperties</text>
<text xml:space="preserve" text-anchor="middle" x="84.5" y="-215.5" font-family="Helvetica,sans-Serif" font-size="10.00">ForConnection</text>
</a>
</g>
</g>
<!-- Node14&#45;&gt;Node15 -->
<g id="edge20_Node000014_Node000015" class="edge">
<title>Node14&#45;&gt;Node15</title>
<g id="a_edge20_Node000014_Node000015"><a xlink:title=" ">
<path fill="none" stroke="#63b8ff" d="M193.5,-243.16C183.85,-241.54 174.07,-239.89 164.54,-238.29"/>
<polygon fill="#63b8ff" stroke="#63b8ff" points="192.82,-246.59 203.26,-244.8 193.98,-239.69 192.82,-246.59"/>
</a>
</g>
</g>
<!-- Node15&#45;&gt;Node8 -->
<g id="edge21_Node000015_Node000008" class="edge">
<title>Node15&#45;&gt;Node8</title>
<g id="a_edge21_Node000015_Node000008"><a xlink:title=" ">
<path fill="none" stroke="#63b8ff" d="M175.4,-213.28C256,-203.8 377.57,-192 483.75,-192 691.5,-192 691.5,-192 691.5,-192 803.45,-192 932.42,-207.26 1011.86,-218.44"/>
<polygon fill="#63b8ff" stroke="#63b8ff" points="175.32,-209.77 165.81,-214.42 176.15,-216.72 175.32,-209.77"/>
</a>
</g>
</g>
<!-- Node17 -->
<g id="Node000017" class="node">
<title>Node17</title>
<g id="a_Node000017"><a xlink:href="class_main_window.html#ae3b6600dd59da1822ef94bbd5f37f0cc" target="_top" xlink:title=" ">
<polygon fill="white" stroke="#666666" points="555,-542 414.5,-542 414.5,-510 555,-510 555,-542"/>
<text xml:space="preserve" text-anchor="start" x="422.5" y="-528.5" font-family="Helvetica,sans-Serif" font-size="10.00">MainWindow::createLineEdit</text>
<text xml:space="preserve" text-anchor="middle" x="484.75" y="-516.5" font-family="Helvetica,sans-Serif" font-size="10.00">PropertyItem</text>
</a>
</g>
</g>
<!-- Node16&#45;&gt;Node17 -->
<g id="edge23_Node000016_Node000017" class="edge">
<title>Node16&#45;&gt;Node17</title>
<g id="a_edge23_Node000016_Node000017"><a xlink:title=" ">
<path fill="none" stroke="#63b8ff" d="M597.4,-529.29C583.25,-528.87 568.84,-528.45 555.29,-528.05"/>
<polygon fill="#63b8ff" stroke="#63b8ff" points="597.07,-532.78 607.17,-529.58 597.27,-525.78 597.07,-532.78"/>
</a>
</g>
</g>
<!-- Node17&#45;&gt;Node11 -->
<g id="edge24_Node000017_Node000011" class="edge">
<title>Node17&#45;&gt;Node11</title>
<g id="a_edge24_Node000017_Node000011"><a xlink:title=" ">
<path fill="none" stroke="#63b8ff" d="M452.62,-548.84C428.65,-565.23 394.05,-586.39 360.5,-598 298.55,-619.43 224.81,-628.81 169.29,-632.9"/>
<polygon fill="#63b8ff" stroke="#63b8ff" points="454.44,-551.83 460.64,-543.24 450.44,-546.09 454.44,-551.83"/>
</a>
</g>
</g>
<!-- Node18&#45;&gt;Node8 -->
<g id="edge28_Node000018_Node000008" class="edge">
<title>Node18&#45;&gt;Node8</title>
<g id="a_edge28_Node000018_Node000008"><a xlink:title=" ">
<path fill="none" stroke="#63b8ff" d="M571.1,-115.44C670.99,-122.66 840.06,-137.88 976.25,-187 993.89,-193.36 995.49,-200.59 1012.25,-209 1015.38,-210.57 1018.61,-212.12 1021.9,-213.63"/>
<polygon fill="#63b8ff" stroke="#63b8ff" points="571.6,-111.96 561.38,-114.74 571.11,-118.95 571.6,-111.96"/>
</a>
</g>
</g>
<!-- Node19 -->
<g id="Node000019" class="node">
<title>Node19</title>
<g id="a_Node000019"><a xlink:href="class_main_window.html#adfa32feecffce3959c99d145fc8b4854" target="_top" xlink:title=" ">
<polygon fill="white" stroke="#666666" points="355.25,-94 210.25,-94 210.25,-74 355.25,-74 355.25,-94"/>
<text xml:space="preserve" text-anchor="middle" x="282.75" y="-80.5" font-family="Helvetica,sans-Serif" font-size="10.00">MainWindow::connectSignals</text>
</a>
</g>
</g>
<!-- Node18&#45;&gt;Node19 -->
<g id="edge26_Node000018_Node000019" class="edge">
<title>Node18&#45;&gt;Node19</title>
<g id="a_edge26_Node000018_Node000019"><a xlink:title=" ">
<path fill="none" stroke="#63b8ff" d="M398.24,-97.17C384,-95.53 369.35,-93.84 355.49,-92.25"/>
<polygon fill="#63b8ff" stroke="#63b8ff" points="397.72,-100.63 408.06,-98.3 398.52,-93.68 397.72,-100.63"/>
</a>
</g>
</g>
<!-- Node20 -->
<g id="Node000020" class="node">
<title>Node20</title>
<g id="a_Node000020"><a xlink:href="class_main_window.html#a996c5a2b6f77944776856f08ec30858d" target="_top" xlink:title=" ">
<polygon fill="white" stroke="#666666" points="151.75,-94 17.25,-94 17.25,-74 151.75,-74 151.75,-94"/>
<text xml:space="preserve" text-anchor="middle" x="84.5" y="-80.5" font-family="Helvetica,sans-Serif" font-size="10.00">MainWindow::MainWindow</text>
</a>
</g>
</g>
<!-- Node19&#45;&gt;Node20 -->
<g id="edge27_Node000019_Node000020" class="edge">
<title>Node19&#45;&gt;Node20</title>
<g id="a_edge27_Node000019_Node000020"><a xlink:title=" ">
<path fill="none" stroke="#63b8ff" d="M198.63,-84C183.15,-84 167.15,-84 152.24,-84"/>
<polygon fill="#63b8ff" stroke="#63b8ff" points="198.27,-87.5 208.27,-84 198.27,-80.5 198.27,-87.5"/>
</a>
</g>
</g>
<!-- Node21&#45;&gt;Node4 -->
<g id="edge30_Node000021_Node000004" class="edge">
<title>Node21&#45;&gt;Node4</title>
<g id="a_edge30_Node000021_Node000004"><a xlink:title=" ">
<path fill="none" stroke="#63b8ff" d="M965.91,-36.51C969.44,-37.94 972.91,-39.43 976.25,-41 1351.1,-216.69 1749.78,-534.9 1842.21,-610.55"/>
<polygon fill="#63b8ff" stroke="#63b8ff" points="967.17,-33.25 956.58,-32.99 964.7,-39.8 967.17,-33.25"/>
</a>
</g>
</g>
<!-- Node22&#45;&gt;Node19 -->
<g id="edge32_Node000022_Node000019" class="edge">
<title>Node22&#45;&gt;Node19</title>
<g id="a_edge32_Node000022_Node000019"><a xlink:title=" ">
<path fill="none" stroke="#63b8ff" d="M796.46,-63.74C674.47,-68.56 465.07,-76.84 355.44,-81.17"/>
<polygon fill="#63b8ff" stroke="#63b8ff" points="796.26,-67.25 806.12,-63.36 795.99,-60.26 796.26,-67.25"/>
</a>
</g>
</g>
<!-- Node23&#45;&gt;Node9 -->
<g id="edge42_Node000023_Node000009" class="edge">
<title>Node23&#45;&gt;Node9</title>
<g id="a_edge42_Node000023_Node000009"><a xlink:title=" ">
<path fill="none" stroke="#63b8ff" d="M867.92,-370.54C845.64,-392.3 809.85,-422.78 772,-437 707.89,-461.08 630.07,-464.77 571.76,-463.03"/>
<polygon fill="#63b8ff" stroke="#63b8ff" points="870.4,-373.01 874.99,-363.46 865.45,-368.06 870.4,-373.01"/>
</a>
</g>
</g>
<!-- Node23&#45;&gt;Node12 -->
<g id="edge43_Node000023_Node000012" class="edge">
<title>Node23&#45;&gt;Node12</title>
<g id="a_edge43_Node000023_Node000012"><a xlink:title=" ">
<path fill="none" stroke="#63b8ff" d="M813.49,-354.78C756.43,-359.31 677.28,-361.58 609,-349 571.16,-342.03 529.91,-323.97 506.02,-312.37"/>
<polygon fill="#63b8ff" stroke="#63b8ff" points="813.78,-358.26 823.45,-353.94 813.19,-351.29 813.78,-358.26"/>
</a>
</g>
</g>
<!-- Node23&#45;&gt;Node16 -->
<g id="edge44_Node000023_Node000016" class="edge">
<title>Node23&#45;&gt;Node16</title>
<g id="a_edge44_Node000023_Node000016"><a xlink:title=" ">
<path fill="none" stroke="#63b8ff" d="M869.26,-370.86C846.11,-396.68 807.99,-437.74 772,-470 750.2,-489.55 722.82,-509.81 706.27,-521.65"/>
<polygon fill="#63b8ff" stroke="#63b8ff" points="871.75,-373.33 875.79,-363.54 866.53,-368.67 871.75,-373.33"/>
</a>
</g>
</g>
<!-- Node23&#45;&gt;Node18 -->
<g id="edge45_Node000023_Node000018" class="edge">
<title>Node23&#45;&gt;Node18</title>
<g id="a_edge45_Node000023_Node000018"><a xlink:title=" ">
<path fill="none" stroke="#63b8ff" d="M865.23,-322.06C841.93,-301.23 806.2,-271.02 772,-249 688.74,-195.4 582.42,-147.51 525.68,-123.43"/>
<polygon fill="#63b8ff" stroke="#63b8ff" points="862.63,-324.42 872.4,-328.53 867.32,-319.23 862.63,-324.42"/>
</a>
</g>
</g>
<!-- Node24 -->
<g id="Node000024" class="node">
<title>Node24</title>
<g id="a_Node000024"><a xlink:href="class_main_window.html#a9ed390421f6755b891cfc651d173db7b" target="_top" xlink:title=" ">
<polygon fill="white" stroke="#666666" points="762.25,-290 618.75,-290 618.75,-258 762.25,-258 762.25,-290"/>
<text xml:space="preserve" text-anchor="start" x="626.75" y="-276.5" font-family="Helvetica,sans-Serif" font-size="10.00">MainWindow::handleAttribute</text>
<text xml:space="preserve" text-anchor="middle" x="690.5" y="-264.5" font-family="Helvetica,sans-Serif" font-size="10.00">PropertyChange</text>
</a>
</g>
</g>
<!-- Node23&#45;&gt;Node24 -->
<g id="edge34_Node000023_Node000024" class="edge">
<title>Node23&#45;&gt;Node24</title>
<g id="a_edge34_Node000023_Node000024"><a xlink:title=" ">
<path fill="none" stroke="#63b8ff" d="M841.3,-325.38C820.08,-316.85 794.96,-307.08 772,-299 763.72,-296.08 754.9,-293.16 746.24,-290.4"/>
<polygon fill="#63b8ff" stroke="#63b8ff" points="839.71,-328.51 850.29,-329.02 842.33,-322.02 839.71,-328.51"/>
</a>
</g>
</g>
<!-- Node25 -->
<g id="Node000025" class="node">
<title>Node25</title>
<g id="a_Node000025"><a xlink:href="class_main_window.html#aa69c4b7c558b2fb3922adf75af48330a" target="_top" xlink:title=" ">
<polygon fill="white" stroke="#666666" points="770.88,-340 610.12,-340 610.12,-308 770.88,-308 770.88,-340"/>
<text xml:space="preserve" text-anchor="start" x="618.12" y="-326.5" font-family="Helvetica,sans-Serif" font-size="10.00">MainWindow::handleRelationship</text>
<text xml:space="preserve" text-anchor="middle" x="690.5" y="-314.5" font-family="Helvetica,sans-Serif" font-size="10.00">EndCardinalityChange</text>
</a>
</g>
</g>
<!-- Node23&#45;&gt;Node25 -->
<g id="edge38_Node000023_Node000025" class="edge">
<title>Node23&#45;&gt;Node25</title>
<g id="a_edge38_Node000023_Node000025"><a xlink:title=" ">
<path fill="none" stroke="#63b8ff" d="M813.83,-337.48C799.8,-335.94 785.14,-334.32 771.05,-332.77"/>
<polygon fill="#63b8ff" stroke="#63b8ff" points="813.1,-340.92 823.43,-338.54 813.87,-333.96 813.1,-340.92"/>
</a>
</g>
</g>
<!-- Node26 -->
<g id="Node000026" class="node">
<title>Node26</title>
<g id="a_Node000026"><a xlink:href="class_main_window.html#a96d575a529f7c24b1b5094b4b1e42742" target="_top" xlink:title=" ">
<polygon fill="white" stroke="#666666" points="770.88,-428 610.12,-428 610.12,-396 770.88,-396 770.88,-428"/>
<text xml:space="preserve" text-anchor="start" x="618.12" y="-414.5" font-family="Helvetica,sans-Serif" font-size="10.00">MainWindow::handleRelationship</text>
<text xml:space="preserve" text-anchor="middle" x="690.5" y="-402.5" font-family="Helvetica,sans-Serif" font-size="10.00">EndParticipationChange</text>
</a>
</g>
</g>
<!-- Node23&#45;&gt;Node26 -->
<g id="edge40_Node000023_Node000026" class="edge">
<title>Node23&#45;&gt;Node26</title>
<g id="a_edge40_Node000023_Node000026"><a xlink:title=" ">
<path fill="none" stroke="#63b8ff" d="M830.57,-366.02C801.93,-375.49 768.16,-386.66 741.07,-395.61"/>
<polygon fill="#63b8ff" stroke="#63b8ff" points="831.43,-369.42 839.83,-362.96 829.24,-362.78 831.43,-369.42"/>
</a>
</g>
</g>
<!-- Node24&#45;&gt;Node9 -->
<g id="edge35_Node000024_Node000009" class="edge">
<title>Node24&#45;&gt;Node9</title>
<g id="a_edge35_Node000024_Node000009"><a xlink:title=" ">
<path fill="none" stroke="#63b8ff" d="M613.99,-295.8C612.28,-296.82 610.62,-297.89 609,-299 549.64,-339.89 505.38,-417.98 490.86,-445.82"/>
<polygon fill="#63b8ff" stroke="#63b8ff" points="615.6,-298.91 622.83,-291.16 612.35,-292.71 615.6,-298.91"/>
</a>
</g>
</g>
<!-- Node24&#45;&gt;Node12 -->
<g id="edge36_Node000024_Node000012" class="edge">
<title>Node24&#45;&gt;Node12</title>
<g id="a_edge36_Node000024_Node000012"><a xlink:title=" ">
<path fill="none" stroke="#63b8ff" d="M607.24,-285.3C592.3,-287.36 576.78,-289.49 562.02,-291.52"/>
<polygon fill="#63b8ff" stroke="#63b8ff" points="607.59,-288.79 617.02,-283.96 606.64,-281.85 607.59,-288.79"/>
</a>
</g>
</g>
<!-- Node24&#45;&gt;Node18 -->
<g id="edge37_Node000024_Node000018" class="edge">
<title>Node24&#45;&gt;Node18</title>
<g id="a_edge37_Node000024_Node000018"><a xlink:title=" ">
<path fill="none" stroke="#63b8ff" d="M660.71,-250.4C618.79,-216.05 542.01,-153.11 505.74,-123.38"/>
<polygon fill="#63b8ff" stroke="#63b8ff" points="658.47,-253.09 668.42,-256.72 662.91,-247.68 658.47,-253.09"/>
</a>
</g>
</g>
<!-- Node25&#45;&gt;Node12 -->
<g id="edge39_Node000025_Node000012" class="edge">
<title>Node25&#45;&gt;Node12</title>
<g id="a_edge39_Node000025_Node000012"><a xlink:title=" ">
<path fill="none" stroke="#63b8ff" d="M598.55,-314.18C590.2,-313.28 581.76,-312.37 573.44,-311.47"/>
<polygon fill="#63b8ff" stroke="#63b8ff" points="598.03,-317.64 608.34,-315.24 598.78,-310.68 598.03,-317.64"/>
</a>
</g>
</g>
<!-- Node26&#45;&gt;Node9 -->
<g id="edge41_Node000026_Node000009" class="edge">
<title>Node26&#45;&gt;Node9</title>
<g id="a_edge41_Node000026_Node000009"><a xlink:title=" ">
<path fill="none" stroke="#63b8ff" d="M602.37,-430.81C579.08,-435.84 554.74,-441.1 534.36,-445.5"/>
<polygon fill="#63b8ff" stroke="#63b8ff" points="602.83,-434.3 611.86,-428.77 601.35,-427.46 602.83,-434.3"/>
</a>
</g>
</g>
<!-- Node27&#45;&gt;Node7 -->
<g id="edge47_Node000027_Node000007" class="edge">
<title>Node27&#45;&gt;Node7</title>
<g id="a_edge47_Node000027_Node000007"><a xlink:title=" ">
<path fill="none" stroke="#63b8ff" d="M1389.59,-677.3C1376.88,-674.35 1363.83,-671.32 1351.37,-668.43"/>
<polygon fill="#63b8ff" stroke="#63b8ff" points="1388.63,-680.67 1399.16,-679.52 1390.21,-673.85 1388.63,-680.67"/>
</a>
</g>
</g>
<!-- Node29 -->
<g id="Node000029" class="node">
<title>Node29</title>
<g id="a_Node000029"><a xlink:href="class_diagram_scene.html#a61e7061e5add947d09ad87feaf2b8dc1" target="_top" xlink:title=" ">
<polygon fill="white" stroke="#666666" points="2150,-190 1975.75,-190 1975.75,-170 2150,-170 2150,-190"/>
<text xml:space="preserve" text-anchor="middle" x="2062.88" y="-176.5" font-family="Helvetica,sans-Serif" font-size="10.00">DiagramScene::pasteFromClipboard</text>
</a>
</g>
</g>
<!-- Node28&#45;&gt;Node29 -->
<g id="edge53_Node000028_Node000029" class="edge">
<title>Node28&#45;&gt;Node29</title>
<g id="a_edge53_Node000028_Node000029"><a xlink:title=" ">
<path fill="none" stroke="#63b8ff" d="M2174.1,-180C2166.22,-180 2158.23,-180 2150.35,-180"/>
<polygon fill="#63b8ff" stroke="#63b8ff" points="2174.04,-183.5 2184.04,-180 2174.04,-176.5 2174.04,-183.5"/>
</a>
</g>
</g>
<!-- Node30 -->
<g id="Node000030" class="node">
<title>Node30</title>
<g id="a_Node000030"><a xlink:href="class_diagram_scene.html#a074e1181353b257a18ea2d243b459a47" target="_top" xlink:title=" ">
<polygon fill="white" stroke="#666666" points="1939.75,-190 1786.5,-190 1786.5,-170 1939.75,-170 1939.75,-190"/>
<text xml:space="preserve" text-anchor="middle" x="1863.12" y="-176.5" font-family="Helvetica,sans-Serif" font-size="10.00">DiagramScene::keyPressEvent</text>
</a>
</g>
</g>
<!-- Node29&#45;&gt;Node30 -->
<g id="edge54_Node000029_Node000030" class="edge">
<title>Node29&#45;&gt;Node30</title>
<g id="a_edge54_Node000029_Node000030"><a xlink:title=" ">
<path fill="none" stroke="#63b8ff" d="M1964.09,-180C1956.05,-180 1948,-180 1940.16,-180"/>
<polygon fill="#63b8ff" stroke="#63b8ff" points="1963.91,-183.5 1973.91,-180 1963.91,-176.5 1963.91,-183.5"/>
</a>
</g>
</g>
</g>
</svg>

<g id="navigator" transform="translate(0 0)" fill="#404254">
  <rect fill="#f2f5e9" fill-opacity="0.5" stroke="#606060" stroke-width=".5" x="0" y="0" width="60" height="60"/>
  <use id="zoomplus" xlink:href="#zoomPlus" x="17" y="9" onmousedown="handleZoom(evt,'in')"/>
  <use id="zoomminus" xlink:href="#zoomMin" x="42" y="9" onmousedown="handleZoom(evt,'out')"/>
  <use id="reset" xlink:href="#resetDef" x="30" y="36" onmousedown="handleReset()"/>
   <use id="arrowup" xlink:href="#arrowUp" x="0" y="0" onmousedown="handlePan(0,-1)"/>
  <use id="arrowright" xlink:href="#arrowRight" x="0" y="0" onmousedown="handlePan(1,0)"/>
  <use id="arrowdown" xlink:href="#arrowDown" x="0" y="0" onmousedown="handlePan(0,1)"/>
  <use id="arrowleft" xlink:href="#arrowLeft" x="0" y="0" onmousedown="handlePan(-1,0)"/>
</g>
<svg viewBox="0 0 15 15" width="100%" height="30px" preserveAspectRatio="xMaxYMin meet">
 <g id="arrow_out" transform="scale(0.3 0.3)">
  <a xlink:href="class_basic_element_a482ffd2c58ecdc8bba5bfeaadf8f26d4_icgraph_org.svg" target="_base">
   <rect id="button" ry="5" rx="5" y="6" x="6" height="38" width="38"
        fill="#f2f5e9" fill-opacity="0.5" stroke="#606060" stroke-width="1.0"/>
   <path id="arrow"
     d="M 11.500037,31.436501 C 11.940474,20.09759 22.043105,11.32322 32.158766,21.979434 L 37.068811,17.246167 C 37.068811,17.246167 37.088388,32 37.088388,32 L 22.160133,31.978069 C 22.160133,31.978069 26.997745,27.140456 26.997745,27.140456 C 18.528582,18.264221 13.291696,25.230495 11.500037,31.436501 z"
     style="fill:#404040;"/>
  </a>
 </g>
</svg>

<style type='text/css'>
<![CDATA[
[data-mouse-over-selected='false'] { opacity: 0.7; }
[data-mouse-over-selected='true']  { opacity: 1.0; }
]]>
</style>
<script type="application/ecmascript"><![CDATA[
document.addEventListener('DOMContentLoaded', (event) => {
  highlightEdges();
  highlightAdjacentNodes();
});
]]></script>
</svg>
