<?xml version="1.0" encoding="UTF-8" standalone="no"?>
<!DOCTYPE svg PUBLIC "-//W3C//DTD SVG 1.1//EN"
 "http://www.w3.org/Graphics/SVG/1.1/DTD/svg11.dtd">
<!-- Generated by graphviz version 14.1.1 (20251213.1925)
 -->
<!-- Title: ElementGraphicsItem Pages: 1 -->
<svg width="244pt" height="580pt"
 viewBox="0.00 0.00 244.00 580.00" xmlns="http://www.w3.org/2000/svg" xmlns:xlink="http://www.w3.org/1999/xlink">
<g id="graph0" class="graph" transform="scale(1 1) rotate(0) translate(4 576)">
<title>ElementGraphicsItem</title>
<!-- Node1 -->
<g id="Node000001" class="node">
<title>Node1</title>
<g id="a_Node000001"><a xlink:title="Graphic item that represents a BasicElement in the QGraphicsView.">
<polygon fill="#999999" stroke="none" points="181,-452 19,-452 19,0 181,0 181,-452"/>
<text xml:space="preserve" text-anchor="start" x="52.75" y="-438.5" font-family="Helvetica,sans-Serif" font-size="10.00">ElementGraphicsItem</text>
<text xml:space="preserve" text-anchor="start" x="24.5" y="-422.5" font-family="Helvetica,sans-Serif" font-size="10.00">&#45;</text>
<text xml:space="preserve" text-anchor="start" x="33" y="-422.5" font-family="Helvetica,sans-Serif" font-size="10.00">m_element</text>
<text xml:space="preserve" text-anchor="start" x="24.5" y="-406.5" font-family="Helvetica,sans-Serif" font-size="10.00">&#45;</text>
<text xml:space="preserve" text-anchor="start" x="33" y="-406.5" font-family="Helvetica,sans-Serif" font-size="10.00">m_renderer</text>
<text xml:space="preserve" text-anchor="start" x="24.5" y="-390.5" font-family="Helvetica,sans-Serif" font-size="10.00">&#45;</text>
<text xml:space="preserve" text-anchor="start" x="33" y="-390.5" font-family="Helvetica,sans-Serif" font-size="10.00">m_isSelected</text>
<text xml:space="preserve" text-anchor="start" x="24.5" y="-374.5" font-family="Helvetica,sans-Serif" font-size="10.00">&#45;</text>
<text xml:space="preserve" text-anchor="start" x="33" y="-374.5" font-family="Helvetica,sans-Serif" font-size="10.00">m_isHovered</text>
<text xml:space="preserve" text-anchor="start" x="24.5" y="-358.5" font-family="Helvetica,sans-Serif" font-size="10.00">&#45;</text>
<text xml:space="preserve" text-anchor="start" x="33" y="-358.5" font-family="Helvetica,sans-Serif" font-size="10.00">m_isDragging</text>
<text xml:space="preserve" text-anchor="start" x="24.5" y="-342.5" font-family="Helvetica,sans-Serif" font-size="10.00">&#45;</text>
<text xml:space="preserve" text-anchor="start" x="33" y="-342.5" font-family="Helvetica,sans-Serif" font-size="10.00">m_connectionPointsVisible</text>
<text xml:space="preserve" text-anchor="start" x="24.5" y="-326.5" font-family="Helvetica,sans-Serif" font-size="10.00">&#45;</text>
<text xml:space="preserve" text-anchor="start" x="33" y="-326.5" font-family="Helvetica,sans-Serif" font-size="10.00">m_dragStartPosition</text>
<text xml:space="preserve" text-anchor="start" x="24.5" y="-310.5" font-family="Helvetica,sans-Serif" font-size="10.00">&#45;</text>
<text xml:space="preserve" text-anchor="start" x="33" y="-310.5" font-family="Helvetica,sans-Serif" font-size="10.00">m_hoveredConnectionPoint</text>
<text xml:space="preserve" text-anchor="start" x="23" y="-294.5" font-family="Helvetica,sans-Serif" font-size="10.00">+</text>
<text xml:space="preserve" text-anchor="start" x="33" y="-294.5" font-family="Helvetica,sans-Serif" font-size="10.00">ElementGraphicsItem()</text>
<text xml:space="preserve" text-anchor="start" x="23" y="-278.5" font-family="Helvetica,sans-Serif" font-size="10.00">+</text>
<text xml:space="preserve" text-anchor="start" x="33" y="-278.5" font-family="Helvetica,sans-Serif" font-size="10.00">~ElementGraphicsItem()</text>
<text xml:space="preserve" text-anchor="start" x="23" y="-262.5" font-family="Helvetica,sans-Serif" font-size="10.00">+</text>
<text xml:space="preserve" text-anchor="start" x="33" y="-262.5" font-family="Helvetica,sans-Serif" font-size="10.00">boundingRect()</text>
<text xml:space="preserve" text-anchor="start" x="23" y="-246.5" font-family="Helvetica,sans-Serif" font-size="10.00">+</text>
<text xml:space="preserve" text-anchor="start" x="33" y="-246.5" font-family="Helvetica,sans-Serif" font-size="10.00">paint()</text>
<text xml:space="preserve" text-anchor="start" x="23" y="-230.5" font-family="Helvetica,sans-Serif" font-size="10.00">+</text>
<text xml:space="preserve" text-anchor="start" x="33" y="-230.5" font-family="Helvetica,sans-Serif" font-size="10.00">shape()</text>
<text xml:space="preserve" text-anchor="start" x="23" y="-214.5" font-family="Helvetica,sans-Serif" font-size="10.00">+</text>
<text xml:space="preserve" text-anchor="start" x="33" y="-214.5" font-family="Helvetica,sans-Serif" font-size="10.00">mousePressEvent()</text>
<text xml:space="preserve" text-anchor="start" x="23" y="-198.5" font-family="Helvetica,sans-Serif" font-size="10.00">+</text>
<text xml:space="preserve" text-anchor="start" x="33" y="-198.5" font-family="Helvetica,sans-Serif" font-size="10.00">mouseMoveEvent()</text>
<text xml:space="preserve" text-anchor="start" x="23" y="-182.5" font-family="Helvetica,sans-Serif" font-size="10.00">+</text>
<text xml:space="preserve" text-anchor="start" x="33" y="-182.5" font-family="Helvetica,sans-Serif" font-size="10.00">mouseReleaseEvent()</text>
<text xml:space="preserve" text-anchor="start" x="23" y="-166.5" font-family="Helvetica,sans-Serif" font-size="10.00">+</text>
<text xml:space="preserve" text-anchor="start" x="33" y="-166.5" font-family="Helvetica,sans-Serif" font-size="10.00">mouseDoubleClickEvent()</text>
<text xml:space="preserve" text-anchor="start" x="23" y="-150.5" font-family="Helvetica,sans-Serif" font-size="10.00">+</text>
<text xml:space="preserve" text-anchor="start" x="33" y="-150.5" font-family="Helvetica,sans-Serif" font-size="10.00">hoverEnterEvent()</text>
<text xml:space="preserve" text-anchor="start" x="33" y="-134.5" font-family="Helvetica,sans-Serif" font-size="10.00">and 11 more...</text>
<text xml:space="preserve" text-anchor="start" x="23.38" y="-118.5" font-family="Helvetica,sans-Serif" font-size="10.00">#</text>
<text xml:space="preserve" text-anchor="start" x="33" y="-118.5" font-family="Helvetica,sans-Serif" font-size="10.00">itemChange()</text>
<text xml:space="preserve" text-anchor="start" x="24.5" y="-102.5" font-family="Helvetica,sans-Serif" font-size="10.00">&#45;</text>
<text xml:space="preserve" text-anchor="start" x="33" y="-102.5" font-family="Helvetica,sans-Serif" font-size="10.00">updateFromElement()</text>
<text xml:space="preserve" text-anchor="start" x="24.5" y="-86.5" font-family="Helvetica,sans-Serif" font-size="10.00">&#45;</text>
<text xml:space="preserve" text-anchor="start" x="33" y="-86.5" font-family="Helvetica,sans-Serif" font-size="10.00">setupRenderer()</text>
<text xml:space="preserve" text-anchor="start" x="24.5" y="-70.5" font-family="Helvetica,sans-Serif" font-size="10.00">&#45;</text>
<text xml:space="preserve" text-anchor="start" x="33" y="-70.5" font-family="Helvetica,sans-Serif" font-size="10.00">editElementName()</text>
<text xml:space="preserve" text-anchor="start" x="24.5" y="-54.5" font-family="Helvetica,sans-Serif" font-size="10.00">&#45;</text>
<text xml:space="preserve" text-anchor="start" x="33" y="-54.5" font-family="Helvetica,sans-Serif" font-size="10.00">renderConnectionPoints()</text>
<text xml:space="preserve" text-anchor="start" x="24.5" y="-38.5" font-family="Helvetica,sans-Serif" font-size="10.00">&#45;</text>
<text xml:space="preserve" text-anchor="start" x="33" y="-38.5" font-family="Helvetica,sans-Serif" font-size="10.00">findConnectionPointAt()</text>
<text xml:space="preserve" text-anchor="start" x="24.5" y="-22.5" font-family="Helvetica,sans-Serif" font-size="10.00">&#45;</text>
<text xml:space="preserve" text-anchor="start" x="33" y="-22.5" font-family="Helvetica,sans-Serif" font-size="10.00">getConnectionPointRect()</text>
<text xml:space="preserve" text-anchor="start" x="24.5" y="-6.5" font-family="Helvetica,sans-Serif" font-size="10.00">&#45;</text>
<text xml:space="preserve" text-anchor="start" x="33" y="-6.5" font-family="Helvetica,sans-Serif" font-size="10.00">updateHoveredConnectionPoint()</text>
<polygon fill="#666666" stroke="#666666" points="19,-434 19,-434 181,-434 181,-434 19,-434"/>
<polygon fill="#666666" stroke="#666666" points="19,-306 19,-306 31,-306 31,-306 19,-306"/>
<polygon fill="#666666" stroke="#666666" points="31,-306 31,-306 181,-306 181,-306 31,-306"/>
<polygon fill="none" stroke="#666666" points="19,0 19,-452 181,-452 181,0 19,0"/>
</a>
</g>
</g>
<!-- Node2 -->
<g id="Node000002" class="node">
<title>Node2</title>
<g id="a_Node000002"><a xlink:title=" ">
<polygon fill="white" stroke="none" points="74,-556 0,-556 0,-504 74,-504 74,-556"/>
<text xml:space="preserve" text-anchor="start" x="4" y="-542.5" font-family="Helvetica,sans-Serif" font-size="10.00">QGraphicsItem</text>
<text xml:space="preserve" text-anchor="start" x="35.5" y="-526.5" font-family="Helvetica,sans-Serif" font-size="10.00"> </text>
<text xml:space="preserve" text-anchor="start" x="35.5" y="-510.5" font-family="Helvetica,sans-Serif" font-size="10.00"> </text>
<polygon fill="#666666" stroke="#666666" points="0,-538 0,-538 74,-538 74,-538 0,-538"/>
<polygon fill="#666666" stroke="#666666" points="0,-522 0,-522 74,-522 74,-522 0,-522"/>
<polygon fill="none" stroke="#666666" points="0,-504 0,-556 74,-556 74,-504 0,-504"/>
</a>
</g>
</g>
<!-- Node2&#45;&gt;Node1 -->
<g id="edge1_Node000001_Node000002" class="edge">
<title>Node2&#45;&gt;Node1</title>
<g id="a_edge1_Node000001_Node000002"><a xlink:title=" ">
<path fill="none" stroke="#63b8ff" d="M44.49,-493.08C46.94,-481.33 49.87,-467.3 53.08,-451.92"/>
<polygon fill="none" stroke="#63b8ff" points="41.13,-492.04 42.52,-502.55 47.99,-493.47 41.13,-492.04"/>
</a>
</g>
</g>
<!-- Node3 -->
<g id="Node000003" class="node">
<title>Node3</title>
<g id="a_Node000003"><a xlink:href="class_i_element_observer.html" target="_top" xlink:title=" ">
<polygon fill="white" stroke="none" points="236.38,-572 91.62,-572 91.62,-488 236.38,-488 236.38,-572"/>
<text xml:space="preserve" text-anchor="start" x="124.62" y="-558.5" font-family="Helvetica,sans-Serif" font-size="10.00">IElementObserver</text>
<text xml:space="preserve" text-anchor="start" x="162.5" y="-542.5" font-family="Helvetica,sans-Serif" font-size="10.00"> </text>
<text xml:space="preserve" text-anchor="start" x="95.62" y="-526.5" font-family="Helvetica,sans-Serif" font-size="10.00">+</text>
<text xml:space="preserve" text-anchor="start" x="105.62" y="-526.5" font-family="Helvetica,sans-Serif" font-size="10.00">~IElementObserver()</text>
<text xml:space="preserve" text-anchor="start" x="95.62" y="-510.5" font-family="Helvetica,sans-Serif" font-size="10.00">+</text>
<text xml:space="preserve" text-anchor="start" x="105.62" y="-510.5" font-family="Helvetica,sans-Serif" font-size="10.00">onElementChanged()</text>
<text xml:space="preserve" text-anchor="start" x="95.62" y="-494.5" font-family="Helvetica,sans-Serif" font-size="10.00">+</text>
<text xml:space="preserve" text-anchor="start" x="105.62" y="-494.5" font-family="Helvetica,sans-Serif" font-size="10.00">onElementPositionChanged()</text>
<polygon fill="#666666" stroke="#666666" points="91.62,-554 91.62,-554 236.38,-554 236.38,-554 91.62,-554"/>
<polygon fill="#666666" stroke="#666666" points="91.62,-538 91.62,-538 236.38,-538 236.38,-538 91.62,-538"/>
<polygon fill="none" stroke="#666666" points="91.62,-488 91.62,-572 236.38,-572 236.38,-488 91.62,-488"/>
</a>
</g>
</g>
<!-- Node3&#45;&gt;Node1 -->
<g id="edge2_Node000001_Node000003" class="edge">
<title>Node3&#45;&gt;Node1</title>
<g id="a_edge2_Node000001_Node000003"><a xlink:title=" ">
<path fill="none" stroke="#63b8ff" d="M153.03,-477.23C151.36,-469.36 149.56,-460.85 147.66,-451.88"/>
<polygon fill="none" stroke="#63b8ff" points="149.56,-477.73 155.05,-486.79 156.41,-476.28 149.56,-477.73"/>
</a>
</g>
</g>
</g>
</svg>
