<?xml version="1.0" encoding="UTF-8" standalone="no"?>
<!DOCTYPE svg PUBLIC "-//W3C//DTD SVG 1.1//EN"
 "http://www.w3.org/Graphics/SVG/1.1/DTD/svg11.dtd">
<!-- Generated by graphviz version 14.1.1 (20251213.1925)
 -->
<!-- Title: MainWindow::createButtonPropertyItem Pages: 1 -->
<svg width="1928pt" height="780pt"
 viewBox="0.00 0.00 1928.00 780.00" xmlns="http://www.w3.org/2000/svg" xmlns:xlink="http://www.w3.org/1999/xlink">
<g id="graph0" class="graph" transform="scale(1 1) rotate(0) translate(4 776)">
<title>MainWindow::createButtonPropertyItem</title>
<!-- Node1 -->
<g id="Node000001" class="node">
<title>Node1</title>
<g id="a_Node000001"><a xlink:title=" ">
<polygon fill="#999999" stroke="#666666" points="1920.25,-646 1786.5,-646 1786.5,-614 1920.25,-614 1920.25,-646"/>
<text xml:space="preserve" text-anchor="start" x="1794.5" y="-632.5" font-family="Helvetica,sans-Serif" font-size="10.00">MainWindow::createButton</text>
<text xml:space="preserve" text-anchor="middle" x="1853.38" y="-620.5" font-family="Helvetica,sans-Serif" font-size="10.00">PropertyItem</text>
</a>
</g>
</g>
<!-- Node2 -->
<g id="Node000002" class="node">
<title>Node2</title>
<g id="a_Node000002"><a xlink:href="class_main_window.html#a697154cf7839e00c607134c2a4e018cf" target="_top" xlink:title=" ">
<polygon fill="white" stroke="#666666" points="1750.5,-659 1583,-659 1583,-639 1750.5,-639 1750.5,-659"/>
<text xml:space="preserve" text-anchor="middle" x="1666.75" y="-645.5" font-family="Helvetica,sans-Serif" font-size="10.00">MainWindow::populateAttributeList</text>
</a>
</g>
</g>
<!-- Node1&#45;&gt;Node2 -->
<g id="edge1_Node000001_Node000002" class="edge">
<title>Node1&#45;&gt;Node2</title>
<g id="a_edge1_Node000001_Node000002"><a xlink:title=" ">
<path fill="none" stroke="#63b8ff" d="M1775.05,-637.96C1767.04,-638.78 1758.88,-639.62 1750.81,-640.45"/>
<polygon fill="#63b8ff" stroke="#63b8ff" points="1775.15,-641.47 1784.74,-636.96 1774.43,-634.5 1775.15,-641.47"/>
</a>
</g>
</g>
<!-- Node3 -->
<g id="Node000003" class="node">
<title>Node3</title>
<g id="a_Node000003"><a xlink:href="class_main_window.html#a3aa4112f20ad25eb3ad78fd354ba7de2" target="_top" xlink:title=" ">
<polygon fill="white" stroke="#666666" points="1547,-677 1395.25,-677 1395.25,-645 1547,-645 1547,-677"/>
<text xml:space="preserve" text-anchor="start" x="1403.25" y="-663.5" font-family="Helvetica,sans-Serif" font-size="10.00">MainWindow::populateAttribute</text>
<text xml:space="preserve" text-anchor="middle" x="1471.12" y="-651.5" font-family="Helvetica,sans-Serif" font-size="10.00">Properties</text>
</a>
</g>
</g>
<!-- Node1&#45;&gt;Node3 -->
<g id="edge47_Node000001_Node000003" class="edge">
<title>Node1&#45;&gt;Node3</title>
<g id="a_edge47_Node000001_Node000003"><a xlink:title=" ">
<path fill="none" stroke="#63b8ff" d="M1807.47,-650.69C1790.07,-657.65 1769.73,-664.53 1750.5,-668 1682.59,-680.25 1603.85,-676.67 1547.49,-671.09"/>
<polygon fill="#63b8ff" stroke="#63b8ff" points="1808.59,-654.02 1816.49,-646.96 1805.91,-647.55 1808.59,-654.02"/>
</a>
</g>
</g>
<!-- Node9 -->
<g id="Node000009" class="node">
<title>Node9</title>
<g id="a_Node000009"><a xlink:href="class_main_window.html#a1049a5796ac248f40a3b4110ed5faf77" target="_top" xlink:title=" ">
<polygon fill="white" stroke="#666666" points="169,-652 0,-652 0,-620 169,-620 169,-652"/>
<text xml:space="preserve" text-anchor="start" x="8" y="-638.5" font-family="Helvetica,sans-Serif" font-size="10.00">MainWindow::populateRelationship</text>
<text xml:space="preserve" text-anchor="middle" x="84.5" y="-626.5" font-family="Helvetica,sans-Serif" font-size="10.00">Properties</text>
</a>
</g>
</g>
<!-- Node1&#45;&gt;Node9 -->
<g id="edge49_Node000001_Node000009" class="edge">
<title>Node1&#45;&gt;Node9</title>
<g id="a_edge49_Node000001_Node000009"><a xlink:title=" ">
<path fill="none" stroke="#63b8ff" d="M1818.07,-652.35C1753.27,-692.34 1607.24,-772 1472.12,-772 1472.12,-772 1472.12,-772 483.75,-772 357.3,-772 321.82,-763.42 205,-715 166.63,-699.1 127.47,-670.32 104.88,-652.24"/>
<polygon fill="#63b8ff" stroke="#63b8ff" points="1819.85,-655.36 1826.47,-647.09 1816.14,-649.43 1819.85,-655.36"/>
</a>
</g>
</g>
<!-- Node25 -->
<g id="Node000025" class="node">
<title>Node25</title>
<g id="a_Node000025"><a xlink:href="class_main_window.html#a40023e3590f2593fd133a6b111f63ed9" target="_top" xlink:title=" ">
<polygon fill="white" stroke="#666666" points="1541.38,-627 1400.88,-627 1400.88,-595 1541.38,-595 1541.38,-627"/>
<text xml:space="preserve" text-anchor="start" x="1408.88" y="-613.5" font-family="Helvetica,sans-Serif" font-size="10.00">MainWindow::populateEntity</text>
<text xml:space="preserve" text-anchor="middle" x="1471.12" y="-601.5" font-family="Helvetica,sans-Serif" font-size="10.00">Properties</text>
</a>
</g>
</g>
<!-- Node1&#45;&gt;Node25 -->
<g id="edge48_Node000001_Node000025" class="edge">
<title>Node1&#45;&gt;Node25</title>
<g id="a_edge48_Node000001_Node000025"><a xlink:title=" ">
<path fill="none" stroke="#63b8ff" d="M1775.01,-626.13C1706.62,-622.72 1607.75,-617.78 1541.78,-614.48"/>
<polygon fill="#63b8ff" stroke="#63b8ff" points="1774.47,-629.61 1784.63,-626.61 1774.82,-622.62 1774.47,-629.61"/>
</a>
</g>
</g>
<!-- Node2&#45;&gt;Node3 -->
<g id="edge2_Node000002_Node000003" class="edge">
<title>Node2&#45;&gt;Node3</title>
<g id="a_edge2_Node000002_Node000003"><a xlink:title=" ">
<path fill="none" stroke="#63b8ff" d="M1571.22,-648.11C1563.21,-648.59 1555.18,-649.14 1547.35,-649.74"/>
<polygon fill="#63b8ff" stroke="#63b8ff" points="1571.22,-651.62 1581,-647.55 1570.82,-644.63 1571.22,-651.62"/>
</a>
</g>
</g>
<!-- Node2&#45;&gt;Node9 -->
<g id="edge46_Node000002_Node000009" class="edge">
<title>Node2&#45;&gt;Node9</title>
<g id="a_edge46_Node000002_Node000009"><a xlink:title=" ">
<path fill="none" stroke="#63b8ff" d="M1627.5,-663.25C1558.99,-687.45 1410.35,-734 1280.62,-734 1280.62,-734 1280.62,-734 483.75,-734 348.82,-734 195.43,-680.3 124.84,-652.4"/>
<polygon fill="#63b8ff" stroke="#63b8ff" points="1628.52,-666.6 1636.76,-659.93 1626.17,-660.01 1628.52,-666.6"/>
</a>
</g>
</g>
<!-- Node2&#45;&gt;Node25 -->
<g id="edge44_Node000002_Node000025" class="edge">
<title>Node2&#45;&gt;Node25</title>
<g id="a_edge44_Node000002_Node000025"><a xlink:title=" ">
<path fill="none" stroke="#63b8ff" d="M1601.04,-636.3C1581.99,-632.56 1561.06,-628.45 1541.71,-624.66"/>
<polygon fill="#63b8ff" stroke="#63b8ff" points="1600.36,-639.73 1610.84,-638.22 1601.7,-632.86 1600.36,-639.73"/>
</a>
</g>
</g>
<!-- Node3&#45;&gt;Node2 -->
<g id="edge3_Node000003_Node000002" class="edge">
<title>Node3&#45;&gt;Node2</title>
<g id="a_edge3_Node000003_Node000002"><a xlink:title=" ">
<path fill="none" stroke="#63b8ff" d="M1558.44,-662.36C1572.46,-661.59 1586.78,-660.61 1600.2,-659.49"/>
<polygon fill="#63b8ff" stroke="#63b8ff" points="1558.61,-658.85 1548.8,-662.86 1558.97,-665.84 1558.61,-658.85"/>
</a>
</g>
</g>
<!-- Node4 -->
<g id="Node000004" class="node">
<title>Node4</title>
<g id="a_Node000004"><a xlink:href="class_main_window.html#add7e6ae12287854ff779bd4b5649dd98" target="_top" xlink:title=" ">
<polygon fill="white" stroke="#666666" points="1359.25,-629 1200,-629 1200,-597 1359.25,-597 1359.25,-629"/>
<text xml:space="preserve" text-anchor="start" x="1208" y="-615.5" font-family="Helvetica,sans-Serif" font-size="10.00">MainWindow::populateProperties</text>
<text xml:space="preserve" text-anchor="middle" x="1279.62" y="-603.5" font-family="Helvetica,sans-Serif" font-size="10.00">ForElement</text>
</a>
</g>
</g>
<!-- Node3&#45;&gt;Node4 -->
<g id="edge4_Node000003_Node000004" class="edge">
<title>Node3&#45;&gt;Node4</title>
<g id="a_edge4_Node000003_Node000004"><a xlink:title=" ">
<path fill="none" stroke="#63b8ff" d="M1394.16,-641.76C1378.03,-637.67 1361.16,-633.4 1345.49,-629.43"/>
<polygon fill="#63b8ff" stroke="#63b8ff" points="1393.15,-645.11 1403.71,-644.18 1394.87,-638.33 1393.15,-645.11"/>
</a>
</g>
</g>
<!-- Node5 -->
<g id="Node000005" class="node">
<title>Node5</title>
<g id="a_Node000005"><a xlink:href="class_main_window.html#a5caeae304b10e5cd9f83ef5c6086310b" target="_top" xlink:title=" ">
<polygon fill="white" stroke="#666666" points="1164,-211 1012.25,-211 1012.25,-179 1164,-179 1164,-211"/>
<text xml:space="preserve" text-anchor="start" x="1020.25" y="-197.5" font-family="Helvetica,sans-Serif" font-size="10.00">MainWindow::updateProperties</text>
<text xml:space="preserve" text-anchor="middle" x="1088.12" y="-185.5" font-family="Helvetica,sans-Serif" font-size="10.00">Panel</text>
</a>
</g>
</g>
<!-- Node4&#45;&gt;Node5 -->
<g id="edge5_Node000004_Node000005" class="edge">
<title>Node4&#45;&gt;Node5</title>
<g id="a_edge5_Node000004_Node000005"><a xlink:title=" ">
<path fill="none" stroke="#63b8ff" d="M1266.62,-586.52C1230.79,-507.5 1125.36,-274.94 1096.5,-211.27"/>
<polygon fill="#63b8ff" stroke="#63b8ff" points="1263.25,-587.57 1270.57,-595.24 1269.63,-584.68 1263.25,-587.57"/>
</a>
</g>
</g>
<!-- Node6 -->
<g id="Node000006" class="node">
<title>Node6</title>
<g id="a_Node000006"><a xlink:href="class_main_window.html#ad34ae0349abf41aa739b75b85df74126" target="_top" xlink:title=" ">
<polygon fill="white" stroke="#666666" points="963.5,-82 820.75,-82 820.75,-50 963.5,-50 963.5,-82"/>
<text xml:space="preserve" text-anchor="start" x="828.75" y="-68.5" font-family="Helvetica,sans-Serif" font-size="10.00">MainWindow::onAddAttribute</text>
<text xml:space="preserve" text-anchor="middle" x="892.12" y="-56.5" font-family="Helvetica,sans-Serif" font-size="10.00">OnTreeClicked</text>
</a>
</g>
</g>
<!-- Node5&#45;&gt;Node6 -->
<g id="edge6_Node000005_Node000006" class="edge">
<title>Node5&#45;&gt;Node6</title>
<g id="a_edge6_Node000005_Node000006"><a xlink:title=" ">
<path fill="none" stroke="#63b8ff" d="M1051.68,-172.38C1038.67,-163.34 1024.21,-152.38 1012.25,-141 993.69,-123.35 997.08,-110.91 976.25,-96 968.76,-90.64 960.22,-86.15 951.53,-82.41"/>
<polygon fill="#63b8ff" stroke="#63b8ff" points="1049.34,-175.03 1059.58,-177.75 1053.28,-169.24 1049.34,-175.03"/>
</a>
</g>
</g>
<!-- Node7 -->
<g id="Node000007" class="node">
<title>Node7</title>
<g id="a_Node000007"><a xlink:href="class_main_window.html#a47fd0b86ddb5829e3b0cb15908671670" target="_top" xlink:title=" ">
<polygon fill="white" stroke="#666666" points="571.5,-378 398,-378 398,-358 571.5,-358 571.5,-378"/>
<text xml:space="preserve" text-anchor="middle" x="484.75" y="-364.5" font-family="Helvetica,sans-Serif" font-size="10.00">MainWindow::onCheckBoxChanged</text>
</a>
</g>
</g>
<!-- Node5&#45;&gt;Node7 -->
<g id="edge8_Node000005_Node000007" class="edge">
<title>Node5&#45;&gt;Node7</title>
<g id="a_edge8_Node000005_Node000007"><a xlink:title=" ">
<path fill="none" stroke="#63b8ff" d="M1001.01,-213.04C868.37,-240.93 627.35,-292.05 609,-299 567.72,-314.64 523.56,-342.4 500.97,-357.5"/>
<polygon fill="#63b8ff" stroke="#63b8ff" points="1001.39,-216.54 1010.45,-211.06 999.95,-209.69 1001.39,-216.54"/>
</a>
</g>
</g>
<!-- Node10 -->
<g id="Node000010" class="node">
<title>Node10</title>
<g id="a_Node000010"><a xlink:href="class_main_window.html#ac1e0c79708cf9aa9b7ca1a87697e5b34" target="_top" xlink:title=" ">
<polygon fill="white" stroke="#666666" points="573,-479 396.5,-479 396.5,-459 573,-459 573,-479"/>
<text xml:space="preserve" text-anchor="middle" x="484.75" y="-465.5" font-family="Helvetica,sans-Serif" font-size="10.00">MainWindow::onComboBoxChanged</text>
</a>
</g>
</g>
<!-- Node5&#45;&gt;Node10 -->
<g id="edge13_Node000005_Node000010" class="edge">
<title>Node5&#45;&gt;Node10</title>
<g id="a_edge13_Node000005_Node000010"><a xlink:title=" ">
<path fill="none" stroke="#63b8ff" d="M1079.8,-222.37C1066.37,-267.86 1033.74,-359.51 976.25,-415 904.35,-484.4 869.62,-487.62 772,-509 701.23,-524.5 680.55,-520.32 609,-509 573.67,-503.41 534.68,-489.33 510.21,-479.47"/>
<polygon fill="#63b8ff" stroke="#63b8ff" points="1083.16,-223.37 1082.54,-212.79 1076.43,-221.45 1083.16,-223.37"/>
</a>
</g>
</g>
<!-- Node14 -->
<g id="Node000014" class="node">
<title>Node14</title>
<g id="a_Node000014"><a xlink:href="class_main_window.html#a0e7ca45ac830893108871185dda813a4" target="_top" xlink:title=" ">
<polygon fill="white" stroke="#666666" points="772,-592 609,-592 609,-572 772,-572 772,-592"/>
<text xml:space="preserve" text-anchor="middle" x="690.5" y="-578.5" font-family="Helvetica,sans-Serif" font-size="10.00">MainWindow::onLineEditChanged</text>
</a>
</g>
</g>
<!-- Node5&#45;&gt;Node14 -->
<g id="edge20_Node000005_Node000014" class="edge">
<title>Node5&#45;&gt;Node14</title>
<g id="a_edge20_Node000005_Node000014"><a xlink:title=" ">
<path fill="none" stroke="#63b8ff" d="M1082.76,-222.5C1069.94,-299.55 1029.91,-514.68 976.25,-558 908.22,-612.93 798.89,-603.6 737.38,-592.46"/>
<polygon fill="#63b8ff" stroke="#63b8ff" points="1086.18,-223.3 1084.34,-212.87 1079.27,-222.17 1086.18,-223.3"/>
</a>
</g>
</g>
<!-- Node16 -->
<g id="Node000016" class="node">
<title>Node16</title>
<g id="a_Node000016"><a xlink:href="class_main_window.html#a1043995538765eae993ae75217c482e7" target="_top" xlink:title=" ">
<polygon fill="white" stroke="#666666" points="559.5,-211 410,-211 410,-179 559.5,-179 559.5,-211"/>
<text xml:space="preserve" text-anchor="start" x="418" y="-197.5" font-family="Helvetica,sans-Serif" font-size="10.00">MainWindow::onPropertyValue</text>
<text xml:space="preserve" text-anchor="middle" x="484.75" y="-185.5" font-family="Helvetica,sans-Serif" font-size="10.00">Changed</text>
</a>
</g>
</g>
<!-- Node5&#45;&gt;Node16 -->
<g id="edge23_Node000005_Node000016" class="edge">
<title>Node5&#45;&gt;Node16</title>
<g id="a_edge23_Node000005_Node000016"><a xlink:title=" ">
<path fill="none" stroke="#63b8ff" d="M1000.7,-190.09C882.18,-187.54 671.24,-187.64 559.67,-190.38"/>
<polygon fill="#63b8ff" stroke="#63b8ff" points="1000.28,-193.59 1010.36,-190.31 1000.44,-186.59 1000.28,-193.59"/>
</a>
</g>
</g>
<!-- Node19 -->
<g id="Node000019" class="node">
<title>Node19</title>
<g id="a_Node000019"><a xlink:href="class_main_window.html#a95674d4bfc5fc2aad6df1601f23b1793" target="_top" xlink:title=" ">
<polygon fill="white" stroke="#666666" points="973.25,-32 811,-32 811,0 973.25,0 973.25,-32"/>
<text xml:space="preserve" text-anchor="start" x="819" y="-18.5" font-family="Helvetica,sans-Serif" font-size="10.00">MainWindow::onRemoveAttribute</text>
<text xml:space="preserve" text-anchor="middle" x="892.12" y="-6.5" font-family="Helvetica,sans-Serif" font-size="10.00">OnTreeClicked</text>
</a>
</g>
</g>
<!-- Node5&#45;&gt;Node19 -->
<g id="edge27_Node000005_Node000019" class="edge">
<title>Node5&#45;&gt;Node19</title>
<g id="a_edge27_Node000005_Node000019"><a xlink:title=" ">
<path fill="none" stroke="#63b8ff" d="M1074.96,-168.59C1057.79,-134.18 1023.21,-74.48 976.25,-41 971.71,-37.76 966.75,-34.94 961.58,-32.48"/>
<polygon fill="#63b8ff" stroke="#63b8ff" points="1071.75,-169.98 1079.26,-177.44 1078.04,-166.92 1071.75,-169.98"/>
</a>
</g>
</g>
<!-- Node20 -->
<g id="Node000020" class="node">
<title>Node20</title>
<g id="a_Node000020"><a xlink:href="class_main_window.html#a44791b85064ecff42c12429c6667e83b" target="_top" xlink:title=" ">
<polygon fill="white" stroke="#666666" points="976.25,-158 808,-158 808,-138 976.25,-138 976.25,-158"/>
<text xml:space="preserve" text-anchor="middle" x="892.12" y="-144.5" font-family="Helvetica,sans-Serif" font-size="10.00">MainWindow::onSelectionChanged</text>
</a>
</g>
</g>
<!-- Node5&#45;&gt;Node20 -->
<g id="edge29_Node000005_Node000020" class="edge">
<title>Node5&#45;&gt;Node20</title>
<g id="a_edge29_Node000005_Node000020"><a xlink:title=" ">
<path fill="none" stroke="#63b8ff" d="M1008.14,-175.87C983.62,-169.92 957.51,-163.6 936.38,-158.48"/>
<polygon fill="#63b8ff" stroke="#63b8ff" points="1007.26,-179.25 1017.8,-178.21 1008.91,-172.45 1007.26,-179.25"/>
</a>
</g>
</g>
<!-- Node21 -->
<g id="Node000021" class="node">
<title>Node21</title>
<g id="a_Node000021"><a xlink:href="class_main_window.html#af380eeda83d30cd1ecb1419cfd5161d7" target="_top" xlink:title=" ">
<polygon fill="white" stroke="#666666" points="959,-406 825.25,-406 825.25,-374 959,-374 959,-406"/>
<text xml:space="preserve" text-anchor="start" x="833.25" y="-392.5" font-family="Helvetica,sans-Serif" font-size="10.00">MainWindow::updatesAfter</text>
<text xml:space="preserve" text-anchor="middle" x="892.12" y="-380.5" font-family="Helvetica,sans-Serif" font-size="10.00">ChangingProperty</text>
</a>
</g>
</g>
<!-- Node5&#45;&gt;Node21 -->
<g id="edge31_Node000005_Node000021" class="edge">
<title>Node5&#45;&gt;Node21</title>
<g id="a_edge31_Node000005_Node000021"><a xlink:title=" ">
<path fill="none" stroke="#63b8ff" d="M1062.99,-219.26C1022.89,-259.56 943.59,-339.27 909.42,-373.62"/>
<polygon fill="#63b8ff" stroke="#63b8ff" points="1065.28,-221.92 1069.85,-212.36 1060.32,-216.98 1065.28,-221.92"/>
</a>
</g>
</g>
<!-- Node6&#45;&gt;Node1 -->
<g id="edge7_Node000006_Node000001" class="edge">
<title>Node6&#45;&gt;Node1</title>
<g id="a_edge7_Node000006_Node000001"><a xlink:title=" ">
<path fill="none" stroke="#63b8ff" d="M968.15,-85.02C1045.43,-102.92 1169.64,-127 1278.62,-127 1472.12,-127 1472.12,-127 1472.12,-127 1721.99,-127 1828.58,-526.86 1848.75,-613.55"/>
<polygon fill="#63b8ff" stroke="#63b8ff" points="969.1,-81.65 958.57,-82.77 967.5,-88.46 969.1,-81.65"/>
</a>
</g>
</g>
<!-- Node8 -->
<g id="Node000008" class="node">
<title>Node8</title>
<g id="a_Node000008"><a xlink:href="class_main_window.html#a44aaf7bb6d9a56f53b8a7a9e4fc29f8c" target="_top" xlink:title=" ">
<polygon fill="white" stroke="#666666" points="358.25,-580 207.25,-580 207.25,-548 358.25,-548 358.25,-580"/>
<text xml:space="preserve" text-anchor="start" x="215.25" y="-566.5" font-family="Helvetica,sans-Serif" font-size="10.00">MainWindow::createCheckBox</text>
<text xml:space="preserve" text-anchor="middle" x="282.75" y="-554.5" font-family="Helvetica,sans-Serif" font-size="10.00">PropertyItem</text>
</a>
</g>
</g>
<!-- Node7&#45;&gt;Node8 -->
<g id="edge9_Node000007_Node000008" class="edge">
<title>Node7&#45;&gt;Node8</title>
<g id="a_edge9_Node000007_Node000008"><a xlink:title=" ">
<path fill="none" stroke="#63b8ff" d="M463.08,-386.03C444.93,-402.19 418.12,-426.84 396.5,-450 379.26,-468.47 377.88,-475.66 360.5,-494 342.02,-513.5 319.05,-534.02 303.08,-547.76"/>
<polygon fill="#63b8ff" stroke="#63b8ff" points="465.4,-388.66 470.58,-379.41 460.76,-383.41 465.4,-388.66"/>
</a>
</g>
</g>
<!-- Node8&#45;&gt;Node3 -->
<g id="edge10_Node000008_Node000003" class="edge">
<title>Node8&#45;&gt;Node3</title>
<g id="a_edge10_Node000008_Node000003"><a xlink:title=" ">
<path fill="none" stroke="#63b8ff" d="M358.55,-583.16C472.61,-610.65 697.25,-658 891.12,-658 1089.12,-658 1089.12,-658 1089.12,-658 1195.29,-658 1318.1,-659.18 1394.94,-660.06"/>
<polygon fill="#63b8ff" stroke="#63b8ff" points="359.54,-579.8 349,-580.84 357.89,-586.6 359.54,-579.8"/>
</a>
</g>
</g>
<!-- Node8&#45;&gt;Node9 -->
<g id="edge11_Node000008_Node000009" class="edge">
<title>Node8&#45;&gt;Node9</title>
<g id="a_edge11_Node000008_Node000009"><a xlink:title=" ">
<path fill="none" stroke="#63b8ff" d="M219.34,-583.98C214.48,-585.64 209.65,-587.33 205,-589 178.35,-598.57 148.74,-610.21 125.65,-619.51"/>
<polygon fill="#63b8ff" stroke="#63b8ff" points="220.21,-587.38 228.57,-580.87 217.97,-580.75 220.21,-587.38"/>
</a>
</g>
</g>
<!-- Node9&#45;&gt;Node4 -->
<g id="edge12_Node000009_Node000004" class="edge">
<title>Node9&#45;&gt;Node4</title>
<g id="a_edge12_Node000009_Node000004"><a xlink:title=" ">
<path fill="none" stroke="#63b8ff" d="M180.63,-638.6C188.87,-638.76 197.08,-638.9 205,-639 274.11,-639.87 291.4,-639.98 360.5,-639 671.22,-634.6 1040.91,-621.83 1199.73,-615.99"/>
<polygon fill="#63b8ff" stroke="#63b8ff" points="180.97,-635.11 170.9,-638.4 180.83,-642.11 180.97,-635.11"/>
</a>
</g>
</g>
<!-- Node11 -->
<g id="Node000011" class="node">
<title>Node11</title>
<g id="a_Node000011"><a xlink:href="class_main_window.html#a872e6a76dcbf858ae9d483eceddf90e1" target="_top" xlink:title=" ">
<polygon fill="white" stroke="#666666" points="359.75,-630 205.75,-630 205.75,-598 359.75,-598 359.75,-630"/>
<text xml:space="preserve" text-anchor="start" x="213.75" y="-616.5" font-family="Helvetica,sans-Serif" font-size="10.00">MainWindow::createComboBox</text>
<text xml:space="preserve" text-anchor="middle" x="282.75" y="-604.5" font-family="Helvetica,sans-Serif" font-size="10.00">PropertyItem</text>
</a>
</g>
</g>
<!-- Node10&#45;&gt;Node11 -->
<g id="edge14_Node000010_Node000011" class="edge">
<title>Node10&#45;&gt;Node11</title>
<g id="a_edge14_Node000010_Node000011"><a xlink:title=" ">
<path fill="none" stroke="#63b8ff" d="M450.43,-484.35C432.82,-493.67 411.75,-506.89 396.5,-523 373.53,-547.27 386.2,-567.65 360.5,-589 356.51,-592.31 352.07,-595.19 347.4,-597.69"/>
<polygon fill="#63b8ff" stroke="#63b8ff" points="451.65,-487.65 458.98,-480 448.48,-481.41 451.65,-487.65"/>
</a>
</g>
</g>
<!-- Node12 -->
<g id="Node000012" class="node">
<title>Node12</title>
<g id="a_Node000012"><a xlink:href="class_main_window.html#abae03a6494d13d74ed1b2e31ec1f2fc7" target="_top" xlink:title=" ">
<polygon fill="white" stroke="#666666" points="360.5,-485 205,-485 205,-453 360.5,-453 360.5,-485"/>
<text xml:space="preserve" text-anchor="start" x="213" y="-471.5" font-family="Helvetica,sans-Serif" font-size="10.00">MainWindow::createIconCombo</text>
<text xml:space="preserve" text-anchor="middle" x="282.75" y="-459.5" font-family="Helvetica,sans-Serif" font-size="10.00">BoxPropertyItem</text>
</a>
</g>
</g>
<!-- Node10&#45;&gt;Node12 -->
<g id="edge17_Node000010_Node000012" class="edge">
<title>Node10&#45;&gt;Node12</title>
<g id="a_edge17_Node000010_Node000012"><a xlink:title=" ">
<path fill="none" stroke="#63b8ff" d="M384.68,-469C376.64,-469 368.59,-469 360.74,-469"/>
<polygon fill="#63b8ff" stroke="#63b8ff" points="384.51,-472.5 394.51,-469 384.51,-465.5 384.51,-472.5"/>
</a>
</g>
</g>
<!-- Node11&#45;&gt;Node3 -->
<g id="edge15_Node000011_Node000003" class="edge">
<title>Node11&#45;&gt;Node3</title>
<g id="a_edge15_Node000011_Node000003"><a xlink:title=" ">
<path fill="none" stroke="#63b8ff" d="M343.4,-633.82C421.84,-658.09 564.41,-696 689.5,-696 1089.12,-696 1089.12,-696 1089.12,-696 1195.57,-696 1318.04,-682.29 1394.77,-672.03"/>
<polygon fill="#63b8ff" stroke="#63b8ff" points="344.79,-630.59 334.21,-630.95 342.7,-637.27 344.79,-630.59"/>
</a>
</g>
</g>
<!-- Node11&#45;&gt;Node9 -->
<g id="edge16_Node000011_Node000009" class="edge">
<title>Node11&#45;&gt;Node9</title>
<g id="a_edge16_Node000011_Node000009"><a xlink:title=" ">
<path fill="none" stroke="#63b8ff" d="M194.11,-623.83C185.83,-624.75 177.45,-625.69 169.2,-626.62"/>
<polygon fill="#63b8ff" stroke="#63b8ff" points="194.26,-627.33 203.81,-622.74 193.48,-620.37 194.26,-627.33"/>
</a>
</g>
</g>
<!-- Node13 -->
<g id="Node000013" class="node">
<title>Node13</title>
<g id="a_Node000013"><a xlink:href="class_main_window.html#af02df1238ccf49caa1c4099c88dfe465" target="_top" xlink:title=" ">
<polygon fill="white" stroke="#666666" points="164.12,-367 4.88,-367 4.88,-335 164.12,-335 164.12,-367"/>
<text xml:space="preserve" text-anchor="start" x="12.88" y="-353.5" font-family="Helvetica,sans-Serif" font-size="10.00">MainWindow::populateProperties</text>
<text xml:space="preserve" text-anchor="middle" x="84.5" y="-341.5" font-family="Helvetica,sans-Serif" font-size="10.00">ForConnection</text>
</a>
</g>
</g>
<!-- Node12&#45;&gt;Node13 -->
<g id="edge18_Node000012_Node000013" class="edge">
<title>Node12&#45;&gt;Node13</title>
<g id="a_edge18_Node000012_Node000013"><a xlink:title=" ">
<path fill="none" stroke="#63b8ff" d="M244.7,-446.72C206.32,-423.64 147.23,-388.12 112.87,-367.46"/>
<polygon fill="#63b8ff" stroke="#63b8ff" points="242.79,-449.66 253.17,-451.81 246.4,-443.66 242.79,-449.66"/>
</a>
</g>
</g>
<!-- Node13&#45;&gt;Node5 -->
<g id="edge19_Node000013_Node000005" class="edge">
<title>Node13&#45;&gt;Node5</title>
<g id="a_edge19_Node000013_Node000005"><a xlink:title=" ">
<path fill="none" stroke="#63b8ff" d="M98,-324.43C121.53,-275.57 172.91,-174.51 205,-153 309.13,-83.21 358.4,-110 483.75,-110 691.5,-110 691.5,-110 691.5,-110 818.34,-110 855.14,-91.3 976.25,-129 1010.47,-139.65 1045.23,-162.77 1066.48,-178.61"/>
<polygon fill="#63b8ff" stroke="#63b8ff" points="94.97,-322.66 93.82,-333.19 101.29,-325.68 94.97,-322.66"/>
</a>
</g>
</g>
<!-- Node15 -->
<g id="Node000015" class="node">
<title>Node15</title>
<g id="a_Node000015"><a xlink:href="class_main_window.html#ae3b6600dd59da1822ef94bbd5f37f0cc" target="_top" xlink:title=" ">
<polygon fill="white" stroke="#666666" points="555,-564 414.5,-564 414.5,-532 555,-532 555,-564"/>
<text xml:space="preserve" text-anchor="start" x="422.5" y="-550.5" font-family="Helvetica,sans-Serif" font-size="10.00">MainWindow::createLineEdit</text>
<text xml:space="preserve" text-anchor="middle" x="484.75" y="-538.5" font-family="Helvetica,sans-Serif" font-size="10.00">PropertyItem</text>
</a>
</g>
</g>
<!-- Node14&#45;&gt;Node15 -->
<g id="edge21_Node000014_Node000015" class="edge">
<title>Node14&#45;&gt;Node15</title>
<g id="a_edge21_Node000014_Node000015"><a xlink:title=" ">
<path fill="none" stroke="#63b8ff" d="M615.38,-569.63C595.81,-566.37 574.76,-562.85 555.44,-559.63"/>
<polygon fill="#63b8ff" stroke="#63b8ff" points="614.77,-573.08 625.21,-571.27 615.93,-566.17 614.77,-573.08"/>
</a>
</g>
</g>
<!-- Node15&#45;&gt;Node9 -->
<g id="edge22_Node000015_Node000009" class="edge">
<title>Node15&#45;&gt;Node9</title>
<g id="a_edge22_Node000015_Node000009"><a xlink:title=" ">
<path fill="none" stroke="#63b8ff" d="M402.89,-530.11C345.92,-521.13 268.74,-516.39 205,-539 159.67,-555.08 119.01,-596.5 98.86,-619.68"/>
<polygon fill="#63b8ff" stroke="#63b8ff" points="402.07,-533.52 412.51,-531.71 403.22,-526.62 402.07,-533.52"/>
</a>
</g>
</g>
<!-- Node16&#45;&gt;Node5 -->
<g id="edge26_Node000016_Node000005" class="edge">
<title>Node16&#45;&gt;Node5</title>
<g id="a_edge26_Node000016_Node000005"><a xlink:title=" ">
<path fill="none" stroke="#63b8ff" d="M571.13,-199.88C688.98,-202.45 899.63,-202.37 1011.87,-199.65"/>
<polygon fill="#63b8ff" stroke="#63b8ff" points="571.26,-196.39 561.18,-199.65 571.1,-203.38 571.26,-196.39"/>
</a>
</g>
</g>
<!-- Node17 -->
<g id="Node000017" class="node">
<title>Node17</title>
<g id="a_Node000017"><a xlink:href="class_main_window.html#adfa32feecffce3959c99d145fc8b4854" target="_top" xlink:title=" ">
<polygon fill="white" stroke="#666666" points="355.25,-182 210.25,-182 210.25,-162 355.25,-162 355.25,-182"/>
<text xml:space="preserve" text-anchor="middle" x="282.75" y="-168.5" font-family="Helvetica,sans-Serif" font-size="10.00">MainWindow::connectSignals</text>
</a>
</g>
</g>
<!-- Node16&#45;&gt;Node17 -->
<g id="edge24_Node000016_Node000017" class="edge">
<title>Node16&#45;&gt;Node17</title>
<g id="a_edge24_Node000016_Node000017"><a xlink:title=" ">
<path fill="none" stroke="#63b8ff" d="M398.24,-185.17C384,-183.53 369.35,-181.84 355.49,-180.25"/>
<polygon fill="#63b8ff" stroke="#63b8ff" points="397.72,-188.63 408.06,-186.3 398.52,-181.68 397.72,-188.63"/>
</a>
</g>
</g>
<!-- Node18 -->
<g id="Node000018" class="node">
<title>Node18</title>
<g id="a_Node000018"><a xlink:href="class_main_window.html#a996c5a2b6f77944776856f08ec30858d" target="_top" xlink:title=" ">
<polygon fill="white" stroke="#666666" points="151.75,-182 17.25,-182 17.25,-162 151.75,-162 151.75,-182"/>
<text xml:space="preserve" text-anchor="middle" x="84.5" y="-168.5" font-family="Helvetica,sans-Serif" font-size="10.00">MainWindow::MainWindow</text>
</a>
</g>
</g>
<!-- Node17&#45;&gt;Node18 -->
<g id="edge25_Node000017_Node000018" class="edge">
<title>Node17&#45;&gt;Node18</title>
<g id="a_edge25_Node000017_Node000018"><a xlink:title=" ">
<path fill="none" stroke="#63b8ff" d="M198.63,-172C183.15,-172 167.15,-172 152.24,-172"/>
<polygon fill="#63b8ff" stroke="#63b8ff" points="198.27,-175.5 208.27,-172 198.27,-168.5 198.27,-175.5"/>
</a>
</g>
</g>
<!-- Node19&#45;&gt;Node1 -->
<g id="edge28_Node000019_Node000001" class="edge">
<title>Node19&#45;&gt;Node1</title>
<g id="a_edge28_Node000019_Node000001"><a xlink:title=" ">
<path fill="none" stroke="#63b8ff" d="M984.74,-25.29C1062.78,-32.4 1177.94,-41 1278.62,-41 1472.12,-41 1472.12,-41 1472.12,-41 1606.33,-41 1664.79,-54.73 1750.5,-158 1810.6,-230.41 1843.64,-538.81 1850.86,-613.61"/>
<polygon fill="#63b8ff" stroke="#63b8ff" points="985.29,-21.83 975.01,-24.39 984.65,-28.8 985.29,-21.83"/>
</a>
</g>
</g>
<!-- Node20&#45;&gt;Node17 -->
<g id="edge30_Node000020_Node000017" class="edge">
<title>Node20&#45;&gt;Node17</title>
<g id="a_edge30_Node000020_Node000017"><a xlink:title=" ">
<path fill="none" stroke="#63b8ff" d="M796.46,-151.74C674.47,-156.56 465.07,-164.84 355.44,-169.17"/>
<polygon fill="#63b8ff" stroke="#63b8ff" points="796.26,-155.25 806.12,-151.36 795.99,-148.26 796.26,-155.25"/>
</a>
</g>
</g>
<!-- Node21&#45;&gt;Node7 -->
<g id="edge40_Node000021_Node000007" class="edge">
<title>Node21&#45;&gt;Node7</title>
<g id="a_edge40_Node000021_Node000007"><a xlink:title=" ">
<path fill="none" stroke="#63b8ff" d="M813.86,-385.81C744.75,-382.06 643.59,-376.57 571.89,-372.68"/>
<polygon fill="#63b8ff" stroke="#63b8ff" points="813.41,-389.29 823.58,-386.33 813.79,-382.3 813.41,-389.29"/>
</a>
</g>
</g>
<!-- Node21&#45;&gt;Node10 -->
<g id="edge41_Node000021_Node000010" class="edge">
<title>Node21&#45;&gt;Node10</title>
<g id="a_edge41_Node000021_Node000010"><a xlink:title=" ">
<path fill="none" stroke="#63b8ff" d="M870.24,-414.83C848.51,-438.55 812.11,-472.74 772,-487 684.97,-517.95 573.77,-494.6 519.12,-479.39"/>
<polygon fill="#63b8ff" stroke="#63b8ff" points="872.78,-417.24 876.81,-407.45 867.55,-412.59 872.78,-417.24"/>
</a>
</g>
</g>
<!-- Node21&#45;&gt;Node14 -->
<g id="edge42_Node000021_Node000014" class="edge">
<title>Node21&#45;&gt;Node14</title>
<g id="a_edge42_Node000021_Node000014"><a xlink:title=" ">
<path fill="none" stroke="#63b8ff" d="M870.53,-414.94C847.67,-442.02 809.08,-485.96 772,-520 750.56,-539.68 723.31,-559.75 706.66,-571.53"/>
<polygon fill="#63b8ff" stroke="#63b8ff" points="872.94,-417.51 876.68,-407.6 867.58,-413.02 872.94,-417.51"/>
</a>
</g>
</g>
<!-- Node21&#45;&gt;Node16 -->
<g id="edge43_Node000021_Node000016" class="edge">
<title>Node21&#45;&gt;Node16</title>
<g id="a_edge43_Node000021_Node000016"><a xlink:title=" ">
<path fill="none" stroke="#63b8ff" d="M864.83,-366.13C841.71,-346.11 806.47,-317.85 772,-299 698.7,-258.92 606.84,-228.7 547.25,-211.43"/>
<polygon fill="#63b8ff" stroke="#63b8ff" points="862.4,-368.66 872.22,-372.63 867.02,-363.4 862.4,-368.66"/>
</a>
</g>
</g>
<!-- Node22 -->
<g id="Node000022" class="node">
<title>Node22</title>
<g id="a_Node000022"><a xlink:href="class_main_window.html#a9ed390421f6755b891cfc651d173db7b" target="_top" xlink:title=" ">
<polygon fill="white" stroke="#666666" points="762.25,-428 618.75,-428 618.75,-396 762.25,-396 762.25,-428"/>
<text xml:space="preserve" text-anchor="start" x="626.75" y="-414.5" font-family="Helvetica,sans-Serif" font-size="10.00">MainWindow::handleAttribute</text>
<text xml:space="preserve" text-anchor="middle" x="690.5" y="-402.5" font-family="Helvetica,sans-Serif" font-size="10.00">PropertyChange</text>
</a>
</g>
</g>
<!-- Node21&#45;&gt;Node22 -->
<g id="edge32_Node000021_Node000022" class="edge">
<title>Node21&#45;&gt;Node22</title>
<g id="a_edge32_Node000021_Node000022"><a xlink:title=" ">
<path fill="none" stroke="#63b8ff" d="M813.5,-398.55C796.76,-400.4 779.14,-402.34 762.66,-404.16"/>
<polygon fill="#63b8ff" stroke="#63b8ff" points="813.87,-402.04 823.43,-397.46 813.1,-395.08 813.87,-402.04"/>
</a>
</g>
</g>
<!-- Node23 -->
<g id="Node000023" class="node">
<title>Node23</title>
<g id="a_Node000023"><a xlink:href="class_main_window.html#aa69c4b7c558b2fb3922adf75af48330a" target="_top" xlink:title=" ">
<polygon fill="white" stroke="#666666" points="770.88,-478 610.12,-478 610.12,-446 770.88,-446 770.88,-478"/>
<text xml:space="preserve" text-anchor="start" x="618.12" y="-464.5" font-family="Helvetica,sans-Serif" font-size="10.00">MainWindow::handleRelationship</text>
<text xml:space="preserve" text-anchor="middle" x="690.5" y="-452.5" font-family="Helvetica,sans-Serif" font-size="10.00">EndCardinalityChange</text>
</a>
</g>
</g>
<!-- Node21&#45;&gt;Node23 -->
<g id="edge36_Node000021_Node000023" class="edge">
<title>Node21&#45;&gt;Node23</title>
<g id="a_edge36_Node000021_Node000023"><a xlink:title=" ">
<path fill="none" stroke="#63b8ff" d="M841.3,-410.62C820.08,-419.15 794.96,-428.92 772,-437 763.72,-439.92 754.9,-442.84 746.24,-445.6"/>
<polygon fill="#63b8ff" stroke="#63b8ff" points="842.33,-413.98 850.29,-406.98 839.71,-407.49 842.33,-413.98"/>
</a>
</g>
</g>
<!-- Node24 -->
<g id="Node000024" class="node">
<title>Node24</title>
<g id="a_Node000024"><a xlink:href="class_main_window.html#a96d575a529f7c24b1b5094b4b1e42742" target="_top" xlink:title=" ">
<polygon fill="white" stroke="#666666" points="770.88,-340 610.12,-340 610.12,-308 770.88,-308 770.88,-340"/>
<text xml:space="preserve" text-anchor="start" x="618.12" y="-326.5" font-family="Helvetica,sans-Serif" font-size="10.00">MainWindow::handleRelationship</text>
<text xml:space="preserve" text-anchor="middle" x="690.5" y="-314.5" font-family="Helvetica,sans-Serif" font-size="10.00">EndParticipationChange</text>
</a>
</g>
</g>
<!-- Node21&#45;&gt;Node24 -->
<g id="edge38_Node000021_Node000024" class="edge">
<title>Node21&#45;&gt;Node24</title>
<g id="a_edge38_Node000021_Node000024"><a xlink:title=" ">
<path fill="none" stroke="#63b8ff" d="M830.57,-369.98C801.93,-360.51 768.16,-349.34 741.07,-340.39"/>
<polygon fill="#63b8ff" stroke="#63b8ff" points="829.24,-373.22 839.83,-373.04 831.43,-366.58 829.24,-373.22"/>
</a>
</g>
</g>
<!-- Node22&#45;&gt;Node7 -->
<g id="edge33_Node000022_Node000007" class="edge">
<title>Node22&#45;&gt;Node7</title>
<g id="a_edge33_Node000022_Node000007"><a xlink:title=" ">
<path fill="none" stroke="#63b8ff" d="M607.58,-394.31C582.64,-388.92 556.04,-383.18 534.08,-378.44"/>
<polygon fill="#63b8ff" stroke="#63b8ff" points="606.53,-397.66 617.04,-396.35 608.01,-390.82 606.53,-397.66"/>
</a>
</g>
</g>
<!-- Node22&#45;&gt;Node10 -->
<g id="edge34_Node000022_Node000010" class="edge">
<title>Node22&#45;&gt;Node10</title>
<g id="a_edge34_Node000022_Node000010"><a xlink:title=" ">
<path fill="none" stroke="#63b8ff" d="M619.77,-431.51C587.33,-440.58 550.05,-451.01 523.06,-458.56"/>
<polygon fill="#63b8ff" stroke="#63b8ff" points="620.42,-434.96 629.11,-428.89 618.54,-428.22 620.42,-434.96"/>
</a>
</g>
</g>
<!-- Node22&#45;&gt;Node16 -->
<g id="edge35_Node000022_Node000016" class="edge">
<title>Node22&#45;&gt;Node16</title>
<g id="a_edge35_Node000022_Node000016"><a xlink:title=" ">
<path fill="none" stroke="#63b8ff" d="M656.71,-389.05C641.52,-377.75 623.63,-363.47 609,-349 562.74,-303.24 517.26,-240.58 496.88,-211.31"/>
<polygon fill="#63b8ff" stroke="#63b8ff" points="654.41,-391.71 664.55,-394.79 658.55,-386.06 654.41,-391.71"/>
</a>
</g>
</g>
<!-- Node23&#45;&gt;Node10 -->
<g id="edge37_Node000023_Node000010" class="edge">
<title>Node23&#45;&gt;Node10</title>
<g id="a_edge37_Node000023_Node000010"><a xlink:title=" ">
<path fill="none" stroke="#63b8ff" d="M598.55,-465.12C590.2,-465.41 581.76,-465.7 573.44,-465.99"/>
<polygon fill="#63b8ff" stroke="#63b8ff" points="598.46,-468.63 608.34,-464.79 598.22,-461.63 598.46,-468.63"/>
</a>
</g>
</g>
<!-- Node24&#45;&gt;Node7 -->
<g id="edge39_Node000024_Node000007" class="edge">
<title>Node24&#45;&gt;Node7</title>
<g id="a_edge39_Node000024_Node000007"><a xlink:title=" ">
<path fill="none" stroke="#63b8ff" d="M602.37,-342.81C579.08,-347.84 554.74,-353.1 534.36,-357.5"/>
<polygon fill="#63b8ff" stroke="#63b8ff" points="602.83,-346.3 611.86,-340.77 601.35,-339.46 602.83,-346.3"/>
</a>
</g>
</g>
<!-- Node25&#45;&gt;Node4 -->
<g id="edge45_Node000025_Node000004" class="edge">
<title>Node25&#45;&gt;Node4</title>
<g id="a_edge45_Node000025_Node000004"><a xlink:title=" ">
<path fill="none" stroke="#63b8ff" d="M1389.26,-611.85C1379.47,-611.96 1369.48,-612.06 1359.72,-612.17"/>
<polygon fill="#63b8ff" stroke="#63b8ff" points="1389.16,-615.35 1399.12,-611.75 1389.09,-608.36 1389.16,-615.35"/>
</a>
</g>
</g>
</g>
</svg>
