<?xml version="1.0" encoding="UTF-8" standalone="no"?>
<!DOCTYPE svg PUBLIC "-//W3C//DTD SVG 1.1//EN"
 "http://www.w3.org/Graphics/SVG/1.1/DTD/svg11.dtd">
<!-- Generated by graphviz version 14.1.1 (20251213.1925)
 -->
<!-- Title: PropertyCommand::setElementProperty Pages: 1 -->
<!--zoomable 444 -->

<svg id="main" version="1.1" xmlns="http://www.w3.org/2000/svg" xmlns:xlink="http://www.w3.org/1999/xlink" xml:space="preserve" onload="init(evt)">

<style type="text/css"><![CDATA[
.node, .edge {opacity: 0.7;}
.node.selected, .edge.selected {opacity: 1;}
.edge:hover path { stroke: red; }
.edge:hover polygon { stroke: red; fill: red; }
]]></style>

<defs>
  <circle id="rim" cx="0" cy="0" r="7"/>
  <circle id="rim2" cx="0" cy="0" r="3.5"/>
  <g id="zoomPlus">
    <use xlink:href="#rim" fill="#404040"><set attributeName="fill" to="#808080" begin="zoomplus.mouseover" end="zoomplus.mouseout"/></use>
    <path d="M-4,0h8M0,-4v8" fill="none" stroke="white" stroke-width="1.5" pointer-events="none"/>
  </g>
  <g id="zoomMin">
    <use xlink:href="#rim" fill="#404040"><set attributeName="fill" to="#808080" begin="zoomminus.mouseover" end="zoomminus.mouseout"/></use>
    <path d="M-4,0h8" fill="none" stroke="white" stroke-width="1.5" pointer-events="none"/>
  </g>
  <g id="arrowUp" transform="translate(30 24)">
    <use xlink:href="#rim"/>
    <path pointer-events="none" fill="none" stroke="white" stroke-width="1.5" d="M0,-3.0v7 M-2.5,-0.5L0,-3.0L2.5,-0.5"/>
  </g>
  <g id="arrowRight" transform="rotate(90) translate(36 -43)">
    <use xlink:href="#rim"/>
    <path pointer-events="none" fill="none" stroke="white" stroke-width="1.5" d="M0,-3.0v7 M-2.5,-0.5L0,-3.0L2.5,-0.5"/>
  </g>
  <g id="arrowDown" transform="rotate(180) translate(-30 -48)">
    <use xlink:href="#rim"/>
    <path pointer-events="none" fill="none" stroke="white" stroke-width="1.5" d="M0,-3.0v7 M-2.5,-0.5L0,-3.0L2.5,-0.5"/>
  </g>
  <g id="arrowLeft" transform="rotate(270) translate(-36 17)">
    <use xlink:href="#rim"/>
    <path pointer-events="none" fill="none" stroke="white" stroke-width="1.5" d="M0,-3.0v7 M-2.5,-0.5L0,-3.0L2.5,-0.5"/>
  </g>
  <g id="resetDef">
    <use xlink:href="#rim2" fill="#404040"><set attributeName="fill" to="#808080" begin="reset.mouseover" end="reset.mouseout"/></use>
  </g>
</defs>
<script type="application/ecmascript">
var viewWidth = 680;
var viewHeight = 444;
var sectionId = 'dynsection-1';
</script>
<script type="application/ecmascript" xlink:href="svg.min.js"/>
<svg id="graph" class="graph">
<g id="viewport">
<title>PropertyCommand::setElementProperty</title>
<!-- Node1 -->
<g id="Node000001" class="node">
<title>Node1</title>
<g id="a_Node000001"><a xlink:title=" ">
<polygon fill="#999999" stroke="#666666" points="153.25,-238 0,-238 0,-206 153.25,-206 153.25,-238"/>
<text xml:space="preserve" text-anchor="start" x="8" y="-224.5" font-family="Helvetica,sans-Serif" font-size="10.00">PropertyCommand::setElement</text>
<text xml:space="preserve" text-anchor="middle" x="76.62" y="-212.5" font-family="Helvetica,sans-Serif" font-size="10.00">Property</text>
</a>
</g>
</g>
<!-- Node2 -->
<g id="Node000002" class="node">
<title>Node2</title>
<g id="a_Node000002"><a xlink:href="class_attribute_type.html#a0c008ef0bb87b45ae0062601e13f3bcd" target="_top" xlink:title=" ">
<polygon fill="white" stroke="#666666" points="315.5,-367 200.5,-367 200.5,-335 315.5,-335 315.5,-367"/>
<text xml:space="preserve" text-anchor="start" x="208.5" y="-353.5" font-family="Helvetica,sans-Serif" font-size="10.00">AttributeType::attribute</text>
<text xml:space="preserve" text-anchor="middle" x="258" y="-341.5" font-family="Helvetica,sans-Serif" font-size="10.00">TypeFromString</text>
</a>
</g>
</g>
<!-- Node1&#45;&gt;Node2 -->
<g id="edge1_Node000001_Node000002" class="edge">
<title>Node1&#45;&gt;Node2</title>
<g id="a_edge1_Node000001_Node000002"><a xlink:title=" ">
<path fill="none" stroke="#63b8ff" d="M91.22,-238.2C110.82,-260.66 149.1,-301.29 189.25,-326 191.25,-327.23 193.32,-328.42 195.45,-329.56"/>
<polygon fill="#63b8ff" stroke="#63b8ff" points="193.77,-332.64 204.29,-333.89 196.85,-326.35 193.77,-332.64"/>
</a>
</g>
</g>
<!-- Node3 -->
<g id="Node000003" class="node">
<title>Node3</title>
<g id="a_Node000003"><a xlink:href="class_basic_element.html#a42ea6812e7627bb99af54cab547aa803" target="_top" xlink:title=" ">
<polygon fill="white" stroke="#666666" points="319.25,-232 196.75,-232 196.75,-212 319.25,-212 319.25,-232"/>
<text xml:space="preserve" text-anchor="middle" x="258" y="-218.5" font-family="Helvetica,sans-Serif" font-size="10.00">BasicElement::setName</text>
</a>
</g>
</g>
<!-- Node1&#45;&gt;Node3 -->
<g id="edge2_Node000001_Node000003" class="edge">
<title>Node1&#45;&gt;Node3</title>
<g id="a_edge2_Node000001_Node000003"><a xlink:title=" ">
<path fill="none" stroke="#63b8ff" d="M153.7,-222C164.03,-222 174.62,-222 184.88,-222"/>
<polygon fill="#63b8ff" stroke="#63b8ff" points="184.79,-225.5 194.79,-222 184.79,-218.5 184.79,-225.5"/>
</a>
</g>
</g>
<!-- Node8 -->
<g id="Node000008" class="node">
<title>Node8</title>
<g id="a_Node000008"><a xlink:href="class_basic_element.html#ab14524060d1b8fbbba753207029c6d7d" target="_top" xlink:title=" ">
<polygon fill="white" stroke="#666666" points="323.75,-317 192.25,-317 192.25,-297 323.75,-297 323.75,-317"/>
<text xml:space="preserve" text-anchor="middle" x="258" y="-303.5" font-family="Helvetica,sans-Serif" font-size="10.00">BasicElement::setPosition</text>
</a>
</g>
</g>
<!-- Node1&#45;&gt;Node8 -->
<g id="edge7_Node000001_Node000008" class="edge">
<title>Node1&#45;&gt;Node8</title>
<g id="a_edge7_Node000001_Node000008"><a xlink:title=" ">
<path fill="none" stroke="#63b8ff" d="M112.21,-238.39C144.77,-253.82 193.15,-276.75 224.88,-291.78"/>
<polygon fill="#63b8ff" stroke="#63b8ff" points="223.06,-294.79 233.59,-295.91 226.05,-288.46 223.06,-294.79"/>
</a>
</g>
</g>
<!-- Node12 -->
<g id="Node000012" class="node">
<title>Node12</title>
<g id="a_Node000012"><a xlink:href="class_basic_element.html#ab86c964c6ef9e8d7299efc263a0837e7" target="_top" xlink:title=" ">
<polygon fill="white" stroke="#666666" points="315.88,-175 200.12,-175 200.12,-155 315.88,-155 315.88,-175"/>
<text xml:space="preserve" text-anchor="middle" x="258" y="-161.5" font-family="Helvetica,sans-Serif" font-size="10.00">BasicElement::setSize</text>
</a>
</g>
</g>
<!-- Node1&#45;&gt;Node12 -->
<g id="edge12_Node000001_Node000012" class="edge">
<title>Node1&#45;&gt;Node12</title>
<g id="a_edge12_Node000001_Node000012"><a xlink:title=" ">
<path fill="none" stroke="#63b8ff" d="M129.51,-205.51C156.1,-197.06 188.11,-186.89 213.41,-178.85"/>
<polygon fill="#63b8ff" stroke="#63b8ff" points="214.24,-182.26 222.71,-175.89 212.12,-175.59 214.24,-182.26"/>
</a>
</g>
</g>
<!-- Node16 -->
<g id="Node000016" class="node">
<title>Node16</title>
<g id="a_Node000016"><a xlink:href="class_property_command.html#a3a5e5669d6147733338c64d3d62a7b7f" target="_top" xlink:title=" ">
<polygon fill="white" stroke="#666666" points="326.75,-80 189.25,-80 189.25,-48 326.75,-48 326.75,-80"/>
<text xml:space="preserve" text-anchor="start" x="197.25" y="-66.5" font-family="Helvetica,sans-Serif" font-size="10.00">PropertyCommand::validate</text>
<text xml:space="preserve" text-anchor="middle" x="258" y="-54.5" font-family="Helvetica,sans-Serif" font-size="10.00">Property</text>
</a>
</g>
</g>
<!-- Node1&#45;&gt;Node16 -->
<g id="edge18_Node000001_Node000016" class="edge">
<title>Node1&#45;&gt;Node16</title>
<g id="a_edge18_Node000001_Node000016"><a xlink:title=" ">
<path fill="none" stroke="#63b8ff" d="M96.15,-205.69C127.97,-177.66 193.15,-120.24 230.02,-87.76"/>
<polygon fill="#63b8ff" stroke="#63b8ff" points="231.98,-90.7 237.18,-81.46 227.36,-85.45 231.98,-90.7"/>
</a>
</g>
</g>
<!-- Node4 -->
<g id="Node000004" class="node">
<title>Node4</title>
<g id="a_Node000004"><a xlink:href="class_basic_element.html#ad1b7a593fb82e872041b342abd157088" target="_top" xlink:title=" ">
<polygon fill="white" stroke="#666666" points="520.12,-298 363.88,-298 363.88,-278 520.12,-278 520.12,-298"/>
<text xml:space="preserve" text-anchor="middle" x="442" y="-284.5" font-family="Helvetica,sans-Serif" font-size="10.00">BasicElement::elementChanged</text>
</a>
</g>
</g>
<!-- Node3&#45;&gt;Node4 -->
<g id="edge3_Node000003_Node000004" class="edge">
<title>Node3&#45;&gt;Node4</title>
<g id="a_edge3_Node000003_Node000004"><a xlink:title=" ">
<path fill="none" stroke="#63b8ff" d="M278.82,-232.33C299.37,-242.71 332.65,-258.63 362.75,-269 368.53,-270.99 374.62,-272.86 380.75,-274.58"/>
<polygon fill="#63b8ff" stroke="#63b8ff" points="379.73,-277.93 390.29,-277.14 381.54,-271.17 379.73,-277.93"/>
</a>
</g>
</g>
<!-- Node5 -->
<g id="Node000005" class="node">
<title>Node5</title>
<g id="a_Node000005"><a xlink:href="class_basic_element.html#a6f92f7b59a12584c3156fb10ff989de7" target="_top" xlink:title=" ">
<polygon fill="white" stroke="#666666" points="514.88,-260 369.12,-260 369.12,-240 514.88,-240 514.88,-260"/>
<text xml:space="preserve" text-anchor="middle" x="442" y="-246.5" font-family="Helvetica,sans-Serif" font-size="10.00">BasicElement::nameChanged</text>
</a>
</g>
</g>
<!-- Node3&#45;&gt;Node5 -->
<g id="edge4_Node000003_Node000005" class="edge">
<title>Node3&#45;&gt;Node5</title>
<g id="a_edge4_Node000003_Node000005"><a xlink:title=" ">
<path fill="none" stroke="#63b8ff" d="M319.6,-231.32C333.07,-233.39 347.53,-235.62 361.62,-237.79"/>
<polygon fill="#63b8ff" stroke="#63b8ff" points="360.9,-241.22 371.32,-239.28 361.96,-234.3 360.9,-241.22"/>
</a>
</g>
</g>
<!-- Node6 -->
<g id="Node000006" class="node">
<title>Node6</title>
<g id="a_Node000006"><a xlink:href="class_basic_element.html#a596caee40cdd00a0aacce49689b63f92" target="_top" xlink:title=" ">
<polygon fill="white" stroke="#666666" points="517.88,-184 366.12,-184 366.12,-164 517.88,-164 517.88,-184"/>
<text xml:space="preserve" text-anchor="middle" x="442" y="-170.5" font-family="Helvetica,sans-Serif" font-size="10.00">BasicElement::notifyObservers</text>
</a>
</g>
</g>
<!-- Node3&#45;&gt;Node6 -->
<g id="edge5_Node000003_Node000006" class="edge">
<title>Node3&#45;&gt;Node6</title>
<g id="a_edge5_Node000003_Node000006"><a xlink:title=" ">
<path fill="none" stroke="#63b8ff" d="M294.93,-211.63C314.86,-205.96 340.13,-198.91 362.75,-193 370.11,-191.08 377.88,-189.11 385.55,-187.21"/>
<polygon fill="#63b8ff" stroke="#63b8ff" points="386.31,-190.63 395.18,-184.85 384.64,-183.83 386.31,-190.63"/>
</a>
</g>
</g>
<!-- Node7 -->
<g id="Node000007" class="node">
<title>Node7</title>
<g id="a_Node000007"><a xlink:href="class_basic_element.html#abbbba80c62762cb0ff0866e4aa650b42" target="_top" xlink:title=" ">
<polygon fill="white" stroke="#666666" points="521.25,-222 362.75,-222 362.75,-202 521.25,-202 521.25,-222"/>
<text xml:space="preserve" text-anchor="middle" x="442" y="-208.5" font-family="Helvetica,sans-Serif" font-size="10.00">BasicElement::onNameChanged</text>
</a>
</g>
</g>
<!-- Node3&#45;&gt;Node7 -->
<g id="edge6_Node000003_Node000007" class="edge">
<title>Node3&#45;&gt;Node7</title>
<g id="a_edge6_Node000003_Node000007"><a xlink:title=" ">
<path fill="none" stroke="#63b8ff" d="M319.6,-218.67C329.81,-218.11 340.59,-217.52 351.35,-216.93"/>
<polygon fill="#63b8ff" stroke="#63b8ff" points="351.23,-220.44 361.02,-216.39 350.84,-213.45 351.23,-220.44"/>
</a>
</g>
</g>
<!-- Node8&#45;&gt;Node4 -->
<g id="edge8_Node000008_Node000004" class="edge">
<title>Node8&#45;&gt;Node4</title>
<g id="a_edge8_Node000008_Node000004"><a xlink:title=" ">
<path fill="none" stroke="#63b8ff" d="M324.19,-300.19C333.26,-299.25 342.69,-298.26 352.1,-297.28"/>
<polygon fill="#63b8ff" stroke="#63b8ff" points="352.44,-300.76 362.03,-296.24 351.72,-293.8 352.44,-300.76"/>
</a>
</g>
</g>
<!-- Node9 -->
<g id="Node000009" class="node">
<title>Node9</title>
<g id="a_Node000009"><a xlink:href="class_basic_element.html#a84f8dd62eabbe3dded6bacf42a783856" target="_top" xlink:title=" ">
<polygon fill="white" stroke="#666666" points="513,-436 371,-436 371,-404 513,-404 513,-436"/>
<text xml:space="preserve" text-anchor="start" x="379" y="-422.5" font-family="Helvetica,sans-Serif" font-size="10.00">BasicElement::notifyPosition</text>
<text xml:space="preserve" text-anchor="middle" x="442" y="-410.5" font-family="Helvetica,sans-Serif" font-size="10.00">Changed</text>
</a>
</g>
</g>
<!-- Node8&#45;&gt;Node9 -->
<g id="edge9_Node000008_Node000009" class="edge">
<title>Node8&#45;&gt;Node9</title>
<g id="a_edge9_Node000008_Node000009"><a xlink:title=" ">
<path fill="none" stroke="#63b8ff" d="M312.51,-317.39C317.62,-319.7 322.48,-322.54 326.75,-326 353.61,-347.79 336.28,-372.73 362.75,-395 363.85,-395.93 364.99,-396.83 366.16,-397.69"/>
<polygon fill="#63b8ff" stroke="#63b8ff" points="364.05,-400.49 374.38,-402.86 367.78,-394.57 364.05,-400.49"/>
</a>
</g>
</g>
<!-- Node10 -->
<g id="Node000010" class="node">
<title>Node10</title>
<g id="a_Node000010"><a xlink:href="class_basic_element.html#aa4779b31234dc7c90ceddd5a3069b2e7" target="_top" xlink:title=" ">
<polygon fill="white" stroke="#666666" points="506.25,-386 377.75,-386 377.75,-354 506.25,-354 506.25,-386"/>
<text xml:space="preserve" text-anchor="start" x="385.75" y="-372.5" font-family="Helvetica,sans-Serif" font-size="10.00">BasicElement::onPosition</text>
<text xml:space="preserve" text-anchor="middle" x="442" y="-360.5" font-family="Helvetica,sans-Serif" font-size="10.00">Changed</text>
</a>
</g>
</g>
<!-- Node8&#45;&gt;Node10 -->
<g id="edge10_Node000008_Node000010" class="edge">
<title>Node8&#45;&gt;Node10</title>
<g id="a_edge10_Node000008_Node000010"><a xlink:title=" ">
<path fill="none" stroke="#63b8ff" d="M301.74,-317.5C310.14,-319.98 318.81,-322.83 326.75,-326 343.55,-332.7 346.07,-338 362.75,-345 366.59,-346.61 370.58,-348.18 374.62,-349.7"/>
<polygon fill="#63b8ff" stroke="#63b8ff" points="373.39,-352.98 383.99,-353.07 375.76,-346.39 373.39,-352.98"/>
</a>
</g>
</g>
<!-- Node11 -->
<g id="Node000011" class="node">
<title>Node11</title>
<g id="a_Node000011"><a xlink:href="class_basic_element.html#a02183bafd7c80f9f1f99a9b9f1631524" target="_top" xlink:title=" ">
<polygon fill="white" stroke="#666666" points="519.75,-336 364.25,-336 364.25,-316 519.75,-316 519.75,-336"/>
<text xml:space="preserve" text-anchor="middle" x="442" y="-322.5" font-family="Helvetica,sans-Serif" font-size="10.00">BasicElement::positionChanged</text>
</a>
</g>
</g>
<!-- Node8&#45;&gt;Node11 -->
<g id="edge11_Node000008_Node000011" class="edge">
<title>Node8&#45;&gt;Node11</title>
<g id="a_edge11_Node000008_Node000011"><a xlink:title=" ">
<path fill="none" stroke="#63b8ff" d="M324.19,-313.81C333.43,-314.77 343.05,-315.77 352.64,-316.78"/>
<polygon fill="#63b8ff" stroke="#63b8ff" points="352.03,-320.23 362.34,-317.79 352.76,-313.27 352.03,-320.23"/>
</a>
</g>
</g>
<!-- Node12&#45;&gt;Node4 -->
<g id="edge13_Node000012_Node000004" class="edge">
<title>Node12&#45;&gt;Node4</title>
<g id="a_edge13_Node000012_Node000004"><a xlink:title=" ">
<path fill="none" stroke="#63b8ff" d="M285.09,-175.4C298.73,-181.82 315,-191.11 326.75,-203 350.24,-226.77 336.25,-248.65 362.75,-269 364.27,-270.17 365.86,-271.27 367.5,-272.3"/>
<polygon fill="#63b8ff" stroke="#63b8ff" points="365.54,-275.23 376.02,-276.81 368.82,-269.04 365.54,-275.23"/>
</a>
</g>
</g>
<!-- Node12&#45;&gt;Node6 -->
<g id="edge15_Node000012_Node000006" class="edge">
<title>Node12&#45;&gt;Node6</title>
<g id="a_edge15_Node000012_Node000006"><a xlink:title=" ">
<path fill="none" stroke="#63b8ff" d="M316.09,-167.82C328.26,-168.43 341.38,-169.07 354.38,-169.72"/>
<polygon fill="#63b8ff" stroke="#63b8ff" points="354.08,-173.21 364.24,-170.2 354.42,-166.21 354.08,-173.21"/>
</a>
</g>
</g>
<!-- Node13 -->
<g id="Node000013" class="node">
<title>Node13</title>
<g id="a_Node000013"><a xlink:href="class_basic_element.html#a2cb2eb803daa35380908948215f8d468" target="_top" xlink:title=" ">
<polygon fill="white" stroke="#666666" points="513,-146 371,-146 371,-126 513,-126 513,-146"/>
<text xml:space="preserve" text-anchor="middle" x="442" y="-132.5" font-family="Helvetica,sans-Serif" font-size="10.00">BasicElement::minimumSize</text>
</a>
</g>
</g>
<!-- Node12&#45;&gt;Node13 -->
<g id="edge14_Node000012_Node000013" class="edge">
<title>Node12&#45;&gt;Node13</title>
<g id="a_edge14_Node000012_Node000013"><a xlink:title=" ">
<path fill="none" stroke="#63b8ff" d="M316.09,-155.9C331.33,-153.47 348.06,-150.81 364.18,-148.24"/>
<polygon fill="#63b8ff" stroke="#63b8ff" points="364.4,-151.75 373.72,-146.72 363.3,-144.84 364.4,-151.75"/>
</a>
</g>
</g>
<!-- Node14 -->
<g id="Node000014" class="node">
<title>Node14</title>
<g id="a_Node000014"><a xlink:href="class_basic_element.html#aafd52d1fae2f0b7666ae15bcbb3782c2" target="_top" xlink:title=" ">
<polygon fill="white" stroke="#666666" points="517.88,-108 366.12,-108 366.12,-88 517.88,-88 517.88,-108"/>
<text xml:space="preserve" text-anchor="middle" x="442" y="-94.5" font-family="Helvetica,sans-Serif" font-size="10.00">BasicElement::onSizeChanged</text>
</a>
</g>
</g>
<!-- Node12&#45;&gt;Node14 -->
<g id="edge16_Node000012_Node000014" class="edge">
<title>Node12&#45;&gt;Node14</title>
<g id="a_edge16_Node000012_Node000014"><a xlink:title=" ">
<path fill="none" stroke="#63b8ff" d="M278.41,-154.62C298.91,-144 332.39,-127.59 362.75,-117 368.52,-114.98 374.61,-113.1 380.73,-111.37"/>
<polygon fill="#63b8ff" stroke="#63b8ff" points="381.53,-114.78 390.27,-108.8 379.71,-108.02 381.53,-114.78"/>
</a>
</g>
</g>
<!-- Node15 -->
<g id="Node000015" class="node">
<title>Node15</title>
<g id="a_Node000015"><a xlink:href="class_basic_element.html#a5af654d8bb5e16b44121f69c832037b8" target="_top" xlink:title=" ">
<polygon fill="white" stroke="#666666" points="511.88,-70 372.12,-70 372.12,-50 511.88,-50 511.88,-70"/>
<text xml:space="preserve" text-anchor="middle" x="442" y="-56.5" font-family="Helvetica,sans-Serif" font-size="10.00">BasicElement::sizeChanged</text>
</a>
</g>
</g>
<!-- Node12&#45;&gt;Node15 -->
<g id="edge17_Node000012_Node000015" class="edge">
<title>Node12&#45;&gt;Node15</title>
<g id="a_edge17_Node000012_Node000015"><a xlink:title=" ">
<path fill="none" stroke="#63b8ff" d="M268.21,-154.77C285.11,-136.65 323.02,-98.94 362.75,-79 366.23,-77.25 369.88,-75.66 373.62,-74.21"/>
<polygon fill="#63b8ff" stroke="#63b8ff" points="374.6,-77.58 382.9,-70.99 372.3,-70.96 374.6,-77.58"/>
</a>
</g>
</g>
<!-- Node17 -->
<g id="Node000017" class="node">
<title>Node17</title>
<g id="a_Node000017"><a xlink:href="class_attribute_type.html#a1a152dc88508e77a81ec11ebbad6e542" target="_top" xlink:title=" ">
<polygon fill="white" stroke="#666666" points="512.62,-32 371.38,-32 371.38,0 512.62,0 512.62,-32"/>
<text xml:space="preserve" text-anchor="start" x="379.38" y="-18.5" font-family="Helvetica,sans-Serif" font-size="10.00">AttributeType::getAllAttribute</text>
<text xml:space="preserve" text-anchor="middle" x="442" y="-6.5" font-family="Helvetica,sans-Serif" font-size="10.00">TypeStrings</text>
</a>
</g>
</g>
<!-- Node16&#45;&gt;Node17 -->
<g id="edge19_Node000016_Node000017" class="edge">
<title>Node16&#45;&gt;Node17</title>
<g id="a_edge19_Node000016_Node000017"><a xlink:title=" ">
<path fill="none" stroke="#63b8ff" d="M321.38,-47.55C336.28,-43.62 352.33,-39.39 367.68,-35.34"/>
<polygon fill="#63b8ff" stroke="#63b8ff" points="368.46,-38.75 377.24,-32.82 366.68,-31.98 368.46,-38.75"/>
</a>
</g>
</g>
<!-- Node18 -->
<g id="Node000018" class="node">
<title>Node18</title>
<g id="a_Node000018"><a xlink:href="class_attribute_type.html#a21a507a4aa83205205f315994c7dcb5c" target="_top" xlink:title=" ">
<polygon fill="white" stroke="#666666" points="672.25,-32 557.25,-32 557.25,0 672.25,0 672.25,-32"/>
<text xml:space="preserve" text-anchor="start" x="565.25" y="-18.5" font-family="Helvetica,sans-Serif" font-size="10.00">AttributeType::attribute</text>
<text xml:space="preserve" text-anchor="middle" x="614.75" y="-6.5" font-family="Helvetica,sans-Serif" font-size="10.00">TypeToString</text>
</a>
</g>
</g>
<!-- Node17&#45;&gt;Node18 -->
<g id="edge20_Node000017_Node000018" class="edge">
<title>Node17&#45;&gt;Node18</title>
<g id="a_edge20_Node000017_Node000018"><a xlink:title=" ">
<path fill="none" stroke="#63b8ff" d="M512.94,-16C523.7,-16 534.79,-16 545.51,-16"/>
<polygon fill="#63b8ff" stroke="#63b8ff" points="545.44,-19.5 555.44,-16 545.44,-12.5 545.44,-19.5"/>
</a>
</g>
</g>
</g>
</svg>

<g id="navigator" transform="translate(0 0)" fill="#404254">
  <rect fill="#f2f5e9" fill-opacity="0.5" stroke="#606060" stroke-width=".5" x="0" y="0" width="60" height="60"/>
  <use id="zoomplus" xlink:href="#zoomPlus" x="17" y="9" onmousedown="handleZoom(evt,'in')"/>
  <use id="zoomminus" xlink:href="#zoomMin" x="42" y="9" onmousedown="handleZoom(evt,'out')"/>
  <use id="reset" xlink:href="#resetDef" x="30" y="36" onmousedown="handleReset()"/>
   <use id="arrowup" xlink:href="#arrowUp" x="0" y="0" onmousedown="handlePan(0,-1)"/>
  <use id="arrowright" xlink:href="#arrowRight" x="0" y="0" onmousedown="handlePan(1,0)"/>
  <use id="arrowdown" xlink:href="#arrowDown" x="0" y="0" onmousedown="handlePan(0,1)"/>
  <use id="arrowleft" xlink:href="#arrowLeft" x="0" y="0" onmousedown="handlePan(-1,0)"/>
</g>
<svg viewBox="0 0 15 15" width="100%" height="30px" preserveAspectRatio="xMaxYMin meet">
 <g id="arrow_out" transform="scale(0.3 0.3)">
  <a xlink:href="class_property_command_ae105e0a173a3d4c69a9a6ba6582b644b_cgraph_org.svg" target="_base">
   <rect id="button" ry="5" rx="5" y="6" x="6" height="38" width="38"
        fill="#f2f5e9" fill-opacity="0.5" stroke="#606060" stroke-width="1.0"/>
   <path id="arrow"
     d="M 11.500037,31.436501 C 11.940474,20.09759 22.043105,11.32322 32.158766,21.979434 L 37.068811,17.246167 C 37.068811,17.246167 37.088388,32 37.088388,32 L 22.160133,31.978069 C 22.160133,31.978069 26.997745,27.140456 26.997745,27.140456 C 18.528582,18.264221 13.291696,25.230495 11.500037,31.436501 z"
     style="fill:#404040;"/>
  </a>
 </g>
</svg>

<style type='text/css'>
<![CDATA[
[data-mouse-over-selected='false'] { opacity: 0.7; }
[data-mouse-over-selected='true']  { opacity: 1.0; }
]]>
</style>
<script type="application/ecmascript"><![CDATA[
document.addEventListener('DOMContentLoaded', (event) => {
  highlightEdges();
  highlightAdjacentNodes();
});
]]></script>
</svg>
