<?xml version="1.0" encoding="UTF-8" standalone="no"?>
<!DOCTYPE svg PUBLIC "-//W3C//DTD SVG 1.1//EN"
 "http://www.w3.org/Graphics/SVG/1.1/DTD/svg11.dtd">
<!-- Generated by graphviz version 14.1.1 (20251213.1925)
 -->
<!-- Title: DiagramScene::findElement Pages: 1 -->
<!--zoomable 268 -->

<svg id="main" version="1.1" xmlns="http://www.w3.org/2000/svg" xmlns:xlink="http://www.w3.org/1999/xlink" xml:space="preserve" onload="init(evt)">

<style type="text/css"><![CDATA[
.node, .edge {opacity: 0.7;}
.node.selected, .edge.selected {opacity: 1;}
.edge:hover path { stroke: red; }
.edge:hover polygon { stroke: red; fill: red; }
]]></style>

<defs>
  <circle id="rim" cx="0" cy="0" r="7"/>
  <circle id="rim2" cx="0" cy="0" r="3.5"/>
  <g id="zoomPlus">
    <use xlink:href="#rim" fill="#404040"><set attributeName="fill" to="#808080" begin="zoomplus.mouseover" end="zoomplus.mouseout"/></use>
    <path d="M-4,0h8M0,-4v8" fill="none" stroke="white" stroke-width="1.5" pointer-events="none"/>
  </g>
  <g id="zoomMin">
    <use xlink:href="#rim" fill="#404040"><set attributeName="fill" to="#808080" begin="zoomminus.mouseover" end="zoomminus.mouseout"/></use>
    <path d="M-4,0h8" fill="none" stroke="white" stroke-width="1.5" pointer-events="none"/>
  </g>
  <g id="arrowUp" transform="translate(30 24)">
    <use xlink:href="#rim"/>
    <path pointer-events="none" fill="none" stroke="white" stroke-width="1.5" d="M0,-3.0v7 M-2.5,-0.5L0,-3.0L2.5,-0.5"/>
  </g>
  <g id="arrowRight" transform="rotate(90) translate(36 -43)">
    <use xlink:href="#rim"/>
    <path pointer-events="none" fill="none" stroke="white" stroke-width="1.5" d="M0,-3.0v7 M-2.5,-0.5L0,-3.0L2.5,-0.5"/>
  </g>
  <g id="arrowDown" transform="rotate(180) translate(-30 -48)">
    <use xlink:href="#rim"/>
    <path pointer-events="none" fill="none" stroke="white" stroke-width="1.5" d="M0,-3.0v7 M-2.5,-0.5L0,-3.0L2.5,-0.5"/>
  </g>
  <g id="arrowLeft" transform="rotate(270) translate(-36 17)">
    <use xlink:href="#rim"/>
    <path pointer-events="none" fill="none" stroke="white" stroke-width="1.5" d="M0,-3.0v7 M-2.5,-0.5L0,-3.0L2.5,-0.5"/>
  </g>
  <g id="resetDef">
    <use xlink:href="#rim2" fill="#404040"><set attributeName="fill" to="#808080" begin="reset.mouseover" end="reset.mouseout"/></use>
  </g>
</defs>
<script type="application/ecmascript">
var viewWidth = 1138;
var viewHeight = 268;
var sectionId = 'dynsection-33';
</script>
<script type="application/ecmascript" xlink:href="svg.min.js"/>
<svg id="graph" class="graph">
<g id="viewport">
<title>DiagramScene::findElement</title>
<!-- Node1 -->
<g id="Node000001" class="node">
<title>Node1</title>
<g id="a_Node000001"><a xlink:title=" ">
<polygon fill="#999999" stroke="#666666" points="1130.25,-58 992,-58 992,-38 1130.25,-38 1130.25,-58"/>
<text xml:space="preserve" text-anchor="middle" x="1061.12" y="-44.5" font-family="Helvetica,sans-Serif" font-size="10.00">DiagramScene::findElement</text>
</a>
</g>
</g>
<!-- Node2 -->
<g id="Node000002" class="node">
<title>Node2</title>
<g id="a_Node000002"><a xlink:href="class_diagram_scene.html#a45f18c15840085ffda39cfc9229a15ee" target="_top" xlink:title=" ">
<polygon fill="white" stroke="#666666" points="956,-96 795.25,-96 795.25,-76 956,-76 956,-96"/>
<text xml:space="preserve" text-anchor="middle" x="875.62" y="-82.5" font-family="Helvetica,sans-Serif" font-size="10.00">DiagramScene::findGraphicsItem</text>
</a>
</g>
</g>
<!-- Node1&#45;&gt;Node2 -->
<g id="edge1_Node000001_Node000002" class="edge">
<title>Node1&#45;&gt;Node2</title>
<g id="a_edge1_Node000001_Node000002"><a xlink:title=" ">
<path fill="none" stroke="#63b8ff" d="M998.38,-60.79C975.19,-65.59 949.13,-70.99 927.09,-75.55"/>
<polygon fill="#63b8ff" stroke="#63b8ff" points="998.93,-64.25 1008.01,-58.79 997.51,-57.39 998.93,-64.25"/>
</a>
</g>
</g>
<!-- Node12 -->
<g id="Node000012" class="node">
<title>Node12</title>
<g id="a_Node000012"><a xlink:href="class_diagram_scene.html#a52f85570092aa1c3df464382efad08fa" target="_top" xlink:title=" ">
<polygon fill="white" stroke="#666666" points="563.25,-58 414.5,-58 414.5,-38 563.25,-38 563.25,-58"/>
<text xml:space="preserve" text-anchor="middle" x="488.88" y="-44.5" font-family="Helvetica,sans-Serif" font-size="10.00">DiagramScene::selectElement</text>
</a>
</g>
</g>
<!-- Node1&#45;&gt;Node12 -->
<g id="edge16_Node000001_Node000012" class="edge">
<title>Node1&#45;&gt;Node12</title>
<g id="a_edge16_Node000001_Node000012"><a xlink:title=" ">
<path fill="none" stroke="#63b8ff" d="M980.2,-48C869.44,-48 670.81,-48 563.49,-48"/>
<polygon fill="#63b8ff" stroke="#63b8ff" points="980.11,-51.5 990.11,-48 980.11,-44.5 980.11,-51.5"/>
</a>
</g>
</g>
<!-- Node13 -->
<g id="Node000013" class="node">
<title>Node13</title>
<g id="a_Node000013"><a xlink:href="class_diagram_scene.html#affc06437d827ac64a996cd13690a49c6" target="_top" xlink:title=" ">
<polygon fill="white" stroke="#666666" points="953,-20 798.25,-20 798.25,0 953,0 953,-20"/>
<text xml:space="preserve" text-anchor="middle" x="875.62" y="-6.5" font-family="Helvetica,sans-Serif" font-size="10.00">DiagramScene::removeElement</text>
</a>
</g>
</g>
<!-- Node1&#45;&gt;Node13 -->
<g id="edge15_Node000001_Node000013" class="edge">
<title>Node1&#45;&gt;Node13</title>
<g id="a_edge15_Node000001_Node000013"><a xlink:title=" ">
<path fill="none" stroke="#63b8ff" d="M998.38,-35.21C975.19,-30.41 949.13,-25.01 927.09,-20.45"/>
<polygon fill="#63b8ff" stroke="#63b8ff" points="997.51,-38.61 1008.01,-37.21 998.93,-31.75 997.51,-38.61"/>
</a>
</g>
</g>
<!-- Node2&#45;&gt;Node2 -->
<g id="edge2_Node000002_Node000002" class="edge">
<title>Node2&#45;&gt;Node2</title>
<g id="a_edge2_Node000002_Node000002"><a xlink:title=" ">
<path fill="none" stroke="#63b8ff" d="M908.76,-107.11C904.81,-111.14 893.76,-114 875.62,-114 843.38,-114 833.56,-104.98 846.15,-96.34"/>
<polygon fill="#63b8ff" stroke="#63b8ff" points="912.12,-106.12 905.59,-97.77 905.49,-108.37 912.12,-106.12"/>
</a>
</g>
</g>
<!-- Node3 -->
<g id="Node000003" class="node">
<title>Node3</title>
<g id="a_Node000003"><a xlink:href="class_diagram_scene.html#adffd7c14eb320f4e260f6fed731c1809" target="_top" xlink:title=" ">
<polygon fill="white" stroke="#666666" points="759.25,-96 610.5,-96 610.5,-76 759.25,-76 759.25,-96"/>
<text xml:space="preserve" text-anchor="middle" x="684.88" y="-82.5" font-family="Helvetica,sans-Serif" font-size="10.00">DiagramScene::selectElement</text>
</a>
</g>
</g>
<!-- Node2&#45;&gt;Node3 -->
<g id="edge3_Node000002_Node000003" class="edge">
<title>Node2&#45;&gt;Node3</title>
<g id="a_edge3_Node000002_Node000003"><a xlink:title=" ">
<path fill="none" stroke="#63b8ff" d="M783.57,-86C775.55,-86 767.51,-86 759.66,-86"/>
<polygon fill="#63b8ff" stroke="#63b8ff" points="783.34,-89.5 793.34,-86 783.34,-82.5 783.34,-89.5"/>
</a>
</g>
</g>
<!-- Node4 -->
<g id="Node000004" class="node">
<title>Node4</title>
<g id="a_Node000004"><a xlink:href="class_diagram_scene.html#a9341fab75d7299e330baae13993bed28" target="_top" xlink:title=" ">
<polygon fill="white" stroke="#666666" points="562.88,-178 414.88,-178 414.88,-158 562.88,-158 562.88,-178"/>
<text xml:space="preserve" text-anchor="middle" x="488.88" y="-164.5" font-family="Helvetica,sans-Serif" font-size="10.00">DiagramScene::clearSelection</text>
</a>
</g>
</g>
<!-- Node3&#45;&gt;Node4 -->
<g id="edge4_Node000003_Node000004" class="edge">
<title>Node3&#45;&gt;Node4</title>
<g id="a_edge4_Node000003_Node000004"><a xlink:title=" ">
<path fill="none" stroke="#63b8ff" d="M653.35,-101.55C631.62,-112.37 601.59,-126.79 574.5,-138 557.36,-145.09 537.87,-152.07 521.92,-157.51"/>
<polygon fill="#63b8ff" stroke="#63b8ff" points="654.87,-104.7 662.24,-97.09 651.74,-98.45 654.87,-104.7"/>
</a>
</g>
</g>
<!-- Node9 -->
<g id="Node000009" class="node">
<title>Node9</title>
<g id="a_Node000009"><a xlink:href="class_diagram_scene.html#a61e7061e5add947d09ad87feaf2b8dc1" target="_top" xlink:title=" ">
<polygon fill="white" stroke="#666666" points="367.25,-134 193,-134 193,-114 367.25,-114 367.25,-134"/>
<text xml:space="preserve" text-anchor="middle" x="280.12" y="-120.5" font-family="Helvetica,sans-Serif" font-size="10.00">DiagramScene::pasteFromClipboard</text>
</a>
</g>
</g>
<!-- Node3&#45;&gt;Node9 -->
<g id="edge13_Node000003_Node000009" class="edge">
<title>Node3&#45;&gt;Node9</title>
<g id="a_edge13_Node000003_Node000009"><a xlink:title=" ">
<path fill="none" stroke="#63b8ff" d="M619.33,-98.4C604.64,-100.89 589.06,-103.27 574.5,-105 505.19,-113.24 426.22,-118.1 367.68,-120.84"/>
<polygon fill="#63b8ff" stroke="#63b8ff" points="619.62,-101.9 628.87,-96.74 618.42,-95 619.62,-101.9"/>
</a>
</g>
</g>
<!-- Node10 -->
<g id="Node000010" class="node">
<title>Node10</title>
<g id="a_Node000010"><a xlink:href="class_diagram_scene.html#ad46a8dc374895fd670f50f30f2c2acbd" target="_top" xlink:title=" ">
<polygon fill="white" stroke="#666666" points="574.5,-96 403.25,-96 403.25,-76 574.5,-76 574.5,-96"/>
<text xml:space="preserve" text-anchor="middle" x="488.88" y="-82.5" font-family="Helvetica,sans-Serif" font-size="10.00">DiagramScene::finishSelectionRect</text>
</a>
</g>
</g>
<!-- Node3&#45;&gt;Node10 -->
<g id="edge11_Node000003_Node000010" class="edge">
<title>Node3&#45;&gt;Node10</title>
<g id="a_edge11_Node000003_Node000010"><a xlink:title=" ">
<path fill="none" stroke="#63b8ff" d="M599.01,-86C590.98,-86 582.85,-86 574.82,-86"/>
<polygon fill="#63b8ff" stroke="#63b8ff" points="598.74,-89.5 608.74,-86 598.74,-82.5 598.74,-89.5"/>
</a>
</g>
</g>
<!-- Node3&#45;&gt;Node12 -->
<g id="edge14_Node000003_Node000012" class="edge">
<title>Node3&#45;&gt;Node12</title>
<g id="a_edge14_Node000003_Node000012"><a xlink:title=" ">
<path fill="none" stroke="#63b8ff" d="M619.26,-73.34C594.58,-68.51 566.74,-63.06 543.23,-58.45"/>
<polygon fill="#63b8ff" stroke="#63b8ff" points="618.38,-76.74 628.86,-75.22 619.72,-69.87 618.38,-76.74"/>
</a>
</g>
</g>
<!-- Node5 -->
<g id="Node000005" class="node">
<title>Node5</title>
<g id="a_Node000005"><a xlink:href="class_diagram_scene.html#a0c02f289dea7872eae24bb2c0f91d5ea" target="_top" xlink:title=" ">
<polygon fill="white" stroke="#666666" points="352.25,-260 208,-260 208,-240 352.25,-240 352.25,-260"/>
<text xml:space="preserve" text-anchor="middle" x="280.12" y="-246.5" font-family="Helvetica,sans-Serif" font-size="10.00">DiagramScene::clearDiagram</text>
</a>
</g>
</g>
<!-- Node4&#45;&gt;Node5 -->
<g id="edge5_Node000004_Node000005" class="edge">
<title>Node4&#45;&gt;Node5</title>
<g id="a_edge5_Node000004_Node000005"><a xlink:title=" ">
<path fill="none" stroke="#63b8ff" d="M459.23,-183.55C435.18,-196.17 399.64,-213.81 367.25,-226 353.59,-231.14 338.36,-235.74 324.54,-239.51"/>
<polygon fill="#63b8ff" stroke="#63b8ff" points="460.58,-186.79 467.77,-179.02 457.3,-180.61 460.58,-186.79"/>
</a>
</g>
</g>
<!-- Node7 -->
<g id="Node000007" class="node">
<title>Node7</title>
<g id="a_Node000007"><a xlink:href="class_diagram_scene.html#a074e1181353b257a18ea2d243b459a47" target="_top" xlink:title=" ">
<polygon fill="white" stroke="#666666" points="155.12,-178 1.88,-178 1.88,-158 155.12,-158 155.12,-178"/>
<text xml:space="preserve" text-anchor="middle" x="78.5" y="-164.5" font-family="Helvetica,sans-Serif" font-size="10.00">DiagramScene::keyPressEvent</text>
</a>
</g>
</g>
<!-- Node4&#45;&gt;Node7 -->
<g id="edge7_Node000004_Node000007" class="edge">
<title>Node4&#45;&gt;Node7</title>
<g id="a_edge7_Node000004_Node000007"><a xlink:title=" ">
<path fill="none" stroke="#63b8ff" d="M436.63,-181.03C415.32,-185.82 390.24,-190.64 367.25,-193 290.21,-200.9 269.99,-201.38 193,-193 167.43,-190.22 139.17,-184 117.25,-178.47"/>
<polygon fill="#63b8ff" stroke="#63b8ff" points="437.28,-184.47 446.24,-178.81 435.71,-177.65 437.28,-184.47"/>
</a>
</g>
</g>
<!-- Node8 -->
<g id="Node000008" class="node">
<title>Node8</title>
<g id="a_Node000008"><a xlink:href="class_diagram_scene.html#a6847af7972303267f22e84ae1011c255" target="_top" xlink:title=" ">
<polygon fill="white" stroke="#666666" points="350.75,-184 209.5,-184 209.5,-152 350.75,-152 350.75,-184"/>
<text xml:space="preserve" text-anchor="start" x="217.5" y="-170.5" font-family="Helvetica,sans-Serif" font-size="10.00">DiagramScene::mousePress</text>
<text xml:space="preserve" text-anchor="middle" x="280.12" y="-158.5" font-family="Helvetica,sans-Serif" font-size="10.00">Event</text>
</a>
</g>
</g>
<!-- Node4&#45;&gt;Node8 -->
<g id="edge8_Node000004_Node000008" class="edge">
<title>Node4&#45;&gt;Node8</title>
<g id="a_edge8_Node000004_Node000008"><a xlink:title=" ">
<path fill="none" stroke="#63b8ff" d="M403.18,-168C385.92,-168 367.93,-168 351.25,-168"/>
<polygon fill="#63b8ff" stroke="#63b8ff" points="402.89,-171.5 412.89,-168 402.89,-164.5 402.89,-171.5"/>
</a>
</g>
</g>
<!-- Node4&#45;&gt;Node9 -->
<g id="edge9_Node000004_Node000009" class="edge">
<title>Node4&#45;&gt;Node9</title>
<g id="a_edge9_Node000004_Node000009"><a xlink:title=" ">
<path fill="none" stroke="#63b8ff" d="M427.54,-155.16C396.65,-148.59 359.51,-140.68 330.36,-134.48"/>
<polygon fill="#63b8ff" stroke="#63b8ff" points="426.63,-158.54 437.14,-157.2 428.08,-151.7 426.63,-158.54"/>
</a>
</g>
</g>
<!-- Node6 -->
<g id="Node000006" class="node">
<title>Node6</title>
<g id="a_Node000006"><a xlink:href="class_diagram_scene.html#a189b7f9e32b70c751124cffce8d63c8c" target="_top" xlink:title=" ">
<polygon fill="white" stroke="#666666" points="157,-260 0,-260 0,-240 157,-240 157,-260"/>
<text xml:space="preserve" text-anchor="middle" x="78.5" y="-246.5" font-family="Helvetica,sans-Serif" font-size="10.00">DiagramScene::~DiagramScene</text>
</a>
</g>
</g>
<!-- Node5&#45;&gt;Node6 -->
<g id="edge6_Node000005_Node000006" class="edge">
<title>Node5&#45;&gt;Node6</title>
<g id="a_edge6_Node000005_Node000006"><a xlink:title=" ">
<path fill="none" stroke="#63b8ff" d="M196.37,-250C183.43,-250 170.09,-250 157.27,-250"/>
<polygon fill="#63b8ff" stroke="#63b8ff" points="196.11,-253.5 206.11,-250 196.11,-246.5 196.11,-253.5"/>
</a>
</g>
</g>
<!-- Node9&#45;&gt;Node7 -->
<g id="edge10_Node000009_Node000007" class="edge">
<title>Node9&#45;&gt;Node7</title>
<g id="a_edge10_Node000009_Node000007"><a xlink:title=" ">
<path fill="none" stroke="#63b8ff" d="M220.48,-136.93C190.73,-143.48 155.06,-151.35 127.04,-157.52"/>
<polygon fill="#63b8ff" stroke="#63b8ff" points="221.07,-140.38 230.09,-134.81 219.57,-133.54 221.07,-140.38"/>
</a>
</g>
</g>
<!-- Node11 -->
<g id="Node000011" class="node">
<title>Node11</title>
<g id="a_Node000011"><a xlink:href="class_diagram_scene.html#a542ad58dab0f10f2825e0d69deabebe7" target="_top" xlink:title=" ">
<polygon fill="white" stroke="#666666" points="356,-96 204.25,-96 204.25,-64 356,-64 356,-96"/>
<text xml:space="preserve" text-anchor="start" x="212.25" y="-82.5" font-family="Helvetica,sans-Serif" font-size="10.00">DiagramScene::mouseRelease</text>
<text xml:space="preserve" text-anchor="middle" x="280.12" y="-70.5" font-family="Helvetica,sans-Serif" font-size="10.00">Event</text>
</a>
</g>
</g>
<!-- Node10&#45;&gt;Node11 -->
<g id="edge12_Node000010_Node000011" class="edge">
<title>Node10&#45;&gt;Node11</title>
<g id="a_edge12_Node000010_Node000011"><a xlink:title=" ">
<path fill="none" stroke="#63b8ff" d="M391.56,-83.2C379.68,-82.86 367.68,-82.51 356.19,-82.18"/>
<polygon fill="#63b8ff" stroke="#63b8ff" points="391.28,-86.7 401.37,-83.49 391.48,-79.7 391.28,-86.7"/>
</a>
</g>
</g>
</g>
</svg>

<g id="navigator" transform="translate(0 0)" fill="#404254">
  <rect fill="#f2f5e9" fill-opacity="0.5" stroke="#606060" stroke-width=".5" x="0" y="0" width="60" height="60"/>
  <use id="zoomplus" xlink:href="#zoomPlus" x="17" y="9" onmousedown="handleZoom(evt,'in')"/>
  <use id="zoomminus" xlink:href="#zoomMin" x="42" y="9" onmousedown="handleZoom(evt,'out')"/>
  <use id="reset" xlink:href="#resetDef" x="30" y="36" onmousedown="handleReset()"/>
   <use id="arrowup" xlink:href="#arrowUp" x="0" y="0" onmousedown="handlePan(0,-1)"/>
  <use id="arrowright" xlink:href="#arrowRight" x="0" y="0" onmousedown="handlePan(1,0)"/>
  <use id="arrowdown" xlink:href="#arrowDown" x="0" y="0" onmousedown="handlePan(0,1)"/>
  <use id="arrowleft" xlink:href="#arrowLeft" x="0" y="0" onmousedown="handlePan(-1,0)"/>
</g>
<svg viewBox="0 0 15 15" width="100%" height="30px" preserveAspectRatio="xMaxYMin meet">
 <g id="arrow_out" transform="scale(0.3 0.3)">
  <a xlink:href="class_diagram_scene_a4da4018bb57166e46104700d2847c41d_icgraph_org.svg" target="_base">
   <rect id="button" ry="5" rx="5" y="6" x="6" height="38" width="38"
        fill="#f2f5e9" fill-opacity="0.5" stroke="#606060" stroke-width="1.0"/>
   <path id="arrow"
     d="M 11.500037,31.436501 C 11.940474,20.09759 22.043105,11.32322 32.158766,21.979434 L 37.068811,17.246167 C 37.068811,17.246167 37.088388,32 37.088388,32 L 22.160133,31.978069 C 22.160133,31.978069 26.997745,27.140456 26.997745,27.140456 C 18.528582,18.264221 13.291696,25.230495 11.500037,31.436501 z"
     style="fill:#404040;"/>
  </a>
 </g>
</svg>

<style type='text/css'>
<![CDATA[
[data-mouse-over-selected='false'] { opacity: 0.7; }
[data-mouse-over-selected='true']  { opacity: 1.0; }
]]>
</style>
<script type="application/ecmascript"><![CDATA[
document.addEventListener('DOMContentLoaded', (event) => {
  highlightEdges();
  highlightAdjacentNodes();
});
]]></script>
</svg>
