<?xml version="1.0" encoding="UTF-8" standalone="no"?>
<!DOCTYPE svg PUBLIC "-//W3C//DTD SVG 1.1//EN"
 "http://www.w3.org/Graphics/SVG/1.1/DTD/svg11.dtd">
<!-- Generated by graphviz version 14.1.1 (20251213.1925)
 -->
<!-- Title: DiagramScene::selectionChanged Pages: 1 -->
<!--zoomable 271 -->

<svg id="main" version="1.1" xmlns="http://www.w3.org/2000/svg" xmlns:xlink="http://www.w3.org/1999/xlink" xml:space="preserve" onload="init(evt)">

<style type="text/css"><![CDATA[
.node, .edge {opacity: 0.7;}
.node.selected, .edge.selected {opacity: 1;}
.edge:hover path { stroke: red; }
.edge:hover polygon { stroke: red; fill: red; }
]]></style>

<defs>
  <circle id="rim" cx="0" cy="0" r="7"/>
  <circle id="rim2" cx="0" cy="0" r="3.5"/>
  <g id="zoomPlus">
    <use xlink:href="#rim" fill="#404040"><set attributeName="fill" to="#808080" begin="zoomplus.mouseover" end="zoomplus.mouseout"/></use>
    <path d="M-4,0h8M0,-4v8" fill="none" stroke="white" stroke-width="1.5" pointer-events="none"/>
  </g>
  <g id="zoomMin">
    <use xlink:href="#rim" fill="#404040"><set attributeName="fill" to="#808080" begin="zoomminus.mouseover" end="zoomminus.mouseout"/></use>
    <path d="M-4,0h8" fill="none" stroke="white" stroke-width="1.5" pointer-events="none"/>
  </g>
  <g id="arrowUp" transform="translate(30 24)">
    <use xlink:href="#rim"/>
    <path pointer-events="none" fill="none" stroke="white" stroke-width="1.5" d="M0,-3.0v7 M-2.5,-0.5L0,-3.0L2.5,-0.5"/>
  </g>
  <g id="arrowRight" transform="rotate(90) translate(36 -43)">
    <use xlink:href="#rim"/>
    <path pointer-events="none" fill="none" stroke="white" stroke-width="1.5" d="M0,-3.0v7 M-2.5,-0.5L0,-3.0L2.5,-0.5"/>
  </g>
  <g id="arrowDown" transform="rotate(180) translate(-30 -48)">
    <use xlink:href="#rim"/>
    <path pointer-events="none" fill="none" stroke="white" stroke-width="1.5" d="M0,-3.0v7 M-2.5,-0.5L0,-3.0L2.5,-0.5"/>
  </g>
  <g id="arrowLeft" transform="rotate(270) translate(-36 17)">
    <use xlink:href="#rim"/>
    <path pointer-events="none" fill="none" stroke="white" stroke-width="1.5" d="M0,-3.0v7 M-2.5,-0.5L0,-3.0L2.5,-0.5"/>
  </g>
  <g id="resetDef">
    <use xlink:href="#rim2" fill="#404040"><set attributeName="fill" to="#808080" begin="reset.mouseover" end="reset.mouseout"/></use>
  </g>
</defs>
<script type="application/ecmascript">
var viewWidth = 981;
var viewHeight = 271;
var sectionId = 'dynsection-71';
</script>
<script type="application/ecmascript" xlink:href="svg.min.js"/>
<svg id="graph" class="graph">
<g id="viewport">
<title>DiagramScene::selectionChanged</title>
<!-- Node1 -->
<g id="Node000001" class="node">
<title>Node1</title>
<g id="a_Node000001"><a xlink:title=" ">
<polygon fill="#999999" stroke="#666666" points="973.25,-127 808.75,-127 808.75,-107 973.25,-107 973.25,-127"/>
<text xml:space="preserve" text-anchor="middle" x="891" y="-113.5" font-family="Helvetica,sans-Serif" font-size="10.00">DiagramScene::selectionChanged</text>
</a>
</g>
</g>
<!-- Node2 -->
<g id="Node000002" class="node">
<title>Node2</title>
<g id="a_Node000002"><a xlink:href="class_main_window.html#adfa32feecffce3959c99d145fc8b4854" target="_top" xlink:title=" ">
<polygon fill="white" stroke="#666666" points="764.12,-222 619.12,-222 619.12,-202 764.12,-202 764.12,-222"/>
<text xml:space="preserve" text-anchor="middle" x="691.62" y="-208.5" font-family="Helvetica,sans-Serif" font-size="10.00">MainWindow::connectSignals</text>
</a>
</g>
</g>
<!-- Node1&#45;&gt;Node2 -->
<g id="edge1_Node000001_Node000002" class="edge">
<title>Node1&#45;&gt;Node2</title>
<g id="a_edge1_Node000001_Node000002"><a xlink:title=" ">
<path fill="none" stroke="#63b8ff" d="M858.73,-132.3C835.13,-143.83 801.94,-159.98 772.75,-174 753.18,-183.4 730.86,-193.97 714.76,-201.57"/>
<polygon fill="#63b8ff" stroke="#63b8ff" points="860.04,-135.56 867.49,-128.02 856.97,-129.27 860.04,-135.56"/>
</a>
</g>
</g>
<!-- Node4 -->
<g id="Node000004" class="node">
<title>Node4</title>
<g id="a_Node000004"><a xlink:href="class_diagram_scene.html#a03a8b712a0872e8f6290c059de956505" target="_top" xlink:title=" ">
<polygon fill="white" stroke="#666666" points="564.38,-80 413.38,-80 413.38,-60 564.38,-60 564.38,-80"/>
<text xml:space="preserve" text-anchor="middle" x="488.88" y="-66.5" font-family="Helvetica,sans-Serif" font-size="10.00">DiagramScene::deleteSelected</text>
</a>
</g>
</g>
<!-- Node1&#45;&gt;Node4 -->
<g id="edge3_Node000001_Node000004" class="edge">
<title>Node1&#45;&gt;Node4</title>
<g id="a_edge3_Node000001_Node000004"><a xlink:title=" ">
<path fill="none" stroke="#63b8ff" d="M818.5,-104.69C803.41,-102.3 787.58,-99.93 772.75,-98 702.4,-88.83 621.87,-81.13 564.76,-76.14"/>
<polygon fill="#63b8ff" stroke="#63b8ff" points="817.93,-108.14 828.36,-106.28 819.04,-101.23 817.93,-108.14"/>
</a>
</g>
</g>
<!-- Node6 -->
<g id="Node000006" class="node">
<title>Node6</title>
<g id="a_Node000006"><a xlink:href="class_diagram_scene.html#a530f6e2b54bdff761f3f478120187201" target="_top" xlink:title=" ">
<polygon fill="white" stroke="#666666" points="753.62,-20 629.62,-20 629.62,0 753.62,0 753.62,-20"/>
<text xml:space="preserve" text-anchor="middle" x="691.62" y="-6.5" font-family="Helvetica,sans-Serif" font-size="10.00">DiagramScene::selectAll</text>
</a>
</g>
</g>
<!-- Node1&#45;&gt;Node6 -->
<g id="edge5_Node000001_Node000006" class="edge">
<title>Node1&#45;&gt;Node6</title>
<g id="a_edge5_Node000001_Node000006"><a xlink:title=" ">
<path fill="none" stroke="#63b8ff" d="M860.82,-101.18C819.95,-79.02 746.76,-39.35 711.99,-20.5"/>
<polygon fill="#63b8ff" stroke="#63b8ff" points="858.93,-104.14 869.38,-105.82 862.26,-97.98 858.93,-104.14"/>
</a>
</g>
</g>
<!-- Node7 -->
<g id="Node000007" class="node">
<title>Node7</title>
<g id="a_Node000007"><a xlink:href="class_diagram_scene.html#ac7268f1b5870d5c67f54057e6638bcec" target="_top" xlink:title=" ">
<polygon fill="white" stroke="#666666" points="772.75,-127 610.5,-127 610.5,-107 772.75,-107 772.75,-127"/>
<text xml:space="preserve" text-anchor="middle" x="691.62" y="-113.5" font-family="Helvetica,sans-Serif" font-size="10.00">DiagramScene::selectConnection</text>
</a>
</g>
</g>
<!-- Node1&#45;&gt;Node7 -->
<g id="edge7_Node000001_Node000007" class="edge">
<title>Node1&#45;&gt;Node7</title>
<g id="a_edge7_Node000001_Node000007"><a xlink:title=" ">
<path fill="none" stroke="#63b8ff" d="M797.01,-117C788.98,-117 780.91,-117 773,-117"/>
<polygon fill="#63b8ff" stroke="#63b8ff" points="796.78,-120.5 806.78,-117 796.78,-113.5 796.78,-120.5"/>
</a>
</g>
</g>
<!-- Node15 -->
<g id="Node000015" class="node">
<title>Node15</title>
<g id="a_Node000015"><a xlink:href="class_diagram_scene.html#aa7d8cdf9568c51ab910df9d5630093b7" target="_top" xlink:title=" ">
<polygon fill="white" stroke="#666666" points="766,-165 617.25,-165 617.25,-145 766,-145 766,-165"/>
<text xml:space="preserve" text-anchor="middle" x="691.62" y="-151.5" font-family="Helvetica,sans-Serif" font-size="10.00">DiagramScene::selectElement</text>
</a>
</g>
</g>
<!-- Node1&#45;&gt;Node15 -->
<g id="edge17_Node000001_Node000015" class="edge">
<title>Node1&#45;&gt;Node15</title>
<g id="a_edge17_Node000001_Node000015"><a xlink:title=" ">
<path fill="none" stroke="#63b8ff" d="M824.26,-129.66C799.15,-134.49 770.83,-139.94 746.9,-144.55"/>
<polygon fill="#63b8ff" stroke="#63b8ff" points="824.9,-133.1 834.06,-127.77 823.58,-126.22 824.9,-133.1"/>
</a>
</g>
</g>
<!-- Node3 -->
<g id="Node000003" class="node">
<title>Node3</title>
<g id="a_Node000003"><a xlink:href="class_main_window.html#a996c5a2b6f77944776856f08ec30858d" target="_top" xlink:title=" ">
<polygon fill="white" stroke="#666666" points="556.12,-241 421.62,-241 421.62,-221 556.12,-221 556.12,-241"/>
<text xml:space="preserve" text-anchor="middle" x="488.88" y="-227.5" font-family="Helvetica,sans-Serif" font-size="10.00">MainWindow::MainWindow</text>
</a>
</g>
</g>
<!-- Node2&#45;&gt;Node3 -->
<g id="edge2_Node000002_Node000003" class="edge">
<title>Node2&#45;&gt;Node3</title>
<g id="a_edge2_Node000002_Node000003"><a xlink:title=" ">
<path fill="none" stroke="#63b8ff" d="M607.66,-219.85C590.65,-221.46 572.95,-223.14 556.6,-224.69"/>
<polygon fill="#63b8ff" stroke="#63b8ff" points="607.58,-223.38 617.21,-218.95 606.92,-216.41 607.58,-223.38"/>
</a>
</g>
</g>
<!-- Node5 -->
<g id="Node000005" class="node">
<title>Node5</title>
<g id="a_Node000005"><a xlink:href="class_diagram_scene.html#a074e1181353b257a18ea2d243b459a47" target="_top" xlink:title=" ">
<polygon fill="white" stroke="#666666" points="155.12,-118 1.88,-118 1.88,-98 155.12,-98 155.12,-118"/>
<text xml:space="preserve" text-anchor="middle" x="78.5" y="-104.5" font-family="Helvetica,sans-Serif" font-size="10.00">DiagramScene::keyPressEvent</text>
</a>
</g>
</g>
<!-- Node4&#45;&gt;Node5 -->
<g id="edge4_Node000004_Node000005" class="edge">
<title>Node4&#45;&gt;Node5</title>
<g id="a_edge4_Node000004_Node000005"><a xlink:title=" ">
<path fill="none" stroke="#63b8ff" d="M419.94,-57.84C359.65,-49.26 269.54,-41.89 193,-58 156.97,-65.58 118.43,-85.35 96.81,-97.63"/>
<polygon fill="#63b8ff" stroke="#63b8ff" points="419.31,-61.28 429.71,-59.28 420.33,-54.36 419.31,-61.28"/>
</a>
</g>
</g>
<!-- Node6&#45;&gt;Node5 -->
<g id="edge6_Node000006_Node000005" class="edge">
<title>Node6&#45;&gt;Node5</title>
<g id="a_edge6_Node000006_Node000005"><a xlink:title=" ">
<path fill="none" stroke="#63b8ff" d="M618.04,-5.08C519.52,-0.62 339.03,-0.29 193,-44 153.99,-55.68 113.73,-82.57 93.26,-97.51"/>
<polygon fill="#63b8ff" stroke="#63b8ff" points="617.67,-8.57 627.83,-5.56 618.01,-1.58 617.67,-8.57"/>
</a>
</g>
</g>
<!-- Node8 -->
<g id="Node000008" class="node">
<title>Node8</title>
<g id="a_Node000008"><a xlink:href="class_diagram_scene.html#add93af6ff55d3453051b8c057cd4bdcb" target="_top" xlink:title=" ">
<polygon fill="white" stroke="#666666" points="562.88,-165 414.88,-165 414.88,-145 562.88,-145 562.88,-165"/>
<text xml:space="preserve" text-anchor="middle" x="488.88" y="-151.5" font-family="Helvetica,sans-Serif" font-size="10.00">DiagramScene::clearSelection</text>
</a>
</g>
</g>
<!-- Node7&#45;&gt;Node8 -->
<g id="edge8_Node000007_Node000008" class="edge">
<title>Node7&#45;&gt;Node8</title>
<g id="a_edge8_Node000007_Node000008"><a xlink:title=" ">
<path fill="none" stroke="#63b8ff" d="M624.11,-129.59C598.48,-134.44 569.52,-139.92 545.08,-144.55"/>
<polygon fill="#63b8ff" stroke="#63b8ff" points="624.58,-133.06 633.75,-127.77 623.27,-126.19 624.58,-133.06"/>
</a>
</g>
</g>
<!-- Node13 -->
<g id="Node000013" class="node">
<title>Node13</title>
<g id="a_Node000013"><a xlink:href="class_diagram_scene.html#ad46a8dc374895fd670f50f30f2c2acbd" target="_top" xlink:title=" ">
<polygon fill="white" stroke="#666666" points="574.5,-127 403.25,-127 403.25,-107 574.5,-107 574.5,-127"/>
<text xml:space="preserve" text-anchor="middle" x="488.88" y="-113.5" font-family="Helvetica,sans-Serif" font-size="10.00">DiagramScene::finishSelectionRect</text>
</a>
</g>
</g>
<!-- Node7&#45;&gt;Node13 -->
<g id="edge15_Node000007_Node000013" class="edge">
<title>Node7&#45;&gt;Node13</title>
<g id="a_edge15_Node000007_Node000013"><a xlink:title=" ">
<path fill="none" stroke="#63b8ff" d="M598.65,-117C590.77,-117 582.81,-117 574.99,-117"/>
<polygon fill="#63b8ff" stroke="#63b8ff" points="598.62,-120.5 608.62,-117 598.62,-113.5 598.62,-120.5"/>
</a>
</g>
</g>
<!-- Node8&#45;&gt;Node5 -->
<g id="edge11_Node000008_Node000005" class="edge">
<title>Node8&#45;&gt;Node5</title>
<g id="a_edge11_Node000008_Node000005"><a xlink:title=" ">
<path fill="none" stroke="#63b8ff" d="M403.38,-165.46C343.9,-170.51 262.77,-172.69 193,-158 156.97,-150.42 118.43,-130.65 96.81,-118.37"/>
<polygon fill="#63b8ff" stroke="#63b8ff" points="403.45,-168.97 413.1,-164.59 402.83,-162 403.45,-168.97"/>
</a>
</g>
</g>
<!-- Node9 -->
<g id="Node000009" class="node">
<title>Node9</title>
<g id="a_Node000009"><a xlink:href="class_diagram_scene.html#a0c02f289dea7872eae24bb2c0f91d5ea" target="_top" xlink:title=" ">
<polygon fill="white" stroke="#666666" points="352.25,-225 208,-225 208,-205 352.25,-205 352.25,-225"/>
<text xml:space="preserve" text-anchor="middle" x="280.12" y="-211.5" font-family="Helvetica,sans-Serif" font-size="10.00">DiagramScene::clearDiagram</text>
</a>
</g>
</g>
<!-- Node8&#45;&gt;Node9 -->
<g id="edge9_Node000008_Node000009" class="edge">
<title>Node8&#45;&gt;Node9</title>
<g id="a_edge9_Node000008_Node000009"><a xlink:title=" ">
<path fill="none" stroke="#63b8ff" d="M438.9,-168.48C427.19,-171.82 414.75,-175.45 403.25,-179 387.13,-183.97 383.38,-186.07 367.25,-191 351.96,-195.68 335.03,-200.47 320.26,-204.54"/>
<polygon fill="#63b8ff" stroke="#63b8ff" points="439.73,-171.89 448.4,-165.8 437.82,-165.15 439.73,-171.89"/>
</a>
</g>
</g>
<!-- Node11 -->
<g id="Node000011" class="node">
<title>Node11</title>
<g id="a_Node000011"><a xlink:href="class_diagram_scene.html#a6847af7972303267f22e84ae1011c255" target="_top" xlink:title=" ">
<polygon fill="white" stroke="#666666" points="350.75,-149 209.5,-149 209.5,-117 350.75,-117 350.75,-149"/>
<text xml:space="preserve" text-anchor="start" x="217.5" y="-135.5" font-family="Helvetica,sans-Serif" font-size="10.00">DiagramScene::mousePress</text>
<text xml:space="preserve" text-anchor="middle" x="280.12" y="-123.5" font-family="Helvetica,sans-Serif" font-size="10.00">Event</text>
</a>
</g>
</g>
<!-- Node8&#45;&gt;Node11 -->
<g id="edge12_Node000008_Node000011" class="edge">
<title>Node8&#45;&gt;Node11</title>
<g id="a_edge12_Node000008_Node000011"><a xlink:title=" ">
<path fill="none" stroke="#63b8ff" d="M403.18,-145.99C385.92,-144.15 367.93,-142.24 351.25,-140.46"/>
<polygon fill="#63b8ff" stroke="#63b8ff" points="402.58,-149.44 412.9,-147.02 403.32,-142.48 402.58,-149.44"/>
</a>
</g>
</g>
<!-- Node12 -->
<g id="Node000012" class="node">
<title>Node12</title>
<g id="a_Node000012"><a xlink:href="class_diagram_scene.html#a61e7061e5add947d09ad87feaf2b8dc1" target="_top" xlink:title=" ">
<polygon fill="white" stroke="#666666" points="367.25,-263 193,-263 193,-243 367.25,-243 367.25,-263"/>
<text xml:space="preserve" text-anchor="middle" x="280.12" y="-249.5" font-family="Helvetica,sans-Serif" font-size="10.00">DiagramScene::pasteFromClipboard</text>
</a>
</g>
</g>
<!-- Node8&#45;&gt;Node12 -->
<g id="edge13_Node000008_Node000012" class="edge">
<title>Node8&#45;&gt;Node12</title>
<g id="a_edge13_Node000008_Node000012"><a xlink:title=" ">
<path fill="none" stroke="#63b8ff" d="M419.31,-169.7C413.62,-172.31 408.17,-175.38 403.25,-179 379.71,-196.3 391.29,-217.4 367.25,-234 362.34,-237.39 356.92,-240.19 351.27,-242.5"/>
<polygon fill="#63b8ff" stroke="#63b8ff" points="420.4,-173.04 428.36,-166.05 417.78,-166.55 420.4,-173.04"/>
</a>
</g>
</g>
<!-- Node10 -->
<g id="Node000010" class="node">
<title>Node10</title>
<g id="a_Node000010"><a xlink:href="class_diagram_scene.html#a189b7f9e32b70c751124cffce8d63c8c" target="_top" xlink:title=" ">
<polygon fill="white" stroke="#666666" points="157,-225 0,-225 0,-205 157,-205 157,-225"/>
<text xml:space="preserve" text-anchor="middle" x="78.5" y="-211.5" font-family="Helvetica,sans-Serif" font-size="10.00">DiagramScene::~DiagramScene</text>
</a>
</g>
</g>
<!-- Node9&#45;&gt;Node10 -->
<g id="edge10_Node000009_Node000010" class="edge">
<title>Node9&#45;&gt;Node10</title>
<g id="a_edge10_Node000009_Node000010"><a xlink:title=" ">
<path fill="none" stroke="#63b8ff" d="M196.37,-215C183.43,-215 170.09,-215 157.27,-215"/>
<polygon fill="#63b8ff" stroke="#63b8ff" points="196.11,-218.5 206.11,-215 196.11,-211.5 196.11,-218.5"/>
</a>
</g>
</g>
<!-- Node12&#45;&gt;Node5 -->
<g id="edge14_Node000012_Node000005" class="edge">
<title>Node12&#45;&gt;Node5</title>
<g id="a_edge14_Node000012_Node000005"><a xlink:title=" ">
<path fill="none" stroke="#63b8ff" d="M201.71,-238.47C198.71,-237.11 195.79,-235.63 193,-234 186.32,-230.11 114.22,-147.82 88.53,-118.37"/>
<polygon fill="#63b8ff" stroke="#63b8ff" points="200.19,-241.63 210.78,-242.06 202.77,-235.13 200.19,-241.63"/>
</a>
</g>
</g>
<!-- Node14 -->
<g id="Node000014" class="node">
<title>Node14</title>
<g id="a_Node000014"><a xlink:href="class_diagram_scene.html#a542ad58dab0f10f2825e0d69deabebe7" target="_top" xlink:title=" ">
<polygon fill="white" stroke="#666666" points="356,-99 204.25,-99 204.25,-67 356,-67 356,-99"/>
<text xml:space="preserve" text-anchor="start" x="212.25" y="-85.5" font-family="Helvetica,sans-Serif" font-size="10.00">DiagramScene::mouseRelease</text>
<text xml:space="preserve" text-anchor="middle" x="280.12" y="-73.5" font-family="Helvetica,sans-Serif" font-size="10.00">Event</text>
</a>
</g>
</g>
<!-- Node13&#45;&gt;Node14 -->
<g id="edge16_Node000013_Node000014" class="edge">
<title>Node13&#45;&gt;Node14</title>
<g id="a_edge16_Node000013_Node000014"><a xlink:title=" ">
<path fill="none" stroke="#63b8ff" d="M412.87,-104.67C394.43,-101.63 374.69,-98.39 356.24,-95.35"/>
<polygon fill="#63b8ff" stroke="#63b8ff" points="412.23,-108.11 422.66,-106.28 413.36,-101.2 412.23,-108.11"/>
</a>
</g>
</g>
<!-- Node15&#45;&gt;Node8 -->
<g id="edge18_Node000015_Node000008" class="edge">
<title>Node15&#45;&gt;Node8</title>
<g id="a_edge18_Node000015_Node000008"><a xlink:title=" ">
<path fill="none" stroke="#63b8ff" d="M605.76,-155C591.59,-155 576.99,-155 563.14,-155"/>
<polygon fill="#63b8ff" stroke="#63b8ff" points="605.5,-158.5 615.5,-155 605.5,-151.5 605.5,-158.5"/>
</a>
</g>
</g>
<!-- Node15&#45;&gt;Node12 -->
<g id="edge20_Node000015_Node000012" class="edge">
<title>Node15&#45;&gt;Node12</title>
<g id="a_edge20_Node000015_Node000012"><a xlink:title=" ">
<path fill="none" stroke="#63b8ff" d="M620.8,-167.52C542.35,-181.8 423.29,-204.18 403.25,-212 385.78,-218.82 384.64,-227 367.25,-234 358.87,-237.37 349.78,-240.2 340.75,-242.56"/>
<polygon fill="#63b8ff" stroke="#63b8ff" points="621.36,-170.98 630.57,-165.75 620.11,-164.09 621.36,-170.98"/>
</a>
</g>
</g>
<!-- Node15&#45;&gt;Node13 -->
<g id="edge19_Node000015_Node000013" class="edge">
<title>Node15&#45;&gt;Node13</title>
<g id="a_edge19_Node000015_Node000013"><a xlink:title=" ">
<path fill="none" stroke="#63b8ff" d="M624.11,-142.41C598.48,-137.56 569.52,-132.08 545.08,-127.45"/>
<polygon fill="#63b8ff" stroke="#63b8ff" points="623.27,-145.81 633.75,-144.23 624.58,-138.94 623.27,-145.81"/>
</a>
</g>
</g>
</g>
</svg>

<g id="navigator" transform="translate(0 0)" fill="#404254">
  <rect fill="#f2f5e9" fill-opacity="0.5" stroke="#606060" stroke-width=".5" x="0" y="0" width="60" height="60"/>
  <use id="zoomplus" xlink:href="#zoomPlus" x="17" y="9" onmousedown="handleZoom(evt,'in')"/>
  <use id="zoomminus" xlink:href="#zoomMin" x="42" y="9" onmousedown="handleZoom(evt,'out')"/>
  <use id="reset" xlink:href="#resetDef" x="30" y="36" onmousedown="handleReset()"/>
   <use id="arrowup" xlink:href="#arrowUp" x="0" y="0" onmousedown="handlePan(0,-1)"/>
  <use id="arrowright" xlink:href="#arrowRight" x="0" y="0" onmousedown="handlePan(1,0)"/>
  <use id="arrowdown" xlink:href="#arrowDown" x="0" y="0" onmousedown="handlePan(0,1)"/>
  <use id="arrowleft" xlink:href="#arrowLeft" x="0" y="0" onmousedown="handlePan(-1,0)"/>
</g>
<svg viewBox="0 0 15 15" width="100%" height="30px" preserveAspectRatio="xMaxYMin meet">
 <g id="arrow_out" transform="scale(0.3 0.3)">
  <a xlink:href="class_diagram_scene_a7dbb09a9acecc803601560e50ad720ea_icgraph_org.svg" target="_base">
   <rect id="button" ry="5" rx="5" y="6" x="6" height="38" width="38"
        fill="#f2f5e9" fill-opacity="0.5" stroke="#606060" stroke-width="1.0"/>
   <path id="arrow"
     d="M 11.500037,31.436501 C 11.940474,20.09759 22.043105,11.32322 32.158766,21.979434 L 37.068811,17.246167 C 37.068811,17.246167 37.088388,32 37.088388,32 L 22.160133,31.978069 C 22.160133,31.978069 26.997745,27.140456 26.997745,27.140456 C 18.528582,18.264221 13.291696,25.230495 11.500037,31.436501 z"
     style="fill:#404040;"/>
  </a>
 </g>
</svg>

<style type='text/css'>
<![CDATA[
[data-mouse-over-selected='false'] { opacity: 0.7; }
[data-mouse-over-selected='true']  { opacity: 1.0; }
]]>
</style>
<script type="application/ecmascript"><![CDATA[
document.addEventListener('DOMContentLoaded', (event) => {
  highlightEdges();
  highlightAdjacentNodes();
});
]]></script>
</svg>
