<?xml version="1.0" encoding="UTF-8" standalone="no"?>
<!DOCTYPE svg PUBLIC "-//W3C//DTD SVG 1.1//EN"
 "http://www.w3.org/Graphics/SVG/1.1/DTD/svg11.dtd">
<!-- Generated by graphviz version 14.1.1 (20251213.1925)
 -->
<!-- Title: Relationship::preferredSize Pages: 1 -->
<svg width="474pt" height="75pt"
 viewBox="0.00 0.00 474.00 75.00" xmlns="http://www.w3.org/2000/svg" xmlns:xlink="http://www.w3.org/1999/xlink">
<g id="graph0" class="graph" transform="scale(1 1) rotate(0) translate(4 71)">
<title>Relationship::preferredSize</title>
<!-- Node1 -->
<g id="Node000001" class="node">
<title>Node1</title>
<g id="a_Node000001"><a xlink:title=" ">
<polygon fill="#999999" stroke="#666666" points="465.75,-48 332,-48 332,-28 465.75,-28 465.75,-48"/>
<text xml:space="preserve" text-anchor="middle" x="398.88" y="-34.5" font-family="Helvetica,sans-Serif" font-size="10.00">Relationship::preferredSize</text>
</a>
</g>
</g>
<!-- Node2 -->
<g id="Node000002" class="node">
<title>Node2</title>
<g id="a_Node000002"><a xlink:href="class_relationship.html#a6fabfd34f6c221f7bec03e1f0b617ac1" target="_top" xlink:title=" ">
<polygon fill="white" stroke="#666666" points="130,-67 0,-67 0,-47 130,-47 130,-67"/>
<text xml:space="preserve" text-anchor="middle" x="65" y="-53.5" font-family="Helvetica,sans-Serif" font-size="10.00">Relationship::Relationship</text>
</a>
</g>
</g>
<!-- Node1&#45;&gt;Node2 -->
<g id="edge1_Node000001_Node000002" class="edge">
<title>Node1&#45;&gt;Node2</title>
<g id="a_edge1_Node000001_Node000002"><a xlink:title=" ">
<path fill="none" stroke="#63b8ff" d="M320.13,-45.23C311.99,-45.88 303.83,-46.48 296,-47 240.17,-50.68 176.61,-53.32 130.48,-54.97"/>
<polygon fill="#63b8ff" stroke="#63b8ff" points="320.41,-48.72 330.09,-44.41 319.84,-41.74 320.41,-48.72"/>
</a>
</g>
</g>
<!-- Node3 -->
<g id="Node000003" class="node">
<title>Node3</title>
<g id="a_Node000003"><a xlink:href="class_relationship.html#a7029bae7f63e705126cf2776602e0b52" target="_top" xlink:title=" ">
<polygon fill="white" stroke="#666666" points="296,-20 166,-20 166,0 296,0 296,-20"/>
<text xml:space="preserve" text-anchor="middle" x="231" y="-6.5" font-family="Helvetica,sans-Serif" font-size="10.00">Relationship::Relationship</text>
</a>
</g>
</g>
<!-- Node1&#45;&gt;Node3 -->
<g id="edge2_Node000001_Node000003" class="edge">
<title>Node1&#45;&gt;Node3</title>
<g id="a_edge2_Node000001_Node000003"><a xlink:title=" ">
<path fill="none" stroke="#63b8ff" d="M325.03,-25.7C314.71,-23.96 304.18,-22.18 294.09,-20.48"/>
<polygon fill="#63b8ff" stroke="#63b8ff" points="324.17,-29.11 334.62,-27.32 325.34,-22.21 324.17,-29.11"/>
</a>
</g>
</g>
<!-- Node3&#45;&gt;Node2 -->
<g id="edge3_Node000003_Node000002" class="edge">
<title>Node3&#45;&gt;Node2</title>
<g id="a_edge3_Node000003_Node000002"><a xlink:title=" ">
<path fill="none" stroke="#63b8ff" d="M182.69,-23.56C157.19,-30.87 126.21,-39.75 102.58,-46.52"/>
<polygon fill="#63b8ff" stroke="#63b8ff" points="183.5,-26.97 192.15,-20.85 181.57,-20.24 183.5,-26.97"/>
</a>
</g>
</g>
<!-- Node3&#45;&gt;Node3 -->
<g id="edge5_Node000003_Node000003" class="edge">
<title>Node3&#45;&gt;Node3</title>
<g id="a_edge5_Node000003_Node000003"><a xlink:title=" ">
<path fill="none" stroke="#63b8ff" d="M260.34,-31.44C256.56,-35.3 246.78,-38 231,-38 202.14,-38 193.35,-28.98 204.62,-20.34"/>
<polygon fill="#63b8ff" stroke="#63b8ff" points="263.73,-30.56 257.77,-21.8 256.96,-32.37 263.73,-30.56"/>
</a>
</g>
</g>
<!-- Node4 -->
<g id="Node000004" class="node">
<title>Node4</title>
<g id="a_Node000004"><a xlink:href="class_relationship.html#ae16e241e774fd09db9bf40992c97b8b8" target="_top" xlink:title=" ">
<polygon fill="white" stroke="#666666" points="130,-20 0,-20 0,0 130,0 130,-20"/>
<text xml:space="preserve" text-anchor="middle" x="65" y="-6.5" font-family="Helvetica,sans-Serif" font-size="10.00">Relationship::Relationship</text>
</a>
</g>
</g>
<!-- Node3&#45;&gt;Node4 -->
<g id="edge4_Node000003_Node000004" class="edge">
<title>Node3&#45;&gt;Node4</title>
<g id="a_edge4_Node000003_Node000004"><a xlink:title=" ">
<path fill="none" stroke="#63b8ff" d="M154.41,-10C146.4,-10 138.3,-10 130.43,-10"/>
<polygon fill="#63b8ff" stroke="#63b8ff" points="154.14,-13.5 164.14,-10 154.14,-6.5 154.14,-13.5"/>
</a>
</g>
</g>
</g>
</svg>
