<?xml version="1.0" encoding="UTF-8" standalone="no"?>
<!DOCTYPE svg PUBLIC "-//W3C//DTD SVG 1.1//EN"
 "http://www.w3.org/Graphics/SVG/1.1/DTD/svg11.dtd">
<!-- Generated by graphviz version 14.1.1 (20251213.1925)
 -->
<!-- Title: MainWindow::ConnectBasicElementsWithConnectionLine Pages: 1 -->
<!--zoomable 730 -->

<svg id="main" version="1.1" xmlns="http://www.w3.org/2000/svg" xmlns:xlink="http://www.w3.org/1999/xlink" xml:space="preserve" onload="init(evt)">

<style type="text/css"><![CDATA[
.node, .edge {opacity: 0.7;}
.node.selected, .edge.selected {opacity: 1;}
.edge:hover path { stroke: red; }
.edge:hover polygon { stroke: red; fill: red; }
]]></style>

<defs>
  <circle id="rim" cx="0" cy="0" r="7"/>
  <circle id="rim2" cx="0" cy="0" r="3.5"/>
  <g id="zoomPlus">
    <use xlink:href="#rim" fill="#404040"><set attributeName="fill" to="#808080" begin="zoomplus.mouseover" end="zoomplus.mouseout"/></use>
    <path d="M-4,0h8M0,-4v8" fill="none" stroke="white" stroke-width="1.5" pointer-events="none"/>
  </g>
  <g id="zoomMin">
    <use xlink:href="#rim" fill="#404040"><set attributeName="fill" to="#808080" begin="zoomminus.mouseover" end="zoomminus.mouseout"/></use>
    <path d="M-4,0h8" fill="none" stroke="white" stroke-width="1.5" pointer-events="none"/>
  </g>
  <g id="arrowUp" transform="translate(30 24)">
    <use xlink:href="#rim"/>
    <path pointer-events="none" fill="none" stroke="white" stroke-width="1.5" d="M0,-3.0v7 M-2.5,-0.5L0,-3.0L2.5,-0.5"/>
  </g>
  <g id="arrowRight" transform="rotate(90) translate(36 -43)">
    <use xlink:href="#rim"/>
    <path pointer-events="none" fill="none" stroke="white" stroke-width="1.5" d="M0,-3.0v7 M-2.5,-0.5L0,-3.0L2.5,-0.5"/>
  </g>
  <g id="arrowDown" transform="rotate(180) translate(-30 -48)">
    <use xlink:href="#rim"/>
    <path pointer-events="none" fill="none" stroke="white" stroke-width="1.5" d="M0,-3.0v7 M-2.5,-0.5L0,-3.0L2.5,-0.5"/>
  </g>
  <g id="arrowLeft" transform="rotate(270) translate(-36 17)">
    <use xlink:href="#rim"/>
    <path pointer-events="none" fill="none" stroke="white" stroke-width="1.5" d="M0,-3.0v7 M-2.5,-0.5L0,-3.0L2.5,-0.5"/>
  </g>
  <g id="resetDef">
    <use xlink:href="#rim2" fill="#404040"><set attributeName="fill" to="#808080" begin="reset.mouseover" end="reset.mouseout"/></use>
  </g>
</defs>
<script type="application/ecmascript">
var viewWidth = 2288;
var viewHeight = 730;
var sectionId = 'dynsection-6';
</script>
<script type="application/ecmascript" xlink:href="svg.min.js"/>
<svg id="graph" class="graph">
<g id="viewport">
<title>MainWindow::ConnectBasicElementsWithConnectionLine</title>
<!-- Node1 -->
<g id="Node000001" class="node">
<title>Node1</title>
<g id="a_Node000001"><a xlink:title=" ">
<polygon fill="#999999" stroke="#666666" points="2280,-344 2135,-344 2135,-312 2280,-312 2280,-344"/>
<text xml:space="preserve" text-anchor="start" x="2143" y="-330.5" font-family="Helvetica,sans-Serif" font-size="10.00">MainWindow::ConnectBasic</text>
<text xml:space="preserve" text-anchor="middle" x="2207.5" y="-318.5" font-family="Helvetica,sans-Serif" font-size="10.00">ElementsWithConnectionLine</text>
</a>
</g>
</g>
<!-- Node2 -->
<g id="Node000002" class="node">
<title>Node2</title>
<g id="a_Node000002"><a xlink:href="class_main_window.html#ad34ae0349abf41aa739b75b85df74126" target="_top" xlink:title=" ">
<polygon fill="white" stroke="#666666" points="2099,-344 1956.25,-344 1956.25,-312 2099,-312 2099,-344"/>
<text xml:space="preserve" text-anchor="start" x="1964.25" y="-330.5" font-family="Helvetica,sans-Serif" font-size="10.00">MainWindow::onAddAttribute</text>
<text xml:space="preserve" text-anchor="middle" x="2027.62" y="-318.5" font-family="Helvetica,sans-Serif" font-size="10.00">OnTreeClicked</text>
</a>
</g>
</g>
<!-- Node1&#45;&gt;Node2 -->
<g id="edge1_Node000001_Node000002" class="edge">
<title>Node1&#45;&gt;Node2</title>
<g id="a_edge1_Node000001_Node000002"><a xlink:title=" ">
<path fill="none" stroke="#63b8ff" d="M2123.36,-328C2115.31,-328 2107.19,-328 2099.28,-328"/>
<polygon fill="#63b8ff" stroke="#63b8ff" points="2123.15,-331.5 2133.15,-328 2123.15,-324.5 2123.15,-331.5"/>
</a>
</g>
</g>
<!-- Node3 -->
<g id="Node000003" class="node">
<title>Node3</title>
<g id="a_Node000003"><a xlink:href="class_main_window.html#a6fd05e9f951dd6e7c2cd6ca815ef9d71" target="_top" xlink:title=" ">
<polygon fill="white" stroke="#666666" points="1920.25,-196 1786.5,-196 1786.5,-164 1920.25,-164 1920.25,-196"/>
<text xml:space="preserve" text-anchor="start" x="1794.5" y="-182.5" font-family="Helvetica,sans-Serif" font-size="10.00">MainWindow::createButton</text>
<text xml:space="preserve" text-anchor="middle" x="1853.38" y="-170.5" font-family="Helvetica,sans-Serif" font-size="10.00">PropertyItem</text>
</a>
</g>
</g>
<!-- Node2&#45;&gt;Node3 -->
<g id="edge2_Node000002_Node000003" class="edge">
<title>Node2&#45;&gt;Node3</title>
<g id="a_edge2_Node000002_Node000003"><a xlink:title=" ">
<path fill="none" stroke="#63b8ff" d="M1999.17,-304.41C1964.06,-274.24 1904.13,-222.75 1873.55,-196.48"/>
<polygon fill="#63b8ff" stroke="#63b8ff" points="1996.52,-306.75 2006.39,-310.61 2001.08,-301.44 1996.52,-306.75"/>
</a>
</g>
</g>
<!-- Node4 -->
<g id="Node000004" class="node">
<title>Node4</title>
<g id="a_Node000004"><a xlink:href="class_main_window.html#a697154cf7839e00c607134c2a4e018cf" target="_top" xlink:title=" ">
<polygon fill="white" stroke="#666666" points="1750.5,-171 1583,-171 1583,-151 1750.5,-151 1750.5,-171"/>
<text xml:space="preserve" text-anchor="middle" x="1666.75" y="-157.5" font-family="Helvetica,sans-Serif" font-size="10.00">MainWindow::populateAttributeList</text>
</a>
</g>
</g>
<!-- Node3&#45;&gt;Node4 -->
<g id="edge3_Node000003_Node000004" class="edge">
<title>Node3&#45;&gt;Node4</title>
<g id="a_edge3_Node000003_Node000004"><a xlink:title=" ">
<path fill="none" stroke="#63b8ff" d="M1775.05,-172.04C1767.04,-171.22 1758.88,-170.38 1750.81,-169.55"/>
<polygon fill="#63b8ff" stroke="#63b8ff" points="1774.43,-175.5 1784.74,-173.04 1775.15,-168.53 1774.43,-175.5"/>
</a>
</g>
</g>
<!-- Node5 -->
<g id="Node000005" class="node">
<title>Node5</title>
<g id="a_Node000005"><a xlink:href="class_main_window.html#a3aa4112f20ad25eb3ad78fd354ba7de2" target="_top" xlink:title=" ">
<polygon fill="white" stroke="#666666" points="1547,-165 1395.25,-165 1395.25,-133 1547,-133 1547,-165"/>
<text xml:space="preserve" text-anchor="start" x="1403.25" y="-151.5" font-family="Helvetica,sans-Serif" font-size="10.00">MainWindow::populateAttribute</text>
<text xml:space="preserve" text-anchor="middle" x="1471.12" y="-139.5" font-family="Helvetica,sans-Serif" font-size="10.00">Properties</text>
</a>
</g>
</g>
<!-- Node3&#45;&gt;Node5 -->
<g id="edge48_Node000003_Node000005" class="edge">
<title>Node3&#45;&gt;Node5</title>
<g id="a_edge48_Node000003_Node000005"><a xlink:title=" ">
<path fill="none" stroke="#63b8ff" d="M1807.47,-159.31C1790.07,-152.35 1769.73,-145.47 1750.5,-142 1682.59,-129.75 1603.85,-133.33 1547.49,-138.91"/>
<polygon fill="#63b8ff" stroke="#63b8ff" points="1805.91,-162.45 1816.49,-163.04 1808.59,-155.98 1805.91,-162.45"/>
</a>
</g>
</g>
<!-- Node10 -->
<g id="Node000010" class="node">
<title>Node10</title>
<g id="a_Node000010"><a xlink:href="class_main_window.html#a1049a5796ac248f40a3b4110ed5faf77" target="_top" xlink:title=" ">
<polygon fill="white" stroke="#666666" points="169,-114 0,-114 0,-82 169,-82 169,-114"/>
<text xml:space="preserve" text-anchor="start" x="8" y="-100.5" font-family="Helvetica,sans-Serif" font-size="10.00">MainWindow::populateRelationship</text>
<text xml:space="preserve" text-anchor="middle" x="84.5" y="-88.5" font-family="Helvetica,sans-Serif" font-size="10.00">Properties</text>
</a>
</g>
</g>
<!-- Node3&#45;&gt;Node10 -->
<g id="edge50_Node000003_Node000010" class="edge">
<title>Node3&#45;&gt;Node10</title>
<g id="a_edge50_Node000003_Node000010"><a xlink:title=" ">
<path fill="none" stroke="#63b8ff" d="M1824.85,-156.4C1764.99,-107.58 1616.68,0 1472.12,0 1472.12,0 1472.12,0 483.75,0 358.4,0 325.04,-6.89 205,-43 173.07,-52.61 138.69,-69.14 115.04,-81.58"/>
<polygon fill="#63b8ff" stroke="#63b8ff" points="1822.58,-159.07 1832.52,-162.74 1827.05,-153.67 1822.58,-159.07"/>
</a>
</g>
</g>
<!-- Node26 -->
<g id="Node000026" class="node">
<title>Node26</title>
<g id="a_Node000026"><a xlink:href="class_main_window.html#a40023e3590f2593fd133a6b111f63ed9" target="_top" xlink:title=" ">
<polygon fill="white" stroke="#666666" points="1541.38,-215 1400.88,-215 1400.88,-183 1541.38,-183 1541.38,-215"/>
<text xml:space="preserve" text-anchor="start" x="1408.88" y="-201.5" font-family="Helvetica,sans-Serif" font-size="10.00">MainWindow::populateEntity</text>
<text xml:space="preserve" text-anchor="middle" x="1471.12" y="-189.5" font-family="Helvetica,sans-Serif" font-size="10.00">Properties</text>
</a>
</g>
</g>
<!-- Node3&#45;&gt;Node26 -->
<g id="edge49_Node000003_Node000026" class="edge">
<title>Node3&#45;&gt;Node26</title>
<g id="a_edge49_Node000003_Node000026"><a xlink:title=" ">
<path fill="none" stroke="#63b8ff" d="M1775.01,-183.87C1706.62,-187.28 1607.75,-192.22 1541.78,-195.52"/>
<polygon fill="#63b8ff" stroke="#63b8ff" points="1774.82,-187.38 1784.63,-183.39 1774.47,-180.39 1774.82,-187.38"/>
</a>
</g>
</g>
<!-- Node4&#45;&gt;Node5 -->
<g id="edge4_Node000004_Node000005" class="edge">
<title>Node4&#45;&gt;Node5</title>
<g id="a_edge4_Node000004_Node000005"><a xlink:title=" ">
<path fill="none" stroke="#63b8ff" d="M1588.86,-149.61C1575.17,-148.59 1560.93,-147.71 1547.29,-147.06"/>
<polygon fill="#63b8ff" stroke="#63b8ff" points="1588.44,-153.09 1598.69,-150.39 1589,-146.11 1588.44,-153.09"/>
</a>
</g>
</g>
<!-- Node4&#45;&gt;Node10 -->
<g id="edge47_Node000004_Node000010" class="edge">
<title>Node4&#45;&gt;Node10</title>
<g id="a_edge47_Node000004_Node000010"><a xlink:title=" ">
<path fill="none" stroke="#63b8ff" d="M1637.29,-145.18C1574.79,-111.96 1419.96,-38 1280.62,-38 1280.62,-38 1280.62,-38 483.75,-38 366.46,-38 231.88,-63.76 153.03,-81.53"/>
<polygon fill="#63b8ff" stroke="#63b8ff" points="1635.4,-148.13 1645.86,-149.8 1638.72,-141.97 1635.4,-148.13"/>
</a>
</g>
</g>
<!-- Node4&#45;&gt;Node26 -->
<g id="edge45_Node000004_Node000026" class="edge">
<title>Node4&#45;&gt;Node26</title>
<g id="a_edge45_Node000004_Node000026"><a xlink:title=" ">
<path fill="none" stroke="#63b8ff" d="M1601.04,-173.7C1581.99,-177.44 1561.06,-181.55 1541.71,-185.34"/>
<polygon fill="#63b8ff" stroke="#63b8ff" points="1601.7,-177.14 1610.84,-171.78 1600.36,-170.27 1601.7,-177.14"/>
</a>
</g>
</g>
<!-- Node5&#45;&gt;Node4 -->
<g id="edge5_Node000005_Node000004" class="edge">
<title>Node5&#45;&gt;Node4</title>
<g id="a_edge5_Node000005_Node000004"><a xlink:title=" ">
<path fill="none" stroke="#63b8ff" d="M1558.81,-161.09C1566.69,-161.63 1574.66,-162.11 1582.51,-162.53"/>
<polygon fill="#63b8ff" stroke="#63b8ff" points="1559.09,-157.6 1548.86,-160.37 1558.58,-164.58 1559.09,-157.6"/>
</a>
</g>
</g>
<!-- Node6 -->
<g id="Node000006" class="node">
<title>Node6</title>
<g id="a_Node000006"><a xlink:href="class_main_window.html#add7e6ae12287854ff779bd4b5649dd98" target="_top" xlink:title=" ">
<polygon fill="white" stroke="#666666" points="1359.25,-213 1200,-213 1200,-181 1359.25,-181 1359.25,-213"/>
<text xml:space="preserve" text-anchor="start" x="1208" y="-199.5" font-family="Helvetica,sans-Serif" font-size="10.00">MainWindow::populateProperties</text>
<text xml:space="preserve" text-anchor="middle" x="1279.62" y="-187.5" font-family="Helvetica,sans-Serif" font-size="10.00">ForElement</text>
</a>
</g>
</g>
<!-- Node5&#45;&gt;Node6 -->
<g id="edge6_Node000005_Node000006" class="edge">
<title>Node5&#45;&gt;Node6</title>
<g id="a_edge6_Node000005_Node000006"><a xlink:title=" ">
<path fill="none" stroke="#63b8ff" d="M1394.16,-168.24C1378.03,-172.33 1361.16,-176.6 1345.49,-180.57"/>
<polygon fill="#63b8ff" stroke="#63b8ff" points="1394.87,-171.67 1403.71,-165.82 1393.15,-164.89 1394.87,-171.67"/>
</a>
</g>
</g>
<!-- Node7 -->
<g id="Node000007" class="node">
<title>Node7</title>
<g id="a_Node000007"><a xlink:href="class_main_window.html#a5caeae304b10e5cd9f83ef5c6086310b" target="_top" xlink:title=" ">
<polygon fill="white" stroke="#666666" points="1164,-508 1012.25,-508 1012.25,-476 1164,-476 1164,-508"/>
<text xml:space="preserve" text-anchor="start" x="1020.25" y="-494.5" font-family="Helvetica,sans-Serif" font-size="10.00">MainWindow::updateProperties</text>
<text xml:space="preserve" text-anchor="middle" x="1088.12" y="-482.5" font-family="Helvetica,sans-Serif" font-size="10.00">Panel</text>
</a>
</g>
</g>
<!-- Node6&#45;&gt;Node7 -->
<g id="edge7_Node000006_Node000007" class="edge">
<title>Node6&#45;&gt;Node7</title>
<g id="a_edge7_Node000006_Node000007"><a xlink:title=" ">
<path fill="none" stroke="#63b8ff" d="M1262.13,-222.67C1224.04,-281.97 1130.83,-427.08 1099.55,-475.77"/>
<polygon fill="#63b8ff" stroke="#63b8ff" points="1264.89,-224.86 1267.35,-214.55 1259,-221.08 1264.89,-224.86"/>
</a>
</g>
</g>
<!-- Node7&#45;&gt;Node2 -->
<g id="edge8_Node000007_Node000002" class="edge">
<title>Node7&#45;&gt;Node2</title>
<g id="a_edge8_Node000007_Node000002"><a xlink:title=" ">
<path fill="none" stroke="#63b8ff" d="M1175.41,-494.13C1252.62,-495.86 1368.92,-498 1470.12,-498 1667.75,-498 1667.75,-498 1667.75,-498 1810.46,-498 1957.02,-386.85 2007.9,-344.3"/>
<polygon fill="#63b8ff" stroke="#63b8ff" points="1175.89,-490.64 1165.82,-493.92 1175.73,-497.64 1175.89,-490.64"/>
</a>
</g>
</g>
<!-- Node8 -->
<g id="Node000008" class="node">
<title>Node8</title>
<g id="a_Node000008"><a xlink:href="class_main_window.html#a47fd0b86ddb5829e3b0cb15908671670" target="_top" xlink:title=" ">
<polygon fill="white" stroke="#666666" points="571.5,-276 398,-276 398,-256 571.5,-256 571.5,-276"/>
<text xml:space="preserve" text-anchor="middle" x="484.75" y="-262.5" font-family="Helvetica,sans-Serif" font-size="10.00">MainWindow::onCheckBoxChanged</text>
</a>
</g>
</g>
<!-- Node7&#45;&gt;Node8 -->
<g id="edge9_Node000007_Node000008" class="edge">
<title>Node7&#45;&gt;Node8</title>
<g id="a_edge9_Node000007_Node000008"><a xlink:title=" ">
<path fill="none" stroke="#63b8ff" d="M1070.67,-466.02C1051.04,-436.62 1015.85,-388.71 976.25,-357 896.89,-293.46 870.91,-277.53 772,-254 691.67,-234.89 595.16,-245.61 537.23,-255.51"/>
<polygon fill="#63b8ff" stroke="#63b8ff" points="1067.71,-467.88 1076.12,-474.32 1073.56,-464.04 1067.71,-467.88"/>
</a>
</g>
</g>
<!-- Node11 -->
<g id="Node000011" class="node">
<title>Node11</title>
<g id="a_Node000011"><a xlink:href="class_main_window.html#ac1e0c79708cf9aa9b7ca1a87697e5b34" target="_top" xlink:title=" ">
<polygon fill="white" stroke="#666666" points="573,-434 396.5,-434 396.5,-414 573,-414 573,-434"/>
<text xml:space="preserve" text-anchor="middle" x="484.75" y="-420.5" font-family="Helvetica,sans-Serif" font-size="10.00">MainWindow::onComboBoxChanged</text>
</a>
</g>
</g>
<!-- Node7&#45;&gt;Node11 -->
<g id="edge14_Node000007_Node000011" class="edge">
<title>Node7&#45;&gt;Node11</title>
<g id="a_edge14_Node000007_Node000011"><a xlink:title=" ">
<path fill="none" stroke="#63b8ff" d="M1000.58,-497.25C903.96,-501.12 743.51,-501.54 609,-473 570.93,-464.92 529.41,-446.16 505.59,-434.33"/>
<polygon fill="#63b8ff" stroke="#63b8ff" points="1000.68,-500.75 1010.52,-496.83 1000.38,-493.76 1000.68,-500.75"/>
</a>
</g>
</g>
<!-- Node15 -->
<g id="Node000015" class="node">
<title>Node15</title>
<g id="a_Node000015"><a xlink:href="class_main_window.html#a0e7ca45ac830893108871185dda813a4" target="_top" xlink:title=" ">
<polygon fill="white" stroke="#666666" points="772,-200 609,-200 609,-180 772,-180 772,-200"/>
<text xml:space="preserve" text-anchor="middle" x="690.5" y="-186.5" font-family="Helvetica,sans-Serif" font-size="10.00">MainWindow::onLineEditChanged</text>
</a>
</g>
</g>
<!-- Node7&#45;&gt;Node15 -->
<g id="edge21_Node000007_Node000015" class="edge">
<title>Node7&#45;&gt;Node15</title>
<g id="a_edge21_Node000007_Node000015"><a xlink:title=" ">
<path fill="none" stroke="#63b8ff" d="M1085.28,-464.26C1079.83,-406.77 1058.51,-274.95 976.25,-214 907.99,-163.42 803.63,-169.77 742.02,-179.52"/>
<polygon fill="#63b8ff" stroke="#63b8ff" points="1081.79,-464.47 1086.12,-474.14 1088.76,-463.88 1081.79,-464.47"/>
</a>
</g>
</g>
<!-- Node17 -->
<g id="Node000017" class="node">
<title>Node17</title>
<g id="a_Node000017"><a xlink:href="class_main_window.html#a1043995538765eae993ae75217c482e7" target="_top" xlink:title=" ">
<polygon fill="white" stroke="#666666" points="559.5,-631 410,-631 410,-599 559.5,-599 559.5,-631"/>
<text xml:space="preserve" text-anchor="start" x="418" y="-617.5" font-family="Helvetica,sans-Serif" font-size="10.00">MainWindow::onPropertyValue</text>
<text xml:space="preserve" text-anchor="middle" x="484.75" y="-605.5" font-family="Helvetica,sans-Serif" font-size="10.00">Changed</text>
</a>
</g>
</g>
<!-- Node7&#45;&gt;Node17 -->
<g id="edge24_Node000007_Node000017" class="edge">
<title>Node7&#45;&gt;Node17</title>
<g id="a_edge24_Node000007_Node000017"><a xlink:title=" ">
<path fill="none" stroke="#63b8ff" d="M1012.11,-513.54C994.72,-523.42 991.41,-529.53 976.25,-535 834.81,-586.01 657.91,-600.47 559.87,-607.36"/>
<polygon fill="#63b8ff" stroke="#63b8ff" points="1013.35,-516.85 1020.56,-509.08 1010.08,-510.66 1013.35,-516.85"/>
</a>
</g>
</g>
<!-- Node20 -->
<g id="Node000020" class="node">
<title>Node20</title>
<g id="a_Node000020"><a xlink:href="class_main_window.html#a95674d4bfc5fc2aad6df1601f23b1793" target="_top" xlink:title=" ">
<polygon fill="white" stroke="#666666" points="973.25,-722 811,-722 811,-690 973.25,-690 973.25,-722"/>
<text xml:space="preserve" text-anchor="start" x="819" y="-708.5" font-family="Helvetica,sans-Serif" font-size="10.00">MainWindow::onRemoveAttribute</text>
<text xml:space="preserve" text-anchor="middle" x="892.12" y="-696.5" font-family="Helvetica,sans-Serif" font-size="10.00">OnTreeClicked</text>
</a>
</g>
</g>
<!-- Node7&#45;&gt;Node20 -->
<g id="edge28_Node000007_Node000020" class="edge">
<title>Node7&#45;&gt;Node20</title>
<g id="a_edge28_Node000007_Node000020"><a xlink:title=" ">
<path fill="none" stroke="#63b8ff" d="M1019.44,-514.98C1016.84,-517.12 1014.42,-519.45 1012.25,-522 965.23,-577.13 1025.67,-628.02 976.25,-681 973.17,-684.31 969.66,-687.18 965.88,-689.68"/>
<polygon fill="#63b8ff" stroke="#63b8ff" points="1021.42,-517.87 1027.65,-509.31 1017.44,-512.12 1021.42,-517.87"/>
</a>
</g>
</g>
<!-- Node21 -->
<g id="Node000021" class="node">
<title>Node21</title>
<g id="a_Node000021"><a xlink:href="class_main_window.html#a44791b85064ecff42c12429c6667e83b" target="_top" xlink:title=" ">
<polygon fill="white" stroke="#666666" points="976.25,-672 808,-672 808,-652 976.25,-652 976.25,-672"/>
<text xml:space="preserve" text-anchor="middle" x="892.12" y="-658.5" font-family="Helvetica,sans-Serif" font-size="10.00">MainWindow::onSelectionChanged</text>
</a>
</g>
</g>
<!-- Node7&#45;&gt;Node21 -->
<g id="edge30_Node000007_Node000021" class="edge">
<title>Node7&#45;&gt;Node21</title>
<g id="a_edge30_Node000007_Node000021"><a xlink:title=" ">
<path fill="none" stroke="#63b8ff" d="M1020.56,-514.53C1017.56,-516.79 1014.77,-519.27 1012.25,-522 975.64,-561.67 1014.8,-600.21 976.25,-638 970.35,-643.78 963.15,-648.19 955.48,-651.54"/>
<polygon fill="#63b8ff" stroke="#63b8ff" points="1022.28,-517.58 1028.77,-509.21 1018.48,-511.71 1022.28,-517.58"/>
</a>
</g>
</g>
<!-- Node22 -->
<g id="Node000022" class="node">
<title>Node22</title>
<g id="a_Node000022"><a xlink:href="class_main_window.html#af380eeda83d30cd1ecb1419cfd5161d7" target="_top" xlink:title=" ">
<polygon fill="white" stroke="#666666" points="959,-398 825.25,-398 825.25,-366 959,-366 959,-398"/>
<text xml:space="preserve" text-anchor="start" x="833.25" y="-384.5" font-family="Helvetica,sans-Serif" font-size="10.00">MainWindow::updatesAfter</text>
<text xml:space="preserve" text-anchor="middle" x="892.12" y="-372.5" font-family="Helvetica,sans-Serif" font-size="10.00">ChangingProperty</text>
</a>
</g>
</g>
<!-- Node7&#45;&gt;Node22 -->
<g id="edge32_Node000007_Node000022" class="edge">
<title>Node7&#45;&gt;Node22</title>
<g id="a_edge32_Node000007_Node000022"><a xlink:title=" ">
<path fill="none" stroke="#63b8ff" d="M1048.08,-469.86C1010.81,-448.73 955.53,-417.38 922.05,-398.4"/>
<polygon fill="#63b8ff" stroke="#63b8ff" points="1046.34,-472.9 1056.76,-474.79 1049.79,-466.81 1046.34,-472.9"/>
</a>
</g>
</g>
<!-- Node9 -->
<g id="Node000009" class="node">
<title>Node9</title>
<g id="a_Node000009"><a xlink:href="class_main_window.html#a44aaf7bb6d9a56f53b8a7a9e4fc29f8c" target="_top" xlink:title=" ">
<polygon fill="white" stroke="#666666" points="358.25,-136 207.25,-136 207.25,-104 358.25,-104 358.25,-136"/>
<text xml:space="preserve" text-anchor="start" x="215.25" y="-122.5" font-family="Helvetica,sans-Serif" font-size="10.00">MainWindow::createCheckBox</text>
<text xml:space="preserve" text-anchor="middle" x="282.75" y="-110.5" font-family="Helvetica,sans-Serif" font-size="10.00">PropertyItem</text>
</a>
</g>
</g>
<!-- Node8&#45;&gt;Node9 -->
<g id="edge10_Node000008_Node000009" class="edge">
<title>Node8&#45;&gt;Node9</title>
<g id="a_edge10_Node000008_Node000009"><a xlink:title=" ">
<path fill="none" stroke="#63b8ff" d="M448.05,-250.93C431.59,-243.17 412.26,-232.84 396.5,-221 377.9,-207.03 377.52,-198.86 360.5,-183 342.59,-166.32 320.93,-148.76 305.2,-136.43"/>
<polygon fill="#63b8ff" stroke="#63b8ff" points="446.45,-254.05 457,-255.03 449.36,-247.69 446.45,-254.05"/>
</a>
</g>
</g>
<!-- Node9&#45;&gt;Node5 -->
<g id="edge11_Node000009_Node000005" class="edge">
<title>Node9&#45;&gt;Node5</title>
<g id="a_edge11_Node000009_Node000005"><a xlink:title=" ">
<path fill="none" stroke="#63b8ff" d="M369.81,-117.99C451.94,-116.25 579.15,-114 689.5,-114 1089.12,-114 1089.12,-114 1089.12,-114 1195.57,-114 1318.04,-127.71 1394.77,-137.97"/>
<polygon fill="#63b8ff" stroke="#63b8ff" points="369.96,-114.49 360.04,-118.2 370.11,-121.48 369.96,-114.49"/>
</a>
</g>
</g>
<!-- Node9&#45;&gt;Node10 -->
<g id="edge12_Node000009_Node000010" class="edge">
<title>Node9&#45;&gt;Node10</title>
<g id="a_edge12_Node000009_Node000010"><a xlink:title=" ">
<path fill="none" stroke="#63b8ff" d="M195.59,-110.34C186.83,-109.36 177.95,-108.36 169.22,-107.39"/>
<polygon fill="#63b8ff" stroke="#63b8ff" points="195.16,-113.82 205.49,-111.45 195.94,-106.86 195.16,-113.82"/>
</a>
</g>
</g>
<!-- Node10&#45;&gt;Node6 -->
<g id="edge13_Node000010_Node000006" class="edge">
<title>Node10&#45;&gt;Node6</title>
<g id="a_edge13_Node000010_Node000006"><a xlink:title=" ">
<path fill="none" stroke="#63b8ff" d="M180.45,-89.8C261.09,-83.55 379.92,-76 483.75,-76 691.5,-76 691.5,-76 691.5,-76 896.26,-76 1133.08,-147.47 1231.74,-180.56"/>
<polygon fill="#63b8ff" stroke="#63b8ff" points="180.54,-86.28 170.84,-90.56 181.09,-93.26 180.54,-86.28"/>
</a>
</g>
</g>
<!-- Node12 -->
<g id="Node000012" class="node">
<title>Node12</title>
<g id="a_Node000012"><a xlink:href="class_main_window.html#a872e6a76dcbf858ae9d483eceddf90e1" target="_top" xlink:title=" ">
<polygon fill="white" stroke="#666666" points="359.75,-224 205.75,-224 205.75,-192 359.75,-192 359.75,-224"/>
<text xml:space="preserve" text-anchor="start" x="213.75" y="-210.5" font-family="Helvetica,sans-Serif" font-size="10.00">MainWindow::createComboBox</text>
<text xml:space="preserve" text-anchor="middle" x="282.75" y="-198.5" font-family="Helvetica,sans-Serif" font-size="10.00">PropertyItem</text>
</a>
</g>
</g>
<!-- Node11&#45;&gt;Node12 -->
<g id="edge15_Node000011_Node000012" class="edge">
<title>Node11&#45;&gt;Node12</title>
<g id="a_edge15_Node000011_Node000012"><a xlink:title=" ">
<path fill="none" stroke="#63b8ff" d="M466.31,-405.16C427.7,-363.46 335.53,-263.92 299.02,-224.49"/>
<polygon fill="#63b8ff" stroke="#63b8ff" points="463.71,-407.51 473.08,-412.47 468.85,-402.76 463.71,-407.51"/>
</a>
</g>
</g>
<!-- Node13 -->
<g id="Node000013" class="node">
<title>Node13</title>
<g id="a_Node000013"><a xlink:href="class_main_window.html#abae03a6494d13d74ed1b2e31ec1f2fc7" target="_top" xlink:title=" ">
<polygon fill="white" stroke="#666666" points="360.5,-461 205,-461 205,-429 360.5,-429 360.5,-461"/>
<text xml:space="preserve" text-anchor="start" x="213" y="-447.5" font-family="Helvetica,sans-Serif" font-size="10.00">MainWindow::createIconCombo</text>
<text xml:space="preserve" text-anchor="middle" x="282.75" y="-435.5" font-family="Helvetica,sans-Serif" font-size="10.00">BoxPropertyItem</text>
</a>
</g>
</g>
<!-- Node11&#45;&gt;Node13 -->
<g id="edge18_Node000011_Node000013" class="edge">
<title>Node11&#45;&gt;Node13</title>
<g id="a_edge18_Node000011_Node000013"><a xlink:title=" ">
<path fill="none" stroke="#63b8ff" d="M384.68,-434.4C376.64,-435.25 368.59,-436.09 360.74,-436.92"/>
<polygon fill="#63b8ff" stroke="#63b8ff" points="384.94,-437.89 394.52,-433.37 384.21,-430.93 384.94,-437.89"/>
</a>
</g>
</g>
<!-- Node12&#45;&gt;Node5 -->
<g id="edge16_Node000012_Node000005" class="edge">
<title>Node12&#45;&gt;Node5</title>
<g id="a_edge16_Node000012_Node000005"><a xlink:title=" ">
<path fill="none" stroke="#63b8ff" d="M336.09,-187.78C354.87,-181.34 376.38,-174.89 396.5,-171 524.62,-146.24 559,-152 689.5,-152 1089.12,-152 1089.12,-152 1089.12,-152 1195.29,-152 1318.1,-150.82 1394.94,-149.94"/>
<polygon fill="#63b8ff" stroke="#63b8ff" points="335.08,-184.43 326.81,-191.05 337.4,-191.03 335.08,-184.43"/>
</a>
</g>
</g>
<!-- Node12&#45;&gt;Node10 -->
<g id="edge17_Node000012_Node000010" class="edge">
<title>Node12&#45;&gt;Node10</title>
<g id="a_edge17_Node000012_Node000010"><a xlink:title=" ">
<path fill="none" stroke="#63b8ff" d="M224.37,-187.16C217.74,-184.29 211.16,-181.22 205,-178 168.71,-159.05 129.87,-131.54 106.65,-114.23"/>
<polygon fill="#63b8ff" stroke="#63b8ff" points="222.79,-190.3 233.36,-190.92 225.48,-183.84 222.79,-190.3"/>
</a>
</g>
</g>
<!-- Node14 -->
<g id="Node000014" class="node">
<title>Node14</title>
<g id="a_Node000014"><a xlink:href="class_main_window.html#af02df1238ccf49caa1c4099c88dfe465" target="_top" xlink:title=" ">
<polygon fill="white" stroke="#666666" points="164.12,-524 4.88,-524 4.88,-492 164.12,-492 164.12,-524"/>
<text xml:space="preserve" text-anchor="start" x="12.88" y="-510.5" font-family="Helvetica,sans-Serif" font-size="10.00">MainWindow::populateProperties</text>
<text xml:space="preserve" text-anchor="middle" x="84.5" y="-498.5" font-family="Helvetica,sans-Serif" font-size="10.00">ForConnection</text>
</a>
</g>
</g>
<!-- Node13&#45;&gt;Node14 -->
<g id="edge19_Node000013_Node000014" class="edge">
<title>Node13&#45;&gt;Node14</title>
<g id="a_edge19_Node000013_Node000014"><a xlink:title=" ">
<path fill="none" stroke="#63b8ff" d="M219.68,-464.93C193.01,-473.49 162.21,-483.38 136.85,-491.52"/>
<polygon fill="#63b8ff" stroke="#63b8ff" points="220.55,-468.32 229,-461.93 218.41,-461.66 220.55,-468.32"/>
</a>
</g>
</g>
<!-- Node14&#45;&gt;Node7 -->
<g id="edge20_Node000014_Node000007" class="edge">
<title>Node14&#45;&gt;Node7</title>
<g id="a_edge20_Node000014_Node000007"><a xlink:title=" ">
<path fill="none" stroke="#63b8ff" d="M175.5,-515.81C256.16,-522.14 377.77,-530 483.75,-530 691.5,-530 691.5,-530 691.5,-530 818.31,-530 850.37,-527.28 976.25,-512 987.8,-510.6 999.98,-508.77 1011.85,-506.78"/>
<polygon fill="#63b8ff" stroke="#63b8ff" points="176.15,-512.35 165.9,-515.05 175.59,-519.33 176.15,-512.35"/>
</a>
</g>
</g>
<!-- Node16 -->
<g id="Node000016" class="node">
<title>Node16</title>
<g id="a_Node000016"><a xlink:href="class_main_window.html#ae3b6600dd59da1822ef94bbd5f37f0cc" target="_top" xlink:title=" ">
<polygon fill="white" stroke="#666666" points="555,-212 414.5,-212 414.5,-180 555,-180 555,-212"/>
<text xml:space="preserve" text-anchor="start" x="422.5" y="-198.5" font-family="Helvetica,sans-Serif" font-size="10.00">MainWindow::createLineEdit</text>
<text xml:space="preserve" text-anchor="middle" x="484.75" y="-186.5" font-family="Helvetica,sans-Serif" font-size="10.00">PropertyItem</text>
</a>
</g>
</g>
<!-- Node15&#45;&gt;Node16 -->
<g id="edge22_Node000015_Node000016" class="edge">
<title>Node15&#45;&gt;Node16</title>
<g id="a_edge22_Node000015_Node000016"><a xlink:title=" ">
<path fill="none" stroke="#63b8ff" d="M597.4,-192.71C583.25,-193.13 568.84,-193.55 555.29,-193.95"/>
<polygon fill="#63b8ff" stroke="#63b8ff" points="597.27,-196.22 607.17,-192.42 597.07,-189.22 597.27,-196.22"/>
</a>
</g>
</g>
<!-- Node16&#45;&gt;Node10 -->
<g id="edge23_Node000016_Node000010" class="edge">
<title>Node16&#45;&gt;Node10</title>
<g id="a_edge23_Node000016_Node000010"><a xlink:title=" ">
<path fill="none" stroke="#63b8ff" d="M402.85,-185.43C346.7,-177.08 270.51,-163.68 205,-145 176.49,-136.87 145.35,-124.5 122,-114.49"/>
<polygon fill="#63b8ff" stroke="#63b8ff" points="402.26,-188.89 412.66,-186.87 403.28,-181.96 402.26,-188.89"/>
</a>
</g>
</g>
<!-- Node17&#45;&gt;Node7 -->
<g id="edge27_Node000017_Node000007" class="edge">
<title>Node17&#45;&gt;Node7</title>
<g id="a_edge27_Node000017_Node000007"><a xlink:title=" ">
<path fill="none" stroke="#63b8ff" d="M571.1,-619.45C670.99,-617.34 840.06,-602.12 976.25,-553 993.89,-546.64 995.49,-539.41 1012.25,-531 1028.65,-522.78 1047.87,-515.11 1062.73,-508.39"/>
<polygon fill="#63b8ff" stroke="#63b8ff" points="571.32,-615.95 561.38,-619.61 571.44,-622.95 571.32,-615.95"/>
</a>
</g>
</g>
<!-- Node18 -->
<g id="Node000018" class="node">
<title>Node18</title>
<g id="a_Node000018"><a xlink:href="class_main_window.html#adfa32feecffce3959c99d145fc8b4854" target="_top" xlink:title=" ">
<polygon fill="white" stroke="#666666" points="355.25,-648 210.25,-648 210.25,-628 355.25,-628 355.25,-648"/>
<text xml:space="preserve" text-anchor="middle" x="282.75" y="-634.5" font-family="Helvetica,sans-Serif" font-size="10.00">MainWindow::connectSignals</text>
</a>
</g>
</g>
<!-- Node17&#45;&gt;Node18 -->
<g id="edge25_Node000017_Node000018" class="edge">
<title>Node17&#45;&gt;Node18</title>
<g id="a_edge25_Node000017_Node000018"><a xlink:title=" ">
<path fill="none" stroke="#63b8ff" d="M398.24,-624.83C384,-626.47 369.35,-628.16 355.49,-629.75"/>
<polygon fill="#63b8ff" stroke="#63b8ff" points="398.52,-628.32 408.06,-623.7 397.72,-621.37 398.52,-628.32"/>
</a>
</g>
</g>
<!-- Node19 -->
<g id="Node000019" class="node">
<title>Node19</title>
<g id="a_Node000019"><a xlink:href="class_main_window.html#a996c5a2b6f77944776856f08ec30858d" target="_top" xlink:title=" ">
<polygon fill="white" stroke="#666666" points="151.75,-648 17.25,-648 17.25,-628 151.75,-628 151.75,-648"/>
<text xml:space="preserve" text-anchor="middle" x="84.5" y="-634.5" font-family="Helvetica,sans-Serif" font-size="10.00">MainWindow::MainWindow</text>
</a>
</g>
</g>
<!-- Node18&#45;&gt;Node19 -->
<g id="edge26_Node000018_Node000019" class="edge">
<title>Node18&#45;&gt;Node19</title>
<g id="a_edge26_Node000018_Node000019"><a xlink:title=" ">
<path fill="none" stroke="#63b8ff" d="M198.63,-638C183.15,-638 167.15,-638 152.24,-638"/>
<polygon fill="#63b8ff" stroke="#63b8ff" points="198.27,-641.5 208.27,-638 198.27,-634.5 198.27,-641.5"/>
</a>
</g>
</g>
<!-- Node20&#45;&gt;Node3 -->
<g id="edge29_Node000020_Node000003" class="edge">
<title>Node20&#45;&gt;Node3</title>
<g id="a_edge29_Node000020_Node000003"><a xlink:title=" ">
<path fill="none" stroke="#63b8ff" d="M964.42,-685.73C968.46,-684.22 972.43,-682.64 976.25,-681 1332.84,-527.79 1728.26,-264.64 1828.36,-196.5"/>
<polygon fill="#63b8ff" stroke="#63b8ff" points="963.31,-682.41 955.06,-689.06 965.66,-689.01 963.31,-682.41"/>
</a>
</g>
</g>
<!-- Node21&#45;&gt;Node18 -->
<g id="edge31_Node000021_Node000018" class="edge">
<title>Node21&#45;&gt;Node18</title>
<g id="a_edge31_Node000021_Node000018"><a xlink:title=" ">
<path fill="none" stroke="#63b8ff" d="M796.46,-658.26C674.47,-653.44 465.07,-645.16 355.44,-640.83"/>
<polygon fill="#63b8ff" stroke="#63b8ff" points="795.99,-661.74 806.12,-658.64 796.26,-654.75 795.99,-661.74"/>
</a>
</g>
</g>
<!-- Node22&#45;&gt;Node8 -->
<g id="edge41_Node000022_Node000008" class="edge">
<title>Node22&#45;&gt;Node8</title>
<g id="a_edge41_Node000022_Node000008"><a xlink:title=" ">
<path fill="none" stroke="#63b8ff" d="M869.66,-357.34C847.73,-334.07 811.39,-300.5 772,-285 708.16,-259.88 630.14,-256.29 571.69,-258.34"/>
<polygon fill="#63b8ff" stroke="#63b8ff" points="866.97,-359.58 876.31,-364.58 872.12,-354.85 866.97,-359.58"/>
</a>
</g>
</g>
<!-- Node22&#45;&gt;Node11 -->
<g id="edge42_Node000022_Node000011" class="edge">
<title>Node22&#45;&gt;Node11</title>
<g id="a_edge42_Node000022_Node000011"><a xlink:title=" ">
<path fill="none" stroke="#63b8ff" d="M813.93,-390C745.3,-397.11 645,-407.5 573.38,-414.92"/>
<polygon fill="#63b8ff" stroke="#63b8ff" points="814,-393.51 823.59,-389 813.28,-386.55 814,-393.51"/>
</a>
</g>
</g>
<!-- Node22&#45;&gt;Node15 -->
<g id="edge43_Node000022_Node000015" class="edge">
<title>Node22&#45;&gt;Node15</title>
<g id="a_edge43_Node000022_Node000015"><a xlink:title=" ">
<path fill="none" stroke="#63b8ff" d="M870.53,-357.06C847.67,-329.98 809.08,-286.04 772,-252 750.56,-232.32 723.31,-212.25 706.66,-200.47"/>
<polygon fill="#63b8ff" stroke="#63b8ff" points="867.58,-358.98 876.68,-364.4 872.94,-354.49 867.58,-358.98"/>
</a>
</g>
</g>
<!-- Node22&#45;&gt;Node17 -->
<g id="edge44_Node000022_Node000017" class="edge">
<title>Node22&#45;&gt;Node17</title>
<g id="a_edge44_Node000022_Node000017"><a xlink:title=" ">
<path fill="none" stroke="#63b8ff" d="M863.44,-405.59C839.97,-424.98 804.97,-452.49 772,-473 687.44,-525.59 580.73,-574.24 524.51,-598.63"/>
<polygon fill="#63b8ff" stroke="#63b8ff" points="865.54,-408.4 870.98,-399.31 861.06,-403.02 865.54,-408.4"/>
</a>
</g>
</g>
<!-- Node23 -->
<g id="Node000023" class="node">
<title>Node23</title>
<g id="a_Node000023"><a xlink:href="class_main_window.html#a9ed390421f6755b891cfc651d173db7b" target="_top" xlink:title=" ">
<polygon fill="white" stroke="#666666" points="762.25,-464 618.75,-464 618.75,-432 762.25,-432 762.25,-464"/>
<text xml:space="preserve" text-anchor="start" x="626.75" y="-450.5" font-family="Helvetica,sans-Serif" font-size="10.00">MainWindow::handleAttribute</text>
<text xml:space="preserve" text-anchor="middle" x="690.5" y="-438.5" font-family="Helvetica,sans-Serif" font-size="10.00">PropertyChange</text>
</a>
</g>
</g>
<!-- Node22&#45;&gt;Node23 -->
<g id="edge33_Node000022_Node000023" class="edge">
<title>Node22&#45;&gt;Node23</title>
<g id="a_edge33_Node000022_Node000023"><a xlink:title=" ">
<path fill="none" stroke="#63b8ff" d="M830.57,-402.02C801.93,-411.49 768.16,-422.66 741.07,-431.61"/>
<polygon fill="#63b8ff" stroke="#63b8ff" points="831.43,-405.42 839.83,-398.96 829.24,-398.78 831.43,-405.42"/>
</a>
</g>
</g>
<!-- Node24 -->
<g id="Node000024" class="node">
<title>Node24</title>
<g id="a_Node000024"><a xlink:href="class_main_window.html#aa69c4b7c558b2fb3922adf75af48330a" target="_top" xlink:title=" ">
<polygon fill="white" stroke="#666666" points="770.88,-376 610.12,-376 610.12,-344 770.88,-344 770.88,-376"/>
<text xml:space="preserve" text-anchor="start" x="618.12" y="-362.5" font-family="Helvetica,sans-Serif" font-size="10.00">MainWindow::handleRelationship</text>
<text xml:space="preserve" text-anchor="middle" x="690.5" y="-350.5" font-family="Helvetica,sans-Serif" font-size="10.00">EndCardinalityChange</text>
</a>
</g>
</g>
<!-- Node22&#45;&gt;Node24 -->
<g id="edge37_Node000022_Node000024" class="edge">
<title>Node22&#45;&gt;Node24</title>
<g id="a_edge37_Node000022_Node000024"><a xlink:title=" ">
<path fill="none" stroke="#63b8ff" d="M813.83,-373.48C799.8,-371.94 785.14,-370.32 771.05,-368.77"/>
<polygon fill="#63b8ff" stroke="#63b8ff" points="813.1,-376.92 823.43,-374.54 813.87,-369.96 813.1,-376.92"/>
</a>
</g>
</g>
<!-- Node25 -->
<g id="Node000025" class="node">
<title>Node25</title>
<g id="a_Node000025"><a xlink:href="class_main_window.html#a96d575a529f7c24b1b5094b4b1e42742" target="_top" xlink:title=" ">
<polygon fill="white" stroke="#666666" points="770.88,-326 610.12,-326 610.12,-294 770.88,-294 770.88,-326"/>
<text xml:space="preserve" text-anchor="start" x="618.12" y="-312.5" font-family="Helvetica,sans-Serif" font-size="10.00">MainWindow::handleRelationship</text>
<text xml:space="preserve" text-anchor="middle" x="690.5" y="-300.5" font-family="Helvetica,sans-Serif" font-size="10.00">EndParticipationChange</text>
</a>
</g>
</g>
<!-- Node22&#45;&gt;Node25 -->
<g id="edge39_Node000022_Node000025" class="edge">
<title>Node22&#45;&gt;Node25</title>
<g id="a_edge39_Node000022_Node000025"><a xlink:title=" ">
<path fill="none" stroke="#63b8ff" d="M841.3,-361.38C820.08,-352.85 794.96,-343.08 772,-335 763.72,-332.08 754.9,-329.16 746.24,-326.4"/>
<polygon fill="#63b8ff" stroke="#63b8ff" points="839.71,-364.51 850.29,-365.02 842.33,-358.02 839.71,-364.51"/>
</a>
</g>
</g>
<!-- Node23&#45;&gt;Node8 -->
<g id="edge34_Node000023_Node000008" class="edge">
<title>Node23&#45;&gt;Node8</title>
<g id="a_edge34_Node000023_Node000008"><a xlink:title=" ">
<path fill="none" stroke="#63b8ff" d="M658.48,-424.92C643.27,-413.31 624.86,-398.79 609,-385 565.02,-346.74 516.14,-297.31 495.64,-276.24"/>
<polygon fill="#63b8ff" stroke="#63b8ff" points="656.19,-427.58 666.28,-430.83 660.42,-422 656.19,-427.58"/>
</a>
</g>
</g>
<!-- Node23&#45;&gt;Node11 -->
<g id="edge35_Node000023_Node000011" class="edge">
<title>Node23&#45;&gt;Node11</title>
<g id="a_edge35_Node000023_Node000011"><a xlink:title=" ">
<path fill="none" stroke="#63b8ff" d="M607.43,-438.33C596.21,-437.01 584.65,-435.65 573.33,-434.32"/>
<polygon fill="#63b8ff" stroke="#63b8ff" points="606.68,-441.77 617.02,-439.46 607.5,-434.82 606.68,-441.77"/>
</a>
</g>
</g>
<!-- Node23&#45;&gt;Node17 -->
<g id="edge36_Node000023_Node000017" class="edge">
<title>Node23&#45;&gt;Node17</title>
<g id="a_edge36_Node000023_Node000017"><a xlink:title=" ">
<path fill="none" stroke="#63b8ff" d="M660.71,-471.6C618.79,-505.95 542.01,-568.89 505.74,-598.62"/>
<polygon fill="#63b8ff" stroke="#63b8ff" points="662.91,-474.32 668.42,-465.28 658.47,-468.91 662.91,-474.32"/>
</a>
</g>
</g>
<!-- Node24&#45;&gt;Node11 -->
<g id="edge38_Node000024_Node000011" class="edge">
<title>Node24&#45;&gt;Node11</title>
<g id="a_edge38_Node000024_Node000011"><a xlink:title=" ">
<path fill="none" stroke="#63b8ff" d="M626.27,-379.86C590.75,-391.02 547.88,-404.48 518.9,-413.59"/>
<polygon fill="#63b8ff" stroke="#63b8ff" points="627.09,-383.27 635.59,-376.94 625,-376.59 627.09,-383.27"/>
</a>
</g>
</g>
<!-- Node25&#45;&gt;Node8 -->
<g id="edge40_Node000025_Node000008" class="edge">
<title>Node25&#45;&gt;Node8</title>
<g id="a_edge40_Node000025_Node000008"><a xlink:title=" ">
<path fill="none" stroke="#63b8ff" d="M602.37,-291.19C579.08,-286.16 554.74,-280.9 534.36,-276.5"/>
<polygon fill="#63b8ff" stroke="#63b8ff" points="601.35,-294.54 611.86,-293.23 602.83,-287.7 601.35,-294.54"/>
</a>
</g>
</g>
<!-- Node26&#45;&gt;Node6 -->
<g id="edge46_Node000026_Node000006" class="edge">
<title>Node26&#45;&gt;Node6</title>
<g id="a_edge46_Node000026_Node000006"><a xlink:title=" ">
<path fill="none" stroke="#63b8ff" d="M1389.26,-198.15C1379.47,-198.04 1369.48,-197.94 1359.72,-197.83"/>
<polygon fill="#63b8ff" stroke="#63b8ff" points="1389.09,-201.64 1399.12,-198.25 1389.16,-194.65 1389.09,-201.64"/>
</a>
</g>
</g>
</g>
</svg>

<g id="navigator" transform="translate(0 0)" fill="#404254">
  <rect fill="#f2f5e9" fill-opacity="0.5" stroke="#606060" stroke-width=".5" x="0" y="0" width="60" height="60"/>
  <use id="zoomplus" xlink:href="#zoomPlus" x="17" y="9" onmousedown="handleZoom(evt,'in')"/>
  <use id="zoomminus" xlink:href="#zoomMin" x="42" y="9" onmousedown="handleZoom(evt,'out')"/>
  <use id="reset" xlink:href="#resetDef" x="30" y="36" onmousedown="handleReset()"/>
   <use id="arrowup" xlink:href="#arrowUp" x="0" y="0" onmousedown="handlePan(0,-1)"/>
  <use id="arrowright" xlink:href="#arrowRight" x="0" y="0" onmousedown="handlePan(1,0)"/>
  <use id="arrowdown" xlink:href="#arrowDown" x="0" y="0" onmousedown="handlePan(0,1)"/>
  <use id="arrowleft" xlink:href="#arrowLeft" x="0" y="0" onmousedown="handlePan(-1,0)"/>
</g>
<svg viewBox="0 0 15 15" width="100%" height="30px" preserveAspectRatio="xMaxYMin meet">
 <g id="arrow_out" transform="scale(0.3 0.3)">
  <a xlink:href="class_main_window_ac04f23b4022200626a309e71dc5eae5b_icgraph_org.svg" target="_base">
   <rect id="button" ry="5" rx="5" y="6" x="6" height="38" width="38"
        fill="#f2f5e9" fill-opacity="0.5" stroke="#606060" stroke-width="1.0"/>
   <path id="arrow"
     d="M 11.500037,31.436501 C 11.940474,20.09759 22.043105,11.32322 32.158766,21.979434 L 37.068811,17.246167 C 37.068811,17.246167 37.088388,32 37.088388,32 L 22.160133,31.978069 C 22.160133,31.978069 26.997745,27.140456 26.997745,27.140456 C 18.528582,18.264221 13.291696,25.230495 11.500037,31.436501 z"
     style="fill:#404040;"/>
  </a>
 </g>
</svg>

<style type='text/css'>
<![CDATA[
[data-mouse-over-selected='false'] { opacity: 0.7; }
[data-mouse-over-selected='true']  { opacity: 1.0; }
]]>
</style>
<script type="application/ecmascript"><![CDATA[
document.addEventListener('DOMContentLoaded', (event) => {
  highlightEdges();
  highlightAdjacentNodes();
});
]]></script>
</svg>
