<?xml version="1.0" encoding="UTF-8" standalone="no"?>
<!DOCTYPE svg PUBLIC "-//W3C//DTD SVG 1.1//EN"
 "http://www.w3.org/Graphics/SVG/1.1/DTD/svg11.dtd">
<!-- Generated by graphviz version 14.1.1 (20251213.1925)
 -->
<!-- Title: MainWindow::populateEntityProperties Pages: 1 -->
<!--zoomable 765 -->

<svg id="main" version="1.1" xmlns="http://www.w3.org/2000/svg" xmlns:xlink="http://www.w3.org/1999/xlink" xml:space="preserve" onload="init(evt)">

<style type="text/css"><![CDATA[
.node, .edge {opacity: 0.7;}
.node.selected, .edge.selected {opacity: 1;}
.edge:hover path { stroke: red; }
.edge:hover polygon { stroke: red; fill: red; }
]]></style>

<defs>
  <circle id="rim" cx="0" cy="0" r="7"/>
  <circle id="rim2" cx="0" cy="0" r="3.5"/>
  <g id="zoomPlus">
    <use xlink:href="#rim" fill="#404040"><set attributeName="fill" to="#808080" begin="zoomplus.mouseover" end="zoomplus.mouseout"/></use>
    <path d="M-4,0h8M0,-4v8" fill="none" stroke="white" stroke-width="1.5" pointer-events="none"/>
  </g>
  <g id="zoomMin">
    <use xlink:href="#rim" fill="#404040"><set attributeName="fill" to="#808080" begin="zoomminus.mouseover" end="zoomminus.mouseout"/></use>
    <path d="M-4,0h8" fill="none" stroke="white" stroke-width="1.5" pointer-events="none"/>
  </g>
  <g id="arrowUp" transform="translate(30 24)">
    <use xlink:href="#rim"/>
    <path pointer-events="none" fill="none" stroke="white" stroke-width="1.5" d="M0,-3.0v7 M-2.5,-0.5L0,-3.0L2.5,-0.5"/>
  </g>
  <g id="arrowRight" transform="rotate(90) translate(36 -43)">
    <use xlink:href="#rim"/>
    <path pointer-events="none" fill="none" stroke="white" stroke-width="1.5" d="M0,-3.0v7 M-2.5,-0.5L0,-3.0L2.5,-0.5"/>
  </g>
  <g id="arrowDown" transform="rotate(180) translate(-30 -48)">
    <use xlink:href="#rim"/>
    <path pointer-events="none" fill="none" stroke="white" stroke-width="1.5" d="M0,-3.0v7 M-2.5,-0.5L0,-3.0L2.5,-0.5"/>
  </g>
  <g id="arrowLeft" transform="rotate(270) translate(-36 17)">
    <use xlink:href="#rim"/>
    <path pointer-events="none" fill="none" stroke="white" stroke-width="1.5" d="M0,-3.0v7 M-2.5,-0.5L0,-3.0L2.5,-0.5"/>
  </g>
  <g id="resetDef">
    <use xlink:href="#rim2" fill="#404040"><set attributeName="fill" to="#808080" begin="reset.mouseover" end="reset.mouseout"/></use>
  </g>
</defs>
<script type="application/ecmascript">
var viewWidth = 1556;
var viewHeight = 765;
var sectionId = 'dynsection-87';
</script>
<script type="application/ecmascript" xlink:href="svg.min.js"/>
<svg id="graph" class="graph">
<g id="viewport">
<title>MainWindow::populateEntityProperties</title>
<!-- Node1 -->
<g id="Node000001" class="node">
<title>Node1</title>
<g id="a_Node000001"><a xlink:title=" ">
<polygon fill="#999999" stroke="#666666" points="1547.75,-106 1407.25,-106 1407.25,-74 1547.75,-74 1547.75,-106"/>
<text xml:space="preserve" text-anchor="start" x="1415.25" y="-92.5" font-family="Helvetica,sans-Serif" font-size="10.00">MainWindow::populateEntity</text>
<text xml:space="preserve" text-anchor="middle" x="1477.5" y="-80.5" font-family="Helvetica,sans-Serif" font-size="10.00">Properties</text>
</a>
</g>
</g>
<!-- Node2 -->
<g id="Node000002" class="node">
<title>Node2</title>
<g id="a_Node000002"><a xlink:href="class_main_window.html#add7e6ae12287854ff779bd4b5649dd98" target="_top" xlink:title=" ">
<polygon fill="white" stroke="#666666" points="1371.25,-221 1212,-221 1212,-189 1371.25,-189 1371.25,-221"/>
<text xml:space="preserve" text-anchor="start" x="1220" y="-207.5" font-family="Helvetica,sans-Serif" font-size="10.00">MainWindow::populateProperties</text>
<text xml:space="preserve" text-anchor="middle" x="1291.62" y="-195.5" font-family="Helvetica,sans-Serif" font-size="10.00">ForElement</text>
</a>
</g>
</g>
<!-- Node1&#45;&gt;Node2 -->
<g id="edge1_Node000001_Node000002" class="edge">
<title>Node1&#45;&gt;Node2</title>
<g id="a_edge1_Node000001_Node000002"><a xlink:title=" ">
<path fill="none" stroke="#63b8ff" d="M1440.59,-112.46C1404.85,-134.81 1350.85,-168.59 1318.92,-188.55"/>
<polygon fill="#63b8ff" stroke="#63b8ff" points="1442.25,-115.55 1448.87,-107.28 1438.54,-109.61 1442.25,-115.55"/>
</a>
</g>
</g>
<!-- Node3 -->
<g id="Node000003" class="node">
<title>Node3</title>
<g id="a_Node000003"><a xlink:href="class_main_window.html#a5caeae304b10e5cd9f83ef5c6086310b" target="_top" xlink:title=" ">
<polygon fill="white" stroke="#666666" points="1176,-291 1024.25,-291 1024.25,-259 1176,-259 1176,-291"/>
<text xml:space="preserve" text-anchor="start" x="1032.25" y="-277.5" font-family="Helvetica,sans-Serif" font-size="10.00">MainWindow::updateProperties</text>
<text xml:space="preserve" text-anchor="middle" x="1100.12" y="-265.5" font-family="Helvetica,sans-Serif" font-size="10.00">Panel</text>
</a>
</g>
</g>
<!-- Node2&#45;&gt;Node3 -->
<g id="edge2_Node000002_Node000003" class="edge">
<title>Node2&#45;&gt;Node3</title>
<g id="a_edge2_Node000002_Node000003"><a xlink:title=" ">
<path fill="none" stroke="#63b8ff" d="M1235.55,-225.34C1206.96,-235.91 1172.48,-248.64 1145.6,-258.57"/>
<polygon fill="#63b8ff" stroke="#63b8ff" points="1236.61,-228.68 1244.78,-221.94 1234.18,-222.12 1236.61,-228.68"/>
</a>
</g>
</g>
<!-- Node4 -->
<g id="Node000004" class="node">
<title>Node4</title>
<g id="a_Node000004"><a xlink:href="class_main_window.html#ad34ae0349abf41aa739b75b85df74126" target="_top" xlink:title=" ">
<polygon fill="white" stroke="#666666" points="975.5,-200 832.75,-200 832.75,-168 975.5,-168 975.5,-200"/>
<text xml:space="preserve" text-anchor="start" x="840.75" y="-186.5" font-family="Helvetica,sans-Serif" font-size="10.00">MainWindow::onAddAttribute</text>
<text xml:space="preserve" text-anchor="middle" x="904.12" y="-174.5" font-family="Helvetica,sans-Serif" font-size="10.00">OnTreeClicked</text>
</a>
</g>
</g>
<!-- Node3&#45;&gt;Node4 -->
<g id="edge3_Node000003_Node000004" class="edge">
<title>Node3&#45;&gt;Node4</title>
<g id="a_edge3_Node000003_Node000004"><a xlink:title=" ">
<path fill="none" stroke="#63b8ff" d="M1065.79,-252.23C1044.36,-238.33 1015.51,-221 988.25,-209 981.22,-205.9 973.68,-203.05 966.13,-200.46"/>
<polygon fill="#63b8ff" stroke="#63b8ff" points="1063.84,-255.13 1074.12,-257.7 1067.69,-249.28 1063.84,-255.13"/>
</a>
</g>
</g>
<!-- Node9 -->
<g id="Node000009" class="node">
<title>Node9</title>
<g id="a_Node000009"><a xlink:href="class_main_window.html#a47fd0b86ddb5829e3b0cb15908671670" target="_top" xlink:title=" ">
<polygon fill="white" stroke="#666666" points="583.5,-376 410,-376 410,-356 583.5,-356 583.5,-376"/>
<text xml:space="preserve" text-anchor="middle" x="496.75" y="-362.5" font-family="Helvetica,sans-Serif" font-size="10.00">MainWindow::onCheckBoxChanged</text>
</a>
</g>
</g>
<!-- Node3&#45;&gt;Node9 -->
<g id="edge15_Node000003_Node000009" class="edge">
<title>Node3&#45;&gt;Node9</title>
<g id="a_edge15_Node000003_Node000009"><a xlink:title=" ">
<path fill="none" stroke="#63b8ff" d="M1012.57,-285.28C916.6,-297.07 757.33,-317.79 621,-341 596.03,-345.25 568.39,-350.78 545.61,-355.56"/>
<polygon fill="#63b8ff" stroke="#63b8ff" points="1012.95,-288.76 1022.45,-284.07 1012.1,-281.82 1012.95,-288.76"/>
</a>
</g>
</g>
<!-- Node11 -->
<g id="Node000011" class="node">
<title>Node11</title>
<g id="a_Node000011"><a xlink:href="class_main_window.html#ac1e0c79708cf9aa9b7ca1a87697e5b34" target="_top" xlink:title=" ">
<polygon fill="white" stroke="#666666" points="585,-536 408.5,-536 408.5,-516 585,-516 585,-536"/>
<text xml:space="preserve" text-anchor="middle" x="496.75" y="-522.5" font-family="Helvetica,sans-Serif" font-size="10.00">MainWindow::onComboBoxChanged</text>
</a>
</g>
</g>
<!-- Node3&#45;&gt;Node11 -->
<g id="edge19_Node000003_Node000011" class="edge">
<title>Node3&#45;&gt;Node11</title>
<g id="a_edge19_Node000003_Node000011"><a xlink:title=" ">
<path fill="none" stroke="#63b8ff" d="M1088.8,-301.73C1072.63,-340.5 1037.96,-412.56 988.25,-457 913.61,-523.73 881.75,-530.38 784,-552 695.81,-571.51 589.23,-550.43 534.35,-536.41"/>
<polygon fill="#63b8ff" stroke="#63b8ff" points="1091.95,-303.26 1092.47,-292.68 1085.46,-300.62 1091.95,-303.26"/>
</a>
</g>
</g>
<!-- Node15 -->
<g id="Node000015" class="node">
<title>Node15</title>
<g id="a_Node000015"><a xlink:href="class_main_window.html#a0e7ca45ac830893108871185dda813a4" target="_top" xlink:title=" ">
<polygon fill="white" stroke="#666666" points="784,-634 621,-634 621,-614 784,-614 784,-634"/>
<text xml:space="preserve" text-anchor="middle" x="702.5" y="-620.5" font-family="Helvetica,sans-Serif" font-size="10.00">MainWindow::onLineEditChanged</text>
</a>
</g>
</g>
<!-- Node3&#45;&gt;Node15 -->
<g id="edge26_Node000003_Node000015" class="edge">
<title>Node3&#45;&gt;Node15</title>
<g id="a_edge26_Node000003_Node000015"><a xlink:title=" ">
<path fill="none" stroke="#63b8ff" d="M1099.07,-302.4C1097.32,-366.4 1083.15,-525.88 988.25,-600 920.12,-653.21 812.81,-645.1 751.22,-634.5"/>
<polygon fill="#63b8ff" stroke="#63b8ff" points="1102.57,-302.84 1099.25,-292.78 1095.57,-302.72 1102.57,-302.84"/>
</a>
</g>
</g>
<!-- Node17 -->
<g id="Node000017" class="node">
<title>Node17</title>
<g id="a_Node000017"><a xlink:href="class_main_window.html#a1043995538765eae993ae75217c482e7" target="_top" xlink:title=" ">
<polygon fill="white" stroke="#666666" points="571.5,-253 422,-253 422,-221 571.5,-221 571.5,-253"/>
<text xml:space="preserve" text-anchor="start" x="430" y="-239.5" font-family="Helvetica,sans-Serif" font-size="10.00">MainWindow::onPropertyValue</text>
<text xml:space="preserve" text-anchor="middle" x="496.75" y="-227.5" font-family="Helvetica,sans-Serif" font-size="10.00">Changed</text>
</a>
</g>
</g>
<!-- Node3&#45;&gt;Node17 -->
<g id="edge29_Node000003_Node000017" class="edge">
<title>Node3&#45;&gt;Node17</title>
<g id="a_edge29_Node000003_Node000017"><a xlink:title=" ">
<path fill="none" stroke="#63b8ff" d="M1012.7,-264.63C894.18,-254.59 683.24,-241.36 571.67,-237.05"/>
<polygon fill="#63b8ff" stroke="#63b8ff" points="1012.1,-268.09 1022.37,-265.46 1012.7,-261.12 1012.1,-268.09"/>
</a>
</g>
</g>
<!-- Node20 -->
<g id="Node000020" class="node">
<title>Node20</title>
<g id="a_Node000020"><a xlink:href="class_main_window.html#a95674d4bfc5fc2aad6df1601f23b1793" target="_top" xlink:title=" ">
<polygon fill="white" stroke="#666666" points="985.25,-150 823,-150 823,-118 985.25,-118 985.25,-150"/>
<text xml:space="preserve" text-anchor="start" x="831" y="-136.5" font-family="Helvetica,sans-Serif" font-size="10.00">MainWindow::onRemoveAttribute</text>
<text xml:space="preserve" text-anchor="middle" x="904.12" y="-124.5" font-family="Helvetica,sans-Serif" font-size="10.00">OnTreeClicked</text>
</a>
</g>
</g>
<!-- Node3&#45;&gt;Node20 -->
<g id="edge33_Node000003_Node000020" class="edge">
<title>Node3&#45;&gt;Node20</title>
<g id="a_edge33_Node000003_Node000020"><a xlink:title=" ">
<path fill="none" stroke="#63b8ff" d="M1081.18,-249.59C1061.32,-223.27 1026.96,-182.74 988.25,-159 982.98,-155.77 977.27,-152.93 971.39,-150.45"/>
<polygon fill="#63b8ff" stroke="#63b8ff" points="1078.17,-251.4 1086.92,-257.37 1083.8,-247.24 1078.17,-251.4"/>
</a>
</g>
</g>
<!-- Node21 -->
<g id="Node000021" class="node">
<title>Node21</title>
<g id="a_Node000021"><a xlink:href="class_main_window.html#a44791b85064ecff42c12429c6667e83b" target="_top" xlink:title=" ">
<polygon fill="white" stroke="#666666" points="988.25,-238 820,-238 820,-218 988.25,-218 988.25,-238"/>
<text xml:space="preserve" text-anchor="middle" x="904.12" y="-224.5" font-family="Helvetica,sans-Serif" font-size="10.00">MainWindow::onSelectionChanged</text>
</a>
</g>
</g>
<!-- Node3&#45;&gt;Node21 -->
<g id="edge35_Node000003_Node000021" class="edge">
<title>Node3&#45;&gt;Node21</title>
<g id="a_edge35_Node000003_Node000021"><a xlink:title=" ">
<path fill="none" stroke="#63b8ff" d="M1020.14,-255.87C995.62,-249.92 969.51,-243.6 948.38,-238.48"/>
<polygon fill="#63b8ff" stroke="#63b8ff" points="1019.26,-259.25 1029.8,-258.21 1020.91,-252.45 1019.26,-259.25"/>
</a>
</g>
</g>
<!-- Node22 -->
<g id="Node000022" class="node">
<title>Node22</title>
<g id="a_Node000022"><a xlink:href="class_main_window.html#af380eeda83d30cd1ecb1419cfd5161d7" target="_top" xlink:title=" ">
<polygon fill="white" stroke="#666666" points="971,-448 837.25,-448 837.25,-416 971,-416 971,-448"/>
<text xml:space="preserve" text-anchor="start" x="845.25" y="-434.5" font-family="Helvetica,sans-Serif" font-size="10.00">MainWindow::updatesAfter</text>
<text xml:space="preserve" text-anchor="middle" x="904.12" y="-422.5" font-family="Helvetica,sans-Serif" font-size="10.00">ChangingProperty</text>
</a>
</g>
</g>
<!-- Node3&#45;&gt;Node22 -->
<g id="edge37_Node000003_Node000022" class="edge">
<title>Node3&#45;&gt;Node22</title>
<g id="a_edge37_Node000003_Node000022"><a xlink:title=" ">
<path fill="none" stroke="#63b8ff" d="M1070.16,-298.44C1030.38,-330.63 959.88,-387.69 925.34,-415.64"/>
<polygon fill="#63b8ff" stroke="#63b8ff" points="1072.35,-301.17 1077.92,-292.16 1067.94,-295.73 1072.35,-301.17"/>
</a>
</g>
</g>
<!-- Node5 -->
<g id="Node000005" class="node">
<title>Node5</title>
<g id="a_Node000005"><a xlink:href="class_main_window.html#a6fd05e9f951dd6e7c2cd6ca815ef9d71" target="_top" xlink:title=" ">
<polygon fill="white" stroke="#666666" points="769.38,-140 635.62,-140 635.62,-108 769.38,-108 769.38,-140"/>
<text xml:space="preserve" text-anchor="start" x="643.62" y="-126.5" font-family="Helvetica,sans-Serif" font-size="10.00">MainWindow::createButton</text>
<text xml:space="preserve" text-anchor="middle" x="702.5" y="-114.5" font-family="Helvetica,sans-Serif" font-size="10.00">PropertyItem</text>
</a>
</g>
</g>
<!-- Node4&#45;&gt;Node5 -->
<g id="edge4_Node000004_Node000005" class="edge">
<title>Node4&#45;&gt;Node5</title>
<g id="a_edge4_Node000004_Node000005"><a xlink:title=" ">
<path fill="none" stroke="#63b8ff" d="M837.54,-164.29C811.85,-156.57 782.72,-147.81 758.19,-140.44"/>
<polygon fill="#63b8ff" stroke="#63b8ff" points="836.28,-167.56 846.86,-167.09 838.29,-160.86 836.28,-167.56"/>
</a>
</g>
</g>
<!-- Node5&#45;&gt;Node1 -->
<g id="edge13_Node000005_Node000001" class="edge">
<title>Node5&#45;&gt;Node1</title>
<g id="a_edge13_Node000005_Node000001"><a xlink:title=" ">
<path fill="none" stroke="#63b8ff" d="M780.93,-112.94C793.95,-111.39 807.34,-110 820,-109 1033.42,-92.21 1286.91,-89.83 1406.9,-89.75"/>
<polygon fill="#63b8ff" stroke="#63b8ff" points="780.61,-109.45 771.11,-114.15 781.47,-116.4 780.61,-109.45"/>
</a>
</g>
</g>
<!-- Node6 -->
<g id="Node000006" class="node">
<title>Node6</title>
<g id="a_Node000006"><a xlink:href="class_main_window.html#a697154cf7839e00c607134c2a4e018cf" target="_top" xlink:title=" ">
<polygon fill="white" stroke="#666666" points="372.5,-124 205,-124 205,-104 372.5,-104 372.5,-124"/>
<text xml:space="preserve" text-anchor="middle" x="288.75" y="-110.5" font-family="Helvetica,sans-Serif" font-size="10.00">MainWindow::populateAttributeList</text>
</a>
</g>
</g>
<!-- Node5&#45;&gt;Node6 -->
<g id="edge5_Node000005_Node000006" class="edge">
<title>Node5&#45;&gt;Node6</title>
<g id="a_edge5_Node000005_Node000006"><a xlink:title=" ">
<path fill="none" stroke="#63b8ff" d="M624.15,-122.12C552.5,-120.38 446.23,-117.8 372.8,-116.02"/>
<polygon fill="#63b8ff" stroke="#63b8ff" points="623.75,-125.61 633.83,-122.36 623.92,-118.61 623.75,-125.61"/>
</a>
</g>
</g>
<!-- Node7 -->
<g id="Node000007" class="node">
<title>Node7</title>
<g id="a_Node000007"><a xlink:href="class_main_window.html#a3aa4112f20ad25eb3ad78fd354ba7de2" target="_top" xlink:title=" ">
<polygon fill="white" stroke="#666666" points="160.38,-130 8.62,-130 8.62,-98 160.38,-98 160.38,-130"/>
<text xml:space="preserve" text-anchor="start" x="16.62" y="-116.5" font-family="Helvetica,sans-Serif" font-size="10.00">MainWindow::populateAttribute</text>
<text xml:space="preserve" text-anchor="middle" x="84.5" y="-104.5" font-family="Helvetica,sans-Serif" font-size="10.00">Properties</text>
</a>
</g>
</g>
<!-- Node5&#45;&gt;Node7 -->
<g id="edge12_Node000005_Node000007" class="edge">
<title>Node5&#45;&gt;Node7</title>
<g id="a_edge12_Node000005_Node000007"><a xlink:title=" ">
<path fill="none" stroke="#63b8ff" d="M623.93,-112.89C526.17,-100.4 353,-83.31 205,-95 190.65,-96.13 175.43,-98.02 160.82,-100.18"/>
<polygon fill="#63b8ff" stroke="#63b8ff" points="623.32,-116.34 633.68,-114.16 624.22,-109.4 623.32,-116.34"/>
</a>
</g>
</g>
<!-- Node8 -->
<g id="Node000008" class="node">
<title>Node8</title>
<g id="a_Node000008"><a xlink:href="class_main_window.html#a1049a5796ac248f40a3b4110ed5faf77" target="_top" xlink:title=" ">
<polygon fill="white" stroke="#666666" points="169,-352 0,-352 0,-320 169,-320 169,-352"/>
<text xml:space="preserve" text-anchor="start" x="8" y="-338.5" font-family="Helvetica,sans-Serif" font-size="10.00">MainWindow::populateRelationship</text>
<text xml:space="preserve" text-anchor="middle" x="84.5" y="-326.5" font-family="Helvetica,sans-Serif" font-size="10.00">Properties</text>
</a>
</g>
</g>
<!-- Node5&#45;&gt;Node8 -->
<g id="edge14_Node000005_Node000008" class="edge">
<title>Node5&#45;&gt;Node8</title>
<g id="a_edge14_Node000005_Node000008"><a xlink:title=" ">
<path fill="none" stroke="#63b8ff" d="M624.15,-131.84C493.78,-145.49 240.94,-174.1 205,-194 197.92,-197.92 128.29,-283.22 98.7,-319.7"/>
<polygon fill="#63b8ff" stroke="#63b8ff" points="624.14,-135.36 633.72,-130.84 623.41,-128.39 624.14,-135.36"/>
</a>
</g>
</g>
<!-- Node6&#45;&gt;Node1 -->
<g id="edge9_Node000006_Node000001" class="edge">
<title>Node6&#45;&gt;Node1</title>
<g id="a_edge9_Node000006_Node000001"><a xlink:title=" ">
<path fill="none" stroke="#63b8ff" d="M384.02,-109.22C450.3,-105.98 541.05,-101.8 621,-99 883.57,-89.8 949.28,-88.1 1212,-86 1282.78,-85.43 1300.48,-84.66 1371.25,-86 1382.77,-86.22 1394.99,-86.57 1406.87,-86.98"/>
<polygon fill="#63b8ff" stroke="#63b8ff" points="384.1,-105.71 374.28,-109.7 384.44,-112.7 384.1,-105.71"/>
</a>
</g>
</g>
<!-- Node6&#45;&gt;Node7 -->
<g id="edge6_Node000006_Node000007" class="edge">
<title>Node6&#45;&gt;Node7</title>
<g id="a_edge6_Node000006_Node000007"><a xlink:title=" ">
<path fill="none" stroke="#63b8ff" d="M193.32,-107.26C182.44,-107.22 171.44,-107.28 160.85,-107.45"/>
<polygon fill="#63b8ff" stroke="#63b8ff" points="193.07,-110.76 203.1,-107.33 193.12,-103.76 193.07,-110.76"/>
</a>
</g>
</g>
<!-- Node6&#45;&gt;Node8 -->
<g id="edge10_Node000006_Node000008" class="edge">
<title>Node6&#45;&gt;Node8</title>
<g id="a_edge10_Node000006_Node000008"><a xlink:title=" ">
<path fill="none" stroke="#63b8ff" d="M216.67,-129.51C212.47,-131.94 208.53,-134.75 205,-138 172.07,-168.29 191.27,-193.2 169,-232 149.63,-265.74 119.72,-299.98 101.45,-319.54"/>
<polygon fill="#63b8ff" stroke="#63b8ff" points="218.07,-132.72 225.5,-125.17 214.98,-126.44 218.07,-132.72"/>
</a>
</g>
</g>
<!-- Node7&#45;&gt;Node2 -->
<g id="edge8_Node000007_Node000002" class="edge">
<title>Node7&#45;&gt;Node2</title>
<g id="a_edge8_Node000007_Node000002"><a xlink:title=" ">
<path fill="none" stroke="#63b8ff" d="M130.36,-92.89C204.62,-59.93 358.53,0 495.75,0 905.12,0 905.12,0 905.12,0 1065.45,0 1223.99,-139.92 1274.26,-188.57"/>
<polygon fill="#63b8ff" stroke="#63b8ff" points="129.06,-89.64 121.37,-96.93 131.93,-96.02 129.06,-89.64"/>
</a>
</g>
</g>
<!-- Node7&#45;&gt;Node6 -->
<g id="edge7_Node000007_Node000006" class="edge">
<title>Node7&#45;&gt;Node6</title>
<g id="a_edge7_Node000007_Node000006"><a xlink:title=" ">
<path fill="none" stroke="#63b8ff" d="M172.36,-120.69C183.05,-120.78 193.97,-120.77 204.61,-120.65"/>
<polygon fill="#63b8ff" stroke="#63b8ff" points="172.41,-117.19 162.37,-120.57 172.33,-124.19 172.41,-117.19"/>
</a>
</g>
</g>
<!-- Node8&#45;&gt;Node2 -->
<g id="edge11_Node000008_Node000002" class="edge">
<title>Node8&#45;&gt;Node2</title>
<g id="a_edge11_Node000008_Node000002"><a xlink:title=" ">
<path fill="none" stroke="#63b8ff" d="M88.97,-363.46C97.53,-418.61 125.12,-542.44 205,-600 487.72,-803.7 682.2,-801.61 988.25,-635 1165.79,-538.35 1262.47,-287.04 1285.3,-221.06"/>
<polygon fill="#63b8ff" stroke="#63b8ff" points="92.45,-363.08 87.56,-353.69 85.52,-364.08 92.45,-363.08"/>
</a>
</g>
</g>
<!-- Node10 -->
<g id="Node000010" class="node">
<title>Node10</title>
<g id="a_Node000010"><a xlink:href="class_main_window.html#a44aaf7bb6d9a56f53b8a7a9e4fc29f8c" target="_top" xlink:title=" ">
<polygon fill="white" stroke="#666666" points="364.25,-327 213.25,-327 213.25,-295 364.25,-295 364.25,-327"/>
<text xml:space="preserve" text-anchor="start" x="221.25" y="-313.5" font-family="Helvetica,sans-Serif" font-size="10.00">MainWindow::createCheckBox</text>
<text xml:space="preserve" text-anchor="middle" x="288.75" y="-301.5" font-family="Helvetica,sans-Serif" font-size="10.00">PropertyItem</text>
</a>
</g>
</g>
<!-- Node9&#45;&gt;Node10 -->
<g id="edge16_Node000009_Node000010" class="edge">
<title>Node9&#45;&gt;Node10</title>
<g id="a_edge16_Node000009_Node000010"><a xlink:title=" ">
<path fill="none" stroke="#63b8ff" d="M445.65,-352.62C417.29,-345.05 381.6,-335.52 351.52,-327.49"/>
<polygon fill="#63b8ff" stroke="#63b8ff" points="444.49,-355.94 455.06,-355.14 446.3,-349.17 444.49,-355.94"/>
</a>
</g>
</g>
<!-- Node10&#45;&gt;Node7 -->
<g id="edge17_Node000010_Node000007" class="edge">
<title>Node10&#45;&gt;Node7</title>
<g id="a_edge17_Node000010_Node000007"><a xlink:title=" ">
<path fill="none" stroke="#63b8ff" d="M261.97,-287.02C245.48,-271.52 223.74,-250.81 205,-232 188.58,-215.52 185.4,-210.5 169,-194 146.63,-171.51 120.07,-146.31 103.01,-130.31"/>
<polygon fill="#63b8ff" stroke="#63b8ff" points="259.27,-289.29 268.96,-293.57 264.06,-284.18 259.27,-289.29"/>
</a>
</g>
</g>
<!-- Node10&#45;&gt;Node8 -->
<g id="edge18_Node000010_Node000008" class="edge">
<title>Node10&#45;&gt;Node8</title>
<g id="a_edge18_Node000010_Node000008"><a xlink:title=" ">
<path fill="none" stroke="#63b8ff" d="M201.92,-321.61C191.17,-322.94 180.19,-324.3 169.47,-325.62"/>
<polygon fill="#63b8ff" stroke="#63b8ff" points="202.02,-325.12 211.51,-320.42 201.16,-318.18 202.02,-325.12"/>
</a>
</g>
</g>
<!-- Node12 -->
<g id="Node000012" class="node">
<title>Node12</title>
<g id="a_Node000012"><a xlink:href="class_main_window.html#a872e6a76dcbf858ae9d483eceddf90e1" target="_top" xlink:title=" ">
<polygon fill="white" stroke="#666666" points="365.75,-377 211.75,-377 211.75,-345 365.75,-345 365.75,-377"/>
<text xml:space="preserve" text-anchor="start" x="219.75" y="-363.5" font-family="Helvetica,sans-Serif" font-size="10.00">MainWindow::createComboBox</text>
<text xml:space="preserve" text-anchor="middle" x="288.75" y="-351.5" font-family="Helvetica,sans-Serif" font-size="10.00">PropertyItem</text>
</a>
</g>
</g>
<!-- Node11&#45;&gt;Node12 -->
<g id="edge20_Node000011_Node000012" class="edge">
<title>Node11&#45;&gt;Node12</title>
<g id="a_edge20_Node000011_Node000012"><a xlink:title=" ">
<path fill="none" stroke="#63b8ff" d="M473.92,-508.52C433.9,-476.46 349.29,-408.69 310.26,-377.43"/>
<polygon fill="#63b8ff" stroke="#63b8ff" points="471.69,-511.21 481.68,-514.73 476.07,-505.75 471.69,-511.21"/>
</a>
</g>
</g>
<!-- Node13 -->
<g id="Node000013" class="node">
<title>Node13</title>
<g id="a_Node000013"><a xlink:href="class_main_window.html#abae03a6494d13d74ed1b2e31ec1f2fc7" target="_top" xlink:title=" ">
<polygon fill="white" stroke="#666666" points="366.5,-591 211,-591 211,-559 366.5,-559 366.5,-591"/>
<text xml:space="preserve" text-anchor="start" x="219" y="-577.5" font-family="Helvetica,sans-Serif" font-size="10.00">MainWindow::createIconCombo</text>
<text xml:space="preserve" text-anchor="middle" x="288.75" y="-565.5" font-family="Helvetica,sans-Serif" font-size="10.00">BoxPropertyItem</text>
</a>
</g>
</g>
<!-- Node11&#45;&gt;Node13 -->
<g id="edge23_Node000011_Node000013" class="edge">
<title>Node11&#45;&gt;Node13</title>
<g id="a_edge23_Node000011_Node000013"><a xlink:title=" ">
<path fill="none" stroke="#63b8ff" d="M440.62,-539.11C415.46,-545.1 385.4,-552.25 358.75,-558.59"/>
<polygon fill="#63b8ff" stroke="#63b8ff" points="441.42,-542.52 450.34,-536.8 439.8,-535.71 441.42,-542.52"/>
</a>
</g>
</g>
<!-- Node12&#45;&gt;Node7 -->
<g id="edge21_Node000012_Node000007" class="edge">
<title>Node12&#45;&gt;Node7</title>
<g id="a_edge21_Node000012_Node000007"><a xlink:title=" ">
<path fill="none" stroke="#63b8ff" d="M206.49,-337.5C205.98,-337.01 205.49,-336.51 205,-336 160.01,-288.94 201.78,-250.26 169,-194 153.84,-167.98 127.78,-144.99 108.79,-130.41"/>
<polygon fill="#63b8ff" stroke="#63b8ff" points="204.22,-340.16 214.23,-343.62 208.56,-334.67 204.22,-340.16"/>
</a>
</g>
</g>
<!-- Node12&#45;&gt;Node8 -->
<g id="edge22_Node000012_Node000008" class="edge">
<title>Node12&#45;&gt;Node8</title>
<g id="a_edge22_Node000012_Node000008"><a xlink:title=" ">
<path fill="none" stroke="#63b8ff" d="M199.88,-350.14C189.68,-348.88 179.31,-347.6 169.17,-346.34"/>
<polygon fill="#63b8ff" stroke="#63b8ff" points="199.43,-353.61 209.79,-351.36 200.29,-346.66 199.43,-353.61"/>
</a>
</g>
</g>
<!-- Node14 -->
<g id="Node000014" class="node">
<title>Node14</title>
<g id="a_Node000014"><a xlink:href="class_main_window.html#af02df1238ccf49caa1c4099c88dfe465" target="_top" xlink:title=" ">
<polygon fill="white" stroke="#666666" points="164.12,-689 4.88,-689 4.88,-657 164.12,-657 164.12,-689"/>
<text xml:space="preserve" text-anchor="start" x="12.88" y="-675.5" font-family="Helvetica,sans-Serif" font-size="10.00">MainWindow::populateProperties</text>
<text xml:space="preserve" text-anchor="middle" x="84.5" y="-663.5" font-family="Helvetica,sans-Serif" font-size="10.00">ForConnection</text>
</a>
</g>
</g>
<!-- Node13&#45;&gt;Node14 -->
<g id="edge24_Node000013_Node000014" class="edge">
<title>Node13&#45;&gt;Node14</title>
<g id="a_edge24_Node000013_Node000014"><a xlink:title=" ">
<path fill="none" stroke="#63b8ff" d="M243.81,-596.29C206.46,-614.39 153.63,-639.99 119.46,-656.54"/>
<polygon fill="#63b8ff" stroke="#63b8ff" points="245.06,-599.57 252.54,-592.06 242.01,-593.27 245.06,-599.57"/>
</a>
</g>
</g>
<!-- Node14&#45;&gt;Node3 -->
<g id="edge25_Node000014_Node000003" class="edge">
<title>Node14&#45;&gt;Node3</title>
<g id="a_edge25_Node000014_Node000003"><a xlink:title=" ">
<path fill="none" stroke="#63b8ff" d="M148.21,-692.7C308.04,-738.67 735.8,-834.7 988.25,-635 1044.8,-590.27 1086.19,-355.52 1096.58,-291.27"/>
<polygon fill="#63b8ff" stroke="#63b8ff" points="149.21,-689.34 138.63,-689.9 147.25,-696.06 149.21,-689.34"/>
</a>
</g>
</g>
<!-- Node16 -->
<g id="Node000016" class="node">
<title>Node16</title>
<g id="a_Node000016"><a xlink:href="class_main_window.html#ae3b6600dd59da1822ef94bbd5f37f0cc" target="_top" xlink:title=" ">
<polygon fill="white" stroke="#666666" points="567,-610 426.5,-610 426.5,-578 567,-578 567,-610"/>
<text xml:space="preserve" text-anchor="start" x="434.5" y="-596.5" font-family="Helvetica,sans-Serif" font-size="10.00">MainWindow::createLineEdit</text>
<text xml:space="preserve" text-anchor="middle" x="496.75" y="-584.5" font-family="Helvetica,sans-Serif" font-size="10.00">PropertyItem</text>
</a>
</g>
</g>
<!-- Node15&#45;&gt;Node16 -->
<g id="edge27_Node000015_Node000016" class="edge">
<title>Node15&#45;&gt;Node16</title>
<g id="a_edge27_Node000015_Node000016"><a xlink:title=" ">
<path fill="none" stroke="#63b8ff" d="M619.07,-611.86C601.88,-609.33 583.92,-606.69 567.25,-604.23"/>
<polygon fill="#63b8ff" stroke="#63b8ff" points="618.34,-615.29 628.74,-613.29 619.36,-608.37 618.34,-615.29"/>
</a>
</g>
</g>
<!-- Node16&#45;&gt;Node8 -->
<g id="edge28_Node000016_Node000008" class="edge">
<title>Node16&#45;&gt;Node8</title>
<g id="a_edge28_Node000016_Node000008"><a xlink:title=" ">
<path fill="none" stroke="#63b8ff" d="M455.65,-572.17C440.73,-563.87 423.73,-554.19 408.5,-545 294.7,-476.32 162.65,-388.13 109.48,-352.26"/>
<polygon fill="#63b8ff" stroke="#63b8ff" points="453.83,-575.16 464.28,-576.94 457.22,-569.04 453.83,-575.16"/>
</a>
</g>
</g>
<!-- Node17&#45;&gt;Node3 -->
<g id="edge32_Node000017_Node000003" class="edge">
<title>Node17&#45;&gt;Node3</title>
<g id="a_edge32_Node000017_Node000003"><a xlink:title=" ">
<path fill="none" stroke="#63b8ff" d="M583.13,-247.28C700.98,-257.29 911.63,-270.52 1023.87,-274.9"/>
<polygon fill="#63b8ff" stroke="#63b8ff" points="583.44,-243.79 573.18,-246.42 582.84,-250.77 583.44,-243.79"/>
</a>
</g>
</g>
<!-- Node18 -->
<g id="Node000018" class="node">
<title>Node18</title>
<g id="a_Node000018"><a xlink:href="class_main_window.html#adfa32feecffce3959c99d145fc8b4854" target="_top" xlink:title=" ">
<polygon fill="white" stroke="#666666" points="361.25,-223 216.25,-223 216.25,-203 361.25,-203 361.25,-223"/>
<text xml:space="preserve" text-anchor="middle" x="288.75" y="-209.5" font-family="Helvetica,sans-Serif" font-size="10.00">MainWindow::connectSignals</text>
</a>
</g>
</g>
<!-- Node17&#45;&gt;Node18 -->
<g id="edge30_Node000017_Node000018" class="edge">
<title>Node17&#45;&gt;Node18</title>
<g id="a_edge30_Node000017_Node000018"><a xlink:title=" ">
<path fill="none" stroke="#63b8ff" d="M410.5,-227.07C394.2,-225.17 377.28,-223.2 361.45,-221.35"/>
<polygon fill="#63b8ff" stroke="#63b8ff" points="409.83,-230.51 420.17,-228.19 410.64,-223.56 409.83,-230.51"/>
</a>
</g>
</g>
<!-- Node19 -->
<g id="Node000019" class="node">
<title>Node19</title>
<g id="a_Node000019"><a xlink:href="class_main_window.html#a996c5a2b6f77944776856f08ec30858d" target="_top" xlink:title=" ">
<polygon fill="white" stroke="#666666" points="151.75,-223 17.25,-223 17.25,-203 151.75,-203 151.75,-223"/>
<text xml:space="preserve" text-anchor="middle" x="84.5" y="-209.5" font-family="Helvetica,sans-Serif" font-size="10.00">MainWindow::MainWindow</text>
</a>
</g>
</g>
<!-- Node18&#45;&gt;Node19 -->
<g id="edge31_Node000018_Node000019" class="edge">
<title>Node18&#45;&gt;Node19</title>
<g id="a_edge31_Node000018_Node000019"><a xlink:title=" ">
<path fill="none" stroke="#63b8ff" d="M204.52,-213C187.05,-213 168.84,-213 152.08,-213"/>
<polygon fill="#63b8ff" stroke="#63b8ff" points="204.36,-216.5 214.36,-213 204.36,-209.5 204.36,-216.5"/>
</a>
</g>
</g>
<!-- Node20&#45;&gt;Node5 -->
<g id="edge34_Node000020_Node000005" class="edge">
<title>Node20&#45;&gt;Node5</title>
<g id="a_edge34_Node000020_Node000005"><a xlink:title=" ">
<path fill="none" stroke="#63b8ff" d="M811.32,-129.4C797.3,-128.7 783.06,-127.99 769.73,-127.32"/>
<polygon fill="#63b8ff" stroke="#63b8ff" points="810.83,-132.88 820.99,-129.89 811.18,-125.89 810.83,-132.88"/>
</a>
</g>
</g>
<!-- Node21&#45;&gt;Node18 -->
<g id="edge36_Node000021_Node000018" class="edge">
<title>Node21&#45;&gt;Node18</title>
<g id="a_edge36_Node000021_Node000018"><a xlink:title=" ">
<path fill="none" stroke="#63b8ff" d="M812.76,-216.35C803.06,-215.41 793.34,-214.59 784,-214 633.93,-204.45 457.7,-207.51 361.46,-210.39"/>
<polygon fill="#63b8ff" stroke="#63b8ff" points="812.29,-219.82 822.59,-217.36 813,-212.86 812.29,-219.82"/>
</a>
</g>
</g>
<!-- Node22&#45;&gt;Node9 -->
<g id="edge46_Node000022_Node000009" class="edge">
<title>Node22&#45;&gt;Node9</title>
<g id="a_edge46_Node000022_Node000009"><a xlink:title=" ">
<path fill="none" stroke="#63b8ff" d="M825.43,-421.9C768.66,-414.23 689.89,-402.98 621,-391 596.26,-386.7 568.88,-381.22 546.22,-376.48"/>
<polygon fill="#63b8ff" stroke="#63b8ff" points="824.96,-425.36 835.33,-423.23 825.89,-418.43 824.96,-425.36"/>
</a>
</g>
</g>
<!-- Node22&#45;&gt;Node11 -->
<g id="edge47_Node000022_Node000011" class="edge">
<title>Node22&#45;&gt;Node11</title>
<g id="a_edge47_Node000022_Node000011"><a xlink:title=" ">
<path fill="none" stroke="#63b8ff" d="M882.24,-456.83C860.51,-480.55 824.11,-514.74 784,-529 704.63,-557.23 604.87,-546.76 546.52,-536.46"/>
<polygon fill="#63b8ff" stroke="#63b8ff" points="884.78,-459.24 888.81,-449.45 879.55,-454.59 884.78,-459.24"/>
</a>
</g>
</g>
<!-- Node22&#45;&gt;Node15 -->
<g id="edge48_Node000022_Node000015" class="edge">
<title>Node22&#45;&gt;Node15</title>
<g id="a_edge48_Node000022_Node000015"><a xlink:title=" ">
<path fill="none" stroke="#63b8ff" d="M882.53,-456.94C859.67,-484.02 821.08,-527.96 784,-562 762.56,-581.68 735.31,-601.75 718.66,-613.53"/>
<polygon fill="#63b8ff" stroke="#63b8ff" points="884.94,-459.51 888.68,-449.6 879.58,-455.02 884.94,-459.51"/>
</a>
</g>
</g>
<!-- Node22&#45;&gt;Node17 -->
<g id="edge49_Node000022_Node000017" class="edge">
<title>Node22&#45;&gt;Node17</title>
<g id="a_edge49_Node000022_Node000017"><a xlink:title=" ">
<path fill="none" stroke="#63b8ff" d="M876.83,-408.13C853.71,-388.11 818.47,-359.85 784,-341 710.7,-300.92 618.84,-270.7 559.25,-253.43"/>
<polygon fill="#63b8ff" stroke="#63b8ff" points="874.4,-410.66 884.22,-414.63 879.02,-405.4 874.4,-410.66"/>
</a>
</g>
</g>
<!-- Node23 -->
<g id="Node000023" class="node">
<title>Node23</title>
<g id="a_Node000023"><a xlink:href="class_main_window.html#a9ed390421f6755b891cfc651d173db7b" target="_top" xlink:title=" ">
<polygon fill="white" stroke="#666666" points="774.25,-382 630.75,-382 630.75,-350 774.25,-350 774.25,-382"/>
<text xml:space="preserve" text-anchor="start" x="638.75" y="-368.5" font-family="Helvetica,sans-Serif" font-size="10.00">MainWindow::handleAttribute</text>
<text xml:space="preserve" text-anchor="middle" x="702.5" y="-356.5" font-family="Helvetica,sans-Serif" font-size="10.00">PropertyChange</text>
</a>
</g>
</g>
<!-- Node22&#45;&gt;Node23 -->
<g id="edge38_Node000022_Node000023" class="edge">
<title>Node22&#45;&gt;Node23</title>
<g id="a_edge38_Node000022_Node000023"><a xlink:title=" ">
<path fill="none" stroke="#63b8ff" d="M842.57,-411.98C813.93,-402.51 780.16,-391.34 753.07,-382.39"/>
<polygon fill="#63b8ff" stroke="#63b8ff" points="841.24,-415.22 851.83,-415.04 843.43,-408.58 841.24,-415.22"/>
</a>
</g>
</g>
<!-- Node24 -->
<g id="Node000024" class="node">
<title>Node24</title>
<g id="a_Node000024"><a xlink:href="class_main_window.html#aa69c4b7c558b2fb3922adf75af48330a" target="_top" xlink:title=" ">
<polygon fill="white" stroke="#666666" points="782.88,-520 622.12,-520 622.12,-488 782.88,-488 782.88,-520"/>
<text xml:space="preserve" text-anchor="start" x="630.12" y="-506.5" font-family="Helvetica,sans-Serif" font-size="10.00">MainWindow::handleRelationship</text>
<text xml:space="preserve" text-anchor="middle" x="702.5" y="-494.5" font-family="Helvetica,sans-Serif" font-size="10.00">EndCardinalityChange</text>
</a>
</g>
</g>
<!-- Node22&#45;&gt;Node24 -->
<g id="edge42_Node000022_Node000024" class="edge">
<title>Node22&#45;&gt;Node24</title>
<g id="a_edge42_Node000022_Node000024"><a xlink:title=" ">
<path fill="none" stroke="#63b8ff" d="M853.3,-452.62C832.08,-461.15 806.96,-470.92 784,-479 775.72,-481.92 766.9,-484.84 758.24,-487.6"/>
<polygon fill="#63b8ff" stroke="#63b8ff" points="854.33,-455.98 862.29,-448.98 851.71,-449.49 854.33,-455.98"/>
</a>
</g>
</g>
<!-- Node25 -->
<g id="Node000025" class="node">
<title>Node25</title>
<g id="a_Node000025"><a xlink:href="class_main_window.html#a96d575a529f7c24b1b5094b4b1e42742" target="_top" xlink:title=" ">
<polygon fill="white" stroke="#666666" points="782.88,-470 622.12,-470 622.12,-438 782.88,-438 782.88,-470"/>
<text xml:space="preserve" text-anchor="start" x="630.12" y="-456.5" font-family="Helvetica,sans-Serif" font-size="10.00">MainWindow::handleRelationship</text>
<text xml:space="preserve" text-anchor="middle" x="702.5" y="-444.5" font-family="Helvetica,sans-Serif" font-size="10.00">EndParticipationChange</text>
</a>
</g>
</g>
<!-- Node22&#45;&gt;Node25 -->
<g id="edge44_Node000022_Node000025" class="edge">
<title>Node22&#45;&gt;Node25</title>
<g id="a_edge44_Node000022_Node000025"><a xlink:title=" ">
<path fill="none" stroke="#63b8ff" d="M825.83,-440.52C811.8,-442.06 797.14,-443.68 783.05,-445.23"/>
<polygon fill="#63b8ff" stroke="#63b8ff" points="825.87,-444.04 835.43,-439.46 825.1,-437.08 825.87,-444.04"/>
</a>
</g>
</g>
<!-- Node23&#45;&gt;Node9 -->
<g id="edge39_Node000023_Node000009" class="edge">
<title>Node23&#45;&gt;Node9</title>
<g id="a_edge39_Node000023_Node000009"><a xlink:title=" ">
<path fill="none" stroke="#63b8ff" d="M619.08,-366C607.49,-366 595.56,-366 583.9,-366"/>
<polygon fill="#63b8ff" stroke="#63b8ff" points="619.01,-369.5 629.01,-366 619.01,-362.5 619.01,-369.5"/>
</a>
</g>
</g>
<!-- Node23&#45;&gt;Node11 -->
<g id="edge40_Node000023_Node000011" class="edge">
<title>Node23&#45;&gt;Node11</title>
<g id="a_edge40_Node000023_Node000011"><a xlink:title=" ">
<path fill="none" stroke="#63b8ff" d="M671.7,-389.29C656.51,-401.17 637.76,-415.84 621,-429 580.94,-460.44 533.64,-497.7 511.05,-515.51"/>
<polygon fill="#63b8ff" stroke="#63b8ff" points="673.72,-392.15 679.45,-383.23 669.41,-386.64 673.72,-392.15"/>
</a>
</g>
</g>
<!-- Node23&#45;&gt;Node17 -->
<g id="edge41_Node000023_Node000017" class="edge">
<title>Node23&#45;&gt;Node17</title>
<g id="a_edge41_Node000023_Node000017"><a xlink:title=" ">
<path fill="none" stroke="#63b8ff" d="M666.19,-343.64C625.57,-317.93 559.84,-276.31 523.67,-253.41"/>
<polygon fill="#63b8ff" stroke="#63b8ff" points="664.09,-346.46 674.42,-348.85 667.84,-340.55 664.09,-346.46"/>
</a>
</g>
</g>
<!-- Node24&#45;&gt;Node11 -->
<g id="edge43_Node000024_Node000011" class="edge">
<title>Node24&#45;&gt;Node11</title>
<g id="a_edge43_Node000024_Node000011"><a xlink:title=" ">
<path fill="none" stroke="#63b8ff" d="M610.55,-513.82C602.2,-514.72 593.76,-515.63 585.44,-516.53"/>
<polygon fill="#63b8ff" stroke="#63b8ff" points="610.78,-517.32 620.34,-512.76 610.03,-510.36 610.78,-517.32"/>
</a>
</g>
</g>
<!-- Node25&#45;&gt;Node9 -->
<g id="edge45_Node000025_Node000009" class="edge">
<title>Node25&#45;&gt;Node9</title>
<g id="a_edge45_Node000025_Node000009"><a xlink:title=" ">
<path fill="none" stroke="#63b8ff" d="M644.53,-433.44C636.59,-430.38 628.56,-427.18 621,-424 584.38,-408.59 542.74,-388.43 518.45,-376.39"/>
<polygon fill="#63b8ff" stroke="#63b8ff" points="643.26,-436.7 653.85,-436.98 645.75,-430.16 643.26,-436.7"/>
</a>
</g>
</g>
</g>
</svg>

<g id="navigator" transform="translate(0 0)" fill="#404254">
  <rect fill="#f2f5e9" fill-opacity="0.5" stroke="#606060" stroke-width=".5" x="0" y="0" width="60" height="60"/>
  <use id="zoomplus" xlink:href="#zoomPlus" x="17" y="9" onmousedown="handleZoom(evt,'in')"/>
  <use id="zoomminus" xlink:href="#zoomMin" x="42" y="9" onmousedown="handleZoom(evt,'out')"/>
  <use id="reset" xlink:href="#resetDef" x="30" y="36" onmousedown="handleReset()"/>
   <use id="arrowup" xlink:href="#arrowUp" x="0" y="0" onmousedown="handlePan(0,-1)"/>
  <use id="arrowright" xlink:href="#arrowRight" x="0" y="0" onmousedown="handlePan(1,0)"/>
  <use id="arrowdown" xlink:href="#arrowDown" x="0" y="0" onmousedown="handlePan(0,1)"/>
  <use id="arrowleft" xlink:href="#arrowLeft" x="0" y="0" onmousedown="handlePan(-1,0)"/>
</g>
<svg viewBox="0 0 15 15" width="100%" height="30px" preserveAspectRatio="xMaxYMin meet">
 <g id="arrow_out" transform="scale(0.3 0.3)">
  <a xlink:href="class_main_window_a40023e3590f2593fd133a6b111f63ed9_icgraph_org.svg" target="_base">
   <rect id="button" ry="5" rx="5" y="6" x="6" height="38" width="38"
        fill="#f2f5e9" fill-opacity="0.5" stroke="#606060" stroke-width="1.0"/>
   <path id="arrow"
     d="M 11.500037,31.436501 C 11.940474,20.09759 22.043105,11.32322 32.158766,21.979434 L 37.068811,17.246167 C 37.068811,17.246167 37.088388,32 37.088388,32 L 22.160133,31.978069 C 22.160133,31.978069 26.997745,27.140456 26.997745,27.140456 C 18.528582,18.264221 13.291696,25.230495 11.500037,31.436501 z"
     style="fill:#404040;"/>
  </a>
 </g>
</svg>

<style type='text/css'>
<![CDATA[
[data-mouse-over-selected='false'] { opacity: 0.7; }
[data-mouse-over-selected='true']  { opacity: 1.0; }
]]>
</style>
<script type="application/ecmascript"><![CDATA[
document.addEventListener('DOMContentLoaded', (event) => {
  highlightEdges();
  highlightAdjacentNodes();
});
]]></script>
</svg>
