<?xml version="1.0" encoding="UTF-8" standalone="no"?>
<!DOCTYPE svg PUBLIC "-//W3C//DTD SVG 1.1//EN"
 "http://www.w3.org/Graphics/SVG/1.1/DTD/svg11.dtd">
<!-- Generated by graphviz version 14.1.1 (20251213.1925)
 -->
<!-- Title: DiagramScene::getSelectedConnections Pages: 1 -->
<svg width="737pt" height="230pt"
 viewBox="0.00 0.00 737.00 230.00" xmlns="http://www.w3.org/2000/svg" xmlns:xlink="http://www.w3.org/1999/xlink">
<g id="graph0" class="graph" transform="scale(1 1) rotate(0) translate(4 226)">
<title>DiagramScene::getSelectedConnections</title>
<!-- Node1 -->
<g id="Node000001" class="node">
<title>Node1</title>
<g id="a_Node000001"><a xlink:title=" ">
<polygon fill="#999999" stroke="#666666" points="728.5,-64 590.25,-64 590.25,-32 728.5,-32 728.5,-64"/>
<text xml:space="preserve" text-anchor="start" x="598.25" y="-50.5" font-family="Helvetica,sans-Serif" font-size="10.00">DiagramScene::getSelected</text>
<text xml:space="preserve" text-anchor="middle" x="659.38" y="-38.5" font-family="Helvetica,sans-Serif" font-size="10.00">Connections</text>
</a>
</g>
</g>
<!-- Node2 -->
<g id="Node000002" class="node">
<title>Node2</title>
<g id="a_Node000002"><a xlink:href="class_diagram_scene.html#add93af6ff55d3453051b8c057cd4bdcb" target="_top" xlink:title=" ">
<polygon fill="white" stroke="#666666" points="552.75,-140 404.75,-140 404.75,-120 552.75,-120 552.75,-140"/>
<text xml:space="preserve" text-anchor="middle" x="478.75" y="-126.5" font-family="Helvetica,sans-Serif" font-size="10.00">DiagramScene::clearSelection</text>
</a>
</g>
</g>
<!-- Node1&#45;&gt;Node2 -->
<g id="edge1_Node000001_Node000002" class="edge">
<title>Node1&#45;&gt;Node2</title>
<g id="a_edge1_Node000001_Node000002"><a xlink:title=" ">
<path fill="none" stroke="#63b8ff" d="M612.59,-69.02C577.29,-85.22 529.99,-106.94 502.4,-119.6"/>
<polygon fill="#63b8ff" stroke="#63b8ff" points="613.65,-72.38 621.28,-65.03 610.73,-66.02 613.65,-72.38"/>
</a>
</g>
</g>
<!-- Node8 -->
<g id="Node000008" class="node">
<title>Node8</title>
<g id="a_Node000008"><a xlink:href="class_diagram_scene.html#a99cbe05259c61eebf9cc8d67947f6dca" target="_top" xlink:title=" ">
<polygon fill="white" stroke="#666666" points="551.62,-58 405.88,-58 405.88,-38 551.62,-38 551.62,-58"/>
<text xml:space="preserve" text-anchor="middle" x="478.75" y="-44.5" font-family="Helvetica,sans-Serif" font-size="10.00">DiagramScene::copySelected</text>
</a>
</g>
</g>
<!-- Node1&#45;&gt;Node8 -->
<g id="edge8_Node000001_Node000008" class="edge">
<title>Node1&#45;&gt;Node8</title>
<g id="a_edge8_Node000001_Node000008"><a xlink:title=" ">
<path fill="none" stroke="#63b8ff" d="M578.37,-48C569.57,-48 560.66,-48 551.97,-48"/>
<polygon fill="#63b8ff" stroke="#63b8ff" points="578.31,-51.5 588.31,-48 578.31,-44.5 578.31,-51.5"/>
</a>
</g>
</g>
<!-- Node9 -->
<g id="Node000009" class="node">
<title>Node9</title>
<g id="a_Node000009"><a xlink:href="class_diagram_scene.html#a03a8b712a0872e8f6290c059de956505" target="_top" xlink:title=" ">
<polygon fill="white" stroke="#666666" points="554.25,-20 403.25,-20 403.25,0 554.25,0 554.25,-20"/>
<text xml:space="preserve" text-anchor="middle" x="478.75" y="-6.5" font-family="Helvetica,sans-Serif" font-size="10.00">DiagramScene::deleteSelected</text>
</a>
</g>
</g>
<!-- Node1&#45;&gt;Node9 -->
<g id="edge10_Node000001_Node000009" class="edge">
<title>Node1&#45;&gt;Node9</title>
<g id="a_edge10_Node000001_Node000009"><a xlink:title=" ">
<path fill="none" stroke="#63b8ff" d="M578.78,-31.07C561.83,-27.46 544.4,-23.75 528.99,-20.47"/>
<polygon fill="#63b8ff" stroke="#63b8ff" points="577.83,-34.44 588.34,-33.1 579.29,-27.6 577.83,-34.44"/>
</a>
</g>
</g>
<!-- Node3 -->
<g id="Node000003" class="node">
<title>Node3</title>
<g id="a_Node000003"><a xlink:href="class_diagram_scene.html#a0c02f289dea7872eae24bb2c0f91d5ea" target="_top" xlink:title=" ">
<polygon fill="white" stroke="#666666" points="352.25,-222 208,-222 208,-202 352.25,-202 352.25,-222"/>
<text xml:space="preserve" text-anchor="middle" x="280.12" y="-208.5" font-family="Helvetica,sans-Serif" font-size="10.00">DiagramScene::clearDiagram</text>
</a>
</g>
</g>
<!-- Node2&#45;&gt;Node3 -->
<g id="edge2_Node000002_Node000003" class="edge">
<title>Node2&#45;&gt;Node3</title>
<g id="a_edge2_Node000002_Node000003"><a xlink:title=" ">
<path fill="none" stroke="#63b8ff" d="M450.79,-146.22C428.88,-158.89 396.85,-176.26 367.25,-188 353.98,-193.26 339.12,-197.84 325.53,-201.55"/>
<polygon fill="#63b8ff" stroke="#63b8ff" points="452.52,-149.26 459.38,-141.18 448.98,-143.22 452.52,-149.26"/>
</a>
</g>
</g>
<!-- Node5 -->
<g id="Node000005" class="node">
<title>Node5</title>
<g id="a_Node000005"><a xlink:href="class_diagram_scene.html#a074e1181353b257a18ea2d243b459a47" target="_top" xlink:title=" ">
<polygon fill="white" stroke="#666666" points="155.12,-77 1.88,-77 1.88,-57 155.12,-57 155.12,-77"/>
<text xml:space="preserve" text-anchor="middle" x="78.5" y="-63.5" font-family="Helvetica,sans-Serif" font-size="10.00">DiagramScene::keyPressEvent</text>
</a>
</g>
</g>
<!-- Node2&#45;&gt;Node5 -->
<g id="edge4_Node000002_Node000005" class="edge">
<title>Node2&#45;&gt;Node5</title>
<g id="a_edge4_Node000002_Node000005"><a xlink:title=" ">
<path fill="none" stroke="#63b8ff" d="M436.7,-143.85C380.2,-160.65 276.02,-183.41 193,-155 147.23,-139.34 105.65,-96.88 88.19,-77.23"/>
<polygon fill="#63b8ff" stroke="#63b8ff" points="437.7,-147.21 446.23,-140.93 435.65,-140.51 437.7,-147.21"/>
</a>
</g>
</g>
<!-- Node6 -->
<g id="Node000006" class="node">
<title>Node6</title>
<g id="a_Node000006"><a xlink:href="class_diagram_scene.html#a6847af7972303267f22e84ae1011c255" target="_top" xlink:title=" ">
<polygon fill="white" stroke="#666666" points="350.75,-146 209.5,-146 209.5,-114 350.75,-114 350.75,-146"/>
<text xml:space="preserve" text-anchor="start" x="217.5" y="-132.5" font-family="Helvetica,sans-Serif" font-size="10.00">DiagramScene::mousePress</text>
<text xml:space="preserve" text-anchor="middle" x="280.12" y="-120.5" font-family="Helvetica,sans-Serif" font-size="10.00">Event</text>
</a>
</g>
</g>
<!-- Node2&#45;&gt;Node6 -->
<g id="edge5_Node000002_Node000006" class="edge">
<title>Node2&#45;&gt;Node6</title>
<g id="a_edge5_Node000002_Node000006"><a xlink:title=" ">
<path fill="none" stroke="#63b8ff" d="M393.08,-130C379.03,-130 364.59,-130 350.95,-130"/>
<polygon fill="#63b8ff" stroke="#63b8ff" points="392.74,-133.5 402.74,-130 392.74,-126.5 392.74,-133.5"/>
</a>
</g>
</g>
<!-- Node7 -->
<g id="Node000007" class="node">
<title>Node7</title>
<g id="a_Node000007"><a xlink:href="class_diagram_scene.html#a61e7061e5add947d09ad87feaf2b8dc1" target="_top" xlink:title=" ">
<polygon fill="white" stroke="#666666" points="367.25,-96 193,-96 193,-76 367.25,-76 367.25,-96"/>
<text xml:space="preserve" text-anchor="middle" x="280.12" y="-82.5" font-family="Helvetica,sans-Serif" font-size="10.00">DiagramScene::pasteFromClipboard</text>
</a>
</g>
</g>
<!-- Node2&#45;&gt;Node7 -->
<g id="edge6_Node000002_Node000007" class="edge">
<title>Node2&#45;&gt;Node7</title>
<g id="a_edge6_Node000002_Node000007"><a xlink:title=" ">
<path fill="none" stroke="#63b8ff" d="M420.78,-117.05C403.58,-113.16 384.65,-108.89 367.25,-105 354.7,-102.2 341.11,-99.19 328.52,-96.41"/>
<polygon fill="#63b8ff" stroke="#63b8ff" points="419.79,-120.41 430.32,-119.21 421.34,-113.59 419.79,-120.41"/>
</a>
</g>
</g>
<!-- Node4 -->
<g id="Node000004" class="node">
<title>Node4</title>
<g id="a_Node000004"><a xlink:href="class_diagram_scene.html#a189b7f9e32b70c751124cffce8d63c8c" target="_top" xlink:title=" ">
<polygon fill="white" stroke="#666666" points="157,-222 0,-222 0,-202 157,-202 157,-222"/>
<text xml:space="preserve" text-anchor="middle" x="78.5" y="-208.5" font-family="Helvetica,sans-Serif" font-size="10.00">DiagramScene::~DiagramScene</text>
</a>
</g>
</g>
<!-- Node3&#45;&gt;Node4 -->
<g id="edge3_Node000003_Node000004" class="edge">
<title>Node3&#45;&gt;Node4</title>
<g id="a_edge3_Node000003_Node000004"><a xlink:title=" ">
<path fill="none" stroke="#63b8ff" d="M196.37,-212C183.43,-212 170.09,-212 157.27,-212"/>
<polygon fill="#63b8ff" stroke="#63b8ff" points="196.11,-215.5 206.11,-212 196.11,-208.5 196.11,-215.5"/>
</a>
</g>
</g>
<!-- Node7&#45;&gt;Node5 -->
<g id="edge7_Node000007_Node000005" class="edge">
<title>Node7&#45;&gt;Node5</title>
<g id="a_edge7_Node000007_Node000005"><a xlink:title=" ">
<path fill="none" stroke="#63b8ff" d="M181.31,-76.69C172.59,-75.86 163.86,-75.03 155.37,-74.22"/>
<polygon fill="#63b8ff" stroke="#63b8ff" points="180.93,-80.17 191.22,-77.63 181.6,-73.2 180.93,-80.17"/>
</a>
</g>
</g>
<!-- Node8&#45;&gt;Node5 -->
<g id="edge9_Node000008_Node000005" class="edge">
<title>Node8&#45;&gt;Node5</title>
<g id="a_edge9_Node000008_Node000005"><a xlink:title=" ">
<path fill="none" stroke="#63b8ff" d="M394.15,-51.99C323.68,-55.35 223.71,-60.12 155.49,-63.37"/>
<polygon fill="#63b8ff" stroke="#63b8ff" points="394.3,-55.49 404.12,-51.51 393.96,-48.49 394.3,-55.49"/>
</a>
</g>
</g>
<!-- Node9&#45;&gt;Node5 -->
<g id="edge11_Node000009_Node000005" class="edge">
<title>Node9&#45;&gt;Node5</title>
<g id="a_edge11_Node000009_Node000005"><a xlink:title=" ">
<path fill="none" stroke="#63b8ff" d="M391.39,-21.92C334.92,-29.77 259.56,-40.34 193,-50 178.7,-52.07 163.4,-54.34 148.81,-56.52"/>
<polygon fill="#63b8ff" stroke="#63b8ff" points="391.86,-25.39 401.28,-20.55 390.9,-18.46 391.86,-25.39"/>
</a>
</g>
</g>
</g>
</svg>
