<?xml version="1.0" encoding="UTF-8" standalone="no"?>
<!DOCTYPE svg PUBLIC "-//W3C//DTD SVG 1.1//EN"
 "http://www.w3.org/Graphics/SVG/1.1/DTD/svg11.dtd">
<!-- Generated by graphviz version 14.1.1 (20251213.1925)
 -->
<!-- Title: RelationshipEnd::cardinalityChanged Pages: 1 -->
<svg width="2895pt" height="707pt"
 viewBox="0.00 0.00 2895.00 707.00" xmlns="http://www.w3.org/2000/svg" xmlns:xlink="http://www.w3.org/1999/xlink">
<g id="graph0" class="graph" transform="scale(1 1) rotate(0) translate(4 702.55)">
<title>RelationshipEnd::cardinalityChanged</title>
<!-- Node1 -->
<g id="Node000001" class="node">
<title>Node1</title>
<g id="a_Node000001"><a xlink:title=" ">
<polygon fill="#999999" stroke="#666666" points="2886.75,-240.55 2749.25,-240.55 2749.25,-208.55 2886.75,-208.55 2886.75,-240.55"/>
<text xml:space="preserve" text-anchor="start" x="2757.25" y="-227.05" font-family="Helvetica,sans-Serif" font-size="10.00">RelationshipEnd::cardinality</text>
<text xml:space="preserve" text-anchor="middle" x="2818" y="-215.05" font-family="Helvetica,sans-Serif" font-size="10.00">Changed</text>
</a>
</g>
</g>
<!-- Node2 -->
<g id="Node000002" class="node">
<title>Node2</title>
<g id="a_Node000002"><a xlink:href="class_relationship_connection_line.html#a00e5304ae94f728128ec8b6476a74177" target="_top" xlink:title=" ">
<polygon fill="white" stroke="#666666" points="2700.88,-290.55 2562.62,-290.55 2562.62,-258.55 2700.88,-258.55 2700.88,-290.55"/>
<text xml:space="preserve" text-anchor="start" x="2570.62" y="-277.05" font-family="Helvetica,sans-Serif" font-size="10.00">RelationshipConnectionLine</text>
<text xml:space="preserve" text-anchor="middle" x="2631.75" y="-265.05" font-family="Helvetica,sans-Serif" font-size="10.00">::connectToRelationshipEnd</text>
</a>
</g>
</g>
<!-- Node1&#45;&gt;Node2 -->
<g id="edge1_Node000001_Node000002" class="edge">
<title>Node1&#45;&gt;Node2</title>
<g id="a_edge1_Node000001_Node000002"><a xlink:title=" ">
<path fill="none" stroke="#63b8ff" d="M2745.31,-244C2728.14,-248.66 2709.98,-253.59 2693.37,-258.1"/>
<polygon fill="#63b8ff" stroke="#63b8ff" points="2746.22,-247.38 2754.95,-241.38 2744.39,-240.63 2746.22,-247.38"/>
</a>
</g>
</g>
<!-- Node5 -->
<g id="Node000005" class="node">
<title>Node5</title>
<g id="a_Node000005"><a xlink:href="class_relationship_connection_line.html#a73f28ee054400ee6eb13b64a7817ef4b" target="_top" xlink:title=" ">
<polygon fill="white" stroke="#666666" points="2713.25,-240.55 2550.25,-240.55 2550.25,-208.55 2713.25,-208.55 2713.25,-240.55"/>
<text xml:space="preserve" text-anchor="start" x="2558.25" y="-227.05" font-family="Helvetica,sans-Serif" font-size="10.00">RelationshipConnectionLine</text>
<text xml:space="preserve" text-anchor="middle" x="2631.75" y="-215.05" font-family="Helvetica,sans-Serif" font-size="10.00">::disconnectFromRelationshipEnd</text>
</a>
</g>
</g>
<!-- Node1&#45;&gt;Node5 -->
<g id="edge4_Node000001_Node000005" class="edge">
<title>Node1&#45;&gt;Node5</title>
<g id="a_edge4_Node000001_Node000005"><a xlink:title=" ">
<path fill="none" stroke="#63b8ff" d="M2737.47,-224.55C2729.57,-224.55 2721.56,-224.55 2713.65,-224.55"/>
<polygon fill="#63b8ff" stroke="#63b8ff" points="2737.4,-228.05 2747.4,-224.55 2737.4,-221.05 2737.4,-228.05"/>
</a>
</g>
</g>
<!-- Node7 -->
<g id="Node000007" class="node">
<title>Node7</title>
<g id="a_Node000007"><a xlink:href="class_relationship_end.html#a6bd7d9d24f01d1f9491880cf1f7025f0" target="_top" xlink:title=" ">
<polygon fill="white" stroke="#666666" points="2708.38,-187.55 2555.12,-187.55 2555.12,-167.55 2708.38,-167.55 2708.38,-187.55"/>
<text xml:space="preserve" text-anchor="middle" x="2631.75" y="-174.05" font-family="Helvetica,sans-Serif" font-size="10.00">RelationshipEnd::setCardinality</text>
</a>
</g>
</g>
<!-- Node1&#45;&gt;Node7 -->
<g id="edge7_Node000001_Node000007" class="edge">
<title>Node1&#45;&gt;Node7</title>
<g id="a_edge7_Node000001_Node000007"><a xlink:title=" ">
<path fill="none" stroke="#63b8ff" d="M2741.67,-205.33C2718.48,-199.41 2693.81,-193.12 2673.83,-188.02"/>
<polygon fill="#63b8ff" stroke="#63b8ff" points="2740.54,-208.65 2751.09,-207.73 2742.27,-201.87 2740.54,-208.65"/>
</a>
</g>
</g>
<!-- Node3 -->
<g id="Node000003" class="node">
<title>Node3</title>
<g id="a_Node000003"><a xlink:href="class_relationship_connection_line.html#a77c08ca0dffdc230d3f164d846b3c176" target="_top" xlink:title=" ">
<polygon fill="white" stroke="#666666" points="2505.62,-340.55 2362.12,-340.55 2362.12,-308.55 2505.62,-308.55 2505.62,-340.55"/>
<text xml:space="preserve" text-anchor="start" x="2370.12" y="-327.05" font-family="Helvetica,sans-Serif" font-size="10.00">RelationshipConnectionLine</text>
<text xml:space="preserve" text-anchor="middle" x="2433.88" y="-315.05" font-family="Helvetica,sans-Serif" font-size="10.00">::RelationshipConnectionLine</text>
</a>
</g>
</g>
<!-- Node2&#45;&gt;Node3 -->
<g id="edge2_Node000002_Node000003" class="edge">
<title>Node2&#45;&gt;Node3</title>
<g id="a_edge2_Node000002_Node000003"><a xlink:title=" ">
<path fill="none" stroke="#63b8ff" d="M2555.31,-293.8C2536.84,-298.52 2517.23,-303.52 2499.32,-308.1"/>
<polygon fill="#63b8ff" stroke="#63b8ff" points="2556.05,-297.23 2564.88,-291.36 2554.32,-290.44 2556.05,-297.23"/>
</a>
</g>
</g>
<!-- Node4 -->
<g id="Node000004" class="node">
<title>Node4</title>
<g id="a_Node000004"><a xlink:href="class_relationship_connection_line.html#a7e2e06e83adcf3a6fd12c53aa21d71fa" target="_top" xlink:title=" ">
<polygon fill="white" stroke="#666666" points="2502.62,-290.55 2365.12,-290.55 2365.12,-258.55 2502.62,-258.55 2502.62,-290.55"/>
<text xml:space="preserve" text-anchor="start" x="2373.12" y="-277.05" font-family="Helvetica,sans-Serif" font-size="10.00">RelationshipConnectionLine</text>
<text xml:space="preserve" text-anchor="middle" x="2433.88" y="-265.05" font-family="Helvetica,sans-Serif" font-size="10.00">::setRelationshipEnd</text>
</a>
</g>
</g>
<!-- Node2&#45;&gt;Node4 -->
<g id="edge3_Node000002_Node000004" class="edge">
<title>Node2&#45;&gt;Node4</title>
<g id="a_edge3_Node000002_Node000004"><a xlink:title=" ">
<path fill="none" stroke="#63b8ff" d="M2550.83,-274.55C2534.96,-274.55 2518.44,-274.55 2503.01,-274.55"/>
<polygon fill="#63b8ff" stroke="#63b8ff" points="2550.73,-278.05 2560.73,-274.55 2550.73,-271.05 2550.73,-278.05"/>
</a>
</g>
</g>
<!-- Node5&#45;&gt;Node4 -->
<g id="edge5_Node000005_Node000004" class="edge">
<title>Node5&#45;&gt;Node4</title>
<g id="a_edge5_Node000005_Node000004"><a xlink:title=" ">
<path fill="none" stroke="#63b8ff" d="M2555.31,-243.8C2536.84,-248.52 2517.23,-253.52 2499.32,-258.1"/>
<polygon fill="#63b8ff" stroke="#63b8ff" points="2556.05,-247.23 2564.88,-241.36 2554.32,-240.44 2556.05,-247.23"/>
</a>
</g>
</g>
<!-- Node6 -->
<g id="Node000006" class="node">
<title>Node6</title>
<g id="a_Node000006"><a xlink:href="class_relationship_connection_line.html#a1a1a07948058466e38bb1043c95a70c4" target="_top" xlink:title=" ">
<polygon fill="white" stroke="#666666" points="2508.62,-240.55 2359.12,-240.55 2359.12,-208.55 2508.62,-208.55 2508.62,-240.55"/>
<text xml:space="preserve" text-anchor="start" x="2367.12" y="-227.05" font-family="Helvetica,sans-Serif" font-size="10.00">RelationshipConnectionLine</text>
<text xml:space="preserve" text-anchor="middle" x="2433.88" y="-215.05" font-family="Helvetica,sans-Serif" font-size="10.00">::~RelationshipConnectionLine</text>
</a>
</g>
</g>
<!-- Node5&#45;&gt;Node6 -->
<g id="edge6_Node000005_Node000006" class="edge">
<title>Node5&#45;&gt;Node6</title>
<g id="a_edge6_Node000005_Node000006"><a xlink:title=" ">
<path fill="none" stroke="#63b8ff" d="M2538.72,-224.55C2528.72,-224.55 2518.64,-224.55 2508.89,-224.55"/>
<polygon fill="#63b8ff" stroke="#63b8ff" points="2538.44,-228.05 2548.44,-224.55 2538.44,-221.05 2538.44,-228.05"/>
</a>
</g>
</g>
<!-- Node8 -->
<g id="Node000008" class="node">
<title>Node8</title>
<g id="a_Node000008"><a xlink:href="class_main_window.html#aa69c4b7c558b2fb3922adf75af48330a" target="_top" xlink:title=" ">
<polygon fill="white" stroke="#666666" points="2514.25,-190.55 2353.5,-190.55 2353.5,-158.55 2514.25,-158.55 2514.25,-190.55"/>
<text xml:space="preserve" text-anchor="start" x="2361.5" y="-177.05" font-family="Helvetica,sans-Serif" font-size="10.00">MainWindow::handleRelationship</text>
<text xml:space="preserve" text-anchor="middle" x="2433.88" y="-165.05" font-family="Helvetica,sans-Serif" font-size="10.00">EndCardinalityChange</text>
</a>
</g>
</g>
<!-- Node7&#45;&gt;Node8 -->
<g id="edge8_Node000007_Node000008" class="edge">
<title>Node7&#45;&gt;Node8</title>
<g id="a_edge8_Node000007_Node000008"><a xlink:title=" ">
<path fill="none" stroke="#63b8ff" d="M2543.25,-176.21C2533.75,-176.06 2524.13,-175.91 2514.73,-175.77"/>
<polygon fill="#63b8ff" stroke="#63b8ff" points="2543.17,-179.71 2553.23,-176.36 2543.28,-172.71 2543.17,-179.71"/>
</a>
</g>
</g>
<!-- Node9 -->
<g id="Node000009" class="node">
<title>Node9</title>
<g id="a_Node000009"><a xlink:href="class_main_window.html#ac1e0c79708cf9aa9b7ca1a87697e5b34" target="_top" xlink:title=" ">
<polygon fill="white" stroke="#666666" points="2317.5,-244.55 2141,-244.55 2141,-224.55 2317.5,-224.55 2317.5,-244.55"/>
<text xml:space="preserve" text-anchor="middle" x="2229.25" y="-231.05" font-family="Helvetica,sans-Serif" font-size="10.00">MainWindow::onComboBoxChanged</text>
</a>
</g>
</g>
<!-- Node8&#45;&gt;Node9 -->
<g id="edge9_Node000008_Node000009" class="edge">
<title>Node8&#45;&gt;Node9</title>
<g id="a_edge9_Node000008_Node000009"><a xlink:title=" ">
<path fill="none" stroke="#63b8ff" d="M2366.55,-194.18C2332.94,-204.14 2293.47,-215.82 2265.68,-224.05"/>
<polygon fill="#63b8ff" stroke="#63b8ff" points="2367.19,-197.65 2375.79,-191.45 2365.21,-190.93 2367.19,-197.65"/>
</a>
</g>
</g>
<!-- Node10 -->
<g id="Node000010" class="node">
<title>Node10</title>
<g id="a_Node000010"><a xlink:href="class_main_window.html#a872e6a76dcbf858ae9d483eceddf90e1" target="_top" xlink:title=" ">
<polygon fill="white" stroke="#666666" points="2104.25,-442.55 1950.25,-442.55 1950.25,-410.55 2104.25,-410.55 2104.25,-442.55"/>
<text xml:space="preserve" text-anchor="start" x="1958.25" y="-429.05" font-family="Helvetica,sans-Serif" font-size="10.00">MainWindow::createComboBox</text>
<text xml:space="preserve" text-anchor="middle" x="2027.25" y="-417.05" font-family="Helvetica,sans-Serif" font-size="10.00">PropertyItem</text>
</a>
</g>
</g>
<!-- Node9&#45;&gt;Node10 -->
<g id="edge10_Node000009_Node000010" class="edge">
<title>Node9&#45;&gt;Node10</title>
<g id="a_edge10_Node000009_Node000010"><a xlink:title=" ">
<path fill="none" stroke="#63b8ff" d="M2209.62,-252.43C2170.97,-289.54 2082.53,-374.44 2045.29,-410.19"/>
<polygon fill="#63b8ff" stroke="#63b8ff" points="2211.62,-255.37 2216.41,-245.92 2206.77,-250.32 2211.62,-255.37"/>
</a>
</g>
</g>
<!-- Node31 -->
<g id="Node000031" class="node">
<title>Node31</title>
<g id="a_Node000031"><a xlink:href="class_main_window.html#abae03a6494d13d74ed1b2e31ec1f2fc7" target="_top" xlink:title=" ">
<polygon fill="white" stroke="#666666" points="2105,-272.55 1949.5,-272.55 1949.5,-240.55 2105,-240.55 2105,-272.55"/>
<text xml:space="preserve" text-anchor="start" x="1957.5" y="-259.05" font-family="Helvetica,sans-Serif" font-size="10.00">MainWindow::createIconCombo</text>
<text xml:space="preserve" text-anchor="middle" x="2027.25" y="-247.05" font-family="Helvetica,sans-Serif" font-size="10.00">BoxPropertyItem</text>
</a>
</g>
</g>
<!-- Node9&#45;&gt;Node31 -->
<g id="edge55_Node000009_Node000031" class="edge">
<title>Node9&#45;&gt;Node31</title>
<g id="a_edge55_Node000009_Node000031"><a xlink:title=" ">
<path fill="none" stroke="#63b8ff" d="M2129.18,-245.44C2121.14,-246.33 2113.09,-247.21 2105.24,-248.08"/>
<polygon fill="#63b8ff" stroke="#63b8ff" points="2129.47,-248.93 2139.02,-244.36 2128.7,-241.98 2129.47,-248.93"/>
</a>
</g>
</g>
<!-- Node11 -->
<g id="Node000011" class="node">
<title>Node11</title>
<g id="a_Node000011"><a xlink:href="class_main_window.html#a3aa4112f20ad25eb3ad78fd354ba7de2" target="_top" xlink:title=" ">
<polygon fill="white" stroke="#666666" points="1913.5,-619.55 1761.75,-619.55 1761.75,-587.55 1913.5,-587.55 1913.5,-619.55"/>
<text xml:space="preserve" text-anchor="start" x="1769.75" y="-606.05" font-family="Helvetica,sans-Serif" font-size="10.00">MainWindow::populateAttribute</text>
<text xml:space="preserve" text-anchor="middle" x="1837.62" y="-594.05" font-family="Helvetica,sans-Serif" font-size="10.00">Properties</text>
</a>
</g>
</g>
<!-- Node10&#45;&gt;Node11 -->
<g id="edge11_Node000010_Node000011" class="edge">
<title>Node10&#45;&gt;Node11</title>
<g id="a_edge11_Node000010_Node000011"><a xlink:title=" ">
<path fill="none" stroke="#63b8ff" d="M2000.75,-450.6C1961.95,-487.21 1889.09,-555.93 1855.9,-587.25"/>
<polygon fill="#63b8ff" stroke="#63b8ff" points="2002.96,-453.33 2007.83,-443.92 1998.16,-448.24 2002.96,-453.33"/>
</a>
</g>
</g>
<!-- Node18 -->
<g id="Node000018" class="node">
<title>Node18</title>
<g id="a_Node000018"><a xlink:href="class_main_window.html#a1049a5796ac248f40a3b4110ed5faf77" target="_top" xlink:title=" ">
<polygon fill="white" stroke="#666666" points="1522.25,-524.55 1353.25,-524.55 1353.25,-492.55 1522.25,-492.55 1522.25,-524.55"/>
<text xml:space="preserve" text-anchor="start" x="1361.25" y="-511.05" font-family="Helvetica,sans-Serif" font-size="10.00">MainWindow::populateRelationship</text>
<text xml:space="preserve" text-anchor="middle" x="1437.75" y="-499.05" font-family="Helvetica,sans-Serif" font-size="10.00">Properties</text>
</a>
</g>
</g>
<!-- Node10&#45;&gt;Node18 -->
<g id="edge54_Node000010_Node000018" class="edge">
<title>Node10&#45;&gt;Node18</title>
<g id="a_edge54_Node000010_Node000018"><a xlink:title=" ">
<path fill="none" stroke="#63b8ff" d="M1938.77,-438.76C1826.43,-454.44 1632.85,-481.45 1522.4,-496.87"/>
<polygon fill="#63b8ff" stroke="#63b8ff" points="1939.13,-442.24 1948.55,-437.39 1938.16,-435.31 1939.13,-442.24"/>
</a>
</g>
</g>
<!-- Node12 -->
<g id="Node000012" class="node">
<title>Node12</title>
<g id="a_Node000012"><a xlink:href="class_main_window.html#a697154cf7839e00c607134c2a4e018cf" target="_top" xlink:title=" ">
<polygon fill="white" stroke="#666666" points="1725.75,-632.55 1558.25,-632.55 1558.25,-612.55 1725.75,-612.55 1725.75,-632.55"/>
<text xml:space="preserve" text-anchor="middle" x="1642" y="-619.05" font-family="Helvetica,sans-Serif" font-size="10.00">MainWindow::populateAttributeList</text>
</a>
</g>
</g>
<!-- Node11&#45;&gt;Node12 -->
<g id="edge12_Node000011_Node000012" class="edge">
<title>Node11&#45;&gt;Node12</title>
<g id="a_edge12_Node000011_Node000012"><a xlink:title=" ">
<path fill="none" stroke="#63b8ff" d="M1750.06,-605.32C1729.33,-607.22 1707.97,-609.6 1689.84,-612.07"/>
<polygon fill="#63b8ff" stroke="#63b8ff" points="1750.32,-608.81 1759.98,-604.45 1749.71,-601.84 1750.32,-608.81"/>
</a>
</g>
</g>
<!-- Node14 -->
<g id="Node000014" class="node">
<title>Node14</title>
<g id="a_Node000014"><a xlink:href="class_main_window.html#add7e6ae12287854ff779bd4b5649dd98" target="_top" xlink:title=" ">
<polygon fill="white" stroke="#666666" points="1317.25,-442.55 1158,-442.55 1158,-410.55 1317.25,-410.55 1317.25,-442.55"/>
<text xml:space="preserve" text-anchor="start" x="1166" y="-429.05" font-family="Helvetica,sans-Serif" font-size="10.00">MainWindow::populateProperties</text>
<text xml:space="preserve" text-anchor="middle" x="1237.62" y="-417.05" font-family="Helvetica,sans-Serif" font-size="10.00">ForElement</text>
</a>
</g>
</g>
<!-- Node11&#45;&gt;Node14 -->
<g id="edge53_Node000011_Node000014" class="edge">
<title>Node11&#45;&gt;Node14</title>
<g id="a_edge53_Node000011_Node000014"><a xlink:title=" ">
<path fill="none" stroke="#63b8ff" d="M1789.15,-582.57C1728.31,-556.36 1619.13,-511.56 1522.25,-483.55 1454.22,-463.87 1375.09,-448.58 1317.72,-438.81"/>
<polygon fill="#63b8ff" stroke="#63b8ff" points="1787.61,-585.72 1798.18,-586.48 1790.39,-579.3 1787.61,-585.72"/>
</a>
</g>
</g>
<!-- Node12&#45;&gt;Node11 -->
<g id="edge13_Node000012_Node000011" class="edge">
<title>Node12&#45;&gt;Node11</title>
<g id="a_edge13_Node000012_Node000011"><a xlink:title=" ">
<path fill="none" stroke="#63b8ff" d="M1737.48,-620.02C1745.53,-619.25 1753.61,-618.4 1761.49,-617.52"/>
<polygon fill="#63b8ff" stroke="#63b8ff" points="1737.27,-616.53 1727.63,-620.94 1737.92,-623.5 1737.27,-616.53"/>
</a>
</g>
</g>
<!-- Node13 -->
<g id="Node000013" class="node">
<title>Node13</title>
<g id="a_Node000013"><a xlink:href="class_main_window.html#a40023e3590f2593fd133a6b111f63ed9" target="_top" xlink:title=" ">
<polygon fill="white" stroke="#666666" points="514.5,-606.55 374,-606.55 374,-574.55 514.5,-574.55 514.5,-606.55"/>
<text xml:space="preserve" text-anchor="start" x="382" y="-593.05" font-family="Helvetica,sans-Serif" font-size="10.00">MainWindow::populateEntity</text>
<text xml:space="preserve" text-anchor="middle" x="444.25" y="-581.05" font-family="Helvetica,sans-Serif" font-size="10.00">Properties</text>
</a>
</g>
</g>
<!-- Node12&#45;&gt;Node13 -->
<g id="edge14_Node000012_Node000013" class="edge">
<title>Node12&#45;&gt;Node13</title>
<g id="a_edge14_Node000012_Node000013"><a xlink:title=" ">
<path fill="none" stroke="#63b8ff" d="M1561.01,-634.57C1479.96,-645.71 1350.88,-660.55 1238.62,-660.55 1238.62,-660.55 1238.62,-660.55 849.12,-660.55 724.23,-660.55 580.77,-627.65 502.89,-606.96"/>
<polygon fill="#63b8ff" stroke="#63b8ff" points="1561.2,-638.08 1570.62,-633.24 1560.24,-631.15 1561.2,-638.08"/>
</a>
</g>
</g>
<!-- Node12&#45;&gt;Node18 -->
<g id="edge52_Node000012_Node000018" class="edge">
<title>Node12&#45;&gt;Node18</title>
<g id="a_edge52_Node000012_Node000018"><a xlink:title=" ">
<path fill="none" stroke="#63b8ff" d="M1612.73,-606.61C1574.45,-585.04 1506.48,-546.72 1467.8,-524.92"/>
<polygon fill="#63b8ff" stroke="#63b8ff" points="1610.95,-609.62 1621.38,-611.49 1614.38,-603.53 1610.95,-609.62"/>
</a>
</g>
</g>
<!-- Node13&#45;&gt;Node14 -->
<g id="edge15_Node000013_Node000014" class="edge">
<title>Node13&#45;&gt;Node14</title>
<g id="a_edge15_Node000013_Node000014"><a xlink:title=" ">
<path fill="none" stroke="#63b8ff" d="M525.96,-573.82C678.4,-542.23 1006.91,-474.15 1157.85,-442.87"/>
<polygon fill="#63b8ff" stroke="#63b8ff" points="525.41,-570.36 516.33,-575.82 526.83,-577.21 525.41,-570.36"/>
</a>
</g>
</g>
<!-- Node15 -->
<g id="Node000015" class="node">
<title>Node15</title>
<g id="a_Node000015"><a xlink:href="class_main_window.html#a5caeae304b10e5cd9f83ef5c6086310b" target="_top" xlink:title=" ">
<polygon fill="white" stroke="#666666" points="1122,-272.55 970.25,-272.55 970.25,-240.55 1122,-240.55 1122,-272.55"/>
<text xml:space="preserve" text-anchor="start" x="978.25" y="-259.05" font-family="Helvetica,sans-Serif" font-size="10.00">MainWindow::updateProperties</text>
<text xml:space="preserve" text-anchor="middle" x="1046.12" y="-247.05" font-family="Helvetica,sans-Serif" font-size="10.00">Panel</text>
</a>
</g>
</g>
<!-- Node14&#45;&gt;Node15 -->
<g id="edge16_Node000014_Node000015" class="edge">
<title>Node14&#45;&gt;Node15</title>
<g id="a_edge16_Node000014_Node000015"><a xlink:title=" ">
<path fill="none" stroke="#63b8ff" d="M1210.18,-402.83C1171.09,-367.75 1098.87,-302.97 1065.24,-272.8"/>
<polygon fill="#63b8ff" stroke="#63b8ff" points="1207.55,-405.16 1217.33,-409.24 1212.22,-399.95 1207.55,-405.16"/>
</a>
</g>
</g>
<!-- Node15&#45;&gt;Node9 -->
<g id="edge28_Node000015_Node000009" class="edge">
<title>Node15&#45;&gt;Node9</title>
<g id="a_edge28_Node000015_Node000009"><a xlink:title=" ">
<path fill="none" stroke="#63b8ff" d="M1133.58,-271.95C1212.32,-284.64 1331.97,-300.55 1436.75,-300.55 1838.62,-300.55 1838.62,-300.55 1838.62,-300.55 1957.31,-300.55 1989.11,-307.19 2105,-281.55 2141.89,-273.38 2182.43,-256.22 2206.59,-245.05"/>
<polygon fill="#63b8ff" stroke="#63b8ff" points="1134.19,-268.51 1123.76,-270.35 1133.06,-275.42 1134.19,-268.51"/>
</a>
</g>
</g>
<!-- Node16 -->
<g id="Node000016" class="node">
<title>Node16</title>
<g id="a_Node000016"><a xlink:href="class_main_window.html#ad34ae0349abf41aa739b75b85df74126" target="_top" xlink:title=" ">
<polygon fill="white" stroke="#666666" points="921.5,-354.55 778.75,-354.55 778.75,-322.55 921.5,-322.55 921.5,-354.55"/>
<text xml:space="preserve" text-anchor="start" x="786.75" y="-341.05" font-family="Helvetica,sans-Serif" font-size="10.00">MainWindow::onAddAttribute</text>
<text xml:space="preserve" text-anchor="middle" x="850.12" y="-329.05" font-family="Helvetica,sans-Serif" font-size="10.00">OnTreeClicked</text>
</a>
</g>
</g>
<!-- Node15&#45;&gt;Node16 -->
<g id="edge17_Node000015_Node000016" class="edge">
<title>Node15&#45;&gt;Node16</title>
<g id="a_edge17_Node000015_Node000016"><a xlink:title=" ">
<path fill="none" stroke="#63b8ff" d="M1002.26,-277.78C981.86,-287.59 957,-299.13 934.25,-308.55 922.91,-313.24 910.54,-317.93 898.89,-322.16"/>
<polygon fill="#63b8ff" stroke="#63b8ff" points="1003.65,-280.99 1011.13,-273.48 1000.6,-274.69 1003.65,-280.99"/>
</a>
</g>
</g>
<!-- Node19 -->
<g id="Node000019" class="node">
<title>Node19</title>
<g id="a_Node000019"><a xlink:href="class_main_window.html#a47fd0b86ddb5829e3b0cb15908671670" target="_top" xlink:title=" ">
<polygon fill="white" stroke="#666666" points="531,-269.55 357.5,-269.55 357.5,-249.55 531,-249.55 531,-269.55"/>
<text xml:space="preserve" text-anchor="middle" x="444.25" y="-256.05" font-family="Helvetica,sans-Serif" font-size="10.00">MainWindow::onCheckBoxChanged</text>
</a>
</g>
</g>
<!-- Node15&#45;&gt;Node19 -->
<g id="edge24_Node000015_Node000019" class="edge">
<title>Node15&#45;&gt;Node19</title>
<g id="a_edge24_Node000015_Node000019"><a xlink:title=" ">
<path fill="none" stroke="#63b8ff" d="M959.7,-275.38C951.11,-277.17 942.51,-278.92 934.25,-280.55 843.8,-298.3 821.83,-308.52 730,-316.55 657.83,-322.86 637.72,-332.28 567,-316.55 526.68,-307.57 483.91,-283.76 461.36,-269.92"/>
<polygon fill="#63b8ff" stroke="#63b8ff" points="960.41,-278.81 969.47,-273.33 958.97,-271.96 960.41,-278.81"/>
</a>
</g>
</g>
<!-- Node21 -->
<g id="Node000021" class="node">
<title>Node21</title>
<g id="a_Node000021"><a xlink:href="class_main_window.html#a0e7ca45ac830893108871185dda813a4" target="_top" xlink:title=" ">
<polygon fill="white" stroke="#666666" points="730,-307.55 567,-307.55 567,-287.55 730,-287.55 730,-307.55"/>
<text xml:space="preserve" text-anchor="middle" x="648.5" y="-294.05" font-family="Helvetica,sans-Serif" font-size="10.00">MainWindow::onLineEditChanged</text>
</a>
</g>
</g>
<!-- Node15&#45;&gt;Node21 -->
<g id="edge29_Node000015_Node000021" class="edge">
<title>Node15&#45;&gt;Node21</title>
<g id="a_edge29_Node000015_Node000021"><a xlink:title=" ">
<path fill="none" stroke="#63b8ff" d="M958.63,-262.66C903.43,-266.89 830.41,-273.08 766,-280.55 749.96,-282.4 732.73,-284.73 716.56,-287.07"/>
<polygon fill="#63b8ff" stroke="#63b8ff" points="958.56,-266.17 968.27,-261.93 958.03,-259.19 958.56,-266.17"/>
</a>
</g>
</g>
<!-- Node23 -->
<g id="Node000023" class="node">
<title>Node23</title>
<g id="a_Node000023"><a xlink:href="class_main_window.html#a1043995538765eae993ae75217c482e7" target="_top" xlink:title=" ">
<polygon fill="white" stroke="#666666" points="519,-55.55 369.5,-55.55 369.5,-23.55 519,-23.55 519,-55.55"/>
<text xml:space="preserve" text-anchor="start" x="377.5" y="-42.05" font-family="Helvetica,sans-Serif" font-size="10.00">MainWindow::onPropertyValue</text>
<text xml:space="preserve" text-anchor="middle" x="444.25" y="-30.05" font-family="Helvetica,sans-Serif" font-size="10.00">Changed</text>
</a>
</g>
</g>
<!-- Node15&#45;&gt;Node23 -->
<g id="edge32_Node000015_Node000023" class="edge">
<title>Node15&#45;&gt;Node23</title>
<g id="a_edge32_Node000015_Node000023"><a xlink:title=" ">
<path fill="none" stroke="#63b8ff" d="M1039.54,-229.18C1027.88,-184.19 996.67,-96.71 934.25,-58.55 794.23,27.06 587.4,-0.5 494.08,-23.1"/>
<polygon fill="#63b8ff" stroke="#63b8ff" points="1036.09,-229.79 1041.85,-238.68 1042.89,-228.14 1036.09,-229.79"/>
</a>
</g>
</g>
<!-- Node26 -->
<g id="Node000026" class="node">
<title>Node26</title>
<g id="a_Node000026"><a xlink:href="class_main_window.html#a95674d4bfc5fc2aad6df1601f23b1793" target="_top" xlink:title=" ">
<polygon fill="white" stroke="#666666" points="931.25,-404.55 769,-404.55 769,-372.55 931.25,-372.55 931.25,-404.55"/>
<text xml:space="preserve" text-anchor="start" x="777" y="-391.05" font-family="Helvetica,sans-Serif" font-size="10.00">MainWindow::onRemoveAttribute</text>
<text xml:space="preserve" text-anchor="middle" x="850.12" y="-379.05" font-family="Helvetica,sans-Serif" font-size="10.00">OnTreeClicked</text>
</a>
</g>
</g>
<!-- Node15&#45;&gt;Node26 -->
<g id="edge36_Node000015_Node000026" class="edge">
<title>Node15&#45;&gt;Node26</title>
<g id="a_edge36_Node000015_Node000026"><a xlink:title=" ">
<path fill="none" stroke="#63b8ff" d="M1025.47,-281.45C1005.09,-305.7 971.09,-341.97 934.25,-363.55 928.79,-366.75 922.88,-369.57 916.82,-372.05"/>
<polygon fill="#63b8ff" stroke="#63b8ff" points="1027.98,-283.92 1031.63,-273.97 1022.58,-279.47 1027.98,-283.92"/>
</a>
</g>
</g>
<!-- Node27 -->
<g id="Node000027" class="node">
<title>Node27</title>
<g id="a_Node000027"><a xlink:href="class_main_window.html#a44791b85064ecff42c12429c6667e83b" target="_top" xlink:title=" ">
<polygon fill="white" stroke="#666666" points="934.25,-96.55 766,-96.55 766,-76.55 934.25,-76.55 934.25,-96.55"/>
<text xml:space="preserve" text-anchor="middle" x="850.12" y="-83.05" font-family="Helvetica,sans-Serif" font-size="10.00">MainWindow::onSelectionChanged</text>
</a>
</g>
</g>
<!-- Node15&#45;&gt;Node27 -->
<g id="edge38_Node000015_Node000027" class="edge">
<title>Node15&#45;&gt;Node27</title>
<g id="a_edge38_Node000015_Node000027"><a xlink:title=" ">
<path fill="none" stroke="#63b8ff" d="M1017.97,-232.75C974.95,-195.05 892.91,-123.16 862.68,-96.67"/>
<polygon fill="#63b8ff" stroke="#63b8ff" points="1015.56,-235.29 1025.39,-239.25 1020.17,-230.03 1015.56,-235.29"/>
</a>
</g>
</g>
<!-- Node28 -->
<g id="Node000028" class="node">
<title>Node28</title>
<g id="a_Node000028"><a xlink:href="class_main_window.html#af380eeda83d30cd1ecb1419cfd5161d7" target="_top" xlink:title=" ">
<polygon fill="white" stroke="#666666" points="917,-228.55 783.25,-228.55 783.25,-196.55 917,-196.55 917,-228.55"/>
<text xml:space="preserve" text-anchor="start" x="791.25" y="-215.05" font-family="Helvetica,sans-Serif" font-size="10.00">MainWindow::updatesAfter</text>
<text xml:space="preserve" text-anchor="middle" x="850.12" y="-203.05" font-family="Helvetica,sans-Serif" font-size="10.00">ChangingProperty</text>
</a>
</g>
</g>
<!-- Node15&#45;&gt;Node28 -->
<g id="edge40_Node000015_Node000028" class="edge">
<title>Node15&#45;&gt;Node28</title>
<g id="a_edge40_Node000015_Node000028"><a xlink:title=" ">
<path fill="none" stroke="#63b8ff" d="M961.47,-237.57C946.75,-234.24 931.63,-230.8 917.47,-227.59"/>
<polygon fill="#63b8ff" stroke="#63b8ff" points="960.61,-240.97 971.13,-239.77 962.16,-234.14 960.61,-240.97"/>
</a>
</g>
</g>
<!-- Node17 -->
<g id="Node000017" class="node">
<title>Node17</title>
<g id="a_Node000017"><a xlink:href="class_main_window.html#a6fd05e9f951dd6e7c2cd6ca815ef9d71" target="_top" xlink:title=" ">
<polygon fill="white" stroke="#666666" points="715.38,-606.55 581.62,-606.55 581.62,-574.55 715.38,-574.55 715.38,-606.55"/>
<text xml:space="preserve" text-anchor="start" x="589.62" y="-593.05" font-family="Helvetica,sans-Serif" font-size="10.00">MainWindow::createButton</text>
<text xml:space="preserve" text-anchor="middle" x="648.5" y="-581.05" font-family="Helvetica,sans-Serif" font-size="10.00">PropertyItem</text>
</a>
</g>
</g>
<!-- Node16&#45;&gt;Node17 -->
<g id="edge18_Node000016_Node000017" class="edge">
<title>Node16&#45;&gt;Node17</title>
<g id="a_edge18_Node000016_Node000017"><a xlink:title=" ">
<path fill="none" stroke="#63b8ff" d="M769.42,-360.88C768.25,-361.74 767.11,-362.62 766,-363.55 696.05,-421.8 663.33,-532.8 653.15,-574.33"/>
<polygon fill="#63b8ff" stroke="#63b8ff" points="770.99,-364.02 777.61,-355.75 767.28,-358.09 770.99,-364.02"/>
</a>
</g>
</g>
<!-- Node17&#45;&gt;Node11 -->
<g id="edge20_Node000017_Node000011" class="edge">
<title>Node17&#45;&gt;Node11</title>
<g id="a_edge20_Node000017_Node000011"><a xlink:title=" ">
<path fill="none" stroke="#63b8ff" d="M727.06,-588.68C806.82,-586.91 934.64,-584.55 1045.12,-584.55 1438.75,-584.55 1438.75,-584.55 1438.75,-584.55 1551.3,-584.55 1681.55,-592.23 1761.51,-597.82"/>
<polygon fill="#63b8ff" stroke="#63b8ff" points="727.08,-585.17 717.16,-588.9 727.23,-592.17 727.08,-585.17"/>
</a>
</g>
</g>
<!-- Node17&#45;&gt;Node12 -->
<g id="edge19_Node000017_Node000012" class="edge">
<title>Node17&#45;&gt;Node12</title>
<g id="a_edge19_Node000017_Node000012"><a xlink:title=" ">
<path fill="none" stroke="#63b8ff" d="M727.27,-600.57C806.94,-609.95 934.46,-622.55 1045.12,-622.55 1238.62,-622.55 1238.62,-622.55 1238.62,-622.55 1349,-622.55 1476.4,-622.55 1557.77,-622.55"/>
<polygon fill="#63b8ff" stroke="#63b8ff" points="727.71,-597.09 717.37,-599.39 726.89,-604.05 727.71,-597.09"/>
</a>
</g>
</g>
<!-- Node17&#45;&gt;Node13 -->
<g id="edge21_Node000017_Node000013" class="edge">
<title>Node17&#45;&gt;Node13</title>
<g id="a_edge21_Node000017_Node000013"><a xlink:title=" ">
<path fill="none" stroke="#63b8ff" d="M569.84,-590.55C551.71,-590.55 532.51,-590.55 514.75,-590.55"/>
<polygon fill="#63b8ff" stroke="#63b8ff" points="569.76,-594.05 579.76,-590.55 569.76,-587.05 569.76,-594.05"/>
</a>
</g>
</g>
<!-- Node17&#45;&gt;Node18 -->
<g id="edge22_Node000017_Node000018" class="edge">
<title>Node17&#45;&gt;Node18</title>
<g id="a_edge22_Node000017_Node000018"><a xlink:title=" ">
<path fill="none" stroke="#63b8ff" d="M726.91,-576.33C739.93,-574.21 753.33,-572.18 766,-570.55 1009.9,-539.05 1072.59,-547.52 1317.25,-522.55 1328.78,-521.37 1340.93,-520.04 1352.89,-518.69"/>
<polygon fill="#63b8ff" stroke="#63b8ff" points="726.37,-572.87 717.08,-577.97 727.52,-579.78 726.37,-572.87"/>
</a>
</g>
</g>
<!-- Node18&#45;&gt;Node14 -->
<g id="edge23_Node000018_Node000014" class="edge">
<title>Node18&#45;&gt;Node14</title>
<g id="a_edge23_Node000018_Node000014"><a xlink:title=" ">
<path fill="none" stroke="#63b8ff" d="M1375.19,-488.05C1367.7,-485.08 1360.24,-481.89 1353.25,-478.55 1336.34,-470.45 1334.08,-464.81 1317.25,-456.55 1307.28,-451.65 1296.31,-447.02 1285.79,-442.92"/>
<polygon fill="#63b8ff" stroke="#63b8ff" points="1373.73,-491.24 1384.32,-491.54 1376.23,-484.7 1373.73,-491.24"/>
</a>
</g>
</g>
<!-- Node20 -->
<g id="Node000020" class="node">
<title>Node20</title>
<g id="a_Node000020"><a xlink:href="class_main_window.html#a44aaf7bb6d9a56f53b8a7a9e4fc29f8c" target="_top" xlink:title=" ">
<polygon fill="white" stroke="#666666" points="321.5,-524.55 170.5,-524.55 170.5,-492.55 321.5,-492.55 321.5,-524.55"/>
<text xml:space="preserve" text-anchor="start" x="178.5" y="-511.05" font-family="Helvetica,sans-Serif" font-size="10.00">MainWindow::createCheckBox</text>
<text xml:space="preserve" text-anchor="middle" x="246" y="-499.05" font-family="Helvetica,sans-Serif" font-size="10.00">PropertyItem</text>
</a>
</g>
</g>
<!-- Node19&#45;&gt;Node20 -->
<g id="edge25_Node000019_Node000020" class="edge">
<title>Node19&#45;&gt;Node20</title>
<g id="a_edge25_Node000019_Node000020"><a xlink:title=" ">
<path fill="none" stroke="#63b8ff" d="M426.54,-278.5C408.99,-298.58 380.76,-331.35 357.5,-360.55 320.14,-407.45 278.4,-464.8 258.61,-492.31"/>
<polygon fill="#63b8ff" stroke="#63b8ff" points="429.06,-280.94 433.02,-271.12 423.79,-276.33 429.06,-280.94"/>
</a>
</g>
</g>
<!-- Node20&#45;&gt;Node11 -->
<g id="edge26_Node000020_Node000011" class="edge">
<title>Node20&#45;&gt;Node11</title>
<g id="a_edge26_Node000020_Node000011"><a xlink:title=" ">
<path fill="none" stroke="#63b8ff" d="M266.5,-533.56C286.76,-557.89 320.6,-594.22 357.5,-615.55 473.57,-682.63 513.44,-698.55 647.5,-698.55 1438.75,-698.55 1438.75,-698.55 1438.75,-698.55 1572.44,-698.55 1724.66,-647.18 1795.87,-619.99"/>
<polygon fill="#63b8ff" stroke="#63b8ff" points="269.42,-531.59 260.39,-526.05 263.99,-536.02 269.42,-531.59"/>
</a>
</g>
</g>
<!-- Node20&#45;&gt;Node18 -->
<g id="edge27_Node000020_Node000018" class="edge">
<title>Node20&#45;&gt;Node18</title>
<g id="a_edge27_Node000020_Node000018"><a xlink:title=" ">
<path fill="none" stroke="#63b8ff" d="M333.07,-508.55C414.17,-508.55 539.09,-508.55 647.5,-508.55 1047.12,-508.55 1047.12,-508.55 1047.12,-508.55 1152.48,-508.55 1273.86,-508.55 1352.77,-508.55"/>
<polygon fill="#63b8ff" stroke="#63b8ff" points="333.43,-505.05 323.43,-508.55 333.43,-512.05 333.43,-505.05"/>
</a>
</g>
</g>
<!-- Node22 -->
<g id="Node000022" class="node">
<title>Node22</title>
<g id="a_Node000022"><a xlink:href="class_main_window.html#ae3b6600dd59da1822ef94bbd5f37f0cc" target="_top" xlink:title=" ">
<polygon fill="white" stroke="#666666" points="514.5,-401.55 374,-401.55 374,-369.55 514.5,-369.55 514.5,-401.55"/>
<text xml:space="preserve" text-anchor="start" x="382" y="-388.05" font-family="Helvetica,sans-Serif" font-size="10.00">MainWindow::createLineEdit</text>
<text xml:space="preserve" text-anchor="middle" x="444.25" y="-376.05" font-family="Helvetica,sans-Serif" font-size="10.00">PropertyItem</text>
</a>
</g>
</g>
<!-- Node21&#45;&gt;Node22 -->
<g id="edge30_Node000021_Node000022" class="edge">
<title>Node21&#45;&gt;Node22</title>
<g id="a_edge30_Node000021_Node000022"><a xlink:title=" ">
<path fill="none" stroke="#63b8ff" d="M612.99,-312.56C576.85,-328.29 520.27,-352.9 482.97,-369.13"/>
<polygon fill="#63b8ff" stroke="#63b8ff" points="614.34,-315.79 622.12,-308.59 611.55,-309.37 614.34,-315.79"/>
</a>
</g>
</g>
<!-- Node22&#45;&gt;Node18 -->
<g id="edge31_Node000022_Node000018" class="edge">
<title>Node22&#45;&gt;Node18</title>
<g id="a_edge31_Node000022_Node000018"><a xlink:title=" ">
<path fill="none" stroke="#63b8ff" d="M502.64,-405.48C580.24,-430.6 723.38,-470.55 849.12,-470.55 1047.12,-470.55 1047.12,-470.55 1047.12,-470.55 1152.98,-470.55 1274.25,-484.61 1353,-495.63"/>
<polygon fill="#63b8ff" stroke="#63b8ff" points="504.17,-402.29 493.58,-402.51 501.99,-408.95 504.17,-402.29"/>
</a>
</g>
</g>
<!-- Node23&#45;&gt;Node15 -->
<g id="edge35_Node000023_Node000015" class="edge">
<title>Node23&#45;&gt;Node15</title>
<g id="a_edge35_Node000023_Node000015"><a xlink:title=" ">
<path fill="none" stroke="#63b8ff" d="M530.43,-27.95C634,-13.66 810.3,-0.77 934.25,-76.55 997.05,-114.94 1028.26,-203.27 1039.76,-240.23"/>
<polygon fill="#63b8ff" stroke="#63b8ff" points="530,-24.48 520.59,-29.35 530.99,-31.41 530,-24.48"/>
</a>
</g>
</g>
<!-- Node24 -->
<g id="Node000024" class="node">
<title>Node24</title>
<g id="a_Node000024"><a xlink:href="class_main_window.html#adfa32feecffce3959c99d145fc8b4854" target="_top" xlink:title=" ">
<polygon fill="white" stroke="#666666" points="318.5,-71.55 173.5,-71.55 173.5,-51.55 318.5,-51.55 318.5,-71.55"/>
<text xml:space="preserve" text-anchor="middle" x="246" y="-58.05" font-family="Helvetica,sans-Serif" font-size="10.00">MainWindow::connectSignals</text>
</a>
</g>
</g>
<!-- Node23&#45;&gt;Node24 -->
<g id="edge33_Node000023_Node000024" class="edge">
<title>Node23&#45;&gt;Node24</title>
<g id="a_edge33_Node000023_Node000024"><a xlink:title=" ">
<path fill="none" stroke="#63b8ff" d="M357.72,-49.13C344.7,-50.59 331.38,-52.09 318.7,-53.51"/>
<polygon fill="#63b8ff" stroke="#63b8ff" points="358,-52.62 367.55,-48.03 357.22,-45.67 358,-52.62"/>
</a>
</g>
</g>
<!-- Node25 -->
<g id="Node000025" class="node">
<title>Node25</title>
<g id="a_Node000025"><a xlink:href="class_main_window.html#a996c5a2b6f77944776856f08ec30858d" target="_top" xlink:title=" ">
<polygon fill="white" stroke="#666666" points="134.5,-71.55 0,-71.55 0,-51.55 134.5,-51.55 134.5,-71.55"/>
<text xml:space="preserve" text-anchor="middle" x="67.25" y="-58.05" font-family="Helvetica,sans-Serif" font-size="10.00">MainWindow::MainWindow</text>
</a>
</g>
</g>
<!-- Node24&#45;&gt;Node25 -->
<g id="edge34_Node000024_Node000025" class="edge">
<title>Node24&#45;&gt;Node25</title>
<g id="a_edge34_Node000024_Node000025"><a xlink:title=" ">
<path fill="none" stroke="#63b8ff" d="M161.78,-61.55C152.78,-61.55 143.71,-61.55 134.95,-61.55"/>
<polygon fill="#63b8ff" stroke="#63b8ff" points="161.6,-65.05 171.6,-61.55 161.6,-58.05 161.6,-65.05"/>
</a>
</g>
</g>
<!-- Node26&#45;&gt;Node17 -->
<g id="edge37_Node000026_Node000017" class="edge">
<title>Node26&#45;&gt;Node17</title>
<g id="a_edge37_Node000026_Node000017"><a xlink:title=" ">
<path fill="none" stroke="#63b8ff" d="M825.24,-412.72C784.03,-454.42 700.61,-538.82 665.57,-574.28"/>
<polygon fill="#63b8ff" stroke="#63b8ff" points="827.52,-415.38 832.06,-405.81 822.54,-410.46 827.52,-415.38"/>
</a>
</g>
</g>
<!-- Node27&#45;&gt;Node24 -->
<g id="edge39_Node000027_Node000024" class="edge">
<title>Node27&#45;&gt;Node24</title>
<g id="a_edge39_Node000027_Node000024"><a xlink:title=" ">
<path fill="none" stroke="#63b8ff" d="M754.3,-82.61C633.5,-77.59 427.41,-69.04 318.82,-64.53"/>
<polygon fill="#63b8ff" stroke="#63b8ff" points="754.07,-86.1 764.21,-83.02 754.36,-79.11 754.07,-86.1"/>
</a>
</g>
</g>
<!-- Node28&#45;&gt;Node8 -->
<g id="edge45_Node000028_Node000008" class="edge">
<title>Node28&#45;&gt;Node8</title>
<g id="a_edge45_Node000028_Node000008"><a xlink:title=" ">
<path fill="none" stroke="#63b8ff" d="M928.59,-200.11C1069.82,-178.56 1378.77,-136.55 1641,-136.55 2028.25,-136.55 2028.25,-136.55 2028.25,-136.55 2141.49,-136.55 2271.79,-151.48 2353.24,-162.63"/>
<polygon fill="#63b8ff" stroke="#63b8ff" points="928.34,-196.61 918.99,-201.59 929.4,-203.53 928.34,-196.61"/>
</a>
</g>
</g>
<!-- Node28&#45;&gt;Node9 -->
<g id="edge49_Node000028_Node000009" class="edge">
<title>Node28&#45;&gt;Node9</title>
<g id="a_edge49_Node000028_Node000009"><a xlink:title=" ">
<path fill="none" stroke="#63b8ff" d="M928.44,-212.55C1006.27,-212.55 1129.78,-212.55 1236.62,-212.55 1838.62,-212.55 1838.62,-212.55 1838.62,-212.55 1942.45,-212.55 2061.6,-220.43 2140.51,-226.76"/>
<polygon fill="#63b8ff" stroke="#63b8ff" points="928.81,-209.05 918.81,-212.55 928.81,-216.05 928.81,-209.05"/>
</a>
</g>
</g>
<!-- Node28&#45;&gt;Node19 -->
<g id="edge48_Node000028_Node000019" class="edge">
<title>Node28&#45;&gt;Node19</title>
<g id="a_edge48_Node000028_Node000019"><a xlink:title=" ">
<path fill="none" stroke="#63b8ff" d="M776.68,-231.57C761.36,-235.04 745.22,-238.27 730,-240.55 663.73,-250.48 588,-255.22 531.31,-257.48"/>
<polygon fill="#63b8ff" stroke="#63b8ff" points="777.25,-235.04 786.2,-229.37 775.66,-228.22 777.25,-235.04"/>
</a>
</g>
</g>
<!-- Node28&#45;&gt;Node21 -->
<g id="edge50_Node000028_Node000021" class="edge">
<title>Node28&#45;&gt;Node21</title>
<g id="a_edge50_Node000028_Node000021"><a xlink:title=" ">
<path fill="none" stroke="#63b8ff" d="M784.04,-233.4C777.8,-236.17 771.69,-239.23 766,-242.55 747.77,-253.2 748.53,-263.42 730,-273.55 719.76,-279.14 708.06,-283.59 696.81,-287.05"/>
<polygon fill="#63b8ff" stroke="#63b8ff" points="785.34,-236.65 793.22,-229.56 782.64,-230.19 785.34,-236.65"/>
</a>
</g>
</g>
<!-- Node28&#45;&gt;Node23 -->
<g id="edge51_Node000028_Node000023" class="edge">
<title>Node28&#45;&gt;Node23</title>
<g id="a_edge51_Node000028_Node000023"><a xlink:title=" ">
<path fill="none" stroke="#63b8ff" d="M771.63,-198.26C694.51,-183.7 585.11,-161.95 567,-152.55 520.16,-128.23 478.07,-80.94 457.88,-55.94"/>
<polygon fill="#63b8ff" stroke="#63b8ff" points="770.79,-201.67 781.27,-200.08 772.09,-194.79 770.79,-201.67"/>
</a>
</g>
</g>
<!-- Node29 -->
<g id="Node000029" class="node">
<title>Node29</title>
<g id="a_Node000029"><a xlink:href="class_main_window.html#a9ed390421f6755b891cfc651d173db7b" target="_top" xlink:title=" ">
<polygon fill="white" stroke="#666666" points="720.25,-143.55 576.75,-143.55 576.75,-111.55 720.25,-111.55 720.25,-143.55"/>
<text xml:space="preserve" text-anchor="start" x="584.75" y="-130.05" font-family="Helvetica,sans-Serif" font-size="10.00">MainWindow::handleAttribute</text>
<text xml:space="preserve" text-anchor="middle" x="648.5" y="-118.05" font-family="Helvetica,sans-Serif" font-size="10.00">PropertyChange</text>
</a>
</g>
</g>
<!-- Node28&#45;&gt;Node29 -->
<g id="edge41_Node000028_Node000029" class="edge">
<title>Node28&#45;&gt;Node29</title>
<g id="a_edge41_Node000028_Node000029"><a xlink:title=" ">
<path fill="none" stroke="#63b8ff" d="M805.11,-191.25C782.78,-180.71 755.14,-168.02 730,-157.55 718.85,-152.9 706.69,-148.19 695.29,-143.93"/>
<polygon fill="#63b8ff" stroke="#63b8ff" points="803.38,-194.31 813.91,-195.44 806.38,-187.99 803.38,-194.31"/>
</a>
</g>
</g>
<!-- Node30 -->
<g id="Node000030" class="node">
<title>Node30</title>
<g id="a_Node000030"><a xlink:href="class_main_window.html#a96d575a529f7c24b1b5094b4b1e42742" target="_top" xlink:title=" ">
<polygon fill="white" stroke="#666666" points="728.88,-231.55 568.12,-231.55 568.12,-199.55 728.88,-199.55 728.88,-231.55"/>
<text xml:space="preserve" text-anchor="start" x="576.12" y="-218.05" font-family="Helvetica,sans-Serif" font-size="10.00">MainWindow::handleRelationship</text>
<text xml:space="preserve" text-anchor="middle" x="648.5" y="-206.05" font-family="Helvetica,sans-Serif" font-size="10.00">EndParticipationChange</text>
</a>
</g>
</g>
<!-- Node28&#45;&gt;Node30 -->
<g id="edge46_Node000028_Node000030" class="edge">
<title>Node28&#45;&gt;Node30</title>
<g id="a_edge46_Node000028_Node000030"><a xlink:title=" ">
<path fill="none" stroke="#63b8ff" d="M771.83,-213.71C757.8,-213.92 743.14,-214.14 729.05,-214.35"/>
<polygon fill="#63b8ff" stroke="#63b8ff" points="771.47,-217.21 781.42,-213.56 771.37,-210.21 771.47,-217.21"/>
</a>
</g>
</g>
<!-- Node29&#45;&gt;Node9 -->
<g id="edge43_Node000029_Node000009" class="edge">
<title>Node29&#45;&gt;Node9</title>
<g id="a_edge43_Node000029_Node000009"><a xlink:title=" ">
<path fill="none" stroke="#63b8ff" d="M732.03,-134.11C901.99,-147.03 1303.45,-174.55 1641,-174.55 1838.62,-174.55 1838.62,-174.55 1838.62,-174.55 1967.29,-174.55 2117.11,-206.9 2187.62,-224.1"/>
<polygon fill="#63b8ff" stroke="#63b8ff" points="732.43,-130.63 722.19,-133.35 731.9,-137.61 732.43,-130.63"/>
</a>
</g>
</g>
<!-- Node29&#45;&gt;Node19 -->
<g id="edge42_Node000029_Node000019" class="edge">
<title>Node29&#45;&gt;Node19</title>
<g id="a_edge42_Node000029_Node000019"><a xlink:title=" ">
<path fill="none" stroke="#63b8ff" d="M612.8,-150.2C568.48,-179.12 493.66,-227.95 461.14,-249.18"/>
<polygon fill="#63b8ff" stroke="#63b8ff" points="614.57,-153.22 621.03,-144.82 610.74,-147.36 614.57,-153.22"/>
</a>
</g>
</g>
<!-- Node29&#45;&gt;Node23 -->
<g id="edge44_Node000029_Node000023" class="edge">
<title>Node29&#45;&gt;Node23</title>
<g id="a_edge44_Node000029_Node000023"><a xlink:title=" ">
<path fill="none" stroke="#63b8ff" d="M599.76,-106.77C564.07,-91.25 515.96,-70.31 482.96,-55.95"/>
<polygon fill="#63b8ff" stroke="#63b8ff" points="597.98,-109.82 608.54,-110.6 600.77,-103.4 597.98,-109.82"/>
</a>
</g>
</g>
<!-- Node30&#45;&gt;Node19 -->
<g id="edge47_Node000030_Node000019" class="edge">
<title>Node30&#45;&gt;Node19</title>
<g id="a_edge47_Node000030_Node000019"><a xlink:title=" ">
<path fill="none" stroke="#63b8ff" d="M560.7,-234.43C537.68,-239.44 513.64,-244.67 493.5,-249.05"/>
<polygon fill="#63b8ff" stroke="#63b8ff" points="561.4,-237.86 570.42,-232.31 559.91,-231.02 561.4,-237.86"/>
</a>
</g>
</g>
<!-- Node32 -->
<g id="Node000032" class="node">
<title>Node32</title>
<g id="a_Node000032"><a xlink:href="class_main_window.html#af02df1238ccf49caa1c4099c88dfe465" target="_top" xlink:title=" ">
<polygon fill="white" stroke="#666666" points="1721.62,-272.55 1562.38,-272.55 1562.38,-240.55 1721.62,-240.55 1721.62,-272.55"/>
<text xml:space="preserve" text-anchor="start" x="1570.38" y="-259.05" font-family="Helvetica,sans-Serif" font-size="10.00">MainWindow::populateProperties</text>
<text xml:space="preserve" text-anchor="middle" x="1642" y="-247.05" font-family="Helvetica,sans-Serif" font-size="10.00">ForConnection</text>
</a>
</g>
</g>
<!-- Node31&#45;&gt;Node32 -->
<g id="edge56_Node000031_Node000032" class="edge">
<title>Node31&#45;&gt;Node32</title>
<g id="a_edge56_Node000031_Node000032"><a xlink:title=" ">
<path fill="none" stroke="#63b8ff" d="M1937.67,-256.55C1872.51,-256.55 1784.72,-256.55 1721.95,-256.55"/>
<polygon fill="#63b8ff" stroke="#63b8ff" points="1937.64,-260.05 1947.64,-256.55 1937.64,-253.05 1937.64,-260.05"/>
</a>
</g>
</g>
<!-- Node32&#45;&gt;Node15 -->
<g id="edge57_Node000032_Node000015" class="edge">
<title>Node32&#45;&gt;Node15</title>
<g id="a_edge57_Node000032_Node000015"><a xlink:title=" ">
<path fill="none" stroke="#63b8ff" d="M1550.72,-256.55C1433.55,-256.55 1231.22,-256.55 1122.09,-256.55"/>
<polygon fill="#63b8ff" stroke="#63b8ff" points="1550.62,-260.05 1560.62,-256.55 1550.62,-253.05 1550.62,-260.05"/>
</a>
</g>
</g>
</g>
</svg>
