<?xml version="1.0" encoding="UTF-8" standalone="no"?>
<!DOCTYPE svg PUBLIC "-//W3C//DTD SVG 1.1//EN"
 "http://www.w3.org/Graphics/SVG/1.1/DTD/svg11.dtd">
<!-- Generated by graphviz version 14.1.1 (20251213.1925)
 -->
<!-- Title: DiagramSerializer::diagramToJsonObject Pages: 1 -->
<svg width="632pt" height="128pt"
 viewBox="0.00 0.00 632.00 128.00" xmlns="http://www.w3.org/2000/svg" xmlns:xlink="http://www.w3.org/1999/xlink">
<g id="graph0" class="graph" transform="scale(1 1) rotate(0) translate(4 124)">
<title>DiagramSerializer::diagramToJsonObject</title>
<!-- Node1 -->
<g id="Node000001" class="node">
<title>Node1</title>
<g id="a_Node000001"><a xlink:title=" ">
<polygon fill="#999999" stroke="#666666" points="110.5,-57 0,-57 0,-25 110.5,-25 110.5,-57"/>
<text xml:space="preserve" text-anchor="start" x="8" y="-43.5" font-family="Helvetica,sans-Serif" font-size="10.00">DiagramSerializer::</text>
<text xml:space="preserve" text-anchor="middle" x="55.25" y="-31.5" font-family="Helvetica,sans-Serif" font-size="10.00">diagramToJsonObject</text>
</a>
</g>
</g>
<!-- Node2 -->
<g id="Node000002" class="node">
<title>Node2</title>
<g id="a_Node000002"><a xlink:href="class_diagram_serializer.html#afc169d49508cfe6a9f14aadfbc395bff" target="_top" xlink:title=" ">
<polygon fill="white" stroke="#666666" points="269.75,-82 146.5,-82 146.5,-50 269.75,-50 269.75,-82"/>
<text xml:space="preserve" text-anchor="start" x="154.5" y="-68.5" font-family="Helvetica,sans-Serif" font-size="10.00">DiagramSerializer::</text>
<text xml:space="preserve" text-anchor="middle" x="208.12" y="-56.5" font-family="Helvetica,sans-Serif" font-size="10.00">connectionToJsonObject</text>
</a>
</g>
</g>
<!-- Node1&#45;&gt;Node2 -->
<g id="edge1_Node000001_Node000002" class="edge">
<title>Node1&#45;&gt;Node2</title>
<g id="a_edge1_Node000001_Node000002"><a xlink:title=" ">
<path fill="none" stroke="#63b8ff" d="M110.72,-50.03C118.52,-51.32 126.65,-52.67 134.73,-54"/>
<polygon fill="#63b8ff" stroke="#63b8ff" points="134.15,-57.46 144.59,-55.64 135.3,-50.55 134.15,-57.46"/>
</a>
</g>
</g>
<!-- Node7 -->
<g id="Node000007" class="node">
<title>Node7</title>
<g id="a_Node000007"><a xlink:href="class_diagram_serializer.html#aebb8ae92fc17cafe0b0d08f92073661e" target="_top" xlink:title=" ">
<polygon fill="white" stroke="#666666" points="263.38,-32 152.88,-32 152.88,0 263.38,0 263.38,-32"/>
<text xml:space="preserve" text-anchor="start" x="160.88" y="-18.5" font-family="Helvetica,sans-Serif" font-size="10.00">DiagramSerializer::</text>
<text xml:space="preserve" text-anchor="middle" x="208.12" y="-6.5" font-family="Helvetica,sans-Serif" font-size="10.00">elementToJsonObject</text>
</a>
</g>
</g>
<!-- Node1&#45;&gt;Node7 -->
<g id="edge6_Node000001_Node000007" class="edge">
<title>Node1&#45;&gt;Node7</title>
<g id="a_edge6_Node000001_Node000007"><a xlink:title=" ">
<path fill="none" stroke="#63b8ff" d="M110.72,-31.97C120.59,-30.34 130.99,-28.62 141.15,-26.93"/>
<polygon fill="#63b8ff" stroke="#63b8ff" points="141.7,-30.39 150.99,-25.3 140.55,-23.48 141.7,-30.39"/>
</a>
</g>
</g>
<!-- Node3 -->
<g id="Node000003" class="node">
<title>Node3</title>
<g id="a_Node000003"><a xlink:href="class_connection_line.html#a89b03bf381274e4504b1cde0f32972ee" target="_top" xlink:title=" ">
<polygon fill="white" stroke="#666666" points="431.25,-76 305.75,-76 305.75,-56 431.25,-56 431.25,-76"/>
<text xml:space="preserve" text-anchor="middle" x="368.5" y="-62.5" font-family="Helvetica,sans-Serif" font-size="10.00">ConnectionLine::serialize</text>
</a>
</g>
</g>
<!-- Node2&#45;&gt;Node3 -->
<g id="edge2_Node000002_Node000003" class="edge">
<title>Node2&#45;&gt;Node3</title>
<g id="a_edge2_Node000002_Node000003"><a xlink:title=" ">
<path fill="none" stroke="#63b8ff" d="M269.9,-66C277.79,-66 285.93,-66 294,-66"/>
<polygon fill="#63b8ff" stroke="#63b8ff" points="293.8,-69.5 303.8,-66 293.8,-62.5 293.8,-69.5"/>
</a>
</g>
</g>
<!-- Node4 -->
<g id="Node000004" class="node">
<title>Node4</title>
<g id="a_Node000004"><a xlink:href="class_connection_line.html#ab11952b505976244aabc575e0ec7b118" target="_top" xlink:title=" ">
<polygon fill="white" stroke="#666666" points="623.5,-120 467.25,-120 467.25,-100 623.5,-100 623.5,-120"/>
<text xml:space="preserve" text-anchor="middle" x="545.38" y="-106.5" font-family="Helvetica,sans-Serif" font-size="10.00">ConnectionLine::getEndElement</text>
</a>
</g>
</g>
<!-- Node3&#45;&gt;Node4 -->
<g id="edge3_Node000003_Node000004" class="edge">
<title>Node3&#45;&gt;Node4</title>
<g id="a_edge3_Node000003_Node000004"><a xlink:title=" ">
<path fill="none" stroke="#63b8ff" d="M409.9,-76.42C427.51,-80.94 448.39,-86.27 467.25,-91 474.8,-92.89 482.76,-94.88 490.59,-96.82"/>
<polygon fill="#63b8ff" stroke="#63b8ff" points="489.51,-100.15 500.05,-99.15 491.19,-93.36 489.51,-100.15"/>
</a>
</g>
</g>
<!-- Node5 -->
<g id="Node000005" class="node">
<title>Node5</title>
<g id="a_Node000005"><a xlink:href="class_connection_line.html#ad957be37b7bbb9250366225fd357a5a6" target="_top" xlink:title=" ">
<polygon fill="white" stroke="#666666" points="607.38,-82 483.38,-82 483.38,-50 607.38,-50 607.38,-82"/>
<text xml:space="preserve" text-anchor="start" x="491.38" y="-68.5" font-family="Helvetica,sans-Serif" font-size="10.00">ConnectionLine::getStart</text>
<text xml:space="preserve" text-anchor="middle" x="545.38" y="-56.5" font-family="Helvetica,sans-Serif" font-size="10.00">Element</text>
</a>
</g>
</g>
<!-- Node3&#45;&gt;Node5 -->
<g id="edge4_Node000003_Node000005" class="edge">
<title>Node3&#45;&gt;Node5</title>
<g id="a_edge4_Node000003_Node000005"><a xlink:title=" ">
<path fill="none" stroke="#63b8ff" d="M431.65,-66C444.55,-66 458.27,-66 471.52,-66"/>
<polygon fill="#63b8ff" stroke="#63b8ff" points="471.5,-69.5 481.5,-66 471.5,-62.5 471.5,-69.5"/>
</a>
</g>
</g>
<!-- Node6 -->
<g id="Node000006" class="node">
<title>Node6</title>
<g id="a_Node000006"><a xlink:href="class_connection_line.html#aacfed243a999c948c87dab84ebc508aa" target="_top" xlink:title=" ">
<polygon fill="white" stroke="#666666" points="610.38,-32 480.38,-32 480.38,-12 610.38,-12 610.38,-32"/>
<text xml:space="preserve" text-anchor="middle" x="545.38" y="-18.5" font-family="Helvetica,sans-Serif" font-size="10.00">ConnectionLine::lineWidth</text>
</a>
</g>
</g>
<!-- Node3&#45;&gt;Node6 -->
<g id="edge5_Node000003_Node000006" class="edge">
<title>Node3&#45;&gt;Node6</title>
<g id="a_edge5_Node000003_Node000006"><a xlink:title=" ">
<path fill="none" stroke="#63b8ff" d="M409.9,-55.58C427.51,-51.06 448.39,-45.73 467.25,-41 474.8,-39.11 482.76,-37.12 490.59,-35.18"/>
<polygon fill="#63b8ff" stroke="#63b8ff" points="491.19,-38.64 500.05,-32.85 489.51,-31.85 491.19,-38.64"/>
</a>
</g>
</g>
<!-- Node8 -->
<g id="Node000008" class="node">
<title>Node8</title>
<g id="a_Node000008"><a xlink:href="class_basic_element.html#a56f5f9a22723d2a99d87c7508b0bec7f" target="_top" xlink:title=" ">
<polygon fill="white" stroke="#666666" points="427.88,-26 309.12,-26 309.12,-6 427.88,-6 427.88,-26"/>
<text xml:space="preserve" text-anchor="middle" x="368.5" y="-12.5" font-family="Helvetica,sans-Serif" font-size="10.00">BasicElement::serialize</text>
</a>
</g>
</g>
<!-- Node7&#45;&gt;Node8 -->
<g id="edge7_Node000007_Node000008" class="edge">
<title>Node7&#45;&gt;Node8</title>
<g id="a_edge7_Node000007_Node000008"><a xlink:title=" ">
<path fill="none" stroke="#63b8ff" d="M263.63,-16C274.57,-16 286.2,-16 297.58,-16"/>
<polygon fill="#63b8ff" stroke="#63b8ff" points="297.32,-19.5 307.32,-16 297.32,-12.5 297.32,-19.5"/>
</a>
</g>
</g>
</g>
</svg>
