<?xml version="1.0" encoding="UTF-8" standalone="no"?>
<!DOCTYPE svg PUBLIC "-//W3C//DTD SVG 1.1//EN"
 "http://www.w3.org/Graphics/SVG/1.1/DTD/svg11.dtd">
<!-- Generated by graphviz version 14.1.1 (20251213.1925)
 -->
<!-- Title: ConnectionLine::lineWidthChanged Pages: 1 -->
<!--zoomable 494 -->

<svg id="main" version="1.1" xmlns="http://www.w3.org/2000/svg" xmlns:xlink="http://www.w3.org/1999/xlink" xml:space="preserve" onload="init(evt)">

<style type="text/css"><![CDATA[
.node, .edge {opacity: 0.7;}
.node.selected, .edge.selected {opacity: 1;}
.edge:hover path { stroke: red; }
.edge:hover polygon { stroke: red; fill: red; }
]]></style>

<defs>
  <circle id="rim" cx="0" cy="0" r="7"/>
  <circle id="rim2" cx="0" cy="0" r="3.5"/>
  <g id="zoomPlus">
    <use xlink:href="#rim" fill="#404040"><set attributeName="fill" to="#808080" begin="zoomplus.mouseover" end="zoomplus.mouseout"/></use>
    <path d="M-4,0h8M0,-4v8" fill="none" stroke="white" stroke-width="1.5" pointer-events="none"/>
  </g>
  <g id="zoomMin">
    <use xlink:href="#rim" fill="#404040"><set attributeName="fill" to="#808080" begin="zoomminus.mouseover" end="zoomminus.mouseout"/></use>
    <path d="M-4,0h8" fill="none" stroke="white" stroke-width="1.5" pointer-events="none"/>
  </g>
  <g id="arrowUp" transform="translate(30 24)">
    <use xlink:href="#rim"/>
    <path pointer-events="none" fill="none" stroke="white" stroke-width="1.5" d="M0,-3.0v7 M-2.5,-0.5L0,-3.0L2.5,-0.5"/>
  </g>
  <g id="arrowRight" transform="rotate(90) translate(36 -43)">
    <use xlink:href="#rim"/>
    <path pointer-events="none" fill="none" stroke="white" stroke-width="1.5" d="M0,-3.0v7 M-2.5,-0.5L0,-3.0L2.5,-0.5"/>
  </g>
  <g id="arrowDown" transform="rotate(180) translate(-30 -48)">
    <use xlink:href="#rim"/>
    <path pointer-events="none" fill="none" stroke="white" stroke-width="1.5" d="M0,-3.0v7 M-2.5,-0.5L0,-3.0L2.5,-0.5"/>
  </g>
  <g id="arrowLeft" transform="rotate(270) translate(-36 17)">
    <use xlink:href="#rim"/>
    <path pointer-events="none" fill="none" stroke="white" stroke-width="1.5" d="M0,-3.0v7 M-2.5,-0.5L0,-3.0L2.5,-0.5"/>
  </g>
  <g id="resetDef">
    <use xlink:href="#rim2" fill="#404040"><set attributeName="fill" to="#808080" begin="reset.mouseover" end="reset.mouseout"/></use>
  </g>
</defs>
<script type="application/ecmascript">
var viewWidth = 2134;
var viewHeight = 494;
var sectionId = 'dynsection-24';
</script>
<script type="application/ecmascript" xlink:href="svg.min.js"/>
<svg id="graph" class="graph">
<g id="viewport">
<title>ConnectionLine::lineWidthChanged</title>
<!-- Node1 -->
<g id="Node000001" class="node">
<title>Node1</title>
<g id="a_Node000001"><a xlink:title=" ">
<polygon fill="#999999" stroke="#666666" points="2125.5,-403.1 1995.5,-403.1 1995.5,-371.1 2125.5,-371.1 2125.5,-403.1"/>
<text xml:space="preserve" text-anchor="start" x="2003.5" y="-389.6" font-family="Helvetica,sans-Serif" font-size="10.00">ConnectionLine::lineWidth</text>
<text xml:space="preserve" text-anchor="middle" x="2060.5" y="-377.6" font-family="Helvetica,sans-Serif" font-size="10.00">Changed</text>
</a>
</g>
</g>
<!-- Node2 -->
<g id="Node000002" class="node">
<title>Node2</title>
<g id="a_Node000002"><a xlink:href="class_connection_graphics_item.html#ae2812529f5397be162547beaef4b9c51" target="_top" xlink:title=" ">
<polygon fill="white" stroke="#666666" points="1948.25,-453.1 1824.25,-453.1 1824.25,-421.1 1948.25,-421.1 1948.25,-453.1"/>
<text xml:space="preserve" text-anchor="start" x="1832.25" y="-439.6" font-family="Helvetica,sans-Serif" font-size="10.00">ConnectionGraphicsItem</text>
<text xml:space="preserve" text-anchor="middle" x="1886.25" y="-427.6" font-family="Helvetica,sans-Serif" font-size="10.00">::connectToConnection</text>
</a>
</g>
</g>
<!-- Node1&#45;&gt;Node2 -->
<g id="edge1_Node000001_Node000002" class="edge">
<title>Node1&#45;&gt;Node2</title>
<g id="a_edge1_Node000001_Node000002"><a xlink:title=" ">
<path fill="none" stroke="#63b8ff" d="M1992.25,-406.62C1976.32,-411.25 1959.48,-416.13 1944.07,-420.61"/>
<polygon fill="#63b8ff" stroke="#63b8ff" points="1993.02,-410.04 2001.65,-403.89 1991.07,-403.32 1993.02,-410.04"/>
</a>
</g>
</g>
<!-- Node5 -->
<g id="Node000005" class="node">
<title>Node5</title>
<g id="a_Node000005"><a xlink:href="class_connection_graphics_item.html#a72e7dac6ba526930e9c71d2aac9b9fd2" target="_top" xlink:title=" ">
<polygon fill="white" stroke="#666666" points="1956.88,-403.1 1815.62,-403.1 1815.62,-371.1 1956.88,-371.1 1956.88,-403.1"/>
<text xml:space="preserve" text-anchor="start" x="1823.62" y="-389.6" font-family="Helvetica,sans-Serif" font-size="10.00">ConnectionGraphicsItem</text>
<text xml:space="preserve" text-anchor="middle" x="1886.25" y="-377.6" font-family="Helvetica,sans-Serif" font-size="10.00">::disconnectFromConnection</text>
</a>
</g>
</g>
<!-- Node1&#45;&gt;Node5 -->
<g id="edge4_Node000001_Node000005" class="edge">
<title>Node1&#45;&gt;Node5</title>
<g id="a_edge4_Node000001_Node000005"><a xlink:title=" ">
<path fill="none" stroke="#63b8ff" d="M1984.14,-387.1C1975.2,-387.1 1966.09,-387.1 1957.23,-387.1"/>
<polygon fill="#63b8ff" stroke="#63b8ff" points="1983.85,-390.6 1993.85,-387.1 1983.85,-383.6 1983.85,-390.6"/>
</a>
</g>
</g>
<!-- Node7 -->
<g id="Node000007" class="node">
<title>Node7</title>
<g id="a_Node000007"><a xlink:href="class_connection_line.html#a7983d6ddbc5414ad75bfc9e16b78ea90" target="_top" xlink:title=" ">
<polygon fill="white" stroke="#666666" points="1959.5,-353.1 1813,-353.1 1813,-333.1 1959.5,-333.1 1959.5,-353.1"/>
<text xml:space="preserve" text-anchor="middle" x="1886.25" y="-339.6" font-family="Helvetica,sans-Serif" font-size="10.00">ConnectionLine::setLineWidth</text>
</a>
</g>
</g>
<!-- Node1&#45;&gt;Node7 -->
<g id="edge6_Node000001_Node000007" class="edge">
<title>Node1&#45;&gt;Node7</title>
<g id="a_edge6_Node000001_Node000007"><a xlink:title=" ">
<path fill="none" stroke="#63b8ff" d="M1984.42,-367.92C1965.11,-362.99 1945.05,-357.86 1928.2,-353.56"/>
<polygon fill="#63b8ff" stroke="#63b8ff" points="1983.34,-371.26 1993.89,-370.34 1985.07,-364.48 1983.34,-371.26"/>
</a>
</g>
</g>
<!-- Node3 -->
<g id="Node000003" class="node">
<title>Node3</title>
<g id="a_Node000003"><a xlink:href="class_connection_graphics_item.html#ab32d398765f9a4cd314e866585ac273d" target="_top" xlink:title=" ">
<polygon fill="white" stroke="#666666" points="1772.88,-453.1 1642.88,-453.1 1642.88,-421.1 1772.88,-421.1 1772.88,-453.1"/>
<text xml:space="preserve" text-anchor="start" x="1650.88" y="-439.6" font-family="Helvetica,sans-Serif" font-size="10.00">ConnectionGraphicsItem</text>
<text xml:space="preserve" text-anchor="middle" x="1707.88" y="-427.6" font-family="Helvetica,sans-Serif" font-size="10.00">::ConnectionGraphicsItem</text>
</a>
</g>
</g>
<!-- Node2&#45;&gt;Node3 -->
<g id="edge2_Node000002_Node000003" class="edge">
<title>Node2&#45;&gt;Node3</title>
<g id="a_edge2_Node000002_Node000003"><a xlink:title=" ">
<path fill="none" stroke="#63b8ff" d="M1812.72,-437.1C1799.64,-437.1 1786.09,-437.1 1773.26,-437.1"/>
<polygon fill="#63b8ff" stroke="#63b8ff" points="1812.54,-440.6 1822.54,-437.1 1812.54,-433.6 1812.54,-440.6"/>
</a>
</g>
</g>
<!-- Node4 -->
<g id="Node000004" class="node">
<title>Node4</title>
<g id="a_Node000004"><a xlink:href="class_relationship_connection_line_graphics_item.html#a55839fb084501f42fc8a6e7f08cff4ba" target="_top" xlink:title=" ">
<polygon fill="white" stroke="#666666" points="1602.75,-459.1 1418.75,-459.1 1418.75,-415.1 1602.75,-415.1 1602.75,-459.1"/>
<text xml:space="preserve" text-anchor="start" x="1426.75" y="-445.6" font-family="Helvetica,sans-Serif" font-size="10.00">RelationshipConnectionLine</text>
<text xml:space="preserve" text-anchor="start" x="1426.75" y="-433.6" font-family="Helvetica,sans-Serif" font-size="10.00">GraphicsItem::RelationshipConnection</text>
<text xml:space="preserve" text-anchor="middle" x="1510.75" y="-421.6" font-family="Helvetica,sans-Serif" font-size="10.00">LineGraphicsItem</text>
</a>
</g>
</g>
<!-- Node3&#45;&gt;Node4 -->
<g id="edge3_Node000003_Node000004" class="edge">
<title>Node3&#45;&gt;Node4</title>
<g id="a_edge3_Node000003_Node000004"><a xlink:title=" ">
<path fill="none" stroke="#63b8ff" d="M1630.98,-437.1C1621.79,-437.1 1612.33,-437.1 1602.95,-437.1"/>
<polygon fill="#63b8ff" stroke="#63b8ff" points="1630.93,-440.6 1640.93,-437.1 1630.93,-433.6 1630.93,-440.6"/>
</a>
</g>
</g>
<!-- Node6 -->
<g id="Node000006" class="node">
<title>Node6</title>
<g id="a_Node000006"><a xlink:href="class_connection_graphics_item.html#a483aaf1b7f1dc4f19a279e56c1adaf74" target="_top" xlink:title=" ">
<polygon fill="white" stroke="#666666" points="1775.88,-403.1 1639.88,-403.1 1639.88,-371.1 1775.88,-371.1 1775.88,-403.1"/>
<text xml:space="preserve" text-anchor="start" x="1647.88" y="-389.6" font-family="Helvetica,sans-Serif" font-size="10.00">ConnectionGraphicsItem</text>
<text xml:space="preserve" text-anchor="middle" x="1707.88" y="-377.6" font-family="Helvetica,sans-Serif" font-size="10.00">::~ConnectionGraphicsItem</text>
</a>
</g>
</g>
<!-- Node5&#45;&gt;Node6 -->
<g id="edge5_Node000005_Node000006" class="edge">
<title>Node5&#45;&gt;Node6</title>
<g id="a_edge5_Node000005_Node000006"><a xlink:title=" ">
<path fill="none" stroke="#63b8ff" d="M1804,-387.1C1794.69,-387.1 1785.27,-387.1 1776.16,-387.1"/>
<polygon fill="#63b8ff" stroke="#63b8ff" points="1803.78,-390.6 1813.78,-387.1 1803.78,-383.6 1803.78,-390.6"/>
</a>
</g>
</g>
<!-- Node8 -->
<g id="Node000008" class="node">
<title>Node8</title>
<g id="a_Node000008"><a xlink:href="class_connection_line.html#ae3606c18d99a61f056d37a755a9d14c0" target="_top" xlink:title=" ">
<polygon fill="white" stroke="#666666" points="1775.88,-353.1 1639.88,-353.1 1639.88,-333.1 1775.88,-333.1 1775.88,-353.1"/>
<text xml:space="preserve" text-anchor="middle" x="1707.88" y="-339.6" font-family="Helvetica,sans-Serif" font-size="10.00">ConnectionLine::deserialize</text>
</a>
</g>
</g>
<!-- Node7&#45;&gt;Node8 -->
<g id="edge7_Node000007_Node000008" class="edge">
<title>Node7&#45;&gt;Node8</title>
<g id="a_edge7_Node000007_Node000008"><a xlink:title=" ">
<path fill="none" stroke="#63b8ff" d="M1801.35,-343.1C1792.94,-343.1 1784.48,-343.1 1776.28,-343.1"/>
<polygon fill="#63b8ff" stroke="#63b8ff" points="1801.23,-346.6 1811.23,-343.1 1801.23,-339.6 1801.23,-346.6"/>
</a>
</g>
</g>
<!-- Node10 -->
<g id="Node000010" class="node">
<title>Node10</title>
<g id="a_Node000010"><a xlink:href="class_properties_panel.html#a3cdc065abcd2f9e59558903073c0f23f" target="_top" xlink:title=" ">
<polygon fill="white" stroke="#666666" points="1777,-284.1 1638.75,-284.1 1638.75,-252.1 1777,-252.1 1777,-284.1"/>
<text xml:space="preserve" text-anchor="start" x="1646.75" y="-270.6" font-family="Helvetica,sans-Serif" font-size="10.00">PropertiesPanel::onProperty</text>
<text xml:space="preserve" text-anchor="middle" x="1707.88" y="-258.6" font-family="Helvetica,sans-Serif" font-size="10.00">ValueChanged</text>
</a>
</g>
</g>
<!-- Node7&#45;&gt;Node10 -->
<g id="edge9_Node000007_Node000010" class="edge">
<title>Node7&#45;&gt;Node10</title>
<g id="a_edge9_Node000007_Node000010"><a xlink:title=" ">
<path fill="none" stroke="#63b8ff" d="M1850.42,-328.29C1820.74,-315.67 1778.13,-297.55 1747.43,-284.5"/>
<polygon fill="#63b8ff" stroke="#63b8ff" points="1848.76,-331.39 1859.33,-332.08 1851.5,-324.95 1848.76,-331.39"/>
</a>
</g>
</g>
<!-- Node9 -->
<g id="Node000009" class="node">
<title>Node9</title>
<g id="a_Node000009"><a xlink:href="class_relationship_connection_line.html#ae096b0c8c07ce5d7d5bd8acfad489f1a" target="_top" xlink:title=" ">
<polygon fill="white" stroke="#666666" points="1579.5,-378.1 1442,-378.1 1442,-346.1 1579.5,-346.1 1579.5,-378.1"/>
<text xml:space="preserve" text-anchor="start" x="1450" y="-364.6" font-family="Helvetica,sans-Serif" font-size="10.00">RelationshipConnectionLine</text>
<text xml:space="preserve" text-anchor="middle" x="1510.75" y="-352.6" font-family="Helvetica,sans-Serif" font-size="10.00">::deserialize</text>
</a>
</g>
</g>
<!-- Node8&#45;&gt;Node9 -->
<g id="edge8_Node000008_Node000009" class="edge">
<title>Node8&#45;&gt;Node9</title>
<g id="a_edge8_Node000008_Node000009"><a xlink:title=" ">
<path fill="none" stroke="#63b8ff" d="M1628.45,-350.74C1612.35,-352.3 1595.53,-353.94 1579.84,-355.47"/>
<polygon fill="#63b8ff" stroke="#63b8ff" points="1628.33,-354.26 1637.94,-349.81 1627.65,-347.3 1628.33,-354.26"/>
</a>
</g>
</g>
<!-- Node11 -->
<g id="Node000011" class="node">
<title>Node11</title>
<g id="a_Node000011"><a xlink:href="class_properties_panel.html#a9866823e02faefceaae94fc0b0537707" target="_top" xlink:title=" ">
<polygon fill="white" stroke="#666666" points="1578.38,-328.1 1443.12,-328.1 1443.12,-296.1 1578.38,-296.1 1578.38,-328.1"/>
<text xml:space="preserve" text-anchor="start" x="1451.12" y="-314.6" font-family="Helvetica,sans-Serif" font-size="10.00">PropertiesPanel::Properties</text>
<text xml:space="preserve" text-anchor="middle" x="1510.75" y="-302.6" font-family="Helvetica,sans-Serif" font-size="10.00">Panel</text>
</a>
</g>
</g>
<!-- Node10&#45;&gt;Node11 -->
<g id="edge10_Node000010_Node000011" class="edge">
<title>Node10&#45;&gt;Node11</title>
<g id="a_edge10_Node000010_Node000011"><a xlink:title=" ">
<path fill="none" stroke="#63b8ff" d="M1627.33,-286.04C1611.22,-289.67 1594.42,-293.46 1578.79,-296.98"/>
<polygon fill="#63b8ff" stroke="#63b8ff" points="1627.89,-289.5 1636.88,-283.88 1626.35,-282.67 1627.89,-289.5"/>
</a>
</g>
</g>
<!-- Node12 -->
<g id="Node000012" class="node">
<title>Node12</title>
<g id="a_Node000012"><a xlink:href="class_properties_panel.html#a139ae0158b486c6004e15e0ddf36f319" target="_top" xlink:title=" ">
<polygon fill="white" stroke="#666666" points="1571.25,-278.1 1450.25,-278.1 1450.25,-258.1 1571.25,-258.1 1571.25,-278.1"/>
<text xml:space="preserve" text-anchor="middle" x="1510.75" y="-264.6" font-family="Helvetica,sans-Serif" font-size="10.00">PropertiesPanel::refresh</text>
</a>
</g>
</g>
<!-- Node10&#45;&gt;Node12 -->
<g id="edge11_Node000010_Node000012" class="edge">
<title>Node10&#45;&gt;Node12</title>
<g id="a_edge11_Node000010_Node000012"><a xlink:title=" ">
<path fill="none" stroke="#63b8ff" d="M1626.98,-261.45C1608.49,-261.24 1589.13,-261.36 1571.66,-261.82"/>
<polygon fill="#63b8ff" stroke="#63b8ff" points="1626.79,-264.95 1636.84,-261.6 1626.9,-257.95 1626.79,-264.95"/>
</a>
</g>
</g>
<!-- Node12&#45;&gt;Node10 -->
<g id="edge40_Node000012_Node000010" class="edge">
<title>Node12&#45;&gt;Node10</title>
<g id="a_edge40_Node000012_Node000010"><a xlink:title=" ">
<path fill="none" stroke="#63b8ff" d="M1583.02,-274.63C1601.08,-274.94 1620.43,-274.92 1638.36,-274.58"/>
<polygon fill="#63b8ff" stroke="#63b8ff" points="1583.25,-271.13 1573.18,-274.41 1583.1,-278.13 1583.25,-271.13"/>
</a>
</g>
</g>
<!-- Node13 -->
<g id="Node000013" class="node">
<title>Node13</title>
<g id="a_Node000013"><a xlink:href="class_properties_panel.html#a55ae5c02e7d75c7bdc26281a148e8c5a" target="_top" xlink:title=" ">
<polygon fill="white" stroke="#666666" points="1382.75,-385.1 1227.25,-385.1 1227.25,-353.1 1382.75,-353.1 1382.75,-385.1"/>
<text xml:space="preserve" text-anchor="start" x="1235.25" y="-371.6" font-family="Helvetica,sans-Serif" font-size="10.00">PropertiesPanel::onAddAttribute</text>
<text xml:space="preserve" text-anchor="middle" x="1305" y="-359.6" font-family="Helvetica,sans-Serif" font-size="10.00">OnTreeClicked</text>
</a>
</g>
</g>
<!-- Node12&#45;&gt;Node13 -->
<g id="edge12_Node000012_Node000013" class="edge">
<title>Node12&#45;&gt;Node13</title>
<g id="a_edge12_Node000012_Node000013"><a xlink:title=" ">
<path fill="none" stroke="#63b8ff" d="M1438.92,-277.23C1431.79,-279.78 1424.91,-283.01 1418.75,-287.1 1395.32,-302.63 1404.8,-321.67 1382.75,-339.1 1376.02,-344.42 1368.22,-348.9 1360.24,-352.63"/>
<polygon fill="#63b8ff" stroke="#63b8ff" points="1439.9,-280.59 1448.43,-274.3 1437.84,-273.9 1439.9,-280.59"/>
</a>
</g>
</g>
<!-- Node20 -->
<g id="Node000020" class="node">
<title>Node20</title>
<g id="a_Node000020"><a xlink:href="class_properties_panel.html#a2800a2c7575a5fad6d923d9b64d982f8" target="_top" xlink:title=" ">
<polygon fill="white" stroke="#666666" points="980.25,-196.1 850.25,-196.1 850.25,-164.1 980.25,-164.1 980.25,-196.1"/>
<text xml:space="preserve" text-anchor="start" x="858.25" y="-182.6" font-family="Helvetica,sans-Serif" font-size="10.00">PropertiesPanel::onCheck</text>
<text xml:space="preserve" text-anchor="middle" x="915.25" y="-170.6" font-family="Helvetica,sans-Serif" font-size="10.00">BoxChanged</text>
</a>
</g>
</g>
<!-- Node12&#45;&gt;Node20 -->
<g id="edge26_Node000012_Node000020" class="edge">
<title>Node12&#45;&gt;Node20</title>
<g id="a_edge26_Node000012_Node000020"><a xlink:title=" ">
<path fill="none" stroke="#63b8ff" d="M1438.57,-262.35C1342.46,-253.89 1166.13,-235.89 1017.75,-207.1 1002.98,-204.23 987.19,-200.41 972.57,-196.55"/>
<polygon fill="#63b8ff" stroke="#63b8ff" points="1438.11,-265.82 1448.38,-263.2 1438.72,-258.85 1438.11,-265.82"/>
</a>
</g>
</g>
<!-- Node22 -->
<g id="Node000022" class="node">
<title>Node22</title>
<g id="a_Node000022"><a xlink:href="class_properties_panel.html#aec82450a3daeb2614c2321e37897f1dd" target="_top" xlink:title=" ">
<polygon fill="white" stroke="#666666" points="981.75,-108.1 848.75,-108.1 848.75,-76.1 981.75,-76.1 981.75,-108.1"/>
<text xml:space="preserve" text-anchor="start" x="856.75" y="-94.6" font-family="Helvetica,sans-Serif" font-size="10.00">PropertiesPanel::onCombo</text>
<text xml:space="preserve" text-anchor="middle" x="915.25" y="-82.6" font-family="Helvetica,sans-Serif" font-size="10.00">BoxChanged</text>
</a>
</g>
</g>
<!-- Node12&#45;&gt;Node22 -->
<g id="edge30_Node000012_Node000022" class="edge">
<title>Node12&#45;&gt;Node22</title>
<g id="a_edge30_Node000012_Node000022"><a xlink:title=" ">
<path fill="none" stroke="#63b8ff" d="M1494.22,-248.97C1452.02,-198.75 1329.15,-63.91 1191.25,-18.1 1118.07,6.21 1091.07,5.79 1017.75,-18.1 982.92,-29.45 950.09,-57.77 931.64,-75.9"/>
<polygon fill="#63b8ff" stroke="#63b8ff" points="1491.52,-251.2 1500.59,-256.66 1496.91,-246.73 1491.52,-251.2"/>
</a>
</g>
</g>
<!-- Node26 -->
<g id="Node000026" class="node">
<title>Node26</title>
<g id="a_Node000026"><a xlink:href="class_properties_panel.html#aec8130201106284c02f21903b516554d" target="_top" xlink:title=" ">
<polygon fill="white" stroke="#666666" points="1172.88,-347.1 1036.12,-347.1 1036.12,-315.1 1172.88,-315.1 1172.88,-347.1"/>
<text xml:space="preserve" text-anchor="start" x="1044.12" y="-333.6" font-family="Helvetica,sans-Serif" font-size="10.00">PropertiesPanel::onLineEdit</text>
<text xml:space="preserve" text-anchor="middle" x="1104.5" y="-321.6" font-family="Helvetica,sans-Serif" font-size="10.00">Changed</text>
</a>
</g>
</g>
<!-- Node12&#45;&gt;Node26 -->
<g id="edge37_Node000012_Node000026" class="edge">
<title>Node12&#45;&gt;Node26</title>
<g id="a_edge37_Node000012_Node000026"><a xlink:title=" ">
<path fill="none" stroke="#63b8ff" d="M1441.38,-281.1C1433.7,-282.93 1426.03,-284.94 1418.75,-287.1 1402.29,-291.98 1399.43,-297.03 1382.75,-301.1 1312.55,-318.23 1229.97,-325.58 1173.3,-328.74"/>
<polygon fill="#63b8ff" stroke="#63b8ff" points="1442.15,-284.51 1451.12,-278.87 1440.59,-277.69 1442.15,-284.51"/>
</a>
</g>
</g>
<!-- Node28 -->
<g id="Node000028" class="node">
<title>Node28</title>
<g id="a_Node000028"><a xlink:href="class_properties_panel.html#a8a2ec0bcba44f3bbd0245d3a53ff49f7" target="_top" xlink:title=" ">
<polygon fill="white" stroke="#666666" points="1374.12,-435.1 1235.88,-435.1 1235.88,-403.1 1374.12,-403.1 1374.12,-435.1"/>
<text xml:space="preserve" text-anchor="start" x="1243.88" y="-421.6" font-family="Helvetica,sans-Serif" font-size="10.00">PropertiesPanel::onRemove</text>
<text xml:space="preserve" text-anchor="middle" x="1305" y="-409.6" font-family="Helvetica,sans-Serif" font-size="10.00">AttributeOnTreeClicked</text>
</a>
</g>
</g>
<!-- Node12&#45;&gt;Node28 -->
<g id="edge41_Node000012_Node000028" class="edge">
<title>Node12&#45;&gt;Node28</title>
<g id="a_edge41_Node000012_Node000028"><a xlink:title=" ">
<path fill="none" stroke="#63b8ff" d="M1439.05,-274.99C1431.63,-277.92 1424.66,-281.86 1418.75,-287.1 1381.23,-320.41 1418.4,-358.79 1382.75,-394.1 1379.46,-397.35 1375.75,-400.19 1371.77,-402.65"/>
<polygon fill="#63b8ff" stroke="#63b8ff" points="1439.91,-278.39 1448.32,-271.95 1437.73,-271.74 1439.91,-278.39"/>
</a>
</g>
</g>
<!-- Node29 -->
<g id="Node000029" class="node">
<title>Node29</title>
<g id="a_Node000029"><a xlink:href="class_properties_panel.html#a79618c5c820a40931c085d54be70bd34" target="_top" xlink:title=" ">
<polygon fill="white" stroke="#666666" points="1367.75,-202.1 1242.25,-202.1 1242.25,-170.1 1367.75,-170.1 1367.75,-202.1"/>
<text xml:space="preserve" text-anchor="start" x="1250.25" y="-188.6" font-family="Helvetica,sans-Serif" font-size="10.00">PropertiesPanel::updates</text>
<text xml:space="preserve" text-anchor="middle" x="1305" y="-176.6" font-family="Helvetica,sans-Serif" font-size="10.00">AfterChangingProperty</text>
</a>
</g>
</g>
<!-- Node12&#45;&gt;Node29 -->
<g id="edge43_Node000012_Node000029" class="edge">
<title>Node12&#45;&gt;Node29</title>
<g id="a_edge43_Node000012_Node000029"><a xlink:title=" ">
<path fill="none" stroke="#63b8ff" d="M1472.69,-253.54C1456.17,-247.02 1436.47,-239.22 1418.75,-232.1 1394.62,-222.41 1367.65,-211.41 1346.14,-202.6"/>
<polygon fill="#63b8ff" stroke="#63b8ff" points="1471.05,-256.66 1481.63,-257.07 1473.61,-250.14 1471.05,-256.66"/>
</a>
</g>
</g>
<!-- Node14 -->
<g id="Node000014" class="node">
<title>Node14</title>
<g id="a_Node000014"><a xlink:href="class_properties_panel.html#a90cca2a241daa84841ee3e90d7768c8f" target="_top" xlink:title=" ">
<polygon fill="white" stroke="#666666" points="811.25,-391.1 664.75,-391.1 664.75,-359.1 811.25,-359.1 811.25,-391.1"/>
<text xml:space="preserve" text-anchor="start" x="672.75" y="-377.6" font-family="Helvetica,sans-Serif" font-size="10.00">PropertiesPanel::createButton</text>
<text xml:space="preserve" text-anchor="middle" x="738" y="-365.6" font-family="Helvetica,sans-Serif" font-size="10.00">PropertyItem</text>
</a>
</g>
</g>
<!-- Node13&#45;&gt;Node14 -->
<g id="edge13_Node000013_Node000014" class="edge">
<title>Node13&#45;&gt;Node14</title>
<g id="a_edge13_Node000013_Node000014"><a xlink:title=" ">
<path fill="none" stroke="#63b8ff" d="M1215.73,-370.04C1104.34,-371.22 914.86,-373.23 811.51,-374.33"/>
<polygon fill="#63b8ff" stroke="#63b8ff" points="1215.44,-373.54 1225.41,-369.93 1215.37,-366.54 1215.44,-373.54"/>
</a>
</g>
</g>
<!-- Node15 -->
<g id="Node000015" class="node">
<title>Node15</title>
<g id="a_Node000015"><a xlink:href="class_properties_panel.html#a050a4a9040c7aeefde9c1377d2e1909e" target="_top" xlink:title=" ">
<polygon fill="white" stroke="#666666" points="459.38,-234.1 331.62,-234.1 331.62,-202.1 459.38,-202.1 459.38,-234.1"/>
<text xml:space="preserve" text-anchor="start" x="339.62" y="-220.6" font-family="Helvetica,sans-Serif" font-size="10.00">PropertiesPanel::populate</text>
<text xml:space="preserve" text-anchor="middle" x="395.5" y="-208.6" font-family="Helvetica,sans-Serif" font-size="10.00">AttributeList</text>
</a>
</g>
</g>
<!-- Node14&#45;&gt;Node15 -->
<g id="edge14_Node000014_Node000015" class="edge">
<title>Node14&#45;&gt;Node15</title>
<g id="a_edge14_Node000014_Node000015"><a xlink:title=" ">
<path fill="none" stroke="#63b8ff" d="M684.71,-354.55C636.16,-335.07 562.14,-304.36 499.5,-274.1 473.84,-261.7 445.44,-246.12 424.97,-234.54"/>
<polygon fill="#63b8ff" stroke="#63b8ff" points="683.28,-357.75 693.87,-358.21 685.88,-351.25 683.28,-357.75"/>
</a>
</g>
</g>
<!-- Node16 -->
<g id="Node000016" class="node">
<title>Node16</title>
<g id="a_Node000016"><a xlink:href="class_properties_panel.html#acc5a2b4e63ea74eaa34853f1cec46b81" target="_top" xlink:title=" ">
<polygon fill="white" stroke="#666666" points="627.25,-215.1 499.5,-215.1 499.5,-183.1 627.25,-183.1 627.25,-215.1"/>
<text xml:space="preserve" text-anchor="start" x="507.5" y="-201.6" font-family="Helvetica,sans-Serif" font-size="10.00">PropertiesPanel::populate</text>
<text xml:space="preserve" text-anchor="middle" x="563.38" y="-189.6" font-family="Helvetica,sans-Serif" font-size="10.00">AttributeProperties</text>
</a>
</g>
</g>
<!-- Node14&#45;&gt;Node16 -->
<g id="edge23_Node000014_Node000016" class="edge">
<title>Node14&#45;&gt;Node16</title>
<g id="a_edge23_Node000014_Node000016"><a xlink:title=" ">
<path fill="none" stroke="#63b8ff" d="M720.72,-349.21C696.3,-311.04 650.57,-242.21 627.25,-224.1 623.08,-220.86 618.43,-217.98 613.6,-215.45"/>
<polygon fill="#63b8ff" stroke="#63b8ff" points="717.59,-350.82 725.91,-357.38 723.49,-347.06 717.59,-350.82"/>
</a>
</g>
</g>
<!-- Node18 -->
<g id="Node000018" class="node">
<title>Node18</title>
<g id="a_Node000018"><a xlink:href="class_properties_panel.html#a6a4344308af5b2c993bc25981529239c" target="_top" xlink:title=" ">
<polygon fill="white" stroke="#666666" points="291.5,-284.1 163.75,-284.1 163.75,-252.1 291.5,-252.1 291.5,-284.1"/>
<text xml:space="preserve" text-anchor="start" x="171.75" y="-270.6" font-family="Helvetica,sans-Serif" font-size="10.00">PropertiesPanel::populate</text>
<text xml:space="preserve" text-anchor="middle" x="227.62" y="-258.6" font-family="Helvetica,sans-Serif" font-size="10.00">EntityProperties</text>
</a>
</g>
</g>
<!-- Node14&#45;&gt;Node18 -->
<g id="edge24_Node000014_Node000018" class="edge">
<title>Node14&#45;&gt;Node18</title>
<g id="a_edge24_Node000014_Node000018"><a xlink:title=" ">
<path fill="none" stroke="#63b8ff" d="M667.13,-394.16C582.49,-413.37 437.59,-433.63 327.5,-383.1 282.75,-362.56 250.62,-310.67 236.55,-284.18"/>
<polygon fill="#63b8ff" stroke="#63b8ff" points="667.74,-397.61 676.68,-391.93 666.15,-390.79 667.74,-397.61"/>
</a>
</g>
</g>
<!-- Node19 -->
<g id="Node000019" class="node">
<title>Node19</title>
<g id="a_Node000019"><a xlink:href="class_properties_panel.html#aeb116e2e51099f618b5d284e492bc0e2" target="_top" xlink:title=" ">
<polygon fill="white" stroke="#666666" points="291.5,-234.1 163.75,-234.1 163.75,-202.1 291.5,-202.1 291.5,-234.1"/>
<text xml:space="preserve" text-anchor="start" x="171.75" y="-220.6" font-family="Helvetica,sans-Serif" font-size="10.00">PropertiesPanel::populate</text>
<text xml:space="preserve" text-anchor="middle" x="227.62" y="-208.6" font-family="Helvetica,sans-Serif" font-size="10.00">RelationshipProperties</text>
</a>
</g>
</g>
<!-- Node14&#45;&gt;Node19 -->
<g id="edge25_Node000014_Node000019" class="edge">
<title>Node14&#45;&gt;Node19</title>
<g id="a_edge25_Node000014_Node000019"><a xlink:title=" ">
<path fill="none" stroke="#63b8ff" d="M653.14,-375.96C548.49,-375.38 377.21,-368.48 327.5,-331.1 293.73,-305.7 321.53,-272.83 291.5,-243.1 288.24,-239.88 284.52,-237.06 280.55,-234.59"/>
<polygon fill="#63b8ff" stroke="#63b8ff" points="653.09,-379.46 663.1,-375.99 653.11,-372.46 653.09,-379.46"/>
</a>
</g>
</g>
<!-- Node15&#45;&gt;Node16 -->
<g id="edge15_Node000015_Node000016" class="edge">
<title>Node15&#45;&gt;Node16</title>
<g id="a_edge15_Node000015_Node000016"><a xlink:title=" ">
<path fill="none" stroke="#63b8ff" d="M471.12,-216.27C480.49,-215.27 490.01,-214.13 499.19,-212.91"/>
<polygon fill="#63b8ff" stroke="#63b8ff" points="470.88,-212.78 461.29,-217.28 471.59,-219.74 470.88,-212.78"/>
</a>
</g>
</g>
<!-- Node15&#45;&gt;Node18 -->
<g id="edge19_Node000015_Node000018" class="edge">
<title>Node15&#45;&gt;Node18</title>
<g id="a_edge19_Node000015_Node000018"><a xlink:title=" ">
<path fill="none" stroke="#63b8ff" d="M329.29,-237.76C314.08,-242.34 298.04,-247.18 283.34,-251.61"/>
<polygon fill="#63b8ff" stroke="#63b8ff" points="330.17,-241.15 338.74,-234.91 328.15,-234.44 330.17,-241.15"/>
</a>
</g>
</g>
<!-- Node15&#45;&gt;Node19 -->
<g id="edge21_Node000015_Node000019" class="edge">
<title>Node15&#45;&gt;Node19</title>
<g id="a_edge21_Node000015_Node000019"><a xlink:title=" ">
<path fill="none" stroke="#63b8ff" d="M319.98,-218.1C310.61,-218.1 301.09,-218.1 291.91,-218.1"/>
<polygon fill="#63b8ff" stroke="#63b8ff" points="319.8,-221.6 329.8,-218.1 319.8,-214.6 319.8,-221.6"/>
</a>
</g>
</g>
<!-- Node16&#45;&gt;Node15 -->
<g id="edge16_Node000016_Node000015" class="edge">
<title>Node16&#45;&gt;Node15</title>
<g id="a_edge16_Node000016_Node000015"><a xlink:title=" ">
<path fill="none" stroke="#63b8ff" d="M487.86,-200.92C478.48,-201.92 468.96,-203.06 459.78,-204.27"/>
<polygon fill="#63b8ff" stroke="#63b8ff" points="488.09,-204.41 497.69,-199.91 487.38,-197.45 488.09,-204.41"/>
</a>
</g>
</g>
<!-- Node17 -->
<g id="Node000017" class="node">
<title>Node17</title>
<g id="a_Node000017"><a xlink:href="class_properties_panel.html#a037586f897062f3915a123b9f2a82b91" target="_top" xlink:title=" ">
<polygon fill="white" stroke="#666666" points="127.75,-259.1 0,-259.1 0,-227.1 127.75,-227.1 127.75,-259.1"/>
<text xml:space="preserve" text-anchor="start" x="8" y="-245.6" font-family="Helvetica,sans-Serif" font-size="10.00">PropertiesPanel::populate</text>
<text xml:space="preserve" text-anchor="middle" x="63.88" y="-233.6" font-family="Helvetica,sans-Serif" font-size="10.00">ForElement</text>
</a>
</g>
</g>
<!-- Node16&#45;&gt;Node17 -->
<g id="edge17_Node000016_Node000017" class="edge">
<title>Node16&#45;&gt;Node17</title>
<g id="a_edge17_Node000016_Node000017"><a xlink:title=" ">
<path fill="none" stroke="#63b8ff" d="M488.12,-187.18C407.15,-176.67 274.35,-166.73 163.75,-193.1 136.62,-199.57 108.5,-214.75 89.22,-226.7"/>
<polygon fill="#63b8ff" stroke="#63b8ff" points="487.31,-190.61 497.69,-188.47 488.24,-183.67 487.31,-190.61"/>
</a>
</g>
</g>
<!-- Node17&#45;&gt;Node12 -->
<g id="edge18_Node000017_Node000012" class="edge">
<title>Node17&#45;&gt;Node12</title>
<g id="a_edge18_Node000017_Node000012"><a xlink:title=" ">
<path fill="none" stroke="#63b8ff" d="M83.97,-268.13C130.34,-325.8 255.35,-463.1 394.5,-463.1 1105.5,-463.1 1105.5,-463.1 1105.5,-463.1 1229.01,-463.1 1288.84,-524.32 1382.75,-444.1 1437.18,-397.6 1367.64,-337.22 1418.75,-287.1 1427.28,-278.74 1438.48,-273.62 1450.1,-270.58"/>
<polygon fill="#63b8ff" stroke="#63b8ff" points="86.86,-266.14 77.91,-260.46 81.36,-270.48 86.86,-266.14"/>
</a>
</g>
</g>
<!-- Node18&#45;&gt;Node17 -->
<g id="edge20_Node000018_Node000017" class="edge">
<title>Node18&#45;&gt;Node17</title>
<g id="a_edge20_Node000018_Node000017"><a xlink:title=" ">
<path fill="none" stroke="#63b8ff" d="M152.33,-256.62C144.28,-255.37 136.14,-254.11 128.24,-252.89"/>
<polygon fill="#63b8ff" stroke="#63b8ff" points="151.71,-260.06 162.13,-258.13 152.78,-253.15 151.71,-260.06"/>
</a>
</g>
</g>
<!-- Node19&#45;&gt;Node17 -->
<g id="edge22_Node000019_Node000017" class="edge">
<title>Node19&#45;&gt;Node17</title>
<g id="a_edge22_Node000019_Node000017"><a xlink:title=" ">
<path fill="none" stroke="#63b8ff" d="M152.33,-229.58C144.28,-230.83 136.14,-232.09 128.24,-233.31"/>
<polygon fill="#63b8ff" stroke="#63b8ff" points="152.78,-233.06 162.13,-228.07 151.71,-226.14 152.78,-233.06"/>
</a>
</g>
</g>
<!-- Node21 -->
<g id="Node000021" class="node">
<title>Node21</title>
<g id="a_Node000021"><a xlink:href="class_properties_panel.html#acfb41226221624e46767835caeea8abc" target="_top" xlink:title=" ">
<polygon fill="white" stroke="#666666" points="811.25,-196.1 664.75,-196.1 664.75,-164.1 811.25,-164.1 811.25,-196.1"/>
<text xml:space="preserve" text-anchor="start" x="672.75" y="-182.6" font-family="Helvetica,sans-Serif" font-size="10.00">PropertiesPanel::createCheck</text>
<text xml:space="preserve" text-anchor="middle" x="738" y="-170.6" font-family="Helvetica,sans-Serif" font-size="10.00">BoxPropertyItem</text>
</a>
</g>
</g>
<!-- Node20&#45;&gt;Node21 -->
<g id="edge27_Node000020_Node000021" class="edge">
<title>Node20&#45;&gt;Node21</title>
<g id="a_edge27_Node000020_Node000021"><a xlink:title=" ">
<path fill="none" stroke="#63b8ff" d="M838.7,-180.1C829.69,-180.1 820.51,-180.1 811.55,-180.1"/>
<polygon fill="#63b8ff" stroke="#63b8ff" points="838.47,-183.6 848.47,-180.1 838.47,-176.6 838.47,-183.6"/>
</a>
</g>
</g>
<!-- Node21&#45;&gt;Node16 -->
<g id="edge28_Node000021_Node000016" class="edge">
<title>Node21&#45;&gt;Node16</title>
<g id="a_edge28_Node000021_Node000016"><a xlink:title=" ">
<path fill="none" stroke="#63b8ff" d="M653.1,-189.33C644.55,-190.28 635.97,-191.22 627.69,-192.13"/>
<polygon fill="#63b8ff" stroke="#63b8ff" points="653.23,-192.84 662.79,-188.27 652.46,-185.88 653.23,-192.84"/>
</a>
</g>
</g>
<!-- Node21&#45;&gt;Node19 -->
<g id="edge29_Node000021_Node000019" class="edge">
<title>Node21&#45;&gt;Node19</title>
<g id="a_edge29_Node000021_Node000019"><a xlink:title=" ">
<path fill="none" stroke="#63b8ff" d="M653.01,-175.04C644.32,-174.65 635.61,-174.33 627.25,-174.1 493.81,-170.46 458.86,-169.35 327.5,-193.1 314.69,-195.42 301.09,-198.46 288.2,-201.63"/>
<polygon fill="#63b8ff" stroke="#63b8ff" points="652.75,-178.53 662.9,-175.5 653.07,-171.54 652.75,-178.53"/>
</a>
</g>
</g>
<!-- Node23 -->
<g id="Node000023" class="node">
<title>Node23</title>
<g id="a_Node000023"><a xlink:href="class_properties_panel.html#a8fd53ec3c9f711c3354483e8bb4d0b47" target="_top" xlink:title=" ">
<polygon fill="white" stroke="#666666" points="812.75,-133.1 663.25,-133.1 663.25,-101.1 812.75,-101.1 812.75,-133.1"/>
<text xml:space="preserve" text-anchor="start" x="671.25" y="-119.6" font-family="Helvetica,sans-Serif" font-size="10.00">PropertiesPanel::createCombo</text>
<text xml:space="preserve" text-anchor="middle" x="738" y="-107.6" font-family="Helvetica,sans-Serif" font-size="10.00">BoxPropertyItem</text>
</a>
</g>
</g>
<!-- Node22&#45;&gt;Node23 -->
<g id="edge31_Node000022_Node000023" class="edge">
<title>Node22&#45;&gt;Node23</title>
<g id="a_edge31_Node000022_Node000023"><a xlink:title=" ">
<path fill="none" stroke="#63b8ff" d="M837.25,-103.08C829.22,-104.23 821.07,-105.39 813.07,-106.53"/>
<polygon fill="#63b8ff" stroke="#63b8ff" points="837.59,-106.57 847,-101.69 836.6,-99.64 837.59,-106.57"/>
</a>
</g>
</g>
<!-- Node24 -->
<g id="Node000024" class="node">
<title>Node24</title>
<g id="a_Node000024"><a xlink:href="class_properties_panel.html#a32c2dab00c58ffdcb6a1e3cd829d03c8" target="_top" xlink:title=" ">
<polygon fill="white" stroke="#666666" points="806.38,-252.1 669.62,-252.1 669.62,-220.1 806.38,-220.1 806.38,-252.1"/>
<text xml:space="preserve" text-anchor="start" x="677.62" y="-238.6" font-family="Helvetica,sans-Serif" font-size="10.00">PropertiesPanel::createIcon</text>
<text xml:space="preserve" text-anchor="middle" x="738" y="-226.6" font-family="Helvetica,sans-Serif" font-size="10.00">ComboBoxPropertyItem</text>
</a>
</g>
</g>
<!-- Node22&#45;&gt;Node24 -->
<g id="edge34_Node000022_Node000024" class="edge">
<title>Node22&#45;&gt;Node24</title>
<g id="a_edge34_Node000022_Node000024"><a xlink:title=" ">
<path fill="none" stroke="#63b8ff" d="M887.11,-116.13C874.88,-127.47 860.56,-141.48 848.75,-155.1 830.81,-175.79 834.17,-188.05 812.75,-205.1 805.58,-210.81 797.2,-215.64 788.72,-219.65"/>
<polygon fill="#63b8ff" stroke="#63b8ff" points="889.45,-118.73 894.47,-109.4 884.72,-113.57 889.45,-118.73"/>
</a>
</g>
</g>
<!-- Node23&#45;&gt;Node16 -->
<g id="edge32_Node000023_Node000016" class="edge">
<title>Node23&#45;&gt;Node16</title>
<g id="a_edge32_Node000023_Node000016"><a xlink:title=" ">
<path fill="none" stroke="#63b8ff" d="M692.16,-138.4C663.03,-152.24 625.63,-170 598.83,-182.73"/>
<polygon fill="#63b8ff" stroke="#63b8ff" points="693.58,-141.6 701.11,-134.15 690.58,-135.28 693.58,-141.6"/>
</a>
</g>
</g>
<!-- Node23&#45;&gt;Node19 -->
<g id="edge33_Node000023_Node000019" class="edge">
<title>Node23&#45;&gt;Node19</title>
<g id="a_edge33_Node000023_Node000019"><a xlink:title=" ">
<path fill="none" stroke="#63b8ff" d="M651.75,-120.13C567.74,-124.97 436.51,-137.53 327.5,-170.1 302.27,-177.64 275.51,-191 256.2,-201.71"/>
<polygon fill="#63b8ff" stroke="#63b8ff" points="651.72,-123.64 661.52,-119.6 651.34,-116.65 651.72,-123.64"/>
</a>
</g>
</g>
<!-- Node25 -->
<g id="Node000025" class="node">
<title>Node25</title>
<g id="a_Node000025"><a xlink:href="class_properties_panel.html#adbc7f8deb3a687706dc44ebbd7e39d9d" target="_top" xlink:title=" ">
<polygon fill="white" stroke="#666666" points="627.25,-265.1 499.5,-265.1 499.5,-233.1 627.25,-233.1 627.25,-265.1"/>
<text xml:space="preserve" text-anchor="start" x="507.5" y="-251.6" font-family="Helvetica,sans-Serif" font-size="10.00">PropertiesPanel::populate</text>
<text xml:space="preserve" text-anchor="middle" x="563.38" y="-239.6" font-family="Helvetica,sans-Serif" font-size="10.00">ForConnection</text>
</a>
</g>
</g>
<!-- Node24&#45;&gt;Node25 -->
<g id="edge35_Node000024_Node000025" class="edge">
<title>Node24&#45;&gt;Node25</title>
<g id="a_edge35_Node000024_Node000025"><a xlink:title=" ">
<path fill="none" stroke="#63b8ff" d="M657.92,-242.06C647.79,-242.82 637.52,-243.59 627.68,-244.33"/>
<polygon fill="#63b8ff" stroke="#63b8ff" points="658.05,-245.56 667.76,-241.31 657.53,-238.58 658.05,-245.56"/>
</a>
</g>
</g>
<!-- Node25&#45;&gt;Node12 -->
<g id="edge36_Node000025_Node000012" class="edge">
<title>Node25&#45;&gt;Node12</title>
<g id="a_edge36_Node000025_Node000012"><a xlink:title=" ">
<path fill="none" stroke="#63b8ff" d="M638.67,-261.88C709.33,-272.92 818.7,-287.1 914.25,-287.1 1105.5,-287.1 1105.5,-287.1 1105.5,-287.1 1227.93,-287.1 1370.98,-278.3 1449.86,-272.68"/>
<polygon fill="#63b8ff" stroke="#63b8ff" points="639.59,-258.49 629.17,-260.38 638.5,-265.4 639.59,-258.49"/>
</a>
</g>
</g>
<!-- Node27 -->
<g id="Node000027" class="node">
<title>Node27</title>
<g id="a_Node000027"><a xlink:href="class_properties_panel.html#a7bc224323f9c626842fdb6a89205c9bc" target="_top" xlink:title=" ">
<polygon fill="white" stroke="#666666" points="463.5,-322.1 327.5,-322.1 327.5,-290.1 463.5,-290.1 463.5,-322.1"/>
<text xml:space="preserve" text-anchor="start" x="335.5" y="-308.6" font-family="Helvetica,sans-Serif" font-size="10.00">PropertiesPanel::createLine</text>
<text xml:space="preserve" text-anchor="middle" x="395.5" y="-296.6" font-family="Helvetica,sans-Serif" font-size="10.00">EditPropertyItem</text>
</a>
</g>
</g>
<!-- Node26&#45;&gt;Node27 -->
<g id="edge38_Node000026_Node000027" class="edge">
<title>Node26&#45;&gt;Node27</title>
<g id="a_edge38_Node000026_Node000027"><a xlink:title=" ">
<path fill="none" stroke="#63b8ff" d="M1024.25,-328.3C884.11,-323.34 594.98,-313.12 463.83,-308.48"/>
<polygon fill="#63b8ff" stroke="#63b8ff" points="1024.08,-331.79 1034.2,-328.65 1024.33,-324.8 1024.08,-331.79"/>
</a>
</g>
</g>
<!-- Node27&#45;&gt;Node19 -->
<g id="edge39_Node000027_Node000019" class="edge">
<title>Node27&#45;&gt;Node19</title>
<g id="a_edge39_Node000027_Node000019"><a xlink:title=" ">
<path fill="none" stroke="#63b8ff" d="M360.75,-283.44C341.03,-270.72 315.4,-255.05 291.5,-243.1 285.51,-240.11 279.07,-237.2 272.68,-234.51"/>
<polygon fill="#63b8ff" stroke="#63b8ff" points="358.64,-286.25 368.93,-288.78 362.47,-280.38 358.64,-286.25"/>
</a>
</g>
</g>
<!-- Node28&#45;&gt;Node14 -->
<g id="edge42_Node000028_Node000014" class="edge">
<title>Node28&#45;&gt;Node14</title>
<g id="a_edge42_Node000028_Node000014"><a xlink:title=" ">
<path fill="none" stroke="#63b8ff" d="M1224.36,-414.44C1133.42,-408.9 980.24,-398.91 848.75,-387.1 836.72,-386.02 823.97,-384.75 811.57,-383.44"/>
<polygon fill="#63b8ff" stroke="#63b8ff" points="1223.97,-417.92 1234.17,-415.03 1224.4,-410.93 1223.97,-417.92"/>
</a>
</g>
</g>
<!-- Node29&#45;&gt;Node10 -->
<g id="edge55_Node000029_Node000010" class="edge">
<title>Node29&#45;&gt;Node10</title>
<g id="a_edge55_Node000029_Node000010"><a xlink:title=" ">
<path fill="none" stroke="#63b8ff" d="M1379.3,-201.09C1453.18,-216.21 1566.31,-239.35 1638.42,-254.1"/>
<polygon fill="#63b8ff" stroke="#63b8ff" points="1380.23,-197.71 1369.73,-199.14 1378.82,-204.57 1380.23,-197.71"/>
</a>
</g>
</g>
<!-- Node29&#45;&gt;Node20 -->
<g id="edge52_Node000029_Node000020" class="edge">
<title>Node29&#45;&gt;Node20</title>
<g id="a_edge52_Node000029_Node000020"><a xlink:title=" ">
<path fill="none" stroke="#63b8ff" d="M1230.73,-190.85C1172.87,-193.82 1090.09,-196.36 1017.75,-192.1 1005.7,-191.39 992.9,-190.21 980.58,-188.86"/>
<polygon fill="#63b8ff" stroke="#63b8ff" points="1230.65,-194.36 1240.45,-190.33 1230.28,-187.37 1230.65,-194.36"/>
</a>
</g>
</g>
<!-- Node29&#45;&gt;Node22 -->
<g id="edge53_Node000029_Node000022" class="edge">
<title>Node29&#45;&gt;Node22</title>
<g id="a_edge53_Node000029_Node000022"><a xlink:title=" ">
<path fill="none" stroke="#63b8ff" d="M1292.56,-159.85C1275.93,-125.43 1241.48,-66.57 1191.25,-42.1 1121.93,-8.33 1092.85,-24.61 1017.75,-42.1 990.01,-48.56 961.13,-63.74 941.3,-75.7"/>
<polygon fill="#63b8ff" stroke="#63b8ff" points="1289.29,-161.13 1296.69,-168.71 1295.64,-158.17 1289.29,-161.13"/>
</a>
</g>
</g>
<!-- Node29&#45;&gt;Node26 -->
<g id="edge54_Node000029_Node000026" class="edge">
<title>Node29&#45;&gt;Node26</title>
<g id="a_edge54_Node000029_Node000026"><a xlink:title=" ">
<path fill="none" stroke="#63b8ff" d="M1272.49,-209.12C1232.11,-238.61 1163.14,-289 1127.8,-314.81"/>
<polygon fill="#63b8ff" stroke="#63b8ff" points="1274.38,-212.07 1280.39,-203.34 1270.25,-206.42 1274.38,-212.07"/>
</a>
</g>
</g>
<!-- Node30 -->
<g id="Node000030" class="node">
<title>Node30</title>
<g id="a_Node000030"><a xlink:href="class_properties_panel.html#a74d22cd1ca119cda9cc4ca00b853e88d" target="_top" xlink:title=" ">
<polygon fill="white" stroke="#666666" points="1182.62,-133.1 1026.38,-133.1 1026.38,-101.1 1182.62,-101.1 1182.62,-133.1"/>
<text xml:space="preserve" text-anchor="start" x="1034.38" y="-119.6" font-family="Helvetica,sans-Serif" font-size="10.00">PropertiesPanel::handleAttribute</text>
<text xml:space="preserve" text-anchor="middle" x="1104.5" y="-107.6" font-family="Helvetica,sans-Serif" font-size="10.00">PropertyChange</text>
</a>
</g>
</g>
<!-- Node29&#45;&gt;Node30 -->
<g id="edge44_Node000029_Node000030" class="edge">
<title>Node29&#45;&gt;Node30</title>
<g id="a_edge44_Node000029_Node000030"><a xlink:title=" ">
<path fill="none" stroke="#63b8ff" d="M1253.95,-165.47C1234.51,-157.75 1211.98,-149.15 1191.25,-142.1 1182.59,-139.15 1173.36,-136.24 1164.3,-133.49"/>
<polygon fill="#63b8ff" stroke="#63b8ff" points="1252.41,-168.63 1262.99,-169.09 1255.01,-162.13 1252.41,-168.63"/>
</a>
</g>
</g>
<!-- Node31 -->
<g id="Node000031" class="node">
<title>Node31</title>
<g id="a_Node000031"><a xlink:href="class_properties_panel.html#aa82a2245c62f66554f277c64e643252c" target="_top" xlink:title=" ">
<polygon fill="white" stroke="#666666" points="1191.25,-83.1 1017.75,-83.1 1017.75,-51.1 1191.25,-51.1 1191.25,-83.1"/>
<text xml:space="preserve" text-anchor="start" x="1025.75" y="-69.6" font-family="Helvetica,sans-Serif" font-size="10.00">PropertiesPanel::handleRelationship</text>
<text xml:space="preserve" text-anchor="middle" x="1104.5" y="-57.6" font-family="Helvetica,sans-Serif" font-size="10.00">EndCardinalityChange</text>
</a>
</g>
</g>
<!-- Node29&#45;&gt;Node31 -->
<g id="edge48_Node000029_Node000031" class="edge">
<title>Node29&#45;&gt;Node31</title>
<g id="a_edge48_Node000029_Node000031"><a xlink:title=" ">
<path fill="none" stroke="#63b8ff" d="M1280.9,-161.85C1259.49,-140.66 1225.8,-110.5 1191.25,-92.1 1185.23,-88.89 1178.74,-86.05 1172.13,-83.54"/>
<polygon fill="#63b8ff" stroke="#63b8ff" points="1278.16,-164.05 1287.69,-168.69 1283.13,-159.12 1278.16,-164.05"/>
</a>
</g>
</g>
<!-- Node32 -->
<g id="Node000032" class="node">
<title>Node32</title>
<g id="a_Node000032"><a xlink:href="class_properties_panel.html#ac2741a5b2cb859b07534b8f7c786359b" target="_top" xlink:title=" ">
<polygon fill="white" stroke="#666666" points="1191.25,-183.1 1017.75,-183.1 1017.75,-151.1 1191.25,-151.1 1191.25,-183.1"/>
<text xml:space="preserve" text-anchor="start" x="1025.75" y="-169.6" font-family="Helvetica,sans-Serif" font-size="10.00">PropertiesPanel::handleRelationship</text>
<text xml:space="preserve" text-anchor="middle" x="1104.5" y="-157.6" font-family="Helvetica,sans-Serif" font-size="10.00">EndParticipationChange</text>
</a>
</g>
</g>
<!-- Node29&#45;&gt;Node32 -->
<g id="edge50_Node000029_Node000032" class="edge">
<title>Node29&#45;&gt;Node32</title>
<g id="a_edge50_Node000029_Node000032"><a xlink:title=" ">
<path fill="none" stroke="#63b8ff" d="M1230.9,-179.1C1218.04,-177.87 1204.56,-176.58 1191.39,-175.32"/>
<polygon fill="#63b8ff" stroke="#63b8ff" points="1230.22,-182.55 1240.5,-180.02 1230.88,-175.59 1230.22,-182.55"/>
</a>
</g>
</g>
<!-- Node30&#45;&gt;Node10 -->
<g id="edge47_Node000030_Node000010" class="edge">
<title>Node30&#45;&gt;Node10</title>
<g id="a_edge47_Node000030_Node000010"><a xlink:title=" ">
<path fill="none" stroke="#63b8ff" d="M1194.38,-122.71C1296.05,-131.44 1466.12,-153.2 1602.75,-206.1 1632.77,-217.72 1664.1,-237.6 1684.45,-251.71"/>
<polygon fill="#63b8ff" stroke="#63b8ff" points="1194.7,-119.22 1184.44,-121.88 1194.11,-126.2 1194.7,-119.22"/>
</a>
</g>
</g>
<!-- Node30&#45;&gt;Node20 -->
<g id="edge45_Node000030_Node000020" class="edge">
<title>Node30&#45;&gt;Node20</title>
<g id="a_edge45_Node000030_Node000020"><a xlink:title=" ">
<path fill="none" stroke="#63b8ff" d="M1034.36,-136.77C1028.72,-138.52 1023.13,-140.31 1017.75,-142.1 997.93,-148.69 976.22,-156.71 957.98,-163.68"/>
<polygon fill="#63b8ff" stroke="#63b8ff" points="1035.21,-140.17 1043.75,-133.9 1033.17,-133.48 1035.21,-140.17"/>
</a>
</g>
</g>
<!-- Node30&#45;&gt;Node22 -->
<g id="edge46_Node000030_Node000022" class="edge">
<title>Node30&#45;&gt;Node22</title>
<g id="a_edge46_Node000030_Node000022"><a xlink:title=" ">
<path fill="none" stroke="#63b8ff" d="M1014.62,-105.23C1003.66,-103.77 992.61,-102.3 982.08,-100.89"/>
<polygon fill="#63b8ff" stroke="#63b8ff" points="1014.11,-108.7 1024.49,-106.55 1015.04,-101.76 1014.11,-108.7"/>
</a>
</g>
</g>
<!-- Node31&#45;&gt;Node22 -->
<g id="edge49_Node000031_Node000022" class="edge">
<title>Node31&#45;&gt;Node22</title>
<g id="a_edge49_Node000031_Node000022"><a xlink:title=" ">
<path fill="none" stroke="#63b8ff" d="M1005.91,-80.13C997.86,-81.2 989.86,-82.27 982.14,-83.3"/>
<polygon fill="#63b8ff" stroke="#63b8ff" points="1006.32,-83.61 1015.77,-78.81 1005.4,-76.67 1006.32,-83.61"/>
</a>
</g>
</g>
<!-- Node32&#45;&gt;Node20 -->
<g id="edge51_Node000032_Node000020" class="edge">
<title>Node32&#45;&gt;Node20</title>
<g id="a_edge51_Node000032_Node000020"><a xlink:title=" ">
<path fill="none" stroke="#63b8ff" d="M1005.93,-173.87C997.31,-174.47 988.72,-175.07 980.48,-175.64"/>
<polygon fill="#63b8ff" stroke="#63b8ff" points="1006.03,-177.38 1015.76,-173.19 1005.55,-170.39 1006.03,-177.38"/>
</a>
</g>
</g>
</g>
</svg>

<g id="navigator" transform="translate(0 0)" fill="#404254">
  <rect fill="#f2f5e9" fill-opacity="0.5" stroke="#606060" stroke-width=".5" x="0" y="0" width="60" height="60"/>
  <use id="zoomplus" xlink:href="#zoomPlus" x="17" y="9" onmousedown="handleZoom(evt,'in')"/>
  <use id="zoomminus" xlink:href="#zoomMin" x="42" y="9" onmousedown="handleZoom(evt,'out')"/>
  <use id="reset" xlink:href="#resetDef" x="30" y="36" onmousedown="handleReset()"/>
   <use id="arrowup" xlink:href="#arrowUp" x="0" y="0" onmousedown="handlePan(0,-1)"/>
  <use id="arrowright" xlink:href="#arrowRight" x="0" y="0" onmousedown="handlePan(1,0)"/>
  <use id="arrowdown" xlink:href="#arrowDown" x="0" y="0" onmousedown="handlePan(0,1)"/>
  <use id="arrowleft" xlink:href="#arrowLeft" x="0" y="0" onmousedown="handlePan(-1,0)"/>
</g>
<svg viewBox="0 0 15 15" width="100%" height="30px" preserveAspectRatio="xMaxYMin meet">
 <g id="arrow_out" transform="scale(0.3 0.3)">
  <a xlink:href="class_connection_line_a3c8e72d1084c985add08c5e37d54835f_icgraph_org.svg" target="_base">
   <rect id="button" ry="5" rx="5" y="6" x="6" height="38" width="38"
        fill="#f2f5e9" fill-opacity="0.5" stroke="#606060" stroke-width="1.0"/>
   <path id="arrow"
     d="M 11.500037,31.436501 C 11.940474,20.09759 22.043105,11.32322 32.158766,21.979434 L 37.068811,17.246167 C 37.068811,17.246167 37.088388,32 37.088388,32 L 22.160133,31.978069 C 22.160133,31.978069 26.997745,27.140456 26.997745,27.140456 C 18.528582,18.264221 13.291696,25.230495 11.500037,31.436501 z"
     style="fill:#404040;"/>
  </a>
 </g>
</svg>

<style type='text/css'>
<![CDATA[
[data-mouse-over-selected='false'] { opacity: 0.7; }
[data-mouse-over-selected='true']  { opacity: 1.0; }
]]>
</style>
<script type="application/ecmascript"><![CDATA[
document.addEventListener('DOMContentLoaded', (event) => {
  highlightEdges();
  highlightAdjacentNodes();
});
]]></script>
</svg>
