<?xml version="1.0" encoding="UTF-8" standalone="no"?>
<!DOCTYPE svg PUBLIC "-//W3C//DTD SVG 1.1//EN"
 "http://www.w3.org/Graphics/SVG/1.1/DTD/svg11.dtd">
<!-- Generated by graphviz version 14.1.1 (20251213.1925)
 -->
<!-- Title: DiagramScene::clearDiagram Pages: 1 -->
<!--zoomable 332 -->

<svg id="main" version="1.1" xmlns="http://www.w3.org/2000/svg" xmlns:xlink="http://www.w3.org/1999/xlink" xml:space="preserve" onload="init(evt)">

<style type="text/css"><![CDATA[
.node, .edge {opacity: 0.7;}
.node.selected, .edge.selected {opacity: 1;}
.edge:hover path { stroke: red; }
.edge:hover polygon { stroke: red; fill: red; }
]]></style>

<defs>
  <circle id="rim" cx="0" cy="0" r="7"/>
  <circle id="rim2" cx="0" cy="0" r="3.5"/>
  <g id="zoomPlus">
    <use xlink:href="#rim" fill="#404040"><set attributeName="fill" to="#808080" begin="zoomplus.mouseover" end="zoomplus.mouseout"/></use>
    <path d="M-4,0h8M0,-4v8" fill="none" stroke="white" stroke-width="1.5" pointer-events="none"/>
  </g>
  <g id="zoomMin">
    <use xlink:href="#rim" fill="#404040"><set attributeName="fill" to="#808080" begin="zoomminus.mouseover" end="zoomminus.mouseout"/></use>
    <path d="M-4,0h8" fill="none" stroke="white" stroke-width="1.5" pointer-events="none"/>
  </g>
  <g id="arrowUp" transform="translate(30 24)">
    <use xlink:href="#rim"/>
    <path pointer-events="none" fill="none" stroke="white" stroke-width="1.5" d="M0,-3.0v7 M-2.5,-0.5L0,-3.0L2.5,-0.5"/>
  </g>
  <g id="arrowRight" transform="rotate(90) translate(36 -43)">
    <use xlink:href="#rim"/>
    <path pointer-events="none" fill="none" stroke="white" stroke-width="1.5" d="M0,-3.0v7 M-2.5,-0.5L0,-3.0L2.5,-0.5"/>
  </g>
  <g id="arrowDown" transform="rotate(180) translate(-30 -48)">
    <use xlink:href="#rim"/>
    <path pointer-events="none" fill="none" stroke="white" stroke-width="1.5" d="M0,-3.0v7 M-2.5,-0.5L0,-3.0L2.5,-0.5"/>
  </g>
  <g id="arrowLeft" transform="rotate(270) translate(-36 17)">
    <use xlink:href="#rim"/>
    <path pointer-events="none" fill="none" stroke="white" stroke-width="1.5" d="M0,-3.0v7 M-2.5,-0.5L0,-3.0L2.5,-0.5"/>
  </g>
  <g id="resetDef">
    <use xlink:href="#rim2" fill="#404040"><set attributeName="fill" to="#808080" begin="reset.mouseover" end="reset.mouseout"/></use>
  </g>
</defs>
<script type="application/ecmascript">
var viewWidth = 948;
var viewHeight = 332;
var sectionId = 'dynsection-10';
</script>
<script type="application/ecmascript" xlink:href="svg.min.js"/>
<svg id="graph" class="graph">
<g id="viewport">
<title>DiagramScene::clearDiagram</title>
<!-- Node1 -->
<g id="Node000001" class="node">
<title>Node1</title>
<g id="a_Node000001"><a xlink:title=" ">
<polygon fill="#999999" stroke="#666666" points="144.25,-218 0,-218 0,-198 144.25,-198 144.25,-218"/>
<text xml:space="preserve" text-anchor="middle" x="72.12" y="-204.5" font-family="Helvetica,sans-Serif" font-size="10.00">DiagramScene::clearDiagram</text>
</a>
</g>
</g>
<!-- Node2 -->
<g id="Node000002" class="node">
<title>Node2</title>
<g id="a_Node000002"><a xlink:href="class_diagram_scene.html#a483cb75d9da2cbe30aae1f4832560a65" target="_top" xlink:title=" ">
<polygon fill="white" stroke="#666666" points="352.62,-287 188.12,-287 188.12,-267 352.62,-267 352.62,-287"/>
<text xml:space="preserve" text-anchor="middle" x="270.38" y="-273.5" font-family="Helvetica,sans-Serif" font-size="10.00">DiagramScene::cancelConnection</text>
</a>
</g>
</g>
<!-- Node1&#45;&gt;Node2 -->
<g id="edge1_Node000001_Node000002" class="edge">
<title>Node1&#45;&gt;Node2</title>
<g id="a_edge1_Node000001_Node000002"><a xlink:title=" ">
<path fill="none" stroke="#63b8ff" d="M102.93,-218.48C136.6,-230.32 191.58,-249.65 229.06,-262.83"/>
<polygon fill="#63b8ff" stroke="#63b8ff" points="227.59,-266.02 238.18,-266.03 229.91,-259.41 227.59,-266.02"/>
</a>
</g>
</g>
<!-- Node4 -->
<g id="Node000004" class="node">
<title>Node4</title>
<g id="a_Node000004"><a xlink:href="class_diagram_scene.html#add93af6ff55d3453051b8c057cd4bdcb" target="_top" xlink:title=" ">
<polygon fill="white" stroke="#666666" points="344.38,-218 196.38,-218 196.38,-198 344.38,-198 344.38,-218"/>
<text xml:space="preserve" text-anchor="middle" x="270.38" y="-204.5" font-family="Helvetica,sans-Serif" font-size="10.00">DiagramScene::clearSelection</text>
</a>
</g>
</g>
<!-- Node1&#45;&gt;Node4 -->
<g id="edge3_Node000001_Node000004" class="edge">
<title>Node1&#45;&gt;Node4</title>
<g id="a_edge3_Node000001_Node000004"><a xlink:title=" ">
<path fill="none" stroke="#63b8ff" d="M144.53,-208C157.63,-208 171.42,-208 184.86,-208"/>
<polygon fill="#63b8ff" stroke="#63b8ff" points="184.53,-211.5 194.53,-208 184.53,-204.5 184.53,-211.5"/>
</a>
</g>
</g>
<!-- Node16 -->
<g id="Node000016" class="node">
<title>Node16</title>
<g id="a_Node000016"><a xlink:href="class_diagram_scene.html#aefcfbcad98610038563584daf41c6baf" target="_top" xlink:title=" ">
<polygon fill="white" stroke="#666666" points="360.5,-180 180.25,-180 180.25,-160 360.5,-160 360.5,-180"/>
<text xml:space="preserve" text-anchor="middle" x="270.38" y="-166.5" font-family="Helvetica,sans-Serif" font-size="10.00">DiagramScene::destroySelectionRect</text>
</a>
</g>
</g>
<!-- Node1&#45;&gt;Node16 -->
<g id="edge17_Node000001_Node000016" class="edge">
<title>Node1&#45;&gt;Node16</title>
<g id="a_edge17_Node000001_Node000016"><a xlink:title=" ">
<path fill="none" stroke="#63b8ff" d="M127.27,-197.52C151.08,-192.91 179.25,-187.45 204.2,-182.62"/>
<polygon fill="#63b8ff" stroke="#63b8ff" points="204.77,-186.08 213.92,-180.74 203.44,-179.2 204.77,-186.08"/>
</a>
</g>
</g>
<!-- Node3 -->
<g id="Node000003" class="node">
<title>Node3</title>
<g id="a_Node000003"><a xlink:href="class_diagram_scene.html#a12b2e24143d976ca11461361876b3892" target="_top" xlink:title=" ">
<polygon fill="white" stroke="#666666" points="544.5,-324 410.75,-324 410.75,-292 544.5,-292 544.5,-324"/>
<text xml:space="preserve" text-anchor="start" x="418.75" y="-310.5" font-family="Helvetica,sans-Serif" font-size="10.00">DiagramScene::connection</text>
<text xml:space="preserve" text-anchor="middle" x="477.62" y="-298.5" font-family="Helvetica,sans-Serif" font-size="10.00">Cancelled</text>
</a>
</g>
</g>
<!-- Node2&#45;&gt;Node3 -->
<g id="edge2_Node000002_Node000003" class="edge">
<title>Node2&#45;&gt;Node3</title>
<g id="a_edge2_Node000002_Node000003"><a xlink:title=" ">
<path fill="none" stroke="#63b8ff" d="M340.86,-287.5C359.63,-290.33 380.04,-293.41 399.21,-296.31"/>
<polygon fill="#63b8ff" stroke="#63b8ff" points="398.42,-299.73 408.84,-297.76 399.47,-292.81 398.42,-299.73"/>
</a>
</g>
</g>
<!-- Node5 -->
<g id="Node000005" class="node">
<title>Node5</title>
<g id="a_Node000005"><a xlink:href="class_diagram_scene.html#a496c60851a94026b46ba80b647e4eb47" target="_top" xlink:title=" ">
<polygon fill="white" stroke="#666666" points="546.75,-274 408.5,-274 408.5,-242 546.75,-242 546.75,-274"/>
<text xml:space="preserve" text-anchor="start" x="416.5" y="-260.5" font-family="Helvetica,sans-Serif" font-size="10.00">DiagramScene::getSelected</text>
<text xml:space="preserve" text-anchor="middle" x="477.62" y="-248.5" font-family="Helvetica,sans-Serif" font-size="10.00">Connections</text>
</a>
</g>
</g>
<!-- Node4&#45;&gt;Node5 -->
<g id="edge4_Node000004_Node000005" class="edge">
<title>Node4&#45;&gt;Node5</title>
<g id="a_edge4_Node000004_Node000005"><a xlink:title=" ">
<path fill="none" stroke="#63b8ff" d="M314.4,-218.48C338.58,-224.37 369.52,-231.91 397.88,-238.82"/>
<polygon fill="#63b8ff" stroke="#63b8ff" points="397,-242.2 407.54,-241.17 398.65,-235.4 397,-242.2"/>
</a>
</g>
</g>
<!-- Node6 -->
<g id="Node000006" class="node">
<title>Node6</title>
<g id="a_Node000006"><a xlink:href="class_diagram_scene.html#aef557b645a95aaa376592146d4c6c60e" target="_top" xlink:title=" ">
<polygon fill="white" stroke="#666666" points="546.75,-224 408.5,-224 408.5,-192 546.75,-192 546.75,-224"/>
<text xml:space="preserve" text-anchor="start" x="416.5" y="-210.5" font-family="Helvetica,sans-Serif" font-size="10.00">DiagramScene::getSelected</text>
<text xml:space="preserve" text-anchor="middle" x="477.62" y="-198.5" font-family="Helvetica,sans-Serif" font-size="10.00">Elements</text>
</a>
</g>
</g>
<!-- Node4&#45;&gt;Node6 -->
<g id="edge5_Node000004_Node000006" class="edge">
<title>Node4&#45;&gt;Node6</title>
<g id="a_edge5_Node000004_Node000006"><a xlink:title=" ">
<path fill="none" stroke="#63b8ff" d="M344.61,-208C361.6,-208 379.78,-208 397.04,-208"/>
<polygon fill="#63b8ff" stroke="#63b8ff" points="396.71,-211.5 406.71,-208 396.71,-204.5 396.71,-211.5"/>
</a>
</g>
</g>
<!-- Node7 -->
<g id="Node000007" class="node">
<title>Node7</title>
<g id="a_Node000007"><a xlink:href="class_diagram_scene.html#ac7268f1b5870d5c67f54057e6638bcec" target="_top" xlink:title=" ">
<polygon fill="white" stroke="#666666" points="558.75,-174 396.5,-174 396.5,-154 558.75,-154 558.75,-174"/>
<text xml:space="preserve" text-anchor="middle" x="477.62" y="-160.5" font-family="Helvetica,sans-Serif" font-size="10.00">DiagramScene::selectConnection</text>
</a>
</g>
</g>
<!-- Node4&#45;&gt;Node7 -->
<g id="edge6_Node000004_Node000007" class="edge">
<title>Node4&#45;&gt;Node7</title>
<g id="a_edge6_Node000004_Node000007"><a xlink:title=" ">
<path fill="none" stroke="#63b8ff" d="M320.41,-197.56C333.44,-194.79 347.51,-191.78 360.5,-189 378.87,-185.06 398.87,-180.76 417.01,-176.86"/>
<polygon fill="#63b8ff" stroke="#63b8ff" points="417.52,-180.33 426.56,-174.8 416.05,-173.49 417.52,-180.33"/>
</a>
</g>
</g>
<!-- Node11 -->
<g id="Node000011" class="node">
<title>Node11</title>
<g id="a_Node000011"><a xlink:href="class_diagram_scene.html#aa7d8cdf9568c51ab910df9d5630093b7" target="_top" xlink:title=" ">
<polygon fill="white" stroke="#666666" points="552,-114 403.25,-114 403.25,-94 552,-94 552,-114"/>
<text xml:space="preserve" text-anchor="middle" x="477.62" y="-100.5" font-family="Helvetica,sans-Serif" font-size="10.00">DiagramScene::selectElement</text>
</a>
</g>
</g>
<!-- Node4&#45;&gt;Node11 -->
<g id="edge10_Node000004_Node000011" class="edge">
<title>Node4&#45;&gt;Node11</title>
<g id="a_edge10_Node000004_Node000011"><a xlink:title=" ">
<path fill="none" stroke="#63b8ff" d="M342.2,-197.62C348.62,-195.29 354.83,-192.46 360.5,-189 382.07,-175.85 376.84,-160.87 396.5,-145 409.29,-134.68 425.1,-125.92 439.28,-119.17"/>
<polygon fill="#63b8ff" stroke="#63b8ff" points="440.71,-122.37 448.36,-115.05 437.81,-116 440.71,-122.37"/>
</a>
</g>
</g>
<!-- Node8 -->
<g id="Node000008" class="node">
<title>Node8</title>
<g id="a_Node000008"><a xlink:href="class_diagram_scene.html#a5f3d68221bac825f2b027d638d25fa49" target="_top" xlink:title=" ">
<polygon fill="white" stroke="#666666" points="746.88,-252 613.12,-252 613.12,-220 746.88,-220 746.88,-252"/>
<text xml:space="preserve" text-anchor="start" x="621.12" y="-238.5" font-family="Helvetica,sans-Serif" font-size="10.00">DiagramScene::connection</text>
<text xml:space="preserve" text-anchor="middle" x="680" y="-226.5" font-family="Helvetica,sans-Serif" font-size="10.00">Deselected</text>
</a>
</g>
</g>
<!-- Node7&#45;&gt;Node8 -->
<g id="edge7_Node000007_Node000008" class="edge">
<title>Node7&#45;&gt;Node8</title>
<g id="a_edge7_Node000007_Node000008"><a xlink:title=" ">
<path fill="none" stroke="#63b8ff" d="M536.13,-174.46C543.92,-176.79 551.66,-179.6 558.75,-183 577.03,-191.76 576.72,-201.73 594.75,-211 597.77,-212.55 600.91,-214.03 604.11,-215.42"/>
<polygon fill="#63b8ff" stroke="#63b8ff" points="602.55,-218.56 613.13,-219.04 605.16,-212.07 602.55,-218.56"/>
</a>
</g>
</g>
<!-- Node9 -->
<g id="Node000009" class="node">
<title>Node9</title>
<g id="a_Node000009"><a xlink:href="class_diagram_scene.html#ac397b05d6318f8b7c9366a8b857ed98c" target="_top" xlink:title=" ">
<polygon fill="white" stroke="#666666" points="746.88,-202 613.12,-202 613.12,-170 746.88,-170 746.88,-202"/>
<text xml:space="preserve" text-anchor="start" x="621.12" y="-188.5" font-family="Helvetica,sans-Serif" font-size="10.00">DiagramScene::connection</text>
<text xml:space="preserve" text-anchor="middle" x="680" y="-176.5" font-family="Helvetica,sans-Serif" font-size="10.00">Selected</text>
</a>
</g>
</g>
<!-- Node7&#45;&gt;Node9 -->
<g id="edge8_Node000007_Node000009" class="edge">
<title>Node7&#45;&gt;Node9</title>
<g id="a_edge8_Node000007_Node000009"><a xlink:title=" ">
<path fill="none" stroke="#63b8ff" d="M558.97,-172.82C573.06,-174.37 587.7,-175.98 601.7,-177.51"/>
<polygon fill="#63b8ff" stroke="#63b8ff" points="600.95,-180.95 611.27,-178.56 601.71,-173.99 600.95,-180.95"/>
</a>
</g>
</g>
<!-- Node10 -->
<g id="Node000010" class="node">
<title>Node10</title>
<g id="a_Node000010"><a xlink:href="class_diagram_scene.html#a7dbb09a9acecc803601560e50ad720ea" target="_top" xlink:title=" ">
<polygon fill="white" stroke="#666666" points="762.25,-152 597.75,-152 597.75,-132 762.25,-132 762.25,-152"/>
<text xml:space="preserve" text-anchor="middle" x="680" y="-138.5" font-family="Helvetica,sans-Serif" font-size="10.00">DiagramScene::selectionChanged</text>
</a>
</g>
</g>
<!-- Node7&#45;&gt;Node10 -->
<g id="edge9_Node000007_Node000010" class="edge">
<title>Node7&#45;&gt;Node10</title>
<g id="a_edge9_Node000007_Node000010"><a xlink:title=" ">
<path fill="none" stroke="#63b8ff" d="M558.97,-155.18C567.85,-154.2 576.95,-153.2 585.97,-152.21"/>
<polygon fill="#63b8ff" stroke="#63b8ff" points="586.27,-155.7 595.82,-151.13 585.5,-148.74 586.27,-155.7"/>
</a>
</g>
</g>
<!-- Node11&#45;&gt;Node10 -->
<g id="edge16_Node000011_Node000010" class="edge">
<title>Node11&#45;&gt;Node10</title>
<g id="a_edge16_Node000011_Node000010"><a xlink:title=" ">
<path fill="none" stroke="#63b8ff" d="M533.91,-114.48C558.33,-119.12 587.24,-124.6 612.79,-129.44"/>
<polygon fill="#63b8ff" stroke="#63b8ff" points="611.93,-132.84 622.41,-131.27 613.24,-125.97 611.93,-132.84"/>
</a>
</g>
</g>
<!-- Node12 -->
<g id="Node000012" class="node">
<title>Node12</title>
<g id="a_Node000012"><a xlink:href="class_diagram_scene.html#a065ce2ec3d83e05c486ae418eaf6320f" target="_top" xlink:title=" ">
<polygon fill="white" stroke="#666666" points="765.25,-114 594.75,-114 594.75,-94 765.25,-94 765.25,-114"/>
<text xml:space="preserve" text-anchor="middle" x="680" y="-100.5" font-family="Helvetica,sans-Serif" font-size="10.00">DiagramScene::elementDeselected</text>
</a>
</g>
</g>
<!-- Node11&#45;&gt;Node12 -->
<g id="edge11_Node000011_Node000012" class="edge">
<title>Node11&#45;&gt;Node12</title>
<g id="a_edge11_Node000011_Node000012"><a xlink:title=" ">
<path fill="none" stroke="#63b8ff" d="M552.38,-104C562.46,-104 572.93,-104 583.33,-104"/>
<polygon fill="#63b8ff" stroke="#63b8ff" points="583.05,-107.5 593.05,-104 583.05,-100.5 583.05,-107.5"/>
</a>
</g>
</g>
<!-- Node13 -->
<g id="Node000013" class="node">
<title>Node13</title>
<g id="a_Node000013"><a xlink:href="class_diagram_scene.html#a15719115f3f2f26120243d71999dcfea" target="_top" xlink:title=" ">
<polygon fill="white" stroke="#666666" points="759.62,-76 600.38,-76 600.38,-56 759.62,-56 759.62,-76"/>
<text xml:space="preserve" text-anchor="middle" x="680" y="-62.5" font-family="Helvetica,sans-Serif" font-size="10.00">DiagramScene::elementSelected</text>
</a>
</g>
</g>
<!-- Node11&#45;&gt;Node13 -->
<g id="edge12_Node000011_Node000013" class="edge">
<title>Node11&#45;&gt;Node13</title>
<g id="a_edge12_Node000011_Node000013"><a xlink:title=" ">
<path fill="none" stroke="#63b8ff" d="M533.91,-93.52C558.33,-88.88 587.24,-83.4 612.79,-78.56"/>
<polygon fill="#63b8ff" stroke="#63b8ff" points="613.24,-82.03 622.41,-76.73 611.93,-75.16 613.24,-82.03"/>
</a>
</g>
</g>
<!-- Node14 -->
<g id="Node000014" class="node">
<title>Node14</title>
<g id="a_Node000014"><a xlink:href="class_diagram_scene.html#a45f18c15840085ffda39cfc9229a15ee" target="_top" xlink:title=" ">
<polygon fill="white" stroke="#666666" points="760.38,-20 599.62,-20 599.62,0 760.38,0 760.38,-20"/>
<text xml:space="preserve" text-anchor="middle" x="680" y="-6.5" font-family="Helvetica,sans-Serif" font-size="10.00">DiagramScene::findGraphicsItem</text>
</a>
</g>
</g>
<!-- Node11&#45;&gt;Node14 -->
<g id="edge13_Node000011_Node000014" class="edge">
<title>Node11&#45;&gt;Node14</title>
<g id="a_edge13_Node000011_Node000014"><a xlink:title=" ">
<path fill="none" stroke="#63b8ff" d="M499.06,-93.64C522.15,-82.01 560.94,-62.71 594.75,-47 610.84,-39.52 628.82,-31.57 644.03,-24.96"/>
<polygon fill="#63b8ff" stroke="#63b8ff" points="645.37,-28.2 653.16,-21.02 642.59,-21.77 645.37,-28.2"/>
</a>
</g>
</g>
<!-- Node14&#45;&gt;Node14 -->
<g id="edge15_Node000014_Node000014" class="edge">
<title>Node14&#45;&gt;Node14</title>
<g id="a_edge15_Node000014_Node000014"><a xlink:title=" ">
<path fill="none" stroke="#63b8ff" d="M649.75,-20.34C636.82,-28.98 646.91,-38 680,-38 698.61,-38 709.95,-35.14 714,-31.11"/>
<polygon fill="#63b8ff" stroke="#63b8ff" points="717.34,-30.06 710.75,-21.77 710.73,-32.36 717.34,-30.06"/>
</a>
</g>
</g>
<!-- Node15 -->
<g id="Node000015" class="node">
<title>Node15</title>
<g id="a_Node000015"><a xlink:href="class_diagram_scene.html#a4da4018bb57166e46104700d2847c41d" target="_top" xlink:title=" ">
<polygon fill="white" stroke="#666666" points="939.5,-20 801.25,-20 801.25,0 939.5,0 939.5,-20"/>
<text xml:space="preserve" text-anchor="middle" x="870.38" y="-6.5" font-family="Helvetica,sans-Serif" font-size="10.00">DiagramScene::findElement</text>
</a>
</g>
</g>
<!-- Node14&#45;&gt;Node15 -->
<g id="edge14_Node000014_Node000015" class="edge">
<title>Node14&#45;&gt;Node15</title>
<g id="a_edge14_Node000014_Node000015"><a xlink:title=" ">
<path fill="none" stroke="#63b8ff" d="M760.61,-10C770.11,-10 779.81,-10 789.31,-10"/>
<polygon fill="#63b8ff" stroke="#63b8ff" points="789.26,-13.5 799.26,-10 789.26,-6.5 789.26,-13.5"/>
</a>
</g>
</g>
</g>
</svg>

<g id="navigator" transform="translate(0 0)" fill="#404254">
  <rect fill="#f2f5e9" fill-opacity="0.5" stroke="#606060" stroke-width=".5" x="0" y="0" width="60" height="60"/>
  <use id="zoomplus" xlink:href="#zoomPlus" x="17" y="9" onmousedown="handleZoom(evt,'in')"/>
  <use id="zoomminus" xlink:href="#zoomMin" x="42" y="9" onmousedown="handleZoom(evt,'out')"/>
  <use id="reset" xlink:href="#resetDef" x="30" y="36" onmousedown="handleReset()"/>
   <use id="arrowup" xlink:href="#arrowUp" x="0" y="0" onmousedown="handlePan(0,-1)"/>
  <use id="arrowright" xlink:href="#arrowRight" x="0" y="0" onmousedown="handlePan(1,0)"/>
  <use id="arrowdown" xlink:href="#arrowDown" x="0" y="0" onmousedown="handlePan(0,1)"/>
  <use id="arrowleft" xlink:href="#arrowLeft" x="0" y="0" onmousedown="handlePan(-1,0)"/>
</g>
<svg viewBox="0 0 15 15" width="100%" height="30px" preserveAspectRatio="xMaxYMin meet">
 <g id="arrow_out" transform="scale(0.3 0.3)">
  <a xlink:href="class_diagram_scene_a0c02f289dea7872eae24bb2c0f91d5ea_cgraph_org.svg" target="_base">
   <rect id="button" ry="5" rx="5" y="6" x="6" height="38" width="38"
        fill="#f2f5e9" fill-opacity="0.5" stroke="#606060" stroke-width="1.0"/>
   <path id="arrow"
     d="M 11.500037,31.436501 C 11.940474,20.09759 22.043105,11.32322 32.158766,21.979434 L 37.068811,17.246167 C 37.068811,17.246167 37.088388,32 37.088388,32 L 22.160133,31.978069 C 22.160133,31.978069 26.997745,27.140456 26.997745,27.140456 C 18.528582,18.264221 13.291696,25.230495 11.500037,31.436501 z"
     style="fill:#404040;"/>
  </a>
 </g>
</svg>

<style type='text/css'>
<![CDATA[
[data-mouse-over-selected='false'] { opacity: 0.7; }
[data-mouse-over-selected='true']  { opacity: 1.0; }
]]>
</style>
<script type="application/ecmascript"><![CDATA[
document.addEventListener('DOMContentLoaded', (event) => {
  highlightEdges();
  highlightAdjacentNodes();
});
]]></script>
</svg>
