<?xml version="1.0" encoding="UTF-8" standalone="no"?>
<!DOCTYPE svg PUBLIC "-//W3C//DTD SVG 1.1//EN"
 "http://www.w3.org/Graphics/SVG/1.1/DTD/svg11.dtd">
<!-- Generated by graphviz version 14.1.1 (20251213.1925)
 -->
<!-- Title: MainWindow::startAutoSave Pages: 1 -->
<svg width="830pt" height="66pt"
 viewBox="0.00 0.00 830.00 66.00" xmlns="http://www.w3.org/2000/svg" xmlns:xlink="http://www.w3.org/1999/xlink">
<g id="graph0" class="graph" transform="scale(1 1) rotate(0) translate(4 62)">
<title>MainWindow::startAutoSave</title>
<!-- Node1 -->
<g id="Node000001" class="node">
<title>Node1</title>
<g id="a_Node000001"><a xlink:title=" ">
<polygon fill="#999999" stroke="#666666" points="821.75,-39 681.25,-39 681.25,-19 821.75,-19 821.75,-39"/>
<text xml:space="preserve" text-anchor="middle" x="751.5" y="-25.5" font-family="Helvetica,sans-Serif" font-size="10.00">MainWindow::startAutoSave</text>
</a>
</g>
</g>
<!-- Node2 -->
<g id="Node000002" class="node">
<title>Node2</title>
<g id="a_Node000002"><a xlink:href="class_main_window.html#aaf455232cccaa422fc4c371fa99bff84" target="_top" xlink:title=" ">
<polygon fill="white" stroke="#666666" points="645.25,-58 500.25,-58 500.25,-38 645.25,-38 645.25,-58"/>
<text xml:space="preserve" text-anchor="middle" x="572.75" y="-44.5" font-family="Helvetica,sans-Serif" font-size="10.00">MainWindow::createFileMenu</text>
</a>
</g>
</g>
<!-- Node1&#45;&gt;Node2 -->
<g id="edge1_Node000001_Node000002" class="edge">
<title>Node1&#45;&gt;Node2</title>
<g id="a_edge1_Node000001_Node000002"><a xlink:title=" ">
<path fill="none" stroke="#63b8ff" d="M669.65,-37.69C661.63,-38.55 653.53,-39.42 645.61,-40.27"/>
<polygon fill="#63b8ff" stroke="#63b8ff" points="669.82,-41.19 679.39,-36.64 669.08,-34.23 669.82,-41.19"/>
</a>
</g>
</g>
<!-- Node6 -->
<g id="Node000006" class="node">
<title>Node6</title>
<g id="a_Node000006"><a xlink:href="class_main_window.html#a7e65ffe1e01feb35cb7da90085d57f04" target="_top" xlink:title=" ">
<polygon fill="white" stroke="#666666" points="464.25,-20 319.25,-20 319.25,0 464.25,0 464.25,-20"/>
<text xml:space="preserve" text-anchor="middle" x="391.75" y="-6.5" font-family="Helvetica,sans-Serif" font-size="10.00">MainWindow::setupAutoSave</text>
</a>
</g>
</g>
<!-- Node1&#45;&gt;Node6 -->
<g id="edge5_Node000001_Node000006" class="edge">
<title>Node1&#45;&gt;Node6</title>
<g id="a_edge5_Node000001_Node000006"><a xlink:title=" ">
<path fill="none" stroke="#63b8ff" d="M669.87,-24.72C608.25,-21.44 524.08,-16.97 464.72,-13.82"/>
<polygon fill="#63b8ff" stroke="#63b8ff" points="669.42,-28.2 679.59,-25.23 669.79,-21.21 669.42,-28.2"/>
</a>
</g>
</g>
<!-- Node3 -->
<g id="Node000003" class="node">
<title>Node3</title>
<g id="a_Node000003"><a xlink:href="class_main_window.html#a2305527bb5d827ae07967ea1c86ee6fb" target="_top" xlink:title=" ">
<polygon fill="white" stroke="#666666" points="463.88,-58 319.62,-58 319.62,-38 463.88,-38 463.88,-58"/>
<text xml:space="preserve" text-anchor="middle" x="391.75" y="-44.5" font-family="Helvetica,sans-Serif" font-size="10.00">MainWindow::createMenuBar</text>
</a>
</g>
</g>
<!-- Node2&#45;&gt;Node3 -->
<g id="edge2_Node000002_Node000003" class="edge">
<title>Node2&#45;&gt;Node3</title>
<g id="a_edge2_Node000002_Node000003"><a xlink:title=" ">
<path fill="none" stroke="#63b8ff" d="M488.56,-48C480.44,-48 472.24,-48 464.25,-48"/>
<polygon fill="#63b8ff" stroke="#63b8ff" points="488.46,-51.5 498.46,-48 488.46,-44.5 488.46,-51.5"/>
</a>
</g>
</g>
<!-- Node4 -->
<g id="Node000004" class="node">
<title>Node4</title>
<g id="a_Node000004"><a xlink:href="class_main_window.html#a3a304253c9e7caeef028f75358bf1fd5" target="_top" xlink:title=" ">
<polygon fill="white" stroke="#666666" points="283.25,-58 170.5,-58 170.5,-38 283.25,-38 283.25,-58"/>
<text xml:space="preserve" text-anchor="middle" x="226.88" y="-44.5" font-family="Helvetica,sans-Serif" font-size="10.00">MainWindow::setupUI</text>
</a>
</g>
</g>
<!-- Node3&#45;&gt;Node4 -->
<g id="edge3_Node000003_Node000004" class="edge">
<title>Node3&#45;&gt;Node4</title>
<g id="a_edge3_Node000003_Node000004"><a xlink:title=" ">
<path fill="none" stroke="#63b8ff" d="M308.04,-48C299.76,-48 291.49,-48 283.59,-48"/>
<polygon fill="#63b8ff" stroke="#63b8ff" points="307.8,-51.5 317.8,-48 307.8,-44.5 307.8,-51.5"/>
</a>
</g>
</g>
<!-- Node5 -->
<g id="Node000005" class="node">
<title>Node5</title>
<g id="a_Node000005"><a xlink:href="class_main_window.html#a996c5a2b6f77944776856f08ec30858d" target="_top" xlink:title=" ">
<polygon fill="white" stroke="#666666" points="134.5,-39 0,-39 0,-19 134.5,-19 134.5,-39"/>
<text xml:space="preserve" text-anchor="middle" x="67.25" y="-25.5" font-family="Helvetica,sans-Serif" font-size="10.00">MainWindow::MainWindow</text>
</a>
</g>
</g>
<!-- Node4&#45;&gt;Node5 -->
<g id="edge4_Node000004_Node000005" class="edge">
<title>Node4&#45;&gt;Node5</title>
<g id="a_edge4_Node000004_Node000005"><a xlink:title=" ">
<path fill="none" stroke="#63b8ff" d="M159.13,-39.95C151.12,-38.99 142.94,-38 134.94,-37.04"/>
<polygon fill="#63b8ff" stroke="#63b8ff" points="158.45,-43.4 168.8,-41.12 159.29,-36.45 158.45,-43.4"/>
</a>
</g>
</g>
<!-- Node6&#45;&gt;Node5 -->
<g id="edge6_Node000006_Node000005" class="edge">
<title>Node6&#45;&gt;Node5</title>
<g id="a_edge6_Node000006_Node000005"><a xlink:title=" ">
<path fill="none" stroke="#63b8ff" d="M307.55,-14.9C253.83,-18.07 184.86,-22.13 134.78,-25.08"/>
<polygon fill="#63b8ff" stroke="#63b8ff" points="307.49,-18.41 317.27,-14.33 307.08,-11.42 307.49,-18.41"/>
</a>
</g>
</g>
</g>
</svg>
