<?xml version="1.0" encoding="UTF-8" standalone="no"?>
<!DOCTYPE svg PUBLIC "-//W3C//DTD SVG 1.1//EN"
 "http://www.w3.org/Graphics/SVG/1.1/DTD/svg11.dtd">
<!-- Generated by graphviz version 14.1.1 (20251213.1925)
 -->
<!-- Title: ConnectionLine::isValid Pages: 1 -->
<svg width="1336pt" height="242pt"
 viewBox="0.00 0.00 1336.00 242.00" xmlns="http://www.w3.org/2000/svg" xmlns:xlink="http://www.w3.org/1999/xlink">
<g id="graph0" class="graph" transform="scale(1 1) rotate(0) translate(4 238)">
<title>ConnectionLine::isValid</title>
<!-- Node1 -->
<g id="Node000001" class="node">
<title>Node1</title>
<g id="a_Node000001"><a xlink:title=" ">
<polygon fill="#999999" stroke="#666666" points="1327.75,-184 1209.75,-184 1209.75,-164 1327.75,-164 1327.75,-184"/>
<text xml:space="preserve" text-anchor="middle" x="1268.75" y="-170.5" font-family="Helvetica,sans-Serif" font-size="10.00">ConnectionLine::isValid</text>
</a>
</g>
</g>
<!-- Node2 -->
<g id="Node000002" class="node">
<title>Node2</title>
<g id="a_Node000002"><a xlink:href="class_diagram_scene.html#ad46a8dc374895fd670f50f30f2c2acbd" target="_top" xlink:title=" ">
<polygon fill="white" stroke="#666666" points="1173.75,-228 1002.5,-228 1002.5,-208 1173.75,-208 1173.75,-228"/>
<text xml:space="preserve" text-anchor="middle" x="1088.12" y="-214.5" font-family="Helvetica,sans-Serif" font-size="10.00">DiagramScene::finishSelectionRect</text>
</a>
</g>
</g>
<!-- Node1&#45;&gt;Node2 -->
<g id="edge1_Node000001_Node000002" class="edge">
<title>Node1&#45;&gt;Node2</title>
<g id="a_edge1_Node000001_Node000002"><a xlink:title=" ">
<path fill="none" stroke="#63b8ff" d="M1219.08,-187.33C1204.53,-191.21 1188.52,-195.38 1173.75,-199 1161.9,-201.9 1149.08,-204.87 1137.09,-207.57"/>
<polygon fill="#63b8ff" stroke="#63b8ff" points="1219.66,-190.8 1228.41,-184.83 1217.85,-184.04 1219.66,-190.8"/>
</a>
</g>
</g>
<!-- Node4 -->
<g id="Node000004" class="node">
<title>Node4</title>
<g id="a_Node000004"><a xlink:href="class_diagram_scene.html#a355fffd036fbfb751f2d9ada2b9eacf5" target="_top" xlink:title=" ">
<polygon fill="white" stroke="#666666" points="1164,-190 1012.25,-190 1012.25,-158 1164,-158 1164,-190"/>
<text xml:space="preserve" text-anchor="start" x="1020.25" y="-176.5" font-family="Helvetica,sans-Serif" font-size="10.00">DiagramScene::handleAttribute</text>
<text xml:space="preserve" text-anchor="middle" x="1088.12" y="-164.5" font-family="Helvetica,sans-Serif" font-size="10.00">Connection</text>
</a>
</g>
</g>
<!-- Node1&#45;&gt;Node4 -->
<g id="edge3_Node000001_Node000004" class="edge">
<title>Node1&#45;&gt;Node4</title>
<g id="a_edge3_Node000001_Node000004"><a xlink:title=" ">
<path fill="none" stroke="#63b8ff" d="M1197.95,-174C1186.93,-174 1175.49,-174 1164.35,-174"/>
<polygon fill="#63b8ff" stroke="#63b8ff" points="1197.75,-177.5 1207.75,-174 1197.75,-170.5 1197.75,-177.5"/>
</a>
</g>
</g>
<!-- Node9 -->
<g id="Node000009" class="node">
<title>Node9</title>
<g id="a_Node000009"><a xlink:href="class_diagram_scene.html#af24fc3dc11041bb31e4f0627f0a09e75" target="_top" xlink:title=" ">
<polygon fill="white" stroke="#666666" points="1164,-124 1012.25,-124 1012.25,-92 1164,-92 1164,-124"/>
<text xml:space="preserve" text-anchor="start" x="1020.25" y="-110.5" font-family="Helvetica,sans-Serif" font-size="10.00">DiagramScene::handleAttribute</text>
<text xml:space="preserve" text-anchor="middle" x="1088.12" y="-98.5" font-family="Helvetica,sans-Serif" font-size="10.00">Disconnection</text>
</a>
</g>
</g>
<!-- Node1&#45;&gt;Node9 -->
<g id="edge8_Node000001_Node000009" class="edge">
<title>Node1&#45;&gt;Node9</title>
<g id="a_edge8_Node000001_Node000009"><a xlink:title=" ">
<path fill="none" stroke="#63b8ff" d="M1228.84,-159.62C1200.8,-149.26 1162.9,-135.26 1133.65,-124.45"/>
<polygon fill="#63b8ff" stroke="#63b8ff" points="1227.43,-162.83 1238.03,-163.02 1229.86,-156.27 1227.43,-162.83"/>
</a>
</g>
</g>
<!-- Node3 -->
<g id="Node000003" class="node">
<title>Node3</title>
<g id="a_Node000003"><a xlink:href="class_diagram_scene.html#a542ad58dab0f10f2825e0d69deabebe7" target="_top" xlink:title=" ">
<polygon fill="white" stroke="#666666" points="958.25,-234 806.5,-234 806.5,-202 958.25,-202 958.25,-234"/>
<text xml:space="preserve" text-anchor="start" x="814.5" y="-220.5" font-family="Helvetica,sans-Serif" font-size="10.00">DiagramScene::mouseRelease</text>
<text xml:space="preserve" text-anchor="middle" x="882.38" y="-208.5" font-family="Helvetica,sans-Serif" font-size="10.00">Event</text>
</a>
</g>
</g>
<!-- Node2&#45;&gt;Node3 -->
<g id="edge2_Node000002_Node000003" class="edge">
<title>Node2&#45;&gt;Node3</title>
<g id="a_edge2_Node000002_Node000003"><a xlink:title=" ">
<path fill="none" stroke="#63b8ff" d="M990.89,-218C979.99,-218 969,-218 958.43,-218"/>
<polygon fill="#63b8ff" stroke="#63b8ff" points="990.68,-221.5 1000.68,-218 990.68,-214.5 990.68,-221.5"/>
</a>
</g>
</g>
<!-- Node5 -->
<g id="Node000005" class="node">
<title>Node5</title>
<g id="a_Node000005"><a xlink:href="class_diagram_scene.html#a795592348d4dcbd78d984db93c2fbedb" target="_top" xlink:title=" ">
<polygon fill="white" stroke="#666666" points="958.25,-184 806.5,-184 806.5,-164 958.25,-164 958.25,-184"/>
<text xml:space="preserve" text-anchor="middle" x="882.38" y="-170.5" font-family="Helvetica,sans-Serif" font-size="10.00">DiagramScene::addConnection</text>
</a>
</g>
</g>
<!-- Node4&#45;&gt;Node5 -->
<g id="edge4_Node000004_Node000005" class="edge">
<title>Node4&#45;&gt;Node5</title>
<g id="a_edge4_Node000004_Node000005"><a xlink:title=" ">
<path fill="none" stroke="#63b8ff" d="M1000.73,-174C986.76,-174 972.38,-174 958.7,-174"/>
<polygon fill="#63b8ff" stroke="#63b8ff" points="1000.32,-177.5 1010.32,-174 1000.32,-170.5 1000.32,-177.5"/>
</a>
</g>
</g>
<!-- Node6 -->
<g id="Node000006" class="node">
<title>Node6</title>
<g id="a_Node000006"><a xlink:href="class_diagram_scene.html#a8a3265678249b08f424e17fbfa8d0de5" target="_top" xlink:title=" ">
<polygon fill="white" stroke="#666666" points="757.75,-222 598.5,-222 598.5,-202 757.75,-202 757.75,-222"/>
<text xml:space="preserve" text-anchor="middle" x="678.12" y="-208.5" font-family="Helvetica,sans-Serif" font-size="10.00">DiagramScene::finishConnection</text>
</a>
</g>
</g>
<!-- Node5&#45;&gt;Node6 -->
<g id="edge5_Node000005_Node000006" class="edge">
<title>Node5&#45;&gt;Node6</title>
<g id="a_edge5_Node000005_Node000006"><a xlink:title=" ">
<path fill="none" stroke="#63b8ff" d="M814.36,-186.59C788.54,-191.44 759.37,-196.92 734.74,-201.55"/>
<polygon fill="#63b8ff" stroke="#63b8ff" points="814.9,-190.05 824.09,-184.76 813.61,-183.17 814.9,-190.05"/>
</a>
</g>
</g>
<!-- Node7 -->
<g id="Node000007" class="node">
<title>Node7</title>
<g id="a_Node000007"><a xlink:href="class_diagram_scene.html#a61e7061e5add947d09ad87feaf2b8dc1" target="_top" xlink:title=" ">
<polygon fill="white" stroke="#666666" points="558,-184 383.75,-184 383.75,-164 558,-164 558,-184"/>
<text xml:space="preserve" text-anchor="middle" x="470.88" y="-170.5" font-family="Helvetica,sans-Serif" font-size="10.00">DiagramScene::pasteFromClipboard</text>
</a>
</g>
</g>
<!-- Node5&#45;&gt;Node7 -->
<g id="edge6_Node000005_Node000007" class="edge">
<title>Node5&#45;&gt;Node7</title>
<g id="a_edge6_Node000005_Node000007"><a xlink:title=" ">
<path fill="none" stroke="#63b8ff" d="M794.9,-174C725.25,-174 627.82,-174 558.21,-174"/>
<polygon fill="#63b8ff" stroke="#63b8ff" points="794.75,-177.5 804.75,-174 794.75,-170.5 794.75,-177.5"/>
</a>
</g>
</g>
<!-- Node8 -->
<g id="Node000008" class="node">
<title>Node8</title>
<g id="a_Node000008"><a xlink:href="class_diagram_scene.html#a074e1181353b257a18ea2d243b459a47" target="_top" xlink:title=" ">
<polygon fill="white" stroke="#666666" points="155.12,-165 1.88,-165 1.88,-145 155.12,-145 155.12,-165"/>
<text xml:space="preserve" text-anchor="middle" x="78.5" y="-151.5" font-family="Helvetica,sans-Serif" font-size="10.00">DiagramScene::keyPressEvent</text>
</a>
</g>
</g>
<!-- Node7&#45;&gt;Node8 -->
<g id="edge7_Node000007_Node000008" class="edge">
<title>Node7&#45;&gt;Node8</title>
<g id="a_edge7_Node000007_Node000008"><a xlink:title=" ">
<path fill="none" stroke="#63b8ff" d="M372.3,-169.25C305.22,-165.99 217.43,-161.71 155.54,-158.7"/>
<polygon fill="#63b8ff" stroke="#63b8ff" points="372.05,-172.74 382.21,-169.73 372.39,-165.75 372.05,-172.74"/>
</a>
</g>
</g>
<!-- Node10 -->
<g id="Node000010" class="node">
<title>Node10</title>
<g id="a_Node000010"><a xlink:href="class_diagram_scene.html#a5d546daf9d3a3d5155b611ec31c4dccb" target="_top" xlink:title=" ">
<polygon fill="white" stroke="#666666" points="966.5,-102 798.25,-102 798.25,-82 966.5,-82 966.5,-102"/>
<text xml:space="preserve" text-anchor="middle" x="882.38" y="-88.5" font-family="Helvetica,sans-Serif" font-size="10.00">DiagramScene::removeConnection</text>
</a>
</g>
</g>
<!-- Node9&#45;&gt;Node10 -->
<g id="edge9_Node000009_Node000010" class="edge">
<title>Node9&#45;&gt;Node10</title>
<g id="a_edge9_Node000009_Node000010"><a xlink:title=" ">
<path fill="none" stroke="#63b8ff" d="M1000.39,-101.19C989.3,-100.32 977.97,-99.43 966.93,-98.56"/>
<polygon fill="#63b8ff" stroke="#63b8ff" points="1000.08,-104.68 1010.33,-101.97 1000.63,-97.7 1000.08,-104.68"/>
</a>
</g>
</g>
<!-- Node11 -->
<g id="Node000011" class="node">
<title>Node11</title>
<g id="a_Node000011"><a xlink:href="class_diagram_scene.html#a0c02f289dea7872eae24bb2c0f91d5ea" target="_top" xlink:title=" ">
<polygon fill="white" stroke="#666666" points="342.5,-61 198.25,-61 198.25,-41 342.5,-41 342.5,-61"/>
<text xml:space="preserve" text-anchor="middle" x="270.38" y="-47.5" font-family="Helvetica,sans-Serif" font-size="10.00">DiagramScene::clearDiagram</text>
</a>
</g>
</g>
<!-- Node10&#45;&gt;Node11 -->
<g id="edge10_Node000010_Node000011" class="edge">
<title>Node10&#45;&gt;Node11</title>
<g id="a_edge10_Node000010_Node000011"><a xlink:title=" ">
<path fill="none" stroke="#63b8ff" d="M829.2,-78.99C808.49,-74.37 784.38,-69.66 762.25,-67 613.89,-49.15 438.61,-48.24 342.8,-49.44"/>
<polygon fill="#63b8ff" stroke="#63b8ff" points="828.32,-82.38 838.85,-81.2 829.88,-75.56 828.32,-82.38"/>
</a>
</g>
</g>
<!-- Node13 -->
<g id="Node000013" class="node">
<title>Node13</title>
<g id="a_Node000013"><a xlink:href="class_diagram_scene.html#a03a8b712a0872e8f6290c059de956505" target="_top" xlink:title=" ">
<polygon fill="white" stroke="#666666" points="345.88,-146 194.88,-146 194.88,-126 345.88,-126 345.88,-146"/>
<text xml:space="preserve" text-anchor="middle" x="270.38" y="-132.5" font-family="Helvetica,sans-Serif" font-size="10.00">DiagramScene::deleteSelected</text>
</a>
</g>
</g>
<!-- Node10&#45;&gt;Node13 -->
<g id="edge12_Node000010_Node000013" class="edge">
<title>Node10&#45;&gt;Node13</title>
<g id="a_edge12_Node000010_Node000013"><a xlink:title=" ">
<path fill="none" stroke="#63b8ff" d="M828.94,-104.99C808.29,-109.58 784.28,-114.28 762.25,-117 615.61,-135.1 442.63,-137.4 346.12,-137"/>
<polygon fill="#63b8ff" stroke="#63b8ff" points="829.59,-108.43 838.56,-102.8 828.04,-101.61 829.59,-108.43"/>
</a>
</g>
</g>
<!-- Node14 -->
<g id="Node000014" class="node">
<title>Node14</title>
<g id="a_Node000014"><a xlink:href="class_diagram_scene.html#abfda0a4eecbce90cc6c7e7462259d199" target="_top" xlink:title=" ">
<polygon fill="white" stroke="#666666" points="762.25,-20 594,-20 594,0 762.25,0 762.25,-20"/>
<text xml:space="preserve" text-anchor="middle" x="678.12" y="-6.5" font-family="Helvetica,sans-Serif" font-size="10.00">DiagramScene::removeConnection</text>
</a>
</g>
</g>
<!-- Node10&#45;&gt;Node14 -->
<g id="edge14_Node000010_Node000014" class="edge">
<title>Node10&#45;&gt;Node14</title>
<g id="a_edge14_Node000010_Node000014"><a xlink:title=" ">
<path fill="none" stroke="#63b8ff" d="M852.35,-76.12C828.6,-63.56 793.9,-46.17 762.25,-34 748.93,-28.88 734.05,-24.25 720.6,-20.46"/>
<polygon fill="#63b8ff" stroke="#63b8ff" points="850.63,-79.17 861.1,-80.8 853.93,-73 850.63,-79.17"/>
</a>
</g>
</g>
<!-- Node15 -->
<g id="Node000015" class="node">
<title>Node15</title>
<g id="a_Node000015"><a xlink:href="class_diagram_scene.html#a0d026405c431d3aca9494d64296bb956" target="_top" xlink:title=" ">
<polygon fill="white" stroke="#666666" points="755.5,-108 600.75,-108 600.75,-76 755.5,-76 755.5,-108"/>
<text xml:space="preserve" text-anchor="start" x="608.75" y="-94.5" font-family="Helvetica,sans-Serif" font-size="10.00">DiagramScene::removeElement</text>
<text xml:space="preserve" text-anchor="middle" x="678.12" y="-82.5" font-family="Helvetica,sans-Serif" font-size="10.00">Connections</text>
</a>
</g>
</g>
<!-- Node10&#45;&gt;Node15 -->
<g id="edge15_Node000010_Node000015" class="edge">
<title>Node10&#45;&gt;Node15</title>
<g id="a_edge15_Node000010_Node000015"><a xlink:title=" ">
<path fill="none" stroke="#63b8ff" d="M786.44,-92C776.19,-92 765.87,-92 755.88,-92"/>
<polygon fill="#63b8ff" stroke="#63b8ff" points="786.43,-95.5 796.43,-92 786.43,-88.5 786.43,-95.5"/>
</a>
</g>
</g>
<!-- Node12 -->
<g id="Node000012" class="node">
<title>Node12</title>
<g id="a_Node000012"><a xlink:href="class_diagram_scene.html#a189b7f9e32b70c751124cffce8d63c8c" target="_top" xlink:title=" ">
<polygon fill="white" stroke="#666666" points="157,-61 0,-61 0,-41 157,-41 157,-61"/>
<text xml:space="preserve" text-anchor="middle" x="78.5" y="-47.5" font-family="Helvetica,sans-Serif" font-size="10.00">DiagramScene::~DiagramScene</text>
</a>
</g>
</g>
<!-- Node11&#45;&gt;Node12 -->
<g id="edge11_Node000011_Node000012" class="edge">
<title>Node11&#45;&gt;Node12</title>
<g id="a_edge11_Node000011_Node000012"><a xlink:title=" ">
<path fill="none" stroke="#63b8ff" d="M186.56,-51C176.84,-51 166.95,-51 157.3,-51"/>
<polygon fill="#63b8ff" stroke="#63b8ff" points="186.35,-54.5 196.35,-51 186.35,-47.5 186.35,-54.5"/>
</a>
</g>
</g>
<!-- Node13&#45;&gt;Node8 -->
<g id="edge13_Node000013_Node000008" class="edge">
<title>Node13&#45;&gt;Node8</title>
<g id="a_edge13_Node000013_Node000008"><a xlink:title=" ">
<path fill="none" stroke="#63b8ff" d="M183.34,-144.61C174.04,-145.54 164.62,-146.48 155.45,-147.4"/>
<polygon fill="#63b8ff" stroke="#63b8ff" points="183.5,-148.11 193.1,-143.63 182.8,-141.15 183.5,-148.11"/>
</a>
</g>
</g>
<!-- Node16 -->
<g id="Node000016" class="node">
<title>Node16</title>
<g id="a_Node000016"><a xlink:href="class_diagram_scene.html#ae531fa5ccfc6393d5a60f956a652118d" target="_top" xlink:title=" ">
<polygon fill="white" stroke="#666666" points="548.25,-102 393.5,-102 393.5,-82 548.25,-82 548.25,-102"/>
<text xml:space="preserve" text-anchor="middle" x="470.88" y="-88.5" font-family="Helvetica,sans-Serif" font-size="10.00">DiagramScene::removeElement</text>
</a>
</g>
</g>
<!-- Node15&#45;&gt;Node16 -->
<g id="edge16_Node000015_Node000016" class="edge">
<title>Node15&#45;&gt;Node16</title>
<g id="a_edge16_Node000015_Node000016"><a xlink:title=" ">
<path fill="none" stroke="#63b8ff" d="M589.15,-92C575.62,-92 561.75,-92 548.5,-92"/>
<polygon fill="#63b8ff" stroke="#63b8ff" points="588.89,-95.5 598.89,-92 588.89,-88.5 588.89,-95.5"/>
</a>
</g>
</g>
<!-- Node16&#45;&gt;Node11 -->
<g id="edge17_Node000016_Node000011" class="edge">
<title>Node16&#45;&gt;Node11</title>
<g id="a_edge17_Node000016_Node000011"><a xlink:title=" ">
<path fill="none" stroke="#63b8ff" d="M408.11,-79.24C380.4,-73.52 348.12,-66.85 321.89,-61.43"/>
<polygon fill="#63b8ff" stroke="#63b8ff" points="407.29,-82.65 417.79,-81.24 408.7,-75.79 407.29,-82.65"/>
</a>
</g>
</g>
<!-- Node16&#45;&gt;Node13 -->
<g id="edge18_Node000016_Node000013" class="edge">
<title>Node16&#45;&gt;Node13</title>
<g id="a_edge18_Node000016_Node000013"><a xlink:title=" ">
<path fill="none" stroke="#63b8ff" d="M411.56,-104.93C381.97,-111.48 346.51,-119.35 318.65,-125.52"/>
<polygon fill="#63b8ff" stroke="#63b8ff" points="412.1,-108.39 421.1,-102.81 410.58,-101.56 412.1,-108.39"/>
</a>
</g>
</g>
<!-- Node17 -->
<g id="Node000017" class="node">
<title>Node17</title>
<g id="a_Node000017"><a xlink:href="class_diagram_scene.html#affc06437d827ac64a996cd13690a49c6" target="_top" xlink:title=" ">
<polygon fill="white" stroke="#666666" points="347.75,-102 193,-102 193,-82 347.75,-82 347.75,-102"/>
<text xml:space="preserve" text-anchor="middle" x="270.38" y="-88.5" font-family="Helvetica,sans-Serif" font-size="10.00">DiagramScene::removeElement</text>
</a>
</g>
</g>
<!-- Node16&#45;&gt;Node17 -->
<g id="edge19_Node000016_Node000017" class="edge">
<title>Node16&#45;&gt;Node17</title>
<g id="a_edge19_Node000016_Node000017"><a xlink:title=" ">
<path fill="none" stroke="#63b8ff" d="M381.62,-92C370.49,-92 359.18,-92 348.24,-92"/>
<polygon fill="#63b8ff" stroke="#63b8ff" points="381.62,-95.5 391.62,-92 381.62,-88.5 381.62,-95.5"/>
</a>
</g>
</g>
</g>
</svg>
