<?xml version="1.0" encoding="UTF-8" standalone="no"?>
<!DOCTYPE svg PUBLIC "-//W3C//DTD SVG 1.1//EN"
 "http://www.w3.org/Graphics/SVG/1.1/DTD/svg11.dtd">
<!-- Generated by graphviz version 14.1.1 (20251213.1925)
 -->
<!-- Title: ElementGraphicsItem::hoverEnterEvent Pages: 1 -->
<svg width="801pt" height="90pt"
 viewBox="0.00 0.00 801.00 90.00" xmlns="http://www.w3.org/2000/svg" xmlns:xlink="http://www.w3.org/1999/xlink">
<g id="graph0" class="graph" transform="scale(1 1) rotate(0) translate(4 86)">
<title>ElementGraphicsItem::hoverEnterEvent</title>
<!-- Node1 -->
<g id="Node000001" class="node">
<title>Node1</title>
<g id="a_Node000001"><a xlink:title=" ">
<polygon fill="#999999" stroke="#666666" points="110.5,-57 0,-57 0,-25 110.5,-25 110.5,-57"/>
<text xml:space="preserve" text-anchor="start" x="8" y="-43.5" font-family="Helvetica,sans-Serif" font-size="10.00">ElementGraphicsItem</text>
<text xml:space="preserve" text-anchor="middle" x="55.25" y="-31.5" font-family="Helvetica,sans-Serif" font-size="10.00">::hoverEnterEvent</text>
</a>
</g>
</g>
<!-- Node2 -->
<g id="Node000002" class="node">
<title>Node2</title>
<g id="a_Node000002"><a xlink:href="class_element_graphics_item.html#a86d44e191aadfab004d569382d8ee7bd" target="_top" xlink:title=" ">
<polygon fill="white" stroke="#666666" points="297.5,-82 155.5,-82 155.5,-50 297.5,-50 297.5,-82"/>
<text xml:space="preserve" text-anchor="start" x="163.5" y="-68.5" font-family="Helvetica,sans-Serif" font-size="10.00">ElementGraphicsItem</text>
<text xml:space="preserve" text-anchor="middle" x="226.5" y="-56.5" font-family="Helvetica,sans-Serif" font-size="10.00">::setConnectionPointsVisible</text>
</a>
</g>
</g>
<!-- Node1&#45;&gt;Node2 -->
<g id="edge1_Node000001_Node000002" class="edge">
<title>Node1&#45;&gt;Node2</title>
<g id="a_edge1_Node000001_Node000002"><a xlink:title=" ">
<path fill="none" stroke="#63b8ff" d="M110.73,-49.05C121.31,-50.61 132.62,-52.28 143.85,-53.94"/>
<polygon fill="#63b8ff" stroke="#63b8ff" points="143.13,-57.37 153.54,-55.37 144.16,-50.45 143.13,-57.37"/>
</a>
</g>
</g>
<!-- Node3 -->
<g id="Node000003" class="node">
<title>Node3</title>
<g id="a_Node000003"><a xlink:href="class_element_graphics_item.html#acccf7d3285160c3f826d7b407c51ebc9" target="_top" xlink:title=" ">
<polygon fill="white" stroke="#666666" points="306.5,-32 146.5,-32 146.5,0 306.5,0 306.5,-32"/>
<text xml:space="preserve" text-anchor="start" x="154.5" y="-18.5" font-family="Helvetica,sans-Serif" font-size="10.00">ElementGraphicsItem</text>
<text xml:space="preserve" text-anchor="middle" x="226.5" y="-6.5" font-family="Helvetica,sans-Serif" font-size="10.00">::updateHoveredConnectionPoint</text>
</a>
</g>
</g>
<!-- Node1&#45;&gt;Node3 -->
<g id="edge2_Node000001_Node000003" class="edge">
<title>Node1&#45;&gt;Node3</title>
<g id="a_edge2_Node000001_Node000003"><a xlink:title=" ">
<path fill="none" stroke="#63b8ff" d="M110.73,-32.95C118.51,-31.8 126.67,-30.6 134.91,-29.38"/>
<polygon fill="#63b8ff" stroke="#63b8ff" points="135.28,-32.86 144.66,-27.94 134.26,-25.94 135.28,-32.86"/>
</a>
</g>
</g>
<!-- Node4 -->
<g id="Node000004" class="node">
<title>Node4</title>
<g id="a_Node000004"><a xlink:href="class_element_graphics_item.html#a778f08249305dd4301855fefea15ce81" target="_top" xlink:title=" ">
<polygon fill="white" stroke="#666666" points="462,-32 342.5,-32 342.5,0 462,0 462,-32"/>
<text xml:space="preserve" text-anchor="start" x="350.5" y="-18.5" font-family="Helvetica,sans-Serif" font-size="10.00">ElementGraphicsItem</text>
<text xml:space="preserve" text-anchor="middle" x="402.25" y="-6.5" font-family="Helvetica,sans-Serif" font-size="10.00">::findConnectionPointAt</text>
</a>
</g>
</g>
<!-- Node3&#45;&gt;Node4 -->
<g id="edge3_Node000003_Node000004" class="edge">
<title>Node3&#45;&gt;Node4</title>
<g id="a_edge3_Node000003_Node000004"><a xlink:title=" ">
<path fill="none" stroke="#63b8ff" d="M306.75,-16C314.75,-16 322.83,-16 330.73,-16"/>
<polygon fill="#63b8ff" stroke="#63b8ff" points="330.62,-19.5 340.62,-16 330.62,-12.5 330.62,-19.5"/>
</a>
</g>
</g>
<!-- Node5 -->
<g id="Node000005" class="node">
<title>Node5</title>
<g id="a_Node000005"><a xlink:href="class_element_graphics_item.html#aba16bb9e988fba3ef75a81587c6e75db" target="_top" xlink:title=" ">
<polygon fill="white" stroke="#666666" points="626.5,-32 498,-32 498,0 626.5,0 626.5,-32"/>
<text xml:space="preserve" text-anchor="start" x="506" y="-18.5" font-family="Helvetica,sans-Serif" font-size="10.00">ElementGraphicsItem</text>
<text xml:space="preserve" text-anchor="middle" x="562.25" y="-6.5" font-family="Helvetica,sans-Serif" font-size="10.00">::getConnectionPointRect</text>
</a>
</g>
</g>
<!-- Node4&#45;&gt;Node5 -->
<g id="edge4_Node000004_Node000005" class="edge">
<title>Node4&#45;&gt;Node5</title>
<g id="a_edge4_Node000004_Node000005"><a xlink:title=" ">
<path fill="none" stroke="#63b8ff" d="M462.08,-16C469.96,-16 478.11,-16 486.22,-16"/>
<polygon fill="#63b8ff" stroke="#63b8ff" points="486.08,-19.5 496.08,-16 486.08,-12.5 486.08,-19.5"/>
</a>
</g>
</g>
<!-- Node6 -->
<g id="Node000006" class="node">
<title>Node6</title>
<g id="a_Node000006"><a xlink:href="class_connection_point.html#a6bf5d1a8e9fbea5999a77aeb0f5ada2a" target="_top" xlink:title=" ">
<polygon fill="white" stroke="#666666" points="793.25,-32 662.5,-32 662.5,0 793.25,0 793.25,-32"/>
<text xml:space="preserve" text-anchor="start" x="670.5" y="-18.5" font-family="Helvetica,sans-Serif" font-size="10.00">ConnectionPoint::absolute</text>
<text xml:space="preserve" text-anchor="middle" x="727.88" y="-6.5" font-family="Helvetica,sans-Serif" font-size="10.00">Position</text>
</a>
</g>
</g>
<!-- Node5&#45;&gt;Node6 -->
<g id="edge5_Node000005_Node000006" class="edge">
<title>Node5&#45;&gt;Node6</title>
<g id="a_edge5_Node000005_Node000006"><a xlink:title=" ">
<path fill="none" stroke="#63b8ff" d="M626.98,-16C634.85,-16 642.95,-16 650.98,-16"/>
<polygon fill="#63b8ff" stroke="#63b8ff" points="650.73,-19.5 660.73,-16 650.73,-12.5 650.73,-19.5"/>
</a>
</g>
</g>
</g>
</svg>
