<?xml version="1.0" encoding="UTF-8" standalone="no"?>
<!DOCTYPE svg PUBLIC "-//W3C//DTD SVG 1.1//EN"
 "http://www.w3.org/Graphics/SVG/1.1/DTD/svg11.dtd">
<!-- Generated by graphviz version 14.1.1 (20251213.1925)
 -->
<!-- Title: PropertyCommand::setElementProperty Pages: 1 -->
<svg width="677pt" height="242pt"
 viewBox="0.00 0.00 677.00 242.00" xmlns="http://www.w3.org/2000/svg" xmlns:xlink="http://www.w3.org/1999/xlink">
<g id="graph0" class="graph" transform="scale(1 1) rotate(0) translate(4 238)">
<title>PropertyCommand::setElementProperty</title>
<!-- Node1 -->
<g id="Node000001" class="node">
<title>Node1</title>
<g id="a_Node000001"><a xlink:title=" ">
<polygon fill="#999999" stroke="#666666" points="153.25,-133 0,-133 0,-101 153.25,-101 153.25,-133"/>
<text xml:space="preserve" text-anchor="start" x="8" y="-119.5" font-family="Helvetica,sans-Serif" font-size="10.00">PropertyCommand::setElement</text>
<text xml:space="preserve" text-anchor="middle" x="76.62" y="-107.5" font-family="Helvetica,sans-Serif" font-size="10.00">Property</text>
</a>
</g>
</g>
<!-- Node2 -->
<g id="Node000002" class="node">
<title>Node2</title>
<g id="a_Node000002"><a xlink:href="class_attribute_type.html#a0c008ef0bb87b45ae0062601e13f3bcd" target="_top" xlink:title=" ">
<polygon fill="white" stroke="#666666" points="315.5,-234 200.5,-234 200.5,-202 315.5,-202 315.5,-234"/>
<text xml:space="preserve" text-anchor="start" x="208.5" y="-220.5" font-family="Helvetica,sans-Serif" font-size="10.00">AttributeType::attribute</text>
<text xml:space="preserve" text-anchor="middle" x="258" y="-208.5" font-family="Helvetica,sans-Serif" font-size="10.00">TypeFromString</text>
</a>
</g>
</g>
<!-- Node1&#45;&gt;Node2 -->
<g id="edge1_Node000001_Node000002" class="edge">
<title>Node1&#45;&gt;Node2</title>
<g id="a_edge1_Node000001_Node000002"><a xlink:title=" ">
<path fill="none" stroke="#63b8ff" d="M98.47,-133.49C120.19,-150.11 155.69,-175.72 189.25,-193 191.93,-194.38 194.7,-195.72 197.52,-197.02"/>
<polygon fill="#63b8ff" stroke="#63b8ff" points="195.95,-200.15 206.51,-200.91 198.73,-193.72 195.95,-200.15"/>
</a>
</g>
</g>
<!-- Node3 -->
<g id="Node000003" class="node">
<title>Node3</title>
<g id="a_Node000003"><a xlink:href="class_basic_element.html#a42ea6812e7627bb99af54cab547aa803" target="_top" xlink:title=" ">
<polygon fill="white" stroke="#666666" points="319.25,-146 196.75,-146 196.75,-126 319.25,-126 319.25,-146"/>
<text xml:space="preserve" text-anchor="middle" x="258" y="-132.5" font-family="Helvetica,sans-Serif" font-size="10.00">BasicElement::setName</text>
</a>
</g>
</g>
<!-- Node1&#45;&gt;Node3 -->
<g id="edge2_Node000001_Node000003" class="edge">
<title>Node1&#45;&gt;Node3</title>
<g id="a_edge2_Node000001_Node000003"><a xlink:title=" ">
<path fill="none" stroke="#63b8ff" d="M153.7,-125.06C164.03,-126.15 174.62,-127.27 184.88,-128.36"/>
<polygon fill="#63b8ff" stroke="#63b8ff" points="184.49,-131.84 194.8,-129.41 185.22,-124.88 184.49,-131.84"/>
</a>
</g>
</g>
<!-- Node5 -->
<g id="Node000005" class="node">
<title>Node5</title>
<g id="a_Node000005"><a xlink:href="class_basic_element.html#ab14524060d1b8fbbba753207029c6d7d" target="_top" xlink:title=" ">
<polygon fill="white" stroke="#666666" points="323.75,-184 192.25,-184 192.25,-164 323.75,-164 323.75,-184"/>
<text xml:space="preserve" text-anchor="middle" x="258" y="-170.5" font-family="Helvetica,sans-Serif" font-size="10.00">BasicElement::setPosition</text>
</a>
</g>
</g>
<!-- Node1&#45;&gt;Node5 -->
<g id="edge4_Node000001_Node000005" class="edge">
<title>Node1&#45;&gt;Node5</title>
<g id="a_edge4_Node000001_Node000005"><a xlink:title=" ">
<path fill="none" stroke="#63b8ff" d="M124.15,-133.47C144.11,-140.37 167.74,-148.33 189.25,-155 195.08,-156.81 201.22,-158.64 207.33,-160.41"/>
<polygon fill="#63b8ff" stroke="#63b8ff" points="206.17,-163.72 216.74,-163.1 208.09,-156.98 206.17,-163.72"/>
</a>
</g>
</g>
<!-- Node8 -->
<g id="Node000008" class="node">
<title>Node8</title>
<g id="a_Node000008"><a xlink:href="class_basic_element.html#ab86c964c6ef9e8d7299efc263a0837e7" target="_top" xlink:title=" ">
<polygon fill="white" stroke="#666666" points="315.88,-108 200.12,-108 200.12,-88 315.88,-88 315.88,-108"/>
<text xml:space="preserve" text-anchor="middle" x="258" y="-94.5" font-family="Helvetica,sans-Serif" font-size="10.00">BasicElement::setSize</text>
</a>
</g>
</g>
<!-- Node1&#45;&gt;Node8 -->
<g id="edge7_Node000001_Node000008" class="edge">
<title>Node1&#45;&gt;Node8</title>
<g id="a_edge7_Node000001_Node000008"><a xlink:title=" ">
<path fill="none" stroke="#63b8ff" d="M153.7,-108.94C165.3,-107.71 177.21,-106.45 188.63,-105.24"/>
<polygon fill="#63b8ff" stroke="#63b8ff" points="188.78,-108.75 198.36,-104.21 188.05,-101.78 188.78,-108.75"/>
</a>
</g>
</g>
<!-- Node10 -->
<g id="Node000010" class="node">
<title>Node10</title>
<g id="a_Node000010"><a xlink:href="class_basic_element.html#a542adbf85a58c5c9bf17975964d7e446" target="_top" xlink:title=" ">
<polygon fill="white" stroke="#666666" points="490.88,-70 390.12,-70 390.12,-50 490.88,-50 490.88,-70"/>
<text xml:space="preserve" text-anchor="middle" x="440.5" y="-56.5" font-family="Helvetica,sans-Serif" font-size="10.00">BasicElement::size</text>
</a>
</g>
</g>
<!-- Node1&#45;&gt;Node10 -->
<g id="edge11_Node000001_Node000010" class="edge">
<title>Node1&#45;&gt;Node10</title>
<g id="a_edge11_Node000001_Node000010"><a xlink:title=" ">
<path fill="none" stroke="#63b8ff" d="M117.77,-100.59C138.72,-92.73 164.98,-83.97 189.25,-79 253.01,-65.95 327.56,-61.66 378.6,-60.35"/>
<polygon fill="#63b8ff" stroke="#63b8ff" points="378.65,-63.85 388.57,-60.13 378.49,-56.85 378.65,-63.85"/>
</a>
</g>
</g>
<!-- Node11 -->
<g id="Node000011" class="node">
<title>Node11</title>
<g id="a_Node000011"><a xlink:href="class_property_command.html#a3a5e5669d6147733338c64d3d62a7b7f" target="_top" xlink:title=" ">
<polygon fill="white" stroke="#666666" points="326.75,-32 189.25,-32 189.25,0 326.75,0 326.75,-32"/>
<text xml:space="preserve" text-anchor="start" x="197.25" y="-18.5" font-family="Helvetica,sans-Serif" font-size="10.00">PropertyCommand::validate</text>
<text xml:space="preserve" text-anchor="middle" x="258" y="-6.5" font-family="Helvetica,sans-Serif" font-size="10.00">Property</text>
</a>
</g>
</g>
<!-- Node1&#45;&gt;Node11 -->
<g id="edge12_Node000001_Node000011" class="edge">
<title>Node1&#45;&gt;Node11</title>
<g id="a_edge12_Node000001_Node000011"><a xlink:title=" ">
<path fill="none" stroke="#63b8ff" d="M100.96,-100.71C123.12,-85.58 157.67,-62.92 189.25,-46 194.92,-42.97 200.95,-39.97 207,-37.12"/>
<polygon fill="#63b8ff" stroke="#63b8ff" points="208.11,-40.46 215.74,-33.1 205.19,-34.1 208.11,-40.46"/>
</a>
</g>
</g>
<!-- Node4 -->
<g id="Node000004" class="node">
<title>Node4</title>
<g id="a_Node000004"><a xlink:href="class_basic_element.html#a596caee40cdd00a0aacce49689b63f92" target="_top" xlink:title=" ">
<polygon fill="white" stroke="#666666" points="516.38,-146 364.62,-146 364.62,-126 516.38,-126 516.38,-146"/>
<text xml:space="preserve" text-anchor="middle" x="440.5" y="-132.5" font-family="Helvetica,sans-Serif" font-size="10.00">BasicElement::notifyObservers</text>
</a>
</g>
</g>
<!-- Node3&#45;&gt;Node4 -->
<g id="edge3_Node000003_Node000004" class="edge">
<title>Node3&#45;&gt;Node4</title>
<g id="a_edge3_Node000003_Node000004"><a xlink:title=" ">
<path fill="none" stroke="#63b8ff" d="M319.61,-136C330.36,-136 341.75,-136 353.05,-136"/>
<polygon fill="#63b8ff" stroke="#63b8ff" points="352.79,-139.5 362.79,-136 352.79,-132.5 352.79,-139.5"/>
</a>
</g>
</g>
<!-- Node6 -->
<g id="Node000006" class="node">
<title>Node6</title>
<g id="a_Node000006"><a xlink:href="class_basic_element.html#a84f8dd62eabbe3dded6bacf42a783856" target="_top" xlink:title=" ">
<polygon fill="white" stroke="#666666" points="511.5,-234 369.5,-234 369.5,-202 511.5,-202 511.5,-234"/>
<text xml:space="preserve" text-anchor="start" x="377.5" y="-220.5" font-family="Helvetica,sans-Serif" font-size="10.00">BasicElement::notifyPosition</text>
<text xml:space="preserve" text-anchor="middle" x="440.5" y="-208.5" font-family="Helvetica,sans-Serif" font-size="10.00">Changed</text>
</a>
</g>
</g>
<!-- Node5&#45;&gt;Node6 -->
<g id="edge5_Node000005_Node000006" class="edge">
<title>Node5&#45;&gt;Node6</title>
<g id="a_edge5_Node000005_Node000006"><a xlink:title=" ">
<path fill="none" stroke="#63b8ff" d="M301.78,-184.43C319.46,-188.74 340.53,-193.88 360.82,-198.82"/>
<polygon fill="#63b8ff" stroke="#63b8ff" points="359.97,-202.21 370.51,-201.18 361.62,-195.41 359.97,-202.21"/>
</a>
</g>
</g>
<!-- Node7 -->
<g id="Node000007" class="node">
<title>Node7</title>
<g id="a_Node000007"><a xlink:href="class_basic_element.html#a02183bafd7c80f9f1f99a9b9f1631524" target="_top" xlink:title=" ">
<polygon fill="white" stroke="#666666" points="518.25,-184 362.75,-184 362.75,-164 518.25,-164 518.25,-184"/>
<text xml:space="preserve" text-anchor="middle" x="440.5" y="-170.5" font-family="Helvetica,sans-Serif" font-size="10.00">BasicElement::positionChanged</text>
</a>
</g>
</g>
<!-- Node5&#45;&gt;Node7 -->
<g id="edge6_Node000005_Node000007" class="edge">
<title>Node5&#45;&gt;Node7</title>
<g id="a_edge6_Node000005_Node000007"><a xlink:title=" ">
<path fill="none" stroke="#63b8ff" d="M324.16,-174C332.9,-174 341.97,-174 351.02,-174"/>
<polygon fill="#63b8ff" stroke="#63b8ff" points="350.93,-177.5 360.93,-174 350.93,-170.5 350.93,-177.5"/>
</a>
</g>
</g>
<!-- Node8&#45;&gt;Node4 -->
<g id="edge9_Node000008_Node000004" class="edge">
<title>Node8&#45;&gt;Node4</title>
<g id="a_edge9_Node000008_Node000004"><a xlink:title=" ">
<path fill="none" stroke="#63b8ff" d="M308.8,-108.48C330.4,-113.03 355.9,-118.4 378.62,-123.18"/>
<polygon fill="#63b8ff" stroke="#63b8ff" points="377.87,-126.6 388.38,-125.24 379.32,-119.75 377.87,-126.6"/>
</a>
</g>
</g>
<!-- Node9 -->
<g id="Node000009" class="node">
<title>Node9</title>
<g id="a_Node000009"><a xlink:href="class_basic_element.html#a2cb2eb803daa35380908948215f8d468" target="_top" xlink:title=" ">
<polygon fill="white" stroke="#666666" points="511.5,-108 369.5,-108 369.5,-88 511.5,-88 511.5,-108"/>
<text xml:space="preserve" text-anchor="middle" x="440.5" y="-94.5" font-family="Helvetica,sans-Serif" font-size="10.00">BasicElement::minimumSize</text>
</a>
</g>
</g>
<!-- Node8&#45;&gt;Node9 -->
<g id="edge8_Node000008_Node000009" class="edge">
<title>Node8&#45;&gt;Node9</title>
<g id="a_edge8_Node000008_Node000009"><a xlink:title=" ">
<path fill="none" stroke="#63b8ff" d="M316.11,-98C329.4,-98 343.79,-98 357.9,-98"/>
<polygon fill="#63b8ff" stroke="#63b8ff" points="357.62,-101.5 367.62,-98 357.62,-94.5 357.62,-101.5"/>
</a>
</g>
</g>
<!-- Node8&#45;&gt;Node10 -->
<g id="edge10_Node000008_Node000010" class="edge">
<title>Node8&#45;&gt;Node10</title>
<g id="a_edge10_Node000008_Node000010"><a xlink:title=" ">
<path fill="none" stroke="#63b8ff" d="M308.8,-87.52C330.4,-82.97 355.9,-77.6 378.62,-72.82"/>
<polygon fill="#63b8ff" stroke="#63b8ff" points="379.32,-76.25 388.38,-70.76 377.87,-69.4 379.32,-76.25"/>
</a>
</g>
</g>
<!-- Node12 -->
<g id="Node000012" class="node">
<title>Node12</title>
<g id="a_Node000012"><a xlink:href="class_attribute_type.html#a1a152dc88508e77a81ec11ebbad6e542" target="_top" xlink:title=" ">
<polygon fill="white" stroke="#666666" points="511.12,-32 369.88,-32 369.88,0 511.12,0 511.12,-32"/>
<text xml:space="preserve" text-anchor="start" x="377.88" y="-18.5" font-family="Helvetica,sans-Serif" font-size="10.00">AttributeType::getAllAttribute</text>
<text xml:space="preserve" text-anchor="middle" x="440.5" y="-6.5" font-family="Helvetica,sans-Serif" font-size="10.00">TypeStrings</text>
</a>
</g>
</g>
<!-- Node11&#45;&gt;Node12 -->
<g id="edge13_Node000011_Node000012" class="edge">
<title>Node11&#45;&gt;Node12</title>
<g id="a_edge13_Node000011_Node000012"><a xlink:title=" ">
<path fill="none" stroke="#63b8ff" d="M327.24,-16C337.43,-16 348.02,-16 358.44,-16"/>
<polygon fill="#63b8ff" stroke="#63b8ff" points="358.15,-19.5 368.15,-16 358.15,-12.5 358.15,-19.5"/>
</a>
</g>
</g>
<!-- Node13 -->
<g id="Node000013" class="node">
<title>Node13</title>
<g id="a_Node000013"><a xlink:href="class_attribute_type.html#a21a507a4aa83205205f315994c7dcb5c" target="_top" xlink:title=" ">
<polygon fill="white" stroke="#666666" points="669.25,-32 554.25,-32 554.25,0 669.25,0 669.25,-32"/>
<text xml:space="preserve" text-anchor="start" x="562.25" y="-18.5" font-family="Helvetica,sans-Serif" font-size="10.00">AttributeType::attribute</text>
<text xml:space="preserve" text-anchor="middle" x="611.75" y="-6.5" font-family="Helvetica,sans-Serif" font-size="10.00">TypeToString</text>
</a>
</g>
</g>
<!-- Node12&#45;&gt;Node13 -->
<g id="edge14_Node000012_Node000013" class="edge">
<title>Node12&#45;&gt;Node13</title>
<g id="a_edge14_Node000012_Node000013"><a xlink:title=" ">
<path fill="none" stroke="#63b8ff" d="M511.32,-16C521.64,-16 532.26,-16 542.55,-16"/>
<polygon fill="#63b8ff" stroke="#63b8ff" points="542.47,-19.5 552.47,-16 542.47,-12.5 542.47,-19.5"/>
</a>
</g>
</g>
</g>
</svg>
