<?xml version="1.0" encoding="UTF-8" standalone="no"?>
<!DOCTYPE svg PUBLIC "-//W3C//DTD SVG 1.1//EN"
 "http://www.w3.org/Graphics/SVG/1.1/DTD/svg11.dtd">
<!-- Generated by graphviz version 14.1.1 (20251213.1925)
 -->
<!-- Title: MainWindow::connectSignals Pages: 1 -->
<svg width="361pt" height="480pt"
 viewBox="0.00 0.00 361.00 480.00" xmlns="http://www.w3.org/2000/svg" xmlns:xlink="http://www.w3.org/1999/xlink">
<g id="graph0" class="graph" transform="scale(1 1) rotate(0) translate(4 476)">
<title>MainWindow::connectSignals</title>
<!-- Node1 -->
<g id="Node000001" class="node">
<title>Node1</title>
<g id="a_Node000001"><a xlink:title=" ">
<polygon fill="#999999" stroke="#666666" points="145,-258 0,-258 0,-238 145,-238 145,-258"/>
<text xml:space="preserve" text-anchor="middle" x="72.5" y="-244.5" font-family="Helvetica,sans-Serif" font-size="10.00">MainWindow::connectSignals</text>
</a>
</g>
</g>
<!-- Node2 -->
<g id="Node000002" class="node">
<title>Node2</title>
<g id="a_Node000002"><a xlink:href="class_properties_panel.html#ac550ef47b11e8355213a77ebb795a3be" target="_top" xlink:title=" ">
<polygon fill="white" stroke="#666666" points="329.75,-472 204.25,-472 204.25,-440 329.75,-440 329.75,-472"/>
<text xml:space="preserve" text-anchor="start" x="212.25" y="-458.5" font-family="Helvetica,sans-Serif" font-size="10.00">PropertiesPanel::diagram</text>
<text xml:space="preserve" text-anchor="middle" x="267" y="-446.5" font-family="Helvetica,sans-Serif" font-size="10.00">Modified</text>
</a>
</g>
</g>
<!-- Node1&#45;&gt;Node2 -->
<g id="edge1_Node000001_Node000002" class="edge">
<title>Node1&#45;&gt;Node2</title>
<g id="a_edge1_Node000001_Node000002"><a xlink:title=" ">
<path fill="none" stroke="#63b8ff" d="M76.48,-258.1C86.11,-288.98 119.43,-382.93 181,-431 184.93,-434.06 189.22,-436.75 193.72,-439.11"/>
<polygon fill="#63b8ff" stroke="#63b8ff" points="191.93,-442.14 202.48,-443.14 194.86,-435.78 191.93,-442.14"/>
</a>
</g>
</g>
<!-- Node3 -->
<g id="Node000003" class="node">
<title>Node3</title>
<g id="a_Node000003"><a xlink:href="class_auto_save_manager.html#ae2c258d4bd9d41f4b3cafd1d0fbf89f6" target="_top" xlink:title=" ">
<polygon fill="white" stroke="#666666" points="336.5,-422 197.5,-422 197.5,-390 336.5,-390 336.5,-422"/>
<text xml:space="preserve" text-anchor="start" x="205.5" y="-408.5" font-family="Helvetica,sans-Serif" font-size="10.00">AutoSaveManager::mainFile</text>
<text xml:space="preserve" text-anchor="middle" x="267" y="-396.5" font-family="Helvetica,sans-Serif" font-size="10.00">Saved</text>
</a>
</g>
</g>
<!-- Node1&#45;&gt;Node3 -->
<g id="edge2_Node000001_Node000003" class="edge">
<title>Node1&#45;&gt;Node3</title>
<g id="a_edge2_Node000001_Node000003"><a xlink:title=" ">
<path fill="none" stroke="#63b8ff" d="M78.97,-258.44C92.65,-283.52 130.87,-347.54 181,-381 182.87,-382.25 184.81,-383.44 186.79,-384.57"/>
<polygon fill="#63b8ff" stroke="#63b8ff" points="185.21,-387.69 195.72,-389.06 188.36,-381.44 185.21,-387.69"/>
</a>
</g>
</g>
<!-- Node4 -->
<g id="Node000004" class="node">
<title>Node4</title>
<g id="a_Node000004"><a xlink:href="class_main_window.html#aaf47b9efe07432c5b5e1695954bee116" target="_top" xlink:title=" ">
<polygon fill="white" stroke="#666666" points="353,-372 181,-372 181,-352 353,-352 353,-372"/>
<text xml:space="preserve" text-anchor="middle" x="267" y="-358.5" font-family="Helvetica,sans-Serif" font-size="10.00">MainWindow::onAutoSaveTriggered</text>
</a>
</g>
</g>
<!-- Node1&#45;&gt;Node4 -->
<g id="edge3_Node000001_Node000004" class="edge">
<title>Node1&#45;&gt;Node4</title>
<g id="a_edge3_Node000001_Node000004"><a xlink:title=" ">
<path fill="none" stroke="#63b8ff" d="M82.05,-258.46C98.83,-278.25 138.18,-321.15 181,-343 184.47,-344.77 188.11,-346.38 191.84,-347.84"/>
<polygon fill="#63b8ff" stroke="#63b8ff" points="190.52,-351.09 201.11,-351.07 192.82,-344.47 190.52,-351.09"/>
</a>
</g>
</g>
<!-- Node5 -->
<g id="Node000005" class="node">
<title>Node5</title>
<g id="a_Node000005"><a xlink:href="class_main_window.html#a44791b85064ecff42c12429c6667e83b" target="_top" xlink:title=" ">
<polygon fill="white" stroke="#666666" points="351.12,-334 182.88,-334 182.88,-314 351.12,-314 351.12,-334"/>
<text xml:space="preserve" text-anchor="middle" x="267" y="-320.5" font-family="Helvetica,sans-Serif" font-size="10.00">MainWindow::onSelectionChanged</text>
</a>
</g>
</g>
<!-- Node1&#45;&gt;Node5 -->
<g id="edge4_Node000001_Node000005" class="edge">
<title>Node1&#45;&gt;Node5</title>
<g id="a_edge4_Node000001_Node000005"><a xlink:title=" ">
<path fill="none" stroke="#63b8ff" d="M89.62,-258.32C110.1,-271.01 146.92,-292.41 181,-305 186.59,-307.06 192.46,-308.94 198.41,-310.64"/>
<polygon fill="#63b8ff" stroke="#63b8ff" points="197.12,-313.92 207.69,-313.12 198.93,-307.16 197.12,-313.92"/>
</a>
</g>
</g>
<!-- Node6 -->
<g id="Node000006" class="node">
<title>Node6</title>
<g id="a_Node000006"><a xlink:href="class_auto_save_manager.html#a3e160b131992a4a23c05feefbb0e2270" target="_top" xlink:title=" ">
<polygon fill="white" stroke="#666666" points="352.25,-296 181.75,-296 181.75,-276 352.25,-276 352.25,-296"/>
<text xml:space="preserve" text-anchor="middle" x="267" y="-282.5" font-family="Helvetica,sans-Serif" font-size="10.00">AutoSaveManager::saveRequested</text>
</a>
</g>
</g>
<!-- Node1&#45;&gt;Node6 -->
<g id="edge5_Node000001_Node000006" class="edge">
<title>Node1&#45;&gt;Node6</title>
<g id="a_edge5_Node000001_Node000006"><a xlink:title=" ">
<path fill="none" stroke="#63b8ff" d="M126.61,-258.48C149.97,-263.09 177.59,-268.55 202.07,-273.38"/>
<polygon fill="#63b8ff" stroke="#63b8ff" points="201.09,-276.75 211.58,-275.26 202.44,-269.89 201.09,-276.75"/>
</a>
</g>
</g>
<!-- Node7 -->
<g id="Node000007" class="node">
<title>Node7</title>
<g id="a_Node000007"><a xlink:href="class_diagram_scene.html#a7dbb09a9acecc803601560e50ad720ea" target="_top" xlink:title=" ">
<polygon fill="white" stroke="#666666" points="349.25,-258 184.75,-258 184.75,-238 349.25,-238 349.25,-258"/>
<text xml:space="preserve" text-anchor="middle" x="267" y="-244.5" font-family="Helvetica,sans-Serif" font-size="10.00">DiagramScene::selectionChanged</text>
</a>
</g>
</g>
<!-- Node1&#45;&gt;Node7 -->
<g id="edge6_Node000001_Node000007" class="edge">
<title>Node1&#45;&gt;Node7</title>
<g id="a_edge6_Node000001_Node000007"><a xlink:title=" ">
<path fill="none" stroke="#63b8ff" d="M145.45,-248C154.49,-248 163.83,-248 173.13,-248"/>
<polygon fill="#63b8ff" stroke="#63b8ff" points="172.91,-251.5 182.91,-248 172.91,-244.5 172.91,-251.5"/>
</a>
</g>
</g>
<!-- Node8 -->
<g id="Node000008" class="node">
<title>Node8</title>
<g id="a_Node000008"><a xlink:href="class_auto_save_manager.html#abab9c7e3bc7b6e74376ffcd639536ddb" target="_top" xlink:title=" ">
<polygon fill="white" stroke="#666666" points="351.5,-220 182.5,-220 182.5,-188 351.5,-188 351.5,-220"/>
<text xml:space="preserve" text-anchor="start" x="190.5" y="-206.5" font-family="Helvetica,sans-Serif" font-size="10.00">AutoSaveManager::statusMessage</text>
<text xml:space="preserve" text-anchor="middle" x="267" y="-194.5" font-family="Helvetica,sans-Serif" font-size="10.00">Requested</text>
</a>
</g>
</g>
<!-- Node1&#45;&gt;Node8 -->
<g id="edge7_Node000001_Node000008" class="edge">
<title>Node1&#45;&gt;Node8</title>
<g id="a_edge7_Node000001_Node000008"><a xlink:title=" ">
<path fill="none" stroke="#63b8ff" d="M119.12,-237.57C138.24,-233.2 161.08,-227.98 182.99,-222.97"/>
<polygon fill="#63b8ff" stroke="#63b8ff" points="183.55,-226.44 192.52,-220.8 181.99,-219.61 183.55,-226.44"/>
</a>
</g>
</g>
<!-- Node9 -->
<g id="Node000009" class="node">
<title>Node9</title>
<g id="a_Node000009"><a xlink:href="class_diagram_file_manager.html#a14323a88d49512b33de80b3f781384ca" target="_top" xlink:title=" ">
<polygon fill="white" stroke="#666666" points="335,-170 199,-170 199,-138 335,-138 335,-170"/>
<text xml:space="preserve" text-anchor="start" x="207" y="-156.5" font-family="Helvetica,sans-Serif" font-size="10.00">DiagramFileManager</text>
<text xml:space="preserve" text-anchor="middle" x="267" y="-144.5" font-family="Helvetica,sans-Serif" font-size="10.00">::statusMessageRequested</text>
</a>
</g>
</g>
<!-- Node1&#45;&gt;Node9 -->
<g id="edge8_Node000001_Node000009" class="edge">
<title>Node1&#45;&gt;Node9</title>
<g id="a_edge8_Node000001_Node000009"><a xlink:title=" ">
<path fill="none" stroke="#63b8ff" d="M87.03,-237.5C106.72,-222.65 144.89,-195.49 181,-179 184.54,-177.39 188.2,-175.85 191.94,-174.38"/>
<polygon fill="#63b8ff" stroke="#63b8ff" points="193,-177.72 201.18,-170.98 190.58,-171.15 193,-177.72"/>
</a>
</g>
</g>
<!-- Node10 -->
<g id="Node000010" class="node">
<title>Node10</title>
<g id="a_Node000010"><a xlink:href="class_properties_panel.html#a060ca6b9ac3fed44c819b0cf52a5d128" target="_top" xlink:title=" ">
<polygon fill="white" stroke="#666666" points="345.88,-120 188.12,-120 188.12,-88 345.88,-88 345.88,-120"/>
<text xml:space="preserve" text-anchor="start" x="196.12" y="-106.5" font-family="Helvetica,sans-Serif" font-size="10.00">PropertiesPanel::statusMessage</text>
<text xml:space="preserve" text-anchor="middle" x="267" y="-94.5" font-family="Helvetica,sans-Serif" font-size="10.00">Requested</text>
</a>
</g>
</g>
<!-- Node1&#45;&gt;Node10 -->
<g id="edge9_Node000001_Node000010" class="edge">
<title>Node1&#45;&gt;Node10</title>
<g id="a_edge9_Node000001_Node000010"><a xlink:title=" ">
<path fill="none" stroke="#63b8ff" d="M79.91,-237.66C94.76,-214.59 133.85,-158.63 181,-129 183.12,-127.67 185.31,-126.41 187.55,-125.21"/>
<polygon fill="#63b8ff" stroke="#63b8ff" points="188.82,-128.48 196.34,-121.02 185.8,-122.17 188.82,-128.48"/>
</a>
</g>
</g>
<!-- Node11 -->
<g id="Node000011" class="node">
<title>Node11</title>
<g id="a_Node000011"><a xlink:href="class_main_window.html#a51ab21a1be4a1389a00bdb35feee8d64" target="_top" xlink:title=" ">
<polygon fill="white" stroke="#666666" points="342.5,-70 191.5,-70 191.5,-50 342.5,-50 342.5,-70"/>
<text xml:space="preserve" text-anchor="middle" x="267" y="-56.5" font-family="Helvetica,sans-Serif" font-size="10.00">MainWindow::updateStatusBar</text>
</a>
</g>
</g>
<!-- Node1&#45;&gt;Node11 -->
<g id="edge10_Node000001_Node000011" class="edge">
<title>Node1&#45;&gt;Node11</title>
<g id="a_edge10_Node000001_Node000011"><a xlink:title=" ">
<path fill="none" stroke="#63b8ff" d="M76.88,-237.66C87.18,-207.8 121.23,-120.96 181,-79 182.93,-77.64 184.95,-76.38 187.03,-75.21"/>
<polygon fill="#63b8ff" stroke="#63b8ff" points="188.29,-78.48 195.79,-70.99 185.26,-72.17 188.29,-78.48"/>
</a>
</g>
</g>
<!-- Node12 -->
<g id="Node000012" class="node">
<title>Node12</title>
<g id="a_Node000012"><a xlink:href="class_main_window.html#a90cfbcf2e0f2549760a60f184ee0acbf" target="_top" xlink:title=" ">
<polygon fill="white" stroke="#666666" points="338.38,-32 195.62,-32 195.62,0 338.38,0 338.38,-32"/>
<text xml:space="preserve" text-anchor="start" x="203.62" y="-18.5" font-family="Helvetica,sans-Serif" font-size="10.00">MainWindow::updateWindow</text>
<text xml:space="preserve" text-anchor="middle" x="267" y="-6.5" font-family="Helvetica,sans-Serif" font-size="10.00">Title</text>
</a>
</g>
</g>
<!-- Node1&#45;&gt;Node12 -->
<g id="edge11_Node000001_Node000012" class="edge">
<title>Node1&#45;&gt;Node12</title>
<g id="a_edge11_Node000001_Node000012"><a xlink:title=" ">
<path fill="none" stroke="#63b8ff" d="M75.83,-237.56C83.93,-203.73 114.11,-96.09 181,-41 182.51,-39.76 184.08,-38.57 185.7,-37.45"/>
<polygon fill="#63b8ff" stroke="#63b8ff" points="187.36,-40.54 194.16,-32.42 183.78,-34.52 187.36,-40.54"/>
</a>
</g>
</g>
</g>
</svg>
