<?xml version="1.0" encoding="UTF-8" standalone="no"?>
<!DOCTYPE svg PUBLIC "-//W3C//DTD SVG 1.1//EN"
 "http://www.w3.org/Graphics/SVG/1.1/DTD/svg11.dtd">
<!-- Generated by graphviz version 14.1.1 (20251213.1925)
 -->
<!-- Title: MainWindow::createCentralWidget Pages: 1 -->
<svg width="923pt" height="373pt"
 viewBox="0.00 0.00 923.00 373.00" xmlns="http://www.w3.org/2000/svg" xmlns:xlink="http://www.w3.org/1999/xlink">
<g id="graph0" class="graph" transform="scale(1 1) rotate(0) translate(4 369)">
<title>MainWindow::createCentralWidget</title>
<!-- Node1 -->
<g id="Node000001" class="node">
<title>Node1</title>
<g id="a_Node000001"><a xlink:title=" ">
<polygon fill="#999999" stroke="#666666" points="136.75,-192 0,-192 0,-160 136.75,-160 136.75,-192"/>
<text xml:space="preserve" text-anchor="start" x="8" y="-178.5" font-family="Helvetica,sans-Serif" font-size="10.00">MainWindow::createCentral</text>
<text xml:space="preserve" text-anchor="middle" x="68.38" y="-166.5" font-family="Helvetica,sans-Serif" font-size="10.00">Widget</text>
</a>
</g>
</g>
<!-- Node2 -->
<g id="Node000002" class="node">
<title>Node2</title>
<g id="a_Node000002"><a xlink:href="class_main_window.html#ac15079a99bc4f9b1a66e1da16bcbd55d" target="_top" xlink:title=" ">
<polygon fill="white" stroke="#666666" points="335,-258 172.75,-258 172.75,-238 335,-238 335,-258"/>
<text xml:space="preserve" text-anchor="middle" x="253.88" y="-244.5" font-family="Helvetica,sans-Serif" font-size="10.00">MainWindow::createDiagramArea</text>
</a>
</g>
</g>
<!-- Node1&#45;&gt;Node2 -->
<g id="edge1_Node000001_Node000002" class="edge">
<title>Node1&#45;&gt;Node2</title>
<g id="a_edge1_Node000001_Node000002"><a xlink:title=" ">
<path fill="none" stroke="#63b8ff" d="M111.01,-192.34C142.47,-204.68 185.26,-221.47 215.6,-233.37"/>
<polygon fill="#63b8ff" stroke="#63b8ff" points="214.17,-236.57 224.76,-236.97 216.73,-230.06 214.17,-236.57"/>
</a>
</g>
</g>
<!-- Node12 -->
<g id="Node000012" class="node">
<title>Node12</title>
<g id="a_Node000012"><a xlink:href="class_main_window.html#a002a373734d320507137dfb74d6b34a6" target="_top" xlink:title=" ">
<polygon fill="white" stroke="#666666" points="328.62,-139 179.12,-139 179.12,-119 328.62,-119 328.62,-139"/>
<text xml:space="preserve" text-anchor="middle" x="253.88" y="-125.5" font-family="Helvetica,sans-Serif" font-size="10.00">MainWindow::createSidePanel</text>
</a>
</g>
</g>
<!-- Node1&#45;&gt;Node12 -->
<g id="edge11_Node000001_Node000012" class="edge">
<title>Node1&#45;&gt;Node12</title>
<g id="a_edge11_Node000001_Node000012"><a xlink:title=" ">
<path fill="none" stroke="#63b8ff" d="M133.55,-159.56C155.63,-153.91 180.06,-147.65 201.03,-142.28"/>
<polygon fill="#63b8ff" stroke="#63b8ff" points="201.68,-145.73 210.5,-139.85 199.94,-138.94 201.68,-145.73"/>
</a>
</g>
</g>
<!-- Node3 -->
<g id="Node000003" class="node">
<title>Node3</title>
<g id="a_Node000003"><a xlink:href="class_diagram_view.html#aff439ca64e209a13a5ca84de4307deb4" target="_top" xlink:title=" ">
<polygon fill="white" stroke="#666666" points="529.12,-258 377.38,-258 377.38,-238 529.12,-238 529.12,-258"/>
<text xml:space="preserve" text-anchor="middle" x="453.25" y="-244.5" font-family="Helvetica,sans-Serif" font-size="10.00">DiagramView::elementDropped</text>
</a>
</g>
</g>
<!-- Node2&#45;&gt;Node3 -->
<g id="edge2_Node000002_Node000003" class="edge">
<title>Node2&#45;&gt;Node3</title>
<g id="a_edge2_Node000002_Node000003"><a xlink:title=" ">
<path fill="none" stroke="#63b8ff" d="M335.44,-248C345.43,-248 355.68,-248 365.75,-248"/>
<polygon fill="#63b8ff" stroke="#63b8ff" points="365.52,-251.5 375.52,-248 365.52,-244.5 365.52,-251.5"/>
</a>
</g>
</g>
<!-- Node4 -->
<g id="Node000004" class="node">
<title>Node4</title>
<g id="a_Node000004"><a xlink:href="class_main_window.html#a880a071072561df84782f84e0321da4e" target="_top" xlink:title=" ">
<polygon fill="white" stroke="#666666" points="534,-296 372.5,-296 372.5,-276 534,-276 534,-296"/>
<text xml:space="preserve" text-anchor="middle" x="453.25" y="-282.5" font-family="Helvetica,sans-Serif" font-size="10.00">MainWindow::onElementDropped</text>
</a>
</g>
</g>
<!-- Node2&#45;&gt;Node4 -->
<g id="edge3_Node000002_Node000004" class="edge">
<title>Node2&#45;&gt;Node4</title>
<g id="a_edge3_Node000002_Node000004"><a xlink:title=" ">
<path fill="none" stroke="#63b8ff" d="M309.33,-258.48C333.28,-263.09 361.6,-268.55 386.7,-273.38"/>
<polygon fill="#63b8ff" stroke="#63b8ff" points="386,-276.81 396.49,-275.26 387.33,-269.94 386,-276.81"/>
</a>
</g>
</g>
<!-- Node5 -->
<g id="Node000005" class="node">
<title>Node5</title>
<g id="a_Node000005"><a xlink:href="class_basic_element.html#ab14524060d1b8fbbba753207029c6d7d" target="_top" xlink:title=" ">
<polygon fill="white" stroke="#666666" points="712.75,-296 581.25,-296 581.25,-276 712.75,-276 712.75,-296"/>
<text xml:space="preserve" text-anchor="middle" x="647" y="-282.5" font-family="Helvetica,sans-Serif" font-size="10.00">BasicElement::setPosition</text>
</a>
</g>
</g>
<!-- Node4&#45;&gt;Node5 -->
<g id="edge4_Node000004_Node000005" class="edge">
<title>Node4&#45;&gt;Node5</title>
<g id="a_edge4_Node000004_Node000005"><a xlink:title=" ">
<path fill="none" stroke="#63b8ff" d="M534.46,-286C546.08,-286 558.02,-286 569.56,-286"/>
<polygon fill="#63b8ff" stroke="#63b8ff" points="569.44,-289.5 579.44,-286 569.44,-282.5 569.44,-289.5"/>
</a>
</g>
</g>
<!-- Node10 -->
<g id="Node000010" class="node">
<title>Node10</title>
<g id="a_Node000010"><a xlink:href="class_main_window.html#a51ab21a1be4a1389a00bdb35feee8d64" target="_top" xlink:title=" ">
<polygon fill="white" stroke="#666666" points="722.5,-115 571.5,-115 571.5,-95 722.5,-95 722.5,-115"/>
<text xml:space="preserve" text-anchor="middle" x="647" y="-101.5" font-family="Helvetica,sans-Serif" font-size="10.00">MainWindow::updateStatusBar</text>
</a>
</g>
</g>
<!-- Node4&#45;&gt;Node10 -->
<g id="edge9_Node000004_Node000010" class="edge">
<title>Node4&#45;&gt;Node10</title>
<g id="a_edge9_Node000004_Node000010"><a xlink:title=" ">
<path fill="none" stroke="#63b8ff" d="M523.64,-275.69C527.97,-273.31 531.98,-270.45 535.5,-267 581.69,-221.73 526.34,-172.3 571.5,-126 573.08,-124.38 574.78,-122.88 576.57,-121.49"/>
<polygon fill="#63b8ff" stroke="#63b8ff" points="578.3,-124.54 584.92,-116.26 574.59,-118.6 578.3,-124.54"/>
</a>
</g>
</g>
<!-- Node11 -->
<g id="Node000011" class="node">
<title>Node11</title>
<g id="a_Node000011"><a xlink:href="class_main_window.html#a90cfbcf2e0f2549760a60f184ee0acbf" target="_top" xlink:title=" ">
<polygon fill="white" stroke="#666666" points="718.38,-167 575.62,-167 575.62,-135 718.38,-135 718.38,-167"/>
<text xml:space="preserve" text-anchor="start" x="583.62" y="-153.5" font-family="Helvetica,sans-Serif" font-size="10.00">MainWindow::updateWindow</text>
<text xml:space="preserve" text-anchor="middle" x="647" y="-141.5" font-family="Helvetica,sans-Serif" font-size="10.00">Title</text>
</a>
</g>
</g>
<!-- Node4&#45;&gt;Node11 -->
<g id="edge10_Node000004_Node000011" class="edge">
<title>Node4&#45;&gt;Node11</title>
<g id="a_edge10_Node000004_Node000011"><a xlink:title=" ">
<path fill="none" stroke="#63b8ff" d="M516.05,-275.59C522.84,-273.28 529.46,-270.45 535.5,-267 575.06,-244.36 609.25,-203.17 628.74,-176.46"/>
<polygon fill="#63b8ff" stroke="#63b8ff" points="631.41,-178.74 634.36,-168.57 625.71,-174.68 631.41,-178.74"/>
</a>
</g>
</g>
<!-- Node6 -->
<g id="Node000006" class="node">
<title>Node6</title>
<g id="a_Node000006"><a xlink:href="class_basic_element.html#ad1b7a593fb82e872041b342abd157088" target="_top" xlink:title=" ">
<polygon fill="white" stroke="#666666" points="914.75,-365 758.5,-365 758.5,-345 914.75,-345 914.75,-365"/>
<text xml:space="preserve" text-anchor="middle" x="836.62" y="-351.5" font-family="Helvetica,sans-Serif" font-size="10.00">BasicElement::elementChanged</text>
</a>
</g>
</g>
<!-- Node5&#45;&gt;Node6 -->
<g id="edge5_Node000005_Node000006" class="edge">
<title>Node5&#45;&gt;Node6</title>
<g id="a_edge5_Node000005_Node000006"><a xlink:title=" ">
<path fill="none" stroke="#63b8ff" d="M667.91,-296.35C689.7,-307.36 725.87,-324.7 758.5,-336 764.28,-338 770.38,-339.88 776.5,-341.62"/>
<polygon fill="#63b8ff" stroke="#63b8ff" points="775.47,-344.97 786.04,-344.2 777.3,-338.21 775.47,-344.97"/>
</a>
</g>
</g>
<!-- Node7 -->
<g id="Node000007" class="node">
<title>Node7</title>
<g id="a_Node000007"><a xlink:href="class_basic_element.html#a84f8dd62eabbe3dded6bacf42a783856" target="_top" xlink:title=" ">
<polygon fill="white" stroke="#666666" points="907.62,-327 765.62,-327 765.62,-295 907.62,-295 907.62,-327"/>
<text xml:space="preserve" text-anchor="start" x="773.62" y="-313.5" font-family="Helvetica,sans-Serif" font-size="10.00">BasicElement::notifyPosition</text>
<text xml:space="preserve" text-anchor="middle" x="836.62" y="-301.5" font-family="Helvetica,sans-Serif" font-size="10.00">Changed</text>
</a>
</g>
</g>
<!-- Node5&#45;&gt;Node7 -->
<g id="edge6_Node000005_Node000007" class="edge">
<title>Node5&#45;&gt;Node7</title>
<g id="a_edge6_Node000005_Node000007"><a xlink:title=" ">
<path fill="none" stroke="#63b8ff" d="M713.1,-294.67C726.24,-296.43 740.22,-298.29 753.86,-300.11"/>
<polygon fill="#63b8ff" stroke="#63b8ff" points="753.33,-303.57 763.7,-301.42 754.25,-296.63 753.33,-303.57"/>
</a>
</g>
</g>
<!-- Node8 -->
<g id="Node000008" class="node">
<title>Node8</title>
<g id="a_Node000008"><a xlink:href="class_basic_element.html#aa4779b31234dc7c90ceddd5a3069b2e7" target="_top" xlink:title=" ">
<polygon fill="white" stroke="#666666" points="900.88,-277 772.38,-277 772.38,-245 900.88,-245 900.88,-277"/>
<text xml:space="preserve" text-anchor="start" x="780.38" y="-263.5" font-family="Helvetica,sans-Serif" font-size="10.00">BasicElement::onPosition</text>
<text xml:space="preserve" text-anchor="middle" x="836.62" y="-251.5" font-family="Helvetica,sans-Serif" font-size="10.00">Changed</text>
</a>
</g>
</g>
<!-- Node5&#45;&gt;Node8 -->
<g id="edge7_Node000005_Node000008" class="edge">
<title>Node5&#45;&gt;Node8</title>
<g id="a_edge7_Node000005_Node000008"><a xlink:title=" ">
<path fill="none" stroke="#63b8ff" d="M713.1,-277.33C728.43,-275.28 744.89,-273.09 760.62,-270.99"/>
<polygon fill="#63b8ff" stroke="#63b8ff" points="760.96,-274.48 770.41,-269.69 760.04,-267.54 760.96,-274.48"/>
</a>
</g>
</g>
<!-- Node9 -->
<g id="Node000009" class="node">
<title>Node9</title>
<g id="a_Node000009"><a xlink:href="class_basic_element.html#a02183bafd7c80f9f1f99a9b9f1631524" target="_top" xlink:title=" ">
<polygon fill="white" stroke="#666666" points="914.38,-227 758.88,-227 758.88,-207 914.38,-207 914.38,-227"/>
<text xml:space="preserve" text-anchor="middle" x="836.62" y="-213.5" font-family="Helvetica,sans-Serif" font-size="10.00">BasicElement::positionChanged</text>
</a>
</g>
</g>
<!-- Node5&#45;&gt;Node9 -->
<g id="edge8_Node000005_Node000009" class="edge">
<title>Node5&#45;&gt;Node9</title>
<g id="a_edge8_Node000005_Node000009"><a xlink:title=" ">
<path fill="none" stroke="#63b8ff" d="M667.91,-275.65C689.7,-264.64 725.87,-247.3 758.5,-236 764.28,-234 770.38,-232.12 776.5,-230.38"/>
<polygon fill="#63b8ff" stroke="#63b8ff" points="777.3,-233.79 786.04,-227.8 775.47,-227.03 777.3,-233.79"/>
</a>
</g>
</g>
<!-- Node13 -->
<g id="Node000013" class="node">
<title>Node13</title>
<g id="a_Node000013"><a xlink:href="class_main_window.html#a888fc5e71b187581c6612d06b8bd671a" target="_top" xlink:title=" ">
<polygon fill="white" stroke="#666666" points="524.62,-70 381.88,-70 381.88,-38 524.62,-38 524.62,-70"/>
<text xml:space="preserve" text-anchor="start" x="389.88" y="-56.5" font-family="Helvetica,sans-Serif" font-size="10.00">MainWindow::onAddAttribute</text>
<text xml:space="preserve" text-anchor="middle" x="453.25" y="-44.5" font-family="Helvetica,sans-Serif" font-size="10.00">Clicked</text>
</a>
</g>
</g>
<!-- Node12&#45;&gt;Node13 -->
<g id="edge12_Node000012_Node000013" class="edge">
<title>Node12&#45;&gt;Node13</title>
<g id="a_edge12_Node000012_Node000013"><a xlink:title=" ">
<path fill="none" stroke="#63b8ff" d="M276.85,-118.69C299.99,-108.04 337.63,-91.28 371,-79 375.64,-77.29 380.47,-75.6 385.34,-73.95"/>
<polygon fill="#63b8ff" stroke="#63b8ff" points="386.2,-77.36 394.6,-70.9 384.01,-70.71 386.2,-77.36"/>
</a>
</g>
</g>
<!-- Node14 -->
<g id="Node000014" class="node">
<title>Node14</title>
<g id="a_Node000014"><a xlink:href="class_main_window.html#ae09067bcfa0b21e23477d0f4c0cc3a95" target="_top" xlink:title=" ">
<polygon fill="white" stroke="#666666" points="535.5,-20 371,-20 371,0 535.5,0 535.5,-20"/>
<text xml:space="preserve" text-anchor="middle" x="453.25" y="-6.5" font-family="Helvetica,sans-Serif" font-size="10.00">MainWindow::onAddEntityClicked</text>
</a>
</g>
</g>
<!-- Node12&#45;&gt;Node14 -->
<g id="edge15_Node000012_Node000014" class="edge">
<title>Node12&#45;&gt;Node14</title>
<g id="a_edge15_Node000012_Node000014"><a xlink:title=" ">
<path fill="none" stroke="#63b8ff" d="M263.64,-118.68C281.58,-98.23 324.75,-52.51 371,-29 374.46,-27.24 378.09,-25.64 381.81,-24.19"/>
<polygon fill="#63b8ff" stroke="#63b8ff" points="382.77,-27.56 391.06,-20.96 380.46,-20.95 382.77,-27.56"/>
</a>
</g>
</g>
<!-- Node15 -->
<g id="Node000015" class="node">
<title>Node15</title>
<g id="a_Node000015"><a xlink:href="class_main_window.html#a744cc2741d088e51e5dfc35e05e092bd" target="_top" xlink:title=" ">
<polygon fill="white" stroke="#666666" points="528.75,-220 377.75,-220 377.75,-188 528.75,-188 528.75,-220"/>
<text xml:space="preserve" text-anchor="start" x="385.75" y="-206.5" font-family="Helvetica,sans-Serif" font-size="10.00">MainWindow::onAddIdentifying</text>
<text xml:space="preserve" text-anchor="middle" x="453.25" y="-194.5" font-family="Helvetica,sans-Serif" font-size="10.00">RelationshipClicked</text>
</a>
</g>
</g>
<!-- Node12&#45;&gt;Node15 -->
<g id="edge18_Node000012_Node000015" class="edge">
<title>Node12&#45;&gt;Node15</title>
<g id="a_edge18_Node000012_Node000015"><a xlink:title=" ">
<path fill="none" stroke="#63b8ff" d="M276.85,-139.31C299.99,-149.96 337.63,-166.72 371,-179 375.64,-180.71 380.47,-182.4 385.34,-184.05"/>
<polygon fill="#63b8ff" stroke="#63b8ff" points="384.01,-187.29 394.6,-187.1 386.2,-180.64 384.01,-187.29"/>
</a>
</g>
</g>
<!-- Node16 -->
<g id="Node000016" class="node">
<title>Node16</title>
<g id="a_Node000016"><a xlink:href="class_main_window.html#ab9ae228d805b4448bd84bc7d732463cd" target="_top" xlink:title=" ">
<polygon fill="white" stroke="#666666" points="533.25,-170 373.25,-170 373.25,-138 533.25,-138 533.25,-170"/>
<text xml:space="preserve" text-anchor="start" x="381.25" y="-156.5" font-family="Helvetica,sans-Serif" font-size="10.00">MainWindow::onAddRelationship</text>
<text xml:space="preserve" text-anchor="middle" x="453.25" y="-144.5" font-family="Helvetica,sans-Serif" font-size="10.00">Clicked</text>
</a>
</g>
</g>
<!-- Node12&#45;&gt;Node16 -->
<g id="edge21_Node000012_Node000016" class="edge">
<title>Node12&#45;&gt;Node16</title>
<g id="a_edge21_Node000012_Node000016"><a xlink:title=" ">
<path fill="none" stroke="#63b8ff" d="M328.93,-138.38C339.57,-139.73 350.61,-141.13 361.52,-142.51"/>
<polygon fill="#63b8ff" stroke="#63b8ff" points="360.96,-145.97 371.32,-143.75 361.84,-139.02 360.96,-145.97"/>
</a>
</g>
</g>
<!-- Node17 -->
<g id="Node000017" class="node">
<title>Node17</title>
<g id="a_Node000017"><a xlink:href="class_main_window.html#aab6969243a6c5f143958f76b0a315cdc" target="_top" xlink:title=" ">
<polygon fill="white" stroke="#666666" points="531.38,-120 375.12,-120 375.12,-88 531.38,-88 531.38,-120"/>
<text xml:space="preserve" text-anchor="start" x="383.12" y="-106.5" font-family="Helvetica,sans-Serif" font-size="10.00">MainWindow::onAddWeakEntity</text>
<text xml:space="preserve" text-anchor="middle" x="453.25" y="-94.5" font-family="Helvetica,sans-Serif" font-size="10.00">Clicked</text>
</a>
</g>
</g>
<!-- Node12&#45;&gt;Node17 -->
<g id="edge24_Node000012_Node000017" class="edge">
<title>Node12&#45;&gt;Node17</title>
<g id="a_edge24_Node000012_Node000017"><a xlink:title=" ">
<path fill="none" stroke="#63b8ff" d="M328.93,-119.62C340.29,-118.18 352.11,-116.68 363.74,-115.21"/>
<polygon fill="#63b8ff" stroke="#63b8ff" points="363.83,-118.73 373.31,-114 362.95,-111.78 363.83,-118.73"/>
</a>
</g>
</g>
<!-- Node13&#45;&gt;Node10 -->
<g id="edge13_Node000013_Node000010" class="edge">
<title>Node13&#45;&gt;Node10</title>
<g id="a_edge13_Node000013_Node000010"><a xlink:title=" ">
<path fill="none" stroke="#63b8ff" d="M516.24,-70.49C541.84,-77.3 571.14,-85.09 595.41,-91.54"/>
<polygon fill="#63b8ff" stroke="#63b8ff" points="594.5,-94.92 605.06,-94.11 596.3,-88.16 594.5,-94.92"/>
</a>
</g>
</g>
<!-- Node13&#45;&gt;Node11 -->
<g id="edge14_Node000013_Node000011" class="edge">
<title>Node13&#45;&gt;Node11</title>
<g id="a_edge14_Node000013_Node000011"><a xlink:title=" ">
<path fill="none" stroke="#63b8ff" d="M520.16,-70.46C525.55,-72.93 530.74,-75.76 535.5,-79 556.68,-93.4 550.68,-109.08 571.5,-124 574.26,-125.98 577.19,-127.83 580.21,-129.55"/>
<polygon fill="#63b8ff" stroke="#63b8ff" points="578.32,-132.52 588.82,-133.96 581.51,-126.29 578.32,-132.52"/>
</a>
</g>
</g>
<!-- Node14&#45;&gt;Node10 -->
<g id="edge16_Node000014_Node000010" class="edge">
<title>Node14&#45;&gt;Node10</title>
<g id="a_edge16_Node000014_Node000010"><a xlink:title=" ">
<path fill="none" stroke="#63b8ff" d="M511.09,-20.42C519.44,-22.77 527.81,-25.6 535.5,-29 569.67,-44.1 604.41,-70.12 625.58,-87.44"/>
<polygon fill="#63b8ff" stroke="#63b8ff" points="623.22,-90.04 633.15,-93.75 627.71,-84.66 623.22,-90.04"/>
</a>
</g>
</g>
<!-- Node14&#45;&gt;Node11 -->
<g id="edge17_Node000014_Node000011" class="edge">
<title>Node14&#45;&gt;Node11</title>
<g id="a_edge17_Node000014_Node000011"><a xlink:title=" ">
<path fill="none" stroke="#63b8ff" d="M522.44,-20.37C527.15,-22.72 531.58,-25.56 535.5,-29 569.47,-58.74 539.34,-92.31 571.5,-124 573.08,-125.56 574.76,-127.03 576.51,-128.41"/>
<polygon fill="#63b8ff" stroke="#63b8ff" points="574.33,-131.16 584.59,-133.81 578.22,-125.34 574.33,-131.16"/>
</a>
</g>
</g>
<!-- Node15&#45;&gt;Node10 -->
<g id="edge19_Node000015_Node000010" class="edge">
<title>Node15&#45;&gt;Node10</title>
<g id="a_edge19_Node000015_Node000010"><a xlink:title=" ">
<path fill="none" stroke="#63b8ff" d="M521.26,-187.54C526.29,-185.07 531.11,-182.24 535.5,-179 558.4,-162.08 548.4,-142.65 571.5,-126 574.65,-123.73 578.03,-121.71 581.56,-119.9"/>
<polygon fill="#63b8ff" stroke="#63b8ff" points="582.7,-123.23 590.43,-115.98 579.87,-116.82 582.7,-123.23"/>
</a>
</g>
</g>
<!-- Node15&#45;&gt;Node11 -->
<g id="edge20_Node000015_Node000011" class="edge">
<title>Node15&#45;&gt;Node11</title>
<g id="a_edge20_Node000015_Node000011"><a xlink:title=" ">
<path fill="none" stroke="#63b8ff" d="M513.87,-187.52C533.35,-182.14 555.17,-176.11 575.38,-170.52"/>
<polygon fill="#63b8ff" stroke="#63b8ff" points="576.25,-173.91 584.96,-167.87 574.39,-167.16 576.25,-173.91"/>
</a>
</g>
</g>
<!-- Node16&#45;&gt;Node10 -->
<g id="edge22_Node000016_Node000010" class="edge">
<title>Node16&#45;&gt;Node10</title>
<g id="a_edge22_Node000016_Node000010"><a xlink:title=" ">
<path fill="none" stroke="#63b8ff" d="M518.63,-137.55C543.13,-131.29 570.71,-124.24 593.93,-118.31"/>
<polygon fill="#63b8ff" stroke="#63b8ff" points="594.66,-121.73 603.48,-115.87 592.92,-114.95 594.66,-121.73"/>
</a>
</g>
</g>
<!-- Node16&#45;&gt;Node11 -->
<g id="edge23_Node000016_Node000011" class="edge">
<title>Node16&#45;&gt;Node11</title>
<g id="a_edge23_Node000016_Node000011"><a xlink:title=" ">
<path fill="none" stroke="#63b8ff" d="M533.63,-152.76C543.66,-152.6 553.94,-152.44 564.01,-152.28"/>
<polygon fill="#63b8ff" stroke="#63b8ff" points="563.81,-155.79 573.75,-152.13 563.7,-148.79 563.81,-155.79"/>
</a>
</g>
</g>
<!-- Node17&#45;&gt;Node10 -->
<g id="edge25_Node000017_Node000010" class="edge">
<title>Node17&#45;&gt;Node10</title>
<g id="a_edge25_Node000017_Node000010"><a xlink:title=" ">
<path fill="none" stroke="#63b8ff" d="M531.69,-104.4C540.93,-104.45 550.4,-104.5 559.75,-104.55"/>
<polygon fill="#63b8ff" stroke="#63b8ff" points="559.54,-108.05 569.56,-104.6 559.58,-101.05 559.54,-108.05"/>
</a>
</g>
</g>
<!-- Node17&#45;&gt;Node11 -->
<g id="edge26_Node000017_Node000011" class="edge">
<title>Node17&#45;&gt;Node11</title>
<g id="a_edge26_Node000017_Node000011"><a xlink:title=" ">
<path fill="none" stroke="#63b8ff" d="M521.31,-120.44C536.35,-124.12 552.43,-128.06 567.87,-131.85"/>
<polygon fill="#63b8ff" stroke="#63b8ff" points="566.96,-135.23 577.5,-134.21 568.62,-128.43 566.96,-135.23"/>
</a>
</g>
</g>
</g>
</svg>
