<?xml version="1.0" encoding="UTF-8" standalone="no"?>
<!DOCTYPE svg PUBLIC "-//W3C//DTD SVG 1.1//EN"
 "http://www.w3.org/Graphics/SVG/1.1/DTD/svg11.dtd">
<!-- Generated by graphviz version 14.1.1 (20251213.1925)
 -->
<!-- Title: RelationshipEnd::totalParticipationChanged Pages: 1 -->
<!--zoomable 766 -->

<svg id="main" version="1.1" xmlns="http://www.w3.org/2000/svg" xmlns:xlink="http://www.w3.org/1999/xlink" xml:space="preserve" onload="init(evt)">

<style type="text/css"><![CDATA[
.node, .edge {opacity: 0.7;}
.node.selected, .edge.selected {opacity: 1;}
.edge:hover path { stroke: red; }
.edge:hover polygon { stroke: red; fill: red; }
]]></style>

<defs>
  <circle id="rim" cx="0" cy="0" r="7"/>
  <circle id="rim2" cx="0" cy="0" r="3.5"/>
  <g id="zoomPlus">
    <use xlink:href="#rim" fill="#404040"><set attributeName="fill" to="#808080" begin="zoomplus.mouseover" end="zoomplus.mouseout"/></use>
    <path d="M-4,0h8M0,-4v8" fill="none" stroke="white" stroke-width="1.5" pointer-events="none"/>
  </g>
  <g id="zoomMin">
    <use xlink:href="#rim" fill="#404040"><set attributeName="fill" to="#808080" begin="zoomminus.mouseover" end="zoomminus.mouseout"/></use>
    <path d="M-4,0h8" fill="none" stroke="white" stroke-width="1.5" pointer-events="none"/>
  </g>
  <g id="arrowUp" transform="translate(30 24)">
    <use xlink:href="#rim"/>
    <path pointer-events="none" fill="none" stroke="white" stroke-width="1.5" d="M0,-3.0v7 M-2.5,-0.5L0,-3.0L2.5,-0.5"/>
  </g>
  <g id="arrowRight" transform="rotate(90) translate(36 -43)">
    <use xlink:href="#rim"/>
    <path pointer-events="none" fill="none" stroke="white" stroke-width="1.5" d="M0,-3.0v7 M-2.5,-0.5L0,-3.0L2.5,-0.5"/>
  </g>
  <g id="arrowDown" transform="rotate(180) translate(-30 -48)">
    <use xlink:href="#rim"/>
    <path pointer-events="none" fill="none" stroke="white" stroke-width="1.5" d="M0,-3.0v7 M-2.5,-0.5L0,-3.0L2.5,-0.5"/>
  </g>
  <g id="arrowLeft" transform="rotate(270) translate(-36 17)">
    <use xlink:href="#rim"/>
    <path pointer-events="none" fill="none" stroke="white" stroke-width="1.5" d="M0,-3.0v7 M-2.5,-0.5L0,-3.0L2.5,-0.5"/>
  </g>
  <g id="resetDef">
    <use xlink:href="#rim2" fill="#404040"><set attributeName="fill" to="#808080" begin="reset.mouseover" end="reset.mouseout"/></use>
  </g>
</defs>
<script type="application/ecmascript">
var viewWidth = 2948;
var viewHeight = 766;
var sectionId = 'dynsection-16';
</script>
<script type="application/ecmascript" xlink:href="svg.min.js"/>
<svg id="graph" class="graph">
<g id="viewport">
<title>RelationshipEnd::totalParticipationChanged</title>
<!-- Node1 -->
<g id="Node000001" class="node">
<title>Node1</title>
<g id="a_Node000001"><a xlink:title=" ">
<polygon fill="#999999" stroke="#666666" points="2940,-243.61 2774,-243.61 2774,-211.61 2940,-211.61 2940,-243.61"/>
<text xml:space="preserve" text-anchor="start" x="2782" y="-230.11" font-family="Helvetica,sans-Serif" font-size="10.00">RelationshipEnd::totalParticipation</text>
<text xml:space="preserve" text-anchor="middle" x="2857" y="-218.11" font-family="Helvetica,sans-Serif" font-size="10.00">Changed</text>
</a>
</g>
</g>
<!-- Node2 -->
<g id="Node000002" class="node">
<title>Node2</title>
<g id="a_Node000002"><a xlink:href="class_relationship_connection_line.html#a00e5304ae94f728128ec8b6476a74177" target="_top" xlink:title=" ">
<polygon fill="white" stroke="#666666" points="2725.62,-293.61 2587.38,-293.61 2587.38,-261.61 2725.62,-261.61 2725.62,-293.61"/>
<text xml:space="preserve" text-anchor="start" x="2595.38" y="-280.11" font-family="Helvetica,sans-Serif" font-size="10.00">RelationshipConnectionLine</text>
<text xml:space="preserve" text-anchor="middle" x="2656.5" y="-268.11" font-family="Helvetica,sans-Serif" font-size="10.00">::connectToRelationshipEnd</text>
</a>
</g>
</g>
<!-- Node1&#45;&gt;Node2 -->
<g id="edge1_Node000001_Node000002" class="edge">
<title>Node1&#45;&gt;Node2</title>
<g id="a_edge1_Node000001_Node000002"><a xlink:title=" ">
<path fill="none" stroke="#63b8ff" d="M2779.82,-246.8C2761.01,-251.53 2741.04,-256.56 2722.81,-261.16"/>
<polygon fill="#63b8ff" stroke="#63b8ff" points="2780.42,-250.26 2789.26,-244.42 2778.71,-243.47 2780.42,-250.26"/>
</a>
</g>
</g>
<!-- Node5 -->
<g id="Node000005" class="node">
<title>Node5</title>
<g id="a_Node000005"><a xlink:href="class_relationship_connection_line.html#a73f28ee054400ee6eb13b64a7817ef4b" target="_top" xlink:title=" ">
<polygon fill="white" stroke="#666666" points="2738,-243.61 2575,-243.61 2575,-211.61 2738,-211.61 2738,-243.61"/>
<text xml:space="preserve" text-anchor="start" x="2583" y="-230.11" font-family="Helvetica,sans-Serif" font-size="10.00">RelationshipConnectionLine</text>
<text xml:space="preserve" text-anchor="middle" x="2656.5" y="-218.11" font-family="Helvetica,sans-Serif" font-size="10.00">::disconnectFromRelationshipEnd</text>
</a>
</g>
</g>
<!-- Node1&#45;&gt;Node5 -->
<g id="edge4_Node000001_Node000005" class="edge">
<title>Node1&#45;&gt;Node5</title>
<g id="a_edge4_Node000001_Node000005"><a xlink:title=" ">
<path fill="none" stroke="#63b8ff" d="M2762.03,-227.61C2754.14,-227.61 2746.21,-227.61 2738.42,-227.61"/>
<polygon fill="#63b8ff" stroke="#63b8ff" points="2762.03,-231.11 2772.03,-227.61 2762.03,-224.11 2762.03,-231.11"/>
</a>
</g>
</g>
<!-- Node7 -->
<g id="Node000007" class="node">
<title>Node7</title>
<g id="a_Node000007"><a xlink:href="class_relationship_end.html#a52a4e1035f4f5cc99ee5068ea6e002ba" target="_top" xlink:title=" ">
<polygon fill="white" stroke="#666666" points="2724.5,-193.61 2588.5,-193.61 2588.5,-161.61 2724.5,-161.61 2724.5,-193.61"/>
<text xml:space="preserve" text-anchor="start" x="2596.5" y="-180.11" font-family="Helvetica,sans-Serif" font-size="10.00">RelationshipEnd::setIsTotal</text>
<text xml:space="preserve" text-anchor="middle" x="2656.5" y="-168.11" font-family="Helvetica,sans-Serif" font-size="10.00">Participation</text>
</a>
</g>
</g>
<!-- Node1&#45;&gt;Node7 -->
<g id="edge7_Node000001_Node000007" class="edge">
<title>Node1&#45;&gt;Node7</title>
<g id="a_edge7_Node000001_Node000007"><a xlink:title=" ">
<path fill="none" stroke="#63b8ff" d="M2779.82,-208.42C2761.01,-203.68 2741.04,-198.65 2722.81,-194.06"/>
<polygon fill="#63b8ff" stroke="#63b8ff" points="2778.71,-211.75 2789.26,-210.8 2780.42,-204.96 2778.71,-211.75"/>
</a>
</g>
</g>
<!-- Node3 -->
<g id="Node000003" class="node">
<title>Node3</title>
<g id="a_Node000003"><a xlink:href="class_relationship_connection_line.html#a77c08ca0dffdc230d3f164d846b3c176" target="_top" xlink:title=" ">
<polygon fill="white" stroke="#666666" points="2530.38,-343.61 2386.88,-343.61 2386.88,-311.61 2530.38,-311.61 2530.38,-343.61"/>
<text xml:space="preserve" text-anchor="start" x="2394.88" y="-330.11" font-family="Helvetica,sans-Serif" font-size="10.00">RelationshipConnectionLine</text>
<text xml:space="preserve" text-anchor="middle" x="2458.62" y="-318.11" font-family="Helvetica,sans-Serif" font-size="10.00">::RelationshipConnectionLine</text>
</a>
</g>
</g>
<!-- Node2&#45;&gt;Node3 -->
<g id="edge2_Node000002_Node000003" class="edge">
<title>Node2&#45;&gt;Node3</title>
<g id="a_edge2_Node000002_Node000003"><a xlink:title=" ">
<path fill="none" stroke="#63b8ff" d="M2580.06,-296.86C2561.59,-301.58 2541.98,-306.59 2524.07,-311.16"/>
<polygon fill="#63b8ff" stroke="#63b8ff" points="2580.8,-300.29 2589.63,-294.42 2579.07,-293.51 2580.8,-300.29"/>
</a>
</g>
</g>
<!-- Node4 -->
<g id="Node000004" class="node">
<title>Node4</title>
<g id="a_Node000004"><a xlink:href="class_relationship_connection_line.html#a7e2e06e83adcf3a6fd12c53aa21d71fa" target="_top" xlink:title=" ">
<polygon fill="white" stroke="#666666" points="2527.38,-293.61 2389.88,-293.61 2389.88,-261.61 2527.38,-261.61 2527.38,-293.61"/>
<text xml:space="preserve" text-anchor="start" x="2397.88" y="-280.11" font-family="Helvetica,sans-Serif" font-size="10.00">RelationshipConnectionLine</text>
<text xml:space="preserve" text-anchor="middle" x="2458.62" y="-268.11" font-family="Helvetica,sans-Serif" font-size="10.00">::setRelationshipEnd</text>
</a>
</g>
</g>
<!-- Node2&#45;&gt;Node4 -->
<g id="edge3_Node000002_Node000004" class="edge">
<title>Node2&#45;&gt;Node4</title>
<g id="a_edge3_Node000002_Node000004"><a xlink:title=" ">
<path fill="none" stroke="#63b8ff" d="M2575.58,-277.61C2559.71,-277.61 2543.19,-277.61 2527.76,-277.61"/>
<polygon fill="#63b8ff" stroke="#63b8ff" points="2575.48,-281.11 2585.48,-277.61 2575.48,-274.11 2575.48,-281.11"/>
</a>
</g>
</g>
<!-- Node5&#45;&gt;Node4 -->
<g id="edge5_Node000005_Node000004" class="edge">
<title>Node5&#45;&gt;Node4</title>
<g id="a_edge5_Node000005_Node000004"><a xlink:title=" ">
<path fill="none" stroke="#63b8ff" d="M2580.06,-246.86C2561.59,-251.58 2541.98,-256.59 2524.07,-261.16"/>
<polygon fill="#63b8ff" stroke="#63b8ff" points="2580.8,-250.29 2589.63,-244.42 2579.07,-243.51 2580.8,-250.29"/>
</a>
</g>
</g>
<!-- Node6 -->
<g id="Node000006" class="node">
<title>Node6</title>
<g id="a_Node000006"><a xlink:href="class_relationship_connection_line.html#a1a1a07948058466e38bb1043c95a70c4" target="_top" xlink:title=" ">
<polygon fill="white" stroke="#666666" points="2533.38,-243.61 2383.88,-243.61 2383.88,-211.61 2533.38,-211.61 2533.38,-243.61"/>
<text xml:space="preserve" text-anchor="start" x="2391.88" y="-230.11" font-family="Helvetica,sans-Serif" font-size="10.00">RelationshipConnectionLine</text>
<text xml:space="preserve" text-anchor="middle" x="2458.62" y="-218.11" font-family="Helvetica,sans-Serif" font-size="10.00">::~RelationshipConnectionLine</text>
</a>
</g>
</g>
<!-- Node5&#45;&gt;Node6 -->
<g id="edge6_Node000005_Node000006" class="edge">
<title>Node5&#45;&gt;Node6</title>
<g id="a_edge6_Node000005_Node000006"><a xlink:title=" ">
<path fill="none" stroke="#63b8ff" d="M2563.47,-227.61C2553.47,-227.61 2543.39,-227.61 2533.64,-227.61"/>
<polygon fill="#63b8ff" stroke="#63b8ff" points="2563.19,-231.11 2573.19,-227.61 2563.19,-224.11 2563.19,-231.11"/>
</a>
</g>
</g>
<!-- Node8 -->
<g id="Node000008" class="node">
<title>Node8</title>
<g id="a_Node000008"><a xlink:href="class_main_window.html#a96d575a529f7c24b1b5094b4b1e42742" target="_top" xlink:title=" ">
<polygon fill="white" stroke="#666666" points="2539,-193.61 2378.25,-193.61 2378.25,-161.61 2539,-161.61 2539,-193.61"/>
<text xml:space="preserve" text-anchor="start" x="2386.25" y="-180.11" font-family="Helvetica,sans-Serif" font-size="10.00">MainWindow::handleRelationship</text>
<text xml:space="preserve" text-anchor="middle" x="2458.62" y="-168.11" font-family="Helvetica,sans-Serif" font-size="10.00">EndParticipationChange</text>
</a>
</g>
</g>
<!-- Node7&#45;&gt;Node8 -->
<g id="edge8_Node000007_Node000008" class="edge">
<title>Node7&#45;&gt;Node8</title>
<g id="a_edge8_Node000007_Node000008"><a xlink:title=" ">
<path fill="none" stroke="#63b8ff" d="M2576.87,-177.61C2564.5,-177.61 2551.7,-177.61 2539.31,-177.61"/>
<polygon fill="#63b8ff" stroke="#63b8ff" points="2576.58,-181.11 2586.58,-177.61 2576.58,-174.11 2576.58,-181.11"/>
</a>
</g>
</g>
<!-- Node9 -->
<g id="Node000009" class="node">
<title>Node9</title>
<g id="a_Node000009"><a xlink:href="class_main_window.html#a47fd0b86ddb5829e3b0cb15908671670" target="_top" xlink:title=" ">
<polygon fill="white" stroke="#666666" points="2342.25,-225.61 2168.75,-225.61 2168.75,-205.61 2342.25,-205.61 2342.25,-225.61"/>
<text xml:space="preserve" text-anchor="middle" x="2255.5" y="-212.11" font-family="Helvetica,sans-Serif" font-size="10.00">MainWindow::onCheckBoxChanged</text>
</a>
</g>
</g>
<!-- Node8&#45;&gt;Node9 -->
<g id="edge9_Node000008_Node000009" class="edge">
<title>Node8&#45;&gt;Node9</title>
<g id="a_edge9_Node000008_Node000009"><a xlink:title=" ">
<path fill="none" stroke="#63b8ff" d="M2366.64,-194.8C2348.02,-198.32 2328.95,-201.92 2312.02,-205.12"/>
<polygon fill="#63b8ff" stroke="#63b8ff" points="2367.18,-198.26 2376.36,-192.96 2365.88,-191.38 2367.18,-198.26"/>
</a>
</g>
</g>
<!-- Node10 -->
<g id="Node000010" class="node">
<title>Node10</title>
<g id="a_Node000010"><a xlink:href="class_main_window.html#a44aaf7bb6d9a56f53b8a7a9e4fc29f8c" target="_top" xlink:title=" ">
<polygon fill="white" stroke="#666666" points="2132.75,-571.61 1981.75,-571.61 1981.75,-539.61 2132.75,-539.61 2132.75,-571.61"/>
<text xml:space="preserve" text-anchor="start" x="1989.75" y="-558.11" font-family="Helvetica,sans-Serif" font-size="10.00">MainWindow::createCheckBox</text>
<text xml:space="preserve" text-anchor="middle" x="2057.25" y="-546.11" font-family="Helvetica,sans-Serif" font-size="10.00">PropertyItem</text>
</a>
</g>
</g>
<!-- Node9&#45;&gt;Node10 -->
<g id="edge10_Node000009_Node000010" class="edge">
<title>Node9&#45;&gt;Node10</title>
<g id="a_edge10_Node000009_Node000010"><a xlink:title=" ">
<path fill="none" stroke="#63b8ff" d="M2243.06,-235.43C2207.67,-296.75 2100.36,-482.65 2067.75,-539.15"/>
<polygon fill="#63b8ff" stroke="#63b8ff" points="2245.9,-237.51 2247.87,-227.09 2239.84,-234.01 2245.9,-237.51"/>
</a>
</g>
</g>
<!-- Node11 -->
<g id="Node000011" class="node">
<title>Node11</title>
<g id="a_Node000011"><a xlink:href="class_main_window.html#a3aa4112f20ad25eb3ad78fd354ba7de2" target="_top" xlink:title=" ">
<polygon fill="white" stroke="#666666" points="1945.75,-571.61 1794,-571.61 1794,-539.61 1945.75,-539.61 1945.75,-571.61"/>
<text xml:space="preserve" text-anchor="start" x="1802" y="-558.11" font-family="Helvetica,sans-Serif" font-size="10.00">MainWindow::populateAttribute</text>
<text xml:space="preserve" text-anchor="middle" x="1869.88" y="-546.11" font-family="Helvetica,sans-Serif" font-size="10.00">Properties</text>
</a>
</g>
</g>
<!-- Node10&#45;&gt;Node11 -->
<g id="edge11_Node000010_Node000011" class="edge">
<title>Node10&#45;&gt;Node11</title>
<g id="a_edge11_Node000010_Node000011"><a xlink:title=" ">
<path fill="none" stroke="#63b8ff" d="M1970.09,-555.61C1962.05,-555.61 1953.95,-555.61 1946.02,-555.61"/>
<polygon fill="#63b8ff" stroke="#63b8ff" points="1969.87,-559.11 1979.87,-555.61 1969.87,-552.11 1969.87,-559.11"/>
</a>
</g>
</g>
<!-- Node18 -->
<g id="Node000018" class="node">
<title>Node18</title>
<g id="a_Node000018"><a xlink:href="class_main_window.html#a1049a5796ac248f40a3b4110ed5faf77" target="_top" xlink:title=" ">
<polygon fill="white" stroke="#666666" points="1554.5,-656.61 1385.5,-656.61 1385.5,-624.61 1554.5,-624.61 1554.5,-656.61"/>
<text xml:space="preserve" text-anchor="start" x="1393.5" y="-643.11" font-family="Helvetica,sans-Serif" font-size="10.00">MainWindow::populateRelationship</text>
<text xml:space="preserve" text-anchor="middle" x="1470" y="-631.11" font-family="Helvetica,sans-Serif" font-size="10.00">Properties</text>
</a>
</g>
</g>
<!-- Node10&#45;&gt;Node18 -->
<g id="edge57_Node000010_Node000018" class="edge">
<title>Node10&#45;&gt;Node18</title>
<g id="a_edge57_Node000010_Node000018"><a xlink:title=" ">
<path fill="none" stroke="#63b8ff" d="M1974.14,-574.55C1964.58,-576.65 1954.96,-578.71 1945.75,-580.61 1862.62,-597.75 1842.1,-604.13 1758,-615.61 1689.86,-624.9 1612.12,-631.43 1554.75,-635.47"/>
<polygon fill="#63b8ff" stroke="#63b8ff" points="1974.82,-577.99 1983.83,-572.41 1973.31,-571.15 1974.82,-577.99"/>
</a>
</g>
</g>
<!-- Node12 -->
<g id="Node000012" class="node">
<title>Node12</title>
<g id="a_Node000012"><a xlink:href="class_main_window.html#a697154cf7839e00c607134c2a4e018cf" target="_top" xlink:title=" ">
<polygon fill="white" stroke="#666666" points="1758,-606.61 1590.5,-606.61 1590.5,-586.61 1758,-586.61 1758,-606.61"/>
<text xml:space="preserve" text-anchor="middle" x="1674.25" y="-593.11" font-family="Helvetica,sans-Serif" font-size="10.00">MainWindow::populateAttributeList</text>
</a>
</g>
</g>
<!-- Node11&#45;&gt;Node12 -->
<g id="edge12_Node000011_Node000012" class="edge">
<title>Node11&#45;&gt;Node12</title>
<g id="a_edge12_Node000011_Node000012"><a xlink:title=" ">
<path fill="none" stroke="#63b8ff" d="M1782.57,-567.17C1753.22,-573.19 1722.56,-580.31 1701.56,-586.23"/>
<polygon fill="#63b8ff" stroke="#63b8ff" points="1783.14,-570.62 1792.25,-565.22 1781.76,-563.76 1783.14,-570.62"/>
</a>
</g>
</g>
<!-- Node14 -->
<g id="Node000014" class="node">
<title>Node14</title>
<g id="a_Node000014"><a xlink:href="class_main_window.html#add7e6ae12287854ff779bd4b5649dd98" target="_top" xlink:title=" ">
<polygon fill="white" stroke="#666666" points="1349.5,-571.61 1190.25,-571.61 1190.25,-539.61 1349.5,-539.61 1349.5,-571.61"/>
<text xml:space="preserve" text-anchor="start" x="1198.25" y="-558.11" font-family="Helvetica,sans-Serif" font-size="10.00">MainWindow::populateProperties</text>
<text xml:space="preserve" text-anchor="middle" x="1269.88" y="-546.11" font-family="Helvetica,sans-Serif" font-size="10.00">ForElement</text>
</a>
</g>
</g>
<!-- Node11&#45;&gt;Node14 -->
<g id="edge56_Node000011_Node000014" class="edge">
<title>Node11&#45;&gt;Node14</title>
<g id="a_edge56_Node000011_Node000014"><a xlink:title=" ">
<path fill="none" stroke="#63b8ff" d="M1782.46,-555.61C1666.47,-555.61 1462.09,-555.61 1349.97,-555.61"/>
<polygon fill="#63b8ff" stroke="#63b8ff" points="1782.23,-559.11 1792.23,-555.61 1782.23,-552.11 1782.23,-559.11"/>
</a>
</g>
</g>
<!-- Node12&#45;&gt;Node11 -->
<g id="edge13_Node000012_Node000011" class="edge">
<title>Node12&#45;&gt;Node11</title>
<g id="a_edge13_Node000012_Node000011"><a xlink:title=" ">
<path fill="none" stroke="#63b8ff" d="M1767.4,-583.84C1785.29,-580.1 1803.4,-576.02 1819.26,-572.09"/>
<polygon fill="#63b8ff" stroke="#63b8ff" points="1766.88,-580.37 1757.79,-585.81 1768.29,-587.23 1766.88,-580.37"/>
</a>
</g>
</g>
<!-- Node13 -->
<g id="Node000013" class="node">
<title>Node13</title>
<g id="a_Node000013"><a xlink:href="class_main_window.html#a40023e3590f2593fd133a6b111f63ed9" target="_top" xlink:title=" ">
<polygon fill="white" stroke="#666666" points="545.25,-691.61 404.75,-691.61 404.75,-659.61 545.25,-659.61 545.25,-691.61"/>
<text xml:space="preserve" text-anchor="start" x="412.75" y="-678.11" font-family="Helvetica,sans-Serif" font-size="10.00">MainWindow::populateEntity</text>
<text xml:space="preserve" text-anchor="middle" x="475" y="-666.11" font-family="Helvetica,sans-Serif" font-size="10.00">Properties</text>
</a>
</g>
</g>
<!-- Node12&#45;&gt;Node13 -->
<g id="edge14_Node000012_Node000013" class="edge">
<title>Node12&#45;&gt;Node13</title>
<g id="a_edge14_Node000012_Node000013"><a xlink:title=" ">
<path fill="none" stroke="#63b8ff" d="M1650.18,-613.41C1627.11,-629.36 1590.05,-652.75 1554.5,-665.61 1434.27,-709.09 1398.72,-713.61 1270.88,-713.61 1270.88,-713.61 1270.88,-713.61 881.38,-713.61 762.98,-713.61 625.97,-697.34 545.39,-686.09"/>
<polygon fill="#63b8ff" stroke="#63b8ff" points="1652.05,-616.37 1658.21,-607.74 1648.02,-610.64 1652.05,-616.37"/>
</a>
</g>
</g>
<!-- Node12&#45;&gt;Node18 -->
<g id="edge55_Node000012_Node000018" class="edge">
<title>Node12&#45;&gt;Node18</title>
<g id="a_edge55_Node000012_Node000018"><a xlink:title=" ">
<path fill="none" stroke="#63b8ff" d="M1613.99,-609.5C1592.86,-614.1 1568.78,-619.34 1546.48,-624.19"/>
<polygon fill="#63b8ff" stroke="#63b8ff" points="1614.56,-612.96 1623.58,-607.41 1613.07,-606.12 1614.56,-612.96"/>
</a>
</g>
</g>
<!-- Node13&#45;&gt;Node14 -->
<g id="edge15_Node000013_Node000014" class="edge">
<title>Node13&#45;&gt;Node14</title>
<g id="a_edge15_Node000013_Node000014"><a xlink:title=" ">
<path fill="none" stroke="#63b8ff" d="M556.86,-663.37C709.59,-640.25 1038.72,-590.44 1189.95,-567.55"/>
<polygon fill="#63b8ff" stroke="#63b8ff" points="556.59,-659.87 547.23,-664.83 557.64,-666.79 556.59,-659.87"/>
</a>
</g>
</g>
<!-- Node15 -->
<g id="Node000015" class="node">
<title>Node15</title>
<g id="a_Node000015"><a xlink:href="class_main_window.html#a5caeae304b10e5cd9f83ef5c6086310b" target="_top" xlink:title=" ">
<polygon fill="white" stroke="#666666" points="1154.25,-278.61 1002.5,-278.61 1002.5,-246.61 1154.25,-246.61 1154.25,-278.61"/>
<text xml:space="preserve" text-anchor="start" x="1010.5" y="-265.11" font-family="Helvetica,sans-Serif" font-size="10.00">MainWindow::updateProperties</text>
<text xml:space="preserve" text-anchor="middle" x="1078.38" y="-253.11" font-family="Helvetica,sans-Serif" font-size="10.00">Panel</text>
</a>
</g>
</g>
<!-- Node14&#45;&gt;Node15 -->
<g id="edge16_Node000014_Node000015" class="edge">
<title>Node14&#45;&gt;Node15</title>
<g id="a_edge16_Node000014_Node000015"><a xlink:title=" ">
<path fill="none" stroke="#63b8ff" d="M1252.4,-530.13C1214.41,-471.4 1121.54,-327.81 1090.03,-279.09"/>
<polygon fill="#63b8ff" stroke="#63b8ff" points="1249.23,-531.67 1257.59,-538.17 1255.1,-527.87 1249.23,-531.67"/>
</a>
</g>
</g>
<!-- Node15&#45;&gt;Node9 -->
<g id="edge24_Node000015_Node000009" class="edge">
<title>Node15&#45;&gt;Node9</title>
<g id="a_edge24_Node000015_Node000009"><a xlink:title=" ">
<path fill="none" stroke="#63b8ff" d="M1165.77,-261.21C1244.73,-260.06 1364.71,-258.61 1469,-258.61 1870.88,-258.61 1870.88,-258.61 1870.88,-258.61 1987.32,-258.61 2122.42,-238.8 2197.21,-226.07"/>
<polygon fill="#63b8ff" stroke="#63b8ff" points="1165.89,-257.71 1155.94,-261.36 1165.99,-264.71 1165.89,-257.71"/>
</a>
</g>
</g>
<!-- Node16 -->
<g id="Node000016" class="node">
<title>Node16</title>
<g id="a_Node000016"><a xlink:href="class_main_window.html#ad34ae0349abf41aa739b75b85df74126" target="_top" xlink:title=" ">
<polygon fill="white" stroke="#666666" points="953.75,-533.61 811,-533.61 811,-501.61 953.75,-501.61 953.75,-533.61"/>
<text xml:space="preserve" text-anchor="start" x="819" y="-520.11" font-family="Helvetica,sans-Serif" font-size="10.00">MainWindow::onAddAttribute</text>
<text xml:space="preserve" text-anchor="middle" x="882.38" y="-508.11" font-family="Helvetica,sans-Serif" font-size="10.00">OnTreeClicked</text>
</a>
</g>
</g>
<!-- Node15&#45;&gt;Node16 -->
<g id="edge17_Node000015_Node000016" class="edge">
<title>Node15&#45;&gt;Node16</title>
<g id="a_edge17_Node000015_Node000016"><a xlink:title=" ">
<path fill="none" stroke="#63b8ff" d="M1071.74,-290.1C1060.42,-338.29 1030.36,-438.07 966.5,-492.61 962.6,-495.94 958.28,-498.82 953.7,-501.32"/>
<polygon fill="#63b8ff" stroke="#63b8ff" points="1075.12,-291.02 1073.89,-280.5 1068.29,-289.49 1075.12,-291.02"/>
</a>
</g>
</g>
<!-- Node19 -->
<g id="Node000019" class="node">
<title>Node19</title>
<g id="a_Node000019"><a xlink:href="class_main_window.html#ac1e0c79708cf9aa9b7ca1a87697e5b34" target="_top" xlink:title=" ">
<polygon fill="white" stroke="#666666" points="563.25,-121.61 386.75,-121.61 386.75,-101.61 563.25,-101.61 563.25,-121.61"/>
<text xml:space="preserve" text-anchor="middle" x="475" y="-108.11" font-family="Helvetica,sans-Serif" font-size="10.00">MainWindow::onComboBoxChanged</text>
</a>
</g>
</g>
<!-- Node15&#45;&gt;Node19 -->
<g id="edge25_Node000015_Node000019" class="edge">
<title>Node15&#45;&gt;Node19</title>
<g id="a_edge25_Node000015_Node000019"><a xlink:title=" ">
<path fill="none" stroke="#63b8ff" d="M1058.53,-237.64C1038.16,-212.02 1003.58,-172.38 966.5,-146.61 885.33,-90.19 859.06,-78.58 762.25,-58.61 691.3,-43.97 670.21,-44 599.25,-58.61 559.55,-66.78 516.88,-88.33 493.62,-101.29"/>
<polygon fill="#63b8ff" stroke="#63b8ff" points="1055.52,-239.47 1064.44,-245.2 1061.04,-235.16 1055.52,-239.47"/>
</a>
</g>
</g>
<!-- Node23 -->
<g id="Node000023" class="node">
<title>Node23</title>
<g id="a_Node000023"><a xlink:href="class_main_window.html#a0e7ca45ac830893108871185dda813a4" target="_top" xlink:title=" ">
<polygon fill="white" stroke="#666666" points="762.25,-357.61 599.25,-357.61 599.25,-337.61 762.25,-337.61 762.25,-357.61"/>
<text xml:space="preserve" text-anchor="middle" x="680.75" y="-344.11" font-family="Helvetica,sans-Serif" font-size="10.00">MainWindow::onLineEditChanged</text>
</a>
</g>
</g>
<!-- Node15&#45;&gt;Node23 -->
<g id="edge32_Node000015_Node000023" class="edge">
<title>Node15&#45;&gt;Node23</title>
<g id="a_edge32_Node000015_Node000023"><a xlink:title=" ">
<path fill="none" stroke="#63b8ff" d="M1047.58,-285.65C1026.26,-300.76 996.18,-319.37 966.5,-328.61 900.03,-349.3 820.75,-353 762.75,-352.13"/>
<polygon fill="#63b8ff" stroke="#63b8ff" points="1049.48,-288.6 1055.51,-279.89 1045.36,-282.93 1049.48,-288.6"/>
</a>
</g>
</g>
<!-- Node25 -->
<g id="Node000025" class="node">
<title>Node25</title>
<g id="a_Node000025"><a xlink:href="class_main_window.html#a1043995538765eae993ae75217c482e7" target="_top" xlink:title=" ">
<polygon fill="white" stroke="#666666" points="549.75,-278.61 400.25,-278.61 400.25,-246.61 549.75,-246.61 549.75,-278.61"/>
<text xml:space="preserve" text-anchor="start" x="408.25" y="-265.11" font-family="Helvetica,sans-Serif" font-size="10.00">MainWindow::onPropertyValue</text>
<text xml:space="preserve" text-anchor="middle" x="475" y="-253.11" font-family="Helvetica,sans-Serif" font-size="10.00">Changed</text>
</a>
</g>
</g>
<!-- Node15&#45;&gt;Node25 -->
<g id="edge35_Node000015_Node000025" class="edge">
<title>Node15&#45;&gt;Node25</title>
<g id="a_edge35_Node000015_Node000025"><a xlink:title=" ">
<path fill="none" stroke="#63b8ff" d="M990.95,-257.7C872.43,-255.15 661.49,-255.25 549.92,-257.99"/>
<polygon fill="#63b8ff" stroke="#63b8ff" points="990.53,-261.19 1000.61,-257.92 990.69,-254.2 990.53,-261.19"/>
</a>
</g>
</g>
<!-- Node28 -->
<g id="Node000028" class="node">
<title>Node28</title>
<g id="a_Node000028"><a xlink:href="class_main_window.html#a95674d4bfc5fc2aad6df1601f23b1793" target="_top" xlink:title=" ">
<polygon fill="white" stroke="#666666" points="963.5,-483.61 801.25,-483.61 801.25,-451.61 963.5,-451.61 963.5,-483.61"/>
<text xml:space="preserve" text-anchor="start" x="809.25" y="-470.11" font-family="Helvetica,sans-Serif" font-size="10.00">MainWindow::onRemoveAttribute</text>
<text xml:space="preserve" text-anchor="middle" x="882.38" y="-458.11" font-family="Helvetica,sans-Serif" font-size="10.00">OnTreeClicked</text>
</a>
</g>
</g>
<!-- Node15&#45;&gt;Node28 -->
<g id="edge39_Node000015_Node000028" class="edge">
<title>Node15&#45;&gt;Node28</title>
<g id="a_edge39_Node000015_Node000028"><a xlink:title=" ">
<path fill="none" stroke="#63b8ff" d="M1054.14,-287.16C1013.98,-329.6 932.61,-415.58 898.73,-451.39"/>
<polygon fill="#63b8ff" stroke="#63b8ff" points="1056.46,-289.81 1060.79,-280.14 1051.37,-284.99 1056.46,-289.81"/>
</a>
</g>
</g>
<!-- Node29 -->
<g id="Node000029" class="node">
<title>Node29</title>
<g id="a_Node000029"><a xlink:href="class_main_window.html#a44791b85064ecff42c12429c6667e83b" target="_top" xlink:title=" ">
<polygon fill="white" stroke="#666666" points="966.5,-319.61 798.25,-319.61 798.25,-299.61 966.5,-299.61 966.5,-319.61"/>
<text xml:space="preserve" text-anchor="middle" x="882.38" y="-306.11" font-family="Helvetica,sans-Serif" font-size="10.00">MainWindow::onSelectionChanged</text>
</a>
</g>
</g>
<!-- Node15&#45;&gt;Node29 -->
<g id="edge41_Node000015_Node000029" class="edge">
<title>Node15&#45;&gt;Node29</title>
<g id="a_edge41_Node000015_Node000029"><a xlink:title=" ">
<path fill="none" stroke="#63b8ff" d="M998.39,-281.74C973.87,-287.68 947.76,-294.01 926.63,-299.13"/>
<polygon fill="#63b8ff" stroke="#63b8ff" points="999.16,-285.16 1008.05,-279.4 997.51,-278.36 999.16,-285.16"/>
</a>
</g>
</g>
<!-- Node30 -->
<g id="Node000030" class="node">
<title>Node30</title>
<g id="a_Node000030"><a xlink:href="class_main_window.html#af380eeda83d30cd1ecb1419cfd5161d7" target="_top" xlink:title=" ">
<polygon fill="white" stroke="#666666" points="949.25,-187.61 815.5,-187.61 815.5,-155.61 949.25,-155.61 949.25,-187.61"/>
<text xml:space="preserve" text-anchor="start" x="823.5" y="-174.11" font-family="Helvetica,sans-Serif" font-size="10.00">MainWindow::updatesAfter</text>
<text xml:space="preserve" text-anchor="middle" x="882.38" y="-162.11" font-family="Helvetica,sans-Serif" font-size="10.00">ChangingProperty</text>
</a>
</g>
</g>
<!-- Node15&#45;&gt;Node30 -->
<g id="edge43_Node000015_Node000030" class="edge">
<title>Node15&#45;&gt;Node30</title>
<g id="a_edge43_Node000015_Node000030"><a xlink:title=" ">
<path fill="none" stroke="#63b8ff" d="M1031.89,-241.27C997.17,-224.98 950.02,-202.87 918.25,-187.97"/>
<polygon fill="#63b8ff" stroke="#63b8ff" points="1030.33,-244.41 1040.87,-245.49 1033.31,-238.07 1030.33,-244.41"/>
</a>
</g>
</g>
<!-- Node17 -->
<g id="Node000017" class="node">
<title>Node17</title>
<g id="a_Node000017"><a xlink:href="class_main_window.html#a6fd05e9f951dd6e7c2cd6ca815ef9d71" target="_top" xlink:title=" ">
<polygon fill="white" stroke="#666666" points="747.62,-596.61 613.88,-596.61 613.88,-564.61 747.62,-564.61 747.62,-596.61"/>
<text xml:space="preserve" text-anchor="start" x="621.88" y="-583.11" font-family="Helvetica,sans-Serif" font-size="10.00">MainWindow::createButton</text>
<text xml:space="preserve" text-anchor="middle" x="680.75" y="-571.11" font-family="Helvetica,sans-Serif" font-size="10.00">PropertyItem</text>
</a>
</g>
</g>
<!-- Node16&#45;&gt;Node17 -->
<g id="edge18_Node000016_Node000017" class="edge">
<title>Node16&#45;&gt;Node17</title>
<g id="a_edge18_Node000016_Node000017"><a xlink:title=" ">
<path fill="none" stroke="#63b8ff" d="M818.24,-537.53C791.11,-546.1 759.78,-555.98 733.98,-564.12"/>
<polygon fill="#63b8ff" stroke="#63b8ff" points="819.26,-540.88 827.74,-534.53 817.15,-534.21 819.26,-540.88"/>
</a>
</g>
</g>
<!-- Node17&#45;&gt;Node11 -->
<g id="edge20_Node000017_Node000011" class="edge">
<title>Node17&#45;&gt;Node11</title>
<g id="a_edge20_Node000017_Node000011"><a xlink:title=" ">
<path fill="none" stroke="#63b8ff" d="M758.97,-570.64C858.47,-558.34 1036.9,-538.13 1190.25,-530.61 1409.27,-519.87 1668.27,-537.93 1793.53,-548.61"/>
<polygon fill="#63b8ff" stroke="#63b8ff" points="758.82,-567.13 749.33,-571.84 759.68,-574.07 758.82,-567.13"/>
</a>
</g>
</g>
<!-- Node17&#45;&gt;Node12 -->
<g id="edge19_Node000017_Node000012" class="edge">
<title>Node17&#45;&gt;Node12</title>
<g id="a_edge19_Node000017_Node000012"><a xlink:title=" ">
<path fill="none" stroke="#63b8ff" d="M759.44,-581.86C942.93,-584.82 1401.89,-592.23 1590.42,-595.27"/>
<polygon fill="#63b8ff" stroke="#63b8ff" points="759.58,-578.36 749.53,-581.7 759.47,-585.36 759.58,-578.36"/>
</a>
</g>
</g>
<!-- Node17&#45;&gt;Node13 -->
<g id="edge21_Node000017_Node000013" class="edge">
<title>Node17&#45;&gt;Node13</title>
<g id="a_edge21_Node000017_Node000013"><a xlink:title=" ">
<path fill="none" stroke="#63b8ff" d="M634.66,-601.63C597.46,-618.97 545.44,-643.23 511.25,-659.17"/>
<polygon fill="#63b8ff" stroke="#63b8ff" points="635.77,-604.98 643.35,-597.58 632.81,-598.63 635.77,-604.98"/>
</a>
</g>
</g>
<!-- Node17&#45;&gt;Node18 -->
<g id="edge22_Node000017_Node000018" class="edge">
<title>Node17&#45;&gt;Node18</title>
<g id="a_edge22_Node000017_Node000018"><a xlink:title=" ">
<path fill="none" stroke="#63b8ff" d="M741.2,-600.36C759.32,-605.59 779.43,-610.61 798.25,-613.61 1007.43,-646.96 1257.68,-646.57 1385.24,-643.53"/>
<polygon fill="#63b8ff" stroke="#63b8ff" points="742.24,-597.02 731.66,-597.53 740.25,-603.73 742.24,-597.02"/>
</a>
</g>
</g>
<!-- Node18&#45;&gt;Node14 -->
<g id="edge23_Node000018_Node000014" class="edge">
<title>Node18&#45;&gt;Node14</title>
<g id="a_edge23_Node000018_Node000014"><a xlink:title=" ">
<path fill="none" stroke="#63b8ff" d="M1420.56,-619.82C1386.32,-605.14 1341.05,-585.72 1309.3,-572.09"/>
<polygon fill="#63b8ff" stroke="#63b8ff" points="1418.84,-622.9 1429.41,-623.62 1421.6,-616.46 1418.84,-622.9"/>
</a>
</g>
</g>
<!-- Node20 -->
<g id="Node000020" class="node">
<title>Node20</title>
<g id="a_Node000020"><a xlink:href="class_main_window.html#a872e6a76dcbf858ae9d483eceddf90e1" target="_top" xlink:title=" ">
<polygon fill="white" stroke="#666666" points="350,-439.61 196,-439.61 196,-407.61 350,-407.61 350,-439.61"/>
<text xml:space="preserve" text-anchor="start" x="204" y="-426.11" font-family="Helvetica,sans-Serif" font-size="10.00">MainWindow::createComboBox</text>
<text xml:space="preserve" text-anchor="middle" x="273" y="-414.11" font-family="Helvetica,sans-Serif" font-size="10.00">PropertyItem</text>
</a>
</g>
</g>
<!-- Node19&#45;&gt;Node20 -->
<g id="edge26_Node000019_Node000020" class="edge">
<title>Node19&#45;&gt;Node20</title>
<g id="a_edge26_Node000019_Node000020"><a xlink:title=" ">
<path fill="none" stroke="#63b8ff" d="M459.55,-131.01C441.64,-155.37 410.58,-198.69 386.75,-237.61 369.1,-266.44 367.92,-275.49 350.75,-304.61 328.64,-342.09 300.42,-384.63 285.1,-407.31"/>
<polygon fill="#63b8ff" stroke="#63b8ff" points="462.32,-133.14 465.46,-123.02 456.7,-128.98 462.32,-133.14"/>
</a>
</g>
</g>
<!-- Node21 -->
<g id="Node000021" class="node">
<title>Node21</title>
<g id="a_Node000021"><a xlink:href="class_main_window.html#abae03a6494d13d74ed1b2e31ec1f2fc7" target="_top" xlink:title=" ">
<polygon fill="white" stroke="#666666" points="350.75,-96.61 195.25,-96.61 195.25,-64.61 350.75,-64.61 350.75,-96.61"/>
<text xml:space="preserve" text-anchor="start" x="203.25" y="-83.11" font-family="Helvetica,sans-Serif" font-size="10.00">MainWindow::createIconCombo</text>
<text xml:space="preserve" text-anchor="middle" x="273" y="-71.11" font-family="Helvetica,sans-Serif" font-size="10.00">BoxPropertyItem</text>
</a>
</g>
</g>
<!-- Node19&#45;&gt;Node21 -->
<g id="edge29_Node000019_Node000021" class="edge">
<title>Node19&#45;&gt;Node21</title>
<g id="a_edge29_Node000019_Node000021"><a xlink:title=" ">
<path fill="none" stroke="#63b8ff" d="M395.28,-99.41C380.69,-97.15 365.47,-94.79 350.94,-92.53"/>
<polygon fill="#63b8ff" stroke="#63b8ff" points="394.38,-102.81 404.79,-100.88 395.45,-95.89 394.38,-102.81"/>
</a>
</g>
</g>
<!-- Node20&#45;&gt;Node11 -->
<g id="edge27_Node000020_Node000011" class="edge">
<title>Node20&#45;&gt;Node11</title>
<g id="a_edge27_Node000020_Node000011"><a xlink:title=" ">
<path fill="none" stroke="#63b8ff" d="M361.57,-423.61C443.75,-423.61 570.09,-423.61 679.75,-423.61 1471,-423.61 1471,-423.61 1471,-423.61 1616.19,-423.61 1776.72,-503.77 1840.51,-539.16"/>
<polygon fill="#63b8ff" stroke="#63b8ff" points="361.79,-420.11 351.79,-423.61 361.79,-427.11 361.79,-420.11"/>
</a>
</g>
</g>
<!-- Node20&#45;&gt;Node18 -->
<g id="edge28_Node000020_Node000018" class="edge">
<title>Node20&#45;&gt;Node18</title>
<g id="a_edge28_Node000020_Node000018"><a xlink:title=" ">
<path fill="none" stroke="#63b8ff" d="M276.56,-451.1C283.37,-507.55 307.28,-636.57 386.75,-700.61 489.67,-783.55 547.57,-751.61 679.75,-751.61 1079.38,-751.61 1079.38,-751.61 1079.38,-751.61 1215.65,-751.61 1368.83,-688.03 1435.26,-657.11"/>
<polygon fill="#63b8ff" stroke="#63b8ff" points="280.06,-450.96 275.49,-441.41 273.11,-451.73 280.06,-450.96"/>
</a>
</g>
</g>
<!-- Node22 -->
<g id="Node000022" class="node">
<title>Node22</title>
<g id="a_Node000022"><a xlink:href="class_main_window.html#af02df1238ccf49caa1c4099c88dfe465" target="_top" xlink:title=" ">
<polygon fill="white" stroke="#666666" points="159.25,-33.61 0,-33.61 0,-1.61 159.25,-1.61 159.25,-33.61"/>
<text xml:space="preserve" text-anchor="start" x="8" y="-20.11" font-family="Helvetica,sans-Serif" font-size="10.00">MainWindow::populateProperties</text>
<text xml:space="preserve" text-anchor="middle" x="79.62" y="-8.11" font-family="Helvetica,sans-Serif" font-size="10.00">ForConnection</text>
</a>
</g>
</g>
<!-- Node21&#45;&gt;Node22 -->
<g id="edge30_Node000021_Node000022" class="edge">
<title>Node21&#45;&gt;Node22</title>
<g id="a_edge30_Node000021_Node000022"><a xlink:title=" ">
<path fill="none" stroke="#63b8ff" d="M211.33,-60.63C185.28,-52.06 155.21,-42.16 130.49,-34.02"/>
<polygon fill="#63b8ff" stroke="#63b8ff" points="210.19,-63.94 220.78,-63.75 212.38,-57.3 210.19,-63.94"/>
</a>
</g>
</g>
<!-- Node22&#45;&gt;Node15 -->
<g id="edge31_Node000022_Node000015" class="edge">
<title>Node22&#45;&gt;Node15</title>
<g id="a_edge31_Node000022_Node000015"><a xlink:title=" ">
<path fill="none" stroke="#63b8ff" d="M171.17,-11.83C250.87,-7.25 370.09,-1.61 474,-1.61 681.75,-1.61 681.75,-1.61 681.75,-1.61 811.18,-1.61 862.52,14.46 966.5,-62.61 1031.09,-110.48 1062.87,-207.76 1073.33,-246.33"/>
<polygon fill="#63b8ff" stroke="#63b8ff" points="170.99,-8.34 161.21,-12.41 171.4,-15.33 170.99,-8.34"/>
</a>
</g>
</g>
<!-- Node24 -->
<g id="Node000024" class="node">
<title>Node24</title>
<g id="a_Node000024"><a xlink:href="class_main_window.html#ae3b6600dd59da1822ef94bbd5f37f0cc" target="_top" xlink:title=" ">
<polygon fill="white" stroke="#666666" points="545.25,-382.61 404.75,-382.61 404.75,-350.61 545.25,-350.61 545.25,-382.61"/>
<text xml:space="preserve" text-anchor="start" x="412.75" y="-369.11" font-family="Helvetica,sans-Serif" font-size="10.00">MainWindow::createLineEdit</text>
<text xml:space="preserve" text-anchor="middle" x="475" y="-357.11" font-family="Helvetica,sans-Serif" font-size="10.00">PropertyItem</text>
</a>
</g>
</g>
<!-- Node23&#45;&gt;Node24 -->
<g id="edge33_Node000023_Node000024" class="edge">
<title>Node23&#45;&gt;Node24</title>
<g id="a_edge33_Node000023_Node000024"><a xlink:title=" ">
<path fill="none" stroke="#63b8ff" d="M587.65,-356.2C573.5,-357.52 559.09,-358.86 545.54,-360.12"/>
<polygon fill="#63b8ff" stroke="#63b8ff" points="587.79,-359.7 597.42,-355.29 587.14,-352.73 587.79,-359.7"/>
</a>
</g>
</g>
<!-- Node24&#45;&gt;Node18 -->
<g id="edge34_Node000024_Node000018" class="edge">
<title>Node24&#45;&gt;Node18</title>
<g id="a_edge34_Node000024_Node000018"><a xlink:title=" ">
<path fill="none" stroke="#63b8ff" d="M556.99,-372.64C638.79,-378.2 768.78,-385.61 881.38,-385.61 1079.38,-385.61 1079.38,-385.61 1079.38,-385.61 1254.4,-385.61 1412.05,-567.99 1456.54,-624.27"/>
<polygon fill="#63b8ff" stroke="#63b8ff" points="557.26,-369.15 547.04,-371.95 556.78,-376.13 557.26,-369.15"/>
</a>
</g>
</g>
<!-- Node25&#45;&gt;Node15 -->
<g id="edge38_Node000025_Node000015" class="edge">
<title>Node25&#45;&gt;Node15</title>
<g id="a_edge38_Node000025_Node000015"><a xlink:title=" ">
<path fill="none" stroke="#63b8ff" d="M561.38,-267.49C679.23,-270.06 889.88,-269.98 1002.12,-267.26"/>
<polygon fill="#63b8ff" stroke="#63b8ff" points="561.51,-263.99 551.43,-267.26 561.35,-270.99 561.51,-263.99"/>
</a>
</g>
</g>
<!-- Node26 -->
<g id="Node000026" class="node">
<title>Node26</title>
<g id="a_Node000026"><a xlink:href="class_main_window.html#adfa32feecffce3959c99d145fc8b4854" target="_top" xlink:title=" ">
<polygon fill="white" stroke="#666666" points="345.5,-295.61 200.5,-295.61 200.5,-275.61 345.5,-275.61 345.5,-295.61"/>
<text xml:space="preserve" text-anchor="middle" x="273" y="-282.11" font-family="Helvetica,sans-Serif" font-size="10.00">MainWindow::connectSignals</text>
</a>
</g>
</g>
<!-- Node25&#45;&gt;Node26 -->
<g id="edge36_Node000025_Node000026" class="edge">
<title>Node25&#45;&gt;Node26</title>
<g id="a_edge36_Node000025_Node000026"><a xlink:title=" ">
<path fill="none" stroke="#63b8ff" d="M388.49,-272.44C374.25,-274.08 359.6,-275.76 345.74,-277.36"/>
<polygon fill="#63b8ff" stroke="#63b8ff" points="388.77,-275.93 398.31,-271.31 387.97,-268.98 388.77,-275.93"/>
</a>
</g>
</g>
<!-- Node27 -->
<g id="Node000027" class="node">
<title>Node27</title>
<g id="a_Node000027"><a xlink:href="class_main_window.html#a996c5a2b6f77944776856f08ec30858d" target="_top" xlink:title=" ">
<polygon fill="white" stroke="#666666" points="146.88,-295.61 12.38,-295.61 12.38,-275.61 146.88,-275.61 146.88,-295.61"/>
<text xml:space="preserve" text-anchor="middle" x="79.62" y="-282.11" font-family="Helvetica,sans-Serif" font-size="10.00">MainWindow::MainWindow</text>
</a>
</g>
</g>
<!-- Node26&#45;&gt;Node27 -->
<g id="edge37_Node000026_Node000027" class="edge">
<title>Node26&#45;&gt;Node27</title>
<g id="a_edge37_Node000026_Node000027"><a xlink:title=" ">
<path fill="none" stroke="#63b8ff" d="M189.06,-285.61C175.05,-285.61 160.67,-285.61 147.14,-285.61"/>
<polygon fill="#63b8ff" stroke="#63b8ff" points="188.68,-289.11 198.68,-285.61 188.68,-282.11 188.68,-289.11"/>
</a>
</g>
</g>
<!-- Node28&#45;&gt;Node17 -->
<g id="edge40_Node000028_Node000017" class="edge">
<title>Node28&#45;&gt;Node17</title>
<g id="a_edge40_Node000028_Node000017"><a xlink:title=" ">
<path fill="none" stroke="#63b8ff" d="M807.72,-488.18C804.48,-489.58 801.31,-491.06 798.25,-492.61 759.6,-512.22 720.6,-544.9 698.97,-564.43"/>
<polygon fill="#63b8ff" stroke="#63b8ff" points="808.86,-491.5 816.85,-484.54 806.27,-485 808.86,-491.5"/>
</a>
</g>
</g>
<!-- Node29&#45;&gt;Node26 -->
<g id="edge42_Node000029_Node000026" class="edge">
<title>Node29&#45;&gt;Node26</title>
<g id="a_edge42_Node000029_Node000026"><a xlink:title=" ">
<path fill="none" stroke="#63b8ff" d="M786.71,-305.87C664.72,-301.05 455.32,-292.77 345.69,-288.44"/>
<polygon fill="#63b8ff" stroke="#63b8ff" points="786.24,-309.35 796.37,-306.25 786.51,-302.36 786.24,-309.35"/>
</a>
</g>
</g>
<!-- Node30&#45;&gt;Node8 -->
<g id="edge50_Node000030_Node000008" class="edge">
<title>Node30&#45;&gt;Node8</title>
<g id="a_edge50_Node000030_Node000008"><a xlink:title=" ">
<path fill="none" stroke="#63b8ff" d="M960.88,-161.38C1038.61,-152.02 1161.82,-139.61 1268.88,-139.61 2058.25,-139.61 2058.25,-139.61 2058.25,-139.61 2169.51,-139.61 2297.43,-154.41 2377.9,-165.53"/>
<polygon fill="#63b8ff" stroke="#63b8ff" points="960.75,-157.87 951.25,-162.55 961.6,-164.82 960.75,-157.87"/>
</a>
</g>
</g>
<!-- Node30&#45;&gt;Node9 -->
<g id="edge51_Node000030_Node000009" class="edge">
<title>Node30&#45;&gt;Node9</title>
<g id="a_edge51_Node000030_Node000009"><a xlink:title=" ">
<path fill="none" stroke="#63b8ff" d="M960.68,-173.52C1038.51,-175.27 1162.01,-177.61 1268.88,-177.61 1870.88,-177.61 1870.88,-177.61 1870.88,-177.61 1982.98,-177.61 2112.62,-193.88 2188.85,-205.12"/>
<polygon fill="#63b8ff" stroke="#63b8ff" points="961.13,-170.03 951.05,-173.3 960.97,-177.03 961.13,-170.03"/>
</a>
</g>
</g>
<!-- Node30&#45;&gt;Node19 -->
<g id="edge52_Node000030_Node000019" class="edge">
<title>Node30&#45;&gt;Node19</title>
<g id="a_edge52_Node000030_Node000019"><a xlink:title=" ">
<path fill="none" stroke="#63b8ff" d="M804.08,-154.39C790.19,-151.58 775.82,-148.86 762.25,-146.61 695.94,-135.62 620.46,-126.53 563.66,-120.37"/>
<polygon fill="#63b8ff" stroke="#63b8ff" points="803.11,-157.76 813.61,-156.35 804.52,-150.91 803.11,-157.76"/>
</a>
</g>
</g>
<!-- Node30&#45;&gt;Node23 -->
<g id="edge53_Node000030_Node000023" class="edge">
<title>Node30&#45;&gt;Node23</title>
<g id="a_edge53_Node000030_Node000023"><a xlink:title=" ">
<path fill="none" stroke="#63b8ff" d="M854.45,-195.34C810.3,-234.27 724.31,-310.08 693.27,-337.45"/>
<polygon fill="#63b8ff" stroke="#63b8ff" points="856.63,-198.09 861.82,-188.85 852,-192.84 856.63,-198.09"/>
</a>
</g>
</g>
<!-- Node30&#45;&gt;Node25 -->
<g id="edge54_Node000030_Node000025" class="edge">
<title>Node30&#45;&gt;Node25</title>
<g id="a_edge54_Node000030_Node000025"><a xlink:title=" ">
<path fill="none" stroke="#63b8ff" d="M804.34,-188.9C730.96,-205.37 621.29,-229.99 549.21,-246.17"/>
<polygon fill="#63b8ff" stroke="#63b8ff" points="804.87,-192.37 813.87,-186.76 803.34,-185.54 804.87,-192.37"/>
</a>
</g>
</g>
<!-- Node31 -->
<g id="Node000031" class="node">
<title>Node31</title>
<g id="a_Node000031"><a xlink:href="class_main_window.html#a9ed390421f6755b891cfc651d173db7b" target="_top" xlink:title=" ">
<polygon fill="white" stroke="#666666" points="752.5,-187.61 609,-187.61 609,-155.61 752.5,-155.61 752.5,-187.61"/>
<text xml:space="preserve" text-anchor="start" x="617" y="-174.11" font-family="Helvetica,sans-Serif" font-size="10.00">MainWindow::handleAttribute</text>
<text xml:space="preserve" text-anchor="middle" x="680.75" y="-162.11" font-family="Helvetica,sans-Serif" font-size="10.00">PropertyChange</text>
</a>
</g>
</g>
<!-- Node30&#45;&gt;Node31 -->
<g id="edge44_Node000030_Node000031" class="edge">
<title>Node30&#45;&gt;Node31</title>
<g id="a_edge44_Node000030_Node000031"><a xlink:title=" ">
<path fill="none" stroke="#63b8ff" d="M803.75,-171.61C787.01,-171.61 769.39,-171.61 752.91,-171.61"/>
<polygon fill="#63b8ff" stroke="#63b8ff" points="803.67,-175.11 813.67,-171.61 803.67,-168.11 803.67,-175.11"/>
</a>
</g>
</g>
<!-- Node32 -->
<g id="Node000032" class="node">
<title>Node32</title>
<g id="a_Node000032"><a xlink:href="class_main_window.html#aa69c4b7c558b2fb3922adf75af48330a" target="_top" xlink:title=" ">
<polygon fill="white" stroke="#666666" points="761.12,-99.61 600.38,-99.61 600.38,-67.61 761.12,-67.61 761.12,-99.61"/>
<text xml:space="preserve" text-anchor="start" x="608.38" y="-86.11" font-family="Helvetica,sans-Serif" font-size="10.00">MainWindow::handleRelationship</text>
<text xml:space="preserve" text-anchor="middle" x="680.75" y="-74.11" font-family="Helvetica,sans-Serif" font-size="10.00">EndCardinalityChange</text>
</a>
</g>
</g>
<!-- Node30&#45;&gt;Node32 -->
<g id="edge48_Node000030_Node000032" class="edge">
<title>Node30&#45;&gt;Node32</title>
<g id="a_edge48_Node000030_Node000032"><a xlink:title=" ">
<path fill="none" stroke="#63b8ff" d="M839.39,-149.94C816.78,-138.58 788.26,-124.76 762.25,-113.61 751.28,-108.91 739.31,-104.22 728.03,-99.99"/>
<polygon fill="#63b8ff" stroke="#63b8ff" points="837.8,-153.06 848.31,-154.45 840.96,-146.81 837.8,-153.06"/>
</a>
</g>
</g>
<!-- Node31&#45;&gt;Node9 -->
<g id="edge45_Node000031_Node000009" class="edge">
<title>Node31&#45;&gt;Node9</title>
<g id="a_edge45_Node000031_Node000009"><a xlink:title=" ">
<path fill="none" stroke="#63b8ff" d="M761.58,-190.32C773.81,-192.73 786.33,-194.93 798.25,-196.61 921.38,-213.92 953.03,-215.61 1077.38,-215.61 1870.88,-215.61 1870.88,-215.61 1870.88,-215.61 1973.11,-215.61 2090.67,-215.61 2168.42,-215.61"/>
<polygon fill="#63b8ff" stroke="#63b8ff" points="762.43,-186.92 751.94,-188.36 761.04,-193.78 762.43,-186.92"/>
</a>
</g>
</g>
<!-- Node31&#45;&gt;Node19 -->
<g id="edge46_Node000031_Node000019" class="edge">
<title>Node31&#45;&gt;Node19</title>
<g id="a_edge46_Node000031_Node000019"><a xlink:title=" ">
<path fill="none" stroke="#63b8ff" d="M613.06,-151.97C579.26,-142.02 539.57,-130.33 511.63,-122.1"/>
<polygon fill="#63b8ff" stroke="#63b8ff" points="611.77,-155.24 622.35,-154.71 613.75,-148.52 611.77,-155.24"/>
</a>
</g>
</g>
<!-- Node31&#45;&gt;Node25 -->
<g id="edge47_Node000031_Node000025" class="edge">
<title>Node31&#45;&gt;Node25</title>
<g id="a_edge47_Node000031_Node000025"><a xlink:title=" ">
<path fill="none" stroke="#63b8ff" d="M622.43,-192.14C614.59,-195.19 606.69,-198.39 599.25,-201.61 567.26,-215.44 531.67,-233.34 506.99,-246.16"/>
<polygon fill="#63b8ff" stroke="#63b8ff" points="623.52,-195.47 631.61,-188.63 621.02,-188.93 623.52,-195.47"/>
</a>
</g>
</g>
<!-- Node32&#45;&gt;Node19 -->
<g id="edge49_Node000032_Node000019" class="edge">
<title>Node32&#45;&gt;Node19</title>
<g id="a_edge49_Node000032_Node000019"><a xlink:title=" ">
<path fill="none" stroke="#63b8ff" d="M588.93,-96.09C576.68,-97.77 564.22,-99.48 552.26,-101.13"/>
<polygon fill="#63b8ff" stroke="#63b8ff" points="589.17,-99.59 598.6,-94.76 588.22,-92.65 589.17,-99.59"/>
</a>
</g>
</g>
</g>
</svg>

<g id="navigator" transform="translate(0 0)" fill="#404254">
  <rect fill="#f2f5e9" fill-opacity="0.5" stroke="#606060" stroke-width=".5" x="0" y="0" width="60" height="60"/>
  <use id="zoomplus" xlink:href="#zoomPlus" x="17" y="9" onmousedown="handleZoom(evt,'in')"/>
  <use id="zoomminus" xlink:href="#zoomMin" x="42" y="9" onmousedown="handleZoom(evt,'out')"/>
  <use id="reset" xlink:href="#resetDef" x="30" y="36" onmousedown="handleReset()"/>
   <use id="arrowup" xlink:href="#arrowUp" x="0" y="0" onmousedown="handlePan(0,-1)"/>
  <use id="arrowright" xlink:href="#arrowRight" x="0" y="0" onmousedown="handlePan(1,0)"/>
  <use id="arrowdown" xlink:href="#arrowDown" x="0" y="0" onmousedown="handlePan(0,1)"/>
  <use id="arrowleft" xlink:href="#arrowLeft" x="0" y="0" onmousedown="handlePan(-1,0)"/>
</g>
<svg viewBox="0 0 15 15" width="100%" height="30px" preserveAspectRatio="xMaxYMin meet">
 <g id="arrow_out" transform="scale(0.3 0.3)">
  <a xlink:href="class_relationship_end_a6e9e40441ae8b3ce493d71756d692a0c_icgraph_org.svg" target="_base">
   <rect id="button" ry="5" rx="5" y="6" x="6" height="38" width="38"
        fill="#f2f5e9" fill-opacity="0.5" stroke="#606060" stroke-width="1.0"/>
   <path id="arrow"
     d="M 11.500037,31.436501 C 11.940474,20.09759 22.043105,11.32322 32.158766,21.979434 L 37.068811,17.246167 C 37.068811,17.246167 37.088388,32 37.088388,32 L 22.160133,31.978069 C 22.160133,31.978069 26.997745,27.140456 26.997745,27.140456 C 18.528582,18.264221 13.291696,25.230495 11.500037,31.436501 z"
     style="fill:#404040;"/>
  </a>
 </g>
</svg>

<style type='text/css'>
<![CDATA[
[data-mouse-over-selected='false'] { opacity: 0.7; }
[data-mouse-over-selected='true']  { opacity: 1.0; }
]]>
</style>
<script type="application/ecmascript"><![CDATA[
document.addEventListener('DOMContentLoaded', (event) => {
  highlightEdges();
  highlightAdjacentNodes();
});
]]></script>
</svg>
