<?xml version="1.0" encoding="UTF-8" standalone="no"?>
<!DOCTYPE svg PUBLIC "-//W3C//DTD SVG 1.1//EN"
 "http://www.w3.org/Graphics/SVG/1.1/DTD/svg11.dtd">
<!-- Generated by graphviz version 14.1.1 (20251213.1925)
 -->
<!-- Title: RelationshipConnectionLineGraphicsItem::paint Pages: 1 -->
<!--zoomable 190 -->

<svg id="main" version="1.1" xmlns="http://www.w3.org/2000/svg" xmlns:xlink="http://www.w3.org/1999/xlink" xml:space="preserve" onload="init(evt)">

<style type="text/css"><![CDATA[
.node, .edge {opacity: 0.7;}
.node.selected, .edge.selected {opacity: 1;}
.edge:hover path { stroke: red; }
.edge:hover polygon { stroke: red; fill: red; }
]]></style>

<defs>
  <circle id="rim" cx="0" cy="0" r="7"/>
  <circle id="rim2" cx="0" cy="0" r="3.5"/>
  <g id="zoomPlus">
    <use xlink:href="#rim" fill="#404040"><set attributeName="fill" to="#808080" begin="zoomplus.mouseover" end="zoomplus.mouseout"/></use>
    <path d="M-4,0h8M0,-4v8" fill="none" stroke="white" stroke-width="1.5" pointer-events="none"/>
  </g>
  <g id="zoomMin">
    <use xlink:href="#rim" fill="#404040"><set attributeName="fill" to="#808080" begin="zoomminus.mouseover" end="zoomminus.mouseout"/></use>
    <path d="M-4,0h8" fill="none" stroke="white" stroke-width="1.5" pointer-events="none"/>
  </g>
  <g id="arrowUp" transform="translate(30 24)">
    <use xlink:href="#rim"/>
    <path pointer-events="none" fill="none" stroke="white" stroke-width="1.5" d="M0,-3.0v7 M-2.5,-0.5L0,-3.0L2.5,-0.5"/>
  </g>
  <g id="arrowRight" transform="rotate(90) translate(36 -43)">
    <use xlink:href="#rim"/>
    <path pointer-events="none" fill="none" stroke="white" stroke-width="1.5" d="M0,-3.0v7 M-2.5,-0.5L0,-3.0L2.5,-0.5"/>
  </g>
  <g id="arrowDown" transform="rotate(180) translate(-30 -48)">
    <use xlink:href="#rim"/>
    <path pointer-events="none" fill="none" stroke="white" stroke-width="1.5" d="M0,-3.0v7 M-2.5,-0.5L0,-3.0L2.5,-0.5"/>
  </g>
  <g id="arrowLeft" transform="rotate(270) translate(-36 17)">
    <use xlink:href="#rim"/>
    <path pointer-events="none" fill="none" stroke="white" stroke-width="1.5" d="M0,-3.0v7 M-2.5,-0.5L0,-3.0L2.5,-0.5"/>
  </g>
  <g id="resetDef">
    <use xlink:href="#rim2" fill="#404040"><set attributeName="fill" to="#808080" begin="reset.mouseover" end="reset.mouseout"/></use>
  </g>
</defs>
<script type="application/ecmascript">
var viewWidth = 709;
var viewHeight = 190;
var sectionId = 'dynsection-9';
</script>
<script type="application/ecmascript" xlink:href="svg.min.js"/>
<svg id="graph" class="graph">
<g id="viewport">
<title>RelationshipConnectionLineGraphicsItem::paint</title>
<!-- Node1 -->
<g id="Node000001" class="node">
<title>Node1</title>
<g id="a_Node000001"><a xlink:title=" ">
<polygon fill="#999999" stroke="#666666" points="137.5,-82 0,-82 0,-50 137.5,-50 137.5,-82"/>
<text xml:space="preserve" text-anchor="start" x="8" y="-68.5" font-family="Helvetica,sans-Serif" font-size="10.00">RelationshipConnectionLine</text>
<text xml:space="preserve" text-anchor="middle" x="68.75" y="-56.5" font-family="Helvetica,sans-Serif" font-size="10.00">GraphicsItem::paint</text>
</a>
</g>
</g>
<!-- Node2 -->
<g id="Node000002" class="node">
<title>Node2</title>
<g id="a_Node000002"><a xlink:href="class_connection_graphics_item.html#aa15031a5befb8eb5f1287e55ce484aa2" target="_top" xlink:title=" ">
<polygon fill="white" stroke="#666666" points="310.62,-132 186.62,-132 186.62,-100 310.62,-100 310.62,-132"/>
<text xml:space="preserve" text-anchor="start" x="194.62" y="-118.5" font-family="Helvetica,sans-Serif" font-size="10.00">ConnectionGraphicsItem</text>
<text xml:space="preserve" text-anchor="middle" x="248.62" y="-106.5" font-family="Helvetica,sans-Serif" font-size="10.00">::paint</text>
</a>
</g>
</g>
<!-- Node1&#45;&gt;Node2 -->
<g id="edge1_Node000001_Node000002" class="edge">
<title>Node1&#45;&gt;Node2</title>
<g id="a_edge1_Node000001_Node000002"><a xlink:title=" ">
<path fill="none" stroke="#63b8ff" d="M127.99,-82.37C144.03,-86.88 161.59,-91.82 178.2,-96.48"/>
<polygon fill="#63b8ff" stroke="#63b8ff" points="176.92,-99.76 187.49,-99.1 178.81,-93.02 176.92,-99.76"/>
</a>
</g>
</g>
<!-- Node9 -->
<g id="Node000009" class="node">
<title>Node9</title>
<g id="a_Node000009"><a xlink:href="class_relationship_connection_line_graphics_item.html#aad965087c38d493bb3281d96d961b05f" target="_top" xlink:title=" ">
<polygon fill="white" stroke="#666666" points="322.62,-82 174.62,-82 174.62,-50 322.62,-50 322.62,-82"/>
<text xml:space="preserve" text-anchor="start" x="182.62" y="-68.5" font-family="Helvetica,sans-Serif" font-size="10.00">RelationshipConnectionLine</text>
<text xml:space="preserve" text-anchor="middle" x="248.62" y="-56.5" font-family="Helvetica,sans-Serif" font-size="10.00">GraphicsItem::paintCardinality</text>
</a>
</g>
</g>
<!-- Node1&#45;&gt;Node9 -->
<g id="edge8_Node000001_Node000009" class="edge">
<title>Node1&#45;&gt;Node9</title>
<g id="a_edge8_Node000001_Node000009"><a xlink:title=" ">
<path fill="none" stroke="#63b8ff" d="M137.76,-66C145.98,-66 154.46,-66 162.89,-66"/>
<polygon fill="#63b8ff" stroke="#63b8ff" points="162.81,-69.5 172.81,-66 162.81,-62.5 162.81,-69.5"/>
</a>
</g>
</g>
<!-- Node10 -->
<g id="Node000010" class="node">
<title>Node10</title>
<g id="a_Node000010"><a xlink:href="class_relationship_connection_line_graphics_item.html#aaa1cdc4e98f9e99905c28c35eddbd515" target="_top" xlink:title=" ">
<polygon fill="white" stroke="#666666" points="323.75,-32 173.5,-32 173.5,0 323.75,0 323.75,-32"/>
<text xml:space="preserve" text-anchor="start" x="181.5" y="-18.5" font-family="Helvetica,sans-Serif" font-size="10.00">RelationshipConnectionLine</text>
<text xml:space="preserve" text-anchor="middle" x="248.62" y="-6.5" font-family="Helvetica,sans-Serif" font-size="10.00">GraphicsItem::paintDoubleLine</text>
</a>
</g>
</g>
<!-- Node1&#45;&gt;Node10 -->
<g id="edge9_Node000001_Node000010" class="edge">
<title>Node1&#45;&gt;Node10</title>
<g id="a_edge9_Node000001_Node000010"><a xlink:title=" ">
<path fill="none" stroke="#63b8ff" d="M127.99,-49.63C144.03,-45.12 161.59,-40.18 178.2,-35.52"/>
<polygon fill="#63b8ff" stroke="#63b8ff" points="178.81,-38.98 187.49,-32.9 176.92,-32.24 178.81,-38.98"/>
</a>
</g>
</g>
<!-- Node3 -->
<g id="Node000003" class="node">
<title>Node3</title>
<g id="a_Node000003"><a xlink:href="class_connection_graphics_item.html#ab2ce5adc2d399026c9393fca5d8b6714" target="_top" xlink:title=" ">
<polygon fill="white" stroke="#666666" points="483.75,-182 359.75,-182 359.75,-150 483.75,-150 483.75,-182"/>
<text xml:space="preserve" text-anchor="start" x="367.75" y="-168.5" font-family="Helvetica,sans-Serif" font-size="10.00">ConnectionGraphicsItem</text>
<text xml:space="preserve" text-anchor="middle" x="421.75" y="-156.5" font-family="Helvetica,sans-Serif" font-size="10.00">::createBezierPath</text>
</a>
</g>
</g>
<!-- Node2&#45;&gt;Node3 -->
<g id="edge2_Node000002_Node000003" class="edge">
<title>Node2&#45;&gt;Node3</title>
<g id="a_edge2_Node000002_Node000003"><a xlink:title=" ">
<path fill="none" stroke="#63b8ff" d="M305.66,-132.37C320.94,-136.84 337.66,-141.72 353.5,-146.35"/>
<polygon fill="#63b8ff" stroke="#63b8ff" points="352.27,-149.64 362.85,-149.08 354.23,-142.92 352.27,-149.64"/>
</a>
</g>
</g>
<!-- Node5 -->
<g id="Node000005" class="node">
<title>Node5</title>
<g id="a_Node000005"><a xlink:href="class_connection_graphics_item.html#a3384a6134ae5a7526fc01382a58ac982" target="_top" xlink:title=" ">
<polygon fill="white" stroke="#666666" points="483.75,-132 359.75,-132 359.75,-100 483.75,-100 483.75,-132"/>
<text xml:space="preserve" text-anchor="start" x="367.75" y="-118.5" font-family="Helvetica,sans-Serif" font-size="10.00">ConnectionGraphicsItem</text>
<text xml:space="preserve" text-anchor="middle" x="421.75" y="-106.5" font-family="Helvetica,sans-Serif" font-size="10.00">::createOrthogonalPath</text>
</a>
</g>
</g>
<!-- Node2&#45;&gt;Node5 -->
<g id="edge4_Node000002_Node000005" class="edge">
<title>Node2&#45;&gt;Node5</title>
<g id="a_edge4_Node000002_Node000005"><a xlink:title=" ">
<path fill="none" stroke="#63b8ff" d="M310.92,-116C322.96,-116 335.7,-116 348.08,-116"/>
<polygon fill="#63b8ff" stroke="#63b8ff" points="347.79,-119.5 357.79,-116 347.79,-112.5 347.79,-119.5"/>
</a>
</g>
</g>
<!-- Node8 -->
<g id="Node000008" class="node">
<title>Node8</title>
<g id="a_Node000008"><a xlink:href="class_connection_graphics_item.html#ae9707a652e7e27ec333eaed6699b430b" target="_top" xlink:title=" ">
<polygon fill="white" stroke="#666666" points="483.75,-82 359.75,-82 359.75,-50 483.75,-50 483.75,-82"/>
<text xml:space="preserve" text-anchor="start" x="367.75" y="-68.5" font-family="Helvetica,sans-Serif" font-size="10.00">ConnectionGraphicsItem</text>
<text xml:space="preserve" text-anchor="middle" x="421.75" y="-56.5" font-family="Helvetica,sans-Serif" font-size="10.00">::createStraightPath</text>
</a>
</g>
</g>
<!-- Node2&#45;&gt;Node8 -->
<g id="edge7_Node000002_Node000008" class="edge">
<title>Node2&#45;&gt;Node8</title>
<g id="a_edge7_Node000002_Node000008"><a xlink:title=" ">
<path fill="none" stroke="#63b8ff" d="M305.66,-99.63C320.94,-95.16 337.66,-90.28 353.5,-85.65"/>
<polygon fill="#63b8ff" stroke="#63b8ff" points="354.23,-89.08 362.85,-82.92 352.27,-82.36 354.23,-89.08"/>
</a>
</g>
</g>
<!-- Node4 -->
<g id="Node000004" class="node">
<title>Node4</title>
<g id="a_Node000004"><a xlink:href="class_connection_graphics_item.html#aff69c763accf5e57bbc119acdf8597ad" target="_top" xlink:title=" ">
<polygon fill="white" stroke="#666666" points="698.5,-182 522,-182 522,-150 698.5,-150 698.5,-182"/>
<text xml:space="preserve" text-anchor="start" x="530" y="-168.5" font-family="Helvetica,sans-Serif" font-size="10.00">ConnectionGraphicsItem</text>
<text xml:space="preserve" text-anchor="middle" x="610.25" y="-156.5" font-family="Helvetica,sans-Serif" font-size="10.00">::calculateControlPointFromDirection</text>
</a>
</g>
</g>
<!-- Node3&#45;&gt;Node4 -->
<g id="edge3_Node000003_Node000004" class="edge">
<title>Node3&#45;&gt;Node4</title>
<g id="a_edge3_Node000003_Node000004"><a xlink:title=" ">
<path fill="none" stroke="#63b8ff" d="M484.08,-166C492.51,-166 501.34,-166 510.24,-166"/>
<polygon fill="#63b8ff" stroke="#63b8ff" points="510.02,-169.5 520.02,-166 510.02,-162.5 510.02,-169.5"/>
</a>
</g>
</g>
<!-- Node6 -->
<g id="Node000006" class="node">
<title>Node6</title>
<g id="a_Node000006"><a xlink:href="class_connection_graphics_item.html#a893317615dd09c41cceec37be3ad9f6f" target="_top" xlink:title=" ">
<polygon fill="white" stroke="#666666" points="700.75,-132 519.75,-132 519.75,-100 700.75,-100 700.75,-132"/>
<text xml:space="preserve" text-anchor="start" x="527.75" y="-118.5" font-family="Helvetica,sans-Serif" font-size="10.00">ConnectionGraphicsItem</text>
<text xml:space="preserve" text-anchor="middle" x="610.25" y="-106.5" font-family="Helvetica,sans-Serif" font-size="10.00">::createOrthogonalPathWithDirections</text>
</a>
</g>
</g>
<!-- Node5&#45;&gt;Node6 -->
<g id="edge5_Node000005_Node000006" class="edge">
<title>Node5&#45;&gt;Node6</title>
<g id="a_edge5_Node000005_Node000006"><a xlink:title=" ">
<path fill="none" stroke="#63b8ff" d="M484.08,-116C491.89,-116 500.04,-116 508.27,-116"/>
<polygon fill="#63b8ff" stroke="#63b8ff" points="508,-119.5 518,-116 508,-112.5 508,-119.5"/>
</a>
</g>
</g>
<!-- Node7 -->
<g id="Node000007" class="node">
<title>Node7</title>
<g id="a_Node000007"><a xlink:href="class_connection_graphics_item.html#a0e5a08b33a79f09561ec2a6d9348a292" target="_top" xlink:title=" ">
<polygon fill="white" stroke="#666666" points="683.5,-82 537,-82 537,-50 683.5,-50 683.5,-82"/>
<text xml:space="preserve" text-anchor="start" x="545" y="-68.5" font-family="Helvetica,sans-Serif" font-size="10.00">ConnectionGraphicsItem</text>
<text xml:space="preserve" text-anchor="middle" x="610.25" y="-56.5" font-family="Helvetica,sans-Serif" font-size="10.00">::createSimpleOrthogonalPath</text>
</a>
</g>
</g>
<!-- Node5&#45;&gt;Node7 -->
<g id="edge6_Node000005_Node000007" class="edge">
<title>Node5&#45;&gt;Node7</title>
<g id="a_edge6_Node000005_Node000007"><a xlink:title=" ">
<path fill="none" stroke="#63b8ff" d="M484.08,-99.56C501.04,-95.01 519.62,-90.03 537.14,-85.33"/>
<polygon fill="#63b8ff" stroke="#63b8ff" points="537.67,-88.81 546.43,-82.84 535.86,-82.05 537.67,-88.81"/>
</a>
</g>
</g>
</g>
</svg>

<g id="navigator" transform="translate(0 0)" fill="#404254">
  <rect fill="#f2f5e9" fill-opacity="0.5" stroke="#606060" stroke-width=".5" x="0" y="0" width="60" height="60"/>
  <use id="zoomplus" xlink:href="#zoomPlus" x="17" y="9" onmousedown="handleZoom(evt,'in')"/>
  <use id="zoomminus" xlink:href="#zoomMin" x="42" y="9" onmousedown="handleZoom(evt,'out')"/>
  <use id="reset" xlink:href="#resetDef" x="30" y="36" onmousedown="handleReset()"/>
   <use id="arrowup" xlink:href="#arrowUp" x="0" y="0" onmousedown="handlePan(0,-1)"/>
  <use id="arrowright" xlink:href="#arrowRight" x="0" y="0" onmousedown="handlePan(1,0)"/>
  <use id="arrowdown" xlink:href="#arrowDown" x="0" y="0" onmousedown="handlePan(0,1)"/>
  <use id="arrowleft" xlink:href="#arrowLeft" x="0" y="0" onmousedown="handlePan(-1,0)"/>
</g>
<svg viewBox="0 0 15 15" width="100%" height="30px" preserveAspectRatio="xMaxYMin meet">
 <g id="arrow_out" transform="scale(0.3 0.3)">
  <a xlink:href="class_relationship_connection_line_graphics_item_a4c6ae57b385298b1fadf364b34d03829_cgraph_org.svg" target="_base">
   <rect id="button" ry="5" rx="5" y="6" x="6" height="38" width="38"
        fill="#f2f5e9" fill-opacity="0.5" stroke="#606060" stroke-width="1.0"/>
   <path id="arrow"
     d="M 11.500037,31.436501 C 11.940474,20.09759 22.043105,11.32322 32.158766,21.979434 L 37.068811,17.246167 C 37.068811,17.246167 37.088388,32 37.088388,32 L 22.160133,31.978069 C 22.160133,31.978069 26.997745,27.140456 26.997745,27.140456 C 18.528582,18.264221 13.291696,25.230495 11.500037,31.436501 z"
     style="fill:#404040;"/>
  </a>
 </g>
</svg>

<style type='text/css'>
<![CDATA[
[data-mouse-over-selected='false'] { opacity: 0.7; }
[data-mouse-over-selected='true']  { opacity: 1.0; }
]]>
</style>
<script type="application/ecmascript"><![CDATA[
document.addEventListener('DOMContentLoaded', (event) => {
  highlightEdges();
  highlightAdjacentNodes();
});
]]></script>
</svg>
