<?xml version="1.0" encoding="UTF-8" standalone="no"?>
<!DOCTYPE svg PUBLIC "-//W3C//DTD SVG 1.1//EN"
 "http://www.w3.org/Graphics/SVG/1.1/DTD/svg11.dtd">
<!-- Generated by graphviz version 14.1.1 (20251213.1925)
 -->
<!-- Title: BezierControlPoint Pages: 1 -->
<svg width="473pt" height="1361pt"
 viewBox="0.00 0.00 473.00 1361.00" xmlns="http://www.w3.org/2000/svg" xmlns:xlink="http://www.w3.org/1999/xlink">
<g id="graph0" class="graph" transform="scale(1 1) rotate(0) translate(4 1357)">
<title>BezierControlPoint</title>
<!-- Node1 -->
<g id="Node000001" class="node">
<title>Node1</title>
<g id="a_Node000001"><a xlink:title="Interactive control point for Bezier curve manipulation in connections.">
<polygon fill="#999999" stroke="none" points="441.6,-774 326.85,-774 326.85,-610 441.6,-610 441.6,-774"/>
<text xml:space="preserve" text-anchor="start" x="343.35" y="-760.5" font-family="Helvetica,sans-Serif" font-size="10.00">BezierControlPoint</text>
<text xml:space="preserve" text-anchor="start" x="332.35" y="-744.5" font-family="Helvetica,sans-Serif" font-size="10.00">&#45;</text>
<text xml:space="preserve" text-anchor="start" x="340.85" y="-744.5" font-family="Helvetica,sans-Serif" font-size="10.00">m_type</text>
<text xml:space="preserve" text-anchor="start" x="332.35" y="-728.5" font-family="Helvetica,sans-Serif" font-size="10.00">&#45;</text>
<text xml:space="preserve" text-anchor="start" x="340.85" y="-728.5" font-family="Helvetica,sans-Serif" font-size="10.00">m_isDragging</text>
<text xml:space="preserve" text-anchor="start" x="330.85" y="-712.5" font-family="Helvetica,sans-Serif" font-size="10.00">+</text>
<text xml:space="preserve" text-anchor="start" x="340.85" y="-712.5" font-family="Helvetica,sans-Serif" font-size="10.00">BezierControlPoint()</text>
<text xml:space="preserve" text-anchor="start" x="330.85" y="-696.5" font-family="Helvetica,sans-Serif" font-size="10.00">+</text>
<text xml:space="preserve" text-anchor="start" x="340.85" y="-696.5" font-family="Helvetica,sans-Serif" font-size="10.00">updatePosition()</text>
<text xml:space="preserve" text-anchor="start" x="331.23" y="-680.5" font-family="Helvetica,sans-Serif" font-size="10.00">#</text>
<text xml:space="preserve" text-anchor="start" x="340.85" y="-680.5" font-family="Helvetica,sans-Serif" font-size="10.00">mousePressEvent()</text>
<text xml:space="preserve" text-anchor="start" x="331.23" y="-664.5" font-family="Helvetica,sans-Serif" font-size="10.00">#</text>
<text xml:space="preserve" text-anchor="start" x="340.85" y="-664.5" font-family="Helvetica,sans-Serif" font-size="10.00">mouseMoveEvent()</text>
<text xml:space="preserve" text-anchor="start" x="331.23" y="-648.5" font-family="Helvetica,sans-Serif" font-size="10.00">#</text>
<text xml:space="preserve" text-anchor="start" x="340.85" y="-648.5" font-family="Helvetica,sans-Serif" font-size="10.00">mouseReleaseEvent()</text>
<text xml:space="preserve" text-anchor="start" x="331.23" y="-632.5" font-family="Helvetica,sans-Serif" font-size="10.00">#</text>
<text xml:space="preserve" text-anchor="start" x="340.85" y="-632.5" font-family="Helvetica,sans-Serif" font-size="10.00">hoverEnterEvent()</text>
<text xml:space="preserve" text-anchor="start" x="331.23" y="-616.5" font-family="Helvetica,sans-Serif" font-size="10.00">#</text>
<text xml:space="preserve" text-anchor="start" x="340.85" y="-616.5" font-family="Helvetica,sans-Serif" font-size="10.00">hoverLeaveEvent()</text>
<polygon fill="#666666" stroke="#666666" points="326.85,-756 326.85,-756 441.6,-756 441.6,-756 326.85,-756"/>
<polygon fill="#666666" stroke="#666666" points="326.85,-724 326.85,-724 338.85,-724 338.85,-724 326.85,-724"/>
<polygon fill="#666666" stroke="#666666" points="338.85,-724 338.85,-724 441.6,-724 441.6,-724 338.85,-724"/>
<polygon fill="none" stroke="#666666" points="326.85,-610 326.85,-774 441.6,-774 441.6,-610 326.85,-610"/>
</a>
</g>
</g>
<!-- Node3 -->
<g id="Node000003" class="node">
<title>Node3</title>
<g id="a_Node000003"><a xlink:href="class_connection_graphics_item.html" target="_top" xlink:title=" ">
<polygon fill="white" stroke="none" points="328.48,-396 179.98,-396 179.98,0 328.48,0 328.48,-396"/>
<text xml:space="preserve" text-anchor="start" x="200.23" y="-382.5" font-family="Helvetica,sans-Serif" font-size="10.00">ConnectionGraphicsItem</text>
<text xml:space="preserve" text-anchor="start" x="185.48" y="-366.5" font-family="Helvetica,sans-Serif" font-size="10.00">&#45;</text>
<text xml:space="preserve" text-anchor="start" x="193.98" y="-366.5" font-family="Helvetica,sans-Serif" font-size="10.00">m_isHovered</text>
<text xml:space="preserve" text-anchor="start" x="183.98" y="-350.5" font-family="Helvetica,sans-Serif" font-size="10.00">+</text>
<text xml:space="preserve" text-anchor="start" x="193.98" y="-350.5" font-family="Helvetica,sans-Serif" font-size="10.00">ConnectionGraphicsItem()</text>
<text xml:space="preserve" text-anchor="start" x="183.98" y="-334.5" font-family="Helvetica,sans-Serif" font-size="10.00">+</text>
<text xml:space="preserve" text-anchor="start" x="193.98" y="-334.5" font-family="Helvetica,sans-Serif" font-size="10.00">~ConnectionGraphicsItem()</text>
<text xml:space="preserve" text-anchor="start" x="183.98" y="-318.5" font-family="Helvetica,sans-Serif" font-size="10.00">+</text>
<text xml:space="preserve" text-anchor="start" x="193.98" y="-318.5" font-family="Helvetica,sans-Serif" font-size="10.00">boundingRect()</text>
<text xml:space="preserve" text-anchor="start" x="183.98" y="-302.5" font-family="Helvetica,sans-Serif" font-size="10.00">+</text>
<text xml:space="preserve" text-anchor="start" x="193.98" y="-302.5" font-family="Helvetica,sans-Serif" font-size="10.00">paint()</text>
<text xml:space="preserve" text-anchor="start" x="183.98" y="-286.5" font-family="Helvetica,sans-Serif" font-size="10.00">+</text>
<text xml:space="preserve" text-anchor="start" x="193.98" y="-286.5" font-family="Helvetica,sans-Serif" font-size="10.00">shape()</text>
<text xml:space="preserve" text-anchor="start" x="183.98" y="-270.5" font-family="Helvetica,sans-Serif" font-size="10.00">+</text>
<text xml:space="preserve" text-anchor="start" x="193.98" y="-270.5" font-family="Helvetica,sans-Serif" font-size="10.00">updateControlPointPosition()</text>
<text xml:space="preserve" text-anchor="start" x="183.98" y="-254.5" font-family="Helvetica,sans-Serif" font-size="10.00">+</text>
<text xml:space="preserve" text-anchor="start" x="193.98" y="-254.5" font-family="Helvetica,sans-Serif" font-size="10.00">setSelected()</text>
<text xml:space="preserve" text-anchor="start" x="184.35" y="-238.5" font-family="Helvetica,sans-Serif" font-size="10.00">#</text>
<text xml:space="preserve" text-anchor="start" x="193.98" y="-238.5" font-family="Helvetica,sans-Serif" font-size="10.00">mousePressEvent()</text>
<text xml:space="preserve" text-anchor="start" x="184.35" y="-222.5" font-family="Helvetica,sans-Serif" font-size="10.00">#</text>
<text xml:space="preserve" text-anchor="start" x="193.98" y="-222.5" font-family="Helvetica,sans-Serif" font-size="10.00">hoverEnterEvent()</text>
<text xml:space="preserve" text-anchor="start" x="184.35" y="-206.5" font-family="Helvetica,sans-Serif" font-size="10.00">#</text>
<text xml:space="preserve" text-anchor="start" x="193.98" y="-206.5" font-family="Helvetica,sans-Serif" font-size="10.00">hoverLeaveEvent()</text>
<text xml:space="preserve" text-anchor="start" x="185.48" y="-190.5" font-family="Helvetica,sans-Serif" font-size="10.00">&#45;</text>
<text xml:space="preserve" text-anchor="start" x="193.98" y="-190.5" font-family="Helvetica,sans-Serif" font-size="10.00">createStraightPath()</text>
<text xml:space="preserve" text-anchor="start" x="185.48" y="-174.5" font-family="Helvetica,sans-Serif" font-size="10.00">&#45;</text>
<text xml:space="preserve" text-anchor="start" x="193.98" y="-174.5" font-family="Helvetica,sans-Serif" font-size="10.00">createOrthogonalPath()</text>
<text xml:space="preserve" text-anchor="start" x="185.48" y="-158.5" font-family="Helvetica,sans-Serif" font-size="10.00">&#45;</text>
<text xml:space="preserve" text-anchor="start" x="193.98" y="-158.5" font-family="Helvetica,sans-Serif" font-size="10.00">createBezierPath()</text>
<text xml:space="preserve" text-anchor="start" x="185.48" y="-142.5" font-family="Helvetica,sans-Serif" font-size="10.00">&#45;</text>
<text xml:space="preserve" text-anchor="start" x="193.98" y="-142.5" font-family="Helvetica,sans-Serif" font-size="10.00">createSimpleOrthogonalPath()</text>
<text xml:space="preserve" text-anchor="start" x="185.48" y="-126.5" font-family="Helvetica,sans-Serif" font-size="10.00">&#45;</text>
<text xml:space="preserve" text-anchor="start" x="193.98" y="-126.5" font-family="Helvetica,sans-Serif" font-size="10.00">createOrthogonalPathWith</text>
<text xml:space="preserve" text-anchor="start" x="193.98" y="-114.5" font-family="Helvetica,sans-Serif" font-size="10.00">Directions()</text>
<text xml:space="preserve" text-anchor="start" x="185.48" y="-98.5" font-family="Helvetica,sans-Serif" font-size="10.00">&#45;</text>
<text xml:space="preserve" text-anchor="start" x="193.98" y="-98.5" font-family="Helvetica,sans-Serif" font-size="10.00">calculateControlPointFrom</text>
<text xml:space="preserve" text-anchor="start" x="193.98" y="-86.5" font-family="Helvetica,sans-Serif" font-size="10.00">Direction()</text>
<text xml:space="preserve" text-anchor="start" x="185.48" y="-70.5" font-family="Helvetica,sans-Serif" font-size="10.00">&#45;</text>
<text xml:space="preserve" text-anchor="start" x="193.98" y="-70.5" font-family="Helvetica,sans-Serif" font-size="10.00">connectToConnection()</text>
<text xml:space="preserve" text-anchor="start" x="185.48" y="-54.5" font-family="Helvetica,sans-Serif" font-size="10.00">&#45;</text>
<text xml:space="preserve" text-anchor="start" x="193.98" y="-54.5" font-family="Helvetica,sans-Serif" font-size="10.00">disconnectFromConnection()</text>
<text xml:space="preserve" text-anchor="start" x="185.48" y="-38.5" font-family="Helvetica,sans-Serif" font-size="10.00">&#45;</text>
<text xml:space="preserve" text-anchor="start" x="193.98" y="-38.5" font-family="Helvetica,sans-Serif" font-size="10.00">createControlPoints()</text>
<text xml:space="preserve" text-anchor="start" x="185.48" y="-22.5" font-family="Helvetica,sans-Serif" font-size="10.00">&#45;</text>
<text xml:space="preserve" text-anchor="start" x="193.98" y="-22.5" font-family="Helvetica,sans-Serif" font-size="10.00">updateControlPointsPosition()</text>
<text xml:space="preserve" text-anchor="start" x="185.48" y="-6.5" font-family="Helvetica,sans-Serif" font-size="10.00">&#45;</text>
<text xml:space="preserve" text-anchor="start" x="193.98" y="-6.5" font-family="Helvetica,sans-Serif" font-size="10.00">updateFromConnection()</text>
<polygon fill="#666666" stroke="#666666" points="179.98,-378 179.98,-378 328.48,-378 328.48,-378 179.98,-378"/>
<polygon fill="#666666" stroke="#666666" points="179.98,-362 179.98,-362 191.98,-362 191.98,-362 179.98,-362"/>
<polygon fill="#666666" stroke="#666666" points="191.98,-362 191.98,-362 328.48,-362 328.48,-362 191.98,-362"/>
<polygon fill="none" stroke="#666666" points="179.98,0 179.98,-396 328.48,-396 328.48,0 179.98,0"/>
</a>
</g>
</g>
<!-- Node1&#45;&gt;Node3 -->
<g id="edge9_Node000003_Node000001" class="edge">
<title>Node1&#45;&gt;Node3</title>
<g id="a_edge9_Node000003_Node000001"><a xlink:title=" ">
<path fill="none" stroke="#63b8ff" d="M367.48,-610.11C355.47,-564.94 336.04,-509.22 306.23,-466 299.15,-455.74 290.68,-458.95 284.73,-448 277.89,-435.42 272.31,-421.97 267.77,-408.07"/>
<polygon fill="none" stroke="#63b8ff" points="267.78,-408.1 262.21,-403.52 264.3,-396.62 269.87,-401.2 267.78,-408.1"/>
</a>
</g>
<text xml:space="preserve" text-anchor="start" x="287.73" y="-435.5" font-family="Helvetica,sans-Serif" font-size="10.00" fill="grey">&#45;m_controlPoint1</text>
<text xml:space="preserve" text-anchor="start" x="287.73" y="-419.5" font-family="Helvetica,sans-Serif" font-size="10.00" fill="grey">&#45;m_controlPoint2</text>
</g>
<!-- Node2 -->
<g id="Node000002" class="node">
<title>Node2</title>
<g id="a_Node000002"><a xlink:title=" ">
<polygon fill="white" stroke="none" points="435.85,-1152 332.6,-1152 332.6,-1100 435.85,-1100 435.85,-1152"/>
<text xml:space="preserve" text-anchor="start" x="336.6" y="-1138.5" font-family="Helvetica,sans-Serif" font-size="10.00">QGraphicsEllipseItem</text>
<text xml:space="preserve" text-anchor="start" x="382.73" y="-1122.5" font-family="Helvetica,sans-Serif" font-size="10.00"> </text>
<text xml:space="preserve" text-anchor="start" x="382.73" y="-1106.5" font-family="Helvetica,sans-Serif" font-size="10.00"> </text>
<polygon fill="#666666" stroke="#666666" points="332.6,-1134 332.6,-1134 435.85,-1134 435.85,-1134 332.6,-1134"/>
<polygon fill="#666666" stroke="#666666" points="332.6,-1118 332.6,-1118 435.85,-1118 435.85,-1118 332.6,-1118"/>
<polygon fill="none" stroke="#666666" points="332.6,-1100 332.6,-1152 435.85,-1152 435.85,-1100 332.6,-1100"/>
</a>
</g>
</g>
<!-- Node2&#45;&gt;Node1 -->
<g id="edge1_Node000001_Node000002" class="edge">
<title>Node2&#45;&gt;Node1</title>
<g id="a_edge1_Node000001_Node000002"><a xlink:title=" ">
<path fill="none" stroke="#63b8ff" d="M384.23,-1088.71C384.23,-1019.67 384.23,-867.9 384.23,-773.67"/>
<polygon fill="none" stroke="#63b8ff" points="380.73,-1088.71 384.23,-1098.71 387.73,-1088.71 380.73,-1088.71"/>
</a>
</g>
</g>
<!-- Node3&#45;&gt;Node1 -->
<g id="edge2_Node000001_Node000003" class="edge">
<title>Node3&#45;&gt;Node1</title>
<g id="a_edge2_Node000001_Node000003"><a xlink:title=" ">
<path fill="none" stroke="#63b8ff" d="M328.44,-317.13C344.31,-347.62 359.04,-381.14 368.23,-414 384.86,-473.48 388.84,-542.87 388.68,-597.32"/>
<polygon fill="none" stroke="#63b8ff" points="388.68,-597.21 392.63,-603.25 388.57,-609.21 384.63,-603.17 388.68,-597.21"/>
</a>
</g>
<text xml:space="preserve" text-anchor="start" x="378.26" y="-427.5" font-family="Helvetica,sans-Serif" font-size="10.00" fill="grey">&#45;m_connectionItem</text>
</g>
<!-- Node4 -->
<g id="Node000004" class="node">
<title>Node4</title>
<g id="a_Node000004"><a xlink:title=" ">
<polygon fill="white" stroke="none" points="91.23,-1353 47.23,-1353 47.23,-1301 91.23,-1301 91.23,-1353"/>
<text xml:space="preserve" text-anchor="start" x="51.23" y="-1339.5" font-family="Helvetica,sans-Serif" font-size="10.00">QObject</text>
<text xml:space="preserve" text-anchor="start" x="67.73" y="-1323.5" font-family="Helvetica,sans-Serif" font-size="10.00"> </text>
<text xml:space="preserve" text-anchor="start" x="67.73" y="-1307.5" font-family="Helvetica,sans-Serif" font-size="10.00"> </text>
<polygon fill="#666666" stroke="#666666" points="47.23,-1335 47.23,-1335 91.23,-1335 91.23,-1335 47.23,-1335"/>
<polygon fill="#666666" stroke="#666666" points="47.23,-1319 47.23,-1319 91.23,-1319 91.23,-1319 47.23,-1319"/>
<polygon fill="none" stroke="#666666" points="47.23,-1301 47.23,-1353 91.23,-1353 91.23,-1301 47.23,-1301"/>
</a>
</g>
</g>
<!-- Node4&#45;&gt;Node3 -->
<g id="edge3_Node000003_Node000004" class="edge">
<title>Node4&#45;&gt;Node3</title>
<g id="a_edge3_Node000003_Node000004"><a xlink:title=" ">
<path fill="none" stroke="#63b8ff" d="M59.94,-1290.03C30.55,-1169.44 -52.59,-769.93 50.23,-466 75.93,-390.02 132.88,-318.63 180.09,-268.82"/>
<polygon fill="none" stroke="#63b8ff" points="56.53,-1290.8 62.33,-1299.67 63.32,-1289.12 56.53,-1290.8"/>
</a>
</g>
</g>
<!-- Node6 -->
<g id="Node000006" class="node">
<title>Node6</title>
<g id="a_Node000006"><a xlink:href="class_connection_line.html" target="_top" xlink:title=" ">
<polygon fill="white" stroke="none" points="204.98,-918 59.48,-918 59.48,-466 204.98,-466 204.98,-918"/>
<text xml:space="preserve" text-anchor="start" x="98.48" y="-904.5" font-family="Helvetica,sans-Serif" font-size="10.00">ConnectionLine</text>
<text xml:space="preserve" text-anchor="start" x="63.48" y="-888.5" font-family="Helvetica,sans-Serif" font-size="10.00">+</text>
<text xml:space="preserve" text-anchor="start" x="73.48" y="-888.5" font-family="Helvetica,sans-Serif" font-size="10.00">id</text>
<text xml:space="preserve" text-anchor="start" x="63.48" y="-872.5" font-family="Helvetica,sans-Serif" font-size="10.00">+</text>
<text xml:space="preserve" text-anchor="start" x="73.48" y="-872.5" font-family="Helvetica,sans-Serif" font-size="10.00">startPoint</text>
<text xml:space="preserve" text-anchor="start" x="63.48" y="-856.5" font-family="Helvetica,sans-Serif" font-size="10.00">+</text>
<text xml:space="preserve" text-anchor="start" x="73.48" y="-856.5" font-family="Helvetica,sans-Serif" font-size="10.00">endPoint</text>
<text xml:space="preserve" text-anchor="start" x="63.48" y="-840.5" font-family="Helvetica,sans-Serif" font-size="10.00">+</text>
<text xml:space="preserve" text-anchor="start" x="73.48" y="-840.5" font-family="Helvetica,sans-Serif" font-size="10.00">lineType</text>
<text xml:space="preserve" text-anchor="start" x="64.98" y="-824.5" font-family="Helvetica,sans-Serif" font-size="10.00">&#45;</text>
<text xml:space="preserve" text-anchor="start" x="73.48" y="-824.5" font-family="Helvetica,sans-Serif" font-size="10.00">m_id</text>
<text xml:space="preserve" text-anchor="start" x="64.98" y="-808.5" font-family="Helvetica,sans-Serif" font-size="10.00">&#45;</text>
<text xml:space="preserve" text-anchor="start" x="73.48" y="-808.5" font-family="Helvetica,sans-Serif" font-size="10.00">m_lineType</text>
<text xml:space="preserve" text-anchor="start" x="64.98" y="-792.5" font-family="Helvetica,sans-Serif" font-size="10.00">&#45;</text>
<text xml:space="preserve" text-anchor="start" x="73.48" y="-792.5" font-family="Helvetica,sans-Serif" font-size="10.00">m_lineWidth</text>
<text xml:space="preserve" text-anchor="start" x="64.98" y="-776.5" font-family="Helvetica,sans-Serif" font-size="10.00">&#45;</text>
<text xml:space="preserve" text-anchor="start" x="73.48" y="-776.5" font-family="Helvetica,sans-Serif" font-size="10.00">m_control1Offset</text>
<text xml:space="preserve" text-anchor="start" x="64.98" y="-760.5" font-family="Helvetica,sans-Serif" font-size="10.00">&#45;</text>
<text xml:space="preserve" text-anchor="start" x="73.48" y="-760.5" font-family="Helvetica,sans-Serif" font-size="10.00">m_control2Offset</text>
<text xml:space="preserve" text-anchor="start" x="64.98" y="-744.5" font-family="Helvetica,sans-Serif" font-size="10.00">&#45;</text>
<text xml:space="preserve" text-anchor="start" x="73.48" y="-744.5" font-family="Helvetica,sans-Serif" font-size="10.00">m_hasCustomControlPoints</text>
<text xml:space="preserve" text-anchor="start" x="63.48" y="-728.5" font-family="Helvetica,sans-Serif" font-size="10.00">+</text>
<text xml:space="preserve" text-anchor="start" x="73.48" y="-728.5" font-family="Helvetica,sans-Serif" font-size="10.00">ConnectionLine()</text>
<text xml:space="preserve" text-anchor="start" x="63.48" y="-712.5" font-family="Helvetica,sans-Serif" font-size="10.00">+</text>
<text xml:space="preserve" text-anchor="start" x="73.48" y="-712.5" font-family="Helvetica,sans-Serif" font-size="10.00">~ConnectionLine()</text>
<text xml:space="preserve" text-anchor="start" x="63.48" y="-696.5" font-family="Helvetica,sans-Serif" font-size="10.00">+</text>
<text xml:space="preserve" text-anchor="start" x="73.48" y="-696.5" font-family="Helvetica,sans-Serif" font-size="10.00">id()</text>
<text xml:space="preserve" text-anchor="start" x="63.48" y="-680.5" font-family="Helvetica,sans-Serif" font-size="10.00">+</text>
<text xml:space="preserve" text-anchor="start" x="73.48" y="-680.5" font-family="Helvetica,sans-Serif" font-size="10.00">startPoint()</text>
<text xml:space="preserve" text-anchor="start" x="63.48" y="-664.5" font-family="Helvetica,sans-Serif" font-size="10.00">+</text>
<text xml:space="preserve" text-anchor="start" x="73.48" y="-664.5" font-family="Helvetica,sans-Serif" font-size="10.00">endPoint()</text>
<text xml:space="preserve" text-anchor="start" x="63.48" y="-648.5" font-family="Helvetica,sans-Serif" font-size="10.00">+</text>
<text xml:space="preserve" text-anchor="start" x="73.48" y="-648.5" font-family="Helvetica,sans-Serif" font-size="10.00">lineType()</text>
<text xml:space="preserve" text-anchor="start" x="63.48" y="-632.5" font-family="Helvetica,sans-Serif" font-size="10.00">+</text>
<text xml:space="preserve" text-anchor="start" x="73.48" y="-632.5" font-family="Helvetica,sans-Serif" font-size="10.00">lineWidth()</text>
<text xml:space="preserve" text-anchor="start" x="63.48" y="-616.5" font-family="Helvetica,sans-Serif" font-size="10.00">+</text>
<text xml:space="preserve" text-anchor="start" x="73.48" y="-616.5" font-family="Helvetica,sans-Serif" font-size="10.00">control1Offset()</text>
<text xml:space="preserve" text-anchor="start" x="63.48" y="-600.5" font-family="Helvetica,sans-Serif" font-size="10.00">+</text>
<text xml:space="preserve" text-anchor="start" x="73.48" y="-600.5" font-family="Helvetica,sans-Serif" font-size="10.00">control2Offset()</text>
<text xml:space="preserve" text-anchor="start" x="63.48" y="-584.5" font-family="Helvetica,sans-Serif" font-size="10.00">+</text>
<text xml:space="preserve" text-anchor="start" x="73.48" y="-584.5" font-family="Helvetica,sans-Serif" font-size="10.00">hasCustomControlPoints()</text>
<text xml:space="preserve" text-anchor="start" x="73.48" y="-568.5" font-family="Helvetica,sans-Serif" font-size="10.00">and 15 more...</text>
<text xml:space="preserve" text-anchor="start" x="63.48" y="-552.5" font-family="Helvetica,sans-Serif" font-size="10.00">+</text>
<text xml:space="preserve" text-anchor="start" x="73.48" y="-552.5" font-family="Helvetica,sans-Serif" font-size="10.00">lineTypeToString()</text>
<text xml:space="preserve" text-anchor="start" x="63.48" y="-536.5" font-family="Helvetica,sans-Serif" font-size="10.00">+</text>
<text xml:space="preserve" text-anchor="start" x="73.48" y="-536.5" font-family="Helvetica,sans-Serif" font-size="10.00">lineTypeFromString()</text>
<text xml:space="preserve" text-anchor="start" x="64.98" y="-520.5" font-family="Helvetica,sans-Serif" font-size="10.00">&#45;</text>
<text xml:space="preserve" text-anchor="start" x="73.48" y="-520.5" font-family="Helvetica,sans-Serif" font-size="10.00">connectToPoints()</text>
<text xml:space="preserve" text-anchor="start" x="64.98" y="-504.5" font-family="Helvetica,sans-Serif" font-size="10.00">&#45;</text>
<text xml:space="preserve" text-anchor="start" x="73.48" y="-504.5" font-family="Helvetica,sans-Serif" font-size="10.00">disconnectFromPoints()</text>
<text xml:space="preserve" text-anchor="start" x="64.98" y="-488.5" font-family="Helvetica,sans-Serif" font-size="10.00">&#45;</text>
<text xml:space="preserve" text-anchor="start" x="73.48" y="-488.5" font-family="Helvetica,sans-Serif" font-size="10.00">onElementPositionChanged()</text>
<text xml:space="preserve" text-anchor="start" x="64.98" y="-472.5" font-family="Helvetica,sans-Serif" font-size="10.00">&#45;</text>
<text xml:space="preserve" text-anchor="start" x="73.48" y="-472.5" font-family="Helvetica,sans-Serif" font-size="10.00">onConnectionPointChanged()</text>
<polygon fill="#666666" stroke="#666666" points="59.48,-900 59.48,-900 204.98,-900 204.98,-900 59.48,-900"/>
<polygon fill="#666666" stroke="#666666" points="59.48,-740 59.48,-740 71.48,-740 71.48,-740 59.48,-740"/>
<polygon fill="#666666" stroke="#666666" points="71.48,-740 71.48,-740 204.98,-740 204.98,-740 71.48,-740"/>
<polygon fill="none" stroke="#666666" points="59.48,-466 59.48,-918 204.98,-918 204.98,-466 59.48,-466"/>
</a>
</g>
</g>
<!-- Node4&#45;&gt;Node6 -->
<g id="edge6_Node000006_Node000004" class="edge">
<title>Node4&#45;&gt;Node6</title>
<g id="a_edge6_Node000006_Node000004"><a xlink:title=" ">
<path fill="none" stroke="#63b8ff" d="M70.17,-1289.9C72.03,-1227.98 77,-1097.63 88.23,-988 90.56,-965.21 93.41,-941.48 96.51,-917.82"/>
<polygon fill="none" stroke="#63b8ff" points="66.67,-1289.73 69.88,-1299.83 73.67,-1289.93 66.67,-1289.73"/>
</a>
</g>
</g>
<!-- Node7 -->
<g id="Node000007" class="node">
<title>Node7</title>
<g id="a_Node000007"><a xlink:href="class_connection_point.html" target="_top" xlink:title="Represents a connection point on an ERD element for line attachment.">
<polygon fill="white" stroke="none" points="257.1,-1264 97.35,-1264 97.35,-988 257.1,-988 257.1,-1264"/>
<text xml:space="preserve" text-anchor="start" x="141.23" y="-1250.5" font-family="Helvetica,sans-Serif" font-size="10.00">ConnectionPoint</text>
<text xml:space="preserve" text-anchor="start" x="101.35" y="-1234.5" font-family="Helvetica,sans-Serif" font-size="10.00">+</text>
<text xml:space="preserve" text-anchor="start" x="111.35" y="-1234.5" font-family="Helvetica,sans-Serif" font-size="10.00">id</text>
<text xml:space="preserve" text-anchor="start" x="101.35" y="-1218.5" font-family="Helvetica,sans-Serif" font-size="10.00">+</text>
<text xml:space="preserve" text-anchor="start" x="111.35" y="-1218.5" font-family="Helvetica,sans-Serif" font-size="10.00">relativePosition</text>
<text xml:space="preserve" text-anchor="start" x="101.35" y="-1202.5" font-family="Helvetica,sans-Serif" font-size="10.00">+</text>
<text xml:space="preserve" text-anchor="start" x="111.35" y="-1202.5" font-family="Helvetica,sans-Serif" font-size="10.00">direction</text>
<text xml:space="preserve" text-anchor="start" x="102.85" y="-1186.5" font-family="Helvetica,sans-Serif" font-size="10.00">&#45;</text>
<text xml:space="preserve" text-anchor="start" x="111.35" y="-1186.5" font-family="Helvetica,sans-Serif" font-size="10.00">m_id</text>
<text xml:space="preserve" text-anchor="start" x="102.85" y="-1170.5" font-family="Helvetica,sans-Serif" font-size="10.00">&#45;</text>
<text xml:space="preserve" text-anchor="start" x="111.35" y="-1170.5" font-family="Helvetica,sans-Serif" font-size="10.00">m_relativePosition</text>
<text xml:space="preserve" text-anchor="start" x="102.85" y="-1154.5" font-family="Helvetica,sans-Serif" font-size="10.00">&#45;</text>
<text xml:space="preserve" text-anchor="start" x="111.35" y="-1154.5" font-family="Helvetica,sans-Serif" font-size="10.00">m_direction</text>
<text xml:space="preserve" text-anchor="start" x="101.35" y="-1138.5" font-family="Helvetica,sans-Serif" font-size="10.00">+</text>
<text xml:space="preserve" text-anchor="start" x="111.35" y="-1138.5" font-family="Helvetica,sans-Serif" font-size="10.00">ConnectionPoint()</text>
<text xml:space="preserve" text-anchor="start" x="101.35" y="-1122.5" font-family="Helvetica,sans-Serif" font-size="10.00">+</text>
<text xml:space="preserve" text-anchor="start" x="111.35" y="-1122.5" font-family="Helvetica,sans-Serif" font-size="10.00">ConnectionPoint()</text>
<text xml:space="preserve" text-anchor="start" x="101.35" y="-1106.5" font-family="Helvetica,sans-Serif" font-size="10.00">+</text>
<text xml:space="preserve" text-anchor="start" x="111.35" y="-1106.5" font-family="Helvetica,sans-Serif" font-size="10.00">~ConnectionPoint()</text>
<text xml:space="preserve" text-anchor="start" x="101.35" y="-1090.5" font-family="Helvetica,sans-Serif" font-size="10.00">+</text>
<text xml:space="preserve" text-anchor="start" x="111.35" y="-1090.5" font-family="Helvetica,sans-Serif" font-size="10.00">id()</text>
<text xml:space="preserve" text-anchor="start" x="101.35" y="-1074.5" font-family="Helvetica,sans-Serif" font-size="10.00">+</text>
<text xml:space="preserve" text-anchor="start" x="111.35" y="-1074.5" font-family="Helvetica,sans-Serif" font-size="10.00">relativePosition()</text>
<text xml:space="preserve" text-anchor="start" x="101.35" y="-1058.5" font-family="Helvetica,sans-Serif" font-size="10.00">+</text>
<text xml:space="preserve" text-anchor="start" x="111.35" y="-1058.5" font-family="Helvetica,sans-Serif" font-size="10.00">direction()</text>
<text xml:space="preserve" text-anchor="start" x="101.35" y="-1042.5" font-family="Helvetica,sans-Serif" font-size="10.00">+</text>
<text xml:space="preserve" text-anchor="start" x="111.35" y="-1042.5" font-family="Helvetica,sans-Serif" font-size="10.00">setRelativePosition()</text>
<text xml:space="preserve" text-anchor="start" x="101.35" y="-1026.5" font-family="Helvetica,sans-Serif" font-size="10.00">+</text>
<text xml:space="preserve" text-anchor="start" x="111.35" y="-1026.5" font-family="Helvetica,sans-Serif" font-size="10.00">absolutePosition()</text>
<text xml:space="preserve" text-anchor="start" x="101.35" y="-1010.5" font-family="Helvetica,sans-Serif" font-size="10.00">+</text>
<text xml:space="preserve" text-anchor="start" x="111.35" y="-1010.5" font-family="Helvetica,sans-Serif" font-size="10.00">createDefaultConnectionPoints()</text>
<text xml:space="preserve" text-anchor="start" x="102.85" y="-994.5" font-family="Helvetica,sans-Serif" font-size="10.00">&#45;</text>
<text xml:space="preserve" text-anchor="start" x="111.35" y="-994.5" font-family="Helvetica,sans-Serif" font-size="10.00">addConnectionPoint()</text>
<polygon fill="#666666" stroke="#666666" points="97.35,-1246 97.35,-1246 257.1,-1246 257.1,-1246 97.35,-1246"/>
<polygon fill="#666666" stroke="#666666" points="97.35,-1150 97.35,-1150 109.35,-1150 109.35,-1150 97.35,-1150"/>
<polygon fill="#666666" stroke="#666666" points="109.35,-1150 109.35,-1150 257.1,-1150 257.1,-1150 109.35,-1150"/>
<polygon fill="none" stroke="#666666" points="97.35,-988 97.35,-1264 257.1,-1264 257.1,-988 97.35,-988"/>
</a>
</g>
</g>
<!-- Node4&#45;&gt;Node7 -->
<g id="edge8_Node000007_Node000004" class="edge">
<title>Node4&#45;&gt;Node7</title>
<g id="a_edge8_Node000007_Node000004"><a xlink:title=" ">
<path fill="none" stroke="#63b8ff" d="M88.07,-1291.28C92.59,-1282.96 97.68,-1273.58 103.08,-1263.62"/>
<polygon fill="none" stroke="#63b8ff" points="85.1,-1289.41 83.41,-1299.87 91.26,-1292.75 85.1,-1289.41"/>
</a>
</g>
</g>
<!-- Node5 -->
<g id="Node000005" class="node">
<title>Node5</title>
<g id="a_Node000005"><a xlink:title=" ">
<polygon fill="white" stroke="none" points="297.23,-718 223.23,-718 223.23,-666 297.23,-666 297.23,-718"/>
<text xml:space="preserve" text-anchor="start" x="227.23" y="-704.5" font-family="Helvetica,sans-Serif" font-size="10.00">QGraphicsItem</text>
<text xml:space="preserve" text-anchor="start" x="258.73" y="-688.5" font-family="Helvetica,sans-Serif" font-size="10.00"> </text>
<text xml:space="preserve" text-anchor="start" x="258.73" y="-672.5" font-family="Helvetica,sans-Serif" font-size="10.00"> </text>
<polygon fill="#666666" stroke="#666666" points="223.23,-700 223.23,-700 297.23,-700 297.23,-700 223.23,-700"/>
<polygon fill="#666666" stroke="#666666" points="223.23,-684 223.23,-684 297.23,-684 297.23,-684 223.23,-684"/>
<polygon fill="none" stroke="#666666" points="223.23,-666 223.23,-718 297.23,-718 297.23,-666 223.23,-666"/>
</a>
</g>
</g>
<!-- Node5&#45;&gt;Node3 -->
<g id="edge4_Node000003_Node000005" class="edge">
<title>Node5&#45;&gt;Node3</title>
<g id="a_edge4_Node000003_Node000005"><a xlink:title=" ">
<path fill="none" stroke="#63b8ff" d="M259.79,-654.8C259.12,-600.16 257.81,-492.69 256.63,-395.83"/>
<polygon fill="none" stroke="#63b8ff" points="256.29,-654.79 259.91,-664.75 263.29,-654.71 256.29,-654.79"/>
</a>
</g>
</g>
<!-- Node6&#45;&gt;Node3 -->
<g id="edge5_Node000003_Node000006" class="edge">
<title>Node6&#45;&gt;Node3</title>
<g id="a_edge5_Node000003_Node000006"><a xlink:title=" ">
<path fill="none" stroke="#63b8ff" d="M171.14,-466.31C175.02,-448.55 179.15,-430.94 183.48,-414 183.96,-412.13 184.45,-410.25 184.94,-408.36"/>
<polygon fill="none" stroke="#63b8ff" points="184.96,-408.28 182.65,-401.45 188.07,-396.69 190.38,-403.52 184.96,-408.28"/>
</a>
</g>
<text xml:space="preserve" text-anchor="start" x="186.48" y="-427.5" font-family="Helvetica,sans-Serif" font-size="10.00" fill="grey">&#45;m_connection</text>
</g>
<!-- Node7&#45;&gt;Node6 -->
<g id="edge7_Node000006_Node000007" class="edge">
<title>Node7&#45;&gt;Node6</title>
<g id="a_edge7_Node000006_Node000007"><a xlink:title=" ">
<path fill="none" stroke="#63b8ff" d="M162.96,-988.02C161.04,-969.57 159.02,-950.23 156.98,-930.65"/>
<polygon fill="none" stroke="#63b8ff" points="156.98,-930.59 152.38,-925.03 155.73,-918.65 160.33,-924.21 156.98,-930.59"/>
</a>
</g>
<text xml:space="preserve" text-anchor="start" x="163.08" y="-957.5" font-family="Helvetica,sans-Serif" font-size="10.00" fill="grey">&#45;m_endPoint</text>
<text xml:space="preserve" text-anchor="start" x="163.08" y="-941.5" font-family="Helvetica,sans-Serif" font-size="10.00" fill="grey">&#45;m_startPoint</text>
</g>
</g>
</svg>
