<?xml version="1.0" encoding="UTF-8" standalone="no"?>
<!DOCTYPE svg PUBLIC "-//W3C//DTD SVG 1.1//EN"
 "http://www.w3.org/Graphics/SVG/1.1/DTD/svg11.dtd">
<!-- Generated by graphviz version 14.1.1 (20251213.1925)
 -->
<!-- Title: AutoSaveManager::setEnabled Pages: 1 -->
<svg width="522pt" height="66pt"
 viewBox="0.00 0.00 522.00 66.00" xmlns="http://www.w3.org/2000/svg" xmlns:xlink="http://www.w3.org/1999/xlink">
<g id="graph0" class="graph" transform="scale(1 1) rotate(0) translate(4 62)">
<title>AutoSaveManager::setEnabled</title>
<!-- Node1 -->
<g id="Node000001" class="node">
<title>Node1</title>
<g id="a_Node000001"><a xlink:title=" ">
<polygon fill="#999999" stroke="#666666" points="151,-39 0,-39 0,-19 151,-19 151,-39"/>
<text xml:space="preserve" text-anchor="middle" x="75.5" y="-25.5" font-family="Helvetica,sans-Serif" font-size="10.00">AutoSaveManager::setEnabled</text>
</a>
</g>
</g>
<!-- Node2 -->
<g id="Node000002" class="node">
<title>Node2</title>
<g id="a_Node000002"><a xlink:href="class_auto_save_manager.html#ac80d3c995c6ac5ad70b0c0b4cf74b096" target="_top" xlink:title=" ">
<polygon fill="white" stroke="#666666" points="308.75,-58 187,-58 187,-38 308.75,-38 308.75,-58"/>
<text xml:space="preserve" text-anchor="middle" x="247.88" y="-44.5" font-family="Helvetica,sans-Serif" font-size="10.00">AutoSaveManager::start</text>
</a>
</g>
</g>
<!-- Node1&#45;&gt;Node2 -->
<g id="edge1_Node000001_Node000002" class="edge">
<title>Node1&#45;&gt;Node2</title>
<g id="a_edge1_Node000001_Node000002"><a xlink:title=" ">
<path fill="none" stroke="#63b8ff" d="M151.23,-37.33C159.16,-38.22 167.21,-39.12 175.11,-40"/>
<polygon fill="#63b8ff" stroke="#63b8ff" points="174.7,-43.47 185.02,-41.1 175.47,-36.52 174.7,-43.47"/>
</a>
</g>
</g>
<!-- Node4 -->
<g id="Node000004" class="node">
<title>Node4</title>
<g id="a_Node000004"><a xlink:href="class_auto_save_manager.html#a78b573d8221a0b78a6a0045568f8a4cc" target="_top" xlink:title=" ">
<polygon fill="white" stroke="#666666" points="308.38,-20 187.38,-20 187.38,0 308.38,0 308.38,-20"/>
<text xml:space="preserve" text-anchor="middle" x="247.88" y="-6.5" font-family="Helvetica,sans-Serif" font-size="10.00">AutoSaveManager::stop</text>
</a>
</g>
</g>
<!-- Node1&#45;&gt;Node4 -->
<g id="edge3_Node000001_Node000004" class="edge">
<title>Node1&#45;&gt;Node4</title>
<g id="a_edge3_Node000001_Node000004"><a xlink:title=" ">
<path fill="none" stroke="#63b8ff" d="M151.23,-20.67C159.37,-19.76 167.64,-18.84 175.74,-17.93"/>
<polygon fill="#63b8ff" stroke="#63b8ff" points="175.99,-21.43 185.54,-16.84 175.21,-14.47 175.99,-21.43"/>
</a>
</g>
</g>
<!-- Node3 -->
<g id="Node000003" class="node">
<title>Node3</title>
<g id="a_Node000003"><a xlink:href="class_auto_save_manager.html#abab9c7e3bc7b6e74376ffcd639536ddb" target="_top" xlink:title=" ">
<polygon fill="white" stroke="#666666" points="513.75,-45 344.75,-45 344.75,-13 513.75,-13 513.75,-45"/>
<text xml:space="preserve" text-anchor="start" x="352.75" y="-31.5" font-family="Helvetica,sans-Serif" font-size="10.00">AutoSaveManager::statusMessage</text>
<text xml:space="preserve" text-anchor="middle" x="429.25" y="-19.5" font-family="Helvetica,sans-Serif" font-size="10.00">Requested</text>
</a>
</g>
</g>
<!-- Node2&#45;&gt;Node3 -->
<g id="edge2_Node000002_Node000003" class="edge">
<title>Node2&#45;&gt;Node3</title>
<g id="a_edge2_Node000002_Node000003"><a xlink:title=" ">
<path fill="none" stroke="#63b8ff" d="M309.1,-41.62C316.78,-40.81 324.78,-39.96 332.85,-39.11"/>
<polygon fill="#63b8ff" stroke="#63b8ff" points="333.18,-42.59 342.76,-38.06 332.45,-35.63 333.18,-42.59"/>
</a>
</g>
</g>
<!-- Node4&#45;&gt;Node3 -->
<g id="edge4_Node000004_Node000003" class="edge">
<title>Node4&#45;&gt;Node3</title>
<g id="a_edge4_Node000004_Node000003"><a xlink:title=" ">
<path fill="none" stroke="#63b8ff" d="M308.6,-16.33C316.52,-17.17 324.79,-18.04 333.12,-18.92"/>
<polygon fill="#63b8ff" stroke="#63b8ff" points="332.68,-22.4 342.99,-19.97 333.42,-15.44 332.68,-22.4"/>
</a>
</g>
</g>
</g>
</svg>
