<?xml version="1.0" encoding="UTF-8" standalone="no"?>
<!DOCTYPE svg PUBLIC "-//W3C//DTD SVG 1.1//EN"
 "http://www.w3.org/Graphics/SVG/1.1/DTD/svg11.dtd">
<!-- Generated by graphviz version 14.1.1 (20251213.1925)
 -->
<!-- Title: Relationship::Relationship Pages: 1 -->
<svg width="1247pt" height="246pt"
 viewBox="0.00 0.00 1247.00 246.00" xmlns="http://www.w3.org/2000/svg" xmlns:xlink="http://www.w3.org/1999/xlink">
<g id="graph0" class="graph" transform="scale(1 1) rotate(0) translate(4 242)">
<title>Relationship::Relationship</title>
<!-- Node1 -->
<g id="Node000001" class="node">
<title>Node1</title>
<g id="a_Node000001"><a xlink:title=" ">
<polygon fill="#999999" stroke="#666666" points="130,-115 0,-115 0,-95 130,-95 130,-115"/>
<text xml:space="preserve" text-anchor="middle" x="65" y="-101.5" font-family="Helvetica,sans-Serif" font-size="10.00">Relationship::Relationship</text>
</a>
</g>
</g>
<!-- Node2 -->
<g id="Node000002" class="node">
<title>Node2</title>
<g id="a_Node000002"><a xlink:href="class_basic_element.html#a85cccd7db0e46e4e2b646365cd6c66a9" target="_top" xlink:title=" ">
<polygon fill="white" stroke="#666666" points="475.5,-207 332,-207 332,-187 475.5,-187 475.5,-207"/>
<text xml:space="preserve" text-anchor="middle" x="403.75" y="-193.5" font-family="Helvetica,sans-Serif" font-size="10.00">BasicElement::BasicElement</text>
</a>
</g>
</g>
<!-- Node1&#45;&gt;Node2 -->
<g id="edge1_Node000001_Node000002" class="edge">
<title>Node1&#45;&gt;Node2</title>
<g id="a_edge1_Node000001_Node000002"><a xlink:title=" ">
<path fill="none" stroke="#63b8ff" d="M72.75,-115.24C87.03,-135.84 122.58,-181.8 166,-199 223.61,-221.83 295.47,-217.07 344.82,-209.31"/>
<polygon fill="#63b8ff" stroke="#63b8ff" points="345.15,-212.8 354.43,-207.7 343.99,-205.9 345.15,-212.8"/>
</a>
</g>
</g>
<!-- Node9 -->
<g id="Node000009" class="node">
<title>Node9</title>
<g id="a_Node000009"><a xlink:href="class_relationship.html#a84b991b40e46679df51608b7924ea5f2" target="_top" xlink:title=" ">
<polygon fill="white" stroke="#666666" points="295.25,-20 166.75,-20 166.75,0 295.25,0 295.25,-20"/>
<text xml:space="preserve" text-anchor="middle" x="231" y="-6.5" font-family="Helvetica,sans-Serif" font-size="10.00">Relationship::isIdentifying</text>
</a>
</g>
</g>
<!-- Node1&#45;&gt;Node9 -->
<g id="edge8_Node000001_Node000009" class="edge">
<title>Node1&#45;&gt;Node9</title>
<g id="a_edge8_Node000001_Node000009"><a xlink:title=" ">
<path fill="none" stroke="#63b8ff" d="M76.79,-94.65C94.21,-78.47 130.21,-47.14 166,-29 169.26,-27.35 172.68,-25.82 176.18,-24.4"/>
<polygon fill="#63b8ff" stroke="#63b8ff" points="177.23,-27.74 185.4,-21.01 174.81,-21.17 177.23,-27.74"/>
</a>
</g>
</g>
<!-- Node10 -->
<g id="Node000010" class="node">
<title>Node10</title>
<g id="a_Node000010"><a xlink:href="class_relationship.html#afdc74fcf0c54abc297ee3c6239d9a867" target="_top" xlink:title=" ">
<polygon fill="white" stroke="#666666" points="470.62,-158 336.88,-158 336.88,-138 470.62,-138 470.62,-158"/>
<text xml:space="preserve" text-anchor="middle" x="403.75" y="-144.5" font-family="Helvetica,sans-Serif" font-size="10.00">Relationship::preferredSize</text>
</a>
</g>
</g>
<!-- Node1&#45;&gt;Node10 -->
<g id="edge9_Node000001_Node000010" class="edge">
<title>Node1&#45;&gt;Node10</title>
<g id="a_edge9_Node000001_Node000010"><a xlink:title=" ">
<path fill="none" stroke="#63b8ff" d="M130.13,-113.19C185.71,-120.29 266.26,-130.57 325.4,-138.12"/>
<polygon fill="#63b8ff" stroke="#63b8ff" points="324.69,-141.56 335.05,-139.36 325.58,-134.62 324.69,-141.56"/>
</a>
</g>
</g>
<!-- Node11 -->
<g id="Node000011" class="node">
<title>Node11</title>
<g id="a_Node000011"><a xlink:href="class_relationship.html#a7029bae7f63e705126cf2776602e0b52" target="_top" xlink:title=" ">
<polygon fill="white" stroke="#666666" points="296,-172 166,-172 166,-152 296,-152 296,-172"/>
<text xml:space="preserve" text-anchor="middle" x="231" y="-158.5" font-family="Helvetica,sans-Serif" font-size="10.00">Relationship::Relationship</text>
</a>
</g>
</g>
<!-- Node1&#45;&gt;Node11 -->
<g id="edge10_Node000001_Node000011" class="edge">
<title>Node1&#45;&gt;Node11</title>
<g id="a_edge10_Node000001_Node000011"><a xlink:title=" ">
<path fill="none" stroke="#63b8ff" d="M96.08,-115.45C122.24,-124.55 160.37,-137.8 189.26,-147.84"/>
<polygon fill="#63b8ff" stroke="#63b8ff" points="187.81,-151.04 198.4,-151.02 190.11,-144.43 187.81,-151.04"/>
</a>
</g>
</g>
<!-- Node12 -->
<g id="Node000012" class="node">
<title>Node12</title>
<g id="a_Node000012"><a xlink:href="class_basic_element.html#ab86c964c6ef9e8d7299efc263a0837e7" target="_top" xlink:title=" ">
<polygon fill="white" stroke="#666666" points="461.62,-96 345.88,-96 345.88,-76 461.62,-76 461.62,-96"/>
<text xml:space="preserve" text-anchor="middle" x="403.75" y="-82.5" font-family="Helvetica,sans-Serif" font-size="10.00">BasicElement::setSize</text>
</a>
</g>
</g>
<!-- Node1&#45;&gt;Node12 -->
<g id="edge20_Node000001_Node000012" class="edge">
<title>Node1&#45;&gt;Node12</title>
<g id="a_edge20_Node000001_Node000012"><a xlink:title=" ">
<path fill="none" stroke="#63b8ff" d="M130.13,-101.38C188.58,-98.08 274.65,-93.23 334.38,-89.86"/>
<polygon fill="#63b8ff" stroke="#63b8ff" points="334.29,-93.37 344.08,-89.31 333.89,-86.38 334.29,-93.37"/>
</a>
</g>
</g>
<!-- Node16 -->
<g id="Node000016" class="node">
<title>Node16</title>
<g id="a_Node000016"><a xlink:href="class_basic_element.html#a42ea6812e7627bb99af54cab547aa803" target="_top" xlink:title=" ">
<polygon fill="white" stroke="#666666" points="292.25,-58 169.75,-58 169.75,-38 292.25,-38 292.25,-58"/>
<text xml:space="preserve" text-anchor="middle" x="231" y="-44.5" font-family="Helvetica,sans-Serif" font-size="10.00">BasicElement::setName</text>
</a>
</g>
</g>
<!-- Node1&#45;&gt;Node16 -->
<g id="edge18_Node000001_Node000016" class="edge">
<title>Node1&#45;&gt;Node16</title>
<g id="a_edge18_Node000001_Node000016"><a xlink:title=" ">
<path fill="none" stroke="#63b8ff" d="M96.08,-94.55C122.24,-85.45 160.37,-72.2 189.26,-62.16"/>
<polygon fill="#63b8ff" stroke="#63b8ff" points="190.11,-65.57 198.4,-58.98 187.81,-58.96 190.11,-65.57"/>
</a>
</g>
</g>
<!-- Node3 -->
<g id="Node000003" class="node">
<title>Node3</title>
<g id="a_Node000003"><a xlink:href="class_basic_element.html#a78e2ce29aa5b2a9fae74cf435996ce8b" target="_top" xlink:title=" ">
<polygon fill="white" stroke="#666666" points="665.5,-200 521.25,-200 521.25,-168 665.5,-168 665.5,-200"/>
<text xml:space="preserve" text-anchor="start" x="529.25" y="-186.5" font-family="Helvetica,sans-Serif" font-size="10.00">BasicElement::createAndAdd</text>
<text xml:space="preserve" text-anchor="middle" x="593.38" y="-174.5" font-family="Helvetica,sans-Serif" font-size="10.00">DefaultConnectionPoints</text>
</a>
</g>
</g>
<!-- Node2&#45;&gt;Node3 -->
<g id="edge2_Node000002_Node000003" class="edge">
<title>Node2&#45;&gt;Node3</title>
<g id="a_edge2_Node000002_Node000003"><a xlink:title=" ">
<path fill="none" stroke="#63b8ff" d="M475.95,-192.07C486.99,-191.3 498.48,-190.51 509.74,-189.73"/>
<polygon fill="#63b8ff" stroke="#63b8ff" points="509.67,-193.24 519.4,-189.06 509.18,-186.26 509.67,-193.24"/>
</a>
</g>
</g>
<!-- Node8 -->
<g id="Node000008" class="node">
<title>Node8</title>
<g id="a_Node000008"><a xlink:href="class_basic_element.html#abb80391f2c11a0eb2fe2b21d53967450" target="_top" xlink:title=" ">
<polygon fill="white" stroke="#666666" points="675.25,-238 511.5,-238 511.5,-218 675.25,-218 675.25,-238"/>
<text xml:space="preserve" text-anchor="middle" x="593.38" y="-224.5" font-family="Helvetica,sans-Serif" font-size="10.00">BasicElement::stringElementType</text>
</a>
</g>
</g>
<!-- Node2&#45;&gt;Node8 -->
<g id="edge7_Node000002_Node000008" class="edge">
<title>Node2&#45;&gt;Node8</title>
<g id="a_edge7_Node000002_Node000008"><a xlink:title=" ">
<path fill="none" stroke="#63b8ff" d="M468.27,-207.5C484.16,-210.12 501.36,-212.96 517.74,-215.67"/>
<polygon fill="#63b8ff" stroke="#63b8ff" points="516.99,-219.09 527.43,-217.27 518.13,-212.19 516.99,-219.09"/>
</a>
</g>
</g>
<!-- Node4 -->
<g id="Node000004" class="node">
<title>Node4</title>
<g id="a_Node000004"><a xlink:href="class_basic_element.html#a0357bfa9b1ef06dd1c9d64bcb00813f4" target="_top" xlink:title=" ">
<polygon fill="white" stroke="#666666" points="861.5,-225 713.5,-225 713.5,-193 861.5,-193 861.5,-225"/>
<text xml:space="preserve" text-anchor="start" x="721.5" y="-211.5" font-family="Helvetica,sans-Serif" font-size="10.00">BasicElement::addConnection</text>
<text xml:space="preserve" text-anchor="middle" x="787.5" y="-199.5" font-family="Helvetica,sans-Serif" font-size="10.00">Point</text>
</a>
</g>
</g>
<!-- Node3&#45;&gt;Node4 -->
<g id="edge3_Node000003_Node000004" class="edge">
<title>Node3&#45;&gt;Node4</title>
<g id="a_edge3_Node000003_Node000004"><a xlink:title=" ">
<path fill="none" stroke="#63b8ff" d="M665.92,-193.31C677.64,-194.83 689.88,-196.43 701.89,-197.99"/>
<polygon fill="#63b8ff" stroke="#63b8ff" points="701.43,-201.46 711.8,-199.28 702.33,-194.52 701.43,-201.46"/>
</a>
</g>
</g>
<!-- Node5 -->
<g id="Node000005" class="node">
<title>Node5</title>
<g id="a_Node000005"><a xlink:href="class_connection_point.html#af57583f18ef35d9b3eafa83665e7ebe4" target="_top" xlink:title=" ">
<polygon fill="white" stroke="#666666" points="863.75,-175 711.25,-175 711.25,-143 863.75,-143 863.75,-175"/>
<text xml:space="preserve" text-anchor="start" x="719.25" y="-161.5" font-family="Helvetica,sans-Serif" font-size="10.00">ConnectionPoint::createDefault</text>
<text xml:space="preserve" text-anchor="middle" x="787.5" y="-149.5" font-family="Helvetica,sans-Serif" font-size="10.00">ConnectionPoints</text>
</a>
</g>
</g>
<!-- Node3&#45;&gt;Node5 -->
<g id="edge4_Node000003_Node000005" class="edge">
<title>Node3&#45;&gt;Node5</title>
<g id="a_edge4_Node000003_Node000005"><a xlink:title=" ">
<path fill="none" stroke="#63b8ff" d="M665.92,-174.69C676.96,-173.25 688.46,-171.76 699.79,-170.28"/>
<polygon fill="#63b8ff" stroke="#63b8ff" points="700.08,-173.78 709.54,-169.01 699.17,-166.83 700.08,-173.78"/>
</a>
</g>
</g>
<!-- Node6 -->
<g id="Node000006" class="node">
<title>Node6</title>
<g id="a_Node000006"><a xlink:href="class_connection_point.html#a7b8c2910eb504959c4211764a9abc2e8" target="_top" xlink:title=" ">
<polygon fill="white" stroke="#666666" points="1059,-175 899.75,-175 899.75,-143 1059,-143 1059,-175"/>
<text xml:space="preserve" text-anchor="start" x="907.75" y="-161.5" font-family="Helvetica,sans-Serif" font-size="10.00">ConnectionPoint::addConnection</text>
<text xml:space="preserve" text-anchor="middle" x="979.38" y="-149.5" font-family="Helvetica,sans-Serif" font-size="10.00">Point</text>
</a>
</g>
</g>
<!-- Node5&#45;&gt;Node6 -->
<g id="edge5_Node000005_Node000006" class="edge">
<title>Node5&#45;&gt;Node6</title>
<g id="a_edge5_Node000005_Node000006"><a xlink:title=" ">
<path fill="none" stroke="#63b8ff" d="M864.09,-159C871.96,-159 880.02,-159 888.03,-159"/>
<polygon fill="#63b8ff" stroke="#63b8ff" points="887.8,-162.5 897.8,-159 887.8,-155.5 887.8,-162.5"/>
</a>
</g>
</g>
<!-- Node7 -->
<g id="Node000007" class="node">
<title>Node7</title>
<g id="a_Node000007"><a xlink:href="class_connection_point.html#ac498b99d7f91805fea3eab19f2e8b260" target="_top" xlink:title=" ">
<polygon fill="white" stroke="#666666" points="1238.5,-175 1095,-175 1095,-143 1238.5,-143 1238.5,-175"/>
<text xml:space="preserve" text-anchor="start" x="1103" y="-161.5" font-family="Helvetica,sans-Serif" font-size="10.00">ConnectionPoint::Connection</text>
<text xml:space="preserve" text-anchor="middle" x="1166.75" y="-149.5" font-family="Helvetica,sans-Serif" font-size="10.00">Point</text>
</a>
</g>
</g>
<!-- Node6&#45;&gt;Node7 -->
<g id="edge6_Node000006_Node000007" class="edge">
<title>Node6&#45;&gt;Node7</title>
<g id="a_edge6_Node000006_Node000007"><a xlink:title=" ">
<path fill="none" stroke="#63b8ff" d="M1059.26,-159C1067.14,-159 1075.15,-159 1083.07,-159"/>
<polygon fill="#63b8ff" stroke="#63b8ff" points="1083.06,-162.5 1093.06,-159 1083.06,-155.5 1083.06,-162.5"/>
</a>
</g>
</g>
<!-- Node11&#45;&gt;Node2 -->
<g id="edge11_Node000011_Node000002" class="edge">
<title>Node11&#45;&gt;Node2</title>
<g id="a_edge11_Node000011_Node000002"><a xlink:title=" ">
<path fill="none" stroke="#63b8ff" d="M282.77,-172.41C300.84,-176.11 321.41,-180.33 340.35,-184.21"/>
<polygon fill="#63b8ff" stroke="#63b8ff" points="339.61,-187.63 350.1,-186.21 341.01,-180.77 339.61,-187.63"/>
</a>
</g>
</g>
<!-- Node11&#45;&gt;Node10 -->
<g id="edge12_Node000011_Node000010" class="edge">
<title>Node11&#45;&gt;Node10</title>
<g id="a_edge12_Node000011_Node000010"><a xlink:title=" ">
<path fill="none" stroke="#63b8ff" d="M296.07,-156.75C305.59,-155.97 315.49,-155.15 325.25,-154.35"/>
<polygon fill="#63b8ff" stroke="#63b8ff" points="325.43,-157.85 335.11,-153.55 324.85,-150.88 325.43,-157.85"/>
</a>
</g>
</g>
<!-- Node11&#45;&gt;Node11 -->
<g id="edge13_Node000011_Node000011" class="edge">
<title>Node11&#45;&gt;Node11</title>
<g id="a_edge13_Node000011_Node000011"><a xlink:title=" ">
<path fill="none" stroke="#63b8ff" d="M204.62,-172.34C193.35,-180.98 202.14,-190 231,-190 246.78,-190 256.56,-187.3 260.34,-183.44"/>
<polygon fill="#63b8ff" stroke="#63b8ff" points="263.73,-182.56 257.77,-173.8 256.96,-184.37 263.73,-182.56"/>
</a>
</g>
</g>
<!-- Node11&#45;&gt;Node12 -->
<g id="edge14_Node000011_Node000012" class="edge">
<title>Node11&#45;&gt;Node12</title>
<g id="a_edge14_Node000011_Node000012"><a xlink:title=" ">
<path fill="none" stroke="#63b8ff" d="M255.38,-151.59C284.81,-138.5 335.54,-115.91 369.12,-100.97"/>
<polygon fill="#63b8ff" stroke="#63b8ff" points="370.28,-104.28 377.99,-97.02 367.43,-97.89 370.28,-104.28"/>
</a>
</g>
</g>
<!-- Node13 -->
<g id="Node000013" class="node">
<title>Node13</title>
<g id="a_Node000013"><a xlink:href="class_basic_element.html#a2cb2eb803daa35380908948215f8d468" target="_top" xlink:title=" ">
<polygon fill="white" stroke="#666666" points="664.38,-96 522.38,-96 522.38,-76 664.38,-76 664.38,-96"/>
<text xml:space="preserve" text-anchor="middle" x="593.38" y="-82.5" font-family="Helvetica,sans-Serif" font-size="10.00">BasicElement::minimumSize</text>
</a>
</g>
</g>
<!-- Node12&#45;&gt;Node13 -->
<g id="edge15_Node000012_Node000013" class="edge">
<title>Node12&#45;&gt;Node13</title>
<g id="a_edge15_Node000012_Node000013"><a xlink:title=" ">
<path fill="none" stroke="#63b8ff" d="M462.06,-86C477.47,-86 494.44,-86 510.89,-86"/>
<polygon fill="#63b8ff" stroke="#63b8ff" points="510.66,-89.5 520.66,-86 510.66,-82.5 510.66,-89.5"/>
</a>
</g>
</g>
<!-- Node14 -->
<g id="Node000014" class="node">
<title>Node14</title>
<g id="a_Node000014"><a xlink:href="class_basic_element.html#a596caee40cdd00a0aacce49689b63f92" target="_top" xlink:title=" ">
<polygon fill="white" stroke="#666666" points="669.25,-58 517.5,-58 517.5,-38 669.25,-38 669.25,-58"/>
<text xml:space="preserve" text-anchor="middle" x="593.38" y="-44.5" font-family="Helvetica,sans-Serif" font-size="10.00">BasicElement::notifyObservers</text>
</a>
</g>
</g>
<!-- Node12&#45;&gt;Node14 -->
<g id="edge16_Node000012_Node000014" class="edge">
<title>Node12&#45;&gt;Node14</title>
<g id="a_edge16_Node000012_Node000014"><a xlink:title=" ">
<path fill="none" stroke="#63b8ff" d="M456.52,-75.52C479.18,-70.93 505.96,-65.5 529.74,-60.69"/>
<polygon fill="#63b8ff" stroke="#63b8ff" points="530.19,-64.17 539.29,-58.75 528.8,-57.31 530.19,-64.17"/>
</a>
</g>
</g>
<!-- Node15 -->
<g id="Node000015" class="node">
<title>Node15</title>
<g id="a_Node000015"><a xlink:href="class_basic_element.html#a542adbf85a58c5c9bf17975964d7e446" target="_top" xlink:title=" ">
<polygon fill="white" stroke="#666666" points="643.75,-134 543,-134 543,-114 643.75,-114 643.75,-134"/>
<text xml:space="preserve" text-anchor="middle" x="593.38" y="-120.5" font-family="Helvetica,sans-Serif" font-size="10.00">BasicElement::size</text>
</a>
</g>
</g>
<!-- Node12&#45;&gt;Node15 -->
<g id="edge17_Node000012_Node000015" class="edge">
<title>Node12&#45;&gt;Node15</title>
<g id="a_edge17_Node000012_Node000015"><a xlink:title=" ">
<path fill="none" stroke="#63b8ff" d="M456.52,-96.48C479.74,-101.19 507.29,-106.77 531.5,-111.67"/>
<polygon fill="#63b8ff" stroke="#63b8ff" points="530.74,-115.09 541.23,-113.64 532.13,-108.23 530.74,-115.09"/>
</a>
</g>
</g>
<!-- Node16&#45;&gt;Node14 -->
<g id="edge19_Node000016_Node000014" class="edge">
<title>Node16&#45;&gt;Node14</title>
<g id="a_edge19_Node000016_Node000014"><a xlink:title=" ">
<path fill="none" stroke="#63b8ff" d="M292.73,-48C351.22,-48 440.3,-48 506.14,-48"/>
<polygon fill="#63b8ff" stroke="#63b8ff" points="505.81,-51.5 515.81,-48 505.81,-44.5 505.81,-51.5"/>
</a>
</g>
</g>
</g>
</svg>
