<?xml version="1.0" encoding="UTF-8" standalone="no"?>
<!DOCTYPE svg PUBLIC "-//W3C//DTD SVG 1.1//EN"
 "http://www.w3.org/Graphics/SVG/1.1/DTD/svg11.dtd">
<!-- Generated by graphviz version 14.1.1 (20251213.1925)
 -->
<!-- Title: PropertiesPanel::getAttributesFromIds Pages: 1 -->
<svg width="1891pt" height="846pt"
 viewBox="0.00 0.00 1891.00 846.00" xmlns="http://www.w3.org/2000/svg" xmlns:xlink="http://www.w3.org/1999/xlink">
<g id="graph0" class="graph" transform="scale(1 1) rotate(0) translate(4 842)">
<title>PropertiesPanel::getAttributesFromIds</title>
<!-- Node1 -->
<g id="Node000001" class="node">
<title>Node1</title>
<g id="a_Node000001"><a xlink:title=" ">
<polygon fill="#999999" stroke="#666666" points="1883,-190 1736.5,-190 1736.5,-158 1883,-158 1883,-190"/>
<text xml:space="preserve" text-anchor="start" x="1744.5" y="-176.5" font-family="Helvetica,sans-Serif" font-size="10.00">PropertiesPanel::getAttributes</text>
<text xml:space="preserve" text-anchor="middle" x="1809.75" y="-164.5" font-family="Helvetica,sans-Serif" font-size="10.00">FromIds</text>
</a>
</g>
</g>
<!-- Node2 -->
<g id="Node000002" class="node">
<title>Node2</title>
<g id="a_Node000002"><a xlink:href="class_properties_panel.html#acc5a2b4e63ea74eaa34853f1cec46b81" target="_top" xlink:title=" ">
<polygon fill="white" stroke="#666666" points="1700.5,-190 1572.75,-190 1572.75,-158 1700.5,-158 1700.5,-190"/>
<text xml:space="preserve" text-anchor="start" x="1580.75" y="-176.5" font-family="Helvetica,sans-Serif" font-size="10.00">PropertiesPanel::populate</text>
<text xml:space="preserve" text-anchor="middle" x="1636.62" y="-164.5" font-family="Helvetica,sans-Serif" font-size="10.00">AttributeProperties</text>
</a>
</g>
</g>
<!-- Node1&#45;&gt;Node2 -->
<g id="edge1_Node000001_Node000002" class="edge">
<title>Node1&#45;&gt;Node2</title>
<g id="a_edge1_Node000001_Node000002"><a xlink:title=" ">
<path fill="none" stroke="#63b8ff" d="M1724.81,-174C1716.74,-174 1708.66,-174 1700.83,-174"/>
<polygon fill="#63b8ff" stroke="#63b8ff" points="1724.66,-177.5 1734.66,-174 1724.66,-170.5 1724.66,-177.5"/>
</a>
</g>
</g>
<!-- Node4 -->
<g id="Node000004" class="node">
<title>Node4</title>
<g id="a_Node000004"><a xlink:href="class_properties_panel.html#a6a4344308af5b2c993bc25981529239c" target="_top" xlink:title=" ">
<polygon fill="white" stroke="#666666" points="482.25,-111 354.5,-111 354.5,-79 482.25,-79 482.25,-111"/>
<text xml:space="preserve" text-anchor="start" x="362.5" y="-97.5" font-family="Helvetica,sans-Serif" font-size="10.00">PropertiesPanel::populate</text>
<text xml:space="preserve" text-anchor="middle" x="418.38" y="-85.5" font-family="Helvetica,sans-Serif" font-size="10.00">EntityProperties</text>
</a>
</g>
</g>
<!-- Node1&#45;&gt;Node4 -->
<g id="edge48_Node000001_Node000004" class="edge">
<title>Node1&#45;&gt;Node4</title>
<g id="a_edge48_Node000001_Node000004"><a xlink:title=" ">
<path fill="none" stroke="#63b8ff" d="M1783.47,-149.92C1730.57,-102.15 1602.39,0 1473.88,0 1473.88,0 1473.88,0 809.75,0 678.44,0 529.16,-51.37 459.34,-78.56"/>
<polygon fill="#63b8ff" stroke="#63b8ff" points="1781.03,-152.43 1790.77,-156.61 1785.76,-147.27 1781.03,-152.43"/>
</a>
</g>
</g>
<!-- Node9 -->
<g id="Node000009" class="node">
<title>Node9</title>
<g id="a_Node000009"><a xlink:href="class_properties_panel.html#aeb116e2e51099f618b5d284e492bc0e2" target="_top" xlink:title=" ">
<polygon fill="white" stroke="#666666" points="1373,-702 1245.25,-702 1245.25,-670 1373,-670 1373,-702"/>
<text xml:space="preserve" text-anchor="start" x="1253.25" y="-688.5" font-family="Helvetica,sans-Serif" font-size="10.00">PropertiesPanel::populate</text>
<text xml:space="preserve" text-anchor="middle" x="1309.12" y="-676.5" font-family="Helvetica,sans-Serif" font-size="10.00">RelationshipProperties</text>
</a>
</g>
</g>
<!-- Node1&#45;&gt;Node9 -->
<g id="edge49_Node000001_Node000009" class="edge">
<title>Node1&#45;&gt;Node9</title>
<g id="a_edge49_Node000001_Node000009"><a xlink:title=" ">
<path fill="none" stroke="#63b8ff" d="M1784.73,-198.67C1697.48,-288.26 1398.64,-595.11 1326.09,-669.61"/>
<polygon fill="#63b8ff" stroke="#63b8ff" points="1787.2,-201.15 1791.67,-191.54 1782.18,-196.26 1787.2,-201.15"/>
</a>
</g>
</g>
<!-- Node3 -->
<g id="Node000003" class="node">
<title>Node3</title>
<g id="a_Node000003"><a xlink:href="class_properties_panel.html#a050a4a9040c7aeefde9c1377d2e1909e" target="_top" xlink:title=" ">
<polygon fill="white" stroke="#666666" points="1536.75,-168 1409,-168 1409,-136 1536.75,-136 1536.75,-168"/>
<text xml:space="preserve" text-anchor="start" x="1417" y="-154.5" font-family="Helvetica,sans-Serif" font-size="10.00">PropertiesPanel::populate</text>
<text xml:space="preserve" text-anchor="middle" x="1472.88" y="-142.5" font-family="Helvetica,sans-Serif" font-size="10.00">AttributeList</text>
</a>
</g>
</g>
<!-- Node2&#45;&gt;Node3 -->
<g id="edge2_Node000002_Node000003" class="edge">
<title>Node2&#45;&gt;Node3</title>
<g id="a_edge2_Node000002_Node000003"><a xlink:title=" ">
<path fill="none" stroke="#63b8ff" d="M1561.33,-157.17C1553.28,-156.02 1545.14,-154.96 1537.24,-154.01"/>
<polygon fill="#63b8ff" stroke="#63b8ff" points="1560.72,-160.61 1571.13,-158.61 1561.75,-153.69 1560.72,-160.61"/>
</a>
</g>
</g>
<!-- Node5 -->
<g id="Node000005" class="node">
<title>Node5</title>
<g id="a_Node000005"><a xlink:href="class_properties_panel.html#a037586f897062f3915a123b9f2a82b91" target="_top" xlink:title=" ">
<polygon fill="white" stroke="#666666" points="1209.25,-212 1081.5,-212 1081.5,-180 1209.25,-180 1209.25,-212"/>
<text xml:space="preserve" text-anchor="start" x="1089.5" y="-198.5" font-family="Helvetica,sans-Serif" font-size="10.00">PropertiesPanel::populate</text>
<text xml:space="preserve" text-anchor="middle" x="1145.38" y="-186.5" font-family="Helvetica,sans-Serif" font-size="10.00">ForElement</text>
</a>
</g>
</g>
<!-- Node2&#45;&gt;Node5 -->
<g id="edge47_Node000002_Node000005" class="edge">
<title>Node2&#45;&gt;Node5</title>
<g id="a_edge47_Node000002_Node000005"><a xlink:title=" ">
<path fill="none" stroke="#63b8ff" d="M1561.05,-177.35C1464.95,-181.67 1299.54,-189.11 1209.41,-193.17"/>
<polygon fill="#63b8ff" stroke="#63b8ff" points="1561.07,-180.86 1570.9,-176.91 1560.76,-173.86 1561.07,-180.86"/>
</a>
</g>
</g>
<!-- Node3&#45;&gt;Node2 -->
<g id="edge3_Node000003_Node000002" class="edge">
<title>Node3&#45;&gt;Node2</title>
<g id="a_edge3_Node000003_Node000002"><a xlink:title=" ">
<path fill="none" stroke="#63b8ff" d="M1548.53,-168.89C1556.59,-170.03 1564.73,-171.09 1572.63,-172.03"/>
<polygon fill="#63b8ff" stroke="#63b8ff" points="1549.14,-165.44 1538.73,-167.45 1548.12,-172.36 1549.14,-165.44"/>
</a>
</g>
</g>
<!-- Node3&#45;&gt;Node4 -->
<g id="edge4_Node000003_Node000004" class="edge">
<title>Node3&#45;&gt;Node4</title>
<g id="a_edge4_Node000003_Node000004"><a xlink:title=" ">
<path fill="none" stroke="#63b8ff" d="M1418.87,-131.72C1355.16,-109.2 1244.57,-76 1146.38,-76 1146.38,-76 1146.38,-76 809.75,-76 694.23,-76 559.71,-84.4 482.55,-90.03"/>
<polygon fill="#63b8ff" stroke="#63b8ff" points="1417.42,-134.92 1428.01,-135 1419.78,-128.33 1417.42,-134.92"/>
</a>
</g>
</g>
<!-- Node3&#45;&gt;Node9 -->
<g id="edge46_Node000003_Node000009" class="edge">
<title>Node3&#45;&gt;Node9</title>
<g id="a_edge46_Node000003_Node000009"><a xlink:title=" ">
<path fill="none" stroke="#63b8ff" d="M1463.61,-179.29C1434.63,-274.97 1338.13,-593.54 1315.1,-669.59"/>
<polygon fill="#63b8ff" stroke="#63b8ff" points="1466.96,-180.31 1466.51,-169.72 1460.26,-178.28 1466.96,-180.31"/>
</a>
</g>
</g>
<!-- Node4&#45;&gt;Node5 -->
<g id="edge5_Node000004_Node000005" class="edge">
<title>Node4&#45;&gt;Node5</title>
<g id="a_edge5_Node000004_Node000005"><a xlink:title=" ">
<path fill="none" stroke="#63b8ff" d="M493.73,-105.1C549.65,-112.71 628.14,-123.44 697,-133 833.93,-152.01 994.37,-174.71 1081.04,-187"/>
<polygon fill="#63b8ff" stroke="#63b8ff" points="494.39,-101.66 484.01,-103.77 493.45,-108.59 494.39,-101.66"/>
</a>
</g>
</g>
<!-- Node6 -->
<g id="Node000006" class="node">
<title>Node6</title>
<g id="a_Node000006"><a xlink:href="class_properties_panel.html#a139ae0158b486c6004e15e0ddf36f319" target="_top" xlink:title=" ">
<polygon fill="white" stroke="#666666" points="1045.5,-385 924.5,-385 924.5,-365 1045.5,-365 1045.5,-385"/>
<text xml:space="preserve" text-anchor="middle" x="985" y="-371.5" font-family="Helvetica,sans-Serif" font-size="10.00">PropertiesPanel::refresh</text>
</a>
</g>
</g>
<!-- Node5&#45;&gt;Node6 -->
<g id="edge6_Node000005_Node000006" class="edge">
<title>Node5&#45;&gt;Node6</title>
<g id="a_edge6_Node000005_Node000006"><a xlink:title=" ">
<path fill="none" stroke="#63b8ff" d="M1122.45,-220.78C1087.27,-260.54 1019.71,-336.9 995.18,-364.62"/>
<polygon fill="#63b8ff" stroke="#63b8ff" points="1125.03,-223.14 1129.04,-213.33 1119.79,-218.5 1125.03,-223.14"/>
</a>
</g>
</g>
<!-- Node7 -->
<g id="Node000007" class="node">
<title>Node7</title>
<g id="a_Node000007"><a xlink:href="class_properties_panel.html#a55ae5c02e7d75c7bdc26281a148e8c5a" target="_top" xlink:title=" ">
<polygon fill="white" stroke="#666666" points="888.5,-250 733,-250 733,-218 888.5,-218 888.5,-250"/>
<text xml:space="preserve" text-anchor="start" x="741" y="-236.5" font-family="Helvetica,sans-Serif" font-size="10.00">PropertiesPanel::onAddAttribute</text>
<text xml:space="preserve" text-anchor="middle" x="810.75" y="-224.5" font-family="Helvetica,sans-Serif" font-size="10.00">OnTreeClicked</text>
</a>
</g>
</g>
<!-- Node6&#45;&gt;Node7 -->
<g id="edge7_Node000006_Node000007" class="edge">
<title>Node6&#45;&gt;Node7</title>
<g id="a_edge7_Node000006_Node000007"><a xlink:title=" ">
<path fill="none" stroke="#63b8ff" d="M972.46,-354.85C956.69,-329.03 926.03,-284.59 888.5,-259 883.75,-255.76 878.56,-252.92 873.18,-250.43"/>
<polygon fill="#63b8ff" stroke="#63b8ff" points="969.4,-356.54 977.51,-363.36 975.42,-352.97 969.4,-356.54"/>
</a>
</g>
</g>
<!-- Node10 -->
<g id="Node000010" class="node">
<title>Node10</title>
<g id="a_Node000010"><a xlink:href="class_properties_panel.html#a2800a2c7575a5fad6d923d9b64d982f8" target="_top" xlink:title=" ">
<polygon fill="white" stroke="#666666" points="483.38,-532 353.38,-532 353.38,-500 483.38,-500 483.38,-532"/>
<text xml:space="preserve" text-anchor="start" x="361.38" y="-518.5" font-family="Helvetica,sans-Serif" font-size="10.00">PropertiesPanel::onCheck</text>
<text xml:space="preserve" text-anchor="middle" x="418.38" y="-506.5" font-family="Helvetica,sans-Serif" font-size="10.00">BoxChanged</text>
</a>
</g>
</g>
<!-- Node6&#45;&gt;Node10 -->
<g id="edge14_Node000006_Node000010" class="edge">
<title>Node6&#45;&gt;Node10</title>
<g id="a_edge14_Node000006_Node000010"><a xlink:title=" ">
<path fill="none" stroke="#63b8ff" d="M982.31,-396.68C977.35,-444 958.43,-556.54 888.5,-609 823.52,-657.75 597.9,-661.61 523.5,-629 478.06,-609.08 443.68,-558.45 428.28,-532.26"/>
<polygon fill="#63b8ff" stroke="#63b8ff" points="985.78,-397.19 983.21,-386.91 978.81,-396.54 985.78,-397.19"/>
</a>
</g>
</g>
<!-- Node12 -->
<g id="Node000012" class="node">
<title>Node12</title>
<g id="a_Node000012"><a xlink:href="class_properties_panel.html#aec82450a3daeb2614c2321e37897f1dd" target="_top" xlink:title=" ">
<polygon fill="white" stroke="#666666" points="484.88,-419 351.88,-419 351.88,-387 484.88,-387 484.88,-419"/>
<text xml:space="preserve" text-anchor="start" x="359.88" y="-405.5" font-family="Helvetica,sans-Serif" font-size="10.00">PropertiesPanel::onCombo</text>
<text xml:space="preserve" text-anchor="middle" x="418.38" y="-393.5" font-family="Helvetica,sans-Serif" font-size="10.00">BoxChanged</text>
</a>
</g>
</g>
<!-- Node6&#45;&gt;Node12 -->
<g id="edge18_Node000006_Node000012" class="edge">
<title>Node6&#45;&gt;Node12</title>
<g id="a_edge18_Node000006_Node000012"><a xlink:title=" ">
<path fill="none" stroke="#63b8ff" d="M964.83,-393.14C946.3,-410.05 916.93,-435.26 888.5,-453 809.03,-502.58 788.5,-520.98 697,-541 621.67,-557.48 592.13,-576.16 523.5,-541 499.13,-528.52 503.88,-512.94 487.5,-491 468.66,-465.77 446.19,-436.99 432.35,-419.41"/>
<polygon fill="#63b8ff" stroke="#63b8ff" points="967.17,-395.74 972.13,-386.38 962.41,-390.61 967.17,-395.74"/>
</a>
</g>
</g>
<!-- Node16 -->
<g id="Node000016" class="node">
<title>Node16</title>
<g id="a_Node000016"><a xlink:href="class_properties_panel.html#aec8130201106284c02f21903b516554d" target="_top" xlink:title=" ">
<polygon fill="white" stroke="#666666" points="678.62,-620 541.88,-620 541.88,-588 678.62,-588 678.62,-620"/>
<text xml:space="preserve" text-anchor="start" x="549.88" y="-606.5" font-family="Helvetica,sans-Serif" font-size="10.00">PropertiesPanel::onLineEdit</text>
<text xml:space="preserve" text-anchor="middle" x="610.25" y="-594.5" font-family="Helvetica,sans-Serif" font-size="10.00">Changed</text>
</a>
</g>
</g>
<!-- Node6&#45;&gt;Node16 -->
<g id="edge25_Node000006_Node000016" class="edge">
<title>Node6&#45;&gt;Node16</title>
<g id="a_edge25_Node000006_Node000016"><a xlink:title=" ">
<path fill="none" stroke="#63b8ff" d="M980.63,-396.58C972.83,-438.59 949.31,-530.99 888.5,-574 827.53,-617.12 739.38,-619.17 678.93,-613.99"/>
<polygon fill="#63b8ff" stroke="#63b8ff" points="984.04,-397.43 982.28,-386.98 977.14,-396.24 984.04,-397.43"/>
</a>
</g>
</g>
<!-- Node18 -->
<g id="Node000018" class="node">
<title>Node18</title>
<g id="a_Node000018"><a xlink:href="class_properties_panel.html#a3cdc065abcd2f9e59558903073c0f23f" target="_top" xlink:title=" ">
<polygon fill="white" stroke="#666666" points="487.5,-288 349.25,-288 349.25,-256 487.5,-256 487.5,-288"/>
<text xml:space="preserve" text-anchor="start" x="357.25" y="-274.5" font-family="Helvetica,sans-Serif" font-size="10.00">PropertiesPanel::onProperty</text>
<text xml:space="preserve" text-anchor="middle" x="418.38" y="-262.5" font-family="Helvetica,sans-Serif" font-size="10.00">ValueChanged</text>
</a>
</g>
</g>
<!-- Node6&#45;&gt;Node18 -->
<g id="edge28_Node000006_Node000018" class="edge">
<title>Node6&#45;&gt;Node18</title>
<g id="a_edge28_Node000006_Node000018"><a xlink:title=" ">
<path fill="none" stroke="#63b8ff" d="M912.94,-375.09C858.9,-375.41 785.18,-369.72 733,-333 704.39,-312.87 726.86,-281.22 697,-263 621.09,-216.68 510.4,-237.13 454.48,-255.53"/>
<polygon fill="#63b8ff" stroke="#63b8ff" points="912.7,-378.59 922.65,-374.96 912.6,-371.59 912.7,-378.59"/>
</a>
</g>
</g>
<!-- Node20 -->
<g id="Node000020" class="node">
<title>Node20</title>
<g id="a_Node000020"><a xlink:href="class_properties_panel.html#a8a2ec0bcba44f3bbd0245d3a53ff49f7" target="_top" xlink:title=" ">
<polygon fill="white" stroke="#666666" points="879.88,-300 741.62,-300 741.62,-268 879.88,-268 879.88,-300"/>
<text xml:space="preserve" text-anchor="start" x="749.62" y="-286.5" font-family="Helvetica,sans-Serif" font-size="10.00">PropertiesPanel::onRemove</text>
<text xml:space="preserve" text-anchor="middle" x="810.75" y="-274.5" font-family="Helvetica,sans-Serif" font-size="10.00">AttributeOnTreeClicked</text>
</a>
</g>
</g>
<!-- Node6&#45;&gt;Node20 -->
<g id="edge31_Node000006_Node000020" class="edge">
<title>Node6&#45;&gt;Node20</title>
<g id="a_edge31_Node000006_Node000020"><a xlink:title=" ">
<path fill="none" stroke="#63b8ff" d="M960.36,-358.05C941.49,-344.98 914.07,-327 888.5,-314 878.94,-309.14 868.39,-304.55 858.25,-300.49"/>
<polygon fill="#63b8ff" stroke="#63b8ff" points="958.21,-360.82 968.4,-363.69 962.23,-355.09 958.21,-360.82"/>
</a>
</g>
</g>
<!-- Node21 -->
<g id="Node000021" class="node">
<title>Node21</title>
<g id="a_Node000021"><a xlink:href="class_properties_panel.html#a79618c5c820a40931c085d54be70bd34" target="_top" xlink:title=" ">
<polygon fill="white" stroke="#666666" points="873.5,-444 748,-444 748,-412 873.5,-412 873.5,-444"/>
<text xml:space="preserve" text-anchor="start" x="756" y="-430.5" font-family="Helvetica,sans-Serif" font-size="10.00">PropertiesPanel::updates</text>
<text xml:space="preserve" text-anchor="middle" x="810.75" y="-418.5" font-family="Helvetica,sans-Serif" font-size="10.00">AfterChangingProperty</text>
</a>
</g>
</g>
<!-- Node6&#45;&gt;Node21 -->
<g id="edge33_Node000006_Node000021" class="edge">
<title>Node6&#45;&gt;Node21</title>
<g id="a_edge33_Node000006_Node000021"><a xlink:title=" ">
<path fill="none" stroke="#63b8ff" d="M939.27,-388.76C916.57,-395.75 888.84,-404.28 865.04,-411.6"/>
<polygon fill="#63b8ff" stroke="#63b8ff" points="939.99,-392.2 948.52,-385.92 937.94,-385.51 939.99,-392.2"/>
</a>
</g>
</g>
<!-- Node8 -->
<g id="Node000008" class="node">
<title>Node8</title>
<g id="a_Node000008"><a xlink:href="class_properties_panel.html#a90cca2a241daa84841ee3e90d7768c8f" target="_top" xlink:title=" ">
<polygon fill="white" stroke="#666666" points="683.5,-174 537,-174 537,-142 683.5,-142 683.5,-174"/>
<text xml:space="preserve" text-anchor="start" x="545" y="-160.5" font-family="Helvetica,sans-Serif" font-size="10.00">PropertiesPanel::createButton</text>
<text xml:space="preserve" text-anchor="middle" x="610.25" y="-148.5" font-family="Helvetica,sans-Serif" font-size="10.00">PropertyItem</text>
</a>
</g>
</g>
<!-- Node7&#45;&gt;Node8 -->
<g id="edge8_Node000007_Node000008" class="edge">
<title>Node7&#45;&gt;Node8</title>
<g id="a_edge8_Node000007_Node000008"><a xlink:title=" ">
<path fill="none" stroke="#63b8ff" d="M756.1,-213.39C748.33,-210.3 740.44,-207.11 733,-204 716.84,-197.26 713.28,-194.45 697,-188 685.27,-183.35 672.5,-178.68 660.48,-174.45"/>
<polygon fill="#63b8ff" stroke="#63b8ff" points="754.59,-216.56 765.18,-216.97 757.16,-210.04 754.59,-216.56"/>
</a>
</g>
</g>
<!-- Node8&#45;&gt;Node2 -->
<g id="edge10_Node000008_Node000002" class="edge">
<title>Node8&#45;&gt;Node2</title>
<g id="a_edge10_Node000008_Node000002"><a xlink:title=" ">
<path fill="none" stroke="#63b8ff" d="M650.69,-136.28C717.29,-101.7 857.19,-38 984,-38 1310.12,-38 1310.12,-38 1310.12,-38 1432.92,-38 1563.03,-121.42 1613.68,-157.6"/>
<polygon fill="#63b8ff" stroke="#63b8ff" points="649.21,-133.11 641.99,-140.86 652.47,-139.3 649.21,-133.11"/>
</a>
</g>
</g>
<!-- Node8&#45;&gt;Node3 -->
<g id="edge9_Node000008_Node000003" class="edge">
<title>Node8&#45;&gt;Node3</title>
<g id="a_edge9_Node000008_Node000003"><a xlink:title=" ">
<path fill="none" stroke="#63b8ff" d="M695.07,-155.88C770.61,-154.15 884.73,-152 984,-152 1146.38,-152 1146.38,-152 1146.38,-152 1237.5,-152 1342.97,-152 1408.56,-152"/>
<polygon fill="#63b8ff" stroke="#63b8ff" points="695.18,-152.38 685.26,-156.11 695.34,-159.38 695.18,-152.38"/>
</a>
</g>
</g>
<!-- Node8&#45;&gt;Node4 -->
<g id="edge11_Node000008_Node000004" class="edge">
<title>Node8&#45;&gt;Node4</title>
<g id="a_edge11_Node000008_Node000004"><a xlink:title=" ">
<path fill="none" stroke="#63b8ff" d="M549.05,-138.03C523.21,-129.45 493.38,-119.55 468.85,-111.42"/>
<polygon fill="#63b8ff" stroke="#63b8ff" points="547.83,-141.31 558.42,-141.14 550.03,-134.66 547.83,-141.31"/>
</a>
</g>
</g>
<!-- Node8&#45;&gt;Node9 -->
<g id="edge12_Node000008_Node000009" class="edge">
<title>Node8&#45;&gt;Node9</title>
<g id="a_edge12_Node000008_Node000009"><a xlink:title=" ">
<path fill="none" stroke="#63b8ff" d="M695.17,-168.15C764.02,-177.45 855.33,-192.27 888.5,-209 1108.1,-319.78 1263.53,-599.51 1299.95,-669.79"/>
<polygon fill="#63b8ff" stroke="#63b8ff" points="695.77,-164.7 685.4,-166.85 694.85,-171.64 695.77,-164.7"/>
</a>
</g>
</g>
<!-- Node9&#45;&gt;Node5 -->
<g id="edge13_Node000009_Node000005" class="edge">
<title>Node9&#45;&gt;Node5</title>
<g id="a_edge13_Node000009_Node000005"><a xlink:title=" ">
<path fill="none" stroke="#63b8ff" d="M1305.38,-658.38C1296.1,-569.79 1263.42,-294.56 1209.25,-226 1204.98,-220.59 1199.49,-216.1 1193.54,-212.39"/>
<polygon fill="#63b8ff" stroke="#63b8ff" points="1301.88,-658.5 1306.38,-668.09 1308.84,-657.79 1301.88,-658.5"/>
</a>
</g>
</g>
<!-- Node11 -->
<g id="Node000011" class="node">
<title>Node11</title>
<g id="a_Node000011"><a xlink:href="class_properties_panel.html#acfb41226221624e46767835caeea8abc" target="_top" xlink:title=" ">
<polygon fill="white" stroke="#666666" points="311.75,-816 165.25,-816 165.25,-784 311.75,-784 311.75,-816"/>
<text xml:space="preserve" text-anchor="start" x="173.25" y="-802.5" font-family="Helvetica,sans-Serif" font-size="10.00">PropertiesPanel::createCheck</text>
<text xml:space="preserve" text-anchor="middle" x="238.5" y="-790.5" font-family="Helvetica,sans-Serif" font-size="10.00">BoxPropertyItem</text>
</a>
</g>
</g>
<!-- Node10&#45;&gt;Node11 -->
<g id="edge15_Node000010_Node000011" class="edge">
<title>Node10&#45;&gt;Node11</title>
<g id="a_edge15_Node000010_Node000011"><a xlink:title=" ">
<path fill="none" stroke="#63b8ff" d="M396.8,-541.38C381.78,-561.01 361.9,-589.41 349.25,-617 323.91,-672.28 348.38,-699.37 313.25,-749 303,-763.48 287.25,-775.18 272.94,-783.7"/>
<polygon fill="#63b8ff" stroke="#63b8ff" points="399.41,-543.72 402.8,-533.69 393.89,-539.42 399.41,-543.72"/>
</a>
</g>
</g>
<!-- Node11&#45;&gt;Node2 -->
<g id="edge16_Node000011_Node000002" class="edge">
<title>Node11&#45;&gt;Node2</title>
<g id="a_edge16_Node000011_Node000002"><a xlink:title=" ">
<path fill="none" stroke="#63b8ff" d="M323.45,-813.58C398.23,-824.49 510.74,-838 609.25,-838 1310.12,-838 1310.12,-838 1310.12,-838 1607.98,-838 1633.3,-292.66 1635.43,-190.41"/>
<polygon fill="#63b8ff" stroke="#63b8ff" points="324.14,-810.14 313.73,-812.14 323.11,-817.07 324.14,-810.14"/>
</a>
</g>
</g>
<!-- Node11&#45;&gt;Node9 -->
<g id="edge17_Node000011_Node000009" class="edge">
<title>Node11&#45;&gt;Node9</title>
<g id="a_edge17_Node000011_Node000009"><a xlink:title=" ">
<path fill="none" stroke="#63b8ff" d="M323.31,-790.91C434.38,-779.67 636.54,-762 809.75,-762 986,-762 986,-762 986,-762 1086.5,-762 1112.45,-753.02 1209.25,-726 1231.01,-719.93 1254.49,-710.56 1273.1,-702.41"/>
<polygon fill="#63b8ff" stroke="#63b8ff" points="322.96,-787.43 313.37,-791.93 323.67,-794.39 322.96,-787.43"/>
</a>
</g>
</g>
<!-- Node13 -->
<g id="Node000013" class="node">
<title>Node13</title>
<g id="a_Node000013"><a xlink:href="class_properties_panel.html#a8fd53ec3c9f711c3354483e8bb4d0b47" target="_top" xlink:title=" ">
<polygon fill="white" stroke="#666666" points="313.25,-740 163.75,-740 163.75,-708 313.25,-708 313.25,-740"/>
<text xml:space="preserve" text-anchor="start" x="171.75" y="-726.5" font-family="Helvetica,sans-Serif" font-size="10.00">PropertiesPanel::createCombo</text>
<text xml:space="preserve" text-anchor="middle" x="238.5" y="-714.5" font-family="Helvetica,sans-Serif" font-size="10.00">BoxPropertyItem</text>
</a>
</g>
</g>
<!-- Node12&#45;&gt;Node13 -->
<g id="edge19_Node000012_Node000013" class="edge">
<title>Node12&#45;&gt;Node13</title>
<g id="a_edge19_Node000012_Node000013"><a xlink:title=" ">
<path fill="none" stroke="#63b8ff" d="M395.5,-428.17C381.3,-445.21 362.96,-468.62 349.25,-491 302.08,-568.03 261.02,-668.57 245.79,-707.55"/>
<polygon fill="#63b8ff" stroke="#63b8ff" points="398.15,-430.46 401.93,-420.56 392.8,-425.94 398.15,-430.46"/>
</a>
</g>
</g>
<!-- Node14 -->
<g id="Node000014" class="node">
<title>Node14</title>
<g id="a_Node000014"><a xlink:href="class_properties_panel.html#a32c2dab00c58ffdcb6a1e3cd829d03c8" target="_top" xlink:title=" ">
<polygon fill="white" stroke="#666666" points="306.88,-378 170.12,-378 170.12,-346 306.88,-346 306.88,-378"/>
<text xml:space="preserve" text-anchor="start" x="178.12" y="-364.5" font-family="Helvetica,sans-Serif" font-size="10.00">PropertiesPanel::createIcon</text>
<text xml:space="preserve" text-anchor="middle" x="238.5" y="-352.5" font-family="Helvetica,sans-Serif" font-size="10.00">ComboBoxPropertyItem</text>
</a>
</g>
</g>
<!-- Node12&#45;&gt;Node14 -->
<g id="edge22_Node000012_Node000014" class="edge">
<title>Node12&#45;&gt;Node14</title>
<g id="a_edge22_Node000012_Node000014"><a xlink:title=" ">
<path fill="none" stroke="#63b8ff" d="M340.43,-385.26C329.36,-382.71 318.03,-380.1 307.16,-377.6"/>
<polygon fill="#63b8ff" stroke="#63b8ff" points="339.39,-388.62 349.92,-387.45 340.96,-381.79 339.39,-388.62"/>
</a>
</g>
</g>
<!-- Node13&#45;&gt;Node2 -->
<g id="edge20_Node000013_Node000002" class="edge">
<title>Node13&#45;&gt;Node2</title>
<g id="a_edge20_Node000013_Node000002"><a xlink:title=" ">
<path fill="none" stroke="#63b8ff" d="M324.47,-742.48C435.48,-764.98 636.18,-800 809.75,-800 986,-800 986,-800 986,-800 991.45,-800 1337.6,-740.17 1373,-711 1552.41,-563.16 1618.92,-262.9 1632.75,-190.14"/>
<polygon fill="#63b8ff" stroke="#63b8ff" points="325.33,-739.09 314.84,-740.51 323.93,-745.95 325.33,-739.09"/>
</a>
</g>
</g>
<!-- Node13&#45;&gt;Node9 -->
<g id="edge21_Node000013_Node000009" class="edge">
<title>Node13&#45;&gt;Node9</title>
<g id="a_edge21_Node000013_Node000009"><a xlink:title=" ">
<path fill="none" stroke="#63b8ff" d="M324.75,-724C399.69,-724 511.71,-724 609.25,-724 986,-724 986,-724 986,-724 1076.38,-724 1180.05,-709.06 1244.82,-697.92"/>
<polygon fill="#63b8ff" stroke="#63b8ff" points="325.02,-720.5 315.02,-724 325.02,-727.5 325.02,-720.5"/>
</a>
</g>
</g>
<!-- Node15 -->
<g id="Node000015" class="node">
<title>Node15</title>
<g id="a_Node000015"><a xlink:href="class_properties_panel.html#adbc7f8deb3a687706dc44ebbd7e39d9d" target="_top" xlink:title=" ">
<polygon fill="white" stroke="#666666" points="127.75,-298 0,-298 0,-266 127.75,-266 127.75,-298"/>
<text xml:space="preserve" text-anchor="start" x="8" y="-284.5" font-family="Helvetica,sans-Serif" font-size="10.00">PropertiesPanel::populate</text>
<text xml:space="preserve" text-anchor="middle" x="63.88" y="-272.5" font-family="Helvetica,sans-Serif" font-size="10.00">ForConnection</text>
</a>
</g>
</g>
<!-- Node14&#45;&gt;Node15 -->
<g id="edge23_Node000014_Node000015" class="edge">
<title>Node14&#45;&gt;Node15</title>
<g id="a_edge23_Node000014_Node000015"><a xlink:title=" ">
<path fill="none" stroke="#63b8ff" d="M191.99,-340.91C163.37,-327.65 126.98,-310.78 100.47,-298.5"/>
<polygon fill="#63b8ff" stroke="#63b8ff" points="190.23,-343.95 200.78,-344.98 193.18,-337.6 190.23,-343.95"/>
</a>
</g>
</g>
<!-- Node15&#45;&gt;Node6 -->
<g id="edge24_Node000015_Node000006" class="edge">
<title>Node15&#45;&gt;Node6</title>
<g id="a_edge24_Node000015_Node000006"><a xlink:title=" ">
<path fill="none" stroke="#63b8ff" d="M112.84,-261.31C224.71,-216.52 507.76,-123.53 697,-239 726.86,-257.22 705.2,-287.76 733,-309 789.14,-351.89 820.43,-323.09 888.5,-342 911.82,-348.48 937.75,-357.56 956.7,-364.56"/>
<polygon fill="#63b8ff" stroke="#63b8ff" points="111.59,-258.04 103.64,-265.05 114.22,-264.53 111.59,-258.04"/>
</a>
</g>
</g>
<!-- Node17 -->
<g id="Node000017" class="node">
<title>Node17</title>
<g id="a_Node000017"><a xlink:href="class_properties_panel.html#a7bc224323f9c626842fdb6a89205c9bc" target="_top" xlink:title=" ">
<polygon fill="white" stroke="#666666" points="486.38,-658 350.38,-658 350.38,-626 486.38,-626 486.38,-658"/>
<text xml:space="preserve" text-anchor="start" x="358.38" y="-644.5" font-family="Helvetica,sans-Serif" font-size="10.00">PropertiesPanel::createLine</text>
<text xml:space="preserve" text-anchor="middle" x="418.38" y="-632.5" font-family="Helvetica,sans-Serif" font-size="10.00">EditPropertyItem</text>
</a>
</g>
</g>
<!-- Node16&#45;&gt;Node17 -->
<g id="edge26_Node000016_Node000017" class="edge">
<title>Node16&#45;&gt;Node17</title>
<g id="a_edge26_Node000016_Node000017"><a xlink:title=" ">
<path fill="none" stroke="#63b8ff" d="M530.52,-619.76C515.99,-622.66 500.93,-625.68 486.77,-628.51"/>
<polygon fill="#63b8ff" stroke="#63b8ff" points="530.9,-623.25 540.02,-617.85 529.53,-616.39 530.9,-623.25"/>
</a>
</g>
</g>
<!-- Node17&#45;&gt;Node9 -->
<g id="edge27_Node000017_Node000009" class="edge">
<title>Node17&#45;&gt;Node9</title>
<g id="a_edge27_Node000017_Node000009"><a xlink:title=" ">
<path fill="none" stroke="#63b8ff" d="M498.08,-656.12C576.71,-668.99 701.19,-686 809.75,-686 986,-686 986,-686 986,-686 1075.9,-686 1179.91,-686 1244.86,-686"/>
<polygon fill="#63b8ff" stroke="#63b8ff" points="498.75,-652.69 488.31,-654.5 497.6,-659.59 498.75,-652.69"/>
</a>
</g>
</g>
<!-- Node18&#45;&gt;Node6 -->
<g id="edge30_Node000018_Node000006" class="edge">
<title>Node18&#45;&gt;Node6</title>
<g id="a_edge30_Node000018_Node000006"><a xlink:title=" ">
<path fill="none" stroke="#63b8ff" d="M498.89,-258.54C557.87,-249.34 637.96,-244.97 697,-281 726.86,-299.22 704.39,-330.87 733,-351 798.77,-397.29 898.77,-394.26 950.46,-385.48"/>
<polygon fill="#63b8ff" stroke="#63b8ff" points="498.55,-255.05 489.25,-260.13 499.69,-261.96 498.55,-255.05"/>
</a>
</g>
</g>
<!-- Node19 -->
<g id="Node000019" class="node">
<title>Node19</title>
<g id="a_Node000019"><a xlink:href="class_properties_panel.html#a9866823e02faefceaae94fc0b0537707" target="_top" xlink:title=" ">
<polygon fill="white" stroke="#666666" points="306.12,-288 170.88,-288 170.88,-256 306.12,-256 306.12,-288"/>
<text xml:space="preserve" text-anchor="start" x="178.88" y="-274.5" font-family="Helvetica,sans-Serif" font-size="10.00">PropertiesPanel::Properties</text>
<text xml:space="preserve" text-anchor="middle" x="238.5" y="-262.5" font-family="Helvetica,sans-Serif" font-size="10.00">Panel</text>
</a>
</g>
</g>
<!-- Node18&#45;&gt;Node19 -->
<g id="edge29_Node000018_Node000019" class="edge">
<title>Node18&#45;&gt;Node19</title>
<g id="a_edge29_Node000018_Node000019"><a xlink:title=" ">
<path fill="none" stroke="#63b8ff" d="M337.66,-272C327.26,-272 316.68,-272 306.52,-272"/>
<polygon fill="#63b8ff" stroke="#63b8ff" points="337.34,-275.5 347.34,-272 337.34,-268.5 337.34,-275.5"/>
</a>
</g>
</g>
<!-- Node20&#45;&gt;Node8 -->
<g id="edge32_Node000020_Node000008" class="edge">
<title>Node20&#45;&gt;Node8</title>
<g id="a_edge32_Node000020_Node000008"><a xlink:title=" ">
<path fill="none" stroke="#63b8ff" d="M735.95,-261.38C734.94,-260.61 733.96,-259.82 733,-259 706.13,-235.99 723.62,-211.3 697,-188 690.83,-182.6 683.63,-178.15 676.07,-174.5"/>
<polygon fill="#63b8ff" stroke="#63b8ff" points="734.04,-264.31 744.34,-266.79 737.84,-258.43 734.04,-264.31"/>
</a>
</g>
</g>
<!-- Node21&#45;&gt;Node10 -->
<g id="edge42_Node000021_Node000010" class="edge">
<title>Node21&#45;&gt;Node10</title>
<g id="a_edge42_Node000021_Node000010"><a xlink:title=" ">
<path fill="none" stroke="#63b8ff" d="M736.75,-444.22C723.52,-447.15 709.85,-450.17 697,-453 619.91,-469.99 600.44,-473.34 523.5,-491 510.63,-493.95 496.9,-497.19 483.76,-500.33"/>
<polygon fill="#63b8ff" stroke="#63b8ff" points="737.24,-447.69 746.25,-442.11 735.73,-440.86 737.24,-447.69"/>
</a>
</g>
</g>
<!-- Node21&#45;&gt;Node12 -->
<g id="edge43_Node000021_Node000012" class="edge">
<title>Node21&#45;&gt;Node12</title>
<g id="a_edge43_Node000021_Node000012"><a xlink:title=" ">
<path fill="none" stroke="#63b8ff" d="M746.87,-406.67C742,-404.06 737.31,-401.17 733,-398 712.37,-382.82 720.08,-364.1 697,-353 627.5,-319.6 598.69,-335.88 523.5,-353 495.15,-359.45 465.51,-374.64 445.14,-386.59"/>
<polygon fill="#63b8ff" stroke="#63b8ff" points="745.16,-409.73 755.68,-411 748.24,-403.45 745.16,-409.73"/>
</a>
</g>
</g>
<!-- Node21&#45;&gt;Node16 -->
<g id="edge44_Node000021_Node000016" class="edge">
<title>Node21&#45;&gt;Node16</title>
<g id="a_edge44_Node000021_Node000016"><a xlink:title=" ">
<path fill="none" stroke="#63b8ff" d="M787.36,-452.53C765.3,-476.18 730.17,-512.49 697,-541 677.25,-557.98 653.24,-575.37 635.66,-587.56"/>
<polygon fill="#63b8ff" stroke="#63b8ff" points="789.89,-454.95 794.12,-445.23 784.75,-450.19 789.89,-454.95"/>
</a>
</g>
</g>
<!-- Node21&#45;&gt;Node18 -->
<g id="edge45_Node000021_Node000018" class="edge">
<title>Node21&#45;&gt;Node18</title>
<g id="a_edge45_Node000021_Node000018"><a xlink:title=" ">
<path fill="none" stroke="#63b8ff" d="M743.84,-406.09C739.98,-403.66 736.33,-400.97 733,-398 707.48,-375.24 724.33,-350.56 697,-330 636.5,-284.49 548.53,-272.72 487.91,-270.59"/>
<polygon fill="#63b8ff" stroke="#63b8ff" points="742,-409.07 752.43,-410.9 745.41,-402.96 742,-409.07"/>
</a>
</g>
</g>
<!-- Node22 -->
<g id="Node000022" class="node">
<title>Node22</title>
<g id="a_Node000022"><a xlink:href="class_properties_panel.html#a74d22cd1ca119cda9cc4ca00b853e88d" target="_top" xlink:title=" ">
<polygon fill="white" stroke="#666666" points="688.38,-444 532.12,-444 532.12,-412 688.38,-412 688.38,-444"/>
<text xml:space="preserve" text-anchor="start" x="540.12" y="-430.5" font-family="Helvetica,sans-Serif" font-size="10.00">PropertiesPanel::handleAttribute</text>
<text xml:space="preserve" text-anchor="middle" x="610.25" y="-418.5" font-family="Helvetica,sans-Serif" font-size="10.00">PropertyChange</text>
</a>
</g>
</g>
<!-- Node21&#45;&gt;Node22 -->
<g id="edge34_Node000021_Node000022" class="edge">
<title>Node21&#45;&gt;Node22</title>
<g id="a_edge34_Node000021_Node000022"><a xlink:title=" ">
<path fill="none" stroke="#63b8ff" d="M736.62,-428C721.06,-428 704.58,-428 688.86,-428"/>
<polygon fill="#63b8ff" stroke="#63b8ff" points="736.25,-431.5 746.25,-428 736.25,-424.5 736.25,-431.5"/>
</a>
</g>
</g>
<!-- Node23 -->
<g id="Node000023" class="node">
<title>Node23</title>
<g id="a_Node000023"><a xlink:href="class_properties_panel.html#aa82a2245c62f66554f277c64e643252c" target="_top" xlink:title=" ">
<polygon fill="white" stroke="#666666" points="697,-394 523.5,-394 523.5,-362 697,-362 697,-394"/>
<text xml:space="preserve" text-anchor="start" x="531.5" y="-380.5" font-family="Helvetica,sans-Serif" font-size="10.00">PropertiesPanel::handleRelationship</text>
<text xml:space="preserve" text-anchor="middle" x="610.25" y="-368.5" font-family="Helvetica,sans-Serif" font-size="10.00">EndCardinalityChange</text>
</a>
</g>
</g>
<!-- Node21&#45;&gt;Node23 -->
<g id="edge38_Node000021_Node000023" class="edge">
<title>Node21&#45;&gt;Node23</title>
<g id="a_edge38_Node000021_Node000023"><a xlink:title=" ">
<path fill="none" stroke="#63b8ff" d="M736.67,-409.59C716.97,-404.63 695.79,-399.29 676.54,-394.45"/>
<polygon fill="#63b8ff" stroke="#63b8ff" points="735.74,-412.97 746.29,-412.02 737.45,-406.18 735.74,-412.97"/>
</a>
</g>
</g>
<!-- Node24 -->
<g id="Node000024" class="node">
<title>Node24</title>
<g id="a_Node000024"><a xlink:href="class_properties_panel.html#ac2741a5b2cb859b07534b8f7c786359b" target="_top" xlink:title=" ">
<polygon fill="white" stroke="#666666" points="697,-532 523.5,-532 523.5,-500 697,-500 697,-532"/>
<text xml:space="preserve" text-anchor="start" x="531.5" y="-518.5" font-family="Helvetica,sans-Serif" font-size="10.00">PropertiesPanel::handleRelationship</text>
<text xml:space="preserve" text-anchor="middle" x="610.25" y="-506.5" font-family="Helvetica,sans-Serif" font-size="10.00">EndParticipationChange</text>
</a>
</g>
</g>
<!-- Node21&#45;&gt;Node24 -->
<g id="edge40_Node000021_Node000024" class="edge">
<title>Node21&#45;&gt;Node24</title>
<g id="a_edge40_Node000021_Node000024"><a xlink:title=" ">
<path fill="none" stroke="#63b8ff" d="M770.61,-449.83C749.21,-461.34 722.03,-475.25 697,-486 685.84,-490.79 673.64,-495.42 662.03,-499.54"/>
<polygon fill="#63b8ff" stroke="#63b8ff" points="772.16,-452.97 779.28,-445.13 768.82,-446.82 772.16,-452.97"/>
</a>
</g>
</g>
<!-- Node22&#45;&gt;Node10 -->
<g id="edge35_Node000022_Node000010" class="edge">
<title>Node22&#45;&gt;Node10</title>
<g id="a_edge35_Node000022_Node000010"><a xlink:title=" ">
<path fill="none" stroke="#63b8ff" d="M547.32,-448.24C539.22,-451.3 531.1,-454.58 523.5,-458 496.13,-470.3 466.36,-487.27 445.69,-499.68"/>
<polygon fill="#63b8ff" stroke="#63b8ff" points="548.3,-451.6 556.48,-444.87 545.89,-445.03 548.3,-451.6"/>
</a>
</g>
</g>
<!-- Node22&#45;&gt;Node12 -->
<g id="edge36_Node000022_Node000012" class="edge">
<title>Node22&#45;&gt;Node12</title>
<g id="a_edge36_Node000022_Node000012"><a xlink:title=" ">
<path fill="none" stroke="#63b8ff" d="M520.41,-416.3C508.52,-414.74 496.49,-413.15 485.1,-411.65"/>
<polygon fill="#63b8ff" stroke="#63b8ff" points="519.87,-419.76 530.25,-417.6 520.79,-412.82 519.87,-419.76"/>
</a>
</g>
</g>
<!-- Node22&#45;&gt;Node18 -->
<g id="edge37_Node000022_Node000018" class="edge">
<title>Node22&#45;&gt;Node18</title>
<g id="a_edge37_Node000022_Node000018"><a xlink:title=" ">
<path fill="none" stroke="#63b8ff" d="M529.18,-406.52C527.23,-405.4 525.33,-404.23 523.5,-403 478.16,-372.55 443.26,-316.17 427.91,-288.37"/>
<polygon fill="#63b8ff" stroke="#63b8ff" points="527.4,-409.54 537.9,-410.95 530.57,-403.3 527.4,-409.54"/>
</a>
</g>
</g>
<!-- Node23&#45;&gt;Node12 -->
<g id="edge39_Node000023_Node000012" class="edge">
<title>Node23&#45;&gt;Node12</title>
<g id="a_edge39_Node000023_Node000012"><a xlink:title=" ">
<path fill="none" stroke="#63b8ff" d="M511.81,-390.83C502.81,-392.01 493.84,-393.2 485.22,-394.33"/>
<polygon fill="#63b8ff" stroke="#63b8ff" points="512.24,-394.3 521.7,-389.53 511.33,-387.36 512.24,-394.3"/>
</a>
</g>
</g>
<!-- Node24&#45;&gt;Node10 -->
<g id="edge41_Node000024_Node000010" class="edge">
<title>Node24&#45;&gt;Node10</title>
<g id="a_edge41_Node000024_Node000010"><a xlink:title=" ">
<path fill="none" stroke="#63b8ff" d="M511.99,-516C502.44,-516 492.91,-516 483.81,-516"/>
<polygon fill="#63b8ff" stroke="#63b8ff" points="511.69,-519.5 521.69,-516 511.69,-512.5 511.69,-519.5"/>
</a>
</g>
</g>
</g>
</svg>
