<?xml version="1.0" encoding="UTF-8" standalone="no"?>
<!DOCTYPE svg PUBLIC "-//W3C//DTD SVG 1.1//EN"
 "http://www.w3.org/Graphics/SVG/1.1/DTD/svg11.dtd">
<!-- Generated by graphviz version 14.1.1 (20251213.1925)
 -->
<!-- Title: MainWindow::createLineEditPropertyItem Pages: 1 -->
<svg width="1739pt" height="831pt"
 viewBox="0.00 0.00 1739.00 831.00" xmlns="http://www.w3.org/2000/svg" xmlns:xlink="http://www.w3.org/1999/xlink">
<g id="graph0" class="graph" transform="scale(1 1) rotate(0) translate(4 827.13)">
<title>MainWindow::createLineEditPropertyItem</title>
<!-- Node1 -->
<g id="Node000001" class="node">
<title>Node1</title>
<g id="a_Node000001"><a xlink:title=" ">
<polygon fill="#999999" stroke="#666666" points="1731,-448.13 1590.5,-448.13 1590.5,-416.13 1731,-416.13 1731,-448.13"/>
<text xml:space="preserve" text-anchor="start" x="1598.5" y="-434.63" font-family="Helvetica,sans-Serif" font-size="10.00">MainWindow::createLineEdit</text>
<text xml:space="preserve" text-anchor="middle" x="1660.75" y="-422.63" font-family="Helvetica,sans-Serif" font-size="10.00">PropertyItem</text>
</a>
</g>
</g>
<!-- Node2 -->
<g id="Node000002" class="node">
<title>Node2</title>
<g id="a_Node000002"><a xlink:href="class_main_window.html#a1049a5796ac248f40a3b4110ed5faf77" target="_top" xlink:title=" ">
<polygon fill="white" stroke="#666666" points="1554.5,-259.13 1385.5,-259.13 1385.5,-227.13 1554.5,-227.13 1554.5,-259.13"/>
<text xml:space="preserve" text-anchor="start" x="1393.5" y="-245.63" font-family="Helvetica,sans-Serif" font-size="10.00">MainWindow::populateRelationship</text>
<text xml:space="preserve" text-anchor="middle" x="1470" y="-233.63" font-family="Helvetica,sans-Serif" font-size="10.00">Properties</text>
</a>
</g>
</g>
<!-- Node1&#45;&gt;Node2 -->
<g id="edge1_Node000001_Node000002" class="edge">
<title>Node1&#45;&gt;Node2</title>
<g id="a_edge1_Node000001_Node000002"><a xlink:title=" ">
<path fill="none" stroke="#63b8ff" d="M1635.58,-407.93C1596.51,-368.81 1520.51,-292.7 1487.25,-259.4"/>
<polygon fill="#63b8ff" stroke="#63b8ff" points="1632.72,-410.01 1642.26,-414.61 1637.67,-405.06 1632.72,-410.01"/>
</a>
</g>
</g>
<!-- Node3 -->
<g id="Node000003" class="node">
<title>Node3</title>
<g id="a_Node000003"><a xlink:href="class_main_window.html#add7e6ae12287854ff779bd4b5649dd98" target="_top" xlink:title=" ">
<polygon fill="white" stroke="#666666" points="1349.5,-190.13 1190.25,-190.13 1190.25,-158.13 1349.5,-158.13 1349.5,-190.13"/>
<text xml:space="preserve" text-anchor="start" x="1198.25" y="-176.63" font-family="Helvetica,sans-Serif" font-size="10.00">MainWindow::populateProperties</text>
<text xml:space="preserve" text-anchor="middle" x="1269.88" y="-164.63" font-family="Helvetica,sans-Serif" font-size="10.00">ForElement</text>
</a>
</g>
</g>
<!-- Node2&#45;&gt;Node3 -->
<g id="edge2_Node000002_Node000003" class="edge">
<title>Node2&#45;&gt;Node3</title>
<g id="a_edge2_Node000002_Node000003"><a xlink:title=" ">
<path fill="none" stroke="#63b8ff" d="M1411.18,-222.99C1381.58,-212.68 1345.99,-200.29 1318.06,-190.56"/>
<polygon fill="#63b8ff" stroke="#63b8ff" points="1409.77,-226.21 1420.37,-226.19 1412.07,-219.6 1409.77,-226.21"/>
</a>
</g>
</g>
<!-- Node4 -->
<g id="Node000004" class="node">
<title>Node4</title>
<g id="a_Node000004"><a xlink:href="class_main_window.html#a5caeae304b10e5cd9f83ef5c6086310b" target="_top" xlink:title=" ">
<polygon fill="white" stroke="#666666" points="1154.25,-615.13 1002.5,-615.13 1002.5,-583.13 1154.25,-583.13 1154.25,-615.13"/>
<text xml:space="preserve" text-anchor="start" x="1010.5" y="-601.63" font-family="Helvetica,sans-Serif" font-size="10.00">MainWindow::updateProperties</text>
<text xml:space="preserve" text-anchor="middle" x="1078.38" y="-589.63" font-family="Helvetica,sans-Serif" font-size="10.00">Panel</text>
</a>
</g>
</g>
<!-- Node3&#45;&gt;Node4 -->
<g id="edge3_Node000003_Node000004" class="edge">
<title>Node3&#45;&gt;Node4</title>
<g id="a_edge3_Node000003_Node000004"><a xlink:title=" ">
<path fill="none" stroke="#63b8ff" d="M1257,-200.77C1221.22,-281.01 1115.19,-518.81 1086.56,-583"/>
<polygon fill="#63b8ff" stroke="#63b8ff" points="1260.07,-202.47 1260.95,-191.91 1253.68,-199.62 1260.07,-202.47"/>
</a>
</g>
</g>
<!-- Node5 -->
<g id="Node000005" class="node">
<title>Node5</title>
<g id="a_Node000005"><a xlink:href="class_main_window.html#ad34ae0349abf41aa739b75b85df74126" target="_top" xlink:title=" ">
<polygon fill="white" stroke="#666666" points="953.75,-187.13 811,-187.13 811,-155.13 953.75,-155.13 953.75,-187.13"/>
<text xml:space="preserve" text-anchor="start" x="819" y="-173.63" font-family="Helvetica,sans-Serif" font-size="10.00">MainWindow::onAddAttribute</text>
<text xml:space="preserve" text-anchor="middle" x="882.38" y="-161.63" font-family="Helvetica,sans-Serif" font-size="10.00">OnTreeClicked</text>
</a>
</g>
</g>
<!-- Node4&#45;&gt;Node5 -->
<g id="edge4_Node000004_Node000005" class="edge">
<title>Node4&#45;&gt;Node5</title>
<g id="a_edge4_Node000004_Node000005"><a xlink:title=" ">
<path fill="none" stroke="#63b8ff" d="M1078.28,-571.83C1079.13,-499.9 1071.22,-303.36 966.5,-196.13 962.81,-192.35 958.58,-189.14 954.02,-186.42"/>
<polygon fill="#63b8ff" stroke="#63b8ff" points="1074.79,-571.44 1078.1,-581.51 1081.79,-571.58 1074.79,-571.44"/>
</a>
</g>
</g>
<!-- Node10 -->
<g id="Node000010" class="node">
<title>Node10</title>
<g id="a_Node000010"><a xlink:href="class_main_window.html#a47fd0b86ddb5829e3b0cb15908671670" target="_top" xlink:title=" ">
<polygon fill="white" stroke="#666666" points="561.75,-389.13 388.25,-389.13 388.25,-369.13 561.75,-369.13 561.75,-389.13"/>
<text xml:space="preserve" text-anchor="middle" x="475" y="-375.63" font-family="Helvetica,sans-Serif" font-size="10.00">MainWindow::onCheckBoxChanged</text>
</a>
</g>
</g>
<!-- Node4&#45;&gt;Node10 -->
<g id="edge16_Node000004_Node000010" class="edge">
<title>Node4&#45;&gt;Node10</title>
<g id="a_edge16_Node000004_Node000010"><a xlink:title=" ">
<path fill="none" stroke="#63b8ff" d="M1055.7,-574.37C1008.58,-522.7 890.71,-404.77 762.25,-363.13 676.55,-335.34 568.94,-354.84 513.24,-368.66"/>
<polygon fill="#63b8ff" stroke="#63b8ff" points="1052.84,-576.43 1062.14,-581.51 1058.04,-571.74 1052.84,-576.43"/>
</a>
</g>
</g>
<!-- Node12 -->
<g id="Node000012" class="node">
<title>Node12</title>
<g id="a_Node000012"><a xlink:href="class_main_window.html#ac1e0c79708cf9aa9b7ca1a87697e5b34" target="_top" xlink:title=" ">
<polygon fill="white" stroke="#666666" points="563.25,-546.13 386.75,-546.13 386.75,-526.13 563.25,-526.13 563.25,-546.13"/>
<text xml:space="preserve" text-anchor="middle" x="475" y="-532.63" font-family="Helvetica,sans-Serif" font-size="10.00">MainWindow::onComboBoxChanged</text>
</a>
</g>
</g>
<!-- Node4&#45;&gt;Node12 -->
<g id="edge20_Node000004_Node000012" class="edge">
<title>Node4&#45;&gt;Node12</title>
<g id="a_edge20_Node000004_Node000012"><a xlink:title=" ">
<path fill="none" stroke="#63b8ff" d="M1032.08,-619.97C944.7,-657.02 748.34,-724.85 599.25,-662.13 541.71,-637.92 497.61,-572.28 482.07,-546.61"/>
<polygon fill="#63b8ff" stroke="#63b8ff" points="1033.25,-623.28 1041.04,-616.1 1030.48,-616.85 1033.25,-623.28"/>
</a>
</g>
</g>
<!-- Node16 -->
<g id="Node000016" class="node">
<title>Node16</title>
<g id="a_Node000016"><a xlink:href="class_main_window.html#a0e7ca45ac830893108871185dda813a4" target="_top" xlink:title=" ">
<polygon fill="white" stroke="#666666" points="762.25,-653.13 599.25,-653.13 599.25,-633.13 762.25,-633.13 762.25,-653.13"/>
<text xml:space="preserve" text-anchor="middle" x="680.75" y="-639.63" font-family="Helvetica,sans-Serif" font-size="10.00">MainWindow::onLineEditChanged</text>
</a>
</g>
</g>
<!-- Node4&#45;&gt;Node16 -->
<g id="edge27_Node000004_Node000016" class="edge">
<title>Node4&#45;&gt;Node16</title>
<g id="a_edge27_Node000004_Node000016"><a xlink:title=" ">
<path fill="none" stroke="#63b8ff" d="M990.98,-608.13C935.83,-613.95 862.81,-621.78 798.25,-629.13 786.71,-630.44 774.54,-631.86 762.58,-633.28"/>
<polygon fill="#63b8ff" stroke="#63b8ff" points="991.04,-611.64 1000.61,-607.12 990.3,-604.68 991.04,-611.64"/>
</a>
</g>
</g>
<!-- Node17 -->
<g id="Node000017" class="node">
<title>Node17</title>
<g id="a_Node000017"><a xlink:href="class_main_window.html#a1043995538765eae993ae75217c482e7" target="_top" xlink:title=" ">
<polygon fill="white" stroke="#666666" points="549.75,-782.13 400.25,-782.13 400.25,-750.13 549.75,-750.13 549.75,-782.13"/>
<text xml:space="preserve" text-anchor="start" x="408.25" y="-768.63" font-family="Helvetica,sans-Serif" font-size="10.00">MainWindow::onPropertyValue</text>
<text xml:space="preserve" text-anchor="middle" x="475" y="-756.63" font-family="Helvetica,sans-Serif" font-size="10.00">Changed</text>
</a>
</g>
</g>
<!-- Node4&#45;&gt;Node17 -->
<g id="edge29_Node000004_Node000017" class="edge">
<title>Node4&#45;&gt;Node17</title>
<g id="a_edge29_Node000004_Node000017"><a xlink:title=" ">
<path fill="none" stroke="#63b8ff" d="M1060.48,-625.36C1042.11,-655.19 1009.53,-702.09 966.5,-724.13 832.61,-792.7 650.59,-782.5 550.17,-772.42"/>
<polygon fill="#63b8ff" stroke="#63b8ff" points="1063.42,-627.26 1065.59,-616.89 1057.43,-623.64 1063.42,-627.26"/>
</a>
</g>
</g>
<!-- Node20 -->
<g id="Node000020" class="node">
<title>Node20</title>
<g id="a_Node000020"><a xlink:href="class_main_window.html#a95674d4bfc5fc2aad6df1601f23b1793" target="_top" xlink:title=" ">
<polygon fill="white" stroke="#666666" points="963.5,-237.13 801.25,-237.13 801.25,-205.13 963.5,-205.13 963.5,-237.13"/>
<text xml:space="preserve" text-anchor="start" x="809.25" y="-223.63" font-family="Helvetica,sans-Serif" font-size="10.00">MainWindow::onRemoveAttribute</text>
<text xml:space="preserve" text-anchor="middle" x="882.38" y="-211.63" font-family="Helvetica,sans-Serif" font-size="10.00">OnTreeClicked</text>
</a>
</g>
</g>
<!-- Node4&#45;&gt;Node20 -->
<g id="edge33_Node000004_Node000020" class="edge">
<title>Node4&#45;&gt;Node20</title>
<g id="a_edge33_Node000004_Node000020"><a xlink:title=" ">
<path fill="none" stroke="#63b8ff" d="M1069.06,-571.85C1053.12,-521.51 1015.45,-411.43 966.5,-327.13 946.54,-292.74 916.43,-257.28 898.46,-237.34"/>
<polygon fill="#63b8ff" stroke="#63b8ff" points="1065.7,-572.82 1072.02,-581.32 1072.38,-570.73 1065.7,-572.82"/>
</a>
</g>
</g>
<!-- Node21 -->
<g id="Node000021" class="node">
<title>Node21</title>
<g id="a_Node000021"><a xlink:href="class_main_window.html#a44791b85064ecff42c12429c6667e83b" target="_top" xlink:title=" ">
<polygon fill="white" stroke="#666666" points="966.5,-823.13 798.25,-823.13 798.25,-803.13 966.5,-803.13 966.5,-823.13"/>
<text xml:space="preserve" text-anchor="middle" x="882.38" y="-809.63" font-family="Helvetica,sans-Serif" font-size="10.00">MainWindow::onSelectionChanged</text>
</a>
</g>
</g>
<!-- Node4&#45;&gt;Node21 -->
<g id="edge35_Node000004_Node000021" class="edge">
<title>Node4&#45;&gt;Node21</title>
<g id="a_edge35_Node000004_Node000021"><a xlink:title=" ">
<path fill="none" stroke="#63b8ff" d="M1068.89,-626.27C1054.56,-667.65 1021.6,-746.2 966.5,-789.13 959.03,-794.94 950.21,-799.35 941.15,-802.69"/>
<polygon fill="#63b8ff" stroke="#63b8ff" points="1072.19,-627.44 1072.04,-616.85 1065.55,-625.22 1072.19,-627.44"/>
</a>
</g>
</g>
<!-- Node22 -->
<g id="Node000022" class="node">
<title>Node22</title>
<g id="a_Node000022"><a xlink:href="class_main_window.html#af380eeda83d30cd1ecb1419cfd5161d7" target="_top" xlink:title=" ">
<polygon fill="white" stroke="#666666" points="949.25,-552.13 815.5,-552.13 815.5,-520.13 949.25,-520.13 949.25,-552.13"/>
<text xml:space="preserve" text-anchor="start" x="823.5" y="-538.63" font-family="Helvetica,sans-Serif" font-size="10.00">MainWindow::updatesAfter</text>
<text xml:space="preserve" text-anchor="middle" x="882.38" y="-526.63" font-family="Helvetica,sans-Serif" font-size="10.00">ChangingProperty</text>
</a>
</g>
</g>
<!-- Node4&#45;&gt;Node22 -->
<g id="edge37_Node000004_Node000022" class="edge">
<title>Node4&#45;&gt;Node22</title>
<g id="a_edge37_Node000004_Node000022"><a xlink:title=" ">
<path fill="none" stroke="#63b8ff" d="M1016.02,-579.2C989.65,-570.64 959.2,-560.75 934.13,-552.61"/>
<polygon fill="#63b8ff" stroke="#63b8ff" points="1014.63,-582.43 1025.22,-582.19 1016.79,-575.77 1014.63,-582.43"/>
</a>
</g>
</g>
<!-- Node6 -->
<g id="Node000006" class="node">
<title>Node6</title>
<g id="a_Node000006"><a xlink:href="class_main_window.html#a6fd05e9f951dd6e7c2cd6ca815ef9d71" target="_top" xlink:title=" ">
<polygon fill="white" stroke="#666666" points="747.62,-124.13 613.88,-124.13 613.88,-92.13 747.62,-92.13 747.62,-124.13"/>
<text xml:space="preserve" text-anchor="start" x="621.88" y="-110.63" font-family="Helvetica,sans-Serif" font-size="10.00">MainWindow::createButton</text>
<text xml:space="preserve" text-anchor="middle" x="680.75" y="-98.63" font-family="Helvetica,sans-Serif" font-size="10.00">PropertyItem</text>
</a>
</g>
</g>
<!-- Node5&#45;&gt;Node6 -->
<g id="edge5_Node000005_Node000006" class="edge">
<title>Node5&#45;&gt;Node6</title>
<g id="a_edge5_Node000005_Node000006"><a xlink:title=" ">
<path fill="none" stroke="#63b8ff" d="M818.24,-151.2C791.11,-142.64 759.78,-132.75 733.98,-124.61"/>
<polygon fill="#63b8ff" stroke="#63b8ff" points="817.15,-154.53 827.74,-154.2 819.26,-147.85 817.15,-154.53"/>
</a>
</g>
</g>
<!-- Node6&#45;&gt;Node2 -->
<g id="edge15_Node000006_Node000002" class="edge">
<title>Node6&#45;&gt;Node2</title>
<g id="a_edge15_Node000006_Node000002"><a xlink:title=" ">
<path fill="none" stroke="#63b8ff" d="M759.29,-95.79C888.28,-78.91 1152.24,-59.98 1349.5,-149.13 1391.83,-168.26 1432.44,-205.51 1453.69,-226.93"/>
<polygon fill="#63b8ff" stroke="#63b8ff" points="758.93,-92.31 749.48,-97.11 759.86,-99.25 758.93,-92.31"/>
</a>
</g>
</g>
<!-- Node7 -->
<g id="Node000007" class="node">
<title>Node7</title>
<g id="a_Node000007"><a xlink:href="class_main_window.html#a697154cf7839e00c607134c2a4e018cf" target="_top" xlink:title=" ">
<polygon fill="white" stroke="#666666" points="558.75,-23.13 391.25,-23.13 391.25,-3.13 558.75,-3.13 558.75,-23.13"/>
<text xml:space="preserve" text-anchor="middle" x="475" y="-9.63" font-family="Helvetica,sans-Serif" font-size="10.00">MainWindow::populateAttributeList</text>
</a>
</g>
</g>
<!-- Node6&#45;&gt;Node7 -->
<g id="edge6_Node000006_Node000007" class="edge">
<title>Node6&#45;&gt;Node7</title>
<g id="a_edge6_Node000006_Node000007"><a xlink:title=" ">
<path fill="none" stroke="#63b8ff" d="M634.42,-86.99C592.15,-67.28 530.87,-38.71 498.31,-23.53"/>
<polygon fill="#63b8ff" stroke="#63b8ff" points="632.81,-90.1 643.35,-91.16 635.77,-83.76 632.81,-90.1"/>
</a>
</g>
</g>
<!-- Node8 -->
<g id="Node000008" class="node">
<title>Node8</title>
<g id="a_Node000008"><a xlink:href="class_main_window.html#a3aa4112f20ad25eb3ad78fd354ba7de2" target="_top" xlink:title=" ">
<polygon fill="white" stroke="#666666" points="155.5,-162.13 3.75,-162.13 3.75,-130.13 155.5,-130.13 155.5,-162.13"/>
<text xml:space="preserve" text-anchor="start" x="11.75" y="-148.63" font-family="Helvetica,sans-Serif" font-size="10.00">MainWindow::populateAttribute</text>
<text xml:space="preserve" text-anchor="middle" x="79.62" y="-136.63" font-family="Helvetica,sans-Serif" font-size="10.00">Properties</text>
</a>
</g>
</g>
<!-- Node6&#45;&gt;Node8 -->
<g id="edge13_Node000006_Node000008" class="edge">
<title>Node6&#45;&gt;Node8</title>
<g id="a_edge13_Node000006_Node000008"><a xlink:title=" ">
<path fill="none" stroke="#63b8ff" d="M602.42,-113.03C486.8,-120.36 270.24,-134.1 155.85,-141.36"/>
<polygon fill="#63b8ff" stroke="#63b8ff" points="602.36,-116.54 612.12,-112.42 601.92,-109.56 602.36,-116.54"/>
</a>
</g>
</g>
<!-- Node9 -->
<g id="Node000009" class="node">
<title>Node9</title>
<g id="a_Node000009"><a xlink:href="class_main_window.html#a40023e3590f2593fd133a6b111f63ed9" target="_top" xlink:title=" ">
<polygon fill="white" stroke="#666666" points="343.25,-82.13 202.75,-82.13 202.75,-50.13 343.25,-50.13 343.25,-82.13"/>
<text xml:space="preserve" text-anchor="start" x="210.75" y="-68.63" font-family="Helvetica,sans-Serif" font-size="10.00">MainWindow::populateEntity</text>
<text xml:space="preserve" text-anchor="middle" x="273" y="-56.63" font-family="Helvetica,sans-Serif" font-size="10.00">Properties</text>
</a>
</g>
</g>
<!-- Node6&#45;&gt;Node9 -->
<g id="edge14_Node000006_Node000009" class="edge">
<title>Node6&#45;&gt;Node9</title>
<g id="a_edge14_Node000006_Node000009"><a xlink:title=" ">
<path fill="none" stroke="#63b8ff" d="M602.45,-100.13C527.7,-92.39 415.45,-80.77 343.46,-73.32"/>
<polygon fill="#63b8ff" stroke="#63b8ff" points="601.84,-103.58 612.15,-101.13 602.56,-96.62 601.84,-103.58"/>
</a>
</g>
</g>
<!-- Node7&#45;&gt;Node2 -->
<g id="edge12_Node000007_Node000002" class="edge">
<title>Node7&#45;&gt;Node2</title>
<g id="a_edge12_Node000007_Node000002"><a xlink:title=" ">
<path fill="none" stroke="#63b8ff" d="M570.39,-13.13C652.55,-13.13 774.84,-13.13 881.38,-13.13 1079.38,-13.13 1079.38,-13.13 1079.38,-13.13 1205.1,-13.13 1245.25,-26.85 1349.5,-97.13 1401.65,-132.28 1442.79,-196.83 1460.11,-226.91"/>
<polygon fill="#63b8ff" stroke="#63b8ff" points="570.59,-9.63 560.59,-13.13 570.59,-16.63 570.59,-9.63"/>
</a>
</g>
</g>
<!-- Node7&#45;&gt;Node8 -->
<g id="edge7_Node000007_Node000008" class="edge">
<title>Node7&#45;&gt;Node8</title>
<g id="a_edge7_Node000007_Node000008"><a xlink:title=" ">
<path fill="none" stroke="#63b8ff" d="M414.57,-1.68C356.16,2.61 265.79,-0.55 195.25,-32.13 147.22,-53.63 105.85,-103.3 88.87,-129.72"/>
<polygon fill="#63b8ff" stroke="#63b8ff" points="414.04,-5.15 424.3,-2.51 414.63,1.83 414.04,-5.15"/>
</a>
</g>
</g>
<!-- Node7&#45;&gt;Node9 -->
<g id="edge10_Node000007_Node000009" class="edge">
<title>Node7&#45;&gt;Node9</title>
<g id="a_edge10_Node000007_Node000009"><a xlink:title=" ">
<path fill="none" stroke="#63b8ff" d="M423.49,-26.51C396.88,-33.56 364.01,-42.27 335.88,-49.73"/>
<polygon fill="#63b8ff" stroke="#63b8ff" points="424.25,-29.93 433.02,-23.99 422.46,-23.16 424.25,-29.93"/>
</a>
</g>
</g>
<!-- Node8&#45;&gt;Node3 -->
<g id="edge9_Node000008_Node000003" class="edge">
<title>Node8&#45;&gt;Node3</title>
<g id="a_edge9_Node000008_Node000003"><a xlink:title=" ">
<path fill="none" stroke="#63b8ff" d="M167.31,-147.8C176.74,-147.93 186.19,-148.05 195.25,-148.13 264.36,-148.73 281.64,-148.28 350.75,-148.13 549.64,-147.68 599.36,-146.57 798.25,-146.13 873.03,-145.96 891.8,-142.68 966.5,-146.13 1042.47,-149.64 1128.83,-158.08 1189.75,-164.78"/>
<polygon fill="#63b8ff" stroke="#63b8ff" points="167.41,-144.3 157.36,-147.65 167.3,-151.3 167.41,-144.3"/>
</a>
</g>
</g>
<!-- Node8&#45;&gt;Node7 -->
<g id="edge8_Node000008_Node000007" class="edge">
<title>Node8&#45;&gt;Node7</title>
<g id="a_edge8_Node000008_Node000007"><a xlink:title=" ">
<path fill="none" stroke="#63b8ff" d="M105.49,-121.43C126.53,-98.64 158.99,-66.36 195.25,-50.13 256.85,-22.56 333.56,-16.65 390.9,-15.58"/>
<polygon fill="#63b8ff" stroke="#63b8ff" points="103.17,-118.78 99.02,-128.53 108.35,-123.5 103.17,-118.78"/>
</a>
</g>
</g>
<!-- Node9&#45;&gt;Node3 -->
<g id="edge11_Node000009_Node000003" class="edge">
<title>Node9&#45;&gt;Node3</title>
<g id="a_edge11_Node000009_Node000003"><a xlink:title=" ">
<path fill="none" stroke="#63b8ff" d="M354.86,-67.98C412.87,-69.41 492.89,-71.56 563.25,-74.13 826.31,-83.71 901.46,-39.69 1154.25,-113.13 1187.8,-122.87 1222.75,-143.18 1245.1,-157.69"/>
<polygon fill="#63b8ff" stroke="#63b8ff" points="355.16,-64.49 345.07,-67.75 354.99,-71.49 355.16,-64.49"/>
</a>
</g>
</g>
<!-- Node11 -->
<g id="Node000011" class="node">
<title>Node11</title>
<g id="a_Node000011"><a xlink:href="class_main_window.html#a44aaf7bb6d9a56f53b8a7a9e4fc29f8c" target="_top" xlink:title=" ">
<polygon fill="white" stroke="#666666" points="348.5,-275.13 197.5,-275.13 197.5,-243.13 348.5,-243.13 348.5,-275.13"/>
<text xml:space="preserve" text-anchor="start" x="205.5" y="-261.63" font-family="Helvetica,sans-Serif" font-size="10.00">MainWindow::createCheckBox</text>
<text xml:space="preserve" text-anchor="middle" x="273" y="-249.63" font-family="Helvetica,sans-Serif" font-size="10.00">PropertyItem</text>
</a>
</g>
</g>
<!-- Node10&#45;&gt;Node11 -->
<g id="edge17_Node000010_Node000011" class="edge">
<title>Node10&#45;&gt;Node11</title>
<g id="a_edge17_Node000010_Node000011"><a xlink:title=" ">
<path fill="none" stroke="#63b8ff" d="M455.16,-361.24C432.15,-340.22 391.24,-305.51 350.75,-284.13 344.8,-280.99 338.39,-278.14 331.89,-275.6"/>
<polygon fill="#63b8ff" stroke="#63b8ff" points="452.52,-363.56 462.23,-367.79 457.28,-358.43 452.52,-363.56"/>
</a>
</g>
</g>
<!-- Node11&#45;&gt;Node2 -->
<g id="edge19_Node000011_Node000002" class="edge">
<title>Node11&#45;&gt;Node2</title>
<g id="a_edge19_Node000011_Node000002"><a xlink:title=" ">
<path fill="none" stroke="#63b8ff" d="M360.06,-261.14C442.19,-262.88 569.4,-265.13 679.75,-265.13 1079.38,-265.13 1079.38,-265.13 1079.38,-265.13 1184.9,-265.13 1306.24,-256.98 1385.09,-250.61"/>
<polygon fill="#63b8ff" stroke="#63b8ff" points="360.36,-257.64 350.29,-260.93 360.21,-264.64 360.36,-257.64"/>
</a>
</g>
</g>
<!-- Node11&#45;&gt;Node8 -->
<g id="edge18_Node000011_Node000008" class="edge">
<title>Node11&#45;&gt;Node8</title>
<g id="a_edge18_Node000011_Node000008"><a xlink:title=" ">
<path fill="none" stroke="#63b8ff" d="M234.73,-237.12C197.72,-215.27 141.81,-182.25 108.49,-162.58"/>
<polygon fill="#63b8ff" stroke="#63b8ff" points="232.48,-239.86 242.87,-241.93 236.04,-233.83 232.48,-239.86"/>
</a>
</g>
</g>
<!-- Node13 -->
<g id="Node000013" class="node">
<title>Node13</title>
<g id="a_Node000013"><a xlink:href="class_main_window.html#a872e6a76dcbf858ae9d483eceddf90e1" target="_top" xlink:title=" ">
<polygon fill="white" stroke="#666666" points="350,-325.13 196,-325.13 196,-293.13 350,-293.13 350,-325.13"/>
<text xml:space="preserve" text-anchor="start" x="204" y="-311.63" font-family="Helvetica,sans-Serif" font-size="10.00">MainWindow::createComboBox</text>
<text xml:space="preserve" text-anchor="middle" x="273" y="-299.63" font-family="Helvetica,sans-Serif" font-size="10.00">PropertyItem</text>
</a>
</g>
</g>
<!-- Node12&#45;&gt;Node13 -->
<g id="edge21_Node000012_Node000013" class="edge">
<title>Node12&#45;&gt;Node13</title>
<g id="a_edge21_Node000012_Node000013"><a xlink:title=" ">
<path fill="none" stroke="#63b8ff" d="M457.37,-517.25C418.9,-473.59 324.31,-366.22 288.26,-325.32"/>
<polygon fill="#63b8ff" stroke="#63b8ff" points="454.65,-519.46 463.89,-524.65 459.9,-514.83 454.65,-519.46"/>
</a>
</g>
</g>
<!-- Node14 -->
<g id="Node000014" class="node">
<title>Node14</title>
<g id="a_Node000014"><a xlink:href="class_main_window.html#abae03a6494d13d74ed1b2e31ec1f2fc7" target="_top" xlink:title=" ">
<polygon fill="white" stroke="#666666" points="350.75,-634.13 195.25,-634.13 195.25,-602.13 350.75,-602.13 350.75,-634.13"/>
<text xml:space="preserve" text-anchor="start" x="203.25" y="-620.63" font-family="Helvetica,sans-Serif" font-size="10.00">MainWindow::createIconCombo</text>
<text xml:space="preserve" text-anchor="middle" x="273" y="-608.63" font-family="Helvetica,sans-Serif" font-size="10.00">BoxPropertyItem</text>
</a>
</g>
</g>
<!-- Node12&#45;&gt;Node14 -->
<g id="edge24_Node000012_Node000014" class="edge">
<title>Node12&#45;&gt;Node14</title>
<g id="a_edge24_Node000012_Node000014"><a xlink:title=" ">
<path fill="none" stroke="#63b8ff" d="M438.46,-550.7C403.53,-565.02 350.33,-586.83 313.95,-601.75"/>
<polygon fill="#63b8ff" stroke="#63b8ff" points="439.34,-554.12 447.27,-547.09 436.69,-547.64 439.34,-554.12"/>
</a>
</g>
</g>
<!-- Node13&#45;&gt;Node2 -->
<g id="edge23_Node000013_Node000002" class="edge">
<title>Node13&#45;&gt;Node2</title>
<g id="a_edge23_Node000013_Node000002"><a xlink:title=" ">
<path fill="none" stroke="#63b8ff" d="M361.57,-307.08C443.74,-305.35 570.07,-303.13 679.75,-303.13 1079.38,-303.13 1079.38,-303.13 1079.38,-303.13 1200.22,-303.13 1230.53,-293.31 1349.5,-272.13 1368.52,-268.74 1389.03,-264.12 1407.59,-259.57"/>
<polygon fill="#63b8ff" stroke="#63b8ff" points="361.71,-303.58 351.79,-307.29 361.86,-310.58 361.71,-303.58"/>
</a>
</g>
</g>
<!-- Node13&#45;&gt;Node8 -->
<g id="edge22_Node000013_Node000008" class="edge">
<title>Node13&#45;&gt;Node8</title>
<g id="a_edge22_Node000013_Node000008"><a xlink:title=" ">
<path fill="none" stroke="#63b8ff" d="M200.77,-287.59C198.88,-286.49 197.03,-285.34 195.25,-284.13 146.29,-250.9 106.86,-190.98 89.79,-162.29"/>
<polygon fill="#63b8ff" stroke="#63b8ff" points="198.75,-290.49 209.24,-291.98 201.97,-284.27 198.75,-290.49"/>
</a>
</g>
</g>
<!-- Node15 -->
<g id="Node000015" class="node">
<title>Node15</title>
<g id="a_Node000015"><a xlink:href="class_main_window.html#af02df1238ccf49caa1c4099c88dfe465" target="_top" xlink:title=" ">
<polygon fill="white" stroke="#666666" points="159.25,-672.13 0,-672.13 0,-640.13 159.25,-640.13 159.25,-672.13"/>
<text xml:space="preserve" text-anchor="start" x="8" y="-658.63" font-family="Helvetica,sans-Serif" font-size="10.00">MainWindow::populateProperties</text>
<text xml:space="preserve" text-anchor="middle" x="79.62" y="-646.63" font-family="Helvetica,sans-Serif" font-size="10.00">ForConnection</text>
</a>
</g>
</g>
<!-- Node14&#45;&gt;Node15 -->
<g id="edge25_Node000014_Node000015" class="edge">
<title>Node14&#45;&gt;Node15</title>
<g id="a_edge25_Node000014_Node000015"><a xlink:title=" ">
<path fill="none" stroke="#63b8ff" d="M183.72,-635.66C175.69,-637.25 167.6,-638.86 159.66,-640.43"/>
<polygon fill="#63b8ff" stroke="#63b8ff" points="184.38,-639.09 193.5,-633.71 183.01,-632.23 184.38,-639.09"/>
</a>
</g>
</g>
<!-- Node15&#45;&gt;Node4 -->
<g id="edge26_Node000015_Node000004" class="edge">
<title>Node15&#45;&gt;Node4</title>
<g id="a_edge26_Node000015_Node000004"><a xlink:title=" ">
<path fill="none" stroke="#63b8ff" d="M154.59,-675.16C233.24,-693.71 361.54,-719.13 474,-719.13 681.75,-719.13 681.75,-719.13 681.75,-719.13 809.55,-719.13 847.93,-726.8 966.5,-679.13 1003.72,-664.16 1040.12,-634.09 1060.56,-615.38"/>
<polygon fill="#63b8ff" stroke="#63b8ff" points="155.84,-671.86 145.3,-672.95 154.22,-678.67 155.84,-671.86"/>
</a>
</g>
</g>
<!-- Node16&#45;&gt;Node1 -->
<g id="edge28_Node000016_Node000001" class="edge">
<title>Node16&#45;&gt;Node1</title>
<g id="a_edge28_Node000016_Node000001"><a xlink:title=" ">
<path fill="none" stroke="#63b8ff" d="M773.49,-643.13C853.68,-643.13 973.24,-643.13 1077.38,-643.13 1270.88,-643.13 1270.88,-643.13 1270.88,-643.13 1434.1,-643.13 1594.29,-497.74 1644.02,-448.33"/>
<polygon fill="#63b8ff" stroke="#63b8ff" points="773.96,-639.63 763.96,-643.13 773.96,-646.63 773.96,-639.63"/>
</a>
</g>
</g>
<!-- Node17&#45;&gt;Node4 -->
<g id="edge32_Node000017_Node000004" class="edge">
<title>Node17&#45;&gt;Node4</title>
<g id="a_edge32_Node000017_Node000004"><a xlink:title=" ">
<path fill="none" stroke="#63b8ff" d="M549.83,-784.49C650.17,-800.47 832.46,-810.78 966.5,-742.13 1020.79,-714.32 1058.44,-646.96 1071.9,-615.36"/>
<polygon fill="#63b8ff" stroke="#63b8ff" points="550.53,-781.06 540.09,-782.87 549.38,-787.96 550.53,-781.06"/>
</a>
</g>
</g>
<!-- Node18 -->
<g id="Node000018" class="node">
<title>Node18</title>
<g id="a_Node000018"><a xlink:href="class_main_window.html#adfa32feecffce3959c99d145fc8b4854" target="_top" xlink:title=" ">
<polygon fill="white" stroke="#666666" points="345.5,-799.13 200.5,-799.13 200.5,-779.13 345.5,-779.13 345.5,-799.13"/>
<text xml:space="preserve" text-anchor="middle" x="273" y="-785.63" font-family="Helvetica,sans-Serif" font-size="10.00">MainWindow::connectSignals</text>
</a>
</g>
</g>
<!-- Node17&#45;&gt;Node18 -->
<g id="edge30_Node000017_Node000018" class="edge">
<title>Node17&#45;&gt;Node18</title>
<g id="a_edge30_Node000017_Node000018"><a xlink:title=" ">
<path fill="none" stroke="#63b8ff" d="M388.49,-775.96C374.25,-777.6 359.6,-779.28 345.74,-780.88"/>
<polygon fill="#63b8ff" stroke="#63b8ff" points="388.77,-779.45 398.31,-774.83 387.97,-772.5 388.77,-779.45"/>
</a>
</g>
</g>
<!-- Node19 -->
<g id="Node000019" class="node">
<title>Node19</title>
<g id="a_Node000019"><a xlink:href="class_main_window.html#a996c5a2b6f77944776856f08ec30858d" target="_top" xlink:title=" ">
<polygon fill="white" stroke="#666666" points="146.88,-799.13 12.38,-799.13 12.38,-779.13 146.88,-779.13 146.88,-799.13"/>
<text xml:space="preserve" text-anchor="middle" x="79.62" y="-785.63" font-family="Helvetica,sans-Serif" font-size="10.00">MainWindow::MainWindow</text>
</a>
</g>
</g>
<!-- Node18&#45;&gt;Node19 -->
<g id="edge31_Node000018_Node000019" class="edge">
<title>Node18&#45;&gt;Node19</title>
<g id="a_edge31_Node000018_Node000019"><a xlink:title=" ">
<path fill="none" stroke="#63b8ff" d="M189.06,-789.13C175.05,-789.13 160.67,-789.13 147.14,-789.13"/>
<polygon fill="#63b8ff" stroke="#63b8ff" points="188.68,-792.63 198.68,-789.13 188.68,-785.63 188.68,-792.63"/>
</a>
</g>
</g>
<!-- Node20&#45;&gt;Node6 -->
<g id="edge34_Node000020_Node000006" class="edge">
<title>Node20&#45;&gt;Node6</title>
<g id="a_edge34_Node000020_Node000006"><a xlink:title=" ">
<path fill="none" stroke="#63b8ff" d="M807.72,-200.55C804.48,-199.15 801.31,-197.68 798.25,-196.13 759.6,-176.51 720.6,-143.84 698.97,-124.3"/>
<polygon fill="#63b8ff" stroke="#63b8ff" points="806.27,-203.74 816.85,-204.19 808.86,-197.24 806.27,-203.74"/>
</a>
</g>
</g>
<!-- Node21&#45;&gt;Node18 -->
<g id="edge36_Node000021_Node000018" class="edge">
<title>Node21&#45;&gt;Node18</title>
<g id="a_edge36_Node000021_Node000018"><a xlink:title=" ">
<path fill="none" stroke="#63b8ff" d="M786.71,-809.39C664.72,-804.57 455.32,-796.29 345.69,-791.96"/>
<polygon fill="#63b8ff" stroke="#63b8ff" points="786.24,-812.87 796.37,-809.77 786.51,-805.88 786.24,-812.87"/>
</a>
</g>
</g>
<!-- Node22&#45;&gt;Node10 -->
<g id="edge46_Node000022_Node000010" class="edge">
<title>Node22&#45;&gt;Node10</title>
<g id="a_edge46_Node000022_Node000010"><a xlink:title=" ">
<path fill="none" stroke="#63b8ff" d="M867.46,-509.86C848.53,-477.15 811.32,-422.59 762.25,-398.13 697.28,-365.74 613.51,-364.07 553.4,-368.64"/>
<polygon fill="#63b8ff" stroke="#63b8ff" points="864.27,-511.32 872.22,-518.33 870.37,-507.89 864.27,-511.32"/>
</a>
</g>
</g>
<!-- Node22&#45;&gt;Node12 -->
<g id="edge47_Node000022_Node000012" class="edge">
<title>Node22&#45;&gt;Node12</title>
<g id="a_edge47_Node000022_Node000012"><a xlink:title=" ">
<path fill="none" stroke="#63b8ff" d="M841.41,-514.64C818.86,-503.75 789.77,-491.67 762.25,-486.13 691.23,-471.83 670.35,-472.25 599.25,-486.13 560.49,-493.69 518.52,-513.46 494.92,-525.75"/>
<polygon fill="#63b8ff" stroke="#63b8ff" points="839.72,-517.71 850.24,-519.03 842.83,-511.44 839.72,-517.71"/>
</a>
</g>
</g>
<!-- Node22&#45;&gt;Node16 -->
<g id="edge48_Node000022_Node000016" class="edge">
<title>Node22&#45;&gt;Node16</title>
<g id="a_edge48_Node000022_Node000016"><a xlink:title=" ">
<path fill="none" stroke="#63b8ff" d="M843.33,-558.25C828.89,-567.08 812.5,-577.63 798.25,-588.13 781.25,-600.65 780.78,-609 762.25,-619.13 752.01,-624.72 740.31,-629.17 729.06,-632.63"/>
<polygon fill="#63b8ff" stroke="#63b8ff" points="844.92,-561.38 851.67,-553.22 841.3,-555.39 844.92,-561.38"/>
</a>
</g>
</g>
<!-- Node22&#45;&gt;Node17 -->
<g id="edge49_Node000022_Node000017" class="edge">
<title>Node22&#45;&gt;Node17</title>
<g id="a_edge49_Node000022_Node000017"><a xlink:title=" ">
<path fill="none" stroke="#63b8ff" d="M836.16,-557.22C814.19,-566.93 787.19,-578.05 762.25,-586.13 691.48,-609.05 662.96,-585.72 599.25,-624.13 545.57,-656.49 503.08,-720.18 485.19,-750.01"/>
<polygon fill="#63b8ff" stroke="#63b8ff" points="837.44,-560.49 845.14,-553.21 834.58,-554.1 837.44,-560.49"/>
</a>
</g>
</g>
<!-- Node23 -->
<g id="Node000023" class="node">
<title>Node23</title>
<g id="a_Node000023"><a xlink:href="class_main_window.html#a9ed390421f6755b891cfc651d173db7b" target="_top" xlink:title=" ">
<polygon fill="white" stroke="#666666" points="752.5,-527.13 609,-527.13 609,-495.13 752.5,-495.13 752.5,-527.13"/>
<text xml:space="preserve" text-anchor="start" x="617" y="-513.63" font-family="Helvetica,sans-Serif" font-size="10.00">MainWindow::handleAttribute</text>
<text xml:space="preserve" text-anchor="middle" x="680.75" y="-501.63" font-family="Helvetica,sans-Serif" font-size="10.00">PropertyChange</text>
</a>
</g>
</g>
<!-- Node22&#45;&gt;Node23 -->
<g id="edge38_Node000022_Node000023" class="edge">
<title>Node22&#45;&gt;Node23</title>
<g id="a_edge38_Node000022_Node000023"><a xlink:title=" ">
<path fill="none" stroke="#63b8ff" d="M804.24,-526.47C787.35,-524.35 769.55,-522.12 752.91,-520.04"/>
<polygon fill="#63b8ff" stroke="#63b8ff" points="803.32,-529.88 813.68,-527.65 804.19,-522.93 803.32,-529.88"/>
</a>
</g>
</g>
<!-- Node24 -->
<g id="Node000024" class="node">
<title>Node24</title>
<g id="a_Node000024"><a xlink:href="class_main_window.html#aa69c4b7c558b2fb3922adf75af48330a" target="_top" xlink:title=" ">
<polygon fill="white" stroke="#666666" points="761.12,-577.13 600.38,-577.13 600.38,-545.13 761.12,-545.13 761.12,-577.13"/>
<text xml:space="preserve" text-anchor="start" x="608.38" y="-563.63" font-family="Helvetica,sans-Serif" font-size="10.00">MainWindow::handleRelationship</text>
<text xml:space="preserve" text-anchor="middle" x="680.75" y="-551.63" font-family="Helvetica,sans-Serif" font-size="10.00">EndCardinalityChange</text>
</a>
</g>
</g>
<!-- Node22&#45;&gt;Node24 -->
<g id="edge42_Node000022_Node000024" class="edge">
<title>Node22&#45;&gt;Node24</title>
<g id="a_edge42_Node000022_Node000024"><a xlink:title=" ">
<path fill="none" stroke="#63b8ff" d="M804.08,-545.81C790.05,-547.56 775.39,-549.4 761.3,-551.16"/>
<polygon fill="#63b8ff" stroke="#63b8ff" points="804.19,-549.32 813.68,-544.6 803.32,-542.37 804.19,-549.32"/>
</a>
</g>
</g>
<!-- Node25 -->
<g id="Node000025" class="node">
<title>Node25</title>
<g id="a_Node000025"><a xlink:href="class_main_window.html#a96d575a529f7c24b1b5094b4b1e42742" target="_top" xlink:title=" ">
<polygon fill="white" stroke="#666666" points="761.12,-439.13 600.38,-439.13 600.38,-407.13 761.12,-407.13 761.12,-439.13"/>
<text xml:space="preserve" text-anchor="start" x="608.38" y="-425.63" font-family="Helvetica,sans-Serif" font-size="10.00">MainWindow::handleRelationship</text>
<text xml:space="preserve" text-anchor="middle" x="680.75" y="-413.63" font-family="Helvetica,sans-Serif" font-size="10.00">EndParticipationChange</text>
</a>
</g>
</g>
<!-- Node22&#45;&gt;Node25 -->
<g id="edge44_Node000022_Node000025" class="edge">
<title>Node22&#45;&gt;Node25</title>
<g id="a_edge44_Node000022_Node000025"><a xlink:title=" ">
<path fill="none" stroke="#63b8ff" d="M852.3,-512.75C828.96,-494.77 794.83,-470.19 762.25,-453.13 752.74,-448.14 742.21,-443.59 731.99,-439.62"/>
<polygon fill="#63b8ff" stroke="#63b8ff" points="850.07,-515.44 860.11,-518.83 854.37,-509.92 850.07,-515.44"/>
</a>
</g>
</g>
<!-- Node23&#45;&gt;Node10 -->
<g id="edge39_Node000023_Node000010" class="edge">
<title>Node23&#45;&gt;Node10</title>
<g id="a_edge39_Node000023_Node000010"><a xlink:title=" ">
<path fill="none" stroke="#63b8ff" d="M644.79,-488.48C600.15,-459.56 524.77,-410.72 492.01,-389.5"/>
<polygon fill="#63b8ff" stroke="#63b8ff" points="642.79,-491.35 653.09,-493.85 646.6,-485.48 642.79,-491.35"/>
</a>
</g>
</g>
<!-- Node23&#45;&gt;Node12 -->
<g id="edge40_Node000023_Node000012" class="edge">
<title>Node23&#45;&gt;Node12</title>
<g id="a_edge40_Node000023_Node000012"><a xlink:title=" ">
<path fill="none" stroke="#63b8ff" d="M597.52,-521.22C585.64,-522.67 573.38,-524.18 561.44,-525.64"/>
<polygon fill="#63b8ff" stroke="#63b8ff" points="597.77,-524.71 607.27,-520.02 596.92,-517.76 597.77,-524.71"/>
</a>
</g>
</g>
<!-- Node23&#45;&gt;Node17 -->
<g id="edge41_Node000023_Node000017" class="edge">
<title>Node23&#45;&gt;Node17</title>
<g id="a_edge41_Node000023_Node000017"><a xlink:title=" ">
<path fill="none" stroke="#63b8ff" d="M602.68,-533.48C601.51,-534.33 600.36,-535.21 599.25,-536.13 527.45,-595.39 491.5,-707.71 480.11,-749.73"/>
<polygon fill="#63b8ff" stroke="#63b8ff" points="604.26,-536.62 610.9,-528.36 600.56,-530.67 604.26,-536.62"/>
</a>
</g>
</g>
<!-- Node24&#45;&gt;Node12 -->
<g id="edge43_Node000024_Node000012" class="edge">
<title>Node24&#45;&gt;Node12</title>
<g id="a_edge43_Node000024_Node000012"><a xlink:title=" ">
<path fill="none" stroke="#63b8ff" d="M588.96,-549.99C579.77,-548.86 570.45,-547.72 561.32,-546.59"/>
<polygon fill="#63b8ff" stroke="#63b8ff" points="588.25,-553.43 598.6,-551.17 589.1,-546.48 588.25,-553.43"/>
</a>
</g>
</g>
<!-- Node25&#45;&gt;Node10 -->
<g id="edge45_Node000025_Node000010" class="edge">
<title>Node25&#45;&gt;Node10</title>
<g id="a_edge45_Node000025_Node000010"><a xlink:title=" ">
<path fill="none" stroke="#63b8ff" d="M592.62,-404.31C569.33,-399.28 544.99,-394.03 524.61,-389.62"/>
<polygon fill="#63b8ff" stroke="#63b8ff" points="591.6,-407.67 602.11,-406.36 593.08,-400.83 591.6,-407.67"/>
</a>
</g>
</g>
</g>
</svg>
