<?xml version="1.0" encoding="UTF-8" standalone="no"?>
<!DOCTYPE svg PUBLIC "-//W3C//DTD SVG 1.1//EN"
 "http://www.w3.org/Graphics/SVG/1.1/DTD/svg11.dtd">
<!-- Generated by graphviz version 14.1.1 (20251213.1925)
 -->
<!-- Title: MainWindow::createComboBoxPropertyItem Pages: 1 -->
<svg width="2144pt" height="891pt"
 viewBox="0.00 0.00 2144.00 891.00" xmlns="http://www.w3.org/2000/svg" xmlns:xlink="http://www.w3.org/1999/xlink">
<g id="graph0" class="graph" transform="scale(1 1) rotate(0) translate(4 887)">
<title>MainWindow::createComboBoxPropertyItem</title>
<!-- Node1 -->
<g id="Node000001" class="node">
<title>Node1</title>
<g id="a_Node000001"><a xlink:title=" ">
<polygon fill="#999999" stroke="#666666" points="2135.75,-709 1981.75,-709 1981.75,-677 2135.75,-677 2135.75,-709"/>
<text xml:space="preserve" text-anchor="start" x="1989.75" y="-695.5" font-family="Helvetica,sans-Serif" font-size="10.00">MainWindow::createComboBox</text>
<text xml:space="preserve" text-anchor="middle" x="2058.75" y="-683.5" font-family="Helvetica,sans-Serif" font-size="10.00">PropertyItem</text>
</a>
</g>
</g>
<!-- Node2 -->
<g id="Node000002" class="node">
<title>Node2</title>
<g id="a_Node000002"><a xlink:href="class_main_window.html#a3aa4112f20ad25eb3ad78fd354ba7de2" target="_top" xlink:title=" ">
<polygon fill="white" stroke="#666666" points="1945.75,-785 1794,-785 1794,-753 1945.75,-753 1945.75,-785"/>
<text xml:space="preserve" text-anchor="start" x="1802" y="-771.5" font-family="Helvetica,sans-Serif" font-size="10.00">MainWindow::populateAttribute</text>
<text xml:space="preserve" text-anchor="middle" x="1869.88" y="-759.5" font-family="Helvetica,sans-Serif" font-size="10.00">Properties</text>
</a>
</g>
</g>
<!-- Node1&#45;&gt;Node2 -->
<g id="edge1_Node000001_Node000002" class="edge">
<title>Node1&#45;&gt;Node2</title>
<g id="a_edge1_Node000001_Node000002"><a xlink:title=" ">
<path fill="none" stroke="#63b8ff" d="M2006.92,-713.67C1976.88,-725.89 1939.37,-741.15 1911.34,-752.54"/>
<polygon fill="#63b8ff" stroke="#63b8ff" points="2007.85,-717.07 2015.8,-710.06 2005.22,-710.59 2007.85,-717.07"/>
</a>
</g>
</g>
<!-- Node9 -->
<g id="Node000009" class="node">
<title>Node9</title>
<g id="a_Node000009"><a xlink:href="class_main_window.html#a1049a5796ac248f40a3b4110ed5faf77" target="_top" xlink:title=" ">
<polygon fill="white" stroke="#666666" points="1554.5,-709 1385.5,-709 1385.5,-677 1554.5,-677 1554.5,-709"/>
<text xml:space="preserve" text-anchor="start" x="1393.5" y="-695.5" font-family="Helvetica,sans-Serif" font-size="10.00">MainWindow::populateRelationship</text>
<text xml:space="preserve" text-anchor="middle" x="1470" y="-683.5" font-family="Helvetica,sans-Serif" font-size="10.00">Properties</text>
</a>
</g>
</g>
<!-- Node1&#45;&gt;Node9 -->
<g id="edge49_Node000001_Node000009" class="edge">
<title>Node1&#45;&gt;Node9</title>
<g id="a_edge49_Node000001_Node000009"><a xlink:title=" ">
<path fill="none" stroke="#63b8ff" d="M1970.09,-693C1857.98,-693 1665.21,-693 1554.93,-693"/>
<polygon fill="#63b8ff" stroke="#63b8ff" points="1969.83,-696.5 1979.83,-693 1969.83,-689.5 1969.83,-696.5"/>
</a>
</g>
</g>
<!-- Node3 -->
<g id="Node000003" class="node">
<title>Node3</title>
<g id="a_Node000003"><a xlink:href="class_main_window.html#a697154cf7839e00c607134c2a4e018cf" target="_top" xlink:title=" ">
<polygon fill="white" stroke="#666666" points="1758,-779 1590.5,-779 1590.5,-759 1758,-759 1758,-779"/>
<text xml:space="preserve" text-anchor="middle" x="1674.25" y="-765.5" font-family="Helvetica,sans-Serif" font-size="10.00">MainWindow::populateAttributeList</text>
</a>
</g>
</g>
<!-- Node2&#45;&gt;Node3 -->
<g id="edge2_Node000002_Node000003" class="edge">
<title>Node2&#45;&gt;Node3</title>
<g id="a_edge2_Node000002_Node000003"><a xlink:title=" ">
<path fill="none" stroke="#63b8ff" d="M1782.49,-762.28C1774.48,-762.23 1766.36,-762.24 1758.38,-762.31"/>
<polygon fill="#63b8ff" stroke="#63b8ff" points="1782.19,-765.78 1792.22,-762.39 1782.26,-758.78 1782.19,-765.78"/>
</a>
</g>
</g>
<!-- Node5 -->
<g id="Node000005" class="node">
<title>Node5</title>
<g id="a_Node000005"><a xlink:href="class_main_window.html#add7e6ae12287854ff779bd4b5649dd98" target="_top" xlink:title=" ">
<polygon fill="white" stroke="#666666" points="1349.5,-580 1190.25,-580 1190.25,-548 1349.5,-548 1349.5,-580"/>
<text xml:space="preserve" text-anchor="start" x="1198.25" y="-566.5" font-family="Helvetica,sans-Serif" font-size="10.00">MainWindow::populateProperties</text>
<text xml:space="preserve" text-anchor="middle" x="1269.88" y="-554.5" font-family="Helvetica,sans-Serif" font-size="10.00">ForElement</text>
</a>
</g>
</g>
<!-- Node2&#45;&gt;Node5 -->
<g id="edge48_Node000002_Node000005" class="edge">
<title>Node2&#45;&gt;Node5</title>
<g id="a_edge48_Node000002_Node000005"><a xlink:title=" ">
<path fill="none" stroke="#63b8ff" d="M1810.32,-748.93C1692.14,-708.41 1427.15,-617.57 1318.61,-580.37"/>
<polygon fill="#63b8ff" stroke="#63b8ff" points="1808.92,-752.15 1819.52,-752.08 1811.19,-745.53 1808.92,-752.15"/>
</a>
</g>
</g>
<!-- Node3&#45;&gt;Node2 -->
<g id="edge3_Node000003_Node000002" class="edge">
<title>Node3&#45;&gt;Node2</title>
<g id="a_edge3_Node000003_Node000002"><a xlink:title=" ">
<path fill="none" stroke="#63b8ff" d="M1769.73,-775.75C1777.78,-775.76 1785.86,-775.71 1793.74,-775.6"/>
<polygon fill="#63b8ff" stroke="#63b8ff" points="1769.91,-772.25 1759.89,-775.7 1769.87,-779.25 1769.91,-772.25"/>
</a>
</g>
</g>
<!-- Node4 -->
<g id="Node000004" class="node">
<title>Node4</title>
<g id="a_Node000004"><a xlink:href="class_main_window.html#a40023e3590f2593fd133a6b111f63ed9" target="_top" xlink:title=" ">
<polygon fill="white" stroke="#666666" points="545.25,-753 404.75,-753 404.75,-721 545.25,-721 545.25,-753"/>
<text xml:space="preserve" text-anchor="start" x="412.75" y="-739.5" font-family="Helvetica,sans-Serif" font-size="10.00">MainWindow::populateEntity</text>
<text xml:space="preserve" text-anchor="middle" x="475" y="-727.5" font-family="Helvetica,sans-Serif" font-size="10.00">Properties</text>
</a>
</g>
</g>
<!-- Node3&#45;&gt;Node4 -->
<g id="edge4_Node000003_Node000004" class="edge">
<title>Node3&#45;&gt;Node4</title>
<g id="a_edge4_Node000003_Node000004"><a xlink:title=" ">
<path fill="none" stroke="#63b8ff" d="M1584.19,-780.64C1574.19,-781.61 1564.14,-782.43 1554.5,-783 1218.94,-802.71 1133.93,-790.5 798.25,-773 709.79,-768.39 687.11,-773.28 599.25,-762 581.71,-759.75 562.93,-756.42 545.45,-752.92"/>
<polygon fill="#63b8ff" stroke="#63b8ff" points="1584.34,-784.15 1593.93,-779.65 1583.63,-777.18 1584.34,-784.15"/>
</a>
</g>
</g>
<!-- Node3&#45;&gt;Node9 -->
<g id="edge47_Node000003_Node000009" class="edge">
<title>Node3&#45;&gt;Node9</title>
<g id="a_edge47_Node000003_Node000009"><a xlink:title=" ">
<path fill="none" stroke="#63b8ff" d="M1635.02,-754.64C1600.75,-741.76 1550.49,-722.87 1514.64,-709.4"/>
<polygon fill="#63b8ff" stroke="#63b8ff" points="1633.54,-757.82 1644.14,-758.06 1636.01,-751.27 1633.54,-757.82"/>
</a>
</g>
</g>
<!-- Node4&#45;&gt;Node5 -->
<g id="edge5_Node000004_Node000005" class="edge">
<title>Node4&#45;&gt;Node5</title>
<g id="a_edge5_Node000004_Node000005"><a xlink:title=" ">
<path fill="none" stroke="#63b8ff" d="M502.4,-713.11C554.39,-667.87 675.66,-571.1 798.25,-536 940.28,-495.34 1115.99,-525.93 1207.28,-547.52"/>
<polygon fill="#63b8ff" stroke="#63b8ff" points="500.13,-710.44 494.94,-719.68 504.76,-715.7 500.13,-710.44"/>
</a>
</g>
</g>
<!-- Node6 -->
<g id="Node000006" class="node">
<title>Node6</title>
<g id="a_Node000006"><a xlink:href="class_main_window.html#a5caeae304b10e5cd9f83ef5c6086310b" target="_top" xlink:title=" ">
<polygon fill="white" stroke="#666666" points="1154.25,-372 1002.5,-372 1002.5,-340 1154.25,-340 1154.25,-372"/>
<text xml:space="preserve" text-anchor="start" x="1010.5" y="-358.5" font-family="Helvetica,sans-Serif" font-size="10.00">MainWindow::updateProperties</text>
<text xml:space="preserve" text-anchor="middle" x="1078.38" y="-346.5" font-family="Helvetica,sans-Serif" font-size="10.00">Panel</text>
</a>
</g>
</g>
<!-- Node5&#45;&gt;Node6 -->
<g id="edge6_Node000005_Node000006" class="edge">
<title>Node5&#45;&gt;Node6</title>
<g id="a_edge6_Node000005_Node000006"><a xlink:title=" ">
<path fill="none" stroke="#63b8ff" d="M1246.27,-539.19C1206.99,-496.07 1127.18,-408.47 1094.18,-372.25"/>
<polygon fill="#63b8ff" stroke="#63b8ff" points="1243.66,-541.52 1252.99,-546.56 1248.84,-536.81 1243.66,-541.52"/>
</a>
</g>
</g>
<!-- Node7 -->
<g id="Node000007" class="node">
<title>Node7</title>
<g id="a_Node000007"><a xlink:href="class_main_window.html#ad34ae0349abf41aa739b75b85df74126" target="_top" xlink:title=" ">
<polygon fill="white" stroke="#666666" points="953.75,-627 811,-627 811,-595 953.75,-595 953.75,-627"/>
<text xml:space="preserve" text-anchor="start" x="819" y="-613.5" font-family="Helvetica,sans-Serif" font-size="10.00">MainWindow::onAddAttribute</text>
<text xml:space="preserve" text-anchor="middle" x="882.38" y="-601.5" font-family="Helvetica,sans-Serif" font-size="10.00">OnTreeClicked</text>
</a>
</g>
</g>
<!-- Node6&#45;&gt;Node7 -->
<g id="edge7_Node000006_Node000007" class="edge">
<title>Node6&#45;&gt;Node7</title>
<g id="a_edge7_Node000006_Node000007"><a xlink:title=" ">
<path fill="none" stroke="#63b8ff" d="M1071.74,-383.49C1060.42,-431.69 1030.36,-531.46 966.5,-586 962.6,-589.33 958.28,-592.21 953.7,-594.71"/>
<polygon fill="#63b8ff" stroke="#63b8ff" points="1075.12,-384.41 1073.89,-373.89 1068.29,-382.88 1075.12,-384.41"/>
</a>
</g>
</g>
<!-- Node10 -->
<g id="Node000010" class="node">
<title>Node10</title>
<g id="a_Node000010"><a xlink:href="class_main_window.html#a47fd0b86ddb5829e3b0cb15908671670" target="_top" xlink:title=" ">
<polygon fill="white" stroke="#666666" points="561.75,-448 388.25,-448 388.25,-428 561.75,-428 561.75,-448"/>
<text xml:space="preserve" text-anchor="middle" x="475" y="-434.5" font-family="Helvetica,sans-Serif" font-size="10.00">MainWindow::onCheckBoxChanged</text>
</a>
</g>
</g>
<!-- Node6&#45;&gt;Node10 -->
<g id="edge14_Node000006_Node000010" class="edge">
<title>Node6&#45;&gt;Node10</title>
<g id="a_edge14_Node000006_Node000010"><a xlink:title=" ">
<path fill="none" stroke="#63b8ff" d="M1023.99,-376.5C948.36,-405.12 813.53,-454.53 762.25,-463 690.77,-474.8 671.33,-470.24 599.25,-463 571.55,-460.22 540.87,-454.01 517.05,-448.47"/>
<polygon fill="#63b8ff" stroke="#63b8ff" points="1025.18,-379.79 1033.28,-372.97 1022.69,-373.25 1025.18,-379.79"/>
</a>
</g>
</g>
<!-- Node12 -->
<g id="Node000012" class="node">
<title>Node12</title>
<g id="a_Node000012"><a xlink:href="class_main_window.html#ac1e0c79708cf9aa9b7ca1a87697e5b34" target="_top" xlink:title=" ">
<polygon fill="white" stroke="#666666" points="563.25,-253 386.75,-253 386.75,-233 563.25,-233 563.25,-253"/>
<text xml:space="preserve" text-anchor="middle" x="475" y="-239.5" font-family="Helvetica,sans-Serif" font-size="10.00">MainWindow::onComboBoxChanged</text>
</a>
</g>
</g>
<!-- Node6&#45;&gt;Node12 -->
<g id="edge18_Node000006_Node000012" class="edge">
<title>Node6&#45;&gt;Node12</title>
<g id="a_edge18_Node000006_Node000012"><a xlink:title=" ">
<path fill="none" stroke="#63b8ff" d="M1035.78,-334.71C976.78,-305.82 864.55,-255.67 762.25,-237 690.98,-223.99 671.67,-235.24 599.25,-237 587.69,-237.28 575.52,-237.71 563.51,-238.21"/>
<polygon fill="#63b8ff" stroke="#63b8ff" points="1033.95,-337.71 1044.46,-339 1037.05,-331.43 1033.95,-337.71"/>
</a>
</g>
</g>
<!-- Node15 -->
<g id="Node000015" class="node">
<title>Node15</title>
<g id="a_Node000015"><a xlink:href="class_main_window.html#a0e7ca45ac830893108871185dda813a4" target="_top" xlink:title=" ">
<polygon fill="white" stroke="#666666" points="762.25,-530 599.25,-530 599.25,-510 762.25,-510 762.25,-530"/>
<text xml:space="preserve" text-anchor="middle" x="680.75" y="-516.5" font-family="Helvetica,sans-Serif" font-size="10.00">MainWindow::onLineEditChanged</text>
</a>
</g>
</g>
<!-- Node6&#45;&gt;Node15 -->
<g id="edge23_Node000006_Node000015" class="edge">
<title>Node6&#45;&gt;Node15</title>
<g id="a_edge23_Node000006_Node000015"><a xlink:title=" ">
<path fill="none" stroke="#63b8ff" d="M1056.31,-380.95C1035.73,-403.7 1002.33,-436.5 966.5,-455 928.32,-474.72 815.86,-496.82 744.23,-509.51"/>
<polygon fill="#63b8ff" stroke="#63b8ff" points="1058.8,-383.42 1062.81,-373.61 1053.56,-378.78 1058.8,-383.42"/>
</a>
</g>
</g>
<!-- Node17 -->
<g id="Node000017" class="node">
<title>Node17</title>
<g id="a_Node000017"><a xlink:href="class_main_window.html#a1043995538765eae993ae75217c482e7" target="_top" xlink:title=" ">
<polygon fill="white" stroke="#666666" points="549.75,-73 400.25,-73 400.25,-41 549.75,-41 549.75,-73"/>
<text xml:space="preserve" text-anchor="start" x="408.25" y="-59.5" font-family="Helvetica,sans-Serif" font-size="10.00">MainWindow::onPropertyValue</text>
<text xml:space="preserve" text-anchor="middle" x="475" y="-47.5" font-family="Helvetica,sans-Serif" font-size="10.00">Changed</text>
</a>
</g>
</g>
<!-- Node6&#45;&gt;Node17 -->
<g id="edge26_Node000006_Node000017" class="edge">
<title>Node6&#45;&gt;Node17</title>
<g id="a_edge26_Node000006_Node000017"><a xlink:title=" ">
<path fill="none" stroke="#63b8ff" d="M1073.61,-328.65C1064.48,-277.8 1036.58,-170.2 966.5,-119 842.66,-28.52 653.47,-29.62 549.98,-41.67"/>
<polygon fill="#63b8ff" stroke="#63b8ff" points="1070.11,-328.95 1075.2,-338.24 1077.01,-327.8 1070.11,-328.95"/>
</a>
</g>
</g>
<!-- Node20 -->
<g id="Node000020" class="node">
<title>Node20</title>
<g id="a_Node000020"><a xlink:href="class_main_window.html#a95674d4bfc5fc2aad6df1601f23b1793" target="_top" xlink:title=" ">
<polygon fill="white" stroke="#666666" points="963.5,-577 801.25,-577 801.25,-545 963.5,-545 963.5,-577"/>
<text xml:space="preserve" text-anchor="start" x="809.25" y="-563.5" font-family="Helvetica,sans-Serif" font-size="10.00">MainWindow::onRemoveAttribute</text>
<text xml:space="preserve" text-anchor="middle" x="882.38" y="-551.5" font-family="Helvetica,sans-Serif" font-size="10.00">OnTreeClicked</text>
</a>
</g>
</g>
<!-- Node6&#45;&gt;Node20 -->
<g id="edge30_Node000006_Node000020" class="edge">
<title>Node6&#45;&gt;Node20</title>
<g id="a_edge30_Node000006_Node000020"><a xlink:title=" ">
<path fill="none" stroke="#63b8ff" d="M1059.33,-381.34C1038.47,-409.86 1002.4,-456.91 966.5,-493 947.43,-512.17 923.3,-531.44 905.95,-544.54"/>
<polygon fill="#63b8ff" stroke="#63b8ff" points="1062.12,-383.45 1065.15,-373.3 1056.45,-379.35 1062.12,-383.45"/>
</a>
</g>
</g>
<!-- Node21 -->
<g id="Node000021" class="node">
<title>Node21</title>
<g id="a_Node000021"><a xlink:href="class_main_window.html#a44791b85064ecff42c12429c6667e83b" target="_top" xlink:title=" ">
<polygon fill="white" stroke="#666666" points="966.5,-20 798.25,-20 798.25,0 966.5,0 966.5,-20"/>
<text xml:space="preserve" text-anchor="middle" x="882.38" y="-6.5" font-family="Helvetica,sans-Serif" font-size="10.00">MainWindow::onSelectionChanged</text>
</a>
</g>
</g>
<!-- Node6&#45;&gt;Node21 -->
<g id="edge32_Node000006_Node000021" class="edge">
<title>Node6&#45;&gt;Node21</title>
<g id="a_edge32_Node000006_Node000021"><a xlink:title=" ">
<path fill="none" stroke="#63b8ff" d="M1072.02,-328.72C1060.42,-275.04 1028.83,-153.81 966.5,-72 949.26,-49.37 921.64,-31.06 903.01,-20.35"/>
<polygon fill="#63b8ff" stroke="#63b8ff" points="1068.53,-329.14 1074.01,-338.21 1075.38,-327.71 1068.53,-329.14"/>
</a>
</g>
</g>
<!-- Node22 -->
<g id="Node000022" class="node">
<title>Node22</title>
<g id="a_Node000022"><a xlink:href="class_main_window.html#af380eeda83d30cd1ecb1419cfd5161d7" target="_top" xlink:title=" ">
<polygon fill="white" stroke="#666666" points="949.25,-372 815.5,-372 815.5,-340 949.25,-340 949.25,-372"/>
<text xml:space="preserve" text-anchor="start" x="823.5" y="-358.5" font-family="Helvetica,sans-Serif" font-size="10.00">MainWindow::updatesAfter</text>
<text xml:space="preserve" text-anchor="middle" x="882.38" y="-346.5" font-family="Helvetica,sans-Serif" font-size="10.00">ChangingProperty</text>
</a>
</g>
</g>
<!-- Node6&#45;&gt;Node22 -->
<g id="edge34_Node000006_Node000022" class="edge">
<title>Node6&#45;&gt;Node22</title>
<g id="a_edge34_Node000006_Node000022"><a xlink:title=" ">
<path fill="none" stroke="#63b8ff" d="M990.58,-356C976.77,-356 962.69,-356 949.46,-356"/>
<polygon fill="#63b8ff" stroke="#63b8ff" points="990.58,-359.5 1000.58,-356 990.58,-352.5 990.58,-359.5"/>
</a>
</g>
</g>
<!-- Node8 -->
<g id="Node000008" class="node">
<title>Node8</title>
<g id="a_Node000008"><a xlink:href="class_main_window.html#a6fd05e9f951dd6e7c2cd6ca815ef9d71" target="_top" xlink:title=" ">
<polygon fill="white" stroke="#666666" points="747.62,-753 613.88,-753 613.88,-721 747.62,-721 747.62,-753"/>
<text xml:space="preserve" text-anchor="start" x="621.88" y="-739.5" font-family="Helvetica,sans-Serif" font-size="10.00">MainWindow::createButton</text>
<text xml:space="preserve" text-anchor="middle" x="680.75" y="-727.5" font-family="Helvetica,sans-Serif" font-size="10.00">PropertyItem</text>
</a>
</g>
</g>
<!-- Node7&#45;&gt;Node8 -->
<g id="edge8_Node000007_Node000008" class="edge">
<title>Node7&#45;&gt;Node8</title>
<g id="a_edge8_Node000007_Node000008"><a xlink:title=" ">
<path fill="none" stroke="#63b8ff" d="M845.74,-633.49C806.14,-658.49 743.13,-698.26 707.85,-720.52"/>
<polygon fill="#63b8ff" stroke="#63b8ff" points="847.41,-636.58 854,-628.28 843.67,-630.66 847.41,-636.58"/>
</a>
</g>
</g>
<!-- Node8&#45;&gt;Node2 -->
<g id="edge10_Node000008_Node000002" class="edge">
<title>Node8&#45;&gt;Node2</title>
<g id="a_edge10_Node000008_Node000002"><a xlink:title=" ">
<path fill="none" stroke="#63b8ff" d="M740.1,-756.88C758.54,-762.67 779.11,-768.6 798.25,-773 1004.48,-820.37 1057.27,-845 1268.88,-845 1471,-845 1471,-845 1471,-845 1596.88,-845 1741.25,-807.84 1816.71,-785.49"/>
<polygon fill="#63b8ff" stroke="#63b8ff" points="741.24,-753.57 730.65,-753.87 739.12,-760.24 741.24,-753.57"/>
</a>
</g>
</g>
<!-- Node8&#45;&gt;Node3 -->
<g id="edge9_Node000008_Node000003" class="edge">
<title>Node8&#45;&gt;Node3</title>
<g id="a_edge9_Node000008_Node000003"><a xlink:title=" ">
<path fill="none" stroke="#63b8ff" d="M759.52,-747.02C839.19,-756.41 966.71,-769 1077.38,-769 1270.88,-769 1270.88,-769 1270.88,-769 1381.25,-769 1508.65,-769 1590.02,-769"/>
<polygon fill="#63b8ff" stroke="#63b8ff" points="759.96,-743.55 749.62,-745.84 759.14,-750.5 759.96,-743.55"/>
</a>
</g>
</g>
<!-- Node8&#45;&gt;Node4 -->
<g id="edge11_Node000008_Node000004" class="edge">
<title>Node8&#45;&gt;Node4</title>
<g id="a_edge11_Node000008_Node000004"><a xlink:title=" ">
<path fill="none" stroke="#63b8ff" d="M602.2,-737C583.61,-737 563.88,-737 545.68,-737"/>
<polygon fill="#63b8ff" stroke="#63b8ff" points="602.08,-740.5 612.08,-737 602.08,-733.5 602.08,-740.5"/>
</a>
</g>
</g>
<!-- Node8&#45;&gt;Node9 -->
<g id="edge12_Node000008_Node000009" class="edge">
<title>Node8&#45;&gt;Node9</title>
<g id="a_edge12_Node000008_Node000009"><a xlink:title=" ">
<path fill="none" stroke="#63b8ff" d="M759,-735.33C883.48,-732.23 1136.1,-724.27 1349.5,-707 1361.06,-706.06 1373.22,-704.88 1385.18,-703.59"/>
<polygon fill="#63b8ff" stroke="#63b8ff" points="759.14,-731.82 749.23,-735.57 759.32,-738.82 759.14,-731.82"/>
</a>
</g>
</g>
<!-- Node9&#45;&gt;Node5 -->
<g id="edge13_Node000009_Node000005" class="edge">
<title>Node9&#45;&gt;Node5</title>
<g id="a_edge13_Node000009_Node000005"><a xlink:title=" ">
<path fill="none" stroke="#63b8ff" d="M1434.41,-670.48C1394.9,-644.75 1331.17,-603.26 1296.08,-580.41"/>
<polygon fill="#63b8ff" stroke="#63b8ff" points="1432.35,-673.31 1442.64,-675.84 1436.17,-667.45 1432.35,-673.31"/>
</a>
</g>
</g>
<!-- Node11 -->
<g id="Node000011" class="node">
<title>Node11</title>
<g id="a_Node000011"><a xlink:href="class_main_window.html#a44aaf7bb6d9a56f53b8a7a9e4fc29f8c" target="_top" xlink:title=" ">
<polygon fill="white" stroke="#666666" points="348.5,-709 197.5,-709 197.5,-677 348.5,-677 348.5,-709"/>
<text xml:space="preserve" text-anchor="start" x="205.5" y="-695.5" font-family="Helvetica,sans-Serif" font-size="10.00">MainWindow::createCheckBox</text>
<text xml:space="preserve" text-anchor="middle" x="273" y="-683.5" font-family="Helvetica,sans-Serif" font-size="10.00">PropertyItem</text>
</a>
</g>
</g>
<!-- Node10&#45;&gt;Node11 -->
<g id="edge15_Node000010_Node000011" class="edge">
<title>Node10&#45;&gt;Node11</title>
<g id="a_edge15_Node000010_Node000011"><a xlink:title=" ">
<path fill="none" stroke="#63b8ff" d="M459,-457.13C421.15,-505.39 322.26,-631.47 286.85,-676.62"/>
<polygon fill="#63b8ff" stroke="#63b8ff" points="461.56,-459.53 464.98,-449.5 456.05,-455.21 461.56,-459.53"/>
</a>
</g>
</g>
<!-- Node11&#45;&gt;Node2 -->
<g id="edge16_Node000011_Node000002" class="edge">
<title>Node11&#45;&gt;Node2</title>
<g id="a_edge16_Node000011_Node000002"><a xlink:title=" ">
<path fill="none" stroke="#63b8ff" d="M301.66,-716.49C364.45,-767.33 524.38,-883 679.75,-883 1471,-883 1471,-883 1471,-883 1600.48,-883 1636.28,-877.15 1758,-833 1790.59,-821.18 1824.64,-800 1846.26,-785.26"/>
<polygon fill="#63b8ff" stroke="#63b8ff" points="303.89,-713.8 293.94,-710.16 299.45,-719.21 303.89,-713.8"/>
</a>
</g>
</g>
<!-- Node11&#45;&gt;Node9 -->
<g id="edge17_Node000011_Node000009" class="edge">
<title>Node11&#45;&gt;Node9</title>
<g id="a_edge17_Node000011_Node000009"><a xlink:title=" ">
<path fill="none" stroke="#63b8ff" d="M360.07,-693C442.2,-693 569.41,-693 679.75,-693 1079.38,-693 1079.38,-693 1079.38,-693 1184.73,-693 1306.11,-693 1385.02,-693"/>
<polygon fill="#63b8ff" stroke="#63b8ff" points="360.3,-689.5 350.3,-693 360.3,-696.5 360.3,-689.5"/>
</a>
</g>
</g>
<!-- Node12&#45;&gt;Node1 -->
<g id="edge19_Node000012_Node000001" class="edge">
<title>Node12&#45;&gt;Node1</title>
<g id="a_edge19_Node000012_Node000001"><a xlink:title=" ">
<path fill="none" stroke="#63b8ff" d="M504.03,-226.88C588.01,-180.17 846.05,-48 1077.38,-48 1675.25,-48 1675.25,-48 1675.25,-48 1976.96,-48 2045.88,-576.59 2056.23,-676.73"/>
<polygon fill="#63b8ff" stroke="#63b8ff" points="502.33,-223.82 495.33,-231.77 505.76,-229.93 502.33,-223.82"/>
</a>
</g>
</g>
<!-- Node13 -->
<g id="Node000013" class="node">
<title>Node13</title>
<g id="a_Node000013"><a xlink:href="class_main_window.html#abae03a6494d13d74ed1b2e31ec1f2fc7" target="_top" xlink:title=" ">
<polygon fill="white" stroke="#666666" points="350.75,-221 195.25,-221 195.25,-189 350.75,-189 350.75,-221"/>
<text xml:space="preserve" text-anchor="start" x="203.25" y="-207.5" font-family="Helvetica,sans-Serif" font-size="10.00">MainWindow::createIconCombo</text>
<text xml:space="preserve" text-anchor="middle" x="273" y="-195.5" font-family="Helvetica,sans-Serif" font-size="10.00">BoxPropertyItem</text>
</a>
</g>
</g>
<!-- Node12&#45;&gt;Node13 -->
<g id="edge20_Node000012_Node000013" class="edge">
<title>Node12&#45;&gt;Node13</title>
<g id="a_edge20_Node000012_Node000013"><a xlink:title=" ">
<path fill="none" stroke="#63b8ff" d="M407.76,-230.41C389.61,-226.97 369.78,-223.2 351.08,-219.65"/>
<polygon fill="#63b8ff" stroke="#63b8ff" points="406.86,-233.81 417.33,-232.23 408.16,-226.93 406.86,-233.81"/>
</a>
</g>
</g>
<!-- Node14 -->
<g id="Node000014" class="node">
<title>Node14</title>
<g id="a_Node000014"><a xlink:href="class_main_window.html#af02df1238ccf49caa1c4099c88dfe465" target="_top" xlink:title=" ">
<polygon fill="white" stroke="#666666" points="159.25,-199 0,-199 0,-167 159.25,-167 159.25,-199"/>
<text xml:space="preserve" text-anchor="start" x="8" y="-185.5" font-family="Helvetica,sans-Serif" font-size="10.00">MainWindow::populateProperties</text>
<text xml:space="preserve" text-anchor="middle" x="79.62" y="-173.5" font-family="Helvetica,sans-Serif" font-size="10.00">ForConnection</text>
</a>
</g>
</g>
<!-- Node13&#45;&gt;Node14 -->
<g id="edge21_Node000013_Node000014" class="edge">
<title>Node13&#45;&gt;Node14</title>
<g id="a_edge21_Node000013_Node000014"><a xlink:title=" ">
<path fill="none" stroke="#63b8ff" d="M183.72,-194.85C175.69,-193.93 167.6,-193 159.66,-192.09"/>
<polygon fill="#63b8ff" stroke="#63b8ff" points="183.15,-198.31 193.48,-195.97 183.95,-191.35 183.15,-198.31"/>
</a>
</g>
</g>
<!-- Node14&#45;&gt;Node6 -->
<g id="edge22_Node000014_Node000006" class="edge">
<title>Node14&#45;&gt;Node6</title>
<g id="a_edge22_Node000014_Node000006"><a xlink:title=" ">
<path fill="none" stroke="#63b8ff" d="M170.44,-168.28C249.99,-156.52 369.4,-142 474,-142 681.75,-142 681.75,-142 681.75,-142 815.74,-142 853.63,-168.79 966.5,-241 1009.02,-268.2 1047.12,-314.85 1065.6,-339.55"/>
<polygon fill="#63b8ff" stroke="#63b8ff" points="170.36,-164.75 160.98,-169.69 171.39,-171.67 170.36,-164.75"/>
</a>
</g>
</g>
<!-- Node16 -->
<g id="Node000016" class="node">
<title>Node16</title>
<g id="a_Node000016"><a xlink:href="class_main_window.html#ae3b6600dd59da1822ef94bbd5f37f0cc" target="_top" xlink:title=" ">
<polygon fill="white" stroke="#666666" points="545.25,-601 404.75,-601 404.75,-569 545.25,-569 545.25,-601"/>
<text xml:space="preserve" text-anchor="start" x="412.75" y="-587.5" font-family="Helvetica,sans-Serif" font-size="10.00">MainWindow::createLineEdit</text>
<text xml:space="preserve" text-anchor="middle" x="475" y="-575.5" font-family="Helvetica,sans-Serif" font-size="10.00">PropertyItem</text>
</a>
</g>
</g>
<!-- Node15&#45;&gt;Node16 -->
<g id="edge24_Node000015_Node000016" class="edge">
<title>Node15&#45;&gt;Node16</title>
<g id="a_edge24_Node000015_Node000016"><a xlink:title=" ">
<path fill="none" stroke="#63b8ff" d="M633.17,-533.62C622.03,-536.95 610.2,-540.55 599.25,-544 574.41,-551.83 546.9,-560.94 524.18,-568.58"/>
<polygon fill="#63b8ff" stroke="#63b8ff" points="633.97,-537.03 642.56,-530.82 631.98,-530.32 633.97,-537.03"/>
</a>
</g>
</g>
<!-- Node16&#45;&gt;Node9 -->
<g id="edge25_Node000016_Node000009" class="edge">
<title>Node16&#45;&gt;Node9</title>
<g id="a_edge25_Node000016_Node000009"><a xlink:title=" ">
<path fill="none" stroke="#63b8ff" d="M544.79,-604.27C624.93,-624.99 761.66,-655 881.38,-655 1079.38,-655 1079.38,-655 1079.38,-655 1185.23,-655 1306.5,-669.07 1385.25,-680.08"/>
<polygon fill="#63b8ff" stroke="#63b8ff" points="545.89,-600.94 535.33,-601.79 544.11,-607.71 545.89,-600.94"/>
</a>
</g>
</g>
<!-- Node17&#45;&gt;Node6 -->
<g id="edge29_Node000017_Node000006" class="edge">
<title>Node17&#45;&gt;Node6</title>
<g id="a_edge29_Node000017_Node000006"><a xlink:title=" ">
<path fill="none" stroke="#63b8ff" d="M561.21,-52.99C666.69,-47.66 847.01,-49.7 966.5,-137 1037.23,-188.67 1064.99,-297.78 1073.85,-339.58"/>
<polygon fill="#63b8ff" stroke="#63b8ff" points="561.29,-49.48 551.49,-53.51 561.67,-56.47 561.29,-49.48"/>
</a>
</g>
</g>
<!-- Node18 -->
<g id="Node000018" class="node">
<title>Node18</title>
<g id="a_Node000018"><a xlink:href="class_main_window.html#adfa32feecffce3959c99d145fc8b4854" target="_top" xlink:title=" ">
<polygon fill="white" stroke="#666666" points="345.5,-44 200.5,-44 200.5,-24 345.5,-24 345.5,-44"/>
<text xml:space="preserve" text-anchor="middle" x="273" y="-30.5" font-family="Helvetica,sans-Serif" font-size="10.00">MainWindow::connectSignals</text>
</a>
</g>
</g>
<!-- Node17&#45;&gt;Node18 -->
<g id="edge27_Node000017_Node000018" class="edge">
<title>Node17&#45;&gt;Node18</title>
<g id="a_edge27_Node000017_Node000018"><a xlink:title=" ">
<path fill="none" stroke="#63b8ff" d="M388.49,-47.17C374.25,-45.53 359.6,-43.84 345.74,-42.25"/>
<polygon fill="#63b8ff" stroke="#63b8ff" points="387.97,-50.63 398.31,-48.3 388.77,-43.68 387.97,-50.63"/>
</a>
</g>
</g>
<!-- Node19 -->
<g id="Node000019" class="node">
<title>Node19</title>
<g id="a_Node000019"><a xlink:href="class_main_window.html#a996c5a2b6f77944776856f08ec30858d" target="_top" xlink:title=" ">
<polygon fill="white" stroke="#666666" points="146.88,-44 12.38,-44 12.38,-24 146.88,-24 146.88,-44"/>
<text xml:space="preserve" text-anchor="middle" x="79.62" y="-30.5" font-family="Helvetica,sans-Serif" font-size="10.00">MainWindow::MainWindow</text>
</a>
</g>
</g>
<!-- Node18&#45;&gt;Node19 -->
<g id="edge28_Node000018_Node000019" class="edge">
<title>Node18&#45;&gt;Node19</title>
<g id="a_edge28_Node000018_Node000019"><a xlink:title=" ">
<path fill="none" stroke="#63b8ff" d="M189.06,-34C175.05,-34 160.67,-34 147.14,-34"/>
<polygon fill="#63b8ff" stroke="#63b8ff" points="188.68,-37.5 198.68,-34 188.68,-30.5 188.68,-37.5"/>
</a>
</g>
</g>
<!-- Node20&#45;&gt;Node8 -->
<g id="edge31_Node000020_Node000008" class="edge">
<title>Node20&#45;&gt;Node8</title>
<g id="a_edge31_Node000020_Node000008"><a xlink:title=" ">
<path fill="none" stroke="#63b8ff" d="M803.73,-582.52C801.85,-583.62 800.02,-584.78 798.25,-586 745.61,-622.24 706.13,-689.66 689.88,-720.65"/>
<polygon fill="#63b8ff" stroke="#63b8ff" points="804.87,-585.87 812.12,-578.15 801.63,-579.66 804.87,-585.87"/>
</a>
</g>
</g>
<!-- Node21&#45;&gt;Node18 -->
<g id="edge33_Node000021_Node000018" class="edge">
<title>Node21&#45;&gt;Node18</title>
<g id="a_edge33_Node000021_Node000018"><a xlink:title=" ">
<path fill="none" stroke="#63b8ff" d="M786.71,-13.74C664.72,-18.56 455.32,-26.84 345.69,-31.17"/>
<polygon fill="#63b8ff" stroke="#63b8ff" points="786.51,-17.25 796.37,-13.36 786.24,-10.26 786.51,-17.25"/>
</a>
</g>
</g>
<!-- Node22&#45;&gt;Node10 -->
<g id="edge43_Node000022_Node000010" class="edge">
<title>Node22&#45;&gt;Node10</title>
<g id="a_edge43_Node000022_Node000010"><a xlink:title=" ">
<path fill="none" stroke="#63b8ff" d="M804.21,-371.57C747.51,-383.02 668.58,-398.96 599.25,-413 575.71,-417.77 549.64,-423.05 527.57,-427.53"/>
<polygon fill="#63b8ff" stroke="#63b8ff" points="804.65,-375.05 813.76,-369.64 803.27,-368.19 804.65,-375.05"/>
</a>
</g>
</g>
<!-- Node22&#45;&gt;Node12 -->
<g id="edge44_Node000022_Node000012" class="edge">
<title>Node22&#45;&gt;Node12</title>
<g id="a_edge44_Node000022_Node000012"><a xlink:title=" ">
<path fill="none" stroke="#63b8ff" d="M803.94,-362.57C745.79,-364.74 665.17,-361.77 599.25,-337 550.13,-318.54 504.33,-273.66 485.29,-253.32"/>
<polygon fill="#63b8ff" stroke="#63b8ff" points="803.91,-366.08 813.75,-362.14 803.6,-359.09 803.91,-366.08"/>
</a>
</g>
</g>
<!-- Node22&#45;&gt;Node15 -->
<g id="edge45_Node000022_Node000015" class="edge">
<title>Node22&#45;&gt;Node15</title>
<g id="a_edge45_Node000022_Node000015"><a xlink:title=" ">
<path fill="none" stroke="#63b8ff" d="M856.49,-379.9C832.89,-402.18 796.1,-435.96 762.25,-463 740.57,-480.31 714.1,-498.54 697.57,-509.59"/>
<polygon fill="#63b8ff" stroke="#63b8ff" points="858.62,-382.7 863.46,-373.28 853.8,-377.63 858.62,-382.7"/>
</a>
</g>
</g>
<!-- Node22&#45;&gt;Node17 -->
<g id="edge46_Node000022_Node000017" class="edge">
<title>Node22&#45;&gt;Node17</title>
<g id="a_edge46_Node000022_Node000017"><a xlink:title=" ">
<path fill="none" stroke="#63b8ff" d="M859.93,-331.55C837.1,-306.29 799.26,-266.51 762.25,-237 675.5,-167.83 560.82,-102.68 506.73,-73.32"/>
<polygon fill="#63b8ff" stroke="#63b8ff" points="857.06,-333.59 866.34,-338.71 862.27,-328.92 857.06,-333.59"/>
</a>
</g>
</g>
<!-- Node23 -->
<g id="Node000023" class="node">
<title>Node23</title>
<g id="a_Node000023"><a xlink:href="class_main_window.html#a9ed390421f6755b891cfc651d173db7b" target="_top" xlink:title=" ">
<polygon fill="white" stroke="#666666" points="752.5,-328 609,-328 609,-296 752.5,-296 752.5,-328"/>
<text xml:space="preserve" text-anchor="start" x="617" y="-314.5" font-family="Helvetica,sans-Serif" font-size="10.00">MainWindow::handleAttribute</text>
<text xml:space="preserve" text-anchor="middle" x="680.75" y="-302.5" font-family="Helvetica,sans-Serif" font-size="10.00">PropertyChange</text>
</a>
</g>
</g>
<!-- Node22&#45;&gt;Node23 -->
<g id="edge35_Node000022_Node000023" class="edge">
<title>Node22&#45;&gt;Node23</title>
<g id="a_edge35_Node000022_Node000023"><a xlink:title=" ">
<path fill="none" stroke="#63b8ff" d="M804.24,-339C787.35,-335.28 769.55,-331.35 752.91,-327.69"/>
<polygon fill="#63b8ff" stroke="#63b8ff" points="803.18,-342.35 813.7,-341.08 804.69,-335.51 803.18,-342.35"/>
</a>
</g>
</g>
<!-- Node24 -->
<g id="Node000024" class="node">
<title>Node24</title>
<g id="a_Node000024"><a xlink:href="class_main_window.html#aa69c4b7c558b2fb3922adf75af48330a" target="_top" xlink:title=" ">
<polygon fill="white" stroke="#666666" points="761.12,-278 600.38,-278 600.38,-246 761.12,-246 761.12,-278"/>
<text xml:space="preserve" text-anchor="start" x="608.38" y="-264.5" font-family="Helvetica,sans-Serif" font-size="10.00">MainWindow::handleRelationship</text>
<text xml:space="preserve" text-anchor="middle" x="680.75" y="-252.5" font-family="Helvetica,sans-Serif" font-size="10.00">EndCardinalityChange</text>
</a>
</g>
</g>
<!-- Node22&#45;&gt;Node24 -->
<g id="edge39_Node000022_Node000024" class="edge">
<title>Node22&#45;&gt;Node24</title>
<g id="a_edge39_Node000022_Node000024"><a xlink:title=" ">
<path fill="none" stroke="#63b8ff" d="M847.72,-333.77C824.42,-319.08 792.32,-300.18 762.25,-287 755.15,-283.89 747.53,-280.99 739.93,-278.36"/>
<polygon fill="#63b8ff" stroke="#63b8ff" points="845.54,-336.54 855.85,-338.97 849.31,-330.64 845.54,-336.54"/>
</a>
</g>
</g>
<!-- Node25 -->
<g id="Node000025" class="node">
<title>Node25</title>
<g id="a_Node000025"><a xlink:href="class_main_window.html#a96d575a529f7c24b1b5094b4b1e42742" target="_top" xlink:title=" ">
<polygon fill="white" stroke="#666666" points="761.12,-454 600.38,-454 600.38,-422 761.12,-422 761.12,-454"/>
<text xml:space="preserve" text-anchor="start" x="608.38" y="-440.5" font-family="Helvetica,sans-Serif" font-size="10.00">MainWindow::handleRelationship</text>
<text xml:space="preserve" text-anchor="middle" x="680.75" y="-428.5" font-family="Helvetica,sans-Serif" font-size="10.00">EndParticipationChange</text>
</a>
</g>
</g>
<!-- Node22&#45;&gt;Node25 -->
<g id="edge41_Node000022_Node000025" class="edge">
<title>Node22&#45;&gt;Node25</title>
<g id="a_edge41_Node000022_Node000025"><a xlink:title=" ">
<path fill="none" stroke="#63b8ff" d="M834.75,-377.06C812.86,-386.76 786.34,-398.26 762.25,-408 750.91,-412.58 738.58,-417.31 727.05,-421.61"/>
<polygon fill="#63b8ff" stroke="#63b8ff" points="836,-380.33 843.72,-373.07 833.16,-373.94 836,-380.33"/>
</a>
</g>
</g>
<!-- Node23&#45;&gt;Node10 -->
<g id="edge36_Node000023_Node000010" class="edge">
<title>Node23&#45;&gt;Node10</title>
<g id="a_edge36_Node000023_Node000010"><a xlink:title=" ">
<path fill="none" stroke="#63b8ff" d="M643.57,-334.38C599.17,-361.83 525.74,-407.24 492.84,-427.58"/>
<polygon fill="#63b8ff" stroke="#63b8ff" points="645.16,-337.5 651.83,-329.27 641.48,-331.55 645.16,-337.5"/>
</a>
</g>
</g>
<!-- Node23&#45;&gt;Node12 -->
<g id="edge37_Node000023_Node000012" class="edge">
<title>Node23&#45;&gt;Node12</title>
<g id="a_edge37_Node000023_Node000012"><a xlink:title=" ">
<path fill="none" stroke="#63b8ff" d="M615,-292.15C609.67,-290.44 604.36,-288.7 599.25,-287 566.49,-276.07 529.18,-262.61 504.28,-253.47"/>
<polygon fill="#63b8ff" stroke="#63b8ff" points="613.92,-295.48 624.51,-295.18 616.05,-288.81 613.92,-295.48"/>
</a>
</g>
</g>
<!-- Node23&#45;&gt;Node17 -->
<g id="edge38_Node000023_Node000017" class="edge">
<title>Node23&#45;&gt;Node17</title>
<g id="a_edge38_Node000023_Node000017"><a xlink:title=" ">
<path fill="none" stroke="#63b8ff" d="M602.68,-289.65C601.51,-288.8 600.36,-287.92 599.25,-287 594.58,-283.14 511.59,-125.01 484.49,-73.23"/>
<polygon fill="#63b8ff" stroke="#63b8ff" points="600.56,-292.45 610.9,-294.76 604.26,-286.51 600.56,-292.45"/>
</a>
</g>
</g>
<!-- Node24&#45;&gt;Node12 -->
<g id="edge40_Node000024_Node000012" class="edge">
<title>Node24&#45;&gt;Node12</title>
<g id="a_edge40_Node000024_Node000012"><a xlink:title=" ">
<path fill="none" stroke="#63b8ff" d="M588.8,-253.52C580.45,-252.74 572.01,-251.95 563.69,-251.18"/>
<polygon fill="#63b8ff" stroke="#63b8ff" points="588.31,-256.99 598.59,-254.43 588.96,-250.02 588.31,-256.99"/>
</a>
</g>
</g>
<!-- Node25&#45;&gt;Node10 -->
<g id="edge42_Node000025_Node000010" class="edge">
<title>Node25&#45;&gt;Node10</title>
<g id="a_edge42_Node000025_Node000010"><a xlink:title=" ">
<path fill="none" stroke="#63b8ff" d="M588.86,-438C579.93,-438 570.88,-438 561.99,-438"/>
<polygon fill="#63b8ff" stroke="#63b8ff" points="588.59,-441.5 598.59,-438 588.59,-434.5 588.59,-441.5"/>
</a>
</g>
</g>
</g>
</svg>
