<?xml version="1.0" encoding="UTF-8" standalone="no"?>
<!DOCTYPE svg PUBLIC "-//W3C//DTD SVG 1.1//EN"
 "http://www.w3.org/Graphics/SVG/1.1/DTD/svg11.dtd">
<!-- Generated by graphviz version 14.1.1 (20251213.1925)
 -->
<!-- Title: MainWindow::populatePropertiesForElement Pages: 1 -->
<!--zoomable 689 -->

<svg id="main" version="1.1" xmlns="http://www.w3.org/2000/svg" xmlns:xlink="http://www.w3.org/1999/xlink" xml:space="preserve" onload="init(evt)">

<style type="text/css"><![CDATA[
.node, .edge {opacity: 0.7;}
.node.selected, .edge.selected {opacity: 1;}
.edge:hover path { stroke: red; }
.edge:hover polygon { stroke: red; fill: red; }
]]></style>

<defs>
  <circle id="rim" cx="0" cy="0" r="7"/>
  <circle id="rim2" cx="0" cy="0" r="3.5"/>
  <g id="zoomPlus">
    <use xlink:href="#rim" fill="#404040"><set attributeName="fill" to="#808080" begin="zoomplus.mouseover" end="zoomplus.mouseout"/></use>
    <path d="M-4,0h8M0,-4v8" fill="none" stroke="white" stroke-width="1.5" pointer-events="none"/>
  </g>
  <g id="zoomMin">
    <use xlink:href="#rim" fill="#404040"><set attributeName="fill" to="#808080" begin="zoomminus.mouseover" end="zoomminus.mouseout"/></use>
    <path d="M-4,0h8" fill="none" stroke="white" stroke-width="1.5" pointer-events="none"/>
  </g>
  <g id="arrowUp" transform="translate(30 24)">
    <use xlink:href="#rim"/>
    <path pointer-events="none" fill="none" stroke="white" stroke-width="1.5" d="M0,-3.0v7 M-2.5,-0.5L0,-3.0L2.5,-0.5"/>
  </g>
  <g id="arrowRight" transform="rotate(90) translate(36 -43)">
    <use xlink:href="#rim"/>
    <path pointer-events="none" fill="none" stroke="white" stroke-width="1.5" d="M0,-3.0v7 M-2.5,-0.5L0,-3.0L2.5,-0.5"/>
  </g>
  <g id="arrowDown" transform="rotate(180) translate(-30 -48)">
    <use xlink:href="#rim"/>
    <path pointer-events="none" fill="none" stroke="white" stroke-width="1.5" d="M0,-3.0v7 M-2.5,-0.5L0,-3.0L2.5,-0.5"/>
  </g>
  <g id="arrowLeft" transform="rotate(270) translate(-36 17)">
    <use xlink:href="#rim"/>
    <path pointer-events="none" fill="none" stroke="white" stroke-width="1.5" d="M0,-3.0v7 M-2.5,-0.5L0,-3.0L2.5,-0.5"/>
  </g>
  <g id="resetDef">
    <use xlink:href="#rim2" fill="#404040"><set attributeName="fill" to="#808080" begin="reset.mouseover" end="reset.mouseout"/></use>
  </g>
</defs>
<script type="application/ecmascript">
var viewWidth = 1379;
var viewHeight = 689;
var sectionId = 'dynsection-91';
</script>
<script type="application/ecmascript" xlink:href="svg.min.js"/>
<svg id="graph" class="graph">
<g id="viewport">
<title>MainWindow::populatePropertiesForElement</title>
<!-- Node1 -->
<g id="Node000001" class="node">
<title>Node1</title>
<g id="a_Node000001"><a xlink:title=" ">
<polygon fill="#999999" stroke="#666666" points="1371.25,-218.66 1212,-218.66 1212,-186.66 1371.25,-186.66 1371.25,-218.66"/>
<text xml:space="preserve" text-anchor="start" x="1220" y="-205.16" font-family="Helvetica,sans-Serif" font-size="10.00">MainWindow::populateProperties</text>
<text xml:space="preserve" text-anchor="middle" x="1291.62" y="-193.16" font-family="Helvetica,sans-Serif" font-size="10.00">ForElement</text>
</a>
</g>
</g>
<!-- Node2 -->
<g id="Node000002" class="node">
<title>Node2</title>
<g id="a_Node000002"><a xlink:href="class_main_window.html#a5caeae304b10e5cd9f83ef5c6086310b" target="_top" xlink:title=" ">
<polygon fill="white" stroke="#666666" points="1176,-382.66 1024.25,-382.66 1024.25,-350.66 1176,-350.66 1176,-382.66"/>
<text xml:space="preserve" text-anchor="start" x="1032.25" y="-369.16" font-family="Helvetica,sans-Serif" font-size="10.00">MainWindow::updateProperties</text>
<text xml:space="preserve" text-anchor="middle" x="1100.12" y="-357.16" font-family="Helvetica,sans-Serif" font-size="10.00">Panel</text>
</a>
</g>
</g>
<!-- Node1&#45;&gt;Node2 -->
<g id="edge1_Node000001_Node000002" class="edge">
<title>Node1&#45;&gt;Node2</title>
<g id="a_edge1_Node000001_Node000002"><a xlink:title=" ">
<path fill="none" stroke="#63b8ff" d="M1263.49,-226.14C1224.5,-259.89 1153.62,-321.23 1119.91,-350.4"/>
<polygon fill="#63b8ff" stroke="#63b8ff" points="1265.35,-229.17 1270.62,-219.98 1260.77,-223.88 1265.35,-229.17"/>
</a>
</g>
</g>
<!-- Node3 -->
<g id="Node000003" class="node">
<title>Node3</title>
<g id="a_Node000003"><a xlink:href="class_main_window.html#ad34ae0349abf41aa739b75b85df74126" target="_top" xlink:title=" ">
<polygon fill="white" stroke="#666666" points="975.5,-98.66 832.75,-98.66 832.75,-66.66 975.5,-66.66 975.5,-98.66"/>
<text xml:space="preserve" text-anchor="start" x="840.75" y="-85.16" font-family="Helvetica,sans-Serif" font-size="10.00">MainWindow::onAddAttribute</text>
<text xml:space="preserve" text-anchor="middle" x="904.12" y="-73.16" font-family="Helvetica,sans-Serif" font-size="10.00">OnTreeClicked</text>
</a>
</g>
</g>
<!-- Node2&#45;&gt;Node3 -->
<g id="edge2_Node000002_Node000003" class="edge">
<title>Node2&#45;&gt;Node3</title>
<g id="a_edge2_Node000002_Node000003"><a xlink:title=" ">
<path fill="none" stroke="#63b8ff" d="M1095.14,-339.11C1086.04,-286.35 1058.8,-170.7 988.25,-107.66 984.43,-104.25 980.16,-101.3 975.62,-98.76"/>
<polygon fill="#63b8ff" stroke="#63b8ff" points="1091.64,-339.44 1096.7,-348.75 1098.55,-338.31 1091.64,-339.44"/>
</a>
</g>
</g>
<!-- Node9 -->
<g id="Node000009" class="node">
<title>Node9</title>
<g id="a_Node000009"><a xlink:href="class_main_window.html#a47fd0b86ddb5829e3b0cb15908671670" target="_top" xlink:title=" ">
<polygon fill="white" stroke="#666666" points="583.5,-206.66 410,-206.66 410,-186.66 583.5,-186.66 583.5,-206.66"/>
<text xml:space="preserve" text-anchor="middle" x="496.75" y="-193.16" font-family="Helvetica,sans-Serif" font-size="10.00">MainWindow::onCheckBoxChanged</text>
</a>
</g>
</g>
<!-- Node2&#45;&gt;Node9 -->
<g id="edge15_Node000002_Node000009" class="edge">
<title>Node2&#45;&gt;Node9</title>
<g id="a_edge15_Node000002_Node000009"><a xlink:title=" ">
<path fill="none" stroke="#63b8ff" d="M1072.53,-342.82C1021.22,-298.63 903.11,-205.45 784,-171.66 694.97,-146.41 584.67,-170.88 530.67,-186.27"/>
<polygon fill="#63b8ff" stroke="#63b8ff" points="1070.05,-345.31 1079.89,-349.23 1074.65,-340.03 1070.05,-345.31"/>
</a>
</g>
</g>
<!-- Node11 -->
<g id="Node000011" class="node">
<title>Node11</title>
<g id="a_Node000011"><a xlink:href="class_main_window.html#ac1e0c79708cf9aa9b7ca1a87697e5b34" target="_top" xlink:title=" ">
<polygon fill="white" stroke="#666666" points="585,-338.66 408.5,-338.66 408.5,-318.66 585,-318.66 585,-338.66"/>
<text xml:space="preserve" text-anchor="middle" x="496.75" y="-325.16" font-family="Helvetica,sans-Serif" font-size="10.00">MainWindow::onComboBoxChanged</text>
</a>
</g>
</g>
<!-- Node2&#45;&gt;Node11 -->
<g id="edge19_Node000002_Node000011" class="edge">
<title>Node2&#45;&gt;Node11</title>
<g id="a_edge19_Node000002_Node000011"><a xlink:title=" ">
<path fill="none" stroke="#63b8ff" d="M1036.96,-347.02C945.85,-320.65 770.61,-279.14 621,-297.66 589.58,-301.55 554.66,-310.82 530.03,-318.22"/>
<polygon fill="#63b8ff" stroke="#63b8ff" points="1035.88,-350.35 1046.47,-349.8 1037.86,-343.63 1035.88,-350.35"/>
</a>
</g>
</g>
<!-- Node15 -->
<g id="Node000015" class="node">
<title>Node15</title>
<g id="a_Node000015"><a xlink:href="class_main_window.html#a0e7ca45ac830893108871185dda813a4" target="_top" xlink:title=" ">
<polygon fill="white" stroke="#666666" points="784,-464.66 621,-464.66 621,-444.66 784,-444.66 784,-464.66"/>
<text xml:space="preserve" text-anchor="middle" x="702.5" y="-451.16" font-family="Helvetica,sans-Serif" font-size="10.00">MainWindow::onLineEditChanged</text>
</a>
</g>
</g>
<!-- Node2&#45;&gt;Node15 -->
<g id="edge26_Node000002_Node000015" class="edge">
<title>Node2&#45;&gt;Node15</title>
<g id="a_edge26_Node000002_Node000015"><a xlink:title=" ">
<path fill="none" stroke="#63b8ff" d="M1015.29,-385.6C1006.16,-387.65 997.01,-389.71 988.25,-391.66 904.86,-410.29 807.68,-431.73 751.12,-444.19"/>
<polygon fill="#63b8ff" stroke="#63b8ff" points="1015.91,-389.05 1024.9,-383.44 1014.37,-382.22 1015.91,-389.05"/>
</a>
</g>
</g>
<!-- Node17 -->
<g id="Node000017" class="node">
<title>Node17</title>
<g id="a_Node000017"><a xlink:href="class_main_window.html#a1043995538765eae993ae75217c482e7" target="_top" xlink:title=" ">
<polygon fill="white" stroke="#666666" points="571.5,-555.66 422,-555.66 422,-523.66 571.5,-523.66 571.5,-555.66"/>
<text xml:space="preserve" text-anchor="start" x="430" y="-542.16" font-family="Helvetica,sans-Serif" font-size="10.00">MainWindow::onPropertyValue</text>
<text xml:space="preserve" text-anchor="middle" x="496.75" y="-530.16" font-family="Helvetica,sans-Serif" font-size="10.00">Changed</text>
</a>
</g>
</g>
<!-- Node2&#45;&gt;Node17 -->
<g id="edge29_Node000002_Node000017" class="edge">
<title>Node2&#45;&gt;Node17</title>
<g id="a_edge29_Node000002_Node000017"><a xlink:title=" ">
<path fill="none" stroke="#63b8ff" d="M1043.15,-388.02C1025.71,-396.62 1006.32,-406.32 988.25,-414.66 899.13,-455.81 879.09,-474.31 784,-498.66 713.27,-516.78 630.12,-524.64 571.71,-529.72"/>
<polygon fill="#63b8ff" stroke="#63b8ff" points="1044.37,-391.32 1051.8,-383.78 1041.28,-385.04 1044.37,-391.32"/>
</a>
</g>
</g>
<!-- Node20 -->
<g id="Node000020" class="node">
<title>Node20</title>
<g id="a_Node000020"><a xlink:href="class_main_window.html#a95674d4bfc5fc2aad6df1601f23b1793" target="_top" xlink:title=" ">
<polygon fill="white" stroke="#666666" points="985.25,-148.66 823,-148.66 823,-116.66 985.25,-116.66 985.25,-148.66"/>
<text xml:space="preserve" text-anchor="start" x="831" y="-135.16" font-family="Helvetica,sans-Serif" font-size="10.00">MainWindow::onRemoveAttribute</text>
<text xml:space="preserve" text-anchor="middle" x="904.12" y="-123.16" font-family="Helvetica,sans-Serif" font-size="10.00">OnTreeClicked</text>
</a>
</g>
</g>
<!-- Node2&#45;&gt;Node20 -->
<g id="edge33_Node000002_Node000020" class="edge">
<title>Node2&#45;&gt;Node20</title>
<g id="a_edge33_Node000002_Node000020"><a xlink:title=" ">
<path fill="none" stroke="#63b8ff" d="M1091.33,-339.53C1077.54,-296.18 1044.83,-211.26 988.25,-162.66 981.97,-157.27 974.63,-152.81 966.98,-149.14"/>
<polygon fill="#63b8ff" stroke="#63b8ff" points="1087.93,-340.36 1094.21,-348.9 1094.62,-338.31 1087.93,-340.36"/>
</a>
</g>
</g>
<!-- Node21 -->
<g id="Node000021" class="node">
<title>Node21</title>
<g id="a_Node000021"><a xlink:href="class_main_window.html#a44791b85064ecff42c12429c6667e83b" target="_top" xlink:title=" ">
<polygon fill="white" stroke="#666666" points="988.25,-596.66 820,-596.66 820,-576.66 988.25,-576.66 988.25,-596.66"/>
<text xml:space="preserve" text-anchor="middle" x="904.12" y="-583.16" font-family="Helvetica,sans-Serif" font-size="10.00">MainWindow::onSelectionChanged</text>
</a>
</g>
</g>
<!-- Node2&#45;&gt;Node21 -->
<g id="edge35_Node000002_Node000021" class="edge">
<title>Node2&#45;&gt;Node21</title>
<g id="a_edge35_Node000002_Node000021"><a xlink:title=" ">
<path fill="none" stroke="#63b8ff" d="M1091.18,-393.75C1077.35,-436.17 1044.76,-518.03 988.25,-562.66 980.82,-568.53 972.02,-572.96 962.96,-576.31"/>
<polygon fill="#63b8ff" stroke="#63b8ff" points="1094.48,-394.92 1094.14,-384.34 1087.8,-392.83 1094.48,-394.92"/>
</a>
</g>
</g>
<!-- Node22 -->
<g id="Node000022" class="node">
<title>Node22</title>
<g id="a_Node000022"><a xlink:href="class_main_window.html#af380eeda83d30cd1ecb1419cfd5161d7" target="_top" xlink:title=" ">
<polygon fill="white" stroke="#666666" points="971,-382.66 837.25,-382.66 837.25,-350.66 971,-350.66 971,-382.66"/>
<text xml:space="preserve" text-anchor="start" x="845.25" y="-369.16" font-family="Helvetica,sans-Serif" font-size="10.00">MainWindow::updatesAfter</text>
<text xml:space="preserve" text-anchor="middle" x="904.12" y="-357.16" font-family="Helvetica,sans-Serif" font-size="10.00">ChangingProperty</text>
</a>
</g>
</g>
<!-- Node2&#45;&gt;Node22 -->
<g id="edge37_Node000002_Node000022" class="edge">
<title>Node2&#45;&gt;Node22</title>
<g id="a_edge37_Node000002_Node000022"><a xlink:title=" ">
<path fill="none" stroke="#63b8ff" d="M1012.33,-366.66C998.52,-366.66 984.44,-366.66 971.21,-366.66"/>
<polygon fill="#63b8ff" stroke="#63b8ff" points="1012.33,-370.16 1022.33,-366.66 1012.33,-363.16 1012.33,-370.16"/>
</a>
</g>
</g>
<!-- Node4 -->
<g id="Node000004" class="node">
<title>Node4</title>
<g id="a_Node000004"><a xlink:href="class_main_window.html#a6fd05e9f951dd6e7c2cd6ca815ef9d71" target="_top" xlink:title=" ">
<polygon fill="white" stroke="#666666" points="563.62,-130.66 429.88,-130.66 429.88,-98.66 563.62,-98.66 563.62,-130.66"/>
<text xml:space="preserve" text-anchor="start" x="437.88" y="-117.16" font-family="Helvetica,sans-Serif" font-size="10.00">MainWindow::createButton</text>
<text xml:space="preserve" text-anchor="middle" x="496.75" y="-105.16" font-family="Helvetica,sans-Serif" font-size="10.00">PropertyItem</text>
</a>
</g>
</g>
<!-- Node3&#45;&gt;Node4 -->
<g id="edge3_Node000003_Node000004" class="edge">
<title>Node3&#45;&gt;Node4</title>
<g id="a_edge3_Node000003_Node000004"><a xlink:title=" ">
<path fill="none" stroke="#63b8ff" d="M821.13,-89.14C745.34,-95.12 634.12,-103.9 563.86,-109.44"/>
<polygon fill="#63b8ff" stroke="#63b8ff" points="821.31,-92.63 831.01,-88.36 820.76,-85.65 821.31,-92.63"/>
</a>
</g>
</g>
<!-- Node5 -->
<g id="Node000005" class="node">
<title>Node5</title>
<g id="a_Node000005"><a xlink:href="class_main_window.html#a697154cf7839e00c607134c2a4e018cf" target="_top" xlink:title=" ">
<polygon fill="white" stroke="#666666" points="372.5,-162.66 205,-162.66 205,-142.66 372.5,-142.66 372.5,-162.66"/>
<text xml:space="preserve" text-anchor="middle" x="288.75" y="-149.16" font-family="Helvetica,sans-Serif" font-size="10.00">MainWindow::populateAttributeList</text>
</a>
</g>
</g>
<!-- Node4&#45;&gt;Node5 -->
<g id="edge4_Node000004_Node000005" class="edge">
<title>Node4&#45;&gt;Node5</title>
<g id="a_edge4_Node000004_Node000005"><a xlink:title=" ">
<path fill="none" stroke="#63b8ff" d="M418.3,-128.95C394.49,-133.34 368.75,-138.09 346.59,-142.18"/>
<polygon fill="#63b8ff" stroke="#63b8ff" points="418.75,-132.43 427.95,-127.17 417.48,-125.54 418.75,-132.43"/>
</a>
</g>
</g>
<!-- Node6 -->
<g id="Node000006" class="node">
<title>Node6</title>
<g id="a_Node000006"><a xlink:href="class_main_window.html#a3aa4112f20ad25eb3ad78fd354ba7de2" target="_top" xlink:title=" ">
<polygon fill="white" stroke="#666666" points="160.38,-168.66 8.62,-168.66 8.62,-136.66 160.38,-136.66 160.38,-168.66"/>
<text xml:space="preserve" text-anchor="start" x="16.62" y="-155.16" font-family="Helvetica,sans-Serif" font-size="10.00">MainWindow::populateAttribute</text>
<text xml:space="preserve" text-anchor="middle" x="84.5" y="-143.16" font-family="Helvetica,sans-Serif" font-size="10.00">Properties</text>
</a>
</g>
</g>
<!-- Node4&#45;&gt;Node6 -->
<g id="edge12_Node000004_Node000006" class="edge">
<title>Node4&#45;&gt;Node6</title>
<g id="a_edge12_Node000004_Node000006"><a xlink:title=" ">
<path fill="none" stroke="#63b8ff" d="M418.08,-117.79C359.42,-120.62 276.99,-125.61 205,-133.66 190.6,-135.28 175.27,-137.4 160.58,-139.64"/>
<polygon fill="#63b8ff" stroke="#63b8ff" points="418.15,-121.29 427.98,-117.32 417.82,-114.29 418.15,-121.29"/>
</a>
</g>
</g>
<!-- Node7 -->
<g id="Node000007" class="node">
<title>Node7</title>
<g id="a_Node000007"><a xlink:href="class_main_window.html#a40023e3590f2593fd133a6b111f63ed9" target="_top" xlink:title=" ">
<polygon fill="white" stroke="#666666" points="154.75,-92.66 14.25,-92.66 14.25,-60.66 154.75,-60.66 154.75,-92.66"/>
<text xml:space="preserve" text-anchor="start" x="22.25" y="-79.16" font-family="Helvetica,sans-Serif" font-size="10.00">MainWindow::populateEntity</text>
<text xml:space="preserve" text-anchor="middle" x="84.5" y="-67.16" font-family="Helvetica,sans-Serif" font-size="10.00">Properties</text>
</a>
</g>
</g>
<!-- Node4&#45;&gt;Node7 -->
<g id="edge13_Node000004_Node000007" class="edge">
<title>Node4&#45;&gt;Node7</title>
<g id="a_edge13_Node000004_Node000007"><a xlink:title=" ">
<path fill="none" stroke="#63b8ff" d="M418.03,-107.46C342.26,-100.45 228.11,-89.87 155.21,-83.12"/>
<polygon fill="#63b8ff" stroke="#63b8ff" points="417.59,-110.94 427.87,-108.38 418.24,-103.97 417.59,-110.94"/>
</a>
</g>
</g>
<!-- Node8 -->
<g id="Node000008" class="node">
<title>Node8</title>
<g id="a_Node000008"><a xlink:href="class_main_window.html#a1049a5796ac248f40a3b4110ed5faf77" target="_top" xlink:title=" ">
<polygon fill="white" stroke="#666666" points="169,-284.66 0,-284.66 0,-252.66 169,-252.66 169,-284.66"/>
<text xml:space="preserve" text-anchor="start" x="8" y="-271.16" font-family="Helvetica,sans-Serif" font-size="10.00">MainWindow::populateRelationship</text>
<text xml:space="preserve" text-anchor="middle" x="84.5" y="-259.16" font-family="Helvetica,sans-Serif" font-size="10.00">Properties</text>
</a>
</g>
</g>
<!-- Node4&#45;&gt;Node8 -->
<g id="edge14_Node000004_Node000008" class="edge">
<title>Node4&#45;&gt;Node8</title>
<g id="a_edge14_Node000004_Node000008"><a xlink:title=" ">
<path fill="none" stroke="#63b8ff" d="M455.36,-136.77C439.01,-147.36 421.07,-161.32 408.5,-177.66 381.23,-213.13 409.36,-246.31 372.5,-271.66 301.89,-320.23 196.6,-302.18 135.11,-285.11"/>
<polygon fill="#63b8ff" stroke="#63b8ff" points="456.82,-139.98 463.47,-131.73 453.13,-134.04 456.82,-139.98"/>
</a>
</g>
</g>
<!-- Node5&#45;&gt;Node6 -->
<g id="edge5_Node000005_Node000006" class="edge">
<title>Node5&#45;&gt;Node6</title>
<g id="a_edge5_Node000005_Node000006"><a xlink:title=" ">
<path fill="none" stroke="#63b8ff" d="M193.32,-145.93C182.44,-145.88 171.44,-145.95 160.85,-146.11"/>
<polygon fill="#63b8ff" stroke="#63b8ff" points="193.07,-149.42 203.1,-146 193.12,-142.42 193.07,-149.42"/>
</a>
</g>
</g>
<!-- Node5&#45;&gt;Node7 -->
<g id="edge8_Node000005_Node000007" class="edge">
<title>Node5&#45;&gt;Node7</title>
<g id="a_edge8_Node000005_Node000007"><a xlink:title=" ">
<path fill="none" stroke="#63b8ff" d="M249.52,-138.3C215.25,-125.42 164.99,-106.53 129.14,-93.06"/>
<polygon fill="#63b8ff" stroke="#63b8ff" points="248.04,-141.48 258.64,-141.72 250.51,-134.93 248.04,-141.48"/>
</a>
</g>
</g>
<!-- Node5&#45;&gt;Node8 -->
<g id="edge10_Node000005_Node000008" class="edge">
<title>Node5&#45;&gt;Node8</title>
<g id="a_edge10_Node000005_Node000008"><a xlink:title=" ">
<path fill="none" stroke="#63b8ff" d="M216.65,-166.7C212.64,-168.2 208.73,-169.84 205,-171.66 162.73,-192.28 122.1,-230.4 100.83,-252.21"/>
<polygon fill="#63b8ff" stroke="#63b8ff" points="217.61,-170.07 225.98,-163.58 215.39,-163.43 217.61,-170.07"/>
</a>
</g>
</g>
<!-- Node6&#45;&gt;Node1 -->
<g id="edge7_Node000006_Node000001" class="edge">
<title>Node6&#45;&gt;Node1</title>
<g id="a_edge7_Node000006_Node000001"><a xlink:title=" ">
<path fill="none" stroke="#63b8ff" d="M130.36,-131.55C204.62,-98.6 358.53,-38.66 495.75,-38.66 905.12,-38.66 905.12,-38.66 905.12,-38.66 1054.95,-38.66 1213.27,-144.86 1269.4,-186.34"/>
<polygon fill="#63b8ff" stroke="#63b8ff" points="129.06,-128.3 121.37,-135.59 131.93,-134.68 129.06,-128.3"/>
</a>
</g>
</g>
<!-- Node6&#45;&gt;Node5 -->
<g id="edge6_Node000006_Node000005" class="edge">
<title>Node6&#45;&gt;Node5</title>
<g id="a_edge6_Node000006_Node000005"><a xlink:title=" ">
<path fill="none" stroke="#63b8ff" d="M172.36,-159.35C183.05,-159.44 193.97,-159.43 204.61,-159.32"/>
<polygon fill="#63b8ff" stroke="#63b8ff" points="172.41,-155.85 162.37,-159.23 172.33,-162.85 172.41,-155.85"/>
</a>
</g>
</g>
<!-- Node7&#45;&gt;Node1 -->
<g id="edge9_Node000007_Node000001" class="edge">
<title>Node7&#45;&gt;Node1</title>
<g id="a_edge9_Node000007_Node000001"><a xlink:title=" ">
<path fill="none" stroke="#63b8ff" d="M150.24,-57.08C230.52,-34.56 371.91,-0.66 495.75,-0.66 905.12,-0.66 905.12,-0.66 905.12,-0.66 1027.88,-0.66 1071.62,9.95 1176,-54.66 1229.33,-87.68 1267.4,-155.03 1282.91,-186.18"/>
<polygon fill="#63b8ff" stroke="#63b8ff" points="149.45,-53.66 140.78,-59.76 151.36,-60.4 149.45,-53.66"/>
</a>
</g>
</g>
<!-- Node8&#45;&gt;Node1 -->
<g id="edge11_Node000008_Node000001" class="edge">
<title>Node8&#45;&gt;Node1</title>
<g id="a_edge11_Node000008_Node000001"><a xlink:title=" ">
<path fill="none" stroke="#63b8ff" d="M103.52,-294.22C122.5,-322.26 151.93,-369.23 169,-413.66 196.38,-484.95 149.3,-529.43 205,-581.66 300.29,-671.02 365.12,-624.66 495.75,-624.66 905.12,-624.66 905.12,-624.66 905.12,-624.66 1129.14,-624.66 1257.84,-296.5 1285.13,-218.95"/>
<polygon fill="#63b8ff" stroke="#63b8ff" points="106.45,-292.29 97.91,-286.03 100.68,-296.25 106.45,-292.29"/>
</a>
</g>
</g>
<!-- Node10 -->
<g id="Node000010" class="node">
<title>Node10</title>
<g id="a_Node000010"><a xlink:href="class_main_window.html#a44aaf7bb6d9a56f53b8a7a9e4fc29f8c" target="_top" xlink:title=" ">
<polygon fill="white" stroke="#666666" points="364.25,-212.66 213.25,-212.66 213.25,-180.66 364.25,-180.66 364.25,-212.66"/>
<text xml:space="preserve" text-anchor="start" x="221.25" y="-199.16" font-family="Helvetica,sans-Serif" font-size="10.00">MainWindow::createCheckBox</text>
<text xml:space="preserve" text-anchor="middle" x="288.75" y="-187.16" font-family="Helvetica,sans-Serif" font-size="10.00">PropertyItem</text>
</a>
</g>
</g>
<!-- Node9&#45;&gt;Node10 -->
<g id="edge16_Node000009_Node000010" class="edge">
<title>Node9&#45;&gt;Node10</title>
<g id="a_edge16_Node000009_Node000010"><a xlink:title=" ">
<path fill="none" stroke="#63b8ff" d="M398.26,-196.66C386.9,-196.66 375.44,-196.66 364.45,-196.66"/>
<polygon fill="#63b8ff" stroke="#63b8ff" points="398.07,-200.16 408.07,-196.66 398.07,-193.16 398.07,-200.16"/>
</a>
</g>
</g>
<!-- Node10&#45;&gt;Node6 -->
<g id="edge17_Node000010_Node000006" class="edge">
<title>Node10&#45;&gt;Node6</title>
<g id="a_edge17_Node000010_Node000006"><a xlink:title=" ">
<path fill="none" stroke="#63b8ff" d="M202.07,-178.02C188.29,-175.02 174.11,-171.94 160.6,-169"/>
<polygon fill="#63b8ff" stroke="#63b8ff" points="201.02,-181.38 211.54,-180.08 202.51,-174.54 201.02,-181.38"/>
</a>
</g>
</g>
<!-- Node10&#45;&gt;Node8 -->
<g id="edge18_Node000010_Node000008" class="edge">
<title>Node10&#45;&gt;Node8</title>
<g id="a_edge18_Node000010_Node000008"><a xlink:title=" ">
<path fill="none" stroke="#63b8ff" d="M220.33,-216.53C215.12,-218.22 209.97,-219.94 205,-221.66 178.04,-231.02 148.17,-242.77 125.03,-252.18"/>
<polygon fill="#63b8ff" stroke="#63b8ff" points="221.11,-219.96 229.58,-213.59 218.99,-213.29 221.11,-219.96"/>
</a>
</g>
</g>
<!-- Node12 -->
<g id="Node000012" class="node">
<title>Node12</title>
<g id="a_Node000012"><a xlink:href="class_main_window.html#a872e6a76dcbf858ae9d483eceddf90e1" target="_top" xlink:title=" ">
<polygon fill="white" stroke="#666666" points="365.75,-262.66 211.75,-262.66 211.75,-230.66 365.75,-230.66 365.75,-262.66"/>
<text xml:space="preserve" text-anchor="start" x="219.75" y="-249.16" font-family="Helvetica,sans-Serif" font-size="10.00">MainWindow::createComboBox</text>
<text xml:space="preserve" text-anchor="middle" x="288.75" y="-237.16" font-family="Helvetica,sans-Serif" font-size="10.00">PropertyItem</text>
</a>
</g>
</g>
<!-- Node11&#45;&gt;Node12 -->
<g id="edge20_Node000011_Node000012" class="edge">
<title>Node11&#45;&gt;Node12</title>
<g id="a_edge20_Node000011_Node000012"><a xlink:title=" ">
<path fill="none" stroke="#63b8ff" d="M459.14,-314.09C423.17,-299.77 368.37,-277.96 330.9,-263.04"/>
<polygon fill="#63b8ff" stroke="#63b8ff" points="457.67,-317.27 468.25,-317.72 460.26,-310.77 457.67,-317.27"/>
</a>
</g>
</g>
<!-- Node13 -->
<g id="Node000013" class="node">
<title>Node13</title>
<g id="a_Node000013"><a xlink:href="class_main_window.html#abae03a6494d13d74ed1b2e31ec1f2fc7" target="_top" xlink:title=" ">
<polygon fill="white" stroke="#666666" points="366.5,-369.66 211,-369.66 211,-337.66 366.5,-337.66 366.5,-369.66"/>
<text xml:space="preserve" text-anchor="start" x="219" y="-356.16" font-family="Helvetica,sans-Serif" font-size="10.00">MainWindow::createIconCombo</text>
<text xml:space="preserve" text-anchor="middle" x="288.75" y="-344.16" font-family="Helvetica,sans-Serif" font-size="10.00">BoxPropertyItem</text>
</a>
</g>
</g>
<!-- Node11&#45;&gt;Node13 -->
<g id="edge23_Node000011_Node000013" class="edge">
<title>Node11&#45;&gt;Node13</title>
<g id="a_edge23_Node000011_Node000013"><a xlink:title=" ">
<path fill="none" stroke="#63b8ff" d="M397.98,-340.53C387.52,-341.8 376.99,-343.08 366.82,-344.31"/>
<polygon fill="#63b8ff" stroke="#63b8ff" points="398.27,-344.02 407.78,-339.34 397.43,-337.07 398.27,-344.02"/>
</a>
</g>
</g>
<!-- Node12&#45;&gt;Node6 -->
<g id="edge21_Node000012_Node000006" class="edge">
<title>Node12&#45;&gt;Node6</title>
<g id="a_edge21_Node000012_Node000006"><a xlink:title=" ">
<path fill="none" stroke="#63b8ff" d="M216.77,-226.41C212.75,-224.89 208.8,-223.31 205,-221.66 170.48,-206.72 133.36,-184.16 109.81,-168.94"/>
<polygon fill="#63b8ff" stroke="#63b8ff" points="215.48,-229.66 226.07,-229.73 217.84,-223.07 215.48,-229.66"/>
</a>
</g>
</g>
<!-- Node12&#45;&gt;Node8 -->
<g id="edge22_Node000012_Node000008" class="edge">
<title>Node12&#45;&gt;Node8</title>
<g id="a_edge22_Node000012_Node000008"><a xlink:title=" ">
<path fill="none" stroke="#63b8ff" d="M199.88,-256.22C189.68,-257.33 179.31,-258.46 169.17,-259.56"/>
<polygon fill="#63b8ff" stroke="#63b8ff" points="200.22,-259.71 209.78,-255.14 199.46,-252.75 200.22,-259.71"/>
</a>
</g>
</g>
<!-- Node14 -->
<g id="Node000014" class="node">
<title>Node14</title>
<g id="a_Node000014"><a xlink:href="class_main_window.html#af02df1238ccf49caa1c4099c88dfe465" target="_top" xlink:title=" ">
<polygon fill="white" stroke="#666666" points="164.12,-454.66 4.88,-454.66 4.88,-422.66 164.12,-422.66 164.12,-454.66"/>
<text xml:space="preserve" text-anchor="start" x="12.88" y="-441.16" font-family="Helvetica,sans-Serif" font-size="10.00">MainWindow::populateProperties</text>
<text xml:space="preserve" text-anchor="middle" x="84.5" y="-429.16" font-family="Helvetica,sans-Serif" font-size="10.00">ForConnection</text>
</a>
</g>
</g>
<!-- Node13&#45;&gt;Node14 -->
<g id="edge24_Node000013_Node000014" class="edge">
<title>Node13&#45;&gt;Node14</title>
<g id="a_edge24_Node000013_Node000014"><a xlink:title=" ">
<path fill="none" stroke="#63b8ff" d="M238.3,-374.45C203.35,-389.14 157.14,-408.56 124.72,-422.18"/>
<polygon fill="#63b8ff" stroke="#63b8ff" points="239.5,-377.74 247.36,-370.64 236.78,-371.29 239.5,-377.74"/>
</a>
</g>
</g>
<!-- Node14&#45;&gt;Node2 -->
<g id="edge25_Node000014_Node000002" class="edge">
<title>Node14&#45;&gt;Node2</title>
<g id="a_edge25_Node000014_Node000002"><a xlink:title=" ">
<path fill="none" stroke="#63b8ff" d="M108.74,-463.28C126.98,-483.61 152.05,-513.86 169,-543.66 191.32,-582.91 168.93,-611.5 205,-638.66 308.58,-716.66 366.09,-662.66 495.75,-662.66 703.5,-662.66 703.5,-662.66 703.5,-662.66 832.57,-662.66 886.85,-685.51 988.25,-605.66 1062.64,-547.09 1089.22,-426.98 1096.67,-383.14"/>
<polygon fill="#63b8ff" stroke="#63b8ff" points="111.48,-461.1 102.16,-456.06 106.31,-465.81 111.48,-461.1"/>
</a>
</g>
</g>
<!-- Node16 -->
<g id="Node000016" class="node">
<title>Node16</title>
<g id="a_Node000016"><a xlink:href="class_main_window.html#ae3b6600dd59da1822ef94bbd5f37f0cc" target="_top" xlink:title=" ">
<polygon fill="white" stroke="#666666" points="567,-432.66 426.5,-432.66 426.5,-400.66 567,-400.66 567,-432.66"/>
<text xml:space="preserve" text-anchor="start" x="434.5" y="-419.16" font-family="Helvetica,sans-Serif" font-size="10.00">MainWindow::createLineEdit</text>
<text xml:space="preserve" text-anchor="middle" x="496.75" y="-407.16" font-family="Helvetica,sans-Serif" font-size="10.00">PropertyItem</text>
</a>
</g>
</g>
<!-- Node15&#45;&gt;Node16 -->
<g id="edge27_Node000015_Node000016" class="edge">
<title>Node15&#45;&gt;Node16</title>
<g id="a_edge27_Node000015_Node000016"><a xlink:title=" ">
<path fill="none" stroke="#63b8ff" d="M633.97,-442.07C612.54,-438.07 588.8,-433.64 567.22,-429.62"/>
<polygon fill="#63b8ff" stroke="#63b8ff" points="633.32,-445.51 643.8,-443.9 634.61,-438.63 633.32,-445.51"/>
</a>
</g>
</g>
<!-- Node16&#45;&gt;Node8 -->
<g id="edge28_Node000016_Node000008" class="edge">
<title>Node16&#45;&gt;Node8</title>
<g id="a_edge28_Node000016_Node000008"><a xlink:title=" ">
<path fill="none" stroke="#63b8ff" d="M414.7,-419C354.26,-417.75 271.08,-409.53 205,-378.66 158.25,-356.82 117.27,-310 97.7,-285.07"/>
<polygon fill="#63b8ff" stroke="#63b8ff" points="414.53,-422.5 424.58,-419.14 414.63,-415.5 414.53,-422.5"/>
</a>
</g>
</g>
<!-- Node17&#45;&gt;Node2 -->
<g id="edge32_Node000017_Node000002" class="edge">
<title>Node17&#45;&gt;Node2</title>
<g id="a_edge32_Node000017_Node000002"><a xlink:title=" ">
<path fill="none" stroke="#63b8ff" d="M582.94,-543.98C640.46,-541.62 717.7,-533.65 784,-516.66 879.09,-492.31 899.13,-473.81 988.25,-432.66 1021.46,-417.33 1059.14,-397.4 1080.92,-383.04"/>
<polygon fill="#63b8ff" stroke="#63b8ff" points="583.09,-540.47 573.22,-544.33 583.34,-547.47 583.09,-540.47"/>
</a>
</g>
</g>
<!-- Node18 -->
<g id="Node000018" class="node">
<title>Node18</title>
<g id="a_Node000018"><a xlink:href="class_main_window.html#adfa32feecffce3959c99d145fc8b4854" target="_top" xlink:title=" ">
<polygon fill="white" stroke="#666666" points="361.25,-572.66 216.25,-572.66 216.25,-552.66 361.25,-552.66 361.25,-572.66"/>
<text xml:space="preserve" text-anchor="middle" x="288.75" y="-559.16" font-family="Helvetica,sans-Serif" font-size="10.00">MainWindow::connectSignals</text>
</a>
</g>
</g>
<!-- Node17&#45;&gt;Node18 -->
<g id="edge30_Node000017_Node000018" class="edge">
<title>Node17&#45;&gt;Node18</title>
<g id="a_edge30_Node000017_Node000018"><a xlink:title=" ">
<path fill="none" stroke="#63b8ff" d="M410.5,-549.18C394.2,-551 377.28,-552.89 361.45,-554.66"/>
<polygon fill="#63b8ff" stroke="#63b8ff" points="410.62,-552.69 420.17,-548.1 409.84,-545.73 410.62,-552.69"/>
</a>
</g>
</g>
<!-- Node19 -->
<g id="Node000019" class="node">
<title>Node19</title>
<g id="a_Node000019"><a xlink:href="class_main_window.html#a996c5a2b6f77944776856f08ec30858d" target="_top" xlink:title=" ">
<polygon fill="white" stroke="#666666" points="151.75,-572.66 17.25,-572.66 17.25,-552.66 151.75,-552.66 151.75,-572.66"/>
<text xml:space="preserve" text-anchor="middle" x="84.5" y="-559.16" font-family="Helvetica,sans-Serif" font-size="10.00">MainWindow::MainWindow</text>
</a>
</g>
</g>
<!-- Node18&#45;&gt;Node19 -->
<g id="edge31_Node000018_Node000019" class="edge">
<title>Node18&#45;&gt;Node19</title>
<g id="a_edge31_Node000018_Node000019"><a xlink:title=" ">
<path fill="none" stroke="#63b8ff" d="M204.52,-562.66C187.05,-562.66 168.84,-562.66 152.08,-562.66"/>
<polygon fill="#63b8ff" stroke="#63b8ff" points="204.36,-566.16 214.36,-562.66 204.36,-559.16 204.36,-566.16"/>
</a>
</g>
</g>
<!-- Node20&#45;&gt;Node4 -->
<g id="edge34_Node000020_Node000004" class="edge">
<title>Node20&#45;&gt;Node4</title>
<g id="a_edge34_Node000020_Node000004"><a xlink:title=" ">
<path fill="none" stroke="#63b8ff" d="M811.21,-128.58C735.98,-125.24 631.37,-120.6 564.1,-117.61"/>
<polygon fill="#63b8ff" stroke="#63b8ff" points="810.89,-132.07 821.04,-129.02 811.2,-125.08 810.89,-132.07"/>
</a>
</g>
</g>
<!-- Node21&#45;&gt;Node18 -->
<g id="edge36_Node000021_Node000018" class="edge">
<title>Node21&#45;&gt;Node18</title>
<g id="a_edge36_Node000021_Node000018"><a xlink:title=" ">
<path fill="none" stroke="#63b8ff" d="M808.48,-582.96C685.18,-578.14 472.29,-569.81 361.47,-565.47"/>
<polygon fill="#63b8ff" stroke="#63b8ff" points="808.12,-586.45 818.25,-583.34 808.4,-579.45 808.12,-586.45"/>
</a>
</g>
</g>
<!-- Node22&#45;&gt;Node9 -->
<g id="edge46_Node000022_Node000009" class="edge">
<title>Node22&#45;&gt;Node9</title>
<g id="a_edge46_Node000022_Node000009"><a xlink:title=" ">
<path fill="none" stroke="#63b8ff" d="M868.85,-344.53C845.53,-330.04 813.63,-311.33 784,-297.66 696.9,-257.5 588.97,-223.39 533.84,-207.03"/>
<polygon fill="#63b8ff" stroke="#63b8ff" points="866.68,-347.29 877.01,-349.65 870.4,-341.37 866.68,-347.29"/>
</a>
</g>
</g>
<!-- Node22&#45;&gt;Node11 -->
<g id="edge47_Node000022_Node000011" class="edge">
<title>Node22&#45;&gt;Node11</title>
<g id="a_edge47_Node000022_Node000011"><a xlink:title=" ">
<path fill="none" stroke="#63b8ff" d="M825.45,-363.23C768.7,-360.28 689.93,-355.28 621,-347.66 600.66,-345.42 578.55,-342.24 558.74,-339.12"/>
<polygon fill="#63b8ff" stroke="#63b8ff" points="825.18,-366.72 835.35,-363.73 825.54,-359.73 825.18,-366.72"/>
</a>
</g>
</g>
<!-- Node22&#45;&gt;Node15 -->
<g id="edge48_Node000022_Node000015" class="edge">
<title>Node22&#45;&gt;Node15</title>
<g id="a_edge48_Node000022_Node000015"><a xlink:title=" ">
<path fill="none" stroke="#63b8ff" d="M867.24,-389.01C838.61,-406.54 800.64,-429.05 784,-435.66 775.59,-439.01 766.45,-441.85 757.44,-444.25"/>
<polygon fill="#63b8ff" stroke="#63b8ff" points="868.95,-392.06 875.64,-383.84 865.29,-386.1 868.95,-392.06"/>
</a>
</g>
</g>
<!-- Node22&#45;&gt;Node17 -->
<g id="edge49_Node000022_Node000017" class="edge">
<title>Node22&#45;&gt;Node17</title>
<g id="a_edge49_Node000022_Node000017"><a xlink:title=" ">
<path fill="none" stroke="#63b8ff" d="M882.58,-391.31C860.69,-415.93 823.77,-453 784,-473.66 765.19,-483.44 650.09,-508.35 571.69,-524.62"/>
<polygon fill="#63b8ff" stroke="#63b8ff" points="885.02,-393.84 888.94,-384 879.74,-389.24 885.02,-393.84"/>
</a>
</g>
</g>
<!-- Node23 -->
<g id="Node000023" class="node">
<title>Node23</title>
<g id="a_Node000023"><a xlink:href="class_main_window.html#a9ed390421f6755b891cfc651d173db7b" target="_top" xlink:title=" ">
<polygon fill="white" stroke="#666666" points="774.25,-426.66 630.75,-426.66 630.75,-394.66 774.25,-394.66 774.25,-426.66"/>
<text xml:space="preserve" text-anchor="start" x="638.75" y="-413.16" font-family="Helvetica,sans-Serif" font-size="10.00">MainWindow::handleAttribute</text>
<text xml:space="preserve" text-anchor="middle" x="702.5" y="-401.16" font-family="Helvetica,sans-Serif" font-size="10.00">PropertyChange</text>
</a>
</g>
</g>
<!-- Node22&#45;&gt;Node23 -->
<g id="edge38_Node000022_Node000023" class="edge">
<title>Node22&#45;&gt;Node23</title>
<g id="a_edge38_Node000022_Node000023"><a xlink:title=" ">
<path fill="none" stroke="#63b8ff" d="M825.99,-383.67C809.1,-387.39 791.3,-391.31 774.66,-394.98"/>
<polygon fill="#63b8ff" stroke="#63b8ff" points="826.44,-387.15 835.45,-381.58 824.93,-380.31 826.44,-387.15"/>
</a>
</g>
</g>
<!-- Node24 -->
<g id="Node000024" class="node">
<title>Node24</title>
<g id="a_Node000024"><a xlink:href="class_main_window.html#aa69c4b7c558b2fb3922adf75af48330a" target="_top" xlink:title=" ">
<polygon fill="white" stroke="#666666" points="782.88,-338.66 622.12,-338.66 622.12,-306.66 782.88,-306.66 782.88,-338.66"/>
<text xml:space="preserve" text-anchor="start" x="630.12" y="-325.16" font-family="Helvetica,sans-Serif" font-size="10.00">MainWindow::handleRelationship</text>
<text xml:space="preserve" text-anchor="middle" x="702.5" y="-313.16" font-family="Helvetica,sans-Serif" font-size="10.00">EndCardinalityChange</text>
</a>
</g>
</g>
<!-- Node22&#45;&gt;Node24 -->
<g id="edge42_Node000022_Node000024" class="edge">
<title>Node22&#45;&gt;Node24</title>
<g id="a_edge42_Node000022_Node000024"><a xlink:title=" ">
<path fill="none" stroke="#63b8ff" d="M825.71,-349.6C810.08,-346.15 793.67,-342.54 778.14,-339.11"/>
<polygon fill="#63b8ff" stroke="#63b8ff" points="824.93,-353.01 835.45,-351.75 826.44,-346.18 824.93,-353.01"/>
</a>
</g>
</g>
<!-- Node25 -->
<g id="Node000025" class="node">
<title>Node25</title>
<g id="a_Node000025"><a xlink:href="class_main_window.html#a96d575a529f7c24b1b5094b4b1e42742" target="_top" xlink:title=" ">
<polygon fill="white" stroke="#666666" points="782.88,-212.66 622.12,-212.66 622.12,-180.66 782.88,-180.66 782.88,-212.66"/>
<text xml:space="preserve" text-anchor="start" x="630.12" y="-199.16" font-family="Helvetica,sans-Serif" font-size="10.00">MainWindow::handleRelationship</text>
<text xml:space="preserve" text-anchor="middle" x="702.5" y="-187.16" font-family="Helvetica,sans-Serif" font-size="10.00">EndParticipationChange</text>
</a>
</g>
</g>
<!-- Node22&#45;&gt;Node25 -->
<g id="edge44_Node000022_Node000025" class="edge">
<title>Node22&#45;&gt;Node25</title>
<g id="a_edge44_Node000022_Node000025"><a xlink:title=" ">
<path fill="none" stroke="#63b8ff" d="M887.12,-340.81C866.7,-309.75 828.61,-257.93 784,-226.66 776.43,-221.36 767.8,-216.86 759.08,-213.09"/>
<polygon fill="#63b8ff" stroke="#63b8ff" points="884.18,-342.7 892.54,-349.21 890.06,-338.91 884.18,-342.7"/>
</a>
</g>
</g>
<!-- Node23&#45;&gt;Node9 -->
<g id="edge39_Node000023_Node000009" class="edge">
<title>Node23&#45;&gt;Node9</title>
<g id="a_edge39_Node000023_Node000009"><a xlink:title=" ">
<path fill="none" stroke="#63b8ff" d="M668.78,-387.65C653.59,-376.34 635.7,-362.06 621,-347.66 571.69,-299.35 522.7,-232.15 504.84,-206.84"/>
<polygon fill="#63b8ff" stroke="#63b8ff" points="666.47,-390.3 676.6,-393.4 670.61,-384.66 666.47,-390.3"/>
</a>
</g>
</g>
<!-- Node23&#45;&gt;Node11 -->
<g id="edge40_Node000023_Node000011" class="edge">
<title>Node23&#45;&gt;Node11</title>
<g id="a_edge40_Node000023_Node000011"><a xlink:title=" ">
<path fill="none" stroke="#63b8ff" d="M645.53,-390.15C637.28,-387.03 628.9,-383.8 621,-380.66 586.25,-366.86 546.46,-349.85 521.71,-339.13"/>
<polygon fill="#63b8ff" stroke="#63b8ff" points="644.23,-393.41 654.82,-393.65 646.69,-386.85 644.23,-393.41"/>
</a>
</g>
</g>
<!-- Node23&#45;&gt;Node17 -->
<g id="edge41_Node000023_Node000017" class="edge">
<title>Node23&#45;&gt;Node17</title>
<g id="a_edge41_Node000023_Node000017"><a xlink:title=" ">
<path fill="none" stroke="#63b8ff" d="M629.29,-431.48C626.45,-432.81 623.68,-434.2 621,-435.66 577.29,-459.6 534.78,-500.53 512.93,-523.25"/>
<polygon fill="#63b8ff" stroke="#63b8ff" points="630.57,-434.74 638.39,-427.6 627.82,-428.31 630.57,-434.74"/>
</a>
</g>
</g>
<!-- Node24&#45;&gt;Node11 -->
<g id="edge43_Node000024_Node000011" class="edge">
<title>Node24&#45;&gt;Node11</title>
<g id="a_edge43_Node000024_Node000011"><a xlink:title=" ">
<path fill="none" stroke="#63b8ff" d="M610.55,-325.34C602.2,-325.59 593.76,-325.84 585.44,-326.08"/>
<polygon fill="#63b8ff" stroke="#63b8ff" points="610.44,-328.85 620.34,-325.05 610.24,-321.85 610.44,-328.85"/>
</a>
</g>
</g>
<!-- Node25&#45;&gt;Node9 -->
<g id="edge45_Node000025_Node000009" class="edge">
<title>Node25&#45;&gt;Node9</title>
<g id="a_edge45_Node000025_Node000009"><a xlink:title=" ">
<path fill="none" stroke="#63b8ff" d="M610.61,-196.66C601.68,-196.66 592.63,-196.66 583.74,-196.66"/>
<polygon fill="#63b8ff" stroke="#63b8ff" points="610.34,-200.16 620.34,-196.66 610.34,-193.16 610.34,-200.16"/>
</a>
</g>
</g>
</g>
</svg>

<g id="navigator" transform="translate(0 0)" fill="#404254">
  <rect fill="#f2f5e9" fill-opacity="0.5" stroke="#606060" stroke-width=".5" x="0" y="0" width="60" height="60"/>
  <use id="zoomplus" xlink:href="#zoomPlus" x="17" y="9" onmousedown="handleZoom(evt,'in')"/>
  <use id="zoomminus" xlink:href="#zoomMin" x="42" y="9" onmousedown="handleZoom(evt,'out')"/>
  <use id="reset" xlink:href="#resetDef" x="30" y="36" onmousedown="handleReset()"/>
   <use id="arrowup" xlink:href="#arrowUp" x="0" y="0" onmousedown="handlePan(0,-1)"/>
  <use id="arrowright" xlink:href="#arrowRight" x="0" y="0" onmousedown="handlePan(1,0)"/>
  <use id="arrowdown" xlink:href="#arrowDown" x="0" y="0" onmousedown="handlePan(0,1)"/>
  <use id="arrowleft" xlink:href="#arrowLeft" x="0" y="0" onmousedown="handlePan(-1,0)"/>
</g>
<svg viewBox="0 0 15 15" width="100%" height="30px" preserveAspectRatio="xMaxYMin meet">
 <g id="arrow_out" transform="scale(0.3 0.3)">
  <a xlink:href="class_main_window_add7e6ae12287854ff779bd4b5649dd98_icgraph_org.svg" target="_base">
   <rect id="button" ry="5" rx="5" y="6" x="6" height="38" width="38"
        fill="#f2f5e9" fill-opacity="0.5" stroke="#606060" stroke-width="1.0"/>
   <path id="arrow"
     d="M 11.500037,31.436501 C 11.940474,20.09759 22.043105,11.32322 32.158766,21.979434 L 37.068811,17.246167 C 37.068811,17.246167 37.088388,32 37.088388,32 L 22.160133,31.978069 C 22.160133,31.978069 26.997745,27.140456 26.997745,27.140456 C 18.528582,18.264221 13.291696,25.230495 11.500037,31.436501 z"
     style="fill:#404040;"/>
  </a>
 </g>
</svg>

<style type='text/css'>
<![CDATA[
[data-mouse-over-selected='false'] { opacity: 0.7; }
[data-mouse-over-selected='true']  { opacity: 1.0; }
]]>
</style>
<script type="application/ecmascript"><![CDATA[
document.addEventListener('DOMContentLoaded', (event) => {
  highlightEdges();
  highlightAdjacentNodes();
});
]]></script>
</svg>
