<?xml version="1.0" encoding="UTF-8" standalone="no"?>
<!DOCTYPE svg PUBLIC "-//W3C//DTD SVG 1.1//EN"
 "http://www.w3.org/Graphics/SVG/1.1/DTD/svg11.dtd">
<!-- Generated by graphviz version 14.1.1 (20251213.1925)
 -->
<!-- Title: BasicElement::setPosition Pages: 1 -->
<svg width="499pt" height="166pt"
 viewBox="0.00 0.00 499.00 166.00" xmlns="http://www.w3.org/2000/svg" xmlns:xlink="http://www.w3.org/1999/xlink">
<g id="graph0" class="graph" transform="scale(1 1) rotate(0) translate(4 162)">
<title>BasicElement::setPosition</title>
<!-- Node1 -->
<g id="Node000001" class="node">
<title>Node1</title>
<g id="a_Node000001"><a xlink:title=" ">
<polygon fill="#999999" stroke="#666666" points="131.5,-89 0,-89 0,-69 131.5,-69 131.5,-89"/>
<text xml:space="preserve" text-anchor="middle" x="65.75" y="-75.5" font-family="Helvetica,sans-Serif" font-size="10.00">BasicElement::setPosition</text>
</a>
</g>
</g>
<!-- Node2 -->
<g id="Node000002" class="node">
<title>Node2</title>
<g id="a_Node000002"><a xlink:href="class_basic_element.html#ab14524060d1b8fbbba753207029c6d7d" target="_top" xlink:title=" ">
<polygon fill="white" stroke="#666666" points="299,-89 167.5,-89 167.5,-69 299,-69 299,-89"/>
<text xml:space="preserve" text-anchor="middle" x="233.25" y="-75.5" font-family="Helvetica,sans-Serif" font-size="10.00">BasicElement::setPosition</text>
</a>
</g>
</g>
<!-- Node1&#45;&gt;Node2 -->
<g id="edge1_Node000001_Node000002" class="edge">
<title>Node1&#45;&gt;Node2</title>
<g id="a_edge1_Node000001_Node000002"><a xlink:title=" ">
<path fill="none" stroke="#63b8ff" d="M131.68,-79C139.63,-79 147.79,-79 155.88,-79"/>
<polygon fill="#63b8ff" stroke="#63b8ff" points="155.72,-82.5 165.72,-79 155.72,-75.5 155.72,-82.5"/>
</a>
</g>
</g>
<!-- Node3 -->
<g id="Node000003" class="node">
<title>Node3</title>
<g id="a_Node000003"><a xlink:href="class_basic_element.html#ad1b7a593fb82e872041b342abd157088" target="_top" xlink:title=" ">
<polygon fill="white" stroke="#666666" points="491.25,-158 335,-158 335,-138 491.25,-138 491.25,-158"/>
<text xml:space="preserve" text-anchor="middle" x="413.12" y="-144.5" font-family="Helvetica,sans-Serif" font-size="10.00">BasicElement::elementChanged</text>
</a>
</g>
</g>
<!-- Node2&#45;&gt;Node3 -->
<g id="edge2_Node000002_Node000003" class="edge">
<title>Node2&#45;&gt;Node3</title>
<g id="a_edge2_Node000002_Node000003"><a xlink:title=" ">
<path fill="none" stroke="#63b8ff" d="M252.28,-89.46C272.04,-100.56 304.93,-117.99 335,-129 340.37,-130.97 346.01,-132.79 351.72,-134.47"/>
<polygon fill="#63b8ff" stroke="#63b8ff" points="350.65,-137.81 361.22,-137.12 352.53,-131.07 350.65,-137.81"/>
</a>
</g>
</g>
<!-- Node4 -->
<g id="Node000004" class="node">
<title>Node4</title>
<g id="a_Node000004"><a xlink:href="class_basic_element.html#a84f8dd62eabbe3dded6bacf42a783856" target="_top" xlink:title=" ">
<polygon fill="white" stroke="#666666" points="484.12,-120 342.12,-120 342.12,-88 484.12,-88 484.12,-120"/>
<text xml:space="preserve" text-anchor="start" x="350.12" y="-106.5" font-family="Helvetica,sans-Serif" font-size="10.00">BasicElement::notifyPosition</text>
<text xml:space="preserve" text-anchor="middle" x="413.12" y="-94.5" font-family="Helvetica,sans-Serif" font-size="10.00">Changed</text>
</a>
</g>
</g>
<!-- Node2&#45;&gt;Node4 -->
<g id="edge3_Node000002_Node000004" class="edge">
<title>Node2&#45;&gt;Node4</title>
<g id="a_edge3_Node000002_Node000004"><a xlink:title=" ">
<path fill="none" stroke="#63b8ff" d="M299.47,-88.17C309.6,-89.59 320.16,-91.07 330.59,-92.54"/>
<polygon fill="#63b8ff" stroke="#63b8ff" points="329.93,-95.98 340.32,-93.91 330.9,-89.05 329.93,-95.98"/>
</a>
</g>
</g>
<!-- Node5 -->
<g id="Node000005" class="node">
<title>Node5</title>
<g id="a_Node000005"><a xlink:href="class_basic_element.html#aa4779b31234dc7c90ceddd5a3069b2e7" target="_top" xlink:title=" ">
<polygon fill="white" stroke="#666666" points="477.38,-70 348.88,-70 348.88,-38 477.38,-38 477.38,-70"/>
<text xml:space="preserve" text-anchor="start" x="356.88" y="-56.5" font-family="Helvetica,sans-Serif" font-size="10.00">BasicElement::onPosition</text>
<text xml:space="preserve" text-anchor="middle" x="413.12" y="-44.5" font-family="Helvetica,sans-Serif" font-size="10.00">Changed</text>
</a>
</g>
</g>
<!-- Node2&#45;&gt;Node5 -->
<g id="edge4_Node000002_Node000005" class="edge">
<title>Node2&#45;&gt;Node5</title>
<g id="a_edge4_Node000002_Node000005"><a xlink:title=" ">
<path fill="none" stroke="#63b8ff" d="M299.47,-69.83C311.7,-68.12 324.56,-66.31 337.05,-64.55"/>
<polygon fill="#63b8ff" stroke="#63b8ff" points="337.48,-68.03 346.89,-63.17 336.5,-61.09 337.48,-68.03"/>
</a>
</g>
</g>
<!-- Node6 -->
<g id="Node000006" class="node">
<title>Node6</title>
<g id="a_Node000006"><a xlink:href="class_basic_element.html#a02183bafd7c80f9f1f99a9b9f1631524" target="_top" xlink:title=" ">
<polygon fill="white" stroke="#666666" points="490.88,-20 335.38,-20 335.38,0 490.88,0 490.88,-20"/>
<text xml:space="preserve" text-anchor="middle" x="413.12" y="-6.5" font-family="Helvetica,sans-Serif" font-size="10.00">BasicElement::positionChanged</text>
</a>
</g>
</g>
<!-- Node2&#45;&gt;Node6 -->
<g id="edge5_Node000002_Node000006" class="edge">
<title>Node2&#45;&gt;Node6</title>
<g id="a_edge5_Node000002_Node000006"><a xlink:title=" ">
<path fill="none" stroke="#63b8ff" d="M252.28,-68.54C272.04,-57.44 304.93,-40.01 335,-29 340.37,-27.03 346.01,-25.21 351.72,-23.53"/>
<polygon fill="#63b8ff" stroke="#63b8ff" points="352.53,-26.93 361.22,-20.88 350.65,-20.19 352.53,-26.93"/>
</a>
</g>
</g>
</g>
</svg>
