<?xml version="1.0" encoding="UTF-8" standalone="no"?>
<!DOCTYPE svg PUBLIC "-//W3C//DTD SVG 1.1//EN"
 "http://www.w3.org/Graphics/SVG/1.1/DTD/svg11.dtd">
<!-- Generated by graphviz version 14.1.1 (20251213.1925)
 -->
<!-- Title: BezierControlPoint Pages: 1 -->
<svg width="476pt" height="1409pt"
 viewBox="0.00 0.00 476.00 1409.00" xmlns="http://www.w3.org/2000/svg" xmlns:xlink="http://www.w3.org/1999/xlink">
<g id="graph0" class="graph" transform="scale(1 1) rotate(0) translate(4 1405)">
<title>BezierControlPoint</title>
<!-- Node1 -->
<g id="Node000001" class="node">
<title>Node1</title>
<g id="a_Node000001"><a xlink:title=" ">
<polygon fill="#999999" stroke="none" points="444.64,-782 329.89,-782 329.89,-602 444.64,-602 444.64,-782"/>
<text xml:space="preserve" text-anchor="start" x="346.39" y="-768.5" font-family="Helvetica,sans-Serif" font-size="10.00">BezierControlPoint</text>
<text xml:space="preserve" text-anchor="start" x="335.39" y="-752.5" font-family="Helvetica,sans-Serif" font-size="10.00">&#45;</text>
<text xml:space="preserve" text-anchor="start" x="343.89" y="-752.5" font-family="Helvetica,sans-Serif" font-size="10.00">m_type</text>
<text xml:space="preserve" text-anchor="start" x="335.39" y="-736.5" font-family="Helvetica,sans-Serif" font-size="10.00">&#45;</text>
<text xml:space="preserve" text-anchor="start" x="343.89" y="-736.5" font-family="Helvetica,sans-Serif" font-size="10.00">m_isDragging</text>
<text xml:space="preserve" text-anchor="start" x="333.89" y="-720.5" font-family="Helvetica,sans-Serif" font-size="10.00">+</text>
<text xml:space="preserve" text-anchor="start" x="343.89" y="-720.5" font-family="Helvetica,sans-Serif" font-size="10.00">BezierControlPoint()</text>
<text xml:space="preserve" text-anchor="start" x="333.89" y="-704.5" font-family="Helvetica,sans-Serif" font-size="10.00">+</text>
<text xml:space="preserve" text-anchor="start" x="343.89" y="-704.5" font-family="Helvetica,sans-Serif" font-size="10.00">controlPointType()</text>
<text xml:space="preserve" text-anchor="start" x="333.89" y="-688.5" font-family="Helvetica,sans-Serif" font-size="10.00">+</text>
<text xml:space="preserve" text-anchor="start" x="343.89" y="-688.5" font-family="Helvetica,sans-Serif" font-size="10.00">updatePosition()</text>
<text xml:space="preserve" text-anchor="start" x="334.27" y="-672.5" font-family="Helvetica,sans-Serif" font-size="10.00">#</text>
<text xml:space="preserve" text-anchor="start" x="343.89" y="-672.5" font-family="Helvetica,sans-Serif" font-size="10.00">mousePressEvent()</text>
<text xml:space="preserve" text-anchor="start" x="334.27" y="-656.5" font-family="Helvetica,sans-Serif" font-size="10.00">#</text>
<text xml:space="preserve" text-anchor="start" x="343.89" y="-656.5" font-family="Helvetica,sans-Serif" font-size="10.00">mouseMoveEvent()</text>
<text xml:space="preserve" text-anchor="start" x="334.27" y="-640.5" font-family="Helvetica,sans-Serif" font-size="10.00">#</text>
<text xml:space="preserve" text-anchor="start" x="343.89" y="-640.5" font-family="Helvetica,sans-Serif" font-size="10.00">mouseReleaseEvent()</text>
<text xml:space="preserve" text-anchor="start" x="334.27" y="-624.5" font-family="Helvetica,sans-Serif" font-size="10.00">#</text>
<text xml:space="preserve" text-anchor="start" x="343.89" y="-624.5" font-family="Helvetica,sans-Serif" font-size="10.00">hoverEnterEvent()</text>
<text xml:space="preserve" text-anchor="start" x="334.27" y="-608.5" font-family="Helvetica,sans-Serif" font-size="10.00">#</text>
<text xml:space="preserve" text-anchor="start" x="343.89" y="-608.5" font-family="Helvetica,sans-Serif" font-size="10.00">hoverLeaveEvent()</text>
<polygon fill="#666666" stroke="#666666" points="329.89,-764 329.89,-764 444.64,-764 444.64,-764 329.89,-764"/>
<polygon fill="#666666" stroke="#666666" points="329.89,-732 329.89,-732 341.89,-732 341.89,-732 329.89,-732"/>
<polygon fill="#666666" stroke="#666666" points="341.89,-732 341.89,-732 444.64,-732 444.64,-732 341.89,-732"/>
<polygon fill="none" stroke="#666666" points="329.89,-602 329.89,-782 444.64,-782 444.64,-602 329.89,-602"/>
</a>
</g>
</g>
<!-- Node3 -->
<g id="Node000003" class="node">
<title>Node3</title>
<g id="a_Node000003"><a xlink:href="class_connection_graphics_item.html" target="_top" xlink:title=" ">
<polygon fill="white" stroke="none" points="331.52,-396 183.02,-396 183.02,0 331.52,0 331.52,-396"/>
<text xml:space="preserve" text-anchor="start" x="203.27" y="-382.5" font-family="Helvetica,sans-Serif" font-size="10.00">ConnectionGraphicsItem</text>
<text xml:space="preserve" text-anchor="start" x="188.52" y="-366.5" font-family="Helvetica,sans-Serif" font-size="10.00">&#45;</text>
<text xml:space="preserve" text-anchor="start" x="197.02" y="-366.5" font-family="Helvetica,sans-Serif" font-size="10.00">m_isHovered</text>
<text xml:space="preserve" text-anchor="start" x="187.02" y="-350.5" font-family="Helvetica,sans-Serif" font-size="10.00">+</text>
<text xml:space="preserve" text-anchor="start" x="197.02" y="-350.5" font-family="Helvetica,sans-Serif" font-size="10.00">ConnectionGraphicsItem()</text>
<text xml:space="preserve" text-anchor="start" x="187.02" y="-334.5" font-family="Helvetica,sans-Serif" font-size="10.00">+</text>
<text xml:space="preserve" text-anchor="start" x="197.02" y="-334.5" font-family="Helvetica,sans-Serif" font-size="10.00">~ConnectionGraphicsItem()</text>
<text xml:space="preserve" text-anchor="start" x="187.02" y="-318.5" font-family="Helvetica,sans-Serif" font-size="10.00">+</text>
<text xml:space="preserve" text-anchor="start" x="197.02" y="-318.5" font-family="Helvetica,sans-Serif" font-size="10.00">boundingRect()</text>
<text xml:space="preserve" text-anchor="start" x="187.02" y="-302.5" font-family="Helvetica,sans-Serif" font-size="10.00">+</text>
<text xml:space="preserve" text-anchor="start" x="197.02" y="-302.5" font-family="Helvetica,sans-Serif" font-size="10.00">paint()</text>
<text xml:space="preserve" text-anchor="start" x="187.02" y="-286.5" font-family="Helvetica,sans-Serif" font-size="10.00">+</text>
<text xml:space="preserve" text-anchor="start" x="197.02" y="-286.5" font-family="Helvetica,sans-Serif" font-size="10.00">shape()</text>
<text xml:space="preserve" text-anchor="start" x="187.02" y="-270.5" font-family="Helvetica,sans-Serif" font-size="10.00">+</text>
<text xml:space="preserve" text-anchor="start" x="197.02" y="-270.5" font-family="Helvetica,sans-Serif" font-size="10.00">updateControlPointPosition()</text>
<text xml:space="preserve" text-anchor="start" x="187.02" y="-254.5" font-family="Helvetica,sans-Serif" font-size="10.00">+</text>
<text xml:space="preserve" text-anchor="start" x="197.02" y="-254.5" font-family="Helvetica,sans-Serif" font-size="10.00">setSelected()</text>
<text xml:space="preserve" text-anchor="start" x="187.39" y="-238.5" font-family="Helvetica,sans-Serif" font-size="10.00">#</text>
<text xml:space="preserve" text-anchor="start" x="197.02" y="-238.5" font-family="Helvetica,sans-Serif" font-size="10.00">mousePressEvent()</text>
<text xml:space="preserve" text-anchor="start" x="187.39" y="-222.5" font-family="Helvetica,sans-Serif" font-size="10.00">#</text>
<text xml:space="preserve" text-anchor="start" x="197.02" y="-222.5" font-family="Helvetica,sans-Serif" font-size="10.00">hoverEnterEvent()</text>
<text xml:space="preserve" text-anchor="start" x="187.39" y="-206.5" font-family="Helvetica,sans-Serif" font-size="10.00">#</text>
<text xml:space="preserve" text-anchor="start" x="197.02" y="-206.5" font-family="Helvetica,sans-Serif" font-size="10.00">hoverLeaveEvent()</text>
<text xml:space="preserve" text-anchor="start" x="188.52" y="-190.5" font-family="Helvetica,sans-Serif" font-size="10.00">&#45;</text>
<text xml:space="preserve" text-anchor="start" x="197.02" y="-190.5" font-family="Helvetica,sans-Serif" font-size="10.00">createStraightPath()</text>
<text xml:space="preserve" text-anchor="start" x="188.52" y="-174.5" font-family="Helvetica,sans-Serif" font-size="10.00">&#45;</text>
<text xml:space="preserve" text-anchor="start" x="197.02" y="-174.5" font-family="Helvetica,sans-Serif" font-size="10.00">createOrthogonalPath()</text>
<text xml:space="preserve" text-anchor="start" x="188.52" y="-158.5" font-family="Helvetica,sans-Serif" font-size="10.00">&#45;</text>
<text xml:space="preserve" text-anchor="start" x="197.02" y="-158.5" font-family="Helvetica,sans-Serif" font-size="10.00">createBezierPath()</text>
<text xml:space="preserve" text-anchor="start" x="188.52" y="-142.5" font-family="Helvetica,sans-Serif" font-size="10.00">&#45;</text>
<text xml:space="preserve" text-anchor="start" x="197.02" y="-142.5" font-family="Helvetica,sans-Serif" font-size="10.00">createSimpleOrthogonalPath()</text>
<text xml:space="preserve" text-anchor="start" x="188.52" y="-126.5" font-family="Helvetica,sans-Serif" font-size="10.00">&#45;</text>
<text xml:space="preserve" text-anchor="start" x="197.02" y="-126.5" font-family="Helvetica,sans-Serif" font-size="10.00">createOrthogonalPathWith</text>
<text xml:space="preserve" text-anchor="start" x="197.02" y="-114.5" font-family="Helvetica,sans-Serif" font-size="10.00">Directions()</text>
<text xml:space="preserve" text-anchor="start" x="188.52" y="-98.5" font-family="Helvetica,sans-Serif" font-size="10.00">&#45;</text>
<text xml:space="preserve" text-anchor="start" x="197.02" y="-98.5" font-family="Helvetica,sans-Serif" font-size="10.00">calculateControlPointFrom</text>
<text xml:space="preserve" text-anchor="start" x="197.02" y="-86.5" font-family="Helvetica,sans-Serif" font-size="10.00">Direction()</text>
<text xml:space="preserve" text-anchor="start" x="188.52" y="-70.5" font-family="Helvetica,sans-Serif" font-size="10.00">&#45;</text>
<text xml:space="preserve" text-anchor="start" x="197.02" y="-70.5" font-family="Helvetica,sans-Serif" font-size="10.00">connectToConnection()</text>
<text xml:space="preserve" text-anchor="start" x="188.52" y="-54.5" font-family="Helvetica,sans-Serif" font-size="10.00">&#45;</text>
<text xml:space="preserve" text-anchor="start" x="197.02" y="-54.5" font-family="Helvetica,sans-Serif" font-size="10.00">disconnectFromConnection()</text>
<text xml:space="preserve" text-anchor="start" x="188.52" y="-38.5" font-family="Helvetica,sans-Serif" font-size="10.00">&#45;</text>
<text xml:space="preserve" text-anchor="start" x="197.02" y="-38.5" font-family="Helvetica,sans-Serif" font-size="10.00">createControlPoints()</text>
<text xml:space="preserve" text-anchor="start" x="188.52" y="-22.5" font-family="Helvetica,sans-Serif" font-size="10.00">&#45;</text>
<text xml:space="preserve" text-anchor="start" x="197.02" y="-22.5" font-family="Helvetica,sans-Serif" font-size="10.00">updateControlPointsPosition()</text>
<text xml:space="preserve" text-anchor="start" x="188.52" y="-6.5" font-family="Helvetica,sans-Serif" font-size="10.00">&#45;</text>
<text xml:space="preserve" text-anchor="start" x="197.02" y="-6.5" font-family="Helvetica,sans-Serif" font-size="10.00">updateFromConnection()</text>
<polygon fill="#666666" stroke="#666666" points="183.02,-378 183.02,-378 331.52,-378 331.52,-378 183.02,-378"/>
<polygon fill="#666666" stroke="#666666" points="183.02,-362 183.02,-362 195.02,-362 195.02,-362 183.02,-362"/>
<polygon fill="#666666" stroke="#666666" points="195.02,-362 195.02,-362 331.52,-362 331.52,-362 195.02,-362"/>
<polygon fill="none" stroke="#666666" points="183.02,0 183.02,-396 331.52,-396 331.52,0 183.02,0"/>
</a>
</g>
</g>
<!-- Node1&#45;&gt;Node3 -->
<g id="edge9_Node000003_Node000001" class="edge">
<title>Node1&#45;&gt;Node3</title>
<g id="a_edge9_Node000003_Node000001"><a xlink:title=" ">
<path fill="none" stroke="#63b8ff" d="M368.39,-602.27C356.25,-558.62 337.38,-506.76 309.27,-466 302.19,-455.74 293.72,-458.95 287.77,-448 280.93,-435.42 275.35,-421.97 270.81,-408.07"/>
<polygon fill="none" stroke="#63b8ff" points="270.82,-408.1 265.25,-403.52 267.34,-396.62 272.91,-401.2 270.82,-408.1"/>
</a>
</g>
<text xml:space="preserve" text-anchor="start" x="290.77" y="-435.5" font-family="Helvetica,sans-Serif" font-size="10.00" fill="grey">&#45;m_controlPoint1</text>
<text xml:space="preserve" text-anchor="start" x="290.77" y="-419.5" font-family="Helvetica,sans-Serif" font-size="10.00" fill="grey">&#45;m_controlPoint2</text>
</g>
<!-- Node2 -->
<g id="Node000002" class="node">
<title>Node2</title>
<g id="a_Node000002"><a xlink:title=" ">
<polygon fill="white" stroke="none" points="438.89,-1176 335.64,-1176 335.64,-1124 438.89,-1124 438.89,-1176"/>
<text xml:space="preserve" text-anchor="start" x="339.64" y="-1162.5" font-family="Helvetica,sans-Serif" font-size="10.00">QGraphicsEllipseItem</text>
<text xml:space="preserve" text-anchor="start" x="385.77" y="-1146.5" font-family="Helvetica,sans-Serif" font-size="10.00"> </text>
<text xml:space="preserve" text-anchor="start" x="385.77" y="-1130.5" font-family="Helvetica,sans-Serif" font-size="10.00"> </text>
<polygon fill="#666666" stroke="#666666" points="335.64,-1158 335.64,-1158 438.89,-1158 438.89,-1158 335.64,-1158"/>
<polygon fill="#666666" stroke="#666666" points="335.64,-1142 335.64,-1142 438.89,-1142 438.89,-1142 335.64,-1142"/>
<polygon fill="none" stroke="#666666" points="335.64,-1124 335.64,-1176 438.89,-1176 438.89,-1124 335.64,-1124"/>
</a>
</g>
</g>
<!-- Node2&#45;&gt;Node1 -->
<g id="edge1_Node000001_Node000002" class="edge">
<title>Node2&#45;&gt;Node1</title>
<g id="a_edge1_Node000001_Node000002"><a xlink:title=" ">
<path fill="none" stroke="#63b8ff" d="M387.27,-1112.74C387.27,-1041.68 387.27,-882.25 387.27,-781.61"/>
<polygon fill="none" stroke="#63b8ff" points="383.77,-1112.65 387.27,-1122.65 390.77,-1112.65 383.77,-1112.65"/>
</a>
</g>
</g>
<!-- Node3&#45;&gt;Node1 -->
<g id="edge2_Node000001_Node000003" class="edge">
<title>Node3&#45;&gt;Node1</title>
<g id="a_edge2_Node000001_Node000003"><a xlink:title=" ">
<path fill="none" stroke="#63b8ff" d="M331.48,-317.13C347.35,-347.62 362.08,-381.14 371.27,-414 387.08,-470.57 391.46,-536.1 391.71,-589.22"/>
<polygon fill="none" stroke="#63b8ff" points="391.71,-589.19 395.7,-595.2 391.69,-601.19 387.7,-595.18 391.71,-589.19"/>
</a>
</g>
<text xml:space="preserve" text-anchor="start" x="381.3" y="-427.5" font-family="Helvetica,sans-Serif" font-size="10.00" fill="grey">&#45;m_connectionItem</text>
</g>
<!-- Node4 -->
<g id="Node000004" class="node">
<title>Node4</title>
<g id="a_Node000004"><a xlink:title=" ">
<polygon fill="white" stroke="none" points="94.27,-1401 50.27,-1401 50.27,-1349 94.27,-1349 94.27,-1401"/>
<text xml:space="preserve" text-anchor="start" x="54.27" y="-1387.5" font-family="Helvetica,sans-Serif" font-size="10.00">QObject</text>
<text xml:space="preserve" text-anchor="start" x="70.77" y="-1371.5" font-family="Helvetica,sans-Serif" font-size="10.00"> </text>
<text xml:space="preserve" text-anchor="start" x="70.77" y="-1355.5" font-family="Helvetica,sans-Serif" font-size="10.00"> </text>
<polygon fill="#666666" stroke="#666666" points="50.27,-1383 50.27,-1383 94.27,-1383 94.27,-1383 50.27,-1383"/>
<polygon fill="#666666" stroke="#666666" points="50.27,-1367 50.27,-1367 94.27,-1367 94.27,-1367 50.27,-1367"/>
<polygon fill="none" stroke="#666666" points="50.27,-1349 50.27,-1401 94.27,-1401 94.27,-1349 50.27,-1349"/>
</a>
</g>
</g>
<!-- Node4&#45;&gt;Node3 -->
<g id="edge3_Node000003_Node000004" class="edge">
<title>Node4&#45;&gt;Node3</title>
<g id="a_edge3_Node000003_Node000004"><a xlink:title=" ">
<path fill="none" stroke="#63b8ff" d="M63.04,-1338.11C32.71,-1213.36 -55.89,-788.66 53.27,-466 78.97,-390.02 135.92,-318.63 183.13,-268.82"/>
<polygon fill="none" stroke="#63b8ff" points="59.63,-1338.89 65.42,-1347.76 66.43,-1337.21 59.63,-1338.89"/>
</a>
</g>
</g>
<!-- Node6 -->
<g id="Node000006" class="node">
<title>Node6</title>
<g id="a_Node000006"><a xlink:href="class_connection_line.html" target="_top" xlink:title=" ">
<polygon fill="white" stroke="none" points="208.02,-918 62.52,-918 62.52,-466 208.02,-466 208.02,-918"/>
<text xml:space="preserve" text-anchor="start" x="101.52" y="-904.5" font-family="Helvetica,sans-Serif" font-size="10.00">ConnectionLine</text>
<text xml:space="preserve" text-anchor="start" x="66.52" y="-888.5" font-family="Helvetica,sans-Serif" font-size="10.00">+</text>
<text xml:space="preserve" text-anchor="start" x="76.52" y="-888.5" font-family="Helvetica,sans-Serif" font-size="10.00">id</text>
<text xml:space="preserve" text-anchor="start" x="66.52" y="-872.5" font-family="Helvetica,sans-Serif" font-size="10.00">+</text>
<text xml:space="preserve" text-anchor="start" x="76.52" y="-872.5" font-family="Helvetica,sans-Serif" font-size="10.00">startPoint</text>
<text xml:space="preserve" text-anchor="start" x="66.52" y="-856.5" font-family="Helvetica,sans-Serif" font-size="10.00">+</text>
<text xml:space="preserve" text-anchor="start" x="76.52" y="-856.5" font-family="Helvetica,sans-Serif" font-size="10.00">endPoint</text>
<text xml:space="preserve" text-anchor="start" x="66.52" y="-840.5" font-family="Helvetica,sans-Serif" font-size="10.00">+</text>
<text xml:space="preserve" text-anchor="start" x="76.52" y="-840.5" font-family="Helvetica,sans-Serif" font-size="10.00">lineType</text>
<text xml:space="preserve" text-anchor="start" x="68.02" y="-824.5" font-family="Helvetica,sans-Serif" font-size="10.00">&#45;</text>
<text xml:space="preserve" text-anchor="start" x="76.52" y="-824.5" font-family="Helvetica,sans-Serif" font-size="10.00">m_id</text>
<text xml:space="preserve" text-anchor="start" x="68.02" y="-808.5" font-family="Helvetica,sans-Serif" font-size="10.00">&#45;</text>
<text xml:space="preserve" text-anchor="start" x="76.52" y="-808.5" font-family="Helvetica,sans-Serif" font-size="10.00">m_lineType</text>
<text xml:space="preserve" text-anchor="start" x="68.02" y="-792.5" font-family="Helvetica,sans-Serif" font-size="10.00">&#45;</text>
<text xml:space="preserve" text-anchor="start" x="76.52" y="-792.5" font-family="Helvetica,sans-Serif" font-size="10.00">m_lineWidth</text>
<text xml:space="preserve" text-anchor="start" x="68.02" y="-776.5" font-family="Helvetica,sans-Serif" font-size="10.00">&#45;</text>
<text xml:space="preserve" text-anchor="start" x="76.52" y="-776.5" font-family="Helvetica,sans-Serif" font-size="10.00">m_control1Offset</text>
<text xml:space="preserve" text-anchor="start" x="68.02" y="-760.5" font-family="Helvetica,sans-Serif" font-size="10.00">&#45;</text>
<text xml:space="preserve" text-anchor="start" x="76.52" y="-760.5" font-family="Helvetica,sans-Serif" font-size="10.00">m_control2Offset</text>
<text xml:space="preserve" text-anchor="start" x="68.02" y="-744.5" font-family="Helvetica,sans-Serif" font-size="10.00">&#45;</text>
<text xml:space="preserve" text-anchor="start" x="76.52" y="-744.5" font-family="Helvetica,sans-Serif" font-size="10.00">m_hasCustomControlPoints</text>
<text xml:space="preserve" text-anchor="start" x="66.52" y="-728.5" font-family="Helvetica,sans-Serif" font-size="10.00">+</text>
<text xml:space="preserve" text-anchor="start" x="76.52" y="-728.5" font-family="Helvetica,sans-Serif" font-size="10.00">ConnectionLine()</text>
<text xml:space="preserve" text-anchor="start" x="66.52" y="-712.5" font-family="Helvetica,sans-Serif" font-size="10.00">+</text>
<text xml:space="preserve" text-anchor="start" x="76.52" y="-712.5" font-family="Helvetica,sans-Serif" font-size="10.00">~ConnectionLine()</text>
<text xml:space="preserve" text-anchor="start" x="66.52" y="-696.5" font-family="Helvetica,sans-Serif" font-size="10.00">+</text>
<text xml:space="preserve" text-anchor="start" x="76.52" y="-696.5" font-family="Helvetica,sans-Serif" font-size="10.00">id()</text>
<text xml:space="preserve" text-anchor="start" x="66.52" y="-680.5" font-family="Helvetica,sans-Serif" font-size="10.00">+</text>
<text xml:space="preserve" text-anchor="start" x="76.52" y="-680.5" font-family="Helvetica,sans-Serif" font-size="10.00">startPoint()</text>
<text xml:space="preserve" text-anchor="start" x="66.52" y="-664.5" font-family="Helvetica,sans-Serif" font-size="10.00">+</text>
<text xml:space="preserve" text-anchor="start" x="76.52" y="-664.5" font-family="Helvetica,sans-Serif" font-size="10.00">endPoint()</text>
<text xml:space="preserve" text-anchor="start" x="66.52" y="-648.5" font-family="Helvetica,sans-Serif" font-size="10.00">+</text>
<text xml:space="preserve" text-anchor="start" x="76.52" y="-648.5" font-family="Helvetica,sans-Serif" font-size="10.00">lineType()</text>
<text xml:space="preserve" text-anchor="start" x="66.52" y="-632.5" font-family="Helvetica,sans-Serif" font-size="10.00">+</text>
<text xml:space="preserve" text-anchor="start" x="76.52" y="-632.5" font-family="Helvetica,sans-Serif" font-size="10.00">lineWidth()</text>
<text xml:space="preserve" text-anchor="start" x="66.52" y="-616.5" font-family="Helvetica,sans-Serif" font-size="10.00">+</text>
<text xml:space="preserve" text-anchor="start" x="76.52" y="-616.5" font-family="Helvetica,sans-Serif" font-size="10.00">control1Offset()</text>
<text xml:space="preserve" text-anchor="start" x="66.52" y="-600.5" font-family="Helvetica,sans-Serif" font-size="10.00">+</text>
<text xml:space="preserve" text-anchor="start" x="76.52" y="-600.5" font-family="Helvetica,sans-Serif" font-size="10.00">control2Offset()</text>
<text xml:space="preserve" text-anchor="start" x="66.52" y="-584.5" font-family="Helvetica,sans-Serif" font-size="10.00">+</text>
<text xml:space="preserve" text-anchor="start" x="76.52" y="-584.5" font-family="Helvetica,sans-Serif" font-size="10.00">hasCustomControlPoints()</text>
<text xml:space="preserve" text-anchor="start" x="76.52" y="-568.5" font-family="Helvetica,sans-Serif" font-size="10.00">and 15 more...</text>
<text xml:space="preserve" text-anchor="start" x="66.52" y="-552.5" font-family="Helvetica,sans-Serif" font-size="10.00">+</text>
<text xml:space="preserve" text-anchor="start" x="76.52" y="-552.5" font-family="Helvetica,sans-Serif" font-size="10.00">lineTypeToString()</text>
<text xml:space="preserve" text-anchor="start" x="66.52" y="-536.5" font-family="Helvetica,sans-Serif" font-size="10.00">+</text>
<text xml:space="preserve" text-anchor="start" x="76.52" y="-536.5" font-family="Helvetica,sans-Serif" font-size="10.00">lineTypeFromString()</text>
<text xml:space="preserve" text-anchor="start" x="68.02" y="-520.5" font-family="Helvetica,sans-Serif" font-size="10.00">&#45;</text>
<text xml:space="preserve" text-anchor="start" x="76.52" y="-520.5" font-family="Helvetica,sans-Serif" font-size="10.00">connectToPoints()</text>
<text xml:space="preserve" text-anchor="start" x="68.02" y="-504.5" font-family="Helvetica,sans-Serif" font-size="10.00">&#45;</text>
<text xml:space="preserve" text-anchor="start" x="76.52" y="-504.5" font-family="Helvetica,sans-Serif" font-size="10.00">disconnectFromPoints()</text>
<text xml:space="preserve" text-anchor="start" x="68.02" y="-488.5" font-family="Helvetica,sans-Serif" font-size="10.00">&#45;</text>
<text xml:space="preserve" text-anchor="start" x="76.52" y="-488.5" font-family="Helvetica,sans-Serif" font-size="10.00">onElementPositionChanged()</text>
<text xml:space="preserve" text-anchor="start" x="68.02" y="-472.5" font-family="Helvetica,sans-Serif" font-size="10.00">&#45;</text>
<text xml:space="preserve" text-anchor="start" x="76.52" y="-472.5" font-family="Helvetica,sans-Serif" font-size="10.00">onConnectionPointChanged()</text>
<polygon fill="#666666" stroke="#666666" points="62.52,-900 62.52,-900 208.02,-900 208.02,-900 62.52,-900"/>
<polygon fill="#666666" stroke="#666666" points="62.52,-740 62.52,-740 74.52,-740 74.52,-740 62.52,-740"/>
<polygon fill="#666666" stroke="#666666" points="74.52,-740 74.52,-740 208.02,-740 208.02,-740 74.52,-740"/>
<polygon fill="none" stroke="#666666" points="62.52,-466 62.52,-918 208.02,-918 208.02,-466 62.52,-466"/>
</a>
</g>
</g>
<!-- Node4&#45;&gt;Node6 -->
<g id="edge6_Node000006_Node000004" class="edge">
<title>Node4&#45;&gt;Node6</title>
<g id="a_edge6_Node000006_Node000004"><a xlink:title=" ">
<path fill="none" stroke="#63b8ff" d="M72.86,-1337.7C74.24,-1269.18 78.59,-1116.18 91.27,-988 93.52,-965.2 96.31,-941.46 99.39,-917.8"/>
<polygon fill="none" stroke="#63b8ff" points="69.36,-1337.52 72.67,-1347.59 76.36,-1337.66 69.36,-1337.52"/>
</a>
</g>
</g>
<!-- Node7 -->
<g id="Node000007" class="node">
<title>Node7</title>
<g id="a_Node000007"><a xlink:href="class_connection_point.html" target="_top" xlink:title=" ">
<polygon fill="white" stroke="none" points="260.14,-1312 100.39,-1312 100.39,-988 260.14,-988 260.14,-1312"/>
<text xml:space="preserve" text-anchor="start" x="144.27" y="-1298.5" font-family="Helvetica,sans-Serif" font-size="10.00">ConnectionPoint</text>
<text xml:space="preserve" text-anchor="start" x="104.39" y="-1282.5" font-family="Helvetica,sans-Serif" font-size="10.00">+</text>
<text xml:space="preserve" text-anchor="start" x="114.39" y="-1282.5" font-family="Helvetica,sans-Serif" font-size="10.00">id</text>
<text xml:space="preserve" text-anchor="start" x="104.39" y="-1266.5" font-family="Helvetica,sans-Serif" font-size="10.00">+</text>
<text xml:space="preserve" text-anchor="start" x="114.39" y="-1266.5" font-family="Helvetica,sans-Serif" font-size="10.00">relativePosition</text>
<text xml:space="preserve" text-anchor="start" x="104.39" y="-1250.5" font-family="Helvetica,sans-Serif" font-size="10.00">+</text>
<text xml:space="preserve" text-anchor="start" x="114.39" y="-1250.5" font-family="Helvetica,sans-Serif" font-size="10.00">direction</text>
<text xml:space="preserve" text-anchor="start" x="105.89" y="-1234.5" font-family="Helvetica,sans-Serif" font-size="10.00">&#45;</text>
<text xml:space="preserve" text-anchor="start" x="114.39" y="-1234.5" font-family="Helvetica,sans-Serif" font-size="10.00">m_id</text>
<text xml:space="preserve" text-anchor="start" x="105.89" y="-1218.5" font-family="Helvetica,sans-Serif" font-size="10.00">&#45;</text>
<text xml:space="preserve" text-anchor="start" x="114.39" y="-1218.5" font-family="Helvetica,sans-Serif" font-size="10.00">m_relativePosition</text>
<text xml:space="preserve" text-anchor="start" x="105.89" y="-1202.5" font-family="Helvetica,sans-Serif" font-size="10.00">&#45;</text>
<text xml:space="preserve" text-anchor="start" x="114.39" y="-1202.5" font-family="Helvetica,sans-Serif" font-size="10.00">m_direction</text>
<text xml:space="preserve" text-anchor="start" x="104.39" y="-1186.5" font-family="Helvetica,sans-Serif" font-size="10.00">+</text>
<text xml:space="preserve" text-anchor="start" x="114.39" y="-1186.5" font-family="Helvetica,sans-Serif" font-size="10.00">ConnectionPoint()</text>
<text xml:space="preserve" text-anchor="start" x="104.39" y="-1170.5" font-family="Helvetica,sans-Serif" font-size="10.00">+</text>
<text xml:space="preserve" text-anchor="start" x="114.39" y="-1170.5" font-family="Helvetica,sans-Serif" font-size="10.00">ConnectionPoint()</text>
<text xml:space="preserve" text-anchor="start" x="104.39" y="-1154.5" font-family="Helvetica,sans-Serif" font-size="10.00">+</text>
<text xml:space="preserve" text-anchor="start" x="114.39" y="-1154.5" font-family="Helvetica,sans-Serif" font-size="10.00">~ConnectionPoint()</text>
<text xml:space="preserve" text-anchor="start" x="104.39" y="-1138.5" font-family="Helvetica,sans-Serif" font-size="10.00">+</text>
<text xml:space="preserve" text-anchor="start" x="114.39" y="-1138.5" font-family="Helvetica,sans-Serif" font-size="10.00">id()</text>
<text xml:space="preserve" text-anchor="start" x="104.39" y="-1122.5" font-family="Helvetica,sans-Serif" font-size="10.00">+</text>
<text xml:space="preserve" text-anchor="start" x="114.39" y="-1122.5" font-family="Helvetica,sans-Serif" font-size="10.00">relativePosition()</text>
<text xml:space="preserve" text-anchor="start" x="104.39" y="-1106.5" font-family="Helvetica,sans-Serif" font-size="10.00">+</text>
<text xml:space="preserve" text-anchor="start" x="114.39" y="-1106.5" font-family="Helvetica,sans-Serif" font-size="10.00">direction()</text>
<text xml:space="preserve" text-anchor="start" x="104.39" y="-1090.5" font-family="Helvetica,sans-Serif" font-size="10.00">+</text>
<text xml:space="preserve" text-anchor="start" x="114.39" y="-1090.5" font-family="Helvetica,sans-Serif" font-size="10.00">setRelativePosition()</text>
<text xml:space="preserve" text-anchor="start" x="104.39" y="-1074.5" font-family="Helvetica,sans-Serif" font-size="10.00">+</text>
<text xml:space="preserve" text-anchor="start" x="114.39" y="-1074.5" font-family="Helvetica,sans-Serif" font-size="10.00">setDirection()</text>
<text xml:space="preserve" text-anchor="start" x="104.39" y="-1058.5" font-family="Helvetica,sans-Serif" font-size="10.00">+</text>
<text xml:space="preserve" text-anchor="start" x="114.39" y="-1058.5" font-family="Helvetica,sans-Serif" font-size="10.00">absolutePosition()</text>
<text xml:space="preserve" text-anchor="start" x="104.39" y="-1042.5" font-family="Helvetica,sans-Serif" font-size="10.00">+</text>
<text xml:space="preserve" text-anchor="start" x="114.39" y="-1042.5" font-family="Helvetica,sans-Serif" font-size="10.00">directionToString()</text>
<text xml:space="preserve" text-anchor="start" x="104.39" y="-1026.5" font-family="Helvetica,sans-Serif" font-size="10.00">+</text>
<text xml:space="preserve" text-anchor="start" x="114.39" y="-1026.5" font-family="Helvetica,sans-Serif" font-size="10.00">directionFromString()</text>
<text xml:space="preserve" text-anchor="start" x="104.39" y="-1010.5" font-family="Helvetica,sans-Serif" font-size="10.00">+</text>
<text xml:space="preserve" text-anchor="start" x="114.39" y="-1010.5" font-family="Helvetica,sans-Serif" font-size="10.00">createDefaultConnectionPoints()</text>
<text xml:space="preserve" text-anchor="start" x="105.89" y="-994.5" font-family="Helvetica,sans-Serif" font-size="10.00">&#45;</text>
<text xml:space="preserve" text-anchor="start" x="114.39" y="-994.5" font-family="Helvetica,sans-Serif" font-size="10.00">addConectionPoint()</text>
<polygon fill="#666666" stroke="#666666" points="100.39,-1294 100.39,-1294 260.14,-1294 260.14,-1294 100.39,-1294"/>
<polygon fill="#666666" stroke="#666666" points="100.39,-1198 100.39,-1198 112.39,-1198 112.39,-1198 100.39,-1198"/>
<polygon fill="#666666" stroke="#666666" points="112.39,-1198 112.39,-1198 260.14,-1198 260.14,-1198 112.39,-1198"/>
<polygon fill="none" stroke="#666666" points="100.39,-988 100.39,-1312 260.14,-1312 260.14,-988 100.39,-988"/>
</a>
</g>
</g>
<!-- Node4&#45;&gt;Node7 -->
<g id="edge8_Node000007_Node000004" class="edge">
<title>Node4&#45;&gt;Node7</title>
<g id="a_edge8_Node000007_Node000004"><a xlink:title=" ">
<path fill="none" stroke="#63b8ff" d="M89.14,-1339.16C93.11,-1330.97 97.6,-1321.7 102.4,-1311.79"/>
<polygon fill="none" stroke="#63b8ff" points="86.11,-1337.4 84.9,-1347.92 92.41,-1340.45 86.11,-1337.4"/>
</a>
</g>
</g>
<!-- Node5 -->
<g id="Node000005" class="node">
<title>Node5</title>
<g id="a_Node000005"><a xlink:title=" ">
<polygon fill="white" stroke="none" points="300.27,-718 226.27,-718 226.27,-666 300.27,-666 300.27,-718"/>
<text xml:space="preserve" text-anchor="start" x="230.27" y="-704.5" font-family="Helvetica,sans-Serif" font-size="10.00">QGraphicsItem</text>
<text xml:space="preserve" text-anchor="start" x="261.77" y="-688.5" font-family="Helvetica,sans-Serif" font-size="10.00"> </text>
<text xml:space="preserve" text-anchor="start" x="261.77" y="-672.5" font-family="Helvetica,sans-Serif" font-size="10.00"> </text>
<polygon fill="#666666" stroke="#666666" points="226.27,-700 226.27,-700 300.27,-700 300.27,-700 226.27,-700"/>
<polygon fill="#666666" stroke="#666666" points="226.27,-684 226.27,-684 300.27,-684 300.27,-684 226.27,-684"/>
<polygon fill="none" stroke="#666666" points="226.27,-666 226.27,-718 300.27,-718 300.27,-666 226.27,-666"/>
</a>
</g>
</g>
<!-- Node5&#45;&gt;Node3 -->
<g id="edge4_Node000003_Node000005" class="edge">
<title>Node5&#45;&gt;Node3</title>
<g id="a_edge4_Node000003_Node000005"><a xlink:title=" ">
<path fill="none" stroke="#63b8ff" d="M262.83,-654.8C262.16,-600.16 260.85,-492.69 259.67,-395.83"/>
<polygon fill="none" stroke="#63b8ff" points="259.33,-654.79 262.95,-664.75 266.33,-654.71 259.33,-654.79"/>
</a>
</g>
</g>
<!-- Node6&#45;&gt;Node3 -->
<g id="edge5_Node000003_Node000006" class="edge">
<title>Node6&#45;&gt;Node3</title>
<g id="a_edge5_Node000003_Node000006"><a xlink:title=" ">
<path fill="none" stroke="#63b8ff" d="M174.18,-466.31C178.06,-448.55 182.19,-430.94 186.52,-414 187,-412.13 187.48,-410.25 187.98,-408.36"/>
<polygon fill="none" stroke="#63b8ff" points="188,-408.28 185.69,-401.45 191.11,-396.69 193.42,-403.52 188,-408.28"/>
</a>
</g>
<text xml:space="preserve" text-anchor="start" x="189.52" y="-427.5" font-family="Helvetica,sans-Serif" font-size="10.00" fill="grey">&#45;m_connection</text>
</g>
<!-- Node7&#45;&gt;Node6 -->
<g id="edge7_Node000006_Node000007" class="edge">
<title>Node7&#45;&gt;Node6</title>
<g id="a_edge7_Node000006_Node000007"><a xlink:title=" ">
<path fill="none" stroke="#63b8ff" d="M164.4,-988.23C162.56,-969.51 160.64,-950.13 158.72,-930.65"/>
<polygon fill="none" stroke="#63b8ff" points="158.72,-930.68 154.15,-925.1 157.54,-918.74 162.11,-924.32 158.72,-930.68"/>
</a>
</g>
<text xml:space="preserve" text-anchor="start" x="164.8" y="-957.5" font-family="Helvetica,sans-Serif" font-size="10.00" fill="grey">&#45;m_endPoint</text>
<text xml:space="preserve" text-anchor="start" x="164.8" y="-941.5" font-family="Helvetica,sans-Serif" font-size="10.00" fill="grey">&#45;m_startPoint</text>
</g>
</g>
</svg>
