<?xml version="1.0" encoding="UTF-8" standalone="no"?>
<!DOCTYPE svg PUBLIC "-//W3C//DTD SVG 1.1//EN"
 "http://www.w3.org/Graphics/SVG/1.1/DTD/svg11.dtd">
<!-- Generated by graphviz version 14.1.1 (20251213.1925)
 -->
<!-- Title: Attribute::Attribute Pages: 1 -->
<svg width="1046pt" height="217pt"
 viewBox="0.00 0.00 1046.00 217.00" xmlns="http://www.w3.org/2000/svg" xmlns:xlink="http://www.w3.org/1999/xlink">
<g id="graph0" class="graph" transform="scale(1 1) rotate(0) translate(4 213)">
<title>Attribute::Attribute</title>
<!-- Node1 -->
<g id="Node000001" class="node">
<title>Node1</title>
<g id="a_Node000001"><a xlink:title=" ">
<polygon fill="#999999" stroke="#666666" points="95.5,-96 0,-96 0,-76 95.5,-76 95.5,-96"/>
<text xml:space="preserve" text-anchor="middle" x="47.75" y="-82.5" font-family="Helvetica,sans-Serif" font-size="10.00">Attribute::Attribute</text>
</a>
</g>
</g>
<!-- Node1&#45;&gt;Node1 -->
<g id="edge1_Node000001_Node000001" class="edge">
<title>Node1&#45;&gt;Node1</title>
<g id="a_edge1_Node000001_Node000001"><a xlink:title=" ">
<path fill="none" stroke="#63b8ff" d="M23.04,-96.34C12.48,-104.98 20.72,-114 47.75,-114 62.53,-114 71.69,-111.3 75.23,-107.44"/>
<polygon fill="#63b8ff" stroke="#63b8ff" points="78.65,-106.66 72.82,-97.81 71.85,-108.36 78.65,-106.66"/>
</a>
</g>
</g>
<!-- Node2 -->
<g id="Node000002" class="node">
<title>Node2</title>
<g id="a_Node000002"><a xlink:href="class_basic_element.html#a85cccd7db0e46e4e2b646365cd6c66a9" target="_top" xlink:title=" ">
<polygon fill="white" stroke="#666666" points="275,-134 131.5,-134 131.5,-114 275,-114 275,-134"/>
<text xml:space="preserve" text-anchor="middle" x="203.25" y="-120.5" font-family="Helvetica,sans-Serif" font-size="10.00">BasicElement::BasicElement</text>
</a>
</g>
</g>
<!-- Node1&#45;&gt;Node2 -->
<g id="edge2_Node000001_Node000002" class="edge">
<title>Node1&#45;&gt;Node2</title>
<g id="a_edge2_Node000001_Node000002"><a xlink:title=" ">
<path fill="none" stroke="#63b8ff" d="M91.1,-96.48C108.97,-100.91 129.97,-106.11 148.88,-110.79"/>
<polygon fill="#63b8ff" stroke="#63b8ff" points="148.02,-114.18 158.57,-113.19 149.7,-107.39 148.02,-114.18"/>
</a>
</g>
</g>
<!-- Node9 -->
<g id="Node000009" class="node">
<title>Node9</title>
<g id="a_Node000009"><a xlink:href="class_attribute.html#a9fbfd8cb51abe1f5b3e85333eb3ba55a" target="_top" xlink:title=" ">
<polygon fill="white" stroke="#666666" points="261.5,-96 145,-96 145,-76 261.5,-76 261.5,-96"/>
<text xml:space="preserve" text-anchor="middle" x="203.25" y="-82.5" font-family="Helvetica,sans-Serif" font-size="10.00">Attribute::preferredSize</text>
</a>
</g>
</g>
<!-- Node1&#45;&gt;Node9 -->
<g id="edge9_Node000001_Node000009" class="edge">
<title>Node1&#45;&gt;Node9</title>
<g id="a_edge9_Node000001_Node000009"><a xlink:title=" ">
<path fill="none" stroke="#63b8ff" d="M95.64,-86C107.45,-86 120.38,-86 133.04,-86"/>
<polygon fill="#63b8ff" stroke="#63b8ff" points="133.03,-89.5 143.03,-86 133.03,-82.5 133.03,-89.5"/>
</a>
</g>
</g>
<!-- Node10 -->
<g id="Node000010" class="node">
<title>Node10</title>
<g id="a_Node000010"><a xlink:href="class_basic_element.html#ab86c964c6ef9e8d7299efc263a0837e7" target="_top" xlink:title=" ">
<polygon fill="white" stroke="#666666" points="261.12,-58 145.38,-58 145.38,-38 261.12,-38 261.12,-58"/>
<text xml:space="preserve" text-anchor="middle" x="203.25" y="-44.5" font-family="Helvetica,sans-Serif" font-size="10.00">BasicElement::setSize</text>
</a>
</g>
</g>
<!-- Node1&#45;&gt;Node10 -->
<g id="edge10_Node000001_Node000010" class="edge">
<title>Node1&#45;&gt;Node10</title>
<g id="a_edge10_Node000001_Node000010"><a xlink:title=" ">
<path fill="none" stroke="#63b8ff" d="M91.1,-75.52C108.97,-71.09 129.97,-65.89 148.88,-61.21"/>
<polygon fill="#63b8ff" stroke="#63b8ff" points="149.7,-64.61 158.57,-58.81 148.02,-57.82 149.7,-64.61"/>
</a>
</g>
</g>
<!-- Node3 -->
<g id="Node000003" class="node">
<title>Node3</title>
<g id="a_Node000003"><a xlink:href="class_basic_element.html#a78e2ce29aa5b2a9fae74cf435996ce8b" target="_top" xlink:title=" ">
<polygon fill="white" stroke="#666666" points="465,-184 320.75,-184 320.75,-152 465,-152 465,-184"/>
<text xml:space="preserve" text-anchor="start" x="328.75" y="-170.5" font-family="Helvetica,sans-Serif" font-size="10.00">BasicElement::createAndAdd</text>
<text xml:space="preserve" text-anchor="middle" x="392.88" y="-158.5" font-family="Helvetica,sans-Serif" font-size="10.00">DefaultConnectionPoints</text>
</a>
</g>
</g>
<!-- Node2&#45;&gt;Node3 -->
<g id="edge3_Node000002_Node000003" class="edge">
<title>Node2&#45;&gt;Node3</title>
<g id="a_edge3_Node000002_Node000003"><a xlink:title=" ">
<path fill="none" stroke="#63b8ff" d="M248.71,-134.43C267.26,-138.78 289.41,-143.97 310.67,-148.96"/>
<polygon fill="#63b8ff" stroke="#63b8ff" points="309.68,-152.32 320.22,-151.2 311.28,-145.5 309.68,-152.32"/>
</a>
</g>
</g>
<!-- Node8 -->
<g id="Node000008" class="node">
<title>Node8</title>
<g id="a_Node000008"><a xlink:href="class_basic_element.html#abb80391f2c11a0eb2fe2b21d53967450" target="_top" xlink:title=" ">
<polygon fill="white" stroke="#666666" points="474.75,-134 311,-134 311,-114 474.75,-114 474.75,-134"/>
<text xml:space="preserve" text-anchor="middle" x="392.88" y="-120.5" font-family="Helvetica,sans-Serif" font-size="10.00">BasicElement::stringElementType</text>
</a>
</g>
</g>
<!-- Node2&#45;&gt;Node8 -->
<g id="edge8_Node000002_Node000008" class="edge">
<title>Node2&#45;&gt;Node8</title>
<g id="a_edge8_Node000002_Node000008"><a xlink:title=" ">
<path fill="none" stroke="#63b8ff" d="M275.45,-124C283.27,-124 291.32,-124 299.35,-124"/>
<polygon fill="#63b8ff" stroke="#63b8ff" points="299.16,-127.5 309.16,-124 299.16,-120.5 299.16,-127.5"/>
</a>
</g>
</g>
<!-- Node4 -->
<g id="Node000004" class="node">
<title>Node4</title>
<g id="a_Node000004"><a xlink:href="class_basic_element.html#a0357bfa9b1ef06dd1c9d64bcb00813f4" target="_top" xlink:title=" ">
<polygon fill="white" stroke="#666666" points="661,-209 513,-209 513,-177 661,-177 661,-209"/>
<text xml:space="preserve" text-anchor="start" x="521" y="-195.5" font-family="Helvetica,sans-Serif" font-size="10.00">BasicElement::addConnection</text>
<text xml:space="preserve" text-anchor="middle" x="587" y="-183.5" font-family="Helvetica,sans-Serif" font-size="10.00">Point</text>
</a>
</g>
</g>
<!-- Node3&#45;&gt;Node4 -->
<g id="edge4_Node000003_Node000004" class="edge">
<title>Node3&#45;&gt;Node4</title>
<g id="a_edge4_Node000003_Node000004"><a xlink:title=" ">
<path fill="none" stroke="#63b8ff" d="M465.42,-177.31C477.14,-178.83 489.38,-180.43 501.39,-181.99"/>
<polygon fill="#63b8ff" stroke="#63b8ff" points="500.93,-185.46 511.3,-183.28 501.83,-178.52 500.93,-185.46"/>
</a>
</g>
</g>
<!-- Node5 -->
<g id="Node000005" class="node">
<title>Node5</title>
<g id="a_Node000005"><a xlink:href="class_connection_point.html#af57583f18ef35d9b3eafa83665e7ebe4" target="_top" xlink:title=" ">
<polygon fill="white" stroke="#666666" points="663.25,-159 510.75,-159 510.75,-127 663.25,-127 663.25,-159"/>
<text xml:space="preserve" text-anchor="start" x="518.75" y="-145.5" font-family="Helvetica,sans-Serif" font-size="10.00">ConnectionPoint::createDefault</text>
<text xml:space="preserve" text-anchor="middle" x="587" y="-133.5" font-family="Helvetica,sans-Serif" font-size="10.00">ConnectionPoints</text>
</a>
</g>
</g>
<!-- Node3&#45;&gt;Node5 -->
<g id="edge5_Node000003_Node000005" class="edge">
<title>Node3&#45;&gt;Node5</title>
<g id="a_edge5_Node000003_Node000005"><a xlink:title=" ">
<path fill="none" stroke="#63b8ff" d="M465.42,-158.69C476.46,-157.25 487.96,-155.76 499.29,-154.28"/>
<polygon fill="#63b8ff" stroke="#63b8ff" points="499.58,-157.78 509.04,-153.01 498.67,-150.83 499.58,-157.78"/>
</a>
</g>
</g>
<!-- Node6 -->
<g id="Node000006" class="node">
<title>Node6</title>
<g id="a_Node000006"><a xlink:href="class_connection_point.html#a7b8c2910eb504959c4211764a9abc2e8" target="_top" xlink:title=" ">
<polygon fill="white" stroke="#666666" points="858.5,-159 699.25,-159 699.25,-127 858.5,-127 858.5,-159"/>
<text xml:space="preserve" text-anchor="start" x="707.25" y="-145.5" font-family="Helvetica,sans-Serif" font-size="10.00">ConnectionPoint::addConnection</text>
<text xml:space="preserve" text-anchor="middle" x="778.88" y="-133.5" font-family="Helvetica,sans-Serif" font-size="10.00">Point</text>
</a>
</g>
</g>
<!-- Node5&#45;&gt;Node6 -->
<g id="edge6_Node000005_Node000006" class="edge">
<title>Node5&#45;&gt;Node6</title>
<g id="a_edge6_Node000005_Node000006"><a xlink:title=" ">
<path fill="none" stroke="#63b8ff" d="M663.59,-143C671.46,-143 679.52,-143 687.53,-143"/>
<polygon fill="#63b8ff" stroke="#63b8ff" points="687.3,-146.5 697.3,-143 687.3,-139.5 687.3,-146.5"/>
</a>
</g>
</g>
<!-- Node7 -->
<g id="Node000007" class="node">
<title>Node7</title>
<g id="a_Node000007"><a xlink:href="class_connection_point.html#ac498b99d7f91805fea3eab19f2e8b260" target="_top" xlink:title=" ">
<polygon fill="white" stroke="#666666" points="1038,-159 894.5,-159 894.5,-127 1038,-127 1038,-159"/>
<text xml:space="preserve" text-anchor="start" x="902.5" y="-145.5" font-family="Helvetica,sans-Serif" font-size="10.00">ConnectionPoint::Connection</text>
<text xml:space="preserve" text-anchor="middle" x="966.25" y="-133.5" font-family="Helvetica,sans-Serif" font-size="10.00">Point</text>
</a>
</g>
</g>
<!-- Node6&#45;&gt;Node7 -->
<g id="edge7_Node000006_Node000007" class="edge">
<title>Node6&#45;&gt;Node7</title>
<g id="a_edge7_Node000006_Node000007"><a xlink:title=" ">
<path fill="none" stroke="#63b8ff" d="M858.76,-143C866.64,-143 874.65,-143 882.57,-143"/>
<polygon fill="#63b8ff" stroke="#63b8ff" points="882.56,-146.5 892.56,-143 882.56,-139.5 882.56,-146.5"/>
</a>
</g>
</g>
<!-- Node11 -->
<g id="Node000011" class="node">
<title>Node11</title>
<g id="a_Node000011"><a xlink:href="class_basic_element.html#a2cb2eb803daa35380908948215f8d468" target="_top" xlink:title=" ">
<polygon fill="white" stroke="#666666" points="463.88,-96 321.88,-96 321.88,-76 463.88,-76 463.88,-96"/>
<text xml:space="preserve" text-anchor="middle" x="392.88" y="-82.5" font-family="Helvetica,sans-Serif" font-size="10.00">BasicElement::minimumSize</text>
</a>
</g>
</g>
<!-- Node10&#45;&gt;Node11 -->
<g id="edge11_Node000010_Node000011" class="edge">
<title>Node10&#45;&gt;Node11</title>
<g id="a_edge11_Node000010_Node000011"><a xlink:title=" ">
<path fill="none" stroke="#63b8ff" d="M256.02,-58.48C278.68,-63.07 305.46,-68.5 329.24,-73.31"/>
<polygon fill="#63b8ff" stroke="#63b8ff" points="328.3,-76.69 338.79,-75.25 329.69,-69.83 328.3,-76.69"/>
</a>
</g>
</g>
<!-- Node12 -->
<g id="Node000012" class="node">
<title>Node12</title>
<g id="a_Node000012"><a xlink:href="class_basic_element.html#a596caee40cdd00a0aacce49689b63f92" target="_top" xlink:title=" ">
<polygon fill="white" stroke="#666666" points="468.75,-58 317,-58 317,-38 468.75,-38 468.75,-58"/>
<text xml:space="preserve" text-anchor="middle" x="392.88" y="-44.5" font-family="Helvetica,sans-Serif" font-size="10.00">BasicElement::notifyObservers</text>
</a>
</g>
</g>
<!-- Node10&#45;&gt;Node12 -->
<g id="edge12_Node000010_Node000012" class="edge">
<title>Node10&#45;&gt;Node12</title>
<g id="a_edge12_Node000010_Node000012"><a xlink:title=" ">
<path fill="none" stroke="#63b8ff" d="M261.56,-48C275.39,-48 290.47,-48 305.31,-48"/>
<polygon fill="#63b8ff" stroke="#63b8ff" points="305.07,-51.5 315.06,-48 305.06,-44.5 305.07,-51.5"/>
</a>
</g>
</g>
<!-- Node13 -->
<g id="Node000013" class="node">
<title>Node13</title>
<g id="a_Node000013"><a xlink:href="class_basic_element.html#a542adbf85a58c5c9bf17975964d7e446" target="_top" xlink:title=" ">
<polygon fill="white" stroke="#666666" points="443.25,-20 342.5,-20 342.5,0 443.25,0 443.25,-20"/>
<text xml:space="preserve" text-anchor="middle" x="392.88" y="-6.5" font-family="Helvetica,sans-Serif" font-size="10.00">BasicElement::size</text>
</a>
</g>
</g>
<!-- Node10&#45;&gt;Node13 -->
<g id="edge13_Node000010_Node000013" class="edge">
<title>Node10&#45;&gt;Node13</title>
<g id="a_edge13_Node000010_Node000013"><a xlink:title=" ">
<path fill="none" stroke="#63b8ff" d="M256.02,-37.52C279.24,-32.81 306.79,-27.23 331,-22.33"/>
<polygon fill="#63b8ff" stroke="#63b8ff" points="331.63,-25.77 340.73,-20.36 330.24,-18.91 331.63,-25.77"/>
</a>
</g>
</g>
</g>
</svg>
