<?xml version="1.0" encoding="UTF-8" standalone="no"?>
<!DOCTYPE svg PUBLIC "-//W3C//DTD SVG 1.1//EN"
 "http://www.w3.org/Graphics/SVG/1.1/DTD/svg11.dtd">
<!-- Generated by graphviz version 14.1.1 (20251213.1925)
 -->
<!-- Title: BasicElement::serialize Pages: 1 -->
<svg width="1755pt" height="303pt"
 viewBox="0.00 0.00 1755.00 303.00" xmlns="http://www.w3.org/2000/svg" xmlns:xlink="http://www.w3.org/1999/xlink">
<g id="graph0" class="graph" transform="scale(1 1) rotate(0) translate(4 299)">
<title>BasicElement::serialize</title>
<!-- Node1 -->
<g id="Node000001" class="node">
<title>Node1</title>
<g id="a_Node000001"><a xlink:title=" ">
<polygon fill="#999999" stroke="#666666" points="1747,-77 1628.25,-77 1628.25,-57 1747,-57 1747,-77"/>
<text xml:space="preserve" text-anchor="middle" x="1687.62" y="-63.5" font-family="Helvetica,sans-Serif" font-size="10.00">BasicElement::serialize</text>
</a>
</g>
</g>
<!-- Node2 -->
<g id="Node000002" class="node">
<title>Node2</title>
<g id="a_Node000002"><a xlink:href="class_json_helper.html#a2141a614711cf449951f1ebde5a9b119" target="_top" xlink:title=" ">
<polygon fill="white" stroke="#666666" points="1592.25,-146 1454.75,-146 1454.75,-114 1592.25,-114 1592.25,-146"/>
<text xml:space="preserve" text-anchor="start" x="1462.75" y="-132.5" font-family="Helvetica,sans-Serif" font-size="10.00">JsonHelper::elementToJson</text>
<text xml:space="preserve" text-anchor="middle" x="1523.5" y="-120.5" font-family="Helvetica,sans-Serif" font-size="10.00">Object</text>
</a>
</g>
</g>
<!-- Node1&#45;&gt;Node2 -->
<g id="edge1_Node000001_Node000002" class="edge">
<title>Node1&#45;&gt;Node2</title>
<g id="a_edge1_Node000001_Node000002"><a xlink:title=" ">
<path fill="none" stroke="#63b8ff" d="M1650.81,-81.71C1633.22,-88.86 1611.67,-97.51 1592.25,-105 1585,-107.8 1577.28,-110.71 1569.76,-113.51"/>
<polygon fill="#63b8ff" stroke="#63b8ff" points="1652.13,-84.95 1660.07,-77.93 1649.49,-78.47 1652.13,-84.95"/>
</a>
</g>
</g>
<!-- Node20 -->
<g id="Node000020" class="node">
<title>Node20</title>
<g id="a_Node000020"><a xlink:href="class_attribute.html#ae8c14a45321be32454ef200c5be0591c" target="_top" xlink:title=" ">
<polygon fill="white" stroke="#666666" points="1570.88,-96 1476.12,-96 1476.12,-76 1570.88,-76 1570.88,-96"/>
<text xml:space="preserve" text-anchor="middle" x="1523.5" y="-82.5" font-family="Helvetica,sans-Serif" font-size="10.00">Attribute::serialize</text>
</a>
</g>
</g>
<!-- Node1&#45;&gt;Node20 -->
<g id="edge25_Node000001_Node000020" class="edge">
<title>Node1&#45;&gt;Node20</title>
<g id="a_edge25_Node000001_Node000020"><a xlink:title=" ">
<path fill="none" stroke="#63b8ff" d="M1616.98,-75.16C1601.54,-76.97 1585.53,-78.85 1571.26,-80.52"/>
<polygon fill="#63b8ff" stroke="#63b8ff" points="1617.07,-78.68 1626.59,-74.04 1616.25,-71.72 1617.07,-78.68"/>
</a>
</g>
</g>
<!-- Node21 -->
<g id="Node000021" class="node">
<title>Node21</title>
<g id="a_Node000021"><a xlink:href="class_entity.html#a8f633bc5c2eb2f16b85b9ca166b63a32" target="_top" xlink:title=" ">
<polygon fill="white" stroke="#666666" points="1565.25,-58 1481.75,-58 1481.75,-38 1565.25,-38 1565.25,-58"/>
<text xml:space="preserve" text-anchor="middle" x="1523.5" y="-44.5" font-family="Helvetica,sans-Serif" font-size="10.00">Entity::serialize</text>
</a>
</g>
</g>
<!-- Node1&#45;&gt;Node21 -->
<g id="edge26_Node000001_Node000021" class="edge">
<title>Node1&#45;&gt;Node21</title>
<g id="a_edge26_Node000001_Node000021"><a xlink:title=" ">
<path fill="none" stroke="#63b8ff" d="M1616.78,-58.81C1599.34,-56.77 1581.21,-54.65 1565.67,-52.83"/>
<polygon fill="#63b8ff" stroke="#63b8ff" points="1616.25,-62.28 1626.59,-59.96 1617.07,-55.32 1616.25,-62.28"/>
</a>
</g>
</g>
<!-- Node22 -->
<g id="Node000022" class="node">
<title>Node22</title>
<g id="a_Node000022"><a xlink:href="class_relationship.html#a61fd3cf9518d2e93e4d0629269a37334" target="_top" xlink:title=" ">
<polygon fill="white" stroke="#666666" points="1579.5,-20 1467.5,-20 1467.5,0 1579.5,0 1579.5,-20"/>
<text xml:space="preserve" text-anchor="middle" x="1523.5" y="-6.5" font-family="Helvetica,sans-Serif" font-size="10.00">Relationship::serialize</text>
</a>
</g>
</g>
<!-- Node1&#45;&gt;Node22 -->
<g id="edge27_Node000001_Node000022" class="edge">
<title>Node1&#45;&gt;Node22</title>
<g id="a_edge27_Node000001_Node000022"><a xlink:title=" ">
<path fill="none" stroke="#63b8ff" d="M1652.41,-52.17C1634.64,-44.74 1612.47,-35.88 1592.25,-29 1583.35,-25.97 1573.67,-23.04 1564.49,-20.43"/>
<polygon fill="#63b8ff" stroke="#63b8ff" points="1650.88,-55.33 1661.45,-55.99 1653.61,-48.88 1650.88,-55.33"/>
</a>
</g>
</g>
<!-- Node3 -->
<g id="Node000003" class="node">
<title>Node3</title>
<g id="a_Node000003"><a xlink:href="class_json_helper.html#a3dc80512edb9b1f8bc8e50015e27e864" target="_top" xlink:title=" ">
<polygon fill="white" stroke="#666666" points="1418.75,-168 1281.25,-168 1281.25,-136 1418.75,-136 1418.75,-168"/>
<text xml:space="preserve" text-anchor="start" x="1289.25" y="-154.5" font-family="Helvetica,sans-Serif" font-size="10.00">JsonHelper::diagramToJson</text>
<text xml:space="preserve" text-anchor="middle" x="1350" y="-142.5" font-family="Helvetica,sans-Serif" font-size="10.00">Object</text>
</a>
</g>
</g>
<!-- Node2&#45;&gt;Node3 -->
<g id="edge2_Node000002_Node000003" class="edge">
<title>Node2&#45;&gt;Node3</title>
<g id="a_edge2_Node000002_Node000003"><a xlink:title=" ">
<path fill="none" stroke="#63b8ff" d="M1443.36,-140.15C1435.27,-141.19 1427.09,-142.24 1419.13,-143.26"/>
<polygon fill="#63b8ff" stroke="#63b8ff" points="1443.74,-143.63 1453.22,-138.89 1442.85,-136.69 1443.74,-143.63"/>
</a>
</g>
</g>
<!-- Node19 -->
<g id="Node000019" class="node">
<title>Node19</title>
<g id="a_Node000019"><a xlink:href="class_json_helper.html#a4fad5a49a87d6b35e12d37cee38e5e2e" target="_top" xlink:title=" ">
<polygon fill="white" stroke="#666666" points="1418.75,-118 1281.25,-118 1281.25,-98 1418.75,-98 1418.75,-118"/>
<text xml:space="preserve" text-anchor="middle" x="1350" y="-104.5" font-family="Helvetica,sans-Serif" font-size="10.00">JsonHelper::elementToJson</text>
</a>
</g>
</g>
<!-- Node2&#45;&gt;Node19 -->
<g id="edge24_Node000002_Node000019" class="edge">
<title>Node2&#45;&gt;Node19</title>
<g id="a_edge24_Node000002_Node000019"><a xlink:title=" ">
<path fill="none" stroke="#63b8ff" d="M1443.36,-119.85C1435.27,-118.81 1427.09,-117.76 1419.13,-116.74"/>
<polygon fill="#63b8ff" stroke="#63b8ff" points="1442.85,-123.31 1453.22,-121.11 1443.74,-116.37 1442.85,-123.31"/>
</a>
</g>
</g>
<!-- Node4 -->
<g id="Node000004" class="node">
<title>Node4</title>
<g id="a_Node000004"><a xlink:href="class_json_helper.html#a27d74ef624077d3187ef066a8867ba70" target="_top" xlink:title=" ">
<polygon fill="white" stroke="#666666" points="1236.25,-181 1098.75,-181 1098.75,-161 1236.25,-161 1236.25,-181"/>
<text xml:space="preserve" text-anchor="middle" x="1167.5" y="-167.5" font-family="Helvetica,sans-Serif" font-size="10.00">JsonHelper::diagramToJson</text>
</a>
</g>
</g>
<!-- Node3&#45;&gt;Node4 -->
<g id="edge3_Node000003_Node000004" class="edge">
<title>Node3&#45;&gt;Node4</title>
<g id="a_edge3_Node000003_Node000004"><a xlink:title=" ">
<path fill="none" stroke="#63b8ff" d="M1269.43,-160.38C1258.46,-161.53 1247.27,-162.71 1236.54,-163.84"/>
<polygon fill="#63b8ff" stroke="#63b8ff" points="1269.68,-163.87 1279.26,-159.34 1268.94,-156.91 1269.68,-163.87"/>
</a>
</g>
</g>
<!-- Node5 -->
<g id="Node000005" class="node">
<title>Node5</title>
<g id="a_Node000005"><a xlink:href="class_json_helper.html#a7f720f1105f91b135fdfbcaf94e3f929" target="_top" xlink:title=" ">
<polygon fill="white" stroke="#666666" points="1245.25,-143 1089.75,-143 1089.75,-123 1245.25,-123 1245.25,-143"/>
<text xml:space="preserve" text-anchor="middle" x="1167.5" y="-129.5" font-family="Helvetica,sans-Serif" font-size="10.00">JsonHelper::saveDiagramToFile</text>
</a>
</g>
</g>
<!-- Node3&#45;&gt;Node5 -->
<g id="edge4_Node000003_Node000005" class="edge">
<title>Node3&#45;&gt;Node5</title>
<g id="a_edge4_Node000003_Node000005"><a xlink:title=" ">
<path fill="none" stroke="#63b8ff" d="M1269.32,-143.61C1261.45,-142.78 1253.46,-141.94 1245.61,-141.12"/>
<polygon fill="#63b8ff" stroke="#63b8ff" points="1268.94,-147.09 1279.26,-144.66 1269.68,-140.13 1268.94,-147.09"/>
</a>
</g>
</g>
<!-- Node6 -->
<g id="Node000006" class="node">
<title>Node6</title>
<g id="a_Node000006"><a xlink:href="class_main_window.html#a464aaa4d378e7b2d814756a73d6e1ed6" target="_top" xlink:title=" ">
<polygon fill="white" stroke="#666666" points="1029,-181 914,-181 914,-161 1029,-161 1029,-181"/>
<text xml:space="preserve" text-anchor="middle" x="971.5" y="-167.5" font-family="Helvetica,sans-Serif" font-size="10.00">MainWindow::saveFile</text>
</a>
</g>
</g>
<!-- Node5&#45;&gt;Node6 -->
<g id="edge5_Node000005_Node000006" class="edge">
<title>Node5&#45;&gt;Node6</title>
<g id="a_edge5_Node000005_Node000006"><a xlink:title=" ">
<path fill="none" stroke="#63b8ff" d="M1101.88,-145.66C1077.2,-150.49 1049.37,-155.94 1025.85,-160.55"/>
<polygon fill="#63b8ff" stroke="#63b8ff" points="1102.35,-149.13 1111.49,-143.78 1101,-142.26 1102.35,-149.13"/>
</a>
</g>
</g>
<!-- Node15 -->
<g id="Node000015" class="node">
<title>Node15</title>
<g id="a_Node000015"><a xlink:href="class_main_window.html#a101685dce06592fd3a51da45fc7be4ad" target="_top" xlink:title=" ">
<polygon fill="white" stroke="#666666" points="1044.75,-143 898.25,-143 898.25,-123 1044.75,-123 1044.75,-143"/>
<text xml:space="preserve" text-anchor="middle" x="971.5" y="-129.5" font-family="Helvetica,sans-Serif" font-size="10.00">MainWindow::saveToMainFile</text>
</a>
</g>
</g>
<!-- Node5&#45;&gt;Node15 -->
<g id="edge18_Node000005_Node000015" class="edge">
<title>Node5&#45;&gt;Node15</title>
<g id="a_edge18_Node000005_Node000015"><a xlink:title=" ">
<path fill="none" stroke="#63b8ff" d="M1077.89,-133C1066.9,-133 1055.76,-133 1045.05,-133"/>
<polygon fill="#63b8ff" stroke="#63b8ff" points="1077.76,-136.5 1087.76,-133 1077.76,-129.5 1077.76,-136.5"/>
</a>
</g>
</g>
<!-- Node18 -->
<g id="Node000018" class="node">
<title>Node18</title>
<g id="a_Node000018"><a xlink:href="class_main_window.html#ab38b9b1c96adcb0bbbbaec5b3ff5ae19" target="_top" xlink:title=" ">
<polygon fill="white" stroke="#666666" points="1053.75,-105 889.25,-105 889.25,-85 1053.75,-85 1053.75,-105"/>
<text xml:space="preserve" text-anchor="middle" x="971.5" y="-91.5" font-family="Helvetica,sans-Serif" font-size="10.00">MainWindow::saveVersionBackup</text>
</a>
</g>
</g>
<!-- Node5&#45;&gt;Node18 -->
<g id="edge22_Node000005_Node000018" class="edge">
<title>Node5&#45;&gt;Node18</title>
<g id="a_edge22_Node000005_Node000018"><a xlink:title=" ">
<path fill="none" stroke="#63b8ff" d="M1101.88,-120.34C1077.2,-115.51 1049.37,-110.06 1025.85,-105.45"/>
<polygon fill="#63b8ff" stroke="#63b8ff" points="1101,-123.74 1111.49,-122.22 1102.35,-116.87 1101,-123.74"/>
</a>
</g>
</g>
<!-- Node7 -->
<g id="Node000007" class="node">
<title>Node7</title>
<g id="a_Node000007"><a xlink:href="class_main_window.html#a05fb9d72c044aa3bb7d187b994704e2f" target="_top" xlink:title=" ">
<polygon fill="white" stroke="#666666" points="830.75,-295 703.75,-295 703.75,-275 830.75,-275 830.75,-295"/>
<text xml:space="preserve" text-anchor="middle" x="767.25" y="-281.5" font-family="Helvetica,sans-Serif" font-size="10.00">MainWindow::closeEvent</text>
</a>
</g>
</g>
<!-- Node6&#45;&gt;Node7 -->
<g id="edge6_Node000006_Node000007" class="edge">
<title>Node6&#45;&gt;Node7</title>
<g id="a_edge6_Node000006_Node000007"><a xlink:title=" ">
<path fill="none" stroke="#63b8ff" d="M951.78,-189.06C929.84,-209.29 891.58,-241.77 853.25,-261 842.01,-266.64 829.25,-271.13 817.1,-274.62"/>
<polygon fill="#63b8ff" stroke="#63b8ff" points="954.14,-191.64 959.03,-182.25 949.35,-186.54 954.14,-191.64"/>
</a>
</g>
</g>
<!-- Node8 -->
<g id="Node000008" class="node">
<title>Node8</title>
<g id="a_Node000008"><a xlink:href="class_main_window.html#aaf455232cccaa422fc4c371fa99bff84" target="_top" xlink:title=" ">
<polygon fill="white" stroke="#666666" points="645.25,-181 500.25,-181 500.25,-161 645.25,-161 645.25,-181"/>
<text xml:space="preserve" text-anchor="middle" x="572.75" y="-167.5" font-family="Helvetica,sans-Serif" font-size="10.00">MainWindow::createFileMenu</text>
</a>
</g>
</g>
<!-- Node6&#45;&gt;Node8 -->
<g id="edge7_Node000006_Node000008" class="edge">
<title>Node6&#45;&gt;Node8</title>
<g id="a_edge7_Node000006_Node000008"><a xlink:title=" ">
<path fill="none" stroke="#63b8ff" d="M945.44,-187.35C922.51,-201.27 887.11,-220.21 853.25,-228 778.75,-245.15 755.43,-246.45 681.25,-228 644.97,-218.98 607.47,-195.18 587.78,-181.36"/>
<polygon fill="#63b8ff" stroke="#63b8ff" points="947.13,-190.42 953.76,-182.17 943.42,-184.48 947.13,-190.42"/>
</a>
</g>
</g>
<!-- Node12 -->
<g id="Node000012" class="node">
<title>Node12</title>
<g id="a_Node000012"><a xlink:href="class_main_window.html#a69f73b93cc05c89a9ae1be0161105982" target="_top" xlink:title=" ">
<polygon fill="white" stroke="#666666" points="823.25,-219 711.25,-219 711.25,-199 823.25,-199 823.25,-219"/>
<text xml:space="preserve" text-anchor="middle" x="767.25" y="-205.5" font-family="Helvetica,sans-Serif" font-size="10.00">MainWindow::newFile</text>
</a>
</g>
</g>
<!-- Node6&#45;&gt;Node12 -->
<g id="edge11_Node000006_Node000012" class="edge">
<title>Node6&#45;&gt;Node12</title>
<g id="a_edge11_Node000006_Node000012"><a xlink:title=" ">
<path fill="none" stroke="#63b8ff" d="M903.44,-183.6C877.51,-188.47 848.2,-193.98 823.52,-198.62"/>
<polygon fill="#63b8ff" stroke="#63b8ff" points="904.03,-187.05 913.21,-181.76 902.74,-180.17 904.03,-187.05"/>
</a>
</g>
</g>
<!-- Node13 -->
<g id="Node000013" class="node">
<title>Node13</title>
<g id="a_Node000013"><a xlink:href="class_main_window.html#a288b768c3c21a9171bdc56fe845ece8b" target="_top" xlink:title=" ">
<polygon fill="white" stroke="#666666" points="824.75,-181 709.75,-181 709.75,-161 824.75,-161 824.75,-181"/>
<text xml:space="preserve" text-anchor="middle" x="767.25" y="-167.5" font-family="Helvetica,sans-Serif" font-size="10.00">MainWindow::openFile</text>
</a>
</g>
</g>
<!-- Node6&#45;&gt;Node13 -->
<g id="edge13_Node000006_Node000013" class="edge">
<title>Node6&#45;&gt;Node13</title>
<g id="a_edge13_Node000006_Node000013"><a xlink:title=" ">
<path fill="none" stroke="#63b8ff" d="M902.33,-171C877.21,-171 849.05,-171 825.05,-171"/>
<polygon fill="#63b8ff" stroke="#63b8ff" points="902.11,-174.5 912.11,-171 902.11,-167.5 902.11,-174.5"/>
</a>
</g>
</g>
<!-- Node14 -->
<g id="Node000014" class="node">
<title>Node14</title>
<g id="a_Node000014"><a xlink:href="class_main_window.html#ace1b7624a64f4d70513b86601e5846f9" target="_top" xlink:title=" ">
<polygon fill="white" stroke="#666666" points="830.75,-143 703.75,-143 703.75,-123 830.75,-123 830.75,-143"/>
<text xml:space="preserve" text-anchor="middle" x="767.25" y="-129.5" font-family="Helvetica,sans-Serif" font-size="10.00">MainWindow::saveAsFile</text>
</a>
</g>
</g>
<!-- Node6&#45;&gt;Node14 -->
<g id="edge15_Node000006_Node000014" class="edge">
<title>Node6&#45;&gt;Node14</title>
<g id="a_edge15_Node000006_Node000014"><a xlink:title=" ">
<path fill="none" stroke="#63b8ff" d="M930.01,-157.86C901.7,-151.24 863.36,-143.78 831.1,-138.51"/>
<polygon fill="#63b8ff" stroke="#63b8ff" points="929.08,-161.24 939.62,-160.19 930.72,-154.44 929.08,-161.24"/>
</a>
</g>
</g>
<!-- Node9 -->
<g id="Node000009" class="node">
<title>Node9</title>
<g id="a_Node000009"><a xlink:href="class_main_window.html#a2305527bb5d827ae07967ea1c86ee6fb" target="_top" xlink:title=" ">
<polygon fill="white" stroke="#666666" points="463.88,-180 319.62,-180 319.62,-160 463.88,-160 463.88,-180"/>
<text xml:space="preserve" text-anchor="middle" x="391.75" y="-166.5" font-family="Helvetica,sans-Serif" font-size="10.00">MainWindow::createMenuBar</text>
</a>
</g>
</g>
<!-- Node8&#45;&gt;Node9 -->
<g id="edge8_Node000008_Node000009" class="edge">
<title>Node8&#45;&gt;Node9</title>
<g id="a_edge8_Node000008_Node000009"><a xlink:title=" ">
<path fill="none" stroke="#63b8ff" d="M488.56,-170.54C480.44,-170.49 472.24,-170.44 464.25,-170.4"/>
<polygon fill="#63b8ff" stroke="#63b8ff" points="488.44,-174.03 498.46,-170.59 488.48,-167.03 488.44,-174.03"/>
</a>
</g>
</g>
<!-- Node10 -->
<g id="Node000010" class="node">
<title>Node10</title>
<g id="a_Node000010"><a xlink:href="class_main_window.html#a3a304253c9e7caeef028f75358bf1fd5" target="_top" xlink:title=" ">
<polygon fill="white" stroke="#666666" points="283.25,-178 170.5,-178 170.5,-158 283.25,-158 283.25,-178"/>
<text xml:space="preserve" text-anchor="middle" x="226.88" y="-164.5" font-family="Helvetica,sans-Serif" font-size="10.00">MainWindow::setupUI</text>
</a>
</g>
</g>
<!-- Node9&#45;&gt;Node10 -->
<g id="edge9_Node000009_Node000010" class="edge">
<title>Node9&#45;&gt;Node10</title>
<g id="a_edge9_Node000009_Node000010"><a xlink:title=" ">
<path fill="none" stroke="#63b8ff" d="M308.04,-168.98C299.76,-168.88 291.49,-168.78 283.59,-168.68"/>
<polygon fill="#63b8ff" stroke="#63b8ff" points="307.75,-172.48 317.8,-169.1 307.84,-165.48 307.75,-172.48"/>
</a>
</g>
</g>
<!-- Node11 -->
<g id="Node000011" class="node">
<title>Node11</title>
<g id="a_Node000011"><a xlink:href="class_main_window.html#a996c5a2b6f77944776856f08ec30858d" target="_top" xlink:title=" ">
<polygon fill="white" stroke="#666666" points="134.5,-154 0,-154 0,-134 134.5,-134 134.5,-154"/>
<text xml:space="preserve" text-anchor="middle" x="67.25" y="-140.5" font-family="Helvetica,sans-Serif" font-size="10.00">MainWindow::MainWindow</text>
</a>
</g>
</g>
<!-- Node10&#45;&gt;Node11 -->
<g id="edge10_Node000010_Node000011" class="edge">
<title>Node10&#45;&gt;Node11</title>
<g id="a_edge10_Node000010_Node000011"><a xlink:title=" ">
<path fill="none" stroke="#63b8ff" d="M159.13,-157.84C151.12,-156.62 142.94,-155.37 134.94,-154.15"/>
<polygon fill="#63b8ff" stroke="#63b8ff" points="158.39,-161.27 168.81,-159.31 159.45,-154.35 158.39,-161.27"/>
</a>
</g>
</g>
<!-- Node12&#45;&gt;Node8 -->
<g id="edge12_Node000012_Node000008" class="edge">
<title>Node12&#45;&gt;Node8</title>
<g id="a_edge12_Node000012_Node000008"><a xlink:title=" ">
<path fill="none" stroke="#63b8ff" d="M702.13,-196.34C677.65,-191.51 650.02,-186.06 626.69,-181.45"/>
<polygon fill="#63b8ff" stroke="#63b8ff" points="701.17,-199.72 711.65,-198.22 702.52,-192.85 701.17,-199.72"/>
</a>
</g>
</g>
<!-- Node13&#45;&gt;Node8 -->
<g id="edge14_Node000013_Node000008" class="edge">
<title>Node13&#45;&gt;Node8</title>
<g id="a_edge14_Node000013_Node000008"><a xlink:title=" ">
<path fill="none" stroke="#63b8ff" d="M697.79,-171C680.87,-171 662.7,-171 645.63,-171"/>
<polygon fill="#63b8ff" stroke="#63b8ff" points="697.76,-174.5 707.76,-171 697.76,-167.5 697.76,-174.5"/>
</a>
</g>
</g>
<!-- Node14&#45;&gt;Node6 -->
<g id="edge17_Node000014_Node000006" class="edge">
<title>Node14&#45;&gt;Node6</title>
<g id="a_edge17_Node000014_Node000006"><a xlink:title=" ">
<path fill="none" stroke="#63b8ff" d="M808.56,-146.09C838.64,-153.14 880.16,-161.15 913.62,-166.45"/>
<polygon fill="#63b8ff" stroke="#63b8ff" points="809.64,-142.75 799.1,-143.8 807.99,-149.56 809.64,-142.75"/>
</a>
</g>
</g>
<!-- Node14&#45;&gt;Node8 -->
<g id="edge16_Node000014_Node000008" class="edge">
<title>Node14&#45;&gt;Node8</title>
<g id="a_edge16_Node000014_Node000008"><a xlink:title=" ">
<path fill="none" stroke="#63b8ff" d="M702.13,-145.66C677.65,-150.49 650.02,-155.94 626.69,-160.55"/>
<polygon fill="#63b8ff" stroke="#63b8ff" points="702.52,-149.15 711.65,-143.78 701.17,-142.28 702.52,-149.15"/>
</a>
</g>
</g>
<!-- Node16 -->
<g id="Node000016" class="node">
<title>Node16</title>
<g id="a_Node000016"><a xlink:href="class_main_window.html#aaf47b9efe07432c5b5e1695954bee116" target="_top" xlink:title=" ">
<polygon fill="white" stroke="#666666" points="853.25,-105 681.25,-105 681.25,-85 853.25,-85 853.25,-105"/>
<text xml:space="preserve" text-anchor="middle" x="767.25" y="-91.5" font-family="Helvetica,sans-Serif" font-size="10.00">MainWindow::onAutoSaveTriggered</text>
</a>
</g>
</g>
<!-- Node15&#45;&gt;Node16 -->
<g id="edge19_Node000015_Node000016" class="edge">
<title>Node15&#45;&gt;Node16</title>
<g id="a_edge19_Node000015_Node000016"><a xlink:title=" ">
<path fill="none" stroke="#63b8ff" d="M903.48,-120.41C877.67,-115.56 848.49,-110.08 823.87,-105.45"/>
<polygon fill="#63b8ff" stroke="#63b8ff" points="902.74,-123.83 913.21,-122.24 904.03,-116.95 902.74,-123.83"/>
</a>
</g>
</g>
<!-- Node17 -->
<g id="Node000017" class="node">
<title>Node17</title>
<g id="a_Node000017"><a xlink:href="class_main_window.html#a7e65ffe1e01feb35cb7da90085d57f04" target="_top" xlink:title=" ">
<polygon fill="white" stroke="#666666" points="464.25,-126 319.25,-126 319.25,-106 464.25,-106 464.25,-126"/>
<text xml:space="preserve" text-anchor="middle" x="391.75" y="-112.5" font-family="Helvetica,sans-Serif" font-size="10.00">MainWindow::setupAutoSave</text>
</a>
</g>
</g>
<!-- Node16&#45;&gt;Node17 -->
<g id="edge20_Node000016_Node000017" class="edge">
<title>Node16&#45;&gt;Node17</title>
<g id="a_edge20_Node000016_Node000017"><a xlink:title=" ">
<path fill="none" stroke="#63b8ff" d="M669.71,-100.43C605.67,-104.03 523.01,-108.68 464.72,-111.95"/>
<polygon fill="#63b8ff" stroke="#63b8ff" points="669.73,-103.93 679.52,-99.88 669.34,-96.94 669.73,-103.93"/>
</a>
</g>
</g>
<!-- Node17&#45;&gt;Node11 -->
<g id="edge21_Node000017_Node000011" class="edge">
<title>Node17&#45;&gt;Node11</title>
<g id="a_edge21_Node000017_Node000011"><a xlink:title=" ">
<path fill="none" stroke="#63b8ff" d="M307.55,-123.22C253.83,-127.89 184.86,-133.88 134.78,-138.22"/>
<polygon fill="#63b8ff" stroke="#63b8ff" points="307.61,-126.73 317.27,-122.38 307,-119.76 307.61,-126.73"/>
</a>
</g>
</g>
<!-- Node18&#45;&gt;Node16 -->
<g id="edge23_Node000018_Node000016" class="edge">
<title>Node18&#45;&gt;Node16</title>
<g id="a_edge23_Node000018_Node000016"><a xlink:title=" ">
<path fill="none" stroke="#63b8ff" d="M877.56,-95C869.56,-95 861.48,-95 853.53,-95"/>
<polygon fill="#63b8ff" stroke="#63b8ff" points="877.31,-98.5 887.31,-95 877.31,-91.5 877.31,-98.5"/>
</a>
</g>
</g>
</g>
</svg>
