<?xml version="1.0" encoding="UTF-8" standalone="no"?>
<!DOCTYPE svg PUBLIC "-//W3C//DTD SVG 1.1//EN"
 "http://www.w3.org/Graphics/SVG/1.1/DTD/svg11.dtd">
<!-- Generated by graphviz version 14.1.1 (20251213.1925)
 -->
<!-- Title: DiagramScene::addElement Pages: 1 -->
<svg width="688pt" height="116pt"
 viewBox="0.00 0.00 688.00 116.00" xmlns="http://www.w3.org/2000/svg" xmlns:xlink="http://www.w3.org/1999/xlink">
<g id="graph0" class="graph" transform="scale(1 1) rotate(0) translate(4 112)">
<title>DiagramScene::addElement</title>
<!-- Node1 -->
<g id="Node000001" class="node">
<title>Node1</title>
<g id="a_Node000001"><a xlink:title=" ">
<polygon fill="#999999" stroke="#666666" points="679.75,-70 541.5,-70 541.5,-50 679.75,-50 679.75,-70"/>
<text xml:space="preserve" text-anchor="middle" x="610.62" y="-56.5" font-family="Helvetica,sans-Serif" font-size="10.00">DiagramScene::addElement</text>
</a>
</g>
</g>
<!-- Node2 -->
<g id="Node000002" class="node">
<title>Node2</title>
<g id="a_Node000002"><a xlink:href="class_diagram_scene.html#a7875efc4949e17967d9e11786b146cc9" target="_top" xlink:title=" ">
<polygon fill="white" stroke="#666666" points="500.25,-108 336.5,-108 336.5,-88 500.25,-88 500.25,-108"/>
<text xml:space="preserve" text-anchor="middle" x="418.38" y="-94.5" font-family="Helvetica,sans-Serif" font-size="10.00">DiagramScene::duplicateSelected</text>
</a>
</g>
</g>
<!-- Node1&#45;&gt;Node2 -->
<g id="edge1_Node000001_Node000002" class="edge">
<title>Node1&#45;&gt;Node2</title>
<g id="a_edge1_Node000001_Node000002"><a xlink:title=" ">
<path fill="none" stroke="#63b8ff" d="M545.93,-72.72C521.81,-77.54 494.65,-82.96 471.69,-87.55"/>
<polygon fill="#63b8ff" stroke="#63b8ff" points="546.53,-76.17 555.65,-70.78 545.16,-69.31 546.53,-76.17"/>
</a>
</g>
</g>
<!-- Node4 -->
<g id="Node000004" class="node">
<title>Node4</title>
<g id="a_Node000004"><a xlink:href="class_diagram_serializer.html#a2197514d6c716bf484314a2ee9a3d8c1" target="_top" xlink:title=" ">
<polygon fill="white" stroke="#666666" points="468,-32 368.75,-32 368.75,0 468,0 468,-32"/>
<text xml:space="preserve" text-anchor="start" x="376.75" y="-18.5" font-family="Helvetica,sans-Serif" font-size="10.00">DiagramSerializer::</text>
<text xml:space="preserve" text-anchor="middle" x="418.38" y="-6.5" font-family="Helvetica,sans-Serif" font-size="10.00">loadElements</text>
</a>
</g>
</g>
<!-- Node1&#45;&gt;Node4 -->
<g id="edge3_Node000001_Node000004" class="edge">
<title>Node1&#45;&gt;Node4</title>
<g id="a_edge3_Node000001_Node000004"><a xlink:title=" ">
<path fill="none" stroke="#63b8ff" d="M553.33,-46.98C526.38,-40.75 494.42,-33.36 468.48,-27.36"/>
<polygon fill="#63b8ff" stroke="#63b8ff" points="552.53,-50.39 563.06,-49.23 554.11,-43.57 552.53,-50.39"/>
</a>
</g>
</g>
<!-- Node7 -->
<g id="Node000007" class="node">
<title>Node7</title>
<g id="a_Node000007"><a xlink:href="class_diagram_scene.html#a61e7061e5add947d09ad87feaf2b8dc1" target="_top" xlink:title=" ">
<polygon fill="white" stroke="#666666" points="505.5,-70 331.25,-70 331.25,-50 505.5,-50 505.5,-70"/>
<text xml:space="preserve" text-anchor="middle" x="418.38" y="-56.5" font-family="Helvetica,sans-Serif" font-size="10.00">DiagramScene::pasteFromClipboard</text>
</a>
</g>
</g>
<!-- Node1&#45;&gt;Node7 -->
<g id="edge6_Node000001_Node000007" class="edge">
<title>Node1&#45;&gt;Node7</title>
<g id="a_edge6_Node000001_Node000007"><a xlink:title=" ">
<path fill="none" stroke="#63b8ff" d="M529.73,-60C521.8,-60 513.73,-60 505.74,-60"/>
<polygon fill="#63b8ff" stroke="#63b8ff" points="529.7,-63.5 539.7,-60 529.7,-56.5 529.7,-63.5"/>
</a>
</g>
</g>
<!-- Node3 -->
<g id="Node000003" class="node">
<title>Node3</title>
<g id="a_Node000003"><a xlink:href="class_diagram_scene.html#a074e1181353b257a18ea2d243b459a47" target="_top" xlink:title=" ">
<polygon fill="white" stroke="#666666" points="295.25,-89 142,-89 142,-69 295.25,-69 295.25,-89"/>
<text xml:space="preserve" text-anchor="middle" x="218.62" y="-75.5" font-family="Helvetica,sans-Serif" font-size="10.00">DiagramScene::keyPressEvent</text>
</a>
</g>
</g>
<!-- Node2&#45;&gt;Node3 -->
<g id="edge2_Node000002_Node000003" class="edge">
<title>Node2&#45;&gt;Node3</title>
<g id="a_edge2_Node000002_Node000003"><a xlink:title=" ">
<path fill="none" stroke="#63b8ff" d="M324.68,-89.09C314.91,-88.15 305.06,-87.21 295.51,-86.29"/>
<polygon fill="#63b8ff" stroke="#63b8ff" points="324.29,-92.57 334.58,-90.04 324.96,-85.6 324.29,-92.57"/>
</a>
</g>
</g>
<!-- Node5 -->
<g id="Node000005" class="node">
<title>Node5</title>
<g id="a_Node000005"><a xlink:href="class_diagram_serializer.html#a003be4c7f5d036e58e3fa047d1d9b0d8" target="_top" xlink:title=" ">
<polygon fill="white" stroke="#666666" points="268.25,-32 169,-32 169,0 268.25,0 268.25,-32"/>
<text xml:space="preserve" text-anchor="start" x="177" y="-18.5" font-family="Helvetica,sans-Serif" font-size="10.00">DiagramSerializer::</text>
<text xml:space="preserve" text-anchor="middle" x="218.62" y="-6.5" font-family="Helvetica,sans-Serif" font-size="10.00">loadDiagram</text>
</a>
</g>
</g>
<!-- Node4&#45;&gt;Node5 -->
<g id="edge4_Node000004_Node000005" class="edge">
<title>Node4&#45;&gt;Node5</title>
<g id="a_edge4_Node000004_Node000005"><a xlink:title=" ">
<path fill="none" stroke="#63b8ff" d="M357.09,-16C328.75,-16 295.39,-16 268.63,-16"/>
<polygon fill="#63b8ff" stroke="#63b8ff" points="356.98,-19.5 366.98,-16 356.98,-12.5 356.98,-19.5"/>
</a>
</g>
</g>
<!-- Node6 -->
<g id="Node000006" class="node">
<title>Node6</title>
<g id="a_Node000006"><a xlink:href="class_diagram_file_manager.html#a24c0e01d7ac53866944eb10948286ed9" target="_top" xlink:title=" ">
<polygon fill="white" stroke="#666666" points="106,-32 0,-32 0,0 106,0 106,-32"/>
<text xml:space="preserve" text-anchor="start" x="8" y="-18.5" font-family="Helvetica,sans-Serif" font-size="10.00">DiagramFileManager</text>
<text xml:space="preserve" text-anchor="middle" x="53" y="-6.5" font-family="Helvetica,sans-Serif" font-size="10.00">::openDiagram</text>
</a>
</g>
</g>
<!-- Node5&#45;&gt;Node6 -->
<g id="edge5_Node000005_Node000006" class="edge">
<title>Node5&#45;&gt;Node6</title>
<g id="a_edge5_Node000005_Node000006"><a xlink:title=" ">
<path fill="none" stroke="#63b8ff" d="M157.24,-16C140.58,-16 122.65,-16 106.48,-16"/>
<polygon fill="#63b8ff" stroke="#63b8ff" points="157.02,-19.5 167.02,-16 157.02,-12.5 157.02,-19.5"/>
</a>
</g>
</g>
<!-- Node7&#45;&gt;Node3 -->
<g id="edge7_Node000007_Node000003" class="edge">
<title>Node7&#45;&gt;Node3</title>
<g id="a_edge7_Node000007_Node000003"><a xlink:title=" ">
<path fill="none" stroke="#63b8ff" d="M319.59,-69.4C311.55,-70.17 303.5,-70.94 295.66,-71.69"/>
<polygon fill="#63b8ff" stroke="#63b8ff" points="319.8,-72.89 329.42,-68.45 319.13,-65.92 319.8,-72.89"/>
</a>
</g>
</g>
</g>
</svg>
