<?xml version="1.0" encoding="UTF-8" standalone="no"?>
<!DOCTYPE svg PUBLIC "-//W3C//DTD SVG 1.1//EN"
 "http://www.w3.org/Graphics/SVG/1.1/DTD/svg11.dtd">
<!-- Generated by graphviz version 14.1.1 (20251213.1925)
 -->
<!-- Title: DiagramScene::removeElement Pages: 1 -->
<svg width="956pt" height="160pt"
 viewBox="0.00 0.00 956.00 160.00" xmlns="http://www.w3.org/2000/svg" xmlns:xlink="http://www.w3.org/1999/xlink">
<g id="graph0" class="graph" transform="scale(1 1) rotate(0) translate(4 156)">
<title>DiagramScene::removeElement</title>
<!-- Node1 -->
<g id="Node000001" class="node">
<title>Node1</title>
<g id="a_Node000001"><a xlink:title=" ">
<polygon fill="#999999" stroke="#666666" points="154.75,-121 0,-121 0,-101 154.75,-101 154.75,-121"/>
<text xml:space="preserve" text-anchor="middle" x="77.38" y="-107.5" font-family="Helvetica,sans-Serif" font-size="10.00">DiagramScene::removeElement</text>
</a>
</g>
</g>
<!-- Node2 -->
<g id="Node000002" class="node">
<title>Node2</title>
<g id="a_Node000002"><a xlink:href="class_diagram_scene.html#ad8f482915e4991d8ba601f691086fbdc" target="_top" xlink:title=" ">
<polygon fill="white" stroke="#666666" points="346.25,-152 190.75,-152 190.75,-120 346.25,-120 346.25,-152"/>
<text xml:space="preserve" text-anchor="start" x="198.75" y="-138.5" font-family="Helvetica,sans-Serif" font-size="10.00">DiagramScene::removeAttribute</text>
<text xml:space="preserve" text-anchor="middle" x="268.5" y="-126.5" font-family="Helvetica,sans-Serif" font-size="10.00">FromParents</text>
</a>
</g>
</g>
<!-- Node1&#45;&gt;Node2 -->
<g id="edge1_Node000001_Node000002" class="edge">
<title>Node1&#45;&gt;Node2</title>
<g id="a_edge1_Node000001_Node000002"><a xlink:title=" ">
<path fill="none" stroke="#63b8ff" d="M155.03,-121.13C162.96,-122.18 171.07,-123.25 179.12,-124.32"/>
<polygon fill="#63b8ff" stroke="#63b8ff" points="178.56,-127.77 188.93,-125.61 179.48,-120.83 178.56,-127.77"/>
</a>
</g>
</g>
<!-- Node3 -->
<g id="Node000003" class="node">
<title>Node3</title>
<g id="a_Node000003"><a xlink:href="class_diagram_scene.html#a0d026405c431d3aca9494d64296bb956" target="_top" xlink:title=" ">
<polygon fill="white" stroke="#666666" points="345.88,-102 191.12,-102 191.12,-70 345.88,-70 345.88,-102"/>
<text xml:space="preserve" text-anchor="start" x="199.12" y="-88.5" font-family="Helvetica,sans-Serif" font-size="10.00">DiagramScene::removeElement</text>
<text xml:space="preserve" text-anchor="middle" x="268.5" y="-76.5" font-family="Helvetica,sans-Serif" font-size="10.00">Connections</text>
</a>
</g>
</g>
<!-- Node1&#45;&gt;Node3 -->
<g id="edge2_Node000001_Node000003" class="edge">
<title>Node1&#45;&gt;Node3</title>
<g id="a_edge2_Node000001_Node000003"><a xlink:title=" ">
<path fill="none" stroke="#63b8ff" d="M155.03,-100.87C163.03,-99.81 171.21,-98.73 179.33,-97.66"/>
<polygon fill="#63b8ff" stroke="#63b8ff" points="179.78,-101.13 189.24,-96.35 178.87,-94.19 179.78,-101.13"/>
</a>
</g>
</g>
<!-- Node4 -->
<g id="Node000004" class="node">
<title>Node4</title>
<g id="a_Node000004"><a xlink:href="class_diagram_scene.html#a40c9b85a9f304007a227b9db63178d08" target="_top" xlink:title=" ">
<polygon fill="white" stroke="#666666" points="549.38,-115 383.38,-115 383.38,-95 549.38,-95 549.38,-115"/>
<text xml:space="preserve" text-anchor="middle" x="466.38" y="-101.5" font-family="Helvetica,sans-Serif" font-size="10.00">DiagramScene::getAllConnections</text>
</a>
</g>
</g>
<!-- Node3&#45;&gt;Node4 -->
<g id="edge3_Node000003_Node000004" class="edge">
<title>Node3&#45;&gt;Node4</title>
<g id="a_edge3_Node000003_Node000004"><a xlink:title=" ">
<path fill="none" stroke="#63b8ff" d="M346.35,-93.45C354.61,-94.26 363.07,-95.08 371.49,-95.89"/>
<polygon fill="#63b8ff" stroke="#63b8ff" points="371.13,-99.37 381.42,-96.86 371.81,-92.41 371.13,-99.37"/>
</a>
</g>
</g>
<!-- Node5 -->
<g id="Node000005" class="node">
<title>Node5</title>
<g id="a_Node000005"><a xlink:href="class_diagram_scene.html#a5d546daf9d3a3d5155b611ec31c4dccb" target="_top" xlink:title=" ">
<polygon fill="white" stroke="#666666" points="550.5,-77 382.25,-77 382.25,-57 550.5,-57 550.5,-77"/>
<text xml:space="preserve" text-anchor="middle" x="466.38" y="-63.5" font-family="Helvetica,sans-Serif" font-size="10.00">DiagramScene::removeConnection</text>
</a>
</g>
</g>
<!-- Node3&#45;&gt;Node5 -->
<g id="edge4_Node000003_Node000005" class="edge">
<title>Node3&#45;&gt;Node5</title>
<g id="a_edge4_Node000003_Node000005"><a xlink:title=" ">
<path fill="none" stroke="#63b8ff" d="M346.35,-78.55C354.29,-77.78 362.43,-76.99 370.53,-76.2"/>
<polygon fill="#63b8ff" stroke="#63b8ff" points="370.83,-79.69 380.45,-75.24 370.15,-72.72 370.83,-79.69"/>
</a>
</g>
</g>
<!-- Node6 -->
<g id="Node000006" class="node">
<title>Node6</title>
<g id="a_Node000006"><a xlink:href="class_diagram_scene.html#af24fc3dc11041bb31e4f0627f0a09e75" target="_top" xlink:title=" ">
<polygon fill="white" stroke="#666666" points="746.88,-58 595.12,-58 595.12,-26 746.88,-26 746.88,-58"/>
<text xml:space="preserve" text-anchor="start" x="603.12" y="-44.5" font-family="Helvetica,sans-Serif" font-size="10.00">DiagramScene::handleAttribute</text>
<text xml:space="preserve" text-anchor="middle" x="671" y="-32.5" font-family="Helvetica,sans-Serif" font-size="10.00">Disconnection</text>
</a>
</g>
</g>
<!-- Node5&#45;&gt;Node6 -->
<g id="edge5_Node000005_Node000006" class="edge">
<title>Node5&#45;&gt;Node6</title>
<g id="a_edge5_Node000005_Node000006"><a xlink:title=" ">
<path fill="none" stroke="#63b8ff" d="M550.96,-56.69C561.72,-55.36 572.76,-54 583.56,-52.66"/>
<polygon fill="#63b8ff" stroke="#63b8ff" points="583.72,-56.17 593.22,-51.47 582.86,-49.22 583.72,-56.17"/>
</a>
</g>
</g>
<!-- Node10 -->
<g id="Node000010" class="node">
<title>Node10</title>
<g id="a_Node000010"><a xlink:href="class_diagram_scene.html#a244ffcbacfc985e542579c0e112cfd52" target="_top" xlink:title=" ">
<polygon fill="white" stroke="#666666" points="755.5,-108 586.5,-108 586.5,-76 755.5,-76 755.5,-108"/>
<text xml:space="preserve" text-anchor="start" x="594.5" y="-94.5" font-family="Helvetica,sans-Serif" font-size="10.00">DiagramScene::handleRelationship</text>
<text xml:space="preserve" text-anchor="middle" x="671" y="-82.5" font-family="Helvetica,sans-Serif" font-size="10.00">Disconnection</text>
</a>
</g>
</g>
<!-- Node5&#45;&gt;Node10 -->
<g id="edge9_Node000005_Node000010" class="edge">
<title>Node5&#45;&gt;Node10</title>
<g id="a_edge9_Node000005_Node000010"><a xlink:title=" ">
<path fill="none" stroke="#63b8ff" d="M550.96,-77.31C558.89,-78.29 566.97,-79.29 574.99,-80.28"/>
<polygon fill="#63b8ff" stroke="#63b8ff" points="574.42,-83.73 584.78,-81.49 575.28,-76.79 574.42,-83.73"/>
</a>
</g>
</g>
<!-- Node7 -->
<g id="Node000007" class="node">
<title>Node7</title>
<g id="a_Node000007"><a xlink:href="class_connection_line.html#ab11952b505976244aabc575e0ec7b118" target="_top" xlink:title=" ">
<polygon fill="white" stroke="#666666" points="947.75,-58 791.5,-58 791.5,-38 947.75,-38 947.75,-58"/>
<text xml:space="preserve" text-anchor="middle" x="869.62" y="-44.5" font-family="Helvetica,sans-Serif" font-size="10.00">ConnectionLine::getEndElement</text>
</a>
</g>
</g>
<!-- Node6&#45;&gt;Node7 -->
<g id="edge6_Node000006_Node000007" class="edge">
<title>Node6&#45;&gt;Node7</title>
<g id="a_edge6_Node000006_Node000007"><a xlink:title=" ">
<path fill="none" stroke="#63b8ff" d="M747.18,-44.29C757.88,-44.62 768.97,-44.96 779.9,-45.29"/>
<polygon fill="#63b8ff" stroke="#63b8ff" points="779.59,-48.78 789.69,-45.59 779.81,-41.79 779.59,-48.78"/>
</a>
</g>
</g>
<!-- Node8 -->
<g id="Node000008" class="node">
<title>Node8</title>
<g id="a_Node000008"><a xlink:href="class_connection_line.html#ad957be37b7bbb9250366225fd357a5a6" target="_top" xlink:title=" ">
<polygon fill="white" stroke="#666666" points="931.62,-108 807.62,-108 807.62,-76 931.62,-76 931.62,-108"/>
<text xml:space="preserve" text-anchor="start" x="815.62" y="-94.5" font-family="Helvetica,sans-Serif" font-size="10.00">ConnectionLine::getStart</text>
<text xml:space="preserve" text-anchor="middle" x="869.62" y="-82.5" font-family="Helvetica,sans-Serif" font-size="10.00">Element</text>
</a>
</g>
</g>
<!-- Node6&#45;&gt;Node8 -->
<g id="edge7_Node000006_Node000008" class="edge">
<title>Node6&#45;&gt;Node8</title>
<g id="a_edge7_Node000006_Node000008"><a xlink:title=" ">
<path fill="none" stroke="#63b8ff" d="M736.65,-58.44C755.74,-63.29 776.74,-68.64 796.28,-73.6"/>
<polygon fill="#63b8ff" stroke="#63b8ff" points="795.25,-76.95 805.8,-76.02 796.97,-70.17 795.25,-76.95"/>
</a>
</g>
</g>
<!-- Node9 -->
<g id="Node000009" class="node">
<title>Node9</title>
<g id="a_Node000009"><a xlink:href="class_connection_line.html#aea85162c28f293b1df0cce97d57bb471" target="_top" xlink:title=" ">
<polygon fill="white" stroke="#666666" points="928.62,-20 810.62,-20 810.62,0 928.62,0 928.62,-20"/>
<text xml:space="preserve" text-anchor="middle" x="869.62" y="-6.5" font-family="Helvetica,sans-Serif" font-size="10.00">ConnectionLine::isValid</text>
</a>
</g>
</g>
<!-- Node6&#45;&gt;Node9 -->
<g id="edge8_Node000006_Node000009" class="edge">
<title>Node6&#45;&gt;Node9</title>
<g id="a_edge8_Node000006_Node000009"><a xlink:title=" ">
<path fill="none" stroke="#63b8ff" d="M747.18,-29.77C764.34,-26.97 782.5,-24.02 799.4,-21.27"/>
<polygon fill="#63b8ff" stroke="#63b8ff" points="799.5,-24.8 808.81,-19.73 798.38,-17.89 799.5,-24.8"/>
</a>
</g>
</g>
<!-- Node10&#45;&gt;Node7 -->
<g id="edge10_Node000010_Node000007" class="edge">
<title>Node10&#45;&gt;Node7</title>
<g id="a_edge10_Node000010_Node000007"><a xlink:title=" ">
<path fill="none" stroke="#63b8ff" d="M745.5,-75.55C767.03,-70.73 790.27,-65.53 810.69,-60.96"/>
<polygon fill="#63b8ff" stroke="#63b8ff" points="811.25,-64.43 820.24,-58.83 809.72,-57.6 811.25,-64.43"/>
</a>
</g>
</g>
<!-- Node10&#45;&gt;Node8 -->
<g id="edge11_Node000010_Node000008" class="edge">
<title>Node10&#45;&gt;Node8</title>
<g id="a_edge11_Node000010_Node000008"><a xlink:title=" ">
<path fill="none" stroke="#63b8ff" d="M755.96,-92C769.28,-92 782.96,-92 795.99,-92"/>
<polygon fill="#63b8ff" stroke="#63b8ff" points="795.74,-95.5 805.74,-92 795.74,-88.5 795.74,-95.5"/>
</a>
</g>
</g>
</g>
</svg>
