<?xml version="1.0" encoding="UTF-8" standalone="no"?>
<!DOCTYPE svg PUBLIC "-//W3C//DTD SVG 1.1//EN"
 "http://www.w3.org/Graphics/SVG/1.1/DTD/svg11.dtd">
<!-- Generated by graphviz version 14.1.1 (20251213.1925)
 -->
<!-- Title: ElementFactory::createElement Pages: 1 -->
<svg width="2155pt" height="764pt"
 viewBox="0.00 0.00 2155.00 764.00" xmlns="http://www.w3.org/2000/svg" xmlns:xlink="http://www.w3.org/1999/xlink">
<g id="graph0" class="graph" transform="scale(1 1) rotate(0) translate(4 760)">
<title>ElementFactory::createElement</title>
<!-- Node1 -->
<g id="Node000001" class="node">
<title>Node1</title>
<g id="a_Node000001"><a xlink:title=" ">
<polygon fill="#999999" stroke="#666666" points="2146.5,-450 1992.5,-450 1992.5,-430 2146.5,-430 2146.5,-450"/>
<text xml:space="preserve" text-anchor="middle" x="2069.5" y="-436.5" font-family="Helvetica,sans-Serif" font-size="10.00">ElementFactory::createElement</text>
</a>
</g>
</g>
<!-- Node2 -->
<g id="Node000002" class="node">
<title>Node2</title>
<g id="a_Node000002"><a xlink:href="class_diagram_serializer.html#a2197514d6c716bf484314a2ee9a3d8c1" target="_top" xlink:title=" ">
<polygon fill="white" stroke="#666666" points="1925.38,-609 1826.12,-609 1826.12,-577 1925.38,-577 1925.38,-609"/>
<text xml:space="preserve" text-anchor="start" x="1834.12" y="-595.5" font-family="Helvetica,sans-Serif" font-size="10.00">DiagramSerializer::</text>
<text xml:space="preserve" text-anchor="middle" x="1875.75" y="-583.5" font-family="Helvetica,sans-Serif" font-size="10.00">loadElements</text>
</a>
</g>
</g>
<!-- Node1&#45;&gt;Node2 -->
<g id="edge1_Node000001_Node000002" class="edge">
<title>Node1&#45;&gt;Node2</title>
<g id="a_edge1_Node000001_Node000002"><a xlink:title=" ">
<path fill="none" stroke="#63b8ff" d="M2047.06,-457.11C2009.9,-486.76 1934.02,-547.31 1897.41,-576.52"/>
<polygon fill="#63b8ff" stroke="#63b8ff" points="2048.8,-460.19 2054.44,-451.22 2044.44,-454.72 2048.8,-460.19"/>
</a>
</g>
</g>
<!-- Node5 -->
<g id="Node000005" class="node">
<title>Node5</title>
<g id="a_Node000005"><a xlink:href="class_properties_panel.html#a55ae5c02e7d75c7bdc26281a148e8c5a" target="_top" xlink:title=" ">
<polygon fill="white" stroke="#666666" points="1953.5,-478 1798,-478 1798,-446 1953.5,-446 1953.5,-478"/>
<text xml:space="preserve" text-anchor="start" x="1806" y="-464.5" font-family="Helvetica,sans-Serif" font-size="10.00">PropertiesPanel::onAddAttribute</text>
<text xml:space="preserve" text-anchor="middle" x="1875.75" y="-452.5" font-family="Helvetica,sans-Serif" font-size="10.00">OnTreeClicked</text>
</a>
</g>
</g>
<!-- Node1&#45;&gt;Node5 -->
<g id="edge4_Node000001_Node000005" class="edge">
<title>Node1&#45;&gt;Node5</title>
<g id="a_edge4_Node000001_Node000005"><a xlink:title=" ">
<path fill="none" stroke="#63b8ff" d="M1980.81,-450.06C1971.78,-451.1 1962.66,-452.14 1953.76,-453.16"/>
<polygon fill="#63b8ff" stroke="#63b8ff" points="1981.12,-453.55 1990.66,-448.93 1980.33,-446.59 1981.12,-453.55"/>
</a>
</g>
</g>
<!-- Node28 -->
<g id="Node000028" class="node">
<title>Node28</title>
<g id="a_Node000028"><a xlink:href="class_main_window.html#a618482f2eb3e3a2eb8c5937f6374c79a" target="_top" xlink:title=" ">
<polygon fill="white" stroke="#666666" points="1946.75,-390 1804.75,-390 1804.75,-358 1946.75,-358 1946.75,-390"/>
<text xml:space="preserve" text-anchor="start" x="1812.75" y="-376.5" font-family="Helvetica,sans-Serif" font-size="10.00">MainWindow::onAddElement</text>
<text xml:space="preserve" text-anchor="middle" x="1875.75" y="-364.5" font-family="Helvetica,sans-Serif" font-size="10.00">Clicked</text>
</a>
</g>
</g>
<!-- Node1&#45;&gt;Node28 -->
<g id="edge51_Node000001_Node000028" class="edge">
<title>Node1&#45;&gt;Node28</title>
<g id="a_edge51_Node000001_Node000028"><a xlink:title=" ">
<path fill="none" stroke="#63b8ff" d="M2030.32,-425.52C2008.74,-417.46 1981.21,-407.39 1956.5,-399 1948.12,-396.15 1939.2,-393.25 1930.49,-390.46"/>
<polygon fill="#63b8ff" stroke="#63b8ff" points="2029,-428.76 2039.59,-429 2031.46,-422.21 2029,-428.76"/>
</a>
</g>
</g>
<!-- Node34 -->
<g id="Node000034" class="node">
<title>Node34</title>
<g id="a_Node000034"><a xlink:href="class_main_window.html#a880a071072561df84782f84e0321da4e" target="_top" xlink:title=" ">
<polygon fill="white" stroke="#666666" points="1956.5,-428 1795,-428 1795,-408 1956.5,-408 1956.5,-428"/>
<text xml:space="preserve" text-anchor="middle" x="1875.75" y="-414.5" font-family="Helvetica,sans-Serif" font-size="10.00">MainWindow::onElementDropped</text>
</a>
</g>
</g>
<!-- Node1&#45;&gt;Node34 -->
<g id="edge57_Node000001_Node000034" class="edge">
<title>Node1&#45;&gt;Node34</title>
<g id="a_edge57_Node000001_Node000034"><a xlink:title=" ">
<path fill="none" stroke="#63b8ff" d="M1980.93,-429.95C1972.92,-429.03 1964.84,-428.11 1956.91,-427.2"/>
<polygon fill="#63b8ff" stroke="#63b8ff" points="1980.33,-433.41 1990.66,-431.07 1981.12,-426.45 1980.33,-433.41"/>
</a>
</g>
</g>
<!-- Node3 -->
<g id="Node000003" class="node">
<title>Node3</title>
<g id="a_Node000003"><a xlink:href="class_diagram_serializer.html#a003be4c7f5d036e58e3fa047d1d9b0d8" target="_top" xlink:title=" ">
<polygon fill="white" stroke="#666666" points="1735.38,-691 1636.12,-691 1636.12,-659 1735.38,-659 1735.38,-691"/>
<text xml:space="preserve" text-anchor="start" x="1644.12" y="-677.5" font-family="Helvetica,sans-Serif" font-size="10.00">DiagramSerializer::</text>
<text xml:space="preserve" text-anchor="middle" x="1685.75" y="-665.5" font-family="Helvetica,sans-Serif" font-size="10.00">loadDiagram</text>
</a>
</g>
</g>
<!-- Node2&#45;&gt;Node3 -->
<g id="edge2_Node000002_Node000003" class="edge">
<title>Node2&#45;&gt;Node3</title>
<g id="a_edge2_Node000002_Node000003"><a xlink:title=" ">
<path fill="none" stroke="#63b8ff" d="M1826.75,-613.94C1794.91,-627.83 1753.72,-645.79 1724.28,-658.63"/>
<polygon fill="#63b8ff" stroke="#63b8ff" points="1828,-617.21 1835.77,-610 1825.2,-610.79 1828,-617.21"/>
</a>
</g>
</g>
<!-- Node4 -->
<g id="Node000004" class="node">
<title>Node4</title>
<g id="a_Node000004"><a xlink:href="class_diagram_file_manager.html#a24c0e01d7ac53866944eb10948286ed9" target="_top" xlink:title=" ">
<polygon fill="white" stroke="#666666" points="1548.38,-756 1442.38,-756 1442.38,-724 1548.38,-724 1548.38,-756"/>
<text xml:space="preserve" text-anchor="start" x="1450.38" y="-742.5" font-family="Helvetica,sans-Serif" font-size="10.00">DiagramFileManager</text>
<text xml:space="preserve" text-anchor="middle" x="1495.38" y="-730.5" font-family="Helvetica,sans-Serif" font-size="10.00">::openDiagram</text>
</a>
</g>
</g>
<!-- Node3&#45;&gt;Node4 -->
<g id="edge3_Node000003_Node000004" class="edge">
<title>Node3&#45;&gt;Node4</title>
<g id="a_edge3_Node000003_Node000004"><a xlink:title=" ">
<path fill="none" stroke="#63b8ff" d="M1626.53,-695.09C1600,-704.24 1568.99,-714.94 1543.89,-723.6"/>
<polygon fill="#63b8ff" stroke="#63b8ff" points="1627.47,-698.47 1635.78,-691.9 1625.19,-691.85 1627.47,-698.47"/>
</a>
</g>
</g>
<!-- Node6 -->
<g id="Node000006" class="node">
<title>Node6</title>
<g id="a_Node000006"><a xlink:href="class_properties_panel.html#a90cca2a241daa84841ee3e90d7768c8f" target="_top" xlink:title=" ">
<polygon fill="white" stroke="#666666" points="1759,-576 1612.5,-576 1612.5,-544 1759,-544 1759,-576"/>
<text xml:space="preserve" text-anchor="start" x="1620.5" y="-562.5" font-family="Helvetica,sans-Serif" font-size="10.00">PropertiesPanel::createButton</text>
<text xml:space="preserve" text-anchor="middle" x="1685.75" y="-550.5" font-family="Helvetica,sans-Serif" font-size="10.00">PropertyItem</text>
</a>
</g>
</g>
<!-- Node5&#45;&gt;Node6 -->
<g id="edge5_Node000005_Node000006" class="edge">
<title>Node5&#45;&gt;Node6</title>
<g id="a_edge5_Node000005_Node000006"><a xlink:title=" ">
<path fill="none" stroke="#63b8ff" d="M1833.46,-483.53C1798.77,-501.61 1749.94,-527.06 1718.32,-543.54"/>
<polygon fill="#63b8ff" stroke="#63b8ff" points="1834.69,-486.83 1841.94,-479.1 1831.46,-480.62 1834.69,-486.83"/>
</a>
</g>
</g>
<!-- Node7 -->
<g id="Node000007" class="node">
<title>Node7</title>
<g id="a_Node000007"><a xlink:href="class_properties_panel.html#a050a4a9040c7aeefde9c1377d2e1909e" target="_top" xlink:title=" ">
<polygon fill="white" stroke="#666666" points="1559.25,-598 1431.5,-598 1431.5,-566 1559.25,-566 1559.25,-598"/>
<text xml:space="preserve" text-anchor="start" x="1439.5" y="-584.5" font-family="Helvetica,sans-Serif" font-size="10.00">PropertiesPanel::populate</text>
<text xml:space="preserve" text-anchor="middle" x="1495.38" y="-572.5" font-family="Helvetica,sans-Serif" font-size="10.00">AttributeList</text>
</a>
</g>
</g>
<!-- Node6&#45;&gt;Node7 -->
<g id="edge6_Node000006_Node000007" class="edge">
<title>Node6&#45;&gt;Node7</title>
<g id="a_edge6_Node000006_Node000007"><a xlink:title=" ">
<path fill="none" stroke="#63b8ff" d="M1601.12,-569.77C1587.21,-571.39 1572.99,-573.05 1559.69,-574.61"/>
<polygon fill="#63b8ff" stroke="#63b8ff" points="1601.16,-573.29 1610.69,-568.65 1600.35,-566.33 1601.16,-573.29"/>
</a>
</g>
</g>
<!-- Node8 -->
<g id="Node000008" class="node">
<title>Node8</title>
<g id="a_Node000008"><a xlink:href="class_properties_panel.html#acc5a2b4e63ea74eaa34853f1cec46b81" target="_top" xlink:title=" ">
<polygon fill="white" stroke="#666666" points="1373.75,-604 1246,-604 1246,-572 1373.75,-572 1373.75,-604"/>
<text xml:space="preserve" text-anchor="start" x="1254" y="-590.5" font-family="Helvetica,sans-Serif" font-size="10.00">PropertiesPanel::populate</text>
<text xml:space="preserve" text-anchor="middle" x="1309.88" y="-578.5" font-family="Helvetica,sans-Serif" font-size="10.00">AttributeProperties</text>
</a>
</g>
</g>
<!-- Node6&#45;&gt;Node8 -->
<g id="edge48_Node000006_Node000008" class="edge">
<title>Node6&#45;&gt;Node8</title>
<g id="a_edge48_Node000006_Node000008"><a xlink:title=" ">
<path fill="none" stroke="#63b8ff" d="M1645.97,-581.45C1625.89,-591.35 1600.59,-602 1576.5,-607 1508.26,-621.18 1428.28,-612.07 1374.05,-602.18"/>
<polygon fill="#63b8ff" stroke="#63b8ff" points="1647.28,-584.71 1654.62,-577.06 1644.12,-578.47 1647.28,-584.71"/>
</a>
</g>
</g>
<!-- Node13 -->
<g id="Node000013" class="node">
<title>Node13</title>
<g id="a_Node000013"><a xlink:href="class_properties_panel.html#aeb116e2e51099f618b5d284e492bc0e2" target="_top" xlink:title=" ">
<polygon fill="white" stroke="#666666" points="127.75,-538 0,-538 0,-506 127.75,-506 127.75,-538"/>
<text xml:space="preserve" text-anchor="start" x="8" y="-524.5" font-family="Helvetica,sans-Serif" font-size="10.00">PropertiesPanel::populate</text>
<text xml:space="preserve" text-anchor="middle" x="63.88" y="-512.5" font-family="Helvetica,sans-Serif" font-size="10.00">RelationshipProperties</text>
</a>
</g>
</g>
<!-- Node6&#45;&gt;Node13 -->
<g id="edge50_Node000006_Node000013" class="edge">
<title>Node6&#45;&gt;Node13</title>
<g id="a_edge50_Node000006_Node000013"><a xlink:title=" ">
<path fill="none" stroke="#63b8ff" d="M1652.36,-582.73C1631.49,-596.53 1603.33,-613.62 1576.5,-625 1463.99,-672.7 1433.08,-696 1310.88,-696 1310.88,-696 1310.88,-696 417.38,-696 300.67,-696 263.78,-688.11 163.75,-628 124.92,-604.67 91.81,-561.74 75.58,-538.31"/>
<polygon fill="#63b8ff" stroke="#63b8ff" points="1654.09,-585.79 1660.44,-577.3 1650.18,-579.98 1654.09,-585.79"/>
</a>
</g>
</g>
<!-- Node27 -->
<g id="Node000027" class="node">
<title>Node27</title>
<g id="a_Node000027"><a xlink:href="class_properties_panel.html#a6a4344308af5b2c993bc25981529239c" target="_top" xlink:title=" ">
<polygon fill="white" stroke="#666666" points="1373.75,-554 1246,-554 1246,-522 1373.75,-522 1373.75,-554"/>
<text xml:space="preserve" text-anchor="start" x="1254" y="-540.5" font-family="Helvetica,sans-Serif" font-size="10.00">PropertiesPanel::populate</text>
<text xml:space="preserve" text-anchor="middle" x="1309.88" y="-528.5" font-family="Helvetica,sans-Serif" font-size="10.00">EntityProperties</text>
</a>
</g>
</g>
<!-- Node6&#45;&gt;Node27 -->
<g id="edge49_Node000006_Node000027" class="edge">
<title>Node6&#45;&gt;Node27</title>
<g id="a_edge49_Node000006_Node000027"><a xlink:title=" ">
<path fill="none" stroke="#63b8ff" d="M1601.01,-555.07C1532.34,-551.03 1436.6,-545.4 1374.18,-541.73"/>
<polygon fill="#63b8ff" stroke="#63b8ff" points="1600.52,-558.55 1610.71,-555.64 1600.93,-551.56 1600.52,-558.55"/>
</a>
</g>
</g>
<!-- Node7&#45;&gt;Node8 -->
<g id="edge7_Node000007_Node000008" class="edge">
<title>Node7&#45;&gt;Node8</title>
<g id="a_edge7_Node000007_Node000008"><a xlink:title=" ">
<path fill="none" stroke="#63b8ff" d="M1419.8,-577.79C1404.65,-578.1 1388.85,-578.68 1374.14,-579.48"/>
<polygon fill="#63b8ff" stroke="#63b8ff" points="1419.77,-581.3 1429.71,-577.64 1419.66,-574.3 1419.77,-581.3"/>
</a>
</g>
</g>
<!-- Node7&#45;&gt;Node13 -->
<g id="edge47_Node000007_Node000013" class="edge">
<title>Node7&#45;&gt;Node13</title>
<g id="a_edge47_Node000007_Node000013"><a xlink:title=" ">
<path fill="none" stroke="#63b8ff" d="M1437.81,-602C1368.97,-624.52 1248.78,-658 1142.62,-658 1142.62,-658 1142.62,-658 417.38,-658 285.86,-658 144.12,-574.58 88.85,-538.4"/>
<polygon fill="#63b8ff" stroke="#63b8ff" points="1438.58,-605.44 1446.97,-598.97 1436.37,-598.79 1438.58,-605.44"/>
</a>
</g>
</g>
<!-- Node7&#45;&gt;Node27 -->
<g id="edge45_Node000007_Node000027" class="edge">
<title>Node7&#45;&gt;Node27</title>
<g id="a_edge45_Node000007_Node000027"><a xlink:title=" ">
<path fill="none" stroke="#63b8ff" d="M1420.24,-564.22C1404.96,-560.56 1389,-556.73 1374.14,-553.17"/>
<polygon fill="#63b8ff" stroke="#63b8ff" points="1419.21,-567.58 1429.75,-566.5 1420.84,-560.77 1419.21,-567.58"/>
</a>
</g>
</g>
<!-- Node8&#45;&gt;Node7 -->
<g id="edge8_Node000008_Node000007" class="edge">
<title>Node8&#45;&gt;Node7</title>
<g id="a_edge8_Node000008_Node000007"><a xlink:title=" ">
<path fill="none" stroke="#63b8ff" d="M1385.57,-592.2C1400.73,-591.9 1416.52,-591.31 1431.22,-590.51"/>
<polygon fill="#63b8ff" stroke="#63b8ff" points="1385.6,-588.7 1375.66,-592.36 1385.71,-595.7 1385.6,-588.7"/>
</a>
</g>
</g>
<!-- Node9 -->
<g id="Node000009" class="node">
<title>Node9</title>
<g id="a_Node000009"><a xlink:href="class_properties_panel.html#a037586f897062f3915a123b9f2a82b91" target="_top" xlink:title=" ">
<polygon fill="white" stroke="#666666" points="1205.5,-554 1077.75,-554 1077.75,-522 1205.5,-522 1205.5,-554"/>
<text xml:space="preserve" text-anchor="start" x="1085.75" y="-540.5" font-family="Helvetica,sans-Serif" font-size="10.00">PropertiesPanel::populate</text>
<text xml:space="preserve" text-anchor="middle" x="1141.62" y="-528.5" font-family="Helvetica,sans-Serif" font-size="10.00">ForElement</text>
</a>
</g>
</g>
<!-- Node8&#45;&gt;Node9 -->
<g id="edge9_Node000008_Node000009" class="edge">
<title>Node8&#45;&gt;Node9</title>
<g id="a_edge9_Node000008_Node000009"><a xlink:title=" ">
<path fill="none" stroke="#63b8ff" d="M1243.52,-568.34C1228.28,-563.76 1212.2,-558.92 1197.47,-554.49"/>
<polygon fill="#63b8ff" stroke="#63b8ff" points="1242.4,-571.66 1252.99,-571.19 1244.42,-564.96 1242.4,-571.66"/>
</a>
</g>
</g>
<!-- Node10 -->
<g id="Node000010" class="node">
<title>Node10</title>
<g id="a_Node000010"><a xlink:href="class_properties_panel.html#a139ae0158b486c6004e15e0ddf36f319" target="_top" xlink:title=" ">
<polygon fill="white" stroke="#666666" points="1035,-466 914,-466 914,-446 1035,-446 1035,-466"/>
<text xml:space="preserve" text-anchor="middle" x="974.5" y="-452.5" font-family="Helvetica,sans-Serif" font-size="10.00">PropertiesPanel::refresh</text>
</a>
</g>
</g>
<!-- Node9&#45;&gt;Node10 -->
<g id="edge10_Node000009_Node000010" class="edge">
<title>Node9&#45;&gt;Node10</title>
<g id="a_edge10_Node000009_Node000010"><a xlink:title=" ">
<path fill="none" stroke="#63b8ff" d="M1097.45,-516.56C1064.92,-500.4 1021.72,-478.95 996.43,-466.4"/>
<polygon fill="#63b8ff" stroke="#63b8ff" points="1095.74,-519.62 1106.25,-520.93 1098.85,-513.35 1095.74,-519.62"/>
</a>
</g>
</g>
<!-- Node10&#45;&gt;Node5 -->
<g id="edge11_Node000010_Node000005" class="edge">
<title>Node10&#45;&gt;Node5</title>
<g id="a_edge11_Node000010_Node000005"><a xlink:title=" ">
<path fill="none" stroke="#63b8ff" d="M1046.76,-456C1114.26,-456 1218.46,-456 1308.88,-456 1496.38,-456 1496.38,-456 1496.38,-456 1600.67,-456 1721.12,-458.31 1797.58,-460.06"/>
<polygon fill="#63b8ff" stroke="#63b8ff" points="1046.94,-452.5 1036.94,-456 1046.94,-459.5 1046.94,-452.5"/>
</a>
</g>
</g>
<!-- Node11 -->
<g id="Node000011" class="node">
<title>Node11</title>
<g id="a_Node000011"><a xlink:href="class_properties_panel.html#a2800a2c7575a5fad6d923d9b64d982f8" target="_top" xlink:title=" ">
<polygon fill="white" stroke="#666666" points="483.38,-432 353.38,-432 353.38,-400 483.38,-400 483.38,-432"/>
<text xml:space="preserve" text-anchor="start" x="361.38" y="-418.5" font-family="Helvetica,sans-Serif" font-size="10.00">PropertiesPanel::onCheck</text>
<text xml:space="preserve" text-anchor="middle" x="418.38" y="-406.5" font-family="Helvetica,sans-Serif" font-size="10.00">BoxChanged</text>
</a>
</g>
</g>
<!-- Node10&#45;&gt;Node11 -->
<g id="edge12_Node000010_Node000011" class="edge">
<title>Node10&#45;&gt;Node11</title>
<g id="a_edge12_Node000010_Node000011"><a xlink:title=" ">
<path fill="none" stroke="#63b8ff" d="M930.16,-469.56C912.13,-474.53 890.87,-479.54 871.25,-482 717.89,-501.19 671.93,-525.08 523.5,-482 490.2,-472.34 457.35,-448.47 437.71,-432.25"/>
<polygon fill="#63b8ff" stroke="#63b8ff" points="931.09,-472.94 939.75,-466.83 929.17,-466.21 931.09,-472.94"/>
</a>
</g>
</g>
<!-- Node14 -->
<g id="Node000014" class="node">
<title>Node14</title>
<g id="a_Node000014"><a xlink:href="class_properties_panel.html#aec82450a3daeb2614c2321e37897f1dd" target="_top" xlink:title=" ">
<polygon fill="white" stroke="#666666" points="484.88,-233 351.88,-233 351.88,-201 484.88,-201 484.88,-233"/>
<text xml:space="preserve" text-anchor="start" x="359.88" y="-219.5" font-family="Helvetica,sans-Serif" font-size="10.00">PropertiesPanel::onCombo</text>
<text xml:space="preserve" text-anchor="middle" x="418.38" y="-207.5" font-family="Helvetica,sans-Serif" font-size="10.00">BoxChanged</text>
</a>
</g>
</g>
<!-- Node10&#45;&gt;Node14 -->
<g id="edge17_Node000010_Node000014" class="edge">
<title>Node10&#45;&gt;Node14</title>
<g id="a_edge17_Node000010_Node000014"><a xlink:title=" ">
<path fill="none" stroke="#63b8ff" d="M916.37,-439.97C913.02,-437.66 909.93,-435.02 907.25,-432 860.31,-379.1 912.22,-334.64 871.25,-277 818.19,-202.35 784.98,-192.45 697,-167 622.93,-145.58 598.69,-149.88 523.5,-167 495.15,-173.45 465.51,-188.64 445.14,-200.59"/>
<polygon fill="#63b8ff" stroke="#63b8ff" points="914.63,-443 925.05,-444.89 918.08,-436.91 914.63,-443"/>
</a>
</g>
</g>
<!-- Node18 -->
<g id="Node000018" class="node">
<title>Node18</title>
<g id="a_Node000018"><a xlink:href="class_properties_panel.html#aec8130201106284c02f21903b516554d" target="_top" xlink:title=" ">
<polygon fill="white" stroke="#666666" points="678.62,-120 541.88,-120 541.88,-88 678.62,-88 678.62,-120"/>
<text xml:space="preserve" text-anchor="start" x="549.88" y="-106.5" font-family="Helvetica,sans-Serif" font-size="10.00">PropertiesPanel::onLineEdit</text>
<text xml:space="preserve" text-anchor="middle" x="610.25" y="-94.5" font-family="Helvetica,sans-Serif" font-size="10.00">Changed</text>
</a>
</g>
</g>
<!-- Node10&#45;&gt;Node18 -->
<g id="edge24_Node000010_Node000018" class="edge">
<title>Node10&#45;&gt;Node18</title>
<g id="a_edge24_Node000010_Node000018"><a xlink:title=" ">
<path fill="none" stroke="#63b8ff" d="M915.25,-439.74C912.28,-437.49 909.57,-434.92 907.25,-432 824.23,-327.58 965.84,-228.08 871.25,-134 821.72,-84.73 737.9,-83.82 678.85,-90.96"/>
<polygon fill="#63b8ff" stroke="#63b8ff" points="913.18,-442.57 923.54,-444.81 916.84,-436.61 913.18,-442.57"/>
</a>
</g>
</g>
<!-- Node20 -->
<g id="Node000020" class="node">
<title>Node20</title>
<g id="a_Node000020"><a xlink:href="class_properties_panel.html#a3cdc065abcd2f9e59558903073c0f23f" target="_top" xlink:title=" ">
<polygon fill="white" stroke="#666666" points="487.5,-382 349.25,-382 349.25,-350 487.5,-350 487.5,-382"/>
<text xml:space="preserve" text-anchor="start" x="357.25" y="-368.5" font-family="Helvetica,sans-Serif" font-size="10.00">PropertiesPanel::onProperty</text>
<text xml:space="preserve" text-anchor="middle" x="418.38" y="-356.5" font-family="Helvetica,sans-Serif" font-size="10.00">ValueChanged</text>
</a>
</g>
</g>
<!-- Node10&#45;&gt;Node20 -->
<g id="edge27_Node000010_Node000020" class="edge">
<title>Node10&#45;&gt;Node20</title>
<g id="a_edge27_Node000010_Node000020"><a xlink:title=" ">
<path fill="none" stroke="#63b8ff" d="M902.35,-461.88C810.04,-471.23 646.28,-480.82 523.5,-422 502.1,-411.75 507.23,-395.66 487.96,-382.31"/>
<polygon fill="#63b8ff" stroke="#63b8ff" points="902.43,-465.39 912.01,-460.87 901.71,-458.43 902.43,-465.39"/>
</a>
</g>
</g>
<!-- Node22 -->
<g id="Node000022" class="node">
<title>Node22</title>
<g id="a_Node000022"><a xlink:href="class_properties_panel.html#a8a2ec0bcba44f3bbd0245d3a53ff49f7" target="_top" xlink:title=" ">
<polygon fill="white" stroke="#666666" points="871.25,-32 733,-32 733,0 871.25,0 871.25,-32"/>
<text xml:space="preserve" text-anchor="start" x="741" y="-18.5" font-family="Helvetica,sans-Serif" font-size="10.00">PropertiesPanel::onRemove</text>
<text xml:space="preserve" text-anchor="middle" x="802.12" y="-6.5" font-family="Helvetica,sans-Serif" font-size="10.00">AttributeOnTreeClicked</text>
</a>
</g>
</g>
<!-- Node10&#45;&gt;Node22 -->
<g id="edge30_Node000010_Node000022" class="edge">
<title>Node10&#45;&gt;Node22</title>
<g id="a_edge30_Node000010_Node000022"><a xlink:title=" ">
<path fill="none" stroke="#63b8ff" d="M914.74,-439.49C911.96,-437.3 909.42,-434.81 907.25,-432 801.87,-295.69 971.99,-185.78 871.25,-46 867.32,-40.55 862.18,-36.07 856.47,-32.4"/>
<polygon fill="#63b8ff" stroke="#63b8ff" points="912.75,-442.37 923.08,-444.74 916.48,-436.45 912.75,-442.37"/>
</a>
</g>
</g>
<!-- Node23 -->
<g id="Node000023" class="node">
<title>Node23</title>
<g id="a_Node000023"><a xlink:href="class_properties_panel.html#a79618c5c820a40931c085d54be70bd34" target="_top" xlink:title=" ">
<polygon fill="white" stroke="#666666" points="864.88,-318 739.38,-318 739.38,-286 864.88,-286 864.88,-318"/>
<text xml:space="preserve" text-anchor="start" x="747.38" y="-304.5" font-family="Helvetica,sans-Serif" font-size="10.00">PropertiesPanel::updates</text>
<text xml:space="preserve" text-anchor="middle" x="802.12" y="-292.5" font-family="Helvetica,sans-Serif" font-size="10.00">AfterChangingProperty</text>
</a>
</g>
</g>
<!-- Node10&#45;&gt;Node23 -->
<g id="edge32_Node000010_Node000023" class="edge">
<title>Node10&#45;&gt;Node23</title>
<g id="a_edge32_Node000010_Node000023"><a xlink:title=" ">
<path fill="none" stroke="#63b8ff" d="M923.29,-441.21C917.64,-438.57 912.16,-435.52 907.25,-432 863.29,-400.51 827.99,-345.66 812.16,-318.38"/>
<polygon fill="#63b8ff" stroke="#63b8ff" points="921.58,-444.29 932.16,-444.93 924.29,-437.83 921.58,-444.29"/>
</a>
</g>
</g>
<!-- Node12 -->
<g id="Node000012" class="node">
<title>Node12</title>
<g id="a_Node000012"><a xlink:href="class_properties_panel.html#acfb41226221624e46767835caeea8abc" target="_top" xlink:title=" ">
<polygon fill="white" stroke="#666666" points="311.75,-516 165.25,-516 165.25,-484 311.75,-484 311.75,-516"/>
<text xml:space="preserve" text-anchor="start" x="173.25" y="-502.5" font-family="Helvetica,sans-Serif" font-size="10.00">PropertiesPanel::createCheck</text>
<text xml:space="preserve" text-anchor="middle" x="238.5" y="-490.5" font-family="Helvetica,sans-Serif" font-size="10.00">BoxPropertyItem</text>
</a>
</g>
</g>
<!-- Node11&#45;&gt;Node12 -->
<g id="edge13_Node000011_Node000012" class="edge">
<title>Node11&#45;&gt;Node12</title>
<g id="a_edge13_Node000011_Node000012"><a xlink:title=" ">
<path fill="none" stroke="#63b8ff" d="M372.32,-437.27C341.94,-451.62 302.44,-470.28 274.43,-483.5"/>
<polygon fill="#63b8ff" stroke="#63b8ff" points="373.74,-440.48 381.29,-433.04 370.75,-434.15 373.74,-440.48"/>
</a>
</g>
</g>
<!-- Node12&#45;&gt;Node8 -->
<g id="edge14_Node000012_Node000008" class="edge">
<title>Node12&#45;&gt;Node8</title>
<g id="a_edge14_Node000012_Node000008"><a xlink:title=" ">
<path fill="none" stroke="#63b8ff" d="M259.61,-524.87C279.66,-547.71 312.69,-580.31 349.25,-596 455.89,-641.76 493.2,-620 609.25,-620 975.5,-620 975.5,-620 975.5,-620 1069.98,-620 1178.84,-607.11 1245.76,-597.69"/>
<polygon fill="#63b8ff" stroke="#63b8ff" points="262.47,-522.83 253.31,-517.51 257.15,-527.38 262.47,-522.83"/>
</a>
</g>
</g>
<!-- Node12&#45;&gt;Node13 -->
<g id="edge15_Node000012_Node000013" class="edge">
<title>Node12&#45;&gt;Node13</title>
<g id="a_edge15_Node000012_Node000013"><a xlink:title=" ">
<path fill="none" stroke="#63b8ff" d="M153.6,-510.69C145.05,-511.78 136.47,-512.88 128.19,-513.93"/>
<polygon fill="#63b8ff" stroke="#63b8ff" points="153.81,-514.19 163.29,-509.46 152.93,-507.25 153.81,-514.19"/>
</a>
</g>
</g>
<!-- Node13&#45;&gt;Node9 -->
<g id="edge16_Node000013_Node000009" class="edge">
<title>Node13&#45;&gt;Node9</title>
<g id="a_edge16_Node000013_Node000009"><a xlink:title=" ">
<path fill="none" stroke="#63b8ff" d="M139.25,-529.34C210.54,-535.74 321.19,-544 417.38,-544 803.12,-544 803.12,-544 803.12,-544 898.79,-544 1009.69,-541.56 1077.5,-539.79"/>
<polygon fill="#63b8ff" stroke="#63b8ff" points="139.94,-525.89 129.67,-528.47 139.31,-532.86 139.94,-525.89"/>
</a>
</g>
</g>
<!-- Node15 -->
<g id="Node000015" class="node">
<title>Node15</title>
<g id="a_Node000015"><a xlink:href="class_properties_panel.html#a8fd53ec3c9f711c3354483e8bb4d0b47" target="_top" xlink:title=" ">
<polygon fill="white" stroke="#666666" points="313.25,-370 163.75,-370 163.75,-338 313.25,-338 313.25,-370"/>
<text xml:space="preserve" text-anchor="start" x="171.75" y="-356.5" font-family="Helvetica,sans-Serif" font-size="10.00">PropertiesPanel::createCombo</text>
<text xml:space="preserve" text-anchor="middle" x="238.5" y="-344.5" font-family="Helvetica,sans-Serif" font-size="10.00">BoxPropertyItem</text>
</a>
</g>
</g>
<!-- Node14&#45;&gt;Node15 -->
<g id="edge18_Node000014_Node000015" class="edge">
<title>Node14&#45;&gt;Node15</title>
<g id="a_edge18_Node000014_Node000015"><a xlink:title=" ">
<path fill="none" stroke="#63b8ff" d="M390.46,-240.76C369.79,-258.7 340.29,-283.62 313.25,-304 297.56,-315.83 279.29,-328.22 264.86,-337.72"/>
<polygon fill="#63b8ff" stroke="#63b8ff" points="392.65,-243.5 397.88,-234.29 388.05,-238.23 392.65,-243.5"/>
</a>
</g>
</g>
<!-- Node16 -->
<g id="Node000016" class="node">
<title>Node16</title>
<g id="a_Node000016"><a xlink:href="class_properties_panel.html#a32c2dab00c58ffdcb6a1e3cd829d03c8" target="_top" xlink:title=" ">
<polygon fill="white" stroke="#666666" points="306.88,-223 170.12,-223 170.12,-191 306.88,-191 306.88,-223"/>
<text xml:space="preserve" text-anchor="start" x="178.12" y="-209.5" font-family="Helvetica,sans-Serif" font-size="10.00">PropertiesPanel::createIcon</text>
<text xml:space="preserve" text-anchor="middle" x="238.5" y="-197.5" font-family="Helvetica,sans-Serif" font-size="10.00">ComboBoxPropertyItem</text>
</a>
</g>
</g>
<!-- Node14&#45;&gt;Node16 -->
<g id="edge21_Node000014_Node000016" class="edge">
<title>Node14&#45;&gt;Node16</title>
<g id="a_edge21_Node000014_Node000016"><a xlink:title=" ">
<path fill="none" stroke="#63b8ff" d="M340.08,-212.65C329.12,-212.04 317.92,-211.41 307.16,-210.8"/>
<polygon fill="#63b8ff" stroke="#63b8ff" points="339.7,-216.14 349.88,-213.21 340.09,-209.15 339.7,-216.14"/>
</a>
</g>
</g>
<!-- Node15&#45;&gt;Node8 -->
<g id="edge19_Node000015_Node000008" class="edge">
<title>Node15&#45;&gt;Node8</title>
<g id="a_edge19_Node000015_Node000008"><a xlink:title=" ">
<path fill="none" stroke="#63b8ff" d="M309.79,-376.35C310.98,-377.2 312.13,-378.08 313.25,-379 337.91,-399.18 326.39,-418.8 349.25,-441 443.55,-532.59 477.8,-582 609.25,-582 975.5,-582 975.5,-582 975.5,-582 1069.57,-582 1178.54,-584.42 1245.59,-586.18"/>
<polygon fill="#63b8ff" stroke="#63b8ff" points="311.84,-373.5 301.5,-371.23 308.17,-379.46 311.84,-373.5"/>
</a>
</g>
</g>
<!-- Node15&#45;&gt;Node13 -->
<g id="edge20_Node000015_Node000013" class="edge">
<title>Node15&#45;&gt;Node13</title>
<g id="a_edge20_Node000015_Node000013"><a xlink:title=" ">
<path fill="none" stroke="#63b8ff" d="M167.92,-376.06C166.49,-377 165.1,-377.98 163.75,-379 117.73,-413.72 85.34,-476.23 71.86,-505.74"/>
<polygon fill="#63b8ff" stroke="#63b8ff" points="169.56,-379.16 176.5,-371.16 166.08,-373.09 169.56,-379.16"/>
</a>
</g>
</g>
<!-- Node17 -->
<g id="Node000017" class="node">
<title>Node17</title>
<g id="a_Node000017"><a xlink:href="class_properties_panel.html#adbc7f8deb3a687706dc44ebbd7e39d9d" target="_top" xlink:title=" ">
<polygon fill="white" stroke="#666666" points="127.75,-144 0,-144 0,-112 127.75,-112 127.75,-144"/>
<text xml:space="preserve" text-anchor="start" x="8" y="-130.5" font-family="Helvetica,sans-Serif" font-size="10.00">PropertiesPanel::populate</text>
<text xml:space="preserve" text-anchor="middle" x="63.88" y="-118.5" font-family="Helvetica,sans-Serif" font-size="10.00">ForConnection</text>
</a>
</g>
</g>
<!-- Node16&#45;&gt;Node17 -->
<g id="edge22_Node000016_Node000017" class="edge">
<title>Node16&#45;&gt;Node17</title>
<g id="a_edge22_Node000016_Node000017"><a xlink:title=" ">
<path fill="none" stroke="#63b8ff" d="M191.26,-185.84C162.91,-172.86 127.14,-156.49 100.89,-144.48"/>
<polygon fill="#63b8ff" stroke="#63b8ff" points="189.81,-189.02 200.36,-190 192.72,-182.66 189.81,-189.02"/>
</a>
</g>
</g>
<!-- Node17&#45;&gt;Node10 -->
<g id="edge23_Node000017_Node000010" class="edge">
<title>Node17&#45;&gt;Node10</title>
<g id="a_edge23_Node000017_Node000010"><a xlink:title=" ">
<path fill="none" stroke="#63b8ff" d="M127.64,-108.39C197.6,-88.3 314.43,-60 417.38,-60 611.25,-60 611.25,-60 611.25,-60 669.27,-60 830,-43.2 871.25,-84 926.53,-138.67 859.39,-370.73 907.25,-432 911.77,-437.78 917.81,-442.18 924.41,-445.51"/>
<polygon fill="#63b8ff" stroke="#63b8ff" points="126.9,-104.96 118.28,-111.12 128.86,-111.68 126.9,-104.96"/>
</a>
</g>
</g>
<!-- Node19 -->
<g id="Node000019" class="node">
<title>Node19</title>
<g id="a_Node000019"><a xlink:href="class_properties_panel.html#a7bc224323f9c626842fdb6a89205c9bc" target="_top" xlink:title=" ">
<polygon fill="white" stroke="#666666" points="486.38,-161 350.38,-161 350.38,-129 486.38,-129 486.38,-161"/>
<text xml:space="preserve" text-anchor="start" x="358.38" y="-147.5" font-family="Helvetica,sans-Serif" font-size="10.00">PropertiesPanel::createLine</text>
<text xml:space="preserve" text-anchor="middle" x="418.38" y="-135.5" font-family="Helvetica,sans-Serif" font-size="10.00">EditPropertyItem</text>
</a>
</g>
</g>
<!-- Node18&#45;&gt;Node19 -->
<g id="edge25_Node000018_Node000019" class="edge">
<title>Node18&#45;&gt;Node19</title>
<g id="a_edge25_Node000018_Node000019"><a xlink:title=" ">
<path fill="none" stroke="#63b8ff" d="M530.52,-121C515.99,-124.14 500.93,-127.39 486.77,-130.45"/>
<polygon fill="#63b8ff" stroke="#63b8ff" points="530.99,-124.48 540.03,-118.95 529.51,-117.64 530.99,-124.48"/>
</a>
</g>
</g>
<!-- Node19&#45;&gt;Node13 -->
<g id="edge26_Node000019_Node000013" class="edge">
<title>Node19&#45;&gt;Node13</title>
<g id="a_edge26_Node000019_Node000013"><a xlink:title=" ">
<path fill="none" stroke="#63b8ff" d="M380.96,-167.81C370.35,-175.06 359,-183.43 349.25,-192 331.28,-207.79 331.44,-216.47 313.25,-232 253.02,-283.43 216.83,-270.21 163.75,-329 113.67,-384.47 81.81,-469.96 70.02,-505.56"/>
<polygon fill="#63b8ff" stroke="#63b8ff" points="382.8,-170.79 389.17,-162.33 378.91,-164.97 382.8,-170.79"/>
</a>
</g>
</g>
<!-- Node20&#45;&gt;Node10 -->
<g id="edge29_Node000020_Node000010" class="edge">
<title>Node20&#45;&gt;Node10</title>
<g id="a_edge29_Node000020_Node000010"><a xlink:title=" ">
<path fill="none" stroke="#63b8ff" d="M461.77,-386.71C470.67,-390.41 479.71,-394.73 487.5,-400 507.31,-413.4 501.93,-429.67 523.5,-440 667.1,-508.79 866.75,-484.01 942.6,-466.44"/>
<polygon fill="#63b8ff" stroke="#63b8ff" points="463.08,-383.46 452.49,-383.03 460.5,-389.97 463.08,-383.46"/>
</a>
</g>
</g>
<!-- Node21 -->
<g id="Node000021" class="node">
<title>Node21</title>
<g id="a_Node000021"><a xlink:href="class_properties_panel.html#a9866823e02faefceaae94fc0b0537707" target="_top" xlink:title=" ">
<polygon fill="white" stroke="#666666" points="306.12,-420 170.88,-420 170.88,-388 306.12,-388 306.12,-420"/>
<text xml:space="preserve" text-anchor="start" x="178.88" y="-406.5" font-family="Helvetica,sans-Serif" font-size="10.00">PropertiesPanel::Properties</text>
<text xml:space="preserve" text-anchor="middle" x="238.5" y="-394.5" font-family="Helvetica,sans-Serif" font-size="10.00">Panel</text>
</a>
</g>
</g>
<!-- Node20&#45;&gt;Node21 -->
<g id="edge28_Node000020_Node000021" class="edge">
<title>Node20&#45;&gt;Node21</title>
<g id="a_edge28_Node000020_Node000021"><a xlink:title=" ">
<path fill="none" stroke="#63b8ff" d="M337.66,-383.03C327.26,-385.25 316.68,-387.51 306.52,-389.68"/>
<polygon fill="#63b8ff" stroke="#63b8ff" points="338.33,-386.47 347.38,-380.95 336.87,-379.62 338.33,-386.47"/>
</a>
</g>
</g>
<!-- Node22&#45;&gt;Node6 -->
<g id="edge31_Node000022_Node000006" class="edge">
<title>Node22&#45;&gt;Node6</title>
<g id="a_edge31_Node000022_Node000006"><a xlink:title=" ">
<path fill="none" stroke="#63b8ff" d="M857.43,-38.61C862.77,-42.71 867.56,-47.48 871.25,-53 914.05,-117.11 855.58,-340.8 907.25,-398 919.22,-411.25 1421.39,-509.22 1612.21,-546.06"/>
<polygon fill="#63b8ff" stroke="#63b8ff" points="859.55,-35.82 849.29,-33.17 855.66,-41.64 859.55,-35.82"/>
</a>
</g>
</g>
<!-- Node23&#45;&gt;Node11 -->
<g id="edge41_Node000023_Node000011" class="edge">
<title>Node23&#45;&gt;Node11</title>
<g id="a_edge41_Node000023_Node000011"><a xlink:title=" ">
<path fill="none" stroke="#63b8ff" d="M758.84,-323.31C740.24,-331.99 717.92,-341.48 697,-348 622.06,-371.34 599.43,-361.12 523.5,-381 503.67,-386.19 482.13,-393.2 463.82,-399.57"/>
<polygon fill="#63b8ff" stroke="#63b8ff" points="760.14,-326.57 767.67,-319.11 757.13,-320.25 760.14,-326.57"/>
</a>
</g>
</g>
<!-- Node23&#45;&gt;Node14 -->
<g id="edge42_Node000023_Node000014" class="edge">
<title>Node23&#45;&gt;Node14</title>
<g id="a_edge42_Node000023_Node000014"><a xlink:title=" ">
<path fill="none" stroke="#63b8ff" d="M760.72,-280.48C741.84,-271.29 718.77,-261.26 697,-255 626.29,-234.66 542.22,-225.09 485.26,-220.67"/>
<polygon fill="#63b8ff" stroke="#63b8ff" points="759.16,-283.61 769.67,-284.94 762.28,-277.35 759.16,-283.61"/>
</a>
</g>
</g>
<!-- Node23&#45;&gt;Node18 -->
<g id="edge43_Node000023_Node000018" class="edge">
<title>Node23&#45;&gt;Node18</title>
<g id="a_edge43_Node000023_Node000018"><a xlink:title=" ">
<path fill="none" stroke="#63b8ff" d="M784.73,-276.6C765.65,-248.12 732.23,-201.41 697,-167 678.76,-149.19 655.27,-132.27 637.49,-120.46"/>
<polygon fill="#63b8ff" stroke="#63b8ff" points="781.59,-278.2 790.02,-284.61 787.43,-274.34 781.59,-278.2"/>
</a>
</g>
</g>
<!-- Node23&#45;&gt;Node20 -->
<g id="edge44_Node000023_Node000020" class="edge">
<title>Node23&#45;&gt;Node20</title>
<g id="a_edge44_Node000023_Node000020"><a xlink:title=" ">
<path fill="none" stroke="#63b8ff" d="M727.85,-314C671.86,-323.2 592.79,-336.27 523.5,-348 512.01,-349.94 499.82,-352.03 487.98,-354.07"/>
<polygon fill="#63b8ff" stroke="#63b8ff" points="728.29,-317.47 737.59,-312.4 727.15,-310.57 728.29,-317.47"/>
</a>
</g>
</g>
<!-- Node24 -->
<g id="Node000024" class="node">
<title>Node24</title>
<g id="a_Node000024"><a xlink:href="class_properties_panel.html#a74d22cd1ca119cda9cc4ca00b853e88d" target="_top" xlink:title=" ">
<polygon fill="white" stroke="#666666" points="688.38,-296 532.12,-296 532.12,-264 688.38,-264 688.38,-296"/>
<text xml:space="preserve" text-anchor="start" x="540.12" y="-282.5" font-family="Helvetica,sans-Serif" font-size="10.00">PropertiesPanel::handleAttribute</text>
<text xml:space="preserve" text-anchor="middle" x="610.25" y="-270.5" font-family="Helvetica,sans-Serif" font-size="10.00">PropertyChange</text>
</a>
</g>
</g>
<!-- Node23&#45;&gt;Node24 -->
<g id="edge33_Node000023_Node000024" class="edge">
<title>Node23&#45;&gt;Node24</title>
<g id="a_edge33_Node000023_Node000024"><a xlink:title=" ">
<path fill="none" stroke="#63b8ff" d="M727.88,-293.51C715.09,-292.03 701.74,-290.48 688.84,-288.99"/>
<polygon fill="#63b8ff" stroke="#63b8ff" points="727.11,-296.95 737.45,-294.62 727.92,-289.99 727.11,-296.95"/>
</a>
</g>
</g>
<!-- Node25 -->
<g id="Node000025" class="node">
<title>Node25</title>
<g id="a_Node000025"><a xlink:href="class_properties_panel.html#aa82a2245c62f66554f277c64e643252c" target="_top" xlink:title=" ">
<polygon fill="white" stroke="#666666" points="697,-208 523.5,-208 523.5,-176 697,-176 697,-208"/>
<text xml:space="preserve" text-anchor="start" x="531.5" y="-194.5" font-family="Helvetica,sans-Serif" font-size="10.00">PropertiesPanel::handleRelationship</text>
<text xml:space="preserve" text-anchor="middle" x="610.25" y="-182.5" font-family="Helvetica,sans-Serif" font-size="10.00">EndCardinalityChange</text>
</a>
</g>
</g>
<!-- Node23&#45;&gt;Node25 -->
<g id="edge37_Node000023_Node000025" class="edge">
<title>Node23&#45;&gt;Node25</title>
<g id="a_edge37_Node000023_Node000025"><a xlink:title=" ">
<path fill="none" stroke="#63b8ff" d="M774.97,-278.1C754.84,-260.68 725.69,-237.52 697,-222 687.43,-216.82 676.79,-212.26 666.35,-208.35"/>
<polygon fill="#63b8ff" stroke="#63b8ff" points="772.59,-280.67 782.41,-284.64 777.22,-275.41 772.59,-280.67"/>
</a>
</g>
</g>
<!-- Node26 -->
<g id="Node000026" class="node">
<title>Node26</title>
<g id="a_Node000026"><a xlink:href="class_properties_panel.html#ac2741a5b2cb859b07534b8f7c786359b" target="_top" xlink:title=" ">
<polygon fill="white" stroke="#666666" points="697,-422 523.5,-422 523.5,-390 697,-390 697,-422"/>
<text xml:space="preserve" text-anchor="start" x="531.5" y="-408.5" font-family="Helvetica,sans-Serif" font-size="10.00">PropertiesPanel::handleRelationship</text>
<text xml:space="preserve" text-anchor="middle" x="610.25" y="-396.5" font-family="Helvetica,sans-Serif" font-size="10.00">EndParticipationChange</text>
</a>
</g>
</g>
<!-- Node23&#45;&gt;Node26 -->
<g id="edge39_Node000023_Node000026" class="edge">
<title>Node23&#45;&gt;Node26</title>
<g id="a_edge39_Node000023_Node000026"><a xlink:title=" ">
<path fill="none" stroke="#63b8ff" d="M772.91,-325.37C752.72,-341.25 724.38,-361.84 697,-376 687.19,-381.07 676.34,-385.61 665.74,-389.53"/>
<polygon fill="#63b8ff" stroke="#63b8ff" points="775.04,-328.15 780.67,-319.18 770.67,-322.68 775.04,-328.15"/>
</a>
</g>
</g>
<!-- Node24&#45;&gt;Node11 -->
<g id="edge34_Node000024_Node000011" class="edge">
<title>Node24&#45;&gt;Node11</title>
<g id="a_edge34_Node000024_Node000011"><a xlink:title=" ">
<path fill="none" stroke="#63b8ff" d="M577.15,-302.99C560.47,-315.54 540.15,-331.78 523.5,-348 505.64,-365.39 507.89,-376.67 487.5,-391 482.97,-394.19 477.98,-397.02 472.82,-399.52"/>
<polygon fill="#63b8ff" stroke="#63b8ff" points="578.84,-306.1 584.78,-297.33 574.67,-300.48 578.84,-306.1"/>
</a>
</g>
</g>
<!-- Node24&#45;&gt;Node14 -->
<g id="edge35_Node000024_Node000014" class="edge">
<title>Node24&#45;&gt;Node14</title>
<g id="a_edge35_Node000024_Node000014"><a xlink:title=" ">
<path fill="none" stroke="#63b8ff" d="M549.05,-260.03C523.21,-251.45 493.38,-241.55 468.85,-233.42"/>
<polygon fill="#63b8ff" stroke="#63b8ff" points="547.83,-263.31 558.42,-263.14 550.03,-256.66 547.83,-263.31"/>
</a>
</g>
</g>
<!-- Node24&#45;&gt;Node20 -->
<g id="edge36_Node000024_Node000020" class="edge">
<title>Node24&#45;&gt;Node20</title>
<g id="a_edge36_Node000024_Node000020"><a xlink:title=" ">
<path fill="none" stroke="#63b8ff" d="M547.36,-300.34C539.26,-303.39 531.13,-306.64 523.5,-310 496.83,-321.75 467.71,-337.7 447.06,-349.57"/>
<polygon fill="#63b8ff" stroke="#63b8ff" points="548.34,-303.71 556.53,-296.99 545.94,-297.14 548.34,-303.71"/>
</a>
</g>
</g>
<!-- Node25&#45;&gt;Node14 -->
<g id="edge38_Node000025_Node000014" class="edge">
<title>Node25&#45;&gt;Node14</title>
<g id="a_edge38_Node000025_Node000014"><a xlink:title=" ">
<path fill="none" stroke="#63b8ff" d="M511.81,-204.83C502.81,-206.01 493.84,-207.2 485.22,-208.33"/>
<polygon fill="#63b8ff" stroke="#63b8ff" points="512.24,-208.3 521.7,-203.53 511.33,-201.36 512.24,-208.3"/>
</a>
</g>
</g>
<!-- Node26&#45;&gt;Node11 -->
<g id="edge40_Node000026_Node000011" class="edge">
<title>Node26&#45;&gt;Node11</title>
<g id="a_edge40_Node000026_Node000011"><a xlink:title=" ">
<path fill="none" stroke="#63b8ff" d="M511.99,-411.12C502.44,-411.63 492.91,-412.13 483.81,-412.61"/>
<polygon fill="#63b8ff" stroke="#63b8ff" points="511.89,-414.63 521.69,-410.61 511.52,-407.64 511.89,-414.63"/>
</a>
</g>
</g>
<!-- Node27&#45;&gt;Node9 -->
<g id="edge46_Node000027_Node000009" class="edge">
<title>Node27&#45;&gt;Node9</title>
<g id="a_edge46_Node000027_Node000009"><a xlink:title=" ">
<path fill="none" stroke="#63b8ff" d="M1234.11,-538C1224.65,-538 1215.03,-538 1205.78,-538"/>
<polygon fill="#63b8ff" stroke="#63b8ff" points="1234.04,-541.5 1244.04,-538 1234.04,-534.5 1234.04,-541.5"/>
</a>
</g>
</g>
<!-- Node29 -->
<g id="Node000029" class="node">
<title>Node29</title>
<g id="a_Node000029"><a xlink:href="class_main_window.html#a2b7e0ad982cc26a1351f1530ea090b5b" target="_top" xlink:title=" ">
<polygon fill="white" stroke="#666666" points="1756.38,-390 1615.12,-390 1615.12,-358 1756.38,-358 1756.38,-390"/>
<text xml:space="preserve" text-anchor="start" x="1623.12" y="-376.5" font-family="Helvetica,sans-Serif" font-size="10.00">MainWindow::createDrawing</text>
<text xml:space="preserve" text-anchor="middle" x="1685.75" y="-364.5" font-family="Helvetica,sans-Serif" font-size="10.00">Button</text>
</a>
</g>
</g>
<!-- Node28&#45;&gt;Node29 -->
<g id="edge52_Node000028_Node000029" class="edge">
<title>Node28&#45;&gt;Node29</title>
<g id="a_edge52_Node000028_Node000029"><a xlink:title=" ">
<path fill="none" stroke="#63b8ff" d="M1792.97,-374C1780.86,-374 1768.47,-374 1756.62,-374"/>
<polygon fill="#63b8ff" stroke="#63b8ff" points="1792.96,-377.5 1802.96,-374 1792.96,-370.5 1792.96,-377.5"/>
</a>
</g>
</g>
<!-- Node30 -->
<g id="Node000030" class="node">
<title>Node30</title>
<g id="a_Node000030"><a xlink:href="class_main_window.html#a002a373734d320507137dfb74d6b34a6" target="_top" xlink:title=" ">
<polygon fill="white" stroke="#666666" points="1570.12,-386 1420.62,-386 1420.62,-366 1570.12,-366 1570.12,-386"/>
<text xml:space="preserve" text-anchor="middle" x="1495.38" y="-372.5" font-family="Helvetica,sans-Serif" font-size="10.00">MainWindow::createSidePanel</text>
</a>
</g>
</g>
<!-- Node29&#45;&gt;Node30 -->
<g id="edge53_Node000029_Node000030" class="edge">
<title>Node29&#45;&gt;Node30</title>
<g id="a_edge53_Node000029_Node000030"><a xlink:title=" ">
<path fill="none" stroke="#63b8ff" d="M1603.56,-374.86C1592.6,-374.98 1581.39,-375.1 1570.56,-375.21"/>
<polygon fill="#63b8ff" stroke="#63b8ff" points="1603.4,-378.36 1613.36,-374.76 1603.32,-371.36 1603.4,-378.36"/>
</a>
</g>
</g>
<!-- Node31 -->
<g id="Node000031" class="node">
<title>Node31</title>
<g id="a_Node000031"><a xlink:href="class_main_window.html#a87f94def1c8d92ef141ffb6a20cf3900" target="_top" xlink:title=" ">
<polygon fill="white" stroke="#666666" points="1378.25,-395 1241.5,-395 1241.5,-363 1378.25,-363 1378.25,-395"/>
<text xml:space="preserve" text-anchor="start" x="1249.5" y="-381.5" font-family="Helvetica,sans-Serif" font-size="10.00">MainWindow::createCentral</text>
<text xml:space="preserve" text-anchor="middle" x="1309.88" y="-369.5" font-family="Helvetica,sans-Serif" font-size="10.00">Widget</text>
</a>
</g>
</g>
<!-- Node30&#45;&gt;Node31 -->
<g id="edge54_Node000030_Node000031" class="edge">
<title>Node30&#45;&gt;Node31</title>
<g id="a_edge54_Node000030_Node000031"><a xlink:title=" ">
<path fill="none" stroke="#63b8ff" d="M1408.91,-377.4C1398.79,-377.56 1388.57,-377.73 1378.74,-377.89"/>
<polygon fill="#63b8ff" stroke="#63b8ff" points="1408.81,-380.9 1418.75,-377.24 1408.7,-373.9 1408.81,-380.9"/>
</a>
</g>
</g>
<!-- Node32 -->
<g id="Node000032" class="node">
<title>Node32</title>
<g id="a_Node000032"><a xlink:href="class_main_window.html#a3a304253c9e7caeef028f75358bf1fd5" target="_top" xlink:title=" ">
<polygon fill="white" stroke="#666666" points="1198,-389 1085.25,-389 1085.25,-369 1198,-369 1198,-389"/>
<text xml:space="preserve" text-anchor="middle" x="1141.62" y="-375.5" font-family="Helvetica,sans-Serif" font-size="10.00">MainWindow::setupUI</text>
</a>
</g>
</g>
<!-- Node31&#45;&gt;Node32 -->
<g id="edge55_Node000031_Node000032" class="edge">
<title>Node31&#45;&gt;Node32</title>
<g id="a_edge55_Node000031_Node000032"><a xlink:title=" ">
<path fill="none" stroke="#63b8ff" d="M1229.76,-379C1219.11,-379 1208.37,-379 1198.24,-379"/>
<polygon fill="#63b8ff" stroke="#63b8ff" points="1229.74,-382.5 1239.74,-379 1229.74,-375.5 1229.74,-382.5"/>
</a>
</g>
</g>
<!-- Node33 -->
<g id="Node000033" class="node">
<title>Node33</title>
<g id="a_Node000033"><a xlink:href="class_main_window.html#a996c5a2b6f77944776856f08ec30858d" target="_top" xlink:title=" ">
<polygon fill="white" stroke="#666666" points="1041.75,-389 907.25,-389 907.25,-369 1041.75,-369 1041.75,-389"/>
<text xml:space="preserve" text-anchor="middle" x="974.5" y="-375.5" font-family="Helvetica,sans-Serif" font-size="10.00">MainWindow::MainWindow</text>
</a>
</g>
</g>
<!-- Node32&#45;&gt;Node33 -->
<g id="edge56_Node000032_Node000033" class="edge">
<title>Node32&#45;&gt;Node33</title>
<g id="a_edge56_Node000032_Node000033"><a xlink:title=" ">
<path fill="none" stroke="#63b8ff" d="M1073.92,-379C1063.39,-379 1052.49,-379 1041.96,-379"/>
<polygon fill="#63b8ff" stroke="#63b8ff" points="1073.67,-382.5 1083.67,-379 1073.67,-375.5 1073.67,-382.5"/>
</a>
</g>
</g>
<!-- Node35 -->
<g id="Node000035" class="node">
<title>Node35</title>
<g id="a_Node000035"><a xlink:href="class_main_window.html#ac15079a99bc4f9b1a66e1da16bcbd55d" target="_top" xlink:title=" ">
<polygon fill="white" stroke="#666666" points="1576.5,-425 1414.25,-425 1414.25,-405 1576.5,-405 1576.5,-425"/>
<text xml:space="preserve" text-anchor="middle" x="1495.38" y="-411.5" font-family="Helvetica,sans-Serif" font-size="10.00">MainWindow::createDiagramArea</text>
</a>
</g>
</g>
<!-- Node34&#45;&gt;Node35 -->
<g id="edge58_Node000034_Node000035" class="edge">
<title>Node34&#45;&gt;Node35</title>
<g id="a_edge58_Node000034_Node000035"><a xlink:title=" ">
<path fill="none" stroke="#63b8ff" d="M1783.38,-417.28C1720.36,-416.78 1637.35,-416.12 1576.83,-415.64"/>
<polygon fill="#63b8ff" stroke="#63b8ff" points="1782.97,-420.77 1792.99,-417.35 1783.02,-413.77 1782.97,-420.77"/>
</a>
</g>
</g>
<!-- Node35&#45;&gt;Node31 -->
<g id="edge59_Node000035_Node000031" class="edge">
<title>Node35&#45;&gt;Node31</title>
<g id="a_edge59_Node000035_Node000031"><a xlink:title=" ">
<path fill="none" stroke="#63b8ff" d="M1430.01,-402.37C1413.36,-399.11 1395.38,-395.58 1378.56,-392.28"/>
<polygon fill="#63b8ff" stroke="#63b8ff" points="1429.33,-405.81 1439.81,-404.3 1430.67,-398.94 1429.33,-405.81"/>
</a>
</g>
</g>
</g>
</svg>
