<?xml version="1.0" encoding="UTF-8" standalone="no"?>
<!DOCTYPE svg PUBLIC "-//W3C//DTD SVG 1.1//EN"
 "http://www.w3.org/Graphics/SVG/1.1/DTD/svg11.dtd">
<!-- Generated by graphviz version 14.1.1 (20251213.1925)
 -->
<!-- Title: MainWindow::createPropertyItem Pages: 1 -->
<!--zoomable 844 -->

<svg id="main" version="1.1" xmlns="http://www.w3.org/2000/svg" xmlns:xlink="http://www.w3.org/1999/xlink" xml:space="preserve" onload="init(evt)">

<style type="text/css"><![CDATA[
.node, .edge {opacity: 0.7;}
.node.selected, .edge.selected {opacity: 1;}
.edge:hover path { stroke: red; }
.edge:hover polygon { stroke: red; fill: red; }
]]></style>

<defs>
  <circle id="rim" cx="0" cy="0" r="7"/>
  <circle id="rim2" cx="0" cy="0" r="3.5"/>
  <g id="zoomPlus">
    <use xlink:href="#rim" fill="#404040"><set attributeName="fill" to="#808080" begin="zoomplus.mouseover" end="zoomplus.mouseout"/></use>
    <path d="M-4,0h8M0,-4v8" fill="none" stroke="white" stroke-width="1.5" pointer-events="none"/>
  </g>
  <g id="zoomMin">
    <use xlink:href="#rim" fill="#404040"><set attributeName="fill" to="#808080" begin="zoomminus.mouseover" end="zoomminus.mouseout"/></use>
    <path d="M-4,0h8" fill="none" stroke="white" stroke-width="1.5" pointer-events="none"/>
  </g>
  <g id="arrowUp" transform="translate(30 24)">
    <use xlink:href="#rim"/>
    <path pointer-events="none" fill="none" stroke="white" stroke-width="1.5" d="M0,-3.0v7 M-2.5,-0.5L0,-3.0L2.5,-0.5"/>
  </g>
  <g id="arrowRight" transform="rotate(90) translate(36 -43)">
    <use xlink:href="#rim"/>
    <path pointer-events="none" fill="none" stroke="white" stroke-width="1.5" d="M0,-3.0v7 M-2.5,-0.5L0,-3.0L2.5,-0.5"/>
  </g>
  <g id="arrowDown" transform="rotate(180) translate(-30 -48)">
    <use xlink:href="#rim"/>
    <path pointer-events="none" fill="none" stroke="white" stroke-width="1.5" d="M0,-3.0v7 M-2.5,-0.5L0,-3.0L2.5,-0.5"/>
  </g>
  <g id="arrowLeft" transform="rotate(270) translate(-36 17)">
    <use xlink:href="#rim"/>
    <path pointer-events="none" fill="none" stroke="white" stroke-width="1.5" d="M0,-3.0v7 M-2.5,-0.5L0,-3.0L2.5,-0.5"/>
  </g>
  <g id="resetDef">
    <use xlink:href="#rim2" fill="#404040"><set attributeName="fill" to="#808080" begin="reset.mouseover" end="reset.mouseout"/></use>
  </g>
</defs>
<script type="application/ecmascript">
var viewWidth = 1956;
var viewHeight = 844;
var sectionId = 'dynsection-31';
</script>
<script type="application/ecmascript" xlink:href="svg.min.js"/>
<svg id="graph" class="graph">
<g id="viewport">
<title>MainWindow::createPropertyItem</title>
<!-- Node1 -->
<g id="Node000001" class="node">
<title>Node1</title>
<g id="a_Node000001"><a xlink:title=" ">
<polygon fill="#999999" stroke="#666666" points="1948,-498 1786.5,-498 1786.5,-478 1948,-478 1948,-498"/>
<text xml:space="preserve" text-anchor="middle" x="1867.25" y="-484.5" font-family="Helvetica,sans-Serif" font-size="10.00">MainWindow::createPropertyItem</text>
</a>
</g>
</g>
<!-- Node2 -->
<g id="Node000002" class="node">
<title>Node2</title>
<g id="a_Node000002"><a xlink:href="class_main_window.html#a697154cf7839e00c607134c2a4e018cf" target="_top" xlink:title=" ">
<polygon fill="white" stroke="#666666" points="1750.5,-736 1583,-736 1583,-716 1750.5,-716 1750.5,-736"/>
<text xml:space="preserve" text-anchor="middle" x="1666.75" y="-722.5" font-family="Helvetica,sans-Serif" font-size="10.00">MainWindow::populateAttributeList</text>
</a>
</g>
</g>
<!-- Node1&#45;&gt;Node2 -->
<g id="edge1_Node000001_Node000002" class="edge">
<title>Node1&#45;&gt;Node2</title>
<g id="a_edge1_Node000001_Node000002"><a xlink:title=" ">
<path fill="none" stroke="#63b8ff" d="M1850.44,-506.95C1810.62,-554.7 1707.18,-678.72 1676.47,-715.54"/>
<polygon fill="#63b8ff" stroke="#63b8ff" points="1853.03,-509.31 1856.75,-499.39 1847.66,-504.83 1853.03,-509.31"/>
</a>
</g>
</g>
<!-- Node4 -->
<g id="Node000004" class="node">
<title>Node4</title>
<g id="a_Node000004"><a xlink:href="class_main_window.html#add7e6ae12287854ff779bd4b5649dd98" target="_top" xlink:title=" ">
<polygon fill="white" stroke="#666666" points="1359.25,-504 1200,-504 1200,-472 1359.25,-472 1359.25,-504"/>
<text xml:space="preserve" text-anchor="start" x="1208" y="-490.5" font-family="Helvetica,sans-Serif" font-size="10.00">MainWindow::populateProperties</text>
<text xml:space="preserve" text-anchor="middle" x="1279.62" y="-478.5" font-family="Helvetica,sans-Serif" font-size="10.00">ForElement</text>
</a>
</g>
</g>
<!-- Node1&#45;&gt;Node4 -->
<g id="edge52_Node000001_Node000004" class="edge">
<title>Node1&#45;&gt;Node4</title>
<g id="a_edge52_Node000001_Node000004"><a xlink:title=" ">
<path fill="none" stroke="#63b8ff" d="M1774.57,-488C1660.38,-488 1467.21,-488 1359.39,-488"/>
<polygon fill="#63b8ff" stroke="#63b8ff" points="1774.54,-491.5 1784.54,-488 1774.54,-484.5 1774.54,-491.5"/>
</a>
</g>
</g>
<!-- Node15 -->
<g id="Node000015" class="node">
<title>Node15</title>
<g id="a_Node000015"><a xlink:href="class_main_window.html#af02df1238ccf49caa1c4099c88dfe465" target="_top" xlink:title=" ">
<polygon fill="white" stroke="#666666" points="164.12,-92 4.88,-92 4.88,-60 164.12,-60 164.12,-92"/>
<text xml:space="preserve" text-anchor="start" x="12.88" y="-78.5" font-family="Helvetica,sans-Serif" font-size="10.00">MainWindow::populateProperties</text>
<text xml:space="preserve" text-anchor="middle" x="84.5" y="-66.5" font-family="Helvetica,sans-Serif" font-size="10.00">ForConnection</text>
</a>
</g>
</g>
<!-- Node1&#45;&gt;Node15 -->
<g id="edge51_Node000001_Node000015" class="edge">
<title>Node1&#45;&gt;Node15</title>
<g id="a_edge51_Node000001_Node000015"><a xlink:title=" ">
<path fill="none" stroke="#63b8ff" d="M1860.73,-466.96C1834.8,-373.44 1716.01,0 1472.12,0 1472.12,0 1472.12,0 483.75,0 358.77,0 326.86,-9.27 205,-37 179.46,-42.81 151.61,-51.74 129.22,-59.59"/>
<polygon fill="#63b8ff" stroke="#63b8ff" points="1857.28,-467.61 1863.27,-476.35 1864.04,-465.78 1857.28,-467.61"/>
</a>
</g>
</g>
<!-- Node3 -->
<g id="Node000003" class="node">
<title>Node3</title>
<g id="a_Node000003"><a xlink:href="class_main_window.html#a3aa4112f20ad25eb3ad78fd354ba7de2" target="_top" xlink:title=" ">
<polygon fill="white" stroke="#666666" points="1547,-712 1395.25,-712 1395.25,-680 1547,-680 1547,-712"/>
<text xml:space="preserve" text-anchor="start" x="1403.25" y="-698.5" font-family="Helvetica,sans-Serif" font-size="10.00">MainWindow::populateAttribute</text>
<text xml:space="preserve" text-anchor="middle" x="1471.12" y="-686.5" font-family="Helvetica,sans-Serif" font-size="10.00">Properties</text>
</a>
</g>
</g>
<!-- Node2&#45;&gt;Node3 -->
<g id="edge2_Node000002_Node000003" class="edge">
<title>Node2&#45;&gt;Node3</title>
<g id="a_edge2_Node000002_Node000003"><a xlink:title=" ">
<path fill="none" stroke="#63b8ff" d="M1620.76,-713.23C1598.9,-708.95 1572.04,-704.53 1547.19,-701.03"/>
<polygon fill="#63b8ff" stroke="#63b8ff" points="1620.04,-716.65 1630.54,-715.21 1621.43,-709.79 1620.04,-716.65"/>
</a>
</g>
</g>
<!-- Node8 -->
<g id="Node000008" class="node">
<title>Node8</title>
<g id="a_Node000008"><a xlink:href="class_main_window.html#a40023e3590f2593fd133a6b111f63ed9" target="_top" xlink:title=" ">
<polygon fill="white" stroke="#666666" points="555,-652 414.5,-652 414.5,-620 555,-620 555,-652"/>
<text xml:space="preserve" text-anchor="start" x="422.5" y="-638.5" font-family="Helvetica,sans-Serif" font-size="10.00">MainWindow::populateEntity</text>
<text xml:space="preserve" text-anchor="middle" x="484.75" y="-626.5" font-family="Helvetica,sans-Serif" font-size="10.00">Properties</text>
</a>
</g>
</g>
<!-- Node2&#45;&gt;Node8 -->
<g id="edge49_Node000002_Node000008" class="edge">
<title>Node2&#45;&gt;Node8</title>
<g id="a_edge49_Node000002_Node000008"><a xlink:title=" ">
<path fill="none" stroke="#63b8ff" d="M1571.28,-737.48C1493.41,-745.94 1380.02,-756 1280.62,-756 1280.62,-756 1280.62,-756 891.12,-756 746.9,-756 585.25,-685.3 517.89,-652.43"/>
<polygon fill="#63b8ff" stroke="#63b8ff" points="1571.44,-740.98 1581,-736.41 1570.68,-734.02 1571.44,-740.98"/>
</a>
</g>
</g>
<!-- Node9 -->
<g id="Node000009" class="node">
<title>Node9</title>
<g id="a_Node000009"><a xlink:href="class_main_window.html#a1049a5796ac248f40a3b4110ed5faf77" target="_top" xlink:title=" ">
<polygon fill="white" stroke="#666666" points="169,-586 0,-586 0,-554 169,-554 169,-586"/>
<text xml:space="preserve" text-anchor="start" x="8" y="-572.5" font-family="Helvetica,sans-Serif" font-size="10.00">MainWindow::populateRelationship</text>
<text xml:space="preserve" text-anchor="middle" x="84.5" y="-560.5" font-family="Helvetica,sans-Serif" font-size="10.00">Properties</text>
</a>
</g>
</g>
<!-- Node2&#45;&gt;Node9 -->
<g id="edge50_Node000002_Node000009" class="edge">
<title>Node2&#45;&gt;Node9</title>
<g id="a_edge50_Node000002_Node000009"><a xlink:title=" ">
<path fill="none" stroke="#63b8ff" d="M1623.45,-739.8C1600.95,-746.72 1572.7,-754.71 1547,-760 1430.1,-784.05 1399.97,-794 1280.62,-794 1280.62,-794 1280.62,-794 483.75,-794 314.39,-794 150.52,-638.2 100.78,-586.47"/>
<polygon fill="#63b8ff" stroke="#63b8ff" points="1624.37,-743.18 1632.88,-736.86 1622.29,-736.5 1624.37,-743.18"/>
</a>
</g>
</g>
<!-- Node3&#45;&gt;Node2 -->
<g id="edge3_Node000003_Node000002" class="edge">
<title>Node3&#45;&gt;Node2</title>
<g id="a_edge3_Node000003_Node000002"><a xlink:title=" ">
<path fill="none" stroke="#63b8ff" d="M1548.26,-714.41C1559.5,-716.3 1571.13,-718.13 1582.51,-719.79"/>
<polygon fill="#63b8ff" stroke="#63b8ff" points="1549.11,-711 1538.66,-712.75 1547.92,-717.9 1549.11,-711"/>
</a>
</g>
</g>
<!-- Node3&#45;&gt;Node4 -->
<g id="edge4_Node000003_Node000004" class="edge">
<title>Node3&#45;&gt;Node4</title>
<g id="a_edge4_Node000003_Node000004"><a xlink:title=" ">
<path fill="none" stroke="#63b8ff" d="M1447.52,-671.19C1408.24,-628.07 1328.43,-540.47 1295.43,-504.25"/>
<polygon fill="#63b8ff" stroke="#63b8ff" points="1444.91,-673.52 1454.24,-678.56 1450.09,-668.81 1444.91,-673.52"/>
</a>
</g>
</g>
<!-- Node5 -->
<g id="Node000005" class="node">
<title>Node5</title>
<g id="a_Node000005"><a xlink:href="class_main_window.html#a5caeae304b10e5cd9f83ef5c6086310b" target="_top" xlink:title=" ">
<polygon fill="white" stroke="#666666" points="1164,-394 1012.25,-394 1012.25,-362 1164,-362 1164,-394"/>
<text xml:space="preserve" text-anchor="start" x="1020.25" y="-380.5" font-family="Helvetica,sans-Serif" font-size="10.00">MainWindow::updateProperties</text>
<text xml:space="preserve" text-anchor="middle" x="1088.12" y="-368.5" font-family="Helvetica,sans-Serif" font-size="10.00">Panel</text>
</a>
</g>
</g>
<!-- Node4&#45;&gt;Node5 -->
<g id="edge5_Node000004_Node000005" class="edge">
<title>Node4&#45;&gt;Node5</title>
<g id="a_edge5_Node000004_Node000005"><a xlink:title=" ">
<path fill="none" stroke="#63b8ff" d="M1240.49,-465.86C1204.08,-444.73 1150.08,-413.38 1117.38,-394.4"/>
<polygon fill="#63b8ff" stroke="#63b8ff" points="1238.54,-468.78 1248.95,-470.77 1242.05,-462.72 1238.54,-468.78"/>
</a>
</g>
</g>
<!-- Node6 -->
<g id="Node000006" class="node">
<title>Node6</title>
<g id="a_Node000006"><a xlink:href="class_main_window.html#ad34ae0349abf41aa739b75b85df74126" target="_top" xlink:title=" ">
<polygon fill="white" stroke="#666666" points="963.5,-526 820.75,-526 820.75,-494 963.5,-494 963.5,-526"/>
<text xml:space="preserve" text-anchor="start" x="828.75" y="-512.5" font-family="Helvetica,sans-Serif" font-size="10.00">MainWindow::onAddAttribute</text>
<text xml:space="preserve" text-anchor="middle" x="892.12" y="-500.5" font-family="Helvetica,sans-Serif" font-size="10.00">OnTreeClicked</text>
</a>
</g>
</g>
<!-- Node5&#45;&gt;Node6 -->
<g id="edge6_Node000005_Node000006" class="edge">
<title>Node5&#45;&gt;Node6</title>
<g id="a_edge6_Node000005_Node000006"><a xlink:title=" ">
<path fill="none" stroke="#63b8ff" d="M1065.66,-402.74C1044.79,-425.49 1011.2,-458.81 976.25,-480 967.59,-485.25 957.87,-489.79 948.21,-493.63"/>
<polygon fill="#63b8ff" stroke="#63b8ff" points="1068.17,-405.18 1072.26,-395.41 1062.97,-400.5 1068.17,-405.18"/>
</a>
</g>
</g>
<!-- Node10 -->
<g id="Node000010" class="node">
<title>Node10</title>
<g id="a_Node000010"><a xlink:href="class_main_window.html#a47fd0b86ddb5829e3b0cb15908671670" target="_top" xlink:title=" ">
<polygon fill="white" stroke="#666666" points="571.5,-476 398,-476 398,-456 571.5,-456 571.5,-476"/>
<text xml:space="preserve" text-anchor="middle" x="484.75" y="-462.5" font-family="Helvetica,sans-Serif" font-size="10.00">MainWindow::onCheckBoxChanged</text>
</a>
</g>
</g>
<!-- Node5&#45;&gt;Node10 -->
<g id="edge14_Node000005_Node000010" class="edge">
<title>Node5&#45;&gt;Node10</title>
<g id="a_edge14_Node000005_Node000010"><a xlink:title=" ">
<path fill="none" stroke="#63b8ff" d="M1053.87,-400.42C1032.46,-414.02 1003.61,-430.85 976.25,-442 904.77,-471.12 873.08,-443.5 808,-485 786.7,-498.58 794.83,-518.18 772,-529 706.53,-560.02 679.43,-545.96 609,-529 566.71,-518.82 522.61,-491.54 500.4,-476.43"/>
<polygon fill="#63b8ff" stroke="#63b8ff" points="1055.67,-403.42 1062.17,-395.06 1051.87,-397.54 1055.67,-403.42"/>
</a>
</g>
</g>
<!-- Node12 -->
<g id="Node000012" class="node">
<title>Node12</title>
<g id="a_Node000012"><a xlink:href="class_main_window.html#ac1e0c79708cf9aa9b7ca1a87697e5b34" target="_top" xlink:title=" ">
<polygon fill="white" stroke="#666666" points="573,-322 396.5,-322 396.5,-302 573,-302 573,-322"/>
<text xml:space="preserve" text-anchor="middle" x="484.75" y="-308.5" font-family="Helvetica,sans-Serif" font-size="10.00">MainWindow::onComboBoxChanged</text>
</a>
</g>
</g>
<!-- Node5&#45;&gt;Node12 -->
<g id="edge18_Node000005_Node000012" class="edge">
<title>Node5&#45;&gt;Node12</title>
<g id="a_edge18_Node000005_Node000012"><a xlink:title=" ">
<path fill="none" stroke="#63b8ff" d="M1043.5,-356.9C983.85,-329.33 872.74,-282.52 772,-265 700.63,-252.59 680.25,-251.88 609,-265 571.16,-271.97 529.91,-290.03 506.02,-301.63"/>
<polygon fill="#63b8ff" stroke="#63b8ff" points="1041.76,-359.95 1052.3,-361 1044.72,-353.6 1041.76,-359.95"/>
</a>
</g>
</g>
<!-- Node16 -->
<g id="Node000016" class="node">
<title>Node16</title>
<g id="a_Node000016"><a xlink:href="class_main_window.html#a0e7ca45ac830893108871185dda813a4" target="_top" xlink:title=" ">
<polygon fill="white" stroke="#666666" points="772,-520 609,-520 609,-500 772,-500 772,-520"/>
<text xml:space="preserve" text-anchor="middle" x="690.5" y="-506.5" font-family="Helvetica,sans-Serif" font-size="10.00">MainWindow::onLineEditChanged</text>
</a>
</g>
</g>
<!-- Node5&#45;&gt;Node16 -->
<g id="edge25_Node000005_Node000016" class="edge">
<title>Node5&#45;&gt;Node16</title>
<g id="a_edge25_Node000005_Node000016"><a xlink:title=" ">
<path fill="none" stroke="#63b8ff" d="M1005.89,-397.09C929.77,-415.37 825.16,-441.66 808,-452 787.79,-464.17 792.37,-479.1 772,-491 766.05,-494.48 759.5,-497.32 752.78,-499.64"/>
<polygon fill="#63b8ff" stroke="#63b8ff" points="1006.52,-400.54 1015.43,-394.8 1004.89,-393.73 1006.52,-400.54"/>
</a>
</g>
</g>
<!-- Node18 -->
<g id="Node000018" class="node">
<title>Node18</title>
<g id="a_Node000018"><a xlink:href="class_main_window.html#a1043995538765eae993ae75217c482e7" target="_top" xlink:title=" ">
<polygon fill="white" stroke="#666666" points="559.5,-177 410,-177 410,-145 559.5,-145 559.5,-177"/>
<text xml:space="preserve" text-anchor="start" x="418" y="-163.5" font-family="Helvetica,sans-Serif" font-size="10.00">MainWindow::onPropertyValue</text>
<text xml:space="preserve" text-anchor="middle" x="484.75" y="-151.5" font-family="Helvetica,sans-Serif" font-size="10.00">Changed</text>
</a>
</g>
</g>
<!-- Node5&#45;&gt;Node18 -->
<g id="edge28_Node000005_Node000018" class="edge">
<title>Node5&#45;&gt;Node18</title>
<g id="a_edge28_Node000005_Node000018"><a xlink:title=" ">
<path fill="none" stroke="#63b8ff" d="M1072.89,-352.17C1053.79,-324.54 1017.46,-282.34 976.25,-260 841.34,-186.86 660.09,-163.24 559.99,-158.54"/>
<polygon fill="#63b8ff" stroke="#63b8ff" points="1069.86,-353.95 1078.29,-360.37 1075.71,-350.09 1069.86,-353.95"/>
</a>
</g>
</g>
<!-- Node21 -->
<g id="Node000021" class="node">
<title>Node21</title>
<g id="a_Node000021"><a xlink:href="class_main_window.html#a95674d4bfc5fc2aad6df1601f23b1793" target="_top" xlink:title=" ">
<polygon fill="white" stroke="#666666" points="973.25,-576 811,-576 811,-544 973.25,-544 973.25,-576"/>
<text xml:space="preserve" text-anchor="start" x="819" y="-562.5" font-family="Helvetica,sans-Serif" font-size="10.00">MainWindow::onRemoveAttribute</text>
<text xml:space="preserve" text-anchor="middle" x="892.12" y="-550.5" font-family="Helvetica,sans-Serif" font-size="10.00">OnTreeClicked</text>
</a>
</g>
</g>
<!-- Node5&#45;&gt;Node21 -->
<g id="edge32_Node000005_Node000021" class="edge">
<title>Node5&#45;&gt;Node21</title>
<g id="a_edge32_Node000005_Node000021"><a xlink:title=" ">
<path fill="none" stroke="#63b8ff" d="M1075.36,-404.39C1058.43,-439.38 1023.9,-500.69 976.25,-535 971.72,-538.26 966.77,-541.1 961.61,-543.57"/>
<polygon fill="#63b8ff" stroke="#63b8ff" points="1078.5,-405.93 1079.59,-395.39 1072.17,-402.95 1078.5,-405.93"/>
</a>
</g>
</g>
<!-- Node22 -->
<g id="Node000022" class="node">
<title>Node22</title>
<g id="a_Node000022"><a xlink:href="class_main_window.html#a44791b85064ecff42c12429c6667e83b" target="_top" xlink:title=" ">
<polygon fill="white" stroke="#666666" points="976.25,-124 808,-124 808,-104 976.25,-104 976.25,-124"/>
<text xml:space="preserve" text-anchor="middle" x="892.12" y="-110.5" font-family="Helvetica,sans-Serif" font-size="10.00">MainWindow::onSelectionChanged</text>
</a>
</g>
</g>
<!-- Node5&#45;&gt;Node22 -->
<g id="edge34_Node000005_Node000022" class="edge">
<title>Node5&#45;&gt;Node22</title>
<g id="a_edge34_Node000005_Node000022"><a xlink:title=" ">
<path fill="none" stroke="#63b8ff" d="M1082.21,-350.67C1071.81,-300.86 1042.84,-195.18 976.25,-138 969.41,-132.13 961.21,-127.69 952.67,-124.34"/>
<polygon fill="#63b8ff" stroke="#63b8ff" points="1078.74,-351.18 1084.12,-360.31 1085.61,-349.82 1078.74,-351.18"/>
</a>
</g>
</g>
<!-- Node23 -->
<g id="Node000023" class="node">
<title>Node23</title>
<g id="a_Node000023"><a xlink:href="class_main_window.html#af380eeda83d30cd1ecb1419cfd5161d7" target="_top" xlink:title=" ">
<polygon fill="white" stroke="#666666" points="959,-394 825.25,-394 825.25,-362 959,-362 959,-394"/>
<text xml:space="preserve" text-anchor="start" x="833.25" y="-380.5" font-family="Helvetica,sans-Serif" font-size="10.00">MainWindow::updatesAfter</text>
<text xml:space="preserve" text-anchor="middle" x="892.12" y="-368.5" font-family="Helvetica,sans-Serif" font-size="10.00">ChangingProperty</text>
</a>
</g>
</g>
<!-- Node5&#45;&gt;Node23 -->
<g id="edge36_Node000005_Node000023" class="edge">
<title>Node5&#45;&gt;Node23</title>
<g id="a_edge36_Node000005_Node000023"><a xlink:title=" ">
<path fill="none" stroke="#63b8ff" d="M1000.33,-378C986.52,-378 972.44,-378 959.21,-378"/>
<polygon fill="#63b8ff" stroke="#63b8ff" points="1000.33,-381.5 1010.33,-378 1000.33,-374.5 1000.33,-381.5"/>
</a>
</g>
</g>
<!-- Node7 -->
<g id="Node000007" class="node">
<title>Node7</title>
<g id="a_Node000007"><a xlink:href="class_main_window.html#a6fd05e9f951dd6e7c2cd6ca815ef9d71" target="_top" xlink:title=" ">
<polygon fill="white" stroke="#666666" points="757.38,-608 623.62,-608 623.62,-576 757.38,-576 757.38,-608"/>
<text xml:space="preserve" text-anchor="start" x="631.62" y="-594.5" font-family="Helvetica,sans-Serif" font-size="10.00">MainWindow::createButton</text>
<text xml:space="preserve" text-anchor="middle" x="690.5" y="-582.5" font-family="Helvetica,sans-Serif" font-size="10.00">PropertyItem</text>
</a>
</g>
</g>
<!-- Node6&#45;&gt;Node7 -->
<g id="edge7_Node000006_Node000007" class="edge">
<title>Node6&#45;&gt;Node7</title>
<g id="a_edge7_Node000006_Node000007"><a xlink:title=" ">
<path fill="none" stroke="#63b8ff" d="M817.48,-530.59C814.24,-531.98 811.06,-533.45 808,-535 790.15,-544.02 789.55,-552.41 772,-562 762.71,-567.08 752.38,-571.65 742.3,-575.6"/>
<polygon fill="#63b8ff" stroke="#63b8ff" points="818.62,-533.91 826.61,-526.95 816.03,-527.4 818.62,-533.91"/>
</a>
</g>
</g>
<!-- Node7&#45;&gt;Node2 -->
<g id="edge8_Node000007_Node000002" class="edge">
<title>Node7&#45;&gt;Node2</title>
<g id="a_edge8_Node000007_Node000002"><a xlink:title=" ">
<path fill="none" stroke="#63b8ff" d="M712.8,-616.85C767.93,-678.22 922.5,-832 1087.12,-832 1280.62,-832 1280.62,-832 1280.62,-832 1399.49,-832 1435.22,-848.44 1547,-808 1591.76,-791.81 1635.49,-754.48 1655.07,-736.31"/>
<polygon fill="#63b8ff" stroke="#63b8ff" points="715.66,-614.79 706.41,-609.63 710.42,-619.44 715.66,-614.79"/>
</a>
</g>
</g>
<!-- Node7&#45;&gt;Node3 -->
<g id="edge9_Node000007_Node000003" class="edge">
<title>Node7&#45;&gt;Node3</title>
<g id="a_edge9_Node000007_Node000003"><a xlink:title=" ">
<path fill="none" stroke="#63b8ff" d="M769.21,-596.72C894.33,-605.18 1147.83,-625.93 1359.25,-666 1377.86,-669.53 1397.93,-674.57 1415.81,-679.51"/>
<polygon fill="#63b8ff" stroke="#63b8ff" points="769.59,-593.23 759.38,-596.06 769.13,-600.22 769.59,-593.23"/>
</a>
</g>
</g>
<!-- Node7&#45;&gt;Node8 -->
<g id="edge10_Node000007_Node000008" class="edge">
<title>Node7&#45;&gt;Node8</title>
<g id="a_edge10_Node000007_Node000008"><a xlink:title=" ">
<path fill="none" stroke="#63b8ff" d="M612.21,-608.69C593.55,-612.72 573.71,-617 555.43,-620.95"/>
<polygon fill="#63b8ff" stroke="#63b8ff" points="612.83,-612.14 621.87,-606.61 611.36,-605.29 612.83,-612.14"/>
</a>
</g>
</g>
<!-- Node7&#45;&gt;Node9 -->
<g id="edge12_Node000007_Node000009" class="edge">
<title>Node7&#45;&gt;Node9</title>
<g id="a_edge12_Node000007_Node000009"><a xlink:title=" ">
<path fill="none" stroke="#63b8ff" d="M611.75,-589.17C497.88,-585.02 286.58,-577.32 169.34,-573.05"/>
<polygon fill="#63b8ff" stroke="#63b8ff" points="611.5,-592.66 621.62,-589.53 611.76,-585.67 611.5,-592.66"/>
</a>
</g>
</g>
<!-- Node8&#45;&gt;Node4 -->
<g id="edge11_Node000008_Node000004" class="edge">
<title>Node8&#45;&gt;Node4</title>
<g id="a_edge11_Node000008_Node000004"><a xlink:title=" ">
<path fill="none" stroke="#63b8ff" d="M566.51,-632.56C623.94,-629.65 702.85,-624.7 772,-617 863.32,-606.84 886.85,-606.21 976.25,-585 1069.86,-562.79 1176.34,-525.79 1234.66,-504.48"/>
<polygon fill="#63b8ff" stroke="#63b8ff" points="566.64,-629.05 556.83,-633.04 566.99,-636.04 566.64,-629.05"/>
</a>
</g>
</g>
<!-- Node9&#45;&gt;Node4 -->
<g id="edge13_Node000009_Node000004" class="edge">
<title>Node9&#45;&gt;Node4</title>
<g id="a_edge13_Node000009_Node000004"><a xlink:title=" ">
<path fill="none" stroke="#63b8ff" d="M89.31,-542.43C101.95,-454.65 145.16,-183.79 205,-122 295.02,-29.05 354.36,-38 483.75,-38 893.12,-38 893.12,-38 893.12,-38 930.59,-38 944.62,-31.92 976.25,-52 1148.12,-161.11 1248.59,-406.77 1272.85,-471.9"/>
<polygon fill="#63b8ff" stroke="#63b8ff" points="85.85,-541.89 87.91,-552.29 92.78,-542.88 85.85,-541.89"/>
</a>
</g>
</g>
<!-- Node11 -->
<g id="Node000011" class="node">
<title>Node11</title>
<g id="a_Node000011"><a xlink:href="class_main_window.html#a44aaf7bb6d9a56f53b8a7a9e4fc29f8c" target="_top" xlink:title=" ">
<polygon fill="white" stroke="#666666" points="358.25,-652 207.25,-652 207.25,-620 358.25,-620 358.25,-652"/>
<text xml:space="preserve" text-anchor="start" x="215.25" y="-638.5" font-family="Helvetica,sans-Serif" font-size="10.00">MainWindow::createCheckBox</text>
<text xml:space="preserve" text-anchor="middle" x="282.75" y="-626.5" font-family="Helvetica,sans-Serif" font-size="10.00">PropertyItem</text>
</a>
</g>
</g>
<!-- Node10&#45;&gt;Node11 -->
<g id="edge15_Node000010_Node000011" class="edge">
<title>Node10&#45;&gt;Node11</title>
<g id="a_edge15_Node000010_Node000011"><a xlink:title=" ">
<path fill="none" stroke="#63b8ff" d="M463.56,-483.83C439.26,-505.21 397.17,-542.04 360.5,-573 341.53,-589.01 319.62,-606.95 304.08,-619.57"/>
<polygon fill="#63b8ff" stroke="#63b8ff" points="465.62,-486.68 470.81,-477.44 460.99,-481.43 465.62,-486.68"/>
</a>
</g>
</g>
<!-- Node11&#45;&gt;Node3 -->
<g id="edge16_Node000011_Node000003" class="edge">
<title>Node11&#45;&gt;Node3</title>
<g id="a_edge16_Node000011_Node000003"><a xlink:title=" ">
<path fill="none" stroke="#63b8ff" d="M361.12,-654.79C372.91,-657.18 384.99,-659.36 396.5,-661 525.69,-679.4 559,-680 689.5,-680 1089.12,-680 1089.12,-680 1089.12,-680 1195.38,-680 1318.16,-686.29 1394.98,-690.98"/>
<polygon fill="#63b8ff" stroke="#63b8ff" points="361.9,-651.38 351.4,-652.76 360.47,-658.23 361.9,-651.38"/>
</a>
</g>
</g>
<!-- Node11&#45;&gt;Node9 -->
<g id="edge17_Node000011_Node000009" class="edge">
<title>Node11&#45;&gt;Node9</title>
<g id="a_edge17_Node000011_Node000009"><a xlink:title=" ">
<path fill="none" stroke="#63b8ff" d="M221.84,-615.85C193.77,-606.41 160.74,-595.31 134.23,-586.39"/>
<polygon fill="#63b8ff" stroke="#63b8ff" points="220.71,-619.16 231.3,-619.03 222.94,-612.53 220.71,-619.16"/>
</a>
</g>
</g>
<!-- Node13 -->
<g id="Node000013" class="node">
<title>Node13</title>
<g id="a_Node000013"><a xlink:href="class_main_window.html#a872e6a76dcbf858ae9d483eceddf90e1" target="_top" xlink:title=" ">
<polygon fill="white" stroke="#666666" points="359.75,-564 205.75,-564 205.75,-532 359.75,-532 359.75,-564"/>
<text xml:space="preserve" text-anchor="start" x="213.75" y="-550.5" font-family="Helvetica,sans-Serif" font-size="10.00">MainWindow::createComboBox</text>
<text xml:space="preserve" text-anchor="middle" x="282.75" y="-538.5" font-family="Helvetica,sans-Serif" font-size="10.00">PropertyItem</text>
</a>
</g>
</g>
<!-- Node12&#45;&gt;Node13 -->
<g id="edge19_Node000012_Node000013" class="edge">
<title>Node12&#45;&gt;Node13</title>
<g id="a_edge19_Node000012_Node000013"><a xlink:title=" ">
<path fill="none" stroke="#63b8ff" d="M469.91,-331.61C451.95,-357.44 420.13,-404.57 396.5,-447 378.32,-479.65 388.56,-498.31 360.5,-523 356.82,-526.24 352.71,-529.06 348.36,-531.52"/>
<polygon fill="#63b8ff" stroke="#63b8ff" points="472.75,-333.65 475.62,-323.45 467.01,-329.64 472.75,-333.65"/>
</a>
</g>
</g>
<!-- Node14 -->
<g id="Node000014" class="node">
<title>Node14</title>
<g id="a_Node000014"><a xlink:href="class_main_window.html#abae03a6494d13d74ed1b2e31ec1f2fc7" target="_top" xlink:title=" ">
<polygon fill="white" stroke="#666666" points="360.5,-265 205,-265 205,-233 360.5,-233 360.5,-265"/>
<text xml:space="preserve" text-anchor="start" x="213" y="-251.5" font-family="Helvetica,sans-Serif" font-size="10.00">MainWindow::createIconCombo</text>
<text xml:space="preserve" text-anchor="middle" x="282.75" y="-239.5" font-family="Helvetica,sans-Serif" font-size="10.00">BoxPropertyItem</text>
</a>
</g>
</g>
<!-- Node12&#45;&gt;Node14 -->
<g id="edge22_Node000012_Node000014" class="edge">
<title>Node12&#45;&gt;Node14</title>
<g id="a_edge22_Node000012_Node000014"><a xlink:title=" ">
<path fill="none" stroke="#63b8ff" d="M439.95,-298.2C409.34,-288.56 368.33,-275.64 336.01,-265.46"/>
<polygon fill="#63b8ff" stroke="#63b8ff" points="438.69,-301.48 449.28,-301.14 440.79,-294.8 438.69,-301.48"/>
</a>
</g>
</g>
<!-- Node13&#45;&gt;Node3 -->
<g id="edge20_Node000013_Node000003" class="edge">
<title>Node13&#45;&gt;Node3</title>
<g id="a_edge20_Node000013_Node000003"><a xlink:title=" ">
<path fill="none" stroke="#63b8ff" d="M315.66,-571.17C330.11,-582.4 346.95,-596.56 360.5,-611 379.24,-630.97 373.44,-646.24 396.5,-661 508.23,-732.53 556.84,-718 689.5,-718 1089.12,-718 1089.12,-718 1089.12,-718 1195.47,-718 1318.23,-709.35 1395.02,-702.9"/>
<polygon fill="#63b8ff" stroke="#63b8ff" points="317.85,-568.44 307.77,-565.16 313.61,-574.01 317.85,-568.44"/>
</a>
</g>
</g>
<!-- Node13&#45;&gt;Node9 -->
<g id="edge21_Node000013_Node000009" class="edge">
<title>Node13&#45;&gt;Node9</title>
<g id="a_edge21_Node000013_Node000009"><a xlink:title=" ">
<path fill="none" stroke="#63b8ff" d="M194.11,-557.83C185.83,-558.75 177.45,-559.69 169.2,-560.62"/>
<polygon fill="#63b8ff" stroke="#63b8ff" points="194.26,-561.33 203.81,-556.74 193.48,-554.37 194.26,-561.33"/>
</a>
</g>
</g>
<!-- Node14&#45;&gt;Node15 -->
<g id="edge23_Node000014_Node000015" class="edge">
<title>Node14&#45;&gt;Node15</title>
<g id="a_edge23_Node000014_Node000015"><a xlink:title=" ">
<path fill="none" stroke="#63b8ff" d="M260.31,-223.95C230.59,-189.35 179.33,-130.26 169,-122 154.52,-110.43 136.73,-100.18 121.29,-92.31"/>
<polygon fill="#63b8ff" stroke="#63b8ff" points="257.57,-226.12 266.74,-231.43 262.88,-221.56 257.57,-226.12"/>
</a>
</g>
</g>
<!-- Node15&#45;&gt;Node5 -->
<g id="edge24_Node000015_Node000005" class="edge">
<title>Node15&#45;&gt;Node5</title>
<g id="a_edge24_Node000015_Node000005"><a xlink:title=" ">
<path fill="none" stroke="#63b8ff" d="M175.57,-76C256.29,-76 377.93,-76 483.75,-76 691.5,-76 691.5,-76 691.5,-76 818.34,-76 873.91,-20.07 976.25,-95 1066.51,-161.09 1083.31,-311.8 1086.42,-361.65"/>
<polygon fill="#63b8ff" stroke="#63b8ff" points="175.98,-72.5 165.98,-76 175.98,-79.5 175.98,-72.5"/>
</a>
</g>
</g>
<!-- Node17 -->
<g id="Node000017" class="node">
<title>Node17</title>
<g id="a_Node000017"><a xlink:href="class_main_window.html#ae3b6600dd59da1822ef94bbd5f37f0cc" target="_top" xlink:title=" ">
<polygon fill="white" stroke="#666666" points="353,-514 212.5,-514 212.5,-482 353,-482 353,-514"/>
<text xml:space="preserve" text-anchor="start" x="220.5" y="-500.5" font-family="Helvetica,sans-Serif" font-size="10.00">MainWindow::createLineEdit</text>
<text xml:space="preserve" text-anchor="middle" x="282.75" y="-488.5" font-family="Helvetica,sans-Serif" font-size="10.00">PropertyItem</text>
</a>
</g>
</g>
<!-- Node16&#45;&gt;Node17 -->
<g id="edge26_Node000016_Node000017" class="edge">
<title>Node16&#45;&gt;Node17</title>
<g id="a_edge26_Node000016_Node000017"><a xlink:title=" ">
<path fill="none" stroke="#63b8ff" d="M597.67,-507.28C523.57,-505.09 420.89,-502.06 353.43,-500.06"/>
<polygon fill="#63b8ff" stroke="#63b8ff" points="597.24,-510.77 607.34,-507.57 597.45,-503.78 597.24,-510.77"/>
</a>
</g>
</g>
<!-- Node17&#45;&gt;Node9 -->
<g id="edge27_Node000017_Node000009" class="edge">
<title>Node17&#45;&gt;Node9</title>
<g id="a_edge27_Node000017_Node000009"><a xlink:title=" ">
<path fill="none" stroke="#63b8ff" d="M219.34,-517.98C214.48,-519.64 209.65,-521.33 205,-523 178.35,-532.57 148.74,-544.21 125.65,-553.51"/>
<polygon fill="#63b8ff" stroke="#63b8ff" points="220.21,-521.38 228.57,-514.87 217.97,-514.75 220.21,-521.38"/>
</a>
</g>
</g>
<!-- Node18&#45;&gt;Node5 -->
<g id="edge31_Node000018_Node000005" class="edge">
<title>Node18&#45;&gt;Node5</title>
<g id="a_edge31_Node000018_Node000005"><a xlink:title=" ">
<path fill="none" stroke="#63b8ff" d="M571.15,-171.89C673.13,-183.01 846.21,-207.5 976.25,-278 1015.64,-299.36 1050.57,-338.85 1070.26,-361.52"/>
<polygon fill="#63b8ff" stroke="#63b8ff" points="571.81,-168.44 561.49,-170.86 571.06,-175.4 571.81,-168.44"/>
</a>
</g>
</g>
<!-- Node19 -->
<g id="Node000019" class="node">
<title>Node19</title>
<g id="a_Node000019"><a xlink:href="class_main_window.html#adfa32feecffce3959c99d145fc8b4854" target="_top" xlink:title=" ">
<polygon fill="white" stroke="#666666" points="355.25,-151 210.25,-151 210.25,-131 355.25,-131 355.25,-151"/>
<text xml:space="preserve" text-anchor="middle" x="282.75" y="-137.5" font-family="Helvetica,sans-Serif" font-size="10.00">MainWindow::connectSignals</text>
</a>
</g>
</g>
<!-- Node18&#45;&gt;Node19 -->
<g id="edge29_Node000018_Node000019" class="edge">
<title>Node18&#45;&gt;Node19</title>
<g id="a_edge29_Node000018_Node000019"><a xlink:title=" ">
<path fill="none" stroke="#63b8ff" d="M398.24,-152.45C384,-151.02 369.35,-149.56 355.49,-148.17"/>
<polygon fill="#63b8ff" stroke="#63b8ff" points="397.76,-155.92 408.06,-153.43 398.45,-148.95 397.76,-155.92"/>
</a>
</g>
</g>
<!-- Node20 -->
<g id="Node000020" class="node">
<title>Node20</title>
<g id="a_Node000020"><a xlink:href="class_main_window.html#a996c5a2b6f77944776856f08ec30858d" target="_top" xlink:title=" ">
<polygon fill="white" stroke="#666666" points="151.75,-151 17.25,-151 17.25,-131 151.75,-131 151.75,-151"/>
<text xml:space="preserve" text-anchor="middle" x="84.5" y="-137.5" font-family="Helvetica,sans-Serif" font-size="10.00">MainWindow::MainWindow</text>
</a>
</g>
</g>
<!-- Node19&#45;&gt;Node20 -->
<g id="edge30_Node000019_Node000020" class="edge">
<title>Node19&#45;&gt;Node20</title>
<g id="a_edge30_Node000019_Node000020"><a xlink:title=" ">
<path fill="none" stroke="#63b8ff" d="M198.63,-141C183.15,-141 167.15,-141 152.24,-141"/>
<polygon fill="#63b8ff" stroke="#63b8ff" points="198.27,-144.5 208.27,-141 198.27,-137.5 198.27,-144.5"/>
</a>
</g>
</g>
<!-- Node21&#45;&gt;Node7 -->
<g id="edge33_Node000021_Node000007" class="edge">
<title>Node21&#45;&gt;Node7</title>
<g id="a_edge33_Node000021_Node000007"><a xlink:title=" ">
<path fill="none" stroke="#63b8ff" d="M799.32,-574.72C785.3,-576.96 771.06,-579.25 757.73,-581.38"/>
<polygon fill="#63b8ff" stroke="#63b8ff" points="799.69,-578.2 809.01,-573.16 798.58,-571.29 799.69,-578.2"/>
</a>
</g>
</g>
<!-- Node22&#45;&gt;Node19 -->
<g id="edge35_Node000022_Node000019" class="edge">
<title>Node22&#45;&gt;Node19</title>
<g id="a_edge35_Node000022_Node000019"><a xlink:title=" ">
<path fill="none" stroke="#63b8ff" d="M796.46,-118.21C674.47,-123.63 465.07,-132.94 355.44,-137.81"/>
<polygon fill="#63b8ff" stroke="#63b8ff" points="796.28,-121.72 806.12,-117.78 795.97,-114.73 796.28,-121.72"/>
</a>
</g>
</g>
<!-- Node23&#45;&gt;Node10 -->
<g id="edge45_Node000023_Node000010" class="edge">
<title>Node23&#45;&gt;Node10</title>
<g id="a_edge45_Node000023_Node000010"><a xlink:title=" ">
<path fill="none" stroke="#63b8ff" d="M814.02,-394.74C731.51,-412.65 603.18,-440.51 533.95,-455.54"/>
<polygon fill="#63b8ff" stroke="#63b8ff" points="814.58,-398.2 823.61,-392.66 813.1,-391.36 814.58,-398.2"/>
</a>
</g>
</g>
<!-- Node23&#45;&gt;Node12 -->
<g id="edge46_Node000023_Node000012" class="edge">
<title>Node23&#45;&gt;Node12</title>
<g id="a_edge46_Node000023_Node000012"><a xlink:title=" ">
<path fill="none" stroke="#63b8ff" d="M813.79,-361.01C799.91,-358.18 785.55,-355.39 772,-353 703.9,-340.99 626.2,-330.03 568.96,-322.47"/>
<polygon fill="#63b8ff" stroke="#63b8ff" points="812.82,-364.39 823.32,-362.98 814.23,-357.53 812.82,-364.39"/>
</a>
</g>
</g>
<!-- Node23&#45;&gt;Node16 -->
<g id="edge47_Node000023_Node000016" class="edge">
<title>Node23&#45;&gt;Node16</title>
<g id="a_edge47_Node000023_Node000016"><a xlink:title=" ">
<path fill="none" stroke="#63b8ff" d="M822.79,-399.82C817.45,-403.07 812.42,-406.78 808,-411 779.82,-437.94 802.07,-466.19 772,-491 767.79,-494.47 763.06,-497.33 758.05,-499.69"/>
<polygon fill="#63b8ff" stroke="#63b8ff" points="824.23,-403.02 831.35,-395.18 820.89,-396.87 824.23,-403.02"/>
</a>
</g>
</g>
<!-- Node23&#45;&gt;Node18 -->
<g id="edge48_Node000023_Node000018" class="edge">
<title>Node23&#45;&gt;Node18</title>
<g id="a_edge48_Node000023_Node000018"><a xlink:title=" ">
<path fill="none" stroke="#63b8ff" d="M870.3,-352.93C848.18,-327.7 811.09,-289.17 772,-265 703.42,-222.6 614.96,-193.81 554.65,-177.46"/>
<polygon fill="#63b8ff" stroke="#63b8ff" points="867.58,-355.14 876.75,-360.43 872.88,-350.57 867.58,-355.14"/>
</a>
</g>
</g>
<!-- Node24 -->
<g id="Node000024" class="node">
<title>Node24</title>
<g id="a_Node000024"><a xlink:href="class_main_window.html#a9ed390421f6755b891cfc651d173db7b" target="_top" xlink:title=" ">
<polygon fill="white" stroke="#666666" points="762.25,-394 618.75,-394 618.75,-362 762.25,-362 762.25,-394"/>
<text xml:space="preserve" text-anchor="start" x="626.75" y="-380.5" font-family="Helvetica,sans-Serif" font-size="10.00">MainWindow::handleAttribute</text>
<text xml:space="preserve" text-anchor="middle" x="690.5" y="-368.5" font-family="Helvetica,sans-Serif" font-size="10.00">PropertyChange</text>
</a>
</g>
</g>
<!-- Node23&#45;&gt;Node24 -->
<g id="edge37_Node000023_Node000024" class="edge">
<title>Node23&#45;&gt;Node24</title>
<g id="a_edge37_Node000023_Node000024"><a xlink:title=" ">
<path fill="none" stroke="#63b8ff" d="M813.5,-378C796.76,-378 779.14,-378 762.66,-378"/>
<polygon fill="#63b8ff" stroke="#63b8ff" points="813.42,-381.5 823.42,-378 813.42,-374.5 813.42,-381.5"/>
</a>
</g>
</g>
<!-- Node25 -->
<g id="Node000025" class="node">
<title>Node25</title>
<g id="a_Node000025"><a xlink:href="class_main_window.html#aa69c4b7c558b2fb3922adf75af48330a" target="_top" xlink:title=" ">
<polygon fill="white" stroke="#666666" points="770.88,-306 610.12,-306 610.12,-274 770.88,-274 770.88,-306"/>
<text xml:space="preserve" text-anchor="start" x="618.12" y="-292.5" font-family="Helvetica,sans-Serif" font-size="10.00">MainWindow::handleRelationship</text>
<text xml:space="preserve" text-anchor="middle" x="690.5" y="-280.5" font-family="Helvetica,sans-Serif" font-size="10.00">EndCardinalityChange</text>
</a>
</g>
</g>
<!-- Node23&#45;&gt;Node25 -->
<g id="edge41_Node000023_Node000025" class="edge">
<title>Node23&#45;&gt;Node25</title>
<g id="a_edge41_Node000023_Node000025"><a xlink:title=" ">
<path fill="none" stroke="#63b8ff" d="M849.14,-356.33C826.53,-344.97 798.01,-331.15 772,-320 761.03,-315.3 749.06,-310.61 737.78,-306.38"/>
<polygon fill="#63b8ff" stroke="#63b8ff" points="847.55,-359.45 858.06,-360.84 850.71,-353.2 847.55,-359.45"/>
</a>
</g>
</g>
<!-- Node26 -->
<g id="Node000026" class="node">
<title>Node26</title>
<g id="a_Node000026"><a xlink:href="class_main_window.html#a96d575a529f7c24b1b5094b4b1e42742" target="_top" xlink:title=" ">
<polygon fill="white" stroke="#666666" points="770.88,-482 610.12,-482 610.12,-450 770.88,-450 770.88,-482"/>
<text xml:space="preserve" text-anchor="start" x="618.12" y="-468.5" font-family="Helvetica,sans-Serif" font-size="10.00">MainWindow::handleRelationship</text>
<text xml:space="preserve" text-anchor="middle" x="690.5" y="-456.5" font-family="Helvetica,sans-Serif" font-size="10.00">EndParticipationChange</text>
</a>
</g>
</g>
<!-- Node23&#45;&gt;Node26 -->
<g id="edge43_Node000023_Node000026" class="edge">
<title>Node23&#45;&gt;Node26</title>
<g id="a_edge43_Node000023_Node000026"><a xlink:title=" ">
<path fill="none" stroke="#63b8ff" d="M833.56,-398.85C824.84,-402.58 816.07,-406.67 808,-411 790.83,-420.21 789.26,-426.97 772,-436 762.35,-441.05 751.66,-445.65 741.31,-449.66"/>
<polygon fill="#63b8ff" stroke="#63b8ff" points="834.8,-402.13 842.71,-395.07 832.13,-395.66 834.8,-402.13"/>
</a>
</g>
</g>
<!-- Node24&#45;&gt;Node10 -->
<g id="edge38_Node000024_Node000010" class="edge">
<title>Node24&#45;&gt;Node10</title>
<g id="a_edge38_Node000024_Node000010"><a xlink:title=" ">
<path fill="none" stroke="#63b8ff" d="M632.53,-398.56C624.59,-401.62 616.56,-404.82 609,-408 572.38,-423.41 530.74,-443.57 506.45,-455.61"/>
<polygon fill="#63b8ff" stroke="#63b8ff" points="633.75,-401.84 641.85,-395.02 631.26,-395.3 633.75,-401.84"/>
</a>
</g>
</g>
<!-- Node24&#45;&gt;Node12 -->
<g id="edge39_Node000024_Node000012" class="edge">
<title>Node24&#45;&gt;Node12</title>
<g id="a_edge39_Node000024_Node000012"><a xlink:title=" ">
<path fill="none" stroke="#63b8ff" d="M627.66,-357.97C591.47,-346.25 547.26,-331.92 517.9,-322.41"/>
<polygon fill="#63b8ff" stroke="#63b8ff" points="626.58,-361.3 637.17,-361.05 628.74,-354.64 626.58,-361.3"/>
</a>
</g>
</g>
<!-- Node24&#45;&gt;Node18 -->
<g id="edge40_Node000024_Node000018" class="edge">
<title>Node24&#45;&gt;Node18</title>
<g id="a_edge40_Node000024_Node000018"><a xlink:title=" ">
<path fill="none" stroke="#63b8ff" d="M656.71,-355.05C641.52,-343.75 623.63,-329.47 609,-315 562.74,-269.24 517.26,-206.58 496.88,-177.31"/>
<polygon fill="#63b8ff" stroke="#63b8ff" points="654.41,-357.71 664.55,-360.79 658.55,-352.06 654.41,-357.71"/>
</a>
</g>
</g>
<!-- Node25&#45;&gt;Node12 -->
<g id="edge42_Node000025_Node000012" class="edge">
<title>Node25&#45;&gt;Node12</title>
<g id="a_edge42_Node000025_Node000012"><a xlink:title=" ">
<path fill="none" stroke="#63b8ff" d="M598.55,-299.82C590.2,-300.72 581.76,-301.63 573.44,-302.53"/>
<polygon fill="#63b8ff" stroke="#63b8ff" points="598.78,-303.32 608.34,-298.76 598.03,-296.36 598.78,-303.32"/>
</a>
</g>
</g>
<!-- Node26&#45;&gt;Node10 -->
<g id="edge44_Node000026_Node000010" class="edge">
<title>Node26&#45;&gt;Node10</title>
<g id="a_edge44_Node000026_Node000010"><a xlink:title=" ">
<path fill="none" stroke="#63b8ff" d="M598.61,-466C589.68,-466 580.63,-466 571.74,-466"/>
<polygon fill="#63b8ff" stroke="#63b8ff" points="598.34,-469.5 608.34,-466 598.34,-462.5 598.34,-469.5"/>
</a>
</g>
</g>
</g>
</svg>

<g id="navigator" transform="translate(0 0)" fill="#404254">
  <rect fill="#f2f5e9" fill-opacity="0.5" stroke="#606060" stroke-width=".5" x="0" y="0" width="60" height="60"/>
  <use id="zoomplus" xlink:href="#zoomPlus" x="17" y="9" onmousedown="handleZoom(evt,'in')"/>
  <use id="zoomminus" xlink:href="#zoomMin" x="42" y="9" onmousedown="handleZoom(evt,'out')"/>
  <use id="reset" xlink:href="#resetDef" x="30" y="36" onmousedown="handleReset()"/>
   <use id="arrowup" xlink:href="#arrowUp" x="0" y="0" onmousedown="handlePan(0,-1)"/>
  <use id="arrowright" xlink:href="#arrowRight" x="0" y="0" onmousedown="handlePan(1,0)"/>
  <use id="arrowdown" xlink:href="#arrowDown" x="0" y="0" onmousedown="handlePan(0,1)"/>
  <use id="arrowleft" xlink:href="#arrowLeft" x="0" y="0" onmousedown="handlePan(-1,0)"/>
</g>
<svg viewBox="0 0 15 15" width="100%" height="30px" preserveAspectRatio="xMaxYMin meet">
 <g id="arrow_out" transform="scale(0.3 0.3)">
  <a xlink:href="class_main_window_ac161add09c4fa6346622c21de74a0769_icgraph_org.svg" target="_base">
   <rect id="button" ry="5" rx="5" y="6" x="6" height="38" width="38"
        fill="#f2f5e9" fill-opacity="0.5" stroke="#606060" stroke-width="1.0"/>
   <path id="arrow"
     d="M 11.500037,31.436501 C 11.940474,20.09759 22.043105,11.32322 32.158766,21.979434 L 37.068811,17.246167 C 37.068811,17.246167 37.088388,32 37.088388,32 L 22.160133,31.978069 C 22.160133,31.978069 26.997745,27.140456 26.997745,27.140456 C 18.528582,18.264221 13.291696,25.230495 11.500037,31.436501 z"
     style="fill:#404040;"/>
  </a>
 </g>
</svg>

<style type='text/css'>
<![CDATA[
[data-mouse-over-selected='false'] { opacity: 0.7; }
[data-mouse-over-selected='true']  { opacity: 1.0; }
]]>
</style>
<script type="application/ecmascript"><![CDATA[
document.addEventListener('DOMContentLoaded', (event) => {
  highlightEdges();
  highlightAdjacentNodes();
});
]]></script>
</svg>
