<?xml version="1.0" encoding="UTF-8" standalone="no"?>
<!DOCTYPE svg PUBLIC "-//W3C//DTD SVG 1.1//EN"
 "http://www.w3.org/Graphics/SVG/1.1/DTD/svg11.dtd">
<!-- Generated by graphviz version 14.1.1 (20251213.1925)
 -->
<!-- Title: Relationship::Relationship Pages: 1 -->
<!--zoomable 305 -->

<svg id="main" version="1.1" xmlns="http://www.w3.org/2000/svg" xmlns:xlink="http://www.w3.org/1999/xlink" xml:space="preserve" onload="init(evt)">

<style type="text/css"><![CDATA[
.node, .edge {opacity: 0.7;}
.node.selected, .edge.selected {opacity: 1;}
.edge:hover path { stroke: red; }
.edge:hover polygon { stroke: red; fill: red; }
]]></style>

<defs>
  <circle id="rim" cx="0" cy="0" r="7"/>
  <circle id="rim2" cx="0" cy="0" r="3.5"/>
  <g id="zoomPlus">
    <use xlink:href="#rim" fill="#404040"><set attributeName="fill" to="#808080" begin="zoomplus.mouseover" end="zoomplus.mouseout"/></use>
    <path d="M-4,0h8M0,-4v8" fill="none" stroke="white" stroke-width="1.5" pointer-events="none"/>
  </g>
  <g id="zoomMin">
    <use xlink:href="#rim" fill="#404040"><set attributeName="fill" to="#808080" begin="zoomminus.mouseover" end="zoomminus.mouseout"/></use>
    <path d="M-4,0h8" fill="none" stroke="white" stroke-width="1.5" pointer-events="none"/>
  </g>
  <g id="arrowUp" transform="translate(30 24)">
    <use xlink:href="#rim"/>
    <path pointer-events="none" fill="none" stroke="white" stroke-width="1.5" d="M0,-3.0v7 M-2.5,-0.5L0,-3.0L2.5,-0.5"/>
  </g>
  <g id="arrowRight" transform="rotate(90) translate(36 -43)">
    <use xlink:href="#rim"/>
    <path pointer-events="none" fill="none" stroke="white" stroke-width="1.5" d="M0,-3.0v7 M-2.5,-0.5L0,-3.0L2.5,-0.5"/>
  </g>
  <g id="arrowDown" transform="rotate(180) translate(-30 -48)">
    <use xlink:href="#rim"/>
    <path pointer-events="none" fill="none" stroke="white" stroke-width="1.5" d="M0,-3.0v7 M-2.5,-0.5L0,-3.0L2.5,-0.5"/>
  </g>
  <g id="arrowLeft" transform="rotate(270) translate(-36 17)">
    <use xlink:href="#rim"/>
    <path pointer-events="none" fill="none" stroke="white" stroke-width="1.5" d="M0,-3.0v7 M-2.5,-0.5L0,-3.0L2.5,-0.5"/>
  </g>
  <g id="resetDef">
    <use xlink:href="#rim2" fill="#404040"><set attributeName="fill" to="#808080" begin="reset.mouseover" end="reset.mouseout"/></use>
  </g>
</defs>
<script type="application/ecmascript">
var viewWidth = 1234;
var viewHeight = 305;
var sectionId = 'dynsection-5';
</script>
<script type="application/ecmascript" xlink:href="svg.min.js"/>
<svg id="graph" class="graph">
<g id="viewport">
<title>Relationship::Relationship</title>
<!-- Node1 -->
<g id="Node000001" class="node">
<title>Node1</title>
<g id="a_Node000001"><a xlink:title=" ">
<polygon fill="#999999" stroke="#666666" points="130,-188 0,-188 0,-168 130,-168 130,-188"/>
<text xml:space="preserve" text-anchor="middle" x="65" y="-174.5" font-family="Helvetica,sans-Serif" font-size="10.00">Relationship::Relationship</text>
</a>
</g>
</g>
<!-- Node2 -->
<g id="Node000002" class="node">
<title>Node2</title>
<g id="a_Node000002"><a xlink:href="class_basic_element.html#a85cccd7db0e46e4e2b646365cd6c66a9" target="_top" xlink:title=" ">
<polygon fill="white" stroke="#666666" points="475.5,-216 332,-216 332,-196 475.5,-196 475.5,-216"/>
<text xml:space="preserve" text-anchor="middle" x="403.75" y="-202.5" font-family="Helvetica,sans-Serif" font-size="10.00">BasicElement::BasicElement</text>
</a>
</g>
</g>
<!-- Node1&#45;&gt;Node2 -->
<g id="edge1_Node000001_Node000002" class="edge">
<title>Node1&#45;&gt;Node2</title>
<g id="a_edge1_Node000001_Node000002"><a xlink:title=" ">
<path fill="none" stroke="#63b8ff" d="M130.28,-183.88C142.15,-184.94 154.45,-186.02 166,-187 217.23,-191.36 274.71,-195.98 320.21,-199.57"/>
<polygon fill="#63b8ff" stroke="#63b8ff" points="319.76,-203.05 330,-200.34 320.31,-196.07 319.76,-203.05"/>
</a>
</g>
</g>
<!-- Node9 -->
<g id="Node000009" class="node">
<title>Node9</title>
<g id="a_Node000009"><a xlink:href="class_relationship.html#a7029bae7f63e705126cf2776602e0b52" target="_top" xlink:title=" ">
<polygon fill="white" stroke="#666666" points="296,-160 166,-160 166,-140 296,-140 296,-160"/>
<text xml:space="preserve" text-anchor="middle" x="231" y="-146.5" font-family="Helvetica,sans-Serif" font-size="10.00">Relationship::Relationship</text>
</a>
</g>
</g>
<!-- Node1&#45;&gt;Node9 -->
<g id="edge8_Node000001_Node000009" class="edge">
<title>Node1&#45;&gt;Node9</title>
<g id="a_edge8_Node000001_Node000009"><a xlink:title=" ">
<path fill="none" stroke="#63b8ff" d="M127.07,-167.57C136.93,-165.89 147.22,-164.13 157.32,-162.41"/>
<polygon fill="#63b8ff" stroke="#63b8ff" points="157.85,-165.87 167.12,-160.74 156.67,-158.97 157.85,-165.87"/>
</a>
</g>
</g>
<!-- Node3 -->
<g id="Node000003" class="node">
<title>Node3</title>
<g id="a_Node000003"><a xlink:href="class_basic_element.html#a028ebc6c9de8f0b90af0e7daef9549f8" target="_top" xlink:title=" ">
<polygon fill="white" stroke="#666666" points="660.25,-272 519,-272 519,-240 660.25,-240 660.25,-272"/>
<text xml:space="preserve" text-anchor="start" x="527" y="-258.5" font-family="Helvetica,sans-Serif" font-size="10.00">BasicElement::createDefault</text>
<text xml:space="preserve" text-anchor="middle" x="589.62" y="-246.5" font-family="Helvetica,sans-Serif" font-size="10.00">ConnectionPoints</text>
</a>
</g>
</g>
<!-- Node2&#45;&gt;Node3 -->
<g id="edge2_Node000002_Node000003" class="edge">
<title>Node2&#45;&gt;Node3</title>
<g id="a_edge2_Node000002_Node000003"><a xlink:title=" ">
<path fill="none" stroke="#63b8ff" d="M443.3,-216.48C464.67,-222.29 491.94,-229.71 517.06,-236.54"/>
<polygon fill="#63b8ff" stroke="#63b8ff" points="516.02,-239.89 526.59,-239.13 517.86,-233.13 516.02,-239.89"/>
</a>
</g>
</g>
<!-- Node8 -->
<g id="Node000008" class="node">
<title>Node8</title>
<g id="a_Node000008"><a xlink:href="class_basic_element.html#a01a6511d922708fe0042474740109152" target="_top" xlink:title=" ">
<polygon fill="white" stroke="#666666" points="658.75,-222 520.5,-222 520.5,-190 658.75,-190 658.75,-222"/>
<text xml:space="preserve" text-anchor="start" x="528.5" y="-208.5" font-family="Helvetica,sans-Serif" font-size="10.00">BasicElement::elementType</text>
<text xml:space="preserve" text-anchor="middle" x="589.62" y="-196.5" font-family="Helvetica,sans-Serif" font-size="10.00">ToString</text>
</a>
</g>
</g>
<!-- Node2&#45;&gt;Node8 -->
<g id="edge7_Node000002_Node000008" class="edge">
<title>Node2&#45;&gt;Node8</title>
<g id="a_edge7_Node000002_Node000008"><a xlink:title=" ">
<path fill="none" stroke="#63b8ff" d="M475.84,-206C486.64,-206 497.85,-206 508.82,-206"/>
<polygon fill="#63b8ff" stroke="#63b8ff" points="508.63,-209.5 518.63,-206 508.63,-202.5 508.63,-209.5"/>
</a>
</g>
</g>
<!-- Node4 -->
<g id="Node000004" class="node">
<title>Node4</title>
<g id="a_Node000004"><a xlink:href="class_basic_element.html#a0357bfa9b1ef06dd1c9d64bcb00813f4" target="_top" xlink:title=" ">
<polygon fill="white" stroke="#666666" points="854,-297 706,-297 706,-265 854,-265 854,-297"/>
<text xml:space="preserve" text-anchor="start" x="714" y="-283.5" font-family="Helvetica,sans-Serif" font-size="10.00">BasicElement::addConnection</text>
<text xml:space="preserve" text-anchor="middle" x="780" y="-271.5" font-family="Helvetica,sans-Serif" font-size="10.00">Point</text>
</a>
</g>
</g>
<!-- Node3&#45;&gt;Node4 -->
<g id="edge3_Node000003_Node000004" class="edge">
<title>Node3&#45;&gt;Node4</title>
<g id="a_edge3_Node000003_Node000004"><a xlink:title=" ">
<path fill="none" stroke="#63b8ff" d="M660.5,-265.27C671.57,-266.74 683.13,-268.28 694.49,-269.78"/>
<polygon fill="#63b8ff" stroke="#63b8ff" points="693.89,-273.24 704.27,-271.08 694.81,-266.3 693.89,-273.24"/>
</a>
</g>
</g>
<!-- Node5 -->
<g id="Node000005" class="node">
<title>Node5</title>
<g id="a_Node000005"><a xlink:href="class_connection_point.html#a9de406389d93810151498693037eeb95" target="_top" xlink:title=" ">
<polygon fill="white" stroke="#666666" points="856.25,-247 703.75,-247 703.75,-215 856.25,-215 856.25,-247"/>
<text xml:space="preserve" text-anchor="start" x="711.75" y="-233.5" font-family="Helvetica,sans-Serif" font-size="10.00">ConnectionPoint::createDefault</text>
<text xml:space="preserve" text-anchor="middle" x="780" y="-221.5" font-family="Helvetica,sans-Serif" font-size="10.00">ConnectionPoints</text>
</a>
</g>
</g>
<!-- Node3&#45;&gt;Node5 -->
<g id="edge4_Node000003_Node000005" class="edge">
<title>Node3&#45;&gt;Node5</title>
<g id="a_edge4_Node000003_Node000005"><a xlink:title=" ">
<path fill="none" stroke="#63b8ff" d="M660.5,-246.73C670.91,-245.34 681.75,-243.91 692.46,-242.49"/>
<polygon fill="#63b8ff" stroke="#63b8ff" points="692.59,-246 702.05,-241.21 691.67,-239.06 692.59,-246"/>
</a>
</g>
</g>
<!-- Node6 -->
<g id="Node000006" class="node">
<title>Node6</title>
<g id="a_Node000006"><a xlink:href="class_connection_point.html#a8977265b0868dad361fcbeec5a89bdeb" target="_top" xlink:title=" ">
<polygon fill="white" stroke="#666666" points="1046.25,-247 892.25,-247 892.25,-215 1046.25,-215 1046.25,-247"/>
<text xml:space="preserve" text-anchor="start" x="900.25" y="-233.5" font-family="Helvetica,sans-Serif" font-size="10.00">ConnectionPoint::addConection</text>
<text xml:space="preserve" text-anchor="middle" x="969.25" y="-221.5" font-family="Helvetica,sans-Serif" font-size="10.00">Point</text>
</a>
</g>
</g>
<!-- Node5&#45;&gt;Node6 -->
<g id="edge5_Node000005_Node000006" class="edge">
<title>Node5&#45;&gt;Node6</title>
<g id="a_edge5_Node000005_Node000006"><a xlink:title=" ">
<path fill="none" stroke="#63b8ff" d="M856.62,-231C864.56,-231 872.67,-231 880.72,-231"/>
<polygon fill="#63b8ff" stroke="#63b8ff" points="880.53,-234.5 890.53,-231 880.53,-227.5 880.53,-234.5"/>
</a>
</g>
</g>
<!-- Node7 -->
<g id="Node000007" class="node">
<title>Node7</title>
<g id="a_Node000007"><a xlink:href="class_connection_point.html#ac498b99d7f91805fea3eab19f2e8b260" target="_top" xlink:title=" ">
<polygon fill="white" stroke="#666666" points="1225.75,-247 1082.25,-247 1082.25,-215 1225.75,-215 1225.75,-247"/>
<text xml:space="preserve" text-anchor="start" x="1090.25" y="-233.5" font-family="Helvetica,sans-Serif" font-size="10.00">ConnectionPoint::Connection</text>
<text xml:space="preserve" text-anchor="middle" x="1154" y="-221.5" font-family="Helvetica,sans-Serif" font-size="10.00">Point</text>
</a>
</g>
</g>
<!-- Node6&#45;&gt;Node7 -->
<g id="edge6_Node000006_Node000007" class="edge">
<title>Node6&#45;&gt;Node7</title>
<g id="a_edge6_Node000006_Node000007"><a xlink:title=" ">
<path fill="none" stroke="#63b8ff" d="M1046.69,-231C1054.51,-231 1062.48,-231 1070.37,-231"/>
<polygon fill="#63b8ff" stroke="#63b8ff" points="1070.31,-234.5 1080.31,-231 1070.31,-227.5 1070.31,-234.5"/>
</a>
</g>
</g>
<!-- Node9&#45;&gt;Node2 -->
<g id="edge9_Node000009_Node000002" class="edge">
<title>Node9&#45;&gt;Node2</title>
<g id="a_edge9_Node000009_Node000002"><a xlink:title=" ">
<path fill="none" stroke="#63b8ff" d="M263.72,-160.4C290.95,-169.33 330.42,-182.28 360.36,-192.1"/>
<polygon fill="#63b8ff" stroke="#63b8ff" points="358.88,-195.3 369.48,-195.09 361.06,-188.65 358.88,-195.3"/>
</a>
</g>
</g>
<!-- Node9&#45;&gt;Node9 -->
<g id="edge11_Node000009_Node000009" class="edge">
<title>Node9&#45;&gt;Node9</title>
<g id="a_edge11_Node000009_Node000009"><a xlink:title=" ">
<path fill="none" stroke="#63b8ff" d="M204.62,-160.34C193.35,-168.98 202.14,-178 231,-178 246.78,-178 256.56,-175.3 260.34,-171.44"/>
<polygon fill="#63b8ff" stroke="#63b8ff" points="263.73,-170.56 257.77,-161.8 256.96,-172.37 263.73,-170.56"/>
</a>
</g>
</g>
<!-- Node10 -->
<g id="Node000010" class="node">
<title>Node10</title>
<g id="a_Node000010"><a xlink:href="class_relationship.html#afdc74fcf0c54abc297ee3c6239d9a867" target="_top" xlink:title=" ">
<polygon fill="white" stroke="#666666" points="470.62,-160 336.88,-160 336.88,-140 470.62,-140 470.62,-160"/>
<text xml:space="preserve" text-anchor="middle" x="403.75" y="-146.5" font-family="Helvetica,sans-Serif" font-size="10.00">Relationship::preferredSize</text>
</a>
</g>
</g>
<!-- Node9&#45;&gt;Node10 -->
<g id="edge10_Node000009_Node000010" class="edge">
<title>Node9&#45;&gt;Node10</title>
<g id="a_edge10_Node000009_Node000010"><a xlink:title=" ">
<path fill="none" stroke="#63b8ff" d="M296.07,-150C305.59,-150 315.49,-150 325.25,-150"/>
<polygon fill="#63b8ff" stroke="#63b8ff" points="325.1,-153.5 335.1,-150 325.1,-146.5 325.1,-153.5"/>
</a>
</g>
</g>
<!-- Node11 -->
<g id="Node000011" class="node">
<title>Node11</title>
<g id="a_Node000011"><a xlink:href="class_basic_element.html#ab86c964c6ef9e8d7299efc263a0837e7" target="_top" xlink:title=" ">
<polygon fill="white" stroke="#666666" points="461.62,-109 345.88,-109 345.88,-89 461.62,-89 461.62,-109"/>
<text xml:space="preserve" text-anchor="middle" x="403.75" y="-95.5" font-family="Helvetica,sans-Serif" font-size="10.00">BasicElement::setSize</text>
</a>
</g>
</g>
<!-- Node9&#45;&gt;Node11 -->
<g id="edge12_Node000009_Node000011" class="edge">
<title>Node9&#45;&gt;Node11</title>
<g id="a_edge12_Node000009_Node000011"><a xlink:title=" ">
<path fill="none" stroke="#63b8ff" d="M266.97,-139.56C292.98,-131.79 328.72,-121.11 357,-112.66"/>
<polygon fill="#63b8ff" stroke="#63b8ff" points="357.8,-116.08 366.38,-109.86 355.8,-109.37 357.8,-116.08"/>
</a>
</g>
</g>
<!-- Node12 -->
<g id="Node000012" class="node">
<title>Node12</title>
<g id="a_Node000012"><a xlink:href="class_basic_element.html#ad1b7a593fb82e872041b342abd157088" target="_top" xlink:title=" ">
<polygon fill="white" stroke="#666666" points="667.75,-172 511.5,-172 511.5,-152 667.75,-152 667.75,-172"/>
<text xml:space="preserve" text-anchor="middle" x="589.62" y="-158.5" font-family="Helvetica,sans-Serif" font-size="10.00">BasicElement::elementChanged</text>
</a>
</g>
</g>
<!-- Node11&#45;&gt;Node12 -->
<g id="edge13_Node000011_Node000012" class="edge">
<title>Node11&#45;&gt;Node12</title>
<g id="a_edge13_Node000011_Node000012"><a xlink:title=" ">
<path fill="none" stroke="#63b8ff" d="M427.29,-109.44C448.64,-119.06 481.78,-133.27 511.5,-143 517.63,-145.01 524.09,-146.91 530.56,-148.69"/>
<polygon fill="#63b8ff" stroke="#63b8ff" points="529.38,-152 539.94,-151.17 531.17,-145.23 529.38,-152"/>
</a>
</g>
</g>
<!-- Node13 -->
<g id="Node000013" class="node">
<title>Node13</title>
<g id="a_Node000013"><a xlink:href="class_basic_element.html#a2cb2eb803daa35380908948215f8d468" target="_top" xlink:title=" ">
<polygon fill="white" stroke="#666666" points="660.62,-134 518.62,-134 518.62,-114 660.62,-114 660.62,-134"/>
<text xml:space="preserve" text-anchor="middle" x="589.62" y="-120.5" font-family="Helvetica,sans-Serif" font-size="10.00">BasicElement::minimumSize</text>
</a>
</g>
</g>
<!-- Node11&#45;&gt;Node13 -->
<g id="edge14_Node000011_Node000013" class="edge">
<title>Node11&#45;&gt;Node13</title>
<g id="a_edge14_Node000011_Node000013"><a xlink:title=" ">
<path fill="none" stroke="#63b8ff" d="M461.92,-106.77C476.26,-108.72 491.92,-110.85 507.19,-112.93"/>
<polygon fill="#63b8ff" stroke="#63b8ff" points="506.33,-116.34 516.71,-114.22 507.27,-109.41 506.33,-116.34"/>
</a>
</g>
</g>
<!-- Node14 -->
<g id="Node000014" class="node">
<title>Node14</title>
<g id="a_Node000014"><a xlink:href="class_basic_element.html#a596caee40cdd00a0aacce49689b63f92" target="_top" xlink:title=" ">
<polygon fill="white" stroke="#666666" points="665.5,-96 513.75,-96 513.75,-76 665.5,-76 665.5,-96"/>
<text xml:space="preserve" text-anchor="middle" x="589.62" y="-82.5" font-family="Helvetica,sans-Serif" font-size="10.00">BasicElement::notifyObservers</text>
</a>
</g>
</g>
<!-- Node11&#45;&gt;Node14 -->
<g id="edge15_Node000011_Node000014" class="edge">
<title>Node11&#45;&gt;Node14</title>
<g id="a_edge15_Node000011_Node000014"><a xlink:title=" ">
<path fill="none" stroke="#63b8ff" d="M461.92,-94.96C474.69,-94.06 488.5,-93.08 502.16,-92.11"/>
<polygon fill="#63b8ff" stroke="#63b8ff" points="502.32,-95.61 512.05,-91.41 501.83,-88.63 502.32,-95.61"/>
</a>
</g>
</g>
<!-- Node15 -->
<g id="Node000015" class="node">
<title>Node15</title>
<g id="a_Node000015"><a xlink:href="class_basic_element.html#aafd52d1fae2f0b7666ae15bcbb3782c2" target="_top" xlink:title=" ">
<polygon fill="white" stroke="#666666" points="665.5,-58 513.75,-58 513.75,-38 665.5,-38 665.5,-58"/>
<text xml:space="preserve" text-anchor="middle" x="589.62" y="-44.5" font-family="Helvetica,sans-Serif" font-size="10.00">BasicElement::onSizeChanged</text>
</a>
</g>
</g>
<!-- Node11&#45;&gt;Node15 -->
<g id="edge16_Node000011_Node000015" class="edge">
<title>Node11&#45;&gt;Node15</title>
<g id="a_edge16_Node000011_Node000015"><a xlink:title=" ">
<path fill="none" stroke="#63b8ff" d="M437.81,-88.63C458.83,-82.15 486.68,-73.77 511.5,-67 518.57,-65.07 526.02,-63.13 533.4,-61.25"/>
<polygon fill="#63b8ff" stroke="#63b8ff" points="534.16,-64.67 543.01,-58.84 532.46,-57.88 534.16,-64.67"/>
</a>
</g>
</g>
<!-- Node16 -->
<g id="Node000016" class="node">
<title>Node16</title>
<g id="a_Node000016"><a xlink:href="class_basic_element.html#a5af654d8bb5e16b44121f69c832037b8" target="_top" xlink:title=" ">
<polygon fill="white" stroke="#666666" points="659.5,-20 519.75,-20 519.75,0 659.5,0 659.5,-20"/>
<text xml:space="preserve" text-anchor="middle" x="589.62" y="-6.5" font-family="Helvetica,sans-Serif" font-size="10.00">BasicElement::sizeChanged</text>
</a>
</g>
</g>
<!-- Node11&#45;&gt;Node16 -->
<g id="edge17_Node000011_Node000016" class="edge">
<title>Node11&#45;&gt;Node16</title>
<g id="a_edge17_Node000011_Node000016"><a xlink:title=" ">
<path fill="none" stroke="#63b8ff" d="M417.4,-88.62C436.59,-73.38 474.73,-45.03 511.5,-29 515.84,-27.11 520.4,-25.38 525.04,-23.81"/>
<polygon fill="#63b8ff" stroke="#63b8ff" points="526.01,-27.18 534.53,-20.88 523.94,-20.49 526.01,-27.18"/>
</a>
</g>
</g>
</g>
</svg>

<g id="navigator" transform="translate(0 0)" fill="#404254">
  <rect fill="#f2f5e9" fill-opacity="0.5" stroke="#606060" stroke-width=".5" x="0" y="0" width="60" height="60"/>
  <use id="zoomplus" xlink:href="#zoomPlus" x="17" y="9" onmousedown="handleZoom(evt,'in')"/>
  <use id="zoomminus" xlink:href="#zoomMin" x="42" y="9" onmousedown="handleZoom(evt,'out')"/>
  <use id="reset" xlink:href="#resetDef" x="30" y="36" onmousedown="handleReset()"/>
   <use id="arrowup" xlink:href="#arrowUp" x="0" y="0" onmousedown="handlePan(0,-1)"/>
  <use id="arrowright" xlink:href="#arrowRight" x="0" y="0" onmousedown="handlePan(1,0)"/>
  <use id="arrowdown" xlink:href="#arrowDown" x="0" y="0" onmousedown="handlePan(0,1)"/>
  <use id="arrowleft" xlink:href="#arrowLeft" x="0" y="0" onmousedown="handlePan(-1,0)"/>
</g>
<svg viewBox="0 0 15 15" width="100%" height="30px" preserveAspectRatio="xMaxYMin meet">
 <g id="arrow_out" transform="scale(0.3 0.3)">
  <a xlink:href="class_relationship_ae16e241e774fd09db9bf40992c97b8b8_cgraph_org.svg" target="_base">
   <rect id="button" ry="5" rx="5" y="6" x="6" height="38" width="38"
        fill="#f2f5e9" fill-opacity="0.5" stroke="#606060" stroke-width="1.0"/>
   <path id="arrow"
     d="M 11.500037,31.436501 C 11.940474,20.09759 22.043105,11.32322 32.158766,21.979434 L 37.068811,17.246167 C 37.068811,17.246167 37.088388,32 37.088388,32 L 22.160133,31.978069 C 22.160133,31.978069 26.997745,27.140456 26.997745,27.140456 C 18.528582,18.264221 13.291696,25.230495 11.500037,31.436501 z"
     style="fill:#404040;"/>
  </a>
 </g>
</svg>

<style type='text/css'>
<![CDATA[
[data-mouse-over-selected='false'] { opacity: 0.7; }
[data-mouse-over-selected='true']  { opacity: 1.0; }
]]>
</style>
<script type="application/ecmascript"><![CDATA[
document.addEventListener('DOMContentLoaded', (event) => {
  highlightEdges();
  highlightAdjacentNodes();
});
]]></script>
</svg>
