<?xml version="1.0" encoding="UTF-8" standalone="no"?>
<!DOCTYPE svg PUBLIC "-//W3C//DTD SVG 1.1//EN"
 "http://www.w3.org/Graphics/SVG/1.1/DTD/svg11.dtd">
<!-- Generated by graphviz version 14.1.1 (20251213.1925)
 -->
<!-- Title: ConnectionLine::onConnectionPointChanged Pages: 1 -->
<svg width="885pt" height="128pt"
 viewBox="0.00 0.00 885.00 128.00" xmlns="http://www.w3.org/2000/svg" xmlns:xlink="http://www.w3.org/1999/xlink">
<g id="graph0" class="graph" transform="scale(1 1) rotate(0) translate(4 124)">
<title>ConnectionLine::onConnectionPointChanged</title>
<!-- Node1 -->
<g id="Node000001" class="node">
<title>Node1</title>
<g id="a_Node000001"><a xlink:title=" ">
<polygon fill="#999999" stroke="#666666" points="149.5,-66 0,-66 0,-34 149.5,-34 149.5,-66"/>
<text xml:space="preserve" text-anchor="start" x="8" y="-52.5" font-family="Helvetica,sans-Serif" font-size="10.00">ConnectionLine::onConnection</text>
<text xml:space="preserve" text-anchor="middle" x="74.75" y="-40.5" font-family="Helvetica,sans-Serif" font-size="10.00">PointChanged</text>
</a>
</g>
</g>
<!-- Node2 -->
<g id="Node000002" class="node">
<title>Node2</title>
<g id="a_Node000002"><a xlink:href="class_connection_line.html#a9de44ae385d7941f3aa79da06e97d510" target="_top" xlink:title=" ">
<polygon fill="white" stroke="#666666" points="322.25,-88 185.5,-88 185.5,-56 322.25,-56 322.25,-88"/>
<text xml:space="preserve" text-anchor="start" x="193.5" y="-74.5" font-family="Helvetica,sans-Serif" font-size="10.00">ConnectionLine::connection</text>
<text xml:space="preserve" text-anchor="middle" x="253.88" y="-62.5" font-family="Helvetica,sans-Serif" font-size="10.00">Changed</text>
</a>
</g>
</g>
<!-- Node1&#45;&gt;Node2 -->
<g id="edge1_Node000001_Node000002" class="edge">
<title>Node1&#45;&gt;Node2</title>
<g id="a_edge1_Node000001_Node000002"><a xlink:title=" ">
<path fill="none" stroke="#63b8ff" d="M149.84,-59.2C157.77,-60.19 165.85,-61.19 173.83,-62.18"/>
<polygon fill="#63b8ff" stroke="#63b8ff" points="173.16,-65.63 183.51,-63.38 174.02,-58.68 173.16,-65.63"/>
</a>
</g>
</g>
<!-- Node3 -->
<g id="Node000003" class="node">
<title>Node3</title>
<g id="a_Node000003"><a xlink:href="class_connection_line.html#a657559dca679d5fd04ae565b442b6a8b" target="_top" xlink:title=" ">
<polygon fill="white" stroke="#666666" points="515.25,-76 358.25,-76 358.25,-56 515.25,-56 515.25,-76"/>
<text xml:space="preserve" text-anchor="middle" x="436.75" y="-62.5" font-family="Helvetica,sans-Serif" font-size="10.00">ConnectionLine::ConnectionLine</text>
</a>
</g>
</g>
<!-- Node2&#45;&gt;Node3 -->
<g id="edge2_Node000002_Node000003" class="edge">
<title>Node2&#45;&gt;Node3</title>
<g id="a_edge2_Node000002_Node000003"><a xlink:title=" ">
<path fill="none" stroke="#63b8ff" d="M322.74,-69.75C330.51,-69.49 338.51,-69.23 346.5,-68.96"/>
<polygon fill="#63b8ff" stroke="#63b8ff" points="346.38,-72.47 356.26,-68.64 346.15,-65.47 346.38,-72.47"/>
</a>
</g>
</g>
<!-- Node4 -->
<g id="Node000004" class="node">
<title>Node4</title>
<g id="a_Node000004"><a xlink:href="class_connection_line.html#a836aef7faf5a4fb8a5a10bfc71dbabe3" target="_top" xlink:title=" ">
<polygon fill="white" stroke="#666666" points="685.75,-76 551.25,-76 551.25,-44 685.75,-44 685.75,-76"/>
<text xml:space="preserve" text-anchor="start" x="559.25" y="-62.5" font-family="Helvetica,sans-Serif" font-size="10.00">ConnectionLine::connectTo</text>
<text xml:space="preserve" text-anchor="middle" x="618.5" y="-50.5" font-family="Helvetica,sans-Serif" font-size="10.00">Points</text>
</a>
</g>
</g>
<!-- Node3&#45;&gt;Node4 -->
<g id="edge3_Node000003_Node000004" class="edge">
<title>Node3&#45;&gt;Node4</title>
<g id="a_edge3_Node000003_Node000004"><a xlink:title=" ">
<path fill="none" stroke="#63b8ff" d="M515.55,-63.4C523.45,-63.14 531.48,-62.87 539.39,-62.61"/>
<polygon fill="#63b8ff" stroke="#63b8ff" points="539.47,-66.11 549.35,-62.27 539.24,-59.11 539.47,-66.11"/>
</a>
</g>
</g>
<!-- Node4&#45;&gt;Node1 -->
<g id="edge4_Node000004_Node000001" class="edge">
<title>Node4&#45;&gt;Node1</title>
<g id="a_edge4_Node000004_Node000001"><a xlink:title=" ">
<path fill="none" stroke="#63b8ff" d="M550.79,-50.28C538.97,-48.92 526.77,-47.73 515.25,-47 392.32,-39.22 249.67,-42.44 161.05,-45.89"/>
<polygon fill="#63b8ff" stroke="#63b8ff" points="161.08,-42.38 151.23,-46.28 161.36,-49.38 161.08,-42.38"/>
</a>
</g>
</g>
<!-- Node5 -->
<g id="Node000005" class="node">
<title>Node5</title>
<g id="a_Node000005"><a xlink:href="class_connection_line.html#a4bce34a3f2fb1fd7145de2d9100c9173" target="_top" xlink:title=" ">
<polygon fill="white" stroke="#666666" points="867.5,-120 731.5,-120 731.5,-88 867.5,-88 867.5,-120"/>
<text xml:space="preserve" text-anchor="start" x="739.5" y="-106.5" font-family="Helvetica,sans-Serif" font-size="10.00">ConnectionLine::onElement</text>
<text xml:space="preserve" text-anchor="middle" x="799.5" y="-94.5" font-family="Helvetica,sans-Serif" font-size="10.00">PositionChanged</text>
</a>
</g>
</g>
<!-- Node4&#45;&gt;Node5 -->
<g id="edge5_Node000004_Node000005" class="edge">
<title>Node4&#45;&gt;Node5</title>
<g id="a_edge5_Node000004_Node000005"><a xlink:title=" ">
<path fill="none" stroke="#63b8ff" d="M686.15,-76.38C697.38,-79.14 709.11,-82.03 720.59,-84.85"/>
<polygon fill="#63b8ff" stroke="#63b8ff" points="719.48,-88.18 730.02,-87.17 721.15,-81.38 719.48,-88.18"/>
</a>
</g>
</g>
<!-- Node6 -->
<g id="Node000006" class="node">
<title>Node6</title>
<g id="a_Node000006"><a xlink:href="class_basic_element.html#a02183bafd7c80f9f1f99a9b9f1631524" target="_top" xlink:title=" ">
<polygon fill="white" stroke="#666666" points="877.25,-70 721.75,-70 721.75,-50 877.25,-50 877.25,-70"/>
<text xml:space="preserve" text-anchor="middle" x="799.5" y="-56.5" font-family="Helvetica,sans-Serif" font-size="10.00">BasicElement::positionChanged</text>
</a>
</g>
</g>
<!-- Node4&#45;&gt;Node6 -->
<g id="edge7_Node000004_Node000006" class="edge">
<title>Node4&#45;&gt;Node6</title>
<g id="a_edge7_Node000004_Node000006"><a xlink:title=" ">
<path fill="none" stroke="#63b8ff" d="M686.15,-60C693.99,-60 702.08,-60 710.15,-60"/>
<polygon fill="#63b8ff" stroke="#63b8ff" points="710.02,-63.5 720.02,-60 710.02,-56.5 710.02,-63.5"/>
</a>
</g>
</g>
<!-- Node7 -->
<g id="Node000007" class="node">
<title>Node7</title>
<g id="a_Node000007"><a xlink:href="class_connection_point.html#a851668ae19e97658f1818a40ea375f65" target="_top" xlink:title=" ">
<polygon fill="white" stroke="#666666" points="862.25,-32 736.75,-32 736.75,0 862.25,0 862.25,-32"/>
<text xml:space="preserve" text-anchor="start" x="744.75" y="-18.5" font-family="Helvetica,sans-Serif" font-size="10.00">ConnectionPoint::relative</text>
<text xml:space="preserve" text-anchor="middle" x="799.5" y="-6.5" font-family="Helvetica,sans-Serif" font-size="10.00">PositionChanged</text>
</a>
</g>
</g>
<!-- Node4&#45;&gt;Node7 -->
<g id="edge8_Node000004_Node000007" class="edge">
<title>Node4&#45;&gt;Node7</title>
<g id="a_edge8_Node000004_Node000007"><a xlink:title=" ">
<path fill="none" stroke="#63b8ff" d="M686.15,-43.62C699.04,-40.45 712.61,-37.11 725.69,-33.9"/>
<polygon fill="#63b8ff" stroke="#63b8ff" points="726.18,-37.38 735.06,-31.59 724.51,-30.58 726.18,-37.38"/>
</a>
</g>
</g>
<!-- Node5&#45;&gt;Node2 -->
<g id="edge6_Node000005_Node000002" class="edge">
<title>Node5&#45;&gt;Node2</title>
<g id="a_edge6_Node000005_Node000002"><a xlink:title=" ">
<path fill="none" stroke="#63b8ff" d="M731.26,-102.81C644.82,-100.89 490.13,-96.12 358.25,-85 350.32,-84.33 342.06,-83.51 333.82,-82.6"/>
<polygon fill="#63b8ff" stroke="#63b8ff" points="334.47,-79.16 324.14,-81.5 333.67,-86.11 334.47,-79.16"/>
</a>
</g>
</g>
</g>
</svg>
