<?xml version="1.0" encoding="UTF-8" standalone="no"?>
<!DOCTYPE svg PUBLIC "-//W3C//DTD SVG 1.1//EN"
 "http://www.w3.org/Graphics/SVG/1.1/DTD/svg11.dtd">
<!-- Generated by graphviz version 14.1.1 (20251213.1925)
 -->
<!-- Title: MainWindow::updateElementGraphicsItem Pages: 1 -->
<svg width="2493pt" height="653pt"
 viewBox="0.00 0.00 2493.00 653.00" xmlns="http://www.w3.org/2000/svg" xmlns:xlink="http://www.w3.org/1999/xlink">
<g id="graph0" class="graph" transform="scale(1 1) rotate(0) translate(4 649.23)">
<title>MainWindow::updateElementGraphicsItem</title>
<!-- Node1 -->
<g id="Node000001" class="node">
<title>Node1</title>
<g id="a_Node000001"><a xlink:title=" ">
<polygon fill="#999999" stroke="#666666" points="2485,-203.23 2341.5,-203.23 2341.5,-171.23 2485,-171.23 2485,-203.23"/>
<text xml:space="preserve" text-anchor="start" x="2349.5" y="-189.73" font-family="Helvetica,sans-Serif" font-size="10.00">MainWindow::updateElement</text>
<text xml:space="preserve" text-anchor="middle" x="2413.25" y="-177.73" font-family="Helvetica,sans-Serif" font-size="10.00">GraphicsItem</text>
</a>
</g>
</g>
<!-- Node2 -->
<g id="Node000002" class="node">
<title>Node2</title>
<g id="a_Node000002"><a xlink:href="class_main_window.html#af380eeda83d30cd1ecb1419cfd5161d7" target="_top" xlink:title=" ">
<polygon fill="white" stroke="#666666" points="2305.5,-203.23 2171.75,-203.23 2171.75,-171.23 2305.5,-171.23 2305.5,-203.23"/>
<text xml:space="preserve" text-anchor="start" x="2179.75" y="-189.73" font-family="Helvetica,sans-Serif" font-size="10.00">MainWindow::updatesAfter</text>
<text xml:space="preserve" text-anchor="middle" x="2238.62" y="-177.73" font-family="Helvetica,sans-Serif" font-size="10.00">ChangingProperty</text>
</a>
</g>
</g>
<!-- Node1&#45;&gt;Node2 -->
<g id="edge1_Node000001_Node000002" class="edge">
<title>Node1&#45;&gt;Node2</title>
<g id="a_edge1_Node000001_Node000002"><a xlink:title=" ">
<path fill="none" stroke="#63b8ff" d="M2329.8,-187.23C2321.8,-187.23 2313.77,-187.23 2305.96,-187.23"/>
<polygon fill="#63b8ff" stroke="#63b8ff" points="2329.53,-190.73 2339.53,-187.23 2329.53,-183.73 2329.53,-190.73"/>
</a>
</g>
</g>
<!-- Node3 -->
<g id="Node000003" class="node">
<title>Node3</title>
<g id="a_Node000003"><a xlink:href="class_main_window.html#a9ed390421f6755b891cfc651d173db7b" target="_top" xlink:title=" ">
<polygon fill="white" stroke="#666666" points="2127.12,-181.23 1983.62,-181.23 1983.62,-149.23 2127.12,-149.23 2127.12,-181.23"/>
<text xml:space="preserve" text-anchor="start" x="1991.62" y="-167.73" font-family="Helvetica,sans-Serif" font-size="10.00">MainWindow::handleAttribute</text>
<text xml:space="preserve" text-anchor="middle" x="2055.38" y="-155.73" font-family="Helvetica,sans-Serif" font-size="10.00">PropertyChange</text>
</a>
</g>
</g>
<!-- Node2&#45;&gt;Node3 -->
<g id="edge2_Node000002_Node000003" class="edge">
<title>Node2&#45;&gt;Node3</title>
<g id="a_edge2_Node000002_Node000003"><a xlink:title=" ">
<path fill="none" stroke="#63b8ff" d="M2160.24,-177.84C2149.41,-176.52 2138.31,-175.17 2127.59,-173.87"/>
<polygon fill="#63b8ff" stroke="#63b8ff" points="2159.57,-181.28 2169.92,-179.01 2160.41,-174.33 2159.57,-181.28"/>
</a>
</g>
</g>
<!-- Node4 -->
<g id="Node000004" class="node">
<title>Node4</title>
<g id="a_Node000004"><a xlink:href="class_main_window.html#a47fd0b86ddb5829e3b0cb15908671670" target="_top" xlink:title=" ">
<polygon fill="white" stroke="#666666" points="1939,-263.23 1765.5,-263.23 1765.5,-243.23 1939,-243.23 1939,-263.23"/>
<text xml:space="preserve" text-anchor="middle" x="1852.25" y="-249.73" font-family="Helvetica,sans-Serif" font-size="10.00">MainWindow::onCheckBoxChanged</text>
</a>
</g>
</g>
<!-- Node2&#45;&gt;Node4 -->
<g id="edge47_Node000002_Node000004" class="edge">
<title>Node2&#45;&gt;Node4</title>
<g id="a_edge47_Node000002_Node000004"><a xlink:title=" ">
<path fill="none" stroke="#63b8ff" d="M2218.56,-212.48C2200.15,-234.58 2170.07,-265.13 2135.75,-278.23 2047.66,-311.84 1933.28,-281.18 1881.24,-263.59"/>
<polygon fill="#63b8ff" stroke="#63b8ff" points="2221.21,-214.76 2224.76,-204.78 2215.76,-210.37 2221.21,-214.76"/>
</a>
</g>
</g>
<!-- Node14 -->
<g id="Node000014" class="node">
<title>Node14</title>
<g id="a_Node000014"><a xlink:href="class_main_window.html#ac1e0c79708cf9aa9b7ca1a87697e5b34" target="_top" xlink:title=" ">
<polygon fill="white" stroke="#666666" points="563.25,-87.23 386.75,-87.23 386.75,-67.23 563.25,-67.23 563.25,-87.23"/>
<text xml:space="preserve" text-anchor="middle" x="475" y="-73.73" font-family="Helvetica,sans-Serif" font-size="10.00">MainWindow::onComboBoxChanged</text>
</a>
</g>
</g>
<!-- Node2&#45;&gt;Node14 -->
<g id="edge48_Node000002_Node000014" class="edge">
<title>Node2&#45;&gt;Node14</title>
<g id="a_edge48_Node000002_Node000014"><a xlink:title=" ">
<path fill="none" stroke="#63b8ff" d="M2226.93,-160.26C2212,-126.48 2181.48,-69.69 2135.75,-42.23 2027.29,22.9 1979.77,-7.23 1853.25,-7.23 1853.25,-7.23 1853.25,-7.23 865.62,-7.23 732.64,-7.23 578.09,-47.22 510.55,-66.75"/>
<polygon fill="#63b8ff" stroke="#63b8ff" points="2223.67,-161.54 2230.81,-169.37 2230.12,-158.8 2223.67,-161.54"/>
</a>
</g>
</g>
<!-- Node18 -->
<g id="Node000018" class="node">
<title>Node18</title>
<g id="a_Node000018"><a xlink:href="class_main_window.html#a0e7ca45ac830893108871185dda813a4" target="_top" xlink:title=" ">
<polygon fill="white" stroke="#666666" points="556.5,-579.23 393.5,-579.23 393.5,-559.23 556.5,-559.23 556.5,-579.23"/>
<text xml:space="preserve" text-anchor="middle" x="475" y="-565.73" font-family="Helvetica,sans-Serif" font-size="10.00">MainWindow::onLineEditChanged</text>
</a>
</g>
</g>
<!-- Node2&#45;&gt;Node18 -->
<g id="edge49_Node000002_Node000018" class="edge">
<title>Node2&#45;&gt;Node18</title>
<g id="a_edge49_Node000002_Node000018"><a xlink:title=" ">
<path fill="none" stroke="#63b8ff" d="M2229.75,-214.33C2199.31,-312.7 2079.68,-645.23 1853.25,-645.23 1853.25,-645.23 1853.25,-645.23 1065.75,-645.23 863.15,-645.23 624.6,-600.57 524.27,-579.72"/>
<polygon fill="#63b8ff" stroke="#63b8ff" points="2233.03,-215.56 2232.58,-204.98 2226.33,-213.53 2233.03,-215.56"/>
</a>
</g>
</g>
<!-- Node20 -->
<g id="Node000020" class="node">
<title>Node20</title>
<g id="a_Node000020"><a xlink:href="class_main_window.html#a1043995538765eae993ae75217c482e7" target="_top" xlink:title=" ">
<polygon fill="white" stroke="#666666" points="549.75,-137.23 400.25,-137.23 400.25,-105.23 549.75,-105.23 549.75,-137.23"/>
<text xml:space="preserve" text-anchor="start" x="408.25" y="-123.73" font-family="Helvetica,sans-Serif" font-size="10.00">MainWindow::onPropertyValue</text>
<text xml:space="preserve" text-anchor="middle" x="475" y="-111.73" font-family="Helvetica,sans-Serif" font-size="10.00">Changed</text>
</a>
</g>
</g>
<!-- Node2&#45;&gt;Node20 -->
<g id="edge50_Node000002_Node000020" class="edge">
<title>Node2&#45;&gt;Node20</title>
<g id="a_edge50_Node000002_Node000020"><a xlink:title=" ">
<path fill="none" stroke="#63b8ff" d="M2197.67,-165.7C2179.28,-156.6 2156.88,-146.65 2135.75,-140.23 2014.11,-103.25 1980.39,-95.23 1853.25,-95.23 1853.25,-95.23 1853.25,-95.23 1270,-95.23 1005.02,-95.23 690.56,-109.87 550.14,-117.18"/>
<polygon fill="#63b8ff" stroke="#63b8ff" points="2195.87,-168.71 2206.37,-170.1 2199.03,-162.46 2195.87,-168.71"/>
</a>
</g>
</g>
<!-- Node25 -->
<g id="Node000025" class="node">
<title>Node25</title>
<g id="a_Node000025"><a xlink:href="class_main_window.html#aa69c4b7c558b2fb3922adf75af48330a" target="_top" xlink:title=" ">
<polygon fill="white" stroke="#666666" points="1932.62,-67.23 1771.88,-67.23 1771.88,-35.23 1932.62,-35.23 1932.62,-67.23"/>
<text xml:space="preserve" text-anchor="start" x="1779.88" y="-53.73" font-family="Helvetica,sans-Serif" font-size="10.00">MainWindow::handleRelationship</text>
<text xml:space="preserve" text-anchor="middle" x="1852.25" y="-41.73" font-family="Helvetica,sans-Serif" font-size="10.00">EndCardinalityChange</text>
</a>
</g>
</g>
<!-- Node2&#45;&gt;Node25 -->
<g id="edge43_Node000002_Node000025" class="edge">
<title>Node2&#45;&gt;Node25</title>
<g id="a_edge43_Node000002_Node000025"><a xlink:title=" ">
<path fill="none" stroke="#63b8ff" d="M2221.09,-161.59C2203.31,-136.42 2172.58,-99.27 2135.75,-81.23 2072.52,-50.26 1991.97,-44.5 1933.07,-45.46"/>
<polygon fill="#63b8ff" stroke="#63b8ff" points="2218.07,-163.38 2226.61,-169.65 2223.85,-159.42 2218.07,-163.38"/>
</a>
</g>
</g>
<!-- Node26 -->
<g id="Node000026" class="node">
<title>Node26</title>
<g id="a_Node000026"><a xlink:href="class_main_window.html#a96d575a529f7c24b1b5094b4b1e42742" target="_top" xlink:title=" ">
<polygon fill="white" stroke="#666666" points="2135.75,-269.23 1975,-269.23 1975,-237.23 2135.75,-237.23 2135.75,-269.23"/>
<text xml:space="preserve" text-anchor="start" x="1983" y="-255.73" font-family="Helvetica,sans-Serif" font-size="10.00">MainWindow::handleRelationship</text>
<text xml:space="preserve" text-anchor="middle" x="2055.38" y="-243.73" font-family="Helvetica,sans-Serif" font-size="10.00">EndParticipationChange</text>
</a>
</g>
</g>
<!-- Node2&#45;&gt;Node26 -->
<g id="edge45_Node000002_Node000026" class="edge">
<title>Node2&#45;&gt;Node26</title>
<g id="a_edge45_Node000002_Node000026"><a xlink:title=" ">
<path fill="none" stroke="#63b8ff" d="M2181.61,-207.63C2155.83,-217.01 2125.65,-228 2101.38,-236.84"/>
<polygon fill="#63b8ff" stroke="#63b8ff" points="2182.73,-210.94 2190.93,-204.23 2180.34,-204.36 2182.73,-210.94"/>
</a>
</g>
</g>
<!-- Node3&#45;&gt;Node4 -->
<g id="edge3_Node000003_Node000004" class="edge">
<title>Node3&#45;&gt;Node4</title>
<g id="a_edge3_Node000003_Node000004"><a xlink:title=" ">
<path fill="none" stroke="#63b8ff" d="M2006.51,-186.17C1965.76,-204 1908.93,-228.87 1877.17,-242.76"/>
<polygon fill="#63b8ff" stroke="#63b8ff" points="2007.87,-189.4 2015.63,-182.18 2005.07,-182.98 2007.87,-189.4"/>
</a>
</g>
</g>
<!-- Node3&#45;&gt;Node14 -->
<g id="edge41_Node000003_Node000014" class="edge">
<title>Node3&#45;&gt;Node14</title>
<g id="a_edge41_Node000003_Node000014"><a xlink:title=" ">
<path fill="none" stroke="#63b8ff" d="M1972.39,-154.8C1891.76,-145.47 1765.11,-133.23 1655,-133.23 1655,-133.23 1655,-133.23 1270,-133.23 1012.79,-133.23 709.88,-103.63 563.68,-87.47"/>
<polygon fill="#63b8ff" stroke="#63b8ff" points="1971.61,-158.24 1981.95,-155.93 1972.42,-151.29 1971.61,-158.24"/>
</a>
</g>
</g>
<!-- Node3&#45;&gt;Node20 -->
<g id="edge42_Node000003_Node000020" class="edge">
<title>Node3&#45;&gt;Node20</title>
<g id="a_edge42_Node000003_Node000020"><a xlink:title=" ">
<path fill="none" stroke="#63b8ff" d="M1972.24,-167.18C1891.5,-168.93 1764.77,-171.23 1655,-171.23 1655,-171.23 1655,-171.23 865.62,-171.23 754.97,-171.23 628.07,-151.14 549.97,-136.43"/>
<polygon fill="#63b8ff" stroke="#63b8ff" points="1971.89,-170.69 1981.81,-166.97 1971.73,-163.69 1971.89,-170.69"/>
</a>
</g>
</g>
<!-- Node5 -->
<g id="Node000005" class="node">
<title>Node5</title>
<g id="a_Node000005"><a xlink:href="class_main_window.html#a44aaf7bb6d9a56f53b8a7a9e4fc29f8c" target="_top" xlink:title=" ">
<polygon fill="white" stroke="#666666" points="1729.5,-424.23 1578.5,-424.23 1578.5,-392.23 1729.5,-392.23 1729.5,-424.23"/>
<text xml:space="preserve" text-anchor="start" x="1586.5" y="-410.73" font-family="Helvetica,sans-Serif" font-size="10.00">MainWindow::createCheckBox</text>
<text xml:space="preserve" text-anchor="middle" x="1654" y="-398.73" font-family="Helvetica,sans-Serif" font-size="10.00">PropertyItem</text>
</a>
</g>
</g>
<!-- Node4&#45;&gt;Node5 -->
<g id="edge4_Node000004_Node000005" class="edge">
<title>Node4&#45;&gt;Node5</title>
<g id="a_edge4_Node000004_Node000005"><a xlink:title=" ">
<path fill="none" stroke="#63b8ff" d="M1829.28,-270.58C1791.13,-300.71 1713.17,-362.29 1675.83,-391.78"/>
<polygon fill="#63b8ff" stroke="#63b8ff" points="1831.2,-273.52 1836.88,-264.58 1826.86,-268.03 1831.2,-273.52"/>
</a>
</g>
</g>
<!-- Node6 -->
<g id="Node000006" class="node">
<title>Node6</title>
<g id="a_Node000006"><a xlink:href="class_main_window.html#a3aa4112f20ad25eb3ad78fd354ba7de2" target="_top" xlink:title=" ">
<polygon fill="white" stroke="#666666" points="1542.5,-424.23 1390.75,-424.23 1390.75,-392.23 1542.5,-392.23 1542.5,-424.23"/>
<text xml:space="preserve" text-anchor="start" x="1398.75" y="-410.73" font-family="Helvetica,sans-Serif" font-size="10.00">MainWindow::populateAttribute</text>
<text xml:space="preserve" text-anchor="middle" x="1466.62" y="-398.73" font-family="Helvetica,sans-Serif" font-size="10.00">Properties</text>
</a>
</g>
</g>
<!-- Node5&#45;&gt;Node6 -->
<g id="edge5_Node000005_Node000006" class="edge">
<title>Node5&#45;&gt;Node6</title>
<g id="a_edge5_Node000005_Node000006"><a xlink:title=" ">
<path fill="none" stroke="#63b8ff" d="M1566.84,-408.23C1558.8,-408.23 1550.7,-408.23 1542.77,-408.23"/>
<polygon fill="#63b8ff" stroke="#63b8ff" points="1566.62,-411.73 1576.62,-408.23 1566.62,-404.73 1566.62,-411.73"/>
</a>
</g>
</g>
<!-- Node13 -->
<g id="Node000013" class="node">
<title>Node13</title>
<g id="a_Node000013"><a xlink:href="class_main_window.html#a1049a5796ac248f40a3b4110ed5faf77" target="_top" xlink:title=" ">
<polygon fill="white" stroke="#666666" points="1151.25,-487.23 982.25,-487.23 982.25,-455.23 1151.25,-455.23 1151.25,-487.23"/>
<text xml:space="preserve" text-anchor="start" x="990.25" y="-473.73" font-family="Helvetica,sans-Serif" font-size="10.00">MainWindow::populateRelationship</text>
<text xml:space="preserve" text-anchor="middle" x="1066.75" y="-461.73" font-family="Helvetica,sans-Serif" font-size="10.00">Properties</text>
</a>
</g>
</g>
<!-- Node5&#45;&gt;Node13 -->
<g id="edge40_Node000005_Node000013" class="edge">
<title>Node5&#45;&gt;Node13</title>
<g id="a_edge40_Node000005_Node000013"><a xlink:title=" ">
<path fill="none" stroke="#63b8ff" d="M1571.88,-427.1C1562,-429.25 1552.03,-431.34 1542.5,-433.23 1459.47,-449.69 1439.02,-457.21 1354.75,-465.23 1286.53,-471.72 1208.8,-472.97 1151.45,-472.73"/>
<polygon fill="#63b8ff" stroke="#63b8ff" points="1572.48,-430.56 1581.5,-424.99 1570.98,-423.72 1572.48,-430.56"/>
</a>
</g>
</g>
<!-- Node7 -->
<g id="Node000007" class="node">
<title>Node7</title>
<g id="a_Node000007"><a xlink:href="class_main_window.html#a697154cf7839e00c607134c2a4e018cf" target="_top" xlink:title=" ">
<polygon fill="white" stroke="#666666" points="1354.75,-456.23 1187.25,-456.23 1187.25,-436.23 1354.75,-436.23 1354.75,-456.23"/>
<text xml:space="preserve" text-anchor="middle" x="1271" y="-442.73" font-family="Helvetica,sans-Serif" font-size="10.00">MainWindow::populateAttributeList</text>
</a>
</g>
</g>
<!-- Node6&#45;&gt;Node7 -->
<g id="edge6_Node000006_Node000007" class="edge">
<title>Node6&#45;&gt;Node7</title>
<g id="a_edge6_Node000006_Node000007"><a xlink:title=" ">
<path fill="none" stroke="#63b8ff" d="M1379.24,-418.47C1350.77,-423.86 1321.09,-430.28 1300.19,-435.77"/>
<polygon fill="#63b8ff" stroke="#63b8ff" points="1379.81,-421.92 1389,-416.65 1378.53,-415.04 1379.81,-421.92"/>
</a>
</g>
</g>
<!-- Node9 -->
<g id="Node000009" class="node">
<title>Node9</title>
<g id="a_Node000009"><a xlink:href="class_main_window.html#add7e6ae12287854ff779bd4b5649dd98" target="_top" xlink:title=" ">
<polygon fill="white" stroke="#666666" points="946.25,-430.23 787,-430.23 787,-398.23 946.25,-398.23 946.25,-430.23"/>
<text xml:space="preserve" text-anchor="start" x="795" y="-416.73" font-family="Helvetica,sans-Serif" font-size="10.00">MainWindow::populateProperties</text>
<text xml:space="preserve" text-anchor="middle" x="866.62" y="-404.73" font-family="Helvetica,sans-Serif" font-size="10.00">ForElement</text>
</a>
</g>
</g>
<!-- Node6&#45;&gt;Node9 -->
<g id="edge39_Node000006_Node000009" class="edge">
<title>Node6&#45;&gt;Node9</title>
<g id="a_edge39_Node000006_Node000009"><a xlink:title=" ">
<path fill="none" stroke="#63b8ff" d="M1379.21,-409.1C1263.22,-410.26 1058.84,-412.31 946.72,-413.44"/>
<polygon fill="#63b8ff" stroke="#63b8ff" points="1379.02,-412.6 1388.98,-409 1378.95,-405.6 1379.02,-412.6"/>
</a>
</g>
</g>
<!-- Node7&#45;&gt;Node6 -->
<g id="edge7_Node000007_Node000006" class="edge">
<title>Node7&#45;&gt;Node6</title>
<g id="a_edge7_Node000007_Node000006"><a xlink:title=" ">
<path fill="none" stroke="#63b8ff" d="M1366.1,-434.51C1382.13,-431.39 1398.25,-428.01 1412.72,-424.7"/>
<polygon fill="#63b8ff" stroke="#63b8ff" points="1365.7,-431.02 1356.53,-436.34 1367.01,-437.9 1365.7,-431.02"/>
</a>
</g>
</g>
<!-- Node8 -->
<g id="Node000008" class="node">
<title>Node8</title>
<g id="a_Node000008"><a xlink:href="class_main_window.html#a40023e3590f2593fd133a6b111f63ed9" target="_top" xlink:title=" ">
<polygon fill="white" stroke="#666666" points="149.88,-547.23 9.38,-547.23 9.38,-515.23 149.88,-515.23 149.88,-547.23"/>
<text xml:space="preserve" text-anchor="start" x="17.38" y="-533.73" font-family="Helvetica,sans-Serif" font-size="10.00">MainWindow::populateEntity</text>
<text xml:space="preserve" text-anchor="middle" x="79.62" y="-521.73" font-family="Helvetica,sans-Serif" font-size="10.00">Properties</text>
</a>
</g>
</g>
<!-- Node7&#45;&gt;Node8 -->
<g id="edge8_Node000007_Node000008" class="edge">
<title>Node7&#45;&gt;Node8</title>
<g id="a_edge8_Node000007_Node000008"><a xlink:title=" ">
<path fill="none" stroke="#63b8ff" d="M1238.14,-461.56C1214.57,-472.43 1181.46,-486.72 1151.25,-496.23 808.3,-604.23 710.24,-606.46 350.75,-613.23 281.65,-614.53 261.06,-634.34 195.25,-613.23 154.94,-600.3 116.77,-567.4 96.25,-547.42"/>
<polygon fill="#63b8ff" stroke="#63b8ff" points="1239.62,-464.74 1247.2,-457.33 1236.66,-458.39 1239.62,-464.74"/>
</a>
</g>
</g>
<!-- Node7&#45;&gt;Node13 -->
<g id="edge38_Node000007_Node000013" class="edge">
<title>Node7&#45;&gt;Node13</title>
<g id="a_edge38_Node000007_Node000013"><a xlink:title=" ">
<path fill="none" stroke="#63b8ff" d="M1175.58,-457.9C1167.56,-458.89 1159.48,-459.89 1151.55,-460.87"/>
<polygon fill="#63b8ff" stroke="#63b8ff" points="1175.86,-461.39 1185.36,-456.69 1175.01,-454.44 1175.86,-461.39"/>
</a>
</g>
</g>
<!-- Node8&#45;&gt;Node9 -->
<g id="edge9_Node000008_Node000009" class="edge">
<title>Node8&#45;&gt;Node9</title>
<g id="a_edge9_Node000008_Node000009"><a xlink:title=" ">
<path fill="none" stroke="#63b8ff" d="M161.68,-522.12C257.72,-511.03 422.47,-491.06 563.25,-469.23 639.31,-457.43 725.66,-441.47 786.55,-429.78"/>
<polygon fill="#63b8ff" stroke="#63b8ff" points="161.36,-518.64 151.82,-523.26 162.16,-525.59 161.36,-518.64"/>
</a>
</g>
</g>
<!-- Node10 -->
<g id="Node000010" class="node">
<title>Node10</title>
<g id="a_Node000010"><a xlink:href="class_main_window.html#a5caeae304b10e5cd9f83ef5c6086310b" target="_top" xlink:title=" ">
<polygon fill="white" stroke="#666666" points="751,-231.23 599.25,-231.23 599.25,-199.23 751,-199.23 751,-231.23"/>
<text xml:space="preserve" text-anchor="start" x="607.25" y="-217.73" font-family="Helvetica,sans-Serif" font-size="10.00">MainWindow::updateProperties</text>
<text xml:space="preserve" text-anchor="middle" x="675.12" y="-205.73" font-family="Helvetica,sans-Serif" font-size="10.00">Panel</text>
</a>
</g>
</g>
<!-- Node9&#45;&gt;Node10 -->
<g id="edge10_Node000009_Node000010" class="edge">
<title>Node9&#45;&gt;Node10</title>
<g id="a_edge10_Node000009_Node000010"><a xlink:title=" ">
<path fill="none" stroke="#63b8ff" d="M842.37,-389.8C803.12,-348.59 724.79,-266.34 691.58,-231.46"/>
<polygon fill="#63b8ff" stroke="#63b8ff" points="839.64,-392.02 849.07,-396.85 844.71,-387.19 839.64,-392.02"/>
</a>
</g>
</g>
<!-- Node10&#45;&gt;Node2 -->
<g id="edge37_Node000010_Node000002" class="edge">
<title>Node10&#45;&gt;Node2</title>
<g id="a_edge37_Node000010_Node000002"><a xlink:title=" ">
<path fill="none" stroke="#63b8ff" d="M762.52,-213.14C841.47,-211.41 961.45,-209.23 1065.75,-209.23 1853.25,-209.23 1853.25,-209.23 1853.25,-209.23 1965.04,-209.23 2094.82,-199.84 2171.37,-193.33"/>
<polygon fill="#63b8ff" stroke="#63b8ff" points="762.61,-209.63 752.69,-213.35 762.77,-216.63 762.61,-209.63"/>
</a>
</g>
</g>
<!-- Node10&#45;&gt;Node4 -->
<g id="edge18_Node000010_Node000004" class="edge">
<title>Node10&#45;&gt;Node4</title>
<g id="a_edge18_Node000010_Node000004"><a xlink:title=" ">
<path fill="none" stroke="#63b8ff" d="M762.7,-227.13C841.54,-236.94 961.23,-249.23 1065.75,-249.23 1467.62,-249.23 1467.62,-249.23 1467.62,-249.23 1569.86,-249.23 1687.42,-250.67 1765.17,-251.82"/>
<polygon fill="#63b8ff" stroke="#63b8ff" points="763.24,-223.67 752.88,-225.9 762.36,-230.62 763.24,-223.67"/>
</a>
</g>
</g>
<!-- Node11 -->
<g id="Node000011" class="node">
<title>Node11</title>
<g id="a_Node000011"><a xlink:href="class_main_window.html#ad34ae0349abf41aa739b75b85df74126" target="_top" xlink:title=" ">
<polygon fill="white" stroke="#666666" points="546.38,-263.23 403.62,-263.23 403.62,-231.23 546.38,-231.23 546.38,-263.23"/>
<text xml:space="preserve" text-anchor="start" x="411.62" y="-249.73" font-family="Helvetica,sans-Serif" font-size="10.00">MainWindow::onAddAttribute</text>
<text xml:space="preserve" text-anchor="middle" x="475" y="-237.73" font-family="Helvetica,sans-Serif" font-size="10.00">OnTreeClicked</text>
</a>
</g>
</g>
<!-- Node10&#45;&gt;Node11 -->
<g id="edge11_Node000010_Node000011" class="edge">
<title>Node10&#45;&gt;Node11</title>
<g id="a_edge11_Node000010_Node000011"><a xlink:title=" ">
<path fill="none" stroke="#63b8ff" d="M587.95,-229.15C574.13,-231.38 559.96,-233.67 546.56,-235.83"/>
<polygon fill="#63b8ff" stroke="#63b8ff" points="588.13,-232.66 597.45,-227.61 587.02,-225.75 588.13,-232.66"/>
</a>
</g>
</g>
<!-- Node10&#45;&gt;Node14 -->
<g id="edge19_Node000010_Node000014" class="edge">
<title>Node10&#45;&gt;Node14</title>
<g id="a_edge19_Node000010_Node000014"><a xlink:title=" ">
<path fill="none" stroke="#63b8ff" d="M657.32,-189.43C638,-161.93 603.68,-119.25 563.25,-96.23 557.19,-92.78 550.56,-89.95 543.75,-87.64"/>
<polygon fill="#63b8ff" stroke="#63b8ff" points="654.35,-191.29 662.89,-197.56 660.13,-187.33 654.35,-191.29"/>
</a>
</g>
</g>
<!-- Node10&#45;&gt;Node18 -->
<g id="edge26_Node000010_Node000018" class="edge">
<title>Node10&#45;&gt;Node18</title>
<g id="a_edge26_Node000010_Node000018"><a xlink:title=" ">
<path fill="none" stroke="#63b8ff" d="M659.48,-241.39C619.27,-313.24 508.34,-511.45 481.77,-558.92"/>
<polygon fill="#63b8ff" stroke="#63b8ff" points="662.53,-243.12 664.36,-232.68 656.42,-239.7 662.53,-243.12"/>
</a>
</g>
</g>
<!-- Node10&#45;&gt;Node20 -->
<g id="edge29_Node000010_Node000020" class="edge">
<title>Node10&#45;&gt;Node20</title>
<g id="a_edge29_Node000010_Node000020"><a xlink:title=" ">
<path fill="none" stroke="#63b8ff" d="M635.88,-194.54C623.7,-189.39 610.47,-183.41 599.25,-176.23 580.71,-164.37 582.08,-153.62 563.25,-142.23 559,-139.66 554.5,-137.27 549.88,-135.08"/>
<polygon fill="#63b8ff" stroke="#63b8ff" points="634.27,-197.66 644.85,-198.28 636.96,-191.2 634.27,-197.66"/>
</a>
</g>
</g>
<!-- Node23 -->
<g id="Node000023" class="node">
<title>Node23</title>
<g id="a_Node000023"><a xlink:href="class_main_window.html#a95674d4bfc5fc2aad6df1601f23b1793" target="_top" xlink:title=" ">
<polygon fill="white" stroke="#666666" points="556.12,-351.23 393.88,-351.23 393.88,-319.23 556.12,-319.23 556.12,-351.23"/>
<text xml:space="preserve" text-anchor="start" x="401.88" y="-337.73" font-family="Helvetica,sans-Serif" font-size="10.00">MainWindow::onRemoveAttribute</text>
<text xml:space="preserve" text-anchor="middle" x="475" y="-325.73" font-family="Helvetica,sans-Serif" font-size="10.00">OnTreeClicked</text>
</a>
</g>
</g>
<!-- Node10&#45;&gt;Node23 -->
<g id="edge33_Node000010_Node000023" class="edge">
<title>Node10&#45;&gt;Node23</title>
<g id="a_edge33_Node000010_Node000023"><a xlink:title=" ">
<path fill="none" stroke="#63b8ff" d="M637.6,-237.35C598.69,-260.92 538,-297.68 503.12,-318.8"/>
<polygon fill="#63b8ff" stroke="#63b8ff" points="638.96,-240.62 645.7,-232.45 635.33,-234.63 638.96,-240.62"/>
</a>
</g>
</g>
<!-- Node24 -->
<g id="Node000024" class="node">
<title>Node24</title>
<g id="a_Node000024"><a xlink:href="class_main_window.html#a44791b85064ecff42c12429c6667e83b" target="_top" xlink:title=" ">
<polygon fill="white" stroke="#666666" points="559.12,-213.23 390.88,-213.23 390.88,-193.23 559.12,-193.23 559.12,-213.23"/>
<text xml:space="preserve" text-anchor="middle" x="475" y="-199.73" font-family="Helvetica,sans-Serif" font-size="10.00">MainWindow::onSelectionChanged</text>
</a>
</g>
</g>
<!-- Node10&#45;&gt;Node24 -->
<g id="edge35_Node000010_Node000024" class="edge">
<title>Node10&#45;&gt;Node24</title>
<g id="a_edge35_Node000010_Node000024"><a xlink:title=" ">
<path fill="none" stroke="#63b8ff" d="M587.62,-209.99C578.25,-209.42 568.74,-208.85 559.41,-208.28"/>
<polygon fill="#63b8ff" stroke="#63b8ff" points="587.24,-213.47 597.43,-210.58 587.66,-206.49 587.24,-213.47"/>
</a>
</g>
</g>
<!-- Node12 -->
<g id="Node000012" class="node">
<title>Node12</title>
<g id="a_Node000012"><a xlink:href="class_main_window.html#a6fd05e9f951dd6e7c2cd6ca815ef9d71" target="_top" xlink:title=" ">
<polygon fill="white" stroke="#666666" points="339.88,-452.23 206.12,-452.23 206.12,-420.23 339.88,-420.23 339.88,-452.23"/>
<text xml:space="preserve" text-anchor="start" x="214.12" y="-438.73" font-family="Helvetica,sans-Serif" font-size="10.00">MainWindow::createButton</text>
<text xml:space="preserve" text-anchor="middle" x="273" y="-426.73" font-family="Helvetica,sans-Serif" font-size="10.00">PropertyItem</text>
</a>
</g>
</g>
<!-- Node11&#45;&gt;Node12 -->
<g id="edge12_Node000011_Node000012" class="edge">
<title>Node11&#45;&gt;Node12</title>
<g id="a_edge12_Node000011_Node000012"><a xlink:title=" ">
<path fill="none" stroke="#63b8ff" d="M439.15,-269.83C422.62,-281.18 403,-295.6 386.75,-310.23 346.83,-346.18 306.37,-395.12 286.54,-420.1"/>
<polygon fill="#63b8ff" stroke="#63b8ff" points="440.89,-272.88 447.21,-264.38 436.97,-267.08 440.89,-272.88"/>
</a>
</g>
</g>
<!-- Node12&#45;&gt;Node6 -->
<g id="edge14_Node000012_Node000006" class="edge">
<title>Node12&#45;&gt;Node6</title>
<g id="a_edge14_Node000012_Node000006"><a xlink:title=" ">
<path fill="none" stroke="#63b8ff" d="M351.21,-422.95C416.95,-412.15 514.02,-397.41 599.25,-389.23 890.72,-361.25 1239.76,-386.79 1390.37,-400.65"/>
<polygon fill="#63b8ff" stroke="#63b8ff" points="350.91,-419.45 341.61,-424.53 352.05,-426.36 350.91,-419.45"/>
</a>
</g>
</g>
<!-- Node12&#45;&gt;Node7 -->
<g id="edge13_Node000012_Node000007" class="edge">
<title>Node12&#45;&gt;Node7</title>
<g id="a_edge13_Node000012_Node000007"><a xlink:title=" ">
<path fill="none" stroke="#63b8ff" d="M351.59,-438.42C409.95,-439.21 491.81,-438.5 563.25,-431.23 663.91,-420.99 686.25,-398.6 787,-389.23 857.47,-382.67 875.74,-383.07 946.25,-389.23 1046.74,-398.01 1162.8,-421.84 1225.02,-435.75"/>
<polygon fill="#63b8ff" stroke="#63b8ff" points="351.81,-434.92 341.76,-438.26 351.7,-441.92 351.81,-434.92"/>
</a>
</g>
</g>
<!-- Node12&#45;&gt;Node8 -->
<g id="edge15_Node000012_Node000008" class="edge">
<title>Node12&#45;&gt;Node8</title>
<g id="a_edge15_Node000012_Node000008"><a xlink:title=" ">
<path fill="none" stroke="#63b8ff" d="M229.2,-457.48C194.3,-474.8 145.71,-498.92 113.73,-514.79"/>
<polygon fill="#63b8ff" stroke="#63b8ff" points="230.34,-460.81 237.75,-453.23 227.23,-454.54 230.34,-460.81"/>
</a>
</g>
</g>
<!-- Node12&#45;&gt;Node13 -->
<g id="edge16_Node000012_Node000013" class="edge">
<title>Node12&#45;&gt;Node13</title>
<g id="a_edge16_Node000012_Node000013"><a xlink:title=" ">
<path fill="none" stroke="#63b8ff" d="M330.24,-456.01C348.08,-461.38 368.03,-466.47 386.75,-469.23 599.16,-500.49 853,-488.28 981.82,-478.63"/>
<polygon fill="#63b8ff" stroke="#63b8ff" points="331.47,-452.73 320.88,-453.1 329.39,-459.41 331.47,-452.73"/>
</a>
</g>
</g>
<!-- Node13&#45;&gt;Node9 -->
<g id="edge17_Node000013_Node000009" class="edge">
<title>Node13&#45;&gt;Node9</title>
<g id="a_edge17_Node000013_Node000009"><a xlink:title=" ">
<path fill="none" stroke="#63b8ff" d="M997.42,-451.57C973.75,-444.76 947.48,-437.2 924.8,-430.68"/>
<polygon fill="#63b8ff" stroke="#63b8ff" points="996.41,-454.92 1006.99,-454.32 998.35,-448.2 996.41,-454.92"/>
</a>
</g>
</g>
<!-- Node15 -->
<g id="Node000015" class="node">
<title>Node15</title>
<g id="a_Node000015"><a xlink:href="class_main_window.html#a872e6a76dcbf858ae9d483eceddf90e1" target="_top" xlink:title=" ">
<polygon fill="white" stroke="#666666" points="350,-307.23 196,-307.23 196,-275.23 350,-275.23 350,-307.23"/>
<text xml:space="preserve" text-anchor="start" x="204" y="-293.73" font-family="Helvetica,sans-Serif" font-size="10.00">MainWindow::createComboBox</text>
<text xml:space="preserve" text-anchor="middle" x="273" y="-281.73" font-family="Helvetica,sans-Serif" font-size="10.00">PropertyItem</text>
</a>
</g>
</g>
<!-- Node14&#45;&gt;Node15 -->
<g id="edge20_Node000014_Node000015" class="edge">
<title>Node14&#45;&gt;Node15</title>
<g id="a_edge20_Node000014_Node000015"><a xlink:title=" ">
<path fill="none" stroke="#63b8ff" d="M389.55,-93.79C388.59,-94.57 387.65,-95.38 386.75,-96.23 344.27,-136.08 381.61,-172.84 350.75,-222.23 337.36,-243.66 315.44,-262.41 298.45,-274.94"/>
<polygon fill="#63b8ff" stroke="#63b8ff" points="391.17,-96.91 397.55,-88.46 387.29,-91.09 391.17,-96.91"/>
</a>
</g>
</g>
<!-- Node16 -->
<g id="Node000016" class="node">
<title>Node16</title>
<g id="a_Node000016"><a xlink:href="class_main_window.html#abae03a6494d13d74ed1b2e31ec1f2fc7" target="_top" xlink:title=" ">
<polygon fill="white" stroke="#666666" points="350.75,-115.23 195.25,-115.23 195.25,-83.23 350.75,-83.23 350.75,-115.23"/>
<text xml:space="preserve" text-anchor="start" x="203.25" y="-101.73" font-family="Helvetica,sans-Serif" font-size="10.00">MainWindow::createIconCombo</text>
<text xml:space="preserve" text-anchor="middle" x="273" y="-89.73" font-family="Helvetica,sans-Serif" font-size="10.00">BoxPropertyItem</text>
</a>
</g>
</g>
<!-- Node14&#45;&gt;Node16 -->
<g id="edge23_Node000014_Node000016" class="edge">
<title>Node14&#45;&gt;Node16</title>
<g id="a_edge23_Node000014_Node000016"><a xlink:title=" ">
<path fill="none" stroke="#63b8ff" d="M374.93,-88.13C366.89,-89.01 358.84,-89.9 350.99,-90.76"/>
<polygon fill="#63b8ff" stroke="#63b8ff" points="375.22,-91.62 384.77,-87.04 374.45,-84.66 375.22,-91.62"/>
</a>
</g>
</g>
<!-- Node15&#45;&gt;Node6 -->
<g id="edge21_Node000015_Node000006" class="edge">
<title>Node15&#45;&gt;Node6</title>
<g id="a_edge21_Node000015_Node000006"><a xlink:title=" ">
<path fill="none" stroke="#63b8ff" d="M361.48,-291.23C442.54,-291.23 566.48,-291.23 674.12,-291.23 1067.75,-291.23 1067.75,-291.23 1067.75,-291.23 1208.69,-291.23 1366.72,-359.64 1433.3,-391.84"/>
<polygon fill="#63b8ff" stroke="#63b8ff" points="361.85,-287.73 351.85,-291.23 361.85,-294.73 361.85,-287.73"/>
</a>
</g>
</g>
<!-- Node15&#45;&gt;Node13 -->
<g id="edge22_Node000015_Node000013" class="edge">
<title>Node15&#45;&gt;Node13</title>
<g id="a_edge22_Node000015_Node000013"><a xlink:title=" ">
<path fill="none" stroke="#63b8ff" d="M305.03,-314.4C326.84,-329.6 357.27,-348.73 386.75,-360.23 590.66,-439.79 850.56,-462.33 981.81,-468.71"/>
<polygon fill="#63b8ff" stroke="#63b8ff" points="307.07,-311.55 296.89,-308.61 303.01,-317.25 307.07,-311.55"/>
</a>
</g>
</g>
<!-- Node17 -->
<g id="Node000017" class="node">
<title>Node17</title>
<g id="a_Node000017"><a xlink:href="class_main_window.html#af02df1238ccf49caa1c4099c88dfe465" target="_top" xlink:title=" ">
<polygon fill="white" stroke="#666666" points="159.25,-156.23 0,-156.23 0,-124.23 159.25,-124.23 159.25,-156.23"/>
<text xml:space="preserve" text-anchor="start" x="8" y="-142.73" font-family="Helvetica,sans-Serif" font-size="10.00">MainWindow::populateProperties</text>
<text xml:space="preserve" text-anchor="middle" x="79.62" y="-130.73" font-family="Helvetica,sans-Serif" font-size="10.00">ForConnection</text>
</a>
</g>
</g>
<!-- Node16&#45;&gt;Node17 -->
<g id="edge24_Node000016_Node000017" class="edge">
<title>Node16&#45;&gt;Node17</title>
<g id="a_edge24_Node000016_Node000017"><a xlink:title=" ">
<path fill="none" stroke="#63b8ff" d="M183.89,-118.11C175.07,-120 166.17,-121.9 157.48,-123.76"/>
<polygon fill="#63b8ff" stroke="#63b8ff" points="184.46,-121.56 193.51,-116.05 183,-114.72 184.46,-121.56"/>
</a>
</g>
</g>
<!-- Node17&#45;&gt;Node10 -->
<g id="edge25_Node000017_Node000010" class="edge">
<title>Node17&#45;&gt;Node10</title>
<g id="a_edge25_Node000017_Node000010"><a xlink:title=" ">
<path fill="none" stroke="#63b8ff" d="M170.65,-143.55C268.1,-148.27 427.73,-159.32 563.25,-184.23 582.91,-187.84 604.13,-193.36 622.69,-198.75"/>
<polygon fill="#63b8ff" stroke="#63b8ff" points="171.04,-140.06 160.89,-143.09 170.71,-147.05 171.04,-140.06"/>
</a>
</g>
</g>
<!-- Node19 -->
<g id="Node000019" class="node">
<title>Node19</title>
<g id="a_Node000019"><a xlink:href="class_main_window.html#ae3b6600dd59da1822ef94bbd5f37f0cc" target="_top" xlink:title=" ">
<polygon fill="white" stroke="#666666" points="343.25,-604.23 202.75,-604.23 202.75,-572.23 343.25,-572.23 343.25,-604.23"/>
<text xml:space="preserve" text-anchor="start" x="210.75" y="-590.73" font-family="Helvetica,sans-Serif" font-size="10.00">MainWindow::createLineEdit</text>
<text xml:space="preserve" text-anchor="middle" x="273" y="-578.73" font-family="Helvetica,sans-Serif" font-size="10.00">PropertyItem</text>
</a>
</g>
</g>
<!-- Node18&#45;&gt;Node19 -->
<g id="edge27_Node000018_Node000019" class="edge">
<title>Node18&#45;&gt;Node19</title>
<g id="a_edge27_Node000018_Node000019"><a xlink:title=" ">
<path fill="none" stroke="#63b8ff" d="M381.94,-577.97C369.01,-579.2 355.91,-580.45 343.5,-581.63"/>
<polygon fill="#63b8ff" stroke="#63b8ff" points="382.1,-581.48 391.72,-577.05 381.44,-574.51 382.1,-581.48"/>
</a>
</g>
</g>
<!-- Node19&#45;&gt;Node13 -->
<g id="edge28_Node000019_Node000013" class="edge">
<title>Node19&#45;&gt;Node13</title>
<g id="a_edge28_Node000019_Node000013"><a xlink:title=" ">
<path fill="none" stroke="#63b8ff" d="M354.84,-593.14C413,-595.48 493.21,-596.26 563.25,-588.23 736.87,-568.32 776.06,-538.94 946.25,-499.23 962.23,-495.5 979.41,-491.48 995.62,-487.68"/>
<polygon fill="#63b8ff" stroke="#63b8ff" points="355.16,-589.65 345.02,-592.72 354.86,-596.65 355.16,-589.65"/>
</a>
</g>
</g>
<!-- Node20&#45;&gt;Node10 -->
<g id="edge32_Node000020_Node000010" class="edge">
<title>Node20&#45;&gt;Node10</title>
<g id="a_edge32_Node000020_Node000010"><a xlink:title=" ">
<path fill="none" stroke="#63b8ff" d="M521.88,-141.53C535.72,-146.54 550.6,-152.58 563.25,-160.23 582.08,-171.62 580.71,-182.37 599.25,-194.23 601.73,-195.81 604.3,-197.34 606.94,-198.8"/>
<polygon fill="#63b8ff" stroke="#63b8ff" points="523.07,-138.24 512.48,-138.22 520.75,-144.84 523.07,-138.24"/>
</a>
</g>
</g>
<!-- Node21 -->
<g id="Node000021" class="node">
<title>Node21</title>
<g id="a_Node000021"><a xlink:href="class_main_window.html#adfa32feecffce3959c99d145fc8b4854" target="_top" xlink:title=" ">
<polygon fill="white" stroke="#666666" points="345.5,-213.23 200.5,-213.23 200.5,-193.23 345.5,-193.23 345.5,-213.23"/>
<text xml:space="preserve" text-anchor="middle" x="273" y="-199.73" font-family="Helvetica,sans-Serif" font-size="10.00">MainWindow::connectSignals</text>
</a>
</g>
</g>
<!-- Node20&#45;&gt;Node21 -->
<g id="edge30_Node000020_Node000021" class="edge">
<title>Node20&#45;&gt;Node21</title>
<g id="a_edge30_Node000020_Node000021"><a xlink:title=" ">
<path fill="none" stroke="#63b8ff" d="M423.49,-141.94C383.89,-158.17 330.45,-180.08 299.36,-192.83"/>
<polygon fill="#63b8ff" stroke="#63b8ff" points="424.68,-145.23 432.61,-138.2 422.03,-138.76 424.68,-145.23"/>
</a>
</g>
</g>
<!-- Node22 -->
<g id="Node000022" class="node">
<title>Node22</title>
<g id="a_Node000022"><a xlink:href="class_main_window.html#a996c5a2b6f77944776856f08ec30858d" target="_top" xlink:title=" ">
<polygon fill="white" stroke="#666666" points="146.88,-213.23 12.38,-213.23 12.38,-193.23 146.88,-193.23 146.88,-213.23"/>
<text xml:space="preserve" text-anchor="middle" x="79.62" y="-199.73" font-family="Helvetica,sans-Serif" font-size="10.00">MainWindow::MainWindow</text>
</a>
</g>
</g>
<!-- Node21&#45;&gt;Node22 -->
<g id="edge31_Node000021_Node000022" class="edge">
<title>Node21&#45;&gt;Node22</title>
<g id="a_edge31_Node000021_Node000022"><a xlink:title=" ">
<path fill="none" stroke="#63b8ff" d="M189.06,-203.23C175.05,-203.23 160.67,-203.23 147.14,-203.23"/>
<polygon fill="#63b8ff" stroke="#63b8ff" points="188.68,-206.73 198.68,-203.23 188.68,-199.73 188.68,-206.73"/>
</a>
</g>
</g>
<!-- Node23&#45;&gt;Node12 -->
<g id="edge34_Node000023_Node000012" class="edge">
<title>Node23&#45;&gt;Node12</title>
<g id="a_edge34_Node000023_Node000012"><a xlink:title=" ">
<path fill="none" stroke="#63b8ff" d="M431.35,-356.77C394.01,-375.63 340.55,-402.62 306.56,-419.78"/>
<polygon fill="#63b8ff" stroke="#63b8ff" points="432.72,-360 440.07,-352.36 429.57,-353.75 432.72,-360"/>
</a>
</g>
</g>
<!-- Node24&#45;&gt;Node21 -->
<g id="edge36_Node000024_Node000021" class="edge">
<title>Node24&#45;&gt;Node21</title>
<g id="a_edge36_Node000024_Node000021"><a xlink:title=" ">
<path fill="none" stroke="#63b8ff" d="M379.38,-203.23C368.08,-203.23 356.69,-203.23 345.79,-203.23"/>
<polygon fill="#63b8ff" stroke="#63b8ff" points="379.12,-206.73 389.12,-203.23 379.12,-199.73 379.12,-206.73"/>
</a>
</g>
</g>
<!-- Node25&#45;&gt;Node14 -->
<g id="edge44_Node000025_Node000014" class="edge">
<title>Node25&#45;&gt;Node14</title>
<g id="a_edge44_Node000025_Node000014"><a xlink:title=" ">
<path fill="none" stroke="#63b8ff" d="M1760.34,-50.12C1682.61,-49.26 1567.77,-48.23 1467.62,-48.23 1467.62,-48.23 1467.62,-48.23 865.62,-48.23 761.68,-48.23 642.55,-58.62 563.68,-66.96"/>
<polygon fill="#63b8ff" stroke="#63b8ff" points="1759.98,-53.61 1770.02,-50.23 1760.06,-46.61 1759.98,-53.61"/>
</a>
</g>
</g>
<!-- Node26&#45;&gt;Node4 -->
<g id="edge46_Node000026_Node000004" class="edge">
<title>Node26&#45;&gt;Node4</title>
<g id="a_edge46_Node000026_Node000004"><a xlink:title=" ">
<path fill="none" stroke="#63b8ff" d="M1963.33,-253.23C1955.3,-253.23 1947.2,-253.23 1939.22,-253.23"/>
<polygon fill="#63b8ff" stroke="#63b8ff" points="1963.08,-256.73 1973.08,-253.23 1963.08,-249.73 1963.08,-256.73"/>
</a>
</g>
</g>
</g>
</svg>
