<?xml version="1.0" encoding="UTF-8" standalone="no"?>
<!DOCTYPE svg PUBLIC "-//W3C//DTD SVG 1.1//EN"
 "http://www.w3.org/Graphics/SVG/1.1/DTD/svg11.dtd">
<!-- Generated by graphviz version 14.1.1 (20251213.1925)
 -->
<!-- Title: PropertiesPanel::createComboBoxPropertyItem Pages: 1 -->
<!--zoomable 896 -->

<svg id="main" version="1.1" xmlns="http://www.w3.org/2000/svg" xmlns:xlink="http://www.w3.org/1999/xlink" xml:space="preserve" onload="init(evt)">

<style type="text/css"><![CDATA[
.node, .edge {opacity: 0.7;}
.node.selected, .edge.selected {opacity: 1;}
.edge:hover path { stroke: red; }
.edge:hover polygon { stroke: red; fill: red; }
]]></style>

<defs>
  <circle id="rim" cx="0" cy="0" r="7"/>
  <circle id="rim2" cx="0" cy="0" r="3.5"/>
  <g id="zoomPlus">
    <use xlink:href="#rim" fill="#404040"><set attributeName="fill" to="#808080" begin="zoomplus.mouseover" end="zoomplus.mouseout"/></use>
    <path d="M-4,0h8M0,-4v8" fill="none" stroke="white" stroke-width="1.5" pointer-events="none"/>
  </g>
  <g id="zoomMin">
    <use xlink:href="#rim" fill="#404040"><set attributeName="fill" to="#808080" begin="zoomminus.mouseover" end="zoomminus.mouseout"/></use>
    <path d="M-4,0h8" fill="none" stroke="white" stroke-width="1.5" pointer-events="none"/>
  </g>
  <g id="arrowUp" transform="translate(30 24)">
    <use xlink:href="#rim"/>
    <path pointer-events="none" fill="none" stroke="white" stroke-width="1.5" d="M0,-3.0v7 M-2.5,-0.5L0,-3.0L2.5,-0.5"/>
  </g>
  <g id="arrowRight" transform="rotate(90) translate(36 -43)">
    <use xlink:href="#rim"/>
    <path pointer-events="none" fill="none" stroke="white" stroke-width="1.5" d="M0,-3.0v7 M-2.5,-0.5L0,-3.0L2.5,-0.5"/>
  </g>
  <g id="arrowDown" transform="rotate(180) translate(-30 -48)">
    <use xlink:href="#rim"/>
    <path pointer-events="none" fill="none" stroke="white" stroke-width="1.5" d="M0,-3.0v7 M-2.5,-0.5L0,-3.0L2.5,-0.5"/>
  </g>
  <g id="arrowLeft" transform="rotate(270) translate(-36 17)">
    <use xlink:href="#rim"/>
    <path pointer-events="none" fill="none" stroke="white" stroke-width="1.5" d="M0,-3.0v7 M-2.5,-0.5L0,-3.0L2.5,-0.5"/>
  </g>
  <g id="resetDef">
    <use xlink:href="#rim2" fill="#404040"><set attributeName="fill" to="#808080" begin="reset.mouseover" end="reset.mouseout"/></use>
  </g>
</defs>
<script type="application/ecmascript">
var viewWidth = 1891;
var viewHeight = 896;
var sectionId = 'dynsection-11';
</script>
<script type="application/ecmascript" xlink:href="svg.min.js"/>
<svg id="graph" class="graph">
<g id="viewport">
<title>PropertiesPanel::createComboBoxPropertyItem</title>
<!-- Node1 -->
<g id="Node000001" class="node">
<title>Node1</title>
<g id="a_Node000001"><a xlink:title=" ">
<polygon fill="#999999" stroke="#666666" points="1883,-168 1733.5,-168 1733.5,-136 1883,-136 1883,-168"/>
<text xml:space="preserve" text-anchor="start" x="1741.5" y="-154.5" font-family="Helvetica,sans-Serif" font-size="10.00">PropertiesPanel::createCombo</text>
<text xml:space="preserve" text-anchor="middle" x="1808.25" y="-142.5" font-family="Helvetica,sans-Serif" font-size="10.00">BoxPropertyItem</text>
</a>
</g>
</g>
<!-- Node2 -->
<g id="Node000002" class="node">
<title>Node2</title>
<g id="a_Node000002"><a xlink:href="class_properties_panel.html#acc5a2b4e63ea74eaa34853f1cec46b81" target="_top" xlink:title=" ">
<polygon fill="white" stroke="#666666" points="1697.5,-769 1569.75,-769 1569.75,-737 1697.5,-737 1697.5,-769"/>
<text xml:space="preserve" text-anchor="start" x="1577.75" y="-755.5" font-family="Helvetica,sans-Serif" font-size="10.00">PropertiesPanel::populate</text>
<text xml:space="preserve" text-anchor="middle" x="1633.62" y="-743.5" font-family="Helvetica,sans-Serif" font-size="10.00">AttributeProperties</text>
</a>
</g>
</g>
<!-- Node1&#45;&gt;Node2 -->
<g id="edge1_Node000001_Node000002" class="edge">
<title>Node1&#45;&gt;Node2</title>
<g id="a_edge1_Node000001_Node000002"><a xlink:title=" ">
<path fill="none" stroke="#63b8ff" d="M1799.44,-179.19C1769.57,-283.19 1663.04,-654.06 1639.33,-736.63"/>
<polygon fill="#63b8ff" stroke="#63b8ff" points="1802.73,-180.42 1802.13,-169.84 1796,-178.49 1802.73,-180.42"/>
</a>
</g>
</g>
<!-- Node9 -->
<g id="Node000009" class="node">
<title>Node9</title>
<g id="a_Node000009"><a xlink:href="class_properties_panel.html#aeb116e2e51099f618b5d284e492bc0e2" target="_top" xlink:title=" ">
<polygon fill="white" stroke="#666666" points="1370,-486 1242.25,-486 1242.25,-454 1370,-454 1370,-486"/>
<text xml:space="preserve" text-anchor="start" x="1250.25" y="-472.5" font-family="Helvetica,sans-Serif" font-size="10.00">PropertiesPanel::populate</text>
<text xml:space="preserve" text-anchor="middle" x="1306.12" y="-460.5" font-family="Helvetica,sans-Serif" font-size="10.00">RelationshipProperties</text>
</a>
</g>
</g>
<!-- Node1&#45;&gt;Node9 -->
<g id="edge46_Node000001_Node000009" class="edge">
<title>Node1&#45;&gt;Node9</title>
<g id="a_edge46_Node000001_Node000009"><a xlink:title=" ">
<path fill="none" stroke="#63b8ff" d="M1771.93,-174.46C1676.62,-235.06 1415.75,-400.93 1332.81,-453.67"/>
<polygon fill="#63b8ff" stroke="#63b8ff" points="1773.58,-177.56 1780.14,-169.24 1769.82,-171.65 1773.58,-177.56"/>
</a>
</g>
</g>
<!-- Node3 -->
<g id="Node000003" class="node">
<title>Node3</title>
<g id="a_Node000003"><a xlink:href="class_properties_panel.html#a050a4a9040c7aeefde9c1377d2e1909e" target="_top" xlink:title=" ">
<polygon fill="white" stroke="#666666" points="1533.75,-834 1406,-834 1406,-802 1533.75,-802 1533.75,-834"/>
<text xml:space="preserve" text-anchor="start" x="1414" y="-820.5" font-family="Helvetica,sans-Serif" font-size="10.00">PropertiesPanel::populate</text>
<text xml:space="preserve" text-anchor="middle" x="1469.88" y="-808.5" font-family="Helvetica,sans-Serif" font-size="10.00">AttributeList</text>
</a>
</g>
</g>
<!-- Node2&#45;&gt;Node3 -->
<g id="edge2_Node000002_Node000003" class="edge">
<title>Node2&#45;&gt;Node3</title>
<g id="a_edge2_Node000002_Node000003"><a xlink:title=" ">
<path fill="none" stroke="#63b8ff" d="M1565,-773.51C1541.63,-782.61 1516.74,-793.09 1498.43,-801.7"/>
<polygon fill="#63b8ff" stroke="#63b8ff" points="1566.11,-776.83 1574.19,-769.98 1563.6,-770.3 1566.11,-776.83"/>
</a>
</g>
</g>
<!-- Node5 -->
<g id="Node000005" class="node">
<title>Node5</title>
<g id="a_Node000005"><a xlink:href="class_properties_panel.html#a037586f897062f3915a123b9f2a82b91" target="_top" xlink:title=" ">
<polygon fill="white" stroke="#666666" points="1206.25,-746 1078.5,-746 1078.5,-714 1206.25,-714 1206.25,-746"/>
<text xml:space="preserve" text-anchor="start" x="1086.5" y="-732.5" font-family="Helvetica,sans-Serif" font-size="10.00">PropertiesPanel::populate</text>
<text xml:space="preserve" text-anchor="middle" x="1142.38" y="-720.5" font-family="Helvetica,sans-Serif" font-size="10.00">ForElement</text>
</a>
</g>
</g>
<!-- Node2&#45;&gt;Node5 -->
<g id="edge45_Node000002_Node000005" class="edge">
<title>Node2&#45;&gt;Node5</title>
<g id="a_edge45_Node000002_Node000005"><a xlink:title=" ">
<path fill="none" stroke="#63b8ff" d="M1558.05,-749.49C1461.95,-744.98 1296.54,-737.2 1206.41,-732.96"/>
<polygon fill="#63b8ff" stroke="#63b8ff" points="1557.75,-752.98 1567.9,-749.96 1558.08,-745.99 1557.75,-752.98"/>
</a>
</g>
</g>
<!-- Node3&#45;&gt;Node2 -->
<g id="edge3_Node000003_Node000002" class="edge">
<title>Node3&#45;&gt;Node2</title>
<g id="a_edge3_Node000003_Node000002"><a xlink:title=" ">
<path fill="none" stroke="#63b8ff" d="M1538.34,-797.56C1561.65,-788.48 1586.49,-778.02 1604.82,-769.42"/>
<polygon fill="#63b8ff" stroke="#63b8ff" points="1537.26,-794.22 1529.18,-801.07 1539.77,-800.76 1537.26,-794.22"/>
</a>
</g>
</g>
<!-- Node4 -->
<g id="Node000004" class="node">
<title>Node4</title>
<g id="a_Node000004"><a xlink:href="class_properties_panel.html#a6a4344308af5b2c993bc25981529239c" target="_top" xlink:title=" ">
<polygon fill="white" stroke="#666666" points="479.25,-828 351.5,-828 351.5,-796 479.25,-796 479.25,-828"/>
<text xml:space="preserve" text-anchor="start" x="359.5" y="-814.5" font-family="Helvetica,sans-Serif" font-size="10.00">PropertiesPanel::populate</text>
<text xml:space="preserve" text-anchor="middle" x="415.38" y="-802.5" font-family="Helvetica,sans-Serif" font-size="10.00">EntityProperties</text>
</a>
</g>
</g>
<!-- Node3&#45;&gt;Node4 -->
<g id="edge4_Node000003_Node000004" class="edge">
<title>Node3&#45;&gt;Node4</title>
<g id="a_edge4_Node000003_Node000004"><a xlink:title=" ">
<path fill="none" stroke="#63b8ff" d="M1417.36,-838.29C1402.27,-843.66 1385.63,-849.06 1370,-853 1271.17,-877.89 1245.29,-888 1143.38,-888 1143.38,-888 1143.38,-888 806.75,-888 683.16,-888 541.54,-850.84 467.54,-828.49"/>
<polygon fill="#63b8ff" stroke="#63b8ff" points="1418.41,-841.63 1426.61,-834.91 1416.02,-835.05 1418.41,-841.63"/>
</a>
</g>
</g>
<!-- Node3&#45;&gt;Node9 -->
<g id="edge44_Node000003_Node000009" class="edge">
<title>Node3&#45;&gt;Node9</title>
<g id="a_edge44_Node000003_Node000009"><a xlink:title=" ">
<path fill="none" stroke="#63b8ff" d="M1456.47,-791.31C1424.57,-722.68 1340.4,-541.6 1314.69,-486.28"/>
<polygon fill="#63b8ff" stroke="#63b8ff" points="1453.26,-792.72 1460.65,-800.31 1459.61,-789.77 1453.26,-792.72"/>
</a>
</g>
</g>
<!-- Node4&#45;&gt;Node5 -->
<g id="edge5_Node000004_Node000005" class="edge">
<title>Node4&#45;&gt;Node5</title>
<g id="a_edge5_Node000004_Node000005"><a xlink:title=" ">
<path fill="none" stroke="#63b8ff" d="M490.8,-803.58C633.83,-787.41 944.72,-752.24 1078.3,-737.13"/>
<polygon fill="#63b8ff" stroke="#63b8ff" points="490.6,-800.08 481.06,-804.68 491.39,-807.04 490.6,-800.08"/>
</a>
</g>
</g>
<!-- Node6 -->
<g id="Node000006" class="node">
<title>Node6</title>
<g id="a_Node000006"><a xlink:href="class_properties_panel.html#a139ae0158b486c6004e15e0ddf36f319" target="_top" xlink:title=" ">
<polygon fill="white" stroke="#666666" points="1042.5,-561 921.5,-561 921.5,-541 1042.5,-541 1042.5,-561"/>
<text xml:space="preserve" text-anchor="middle" x="982" y="-547.5" font-family="Helvetica,sans-Serif" font-size="10.00">PropertiesPanel::refresh</text>
</a>
</g>
</g>
<!-- Node5&#45;&gt;Node6 -->
<g id="edge6_Node000005_Node000006" class="edge">
<title>Node5&#45;&gt;Node6</title>
<g id="a_edge6_Node000005_Node000006"><a xlink:title=" ">
<path fill="none" stroke="#63b8ff" d="M1119.45,-705.22C1084.27,-665.46 1016.71,-589.1 992.18,-561.38"/>
<polygon fill="#63b8ff" stroke="#63b8ff" points="1116.79,-707.5 1126.04,-712.67 1122.03,-702.86 1116.79,-707.5"/>
</a>
</g>
</g>
<!-- Node7 -->
<g id="Node000007" class="node">
<title>Node7</title>
<g id="a_Node000007"><a xlink:href="class_properties_panel.html#a55ae5c02e7d75c7bdc26281a148e8c5a" target="_top" xlink:title=" ">
<polygon fill="white" stroke="#666666" points="885.5,-708 730,-708 730,-676 885.5,-676 885.5,-708"/>
<text xml:space="preserve" text-anchor="start" x="738" y="-694.5" font-family="Helvetica,sans-Serif" font-size="10.00">PropertiesPanel::onAddAttribute</text>
<text xml:space="preserve" text-anchor="middle" x="807.75" y="-682.5" font-family="Helvetica,sans-Serif" font-size="10.00">OnTreeClicked</text>
</a>
</g>
</g>
<!-- Node6&#45;&gt;Node7 -->
<g id="edge7_Node000006_Node000007" class="edge">
<title>Node6&#45;&gt;Node7</title>
<g id="a_edge7_Node000006_Node000007"><a xlink:title=" ">
<path fill="none" stroke="#63b8ff" d="M969.46,-571.15C953.69,-596.97 923.03,-641.41 885.5,-667 880.75,-670.24 875.56,-673.08 870.18,-675.57"/>
<polygon fill="#63b8ff" stroke="#63b8ff" points="972.42,-573.03 974.51,-562.64 966.4,-569.46 972.42,-573.03"/>
</a>
</g>
</g>
<!-- Node10 -->
<g id="Node000010" class="node">
<title>Node10</title>
<g id="a_Node000010"><a xlink:href="class_properties_panel.html#a2800a2c7575a5fad6d923d9b64d982f8" target="_top" xlink:title=" ">
<polygon fill="white" stroke="#666666" points="480.38,-218 350.38,-218 350.38,-186 480.38,-186 480.38,-218"/>
<text xml:space="preserve" text-anchor="start" x="358.38" y="-204.5" font-family="Helvetica,sans-Serif" font-size="10.00">PropertiesPanel::onCheck</text>
<text xml:space="preserve" text-anchor="middle" x="415.38" y="-192.5" font-family="Helvetica,sans-Serif" font-size="10.00">BoxChanged</text>
</a>
</g>
</g>
<!-- Node6&#45;&gt;Node10 -->
<g id="edge14_Node000006_Node000010" class="edge">
<title>Node6&#45;&gt;Node10</title>
<g id="a_edge14_Node000006_Node000010"><a xlink:title=" ">
<path fill="none" stroke="#63b8ff" d="M976.65,-529.79C966.93,-486.81 939.9,-388.15 885.5,-325 820.4,-249.43 789.72,-236.04 694,-208 623.21,-187.26 537.87,-189.17 480.66,-194.06"/>
<polygon fill="#63b8ff" stroke="#63b8ff" points="973.18,-530.29 978.72,-539.33 980.02,-528.81 973.18,-530.29"/>
</a>
</g>
</g>
<!-- Node12 -->
<g id="Node000012" class="node">
<title>Node12</title>
<g id="a_Node000012"><a xlink:href="class_properties_panel.html#aec82450a3daeb2614c2321e37897f1dd" target="_top" xlink:title=" ">
<polygon fill="white" stroke="#666666" points="481.88,-413 348.88,-413 348.88,-381 481.88,-381 481.88,-413"/>
<text xml:space="preserve" text-anchor="start" x="356.88" y="-399.5" font-family="Helvetica,sans-Serif" font-size="10.00">PropertiesPanel::onCombo</text>
<text xml:space="preserve" text-anchor="middle" x="415.38" y="-387.5" font-family="Helvetica,sans-Serif" font-size="10.00">BoxChanged</text>
</a>
</g>
</g>
<!-- Node6&#45;&gt;Node12 -->
<g id="edge18_Node000006_Node000012" class="edge">
<title>Node6&#45;&gt;Node12</title>
<g id="a_edge18_Node000006_Node000012"><a xlink:title=" ">
<path fill="none" stroke="#63b8ff" d="M909.93,-540.08C818.27,-524.84 654.68,-493.69 520.5,-447 494.36,-437.9 466.15,-424.09 445.69,-413.28"/>
<polygon fill="#63b8ff" stroke="#63b8ff" points="909.36,-543.53 919.8,-541.7 910.5,-536.62 909.36,-543.53"/>
</a>
</g>
</g>
<!-- Node15 -->
<g id="Node000015" class="node">
<title>Node15</title>
<g id="a_Node000015"><a xlink:href="class_properties_panel.html#aec8130201106284c02f21903b516554d" target="_top" xlink:title=" ">
<polygon fill="white" stroke="#666666" points="675.62,-136 538.88,-136 538.88,-104 675.62,-104 675.62,-136"/>
<text xml:space="preserve" text-anchor="start" x="546.88" y="-122.5" font-family="Helvetica,sans-Serif" font-size="10.00">PropertiesPanel::onLineEdit</text>
<text xml:space="preserve" text-anchor="middle" x="607.25" y="-110.5" font-family="Helvetica,sans-Serif" font-size="10.00">Changed</text>
</a>
</g>
</g>
<!-- Node6&#45;&gt;Node15 -->
<g id="edge23_Node000006_Node000015" class="edge">
<title>Node6&#45;&gt;Node15</title>
<g id="a_edge23_Node000006_Node000015"><a xlink:title=" ">
<path fill="none" stroke="#63b8ff" d="M978.53,-529.62C969.79,-457.64 937.97,-225.9 885.5,-176 829.82,-123.04 738.6,-113.9 676.11,-114.8"/>
<polygon fill="#63b8ff" stroke="#63b8ff" points="975.02,-529.76 979.68,-539.28 981.97,-528.93 975.02,-529.76"/>
</a>
</g>
</g>
<!-- Node17 -->
<g id="Node000017" class="node">
<title>Node17</title>
<g id="a_Node000017"><a xlink:href="class_properties_panel.html#a3cdc065abcd2f9e59558903073c0f23f" target="_top" xlink:title=" ">
<polygon fill="white" stroke="#666666" points="484.5,-547 346.25,-547 346.25,-515 484.5,-515 484.5,-547"/>
<text xml:space="preserve" text-anchor="start" x="354.25" y="-533.5" font-family="Helvetica,sans-Serif" font-size="10.00">PropertiesPanel::onProperty</text>
<text xml:space="preserve" text-anchor="middle" x="415.38" y="-521.5" font-family="Helvetica,sans-Serif" font-size="10.00">ValueChanged</text>
</a>
</g>
</g>
<!-- Node6&#45;&gt;Node17 -->
<g id="edge26_Node000006_Node000017" class="edge">
<title>Node6&#45;&gt;Node17</title>
<g id="a_edge26_Node000006_Node000017"><a xlink:title=" ">
<path fill="none" stroke="#63b8ff" d="M909.88,-543.82C800.54,-537.14 592.53,-529.79 484.82,-528.83"/>
<polygon fill="#63b8ff" stroke="#63b8ff" points="909.4,-547.29 919.6,-544.43 909.84,-540.31 909.4,-547.29"/>
</a>
</g>
</g>
<!-- Node19 -->
<g id="Node000019" class="node">
<title>Node19</title>
<g id="a_Node000019"><a xlink:href="class_properties_panel.html#a8a2ec0bcba44f3bbd0245d3a53ff49f7" target="_top" xlink:title=" ">
<polygon fill="white" stroke="#666666" points="876.88,-658 738.62,-658 738.62,-626 876.88,-626 876.88,-658"/>
<text xml:space="preserve" text-anchor="start" x="746.62" y="-644.5" font-family="Helvetica,sans-Serif" font-size="10.00">PropertiesPanel::onRemove</text>
<text xml:space="preserve" text-anchor="middle" x="807.75" y="-632.5" font-family="Helvetica,sans-Serif" font-size="10.00">AttributeOnTreeClicked</text>
</a>
</g>
</g>
<!-- Node6&#45;&gt;Node19 -->
<g id="edge29_Node000006_Node000019" class="edge">
<title>Node6&#45;&gt;Node19</title>
<g id="a_edge29_Node000006_Node000019"><a xlink:title=" ">
<path fill="none" stroke="#63b8ff" d="M957.36,-567.95C938.49,-581.02 911.07,-599 885.5,-612 875.94,-616.86 865.39,-621.45 855.25,-625.51"/>
<polygon fill="#63b8ff" stroke="#63b8ff" points="959.23,-570.91 965.4,-562.31 955.21,-565.18 959.23,-570.91"/>
</a>
</g>
</g>
<!-- Node20 -->
<g id="Node000020" class="node">
<title>Node20</title>
<g id="a_Node000020"><a xlink:href="class_properties_panel.html#a79618c5c820a40931c085d54be70bd34" target="_top" xlink:title=" ">
<polygon fill="white" stroke="#666666" points="870.5,-366 745,-366 745,-334 870.5,-334 870.5,-366"/>
<text xml:space="preserve" text-anchor="start" x="753" y="-352.5" font-family="Helvetica,sans-Serif" font-size="10.00">PropertiesPanel::updates</text>
<text xml:space="preserve" text-anchor="middle" x="807.75" y="-340.5" font-family="Helvetica,sans-Serif" font-size="10.00">AfterChangingProperty</text>
</a>
</g>
</g>
<!-- Node6&#45;&gt;Node20 -->
<g id="edge31_Node000006_Node000020" class="edge">
<title>Node6&#45;&gt;Node20</title>
<g id="a_edge31_Node000006_Node000020"><a xlink:title=" ">
<path fill="none" stroke="#63b8ff" d="M965.06,-532.4C931.6,-493.35 854.51,-403.4 822.78,-366.37"/>
<polygon fill="#63b8ff" stroke="#63b8ff" points="962.07,-534.29 971.24,-539.61 967.39,-529.74 962.07,-534.29"/>
</a>
</g>
</g>
<!-- Node8 -->
<g id="Node000008" class="node">
<title>Node8</title>
<g id="a_Node000008"><a xlink:href="class_properties_panel.html#a90cca2a241daa84841ee3e90d7768c8f" target="_top" xlink:title=" ">
<polygon fill="white" stroke="#666666" points="680.5,-768 534,-768 534,-736 680.5,-736 680.5,-768"/>
<text xml:space="preserve" text-anchor="start" x="542" y="-754.5" font-family="Helvetica,sans-Serif" font-size="10.00">PropertiesPanel::createButton</text>
<text xml:space="preserve" text-anchor="middle" x="607.25" y="-742.5" font-family="Helvetica,sans-Serif" font-size="10.00">PropertyItem</text>
</a>
</g>
</g>
<!-- Node7&#45;&gt;Node8 -->
<g id="edge8_Node000007_Node000008" class="edge">
<title>Node7&#45;&gt;Node8</title>
<g id="a_edge8_Node000007_Node000008"><a xlink:title=" ">
<path fill="none" stroke="#63b8ff" d="M741.53,-711.71C715.99,-719.43 687.02,-728.19 662.63,-735.56"/>
<polygon fill="#63b8ff" stroke="#63b8ff" points="742.24,-715.16 750.8,-708.91 740.21,-708.46 742.24,-715.16"/>
</a>
</g>
</g>
<!-- Node8&#45;&gt;Node2 -->
<g id="edge10_Node000008_Node000002" class="edge">
<title>Node8&#45;&gt;Node2</title>
<g id="a_edge10_Node000008_Node000002"><a xlink:title=" ">
<path fill="none" stroke="#63b8ff" d="M691.99,-759.77C767.48,-766.1 881.57,-774 981,-774 1307.12,-774 1307.12,-774 1307.12,-774 1398.44,-774 1503.86,-765.67 1569.39,-759.5"/>
<polygon fill="#63b8ff" stroke="#63b8ff" points="692.45,-756.3 682.19,-758.94 691.85,-763.27 692.45,-756.3"/>
</a>
</g>
</g>
<!-- Node8&#45;&gt;Node3 -->
<g id="edge9_Node000008_Node000003" class="edge">
<title>Node8&#45;&gt;Node3</title>
<g id="a_edge9_Node000008_Node000003"><a xlink:title=" ">
<path fill="none" stroke="#63b8ff" d="M655.17,-772.66C724.83,-801.42 860.39,-850 981,-850 1143.38,-850 1143.38,-850 1143.38,-850 1234.94,-850 1340.3,-837.3 1405.74,-827.91"/>
<polygon fill="#63b8ff" stroke="#63b8ff" points="656.94,-769.61 646.37,-768.99 654.24,-776.07 656.94,-769.61"/>
</a>
</g>
</g>
<!-- Node8&#45;&gt;Node4 -->
<g id="edge11_Node000008_Node000004" class="edge">
<title>Node8&#45;&gt;Node4</title>
<g id="a_edge11_Node000008_Node000004"><a xlink:title=" ">
<path fill="none" stroke="#63b8ff" d="M543.21,-771.92C518.94,-779.59 491.51,-788.26 468.39,-795.56"/>
<polygon fill="#63b8ff" stroke="#63b8ff" points="544.19,-775.28 552.67,-768.93 542.08,-768.61 544.19,-775.28"/>
</a>
</g>
</g>
<!-- Node8&#45;&gt;Node9 -->
<g id="edge12_Node000008_Node000009" class="edge">
<title>Node8&#45;&gt;Node9</title>
<g id="a_edge12_Node000008_Node000009"><a xlink:title=" ">
<path fill="none" stroke="#63b8ff" d="M692.29,-750.21C748.32,-746.9 822.89,-738.36 885.5,-717 1052.31,-660.09 1225.76,-532.04 1284.38,-486.48"/>
<polygon fill="#63b8ff" stroke="#63b8ff" points="692.29,-746.7 682.5,-750.74 692.67,-753.69 692.29,-746.7"/>
</a>
</g>
</g>
<!-- Node9&#45;&gt;Node5 -->
<g id="edge13_Node000009_Node000005" class="edge">
<title>Node9&#45;&gt;Node5</title>
<g id="a_edge13_Node000009_Node000005"><a xlink:title=" ">
<path fill="none" stroke="#63b8ff" d="M1299.91,-497.5C1289.7,-544.54 1262.92,-641.06 1206.25,-700 1201.14,-705.32 1194.89,-709.81 1188.34,-713.56"/>
<polygon fill="#63b8ff" stroke="#63b8ff" points="1303.3,-498.38 1301.9,-487.88 1296.45,-496.96 1303.3,-498.38"/>
</a>
</g>
</g>
<!-- Node11 -->
<g id="Node000011" class="node">
<title>Node11</title>
<g id="a_Node000011"><a xlink:href="class_properties_panel.html#acfb41226221624e46767835caeea8abc" target="_top" xlink:title=" ">
<polygon fill="white" stroke="#666666" points="310.25,-54 163.75,-54 163.75,-22 310.25,-22 310.25,-54"/>
<text xml:space="preserve" text-anchor="start" x="171.75" y="-40.5" font-family="Helvetica,sans-Serif" font-size="10.00">PropertiesPanel::createCheck</text>
<text xml:space="preserve" text-anchor="middle" x="237" y="-28.5" font-family="Helvetica,sans-Serif" font-size="10.00">BoxPropertyItem</text>
</a>
</g>
</g>
<!-- Node10&#45;&gt;Node11 -->
<g id="edge15_Node000010_Node000011" class="edge">
<title>Node10&#45;&gt;Node11</title>
<g id="a_edge15_Node000010_Node000011"><a xlink:title=" ">
<path fill="none" stroke="#63b8ff" d="M388.66,-178.09C352.28,-144.26 286.73,-83.31 255.49,-54.26"/>
<polygon fill="#63b8ff" stroke="#63b8ff" points="386,-180.4 395.71,-184.64 390.77,-175.27 386,-180.4"/>
</a>
</g>
</g>
<!-- Node11&#45;&gt;Node2 -->
<g id="edge16_Node000011_Node000002" class="edge">
<title>Node11&#45;&gt;Node2</title>
<g id="a_edge16_Node000011_Node000002"><a xlink:title=" ">
<path fill="none" stroke="#63b8ff" d="M321.6,-24.42C396.08,-13.51 508.13,0 606.25,0 983,0 983,0 983,0 1086.22,0 1123.95,-1.7 1206.25,-64 1461.7,-257.35 1600.09,-652 1627.53,-736.74"/>
<polygon fill="#63b8ff" stroke="#63b8ff" points="321.31,-20.93 311.94,-25.86 322.34,-27.85 321.31,-20.93"/>
</a>
</g>
</g>
<!-- Node11&#45;&gt;Node9 -->
<g id="edge17_Node000011_Node000009" class="edge">
<title>Node11&#45;&gt;Node9</title>
<g id="a_edge17_Node000011_Node000009"><a xlink:title=" ">
<path fill="none" stroke="#63b8ff" d="M321.86,-38C396.5,-38 508.65,-38 606.25,-38 983,-38 983,-38 983,-38 1194.43,-38 1283.61,-374.68 1301.6,-453.59"/>
<polygon fill="#63b8ff" stroke="#63b8ff" points="322.18,-34.5 312.18,-38 322.18,-41.5 322.18,-34.5"/>
</a>
</g>
</g>
<!-- Node12&#45;&gt;Node1 -->
<g id="edge19_Node000012_Node000001" class="edge">
<title>Node12&#45;&gt;Node1</title>
<g id="a_edge19_Node000012_Node000001"><a xlink:title=" ">
<path fill="none" stroke="#63b8ff" d="M429,-370.64C445.53,-339.07 477.52,-286.97 520.5,-259 758.01,-104.44 858.01,-114 1141.38,-114 1470.88,-114 1470.88,-114 1470.88,-114 1561.53,-114 1665.06,-127.8 1733.04,-138.76"/>
<polygon fill="#63b8ff" stroke="#63b8ff" points="425.9,-369.02 424.5,-379.53 432.14,-372.19 425.9,-369.02"/>
</a>
</g>
</g>
<!-- Node13 -->
<g id="Node000013" class="node">
<title>Node13</title>
<g id="a_Node000013"><a xlink:href="class_properties_panel.html#a32c2dab00c58ffdcb6a1e3cd829d03c8" target="_top" xlink:title=" ">
<polygon fill="white" stroke="#666666" points="305.38,-458 168.62,-458 168.62,-426 305.38,-426 305.38,-458"/>
<text xml:space="preserve" text-anchor="start" x="176.62" y="-444.5" font-family="Helvetica,sans-Serif" font-size="10.00">PropertiesPanel::createIcon</text>
<text xml:space="preserve" text-anchor="middle" x="237" y="-432.5" font-family="Helvetica,sans-Serif" font-size="10.00">ComboBoxPropertyItem</text>
</a>
</g>
</g>
<!-- Node12&#45;&gt;Node13 -->
<g id="edge20_Node000012_Node000013" class="edge">
<title>Node12&#45;&gt;Node13</title>
<g id="a_edge20_Node000012_Node000013"><a xlink:title=" ">
<path fill="none" stroke="#63b8ff" d="M339.11,-416.2C326.9,-419.32 314.35,-422.52 302.42,-425.56"/>
<polygon fill="#63b8ff" stroke="#63b8ff" points="339.91,-419.61 348.73,-413.75 338.18,-412.83 339.91,-419.61"/>
</a>
</g>
</g>
<!-- Node14 -->
<g id="Node000014" class="node">
<title>Node14</title>
<g id="a_Node000014"><a xlink:href="class_properties_panel.html#adbc7f8deb3a687706dc44ebbd7e39d9d" target="_top" xlink:title=" ">
<polygon fill="white" stroke="#666666" points="127.75,-536 0,-536 0,-504 127.75,-504 127.75,-536"/>
<text xml:space="preserve" text-anchor="start" x="8" y="-522.5" font-family="Helvetica,sans-Serif" font-size="10.00">PropertiesPanel::populate</text>
<text xml:space="preserve" text-anchor="middle" x="63.88" y="-510.5" font-family="Helvetica,sans-Serif" font-size="10.00">ForConnection</text>
</a>
</g>
</g>
<!-- Node13&#45;&gt;Node14 -->
<g id="edge21_Node000013_Node000014" class="edge">
<title>Node13&#45;&gt;Node14</title>
<g id="a_edge21_Node000013_Node000014"><a xlink:title=" ">
<path fill="none" stroke="#63b8ff" d="M189.82,-463.05C161.91,-475.77 126.86,-491.74 101,-503.54"/>
<polygon fill="#63b8ff" stroke="#63b8ff" points="191.1,-466.31 198.75,-458.98 188.2,-459.94 191.1,-466.31"/>
</a>
</g>
</g>
<!-- Node14&#45;&gt;Node6 -->
<g id="edge22_Node000014_Node000006" class="edge">
<title>Node14&#45;&gt;Node6</title>
<g id="a_edge22_Node000014_Node000006"><a xlink:title=" ">
<path fill="none" stroke="#63b8ff" d="M115.12,-540.31C130.53,-545.99 147.67,-551.76 163.75,-556 272.97,-584.77 301.43,-598 414.38,-598 608.25,-598 608.25,-598 608.25,-598 724.19,-598 858.83,-575.34 930.31,-561.49"/>
<polygon fill="#63b8ff" stroke="#63b8ff" points="116.76,-537.19 106.17,-536.94 114.3,-543.74 116.76,-537.19"/>
</a>
</g>
</g>
<!-- Node16 -->
<g id="Node000016" class="node">
<title>Node16</title>
<g id="a_Node000016"><a xlink:href="class_properties_panel.html#a7bc224323f9c626842fdb6a89205c9bc" target="_top" xlink:title=" ">
<polygon fill="white" stroke="#666666" points="483.38,-117 347.38,-117 347.38,-85 483.38,-85 483.38,-117"/>
<text xml:space="preserve" text-anchor="start" x="355.38" y="-103.5" font-family="Helvetica,sans-Serif" font-size="10.00">PropertiesPanel::createLine</text>
<text xml:space="preserve" text-anchor="middle" x="415.38" y="-91.5" font-family="Helvetica,sans-Serif" font-size="10.00">EditPropertyItem</text>
</a>
</g>
</g>
<!-- Node15&#45;&gt;Node16 -->
<g id="edge24_Node000015_Node000016" class="edge">
<title>Node15&#45;&gt;Node16</title>
<g id="a_edge24_Node000015_Node000016"><a xlink:title=" ">
<path fill="none" stroke="#63b8ff" d="M527.09,-112.08C512.69,-110.64 497.79,-109.15 483.77,-107.74"/>
<polygon fill="#63b8ff" stroke="#63b8ff" points="526.7,-115.56 537,-113.07 527.4,-108.59 526.7,-115.56"/>
</a>
</g>
</g>
<!-- Node16&#45;&gt;Node9 -->
<g id="edge25_Node000016_Node000009" class="edge">
<title>Node16&#45;&gt;Node9</title>
<g id="a_edge25_Node000016_Node000009"><a xlink:title=" ">
<path fill="none" stroke="#63b8ff" d="M494.77,-86.17C590.99,-71.67 757.16,-58.84 885.5,-113 1077.17,-193.88 1246.05,-395.02 1292.51,-453.69"/>
<polygon fill="#63b8ff" stroke="#63b8ff" points="494.51,-82.67 485.17,-87.66 495.59,-89.58 494.51,-82.67"/>
</a>
</g>
</g>
<!-- Node17&#45;&gt;Node6 -->
<g id="edge28_Node000017_Node000006" class="edge">
<title>Node17&#45;&gt;Node6</title>
<g id="a_edge28_Node000017_Node000006"><a xlink:title=" ">
<path fill="none" stroke="#63b8ff" d="M496.28,-538.71C610.76,-545.42 818.9,-552.62 921.11,-553.23"/>
<polygon fill="#63b8ff" stroke="#63b8ff" points="496.52,-535.22 486.33,-538.11 496.1,-542.2 496.52,-535.22"/>
</a>
</g>
</g>
<!-- Node18 -->
<g id="Node000018" class="node">
<title>Node18</title>
<g id="a_Node000018"><a xlink:href="class_properties_panel.html#a9866823e02faefceaae94fc0b0537707" target="_top" xlink:title=" ">
<polygon fill="white" stroke="#666666" points="304.62,-547 169.38,-547 169.38,-515 304.62,-515 304.62,-547"/>
<text xml:space="preserve" text-anchor="start" x="177.38" y="-533.5" font-family="Helvetica,sans-Serif" font-size="10.00">PropertiesPanel::Properties</text>
<text xml:space="preserve" text-anchor="middle" x="237" y="-521.5" font-family="Helvetica,sans-Serif" font-size="10.00">Panel</text>
</a>
</g>
</g>
<!-- Node17&#45;&gt;Node18 -->
<g id="edge27_Node000017_Node000018" class="edge">
<title>Node17&#45;&gt;Node18</title>
<g id="a_edge27_Node000017_Node000018"><a xlink:title=" ">
<path fill="none" stroke="#63b8ff" d="M334.45,-531C324.59,-531 314.59,-531 304.96,-531"/>
<polygon fill="#63b8ff" stroke="#63b8ff" points="334.42,-534.5 344.42,-531 334.42,-527.5 334.42,-534.5"/>
</a>
</g>
</g>
<!-- Node19&#45;&gt;Node8 -->
<g id="edge30_Node000019_Node000008" class="edge">
<title>Node19&#45;&gt;Node8</title>
<g id="a_edge30_Node000019_Node000008"><a xlink:title=" ">
<path fill="none" stroke="#63b8ff" d="M739.4,-662.65C736.19,-664.04 733.04,-665.49 730,-667 691.24,-686.31 650.92,-716.88 627.78,-735.62"/>
<polygon fill="#63b8ff" stroke="#63b8ff" points="740.46,-666 748.42,-659.01 737.84,-659.51 740.46,-666"/>
</a>
</g>
</g>
<!-- Node20&#45;&gt;Node10 -->
<g id="edge40_Node000020_Node000010" class="edge">
<title>Node20&#45;&gt;Node10</title>
<g id="a_edge40_Node000020_Node000010"><a xlink:title=" ">
<path fill="none" stroke="#63b8ff" d="M783.56,-325.61C762.25,-304.69 728.79,-275.41 694,-259 625.47,-226.67 538.92,-212.61 480.84,-206.54"/>
<polygon fill="#63b8ff" stroke="#63b8ff" points="781.03,-328.03 790.57,-332.65 785.99,-323.09 781.03,-328.03"/>
</a>
</g>
</g>
<!-- Node20&#45;&gt;Node12 -->
<g id="edge41_Node000020_Node000012" class="edge">
<title>Node20&#45;&gt;Node12</title>
<g id="a_edge41_Node000020_Node000012"><a xlink:title=" ">
<path fill="none" stroke="#63b8ff" d="M733.38,-339.95C674.96,-334.16 591.48,-330.84 520.5,-347 492.15,-353.45 462.51,-368.64 442.14,-380.59"/>
<polygon fill="#63b8ff" stroke="#63b8ff" points="732.91,-343.42 743.22,-340.98 733.64,-336.46 732.91,-343.42"/>
</a>
</g>
</g>
<!-- Node20&#45;&gt;Node15 -->
<g id="edge42_Node000020_Node000015" class="edge">
<title>Node20&#45;&gt;Node15</title>
<g id="a_edge42_Node000020_Node000015"><a xlink:title=" ">
<path fill="none" stroke="#63b8ff" d="M792.02,-324.16C772.24,-290.68 734.82,-231.46 694,-188 675.4,-168.2 650.82,-149.3 632.75,-136.48"/>
<polygon fill="#63b8ff" stroke="#63b8ff" points="788.75,-325.5 796.82,-332.37 794.8,-321.97 788.75,-325.5"/>
</a>
</g>
</g>
<!-- Node20&#45;&gt;Node17 -->
<g id="edge43_Node000020_Node000017" class="edge">
<title>Node20&#45;&gt;Node17</title>
<g id="a_edge43_Node000020_Node000017"><a xlink:title=" ">
<path fill="none" stroke="#63b8ff" d="M784.12,-374.6C762.79,-396.45 728.97,-427.8 694,-447 627.46,-483.54 543.01,-506.17 484.83,-518.61"/>
<polygon fill="#63b8ff" stroke="#63b8ff" points="786.49,-377.19 790.88,-367.55 781.43,-372.35 786.49,-377.19"/>
</a>
</g>
</g>
<!-- Node21 -->
<g id="Node000021" class="node">
<title>Node21</title>
<g id="a_Node000021"><a xlink:href="class_properties_panel.html#a74d22cd1ca119cda9cc4ca00b853e88d" target="_top" xlink:title=" ">
<polygon fill="white" stroke="#666666" points="685.38,-438 529.12,-438 529.12,-406 685.38,-406 685.38,-438"/>
<text xml:space="preserve" text-anchor="start" x="537.12" y="-424.5" font-family="Helvetica,sans-Serif" font-size="10.00">PropertiesPanel::handleAttribute</text>
<text xml:space="preserve" text-anchor="middle" x="607.25" y="-412.5" font-family="Helvetica,sans-Serif" font-size="10.00">PropertyChange</text>
</a>
</g>
</g>
<!-- Node20&#45;&gt;Node21 -->
<g id="edge32_Node000020_Node000021" class="edge">
<title>Node20&#45;&gt;Node21</title>
<g id="a_edge32_Node000020_Node000021"><a xlink:title=" ">
<path fill="none" stroke="#63b8ff" d="M759.9,-370.9C739.81,-379.51 715.95,-389.25 694,-397 685.52,-399.99 676.48,-402.91 667.57,-405.64"/>
<polygon fill="#63b8ff" stroke="#63b8ff" points="761.16,-374.17 768.95,-366.99 758.38,-367.75 761.16,-374.17"/>
</a>
</g>
</g>
<!-- Node22 -->
<g id="Node000022" class="node">
<title>Node22</title>
<g id="a_Node000022"><a xlink:href="class_properties_panel.html#aa82a2245c62f66554f277c64e643252c" target="_top" xlink:title=" ">
<polygon fill="white" stroke="#666666" points="694,-388 520.5,-388 520.5,-356 694,-356 694,-388"/>
<text xml:space="preserve" text-anchor="start" x="528.5" y="-374.5" font-family="Helvetica,sans-Serif" font-size="10.00">PropertiesPanel::handleRelationship</text>
<text xml:space="preserve" text-anchor="middle" x="607.25" y="-362.5" font-family="Helvetica,sans-Serif" font-size="10.00">EndCardinalityChange</text>
</a>
</g>
</g>
<!-- Node20&#45;&gt;Node22 -->
<g id="edge36_Node000020_Node000022" class="edge">
<title>Node20&#45;&gt;Node22</title>
<g id="a_edge36_Node000020_Node000022"><a xlink:title=" ">
<path fill="none" stroke="#63b8ff" d="M733.65,-358.1C720.79,-359.53 707.31,-361.02 694.14,-362.48"/>
<polygon fill="#63b8ff" stroke="#63b8ff" points="733.7,-361.62 743.26,-357.04 732.93,-354.66 733.7,-361.62"/>
</a>
</g>
</g>
<!-- Node23 -->
<g id="Node000023" class="node">
<title>Node23</title>
<g id="a_Node000023"><a xlink:href="class_properties_panel.html#ac2741a5b2cb859b07534b8f7c786359b" target="_top" xlink:title=" ">
<polygon fill="white" stroke="#666666" points="694,-300 520.5,-300 520.5,-268 694,-268 694,-300"/>
<text xml:space="preserve" text-anchor="start" x="528.5" y="-286.5" font-family="Helvetica,sans-Serif" font-size="10.00">PropertiesPanel::handleRelationship</text>
<text xml:space="preserve" text-anchor="middle" x="607.25" y="-274.5" font-family="Helvetica,sans-Serif" font-size="10.00">EndParticipationChange</text>
</a>
</g>
</g>
<!-- Node20&#45;&gt;Node23 -->
<g id="edge38_Node000020_Node000023" class="edge">
<title>Node20&#45;&gt;Node23</title>
<g id="a_edge38_Node000020_Node000023"><a xlink:title=" ">
<path fill="none" stroke="#63b8ff" d="M746.53,-329.98C718.05,-320.51 684.48,-309.34 657.54,-300.39"/>
<polygon fill="#63b8ff" stroke="#63b8ff" points="745.14,-333.2 755.74,-333.04 747.35,-326.56 745.14,-333.2"/>
</a>
</g>
</g>
<!-- Node21&#45;&gt;Node10 -->
<g id="edge33_Node000021_Node000010" class="edge">
<title>Node21&#45;&gt;Node10</title>
<g id="a_edge33_Node000021_Node000010"><a xlink:title=" ">
<path fill="none" stroke="#63b8ff" d="M524.05,-399.7C522.84,-398.83 521.65,-397.93 520.5,-397 460.62,-348.37 430.58,-255.89 420.44,-218.4"/>
<polygon fill="#63b8ff" stroke="#63b8ff" points="522.22,-402.68 532.58,-404.91 525.87,-396.71 522.22,-402.68"/>
</a>
</g>
</g>
<!-- Node21&#45;&gt;Node12 -->
<g id="edge34_Node000021_Node000012" class="edge">
<title>Node21&#45;&gt;Node12</title>
<g id="a_edge34_Node000021_Node000012"><a xlink:title=" ">
<path fill="none" stroke="#63b8ff" d="M517.41,-410.3C505.52,-408.74 493.49,-407.15 482.1,-405.65"/>
<polygon fill="#63b8ff" stroke="#63b8ff" points="516.87,-413.76 527.25,-411.6 517.79,-406.82 516.87,-413.76"/>
</a>
</g>
</g>
<!-- Node21&#45;&gt;Node17 -->
<g id="edge35_Node000021_Node000017" class="edge">
<title>Node21&#45;&gt;Node17</title>
<g id="a_edge35_Node000021_Node000017"><a xlink:title=" ">
<path fill="none" stroke="#63b8ff" d="M540.88,-442.45C533.86,-445.35 526.94,-448.54 520.5,-452 487.71,-469.61 454.2,-497.08 434.35,-514.55"/>
<polygon fill="#63b8ff" stroke="#63b8ff" points="541.74,-445.87 549.77,-438.95 539.18,-439.35 541.74,-445.87"/>
</a>
</g>
</g>
<!-- Node22&#45;&gt;Node12 -->
<g id="edge37_Node000022_Node000012" class="edge">
<title>Node22&#45;&gt;Node12</title>
<g id="a_edge37_Node000022_Node000012"><a xlink:title=" ">
<path fill="none" stroke="#63b8ff" d="M508.81,-384.83C499.81,-386.01 490.84,-387.2 482.22,-388.33"/>
<polygon fill="#63b8ff" stroke="#63b8ff" points="509.24,-388.3 518.7,-383.53 508.33,-381.36 509.24,-388.3"/>
</a>
</g>
</g>
<!-- Node23&#45;&gt;Node10 -->
<g id="edge39_Node000023_Node000010" class="edge">
<title>Node23&#45;&gt;Node10</title>
<g id="a_edge39_Node000023_Node000010"><a xlink:title=" ">
<path fill="none" stroke="#63b8ff" d="M557.77,-263.06C525.61,-249.17 484.01,-231.21 454.28,-218.37"/>
<polygon fill="#63b8ff" stroke="#63b8ff" points="556.32,-266.25 566.89,-267 559.1,-259.83 556.32,-266.25"/>
</a>
</g>
</g>
</g>
</svg>

<g id="navigator" transform="translate(0 0)" fill="#404254">
  <rect fill="#f2f5e9" fill-opacity="0.5" stroke="#606060" stroke-width=".5" x="0" y="0" width="60" height="60"/>
  <use id="zoomplus" xlink:href="#zoomPlus" x="17" y="9" onmousedown="handleZoom(evt,'in')"/>
  <use id="zoomminus" xlink:href="#zoomMin" x="42" y="9" onmousedown="handleZoom(evt,'out')"/>
  <use id="reset" xlink:href="#resetDef" x="30" y="36" onmousedown="handleReset()"/>
   <use id="arrowup" xlink:href="#arrowUp" x="0" y="0" onmousedown="handlePan(0,-1)"/>
  <use id="arrowright" xlink:href="#arrowRight" x="0" y="0" onmousedown="handlePan(1,0)"/>
  <use id="arrowdown" xlink:href="#arrowDown" x="0" y="0" onmousedown="handlePan(0,1)"/>
  <use id="arrowleft" xlink:href="#arrowLeft" x="0" y="0" onmousedown="handlePan(-1,0)"/>
</g>
<svg viewBox="0 0 15 15" width="100%" height="30px" preserveAspectRatio="xMaxYMin meet">
 <g id="arrow_out" transform="scale(0.3 0.3)">
  <a xlink:href="class_properties_panel_a8fd53ec3c9f711c3354483e8bb4d0b47_icgraph_org.svg" target="_base">
   <rect id="button" ry="5" rx="5" y="6" x="6" height="38" width="38"
        fill="#f2f5e9" fill-opacity="0.5" stroke="#606060" stroke-width="1.0"/>
   <path id="arrow"
     d="M 11.500037,31.436501 C 11.940474,20.09759 22.043105,11.32322 32.158766,21.979434 L 37.068811,17.246167 C 37.068811,17.246167 37.088388,32 37.088388,32 L 22.160133,31.978069 C 22.160133,31.978069 26.997745,27.140456 26.997745,27.140456 C 18.528582,18.264221 13.291696,25.230495 11.500037,31.436501 z"
     style="fill:#404040;"/>
  </a>
 </g>
</svg>

<style type='text/css'>
<![CDATA[
[data-mouse-over-selected='false'] { opacity: 0.7; }
[data-mouse-over-selected='true']  { opacity: 1.0; }
]]>
</style>
<script type="application/ecmascript"><![CDATA[
document.addEventListener('DOMContentLoaded', (event) => {
  highlightEdges();
  highlightAdjacentNodes();
});
]]></script>
</svg>
