<?xml version="1.0" encoding="UTF-8" standalone="no"?>
<!DOCTYPE svg PUBLIC "-//W3C//DTD SVG 1.1//EN"
 "http://www.w3.org/Graphics/SVG/1.1/DTD/svg11.dtd">
<!-- Generated by graphviz version 14.1.1 (20251213.1925)
 -->
<!-- Title: ConnectionLine::disconnectFromPoints Pages: 1 -->
<svg width="1058pt" height="201pt"
 viewBox="0.00 0.00 1058.00 201.00" xmlns="http://www.w3.org/2000/svg" xmlns:xlink="http://www.w3.org/1999/xlink">
<g id="graph0" class="graph" transform="scale(1 1) rotate(0) translate(4 197)">
<title>ConnectionLine::disconnectFromPoints</title>
<!-- Node1 -->
<g id="Node000001" class="node">
<title>Node1</title>
<g id="a_Node000001"><a xlink:title=" ">
<polygon fill="#999999" stroke="#666666" points="136.75,-85 0,-85 0,-53 136.75,-53 136.75,-85"/>
<text xml:space="preserve" text-anchor="start" x="8" y="-71.5" font-family="Helvetica,sans-Serif" font-size="10.00">ConnectionLine::disconnect</text>
<text xml:space="preserve" text-anchor="middle" x="68.38" y="-59.5" font-family="Helvetica,sans-Serif" font-size="10.00">FromPoints</text>
</a>
</g>
</g>
<!-- Node2 -->
<g id="Node000002" class="node">
<title>Node2</title>
<g id="a_Node000002"><a xlink:href="class_connection_line.html#a53c863c51a284a7a8e6b35bc34bd2d34" target="_top" xlink:title=" ">
<polygon fill="white" stroke="#666666" points="322.25,-114 172.75,-114 172.75,-82 322.25,-82 322.25,-114"/>
<text xml:space="preserve" text-anchor="start" x="180.75" y="-100.5" font-family="Helvetica,sans-Serif" font-size="10.00">ConnectionLine::onConnection</text>
<text xml:space="preserve" text-anchor="middle" x="247.5" y="-88.5" font-family="Helvetica,sans-Serif" font-size="10.00">PointChanged</text>
</a>
</g>
</g>
<!-- Node1&#45;&gt;Node2 -->
<g id="edge1_Node000001_Node000002" class="edge">
<title>Node1&#45;&gt;Node2</title>
<g id="a_edge1_Node000001_Node000002"><a xlink:title=" ">
<path fill="none" stroke="#63b8ff" d="M137.1,-80.09C144.93,-81.37 152.99,-82.69 161.02,-84.01"/>
<polygon fill="#63b8ff" stroke="#63b8ff" points="160.4,-87.45 170.83,-85.61 161.53,-80.54 160.4,-87.45"/>
</a>
</g>
</g>
<!-- Node6 -->
<g id="Node000006" class="node">
<title>Node6</title>
<g id="a_Node000006"><a xlink:href="class_connection_line.html#a4bce34a3f2fb1fd7145de2d9100c9173" target="_top" xlink:title=" ">
<polygon fill="white" stroke="#666666" points="1040.25,-95 904.25,-95 904.25,-63 1040.25,-63 1040.25,-95"/>
<text xml:space="preserve" text-anchor="start" x="912.25" y="-81.5" font-family="Helvetica,sans-Serif" font-size="10.00">ConnectionLine::onElement</text>
<text xml:space="preserve" text-anchor="middle" x="972.25" y="-69.5" font-family="Helvetica,sans-Serif" font-size="10.00">PositionChanged</text>
</a>
</g>
</g>
<!-- Node1&#45;&gt;Node6 -->
<g id="edge10_Node000001_Node000006" class="edge">
<title>Node1&#45;&gt;Node6</title>
<g id="a_edge10_Node000001_Node000006"><a xlink:title=" ">
<path fill="none" stroke="#63b8ff" d="M137.21,-60.49C208.8,-52.25 324.97,-41 425.62,-41 425.62,-41 425.62,-41 610.5,-41 708.09,-41 819.71,-54.92 892.63,-65.91"/>
<polygon fill="#63b8ff" stroke="#63b8ff" points="892.08,-69.37 902.49,-67.42 893.13,-62.45 892.08,-69.37"/>
</a>
</g>
</g>
<!-- Node7 -->
<g id="Node000007" class="node">
<title>Node7</title>
<g id="a_Node000007"><a xlink:href="class_basic_element.html#a02183bafd7c80f9f1f99a9b9f1631524" target="_top" xlink:title=" ">
<polygon fill="white" stroke="#666666" points="1050,-168 894.5,-168 894.5,-148 1050,-148 1050,-168"/>
<text xml:space="preserve" text-anchor="middle" x="972.25" y="-154.5" font-family="Helvetica,sans-Serif" font-size="10.00">BasicElement::positionChanged</text>
</a>
</g>
</g>
<!-- Node1&#45;&gt;Node7 -->
<g id="edge11_Node000001_Node000007" class="edge">
<title>Node1&#45;&gt;Node7</title>
<g id="a_edge11_Node000001_Node000007"><a xlink:title=" ">
<path fill="none" stroke="#63b8ff" d="M96.42,-85.47C154.48,-119.2 296.29,-193 425.62,-193 425.62,-193 425.62,-193 610.5,-193 708.01,-193 819.65,-180.18 892.59,-170.05"/>
<polygon fill="#63b8ff" stroke="#63b8ff" points="893.04,-173.52 902.46,-168.66 892.06,-166.59 893.04,-173.52"/>
</a>
</g>
</g>
<!-- Node8 -->
<g id="Node000008" class="node">
<title>Node8</title>
<g id="a_Node000008"><a xlink:href="class_connection_point.html#a851668ae19e97658f1818a40ea375f65" target="_top" xlink:title=" ">
<polygon fill="white" stroke="#666666" points="1035,-32 909.5,-32 909.5,0 1035,0 1035,-32"/>
<text xml:space="preserve" text-anchor="start" x="917.5" y="-18.5" font-family="Helvetica,sans-Serif" font-size="10.00">ConnectionPoint::relative</text>
<text xml:space="preserve" text-anchor="middle" x="972.25" y="-6.5" font-family="Helvetica,sans-Serif" font-size="10.00">PositionChanged</text>
</a>
</g>
</g>
<!-- Node1&#45;&gt;Node8 -->
<g id="edge12_Node000001_Node000008" class="edge">
<title>Node1&#45;&gt;Node8</title>
<g id="a_edge12_Node000001_Node000008"><a xlink:title=" ">
<path fill="none" stroke="#63b8ff" d="M123.72,-52.52C193.09,-32.97 317.12,-3 425.62,-3 425.62,-3 425.62,-3 610.5,-3 709.99,-3 824.82,-8 897.7,-11.8"/>
<polygon fill="#63b8ff" stroke="#63b8ff" points="897.35,-15.28 907.52,-12.32 897.72,-8.29 897.35,-15.28"/>
</a>
</g>
</g>
<!-- Node3 -->
<g id="Node000003" class="node">
<title>Node3</title>
<g id="a_Node000003"><a xlink:href="class_connection_line.html#a9de44ae385d7941f3aa79da06e97d510" target="_top" xlink:title=" ">
<polygon fill="white" stroke="#666666" points="495,-114 358.25,-114 358.25,-82 495,-82 495,-114"/>
<text xml:space="preserve" text-anchor="start" x="366.25" y="-100.5" font-family="Helvetica,sans-Serif" font-size="10.00">ConnectionLine::connection</text>
<text xml:space="preserve" text-anchor="middle" x="426.62" y="-88.5" font-family="Helvetica,sans-Serif" font-size="10.00">Changed</text>
</a>
</g>
</g>
<!-- Node2&#45;&gt;Node3 -->
<g id="edge2_Node000002_Node000003" class="edge">
<title>Node2&#45;&gt;Node3</title>
<g id="a_edge2_Node000002_Node000003"><a xlink:title=" ">
<path fill="none" stroke="#63b8ff" d="M322.59,-98C330.42,-98 338.41,-98 346.3,-98"/>
<polygon fill="#63b8ff" stroke="#63b8ff" points="346.25,-101.5 356.25,-98 346.25,-94.5 346.25,-101.5"/>
</a>
</g>
</g>
<!-- Node4 -->
<g id="Node000004" class="node">
<title>Node4</title>
<g id="a_Node000004"><a xlink:href="class_connection_line.html#a657559dca679d5fd04ae565b442b6a8b" target="_top" xlink:title=" ">
<polygon fill="white" stroke="#666666" points="688,-127 531,-127 531,-107 688,-107 688,-127"/>
<text xml:space="preserve" text-anchor="middle" x="609.5" y="-113.5" font-family="Helvetica,sans-Serif" font-size="10.00">ConnectionLine::ConnectionLine</text>
</a>
</g>
</g>
<!-- Node3&#45;&gt;Node4 -->
<g id="edge3_Node000003_Node000004" class="edge">
<title>Node3&#45;&gt;Node4</title>
<g id="a_edge3_Node000003_Node000004"><a xlink:title=" ">
<path fill="none" stroke="#63b8ff" d="M495.49,-105.13C503.26,-105.94 511.26,-106.79 519.25,-107.63"/>
<polygon fill="#63b8ff" stroke="#63b8ff" points="518.7,-111.09 529.01,-108.65 519.43,-104.12 518.7,-111.09"/>
</a>
</g>
</g>
<!-- Node5 -->
<g id="Node000005" class="node">
<title>Node5</title>
<g id="a_Node000005"><a xlink:href="class_connection_line.html#a836aef7faf5a4fb8a5a10bfc71dbabe3" target="_top" xlink:title=" ">
<polygon fill="white" stroke="#666666" points="858.5,-139 724,-139 724,-107 858.5,-107 858.5,-139"/>
<text xml:space="preserve" text-anchor="start" x="732" y="-125.5" font-family="Helvetica,sans-Serif" font-size="10.00">ConnectionLine::connectTo</text>
<text xml:space="preserve" text-anchor="middle" x="791.25" y="-113.5" font-family="Helvetica,sans-Serif" font-size="10.00">Points</text>
</a>
</g>
</g>
<!-- Node4&#45;&gt;Node5 -->
<g id="edge4_Node000004_Node000005" class="edge">
<title>Node4&#45;&gt;Node5</title>
<g id="a_edge4_Node000004_Node000005"><a xlink:title=" ">
<path fill="none" stroke="#63b8ff" d="M688.3,-119.6C696.2,-119.86 704.23,-120.13 712.14,-120.39"/>
<polygon fill="#63b8ff" stroke="#63b8ff" points="711.99,-123.89 722.1,-120.73 712.22,-116.89 711.99,-123.89"/>
</a>
</g>
</g>
<!-- Node5&#45;&gt;Node2 -->
<g id="edge5_Node000005_Node000002" class="edge">
<title>Node5&#45;&gt;Node2</title>
<g id="a_edge5_Node000005_Node000002"><a xlink:title=" ">
<path fill="none" stroke="#63b8ff" d="M723.54,-132.72C711.72,-134.08 699.52,-135.27 688,-136 541.62,-145.27 503.28,-144.85 358.25,-123 347.31,-121.35 335.84,-119.21 324.61,-116.87"/>
<polygon fill="#63b8ff" stroke="#63b8ff" points="325.48,-113.48 314.96,-114.8 324,-120.32 325.48,-113.48"/>
</a>
</g>
</g>
<!-- Node5&#45;&gt;Node6 -->
<g id="edge6_Node000005_Node000006" class="edge">
<title>Node5&#45;&gt;Node6</title>
<g id="a_edge6_Node000005_Node000006"><a xlink:title=" ">
<path fill="none" stroke="#63b8ff" d="M858.9,-106.62C870.13,-103.86 881.86,-100.97 893.34,-98.15"/>
<polygon fill="#63b8ff" stroke="#63b8ff" points="893.9,-101.62 902.77,-95.83 892.23,-94.82 893.9,-101.62"/>
</a>
</g>
</g>
<!-- Node5&#45;&gt;Node7 -->
<g id="edge8_Node000005_Node000007" class="edge">
<title>Node5&#45;&gt;Node7</title>
<g id="a_edge8_Node000005_Node000007"><a xlink:title=" ">
<path fill="none" stroke="#63b8ff" d="M858.9,-136.03C874.5,-139.08 891.09,-142.33 906.6,-145.36"/>
<polygon fill="#63b8ff" stroke="#63b8ff" points="905.7,-148.75 916.18,-147.23 907.04,-141.88 905.7,-148.75"/>
</a>
</g>
</g>
<!-- Node5&#45;&gt;Node8 -->
<g id="edge9_Node000005_Node000008" class="edge">
<title>Node5&#45;&gt;Node8</title>
<g id="a_edge9_Node000005_Node000008"><a xlink:title=" ">
<path fill="none" stroke="#63b8ff" d="M814.43,-106.76C834.78,-92.18 865.99,-70.58 894.5,-54 904.33,-48.28 915.14,-42.59 925.47,-37.42"/>
<polygon fill="#63b8ff" stroke="#63b8ff" points="926.8,-40.66 934.22,-33.1 923.7,-34.38 926.8,-40.66"/>
</a>
</g>
</g>
<!-- Node6&#45;&gt;Node3 -->
<g id="edge7_Node000006_Node000003" class="edge">
<title>Node6&#45;&gt;Node3</title>
<g id="a_edge7_Node000006_Node000003"><a xlink:title=" ">
<path fill="none" stroke="#63b8ff" d="M903.93,-81.35C803.26,-84.87 613.89,-91.49 506.75,-95.23"/>
<polygon fill="#63b8ff" stroke="#63b8ff" points="506.76,-91.73 496.89,-95.58 507.01,-98.73 506.76,-91.73"/>
</a>
</g>
</g>
</g>
</svg>
