<?xml version="1.0" encoding="UTF-8" standalone="no"?>
<!DOCTYPE svg PUBLIC "-//W3C//DTD SVG 1.1//EN"
 "http://www.w3.org/Graphics/SVG/1.1/DTD/svg11.dtd">
<!-- Generated by graphviz version 14.1.1 (20251213.1925)
 -->
<!-- Title: ConnectionLine::lineTypeFromString Pages: 1 -->
<!--zoomable 787 -->

<svg id="main" version="1.1" xmlns="http://www.w3.org/2000/svg" xmlns:xlink="http://www.w3.org/1999/xlink" xml:space="preserve" onload="init(evt)">

<style type="text/css"><![CDATA[
.node, .edge {opacity: 0.7;}
.node.selected, .edge.selected {opacity: 1;}
.edge:hover path { stroke: red; }
.edge:hover polygon { stroke: red; fill: red; }
]]></style>

<defs>
  <circle id="rim" cx="0" cy="0" r="7"/>
  <circle id="rim2" cx="0" cy="0" r="3.5"/>
  <g id="zoomPlus">
    <use xlink:href="#rim" fill="#404040"><set attributeName="fill" to="#808080" begin="zoomplus.mouseover" end="zoomplus.mouseout"/></use>
    <path d="M-4,0h8M0,-4v8" fill="none" stroke="white" stroke-width="1.5" pointer-events="none"/>
  </g>
  <g id="zoomMin">
    <use xlink:href="#rim" fill="#404040"><set attributeName="fill" to="#808080" begin="zoomminus.mouseover" end="zoomminus.mouseout"/></use>
    <path d="M-4,0h8" fill="none" stroke="white" stroke-width="1.5" pointer-events="none"/>
  </g>
  <g id="arrowUp" transform="translate(30 24)">
    <use xlink:href="#rim"/>
    <path pointer-events="none" fill="none" stroke="white" stroke-width="1.5" d="M0,-3.0v7 M-2.5,-0.5L0,-3.0L2.5,-0.5"/>
  </g>
  <g id="arrowRight" transform="rotate(90) translate(36 -43)">
    <use xlink:href="#rim"/>
    <path pointer-events="none" fill="none" stroke="white" stroke-width="1.5" d="M0,-3.0v7 M-2.5,-0.5L0,-3.0L2.5,-0.5"/>
  </g>
  <g id="arrowDown" transform="rotate(180) translate(-30 -48)">
    <use xlink:href="#rim"/>
    <path pointer-events="none" fill="none" stroke="white" stroke-width="1.5" d="M0,-3.0v7 M-2.5,-0.5L0,-3.0L2.5,-0.5"/>
  </g>
  <g id="arrowLeft" transform="rotate(270) translate(-36 17)">
    <use xlink:href="#rim"/>
    <path pointer-events="none" fill="none" stroke="white" stroke-width="1.5" d="M0,-3.0v7 M-2.5,-0.5L0,-3.0L2.5,-0.5"/>
  </g>
  <g id="resetDef">
    <use xlink:href="#rim2" fill="#404040"><set attributeName="fill" to="#808080" begin="reset.mouseover" end="reset.mouseout"/></use>
  </g>
</defs>
<script type="application/ecmascript">
var viewWidth = 2487;
var viewHeight = 787;
var sectionId = 'dynsection-21';
</script>
<script type="application/ecmascript" xlink:href="svg.min.js"/>
<svg id="graph" class="graph">
<g id="viewport">
<title>ConnectionLine::lineTypeFromString</title>
<!-- Node1 -->
<g id="Node000001" class="node">
<title>Node1</title>
<g id="a_Node000001"><a xlink:title=" ">
<polygon fill="#999999" stroke="#666666" points="2479,-248 2353.5,-248 2353.5,-216 2479,-216 2479,-248"/>
<text xml:space="preserve" text-anchor="start" x="2361.5" y="-234.5" font-family="Helvetica,sans-Serif" font-size="10.00">ConnectionLine::lineType</text>
<text xml:space="preserve" text-anchor="middle" x="2416.25" y="-222.5" font-family="Helvetica,sans-Serif" font-size="10.00">FromString</text>
</a>
</g>
</g>
<!-- Node2 -->
<g id="Node000002" class="node">
<title>Node2</title>
<g id="a_Node000002"><a xlink:href="class_main_window.html#ac1e0c79708cf9aa9b7ca1a87697e5b34" target="_top" xlink:title=" ">
<polygon fill="white" stroke="#666666" points="2317.5,-242 2141,-242 2141,-222 2317.5,-222 2317.5,-242"/>
<text xml:space="preserve" text-anchor="middle" x="2229.25" y="-228.5" font-family="Helvetica,sans-Serif" font-size="10.00">MainWindow::onComboBoxChanged</text>
</a>
</g>
</g>
<!-- Node1&#45;&gt;Node2 -->
<g id="edge1_Node000001_Node000002" class="edge">
<title>Node1&#45;&gt;Node2</title>
<g id="a_edge1_Node000001_Node000002"><a xlink:title=" ">
<path fill="none" stroke="#63b8ff" d="M2341.78,-232C2333.92,-232 2325.87,-232 2317.86,-232"/>
<polygon fill="#63b8ff" stroke="#63b8ff" points="2341.62,-235.5 2351.62,-232 2341.62,-228.5 2341.62,-235.5"/>
</a>
</g>
</g>
<!-- Node3 -->
<g id="Node000003" class="node">
<title>Node3</title>
<g id="a_Node000003"><a xlink:href="class_main_window.html#a872e6a76dcbf858ae9d483eceddf90e1" target="_top" xlink:title=" ">
<polygon fill="white" stroke="#666666" points="2104.25,-548 1950.25,-548 1950.25,-516 2104.25,-516 2104.25,-548"/>
<text xml:space="preserve" text-anchor="start" x="1958.25" y="-534.5" font-family="Helvetica,sans-Serif" font-size="10.00">MainWindow::createComboBox</text>
<text xml:space="preserve" text-anchor="middle" x="2027.25" y="-522.5" font-family="Helvetica,sans-Serif" font-size="10.00">PropertyItem</text>
</a>
</g>
</g>
<!-- Node2&#45;&gt;Node3 -->
<g id="edge2_Node000002_Node000003" class="edge">
<title>Node2&#45;&gt;Node3</title>
<g id="a_edge2_Node000002_Node000003"><a xlink:title=" ">
<path fill="none" stroke="#63b8ff" d="M2215.07,-251.77C2177.94,-307.47 2072.96,-464.93 2039,-515.88"/>
<polygon fill="#63b8ff" stroke="#63b8ff" points="2217.89,-253.85 2220.53,-243.59 2212.07,-249.97 2217.89,-253.85"/>
</a>
</g>
</g>
<!-- Node25 -->
<g id="Node000025" class="node">
<title>Node25</title>
<g id="a_Node000025"><a xlink:href="class_main_window.html#abae03a6494d13d74ed1b2e31ec1f2fc7" target="_top" xlink:title=" ">
<polygon fill="white" stroke="#666666" points="2105,-270 1949.5,-270 1949.5,-238 2105,-238 2105,-270"/>
<text xml:space="preserve" text-anchor="start" x="1957.5" y="-256.5" font-family="Helvetica,sans-Serif" font-size="10.00">MainWindow::createIconCombo</text>
<text xml:space="preserve" text-anchor="middle" x="2027.25" y="-244.5" font-family="Helvetica,sans-Serif" font-size="10.00">BoxPropertyItem</text>
</a>
</g>
</g>
<!-- Node2&#45;&gt;Node25 -->
<g id="edge48_Node000002_Node000025" class="edge">
<title>Node2&#45;&gt;Node25</title>
<g id="a_edge48_Node000002_Node000025"><a xlink:title=" ">
<path fill="none" stroke="#63b8ff" d="M2129.18,-242.9C2121.14,-243.78 2113.09,-244.67 2105.24,-245.53"/>
<polygon fill="#63b8ff" stroke="#63b8ff" points="2129.47,-246.39 2139.02,-241.82 2128.7,-239.43 2129.47,-246.39"/>
</a>
</g>
</g>
<!-- Node4 -->
<g id="Node000004" class="node">
<title>Node4</title>
<g id="a_Node000004"><a xlink:href="class_main_window.html#a3aa4112f20ad25eb3ad78fd354ba7de2" target="_top" xlink:title=" ">
<polygon fill="white" stroke="#666666" points="1913.5,-655 1761.75,-655 1761.75,-623 1913.5,-623 1913.5,-655"/>
<text xml:space="preserve" text-anchor="start" x="1769.75" y="-641.5" font-family="Helvetica,sans-Serif" font-size="10.00">MainWindow::populateAttribute</text>
<text xml:space="preserve" text-anchor="middle" x="1837.62" y="-629.5" font-family="Helvetica,sans-Serif" font-size="10.00">Properties</text>
</a>
</g>
</g>
<!-- Node3&#45;&gt;Node4 -->
<g id="edge3_Node000003_Node000004" class="edge">
<title>Node3&#45;&gt;Node4</title>
<g id="a_edge3_Node000003_Node000004"><a xlink:title=" ">
<path fill="none" stroke="#63b8ff" d="M1987.72,-553.97C1951.94,-574.38 1899.46,-604.31 1867.26,-622.67"/>
<polygon fill="#63b8ff" stroke="#63b8ff" points="1989.08,-557.23 1996.03,-549.23 1985.61,-551.15 1989.08,-557.23"/>
</a>
</g>
</g>
<!-- Node11 -->
<g id="Node000011" class="node">
<title>Node11</title>
<g id="a_Node000011"><a xlink:href="class_main_window.html#a1049a5796ac248f40a3b4110ed5faf77" target="_top" xlink:title=" ">
<polygon fill="white" stroke="#666666" points="1522.25,-548 1353.25,-548 1353.25,-516 1522.25,-516 1522.25,-548"/>
<text xml:space="preserve" text-anchor="start" x="1361.25" y="-534.5" font-family="Helvetica,sans-Serif" font-size="10.00">MainWindow::populateRelationship</text>
<text xml:space="preserve" text-anchor="middle" x="1437.75" y="-522.5" font-family="Helvetica,sans-Serif" font-size="10.00">Properties</text>
</a>
</g>
</g>
<!-- Node3&#45;&gt;Node11 -->
<g id="edge47_Node000003_Node000011" class="edge">
<title>Node3&#45;&gt;Node11</title>
<g id="a_edge47_Node000003_Node000011"><a xlink:title=" ">
<path fill="none" stroke="#63b8ff" d="M1938.77,-532C1826.43,-532 1632.85,-532 1522.4,-532"/>
<polygon fill="#63b8ff" stroke="#63b8ff" points="1938.53,-535.5 1948.53,-532 1938.53,-528.5 1938.53,-535.5"/>
</a>
</g>
</g>
<!-- Node5 -->
<g id="Node000005" class="node">
<title>Node5</title>
<g id="a_Node000005"><a xlink:href="class_main_window.html#a697154cf7839e00c607134c2a4e018cf" target="_top" xlink:title=" ">
<polygon fill="white" stroke="#666666" points="1725.75,-668 1558.25,-668 1558.25,-648 1725.75,-648 1725.75,-668"/>
<text xml:space="preserve" text-anchor="middle" x="1642" y="-654.5" font-family="Helvetica,sans-Serif" font-size="10.00">MainWindow::populateAttributeList</text>
</a>
</g>
</g>
<!-- Node4&#45;&gt;Node5 -->
<g id="edge4_Node000004_Node000005" class="edge">
<title>Node4&#45;&gt;Node5</title>
<g id="a_edge4_Node000004_Node000005"><a xlink:title=" ">
<path fill="none" stroke="#63b8ff" d="M1750.06,-640.78C1729.33,-642.67 1707.97,-645.05 1689.84,-647.53"/>
<polygon fill="#63b8ff" stroke="#63b8ff" points="1750.32,-644.27 1759.98,-639.91 1749.71,-637.3 1750.32,-644.27"/>
</a>
</g>
</g>
<!-- Node7 -->
<g id="Node000007" class="node">
<title>Node7</title>
<g id="a_Node000007"><a xlink:href="class_main_window.html#add7e6ae12287854ff779bd4b5649dd98" target="_top" xlink:title=" ">
<polygon fill="white" stroke="#666666" points="1317.25,-592 1158,-592 1158,-560 1317.25,-560 1317.25,-592"/>
<text xml:space="preserve" text-anchor="start" x="1166" y="-578.5" font-family="Helvetica,sans-Serif" font-size="10.00">MainWindow::populateProperties</text>
<text xml:space="preserve" text-anchor="middle" x="1237.62" y="-566.5" font-family="Helvetica,sans-Serif" font-size="10.00">ForElement</text>
</a>
</g>
</g>
<!-- Node4&#45;&gt;Node7 -->
<g id="edge46_Node000004_Node000007" class="edge">
<title>Node4&#45;&gt;Node7</title>
<g id="a_edge46_Node000004_Node000007"><a xlink:title=" ">
<path fill="none" stroke="#63b8ff" d="M1779.11,-619.17C1762.12,-614.06 1743.35,-609.12 1725.75,-606 1583.5,-580.79 1414.65,-575.85 1317.74,-575.37"/>
<polygon fill="#63b8ff" stroke="#63b8ff" points="1777.95,-622.48 1788.54,-622.1 1780.02,-615.8 1777.95,-622.48"/>
</a>
</g>
</g>
<!-- Node5&#45;&gt;Node4 -->
<g id="edge5_Node000005_Node000004" class="edge">
<title>Node5&#45;&gt;Node4</title>
<g id="a_edge5_Node000005_Node000004"><a xlink:title=" ">
<path fill="none" stroke="#63b8ff" d="M1737.48,-655.48C1745.53,-654.7 1753.61,-653.86 1761.49,-652.97"/>
<polygon fill="#63b8ff" stroke="#63b8ff" points="1737.27,-651.98 1727.63,-656.39 1737.92,-658.95 1737.27,-651.98"/>
</a>
</g>
</g>
<!-- Node6 -->
<g id="Node000006" class="node">
<title>Node6</title>
<g id="a_Node000006"><a xlink:href="class_main_window.html#a40023e3590f2593fd133a6b111f63ed9" target="_top" xlink:title=" ">
<polygon fill="white" stroke="#666666" points="514.5,-712 374,-712 374,-680 514.5,-680 514.5,-712"/>
<text xml:space="preserve" text-anchor="start" x="382" y="-698.5" font-family="Helvetica,sans-Serif" font-size="10.00">MainWindow::populateEntity</text>
<text xml:space="preserve" text-anchor="middle" x="444.25" y="-686.5" font-family="Helvetica,sans-Serif" font-size="10.00">Properties</text>
</a>
</g>
</g>
<!-- Node5&#45;&gt;Node6 -->
<g id="edge6_Node000005_Node000006" class="edge">
<title>Node5&#45;&gt;Node6</title>
<g id="a_edge6_Node000005_Node000006"><a xlink:title=" ">
<path fill="none" stroke="#63b8ff" d="M1597.65,-671.7C1524.44,-693.59 1371.33,-734 1238.62,-734 1238.62,-734 1238.62,-734 849.12,-734 731.34,-734 595.07,-717.78 514.75,-706.53"/>
<polygon fill="#63b8ff" stroke="#63b8ff" points="1598.27,-675.17 1606.83,-668.93 1596.24,-668.47 1598.27,-675.17"/>
</a>
</g>
</g>
<!-- Node5&#45;&gt;Node11 -->
<g id="edge45_Node000005_Node000011" class="edge">
<title>Node5&#45;&gt;Node11</title>
<g id="a_edge45_Node000005_Node000011"><a xlink:title=" ">
<path fill="none" stroke="#63b8ff" d="M1614.91,-641.75C1576.15,-617.6 1503.76,-572.5 1464.94,-548.31"/>
<polygon fill="#63b8ff" stroke="#63b8ff" points="1612.83,-644.57 1623.16,-646.89 1616.53,-638.63 1612.83,-644.57"/>
</a>
</g>
</g>
<!-- Node6&#45;&gt;Node7 -->
<g id="edge7_Node000006_Node000007" class="edge">
<title>Node6&#45;&gt;Node7</title>
<g id="a_edge7_Node000006_Node000007"><a xlink:title=" ">
<path fill="none" stroke="#63b8ff" d="M525.96,-683.76C678.4,-660.65 1006.91,-610.83 1157.85,-587.94"/>
<polygon fill="#63b8ff" stroke="#63b8ff" points="525.71,-680.26 516.34,-685.22 526.76,-687.18 525.71,-680.26"/>
</a>
</g>
</g>
<!-- Node8 -->
<g id="Node000008" class="node">
<title>Node8</title>
<g id="a_Node000008"><a xlink:href="class_main_window.html#a5caeae304b10e5cd9f83ef5c6086310b" target="_top" xlink:title=" ">
<polygon fill="white" stroke="#666666" points="1122,-314 970.25,-314 970.25,-282 1122,-282 1122,-314"/>
<text xml:space="preserve" text-anchor="start" x="978.25" y="-300.5" font-family="Helvetica,sans-Serif" font-size="10.00">MainWindow::updateProperties</text>
<text xml:space="preserve" text-anchor="middle" x="1046.12" y="-288.5" font-family="Helvetica,sans-Serif" font-size="10.00">Panel</text>
</a>
</g>
</g>
<!-- Node7&#45;&gt;Node8 -->
<g id="edge8_Node000007_Node000008" class="edge">
<title>Node7&#45;&gt;Node8</title>
<g id="a_edge8_Node000007_Node000008"><a xlink:title=" ">
<path fill="none" stroke="#63b8ff" d="M1219.31,-550.59C1180.96,-494.34 1089.8,-360.6 1058.16,-314.19"/>
<polygon fill="#63b8ff" stroke="#63b8ff" points="1216.24,-552.31 1224.77,-558.6 1222.02,-548.37 1216.24,-552.31"/>
</a>
</g>
</g>
<!-- Node8&#45;&gt;Node2 -->
<g id="edge20_Node000008_Node000002" class="edge">
<title>Node8&#45;&gt;Node2</title>
<g id="a_edge20_Node000008_Node000002"><a xlink:title=" ">
<path fill="none" stroke="#63b8ff" d="M1133.53,-298C1212.48,-298 1332.47,-298 1436.75,-298 1838.62,-298 1838.62,-298 1838.62,-298 1957.31,-298 1989.11,-304.64 2105,-279 2141.89,-270.84 2182.43,-253.67 2206.59,-242.5"/>
<polygon fill="#63b8ff" stroke="#63b8ff" points="1133.7,-294.5 1123.7,-298 1133.7,-301.5 1133.7,-294.5"/>
</a>
</g>
</g>
<!-- Node9 -->
<g id="Node000009" class="node">
<title>Node9</title>
<g id="a_Node000009"><a xlink:href="class_main_window.html#ad34ae0349abf41aa739b75b85df74126" target="_top" xlink:title=" ">
<polygon fill="white" stroke="#666666" points="921.5,-554 778.75,-554 778.75,-522 921.5,-522 921.5,-554"/>
<text xml:space="preserve" text-anchor="start" x="786.75" y="-540.5" font-family="Helvetica,sans-Serif" font-size="10.00">MainWindow::onAddAttribute</text>
<text xml:space="preserve" text-anchor="middle" x="850.12" y="-528.5" font-family="Helvetica,sans-Serif" font-size="10.00">OnTreeClicked</text>
</a>
</g>
</g>
<!-- Node8&#45;&gt;Node9 -->
<g id="edge9_Node000008_Node000009" class="edge">
<title>Node8&#45;&gt;Node9</title>
<g id="a_edge9_Node000008_Node000009"><a xlink:title=" ">
<path fill="none" stroke="#63b8ff" d="M1038.52,-325.3C1026.06,-370.96 994.74,-462.73 934.25,-513 930.31,-516.27 925.95,-519.12 921.35,-521.59"/>
<polygon fill="#63b8ff" stroke="#63b8ff" points="1041.89,-326.26 1041.03,-315.69 1035.12,-324.48 1041.89,-326.26"/>
</a>
</g>
</g>
<!-- Node12 -->
<g id="Node000012" class="node">
<title>Node12</title>
<g id="a_Node000012"><a xlink:href="class_main_window.html#a47fd0b86ddb5829e3b0cb15908671670" target="_top" xlink:title=" ">
<polygon fill="white" stroke="#666666" points="531,-264 357.5,-264 357.5,-244 531,-244 531,-264"/>
<text xml:space="preserve" text-anchor="middle" x="444.25" y="-250.5" font-family="Helvetica,sans-Serif" font-size="10.00">MainWindow::onCheckBoxChanged</text>
</a>
</g>
</g>
<!-- Node8&#45;&gt;Node12 -->
<g id="edge16_Node000008_Node000012" class="edge">
<title>Node8&#45;&gt;Node12</title>
<g id="a_edge16_Node000008_Node000012"><a xlink:title=" ">
<path fill="none" stroke="#63b8ff" d="M958.32,-291.63C844.27,-283.27 645.19,-268.67 531.45,-260.32"/>
<polygon fill="#63b8ff" stroke="#63b8ff" points="958.02,-295.12 968.25,-292.36 958.53,-288.14 958.02,-295.12"/>
</a>
</g>
</g>
<!-- Node14 -->
<g id="Node000014" class="node">
<title>Node14</title>
<g id="a_Node000014"><a xlink:href="class_main_window.html#a0e7ca45ac830893108871185dda813a4" target="_top" xlink:title=" ">
<polygon fill="white" stroke="#666666" points="730,-378 567,-378 567,-358 730,-358 730,-378"/>
<text xml:space="preserve" text-anchor="middle" x="648.5" y="-364.5" font-family="Helvetica,sans-Serif" font-size="10.00">MainWindow::onLineEditChanged</text>
</a>
</g>
</g>
<!-- Node8&#45;&gt;Node14 -->
<g id="edge21_Node000008_Node000014" class="edge">
<title>Node8&#45;&gt;Node14</title>
<g id="a_edge21_Node000008_Node000014"><a xlink:title=" ">
<path fill="none" stroke="#63b8ff" d="M1006.99,-319.75C986.17,-330.52 959.55,-342.57 934.25,-349 866.9,-366.12 787.88,-370.18 730.19,-370.36"/>
<polygon fill="#63b8ff" stroke="#63b8ff" points="1008.48,-322.92 1015.67,-315.14 1005.2,-316.73 1008.48,-322.92"/>
</a>
</g>
</g>
<!-- Node16 -->
<g id="Node000016" class="node">
<title>Node16</title>
<g id="a_Node000016"><a xlink:href="class_main_window.html#a1043995538765eae993ae75217c482e7" target="_top" xlink:title=" ">
<polygon fill="white" stroke="#666666" points="519,-132 369.5,-132 369.5,-100 519,-100 519,-132"/>
<text xml:space="preserve" text-anchor="start" x="377.5" y="-118.5" font-family="Helvetica,sans-Serif" font-size="10.00">MainWindow::onPropertyValue</text>
<text xml:space="preserve" text-anchor="middle" x="444.25" y="-106.5" font-family="Helvetica,sans-Serif" font-size="10.00">Changed</text>
</a>
</g>
</g>
<!-- Node8&#45;&gt;Node16 -->
<g id="edge24_Node000008_Node000016" class="edge">
<title>Node8&#45;&gt;Node16</title>
<g id="a_edge24_Node000008_Node000016"><a xlink:title=" ">
<path fill="none" stroke="#63b8ff" d="M1030.49,-272.38C1010.96,-244.83 974.18,-202.15 934.25,-176 852.96,-122.76 825.56,-115.63 730,-98 654.24,-84.03 565.27,-90.39 507.2,-99.54"/>
<polygon fill="#63b8ff" stroke="#63b8ff" points="1027.51,-274.23 1036.03,-280.54 1033.3,-270.3 1027.51,-274.23"/>
</a>
</g>
</g>
<!-- Node19 -->
<g id="Node000019" class="node">
<title>Node19</title>
<g id="a_Node000019"><a xlink:href="class_main_window.html#a95674d4bfc5fc2aad6df1601f23b1793" target="_top" xlink:title=" ">
<polygon fill="white" stroke="#666666" points="931.25,-504 769,-504 769,-472 931.25,-472 931.25,-504"/>
<text xml:space="preserve" text-anchor="start" x="777" y="-490.5" font-family="Helvetica,sans-Serif" font-size="10.00">MainWindow::onRemoveAttribute</text>
<text xml:space="preserve" text-anchor="middle" x="850.12" y="-478.5" font-family="Helvetica,sans-Serif" font-size="10.00">OnTreeClicked</text>
</a>
</g>
</g>
<!-- Node8&#45;&gt;Node19 -->
<g id="edge28_Node000008_Node000019" class="edge">
<title>Node8&#45;&gt;Node19</title>
<g id="a_edge28_Node000008_Node000019"><a xlink:title=" ">
<path fill="none" stroke="#63b8ff" d="M1020.41,-322.21C980.32,-361.47 902.16,-438.02 867.9,-471.57"/>
<polygon fill="#63b8ff" stroke="#63b8ff" points="1022.81,-324.76 1027.5,-315.26 1017.91,-319.75 1022.81,-324.76"/>
</a>
</g>
</g>
<!-- Node20 -->
<g id="Node000020" class="node">
<title>Node20</title>
<g id="a_Node000020"><a xlink:href="class_main_window.html#a44791b85064ecff42c12429c6667e83b" target="_top" xlink:title=" ">
<polygon fill="white" stroke="#666666" points="934.25,-340 766,-340 766,-320 934.25,-320 934.25,-340"/>
<text xml:space="preserve" text-anchor="middle" x="850.12" y="-326.5" font-family="Helvetica,sans-Serif" font-size="10.00">MainWindow::onSelectionChanged</text>
</a>
</g>
</g>
<!-- Node8&#45;&gt;Node20 -->
<g id="edge30_Node000008_Node000020" class="edge">
<title>Node8&#45;&gt;Node20</title>
<g id="a_edge30_Node000008_Node000020"><a xlink:title=" ">
<path fill="none" stroke="#63b8ff" d="M958.63,-312.27C943.86,-314.7 928.76,-317.19 914.72,-319.51"/>
<polygon fill="#63b8ff" stroke="#63b8ff" points="959.05,-315.75 968.35,-310.66 957.91,-308.84 959.05,-315.75"/>
</a>
</g>
</g>
<!-- Node21 -->
<g id="Node000021" class="node">
<title>Node21</title>
<g id="a_Node000021"><a xlink:href="class_main_window.html#af380eeda83d30cd1ecb1419cfd5161d7" target="_top" xlink:title=" ">
<polygon fill="white" stroke="#666666" points="917,-226 783.25,-226 783.25,-194 917,-194 917,-226"/>
<text xml:space="preserve" text-anchor="start" x="791.25" y="-212.5" font-family="Helvetica,sans-Serif" font-size="10.00">MainWindow::updatesAfter</text>
<text xml:space="preserve" text-anchor="middle" x="850.12" y="-200.5" font-family="Helvetica,sans-Serif" font-size="10.00">ChangingProperty</text>
</a>
</g>
</g>
<!-- Node8&#45;&gt;Node21 -->
<g id="edge32_Node000008_Node000021" class="edge">
<title>Node8&#45;&gt;Node21</title>
<g id="a_edge32_Node000008_Node000021"><a xlink:title=" ">
<path fill="none" stroke="#63b8ff" d="M998.89,-277.03C964.71,-261.52 918.82,-240.71 887.3,-226.41"/>
<polygon fill="#63b8ff" stroke="#63b8ff" points="997.16,-280.09 1007.71,-281.03 1000.05,-273.71 997.16,-280.09"/>
</a>
</g>
</g>
<!-- Node10 -->
<g id="Node000010" class="node">
<title>Node10</title>
<g id="a_Node000010"><a xlink:href="class_main_window.html#a6fd05e9f951dd6e7c2cd6ca815ef9d71" target="_top" xlink:title=" ">
<polygon fill="white" stroke="#666666" points="715.38,-617 581.62,-617 581.62,-585 715.38,-585 715.38,-617"/>
<text xml:space="preserve" text-anchor="start" x="589.62" y="-603.5" font-family="Helvetica,sans-Serif" font-size="10.00">MainWindow::createButton</text>
<text xml:space="preserve" text-anchor="middle" x="648.5" y="-591.5" font-family="Helvetica,sans-Serif" font-size="10.00">PropertyItem</text>
</a>
</g>
</g>
<!-- Node9&#45;&gt;Node10 -->
<g id="edge10_Node000009_Node000010" class="edge">
<title>Node9&#45;&gt;Node10</title>
<g id="a_edge10_Node000009_Node000010"><a xlink:title=" ">
<path fill="none" stroke="#63b8ff" d="M785.99,-557.93C758.86,-566.49 727.53,-576.38 701.73,-584.52"/>
<polygon fill="#63b8ff" stroke="#63b8ff" points="787.01,-561.27 795.49,-554.93 784.9,-554.6 787.01,-561.27"/>
</a>
</g>
</g>
<!-- Node10&#45;&gt;Node4 -->
<g id="edge12_Node000010_Node000004" class="edge">
<title>Node10&#45;&gt;Node4</title>
<g id="a_edge12_Node000010_Node000004"><a xlink:title=" ">
<path fill="none" stroke="#63b8ff" d="M727.01,-606.92C806.73,-612.5 934.52,-620 1045.12,-620 1438.75,-620 1438.75,-620 1438.75,-620 1551.3,-620 1681.55,-627.68 1761.51,-633.27"/>
<polygon fill="#63b8ff" stroke="#63b8ff" points="727.34,-603.44 717.11,-606.22 726.84,-610.42 727.34,-603.44"/>
</a>
</g>
</g>
<!-- Node10&#45;&gt;Node5 -->
<g id="edge11_Node000010_Node000005" class="edge">
<title>Node10&#45;&gt;Node5</title>
<g id="a_edge11_Node000010_Node000005"><a xlink:title=" ">
<path fill="none" stroke="#63b8ff" d="M710.79,-620.72C728.45,-625.76 747.85,-630.68 766,-634 888.48,-656.4 920.61,-658 1045.12,-658 1238.62,-658 1238.62,-658 1238.62,-658 1349,-658 1476.4,-658 1557.77,-658"/>
<polygon fill="#63b8ff" stroke="#63b8ff" points="711.79,-617.37 701.21,-617.92 709.83,-624.09 711.79,-617.37"/>
</a>
</g>
</g>
<!-- Node10&#45;&gt;Node6 -->
<g id="edge13_Node000010_Node000006" class="edge">
<title>Node10&#45;&gt;Node6</title>
<g id="a_edge13_Node000010_Node000006"><a xlink:title=" ">
<path fill="none" stroke="#63b8ff" d="M602.74,-622.03C565.82,-639.37 514.18,-663.62 480.24,-679.56"/>
<polygon fill="#63b8ff" stroke="#63b8ff" points="603.8,-625.39 611.36,-617.97 600.82,-619.06 603.8,-625.39"/>
</a>
</g>
</g>
<!-- Node10&#45;&gt;Node11 -->
<g id="edge14_Node000010_Node000011" class="edge">
<title>Node10&#45;&gt;Node11</title>
<g id="a_edge14_Node000010_Node000011"><a xlink:title=" ">
<path fill="none" stroke="#63b8ff" d="M726.83,-592.67C826.45,-582.1 1005,-563.73 1158,-551 1223.38,-545.56 1297.48,-540.56 1352.84,-537.06"/>
<polygon fill="#63b8ff" stroke="#63b8ff" points="726.75,-589.16 717.18,-593.69 727.49,-596.12 726.75,-589.16"/>
</a>
</g>
</g>
<!-- Node11&#45;&gt;Node7 -->
<g id="edge15_Node000011_Node000007" class="edge">
<title>Node11&#45;&gt;Node7</title>
<g id="a_edge15_Node000011_Node000007"><a xlink:title=" ">
<path fill="none" stroke="#63b8ff" d="M1351.51,-550.93C1338.67,-553.78 1325.51,-556.7 1312.92,-559.5"/>
<polygon fill="#63b8ff" stroke="#63b8ff" points="1352.21,-554.36 1361.22,-548.77 1350.7,-547.53 1352.21,-554.36"/>
</a>
</g>
</g>
<!-- Node13 -->
<g id="Node000013" class="node">
<title>Node13</title>
<g id="a_Node000013"><a xlink:href="class_main_window.html#a44aaf7bb6d9a56f53b8a7a9e4fc29f8c" target="_top" xlink:title=" ">
<polygon fill="white" stroke="#666666" points="321.5,-460 170.5,-460 170.5,-428 321.5,-428 321.5,-460"/>
<text xml:space="preserve" text-anchor="start" x="178.5" y="-446.5" font-family="Helvetica,sans-Serif" font-size="10.00">MainWindow::createCheckBox</text>
<text xml:space="preserve" text-anchor="middle" x="246" y="-434.5" font-family="Helvetica,sans-Serif" font-size="10.00">PropertyItem</text>
</a>
</g>
</g>
<!-- Node12&#45;&gt;Node13 -->
<g id="edge17_Node000012_Node000013" class="edge">
<title>Node12&#45;&gt;Node13</title>
<g id="a_edge17_Node000012_Node000013"><a xlink:title=" ">
<path fill="none" stroke="#63b8ff" d="M424.18,-272.46C385.92,-309.5 300.36,-392.34 263.94,-427.6"/>
<polygon fill="#63b8ff" stroke="#63b8ff" points="426.58,-275.01 431.33,-265.54 421.71,-269.98 426.58,-275.01"/>
</a>
</g>
</g>
<!-- Node13&#45;&gt;Node4 -->
<g id="edge18_Node000013_Node000004" class="edge">
<title>Node13&#45;&gt;Node4</title>
<g id="a_edge18_Node000013_Node000004"><a xlink:title=" ">
<path fill="none" stroke="#63b8ff" d="M249.33,-471.47C255.68,-527.86 278.53,-656.79 357.5,-721 459.04,-803.56 516.63,-772 647.5,-772 1438.75,-772 1438.75,-772 1438.75,-772 1584.42,-772 1745.32,-690.82 1808.75,-655.31"/>
<polygon fill="#63b8ff" stroke="#63b8ff" points="252.84,-471.38 248.34,-461.79 245.88,-472.09 252.84,-471.38"/>
</a>
</g>
</g>
<!-- Node13&#45;&gt;Node11 -->
<g id="edge19_Node000013_Node000011" class="edge">
<title>Node13&#45;&gt;Node11</title>
<g id="a_edge19_Node000013_Node000011"><a xlink:title=" ">
<path fill="none" stroke="#63b8ff" d="M333.07,-444C414.17,-444 539.09,-444 647.5,-444 1047.12,-444 1047.12,-444 1047.12,-444 1175.59,-444 1322.16,-490.08 1393.36,-515.55"/>
<polygon fill="#63b8ff" stroke="#63b8ff" points="333.43,-440.5 323.43,-444 333.43,-447.5 333.43,-440.5"/>
</a>
</g>
</g>
<!-- Node15 -->
<g id="Node000015" class="node">
<title>Node15</title>
<g id="a_Node000015"><a xlink:href="class_main_window.html#ae3b6600dd59da1822ef94bbd5f37f0cc" target="_top" xlink:title=" ">
<polygon fill="white" stroke="#666666" points="514.5,-403 374,-403 374,-371 514.5,-371 514.5,-403"/>
<text xml:space="preserve" text-anchor="start" x="382" y="-389.5" font-family="Helvetica,sans-Serif" font-size="10.00">MainWindow::createLineEdit</text>
<text xml:space="preserve" text-anchor="middle" x="444.25" y="-377.5" font-family="Helvetica,sans-Serif" font-size="10.00">PropertyItem</text>
</a>
</g>
</g>
<!-- Node14&#45;&gt;Node15 -->
<g id="edge22_Node000014_Node000015" class="edge">
<title>Node14&#45;&gt;Node15</title>
<g id="a_edge22_Node000014_Node000015"><a xlink:title=" ">
<path fill="none" stroke="#63b8ff" d="M555.33,-376.66C541.72,-377.94 527.9,-379.24 514.85,-380.46"/>
<polygon fill="#63b8ff" stroke="#63b8ff" points="555.56,-380.15 565.19,-375.73 554.9,-373.18 555.56,-380.15"/>
</a>
</g>
</g>
<!-- Node15&#45;&gt;Node11 -->
<g id="edge23_Node000015_Node000011" class="edge">
<title>Node15&#45;&gt;Node11</title>
<g id="a_edge23_Node000015_Node000011"><a xlink:title=" ">
<path fill="none" stroke="#63b8ff" d="M526.06,-393.04C607.55,-398.6 737,-406 849.12,-406 1047.12,-406 1047.12,-406 1047.12,-406 1167.65,-406 1206.12,-383.33 1317.25,-430 1362.77,-449.12 1403.66,-492.19 1423.71,-515.79"/>
<polygon fill="#63b8ff" stroke="#63b8ff" points="526.61,-389.57 516.4,-392.37 526.13,-396.55 526.61,-389.57"/>
</a>
</g>
</g>
<!-- Node16&#45;&gt;Node8 -->
<g id="edge27_Node000016_Node000008" class="edge">
<title>Node16&#45;&gt;Node8</title>
<g id="a_edge27_Node000016_Node000008"><a xlink:title=" ">
<path fill="none" stroke="#63b8ff" d="M530.47,-111.55C587.43,-107.11 663.77,-103.78 730,-116 825.56,-133.63 852.96,-140.76 934.25,-194 972.42,-219 1007.71,-259.09 1027.8,-281.74"/>
<polygon fill="#63b8ff" stroke="#63b8ff" points="530.55,-108.03 520.86,-112.32 531.11,-115.01 530.55,-108.03"/>
</a>
</g>
</g>
<!-- Node17 -->
<g id="Node000017" class="node">
<title>Node17</title>
<g id="a_Node000017"><a xlink:href="class_main_window.html#adfa32feecffce3959c99d145fc8b4854" target="_top" xlink:title=" ">
<polygon fill="white" stroke="#666666" points="318.5,-233 173.5,-233 173.5,-213 318.5,-213 318.5,-233"/>
<text xml:space="preserve" text-anchor="middle" x="246" y="-219.5" font-family="Helvetica,sans-Serif" font-size="10.00">MainWindow::connectSignals</text>
</a>
</g>
</g>
<!-- Node16&#45;&gt;Node17 -->
<g id="edge25_Node000016_Node000017" class="edge">
<title>Node16&#45;&gt;Node17</title>
<g id="a_edge25_Node000016_Node000017"><a xlink:title=" ">
<path fill="none" stroke="#63b8ff" d="M403.15,-137.87C361.31,-160.67 297.52,-195.45 266,-212.64"/>
<polygon fill="#63b8ff" stroke="#63b8ff" points="404.58,-141.07 411.69,-133.21 401.23,-134.92 404.58,-141.07"/>
</a>
</g>
</g>
<!-- Node18 -->
<g id="Node000018" class="node">
<title>Node18</title>
<g id="a_Node000018"><a xlink:href="class_main_window.html#a996c5a2b6f77944776856f08ec30858d" target="_top" xlink:title=" ">
<polygon fill="white" stroke="#666666" points="134.5,-233 0,-233 0,-213 134.5,-213 134.5,-233"/>
<text xml:space="preserve" text-anchor="middle" x="67.25" y="-219.5" font-family="Helvetica,sans-Serif" font-size="10.00">MainWindow::MainWindow</text>
</a>
</g>
</g>
<!-- Node17&#45;&gt;Node18 -->
<g id="edge26_Node000017_Node000018" class="edge">
<title>Node17&#45;&gt;Node18</title>
<g id="a_edge26_Node000017_Node000018"><a xlink:title=" ">
<path fill="none" stroke="#63b8ff" d="M161.78,-223C152.78,-223 143.71,-223 134.95,-223"/>
<polygon fill="#63b8ff" stroke="#63b8ff" points="161.6,-226.5 171.6,-223 161.6,-219.5 161.6,-226.5"/>
</a>
</g>
</g>
<!-- Node19&#45;&gt;Node10 -->
<g id="edge29_Node000019_Node000010" class="edge">
<title>Node19&#45;&gt;Node10</title>
<g id="a_edge29_Node000019_Node000010"><a xlink:title=" ">
<path fill="none" stroke="#63b8ff" d="M775.47,-508.58C772.23,-509.97 769.06,-511.45 766,-513 727.35,-532.61 688.35,-565.29 666.72,-584.82"/>
<polygon fill="#63b8ff" stroke="#63b8ff" points="776.61,-511.89 784.6,-504.93 774.02,-505.39 776.61,-511.89"/>
</a>
</g>
</g>
<!-- Node20&#45;&gt;Node17 -->
<g id="edge31_Node000020_Node000017" class="edge">
<title>Node20&#45;&gt;Node17</title>
<g id="a_edge31_Node000020_Node000017"><a xlink:title=" ">
<path fill="none" stroke="#63b8ff" d="M754.56,-327.68C654.34,-323.22 492.25,-310.32 357.5,-273 323.41,-263.56 286.47,-244.98 265.11,-233.32"/>
<polygon fill="#63b8ff" stroke="#63b8ff" points="754.22,-331.16 764.35,-328.09 754.51,-324.17 754.22,-331.16"/>
</a>
</g>
</g>
<!-- Node21&#45;&gt;Node2 -->
<g id="edge42_Node000021_Node000002" class="edge">
<title>Node21&#45;&gt;Node2</title>
<g id="a_edge42_Node000021_Node000002"><a xlink:title=" ">
<path fill="none" stroke="#63b8ff" d="M928.44,-210C1006.27,-210 1129.78,-210 1236.62,-210 1838.62,-210 1838.62,-210 1838.62,-210 1942.45,-210 2061.6,-217.88 2140.51,-224.21"/>
<polygon fill="#63b8ff" stroke="#63b8ff" points="928.81,-206.5 918.81,-210 928.81,-213.5 928.81,-206.5"/>
</a>
</g>
</g>
<!-- Node21&#45;&gt;Node12 -->
<g id="edge41_Node000021_Node000012" class="edge">
<title>Node21&#45;&gt;Node12</title>
<g id="a_edge41_Node000021_Node000012"><a xlink:title=" ">
<path fill="none" stroke="#63b8ff" d="M771.93,-227.84C758.03,-230.59 743.63,-233.12 730,-235 663.61,-244.13 587.89,-248.92 531.23,-251.4"/>
<polygon fill="#63b8ff" stroke="#63b8ff" points="772.35,-231.33 781.46,-225.91 770.96,-224.47 772.35,-231.33"/>
</a>
</g>
</g>
<!-- Node21&#45;&gt;Node14 -->
<g id="edge43_Node000021_Node000014" class="edge">
<title>Node21&#45;&gt;Node14</title>
<g id="a_edge43_Node000021_Node000014"><a xlink:title=" ">
<path fill="none" stroke="#63b8ff" d="M819.71,-233.28C775.65,-268.15 694.31,-332.53 662.62,-357.61"/>
<polygon fill="#63b8ff" stroke="#63b8ff" points="821.66,-236.2 827.33,-227.25 817.31,-230.71 821.66,-236.2"/>
</a>
</g>
</g>
<!-- Node21&#45;&gt;Node16 -->
<g id="edge44_Node000021_Node000016" class="edge">
<title>Node21&#45;&gt;Node16</title>
<g id="a_edge44_Node000021_Node000016"><a xlink:title=" ">
<path fill="none" stroke="#63b8ff" d="M821.2,-186.75C798.27,-169.12 764.11,-146.09 730,-135 661.09,-112.6 577.98,-109.59 519.39,-111.13"/>
<polygon fill="#63b8ff" stroke="#63b8ff" points="818.8,-189.31 828.83,-192.75 823.13,-183.81 818.8,-189.31"/>
</a>
</g>
</g>
<!-- Node22 -->
<g id="Node000022" class="node">
<title>Node22</title>
<g id="a_Node000022"><a xlink:href="class_main_window.html#a9ed390421f6755b891cfc651d173db7b" target="_top" xlink:title=" ">
<polygon fill="white" stroke="#666666" points="720.25,-176 576.75,-176 576.75,-144 720.25,-144 720.25,-176"/>
<text xml:space="preserve" text-anchor="start" x="584.75" y="-162.5" font-family="Helvetica,sans-Serif" font-size="10.00">MainWindow::handleAttribute</text>
<text xml:space="preserve" text-anchor="middle" x="648.5" y="-150.5" font-family="Helvetica,sans-Serif" font-size="10.00">PropertyChange</text>
</a>
</g>
</g>
<!-- Node21&#45;&gt;Node22 -->
<g id="edge33_Node000021_Node000022" class="edge">
<title>Node21&#45;&gt;Node22</title>
<g id="a_edge33_Node000021_Node000022"><a xlink:title=" ">
<path fill="none" stroke="#63b8ff" d="M772.51,-190.81C753.6,-186.07 733.52,-181.04 715.18,-176.45"/>
<polygon fill="#63b8ff" stroke="#63b8ff" points="771.46,-194.16 782.02,-193.19 773.17,-187.37 771.46,-194.16"/>
</a>
</g>
</g>
<!-- Node23 -->
<g id="Node000023" class="node">
<title>Node23</title>
<g id="a_Node000023"><a xlink:href="class_main_window.html#aa69c4b7c558b2fb3922adf75af48330a" target="_top" xlink:title=" ">
<polygon fill="white" stroke="#666666" points="728.88,-32 568.12,-32 568.12,0 728.88,0 728.88,-32"/>
<text xml:space="preserve" text-anchor="start" x="576.12" y="-18.5" font-family="Helvetica,sans-Serif" font-size="10.00">MainWindow::handleRelationship</text>
<text xml:space="preserve" text-anchor="middle" x="648.5" y="-6.5" font-family="Helvetica,sans-Serif" font-size="10.00">EndCardinalityChange</text>
</a>
</g>
</g>
<!-- Node21&#45;&gt;Node23 -->
<g id="edge37_Node000021_Node000023" class="edge">
<title>Node21&#45;&gt;Node23</title>
<g id="a_edge37_Node000021_Node000023"><a xlink:title=" ">
<path fill="none" stroke="#63b8ff" d="M824.29,-185.86C783.03,-145.77 701.43,-66.47 666.27,-32.3"/>
<polygon fill="#63b8ff" stroke="#63b8ff" points="821.75,-188.28 831.36,-192.74 826.63,-183.26 821.75,-188.28"/>
</a>
</g>
</g>
<!-- Node24 -->
<g id="Node000024" class="node">
<title>Node24</title>
<g id="a_Node000024"><a xlink:href="class_main_window.html#a96d575a529f7c24b1b5094b4b1e42742" target="_top" xlink:title=" ">
<polygon fill="white" stroke="#666666" points="728.88,-226 568.12,-226 568.12,-194 728.88,-194 728.88,-226"/>
<text xml:space="preserve" text-anchor="start" x="576.12" y="-212.5" font-family="Helvetica,sans-Serif" font-size="10.00">MainWindow::handleRelationship</text>
<text xml:space="preserve" text-anchor="middle" x="648.5" y="-200.5" font-family="Helvetica,sans-Serif" font-size="10.00">EndParticipationChange</text>
</a>
</g>
</g>
<!-- Node21&#45;&gt;Node24 -->
<g id="edge39_Node000021_Node000024" class="edge">
<title>Node21&#45;&gt;Node24</title>
<g id="a_edge39_Node000021_Node000024"><a xlink:title=" ">
<path fill="none" stroke="#63b8ff" d="M771.42,-210C757.51,-210 743,-210 729.05,-210"/>
<polygon fill="#63b8ff" stroke="#63b8ff" points="771.42,-213.5 781.42,-210 771.42,-206.5 771.42,-213.5"/>
</a>
</g>
</g>
<!-- Node22&#45;&gt;Node2 -->
<g id="edge35_Node000022_Node000002" class="edge">
<title>Node22&#45;&gt;Node2</title>
<g id="a_edge35_Node000022_Node000002"><a xlink:title=" ">
<path fill="none" stroke="#63b8ff" d="M695.64,-139.18C768.37,-108.31 914.83,-54 1045.12,-54 1838.62,-54 1838.62,-54 1838.62,-54 2001.12,-54 2170.07,-183.67 2216.08,-221.66"/>
<polygon fill="#63b8ff" stroke="#63b8ff" points="694.65,-135.79 686.84,-142.96 697.41,-142.23 694.65,-135.79"/>
</a>
</g>
</g>
<!-- Node22&#45;&gt;Node12 -->
<g id="edge34_Node000022_Node000012" class="edge">
<title>Node22&#45;&gt;Node12</title>
<g id="a_edge34_Node000022_Node000012"><a xlink:title=" ">
<path fill="none" stroke="#63b8ff" d="M578.69,-180.27C574.71,-181.79 570.78,-183.36 567,-185 527.09,-202.27 483.47,-229.12 460.84,-243.72"/>
<polygon fill="#63b8ff" stroke="#63b8ff" points="579.71,-183.62 587.93,-176.93 577.33,-177.04 579.71,-183.62"/>
</a>
</g>
</g>
<!-- Node22&#45;&gt;Node16 -->
<g id="edge36_Node000022_Node000016" class="edge">
<title>Node22&#45;&gt;Node16</title>
<g id="a_edge36_Node000022_Node000016"><a xlink:title=" ">
<path fill="none" stroke="#63b8ff" d="M565.46,-142.15C550.15,-138.82 534.23,-135.36 519.19,-132.08"/>
<polygon fill="#63b8ff" stroke="#63b8ff" points="564.48,-145.52 575,-144.23 565.97,-138.68 564.48,-145.52"/>
</a>
</g>
</g>
<!-- Node23&#45;&gt;Node2 -->
<g id="edge38_Node000023_Node000002" class="edge">
<title>Node23&#45;&gt;Node2</title>
<g id="a_edge38_Node000023_Node000002"><a xlink:title=" ">
<path fill="none" stroke="#63b8ff" d="M740.11,-16C820.3,-16 940.49,-16 1045.12,-16 1838.62,-16 1838.62,-16 1838.62,-16 1959.33,-16 2002.72,-4.89 2105,-69 2167.83,-108.38 2210.22,-192.1 2223.67,-221.52"/>
<polygon fill="#63b8ff" stroke="#63b8ff" points="740.58,-12.5 730.58,-16 740.58,-19.5 740.58,-12.5"/>
</a>
</g>
</g>
<!-- Node24&#45;&gt;Node12 -->
<g id="edge40_Node000024_Node000012" class="edge">
<title>Node24&#45;&gt;Node12</title>
<g id="a_edge40_Node000024_Node000012"><a xlink:title=" ">
<path fill="none" stroke="#63b8ff" d="M560.7,-228.88C537.68,-233.89 513.64,-239.12 493.5,-243.5"/>
<polygon fill="#63b8ff" stroke="#63b8ff" points="561.4,-232.31 570.42,-226.77 559.91,-225.47 561.4,-232.31"/>
</a>
</g>
</g>
<!-- Node26 -->
<g id="Node000026" class="node">
<title>Node26</title>
<g id="a_Node000026"><a xlink:href="class_main_window.html#af02df1238ccf49caa1c4099c88dfe465" target="_top" xlink:title=" ">
<polygon fill="white" stroke="#666666" points="1721.62,-270 1562.38,-270 1562.38,-238 1721.62,-238 1721.62,-270"/>
<text xml:space="preserve" text-anchor="start" x="1570.38" y="-256.5" font-family="Helvetica,sans-Serif" font-size="10.00">MainWindow::populateProperties</text>
<text xml:space="preserve" text-anchor="middle" x="1642" y="-244.5" font-family="Helvetica,sans-Serif" font-size="10.00">ForConnection</text>
</a>
</g>
</g>
<!-- Node25&#45;&gt;Node26 -->
<g id="edge49_Node000025_Node000026" class="edge">
<title>Node25&#45;&gt;Node26</title>
<g id="a_edge49_Node000025_Node000026"><a xlink:title=" ">
<path fill="none" stroke="#63b8ff" d="M1937.67,-254C1872.51,-254 1784.72,-254 1721.95,-254"/>
<polygon fill="#63b8ff" stroke="#63b8ff" points="1937.64,-257.5 1947.64,-254 1937.64,-250.5 1937.64,-257.5"/>
</a>
</g>
</g>
<!-- Node26&#45;&gt;Node8 -->
<g id="edge50_Node000026_Node000008" class="edge">
<title>Node26&#45;&gt;Node8</title>
<g id="a_edge50_Node000026_Node000008"><a xlink:title=" ">
<path fill="none" stroke="#63b8ff" d="M1551,-257.88C1453.9,-262.46 1294.78,-271.13 1158,-284 1146.41,-285.09 1134.16,-286.44 1122.2,-287.86"/>
<polygon fill="#63b8ff" stroke="#63b8ff" points="1550.9,-261.39 1560.73,-257.42 1550.58,-254.39 1550.9,-261.39"/>
</a>
</g>
</g>
</g>
</svg>

<g id="navigator" transform="translate(0 0)" fill="#404254">
  <rect fill="#f2f5e9" fill-opacity="0.5" stroke="#606060" stroke-width=".5" x="0" y="0" width="60" height="60"/>
  <use id="zoomplus" xlink:href="#zoomPlus" x="17" y="9" onmousedown="handleZoom(evt,'in')"/>
  <use id="zoomminus" xlink:href="#zoomMin" x="42" y="9" onmousedown="handleZoom(evt,'out')"/>
  <use id="reset" xlink:href="#resetDef" x="30" y="36" onmousedown="handleReset()"/>
   <use id="arrowup" xlink:href="#arrowUp" x="0" y="0" onmousedown="handlePan(0,-1)"/>
  <use id="arrowright" xlink:href="#arrowRight" x="0" y="0" onmousedown="handlePan(1,0)"/>
  <use id="arrowdown" xlink:href="#arrowDown" x="0" y="0" onmousedown="handlePan(0,1)"/>
  <use id="arrowleft" xlink:href="#arrowLeft" x="0" y="0" onmousedown="handlePan(-1,0)"/>
</g>
<svg viewBox="0 0 15 15" width="100%" height="30px" preserveAspectRatio="xMaxYMin meet">
 <g id="arrow_out" transform="scale(0.3 0.3)">
  <a xlink:href="class_connection_line_a7d16c976218b3490e7a74b1c8f50bec4_icgraph_org.svg" target="_base">
   <rect id="button" ry="5" rx="5" y="6" x="6" height="38" width="38"
        fill="#f2f5e9" fill-opacity="0.5" stroke="#606060" stroke-width="1.0"/>
   <path id="arrow"
     d="M 11.500037,31.436501 C 11.940474,20.09759 22.043105,11.32322 32.158766,21.979434 L 37.068811,17.246167 C 37.068811,17.246167 37.088388,32 37.088388,32 L 22.160133,31.978069 C 22.160133,31.978069 26.997745,27.140456 26.997745,27.140456 C 18.528582,18.264221 13.291696,25.230495 11.500037,31.436501 z"
     style="fill:#404040;"/>
  </a>
 </g>
</svg>

<style type='text/css'>
<![CDATA[
[data-mouse-over-selected='false'] { opacity: 0.7; }
[data-mouse-over-selected='true']  { opacity: 1.0; }
]]>
</style>
<script type="application/ecmascript"><![CDATA[
document.addEventListener('DOMContentLoaded', (event) => {
  highlightEdges();
  highlightAdjacentNodes();
});
]]></script>
</svg>
