<?xml version="1.0" encoding="UTF-8" standalone="no"?>
<!DOCTYPE svg PUBLIC "-//W3C//DTD SVG 1.1//EN"
 "http://www.w3.org/Graphics/SVG/1.1/DTD/svg11.dtd">
<!-- Generated by graphviz version 14.1.1 (20251213.1925)
 -->
<!-- Title: MainWindow::populateRelationshipProperties Pages: 1 -->
<!--zoomable 823 -->

<svg id="main" version="1.1" xmlns="http://www.w3.org/2000/svg" xmlns:xlink="http://www.w3.org/1999/xlink" xml:space="preserve" onload="init(evt)">

<style type="text/css"><![CDATA[
.node, .edge {opacity: 0.7;}
.node.selected, .edge.selected {opacity: 1;}
.edge:hover path { stroke: red; }
.edge:hover polygon { stroke: red; fill: red; }
]]></style>

<defs>
  <circle id="rim" cx="0" cy="0" r="7"/>
  <circle id="rim2" cx="0" cy="0" r="3.5"/>
  <g id="zoomPlus">
    <use xlink:href="#rim" fill="#404040"><set attributeName="fill" to="#808080" begin="zoomplus.mouseover" end="zoomplus.mouseout"/></use>
    <path d="M-4,0h8M0,-4v8" fill="none" stroke="white" stroke-width="1.5" pointer-events="none"/>
  </g>
  <g id="zoomMin">
    <use xlink:href="#rim" fill="#404040"><set attributeName="fill" to="#808080" begin="zoomminus.mouseover" end="zoomminus.mouseout"/></use>
    <path d="M-4,0h8" fill="none" stroke="white" stroke-width="1.5" pointer-events="none"/>
  </g>
  <g id="arrowUp" transform="translate(30 24)">
    <use xlink:href="#rim"/>
    <path pointer-events="none" fill="none" stroke="white" stroke-width="1.5" d="M0,-3.0v7 M-2.5,-0.5L0,-3.0L2.5,-0.5"/>
  </g>
  <g id="arrowRight" transform="rotate(90) translate(36 -43)">
    <use xlink:href="#rim"/>
    <path pointer-events="none" fill="none" stroke="white" stroke-width="1.5" d="M0,-3.0v7 M-2.5,-0.5L0,-3.0L2.5,-0.5"/>
  </g>
  <g id="arrowDown" transform="rotate(180) translate(-30 -48)">
    <use xlink:href="#rim"/>
    <path pointer-events="none" fill="none" stroke="white" stroke-width="1.5" d="M0,-3.0v7 M-2.5,-0.5L0,-3.0L2.5,-0.5"/>
  </g>
  <g id="arrowLeft" transform="rotate(270) translate(-36 17)">
    <use xlink:href="#rim"/>
    <path pointer-events="none" fill="none" stroke="white" stroke-width="1.5" d="M0,-3.0v7 M-2.5,-0.5L0,-3.0L2.5,-0.5"/>
  </g>
  <g id="resetDef">
    <use xlink:href="#rim2" fill="#404040"><set attributeName="fill" to="#808080" begin="reset.mouseover" end="reset.mouseout"/></use>
  </g>
</defs>
<script type="application/ecmascript">
var viewWidth = 1563;
var viewHeight = 823;
var sectionId = 'dynsection-93';
</script>
<script type="application/ecmascript" xlink:href="svg.min.js"/>
<svg id="graph" class="graph">
<g id="viewport">
<title>MainWindow::populateRelationshipProperties</title>
<!-- Node1 -->
<g id="Node000001" class="node">
<title>Node1</title>
<g id="a_Node000001"><a xlink:title=" ">
<polygon fill="#999999" stroke="#666666" points="1554.5,-197.13 1385.5,-197.13 1385.5,-165.13 1554.5,-165.13 1554.5,-197.13"/>
<text xml:space="preserve" text-anchor="start" x="1393.5" y="-183.63" font-family="Helvetica,sans-Serif" font-size="10.00">MainWindow::populateRelationship</text>
<text xml:space="preserve" text-anchor="middle" x="1470" y="-171.63" font-family="Helvetica,sans-Serif" font-size="10.00">Properties</text>
</a>
</g>
</g>
<!-- Node2 -->
<g id="Node000002" class="node">
<title>Node2</title>
<g id="a_Node000002"><a xlink:href="class_main_window.html#add7e6ae12287854ff779bd4b5649dd98" target="_top" xlink:title=" ">
<polygon fill="white" stroke="#666666" points="1349.5,-175.13 1190.25,-175.13 1190.25,-143.13 1349.5,-143.13 1349.5,-175.13"/>
<text xml:space="preserve" text-anchor="start" x="1198.25" y="-161.63" font-family="Helvetica,sans-Serif" font-size="10.00">MainWindow::populateProperties</text>
<text xml:space="preserve" text-anchor="middle" x="1269.88" y="-149.63" font-family="Helvetica,sans-Serif" font-size="10.00">ForElement</text>
</a>
</g>
</g>
<!-- Node1&#45;&gt;Node2 -->
<g id="edge1_Node000001_Node000002" class="edge">
<title>Node1&#45;&gt;Node2</title>
<g id="a_edge1_Node000001_Node000002"><a xlink:title=" ">
<path fill="none" stroke="#63b8ff" d="M1373.93,-170.57C1365.88,-169.68 1357.8,-168.78 1349.89,-167.9"/>
<polygon fill="#63b8ff" stroke="#63b8ff" points="1373.43,-174.04 1383.76,-171.66 1374.21,-167.08 1373.43,-174.04"/>
</a>
</g>
</g>
<!-- Node3 -->
<g id="Node000003" class="node">
<title>Node3</title>
<g id="a_Node000003"><a xlink:href="class_main_window.html#a5caeae304b10e5cd9f83ef5c6086310b" target="_top" xlink:title=" ">
<polygon fill="white" stroke="#666666" points="1154.25,-521.13 1002.5,-521.13 1002.5,-489.13 1154.25,-489.13 1154.25,-521.13"/>
<text xml:space="preserve" text-anchor="start" x="1010.5" y="-507.63" font-family="Helvetica,sans-Serif" font-size="10.00">MainWindow::updateProperties</text>
<text xml:space="preserve" text-anchor="middle" x="1078.38" y="-495.63" font-family="Helvetica,sans-Serif" font-size="10.00">Panel</text>
</a>
</g>
</g>
<!-- Node2&#45;&gt;Node3 -->
<g id="edge2_Node000002_Node000003" class="edge">
<title>Node2&#45;&gt;Node3</title>
<g id="a_edge2_Node000002_Node000003"><a xlink:title=" ">
<path fill="none" stroke="#63b8ff" d="M1254.57,-185.25C1217.37,-253.16 1118.43,-433.82 1088.24,-488.94"/>
<polygon fill="#63b8ff" stroke="#63b8ff" points="1257.53,-187.13 1259.26,-176.68 1251.39,-183.77 1257.53,-187.13"/>
</a>
</g>
</g>
<!-- Node4 -->
<g id="Node000004" class="node">
<title>Node4</title>
<g id="a_Node000004"><a xlink:href="class_main_window.html#ad34ae0349abf41aa739b75b85df74126" target="_top" xlink:title=" ">
<polygon fill="white" stroke="#666666" points="953.75,-313.13 811,-313.13 811,-281.13 953.75,-281.13 953.75,-313.13"/>
<text xml:space="preserve" text-anchor="start" x="819" y="-299.63" font-family="Helvetica,sans-Serif" font-size="10.00">MainWindow::onAddAttribute</text>
<text xml:space="preserve" text-anchor="middle" x="882.38" y="-287.63" font-family="Helvetica,sans-Serif" font-size="10.00">OnTreeClicked</text>
</a>
</g>
</g>
<!-- Node3&#45;&gt;Node4 -->
<g id="edge3_Node000003_Node000004" class="edge">
<title>Node3&#45;&gt;Node4</title>
<g id="a_edge3_Node000003_Node000004"><a xlink:title=" ">
<path fill="none" stroke="#63b8ff" d="M1067.39,-478.41C1051.65,-439.76 1017.52,-368.38 966.5,-327.13 959.82,-321.72 952.08,-317.25 944.07,-313.56"/>
<polygon fill="#63b8ff" stroke="#63b8ff" points="1064.02,-479.42 1070.96,-487.43 1070.53,-476.84 1064.02,-479.42"/>
</a>
</g>
</g>
<!-- Node9 -->
<g id="Node000009" class="node">
<title>Node9</title>
<g id="a_Node000009"><a xlink:href="class_main_window.html#a47fd0b86ddb5829e3b0cb15908671670" target="_top" xlink:title=" ">
<polygon fill="white" stroke="#666666" points="561.75,-455.13 388.25,-455.13 388.25,-435.13 561.75,-435.13 561.75,-455.13"/>
<text xml:space="preserve" text-anchor="middle" x="475" y="-441.63" font-family="Helvetica,sans-Serif" font-size="10.00">MainWindow::onCheckBoxChanged</text>
</a>
</g>
</g>
<!-- Node3&#45;&gt;Node9 -->
<g id="edge15_Node000003_Node000009" class="edge">
<title>Node3&#45;&gt;Node9</title>
<g id="a_edge15_Node000003_Node000009"><a xlink:title=" ">
<path fill="none" stroke="#63b8ff" d="M990.95,-498.59C895.09,-491.06 735.92,-477.69 599.25,-462.13 582.51,-460.22 564.53,-457.9 547.62,-455.59"/>
<polygon fill="#63b8ff" stroke="#63b8ff" points="990.57,-502.07 1000.81,-499.36 991.11,-495.09 990.57,-502.07"/>
</a>
</g>
</g>
<!-- Node11 -->
<g id="Node000011" class="node">
<title>Node11</title>
<g id="a_Node000011"><a xlink:href="class_main_window.html#ac1e0c79708cf9aa9b7ca1a87697e5b34" target="_top" xlink:title=" ">
<polygon fill="white" stroke="#666666" points="563.25,-317.13 386.75,-317.13 386.75,-297.13 563.25,-297.13 563.25,-317.13"/>
<text xml:space="preserve" text-anchor="middle" x="475" y="-303.63" font-family="Helvetica,sans-Serif" font-size="10.00">MainWindow::onComboBoxChanged</text>
</a>
</g>
</g>
<!-- Node3&#45;&gt;Node11 -->
<g id="edge19_Node000003_Node000011" class="edge">
<title>Node3&#45;&gt;Node11</title>
<g id="a_edge19_Node000003_Node000011"><a xlink:title=" ">
<path fill="none" stroke="#63b8ff" d="M1050.1,-481.49C1028.2,-463.01 996.29,-437.18 966.5,-417.13 895.26,-369.18 859.34,-382.48 798.25,-322.13 775.58,-299.73 789.86,-276.02 762.25,-260.13 672.12,-208.24 541.14,-270.64 493.86,-296.71"/>
<polygon fill="#63b8ff" stroke="#63b8ff" points="1047.8,-484.13 1057.68,-487.94 1052.33,-478.8 1047.8,-484.13"/>
</a>
</g>
</g>
<!-- Node15 -->
<g id="Node000015" class="node">
<title>Node15</title>
<g id="a_Node000015"><a xlink:href="class_main_window.html#a0e7ca45ac830893108871185dda813a4" target="_top" xlink:title=" ">
<polygon fill="white" stroke="#666666" points="762.25,-591.13 599.25,-591.13 599.25,-571.13 762.25,-571.13 762.25,-591.13"/>
<text xml:space="preserve" text-anchor="middle" x="680.75" y="-577.63" font-family="Helvetica,sans-Serif" font-size="10.00">MainWindow::onLineEditChanged</text>
</a>
</g>
</g>
<!-- Node3&#45;&gt;Node15 -->
<g id="edge26_Node000003_Node000015" class="edge">
<title>Node3&#45;&gt;Node15</title>
<g id="a_edge26_Node000003_Node000015"><a xlink:title=" ">
<path fill="none" stroke="#63b8ff" d="M990.84,-521.75C913.28,-536.65 801.89,-558.05 736.16,-570.67"/>
<polygon fill="#63b8ff" stroke="#63b8ff" points="991.38,-525.21 1000.54,-519.89 990.06,-518.34 991.38,-525.21"/>
</a>
</g>
</g>
<!-- Node17 -->
<g id="Node000017" class="node">
<title>Node17</title>
<g id="a_Node000017"><a xlink:href="class_main_window.html#a1043995538765eae993ae75217c482e7" target="_top" xlink:title=" ">
<polygon fill="white" stroke="#666666" points="549.75,-679.13 400.25,-679.13 400.25,-647.13 549.75,-647.13 549.75,-679.13"/>
<text xml:space="preserve" text-anchor="start" x="408.25" y="-665.63" font-family="Helvetica,sans-Serif" font-size="10.00">MainWindow::onPropertyValue</text>
<text xml:space="preserve" text-anchor="middle" x="475" y="-653.63" font-family="Helvetica,sans-Serif" font-size="10.00">Changed</text>
</a>
</g>
</g>
<!-- Node3&#45;&gt;Node17 -->
<g id="edge29_Node000003_Node000017" class="edge">
<title>Node3&#45;&gt;Node17</title>
<g id="a_edge29_Node000003_Node000017"><a xlink:title=" ">
<path fill="none" stroke="#63b8ff" d="M1059.5,-530.93C1040.75,-559.43 1008.23,-603.5 966.5,-624.13 831.7,-690.75 650.01,-679.86 549.9,-669.54"/>
<polygon fill="#63b8ff" stroke="#63b8ff" points="1062.24,-533.13 1064.72,-522.83 1056.36,-529.33 1062.24,-533.13"/>
</a>
</g>
</g>
<!-- Node20 -->
<g id="Node000020" class="node">
<title>Node20</title>
<g id="a_Node000020"><a xlink:href="class_main_window.html#a95674d4bfc5fc2aad6df1601f23b1793" target="_top" xlink:title=" ">
<polygon fill="white" stroke="#666666" points="963.5,-263.13 801.25,-263.13 801.25,-231.13 963.5,-231.13 963.5,-263.13"/>
<text xml:space="preserve" text-anchor="start" x="809.25" y="-249.63" font-family="Helvetica,sans-Serif" font-size="10.00">MainWindow::onRemoveAttribute</text>
<text xml:space="preserve" text-anchor="middle" x="882.38" y="-237.63" font-family="Helvetica,sans-Serif" font-size="10.00">OnTreeClicked</text>
</a>
</g>
</g>
<!-- Node3&#45;&gt;Node20 -->
<g id="edge33_Node000003_Node000020" class="edge">
<title>Node3&#45;&gt;Node20</title>
<g id="a_edge33_Node000003_Node000020"><a xlink:title=" ">
<path fill="none" stroke="#63b8ff" d="M1071.93,-477.63C1060.85,-428.96 1031.05,-327.54 966.5,-272.13 962.73,-268.89 958.54,-266.07 954.12,-263.61"/>
<polygon fill="#63b8ff" stroke="#63b8ff" points="1068.49,-478.3 1074.03,-487.33 1075.33,-476.82 1068.49,-478.3"/>
</a>
</g>
</g>
<!-- Node21 -->
<g id="Node000021" class="node">
<title>Node21</title>
<g id="a_Node000021"><a xlink:href="class_main_window.html#a44791b85064ecff42c12429c6667e83b" target="_top" xlink:title=" ">
<polygon fill="white" stroke="#666666" points="966.5,-761.13 798.25,-761.13 798.25,-741.13 966.5,-741.13 966.5,-761.13"/>
<text xml:space="preserve" text-anchor="middle" x="882.38" y="-747.63" font-family="Helvetica,sans-Serif" font-size="10.00">MainWindow::onSelectionChanged</text>
</a>
</g>
</g>
<!-- Node3&#45;&gt;Node21 -->
<g id="edge35_Node000003_Node000021" class="edge">
<title>Node3&#45;&gt;Node21</title>
<g id="a_edge35_Node000003_Node000021"><a xlink:title=" ">
<path fill="none" stroke="#63b8ff" d="M1065.44,-531.72C1047.61,-569.53 1011.29,-639.7 966.5,-689.13 947.04,-710.61 919.18,-729.59 901.18,-740.72"/>
<polygon fill="#63b8ff" stroke="#63b8ff" points="1068.5,-533.44 1069.53,-522.9 1062.15,-530.5 1068.5,-533.44"/>
</a>
</g>
</g>
<!-- Node22 -->
<g id="Node000022" class="node">
<title>Node22</title>
<g id="a_Node000022"><a xlink:href="class_main_window.html#af380eeda83d30cd1ecb1419cfd5161d7" target="_top" xlink:title=" ">
<polygon fill="white" stroke="#666666" points="949.25,-458.13 815.5,-458.13 815.5,-426.13 949.25,-426.13 949.25,-458.13"/>
<text xml:space="preserve" text-anchor="start" x="823.5" y="-444.63" font-family="Helvetica,sans-Serif" font-size="10.00">MainWindow::updatesAfter</text>
<text xml:space="preserve" text-anchor="middle" x="882.38" y="-432.63" font-family="Helvetica,sans-Serif" font-size="10.00">ChangingProperty</text>
</a>
</g>
</g>
<!-- Node3&#45;&gt;Node22 -->
<g id="edge37_Node000003_Node000022" class="edge">
<title>Node3&#45;&gt;Node22</title>
<g id="a_edge37_Node000003_Node000022"><a xlink:title=" ">
<path fill="none" stroke="#63b8ff" d="M1016.02,-485.2C989.65,-476.64 959.2,-466.75 934.13,-458.61"/>
<polygon fill="#63b8ff" stroke="#63b8ff" points="1014.63,-488.43 1025.22,-488.19 1016.79,-481.77 1014.63,-488.43"/>
</a>
</g>
</g>
<!-- Node5 -->
<g id="Node000005" class="node">
<title>Node5</title>
<g id="a_Node000005"><a xlink:href="class_main_window.html#a6fd05e9f951dd6e7c2cd6ca815ef9d71" target="_top" xlink:title=" ">
<polygon fill="white" stroke="#666666" points="747.62,-134.13 613.88,-134.13 613.88,-102.13 747.62,-102.13 747.62,-134.13"/>
<text xml:space="preserve" text-anchor="start" x="621.88" y="-120.63" font-family="Helvetica,sans-Serif" font-size="10.00">MainWindow::createButton</text>
<text xml:space="preserve" text-anchor="middle" x="680.75" y="-108.63" font-family="Helvetica,sans-Serif" font-size="10.00">PropertyItem</text>
</a>
</g>
</g>
<!-- Node4&#45;&gt;Node5 -->
<g id="edge4_Node000004_Node000005" class="edge">
<title>Node4&#45;&gt;Node5</title>
<g id="a_edge4_Node000004_Node000005"><a xlink:title=" ">
<path fill="none" stroke="#63b8ff" d="M803.71,-275.63C801.84,-274.52 800.01,-273.35 798.25,-272.13 791.27,-267.27 722.1,-173.28 693.76,-134.57"/>
<polygon fill="#63b8ff" stroke="#63b8ff" points="801.61,-278.48 812.09,-280.03 804.86,-272.28 801.61,-278.48"/>
</a>
</g>
</g>
<!-- Node5&#45;&gt;Node1 -->
<g id="edge14_Node000005_Node000001" class="edge">
<title>Node5&#45;&gt;Node1</title>
<g id="a_edge14_Node000005_Node000001"><a xlink:title=" ">
<path fill="none" stroke="#63b8ff" d="M759.37,-111.29C884.88,-102.18 1139.52,-91.71 1349.5,-134.13 1380.09,-140.31 1412.96,-153.78 1436.47,-164.73"/>
<polygon fill="#63b8ff" stroke="#63b8ff" points="759.22,-107.8 749.51,-112.03 759.74,-114.78 759.22,-107.8"/>
</a>
</g>
</g>
<!-- Node6 -->
<g id="Node000006" class="node">
<title>Node6</title>
<g id="a_Node000006"><a xlink:href="class_main_window.html#a697154cf7839e00c607134c2a4e018cf" target="_top" xlink:title=" ">
<polygon fill="white" stroke="#666666" points="558.75,-23.13 391.25,-23.13 391.25,-3.13 558.75,-3.13 558.75,-23.13"/>
<text xml:space="preserve" text-anchor="middle" x="475" y="-9.63" font-family="Helvetica,sans-Serif" font-size="10.00">MainWindow::populateAttributeList</text>
</a>
</g>
</g>
<!-- Node5&#45;&gt;Node6 -->
<g id="edge5_Node000005_Node000006" class="edge">
<title>Node5&#45;&gt;Node6</title>
<g id="a_edge5_Node000005_Node000006"><a xlink:title=" ">
<path fill="none" stroke="#63b8ff" d="M637.7,-96.46C594.47,-74.18 528.97,-40.43 496.19,-23.53"/>
<polygon fill="#63b8ff" stroke="#63b8ff" points="636.08,-99.56 646.57,-101.03 639.28,-93.33 636.08,-99.56"/>
</a>
</g>
</g>
<!-- Node7 -->
<g id="Node000007" class="node">
<title>Node7</title>
<g id="a_Node000007"><a xlink:href="class_main_window.html#a3aa4112f20ad25eb3ad78fd354ba7de2" target="_top" xlink:title=" ">
<polygon fill="white" stroke="#666666" points="155.5,-162.13 3.75,-162.13 3.75,-130.13 155.5,-130.13 155.5,-162.13"/>
<text xml:space="preserve" text-anchor="start" x="11.75" y="-148.63" font-family="Helvetica,sans-Serif" font-size="10.00">MainWindow::populateAttribute</text>
<text xml:space="preserve" text-anchor="middle" x="79.62" y="-136.63" font-family="Helvetica,sans-Serif" font-size="10.00">Properties</text>
</a>
</g>
</g>
<!-- Node5&#45;&gt;Node7 -->
<g id="edge12_Node000005_Node000007" class="edge">
<title>Node5&#45;&gt;Node7</title>
<g id="a_edge12_Node000005_Node000007"><a xlink:title=" ">
<path fill="none" stroke="#63b8ff" d="M602.42,-121.74C486.8,-127.14 270.24,-137.26 155.85,-142.61"/>
<polygon fill="#63b8ff" stroke="#63b8ff" points="602.29,-125.25 612.12,-121.29 601.97,-118.26 602.29,-125.25"/>
</a>
</g>
</g>
<!-- Node8 -->
<g id="Node000008" class="node">
<title>Node8</title>
<g id="a_Node000008"><a xlink:href="class_main_window.html#a40023e3590f2593fd133a6b111f63ed9" target="_top" xlink:title=" ">
<polygon fill="white" stroke="#666666" points="343.25,-82.13 202.75,-82.13 202.75,-50.13 343.25,-50.13 343.25,-82.13"/>
<text xml:space="preserve" text-anchor="start" x="210.75" y="-68.63" font-family="Helvetica,sans-Serif" font-size="10.00">MainWindow::populateEntity</text>
<text xml:space="preserve" text-anchor="middle" x="273" y="-56.63" font-family="Helvetica,sans-Serif" font-size="10.00">Properties</text>
</a>
</g>
</g>
<!-- Node5&#45;&gt;Node8 -->
<g id="edge13_Node000005_Node000008" class="edge">
<title>Node5&#45;&gt;Node8</title>
<g id="a_edge13_Node000005_Node000008"><a xlink:title=" ">
<path fill="none" stroke="#63b8ff" d="M602.45,-108.22C527.7,-98.64 415.45,-84.25 343.46,-75.03"/>
<polygon fill="#63b8ff" stroke="#63b8ff" points="601.79,-111.66 612.15,-109.46 602.68,-104.72 601.79,-111.66"/>
</a>
</g>
</g>
<!-- Node6&#45;&gt;Node1 -->
<g id="edge11_Node000006_Node000001" class="edge">
<title>Node6&#45;&gt;Node1</title>
<g id="a_edge11_Node000006_Node000001"><a xlink:title=" ">
<path fill="none" stroke="#63b8ff" d="M570.39,-13.13C652.55,-13.13 774.84,-13.13 881.38,-13.13 1079.38,-13.13 1079.38,-13.13 1079.38,-13.13 1231.49,-13.13 1391.72,-122.44 1447.99,-164.71"/>
<polygon fill="#63b8ff" stroke="#63b8ff" points="570.59,-9.63 560.59,-13.13 570.59,-16.63 570.59,-9.63"/>
</a>
</g>
</g>
<!-- Node6&#45;&gt;Node7 -->
<g id="edge6_Node000006_Node000007" class="edge">
<title>Node6&#45;&gt;Node7</title>
<g id="a_edge6_Node000006_Node000007"><a xlink:title=" ">
<path fill="none" stroke="#63b8ff" d="M414.57,-1.68C356.16,2.61 265.79,-0.55 195.25,-32.13 147.22,-53.63 105.85,-103.3 88.87,-129.72"/>
<polygon fill="#63b8ff" stroke="#63b8ff" points="414.04,-5.15 424.3,-2.51 414.63,1.83 414.04,-5.15"/>
</a>
</g>
</g>
<!-- Node6&#45;&gt;Node8 -->
<g id="edge9_Node000006_Node000008" class="edge">
<title>Node6&#45;&gt;Node8</title>
<g id="a_edge9_Node000006_Node000008"><a xlink:title=" ">
<path fill="none" stroke="#63b8ff" d="M423.49,-26.51C396.88,-33.56 364.01,-42.27 335.88,-49.73"/>
<polygon fill="#63b8ff" stroke="#63b8ff" points="424.25,-29.93 433.02,-23.99 422.46,-23.16 424.25,-29.93"/>
</a>
</g>
</g>
<!-- Node7&#45;&gt;Node2 -->
<g id="edge8_Node000007_Node000002" class="edge">
<title>Node7&#45;&gt;Node2</title>
<g id="a_edge8_Node000007_Node000002"><a xlink:title=" ">
<path fill="none" stroke="#63b8ff" d="M167.43,-152.73C247.1,-158.21 368.43,-165.13 474,-165.13 883.38,-165.13 883.38,-165.13 883.38,-165.13 989.47,-165.13 1111.96,-162.83 1189.88,-161.07"/>
<polygon fill="#63b8ff" stroke="#63b8ff" points="167.71,-149.24 157.5,-152.04 167.23,-156.22 167.71,-149.24"/>
</a>
</g>
</g>
<!-- Node7&#45;&gt;Node6 -->
<g id="edge7_Node000007_Node000006" class="edge">
<title>Node7&#45;&gt;Node6</title>
<g id="a_edge7_Node000007_Node000006"><a xlink:title=" ">
<path fill="none" stroke="#63b8ff" d="M105.49,-121.43C126.53,-98.64 158.99,-66.36 195.25,-50.13 256.85,-22.56 333.56,-16.65 390.9,-15.58"/>
<polygon fill="#63b8ff" stroke="#63b8ff" points="103.17,-118.78 99.02,-128.53 108.35,-123.5 103.17,-118.78"/>
</a>
</g>
</g>
<!-- Node8&#45;&gt;Node2 -->
<g id="edge10_Node000008_Node000002" class="edge">
<title>Node8&#45;&gt;Node2</title>
<g id="a_edge10_Node000008_Node000002"><a xlink:title=" ">
<path fill="none" stroke="#63b8ff" d="M355.09,-61.37C436.97,-56.97 567.1,-51.13 679.75,-51.13 883.38,-51.13 883.38,-51.13 883.38,-51.13 1017.52,-51.13 1168.51,-112.51 1234.7,-142.72"/>
<polygon fill="#63b8ff" stroke="#63b8ff" points="354.92,-57.87 345.13,-61.91 355.3,-64.86 354.92,-57.87"/>
</a>
</g>
</g>
<!-- Node10 -->
<g id="Node000010" class="node">
<title>Node10</title>
<g id="a_Node000010"><a xlink:href="class_main_window.html#a44aaf7bb6d9a56f53b8a7a9e4fc29f8c" target="_top" xlink:title=" ">
<polygon fill="white" stroke="#666666" points="348.5,-461.13 197.5,-461.13 197.5,-429.13 348.5,-429.13 348.5,-461.13"/>
<text xml:space="preserve" text-anchor="start" x="205.5" y="-447.63" font-family="Helvetica,sans-Serif" font-size="10.00">MainWindow::createCheckBox</text>
<text xml:space="preserve" text-anchor="middle" x="273" y="-435.63" font-family="Helvetica,sans-Serif" font-size="10.00">PropertyItem</text>
</a>
</g>
</g>
<!-- Node9&#45;&gt;Node10 -->
<g id="edge16_Node000009_Node000010" class="edge">
<title>Node9&#45;&gt;Node10</title>
<g id="a_edge16_Node000009_Node000010"><a xlink:title=" ">
<path fill="none" stroke="#63b8ff" d="M376.67,-445.13C367.33,-445.13 357.96,-445.13 348.89,-445.13"/>
<polygon fill="#63b8ff" stroke="#63b8ff" points="376.51,-448.63 386.51,-445.13 376.51,-441.63 376.51,-448.63"/>
</a>
</g>
</g>
<!-- Node10&#45;&gt;Node1 -->
<g id="edge18_Node000010_Node000001" class="edge">
<title>Node10&#45;&gt;Node1</title>
<g id="a_edge18_Node000010_Node000001"><a xlink:title=" ">
<path fill="none" stroke="#63b8ff" d="M275.51,-472.98C280.38,-532.59 300.87,-672.42 386.75,-738.13 562.27,-872.42 660.38,-789.13 881.38,-789.13 1079.38,-789.13 1079.38,-789.13 1079.38,-789.13 1221.23,-789.13 1265.05,-733.1 1349.5,-619.13 1452.27,-480.44 1466.66,-258.5 1468.67,-197.24"/>
<polygon fill="#63b8ff" stroke="#63b8ff" points="279.01,-472.77 274.8,-463.04 272.02,-473.27 279.01,-472.77"/>
</a>
</g>
</g>
<!-- Node10&#45;&gt;Node7 -->
<g id="edge17_Node000010_Node000007" class="edge">
<title>Node10&#45;&gt;Node7</title>
<g id="a_edge17_Node000010_Node000007"><a xlink:title=" ">
<path fill="none" stroke="#63b8ff" d="M240.77,-421.65C225.73,-409.27 208.19,-393.13 195.25,-376.13 140.41,-304.05 100.47,-201.66 86.28,-162.35"/>
<polygon fill="#63b8ff" stroke="#63b8ff" points="238.58,-424.38 248.57,-427.91 242.96,-418.92 238.58,-424.38"/>
</a>
</g>
</g>
<!-- Node12 -->
<g id="Node000012" class="node">
<title>Node12</title>
<g id="a_Node000012"><a xlink:href="class_main_window.html#a872e6a76dcbf858ae9d483eceddf90e1" target="_top" xlink:title=" ">
<polygon fill="white" stroke="#666666" points="350,-225.13 196,-225.13 196,-193.13 350,-193.13 350,-225.13"/>
<text xml:space="preserve" text-anchor="start" x="204" y="-211.63" font-family="Helvetica,sans-Serif" font-size="10.00">MainWindow::createComboBox</text>
<text xml:space="preserve" text-anchor="middle" x="273" y="-199.63" font-family="Helvetica,sans-Serif" font-size="10.00">PropertyItem</text>
</a>
</g>
</g>
<!-- Node11&#45;&gt;Node12 -->
<g id="edge20_Node000011_Node000012" class="edge">
<title>Node11&#45;&gt;Node12</title>
<g id="a_edge20_Node000011_Node000012"><a xlink:title=" ">
<path fill="none" stroke="#63b8ff" d="M442.44,-291.66C405.65,-273.64 345.11,-243.97 307.51,-225.55"/>
<polygon fill="#63b8ff" stroke="#63b8ff" points="440.72,-294.72 451.24,-295.97 443.8,-288.43 440.72,-294.72"/>
</a>
</g>
</g>
<!-- Node13 -->
<g id="Node000013" class="node">
<title>Node13</title>
<g id="a_Node000013"><a xlink:href="class_main_window.html#abae03a6494d13d74ed1b2e31ec1f2fc7" target="_top" xlink:title=" ">
<polygon fill="white" stroke="#666666" points="350.75,-367.13 195.25,-367.13 195.25,-335.13 350.75,-335.13 350.75,-367.13"/>
<text xml:space="preserve" text-anchor="start" x="203.25" y="-353.63" font-family="Helvetica,sans-Serif" font-size="10.00">MainWindow::createIconCombo</text>
<text xml:space="preserve" text-anchor="middle" x="273" y="-341.63" font-family="Helvetica,sans-Serif" font-size="10.00">BoxPropertyItem</text>
</a>
</g>
</g>
<!-- Node11&#45;&gt;Node13 -->
<g id="edge23_Node000011_Node000013" class="edge">
<title>Node11&#45;&gt;Node13</title>
<g id="a_edge23_Node000011_Node000013"><a xlink:title=" ">
<path fill="none" stroke="#63b8ff" d="M415.11,-320.08C394.29,-324.66 370.59,-329.88 348.64,-334.71"/>
<polygon fill="#63b8ff" stroke="#63b8ff" points="415.86,-323.5 424.87,-317.94 414.35,-316.67 415.86,-323.5"/>
</a>
</g>
</g>
<!-- Node12&#45;&gt;Node1 -->
<g id="edge22_Node000012_Node000001" class="edge">
<title>Node12&#45;&gt;Node1</title>
<g id="a_edge22_Node000012_Node000001"><a xlink:title=" ">
<path fill="none" stroke="#63b8ff" d="M361.57,-207.08C443.74,-205.35 570.07,-203.13 679.75,-203.13 1079.38,-203.13 1079.38,-203.13 1079.38,-203.13 1184.9,-203.13 1306.24,-194.98 1385.09,-188.61"/>
<polygon fill="#63b8ff" stroke="#63b8ff" points="361.71,-203.58 351.79,-207.29 361.86,-210.58 361.71,-203.58"/>
</a>
</g>
</g>
<!-- Node12&#45;&gt;Node7 -->
<g id="edge21_Node000012_Node000007" class="edge">
<title>Node12&#45;&gt;Node7</title>
<g id="a_edge21_Node000012_Node000007"><a xlink:title=" ">
<path fill="none" stroke="#63b8ff" d="M211.33,-189.15C185.28,-180.58 155.21,-170.68 130.49,-162.54"/>
<polygon fill="#63b8ff" stroke="#63b8ff" points="210.19,-192.46 220.78,-192.27 212.38,-185.81 210.19,-192.46"/>
</a>
</g>
</g>
<!-- Node14 -->
<g id="Node000014" class="node">
<title>Node14</title>
<g id="a_Node000014"><a xlink:href="class_main_window.html#af02df1238ccf49caa1c4099c88dfe465" target="_top" xlink:title=" ">
<polygon fill="white" stroke="#666666" points="159.25,-468.13 0,-468.13 0,-436.13 159.25,-436.13 159.25,-468.13"/>
<text xml:space="preserve" text-anchor="start" x="8" y="-454.63" font-family="Helvetica,sans-Serif" font-size="10.00">MainWindow::populateProperties</text>
<text xml:space="preserve" text-anchor="middle" x="79.62" y="-442.63" font-family="Helvetica,sans-Serif" font-size="10.00">ForConnection</text>
</a>
</g>
</g>
<!-- Node13&#45;&gt;Node14 -->
<g id="edge24_Node000013_Node000014" class="edge">
<title>Node13&#45;&gt;Node14</title>
<g id="a_edge24_Node000013_Node000014"><a xlink:title=" ">
<path fill="none" stroke="#63b8ff" d="M230.73,-372.91C195.02,-391.75 144.17,-418.59 111.79,-435.68"/>
<polygon fill="#63b8ff" stroke="#63b8ff" points="232.28,-376.05 239.49,-368.29 229.01,-369.86 232.28,-376.05"/>
</a>
</g>
</g>
<!-- Node14&#45;&gt;Node3 -->
<g id="edge25_Node000014_Node000003" class="edge">
<title>Node14&#45;&gt;Node3</title>
<g id="a_edge25_Node000014_Node000003"><a xlink:title=" ">
<path fill="none" stroke="#63b8ff" d="M110.95,-475.06C174.59,-520.82 328.27,-619.13 474,-619.13 681.75,-619.13 681.75,-619.13 681.75,-619.13 811.27,-619.13 843.82,-598.66 966.5,-557.13 994.69,-547.58 1025.21,-532.92 1047.08,-521.6"/>
<polygon fill="#63b8ff" stroke="#63b8ff" points="113.24,-472.39 103.1,-469.33 109.12,-478.05 113.24,-472.39"/>
</a>
</g>
</g>
<!-- Node16 -->
<g id="Node000016" class="node">
<title>Node16</title>
<g id="a_Node000016"><a xlink:href="class_main_window.html#ae3b6600dd59da1822ef94bbd5f37f0cc" target="_top" xlink:title=" ">
<polygon fill="white" stroke="#666666" points="545.25,-729.13 404.75,-729.13 404.75,-697.13 545.25,-697.13 545.25,-729.13"/>
<text xml:space="preserve" text-anchor="start" x="412.75" y="-715.63" font-family="Helvetica,sans-Serif" font-size="10.00">MainWindow::createLineEdit</text>
<text xml:space="preserve" text-anchor="middle" x="475" y="-703.63" font-family="Helvetica,sans-Serif" font-size="10.00">PropertyItem</text>
</a>
</g>
</g>
<!-- Node15&#45;&gt;Node16 -->
<g id="edge27_Node000015_Node000016" class="edge">
<title>Node15&#45;&gt;Node16</title>
<g id="a_edge27_Node000015_Node000016"><a xlink:title=" ">
<path fill="none" stroke="#63b8ff" d="M664.35,-599.87C643.73,-623.77 604.91,-664.77 563.25,-688.13 557.48,-691.36 551.25,-694.21 544.87,-696.71"/>
<polygon fill="#63b8ff" stroke="#63b8ff" points="666.8,-602.39 670.58,-592.5 661.45,-597.87 666.8,-602.39"/>
</a>
</g>
</g>
<!-- Node16&#45;&gt;Node1 -->
<g id="edge28_Node000016_Node000001" class="edge">
<title>Node16&#45;&gt;Node1</title>
<g id="a_edge28_Node000016_Node000001"><a xlink:title=" ">
<path fill="none" stroke="#63b8ff" d="M557.05,-713.13C638.88,-713.13 768.9,-713.13 881.38,-713.13 1079.38,-713.13 1079.38,-713.13 1079.38,-713.13 1341.83,-713.13 1446.68,-286.5 1465.72,-197.34"/>
<polygon fill="#63b8ff" stroke="#63b8ff" points="557.09,-709.63 547.09,-713.13 557.09,-716.63 557.09,-709.63"/>
</a>
</g>
</g>
<!-- Node17&#45;&gt;Node3 -->
<g id="edge32_Node000017_Node000003" class="edge">
<title>Node17&#45;&gt;Node3</title>
<g id="a_edge32_Node000017_Node000003"><a xlink:title=" ">
<path fill="none" stroke="#63b8ff" d="M548.74,-681.48C648.61,-697.77 831.18,-709.01 966.5,-642.13 1019.48,-615.94 1057.61,-551.97 1071.56,-521.33"/>
<polygon fill="#63b8ff" stroke="#63b8ff" points="549.51,-678.06 539.06,-679.83 548.33,-684.96 549.51,-678.06"/>
</a>
</g>
</g>
<!-- Node18 -->
<g id="Node000018" class="node">
<title>Node18</title>
<g id="a_Node000018"><a xlink:href="class_main_window.html#adfa32feecffce3959c99d145fc8b4854" target="_top" xlink:title=" ">
<polygon fill="white" stroke="#666666" points="345.5,-739.13 200.5,-739.13 200.5,-719.13 345.5,-719.13 345.5,-739.13"/>
<text xml:space="preserve" text-anchor="middle" x="273" y="-725.63" font-family="Helvetica,sans-Serif" font-size="10.00">MainWindow::connectSignals</text>
</a>
</g>
</g>
<!-- Node17&#45;&gt;Node18 -->
<g id="edge30_Node000017_Node000018" class="edge">
<title>Node17&#45;&gt;Node18</title>
<g id="a_edge30_Node000017_Node000018"><a xlink:title=" ">
<path fill="none" stroke="#63b8ff" d="M404.1,-682.69C398.22,-684.48 392.37,-686.3 386.75,-688.13 357.23,-697.71 323.88,-710.03 301.16,-718.65"/>
<polygon fill="#63b8ff" stroke="#63b8ff" points="404.67,-686.17 413.25,-679.95 402.66,-679.46 404.67,-686.17"/>
</a>
</g>
</g>
<!-- Node19 -->
<g id="Node000019" class="node">
<title>Node19</title>
<g id="a_Node000019"><a xlink:href="class_main_window.html#a996c5a2b6f77944776856f08ec30858d" target="_top" xlink:title=" ">
<polygon fill="white" stroke="#666666" points="146.88,-739.13 12.38,-739.13 12.38,-719.13 146.88,-719.13 146.88,-739.13"/>
<text xml:space="preserve" text-anchor="middle" x="79.62" y="-725.63" font-family="Helvetica,sans-Serif" font-size="10.00">MainWindow::MainWindow</text>
</a>
</g>
</g>
<!-- Node18&#45;&gt;Node19 -->
<g id="edge31_Node000018_Node000019" class="edge">
<title>Node18&#45;&gt;Node19</title>
<g id="a_edge31_Node000018_Node000019"><a xlink:title=" ">
<path fill="none" stroke="#63b8ff" d="M189.06,-729.13C175.05,-729.13 160.67,-729.13 147.14,-729.13"/>
<polygon fill="#63b8ff" stroke="#63b8ff" points="188.68,-732.63 198.68,-729.13 188.68,-725.63 188.68,-732.63"/>
</a>
</g>
</g>
<!-- Node20&#45;&gt;Node5 -->
<g id="edge34_Node000020_Node000005" class="edge">
<title>Node20&#45;&gt;Node5</title>
<g id="a_edge34_Node000020_Node000005"><a xlink:title=" ">
<path fill="none" stroke="#63b8ff" d="M846.53,-224.61C806.71,-198.88 742.5,-157.39 707.14,-134.54"/>
<polygon fill="#63b8ff" stroke="#63b8ff" points="844.52,-227.48 854.82,-229.97 848.32,-221.6 844.52,-227.48"/>
</a>
</g>
</g>
<!-- Node21&#45;&gt;Node18 -->
<g id="edge36_Node000021_Node000018" class="edge">
<title>Node21&#45;&gt;Node18</title>
<g id="a_edge36_Node000021_Node000018"><a xlink:title=" ">
<path fill="none" stroke="#63b8ff" d="M786.95,-750.14C687.37,-748.75 525.93,-745.51 386.75,-738.13 373.51,-737.42 359.42,-736.47 345.84,-735.44"/>
<polygon fill="#63b8ff" stroke="#63b8ff" points="786.62,-753.64 796.67,-750.27 786.72,-746.64 786.62,-753.64"/>
</a>
</g>
</g>
<!-- Node22&#45;&gt;Node9 -->
<g id="edge46_Node000022_Node000009" class="edge">
<title>Node22&#45;&gt;Node9</title>
<g id="a_edge46_Node000022_Node000009"><a xlink:title=" ">
<path fill="none" stroke="#63b8ff" d="M803.76,-446.6C789.94,-447.24 775.67,-447.79 762.25,-448.13 695.05,-449.82 618.96,-448.88 562.13,-447.63"/>
<polygon fill="#63b8ff" stroke="#63b8ff" points="803.9,-450.1 813.72,-446.12 803.57,-443.11 803.9,-450.1"/>
</a>
</g>
</g>
<!-- Node22&#45;&gt;Node11 -->
<g id="edge47_Node000022_Node000011" class="edge">
<title>Node22&#45;&gt;Node11</title>
<g id="a_edge47_Node000022_Node000011"><a xlink:title=" ">
<path fill="none" stroke="#63b8ff" d="M858.36,-417.74C836.02,-395.71 800.04,-364.33 762.25,-348.13 699.27,-321.12 622.07,-311.25 563.72,-307.93"/>
<polygon fill="#63b8ff" stroke="#63b8ff" points="855.64,-419.97 865.16,-424.6 860.61,-415.04 855.64,-419.97"/>
</a>
</g>
</g>
<!-- Node22&#45;&gt;Node15 -->
<g id="edge48_Node000022_Node000015" class="edge">
<title>Node22&#45;&gt;Node15</title>
<g id="a_edge48_Node000022_Node000015"><a xlink:title=" ">
<path fill="none" stroke="#63b8ff" d="M861.65,-467.28C839.93,-493.34 802.7,-533.49 762.25,-557.13 752.55,-562.79 741.41,-567.22 730.56,-570.64"/>
<polygon fill="#63b8ff" stroke="#63b8ff" points="864.35,-469.5 867.96,-459.55 858.93,-465.08 864.35,-469.5"/>
</a>
</g>
</g>
<!-- Node22&#45;&gt;Node17 -->
<g id="edge49_Node000022_Node000017" class="edge">
<title>Node22&#45;&gt;Node17</title>
<g id="a_edge49_Node000022_Node000017"><a xlink:title=" ">
<path fill="none" stroke="#63b8ff" d="M820.54,-462.3C761.71,-483.11 671.16,-518.6 599.25,-562.13 557.83,-587.2 515.45,-625.19 492.77,-646.72"/>
<polygon fill="#63b8ff" stroke="#63b8ff" points="821.43,-465.7 829.71,-459.09 819.12,-459.09 821.43,-465.7"/>
</a>
</g>
</g>
<!-- Node23 -->
<g id="Node000023" class="node">
<title>Node23</title>
<g id="a_Node000023"><a xlink:href="class_main_window.html#a9ed390421f6755b891cfc651d173db7b" target="_top" xlink:title=" ">
<polygon fill="white" stroke="#666666" points="752.5,-439.13 609,-439.13 609,-407.13 752.5,-407.13 752.5,-439.13"/>
<text xml:space="preserve" text-anchor="start" x="617" y="-425.63" font-family="Helvetica,sans-Serif" font-size="10.00">MainWindow::handleAttribute</text>
<text xml:space="preserve" text-anchor="middle" x="680.75" y="-413.63" font-family="Helvetica,sans-Serif" font-size="10.00">PropertyChange</text>
</a>
</g>
</g>
<!-- Node22&#45;&gt;Node23 -->
<g id="edge38_Node000022_Node000023" class="edge">
<title>Node22&#45;&gt;Node23</title>
<g id="a_edge38_Node000022_Node000023"><a xlink:title=" ">
<path fill="none" stroke="#63b8ff" d="M803.75,-434.74C787.01,-433.15 769.39,-431.47 752.91,-429.9"/>
<polygon fill="#63b8ff" stroke="#63b8ff" points="803.39,-438.22 813.67,-435.68 804.05,-431.25 803.39,-438.22"/>
</a>
</g>
</g>
<!-- Node24 -->
<g id="Node000024" class="node">
<title>Node24</title>
<g id="a_Node000024"><a xlink:href="class_main_window.html#aa69c4b7c558b2fb3922adf75af48330a" target="_top" xlink:title=" ">
<polygon fill="white" stroke="#666666" points="761.12,-301.13 600.38,-301.13 600.38,-269.13 761.12,-269.13 761.12,-301.13"/>
<text xml:space="preserve" text-anchor="start" x="608.38" y="-287.63" font-family="Helvetica,sans-Serif" font-size="10.00">MainWindow::handleRelationship</text>
<text xml:space="preserve" text-anchor="middle" x="680.75" y="-275.63" font-family="Helvetica,sans-Serif" font-size="10.00">EndCardinalityChange</text>
</a>
</g>
</g>
<!-- Node22&#45;&gt;Node24 -->
<g id="edge42_Node000022_Node000024" class="edge">
<title>Node22&#45;&gt;Node24</title>
<g id="a_edge42_Node000022_Node000024"><a xlink:title=" ">
<path fill="none" stroke="#63b8ff" d="M857.92,-417.96C841.16,-400.61 818.15,-376.58 798.25,-355.13 781.99,-337.59 782.03,-328.58 762.25,-315.13 754.48,-309.84 745.66,-305.34 736.78,-301.56"/>
<polygon fill="#63b8ff" stroke="#63b8ff" points="855.08,-420.07 864.55,-424.82 860.11,-415.2 855.08,-420.07"/>
</a>
</g>
</g>
<!-- Node25 -->
<g id="Node000025" class="node">
<title>Node25</title>
<g id="a_Node000025"><a xlink:href="class_main_window.html#a96d575a529f7c24b1b5094b4b1e42742" target="_top" xlink:title=" ">
<polygon fill="white" stroke="#666666" points="761.12,-389.13 600.38,-389.13 600.38,-357.13 761.12,-357.13 761.12,-389.13"/>
<text xml:space="preserve" text-anchor="start" x="608.38" y="-375.63" font-family="Helvetica,sans-Serif" font-size="10.00">MainWindow::handleRelationship</text>
<text xml:space="preserve" text-anchor="middle" x="680.75" y="-363.63" font-family="Helvetica,sans-Serif" font-size="10.00">EndParticipationChange</text>
</a>
</g>
</g>
<!-- Node22&#45;&gt;Node25 -->
<g id="edge44_Node000022_Node000025" class="edge">
<title>Node22&#45;&gt;Node25</title>
<g id="a_edge44_Node000022_Node000025"><a xlink:title=" ">
<path fill="none" stroke="#63b8ff" d="M827.87,-421.68C807.42,-414.05 783.84,-405.46 762.25,-398.13 753.8,-395.26 744.8,-392.33 736,-389.55"/>
<polygon fill="#63b8ff" stroke="#63b8ff" points="826.55,-424.93 837.14,-425.16 829.01,-418.37 826.55,-424.93"/>
</a>
</g>
</g>
<!-- Node23&#45;&gt;Node9 -->
<g id="edge39_Node000023_Node000009" class="edge">
<title>Node23&#45;&gt;Node9</title>
<g id="a_edge39_Node000023_Node000009"><a xlink:title=" ">
<path fill="none" stroke="#63b8ff" d="M597.33,-432.03C585.74,-433.28 573.81,-434.57 562.15,-435.82"/>
<polygon fill="#63b8ff" stroke="#63b8ff" points="597.7,-435.51 607.27,-430.95 596.95,-428.55 597.7,-435.51"/>
</a>
</g>
</g>
<!-- Node23&#45;&gt;Node11 -->
<g id="edge40_Node000023_Node000011" class="edge">
<title>Node23&#45;&gt;Node11</title>
<g id="a_edge40_Node000023_Node000011"><a xlink:title=" ">
<path fill="none" stroke="#63b8ff" d="M608.65,-402.52C605.43,-401.13 602.29,-399.66 599.25,-398.13 554.16,-375.3 508.11,-336.23 487.36,-317.6"/>
<polygon fill="#63b8ff" stroke="#63b8ff" points="607.1,-405.67 617.69,-406.15 609.71,-399.17 607.1,-405.67"/>
</a>
</g>
</g>
<!-- Node23&#45;&gt;Node17 -->
<g id="edge41_Node000023_Node000017" class="edge">
<title>Node23&#45;&gt;Node17</title>
<g id="a_edge41_Node000023_Node000017"><a xlink:title=" ">
<path fill="none" stroke="#63b8ff" d="M658.55,-448.1C616.76,-497.32 524.77,-605.68 489.83,-646.83"/>
<polygon fill="#63b8ff" stroke="#63b8ff" points="660.96,-450.67 664.77,-440.78 655.63,-446.13 660.96,-450.67"/>
</a>
</g>
</g>
<!-- Node24&#45;&gt;Node11 -->
<g id="edge43_Node000024_Node000011" class="edge">
<title>Node24&#45;&gt;Node11</title>
<g id="a_edge43_Node000024_Node000011"><a xlink:title=" ">
<path fill="none" stroke="#63b8ff" d="M588.8,-294.95C580.45,-295.85 572.01,-296.76 563.69,-297.66"/>
<polygon fill="#63b8ff" stroke="#63b8ff" points="589.03,-298.44 598.59,-293.89 588.28,-291.48 589.03,-298.44"/>
</a>
</g>
</g>
<!-- Node25&#45;&gt;Node9 -->
<g id="edge45_Node000025_Node000009" class="edge">
<title>Node25&#45;&gt;Node9</title>
<g id="a_edge45_Node000025_Node000009"><a xlink:title=" ">
<path fill="none" stroke="#63b8ff" d="M614.45,-393.02C609.29,-394.71 604.18,-396.42 599.25,-398.13 565.27,-409.87 526.61,-424.89 501.79,-434.74"/>
<polygon fill="#63b8ff" stroke="#63b8ff" points="615.15,-396.47 623.6,-390.07 613.01,-389.81 615.15,-396.47"/>
</a>
</g>
</g>
</g>
</svg>

<g id="navigator" transform="translate(0 0)" fill="#404254">
  <rect fill="#f2f5e9" fill-opacity="0.5" stroke="#606060" stroke-width=".5" x="0" y="0" width="60" height="60"/>
  <use id="zoomplus" xlink:href="#zoomPlus" x="17" y="9" onmousedown="handleZoom(evt,'in')"/>
  <use id="zoomminus" xlink:href="#zoomMin" x="42" y="9" onmousedown="handleZoom(evt,'out')"/>
  <use id="reset" xlink:href="#resetDef" x="30" y="36" onmousedown="handleReset()"/>
   <use id="arrowup" xlink:href="#arrowUp" x="0" y="0" onmousedown="handlePan(0,-1)"/>
  <use id="arrowright" xlink:href="#arrowRight" x="0" y="0" onmousedown="handlePan(1,0)"/>
  <use id="arrowdown" xlink:href="#arrowDown" x="0" y="0" onmousedown="handlePan(0,1)"/>
  <use id="arrowleft" xlink:href="#arrowLeft" x="0" y="0" onmousedown="handlePan(-1,0)"/>
</g>
<svg viewBox="0 0 15 15" width="100%" height="30px" preserveAspectRatio="xMaxYMin meet">
 <g id="arrow_out" transform="scale(0.3 0.3)">
  <a xlink:href="class_main_window_a1049a5796ac248f40a3b4110ed5faf77_icgraph_org.svg" target="_base">
   <rect id="button" ry="5" rx="5" y="6" x="6" height="38" width="38"
        fill="#f2f5e9" fill-opacity="0.5" stroke="#606060" stroke-width="1.0"/>
   <path id="arrow"
     d="M 11.500037,31.436501 C 11.940474,20.09759 22.043105,11.32322 32.158766,21.979434 L 37.068811,17.246167 C 37.068811,17.246167 37.088388,32 37.088388,32 L 22.160133,31.978069 C 22.160133,31.978069 26.997745,27.140456 26.997745,27.140456 C 18.528582,18.264221 13.291696,25.230495 11.500037,31.436501 z"
     style="fill:#404040;"/>
  </a>
 </g>
</svg>

<style type='text/css'>
<![CDATA[
[data-mouse-over-selected='false'] { opacity: 0.7; }
[data-mouse-over-selected='true']  { opacity: 1.0; }
]]>
</style>
<script type="application/ecmascript"><![CDATA[
document.addEventListener('DOMContentLoaded', (event) => {
  highlightEdges();
  highlightAdjacentNodes();
});
]]></script>
</svg>
