<?xml version="1.0" encoding="UTF-8" standalone="no"?>
<!DOCTYPE svg PUBLIC "-//W3C//DTD SVG 1.1//EN"
 "http://www.w3.org/Graphics/SVG/1.1/DTD/svg11.dtd">
<!-- Generated by graphviz version 14.1.1 (20251213.1925)
 -->
<!-- Title: Attribute::Attribute Pages: 1 -->
<svg width="235pt" height="104pt"
 viewBox="0.00 0.00 235.00 104.00" xmlns="http://www.w3.org/2000/svg" xmlns:xlink="http://www.w3.org/1999/xlink">
<g id="graph0" class="graph" transform="scale(1 1) rotate(0) translate(4 100)">
<title>Attribute::Attribute</title>
<!-- Node1 -->
<g id="Node000001" class="node">
<title>Node1</title>
<g id="a_Node000001"><a xlink:title=" ">
<polygon fill="#999999" stroke="#666666" points="227,-58 131.5,-58 131.5,-38 227,-38 227,-58"/>
<text xml:space="preserve" text-anchor="middle" x="179.25" y="-44.5" font-family="Helvetica,sans-Serif" font-size="10.00">Attribute::Attribute</text>
</a>
</g>
</g>
<!-- Node1&#45;&gt;Node1 -->
<g id="edge4_Node000001_Node000001" class="edge">
<title>Node1&#45;&gt;Node1</title>
<g id="a_edge4_Node000001_Node000001"><a xlink:title=" ">
<path fill="none" stroke="#63b8ff" d="M202.49,-69.44C199.5,-73.3 191.75,-76 179.25,-76 156.39,-76 149.43,-66.98 158.36,-58.34"/>
<polygon fill="#63b8ff" stroke="#63b8ff" points="205.95,-68.88 200.46,-59.82 199.1,-70.33 205.95,-68.88"/>
</a>
</g>
</g>
<!-- Node2 -->
<g id="Node000002" class="node">
<title>Node2</title>
<g id="a_Node000002"><a xlink:href="class_attribute.html#af93ebaed48e35e2dbbf0abbb5ad5c688" target="_top" xlink:title=" ">
<polygon fill="white" stroke="#666666" points="95.5,-96 0,-96 0,-76 95.5,-76 95.5,-96"/>
<text xml:space="preserve" text-anchor="middle" x="47.75" y="-82.5" font-family="Helvetica,sans-Serif" font-size="10.00">Attribute::Attribute</text>
</a>
</g>
</g>
<!-- Node1&#45;&gt;Node2 -->
<g id="edge1_Node000001_Node000002" class="edge">
<title>Node1&#45;&gt;Node2</title>
<g id="a_edge1_Node000001_Node000002"><a xlink:title=" ">
<path fill="none" stroke="#63b8ff" d="M131.52,-61.71C115.98,-66.27 98.93,-71.28 84.36,-75.55"/>
<polygon fill="#63b8ff" stroke="#63b8ff" points="132.46,-65.08 141.07,-58.91 130.49,-58.37 132.46,-65.08"/>
</a>
</g>
</g>
<!-- Node3 -->
<g id="Node000003" class="node">
<title>Node3</title>
<g id="a_Node000003"><a xlink:href="class_attribute.html#a069397c04d49d00d9c2f50d6cbe7abe6" target="_top" xlink:title=" ">
<polygon fill="white" stroke="#666666" points="95.5,-58 0,-58 0,-38 95.5,-38 95.5,-58"/>
<text xml:space="preserve" text-anchor="middle" x="47.75" y="-44.5" font-family="Helvetica,sans-Serif" font-size="10.00">Attribute::Attribute</text>
</a>
</g>
</g>
<!-- Node1&#45;&gt;Node3 -->
<g id="edge2_Node000001_Node000003" class="edge">
<title>Node1&#45;&gt;Node3</title>
<g id="a_edge2_Node000001_Node000003"><a xlink:title=" ">
<path fill="none" stroke="#63b8ff" d="M119.82,-48C111.71,-48 103.47,-48 95.62,-48"/>
<polygon fill="#63b8ff" stroke="#63b8ff" points="119.62,-51.5 129.62,-48 119.62,-44.5 119.62,-51.5"/>
</a>
</g>
</g>
<!-- Node4 -->
<g id="Node000004" class="node">
<title>Node4</title>
<g id="a_Node000004"><a xlink:href="class_attribute.html#add9e11d2b5f40d9d51bc7e4aeb4904db" target="_top" xlink:title=" ">
<polygon fill="white" stroke="#666666" points="95.5,-20 0,-20 0,0 95.5,0 95.5,-20"/>
<text xml:space="preserve" text-anchor="middle" x="47.75" y="-6.5" font-family="Helvetica,sans-Serif" font-size="10.00">Attribute::Attribute</text>
</a>
</g>
</g>
<!-- Node1&#45;&gt;Node4 -->
<g id="edge3_Node000001_Node000004" class="edge">
<title>Node1&#45;&gt;Node4</title>
<g id="a_edge3_Node000001_Node000004"><a xlink:title=" ">
<path fill="none" stroke="#63b8ff" d="M131.52,-34.29C115.98,-29.73 98.93,-24.72 84.36,-20.45"/>
<polygon fill="#63b8ff" stroke="#63b8ff" points="130.49,-37.63 141.07,-37.09 132.46,-30.92 130.49,-37.63"/>
</a>
</g>
</g>
</g>
</svg>
