<?xml version="1.0" encoding="UTF-8" standalone="no"?>
<!DOCTYPE svg PUBLIC "-//W3C//DTD SVG 1.1//EN"
 "http://www.w3.org/Graphics/SVG/1.1/DTD/svg11.dtd">
<!-- Generated by graphviz version 14.1.1 (20251213.1925)
 -->
<!-- Title: MainWindow::openFile Pages: 1 -->
<svg width="640pt" height="132pt"
 viewBox="0.00 0.00 640.00 132.00" xmlns="http://www.w3.org/2000/svg" xmlns:xlink="http://www.w3.org/1999/xlink">
<g id="graph0" class="graph" transform="scale(1 1) rotate(0) translate(4 128.12)">
<title>MainWindow::openFile</title>
<!-- Node1 -->
<g id="Node000001" class="node">
<title>Node1</title>
<g id="a_Node000001"><a xlink:title=" ">
<polygon fill="#999999" stroke="#666666" points="115,-29.12 0,-29.12 0,-9.12 115,-9.12 115,-29.12"/>
<text xml:space="preserve" text-anchor="middle" x="57.5" y="-15.62" font-family="Helvetica,sans-Serif" font-size="10.00">MainWindow::openFile</text>
</a>
</g>
</g>
<!-- Node2 -->
<g id="Node000002" class="node">
<title>Node2</title>
<g id="a_Node000002"><a xlink:href="class_main_window.html#a464aaa4d378e7b2d814756a73d6e1ed6" target="_top" xlink:title=" ">
<polygon fill="white" stroke="#666666" points="266,-67.12 151,-67.12 151,-47.12 266,-47.12 266,-67.12"/>
<text xml:space="preserve" text-anchor="middle" x="208.5" y="-53.62" font-family="Helvetica,sans-Serif" font-size="10.00">MainWindow::saveFile</text>
</a>
</g>
</g>
<!-- Node1&#45;&gt;Node2 -->
<g id="edge1_Node000001_Node000002" class="edge">
<title>Node1&#45;&gt;Node2</title>
<g id="a_edge1_Node000001_Node000002"><a xlink:title=" ">
<path fill="none" stroke="#63b8ff" d="M99.61,-29.6C116.87,-34 137.15,-39.17 155.44,-43.84"/>
<polygon fill="#63b8ff" stroke="#63b8ff" points="154.5,-47.21 165.06,-46.29 156.23,-40.43 154.5,-47.21"/>
</a>
</g>
</g>
<!-- Node4 -->
<g id="Node000004" class="node">
<title>Node4</title>
<g id="a_Node000004"><a xlink:href="class_main_window.html#a90cfbcf2e0f2549760a60f184ee0acbf" target="_top" xlink:title=" ">
<polygon fill="white" stroke="#666666" points="631.75,-92.12 489,-92.12 489,-60.12 631.75,-60.12 631.75,-92.12"/>
<text xml:space="preserve" text-anchor="start" x="497" y="-78.62" font-family="Helvetica,sans-Serif" font-size="10.00">MainWindow::updateWindow</text>
<text xml:space="preserve" text-anchor="middle" x="560.38" y="-66.62" font-family="Helvetica,sans-Serif" font-size="10.00">Title</text>
</a>
</g>
</g>
<!-- Node1&#45;&gt;Node4 -->
<g id="edge6_Node000001_Node000004" class="edge">
<title>Node1&#45;&gt;Node4</title>
<g id="a_edge6_Node000001_Node000004"><a xlink:title=" ">
<path fill="none" stroke="#63b8ff" d="M115.41,-10.56C193.06,-0.8 335.92,10.28 453,-19.12 479.6,-25.79 506.81,-40.54 527.05,-53.36"/>
<polygon fill="#63b8ff" stroke="#63b8ff" points="525.12,-56.29 535.4,-58.82 528.94,-50.42 525.12,-56.29"/>
</a>
</g>
</g>
<!-- Node3 -->
<g id="Node000003" class="node">
<title>Node3</title>
<g id="a_Node000003"><a xlink:href="class_main_window.html#ace1b7624a64f4d70513b86601e5846f9" target="_top" xlink:title=" ">
<polygon fill="white" stroke="#666666" points="441,-124.12 314,-124.12 314,-104.12 441,-104.12 441,-124.12"/>
<text xml:space="preserve" text-anchor="middle" x="377.5" y="-110.62" font-family="Helvetica,sans-Serif" font-size="10.00">MainWindow::saveAsFile</text>
</a>
</g>
</g>
<!-- Node2&#45;&gt;Node3 -->
<g id="edge2_Node000002_Node000003" class="edge">
<title>Node2&#45;&gt;Node3</title>
<g id="a_edge2_Node000002_Node000003"><a xlink:title=" ">
<path fill="none" stroke="#63b8ff" d="M238.17,-67.6C256.4,-74.21 280.53,-82.83 302,-90.12 311.92,-93.48 322.63,-97 332.74,-100.27"/>
<polygon fill="#63b8ff" stroke="#63b8ff" points="331.39,-103.51 341.98,-103.24 333.53,-96.85 331.39,-103.51"/>
</a>
</g>
</g>
<!-- Node2&#45;&gt;Node4 -->
<g id="edge5_Node000002_Node000004" class="edge">
<title>Node2&#45;&gt;Node4</title>
<g id="a_edge5_Node000002_Node000004"><a xlink:title=" ">
<path fill="none" stroke="#63b8ff" d="M266.49,-60.21C323.67,-63.32 412.3,-68.13 477.1,-71.65"/>
<polygon fill="#63b8ff" stroke="#63b8ff" points="476.82,-75.14 486.99,-72.19 477.2,-68.15 476.82,-75.14"/>
</a>
</g>
</g>
<!-- Node5 -->
<g id="Node000005" class="node">
<title>Node5</title>
<g id="a_Node000005"><a xlink:href="class_main_window.html#a51ab21a1be4a1389a00bdb35feee8d64" target="_top" xlink:title=" ">
<polygon fill="white" stroke="#666666" points="453,-48.12 302,-48.12 302,-28.12 453,-28.12 453,-48.12"/>
<text xml:space="preserve" text-anchor="middle" x="377.5" y="-34.62" font-family="Helvetica,sans-Serif" font-size="10.00">MainWindow::updateStatusBar</text>
</a>
</g>
</g>
<!-- Node2&#45;&gt;Node5 -->
<g id="edge4_Node000002_Node000005" class="edge">
<title>Node2&#45;&gt;Node5</title>
<g id="a_edge4_Node000002_Node000005"><a xlink:title=" ">
<path fill="none" stroke="#63b8ff" d="M266.04,-50.68C273.91,-49.79 282.14,-48.85 290.4,-47.91"/>
<polygon fill="#63b8ff" stroke="#63b8ff" points="290.62,-51.41 300.16,-46.8 289.83,-44.45 290.62,-51.41"/>
</a>
</g>
</g>
<!-- Node3&#45;&gt;Node4 -->
<g id="edge3_Node000003_Node000004" class="edge">
<title>Node3&#45;&gt;Node4</title>
<g id="a_edge3_Node000003_Node000004"><a xlink:title=" ">
<path fill="none" stroke="#63b8ff" d="M428.4,-103.63C443.67,-100.42 460.88,-96.81 477.69,-93.28"/>
<polygon fill="#63b8ff" stroke="#63b8ff" points="478.1,-96.77 487.17,-91.29 476.66,-89.92 478.1,-96.77"/>
</a>
</g>
</g>
</g>
</svg>
