<?xml version="1.0" encoding="UTF-8" standalone="no"?>
<!DOCTYPE svg PUBLIC "-//W3C//DTD SVG 1.1//EN"
 "http://www.w3.org/Graphics/SVG/1.1/DTD/svg11.dtd">
<!-- Generated by graphviz version 14.1.1 (20251213.1925)
 -->
<!-- Title: BasicElement::BasicElement Pages: 1 -->
<svg width="1075pt" height="115pt"
 viewBox="0.00 0.00 1075.00 115.00" xmlns="http://www.w3.org/2000/svg" xmlns:xlink="http://www.w3.org/1999/xlink">
<g id="graph0" class="graph" transform="scale(1 1) rotate(0) translate(4 111)">
<title>BasicElement::BasicElement</title>
<!-- Node1 -->
<g id="Node000001" class="node">
<title>Node1</title>
<g id="a_Node000001"><a xlink:title=" ">
<polygon fill="#999999" stroke="#666666" points="143.5,-57 0,-57 0,-37 143.5,-37 143.5,-57"/>
<text xml:space="preserve" text-anchor="middle" x="71.75" y="-43.5" font-family="Helvetica,sans-Serif" font-size="10.00">BasicElement::BasicElement</text>
</a>
</g>
</g>
<!-- Node2 -->
<g id="Node000002" class="node">
<title>Node2</title>
<g id="a_Node000002"><a xlink:href="class_basic_element.html#a85cccd7db0e46e4e2b646365cd6c66a9" target="_top" xlink:title=" ">
<polygon fill="white" stroke="#666666" points="323,-38 179.5,-38 179.5,-18 323,-18 323,-38"/>
<text xml:space="preserve" text-anchor="middle" x="251.25" y="-24.5" font-family="Helvetica,sans-Serif" font-size="10.00">BasicElement::BasicElement</text>
</a>
</g>
</g>
<!-- Node1&#45;&gt;Node2 -->
<g id="edge1_Node000001_Node000002" class="edge">
<title>Node1&#45;&gt;Node2</title>
<g id="a_edge1_Node000001_Node000002"><a xlink:title=" ">
<path fill="none" stroke="#63b8ff" d="M143.92,-39.38C151.79,-38.54 159.85,-37.68 167.84,-36.82"/>
<polygon fill="#63b8ff" stroke="#63b8ff" points="167.99,-40.33 177.56,-35.78 167.24,-33.37 167.99,-40.33"/>
</a>
</g>
</g>
<!-- Node3 -->
<g id="Node000003" class="node">
<title>Node3</title>
<g id="a_Node000003"><a xlink:href="class_basic_element.html#a78e2ce29aa5b2a9fae74cf435996ce8b" target="_top" xlink:title=" ">
<polygon fill="white" stroke="#666666" points="503.25,-82 359,-82 359,-50 503.25,-50 503.25,-82"/>
<text xml:space="preserve" text-anchor="start" x="367" y="-68.5" font-family="Helvetica,sans-Serif" font-size="10.00">BasicElement::createAndAdd</text>
<text xml:space="preserve" text-anchor="middle" x="431.12" y="-56.5" font-family="Helvetica,sans-Serif" font-size="10.00">DefaultConnectionPoints</text>
</a>
</g>
</g>
<!-- Node1&#45;&gt;Node3 -->
<g id="edge8_Node000001_Node000003" class="edge">
<title>Node1&#45;&gt;Node3</title>
<g id="a_edge8_Node000001_Node000003"><a xlink:title=" ">
<path fill="none" stroke="#63b8ff" d="M143.78,-50.78C202.42,-53.89 285.72,-58.32 347.37,-61.6"/>
<polygon fill="#63b8ff" stroke="#63b8ff" points="346.93,-65.08 357.1,-62.12 347.3,-58.09 346.93,-65.08"/>
</a>
</g>
</g>
<!-- Node2&#45;&gt;Node3 -->
<g id="edge2_Node000002_Node000003" class="edge">
<title>Node2&#45;&gt;Node3</title>
<g id="a_edge2_Node000002_Node000003"><a xlink:title=" ">
<path fill="none" stroke="#63b8ff" d="M301.33,-38.48C315.7,-41.55 331.82,-45 347.66,-48.38"/>
<polygon fill="#63b8ff" stroke="#63b8ff" points="346.57,-51.73 357.09,-50.4 348.04,-44.88 346.57,-51.73"/>
</a>
</g>
</g>
<!-- Node8 -->
<g id="Node000008" class="node">
<title>Node8</title>
<g id="a_Node000008"><a xlink:href="class_basic_element.html#a01a6511d922708fe0042474740109152" target="_top" xlink:title=" ">
<polygon fill="white" stroke="#666666" points="500.25,-32 362,-32 362,0 500.25,0 500.25,-32"/>
<text xml:space="preserve" text-anchor="start" x="370" y="-18.5" font-family="Helvetica,sans-Serif" font-size="10.00">BasicElement::elementType</text>
<text xml:space="preserve" text-anchor="middle" x="431.12" y="-6.5" font-family="Helvetica,sans-Serif" font-size="10.00">ToString</text>
</a>
</g>
</g>
<!-- Node2&#45;&gt;Node8 -->
<g id="edge7_Node000002_Node000008" class="edge">
<title>Node2&#45;&gt;Node8</title>
<g id="a_edge7_Node000002_Node000008"><a xlink:title=" ">
<path fill="none" stroke="#63b8ff" d="M323.32,-23.21C332.23,-22.6 341.39,-21.99 350.43,-21.38"/>
<polygon fill="#63b8ff" stroke="#63b8ff" points="350.52,-24.88 360.26,-20.71 350.05,-17.89 350.52,-24.88"/>
</a>
</g>
</g>
<!-- Node4 -->
<g id="Node000004" class="node">
<title>Node4</title>
<g id="a_Node000004"><a xlink:href="class_basic_element.html#a0357bfa9b1ef06dd1c9d64bcb00813f4" target="_top" xlink:title=" ">
<polygon fill="white" stroke="#666666" points="689.5,-107 541.5,-107 541.5,-75 689.5,-75 689.5,-107"/>
<text xml:space="preserve" text-anchor="start" x="549.5" y="-93.5" font-family="Helvetica,sans-Serif" font-size="10.00">BasicElement::addConnection</text>
<text xml:space="preserve" text-anchor="middle" x="615.5" y="-81.5" font-family="Helvetica,sans-Serif" font-size="10.00">Point</text>
</a>
</g>
</g>
<!-- Node3&#45;&gt;Node4 -->
<g id="edge3_Node000003_Node000004" class="edge">
<title>Node3&#45;&gt;Node4</title>
<g id="a_edge3_Node000003_Node000004"><a xlink:title=" ">
<path fill="none" stroke="#63b8ff" d="M503.68,-75.81C512.22,-76.98 520.99,-78.18 529.69,-79.37"/>
<polygon fill="#63b8ff" stroke="#63b8ff" points="529.17,-82.84 539.55,-80.73 530.12,-75.9 529.17,-82.84"/>
</a>
</g>
</g>
<!-- Node5 -->
<g id="Node000005" class="node">
<title>Node5</title>
<g id="a_Node000005"><a xlink:href="class_connection_point.html#a828996f0bb02e9154b5d3af03f1734b8" target="_top" xlink:title=" ">
<polygon fill="white" stroke="#666666" points="691.75,-57 539.25,-57 539.25,-25 691.75,-25 691.75,-57"/>
<text xml:space="preserve" text-anchor="start" x="547.25" y="-43.5" font-family="Helvetica,sans-Serif" font-size="10.00">ConnectionPoint::createDefault</text>
<text xml:space="preserve" text-anchor="middle" x="615.5" y="-31.5" font-family="Helvetica,sans-Serif" font-size="10.00">ConnectionPoints</text>
</a>
</g>
</g>
<!-- Node3&#45;&gt;Node5 -->
<g id="edge4_Node000003_Node000005" class="edge">
<title>Node3&#45;&gt;Node5</title>
<g id="a_edge4_Node000003_Node000005"><a xlink:title=" ">
<path fill="none" stroke="#63b8ff" d="M503.68,-56.19C511.55,-55.11 519.62,-54.01 527.65,-52.91"/>
<polygon fill="#63b8ff" stroke="#63b8ff" points="528.01,-56.39 537.44,-51.56 527.06,-49.45 528.01,-56.39"/>
</a>
</g>
</g>
<!-- Node6 -->
<g id="Node000006" class="node">
<title>Node6</title>
<g id="a_Node000006"><a xlink:href="class_connection_point.html#a0bca0b4cf605278cb17d8052dc027932" target="_top" xlink:title=" ">
<polygon fill="white" stroke="#666666" points="887,-57 727.75,-57 727.75,-25 887,-25 887,-57"/>
<text xml:space="preserve" text-anchor="start" x="735.75" y="-43.5" font-family="Helvetica,sans-Serif" font-size="10.00">ConnectionPoint::addConnection</text>
<text xml:space="preserve" text-anchor="middle" x="807.38" y="-31.5" font-family="Helvetica,sans-Serif" font-size="10.00">Point</text>
</a>
</g>
</g>
<!-- Node5&#45;&gt;Node6 -->
<g id="edge5_Node000005_Node000006" class="edge">
<title>Node5&#45;&gt;Node6</title>
<g id="a_edge5_Node000005_Node000006"><a xlink:title=" ">
<path fill="none" stroke="#63b8ff" d="M692.09,-41C699.96,-41 708.02,-41 716.03,-41"/>
<polygon fill="#63b8ff" stroke="#63b8ff" points="715.8,-44.5 725.8,-41 715.8,-37.5 715.8,-44.5"/>
</a>
</g>
</g>
<!-- Node7 -->
<g id="Node000007" class="node">
<title>Node7</title>
<g id="a_Node000007"><a xlink:href="class_connection_point.html#ac498b99d7f91805fea3eab19f2e8b260" target="_top" xlink:title=" ">
<polygon fill="white" stroke="#666666" points="1066.5,-57 923,-57 923,-25 1066.5,-25 1066.5,-57"/>
<text xml:space="preserve" text-anchor="start" x="931" y="-43.5" font-family="Helvetica,sans-Serif" font-size="10.00">ConnectionPoint::Connection</text>
<text xml:space="preserve" text-anchor="middle" x="994.75" y="-31.5" font-family="Helvetica,sans-Serif" font-size="10.00">Point</text>
</a>
</g>
</g>
<!-- Node6&#45;&gt;Node7 -->
<g id="edge6_Node000006_Node000007" class="edge">
<title>Node6&#45;&gt;Node7</title>
<g id="a_edge6_Node000006_Node000007"><a xlink:title=" ">
<path fill="none" stroke="#63b8ff" d="M887.26,-41C895.14,-41 903.15,-41 911.07,-41"/>
<polygon fill="#63b8ff" stroke="#63b8ff" points="911.06,-44.5 921.06,-41 911.06,-37.5 911.06,-44.5"/>
</a>
</g>
</g>
</g>
</svg>
