<?xml version="1.0" encoding="UTF-8" standalone="no"?>
<!DOCTYPE svg PUBLIC "-//W3C//DTD SVG 1.1//EN"
 "http://www.w3.org/Graphics/SVG/1.1/DTD/svg11.dtd">
<!-- Generated by graphviz version 14.1.1 (20251213.1925)
 -->
<!-- Title: RelationshipConnectionLineGraphicsItem::shape Pages: 1 -->
<svg width="761pt" height="140pt"
 viewBox="0.00 0.00 761.00 140.00" xmlns="http://www.w3.org/2000/svg" xmlns:xlink="http://www.w3.org/1999/xlink">
<g id="graph0" class="graph" transform="scale(1 1) rotate(0) translate(4 136)">
<title>RelationshipConnectionLineGraphicsItem::shape</title>
<!-- Node1 -->
<g id="Node000001" class="node">
<title>Node1</title>
<g id="a_Node000001"><a xlink:title=" ">
<polygon fill="#999999" stroke="#666666" points="137.5,-107 0,-107 0,-75 137.5,-75 137.5,-107"/>
<text xml:space="preserve" text-anchor="start" x="8" y="-93.5" font-family="Helvetica,sans-Serif" font-size="10.00">RelationshipConnectionLine</text>
<text xml:space="preserve" text-anchor="middle" x="68.75" y="-81.5" font-family="Helvetica,sans-Serif" font-size="10.00">GraphicsItem::shape</text>
</a>
</g>
</g>
<!-- Node2 -->
<g id="Node000002" class="node">
<title>Node2</title>
<g id="a_Node000002"><a xlink:href="class_relationship_connection_line_graphics_item.html#ac4dddcb8f3896aab7767b2f4b37c9745" target="_top" xlink:title=" ">
<polygon fill="white" stroke="#666666" points="375.5,-132 173.5,-132 173.5,-100 375.5,-100 375.5,-132"/>
<text xml:space="preserve" text-anchor="start" x="181.5" y="-118.5" font-family="Helvetica,sans-Serif" font-size="10.00">RelationshipConnectionLine</text>
<text xml:space="preserve" text-anchor="middle" x="274.5" y="-106.5" font-family="Helvetica,sans-Serif" font-size="10.00">GraphicsItem::getCardinalityBoundingRect</text>
</a>
</g>
</g>
<!-- Node1&#45;&gt;Node2 -->
<g id="edge1_Node000001_Node000002" class="edge">
<title>Node1&#45;&gt;Node2</title>
<g id="a_edge1_Node000001_Node000002"><a xlink:title=" ">
<path fill="none" stroke="#63b8ff" d="M137.88,-99.36C145.67,-100.32 153.76,-101.31 161.94,-102.31"/>
<polygon fill="#63b8ff" stroke="#63b8ff" points="161.27,-105.76 171.62,-103.5 162.12,-98.81 161.27,-105.76"/>
</a>
</g>
</g>
<!-- Node3 -->
<g id="Node000003" class="node">
<title>Node3</title>
<g id="a_Node000003"><a xlink:href="class_connection_graphics_item.html#aeea9fd05b92eeba219efbf363460347c" target="_top" xlink:title=" ">
<polygon fill="white" stroke="#666666" points="336.5,-82 212.5,-82 212.5,-50 336.5,-50 336.5,-82"/>
<text xml:space="preserve" text-anchor="start" x="220.5" y="-68.5" font-family="Helvetica,sans-Serif" font-size="10.00">ConnectionGraphicsItem</text>
<text xml:space="preserve" text-anchor="middle" x="274.5" y="-56.5" font-family="Helvetica,sans-Serif" font-size="10.00">::shape</text>
</a>
</g>
</g>
<!-- Node1&#45;&gt;Node3 -->
<g id="edge2_Node000001_Node000003" class="edge">
<title>Node1&#45;&gt;Node3</title>
<g id="a_edge2_Node000001_Node000003"><a xlink:title=" ">
<path fill="none" stroke="#63b8ff" d="M137.88,-82.64C158.18,-80.15 180.5,-77.41 201.07,-74.89"/>
<polygon fill="#63b8ff" stroke="#63b8ff" points="201.29,-78.39 210.79,-73.69 200.44,-71.44 201.29,-78.39"/>
</a>
</g>
</g>
<!-- Node4 -->
<g id="Node000004" class="node">
<title>Node4</title>
<g id="a_Node000004"><a xlink:href="class_connection_graphics_item.html#ab2ce5adc2d399026c9393fca5d8b6714" target="_top" xlink:title=" ">
<polygon fill="white" stroke="#666666" points="535.5,-132 411.5,-132 411.5,-100 535.5,-100 535.5,-132"/>
<text xml:space="preserve" text-anchor="start" x="419.5" y="-118.5" font-family="Helvetica,sans-Serif" font-size="10.00">ConnectionGraphicsItem</text>
<text xml:space="preserve" text-anchor="middle" x="473.5" y="-106.5" font-family="Helvetica,sans-Serif" font-size="10.00">::createBezierPath</text>
</a>
</g>
</g>
<!-- Node3&#45;&gt;Node4 -->
<g id="edge3_Node000003_Node000004" class="edge">
<title>Node3&#45;&gt;Node4</title>
<g id="a_edge3_Node000003_Node000004"><a xlink:title=" ">
<path fill="none" stroke="#63b8ff" d="M336.86,-81.27C349.64,-84.47 363.01,-87.83 375.5,-91 383.53,-93.04 391.93,-95.18 400.28,-97.32"/>
<polygon fill="#63b8ff" stroke="#63b8ff" points="399.18,-100.66 409.73,-99.75 400.92,-93.88 399.18,-100.66"/>
</a>
</g>
</g>
<!-- Node6 -->
<g id="Node000006" class="node">
<title>Node6</title>
<g id="a_Node000006"><a xlink:href="class_connection_graphics_item.html#a3384a6134ae5a7526fc01382a58ac982" target="_top" xlink:title=" ">
<polygon fill="white" stroke="#666666" points="535.5,-82 411.5,-82 411.5,-50 535.5,-50 535.5,-82"/>
<text xml:space="preserve" text-anchor="start" x="419.5" y="-68.5" font-family="Helvetica,sans-Serif" font-size="10.00">ConnectionGraphicsItem</text>
<text xml:space="preserve" text-anchor="middle" x="473.5" y="-56.5" font-family="Helvetica,sans-Serif" font-size="10.00">::createOrthogonalPath</text>
</a>
</g>
</g>
<!-- Node3&#45;&gt;Node6 -->
<g id="edge5_Node000003_Node000006" class="edge">
<title>Node3&#45;&gt;Node6</title>
<g id="a_edge5_Node000003_Node000006"><a xlink:title=" ">
<path fill="none" stroke="#63b8ff" d="M336.75,-66C356.77,-66 379.18,-66 399.95,-66"/>
<polygon fill="#63b8ff" stroke="#63b8ff" points="399.77,-69.5 409.77,-66 399.77,-62.5 399.77,-69.5"/>
</a>
</g>
</g>
<!-- Node9 -->
<g id="Node000009" class="node">
<title>Node9</title>
<g id="a_Node000009"><a xlink:href="class_connection_graphics_item.html#ae9707a652e7e27ec333eaed6699b430b" target="_top" xlink:title=" ">
<polygon fill="white" stroke="#666666" points="535.5,-32 411.5,-32 411.5,0 535.5,0 535.5,-32"/>
<text xml:space="preserve" text-anchor="start" x="419.5" y="-18.5" font-family="Helvetica,sans-Serif" font-size="10.00">ConnectionGraphicsItem</text>
<text xml:space="preserve" text-anchor="middle" x="473.5" y="-6.5" font-family="Helvetica,sans-Serif" font-size="10.00">::createStraightPath</text>
</a>
</g>
</g>
<!-- Node3&#45;&gt;Node9 -->
<g id="edge8_Node000003_Node000009" class="edge">
<title>Node3&#45;&gt;Node9</title>
<g id="a_edge8_Node000003_Node000009"><a xlink:title=" ">
<path fill="none" stroke="#63b8ff" d="M336.75,-50.45C356.86,-45.35 379.39,-39.63 400.24,-34.34"/>
<polygon fill="#63b8ff" stroke="#63b8ff" points="400.99,-37.76 409.82,-31.91 399.26,-30.98 400.99,-37.76"/>
</a>
</g>
</g>
<!-- Node5 -->
<g id="Node000005" class="node">
<title>Node5</title>
<g id="a_Node000005"><a xlink:href="class_connection_graphics_item.html#aff69c763accf5e57bbc119acdf8597ad" target="_top" xlink:title=" ">
<polygon fill="white" stroke="#666666" points="750.25,-132 573.75,-132 573.75,-100 750.25,-100 750.25,-132"/>
<text xml:space="preserve" text-anchor="start" x="581.75" y="-118.5" font-family="Helvetica,sans-Serif" font-size="10.00">ConnectionGraphicsItem</text>
<text xml:space="preserve" text-anchor="middle" x="662" y="-106.5" font-family="Helvetica,sans-Serif" font-size="10.00">::calculateControlPointFromDirection</text>
</a>
</g>
</g>
<!-- Node4&#45;&gt;Node5 -->
<g id="edge4_Node000004_Node000005" class="edge">
<title>Node4&#45;&gt;Node5</title>
<g id="a_edge4_Node000004_Node000005"><a xlink:title=" ">
<path fill="none" stroke="#63b8ff" d="M535.83,-116C544.26,-116 553.09,-116 561.99,-116"/>
<polygon fill="#63b8ff" stroke="#63b8ff" points="561.77,-119.5 571.77,-116 561.77,-112.5 561.77,-119.5"/>
</a>
</g>
</g>
<!-- Node7 -->
<g id="Node000007" class="node">
<title>Node7</title>
<g id="a_Node000007"><a xlink:href="class_connection_graphics_item.html#a893317615dd09c41cceec37be3ad9f6f" target="_top" xlink:title=" ">
<polygon fill="white" stroke="#666666" points="752.5,-82 571.5,-82 571.5,-50 752.5,-50 752.5,-82"/>
<text xml:space="preserve" text-anchor="start" x="579.5" y="-68.5" font-family="Helvetica,sans-Serif" font-size="10.00">ConnectionGraphicsItem</text>
<text xml:space="preserve" text-anchor="middle" x="662" y="-56.5" font-family="Helvetica,sans-Serif" font-size="10.00">::createOrthogonalPathWithDirections</text>
</a>
</g>
</g>
<!-- Node6&#45;&gt;Node7 -->
<g id="edge6_Node000006_Node000007" class="edge">
<title>Node6&#45;&gt;Node7</title>
<g id="a_edge6_Node000006_Node000007"><a xlink:title=" ">
<path fill="none" stroke="#63b8ff" d="M535.83,-66C543.64,-66 551.79,-66 560.02,-66"/>
<polygon fill="#63b8ff" stroke="#63b8ff" points="559.75,-69.5 569.75,-66 559.75,-62.5 559.75,-69.5"/>
</a>
</g>
</g>
<!-- Node8 -->
<g id="Node000008" class="node">
<title>Node8</title>
<g id="a_Node000008"><a xlink:href="class_connection_graphics_item.html#a0e5a08b33a79f09561ec2a6d9348a292" target="_top" xlink:title=" ">
<polygon fill="white" stroke="#666666" points="735.25,-32 588.75,-32 588.75,0 735.25,0 735.25,-32"/>
<text xml:space="preserve" text-anchor="start" x="596.75" y="-18.5" font-family="Helvetica,sans-Serif" font-size="10.00">ConnectionGraphicsItem</text>
<text xml:space="preserve" text-anchor="middle" x="662" y="-6.5" font-family="Helvetica,sans-Serif" font-size="10.00">::createSimpleOrthogonalPath</text>
</a>
</g>
</g>
<!-- Node6&#45;&gt;Node8 -->
<g id="edge7_Node000006_Node000008" class="edge">
<title>Node6&#45;&gt;Node8</title>
<g id="a_edge7_Node000006_Node000008"><a xlink:title=" ">
<path fill="none" stroke="#63b8ff" d="M535.83,-49.56C552.79,-45.01 571.37,-40.03 588.89,-35.33"/>
<polygon fill="#63b8ff" stroke="#63b8ff" points="589.42,-38.81 598.18,-32.84 587.61,-32.05 589.42,-38.81"/>
</a>
</g>
</g>
</g>
</svg>
