<?xml version="1.0" encoding="UTF-8" standalone="no"?>
<!DOCTYPE svg PUBLIC "-//W3C//DTD SVG 1.1//EN"
 "http://www.w3.org/Graphics/SVG/1.1/DTD/svg11.dtd">
<!-- Generated by graphviz version 14.1.1 (20251213.1925)
 -->
<!-- Title: DiagramSerializer::loadDiagram Pages: 1 -->
<!--zoomable 248 -->

<svg id="main" version="1.1" xmlns="http://www.w3.org/2000/svg" xmlns:xlink="http://www.w3.org/1999/xlink" xml:space="preserve" onload="init(evt)">

<style type="text/css"><![CDATA[
.node, .edge {opacity: 0.7;}
.node.selected, .edge.selected {opacity: 1;}
.edge:hover path { stroke: red; }
.edge:hover polygon { stroke: red; fill: red; }
]]></style>

<defs>
  <circle id="rim" cx="0" cy="0" r="7"/>
  <circle id="rim2" cx="0" cy="0" r="3.5"/>
  <g id="zoomPlus">
    <use xlink:href="#rim" fill="#404040"><set attributeName="fill" to="#808080" begin="zoomplus.mouseover" end="zoomplus.mouseout"/></use>
    <path d="M-4,0h8M0,-4v8" fill="none" stroke="white" stroke-width="1.5" pointer-events="none"/>
  </g>
  <g id="zoomMin">
    <use xlink:href="#rim" fill="#404040"><set attributeName="fill" to="#808080" begin="zoomminus.mouseover" end="zoomminus.mouseout"/></use>
    <path d="M-4,0h8" fill="none" stroke="white" stroke-width="1.5" pointer-events="none"/>
  </g>
  <g id="arrowUp" transform="translate(30 24)">
    <use xlink:href="#rim"/>
    <path pointer-events="none" fill="none" stroke="white" stroke-width="1.5" d="M0,-3.0v7 M-2.5,-0.5L0,-3.0L2.5,-0.5"/>
  </g>
  <g id="arrowRight" transform="rotate(90) translate(36 -43)">
    <use xlink:href="#rim"/>
    <path pointer-events="none" fill="none" stroke="white" stroke-width="1.5" d="M0,-3.0v7 M-2.5,-0.5L0,-3.0L2.5,-0.5"/>
  </g>
  <g id="arrowDown" transform="rotate(180) translate(-30 -48)">
    <use xlink:href="#rim"/>
    <path pointer-events="none" fill="none" stroke="white" stroke-width="1.5" d="M0,-3.0v7 M-2.5,-0.5L0,-3.0L2.5,-0.5"/>
  </g>
  <g id="arrowLeft" transform="rotate(270) translate(-36 17)">
    <use xlink:href="#rim"/>
    <path pointer-events="none" fill="none" stroke="white" stroke-width="1.5" d="M0,-3.0v7 M-2.5,-0.5L0,-3.0L2.5,-0.5"/>
  </g>
  <g id="resetDef">
    <use xlink:href="#rim2" fill="#404040"><set attributeName="fill" to="#808080" begin="reset.mouseover" end="reset.mouseout"/></use>
  </g>
</defs>
<script type="application/ecmascript">
var viewWidth = 815;
var viewHeight = 248;
var sectionId = 'dynsection-9';
</script>
<script type="application/ecmascript" xlink:href="svg.min.js"/>
<svg id="graph" class="graph">
<g id="viewport">
<title>DiagramSerializer::loadDiagram</title>
<!-- Node1 -->
<g id="Node000001" class="node">
<title>Node1</title>
<g id="a_Node000001"><a xlink:title=" ">
<polygon fill="#999999" stroke="#666666" points="99.25,-89 0,-89 0,-57 99.25,-57 99.25,-89"/>
<text xml:space="preserve" text-anchor="start" x="8" y="-75.5" font-family="Helvetica,sans-Serif" font-size="10.00">DiagramSerializer::</text>
<text xml:space="preserve" text-anchor="middle" x="49.62" y="-63.5" font-family="Helvetica,sans-Serif" font-size="10.00">loadDiagram</text>
</a>
</g>
</g>
<!-- Node2 -->
<g id="Node000002" class="node">
<title>Node2</title>
<g id="a_Node000002"><a xlink:href="class_diagram_serializer.html#a92507b425e8c13399c6de5d85e7950fb" target="_top" xlink:title=" ">
<polygon fill="white" stroke="#666666" points="234.5,-136 135.25,-136 135.25,-104 234.5,-104 234.5,-136"/>
<text xml:space="preserve" text-anchor="start" x="143.25" y="-122.5" font-family="Helvetica,sans-Serif" font-size="10.00">DiagramSerializer::</text>
<text xml:space="preserve" text-anchor="middle" x="184.88" y="-110.5" font-family="Helvetica,sans-Serif" font-size="10.00">loadConnections</text>
</a>
</g>
</g>
<!-- Node1&#45;&gt;Node2 -->
<g id="edge1_Node000001_Node000002" class="edge">
<title>Node1&#45;&gt;Node2</title>
<g id="a_edge1_Node000001_Node000002"><a xlink:title=" ">
<path fill="none" stroke="#63b8ff" d="M97.23,-89.44C106.82,-92.82 117.02,-96.42 126.93,-99.91"/>
<polygon fill="#63b8ff" stroke="#63b8ff" points="125.5,-103.12 136.09,-103.15 127.83,-96.52 125.5,-103.12"/>
</a>
</g>
</g>
<!-- Node10 -->
<g id="Node000010" class="node">
<title>Node10</title>
<g id="a_Node000010"><a xlink:href="class_diagram_serializer.html#a2197514d6c716bf484314a2ee9a3d8c1" target="_top" xlink:title=" ">
<polygon fill="white" stroke="#666666" points="234.5,-64 135.25,-64 135.25,-32 234.5,-32 234.5,-64"/>
<text xml:space="preserve" text-anchor="start" x="143.25" y="-50.5" font-family="Helvetica,sans-Serif" font-size="10.00">DiagramSerializer::</text>
<text xml:space="preserve" text-anchor="middle" x="184.88" y="-38.5" font-family="Helvetica,sans-Serif" font-size="10.00">loadElements</text>
</a>
</g>
</g>
<!-- Node1&#45;&gt;Node10 -->
<g id="edge9_Node000001_Node000010" class="edge">
<title>Node1&#45;&gt;Node10</title>
<g id="a_edge9_Node000001_Node000010"><a xlink:title=" ">
<path fill="none" stroke="#63b8ff" d="M99.49,-63.83C107.45,-62.34 115.78,-60.78 123.98,-59.24"/>
<polygon fill="#63b8ff" stroke="#63b8ff" points="124.35,-62.73 133.53,-57.45 123.06,-55.85 124.35,-62.73"/>
</a>
</g>
</g>
<!-- Node3 -->
<g id="Node000003" class="node">
<title>Node3</title>
<g id="a_Node000003"><a xlink:href="class_diagram_scene.html#a795592348d4dcbd78d984db93c2fbedb" target="_top" xlink:title=" ">
<polygon fill="white" stroke="#666666" points="424.5,-196 272.75,-196 272.75,-176 424.5,-176 424.5,-196"/>
<text xml:space="preserve" text-anchor="middle" x="348.62" y="-182.5" font-family="Helvetica,sans-Serif" font-size="10.00">DiagramScene::addConnection</text>
</a>
</g>
</g>
<!-- Node2&#45;&gt;Node3 -->
<g id="edge2_Node000002_Node000003" class="edge">
<title>Node2&#45;&gt;Node3</title>
<g id="a_edge2_Node000002_Node000003"><a xlink:title=" ">
<path fill="none" stroke="#63b8ff" d="M211.3,-136.46C227.67,-146.46 249.7,-158.83 270.5,-167 275.45,-168.95 280.67,-170.74 285.95,-172.38"/>
<polygon fill="#63b8ff" stroke="#63b8ff" points="284.79,-175.68 295.37,-175.1 286.74,-168.96 284.79,-175.68"/>
</a>
</g>
</g>
<!-- Node8 -->
<g id="Node000008" class="node">
<title>Node8</title>
<g id="a_Node000008"><a xlink:href="class_diagram_scene.html#a4d84b4d068e1c3ee53f9f9f8c6e7a94f" target="_top" xlink:title=" ">
<polygon fill="white" stroke="#666666" points="426.75,-158 270.5,-158 270.5,-126 426.75,-126 426.75,-158"/>
<text xml:space="preserve" text-anchor="start" x="278.5" y="-144.5" font-family="Helvetica,sans-Serif" font-size="10.00">DiagramScene::addRelationship</text>
<text xml:space="preserve" text-anchor="middle" x="348.62" y="-132.5" font-family="Helvetica,sans-Serif" font-size="10.00">Connection</text>
</a>
</g>
</g>
<!-- Node2&#45;&gt;Node8 -->
<g id="edge7_Node000002_Node000008" class="edge">
<title>Node2&#45;&gt;Node8</title>
<g id="a_edge7_Node000002_Node000008"><a xlink:title=" ">
<path fill="none" stroke="#63b8ff" d="M234.84,-126.66C242.52,-127.7 250.64,-128.81 258.88,-129.93"/>
<polygon fill="#63b8ff" stroke="#63b8ff" points="258.27,-133.38 268.65,-131.26 259.21,-126.44 258.27,-133.38"/>
</a>
</g>
</g>
<!-- Node9 -->
<g id="Node000009" class="node">
<title>Node9</title>
<g id="a_Node000009"><a xlink:href="class_basic_element.html#a70598cf89581cc6e308dafaa69551934" target="_top" xlink:title=" ">
<polygon fill="white" stroke="#666666" points="421.5,-108 275.75,-108 275.75,-76 421.5,-76 421.5,-108"/>
<text xml:space="preserve" text-anchor="start" x="283.75" y="-94.5" font-family="Helvetica,sans-Serif" font-size="10.00">BasicElement::getConnection</text>
<text xml:space="preserve" text-anchor="middle" x="348.62" y="-82.5" font-family="Helvetica,sans-Serif" font-size="10.00">PointByDirection</text>
</a>
</g>
</g>
<!-- Node2&#45;&gt;Node9 -->
<g id="edge8_Node000002_Node000009" class="edge">
<title>Node2&#45;&gt;Node9</title>
<g id="a_edge8_Node000002_Node000009"><a xlink:title=" ">
<path fill="none" stroke="#63b8ff" d="M234.84,-111.52C244.17,-109.91 254.16,-108.18 264.21,-106.44"/>
<polygon fill="#63b8ff" stroke="#63b8ff" points="264.8,-109.89 274.06,-104.74 263.61,-102.99 264.8,-109.89"/>
</a>
</g>
</g>
<!-- Node4 -->
<g id="Node000004" class="node">
<title>Node4</title>
<g id="a_Node000004"><a xlink:href="class_diagram_scene.html#a355fffd036fbfb751f2d9ada2b9eacf5" target="_top" xlink:title=" ">
<polygon fill="white" stroke="#666666" points="614.5,-202 462.75,-202 462.75,-170 614.5,-170 614.5,-202"/>
<text xml:space="preserve" text-anchor="start" x="470.75" y="-188.5" font-family="Helvetica,sans-Serif" font-size="10.00">DiagramScene::handleAttribute</text>
<text xml:space="preserve" text-anchor="middle" x="538.62" y="-176.5" font-family="Helvetica,sans-Serif" font-size="10.00">Connection</text>
</a>
</g>
</g>
<!-- Node3&#45;&gt;Node4 -->
<g id="edge3_Node000003_Node000004" class="edge">
<title>Node3&#45;&gt;Node4</title>
<g id="a_edge3_Node000003_Node000004"><a xlink:title=" ">
<path fill="none" stroke="#63b8ff" d="M424.74,-186C433.34,-186 442.17,-186 450.91,-186"/>
<polygon fill="#63b8ff" stroke="#63b8ff" points="450.81,-189.5 460.81,-186 450.81,-182.5 450.81,-189.5"/>
</a>
</g>
</g>
<!-- Node5 -->
<g id="Node000005" class="node">
<title>Node5</title>
<g id="a_Node000005"><a xlink:href="class_connection_line.html#ab11952b505976244aabc575e0ec7b118" target="_top" xlink:title=" ">
<polygon fill="white" stroke="#666666" points="806.75,-240 650.5,-240 650.5,-220 806.75,-220 806.75,-240"/>
<text xml:space="preserve" text-anchor="middle" x="728.62" y="-226.5" font-family="Helvetica,sans-Serif" font-size="10.00">ConnectionLine::getEndElement</text>
</a>
</g>
</g>
<!-- Node4&#45;&gt;Node5 -->
<g id="edge4_Node000004_Node000005" class="edge">
<title>Node4&#45;&gt;Node5</title>
<g id="a_edge4_Node000004_Node000005"><a xlink:title=" ">
<path fill="none" stroke="#63b8ff" d="M609.9,-202.45C630.3,-207.22 652.29,-212.37 671.69,-216.91"/>
<polygon fill="#63b8ff" stroke="#63b8ff" points="670.77,-220.29 681.3,-219.16 672.36,-213.47 670.77,-220.29"/>
</a>
</g>
</g>
<!-- Node6 -->
<g id="Node000006" class="node">
<title>Node6</title>
<g id="a_Node000006"><a xlink:href="class_connection_line.html#ad957be37b7bbb9250366225fd357a5a6" target="_top" xlink:title=" ">
<polygon fill="white" stroke="#666666" points="790.62,-202 666.62,-202 666.62,-170 790.62,-170 790.62,-202"/>
<text xml:space="preserve" text-anchor="start" x="674.62" y="-188.5" font-family="Helvetica,sans-Serif" font-size="10.00">ConnectionLine::getStart</text>
<text xml:space="preserve" text-anchor="middle" x="728.62" y="-176.5" font-family="Helvetica,sans-Serif" font-size="10.00">Element</text>
</a>
</g>
</g>
<!-- Node4&#45;&gt;Node6 -->
<g id="edge5_Node000004_Node000006" class="edge">
<title>Node4&#45;&gt;Node6</title>
<g id="a_edge5_Node000004_Node000006"><a xlink:title=" ">
<path fill="none" stroke="#63b8ff" d="M614.74,-186C627.95,-186 641.68,-186 654.82,-186"/>
<polygon fill="#63b8ff" stroke="#63b8ff" points="654.68,-189.5 664.68,-186 654.68,-182.5 654.68,-189.5"/>
</a>
</g>
</g>
<!-- Node7 -->
<g id="Node000007" class="node">
<title>Node7</title>
<g id="a_Node000007"><a xlink:href="class_connection_line.html#aea85162c28f293b1df0cce97d57bb471" target="_top" xlink:title=" ">
<polygon fill="white" stroke="#666666" points="787.62,-152 669.62,-152 669.62,-132 787.62,-132 787.62,-152"/>
<text xml:space="preserve" text-anchor="middle" x="728.62" y="-138.5" font-family="Helvetica,sans-Serif" font-size="10.00">ConnectionLine::isValid</text>
</a>
</g>
</g>
<!-- Node4&#45;&gt;Node7 -->
<g id="edge6_Node000004_Node000007" class="edge">
<title>Node4&#45;&gt;Node7</title>
<g id="a_edge6_Node000004_Node000007"><a xlink:title=" ">
<path fill="none" stroke="#63b8ff" d="M609.9,-169.55C630.3,-164.78 652.29,-159.63 671.69,-155.09"/>
<polygon fill="#63b8ff" stroke="#63b8ff" points="672.36,-158.53 681.3,-152.84 670.77,-151.71 672.36,-158.53"/>
</a>
</g>
</g>
<!-- Node11 -->
<g id="Node000011" class="node">
<title>Node11</title>
<g id="a_Node000011"><a xlink:href="class_diagram_scene.html#ab3f76238d2c252f2918047140d87dd23" target="_top" xlink:title=" ">
<polygon fill="white" stroke="#666666" points="417.75,-58 279.5,-58 279.5,-38 417.75,-38 417.75,-58"/>
<text xml:space="preserve" text-anchor="middle" x="348.62" y="-44.5" font-family="Helvetica,sans-Serif" font-size="10.00">DiagramScene::addElement</text>
</a>
</g>
</g>
<!-- Node10&#45;&gt;Node11 -->
<g id="edge10_Node000010_Node000011" class="edge">
<title>Node10&#45;&gt;Node11</title>
<g id="a_edge10_Node000010_Node000011"><a xlink:title=" ">
<path fill="none" stroke="#63b8ff" d="M234.84,-48C245.3,-48 256.61,-48 267.89,-48"/>
<polygon fill="#63b8ff" stroke="#63b8ff" points="267.62,-51.5 277.62,-48 267.62,-44.5 267.62,-51.5"/>
</a>
</g>
</g>
<!-- Node13 -->
<g id="Node000013" class="node">
<title>Node13</title>
<g id="a_Node000013"><a xlink:href="class_element_factory.html#a84bb24abdffea9682c5c007bc7792927" target="_top" xlink:title=" ">
<polygon fill="white" stroke="#666666" points="425.62,-20 271.62,-20 271.62,0 425.62,0 425.62,-20"/>
<text xml:space="preserve" text-anchor="middle" x="348.62" y="-6.5" font-family="Helvetica,sans-Serif" font-size="10.00">ElementFactory::createElement</text>
</a>
</g>
</g>
<!-- Node10&#45;&gt;Node13 -->
<g id="edge12_Node000010_Node000013" class="edge">
<title>Node10&#45;&gt;Node13</title>
<g id="a_edge12_Node000010_Node000013"><a xlink:title=" ">
<path fill="none" stroke="#63b8ff" d="M234.84,-36.5C252.87,-32.26 273.41,-27.43 291.99,-23.07"/>
<polygon fill="#63b8ff" stroke="#63b8ff" points="292.55,-26.53 301.48,-20.84 290.95,-19.72 292.55,-26.53"/>
</a>
</g>
</g>
<!-- Node12 -->
<g id="Node000012" class="node">
<title>Node12</title>
<g id="a_Node000012"><a xlink:href="class_diagram_scene.html#ad97223f92ae9cce97857ac5c45c1a3b6" target="_top" xlink:title=" ">
<polygon fill="white" stroke="#666666" points="613,-58 464.25,-58 464.25,-38 613,-38 613,-58"/>
<text xml:space="preserve" text-anchor="middle" x="538.62" y="-44.5" font-family="Helvetica,sans-Serif" font-size="10.00">DiagramScene::elementAdded</text>
</a>
</g>
</g>
<!-- Node11&#45;&gt;Node12 -->
<g id="edge11_Node000011_Node000012" class="edge">
<title>Node11&#45;&gt;Node12</title>
<g id="a_edge11_Node000011_Node000012"><a xlink:title=" ">
<path fill="none" stroke="#63b8ff" d="M418.03,-48C429.21,-48 440.91,-48 452.44,-48"/>
<polygon fill="#63b8ff" stroke="#63b8ff" points="452.37,-51.5 462.37,-48 452.37,-44.5 452.37,-51.5"/>
</a>
</g>
</g>
</g>
</svg>

<g id="navigator" transform="translate(0 0)" fill="#404254">
  <rect fill="#f2f5e9" fill-opacity="0.5" stroke="#606060" stroke-width=".5" x="0" y="0" width="60" height="60"/>
  <use id="zoomplus" xlink:href="#zoomPlus" x="17" y="9" onmousedown="handleZoom(evt,'in')"/>
  <use id="zoomminus" xlink:href="#zoomMin" x="42" y="9" onmousedown="handleZoom(evt,'out')"/>
  <use id="reset" xlink:href="#resetDef" x="30" y="36" onmousedown="handleReset()"/>
   <use id="arrowup" xlink:href="#arrowUp" x="0" y="0" onmousedown="handlePan(0,-1)"/>
  <use id="arrowright" xlink:href="#arrowRight" x="0" y="0" onmousedown="handlePan(1,0)"/>
  <use id="arrowdown" xlink:href="#arrowDown" x="0" y="0" onmousedown="handlePan(0,1)"/>
  <use id="arrowleft" xlink:href="#arrowLeft" x="0" y="0" onmousedown="handlePan(-1,0)"/>
</g>
<svg viewBox="0 0 15 15" width="100%" height="30px" preserveAspectRatio="xMaxYMin meet">
 <g id="arrow_out" transform="scale(0.3 0.3)">
  <a xlink:href="class_diagram_serializer_a003be4c7f5d036e58e3fa047d1d9b0d8_cgraph_org.svg" target="_base">
   <rect id="button" ry="5" rx="5" y="6" x="6" height="38" width="38"
        fill="#f2f5e9" fill-opacity="0.5" stroke="#606060" stroke-width="1.0"/>
   <path id="arrow"
     d="M 11.500037,31.436501 C 11.940474,20.09759 22.043105,11.32322 32.158766,21.979434 L 37.068811,17.246167 C 37.068811,17.246167 37.088388,32 37.088388,32 L 22.160133,31.978069 C 22.160133,31.978069 26.997745,27.140456 26.997745,27.140456 C 18.528582,18.264221 13.291696,25.230495 11.500037,31.436501 z"
     style="fill:#404040;"/>
  </a>
 </g>
</svg>

<style type='text/css'>
<![CDATA[
[data-mouse-over-selected='false'] { opacity: 0.7; }
[data-mouse-over-selected='true']  { opacity: 1.0; }
]]>
</style>
<script type="application/ecmascript"><![CDATA[
document.addEventListener('DOMContentLoaded', (event) => {
  highlightEdges();
  highlightAdjacentNodes();
});
]]></script>
</svg>
