<?xml version="1.0" encoding="UTF-8" standalone="no"?>
<!DOCTYPE svg PUBLIC "-//W3C//DTD SVG 1.1//EN"
 "http://www.w3.org/Graphics/SVG/1.1/DTD/svg11.dtd">
<!-- Generated by graphviz version 14.1.1 (20251213.1925)
 -->
<!-- Title: MainWindow::createMenuBar Pages: 1 -->
<!--zoomable 484 -->

<svg id="main" version="1.1" xmlns="http://www.w3.org/2000/svg" xmlns:xlink="http://www.w3.org/1999/xlink" xml:space="preserve" onload="init(evt)">

<style type="text/css"><![CDATA[
.node, .edge {opacity: 0.7;}
.node.selected, .edge.selected {opacity: 1;}
.edge:hover path { stroke: red; }
.edge:hover polygon { stroke: red; fill: red; }
]]></style>

<defs>
  <circle id="rim" cx="0" cy="0" r="7"/>
  <circle id="rim2" cx="0" cy="0" r="3.5"/>
  <g id="zoomPlus">
    <use xlink:href="#rim" fill="#404040"><set attributeName="fill" to="#808080" begin="zoomplus.mouseover" end="zoomplus.mouseout"/></use>
    <path d="M-4,0h8M0,-4v8" fill="none" stroke="white" stroke-width="1.5" pointer-events="none"/>
  </g>
  <g id="zoomMin">
    <use xlink:href="#rim" fill="#404040"><set attributeName="fill" to="#808080" begin="zoomminus.mouseover" end="zoomminus.mouseout"/></use>
    <path d="M-4,0h8" fill="none" stroke="white" stroke-width="1.5" pointer-events="none"/>
  </g>
  <g id="arrowUp" transform="translate(30 24)">
    <use xlink:href="#rim"/>
    <path pointer-events="none" fill="none" stroke="white" stroke-width="1.5" d="M0,-3.0v7 M-2.5,-0.5L0,-3.0L2.5,-0.5"/>
  </g>
  <g id="arrowRight" transform="rotate(90) translate(36 -43)">
    <use xlink:href="#rim"/>
    <path pointer-events="none" fill="none" stroke="white" stroke-width="1.5" d="M0,-3.0v7 M-2.5,-0.5L0,-3.0L2.5,-0.5"/>
  </g>
  <g id="arrowDown" transform="rotate(180) translate(-30 -48)">
    <use xlink:href="#rim"/>
    <path pointer-events="none" fill="none" stroke="white" stroke-width="1.5" d="M0,-3.0v7 M-2.5,-0.5L0,-3.0L2.5,-0.5"/>
  </g>
  <g id="arrowLeft" transform="rotate(270) translate(-36 17)">
    <use xlink:href="#rim"/>
    <path pointer-events="none" fill="none" stroke="white" stroke-width="1.5" d="M0,-3.0v7 M-2.5,-0.5L0,-3.0L2.5,-0.5"/>
  </g>
  <g id="resetDef">
    <use xlink:href="#rim2" fill="#404040"><set attributeName="fill" to="#808080" begin="reset.mouseover" end="reset.mouseout"/></use>
  </g>
</defs>
<script type="application/ecmascript">
var viewWidth = 1659;
var viewHeight = 484;
var sectionId = 'dynsection-30';
</script>
<script type="application/ecmascript" xlink:href="svg.min.js"/>
<svg id="graph" class="graph">
<g id="viewport">
<title>MainWindow::createMenuBar</title>
<!-- Node1 -->
<g id="Node000001" class="node">
<title>Node1</title>
<g id="a_Node000001"><a xlink:title=" ">
<polygon fill="#999999" stroke="#666666" points="144.25,-324 0,-324 0,-304 144.25,-304 144.25,-324"/>
<text xml:space="preserve" text-anchor="middle" x="72.12" y="-310.5" font-family="Helvetica,sans-Serif" font-size="10.00">MainWindow::createMenuBar</text>
</a>
</g>
</g>
<!-- Node2 -->
<g id="Node000002" class="node">
<title>Node2</title>
<g id="a_Node000002"><a xlink:href="class_main_window.html#aaf455232cccaa422fc4c371fa99bff84" target="_top" xlink:title=" ">
<polygon fill="white" stroke="#666666" points="327.5,-267 182.5,-267 182.5,-247 327.5,-247 327.5,-267"/>
<text xml:space="preserve" text-anchor="middle" x="255" y="-253.5" font-family="Helvetica,sans-Serif" font-size="10.00">MainWindow::createFileMenu</text>
</a>
</g>
</g>
<!-- Node1&#45;&gt;Node2 -->
<g id="edge1_Node000001_Node000002" class="edge">
<title>Node1&#45;&gt;Node2</title>
<g id="a_edge1_Node000001_Node000002"><a xlink:title=" ">
<path fill="none" stroke="#63b8ff" d="M106.3,-303.55C135.4,-294.37 177.94,-280.97 209.91,-270.9"/>
<polygon fill="#63b8ff" stroke="#63b8ff" points="210.8,-274.28 219.29,-267.94 208.7,-267.61 210.8,-274.28"/>
</a>
</g>
</g>
<!-- Node28 -->
<g id="Node000028" class="node">
<title>Node28</title>
<g id="a_Node000028"><a xlink:href="class_main_window.html#a02e77ad39637c2db66227e8f8954adcb" target="_top" xlink:title=" ">
<polygon fill="white" stroke="#666666" points="329.75,-419 180.25,-419 180.25,-399 329.75,-399 329.75,-419"/>
<text xml:space="preserve" text-anchor="middle" x="255" y="-405.5" font-family="Helvetica,sans-Serif" font-size="10.00">MainWindow::createHelpMenu</text>
</a>
</g>
</g>
<!-- Node1&#45;&gt;Node28 -->
<g id="edge38_Node000001_Node000028" class="edge">
<title>Node1&#45;&gt;Node28</title>
<g id="a_edge38_Node000001_Node000028"><a xlink:title=" ">
<path fill="none" stroke="#63b8ff" d="M92.83,-324.35C124.55,-341.01 187.13,-373.88 224.29,-393.39"/>
<polygon fill="#63b8ff" stroke="#63b8ff" points="222.23,-396.27 232.71,-397.82 225.48,-390.07 222.23,-396.27"/>
</a>
</g>
</g>
<!-- Node3 -->
<g id="Node000003" class="node">
<title>Node3</title>
<g id="a_Node000003"><a xlink:href="class_main_window.html#adc645337d8ad9b2b9300f13e251fb5cb" target="_top" xlink:title=" ">
<polygon fill="white" stroke="#666666" points="503.25,-400 370.25,-400 370.25,-380 503.25,-380 503.25,-400"/>
<text xml:space="preserve" text-anchor="middle" x="436.75" y="-386.5" font-family="Helvetica,sans-Serif" font-size="10.00">MainWindow::createAction</text>
</a>
</g>
</g>
<!-- Node2&#45;&gt;Node3 -->
<g id="edge2_Node000002_Node000003" class="edge">
<title>Node2&#45;&gt;Node3</title>
<g id="a_edge2_Node000002_Node000003"><a xlink:title=" ">
<path fill="none" stroke="#63b8ff" d="M263.64,-267.25C280.05,-288.58 320.82,-338.07 365.75,-366 371.62,-369.65 378.12,-372.83 384.72,-375.57"/>
<polygon fill="#63b8ff" stroke="#63b8ff" points="383.09,-378.69 393.68,-378.98 385.58,-372.15 383.09,-378.69"/>
</a>
</g>
</g>
<!-- Node4 -->
<g id="Node000004" class="node">
<title>Node4</title>
<g id="a_Node000004"><a xlink:href="class_main_window.html#ab1ad4dd7adf6066b3c4cc3b7154eaf65" target="_top" xlink:title=" ">
<polygon fill="white" stroke="#666666" points="507.75,-324 365.75,-324 365.75,-304 507.75,-304 507.75,-324"/>
<text xml:space="preserve" text-anchor="middle" x="436.75" y="-310.5" font-family="Helvetica,sans-Serif" font-size="10.00">MainWindow::exitApplication</text>
</a>
</g>
</g>
<!-- Node2&#45;&gt;Node4 -->
<g id="edge3_Node000002_Node000004" class="edge">
<title>Node2&#45;&gt;Node4</title>
<g id="a_edge3_Node000002_Node000004"><a xlink:title=" ">
<path fill="none" stroke="#63b8ff" d="M284.25,-267.38C306.31,-275.34 337.81,-286.38 365.75,-295 371.84,-296.88 378.26,-298.76 384.64,-300.56"/>
<polygon fill="#63b8ff" stroke="#63b8ff" points="383.24,-303.81 393.81,-303.11 385.11,-297.06 383.24,-303.81"/>
</a>
</g>
</g>
<!-- Node5 -->
<g id="Node000005" class="node">
<title>Node5</title>
<g id="a_Node000005"><a xlink:href="class_main_window.html#a1d019681beef43511b35dec6f27d2077" target="_top" xlink:title=" ">
<polygon fill="white" stroke="#666666" points="701.88,-96 559.88,-96 559.88,-76 701.88,-76 701.88,-96"/>
<text xml:space="preserve" text-anchor="middle" x="630.88" y="-82.5" font-family="Helvetica,sans-Serif" font-size="10.00">MainWindow::exportDiagram</text>
</a>
</g>
</g>
<!-- Node2&#45;&gt;Node5 -->
<g id="edge4_Node000002_Node000005" class="edge">
<title>Node2&#45;&gt;Node5</title>
<g id="a_edge4_Node000002_Node000005"><a xlink:title=" ">
<path fill="none" stroke="#63b8ff" d="M264.9,-246.78C282.33,-227.41 322.99,-185.18 365.75,-162 425.11,-129.82 499.54,-109.99 554.25,-98.7"/>
<polygon fill="#63b8ff" stroke="#63b8ff" points="554.67,-102.18 563.78,-96.78 553.29,-95.32 554.67,-102.18"/>
</a>
</g>
</g>
<!-- Node7 -->
<g id="Node000007" class="node">
<title>Node7</title>
<g id="a_Node000007"><a xlink:href="class_main_window.html#a69f73b93cc05c89a9ae1be0161105982" target="_top" xlink:title=" ">
<polygon fill="white" stroke="#666666" points="492.75,-191 380.75,-191 380.75,-171 492.75,-171 492.75,-191"/>
<text xml:space="preserve" text-anchor="middle" x="436.75" y="-177.5" font-family="Helvetica,sans-Serif" font-size="10.00">MainWindow::newFile</text>
</a>
</g>
</g>
<!-- Node2&#45;&gt;Node7 -->
<g id="edge6_Node000002_Node000007" class="edge">
<title>Node2&#45;&gt;Node7</title>
<g id="a_edge6_Node000002_Node000007"><a xlink:title=" ">
<path fill="none" stroke="#63b8ff" d="M280.62,-246.59C311.72,-233.44 365.46,-210.72 400.81,-195.77"/>
<polygon fill="#63b8ff" stroke="#63b8ff" points="401.9,-199.11 409.75,-191.99 399.18,-192.66 401.9,-199.11"/>
</a>
</g>
</g>
<!-- Node8 -->
<g id="Node000008" class="node">
<title>Node8</title>
<g id="a_Node000008"><a xlink:href="class_main_window.html#a464aaa4d378e7b2d814756a73d6e1ed6" target="_top" xlink:title=" ">
<polygon fill="white" stroke="#666666" points="688.38,-248 573.38,-248 573.38,-228 688.38,-228 688.38,-248"/>
<text xml:space="preserve" text-anchor="middle" x="630.88" y="-234.5" font-family="Helvetica,sans-Serif" font-size="10.00">MainWindow::saveFile</text>
</a>
</g>
</g>
<!-- Node2&#45;&gt;Node8 -->
<g id="edge33_Node000002_Node000008" class="edge">
<title>Node2&#45;&gt;Node8</title>
<g id="a_edge33_Node000002_Node000008"><a xlink:title=" ">
<path fill="none" stroke="#63b8ff" d="M327.64,-253.36C395.19,-249.93 495.69,-244.82 561.98,-241.45"/>
<polygon fill="#63b8ff" stroke="#63b8ff" points="561.81,-244.96 571.62,-240.96 561.45,-237.97 561.81,-244.96"/>
</a>
</g>
</g>
<!-- Node9 -->
<g id="Node000009" class="node">
<title>Node9</title>
<g id="a_Node000009"><a xlink:href="class_main_window.html#ace1b7624a64f4d70513b86601e5846f9" target="_top" xlink:title=" ">
<polygon fill="white" stroke="#666666" points="911.38,-292 784.38,-292 784.38,-272 911.38,-272 911.38,-292"/>
<text xml:space="preserve" text-anchor="middle" x="847.88" y="-278.5" font-family="Helvetica,sans-Serif" font-size="10.00">MainWindow::saveAsFile</text>
</a>
</g>
</g>
<!-- Node2&#45;&gt;Node9 -->
<g id="edge32_Node000002_Node000009" class="edge">
<title>Node2&#45;&gt;Node9</title>
<g id="a_edge32_Node000002_Node000009"><a xlink:title=" ">
<path fill="none" stroke="#63b8ff" d="M266.31,-267.49C284.47,-285.11 324.16,-320.01 365.75,-333 515.18,-379.69 564.21,-362.32 718,-333 753.57,-326.22 791.86,-309.78 817.38,-297.39"/>
<polygon fill="#63b8ff" stroke="#63b8ff" points="818.73,-300.62 826.13,-293.04 815.62,-294.36 818.73,-300.62"/>
</a>
</g>
</g>
<!-- Node20 -->
<g id="Node000020" class="node">
<title>Node20</title>
<g id="a_Node000020"><a xlink:href="class_main_window.html#a288b768c3c21a9171bdc56fe845ece8b" target="_top" xlink:title=" ">
<polygon fill="white" stroke="#666666" points="494.25,-286 379.25,-286 379.25,-266 494.25,-266 494.25,-286"/>
<text xml:space="preserve" text-anchor="middle" x="436.75" y="-272.5" font-family="Helvetica,sans-Serif" font-size="10.00">MainWindow::openFile</text>
</a>
</g>
</g>
<!-- Node2&#45;&gt;Node20 -->
<g id="edge23_Node000002_Node000020" class="edge">
<title>Node2&#45;&gt;Node20</title>
<g id="a_edge23_Node000002_Node000020"><a xlink:title=" ">
<path fill="none" stroke="#63b8ff" d="M327.82,-264.59C340.98,-265.98 354.68,-267.43 367.72,-268.81"/>
<polygon fill="#63b8ff" stroke="#63b8ff" points="367.17,-272.27 377.48,-269.84 367.91,-265.31 367.17,-272.27"/>
</a>
</g>
</g>
<!-- Node26 -->
<g id="Node000026" class="node">
<title>Node26</title>
<g id="a_Node000026"><a xlink:href="class_main_window.html#a58d0f0988d7ad6c216bf8dac276f694a" target="_top" xlink:title=" ">
<polygon fill="white" stroke="#666666" points="701.12,-58 560.62,-58 560.62,-38 701.12,-38 701.12,-58"/>
<text xml:space="preserve" text-anchor="middle" x="630.88" y="-44.5" font-family="Helvetica,sans-Serif" font-size="10.00">MainWindow::startAutoSave</text>
</a>
</g>
</g>
<!-- Node2&#45;&gt;Node26 -->
<g id="edge34_Node000002_Node000026" class="edge">
<title>Node2&#45;&gt;Node26</title>
<g id="a_edge34_Node000002_Node000026"><a xlink:title=" ">
<path fill="none" stroke="#63b8ff" d="M260.35,-246.56C272.5,-218.78 309.61,-142.72 365.75,-106 420.33,-70.3 493.46,-56.26 548.93,-50.9"/>
<polygon fill="#63b8ff" stroke="#63b8ff" points="548.97,-54.41 558.62,-50.04 548.35,-47.43 548.97,-54.41"/>
</a>
</g>
</g>
<!-- Node27 -->
<g id="Node000027" class="node">
<title>Node27</title>
<g id="a_Node000027"><a xlink:href="class_main_window.html#aee739ca28d89caa75e05d5462445432e" target="_top" xlink:title=" ">
<polygon fill="white" stroke="#666666" points="700.75,-20 561,-20 561,0 700.75,0 700.75,-20"/>
<text xml:space="preserve" text-anchor="middle" x="630.88" y="-6.5" font-family="Helvetica,sans-Serif" font-size="10.00">MainWindow::stopAutoSave</text>
</a>
</g>
</g>
<!-- Node2&#45;&gt;Node27 -->
<g id="edge36_Node000002_Node000027" class="edge">
<title>Node2&#45;&gt;Node27</title>
<g id="a_edge36_Node000002_Node000027"><a xlink:title=" ">
<path fill="none" stroke="#63b8ff" d="M258.13,-246.84C265.79,-212.97 295.34,-103.19 365.75,-53 418.84,-15.16 493.09,-5.88 549.35,-5.22"/>
<polygon fill="#63b8ff" stroke="#63b8ff" points="549.2,-8.73 559.2,-5.21 549.19,-1.73 549.2,-8.73"/>
</a>
</g>
</g>
<!-- Node6 -->
<g id="Node000006" class="node">
<title>Node6</title>
<g id="a_Node000006"><a xlink:href="class_main_window.html#a51ab21a1be4a1389a00bdb35feee8d64" target="_top" xlink:title=" ">
<polygon fill="white" stroke="#666666" points="923.38,-115 772.38,-115 772.38,-95 923.38,-95 923.38,-115"/>
<text xml:space="preserve" text-anchor="middle" x="847.88" y="-101.5" font-family="Helvetica,sans-Serif" font-size="10.00">MainWindow::updateStatusBar</text>
</a>
</g>
</g>
<!-- Node5&#45;&gt;Node6 -->
<g id="edge5_Node000005_Node000006" class="edge">
<title>Node5&#45;&gt;Node6</title>
<g id="a_edge5_Node000005_Node000006"><a xlink:title=" ">
<path fill="none" stroke="#63b8ff" d="M702.27,-92.22C720.91,-93.87 741.23,-95.66 760.6,-97.38"/>
<polygon fill="#63b8ff" stroke="#63b8ff" points="760.1,-100.85 770.37,-98.24 760.72,-93.87 760.1,-100.85"/>
</a>
</g>
</g>
<!-- Node7&#45;&gt;Node6 -->
<g id="edge21_Node000007_Node000006" class="edge">
<title>Node7&#45;&gt;Node6</title>
<g id="a_edge21_Node000007_Node000006"><a xlink:title=" ">
<path fill="none" stroke="#63b8ff" d="M492.93,-170.75C567.29,-156.94 699.58,-132.36 779.67,-117.48"/>
<polygon fill="#63b8ff" stroke="#63b8ff" points="779.93,-121 789.12,-115.73 778.65,-114.11 779.93,-121"/>
</a>
</g>
</g>
<!-- Node7&#45;&gt;Node8 -->
<g id="edge7_Node000007_Node000008" class="edge">
<title>Node7&#45;&gt;Node8</title>
<g id="a_edge7_Node000007_Node000008"><a xlink:title=" ">
<path fill="none" stroke="#63b8ff" d="M472.99,-191.45C504.17,-200.71 549.88,-214.27 583.92,-224.37"/>
<polygon fill="#63b8ff" stroke="#63b8ff" points="582.5,-227.6 593.08,-227.08 584.49,-220.88 582.5,-227.6"/>
</a>
</g>
</g>
<!-- Node19 -->
<g id="Node000019" class="node">
<title>Node19</title>
<g id="a_Node000019"><a xlink:href="class_main_window.html#a90cfbcf2e0f2549760a60f184ee0acbf" target="_top" xlink:title=" ">
<polygon fill="white" stroke="#666666" points="919.25,-254 776.5,-254 776.5,-222 919.25,-222 919.25,-254"/>
<text xml:space="preserve" text-anchor="start" x="784.5" y="-240.5" font-family="Helvetica,sans-Serif" font-size="10.00">MainWindow::updateWindow</text>
<text xml:space="preserve" text-anchor="middle" x="847.88" y="-228.5" font-family="Helvetica,sans-Serif" font-size="10.00">Title</text>
</a>
</g>
</g>
<!-- Node7&#45;&gt;Node19 -->
<g id="edge22_Node000007_Node000019" class="edge">
<title>Node7&#45;&gt;Node19</title>
<g id="a_edge22_Node000007_Node000019"><a xlink:title=" ">
<path fill="none" stroke="#63b8ff" d="M493.08,-188.31C549.63,-195.83 639.97,-207.96 718,-219 733.23,-221.15 749.46,-223.51 765.08,-225.8"/>
<polygon fill="#63b8ff" stroke="#63b8ff" points="764.43,-229.24 774.83,-227.23 765.45,-222.31 764.43,-229.24"/>
</a>
</g>
</g>
<!-- Node8&#45;&gt;Node6 -->
<g id="edge19_Node000008_Node000006" class="edge">
<title>Node8&#45;&gt;Node6</title>
<g id="a_edge19_Node000008_Node000006"><a xlink:title=" ">
<path fill="none" stroke="#63b8ff" d="M687.07,-227.52C697.78,-224.15 708.6,-219.75 718,-214 738.13,-201.7 736.51,-190.83 754,-175 775.8,-155.27 802.85,-135.34 822.12,-121.82"/>
<polygon fill="#63b8ff" stroke="#63b8ff" points="823.96,-124.8 830.18,-116.23 819.97,-119.05 823.96,-124.8"/>
</a>
</g>
</g>
<!-- Node8&#45;&gt;Node9 -->
<g id="edge8_Node000008_Node000009" class="edge">
<title>Node8&#45;&gt;Node9</title>
<g id="a_edge8_Node000008_Node000009"><a xlink:title=" ">
<path fill="none" stroke="#63b8ff" d="M688.73,-241.18C709.29,-244.85 732.69,-249.64 754,-254 775.4,-258.38 799.57,-263.32 817.88,-268.32"/>
<polygon fill="#63b8ff" stroke="#63b8ff" points="816.69,-271.62 827.27,-271.1 818.67,-264.91 816.69,-271.62"/>
</a>
</g>
</g>
<!-- Node10 -->
<g id="Node000010" class="node">
<title>Node10</title>
<g id="a_Node000010"><a xlink:href="class_json_helper.html#a7f720f1105f91b135fdfbcaf94e3f929" target="_top" xlink:title=" ">
<polygon fill="white" stroke="#666666" points="925.62,-204 770.12,-204 770.12,-184 925.62,-184 925.62,-204"/>
<text xml:space="preserve" text-anchor="middle" x="847.88" y="-190.5" font-family="Helvetica,sans-Serif" font-size="10.00">JsonHelper::saveDiagramToFile</text>
</a>
</g>
</g>
<!-- Node8&#45;&gt;Node10 -->
<g id="edge10_Node000008_Node000010" class="edge">
<title>Node8&#45;&gt;Node10</title>
<g id="a_edge10_Node000008_Node000010"><a xlink:title=" ">
<path fill="none" stroke="#63b8ff" d="M682.98,-227.54C704.85,-223.06 730.68,-217.77 754,-213 763.95,-210.96 774.49,-208.81 784.77,-206.7"/>
<polygon fill="#63b8ff" stroke="#63b8ff" points="785.2,-210.19 794.3,-204.76 783.8,-203.33 785.2,-210.19"/>
</a>
</g>
</g>
<!-- Node8&#45;&gt;Node19 -->
<g id="edge20_Node000008_Node000019" class="edge">
<title>Node8&#45;&gt;Node19</title>
<g id="a_edge20_Node000008_Node000019"><a xlink:title=" ">
<path fill="none" stroke="#63b8ff" d="M688.64,-238C712.05,-238 739.63,-238 765.14,-238"/>
<polygon fill="#63b8ff" stroke="#63b8ff" points="764.8,-241.5 774.8,-238 764.8,-234.5 764.8,-241.5"/>
</a>
</g>
</g>
<!-- Node9&#45;&gt;Node8 -->
<g id="edge9_Node000009_Node000008" class="edge">
<title>Node9&#45;&gt;Node8</title>
<g id="a_edge9_Node000009_Node000008"><a xlink:title=" ">
<path fill="none" stroke="#63b8ff" d="M783.93,-278.01C773.92,-276.08 763.67,-273.98 754,-272 722.88,-265.63 687.31,-258.35 662.61,-251.6"/>
<polygon fill="#63b8ff" stroke="#63b8ff" points="663.79,-248.3 653.21,-248.86 661.83,-255.02 663.79,-248.3"/>
</a>
</g>
</g>
<!-- Node11 -->
<g id="Node000011" class="node">
<title>Node11</title>
<g id="a_Node000011"><a xlink:href="class_json_helper.html#a3dc80512edb9b1f8bc8e50015e27e864" target="_top" xlink:title=" ">
<polygon fill="white" stroke="#666666" points="1119.38,-210 981.88,-210 981.88,-178 1119.38,-178 1119.38,-210"/>
<text xml:space="preserve" text-anchor="start" x="989.88" y="-196.5" font-family="Helvetica,sans-Serif" font-size="10.00">JsonHelper::diagramToJson</text>
<text xml:space="preserve" text-anchor="middle" x="1050.62" y="-184.5" font-family="Helvetica,sans-Serif" font-size="10.00">Object</text>
</a>
</g>
</g>
<!-- Node10&#45;&gt;Node11 -->
<g id="edge11_Node000010_Node000011" class="edge">
<title>Node10&#45;&gt;Node11</title>
<g id="a_edge11_Node000010_Node000011"><a xlink:title=" ">
<path fill="none" stroke="#63b8ff" d="M925.92,-194C940.54,-194 955.87,-194 970.56,-194"/>
<polygon fill="#63b8ff" stroke="#63b8ff" points="970.13,-197.5 980.13,-194 970.13,-190.5 970.13,-197.5"/>
</a>
</g>
</g>
<!-- Node12 -->
<g id="Node000012" class="node">
<title>Node12</title>
<g id="a_Node000012"><a xlink:href="class_json_helper.html#ace49a2bdc031d44388b744f93da1fd6d" target="_top" xlink:title=" ">
<polygon fill="white" stroke="#666666" points="1292.88,-235 1163.62,-235 1163.62,-203 1292.88,-203 1292.88,-235"/>
<text xml:space="preserve" text-anchor="start" x="1171.62" y="-221.5" font-family="Helvetica,sans-Serif" font-size="10.00">JsonHelper::connectionTo</text>
<text xml:space="preserve" text-anchor="middle" x="1228.25" y="-209.5" font-family="Helvetica,sans-Serif" font-size="10.00">JsonObject</text>
</a>
</g>
</g>
<!-- Node11&#45;&gt;Node12 -->
<g id="edge12_Node000011_Node000012" class="edge">
<title>Node11&#45;&gt;Node12</title>
<g id="a_edge12_Node000011_Node000012"><a xlink:title=" ">
<path fill="none" stroke="#63b8ff" d="M1119.78,-203.7C1130.37,-205.21 1141.36,-206.77 1152.1,-208.3"/>
<polygon fill="#63b8ff" stroke="#63b8ff" points="1151.27,-211.72 1161.67,-209.66 1152.26,-204.79 1151.27,-211.72"/>
</a>
</g>
</g>
<!-- Node17 -->
<g id="Node000017" class="node">
<title>Node17</title>
<g id="a_Node000017"><a xlink:href="class_json_helper.html#a2141a614711cf449951f1ebde5a9b119" target="_top" xlink:title=" ">
<polygon fill="white" stroke="#666666" points="1297,-185 1159.5,-185 1159.5,-153 1297,-153 1297,-185"/>
<text xml:space="preserve" text-anchor="start" x="1167.5" y="-171.5" font-family="Helvetica,sans-Serif" font-size="10.00">JsonHelper::elementToJson</text>
<text xml:space="preserve" text-anchor="middle" x="1228.25" y="-159.5" font-family="Helvetica,sans-Serif" font-size="10.00">Object</text>
</a>
</g>
</g>
<!-- Node11&#45;&gt;Node17 -->
<g id="edge17_Node000011_Node000017" class="edge">
<title>Node11&#45;&gt;Node17</title>
<g id="a_edge17_Node000011_Node000017"><a xlink:title=" ">
<path fill="none" stroke="#63b8ff" d="M1119.78,-184.3C1128.96,-182.99 1138.45,-181.64 1147.81,-180.31"/>
<polygon fill="#63b8ff" stroke="#63b8ff" points="1148.23,-183.78 1157.64,-178.91 1147.24,-176.85 1148.23,-183.78"/>
</a>
</g>
</g>
<!-- Node13 -->
<g id="Node000013" class="node">
<title>Node13</title>
<g id="a_Node000013"><a xlink:href="class_connection_line.html#a89b03bf381274e4504b1cde0f32972ee" target="_top" xlink:title=" ">
<polygon fill="white" stroke="#666666" points="1458.5,-229 1333,-229 1333,-209 1458.5,-209 1458.5,-229"/>
<text xml:space="preserve" text-anchor="middle" x="1395.75" y="-215.5" font-family="Helvetica,sans-Serif" font-size="10.00">ConnectionLine::serialize</text>
</a>
</g>
</g>
<!-- Node12&#45;&gt;Node13 -->
<g id="edge13_Node000012_Node000013" class="edge">
<title>Node12&#45;&gt;Node13</title>
<g id="a_edge13_Node000012_Node000013"><a xlink:title=" ">
<path fill="none" stroke="#63b8ff" d="M1293.24,-219C1302.42,-219 1311.93,-219 1321.28,-219"/>
<polygon fill="#63b8ff" stroke="#63b8ff" points="1321.05,-222.5 1331.05,-219 1321.05,-215.5 1321.05,-222.5"/>
</a>
</g>
</g>
<!-- Node14 -->
<g id="Node000014" class="node">
<title>Node14</title>
<g id="a_Node000014"><a xlink:href="class_connection_line.html#ab11952b505976244aabc575e0ec7b118" target="_top" xlink:title=" ">
<polygon fill="white" stroke="#666666" points="1650.75,-273 1494.5,-273 1494.5,-253 1650.75,-253 1650.75,-273"/>
<text xml:space="preserve" text-anchor="middle" x="1572.62" y="-259.5" font-family="Helvetica,sans-Serif" font-size="10.00">ConnectionLine::getEndElement</text>
</a>
</g>
</g>
<!-- Node13&#45;&gt;Node14 -->
<g id="edge14_Node000013_Node000014" class="edge">
<title>Node13&#45;&gt;Node14</title>
<g id="a_edge14_Node000013_Node000014"><a xlink:title=" ">
<path fill="none" stroke="#63b8ff" d="M1437.15,-229.42C1454.76,-233.94 1475.64,-239.27 1494.5,-244 1502.05,-245.89 1510.01,-247.88 1517.84,-249.82"/>
<polygon fill="#63b8ff" stroke="#63b8ff" points="1516.76,-253.15 1527.3,-252.15 1518.44,-246.36 1516.76,-253.15"/>
</a>
</g>
</g>
<!-- Node15 -->
<g id="Node000015" class="node">
<title>Node15</title>
<g id="a_Node000015"><a xlink:href="class_connection_line.html#ad957be37b7bbb9250366225fd357a5a6" target="_top" xlink:title=" ">
<polygon fill="white" stroke="#666666" points="1634.62,-235 1510.62,-235 1510.62,-203 1634.62,-203 1634.62,-235"/>
<text xml:space="preserve" text-anchor="start" x="1518.62" y="-221.5" font-family="Helvetica,sans-Serif" font-size="10.00">ConnectionLine::getStart</text>
<text xml:space="preserve" text-anchor="middle" x="1572.62" y="-209.5" font-family="Helvetica,sans-Serif" font-size="10.00">Element</text>
</a>
</g>
</g>
<!-- Node13&#45;&gt;Node15 -->
<g id="edge15_Node000013_Node000015" class="edge">
<title>Node13&#45;&gt;Node15</title>
<g id="a_edge15_Node000013_Node000015"><a xlink:title=" ">
<path fill="none" stroke="#63b8ff" d="M1458.9,-219C1471.8,-219 1485.52,-219 1498.77,-219"/>
<polygon fill="#63b8ff" stroke="#63b8ff" points="1498.75,-222.5 1508.75,-219 1498.75,-215.5 1498.75,-222.5"/>
</a>
</g>
</g>
<!-- Node16 -->
<g id="Node000016" class="node">
<title>Node16</title>
<g id="a_Node000016"><a xlink:href="class_connection_line.html#aacfed243a999c948c87dab84ebc508aa" target="_top" xlink:title=" ">
<polygon fill="white" stroke="#666666" points="1637.62,-185 1507.62,-185 1507.62,-165 1637.62,-165 1637.62,-185"/>
<text xml:space="preserve" text-anchor="middle" x="1572.62" y="-171.5" font-family="Helvetica,sans-Serif" font-size="10.00">ConnectionLine::lineWidth</text>
</a>
</g>
</g>
<!-- Node13&#45;&gt;Node16 -->
<g id="edge16_Node000013_Node000016" class="edge">
<title>Node13&#45;&gt;Node16</title>
<g id="a_edge16_Node000013_Node000016"><a xlink:title=" ">
<path fill="none" stroke="#63b8ff" d="M1437.15,-208.58C1454.76,-204.06 1475.64,-198.73 1494.5,-194 1502.05,-192.11 1510.01,-190.12 1517.84,-188.18"/>
<polygon fill="#63b8ff" stroke="#63b8ff" points="1518.44,-191.64 1527.3,-185.85 1516.76,-184.85 1518.44,-191.64"/>
</a>
</g>
</g>
<!-- Node18 -->
<g id="Node000018" class="node">
<title>Node18</title>
<g id="a_Node000018"><a xlink:href="class_basic_element.html#a56f5f9a22723d2a99d87c7508b0bec7f" target="_top" xlink:title=" ">
<polygon fill="white" stroke="#666666" points="1455.12,-179 1336.38,-179 1336.38,-159 1455.12,-159 1455.12,-179"/>
<text xml:space="preserve" text-anchor="middle" x="1395.75" y="-165.5" font-family="Helvetica,sans-Serif" font-size="10.00">BasicElement::serialize</text>
</a>
</g>
</g>
<!-- Node17&#45;&gt;Node18 -->
<g id="edge18_Node000017_Node000018" class="edge">
<title>Node17&#45;&gt;Node18</title>
<g id="a_edge18_Node000017_Node000018"><a xlink:title=" ">
<path fill="none" stroke="#63b8ff" d="M1297.04,-169C1306.14,-169 1315.49,-169 1324.63,-169"/>
<polygon fill="#63b8ff" stroke="#63b8ff" points="1324.55,-172.5 1334.55,-169 1324.55,-165.5 1324.55,-172.5"/>
</a>
</g>
</g>
<!-- Node20&#45;&gt;Node6 -->
<g id="edge30_Node000020_Node000006" class="edge">
<title>Node20&#45;&gt;Node6</title>
<g id="a_edge30_Node000020_Node000006"><a xlink:title=" ">
<path fill="none" stroke="#63b8ff" d="M454.95,-265.63C475.57,-253.46 511.4,-233.16 543.75,-219 618.79,-186.16 641.47,-188.18 718,-159 750.53,-146.6 787.08,-131.13 812.93,-119.94"/>
<polygon fill="#63b8ff" stroke="#63b8ff" points="814.15,-123.22 821.92,-116.02 811.35,-116.8 814.15,-123.22"/>
</a>
</g>
</g>
<!-- Node20&#45;&gt;Node8 -->
<g id="edge29_Node000020_Node000008" class="edge">
<title>Node20&#45;&gt;Node8</title>
<g id="a_edge29_Node000020_Node000008"><a xlink:title=" ">
<path fill="none" stroke="#63b8ff" d="M490.76,-265.52C514.07,-260.91 541.64,-255.45 566.07,-250.62"/>
<polygon fill="#63b8ff" stroke="#63b8ff" points="566.42,-254.12 575.56,-248.74 565.07,-247.25 566.42,-254.12"/>
</a>
</g>
</g>
<!-- Node20&#45;&gt;Node19 -->
<g id="edge31_Node000020_Node000019" class="edge">
<title>Node20&#45;&gt;Node19</title>
<g id="a_edge31_Node000020_Node000019"><a xlink:title=" ">
<path fill="none" stroke="#63b8ff" d="M494.49,-273.46C551.19,-270.62 640.78,-265.3 718,-257 733.2,-255.37 749.36,-253.27 764.91,-251.07"/>
<polygon fill="#63b8ff" stroke="#63b8ff" points="765.2,-254.57 774.6,-249.67 764.21,-247.64 765.2,-254.57"/>
</a>
</g>
</g>
<!-- Node21 -->
<g id="Node000021" class="node">
<title>Node21</title>
<g id="a_Node000021"><a xlink:href="class_main_window.html#a8fdec0badace6652ddf9e9e7654dd1f2" target="_top" xlink:title=" ">
<polygon fill="white" stroke="#666666" points="718,-400 543.75,-400 543.75,-380 718,-380 718,-400"/>
<text xml:space="preserve" text-anchor="middle" x="630.88" y="-386.5" font-family="Helvetica,sans-Serif" font-size="10.00">MainWindow::loadDiagramElements</text>
</a>
</g>
</g>
<!-- Node20&#45;&gt;Node21 -->
<g id="edge24_Node000020_Node000021" class="edge">
<title>Node20&#45;&gt;Node21</title>
<g id="a_edge24_Node000020_Node000021"><a xlink:title=" ">
<path fill="none" stroke="#63b8ff" d="M489.18,-286.43C495.66,-288.76 502.02,-291.58 507.75,-295 527.72,-306.94 525.93,-318.04 543.75,-333 562,-348.33 584.52,-363.1 601.95,-373.77"/>
<polygon fill="#63b8ff" stroke="#63b8ff" points="599.88,-376.61 610.26,-378.77 603.49,-370.61 599.88,-376.61"/>
</a>
</g>
</g>
<!-- Node25 -->
<g id="Node000025" class="node">
<title>Node25</title>
<g id="a_Node000025"><a xlink:href="class_json_helper.html#ad27b520f4c2c303444d97451efe4ba2d" target="_top" xlink:title=" ">
<polygon fill="white" stroke="#666666" points="713.12,-324 548.62,-324 548.62,-304 713.12,-304 713.12,-324"/>
<text xml:space="preserve" text-anchor="middle" x="630.88" y="-310.5" font-family="Helvetica,sans-Serif" font-size="10.00">JsonHelper::loadDiagramFromFile</text>
</a>
</g>
</g>
<!-- Node20&#45;&gt;Node25 -->
<g id="edge28_Node000020_Node000025" class="edge">
<title>Node20&#45;&gt;Node25</title>
<g id="a_edge28_Node000020_Node000025"><a xlink:title=" ">
<path fill="none" stroke="#63b8ff" d="M490.76,-286.48C514.07,-291.09 541.64,-296.55 566.07,-301.38"/>
<polygon fill="#63b8ff" stroke="#63b8ff" points="565.07,-304.75 575.56,-303.26 566.42,-297.88 565.07,-304.75"/>
</a>
</g>
</g>
<!-- Node22 -->
<g id="Node000022" class="node">
<title>Node22</title>
<g id="a_Node000022"><a xlink:href="class_main_window.html#a5d72b4827a74753adad180ace8109842" target="_top" xlink:title=" ">
<polygon fill="white" stroke="#666666" points="918.5,-384 777.25,-384 777.25,-352 918.5,-352 918.5,-384"/>
<text xml:space="preserve" text-anchor="start" x="785.25" y="-370.5" font-family="Helvetica,sans-Serif" font-size="10.00">MainWindow::createElement</text>
<text xml:space="preserve" text-anchor="middle" x="847.88" y="-358.5" font-family="Helvetica,sans-Serif" font-size="10.00">ByType</text>
</a>
</g>
</g>
<!-- Node21&#45;&gt;Node22 -->
<g id="edge25_Node000021_Node000022" class="edge">
<title>Node21&#45;&gt;Node22</title>
<g id="a_edge25_Node000021_Node000022"><a xlink:title=" ">
<path fill="none" stroke="#63b8ff" d="M718.39,-381.15C734.07,-379.54 750.37,-377.87 765.89,-376.29"/>
<polygon fill="#63b8ff" stroke="#63b8ff" points="765.93,-379.8 775.52,-375.3 765.22,-372.84 765.93,-379.8"/>
</a>
</g>
</g>
<!-- Node23 -->
<g id="Node000023" class="node">
<title>Node23</title>
<g id="a_Node000023"><a xlink:href="class_main_window.html#ae3e9c84a0e0f1ffa84e523ac1aefc565" target="_top" xlink:title=" ">
<polygon fill="white" stroke="#666666" points="941.75,-422 754,-422 754,-402 941.75,-402 941.75,-422"/>
<text xml:space="preserve" text-anchor="middle" x="847.88" y="-408.5" font-family="Helvetica,sans-Serif" font-size="10.00">MainWindow::loadDiagramConnections</text>
</a>
</g>
</g>
<!-- Node21&#45;&gt;Node23 -->
<g id="edge26_Node000021_Node000023" class="edge">
<title>Node21&#45;&gt;Node23</title>
<g id="a_edge26_Node000021_Node000023"><a xlink:title=" ">
<path fill="none" stroke="#63b8ff" d="M718.39,-398.85C726.33,-399.66 734.41,-400.49 742.48,-401.32"/>
<polygon fill="#63b8ff" stroke="#63b8ff" points="742.04,-404.79 752.34,-402.33 742.75,-397.83 742.04,-404.79"/>
</a>
</g>
</g>
<!-- Node24 -->
<g id="Node000024" class="node">
<title>Node24</title>
<g id="a_Node000024"><a xlink:href="class_basic_element.html#a70598cf89581cc6e308dafaa69551934" target="_top" xlink:title=" ">
<polygon fill="white" stroke="#666666" points="1123.5,-428 977.75,-428 977.75,-396 1123.5,-396 1123.5,-428"/>
<text xml:space="preserve" text-anchor="start" x="985.75" y="-414.5" font-family="Helvetica,sans-Serif" font-size="10.00">BasicElement::getConnection</text>
<text xml:space="preserve" text-anchor="middle" x="1050.62" y="-402.5" font-family="Helvetica,sans-Serif" font-size="10.00">PointByDirection</text>
</a>
</g>
</g>
<!-- Node23&#45;&gt;Node24 -->
<g id="edge27_Node000023_Node000024" class="edge">
<title>Node23&#45;&gt;Node24</title>
<g id="a_edge27_Node000023_Node000024"><a xlink:title=" ">
<path fill="none" stroke="#63b8ff" d="M942.2,-412C950.11,-412 958.08,-412 965.91,-412"/>
<polygon fill="#63b8ff" stroke="#63b8ff" points="965.75,-415.5 975.75,-412 965.75,-408.5 965.75,-415.5"/>
</a>
</g>
</g>
<!-- Node26&#45;&gt;Node6 -->
<g id="edge35_Node000026_Node000006" class="edge">
<title>Node26&#45;&gt;Node6</title>
<g id="a_edge35_Node000026_Node000006"><a xlink:title=" ">
<path fill="none" stroke="#63b8ff" d="M682.11,-58.47C693.92,-61.1 706.43,-64.02 718,-67 746.41,-74.31 778,-83.61 802.79,-91.18"/>
<polygon fill="#63b8ff" stroke="#63b8ff" points="801.64,-94.48 812.23,-94.07 803.7,-87.79 801.64,-94.48"/>
</a>
</g>
</g>
<!-- Node27&#45;&gt;Node6 -->
<g id="edge37_Node000027_Node000006" class="edge">
<title>Node27&#45;&gt;Node6</title>
<g id="a_edge37_Node000027_Node000006"><a xlink:title=" ">
<path fill="none" stroke="#63b8ff" d="M690.99,-20.44C700.18,-22.8 709.45,-25.64 718,-29 757.09,-44.38 798.22,-70.66 823.22,-87.93"/>
<polygon fill="#63b8ff" stroke="#63b8ff" points="821.15,-90.75 831.34,-93.63 825.17,-85.02 821.15,-90.75"/>
</a>
</g>
</g>
<!-- Node28&#45;&gt;Node3 -->
<g id="edge39_Node000028_Node000003" class="edge">
<title>Node28&#45;&gt;Node3</title>
<g id="a_edge39_Node000028_Node000003"><a xlink:title=" ">
<path fill="none" stroke="#63b8ff" d="M330.15,-401.16C339.5,-400.17 349.08,-399.16 358.48,-398.17"/>
<polygon fill="#63b8ff" stroke="#63b8ff" points="358.74,-401.66 368.32,-397.13 358,-394.7 358.74,-401.66"/>
</a>
</g>
</g>
<!-- Node29 -->
<g id="Node000029" class="node">
<title>Node29</title>
<g id="a_Node000029"><a xlink:href="class_main_window.html#aa3aa0f3ce42e748b931d6211921ea197" target="_top" xlink:title=" ">
<polygon fill="white" stroke="#666666" points="500.25,-438 373.25,-438 373.25,-418 500.25,-418 500.25,-438"/>
<text xml:space="preserve" text-anchor="middle" x="436.75" y="-424.5" font-family="Helvetica,sans-Serif" font-size="10.00">MainWindow::showAbout</text>
</a>
</g>
</g>
<!-- Node28&#45;&gt;Node29 -->
<g id="edge40_Node000028_Node000029" class="edge">
<title>Node28&#45;&gt;Node29</title>
<g id="a_edge40_Node000028_Node000029"><a xlink:title=" ">
<path fill="none" stroke="#63b8ff" d="M330.15,-416.84C340.59,-417.94 351.32,-419.08 361.76,-420.18"/>
<polygon fill="#63b8ff" stroke="#63b8ff" points="361.12,-423.63 371.43,-421.2 361.86,-416.67 361.12,-423.63"/>
</a>
</g>
</g>
<!-- Node30 -->
<g id="Node000030" class="node">
<title>Node30</title>
<g id="a_Node000030"><a xlink:href="class_main_window.html#a3111788b36503e5ae8eabef2b32a6f62" target="_top" xlink:title=" ">
<polygon fill="white" stroke="#666666" points="497.62,-476 375.88,-476 375.88,-456 497.62,-456 497.62,-476"/>
<text xml:space="preserve" text-anchor="middle" x="436.75" y="-462.5" font-family="Helvetica,sans-Serif" font-size="10.00">MainWindow::showHelp</text>
</a>
</g>
</g>
<!-- Node28&#45;&gt;Node30 -->
<g id="edge41_Node000028_Node000030" class="edge">
<title>Node28&#45;&gt;Node30</title>
<g id="a_edge41_Node000028_Node000030"><a xlink:title=" ">
<path fill="none" stroke="#63b8ff" d="M284.25,-419.38C306.31,-427.34 337.81,-438.38 365.75,-447 371.84,-448.88 378.26,-450.76 384.64,-452.56"/>
<polygon fill="#63b8ff" stroke="#63b8ff" points="383.24,-455.81 393.81,-455.11 385.11,-449.06 383.24,-455.81"/>
</a>
</g>
</g>
</g>
</svg>

<g id="navigator" transform="translate(0 0)" fill="#404254">
  <rect fill="#f2f5e9" fill-opacity="0.5" stroke="#606060" stroke-width=".5" x="0" y="0" width="60" height="60"/>
  <use id="zoomplus" xlink:href="#zoomPlus" x="17" y="9" onmousedown="handleZoom(evt,'in')"/>
  <use id="zoomminus" xlink:href="#zoomMin" x="42" y="9" onmousedown="handleZoom(evt,'out')"/>
  <use id="reset" xlink:href="#resetDef" x="30" y="36" onmousedown="handleReset()"/>
   <use id="arrowup" xlink:href="#arrowUp" x="0" y="0" onmousedown="handlePan(0,-1)"/>
  <use id="arrowright" xlink:href="#arrowRight" x="0" y="0" onmousedown="handlePan(1,0)"/>
  <use id="arrowdown" xlink:href="#arrowDown" x="0" y="0" onmousedown="handlePan(0,1)"/>
  <use id="arrowleft" xlink:href="#arrowLeft" x="0" y="0" onmousedown="handlePan(-1,0)"/>
</g>
<svg viewBox="0 0 15 15" width="100%" height="30px" preserveAspectRatio="xMaxYMin meet">
 <g id="arrow_out" transform="scale(0.3 0.3)">
  <a xlink:href="class_main_window_a2305527bb5d827ae07967ea1c86ee6fb_cgraph_org.svg" target="_base">
   <rect id="button" ry="5" rx="5" y="6" x="6" height="38" width="38"
        fill="#f2f5e9" fill-opacity="0.5" stroke="#606060" stroke-width="1.0"/>
   <path id="arrow"
     d="M 11.500037,31.436501 C 11.940474,20.09759 22.043105,11.32322 32.158766,21.979434 L 37.068811,17.246167 C 37.068811,17.246167 37.088388,32 37.088388,32 L 22.160133,31.978069 C 22.160133,31.978069 26.997745,27.140456 26.997745,27.140456 C 18.528582,18.264221 13.291696,25.230495 11.500037,31.436501 z"
     style="fill:#404040;"/>
  </a>
 </g>
</svg>

<style type='text/css'>
<![CDATA[
[data-mouse-over-selected='false'] { opacity: 0.7; }
[data-mouse-over-selected='true']  { opacity: 1.0; }
]]>
</style>
<script type="application/ecmascript"><![CDATA[
document.addEventListener('DOMContentLoaded', (event) => {
  highlightEdges();
  highlightAdjacentNodes();
});
]]></script>
</svg>
