<?xml version="1.0" encoding="UTF-8" standalone="no"?>
<!DOCTYPE svg PUBLIC "-//W3C//DTD SVG 1.1//EN"
 "http://www.w3.org/Graphics/SVG/1.1/DTD/svg11.dtd">
<!-- Generated by graphviz version 14.1.1 (20251213.1925)
 -->
<!-- Title: MainWindow::onPropertyValueChanged Pages: 1 -->
<svg width="1952pt" height="537pt"
 viewBox="0.00 0.00 1952.00 537.00" xmlns="http://www.w3.org/2000/svg" xmlns:xlink="http://www.w3.org/1999/xlink">
<g id="graph0" class="graph" transform="scale(1 1) rotate(0) translate(4 532.81)">
<title>MainWindow::onPropertyValueChanged</title>
<!-- Node1 -->
<g id="Node000001" class="node">
<title>Node1</title>
<g id="a_Node000001"><a xlink:title=" ">
<polygon fill="#999999" stroke="#666666" points="1943.5,-333.78 1794,-333.78 1794,-301.78 1943.5,-301.78 1943.5,-333.78"/>
<text xml:space="preserve" text-anchor="start" x="1802" y="-320.28" font-family="Helvetica,sans-Serif" font-size="10.00">MainWindow::onPropertyValue</text>
<text xml:space="preserve" text-anchor="middle" x="1868.75" y="-308.28" font-family="Helvetica,sans-Serif" font-size="10.00">Changed</text>
</a>
</g>
</g>
<!-- Node2 -->
<g id="Node000002" class="node">
<title>Node2</title>
<g id="a_Node000002"><a xlink:href="class_main_window.html#adfa32feecffce3959c99d145fc8b4854" target="_top" xlink:title=" ">
<polygon fill="white" stroke="#666666" points="1357,-484.78 1212,-484.78 1212,-464.78 1357,-464.78 1357,-484.78"/>
<text xml:space="preserve" text-anchor="middle" x="1284.5" y="-471.28" font-family="Helvetica,sans-Serif" font-size="10.00">MainWindow::connectSignals</text>
</a>
</g>
</g>
<!-- Node1&#45;&gt;Node2 -->
<g id="edge1_Node000001_Node000002" class="edge">
<title>Node1&#45;&gt;Node2</title>
<g id="a_edge1_Node000001_Node000002"><a xlink:title=" ">
<path fill="none" stroke="#63b8ff" d="M1839.94,-341.34C1789.93,-381.98 1679.78,-463.8 1570.25,-493.78 1484.71,-517.18 1379.58,-498.57 1324.07,-485.25"/>
<polygon fill="#63b8ff" stroke="#63b8ff" points="1841.89,-344.26 1847.4,-335.21 1837.45,-338.85 1841.89,-344.26"/>
</a>
</g>
</g>
<!-- Node4 -->
<g id="Node000004" class="node">
<title>Node4</title>
<g id="a_Node000004"><a xlink:href="class_main_window.html#a5caeae304b10e5cd9f83ef5c6086310b" target="_top" xlink:title=" ">
<polygon fill="white" stroke="#666666" points="1758,-333.78 1606.25,-333.78 1606.25,-301.78 1758,-301.78 1758,-333.78"/>
<text xml:space="preserve" text-anchor="start" x="1614.25" y="-320.28" font-family="Helvetica,sans-Serif" font-size="10.00">MainWindow::updateProperties</text>
<text xml:space="preserve" text-anchor="middle" x="1682.12" y="-308.28" font-family="Helvetica,sans-Serif" font-size="10.00">Panel</text>
</a>
</g>
</g>
<!-- Node1&#45;&gt;Node4 -->
<g id="edge3_Node000001_Node000004" class="edge">
<title>Node1&#45;&gt;Node4</title>
<g id="a_edge3_Node000001_Node000004"><a xlink:title=" ">
<path fill="none" stroke="#63b8ff" d="M1782.44,-311.04C1774.41,-311 1766.31,-311.03 1758.38,-311.13"/>
<polygon fill="#63b8ff" stroke="#63b8ff" points="1782.18,-314.54 1792.21,-311.13 1782.24,-307.54 1782.18,-314.54"/>
</a>
</g>
</g>
<!-- Node3 -->
<g id="Node000003" class="node">
<title>Node3</title>
<g id="a_Node000003"><a xlink:href="class_main_window.html#a996c5a2b6f77944776856f08ec30858d" target="_top" xlink:title=" ">
<polygon fill="white" stroke="#666666" points="1146,-484.78 1011.5,-484.78 1011.5,-464.78 1146,-464.78 1146,-484.78"/>
<text xml:space="preserve" text-anchor="middle" x="1078.75" y="-471.28" font-family="Helvetica,sans-Serif" font-size="10.00">MainWindow::MainWindow</text>
</a>
</g>
</g>
<!-- Node2&#45;&gt;Node3 -->
<g id="edge2_Node000002_Node000003" class="edge">
<title>Node2&#45;&gt;Node3</title>
<g id="a_edge2_Node000002_Node000003"><a xlink:title=" ">
<path fill="none" stroke="#63b8ff" d="M1200.27,-474.78C1182.26,-474.78 1163.44,-474.78 1146.17,-474.78"/>
<polygon fill="#63b8ff" stroke="#63b8ff" points="1200.15,-478.28 1210.15,-474.78 1200.15,-471.28 1200.15,-478.28"/>
</a>
</g>
</g>
<!-- Node4&#45;&gt;Node1 -->
<g id="edge32_Node000004_Node000001" class="edge">
<title>Node4&#45;&gt;Node1</title>
<g id="a_edge32_Node000004_Node000001"><a xlink:title=" ">
<path fill="none" stroke="#63b8ff" d="M1769.68,-324.51C1777.71,-324.55 1785.81,-324.51 1793.72,-324.41"/>
<polygon fill="#63b8ff" stroke="#63b8ff" points="1769.92,-321.02 1759.89,-324.43 1769.86,-328.02 1769.92,-321.02"/>
</a>
</g>
</g>
<!-- Node5 -->
<g id="Node000005" class="node">
<title>Node5</title>
<g id="a_Node000005"><a xlink:href="class_main_window.html#ad34ae0349abf41aa739b75b85df74126" target="_top" xlink:title=" ">
<polygon fill="white" stroke="#666666" points="1557.5,-446.78 1414.75,-446.78 1414.75,-414.78 1557.5,-414.78 1557.5,-446.78"/>
<text xml:space="preserve" text-anchor="start" x="1422.75" y="-433.28" font-family="Helvetica,sans-Serif" font-size="10.00">MainWindow::onAddAttribute</text>
<text xml:space="preserve" text-anchor="middle" x="1486.12" y="-421.28" font-family="Helvetica,sans-Serif" font-size="10.00">OnTreeClicked</text>
</a>
</g>
</g>
<!-- Node4&#45;&gt;Node5 -->
<g id="edge4_Node000004_Node000005" class="edge">
<title>Node4&#45;&gt;Node5</title>
<g id="a_edge4_Node000004_Node000005"><a xlink:title=" ">
<path fill="none" stroke="#63b8ff" d="M1656.77,-341.65C1635.5,-361.32 1602.99,-388.67 1570.25,-405.78 1564.11,-408.99 1557.49,-411.85 1550.76,-414.39"/>
<polygon fill="#63b8ff" stroke="#63b8ff" points="1658.91,-344.44 1663.79,-335.04 1654.11,-339.34 1658.91,-344.44"/>
</a>
</g>
</g>
<!-- Node12 -->
<g id="Node000012" class="node">
<title>Node12</title>
<g id="a_Node000012"><a xlink:href="class_main_window.html#a47fd0b86ddb5829e3b0cb15908671670" target="_top" xlink:title=" ">
<polygon fill="white" stroke="#666666" points="1165.5,-94.78 992,-94.78 992,-74.78 1165.5,-74.78 1165.5,-94.78"/>
<text xml:space="preserve" text-anchor="middle" x="1078.75" y="-81.28" font-family="Helvetica,sans-Serif" font-size="10.00">MainWindow::onCheckBoxChanged</text>
</a>
</g>
</g>
<!-- Node4&#45;&gt;Node12 -->
<g id="edge18_Node000004_Node000012" class="edge">
<title>Node4&#45;&gt;Node12</title>
<g id="a_edge18_Node000004_Node000012"><a xlink:title=" ">
<path fill="none" stroke="#63b8ff" d="M1665.63,-291.66C1625.81,-227.7 1512.69,-64.88 1366,-15.78 1297.3,7.22 1273.1,2.51 1203,-15.78 1159.1,-27.23 1114.29,-58.16 1092.8,-74.44"/>
<polygon fill="#63b8ff" stroke="#63b8ff" points="1662.59,-293.4 1670.8,-300.09 1668.55,-289.74 1662.59,-293.4"/>
</a>
</g>
</g>
<!-- Node14 -->
<g id="Node000014" class="node">
<title>Node14</title>
<g id="a_Node000014"><a xlink:href="class_main_window.html#ac1e0c79708cf9aa9b7ca1a87697e5b34" target="_top" xlink:title=" ">
<polygon fill="white" stroke="#666666" points="1167,-220.78 990.5,-220.78 990.5,-200.78 1167,-200.78 1167,-220.78"/>
<text xml:space="preserve" text-anchor="middle" x="1078.75" y="-207.28" font-family="Helvetica,sans-Serif" font-size="10.00">MainWindow::onComboBoxChanged</text>
</a>
</g>
</g>
<!-- Node4&#45;&gt;Node14 -->
<g id="edge22_Node000004_Node000014" class="edge">
<title>Node4&#45;&gt;Node14</title>
<g id="a_edge22_Node000004_Node000014"><a xlink:title=" ">
<path fill="none" stroke="#63b8ff" d="M1594.79,-304.48C1467.54,-284.81 1240.57,-249.47 1203,-241.78 1174.14,-235.87 1141.87,-227.69 1117.58,-221.22"/>
<polygon fill="#63b8ff" stroke="#63b8ff" points="1594.12,-307.92 1604.54,-305.98 1595.19,-301 1594.12,-307.92"/>
</a>
</g>
</g>
<!-- Node18 -->
<g id="Node000018" class="node">
<title>Node18</title>
<g id="a_Node000018"><a xlink:href="class_main_window.html#a0e7ca45ac830893108871185dda813a4" target="_top" xlink:title=" ">
<polygon fill="white" stroke="#666666" points="1366,-308.78 1203,-308.78 1203,-288.78 1366,-288.78 1366,-308.78"/>
<text xml:space="preserve" text-anchor="middle" x="1284.5" y="-295.28" font-family="Helvetica,sans-Serif" font-size="10.00">MainWindow::onLineEditChanged</text>
</a>
</g>
</g>
<!-- Node4&#45;&gt;Node18 -->
<g id="edge29_Node000004_Node000018" class="edge">
<title>Node4&#45;&gt;Node18</title>
<g id="a_edge29_Node000004_Node000018"><a xlink:title=" ">
<path fill="none" stroke="#63b8ff" d="M1594.68,-313.62C1526.74,-310.36 1432.8,-305.85 1366.35,-302.66"/>
<polygon fill="#63b8ff" stroke="#63b8ff" points="1594.11,-317.1 1604.27,-314.08 1594.45,-310.11 1594.11,-317.1"/>
</a>
</g>
</g>
<!-- Node20 -->
<g id="Node000020" class="node">
<title>Node20</title>
<g id="a_Node000020"><a xlink:href="class_main_window.html#a95674d4bfc5fc2aad6df1601f23b1793" target="_top" xlink:title=" ">
<polygon fill="white" stroke="#666666" points="1567.25,-396.78 1405,-396.78 1405,-364.78 1567.25,-364.78 1567.25,-396.78"/>
<text xml:space="preserve" text-anchor="start" x="1413" y="-383.28" font-family="Helvetica,sans-Serif" font-size="10.00">MainWindow::onRemoveAttribute</text>
<text xml:space="preserve" text-anchor="middle" x="1486.12" y="-371.28" font-family="Helvetica,sans-Serif" font-size="10.00">OnTreeClicked</text>
</a>
</g>
</g>
<!-- Node4&#45;&gt;Node20 -->
<g id="edge33_Node000004_Node000020" class="edge">
<title>Node4&#45;&gt;Node20</title>
<g id="a_edge33_Node000004_Node000020"><a xlink:title=" ">
<path fill="none" stroke="#63b8ff" d="M1619.77,-337.7C1593.4,-346.26 1562.95,-356.15 1537.88,-364.29"/>
<polygon fill="#63b8ff" stroke="#63b8ff" points="1620.54,-341.13 1628.97,-334.71 1618.38,-334.47 1620.54,-341.13"/>
</a>
</g>
</g>
<!-- Node21 -->
<g id="Node000021" class="node">
<title>Node21</title>
<g id="a_Node000021"><a xlink:href="class_main_window.html#a44791b85064ecff42c12429c6667e83b" target="_top" xlink:title=" ">
<polygon fill="white" stroke="#666666" points="1570.25,-484.78 1402,-484.78 1402,-464.78 1570.25,-464.78 1570.25,-484.78"/>
<text xml:space="preserve" text-anchor="middle" x="1486.12" y="-471.28" font-family="Helvetica,sans-Serif" font-size="10.00">MainWindow::onSelectionChanged</text>
</a>
</g>
</g>
<!-- Node4&#45;&gt;Node21 -->
<g id="edge35_Node000004_Node000021" class="edge">
<title>Node4&#45;&gt;Node21</title>
<g id="a_edge35_Node000004_Node000021"><a xlink:title=" ">
<path fill="none" stroke="#63b8ff" d="M1667.49,-343.76C1649.54,-375.32 1614.95,-427.79 1570.25,-455.78 1564.73,-459.23 1558.65,-462.06 1552.37,-464.38"/>
<polygon fill="#63b8ff" stroke="#63b8ff" points="1670.42,-345.69 1672.2,-335.25 1664.3,-342.3 1670.42,-345.69"/>
</a>
</g>
</g>
<!-- Node22 -->
<g id="Node000022" class="node">
<title>Node22</title>
<g id="a_Node000022"><a xlink:href="class_main_window.html#af380eeda83d30cd1ecb1419cfd5161d7" target="_top" xlink:title=" ">
<polygon fill="white" stroke="#666666" points="1553,-210.78 1419.25,-210.78 1419.25,-178.78 1553,-178.78 1553,-210.78"/>
<text xml:space="preserve" text-anchor="start" x="1427.25" y="-197.28" font-family="Helvetica,sans-Serif" font-size="10.00">MainWindow::updatesAfter</text>
<text xml:space="preserve" text-anchor="middle" x="1486.12" y="-185.28" font-family="Helvetica,sans-Serif" font-size="10.00">ChangingProperty</text>
</a>
</g>
</g>
<!-- Node4&#45;&gt;Node22 -->
<g id="edge37_Node000004_Node000022" class="edge">
<title>Node4&#45;&gt;Node22</title>
<g id="a_edge37_Node000004_Node000022"><a xlink:title=" ">
<path fill="none" stroke="#63b8ff" d="M1646.14,-295.24C1624.34,-281.23 1595.71,-262.89 1570.25,-246.78 1551.26,-234.76 1529.76,-221.31 1513.38,-211.1"/>
<polygon fill="#63b8ff" stroke="#63b8ff" points="1644.05,-298.06 1654.36,-300.52 1647.84,-292.17 1644.05,-298.06"/>
</a>
</g>
</g>
<!-- Node6 -->
<g id="Node000006" class="node">
<title>Node6</title>
<g id="a_Node000006"><a xlink:href="class_main_window.html#a6fd05e9f951dd6e7c2cd6ca815ef9d71" target="_top" xlink:title=" ">
<polygon fill="white" stroke="#666666" points="943.62,-418.78 809.88,-418.78 809.88,-386.78 943.62,-386.78 943.62,-418.78"/>
<text xml:space="preserve" text-anchor="start" x="817.88" y="-405.28" font-family="Helvetica,sans-Serif" font-size="10.00">MainWindow::createButton</text>
<text xml:space="preserve" text-anchor="middle" x="876.75" y="-393.28" font-family="Helvetica,sans-Serif" font-size="10.00">PropertyItem</text>
</a>
</g>
</g>
<!-- Node5&#45;&gt;Node6 -->
<g id="edge5_Node000005_Node000006" class="edge">
<title>Node5&#45;&gt;Node6</title>
<g id="a_edge5_Node000005_Node000006"><a xlink:title=" ">
<path fill="none" stroke="#63b8ff" d="M1402.93,-427.78C1304.77,-424.08 1135.61,-417.36 990.5,-409.78 975.42,-408.99 959.21,-408.04 943.92,-407.1"/>
<polygon fill="#63b8ff" stroke="#63b8ff" points="1402.62,-431.27 1412.74,-428.15 1402.88,-424.27 1402.62,-431.27"/>
</a>
</g>
</g>
<!-- Node7 -->
<g id="Node000007" class="node">
<title>Node7</title>
<g id="a_Node000007"><a xlink:href="class_main_window.html#a697154cf7839e00c607134c2a4e018cf" target="_top" xlink:title=" ">
<polygon fill="white" stroke="#666666" points="567.75,-337.78 400.25,-337.78 400.25,-317.78 567.75,-317.78 567.75,-337.78"/>
<text xml:space="preserve" text-anchor="middle" x="484" y="-324.28" font-family="Helvetica,sans-Serif" font-size="10.00">MainWindow::populateAttributeList</text>
</a>
</g>
</g>
<!-- Node6&#45;&gt;Node7 -->
<g id="edge6_Node000006_Node000007" class="edge">
<title>Node6&#45;&gt;Node7</title>
<g id="a_edge6_Node000006_Node000007"><a xlink:title=" ">
<path fill="none" stroke="#63b8ff" d="M798.16,-395.34C743.42,-389.27 668.58,-379.3 603.75,-364.78 572.56,-357.79 537.75,-346.51 513.92,-338.24"/>
<polygon fill="#63b8ff" stroke="#63b8ff" points="797.71,-398.81 808.03,-396.42 798.46,-391.86 797.71,-398.81"/>
</a>
</g>
</g>
<!-- Node8 -->
<g id="Node000008" class="node">
<title>Node8</title>
<g id="a_Node000008"><a xlink:href="class_main_window.html#a3aa4112f20ad25eb3ad78fd354ba7de2" target="_top" xlink:title=" ">
<polygon fill="white" stroke="#666666" points="759.25,-305.78 607.5,-305.78 607.5,-273.78 759.25,-273.78 759.25,-305.78"/>
<text xml:space="preserve" text-anchor="start" x="615.5" y="-292.28" font-family="Helvetica,sans-Serif" font-size="10.00">MainWindow::populateAttribute</text>
<text xml:space="preserve" text-anchor="middle" x="683.38" y="-280.28" font-family="Helvetica,sans-Serif" font-size="10.00">Properties</text>
</a>
</g>
</g>
<!-- Node6&#45;&gt;Node8 -->
<g id="edge15_Node000006_Node000008" class="edge">
<title>Node6&#45;&gt;Node8</title>
<g id="a_edge15_Node000006_Node000008"><a xlink:title=" ">
<path fill="none" stroke="#63b8ff" d="M850.46,-378.71C828.73,-359.16 795.82,-332.08 763,-314.78 756.92,-311.57 750.35,-308.68 743.7,-306.12"/>
<polygon fill="#63b8ff" stroke="#63b8ff" points="847.91,-381.13 857.65,-385.3 852.64,-375.97 847.91,-381.13"/>
</a>
</g>
</g>
<!-- Node10 -->
<g id="Node000010" class="node">
<title>Node10</title>
<g id="a_Node000010"><a xlink:href="class_main_window.html#a40023e3590f2593fd133a6b111f63ed9" target="_top" xlink:title=" ">
<polygon fill="white" stroke="#666666" points="350,-349.78 209.5,-349.78 209.5,-317.78 350,-317.78 350,-349.78"/>
<text xml:space="preserve" text-anchor="start" x="217.5" y="-336.28" font-family="Helvetica,sans-Serif" font-size="10.00">MainWindow::populateEntity</text>
<text xml:space="preserve" text-anchor="middle" x="279.75" y="-324.28" font-family="Helvetica,sans-Serif" font-size="10.00">Properties</text>
</a>
</g>
</g>
<!-- Node6&#45;&gt;Node10 -->
<g id="edge16_Node000006_Node000010" class="edge">
<title>Node6&#45;&gt;Node10</title>
<g id="a_edge16_Node000006_Node000010"><a xlink:title=" ">
<path fill="none" stroke="#63b8ff" d="M815.46,-422.37C722.95,-449.08 541.82,-487.98 400.25,-435.78 353.67,-418.6 312.92,-374.29 293.26,-350.11"/>
<polygon fill="#63b8ff" stroke="#63b8ff" points="816.24,-425.79 824.84,-419.6 814.26,-419.07 816.24,-425.79"/>
</a>
</g>
</g>
<!-- Node11 -->
<g id="Node000011" class="node">
<title>Node11</title>
<g id="a_Node000011"><a xlink:href="class_main_window.html#a1049a5796ac248f40a3b4110ed5faf77" target="_top" xlink:title=" ">
<polygon fill="white" stroke="#666666" points="364.25,-261.78 195.25,-261.78 195.25,-229.78 364.25,-229.78 364.25,-261.78"/>
<text xml:space="preserve" text-anchor="start" x="203.25" y="-248.28" font-family="Helvetica,sans-Serif" font-size="10.00">MainWindow::populateRelationship</text>
<text xml:space="preserve" text-anchor="middle" x="279.75" y="-236.28" font-family="Helvetica,sans-Serif" font-size="10.00">Properties</text>
</a>
</g>
</g>
<!-- Node6&#45;&gt;Node11 -->
<g id="edge17_Node000006_Node000011" class="edge">
<title>Node6&#45;&gt;Node11</title>
<g id="a_edge17_Node000006_Node000011"><a xlink:title=" ">
<path fill="none" stroke="#63b8ff" d="M798.34,-411.22C699.32,-418.28 525.68,-417.76 400.25,-346.78 380,-335.32 381.6,-324.28 364.25,-308.78 345.16,-291.71 321.77,-274.33 304.6,-262.16"/>
<polygon fill="#63b8ff" stroke="#63b8ff" points="798.53,-414.72 808.23,-410.47 797.99,-407.74 798.53,-414.72"/>
</a>
</g>
</g>
<!-- Node7&#45;&gt;Node8 -->
<g id="edge7_Node000007_Node000008" class="edge">
<title>Node7&#45;&gt;Node8</title>
<g id="a_edge7_Node000007_Node000008"><a xlink:title=" ">
<path fill="none" stroke="#63b8ff" d="M579.21,-316.38C596.11,-313.17 613.18,-309.67 628.44,-306.25"/>
<polygon fill="#63b8ff" stroke="#63b8ff" points="578.83,-312.89 569.64,-318.16 580.11,-319.77 578.83,-312.89"/>
</a>
</g>
</g>
<!-- Node7&#45;&gt;Node10 -->
<g id="edge11_Node000007_Node000010" class="edge">
<title>Node7&#45;&gt;Node10</title>
<g id="a_edge11_Node000007_Node000010"><a xlink:title=" ">
<path fill="none" stroke="#63b8ff" d="M388.6,-330.58C375.72,-330.96 362.69,-331.34 350.36,-331.71"/>
<polygon fill="#63b8ff" stroke="#63b8ff" points="388.46,-334.08 398.35,-330.29 388.25,-327.08 388.46,-334.08"/>
</a>
</g>
</g>
<!-- Node7&#45;&gt;Node11 -->
<g id="edge13_Node000007_Node000011" class="edge">
<title>Node7&#45;&gt;Node11</title>
<g id="a_edge13_Node000007_Node000011"><a xlink:title=" ">
<path fill="none" stroke="#63b8ff" d="M447.06,-313.2C411.74,-298.88 357.93,-277.07 321.15,-262.16"/>
<polygon fill="#63b8ff" stroke="#63b8ff" points="445.4,-316.31 455.98,-316.82 448.03,-309.82 445.4,-316.31"/>
</a>
</g>
</g>
<!-- Node8&#45;&gt;Node7 -->
<g id="edge8_Node000008_Node000007" class="edge">
<title>Node8&#45;&gt;Node7</title>
<g id="a_edge8_Node000008_Node000007"><a xlink:title=" ">
<path fill="none" stroke="#63b8ff" d="M595.97,-299.71C566.43,-305.17 535.4,-311.73 513.69,-317.32"/>
<polygon fill="#63b8ff" stroke="#63b8ff" points="596.49,-303.17 605.7,-297.94 595.24,-296.28 596.49,-303.17"/>
</a>
</g>
</g>
<!-- Node9 -->
<g id="Node000009" class="node">
<title>Node9</title>
<g id="a_Node000009"><a xlink:href="class_main_window.html#add7e6ae12287854ff779bd4b5649dd98" target="_top" xlink:title=" ">
<polygon fill="white" stroke="#666666" points="159.25,-327.78 0,-327.78 0,-295.78 159.25,-295.78 159.25,-327.78"/>
<text xml:space="preserve" text-anchor="start" x="8" y="-314.28" font-family="Helvetica,sans-Serif" font-size="10.00">MainWindow::populateProperties</text>
<text xml:space="preserve" text-anchor="middle" x="79.62" y="-302.28" font-family="Helvetica,sans-Serif" font-size="10.00">ForElement</text>
</a>
</g>
</g>
<!-- Node8&#45;&gt;Node9 -->
<g id="edge9_Node000008_Node000009" class="edge">
<title>Node8&#45;&gt;Node9</title>
<g id="a_edge9_Node000008_Node000009"><a xlink:title=" ">
<path fill="none" stroke="#63b8ff" d="M595.7,-292.94C478.73,-297.22 272.07,-304.78 159.35,-308.9"/>
<polygon fill="#63b8ff" stroke="#63b8ff" points="595.7,-296.45 605.56,-292.58 595.44,-289.45 595.7,-296.45"/>
</a>
</g>
</g>
<!-- Node9&#45;&gt;Node4 -->
<g id="edge10_Node000009_Node000004" class="edge">
<title>Node9&#45;&gt;Node4</title>
<g id="a_edge10_Node000009_Node000004"><a xlink:title=" ">
<path fill="none" stroke="#63b8ff" d="M106.53,-335.54C167.33,-388.73 325.96,-512.78 483,-512.78 1285.5,-512.78 1285.5,-512.78 1285.5,-512.78 1412.34,-512.78 1461.31,-558.73 1570.25,-493.78 1632.29,-456.79 1665.06,-370.17 1676.44,-334.05"/>
<polygon fill="#63b8ff" stroke="#63b8ff" points="109.22,-333.24 99.41,-329.23 104.57,-338.48 109.22,-333.24"/>
</a>
</g>
</g>
<!-- Node10&#45;&gt;Node9 -->
<g id="edge12_Node000010_Node000009" class="edge">
<title>Node10&#45;&gt;Node9</title>
<g id="a_edge12_Node000010_Node000009"><a xlink:title=" ">
<path fill="none" stroke="#63b8ff" d="M198.11,-324.82C185.37,-323.41 172.21,-321.94 159.51,-320.53"/>
<polygon fill="#63b8ff" stroke="#63b8ff" points="197.35,-328.26 207.67,-325.88 198.12,-321.3 197.35,-328.26"/>
</a>
</g>
</g>
<!-- Node11&#45;&gt;Node9 -->
<g id="edge14_Node000011_Node000009" class="edge">
<title>Node11&#45;&gt;Node9</title>
<g id="a_edge14_Node000011_Node000009"><a xlink:title=" ">
<path fill="none" stroke="#63b8ff" d="M218.65,-265.8C190.22,-275.27 156.71,-286.43 129.82,-295.39"/>
<polygon fill="#63b8ff" stroke="#63b8ff" points="219.45,-269.22 227.83,-262.74 217.24,-262.58 219.45,-269.22"/>
</a>
</g>
</g>
<!-- Node13 -->
<g id="Node000013" class="node">
<title>Node13</title>
<g id="a_Node000013"><a xlink:href="class_main_window.html#a44aaf7bb6d9a56f53b8a7a9e4fc29f8c" target="_top" xlink:title=" ">
<polygon fill="white" stroke="#666666" points="952.25,-167.78 801.25,-167.78 801.25,-135.78 952.25,-135.78 952.25,-167.78"/>
<text xml:space="preserve" text-anchor="start" x="809.25" y="-154.28" font-family="Helvetica,sans-Serif" font-size="10.00">MainWindow::createCheckBox</text>
<text xml:space="preserve" text-anchor="middle" x="876.75" y="-142.28" font-family="Helvetica,sans-Serif" font-size="10.00">PropertyItem</text>
</a>
</g>
</g>
<!-- Node12&#45;&gt;Node13 -->
<g id="edge19_Node000012_Node000013" class="edge">
<title>Node12&#45;&gt;Node13</title>
<g id="a_edge19_Node000012_Node000013"><a xlink:title=" ">
<path fill="none" stroke="#63b8ff" d="M1035.78,-98.84C1003.94,-109.5 960.1,-124.19 926.68,-135.39"/>
<polygon fill="#63b8ff" stroke="#63b8ff" points="1036.69,-102.22 1045.06,-95.72 1034.47,-95.58 1036.69,-102.22"/>
</a>
</g>
</g>
<!-- Node13&#45;&gt;Node8 -->
<g id="edge20_Node000013_Node000008" class="edge">
<title>Node13&#45;&gt;Node8</title>
<g id="a_edge20_Node000013_Node000008"><a xlink:title=" ">
<path fill="none" stroke="#63b8ff" d="M805.63,-173.05C803.36,-174.23 801.14,-175.47 799,-176.78 755.55,-203.21 715.95,-249.17 696.68,-273.53"/>
<polygon fill="#63b8ff" stroke="#63b8ff" points="806.94,-176.3 814.49,-168.87 803.95,-169.97 806.94,-176.3"/>
</a>
</g>
</g>
<!-- Node13&#45;&gt;Node11 -->
<g id="edge21_Node000013_Node000011" class="edge">
<title>Node13&#45;&gt;Node11</title>
<g id="a_edge21_Node000013_Node000011"><a xlink:title=" ">
<path fill="none" stroke="#63b8ff" d="M789.73,-154.84C693.7,-159.68 534.18,-171.96 400.25,-202.78 372.42,-209.18 342.17,-220.11 319.07,-229.34"/>
<polygon fill="#63b8ff" stroke="#63b8ff" points="789.79,-158.34 799.61,-154.36 789.45,-151.35 789.79,-158.34"/>
</a>
</g>
</g>
<!-- Node15 -->
<g id="Node000015" class="node">
<title>Node15</title>
<g id="a_Node000015"><a xlink:href="class_main_window.html#a872e6a76dcbf858ae9d483eceddf90e1" target="_top" xlink:title=" ">
<polygon fill="white" stroke="#666666" points="953.75,-217.78 799.75,-217.78 799.75,-185.78 953.75,-185.78 953.75,-217.78"/>
<text xml:space="preserve" text-anchor="start" x="807.75" y="-204.28" font-family="Helvetica,sans-Serif" font-size="10.00">MainWindow::createComboBox</text>
<text xml:space="preserve" text-anchor="middle" x="876.75" y="-192.28" font-family="Helvetica,sans-Serif" font-size="10.00">PropertyItem</text>
</a>
</g>
</g>
<!-- Node14&#45;&gt;Node15 -->
<g id="edge23_Node000014_Node000015" class="edge">
<title>Node14&#45;&gt;Node15</title>
<g id="a_edge23_Node000014_Node000015"><a xlink:title=" ">
<path fill="none" stroke="#63b8ff" d="M978.76,-206.32C970.48,-205.95 962.19,-205.58 954.12,-205.21"/>
<polygon fill="#63b8ff" stroke="#63b8ff" points="978.37,-209.81 988.52,-206.76 978.68,-202.81 978.37,-209.81"/>
</a>
</g>
</g>
<!-- Node16 -->
<g id="Node000016" class="node">
<title>Node16</title>
<g id="a_Node000016"><a xlink:href="class_main_window.html#abae03a6494d13d74ed1b2e31ec1f2fc7" target="_top" xlink:title=" ">
<polygon fill="white" stroke="#666666" points="954.5,-267.78 799,-267.78 799,-235.78 954.5,-235.78 954.5,-267.78"/>
<text xml:space="preserve" text-anchor="start" x="807" y="-254.28" font-family="Helvetica,sans-Serif" font-size="10.00">MainWindow::createIconCombo</text>
<text xml:space="preserve" text-anchor="middle" x="876.75" y="-242.28" font-family="Helvetica,sans-Serif" font-size="10.00">BoxPropertyItem</text>
</a>
</g>
</g>
<!-- Node14&#45;&gt;Node16 -->
<g id="edge26_Node000014_Node000016" class="edge">
<title>Node14&#45;&gt;Node16</title>
<g id="a_edge26_Node000014_Node000016"><a xlink:title=" ">
<path fill="none" stroke="#63b8ff" d="M1015.69,-223.5C996.4,-227.45 974.9,-231.86 954.72,-236"/>
<polygon fill="#63b8ff" stroke="#63b8ff" points="1016.19,-226.97 1025.28,-221.53 1014.78,-220.11 1016.19,-226.97"/>
</a>
</g>
</g>
<!-- Node15&#45;&gt;Node8 -->
<g id="edge24_Node000015_Node000008" class="edge">
<title>Node15&#45;&gt;Node8</title>
<g id="a_edge24_Node000015_Node000008"><a xlink:title=" ">
<path fill="none" stroke="#63b8ff" d="M810.62,-222.04C806.66,-223.57 802.76,-225.15 799,-226.78 767.74,-240.31 733.76,-259.62 710.98,-273.28"/>
<polygon fill="#63b8ff" stroke="#63b8ff" points="811.59,-225.41 819.77,-218.67 809.17,-218.84 811.59,-225.41"/>
</a>
</g>
</g>
<!-- Node15&#45;&gt;Node11 -->
<g id="edge25_Node000015_Node000011" class="edge">
<title>Node15&#45;&gt;Node11</title>
<g id="a_edge25_Node000015_Node000011"><a xlink:title=" ">
<path fill="none" stroke="#63b8ff" d="M787.9,-200.93C692.2,-201.02 534.78,-204.13 400.25,-220.78 383.74,-222.82 366.12,-225.96 349.62,-229.33"/>
<polygon fill="#63b8ff" stroke="#63b8ff" points="787.74,-204.43 797.74,-200.93 787.74,-197.43 787.74,-204.43"/>
</a>
</g>
</g>
<!-- Node17 -->
<g id="Node000017" class="node">
<title>Node17</title>
<g id="a_Node000017"><a xlink:href="class_main_window.html#af02df1238ccf49caa1c4099c88dfe465" target="_top" xlink:title=" ">
<polygon fill="white" stroke="#666666" points="763,-355.78 603.75,-355.78 603.75,-323.78 763,-323.78 763,-355.78"/>
<text xml:space="preserve" text-anchor="start" x="611.75" y="-342.28" font-family="Helvetica,sans-Serif" font-size="10.00">MainWindow::populateProperties</text>
<text xml:space="preserve" text-anchor="middle" x="683.38" y="-330.28" font-family="Helvetica,sans-Serif" font-size="10.00">ForConnection</text>
</a>
</g>
</g>
<!-- Node16&#45;&gt;Node17 -->
<g id="edge27_Node000016_Node000017" class="edge">
<title>Node16&#45;&gt;Node17</title>
<g id="a_edge27_Node000016_Node000017"><a xlink:title=" ">
<path fill="none" stroke="#63b8ff" d="M840.31,-274.01C818.56,-287.04 789.82,-303.16 763,-314.78 755.9,-317.85 748.3,-320.74 740.72,-323.38"/>
<polygon fill="#63b8ff" stroke="#63b8ff" points="842.06,-277.05 848.79,-268.87 838.43,-271.06 842.06,-277.05"/>
</a>
</g>
</g>
<!-- Node17&#45;&gt;Node4 -->
<g id="edge28_Node000017_Node000004" class="edge">
<title>Node17&#45;&gt;Node4</title>
<g id="a_edge28_Node000017_Node000004"><a xlink:title=" ">
<path fill="none" stroke="#63b8ff" d="M774.96,-338.69C854.69,-337.83 973.92,-336.78 1077.75,-336.78 1285.5,-336.78 1285.5,-336.78 1285.5,-336.78 1397.24,-336.78 1526.53,-329.12 1606.07,-323.53"/>
<polygon fill="#63b8ff" stroke="#63b8ff" points="774.96,-335.19 765,-338.8 775.04,-342.19 774.96,-335.19"/>
</a>
</g>
</g>
<!-- Node19 -->
<g id="Node000019" class="node">
<title>Node19</title>
<g id="a_Node000019"><a xlink:href="class_main_window.html#ae3b6600dd59da1822ef94bbd5f37f0cc" target="_top" xlink:title=" ">
<polygon fill="white" stroke="#666666" points="554.25,-261.78 413.75,-261.78 413.75,-229.78 554.25,-229.78 554.25,-261.78"/>
<text xml:space="preserve" text-anchor="start" x="421.75" y="-248.28" font-family="Helvetica,sans-Serif" font-size="10.00">MainWindow::createLineEdit</text>
<text xml:space="preserve" text-anchor="middle" x="484" y="-236.28" font-family="Helvetica,sans-Serif" font-size="10.00">PropertyItem</text>
</a>
</g>
</g>
<!-- Node18&#45;&gt;Node19 -->
<g id="edge30_Node000018_Node000019" class="edge">
<title>Node18&#45;&gt;Node19</title>
<g id="a_edge30_Node000018_Node000019"><a xlink:title=" ">
<path fill="none" stroke="#63b8ff" d="M1191.21,-302.1C1093.08,-303.89 933.78,-301.8 799,-276.78 782.42,-273.7 779.55,-268.04 763,-264.78 692.88,-250.93 611.1,-246.73 554.47,-245.67"/>
<polygon fill="#63b8ff" stroke="#63b8ff" points="1191.13,-305.6 1201.06,-301.9 1190.99,-298.6 1191.13,-305.6"/>
</a>
</g>
</g>
<!-- Node19&#45;&gt;Node11 -->
<g id="edge31_Node000019_Node000011" class="edge">
<title>Node19&#45;&gt;Node11</title>
<g id="a_edge31_Node000019_Node000011"><a xlink:title=" ">
<path fill="none" stroke="#63b8ff" d="M402.15,-245.78C389.74,-245.78 376.91,-245.78 364.44,-245.78"/>
<polygon fill="#63b8ff" stroke="#63b8ff" points="401.88,-249.28 411.88,-245.78 401.88,-242.28 401.88,-249.28"/>
</a>
</g>
</g>
<!-- Node20&#45;&gt;Node6 -->
<g id="edge34_Node000020_Node000006" class="edge">
<title>Node20&#45;&gt;Node6</title>
<g id="a_edge34_Node000020_Node000006"><a xlink:title=" ">
<path fill="none" stroke="#63b8ff" d="M1393.49,-384.09C1269.89,-388.57 1052.75,-396.44 943.89,-400.38"/>
<polygon fill="#63b8ff" stroke="#63b8ff" points="1393.4,-387.6 1403.27,-383.74 1393.15,-380.6 1393.4,-387.6"/>
</a>
</g>
</g>
<!-- Node21&#45;&gt;Node2 -->
<g id="edge36_Node000021_Node000002" class="edge">
<title>Node21&#45;&gt;Node2</title>
<g id="a_edge36_Node000021_Node000002"><a xlink:title=" ">
<path fill="none" stroke="#63b8ff" d="M1390.14,-474.78C1379.08,-474.78 1367.94,-474.78 1357.26,-474.78"/>
<polygon fill="#63b8ff" stroke="#63b8ff" points="1390.11,-478.28 1400.11,-474.78 1390.11,-471.28 1390.11,-478.28"/>
</a>
</g>
</g>
<!-- Node22&#45;&gt;Node1 -->
<g id="edge49_Node000022_Node000001" class="edge">
<title>Node22&#45;&gt;Node1</title>
<g id="a_edge49_Node000022_Node000001"><a xlink:title=" ">
<path fill="none" stroke="#63b8ff" d="M1548.69,-214.67C1623.24,-238.76 1747.4,-278.88 1816.81,-301.31"/>
<polygon fill="#63b8ff" stroke="#63b8ff" points="1550.1,-211.45 1539.5,-211.7 1547.94,-218.11 1550.1,-211.45"/>
</a>
</g>
</g>
<!-- Node22&#45;&gt;Node12 -->
<g id="edge46_Node000022_Node000012" class="edge">
<title>Node22&#45;&gt;Node12</title>
<g id="a_edge46_Node000022_Node000012"><a xlink:title=" ">
<path fill="none" stroke="#63b8ff" d="M1461.92,-170.24C1439.64,-148.47 1403.85,-117.99 1366,-103.78 1301.89,-79.7 1224.07,-76 1165.76,-77.74"/>
<polygon fill="#63b8ff" stroke="#63b8ff" points="1459.45,-172.71 1468.99,-177.32 1464.4,-167.77 1459.45,-172.71"/>
</a>
</g>
</g>
<!-- Node22&#45;&gt;Node14 -->
<g id="edge47_Node000022_Node000014" class="edge">
<title>Node22&#45;&gt;Node14</title>
<g id="a_edge47_Node000022_Node000014"><a xlink:title=" ">
<path fill="none" stroke="#63b8ff" d="M1407.49,-190.32C1350.75,-187.95 1271.99,-186.49 1203,-191.78 1180.87,-193.47 1156.71,-196.85 1135.68,-200.3"/>
<polygon fill="#63b8ff" stroke="#63b8ff" points="1407.24,-193.81 1417.38,-190.76 1407.54,-186.82 1407.24,-193.81"/>
</a>
</g>
</g>
<!-- Node22&#45;&gt;Node18 -->
<g id="edge48_Node000022_Node000018" class="edge">
<title>Node22&#45;&gt;Node18</title>
<g id="a_edge48_Node000022_Node000018"><a xlink:title=" ">
<path fill="none" stroke="#63b8ff" d="M1443.5,-216.46C1401.22,-238.49 1337.53,-271.67 1305.46,-288.38"/>
<polygon fill="#63b8ff" stroke="#63b8ff" points="1444.9,-219.68 1452.15,-211.95 1441.67,-213.47 1444.9,-219.68"/>
</a>
</g>
</g>
<!-- Node23 -->
<g id="Node000023" class="node">
<title>Node23</title>
<g id="a_Node000023"><a xlink:href="class_main_window.html#a9ed390421f6755b891cfc651d173db7b" target="_top" xlink:title=" ">
<polygon fill="white" stroke="#666666" points="1356.25,-144.78 1212.75,-144.78 1212.75,-112.78 1356.25,-112.78 1356.25,-144.78"/>
<text xml:space="preserve" text-anchor="start" x="1220.75" y="-131.28" font-family="Helvetica,sans-Serif" font-size="10.00">MainWindow::handleAttribute</text>
<text xml:space="preserve" text-anchor="middle" x="1284.5" y="-119.28" font-family="Helvetica,sans-Serif" font-size="10.00">PropertyChange</text>
</a>
</g>
</g>
<!-- Node22&#45;&gt;Node23 -->
<g id="edge38_Node000022_Node000023" class="edge">
<title>Node22&#45;&gt;Node23</title>
<g id="a_edge38_Node000022_Node000023"><a xlink:title=" ">
<path fill="none" stroke="#63b8ff" d="M1424.57,-174.75C1395.93,-165.28 1362.16,-154.12 1335.07,-145.16"/>
<polygon fill="#63b8ff" stroke="#63b8ff" points="1423.24,-178 1433.83,-177.82 1425.43,-171.35 1423.24,-178"/>
</a>
</g>
</g>
<!-- Node24 -->
<g id="Node000024" class="node">
<title>Node24</title>
<g id="a_Node000024"><a xlink:href="class_main_window.html#aa69c4b7c558b2fb3922adf75af48330a" target="_top" xlink:title=" ">
<polygon fill="white" stroke="#666666" points="1364.88,-232.78 1204.12,-232.78 1204.12,-200.78 1364.88,-200.78 1364.88,-232.78"/>
<text xml:space="preserve" text-anchor="start" x="1212.12" y="-219.28" font-family="Helvetica,sans-Serif" font-size="10.00">MainWindow::handleRelationship</text>
<text xml:space="preserve" text-anchor="middle" x="1284.5" y="-207.28" font-family="Helvetica,sans-Serif" font-size="10.00">EndCardinalityChange</text>
</a>
</g>
</g>
<!-- Node22&#45;&gt;Node24 -->
<g id="edge42_Node000022_Node000024" class="edge">
<title>Node22&#45;&gt;Node24</title>
<g id="a_edge42_Node000022_Node000024"><a xlink:title=" ">
<path fill="none" stroke="#63b8ff" d="M1407.83,-203.29C1393.8,-204.84 1379.14,-206.46 1365.05,-208.01"/>
<polygon fill="#63b8ff" stroke="#63b8ff" points="1407.87,-206.81 1417.43,-202.24 1407.1,-199.85 1407.87,-206.81"/>
</a>
</g>
</g>
<!-- Node25 -->
<g id="Node000025" class="node">
<title>Node25</title>
<g id="a_Node000025"><a xlink:href="class_main_window.html#a96d575a529f7c24b1b5094b4b1e42742" target="_top" xlink:title=" ">
<polygon fill="white" stroke="#666666" points="1364.88,-56.78 1204.12,-56.78 1204.12,-24.78 1364.88,-24.78 1364.88,-56.78"/>
<text xml:space="preserve" text-anchor="start" x="1212.12" y="-43.28" font-family="Helvetica,sans-Serif" font-size="10.00">MainWindow::handleRelationship</text>
<text xml:space="preserve" text-anchor="middle" x="1284.5" y="-31.28" font-family="Helvetica,sans-Serif" font-size="10.00">EndParticipationChange</text>
</a>
</g>
</g>
<!-- Node22&#45;&gt;Node25 -->
<g id="edge44_Node000022_Node000025" class="edge">
<title>Node22&#45;&gt;Node25</title>
<g id="a_edge44_Node000022_Node000025"><a xlink:title=" ">
<path fill="none" stroke="#63b8ff" d="M1466.47,-169.4C1444.98,-141.77 1407.29,-97.89 1366,-70.78 1358.02,-65.54 1349,-61.04 1339.96,-57.25"/>
<polygon fill="#63b8ff" stroke="#63b8ff" points="1463.6,-171.42 1472.45,-177.24 1469.17,-167.17 1463.6,-171.42"/>
</a>
</g>
</g>
<!-- Node23&#45;&gt;Node1 -->
<g id="edge41_Node000023_Node000001" class="edge">
<title>Node23&#45;&gt;Node1</title>
<g id="a_edge41_Node000023_Node000001"><a xlink:title=" ">
<path fill="none" stroke="#63b8ff" d="M1367.88,-132.81C1466.07,-140.62 1632.61,-163.54 1758,-230.78 1794.43,-250.31 1830.87,-282.26 1851.25,-301.53"/>
<polygon fill="#63b8ff" stroke="#63b8ff" points="1368.29,-129.33 1358.05,-132.07 1367.76,-136.31 1368.29,-129.33"/>
</a>
</g>
</g>
<!-- Node23&#45;&gt;Node12 -->
<g id="edge39_Node000023_Node000012" class="edge">
<title>Node23&#45;&gt;Node12</title>
<g id="a_edge39_Node000023_Node000012"><a xlink:title=" ">
<path fill="none" stroke="#63b8ff" d="M1201.58,-111.09C1176.64,-105.7 1150.04,-99.95 1128.08,-95.21"/>
<polygon fill="#63b8ff" stroke="#63b8ff" points="1200.53,-114.44 1211.04,-113.13 1202.01,-107.6 1200.53,-114.44"/>
</a>
</g>
</g>
<!-- Node23&#45;&gt;Node14 -->
<g id="edge40_Node000023_Node000014" class="edge">
<title>Node23&#45;&gt;Node14</title>
<g id="a_edge40_Node000023_Node000014"><a xlink:title=" ">
<path fill="none" stroke="#63b8ff" d="M1227.53,-149.29C1219.28,-152.41 1210.9,-155.64 1203,-158.78 1168.25,-172.57 1128.46,-189.58 1103.71,-200.31"/>
<polygon fill="#63b8ff" stroke="#63b8ff" points="1228.69,-152.59 1236.82,-145.79 1226.23,-146.03 1228.69,-152.59"/>
</a>
</g>
</g>
<!-- Node24&#45;&gt;Node14 -->
<g id="edge43_Node000024_Node000014" class="edge">
<title>Node24&#45;&gt;Node14</title>
<g id="a_edge43_Node000024_Node000014"><a xlink:title=" ">
<path fill="none" stroke="#63b8ff" d="M1192.55,-214.1C1184.2,-213.85 1175.76,-213.6 1167.44,-213.36"/>
<polygon fill="#63b8ff" stroke="#63b8ff" points="1192.24,-217.59 1202.34,-214.39 1192.44,-210.59 1192.24,-217.59"/>
</a>
</g>
</g>
<!-- Node25&#45;&gt;Node12 -->
<g id="edge45_Node000025_Node000012" class="edge">
<title>Node25&#45;&gt;Node12</title>
<g id="a_edge45_Node000025_Node000012"><a xlink:title=" ">
<path fill="none" stroke="#63b8ff" d="M1196.37,-59.59C1173.08,-64.62 1148.74,-69.88 1128.36,-74.28"/>
<polygon fill="#63b8ff" stroke="#63b8ff" points="1196.83,-63.07 1205.86,-57.54 1195.35,-56.23 1196.83,-63.07"/>
</a>
</g>
</g>
</g>
</svg>
