<?xml version="1.0" encoding="UTF-8" standalone="no"?>
<!DOCTYPE svg PUBLIC "-//W3C//DTD SVG 1.1//EN"
 "http://www.w3.org/Graphics/SVG/1.1/DTD/svg11.dtd">
<!-- Generated by graphviz version 14.1.1 (20251213.1925)
 -->
<!-- Title: RelationshipConnectionLineGraphicsItem::getCardinalityBoundingRect Pages: 1 -->
<svg width="621pt" height="140pt"
 viewBox="0.00 0.00 621.00 140.00" xmlns="http://www.w3.org/2000/svg" xmlns:xlink="http://www.w3.org/1999/xlink">
<g id="graph0" class="graph" transform="scale(1 1) rotate(0) translate(4 136)">
<title>RelationshipConnectionLineGraphicsItem::getCardinalityBoundingRect</title>
<!-- Node1 -->
<g id="Node000001" class="node">
<title>Node1</title>
<g id="a_Node000001"><a xlink:title=" ">
<polygon fill="#999999" stroke="#666666" points="612.75,-82 410.75,-82 410.75,-50 612.75,-50 612.75,-82"/>
<text xml:space="preserve" text-anchor="start" x="418.75" y="-68.5" font-family="Helvetica,sans-Serif" font-size="10.00">RelationshipConnectionLine</text>
<text xml:space="preserve" text-anchor="middle" x="511.75" y="-56.5" font-family="Helvetica,sans-Serif" font-size="10.00">GraphicsItem::getCardinalityBoundingRect</text>
</a>
</g>
</g>
<!-- Node2 -->
<g id="Node000002" class="node">
<title>Node2</title>
<g id="a_Node000002"><a xlink:href="class_relationship_connection_line_graphics_item.html#adc343576fe3be22eab58974f20616a1c" target="_top" xlink:title=" ">
<polygon fill="white" stroke="#666666" points="356,-132 215.5,-132 215.5,-100 356,-100 356,-132"/>
<text xml:space="preserve" text-anchor="start" x="223.5" y="-118.5" font-family="Helvetica,sans-Serif" font-size="10.00">RelationshipConnectionLine</text>
<text xml:space="preserve" text-anchor="middle" x="285.75" y="-106.5" font-family="Helvetica,sans-Serif" font-size="10.00">GraphicsItem::boundingRect</text>
</a>
</g>
</g>
<!-- Node1&#45;&gt;Node2 -->
<g id="edge1_Node000001_Node000002" class="edge">
<title>Node1&#45;&gt;Node2</title>
<g id="a_edge1_Node000001_Node000002"><a xlink:title=" ">
<path fill="none" stroke="#63b8ff" d="M425.95,-84.93C402.95,-90.06 378.32,-95.56 356.27,-100.48"/>
<polygon fill="#63b8ff" stroke="#63b8ff" points="426.62,-88.37 435.62,-82.77 425.09,-81.53 426.62,-88.37"/>
</a>
</g>
</g>
<!-- Node3 -->
<g id="Node000003" class="node">
<title>Node3</title>
<g id="a_Node000003"><a xlink:href="class_relationship_connection_line_graphics_item.html#aa04530bd3108ddbc839528eca4f0696c" target="_top" xlink:title=" ">
<polygon fill="white" stroke="#666666" points="374.75,-82 196.75,-82 196.75,-50 374.75,-50 374.75,-82"/>
<text xml:space="preserve" text-anchor="start" x="204.75" y="-68.5" font-family="Helvetica,sans-Serif" font-size="10.00">RelationshipConnectionLine</text>
<text xml:space="preserve" text-anchor="middle" x="285.75" y="-56.5" font-family="Helvetica,sans-Serif" font-size="10.00">GraphicsItem::isPointNearCardinality</text>
</a>
</g>
</g>
<!-- Node1&#45;&gt;Node3 -->
<g id="edge2_Node000001_Node000003" class="edge">
<title>Node1&#45;&gt;Node3</title>
<g id="a_edge2_Node000001_Node000003"><a xlink:title=" ">
<path fill="none" stroke="#63b8ff" d="M399.2,-66C391.16,-66 383.13,-66 375.25,-66"/>
<polygon fill="#63b8ff" stroke="#63b8ff" points="399.03,-69.5 409.03,-66 399.03,-62.5 399.03,-69.5"/>
</a>
</g>
</g>
<!-- Node6 -->
<g id="Node000006" class="node">
<title>Node6</title>
<g id="a_Node000006"><a xlink:href="class_relationship_connection_line_graphics_item.html#afc1acb4a0cf1004d31bd2b89bc394d7d" target="_top" xlink:title=" ">
<polygon fill="white" stroke="#666666" points="354.5,-32 217,-32 217,0 354.5,0 354.5,-32"/>
<text xml:space="preserve" text-anchor="start" x="225" y="-18.5" font-family="Helvetica,sans-Serif" font-size="10.00">RelationshipConnectionLine</text>
<text xml:space="preserve" text-anchor="middle" x="285.75" y="-6.5" font-family="Helvetica,sans-Serif" font-size="10.00">GraphicsItem::shape</text>
</a>
</g>
</g>
<!-- Node1&#45;&gt;Node6 -->
<g id="edge5_Node000001_Node000006" class="edge">
<title>Node1&#45;&gt;Node6</title>
<g id="a_edge5_Node000001_Node000006"><a xlink:title=" ">
<path fill="none" stroke="#63b8ff" d="M426.05,-47.09C402.5,-41.84 377.23,-36.2 354.77,-31.18"/>
<polygon fill="#63b8ff" stroke="#63b8ff" points="425.09,-50.47 435.62,-49.23 426.62,-43.63 425.09,-50.47"/>
</a>
</g>
</g>
<!-- Node4 -->
<g id="Node000004" class="node">
<title>Node4</title>
<g id="a_Node000004"><a xlink:href="class_relationship_connection_line_graphics_item.html#aa089aa4bc0be538db8480577f3a6647c" target="_top" xlink:title=" ">
<polygon fill="white" stroke="#666666" points="157.38,-107 3.38,-107 3.38,-75 157.38,-75 157.38,-107"/>
<text xml:space="preserve" text-anchor="start" x="11.38" y="-93.5" font-family="Helvetica,sans-Serif" font-size="10.00">RelationshipConnectionLine</text>
<text xml:space="preserve" text-anchor="middle" x="80.38" y="-81.5" font-family="Helvetica,sans-Serif" font-size="10.00">GraphicsItem::hoverMoveEvent</text>
</a>
</g>
</g>
<!-- Node3&#45;&gt;Node4 -->
<g id="edge3_Node000003_Node000004" class="edge">
<title>Node3&#45;&gt;Node4</title>
<g id="a_edge3_Node000003_Node000004"><a xlink:title=" ">
<path fill="none" stroke="#63b8ff" d="M185.23,-78.23C176.01,-79.37 166.77,-80.5 157.81,-81.6"/>
<polygon fill="#63b8ff" stroke="#63b8ff" points="185.43,-81.73 194.93,-77.04 184.58,-74.79 185.43,-81.73"/>
</a>
</g>
</g>
<!-- Node5 -->
<g id="Node000005" class="node">
<title>Node5</title>
<g id="a_Node000005"><a xlink:href="class_relationship_connection_line_graphics_item.html#ab7d7310d11b41a9a2e032687312b56c8" target="_top" xlink:title=" ">
<polygon fill="white" stroke="#666666" points="160.75,-57 0,-57 0,-25 160.75,-25 160.75,-57"/>
<text xml:space="preserve" text-anchor="start" x="8" y="-43.5" font-family="Helvetica,sans-Serif" font-size="10.00">RelationshipConnectionLine</text>
<text xml:space="preserve" text-anchor="middle" x="80.38" y="-31.5" font-family="Helvetica,sans-Serif" font-size="10.00">GraphicsItem::mousePressEvent</text>
</a>
</g>
</g>
<!-- Node3&#45;&gt;Node5 -->
<g id="edge4_Node000003_Node000005" class="edge">
<title>Node3&#45;&gt;Node5</title>
<g id="a_edge4_Node000003_Node000005"><a xlink:title=" ">
<path fill="none" stroke="#63b8ff" d="M185.05,-53.74C176.97,-52.75 168.88,-51.76 160.98,-50.78"/>
<polygon fill="#63b8ff" stroke="#63b8ff" points="184.58,-57.21 194.93,-54.96 185.43,-50.27 184.58,-57.21"/>
</a>
</g>
</g>
</g>
</svg>
