<?xml version="1.0" encoding="UTF-8" standalone="no"?>
<!DOCTYPE svg PUBLIC "-//W3C//DTD SVG 1.1//EN"
 "http://www.w3.org/Graphics/SVG/1.1/DTD/svg11.dtd">
<!-- Generated by graphviz version 14.1.1 (20251213.1925)
 -->
<!-- Title: RelationshipConnectionLineGraphicsItem::RelationshipConnectionLineGraphicsItem Pages: 1 -->
<svg width="1256pt" height="409pt"
 viewBox="0.00 0.00 1256.00 409.00" xmlns="http://www.w3.org/2000/svg" xmlns:xlink="http://www.w3.org/1999/xlink">
<g id="graph0" class="graph" transform="scale(1 1) rotate(0) translate(4 405)">
<title>RelationshipConnectionLineGraphicsItem::RelationshipConnectionLineGraphicsItem</title>
<!-- Node1 -->
<g id="Node000001" class="node">
<title>Node1</title>
<g id="a_Node000001"><a xlink:title=" ">
<polygon fill="#999999" stroke="#666666" points="184,-82 0,-82 0,-38 184,-38 184,-82"/>
<text xml:space="preserve" text-anchor="start" x="8" y="-68.5" font-family="Helvetica,sans-Serif" font-size="10.00">RelationshipConnectionLine</text>
<text xml:space="preserve" text-anchor="start" x="8" y="-56.5" font-family="Helvetica,sans-Serif" font-size="10.00">GraphicsItem::RelationshipConnection</text>
<text xml:space="preserve" text-anchor="middle" x="92" y="-44.5" font-family="Helvetica,sans-Serif" font-size="10.00">LineGraphicsItem</text>
</a>
</g>
</g>
<!-- Node2 -->
<g id="Node000002" class="node">
<title>Node2</title>
<g id="a_Node000002"><a xlink:href="class_connection_graphics_item.html#ab32d398765f9a4cd314e866585ac273d" target="_top" xlink:title=" ">
<polygon fill="white" stroke="#666666" points="350,-76 220,-76 220,-44 350,-44 350,-76"/>
<text xml:space="preserve" text-anchor="start" x="228" y="-62.5" font-family="Helvetica,sans-Serif" font-size="10.00">ConnectionGraphicsItem</text>
<text xml:space="preserve" text-anchor="middle" x="285" y="-50.5" font-family="Helvetica,sans-Serif" font-size="10.00">::ConnectionGraphicsItem</text>
</a>
</g>
</g>
<!-- Node1&#45;&gt;Node2 -->
<g id="edge1_Node000001_Node000002" class="edge">
<title>Node1&#45;&gt;Node2</title>
<g id="a_edge1_Node000001_Node000002"><a xlink:title=" ">
<path fill="none" stroke="#63b8ff" d="M184.3,-60C192.3,-60 200.32,-60 208.17,-60"/>
<polygon fill="#63b8ff" stroke="#63b8ff" points="207.99,-63.5 217.99,-60 207.99,-56.5 207.99,-63.5"/>
</a>
</g>
</g>
<!-- Node3 -->
<g id="Node000003" class="node">
<title>Node3</title>
<g id="a_Node000003"><a xlink:href="class_connection_graphics_item.html#ae2812529f5397be162547beaef4b9c51" target="_top" xlink:title=" ">
<polygon fill="white" stroke="#666666" points="510,-160 386,-160 386,-128 510,-128 510,-160"/>
<text xml:space="preserve" text-anchor="start" x="394" y="-146.5" font-family="Helvetica,sans-Serif" font-size="10.00">ConnectionGraphicsItem</text>
<text xml:space="preserve" text-anchor="middle" x="448" y="-134.5" font-family="Helvetica,sans-Serif" font-size="10.00">::connectToConnection</text>
</a>
</g>
</g>
<!-- Node2&#45;&gt;Node3 -->
<g id="edge2_Node000002_Node000003" class="edge">
<title>Node2&#45;&gt;Node3</title>
<g id="a_edge2_Node000002_Node000003"><a xlink:title=" ">
<path fill="none" stroke="#63b8ff" d="M317.42,-76.4C342.5,-89.48 377.84,-107.92 405.29,-122.24"/>
<polygon fill="#63b8ff" stroke="#63b8ff" points="403.55,-125.28 414.04,-126.8 406.79,-119.07 403.55,-125.28"/>
</a>
</g>
</g>
<!-- Node16 -->
<g id="Node000016" class="node">
<title>Node16</title>
<g id="a_Node000016"><a xlink:href="class_connection_graphics_item.html#ae9e946d48f378aea3604fe67c95fe9a6" target="_top" xlink:title=" ">
<polygon fill="white" stroke="#666666" points="681.25,-35 557.25,-35 557.25,-3 681.25,-3 681.25,-35"/>
<text xml:space="preserve" text-anchor="start" x="565.25" y="-21.5" font-family="Helvetica,sans-Serif" font-size="10.00">ConnectionGraphicsItem</text>
<text xml:space="preserve" text-anchor="middle" x="619.25" y="-9.5" font-family="Helvetica,sans-Serif" font-size="10.00">::updateFromConnection</text>
</a>
</g>
</g>
<!-- Node2&#45;&gt;Node16 -->
<g id="edge20_Node000002_Node000016" class="edge">
<title>Node2&#45;&gt;Node16</title>
<g id="a_edge20_Node000002_Node000016"><a xlink:title=" ">
<path fill="none" stroke="#63b8ff" d="M350.43,-56.52C395.32,-53.61 456.49,-48.68 510,-41 521.58,-39.34 533.79,-37.22 545.67,-34.95"/>
<polygon fill="#63b8ff" stroke="#63b8ff" points="546.3,-38.4 555.44,-33.04 544.95,-31.53 546.3,-38.4"/>
</a>
</g>
</g>
<!-- Node18 -->
<g id="Node000018" class="node">
<title>Node18</title>
<g id="a_Node000018"><a xlink:href="class_connection_graphics_item.html#acd3aab83b4725e368ad626e9fd1b553d" target="_top" xlink:title=" ">
<polygon fill="white" stroke="#666666" points="510,-32 386,-32 386,0 510,0 510,-32"/>
<text xml:space="preserve" text-anchor="start" x="394" y="-18.5" font-family="Helvetica,sans-Serif" font-size="10.00">ConnectionGraphicsItem</text>
<text xml:space="preserve" text-anchor="middle" x="448" y="-6.5" font-family="Helvetica,sans-Serif" font-size="10.00">::createControlPoints</text>
</a>
</g>
</g>
<!-- Node2&#45;&gt;Node18 -->
<g id="edge19_Node000002_Node000018" class="edge">
<title>Node2&#45;&gt;Node18</title>
<g id="a_edge19_Node000002_Node000018"><a xlink:title=" ">
<path fill="none" stroke="#63b8ff" d="M345.95,-43.62C355.63,-40.97 365.73,-38.21 375.65,-35.5"/>
<polygon fill="#63b8ff" stroke="#63b8ff" points="376.55,-38.88 385.27,-32.87 374.7,-32.13 376.55,-38.88"/>
</a>
</g>
</g>
<!-- Node4 -->
<g id="Node000004" class="node">
<title>Node4</title>
<g id="a_Node000004"><a xlink:href="class_connection_line.html#a9de44ae385d7941f3aa79da06e97d510" target="_top" xlink:title=" ">
<polygon fill="white" stroke="#666666" points="687.62,-335 550.88,-335 550.88,-303 687.62,-303 687.62,-335"/>
<text xml:space="preserve" text-anchor="start" x="558.88" y="-321.5" font-family="Helvetica,sans-Serif" font-size="10.00">ConnectionLine::connection</text>
<text xml:space="preserve" text-anchor="middle" x="619.25" y="-309.5" font-family="Helvetica,sans-Serif" font-size="10.00">Changed</text>
</a>
</g>
</g>
<!-- Node3&#45;&gt;Node4 -->
<g id="edge3_Node000003_Node000004" class="edge">
<title>Node3&#45;&gt;Node4</title>
<g id="a_edge3_Node000003_Node000004"><a xlink:title=" ">
<path fill="none" stroke="#63b8ff" d="M455.17,-160.07C467.68,-190.57 498.9,-257.07 546,-294 547.31,-295.02 548.66,-296.01 550.04,-296.95"/>
<polygon fill="#63b8ff" stroke="#63b8ff" points="547.97,-299.79 558.36,-301.87 551.53,-293.77 547.97,-299.79"/>
</a>
</g>
</g>
<!-- Node11 -->
<g id="Node000011" class="node">
<title>Node11</title>
<g id="a_Node000011"><a xlink:href="class_connection_line.html#a93e2b3868595cc0ac41de6c0f36c2365" target="_top" xlink:title=" ">
<polygon fill="white" stroke="#666666" points="692.5,-285 546,-285 546,-253 692.5,-253 692.5,-285"/>
<text xml:space="preserve" text-anchor="start" x="554" y="-271.5" font-family="Helvetica,sans-Serif" font-size="10.00">ConnectionLine::controlPoints</text>
<text xml:space="preserve" text-anchor="middle" x="619.25" y="-259.5" font-family="Helvetica,sans-Serif" font-size="10.00">Changed</text>
</a>
</g>
</g>
<!-- Node3&#45;&gt;Node11 -->
<g id="edge12_Node000003_Node000011" class="edge">
<title>Node3&#45;&gt;Node11</title>
<g id="a_edge12_Node000003_Node000011"><a xlink:title=" ">
<path fill="none" stroke="#63b8ff" d="M460.98,-160.5C477.71,-182.45 510.09,-221.14 546,-244 547.97,-245.25 550.01,-246.45 552.1,-247.6"/>
<polygon fill="#63b8ff" stroke="#63b8ff" points="550.31,-250.62 560.82,-251.91 553.41,-244.34 550.31,-250.62"/>
</a>
</g>
</g>
<!-- Node12 -->
<g id="Node000012" class="node">
<title>Node12</title>
<g id="a_Node000012"><a xlink:href="class_connection_line.html#aac502857bfb1af787f061a04ab4243be" target="_top" xlink:title=" ">
<polygon fill="white" stroke="#666666" points="683.12,-235 555.38,-235 555.38,-203 683.12,-203 683.12,-235"/>
<text xml:space="preserve" text-anchor="start" x="563.38" y="-221.5" font-family="Helvetica,sans-Serif" font-size="10.00">ConnectionLine::endPoint</text>
<text xml:space="preserve" text-anchor="middle" x="619.25" y="-209.5" font-family="Helvetica,sans-Serif" font-size="10.00">Changed</text>
</a>
</g>
</g>
<!-- Node3&#45;&gt;Node12 -->
<g id="edge13_Node000003_Node000012" class="edge">
<title>Node3&#45;&gt;Node12</title>
<g id="a_edge13_Node000003_Node000012"><a xlink:title=" ">
<path fill="none" stroke="#63b8ff" d="M478.19,-160.44C497.18,-170.78 522.66,-184.01 546,-194 549.59,-195.54 553.3,-197.05 557.07,-198.52"/>
<polygon fill="#63b8ff" stroke="#63b8ff" points="555.75,-201.77 566.34,-202.03 558.23,-195.22 555.75,-201.77"/>
</a>
</g>
</g>
<!-- Node13 -->
<g id="Node000013" class="node">
<title>Node13</title>
<g id="a_Node000013"><a xlink:href="class_connection_line.html#a7af2a1f9fc1a9ddb362634ecaa926ae8" target="_top" xlink:title=" ">
<polygon fill="white" stroke="#666666" points="682,-185 556.5,-185 556.5,-153 682,-153 682,-185"/>
<text xml:space="preserve" text-anchor="start" x="564.5" y="-171.5" font-family="Helvetica,sans-Serif" font-size="10.00">ConnectionLine::lineType</text>
<text xml:space="preserve" text-anchor="middle" x="619.25" y="-159.5" font-family="Helvetica,sans-Serif" font-size="10.00">Changed</text>
</a>
</g>
</g>
<!-- Node3&#45;&gt;Node13 -->
<g id="edge14_Node000003_Node000013" class="edge">
<title>Node3&#45;&gt;Node13</title>
<g id="a_edge14_Node000003_Node000013"><a xlink:title=" ">
<path fill="none" stroke="#63b8ff" d="M510.1,-153.03C521.44,-154.7 533.39,-156.47 545.04,-158.19"/>
<polygon fill="#63b8ff" stroke="#63b8ff" points="544.2,-161.6 554.6,-159.6 545.22,-154.67 544.2,-161.6"/>
</a>
</g>
</g>
<!-- Node14 -->
<g id="Node000014" class="node">
<title>Node14</title>
<g id="a_Node000014"><a xlink:href="class_connection_line.html#a3c8e72d1084c985add08c5e37d54835f" target="_top" xlink:title=" ">
<polygon fill="white" stroke="#666666" points="684.25,-135 554.25,-135 554.25,-103 684.25,-103 684.25,-135"/>
<text xml:space="preserve" text-anchor="start" x="562.25" y="-121.5" font-family="Helvetica,sans-Serif" font-size="10.00">ConnectionLine::lineWidth</text>
<text xml:space="preserve" text-anchor="middle" x="619.25" y="-109.5" font-family="Helvetica,sans-Serif" font-size="10.00">Changed</text>
</a>
</g>
</g>
<!-- Node3&#45;&gt;Node14 -->
<g id="edge15_Node000003_Node000014" class="edge">
<title>Node3&#45;&gt;Node14</title>
<g id="a_edge15_Node000003_Node000014"><a xlink:title=" ">
<path fill="none" stroke="#63b8ff" d="M510.1,-134.97C520.64,-133.42 531.71,-131.78 542.59,-130.18"/>
<polygon fill="#63b8ff" stroke="#63b8ff" points="542.93,-133.66 552.31,-128.74 541.91,-126.74 542.93,-133.66"/>
</a>
</g>
</g>
<!-- Node15 -->
<g id="Node000015" class="node">
<title>Node15</title>
<g id="a_Node000015"><a xlink:href="class_connection_line.html#afcc2bd845912903497ccaa97e67b8a89" target="_top" xlink:title=" ">
<polygon fill="white" stroke="#666666" points="685,-85 553.5,-85 553.5,-53 685,-53 685,-85"/>
<text xml:space="preserve" text-anchor="start" x="561.5" y="-71.5" font-family="Helvetica,sans-Serif" font-size="10.00">ConnectionLine::startPoint</text>
<text xml:space="preserve" text-anchor="middle" x="619.25" y="-59.5" font-family="Helvetica,sans-Serif" font-size="10.00">Changed</text>
</a>
</g>
</g>
<!-- Node3&#45;&gt;Node15 -->
<g id="edge16_Node000003_Node000015" class="edge">
<title>Node3&#45;&gt;Node15</title>
<g id="a_edge16_Node000003_Node000015"><a xlink:title=" ">
<path fill="none" stroke="#63b8ff" d="M478.19,-127.56C497.18,-117.22 522.66,-103.99 546,-94 549.59,-92.46 553.3,-90.95 557.07,-89.48"/>
<polygon fill="#63b8ff" stroke="#63b8ff" points="558.23,-92.78 566.34,-85.97 555.75,-86.23 558.23,-92.78"/>
</a>
</g>
</g>
<!-- Node3&#45;&gt;Node16 -->
<g id="edge17_Node000003_Node000016" class="edge">
<title>Node3&#45;&gt;Node16</title>
<g id="a_edge17_Node000003_Node000016"><a xlink:title=" ">
<path fill="none" stroke="#63b8ff" d="M463.25,-127.55C485.33,-102.38 527.23,-55.95 546,-44 547.97,-42.75 550.01,-41.55 552.1,-40.4"/>
<polygon fill="#63b8ff" stroke="#63b8ff" points="553.41,-43.66 560.82,-36.09 550.31,-37.38 553.41,-43.66"/>
</a>
</g>
</g>
<!-- Node5 -->
<g id="Node000005" class="node">
<title>Node5</title>
<g id="a_Node000005"><a xlink:href="class_connection_line.html#a657559dca679d5fd04ae565b442b6a8b" target="_top" xlink:title=" ">
<polygon fill="white" stroke="#666666" points="885.5,-329 728.5,-329 728.5,-309 885.5,-309 885.5,-329"/>
<text xml:space="preserve" text-anchor="middle" x="807" y="-315.5" font-family="Helvetica,sans-Serif" font-size="10.00">ConnectionLine::ConnectionLine</text>
</a>
</g>
</g>
<!-- Node4&#45;&gt;Node5 -->
<g id="edge4_Node000004_Node000005" class="edge">
<title>Node4&#45;&gt;Node5</title>
<g id="a_edge4_Node000004_Node000005"><a xlink:title=" ">
<path fill="none" stroke="#63b8ff" d="M688.1,-319C697.48,-319 707.24,-319 716.94,-319"/>
<polygon fill="#63b8ff" stroke="#63b8ff" points="716.76,-322.5 726.76,-319 716.76,-315.5 716.76,-322.5"/>
</a>
</g>
</g>
<!-- Node6 -->
<g id="Node000006" class="node">
<title>Node6</title>
<g id="a_Node000006"><a xlink:href="class_connection_line.html#a836aef7faf5a4fb8a5a10bfc71dbabe3" target="_top" xlink:title=" ">
<polygon fill="white" stroke="#666666" points="1056,-335 921.5,-335 921.5,-303 1056,-303 1056,-335"/>
<text xml:space="preserve" text-anchor="start" x="929.5" y="-321.5" font-family="Helvetica,sans-Serif" font-size="10.00">ConnectionLine::connectTo</text>
<text xml:space="preserve" text-anchor="middle" x="988.75" y="-309.5" font-family="Helvetica,sans-Serif" font-size="10.00">Points</text>
</a>
</g>
</g>
<!-- Node5&#45;&gt;Node6 -->
<g id="edge5_Node000005_Node000006" class="edge">
<title>Node5&#45;&gt;Node6</title>
<g id="a_edge5_Node000005_Node000006"><a xlink:title=" ">
<path fill="none" stroke="#63b8ff" d="M885.8,-319C893.7,-319 901.73,-319 909.64,-319"/>
<polygon fill="#63b8ff" stroke="#63b8ff" points="909.6,-322.5 919.6,-319 909.6,-315.5 909.6,-322.5"/>
</a>
</g>
</g>
<!-- Node7 -->
<g id="Node000007" class="node">
<title>Node7</title>
<g id="a_Node000007"><a xlink:href="class_connection_line.html#a53c863c51a284a7a8e6b35bc34bd2d34" target="_top" xlink:title=" ">
<polygon fill="white" stroke="#666666" points="1244.5,-401 1095,-401 1095,-369 1244.5,-369 1244.5,-401"/>
<text xml:space="preserve" text-anchor="start" x="1103" y="-387.5" font-family="Helvetica,sans-Serif" font-size="10.00">ConnectionLine::onConnection</text>
<text xml:space="preserve" text-anchor="middle" x="1169.75" y="-375.5" font-family="Helvetica,sans-Serif" font-size="10.00">PointChanged</text>
</a>
</g>
</g>
<!-- Node6&#45;&gt;Node7 -->
<g id="edge6_Node000006_Node000007" class="edge">
<title>Node6&#45;&gt;Node7</title>
<g id="a_edge6_Node000006_Node000007"><a xlink:title=" ">
<path fill="none" stroke="#63b8ff" d="M1028.85,-335.38C1047.8,-343.15 1070.97,-352.37 1092,-360 1096.45,-361.61 1101.05,-363.24 1105.7,-364.84"/>
<polygon fill="#63b8ff" stroke="#63b8ff" points="1104.54,-368.14 1115.14,-368.03 1106.79,-361.51 1104.54,-368.14"/>
</a>
</g>
</g>
<!-- Node8 -->
<g id="Node000008" class="node">
<title>Node8</title>
<g id="a_Node000008"><a xlink:href="class_connection_line.html#a4bce34a3f2fb1fd7145de2d9100c9173" target="_top" xlink:title=" ">
<polygon fill="white" stroke="#666666" points="1237.75,-263 1101.75,-263 1101.75,-231 1237.75,-231 1237.75,-263"/>
<text xml:space="preserve" text-anchor="start" x="1109.75" y="-249.5" font-family="Helvetica,sans-Serif" font-size="10.00">ConnectionLine::onElement</text>
<text xml:space="preserve" text-anchor="middle" x="1169.75" y="-237.5" font-family="Helvetica,sans-Serif" font-size="10.00">PositionChanged</text>
</a>
</g>
</g>
<!-- Node6&#45;&gt;Node8 -->
<g id="edge8_Node000006_Node000008" class="edge">
<title>Node6&#45;&gt;Node8</title>
<g id="a_edge8_Node000006_Node000008"><a xlink:title=" ">
<path fill="none" stroke="#63b8ff" d="M1022.95,-302.55C1042.75,-293.04 1068.53,-281.18 1092,-272 1096.14,-270.38 1100.43,-268.78 1104.77,-267.22"/>
<polygon fill="#63b8ff" stroke="#63b8ff" points="1105.91,-270.53 1114.19,-263.92 1103.59,-263.92 1105.91,-270.53"/>
</a>
</g>
</g>
<!-- Node9 -->
<g id="Node000009" class="node">
<title>Node9</title>
<g id="a_Node000009"><a xlink:href="class_basic_element.html#a02183bafd7c80f9f1f99a9b9f1631524" target="_top" xlink:title=" ">
<polygon fill="white" stroke="#666666" points="1247.5,-351 1092,-351 1092,-331 1247.5,-331 1247.5,-351"/>
<text xml:space="preserve" text-anchor="middle" x="1169.75" y="-337.5" font-family="Helvetica,sans-Serif" font-size="10.00">BasicElement::positionChanged</text>
</a>
</g>
</g>
<!-- Node6&#45;&gt;Node9 -->
<g id="edge10_Node000006_Node000009" class="edge">
<title>Node6&#45;&gt;Node9</title>
<g id="a_edge10_Node000006_Node000009"><a xlink:title=" ">
<path fill="none" stroke="#63b8ff" d="M1056.4,-327.19C1064.24,-328.16 1072.33,-329.15 1080.4,-330.14"/>
<polygon fill="#63b8ff" stroke="#63b8ff" points="1079.93,-333.61 1090.28,-331.36 1080.78,-326.66 1079.93,-333.61"/>
</a>
</g>
</g>
<!-- Node10 -->
<g id="Node000010" class="node">
<title>Node10</title>
<g id="a_Node000010"><a xlink:href="class_connection_point.html#a851668ae19e97658f1818a40ea375f65" target="_top" xlink:title=" ">
<polygon fill="white" stroke="#666666" points="1232.5,-313 1107,-313 1107,-281 1232.5,-281 1232.5,-313"/>
<text xml:space="preserve" text-anchor="start" x="1115" y="-299.5" font-family="Helvetica,sans-Serif" font-size="10.00">ConnectionPoint::relative</text>
<text xml:space="preserve" text-anchor="middle" x="1169.75" y="-287.5" font-family="Helvetica,sans-Serif" font-size="10.00">PositionChanged</text>
</a>
</g>
</g>
<!-- Node6&#45;&gt;Node10 -->
<g id="edge11_Node000006_Node000010" class="edge">
<title>Node6&#45;&gt;Node10</title>
<g id="a_edge11_Node000006_Node000010"><a xlink:title=" ">
<path fill="none" stroke="#63b8ff" d="M1056.4,-310.81C1069.16,-309.24 1082.59,-307.59 1095.55,-306"/>
<polygon fill="#63b8ff" stroke="#63b8ff" points="1095.78,-309.49 1105.28,-304.8 1094.93,-302.55 1095.78,-309.49"/>
</a>
</g>
</g>
<!-- Node7&#45;&gt;Node4 -->
<g id="edge7_Node000007_Node000004" class="edge">
<title>Node7&#45;&gt;Node4</title>
<g id="a_edge7_Node000007_Node000004"><a xlink:title=" ">
<path fill="none" stroke="#63b8ff" d="M1094.56,-378.62C1006.9,-370.72 856.75,-356.08 728.5,-338 718.96,-336.66 708.97,-335.1 699.08,-333.47"/>
<polygon fill="#63b8ff" stroke="#63b8ff" points="699.92,-330.07 689.48,-331.86 698.76,-336.97 699.92,-330.07"/>
</a>
</g>
</g>
<!-- Node8&#45;&gt;Node4 -->
<g id="edge9_Node000008_Node000004" class="edge">
<title>Node8&#45;&gt;Node4</title>
<g id="a_edge9_Node000008_Node000004"><a xlink:title=" ">
<path fill="none" stroke="#63b8ff" d="M1101.47,-253.96C1014.99,-263.17 860.25,-280.52 728.5,-300 718.97,-301.41 708.99,-303 699.1,-304.65"/>
<polygon fill="#63b8ff" stroke="#63b8ff" points="698.78,-301.16 689.5,-306.28 699.95,-308.06 698.78,-301.16"/>
</a>
</g>
</g>
<!-- Node17 -->
<g id="Node000017" class="node">
<title>Node17</title>
<g id="a_Node000017"><a xlink:href="class_connection_graphics_item.html#aadc87896a249eaf4a8b7fdcc76745e34" target="_top" xlink:title=" ">
<polygon fill="white" stroke="#666666" points="879.88,-35 734.12,-35 734.12,-3 879.88,-3 879.88,-35"/>
<text xml:space="preserve" text-anchor="start" x="742.12" y="-21.5" font-family="Helvetica,sans-Serif" font-size="10.00">ConnectionGraphicsItem</text>
<text xml:space="preserve" text-anchor="middle" x="807" y="-9.5" font-family="Helvetica,sans-Serif" font-size="10.00">::updateControlPointsPosition</text>
</a>
</g>
</g>
<!-- Node16&#45;&gt;Node17 -->
<g id="edge18_Node000016_Node000017" class="edge">
<title>Node16&#45;&gt;Node17</title>
<g id="a_edge18_Node000016_Node000017"><a xlink:title=" ">
<path fill="none" stroke="#63b8ff" d="M681.59,-19C694.63,-19 708.62,-19 722.33,-19"/>
<polygon fill="#63b8ff" stroke="#63b8ff" points="722.25,-22.5 732.25,-19 722.25,-15.5 722.25,-22.5"/>
</a>
</g>
</g>
</g>
</svg>
