<?xml version="1.0" encoding="UTF-8" standalone="no"?>
<!DOCTYPE svg PUBLIC "-//W3C//DTD SVG 1.1//EN"
 "http://www.w3.org/Graphics/SVG/1.1/DTD/svg11.dtd">
<!-- Generated by graphviz version 14.1.1 (20251213.1925)
 -->
<!-- Title: Attribute::isPrimaryKey Pages: 1 -->
<svg width="1862pt" height="934pt"
 viewBox="0.00 0.00 1862.00 934.00" xmlns="http://www.w3.org/2000/svg" xmlns:xlink="http://www.w3.org/1999/xlink">
<g id="graph0" class="graph" transform="scale(1 1) rotate(0) translate(4 930)">
<title>Attribute::isPrimaryKey</title>
<!-- Node1 -->
<g id="Node000001" class="node">
<title>Node1</title>
<g id="a_Node000001"><a xlink:title=" ">
<polygon fill="#999999" stroke="#666666" points="1853.75,-222 1736.5,-222 1736.5,-202 1853.75,-202 1853.75,-222"/>
<text xml:space="preserve" text-anchor="middle" x="1795.12" y="-208.5" font-family="Helvetica,sans-Serif" font-size="10.00">Attribute::isPrimaryKey</text>
</a>
</g>
</g>
<!-- Node2 -->
<g id="Node000002" class="node">
<title>Node2</title>
<g id="a_Node000002"><a xlink:href="class_properties_panel.html#acc5a2b4e63ea74eaa34853f1cec46b81" target="_top" xlink:title=" ">
<polygon fill="white" stroke="#666666" points="1700.5,-228 1572.75,-228 1572.75,-196 1700.5,-196 1700.5,-228"/>
<text xml:space="preserve" text-anchor="start" x="1580.75" y="-214.5" font-family="Helvetica,sans-Serif" font-size="10.00">PropertiesPanel::populate</text>
<text xml:space="preserve" text-anchor="middle" x="1636.62" y="-202.5" font-family="Helvetica,sans-Serif" font-size="10.00">AttributeProperties</text>
</a>
</g>
</g>
<!-- Node1&#45;&gt;Node2 -->
<g id="edge1_Node000001_Node000002" class="edge">
<title>Node1&#45;&gt;Node2</title>
<g id="a_edge1_Node000001_Node000002"><a xlink:title=" ">
<path fill="none" stroke="#63b8ff" d="M1725.01,-212C1716.93,-212 1708.73,-212 1700.74,-212"/>
<polygon fill="#63b8ff" stroke="#63b8ff" points="1724.78,-215.5 1734.78,-212 1724.78,-208.5 1724.78,-215.5"/>
</a>
</g>
</g>
<!-- Node3 -->
<g id="Node000003" class="node">
<title>Node3</title>
<g id="a_Node000003"><a xlink:href="class_properties_panel.html#a050a4a9040c7aeefde9c1377d2e1909e" target="_top" xlink:title=" ">
<polygon fill="white" stroke="#666666" points="1536.75,-206 1409,-206 1409,-174 1536.75,-174 1536.75,-206"/>
<text xml:space="preserve" text-anchor="start" x="1417" y="-192.5" font-family="Helvetica,sans-Serif" font-size="10.00">PropertiesPanel::populate</text>
<text xml:space="preserve" text-anchor="middle" x="1472.88" y="-180.5" font-family="Helvetica,sans-Serif" font-size="10.00">AttributeList</text>
</a>
</g>
</g>
<!-- Node2&#45;&gt;Node3 -->
<g id="edge2_Node000002_Node000003" class="edge">
<title>Node2&#45;&gt;Node3</title>
<g id="a_edge2_Node000002_Node000003"><a xlink:title=" ">
<path fill="none" stroke="#63b8ff" d="M1561.33,-195.17C1553.28,-194.02 1545.14,-192.96 1537.24,-192.01"/>
<polygon fill="#63b8ff" stroke="#63b8ff" points="1560.72,-198.61 1571.13,-196.61 1561.75,-191.69 1560.72,-198.61"/>
</a>
</g>
</g>
<!-- Node5 -->
<g id="Node000005" class="node">
<title>Node5</title>
<g id="a_Node000005"><a xlink:href="class_properties_panel.html#a037586f897062f3915a123b9f2a82b91" target="_top" xlink:title=" ">
<polygon fill="white" stroke="#666666" points="1209.25,-250 1081.5,-250 1081.5,-218 1209.25,-218 1209.25,-250"/>
<text xml:space="preserve" text-anchor="start" x="1089.5" y="-236.5" font-family="Helvetica,sans-Serif" font-size="10.00">PropertiesPanel::populate</text>
<text xml:space="preserve" text-anchor="middle" x="1145.38" y="-224.5" font-family="Helvetica,sans-Serif" font-size="10.00">ForElement</text>
</a>
</g>
</g>
<!-- Node2&#45;&gt;Node5 -->
<g id="edge47_Node000002_Node000005" class="edge">
<title>Node2&#45;&gt;Node5</title>
<g id="a_edge47_Node000002_Node000005"><a xlink:title=" ">
<path fill="none" stroke="#63b8ff" d="M1561.05,-215.35C1464.95,-219.67 1299.54,-227.11 1209.41,-231.17"/>
<polygon fill="#63b8ff" stroke="#63b8ff" points="1561.07,-218.86 1570.9,-214.91 1560.76,-211.86 1561.07,-218.86"/>
</a>
</g>
</g>
<!-- Node3&#45;&gt;Node2 -->
<g id="edge3_Node000003_Node000002" class="edge">
<title>Node3&#45;&gt;Node2</title>
<g id="a_edge3_Node000003_Node000002"><a xlink:title=" ">
<path fill="none" stroke="#63b8ff" d="M1548.53,-206.89C1556.59,-208.03 1564.73,-209.09 1572.63,-210.03"/>
<polygon fill="#63b8ff" stroke="#63b8ff" points="1549.14,-203.44 1538.73,-205.45 1548.12,-210.36 1549.14,-203.44"/>
</a>
</g>
</g>
<!-- Node4 -->
<g id="Node000004" class="node">
<title>Node4</title>
<g id="a_Node000004"><a xlink:href="class_properties_panel.html#a6a4344308af5b2c993bc25981529239c" target="_top" xlink:title=" ">
<polygon fill="white" stroke="#666666" points="482.25,-162 354.5,-162 354.5,-130 482.25,-130 482.25,-162"/>
<text xml:space="preserve" text-anchor="start" x="362.5" y="-148.5" font-family="Helvetica,sans-Serif" font-size="10.00">PropertiesPanel::populate</text>
<text xml:space="preserve" text-anchor="middle" x="418.38" y="-136.5" font-family="Helvetica,sans-Serif" font-size="10.00">EntityProperties</text>
</a>
</g>
</g>
<!-- Node3&#45;&gt;Node4 -->
<g id="edge4_Node000003_Node000004" class="edge">
<title>Node3&#45;&gt;Node4</title>
<g id="a_edge4_Node000003_Node000004"><a xlink:title=" ">
<path fill="none" stroke="#63b8ff" d="M1443.84,-166.55C1389.91,-123.9 1266.4,-38 1146.38,-38 1146.38,-38 1146.38,-38 809.75,-38 674.03,-38 521.07,-99.38 454.01,-129.6"/>
<polygon fill="#63b8ff" stroke="#63b8ff" points="1441.62,-169.25 1451.61,-172.79 1446.01,-163.79 1441.62,-169.25"/>
</a>
</g>
</g>
<!-- Node9 -->
<g id="Node000009" class="node">
<title>Node9</title>
<g id="a_Node000009"><a xlink:href="class_properties_panel.html#aeb116e2e51099f618b5d284e492bc0e2" target="_top" xlink:title=" ">
<polygon fill="white" stroke="#666666" points="1373,-206 1245.25,-206 1245.25,-174 1373,-174 1373,-206"/>
<text xml:space="preserve" text-anchor="start" x="1253.25" y="-192.5" font-family="Helvetica,sans-Serif" font-size="10.00">PropertiesPanel::populate</text>
<text xml:space="preserve" text-anchor="middle" x="1309.12" y="-180.5" font-family="Helvetica,sans-Serif" font-size="10.00">RelationshipProperties</text>
</a>
</g>
</g>
<!-- Node3&#45;&gt;Node9 -->
<g id="edge46_Node000003_Node000009" class="edge">
<title>Node3&#45;&gt;Node9</title>
<g id="a_edge46_Node000003_Node000009"><a xlink:title=" ">
<path fill="none" stroke="#63b8ff" d="M1397.58,-190C1389.53,-190 1381.39,-190 1373.49,-190"/>
<polygon fill="#63b8ff" stroke="#63b8ff" points="1397.36,-193.5 1407.36,-190 1397.36,-186.5 1397.36,-193.5"/>
</a>
</g>
</g>
<!-- Node4&#45;&gt;Node5 -->
<g id="edge5_Node000004_Node000005" class="edge">
<title>Node4&#45;&gt;Node5</title>
<g id="a_edge5_Node000004_Node000005"><a xlink:title=" ">
<path fill="none" stroke="#63b8ff" d="M492.87,-164.95C503.12,-167.21 513.54,-169.31 523.5,-171 550.72,-175.63 928.36,-212.84 1081.02,-227.8"/>
<polygon fill="#63b8ff" stroke="#63b8ff" points="493.87,-161.58 483.34,-162.78 492.32,-168.41 493.87,-161.58"/>
</a>
</g>
</g>
<!-- Node6 -->
<g id="Node000006" class="node">
<title>Node6</title>
<g id="a_Node000006"><a xlink:href="class_properties_panel.html#a139ae0158b486c6004e15e0ddf36f319" target="_top" xlink:title=" ">
<polygon fill="white" stroke="#666666" points="1045.5,-557 924.5,-557 924.5,-537 1045.5,-537 1045.5,-557"/>
<text xml:space="preserve" text-anchor="middle" x="985" y="-543.5" font-family="Helvetica,sans-Serif" font-size="10.00">PropertiesPanel::refresh</text>
</a>
</g>
</g>
<!-- Node5&#45;&gt;Node6 -->
<g id="edge6_Node000005_Node000006" class="edge">
<title>Node5&#45;&gt;Node6</title>
<g id="a_edge6_Node000005_Node000006"><a xlink:title=" ">
<path fill="none" stroke="#63b8ff" d="M1121.95,-258.79C1108.99,-273.97 1093.02,-294.22 1081.5,-314 1034.4,-394.84 999.31,-503.34 989.07,-536.77"/>
<polygon fill="#63b8ff" stroke="#63b8ff" points="1124.26,-261.47 1128.18,-251.63 1118.98,-256.87 1124.26,-261.47"/>
</a>
</g>
</g>
<!-- Node7 -->
<g id="Node000007" class="node">
<title>Node7</title>
<g id="a_Node000007"><a xlink:href="class_properties_panel.html#a55ae5c02e7d75c7bdc26281a148e8c5a" target="_top" xlink:title=" ">
<polygon fill="white" stroke="#666666" points="888.5,-300 733,-300 733,-268 888.5,-268 888.5,-300"/>
<text xml:space="preserve" text-anchor="start" x="741" y="-286.5" font-family="Helvetica,sans-Serif" font-size="10.00">PropertiesPanel::onAddAttribute</text>
<text xml:space="preserve" text-anchor="middle" x="810.75" y="-274.5" font-family="Helvetica,sans-Serif" font-size="10.00">OnTreeClicked</text>
</a>
</g>
</g>
<!-- Node6&#45;&gt;Node7 -->
<g id="edge7_Node000006_Node000007" class="edge">
<title>Node6&#45;&gt;Node7</title>
<g id="a_edge7_Node000006_Node000007"><a xlink:title=" ">
<path fill="none" stroke="#63b8ff" d="M972.38,-526.75C954.89,-496.53 920.43,-438.04 888.5,-390 866.87,-357.45 839.66,-320.79 824.13,-300.24"/>
<polygon fill="#63b8ff" stroke="#63b8ff" points="969.24,-528.31 977.27,-535.22 975.31,-524.81 969.24,-528.31"/>
</a>
</g>
</g>
<!-- Node10 -->
<g id="Node000010" class="node">
<title>Node10</title>
<g id="a_Node000010"><a xlink:href="class_properties_panel.html#a2800a2c7575a5fad6d923d9b64d982f8" target="_top" xlink:title=" ">
<polygon fill="white" stroke="#666666" points="483.38,-514 353.38,-514 353.38,-482 483.38,-482 483.38,-514"/>
<text xml:space="preserve" text-anchor="start" x="361.38" y="-500.5" font-family="Helvetica,sans-Serif" font-size="10.00">PropertiesPanel::onCheck</text>
<text xml:space="preserve" text-anchor="middle" x="418.38" y="-488.5" font-family="Helvetica,sans-Serif" font-size="10.00">BoxChanged</text>
</a>
</g>
</g>
<!-- Node6&#45;&gt;Node10 -->
<g id="edge14_Node000006_Node000010" class="edge">
<title>Node6&#45;&gt;Node10</title>
<g id="a_edge14_Node000006_Node000010"><a xlink:title=" ">
<path fill="none" stroke="#63b8ff" d="M963.46,-529.26C944.94,-514.06 916.41,-492.54 888.5,-479 808.72,-440.3 784.78,-435.57 697,-423 620.67,-412.07 596.89,-399.32 523.5,-423 487.88,-434.49 454.17,-463.2 435.2,-481.58"/>
<polygon fill="#63b8ff" stroke="#63b8ff" points="961.1,-531.85 971.01,-535.59 965.59,-526.49 961.1,-531.85"/>
</a>
</g>
</g>
<!-- Node12 -->
<g id="Node000012" class="node">
<title>Node12</title>
<g id="a_Node000012"><a xlink:href="class_properties_panel.html#aec82450a3daeb2614c2321e37897f1dd" target="_top" xlink:title=" ">
<polygon fill="white" stroke="#666666" points="484.88,-798 351.88,-798 351.88,-766 484.88,-766 484.88,-798"/>
<text xml:space="preserve" text-anchor="start" x="359.88" y="-784.5" font-family="Helvetica,sans-Serif" font-size="10.00">PropertiesPanel::onCombo</text>
<text xml:space="preserve" text-anchor="middle" x="418.38" y="-772.5" font-family="Helvetica,sans-Serif" font-size="10.00">BoxChanged</text>
</a>
</g>
</g>
<!-- Node6&#45;&gt;Node12 -->
<g id="edge18_Node000006_Node000012" class="edge">
<title>Node6&#45;&gt;Node12</title>
<g id="a_edge18_Node000006_Node000012"><a xlink:title=" ">
<path fill="none" stroke="#63b8ff" d="M969.58,-566.47C931.68,-615.76 823.37,-744.63 697,-788 627.69,-811.79 542.81,-805.21 485.29,-795.94"/>
<polygon fill="#63b8ff" stroke="#63b8ff" points="972.24,-568.77 975.49,-558.68 966.66,-564.54 972.24,-568.77"/>
</a>
</g>
</g>
<!-- Node16 -->
<g id="Node000016" class="node">
<title>Node16</title>
<g id="a_Node000016"><a xlink:href="class_properties_panel.html#aec8130201106284c02f21903b516554d" target="_top" xlink:title=" ">
<polygon fill="white" stroke="#666666" points="678.62,-464 541.88,-464 541.88,-432 678.62,-432 678.62,-464"/>
<text xml:space="preserve" text-anchor="start" x="549.88" y="-450.5" font-family="Helvetica,sans-Serif" font-size="10.00">PropertiesPanel::onLineEdit</text>
<text xml:space="preserve" text-anchor="middle" x="610.25" y="-438.5" font-family="Helvetica,sans-Serif" font-size="10.00">Changed</text>
</a>
</g>
</g>
<!-- Node6&#45;&gt;Node16 -->
<g id="edge25_Node000006_Node000016" class="edge">
<title>Node6&#45;&gt;Node16</title>
<g id="a_edge25_Node000006_Node000016"><a xlink:title=" ">
<path fill="none" stroke="#63b8ff" d="M934.06,-533.74C866.62,-515.82 746.47,-483.91 673.31,-464.48"/>
<polygon fill="#63b8ff" stroke="#63b8ff" points="932.79,-537.02 943.35,-536.2 934.58,-530.25 932.79,-537.02"/>
</a>
</g>
</g>
<!-- Node18 -->
<g id="Node000018" class="node">
<title>Node18</title>
<g id="a_Node000018"><a xlink:href="class_properties_panel.html#a3cdc065abcd2f9e59558903073c0f23f" target="_top" xlink:title=" ">
<polygon fill="white" stroke="#666666" points="487.5,-666 349.25,-666 349.25,-634 487.5,-634 487.5,-666"/>
<text xml:space="preserve" text-anchor="start" x="357.25" y="-652.5" font-family="Helvetica,sans-Serif" font-size="10.00">PropertiesPanel::onProperty</text>
<text xml:space="preserve" text-anchor="middle" x="418.38" y="-640.5" font-family="Helvetica,sans-Serif" font-size="10.00">ValueChanged</text>
</a>
</g>
</g>
<!-- Node6&#45;&gt;Node18 -->
<g id="edge28_Node000006_Node000018" class="edge">
<title>Node6&#45;&gt;Node18</title>
<g id="a_edge28_Node000006_Node000018"><a xlink:title=" ">
<path fill="none" stroke="#63b8ff" d="M933.73,-561.71C919.27,-567.73 903.37,-574.42 888.5,-580 804.99,-611.33 785.14,-626.35 697,-640 626.39,-650.93 544.45,-649.54 487.99,-648.18"/>
<polygon fill="#63b8ff" stroke="#63b8ff" points="934.68,-565.11 942.58,-558.05 932,-558.64 934.68,-565.11"/>
</a>
</g>
</g>
<!-- Node20 -->
<g id="Node000020" class="node">
<title>Node20</title>
<g id="a_Node000020"><a xlink:href="class_properties_panel.html#a8a2ec0bcba44f3bbd0245d3a53ff49f7" target="_top" xlink:title=" ">
<polygon fill="white" stroke="#666666" points="879.88,-250 741.62,-250 741.62,-218 879.88,-218 879.88,-250"/>
<text xml:space="preserve" text-anchor="start" x="749.62" y="-236.5" font-family="Helvetica,sans-Serif" font-size="10.00">PropertiesPanel::onRemove</text>
<text xml:space="preserve" text-anchor="middle" x="810.75" y="-224.5" font-family="Helvetica,sans-Serif" font-size="10.00">AttributeOnTreeClicked</text>
</a>
</g>
</g>
<!-- Node6&#45;&gt;Node20 -->
<g id="edge31_Node000006_Node000020" class="edge">
<title>Node6&#45;&gt;Node20</title>
<g id="a_edge31_Node000006_Node000020"><a xlink:title=" ">
<path fill="none" stroke="#63b8ff" d="M983.2,-525.33C980.05,-472.27 964.58,-334.68 888.5,-259 885.22,-255.74 881.51,-252.9 877.54,-250.44"/>
<polygon fill="#63b8ff" stroke="#63b8ff" points="979.69,-525.32 983.68,-535.14 986.68,-524.98 979.69,-525.32"/>
</a>
</g>
</g>
<!-- Node21 -->
<g id="Node000021" class="node">
<title>Node21</title>
<g id="a_Node000021"><a xlink:href="class_properties_panel.html#a79618c5c820a40931c085d54be70bd34" target="_top" xlink:title=" ">
<polygon fill="white" stroke="#666666" points="873.5,-580 748,-580 748,-548 873.5,-548 873.5,-580"/>
<text xml:space="preserve" text-anchor="start" x="756" y="-566.5" font-family="Helvetica,sans-Serif" font-size="10.00">PropertiesPanel::updates</text>
<text xml:space="preserve" text-anchor="middle" x="810.75" y="-554.5" font-family="Helvetica,sans-Serif" font-size="10.00">AfterChangingProperty</text>
</a>
</g>
</g>
<!-- Node6&#45;&gt;Node21 -->
<g id="edge33_Node000006_Node000021" class="edge">
<title>Node6&#45;&gt;Node21</title>
<g id="a_edge33_Node000006_Node000021"><a xlink:title=" ">
<path fill="none" stroke="#63b8ff" d="M912.96,-554.01C899.95,-555.3 886.47,-556.63 873.75,-557.88"/>
<polygon fill="#63b8ff" stroke="#63b8ff" points="913.12,-557.51 922.73,-553.05 912.44,-550.55 913.12,-557.51"/>
</a>
</g>
</g>
<!-- Node8 -->
<g id="Node000008" class="node">
<title>Node8</title>
<g id="a_Node000008"><a xlink:href="class_properties_panel.html#a90cca2a241daa84841ee3e90d7768c8f" target="_top" xlink:title=" ">
<polygon fill="white" stroke="#666666" points="683.5,-162 537,-162 537,-130 683.5,-130 683.5,-162"/>
<text xml:space="preserve" text-anchor="start" x="545" y="-148.5" font-family="Helvetica,sans-Serif" font-size="10.00">PropertiesPanel::createButton</text>
<text xml:space="preserve" text-anchor="middle" x="610.25" y="-136.5" font-family="Helvetica,sans-Serif" font-size="10.00">PropertyItem</text>
</a>
</g>
</g>
<!-- Node7&#45;&gt;Node8 -->
<g id="edge8_Node000007_Node000008" class="edge">
<title>Node7&#45;&gt;Node8</title>
<g id="a_edge8_Node000007_Node000008"><a xlink:title=" ">
<path fill="none" stroke="#63b8ff" d="M740.1,-262.86C737.67,-261.63 735.29,-260.35 733,-259 687.76,-232.4 645.31,-186.51 624.55,-162.2"/>
<polygon fill="#63b8ff" stroke="#63b8ff" points="738.43,-265.95 748.98,-266.93 741.35,-259.58 738.43,-265.95"/>
</a>
</g>
</g>
<!-- Node8&#45;&gt;Node2 -->
<g id="edge10_Node000008_Node000002" class="edge">
<title>Node8&#45;&gt;Node2</title>
<g id="a_edge10_Node000008_Node000002"><a xlink:title=" ">
<path fill="none" stroke="#63b8ff" d="M674.27,-126.39C693,-121.25 713.68,-116.24 733,-113 1013.54,-65.93 1092.45,-72.02 1373,-119 1447.56,-131.48 1465.97,-138.46 1536.75,-165 1560.06,-173.74 1585.41,-185.85 1604.6,-195.58"/>
<polygon fill="#63b8ff" stroke="#63b8ff" points="673.32,-123.02 664.64,-129.09 675.22,-129.75 673.32,-123.02"/>
</a>
</g>
</g>
<!-- Node8&#45;&gt;Node3 -->
<g id="edge9_Node000008_Node000003" class="edge">
<title>Node8&#45;&gt;Node3</title>
<g id="a_edge9_Node000008_Node000003"><a xlink:title=" ">
<path fill="none" stroke="#63b8ff" d="M695.25,-134.65C770.68,-125.45 884.53,-114 984,-114 1146.38,-114 1146.38,-114 1146.38,-114 1250.25,-114 1368,-151.16 1429.44,-173.51"/>
<polygon fill="#63b8ff" stroke="#63b8ff" points="694.94,-131.16 685.45,-135.86 695.8,-138.11 694.94,-131.16"/>
</a>
</g>
</g>
<!-- Node8&#45;&gt;Node4 -->
<g id="edge11_Node000008_Node000004" class="edge">
<title>Node8&#45;&gt;Node4</title>
<g id="a_edge11_Node000008_Node000004"><a xlink:title=" ">
<path fill="none" stroke="#63b8ff" d="M525.27,-146C510.95,-146 496.29,-146 482.63,-146"/>
<polygon fill="#63b8ff" stroke="#63b8ff" points="525.14,-149.5 535.14,-146 525.14,-142.5 525.14,-149.5"/>
</a>
</g>
</g>
<!-- Node8&#45;&gt;Node9 -->
<g id="edge12_Node000008_Node000009" class="edge">
<title>Node8&#45;&gt;Node9</title>
<g id="a_edge12_Node000008_Node000009"><a xlink:title=" ">
<path fill="none" stroke="#63b8ff" d="M694.89,-147.81C810.68,-150.85 1026.24,-158.49 1209.25,-176 1220.81,-177.11 1233.1,-178.59 1244.93,-180.18"/>
<polygon fill="#63b8ff" stroke="#63b8ff" points="695.26,-144.32 685.18,-147.56 695.08,-151.31 695.26,-144.32"/>
</a>
</g>
</g>
<!-- Node9&#45;&gt;Node5 -->
<g id="edge13_Node000009_Node000005" class="edge">
<title>Node9&#45;&gt;Node5</title>
<g id="a_edge13_Node000009_Node000005"><a xlink:title=" ">
<path fill="none" stroke="#63b8ff" d="M1237.09,-209.32C1227.03,-212.06 1216.76,-214.85 1206.92,-217.53"/>
<polygon fill="#63b8ff" stroke="#63b8ff" points="1237.7,-212.78 1246.43,-206.78 1235.87,-206.03 1237.7,-212.78"/>
</a>
</g>
</g>
<!-- Node11 -->
<g id="Node000011" class="node">
<title>Node11</title>
<g id="a_Node000011"><a xlink:href="class_properties_panel.html#acfb41226221624e46767835caeea8abc" target="_top" xlink:title=" ">
<polygon fill="white" stroke="#666666" points="311.75,-382 165.25,-382 165.25,-350 311.75,-350 311.75,-382"/>
<text xml:space="preserve" text-anchor="start" x="173.25" y="-368.5" font-family="Helvetica,sans-Serif" font-size="10.00">PropertiesPanel::createCheck</text>
<text xml:space="preserve" text-anchor="middle" x="238.5" y="-356.5" font-family="Helvetica,sans-Serif" font-size="10.00">BoxPropertyItem</text>
</a>
</g>
</g>
<!-- Node10&#45;&gt;Node11 -->
<g id="edge15_Node000010_Node000011" class="edge">
<title>Node10&#45;&gt;Node11</title>
<g id="a_edge15_Node000010_Node000011"><a xlink:title=" ">
<path fill="none" stroke="#63b8ff" d="M386.2,-474.87C350.54,-448.4 293.04,-405.73 261.67,-382.45"/>
<polygon fill="#63b8ff" stroke="#63b8ff" points="383.88,-477.5 393.99,-480.65 388.05,-471.88 383.88,-477.5"/>
</a>
</g>
</g>
<!-- Node11&#45;&gt;Node2 -->
<g id="edge16_Node000011_Node000002" class="edge">
<title>Node11&#45;&gt;Node2</title>
<g id="a_edge16_Node000011_Node000002"><a xlink:title=" ">
<path fill="none" stroke="#63b8ff" d="M323.35,-366C398.29,-366 511.1,-366 609.25,-366 1310.12,-366 1310.12,-366 1310.12,-366 1437.66,-366 1568.63,-268.21 1616.58,-228.48"/>
<polygon fill="#63b8ff" stroke="#63b8ff" points="323.63,-362.5 313.63,-366 323.63,-369.5 323.63,-362.5"/>
</a>
</g>
</g>
<!-- Node11&#45;&gt;Node9 -->
<g id="edge17_Node000011_Node000009" class="edge">
<title>Node11&#45;&gt;Node9</title>
<g id="a_edge17_Node000011_Node000009"><a xlink:title=" ">
<path fill="none" stroke="#63b8ff" d="M245.09,-338.72C256.5,-289.32 286.83,-184.32 349.25,-121 438.72,-30.23 481.79,0 609.25,0 986,0 986,0 986,0 1122.35,0 1251.76,-127.85 1293.87,-173.8"/>
<polygon fill="#63b8ff" stroke="#63b8ff" points="241.72,-337.75 242.97,-348.27 248.55,-339.27 241.72,-337.75"/>
</a>
</g>
</g>
<!-- Node13 -->
<g id="Node000013" class="node">
<title>Node13</title>
<g id="a_Node000013"><a xlink:href="class_properties_panel.html#a8fd53ec3c9f711c3354483e8bb4d0b47" target="_top" xlink:title=" ">
<polygon fill="white" stroke="#666666" points="313.25,-910 163.75,-910 163.75,-878 313.25,-878 313.25,-910"/>
<text xml:space="preserve" text-anchor="start" x="171.75" y="-896.5" font-family="Helvetica,sans-Serif" font-size="10.00">PropertiesPanel::createCombo</text>
<text xml:space="preserve" text-anchor="middle" x="238.5" y="-884.5" font-family="Helvetica,sans-Serif" font-size="10.00">BoxPropertyItem</text>
</a>
</g>
</g>
<!-- Node12&#45;&gt;Node13 -->
<g id="edge19_Node000012_Node000013" class="edge">
<title>Node12&#45;&gt;Node13</title>
<g id="a_edge19_Node000012_Node000013"><a xlink:title=" ">
<path fill="none" stroke="#63b8ff" d="M381.88,-804.35C347.59,-825.94 296.43,-858.15 265.69,-877.51"/>
<polygon fill="#63b8ff" stroke="#63b8ff" points="383.63,-807.38 390.23,-799.09 379.9,-801.46 383.63,-807.38"/>
</a>
</g>
</g>
<!-- Node14 -->
<g id="Node000014" class="node">
<title>Node14</title>
<g id="a_Node000014"><a xlink:href="class_properties_panel.html#a32c2dab00c58ffdcb6a1e3cd829d03c8" target="_top" xlink:title=" ">
<polygon fill="white" stroke="#666666" points="306.88,-814 170.12,-814 170.12,-782 306.88,-782 306.88,-814"/>
<text xml:space="preserve" text-anchor="start" x="178.12" y="-800.5" font-family="Helvetica,sans-Serif" font-size="10.00">PropertiesPanel::createIcon</text>
<text xml:space="preserve" text-anchor="middle" x="238.5" y="-788.5" font-family="Helvetica,sans-Serif" font-size="10.00">ComboBoxPropertyItem</text>
</a>
</g>
</g>
<!-- Node12&#45;&gt;Node14 -->
<g id="edge22_Node000012_Node000014" class="edge">
<title>Node12&#45;&gt;Node14</title>
<g id="a_edge22_Node000012_Node000014"><a xlink:title=" ">
<path fill="none" stroke="#63b8ff" d="M340.08,-788.95C329.12,-789.94 317.92,-790.95 307.16,-791.91"/>
<polygon fill="#63b8ff" stroke="#63b8ff" points="340.24,-792.45 349.89,-788.07 339.61,-785.48 340.24,-792.45"/>
</a>
</g>
</g>
<!-- Node13&#45;&gt;Node2 -->
<g id="edge20_Node000013_Node000002" class="edge">
<title>Node13&#45;&gt;Node2</title>
<g id="a_edge20_Node000013_Node000002"><a xlink:title=" ">
<path fill="none" stroke="#63b8ff" d="M324.9,-908.93C333.12,-910.09 341.33,-911.14 349.25,-912 464.3,-924.49 493.53,-926 609.25,-926 1310.12,-926 1310.12,-926 1310.12,-926 1627.55,-926 1636.8,-334.53 1635.9,-228.25"/>
<polygon fill="#63b8ff" stroke="#63b8ff" points="325.64,-905.5 315.23,-907.52 324.62,-912.43 325.64,-905.5"/>
</a>
</g>
</g>
<!-- Node13&#45;&gt;Node9 -->
<g id="edge21_Node000013_Node000009" class="edge">
<title>Node13&#45;&gt;Node9</title>
<g id="a_edge21_Node000013_Node000009"><a xlink:title=" ">
<path fill="none" stroke="#63b8ff" d="M325.1,-905.2C459.26,-917.93 720.99,-922.82 888.5,-797 1119.49,-623.5 1269.13,-284.68 1301.51,-206.41"/>
<polygon fill="#63b8ff" stroke="#63b8ff" points="325.5,-901.72 315.21,-904.21 324.81,-908.68 325.5,-901.72"/>
</a>
</g>
</g>
<!-- Node15 -->
<g id="Node000015" class="node">
<title>Node15</title>
<g id="a_Node000015"><a xlink:href="class_properties_panel.html#adbc7f8deb3a687706dc44ebbd7e39d9d" target="_top" xlink:title=" ">
<polygon fill="white" stroke="#666666" points="127.75,-840 0,-840 0,-808 127.75,-808 127.75,-840"/>
<text xml:space="preserve" text-anchor="start" x="8" y="-826.5" font-family="Helvetica,sans-Serif" font-size="10.00">PropertiesPanel::populate</text>
<text xml:space="preserve" text-anchor="middle" x="63.88" y="-814.5" font-family="Helvetica,sans-Serif" font-size="10.00">ForConnection</text>
</a>
</g>
</g>
<!-- Node14&#45;&gt;Node15 -->
<g id="edge23_Node000014_Node000015" class="edge">
<title>Node14&#45;&gt;Node15</title>
<g id="a_edge23_Node000014_Node000015"><a xlink:title=" ">
<path fill="none" stroke="#63b8ff" d="M158.42,-809.91C148.29,-811.44 138.02,-812.98 128.18,-814.46"/>
<polygon fill="#63b8ff" stroke="#63b8ff" points="158.91,-813.38 168.27,-808.43 157.86,-806.46 158.91,-813.38"/>
</a>
</g>
</g>
<!-- Node15&#45;&gt;Node6 -->
<g id="edge24_Node000015_Node000006" class="edge">
<title>Node15&#45;&gt;Node6</title>
<g id="a_edge24_Node000015_Node000006"><a xlink:title=" ">
<path fill="none" stroke="#63b8ff" d="M139.22,-832.68C210.48,-840.24 321.12,-850 417.38,-850 611.25,-850 611.25,-850 611.25,-850 745.52,-850 790.18,-821.44 888.5,-730 943.87,-678.5 972.84,-587.58 981.32,-557.2"/>
<polygon fill="#63b8ff" stroke="#63b8ff" points="139.95,-829.24 129.64,-831.65 139.2,-836.2 139.95,-829.24"/>
</a>
</g>
</g>
<!-- Node17 -->
<g id="Node000017" class="node">
<title>Node17</title>
<g id="a_Node000017"><a xlink:href="class_properties_panel.html#a7bc224323f9c626842fdb6a89205c9bc" target="_top" xlink:title=" ">
<polygon fill="white" stroke="#666666" points="486.38,-338 350.38,-338 350.38,-306 486.38,-306 486.38,-338"/>
<text xml:space="preserve" text-anchor="start" x="358.38" y="-324.5" font-family="Helvetica,sans-Serif" font-size="10.00">PropertiesPanel::createLine</text>
<text xml:space="preserve" text-anchor="middle" x="418.38" y="-312.5" font-family="Helvetica,sans-Serif" font-size="10.00">EditPropertyItem</text>
</a>
</g>
</g>
<!-- Node16&#45;&gt;Node17 -->
<g id="edge26_Node000016_Node000017" class="edge">
<title>Node16&#45;&gt;Node17</title>
<g id="a_edge26_Node000016_Node000017"><a xlink:title=" ">
<path fill="none" stroke="#63b8ff" d="M574.88,-425.19C537.18,-400.18 477.61,-360.65 444.2,-338.48"/>
<polygon fill="#63b8ff" stroke="#63b8ff" points="572.9,-428.08 583.17,-430.69 576.77,-422.25 572.9,-428.08"/>
</a>
</g>
</g>
<!-- Node17&#45;&gt;Node9 -->
<g id="edge27_Node000017_Node000009" class="edge">
<title>Node17&#45;&gt;Node9</title>
<g id="a_edge27_Node000017_Node000009"><a xlink:title=" ">
<path fill="none" stroke="#63b8ff" d="M498.17,-330.39C592.61,-338.05 754.84,-343.54 888.5,-309 982.04,-284.83 988.68,-235.78 1081.5,-209 1135.18,-193.52 1198.76,-189.34 1244.89,-188.71"/>
<polygon fill="#63b8ff" stroke="#63b8ff" points="498.49,-326.91 488.23,-329.55 497.9,-333.88 498.49,-326.91"/>
</a>
</g>
</g>
<!-- Node18&#45;&gt;Node6 -->
<g id="edge30_Node000018_Node000006" class="edge">
<title>Node18&#45;&gt;Node6</title>
<g id="a_edge30_Node000018_Node000006"><a xlink:title=" ">
<path fill="none" stroke="#63b8ff" d="M499.22,-663.57C554.97,-667.67 630.94,-668.23 697,-658 785.14,-644.35 804.99,-629.33 888.5,-598 920.21,-586.1 956.55,-569.17 973.84,-557.41"/>
<polygon fill="#63b8ff" stroke="#63b8ff" points="499.75,-660.11 489.5,-662.8 499.19,-667.08 499.75,-660.11"/>
</a>
</g>
</g>
<!-- Node19 -->
<g id="Node000019" class="node">
<title>Node19</title>
<g id="a_Node000019"><a xlink:href="class_properties_panel.html#a9866823e02faefceaae94fc0b0537707" target="_top" xlink:title=" ">
<polygon fill="white" stroke="#666666" points="306.12,-666 170.88,-666 170.88,-634 306.12,-634 306.12,-666"/>
<text xml:space="preserve" text-anchor="start" x="178.88" y="-652.5" font-family="Helvetica,sans-Serif" font-size="10.00">PropertiesPanel::Properties</text>
<text xml:space="preserve" text-anchor="middle" x="238.5" y="-640.5" font-family="Helvetica,sans-Serif" font-size="10.00">Panel</text>
</a>
</g>
</g>
<!-- Node18&#45;&gt;Node19 -->
<g id="edge29_Node000018_Node000019" class="edge">
<title>Node18&#45;&gt;Node19</title>
<g id="a_edge29_Node000018_Node000019"><a xlink:title=" ">
<path fill="none" stroke="#63b8ff" d="M337.66,-650C327.26,-650 316.68,-650 306.52,-650"/>
<polygon fill="#63b8ff" stroke="#63b8ff" points="337.34,-653.5 347.34,-650 337.34,-646.5 337.34,-653.5"/>
</a>
</g>
</g>
<!-- Node20&#45;&gt;Node8 -->
<g id="edge32_Node000020_Node000008" class="edge">
<title>Node20&#45;&gt;Node8</title>
<g id="a_edge32_Node000020_Node000008"><a xlink:title=" ">
<path fill="none" stroke="#63b8ff" d="M762.44,-213.03C727.47,-197.52 680.51,-176.71 648.26,-162.41"/>
<polygon fill="#63b8ff" stroke="#63b8ff" points="760.93,-216.19 771.5,-217.04 763.77,-209.79 760.93,-216.19"/>
</a>
</g>
</g>
<!-- Node21&#45;&gt;Node10 -->
<g id="edge42_Node000021_Node000010" class="edge">
<title>Node21&#45;&gt;Node10</title>
<g id="a_edge42_Node000021_Node000010"><a xlink:title=" ">
<path fill="none" stroke="#63b8ff" d="M736.51,-555.42C678.49,-548.17 595.5,-536.77 523.5,-523 510.54,-520.52 496.75,-517.49 483.6,-514.41"/>
<polygon fill="#63b8ff" stroke="#63b8ff" points="735.92,-558.88 746.27,-556.63 736.78,-551.93 735.92,-558.88"/>
</a>
</g>
</g>
<!-- Node21&#45;&gt;Node12 -->
<g id="edge43_Node000021_Node000012" class="edge">
<title>Node21&#45;&gt;Node12</title>
<g id="a_edge43_Node000021_Node000012"><a xlink:title=" ">
<path fill="none" stroke="#63b8ff" d="M802.33,-591.34C789.08,-634.34 756.96,-716.8 697,-755 633.69,-795.33 545.27,-796.72 485.36,-791.54"/>
<polygon fill="#63b8ff" stroke="#63b8ff" points="805.68,-592.36 805.15,-581.78 798.96,-590.39 805.68,-592.36"/>
</a>
</g>
</g>
<!-- Node21&#45;&gt;Node16 -->
<g id="edge44_Node000021_Node000016" class="edge">
<title>Node21&#45;&gt;Node16</title>
<g id="a_edge44_Node000021_Node000016"><a xlink:title=" ">
<path fill="none" stroke="#63b8ff" d="M785.47,-539.58C763.92,-519.15 730.71,-490.61 697,-473 690.81,-469.77 684.15,-466.9 677.38,-464.37"/>
<polygon fill="#63b8ff" stroke="#63b8ff" points="782.97,-542.03 792.6,-546.46 787.83,-536.99 782.97,-542.03"/>
</a>
</g>
</g>
<!-- Node21&#45;&gt;Node18 -->
<g id="edge45_Node000021_Node000018" class="edge">
<title>Node21&#45;&gt;Node18</title>
<g id="a_edge45_Node000021_Node000018"><a xlink:title=" ">
<path fill="none" stroke="#63b8ff" d="M736.29,-566.26C677.64,-569.66 593.92,-578.1 523.5,-599 496.1,-607.13 467.06,-621.94 446.63,-633.51"/>
<polygon fill="#63b8ff" stroke="#63b8ff" points="736.37,-569.76 746.17,-565.73 735.99,-562.77 736.37,-569.76"/>
</a>
</g>
</g>
<!-- Node22 -->
<g id="Node000022" class="node">
<title>Node22</title>
<g id="a_Node000022"><a xlink:href="class_properties_panel.html#a74d22cd1ca119cda9cc4ca00b853e88d" target="_top" xlink:title=" ">
<polygon fill="white" stroke="#666666" points="688.38,-640 532.12,-640 532.12,-608 688.38,-608 688.38,-640"/>
<text xml:space="preserve" text-anchor="start" x="540.12" y="-626.5" font-family="Helvetica,sans-Serif" font-size="10.00">PropertiesPanel::handleAttribute</text>
<text xml:space="preserve" text-anchor="middle" x="610.25" y="-614.5" font-family="Helvetica,sans-Serif" font-size="10.00">PropertyChange</text>
</a>
</g>
</g>
<!-- Node21&#45;&gt;Node22 -->
<g id="edge34_Node000021_Node000022" class="edge">
<title>Node21&#45;&gt;Node22</title>
<g id="a_edge34_Node000021_Node000022"><a xlink:title=" ">
<path fill="none" stroke="#63b8ff" d="M744.53,-583.71C718.99,-591.43 690.02,-600.19 665.63,-607.56"/>
<polygon fill="#63b8ff" stroke="#63b8ff" points="745.24,-587.16 753.8,-580.91 743.21,-580.46 745.24,-587.16"/>
</a>
</g>
</g>
<!-- Node23 -->
<g id="Node000023" class="node">
<title>Node23</title>
<g id="a_Node000023"><a xlink:href="class_properties_panel.html#aa82a2245c62f66554f277c64e643252c" target="_top" xlink:title=" ">
<polygon fill="white" stroke="#666666" points="697,-746 523.5,-746 523.5,-714 697,-714 697,-746"/>
<text xml:space="preserve" text-anchor="start" x="531.5" y="-732.5" font-family="Helvetica,sans-Serif" font-size="10.00">PropertiesPanel::handleRelationship</text>
<text xml:space="preserve" text-anchor="middle" x="610.25" y="-720.5" font-family="Helvetica,sans-Serif" font-size="10.00">EndCardinalityChange</text>
</a>
</g>
</g>
<!-- Node21&#45;&gt;Node23 -->
<g id="edge38_Node000021_Node000023" class="edge">
<title>Node21&#45;&gt;Node23</title>
<g id="a_edge38_Node000021_Node000023"><a xlink:title=" ">
<path fill="none" stroke="#63b8ff" d="M781.7,-587.45C740.87,-621.61 666.06,-684.16 630.72,-713.72"/>
<polygon fill="#63b8ff" stroke="#63b8ff" points="783.77,-590.29 789.19,-581.19 779.28,-584.92 783.77,-590.29"/>
</a>
</g>
</g>
<!-- Node24 -->
<g id="Node000024" class="node">
<title>Node24</title>
<g id="a_Node000024"><a xlink:href="class_properties_panel.html#ac2741a5b2cb859b07534b8f7c786359b" target="_top" xlink:title=" ">
<polygon fill="white" stroke="#666666" points="697,-514 523.5,-514 523.5,-482 697,-482 697,-514"/>
<text xml:space="preserve" text-anchor="start" x="531.5" y="-500.5" font-family="Helvetica,sans-Serif" font-size="10.00">PropertiesPanel::handleRelationship</text>
<text xml:space="preserve" text-anchor="middle" x="610.25" y="-488.5" font-family="Helvetica,sans-Serif" font-size="10.00">EndParticipationChange</text>
</a>
</g>
</g>
<!-- Node21&#45;&gt;Node24 -->
<g id="edge40_Node000021_Node000024" class="edge">
<title>Node21&#45;&gt;Node24</title>
<g id="a_edge40_Node000021_Node000024"><a xlink:title=" ">
<path fill="none" stroke="#63b8ff" d="M749.53,-543.98C721.05,-534.51 687.48,-523.34 660.54,-514.39"/>
<polygon fill="#63b8ff" stroke="#63b8ff" points="748.14,-547.2 758.74,-547.04 750.35,-540.56 748.14,-547.2"/>
</a>
</g>
</g>
<!-- Node22&#45;&gt;Node10 -->
<g id="edge35_Node000022_Node000010" class="edge">
<title>Node22&#45;&gt;Node10</title>
<g id="a_edge35_Node000022_Node000010"><a xlink:title=" ">
<path fill="none" stroke="#63b8ff" d="M574.88,-601.19C537.18,-576.18 477.61,-536.65 444.2,-514.48"/>
<polygon fill="#63b8ff" stroke="#63b8ff" points="572.9,-604.08 583.17,-606.69 576.77,-598.25 572.9,-604.08"/>
</a>
</g>
</g>
<!-- Node22&#45;&gt;Node12 -->
<g id="edge36_Node000022_Node000012" class="edge">
<title>Node22&#45;&gt;Node12</title>
<g id="a_edge36_Node000022_Node000012"><a xlink:title=" ">
<path fill="none" stroke="#63b8ff" d="M580.9,-647.59C541.97,-679.99 472.97,-737.41 439.16,-765.54"/>
<polygon fill="#63b8ff" stroke="#63b8ff" points="583.03,-650.37 588.48,-641.28 578.56,-644.99 583.03,-650.37"/>
</a>
</g>
</g>
<!-- Node22&#45;&gt;Node18 -->
<g id="edge37_Node000022_Node000018" class="edge">
<title>Node22&#45;&gt;Node18</title>
<g id="a_edge37_Node000022_Node000018"><a xlink:title=" ">
<path fill="none" stroke="#63b8ff" d="M520.4,-636.17C509.44,-637.67 498.38,-639.18 487.8,-640.63"/>
<polygon fill="#63b8ff" stroke="#63b8ff" points="520.81,-639.64 530.25,-634.82 519.86,-632.71 520.81,-639.64"/>
</a>
</g>
</g>
<!-- Node23&#45;&gt;Node12 -->
<g id="edge39_Node000023_Node000012" class="edge">
<title>Node23&#45;&gt;Node12</title>
<g id="a_edge39_Node000023_Node000012"><a xlink:title=" ">
<path fill="none" stroke="#63b8ff" d="M538.27,-749.44C518.89,-754.75 498.09,-760.44 479.39,-765.56"/>
<polygon fill="#63b8ff" stroke="#63b8ff" points="538.99,-752.87 547.71,-746.85 537.14,-746.12 538.99,-752.87"/>
</a>
</g>
</g>
<!-- Node24&#45;&gt;Node10 -->
<g id="edge41_Node000024_Node000010" class="edge">
<title>Node24&#45;&gt;Node10</title>
<g id="a_edge41_Node000024_Node000010"><a xlink:title=" ">
<path fill="none" stroke="#63b8ff" d="M511.99,-498C502.44,-498 492.91,-498 483.81,-498"/>
<polygon fill="#63b8ff" stroke="#63b8ff" points="511.69,-501.5 521.69,-498 511.69,-494.5 511.69,-501.5"/>
</a>
</g>
</g>
</g>
</svg>
