<?xml version="1.0" encoding="UTF-8" standalone="no"?>
<!DOCTYPE svg PUBLIC "-//W3C//DTD SVG 1.1//EN"
 "http://www.w3.org/Graphics/SVG/1.1/DTD/svg11.dtd">
<!-- Generated by graphviz version 14.1.1 (20251213.1925)
 -->
<!-- Title: DiagramScene::updateConnectionControlPoint Pages: 1 -->
<svg width="1087pt" height="178pt"
 viewBox="0.00 0.00 1087.00 178.00" xmlns="http://www.w3.org/2000/svg" xmlns:xlink="http://www.w3.org/1999/xlink">
<g id="graph0" class="graph" transform="scale(1 1) rotate(0) translate(4 174)">
<title>DiagramScene::updateConnectionControlPoint</title>
<!-- Node1 -->
<g id="Node000001" class="node">
<title>Node1</title>
<g id="a_Node000001"><a xlink:title=" ">
<polygon fill="#999999" stroke="#666666" points="165.25,-79 0,-79 0,-47 165.25,-47 165.25,-79"/>
<text xml:space="preserve" text-anchor="start" x="8" y="-65.5" font-family="Helvetica,sans-Serif" font-size="10.00">DiagramScene::updateConnection</text>
<text xml:space="preserve" text-anchor="middle" x="82.62" y="-53.5" font-family="Helvetica,sans-Serif" font-size="10.00">ControlPoint</text>
</a>
</g>
</g>
<!-- Node2 -->
<g id="Node000002" class="node">
<title>Node2</title>
<g id="a_Node000002"><a xlink:href="class_connection_line.html#ac4df5ba24b4ce7ec2cd3c380677b686b" target="_top" xlink:title=" ">
<polygon fill="white" stroke="#666666" points="341,-104 201.25,-104 201.25,-72 341,-72 341,-104"/>
<text xml:space="preserve" text-anchor="start" x="209.25" y="-90.5" font-family="Helvetica,sans-Serif" font-size="10.00">ConnectionLine::setControl1</text>
<text xml:space="preserve" text-anchor="middle" x="271.12" y="-78.5" font-family="Helvetica,sans-Serif" font-size="10.00">Offset</text>
</a>
</g>
</g>
<!-- Node1&#45;&gt;Node2 -->
<g id="edge1_Node000001_Node000002" class="edge">
<title>Node1&#45;&gt;Node2</title>
<g id="a_edge1_Node000001_Node000002"><a xlink:title=" ">
<path fill="none" stroke="#63b8ff" d="M165.7,-74C173.58,-75.06 181.56,-76.13 189.43,-77.18"/>
<polygon fill="#63b8ff" stroke="#63b8ff" points="188.96,-80.65 199.34,-78.51 189.89,-73.71 188.96,-80.65"/>
</a>
</g>
</g>
<!-- Node11 -->
<g id="Node000011" class="node">
<title>Node11</title>
<g id="a_Node000011"><a xlink:href="class_connection_line.html#a30ed3d644d4d183ef6adf97110ac5bb5" target="_top" xlink:title=" ">
<polygon fill="white" stroke="#666666" points="341,-54 201.25,-54 201.25,-22 341,-22 341,-54"/>
<text xml:space="preserve" text-anchor="start" x="209.25" y="-40.5" font-family="Helvetica,sans-Serif" font-size="10.00">ConnectionLine::setControl2</text>
<text xml:space="preserve" text-anchor="middle" x="271.12" y="-28.5" font-family="Helvetica,sans-Serif" font-size="10.00">Offset</text>
</a>
</g>
</g>
<!-- Node1&#45;&gt;Node11 -->
<g id="edge12_Node000001_Node000011" class="edge">
<title>Node1&#45;&gt;Node11</title>
<g id="a_edge12_Node000001_Node000011"><a xlink:title=" ">
<path fill="none" stroke="#63b8ff" d="M165.7,-52C173.58,-50.94 181.56,-49.87 189.43,-48.82"/>
<polygon fill="#63b8ff" stroke="#63b8ff" points="189.89,-52.29 199.34,-47.49 188.96,-45.35 189.89,-52.29"/>
</a>
</g>
</g>
<!-- Node3 -->
<g id="Node000003" class="node">
<title>Node3</title>
<g id="a_Node000003"><a xlink:href="class_connection_line.html#a9de44ae385d7941f3aa79da06e97d510" target="_top" xlink:title=" ">
<polygon fill="white" stroke="#666666" points="518.62,-104 381.88,-104 381.88,-72 518.62,-72 518.62,-104"/>
<text xml:space="preserve" text-anchor="start" x="389.88" y="-90.5" font-family="Helvetica,sans-Serif" font-size="10.00">ConnectionLine::connection</text>
<text xml:space="preserve" text-anchor="middle" x="450.25" y="-78.5" font-family="Helvetica,sans-Serif" font-size="10.00">Changed</text>
</a>
</g>
</g>
<!-- Node2&#45;&gt;Node3 -->
<g id="edge2_Node000002_Node000003" class="edge">
<title>Node2&#45;&gt;Node3</title>
<g id="a_edge2_Node000002_Node000003"><a xlink:title=" ">
<path fill="none" stroke="#63b8ff" d="M341.37,-88C350.85,-88 360.65,-88 370.29,-88"/>
<polygon fill="#63b8ff" stroke="#63b8ff" points="370,-91.5 380,-88 370,-84.5 370,-91.5"/>
</a>
</g>
</g>
<!-- Node10 -->
<g id="Node000010" class="node">
<title>Node10</title>
<g id="a_Node000010"><a xlink:href="class_connection_line.html#a93e2b3868595cc0ac41de6c0f36c2365" target="_top" xlink:title=" ">
<polygon fill="white" stroke="#666666" points="523.5,-54 377,-54 377,-22 523.5,-22 523.5,-54"/>
<text xml:space="preserve" text-anchor="start" x="385" y="-40.5" font-family="Helvetica,sans-Serif" font-size="10.00">ConnectionLine::controlPoints</text>
<text xml:space="preserve" text-anchor="middle" x="450.25" y="-28.5" font-family="Helvetica,sans-Serif" font-size="10.00">Changed</text>
</a>
</g>
</g>
<!-- Node2&#45;&gt;Node10 -->
<g id="edge11_Node000002_Node000010" class="edge">
<title>Node2&#45;&gt;Node10</title>
<g id="a_edge11_Node000002_Node000010"><a xlink:title=" ">
<path fill="none" stroke="#63b8ff" d="M330.12,-71.63C346.1,-67.12 363.58,-62.18 380.12,-57.52"/>
<polygon fill="#63b8ff" stroke="#63b8ff" points="380.69,-60.99 389.36,-54.91 378.79,-54.25 380.69,-60.99"/>
</a>
</g>
</g>
<!-- Node4 -->
<g id="Node000004" class="node">
<title>Node4</title>
<g id="a_Node000004"><a xlink:href="class_connection_line.html#a657559dca679d5fd04ae565b442b6a8b" target="_top" xlink:title=" ">
<polygon fill="white" stroke="#666666" points="716.5,-98 559.5,-98 559.5,-78 716.5,-78 716.5,-98"/>
<text xml:space="preserve" text-anchor="middle" x="638" y="-84.5" font-family="Helvetica,sans-Serif" font-size="10.00">ConnectionLine::ConnectionLine</text>
</a>
</g>
</g>
<!-- Node3&#45;&gt;Node4 -->
<g id="edge3_Node000003_Node000004" class="edge">
<title>Node3&#45;&gt;Node4</title>
<g id="a_edge3_Node000003_Node000004"><a xlink:title=" ">
<path fill="none" stroke="#63b8ff" d="M519.1,-88C528.48,-88 538.24,-88 547.94,-88"/>
<polygon fill="#63b8ff" stroke="#63b8ff" points="547.76,-91.5 557.76,-88 547.76,-84.5 547.76,-91.5"/>
</a>
</g>
</g>
<!-- Node5 -->
<g id="Node000005" class="node">
<title>Node5</title>
<g id="a_Node000005"><a xlink:href="class_connection_line.html#a836aef7faf5a4fb8a5a10bfc71dbabe3" target="_top" xlink:title=" ">
<polygon fill="white" stroke="#666666" points="887,-104 752.5,-104 752.5,-72 887,-72 887,-104"/>
<text xml:space="preserve" text-anchor="start" x="760.5" y="-90.5" font-family="Helvetica,sans-Serif" font-size="10.00">ConnectionLine::connectTo</text>
<text xml:space="preserve" text-anchor="middle" x="819.75" y="-78.5" font-family="Helvetica,sans-Serif" font-size="10.00">Points</text>
</a>
</g>
</g>
<!-- Node4&#45;&gt;Node5 -->
<g id="edge4_Node000004_Node000005" class="edge">
<title>Node4&#45;&gt;Node5</title>
<g id="a_edge4_Node000004_Node000005"><a xlink:title=" ">
<path fill="none" stroke="#63b8ff" d="M716.8,-88C724.7,-88 732.73,-88 740.64,-88"/>
<polygon fill="#63b8ff" stroke="#63b8ff" points="740.6,-91.5 750.6,-88 740.6,-84.5 740.6,-91.5"/>
</a>
</g>
</g>
<!-- Node6 -->
<g id="Node000006" class="node">
<title>Node6</title>
<g id="a_Node000006"><a xlink:href="class_connection_line.html#a53c863c51a284a7a8e6b35bc34bd2d34" target="_top" xlink:title=" ">
<polygon fill="white" stroke="#666666" points="1075.5,-170 926,-170 926,-138 1075.5,-138 1075.5,-170"/>
<text xml:space="preserve" text-anchor="start" x="934" y="-156.5" font-family="Helvetica,sans-Serif" font-size="10.00">ConnectionLine::onConnection</text>
<text xml:space="preserve" text-anchor="middle" x="1000.75" y="-144.5" font-family="Helvetica,sans-Serif" font-size="10.00">PointChanged</text>
</a>
</g>
</g>
<!-- Node5&#45;&gt;Node6 -->
<g id="edge5_Node000005_Node000006" class="edge">
<title>Node5&#45;&gt;Node6</title>
<g id="a_edge5_Node000005_Node000006"><a xlink:title=" ">
<path fill="none" stroke="#63b8ff" d="M859.85,-104.38C878.8,-112.15 901.97,-121.37 923,-129 927.45,-130.61 932.05,-132.24 936.7,-133.84"/>
<polygon fill="#63b8ff" stroke="#63b8ff" points="935.54,-137.14 946.14,-137.03 937.79,-130.51 935.54,-137.14"/>
</a>
</g>
</g>
<!-- Node7 -->
<g id="Node000007" class="node">
<title>Node7</title>
<g id="a_Node000007"><a xlink:href="class_connection_line.html#a4bce34a3f2fb1fd7145de2d9100c9173" target="_top" xlink:title=" ">
<polygon fill="white" stroke="#666666" points="1068.75,-32 932.75,-32 932.75,0 1068.75,0 1068.75,-32"/>
<text xml:space="preserve" text-anchor="start" x="940.75" y="-18.5" font-family="Helvetica,sans-Serif" font-size="10.00">ConnectionLine::onElement</text>
<text xml:space="preserve" text-anchor="middle" x="1000.75" y="-6.5" font-family="Helvetica,sans-Serif" font-size="10.00">PositionChanged</text>
</a>
</g>
</g>
<!-- Node5&#45;&gt;Node7 -->
<g id="edge7_Node000005_Node000007" class="edge">
<title>Node5&#45;&gt;Node7</title>
<g id="a_edge7_Node000005_Node000007"><a xlink:title=" ">
<path fill="none" stroke="#63b8ff" d="M853.95,-71.55C873.75,-62.04 899.53,-50.18 923,-41 927.14,-39.38 931.43,-37.78 935.77,-36.22"/>
<polygon fill="#63b8ff" stroke="#63b8ff" points="936.91,-39.53 945.19,-32.92 934.59,-32.92 936.91,-39.53"/>
</a>
</g>
</g>
<!-- Node8 -->
<g id="Node000008" class="node">
<title>Node8</title>
<g id="a_Node000008"><a xlink:href="class_basic_element.html#a02183bafd7c80f9f1f99a9b9f1631524" target="_top" xlink:title=" ">
<polygon fill="white" stroke="#666666" points="1078.5,-120 923,-120 923,-100 1078.5,-100 1078.5,-120"/>
<text xml:space="preserve" text-anchor="middle" x="1000.75" y="-106.5" font-family="Helvetica,sans-Serif" font-size="10.00">BasicElement::positionChanged</text>
</a>
</g>
</g>
<!-- Node5&#45;&gt;Node8 -->
<g id="edge9_Node000005_Node000008" class="edge">
<title>Node5&#45;&gt;Node8</title>
<g id="a_edge9_Node000005_Node000008"><a xlink:title=" ">
<path fill="none" stroke="#63b8ff" d="M887.4,-96.19C895.24,-97.16 903.33,-98.15 911.4,-99.14"/>
<polygon fill="#63b8ff" stroke="#63b8ff" points="910.93,-102.61 921.28,-100.36 911.78,-95.66 910.93,-102.61"/>
</a>
</g>
</g>
<!-- Node9 -->
<g id="Node000009" class="node">
<title>Node9</title>
<g id="a_Node000009"><a xlink:href="class_connection_point.html#a851668ae19e97658f1818a40ea375f65" target="_top" xlink:title=" ">
<polygon fill="white" stroke="#666666" points="1063.5,-82 938,-82 938,-50 1063.5,-50 1063.5,-82"/>
<text xml:space="preserve" text-anchor="start" x="946" y="-68.5" font-family="Helvetica,sans-Serif" font-size="10.00">ConnectionPoint::relative</text>
<text xml:space="preserve" text-anchor="middle" x="1000.75" y="-56.5" font-family="Helvetica,sans-Serif" font-size="10.00">PositionChanged</text>
</a>
</g>
</g>
<!-- Node5&#45;&gt;Node9 -->
<g id="edge10_Node000005_Node000009" class="edge">
<title>Node5&#45;&gt;Node9</title>
<g id="a_edge10_Node000005_Node000009"><a xlink:title=" ">
<path fill="none" stroke="#63b8ff" d="M887.4,-79.81C900.16,-78.24 913.59,-76.59 926.55,-75"/>
<polygon fill="#63b8ff" stroke="#63b8ff" points="926.78,-78.49 936.28,-73.8 925.93,-71.55 926.78,-78.49"/>
</a>
</g>
</g>
<!-- Node6&#45;&gt;Node3 -->
<g id="edge6_Node000006_Node000003" class="edge">
<title>Node6&#45;&gt;Node3</title>
<g id="a_edge6_Node000006_Node000003"><a xlink:title=" ">
<path fill="none" stroke="#63b8ff" d="M925.56,-147.62C837.9,-139.72 687.75,-125.08 559.5,-107 549.96,-105.66 539.97,-104.1 530.08,-102.47"/>
<polygon fill="#63b8ff" stroke="#63b8ff" points="530.92,-99.07 520.48,-100.86 529.76,-105.97 530.92,-99.07"/>
</a>
</g>
</g>
<!-- Node7&#45;&gt;Node3 -->
<g id="edge8_Node000007_Node000003" class="edge">
<title>Node7&#45;&gt;Node3</title>
<g id="a_edge8_Node000007_Node000003"><a xlink:title=" ">
<path fill="none" stroke="#63b8ff" d="M932.47,-22.96C845.99,-32.17 691.25,-49.52 559.5,-69 549.97,-70.41 539.99,-72 530.1,-73.65"/>
<polygon fill="#63b8ff" stroke="#63b8ff" points="529.78,-70.16 520.5,-75.28 530.95,-77.06 529.78,-70.16"/>
</a>
</g>
</g>
<!-- Node11&#45;&gt;Node3 -->
<g id="edge13_Node000011_Node000003" class="edge">
<title>Node11&#45;&gt;Node3</title>
<g id="a_edge13_Node000011_Node000003"><a xlink:title=" ">
<path fill="none" stroke="#63b8ff" d="M330.12,-54.37C346.1,-58.88 363.58,-63.82 380.12,-68.48"/>
<polygon fill="#63b8ff" stroke="#63b8ff" points="378.79,-71.75 389.36,-71.09 380.69,-65.01 378.79,-71.75"/>
</a>
</g>
</g>
<!-- Node11&#45;&gt;Node10 -->
<g id="edge14_Node000011_Node000010" class="edge">
<title>Node11&#45;&gt;Node10</title>
<g id="a_edge14_Node000011_Node000010"><a xlink:title=" ">
<path fill="none" stroke="#63b8ff" d="M341.37,-38C349.22,-38 357.28,-38 365.29,-38"/>
<polygon fill="#63b8ff" stroke="#63b8ff" points="365.04,-41.5 375.04,-38 365.04,-34.5 365.04,-41.5"/>
</a>
</g>
</g>
</g>
</svg>
