<?xml version="1.0" encoding="UTF-8" standalone="no"?>
<!DOCTYPE svg PUBLIC "-//W3C//DTD SVG 1.1//EN"
 "http://www.w3.org/Graphics/SVG/1.1/DTD/svg11.dtd">
<!-- Generated by graphviz version 14.1.1 (20251213.1925)
 -->
<!-- Title: ConnectionLine::getStartPosition Pages: 1 -->
<svg width="479pt" height="165pt"
 viewBox="0.00 0.00 479.00 165.00" xmlns="http://www.w3.org/2000/svg" xmlns:xlink="http://www.w3.org/1999/xlink">
<g id="graph0" class="graph" transform="scale(1 1) rotate(0) translate(4 161)">
<title>ConnectionLine::getStartPosition</title>
<!-- Node1 -->
<g id="Node000001" class="node">
<title>Node1</title>
<g id="a_Node000001"><a xlink:title=" ">
<polygon fill="#999999" stroke="#666666" points="471,-107 347,-107 347,-75 471,-75 471,-107"/>
<text xml:space="preserve" text-anchor="start" x="355" y="-93.5" font-family="Helvetica,sans-Serif" font-size="10.00">ConnectionLine::getStart</text>
<text xml:space="preserve" text-anchor="middle" x="409" y="-81.5" font-family="Helvetica,sans-Serif" font-size="10.00">Position</text>
</a>
</g>
</g>
<!-- Node2 -->
<g id="Node000002" class="node">
<title>Node2</title>
<g id="a_Node000002"><a xlink:href="class_relationship_connection_line.html#ac28ef7637b655779039935347f4ddc23" target="_top" xlink:title=" ">
<polygon fill="white" stroke="#666666" points="311,-157 173.5,-157 173.5,-125 311,-125 311,-157"/>
<text xml:space="preserve" text-anchor="start" x="181.5" y="-143.5" font-family="Helvetica,sans-Serif" font-size="10.00">RelationshipConnectionLine</text>
<text xml:space="preserve" text-anchor="middle" x="242.25" y="-131.5" font-family="Helvetica,sans-Serif" font-size="10.00">::getCardinalityDragBounds</text>
</a>
</g>
</g>
<!-- Node1&#45;&gt;Node2 -->
<g id="edge1_Node000001_Node000002" class="edge">
<title>Node1&#45;&gt;Node2</title>
<g id="a_edge1_Node000001_Node000002"><a xlink:title=" ">
<path fill="none" stroke="#63b8ff" d="M343.23,-110.66C328.13,-115.24 312.2,-120.08 297.6,-124.51"/>
<polygon fill="#63b8ff" stroke="#63b8ff" points="344.05,-114.06 352.61,-107.81 342.02,-107.37 344.05,-114.06"/>
</a>
</g>
</g>
<!-- Node3 -->
<g id="Node000003" class="node">
<title>Node3</title>
<g id="a_Node000003"><a xlink:href="class_relationship_connection_line.html#aca1719d455dd0003fde92039bc03e21d" target="_top" xlink:title=" ">
<polygon fill="white" stroke="#666666" points="311,-107 173.5,-107 173.5,-75 311,-75 311,-107"/>
<text xml:space="preserve" text-anchor="start" x="181.5" y="-93.5" font-family="Helvetica,sans-Serif" font-size="10.00">RelationshipConnectionLine</text>
<text xml:space="preserve" text-anchor="middle" x="242.25" y="-81.5" font-family="Helvetica,sans-Serif" font-size="10.00">::getCardinalityPosition</text>
</a>
</g>
</g>
<!-- Node1&#45;&gt;Node3 -->
<g id="edge2_Node000001_Node000003" class="edge">
<title>Node1&#45;&gt;Node3</title>
<g id="a_edge2_Node000001_Node000003"><a xlink:title=" ">
<path fill="none" stroke="#63b8ff" d="M335.15,-91C327.22,-91 319.17,-91 311.29,-91"/>
<polygon fill="#63b8ff" stroke="#63b8ff" points="335.14,-94.5 345.14,-91 335.14,-87.5 335.14,-94.5"/>
</a>
</g>
</g>
<!-- Node4 -->
<g id="Node000004" class="node">
<title>Node4</title>
<g id="a_Node000004"><a xlink:href="class_relationship_connection_line.html#aa30d5092e409b8f272239e8e9b64717a" target="_top" xlink:title=" ">
<polygon fill="white" stroke="#666666" points="311,-57 173.5,-57 173.5,-25 311,-25 311,-57"/>
<text xml:space="preserve" text-anchor="start" x="181.5" y="-43.5" font-family="Helvetica,sans-Serif" font-size="10.00">RelationshipConnectionLine</text>
<text xml:space="preserve" text-anchor="middle" x="242.25" y="-31.5" font-family="Helvetica,sans-Serif" font-size="10.00">::isCardinalityOffsetValid</text>
</a>
</g>
</g>
<!-- Node1&#45;&gt;Node4 -->
<g id="edge3_Node000001_Node000004" class="edge">
<title>Node1&#45;&gt;Node4</title>
<g id="a_edge3_Node000001_Node000004"><a xlink:title=" ">
<path fill="none" stroke="#63b8ff" d="M343.23,-71.34C328.13,-66.76 312.2,-61.92 297.6,-57.49"/>
<polygon fill="#63b8ff" stroke="#63b8ff" points="342.02,-74.63 352.61,-74.19 344.05,-67.94 342.02,-74.63"/>
</a>
</g>
</g>
<!-- Node5 -->
<g id="Node000005" class="node">
<title>Node5</title>
<g id="a_Node000005"><a xlink:href="class_relationship_connection_line.html#ae096b0c8c07ce5d7d5bd8acfad489f1a" target="_top" xlink:title=" ">
<polygon fill="white" stroke="#666666" points="137.5,-82 0,-82 0,-50 137.5,-50 137.5,-82"/>
<text xml:space="preserve" text-anchor="start" x="8" y="-68.5" font-family="Helvetica,sans-Serif" font-size="10.00">RelationshipConnectionLine</text>
<text xml:space="preserve" text-anchor="middle" x="68.75" y="-56.5" font-family="Helvetica,sans-Serif" font-size="10.00">::deserialize</text>
</a>
</g>
</g>
<!-- Node4&#45;&gt;Node5 -->
<g id="edge4_Node000004_Node000005" class="edge">
<title>Node4&#45;&gt;Node5</title>
<g id="a_edge4_Node000004_Node000005"><a xlink:title=" ">
<path fill="none" stroke="#63b8ff" d="M162.11,-52.54C154.02,-53.72 145.84,-54.91 137.88,-56.07"/>
<polygon fill="#63b8ff" stroke="#63b8ff" points="162.58,-56 171.97,-51.1 161.57,-49.08 162.58,-56"/>
</a>
</g>
</g>
<!-- Node6 -->
<g id="Node000006" class="node">
<title>Node6</title>
<g id="a_Node000006"><a xlink:href="class_relationship_connection_line.html#a7d0bf30aa0fbd51b9a085894e445069d" target="_top" xlink:title=" ">
<polygon fill="white" stroke="#666666" points="137.5,-32 0,-32 0,0 137.5,0 137.5,-32"/>
<text xml:space="preserve" text-anchor="start" x="8" y="-18.5" font-family="Helvetica,sans-Serif" font-size="10.00">RelationshipConnectionLine</text>
<text xml:space="preserve" text-anchor="middle" x="68.75" y="-6.5" font-family="Helvetica,sans-Serif" font-size="10.00">::setCardinalityOffset</text>
</a>
</g>
</g>
<!-- Node4&#45;&gt;Node6 -->
<g id="edge5_Node000004_Node000006" class="edge">
<title>Node4&#45;&gt;Node6</title>
<g id="a_edge5_Node000004_Node000006"><a xlink:title=" ">
<path fill="none" stroke="#63b8ff" d="M162.11,-29.46C154.02,-28.28 145.84,-27.09 137.88,-25.93"/>
<polygon fill="#63b8ff" stroke="#63b8ff" points="161.57,-32.92 171.97,-30.9 162.58,-26 161.57,-32.92"/>
</a>
</g>
</g>
</g>
</svg>
