<?xml version="1.0" encoding="UTF-8" standalone="no"?>
<!DOCTYPE svg PUBLIC "-//W3C//DTD SVG 1.1//EN"
 "http://www.w3.org/Graphics/SVG/1.1/DTD/svg11.dtd">
<!-- Generated by graphviz version 14.1.1 (20251213.1925)
 -->
<!-- Title: PropertiesPanel::updatePropertyItemText Pages: 1 -->
<!--zoomable 726 -->

<svg id="main" version="1.1" xmlns="http://www.w3.org/2000/svg" xmlns:xlink="http://www.w3.org/1999/xlink" xml:space="preserve" onload="init(evt)">

<style type="text/css"><![CDATA[
.node, .edge {opacity: 0.7;}
.node.selected, .edge.selected {opacity: 1;}
.edge:hover path { stroke: red; }
.edge:hover polygon { stroke: red; fill: red; }
]]></style>

<defs>
  <circle id="rim" cx="0" cy="0" r="7"/>
  <circle id="rim2" cx="0" cy="0" r="3.5"/>
  <g id="zoomPlus">
    <use xlink:href="#rim" fill="#404040"><set attributeName="fill" to="#808080" begin="zoomplus.mouseover" end="zoomplus.mouseout"/></use>
    <path d="M-4,0h8M0,-4v8" fill="none" stroke="white" stroke-width="1.5" pointer-events="none"/>
  </g>
  <g id="zoomMin">
    <use xlink:href="#rim" fill="#404040"><set attributeName="fill" to="#808080" begin="zoomminus.mouseover" end="zoomminus.mouseout"/></use>
    <path d="M-4,0h8" fill="none" stroke="white" stroke-width="1.5" pointer-events="none"/>
  </g>
  <g id="arrowUp" transform="translate(30 24)">
    <use xlink:href="#rim"/>
    <path pointer-events="none" fill="none" stroke="white" stroke-width="1.5" d="M0,-3.0v7 M-2.5,-0.5L0,-3.0L2.5,-0.5"/>
  </g>
  <g id="arrowRight" transform="rotate(90) translate(36 -43)">
    <use xlink:href="#rim"/>
    <path pointer-events="none" fill="none" stroke="white" stroke-width="1.5" d="M0,-3.0v7 M-2.5,-0.5L0,-3.0L2.5,-0.5"/>
  </g>
  <g id="arrowDown" transform="rotate(180) translate(-30 -48)">
    <use xlink:href="#rim"/>
    <path pointer-events="none" fill="none" stroke="white" stroke-width="1.5" d="M0,-3.0v7 M-2.5,-0.5L0,-3.0L2.5,-0.5"/>
  </g>
  <g id="arrowLeft" transform="rotate(270) translate(-36 17)">
    <use xlink:href="#rim"/>
    <path pointer-events="none" fill="none" stroke="white" stroke-width="1.5" d="M0,-3.0v7 M-2.5,-0.5L0,-3.0L2.5,-0.5"/>
  </g>
  <g id="resetDef">
    <use xlink:href="#rim2" fill="#404040"><set attributeName="fill" to="#808080" begin="reset.mouseover" end="reset.mouseout"/></use>
  </g>
</defs>
<script type="application/ecmascript">
var viewWidth = 2089;
var viewHeight = 726;
var sectionId = 'dynsection-53';
</script>
<script type="application/ecmascript" xlink:href="svg.min.js"/>
<svg id="graph" class="graph">
<g id="viewport">
<title>PropertiesPanel::updatePropertyItemText</title>
<!-- Node1 -->
<g id="Node000001" class="node">
<title>Node1</title>
<g id="a_Node000001"><a xlink:title=" ">
<polygon fill="#999999" stroke="#666666" points="2081.25,-267 1924.25,-267 1924.25,-235 2081.25,-235 2081.25,-267"/>
<text xml:space="preserve" text-anchor="start" x="1932.25" y="-253.5" font-family="Helvetica,sans-Serif" font-size="10.00">PropertiesPanel::updateProperty</text>
<text xml:space="preserve" text-anchor="middle" x="2002.75" y="-241.5" font-family="Helvetica,sans-Serif" font-size="10.00">ItemText</text>
</a>
</g>
</g>
<!-- Node2 -->
<g id="Node000002" class="node">
<title>Node2</title>
<g id="a_Node000002"><a xlink:href="class_properties_panel.html#aec82450a3daeb2614c2321e37897f1dd" target="_top" xlink:title=" ">
<polygon fill="white" stroke="#666666" points="1888.25,-267 1755.25,-267 1755.25,-235 1888.25,-235 1888.25,-267"/>
<text xml:space="preserve" text-anchor="start" x="1763.25" y="-253.5" font-family="Helvetica,sans-Serif" font-size="10.00">PropertiesPanel::onCombo</text>
<text xml:space="preserve" text-anchor="middle" x="1821.75" y="-241.5" font-family="Helvetica,sans-Serif" font-size="10.00">BoxChanged</text>
</a>
</g>
</g>
<!-- Node1&#45;&gt;Node2 -->
<g id="edge1_Node000001_Node000002" class="edge">
<title>Node1&#45;&gt;Node2</title>
<g id="a_edge1_Node000001_Node000002"><a xlink:title=" ">
<path fill="none" stroke="#63b8ff" d="M1912.48,-251C1904.48,-251 1896.48,-251 1888.73,-251"/>
<polygon fill="#63b8ff" stroke="#63b8ff" points="1912.25,-254.5 1922.25,-251 1912.25,-247.5 1912.25,-254.5"/>
</a>
</g>
</g>
<!-- Node3 -->
<g id="Node000003" class="node">
<title>Node3</title>
<g id="a_Node000003"><a xlink:href="class_properties_panel.html#a8fd53ec3c9f711c3354483e8bb4d0b47" target="_top" xlink:title=" ">
<polygon fill="white" stroke="#666666" points="1719.25,-538 1569.75,-538 1569.75,-506 1719.25,-506 1719.25,-538"/>
<text xml:space="preserve" text-anchor="start" x="1577.75" y="-524.5" font-family="Helvetica,sans-Serif" font-size="10.00">PropertiesPanel::createCombo</text>
<text xml:space="preserve" text-anchor="middle" x="1644.5" y="-512.5" font-family="Helvetica,sans-Serif" font-size="10.00">BoxPropertyItem</text>
</a>
</g>
</g>
<!-- Node2&#45;&gt;Node3 -->
<g id="edge2_Node000002_Node000003" class="edge">
<title>Node2&#45;&gt;Node3</title>
<g id="a_edge2_Node000002_Node000003"><a xlink:title=" ">
<path fill="none" stroke="#63b8ff" d="M1804.25,-276.52C1768.67,-331.54 1685.58,-460.02 1656.1,-505.6"/>
<polygon fill="#63b8ff" stroke="#63b8ff" points="1807,-278.71 1809.49,-268.41 1801.12,-274.91 1807,-278.71"/>
</a>
</g>
</g>
<!-- Node23 -->
<g id="Node000023" class="node">
<title>Node23</title>
<g id="a_Node000023"><a xlink:href="class_properties_panel.html#a32c2dab00c58ffdcb6a1e3cd829d03c8" target="_top" xlink:title=" ">
<polygon fill="white" stroke="#666666" points="1712.88,-289 1576.12,-289 1576.12,-257 1712.88,-257 1712.88,-289"/>
<text xml:space="preserve" text-anchor="start" x="1584.12" y="-275.5" font-family="Helvetica,sans-Serif" font-size="10.00">PropertiesPanel::createIcon</text>
<text xml:space="preserve" text-anchor="middle" x="1644.5" y="-263.5" font-family="Helvetica,sans-Serif" font-size="10.00">ComboBoxPropertyItem</text>
</a>
</g>
</g>
<!-- Node2&#45;&gt;Node23 -->
<g id="edge45_Node000002_Node000023" class="edge">
<title>Node2&#45;&gt;Node23</title>
<g id="a_edge45_Node000002_Node000023"><a xlink:title=" ">
<path fill="none" stroke="#63b8ff" d="M1743.62,-260.68C1733.45,-261.96 1723.08,-263.26 1713.08,-264.52"/>
<polygon fill="#63b8ff" stroke="#63b8ff" points="1744.01,-264.16 1753.49,-259.44 1743.13,-257.22 1744.01,-264.16"/>
</a>
</g>
</g>
<!-- Node4 -->
<g id="Node000004" class="node">
<title>Node4</title>
<g id="a_Node000004"><a xlink:href="class_properties_panel.html#acc5a2b4e63ea74eaa34853f1cec46b81" target="_top" xlink:title=" ">
<polygon fill="white" stroke="#666666" points="1533.75,-604 1406,-604 1406,-572 1533.75,-572 1533.75,-604"/>
<text xml:space="preserve" text-anchor="start" x="1414" y="-590.5" font-family="Helvetica,sans-Serif" font-size="10.00">PropertiesPanel::populate</text>
<text xml:space="preserve" text-anchor="middle" x="1469.88" y="-578.5" font-family="Helvetica,sans-Serif" font-size="10.00">AttributeProperties</text>
</a>
</g>
</g>
<!-- Node3&#45;&gt;Node4 -->
<g id="edge3_Node000003_Node000004" class="edge">
<title>Node3&#45;&gt;Node4</title>
<g id="a_edge3_Node000003_Node000004"><a xlink:title=" ">
<path fill="none" stroke="#63b8ff" d="M1589.82,-542.52C1565.34,-551.88 1536.75,-562.81 1513.74,-571.61"/>
<polygon fill="#63b8ff" stroke="#63b8ff" points="1590.88,-545.87 1598.97,-539.02 1588.38,-539.33 1590.88,-545.87"/>
</a>
</g>
</g>
<!-- Node11 -->
<g id="Node000011" class="node">
<title>Node11</title>
<g id="a_Node000011"><a xlink:href="class_properties_panel.html#aeb116e2e51099f618b5d284e492bc0e2" target="_top" xlink:title=" ">
<polygon fill="white" stroke="#666666" points="1206.25,-538 1078.5,-538 1078.5,-506 1206.25,-506 1206.25,-538"/>
<text xml:space="preserve" text-anchor="start" x="1086.5" y="-524.5" font-family="Helvetica,sans-Serif" font-size="10.00">PropertiesPanel::populate</text>
<text xml:space="preserve" text-anchor="middle" x="1142.38" y="-512.5" font-family="Helvetica,sans-Serif" font-size="10.00">RelationshipProperties</text>
</a>
</g>
</g>
<!-- Node3&#45;&gt;Node11 -->
<g id="edge44_Node000003_Node000011" class="edge">
<title>Node3&#45;&gt;Node11</title>
<g id="a_edge44_Node000003_Node000011"><a xlink:title=" ">
<path fill="none" stroke="#63b8ff" d="M1558.2,-522C1458.49,-522 1295.82,-522 1206.69,-522"/>
<polygon fill="#63b8ff" stroke="#63b8ff" points="1557.92,-525.5 1567.92,-522 1557.92,-518.5 1557.92,-525.5"/>
</a>
</g>
</g>
<!-- Node5 -->
<g id="Node000005" class="node">
<title>Node5</title>
<g id="a_Node000005"><a xlink:href="class_properties_panel.html#a050a4a9040c7aeefde9c1377d2e1909e" target="_top" xlink:title=" ">
<polygon fill="white" stroke="#666666" points="1370,-626 1242.25,-626 1242.25,-594 1370,-594 1370,-626"/>
<text xml:space="preserve" text-anchor="start" x="1250.25" y="-612.5" font-family="Helvetica,sans-Serif" font-size="10.00">PropertiesPanel::populate</text>
<text xml:space="preserve" text-anchor="middle" x="1306.12" y="-600.5" font-family="Helvetica,sans-Serif" font-size="10.00">AttributeList</text>
</a>
</g>
</g>
<!-- Node4&#45;&gt;Node5 -->
<g id="edge4_Node000004_Node000005" class="edge">
<title>Node4&#45;&gt;Node5</title>
<g id="a_edge4_Node000004_Node000005"><a xlink:title=" ">
<path fill="none" stroke="#63b8ff" d="M1394.58,-591.37C1386.53,-592.42 1378.39,-593.57 1370.49,-594.77"/>
<polygon fill="#63b8ff" stroke="#63b8ff" points="1394.88,-594.86 1404.37,-590.15 1394.02,-587.92 1394.88,-594.86"/>
</a>
</g>
</g>
<!-- Node7 -->
<g id="Node000007" class="node">
<title>Node7</title>
<g id="a_Node000007"><a xlink:href="class_properties_panel.html#a037586f897062f3915a123b9f2a82b91" target="_top" xlink:title=" ">
<polygon fill="white" stroke="#666666" points="1042.5,-462 914.75,-462 914.75,-430 1042.5,-430 1042.5,-462"/>
<text xml:space="preserve" text-anchor="start" x="922.75" y="-448.5" font-family="Helvetica,sans-Serif" font-size="10.00">PropertiesPanel::populate</text>
<text xml:space="preserve" text-anchor="middle" x="978.62" y="-436.5" font-family="Helvetica,sans-Serif" font-size="10.00">ForElement</text>
</a>
</g>
</g>
<!-- Node4&#45;&gt;Node7 -->
<g id="edge43_Node000004_Node000007" class="edge">
<title>Node4&#45;&gt;Node7</title>
<g id="a_edge43_Node000004_Node000007"><a xlink:title=" ">
<path fill="none" stroke="#63b8ff" d="M1413.98,-567.74C1399.69,-562.54 1384.29,-557 1370,-552 1297.54,-526.64 1280.19,-517.68 1206.25,-497 1151.49,-481.69 1088.3,-467.77 1042.58,-458.36"/>
<polygon fill="#63b8ff" stroke="#63b8ff" points="1412.65,-570.97 1423.24,-571.11 1415.05,-564.4 1412.65,-570.97"/>
</a>
</g>
</g>
<!-- Node5&#45;&gt;Node4 -->
<g id="edge5_Node000005_Node000004" class="edge">
<title>Node5&#45;&gt;Node4</title>
<g id="a_edge5_Node000005_Node000004"><a xlink:title=" ">
<path fill="none" stroke="#63b8ff" d="M1381.78,-606.58C1389.84,-605.53 1397.98,-604.38 1405.88,-603.17"/>
<polygon fill="#63b8ff" stroke="#63b8ff" points="1381.48,-603.09 1371.99,-607.8 1382.34,-610.03 1381.48,-603.09"/>
</a>
</g>
</g>
<!-- Node6 -->
<g id="Node000006" class="node">
<title>Node6</title>
<g id="a_Node000006"><a xlink:href="class_properties_panel.html#a6a4344308af5b2c993bc25981529239c" target="_top" xlink:title=" ">
<polygon fill="white" stroke="#666666" points="315.5,-541 187.75,-541 187.75,-509 315.5,-509 315.5,-541"/>
<text xml:space="preserve" text-anchor="start" x="195.75" y="-527.5" font-family="Helvetica,sans-Serif" font-size="10.00">PropertiesPanel::populate</text>
<text xml:space="preserve" text-anchor="middle" x="251.62" y="-515.5" font-family="Helvetica,sans-Serif" font-size="10.00">EntityProperties</text>
</a>
</g>
</g>
<!-- Node5&#45;&gt;Node6 -->
<g id="edge6_Node000005_Node000006" class="edge">
<title>Node5&#45;&gt;Node6</title>
<g id="a_edge6_Node000005_Node000006"><a xlink:title=" ">
<path fill="none" stroke="#63b8ff" d="M1253.61,-630.29C1238.52,-635.66 1221.88,-641.06 1206.25,-645 1107.42,-669.89 1081.54,-680 979.62,-680 979.62,-680 979.62,-680 817.25,-680 609.63,-680 373.89,-581.33 287.06,-541.44"/>
<polygon fill="#63b8ff" stroke="#63b8ff" points="1254.66,-633.63 1262.86,-626.91 1252.27,-627.05 1254.66,-633.63"/>
</a>
</g>
</g>
<!-- Node5&#45;&gt;Node11 -->
<g id="edge42_Node000005_Node000011" class="edge">
<title>Node5&#45;&gt;Node11</title>
<g id="a_edge42_Node000005_Node000011"><a xlink:title=" ">
<path fill="none" stroke="#63b8ff" d="M1265.09,-588.22C1236.76,-572.81 1199.36,-552.46 1173.53,-538.41"/>
<polygon fill="#63b8ff" stroke="#63b8ff" points="1263.29,-591.23 1273.75,-592.93 1266.64,-585.08 1263.29,-591.23"/>
</a>
</g>
</g>
<!-- Node6&#45;&gt;Node7 -->
<g id="edge7_Node000006_Node000007" class="edge">
<title>Node6&#45;&gt;Node7</title>
<g id="a_edge7_Node000006_Node000007"><a xlink:title=" ">
<path fill="none" stroke="#63b8ff" d="M325.69,-506.01C336.07,-503.74 346.64,-501.64 356.75,-500 559.13,-467.09 802.1,-453.31 914.67,-448.38"/>
<polygon fill="#63b8ff" stroke="#63b8ff" points="324.99,-502.58 316.01,-508.2 326.54,-509.41 324.99,-502.58"/>
</a>
</g>
</g>
<!-- Node8 -->
<g id="Node000008" class="node">
<title>Node8</title>
<g id="a_Node000008"><a xlink:href="class_properties_panel.html#a139ae0158b486c6004e15e0ddf36f319" target="_top" xlink:title=" ">
<polygon fill="white" stroke="#666666" points="878.75,-306 757.75,-306 757.75,-286 878.75,-286 878.75,-306"/>
<text xml:space="preserve" text-anchor="middle" x="818.25" y="-292.5" font-family="Helvetica,sans-Serif" font-size="10.00">PropertiesPanel::refresh</text>
</a>
</g>
</g>
<!-- Node7&#45;&gt;Node8 -->
<g id="edge8_Node000007_Node000008" class="edge">
<title>Node7&#45;&gt;Node8</title>
<g id="a_edge8_Node000007_Node000008"><a xlink:title=" ">
<path fill="none" stroke="#63b8ff" d="M952.06,-421.79C916.96,-388.54 855.35,-330.19 830.3,-306.47"/>
<polygon fill="#63b8ff" stroke="#63b8ff" points="949.61,-424.29 959.28,-428.62 954.42,-419.2 949.61,-424.29"/>
</a>
</g>
</g>
<!-- Node8&#45;&gt;Node2 -->
<g id="edge20_Node000008_Node000002" class="edge">
<title>Node8&#45;&gt;Node2</title>
<g id="a_edge20_Node000008_Node000002"><a xlink:title=" ">
<path fill="none" stroke="#63b8ff" d="M890.51,-303.32C955.72,-309.38 1054.93,-317 1141.38,-317 1470.88,-317 1470.88,-317 1470.88,-317 1581.59,-317 1612.12,-325.93 1719.25,-298 1745.18,-291.24 1772.65,-278.11 1792.46,-267.44"/>
<polygon fill="#63b8ff" stroke="#63b8ff" points="890.93,-299.84 880.64,-302.39 890.27,-306.81 890.93,-299.84"/>
</a>
</g>
</g>
<!-- Node9 -->
<g id="Node000009" class="node">
<title>Node9</title>
<g id="a_Node000009"><a xlink:href="class_properties_panel.html#a55ae5c02e7d75c7bdc26281a148e8c5a" target="_top" xlink:title=" ">
<polygon fill="white" stroke="#666666" points="721.75,-424 566.25,-424 566.25,-392 721.75,-392 721.75,-424"/>
<text xml:space="preserve" text-anchor="start" x="574.25" y="-410.5" font-family="Helvetica,sans-Serif" font-size="10.00">PropertiesPanel::onAddAttribute</text>
<text xml:space="preserve" text-anchor="middle" x="644" y="-398.5" font-family="Helvetica,sans-Serif" font-size="10.00">OnTreeClicked</text>
</a>
</g>
</g>
<!-- Node8&#45;&gt;Node9 -->
<g id="edge9_Node000008_Node000009" class="edge">
<title>Node8&#45;&gt;Node9</title>
<g id="a_edge9_Node000008_Node000009"><a xlink:title=" ">
<path fill="none" stroke="#63b8ff" d="M801.16,-314.77C783.49,-334.31 753.38,-364.6 721.75,-383 716.3,-386.17 710.39,-389 704.36,-391.51"/>
<polygon fill="#63b8ff" stroke="#63b8ff" points="803.57,-317.32 807.58,-307.51 798.33,-312.68 803.57,-317.32"/>
</a>
</g>
</g>
<!-- Node12 -->
<g id="Node000012" class="node">
<title>Node12</title>
<g id="a_Node000012"><a xlink:href="class_properties_panel.html#a2800a2c7575a5fad6d923d9b64d982f8" target="_top" xlink:title=" ">
<polygon fill="white" stroke="#666666" points="316.62,-292 186.62,-292 186.62,-260 316.62,-260 316.62,-292"/>
<text xml:space="preserve" text-anchor="start" x="194.62" y="-278.5" font-family="Helvetica,sans-Serif" font-size="10.00">PropertiesPanel::onCheck</text>
<text xml:space="preserve" text-anchor="middle" x="251.62" y="-266.5" font-family="Helvetica,sans-Serif" font-size="10.00">BoxChanged</text>
</a>
</g>
</g>
<!-- Node8&#45;&gt;Node12 -->
<g id="edge16_Node000008_Node000012" class="edge">
<title>Node8&#45;&gt;Node12</title>
<g id="a_edge16_Node000008_Node000012"><a xlink:title=" ">
<path fill="none" stroke="#63b8ff" d="M746.2,-297.78C626.56,-300.62 394.2,-305.43 356.75,-301 341.61,-299.21 325.49,-296 310.56,-292.46"/>
<polygon fill="#63b8ff" stroke="#63b8ff" points="745.99,-301.28 755.91,-297.54 745.83,-294.28 745.99,-301.28"/>
</a>
</g>
</g>
<!-- Node14 -->
<g id="Node000014" class="node">
<title>Node14</title>
<g id="a_Node000014"><a xlink:href="class_properties_panel.html#aec8130201106284c02f21903b516554d" target="_top" xlink:title=" ">
<polygon fill="white" stroke="#666666" points="511.88,-380 375.12,-380 375.12,-348 511.88,-348 511.88,-380"/>
<text xml:space="preserve" text-anchor="start" x="383.12" y="-366.5" font-family="Helvetica,sans-Serif" font-size="10.00">PropertiesPanel::onLineEdit</text>
<text xml:space="preserve" text-anchor="middle" x="443.5" y="-354.5" font-family="Helvetica,sans-Serif" font-size="10.00">Changed</text>
</a>
</g>
</g>
<!-- Node8&#45;&gt;Node14 -->
<g id="edge21_Node000008_Node000014" class="edge">
<title>Node8&#45;&gt;Node14</title>
<g id="a_edge21_Node000008_Node000014"><a xlink:title=" ">
<path fill="none" stroke="#63b8ff" d="M746.25,-304.48C695.8,-310.99 626.58,-320.91 566.25,-333 545.83,-337.09 523.7,-342.45 503.98,-347.55"/>
<polygon fill="#63b8ff" stroke="#63b8ff" points="746.38,-308 755.86,-303.26 745.5,-301.05 746.38,-308"/>
</a>
</g>
</g>
<!-- Node16 -->
<g id="Node000016" class="node">
<title>Node16</title>
<g id="a_Node000016"><a xlink:href="class_properties_panel.html#a3cdc065abcd2f9e59558903073c0f23f" target="_top" xlink:title=" ">
<polygon fill="white" stroke="#666666" points="320.75,-112 182.5,-112 182.5,-80 320.75,-80 320.75,-112"/>
<text xml:space="preserve" text-anchor="start" x="190.5" y="-98.5" font-family="Helvetica,sans-Serif" font-size="10.00">PropertiesPanel::onProperty</text>
<text xml:space="preserve" text-anchor="middle" x="251.62" y="-86.5" font-family="Helvetica,sans-Serif" font-size="10.00">ValueChanged</text>
</a>
</g>
</g>
<!-- Node8&#45;&gt;Node16 -->
<g id="edge24_Node000008_Node000016" class="edge">
<title>Node8&#45;&gt;Node16</title>
<g id="a_edge24_Node000008_Node000016"><a xlink:title=" ">
<path fill="none" stroke="#63b8ff" d="M804.78,-276.65C768.25,-228.34 656.1,-105.17 530.25,-66 446.02,-39.78 340.79,-61.62 287.31,-79.58"/>
<polygon fill="#63b8ff" stroke="#63b8ff" points="801.81,-278.5 810.52,-284.54 807.47,-274.39 801.81,-278.5"/>
</a>
</g>
</g>
<!-- Node18 -->
<g id="Node000018" class="node">
<title>Node18</title>
<g id="a_Node000018"><a xlink:href="class_properties_panel.html#a8a2ec0bcba44f3bbd0245d3a53ff49f7" target="_top" xlink:title=" ">
<polygon fill="white" stroke="#666666" points="713.12,-374 574.88,-374 574.88,-342 713.12,-342 713.12,-374"/>
<text xml:space="preserve" text-anchor="start" x="582.88" y="-360.5" font-family="Helvetica,sans-Serif" font-size="10.00">PropertiesPanel::onRemove</text>
<text xml:space="preserve" text-anchor="middle" x="644" y="-348.5" font-family="Helvetica,sans-Serif" font-size="10.00">AttributeOnTreeClicked</text>
</a>
</g>
</g>
<!-- Node8&#45;&gt;Node18 -->
<g id="edge27_Node000008_Node000018" class="edge">
<title>Node8&#45;&gt;Node18</title>
<g id="a_edge27_Node000008_Node000018"><a xlink:title=" ">
<path fill="none" stroke="#63b8ff" d="M777.85,-310.18C751.94,-319.51 717.93,-331.75 690.8,-341.51"/>
<polygon fill="#63b8ff" stroke="#63b8ff" points="778.77,-313.57 787,-306.89 776.4,-306.98 778.77,-313.57"/>
</a>
</g>
</g>
<!-- Node19 -->
<g id="Node000019" class="node">
<title>Node19</title>
<g id="a_Node000019"><a xlink:href="class_properties_panel.html#a79618c5c820a40931c085d54be70bd34" target="_top" xlink:title=" ">
<polygon fill="white" stroke="#666666" points="706.75,-248 581.25,-248 581.25,-216 706.75,-216 706.75,-248"/>
<text xml:space="preserve" text-anchor="start" x="589.25" y="-234.5" font-family="Helvetica,sans-Serif" font-size="10.00">PropertiesPanel::updates</text>
<text xml:space="preserve" text-anchor="middle" x="644" y="-222.5" font-family="Helvetica,sans-Serif" font-size="10.00">AfterChangingProperty</text>
</a>
</g>
</g>
<!-- Node8&#45;&gt;Node19 -->
<g id="edge29_Node000008_Node000019" class="edge">
<title>Node8&#45;&gt;Node19</title>
<g id="a_edge29_Node000008_Node000019"><a xlink:title=" ">
<path fill="none" stroke="#63b8ff" d="M778.41,-281.57C751.92,-271.73 716.78,-258.67 689.21,-248.43"/>
<polygon fill="#63b8ff" stroke="#63b8ff" points="777.18,-284.85 787.77,-285.05 779.62,-278.28 777.18,-284.85"/>
</a>
</g>
</g>
<!-- Node10 -->
<g id="Node000010" class="node">
<title>Node10</title>
<g id="a_Node000010"><a xlink:href="class_properties_panel.html#a90cca2a241daa84841ee3e90d7768c8f" target="_top" xlink:title=" ">
<polygon fill="white" stroke="#666666" points="516.75,-541 370.25,-541 370.25,-509 516.75,-509 516.75,-541"/>
<text xml:space="preserve" text-anchor="start" x="378.25" y="-527.5" font-family="Helvetica,sans-Serif" font-size="10.00">PropertiesPanel::createButton</text>
<text xml:space="preserve" text-anchor="middle" x="443.5" y="-515.5" font-family="Helvetica,sans-Serif" font-size="10.00">PropertyItem</text>
</a>
</g>
</g>
<!-- Node9&#45;&gt;Node10 -->
<g id="edge10_Node000009_Node000010" class="edge">
<title>Node9&#45;&gt;Node10</title>
<g id="a_edge10_Node000009_Node000010"><a xlink:title=" ">
<path fill="none" stroke="#63b8ff" d="M605.53,-430.09C566.7,-452.97 506.94,-488.2 472.19,-508.68"/>
<polygon fill="#63b8ff" stroke="#63b8ff" points="607.26,-433.13 614.1,-425.04 603.7,-427.1 607.26,-433.13"/>
</a>
</g>
</g>
<!-- Node10&#45;&gt;Node4 -->
<g id="edge12_Node000010_Node000004" class="edge">
<title>Node10&#45;&gt;Node4</title>
<g id="a_edge12_Node000010_Node000004"><a xlink:title=" ">
<path fill="none" stroke="#63b8ff" d="M528.39,-539.54C603.75,-551.33 717.55,-566 817.25,-566 1143.38,-566 1143.38,-566 1143.38,-566 1234.71,-566 1340.12,-574.73 1405.65,-581.19"/>
<polygon fill="#63b8ff" stroke="#63b8ff" points="529.01,-536.09 518.59,-537.98 527.92,-543.01 529.01,-536.09"/>
</a>
</g>
</g>
<!-- Node10&#45;&gt;Node5 -->
<g id="edge11_Node000010_Node000005" class="edge">
<title>Node10&#45;&gt;Node5</title>
<g id="a_edge11_Node000010_Node000005"><a xlink:title=" ">
<path fill="none" stroke="#63b8ff" d="M509.12,-545.47C516.37,-548.39 523.55,-551.58 530.25,-555 547.6,-563.85 548.5,-571.98 566.25,-580 670.96,-627.33 702.34,-642 817.25,-642 979.62,-642 979.62,-642 979.62,-642 1071.19,-642 1176.55,-629.3 1241.99,-619.91"/>
<polygon fill="#63b8ff" stroke="#63b8ff" points="510.5,-542.25 499.91,-541.93 507.98,-548.79 510.5,-542.25"/>
</a>
</g>
</g>
<!-- Node10&#45;&gt;Node6 -->
<g id="edge13_Node000010_Node000006" class="edge">
<title>Node10&#45;&gt;Node6</title>
<g id="a_edge13_Node000010_Node000006"><a xlink:title=" ">
<path fill="none" stroke="#63b8ff" d="M358.52,-525C344.2,-525 329.54,-525 315.88,-525"/>
<polygon fill="#63b8ff" stroke="#63b8ff" points="358.39,-528.5 368.39,-525 358.39,-521.5 358.39,-528.5"/>
</a>
</g>
</g>
<!-- Node10&#45;&gt;Node11 -->
<g id="edge14_Node000010_Node000011" class="edge">
<title>Node10&#45;&gt;Node11</title>
<g id="a_edge14_Node000010_Node000011"><a xlink:title=" ">
<path fill="none" stroke="#63b8ff" d="M528.16,-524.64C669.47,-524.03 952.3,-522.81 1078.3,-522.27"/>
<polygon fill="#63b8ff" stroke="#63b8ff" points="528.5,-521.14 518.51,-524.68 528.53,-528.14 528.5,-521.14"/>
</a>
</g>
</g>
<!-- Node11&#45;&gt;Node7 -->
<g id="edge15_Node000011_Node000007" class="edge">
<title>Node11&#45;&gt;Node7</title>
<g id="a_edge15_Node000011_Node000007"><a xlink:title=" ">
<path fill="none" stroke="#63b8ff" d="M1096.01,-500.68C1070.24,-488.58 1038.48,-473.66 1014.65,-462.46"/>
<polygon fill="#63b8ff" stroke="#63b8ff" points="1094.37,-503.78 1104.91,-504.87 1097.35,-497.45 1094.37,-503.78"/>
</a>
</g>
</g>
<!-- Node13 -->
<g id="Node000013" class="node">
<title>Node13</title>
<g id="a_Node000013"><a xlink:href="class_properties_panel.html#acfb41226221624e46767835caeea8abc" target="_top" xlink:title=" ">
<polygon fill="white" stroke="#666666" points="146.5,-623 0,-623 0,-591 146.5,-591 146.5,-623"/>
<text xml:space="preserve" text-anchor="start" x="8" y="-609.5" font-family="Helvetica,sans-Serif" font-size="10.00">PropertiesPanel::createCheck</text>
<text xml:space="preserve" text-anchor="middle" x="73.25" y="-597.5" font-family="Helvetica,sans-Serif" font-size="10.00">BoxPropertyItem</text>
</a>
</g>
</g>
<!-- Node12&#45;&gt;Node13 -->
<g id="edge17_Node000012_Node000013" class="edge">
<title>Node12&#45;&gt;Node13</title>
<g id="a_edge17_Node000012_Node000013"><a xlink:title=" ">
<path fill="none" stroke="#63b8ff" d="M230.54,-301.16C216.17,-319.81 196.91,-346.19 182.5,-371 136.66,-449.94 95.61,-551.66 80.45,-590.73"/>
<polygon fill="#63b8ff" stroke="#63b8ff" points="233.24,-303.4 236.63,-293.36 227.72,-299.09 233.24,-303.4"/>
</a>
</g>
</g>
<!-- Node13&#45;&gt;Node4 -->
<g id="edge18_Node000013_Node000004" class="edge">
<title>Node13&#45;&gt;Node4</title>
<g id="a_edge18_Node000013_Node000004"><a xlink:title=" ">
<path fill="none" stroke="#63b8ff" d="M115.93,-628.32C182.93,-660.56 319.54,-718 442.5,-718 1143.38,-718 1143.38,-718 1143.38,-718 1264.47,-718 1393.99,-639.45 1445.66,-604.46"/>
<polygon fill="#63b8ff" stroke="#63b8ff" points="117.67,-625.28 107.15,-624.04 114.61,-631.57 117.67,-625.28"/>
</a>
</g>
</g>
<!-- Node13&#45;&gt;Node11 -->
<g id="edge19_Node000013_Node000011" class="edge">
<title>Node13&#45;&gt;Node11</title>
<g id="a_edge19_Node000013_Node000011"><a xlink:title=" ">
<path fill="none" stroke="#63b8ff" d="M158.26,-603.83C326.57,-596.84 716.89,-577.4 1042.5,-537 1054.04,-535.57 1066.32,-533.86 1078.15,-532.11"/>
<polygon fill="#63b8ff" stroke="#63b8ff" points="158.13,-600.33 148.28,-604.24 158.42,-607.33 158.13,-600.33"/>
</a>
</g>
</g>
<!-- Node15 -->
<g id="Node000015" class="node">
<title>Node15</title>
<g id="a_Node000015"><a xlink:href="class_properties_panel.html#a7bc224323f9c626842fdb6a89205c9bc" target="_top" xlink:title=" ">
<polygon fill="white" stroke="#666666" points="319.62,-412 183.62,-412 183.62,-380 319.62,-380 319.62,-412"/>
<text xml:space="preserve" text-anchor="start" x="191.62" y="-398.5" font-family="Helvetica,sans-Serif" font-size="10.00">PropertiesPanel::createLine</text>
<text xml:space="preserve" text-anchor="middle" x="251.62" y="-386.5" font-family="Helvetica,sans-Serif" font-size="10.00">EditPropertyItem</text>
</a>
</g>
</g>
<!-- Node14&#45;&gt;Node15 -->
<g id="edge22_Node000014_Node000015" class="edge">
<title>Node14&#45;&gt;Node15</title>
<g id="a_edge22_Node000014_Node000015"><a xlink:title=" ">
<path fill="none" stroke="#63b8ff" d="M363.77,-377.27C349.24,-379.72 334.18,-382.25 320.02,-384.64"/>
<polygon fill="#63b8ff" stroke="#63b8ff" points="363.98,-380.78 373.26,-375.67 362.82,-373.88 363.98,-380.78"/>
</a>
</g>
</g>
<!-- Node15&#45;&gt;Node11 -->
<g id="edge23_Node000015_Node000011" class="edge">
<title>Node15&#45;&gt;Node11</title>
<g id="a_edge23_Node000015_Node000011"><a xlink:title=" ">
<path fill="none" stroke="#63b8ff" d="M331.38,-407.17C505.38,-431.83 919.64,-490.56 1078.17,-513.04"/>
<polygon fill="#63b8ff" stroke="#63b8ff" points="331.92,-403.71 321.52,-405.77 330.93,-410.64 331.92,-403.71"/>
</a>
</g>
</g>
<!-- Node16&#45;&gt;Node8 -->
<g id="edge26_Node000016_Node000008" class="edge">
<title>Node16&#45;&gt;Node8</title>
<g id="a_edge26_Node000016_Node000008"><a xlink:title=" ">
<path fill="none" stroke="#63b8ff" d="M331.99,-82.15C388.49,-72.07 465.56,-63.87 530.25,-84 656.95,-123.44 769.76,-248 805.51,-285.53"/>
<polygon fill="#63b8ff" stroke="#63b8ff" points="331.66,-78.65 322.46,-83.9 332.93,-85.53 331.66,-78.65"/>
</a>
</g>
</g>
<!-- Node17 -->
<g id="Node000017" class="node">
<title>Node17</title>
<g id="a_Node000017"><a xlink:href="class_properties_panel.html#a9866823e02faefceaae94fc0b0537707" target="_top" xlink:title=" ">
<polygon fill="white" stroke="#666666" points="140.88,-112 5.62,-112 5.62,-80 140.88,-80 140.88,-112"/>
<text xml:space="preserve" text-anchor="start" x="13.62" y="-98.5" font-family="Helvetica,sans-Serif" font-size="10.00">PropertiesPanel::Properties</text>
<text xml:space="preserve" text-anchor="middle" x="73.25" y="-86.5" font-family="Helvetica,sans-Serif" font-size="10.00">Panel</text>
</a>
</g>
</g>
<!-- Node16&#45;&gt;Node17 -->
<g id="edge25_Node000016_Node000017" class="edge">
<title>Node16&#45;&gt;Node17</title>
<g id="a_edge25_Node000016_Node000017"><a xlink:title=" ">
<path fill="none" stroke="#63b8ff" d="M170.7,-96C160.84,-96 150.84,-96 141.21,-96"/>
<polygon fill="#63b8ff" stroke="#63b8ff" points="170.67,-99.5 180.67,-96 170.67,-92.5 170.67,-99.5"/>
</a>
</g>
</g>
<!-- Node18&#45;&gt;Node10 -->
<g id="edge28_Node000018_Node000010" class="edge">
<title>Node18&#45;&gt;Node10</title>
<g id="a_edge28_Node000018_Node000010"><a xlink:title=" ">
<path fill="none" stroke="#63b8ff" d="M571.94,-379.49C569.99,-380.61 568.09,-381.77 566.25,-383 514.66,-417.43 472.28,-479.53 454.08,-508.84"/>
<polygon fill="#63b8ff" stroke="#63b8ff" points="573.36,-382.69 580.68,-375.04 570.18,-376.46 573.36,-382.69"/>
</a>
</g>
</g>
<!-- Node19&#45;&gt;Node2 -->
<g id="edge39_Node000019_Node000002" class="edge">
<title>Node19&#45;&gt;Node2</title>
<g id="a_edge39_Node000019_Node000002"><a xlink:title=" ">
<path fill="none" stroke="#63b8ff" d="M718.56,-230.96C785.96,-230.09 888.5,-229 977.62,-229 1470.88,-229 1470.88,-229 1470.88,-229 1570.08,-229 1684.8,-237.92 1755.05,-244.4"/>
<polygon fill="#63b8ff" stroke="#63b8ff" points="718.69,-227.45 708.74,-231.08 718.78,-234.45 718.69,-227.45"/>
</a>
</g>
</g>
<!-- Node19&#45;&gt;Node12 -->
<g id="edge38_Node000019_Node000012" class="edge">
<title>Node19&#45;&gt;Node12</title>
<g id="a_edge38_Node000019_Node000012"><a xlink:title=" ">
<path fill="none" stroke="#63b8ff" d="M569.7,-233.45C511.65,-235.42 428.65,-240.06 356.75,-251 342.69,-253.14 327.73,-256.23 313.67,-259.52"/>
<polygon fill="#63b8ff" stroke="#63b8ff" points="569.57,-236.96 579.46,-233.14 569.35,-229.96 569.57,-236.96"/>
</a>
</g>
</g>
<!-- Node19&#45;&gt;Node14 -->
<g id="edge40_Node000019_Node000014" class="edge">
<title>Node19&#45;&gt;Node14</title>
<g id="a_edge40_Node000019_Node000014"><a xlink:title=" ">
<path fill="none" stroke="#63b8ff" d="M608.72,-254.79C568.96,-281.23 504.4,-324.17 469.24,-347.55"/>
<polygon fill="#63b8ff" stroke="#63b8ff" points="610.61,-257.74 617,-249.29 606.74,-251.91 610.61,-257.74"/>
</a>
</g>
</g>
<!-- Node19&#45;&gt;Node16 -->
<g id="edge41_Node000019_Node000016" class="edge">
<title>Node19&#45;&gt;Node16</title>
<g id="a_edge41_Node000019_Node000016"><a xlink:title=" ">
<path fill="none" stroke="#63b8ff" d="M611.89,-209.03C590.05,-193.91 559.61,-174.81 530.25,-163 457.01,-133.54 433.36,-144.04 356.75,-125 341.36,-121.18 324.79,-116.72 309.49,-112.46"/>
<polygon fill="#63b8ff" stroke="#63b8ff" points="609.86,-211.88 620.05,-214.78 613.89,-206.16 609.86,-211.88"/>
</a>
</g>
</g>
<!-- Node20 -->
<g id="Node000020" class="node">
<title>Node20</title>
<g id="a_Node000020"><a xlink:href="class_properties_panel.html#a74d22cd1ca119cda9cc4ca00b853e88d" target="_top" xlink:title=" ">
<polygon fill="white" stroke="#666666" points="521.62,-204 365.38,-204 365.38,-172 521.62,-172 521.62,-204"/>
<text xml:space="preserve" text-anchor="start" x="373.38" y="-190.5" font-family="Helvetica,sans-Serif" font-size="10.00">PropertiesPanel::handleAttribute</text>
<text xml:space="preserve" text-anchor="middle" x="443.5" y="-178.5" font-family="Helvetica,sans-Serif" font-size="10.00">PropertyChange</text>
</a>
</g>
</g>
<!-- Node19&#45;&gt;Node20 -->
<g id="edge30_Node000019_Node000020" class="edge">
<title>Node19&#45;&gt;Node20</title>
<g id="a_edge30_Node000019_Node000020"><a xlink:title=" ">
<path fill="none" stroke="#63b8ff" d="M570.2,-215.86C553.49,-212.16 535.69,-208.21 518.9,-204.49"/>
<polygon fill="#63b8ff" stroke="#63b8ff" points="569.01,-219.18 579.53,-217.93 570.53,-212.35 569.01,-219.18"/>
</a>
</g>
</g>
<!-- Node21 -->
<g id="Node000021" class="node">
<title>Node21</title>
<g id="a_Node000021"><a xlink:href="class_properties_panel.html#aa82a2245c62f66554f277c64e643252c" target="_top" xlink:title=" ">
<polygon fill="white" stroke="#666666" points="530.25,-116 356.75,-116 356.75,-84 530.25,-84 530.25,-116"/>
<text xml:space="preserve" text-anchor="start" x="364.75" y="-102.5" font-family="Helvetica,sans-Serif" font-size="10.00">PropertiesPanel::handleRelationship</text>
<text xml:space="preserve" text-anchor="middle" x="443.5" y="-90.5" font-family="Helvetica,sans-Serif" font-size="10.00">EndCardinalityChange</text>
</a>
</g>
</g>
<!-- Node19&#45;&gt;Node21 -->
<g id="edge34_Node000019_Node000021" class="edge">
<title>Node19&#45;&gt;Node21</title>
<g id="a_edge34_Node000019_Node000021"><a xlink:title=" ">
<path fill="none" stroke="#63b8ff" d="M621.14,-207.21C599.89,-184.41 565.71,-151.06 530.25,-130 521.44,-124.76 511.57,-120.25 501.75,-116.44"/>
<polygon fill="#63b8ff" stroke="#63b8ff" points="618.53,-209.54 627.87,-214.55 623.7,-204.82 618.53,-209.54"/>
</a>
</g>
</g>
<!-- Node22 -->
<g id="Node000022" class="node">
<title>Node22</title>
<g id="a_Node000022"><a xlink:href="class_properties_panel.html#ac2741a5b2cb859b07534b8f7c786359b" target="_top" xlink:title=" ">
<polygon fill="white" stroke="#666666" points="530.25,-292 356.75,-292 356.75,-260 530.25,-260 530.25,-292"/>
<text xml:space="preserve" text-anchor="start" x="364.75" y="-278.5" font-family="Helvetica,sans-Serif" font-size="10.00">PropertiesPanel::handleRelationship</text>
<text xml:space="preserve" text-anchor="middle" x="443.5" y="-266.5" font-family="Helvetica,sans-Serif" font-size="10.00">EndParticipationChange</text>
</a>
</g>
</g>
<!-- Node19&#45;&gt;Node22 -->
<g id="edge36_Node000019_Node000022" class="edge">
<title>Node19&#45;&gt;Node22</title>
<g id="a_edge36_Node000019_Node000022"><a xlink:title=" ">
<path fill="none" stroke="#63b8ff" d="M570.2,-248.14C553.49,-251.84 535.69,-255.79 518.9,-259.51"/>
<polygon fill="#63b8ff" stroke="#63b8ff" points="570.53,-251.65 579.53,-246.07 569.01,-244.82 570.53,-251.65"/>
</a>
</g>
</g>
<!-- Node20&#45;&gt;Node2 -->
<g id="edge32_Node000020_Node000002" class="edge">
<title>Node20&#45;&gt;Node2</title>
<g id="a_edge32_Node000020_Node000002"><a xlink:title=" ">
<path fill="none" stroke="#63b8ff" d="M533.3,-188C608.82,-188 720.15,-188 817.25,-188 1470.88,-188 1470.88,-188 1470.88,-188 1575.95,-188 1696.01,-215.86 1764.65,-234.53"/>
<polygon fill="#63b8ff" stroke="#63b8ff" points="533.47,-184.5 523.47,-188 533.47,-191.5 533.47,-184.5"/>
</a>
</g>
</g>
<!-- Node20&#45;&gt;Node12 -->
<g id="edge31_Node000020_Node000012" class="edge">
<title>Node20&#45;&gt;Node12</title>
<g id="a_edge31_Node000020_Node000012"><a xlink:title=" ">
<path fill="none" stroke="#63b8ff" d="M380.57,-208.24C372.47,-211.3 364.35,-214.58 356.75,-218 329.38,-230.3 299.61,-247.27 278.94,-259.68"/>
<polygon fill="#63b8ff" stroke="#63b8ff" points="381.55,-211.6 389.73,-204.87 379.14,-205.03 381.55,-211.6"/>
</a>
</g>
</g>
<!-- Node20&#45;&gt;Node16 -->
<g id="edge33_Node000020_Node000016" class="edge">
<title>Node20&#45;&gt;Node16</title>
<g id="a_edge33_Node000020_Node000016"><a xlink:title=" ">
<path fill="none" stroke="#63b8ff" d="M379.57,-167.62C371.79,-164.62 364.02,-161.39 356.75,-158 328.34,-144.74 297.73,-125.91 277.1,-112.49"/>
<polygon fill="#63b8ff" stroke="#63b8ff" points="378.13,-170.82 388.72,-171.03 380.57,-164.26 378.13,-170.82"/>
</a>
</g>
</g>
<!-- Node21&#45;&gt;Node2 -->
<g id="edge35_Node000021_Node000002" class="edge">
<title>Node21&#45;&gt;Node2</title>
<g id="a_edge35_Node000021_Node000002"><a xlink:title=" ">
<path fill="none" stroke="#63b8ff" d="M490.98,-79.08C560.47,-49.76 696.25,0 817.25,0 1470.88,0 1470.88,0 1470.88,0 1632.35,0 1770.42,-178.69 1809.62,-234.53"/>
<polygon fill="#63b8ff" stroke="#63b8ff" points="489.62,-75.86 481.8,-83 492.37,-82.29 489.62,-75.86"/>
</a>
</g>
</g>
<!-- Node22&#45;&gt;Node12 -->
<g id="edge37_Node000022_Node000012" class="edge">
<title>Node22&#45;&gt;Node12</title>
<g id="a_edge37_Node000022_Node000012"><a xlink:title=" ">
<path fill="none" stroke="#63b8ff" d="M345.24,-276C335.69,-276 326.16,-276 317.06,-276"/>
<polygon fill="#63b8ff" stroke="#63b8ff" points="344.94,-279.5 354.94,-276 344.94,-272.5 344.94,-279.5"/>
</a>
</g>
</g>
<!-- Node24 -->
<g id="Node000024" class="node">
<title>Node24</title>
<g id="a_Node000024"><a xlink:href="class_properties_panel.html#adbc7f8deb3a687706dc44ebbd7e39d9d" target="_top" xlink:title=" ">
<polygon fill="white" stroke="#666666" points="1370,-289 1242.25,-289 1242.25,-257 1370,-257 1370,-289"/>
<text xml:space="preserve" text-anchor="start" x="1250.25" y="-275.5" font-family="Helvetica,sans-Serif" font-size="10.00">PropertiesPanel::populate</text>
<text xml:space="preserve" text-anchor="middle" x="1306.12" y="-263.5" font-family="Helvetica,sans-Serif" font-size="10.00">ForConnection</text>
</a>
</g>
</g>
<!-- Node23&#45;&gt;Node24 -->
<g id="edge46_Node000023_Node000024" class="edge">
<title>Node23&#45;&gt;Node24</title>
<g id="a_edge46_Node000023_Node000024"><a xlink:title=" ">
<path fill="none" stroke="#63b8ff" d="M1564.66,-273C1505.47,-273 1425.46,-273 1370.42,-273"/>
<polygon fill="#63b8ff" stroke="#63b8ff" points="1564.32,-276.5 1574.32,-273 1564.32,-269.5 1564.32,-276.5"/>
</a>
</g>
</g>
<!-- Node24&#45;&gt;Node8 -->
<g id="edge47_Node000024_Node000008" class="edge">
<title>Node24&#45;&gt;Node8</title>
<g id="a_edge47_Node000024_Node000008"><a xlink:title=" ">
<path fill="none" stroke="#63b8ff" d="M1230.69,-276.52C1134.22,-281.09 967.86,-288.97 879.11,-293.17"/>
<polygon fill="#63b8ff" stroke="#63b8ff" points="1230.77,-280.02 1240.59,-276.05 1230.44,-273.03 1230.77,-280.02"/>
</a>
</g>
</g>
</g>
</svg>

<g id="navigator" transform="translate(0 0)" fill="#404254">
  <rect fill="#f2f5e9" fill-opacity="0.5" stroke="#606060" stroke-width=".5" x="0" y="0" width="60" height="60"/>
  <use id="zoomplus" xlink:href="#zoomPlus" x="17" y="9" onmousedown="handleZoom(evt,'in')"/>
  <use id="zoomminus" xlink:href="#zoomMin" x="42" y="9" onmousedown="handleZoom(evt,'out')"/>
  <use id="reset" xlink:href="#resetDef" x="30" y="36" onmousedown="handleReset()"/>
   <use id="arrowup" xlink:href="#arrowUp" x="0" y="0" onmousedown="handlePan(0,-1)"/>
  <use id="arrowright" xlink:href="#arrowRight" x="0" y="0" onmousedown="handlePan(1,0)"/>
  <use id="arrowdown" xlink:href="#arrowDown" x="0" y="0" onmousedown="handlePan(0,1)"/>
  <use id="arrowleft" xlink:href="#arrowLeft" x="0" y="0" onmousedown="handlePan(-1,0)"/>
</g>
<svg viewBox="0 0 15 15" width="100%" height="30px" preserveAspectRatio="xMaxYMin meet">
 <g id="arrow_out" transform="scale(0.3 0.3)">
  <a xlink:href="class_properties_panel_a7612fc903f0d07a774e46e396f415065_icgraph_org.svg" target="_base">
   <rect id="button" ry="5" rx="5" y="6" x="6" height="38" width="38"
        fill="#f2f5e9" fill-opacity="0.5" stroke="#606060" stroke-width="1.0"/>
   <path id="arrow"
     d="M 11.500037,31.436501 C 11.940474,20.09759 22.043105,11.32322 32.158766,21.979434 L 37.068811,17.246167 C 37.068811,17.246167 37.088388,32 37.088388,32 L 22.160133,31.978069 C 22.160133,31.978069 26.997745,27.140456 26.997745,27.140456 C 18.528582,18.264221 13.291696,25.230495 11.500037,31.436501 z"
     style="fill:#404040;"/>
  </a>
 </g>
</svg>

<style type='text/css'>
<![CDATA[
[data-mouse-over-selected='false'] { opacity: 0.7; }
[data-mouse-over-selected='true']  { opacity: 1.0; }
]]>
</style>
<script type="application/ecmascript"><![CDATA[
document.addEventListener('DOMContentLoaded', (event) => {
  highlightEdges();
  highlightAdjacentNodes();
});
]]></script>
</svg>
