<?xml version="1.0" encoding="UTF-8" standalone="no"?>
<!DOCTYPE svg PUBLIC "-//W3C//DTD SVG 1.1//EN"
 "http://www.w3.org/Graphics/SVG/1.1/DTD/svg11.dtd">
<!-- Generated by graphviz version 14.1.1 (20251213.1925)
 -->
<!-- Title: ConnectionLine::getEndElement Pages: 1 -->
<svg width="2078pt" height="451pt"
 viewBox="0.00 0.00 2078.00 451.00" xmlns="http://www.w3.org/2000/svg" xmlns:xlink="http://www.w3.org/1999/xlink">
<g id="graph0" class="graph" transform="scale(1 1) rotate(0) translate(4 447)">
<title>ConnectionLine::getEndElement</title>
<!-- Node1 -->
<g id="Node000001" class="node">
<title>Node1</title>
<g id="a_Node000001"><a xlink:title=" ">
<polygon fill="#999999" stroke="#666666" points="2069.75,-317 1913.5,-317 1913.5,-297 2069.75,-297 2069.75,-317"/>
<text xml:space="preserve" text-anchor="middle" x="1991.62" y="-303.5" font-family="Helvetica,sans-Serif" font-size="10.00">ConnectionLine::getEndElement</text>
</a>
</g>
</g>
<!-- Node2 -->
<g id="Node000002" class="node">
<title>Node2</title>
<g id="a_Node000002"><a xlink:href="class_diagram_scene.html#a355fffd036fbfb751f2d9ada2b9eacf5" target="_top" xlink:title=" ">
<polygon fill="white" stroke="#666666" points="1868.88,-413 1717.12,-413 1717.12,-381 1868.88,-381 1868.88,-413"/>
<text xml:space="preserve" text-anchor="start" x="1725.12" y="-399.5" font-family="Helvetica,sans-Serif" font-size="10.00">DiagramScene::handleAttribute</text>
<text xml:space="preserve" text-anchor="middle" x="1793" y="-387.5" font-family="Helvetica,sans-Serif" font-size="10.00">Connection</text>
</a>
</g>
</g>
<!-- Node1&#45;&gt;Node2 -->
<g id="edge1_Node000001_Node000002" class="edge">
<title>Node1&#45;&gt;Node2</title>
<g id="a_edge1_Node000001_Node000002"><a xlink:title=" ">
<path fill="none" stroke="#63b8ff" d="M1957.81,-322.02C1922.47,-338.2 1866.41,-363.86 1829.91,-380.56"/>
<polygon fill="#63b8ff" stroke="#63b8ff" points="1959.06,-325.3 1966.69,-317.95 1956.14,-318.93 1959.06,-325.3"/>
</a>
</g>
</g>
<!-- Node7 -->
<g id="Node000007" class="node">
<title>Node7</title>
<g id="a_Node000007"><a xlink:href="class_diagram_scene.html#af24fc3dc11041bb31e4f0627f0a09e75" target="_top" xlink:title=" ">
<polygon fill="white" stroke="#666666" points="1868.88,-348 1717.12,-348 1717.12,-316 1868.88,-316 1868.88,-348"/>
<text xml:space="preserve" text-anchor="start" x="1725.12" y="-334.5" font-family="Helvetica,sans-Serif" font-size="10.00">DiagramScene::handleAttribute</text>
<text xml:space="preserve" text-anchor="middle" x="1793" y="-322.5" font-family="Helvetica,sans-Serif" font-size="10.00">Disconnection</text>
</a>
</g>
</g>
<!-- Node1&#45;&gt;Node7 -->
<g id="edge6_Node000001_Node000007" class="edge">
<title>Node1&#45;&gt;Node7</title>
<g id="a_edge6_Node000001_Node000007"><a xlink:title=" ">
<path fill="none" stroke="#63b8ff" d="M1901.87,-318.28C1890.93,-319.68 1879.82,-321.09 1869.11,-322.45"/>
<polygon fill="#63b8ff" stroke="#63b8ff" points="1902.22,-321.77 1911.69,-317.04 1901.33,-314.83 1902.22,-321.77"/>
</a>
</g>
</g>
<!-- Node16 -->
<g id="Node000016" class="node">
<title>Node16</title>
<g id="a_Node000016"><a xlink:href="class_diagram_scene.html#a244ffcbacfc985e542579c0e112cfd52" target="_top" xlink:title=" ">
<polygon fill="white" stroke="#666666" points="1877.5,-298 1708.5,-298 1708.5,-266 1877.5,-266 1877.5,-298"/>
<text xml:space="preserve" text-anchor="start" x="1716.5" y="-284.5" font-family="Helvetica,sans-Serif" font-size="10.00">DiagramScene::handleRelationship</text>
<text xml:space="preserve" text-anchor="middle" x="1793" y="-272.5" font-family="Helvetica,sans-Serif" font-size="10.00">Disconnection</text>
</a>
</g>
</g>
<!-- Node1&#45;&gt;Node16 -->
<g id="edge18_Node000001_Node000016" class="edge">
<title>Node1&#45;&gt;Node16</title>
<g id="a_edge18_Node000001_Node000016"><a xlink:title=" ">
<path fill="none" stroke="#63b8ff" d="M1901.94,-295.72C1893.92,-294.7 1885.82,-293.67 1877.84,-292.66"/>
<polygon fill="#63b8ff" stroke="#63b8ff" points="1901.33,-299.17 1911.69,-296.96 1902.22,-292.23 1901.33,-299.17"/>
</a>
</g>
</g>
<!-- Node17 -->
<g id="Node000017" class="node">
<title>Node17</title>
<g id="a_Node000017"><a xlink:href="class_connection_line.html#a89b03bf381274e4504b1cde0f32972ee" target="_top" xlink:title=" ">
<polygon fill="white" stroke="#666666" points="1855.75,-237 1730.25,-237 1730.25,-217 1855.75,-217 1855.75,-237"/>
<text xml:space="preserve" text-anchor="middle" x="1793" y="-223.5" font-family="Helvetica,sans-Serif" font-size="10.00">ConnectionLine::serialize</text>
</a>
</g>
</g>
<!-- Node1&#45;&gt;Node17 -->
<g id="edge20_Node000001_Node000017" class="edge">
<title>Node1&#45;&gt;Node17</title>
<g id="a_edge20_Node000001_Node000017"><a xlink:title=" ">
<path fill="none" stroke="#63b8ff" d="M1957.97,-291.83C1935.51,-281.58 1904.91,-267.97 1877.5,-257 1860.19,-250.08 1840.59,-243 1824.73,-237.45"/>
<polygon fill="#63b8ff" stroke="#63b8ff" points="1956.36,-294.94 1966.91,-295.93 1959.28,-288.58 1956.36,-294.94"/>
</a>
</g>
</g>
<!-- Node3 -->
<g id="Node000003" class="node">
<title>Node3</title>
<g id="a_Node000003"><a xlink:href="class_diagram_scene.html#a795592348d4dcbd78d984db93c2fbedb" target="_top" xlink:title=" ">
<polygon fill="white" stroke="#666666" points="1664.25,-415 1512.5,-415 1512.5,-395 1664.25,-395 1664.25,-415"/>
<text xml:space="preserve" text-anchor="middle" x="1588.38" y="-401.5" font-family="Helvetica,sans-Serif" font-size="10.00">DiagramScene::addConnection</text>
</a>
</g>
</g>
<!-- Node2&#45;&gt;Node3 -->
<g id="edge2_Node000002_Node000003" class="edge">
<title>Node2&#45;&gt;Node3</title>
<g id="a_edge2_Node000002_Node000003"><a xlink:title=" ">
<path fill="none" stroke="#63b8ff" d="M1705.47,-400.42C1691.81,-400.96 1677.79,-401.51 1664.42,-402.04"/>
<polygon fill="#63b8ff" stroke="#63b8ff" points="1705.47,-403.92 1715.33,-400.03 1705.2,-396.92 1705.47,-403.92"/>
</a>
</g>
</g>
<!-- Node4 -->
<g id="Node000004" class="node">
<title>Node4</title>
<g id="a_Node000004"><a xlink:href="class_diagram_scene.html#a8a3265678249b08f424e17fbfa8d0de5" target="_top" xlink:title=" ">
<polygon fill="white" stroke="#666666" points="1463.75,-415 1304.5,-415 1304.5,-395 1463.75,-395 1463.75,-415"/>
<text xml:space="preserve" text-anchor="middle" x="1384.12" y="-401.5" font-family="Helvetica,sans-Serif" font-size="10.00">DiagramScene::finishConnection</text>
</a>
</g>
</g>
<!-- Node3&#45;&gt;Node4 -->
<g id="edge3_Node000003_Node000004" class="edge">
<title>Node3&#45;&gt;Node4</title>
<g id="a_edge3_Node000003_Node000004"><a xlink:title=" ">
<path fill="none" stroke="#63b8ff" d="M1500.59,-405C1488.51,-405 1476.15,-405 1464.22,-405"/>
<polygon fill="#63b8ff" stroke="#63b8ff" points="1500.55,-408.5 1510.55,-405 1500.55,-401.5 1500.55,-408.5"/>
</a>
</g>
</g>
<!-- Node5 -->
<g id="Node000005" class="node">
<title>Node5</title>
<g id="a_Node000005"><a xlink:href="class_diagram_scene.html#a61e7061e5add947d09ad87feaf2b8dc1" target="_top" xlink:title=" ">
<polygon fill="white" stroke="#666666" points="1264,-443 1089.75,-443 1089.75,-423 1264,-423 1264,-443"/>
<text xml:space="preserve" text-anchor="middle" x="1176.88" y="-429.5" font-family="Helvetica,sans-Serif" font-size="10.00">DiagramScene::pasteFromClipboard</text>
</a>
</g>
</g>
<!-- Node3&#45;&gt;Node5 -->
<g id="edge4_Node000003_Node000005" class="edge">
<title>Node3&#45;&gt;Node5</title>
<g id="a_edge4_Node000003_Node000005"><a xlink:title=" ">
<path fill="none" stroke="#63b8ff" d="M1520.29,-417.23C1503.36,-419.89 1485.18,-422.39 1468.25,-424 1399.96,-430.48 1322.28,-432.61 1264.46,-433.19"/>
<polygon fill="#63b8ff" stroke="#63b8ff" points="1520.4,-420.76 1529.71,-415.71 1519.28,-413.85 1520.4,-420.76"/>
</a>
</g>
</g>
<!-- Node6 -->
<g id="Node000006" class="node">
<title>Node6</title>
<g id="a_Node000006"><a xlink:href="class_diagram_scene.html#a074e1181353b257a18ea2d243b459a47" target="_top" xlink:title=" ">
<polygon fill="white" stroke="#666666" points="843.88,-405 690.62,-405 690.62,-385 843.88,-385 843.88,-405"/>
<text xml:space="preserve" text-anchor="middle" x="767.25" y="-391.5" font-family="Helvetica,sans-Serif" font-size="10.00">DiagramScene::keyPressEvent</text>
</a>
</g>
</g>
<!-- Node5&#45;&gt;Node6 -->
<g id="edge5_Node000005_Node000006" class="edge">
<title>Node5&#45;&gt;Node6</title>
<g id="a_edge5_Node000005_Node000006"><a xlink:title=" ">
<path fill="none" stroke="#63b8ff" d="M1078.13,-423.89C1006.38,-417.2 910.33,-408.24 844.28,-402.09"/>
<polygon fill="#63b8ff" stroke="#63b8ff" points="1077.64,-427.36 1087.92,-424.8 1078.29,-420.39 1077.64,-427.36"/>
</a>
</g>
</g>
<!-- Node8 -->
<g id="Node000008" class="node">
<title>Node8</title>
<g id="a_Node000008"><a xlink:href="class_diagram_scene.html#a5d546daf9d3a3d5155b611ec31c4dccb" target="_top" xlink:title=" ">
<polygon fill="white" stroke="#666666" points="1672.5,-303 1504.25,-303 1504.25,-283 1672.5,-283 1672.5,-303"/>
<text xml:space="preserve" text-anchor="middle" x="1588.38" y="-289.5" font-family="Helvetica,sans-Serif" font-size="10.00">DiagramScene::removeConnection</text>
</a>
</g>
</g>
<!-- Node7&#45;&gt;Node8 -->
<g id="edge7_Node000007_Node000008" class="edge">
<title>Node7&#45;&gt;Node8</title>
<g id="a_edge7_Node000007_Node000008"><a xlink:title=" ">
<path fill="none" stroke="#63b8ff" d="M1705.64,-315.38C1684.68,-311.34 1662.85,-307.14 1643.84,-303.48"/>
<polygon fill="#63b8ff" stroke="#63b8ff" points="1704.87,-318.79 1715.35,-317.25 1706.19,-311.92 1704.87,-318.79"/>
</a>
</g>
</g>
<!-- Node9 -->
<g id="Node000009" class="node">
<title>Node9</title>
<g id="a_Node000009"><a xlink:href="class_diagram_scene.html#a0c02f289dea7872eae24bb2c0f91d5ea" target="_top" xlink:title=" ">
<polygon fill="white" stroke="#666666" points="1043.62,-254 899.38,-254 899.38,-234 1043.62,-234 1043.62,-254"/>
<text xml:space="preserve" text-anchor="middle" x="971.5" y="-240.5" font-family="Helvetica,sans-Serif" font-size="10.00">DiagramScene::clearDiagram</text>
</a>
</g>
</g>
<!-- Node8&#45;&gt;Node9 -->
<g id="edge8_Node000008_Node000009" class="edge">
<title>Node8&#45;&gt;Node9</title>
<g id="a_edge8_Node000008_Node000009"><a xlink:title=" ">
<path fill="none" stroke="#63b8ff" d="M1546.5,-279.08C1523.75,-271.99 1494.75,-264.04 1468.25,-260 1318.64,-237.2 1140.79,-238.16 1044,-241.01"/>
<polygon fill="#63b8ff" stroke="#63b8ff" points="1545.42,-282.41 1556.01,-282.11 1547.54,-275.74 1545.42,-282.41"/>
</a>
</g>
</g>
<!-- Node11 -->
<g id="Node000011" class="node">
<title>Node11</title>
<g id="a_Node000011"><a xlink:href="class_diagram_scene.html#a03a8b712a0872e8f6290c059de956505" target="_top" xlink:title=" ">
<polygon fill="white" stroke="#666666" points="1047,-377 896,-377 896,-357 1047,-357 1047,-377"/>
<text xml:space="preserve" text-anchor="middle" x="971.5" y="-363.5" font-family="Helvetica,sans-Serif" font-size="10.00">DiagramScene::deleteSelected</text>
</a>
</g>
</g>
<!-- Node8&#45;&gt;Node11 -->
<g id="edge10_Node000008_Node000011" class="edge">
<title>Node8&#45;&gt;Node11</title>
<g id="a_edge10_Node000008_Node000011"><a xlink:title=" ">
<path fill="none" stroke="#63b8ff" d="M1560.52,-309.15C1537.08,-322.31 1501.67,-339.98 1468.25,-348 1322.31,-383.01 1145.36,-379.16 1047.23,-373.13"/>
<polygon fill="#63b8ff" stroke="#63b8ff" points="1562.16,-312.24 1569.09,-304.22 1558.68,-306.17 1562.16,-312.24"/>
</a>
</g>
</g>
<!-- Node12 -->
<g id="Node000012" class="node">
<title>Node12</title>
<g id="a_Node000012"><a xlink:href="class_diagram_scene.html#abfda0a4eecbce90cc6c7e7462259d199" target="_top" xlink:title=" ">
<polygon fill="white" stroke="#666666" points="1468.25,-339 1300,-339 1300,-319 1468.25,-319 1468.25,-339"/>
<text xml:space="preserve" text-anchor="middle" x="1384.12" y="-325.5" font-family="Helvetica,sans-Serif" font-size="10.00">DiagramScene::removeConnection</text>
</a>
</g>
</g>
<!-- Node8&#45;&gt;Node12 -->
<g id="edge12_Node000008_Node000012" class="edge">
<title>Node8&#45;&gt;Node12</title>
<g id="a_edge12_Node000008_Node000012"><a xlink:title=" ">
<path fill="none" stroke="#63b8ff" d="M1517.45,-305.45C1493.53,-309.7 1467.01,-314.42 1444.04,-318.51"/>
<polygon fill="#63b8ff" stroke="#63b8ff" points="1517.88,-308.92 1527.11,-303.73 1516.66,-302.03 1517.88,-308.92"/>
</a>
</g>
</g>
<!-- Node13 -->
<g id="Node000013" class="node">
<title>Node13</title>
<g id="a_Node000013"><a xlink:href="class_diagram_scene.html#a0d026405c431d3aca9494d64296bb956" target="_top" xlink:title=" ">
<polygon fill="white" stroke="#666666" points="1461.5,-301 1306.75,-301 1306.75,-269 1461.5,-269 1461.5,-301"/>
<text xml:space="preserve" text-anchor="start" x="1314.75" y="-287.5" font-family="Helvetica,sans-Serif" font-size="10.00">DiagramScene::removeElement</text>
<text xml:space="preserve" text-anchor="middle" x="1384.12" y="-275.5" font-family="Helvetica,sans-Serif" font-size="10.00">Connections</text>
</a>
</g>
</g>
<!-- Node8&#45;&gt;Node13 -->
<g id="edge13_Node000008_Node000013" class="edge">
<title>Node8&#45;&gt;Node13</title>
<g id="a_edge13_Node000008_Node000013"><a xlink:title=" ">
<path fill="none" stroke="#63b8ff" d="M1492.77,-289.26C1482.42,-288.85 1471.97,-288.44 1461.88,-288.04"/>
<polygon fill="#63b8ff" stroke="#63b8ff" points="1492.3,-292.74 1502.43,-289.64 1492.58,-285.75 1492.3,-292.74"/>
</a>
</g>
</g>
<!-- Node10 -->
<g id="Node000010" class="node">
<title>Node10</title>
<g id="a_Node000010"><a xlink:href="class_diagram_scene.html#a189b7f9e32b70c751124cffce8d63c8c" target="_top" xlink:title=" ">
<polygon fill="white" stroke="#666666" points="845.75,-254 688.75,-254 688.75,-234 845.75,-234 845.75,-254"/>
<text xml:space="preserve" text-anchor="middle" x="767.25" y="-240.5" font-family="Helvetica,sans-Serif" font-size="10.00">DiagramScene::~DiagramScene</text>
</a>
</g>
</g>
<!-- Node9&#45;&gt;Node10 -->
<g id="edge9_Node000009_Node000010" class="edge">
<title>Node9&#45;&gt;Node10</title>
<g id="a_edge9_Node000009_Node000010"><a xlink:title=" ">
<path fill="none" stroke="#63b8ff" d="M887.49,-244C873.75,-244 859.54,-244 845.93,-244"/>
<polygon fill="#63b8ff" stroke="#63b8ff" points="887.4,-247.5 897.4,-244 887.4,-240.5 887.4,-247.5"/>
</a>
</g>
</g>
<!-- Node11&#45;&gt;Node6 -->
<g id="edge11_Node000011_Node000006" class="edge">
<title>Node11&#45;&gt;Node6</title>
<g id="a_edge11_Node000011_Node000006"><a xlink:title=" ">
<path fill="none" stroke="#63b8ff" d="M884.56,-378.9C871.09,-380.76 857.25,-382.68 844.03,-384.51"/>
<polygon fill="#63b8ff" stroke="#63b8ff" points="884.84,-382.39 894.26,-377.55 883.88,-375.46 884.84,-382.39"/>
</a>
</g>
</g>
<!-- Node14 -->
<g id="Node000014" class="node">
<title>Node14</title>
<g id="a_Node000014"><a xlink:href="class_diagram_scene.html#ae531fa5ccfc6393d5a60f956a652118d" target="_top" xlink:title=" ">
<polygon fill="white" stroke="#666666" points="1254.25,-295 1099.5,-295 1099.5,-275 1254.25,-275 1254.25,-295"/>
<text xml:space="preserve" text-anchor="middle" x="1176.88" y="-281.5" font-family="Helvetica,sans-Serif" font-size="10.00">DiagramScene::removeElement</text>
</a>
</g>
</g>
<!-- Node13&#45;&gt;Node14 -->
<g id="edge14_Node000013_Node000014" class="edge">
<title>Node13&#45;&gt;Node14</title>
<g id="a_edge14_Node000013_Node000014"><a xlink:title=" ">
<path fill="none" stroke="#63b8ff" d="M1295.15,-285C1281.62,-285 1267.75,-285 1254.5,-285"/>
<polygon fill="#63b8ff" stroke="#63b8ff" points="1294.89,-288.5 1304.89,-285 1294.89,-281.5 1294.89,-288.5"/>
</a>
</g>
</g>
<!-- Node14&#45;&gt;Node9 -->
<g id="edge15_Node000014_Node000009" class="edge">
<title>Node14&#45;&gt;Node9</title>
<g id="a_edge15_Node000014_Node000009"><a xlink:title=" ">
<path fill="none" stroke="#63b8ff" d="M1112.97,-272.32C1084.49,-266.58 1051.25,-259.88 1024.25,-254.43"/>
<polygon fill="#63b8ff" stroke="#63b8ff" points="1112.05,-275.7 1122.54,-274.25 1113.43,-268.84 1112.05,-275.7"/>
</a>
</g>
</g>
<!-- Node14&#45;&gt;Node11 -->
<g id="edge16_Node000014_Node000011" class="edge">
<title>Node14&#45;&gt;Node11</title>
<g id="a_edge16_Node000014_Node000011"><a xlink:title=" ">
<path fill="none" stroke="#63b8ff" d="M1139.6,-299.63C1098.98,-316.01 1034.17,-342.14 998.37,-356.57"/>
<polygon fill="#63b8ff" stroke="#63b8ff" points="1140.75,-302.94 1148.71,-295.95 1138.13,-296.44 1140.75,-302.94"/>
</a>
</g>
</g>
<!-- Node15 -->
<g id="Node000015" class="node">
<title>Node15</title>
<g id="a_Node000015"><a xlink:href="class_diagram_scene.html#affc06437d827ac64a996cd13690a49c6" target="_top" xlink:title=" ">
<polygon fill="white" stroke="#666666" points="1048.88,-295 894.12,-295 894.12,-275 1048.88,-275 1048.88,-295"/>
<text xml:space="preserve" text-anchor="middle" x="971.5" y="-281.5" font-family="Helvetica,sans-Serif" font-size="10.00">DiagramScene::removeElement</text>
</a>
</g>
</g>
<!-- Node14&#45;&gt;Node15 -->
<g id="edge17_Node000014_Node000015" class="edge">
<title>Node14&#45;&gt;Node15</title>
<g id="a_edge17_Node000014_Node000015"><a xlink:title=" ">
<path fill="none" stroke="#63b8ff" d="M1088.06,-285C1075.18,-285 1062,-285 1049.37,-285"/>
<polygon fill="#63b8ff" stroke="#63b8ff" points="1087.76,-288.5 1097.76,-285 1087.76,-281.5 1087.76,-288.5"/>
</a>
</g>
</g>
<!-- Node16&#45;&gt;Node8 -->
<g id="edge19_Node000016_Node000008" class="edge">
<title>Node16&#45;&gt;Node8</title>
<g id="a_edge19_Node000016_Node000008"><a xlink:title=" ">
<path fill="none" stroke="#63b8ff" d="M1696.85,-287.17C1688.84,-287.6 1680.78,-288.04 1672.86,-288.47"/>
<polygon fill="#63b8ff" stroke="#63b8ff" points="1696.82,-290.67 1706.61,-286.64 1696.44,-283.68 1696.82,-290.67"/>
</a>
</g>
</g>
<!-- Node18 -->
<g id="Node000018" class="node">
<title>Node18</title>
<g id="a_Node000018"><a xlink:href="class_json_helper.html#ace49a2bdc031d44388b744f93da1fd6d" target="_top" xlink:title=" ">
<polygon fill="white" stroke="#666666" points="1653,-243 1523.75,-243 1523.75,-211 1653,-211 1653,-243"/>
<text xml:space="preserve" text-anchor="start" x="1531.75" y="-229.5" font-family="Helvetica,sans-Serif" font-size="10.00">JsonHelper::connectionTo</text>
<text xml:space="preserve" text-anchor="middle" x="1588.38" y="-217.5" font-family="Helvetica,sans-Serif" font-size="10.00">JsonObject</text>
</a>
</g>
</g>
<!-- Node17&#45;&gt;Node18 -->
<g id="edge21_Node000017_Node000018" class="edge">
<title>Node17&#45;&gt;Node18</title>
<g id="a_edge21_Node000017_Node000018"><a xlink:title=" ">
<path fill="none" stroke="#63b8ff" d="M1718.49,-227C1697.1,-227 1673.92,-227 1653.18,-227"/>
<polygon fill="#63b8ff" stroke="#63b8ff" points="1718.32,-230.5 1728.32,-227 1718.32,-223.5 1718.32,-230.5"/>
</a>
</g>
</g>
<!-- Node35 -->
<g id="Node000035" class="node">
<title>Node35</title>
<g id="a_Node000035"><a xlink:href="class_relationship_connection_line.html#a842e00383d27f1078be5ca78ed1e34ec" target="_top" xlink:title=" ">
<polygon fill="white" stroke="#666666" points="1657.12,-193 1519.62,-193 1519.62,-161 1657.12,-161 1657.12,-193"/>
<text xml:space="preserve" text-anchor="start" x="1527.62" y="-179.5" font-family="Helvetica,sans-Serif" font-size="10.00">RelationshipConnectionLine</text>
<text xml:space="preserve" text-anchor="middle" x="1588.38" y="-167.5" font-family="Helvetica,sans-Serif" font-size="10.00">::serialize</text>
</a>
</g>
</g>
<!-- Node17&#45;&gt;Node35 -->
<g id="edge44_Node000017_Node000035" class="edge">
<title>Node17&#45;&gt;Node35</title>
<g id="a_edge44_Node000017_Node000035"><a xlink:title=" ">
<path fill="none" stroke="#63b8ff" d="M1738.67,-213.84C1713.39,-207.6 1682.92,-200.08 1656.12,-193.47"/>
<polygon fill="#63b8ff" stroke="#63b8ff" points="1737.51,-217.16 1748.05,-216.16 1739.18,-210.36 1737.51,-217.16"/>
</a>
</g>
</g>
<!-- Node19 -->
<g id="Node000019" class="node">
<title>Node19</title>
<g id="a_Node000019"><a xlink:href="class_json_helper.html#a3dc80512edb9b1f8bc8e50015e27e864" target="_top" xlink:title=" ">
<polygon fill="white" stroke="#666666" points="1452.88,-213 1315.38,-213 1315.38,-181 1452.88,-181 1452.88,-213"/>
<text xml:space="preserve" text-anchor="start" x="1323.38" y="-199.5" font-family="Helvetica,sans-Serif" font-size="10.00">JsonHelper::diagramToJson</text>
<text xml:space="preserve" text-anchor="middle" x="1384.12" y="-187.5" font-family="Helvetica,sans-Serif" font-size="10.00">Object</text>
</a>
</g>
</g>
<!-- Node18&#45;&gt;Node19 -->
<g id="edge22_Node000018_Node000019" class="edge">
<title>Node18&#45;&gt;Node19</title>
<g id="a_edge22_Node000018_Node000019"><a xlink:title=" ">
<path fill="none" stroke="#63b8ff" d="M1512.19,-215.85C1492.86,-212.98 1472.19,-209.91 1453.25,-207.1"/>
<polygon fill="#63b8ff" stroke="#63b8ff" points="1511.48,-219.28 1521.88,-217.29 1512.51,-212.36 1511.48,-219.28"/>
</a>
</g>
</g>
<!-- Node20 -->
<g id="Node000020" class="node">
<title>Node20</title>
<g id="a_Node000020"><a xlink:href="class_json_helper.html#a27d74ef624077d3187ef066a8867ba70" target="_top" xlink:title=" ">
<polygon fill="white" stroke="#666666" points="1245.62,-210 1108.12,-210 1108.12,-190 1245.62,-190 1245.62,-210"/>
<text xml:space="preserve" text-anchor="middle" x="1176.88" y="-196.5" font-family="Helvetica,sans-Serif" font-size="10.00">JsonHelper::diagramToJson</text>
</a>
</g>
</g>
<!-- Node19&#45;&gt;Node20 -->
<g id="edge23_Node000019_Node000020" class="edge">
<title>Node19&#45;&gt;Node20</title>
<g id="a_edge23_Node000019_Node000020"><a xlink:title=" ">
<path fill="none" stroke="#63b8ff" d="M1303.71,-198.16C1284.69,-198.44 1264.56,-198.73 1246.1,-199"/>
<polygon fill="#63b8ff" stroke="#63b8ff" points="1303.6,-201.66 1313.55,-198.02 1303.5,-194.66 1303.6,-201.66"/>
</a>
</g>
</g>
<!-- Node21 -->
<g id="Node000021" class="node">
<title>Node21</title>
<g id="a_Node000021"><a xlink:href="class_json_helper.html#a7f720f1105f91b135fdfbcaf94e3f929" target="_top" xlink:title=" ">
<polygon fill="white" stroke="#666666" points="1254.62,-172 1099.12,-172 1099.12,-152 1254.62,-152 1254.62,-172"/>
<text xml:space="preserve" text-anchor="middle" x="1176.88" y="-158.5" font-family="Helvetica,sans-Serif" font-size="10.00">JsonHelper::saveDiagramToFile</text>
</a>
</g>
</g>
<!-- Node19&#45;&gt;Node21 -->
<g id="edge24_Node000019_Node000021" class="edge">
<title>Node19&#45;&gt;Node21</title>
<g id="a_edge24_Node000019_Node000021"><a xlink:title=" ">
<path fill="none" stroke="#63b8ff" d="M1303.98,-183.5C1282.48,-179.84 1259.53,-175.92 1239.18,-172.45"/>
<polygon fill="#63b8ff" stroke="#63b8ff" points="1303.13,-186.91 1313.57,-185.14 1304.3,-180.01 1303.13,-186.91"/>
</a>
</g>
</g>
<!-- Node22 -->
<g id="Node000022" class="node">
<title>Node22</title>
<g id="a_Node000022"><a xlink:href="class_main_window.html#a464aaa4d378e7b2d814756a73d6e1ed6" target="_top" xlink:title=" ">
<polygon fill="white" stroke="#666666" points="1029,-134 914,-134 914,-114 1029,-114 1029,-134"/>
<text xml:space="preserve" text-anchor="middle" x="971.5" y="-120.5" font-family="Helvetica,sans-Serif" font-size="10.00">MainWindow::saveFile</text>
</a>
</g>
</g>
<!-- Node21&#45;&gt;Node22 -->
<g id="edge25_Node000021_Node000022" class="edge">
<title>Node21&#45;&gt;Node22</title>
<g id="a_edge25_Node000021_Node000022"><a xlink:title=" ">
<path fill="none" stroke="#63b8ff" d="M1108.49,-149.41C1082.53,-144.56 1053.19,-139.08 1028.43,-134.45"/>
<polygon fill="#63b8ff" stroke="#63b8ff" points="1107.8,-152.84 1118.28,-151.24 1109.09,-145.96 1107.8,-152.84"/>
</a>
</g>
</g>
<!-- Node31 -->
<g id="Node000031" class="node">
<title>Node31</title>
<g id="a_Node000031"><a xlink:href="class_main_window.html#a101685dce06592fd3a51da45fc7be4ad" target="_top" xlink:title=" ">
<polygon fill="white" stroke="#666666" points="1044.75,-172 898.25,-172 898.25,-152 1044.75,-152 1044.75,-172"/>
<text xml:space="preserve" text-anchor="middle" x="971.5" y="-158.5" font-family="Helvetica,sans-Serif" font-size="10.00">MainWindow::saveToMainFile</text>
</a>
</g>
</g>
<!-- Node21&#45;&gt;Node31 -->
<g id="edge38_Node000021_Node000031" class="edge">
<title>Node21&#45;&gt;Node31</title>
<g id="a_edge38_Node000021_Node000031"><a xlink:title=" ">
<path fill="none" stroke="#63b8ff" d="M1087.42,-162C1073.23,-162 1058.69,-162 1044.93,-162"/>
<polygon fill="#63b8ff" stroke="#63b8ff" points="1087.18,-165.5 1097.18,-162 1087.18,-158.5 1087.18,-165.5"/>
</a>
</g>
</g>
<!-- Node34 -->
<g id="Node000034" class="node">
<title>Node34</title>
<g id="a_Node000034"><a xlink:href="class_main_window.html#ab38b9b1c96adcb0bbbbaec5b3ff5ae19" target="_top" xlink:title=" ">
<polygon fill="white" stroke="#666666" points="1053.75,-210 889.25,-210 889.25,-190 1053.75,-190 1053.75,-210"/>
<text xml:space="preserve" text-anchor="middle" x="971.5" y="-196.5" font-family="Helvetica,sans-Serif" font-size="10.00">MainWindow::saveVersionBackup</text>
</a>
</g>
</g>
<!-- Node21&#45;&gt;Node34 -->
<g id="edge42_Node000021_Node000034" class="edge">
<title>Node21&#45;&gt;Node34</title>
<g id="a_edge42_Node000021_Node000034"><a xlink:title=" ">
<path fill="none" stroke="#63b8ff" d="M1108.49,-174.59C1082.53,-179.44 1053.19,-184.92 1028.43,-189.55"/>
<polygon fill="#63b8ff" stroke="#63b8ff" points="1109.09,-178.04 1118.28,-172.76 1107.8,-171.16 1109.09,-178.04"/>
</a>
</g>
</g>
<!-- Node23 -->
<g id="Node000023" class="node">
<title>Node23</title>
<g id="a_Node000023"><a xlink:href="class_main_window.html#a05fb9d72c044aa3bb7d187b994704e2f" target="_top" xlink:title=" ">
<polygon fill="white" stroke="#666666" points="830.75,-134 703.75,-134 703.75,-114 830.75,-114 830.75,-134"/>
<text xml:space="preserve" text-anchor="middle" x="767.25" y="-120.5" font-family="Helvetica,sans-Serif" font-size="10.00">MainWindow::closeEvent</text>
</a>
</g>
</g>
<!-- Node22&#45;&gt;Node23 -->
<g id="edge26_Node000022_Node000023" class="edge">
<title>Node22&#45;&gt;Node23</title>
<g id="a_edge26_Node000022_Node000023"><a xlink:title=" ">
<path fill="none" stroke="#63b8ff" d="M902.21,-124C879.2,-124 853.65,-124 831.09,-124"/>
<polygon fill="#63b8ff" stroke="#63b8ff" points="902.11,-127.5 912.11,-124 902.11,-120.5 902.11,-127.5"/>
</a>
</g>
</g>
<!-- Node24 -->
<g id="Node000024" class="node">
<title>Node24</title>
<g id="a_Node000024"><a xlink:href="class_main_window.html#aaf455232cccaa422fc4c371fa99bff84" target="_top" xlink:title=" ">
<polygon fill="white" stroke="#666666" points="645.25,-96 500.25,-96 500.25,-76 645.25,-76 645.25,-96"/>
<text xml:space="preserve" text-anchor="middle" x="572.75" y="-82.5" font-family="Helvetica,sans-Serif" font-size="10.00">MainWindow::createFileMenu</text>
</a>
</g>
</g>
<!-- Node22&#45;&gt;Node24 -->
<g id="edge27_Node000022_Node000024" class="edge">
<title>Node22&#45;&gt;Node24</title>
<g id="a_edge27_Node000022_Node000024"><a xlink:title=" ">
<path fill="none" stroke="#63b8ff" d="M902.7,-111.92C886.54,-109.34 869.31,-106.84 853.25,-105 782.95,-96.93 702.27,-91.9 645.72,-89.05"/>
<polygon fill="#63b8ff" stroke="#63b8ff" points="901.77,-115.31 912.2,-113.46 902.89,-108.4 901.77,-115.31"/>
</a>
</g>
</g>
<!-- Node28 -->
<g id="Node000028" class="node">
<title>Node28</title>
<g id="a_Node000028"><a xlink:href="class_main_window.html#a69f73b93cc05c89a9ae1be0161105982" target="_top" xlink:title=" ">
<polygon fill="white" stroke="#666666" points="823.25,-58 711.25,-58 711.25,-38 823.25,-38 823.25,-58"/>
<text xml:space="preserve" text-anchor="middle" x="767.25" y="-44.5" font-family="Helvetica,sans-Serif" font-size="10.00">MainWindow::newFile</text>
</a>
</g>
</g>
<!-- Node22&#45;&gt;Node28 -->
<g id="edge31_Node000022_Node000028" class="edge">
<title>Node22&#45;&gt;Node28</title>
<g id="a_edge31_Node000022_Node000028"><a xlink:title=" ">
<path fill="none" stroke="#63b8ff" d="M939.37,-108.74C916.02,-97.65 883.09,-82.77 853.25,-72 839.26,-66.95 823.67,-62.28 809.7,-58.43"/>
<polygon fill="#63b8ff" stroke="#63b8ff" points="937.79,-111.86 948.32,-113.03 940.82,-105.55 937.79,-111.86"/>
</a>
</g>
</g>
<!-- Node29 -->
<g id="Node000029" class="node">
<title>Node29</title>
<g id="a_Node000029"><a xlink:href="class_main_window.html#a288b768c3c21a9171bdc56fe845ece8b" target="_top" xlink:title=" ">
<polygon fill="white" stroke="#666666" points="824.75,-20 709.75,-20 709.75,0 824.75,0 824.75,-20"/>
<text xml:space="preserve" text-anchor="middle" x="767.25" y="-6.5" font-family="Helvetica,sans-Serif" font-size="10.00">MainWindow::openFile</text>
</a>
</g>
</g>
<!-- Node22&#45;&gt;Node29 -->
<g id="edge33_Node000022_Node000029" class="edge">
<title>Node22&#45;&gt;Node29</title>
<g id="a_edge33_Node000022_Node000029"><a xlink:title=" ">
<path fill="none" stroke="#63b8ff" d="M953.13,-105.46C931.73,-83.77 893.26,-48.35 853.25,-29 844.4,-24.72 834.57,-21.39 824.82,-18.8"/>
<polygon fill="#63b8ff" stroke="#63b8ff" points="950.45,-107.72 959.91,-112.48 955.48,-102.86 950.45,-107.72"/>
</a>
</g>
</g>
<!-- Node30 -->
<g id="Node000030" class="node">
<title>Node30</title>
<g id="a_Node000030"><a xlink:href="class_main_window.html#ace1b7624a64f4d70513b86601e5846f9" target="_top" xlink:title=" ">
<polygon fill="white" stroke="#666666" points="830.75,-172 703.75,-172 703.75,-152 830.75,-152 830.75,-172"/>
<text xml:space="preserve" text-anchor="middle" x="767.25" y="-158.5" font-family="Helvetica,sans-Serif" font-size="10.00">MainWindow::saveAsFile</text>
</a>
</g>
</g>
<!-- Node22&#45;&gt;Node30 -->
<g id="edge35_Node000022_Node000030" class="edge">
<title>Node22&#45;&gt;Node30</title>
<g id="a_edge35_Node000022_Node000030"><a xlink:title=" ">
<path fill="none" stroke="#63b8ff" d="M902.3,-130.39C866.68,-136.35 824.95,-144.69 797.63,-151.55"/>
<polygon fill="#63b8ff" stroke="#63b8ff" points="902.82,-133.85 912.13,-128.79 901.7,-126.94 902.82,-133.85"/>
</a>
</g>
</g>
<!-- Node25 -->
<g id="Node000025" class="node">
<title>Node25</title>
<g id="a_Node000025"><a xlink:href="class_main_window.html#a2305527bb5d827ae07967ea1c86ee6fb" target="_top" xlink:title=" ">
<polygon fill="white" stroke="#666666" points="463.88,-134 319.62,-134 319.62,-114 463.88,-114 463.88,-134"/>
<text xml:space="preserve" text-anchor="middle" x="391.75" y="-120.5" font-family="Helvetica,sans-Serif" font-size="10.00">MainWindow::createMenuBar</text>
</a>
</g>
</g>
<!-- Node24&#45;&gt;Node25 -->
<g id="edge28_Node000024_Node000025" class="edge">
<title>Node24&#45;&gt;Node25</title>
<g id="a_edge28_Node000024_Node000025"><a xlink:title=" ">
<path fill="none" stroke="#63b8ff" d="M511.21,-98.85C488.67,-103.64 463.38,-109.01 441.98,-113.55"/>
<polygon fill="#63b8ff" stroke="#63b8ff" points="511.83,-102.3 520.88,-96.8 510.37,-95.45 511.83,-102.3"/>
</a>
</g>
</g>
<!-- Node26 -->
<g id="Node000026" class="node">
<title>Node26</title>
<g id="a_Node000026"><a xlink:href="class_main_window.html#a3a304253c9e7caeef028f75358bf1fd5" target="_top" xlink:title=" ">
<polygon fill="white" stroke="#666666" points="283.25,-153 170.5,-153 170.5,-133 283.25,-133 283.25,-153"/>
<text xml:space="preserve" text-anchor="middle" x="226.88" y="-139.5" font-family="Helvetica,sans-Serif" font-size="10.00">MainWindow::setupUI</text>
</a>
</g>
</g>
<!-- Node25&#45;&gt;Node26 -->
<g id="edge29_Node000025_Node000026" class="edge">
<title>Node25&#45;&gt;Node26</title>
<g id="a_edge29_Node000025_Node000026"><a xlink:title=" ">
<path fill="none" stroke="#63b8ff" d="M308.04,-133.65C299.76,-134.61 291.49,-135.58 283.59,-136.5"/>
<polygon fill="#63b8ff" stroke="#63b8ff" points="308.28,-137.14 317.81,-132.51 307.47,-130.19 308.28,-137.14"/>
</a>
</g>
</g>
<!-- Node27 -->
<g id="Node000027" class="node">
<title>Node27</title>
<g id="a_Node000027"><a xlink:href="class_main_window.html#a996c5a2b6f77944776856f08ec30858d" target="_top" xlink:title=" ">
<polygon fill="white" stroke="#666666" points="134.5,-172 0,-172 0,-152 134.5,-152 134.5,-172"/>
<text xml:space="preserve" text-anchor="middle" x="67.25" y="-158.5" font-family="Helvetica,sans-Serif" font-size="10.00">MainWindow::MainWindow</text>
</a>
</g>
</g>
<!-- Node26&#45;&gt;Node27 -->
<g id="edge30_Node000026_Node000027" class="edge">
<title>Node26&#45;&gt;Node27</title>
<g id="a_edge30_Node000026_Node000027"><a xlink:title=" ">
<path fill="none" stroke="#63b8ff" d="M159.13,-151.05C151.12,-152.01 142.94,-153 134.94,-153.96"/>
<polygon fill="#63b8ff" stroke="#63b8ff" points="159.29,-154.55 168.8,-149.88 158.45,-147.6 159.29,-154.55"/>
</a>
</g>
</g>
<!-- Node28&#45;&gt;Node24 -->
<g id="edge32_Node000028_Node000024" class="edge">
<title>Node28&#45;&gt;Node24</title>
<g id="a_edge32_Node000028_Node000024"><a xlink:title=" ">
<path fill="none" stroke="#63b8ff" d="M702.13,-60.66C677.65,-65.49 650.02,-70.94 626.69,-75.55"/>
<polygon fill="#63b8ff" stroke="#63b8ff" points="702.52,-64.15 711.65,-58.78 701.17,-57.28 702.52,-64.15"/>
</a>
</g>
</g>
<!-- Node29&#45;&gt;Node24 -->
<g id="edge34_Node000029_Node000024" class="edge">
<title>Node29&#45;&gt;Node24</title>
<g id="a_edge34_Node000029_Node000024"><a xlink:title=" ">
<path fill="none" stroke="#63b8ff" d="M698.66,-23.36C692.71,-25.06 686.84,-26.94 681.25,-29 647.17,-41.59 610.35,-62.99 589.87,-75.68"/>
<polygon fill="#63b8ff" stroke="#63b8ff" points="699.18,-26.84 707.94,-20.88 697.37,-20.08 699.18,-26.84"/>
</a>
</g>
</g>
<!-- Node30&#45;&gt;Node22 -->
<g id="edge37_Node000030_Node000022" class="edge">
<title>Node30&#45;&gt;Node22</title>
<g id="a_edge37_Node000030_Node000022"><a xlink:title=" ">
<path fill="none" stroke="#63b8ff" d="M842.06,-154.66C876.36,-148.79 915.19,-140.96 941.09,-134.45"/>
<polygon fill="#63b8ff" stroke="#63b8ff" points="841.88,-151.14 832.59,-156.24 843.04,-158.04 841.88,-151.14"/>
</a>
</g>
</g>
<!-- Node30&#45;&gt;Node24 -->
<g id="edge36_Node000030_Node000024" class="edge">
<title>Node30&#45;&gt;Node24</title>
<g id="a_edge36_Node000030_Node000024"><a xlink:title=" ">
<path fill="none" stroke="#63b8ff" d="M698.66,-148.64C692.71,-146.94 686.84,-145.06 681.25,-143 647.17,-130.41 610.35,-109.01 589.87,-96.32"/>
<polygon fill="#63b8ff" stroke="#63b8ff" points="697.37,-151.92 707.94,-151.12 699.18,-145.16 697.37,-151.92"/>
</a>
</g>
</g>
<!-- Node32 -->
<g id="Node000032" class="node">
<title>Node32</title>
<g id="a_Node000032"><a xlink:href="class_main_window.html#aaf47b9efe07432c5b5e1695954bee116" target="_top" xlink:title=" ">
<polygon fill="white" stroke="#666666" points="853.25,-210 681.25,-210 681.25,-190 853.25,-190 853.25,-210"/>
<text xml:space="preserve" text-anchor="middle" x="767.25" y="-196.5" font-family="Helvetica,sans-Serif" font-size="10.00">MainWindow::onAutoSaveTriggered</text>
</a>
</g>
</g>
<!-- Node31&#45;&gt;Node32 -->
<g id="edge39_Node000031_Node000032" class="edge">
<title>Node31&#45;&gt;Node32</title>
<g id="a_edge39_Node000031_Node000032"><a xlink:title=" ">
<path fill="none" stroke="#63b8ff" d="M903.48,-174.59C877.67,-179.44 848.49,-184.92 823.87,-189.55"/>
<polygon fill="#63b8ff" stroke="#63b8ff" points="904.03,-178.05 913.21,-172.76 902.74,-171.17 904.03,-178.05"/>
</a>
</g>
</g>
<!-- Node33 -->
<g id="Node000033" class="node">
<title>Node33</title>
<g id="a_Node000033"><a xlink:href="class_main_window.html#a7e65ffe1e01feb35cb7da90085d57f04" target="_top" xlink:title=" ">
<polygon fill="white" stroke="#666666" points="464.25,-205 319.25,-205 319.25,-185 464.25,-185 464.25,-205"/>
<text xml:space="preserve" text-anchor="middle" x="391.75" y="-191.5" font-family="Helvetica,sans-Serif" font-size="10.00">MainWindow::setupAutoSave</text>
</a>
</g>
</g>
<!-- Node32&#45;&gt;Node33 -->
<g id="edge40_Node000032_Node000033" class="edge">
<title>Node32&#45;&gt;Node33</title>
<g id="a_edge40_Node000032_Node000033"><a xlink:title=" ">
<path fill="none" stroke="#63b8ff" d="M669.71,-198.71C605.67,-197.85 523.01,-196.74 464.72,-195.96"/>
<polygon fill="#63b8ff" stroke="#63b8ff" points="669.47,-202.2 679.52,-198.84 669.56,-195.21 669.47,-202.2"/>
</a>
</g>
</g>
<!-- Node33&#45;&gt;Node27 -->
<g id="edge41_Node000033_Node000027" class="edge">
<title>Node33&#45;&gt;Node27</title>
<g id="a_edge41_Node000033_Node000027"><a xlink:title=" ">
<path fill="none" stroke="#63b8ff" d="M307.55,-186.49C253.83,-180.99 184.86,-173.93 134.78,-168.81"/>
<polygon fill="#63b8ff" stroke="#63b8ff" points="306.97,-189.94 317.27,-187.48 307.68,-182.98 306.97,-189.94"/>
</a>
</g>
</g>
<!-- Node34&#45;&gt;Node32 -->
<g id="edge43_Node000034_Node000032" class="edge">
<title>Node34&#45;&gt;Node32</title>
<g id="a_edge43_Node000034_Node000032"><a xlink:title=" ">
<path fill="none" stroke="#63b8ff" d="M877.56,-200C869.56,-200 861.48,-200 853.53,-200"/>
<polygon fill="#63b8ff" stroke="#63b8ff" points="877.31,-203.5 887.31,-200 877.31,-196.5 877.31,-203.5"/>
</a>
</g>
</g>
</g>
</svg>
