<?xml version="1.0" encoding="UTF-8" standalone="no"?>
<!DOCTYPE svg PUBLIC "-//W3C//DTD SVG 1.1//EN"
 "http://www.w3.org/Graphics/SVG/1.1/DTD/svg11.dtd">
<!-- Generated by graphviz version 14.1.1 (20251213.1925)
 -->
<!-- Title: Attribute::Attribute Pages: 1 -->
<svg width="1178pt" height="219pt"
 viewBox="0.00 0.00 1178.00 219.00" xmlns="http://www.w3.org/2000/svg" xmlns:xlink="http://www.w3.org/1999/xlink">
<g id="graph0" class="graph" transform="scale(1 1) rotate(0) translate(4 215)">
<title>Attribute::Attribute</title>
<!-- Node1 -->
<g id="Node000001" class="node">
<title>Node1</title>
<g id="a_Node000001"><a xlink:title=" ">
<polygon fill="#999999" stroke="#666666" points="95.5,-121 0,-121 0,-101 95.5,-101 95.5,-121"/>
<text xml:space="preserve" text-anchor="middle" x="47.75" y="-107.5" font-family="Helvetica,sans-Serif" font-size="10.00">Attribute::Attribute</text>
</a>
</g>
</g>
<!-- Node2 -->
<g id="Node000002" class="node">
<title>Node2</title>
<g id="a_Node000002"><a xlink:href="class_attribute.html#a119bae8069ee45c1e48122a79ea4b29e" target="_top" xlink:title=" ">
<polygon fill="white" stroke="#666666" points="227,-93 131.5,-93 131.5,-73 227,-73 227,-93"/>
<text xml:space="preserve" text-anchor="middle" x="179.25" y="-79.5" font-family="Helvetica,sans-Serif" font-size="10.00">Attribute::Attribute</text>
</a>
</g>
</g>
<!-- Node1&#45;&gt;Node2 -->
<g id="edge1_Node000001_Node000002" class="edge">
<title>Node1&#45;&gt;Node2</title>
<g id="a_edge1_Node000001_Node000002"><a xlink:title=" ">
<path fill="none" stroke="#63b8ff" d="M95.87,-100.81C103.82,-99.09 112.16,-97.29 120.35,-95.52"/>
<polygon fill="#63b8ff" stroke="#63b8ff" points="120.87,-98.99 129.9,-93.45 119.39,-92.15 120.87,-98.99"/>
</a>
</g>
</g>
<!-- Node3 -->
<g id="Node000003" class="node">
<title>Node3</title>
<g id="a_Node000003"><a xlink:href="class_basic_element.html#a85cccd7db0e46e4e2b646365cd6c66a9" target="_top" xlink:title=" ">
<polygon fill="white" stroke="#666666" points="406.5,-140 263,-140 263,-120 406.5,-120 406.5,-140"/>
<text xml:space="preserve" text-anchor="middle" x="334.75" y="-126.5" font-family="Helvetica,sans-Serif" font-size="10.00">BasicElement::BasicElement</text>
</a>
</g>
</g>
<!-- Node1&#45;&gt;Node3 -->
<g id="edge15_Node000001_Node000003" class="edge">
<title>Node1&#45;&gt;Node3</title>
<g id="a_edge15_Node000001_Node000003"><a xlink:title=" ">
<path fill="none" stroke="#63b8ff" d="M95.97,-116.62C107.57,-117.87 119.98,-119.09 131.5,-120 170.88,-123.11 214.66,-125.42 251.39,-127.03"/>
<polygon fill="#63b8ff" stroke="#63b8ff" points="250.9,-130.51 261.04,-127.44 251.19,-123.52 250.9,-130.51"/>
</a>
</g>
</g>
<!-- Node2&#45;&gt;Node2 -->
<g id="edge2_Node000002_Node000002" class="edge">
<title>Node2&#45;&gt;Node2</title>
<g id="a_edge2_Node000002_Node000002"><a xlink:title=" ">
<path fill="none" stroke="#63b8ff" d="M158.36,-93.34C149.43,-101.98 156.39,-111 179.25,-111 191.75,-111 199.5,-108.3 202.49,-104.44"/>
<polygon fill="#63b8ff" stroke="#63b8ff" points="205.95,-103.88 200.46,-94.82 199.1,-105.33 205.95,-103.88"/>
</a>
</g>
</g>
<!-- Node2&#45;&gt;Node3 -->
<g id="edge3_Node000002_Node000003" class="edge">
<title>Node2&#45;&gt;Node3</title>
<g id="a_edge3_Node000002_Node000003"><a xlink:title=" ">
<path fill="none" stroke="#63b8ff" d="M214.32,-93.43C236.2,-100.13 264.87,-108.91 288.64,-116.19"/>
<polygon fill="#63b8ff" stroke="#63b8ff" points="287.48,-119.49 298.07,-119.07 289.53,-112.8 287.48,-119.49"/>
</a>
</g>
</g>
<!-- Node10 -->
<g id="Node000010" class="node">
<title>Node10</title>
<g id="a_Node000010"><a xlink:href="class_attribute.html#a9fbfd8cb51abe1f5b3e85333eb3ba55a" target="_top" xlink:title=" ">
<polygon fill="white" stroke="#666666" points="393,-96 276.5,-96 276.5,-76 393,-76 393,-96"/>
<text xml:space="preserve" text-anchor="middle" x="334.75" y="-82.5" font-family="Helvetica,sans-Serif" font-size="10.00">Attribute::preferredSize</text>
</a>
</g>
</g>
<!-- Node2&#45;&gt;Node10 -->
<g id="edge10_Node000002_Node000010" class="edge">
<title>Node2&#45;&gt;Node10</title>
<g id="a_edge10_Node000002_Node000010"><a xlink:title=" ">
<path fill="none" stroke="#63b8ff" d="M227.14,-83.92C238.95,-84.15 251.88,-84.4 264.54,-84.65"/>
<polygon fill="#63b8ff" stroke="#63b8ff" points="264.46,-88.15 274.53,-84.84 264.6,-81.15 264.46,-88.15"/>
</a>
</g>
</g>
<!-- Node11 -->
<g id="Node000011" class="node">
<title>Node11</title>
<g id="a_Node000011"><a xlink:href="class_basic_element.html#ab86c964c6ef9e8d7299efc263a0837e7" target="_top" xlink:title=" ">
<polygon fill="white" stroke="#666666" points="392.62,-58 276.88,-58 276.88,-38 392.62,-38 392.62,-58"/>
<text xml:space="preserve" text-anchor="middle" x="334.75" y="-44.5" font-family="Helvetica,sans-Serif" font-size="10.00">BasicElement::setSize</text>
</a>
</g>
</g>
<!-- Node2&#45;&gt;Node11 -->
<g id="edge11_Node000002_Node000011" class="edge">
<title>Node2&#45;&gt;Node11</title>
<g id="a_edge11_Node000002_Node000011"><a xlink:title=" ">
<path fill="none" stroke="#63b8ff" d="M225.89,-72.59C241.91,-68.94 260.11,-64.79 276.93,-60.95"/>
<polygon fill="#63b8ff" stroke="#63b8ff" points="277.31,-64.46 286.28,-58.82 275.75,-57.63 277.31,-64.46"/>
</a>
</g>
</g>
<!-- Node4 -->
<g id="Node000004" class="node">
<title>Node4</title>
<g id="a_Node000004"><a xlink:href="class_basic_element.html#a78e2ce29aa5b2a9fae74cf435996ce8b" target="_top" xlink:title=" ">
<polygon fill="white" stroke="#666666" points="596.5,-186 452.25,-186 452.25,-154 596.5,-154 596.5,-186"/>
<text xml:space="preserve" text-anchor="start" x="460.25" y="-172.5" font-family="Helvetica,sans-Serif" font-size="10.00">BasicElement::createAndAdd</text>
<text xml:space="preserve" text-anchor="middle" x="524.38" y="-160.5" font-family="Helvetica,sans-Serif" font-size="10.00">DefaultConnectionPoints</text>
</a>
</g>
</g>
<!-- Node3&#45;&gt;Node4 -->
<g id="edge4_Node000003_Node000004" class="edge">
<title>Node3&#45;&gt;Node4</title>
<g id="a_edge4_Node000003_Node000004"><a xlink:title=" ">
<path fill="none" stroke="#63b8ff" d="M384.56,-140.41C401.71,-144.06 421.5,-148.28 440.66,-152.37"/>
<polygon fill="#63b8ff" stroke="#63b8ff" points="439.85,-155.77 450.36,-154.43 441.31,-148.93 439.85,-155.77"/>
</a>
</g>
</g>
<!-- Node9 -->
<g id="Node000009" class="node">
<title>Node9</title>
<g id="a_Node000009"><a xlink:href="class_basic_element.html#abb80391f2c11a0eb2fe2b21d53967450" target="_top" xlink:title=" ">
<polygon fill="white" stroke="#666666" points="606.25,-136 442.5,-136 442.5,-116 606.25,-116 606.25,-136"/>
<text xml:space="preserve" text-anchor="middle" x="524.38" y="-122.5" font-family="Helvetica,sans-Serif" font-size="10.00">BasicElement::stringElementType</text>
</a>
</g>
</g>
<!-- Node3&#45;&gt;Node9 -->
<g id="edge9_Node000003_Node000009" class="edge">
<title>Node3&#45;&gt;Node9</title>
<g id="a_edge9_Node000003_Node000009"><a xlink:title=" ">
<path fill="none" stroke="#63b8ff" d="M406.95,-128.48C414.77,-128.32 422.82,-128.14 430.85,-127.97"/>
<polygon fill="#63b8ff" stroke="#63b8ff" points="430.73,-131.48 440.66,-127.76 430.58,-124.48 430.73,-131.48"/>
</a>
</g>
</g>
<!-- Node5 -->
<g id="Node000005" class="node">
<title>Node5</title>
<g id="a_Node000005"><a xlink:href="class_basic_element.html#a0357bfa9b1ef06dd1c9d64bcb00813f4" target="_top" xlink:title=" ">
<polygon fill="white" stroke="#666666" points="792.5,-211 644.5,-211 644.5,-179 792.5,-179 792.5,-211"/>
<text xml:space="preserve" text-anchor="start" x="652.5" y="-197.5" font-family="Helvetica,sans-Serif" font-size="10.00">BasicElement::addConnection</text>
<text xml:space="preserve" text-anchor="middle" x="718.5" y="-185.5" font-family="Helvetica,sans-Serif" font-size="10.00">Point</text>
</a>
</g>
</g>
<!-- Node4&#45;&gt;Node5 -->
<g id="edge5_Node000004_Node000005" class="edge">
<title>Node4&#45;&gt;Node5</title>
<g id="a_edge5_Node000004_Node000005"><a xlink:title=" ">
<path fill="none" stroke="#63b8ff" d="M596.92,-179.31C608.64,-180.83 620.88,-182.43 632.89,-183.99"/>
<polygon fill="#63b8ff" stroke="#63b8ff" points="632.43,-187.46 642.8,-185.28 633.33,-180.52 632.43,-187.46"/>
</a>
</g>
</g>
<!-- Node6 -->
<g id="Node000006" class="node">
<title>Node6</title>
<g id="a_Node000006"><a xlink:href="class_connection_point.html#af57583f18ef35d9b3eafa83665e7ebe4" target="_top" xlink:title=" ">
<polygon fill="white" stroke="#666666" points="794.75,-161 642.25,-161 642.25,-129 794.75,-129 794.75,-161"/>
<text xml:space="preserve" text-anchor="start" x="650.25" y="-147.5" font-family="Helvetica,sans-Serif" font-size="10.00">ConnectionPoint::createDefault</text>
<text xml:space="preserve" text-anchor="middle" x="718.5" y="-135.5" font-family="Helvetica,sans-Serif" font-size="10.00">ConnectionPoints</text>
</a>
</g>
</g>
<!-- Node4&#45;&gt;Node6 -->
<g id="edge6_Node000004_Node000006" class="edge">
<title>Node4&#45;&gt;Node6</title>
<g id="a_edge6_Node000004_Node000006"><a xlink:title=" ">
<path fill="none" stroke="#63b8ff" d="M596.92,-160.69C607.96,-159.25 619.46,-157.76 630.79,-156.28"/>
<polygon fill="#63b8ff" stroke="#63b8ff" points="631.08,-159.78 640.54,-155.01 630.17,-152.83 631.08,-159.78"/>
</a>
</g>
</g>
<!-- Node7 -->
<g id="Node000007" class="node">
<title>Node7</title>
<g id="a_Node000007"><a xlink:href="class_connection_point.html#a7b8c2910eb504959c4211764a9abc2e8" target="_top" xlink:title=" ">
<polygon fill="white" stroke="#666666" points="990,-161 830.75,-161 830.75,-129 990,-129 990,-161"/>
<text xml:space="preserve" text-anchor="start" x="838.75" y="-147.5" font-family="Helvetica,sans-Serif" font-size="10.00">ConnectionPoint::addConnection</text>
<text xml:space="preserve" text-anchor="middle" x="910.38" y="-135.5" font-family="Helvetica,sans-Serif" font-size="10.00">Point</text>
</a>
</g>
</g>
<!-- Node6&#45;&gt;Node7 -->
<g id="edge7_Node000006_Node000007" class="edge">
<title>Node6&#45;&gt;Node7</title>
<g id="a_edge7_Node000006_Node000007"><a xlink:title=" ">
<path fill="none" stroke="#63b8ff" d="M795.09,-145C802.96,-145 811.02,-145 819.03,-145"/>
<polygon fill="#63b8ff" stroke="#63b8ff" points="818.8,-148.5 828.8,-145 818.8,-141.5 818.8,-148.5"/>
</a>
</g>
</g>
<!-- Node8 -->
<g id="Node000008" class="node">
<title>Node8</title>
<g id="a_Node000008"><a xlink:href="class_connection_point.html#ac498b99d7f91805fea3eab19f2e8b260" target="_top" xlink:title=" ">
<polygon fill="white" stroke="#666666" points="1169.5,-161 1026,-161 1026,-129 1169.5,-129 1169.5,-161"/>
<text xml:space="preserve" text-anchor="start" x="1034" y="-147.5" font-family="Helvetica,sans-Serif" font-size="10.00">ConnectionPoint::Connection</text>
<text xml:space="preserve" text-anchor="middle" x="1097.75" y="-135.5" font-family="Helvetica,sans-Serif" font-size="10.00">Point</text>
</a>
</g>
</g>
<!-- Node7&#45;&gt;Node8 -->
<g id="edge8_Node000007_Node000008" class="edge">
<title>Node7&#45;&gt;Node8</title>
<g id="a_edge8_Node000007_Node000008"><a xlink:title=" ">
<path fill="none" stroke="#63b8ff" d="M990.26,-145C998.14,-145 1006.15,-145 1014.07,-145"/>
<polygon fill="#63b8ff" stroke="#63b8ff" points="1014.06,-148.5 1024.06,-145 1014.06,-141.5 1014.06,-148.5"/>
</a>
</g>
</g>
<!-- Node12 -->
<g id="Node000012" class="node">
<title>Node12</title>
<g id="a_Node000012"><a xlink:href="class_basic_element.html#a2cb2eb803daa35380908948215f8d468" target="_top" xlink:title=" ">
<polygon fill="white" stroke="#666666" points="595.38,-96 453.38,-96 453.38,-76 595.38,-76 595.38,-96"/>
<text xml:space="preserve" text-anchor="middle" x="524.38" y="-82.5" font-family="Helvetica,sans-Serif" font-size="10.00">BasicElement::minimumSize</text>
</a>
</g>
</g>
<!-- Node11&#45;&gt;Node12 -->
<g id="edge12_Node000011_Node000012" class="edge">
<title>Node11&#45;&gt;Node12</title>
<g id="a_edge12_Node000011_Node000012"><a xlink:title=" ">
<path fill="none" stroke="#63b8ff" d="M387.52,-58.48C410.18,-63.07 436.96,-68.5 460.74,-73.31"/>
<polygon fill="#63b8ff" stroke="#63b8ff" points="459.8,-76.69 470.29,-75.25 461.19,-69.83 459.8,-76.69"/>
</a>
</g>
</g>
<!-- Node13 -->
<g id="Node000013" class="node">
<title>Node13</title>
<g id="a_Node000013"><a xlink:href="class_basic_element.html#a596caee40cdd00a0aacce49689b63f92" target="_top" xlink:title=" ">
<polygon fill="white" stroke="#666666" points="600.25,-58 448.5,-58 448.5,-38 600.25,-38 600.25,-58"/>
<text xml:space="preserve" text-anchor="middle" x="524.38" y="-44.5" font-family="Helvetica,sans-Serif" font-size="10.00">BasicElement::notifyObservers</text>
</a>
</g>
</g>
<!-- Node11&#45;&gt;Node13 -->
<g id="edge13_Node000011_Node000013" class="edge">
<title>Node11&#45;&gt;Node13</title>
<g id="a_edge13_Node000011_Node000013"><a xlink:title=" ">
<path fill="none" stroke="#63b8ff" d="M393.06,-48C406.89,-48 421.97,-48 436.81,-48"/>
<polygon fill="#63b8ff" stroke="#63b8ff" points="436.57,-51.5 446.56,-48 436.56,-44.5 436.57,-51.5"/>
</a>
</g>
</g>
<!-- Node14 -->
<g id="Node000014" class="node">
<title>Node14</title>
<g id="a_Node000014"><a xlink:href="class_basic_element.html#a542adbf85a58c5c9bf17975964d7e446" target="_top" xlink:title=" ">
<polygon fill="white" stroke="#666666" points="574.75,-20 474,-20 474,0 574.75,0 574.75,-20"/>
<text xml:space="preserve" text-anchor="middle" x="524.38" y="-6.5" font-family="Helvetica,sans-Serif" font-size="10.00">BasicElement::size</text>
</a>
</g>
</g>
<!-- Node11&#45;&gt;Node14 -->
<g id="edge14_Node000011_Node000014" class="edge">
<title>Node11&#45;&gt;Node14</title>
<g id="a_edge14_Node000011_Node000014"><a xlink:title=" ">
<path fill="none" stroke="#63b8ff" d="M387.52,-37.52C410.74,-32.81 438.29,-27.23 462.5,-22.33"/>
<polygon fill="#63b8ff" stroke="#63b8ff" points="463.13,-25.77 472.23,-20.36 461.74,-18.91 463.13,-25.77"/>
</a>
</g>
</g>
</g>
</svg>
