<?xml version="1.0" encoding="UTF-8" standalone="no"?>
<!DOCTYPE svg PUBLIC "-//W3C//DTD SVG 1.1//EN"
 "http://www.w3.org/Graphics/SVG/1.1/DTD/svg11.dtd">
<!-- Generated by graphviz version 14.1.1 (20251213.1925)
 -->
<!-- Title: RelationshipConnectionLine::RelationshipConnectionLine Pages: 1 -->
<svg width="917pt" height="404pt"
 viewBox="0.00 0.00 917.00 404.00" xmlns="http://www.w3.org/2000/svg" xmlns:xlink="http://www.w3.org/1999/xlink">
<g id="graph0" class="graph" transform="scale(1 1) rotate(0) translate(4 400)">
<title>RelationshipConnectionLine::RelationshipConnectionLine</title>
<!-- Node1 -->
<g id="Node000001" class="node">
<title>Node1</title>
<g id="a_Node000001"><a xlink:title=" ">
<polygon fill="#999999" stroke="#666666" points="143.5,-167 0,-167 0,-135 143.5,-135 143.5,-167"/>
<text xml:space="preserve" text-anchor="start" x="8" y="-153.5" font-family="Helvetica,sans-Serif" font-size="10.00">RelationshipConnectionLine</text>
<text xml:space="preserve" text-anchor="middle" x="71.75" y="-141.5" font-family="Helvetica,sans-Serif" font-size="10.00">::RelationshipConnectionLine</text>
</a>
</g>
</g>
<!-- Node2 -->
<g id="Node000002" class="node">
<title>Node2</title>
<g id="a_Node000002"><a xlink:href="class_connection_line.html#a657559dca679d5fd04ae565b442b6a8b" target="_top" xlink:title=" ">
<polygon fill="white" stroke="#666666" points="336.5,-208 179.5,-208 179.5,-188 336.5,-188 336.5,-208"/>
<text xml:space="preserve" text-anchor="middle" x="258" y="-194.5" font-family="Helvetica,sans-Serif" font-size="10.00">ConnectionLine::ConnectionLine</text>
</a>
</g>
</g>
<!-- Node1&#45;&gt;Node2 -->
<g id="edge1_Node000001_Node000002" class="edge">
<title>Node1&#45;&gt;Node2</title>
<g id="a_edge1_Node000001_Node000002"><a xlink:title=" ">
<path fill="none" stroke="#63b8ff" d="M137.19,-167.44C159.36,-173.09 183.88,-179.35 204.94,-184.72"/>
<polygon fill="#63b8ff" stroke="#63b8ff" points="203.9,-188.07 214.46,-187.15 205.63,-181.28 203.9,-188.07"/>
</a>
</g>
</g>
<!-- Node9 -->
<g id="Node000009" class="node">
<title>Node9</title>
<g id="a_Node000009"><a xlink:href="class_relationship_connection_line.html#a00e5304ae94f728128ec8b6476a74177" target="_top" xlink:title=" ">
<polygon fill="white" stroke="#666666" points="327.12,-120 188.88,-120 188.88,-88 327.12,-88 327.12,-120"/>
<text xml:space="preserve" text-anchor="start" x="196.88" y="-106.5" font-family="Helvetica,sans-Serif" font-size="10.00">RelationshipConnectionLine</text>
<text xml:space="preserve" text-anchor="middle" x="258" y="-94.5" font-family="Helvetica,sans-Serif" font-size="10.00">::connectToRelationshipEnd</text>
</a>
</g>
</g>
<!-- Node1&#45;&gt;Node9 -->
<g id="edge10_Node000001_Node000009" class="edge">
<title>Node1&#45;&gt;Node9</title>
<g id="a_edge10_Node000001_Node000009"><a xlink:title=" ">
<path fill="none" stroke="#63b8ff" d="M137.19,-134.56C151.5,-130.91 166.79,-127.01 181.49,-123.26"/>
<polygon fill="#63b8ff" stroke="#63b8ff" points="182.3,-126.67 191.13,-120.8 180.57,-119.88 182.3,-126.67"/>
</a>
</g>
</g>
<!-- Node3 -->
<g id="Node000003" class="node">
<title>Node3</title>
<g id="a_Node000003"><a xlink:href="class_connection_line.html#a836aef7faf5a4fb8a5a10bfc71dbabe3" target="_top" xlink:title=" ">
<polygon fill="white" stroke="#666666" points="525.75,-302 391.25,-302 391.25,-270 525.75,-270 525.75,-302"/>
<text xml:space="preserve" text-anchor="start" x="399.25" y="-288.5" font-family="Helvetica,sans-Serif" font-size="10.00">ConnectionLine::connectTo</text>
<text xml:space="preserve" text-anchor="middle" x="458.5" y="-276.5" font-family="Helvetica,sans-Serif" font-size="10.00">Points</text>
</a>
</g>
</g>
<!-- Node2&#45;&gt;Node3 -->
<g id="edge2_Node000002_Node000003" class="edge">
<title>Node2&#45;&gt;Node3</title>
<g id="a_edge2_Node000002_Node000003"><a xlink:title=" ">
<path fill="none" stroke="#63b8ff" d="M282.55,-208.44C313.85,-222.32 369.87,-247.15 410.1,-264.99"/>
<polygon fill="#63b8ff" stroke="#63b8ff" points="408.53,-268.12 419.09,-268.97 411.37,-261.72 408.53,-268.12"/>
</a>
</g>
</g>
<!-- Node4 -->
<g id="Node000004" class="node">
<title>Node4</title>
<g id="a_Node000004"><a xlink:href="class_connection_line.html#a53c863c51a284a7a8e6b35bc34bd2d34" target="_top" xlink:title=" ">
<polygon fill="white" stroke="#666666" points="733,-396 583.5,-396 583.5,-364 733,-364 733,-396"/>
<text xml:space="preserve" text-anchor="start" x="591.5" y="-382.5" font-family="Helvetica,sans-Serif" font-size="10.00">ConnectionLine::onConnection</text>
<text xml:space="preserve" text-anchor="middle" x="658.25" y="-370.5" font-family="Helvetica,sans-Serif" font-size="10.00">PointChanged</text>
</a>
</g>
</g>
<!-- Node3&#45;&gt;Node4 -->
<g id="edge3_Node000003_Node000004" class="edge">
<title>Node3&#45;&gt;Node4</title>
<g id="a_edge3_Node000003_Node000004"><a xlink:title=" ">
<path fill="none" stroke="#63b8ff" d="M484.67,-302.37C508.62,-317.45 546,-339.74 580.5,-355 584.07,-356.58 587.77,-358.11 591.53,-359.59"/>
<polygon fill="#63b8ff" stroke="#63b8ff" points="590.22,-362.83 600.81,-363.06 592.67,-356.28 590.22,-362.83"/>
</a>
</g>
</g>
<!-- Node6 -->
<g id="Node000006" class="node">
<title>Node6</title>
<g id="a_Node000006"><a xlink:href="class_connection_line.html#a4bce34a3f2fb1fd7145de2d9100c9173" target="_top" xlink:title=" ">
<polygon fill="white" stroke="#666666" points="726.25,-346 590.25,-346 590.25,-314 726.25,-314 726.25,-346"/>
<text xml:space="preserve" text-anchor="start" x="598.25" y="-332.5" font-family="Helvetica,sans-Serif" font-size="10.00">ConnectionLine::onElement</text>
<text xml:space="preserve" text-anchor="middle" x="658.25" y="-320.5" font-family="Helvetica,sans-Serif" font-size="10.00">PositionChanged</text>
</a>
</g>
</g>
<!-- Node3&#45;&gt;Node6 -->
<g id="edge6_Node000003_Node000006" class="edge">
<title>Node3&#45;&gt;Node6</title>
<g id="a_edge6_Node000003_Node000006"><a xlink:title=" ">
<path fill="none" stroke="#63b8ff" d="M526.17,-300.84C543.17,-304.62 561.58,-308.71 579.09,-312.61"/>
<polygon fill="#63b8ff" stroke="#63b8ff" points="577.86,-315.92 588.38,-314.68 579.38,-309.09 577.86,-315.92"/>
</a>
</g>
</g>
<!-- Node7 -->
<g id="Node000007" class="node">
<title>Node7</title>
<g id="a_Node000007"><a xlink:href="class_basic_element.html#a02183bafd7c80f9f1f99a9b9f1631524" target="_top" xlink:title=" ">
<polygon fill="white" stroke="#666666" points="736,-296 580.5,-296 580.5,-276 736,-276 736,-296"/>
<text xml:space="preserve" text-anchor="middle" x="658.25" y="-282.5" font-family="Helvetica,sans-Serif" font-size="10.00">BasicElement::positionChanged</text>
</a>
</g>
</g>
<!-- Node3&#45;&gt;Node7 -->
<g id="edge8_Node000003_Node000007" class="edge">
<title>Node3&#45;&gt;Node7</title>
<g id="a_edge8_Node000003_Node000007"><a xlink:title=" ">
<path fill="none" stroke="#63b8ff" d="M526.17,-286C539.89,-286 554.53,-286 568.87,-286"/>
<polygon fill="#63b8ff" stroke="#63b8ff" points="568.77,-289.5 578.77,-286 568.77,-282.5 568.77,-289.5"/>
</a>
</g>
</g>
<!-- Node8 -->
<g id="Node000008" class="node">
<title>Node8</title>
<g id="a_Node000008"><a xlink:href="class_connection_point.html#a851668ae19e97658f1818a40ea375f65" target="_top" xlink:title=" ">
<polygon fill="white" stroke="#666666" points="721,-258 595.5,-258 595.5,-226 721,-226 721,-258"/>
<text xml:space="preserve" text-anchor="start" x="603.5" y="-244.5" font-family="Helvetica,sans-Serif" font-size="10.00">ConnectionPoint::relative</text>
<text xml:space="preserve" text-anchor="middle" x="658.25" y="-232.5" font-family="Helvetica,sans-Serif" font-size="10.00">PositionChanged</text>
</a>
</g>
</g>
<!-- Node3&#45;&gt;Node8 -->
<g id="edge9_Node000003_Node000008" class="edge">
<title>Node3&#45;&gt;Node8</title>
<g id="a_edge9_Node000003_Node000008"><a xlink:title=" ">
<path fill="none" stroke="#63b8ff" d="M526.17,-271.16C544.83,-267.01 565.19,-262.48 584.2,-258.25"/>
<polygon fill="#63b8ff" stroke="#63b8ff" points="584.72,-261.72 593.72,-256.13 583.2,-254.89 584.72,-261.72"/>
</a>
</g>
</g>
<!-- Node5 -->
<g id="Node000005" class="node">
<title>Node5</title>
<g id="a_Node000005"><a xlink:href="class_connection_line.html#a9de44ae385d7941f3aa79da06e97d510" target="_top" xlink:title=" ">
<polygon fill="white" stroke="#666666" points="908.75,-280 772,-280 772,-248 908.75,-248 908.75,-280"/>
<text xml:space="preserve" text-anchor="start" x="780" y="-266.5" font-family="Helvetica,sans-Serif" font-size="10.00">ConnectionLine::connection</text>
<text xml:space="preserve" text-anchor="middle" x="840.38" y="-254.5" font-family="Helvetica,sans-Serif" font-size="10.00">Changed</text>
</a>
</g>
</g>
<!-- Node4&#45;&gt;Node5 -->
<g id="edge4_Node000004_Node000005" class="edge">
<title>Node4&#45;&gt;Node5</title>
<g id="a_edge4_Node000004_Node000005"><a xlink:title=" ">
<path fill="none" stroke="#63b8ff" d="M718.15,-363.58C724.34,-361.05 730.4,-358.19 736,-355 767.26,-337.17 797.49,-308.85 817.1,-288.54"/>
<polygon fill="#63b8ff" stroke="#63b8ff" points="819.45,-291.15 823.79,-281.48 814.37,-286.34 819.45,-291.15"/>
</a>
</g>
</g>
<!-- Node5&#45;&gt;Node2 -->
<g id="edge5_Node000005_Node000002" class="edge">
<title>Node5&#45;&gt;Node2</title>
<g id="a_edge5_Node000005_Node000002"><a xlink:title=" ">
<path fill="none" stroke="#63b8ff" d="M811.48,-247.72C791.25,-236.84 762.85,-223.38 736,-217 603.56,-185.53 444.71,-186.62 347.86,-191.45"/>
<polygon fill="#63b8ff" stroke="#63b8ff" points="347.97,-187.94 338.17,-191.96 348.34,-194.93 347.97,-187.94"/>
</a>
</g>
</g>
<!-- Node6&#45;&gt;Node5 -->
<g id="edge7_Node000006_Node000005" class="edge">
<title>Node6&#45;&gt;Node5</title>
<g id="a_edge7_Node000006_Node000005"><a xlink:title=" ">
<path fill="none" stroke="#63b8ff" d="M711.01,-313.63C719.39,-310.84 727.96,-307.9 736,-305 753.6,-298.65 772.68,-291.24 789.61,-284.47"/>
<polygon fill="#63b8ff" stroke="#63b8ff" points="790.46,-287.9 798.43,-280.92 787.85,-281.41 790.46,-287.9"/>
</a>
</g>
</g>
<!-- Node10 -->
<g id="Node000010" class="node">
<title>Node10</title>
<g id="a_Node000010"><a xlink:href="class_relationship_end.html#a428833c0b2339ae098d4b81dae5ee06b" target="_top" xlink:title=" ">
<polygon fill="white" stroke="#666666" points="527.25,-170 389.75,-170 389.75,-138 527.25,-138 527.25,-170"/>
<text xml:space="preserve" text-anchor="start" x="397.75" y="-156.5" font-family="Helvetica,sans-Serif" font-size="10.00">RelationshipEnd::cardinality</text>
<text xml:space="preserve" text-anchor="middle" x="458.5" y="-144.5" font-family="Helvetica,sans-Serif" font-size="10.00">Changed</text>
</a>
</g>
</g>
<!-- Node9&#45;&gt;Node10 -->
<g id="edge11_Node000009_Node000010" class="edge">
<title>Node9&#45;&gt;Node10</title>
<g id="a_edge11_Node000009_Node000010"><a xlink:title=" ">
<path fill="none" stroke="#63b8ff" d="M324.27,-120.44C342.5,-125.03 362.47,-130.06 381.28,-134.8"/>
<polygon fill="#63b8ff" stroke="#63b8ff" points="380.17,-138.13 390.72,-137.18 381.88,-131.34 380.17,-138.13"/>
</a>
</g>
</g>
<!-- Node11 -->
<g id="Node000011" class="node">
<title>Node11</title>
<g id="a_Node000011"><a xlink:href="class_relationship_end.html#aabe969de6fb68acfe7053465c004a74d" target="_top" xlink:title=" ">
<polygon fill="white" stroke="#666666" points="544.5,-120 372.5,-120 372.5,-88 544.5,-88 544.5,-120"/>
<text xml:space="preserve" text-anchor="start" x="380.5" y="-106.5" font-family="Helvetica,sans-Serif" font-size="10.00">RelationshipEnd::customCardinality</text>
<text xml:space="preserve" text-anchor="middle" x="458.5" y="-94.5" font-family="Helvetica,sans-Serif" font-size="10.00">TextChanged</text>
</a>
</g>
</g>
<!-- Node9&#45;&gt;Node11 -->
<g id="edge12_Node000009_Node000011" class="edge">
<title>Node9&#45;&gt;Node11</title>
<g id="a_edge12_Node000009_Node000011"><a xlink:title=" ">
<path fill="none" stroke="#63b8ff" d="M327.59,-104C338.35,-104 349.64,-104 360.88,-104"/>
<polygon fill="#63b8ff" stroke="#63b8ff" points="360.58,-107.5 370.58,-104 360.58,-100.5 360.58,-107.5"/>
</a>
</g>
</g>
<!-- Node12 -->
<g id="Node000012" class="node">
<title>Node12</title>
<g id="a_Node000012"><a xlink:href="class_relationship_connection_line.html#a5b1065964a03731df2da3883f650faa6" target="_top" xlink:title=" ">
<polygon fill="white" stroke="#666666" points="729.62,-123 586.88,-123 586.88,-91 729.62,-91 729.62,-123"/>
<text xml:space="preserve" text-anchor="start" x="594.88" y="-109.5" font-family="Helvetica,sans-Serif" font-size="10.00">RelationshipConnectionLine</text>
<text xml:space="preserve" text-anchor="middle" x="658.25" y="-97.5" font-family="Helvetica,sans-Serif" font-size="10.00">::onRelationshipEndChanged</text>
</a>
</g>
</g>
<!-- Node9&#45;&gt;Node12 -->
<g id="edge13_Node000009_Node000012" class="edge">
<title>Node9&#45;&gt;Node12</title>
<g id="a_edge13_Node000009_Node000012"><a xlink:title=" ">
<path fill="none" stroke="#63b8ff" d="M322.23,-87.53C338.5,-84 356.05,-80.79 372.5,-79 448.5,-70.73 468.62,-69.72 544.5,-79 559.88,-80.88 576.19,-84.16 591.48,-87.82"/>
<polygon fill="#63b8ff" stroke="#63b8ff" points="590.39,-91.15 600.94,-90.17 592.08,-84.36 590.39,-91.15"/>
</a>
</g>
</g>
<!-- Node13 -->
<g id="Node000013" class="node">
<title>Node13</title>
<g id="a_Node000013"><a xlink:href="class_relationship_end.html#a6e9e40441ae8b3ce493d71756d692a0c" target="_top" xlink:title=" ">
<polygon fill="white" stroke="#666666" points="541.5,-32 375.5,-32 375.5,0 541.5,0 541.5,-32"/>
<text xml:space="preserve" text-anchor="start" x="383.5" y="-18.5" font-family="Helvetica,sans-Serif" font-size="10.00">RelationshipEnd::totalParticipation</text>
<text xml:space="preserve" text-anchor="middle" x="458.5" y="-6.5" font-family="Helvetica,sans-Serif" font-size="10.00">Changed</text>
</a>
</g>
</g>
<!-- Node9&#45;&gt;Node13 -->
<g id="edge15_Node000009_Node000013" class="edge">
<title>Node9&#45;&gt;Node13</title>
<g id="a_edge15_Node000009_Node000013"><a xlink:title=" ">
<path fill="none" stroke="#63b8ff" d="M288.35,-87.63C310.97,-75.36 343.22,-58.58 372.5,-46 380.3,-42.65 388.61,-39.37 396.86,-36.29"/>
<polygon fill="#63b8ff" stroke="#63b8ff" points="398.02,-39.59 406.21,-32.87 395.61,-33.02 398.02,-39.59"/>
</a>
</g>
</g>
<!-- Node12&#45;&gt;Node5 -->
<g id="edge14_Node000012_Node000005" class="edge">
<title>Node12&#45;&gt;Node5</title>
<g id="a_edge14_Node000012_Node000005"><a xlink:title=" ">
<path fill="none" stroke="#63b8ff" d="M677.85,-123.21C709.8,-151.06 775.26,-208.11 812.28,-240.39"/>
<polygon fill="#63b8ff" stroke="#63b8ff" points="809.63,-242.72 819.47,-246.65 814.23,-237.44 809.63,-242.72"/>
</a>
</g>
</g>
</g>
</svg>
