<?xml version="1.0" encoding="UTF-8" standalone="no"?>
<!DOCTYPE svg PUBLIC "-//W3C//DTD SVG 1.1//EN"
 "http://www.w3.org/Graphics/SVG/1.1/DTD/svg11.dtd">
<!-- Generated by graphviz version 14.1.1 (20251213.1925)
 -->
<!-- Title: Entity::Entity Pages: 1 -->
<svg width="1122pt" height="356pt"
 viewBox="0.00 0.00 1122.00 356.00" xmlns="http://www.w3.org/2000/svg" xmlns:xlink="http://www.w3.org/1999/xlink">
<g id="graph0" class="graph" transform="scale(1 1) rotate(0) translate(4 352)">
<title>Entity::Entity</title>
<!-- Node1 -->
<g id="Node000001" class="node">
<title>Node1</title>
<g id="a_Node000001"><a xlink:title=" ">
<polygon fill="#999999" stroke="#666666" points="73,-198 0,-198 0,-178 73,-178 73,-198"/>
<text xml:space="preserve" text-anchor="middle" x="36.5" y="-184.5" font-family="Helvetica,sans-Serif" font-size="10.00">Entity::Entity</text>
</a>
</g>
</g>
<!-- Node2 -->
<g id="Node000002" class="node">
<title>Node2</title>
<g id="a_Node000002"><a xlink:href="class_basic_element.html#a85cccd7db0e46e4e2b646365cd6c66a9" target="_top" xlink:title=" ">
<polygon fill="white" stroke="#666666" points="361.5,-292 218,-292 218,-272 361.5,-272 361.5,-292"/>
<text xml:space="preserve" text-anchor="middle" x="289.75" y="-278.5" font-family="Helvetica,sans-Serif" font-size="10.00">BasicElement::BasicElement</text>
</a>
</g>
</g>
<!-- Node1&#45;&gt;Node2 -->
<g id="edge1_Node000001_Node000002" class="edge">
<title>Node1&#45;&gt;Node2</title>
<g id="a_edge1_Node000001_Node000002"><a xlink:title=" ">
<path fill="none" stroke="#63b8ff" d="M47.65,-198.21C60.69,-210.73 84.57,-231.66 109,-243 139.44,-257.13 175.19,-266.24 206.75,-272.06"/>
<polygon fill="#63b8ff" stroke="#63b8ff" points="205.78,-275.44 216.23,-273.72 206.99,-268.54 205.78,-275.44"/>
</a>
</g>
</g>
<!-- Node9 -->
<g id="Node000009" class="node">
<title>Node9</title>
<g id="a_Node000009"><a xlink:href="class_entity.html#a832667fda0ef14f127465d2837132244" target="_top" xlink:title=" ">
<polygon fill="white" stroke="#666666" points="182,-198 109,-198 109,-178 182,-178 182,-198"/>
<text xml:space="preserve" text-anchor="middle" x="145.5" y="-184.5" font-family="Helvetica,sans-Serif" font-size="10.00">Entity::Entity</text>
</a>
</g>
</g>
<!-- Node1&#45;&gt;Node9 -->
<g id="edge8_Node000001_Node000009" class="edge">
<title>Node1&#45;&gt;Node9</title>
<g id="a_edge8_Node000001_Node000009"><a xlink:title=" ">
<path fill="none" stroke="#63b8ff" d="M73.43,-188C81.18,-188 89.5,-188 97.6,-188"/>
<polygon fill="#63b8ff" stroke="#63b8ff" points="97.34,-191.5 107.34,-188 97.34,-184.5 97.34,-191.5"/>
</a>
</g>
</g>
<!-- Node10 -->
<g id="Node000010" class="node">
<title>Node10</title>
<g id="a_Node000010"><a xlink:href="class_entity.html#a237af8c74037b83ace59083cf9af53f4" target="_top" xlink:title=" ">
<polygon fill="white" stroke="#666666" points="342.38,-232 237.12,-232 237.12,-212 342.38,-212 342.38,-232"/>
<text xml:space="preserve" text-anchor="middle" x="289.75" y="-218.5" font-family="Helvetica,sans-Serif" font-size="10.00">Entity::preferredSize</text>
</a>
</g>
</g>
<!-- Node1&#45;&gt;Node10 -->
<g id="edge18_Node000001_Node000010" class="edge">
<title>Node1&#45;&gt;Node10</title>
<g id="a_edge18_Node000001_Node000010"><a xlink:title=" ">
<path fill="none" stroke="#63b8ff" d="M52.28,-198.34C66.18,-207.39 87.95,-219.88 109,-225 146.87,-234.22 190.57,-233.73 225.4,-230.81"/>
<polygon fill="#63b8ff" stroke="#63b8ff" points="225.71,-234.3 235.34,-229.88 225.06,-227.33 225.71,-234.3"/>
</a>
</g>
</g>
<!-- Node11 -->
<g id="Node000011" class="node">
<title>Node11</title>
<g id="a_Node000011"><a xlink:href="class_basic_element.html#ab86c964c6ef9e8d7299efc263a0837e7" target="_top" xlink:title=" ">
<polygon fill="white" stroke="#666666" points="347.62,-172 231.88,-172 231.88,-152 347.62,-152 347.62,-172"/>
<text xml:space="preserve" text-anchor="middle" x="289.75" y="-158.5" font-family="Helvetica,sans-Serif" font-size="10.00">BasicElement::setSize</text>
</a>
</g>
</g>
<!-- Node1&#45;&gt;Node11 -->
<g id="edge24_Node000001_Node000011" class="edge">
<title>Node1&#45;&gt;Node11</title>
<g id="a_edge24_Node000001_Node000011"><a xlink:title=" ">
<path fill="none" stroke="#63b8ff" d="M70.64,-177.56C82.61,-174.23 96.3,-170.91 109,-169 145.49,-163.51 186.58,-161.6 220.26,-161.13"/>
<polygon fill="#63b8ff" stroke="#63b8ff" points="219.9,-164.63 229.86,-161.04 219.83,-157.63 219.9,-164.63"/>
</a>
</g>
</g>
<!-- Node17 -->
<g id="Node000017" class="node">
<title>Node17</title>
<g id="a_Node000017"><a xlink:href="class_basic_element.html#a42ea6812e7627bb99af54cab547aa803" target="_top" xlink:title=" ">
<polygon fill="white" stroke="#666666" points="351,-96 228.5,-96 228.5,-76 351,-76 351,-96"/>
<text xml:space="preserve" text-anchor="middle" x="289.75" y="-82.5" font-family="Helvetica,sans-Serif" font-size="10.00">BasicElement::setName</text>
</a>
</g>
</g>
<!-- Node1&#45;&gt;Node17 -->
<g id="edge19_Node000001_Node000017" class="edge">
<title>Node1&#45;&gt;Node17</title>
<g id="a_edge19_Node000001_Node000017"><a xlink:title=" ">
<path fill="none" stroke="#63b8ff" d="M61.95,-177.63C75.74,-171.8 93.31,-164.43 109,-158 158.19,-137.83 215.2,-115.11 251.6,-100.68"/>
<polygon fill="#63b8ff" stroke="#63b8ff" points="252.78,-103.97 260.79,-97.04 250.21,-97.46 252.78,-103.97"/>
</a>
</g>
</g>
<!-- Node3 -->
<g id="Node000003" class="node">
<title>Node3</title>
<g id="a_Node000003"><a xlink:href="class_basic_element.html#a028ebc6c9de8f0b90af0e7daef9549f8" target="_top" xlink:title=" ">
<polygon fill="white" stroke="#666666" points="547.38,-298 406.12,-298 406.12,-266 547.38,-266 547.38,-298"/>
<text xml:space="preserve" text-anchor="start" x="414.12" y="-284.5" font-family="Helvetica,sans-Serif" font-size="10.00">BasicElement::createDefault</text>
<text xml:space="preserve" text-anchor="middle" x="476.75" y="-272.5" font-family="Helvetica,sans-Serif" font-size="10.00">ConnectionPoints</text>
</a>
</g>
</g>
<!-- Node2&#45;&gt;Node3 -->
<g id="edge2_Node000002_Node000003" class="edge">
<title>Node2&#45;&gt;Node3</title>
<g id="a_edge2_Node000002_Node000003"><a xlink:title=" ">
<path fill="none" stroke="#63b8ff" d="M361.75,-282C372.49,-282 383.63,-282 394.57,-282"/>
<polygon fill="#63b8ff" stroke="#63b8ff" points="394.35,-285.5 404.35,-282 394.35,-278.5 394.35,-285.5"/>
</a>
</g>
</g>
<!-- Node8 -->
<g id="Node000008" class="node">
<title>Node8</title>
<g id="a_Node000008"><a xlink:href="class_basic_element.html#a01a6511d922708fe0042474740109152" target="_top" xlink:title=" ">
<polygon fill="white" stroke="#666666" points="545.88,-348 407.62,-348 407.62,-316 545.88,-316 545.88,-348"/>
<text xml:space="preserve" text-anchor="start" x="415.62" y="-334.5" font-family="Helvetica,sans-Serif" font-size="10.00">BasicElement::elementType</text>
<text xml:space="preserve" text-anchor="middle" x="476.75" y="-322.5" font-family="Helvetica,sans-Serif" font-size="10.00">ToString</text>
</a>
</g>
</g>
<!-- Node2&#45;&gt;Node8 -->
<g id="edge7_Node000002_Node000008" class="edge">
<title>Node2&#45;&gt;Node8</title>
<g id="a_edge7_Node000002_Node000008"><a xlink:title=" ">
<path fill="none" stroke="#63b8ff" d="M329.53,-292.48C351.04,-298.29 378.47,-305.71 403.75,-312.54"/>
<polygon fill="#63b8ff" stroke="#63b8ff" points="402.78,-315.9 413.35,-315.13 404.61,-309.15 402.78,-315.9"/>
</a>
</g>
</g>
<!-- Node4 -->
<g id="Node000004" class="node">
<title>Node4</title>
<g id="a_Node000004"><a xlink:href="class_basic_element.html#a0357bfa9b1ef06dd1c9d64bcb00813f4" target="_top" xlink:title=" ">
<polygon fill="white" stroke="#666666" points="742.25,-323 594.25,-323 594.25,-291 742.25,-291 742.25,-323"/>
<text xml:space="preserve" text-anchor="start" x="602.25" y="-309.5" font-family="Helvetica,sans-Serif" font-size="10.00">BasicElement::addConnection</text>
<text xml:space="preserve" text-anchor="middle" x="668.25" y="-297.5" font-family="Helvetica,sans-Serif" font-size="10.00">Point</text>
</a>
</g>
</g>
<!-- Node3&#45;&gt;Node4 -->
<g id="edge3_Node000003_Node000004" class="edge">
<title>Node3&#45;&gt;Node4</title>
<g id="a_edge3_Node000003_Node000004"><a xlink:title=" ">
<path fill="none" stroke="#63b8ff" d="M547.77,-291.24C559.2,-292.75 571.14,-294.32 582.87,-295.87"/>
<polygon fill="#63b8ff" stroke="#63b8ff" points="582.15,-299.3 592.52,-297.14 583.06,-292.36 582.15,-299.3"/>
</a>
</g>
</g>
<!-- Node5 -->
<g id="Node000005" class="node">
<title>Node5</title>
<g id="a_Node000005"><a xlink:href="class_connection_point.html#a9de406389d93810151498693037eeb95" target="_top" xlink:title=" ">
<polygon fill="white" stroke="#666666" points="744.5,-273 592,-273 592,-241 744.5,-241 744.5,-273"/>
<text xml:space="preserve" text-anchor="start" x="600" y="-259.5" font-family="Helvetica,sans-Serif" font-size="10.00">ConnectionPoint::createDefault</text>
<text xml:space="preserve" text-anchor="middle" x="668.25" y="-247.5" font-family="Helvetica,sans-Serif" font-size="10.00">ConnectionPoints</text>
</a>
</g>
</g>
<!-- Node3&#45;&gt;Node5 -->
<g id="edge4_Node000003_Node000005" class="edge">
<title>Node3&#45;&gt;Node5</title>
<g id="a_edge4_Node000003_Node000005"><a xlink:title=" ">
<path fill="none" stroke="#63b8ff" d="M547.77,-272.76C558.42,-271.36 569.51,-269.89 580.45,-268.45"/>
<polygon fill="#63b8ff" stroke="#63b8ff" points="580.83,-271.93 590.28,-267.15 579.91,-264.99 580.83,-271.93"/>
</a>
</g>
</g>
<!-- Node6 -->
<g id="Node000006" class="node">
<title>Node6</title>
<g id="a_Node000006"><a xlink:href="class_connection_point.html#a8977265b0868dad361fcbeec5a89bdeb" target="_top" xlink:title=" ">
<polygon fill="white" stroke="#666666" points="934.5,-273 780.5,-273 780.5,-241 934.5,-241 934.5,-273"/>
<text xml:space="preserve" text-anchor="start" x="788.5" y="-259.5" font-family="Helvetica,sans-Serif" font-size="10.00">ConnectionPoint::addConection</text>
<text xml:space="preserve" text-anchor="middle" x="857.5" y="-247.5" font-family="Helvetica,sans-Serif" font-size="10.00">Point</text>
</a>
</g>
</g>
<!-- Node5&#45;&gt;Node6 -->
<g id="edge5_Node000005_Node000006" class="edge">
<title>Node5&#45;&gt;Node6</title>
<g id="a_edge5_Node000005_Node000006"><a xlink:title=" ">
<path fill="none" stroke="#63b8ff" d="M744.87,-257C752.81,-257 760.92,-257 768.97,-257"/>
<polygon fill="#63b8ff" stroke="#63b8ff" points="768.78,-260.5 778.78,-257 768.78,-253.5 768.78,-260.5"/>
</a>
</g>
</g>
<!-- Node7 -->
<g id="Node000007" class="node">
<title>Node7</title>
<g id="a_Node000007"><a xlink:href="class_connection_point.html#ac498b99d7f91805fea3eab19f2e8b260" target="_top" xlink:title=" ">
<polygon fill="white" stroke="#666666" points="1114,-273 970.5,-273 970.5,-241 1114,-241 1114,-273"/>
<text xml:space="preserve" text-anchor="start" x="978.5" y="-259.5" font-family="Helvetica,sans-Serif" font-size="10.00">ConnectionPoint::Connection</text>
<text xml:space="preserve" text-anchor="middle" x="1042.25" y="-247.5" font-family="Helvetica,sans-Serif" font-size="10.00">Point</text>
</a>
</g>
</g>
<!-- Node6&#45;&gt;Node7 -->
<g id="edge6_Node000006_Node000007" class="edge">
<title>Node6&#45;&gt;Node7</title>
<g id="a_edge6_Node000006_Node000007"><a xlink:title=" ">
<path fill="none" stroke="#63b8ff" d="M934.94,-257C942.76,-257 950.73,-257 958.62,-257"/>
<polygon fill="#63b8ff" stroke="#63b8ff" points="958.56,-260.5 968.56,-257 958.56,-253.5 958.56,-260.5"/>
</a>
</g>
</g>
<!-- Node9&#45;&gt;Node2 -->
<g id="edge9_Node000009_Node000002" class="edge">
<title>Node9&#45;&gt;Node2</title>
<g id="a_edge9_Node000009_Node000002"><a xlink:title=" ">
<path fill="none" stroke="#63b8ff" d="M159.62,-198.42C173.72,-209.46 196.95,-227.16 218,-241 231.39,-249.8 246.72,-258.81 259.68,-266.13"/>
<polygon fill="#63b8ff" stroke="#63b8ff" points="257.72,-269.05 268.16,-270.87 261.14,-262.94 257.72,-269.05"/>
</a>
</g>
</g>
<!-- Node9&#45;&gt;Node9 -->
<g id="edge10_Node000009_Node000009" class="edge">
<title>Node9&#45;&gt;Node9</title>
<g id="a_edge10_Node000009_Node000009"><a xlink:title=" ">
<path fill="none" stroke="#63b8ff" d="M128.18,-198.34C120.78,-206.98 126.55,-216 145.5,-216 155.86,-216 162.28,-213.3 164.77,-209.44"/>
<polygon fill="#63b8ff" stroke="#63b8ff" points="168.25,-209.08 163.08,-199.83 161.36,-210.28 168.25,-209.08"/>
</a>
</g>
</g>
<!-- Node9&#45;&gt;Node10 -->
<g id="edge11_Node000009_Node000010" class="edge">
<title>Node9&#45;&gt;Node10</title>
<g id="a_edge11_Node000009_Node000010"><a xlink:title=" ">
<path fill="none" stroke="#63b8ff" d="M182.4,-196.58C197.99,-200.31 216.61,-204.76 233.88,-208.89"/>
<polygon fill="#63b8ff" stroke="#63b8ff" points="232.98,-212.27 243.52,-211.19 234.6,-205.46 232.98,-212.27"/>
</a>
</g>
</g>
<!-- Node9&#45;&gt;Node11 -->
<g id="edge12_Node000009_Node000011" class="edge">
<title>Node9&#45;&gt;Node11</title>
<g id="a_edge12_Node000009_Node000011"><a xlink:title=" ">
<path fill="none" stroke="#63b8ff" d="M182.4,-181.44C194.03,-179.31 207.36,-176.88 220.54,-174.47"/>
<polygon fill="#63b8ff" stroke="#63b8ff" points="220.85,-177.97 230.06,-172.73 219.6,-171.08 220.85,-177.97"/>
</a>
</g>
</g>
<!-- Node12 -->
<g id="Node000012" class="node">
<title>Node12</title>
<g id="a_Node000012"><a xlink:href="class_basic_element.html#ad1b7a593fb82e872041b342abd157088" target="_top" xlink:title=" ">
<polygon fill="white" stroke="#666666" points="554.88,-134 398.62,-134 398.62,-114 554.88,-114 554.88,-134"/>
<text xml:space="preserve" text-anchor="middle" x="476.75" y="-120.5" font-family="Helvetica,sans-Serif" font-size="10.00">BasicElement::elementChanged</text>
</a>
</g>
</g>
<!-- Node11&#45;&gt;Node12 -->
<g id="edge13_Node000011_Node000012" class="edge">
<title>Node11&#45;&gt;Node12</title>
<g id="a_edge13_Node000011_Node000012"><a xlink:title=" ">
<path fill="none" stroke="#63b8ff" d="M341.79,-151.52C364.03,-146.95 390.31,-141.55 413.67,-136.75"/>
<polygon fill="#63b8ff" stroke="#63b8ff" points="414.3,-140.2 423.39,-134.75 412.89,-133.34 414.3,-140.2"/>
</a>
</g>
</g>
<!-- Node13 -->
<g id="Node000013" class="node">
<title>Node13</title>
<g id="a_Node000013"><a xlink:href="class_basic_element.html#a2cb2eb803daa35380908948215f8d468" target="_top" xlink:title=" ">
<polygon fill="white" stroke="#666666" points="547.75,-248 405.75,-248 405.75,-228 547.75,-228 547.75,-248"/>
<text xml:space="preserve" text-anchor="middle" x="476.75" y="-234.5" font-family="Helvetica,sans-Serif" font-size="10.00">BasicElement::minimumSize</text>
</a>
</g>
</g>
<!-- Node11&#45;&gt;Node13 -->
<g id="edge14_Node000011_Node000013" class="edge">
<title>Node11&#45;&gt;Node13</title>
<g id="a_edge14_Node000011_Node000013"><a xlink:title=" ">
<path fill="none" stroke="#63b8ff" d="M307.14,-172.45C327.58,-185.07 363.93,-206.2 397.5,-219 402.75,-221 408.29,-222.85 413.88,-224.53"/>
<polygon fill="#63b8ff" stroke="#63b8ff" points="412.64,-227.81 423.21,-227.16 414.54,-221.08 412.64,-227.81"/>
</a>
</g>
</g>
<!-- Node14 -->
<g id="Node000014" class="node">
<title>Node14</title>
<g id="a_Node000014"><a xlink:href="class_basic_element.html#a596caee40cdd00a0aacce49689b63f92" target="_top" xlink:title=" ">
<polygon fill="white" stroke="#666666" points="552.62,-96 400.88,-96 400.88,-76 552.62,-76 552.62,-96"/>
<text xml:space="preserve" text-anchor="middle" x="476.75" y="-82.5" font-family="Helvetica,sans-Serif" font-size="10.00">BasicElement::notifyObservers</text>
</a>
</g>
</g>
<!-- Node11&#45;&gt;Node14 -->
<g id="edge15_Node000011_Node000014" class="edge">
<title>Node11&#45;&gt;Node14</title>
<g id="a_edge15_Node000011_Node000014"><a xlink:title=" ">
<path fill="none" stroke="#63b8ff" d="M307.14,-151.55C327.58,-138.93 363.93,-117.8 397.5,-105 402.75,-103 408.29,-101.15 413.88,-99.47"/>
<polygon fill="#63b8ff" stroke="#63b8ff" points="414.54,-102.92 423.21,-96.84 412.64,-96.19 414.54,-102.92"/>
</a>
</g>
</g>
<!-- Node15 -->
<g id="Node000015" class="node">
<title>Node15</title>
<g id="a_Node000015"><a xlink:href="class_basic_element.html#aafd52d1fae2f0b7666ae15bcbb3782c2" target="_top" xlink:title=" ">
<polygon fill="white" stroke="#666666" points="552.62,-210 400.88,-210 400.88,-190 552.62,-190 552.62,-210"/>
<text xml:space="preserve" text-anchor="middle" x="476.75" y="-196.5" font-family="Helvetica,sans-Serif" font-size="10.00">BasicElement::onSizeChanged</text>
</a>
</g>
</g>
<!-- Node11&#45;&gt;Node15 -->
<g id="edge16_Node000011_Node000015" class="edge">
<title>Node11&#45;&gt;Node15</title>
<g id="a_edge16_Node000011_Node000015"><a xlink:title=" ">
<path fill="none" stroke="#63b8ff" d="M341.79,-172.48C364.03,-177.05 390.31,-182.45 413.67,-187.25"/>
<polygon fill="#63b8ff" stroke="#63b8ff" points="412.89,-190.66 423.39,-189.25 414.3,-183.8 412.89,-190.66"/>
</a>
</g>
</g>
<!-- Node16 -->
<g id="Node000016" class="node">
<title>Node16</title>
<g id="a_Node000016"><a xlink:href="class_basic_element.html#a5af654d8bb5e16b44121f69c832037b8" target="_top" xlink:title=" ">
<polygon fill="white" stroke="#666666" points="546.62,-172 406.88,-172 406.88,-152 546.62,-152 546.62,-172"/>
<text xml:space="preserve" text-anchor="middle" x="476.75" y="-158.5" font-family="Helvetica,sans-Serif" font-size="10.00">BasicElement::sizeChanged</text>
</a>
</g>
</g>
<!-- Node11&#45;&gt;Node16 -->
<g id="edge17_Node000011_Node000016" class="edge">
<title>Node11&#45;&gt;Node16</title>
<g id="a_edge17_Node000011_Node000016"><a xlink:title=" ">
<path fill="none" stroke="#63b8ff" d="M348.02,-162C362.88,-162 379.16,-162 394.98,-162"/>
<polygon fill="#63b8ff" stroke="#63b8ff" points="394.88,-165.5 404.88,-162 394.88,-158.5 394.88,-165.5"/>
</a>
</g>
</g>
<!-- Node17&#45;&gt;Node12 -->
<g id="edge20_Node000017_Node000012" class="edge">
<title>Node17&#45;&gt;Node12</title>
<g id="a_edge20_Node000017_Node000012"><a xlink:title=" ">
<path fill="none" stroke="#63b8ff" d="M341.79,-96.48C364.03,-101.05 390.31,-106.45 413.67,-111.25"/>
<polygon fill="#63b8ff" stroke="#63b8ff" points="412.89,-114.66 423.39,-113.25 414.3,-107.8 412.89,-114.66"/>
</a>
</g>
</g>
<!-- Node17&#45;&gt;Node14 -->
<g id="edge22_Node000017_Node000014" class="edge">
<title>Node17&#45;&gt;Node14</title>
<g id="a_edge22_Node000017_Node000014"><a xlink:title=" ">
<path fill="none" stroke="#63b8ff" d="M351.33,-86C363.47,-86 376.45,-86 389.28,-86"/>
<polygon fill="#63b8ff" stroke="#63b8ff" points="388.97,-89.5 398.97,-86 388.97,-82.5 388.97,-89.5"/>
</a>
</g>
</g>
<!-- Node18 -->
<g id="Node000018" class="node">
<title>Node18</title>
<g id="a_Node000018"><a xlink:href="class_basic_element.html#a6f92f7b59a12584c3156fb10ff989de7" target="_top" xlink:title=" ">
<polygon fill="white" stroke="#666666" points="549.62,-58 403.88,-58 403.88,-38 549.62,-38 549.62,-58"/>
<text xml:space="preserve" text-anchor="middle" x="476.75" y="-44.5" font-family="Helvetica,sans-Serif" font-size="10.00">BasicElement::nameChanged</text>
</a>
</g>
</g>
<!-- Node17&#45;&gt;Node18 -->
<g id="edge21_Node000017_Node000018" class="edge">
<title>Node17&#45;&gt;Node18</title>
<g id="a_edge21_Node000017_Node000018"><a xlink:title=" ">
<path fill="none" stroke="#63b8ff" d="M341.79,-75.52C364.03,-70.95 390.31,-65.55 413.67,-60.75"/>
<polygon fill="#63b8ff" stroke="#63b8ff" points="414.3,-64.2 423.39,-58.75 412.89,-57.34 414.3,-64.2"/>
</a>
</g>
</g>
<!-- Node19 -->
<g id="Node000019" class="node">
<title>Node19</title>
<g id="a_Node000019"><a xlink:href="class_basic_element.html#abbbba80c62762cb0ff0866e4aa650b42" target="_top" xlink:title=" ">
<polygon fill="white" stroke="#666666" points="556,-20 397.5,-20 397.5,0 556,0 556,-20"/>
<text xml:space="preserve" text-anchor="middle" x="476.75" y="-6.5" font-family="Helvetica,sans-Serif" font-size="10.00">BasicElement::onNameChanged</text>
</a>
</g>
</g>
<!-- Node17&#45;&gt;Node19 -->
<g id="edge23_Node000017_Node000019" class="edge">
<title>Node17&#45;&gt;Node19</title>
<g id="a_edge23_Node000017_Node000019"><a xlink:title=" ">
<path fill="none" stroke="#63b8ff" d="M307.14,-75.55C327.58,-62.93 363.93,-41.8 397.5,-29 402.75,-27 408.29,-25.15 413.88,-23.47"/>
<polygon fill="#63b8ff" stroke="#63b8ff" points="414.54,-26.92 423.21,-20.84 412.64,-20.19 414.54,-26.92"/>
</a>
</g>
</g>
</g>
</svg>
