<?xml version="1.0" encoding="UTF-8" standalone="no"?>
<!DOCTYPE svg PUBLIC "-//W3C//DTD SVG 1.1//EN"
 "http://www.w3.org/Graphics/SVG/1.1/DTD/svg11.dtd">
<!-- Generated by graphviz version 14.1.1 (20251213.1925)
 -->
<!-- Title: MainWindow::createMenuBar Pages: 1 -->
<svg width="1659pt" height="423pt"
 viewBox="0.00 0.00 1659.00 423.00" xmlns="http://www.w3.org/2000/svg" xmlns:xlink="http://www.w3.org/1999/xlink">
<g id="graph0" class="graph" transform="scale(1 1) rotate(0) translate(4 419)">
<title>MainWindow::createMenuBar</title>
<!-- Node1 -->
<g id="Node000001" class="node">
<title>Node1</title>
<g id="a_Node000001"><a xlink:title=" ">
<polygon fill="#999999" stroke="#666666" points="144.25,-282 0,-282 0,-262 144.25,-262 144.25,-282"/>
<text xml:space="preserve" text-anchor="middle" x="72.12" y="-268.5" font-family="Helvetica,sans-Serif" font-size="10.00">MainWindow::createMenuBar</text>
</a>
</g>
</g>
<!-- Node2 -->
<g id="Node000002" class="node">
<title>Node2</title>
<g id="a_Node000002"><a xlink:href="class_main_window.html#aaf455232cccaa422fc4c371fa99bff84" target="_top" xlink:title=" ">
<polygon fill="white" stroke="#666666" points="327.5,-244 182.5,-244 182.5,-224 327.5,-224 327.5,-244"/>
<text xml:space="preserve" text-anchor="middle" x="255" y="-230.5" font-family="Helvetica,sans-Serif" font-size="10.00">MainWindow::createFileMenu</text>
</a>
</g>
</g>
<!-- Node1&#45;&gt;Node2 -->
<g id="edge1_Node000001_Node000002" class="edge">
<title>Node1&#45;&gt;Node2</title>
<g id="a_edge1_Node000001_Node000002"><a xlink:title=" ">
<path fill="none" stroke="#63b8ff" d="M123.03,-261.52C144.68,-256.97 170.23,-251.6 192.99,-246.82"/>
<polygon fill="#63b8ff" stroke="#63b8ff" points="193.71,-250.24 202.78,-244.76 192.27,-243.39 193.71,-250.24"/>
</a>
</g>
</g>
<!-- Node26 -->
<g id="Node000026" class="node">
<title>Node26</title>
<g id="a_Node000026"><a xlink:href="class_main_window.html#a02e77ad39637c2db66227e8f8954adcb" target="_top" xlink:title=" ">
<polygon fill="white" stroke="#666666" points="329.75,-358 180.25,-358 180.25,-338 329.75,-338 329.75,-358"/>
<text xml:space="preserve" text-anchor="middle" x="255" y="-344.5" font-family="Helvetica,sans-Serif" font-size="10.00">MainWindow::createHelpMenu</text>
</a>
</g>
</g>
<!-- Node1&#45;&gt;Node26 -->
<g id="edge34_Node000001_Node000026" class="edge">
<title>Node1&#45;&gt;Node26</title>
<g id="a_edge34_Node000001_Node000026"><a xlink:title=" ">
<path fill="none" stroke="#63b8ff" d="M97.9,-282.41C129.2,-295.56 183.27,-318.28 218.84,-333.23"/>
<polygon fill="#63b8ff" stroke="#63b8ff" points="217.27,-336.36 227.84,-337.01 219.98,-329.91 217.27,-336.36"/>
</a>
</g>
</g>
<!-- Node3 -->
<g id="Node000003" class="node">
<title>Node3</title>
<g id="a_Node000003"><a xlink:href="class_main_window.html#adc645337d8ad9b2b9300f13e251fb5cb" target="_top" xlink:title=" ">
<polygon fill="white" stroke="#666666" points="503.25,-339 370.25,-339 370.25,-319 503.25,-319 503.25,-339"/>
<text xml:space="preserve" text-anchor="middle" x="436.75" y="-325.5" font-family="Helvetica,sans-Serif" font-size="10.00">MainWindow::createAction</text>
</a>
</g>
</g>
<!-- Node2&#45;&gt;Node3 -->
<g id="edge2_Node000002_Node000003" class="edge">
<title>Node2&#45;&gt;Node3</title>
<g id="a_edge2_Node000002_Node000003"><a xlink:title=" ">
<path fill="none" stroke="#63b8ff" d="M269.56,-244.34C289.68,-259.3 329.01,-287.15 365.75,-305 373.14,-308.59 381.2,-311.88 389.14,-314.8"/>
<polygon fill="#63b8ff" stroke="#63b8ff" points="387.8,-318.04 398.39,-318.05 390.12,-311.44 387.8,-318.04"/>
</a>
</g>
</g>
<!-- Node4 -->
<g id="Node000004" class="node">
<title>Node4</title>
<g id="a_Node000004"><a xlink:href="class_main_window.html#ab1ad4dd7adf6066b3c4cc3b7154eaf65" target="_top" xlink:title=" ">
<polygon fill="white" stroke="#666666" points="507.75,-187 365.75,-187 365.75,-167 507.75,-167 507.75,-187"/>
<text xml:space="preserve" text-anchor="middle" x="436.75" y="-173.5" font-family="Helvetica,sans-Serif" font-size="10.00">MainWindow::exitApplication</text>
</a>
</g>
</g>
<!-- Node2&#45;&gt;Node4 -->
<g id="edge3_Node000002_Node000004" class="edge">
<title>Node2&#45;&gt;Node4</title>
<g id="a_edge3_Node000002_Node000004"><a xlink:title=" ">
<path fill="none" stroke="#63b8ff" d="M284.25,-223.62C306.31,-215.66 337.81,-204.62 365.75,-196 371.84,-194.12 378.26,-192.24 384.64,-190.44"/>
<polygon fill="#63b8ff" stroke="#63b8ff" points="385.11,-193.94 393.81,-187.89 383.24,-187.19 385.11,-193.94"/>
</a>
</g>
</g>
<!-- Node5 -->
<g id="Node000005" class="node">
<title>Node5</title>
<g id="a_Node000005"><a xlink:href="class_main_window.html#a1d019681beef43511b35dec6f27d2077" target="_top" xlink:title=" ">
<polygon fill="white" stroke="#666666" points="701.88,-377 559.88,-377 559.88,-357 701.88,-357 701.88,-377"/>
<text xml:space="preserve" text-anchor="middle" x="630.88" y="-363.5" font-family="Helvetica,sans-Serif" font-size="10.00">MainWindow::exportDiagram</text>
</a>
</g>
</g>
<!-- Node2&#45;&gt;Node5 -->
<g id="edge4_Node000002_Node000005" class="edge">
<title>Node2&#45;&gt;Node5</title>
<g id="a_edge4_Node000002_Node000005"><a xlink:title=" ">
<path fill="none" stroke="#63b8ff" d="M284.24,-244.4C306.3,-252.38 337.8,-263.43 365.75,-272 428.21,-291.14 446.41,-287.52 507.75,-310 524.36,-316.09 527.73,-319.5 543.75,-327 561.39,-335.26 581.08,-344.41 597.19,-351.88"/>
<polygon fill="#63b8ff" stroke="#63b8ff" points="595.27,-354.85 605.82,-355.88 598.21,-348.5 595.27,-354.85"/>
</a>
</g>
</g>
<!-- Node7 -->
<g id="Node000007" class="node">
<title>Node7</title>
<g id="a_Node000007"><a xlink:href="class_main_window.html#a69f73b93cc05c89a9ae1be0161105982" target="_top" xlink:title=" ">
<polygon fill="white" stroke="#666666" points="492.75,-263 380.75,-263 380.75,-243 492.75,-243 492.75,-263"/>
<text xml:space="preserve" text-anchor="middle" x="436.75" y="-249.5" font-family="Helvetica,sans-Serif" font-size="10.00">MainWindow::newFile</text>
</a>
</g>
</g>
<!-- Node2&#45;&gt;Node7 -->
<g id="edge6_Node000002_Node000007" class="edge">
<title>Node2&#45;&gt;Node7</title>
<g id="a_edge6_Node000002_Node000007"><a xlink:title=" ">
<path fill="none" stroke="#63b8ff" d="M327.82,-241.59C341.49,-243.04 355.75,-244.54 369.25,-245.97"/>
<polygon fill="#63b8ff" stroke="#63b8ff" points="368.56,-249.42 378.88,-246.99 369.3,-242.46 368.56,-249.42"/>
</a>
</g>
</g>
<!-- Node8 -->
<g id="Node000008" class="node">
<title>Node8</title>
<g id="a_Node000008"><a xlink:href="class_main_window.html#a464aaa4d378e7b2d814756a73d6e1ed6" target="_top" xlink:title=" ">
<polygon fill="white" stroke="#666666" points="688.38,-149 573.38,-149 573.38,-129 688.38,-129 688.38,-149"/>
<text xml:space="preserve" text-anchor="middle" x="630.88" y="-135.5" font-family="Helvetica,sans-Serif" font-size="10.00">MainWindow::saveFile</text>
</a>
</g>
</g>
<!-- Node2&#45;&gt;Node8 -->
<g id="edge33_Node000002_Node000008" class="edge">
<title>Node2&#45;&gt;Node8</title>
<g id="a_edge33_Node000002_Node000008"><a xlink:title=" ">
<path fill="none" stroke="#63b8ff" d="M266.71,-223.55C285.15,-206.32 324.87,-172.4 365.75,-158 429.51,-135.54 507.16,-132.61 561.71,-134.19"/>
<polygon fill="#63b8ff" stroke="#63b8ff" points="561.36,-137.68 571.48,-134.53 561.61,-130.68 561.36,-137.68"/>
</a>
</g>
</g>
<!-- Node9 -->
<g id="Node000009" class="node">
<title>Node9</title>
<g id="a_Node000009"><a xlink:href="class_main_window.html#ace1b7624a64f4d70513b86601e5846f9" target="_top" xlink:title=" ">
<polygon fill="white" stroke="#666666" points="911.38,-114 784.38,-114 784.38,-94 911.38,-94 911.38,-114"/>
<text xml:space="preserve" text-anchor="middle" x="847.88" y="-100.5" font-family="Helvetica,sans-Serif" font-size="10.00">MainWindow::saveAsFile</text>
</a>
</g>
</g>
<!-- Node2&#45;&gt;Node9 -->
<g id="edge32_Node000002_Node000009" class="edge">
<title>Node2&#45;&gt;Node9</title>
<g id="a_edge32_Node000002_Node000009"><a xlink:title=" ">
<path fill="none" stroke="#63b8ff" d="M263,-223.57C278.47,-201.54 318.03,-150.59 365.75,-130 500.03,-72.07 675.29,-81.13 772.94,-92.71"/>
<polygon fill="#63b8ff" stroke="#63b8ff" points="772.31,-96.16 782.66,-93.91 773.16,-89.21 772.31,-96.16"/>
</a>
</g>
</g>
<!-- Node20 -->
<g id="Node000020" class="node">
<title>Node20</title>
<g id="a_Node000020"><a xlink:href="class_main_window.html#a288b768c3c21a9171bdc56fe845ece8b" target="_top" xlink:title=" ">
<polygon fill="white" stroke="#666666" points="494.25,-225 379.25,-225 379.25,-205 494.25,-205 494.25,-225"/>
<text xml:space="preserve" text-anchor="middle" x="436.75" y="-211.5" font-family="Helvetica,sans-Serif" font-size="10.00">MainWindow::openFile</text>
</a>
</g>
</g>
<!-- Node2&#45;&gt;Node20 -->
<g id="edge23_Node000002_Node000020" class="edge">
<title>Node2&#45;&gt;Node20</title>
<g id="a_edge23_Node000002_Node000020"><a xlink:title=" ">
<path fill="none" stroke="#63b8ff" d="M327.82,-226.41C340.98,-225.02 354.68,-223.57 367.72,-222.19"/>
<polygon fill="#63b8ff" stroke="#63b8ff" points="367.91,-225.69 377.48,-221.16 367.17,-218.73 367.91,-225.69"/>
</a>
</g>
</g>
<!-- Node6 -->
<g id="Node000006" class="node">
<title>Node6</title>
<g id="a_Node000006"><a xlink:href="class_main_window.html#a51ab21a1be4a1389a00bdb35feee8d64" target="_top" xlink:title=" ">
<polygon fill="white" stroke="#666666" points="923.38,-301 772.38,-301 772.38,-281 923.38,-281 923.38,-301"/>
<text xml:space="preserve" text-anchor="middle" x="847.88" y="-287.5" font-family="Helvetica,sans-Serif" font-size="10.00">MainWindow::updateStatusBar</text>
</a>
</g>
</g>
<!-- Node5&#45;&gt;Node6 -->
<g id="edge5_Node000005_Node000006" class="edge">
<title>Node5&#45;&gt;Node6</title>
<g id="a_edge5_Node000005_Node000006"><a xlink:title=" ">
<path fill="none" stroke="#63b8ff" d="M672.91,-356.57C687.27,-352.65 703.45,-347.95 718,-343 750.78,-331.86 787.3,-316.87 813.08,-305.85"/>
<polygon fill="#63b8ff" stroke="#63b8ff" points="814.23,-309.16 822.03,-301.99 811.46,-302.73 814.23,-309.16"/>
</a>
</g>
</g>
<!-- Node7&#45;&gt;Node6 -->
<g id="edge21_Node000007_Node000006" class="edge">
<title>Node7&#45;&gt;Node6</title>
<g id="a_edge21_Node000007_Node000006"><a xlink:title=" ">
<path fill="none" stroke="#63b8ff" d="M475.77,-263.49C486.43,-267.11 497.81,-271.62 507.75,-277 525.58,-286.64 524.58,-298.42 543.75,-305 629.6,-334.45 737.18,-317.93 798.36,-303.96"/>
<polygon fill="#63b8ff" stroke="#63b8ff" points="798.83,-307.45 807.76,-301.75 797.22,-300.64 798.83,-307.45"/>
</a>
</g>
</g>
<!-- Node7&#45;&gt;Node8 -->
<g id="edge7_Node000007_Node000008" class="edge">
<title>Node7&#45;&gt;Node8</title>
<g id="a_edge7_Node000007_Node000008"><a xlink:title=" ">
<path fill="none" stroke="#63b8ff" d="M489.18,-242.57C495.66,-240.24 502.02,-237.42 507.75,-234 527.72,-222.06 525.93,-210.96 543.75,-196 562,-180.67 584.52,-165.9 601.95,-155.23"/>
<polygon fill="#63b8ff" stroke="#63b8ff" points="603.49,-158.39 610.26,-150.23 599.88,-152.39 603.49,-158.39"/>
</a>
</g>
</g>
<!-- Node19 -->
<g id="Node000019" class="node">
<title>Node19</title>
<g id="a_Node000019"><a xlink:href="class_main_window.html#a90cfbcf2e0f2549760a60f184ee0acbf" target="_top" xlink:title=" ">
<polygon fill="white" stroke="#666666" points="919.25,-202 776.5,-202 776.5,-170 919.25,-170 919.25,-202"/>
<text xml:space="preserve" text-anchor="start" x="784.5" y="-188.5" font-family="Helvetica,sans-Serif" font-size="10.00">MainWindow::updateWindow</text>
<text xml:space="preserve" text-anchor="middle" x="847.88" y="-176.5" font-family="Helvetica,sans-Serif" font-size="10.00">Title</text>
</a>
</g>
</g>
<!-- Node7&#45;&gt;Node19 -->
<g id="edge22_Node000007_Node000019" class="edge">
<title>Node7&#45;&gt;Node19</title>
<g id="a_edge22_Node000007_Node000019"><a xlink:title=" ">
<path fill="none" stroke="#63b8ff" d="M493.18,-253.92C550.19,-253.78 641.25,-250.53 718,-234 746.36,-227.89 776.84,-216.77 801.03,-206.76"/>
<polygon fill="#63b8ff" stroke="#63b8ff" points="802.08,-210.12 809.93,-203.01 799.36,-203.67 802.08,-210.12"/>
</a>
</g>
</g>
<!-- Node8&#45;&gt;Node6 -->
<g id="edge19_Node000008_Node000006" class="edge">
<title>Node8&#45;&gt;Node6</title>
<g id="a_edge19_Node000008_Node000006"><a xlink:title=" ">
<path fill="none" stroke="#63b8ff" d="M648.23,-149.47C665.68,-160.73 694.04,-179.26 718,-196 755.78,-222.4 798.69,-254.46 824.23,-273.77"/>
<polygon fill="#63b8ff" stroke="#63b8ff" points="821.83,-276.34 831.91,-279.59 826.06,-270.76 821.83,-276.34"/>
</a>
</g>
</g>
<!-- Node8&#45;&gt;Node9 -->
<g id="edge8_Node000008_Node000009" class="edge">
<title>Node8&#45;&gt;Node9</title>
<g id="a_edge8_Node000008_Node000009"><a xlink:title=" ">
<path fill="none" stroke="#63b8ff" d="M665,-128.57C693.71,-122.27 736.32,-114.87 773.07,-109.57"/>
<polygon fill="#63b8ff" stroke="#63b8ff" points="773.36,-113.06 782.77,-108.21 772.38,-106.13 773.36,-113.06"/>
</a>
</g>
</g>
<!-- Node10 -->
<g id="Node000010" class="node">
<title>Node10</title>
<g id="a_Node000010"><a xlink:href="class_json_helper.html#a7f720f1105f91b135fdfbcaf94e3f929" target="_top" xlink:title=" ">
<polygon fill="white" stroke="#666666" points="925.62,-152 770.12,-152 770.12,-132 925.62,-132 925.62,-152"/>
<text xml:space="preserve" text-anchor="middle" x="847.88" y="-138.5" font-family="Helvetica,sans-Serif" font-size="10.00">JsonHelper::saveDiagramToFile</text>
</a>
</g>
</g>
<!-- Node8&#45;&gt;Node10 -->
<g id="edge10_Node000008_Node000010" class="edge">
<title>Node8&#45;&gt;Node10</title>
<g id="a_edge10_Node000008_Node000010"><a xlink:title=" ">
<path fill="none" stroke="#63b8ff" d="M688.64,-139.79C710.03,-140.09 734.89,-140.44 758.48,-140.77"/>
<polygon fill="#63b8ff" stroke="#63b8ff" points="758.37,-144.27 768.42,-140.91 758.47,-137.27 758.37,-144.27"/>
</a>
</g>
</g>
<!-- Node8&#45;&gt;Node19 -->
<g id="edge20_Node000008_Node000019" class="edge">
<title>Node8&#45;&gt;Node19</title>
<g id="a_edge20_Node000008_Node000019"><a xlink:title=" ">
<path fill="none" stroke="#63b8ff" d="M679.86,-149.49C704.99,-154.98 736.46,-161.86 765.28,-168.16"/>
<polygon fill="#63b8ff" stroke="#63b8ff" points="764.18,-171.51 774.7,-170.22 765.68,-164.67 764.18,-171.51"/>
</a>
</g>
</g>
<!-- Node9&#45;&gt;Node8 -->
<g id="edge9_Node000009_Node000008" class="edge">
<title>Node9&#45;&gt;Node8</title>
<g id="a_edge9_Node000009_Node000008"><a xlink:title=" ">
<path fill="none" stroke="#63b8ff" d="M813.61,-114.46C783.3,-121.1 737.62,-128.96 699.64,-134.29"/>
<polygon fill="#63b8ff" stroke="#63b8ff" points="699.58,-130.77 690.14,-135.59 700.53,-137.7 699.58,-130.77"/>
</a>
</g>
</g>
<!-- Node11 -->
<g id="Node000011" class="node">
<title>Node11</title>
<g id="a_Node000011"><a xlink:href="class_json_helper.html#a3dc80512edb9b1f8bc8e50015e27e864" target="_top" xlink:title=" ">
<polygon fill="white" stroke="#666666" points="1119.38,-158 981.88,-158 981.88,-126 1119.38,-126 1119.38,-158"/>
<text xml:space="preserve" text-anchor="start" x="989.88" y="-144.5" font-family="Helvetica,sans-Serif" font-size="10.00">JsonHelper::diagramToJson</text>
<text xml:space="preserve" text-anchor="middle" x="1050.62" y="-132.5" font-family="Helvetica,sans-Serif" font-size="10.00">Object</text>
</a>
</g>
</g>
<!-- Node10&#45;&gt;Node11 -->
<g id="edge11_Node000010_Node000011" class="edge">
<title>Node10&#45;&gt;Node11</title>
<g id="a_edge11_Node000010_Node000011"><a xlink:title=" ">
<path fill="none" stroke="#63b8ff" d="M925.92,-142C940.54,-142 955.87,-142 970.56,-142"/>
<polygon fill="#63b8ff" stroke="#63b8ff" points="970.13,-145.5 980.13,-142 970.13,-138.5 970.13,-145.5"/>
</a>
</g>
</g>
<!-- Node12 -->
<g id="Node000012" class="node">
<title>Node12</title>
<g id="a_Node000012"><a xlink:href="class_json_helper.html#ace49a2bdc031d44388b744f93da1fd6d" target="_top" xlink:title=" ">
<polygon fill="white" stroke="#666666" points="1292.88,-183 1163.62,-183 1163.62,-151 1292.88,-151 1292.88,-183"/>
<text xml:space="preserve" text-anchor="start" x="1171.62" y="-169.5" font-family="Helvetica,sans-Serif" font-size="10.00">JsonHelper::connectionTo</text>
<text xml:space="preserve" text-anchor="middle" x="1228.25" y="-157.5" font-family="Helvetica,sans-Serif" font-size="10.00">JsonObject</text>
</a>
</g>
</g>
<!-- Node11&#45;&gt;Node12 -->
<g id="edge12_Node000011_Node000012" class="edge">
<title>Node11&#45;&gt;Node12</title>
<g id="a_edge12_Node000011_Node000012"><a xlink:title=" ">
<path fill="none" stroke="#63b8ff" d="M1119.78,-151.7C1130.37,-153.21 1141.36,-154.77 1152.1,-156.3"/>
<polygon fill="#63b8ff" stroke="#63b8ff" points="1151.27,-159.72 1161.67,-157.66 1152.26,-152.79 1151.27,-159.72"/>
</a>
</g>
</g>
<!-- Node17 -->
<g id="Node000017" class="node">
<title>Node17</title>
<g id="a_Node000017"><a xlink:href="class_json_helper.html#a2141a614711cf449951f1ebde5a9b119" target="_top" xlink:title=" ">
<polygon fill="white" stroke="#666666" points="1297,-133 1159.5,-133 1159.5,-101 1297,-101 1297,-133"/>
<text xml:space="preserve" text-anchor="start" x="1167.5" y="-119.5" font-family="Helvetica,sans-Serif" font-size="10.00">JsonHelper::elementToJson</text>
<text xml:space="preserve" text-anchor="middle" x="1228.25" y="-107.5" font-family="Helvetica,sans-Serif" font-size="10.00">Object</text>
</a>
</g>
</g>
<!-- Node11&#45;&gt;Node17 -->
<g id="edge17_Node000011_Node000017" class="edge">
<title>Node11&#45;&gt;Node17</title>
<g id="a_edge17_Node000011_Node000017"><a xlink:title=" ">
<path fill="none" stroke="#63b8ff" d="M1119.78,-132.3C1128.96,-130.99 1138.45,-129.64 1147.81,-128.31"/>
<polygon fill="#63b8ff" stroke="#63b8ff" points="1148.23,-131.78 1157.64,-126.91 1147.24,-124.85 1148.23,-131.78"/>
</a>
</g>
</g>
<!-- Node13 -->
<g id="Node000013" class="node">
<title>Node13</title>
<g id="a_Node000013"><a xlink:href="class_connection_line.html#a89b03bf381274e4504b1cde0f32972ee" target="_top" xlink:title=" ">
<polygon fill="white" stroke="#666666" points="1458.5,-177 1333,-177 1333,-157 1458.5,-157 1458.5,-177"/>
<text xml:space="preserve" text-anchor="middle" x="1395.75" y="-163.5" font-family="Helvetica,sans-Serif" font-size="10.00">ConnectionLine::serialize</text>
</a>
</g>
</g>
<!-- Node12&#45;&gt;Node13 -->
<g id="edge13_Node000012_Node000013" class="edge">
<title>Node12&#45;&gt;Node13</title>
<g id="a_edge13_Node000012_Node000013"><a xlink:title=" ">
<path fill="none" stroke="#63b8ff" d="M1293.24,-167C1302.42,-167 1311.93,-167 1321.28,-167"/>
<polygon fill="#63b8ff" stroke="#63b8ff" points="1321.05,-170.5 1331.05,-167 1321.05,-163.5 1321.05,-170.5"/>
</a>
</g>
</g>
<!-- Node14 -->
<g id="Node000014" class="node">
<title>Node14</title>
<g id="a_Node000014"><a xlink:href="class_connection_line.html#ab11952b505976244aabc575e0ec7b118" target="_top" xlink:title=" ">
<polygon fill="white" stroke="#666666" points="1650.75,-221 1494.5,-221 1494.5,-201 1650.75,-201 1650.75,-221"/>
<text xml:space="preserve" text-anchor="middle" x="1572.62" y="-207.5" font-family="Helvetica,sans-Serif" font-size="10.00">ConnectionLine::getEndElement</text>
</a>
</g>
</g>
<!-- Node13&#45;&gt;Node14 -->
<g id="edge14_Node000013_Node000014" class="edge">
<title>Node13&#45;&gt;Node14</title>
<g id="a_edge14_Node000013_Node000014"><a xlink:title=" ">
<path fill="none" stroke="#63b8ff" d="M1437.15,-177.42C1454.76,-181.94 1475.64,-187.27 1494.5,-192 1502.05,-193.89 1510.01,-195.88 1517.84,-197.82"/>
<polygon fill="#63b8ff" stroke="#63b8ff" points="1516.76,-201.15 1527.3,-200.15 1518.44,-194.36 1516.76,-201.15"/>
</a>
</g>
</g>
<!-- Node15 -->
<g id="Node000015" class="node">
<title>Node15</title>
<g id="a_Node000015"><a xlink:href="class_connection_line.html#ad957be37b7bbb9250366225fd357a5a6" target="_top" xlink:title=" ">
<polygon fill="white" stroke="#666666" points="1634.62,-183 1510.62,-183 1510.62,-151 1634.62,-151 1634.62,-183"/>
<text xml:space="preserve" text-anchor="start" x="1518.62" y="-169.5" font-family="Helvetica,sans-Serif" font-size="10.00">ConnectionLine::getStart</text>
<text xml:space="preserve" text-anchor="middle" x="1572.62" y="-157.5" font-family="Helvetica,sans-Serif" font-size="10.00">Element</text>
</a>
</g>
</g>
<!-- Node13&#45;&gt;Node15 -->
<g id="edge15_Node000013_Node000015" class="edge">
<title>Node13&#45;&gt;Node15</title>
<g id="a_edge15_Node000013_Node000015"><a xlink:title=" ">
<path fill="none" stroke="#63b8ff" d="M1458.9,-167C1471.8,-167 1485.52,-167 1498.77,-167"/>
<polygon fill="#63b8ff" stroke="#63b8ff" points="1498.75,-170.5 1508.75,-167 1498.75,-163.5 1498.75,-170.5"/>
</a>
</g>
</g>
<!-- Node16 -->
<g id="Node000016" class="node">
<title>Node16</title>
<g id="a_Node000016"><a xlink:href="class_connection_line.html#aacfed243a999c948c87dab84ebc508aa" target="_top" xlink:title=" ">
<polygon fill="white" stroke="#666666" points="1637.62,-133 1507.62,-133 1507.62,-113 1637.62,-113 1637.62,-133"/>
<text xml:space="preserve" text-anchor="middle" x="1572.62" y="-119.5" font-family="Helvetica,sans-Serif" font-size="10.00">ConnectionLine::lineWidth</text>
</a>
</g>
</g>
<!-- Node13&#45;&gt;Node16 -->
<g id="edge16_Node000013_Node000016" class="edge">
<title>Node13&#45;&gt;Node16</title>
<g id="a_edge16_Node000013_Node000016"><a xlink:title=" ">
<path fill="none" stroke="#63b8ff" d="M1437.15,-156.58C1454.76,-152.06 1475.64,-146.73 1494.5,-142 1502.05,-140.11 1510.01,-138.12 1517.84,-136.18"/>
<polygon fill="#63b8ff" stroke="#63b8ff" points="1518.44,-139.64 1527.3,-133.85 1516.76,-132.85 1518.44,-139.64"/>
</a>
</g>
</g>
<!-- Node18 -->
<g id="Node000018" class="node">
<title>Node18</title>
<g id="a_Node000018"><a xlink:href="class_basic_element.html#a56f5f9a22723d2a99d87c7508b0bec7f" target="_top" xlink:title=" ">
<polygon fill="white" stroke="#666666" points="1455.12,-127 1336.38,-127 1336.38,-107 1455.12,-107 1455.12,-127"/>
<text xml:space="preserve" text-anchor="middle" x="1395.75" y="-113.5" font-family="Helvetica,sans-Serif" font-size="10.00">BasicElement::serialize</text>
</a>
</g>
</g>
<!-- Node17&#45;&gt;Node18 -->
<g id="edge18_Node000017_Node000018" class="edge">
<title>Node17&#45;&gt;Node18</title>
<g id="a_edge18_Node000017_Node000018"><a xlink:title=" ">
<path fill="none" stroke="#63b8ff" d="M1297.04,-117C1306.14,-117 1315.49,-117 1324.63,-117"/>
<polygon fill="#63b8ff" stroke="#63b8ff" points="1324.55,-120.5 1334.55,-117 1324.55,-113.5 1324.55,-120.5"/>
</a>
</g>
</g>
<!-- Node20&#45;&gt;Node6 -->
<g id="edge30_Node000020_Node000006" class="edge">
<title>Node20&#45;&gt;Node6</title>
<g id="a_edge30_Node000020_Node000006"><a xlink:title=" ">
<path fill="none" stroke="#63b8ff" d="M494.21,-225.49C568.84,-239.35 700.18,-263.75 779.79,-278.54"/>
<polygon fill="#63b8ff" stroke="#63b8ff" points="778.71,-281.9 789.18,-280.28 779.99,-275.02 778.71,-281.9"/>
</a>
</g>
</g>
<!-- Node20&#45;&gt;Node8 -->
<g id="edge29_Node000020_Node000008" class="edge">
<title>Node20&#45;&gt;Node8</title>
<g id="a_edge29_Node000020_Node000008"><a xlink:title=" ">
<path fill="none" stroke="#63b8ff" d="M487.86,-204.56C494.75,-202.23 501.57,-199.4 507.75,-196 526.76,-185.53 524.77,-173.54 543.75,-163 550.84,-159.06 558.62,-155.73 566.52,-152.93"/>
<polygon fill="#63b8ff" stroke="#63b8ff" points="567.45,-156.31 575.87,-149.89 565.28,-149.65 567.45,-156.31"/>
</a>
</g>
</g>
<!-- Node20&#45;&gt;Node19 -->
<g id="edge31_Node000020_Node000019" class="edge">
<title>Node20&#45;&gt;Node19</title>
<g id="a_edge31_Node000020_Node000019"><a xlink:title=" ">
<path fill="none" stroke="#63b8ff" d="M487.68,-204.52C505.32,-201.22 525.34,-197.94 543.75,-196 618.28,-188.13 703.63,-185.92 764.74,-185.51"/>
<polygon fill="#63b8ff" stroke="#63b8ff" points="764.74,-189.01 774.73,-185.46 764.71,-182.01 764.74,-189.01"/>
</a>
</g>
</g>
<!-- Node21 -->
<g id="Node000021" class="node">
<title>Node21</title>
<g id="a_Node000021"><a xlink:href="class_main_window.html#a8fdec0badace6652ddf9e9e7654dd1f2" target="_top" xlink:title=" ">
<polygon fill="white" stroke="#666666" points="718,-70 543.75,-70 543.75,-50 718,-50 718,-70"/>
<text xml:space="preserve" text-anchor="middle" x="630.88" y="-56.5" font-family="Helvetica,sans-Serif" font-size="10.00">MainWindow::loadDiagramElements</text>
</a>
</g>
</g>
<!-- Node20&#45;&gt;Node21 -->
<g id="edge24_Node000020_Node000021" class="edge">
<title>Node20&#45;&gt;Node21</title>
<g id="a_edge24_Node000020_Node000021"><a xlink:title=" ">
<path fill="none" stroke="#63b8ff" d="M493.86,-204.64C498.86,-202.32 503.6,-199.47 507.75,-196 536.41,-172.02 519.61,-148.53 543.75,-120 559.1,-101.86 581.16,-86.63 599.11,-76.06"/>
<polygon fill="#63b8ff" stroke="#63b8ff" points="600.83,-79.1 607.81,-71.13 597.38,-73.01 600.83,-79.1"/>
</a>
</g>
</g>
<!-- Node25 -->
<g id="Node000025" class="node">
<title>Node25</title>
<g id="a_Node000025"><a xlink:href="class_json_helper.html#ad27b520f4c2c303444d97451efe4ba2d" target="_top" xlink:title=" ">
<polygon fill="white" stroke="#666666" points="713.12,-225 548.62,-225 548.62,-205 713.12,-205 713.12,-225"/>
<text xml:space="preserve" text-anchor="middle" x="630.88" y="-211.5" font-family="Helvetica,sans-Serif" font-size="10.00">JsonHelper::loadDiagramFromFile</text>
</a>
</g>
</g>
<!-- Node20&#45;&gt;Node25 -->
<g id="edge28_Node000020_Node000025" class="edge">
<title>Node20&#45;&gt;Node25</title>
<g id="a_edge28_Node000020_Node000025"><a xlink:title=" ">
<path fill="none" stroke="#63b8ff" d="M494.61,-215C507.89,-215 522.36,-215 536.75,-215"/>
<polygon fill="#63b8ff" stroke="#63b8ff" points="536.73,-218.5 546.73,-215 536.73,-211.5 536.73,-218.5"/>
</a>
</g>
</g>
<!-- Node22 -->
<g id="Node000022" class="node">
<title>Node22</title>
<g id="a_Node000022"><a xlink:href="class_main_window.html#a5d72b4827a74753adad180ace8109842" target="_top" xlink:title=" ">
<polygon fill="white" stroke="#666666" points="918.5,-76 777.25,-76 777.25,-44 918.5,-44 918.5,-76"/>
<text xml:space="preserve" text-anchor="start" x="785.25" y="-62.5" font-family="Helvetica,sans-Serif" font-size="10.00">MainWindow::createElement</text>
<text xml:space="preserve" text-anchor="middle" x="847.88" y="-50.5" font-family="Helvetica,sans-Serif" font-size="10.00">ByType</text>
</a>
</g>
</g>
<!-- Node21&#45;&gt;Node22 -->
<g id="edge25_Node000021_Node000022" class="edge">
<title>Node21&#45;&gt;Node22</title>
<g id="a_edge25_Node000021_Node000022"><a xlink:title=" ">
<path fill="none" stroke="#63b8ff" d="M718.39,-60C734.07,-60 750.37,-60 765.89,-60"/>
<polygon fill="#63b8ff" stroke="#63b8ff" points="765.51,-63.5 775.51,-60 765.51,-56.5 765.51,-63.5"/>
</a>
</g>
</g>
<!-- Node23 -->
<g id="Node000023" class="node">
<title>Node23</title>
<g id="a_Node000023"><a xlink:href="class_main_window.html#ae3e9c84a0e0f1ffa84e523ac1aefc565" target="_top" xlink:title=" ">
<polygon fill="white" stroke="#666666" points="941.75,-26 754,-26 754,-6 941.75,-6 941.75,-26"/>
<text xml:space="preserve" text-anchor="middle" x="847.88" y="-12.5" font-family="Helvetica,sans-Serif" font-size="10.00">MainWindow::loadDiagramConnections</text>
</a>
</g>
</g>
<!-- Node21&#45;&gt;Node23 -->
<g id="edge26_Node000021_Node000023" class="edge">
<title>Node21&#45;&gt;Node23</title>
<g id="a_edge26_Node000021_Node000023"><a xlink:title=" ">
<path fill="none" stroke="#63b8ff" d="M682.98,-49.54C704.85,-45.06 730.68,-39.77 754,-35 763.95,-32.96 774.49,-30.81 784.77,-28.7"/>
<polygon fill="#63b8ff" stroke="#63b8ff" points="785.2,-32.19 794.3,-26.76 783.8,-25.33 785.2,-32.19"/>
</a>
</g>
</g>
<!-- Node24 -->
<g id="Node000024" class="node">
<title>Node24</title>
<g id="a_Node000024"><a xlink:href="class_basic_element.html#a70598cf89581cc6e308dafaa69551934" target="_top" xlink:title=" ">
<polygon fill="white" stroke="#666666" points="1123.5,-32 977.75,-32 977.75,0 1123.5,0 1123.5,-32"/>
<text xml:space="preserve" text-anchor="start" x="985.75" y="-18.5" font-family="Helvetica,sans-Serif" font-size="10.00">BasicElement::getConnection</text>
<text xml:space="preserve" text-anchor="middle" x="1050.62" y="-6.5" font-family="Helvetica,sans-Serif" font-size="10.00">PointByDirection</text>
</a>
</g>
</g>
<!-- Node23&#45;&gt;Node24 -->
<g id="edge27_Node000023_Node000024" class="edge">
<title>Node23&#45;&gt;Node24</title>
<g id="a_edge27_Node000023_Node000024"><a xlink:title=" ">
<path fill="none" stroke="#63b8ff" d="M942.2,-16C950.11,-16 958.08,-16 965.91,-16"/>
<polygon fill="#63b8ff" stroke="#63b8ff" points="965.75,-19.5 975.75,-16 965.75,-12.5 965.75,-19.5"/>
</a>
</g>
</g>
<!-- Node26&#45;&gt;Node3 -->
<g id="edge35_Node000026_Node000003" class="edge">
<title>Node26&#45;&gt;Node3</title>
<g id="a_edge35_Node000026_Node000003"><a xlink:title=" ">
<path fill="none" stroke="#63b8ff" d="M330.15,-340.16C339.5,-339.17 349.08,-338.16 358.48,-337.17"/>
<polygon fill="#63b8ff" stroke="#63b8ff" points="358.74,-340.66 368.32,-336.13 358,-333.7 358.74,-340.66"/>
</a>
</g>
</g>
<!-- Node27 -->
<g id="Node000027" class="node">
<title>Node27</title>
<g id="a_Node000027"><a xlink:href="class_main_window.html#aa3aa0f3ce42e748b931d6211921ea197" target="_top" xlink:title=" ">
<polygon fill="white" stroke="#666666" points="500.25,-377 373.25,-377 373.25,-357 500.25,-357 500.25,-377"/>
<text xml:space="preserve" text-anchor="middle" x="436.75" y="-363.5" font-family="Helvetica,sans-Serif" font-size="10.00">MainWindow::showAbout</text>
</a>
</g>
</g>
<!-- Node26&#45;&gt;Node27 -->
<g id="edge36_Node000026_Node000027" class="edge">
<title>Node26&#45;&gt;Node27</title>
<g id="a_edge36_Node000026_Node000027"><a xlink:title=" ">
<path fill="none" stroke="#63b8ff" d="M330.15,-355.84C340.59,-356.94 351.32,-358.08 361.76,-359.18"/>
<polygon fill="#63b8ff" stroke="#63b8ff" points="361.12,-362.63 371.43,-360.2 361.86,-355.67 361.12,-362.63"/>
</a>
</g>
</g>
<!-- Node28 -->
<g id="Node000028" class="node">
<title>Node28</title>
<g id="a_Node000028"><a xlink:href="class_main_window.html#a3111788b36503e5ae8eabef2b32a6f62" target="_top" xlink:title=" ">
<polygon fill="white" stroke="#666666" points="497.62,-415 375.88,-415 375.88,-395 497.62,-395 497.62,-415"/>
<text xml:space="preserve" text-anchor="middle" x="436.75" y="-401.5" font-family="Helvetica,sans-Serif" font-size="10.00">MainWindow::showHelp</text>
</a>
</g>
</g>
<!-- Node26&#45;&gt;Node28 -->
<g id="edge37_Node000026_Node000028" class="edge">
<title>Node26&#45;&gt;Node28</title>
<g id="a_edge37_Node000026_Node000028"><a xlink:title=" ">
<path fill="none" stroke="#63b8ff" d="M284.25,-358.38C306.31,-366.34 337.81,-377.38 365.75,-386 371.84,-387.88 378.26,-389.76 384.64,-391.56"/>
<polygon fill="#63b8ff" stroke="#63b8ff" points="383.24,-394.81 393.81,-394.11 385.11,-388.06 383.24,-394.81"/>
</a>
</g>
</g>
</g>
</svg>
