<?xml version="1.0" encoding="UTF-8" standalone="no"?>
<!DOCTYPE svg PUBLIC "-//W3C//DTD SVG 1.1//EN"
 "http://www.w3.org/Graphics/SVG/1.1/DTD/svg11.dtd">
<!-- Generated by graphviz version 14.1.1 (20251213.1925)
 -->
<!-- Title: DiagramScene::selectConnection Pages: 1 -->
<svg width="371pt" height="128pt"
 viewBox="0.00 0.00 371.00 128.00" xmlns="http://www.w3.org/2000/svg" xmlns:xlink="http://www.w3.org/1999/xlink">
<g id="graph0" class="graph" transform="scale(1 1) rotate(0) translate(4 124)">
<title>DiagramScene::selectConnection</title>
<!-- Node1 -->
<g id="Node000001" class="node">
<title>Node1</title>
<g id="a_Node000001"><a xlink:title=" ">
<polygon fill="#999999" stroke="#666666" points="162.25,-64 0,-64 0,-44 162.25,-44 162.25,-64"/>
<text xml:space="preserve" text-anchor="middle" x="81.12" y="-50.5" font-family="Helvetica,sans-Serif" font-size="10.00">DiagramScene::selectConnection</text>
</a>
</g>
</g>
<!-- Node2 -->
<g id="Node000002" class="node">
<title>Node2</title>
<g id="a_Node000002"><a xlink:href="class_diagram_scene.html#a5f3d68221bac825f2b027d638d25fa49" target="_top" xlink:title=" ">
<polygon fill="white" stroke="#666666" points="347.38,-120 213.62,-120 213.62,-88 347.38,-88 347.38,-120"/>
<text xml:space="preserve" text-anchor="start" x="221.62" y="-106.5" font-family="Helvetica,sans-Serif" font-size="10.00">DiagramScene::connection</text>
<text xml:space="preserve" text-anchor="middle" x="280.5" y="-94.5" font-family="Helvetica,sans-Serif" font-size="10.00">Deselected</text>
</a>
</g>
</g>
<!-- Node1&#45;&gt;Node2 -->
<g id="edge1_Node000001_Node000002" class="edge">
<title>Node1&#45;&gt;Node2</title>
<g id="a_edge1_Node000001_Node000002"><a xlink:title=" ">
<path fill="none" stroke="#63b8ff" d="M123.5,-64.48C146.65,-70.35 176.24,-77.84 203.41,-84.72"/>
<polygon fill="#63b8ff" stroke="#63b8ff" points="202.46,-88.09 213.01,-87.16 204.18,-81.31 202.46,-88.09"/>
</a>
</g>
</g>
<!-- Node3 -->
<g id="Node000003" class="node">
<title>Node3</title>
<g id="a_Node000003"><a xlink:href="class_diagram_scene.html#ac397b05d6318f8b7c9366a8b857ed98c" target="_top" xlink:title=" ">
<polygon fill="white" stroke="#666666" points="347.38,-70 213.62,-70 213.62,-38 347.38,-38 347.38,-70"/>
<text xml:space="preserve" text-anchor="start" x="221.62" y="-56.5" font-family="Helvetica,sans-Serif" font-size="10.00">DiagramScene::connection</text>
<text xml:space="preserve" text-anchor="middle" x="280.5" y="-44.5" font-family="Helvetica,sans-Serif" font-size="10.00">Selected</text>
</a>
</g>
</g>
<!-- Node1&#45;&gt;Node3 -->
<g id="edge2_Node000001_Node000003" class="edge">
<title>Node1&#45;&gt;Node3</title>
<g id="a_edge2_Node000001_Node000003"><a xlink:title=" ">
<path fill="none" stroke="#63b8ff" d="M162.69,-54C175.72,-54 189.18,-54 202.13,-54"/>
<polygon fill="#63b8ff" stroke="#63b8ff" points="201.84,-57.5 211.84,-54 201.84,-50.5 201.84,-57.5"/>
</a>
</g>
</g>
<!-- Node4 -->
<g id="Node000004" class="node">
<title>Node4</title>
<g id="a_Node000004"><a xlink:href="class_diagram_scene.html#a7dbb09a9acecc803601560e50ad720ea" target="_top" xlink:title=" ">
<polygon fill="white" stroke="#666666" points="362.75,-20 198.25,-20 198.25,0 362.75,0 362.75,-20"/>
<text xml:space="preserve" text-anchor="middle" x="280.5" y="-6.5" font-family="Helvetica,sans-Serif" font-size="10.00">DiagramScene::selectionChanged</text>
</a>
</g>
</g>
<!-- Node1&#45;&gt;Node4 -->
<g id="edge3_Node000001_Node000004" class="edge">
<title>Node1&#45;&gt;Node4</title>
<g id="a_edge3_Node000001_Node000004"><a xlink:title=" ">
<path fill="none" stroke="#63b8ff" d="M129.15,-43.52C156.85,-37.34 192.12,-29.48 221.53,-22.92"/>
<polygon fill="#63b8ff" stroke="#63b8ff" points="222.02,-26.4 231.02,-20.81 220.49,-19.57 222.02,-26.4"/>
</a>
</g>
</g>
</g>
</svg>
