<?xml version="1.0" encoding="UTF-8" standalone="no"?>
<!DOCTYPE svg PUBLIC "-//W3C//DTD SVG 1.1//EN"
 "http://www.w3.org/Graphics/SVG/1.1/DTD/svg11.dtd">
<!-- Generated by graphviz version 14.1.1 (20251213.1925)
 -->
<!-- Title: BasicElement::serialize Pages: 1 -->
<!--zoomable 246 -->

<svg id="main" version="1.1" xmlns="http://www.w3.org/2000/svg" xmlns:xlink="http://www.w3.org/1999/xlink" xml:space="preserve" onload="init(evt)">

<style type="text/css"><![CDATA[
.node, .edge {opacity: 0.7;}
.node.selected, .edge.selected {opacity: 1;}
.edge:hover path { stroke: red; }
.edge:hover polygon { stroke: red; fill: red; }
]]></style>

<defs>
  <circle id="rim" cx="0" cy="0" r="7"/>
  <circle id="rim2" cx="0" cy="0" r="3.5"/>
  <g id="zoomPlus">
    <use xlink:href="#rim" fill="#404040"><set attributeName="fill" to="#808080" begin="zoomplus.mouseover" end="zoomplus.mouseout"/></use>
    <path d="M-4,0h8M0,-4v8" fill="none" stroke="white" stroke-width="1.5" pointer-events="none"/>
  </g>
  <g id="zoomMin">
    <use xlink:href="#rim" fill="#404040"><set attributeName="fill" to="#808080" begin="zoomminus.mouseover" end="zoomminus.mouseout"/></use>
    <path d="M-4,0h8" fill="none" stroke="white" stroke-width="1.5" pointer-events="none"/>
  </g>
  <g id="arrowUp" transform="translate(30 24)">
    <use xlink:href="#rim"/>
    <path pointer-events="none" fill="none" stroke="white" stroke-width="1.5" d="M0,-3.0v7 M-2.5,-0.5L0,-3.0L2.5,-0.5"/>
  </g>
  <g id="arrowRight" transform="rotate(90) translate(36 -43)">
    <use xlink:href="#rim"/>
    <path pointer-events="none" fill="none" stroke="white" stroke-width="1.5" d="M0,-3.0v7 M-2.5,-0.5L0,-3.0L2.5,-0.5"/>
  </g>
  <g id="arrowDown" transform="rotate(180) translate(-30 -48)">
    <use xlink:href="#rim"/>
    <path pointer-events="none" fill="none" stroke="white" stroke-width="1.5" d="M0,-3.0v7 M-2.5,-0.5L0,-3.0L2.5,-0.5"/>
  </g>
  <g id="arrowLeft" transform="rotate(270) translate(-36 17)">
    <use xlink:href="#rim"/>
    <path pointer-events="none" fill="none" stroke="white" stroke-width="1.5" d="M0,-3.0v7 M-2.5,-0.5L0,-3.0L2.5,-0.5"/>
  </g>
  <g id="resetDef">
    <use xlink:href="#rim2" fill="#404040"><set attributeName="fill" to="#808080" begin="reset.mouseover" end="reset.mouseout"/></use>
  </g>
</defs>
<script type="application/ecmascript">
var viewWidth = 1660;
var viewHeight = 246;
var sectionId = 'dynsection-26';
</script>
<script type="application/ecmascript" xlink:href="svg.min.js"/>
<svg id="graph" class="graph">
<g id="viewport">
<title>BasicElement::serialize</title>
<!-- Node1 -->
<g id="Node000001" class="node">
<title>Node1</title>
<g id="a_Node000001"><a xlink:title=" ">
<polygon fill="#999999" stroke="#666666" points="1651.75,-77 1533,-77 1533,-57 1651.75,-57 1651.75,-77"/>
<text xml:space="preserve" text-anchor="middle" x="1592.38" y="-63.5" font-family="Helvetica,sans-Serif" font-size="10.00">BasicElement::serialize</text>
</a>
</g>
</g>
<!-- Node2 -->
<g id="Node000002" class="node">
<title>Node2</title>
<g id="a_Node000002"><a xlink:href="class_json_helper.html#a2141a614711cf449951f1ebde5a9b119" target="_top" xlink:title=" ">
<polygon fill="white" stroke="#666666" points="1497,-146 1359.5,-146 1359.5,-114 1497,-114 1497,-146"/>
<text xml:space="preserve" text-anchor="start" x="1367.5" y="-132.5" font-family="Helvetica,sans-Serif" font-size="10.00">JsonHelper::elementToJson</text>
<text xml:space="preserve" text-anchor="middle" x="1428.25" y="-120.5" font-family="Helvetica,sans-Serif" font-size="10.00">Object</text>
</a>
</g>
</g>
<!-- Node1&#45;&gt;Node2 -->
<g id="edge1_Node000001_Node000002" class="edge">
<title>Node1&#45;&gt;Node2</title>
<g id="a_edge1_Node000001_Node000002"><a xlink:title=" ">
<path fill="none" stroke="#63b8ff" d="M1555.56,-81.71C1537.97,-88.86 1516.42,-97.51 1497,-105 1489.75,-107.8 1482.03,-110.71 1474.51,-113.51"/>
<polygon fill="#63b8ff" stroke="#63b8ff" points="1556.88,-84.95 1564.82,-77.93 1554.24,-78.47 1556.88,-84.95"/>
</a>
</g>
</g>
<!-- Node16 -->
<g id="Node000016" class="node">
<title>Node16</title>
<g id="a_Node000016"><a xlink:href="class_attribute.html#ae8c14a45321be32454ef200c5be0591c" target="_top" xlink:title=" ">
<polygon fill="white" stroke="#666666" points="1475.62,-96 1380.88,-96 1380.88,-76 1475.62,-76 1475.62,-96"/>
<text xml:space="preserve" text-anchor="middle" x="1428.25" y="-82.5" font-family="Helvetica,sans-Serif" font-size="10.00">Attribute::serialize</text>
</a>
</g>
</g>
<!-- Node1&#45;&gt;Node16 -->
<g id="edge19_Node000001_Node000016" class="edge">
<title>Node1&#45;&gt;Node16</title>
<g id="a_edge19_Node000001_Node000016"><a xlink:title=" ">
<path fill="none" stroke="#63b8ff" d="M1521.73,-75.16C1506.29,-76.97 1490.28,-78.85 1476.01,-80.52"/>
<polygon fill="#63b8ff" stroke="#63b8ff" points="1521.82,-78.68 1531.34,-74.04 1521,-71.72 1521.82,-78.68"/>
</a>
</g>
</g>
<!-- Node17 -->
<g id="Node000017" class="node">
<title>Node17</title>
<g id="a_Node000017"><a xlink:href="class_entity.html#a8f633bc5c2eb2f16b85b9ca166b63a32" target="_top" xlink:title=" ">
<polygon fill="white" stroke="#666666" points="1470,-58 1386.5,-58 1386.5,-38 1470,-38 1470,-58"/>
<text xml:space="preserve" text-anchor="middle" x="1428.25" y="-44.5" font-family="Helvetica,sans-Serif" font-size="10.00">Entity::serialize</text>
</a>
</g>
</g>
<!-- Node1&#45;&gt;Node17 -->
<g id="edge20_Node000001_Node000017" class="edge">
<title>Node1&#45;&gt;Node17</title>
<g id="a_edge20_Node000001_Node000017"><a xlink:title=" ">
<path fill="none" stroke="#63b8ff" d="M1521.53,-58.81C1504.09,-56.77 1485.96,-54.65 1470.42,-52.83"/>
<polygon fill="#63b8ff" stroke="#63b8ff" points="1521,-62.28 1531.34,-59.96 1521.82,-55.32 1521,-62.28"/>
</a>
</g>
</g>
<!-- Node18 -->
<g id="Node000018" class="node">
<title>Node18</title>
<g id="a_Node000018"><a xlink:href="class_relationship.html#a61fd3cf9518d2e93e4d0629269a37334" target="_top" xlink:title=" ">
<polygon fill="white" stroke="#666666" points="1484.25,-20 1372.25,-20 1372.25,0 1484.25,0 1484.25,-20"/>
<text xml:space="preserve" text-anchor="middle" x="1428.25" y="-6.5" font-family="Helvetica,sans-Serif" font-size="10.00">Relationship::serialize</text>
</a>
</g>
</g>
<!-- Node1&#45;&gt;Node18 -->
<g id="edge21_Node000001_Node000018" class="edge">
<title>Node1&#45;&gt;Node18</title>
<g id="a_edge21_Node000001_Node000018"><a xlink:title=" ">
<path fill="none" stroke="#63b8ff" d="M1557.16,-52.17C1539.39,-44.74 1517.22,-35.88 1497,-29 1488.1,-25.97 1478.42,-23.04 1469.24,-20.43"/>
<polygon fill="#63b8ff" stroke="#63b8ff" points="1555.63,-55.33 1566.2,-55.99 1558.36,-48.88 1555.63,-55.33"/>
</a>
</g>
</g>
<!-- Node3 -->
<g id="Node000003" class="node">
<title>Node3</title>
<g id="a_Node000003"><a xlink:href="class_json_helper.html#a3dc80512edb9b1f8bc8e50015e27e864" target="_top" xlink:title=" ">
<polygon fill="white" stroke="#666666" points="1323.5,-168 1186,-168 1186,-136 1323.5,-136 1323.5,-168"/>
<text xml:space="preserve" text-anchor="start" x="1194" y="-154.5" font-family="Helvetica,sans-Serif" font-size="10.00">JsonHelper::diagramToJson</text>
<text xml:space="preserve" text-anchor="middle" x="1254.75" y="-142.5" font-family="Helvetica,sans-Serif" font-size="10.00">Object</text>
</a>
</g>
</g>
<!-- Node2&#45;&gt;Node3 -->
<g id="edge2_Node000002_Node000003" class="edge">
<title>Node2&#45;&gt;Node3</title>
<g id="a_edge2_Node000002_Node000003"><a xlink:title=" ">
<path fill="none" stroke="#63b8ff" d="M1348.11,-140.15C1340.02,-141.19 1331.84,-142.24 1323.88,-143.26"/>
<polygon fill="#63b8ff" stroke="#63b8ff" points="1348.49,-143.63 1357.97,-138.89 1347.6,-136.69 1348.49,-143.63"/>
</a>
</g>
</g>
<!-- Node15 -->
<g id="Node000015" class="node">
<title>Node15</title>
<g id="a_Node000015"><a xlink:href="class_json_helper.html#a4fad5a49a87d6b35e12d37cee38e5e2e" target="_top" xlink:title=" ">
<polygon fill="white" stroke="#666666" points="1323.5,-118 1186,-118 1186,-98 1323.5,-98 1323.5,-118"/>
<text xml:space="preserve" text-anchor="middle" x="1254.75" y="-104.5" font-family="Helvetica,sans-Serif" font-size="10.00">JsonHelper::elementToJson</text>
</a>
</g>
</g>
<!-- Node2&#45;&gt;Node15 -->
<g id="edge18_Node000002_Node000015" class="edge">
<title>Node2&#45;&gt;Node15</title>
<g id="a_edge18_Node000002_Node000015"><a xlink:title=" ">
<path fill="none" stroke="#63b8ff" d="M1348.11,-119.85C1340.02,-118.81 1331.84,-117.76 1323.88,-116.74"/>
<polygon fill="#63b8ff" stroke="#63b8ff" points="1347.6,-123.31 1357.97,-121.11 1348.49,-116.37 1347.6,-123.31"/>
</a>
</g>
</g>
<!-- Node4 -->
<g id="Node000004" class="node">
<title>Node4</title>
<g id="a_Node000004"><a xlink:href="class_json_helper.html#a27d74ef624077d3187ef066a8867ba70" target="_top" xlink:title=" ">
<polygon fill="white" stroke="#666666" points="1141,-181 1003.5,-181 1003.5,-161 1141,-161 1141,-181"/>
<text xml:space="preserve" text-anchor="middle" x="1072.25" y="-167.5" font-family="Helvetica,sans-Serif" font-size="10.00">JsonHelper::diagramToJson</text>
</a>
</g>
</g>
<!-- Node3&#45;&gt;Node4 -->
<g id="edge3_Node000003_Node000004" class="edge">
<title>Node3&#45;&gt;Node4</title>
<g id="a_edge3_Node000003_Node000004"><a xlink:title=" ">
<path fill="none" stroke="#63b8ff" d="M1174.18,-160.38C1163.21,-161.53 1152.02,-162.71 1141.29,-163.84"/>
<polygon fill="#63b8ff" stroke="#63b8ff" points="1174.43,-163.87 1184.01,-159.34 1173.69,-156.91 1174.43,-163.87"/>
</a>
</g>
</g>
<!-- Node5 -->
<g id="Node000005" class="node">
<title>Node5</title>
<g id="a_Node000005"><a xlink:href="class_json_helper.html#a7f720f1105f91b135fdfbcaf94e3f929" target="_top" xlink:title=" ">
<polygon fill="white" stroke="#666666" points="1150,-143 994.5,-143 994.5,-123 1150,-123 1150,-143"/>
<text xml:space="preserve" text-anchor="middle" x="1072.25" y="-129.5" font-family="Helvetica,sans-Serif" font-size="10.00">JsonHelper::saveDiagramToFile</text>
</a>
</g>
</g>
<!-- Node3&#45;&gt;Node5 -->
<g id="edge4_Node000003_Node000005" class="edge">
<title>Node3&#45;&gt;Node5</title>
<g id="a_edge4_Node000003_Node000005"><a xlink:title=" ">
<path fill="none" stroke="#63b8ff" d="M1174.07,-143.61C1166.2,-142.78 1158.21,-141.94 1150.36,-141.12"/>
<polygon fill="#63b8ff" stroke="#63b8ff" points="1173.69,-147.09 1184.01,-144.66 1174.43,-140.13 1173.69,-147.09"/>
</a>
</g>
</g>
<!-- Node6 -->
<g id="Node000006" class="node">
<title>Node6</title>
<g id="a_Node000006"><a xlink:href="class_main_window.html#a464aaa4d378e7b2d814756a73d6e1ed6" target="_top" xlink:title=" ">
<polygon fill="white" stroke="#666666" points="958.5,-143 843.5,-143 843.5,-123 958.5,-123 958.5,-143"/>
<text xml:space="preserve" text-anchor="middle" x="901" y="-129.5" font-family="Helvetica,sans-Serif" font-size="10.00">MainWindow::saveFile</text>
</a>
</g>
</g>
<!-- Node5&#45;&gt;Node6 -->
<g id="edge5_Node000005_Node000006" class="edge">
<title>Node5&#45;&gt;Node6</title>
<g id="a_edge5_Node000005_Node000006"><a xlink:title=" ">
<path fill="none" stroke="#63b8ff" d="M982.63,-133C974.55,-133 966.52,-133 958.84,-133"/>
<polygon fill="#63b8ff" stroke="#63b8ff" points="982.54,-136.5 992.54,-133 982.54,-129.5 982.54,-136.5"/>
</a>
</g>
</g>
<!-- Node7 -->
<g id="Node000007" class="node">
<title>Node7</title>
<g id="a_Node000007"><a xlink:href="class_main_window.html#a05fb9d72c044aa3bb7d187b994704e2f" target="_top" xlink:title=" ">
<polygon fill="white" stroke="#666666" points="807.5,-238 680.5,-238 680.5,-218 807.5,-218 807.5,-238"/>
<text xml:space="preserve" text-anchor="middle" x="744" y="-224.5" font-family="Helvetica,sans-Serif" font-size="10.00">MainWindow::closeEvent</text>
</a>
</g>
</g>
<!-- Node6&#45;&gt;Node7 -->
<g id="edge6_Node000006_Node000007" class="edge">
<title>Node6&#45;&gt;Node7</title>
<g id="a_edge6_Node000006_Node000007"><a xlink:title=" ">
<path fill="none" stroke="#63b8ff" d="M880.35,-150.79C862.39,-166.38 834.57,-188.83 807.5,-204 798.17,-209.23 787.48,-213.8 777.6,-217.51"/>
<polygon fill="#63b8ff" stroke="#63b8ff" points="882.47,-153.59 887.65,-144.35 877.84,-148.34 882.47,-153.59"/>
</a>
</g>
</g>
<!-- Node8 -->
<g id="Node000008" class="node">
<title>Node8</title>
<g id="a_Node000008"><a xlink:href="class_main_window.html#aaf455232cccaa422fc4c371fa99bff84" target="_top" xlink:title=" ">
<polygon fill="white" stroke="#666666" points="644.5,-143 499.5,-143 499.5,-123 644.5,-123 644.5,-143"/>
<text xml:space="preserve" text-anchor="middle" x="572" y="-129.5" font-family="Helvetica,sans-Serif" font-size="10.00">MainWindow::createFileMenu</text>
</a>
</g>
</g>
<!-- Node6&#45;&gt;Node8 -->
<g id="edge7_Node000006_Node000008" class="edge">
<title>Node6&#45;&gt;Node8</title>
<g id="a_edge7_Node000006_Node000008"><a xlink:title=" ">
<path fill="none" stroke="#63b8ff" d="M870.59,-148.54C852.86,-157.02 829.5,-166.66 807.5,-171 752.12,-181.93 736.13,-180.54 680.5,-171 650.06,-165.78 616.8,-152.81 595.46,-143.48"/>
<polygon fill="#63b8ff" stroke="#63b8ff" points="872.08,-151.71 879.49,-144.14 868.98,-145.43 872.08,-151.71"/>
</a>
</g>
</g>
<!-- Node12 -->
<g id="Node000012" class="node">
<title>Node12</title>
<g id="a_Node000012"><a xlink:href="class_main_window.html#a69f73b93cc05c89a9ae1be0161105982" target="_top" xlink:title=" ">
<polygon fill="white" stroke="#666666" points="800,-162 688,-162 688,-142 800,-142 800,-162"/>
<text xml:space="preserve" text-anchor="middle" x="744" y="-148.5" font-family="Helvetica,sans-Serif" font-size="10.00">MainWindow::newFile</text>
</a>
</g>
</g>
<!-- Node6&#45;&gt;Node12 -->
<g id="edge11_Node000006_Node000012" class="edge">
<title>Node6&#45;&gt;Node12</title>
<g id="a_edge11_Node000006_Node000012"><a xlink:title=" ">
<path fill="none" stroke="#63b8ff" d="M831.84,-141.35C821.29,-142.65 810.5,-143.97 800.28,-145.22"/>
<polygon fill="#63b8ff" stroke="#63b8ff" points="832.16,-144.84 841.66,-140.15 831.31,-137.89 832.16,-144.84"/>
</a>
</g>
</g>
<!-- Node13 -->
<g id="Node000013" class="node">
<title>Node13</title>
<g id="a_Node000013"><a xlink:href="class_main_window.html#a288b768c3c21a9171bdc56fe845ece8b" target="_top" xlink:title=" ">
<polygon fill="white" stroke="#666666" points="801.5,-124 686.5,-124 686.5,-104 801.5,-104 801.5,-124"/>
<text xml:space="preserve" text-anchor="middle" x="744" y="-110.5" font-family="Helvetica,sans-Serif" font-size="10.00">MainWindow::openFile</text>
</a>
</g>
</g>
<!-- Node6&#45;&gt;Node13 -->
<g id="edge13_Node000006_Node000013" class="edge">
<title>Node6&#45;&gt;Node13</title>
<g id="a_edge13_Node000006_Node000013"><a xlink:title=" ">
<path fill="none" stroke="#63b8ff" d="M831.94,-124.66C821.89,-123.43 811.62,-122.17 801.83,-120.97"/>
<polygon fill="#63b8ff" stroke="#63b8ff" points="831.31,-128.11 841.66,-125.85 832.16,-121.16 831.31,-128.11"/>
</a>
</g>
</g>
<!-- Node14 -->
<g id="Node000014" class="node">
<title>Node14</title>
<g id="a_Node000014"><a xlink:href="class_main_window.html#ace1b7624a64f4d70513b86601e5846f9" target="_top" xlink:title=" ">
<polygon fill="white" stroke="#666666" points="807.5,-86 680.5,-86 680.5,-66 807.5,-66 807.5,-86"/>
<text xml:space="preserve" text-anchor="middle" x="744" y="-72.5" font-family="Helvetica,sans-Serif" font-size="10.00">MainWindow::saveAsFile</text>
</a>
</g>
</g>
<!-- Node6&#45;&gt;Node14 -->
<g id="edge15_Node000006_Node000014" class="edge">
<title>Node6&#45;&gt;Node14</title>
<g id="a_edge15_Node000006_Node000014"><a xlink:title=" ">
<path fill="none" stroke="#63b8ff" d="M879.36,-116.79C860.84,-106.83 832.82,-95.04 807.85,-86.13"/>
<polygon fill="#63b8ff" stroke="#63b8ff" points="877.59,-119.81 888,-121.8 881.1,-113.76 877.59,-119.81"/>
</a>
</g>
</g>
<!-- Node9 -->
<g id="Node000009" class="node">
<title>Node9</title>
<g id="a_Node000009"><a xlink:href="class_main_window.html#a2305527bb5d827ae07967ea1c86ee6fb" target="_top" xlink:title=" ">
<polygon fill="white" stroke="#666666" points="463.5,-143 319.25,-143 319.25,-123 463.5,-123 463.5,-143"/>
<text xml:space="preserve" text-anchor="middle" x="391.38" y="-129.5" font-family="Helvetica,sans-Serif" font-size="10.00">MainWindow::createMenuBar</text>
</a>
</g>
</g>
<!-- Node8&#45;&gt;Node9 -->
<g id="edge8_Node000008_Node000009" class="edge">
<title>Node8&#45;&gt;Node9</title>
<g id="a_edge8_Node000008_Node000009"><a xlink:title=" ">
<path fill="none" stroke="#63b8ff" d="M487.84,-133C479.81,-133 471.72,-133 463.82,-133"/>
<polygon fill="#63b8ff" stroke="#63b8ff" points="487.6,-136.5 497.6,-133 487.6,-129.5 487.6,-136.5"/>
</a>
</g>
</g>
<!-- Node10 -->
<g id="Node000010" class="node">
<title>Node10</title>
<g id="a_Node000010"><a xlink:href="class_main_window.html#a3a304253c9e7caeef028f75358bf1fd5" target="_top" xlink:title=" ">
<polygon fill="white" stroke="#666666" points="283.25,-143 170.5,-143 170.5,-123 283.25,-123 283.25,-143"/>
<text xml:space="preserve" text-anchor="middle" x="226.88" y="-129.5" font-family="Helvetica,sans-Serif" font-size="10.00">MainWindow::setupUI</text>
</a>
</g>
</g>
<!-- Node9&#45;&gt;Node10 -->
<g id="edge9_Node000009_Node000010" class="edge">
<title>Node9&#45;&gt;Node10</title>
<g id="a_edge9_Node000009_Node000010"><a xlink:title=" ">
<path fill="none" stroke="#63b8ff" d="M307.85,-133C299.59,-133 291.35,-133 283.46,-133"/>
<polygon fill="#63b8ff" stroke="#63b8ff" points="307.59,-136.5 317.59,-133 307.59,-129.5 307.59,-136.5"/>
</a>
</g>
</g>
<!-- Node11 -->
<g id="Node000011" class="node">
<title>Node11</title>
<g id="a_Node000011"><a xlink:href="class_main_window.html#a996c5a2b6f77944776856f08ec30858d" target="_top" xlink:title=" ">
<polygon fill="white" stroke="#666666" points="134.5,-143 0,-143 0,-123 134.5,-123 134.5,-143"/>
<text xml:space="preserve" text-anchor="middle" x="67.25" y="-129.5" font-family="Helvetica,sans-Serif" font-size="10.00">MainWindow::MainWindow</text>
</a>
</g>
</g>
<!-- Node10&#45;&gt;Node11 -->
<g id="edge10_Node000010_Node000011" class="edge">
<title>Node10&#45;&gt;Node11</title>
<g id="a_edge10_Node000010_Node000011"><a xlink:title=" ">
<path fill="none" stroke="#63b8ff" d="M158.85,-133C150.93,-133 142.85,-133 134.94,-133"/>
<polygon fill="#63b8ff" stroke="#63b8ff" points="158.79,-136.5 168.79,-133 158.79,-129.5 158.79,-136.5"/>
</a>
</g>
</g>
<!-- Node12&#45;&gt;Node8 -->
<g id="edge12_Node000012_Node000008" class="edge">
<title>Node12&#45;&gt;Node8</title>
<g id="a_edge12_Node000012_Node000008"><a xlink:title=" ">
<path fill="none" stroke="#63b8ff" d="M676.69,-144.59C666.28,-143.43 655.48,-142.22 644.95,-141.04"/>
<polygon fill="#63b8ff" stroke="#63b8ff" points="675.97,-148.03 686.3,-145.66 676.75,-141.07 675.97,-148.03"/>
</a>
</g>
</g>
<!-- Node13&#45;&gt;Node8 -->
<g id="edge14_Node000013_Node000008" class="edge">
<title>Node13&#45;&gt;Node8</title>
<g id="a_edge14_Node000013_Node000008"><a xlink:title=" ">
<path fill="none" stroke="#63b8ff" d="M675.25,-121.57C665.23,-122.69 654.88,-123.85 644.78,-124.98"/>
<polygon fill="#63b8ff" stroke="#63b8ff" points="675.34,-125.08 684.89,-120.49 674.56,-118.13 675.34,-125.08"/>
</a>
</g>
</g>
<!-- Node14&#45;&gt;Node6 -->
<g id="edge17_Node000014_Node000006" class="edge">
<title>Node14&#45;&gt;Node6</title>
<g id="a_edge17_Node000014_Node000006"><a xlink:title=" ">
<path fill="none" stroke="#63b8ff" d="M768.4,-90.62C780.21,-94.99 794.71,-99.44 807.5,-104 823.69,-109.77 841.19,-116.76 856.57,-122.65"/>
<polygon fill="#63b8ff" stroke="#63b8ff" points="770.03,-87.51 759.45,-87.02 767.42,-94 770.03,-87.51"/>
</a>
</g>
</g>
<!-- Node14&#45;&gt;Node8 -->
<g id="edge16_Node000014_Node000008" class="edge">
<title>Node14&#45;&gt;Node8</title>
<g id="a_edge16_Node000014_Node000008"><a xlink:title=" ">
<path fill="none" stroke="#63b8ff" d="M696.97,-89.74C691.41,-91.47 685.82,-93.25 680.5,-95 653.42,-103.9 622.79,-114.81 601.17,-122.65"/>
<polygon fill="#63b8ff" stroke="#63b8ff" points="697.57,-93.21 706.1,-86.92 695.51,-86.52 697.57,-93.21"/>
</a>
</g>
</g>
</g>
</svg>

<g id="navigator" transform="translate(0 0)" fill="#404254">
  <rect fill="#f2f5e9" fill-opacity="0.5" stroke="#606060" stroke-width=".5" x="0" y="0" width="60" height="60"/>
  <use id="zoomplus" xlink:href="#zoomPlus" x="17" y="9" onmousedown="handleZoom(evt,'in')"/>
  <use id="zoomminus" xlink:href="#zoomMin" x="42" y="9" onmousedown="handleZoom(evt,'out')"/>
  <use id="reset" xlink:href="#resetDef" x="30" y="36" onmousedown="handleReset()"/>
   <use id="arrowup" xlink:href="#arrowUp" x="0" y="0" onmousedown="handlePan(0,-1)"/>
  <use id="arrowright" xlink:href="#arrowRight" x="0" y="0" onmousedown="handlePan(1,0)"/>
  <use id="arrowdown" xlink:href="#arrowDown" x="0" y="0" onmousedown="handlePan(0,1)"/>
  <use id="arrowleft" xlink:href="#arrowLeft" x="0" y="0" onmousedown="handlePan(-1,0)"/>
</g>
<svg viewBox="0 0 15 15" width="100%" height="30px" preserveAspectRatio="xMaxYMin meet">
 <g id="arrow_out" transform="scale(0.3 0.3)">
  <a xlink:href="class_basic_element_a56f5f9a22723d2a99d87c7508b0bec7f_icgraph_org.svg" target="_base">
   <rect id="button" ry="5" rx="5" y="6" x="6" height="38" width="38"
        fill="#f2f5e9" fill-opacity="0.5" stroke="#606060" stroke-width="1.0"/>
   <path id="arrow"
     d="M 11.500037,31.436501 C 11.940474,20.09759 22.043105,11.32322 32.158766,21.979434 L 37.068811,17.246167 C 37.068811,17.246167 37.088388,32 37.088388,32 L 22.160133,31.978069 C 22.160133,31.978069 26.997745,27.140456 26.997745,27.140456 C 18.528582,18.264221 13.291696,25.230495 11.500037,31.436501 z"
     style="fill:#404040;"/>
  </a>
 </g>
</svg>

<style type='text/css'>
<![CDATA[
[data-mouse-over-selected='false'] { opacity: 0.7; }
[data-mouse-over-selected='true']  { opacity: 1.0; }
]]>
</style>
<script type="application/ecmascript"><![CDATA[
document.addEventListener('DOMContentLoaded', (event) => {
  highlightEdges();
  highlightAdjacentNodes();
});
]]></script>
</svg>
