<?xml version="1.0" encoding="UTF-8" standalone="no"?>
<!DOCTYPE svg PUBLIC "-//W3C//DTD SVG 1.1//EN"
 "http://www.w3.org/Graphics/SVG/1.1/DTD/svg11.dtd">
<!-- Generated by graphviz version 14.1.1 (20251213.1925)
 -->
<!-- Title: Attribute::Attribute Pages: 1 -->
<svg width="1193pt" height="216pt"
 viewBox="0.00 0.00 1193.00 216.00" xmlns="http://www.w3.org/2000/svg" xmlns:xlink="http://www.w3.org/1999/xlink">
<g id="graph0" class="graph" transform="scale(1 1) rotate(0) translate(4 212)">
<title>Attribute::Attribute</title>
<!-- Node1 -->
<g id="Node000001" class="node">
<title>Node1</title>
<g id="a_Node000001"><a xlink:title=" ">
<polygon fill="#999999" stroke="#666666" points="95.5,-96 0,-96 0,-76 95.5,-76 95.5,-96"/>
<text xml:space="preserve" text-anchor="middle" x="47.75" y="-82.5" font-family="Helvetica,sans-Serif" font-size="10.00">Attribute::Attribute</text>
</a>
</g>
</g>
<!-- Node2 -->
<g id="Node000002" class="node">
<title>Node2</title>
<g id="a_Node000002"><a xlink:href="class_attribute.html#a119bae8069ee45c1e48122a79ea4b29e" target="_top" xlink:title=" ">
<polygon fill="white" stroke="#666666" points="240.5,-96 145,-96 145,-76 240.5,-76 240.5,-96"/>
<text xml:space="preserve" text-anchor="middle" x="192.75" y="-82.5" font-family="Helvetica,sans-Serif" font-size="10.00">Attribute::Attribute</text>
</a>
</g>
</g>
<!-- Node1&#45;&gt;Node2 -->
<g id="edge1_Node000001_Node000002" class="edge">
<title>Node1&#45;&gt;Node2</title>
<g id="a_edge1_Node000001_Node000002"><a xlink:title=" ">
<path fill="none" stroke="#63b8ff" d="M95.97,-86C107.93,-86 120.92,-86 133.36,-86"/>
<polygon fill="#63b8ff" stroke="#63b8ff" points="133.07,-89.5 143.07,-86 133.07,-82.5 133.07,-89.5"/>
</a>
</g>
</g>
<!-- Node3 -->
<g id="Node000003" class="node">
<title>Node3</title>
<g id="a_Node000003"><a xlink:href="class_basic_element.html#a85cccd7db0e46e4e2b646365cd6c66a9" target="_top" xlink:title=" ">
<polygon fill="white" stroke="#666666" points="433.5,-177 290,-177 290,-157 433.5,-157 433.5,-177"/>
<text xml:space="preserve" text-anchor="middle" x="361.75" y="-163.5" font-family="Helvetica,sans-Serif" font-size="10.00">BasicElement::BasicElement</text>
</a>
</g>
</g>
<!-- Node1&#45;&gt;Node3 -->
<g id="edge15_Node000001_Node000003" class="edge">
<title>Node1&#45;&gt;Node3</title>
<g id="a_edge15_Node000001_Node000003"><a xlink:title=" ">
<path fill="none" stroke="#63b8ff" d="M60.06,-96.35C75.12,-109.47 103.16,-131.6 131.5,-142 178.18,-159.13 233.52,-165.53 278.13,-167.57"/>
<polygon fill="#63b8ff" stroke="#63b8ff" points="277.88,-171.06 288.01,-167.95 278.15,-164.07 277.88,-171.06"/>
</a>
</g>
</g>
<!-- Node10 -->
<g id="Node000010" class="node">
<title>Node10</title>
<g id="a_Node000010"><a xlink:href="class_attribute.html#a9fbfd8cb51abe1f5b3e85333eb3ba55a" target="_top" xlink:title=" ">
<polygon fill="white" stroke="#666666" points="420,-136 303.5,-136 303.5,-116 420,-116 420,-136"/>
<text xml:space="preserve" text-anchor="middle" x="361.75" y="-122.5" font-family="Helvetica,sans-Serif" font-size="10.00">Attribute::preferredSize</text>
</a>
</g>
</g>
<!-- Node1&#45;&gt;Node10 -->
<g id="edge16_Node000001_Node000010" class="edge">
<title>Node1&#45;&gt;Node10</title>
<g id="a_edge16_Node000001_Node000010"><a xlink:title=" ">
<path fill="none" stroke="#63b8ff" d="M66.42,-96.46C82.69,-105.46 107.83,-117.79 131.5,-123 184.36,-134.64 245.74,-134.76 291.68,-132.32"/>
<polygon fill="#63b8ff" stroke="#63b8ff" points="291.73,-135.82 301.5,-131.73 291.31,-128.83 291.73,-135.82"/>
</a>
</g>
</g>
<!-- Node11 -->
<g id="Node000011" class="node">
<title>Node11</title>
<g id="a_Node000011"><a xlink:href="class_basic_element.html#ab86c964c6ef9e8d7299efc263a0837e7" target="_top" xlink:title=" ">
<polygon fill="white" stroke="#666666" points="419.62,-58 303.88,-58 303.88,-38 419.62,-38 419.62,-58"/>
<text xml:space="preserve" text-anchor="middle" x="361.75" y="-44.5" font-family="Helvetica,sans-Serif" font-size="10.00">BasicElement::setSize</text>
</a>
</g>
</g>
<!-- Node1&#45;&gt;Node11 -->
<g id="edge19_Node000001_Node000011" class="edge">
<title>Node1&#45;&gt;Node11</title>
<g id="a_edge19_Node000001_Node000011"><a xlink:title=" ">
<path fill="none" stroke="#63b8ff" d="M88.93,-75.56C102.38,-72.39 117.52,-69.17 131.5,-67 185.16,-58.66 246.49,-53.82 292.21,-51.11"/>
<polygon fill="#63b8ff" stroke="#63b8ff" points="292.19,-54.62 301.97,-50.56 291.79,-47.63 292.19,-54.62"/>
</a>
</g>
</g>
<!-- Node15 -->
<g id="Node000015" class="node">
<title>Node15</title>
<g id="a_Node000015"><a xlink:href="class_basic_element.html#a42ea6812e7627bb99af54cab547aa803" target="_top" xlink:title=" ">
<polygon fill="white" stroke="#666666" points="254,-20 131.5,-20 131.5,0 254,0 254,-20"/>
<text xml:space="preserve" text-anchor="middle" x="192.75" y="-6.5" font-family="Helvetica,sans-Serif" font-size="10.00">BasicElement::setName</text>
</a>
</g>
</g>
<!-- Node1&#45;&gt;Node15 -->
<g id="edge17_Node000001_Node000015" class="edge">
<title>Node1&#45;&gt;Node15</title>
<g id="a_edge17_Node000001_Node000015"><a xlink:title=" ">
<path fill="none" stroke="#63b8ff" d="M63.52,-75.56C79.71,-64.4 106.69,-46.6 131.5,-34 137.96,-30.72 144.97,-27.57 151.86,-24.7"/>
<polygon fill="#63b8ff" stroke="#63b8ff" points="153.09,-27.97 161.07,-21 150.48,-21.48 153.09,-27.97"/>
</a>
</g>
</g>
<!-- Node2&#45;&gt;Node2 -->
<g id="edge2_Node000002_Node000002" class="edge">
<title>Node2&#45;&gt;Node2</title>
<g id="a_edge2_Node000002_Node000002"><a xlink:title=" ">
<path fill="none" stroke="#63b8ff" d="M169.71,-96.34C159.87,-104.98 167.54,-114 192.75,-114 206.53,-114 215.08,-111.3 218.38,-107.44"/>
<polygon fill="#63b8ff" stroke="#63b8ff" points="221.81,-106.76 216.13,-97.81 214.99,-108.35 221.81,-106.76"/>
</a>
</g>
</g>
<!-- Node2&#45;&gt;Node3 -->
<g id="edge3_Node000002_Node000003" class="edge">
<title>Node2&#45;&gt;Node3</title>
<g id="a_edge3_Node000002_Node000003"><a xlink:title=" ">
<path fill="none" stroke="#63b8ff" d="M208.12,-96.39C226.4,-109.23 259.3,-131.08 290,-145 296.46,-147.93 303.42,-150.62 310.36,-153.03"/>
<polygon fill="#63b8ff" stroke="#63b8ff" points="309.15,-156.32 319.74,-156.12 311.34,-149.67 309.15,-156.32"/>
</a>
</g>
</g>
<!-- Node2&#45;&gt;Node10 -->
<g id="edge10_Node000002_Node000010" class="edge">
<title>Node2&#45;&gt;Node10</title>
<g id="a_edge10_Node000002_Node000010"><a xlink:title=" ">
<path fill="none" stroke="#63b8ff" d="M237.19,-96.41C258.19,-101.43 283.62,-107.53 305.94,-112.87"/>
<polygon fill="#63b8ff" stroke="#63b8ff" points="304.93,-116.23 315.47,-115.16 306.56,-109.42 304.93,-116.23"/>
</a>
</g>
</g>
<!-- Node2&#45;&gt;Node11 -->
<g id="edge11_Node000002_Node000011" class="edge">
<title>Node2&#45;&gt;Node11</title>
<g id="a_edge11_Node000002_Node000011"><a xlink:title=" ">
<path fill="none" stroke="#63b8ff" d="M239.83,-75.52C259.63,-71.01 282.98,-65.7 303.85,-60.95"/>
<polygon fill="#63b8ff" stroke="#63b8ff" points="304.37,-64.42 313.35,-58.79 302.82,-57.59 304.37,-64.42"/>
</a>
</g>
</g>
<!-- Node4 -->
<g id="Node000004" class="node">
<title>Node4</title>
<g id="a_Node000004"><a xlink:href="class_basic_element.html#a78e2ce29aa5b2a9fae74cf435996ce8b" target="_top" xlink:title=" ">
<polygon fill="white" stroke="#666666" points="617.5,-158 473.25,-158 473.25,-126 617.5,-126 617.5,-158"/>
<text xml:space="preserve" text-anchor="start" x="481.25" y="-144.5" font-family="Helvetica,sans-Serif" font-size="10.00">BasicElement::createAndAdd</text>
<text xml:space="preserve" text-anchor="middle" x="545.38" y="-132.5" font-family="Helvetica,sans-Serif" font-size="10.00">DefaultConnectionPoints</text>
</a>
</g>
</g>
<!-- Node3&#45;&gt;Node4 -->
<g id="edge4_Node000003_Node000004" class="edge">
<title>Node3&#45;&gt;Node4</title>
<g id="a_edge4_Node000003_Node000004"><a xlink:title=" ">
<path fill="none" stroke="#63b8ff" d="M433.75,-157.23C442.88,-155.97 452.28,-154.68 461.57,-153.4"/>
<polygon fill="#63b8ff" stroke="#63b8ff" points="461.9,-156.89 471.33,-152.05 460.94,-149.95 461.9,-156.89"/>
</a>
</g>
</g>
<!-- Node9 -->
<g id="Node000009" class="node">
<title>Node9</title>
<g id="a_Node000009"><a xlink:href="class_basic_element.html#a01a6511d922708fe0042474740109152" target="_top" xlink:title=" ">
<polygon fill="white" stroke="#666666" points="614.5,-208 476.25,-208 476.25,-176 614.5,-176 614.5,-208"/>
<text xml:space="preserve" text-anchor="start" x="484.25" y="-194.5" font-family="Helvetica,sans-Serif" font-size="10.00">BasicElement::elementType</text>
<text xml:space="preserve" text-anchor="middle" x="545.38" y="-182.5" font-family="Helvetica,sans-Serif" font-size="10.00">ToString</text>
</a>
</g>
</g>
<!-- Node3&#45;&gt;Node9 -->
<g id="edge9_Node000003_Node000009" class="edge">
<title>Node3&#45;&gt;Node9</title>
<g id="a_edge9_Node000003_Node000009"><a xlink:title=" ">
<path fill="none" stroke="#63b8ff" d="M433.75,-176.77C443.91,-178.17 454.41,-179.62 464.72,-181.04"/>
<polygon fill="#63b8ff" stroke="#63b8ff" points="463.92,-184.46 474.3,-182.36 464.88,-177.52 463.92,-184.46"/>
</a>
</g>
</g>
<!-- Node5 -->
<g id="Node000005" class="node">
<title>Node5</title>
<g id="a_Node000005"><a xlink:href="class_basic_element.html#a0357bfa9b1ef06dd1c9d64bcb00813f4" target="_top" xlink:title=" ">
<polygon fill="white" stroke="#666666" points="807.5,-183 659.5,-183 659.5,-151 807.5,-151 807.5,-183"/>
<text xml:space="preserve" text-anchor="start" x="667.5" y="-169.5" font-family="Helvetica,sans-Serif" font-size="10.00">BasicElement::addConnection</text>
<text xml:space="preserve" text-anchor="middle" x="733.5" y="-157.5" font-family="Helvetica,sans-Serif" font-size="10.00">Point</text>
</a>
</g>
</g>
<!-- Node4&#45;&gt;Node5 -->
<g id="edge5_Node000004_Node000005" class="edge">
<title>Node4&#45;&gt;Node5</title>
<g id="a_edge5_Node000004_Node000005"><a xlink:title=" ">
<path fill="none" stroke="#63b8ff" d="M617.8,-151.59C627.64,-152.91 637.81,-154.28 647.85,-155.63"/>
<polygon fill="#63b8ff" stroke="#63b8ff" points="647.23,-159.08 657.61,-156.94 648.16,-152.14 647.23,-159.08"/>
</a>
</g>
</g>
<!-- Node6 -->
<g id="Node000006" class="node">
<title>Node6</title>
<g id="a_Node000006"><a xlink:href="class_connection_point.html#a828996f0bb02e9154b5d3af03f1734b8" target="_top" xlink:title=" ">
<polygon fill="white" stroke="#666666" points="809.75,-133 657.25,-133 657.25,-101 809.75,-101 809.75,-133"/>
<text xml:space="preserve" text-anchor="start" x="665.25" y="-119.5" font-family="Helvetica,sans-Serif" font-size="10.00">ConnectionPoint::createDefault</text>
<text xml:space="preserve" text-anchor="middle" x="733.5" y="-107.5" font-family="Helvetica,sans-Serif" font-size="10.00">ConnectionPoints</text>
</a>
</g>
</g>
<!-- Node4&#45;&gt;Node6 -->
<g id="edge6_Node000004_Node000006" class="edge">
<title>Node4&#45;&gt;Node6</title>
<g id="a_edge6_Node000004_Node000006"><a xlink:title=" ">
<path fill="none" stroke="#63b8ff" d="M617.8,-132.41C626.91,-131.18 636.32,-129.92 645.64,-128.67"/>
<polygon fill="#63b8ff" stroke="#63b8ff" points="645.99,-132.15 655.44,-127.35 645.06,-125.21 645.99,-132.15"/>
</a>
</g>
</g>
<!-- Node7 -->
<g id="Node000007" class="node">
<title>Node7</title>
<g id="a_Node000007"><a xlink:href="class_connection_point.html#a0bca0b4cf605278cb17d8052dc027932" target="_top" xlink:title=" ">
<polygon fill="white" stroke="#666666" points="1005,-133 845.75,-133 845.75,-101 1005,-101 1005,-133"/>
<text xml:space="preserve" text-anchor="start" x="853.75" y="-119.5" font-family="Helvetica,sans-Serif" font-size="10.00">ConnectionPoint::addConnection</text>
<text xml:space="preserve" text-anchor="middle" x="925.38" y="-107.5" font-family="Helvetica,sans-Serif" font-size="10.00">Point</text>
</a>
</g>
</g>
<!-- Node6&#45;&gt;Node7 -->
<g id="edge7_Node000006_Node000007" class="edge">
<title>Node6&#45;&gt;Node7</title>
<g id="a_edge7_Node000006_Node000007"><a xlink:title=" ">
<path fill="none" stroke="#63b8ff" d="M810.09,-117C817.96,-117 826.02,-117 834.03,-117"/>
<polygon fill="#63b8ff" stroke="#63b8ff" points="833.8,-120.5 843.8,-117 833.8,-113.5 833.8,-120.5"/>
</a>
</g>
</g>
<!-- Node8 -->
<g id="Node000008" class="node">
<title>Node8</title>
<g id="a_Node000008"><a xlink:href="class_connection_point.html#ac498b99d7f91805fea3eab19f2e8b260" target="_top" xlink:title=" ">
<polygon fill="white" stroke="#666666" points="1184.5,-133 1041,-133 1041,-101 1184.5,-101 1184.5,-133"/>
<text xml:space="preserve" text-anchor="start" x="1049" y="-119.5" font-family="Helvetica,sans-Serif" font-size="10.00">ConnectionPoint::Connection</text>
<text xml:space="preserve" text-anchor="middle" x="1112.75" y="-107.5" font-family="Helvetica,sans-Serif" font-size="10.00">Point</text>
</a>
</g>
</g>
<!-- Node7&#45;&gt;Node8 -->
<g id="edge8_Node000007_Node000008" class="edge">
<title>Node7&#45;&gt;Node8</title>
<g id="a_edge8_Node000007_Node000008"><a xlink:title=" ">
<path fill="none" stroke="#63b8ff" d="M1005.26,-117C1013.14,-117 1021.15,-117 1029.07,-117"/>
<polygon fill="#63b8ff" stroke="#63b8ff" points="1029.06,-120.5 1039.06,-117 1029.06,-113.5 1029.06,-120.5"/>
</a>
</g>
</g>
<!-- Node12 -->
<g id="Node000012" class="node">
<title>Node12</title>
<g id="a_Node000012"><a xlink:href="class_basic_element.html#a2cb2eb803daa35380908948215f8d468" target="_top" xlink:title=" ">
<polygon fill="white" stroke="#666666" points="616.38,-58 474.38,-58 474.38,-38 616.38,-38 616.38,-58"/>
<text xml:space="preserve" text-anchor="middle" x="545.38" y="-44.5" font-family="Helvetica,sans-Serif" font-size="10.00">BasicElement::minimumSize</text>
</a>
</g>
</g>
<!-- Node11&#45;&gt;Node12 -->
<g id="edge12_Node000011_Node000012" class="edge">
<title>Node11&#45;&gt;Node12</title>
<g id="a_edge12_Node000011_Node000012"><a xlink:title=" ">
<path fill="none" stroke="#63b8ff" d="M419.72,-48C433.48,-48 448.45,-48 463.09,-48"/>
<polygon fill="#63b8ff" stroke="#63b8ff" points="462.68,-51.5 472.68,-48 462.68,-44.5 462.68,-51.5"/>
</a>
</g>
</g>
<!-- Node13 -->
<g id="Node000013" class="node">
<title>Node13</title>
<g id="a_Node000013"><a xlink:href="class_basic_element.html#a596caee40cdd00a0aacce49689b63f92" target="_top" xlink:title=" ">
<polygon fill="white" stroke="#666666" points="621.25,-20 469.5,-20 469.5,0 621.25,0 621.25,-20"/>
<text xml:space="preserve" text-anchor="middle" x="545.38" y="-6.5" font-family="Helvetica,sans-Serif" font-size="10.00">BasicElement::notifyObservers</text>
</a>
</g>
</g>
<!-- Node11&#45;&gt;Node13 -->
<g id="edge13_Node000011_Node000013" class="edge">
<title>Node11&#45;&gt;Node13</title>
<g id="a_edge13_Node000011_Node000013"><a xlink:title=" ">
<path fill="none" stroke="#63b8ff" d="M412.86,-37.52C434.7,-32.95 460.49,-27.55 483.43,-22.75"/>
<polygon fill="#63b8ff" stroke="#63b8ff" points="483.88,-26.23 492.95,-20.76 482.44,-19.38 483.88,-26.23"/>
</a>
</g>
</g>
<!-- Node14 -->
<g id="Node000014" class="node">
<title>Node14</title>
<g id="a_Node000014"><a xlink:href="class_basic_element.html#a542adbf85a58c5c9bf17975964d7e446" target="_top" xlink:title=" ">
<polygon fill="white" stroke="#666666" points="595.75,-96 495,-96 495,-76 595.75,-76 595.75,-96"/>
<text xml:space="preserve" text-anchor="middle" x="545.38" y="-82.5" font-family="Helvetica,sans-Serif" font-size="10.00">BasicElement::size</text>
</a>
</g>
</g>
<!-- Node11&#45;&gt;Node14 -->
<g id="edge14_Node000011_Node000014" class="edge">
<title>Node11&#45;&gt;Node14</title>
<g id="a_edge14_Node000011_Node000014"><a xlink:title=" ">
<path fill="none" stroke="#63b8ff" d="M412.86,-58.48C434.79,-63.07 460.71,-68.49 483.71,-73.31"/>
<polygon fill="#63b8ff" stroke="#63b8ff" points="482.76,-76.68 493.26,-75.31 484.19,-69.83 482.76,-76.68"/>
</a>
</g>
</g>
<!-- Node15&#45;&gt;Node13 -->
<g id="edge18_Node000015_Node000013" class="edge">
<title>Node15&#45;&gt;Node13</title>
<g id="a_edge18_Node000015_Node000013"><a xlink:title=" ">
<path fill="none" stroke="#63b8ff" d="M254.42,-10C310.63,-10 394.84,-10 458.05,-10"/>
<polygon fill="#63b8ff" stroke="#63b8ff" points="457.68,-13.5 467.68,-10 457.68,-6.5 457.68,-13.5"/>
</a>
</g>
</g>
</g>
</svg>
