<?xml version="1.0" encoding="UTF-8" standalone="no"?>
<!DOCTYPE svg PUBLIC "-//W3C//DTD SVG 1.1//EN"
 "http://www.w3.org/Graphics/SVG/1.1/DTD/svg11.dtd">
<!-- Generated by graphviz version 14.1.1 (20251213.1925)
 -->
<!-- Title: MainWindow::setupUI Pages: 1 -->
<!--zoomable 453 -->

<svg id="main" version="1.1" xmlns="http://www.w3.org/2000/svg" xmlns:xlink="http://www.w3.org/1999/xlink" xml:space="preserve" onload="init(evt)">

<style type="text/css"><![CDATA[
.node, .edge {opacity: 0.7;}
.node.selected, .edge.selected {opacity: 1;}
.edge:hover path { stroke: red; }
.edge:hover polygon { stroke: red; fill: red; }
]]></style>

<defs>
  <circle id="rim" cx="0" cy="0" r="7"/>
  <circle id="rim2" cx="0" cy="0" r="3.5"/>
  <g id="zoomPlus">
    <use xlink:href="#rim" fill="#404040"><set attributeName="fill" to="#808080" begin="zoomplus.mouseover" end="zoomplus.mouseout"/></use>
    <path d="M-4,0h8M0,-4v8" fill="none" stroke="white" stroke-width="1.5" pointer-events="none"/>
  </g>
  <g id="zoomMin">
    <use xlink:href="#rim" fill="#404040"><set attributeName="fill" to="#808080" begin="zoomminus.mouseover" end="zoomminus.mouseout"/></use>
    <path d="M-4,0h8" fill="none" stroke="white" stroke-width="1.5" pointer-events="none"/>
  </g>
  <g id="arrowUp" transform="translate(30 24)">
    <use xlink:href="#rim"/>
    <path pointer-events="none" fill="none" stroke="white" stroke-width="1.5" d="M0,-3.0v7 M-2.5,-0.5L0,-3.0L2.5,-0.5"/>
  </g>
  <g id="arrowRight" transform="rotate(90) translate(36 -43)">
    <use xlink:href="#rim"/>
    <path pointer-events="none" fill="none" stroke="white" stroke-width="1.5" d="M0,-3.0v7 M-2.5,-0.5L0,-3.0L2.5,-0.5"/>
  </g>
  <g id="arrowDown" transform="rotate(180) translate(-30 -48)">
    <use xlink:href="#rim"/>
    <path pointer-events="none" fill="none" stroke="white" stroke-width="1.5" d="M0,-3.0v7 M-2.5,-0.5L0,-3.0L2.5,-0.5"/>
  </g>
  <g id="arrowLeft" transform="rotate(270) translate(-36 17)">
    <use xlink:href="#rim"/>
    <path pointer-events="none" fill="none" stroke="white" stroke-width="1.5" d="M0,-3.0v7 M-2.5,-0.5L0,-3.0L2.5,-0.5"/>
  </g>
  <g id="resetDef">
    <use xlink:href="#rim2" fill="#404040"><set attributeName="fill" to="#808080" begin="reset.mouseover" end="reset.mouseout"/></use>
  </g>
</defs>
<script type="application/ecmascript">
var viewWidth = 1256;
var viewHeight = 453;
var sectionId = 'dynsection-40';
</script>
<script type="application/ecmascript" xlink:href="svg.min.js"/>
<svg id="graph" class="graph">
<g id="viewport">
<title>MainWindow::setupUI</title>
<!-- Node1 -->
<g id="Node000001" class="node">
<title>Node1</title>
<g id="a_Node000001"><a xlink:title=" ">
<polygon fill="#999999" stroke="#666666" points="112.75,-210 0,-210 0,-190 112.75,-190 112.75,-210"/>
<text xml:space="preserve" text-anchor="middle" x="56.38" y="-196.5" font-family="Helvetica,sans-Serif" font-size="10.00">MainWindow::setupUI</text>
</a>
</g>
</g>
<!-- Node2 -->
<g id="Node000002" class="node">
<title>Node2</title>
<g id="a_Node000002"><a xlink:href="class_main_window.html#a87f94def1c8d92ef141ffb6a20cf3900" target="_top" xlink:title=" ">
<polygon fill="white" stroke="#666666" points="291.5,-387 154.75,-387 154.75,-355 291.5,-355 291.5,-387"/>
<text xml:space="preserve" text-anchor="start" x="162.75" y="-373.5" font-family="Helvetica,sans-Serif" font-size="10.00">MainWindow::createCentral</text>
<text xml:space="preserve" text-anchor="middle" x="223.12" y="-361.5" font-family="Helvetica,sans-Serif" font-size="10.00">Widget</text>
</a>
</g>
</g>
<!-- Node1&#45;&gt;Node2 -->
<g id="edge1_Node000001_Node000002" class="edge">
<title>Node1&#45;&gt;Node2</title>
<g id="a_edge1_Node000001_Node000002"><a xlink:title=" ">
<path fill="none" stroke="#63b8ff" d="M67.43,-210.44C93.22,-237.2 162.21,-308.82 198.72,-346.71"/>
<polygon fill="#63b8ff" stroke="#63b8ff" points="195.91,-348.83 205.37,-353.61 200.95,-343.98 195.91,-348.83"/>
</a>
</g>
</g>
<!-- Node12 -->
<g id="Node000012" class="node">
<title>Node12</title>
<g id="a_Node000012"><a xlink:href="class_main_window.html#a2305527bb5d827ae07967ea1c86ee6fb" target="_top" xlink:title=" ">
<polygon fill="white" stroke="#666666" points="295.25,-210 151,-210 151,-190 295.25,-190 295.25,-210"/>
<text xml:space="preserve" text-anchor="middle" x="223.12" y="-196.5" font-family="Helvetica,sans-Serif" font-size="10.00">MainWindow::createMenuBar</text>
</a>
</g>
</g>
<!-- Node1&#45;&gt;Node12 -->
<g id="edge14_Node000001_Node000012" class="edge">
<title>Node1&#45;&gt;Node12</title>
<g id="a_edge14_Node000001_Node000012"><a xlink:title=" ">
<path fill="none" stroke="#63b8ff" d="M113.15,-200C121.62,-200 130.51,-200 139.4,-200"/>
<polygon fill="#63b8ff" stroke="#63b8ff" points="139.12,-203.5 149.12,-200 139.12,-196.5 139.12,-203.5"/>
</a>
</g>
</g>
<!-- Node24 -->
<g id="Node000024" class="node">
<title>Node24</title>
<g id="a_Node000024"><a xlink:href="class_main_window.html#af0a8a3f54a87bd7ad6f23248dd0e9c09" target="_top" xlink:title=" ">
<polygon fill="white" stroke="#666666" points="297.5,-172 148.75,-172 148.75,-152 297.5,-152 297.5,-172"/>
<text xml:space="preserve" text-anchor="middle" x="223.12" y="-158.5" font-family="Helvetica,sans-Serif" font-size="10.00">MainWindow::createStatusBar</text>
</a>
</g>
</g>
<!-- Node1&#45;&gt;Node24 -->
<g id="edge36_Node000001_Node000024" class="edge">
<title>Node1&#45;&gt;Node24</title>
<g id="a_edge36_Node000001_Node000024"><a xlink:title=" ">
<path fill="none" stroke="#63b8ff" d="M102.83,-189.52C122.28,-185.03 145.19,-179.75 165.7,-175.01"/>
<polygon fill="#63b8ff" stroke="#63b8ff" points="166.39,-178.45 175.34,-172.79 164.81,-171.63 166.39,-178.45"/>
</a>
</g>
</g>
<!-- Node3 -->
<g id="Node000003" class="node">
<title>Node3</title>
<g id="a_Node000003"><a xlink:href="class_main_window.html#ac15079a99bc4f9b1a66e1da16bcbd55d" target="_top" xlink:title=" ">
<polygon fill="white" stroke="#666666" points="681.25,-381 519,-381 519,-361 681.25,-361 681.25,-381"/>
<text xml:space="preserve" text-anchor="middle" x="600.12" y="-367.5" font-family="Helvetica,sans-Serif" font-size="10.00">MainWindow::createDiagramArea</text>
</a>
</g>
</g>
<!-- Node2&#45;&gt;Node3 -->
<g id="edge2_Node000002_Node000003" class="edge">
<title>Node2&#45;&gt;Node3</title>
<g id="a_edge2_Node000002_Node000003"><a xlink:title=" ">
<path fill="none" stroke="#63b8ff" d="M291.6,-371C351.9,-371 440.77,-371 507.49,-371"/>
<polygon fill="#63b8ff" stroke="#63b8ff" points="507.32,-374.5 517.32,-371 507.32,-367.5 507.32,-374.5"/>
</a>
</g>
</g>
<!-- Node9 -->
<g id="Node000009" class="node">
<title>Node9</title>
<g id="a_Node000009"><a xlink:href="class_main_window.html#a002a373734d320507137dfb74d6b34a6" target="_top" xlink:title=" ">
<polygon fill="white" stroke="#666666" points="483,-422 333.5,-422 333.5,-402 483,-402 483,-422"/>
<text xml:space="preserve" text-anchor="middle" x="408.25" y="-408.5" font-family="Helvetica,sans-Serif" font-size="10.00">MainWindow::createSidePanel</text>
</a>
</g>
</g>
<!-- Node2&#45;&gt;Node9 -->
<g id="edge8_Node000002_Node000009" class="edge">
<title>Node2&#45;&gt;Node9</title>
<g id="a_edge8_Node000002_Node000009"><a xlink:title=" ">
<path fill="none" stroke="#63b8ff" d="M291.79,-386.15C310.69,-390.38 331.05,-394.94 349.34,-399.03"/>
<polygon fill="#63b8ff" stroke="#63b8ff" points="348.42,-402.41 358.94,-401.18 349.95,-395.58 348.42,-402.41"/>
</a>
</g>
</g>
<!-- Node4 -->
<g id="Node000004" class="node">
<title>Node4</title>
<g id="a_Node000004"><a xlink:href="class_diagram_view.html#aff439ca64e209a13a5ca84de4307deb4" target="_top" xlink:title=" ">
<polygon fill="white" stroke="#666666" points="873.88,-395 722.12,-395 722.12,-375 873.88,-375 873.88,-395"/>
<text xml:space="preserve" text-anchor="middle" x="798" y="-381.5" font-family="Helvetica,sans-Serif" font-size="10.00">DiagramView::elementDropped</text>
</a>
</g>
</g>
<!-- Node3&#45;&gt;Node4 -->
<g id="edge3_Node000003_Node000004" class="edge">
<title>Node3&#45;&gt;Node4</title>
<g id="a_edge3_Node000003_Node000004"><a xlink:title=" ">
<path fill="none" stroke="#63b8ff" d="M681.64,-376.75C691.2,-377.44 700.98,-378.14 710.62,-378.83"/>
<polygon fill="#63b8ff" stroke="#63b8ff" points="710.1,-382.3 720.32,-379.52 710.6,-375.32 710.1,-382.3"/>
</a>
</g>
</g>
<!-- Node5 -->
<g id="Node000005" class="node">
<title>Node5</title>
<g id="a_Node000005"><a xlink:href="class_main_window.html#a880a071072561df84782f84e0321da4e" target="_top" xlink:title=" ">
<polygon fill="white" stroke="#666666" points="878.75,-357 717.25,-357 717.25,-337 878.75,-337 878.75,-357"/>
<text xml:space="preserve" text-anchor="middle" x="798" y="-343.5" font-family="Helvetica,sans-Serif" font-size="10.00">MainWindow::onElementDropped</text>
</a>
</g>
</g>
<!-- Node3&#45;&gt;Node5 -->
<g id="edge4_Node000003_Node000005" class="edge">
<title>Node3&#45;&gt;Node5</title>
<g id="a_edge4_Node000003_Node000005"><a xlink:title=" ">
<path fill="none" stroke="#63b8ff" d="M681.64,-361.13C689.53,-360.17 697.58,-359.18 705.56,-358.2"/>
<polygon fill="#63b8ff" stroke="#63b8ff" points="705.79,-361.7 715.29,-357.01 704.94,-354.75 705.79,-361.7"/>
</a>
</g>
</g>
<!-- Node6 -->
<g id="Node000006" class="node">
<title>Node6</title>
<g id="a_Node000006"><a xlink:href="class_element_factory.html#a84bb24abdffea9682c5c007bc7792927" target="_top" xlink:title=" ">
<polygon fill="white" stroke="#666666" points="1068.75,-398 914.75,-398 914.75,-378 1068.75,-378 1068.75,-398"/>
<text xml:space="preserve" text-anchor="middle" x="991.75" y="-384.5" font-family="Helvetica,sans-Serif" font-size="10.00">ElementFactory::createElement</text>
</a>
</g>
</g>
<!-- Node5&#45;&gt;Node6 -->
<g id="edge5_Node000005_Node000006" class="edge">
<title>Node5&#45;&gt;Node6</title>
<g id="a_edge5_Node000005_Node000006"><a xlink:title=" ">
<path fill="none" stroke="#63b8ff" d="M847.88,-357.45C873.13,-362.85 904.14,-369.48 930.82,-375.19"/>
<polygon fill="#63b8ff" stroke="#63b8ff" points="929.97,-378.58 940.48,-377.25 931.43,-371.74 929.97,-378.58"/>
</a>
</g>
</g>
<!-- Node7 -->
<g id="Node000007" class="node">
<title>Node7</title>
<g id="a_Node000007"><a xlink:href="class_main_window.html#a51ab21a1be4a1389a00bdb35feee8d64" target="_top" xlink:title=" ">
<polygon fill="white" stroke="#666666" points="1067.25,-319 916.25,-319 916.25,-299 1067.25,-299 1067.25,-319"/>
<text xml:space="preserve" text-anchor="middle" x="991.75" y="-305.5" font-family="Helvetica,sans-Serif" font-size="10.00">MainWindow::updateStatusBar</text>
</a>
</g>
</g>
<!-- Node5&#45;&gt;Node7 -->
<g id="edge6_Node000005_Node000007" class="edge">
<title>Node5&#45;&gt;Node7</title>
<g id="a_edge6_Node000005_Node000007"><a xlink:title=" ">
<path fill="none" stroke="#63b8ff" d="M851.9,-336.52C875.06,-331.93 902.44,-326.5 926.74,-321.69"/>
<polygon fill="#63b8ff" stroke="#63b8ff" points="927.41,-325.12 936.53,-319.74 926.04,-318.26 927.41,-325.12"/>
</a>
</g>
</g>
<!-- Node8 -->
<g id="Node000008" class="node">
<title>Node8</title>
<g id="a_Node000008"><a xlink:href="class_main_window.html#a90cfbcf2e0f2549760a60f184ee0acbf" target="_top" xlink:title=" ">
<polygon fill="white" stroke="#666666" points="1247.5,-268 1104.75,-268 1104.75,-236 1247.5,-236 1247.5,-268"/>
<text xml:space="preserve" text-anchor="start" x="1112.75" y="-254.5" font-family="Helvetica,sans-Serif" font-size="10.00">MainWindow::updateWindow</text>
<text xml:space="preserve" text-anchor="middle" x="1176.12" y="-242.5" font-family="Helvetica,sans-Serif" font-size="10.00">Title</text>
</a>
</g>
</g>
<!-- Node5&#45;&gt;Node8 -->
<g id="edge7_Node000005_Node000008" class="edge">
<title>Node5&#45;&gt;Node8</title>
<g id="a_edge7_Node000005_Node000008"><a xlink:title=" ">
<path fill="none" stroke="#63b8ff" d="M879.24,-352.59C934.16,-353.74 1007.79,-349.93 1068.75,-328 1100,-316.76 1130.29,-293.53 1150.5,-275.7"/>
<polygon fill="#63b8ff" stroke="#63b8ff" points="1152.6,-278.52 1157.66,-269.21 1147.9,-273.33 1152.6,-278.52"/>
</a>
</g>
</g>
<!-- Node10 -->
<g id="Node000010" class="node">
<title>Node10</title>
<g id="a_Node000010"><a xlink:href="class_main_window.html#a2b7e0ad982cc26a1351f1530ea090b5b" target="_top" xlink:title=" ">
<polygon fill="white" stroke="#666666" points="670.75,-440 529.5,-440 529.5,-408 670.75,-408 670.75,-440"/>
<text xml:space="preserve" text-anchor="start" x="537.5" y="-426.5" font-family="Helvetica,sans-Serif" font-size="10.00">MainWindow::createDrawing</text>
<text xml:space="preserve" text-anchor="middle" x="600.12" y="-414.5" font-family="Helvetica,sans-Serif" font-size="10.00">Button</text>
</a>
</g>
</g>
<!-- Node9&#45;&gt;Node10 -->
<g id="edge9_Node000009_Node000010" class="edge">
<title>Node9&#45;&gt;Node10</title>
<g id="a_edge9_Node000009_Node000010"><a xlink:title=" ">
<path fill="none" stroke="#63b8ff" d="M483.48,-416.69C494.79,-417.41 506.51,-418.15 517.96,-418.87"/>
<polygon fill="#63b8ff" stroke="#63b8ff" points="517.58,-422.35 527.79,-419.49 518.03,-415.37 517.58,-422.35"/>
</a>
</g>
</g>
<!-- Node11 -->
<g id="Node000011" class="node">
<title>Node11</title>
<g id="a_Node000011"><a xlink:href="class_main_window.html#a618482f2eb3e3a2eb8c5937f6374c79a" target="_top" xlink:title=" ">
<polygon fill="white" stroke="#666666" points="869,-445 727,-445 727,-413 869,-413 869,-445"/>
<text xml:space="preserve" text-anchor="start" x="735" y="-431.5" font-family="Helvetica,sans-Serif" font-size="10.00">MainWindow::onAddElement</text>
<text xml:space="preserve" text-anchor="middle" x="798" y="-419.5" font-family="Helvetica,sans-Serif" font-size="10.00">Clicked</text>
</a>
</g>
</g>
<!-- Node10&#45;&gt;Node11 -->
<g id="edge10_Node000010_Node000011" class="edge">
<title>Node10&#45;&gt;Node11</title>
<g id="a_edge10_Node000010_Node000011"><a xlink:title=" ">
<path fill="none" stroke="#63b8ff" d="M671.01,-425.78C685.46,-426.15 700.79,-426.54 715.61,-426.92"/>
<polygon fill="#63b8ff" stroke="#63b8ff" points="715.21,-430.41 725.3,-427.17 715.39,-423.42 715.21,-430.41"/>
</a>
</g>
</g>
<!-- Node11&#45;&gt;Node6 -->
<g id="edge11_Node000011_Node000006" class="edge">
<title>Node11&#45;&gt;Node6</title>
<g id="a_edge11_Node000011_Node000006"><a xlink:title=" ">
<path fill="none" stroke="#63b8ff" d="M869.31,-413.97C889.42,-409.67 911.14,-405.02 930.57,-400.87"/>
<polygon fill="#63b8ff" stroke="#63b8ff" points="931.2,-404.31 940.25,-398.8 929.73,-397.47 931.2,-404.31"/>
</a>
</g>
</g>
<!-- Node11&#45;&gt;Node7 -->
<g id="edge12_Node000011_Node000007" class="edge">
<title>Node11&#45;&gt;Node7</title>
<g id="a_edge12_Node000011_Node000007"><a xlink:title=" ">
<path fill="none" stroke="#63b8ff" d="M861.63,-412.51C867.58,-410.02 873.39,-407.19 878.75,-404 897.92,-392.57 897.97,-383.71 914.75,-369 932.02,-353.86 952.51,-337.79 967.86,-326.09"/>
<polygon fill="#63b8ff" stroke="#63b8ff" points="969.6,-329.16 975.47,-320.34 965.38,-323.58 969.6,-329.16"/>
</a>
</g>
</g>
<!-- Node11&#45;&gt;Node8 -->
<g id="edge13_Node000011_Node000008" class="edge">
<title>Node11&#45;&gt;Node8</title>
<g id="a_edge13_Node000011_Node000008"><a xlink:title=" ">
<path fill="none" stroke="#63b8ff" d="M869.24,-439.08C926.74,-443.8 1008.18,-442.11 1068.75,-407 1118.9,-377.93 1150.67,-314.58 1165.42,-278.51"/>
<polygon fill="#63b8ff" stroke="#63b8ff" points="1168.49,-280.26 1168.9,-269.67 1161.98,-277.7 1168.49,-280.26"/>
</a>
</g>
</g>
<!-- Node13 -->
<g id="Node000013" class="node">
<title>Node13</title>
<g id="a_Node000013"><a xlink:href="class_main_window.html#aaf455232cccaa422fc4c371fa99bff84" target="_top" xlink:title=" ">
<polygon fill="white" stroke="#666666" points="480.75,-210 335.75,-210 335.75,-190 480.75,-190 480.75,-210"/>
<text xml:space="preserve" text-anchor="middle" x="408.25" y="-196.5" font-family="Helvetica,sans-Serif" font-size="10.00">MainWindow::createFileMenu</text>
</a>
</g>
</g>
<!-- Node12&#45;&gt;Node13 -->
<g id="edge15_Node000012_Node000013" class="edge">
<title>Node12&#45;&gt;Node13</title>
<g id="a_edge15_Node000012_Node000013"><a xlink:title=" ">
<path fill="none" stroke="#63b8ff" d="M295.71,-200C304.98,-200 314.54,-200 323.98,-200"/>
<polygon fill="#63b8ff" stroke="#63b8ff" points="323.9,-203.5 333.9,-200 323.9,-196.5 323.9,-203.5"/>
</a>
</g>
</g>
<!-- Node21 -->
<g id="Node000021" class="node">
<title>Node21</title>
<g id="a_Node000021"><a xlink:href="class_main_window.html#a02e77ad39637c2db66227e8f8954adcb" target="_top" xlink:title=" ">
<polygon fill="white" stroke="#666666" points="483,-77 333.5,-77 333.5,-57 483,-57 483,-77"/>
<text xml:space="preserve" text-anchor="middle" x="408.25" y="-63.5" font-family="Helvetica,sans-Serif" font-size="10.00">MainWindow::createHelpMenu</text>
</a>
</g>
</g>
<!-- Node12&#45;&gt;Node21 -->
<g id="edge32_Node000012_Node000021" class="edge">
<title>Node12&#45;&gt;Node21</title>
<g id="a_edge32_Node000012_Node000021"><a xlink:title=" ">
<path fill="none" stroke="#63b8ff" d="M278.39,-189.61C285.06,-187.29 291.59,-184.45 297.5,-181 339.17,-156.65 375.33,-112.03 393.92,-86.43"/>
<polygon fill="#63b8ff" stroke="#63b8ff" points="396.57,-88.75 399.5,-78.57 390.86,-84.71 396.57,-88.75"/>
</a>
</g>
</g>
<!-- Node14 -->
<g id="Node000014" class="node">
<title>Node14</title>
<g id="a_Node000014"><a xlink:href="class_main_window.html#adc645337d8ad9b2b9300f13e251fb5cb" target="_top" xlink:title=" ">
<polygon fill="white" stroke="#666666" points="666.62,-96 533.62,-96 533.62,-76 666.62,-76 666.62,-96"/>
<text xml:space="preserve" text-anchor="middle" x="600.12" y="-82.5" font-family="Helvetica,sans-Serif" font-size="10.00">MainWindow::createAction</text>
</a>
</g>
</g>
<!-- Node13&#45;&gt;Node14 -->
<g id="edge16_Node000013_Node000014" class="edge">
<title>Node13&#45;&gt;Node14</title>
<g id="a_edge16_Node000013_Node000014"><a xlink:title=" ">
<path fill="none" stroke="#63b8ff" d="M419.13,-189.52C437.23,-170.91 477.67,-131.99 519,-110 526.23,-106.15 534.16,-102.84 542.13,-100.01"/>
<polygon fill="#63b8ff" stroke="#63b8ff" points="543.12,-103.36 551.53,-96.91 540.93,-96.72 543.12,-103.36"/>
</a>
</g>
</g>
<!-- Node15 -->
<g id="Node000015" class="node">
<title>Node15</title>
<g id="a_Node000015"><a xlink:href="class_main_window.html#ab1ad4dd7adf6066b3c4cc3b7154eaf65" target="_top" xlink:title=" ">
<polygon fill="white" stroke="#666666" points="671.12,-210 529.12,-210 529.12,-190 671.12,-190 671.12,-210"/>
<text xml:space="preserve" text-anchor="middle" x="600.12" y="-196.5" font-family="Helvetica,sans-Serif" font-size="10.00">MainWindow::exitApplication</text>
</a>
</g>
</g>
<!-- Node13&#45;&gt;Node15 -->
<g id="edge17_Node000013_Node000015" class="edge">
<title>Node13&#45;&gt;Node15</title>
<g id="a_edge17_Node000013_Node000015"><a xlink:title=" ">
<path fill="none" stroke="#63b8ff" d="M481.03,-200C492.89,-200 505.26,-200 517.34,-200"/>
<polygon fill="#63b8ff" stroke="#63b8ff" points="517.3,-203.5 527.3,-200 517.3,-196.5 517.3,-203.5"/>
</a>
</g>
</g>
<!-- Node16 -->
<g id="Node000016" class="node">
<title>Node16</title>
<g id="a_Node000016"><a xlink:href="class_main_window.html#a1d019681beef43511b35dec6f27d2077" target="_top" xlink:title=" ">
<polygon fill="white" stroke="#666666" points="869,-319 727,-319 727,-299 869,-299 869,-319"/>
<text xml:space="preserve" text-anchor="middle" x="798" y="-305.5" font-family="Helvetica,sans-Serif" font-size="10.00">MainWindow::exportDiagram</text>
</a>
</g>
</g>
<!-- Node13&#45;&gt;Node16 -->
<g id="edge18_Node000013_Node000016" class="edge">
<title>Node13&#45;&gt;Node16</title>
<g id="a_edge18_Node000013_Node000016"><a xlink:title=" ">
<path fill="none" stroke="#63b8ff" d="M417.21,-210.49C433.59,-231.15 473.4,-276.69 519,-295 581.54,-320.12 658.43,-322.02 715.49,-318.55"/>
<polygon fill="#63b8ff" stroke="#63b8ff" points="715.38,-322.07 725.12,-317.9 714.9,-315.09 715.38,-322.07"/>
</a>
</g>
</g>
<!-- Node17 -->
<g id="Node000017" class="node">
<title>Node17</title>
<g id="a_Node000017"><a xlink:href="class_main_window.html#a69f73b93cc05c89a9ae1be0161105982" target="_top" xlink:title=" ">
<polygon fill="white" stroke="#666666" points="656.12,-286 544.12,-286 544.12,-266 656.12,-266 656.12,-286"/>
<text xml:space="preserve" text-anchor="middle" x="600.12" y="-272.5" font-family="Helvetica,sans-Serif" font-size="10.00">MainWindow::newFile</text>
</a>
</g>
</g>
<!-- Node13&#45;&gt;Node17 -->
<g id="edge20_Node000013_Node000017" class="edge">
<title>Node13&#45;&gt;Node17</title>
<g id="a_edge20_Node000013_Node000017"><a xlink:title=" ">
<path fill="none" stroke="#63b8ff" d="M428.68,-210.31C450.32,-221.53 486.52,-239.53 519,-252 528.66,-255.71 539.14,-259.21 549.25,-262.34"/>
<polygon fill="#63b8ff" stroke="#63b8ff" points="547.98,-265.61 558.56,-265.14 549.99,-258.91 547.98,-265.61"/>
</a>
</g>
</g>
<!-- Node18 -->
<g id="Node000018" class="node">
<title>Node18</title>
<g id="a_Node000018"><a xlink:href="class_main_window.html#a464aaa4d378e7b2d814756a73d6e1ed6" target="_top" xlink:title=" ">
<polygon fill="white" stroke="#666666" points="855.5,-243 740.5,-243 740.5,-223 855.5,-223 855.5,-243"/>
<text xml:space="preserve" text-anchor="middle" x="798" y="-229.5" font-family="Helvetica,sans-Serif" font-size="10.00">MainWindow::saveFile</text>
</a>
</g>
</g>
<!-- Node13&#45;&gt;Node18 -->
<g id="edge31_Node000013_Node000018" class="edge">
<title>Node13&#45;&gt;Node18</title>
<g id="a_edge31_Node000013_Node000018"><a xlink:title=" ">
<path fill="none" stroke="#63b8ff" d="M462.1,-210.48C480.09,-213.69 500.36,-216.92 519,-219 590.33,-226.94 672.46,-230.38 728.86,-231.87"/>
<polygon fill="#63b8ff" stroke="#63b8ff" points="728.54,-235.36 738.62,-232.11 728.71,-228.36 728.54,-235.36"/>
</a>
</g>
</g>
<!-- Node19 -->
<g id="Node000019" class="node">
<title>Node19</title>
<g id="a_Node000019"><a xlink:href="class_main_window.html#ace1b7624a64f4d70513b86601e5846f9" target="_top" xlink:title=" ">
<polygon fill="white" stroke="#666666" points="1055.25,-167 928.25,-167 928.25,-147 1055.25,-147 1055.25,-167"/>
<text xml:space="preserve" text-anchor="middle" x="991.75" y="-153.5" font-family="Helvetica,sans-Serif" font-size="10.00">MainWindow::saveAsFile</text>
</a>
</g>
</g>
<!-- Node13&#45;&gt;Node19 -->
<g id="edge30_Node000013_Node000019" class="edge">
<title>Node13&#45;&gt;Node19</title>
<g id="a_edge30_Node000013_Node000019"><a xlink:title=" ">
<path fill="none" stroke="#63b8ff" d="M423.61,-189.64C443.75,-175.81 482.08,-152.02 519,-143 661.55,-108.19 835.53,-128.94 927.2,-144.54"/>
<polygon fill="#63b8ff" stroke="#63b8ff" points="926.55,-147.98 937.01,-146.25 927.76,-141.09 926.55,-147.98"/>
</a>
</g>
</g>
<!-- Node20 -->
<g id="Node000020" class="node">
<title>Node20</title>
<g id="a_Node000020"><a xlink:href="class_main_window.html#a288b768c3c21a9171bdc56fe845ece8b" target="_top" xlink:title=" ">
<polygon fill="white" stroke="#666666" points="657.62,-172 542.62,-172 542.62,-152 657.62,-152 657.62,-172"/>
<text xml:space="preserve" text-anchor="middle" x="600.12" y="-158.5" font-family="Helvetica,sans-Serif" font-size="10.00">MainWindow::openFile</text>
</a>
</g>
</g>
<!-- Node13&#45;&gt;Node20 -->
<g id="edge27_Node000013_Node000020" class="edge">
<title>Node13&#45;&gt;Node20</title>
<g id="a_edge27_Node000013_Node000020"><a xlink:title=" ">
<path fill="none" stroke="#63b8ff" d="M461.64,-189.52C484.57,-184.93 511.68,-179.5 535.74,-174.69"/>
<polygon fill="#63b8ff" stroke="#63b8ff" points="536.31,-178.14 545.43,-172.75 534.93,-171.28 536.31,-178.14"/>
</a>
</g>
</g>
<!-- Node16&#45;&gt;Node7 -->
<g id="edge19_Node000016_Node000007" class="edge">
<title>Node16&#45;&gt;Node7</title>
<g id="a_edge19_Node000016_Node000007"><a xlink:title=" ">
<path fill="none" stroke="#63b8ff" d="M869.31,-309C880.81,-309 892.85,-309 904.68,-309"/>
<polygon fill="#63b8ff" stroke="#63b8ff" points="904.42,-312.5 914.42,-309 904.42,-305.5 904.42,-312.5"/>
</a>
</g>
</g>
<!-- Node17&#45;&gt;Node8 -->
<g id="edge26_Node000017_Node000008" class="edge">
<title>Node17&#45;&gt;Node8</title>
<g id="a_edge26_Node000017_Node000008"><a xlink:title=" ">
<path fill="none" stroke="#63b8ff" d="M656.56,-273.86C744.12,-270.46 919.8,-263.53 1068.75,-257 1076.69,-256.65 1084.96,-256.28 1093.22,-255.9"/>
<polygon fill="#63b8ff" stroke="#63b8ff" points="1093.12,-259.41 1102.95,-255.45 1092.8,-252.42 1093.12,-259.41"/>
</a>
</g>
</g>
<!-- Node17&#45;&gt;Node18 -->
<g id="edge21_Node000017_Node000018" class="edge">
<title>Node17&#45;&gt;Node18</title>
<g id="a_edge21_Node000017_Node000018"><a xlink:title=" ">
<path fill="none" stroke="#63b8ff" d="M648.79,-265.54C675.78,-259.61 709.76,-252.15 738.38,-245.87"/>
<polygon fill="#63b8ff" stroke="#63b8ff" points="738.96,-249.32 747.98,-243.76 737.46,-242.49 738.96,-249.32"/>
</a>
</g>
</g>
<!-- Node18&#45;&gt;Node7 -->
<g id="edge24_Node000018_Node000007" class="edge">
<title>Node18&#45;&gt;Node7</title>
<g id="a_edge24_Node000018_Node000007"><a xlink:title=" ">
<path fill="none" stroke="#63b8ff" d="M825.26,-243.41C858.59,-256.62 916.26,-279.48 953.96,-294.42"/>
<polygon fill="#63b8ff" stroke="#63b8ff" points="952.51,-297.61 963.09,-298.04 955.09,-291.1 952.51,-297.61"/>
</a>
</g>
</g>
<!-- Node18&#45;&gt;Node8 -->
<g id="edge25_Node000018_Node000008" class="edge">
<title>Node18&#45;&gt;Node8</title>
<g id="a_edge25_Node000018_Node000008"><a xlink:title=" ">
<path fill="none" stroke="#63b8ff" d="M855.72,-235.87C918.83,-239.05 1021.37,-244.23 1093.2,-247.86"/>
<polygon fill="#63b8ff" stroke="#63b8ff" points="1092.78,-251.34 1102.94,-248.35 1093.13,-244.35 1092.78,-251.34"/>
</a>
</g>
</g>
<!-- Node18&#45;&gt;Node19 -->
<g id="edge22_Node000018_Node000019" class="edge">
<title>Node18&#45;&gt;Node19</title>
<g id="a_edge22_Node000018_Node000019"><a xlink:title=" ">
<path fill="none" stroke="#63b8ff" d="M825.26,-222.59C858.59,-209.38 916.26,-186.52 953.96,-171.58"/>
<polygon fill="#63b8ff" stroke="#63b8ff" points="955.09,-174.9 963.09,-167.96 952.51,-168.39 955.09,-174.9"/>
</a>
</g>
</g>
<!-- Node19&#45;&gt;Node8 -->
<g id="edge23_Node000019_Node000008" class="edge">
<title>Node19&#45;&gt;Node8</title>
<g id="a_edge23_Node000019_Node000008"><a xlink:title=" ">
<path fill="none" stroke="#63b8ff" d="M1033.01,-167.39C1044.79,-171.05 1057.52,-175.61 1068.75,-181 1096.23,-194.18 1124.82,-213.64 1145.44,-228.85"/>
<polygon fill="#63b8ff" stroke="#63b8ff" points="1143.28,-231.61 1153.38,-234.81 1147.48,-226.01 1143.28,-231.61"/>
</a>
</g>
</g>
<!-- Node20&#45;&gt;Node8 -->
<g id="edge29_Node000020_Node000008" class="edge">
<title>Node20&#45;&gt;Node8</title>
<g id="a_edge29_Node000020_Node000008"><a xlink:title=" ">
<path fill="none" stroke="#63b8ff" d="M658,-170.81C746.04,-184.47 920.63,-211.6 1068.75,-235 1076.69,-236.25 1084.96,-237.57 1093.22,-238.88"/>
<polygon fill="#63b8ff" stroke="#63b8ff" points="1092.54,-242.32 1102.97,-240.43 1093.64,-235.4 1092.54,-242.32"/>
</a>
</g>
</g>
<!-- Node20&#45;&gt;Node18 -->
<g id="edge28_Node000020_Node000018" class="edge">
<title>Node20&#45;&gt;Node18</title>
<g id="a_edge28_Node000020_Node000018"><a xlink:title=" ">
<path fill="none" stroke="#63b8ff" d="M657.78,-172.21C665.85,-174.58 673.9,-177.48 681.25,-181 699.53,-189.76 699.24,-199.7 717.25,-209 724.75,-212.87 732.98,-216.23 741.22,-219.1"/>
<polygon fill="#63b8ff" stroke="#63b8ff" points="739.96,-222.37 750.55,-222.14 742.12,-215.72 739.96,-222.37"/>
</a>
</g>
</g>
<!-- Node21&#45;&gt;Node14 -->
<g id="edge33_Node000021_Node000014" class="edge">
<title>Node21&#45;&gt;Node14</title>
<g id="a_edge33_Node000021_Node000014"><a xlink:title=" ">
<path fill="none" stroke="#63b8ff" d="M483.48,-74.43C496.19,-75.7 509.42,-77.02 522.2,-78.3"/>
<polygon fill="#63b8ff" stroke="#63b8ff" points="521.48,-81.75 531.78,-79.26 522.18,-74.78 521.48,-81.75"/>
</a>
</g>
</g>
<!-- Node22 -->
<g id="Node000022" class="node">
<title>Node22</title>
<g id="a_Node000022"><a xlink:href="class_main_window.html#aa3aa0f3ce42e748b931d6211921ea197" target="_top" xlink:title=" ">
<polygon fill="white" stroke="#666666" points="663.62,-58 536.62,-58 536.62,-38 663.62,-38 663.62,-58"/>
<text xml:space="preserve" text-anchor="middle" x="600.12" y="-44.5" font-family="Helvetica,sans-Serif" font-size="10.00">MainWindow::showAbout</text>
</a>
</g>
</g>
<!-- Node21&#45;&gt;Node22 -->
<g id="edge34_Node000021_Node000022" class="edge">
<title>Node21&#45;&gt;Node22</title>
<g id="a_edge34_Node000021_Node000022"><a xlink:title=" ">
<path fill="none" stroke="#63b8ff" d="M483.48,-59.57C497.13,-58.21 511.38,-56.78 525.03,-55.41"/>
<polygon fill="#63b8ff" stroke="#63b8ff" points="525.22,-58.91 534.82,-54.43 524.52,-51.95 525.22,-58.91"/>
</a>
</g>
</g>
<!-- Node23 -->
<g id="Node000023" class="node">
<title>Node23</title>
<g id="a_Node000023"><a xlink:href="class_main_window.html#a3111788b36503e5ae8eabef2b32a6f62" target="_top" xlink:title=" ">
<polygon fill="white" stroke="#666666" points="661,-20 539.25,-20 539.25,0 661,0 661,-20"/>
<text xml:space="preserve" text-anchor="middle" x="600.12" y="-6.5" font-family="Helvetica,sans-Serif" font-size="10.00">MainWindow::showHelp</text>
</a>
</g>
</g>
<!-- Node21&#45;&gt;Node23 -->
<g id="edge35_Node000021_Node000023" class="edge">
<title>Node21&#45;&gt;Node23</title>
<g id="a_edge35_Node000021_Node000023"><a xlink:title=" ">
<path fill="none" stroke="#63b8ff" d="M436.97,-56.54C459.01,-48.43 490.73,-37.22 519,-29 525.93,-26.98 533.24,-25.03 540.51,-23.18"/>
<polygon fill="#63b8ff" stroke="#63b8ff" points="541.13,-26.63 550,-20.83 539.45,-19.84 541.13,-26.63"/>
</a>
</g>
</g>
</g>
</svg>

<g id="navigator" transform="translate(0 0)" fill="#404254">
  <rect fill="#f2f5e9" fill-opacity="0.5" stroke="#606060" stroke-width=".5" x="0" y="0" width="60" height="60"/>
  <use id="zoomplus" xlink:href="#zoomPlus" x="17" y="9" onmousedown="handleZoom(evt,'in')"/>
  <use id="zoomminus" xlink:href="#zoomMin" x="42" y="9" onmousedown="handleZoom(evt,'out')"/>
  <use id="reset" xlink:href="#resetDef" x="30" y="36" onmousedown="handleReset()"/>
   <use id="arrowup" xlink:href="#arrowUp" x="0" y="0" onmousedown="handlePan(0,-1)"/>
  <use id="arrowright" xlink:href="#arrowRight" x="0" y="0" onmousedown="handlePan(1,0)"/>
  <use id="arrowdown" xlink:href="#arrowDown" x="0" y="0" onmousedown="handlePan(0,1)"/>
  <use id="arrowleft" xlink:href="#arrowLeft" x="0" y="0" onmousedown="handlePan(-1,0)"/>
</g>
<svg viewBox="0 0 15 15" width="100%" height="30px" preserveAspectRatio="xMaxYMin meet">
 <g id="arrow_out" transform="scale(0.3 0.3)">
  <a xlink:href="class_main_window_a3a304253c9e7caeef028f75358bf1fd5_cgraph_org.svg" target="_base">
   <rect id="button" ry="5" rx="5" y="6" x="6" height="38" width="38"
        fill="#f2f5e9" fill-opacity="0.5" stroke="#606060" stroke-width="1.0"/>
   <path id="arrow"
     d="M 11.500037,31.436501 C 11.940474,20.09759 22.043105,11.32322 32.158766,21.979434 L 37.068811,17.246167 C 37.068811,17.246167 37.088388,32 37.088388,32 L 22.160133,31.978069 C 22.160133,31.978069 26.997745,27.140456 26.997745,27.140456 C 18.528582,18.264221 13.291696,25.230495 11.500037,31.436501 z"
     style="fill:#404040;"/>
  </a>
 </g>
</svg>

<style type='text/css'>
<![CDATA[
[data-mouse-over-selected='false'] { opacity: 0.7; }
[data-mouse-over-selected='true']  { opacity: 1.0; }
]]>
</style>
<script type="application/ecmascript"><![CDATA[
document.addEventListener('DOMContentLoaded', (event) => {
  highlightEdges();
  highlightAdjacentNodes();
});
]]></script>
</svg>
