<?xml version="1.0" encoding="UTF-8" standalone="no"?>
<!DOCTYPE svg PUBLIC "-//W3C//DTD SVG 1.1//EN"
 "http://www.w3.org/Graphics/SVG/1.1/DTD/svg11.dtd">
<!-- Generated by graphviz version 14.1.1 (20251213.1925)
 -->
<!-- Title: Entity::Entity Pages: 1 -->
<!--zoomable 305 -->

<svg id="main" version="1.1" xmlns="http://www.w3.org/2000/svg" xmlns:xlink="http://www.w3.org/1999/xlink" xml:space="preserve" onload="init(evt)">

<style type="text/css"><![CDATA[
.node, .edge {opacity: 0.7;}
.node.selected, .edge.selected {opacity: 1;}
.edge:hover path { stroke: red; }
.edge:hover polygon { stroke: red; fill: red; }
]]></style>

<defs>
  <circle id="rim" cx="0" cy="0" r="7"/>
  <circle id="rim2" cx="0" cy="0" r="3.5"/>
  <g id="zoomPlus">
    <use xlink:href="#rim" fill="#404040"><set attributeName="fill" to="#808080" begin="zoomplus.mouseover" end="zoomplus.mouseout"/></use>
    <path d="M-4,0h8M0,-4v8" fill="none" stroke="white" stroke-width="1.5" pointer-events="none"/>
  </g>
  <g id="zoomMin">
    <use xlink:href="#rim" fill="#404040"><set attributeName="fill" to="#808080" begin="zoomminus.mouseover" end="zoomminus.mouseout"/></use>
    <path d="M-4,0h8" fill="none" stroke="white" stroke-width="1.5" pointer-events="none"/>
  </g>
  <g id="arrowUp" transform="translate(30 24)">
    <use xlink:href="#rim"/>
    <path pointer-events="none" fill="none" stroke="white" stroke-width="1.5" d="M0,-3.0v7 M-2.5,-0.5L0,-3.0L2.5,-0.5"/>
  </g>
  <g id="arrowRight" transform="rotate(90) translate(36 -43)">
    <use xlink:href="#rim"/>
    <path pointer-events="none" fill="none" stroke="white" stroke-width="1.5" d="M0,-3.0v7 M-2.5,-0.5L0,-3.0L2.5,-0.5"/>
  </g>
  <g id="arrowDown" transform="rotate(180) translate(-30 -48)">
    <use xlink:href="#rim"/>
    <path pointer-events="none" fill="none" stroke="white" stroke-width="1.5" d="M0,-3.0v7 M-2.5,-0.5L0,-3.0L2.5,-0.5"/>
  </g>
  <g id="arrowLeft" transform="rotate(270) translate(-36 17)">
    <use xlink:href="#rim"/>
    <path pointer-events="none" fill="none" stroke="white" stroke-width="1.5" d="M0,-3.0v7 M-2.5,-0.5L0,-3.0L2.5,-0.5"/>
  </g>
  <g id="resetDef">
    <use xlink:href="#rim2" fill="#404040"><set attributeName="fill" to="#808080" begin="reset.mouseover" end="reset.mouseout"/></use>
  </g>
</defs>
<script type="application/ecmascript">
var viewWidth = 1011;
var viewHeight = 305;
var sectionId = 'dynsection-2';
</script>
<script type="application/ecmascript" xlink:href="svg.min.js"/>
<svg id="graph" class="graph">
<g id="viewport">
<title>Entity::Entity</title>
<!-- Node1 -->
<g id="Node000001" class="node">
<title>Node1</title>
<g id="a_Node000001"><a xlink:title=" ">
<polygon fill="#999999" stroke="#666666" points="73,-166 0,-166 0,-146 73,-146 73,-166"/>
<text xml:space="preserve" text-anchor="middle" x="36.5" y="-152.5" font-family="Helvetica,sans-Serif" font-size="10.00">Entity::Entity</text>
</a>
</g>
</g>
<!-- Node1&#45;&gt;Node1 -->
<g id="edge8_Node000001_Node000001" class="edge">
<title>Node1&#45;&gt;Node1</title>
<g id="a_edge8_Node000001_Node000001"><a xlink:title=" ">
<path fill="none" stroke="#63b8ff" d="M13.58,-166.34C3.79,-174.98 11.43,-184 36.5,-184 50.21,-184 58.71,-181.3 62,-177.44"/>
<polygon fill="#63b8ff" stroke="#63b8ff" points="65.43,-176.76 59.76,-167.81 58.61,-178.35 65.43,-176.76"/>
</a>
</g>
</g>
<!-- Node2 -->
<g id="Node000002" class="node">
<title>Node2</title>
<g id="a_Node000002"><a xlink:href="class_basic_element.html#a85cccd7db0e46e4e2b646365cd6c66a9" target="_top" xlink:title=" ">
<polygon fill="white" stroke="#666666" points="252.5,-216 109,-216 109,-196 252.5,-196 252.5,-216"/>
<text xml:space="preserve" text-anchor="middle" x="180.75" y="-202.5" font-family="Helvetica,sans-Serif" font-size="10.00">BasicElement::BasicElement</text>
</a>
</g>
</g>
<!-- Node1&#45;&gt;Node2 -->
<g id="edge1_Node000001_Node000002" class="edge">
<title>Node1&#45;&gt;Node2</title>
<g id="a_edge1_Node000001_Node000002"><a xlink:title=" ">
<path fill="none" stroke="#63b8ff" d="M67.32,-166.48C88.18,-173.82 116.3,-183.7 139.2,-191.75"/>
<polygon fill="#63b8ff" stroke="#63b8ff" points="137.95,-195.02 148.54,-195.03 140.27,-188.41 137.95,-195.02"/>
</a>
</g>
</g>
<!-- Node9 -->
<g id="Node000009" class="node">
<title>Node9</title>
<g id="a_Node000009"><a xlink:href="class_entity.html#a237af8c74037b83ace59083cf9af53f4" target="_top" xlink:title=" ">
<polygon fill="white" stroke="#666666" points="233.38,-166 128.12,-166 128.12,-146 233.38,-146 233.38,-166"/>
<text xml:space="preserve" text-anchor="middle" x="180.75" y="-152.5" font-family="Helvetica,sans-Serif" font-size="10.00">Entity::preferredSize</text>
</a>
</g>
</g>
<!-- Node1&#45;&gt;Node9 -->
<g id="edge9_Node000001_Node000009" class="edge">
<title>Node1&#45;&gt;Node9</title>
<g id="a_edge9_Node000001_Node000009"><a xlink:title=" ">
<path fill="none" stroke="#63b8ff" d="M73.4,-156C86.51,-156 101.77,-156 116.56,-156"/>
<polygon fill="#63b8ff" stroke="#63b8ff" points="116.23,-159.5 126.23,-156 116.23,-152.5 116.23,-159.5"/>
</a>
</g>
</g>
<!-- Node10 -->
<g id="Node000010" class="node">
<title>Node10</title>
<g id="a_Node000010"><a xlink:href="class_basic_element.html#ab86c964c6ef9e8d7299efc263a0837e7" target="_top" xlink:title=" ">
<polygon fill="white" stroke="#666666" points="238.62,-115 122.88,-115 122.88,-95 238.62,-95 238.62,-115"/>
<text xml:space="preserve" text-anchor="middle" x="180.75" y="-101.5" font-family="Helvetica,sans-Serif" font-size="10.00">BasicElement::setSize</text>
</a>
</g>
</g>
<!-- Node1&#45;&gt;Node10 -->
<g id="edge10_Node000001_Node000010" class="edge">
<title>Node1&#45;&gt;Node10</title>
<g id="a_edge10_Node000001_Node000010"><a xlink:title=" ">
<path fill="none" stroke="#63b8ff" d="M66.63,-145.56C87.82,-137.96 116.76,-127.58 140.06,-119.23"/>
<polygon fill="#63b8ff" stroke="#63b8ff" points="141,-122.61 149.23,-115.94 138.64,-116.02 141,-122.61"/>
</a>
</g>
</g>
<!-- Node3 -->
<g id="Node000003" class="node">
<title>Node3</title>
<g id="a_Node000003"><a xlink:href="class_basic_element.html#a028ebc6c9de8f0b90af0e7daef9549f8" target="_top" xlink:title=" ">
<polygon fill="white" stroke="#666666" points="437.25,-272 296,-272 296,-240 437.25,-240 437.25,-272"/>
<text xml:space="preserve" text-anchor="start" x="304" y="-258.5" font-family="Helvetica,sans-Serif" font-size="10.00">BasicElement::createDefault</text>
<text xml:space="preserve" text-anchor="middle" x="366.62" y="-246.5" font-family="Helvetica,sans-Serif" font-size="10.00">ConnectionPoints</text>
</a>
</g>
</g>
<!-- Node2&#45;&gt;Node3 -->
<g id="edge2_Node000002_Node000003" class="edge">
<title>Node2&#45;&gt;Node3</title>
<g id="a_edge2_Node000002_Node000003"><a xlink:title=" ">
<path fill="none" stroke="#63b8ff" d="M220.3,-216.48C241.67,-222.29 268.94,-229.71 294.06,-236.54"/>
<polygon fill="#63b8ff" stroke="#63b8ff" points="293.02,-239.89 303.59,-239.13 294.86,-233.13 293.02,-239.89"/>
</a>
</g>
</g>
<!-- Node8 -->
<g id="Node000008" class="node">
<title>Node8</title>
<g id="a_Node000008"><a xlink:href="class_basic_element.html#a01a6511d922708fe0042474740109152" target="_top" xlink:title=" ">
<polygon fill="white" stroke="#666666" points="435.75,-222 297.5,-222 297.5,-190 435.75,-190 435.75,-222"/>
<text xml:space="preserve" text-anchor="start" x="305.5" y="-208.5" font-family="Helvetica,sans-Serif" font-size="10.00">BasicElement::elementType</text>
<text xml:space="preserve" text-anchor="middle" x="366.62" y="-196.5" font-family="Helvetica,sans-Serif" font-size="10.00">ToString</text>
</a>
</g>
</g>
<!-- Node2&#45;&gt;Node8 -->
<g id="edge7_Node000002_Node000008" class="edge">
<title>Node2&#45;&gt;Node8</title>
<g id="a_edge7_Node000002_Node000008"><a xlink:title=" ">
<path fill="none" stroke="#63b8ff" d="M252.84,-206C263.64,-206 274.85,-206 285.82,-206"/>
<polygon fill="#63b8ff" stroke="#63b8ff" points="285.63,-209.5 295.63,-206 285.63,-202.5 285.63,-209.5"/>
</a>
</g>
</g>
<!-- Node4 -->
<g id="Node000004" class="node">
<title>Node4</title>
<g id="a_Node000004"><a xlink:href="class_basic_element.html#a0357bfa9b1ef06dd1c9d64bcb00813f4" target="_top" xlink:title=" ">
<polygon fill="white" stroke="#666666" points="631,-297 483,-297 483,-265 631,-265 631,-297"/>
<text xml:space="preserve" text-anchor="start" x="491" y="-283.5" font-family="Helvetica,sans-Serif" font-size="10.00">BasicElement::addConnection</text>
<text xml:space="preserve" text-anchor="middle" x="557" y="-271.5" font-family="Helvetica,sans-Serif" font-size="10.00">Point</text>
</a>
</g>
</g>
<!-- Node3&#45;&gt;Node4 -->
<g id="edge3_Node000003_Node000004" class="edge">
<title>Node3&#45;&gt;Node4</title>
<g id="a_edge3_Node000003_Node000004"><a xlink:title=" ">
<path fill="none" stroke="#63b8ff" d="M437.5,-265.27C448.57,-266.74 460.13,-268.28 471.49,-269.78"/>
<polygon fill="#63b8ff" stroke="#63b8ff" points="470.89,-273.24 481.27,-271.08 471.81,-266.3 470.89,-273.24"/>
</a>
</g>
</g>
<!-- Node5 -->
<g id="Node000005" class="node">
<title>Node5</title>
<g id="a_Node000005"><a xlink:href="class_connection_point.html#a9de406389d93810151498693037eeb95" target="_top" xlink:title=" ">
<polygon fill="white" stroke="#666666" points="633.25,-247 480.75,-247 480.75,-215 633.25,-215 633.25,-247"/>
<text xml:space="preserve" text-anchor="start" x="488.75" y="-233.5" font-family="Helvetica,sans-Serif" font-size="10.00">ConnectionPoint::createDefault</text>
<text xml:space="preserve" text-anchor="middle" x="557" y="-221.5" font-family="Helvetica,sans-Serif" font-size="10.00">ConnectionPoints</text>
</a>
</g>
</g>
<!-- Node3&#45;&gt;Node5 -->
<g id="edge4_Node000003_Node000005" class="edge">
<title>Node3&#45;&gt;Node5</title>
<g id="a_edge4_Node000003_Node000005"><a xlink:title=" ">
<path fill="none" stroke="#63b8ff" d="M437.5,-246.73C447.91,-245.34 458.75,-243.91 469.46,-242.49"/>
<polygon fill="#63b8ff" stroke="#63b8ff" points="469.59,-246 479.05,-241.21 468.67,-239.06 469.59,-246"/>
</a>
</g>
</g>
<!-- Node6 -->
<g id="Node000006" class="node">
<title>Node6</title>
<g id="a_Node000006"><a xlink:href="class_connection_point.html#a8977265b0868dad361fcbeec5a89bdeb" target="_top" xlink:title=" ">
<polygon fill="white" stroke="#666666" points="823.25,-247 669.25,-247 669.25,-215 823.25,-215 823.25,-247"/>
<text xml:space="preserve" text-anchor="start" x="677.25" y="-233.5" font-family="Helvetica,sans-Serif" font-size="10.00">ConnectionPoint::addConection</text>
<text xml:space="preserve" text-anchor="middle" x="746.25" y="-221.5" font-family="Helvetica,sans-Serif" font-size="10.00">Point</text>
</a>
</g>
</g>
<!-- Node5&#45;&gt;Node6 -->
<g id="edge5_Node000005_Node000006" class="edge">
<title>Node5&#45;&gt;Node6</title>
<g id="a_edge5_Node000005_Node000006"><a xlink:title=" ">
<path fill="none" stroke="#63b8ff" d="M633.62,-231C641.56,-231 649.67,-231 657.72,-231"/>
<polygon fill="#63b8ff" stroke="#63b8ff" points="657.53,-234.5 667.53,-231 657.53,-227.5 657.53,-234.5"/>
</a>
</g>
</g>
<!-- Node7 -->
<g id="Node000007" class="node">
<title>Node7</title>
<g id="a_Node000007"><a xlink:href="class_connection_point.html#ac498b99d7f91805fea3eab19f2e8b260" target="_top" xlink:title=" ">
<polygon fill="white" stroke="#666666" points="1002.75,-247 859.25,-247 859.25,-215 1002.75,-215 1002.75,-247"/>
<text xml:space="preserve" text-anchor="start" x="867.25" y="-233.5" font-family="Helvetica,sans-Serif" font-size="10.00">ConnectionPoint::Connection</text>
<text xml:space="preserve" text-anchor="middle" x="931" y="-221.5" font-family="Helvetica,sans-Serif" font-size="10.00">Point</text>
</a>
</g>
</g>
<!-- Node6&#45;&gt;Node7 -->
<g id="edge6_Node000006_Node000007" class="edge">
<title>Node6&#45;&gt;Node7</title>
<g id="a_edge6_Node000006_Node000007"><a xlink:title=" ">
<path fill="none" stroke="#63b8ff" d="M823.69,-231C831.51,-231 839.48,-231 847.37,-231"/>
<polygon fill="#63b8ff" stroke="#63b8ff" points="847.31,-234.5 857.31,-231 847.31,-227.5 847.31,-234.5"/>
</a>
</g>
</g>
<!-- Node11 -->
<g id="Node000011" class="node">
<title>Node11</title>
<g id="a_Node000011"><a xlink:href="class_basic_element.html#ad1b7a593fb82e872041b342abd157088" target="_top" xlink:title=" ">
<polygon fill="white" stroke="#666666" points="444.75,-172 288.5,-172 288.5,-152 444.75,-152 444.75,-172"/>
<text xml:space="preserve" text-anchor="middle" x="366.62" y="-158.5" font-family="Helvetica,sans-Serif" font-size="10.00">BasicElement::elementChanged</text>
</a>
</g>
</g>
<!-- Node10&#45;&gt;Node11 -->
<g id="edge11_Node000010_Node000011" class="edge">
<title>Node10&#45;&gt;Node11</title>
<g id="a_edge11_Node000010_Node000011"><a xlink:title=" ">
<path fill="none" stroke="#63b8ff" d="M208.7,-115.44C230.14,-123.54 260.99,-134.74 288.5,-143 295.09,-144.98 302.03,-146.91 308.95,-148.73"/>
<polygon fill="#63b8ff" stroke="#63b8ff" points="307.72,-152.03 318.28,-151.12 309.46,-145.25 307.72,-152.03"/>
</a>
</g>
</g>
<!-- Node12 -->
<g id="Node000012" class="node">
<title>Node12</title>
<g id="a_Node000012"><a xlink:href="class_basic_element.html#a2cb2eb803daa35380908948215f8d468" target="_top" xlink:title=" ">
<polygon fill="white" stroke="#666666" points="437.62,-134 295.62,-134 295.62,-114 437.62,-114 437.62,-134"/>
<text xml:space="preserve" text-anchor="middle" x="366.62" y="-120.5" font-family="Helvetica,sans-Serif" font-size="10.00">BasicElement::minimumSize</text>
</a>
</g>
</g>
<!-- Node10&#45;&gt;Node12 -->
<g id="edge12_Node000010_Node000012" class="edge">
<title>Node10&#45;&gt;Node12</title>
<g id="a_edge12_Node000010_Node000012"><a xlink:title=" ">
<path fill="none" stroke="#63b8ff" d="M238.92,-110.91C253.26,-112.39 268.92,-114.01 284.19,-115.58"/>
<polygon fill="#63b8ff" stroke="#63b8ff" points="283.4,-119.02 293.7,-116.57 284.12,-112.06 283.4,-119.02"/>
</a>
</g>
</g>
<!-- Node13 -->
<g id="Node000013" class="node">
<title>Node13</title>
<g id="a_Node000013"><a xlink:href="class_basic_element.html#a596caee40cdd00a0aacce49689b63f92" target="_top" xlink:title=" ">
<polygon fill="white" stroke="#666666" points="442.5,-96 290.75,-96 290.75,-76 442.5,-76 442.5,-96"/>
<text xml:space="preserve" text-anchor="middle" x="366.62" y="-82.5" font-family="Helvetica,sans-Serif" font-size="10.00">BasicElement::notifyObservers</text>
</a>
</g>
</g>
<!-- Node10&#45;&gt;Node13 -->
<g id="edge13_Node000010_Node000013" class="edge">
<title>Node10&#45;&gt;Node13</title>
<g id="a_edge13_Node000010_Node000013"><a xlink:title=" ">
<path fill="none" stroke="#63b8ff" d="M238.92,-99.09C251.69,-97.77 265.5,-96.35 279.16,-94.93"/>
<polygon fill="#63b8ff" stroke="#63b8ff" points="279.47,-98.42 289.05,-93.91 278.75,-91.46 279.47,-98.42"/>
</a>
</g>
</g>
<!-- Node14 -->
<g id="Node000014" class="node">
<title>Node14</title>
<g id="a_Node000014"><a xlink:href="class_basic_element.html#aafd52d1fae2f0b7666ae15bcbb3782c2" target="_top" xlink:title=" ">
<polygon fill="white" stroke="#666666" points="442.5,-58 290.75,-58 290.75,-38 442.5,-38 442.5,-58"/>
<text xml:space="preserve" text-anchor="middle" x="366.62" y="-44.5" font-family="Helvetica,sans-Serif" font-size="10.00">BasicElement::onSizeChanged</text>
</a>
</g>
</g>
<!-- Node10&#45;&gt;Node14 -->
<g id="edge14_Node000010_Node000014" class="edge">
<title>Node10&#45;&gt;Node14</title>
<g id="a_edge14_Node000010_Node000014"><a xlink:title=" ">
<path fill="none" stroke="#63b8ff" d="M208.7,-94.56C230.14,-86.46 260.99,-75.26 288.5,-67 295.09,-65.02 302.03,-63.09 308.95,-61.27"/>
<polygon fill="#63b8ff" stroke="#63b8ff" points="309.46,-64.75 318.28,-58.88 307.72,-57.97 309.46,-64.75"/>
</a>
</g>
</g>
<!-- Node15 -->
<g id="Node000015" class="node">
<title>Node15</title>
<g id="a_Node000015"><a xlink:href="class_basic_element.html#a5af654d8bb5e16b44121f69c832037b8" target="_top" xlink:title=" ">
<polygon fill="white" stroke="#666666" points="436.5,-20 296.75,-20 296.75,0 436.5,0 436.5,-20"/>
<text xml:space="preserve" text-anchor="middle" x="366.62" y="-6.5" font-family="Helvetica,sans-Serif" font-size="10.00">BasicElement::sizeChanged</text>
</a>
</g>
</g>
<!-- Node10&#45;&gt;Node15 -->
<g id="edge15_Node000010_Node000015" class="edge">
<title>Node10&#45;&gt;Node15</title>
<g id="a_edge15_Node000010_Node000015"><a xlink:title=" ">
<path fill="none" stroke="#63b8ff" d="M193,-94.75C211.53,-78.42 250.25,-46.55 288.5,-29 292.54,-27.14 296.79,-25.46 301.13,-23.92"/>
<polygon fill="#63b8ff" stroke="#63b8ff" points="302.15,-27.27 310.6,-20.87 300.01,-20.61 302.15,-27.27"/>
</a>
</g>
</g>
</g>
</svg>

<g id="navigator" transform="translate(0 0)" fill="#404254">
  <rect fill="#f2f5e9" fill-opacity="0.5" stroke="#606060" stroke-width=".5" x="0" y="0" width="60" height="60"/>
  <use id="zoomplus" xlink:href="#zoomPlus" x="17" y="9" onmousedown="handleZoom(evt,'in')"/>
  <use id="zoomminus" xlink:href="#zoomMin" x="42" y="9" onmousedown="handleZoom(evt,'out')"/>
  <use id="reset" xlink:href="#resetDef" x="30" y="36" onmousedown="handleReset()"/>
   <use id="arrowup" xlink:href="#arrowUp" x="0" y="0" onmousedown="handlePan(0,-1)"/>
  <use id="arrowright" xlink:href="#arrowRight" x="0" y="0" onmousedown="handlePan(1,0)"/>
  <use id="arrowdown" xlink:href="#arrowDown" x="0" y="0" onmousedown="handlePan(0,1)"/>
  <use id="arrowleft" xlink:href="#arrowLeft" x="0" y="0" onmousedown="handlePan(-1,0)"/>
</g>
<svg viewBox="0 0 15 15" width="100%" height="30px" preserveAspectRatio="xMaxYMin meet">
 <g id="arrow_out" transform="scale(0.3 0.3)">
  <a xlink:href="class_entity_a832667fda0ef14f127465d2837132244_cgraph_org.svg" target="_base">
   <rect id="button" ry="5" rx="5" y="6" x="6" height="38" width="38"
        fill="#f2f5e9" fill-opacity="0.5" stroke="#606060" stroke-width="1.0"/>
   <path id="arrow"
     d="M 11.500037,31.436501 C 11.940474,20.09759 22.043105,11.32322 32.158766,21.979434 L 37.068811,17.246167 C 37.068811,17.246167 37.088388,32 37.088388,32 L 22.160133,31.978069 C 22.160133,31.978069 26.997745,27.140456 26.997745,27.140456 C 18.528582,18.264221 13.291696,25.230495 11.500037,31.436501 z"
     style="fill:#404040;"/>
  </a>
 </g>
</svg>

<style type='text/css'>
<![CDATA[
[data-mouse-over-selected='false'] { opacity: 0.7; }
[data-mouse-over-selected='true']  { opacity: 1.0; }
]]>
</style>
<script type="application/ecmascript"><![CDATA[
document.addEventListener('DOMContentLoaded', (event) => {
  highlightEdges();
  highlightAdjacentNodes();
});
]]></script>
</svg>
