<?xml version="1.0" encoding="UTF-8" standalone="no"?>
<!DOCTYPE svg PUBLIC "-//W3C//DTD SVG 1.1//EN"
 "http://www.w3.org/Graphics/SVG/1.1/DTD/svg11.dtd">
<!-- Generated by graphviz version 14.1.1 (20251213.1925)
 -->
<!-- Title: DiagramSerializer::loadConnections Pages: 1 -->
<svg width="680pt" height="172pt"
 viewBox="0.00 0.00 680.00 172.00" xmlns="http://www.w3.org/2000/svg" xmlns:xlink="http://www.w3.org/1999/xlink">
<g id="graph0" class="graph" transform="scale(1 1) rotate(0) translate(4 168)">
<title>DiagramSerializer::loadConnections</title>
<!-- Node1 -->
<g id="Node000001" class="node">
<title>Node1</title>
<g id="a_Node000001"><a xlink:title=" ">
<polygon fill="#999999" stroke="#666666" points="99.25,-82 0,-82 0,-50 99.25,-50 99.25,-82"/>
<text xml:space="preserve" text-anchor="start" x="8" y="-68.5" font-family="Helvetica,sans-Serif" font-size="10.00">DiagramSerializer::</text>
<text xml:space="preserve" text-anchor="middle" x="49.62" y="-56.5" font-family="Helvetica,sans-Serif" font-size="10.00">loadConnections</text>
</a>
</g>
</g>
<!-- Node2 -->
<g id="Node000002" class="node">
<title>Node2</title>
<g id="a_Node000002"><a xlink:href="class_diagram_scene.html#a795592348d4dcbd78d984db93c2fbedb" target="_top" xlink:title=" ">
<polygon fill="white" stroke="#666666" points="289.25,-120 137.5,-120 137.5,-100 289.25,-100 289.25,-120"/>
<text xml:space="preserve" text-anchor="middle" x="213.38" y="-106.5" font-family="Helvetica,sans-Serif" font-size="10.00">DiagramScene::addConnection</text>
</a>
</g>
</g>
<!-- Node1&#45;&gt;Node2 -->
<g id="edge1_Node000001_Node000002" class="edge">
<title>Node1&#45;&gt;Node2</title>
<g id="a_edge1_Node000001_Node000002"><a xlink:title=" ">
<path fill="none" stroke="#63b8ff" d="M99.74,-80.92C111.35,-84.34 123.72,-87.88 135.25,-91 142.49,-92.96 150.14,-94.95 157.7,-96.86"/>
<polygon fill="#63b8ff" stroke="#63b8ff" points="156.62,-100.2 167.17,-99.23 158.32,-93.41 156.62,-100.2"/>
</a>
</g>
</g>
<!-- Node7 -->
<g id="Node000007" class="node">
<title>Node7</title>
<g id="a_Node000007"><a xlink:href="class_diagram_scene.html#a4d84b4d068e1c3ee53f9f9f8c6e7a94f" target="_top" xlink:title=" ">
<polygon fill="white" stroke="#666666" points="291.5,-82 135.25,-82 135.25,-50 291.5,-50 291.5,-82"/>
<text xml:space="preserve" text-anchor="start" x="143.25" y="-68.5" font-family="Helvetica,sans-Serif" font-size="10.00">DiagramScene::addRelationship</text>
<text xml:space="preserve" text-anchor="middle" x="213.38" y="-56.5" font-family="Helvetica,sans-Serif" font-size="10.00">Connection</text>
</a>
</g>
</g>
<!-- Node1&#45;&gt;Node7 -->
<g id="edge6_Node000001_Node000007" class="edge">
<title>Node1&#45;&gt;Node7</title>
<g id="a_edge6_Node000001_Node000007"><a xlink:title=" ">
<path fill="none" stroke="#63b8ff" d="M99.59,-66C107.27,-66 115.39,-66 123.63,-66"/>
<polygon fill="#63b8ff" stroke="#63b8ff" points="123.38,-69.5 133.38,-66 123.38,-62.5 123.38,-69.5"/>
</a>
</g>
</g>
<!-- Node8 -->
<g id="Node000008" class="node">
<title>Node8</title>
<g id="a_Node000008"><a xlink:href="class_basic_element.html#a70598cf89581cc6e308dafaa69551934" target="_top" xlink:title=" ">
<polygon fill="white" stroke="#666666" points="286.25,-32 140.5,-32 140.5,0 286.25,0 286.25,-32"/>
<text xml:space="preserve" text-anchor="start" x="148.5" y="-18.5" font-family="Helvetica,sans-Serif" font-size="10.00">BasicElement::getConnection</text>
<text xml:space="preserve" text-anchor="middle" x="213.38" y="-6.5" font-family="Helvetica,sans-Serif" font-size="10.00">PointByDirection</text>
</a>
</g>
</g>
<!-- Node1&#45;&gt;Node8 -->
<g id="edge7_Node000001_Node000008" class="edge">
<title>Node1&#45;&gt;Node8</title>
<g id="a_edge7_Node000001_Node000008"><a xlink:title=" ">
<path fill="none" stroke="#63b8ff" d="M99.59,-50.86C114.86,-46.15 131.92,-40.87 148.07,-35.88"/>
<polygon fill="#63b8ff" stroke="#63b8ff" points="149.1,-39.22 157.62,-32.93 147.03,-32.54 149.1,-39.22"/>
</a>
</g>
</g>
<!-- Node3 -->
<g id="Node000003" class="node">
<title>Node3</title>
<g id="a_Node000003"><a xlink:href="class_diagram_scene.html#a355fffd036fbfb751f2d9ada2b9eacf5" target="_top" xlink:title=" ">
<polygon fill="white" stroke="#666666" points="479.25,-126 327.5,-126 327.5,-94 479.25,-94 479.25,-126"/>
<text xml:space="preserve" text-anchor="start" x="335.5" y="-112.5" font-family="Helvetica,sans-Serif" font-size="10.00">DiagramScene::handleAttribute</text>
<text xml:space="preserve" text-anchor="middle" x="403.38" y="-100.5" font-family="Helvetica,sans-Serif" font-size="10.00">Connection</text>
</a>
</g>
</g>
<!-- Node2&#45;&gt;Node3 -->
<g id="edge2_Node000002_Node000003" class="edge">
<title>Node2&#45;&gt;Node3</title>
<g id="a_edge2_Node000002_Node000003"><a xlink:title=" ">
<path fill="none" stroke="#63b8ff" d="M289.49,-110C298.09,-110 306.92,-110 315.66,-110"/>
<polygon fill="#63b8ff" stroke="#63b8ff" points="315.56,-113.5 325.56,-110 315.56,-106.5 315.56,-113.5"/>
</a>
</g>
</g>
<!-- Node4 -->
<g id="Node000004" class="node">
<title>Node4</title>
<g id="a_Node000004"><a xlink:href="class_connection_line.html#ab11952b505976244aabc575e0ec7b118" target="_top" xlink:title=" ">
<polygon fill="white" stroke="#666666" points="671.5,-164 515.25,-164 515.25,-144 671.5,-144 671.5,-164"/>
<text xml:space="preserve" text-anchor="middle" x="593.38" y="-150.5" font-family="Helvetica,sans-Serif" font-size="10.00">ConnectionLine::getEndElement</text>
</a>
</g>
</g>
<!-- Node3&#45;&gt;Node4 -->
<g id="edge3_Node000003_Node000004" class="edge">
<title>Node3&#45;&gt;Node4</title>
<g id="a_edge3_Node000003_Node000004"><a xlink:title=" ">
<path fill="none" stroke="#63b8ff" d="M474.65,-126.45C495.05,-131.22 517.04,-136.37 536.44,-140.91"/>
<polygon fill="#63b8ff" stroke="#63b8ff" points="535.52,-144.29 546.05,-143.16 537.11,-137.47 535.52,-144.29"/>
</a>
</g>
</g>
<!-- Node5 -->
<g id="Node000005" class="node">
<title>Node5</title>
<g id="a_Node000005"><a xlink:href="class_connection_line.html#ad957be37b7bbb9250366225fd357a5a6" target="_top" xlink:title=" ">
<polygon fill="white" stroke="#666666" points="655.38,-126 531.38,-126 531.38,-94 655.38,-94 655.38,-126"/>
<text xml:space="preserve" text-anchor="start" x="539.38" y="-112.5" font-family="Helvetica,sans-Serif" font-size="10.00">ConnectionLine::getStart</text>
<text xml:space="preserve" text-anchor="middle" x="593.38" y="-100.5" font-family="Helvetica,sans-Serif" font-size="10.00">Element</text>
</a>
</g>
</g>
<!-- Node3&#45;&gt;Node5 -->
<g id="edge4_Node000003_Node000005" class="edge">
<title>Node3&#45;&gt;Node5</title>
<g id="a_edge4_Node000003_Node000005"><a xlink:title=" ">
<path fill="none" stroke="#63b8ff" d="M479.49,-110C492.7,-110 506.43,-110 519.57,-110"/>
<polygon fill="#63b8ff" stroke="#63b8ff" points="519.43,-113.5 529.43,-110 519.43,-106.5 519.43,-113.5"/>
</a>
</g>
</g>
<!-- Node6 -->
<g id="Node000006" class="node">
<title>Node6</title>
<g id="a_Node000006"><a xlink:href="class_connection_line.html#aea85162c28f293b1df0cce97d57bb471" target="_top" xlink:title=" ">
<polygon fill="white" stroke="#666666" points="652.38,-76 534.38,-76 534.38,-56 652.38,-56 652.38,-76"/>
<text xml:space="preserve" text-anchor="middle" x="593.38" y="-62.5" font-family="Helvetica,sans-Serif" font-size="10.00">ConnectionLine::isValid</text>
</a>
</g>
</g>
<!-- Node3&#45;&gt;Node6 -->
<g id="edge5_Node000003_Node000006" class="edge">
<title>Node3&#45;&gt;Node6</title>
<g id="a_edge5_Node000003_Node000006"><a xlink:title=" ">
<path fill="none" stroke="#63b8ff" d="M474.65,-93.55C495.05,-88.78 517.04,-83.63 536.44,-79.09"/>
<polygon fill="#63b8ff" stroke="#63b8ff" points="537.11,-82.53 546.05,-76.84 535.52,-75.71 537.11,-82.53"/>
</a>
</g>
</g>
</g>
</svg>
