<?xml version="1.0" encoding="UTF-8" standalone="no"?>
<!DOCTYPE svg PUBLIC "-//W3C//DTD SVG 1.1//EN"
 "http://www.w3.org/Graphics/SVG/1.1/DTD/svg11.dtd">
<!-- Generated by graphviz version 14.1.1 (20251213.1925)
 -->
<!-- Title: BasicElement::BasicElement Pages: 1 -->
<svg width="1094pt" height="103pt"
 viewBox="0.00 0.00 1094.00 103.00" xmlns="http://www.w3.org/2000/svg" xmlns:xlink="http://www.w3.org/1999/xlink">
<g id="graph0" class="graph" transform="scale(1 1) rotate(0) translate(4 99)">
<title>BasicElement::BasicElement</title>
<!-- Node1 -->
<g id="Node000001" class="node">
<title>Node1</title>
<g id="a_Node000001"><a xlink:title=" ">
<polygon fill="#999999" stroke="#666666" points="143.5,-45 0,-45 0,-25 143.5,-25 143.5,-45"/>
<text xml:space="preserve" text-anchor="middle" x="71.75" y="-31.5" font-family="Helvetica,sans-Serif" font-size="10.00">BasicElement::BasicElement</text>
</a>
</g>
</g>
<!-- Node2 -->
<g id="Node000002" class="node">
<title>Node2</title>
<g id="a_Node000002"><a xlink:href="class_basic_element.html#a85cccd7db0e46e4e2b646365cd6c66a9" target="_top" xlink:title=" ">
<polygon fill="white" stroke="#666666" points="323,-26 179.5,-26 179.5,-6 323,-6 323,-26"/>
<text xml:space="preserve" text-anchor="middle" x="251.25" y="-12.5" font-family="Helvetica,sans-Serif" font-size="10.00">BasicElement::BasicElement</text>
</a>
</g>
</g>
<!-- Node1&#45;&gt;Node2 -->
<g id="edge1_Node000001_Node000002" class="edge">
<title>Node1&#45;&gt;Node2</title>
<g id="a_edge1_Node000001_Node000002"><a xlink:title=" ">
<path fill="none" stroke="#63b8ff" d="M143.92,-27.38C151.79,-26.54 159.85,-25.68 167.84,-24.82"/>
<polygon fill="#63b8ff" stroke="#63b8ff" points="167.99,-28.33 177.56,-23.78 167.24,-21.37 167.99,-28.33"/>
</a>
</g>
</g>
<!-- Node3 -->
<g id="Node000003" class="node">
<title>Node3</title>
<g id="a_Node000003"><a xlink:href="class_basic_element.html#a78e2ce29aa5b2a9fae74cf435996ce8b" target="_top" xlink:title=" ">
<polygon fill="white" stroke="#666666" points="513,-70 368.75,-70 368.75,-38 513,-38 513,-70"/>
<text xml:space="preserve" text-anchor="start" x="376.75" y="-56.5" font-family="Helvetica,sans-Serif" font-size="10.00">BasicElement::createAndAdd</text>
<text xml:space="preserve" text-anchor="middle" x="440.88" y="-44.5" font-family="Helvetica,sans-Serif" font-size="10.00">DefaultConnectionPoints</text>
</a>
</g>
</g>
<!-- Node1&#45;&gt;Node3 -->
<g id="edge8_Node000001_Node000003" class="edge">
<title>Node1&#45;&gt;Node3</title>
<g id="a_edge8_Node000001_Node000003"><a xlink:title=" ">
<path fill="none" stroke="#63b8ff" d="M143.97,-38.69C205.05,-41.85 293.09,-46.4 357.25,-49.72"/>
<polygon fill="#63b8ff" stroke="#63b8ff" points="356.86,-53.21 367.03,-50.23 357.22,-46.22 356.86,-53.21"/>
</a>
</g>
</g>
<!-- Node2&#45;&gt;Node3 -->
<g id="edge2_Node000002_Node000003" class="edge">
<title>Node2&#45;&gt;Node3</title>
<g id="a_edge2_Node000002_Node000003"><a xlink:title=" ">
<path fill="none" stroke="#63b8ff" d="M304.02,-26.48C320.45,-29.81 339.06,-33.58 357.12,-37.24"/>
<polygon fill="#63b8ff" stroke="#63b8ff" points="356.29,-40.64 366.78,-39.2 357.68,-33.78 356.29,-40.64"/>
</a>
</g>
</g>
<!-- Node8 -->
<g id="Node000008" class="node">
<title>Node8</title>
<g id="a_Node000008"><a xlink:href="class_basic_element.html#abb80391f2c11a0eb2fe2b21d53967450" target="_top" xlink:title=" ">
<polygon fill="white" stroke="#666666" points="522.75,-20 359,-20 359,0 522.75,0 522.75,-20"/>
<text xml:space="preserve" text-anchor="middle" x="440.88" y="-6.5" font-family="Helvetica,sans-Serif" font-size="10.00">BasicElement::stringElementType</text>
</a>
</g>
</g>
<!-- Node2&#45;&gt;Node8 -->
<g id="edge7_Node000002_Node000008" class="edge">
<title>Node2&#45;&gt;Node8</title>
<g id="a_edge7_Node000002_Node000008"><a xlink:title=" ">
<path fill="none" stroke="#63b8ff" d="M323.45,-13.72C331.27,-13.47 339.32,-13.22 347.35,-12.96"/>
<polygon fill="#63b8ff" stroke="#63b8ff" points="347.27,-16.46 357.16,-12.65 347.05,-9.47 347.27,-16.46"/>
</a>
</g>
</g>
<!-- Node4 -->
<g id="Node000004" class="node">
<title>Node4</title>
<g id="a_Node000004"><a xlink:href="class_basic_element.html#a0357bfa9b1ef06dd1c9d64bcb00813f4" target="_top" xlink:title=" ">
<polygon fill="white" stroke="#666666" points="709,-95 561,-95 561,-63 709,-63 709,-95"/>
<text xml:space="preserve" text-anchor="start" x="569" y="-81.5" font-family="Helvetica,sans-Serif" font-size="10.00">BasicElement::addConnection</text>
<text xml:space="preserve" text-anchor="middle" x="635" y="-69.5" font-family="Helvetica,sans-Serif" font-size="10.00">Point</text>
</a>
</g>
</g>
<!-- Node3&#45;&gt;Node4 -->
<g id="edge3_Node000003_Node000004" class="edge">
<title>Node3&#45;&gt;Node4</title>
<g id="a_edge3_Node000003_Node000004"><a xlink:title=" ">
<path fill="none" stroke="#63b8ff" d="M513.42,-63.31C525.14,-64.83 537.38,-66.43 549.39,-67.99"/>
<polygon fill="#63b8ff" stroke="#63b8ff" points="548.93,-71.46 559.3,-69.28 549.83,-64.52 548.93,-71.46"/>
</a>
</g>
</g>
<!-- Node5 -->
<g id="Node000005" class="node">
<title>Node5</title>
<g id="a_Node000005"><a xlink:href="class_connection_point.html#af57583f18ef35d9b3eafa83665e7ebe4" target="_top" xlink:title=" ">
<polygon fill="white" stroke="#666666" points="711.25,-45 558.75,-45 558.75,-13 711.25,-13 711.25,-45"/>
<text xml:space="preserve" text-anchor="start" x="566.75" y="-31.5" font-family="Helvetica,sans-Serif" font-size="10.00">ConnectionPoint::createDefault</text>
<text xml:space="preserve" text-anchor="middle" x="635" y="-19.5" font-family="Helvetica,sans-Serif" font-size="10.00">ConnectionPoints</text>
</a>
</g>
</g>
<!-- Node3&#45;&gt;Node5 -->
<g id="edge4_Node000003_Node000005" class="edge">
<title>Node3&#45;&gt;Node5</title>
<g id="a_edge4_Node000003_Node000005"><a xlink:title=" ">
<path fill="none" stroke="#63b8ff" d="M513.42,-44.69C524.46,-43.25 535.96,-41.76 547.29,-40.28"/>
<polygon fill="#63b8ff" stroke="#63b8ff" points="547.58,-43.78 557.04,-39.01 546.67,-36.83 547.58,-43.78"/>
</a>
</g>
</g>
<!-- Node6 -->
<g id="Node000006" class="node">
<title>Node6</title>
<g id="a_Node000006"><a xlink:href="class_connection_point.html#a7b8c2910eb504959c4211764a9abc2e8" target="_top" xlink:title=" ">
<polygon fill="white" stroke="#666666" points="906.5,-45 747.25,-45 747.25,-13 906.5,-13 906.5,-45"/>
<text xml:space="preserve" text-anchor="start" x="755.25" y="-31.5" font-family="Helvetica,sans-Serif" font-size="10.00">ConnectionPoint::addConnection</text>
<text xml:space="preserve" text-anchor="middle" x="826.88" y="-19.5" font-family="Helvetica,sans-Serif" font-size="10.00">Point</text>
</a>
</g>
</g>
<!-- Node5&#45;&gt;Node6 -->
<g id="edge5_Node000005_Node000006" class="edge">
<title>Node5&#45;&gt;Node6</title>
<g id="a_edge5_Node000005_Node000006"><a xlink:title=" ">
<path fill="none" stroke="#63b8ff" d="M711.59,-29C719.46,-29 727.52,-29 735.53,-29"/>
<polygon fill="#63b8ff" stroke="#63b8ff" points="735.3,-32.5 745.3,-29 735.3,-25.5 735.3,-32.5"/>
</a>
</g>
</g>
<!-- Node7 -->
<g id="Node000007" class="node">
<title>Node7</title>
<g id="a_Node000007"><a xlink:href="class_connection_point.html#ac498b99d7f91805fea3eab19f2e8b260" target="_top" xlink:title=" ">
<polygon fill="white" stroke="#666666" points="1086,-45 942.5,-45 942.5,-13 1086,-13 1086,-45"/>
<text xml:space="preserve" text-anchor="start" x="950.5" y="-31.5" font-family="Helvetica,sans-Serif" font-size="10.00">ConnectionPoint::Connection</text>
<text xml:space="preserve" text-anchor="middle" x="1014.25" y="-19.5" font-family="Helvetica,sans-Serif" font-size="10.00">Point</text>
</a>
</g>
</g>
<!-- Node6&#45;&gt;Node7 -->
<g id="edge6_Node000006_Node000007" class="edge">
<title>Node6&#45;&gt;Node7</title>
<g id="a_edge6_Node000006_Node000007"><a xlink:title=" ">
<path fill="none" stroke="#63b8ff" d="M906.76,-29C914.64,-29 922.65,-29 930.57,-29"/>
<polygon fill="#63b8ff" stroke="#63b8ff" points="930.56,-32.5 940.56,-29 930.56,-25.5 930.56,-32.5"/>
</a>
</g>
</g>
</g>
</svg>
