<?xml version="1.0" encoding="UTF-8" standalone="no"?>
<!DOCTYPE svg PUBLIC "-//W3C//DTD SVG 1.1//EN"
 "http://www.w3.org/Graphics/SVG/1.1/DTD/svg11.dtd">
<!-- Generated by graphviz version 14.1.1 (20251213.1925)
 -->
<!-- Title: ConnectionGraphicsItem::createOrthogonalPath Pages: 1 -->
<svg width="349pt" height="90pt"
 viewBox="0.00 0.00 349.00 90.00" xmlns="http://www.w3.org/2000/svg" xmlns:xlink="http://www.w3.org/1999/xlink">
<g id="graph0" class="graph" transform="scale(1 1) rotate(0) translate(4 86)">
<title>ConnectionGraphicsItem::createOrthogonalPath</title>
<!-- Node1 -->
<g id="Node000001" class="node">
<title>Node1</title>
<g id="a_Node000001"><a xlink:title=" ">
<polygon fill="#999999" stroke="#666666" points="124,-57 0,-57 0,-25 124,-25 124,-57"/>
<text xml:space="preserve" text-anchor="start" x="8" y="-43.5" font-family="Helvetica,sans-Serif" font-size="10.00">ConnectionGraphicsItem</text>
<text xml:space="preserve" text-anchor="middle" x="62" y="-31.5" font-family="Helvetica,sans-Serif" font-size="10.00">::createOrthogonalPath</text>
</a>
</g>
</g>
<!-- Node2 -->
<g id="Node000002" class="node">
<title>Node2</title>
<g id="a_Node000002"><a xlink:href="class_connection_graphics_item.html#a893317615dd09c41cceec37be3ad9f6f" target="_top" xlink:title=" ">
<polygon fill="white" stroke="#666666" points="341,-82 160,-82 160,-50 341,-50 341,-82"/>
<text xml:space="preserve" text-anchor="start" x="168" y="-68.5" font-family="Helvetica,sans-Serif" font-size="10.00">ConnectionGraphicsItem</text>
<text xml:space="preserve" text-anchor="middle" x="250.5" y="-56.5" font-family="Helvetica,sans-Serif" font-size="10.00">::createOrthogonalPathWithDirections</text>
</a>
</g>
</g>
<!-- Node1&#45;&gt;Node2 -->
<g id="edge1_Node000001_Node000002" class="edge">
<title>Node1&#45;&gt;Node2</title>
<g id="a_edge1_Node000001_Node000002"><a xlink:title=" ">
<path fill="none" stroke="#63b8ff" d="M124.33,-49.22C132.14,-50.27 140.29,-51.36 148.52,-52.46"/>
<polygon fill="#63b8ff" stroke="#63b8ff" points="147.89,-55.91 158.26,-53.77 148.82,-48.97 147.89,-55.91"/>
</a>
</g>
</g>
<!-- Node3 -->
<g id="Node000003" class="node">
<title>Node3</title>
<g id="a_Node000003"><a xlink:href="class_connection_graphics_item.html#a0e5a08b33a79f09561ec2a6d9348a292" target="_top" xlink:title=" ">
<polygon fill="white" stroke="#666666" points="323.75,-32 177.25,-32 177.25,0 323.75,0 323.75,-32"/>
<text xml:space="preserve" text-anchor="start" x="185.25" y="-18.5" font-family="Helvetica,sans-Serif" font-size="10.00">ConnectionGraphicsItem</text>
<text xml:space="preserve" text-anchor="middle" x="250.5" y="-6.5" font-family="Helvetica,sans-Serif" font-size="10.00">::createSimpleOrthogonalPath</text>
</a>
</g>
</g>
<!-- Node1&#45;&gt;Node3 -->
<g id="edge2_Node000001_Node000003" class="edge">
<title>Node1&#45;&gt;Node3</title>
<g id="a_edge2_Node000001_Node000003"><a xlink:title=" ">
<path fill="none" stroke="#63b8ff" d="M124.33,-32.78C137.56,-31.01 151.77,-29.1 165.7,-27.23"/>
<polygon fill="#63b8ff" stroke="#63b8ff" points="165.84,-30.75 175.29,-25.95 164.91,-23.81 165.84,-30.75"/>
</a>
</g>
</g>
</g>
</svg>
