<?xml version="1.0" encoding="UTF-8" standalone="no"?>
<!DOCTYPE svg PUBLIC "-//W3C//DTD SVG 1.1//EN"
 "http://www.w3.org/Graphics/SVG/1.1/DTD/svg11.dtd">
<!-- Generated by graphviz version 14.1.1 (20251213.1925)
 -->
<!-- Title: QuickAccessToolbar::addDefaultActions Pages: 1 -->
<svg width="259pt" height="290pt"
 viewBox="0.00 0.00 259.00 290.00" xmlns="http://www.w3.org/2000/svg" xmlns:xlink="http://www.w3.org/1999/xlink">

<svg id="main" version="1.1" xmlns="http://www.w3.org/2000/svg" xmlns:xlink="http://www.w3.org/1999/xlink" xml:space="preserve">

<style type="text/css"><![CDATA[
.node, .edge {opacity: 0.7;}
.node.selected, .edge.selected {opacity: 1;}
.edge:hover path { stroke: red; }
.edge:hover polygon { stroke: red; fill: red; }
]]></style>
<script type="application/ecmascript" xlink:href="svg.min.js"/>
<svg id="graph" class="graph">
<g id="graph0" class="graph" transform="scale(1 1) rotate(0) translate(4 286)">
<title>QuickAccessToolbar::addDefaultActions</title>
<!-- Node1 -->
<g id="Node000001" class="node">
<title>Node1</title>
<g id="a_Node000001"><a xlink:title=" ">
<polygon fill="#999999" stroke="#666666" points="106,-157 0,-157 0,-125 106,-125 106,-157"/>
<text xml:space="preserve" text-anchor="start" x="8" y="-143.5" font-family="Helvetica,sans-Serif" font-size="10.00">QuickAccessToolbar</text>
<text xml:space="preserve" text-anchor="middle" x="53" y="-131.5" font-family="Helvetica,sans-Serif" font-size="10.00">::addDefaultActions</text>
</a>
</g>
</g>
<!-- Node2 -->
<g id="Node000002" class="node">
<title>Node2</title>
<g id="a_Node000002"><a xlink:href="class_quick_access_toolbar.html#a75e787a5ac9594c43bea4cbaa36c67d0" target="_top" xlink:title=" ">
<polygon fill="white" stroke="#666666" points="251,-282 142,-282 142,-250 251,-250 251,-282"/>
<text xml:space="preserve" text-anchor="start" x="150" y="-268.5" font-family="Helvetica,sans-Serif" font-size="10.00">QuickAccessToolbar</text>
<text xml:space="preserve" text-anchor="middle" x="196.5" y="-256.5" font-family="Helvetica,sans-Serif" font-size="10.00">::addActionToToolBar</text>
</a>
</g>
</g>
<!-- Node1&#45;&gt;Node2 -->
<g id="edge1_Node000001_Node000002" class="edge">
<title>Node1&#45;&gt;Node2</title>
<g id="a_edge1_Node000001_Node000002"><a xlink:title=" ">
<path fill="none" stroke="#63b8ff" d="M65.13,-157.41C80.38,-178.91 109.61,-216.73 142,-241 143.31,-241.98 144.66,-242.93 146.05,-243.86"/>
<polygon fill="#63b8ff" stroke="#63b8ff" points="143.91,-246.66 154.28,-248.83 147.52,-240.67 143.91,-246.66"/>
</a>
</g>
</g>
<!-- Node3 -->
<g id="Node000003" class="node">
<title>Node3</title>
<g id="a_Node000003"><a xlink:href="class_quick_access_toolbar.html#a95925c4900144d5faa1a4516ea7d2874" target="_top" xlink:title=" ">
<polygon fill="white" stroke="#666666" points="249.5,-232 143.5,-232 143.5,-200 249.5,-200 249.5,-232"/>
<text xml:space="preserve" text-anchor="start" x="151.5" y="-218.5" font-family="Helvetica,sans-Serif" font-size="10.00">QuickAccessToolbar</text>
<text xml:space="preserve" text-anchor="middle" x="196.5" y="-206.5" font-family="Helvetica,sans-Serif" font-size="10.00">::onAboutAction</text>
</a>
</g>
</g>
<!-- Node1&#45;&gt;Node3 -->
<g id="edge2_Node000001_Node000003" class="edge">
<title>Node1&#45;&gt;Node3</title>
<g id="a_edge2_Node000001_Node000003"><a xlink:title=" ">
<path fill="none" stroke="#63b8ff" d="M81.43,-157.33C98.64,-167.39 121.39,-180.35 142,-191 144.34,-192.21 146.76,-193.43 149.2,-194.65"/>
<polygon fill="#63b8ff" stroke="#63b8ff" points="147.45,-197.69 157.98,-198.92 150.52,-191.39 147.45,-197.69"/>
</a>
</g>
</g>
<!-- Node4 -->
<g id="Node000004" class="node">
<title>Node4</title>
<g id="a_Node000004"><a xlink:href="class_quick_access_toolbar.html#ae2051a27933a2022dc2b6c5cc8ef4b63" target="_top" xlink:title=" ">
<polygon fill="white" stroke="#666666" points="249.5,-182 143.5,-182 143.5,-150 249.5,-150 249.5,-182"/>
<text xml:space="preserve" text-anchor="start" x="151.5" y="-168.5" font-family="Helvetica,sans-Serif" font-size="10.00">QuickAccessToolbar</text>
<text xml:space="preserve" text-anchor="middle" x="196.5" y="-156.5" font-family="Helvetica,sans-Serif" font-size="10.00">::onHelpAction</text>
</a>
</g>
</g>
<!-- Node1&#45;&gt;Node4 -->
<g id="edge3_Node000001_Node000004" class="edge">
<title>Node1&#45;&gt;Node4</title>
<g id="a_edge3_Node000001_Node000004"><a xlink:title=" ">
<path fill="none" stroke="#63b8ff" d="M106.29,-150.24C114.72,-151.73 123.52,-153.28 132.18,-154.81"/>
<polygon fill="#63b8ff" stroke="#63b8ff" points="131.48,-158.24 141.94,-156.54 132.7,-151.35 131.48,-158.24"/>
</a>
</g>
</g>
<!-- Node5 -->
<g id="Node000005" class="node">
<title>Node5</title>
<g id="a_Node000005"><a xlink:href="class_quick_access_toolbar.html#aa9d56b4b5e0885c23f4101b066bbde9d" target="_top" xlink:title=" ">
<polygon fill="white" stroke="#666666" points="249.5,-132 143.5,-132 143.5,-100 249.5,-100 249.5,-132"/>
<text xml:space="preserve" text-anchor="start" x="151.5" y="-118.5" font-family="Helvetica,sans-Serif" font-size="10.00">QuickAccessToolbar</text>
<text xml:space="preserve" text-anchor="middle" x="196.5" y="-106.5" font-family="Helvetica,sans-Serif" font-size="10.00">::onNewAction</text>
</a>
</g>
</g>
<!-- Node1&#45;&gt;Node5 -->
<g id="edge4_Node000001_Node000005" class="edge">
<title>Node1&#45;&gt;Node5</title>
<g id="a_edge4_Node000001_Node000005"><a xlink:title=" ">
<path fill="none" stroke="#63b8ff" d="M106.29,-131.76C114.72,-130.27 123.52,-128.72 132.18,-127.19"/>
<polygon fill="#63b8ff" stroke="#63b8ff" points="132.7,-130.65 141.94,-125.46 131.48,-123.76 132.7,-130.65"/>
</a>
</g>
</g>
<!-- Node6 -->
<g id="Node000006" class="node">
<title>Node6</title>
<g id="a_Node000006"><a xlink:href="class_quick_access_toolbar.html#a3d84253b27fe73b9aeefdd3388da9ce4" target="_top" xlink:title=" ">
<polygon fill="white" stroke="#666666" points="249.5,-82 143.5,-82 143.5,-50 249.5,-50 249.5,-82"/>
<text xml:space="preserve" text-anchor="start" x="151.5" y="-68.5" font-family="Helvetica,sans-Serif" font-size="10.00">QuickAccessToolbar</text>
<text xml:space="preserve" text-anchor="middle" x="196.5" y="-56.5" font-family="Helvetica,sans-Serif" font-size="10.00">::onOpenAction</text>
</a>
</g>
</g>
<!-- Node1&#45;&gt;Node6 -->
<g id="edge5_Node000001_Node000006" class="edge">
<title>Node1&#45;&gt;Node6</title>
<g id="a_edge5_Node000001_Node000006"><a xlink:title=" ">
<path fill="none" stroke="#63b8ff" d="M81.43,-124.67C98.64,-114.61 121.39,-101.65 142,-91 144.34,-89.79 146.76,-88.57 149.2,-87.35"/>
<polygon fill="#63b8ff" stroke="#63b8ff" points="150.52,-90.61 157.98,-83.08 147.45,-84.31 150.52,-90.61"/>
</a>
</g>
</g>
<!-- Node7 -->
<g id="Node000007" class="node">
<title>Node7</title>
<g id="a_Node000007"><a xlink:href="class_quick_access_toolbar.html#acb9dd70de40aa7efa692172a3322a3b8" target="_top" xlink:title=" ">
<polygon fill="white" stroke="#666666" points="249.5,-32 143.5,-32 143.5,0 249.5,0 249.5,-32"/>
<text xml:space="preserve" text-anchor="start" x="151.5" y="-18.5" font-family="Helvetica,sans-Serif" font-size="10.00">QuickAccessToolbar</text>
<text xml:space="preserve" text-anchor="middle" x="196.5" y="-6.5" font-family="Helvetica,sans-Serif" font-size="10.00">::onSaveAction</text>
</a>
</g>
</g>
<!-- Node1&#45;&gt;Node7 -->
<g id="edge6_Node000001_Node000007" class="edge">
<title>Node1&#45;&gt;Node7</title>
<g id="a_edge6_Node000001_Node000007"><a xlink:title=" ">
<path fill="none" stroke="#63b8ff" d="M65.13,-124.59C80.38,-103.09 109.61,-65.27 142,-41 143.31,-40.02 144.66,-39.07 146.05,-38.14"/>
<polygon fill="#63b8ff" stroke="#63b8ff" points="147.52,-41.33 154.28,-33.17 143.91,-35.34 147.52,-41.33"/>
</a>
</g>
</g>
</g>
</svg>
</svg>

<style type='text/css'>
<![CDATA[
[data-mouse-over-selected='false'] { opacity: 0.7; }
[data-mouse-over-selected='true']  { opacity: 1.0; }
]]>
</style>
<script type="application/ecmascript"><![CDATA[
document.addEventListener('DOMContentLoaded', (event) => {
  highlightEdges();
  highlightAdjacentNodes();
});
]]></script>
</svg>
