<?xml version="1.0" encoding="UTF-8" standalone="no"?>
<!DOCTYPE svg PUBLIC "-//W3C//DTD SVG 1.1//EN"
 "http://www.w3.org/Graphics/SVG/1.1/DTD/svg11.dtd">
<!-- Generated by graphviz version 14.1.1 (20251213.1925)
 -->
<!-- Title: DiagramScene::duplicateSelected Pages: 1 -->
<svg width="531pt" height="78pt"
 viewBox="0.00 0.00 531.00 78.00" xmlns="http://www.w3.org/2000/svg" xmlns:xlink="http://www.w3.org/1999/xlink">
<g id="graph0" class="graph" transform="scale(1 1) rotate(0) translate(4 74)">
<title>DiagramScene::duplicateSelected</title>
<!-- Node1 -->
<g id="Node000001" class="node">
<title>Node1</title>
<g id="a_Node000001"><a xlink:title=" ">
<polygon fill="#999999" stroke="#666666" points="163.75,-48 0,-48 0,-28 163.75,-28 163.75,-48"/>
<text xml:space="preserve" text-anchor="middle" x="81.88" y="-34.5" font-family="Helvetica,sans-Serif" font-size="10.00">DiagramScene::duplicateSelected</text>
</a>
</g>
</g>
<!-- Node2 -->
<g id="Node000002" class="node">
<title>Node2</title>
<g id="a_Node000002"><a xlink:href="class_diagram_scene.html#ab3f76238d2c252f2918047140d87dd23" target="_top" xlink:title=" ">
<polygon fill="white" stroke="#666666" points="338,-70 199.75,-70 199.75,-50 338,-50 338,-70"/>
<text xml:space="preserve" text-anchor="middle" x="268.88" y="-56.5" font-family="Helvetica,sans-Serif" font-size="10.00">DiagramScene::addElement</text>
</a>
</g>
</g>
<!-- Node1&#45;&gt;Node2 -->
<g id="edge1_Node000001_Node000002" class="edge">
<title>Node1&#45;&gt;Node2</title>
<g id="a_edge1_Node000001_Node000002"><a xlink:title=" ">
<path fill="none" stroke="#63b8ff" d="M164.02,-47.65C172.07,-48.61 180.24,-49.58 188.27,-50.53"/>
<polygon fill="#63b8ff" stroke="#63b8ff" points="187.67,-53.99 198.01,-51.69 188.5,-47.04 187.67,-53.99"/>
</a>
</g>
</g>
<!-- Node4 -->
<g id="Node000004" class="node">
<title>Node4</title>
<g id="a_Node000004"><a xlink:href="class_diagram_scene.html#aef557b645a95aaa376592146d4c6c60e" target="_top" xlink:title=" ">
<polygon fill="white" stroke="#666666" points="338,-32 199.75,-32 199.75,0 338,0 338,-32"/>
<text xml:space="preserve" text-anchor="start" x="207.75" y="-18.5" font-family="Helvetica,sans-Serif" font-size="10.00">DiagramScene::getSelected</text>
<text xml:space="preserve" text-anchor="middle" x="268.88" y="-6.5" font-family="Helvetica,sans-Serif" font-size="10.00">Elements</text>
</a>
</g>
</g>
<!-- Node1&#45;&gt;Node4 -->
<g id="edge3_Node000001_Node000004" class="edge">
<title>Node1&#45;&gt;Node4</title>
<g id="a_edge3_Node000001_Node000004"><a xlink:title=" ">
<path fill="none" stroke="#63b8ff" d="M164.02,-28.35C172.07,-27.39 180.24,-26.42 188.27,-25.47"/>
<polygon fill="#63b8ff" stroke="#63b8ff" points="188.5,-28.96 198.01,-24.31 187.67,-22.01 188.5,-28.96"/>
</a>
</g>
</g>
<!-- Node3 -->
<g id="Node000003" class="node">
<title>Node3</title>
<g id="a_Node000003"><a xlink:href="class_diagram_scene.html#ad97223f92ae9cce97857ac5c45c1a3b6" target="_top" xlink:title=" ">
<polygon fill="white" stroke="#666666" points="522.75,-70 374,-70 374,-50 522.75,-50 522.75,-70"/>
<text xml:space="preserve" text-anchor="middle" x="448.38" y="-56.5" font-family="Helvetica,sans-Serif" font-size="10.00">DiagramScene::elementAdded</text>
</a>
</g>
</g>
<!-- Node2&#45;&gt;Node3 -->
<g id="edge2_Node000002_Node000003" class="edge">
<title>Node2&#45;&gt;Node3</title>
<g id="a_edge2_Node000002_Node000003"><a xlink:title=" ">
<path fill="none" stroke="#63b8ff" d="M338.25,-60C346.15,-60 354.27,-60 362.36,-60"/>
<polygon fill="#63b8ff" stroke="#63b8ff" points="362.22,-63.5 372.22,-60 362.22,-56.5 362.22,-63.5"/>
</a>
</g>
</g>
</g>
</svg>
