<?xml version="1.0" encoding="UTF-8" standalone="no"?>
<!DOCTYPE svg PUBLIC "-//W3C//DTD SVG 1.1//EN"
 "http://www.w3.org/Graphics/SVG/1.1/DTD/svg11.dtd">
<!-- Generated by graphviz version 14.1.1 (20251213.1925)
 -->
<!-- Title: Graphical Class Hierarchy Pages: 1 -->
<svg width="436pt" height="240pt"
 viewBox="0.00 0.00 436.00 240.00" xmlns="http://www.w3.org/2000/svg" xmlns:xlink="http://www.w3.org/1999/xlink">
<g id="graph0" class="graph" transform="scale(1 1) rotate(0) translate(4 236)">
<title>Graphical Class Hierarchy</title>
<!-- Node0 -->
<g id="Node000000" class="node">
<title>Node0</title>
<g id="a_Node000000"><a xlink:href="class_i_element_observer.html" target="_top" xlink:title=" ">
<polygon fill="white" stroke="#666666" points="94.75,-232 0,-232 0,-212 94.75,-212 94.75,-232"/>
<text xml:space="preserve" text-anchor="middle" x="47.38" y="-218.5" font-family="Helvetica,sans-Serif" font-size="10.00">IElementObserver</text>
</a>
</g>
</g>
<!-- Node1 -->
<g id="Node000001" class="node">
<title>Node1</title>
<g id="a_Node000001"><a xlink:href="class_element_graphics_item.html" target="_top" xlink:title="Graphic item that represents a BasicElement in the QGraphicsView.">
<polygon fill="white" stroke="#666666" points="248,-232 137.5,-232 137.5,-212 248,-212 248,-232"/>
<text xml:space="preserve" text-anchor="middle" x="192.75" y="-218.5" font-family="Helvetica,sans-Serif" font-size="10.00">ElementGraphicsItem</text>
</a>
</g>
</g>
<!-- Node0&#45;&gt;Node1 -->
<g id="edge1_Node000000_Node000001" class="edge">
<title>Node0&#45;&gt;Node1</title>
<g id="a_edge1_Node000000_Node000001"><a xlink:title=" ">
<path fill="none" stroke="#63b8ff" d="M106.25,-222C116.47,-222 127.08,-222 137.2,-222"/>
<polygon fill="#63b8ff" stroke="#63b8ff" points="106.44,-218.5 96.44,-222 106.44,-225.5 106.44,-218.5"/>
</a>
</g>
</g>
<!-- Node2 -->
<g id="Node000002" class="node">
<title>Node2</title>
<g id="a_Node000002"><a xlink:title=" ">
<polygon fill="#e0e0e0" stroke="#999999" points="88.38,-194 6.38,-194 6.38,-174 88.38,-174 88.38,-194"/>
<text xml:space="preserve" text-anchor="middle" x="47.38" y="-180.5" font-family="Helvetica,sans-Serif" font-size="10.00">QGraphicsItem</text>
</a>
</g>
</g>
<!-- Node2&#45;&gt;Node1 -->
<g id="edge4_Node000002_Node000001" class="edge">
<title>Node2&#45;&gt;Node1</title>
<g id="a_edge4_Node000002_Node000001"><a xlink:title=" ">
<path fill="none" stroke="#63b8ff" d="M98.61,-197.31C116.22,-201.98 135.73,-207.15 152.32,-211.55"/>
<polygon fill="#63b8ff" stroke="#63b8ff" points="99.96,-194.05 89.4,-194.87 98.16,-200.82 99.96,-194.05"/>
</a>
</g>
</g>
<!-- Node3 -->
<g id="Node000003" class="node">
<title>Node3</title>
<g id="a_Node000003"><a xlink:href="class_connection_graphics_item.html" target="_top" xlink:title=" ">
<polygon fill="white" stroke="#666666" points="254.75,-194 130.75,-194 130.75,-174 254.75,-174 254.75,-194"/>
<text xml:space="preserve" text-anchor="middle" x="192.75" y="-180.5" font-family="Helvetica,sans-Serif" font-size="10.00">ConnectionGraphicsItem</text>
</a>
</g>
</g>
<!-- Node2&#45;&gt;Node3 -->
<g id="edge2_Node000002_Node000003" class="edge">
<title>Node2&#45;&gt;Node3</title>
<g id="a_edge2_Node000002_Node000003"><a xlink:title=" ">
<path fill="none" stroke="#63b8ff" d="M99.95,-184C109.79,-184 120.19,-184 130.31,-184"/>
<polygon fill="#63b8ff" stroke="#63b8ff" points="100.21,-180.5 90.21,-184 100.21,-187.5 100.21,-180.5"/>
</a>
</g>
</g>
<!-- Node4 -->
<g id="Node000004" class="node">
<title>Node4</title>
<g id="a_Node000004"><a xlink:href="class_relationship_connection_line_graphics_item.html" target="_top" xlink:title=" ">
<polygon fill="white" stroke="#666666" points="428.25,-222 290.75,-222 290.75,-190 428.25,-190 428.25,-222"/>
<text xml:space="preserve" text-anchor="start" x="298.75" y="-208.5" font-family="Helvetica,sans-Serif" font-size="10.00">RelationshipConnectionLine</text>
<text xml:space="preserve" text-anchor="middle" x="359.5" y="-196.5" font-family="Helvetica,sans-Serif" font-size="10.00">GraphicsItem</text>
</a>
</g>
</g>
<!-- Node3&#45;&gt;Node4 -->
<g id="edge3_Node000003_Node000004" class="edge">
<title>Node3&#45;&gt;Node4</title>
<g id="a_edge3_Node000003_Node000004"><a xlink:title=" ">
<path fill="none" stroke="#63b8ff" d="M266.32,-193.69C274.34,-194.76 282.49,-195.85 290.46,-196.91"/>
<polygon fill="#63b8ff" stroke="#63b8ff" points="266.97,-190.25 256.6,-192.39 266.05,-197.19 266.97,-190.25"/>
</a>
</g>
</g>
<!-- Node5 -->
<g id="Node000005" class="node">
<title>Node5</title>
<g id="a_Node000005"><a xlink:title=" ">
<polygon fill="#e0e0e0" stroke="#999999" points="73.38,-96 21.38,-96 21.38,-76 73.38,-76 73.38,-96"/>
<text xml:space="preserve" text-anchor="middle" x="47.38" y="-82.5" font-family="Helvetica,sans-Serif" font-size="10.00">QObject</text>
</a>
</g>
</g>
<!-- Node5&#45;&gt;Node3 -->
<g id="edge9_Node000005_Node000003" class="edge">
<title>Node5&#45;&gt;Node3</title>
<g id="a_edge9_Node000005_Node000003"><a xlink:title=" ">
<path fill="none" stroke="#63b8ff" d="M72.59,-102.89C88.98,-114.28 111.12,-129.61 130.75,-143 146.14,-153.5 163.82,-165.36 176.17,-173.61"/>
<polygon fill="#63b8ff" stroke="#63b8ff" points="74.66,-100.06 64.46,-97.22 70.67,-105.81 74.66,-100.06"/>
</a>
</g>
</g>
<!-- Node6 -->
<g id="Node000006" class="node">
<title>Node6</title>
<g id="a_Node000006"><a xlink:href="class_basic_element.html" target="_top" xlink:title="Abstract base class for all ERD elements (Model only).">
<polygon fill="white" stroke="#666666" points="231.12,-134 154.38,-134 154.38,-114 231.12,-114 231.12,-134"/>
<text xml:space="preserve" text-anchor="middle" x="192.75" y="-120.5" font-family="Helvetica,sans-Serif" font-size="10.00">BasicElement</text>
</a>
</g>
</g>
<!-- Node5&#45;&gt;Node6 -->
<g id="edge5_Node000005_Node000006" class="edge">
<title>Node5&#45;&gt;Node6</title>
<g id="a_edge5_Node000005_Node000006"><a xlink:title=" ">
<path fill="none" stroke="#63b8ff" d="M84.52,-95.58C105.75,-101.21 132.54,-108.31 154.04,-114"/>
<polygon fill="#63b8ff" stroke="#63b8ff" points="85.7,-92.27 75.14,-93.09 83.91,-99.04 85.7,-92.27"/>
</a>
</g>
</g>
<!-- Node10 -->
<g id="Node000010" class="node">
<title>Node10</title>
<g id="a_Node000010"><a xlink:href="class_connection_line.html" target="_top" xlink:title=" ">
<polygon fill="white" stroke="#666666" points="234.5,-96 151,-96 151,-76 234.5,-76 234.5,-96"/>
<text xml:space="preserve" text-anchor="middle" x="192.75" y="-82.5" font-family="Helvetica,sans-Serif" font-size="10.00">ConnectionLine</text>
</a>
</g>
</g>
<!-- Node5&#45;&gt;Node10 -->
<g id="edge10_Node000005_Node000010" class="edge">
<title>Node5&#45;&gt;Node10</title>
<g id="a_edge10_Node000005_Node000010"><a xlink:title=" ">
<path fill="none" stroke="#63b8ff" d="M85.15,-86C105.18,-86 130.03,-86 150.7,-86"/>
<polygon fill="#63b8ff" stroke="#63b8ff" points="85.19,-82.5 75.19,-86 85.19,-89.5 85.19,-82.5"/>
</a>
</g>
</g>
<!-- Node12 -->
<g id="Node000012" class="node">
<title>Node12</title>
<g id="a_Node000012"><a xlink:href="class_connection_point.html" target="_top" xlink:title="Represents a connection point on an ERD element for line attachment.">
<polygon fill="white" stroke="#666666" points="236.75,-58 148.75,-58 148.75,-38 236.75,-38 236.75,-58"/>
<text xml:space="preserve" text-anchor="middle" x="192.75" y="-44.5" font-family="Helvetica,sans-Serif" font-size="10.00">ConnectionPoint</text>
</a>
</g>
</g>
<!-- Node5&#45;&gt;Node12 -->
<g id="edge12_Node000005_Node000012" class="edge">
<title>Node5&#45;&gt;Node12</title>
<g id="a_edge12_Node000005_Node000012"><a xlink:title=" ">
<path fill="none" stroke="#63b8ff" d="M84.56,-76.41C105.24,-70.93 131.19,-64.05 152.38,-58.44"/>
<polygon fill="#63b8ff" stroke="#63b8ff" points="83.91,-72.96 75.14,-78.91 85.7,-79.73 83.91,-72.96"/>
</a>
</g>
</g>
<!-- Node13 -->
<g id="Node000013" class="node">
<title>Node13</title>
<g id="a_Node000013"><a xlink:href="class_relationship_end.html" target="_top" xlink:title="Represents one end of a relationship in an ERD diagram.">
<polygon fill="white" stroke="#666666" points="236.38,-20 149.12,-20 149.12,0 236.38,0 236.38,-20"/>
<text xml:space="preserve" text-anchor="middle" x="192.75" y="-6.5" font-family="Helvetica,sans-Serif" font-size="10.00">RelationshipEnd</text>
</a>
</g>
</g>
<!-- Node5&#45;&gt;Node13 -->
<g id="edge13_Node000005_Node000013" class="edge">
<title>Node5&#45;&gt;Node13</title>
<g id="a_edge13_Node000005_Node000013"><a xlink:title=" ">
<path fill="none" stroke="#63b8ff" d="M69.76,-68.49C85.76,-56.09 108.61,-39.79 130.75,-29 137.43,-25.74 144.79,-22.89 152.02,-20.45"/>
<polygon fill="#63b8ff" stroke="#63b8ff" points="67.6,-65.74 61.93,-74.69 71.95,-71.23 67.6,-65.74"/>
</a>
</g>
</g>
<!-- Node7 -->
<g id="Node000007" class="node">
<title>Node7</title>
<g id="a_Node000007"><a xlink:href="class_attribute.html" target="_top" xlink:title="Represents an attribute element in an ERD diagram.">
<polygon fill="white" stroke="#666666" points="385.88,-172 333.12,-172 333.12,-152 385.88,-152 385.88,-172"/>
<text xml:space="preserve" text-anchor="middle" x="359.5" y="-158.5" font-family="Helvetica,sans-Serif" font-size="10.00">Attribute</text>
</a>
</g>
</g>
<!-- Node6&#45;&gt;Node7 -->
<g id="edge6_Node000006_Node000007" class="edge">
<title>Node6&#45;&gt;Node7</title>
<g id="a_edge6_Node000006_Node000007"><a xlink:title=" ">
<path fill="none" stroke="#63b8ff" d="M242.49,-135.24C272.06,-142.06 308.59,-150.49 332.67,-156.04"/>
<polygon fill="#63b8ff" stroke="#63b8ff" points="243.55,-131.9 233.02,-133.06 241.98,-138.72 243.55,-131.9"/>
</a>
</g>
</g>
<!-- Node8 -->
<g id="Node000008" class="node">
<title>Node8</title>
<g id="a_Node000008"><a xlink:href="class_entity.html" target="_top" xlink:title="Represents an entity element in an ERD diagram.">
<polygon fill="white" stroke="#666666" points="380.25,-134 338.75,-134 338.75,-114 380.25,-114 380.25,-134"/>
<text xml:space="preserve" text-anchor="middle" x="359.5" y="-120.5" font-family="Helvetica,sans-Serif" font-size="10.00">Entity</text>
</a>
</g>
</g>
<!-- Node6&#45;&gt;Node8 -->
<g id="edge7_Node000006_Node000008" class="edge">
<title>Node6&#45;&gt;Node8</title>
<g id="a_edge7_Node000006_Node000008"><a xlink:title=" ">
<path fill="none" stroke="#63b8ff" d="M242.91,-124C274.86,-124 314.81,-124 338.4,-124"/>
<polygon fill="#63b8ff" stroke="#63b8ff" points="243.06,-120.5 233.06,-124 243.06,-127.5 243.06,-120.5"/>
</a>
</g>
</g>
<!-- Node9 -->
<g id="Node000009" class="node">
<title>Node9</title>
<g id="a_Node000009"><a xlink:href="class_relationship.html" target="_top" xlink:title="Represents a relationship element in an ERD diagram.">
<polygon fill="white" stroke="#666666" points="394.5,-96 324.5,-96 324.5,-76 394.5,-76 394.5,-96"/>
<text xml:space="preserve" text-anchor="middle" x="359.5" y="-82.5" font-family="Helvetica,sans-Serif" font-size="10.00">Relationship</text>
</a>
</g>
</g>
<!-- Node6&#45;&gt;Node9 -->
<g id="edge8_Node000006_Node000009" class="edge">
<title>Node6&#45;&gt;Node9</title>
<g id="a_edge8_Node000006_Node000009"><a xlink:title=" ">
<path fill="none" stroke="#63b8ff" d="M242.44,-112.77C268.74,-106.7 300.57,-99.36 324.24,-93.9"/>
<polygon fill="#63b8ff" stroke="#63b8ff" points="241.98,-109.28 233.02,-114.94 243.55,-116.1 241.98,-109.28"/>
</a>
</g>
</g>
<!-- Node11 -->
<g id="Node000011" class="node">
<title>Node11</title>
<g id="a_Node000011"><a xlink:href="class_relationship_connection_line.html" target="_top" xlink:title=" ">
<polygon fill="white" stroke="#666666" points="428.25,-58 290.75,-58 290.75,-38 428.25,-38 428.25,-58"/>
<text xml:space="preserve" text-anchor="middle" x="359.5" y="-44.5" font-family="Helvetica,sans-Serif" font-size="10.00">RelationshipConnectionLine</text>
</a>
</g>
</g>
<!-- Node10&#45;&gt;Node11 -->
<g id="edge11_Node000010_Node000011" class="edge">
<title>Node10&#45;&gt;Node11</title>
<g id="a_edge11_Node000010_Node000011"><a xlink:title=" ">
<path fill="none" stroke="#63b8ff" d="M245.88,-73.98C267.52,-68.99 292.39,-63.25 313.24,-58.44"/>
<polygon fill="#63b8ff" stroke="#63b8ff" points="245.33,-70.51 236.37,-76.17 246.9,-77.33 245.33,-70.51"/>
</a>
</g>
</g>
</g>
</svg>
