<?xml version="1.0" encoding="UTF-8" standalone="no"?>
<!DOCTYPE svg PUBLIC "-//W3C//DTD SVG 1.1//EN"
 "http://www.w3.org/Graphics/SVG/1.1/DTD/svg11.dtd">
<!-- Generated by graphviz version 14.1.1 (20251213.1925)
 -->
<!-- Title: Graphical Class Hierarchy Pages: 1 -->
<svg width="436pt" height="297pt"
 viewBox="0.00 0.00 436.00 297.00" xmlns="http://www.w3.org/2000/svg" xmlns:xlink="http://www.w3.org/1999/xlink">
<g id="graph0" class="graph" transform="scale(1 1) rotate(0) translate(4 293)">
<title>Graphical Class Hierarchy</title>
<!-- Node0 -->
<g id="Node000000" class="node">
<title>Node0</title>
<g id="a_Node000000"><a xlink:href="class_i_element_observer.html" target="_top" xlink:title=" ">
<polygon fill="white" stroke="#666666" points="94.75,-289 0,-289 0,-269 94.75,-269 94.75,-289"/>
<text xml:space="preserve" text-anchor="middle" x="47.38" y="-275.5" font-family="Helvetica,sans-Serif" font-size="10.00">IElementObserver</text>
</a>
</g>
</g>
<!-- Node1 -->
<g id="Node000001" class="node">
<title>Node1</title>
<g id="a_Node000001"><a xlink:href="class_element_graphics_item.html" target="_top" xlink:title="Graphic item that represents a BasicElement in the QGraphicsView.">
<polygon fill="white" stroke="#666666" points="248,-289 137.5,-289 137.5,-269 248,-269 248,-289"/>
<text xml:space="preserve" text-anchor="middle" x="192.75" y="-275.5" font-family="Helvetica,sans-Serif" font-size="10.00">ElementGraphicsItem</text>
</a>
</g>
</g>
<!-- Node0&#45;&gt;Node1 -->
<g id="edge1_Node000000_Node000001" class="edge">
<title>Node0&#45;&gt;Node1</title>
<g id="a_edge1_Node000000_Node000001"><a xlink:title=" ">
<path fill="none" stroke="#63b8ff" d="M106.25,-279C116.47,-279 127.08,-279 137.2,-279"/>
<polygon fill="#63b8ff" stroke="#63b8ff" points="106.44,-275.5 96.44,-279 106.44,-282.5 106.44,-275.5"/>
</a>
</g>
</g>
<!-- Node2 -->
<g id="Node000002" class="node">
<title>Node2</title>
<g id="a_Node000002"><a xlink:title=" ">
<polygon fill="#e0e0e0" stroke="#999999" points="88.38,-251 6.38,-251 6.38,-231 88.38,-231 88.38,-251"/>
<text xml:space="preserve" text-anchor="middle" x="47.38" y="-237.5" font-family="Helvetica,sans-Serif" font-size="10.00">QGraphicsItem</text>
</a>
</g>
</g>
<!-- Node2&#45;&gt;Node1 -->
<g id="edge4_Node000002_Node000001" class="edge">
<title>Node2&#45;&gt;Node1</title>
<g id="a_edge4_Node000002_Node000001"><a xlink:title=" ">
<path fill="none" stroke="#63b8ff" d="M98.61,-254.31C116.22,-258.98 135.73,-264.15 152.32,-268.55"/>
<polygon fill="#63b8ff" stroke="#63b8ff" points="99.96,-251.05 89.4,-251.87 98.16,-257.82 99.96,-251.05"/>
</a>
</g>
</g>
<!-- Node3 -->
<g id="Node000003" class="node">
<title>Node3</title>
<g id="a_Node000003"><a xlink:href="class_connection_graphics_item.html" target="_top" xlink:title=" ">
<polygon fill="white" stroke="#666666" points="254.75,-251 130.75,-251 130.75,-231 254.75,-231 254.75,-251"/>
<text xml:space="preserve" text-anchor="middle" x="192.75" y="-237.5" font-family="Helvetica,sans-Serif" font-size="10.00">ConnectionGraphicsItem</text>
</a>
</g>
</g>
<!-- Node2&#45;&gt;Node3 -->
<g id="edge2_Node000002_Node000003" class="edge">
<title>Node2&#45;&gt;Node3</title>
<g id="a_edge2_Node000002_Node000003"><a xlink:title=" ">
<path fill="none" stroke="#63b8ff" d="M99.95,-241C109.79,-241 120.19,-241 130.31,-241"/>
<polygon fill="#63b8ff" stroke="#63b8ff" points="100.21,-237.5 90.21,-241 100.21,-244.5 100.21,-237.5"/>
</a>
</g>
</g>
<!-- Node4 -->
<g id="Node000004" class="node">
<title>Node4</title>
<g id="a_Node000004"><a xlink:href="class_relationship_connection_line_graphics_item.html" target="_top" xlink:title=" ">
<polygon fill="white" stroke="#666666" points="428.25,-260 290.75,-260 290.75,-228 428.25,-228 428.25,-260"/>
<text xml:space="preserve" text-anchor="start" x="298.75" y="-246.5" font-family="Helvetica,sans-Serif" font-size="10.00">RelationshipConnectionLine</text>
<text xml:space="preserve" text-anchor="middle" x="359.5" y="-234.5" font-family="Helvetica,sans-Serif" font-size="10.00">GraphicsItem</text>
</a>
</g>
</g>
<!-- Node3&#45;&gt;Node4 -->
<g id="edge3_Node000003_Node000004" class="edge">
<title>Node3&#45;&gt;Node4</title>
<g id="a_edge3_Node000003_Node000004"><a xlink:title=" ">
<path fill="none" stroke="#63b8ff" d="M266.6,-242.33C274.53,-242.47 282.58,-242.62 290.46,-242.76"/>
<polygon fill="#63b8ff" stroke="#63b8ff" points="266.67,-238.83 256.61,-242.14 266.54,-245.83 266.67,-238.83"/>
</a>
</g>
</g>
<!-- Node5 -->
<g id="Node000005" class="node">
<title>Node5</title>
<g id="a_Node000005"><a xlink:title=" ">
<polygon fill="#e0e0e0" stroke="#999999" points="73.38,-134 21.38,-134 21.38,-114 73.38,-114 73.38,-134"/>
<text xml:space="preserve" text-anchor="middle" x="47.38" y="-120.5" font-family="Helvetica,sans-Serif" font-size="10.00">QObject</text>
</a>
</g>
</g>
<!-- Node5&#45;&gt;Node3 -->
<g id="edge10_Node000005_Node000003" class="edge">
<title>Node5&#45;&gt;Node3</title>
<g id="a_edge10_Node000005_Node000003"><a xlink:title=" ">
<path fill="none" stroke="#63b8ff" d="M60.94,-143.75C75.41,-165.05 101.05,-198.62 130.75,-219 137.62,-223.71 145.61,-227.54 153.51,-230.6"/>
<polygon fill="#63b8ff" stroke="#63b8ff" points="64.03,-142.08 55.6,-135.66 58.19,-145.93 64.03,-142.08"/>
</a>
</g>
</g>
<!-- Node6 -->
<g id="Node000006" class="node">
<title>Node6</title>
<g id="a_Node000006"><a xlink:href="class_auto_save_manager.html" target="_top" xlink:title="Manages automatic saving and backup versioning of diagrams.">
<polygon fill="white" stroke="#666666" points="240.88,-210 144.62,-210 144.62,-190 240.88,-190 240.88,-210"/>
<text xml:space="preserve" text-anchor="middle" x="192.75" y="-196.5" font-family="Helvetica,sans-Serif" font-size="10.00">AutoSaveManager</text>
</a>
</g>
</g>
<!-- Node5&#45;&gt;Node6 -->
<g id="edge5_Node000005_Node000006" class="edge">
<title>Node5&#45;&gt;Node6</title>
<g id="a_edge5_Node000005_Node000006"><a xlink:title=" ">
<path fill="none" stroke="#63b8ff" d="M69.76,-141.51C85.76,-153.91 108.61,-170.21 130.75,-181 137.43,-184.26 144.79,-187.11 152.02,-189.55"/>
<polygon fill="#63b8ff" stroke="#63b8ff" points="71.95,-138.77 61.93,-135.31 67.6,-144.26 71.95,-138.77"/>
</a>
</g>
</g>
<!-- Node7 -->
<g id="Node000007" class="node">
<title>Node7</title>
<g id="a_Node000007"><a xlink:href="class_basic_element.html" target="_top" xlink:title="Abstract base class for all ERD elements (Model only).">
<polygon fill="white" stroke="#666666" points="231.12,-172 154.38,-172 154.38,-152 231.12,-152 231.12,-172"/>
<text xml:space="preserve" text-anchor="middle" x="192.75" y="-158.5" font-family="Helvetica,sans-Serif" font-size="10.00">BasicElement</text>
</a>
</g>
</g>
<!-- Node5&#45;&gt;Node7 -->
<g id="edge6_Node000005_Node000007" class="edge">
<title>Node5&#45;&gt;Node7</title>
<g id="a_edge6_Node000005_Node000007"><a xlink:title=" ">
<path fill="none" stroke="#63b8ff" d="M84.52,-133.58C105.75,-139.21 132.54,-146.31 154.04,-152"/>
<polygon fill="#63b8ff" stroke="#63b8ff" points="85.7,-130.27 75.14,-131.09 83.91,-137.04 85.7,-130.27"/>
</a>
</g>
</g>
<!-- Node11 -->
<g id="Node000011" class="node">
<title>Node11</title>
<g id="a_Node000011"><a xlink:href="class_connection_line.html" target="_top" xlink:title=" ">
<polygon fill="white" stroke="#666666" points="234.5,-134 151,-134 151,-114 234.5,-114 234.5,-134"/>
<text xml:space="preserve" text-anchor="middle" x="192.75" y="-120.5" font-family="Helvetica,sans-Serif" font-size="10.00">ConnectionLine</text>
</a>
</g>
</g>
<!-- Node5&#45;&gt;Node11 -->
<g id="edge11_Node000005_Node000011" class="edge">
<title>Node5&#45;&gt;Node11</title>
<g id="a_edge11_Node000005_Node000011"><a xlink:title=" ">
<path fill="none" stroke="#63b8ff" d="M85.15,-124C105.18,-124 130.03,-124 150.7,-124"/>
<polygon fill="#63b8ff" stroke="#63b8ff" points="85.19,-120.5 75.19,-124 85.19,-127.5 85.19,-120.5"/>
</a>
</g>
</g>
<!-- Node13 -->
<g id="Node000013" class="node">
<title>Node13</title>
<g id="a_Node000013"><a xlink:href="class_connection_point.html" target="_top" xlink:title="Represents a connection point on an ERD element for line attachment.">
<polygon fill="white" stroke="#666666" points="236.75,-96 148.75,-96 148.75,-76 236.75,-76 236.75,-96"/>
<text xml:space="preserve" text-anchor="middle" x="192.75" y="-82.5" font-family="Helvetica,sans-Serif" font-size="10.00">ConnectionPoint</text>
</a>
</g>
</g>
<!-- Node5&#45;&gt;Node13 -->
<g id="edge13_Node000005_Node000013" class="edge">
<title>Node5&#45;&gt;Node13</title>
<g id="a_edge13_Node000005_Node000013"><a xlink:title=" ">
<path fill="none" stroke="#63b8ff" d="M84.56,-114.41C105.24,-108.93 131.19,-102.05 152.38,-96.44"/>
<polygon fill="#63b8ff" stroke="#63b8ff" points="83.91,-110.96 75.14,-116.91 85.7,-117.73 83.91,-110.96"/>
</a>
</g>
</g>
<!-- Node14 -->
<g id="Node000014" class="node">
<title>Node14</title>
<g id="a_Node000014"><a xlink:href="class_diagram_file_manager.html" target="_top" xlink:title="Constructs the file manager associated with a scene.">
<polygon fill="white" stroke="#666666" points="245.75,-58 139.75,-58 139.75,-38 245.75,-38 245.75,-58"/>
<text xml:space="preserve" text-anchor="middle" x="192.75" y="-44.5" font-family="Helvetica,sans-Serif" font-size="10.00">DiagramFileManager</text>
</a>
</g>
</g>
<!-- Node5&#45;&gt;Node14 -->
<g id="edge14_Node000005_Node000014" class="edge">
<title>Node5&#45;&gt;Node14</title>
<g id="a_edge14_Node000005_Node000014"><a xlink:title=" ">
<path fill="none" stroke="#63b8ff" d="M69.76,-106.49C85.76,-94.09 108.61,-77.79 130.75,-67 137.43,-63.74 144.79,-60.89 152.02,-58.45"/>
<polygon fill="#63b8ff" stroke="#63b8ff" points="67.6,-103.74 61.93,-112.69 71.95,-109.23 67.6,-103.74"/>
</a>
</g>
</g>
<!-- Node15 -->
<g id="Node000015" class="node">
<title>Node15</title>
<g id="a_Node000015"><a xlink:href="class_relationship_end.html" target="_top" xlink:title="Represents one end of a relationship in an ERD diagram.">
<polygon fill="white" stroke="#666666" points="236.38,-20 149.12,-20 149.12,0 236.38,0 236.38,-20"/>
<text xml:space="preserve" text-anchor="middle" x="192.75" y="-6.5" font-family="Helvetica,sans-Serif" font-size="10.00">RelationshipEnd</text>
</a>
</g>
</g>
<!-- Node5&#45;&gt;Node15 -->
<g id="edge15_Node000005_Node000015" class="edge">
<title>Node5&#45;&gt;Node15</title>
<g id="a_edge15_Node000005_Node000015"><a xlink:title=" ">
<path fill="none" stroke="#63b8ff" d="M60.55,-104.33C74.83,-82.83 100.45,-48.82 130.75,-29 136.23,-25.42 142.42,-22.48 148.71,-20.07"/>
<polygon fill="#63b8ff" stroke="#63b8ff" points="57.77,-102.19 55.3,-112.49 63.66,-105.98 57.77,-102.19"/>
</a>
</g>
</g>
<!-- Node8 -->
<g id="Node000008" class="node">
<title>Node8</title>
<g id="a_Node000008"><a xlink:href="class_attribute.html" target="_top" xlink:title="Represents an attribute element in an ERD diagram.">
<polygon fill="white" stroke="#666666" points="385.88,-210 333.12,-210 333.12,-190 385.88,-190 385.88,-210"/>
<text xml:space="preserve" text-anchor="middle" x="359.5" y="-196.5" font-family="Helvetica,sans-Serif" font-size="10.00">Attribute</text>
</a>
</g>
</g>
<!-- Node7&#45;&gt;Node8 -->
<g id="edge7_Node000007_Node000008" class="edge">
<title>Node7&#45;&gt;Node8</title>
<g id="a_edge7_Node000007_Node000008"><a xlink:title=" ">
<path fill="none" stroke="#63b8ff" d="M242.49,-173.24C272.06,-180.06 308.59,-188.49 332.67,-194.04"/>
<polygon fill="#63b8ff" stroke="#63b8ff" points="243.55,-169.9 233.02,-171.06 241.98,-176.72 243.55,-169.9"/>
</a>
</g>
</g>
<!-- Node9 -->
<g id="Node000009" class="node">
<title>Node9</title>
<g id="a_Node000009"><a xlink:href="class_entity.html" target="_top" xlink:title="Represents an entity element in an ERD diagram.">
<polygon fill="white" stroke="#666666" points="380.25,-172 338.75,-172 338.75,-152 380.25,-152 380.25,-172"/>
<text xml:space="preserve" text-anchor="middle" x="359.5" y="-158.5" font-family="Helvetica,sans-Serif" font-size="10.00">Entity</text>
</a>
</g>
</g>
<!-- Node7&#45;&gt;Node9 -->
<g id="edge8_Node000007_Node000009" class="edge">
<title>Node7&#45;&gt;Node9</title>
<g id="a_edge8_Node000007_Node000009"><a xlink:title=" ">
<path fill="none" stroke="#63b8ff" d="M242.91,-162C274.86,-162 314.81,-162 338.4,-162"/>
<polygon fill="#63b8ff" stroke="#63b8ff" points="243.06,-158.5 233.06,-162 243.06,-165.5 243.06,-158.5"/>
</a>
</g>
</g>
<!-- Node10 -->
<g id="Node000010" class="node">
<title>Node10</title>
<g id="a_Node000010"><a xlink:href="class_relationship.html" target="_top" xlink:title="Represents a relationship element in an ERD diagram.">
<polygon fill="white" stroke="#666666" points="394.5,-134 324.5,-134 324.5,-114 394.5,-114 394.5,-134"/>
<text xml:space="preserve" text-anchor="middle" x="359.5" y="-120.5" font-family="Helvetica,sans-Serif" font-size="10.00">Relationship</text>
</a>
</g>
</g>
<!-- Node7&#45;&gt;Node10 -->
<g id="edge9_Node000007_Node000010" class="edge">
<title>Node7&#45;&gt;Node10</title>
<g id="a_edge9_Node000007_Node000010"><a xlink:title=" ">
<path fill="none" stroke="#63b8ff" d="M242.44,-150.77C268.74,-144.7 300.57,-137.36 324.24,-131.9"/>
<polygon fill="#63b8ff" stroke="#63b8ff" points="241.98,-147.28 233.02,-152.94 243.55,-154.1 241.98,-147.28"/>
</a>
</g>
</g>
<!-- Node12 -->
<g id="Node000012" class="node">
<title>Node12</title>
<g id="a_Node000012"><a xlink:href="class_relationship_connection_line.html" target="_top" xlink:title=" ">
<polygon fill="white" stroke="#666666" points="428.25,-96 290.75,-96 290.75,-76 428.25,-76 428.25,-96"/>
<text xml:space="preserve" text-anchor="middle" x="359.5" y="-82.5" font-family="Helvetica,sans-Serif" font-size="10.00">RelationshipConnectionLine</text>
</a>
</g>
</g>
<!-- Node11&#45;&gt;Node12 -->
<g id="edge12_Node000011_Node000012" class="edge">
<title>Node11&#45;&gt;Node12</title>
<g id="a_edge12_Node000011_Node000012"><a xlink:title=" ">
<path fill="none" stroke="#63b8ff" d="M245.88,-111.98C267.52,-106.99 292.39,-101.25 313.24,-96.44"/>
<polygon fill="#63b8ff" stroke="#63b8ff" points="245.33,-108.51 236.37,-114.17 246.9,-115.33 245.33,-108.51"/>
</a>
</g>
</g>
</g>
</svg>
